<?xml version="1.0" encoding="UTF-8" standalone="no"?>
<!-- Created with Inkscape (http://www.inkscape.org/) -->

<svg
   width="2091.9438mm"
   height="676.26508mm"
   viewBox="0 0 2091.9438 676.26509"
   version="1.1"
   id="svg12"
   inkscape:version="1.2.1 (9c6d41e410, 2022-07-14, custom)"
   sodipodi:docname="2x_table.svg"
   xml:space="preserve"
   xmlns:inkscape="http://www.inkscape.org/namespaces/inkscape"
   xmlns:sodipodi="http://sodipodi.sourceforge.net/DTD/sodipodi-0.dtd"
   xmlns="http://www.w3.org/2000/svg"
   xmlns:svg="http://www.w3.org/2000/svg"><sodipodi:namedview
     id="namedview14"
     pagecolor="#505050"
     bordercolor="#eeeeee"
     borderopacity="1"
     inkscape:showpageshadow="0"
     inkscape:pageopacity="0"
     inkscape:pagecheckerboard="0"
     inkscape:deskcolor="#505050"
     inkscape:document-units="mm"
     showgrid="true"
     inkscape:zoom="0.12176488"
     inkscape:cx="4155.5496"
     inkscape:cy="1782.1231"
     inkscape:window-width="1366"
     inkscape:window-height="746"
     inkscape:window-x="0"
     inkscape:window-y="0"
     inkscape:window-maximized="1"
     inkscape:current-layer="layer1"
     inkscape:lockguides="false"><inkscape:grid
       type="xygrid"
       id="grid344"
       color="#969696"
       opacity="0.39215686"
       empcolor="#000000"
       empopacity="0.17254902"
       dotted="false"
       originx="-760.96158"
       originy="-9990.3793" /></sodipodi:namedview><defs
     id="defs9" /><g
     inkscape:label="Layer 1"
     inkscape:groupmode="layer"
     id="layer1"
     transform="translate(-865.96161,-10138.879)"><path
       style="fill:none;stroke:#ffffff;stroke-width:1.5"
       d="m 941.27194,10148.105 c -23.48135,12.743 -45.89675,25.236 -48.02662,54.659 -0.52562,7.261 4.10094,37.17 2.22023,41.52 -0.49469,1.144 -2.43144,-0.132 -2.8045,-0.315"
       id="path1015" /><path
       style="fill:none;stroke:#ffffff;stroke-width:1.5"
       d="m 866.01856,10214.747 c 4.59621,-0.35 9.18247,-0.875 13.78866,-1.051 16.86864,-0.645 52.52571,-0.07 41.36601,3.469"
       id="path1017" /><path
       style="fill:none;stroke:#ffffff;stroke-width:1.5"
       d="m 997.47832,10156.199 c -20.94581,14.986 -38.59495,35.417 -35.99076,63.909 0.84127,9.204 17.29909,40.193 32.01775,38.156"
       id="path1019" /><path
       style="fill:none;stroke:#ffffff;stroke-width:1.5"
       d="m 1037.0915,10195.406 c -4.7805,12.686 -11.6795,24.297 -16.9437,36.79 -1.5723,3.732 -3.0112,7.522 -4.3235,11.352 -0.6601,1.927 -1.3422,7.902 -1.636,5.887 -0.3353,-2.3 -0.4674,-4.625 -0.7011,-6.938"
       id="path1021" /><path
       style="fill:none;stroke:#ffffff;stroke-width:1.5"
       d="m 1008.3457,10205.077 c 51.4825,52.864 4.1155,5.346 38.7952,38.051 0.107,0.101 12.6636,16.638 7.4786,6.727"
       id="path1023" /><path
       style="fill:none;stroke:#ffffff;stroke-width:1.5"
       d="m 1067.1228,10139.485 c 4.9078,3.574 10.8591,6.039 14.7234,10.722 25.4142,30.795 26.614,84.923 5.1416,117.517 -8.2212,12.48 -6.2945,11.016 -15.3078,13.14"
       id="path1025" /><path
       style="fill:none;stroke:#ffffff;stroke-width:1.5"
       d="m 1143.6616,10219.582 c 1.1997,1.167 76.5834,0.517 46.858,4.205"
       id="path1027" /><path
       style="fill:none;stroke:#ffffff;stroke-width:1.5"
       d="m 1144.4795,10240.395 c 17.8391,7.554 36.4964,4.938 55.1547,3.889"
       id="path1029" /><path
       style="fill:none;stroke:#ffffff;stroke-width:1.5"
       d="m 1273.0179,10201.187 c 0,4.38 1.3104,8.96 0,13.14 -1.166,3.718 -22.5509,42.674 -26.1751,45.934 -1.1145,1.003 -1.0032,-2.837 -1.2853,-4.309"
       id="path1033" /><path
       style="fill:none;stroke:#ffffff;stroke-width:1.5"
       d="m 1235.8587,10205.707 c 14.2365,12.832 37.8635,54.143 56.5569,58.023"
       id="path1035" /><path
       style="fill:none;stroke:#ffffff;stroke-width:1.5"
       d="m 1094.8169,10478.478 c -19.4592,19.196 -34.4188,42.289 -50.5974,64.12 -1.4939,2.015 2.0662,-4.579 2.9214,-6.938"
       id="path1043" /><path
       style="fill:none;stroke:#ffffff;stroke-width:1.5"
       d="m 1052.3993,10475.535 c 18.2603,24.478 50.3646,48.359 54.2198,80.727"
       id="path1045" /><path
       style="fill:none;stroke:#ffffff;stroke-width:1.5"
       d="m 1052.9835,10685.973 c -20.5102,-2.663 -48.3038,15.525 -40.7817,39.207 1.9908,6.268 24.6079,35.849 21.0336,39.523 -1.1751,1.209 -2.9603,1.612 -4.4405,2.418"
       id="path1047" /><path
       style="fill:none;stroke:#ffffff;stroke-width:1.5"
       d="m 995.60865,10742.209 c 6.00925,-0.54 46.18095,-11.267 50.01315,-6.096"
       id="path1049" /><path
       style="fill:none;stroke:#ffffff;stroke-width:1.5"
       d="m 1102.7629,10685.342 c 3.5056,-3.608 7.0112,-7.217 10.5168,-10.826 -0.078,-0.281 0.055,-0.876 -0.2337,-0.841 -7.9714,0.969 -3.1217,4.781 -10.2831,11.667 -4.0597,3.904 -10.3174,5.114 -14.1391,9.25 -3.3202,3.594 -5.2857,8.411 -6.5438,13.14 -7.0106,26.348 8.8543,46.607 31.9008,57.287"
       id="path1051" /><path
       style="fill:none;stroke:#ffffff;stroke-width:1.5"
       d="m 1155.6974,10701.32 c -3.6357,14.821 -11.3955,28.073 -17.0605,42.15 -0.047,0.116 -3.7349,11.014 -4.0899,10.512 -1.0532,-1.489 -1.0127,-3.504 -1.5191,-5.256"
       id="path1053" /><path
       style="fill:none;stroke:#ffffff;stroke-width:1.5"
       d="m 1129.9898,10710.99 c -9.3573,-3.341 45.9686,40.753 35.9907,32.375"
       id="path1055" /><path
       style="fill:none;stroke:#ffffff;stroke-width:1.5"
       d="m 1173.1086,10650.655 c 30.9756,30.146 42.6356,79.532 19.865,118.673 -15.9121,27.353 -10.9159,28.803 -22.5527,22.075"
       id="path1057" /><path
       style="fill:none;stroke:#ffffff;stroke-width:1.5"
       d="m 907.50142,10609.555 c 28.68536,-1.3 57.39154,1.703 86.12073,0.21 31.97865,-1.661 63.68465,-7.268 95.46895,-10.932 33.2068,-3.827 66.6436,-6.163 100.0263,-7.673 46.3915,-2.098 93.031,1.419 139.4058,2.102 40.1801,0.593 80.5129,-0.781 120.7092,-0.945 24.8381,-0.102 49.4259,-2.906 74.2018,-3.89 21.4423,-0.851 42.928,0.706 64.3861,0.316 42.9641,-0.781 85.9252,-4.1 128.8889,-4.1 64.4139,0 128.4137,9.752 192.9245,8.935 39.9778,-0.507 79.9247,-2.325 119.8913,-3.259 33.5856,-0.784 67.0582,-0.612 100.6106,-3.048 53.1472,-3.859 106.1671,-9.434 159.2707,-13.455 28.3231,-2.144 56.9049,-3.753 85.3028,-4.204 15.9657,-0.254 31.9589,1.087 47.9098,0.21 40.7098,-2.238 81.009,-7.683 121.5272,-11.773 56.4639,-5.699 113.8907,-7.805 170.6055,-4.94 28.353,1.432 61.4272,7.237 89.7432,1.577"
       id="path1061" /><path
       style="fill:none;stroke:#ffffff;stroke-width:1.5"
       d="m 1235.5081,10466.6 c 0.4674,3.259 1.391,6.484 1.4023,9.776 0.096,27.955 -3.1952,56.257 -4.4405,84.196 -1.1633,26.099 -0.487,52.121 -1.1685,78.205 -0.8187,31.331 -1.9831,62.31 -1.4023,93.657 0.265,14.301 1.0129,75.016 -7.7123,81.883"
       id="path1067" /><path
       style="fill:none;stroke:#ffffff;stroke-width:1.5"
       d="m 1364.1634,10498.765 c -4.3625,1.156 -9.2344,1.119 -13.0876,3.469 -8.1323,4.959 -31.4962,26.293 -26.7593,39.207 7.0028,19.092 74.3153,2.785 78.0578,-16.292 3.3979,-17.32 -29.7997,-25.971 -38.2109,-26.384 -21.2437,-1.044 -47.7382,18.549 -17.4111,-7.463"
       id="path1069" /><path
       style="fill:none;stroke:#ffffff;stroke-width:1.5"
       d="m 1368.9544,10462.185 c -1.0907,34.055 -12.0846,66.895 -18.6966,100.174 -1.2136,6.109 -5.2471,25.381 -3.3887,26.384 3.375,1.821 3.6152,-6.796 4.9079,-10.407"
       id="path1071" /><path
       style="fill:none;stroke:#ffffff;stroke-width:1.5"
       d="m 1481.4839,10440.427 c 0.1302,19.444 0.5863,16.102 -1.2854,35.949 -2.5981,27.55 -7.6864,54.664 -11.101,82.094 -7.3133,58.748 -14.964,117.527 -19.2808,176.591 -1.3036,17.836 -2.4704,35.817 -2.2202,53.714 0.1175,8.403 1.9675,18.033 -0.2337,26.173"
       id="path1073" /><path
       style="fill:none;stroke:#ffffff;stroke-width:1.5"
       d="m 1590.7416,10482.472 c 5.3927,24.755 -0.09,50.29 -1.7528,75.262 -0.5691,8.544 -0.6427,13.328 0.818,12.298 1.7442,-1.23 2.1033,-3.714 3.155,-5.571"
       id="path1075" /><path
       style="fill:none;stroke:#ffffff;stroke-width:1.5"
       d="m 1668.6825,10451.779 c -15.9435,62.689 -13.1539,127.892 -18.4627,191.833 -1.1872,14.298 -4.5072,28.223 -5.8426,42.466 -1.0473,11.17 -0.478,22.369 -1.7528,33.531 -1.2862,11.262 -4.1863,22.287 -5.609,33.532 -1.6088,12.714 -2.3092,24.952 -5.6089,37.42"
       id="path1077" /><path
       style="fill:none;stroke:#ffffff;stroke-width:1.5"
       d="m 1752.1157,10483.103 c -18.609,-9.708 12.8558,-21.085 10.2831,-14.926 -2.3287,5.575 -8.0732,9.303 -10.2831,14.926 -18.1541,46.195 5.7569,12.704 -18.6964,45.514 -4.5242,6.071 -11.4005,13.011 -10.4,13.875 3.7453,3.235 33.1713,-5.939 37.6266,4.941"
       id="path1079" /><path
       style="fill:none;stroke:#ffffff;stroke-width:1.5"
       d="m 1823.7467,10436.958 c -11.5124,70.179 -11.9114,141.325 -17.4112,212.12 -1.7452,22.466 -6.5024,44.676 -7.5955,67.168 -1.592,32.757 -0.016,63.906 -8.5301,96.074"
       id="path1081" /><path
       style="fill:none;stroke:#ffffff;stroke-width:1.5"
       d="m 1896.0788,10510.643 c 2.1033,-4.59 3.581,-9.522 6.31,-13.77 0.6813,-1.061 15.2492,-17.071 18.5797,-7.778 5.4087,15.09 -3.0454,34.837 -16.4763,43.201 -0.3881,0.242 -0.3395,-1.394 0.1168,-1.366 2.9072,0.177 6.05,0.365 8.5304,1.892 10.21,6.284 15.0199,21.705 7.7123,31.744 -16.0845,22.098 -45.1505,6.458 -33.5369,-8.409"
       id="path1083" /><path
       style="fill:none;stroke:#ffffff;stroke-width:1.5"
       d="m 1984.4197,10439.376 c -9.8058,58.072 2.1754,116.059 4.4404,174.068 1.5862,40.625 -2.0274,81.532 -2.9213,122.143 -0.1862,8.457 -1.3293,17.278 -0.818,25.753 0.8464,14.03 7.3259,31.713 -1.6359,44.253"
       id="path1085" /><path
       style="fill:none;stroke:#ffffff;stroke-width:1.5"
       d="m 2104.311,10501.708 c -10.3752,-2.598 -23.9863,7.452 -34.4717,4.415 -3.7553,-1.088 18.8641,-34.736 24.6561,-37.631 5.4979,-2.747 -2.0649,12.15 -2.3371,18.29 -0.2531,5.709 0.01,11.448 0.5842,17.134 1.4715,14.513 5.9728,28.552 10.9843,42.15 0.9145,2.482 3.6975,9.323 4.2066,6.728"
       id="path1087" /><path
       style="fill:none;stroke:#ffffff;stroke-width:1.5"
       d="m 2169.7487,10431.177 c 0.4622,14.135 0.5825,11.381 -0.1168,28.591 -1.0538,25.932 -3.0262,51.692 -2.3371,77.679 0.772,29.113 2.7692,58.088 2.3371,87.245 -0.5766,38.905 -3.7891,77.708 -5.2584,116.571 -0.9038,23.905 7.5089,49.186 -3.2718,72.108"
       id="path1089" /><path
       style="fill:none;stroke:#ffffff;stroke-width:1.5"
       d="m 2247.8067,10520.524 c 0.7011,8.479 0.2445,17.135 2.1032,25.437 2.5875,11.558 14.2882,-0.247 19.9819,-7.673 5.628,-7.341 7.5707,-21.24 5.609,-30.063 -6.3253,-28.449 -23.6708,-7.447 -36.4581,-4.309 -0.2265,0.06 4.6493,-9.071 4.9078,-9.671 2.0199,-4.688 3.9176,-9.44 5.4921,-14.295 2.519,-7.769 4.5183,-15.697 6.7774,-23.546 16.5806,-15.183 30.9869,-17.134 51.4154,-17.869"
       id="path1091" /><path
       style="fill:none;stroke:#ffffff;stroke-width:1.5"
       d="m 2362.7899,10409.733 c -14.2652,72.306 9.7345,144.377 7.5955,216.85 -0.8659,29.34 -6.7941,58.036 -6.3101,87.561 0.3604,21.981 -1.9789,42.096 -3.8561,63.909 -0.6367,7.397 3.2779,20.697 -0.4674,27.014"
       id="path1093" /><path
       style="fill:none;stroke:#ffffff;stroke-width:1.5"
       d="m 2459.6613,10451.989 c -54.4498,30.667 -41.6488,81.33 20.7999,85.458 4.7598,0.315 11.2133,1.56 14.1392,-2.207 2.7246,-3.509 1.5354,-10.768 -2.2202,-13.14 -16.8739,-10.656 -30.5474,-9.076 -47.5592,-6.832 -4.3656,0.576 -16.6303,0.783 -12.8539,3.048 0.5021,0.301 9.1953,0.413 9.582,0.421"
       id="path1095" /><path
       style="fill:none;stroke:#ffffff;stroke-width:1.5"
       d="m 2543.5619,10437.378 c 0.7647,62.134 3.1414,124.457 0.2336,186.578 -1.675,35.786 -7.5826,71.17 -9.8156,106.901 -0.3498,5.599 -0.6796,15.836 0.1169,22.284 0.9288,7.519 4.3284,14.979 3.6225,22.6"
       id="path1097" /><path
       style="fill:none;stroke:#ffffff;stroke-width:1.5"
       d="m 2627.6961,10470.594 c 2.9213,-1.541 5.7974,-3.172 8.764,-4.624 9.8753,-4.836 20.0829,-8.825 30.6154,-11.983 0.1215,-0.04 8.4434,-2.26 9.9327,-2.628 0.3469,-0.09 1.169,-0.548 1.0515,-0.211 -1.3285,3.824 -20.2986,19.054 -20.4491,19.236 -4.4172,5.356 -8.7188,10.963 -11.6853,17.239 -4.0667,8.603 -7.538,17.65 -9.2315,27.014 -2.3641,13.072 6.3464,39.889 -1.0517,18.816"
       id="path1099" /><path
       style="fill:none;stroke:#ffffff;stroke-width:1.5"
       d="m 2619.7501,10500.237 c 13.3093,1.557 55.5071,18.267 68.1254,11.457"
       id="path1101" /><path
       style="fill:none;stroke:#ffffff;stroke-width:1.5"
       d="m 2753.1963,10507.7 c 3.1552,-3.995 5.6809,-8.579 9.4652,-11.983 1.9847,-1.786 4.7374,-2.664 7.3615,-3.154 24.7341,-4.61 -9.0937,40.807 -16.8267,15.137 -2.6685,-8.859 11.901,-17.747 21.1503,-17.975 4.9287,-0.121 5.3959,7.901 4.2069,10.617 -0.8589,1.961 -2.3167,3.689 -3.973,5.045 -13.4059,10.977 -6.2262,-11.759 -3.7394,-10.827 1.0705,0.402 -0.4744,5.502 0.4673,6.833"
       id="path1103" /><path
       style="fill:none;stroke:#ffffff;stroke-width:1.5"
       d="m 2840.9531,10509.907 c -31.8043,-20.001 24.987,-10.34 12.6201,-2.312 -3.5873,2.328 -8.4133,1.541 -12.6201,2.312 z"
       id="path1105" /><path
       style="fill:none;stroke:#ffffff;stroke-width:1.5"
       d="m 2921.8156,10502.444 c -20.2124,-13.151 6.6796,-18.635 5.4919,-13.034 -0.9782,4.612 -3.6613,8.689 -5.4919,13.034 z"
       id="path1107" /><path
       style="fill:none;stroke:#ffffff;stroke-width:1.5"
       d="m 2768.0368,10728.649 c -3.3888,0.771 -10.9371,-1.076 -10.1663,2.313 0.771,3.389 8.6698,0.824 10.1663,-2.313 3.7404,-7.841 -0.2127,-17.899 3.2716,-25.858 5.0199,-11.465 37.1284,-2.336 11.2183,17.66 -4.3936,3.39 -9.5398,10.707 -14.4899,8.198 -18.2663,-9.257 12.74,-35.059 19.748,-23.755 7.1175,11.48 -19.44,24.14 -19.748,23.755 -3.3888,-4.224 2.1648,-10.852 5.0245,-15.451 1.9444,-3.128 5.711,-4.668 8.764,-6.728 1.7193,-1.16 7.1829,-3.461 5.9595,-1.787 -2.1707,2.972 -25.916,25.575 -2.8043,-0.841"
       id="path1131" /><path
       style="fill:none;stroke:#ffffff;stroke-width:1.5"
       d="m 2861.2855,10713.618 c -38.1733,5.486 -0.2894,-39.027 14.7235,-25.332 8.441,7.7 -12.7558,27.845 -14.7235,25.332 -5.4075,-6.906 -0.3432,-28.308 7.829,-25.122 10.1045,3.938 -3.3189,27.235 -7.829,25.122 -15.7313,-7.371 20.6518,-32.63 10.283,-12.298 -2.4278,4.76 -6.8553,8.198 -10.283,12.298 z"
       id="path1133" /><path
       style="fill:none;stroke:#ffffff;stroke-width:1.5"
       d="m 2945.1862,10703.212 c -3.5814,-0.87 -14.805,-0.376 -14.1393,-8.094 0.7688,-8.914 20.2784,-22.499 25.3571,-10.406 4.9662,11.825 -15.8655,27.216 -25.2404,15.451 -4.036,-5.064 13.0738,-16.051 16.9436,-16.187 3.6856,-0.129 5.2652,4.899 4.3236,7.568 -13.3147,37.741 -5.2451,-27.916 -7.2446,11.668 z"
       id="path1135" /><path
       style="fill:none;stroke:#ffffff;stroke-width:1.5"
       d="m 1207.8028,10206.755 c 3.5056,-3.574 6.6162,-7.584 10.5168,-10.722 4.313,-3.47 9.1964,-4.579 10.1662,3.364 1.3791,11.295 -6.3792,26.488 -11.2179,36.054 -3.2891,6.502 -5.117,8.813 -9.8157,14.4 -1.1079,1.318 -5.4871,2.148 -4.0898,3.154 0.9778,0.703 15.5564,-1.717 17.6448,-1.682 4.4005,0.07 14.6284,6.096 5.4921,6.412"
       id="path1320" /><path
       style="fill:none;stroke:#ffffff;stroke-width:1.5"
       d="m 1326.6424,10682.185 c -21.0048,-13.634 -62.0241,38.002 -36.4581,50.981 23.4896,11.924 56.1871,-14.447 67.541,-32.691 7.2886,-11.711 -0.4445,-22.227 -13.9055,-22.179 -5.8707,0.02 -11.5853,2.102 -17.1774,3.889 -26.5759,8.494 -35.4092,30.429 -19.3976,6.517 1.8114,-2.705 3.4277,-5.536 5.1415,-8.304"
       id="path1322" /><path
       style="fill:none;stroke:#ffffff;stroke-width:1.5"
       d="m 1333.4199,10639.719 c 11.6363,13.813 -1.4466,-16.987 -1.7528,-12.719 -0.3062,4.269 1.1685,8.48 1.7528,12.719 -2.9213,11.353 -7.2726,22.43 -8.764,34.057 -1.1064,8.626 0.7519,17.377 1.0517,26.068 0.4013,11.631 0.9665,23.261 1.0516,34.898 0.071,9.672 -0.2822,19.344 -0.5842,29.012 -0.6725,21.525 -0.5995,19.999 -1.0517,11.457"
       id="path1324" /><path
       style="fill:none;stroke:#ffffff;stroke-width:1.5"
       d="m 1560.8161,10685.654 c -2.9993,0.736 -9.7336,-0.792 -8.9977,2.207 0.7357,3 7.9135,0.685 8.9977,-2.207 1.8409,-4.91 -2.8998,-10.343 -2.3371,-15.557 1.0056,-9.317 15.5083,-14.288 16.3594,1.997 0.2786,5.33 0.4733,10.863 -1.0516,15.978 -6.03,20.225 -15.2324,38.002 -30.265,52.557 -2.6173,2.534 -4.8872,6.832 -8.5303,6.832 -2.486,0 4.0309,-3.121 6.4269,-3.784 6.0821,-1.683 14.3283,-1.665 20.4494,-1.156 5.4988,0.456 13.5081,1.621 19.047,3.679 4.5125,1.676 5.3846,7.578 2.5708,4.415"
       id="path1328" /><path
       style="fill:none;stroke:#ffffff;stroke-width:1.5"
       d="m 1734.9272,10734.217 c -1.8172,-3.547 -38.8881,9.807 -34.7054,-3.049 5.8549,-17.994 23.687,-32.667 34.8223,-46.986 1.4288,-1.837 3.2042,-8.634 1.8696,-6.727 -10.7176,15.312 -1.1087,41.616 -1.9865,56.762 -0.3594,6.202 -3.973,11.772 -5.9595,17.659 -0.4285,8.689 -0.9969,17.373 -1.2854,26.068 -0.1756,5.292 -0.4352,21.068 0.5843,15.872"
       id="path1330" /><path
       style="fill:none;stroke:#ffffff;stroke-width:1.5"
       d="m 1946.7819,10680.293 c -2.9992,-0.911 -6.0687,-3.849 -8.9977,-2.733 -23.3827,8.913 -41.1445,66.046 -0.9348,72.214 6.8843,1.055 15.1803,-1.4 20.4493,-5.992 7.3443,-6.4 -1.3229,-9.866 -6.7775,-9.67 -7.3633,0.263 -57.9743,14.722 -25.1234,-4.52"
       id="path1332" /><path
       style="fill:none;stroke:#ffffff;stroke-width:1.5"
       d="m 2096.5875,10661.793 c -5.8426,4.941 -12.1827,9.347 -17.5279,14.821 -17.0129,17.425 7.7227,24.292 16.9437,35.844 5.293,6.631 11.0701,13.674 12.8539,21.969 1.7168,7.983 -17.1328,31.926 -26.5257,23.02 -22.3836,-21.223 45.8875,-68.102 50.4806,-82.304 1.4301,-4.422 -7.808,-5.321 -12.2697,-6.623 -7.9621,-2.322 -15.9699,-4.484 -23.9549,-6.727 z"
       id="path1334" /><path
       style="fill:none;stroke:#ffffff;stroke-width:1.5"
       d="m 2246.627,10692.907 c 13.1639,3.34 -21.5755,60.986 -12.1528,62.648 4.5233,0.798 7.3662,-5.514 10.7505,-8.62"
       id="path1336" /><path
       style="fill:none;stroke:#ffffff;stroke-width:1.5"
       d="m 2278.9953,10710.671 c -3.4667,1.191 -7.6137,1.192 -10.4,3.574 -18.2427,15.595 0.4835,27.577 17.2943,25.333 11.2616,-1.504 50.2909,-17.453 16.3595,-24.177 -7.7592,-1.537 -15.5026,-3.153 -23.2538,-4.73 z"
       id="path1338" /><path
       style="fill:none;stroke:#ffffff;stroke-width:1.5"
       d="m 2297.2244,10688.492 c 1.8696,-4.555 4.298,-8.919 5.6089,-13.665 1.0984,-3.977 -5.0083,-6.732 -6.31,1.367 -0.6516,4.054 1.4771,8.266 0.7011,12.298 -11.8019,61.321 -7.2986,-3.56 -10.1663,55.185 -0.4205,8.615 -0.6744,17.237 -0.9347,25.858 -0.1682,5.57 -0.446,11.142 -0.3507,16.713 0.022,1.283 0.048,4.889 0.7012,3.784 2.1707,-3.673 2.8045,-8.059 4.2067,-12.088"
       id="path1340" /><path
       style="fill:none;stroke:#ffffff;stroke-width:1.5"
       d="m 2443.9919,10666.313 c 7.6231,18.086 0.5151,38.93 -2.2202,57.708 -0.1721,1.181 -1.1662,4.319 -0.2337,3.574 1.1971,-0.958 0.8569,-2.944 1.2854,-4.415"
       id="path1342" /><path
       style="fill:none;stroke:#ffffff;stroke-width:1.5"
       d="m 2461.6367,10681.134 c -4.9117,-8.547 24.0763,-41.186 30.7324,-21.338 4.3727,13.039 -11.8246,31.543 -19.164,39.838 -2.4724,2.795 -5.2456,5.309 -7.946,7.884 -1.1965,1.141 -4.0981,1.644 -3.7393,3.258 0.1714,0.771 18.7987,-2.375 27.11,0.631 15.2389,5.512 9.9649,12.782 7.2448,8.83"
       id="path1344" /><path
       style="fill:none;stroke:#ffffff;stroke-width:1.5"
       d="m 2613.0784,10638.878 c 0.74,-2.978 5.1983,-8.194 2.2201,-8.934 -2.9782,-0.74 -2.3899,5.87 -2.2201,8.934 0.4637,8.368 3.7427,16.434 4.0898,24.807 0.079,1.899 -6.4764,48.582 -5.492,48.773 1.5041,0.293 2.6486,-1.542 3.973,-2.312"
       id="path1346" /><path
       style="fill:none;stroke:#ffffff;stroke-width:1.5"
       d="m 2680.8531,10686.915 c -12.2724,-13.862 -30.5246,-5.621 -46.2738,-3.363 -1.1973,0.171 -4.5631,0.97 -3.6225,0.21 20.5039,-16.573 30.2562,-12.456 50.0133,-37.736 2.5912,-3.316 -1.6176,-20.407 -5.9596,-16.923 -8.6882,6.97 -6.3056,77.246 -6.5438,88.19 -0.2294,10.546 -0.68,21.092 -0.5842,31.64 0.021,2.333 -1.396,7.048 0.9348,6.937 3.6058,-0.171 5.2973,-4.905 7.946,-7.358"
       id="path1348" /></g></svg>
