<?xml version="1.0" encoding="UTF-8" standalone="no"?>
<!-- Created with Inkscape (http://www.inkscape.org/) -->

<svg
   width="599.24817mm"
   height="497.45505mm"
   viewBox="0 0 599.24816 497.45506"
   version="1.1"
   id="svg12"
   inkscape:version="1.2.1 (9c6d41e410, 2022-07-14, custom)"
   sodipodi:docname="3d_domain_shape.svg"
   xml:space="preserve"
   xmlns:inkscape="http://www.inkscape.org/namespaces/inkscape"
   xmlns:sodipodi="http://sodipodi.sourceforge.net/DTD/sodipodi-0.dtd"
   xmlns="http://www.w3.org/2000/svg"
   xmlns:svg="http://www.w3.org/2000/svg"><sodipodi:namedview
     id="namedview14"
     pagecolor="#000000"
     bordercolor="#ffffff"
     borderopacity="1"
     inkscape:showpageshadow="0"
     inkscape:pageopacity="0"
     inkscape:pagecheckerboard="0"
     inkscape:deskcolor="#000000"
     inkscape:document-units="mm"
     showgrid="true"
     inkscape:zoom="0.32391637"
     inkscape:cx="1491.1256"
     inkscape:cy="1361.4625"
     inkscape:window-width="1366"
     inkscape:window-height="746"
     inkscape:window-x="0"
     inkscape:window-y="0"
     inkscape:window-maximized="1"
     inkscape:current-layer="layer1"
     inkscape:lockguides="true"><inkscape:grid
       type="xygrid"
       id="grid344"
       color="#969696"
       opacity="0.39215686"
       empcolor="#ffffff"
       empopacity="0.17254902"
       dotted="false"
       originx="-3962.0118"
       originy="-3828.1613" /></sodipodi:namedview><defs
     id="defs9" /><g
     inkscape:label="Layer 1"
     inkscape:groupmode="layer"
     id="layer1"
     transform="translate(-4067.0121,-3976.6609)"><path
       style="fill:none;stroke:#ff9955;stroke-width:3"
       d="m 4284.5323,3998.9405 c -4.8731,-4.0914 -6.2458,-9.6485 -5.9301,-15.8451 0.059,-1.1578 0.3424,-2.2932 0.5271,-3.4377 0.079,-0.4889 0.5219,-1.0395 0.2636,-1.462 -0.3583,-0.5859 -4.5504,6.8979 -4.5684,6.9149 -1.493,1.4754 -3.7806,1.8503 -5.5348,3.0031 -1.0881,0.7151 -1.8431,1.8716 -2.9431,2.5684 -1.0406,0.6592 0.5575,-2.7048 1.6253,-3.3192 8.8627,-5.099 6.9757,1.4081 5.9741,-6.0456 -0.02,-0.146 0.2635,0.1316 0.3953,0.1976 0.1611,1.1986 0.3222,2.3971 0.4832,3.5957 1.3968,9.9835 -0.013,19.9569 -0.2196,29.9516 -0.1277,6.1841 1.2487,12.2255 1.0542,18.3739 -0.3044,9.6218 -1.0357,19.2711 -1.5374,28.8847 -0.4403,8.4353 0.2971,16.8923 -0.044,25.3283 -0.4111,10.1691 -1.4096,20.3183 -1.1861,30.5048 0.1643,7.4852 1.7212,15.0658 2.4599,22.5229 1.1297,11.4034 1.0005,23.065 0.3954,34.4956 -0.3144,5.9376 -1.8894,11.2845 -2.7674,17.1095 -0.8977,5.9555 -1.186,12.3769 -1.186,18.4135 0,9.8552 2.413,19.5167 2.5038,29.3193 0.078,8.4059 -2.5118,16.9286 -0.7907,25.2889 -11.3229,13.8427 -25.9017,24.2738 -40.0611,35.0093 -10.2178,7.7469 -20.2705,15.6209 -30.7927,22.9575 -7.1212,4.9653 -14.671,9.2258 -21.5241,14.5807 -3.7488,2.9291 -6.9031,6.574 -10.4985,9.6809 -5.0284,4.3451 -10.8572,7.6032 -16.0333,11.7356 -4.5998,3.6722 -8.4693,8.3465 -12.6509,12.4864 -8.8182,8.7302 -17.8157,16.6599 -24.7308,27.0275 -2.8537,1.335 -5.8454,2.408 -8.5612,4.0051 -4.3314,2.547 -14.9012,12.4374 -18.625,16.5168 -3.5976,3.9411 -6.2635,8.7055 -9.576,12.8815 -3.4651,4.3683 -2.5434,3.4283 -5.5348,6.3222 -0.1751,0.1694 -0.4426,0.5674 -0.615,0.3952 -1.0557,-1.0551 5.3691,-17.6342 6.2816,-19.836 1.3685,-3.3022 2.9117,-6.5338 4.173,-9.8785 0.1535,-0.4069 0.4196,-1.523 0.044,-1.304 -3.8889,2.2675 -17.7289,27.0449 -16.1211,30.6233 0.8764,1.9507 4.1646,1.001 6.2815,1.304 6.8543,0.9809 12.7448,0.1765 16.8679,6.7568"
       id="path1285" /><path
       style="fill:none;stroke:#ff9955;stroke-width:3"
       d="m 4272.1934,4269.1901 c 1.1714,-0.8825 2.1563,-2.0931 3.5142,-2.6474 0.1517,-0.062 8.9227,1.9094 9.5321,2.0942 7.4782,2.268 14.4983,5.7511 21.9634,8.1004 20.6562,6.5008 41.9851,10.7476 62.8153,16.6353 26.6242,7.5254 52.3992,17.0332 79.2439,24.222 26.4598,7.0858 53.1191,12.9516 79.8149,19.0457 26.1747,5.9751 52.2328,12.7134 78.2337,19.4013 12.1637,3.1288 24.2537,6.3769 36.0638,10.6688 6.7811,2.4642 14.1385,6.4236 21.2167,8.0608 0.7352,0.1701 -0.9863,-1.1559 -1.5814,-1.62 -2.9559,-2.306 -5.8832,-4.6559 -8.961,-6.7964 -6.6749,-4.6422 -15.3627,-7.1818 -20.9971,-13.2767 -0.8231,-0.8905 1.7983,-2.8378 5.6666,-3.2796 2.1482,-0.2454 20.1557,1.6979 14.8034,8.4164 -10.0237,12.5821 -23.3058,15.3836 -33.9554,25.9211"
       id="path1287" /><path
       style="fill:none;stroke:#00ffff;stroke-width:3"
       d="m 4270.7878,4353.0386 c -1.7571,0.1976 -3.5446,0.212 -5.2713,0.5927 -2.1731,0.4791 -6.4334,2.7136 -8.2143,3.5562 -13.47,6.374 -27.5429,14.4129 -37.3817,25.8816 -5.994,6.9871 -10.6301,14.8641 -14.8912,22.9971 -15.9117,30.3703 -0.7574,51.4791 29.5189,60.2192 35.9022,10.3641 75.9595,6.5728 111.8815,-1.225 22.2505,-4.83 56.967,-14.8151 74.0166,-30.9788 10.6775,-10.1227 8.5302,-24.6114 0.8786,-36.1157 -4.0275,-6.0553 -9.3391,-11.3649 -13.8809,-17.0305 -15.8783,-19.8071 -30.9734,-31.0415 -55.831,-36.8665 -8.7625,-2.0533 -17.161,-3.7739 -26.2243,-3.3982 -10.7154,0.4442 -21.3534,2.526 -31.5394,5.8086 -1.6332,0.5263 -15.9215,5.4278 -17.2632,5.769 -1.8905,0.4808 -3.9614,0.1341 -5.7983,0.7903 -2.29,0.818 -4.1732,2.5125 -6.3694,3.5562 -2.1496,1.0215 -4.4623,1.6574 -6.6769,2.5289"
       id="path1289" /><path
       style="fill:none;stroke:#00ffff;stroke-width:3"
       d="m 4198.4403,4437.0846 c -2.7683,-4.5698 -2.1581,-9.9778 -3.5141,-14.8572"
       id="path1412" /><path
       style="fill:none;stroke:#00ffff;stroke-width:3"
       d="m 4196.1561,4410.6894 c -0.7209,-2.937 -0.7526,-5.9465 -1.0981,-8.9302"
       id="path1414" /><path
       style="fill:none;stroke:#00ffff;stroke-width:3"
       d="m 4193.6962,4386.902 c -0.8192,-5.306 -0.4583,-2.8422 -1.0981,-7.3891"
       id="path1416" /><path
       style="fill:none;stroke:#00ffff;stroke-width:3"
       d="m 4192.7298,4367.6192 c -0.7465,-3.3158 -0.3133,-6.6551 -0.1757,-9.997"
       id="path1418" /><path
       style="fill:none;stroke:#00ffff;stroke-width:3"
       d="m 4192.5102,4345.61 c -0.3195,-5.508 -0.4016,-3.0332 0,-7.4286"
       id="path1420" /><path
       style="fill:none;stroke:#00ffff;stroke-width:3"
       d="m 4192.6859,4326.4458 c -0.044,-1.5279 -0.088,-3.0558 -0.1318,-4.5837"
       id="path1422" /><path
       style="fill:none;stroke:#00ffff;stroke-width:3"
       d="m 4191.8074,4293.2541 c -0.1938,-3.6093 0.048,-7.2218 -0.2196,-10.8268"
       id="path1424" /><path
       style="fill:none;stroke:#00ffff;stroke-width:3"
       d="m 4428.0017,4413.0207 c -0.5362,-4.2607 0.012,-9.1048 -1.801,-13.1187"
       id="path1426" /><path
       style="fill:none;stroke:#00ffff;stroke-width:3"
       d="m 4425.8932,4392.2363 c -1.6287,-4.6998 -2.0821,-9.4361 -2.2841,-14.3435"
       id="path1428" /><path
       style="fill:none;stroke:#00ffff;stroke-width:3"
       d="m 4423.9604,4368.6861 c -0.7185,-3.7974 0.2221,-7.7253 -0.5271,-11.4986"
       id="path1430" /><path
       style="fill:none;stroke:#00ffff;stroke-width:3"
       d="m 4422.1595,4345.4124 c -0.9357,-4.2093 -1.3364,-8.493 -1.845,-12.763"
       id="path1432" /><path
       style="fill:none;stroke:#00ffff;stroke-width:3"
       d="m 4420.5341,4320.9533 c -3.1804,-5.0843 -4.9463,-8.2963 -3.2944,-14.0274 0.071,-6.6541 0.5222,-13.3707 -0.3515,-19.994"
       id="path1434" /><path
       style="fill:none;stroke:#00ffff;stroke-width:3"
       d="m 4415.7901,4276.7768 c -1.6353,-4.4954 -1.807,-9.1536 -2.2403,-13.8299"
       id="path1436" /><path
       style="fill:none;stroke:#00ffff;stroke-width:3"
       d="m 4413.1105,4249.7493 c -1.9645,-4.0523 -2.8325,-7.628 -2.1524,-12.0122"
       id="path1438" /><path
       style="fill:none;stroke:#00ffff;stroke-width:3"
       d="m 4411.3535,4230.0714 c -1.392,-4.3376 -1.3783,-2.4993 -1.0543,-5.4134"
       id="path1440" /><path
       style="fill:none;stroke:#00ffff;stroke-width:3"
       d="m 4194.0916,4282.4273 c 7.7567,-0.7812 13.7211,-5.0316 20.8213,-7.7052 4.3166,-1.6255 9.1015,-2.5695 13.5294,-3.9119 16.0824,-4.8755 26.2775,-5.9267 42.1697,-0.3556 12.1311,4.2526 27.6023,14.1641 40.7641,13.4347 13.7476,-0.7619 30.5798,-7.5732 42.6969,-13.9879 12.3605,-6.5436 21.3324,-16.3418 30.6169,-26.5138 3.706,-4.0602 15.7569,-18.5633 21.4363,-19.1643"
       id="path1442" /><path
       style="fill:none;stroke:#00ffff;stroke-width:3"
       d="m 4399.7568,4220.4695 c -3.8911,-5.5313 -10.4227,-6.8711 -16.7361,-8.0213 -16.9373,-3.0857 -31.615,8.7722 -44.8932,17.5837 -4.6628,3.0942 -8.3824,5.8642 -13.7491,7.5076 -8.5356,2.6138 -17.3163,3.9803 -26.2243,4.386 -2.5656,0.1169 -5.075,-0.3349 -7.6432,-0.3556 -9.0257,-0.073 -18.4926,0.787 -27.1468,3.5167 -7.2096,2.2741 -13.0918,6.9638 -19.811,10.2737 -5.3365,2.6288 -10.7824,5.4805 -16.2529,7.8237 -4.8696,2.0859 -9.475,3.7945 -13.8808,6.8359 -5.1404,3.5485 -9.4852,9.8899 -14.2762,12.763"
       id="path1444" /><path
       style="fill:none;stroke:#00ffff;stroke-width:3"
       d="m 4213.5951,4445.7777 c 4.5735,-8.8042 4.7018,-9.9136 11.2452,-18.374 13.8324,-17.8849 29.5431,-34.9423 45.3764,-51.0914 5.9068,-6.0247 13.0156,-13.6043 20.6456,-17.8998 2.7818,-1.5661 2.2577,-1.0254 2.1524,0.8693"
       id="path1448" /><path
       style="fill:none;stroke:#00ffff;stroke-width:3"
       d="m 4241.8839,4453.799 c 15.4281,-18.4695 -5.4338,6.8379 13.1781,-17.149 17.7264,-22.8459 37.8278,-46.562 58.9058,-66.3438 3.7196,-3.491 7.6144,-6.7945 11.5527,-10.0366 1.4964,-1.2318 9.1621,-7.3812 10.0153,-6.8359 0.6251,0.3995 -1.4199,3.2127 -3.6898,6.7174"
       id="path1450" /><path
       style="fill:none;stroke:#00ffff;stroke-width:3"
       d="m 4284.4051,4458.3036 c 13.0006,-12.7405 -0.035,0.4944 22.3147,-26.8695 6.0738,-7.4363 29.2865,-34.2967 35.6247,-41.1734 4.193,-4.5493 22.5729,-23.9781 29.3431,-27.1065 2.7418,-1.267 0.022,2.4236 -1.7571,5.2158"
       id="path1452" /><path
       style="fill:none;stroke:#00ffff;stroke-width:3"
       d="m 4341.0267,4443.8415 c -0.8054,2.845 -2.1588,5.5894 -2.416,8.535 -0.058,0.6693 1.3191,-0.4783 1.7571,-0.9879 2.0391,-2.3725 3.6514,-5.0829 5.5787,-7.5471 13.1851,-16.8582 27.1813,-33.7414 42.5211,-48.6811 2.4521,-2.3882 12.1391,-13.1069 16.9118,-13.7508 1.3725,-0.1852 -0.3332,2.779 -0.8346,4.0699"
       id="path1454" /><path
       style="fill:none;stroke:#00ffff;stroke-width:3"
       d="m 4382.1422,4439.3764 c 1.8009,-1.8308 3.7873,-3.4961 5.4029,-5.4924 5.3423,-7.5607 6.6244,-9.7124 12.2117,-16.4773 3.6153,-4.3774 7.9137,-8.4049 11.2453,-13.0001"
       id="path1456" /><path
       style="fill:none;stroke:#00ffff;stroke-width:3"
       d="m 4336.1508,4274.2479 c 13.5127,-11.6666 10.3195,-33.9953 24.7747,-44.8087 2.863,-2.1418 5.982,-3.9275 9.0929,-5.69 4.4811,-2.539 13.6473,-4.1124 15.2865,-9.7995"
       id="path1458" /><path
       style="fill:none;stroke:#00ffff;stroke-width:3"
       d="m 4335.6676,4235.1687 c -3.2445,5.5413 -4.1929,12.4179 -7.819,17.7417 -2.5029,3.6749 -5.5412,6.903 -8.1703,10.4712 -1.9596,2.6594 -4.7261,7.4904 -8.2583,8.535 -2.8643,0.8471 -5.6474,-0.2899 -8.4778,-0.6322 -2.7902,-0.3375 -6.0416,-0.044 -8.6097,-1.304"
       id="path1460" /><path
       style="fill:none;stroke:#00ffff;stroke-width:3"
       d="m 4287.6117,4241.6094 c -0.4832,1.1064 -0.9749,2.2091 -1.4496,3.3192 -0.9572,2.2388 -1.7737,4.4383 -3.4263,6.2827 -6.0335,6.734 -16.1333,3.1007 -17.8342,16.8725"
       id="path1462" /><path
       style="fill:none;stroke:#00ffff;stroke-width:3"
       d="m 4252.646,4253.3451 c -4.2564,-0.6063 -12.384,5.0186 -12.607,8.9301 -0.027,0.4793 0.8492,-0.4478 1.2739,-0.6717"
       id="path1464" /><path
       style="fill:none;stroke:#00ffff;stroke-width:3"
       d="m 4219.3056,4270.0199 c 4.3788,-0.4186 7.0288,-6.5988 11.0256,-7.4286"
       id="path1466" /></g></svg>
