<?xml version="1.0" encoding="UTF-8" standalone="no"?>
<!-- Created with Inkscape (http://www.inkscape.org/) -->

<svg
   width="285.58313mm"
   height="161.08334mm"
   viewBox="0 0 285.58312 161.08335"
   version="1.1"
   id="svg12"
   inkscape:version="1.2.1 (9c6d41e410, 2022-07-14, custom)"
   sodipodi:docname="3d_mapping.svg"
   xml:space="preserve"
   xmlns:inkscape="http://www.inkscape.org/namespaces/inkscape"
   xmlns:sodipodi="http://sodipodi.sourceforge.net/DTD/sodipodi-0.dtd"
   xmlns="http://www.w3.org/2000/svg"
   xmlns:svg="http://www.w3.org/2000/svg"><sodipodi:namedview
     id="namedview14"
     pagecolor="#000000"
     bordercolor="#ffffff"
     borderopacity="1"
     inkscape:showpageshadow="0"
     inkscape:pageopacity="0"
     inkscape:pagecheckerboard="0"
     inkscape:deskcolor="#000000"
     inkscape:document-units="mm"
     showgrid="true"
     inkscape:zoom="0.52314274"
     inkscape:cx="508.46543"
     inkscape:cy="273.34796"
     inkscape:window-width="1366"
     inkscape:window-height="746"
     inkscape:window-x="1360"
     inkscape:window-y="0"
     inkscape:window-maximized="1"
     inkscape:current-layer="layer1"
     inkscape:lockguides="true"
     showguides="true"><sodipodi:guide
       position="3265.6758,-22192.731"
       orientation="0,-1"
       id="guide3409"
       inkscape:locked="true" /></sodipodi:namedview><defs
     id="defs9"><rect
       x="587.26367"
       y="362.45731"
       width="66.575974"
       height="20.973427"
       id="rect1884" /></defs><g
     inkscape:label="Layer 1"
     inkscape:groupmode="layer"
     id="layer1"
     transform="translate(-3237.1595,-22660.563)"><path
       style="fill:none;stroke:#ffccaa;stroke-width:0.499999"
       d="m 3239.0146,22748.854 c -1.1681,-8.722 -0.8263,-17.518 -1.5775,-26.276 7.0991,1.433 14.2576,-0.93 21.4051,-0.367 1.1058,0.09 2.3643,0.424 3.4814,0.318 0.353,-0.03 0.9979,-0.77 0.9791,-0.416 -0.2083,3.932 -0.077,7.973 0.2448,11.891 0.1135,1.384 1.5099,10.525 1.0063,11.107 -0.4062,0.47 -5.5805,0.139 -6.31,0.1 -0.8275,-0.05 -15.7955,0.594 -16.7813,1.37 -0.8754,0.689 -1.6319,1.517 -2.4479,2.275 z"
       id="path2902" /><path
       style="fill:none;stroke:#ffccaa;stroke-width:0.499999"
       d="m 3250.0844,22750.616 c 2.2772,-0.73 6.7405,12.745 0.8431,11.303 -3.2997,-0.807 -1.6336,-6.313 2.5566,-4.697"
       id="path2904" /><path
       style="fill:none;stroke:#ffccaa;stroke-width:0.499999"
       d="m 3255.9592,22751.399 c -0.6995,2.964 3.9685,10.482 5.902,4.746 0.2487,-0.737 0.5847,-5.766 -1.1695,-3.327"
       id="path2906" /><path
       style="fill:none;stroke:#ffccaa;stroke-width:0.499999"
       d="m 3268.6064,22727.227 c 3.2959,3.735 6.3009,9.7 2.8286,14.386 -0.2841,0.383 -0.8336,0.657 -1.3055,0.587 -3.0493,-0.457 -1.5922,-9.129 2.3935,-7.536"
       id="path2908" /><path
       style="fill:none;stroke:#ffccaa;stroke-width:0.499999"
       d="m 3273.5293,22728.866 c 0.9338,1.835 1.8123,3.699 2.8014,5.505 0.8517,1.555 2.1253,3.739 2.5566,3.351 1.4393,-1.294 0.4508,-8.782 0.408,-9.859 -0.1043,-2.628 0.058,-5.777 -0.8159,-4.991"
       id="path2910" /><path
       style="fill:none;stroke:#ffccaa;stroke-width:0.499999"
       d="m 3300.7774,22731.557 c 13.4693,-1.005 26.967,-0.21 40.4439,-0.539 8.726,-0.212 6.953,-0.555 17.5158,-0.954 9.1893,-0.346 16.7645,-0.42 25.784,-0.171 6.8502,0.189 11.3628,0.312 17.5156,0.832 0.7902,0.07 1.5774,0.164 2.3663,0.244 0.3533,0.04 1.3899,0.232 1.0608,0.1 -4.1542,-1.681 -6.4701,-7.365 -8.9755,-10.765 -0.7989,-1.084 -1.8904,-2.005 -2.3935,-3.254 -0.3486,-0.865 0.8978,-0.951 1.3872,-0.905 4.282,0.403 9.7436,3.907 9.7098,8.71 -0.036,5.14 -5.5952,11.346 -8.2139,15.022 -0.9129,1.282 -5.8973,7.821 -6.9356,10.178 -1.28,2.905 -1.0967,2.665 0.2448,2.52"
       id="path2974" /><path
       style="fill:none;stroke:#ffccaa;stroke-width:0.499999"
       d="m 3462.9376,22691.227 c -12.2439,9.394 -25.7056,17.711 -35.9018,29.457 7.8442,12.67 22.6478,16.79 33.8347,25.396 3.8293,2.946 7.4856,6.121 11.0153,9.419 2.205,2.061 7.3981,9.784 10.5258,11.132 0.3457,0.149 0.6528,-0.375 0.9791,-0.562"
       id="path2976" /><path
       style="fill:none;stroke:#ffccaa;stroke-width:0.499999"
       d="m 3466.3646,22690.591 c 0.4624,0.816 0.8429,1.683 1.3871,2.447 1.3848,1.942 6.146,3.602 8.1867,5.553 3.1943,3.055 6.3582,6.321 9.3291,9.591 1.7514,1.928 3.1838,4.124 4.95,6.043 3.9174,4.256 8.2491,8.074 12.2665,12.233 1.4355,1.486 7.9602,9.149 9.329,9.395"
       id="path2980" /><path
       style="fill:none;stroke:#ffccaa;stroke-width:0.499999"
       d="m 3484.9683,22765.897 c 2.0078,-4.735 5.9732,-8.358 9.8186,-11.645 4.1541,-3.552 8.482,-6.726 12.1304,-10.839 1.8421,-2.077 4.1517,-4.651 5.3309,-7.266 0.2993,-0.664 1.1303,-2.475 0.4896,-2.129 -1.0015,0.541 -2.3611,3.302 -2.883,3.988 -2.4549,3.228 -5.1319,6.431 -7.8059,9.468 -3.8355,4.357 -11.1339,10.23 -12.2393,16.197"
       id="path2982" /><path
       style="fill:none;stroke:#ffccaa;stroke-width:0.499999"
       d="m 3508.2228,22757.53 c -0.2688,-1.319 3.2079,-7.364 3.699,-6.435 0.5202,0.985 0.062,4.933 0.054,5.114 -0.2494,5.698 -0.045,6.131 4.6237,8.563"
       id="path2988" /><path
       style="fill:none;stroke:#ffccaa;stroke-width:0.499999"
       d="m 3521.4413,22770.595 c 1.9797,0.07 0.2999,3.227 -0.7072,3.009 -2.3678,-0.513 -1.603,-7.785 -0.2177,-5.749 0.8579,1.26 3.4489,8.256 0.8432,8.538 -2.5444,0.276 -2.7224,-9.853 -1.0336,-9.444 2.5607,0.621 0.4798,6.471 0.082,7.34 -0.091,0.199 -0.4939,-0.279 -0.4351,-0.489 0.3166,-1.132 0.9792,-2.137 1.4688,-3.205 z"
       id="path2990" /><path
       style="fill:none;stroke:#ffccaa;stroke-width:0.499999"
       d="m 3434.7602,22749.554 c 1.0335,-1.647 1.9746,-3.356 3.1006,-4.942 1.7319,-2.439 3.0657,-1.785 3.427,1.223 0.423,3.524 -0.2192,5.976 -0.8976,9.444 -0.089,0.455 -1.1103,4.49 -0.9791,5.505 0.339,2.623 4.2995,0.182 5.2765,1.688"
       id="path2992" /><path
       style="fill:none;stroke:#ffccaa;stroke-width:0.499999"
       d="m 3453.2822,22767.708 c 2.0545,0.58 -0.5751,5.004 -0.5983,2.226 -0.01,-0.768 0.6787,-1.462 0.5983,-2.226 -0.1811,-1.723 -1.0373,-3.314 -1.3599,-5.016 -0.1051,-0.554 1.3092,0.376 1.4143,0.93 0.2537,1.338 -0.1026,2.725 -0.054,4.086 0.07,1.969 0.6485,3.941 0.408,5.896 -0.047,0.379 -0.8879,0.358 -1.1423,0.07 -1.6509,-1.845 -3.2208,-11.098 -0.408,-12.478 0.9388,-0.461 2.2152,1.777 2.2031,2.153 -0.048,1.493 -1.1063,2.861 -1.0608,4.355 0.04,1.298 1.2613,2.372 1.3055,3.67 0.085,2.486 -2.9079,4.727 -2.6382,0.832 0.1081,-1.562 0.8885,-3.002 1.3327,-4.502 z"
       id="path2994" /><path
       style="fill:none;stroke:#ffccaa;stroke-width:0.499999"
       d="m 3457.1716,22696.365 c 1.4868,-0.946 2.9562,-1.92 4.4605,-2.838 0.013,0 12.1248,-6.43 9.6826,-4.453"
       id="path2996" /><path
       style="fill:none;stroke:#ffccaa;stroke-width:0.499999"
       d="m 3443.4636,22660.889 c -1.3591,9.747 -0.5693,19.799 0.7344,29.531 0.2491,1.86 0.4106,-3.726 0.1088,-9.297 -0.309,-5.703 -1.4848,-11.566 -1.3872,-17.273 0.017,-1.003 1.3878,-3.503 0.544,-2.961 -1.8512,1.191 -6.1757,7.464 -7.8875,9.762 -0.8213,1.103 -3.3277,4.378 -2.5023,3.279 8.6667,-11.542 0.6452,-1.067 8.6219,-10.667 0.6304,-0.759 0.8693,-2.781 1.7679,-2.374 2.4512,1.111 1.8547,5.283 2.8558,7.169 1.4702,2.77 4.9759,4.075 7.4796,5.652"
       id="path2998" /><path
       style="fill:none;stroke:#ffccaa;stroke-width:0.499999"
       d="m 3442.1853,22771.818 c 1.3159,6.58 0.9244,3.431 1.2511,11.401 0.061,1.5 0.091,3.001 0.136,4.502 0.037,1.24 0.063,2.48 0.1088,3.719 0,0.02 0.4864,3.263 -0.4896,3.034 -1.3034,-0.306 -3.2879,-2.868 -3.0734,-4.258 0.1963,-1.271 0.67,1.039 0.9248,0.123"
       id="path3000" /><path
       style="fill:none;stroke:#ffccaa;stroke-width:0.499999"
       d="m 3444.8235,22793.47 c 1.2693,0.563 2.5047,1.21 3.8078,1.689 3.9873,1.465 8.1391,2.438 12.212,3.645 9.142,2.71 18.3538,5.405 27.7151,7.266 0.5158,0.103 1.6529,0.496 1.5775,-0.02 -0.4768,-3.29 -3.148,-5.741 -0.1088,-9.15 0.424,-0.476 1.3591,-1.018 2.0671,-0.71 2.7325,1.191 -0.5284,5.973 -0.952,6.679 -1.0784,1.799 -11.9196,9.022 -10.6073,10.203"
       id="path3002" /><path
       style="fill:none;stroke:#ffccaa;stroke-width:0.499999"
       d="m 3447.1626,22795.305 c -6.2408,6.224 -11.0196,13.782 -16.5638,20.625 -0.9448,1.166 -2.498,2.537 -3.2638,3.915 -0.4825,0.868 0.7253,-1.854 0.9791,-2.814 0.9984,-3.775 1.9169,-7.591 2.7743,-11.401 0.3943,-1.752 0.5735,-3.042 0.4351,-3.009 -1.9527,0.46 -5.29,11.947 -4.3789,13.75 1.2868,2.546 6.3999,1.377 8.1595,1.688 4.5911,0.811 7.2784,1.902 11.2601,3.352"
       id="path3004" /></g></svg>
