<?xml version="1.0" encoding="UTF-8" standalone="no"?>
<!-- Created with Inkscape (http://www.inkscape.org/) -->

<svg
   width="7339.2607mm"
   height="10644.513mm"
   viewBox="0 0 7339.2606 10644.513"
   version="1.1"
   id="svg12"
   inkscape:version="1.2.1 (9c6d41e410, 2022-07-14, custom)"
   sodipodi:docname="abstract_distrobution_proof.svg"
   xml:space="preserve"
   xmlns:inkscape="http://www.inkscape.org/namespaces/inkscape"
   xmlns:sodipodi="http://sodipodi.sourceforge.net/DTD/sodipodi-0.dtd"
   xmlns="http://www.w3.org/2000/svg"
   xmlns:svg="http://www.w3.org/2000/svg"><sodipodi:namedview
     id="namedview14"
     pagecolor="#505050"
     bordercolor="#eeeeee"
     borderopacity="1"
     inkscape:showpageshadow="0"
     inkscape:pageopacity="0"
     inkscape:pagecheckerboard="0"
     inkscape:deskcolor="#505050"
     inkscape:document-units="mm"
     showgrid="true"
     inkscape:zoom="0.034886493"
     inkscape:cx="13644.249"
     inkscape:cy="33136.033"
     inkscape:window-width="1366"
     inkscape:window-height="746"
     inkscape:window-x="1360"
     inkscape:window-y="0"
     inkscape:window-maximized="1"
     inkscape:current-layer="layer1"
     inkscape:lockguides="false"><inkscape:grid
       type="xygrid"
       id="grid344"
       color="#969696"
       opacity="0.39215686"
       empcolor="#000000"
       empopacity="0.17254902"
       dotted="false"
       originx="1174.8351"
       originy="-13115.634" /></sodipodi:namedview><defs
     id="defs9" /><g
     inkscape:label="Layer 1"
     inkscape:groupmode="layer"
     id="layer1"
     transform="translate(1069.835,-13264.134)"><path
       style="fill:none;stroke:#ffffff;stroke-width:5.5"
       d="m -930.57337,15928.936 c 18.6314,-45.85 98.69633,-167.778 165.22586,-127.307 18.62445,11.329 32.24337,30.039 43.95124,48.428 6.84233,10.747 13.42935,86.893 19.53429,88.785 9.88705,3.064 16.27079,-12.872 23.60316,-20.178"
       id="path294" /><path
       style="fill:none;stroke:#ffffff;stroke-width:5.5"
       d="m -553.7291,15916.829 c 18.17737,-19.934 37.39861,-38.964 54.53215,-59.801 17.84851,-21.708 49.49841,-71.763 61.85797,-96.123 7.39161,-14.569 3.02856,-36.671 16.27828,-46.227 2.92182,-2.108 3.46943,20.655 11.39468,46.96 8.21857,27.28 59.11236,122.583 39.88144,138.682 -27.67833,23.17 -292.78646,-43.966 -306.84668,-67.506 -12.0776,-20.222 38.90981,-27.536 61.04419,-35.588 86.64411,-31.518 217.36936,-30.76 308.47424,-42.558 12.2832,-1.591 35.81256,2.48 35.81256,-9.906 0,-4.464 -8.54336,2.955 -12.20848,5.503 -28.41871,19.758 -55.51712,41.365 -83.83357,61.269 -69.97493,49.187 -142.58089,94.529 -213.24689,142.717 -11.29554,7.703 -35.95957,37.272 -33.3703,23.847 5.42377,-28.12 39.48387,-41.526 60.23041,-61.269 z"
       id="path298" /><path
       style="fill:none;stroke:#ffffff;stroke-width:5.5"
       d="m 103.91552,15760.905 c -17.51012,-59.831 -229.44175,52.514 -196.153914,83.649 21.692433,20.289 91.59297377,6.406 104.995432,3.669 39.823571,-8.136 109.874192,-27.259 148.946662,-51.731 8.46052,-5.299 39.76904,-25.732 13.83695,-37.422 -10.23424,-4.613 -72.87617,0.544 -71.62513,1.835 64.66041,66.73 149.32421,48.582 196.96771,98.691"
       id="path312" /><path
       style="fill:none;stroke:#ffffff;stroke-width:5.5"
       d="m 1089.5687,15389.621 c -8.1313,45.555 -5.4553,18.265 -4.8827,64.938 0.2296,18.71 2.2083,37.553 0,56.133 -9.1347,76.86 -12.5125,-113.278 4.8827,-121.071 21.6193,-9.684 134.1356,-12.052 174.993,-17.61 47.0072,-6.394 71.2933,-11 111.5065,-21.646 8.1507,-2.158 22.7208,-14.863 24.417,-6.604 5.7579,28.036 -7.8528,69.725 -8.9525,96.49 -1.3012,31.671 16.2597,65.513 13.836,93.921"
       id="path314" /><path
       style="fill:none;stroke:#ffffff;stroke-width:5.5"
       d="m 482.38734,15741.093 c 58.31454,4.343 116.10718,-3.854 174.1783,-6.97 8.7239,-0.469 33.50048,-1.619 26.0445,2.935 -8.97959,5.483 -19.53369,7.826 -29.30051,11.74"
       id="path320" /><path
       style="fill:none;stroke:#ffffff;stroke-width:5.5"
       d="m 501.92071,15822.908 c 78.47052,3.277 157.27965,-19.759 234.40873,1.1"
       id="path322" /><path
       style="fill:none;stroke:#ffffff;stroke-width:5.5"
       d="m 1216.5406,15852.625 c -2.8313,2.402 -18.7452,101.082 -16.2791,82.181"
       id="path324" /><path
       style="fill:none;stroke:#ffffff;stroke-width:5.5"
       d="m 1073.2904,16037.9 c 20.8886,12.916 -31.5485,75.13 -25.2307,96.49 4.3143,14.586 30.5342,4.442 45.5788,2.201 81.3335,-12.117 162.3071,-24.578 244.1749,-33.019 4.244,-0.438 62.6074,-9.399 71.6251,-3.302 3.6576,2.472 -12.8941,-0.775 -12.2084,-5.137 2.1463,-13.652 8.8444,-26.218 12.2084,-39.623 6.2244,-24.802 27.2742,-132.174 -27.6729,-95.022"
       id="path330" /><path
       style="fill:none;stroke:#ffffff;stroke-width:5.5"
       d="m 1191.309,16267.201 c 2.1139,15.774 -17.1217,162.817 -22.7903,165.463 -7.101,3.315 -11.3947,-10.762 -17.092,-16.143"
       id="path336" /><path
       style="fill:none;stroke:#ffffff;stroke-width:5.5"
       d="m 1075.7327,16349.015 c 56.3956,16.057 161.9456,-19.924 207.5486,6.237"
       id="path338" /><path
       style="fill:none;stroke:#ffffff;stroke-width:5.5"
       d="m 1201.365,15064.072 c -5.4264,-46.472 -5.4264,-46.472 0,0 z"
       id="path344" /><path
       style="fill:none;stroke:#ffffff;stroke-width:5.5"
       d="m 1221.7131,15082.416 c -20.7967,-45.861 -8.5987,-46.022 0,0 z"
       id="path354" /><path
       style="fill:none;stroke:#ffffff;stroke-width:5.5"
       d="m 1256.7109,15175.97 c -48.2523,-4.561 34.182,121.594 8.9534,108.597"
       id="path356" /><path
       style="fill:none;stroke:#ffffff;stroke-width:5.5"
       d="m 1772.7347,15485.618 c -15.7357,4.769 -33.934,4.603 -47.2072,14.308 -110.6107,80.873 -104.6738,187.163 -21.9756,290.57 25.4409,31.812 99.4542,62.03 139.9932,76.311 43.2027,15.22 44.4742,19.785 32.5566,3.669"
       id="path358" /><path
       style="fill:none;stroke:#ffffff;stroke-width:5.5"
       d="m 2156.9039,15444.527 c 11.9372,-2.446 25.8768,-14.393 35.8116,-7.337 23.1462,16.437 36.8975,43.668 50.4633,68.606 63.816,117.314 100.9433,321.327 -37.4401,405.404"
       id="path362" /><path
       style="fill:none;stroke:#ffffff;stroke-width:5.5"
       d="m 3095.8349,15342.024 c 3.2557,19.322 6.5114,38.645 9.7671,57.967 6.7826,22.747 15.7824,44.947 20.3481,68.24 9.9504,50.765 26.1919,113.592 5.6972,166.197 -12.8378,32.953 -60.675,37.976 -58.6017,-11.74 4.6384,-111.228 141.868,-142.832 204.2935,-57.6 43.8063,59.81 -103.8887,155.176 -145.6918,128.408 -19.4257,-12.439 -22.7893,-40.112 -34.1839,-60.168"
       id="path484" /><path
       style="fill:none;stroke:#ffffff;stroke-width:5.5"
       d="m 3628.5962,15497.679 c -77.1472,35.066 -136.3194,97.475 -197.7824,154.09 -7.9407,7.314 -17.3397,29.432 -24.417,21.279 -2.5715,-2.962 -0.467,-7.833 -0.8136,-11.74 -1.2814,-14.438 -2.7133,-28.861 -4.0699,-43.292"
       id="path498" /><path
       style="fill:none;stroke:#ffffff;stroke-width:5.5"
       d="m 3368.142,15510.887 c 45.7546,20.525 117.0916,40.85 139.9942,89.519"
       id="path500" /><path
       style="fill:none;stroke:#ffffff;stroke-width:5.5"
       d="m 4088.4592,15483.371 c 13.5652,0.734 27.9834,-2.59 40.6953,2.201 25.2183,9.505 147.5904,84.557 130.2272,126.207 -24.1324,57.887 -106.8761,43.303 -131.041,-6.971 -25.9218,-53.928 79.3035,-63.758 103.3679,-33.386"
       id="path502" /><path
       style="fill:none;stroke:#ffffff;stroke-width:5.5"
       d="m 4306.5889,15535.835 c 36.2392,0 40.0857,0.517 78.1362,-1.835 19.5517,-1.208 39.0779,-2.808 58.602,-4.402 14.9323,-1.219 29.8638,-2.48 44.7649,-4.036 9.3316,-0.975 20.705,1.145 27.6738,-5.136 4.3736,-3.942 -7.8465,-26.186 -13.023,-28.25 -36.8345,-14.688 -117.4025,-26.802 -151.3891,-2.935 -17.6257,12.377 -51.1749,26.032 -44.7648,46.594 10.2499,32.879 48.3187,51.624 79.7637,65.672 35.0684,15.665 141.4055,17.956 183.1318,16.509 26.4719,-0.918 53.5289,-4.923 52.9045,-10.273 -0.3259,-2.791 -5.4263,-1.467 -8.1396,-2.201"
       id="path504" /><path
       style="fill:none;stroke:#ffffff;stroke-width:5.5"
       d="m 4830.7512,15463.926 c -48.2057,-14.234 -110.0423,15.663 -101.7394,74.477 3.1361,22.214 27.7807,52.007 45.5797,65.672 11.2173,8.611 25.7377,24.926 38.254,18.343 2.3368,-1.228 -3.7983,-3.668 -5.6972,-5.503"
       id="path506" /><path
       style="fill:none;stroke:#ffffff;stroke-width:5.5"
       d="m 4641.9223,15555.646 c -11.9372,-1.834 -33.9772,-17.44 -35.8116,-5.503 -1.8344,11.937 23.7532,4.828 35.8116,5.503 77.1829,4.321 162.9561,10.426 238.4777,-5.136"
       id="path508" /><path
       style="fill:none;stroke:#ffffff;stroke-width:5.5"
       d="m 5075.7408,15468.696 c -55.1971,38.404 -70.0394,70.881 -23.604,118.869 7.4636,7.713 23.776,12.059 22.7894,22.746 -0.552,5.979 -31.1148,0.813 -31.7418,0.734"
       id="path510" /><path
       style="fill:none;stroke:#ffffff;stroke-width:5.5"
       d="m 5020.395,15391.65 c -1.6282,-14.308 -3.2562,-28.616 -4.8845,-42.925 0.2715,0 0.5432,0 0.8147,0"
       id="path512" /><path
       style="fill:none;stroke:#ffffff;stroke-width:5.5"
       d="m 5120.5051,15385.78 c 25.5032,32.53 53.3467,63.355 76.5096,97.591 12.0028,17.741 20.7177,37.639 28.4866,57.6 33.4645,85.981 -10.986,83.185 -10.5817,55.399 0.2556,-17.582 1.5872,-133.599 61.0452,-122.538 54.8465,10.203 103.1647,125.92 31.7418,98.324"
       id="path514" /><path
       style="fill:none;stroke:#ffffff;stroke-width:5.5"
       d="m 5434.6775,15578.026 c -1.8992,-15.409 -3.7981,-30.818 -5.6973,-46.227"
       id="path516" /><path
       style="fill:none;stroke:#ffffff;stroke-width:5.5"
       d="m 5428.1674,15465.761 c -8.75,-38.341 -15.3352,-55.979 0,-86.218"
       id="path518" /><path
       style="fill:none;stroke:#ffffff;stroke-width:5.5"
       d="m 5577.113,15395.319 c 36.036,65.414 6.5122,140.468 6.5122,211.691"
       id="path520" /><path
       style="fill:none;stroke:#ffffff;stroke-width:5.5"
       d="m 5531.5343,15533.633 c 54.3372,4.805 143.506,-13.456 194.5264,9.539"
       id="path522" /><path
       style="fill:none;stroke:#ffffff;stroke-width:5.5"
       d="m 5794.4288,15553.445 c -10.038,-15.898 -20.0761,-31.796 -30.1144,-47.695"
       id="path524" /><path
       style="fill:none;stroke:#ffffff;stroke-width:5.5"
       d="m 5745.5949,15448.884 c -21.8585,-30.215 -58.2332,-74.089 -22.7912,-107.496"
       id="path526" /><path
       style="fill:none;stroke:#ffffff;stroke-width:5.5"
       d="m 5922.2146,15452.553 c 12.0031,42.904 -82.1195,50.55 -87.9025,18.711 -12.3132,-67.795 122.8495,-103.16 153.0157,-48.429 14.8246,26.897 -25.6821,80.429 -52.9056,82.182 -7.8761,0.507 -13.5649,-8.072 -20.3472,-12.107"
       id="path528" /><path
       style="fill:none;stroke:#ffffff;stroke-width:5.5"
       d="m 5983.2579,15361.566 c 12.2164,-9.292 48.3347,-46.452 73.2526,-35.221 62.5538,28.197 12.4052,159.793 -26.8592,183.808 -4.0042,2.449 2.0296,-9.481 4.8826,-13.208 10.6011,-13.848 21.4191,-27.947 34.9988,-38.889 18.3955,-14.822 68.557,-49.375 100.112,-43.659 30.2922,5.488 100.6753,80.321 96.8566,102.727"
       id="path530" /><path
       style="fill:none;stroke:#ffffff;stroke-width:5.5"
       d="m 1176.0028,15710.184 c 12.1969,-19.846 69.647,-131.817 111.5066,-101.627 34.416,24.822 34.6345,81.072 69.1838,105.295"
       id="path640" /><path
       style="fill:none;stroke:#ffffff;stroke-width:5.5"
       d="m 2042.0108,15657.352 c -9.4956,-10.272 -15.265,-26.248 -28.4868,-30.817 -32.7665,-11.324 -109.0933,28.621 -56.9744,63.103 11.6248,7.691 79.8283,27.274 90.3447,5.504 5.5245,-11.437 -17.2738,-40.582 -4.8835,-37.79 16.5467,3.73 72.1058,54.463 96.042,74.844"
       id="path642" /><path
       style="fill:none;stroke:#ffffff;stroke-width:5.5"
       d="m -1067.8245,17405.673 c 55.9829,-59.991 130.12492,-193.776 230.33898,-141.25 63.04873,33.047 80.04389,117.298 106.62298,177.204"
       id="path644" /><path
       style="fill:none;stroke:#ffffff;stroke-width:5.5"
       d="m -515.98812,17396.134 c 25.50261,-25.56 53.1187,-49.172 76.50779,-76.678 18.8917,-22.218 35.73404,-56.93 47.20725,-84.75 11.28218,-27.356 9.22859,-32.52 9.76715,-31.185 28.40114,70.411 -46.94328,-61.48 19.53429,59.435 9.84634,17.909 82.47618,93.656 26.85918,106.029 -31.64443,7.039 -194.03777,-31.168 -181.50412,-60.903 26.51694,-62.909 224.98317,-87.43 260.45414,-95.389 30.6185,-6.869 40.71187,-5.828 37.44011,-0.734 -24.36194,37.937 -115.73907,93.139 -154.64401,123.272 -2.21324,1.715 -98.37944,77.872 -101.74034,78.513 -14.27488,2.722 -26.58761,-11.74 -39.88144,-17.61 z"
       id="path648" /><path
       style="fill:none;stroke:#ffffff;stroke-width:5.5"
       d="m 35.847312,17012.009 c -18.448643,16.021 -40.3115597,28.801 -55.345927,48.062 -16.428212,21.046 -27.805216,45.908 -37.440108,70.808 -48.142907,124.418 -58.053717,243.543 29.300511,354.774 49.176749,62.618 122.494954,97.41 190.456572,133.911"
       id="path650" /><path
       style="fill:none;stroke:#ffffff;stroke-width:5.5"
       d="m 298.74277,17286.069 c -36.76636,-16.573 -31.44316,-24.499 -68.36909,2.202 -108.62676,78.547 -36.10269,132.85 67.55532,94.288 34.92124,-12.991 78.02165,-36.192 93.59981,-74.11 4.48705,-10.921 -3.82463,-33.238 -19.53336,-31.552 -74.19909,7.963 73.72794,103.681 86.27491,115.935"
       id="path652" /><path
       style="fill:none;stroke:#ffffff;stroke-width:5.5"
       d="m 585.24141,17207.557 c 10.30965,3.424 24.61641,1.431 30.92897,10.272 10.75627,15.065 9.97061,35.656 14.65072,53.565 0.0556,0.213 35.78355,95.913 19.53337,115.935 -4.51797,5.566 -13.56474,4.647 -20.34712,6.97"
       id="path654" /><path
       style="fill:none;stroke:#ffffff;stroke-width:5.5"
       d="m 491.64066,17334.131 c 103.81822,-18.932 209.55019,-3.254 313.35874,-20.179"
       id="path656" /><path
       style="fill:none;stroke:#ffffff;stroke-width:5.5"
       d="m 831.04483,17189.58 c 45.85446,-15.278 35.94727,-24.593 69.18288,21.646 26.42909,36.769 44.35234,69.282 48.8348,114.833 3.60738,36.659 -52.17136,93.91 -43.13745,44.026 5.32532,-29.405 20.01258,-57.41 38.25388,-81.081 34.59255,-44.888 147.83056,-33.167 153.01646,32.286 4.6297,58.434 -97.96284,109.936 -144.06309,80.714 -14.89038,-9.439 -22.79002,-26.905 -34.18502,-40.357"
       id="path658" /><path
       style="fill:none;stroke:#ffffff;stroke-width:5.5"
       d="m 1050.8019,16978.256 c 11.395,-1.589 23.5537,-9.168 34.185,-4.769 118.7203,49.121 262.2883,246.834 234.4078,378.988 -26.338,124.842 -114.5987,175.737 -222.1993,229.667 -20.3017,10.176 -45.0369,5.87 -67.5553,8.806"
       id="path660" /><path
       style="fill:none;stroke:#ffffff;stroke-width:5.5"
       d="m 1614.8467,17199.485 c 105.9076,5.393 210.6186,-29.35 316.6139,-29.35 8.4644,0 -16.1219,5.29 -24.4179,6.971 -10.8297,2.193 -21.7044,4.158 -32.5565,6.237"
       id="path662" /><path
       style="fill:none;stroke:#ffffff;stroke-width:5.5"
       d="m 1596.94,17283.134 c 119.0957,-13.104 238.6291,-16.509 358.1237,-16.509"
       id="path664" /><path
       style="fill:none;stroke:#ffffff;stroke-width:5.5"
       d="m 2283.0723,16879.565 c -6.5112,25.315 -13.9511,50.409 -19.5334,75.944 -1.402,6.414 -2.4156,25.749 -3.256,35.221 -0.9406,10.602 -1.085,-21.279 -0.8138,-31.918 0.6034,-23.667 2.3916,-63.253 23.6032,-79.247 37.2999,-28.124 214.5374,-31.456 252.3145,-36.321 18.8309,-2.425 37.66,-8.577 54.5322,-17.243 7.2958,-3.748 11.5374,-22.045 17.9067,-16.877 6.1764,5.011 -0.4912,15.9 -0.8138,23.847 -1.7265,42.536 -1.4896,49.226 4.0689,93.555 0.6409,5.111 19.3927,64.866 5.6974,63.837"
       id="path666" /><path
       style="fill:none;stroke:#ffffff;stroke-width:5.5"
       d="m 2304.2341,17392.098 c 17.7294,53.165 -18.1406,125.809 -13.0222,174.268 0.7973,7.55 15.6765,0.764 39.0676,-3.301 47.4026,-8.238 55.2986,-9.241 111.5066,-14.309 49.288,-4.443 60.2338,-5.404 104.9954,-3.668 85.6464,3.321 109.694,14.107 97.6706,-106.029 -4.258,-42.543 -8.0124,-51.684 -19.5344,-89.152"
       id="path668" /><path
       style="fill:none;stroke:#ffffff;stroke-width:5.5"
       d="m 2490.6218,17765.216 c -21.0896,32.432 14.1421,155.43 -7.3258,105.662"
       id="path670" /><path
       style="fill:none;stroke:#ffffff;stroke-width:5.5"
       d="m 2383.1841,17825.751 c 71.8723,7.468 155.4409,-18.648 221.3856,-5.136"
       id="path672" /><path
       style="fill:none;stroke:#ffffff;stroke-width:5.5"
       d="m 2376.673,17101.895 c 11.824,-38.476 55.2111,-112.405 106.623,-86.951 25.3931,12.573 41.4505,43.868 53.7183,67.14 1.8198,3.451 6.6352,14.126 4.8836,10.639 -24.4344,-48.645 -30.0411,-101.523 -98.4833,-69.707 -16.6992,7.762 -34.5523,19.981 -44.766,35.954 -8.6597,13.542 -21.0137,58.971 -21.9756,42.925 -1.5232,-25.408 22.024,-64.711 43.9512,-80.714 45.4653,-33.18 100.819,-0.256 122.0875,44.76 2.5781,5.456 19.3707,60.388 -0.8138,42.191"
       id="path674" /><path
       style="fill:none;stroke:#ffffff;stroke-width:5.5"
       d="m 2458.8791,17313.586 c 13.1095,15.708 2.9517,138.17 18.7195,88.418"
       id="path676" /><path
       style="fill:none;stroke:#ffffff;stroke-width:5.5"
       d="m 2460.5066,16414.36 c -14.3792,4.28 -28.4917,9.588 -43.1375,12.841 -23.7585,5.277 -22.5904,-19.13 3.2551,-17.61 89.2392,5.246 25.575,36.498 -20.348,44.025"
       id="path678" /><path
       style="fill:none;stroke:#ffffff;stroke-width:5.5"
       d="m 2415.7407,16554.875 c -41.2607,31.531 4.6853,102.436 -9.7662,135.013"
       id="path680" /><path
       style="fill:none;stroke:#ffffff;stroke-width:5.5"
       d="m 2943.9739,16867.458 c -221.6896,127.117 -157.3236,440.618 60.2284,530.51"
       id="path682" /><path
       style="fill:none;stroke:#ffffff;stroke-width:5.5"
       d="m 3209.3107,17065.574 c -12.2089,4.769 -26.0654,6.545 -36.6265,14.308 -25.2158,18.536 -49.7977,38.902 -69.1827,63.471 -4.9996,6.336 -5.706,18.505 0,24.214 41.9489,41.97 158.0015,-25.399 186.3868,-57.967 12.2123,-14.013 7.0953,-25.179 -8.1397,-30.085 -7.7941,-2.509 -25.4481,5.498 -21.1619,12.474 8.9003,14.488 22.5092,25.734 35.8135,36.322 17.4543,13.889 40.2119,17.245 57.7863,30.451"
       id="path684" /><path
       style="fill:none;stroke:#ffffff;stroke-width:5.5"
       d="m 3547.0855,17034.022 c -51.1254,12.655 36.8697,121.191 10.5817,140.149"
       id="path686" /><path
       style="fill:none;stroke:#ffffff;stroke-width:5.5"
       d="m 3463.2528,17098.593 c 50.5854,-20.596 142.2847,27.958 188.0142,4.77"
       id="path688" /><path
       style="fill:none;stroke:#ffffff;stroke-width:5.5"
       d="m 3709.0552,17001.737 c 16.2785,6.481 34.4101,9.499 48.8357,19.444 10.8273,7.464 78.9083,86.131 28.4867,100.526 -19.0574,5.44 -15.0432,-22.257 -11.3946,-27.883 29.9771,-46.227 115.5647,-54.73 133.4813,9.172 7.8173,27.882 -55.992,63.486 -78.1355,57.233 -15.8467,-4.474 -27.6725,-17.854 -41.5089,-26.782"
       id="path690" /><path
       style="fill:none;stroke:#ffffff;stroke-width:5.5"
       d="m 3808.3523,16785.277 c 58.3819,34.626 89.0249,48.271 139.1806,101.626 142.5686,151.663 91.5334,349.506 -62.6708,464.104"
       id="path692" /><path
       style="fill:none;stroke:#ffffff;stroke-width:5.5"
       d="m -506.25891,13429.525 c 9.84996,57.729 12.07399,177.515 -12.20849,232.969 -4.84925,11.075 -16.83176,-1.841 -19.53429,-3.669"
       id="path762" /><path
       style="fill:none;stroke:#ffffff;stroke-width:5.5"
       d="m -631.60148,13568.573 c 99.28481,-1.739 198.61747,-2.9 297.89331,-0.367"
       id="path764" /><path
       style="fill:none;stroke:#ffffff;stroke-width:5.5"
       d="m 175.80357,13422.921 c -6.51112,-11.129 -18.88908,-20.509 -19.53336,-33.386 -0.34357,-6.867 21.51798,-20.561 30.11428,-17.977 16.74099,5.03 -5.01967,34.79 -10.58092,51.363 z"
       id="path766" /><path
       style="fill:none;stroke:#ffffff;stroke-width:5.5"
       d="m 187.19827,13526.014 c -18.19512,42.037 -66.96373,216.38 43.13838,121.438"
       id="path768" /><path
       style="fill:none;stroke:#ffffff;stroke-width:5.5"
       d="m 330.44851,13508.404 c 40.69583,13.33 81.0832,27.641 122.08748,39.99 21.97235,6.617 46.34719,6.356 66.74062,16.877 32.04731,16.532 -18.96841,43.093 -57.78818,54.665 -61.50274,18.333 -123.93618,37.898 -188.01432,41.457 -87.64194,4.869 -39.45666,-32.196 -27.67297,-43.658"
       id="path770" /><path
       style="fill:none;stroke:#ffffff;stroke-width:5.5"
       d="m 1133.7847,13435.286 c 5.6973,-10.151 27.2424,-24.754 17.092,-30.451 -10.1503,-5.698 -7.2045,24.309 -17.092,30.451 -24.1017,14.972 -56.1738,13.952 -79.7647,29.717 -16.7469,11.191 -27.5626,30.074 -36.6254,48.062 -53.95048,107.082 84.8517,91.25 143.2493,82.915 20.8722,-2.98 41.5247,-7.629 61.857,-13.208 11.9552,-3.28 44.177,-13.656 32.5575,-17.977 -20.6603,-7.683 -64.4877,-8.903 -83.0198,-10.273"
       id="path796" /><path
       style="fill:none;stroke:#ffffff;stroke-width:5.5"
       d="m 1404.0051,13547.184 c -120.141,-114.057 60.3558,-108.54 109.878,-37.788 19.6475,28.07 -15.2196,85.398 -50.4623,74.477 -22.2336,-6.891 -39.6105,-24.459 -59.4157,-36.689 z"
       id="path798" /><path
       style="fill:none;stroke:#ffffff;stroke-width:5.5"
       d="m 1547.2544,13438.588 c 13.2938,-3.791 26.0626,-11.002 39.8814,-11.374 34.5104,-0.928 62.6454,92.256 65.9278,117.035 0.7741,5.845 2.8927,21.395 -1.6276,17.611 -17.0863,-14.304 -0.334,-78.53 12.2085,-92.821 23.3124,-26.563 74.2705,36.651 85.4611,51.363 4.8464,6.372 11.923,28.108 13.0223,20.179 2.3043,-16.622 -6.2133,-42.094 17.0929,-51.364 58.4104,-23.231 121.0661,66.466 87.9025,56.5"
       id="path800" /><path
       style="fill:none;stroke:#ffffff;stroke-width:5.5"
       d="m 1909.447,13433.451 c 43.5003,35.823 47.2515,36.131 86.2758,80.714 18.4063,21.028 -44.6211,-18.048 2.4413,-49.162 25.8165,-17.067 60.236,7.041 75.6941,26.416 18.7474,23.497 6.1238,33.108 5.6982,31.918 -11.3212,-31.637 32.1893,-61.47 55.3459,-67.506 66.5622,-17.351 51.8943,93.128 46.3935,70.808"
       id="path802" /><path
       style="fill:none;stroke:#ffffff;stroke-width:5.5"
       d="m 2274.0819,13447.76 c 73.4465,104.263 209.3047,28.3 105.8092,-37.789"
       id="path804" /><path
       style="fill:none;stroke:#ffffff;stroke-width:5.5"
       d="m 2466.9807,13360.809 c 26.0454,21.401 52.1843,42.69 78.1362,64.204 12.8455,10.649 26.0337,20.924 38.2539,32.286 43.197,40.16 -19.9491,19.185 22.7894,-23.114 6.4511,-6.384 14.7278,-11.679 23.6041,-13.575 40.1327,-8.568 59.8603,47.846 46.3925,76.679"
       id="path806" /><path
       style="fill:none;stroke:#ffffff;stroke-width:5.5"
       d="m 2739.6423,13417.309 c -14.4886,45.718 -30.1784,48.446 32.5575,65.304 33.2888,8.946 76.9609,-9.278 87.0897,-43.658 2.6151,-8.877 -2.8215,-28.794 -11.3967,-25.315 -42.1074,17.083 -8.3608,79.264 23.6043,85.85 10.4627,2.156 21.1624,-2.935 31.7437,-4.402"
       id="path808" /><path
       style="fill:none;stroke:#ffffff;stroke-width:5.5"
       d="m 2957.7719,13383.556 c -24.9089,47.445 50.1862,81.089 33.3711,126.574"
       id="path810" /><path
       style="fill:none;stroke:#ffffff;stroke-width:5.5"
       d="m 2906.4957,13436.02 c 50.2367,8.304 101.024,12.546 151.3882,19.811"
       id="path812" /><path
       style="fill:none;stroke:#ffffff;stroke-width:5.5"
       d="m 3136.0209,13449.227 c 51.2196,-6.974 44.8302,-34.632 18.7195,-67.139 -4.4842,-43.477 -10.2089,-76.885 8.1398,-114.1 18.9911,11.007 42.185,16.799 56.9734,33.02 11.2399,12.328 8.3513,32.648 16.2792,47.327 19.8943,36.835 57.9297,81.873 98.4825,98.324 35.0775,14.231 -13.3552,-86.305 21.9765,-77.045 20.3825,5.342 185.0492,35.304 172.5499,-23.113 -18.3318,-85.676 -183.3641,-59.525 -190.4566,2.935 -9.7017,85.436 319.801,130.719 341.8464,90.986"
       id="path814" /><path
       style="fill:none;stroke:#ffffff;stroke-width:5.5"
       d="m -950.61778,18426.095 c 4.45029,14.589 43.68231,140.246 47.20725,162.162 3.84913,23.93 4.12004,48.419 3.25604,72.642 -0.52565,14.736 -11.00608,61.699 -14.65072,62.736 -13.21101,3.761 -9.5359,-46.006 4.88358,-82.915 13.19106,-33.764 45.87636,-72.869 82.20511,-84.015 40.52811,-12.435 120.75025,26.84 113.94879,77.045 -9.31966,68.792 -98.43905,124.224 -163.59738,121.07 -63.17432,-3.058 -66.5059,-33.918 -28.48673,-53.197"
       id="path909" /><path
       style="fill:none;stroke:#ffffff;stroke-width:5.5"
       d="m -600.63362,18608.435 c 30.74046,22.407 71.73299,32.424 109.879,24.948 169.20847,-33.162 -14.92906,-109.21 -70.81041,-85.484 -137.88599,58.545 -111.53587,158.702 19.53337,201.051 31.69327,10.241 65.28083,14.258 98.48429,16.877 37.97535,2.995 147.36394,0.573 113.13411,-16.143"
       id="path911" /><path
       style="fill:none;stroke:#ffffff;stroke-width:5.5"
       d="m -129.37577,18559.639 c -11.93721,-1.711 -24.01618,-7.645 -35.81163,-5.136 -13.69205,2.913 -25.47525,12.083 -36.62634,20.546 -61.481,46.655 -36.03771,107.077 26.04542,137.58 12.40713,6.096 26.08204,12.195 39.88143,11.373 16.3855,-0.975 30.92899,-11.006 46.393482,-16.509"
       id="path913" /><path
       style="fill:none;stroke:#ffffff;stroke-width:5.5"
       d="m -2.4047208,18601.097 c -1.3562909,18.1 -13.3104362,38.677 -4.0688727,54.299 17.4518055,29.499 101.9837525,8.832 122.0874735,-8.072 7.6217,-6.408 27.75695,-31.334 -1.62848,-28.617 -46.87462,4.335 3.87324,56.062 39.88236,53.565"
       id="path915" /><path
       style="fill:none;stroke:#ffffff;stroke-width:5.5"
       d="m 170.14603,18588.257 c 39.60293,44.944 124.45231,103.808 186.38677,57.6 13.01562,-9.711 -31.81122,-70.662 -44.76501,-89.152"
       id="path917" /><path
       style="fill:none;stroke:#ffffff;stroke-width:5.5"
       d="m 343.51057,18481.861 c -12.83066,36.805 -36.62625,58.617 8.13866,84.382 43.06832,24.79 147.84826,41.104 188.01524,56.5 41.20412,15.794 -46.77021,86.491 -77.32247,76.312 -19.07569,-6.356 3.35518,-43.726 17.90676,-57.601 16.7544,-15.976 37.70165,-27.013 57.78818,-38.522 27.61665,-15.825 107.60628,-23.08 109.879,-67.139 1.97236,-38.237 -99.22709,3.642 -120.45993,80.713 -3.91035,14.194 14.08713,30.687 28.48674,33.753 58.20934,12.397 118.73373,10.449 178.24809,10.273 20.49071,-0.06 138.21812,-14.811 87.08869,-22.013"
       id="path919" /><path
       style="fill:none;stroke:#ffffff;stroke-width:5.5"
       d="m 1287.6547,18450.309 c -11.395,7.093 -29.7357,8.616 -34.185,21.279 -22.0311,62.704 45.4882,131.112 69.1829,181.606 3.6256,7.726 -16.5844,-4.315 -24.417,-7.704"
       id="path921" /><path
       style="fill:none;stroke:#ffffff;stroke-width:5.5"
       d="m 1124.0573,18561.841 c 102.5288,-22.933 214.2662,-27.948 317.4277,-3.669 30.4019,7.155 -3.6462,19.39 -5.6974,20.546"
       id="path923" /><path
       style="fill:none;stroke:#ffffff;stroke-width:5.5"
       d="m 1932.2771,18398.212 c -135.7842,31.266 8.9525,-82.406 8.9525,-38.523 0,13.183 -5.9683,25.682 -8.9525,38.523 z"
       id="path925" /><path
       style="fill:none;stroke:#ffffff;stroke-width:5.5"
       d="m 1928.2073,18485.163 c 3.4428,23.995 84.3175,221.412 116.3901,155.557"
       id="path927" /><path
       style="fill:none;stroke:#ffffff;stroke-width:5.5"
       d="m 2111.3381,18490.666 c -16.2783,-3.913 -44.9214,-28.019 -48.8348,-11.74 -3.9135,16.278 32.6016,7.644 48.8348,11.74 40.471,10.212 80.4896,22.305 121.2737,31.185 23.3222,5.078 47.7951,4.317 70.8113,10.639 33.3976,9.174 52.6242,23.434 12.2085,52.464 -33.8609,24.322 -244.7441,116.081 -266.1506,32.286 -3.0356,-11.883 10.3097,-22.257 15.4645,-33.386"
       id="path929" /><path
       style="fill:none;stroke:#ffffff;stroke-width:5.5"
       d="m 2911.4193,18421.325 c -58.7976,-16.015 -164.505,3.74 -170.9224,83.282 -3.3422,41.425 168.7076,66.226 220.5709,17.244"
       id="path931" /><path
       style="fill:none;stroke:#ffffff;stroke-width:5.5"
       d="m 3080.714,18506.075 c -31.6643,62.099 -148.168,15.333 -97.6696,-50.629 15.8541,-20.71 92.3962,-29.402 104.9943,-1.468 7.2096,15.986 -4.8831,34.731 -7.3247,52.097 z"
       id="path933" /><path
       style="fill:none;stroke:#ffffff;stroke-width:5.5"
       d="m 3129.5497,18398.579 c 49.0342,-8.07 51.9184,-21.414 86.2748,18.711 5.661,6.611 40.426,63.941 9.7671,72.642 -27.7966,7.889 -5.988,-49.942 -4.8845,-51.363 31.5897,-40.685 117.9008,-4.556 99.299,28.984 -1.9881,3.584 -10.8048,2.383 -12.2092,-1.468 -2.9046,-7.964 -1.1303,-17.627 2.4421,-25.315 13.8157,-29.731 42.2071,-48.832 74.8802,-38.522 35.2026,11.107 86.6466,86.507 22.7894,90.619"
       id="path935" /><path
       style="fill:none;stroke:#ffffff;stroke-width:5.5"
       d="m 3448.6047,18352.352 c 50.8209,-19.592 90.6759,8.337 88.7171,63.104 -0.5667,15.847 -15.4813,56.657 -21.9765,42.191 -5.6145,-12.505 -5.016,-27.809 -1.6275,-41.091 3.1446,-12.326 11.9518,-22.729 20.3473,-32.286 59.183,-67.371 161.7244,24.751 109.066,51.364 -30.6721,15.501 -1.6402,-44.575 19.5326,-54.299 50.4939,-23.19 133.704,15.276 75.6949,63.838"
       id="path937" /><path
       style="fill:none;stroke:#ffffff;stroke-width:5.5"
       d="m 3966.5377,18331.331 c -15.4647,5.503 -36.8951,3.122 -46.3937,16.51 -101.0594,142.434 263.2504,178.147 223.0131,56.132 -6.7149,-20.362 -45.8438,-47.782 -62.6708,-60.902"
       id="path939" /><path
       style="fill:none;stroke:#ffffff;stroke-width:5.5"
       d="m 4170.8312,18268.227 c 35.5618,-8.201 36.8982,-19.104 58.6009,16.877 18.1483,30.088 29.1532,64.27 34.9989,98.691 0.036,0.21 2.4579,42.952 4.0698,41.09 1.4314,-1.653 58.1959,-128.935 74.0672,-108.963 25.4013,31.963 29.1139,74.725 47.2064,110.064"
       id="path941" /><path
       style="fill:none;stroke:#ffffff;stroke-width:5.5"
       d="m 4463.0269,18308.584 c -2.0047,42.165 -18.0887,59.945 31.7421,71.175 32.1114,7.237 73.9529,-10.322 98.4843,-27.149 15.4112,-10.571 31.8608,-52.633 6.5119,-47.328 -31.2936,6.55 22.847,125.63 74.8803,77.045"
       id="path943" /><path
       style="fill:none;stroke:#ffffff;stroke-width:5.5"
       d="m 4709.6443,18244.013 c 0.8133,-12.474 14.9143,-36.609 2.4402,-37.422 -12.4738,-0.813 -6.4606,25.586 -2.4402,37.422 17.0235,50.121 81.1255,118.906 52.9037,139.782 -7.7753,5.751 -18.9913,3.668 -28.4869,5.503"
       id="path945" /><path
       style="fill:none;stroke:#ffffff;stroke-width:5.5"
       d="m 4638.0192,18355.178 c -10.5812,-4.036 -27.708,-22.688 -31.7437,-12.107 -4.0357,10.581 20.4838,13.317 31.7437,12.107 25.7511,-2.768 48.777,-17.889 74.0653,-23.481 45.4623,-10.052 124.1433,-3.528 109.8791,-23.847 -5.9346,-8.453 -16.278,-12.718 -24.4168,-19.077"
       id="path947" /><path
       style="fill:none;stroke:#ffffff;stroke-width:5.5"
       d="m 4777.1995,18206.958 c 64.6473,-90.036 41.0639,15.059 94.4145,82.548 22.1207,27.984 33.8537,23.702 33.3695,20.913 -1.7505,-10.084 -43.5028,-68.612 -25.2317,-83.282 24.316,-19.525 128.0872,-8.476 162.7846,-15.409 12.4087,-2.48 39.5126,-14.641 30.1144,-23.114 -44.2921,-39.93 -266.971,-0.379 -153.8304,86.217 39.9854,30.604 180.3218,29.947 234.4079,30.818"
       id="path949" /><path
       style="fill:none;stroke:#ffffff;stroke-width:5.5"
       d="m -1021.3097,19064.525 c 11.6663,11.374 24.48697,21.672 34.99878,34.12 21.57543,25.55 41.11774,52.757 61.04329,79.614 18.56055,25.016 29.31899,47.246 33.37124,44.392 9.48568,-6.681 -4.6441,-46.878 4.06979,-58.334 4.44461,-5.843 80.0004,36.416 88.71625,38.889 48.93175,13.888 -14.46369,-50.451 30.92897,-51.73 17.55854,-0.495 38.25026,-0.357 55.34686,-4.403 29.14764,-6.897 109.91189,-46.512 39.06766,-74.11 -20.90917,-8.145 -144.29263,21.769 -82.20511,61.27 72.37037,46.043 195.84029,54.442 282.42881,43.292"
       id="path951" /><path
       style="fill:none;stroke:#ffffff;stroke-width:5.5"
       d="m 95.385242,19017.931 c -18.72021,7.216 -43.601515,6.001 -56.160627,21.646 -92.653974,115.423 23.62111,138.828 112.320325,133.178 17.18808,-1.095 32.55654,-11.251 48.83481,-16.876"
       id="path953" /><path
       style="fill:none;stroke:#ffffff;stroke-width:5.5"
       d="m 234.56476,19074.798 c 24.87824,48.594 13.17968,57.922 73.25267,54.298 22.66119,-1.366 44.97967,-7.104 66.74061,-13.574 4.95708,-1.474 11.82664,-16.834 8.13962,-13.208 -19.71405,19.389 9.39038,46.683 21.16182,61.636"
       id="path955" /><path
       style="fill:none;stroke:#ffffff;stroke-width:5.5"
       d="m 410.37061,19068.194 c 34.72723,17.121 70.82004,31.714 104.18165,51.363 9.42906,5.554 22.41201,37.489 17.90583,27.516 -16.29383,-36.058 1.23661,-79.229 46.39347,-61.269 21.65895,8.615 87.43797,39.619 78.13625,68.974"
       id="path957" /><path
       style="fill:none;stroke:#ffffff;stroke-width:5.5"
       d="m 989.87991,19004.357 c 77.96289,23.315 154.22969,64.204 206.73479,128.408 14.9988,18.341 27.3998,58.851 4.8836,45.86 -46.8644,-27.039 -75.1046,-196.681 -4.0698,-161.794 5.1378,2.523 37.3919,27.781 52.9046,26.782 21.5441,-1.387 107.354,-13.64 116.3902,-46.227 13.6596,-49.26 -140.3758,-6.646 -131.0409,26.415 20.1627,71.411 169.2505,69.303 223.014,73.744 21.1027,1.743 42.3229,1.49 63.4856,2.201 4.34,0.146 17.3235,0.963 13.0222,0.367 -7.8166,-1.084 -15.7354,-1.223 -23.6032,-1.835"
       id="path959" /><path
       style="fill:none;stroke:#ffffff;stroke-width:5.5"
       d="m 1789.9601,19024.902 c 72.7416,9.638 145.6627,-1.023 218.1295,-7.704 50.8508,-4.689 -17.8009,-8.5 -25.2307,-9.539"
       id="path961" /><path
       style="fill:none;stroke:#ffffff;stroke-width:5.5"
       d="m 2224.5916,19028.204 c -22.5184,5.626 -44.4706,19.29 -67.5553,16.877 -20.4975,-2.143 -76.0487,-38.57 -39.8815,-71.175 37.1737,-33.513 93.9353,-25.925 132.6684,-4.036 56.726,32.058 56.1374,51.531 13.837,99.058 -5.5296,6.213 -18.6591,11.138 -24.417,5.136 -11.1098,-11.58 -9.7677,-30.573 -14.6516,-45.86 z"
       id="path963" /><path
       style="fill:none;stroke:#ffffff;stroke-width:5.5"
       d="m 2262.0326,18950.792 c 23.3319,14.186 47.4729,27.12 69.9958,42.558 10.4116,7.137 19.8834,15.713 28.4885,24.948 2.9654,3.183 8.6668,14.919 5.6974,11.74 -43.6713,-46.747 4.7079,-102.128 54.5312,-108.963"
       id="path965" /><path
       style="fill:none;stroke:#ffffff;stroke-width:5.5"
       d="m 2472.8364,18873.38 c 71.8389,37.064 112.2448,51.933 172.5515,121.071 7.0834,8.12 5.3649,24.089 -1.6293,32.286 -35.1278,41.168 -167.2726,16.069 -185.572,-31.552 -20.5759,-53.545 213.3546,-20.3 230.3379,-19.812 95.0531,2.735 -10.7188,-79.462 -30.929,-37.055 -22.3795,46.96 93.3323,86.528 123.716,62.003 22.3742,-18.059 -5.3274,-74.298 -12.2095,-94.288 -1.1988,-3.483 -7.7298,-9.86 -4.0698,-10.273 1.115,-0.126 24.3557,35.735 29.3016,41.458 7.1202,8.238 104.7575,107.722 103.3668,112.632 -1.008,3.561 -22.9489,5.607 -43.9512,-16.877 -14.1425,-15.139 -29.8717,-31.289 -34.9986,-51.363 -10.8429,-42.451 14.4944,-100.201 62.6727,-102.726 12.4843,-0.655 24.4173,5.38 36.6262,8.071"
       id="path967" /><path
       style="fill:none;stroke:#ffffff;stroke-width:5.5"
       d="m 3528.9462,18718.425 c 7.928,85.381 24.6293,170.042 45.5798,253.148 2.6913,10.675 8.6098,20.603 9.7663,31.551 1.4544,13.771 -23.9726,-14.002 -34.9981,-22.38"
       id="path969" /><path
       style="fill:none;stroke:#ffffff;stroke-width:5.5"
       d="m 3380.8134,18885.356 c 109.7484,-3.824 220.5257,-7.21 328.8231,-26.416"
       id="path971" /><path
       style="fill:none;stroke:#ffffff;stroke-width:5.5"
       d="m 3733.2389,18773.09 c 52.0946,15.013 61.3654,10.827 102.5541,56.5 17.953,19.907 46.1246,66.705 22.7894,95.389 -1.1272,1.385 -2.7633,-3.013 -2.4424,-4.77 2.9467,-16.128 31.727,-86.605 56.9754,-57.967 35.4353,40.192 -6.1188,68.981 52.0909,40.724 26.2191,-12.728 191.2776,-29.766 163.5974,-80.714 -26.8536,-49.426 -178.0082,-20.623 -149.7605,46.594 28.9967,69 130.0289,85.706 194.5246,90.62 32.2508,2.457 75.3604,7.187 48.8357,-27.883"
       id="path973" /><path
       style="fill:none;stroke:#ffffff;stroke-width:5.5"
       d="m 4421.8125,18735.301 c 70.0009,-13.954 -78.9024,-15.859 -68.3683,4.403 11.3837,21.896 200.4901,50.614 244.175,101.993 59.5161,69.998 -193.2858,157.152 -198.596,100.892 -1.7394,-18.428 14.651,-33.998 21.9765,-50.996"
       id="path975" /><path
       style="fill:none;stroke:#ffffff;stroke-width:5.5"
       d="m 4616.339,18769.421 c -3.8317,217.625 429.7494,52.925 150.5749,-23.48"
       id="path977" /><path
       style="fill:none;stroke:#ffffff;stroke-width:5.5"
       d="m 4839.352,18662.292 c 52.0319,28.239 75.7576,74.927 100.9264,126.207 11.4848,23.399 14.1756,39.547 17.0921,38.889 3.2644,-0.736 -1.76,-6.562 -1.6275,-9.905 0.4136,-10.444 0.834,-21.018 3.2552,-31.185 4.5127,-18.951 13.3149,-44.506 31.7436,-55.766 29.033,-17.74 47.1459,44.515 43.9513,62.369 -0.848,4.74 -10.0454,-5.833 -9.7674,-10.639 1.0989,-18.98 18.5119,-75.39 44.7662,-72.276 30.044,3.564 28.6049,60.656 48.8339,80.714"
       id="path979" /><path
       style="fill:none;stroke:#ffffff;stroke-width:5.5"
       d="m -839.66854,20425.259 c 26.65653,-40.223 60.68536,-132.02 123.71501,-132.445 52.61059,-0.354 142.26116,108.521 176.62056,145.652 21.28835,23.006 45.96032,56.257 37.44011,58.701 -0.78179,0.224 -50.02985,-58.001 -54.53216,-62.736 -58.27964,-61.297 -168.50357,-149.959 -257.19812,-103.461 -11.7211,6.145 -28.21903,11.091 -31.74275,23.847 -6.27232,22.707 6.65924,46.904 5.69735,70.442 -0.9515,23.283 -8.95819,45.798 -11.39471,68.973 -0.31522,2.999 3.35016,11.452 3.25602,8.438 -2.10807,-67.478 -24.45004,-29.027 13.02226,-138.68 28.13817,-82.34 148.53489,-88.263 210.80463,-50.63 92.71473,56.032 63.50005,194.277 98.48339,217.927 1.43618,0.971 -0.27551,-3.489 -0.81378,-5.136 -5.98022,-18.309 -12.08334,-36.584 -18.71959,-54.665 -21.40815,-58.329 -71.08753,-195.894 -156.27249,-181.606 -22.32194,3.744 -122.067,26.483 -138.36573,69.34 -7.82492,20.575 2.33092,44.15 0,66.039 -2.5776,24.205 -13.3355,47.235 -14.65072,71.542 -0.4653,8.599 10.31944,28.721 14.65072,21.278 23.89026,-41.054 -13.43742,-30.736 0,-92.82 4.41544,-20.401 23.46555,-34.554 34.18501,-52.465 9.64507,-16.115 14.71483,-35.202 26.85918,-49.528 13.84093,-16.328 30.93143,-30.34 49.64858,-40.724 60.40014,-33.509 139.98094,8.506 154.64401,74.11 7.56806,33.86 0.0773,136.204 -11.3947,103.46"
       id="path981" /><path
       style="fill:none;stroke:#ffffff;stroke-width:5.5"
       d="m -358.64356,20431.862 c 8.68183,-18.588 19.00224,-36.496 26.04542,-55.765 12.53191,-34.286 22.48744,-69.474 32.55653,-104.562 4.04763,-14.105 6.69245,-28.576 9.76715,-42.925 2.03838,-9.512 -1.42187,-32.508 7.32491,-28.25 7.12232,3.467 10.97603,11.477 17.09296,16.51 28.09132,23.114 55.58784,47.114 85.46114,67.873 22.35964,15.539 47.1538,27.242 70.81042,40.724 28.293933,16.124 56.484895,30.598 54.532151,32.652 -1.485601,1.563 -241.509931,-25.604 -269.405671,-27.516 -16.8176,-1.153 -34.57085,2.319 -50.46326,-3.302 -4.90278,-1.734 -7.07943,-13.057 -2.44134,-15.409 58.99804,-29.918 150.44632,-37.676 215.68729,-38.522 30.88748,-0.401 58.92501,3.87 56.9744,15.409 -8.63813,51.099 -157.49347,128.292 -197.78146,154.823 -14.45582,9.52 -28.61371,19.519 -42.32367,30.085 -3.16598,2.439 -11.99118,7.736 -8.13962,8.805 6.30177,1.748 13.04589,-2.619 18.72052,-5.87 20.53923,-11.766 39.61048,-25.926 59.41573,-38.89"
       id="path983" /><path
       style="fill:none;stroke:#ffffff;stroke-width:5.5"
       d="m 237.9578,20071.952 c -115.15712,47.274 -227.263447,204.2 -152.202688,330.193 38.359968,64.389 88.824598,88.443 153.016458,120.704 17.24933,8.669 35.71055,14.688 53.71839,21.646 2.89615,1.119 11.55525,4.262 8.95336,2.568 -4.98776,-3.248 -10.85217,-4.892 -16.27827,-7.337"
       id="path985" /><path
       style="fill:none;stroke:#ffffff;stroke-width:5.5"
       d="m 392.60181,20252.825 c -16.27828,2.812 -34.35472,0.487 -48.83481,8.438 -16.82171,9.237 -29.85823,24.886 -40.69612,40.724 -60.8466,88.916 178.87119,51.432 144.87779,-44.76 -1.50273,-4.253 -8.52739,-3.311 -13.02319,-3.669 -14.06559,-1.118 -44.87518,-14.611 -42.32367,-0.733 9.60289,52.229 105.18015,107.465 145.69156,135.012"
       id="path987" /><path
       style="fill:none;stroke:#ffffff;stroke-width:5.5"
       d="m 694.56494,20186.419 c -42.21117,19.114 17.38305,145.029 -1.62756,170.233 -5.59337,7.415 -17.3636,6.604 -26.04542,9.906"
       id="path989" /><path
       style="fill:none;stroke:#ffffff;stroke-width:5.5"
       d="m 563.52502,20306.022 c 71.2869,-34.497 149.73776,-11.677 223.82689,-25.681 1.9953,-0.378 -1.08506,-3.914 -1.62756,-5.871"
       id="path991" /><path
       style="fill:none;stroke:#ffffff;stroke-width:5.5"
       d="m 784.90964,20192.656 c 17.3636,16.509 36.58341,31.264 52.09083,49.529 18.29752,21.55 34.38469,45.042 48.83573,69.34 2.90557,4.886 6.53854,12.937 2.44133,16.877 -3.7302,3.587 -13.29502,-0.142 -14.65072,-5.136 -9.90301,-36.482 -29.05516,-87.874 17.09203,-106.396 60.63187,-24.336 157.33526,81.732 69.99759,136.847 -8.02021,5.061 -18.5252,9.102 -27.67391,6.604 -20.6629,-5.643 -37.98231,-19.812 -56.97347,-29.718"
       id="path993" /><path
       style="fill:none;stroke:#ffffff;stroke-width:5.5"
       d="m 988.38938,19977.664 c 18.99152,11.984 41.29242,19.88 56.97442,35.954 84.413,86.525 254.6367,391.276 93.5998,482.448 -14.9117,8.443 -34.1841,-2.445 -51.2761,-3.668"
       id="path995" /><path
       style="fill:none;stroke:#ffffff;stroke-width:5.5"
       d="m 1533.7137,20214.302 c 25.7904,-2.222 281.1614,-22.521 284.871,-11.374 4.1019,12.326 -22.7893,12.474 -34.184,18.712"
       id="path997" /><path
       style="fill:none;stroke:#ffffff;stroke-width:5.5"
       d="m 1555.6893,20290.98 c 27.9445,3.669 55.6611,10.187 83.8336,11.007 54.0215,1.571 193.1536,-7.215 253.9421,-10.64 44.9082,-2.53 112.9652,-9.133 85.4611,-2.935"
       id="path999" /><path
       style="fill:none;stroke:#ffffff;stroke-width:5.5"
       d="m 2322.0122,19845.626 c 0.8137,27.394 2.8349,54.779 2.4413,82.182 -0.2528,17.6 -5.6719,39.845 -10.5809,56.866 -8.8256,30.602 -14.4719,-18.107 -15.4645,-22.746 -2.6531,-12.399 -15.2986,-78.002 -14.6498,-78.879 10.6061,-14.343 20.529,-35.416 38.2539,-37.423 45.6641,-5.169 90.8286,15.55 136.7382,17.611 10.7192,0.481 170.8601,-27.078 171.736,-26.782 10.8092,3.654 -4.486,22.407 -5.6973,33.752 -1.2987,12.164 -1.4441,24.473 -0.8138,36.689 2.2182,42.993 39.3828,93.906 -3.256,86.584"
       id="path1001" /><path
       style="fill:none;stroke:#ffffff;stroke-width:5.5"
       d="m 2396.8924,20111.615 c 14.4249,-29.496 119.1709,-143.736 148.9466,-80.713 8.2923,17.551 10.6443,31.759 13.837,50.629 1.3736,8.118 7.7484,30.876 2.4413,24.581 -23.5553,-27.942 -71.1644,-115.004 -122.9012,-82.181 -12.601,7.994 -130.6792,134.797 -42.3237,87.684 120.2823,-64.136 32.8209,-68.311 97.6696,-114.467 46.459,-33.066 122.7162,135.266 96.043,119.237"
       id="path1003" /><path
       style="fill:none;stroke:#ffffff;stroke-width:5.5"
       d="m 2490.4931,20314.867 c 37.5939,38.963 38.4685,63.938 26.8592,113 -1.574,6.651 -1.5594,14.733 -6.5111,19.445 -23.7507,22.601 -20.4946,-129.044 -20.3481,-132.445 z"
       id="path1005" /><path
       style="fill:none;stroke:#ffffff;stroke-width:5.5"
       d="m 2370.847,20476.662 c -1.6279,23.236 -1.8383,46.615 -4.8836,69.708 -1.3103,9.935 -23.7918,64.884 -8.9534,76.31 4.0289,3.103 214.2166,-26.966 240.1061,-27.149 24.9894,-0.175 49.958,1.831 74.8801,3.669 22.4843,1.658 56.0986,22.72 67.5553,3.302 10.6984,-18.132 20.3883,-62.887 24.4171,-79.613 5.2051,-21.611 43.9555,-99.759 -4.0688,-105.662"
       id="path1007" /><path
       style="fill:none;stroke:#ffffff;stroke-width:5.5"
       d="m 2549.0951,20736.781 c -1.0124,5.443 38.7668,143.539 0,148.587 -9.039,1.177 -17.9062,-3.425 -26.8592,-5.137"
       id="path1009" /><path
       style="fill:none;stroke:#ffffff;stroke-width:5.5"
       d="m 2431.0765,20828.501 c 90.9326,-5.673 186.805,-17.632 278.3599,-11.74"
       id="path1011" /><path
       style="fill:none;stroke:#ffffff;stroke-width:5.5"
       d="m 2496.409,19516.729 c -68.0851,-15.059 19.4677,-54.969 16.2792,-40.357 -3.0926,14.172 -10.8529,26.905 -16.2792,40.357 z"
       id="path1013" /><path
       style="fill:none;stroke:#ffffff;stroke-width:5.5"
       d="m 2480.9454,19628.995 c -6.0053,3.598 9.3537,136.881 17.9058,98.324"
       id="path1015" /><path
       style="fill:none;stroke:#ffffff;stroke-width:5.5"
       d="m 2983.1322,19910.393 c -86.6447,90.921 -152.6624,187.439 -115.5763,318.819 24.6885,87.462 95.1693,143.119 150.5741,209.122"
       id="path1017" /><path
       style="fill:none;stroke:#ffffff;stroke-width:5.5"
       d="m 3299.7451,20074.755 c -20.201,-26.287 -179.1944,63.489 -126.1563,91.721 49.852,26.535 107.3706,7.226 152.2018,-16.144 3.764,-1.962 55.847,-31.703 42.3236,-55.765 -2.9924,-5.325 -11.2255,-4.904 -17.0921,-6.604 -16.9526,-4.913 -57.5257,-29.715 -51.277,-13.208 16.0983,42.525 52.3801,75.353 86.2758,105.662 17.2665,15.439 42.7207,17.988 63.4855,28.25 1.9584,0.968 6.0819,4.286 4.0698,5.136 -5.2493,2.218 -11.3951,0.245 -17.0929,0.367"
       id="path1019" /><path
       style="fill:none;stroke:#ffffff;stroke-width:5.5"
       d="m 3380.3237,19907.457 c -22.5119,14.203 -13.2924,-62.945 6.5111,-59.801 92.6131,14.706 218.0071,155.143 223.8269,248.011 2.1116,33.697 -8.8717,67.931 -22.7894,98.691 -23.5016,51.943 -92.0636,107.019 -139.9942,129.876 -25.1521,11.995 -54.261,12.719 -81.3914,19.078"
       id="path1021" /><path
       style="fill:none;stroke:#ffffff;stroke-width:5.5"
       d="m 3950.8796,19979.366 c 25.414,68.374 57.4688,135.852 74.0664,207.288 2.0532,8.837 16.555,59.354 -12.2095,55.032"
       id="path1023" /><path
       style="fill:none;stroke:#ffffff;stroke-width:5.5"
       d="m 3910.9971,20155.102 c 107.6148,-0.32 216.2871,-14.099 323.9397,-4.77"
       id="path1025" /><path
       style="fill:none;stroke:#ffffff;stroke-width:5.5"
       d="m 4327.7712,19874.22 c 0.2712,-10.272 11.0863,-30.546 0.8136,-30.817 -10.2725,-0.272 -3.2002,20.822 -0.8136,30.817 8.0573,33.747 22.8168,53.107 26.0453,86.584 0.876,9.085 -3.093,-18.035 -5.6973,-26.782 -6.0082,-20.181 -14.6365,-39.535 -20.348,-59.802 -20.8656,-74.036 -6.2733,-56.78 62.6715,-67.139 52.7691,-7.928 106.4337,-14.4 158.7138,-25.315 7.2758,-1.519 80.0621,-31.614 82.206,-26.782 5.8031,13.078 -9.0641,71.418 -8.9532,82.548 0.1315,13.218 18.6005,84.977 14.6508,92.454"
       id="path1027" /><path
       style="fill:none;stroke:#ffffff;stroke-width:5.5"
       d="m 4457.998,20038.95 c -4.6122,-11.618 -14.6275,-22.379 -13.8369,-34.854 0.725,-11.437 10.7468,-20.402 17.9067,-29.35 33.7373,-42.166 73.5217,12.544 97.6696,35.954 14.7037,14.254 34.5149,32.578 39.8825,48.061"
       id="path1029" /><path
       style="fill:none;stroke:#ffffff;stroke-width:5.5"
       d="m 4524.1518,20284.147 c -52.5198,66.659 -14.3804,129.265 -20.3481,199.216"
       id="path1031" /><path
       style="fill:none;stroke:#ffffff;stroke-width:5.5"
       d="m 4383.3437,20506.11 c 1.0123,17.701 -2.3913,76.765 14.6508,100.526 35.8195,49.939 157.2411,21.271 205.1074,17.61 13.8342,-1.059 92.421,1.091 109.0641,-12.841 8.9691,-7.508 2.6091,-23.249 4.0698,-34.854 3.3079,-26.278 8.509,-52.287 12.2095,-78.512 9.0511,-64.144 3.9849,-60.853 -50.4632,-22.38"
       id="path1033" /><path
       style="fill:none;stroke:#ffffff;stroke-width:5.5"
       d="m 4572.9867,20671.573 c 11.1115,46.053 37.3835,133.52 -24.417,154.824"
       id="path1035" /><path
       style="fill:none;stroke:#ffffff;stroke-width:5.5"
       d="m 4466.3636,20768.797 c 87.0421,-8.611 174.3165,-4.855 261.2671,-13.208"
       id="path1037" /><path
       style="fill:none;stroke:#ffffff;stroke-width:5.5"
       d="m 4373.5766,19471.506 c 3.7269,-33.415 18.5142,-79.976 0,0 z"
       id="path1039" /><path
       style="fill:none;stroke:#ffffff;stroke-width:5.5"
       d="m 4332.8813,19612.388 c 23.9723,32.531 17.4173,102.152 38.254,135.012 4.0889,6.448 -2.8429,-15.022 -4.8837,-22.38"
       id="path1041" /><path
       style="fill:none;stroke:#ffffff;stroke-width:5.5"
       d="m 4943.3187,19967.895 c -21.9755,23.114 -49.7538,41.853 -65.9267,69.341 -72.1847,122.688 23.9551,221.614 125.3426,275.528 10.8654,5.777 22.0033,12.194 34.185,13.941 10.1676,1.458 -0.1781,-11.735 -14.6508,-35.221"
       id="path1043" /><path
       style="fill:none;stroke:#ffffff;stroke-width:5.5"
       d="m 5058.0815,19998.713 c 12.7513,14.309 28.4112,26.48 38.2537,42.925 10.8381,18.109 17.3723,38.672 22.7894,59.068 10.5457,39.706 1.3493,80.317 0.8149,62.003 -1.0578,-36.241 39.0207,-105.619 81.3911,-70.074 101.9495,85.527 -23.2688,212.668 -108.2503,59.435"
       id="path1045" /><path
       style="fill:none;stroke:#ffffff;stroke-width:5.5"
       d="m 5163.0769,19875.808 c 0.2712,-26.782 -6.5424,-54.593 0.8136,-80.347 6.9154,-24.21 93.7268,16.83 155.4578,79.614 119.3969,121.431 190.4957,301.217 46.3936,438.789 -26.8208,25.606 -64.0281,37.422 -96.0422,56.133"
       id="path1047" /><path
       style="fill:none;stroke:#ffffff;stroke-width:5.5"
       d="m -827.53877,21633.214 c -241.80323,140.261 -88.21415,56.707 91.15848,139.415 14.93896,6.889 34.53738,21.578 31.74278,37.789 -10.70076,62.075 -116.30155,131.708 -174.99208,87.317 -7.67607,-5.805 -10.85218,-15.898 -16.27828,-23.846"
       id="path1065" /><path
       style="fill:none;stroke:#ffffff;stroke-width:5.5"
       d="m -662.31384,21737.409 c -10.58092,8.315 -30.3802,11.559 -31.74277,24.947 -13.03809,128.113 267.99981,53.017 175.80586,-14.675 -16.76033,-12.306 -37.44042,-18.099 -56.16062,-27.149"
       id="path1067" /><path
       style="fill:none;stroke:#ffffff;stroke-width:5.5"
       d="m -535.34279,21612.669 c 39.80199,23.595 159.50086,139.843 157.90003,187.476 -0.16166,4.811 -9.9495,-2.533 -13.02316,-6.237 -11.6717,-14.065 -55.34094,-77.038 -19.53337,-96.489 6.44485,-3.501 15.11467,-3.693 21.9756,-1.101 142.81736,53.963 -12.69465,187.456 -39.88236,132.444 -9.0918,-18.396 -8.68148,-40.112 -13.02224,-60.169"
       id="path1069" /><path
       style="fill:none;stroke:#ffffff;stroke-width:5.5"
       d="m -288.72559,21647.156 c -12.20877,18.222 -27.69423,34.633 -36.62635,54.665 -19.86108,44.544 137.78301,36.003 151.38799,37.422 1.9158,0.2 49.35708,0.194 46.39348,22.013 -2.47594,18.229 -61.40268,77.609 -82.20604,71.542 -14.04391,-4.097 -14.46422,-25.736 -16.27827,-35.221"
       id="path1071" /><path
       style="fill:none;stroke:#ffffff;stroke-width:5.5"
       d="m -158.49945,21661.831 c 56.07658,-120.866 119.358144,52.244 86.275835,112.266 -5.054319,9.17 -16.821091,12.474 -25.231637,18.711"
       id="path1073" /><path
       style="fill:none;stroke:#ffffff;stroke-width:5.5"
       d="m -142.22119,21733.74 c 51.205621,-28.252 112.323513,-10.108 168.48096,-11.374 52.065716,-51.819 57.518575,-50.04 13.02317,-74.109 -8.516991,-78.675 -6.586092,-88.758 40.695208,-135.379"
       id="path1075" /><path
       style="fill:none;stroke:#ffffff;stroke-width:5.5"
       d="m 145.90592,21499.303 c 29.96341,32.82 166.79093,226.65 57.78817,245.076"
       id="path1077" /><path
       style="fill:none;stroke:#ffffff;stroke-width:5.5"
       d="m 127.99918,21677.607 c 7.59677,-10.15 11.20203,-25.308 22.79031,-30.451 57.92725,-25.71 139.80343,-22.722 202.66504,-30.818 2.98446,22.747 -7.42086,52.171 8.95338,68.24 16.58138,16.272 45.95769,7.881 69.18287,8.438 17.9025,0.429 149.99523,10.18 139.99329,-48.428 -1.94722,-11.41 -26.30105,-56.226 -34.99786,-72.642"
       id="path1079" /><path
       style="fill:none;stroke:#ffffff;stroke-width:5.5"
       d="m 565.88672,21480.592 c 26.49325,37.191 92.07944,136.34 82.20604,183.44 -3.82617,18.253 -31.51209,14.957 -41.5099,15.776"
       id="path1081" /><path
       style="fill:none;stroke:#ffffff;stroke-width:5.5"
       d="m 517.05191,21609.734 c 83.15618,-10.542 24.52584,-5.059 123.71504,-7.705 21.98475,-0.586 44.06556,-0.177 65.92776,-2.568 15.16623,-1.659 30.58223,-3.916 44.76501,-9.539 92.1308,-36.525 -83.33771,-125.078 -110.69277,-63.837 -34.13813,76.427 201.91999,122.234 247.43095,125.474"
       id="path1083" /><path
       style="fill:none;stroke:#ffffff;stroke-width:5.5"
       d="m -670.45343,22063.566 c -9.29547,34.332 49.90947,200.354 -6.51113,207.288"
       id="path1085" /><path
       style="fill:none;stroke:#ffffff;stroke-width:5.5"
       d="m -813.70276,22196.377 c -15.4645,-6.848 -39.54505,-36.01 -46.39347,-20.545 -6.84842,15.464 29.48665,21.004 46.39347,20.545 43.93917,-1.192 85.70037,-20.705 129.41329,-25.315 43.17,-4.553 86.85451,2.544 130.22617,0.734 -30.94615,-67.801 -66.94359,-98.076 7.3258,-61.636 30.12054,14.779 131.0596,77.03 123.71503,119.236 -2.75827,15.851 -67.47041,-89.471 -12.20847,-82.181 61.67574,8.137 83.62016,56.236 163.59738,28.25 9.94359,-3.48 109.8703,-66.781 60.2295,-70.808 -49.52304,-4.018 -133.61082,69.688 -100.11186,87.684 90.69451,48.722 206.27877,36.889 300.33558,6.604"
       id="path1087" /><path
       style="fill:none;stroke:#ffffff;stroke-width:5.5"
       d="m 460.89129,22003.398 c 24.6888,15.898 48.45196,33.335 74.06643,47.694 27.92478,15.654 57.67308,27.813 86.27586,42.191 23.2206,11.673 50.75769,17.626 69.18285,35.955 8.15891,8.116 10.10177,26.7 1.62756,34.487 -13.79826,12.678 -102.8655,-2.044 -121.2737,-6.971 -145.89038,-39.046 -7.56711,-76.311 50.46329,-67.873"
       id="path1089" /><path
       style="fill:none;stroke:#ffffff;stroke-width:5.5"
       d="m 744.94859,22088.514 c 37.45931,-3.127 38.15271,0 67.55532,-11.007 25.80188,-9.664 67.71577,-22.818 86.27491,-45.126 25.4109,-30.543 -65.74409,-21.585 -79.76378,-13.208 -3.54433,2.118 -77.82763,60.525 -74.06645,69.341 22.7852,53.408 92.57411,69.606 141.62177,63.103"
       id="path1091" /><path
       style="fill:none;stroke:#ffffff;stroke-width:5.5"
       d="m 1072.9571,21979.917 c -11.1234,-1.834 -23.4203,-10.804 -33.3703,-5.503 -14.325,7.631 -23.7716,23.629 -29.3014,38.889 -22.51668,62.136 20.0794,118.729 72.4389,145.285"
       id="path1093" /><path
       style="fill:none;stroke:#ffffff;stroke-width:5.5"
       d="m 909.35975,22089.615 c 87.20111,1.121 177.94045,-7.173 264.52305,6.603 6.9968,-45.058 18.4356,-75.856 5.6973,-118.135"
       id="path1095" /><path
       style="fill:none;stroke:#ffffff;stroke-width:5.5"
       d="m 1192.6033,21920.483 c 63.2495,-15.798 81.3548,45.567 99.2981,94.287 14.7416,40.028 14.41,67.258 20.3471,56.867 16.2626,-28.461 22.6376,-65.961 50.4633,-87.317 36.1814,-27.77 57.7881,103.856 57.7881,128.775"
       id="path1097" /><path
       style="fill:none;stroke:#ffffff;stroke-width:5.5"
       d="m 1481.5432,22085.946 c 10.8525,-5.014 37.5716,-4.19 32.5575,-15.043 -5.0141,-10.852 -25.8741,24.955 -32.5575,15.043 -9.8714,-14.641 4.8839,-34.976 7.3258,-52.464"
       id="path1099" /><path
       style="fill:none;stroke:#ffffff;stroke-width:5.5"
       d="m 1479.1019,21968.177 c -12.5886,-34.393 -4.702,-57.25 9.7671,-87.685"
       id="path1101" /><path
       style="fill:none;stroke:#ffffff;stroke-width:5.5"
       d="m 1584.0973,21854.077 c 25.6224,58.927 117.1899,172.463 93.6008,236.271"
       id="path1103" /><path
       style="fill:none;stroke:#ffffff;stroke-width:5.5"
       d="m 1544.215,22022.475 c 65.67,-24.791 130.278,-19.018 197.7824,-10.639"
       id="path1105" /><path
       style="fill:none;stroke:#ffffff;stroke-width:5.5"
       d="m 1817.6914,22031.28 c 13.0131,-37.902 19.2361,-24.256 -7.3249,-44.392"
       id="path1107" /><path
       style="fill:none;stroke:#ffffff;stroke-width:5.5"
       d="m 1773.7401,21908.742 c -11.5026,-39.964 -4.4738,-57.457 11.3947,-90.62"
       id="path1109" /><path
       style="fill:none;stroke:#ffffff;stroke-width:5.5"
       d="m 1950.3598,21911.31 c 7.0539,10.884 18.7143,19.916 21.1618,32.653 9.8379,51.197 -185.2682,-30.994 -87.0887,-67.873 11.1895,-4.203 25.269,-7.467 35.8116,-1.835 0.1585,0.08 104.775,113.787 47.2073,86.217"
       id="path1111" /><path
       style="fill:none;stroke:#ffffff;stroke-width:5.5"
       d="m 1993.4972,21845.272 c 15.0338,-27.889 18.9931,-66.504 53.7193,-19.078 22.8563,31.215 26.544,70.347 23.6032,107.129 -0.9611,12.021 -4.37,42.153 -13.0223,33.753 -28.6792,-27.844 15.452,-109.397 51.2762,-111.898 51.5244,-3.599 96.261,84.273 78.95,129.142"
       id="path1113" /><path
       style="fill:none;stroke:#ffffff;stroke-width:5.5"
       d="m -630.57109,22687.63 c -29.16298,21.16 -159.9035,32.065 -161.96982,-24.947 -5.21776,-143.966 203.33147,-72.733 252.31455,-21.646 54.99235,57.354 -43.92075,133.424 -65.11308,104.928 -12.64267,-17 -16.8211,-38.89 -25.23165,-58.335 z"
       id="path1115" /><path
       style="fill:none;stroke:#ffffff;stroke-width:5.5"
       d="m -338.3751,22533.174 c -35.04883,14.179 -107.5662,41.821 -109.879,90.619 -1.58893,33.525 50.11304,68.605 69.18285,82.182 18.25602,12.997 58.04345,30.189 52.90461,36.321 -5.80433,6.925 -17.90613,2.446 -26.85918,3.669"
       id="path1117" /><path
       style="fill:none;stroke:#ffffff;stroke-width:5.5"
       d="m -471.85726,22663.784 c 83.7479,-15.009 169.27555,-21.959 253.94208,-20.546"
       id="path1119" /><path
       style="fill:none;stroke:#ffffff;stroke-width:5.5"
       d="m 242.76175,22733.857 c -26.07119,-52.857 95.31589,-219.551 143.24931,-156.291 43.90509,57.944 49.11169,111.668 63.48553,176.47"
       id="path1121" /><path
       style="fill:none;stroke:#ffffff;stroke-width:5.5"
       d="m 633.44204,22760.273 c 38.55452,-50.648 28.09592,-32.81 62.67174,-101.259 13.33588,-26.401 35.3181,-75.5 47.20725,-103.827 3.03075,-7.221 6.30751,-26.5 11.39471,-20.546 64.56796,75.569 16.51566,40.572 100.92563,101.993 25.14864,18.3 54.5616,30.71 78.13624,50.996 2.36702,2.038 7.12949,7.814 4.0698,8.439 -35.39847,7.225 -287.61838,-9.043 -302.77782,-33.386 -32.48474,-52.165 264.1858,-122.627 300.33558,-129.509 15.88937,-3.025 31.87766,-5.964 48.02103,-6.971 2.0321,-0.127 6.26562,2.173 4.88357,3.669 -20.44115,22.114 -50.86768,32.529 -74.06645,51.73 -54.12296,44.797 -82.68081,100.609 -118.83144,158.86 -15.25148,24.575 -48.62057,71.548 -70.81136,93.554 -6.22623,6.175 2.44059,-17.54 5.69735,-25.682"
       id="path1123" /><path
       style="fill:none;stroke:#ffffff;stroke-width:5.5"
       d="m 1244.6941,22490.982 c -15.4221,-16.986 -235.1991,124.428 -172.5508,172.434 61.2641,46.946 328.5344,-21.452 296.2658,-123.272 -10.924,-34.469 -105.8011,-55.062 -92.786,-16.509 34.4055,101.912 137.5108,155.383 189.6419,244.343"
       id="path1125" /><path
       style="fill:none;stroke:#ffffff;stroke-width:5.5"
       d="m 1903.9663,22405.499 c 45.9046,39.725 191.4188,214.929 84.6473,263.054"
       id="path1127" /><path
       style="fill:none;stroke:#ffffff;stroke-width:5.5"
       d="m 1838.8532,22598.112 c 87.4339,-46.886 192.9354,-47.855 289.7547,-38.156 8.8113,-14.407 33.443,-76.917 66.7415,-84.016 73.8473,-15.744 145.2093,82.042 42.3237,137.214 -25.6409,13.75 -131.4347,17.773 -109.0652,-53.198 5.376,-17.056 34.7272,-8.56 52.0908,-12.841"
       id="path1129" /><path
       style="fill:none;stroke:#ffffff;stroke-width:5.5"
       d="m 2646.2592,22438.885 c -32.7472,-9.607 -115.5324,17.707 -109.0652,60.902 8.3789,55.965 128.2395,41.32 155.4588,17.244 30.4691,-26.95 -50.1677,-83.108 -46.3936,-78.146 21.8868,28.776 46.2949,55.65 71.6243,81.448 24.9129,25.374 69.8756,50.301 83.8335,88.051 38.4624,104.025 -221.3661,75.026 -154.644,-16.142 11.0369,-15.081 28.2536,-25 44.7649,-33.754 52.4687,-27.814 101.2343,-34.683 158.7148,-35.587 20.8462,-0.328 55.594,1.233 74.8802,-6.971 26.419,-11.237 56.5039,-20.5 74.8803,-42.558 37.161,-44.606 -22.7491,-53.387 -40.6961,-49.529 -59.2008,12.727 -108.7451,44.942 -118.0177,114.1 -8.0605,60.116 104.0361,76.843 137.5519,67.139 19.8879,-5.758 35.8121,-20.79 53.7183,-31.185"
       id="path1131" /><path
       style="fill:none;stroke:#ffffff;stroke-width:5.5"
       d="m 3080.8907,22369.545 c -18.5049,45.259 62.8716,228.783 22.7894,234.803"
       id="path1133" /><path
       style="fill:none;stroke:#ffffff;stroke-width:5.5"
       d="m 3020.6612,22531.706 c 17.0921,-10.517 31.7135,-27.073 51.276,-31.552 50.582,-11.581 197.3665,-7.128 260.4543,-11.006"
       id="path1135" /><path
       style="fill:none;stroke:#ffffff;stroke-width:5.5"
       d="m 76.935055,23732.726 c 94.324265,-100.095 195.155475,-159.988 322.311175,-78.513 30.53734,19.567 51.63527,42.782 67.5544,74.477 8.00621,15.94 -25.69017,-24.759 -38.25388,-37.422 -58.0558,-58.513 -131.56912,-124.763 -222.19932,-103.46 -78.86799,18.538 -96.83382,127.089 -99.29809,191.511 -1.83044,47.853 9.743,60.245 14.65072,53.198 58.03298,-83.321 39.04855,-241.314 158.71381,-274.793 29.73909,-8.321 72.35238,3.191 95.22828,22.379 73.124,61.337 68.56999,166.593 83.01982,252.414 1.38702,8.238 0.17399,17.682 4.88357,24.581 4.6079,6.751 2.06841,-11.133 -0.81378,-36.688"
       id="path1137" /><path
       style="fill:none;stroke:#ffffff;stroke-width:5.5"
       d="m 638.53762,23745.567 c 55.78716,-53.886 28.54182,-19.67 65.92684,-87.318 10.0752,-18.231 20.55373,-36.237 30.92899,-54.298 11.40752,-19.86 21.21657,-36.641 21.97561,-36.322 15.51212,6.526 85.73992,176.096 57.78817,191.145 -36.54493,19.676 -147.50933,7.056 -176.61961,-13.207 -17.8693,-12.439 -32.3143,-40.949 -23.60316,-60.903 9.39056,-21.51 41.05132,-23.554 63.48553,-30.451 52.66216,-16.188 186.90581,-57.02 267.77809,-57.967 2.11902,-0.02 -0.72046,4.633 -2.44131,5.87 -27.30939,19.626 -56.11963,37.082 -83.8336,56.133 -40.52223,27.855 -186.64438,123.806 -196.1539,178.671 -0.46379,2.676 5.67187,1.502 8.13866,0.367 19.6904,-9.065 52.481,-33.851 68.3691,-45.126"
       id="path1139" /><path
       style="fill:none;stroke:#ffffff;stroke-width:5.5"
       d="m 1183.8619,23441.789 c -0.8138,-10.762 8.3206,-33.1 -2.4413,-32.286 -10.7619,0.814 8.4307,23.308 2.4413,32.286 -18.9771,28.447 -60.6115,40.557 -72.4389,72.642 -33.2502,90.202 -28.5568,188.02 23.6041,267.824 36.709,56.162 99.7854,91.661 156.2716,124.005"
       id="path1141" /><path
       style="fill:none;stroke:#ffffff;stroke-width:5.5"
       d="m 1479.3139,23629.632 c -14.3791,-2.69 -29.0102,-11.869 -43.1374,-8.072 -18.901,5.081 -72.4526,49.708 -73.2527,74.477 -2.1526,66.64 160.0959,46.452 183.9454,39.991 26.2865,-7.121 52.1008,-18.388 74.0665,-34.487 116.4323,-85.338 -145.4715,-122.112 -36.6263,-34.854 32.0565,25.699 69.3511,44.096 103.3669,67.139 29.031,19.666 29.8483,20.672 45.5797,34.854"
       id="path1143" /><path
       style="fill:none;stroke:#ffffff;stroke-width:5.5"
       d="m 1806.5087,23569.831 c 18.7798,-32.205 26.9405,-61.777 51.277,-13.942 11.6282,22.856 26.1529,45.246 30.929,70.441 5.4895,28.958 7.8163,60.236 -0.8147,88.418 -3.7578,12.27 -21.7043,13.697 -32.5565,20.546"
       id="path1145" /><path
       style="fill:none;stroke:#ffffff;stroke-width:5.5"
       d="m 1757.6739,23669.989 c 61.4106,-57.303 145.9638,-3.059 212.4322,-33.019"
       id="path1147" /><path
       style="fill:none;stroke:#ffffff;stroke-width:5.5"
       d="m 2000.2213,23502.691 c 26.5879,0 55.5472,-10.976 79.7638,0 61.643,27.94 87.2222,95.507 90.3447,157.025 1.2038,23.717 -31.2851,29.796 -43.1375,14.675 -41.4696,-52.903 11.4087,-141.766 77.3216,-121.437 123.0789,37.959 33.3715,127.94 3.256,126.207 -26.9496,-1.55 -47.7501,-25.192 -71.6251,-37.789"
       id="path1149" /><path
       style="fill:none;stroke:#ffffff;stroke-width:5.5"
       d="m 2259.8607,23330.624 c 18.9915,-0.611 39.8025,-9.969 56.9744,-1.835 28.4256,13.467 49.9195,38.856 70.8104,62.37 47.7351,53.73 95.8032,123.828 99.2981,199.584 4.583,99.34 -67.7791,197.507 -161.156,227.466 -21.2294,6.811 -44.4938,2.935 -66.7407,4.402"
       id="path1151" /><path
       style="fill:none;stroke:#ffffff;stroke-width:5.5"
       d="m 2840.9975,23583.772 c 89.924,-8.824 178.7152,-31.711 269.4067,-33.386 8.5156,-0.157 24.7592,-4.469 25.2307,4.035 0.3728,6.723 -34.2834,12.752 -56.9735,17.611"
       id="path1153" /><path
       style="fill:none;stroke:#ffffff;stroke-width:5.5"
       d="m 2806.8126,23649.811 c 96.666,54.829 318.8028,-34.644 406.1446,-1.835"
       id="path1155" /><path
       style="fill:none;stroke:#ffffff;stroke-width:5.5"
       d="m 3471.783,23686.498 c 6.7828,-28.249 7.6903,-58.599 20.348,-84.749 13.3713,-27.625 85.2424,-119.041 131.041,-90.986 19.2585,11.797 65.5749,188.529 99.2971,158.126"
       id="path1157" /><path
       style="fill:none;stroke:#ffffff;stroke-width:5.5"
       d="m 3850.2549,23652.746 c 32.7093,-45.05 54.5261,-101.514 61.8569,-157.026 3.7407,-28.326 -2.762,-47.945 4.0698,-44.392 30.335,15.777 149.4515,118.978 137.5529,151.155 -17.2931,46.765 -256.9501,-33.003 -276.7324,-43.292 -6.0108,-3.126 -3.7875,-17.513 2.4413,-20.179 99.2872,-42.483 163.1706,-51.819 263.7094,-62.369 20.8193,-2.185 76.0441,-12.069 62.6708,4.036 -49.593,59.722 -124.8376,94.233 -173.3627,156.291 -29.641,37.907 -39.1094,78.531 -29.3015,74.11 5.8906,-2.655 9.2247,-9.05 13.8369,-13.575"
       id="path1159" /><path
       style="fill:none;stroke:#ffffff;stroke-width:5.5"
       d="m 4350.0004,23483.614 c -51.1027,-42.383 -156.3373,52.517 -109.0663,101.259 33.8318,34.884 130.892,21.58 131.8556,-38.523 0.3567,-22.246 -42.6026,-72.858 -22.7893,-62.736 33.6079,17.169 45.5374,60.411 71.6232,87.684 18.1467,18.973 74.8993,42.088 53.7184,57.6"
       id="path1161" /><path
       style="fill:none;stroke:#ffffff;stroke-width:5.5"
       d="m 4672.2938,23440.505 c 6.7829,15.042 16.6873,29.037 20.3481,45.126 0.6882,3.024 12.2198,109.25 -0.8136,115.935 -6.8165,3.496 -13.0231,-8.072 -19.5345,-12.107"
       id="path1167" /><path
       style="fill:none;stroke:#ffffff;stroke-width:5.5"
       d="m 4575.4381,23514.248 c -11.3951,-1.223 -32.9621,-15.064 -34.185,-3.669 -1.2229,11.395 22.9214,1.553 34.185,3.669 127.9038,24.022 -2.6458,14.502 192.8979,20.179 28.4763,0.826 57.0042,-0.587 85.462,0.733 8.5281,0.396 27.3291,-3.873 25.2307,4.403 -2.4342,9.599 -18.991,5.625 -28.4867,8.438"
       id="path1169" /><path
       style="fill:none;stroke:#ffffff;stroke-width:5.5"
       d="m 5011.6971,23603.767 c 1.918,-53.582 -5.2012,-47.031 30.1154,-96.857 95.844,-135.22 159.2477,64.252 136.738,97.591"
       id="path1171" /><path
       style="fill:none;stroke:#ffffff;stroke-width:5.5"
       d="m 5287.6149,23614.04 c 8.1129,-55.378 3.0692,-29.772 19.5342,-94.656 3.261,-12.85 34.7549,-126.461 39.0686,-128.041 5.2618,-1.927 14.2621,20.665 25.2318,40.357 13.844,24.852 74.4601,123.098 74.0653,124.372 -2.6596,8.592 -17.9689,3.93 -26.8592,2.569 -53.1066,-8.135 -103.5216,-28.806 -155.4578,-42.559 -27.5867,-7.304 -55.4717,-13.461 -83.0196,-20.912 -11.8054,-3.193 -44.7908,-3.68 -34.9988,-11.006 26.3469,-19.714 149.1342,-26.513 171.7368,-28.617 8.3823,-0.78 151.6002,-21.231 174.1794,-16.143 10.2519,2.311 -18.3269,10.375 -26.8591,16.51 -16.0597,11.548 -32.2644,22.995 -47.2083,35.954 -51.4321,44.6 -69.5034,80.268 -129.4133,122.172 z"
       id="path1173" /><path
       style="fill:none;stroke:#ffffff;stroke-width:5.5"
       d="m 5545.6268,23355.756 c -10.9334,30.336 12.7397,-94.96 27.6738,-71.909 37.9577,58.588 49.951,218.063 50.4632,288.368 0.1043,14.289 -2.9197,51.948 -12.2092,41.091 -22.4771,-26.269 -13.857,-70.013 -1.6277,-96.857 61.0772,-134.064 208.8047,-55.282 191.2694,24.581 -20.4716,93.239 -301.4001,172.633 -328.8223,73.743 -3.7081,-13.372 13.566,-24.214 20.3491,-36.321"
       id="path1175" /></g></svg>
