<?xml version="1.0" encoding="UTF-8" standalone="no"?>
<!-- Created with Inkscape (http://www.inkscape.org/) -->

<svg
   width="149.38829mm"
   height="56.997261mm"
   viewBox="0 0 149.38828 56.997261"
   version="1.1"
   id="svg12"
   inkscape:version="1.2.2 (b0a8486541, 2022-12-01)"
   sodipodi:docname="AdaptiveHuffmanNode0.svg"
   xml:space="preserve"
   xmlns:inkscape="http://www.inkscape.org/namespaces/inkscape"
   xmlns:sodipodi="http://sodipodi.sourceforge.net/DTD/sodipodi-0.dtd"
   xmlns="http://www.w3.org/2000/svg"
   xmlns:svg="http://www.w3.org/2000/svg"><sodipodi:namedview
     id="namedview14"
     pagecolor="#000000"
     bordercolor="#ffffff"
     borderopacity="1"
     inkscape:showpageshadow="0"
     inkscape:pageopacity="0"
     inkscape:pagecheckerboard="0"
     inkscape:deskcolor="#000000"
     inkscape:document-units="mm"
     showgrid="true"
     inkscape:zoom="0.5079523"
     inkscape:cx="285.45987"
     inkscape:cy="124.02739"
     inkscape:window-width="1366"
     inkscape:window-height="746"
     inkscape:window-x="1360"
     inkscape:window-y="0"
     inkscape:window-maximized="1"
     inkscape:current-layer="layer1"
     inkscape:lockguides="true"
     showguides="true"><sodipodi:guide
       position="3265.6758,-22192.731"
       orientation="0,-1"
       id="guide3409"
       inkscape:locked="true" /></sodipodi:namedview><defs
     id="defs9"><rect
       x="587.26367"
       y="362.45731"
       width="66.575974"
       height="20.973427"
       id="rect1884" /></defs><g
     inkscape:label="Layer 1"
     inkscape:groupmode="layer"
     id="layer1"
     transform="translate(15.608913,-509.08051)"><path
       style="fill:none;stroke:#ffccaa;stroke-width:0.3"
       d="m 30.949827,515.33799 c -4.304421,0.0501 -11.804438,11.08198 -6.610728,13.17834 5.294654,2.13711 12.955995,-2.12952 13.697704,-7.91204 0.774634,-6.03923 -2.493126,-6.08241 -7.086976,-5.2663 -3.176047,0.56423 -3.904141,0.67347 -6.218602,2.01579 -0.113625,0.0659 -0.41144,0.27718 -0.280091,0.27718 0.706962,0 1.025811,-0.974 1.512607,-1.48666"
       id="path432" /><path
       style="fill:none;stroke:#ffccaa;stroke-width:0.3"
       d="m 31.482029,509.11417 c -0.485529,2.1082 -0.901496,4.23364 -1.45659,6.3246 -1.936707,7.29532 -2.458923,7.21724 -4.089675,14.69022 -0.98181,4.49918 -2.159748,11.38335 -0.896411,8.54199"
       id="path434" /><path
       style="fill:none;stroke:#ffccaa;stroke-width:0.3"
       d="m -28.140757,604.51059 c 3.11917,3.51568 0.241846,13.89585 1.792694,17.1344 0.417139,0.87109 4.194764,-9.22675 5.82648,-8.06325 3.229512,2.30283 2.403329,9.13602 2.941217,12.22087"
       id="path584" /><path
       style="fill:none;stroke:#ffccaa;stroke-width:0.3"
       d="m -11.053633,617.78975 c 1.6635347,1.98397 2.9307807,2.86302 5.3502341,1.76383 3.5039067,-1.59188 1.3188624,-7.13446 -1.9328342,-5.08992 -1.3457009,0.84612 -2.3060755,2.18952 -3.4173999,3.32609 -1.139617,1.16551 -2.558272,2.1441 -3.333404,3.57808 -0.30898,0.5716 -0.04209,1.40787 0.364147,1.915 2.761041,3.44674 9.7277576,1.53842 13.30557796,0.78113"
       id="path586" /><path
       style="fill:none;stroke:#ffccaa;stroke-width:0.3"
       d="m 6.229586,612.87621 c 0.5021964,-5.89039 -0.051111,-0.71006 0,0 0.1155065,1.60469 0.742755,3.13861 0.9243878,4.73716 0.1480211,1.30273 0.094568,6.19199 0.1400127,7.78608 0.014401,0.50513 -0.2971019,1.21534 0.1120989,1.51184 0.3209251,0.23254 0.5975649,-0.52075 0.8963472,-0.78113"
       id="path588" /><path
       style="fill:none;stroke:#ffccaa;stroke-width:0.3"
       d="m 12.336091,610.60842 c 0.0093,5.42564 -1.810091,14.10037 0.756334,19.15021"
       id="path590" /><path
       style="fill:none;stroke:#ffccaa;stroke-width:0.3"
       d="m 28.274758,623.96318 c -0.58824,-1.32708 -1.487639,-2.55632 -1.764718,-3.98123 -0.233151,-1.199 0.05584,-2.45296 0.280088,-3.65365 1.96447,-10.51846 9.644679,4.89956 4.958109,7.60967 -3.084833,1.78387 -8.908595,-2.38087 -6.610792,-5.71985"
       id="path592" /><path
       style="fill:none;stroke:#ffccaa;stroke-width:0.3"
       d="m 61.216552,613.45575 c 2.331574,9.08901 -1.778749,-7.06067 1.344554,5.82066 0.211728,0.87323 0.45547,1.73924 0.728292,2.59535 0.160391,0.50331 0.45266,1.74754 0.812353,1.36068 0.666131,-0.71644 2.754207,-6.4393 3.781547,-5.34191 1.189527,1.27065 1.457806,4.95163 3.305429,5.36712 0.97923,0.22021 1.037738,-1.77768 1.176435,-2.77174 0.20923,-1.49959 0.04767,-8.89811 0.756335,-9.92788 0.202864,-0.29479 0.354799,0.62155 0.532199,0.93233"
       id="path594" /><path
       style="fill:none;stroke:#ffccaa;stroke-width:0.3"
       d="m 80.796689,620.10794 c -0.791138,0.45425 -3.021994,2.82521 -3.837564,0.52915 -0.367091,-1.03346 -0.492675,-2.19462 -0.308131,-3.27571 0.210158,-1.23111 0.799343,-2.39005 1.456589,-3.45205 2.917569,-4.71429 8.379614,2.45237 5.686404,5.08992 -0.761077,0.74535 -1.998199,0.73913 -2.997298,1.10869 z"
       id="path596" /><path
       style="fill:none;stroke:#ffccaa;stroke-width:0.3"
       d="m 84.578299,611.61632 c 1.951485,2.63736 4.208653,5.07389 5.854457,7.91208 0.929793,1.60343 -1.630151,4.59361 -2.156907,-0.22677 -0.07486,-0.6851 0.744413,-13.03389 4.005683,-11.28856 0.520536,0.27857 0.690949,0.95751 1.036423,1.43627 5.1164,2.18226 4.524874,3.77345 5.238199,8.26481"
       id="path598" /><path
       style="fill:none;stroke:#ffccaa;stroke-width:0.3"
       d="m 102.42176,603.6035 c 0.70962,1.53705 1.60299,3.00195 2.12886,4.61116 0.52704,1.61275 0.76611,3.30986 1.00845,4.98914 0.26262,1.81987 0.48432,3.65446 0.50422,5.49308 0.10735,9.91832 -11.674214,-7.77937 -2.54909,-6.24903"
       id="path600" /><path
       style="fill:none;stroke:#ffccaa;stroke-width:0.3"
       d="m 1.8037401,556.7611 c 1.7492096,-0.2151 3.4678889,0.063 5.2101577,0.1008 8.0294732,0.17408 0.1138335,-11.37121 -4.4818636,-5.99704 -3.35170268,3.91945 1.5572441,0.17814 -0.7282941,5.89624 -0.86609558,2.16686 -4.8301383,1.81941 -3.3334047,4.88835 1.64140008,3.36556 8.6092351,2.05991 11.51282,1.38586 1.7540956,-0.4072 3.7286346,-1.63785 2.9412166,-1.63785 -0.0838,0 -1.199029,0.48955 -1.232517,0.50396"
       id="path602" /><path
       style="fill:none;stroke:#ffccaa;stroke-width:0.3"
       d="m 19.367047,549.40339 c 0.140054,0.88192 0.348628,1.75565 0.420166,2.64575 0.02553,0.31766 -0.209672,3.14332 -0.224073,3.3261 -0.579655,7.35769 1.399799,-3.20166 4.229753,-3.14971 1.888289,0.0347 1.322367,9.20713 2.016829,7.3325"
       id="path604" /><path
       style="fill:none;stroke:#ffccaa;stroke-width:0.3"
       d="m 37.686688,548.3955 c -0.25209,1.36067 -0.464034,2.72939 -0.756269,4.08201 -0.343461,1.58972 -2.042869,5.05013 -1.736741,6.70256 0.03602,0.19442 1.679242,-0.77553 3.641534,-1.51186 0.289634,-0.10868 12.339669,-3.42817 6.134545,-0.32757"
       id="path606" /><path
       style="fill:none;stroke:#ffccaa;stroke-width:0.3"
       d="m -9.0928212,548.16871 c 0.5228746,1.45306 1.1955045,2.86067 1.5686236,4.35919 0.9526524,3.82605 0.8692761,9.16284 -2.4650345,11.89328 -0.1112539,0.0911 -3.2883909,2.21631 -4.1177169,1.25989 -5.42753,-6.25931 7.0202137,-13.18853 9.9441969,-11.03657"
       id="path610" /><path
       style="fill:none;stroke:#ffccaa;stroke-width:0.3"
       d="m 18.274606,557.03828 c 0.867505,-3.943 1.313989,-7.95737 1.904793,-11.94368 0.114928,-0.77543 0.217215,-1.55943 0.252111,-2.34338 0.009,-0.20159 0.0033,-0.80501 0.02798,-0.60473 0.408274,3.30933 -1.046562,8.85311 -1.540645,11.74209 -0.180652,1.0563 -1.715124,3.18984 -0.644236,3.1497 1.392825,-0.0522 1.677413,-2.23788 2.661129,-3.22529 4.977246,-4.99597 4.403457,7.759 4.565859,9.87746"
       id="path612" /><path
       style="fill:none;stroke:#ffccaa;stroke-width:0.3"
       d="m 55.109984,557.56743 c -6.796248,-0.39526 -3.240653,-16.65888 1.568622,-15.95009 3.583885,0.52819 5.762858,5.43357 5.82648,8.59238 0.02503,1.24312 -0.0628,2.56546 -0.616257,3.67886 -0.841735,1.69331 -4.706713,4.61083 -6.778845,3.67885 -3.148631,-1.41615 -5.061153,-4.60532 -3.669511,-7.60968 0.263932,-0.5698 0.787527,-1.12386 1.400569,-1.25989 0.917755,-0.20364 1.867429,0.21838 2.801141,0.32757"
       id="path614" /><path
       style="fill:none;stroke:#ffccaa;stroke-width:0.3"
       d="m 68.947761,542.49925 c 0.765662,1.94861 1.709396,3.83635 2.296983,5.84584 0.4768,1.63063 2.024706,8.16746 0.700252,10.05387 -1.037924,1.4783 -0.617879,-3.19402 0.308131,-6.67739 0.558641,-2.10144 4.784193,-11.48289 6.498754,-5.44268"
       id="path616" /><path
       style="fill:none;stroke:#ffccaa;stroke-width:0.3"
       d="m 88.051715,545.85054 c 0.06536,0.92391 0.02522,1.86141 0.196093,2.77173 0.779815,4.15456 4.366588,-2.82781 5.854459,-1.78904 1.094431,0.7641 0.785683,7.00728 1.680721,8.51681 0.06127,0.10333 0.241551,-0.11301 0.280091,-0.22679 0.332205,-0.9808 0.563996,-1.99319 0.81235,-2.9985 0.68403,-2.76887 1.335286,-5.54575 2.016831,-8.31523 0.173437,-0.70478 0.67333,-2.81093 0.392187,-2.14179 -0.450157,1.07139 -0.840372,2.16699 -1.260557,3.25049"
       id="path618" /><path
       style="fill:none;stroke:#ffccaa;stroke-width:0.3"
       d="m 110.15297,540.60943 c -0.50045,1.72592 -1.21522,3.48795 -2.353,4.91354 -1.08785,1.36303 6.73333,-11.8097 2.353,-4.91354 -0.85922,1.35271 -1.56717,2.79596 -2.32496,4.20799 -0.17212,0.32073 -0.61819,1.31332 -0.42016,1.00791 1.0689,-1.64851 1.69982,-6.87948 2.74512,-5.2159 0.71664,1.14053 -0.82049,2.56697 -1.28854,3.83003 -0.10791,0.2912 -0.58824,1.09266 -0.42016,0.83153 1.08242,-1.6818 1.38911,-2.60493 1.7087,-4.66156 z"
       id="path620" /><path
       style="fill:none;stroke:#ffccaa;stroke-width:0.3"
       d="m 131.69398,541.41574 c -1.64129,-0.97127 2.41977,5.35995 1.79276,3.98124 -0.60252,-1.32485 -1.52367,-5.41156 -1.79276,-3.98124 -0.64283,3.41694 3.04084,8.87004 1.59666,4.23321 -0.44846,-1.43988 -1.06444,-2.82214 -1.59666,-4.23321 z"
       id="path622" /></g></svg>
