<?xml version="1.0" encoding="UTF-8" standalone="no"?>
<!-- Created with Inkscape (http://www.inkscape.org/) -->

<svg
   width="258.34515mm"
   height="334.94266mm"
   viewBox="0 0 258.34514 334.94266"
   version="1.1"
   id="svg12"
   inkscape:version="1.2.2 (b0a8486541, 2022-12-01)"
   sodipodi:docname="AdaptiveHuffmanNode0ExampleInsertion.svg"
   xml:space="preserve"
   xmlns:inkscape="http://www.inkscape.org/namespaces/inkscape"
   xmlns:sodipodi="http://sodipodi.sourceforge.net/DTD/sodipodi-0.dtd"
   xmlns="http://www.w3.org/2000/svg"
   xmlns:svg="http://www.w3.org/2000/svg"><sodipodi:namedview
     id="namedview14"
     pagecolor="#000000"
     bordercolor="#ffffff"
     borderopacity="1"
     inkscape:showpageshadow="0"
     inkscape:pageopacity="0"
     inkscape:pagecheckerboard="0"
     inkscape:deskcolor="#000000"
     inkscape:document-units="mm"
     showgrid="true"
     inkscape:zoom="1.0159046"
     inkscape:cx="811.09978"
     inkscape:cy="2308.2876"
     inkscape:window-width="1366"
     inkscape:window-height="746"
     inkscape:window-x="1360"
     inkscape:window-y="0"
     inkscape:window-maximized="1"
     inkscape:current-layer="layer1"
     inkscape:lockguides="true"
     showguides="true"><sodipodi:guide
       position="3265.6758,-22192.731"
       orientation="0,-1"
       id="guide3409"
       inkscape:locked="true" /></sodipodi:namedview><defs
     id="defs9"><rect
       x="587.26367"
       y="362.45731"
       width="66.575974"
       height="20.973427"
       id="rect1884" /></defs><g
     inkscape:label="Layer 1"
     inkscape:groupmode="layer"
     id="layer1"
     transform="translate(124.5658,-436.41736)"><g
       id="g730"
       transform="translate(16.905052,-167.12327)"><path
         style="fill:none;stroke:#ffccaa;stroke-width:0.3"
         d="m -28.140757,604.51059 c 3.11917,3.51568 0.241846,13.89585 1.792694,17.1344 0.417139,0.87109 4.194764,-9.22675 5.82648,-8.06325 3.229512,2.30283 2.403329,9.13602 2.941217,12.22087"
         id="path584" /><path
         style="fill:none;stroke:#ffccaa;stroke-width:0.3"
         d="m -11.053633,617.78975 c 1.6635347,1.98397 2.9307807,2.86302 5.3502341,1.76383 3.5039067,-1.59188 1.3188624,-7.13446 -1.9328342,-5.08992 -1.3457009,0.84612 -2.3060755,2.18952 -3.4173999,3.32609 -1.139617,1.16551 -2.558272,2.1441 -3.333404,3.57808 -0.30898,0.5716 -0.04209,1.40787 0.364147,1.915 2.761041,3.44674 9.7277576,1.53842 13.30557796,0.78113"
         id="path586" /><path
         style="fill:none;stroke:#ffccaa;stroke-width:0.3"
         d="m 6.229586,612.87621 c 0.5021964,-5.89039 -0.051111,-0.71006 0,0 0.1155065,1.60469 0.742755,3.13861 0.9243878,4.73716 0.1480211,1.30273 0.094568,6.19199 0.1400127,7.78608 0.014401,0.50513 -0.2971019,1.21534 0.1120989,1.51184 0.3209251,0.23254 0.5975649,-0.52075 0.8963472,-0.78113"
         id="path588" /><path
         style="fill:none;stroke:#ffccaa;stroke-width:0.3"
         d="m 12.336091,610.60842 c 0.0093,5.42564 -1.810091,14.10037 0.756334,19.15021"
         id="path590" /><path
         style="fill:none;stroke:#ffccaa;stroke-width:0.3"
         d="m 28.274758,623.96318 c -0.58824,-1.32708 -1.487639,-2.55632 -1.764718,-3.98123 -0.233151,-1.199 0.05584,-2.45296 0.280088,-3.65365 1.96447,-10.51846 9.644679,4.89956 4.958109,7.60967 -3.084833,1.78387 -8.908595,-2.38087 -6.610792,-5.71985"
         id="path592" /><path
         style="fill:none;stroke:#ffccaa;stroke-width:0.3"
         d="m 61.216552,613.45575 c 2.331574,9.08901 -1.778749,-7.06067 1.344554,5.82066 0.211728,0.87323 0.45547,1.73924 0.728292,2.59535 0.160391,0.50331 0.45266,1.74754 0.812353,1.36068 0.666131,-0.71644 2.754207,-6.4393 3.781547,-5.34191 1.189527,1.27065 1.457806,4.95163 3.305429,5.36712 0.97923,0.22021 1.037738,-1.77768 1.176435,-2.77174 0.20923,-1.49959 0.04767,-8.89811 0.756335,-9.92788 0.202864,-0.29479 0.354799,0.62155 0.532199,0.93233"
         id="path594" /><path
         style="fill:none;stroke:#ffccaa;stroke-width:0.3"
         d="m 80.796689,620.10794 c -0.791138,0.45425 -3.021994,2.82521 -3.837564,0.52915 -0.367091,-1.03346 -0.492675,-2.19462 -0.308131,-3.27571 0.210158,-1.23111 0.799343,-2.39005 1.456589,-3.45205 2.917569,-4.71429 8.379614,2.45237 5.686404,5.08992 -0.761077,0.74535 -1.998199,0.73913 -2.997298,1.10869 z"
         id="path596" /><path
         style="fill:none;stroke:#ffccaa;stroke-width:0.3"
         d="m 84.578299,611.61632 c 1.951485,2.63736 4.208653,5.07389 5.854457,7.91208 0.929793,1.60343 -1.630151,4.59361 -2.156907,-0.22677 -0.07486,-0.6851 0.744413,-13.03389 4.005683,-11.28856 0.520536,0.27857 0.690949,0.95751 1.036423,1.43627 5.1164,2.18226 4.524874,3.77345 5.238199,8.26481"
         id="path598" /><path
         style="fill:none;stroke:#ffccaa;stroke-width:0.3"
         d="m 102.42176,603.6035 c 0.70962,1.53705 1.60299,3.00195 2.12886,4.61116 0.52704,1.61275 0.76611,3.30986 1.00845,4.98914 0.26262,1.81987 0.48432,3.65446 0.50422,5.49308 0.10735,9.91832 -11.674214,-7.77937 -2.54909,-6.24903"
         id="path600" /></g><path
       style="fill:none;stroke:#ffccaa;stroke-width:0.3"
       d="m -11.44691,477.10845 c -1.961384,2.53443 -2.928492,5.47471 -1.610653,8.5672 0.04139,0.0971 1.252513,1.98452 0.630247,1.20949"
       id="path734" /><path
       style="fill:none;stroke:#ffccaa;stroke-width:0.3"
       d="m -14.836301,484.93231 c 1.232515,-0.49906 2.890499,-0.87937 4.033658,0.0756"
       id="path736" /><path
       style="fill:none;stroke:#ffccaa;stroke-width:0.3"
       d="m -8.7577729,485.77643 c 0.4490225,-1.83846 0.4061764,-1.09239 0.4061764,-2.20479 -0.5382614,-1.74648 -0.8054484,-2.62396 -0.2100824,-4.15761"
       id="path738" /><path
       style="fill:none;stroke:#ffccaa;stroke-width:0.3"
       d="m -5.0602212,482.85351 c 3.3638617,6.61317 -0.085164,0.70436 0,0 0.1013106,-0.83789 0.8590233,-1.45306 1.2885351,-2.17959"
       id="path740" /><path
       style="fill:none;stroke:#ffccaa;stroke-width:0.3"
       d="m -1.3627011,479.91799 c 1.19092075,1.57067 -1.8685629,1.21696 -2.0728469,2.20479 -0.070538,0.34109 1.1166364,-0.19774 2.3949964,0.36537 1.01783247,0.44835 1.56894684,0.98221 1.62467312,2.0914 0.0168831,0.33604 -0.68767827,2.80133 -1.49861744,2.05361 -0.87172138,-0.80376 -0.53834608,-2.28204 -0.53223188,-3.2127"
       id="path742" /><path
       style="fill:none;stroke:#ffccaa;stroke-width:0.3"
       d="m 0.570133,480.43454 c 3.2941736,-3.78994 2.6452642,5.77617 2.2969495,6.86635 -0.1338281,0.41887 -0.5135488,0.71394 -0.7703233,1.0709"
       id="path744" /><path
       style="fill:none;stroke:#ffccaa;stroke-width:0.3"
       d="M 0.85022171,484.81893 C 2.4227878,482.91402 4.6308286,483.01831 6.886752,483.34487"
       id="path746" /><path
       style="fill:none;stroke:#ffccaa;stroke-width:0.3"
       d="m 19.87018,480.38415 c 0.494876,0.53755 1.038995,1.03362 1.48463,1.61264 0.530211,0.68893 1.580504,2.53091 2.030849,3.36388 0.160702,0.29725 0.604967,1.10258 0.294108,0.97012 -0.487942,-0.20793 -1.017103,-1.46088 -1.092441,-1.66305 -1.428644,-3.83391 2.959386,-1.31729 3.921622,-2.38117 0.293148,-0.32412 0.16995,-1.76734 -0.546219,-1.43627 -3.387428,1.56591 1.396712,6.51579 2.89922,3.1371"
       id="path748" /><path
       style="fill:none;stroke:#ffccaa;stroke-width:0.3"
       d="m 33.66593,479.56522 c -2.362052,2.72825 -2.677057,6.79177 1.638694,4.01903 1.127423,-1.7277 0.959965,-3.16983 1.106461,-5.08993 0.376458,-3.29865 2.508943,5.50229 3.011255,4.59857 0.453005,-0.815 -0.487574,-2.38023 0.112068,-3.2001 0.162124,-0.22166 4.792512,1.27139 3.403411,-1.57485 -1.02664,-2.10357 -4.405359,0.23972 -2.815194,2.041 1.585096,1.79555 6.272693,1.25511 7.465142,-0.64253"
       id="path750" /><path
       style="fill:none;stroke:#ffccaa;stroke-width:0.3"
       d="m 57.2658,471.09882 c 1.284026,2.33149 0.584515,0.70078 1.246505,4.33399 0.18955,1.04032 0.407853,2.0752 0.616257,3.11191 0.179102,0.89092 0.360818,1.78133 0.546253,2.67095 0.458981,2.20195 0.246439,1.4806 0.546222,-0.27718 0.118383,-0.69414 1.033463,-5.87599 2.338978,-5.80805 1.457544,0.0759 2.434015,6.62788 2.759143,6.80336 0.193808,0.1046 0.177401,-0.40316 0.2661,-0.60474"
       id="path752" /><path
       style="fill:none;stroke:#ffccaa;stroke-width:0.3"
       d="m 35.373432,496.53334 c 0.03646,2.88231 1.067398,5.58954 1.484627,8.41601 0.07422,0.50279 0.373399,1.15164 0.02798,1.52445 -0.119366,0.12884 -0.486097,-0.34786 -0.560175,-1.72603 -0.07394,-1.37556 0.0078,-2.75529 0.04196,-4.13241 0.01252,-0.50486 0.07366,-1.00744 0.09805,-1.51186 0.0037,-0.0756 0.02894,-0.28918 -0.014,-0.22678 -0.09812,0.1426 -0.112035,0.32757 -0.168055,0.49135"
       id="path936" /><path
       style="fill:none;stroke:#ffccaa;stroke-width:0.3"
       d="m 29.252873,515.33077 c -5.444765,7.55843 -13.172027,14.12887 -18.613781,21.14081"
       id="path938" /><path
       style="fill:none;stroke:#ffccaa;stroke-width:0.3"
       d="m 1.8574369,546.13487 c -1.68363405,1.02297 -4.559221,3.2715 -4.201742,5.59388 0.554064,3.59949 7.771127,0.79818 7.829256,-2.54496 0.01421,-0.81746 -1.212771,-3.37872 -2.086867,-3.51508 -0.53013,-0.0827 -1.004157,0.47361 -1.540647,0.46616 -0.716545,-0.01 -1.37792405,-0.62114 -2.08686705,-0.51655 -1.45426395,0.21453 -3.75723395,3.60975 -3.79559895,5.05211 -0.130249,4.89687 6.705791,4.28062 8.781685,1.1591 1.280874,-1.92605 1.382895,-4.76658 -0.434184,-6.41279 -1.45696,-1.31996 -3.305098,-1.0338 -4.88803905,-0.15119 -0.223735,0.12475 -0.75634895,0.67842 -0.53223295,0.55435 0.27018695,-0.14957 0.49487595,-0.36957 0.74231495,-0.55435"
       id="path940" /><path
       style="fill:none;stroke:#ffccaa;stroke-width:0.3"
       d="m 4.0563409,540.21342 c -1.511035,4.23021 -2.769111,8.54606 -4.21576505,12.8004 -0.724299,2.13002 -1.66625295,4.20146 -2.14288395,6.4002 -0.01701,0.0784 0.182028,0.15656 0.224102,0.0882 0.428792,-0.69677 0.718968,-1.46986 1.07845195,-2.20479"
       id="path942" /><path
       style="fill:none;stroke:#ffccaa;stroke-width:0.3"
       d="m -19.313386,565.93488 c 0.686286,1.39848 1.452012,2.76069 2.058857,4.19542 0.70648,1.67029 0.93463,3.22642 0.294111,5.02693 -0.538734,1.51438 -2.549165,1.09824 -3.277356,0.16377 -1.947783,-2.49954 1.727475,-6.92752 3.543456,-4.11981"
       id="path944" /><path
       style="fill:none;stroke:#ffccaa;stroke-width:0.3"
       d="m -14.943589,571.36498 c 0.643681,0.42889 1.105995,0.90443 1.890805,0.9701 2.849052,0.23841 3.8117939,-2.21543 1.344552,-2.39377 -1.842117,-0.13315 -4.283697,3.42199 -2.408984,4.68677 2.068296,1.39538 6.2142529,-0.65472 7.1569789,-2.62057"
       id="path946" /><path
       style="fill:none;stroke:#ffccaa;stroke-width:0.3"
       d="m -3.7388981,563.67971 c 0.3409,0.60208 -3.103935,7.20115 -1.666703,4.66155"
       id="path948" /><path
       style="fill:none;stroke:#ffccaa;stroke-width:0.3"
       d="m 3.6281949,563.78049 c -0.379124,2.25225 0.754864,4.30166 1.750729,6.24902"
       id="path950" /><path
       style="fill:none;stroke:#ffccaa;stroke-width:0.3"
       d="m 14.158797,566.05458 c -0.09804,0.70973 -0.193104,1.41988 -0.294109,2.1292 -0.319677,2.245 -0.66236,4.17052 -1.274545,6.31201 -0.07411,0.25924 -0.315227,0.53284 -0.210082,0.78112 0.115377,0.27244 3.47458,-1.23868 3.865605,-1.36068 0.516567,-0.16116 1.418092,-0.3711 2.030849,-0.40315 0.615331,-0.0322 0.556776,0.3925 0.504222,-0.15119"
       id="path952" /><path
       style="fill:none;stroke:#ffccaa;stroke-width:0.3"
       d="m 23.444674,572.54298 c -3.734858,0.97862 -3.465552,-6.25131 -0.448172,-6.43801 1.898417,-0.11746 3.46761,2.50357 3.347392,4.14501 -0.08266,1.12869 -0.406223,2.27526 -0.980406,3.25049 -1.223846,2.07867 -2.961177,-3.02344 -2.969257,-3.07411 -0.05469,-0.34295 0.382841,-0.57953 0.574262,-0.8693"
       id="path954" /><path
       style="fill:none;stroke:#ffccaa;stroke-width:0.3"
       d="m 27.674459,566.30656 c 1.686232,1.46265 1.439887,0.86043 2.128864,2.62055 1.838833,4.69765 -2.005481,1.70863 -0.714274,-1.51186 0.694814,-1.73298 3.405351,-3.42116 3.97764,-0.74333"
       id="path956" /><path
       style="fill:none;stroke:#ffccaa;stroke-width:0.3"
       d="m 33.89303,562.18674 c 0.228526,0.3002 1.330497,6.53336 1.638694,6.65218 0.10754,0.0415 0.182565,-0.85332 0.364146,-1.82683 0.142965,-0.76648 0.270619,-1.53719 0.462196,-2.29298 1.195093,-4.71482 1.655008,0.70048 2.381006,1.78903 0.03202,0.048 0.04622,-0.10693 0.05602,-0.16379 0.08371,-0.48568 0.07856,-0.99059 0.224102,-1.46146 0.38885,-1.258 0.881195,-2.48244 1.372563,-3.70405 0.186436,-0.46351 0.298643,-0.96192 0.616259,-0.60474"
       id="path958" /><path
       style="fill:none;stroke:#ffccaa;stroke-width:0.3"
       d="m 48.305069,510.53161 c 1.259004,2.26507 0.400624,1.24055 2.577071,2.89772 1.789311,1.36241 2.446446,1.79901 4.075687,3.37649 1.880875,1.82112 3.514277,3.86138 5.46227,5.61906 0.892651,0.80545 1.820888,1.57055 2.731198,2.35598 0.662803,0.57188 1.381093,1.31077 1.470573,1.18429 0.15181,-0.21457 0.0585,-0.60368 0.042,-0.80632"
       id="path960" /><path
       style="fill:none;stroke:#ffccaa;stroke-width:0.3"
       d="m 70.980548,529.76999 c -0.44167,1.27257 1.1133,6.53879 0.70026,7.25693 -0.28613,0.49748 -0.44731,-1.07816 -0.49017,-1.65045 -0.35013,-1.38059 0.19864,-2.74782 0.12602,-4.11981 -0.1338,-2.52803 -0.59455,-1.43172 -2.71715,-0.22678 -0.18265,0.10369 -0.389,0.20231 -0.50416,0.37796 -0.18381,0.28039 0.65949,0.1356 0.9944,0.15119"
       id="path962" /><path
       style="fill:none;stroke:#ffccaa;stroke-width:0.3"
       d="m 68.249418,537.1403 c 0.94306,0.10499 1.88059,0.3388 2.82918,0.31497 0.46069,-0.0116 5.54835,-1.51407 5.3922,-0.063"
       id="path964" /><path
       style="fill:none;stroke:#ffccaa;stroke-width:0.3"
       d="m 71.246648,544.93896 c 0.40863,2.2054 0.42131,2.11072 0.7283,4.63637 0.2626,2.16043 0.3246,2.80182 0.39218,4.82535 0.0102,0.30654 -0.0344,1.22001 0.028,0.91971 0.1906,-0.91735 0.98957,-5.65155 2.87121,-4.56077 1.78047,1.03213 2.26222,3.97045 2.59106,5.79545"
       id="path966" /><path
       style="fill:none;stroke:#ffccaa;stroke-width:0.3"
       d="m 5.3167703,467.05579 c -0.4951836,0.1069 -1.5924556,-0.17447 -1.4855508,0.32071 0.1069023,0.49519 0.980657,-0.27928 1.4855508,-0.32071 13.4565017,-1.104 -1.3399638,0.47509 7.1107857,-0.44544 0.851953,-0.0928 1.703284,-0.19124 2.555126,-0.28507 1.360498,-0.14986 2.284,-0.23128 1.960922,-0.24944 -1.958861,-0.11013 -5.968254,-0.0219 -8.1605751,0.24944 -1.1718608,0.14503 -4.5252216,1.25289 -3.4662586,0.73051 3.7273626,-1.83869 4.6875617,-1.7234 8.0813567,-1.56793 0.529338,0.0243 1.956067,0.15917 2.574951,0.24944 0.133916,0.0195 0.524306,0.0457 0.396105,0.0891 -2.541632,0.8595 -5.54759,1.30392 -8.1605751,1.44321 -0.9652053,0.0514 -3.8522434,-0.10477 -2.8918376,-0.21381 2.3106856,-0.26234 4.6479221,-0.17093 6.9721257,-0.24944 1.016629,-0.0343 2.033172,-0.0785 3.050325,-0.0891 0.120169,-0.001 0.453327,-0.0178 0.356539,0.0534 -1.071602,0.78869 -4.894609,0.95046 -5.8827691,0.90869 -1.5117365,-0.0639 -5.8644128,0.0225 -4.4962206,-0.62361 1.8332238,-0.86574 4.0562873,-0.0176 6.0808207,-0.12472 0.673505,-0.0356 1.332598,-0.20943 2.000536,-0.30289 0.726056,-0.1016 2.308005,-0.29767 2.337244,-0.24945 0.120907,0.19942 -0.435761,0.1663 -0.653642,0.24945"
       id="path1247" /><path
       style="fill:none;stroke:#ffccaa;stroke-width:0.3"
       d="m 24.056231,606.98096 c 0.02911,0.23471 0.45465,-2.93988 1.564775,-2.93988 0.867839,0 0.648187,1.6629 0.614029,2.53007 -0.115895,2.9422 -1.046194,5.83988 -2.416511,8.42764 -0.876477,1.65518 -1.506577,2.36666 -2.634347,3.63475 -0.199568,0.2244 -0.864339,0.49333 -0.61403,0.65925 0.297786,0.19739 0.651198,-0.29751 0.990352,-0.40981 1.951172,-0.64606 2.577676,-0.78545 4.634925,-1.05123 0.477441,-0.0617 3.059333,0.18068 2.555127,-0.0713"
       id="path1253" /><path
       style="fill:none;stroke:#ffccaa;stroke-width:0.3"
       d="m 37.148836,620.48656 c 1.372944,3.66962 4.971343,5.12646 7.764425,7.42986"
       id="path1255" /><path
       style="fill:none;stroke:#ffccaa;stroke-width:0.3"
       d="m 53.747304,636.45095 c 0.621319,1.80365 2.033868,7.27042 1.14884,9.03344 -0.05722,0.11398 -0.160497,-0.21224 -0.178269,-0.33853 -0.115482,-0.82065 -0.183324,-1.64862 -0.217881,-2.47663 -0.2031,-4.86639 0.456789,-0.63537 -0.75269,-6.21828 z"
       id="path1257" /><path
       style="fill:none;stroke:#ffccaa;stroke-width:0.3"
       d="m 56.30243,652.34409 c 0.699117,0.51188 2.222757,11.06849 2.317462,11.15369 0.149008,0.13404 0.158634,-0.36813 0.237665,-0.55232 0.360875,-0.84106 1.309121,-4.08483 2.51556,-4.06237 2.450272,0.0456 3.177291,2.73736 4.040677,4.24052"
       id="path1261" /><path
       style="fill:none;stroke:#ffccaa;stroke-width:0.3"
       d="m 17.723225,628.58095 c -3.383772,3.3452 -0.997788,0.82551 -4.971637,5.73721 -0.725352,0.89654 -1.463688,1.78283 -2.218414,2.65479 -2.3484474,2.71323 -1.3318257,1.34134 -2.9908849,3.43876 -0.1993026,0.25197 -0.7898156,0.99718 -0.5348102,0.80178 2.7098228,-2.07639 5.4145631,-6.82219 7.4079311,-9.67486 0.50414,-0.72146 0.98742,-1.45807 1.445943,-2.20935 0.08668,-0.14203 0.349818,-0.56604 0.257489,-0.42762 -1.046749,1.56926 1.896378,-3.10851 -1.287499,2.10245 -0.874662,1.43154 -2.075524,3.3723 -3.050326,4.82852 -0.474035,0.70815 -2.6629595,3.83452 -3.3078152,4.95325 -0.1930771,0.33496 0.4618699,-0.62075 0.6734704,-0.94433 1.8383678,-2.81125 3.6367138,-5.6567 5.4271808,-8.4989 0.77016,-1.22256 0.91617,-1.30517 0.356539,-0.80179"
       id="path1265" /><path
       style="fill:none;stroke:#ffccaa;stroke-width:0.3"
       d="m 0.53050811,648.09102 c 0.06341,1.79302 0.3817911,8.29467 -0.57442099,9.74612 -0.34863881,0.5292 -0.22051169,-1.25493 -0.21787908,-1.88865 0.005953,-1.43279 0.075565,-4.17651 0.2971456,-5.66593 0.11020425,-0.74078 0.16608425,-2.8643 0.49515447,-2.19154 0.38835012,0.79395 -0.20551775,1.75606 -0.27727539,2.63697 -0.0405342,0.49764 -0.0363299,0.99792 -0.059436,1.49666 -0.01651,0.35652 -0.0391266,0.71273 -0.0594387,1.06905 -0.006085,0.10693 -0.0296624,0.42737 -0.0197908,0.32071 0.0362823,-0.39169 0.0282549,-0.78899 0.0990044,-1.17595 0.13204825,-0.51076 0.26409914,-1.02153 0.39615003,-1.5323 0.0264054,-0.0594 0.0528135,-0.11878 0.0792189,-0.17817"
       id="path1267" /><path
       style="fill:none;stroke:#ffccaa;stroke-width:0.3"
       d="m 5.8982953,659.10218 c 2.3711853,2.14966 1.912874,2.00146 4.1198987,3.29621 1.037047,0.60839 2.42175,1.33794 3.525694,1.90648 1.182823,0.60916 1.884043,0.91904 1.564773,0.85522 -1.181801,-0.23621 -9.0524147,-5.84104 -9.2103657,-6.05791 -0.6578044,-0.90316 1.8632011,1.24806 2.8720547,1.72829 1.0839662,0.51599 4.293428,0.70661 5.090467,1.78174"
       id="path1269" /><path
       style="fill:none;stroke:#ffccaa;stroke-width:0.3"
       d="m 20.06047,669.16901 c -0.274132,-5.62769 0.476935,3.64649 0.376322,4.52562 -0.06846,0.59821 -0.180718,1.19099 -0.2971,1.78175 -0.08689,0.44106 -0.269672,1.70792 -0.415933,1.28285 -0.503712,-1.4639 -0.102791,-3.85589 0.03961,-5.30958 0.07474,-0.76299 -0.419825,-2.55221 0.297101,-2.28064 0.10223,0.0387 0.07539,3.49488 0.07922,3.9911 0.0028,0.36282 -0.0011,1.44461 0.05944,1.08687 0.31197,-1.844 0.198583,-3.2288 -0.13866,-5.07797 z"
       id="path1271" /><path
       style="fill:none;stroke:#ffccaa;stroke-width:0.3"
       d="m 18.713579,688.73253 c 1.313876,0.59986 2.586776,1.29909 3.941628,1.79956 4.470426,1.65135 1.640316,-4.37372 0.415978,-5.00668 -2.250734,-1.1636 -4.864105,1.14932 -5.981816,2.83296 -0.760498,1.14556 -1.841757,3.56702 -1.525165,5.14923 1.007663,5.03587 8.728866,4.3733 11.785322,1.85302 0.685853,-0.56554 1.029992,-1.44915 1.54499,-2.17373"
       id="path1273" /><path
       style="fill:none;stroke:#ffccaa;stroke-width:0.3"
       d="m -8.2044883,663.16455 c -2.2804777,2.33371 -4.7033387,4.52312 -7.2098327,6.61026 -0.384865,0.32047 -1.429869,1.3716 -1.168624,0.94431 0.583782,-0.95482 4.971211,-6.01337 5.704456,-6.50334 0.796311,-0.53212 3.2044771,-1.84864 2.6740007,-1.05123 -0.9847712,1.48031 -2.8876357,2.09233 -4.1793367,3.31404 -1.104691,1.04484 -1.796979,2.47269 -2.891838,3.52784 -0.143708,0.13849 0.225134,-0.33081 0.356494,-0.48107 0.947812,-1.08416 1.940163,-2.07596 3.030543,-3.01114"
       id="path1275" /><path
       style="fill:none;stroke:#ffccaa;stroke-width:0.3"
       d="m -30.745165,674.79932 c -0.514982,0.16629 -1.085972,0.21217 -1.544944,0.49889 -1.684692,1.05238 -2.310059,5.13984 -0.316932,6.21826 1.990855,1.0772 4.492226,-0.0664 6.160043,-1.15812 0.919075,-0.60164 1.943057,-1.38054 1.980753,-2.60135 0.07662,-2.48161 -2.765116,-6.06982 -5.328177,-5.89756 -0.909254,0.0611 -6.556227,2.94821 -3.981241,2.7439"
       id="path1277" /><path
       style="fill:none;stroke:#ffccaa;stroke-width:0.3"
       d="m -28.249432,669.561 c -1.545908,4.94166 -3.580157,9.7158 -5.209302,14.6281 -0.521518,1.57252 -1.383054,4.4777 -1.14884,4.5078 0.479198,0.0616 0.581015,-0.77208 0.871522,-1.15812"
       id="path1279" /><path
       style="fill:none;stroke:#ffccaa;stroke-width:0.3"
       d="m -52.871618,696.43968 c 0.579467,1.44789 1.855555,4.50476 2.277851,6.05792 0.25061,0.9217 0.49498,1.86081 0.53481,2.81514 0.104235,2.49753 -1.602084,5.96132 -4.456655,3.84857 -4.119742,-3.04913 0.957742,-6.5107 4.258559,-6.39646"
       id="path1281" /><path
       style="fill:none;stroke:#ffccaa;stroke-width:0.3"
       d="m -44.394114,699.50428 c 0.20206,2.54548 0.229581,5.14792 0.732909,7.66149 0.05706,0.28493 0.103989,1.03675 0.297101,0.81958 0.65792,-0.73981 1.016404,-5.69614 2.000533,-6.02226 0.518485,-0.17185 1.31591,3.72758 1.327065,3.72382 0.158686,-0.0535 0.04517,-0.33203 0.05944,-0.49887 0.164049,-1.91807 0.43653,-3.78489 0.851691,-5.66596 0.06216,-0.28163 0.05481,-1.00308 0.27732,-0.81959 0.316016,0.2606 0.244689,0.78192 0.356539,1.17595"
       id="path1283" /><path
       style="fill:none;stroke:#ffccaa;stroke-width:0.3"
       d="m -34.391446,696.8851 c 0.622038,-0.0286 -1.766618,6.02207 -0.792255,4.56125"
       id="path1285" /><path
       style="fill:none;stroke:#ffccaa;stroke-width:0.3"
       d="m -28.548287,694.28378 c -0.0665,2.01772 0.867301,4.55499 2.475904,5.9332"
       id="path1287" /><path
       style="fill:none;stroke:#ffccaa;stroke-width:0.3"
       d="m -21.219578,699.98534 c -0.204676,0.9859 -0.336841,1.98968 -0.614032,2.95771 -0.377613,1.31871 -1.254151,2.53132 -1.307279,3.90202 -0.06465,1.66799 4.818253,-0.74025 4.89237,-1.14033"
       id="path1289" /><path
       style="fill:none;stroke:#ffccaa;stroke-width:0.3"
       d="m -13.910741,705.29496 c -0.567796,-0.34449 -1.452936,-0.41836 -1.703388,-1.03344 -0.563454,-1.3838 1.425017,-4.57673 3.089937,-4.24053 2.414841,0.48763 2.270641,3.66456 0.693251,4.98885 -0.535922,0.44993 -1.38352,0.2155 -2.0798,0.28512 z"
       id="path1291" /><path
       style="fill:none;stroke:#ffccaa;stroke-width:0.3"
       d="m -7.3545037,697.5978 c 1.3058272,3.3561 0.4194413,0.88353 1.3468931,3.93764 0.1884786,0.62069 0.4330171,1.22473 0.5942039,1.85304 0.00429,0.0167 0.2616227,3.08641 -0.6932533,1.40755 -0.3350498,-0.58907 -0.6292241,-1.22227 -0.7526893,-1.88862 -0.1190466,-0.64251 0.100285,-1.30932 0.039611,-1.95993 -0.1049893,-1.12582 -1.1753903,-2.41797 -0.5347652,-3.34968 0.5037984,-0.73271 1.7662313,0.31448 2.6541756,0.26727 1.2802631,-0.0681 1.5889419,-0.81607 2.8324439,-0.21381"
       id="path1293" /><path
       style="fill:none;stroke:#ffccaa;stroke-width:0.3"
       d="m 95.730136,592.97647 c 2.965322,-3.80234 7.488504,-5.01448 11.923984,-6.30737 6.60085,-1.92408 12.69253,-2.62213 19.4903,-2.03118 1.64589,0.14307 3.26428,0.54251 4.91225,0.65923 4.63324,0.32817 9.22065,0.39806 13.84525,0.94433 2.42101,0.28597 4.77866,0.73226 7.15049,1.28285 0.65927,0.15305 3.29332,1.24677 3.9614,0.96214 0.65188,-0.27772 -0.10644,-1.44724 -0.41598,-2.08463 -0.82079,-1.69014 -1.39054,-2.42101 -2.67401,-3.79511 -0.17309,-0.18532 -3.38286,-2.47606 -1.44584,-2.45881 10.20365,0.0909 2.45406,8.76873 -1.03005,12.1693 -0.29806,0.29091 -2.73712,2.90953 -3.74354,3.13586"
       id="path1295" /><path
       style="fill:none;stroke:#ffccaa;stroke-width:0.3"
       d="m 102.56365,573.28822 c 0.51498,0.26726 1.0072,0.58392 1.54494,0.80179 2.10178,0.85151 5.29376,0.4144 3.60496,-2.54789 -0.10437,-0.18307 -0.83632,-1.2267 -1.24788,-1.0156 -1.25896,0.64576 -9.518785,5.41103 -6.45715,8.10693 2.79558,2.46162 7.24161,0.8854 10.22055,0.0534 1.22204,-0.34129 0.94357,-0.34395 0.45554,-0.49888"
       id="path1297" /><path
       style="fill:none;stroke:#ffccaa;stroke-width:0.3"
       d="m 117.32003,571.68466 c 0.5626,0.51821 7.04727,-1.64317 3.70396,-0.24945"
       id="path1299" /><path
       style="fill:none;stroke:#ffccaa;stroke-width:0.3"
       d="m 116.36928,575.53322 c -2.92532,0.56426 8.21984,-1.56094 6.65529,-0.99777"
       id="path1301" /><path
       style="fill:none;stroke:#ffccaa;stroke-width:0.3"
       d="m 135.16643,563.29266 c 1.00447,2.70706 0.79259,5.52296 0.65364,8.33854 -0.0527,1.06905 -0.14137,2.13692 -0.15853,3.20714 -0.003,0.16952 -0.048,0.58311 0.0991,0.49888 0.23739,-0.13588 0.22445,-0.49888 0.33667,-0.74833"
       id="path1303" /><path
       style="fill:none;stroke:#ffccaa;stroke-width:0.3"
       d="m 139.90036,562.20579 c 0.099,-0.52858 0.8257,-1.48672 0.29711,-1.58575 -0.52859,-0.099 -0.36668,1.05249 -0.29711,1.58575 0.25168,1.92916 0.96492,3.77674 1.24784,5.70157 0.36063,2.4536 0.18809,5.16328 0.25744,7.66149"
       id="path1305" /><path
       style="fill:none;stroke:#ffccaa;stroke-width:0.3"
       d="m 148.27883,562.8294 c -0.79232,1.38976 -1.72691,2.70754 -2.37691,4.16928 -0.82611,1.85777 -1.00783,3.22268 1.48558,3.88419 0.75194,0.19949 1.56623,-0.14467 2.29761,-0.4098 3.14667,-1.14067 5.92117,-3.51989 6.2393,-7.09134 0.0749,-0.84123 0.0525,-1.86965 -0.53477,-2.47661 -1.67413,-1.73025 -5.86095,0.89723 -7.11081,1.92428 -1.25789,1.03362 -4.37333,4.78601 -3.4861,3.42094 0.26376,-0.40581 0.51501,-0.8196 0.77253,-1.2294"
       id="path1307" /><path
       style="fill:none;stroke:#ffccaa;stroke-width:0.3"
       d="m 151.60647,555.73807 c 0.099,0.78397 0.37766,1.56582 0.2971,2.3519 -0.17995,1.75548 -0.76904,3.44597 -1.06964,5.18487 -0.41933,2.426 -0.8052,4.85962 -1.08939,7.30514 -0.48792,4.19866 -0.48051,8.20007 -0.71308,12.3831"
       id="path1309" /><path
       style="fill:none;stroke:#ffccaa;stroke-width:0.3"
       d="m 85.277321,674.48695 c 1.307283,-0.90868 2.578518,-1.87156 3.921845,-2.72605 4.432982,-2.81984 9.968658,-3.63238 15.013874,-4.61472 6.56073,-1.27741 12.83831,-1.96784 19.52991,-1.44321 0.56659,0.0444 8.05141,0.62002 8.06158,0.58798 0.0376,-0.11856 -5.4656,-7.66657 -1.10919,-4.57907 4.7126,3.33992 -0.32767,7.61789 -3.32764,9.87084 -3.63717,2.73148 -2.97485,3.9166 -3.72375,2.28063"
       id="path1311" /><path
       style="fill:none;stroke:#ffccaa;stroke-width:0.3"
       d="m 86.426071,646.26418 c 0.235153,1.72254 -1.980907,9.64759 -0.475327,10.40537 0.347996,0.17515 0.787927,0.10056 1.168625,0.0178 1.635995,-0.35558 3.110648,-1.34101 4.75371,-1.71049 0.358088,-0.0805 -0.580308,0.47956 -0.93096,0.58798"
       id="path1313" /><path
       style="fill:none;stroke:#ffccaa;stroke-width:0.3"
       d="m 98.567932,648.42009 c 0.972315,0.1975 8.499798,-3.38938 3.525738,-0.48107"
       id="path1315" /><path
       style="fill:none;stroke:#ffccaa;stroke-width:0.3"
       d="m 98.825467,651.64504 c 1.836823,-0.42438 3.643903,-0.6393 5.506443,-0.51671"
       id="path1317" /><path
       style="fill:none;stroke:#ffccaa;stroke-width:0.3"
       d="m 113.99778,644.28644 c 1.38445,2.4149 -0.90325,6.03464 0.63386,8.33855"
       id="path1319" /><path
       style="fill:none;stroke:#ffccaa;stroke-width:0.3"
       d="m 118.55348,642.96795 c 0.53458,3.0339 0.55167,5.94687 0.0397,8.94435"
       id="path1321" /><path
       style="fill:none;stroke:#ffccaa;stroke-width:0.3"
       d="m 123.42607,643.03923 c -0.35347,2.32274 -1.79935,9.47135 1.46573,10.17374"
       id="path1323" /><path
       style="fill:none;stroke:#ffccaa;stroke-width:0.3"
       d="m 129.34841,642.64724 c -1.49517,3.34078 -1.78943,7.00228 -2.39669,10.56573"
       id="path1325" /><path
       style="fill:none;stroke:#ffccaa;stroke-width:0.3"
       d="m 139.29168,644.21517 c -3.29375,-1.31319 -8.36068,10.6774 -3.94163,10.76172 1.85714,0.0354 9.91962,-1.41878 8.31902,-5.48776 -1.27627,-3.24443 -1.20457,-0.56373 -3.36722,-3.01115 -0.54695,-0.61899 -0.22566,-2.00429 -1.01017,-2.26281 -0.12132,-0.04 -5.05569,2.23181 -2.31746,-0.33852"
       id="path1327" /><path
       style="fill:none;stroke:#ffccaa;stroke-width:0.3"
       d="m 139.7671,640.82986 c -1.37066,5.26456 -3.13695,10.4157 -4.53592,15.67933 -1.0104,3.80157 -1.94673,2.95398 -0.39611,3.97328"
       id="path1329" /><path
       style="fill:none;stroke:#ffccaa;stroke-width:0.3"
       d="m 34.382617,722.4843 c 0.07924,-0.50485 -0.0172,-1.07161 0.23771,-1.5145 1.058013,-1.83825 3.718287,-1.83946 3.505866,0.76615 -0.284993,3.49586 -1.94455,6.81294 -3.525694,9.87084 -0.452742,0.87561 -1.174009,1.64341 -1.406332,2.60136 -0.125212,0.51628 1.064554,-0.0376 2.674003,-0.10689 2.302772,-0.0991 4.422741,-0.0507 5.981817,1.74609"
       id="path1331" /><path
       style="fill:none;stroke:#ffccaa;stroke-width:0.3"
       d="m 50.723643,737.9498 c 0.541388,0.73645 1.018096,1.52514 1.624166,2.20936 1.418786,1.6017 3.624781,3.39751 5.328132,4.6147 1.968658,1.40679 6.047991,2.97794 7.051389,5.52341 0.103301,0.26205 -0.237691,0.51076 -0.356539,0.76616"
       id="path1333" /><path
       style="fill:none;stroke:#ffccaa;stroke-width:0.3"
       d="m 27.192568,744.61352 c -1.65644,4.90964 -7.117964,9.05007 -9.071708,13.54124"
       id="path1335" /><path
       style="fill:none;stroke:#ffccaa;stroke-width:0.3"
       d="m 73.006783,754.25274 c -0.416174,1.69013 -1.368076,3.40633 -1.426158,5.18486 -0.01482,0.45354 0.344149,-0.84297 0.455634,-1.28284 0.188619,-0.74424 0.329666,-1.49992 0.51498,-2.24499 0.138266,-0.55591 0.965337,-1.39578 0.455544,-1.65703 -2.371485,-1.21531 -6.395522,1.06596 -4.595268,1.38975"
       id="path1337" /><path
       style="fill:none;stroke:#ffccaa;stroke-width:0.3"
       d="m 67.163671,761.98548 c 3.426733,0.22921 6.893764,-1.05 10.279941,-0.30287"
       id="path1339" /><path
       style="fill:none;stroke:#ffccaa;stroke-width:0.3"
       d="m 75.205369,770.39529 c 1.896129,1.55472 0.02956,4.96998 0.396195,6.1114 0.164262,0.51138 0.238938,-0.39307 1.109184,-0.69488 0.816779,-0.28329 1.294434,-0.16764 1.941142,0.42762 1.244799,1.14575 1.481273,2.7813 0.495107,4.08017"
       id="path1341" /><path
       style="fill:none;stroke:#ffccaa;stroke-width:0.3"
       d="m 32.461305,720.29276 c 4.449236,-1.98684 7.249324,3.06109 5.466792,7.02005 -1.167622,2.59324 -3.309236,4.26689 -5.526185,5.86193 -0.236644,0.17026 0.480967,-0.33973 0.752644,-0.44546 1.602211,-0.62351 2.513309,-0.89003 4.258559,-0.6414 2.707322,0.38569 6.393815,2.93979 6.259136,6.05793 -0.114837,2.65874 -2.584143,5.3513 -5.328176,5.50558 -1.972702,0.11089 -3.133079,-1.15409 -4.238776,-2.36974 -0.750051,-0.82463 -1.102913,-1.38226 -1.069573,-1.38975 0.775603,-0.17441 1.669304,-0.2018 2.456077,-0.3029"
       id="path1343" /><path
       style="fill:none;stroke:#ffccaa;stroke-width:0.3"
       d="m 9.4958375,769.99053 c -0.5297646,4.40782 -0.1434385,0.86233 -0.5149823,5.27394 -0.058081,0.68966 -0.1308577,1.378 -0.1980962,2.06682 -0.7311443,7.49022 1.515327,-6.26631 0.7130785,-7.34076 -0.5397526,-0.7229 -5.1970436,0.68921 -5.2687378,1.97773"
       id="path1345" /><path
       style="fill:none;stroke:#ffccaa;stroke-width:0.3"
       d="m 3.2565287,779.95045 c 0.7790973,0.23757 1.5227829,0.7103 2.3372921,0.71271 1.2626684,0.004 2.4770529,-0.49461 3.7237484,-0.69488 2.0815508,-0.33438 4.1655308,-0.66034 6.2590888,-0.90868 0.771668,-0.0916 0.732721,-0.0773 1.129059,0.16034"
       id="path1347" /><path
       style="fill:none;stroke:#ffccaa;stroke-width:0.3"
       d="m 21.680635,788.83661 c 2.924866,3.38675 7.225631,4.94441 10.616608,7.82185 0.517702,0.43932 1.006223,0.83474 1.564817,1.21158 0.636627,0.4295 -0.02606,0.18185 -0.613984,0.37418"
       id="path1349" /><path
       style="fill:none;stroke:#ffccaa;stroke-width:0.3"
       d="m 40.398469,802.05716 c 0.132035,0.61764 0.302686,1.2283 0.396108,1.85298 0.104987,0.70202 0.140142,1.41282 0.198096,2.12029 0.596022,7.27586 0.698672,-3.57915 -0.594204,-3.97327 -1.040617,-0.31724 -3.224381,1.5295 -2.911662,1.85298 0.257204,0.26606 0.726265,0.14253 1.0894,0.21381"
       id="path1351" /><path
       style="fill:none;stroke:#ffccaa;stroke-width:0.3"
       d="m 35.228781,810.8233 c 0.626898,0.11306 9.866654,-2.05345 8.774562,-0.26725"
       id="path1353" /><path
       style="fill:none;stroke:#ffccaa;stroke-width:0.3"
       d="m 42.795155,819.3222 c 1.768229,0.36009 3.105907,0.4971 4.496266,-0.65924 0.472638,-0.39309 0.212624,-0.9552 -0.198099,-1.28283 -1.956702,-1.56094 -7.074347,-0.58481 -6.97217,2.51224 0.04734,1.43497 0.379751,2.89716 1.010181,4.18709 1.454344,2.97574 7.318555,2.36479 8.695341,-0.26726"
       id="path1355" /><path
       style="fill:none;stroke:#ffccaa;stroke-width:0.3"
       d="m 4.8266085,790.50561 c -4.95947694,3.49932 -8.9613792,8.38459 -12.9737722,12.93542 -0.82033,0.93044 -1.8352531,2.17789 -2.6937833,3.11806 -0.307187,0.33639 -1.259774,1.31411 -0.970571,0.96213 2.9897542,-3.63868 7.2094773,-6.45535 9.2499783,-10.81516"
       id="path1357" /><path
       style="fill:none;stroke:#ffccaa;stroke-width:0.3"
       d="m -8.662146,814.47003 c 1.8077021,1.30635 3.5170559,2.71746 5.3479593,3.99111 0.6797914,0.47289 1.8157958,1.20581 2.4362516,1.76392 0.77892539,0.70067 1.07007288,1.31577 1.9411394,1.90646 1.5995412,1.08468 3.4121196,1.46894 4.9122435,2.70824 0.2029698,0.16767 4.4242962,3.02176 3.3474263,2.77953"
       id="path1359" /><path
       style="fill:none;stroke:#ffccaa;stroke-width:0.3"
       d="m 5.7179104,773.18707 c -1.4205956,0.54745 3.412781,-6.96082 4.0407245,-5.07794 0.9768201,2.92896 -0.6775688,9.7178 -2.2184598,12.49 -0.5435758,0.97793 -1.2043568,1.88899 -1.8817007,2.7795 -0.2708461,0.3561 -1.3980345,1.10786 -1.0894034,0.78399 1.7786853,-1.86661 6.005991,-1.79166 8.299236,-1.53231 1.025832,0.11602 3.067566,0.61711 2.832444,0.99777 -0.491107,0.7951 -9.6820623,0.17965 -10.2997242,-0.44543 -1.4774756,-1.49521 3.6818914,-5.95574 4.5358314,-6.87752 0.5161708,-0.55719 1.1527658,-1.02439 1.5449448,-1.67484 3.027203,-5.02073 -12.40423043,2.27076 -2.3768106,-3.84855 2.4045806,-1.46743 1.8488846,1.45931 1.5449466,2.93986 -0.645048,3.1422 -2.9837587,5.77604 -4.3180419,8.62365 -0.6918245,1.47645 0.083677,0.93459 1.3469382,0.55232 0.9439725,-0.28565 1.8703819,-0.63815 2.8324437,-0.85524 1.01681,-0.22942 2.048889,-0.42765 3.089889,-0.48107 0.03309,-0.003 4.822814,0.0196 2.35712,1.22941"
       id="path1361" /><path
       style="fill:none;stroke:#ffccaa;stroke-width:0.3"
       d="m -20.031532,809.24954 c 0.04216,0.25783 0.975812,5.7232 1.168622,7.41203 0.173524,1.51993 0.07426,1.89505 0.03961,1.87082 -0.554691,-0.38807 -0.970077,-7.9696 -1.208233,-9.28285 z"
       id="path1363" /><path
       style="fill:none;stroke:#ffccaa;stroke-width:0.3"
       d="m 19.06805,831.12931 c -0.650666,3.57875 -0.534856,2.02004 -0.534856,5.57686 0,0.29959 -0.03392,1.14855 0.118878,0.89088 0.682815,-1.15158 1.718876,-5.55234 0.415978,-6.46774 -0.903026,-0.63447 -4.204507,1.28045 -2.674001,1.21158"
       id="path1365" /><path
       style="fill:none;stroke:#ffccaa;stroke-width:0.3"
       d="m 14.373685,839.53911 c 3.655425,1.2382 7.541355,-1.60001 11.191118,-0.42762"
       id="path1367" /><path
       style="fill:none;stroke:#ffccaa;stroke-width:0.3"
       d="m 21.524081,847.96676 c -0.2971,0.70082 -0.645178,1.38215 -0.891304,2.10245 -0.250296,0.73253 -0.400092,1.49564 -0.594201,2.24499 -0.176504,0.68141 -0.825643,1.57824 -0.336759,2.08466 0.716433,0.7421 6.336249,-2.53432 8.160578,-0.8018"
       id="path1369" /><path
       style="fill:none;stroke:#ffccaa;stroke-width:0.3"
       d="m -23.127986,829.94781 c -0.858303,0.5167 -1.8016,0.91318 -2.574909,1.55011 -0.631317,0.51996 -6.320536,6.48404 -6.813729,7.51893 -0.125508,0.26337 0.471685,-0.39735 0.554593,-0.67707"
       id="path1371" /><path
       style="fill:none;stroke:#ffccaa;stroke-width:0.3"
       d="m -41.192225,846.25072 c -1.723948,1.37687 -2.313275,1.46894 -3.18894,3.38532 -2.362671,5.17059 13.326506,0.68537 10.656308,-2.01338 -1.560656,-1.57736 -3.754935,-0.76279 -5.625278,-0.92649 -0.629322,-0.0551 -1.22806,-0.29697 -1.84209,-0.44545 z"
       id="path1373" /><path
       style="fill:none;stroke:#ffccaa;stroke-width:0.3"
       d="m -37.428823,841.45785 c -1.436828,5.7041 -2.531875,11.63137 -2.911665,17.49671"
       id="path1375" /><path
       style="fill:none;stroke:#ffccaa;stroke-width:0.3"
       d="m -62.451969,867.43757 c 2.734165,-0.20825 5.864183,9.25772 2.456077,9.87087 -1.542799,0.27755 -2.978542,-2.10082 -2.911665,-3.1537 0.178194,-2.80541 3.343044,-2.87796 5.248912,-2.95767"
       id="path1377" /><path
       style="fill:none;stroke:#ffccaa;stroke-width:0.3"
       d="m -49.636685,869.09458 c 0.231085,1.10469 0.437949,2.21472 0.693251,3.31407 0.147611,0.6356 0.319405,1.26611 0.514982,1.88864 1.554314,4.94742 2.570681,-2.0797 3.406865,-1.44322 0.522592,0.39778 1.970818,4.44058 2.555126,2.67261 0.17479,-0.52885 1.553867,-5.8805 0.891347,-5.82628"
       id="path1379" /><path
       style="fill:none;stroke:#ffccaa;stroke-width:0.3"
       d="m -36.563911,866.11908 c -0.849405,1.42028 -1.794825,2.98775 -2.099537,4.63253"
       id="path1381" /><path
       style="fill:none;stroke:#ffccaa;stroke-width:0.3"
       d="m -27.472375,867.20593 c 0.79846,1.62161 1.376532,3.26557 1.346938,5.07799"
       id="path1383" /><path
       style="fill:none;stroke:#ffccaa;stroke-width:0.3"
       d="m -19.291927,869.98546 c 0.336727,0.8196 0.698193,1.62949 1.010182,2.4588 0.218879,0.58184 2.206853,5.39813 0.673423,5.91539 -1.61675,0.54536 -1.337382,-4.82261 -0.356539,-6.02228 1.51611,-1.85436 3.929903,-1.44794 5.981774,-1.1403"
       id="path1385" /><path
       style="fill:none;stroke:#ffccaa;stroke-width:0.3"
       d="m -3.6441988,873.29952 c -0.5083863,-0.43357 -0.8571362,-1.31373 -1.5251615,-1.30069 -1.6824378,0.0329 -4.1751752,9.35779 2.7730053,7.14478 0.6433608,-0.20492 1.2417716,-0.56835 1.76282611,-0.99777 0.59630732,-0.49143 1.18315315,-1.0455 1.54494439,-1.72828 2.8242313,-5.33003 -6.4005724,-9.64369 -6.1006486,-5.86195"
       id="path1387" /><path
       style="fill:none;stroke:#ffccaa;stroke-width:0.3"
       d="m 114.66086,744.36936 c -1.28652,3.18085 -2.2308,6.55527 -2.81266,9.94212 -0.11089,0.64548 -0.63933,1.5377 -0.13866,1.95993 0.36153,0.30488 3.62394,-1.63889 5.40744,-2.36974 6.46942,-2.65108 1.32925,2.41527 5.30835,-0.76613"
       id="path1389" /><path
       style="fill:none;stroke:#ffccaa;stroke-width:0.3"
       d="m 130.11049,747.71904 c 0.87982,1.69958 6.17152,0.086 7.30893,1.21158 0.0968,0.0958 -0.2245,0.15441 -0.33676,0.23162"
       id="path1391" /><path
       style="fill:none;stroke:#ffccaa;stroke-width:0.3"
       d="m 133.27969,751.74576 c 2.97873,-0.80954 3.0908,-0.77181 5.46679,-0.58796"
       id="path1393" /><path
       style="fill:none;stroke:#ffccaa;stroke-width:0.3"
       d="m 146.78827,746.0442 c -0.69326,0.78992 -1.5268,1.47598 -2.07978,2.36972 -0.28202,0.45579 -0.36653,1.03203 -0.35656,1.56794 0.0954,5.12088 10.12989,3.81426 8.18037,-0.49889 -0.29033,-0.64233 -0.66284,-1.33059 -1.26762,-1.69268 -1.3742,-0.82266 -2.98427,-1.16406 -4.47641,-1.74609 z"
       id="path1395" /><path
       style="fill:none;stroke:#ffccaa;stroke-width:0.3"
       d="m 148.76897,743.01525 c -0.99118,3.87739 -4.23021,10.78082 -3.76338,14.57463 0.0529,0.43026 0.80549,0.32073 1.20827,0.48106"
       id="path1397" /><path
       style="fill:none;stroke:#ffccaa;stroke-width:0.3"
       d="m 155.16672,747.86157 c -0.67344,1.2591 -1.41411,2.48449 -2.02035,3.7773 -1.95011,4.15862 8.35861,-0.71186 9.21041,-2.86861 0.72032,-1.82385 -1.99142,-3.03038 -3.32764,-2.69042 -1.37409,0.3496 -2.51995,2.23793 -3.86242,1.78173 -0.17057,-0.058 1.9271,-4.17062 2.67391,-4.63251 0.44249,-0.27368 0.26437,1.01304 0.29721,1.53228 0.20074,3.17408 -0.0797,6.34918 -0.29721,9.5145 -0.0478,0.69638 -0.46665,1.44042 -0.19799,2.08465 0.0448,0.1075 0.0924,-0.21381 0.13864,-0.32073"
       id="path1399" /><path
       style="fill:none;stroke:#ffccaa;stroke-width:0.3"
       d="m 165.03068,742.62325 c 0.083,3.60026 -2.16156,9.37059 -0.33665,12.57911"
       id="path1401" /><path
       style="fill:none;stroke:#ffccaa;stroke-width:0.3"
       d="m 186.65733,744.24408 c -0.34841,0.98536 -1.05775,7.67956 0.7725,8.51673 1.28572,0.58809 2.72767,-5.72696 2.49568,-6.85969"
       id="path1403" /><path
       style="fill:none;stroke:#ffccaa;stroke-width:0.3"
       d="m 193.09472,749.05479 c 0.27728,-0.64738 0.55457,-1.29474 0.83188,-1.94209"
       id="path1405" /><path
       style="fill:none;stroke:#ffccaa;stroke-width:0.3"
       d="m 194.97633,743.69174 c 0.55012,-0.66421 -1.49278,-3.08599 -0.17822,-2.44097"
       id="path1407" /><path
       style="fill:none;stroke:#ffccaa;stroke-width:0.3"
       d="m 197.96723,744.56481 c -0.0193,0.0292 -2.28634,2.20089 -1.32707,3.15368 1.4332,1.42353 5.47008,-2.81517 4.13973,-2.81517 -0.56484,0 -0.2444,1.2297 0.0792,1.69267 1.10342,1.57858 2.73664,2.35963 4.3774,3.22495"
       id="path1409" /><path
       style="fill:none;stroke:#ffccaa;stroke-width:0.3"
       d="m 187.44962,757.9635 c -0.94057,2.38119 -0.23767,4.92998 -0.23767,7.42987 0,0.0251 0.0198,1.16535 0.0198,1.1403 0,-0.20204 -0.0132,-0.40386 -0.0198,-0.60579"
       id="path1423" /><path
       style="fill:none;stroke:#ffccaa;stroke-width:0.3"
       d="m 184.83506,763.09491 c 2.05902,-0.0336 4.1791,0.19658 6.061,-0.74833 1.18843,0.9859 2.40148,1.94286 3.5653,2.95769 0.13372,0.11661 0.15917,0.34651 0.31697,0.42762 0.38482,0.19779 0.16249,-0.85163 0.19801,-1.28285 0.0949,-1.15228 0.0406,-2.05296 0.67351,-3.02897 -1.53682,4.54714 5.43962,2.33559 5.28848,0.3029 -0.0761,-1.02294 -1.17358,4.45701 0.41597,2.72607"
       id="path1425" /><path
       style="fill:none;stroke:#ffccaa;stroke-width:0.3"
       d="m 202.28526,759.17508 c 0.033,-0.58203 -0.0275,-1.17703 0.099,-1.74612 0.0214,-0.0957 0.26307,0.0446 0.25754,0.14256 -0.031,0.54668 -0.62772,1.12784 -0.35655,1.60356 1.58713,2.78442 5.58678,4.80065 4.06051,6.36082 -0.67898,0.69403 -4.8187,-1.58422 -0.95076,-2.74389"
       id="path1427" /><path
       style="fill:none;stroke:#ffccaa;stroke-width:0.3"
       d="m 208.6038,759.7987 c 0.62061,0.88492 1.32016,1.71942 1.86182,2.65478 0.3679,0.63534 0.62428,1.33313 0.85175,2.03118 1.58734,4.87158 -5.17615,-3.1717 -1.84206,-1.81737"
       id="path1429" /><path
       style="fill:none;stroke:#ffccaa;stroke-width:0.3"
       d="m 211.63423,765.05483 c 0.50125,-3.01278 0.74327,-1.78924 0.0198,-3.74166"
       id="path1431" /><path
       style="fill:none;stroke:#ffccaa;stroke-width:0.3"
       d="m 213.43673,757.42896 c 3.36947,-4.45775 2.4e-4,-0.0403 0,0 -0.008,1.33387 1.29699,5.6774 2.73344,7.0557"
       id="path1433" /><path
       style="fill:none;stroke:#ffccaa;stroke-width:0.3"
       d="m 218.78473,763.48689 c 0,-1.75369 0.20783,-1.09975 -0.1981,-2.04899"
       id="path1435" /><path
       style="fill:none;stroke:#ffccaa;stroke-width:0.3"
       d="m 217.79434,758.69401 c -0.0225,-0.75232 -3.00048,-4.08874 -1.10919,-3.75949"
       id="path1437" /><path
       style="fill:none;stroke:#ffccaa;stroke-width:0.3"
       d="m 222.56793,760.22629 c -0.35656,0.5583 -0.48125,1.37052 -1.06964,1.67484 -0.40891,0.21151 -0.96086,-0.14221 -1.30727,-0.44542 -2.42208,-2.11987 1.11143,-5.28664 1.96093,-3.88419 0.46405,0.76612 0.27731,1.76985 0.41598,2.65477 z"
       id="path1439" /><path
       style="fill:none;stroke:#ffccaa;stroke-width:0.3"
       d="m 225.06361,755.14833 c 0.46215,0.85524 1.09035,1.63981 1.38649,2.56572 0.25625,0.80118 0.21239,1.67148 0.23768,2.51224 0.0423,1.40827 -0.45286,2.55299 -0.17825,1.95993 0.81386,-1.75749 1.67513,-6.35217 2.0996,-4.79287 0.23842,0.87579 0.19968,1.56646 0.75263,2.35188 0.32351,-0.85523 0.77635,-1.67218 0.97054,-2.5657 0.19418,-0.89352 -1.58926,1.89245 -0.97054,2.5657 0.67362,0.73299 1.97736,0.36197 2.97112,0.30291 0.91416,-0.0543 1.86385,-0.75865 2.53534,-1.31849 0.28954,-0.2414 0.69269,-1.11649 0.83187,-0.76615 0.0525,0.13218 -0.0788,0.27332 -0.11879,0.4098 -0.26415,0.90103 -0.45601,1.82576 -0.77252,2.70825"
       id="path1441" /><path
       style="fill:none;stroke:#ffccaa;stroke-width:0.3"
       d="m 236.71025,753.68733 c 0.52821,0.0891 1.21711,-0.12245 1.58461,0.26725 0.73795,0.78251 0.90575,1.9522 1.40629,2.90423 1.37065,2.60704 1.70805,3.07372 3.07009,5.23832"
       id="path1443" /><path
       style="fill:none;stroke:#ffccaa;stroke-width:0.3"
       d="m 174.99087,779.25531 c 0.30369,1.09278 0.70562,2.16294 0.91109,3.2784 0.17918,0.97271 0.1637,1.97138 0.23765,2.95767 0.0601,0.80129 -0.22318,1.69831 0.15854,2.40538 0.215,0.39823 1.67531,-3.83564 2.55513,-3.91983 1.02971,-0.0986 0.92724,7.28314 1.90148,3.77727"
       id="path1445" /><path
       style="fill:none;stroke:#ffccaa;stroke-width:0.3"
       d="m 181.8045,783.88782 c 0.43778,5.80477 5.62808,2.40022 4.47648,-0.85521"
       id="path1447" /><path
       style="fill:none;stroke:#ffccaa;stroke-width:0.3"
       d="m 190.61872,780.59162 c -0.33009,0.64142 -0.76814,1.23795 -0.99031,1.92428 -0.51422,1.58848 0.50472,3.30573 1.52517,4.4187 0.2391,0.26078 1.09304,0.88167 0.87153,0.60579 -0.12628,-0.15724 -0.31694,-0.24945 -0.47543,-0.37417"
       id="path1449" /><path
       style="fill:none;stroke:#ffccaa;stroke-width:0.3"
       d="m 188.71724,785.02815 c 3.56388,-2.23962 5.07802,-0.68458 8.14081,-4.24056 0.84248,-0.97814 1.37194,-2.849 1.12905,-2.9755 -0.92329,-0.48083 -2.29888,4.08276 -2.25803,4.93543 0.13015,2.71714 3.10356,3.99907 1.24785,2.92206"
       id="path1451" /><path
       style="fill:none;stroke:#ffccaa;stroke-width:0.3"
       d="m 194.12469,784.68961 c 1.41306,-1.04338 3.17034,-1.1853 4.49617,-2.29843"
       id="path1453" /><path
       style="fill:none;stroke:#ffccaa;stroke-width:0.3"
       d="m 199.57169,779.0415 c 0.81479,2.07719 1.23402,4.26135 1.30728,6.48555 0.01,0.29271 -0.0721,1.16467 -0.0991,0.87304 -0.0354,-0.3819 0.65375,-6.15473 1.62417,-5.77284 1.4511,0.57108 0.96247,2.92921 1.44592,3.97328 0.0305,0.0658 0.0254,-0.14274 0.0397,-0.21381 0.20854,-1.03878 0.48342,-2.34588 1.3865,-3.04678 1.54344,-1.1979 1.23086,4.74419 2.04014,2.28063"
       id="path1455" /><path
       style="fill:none;stroke:#ffccaa;stroke-width:0.3"
       d="m 209.09899,780.59162 c -0.38957,0.66518 -0.92646,1.26372 -1.16871,1.99554 -0.46527,1.40554 0.35086,1.42668 1.24793,0.89087 1.27161,-0.75951 1.70048,-2.25716 2.81257,-3.04678 0.34375,-0.24408 -0.25251,0.81016 -0.2971,1.22939 -0.11819,1.11151 -0.30718,2.06041 0.83196,2.44099"
       id="path1457" /><path
       style="fill:none;stroke:#ffccaa;stroke-width:0.3"
       d="m 215.71453,776.42234 c 0.2113,0.62955 0.4908,1.24018 0.63386,1.88865 0.27202,1.23306 0.40664,2.98294 0.51499,4.31181 0.0323,0.39618 -0.005,1.51786 0.19809,1.17594 0.51872,-0.87488 2.88893,-6.72368 4.29816,-5.98665 1.06442,0.55668 1.63229,5.04444 1.74305,6.28954"
       id="path1459" /><path
       style="fill:none;stroke:#ffccaa;stroke-width:0.3"
       d="m 69.977007,908.38256 c -0.251203,-1.16009 2.526617,-4.30594 3.505867,-2.08465 1.115872,2.53121 0.567499,5.21239 -0.336712,7.69715 -0.182504,0.50149 -0.450601,0.96785 -0.69325,1.4432 -0.05485,0.10744 -0.302652,0.36308 -0.198099,0.30289 0.772684,-0.44487 0.709528,-1.06402 1.881701,-0.87304 2.216732,0.3611 3.275396,3.53544 3.505869,5.36302 0.611836,4.85169 -5.168765,4.56478 -7.427714,1.56792 -1.447662,-1.92053 -1.470911,-1.83875 -0.614029,-2.04899"
       id="path1461" /><path
       style="fill:none;stroke:#ffccaa;stroke-width:0.3"
       d="m 83.584591,924.82803 c 3.083859,2.12963 6.105337,4.35065 9.269804,6.34299"
       id="path1463" /><path
       style="fill:none;stroke:#ffccaa;stroke-width:0.3"
       d="m 103.47109,936.07081 c -0.4056,2.28362 -0.32706,4.58581 -0.5942,6.87752 -0.0326,0.27919 -0.3751,0.89064 -0.0991,0.83744 0.33877,-0.0654 1.9909,-7.07954 0.69329,-7.71496 -1.47217,-0.72091 -5.66977,0.99203 -3.624742,1.99556"
       id="path1465" /><path
       style="fill:none;stroke:#ffccaa;stroke-width:0.3"
       d="m 97.509104,946.13765 c 3.196586,0.19889 7.110706,-1.59237 10.220506,-0.26726"
       id="path1467" /><path
       style="fill:none;stroke:#ffccaa;stroke-width:0.3"
       d="m 103.43054,961.65522 c 0.0594,1.47291 0.0897,2.94728 0.17831,4.41873 0.25438,4.22616 2.70236,-2.24266 3.60487,-1.53231 1.28115,1.00838 0.93693,3.78053 1.7827,5.18488"
       id="path1469" /><path
       style="fill:none;stroke:#ffccaa;stroke-width:0.3"
       d="m 60.646862,931.00928 c -1.26738,3.49525 -4.995891,6.24654 -5.585621,10.01339 -0.04137,0.26427 0.46368,-0.29543 0.613987,-0.5167"
       id="path1471" /><path
       style="fill:none;stroke:#ffccaa;stroke-width:0.3"
       d="m 44.276795,949.00626 c 1.175216,-1.1403 2.214145,-2.44044 3.52565,-3.42093 1.11262,-0.83182 1.554599,1.61586 1.564817,1.71045 0.213614,1.97742 -2.216195,11.08364 -5.189516,9.47889 -0.08885,-0.048 -0.06201,-0.22323 0,-0.30293 0.825029,-1.06021 2.50235,-1.01925 3.684138,-0.89087 1.11497,0.12112 4.019452,1.17265 5.011247,0.89087"
       id="path1473" /><path
       style="fill:none;stroke:#ffccaa;stroke-width:0.3"
       d="m 59.924523,958.85929 c 0.310319,1.10469 0.428694,2.28238 0.930958,3.31404 0.552188,1.13422 6.808811,6.41736 4.179292,4.95324"
       id="path1475" /><path
       style="fill:none;stroke:#ffccaa;stroke-width:0.3"
       d="m 70.7591,974.12879 c 0.01619,2.03838 -0.06736,4.07493 -0.138658,6.11137 -0.0108,0.30867 -0.06299,1.22886 0,0.92652 0.31287,-1.50177 0.647642,-6.01019 0.138658,-7.03789 -0.462632,-0.93408 -1.673699,-1.32815 -2.674001,-1.62137 -0.264139,-0.0774 -2.30804,1.59663 -1.228061,1.7461"
       id="path1477" /><path
       style="fill:none;stroke:#ffccaa;stroke-width:0.3"
       d="m 66.30249,980.11547 c 2.51918,-0.35142 6.576486,-2.30212 8.853783,-0.44543"
       id="path1479" /><path
       style="fill:none;stroke:#ffccaa;stroke-width:0.3"
       d="m 71.729626,989.61216 c 1.050165,1.17403 4.512116,1.70828 5.189561,-0.3029 0.789138,-2.34278 -3.260164,-3.6082 -4.615143,-2.08465 -0.543973,0.61166 -0.184039,1.66806 -0.574418,2.38755 -0.71278,1.31365 -2.096289,2.22067 -2.673914,3.59912 -0.275474,0.65739 -0.0026,1.46468 0.27723,2.12027 1.964706,4.60335 9.605291,2.0048 12.102293,-0.74835"
       id="path1481" /><path
       style="fill:none;stroke:#ffccaa;stroke-width:0.3"
       d="m 42.288176,960.70897 c -0.633828,0.86116 -1.270484,1.72026 -1.901486,2.58352 -2.269807,3.10523 -4.385985,6.30878 -6.536409,9.49669 -0.03524,0.0522 -2.058213,3.76124 -2.178804,2.51224"
       id="path1483" /><path
       style="fill:none;stroke:#ffccaa;stroke-width:0.3"
       d="m 20.163475,982.89163 c -0.283911,1.0631 -0.614564,2.11482 -0.851736,3.18932 -0.126611,0.57361 -0.182571,1.16131 -0.237665,1.74611 -0.701603,7.44744 2.170449,-4.11154 1.089401,-4.93543 -1.278311,-0.97422 -4.011724,1.50524 -4.733973,2.12029 -1.355457,1.15425 -1.548238,1.1465 -0.831911,0.99777"
       id="path1485" /><path
       style="fill:none;stroke:#ffccaa;stroke-width:0.3"
       d="m 14.181659,991.24802 c 4.873021,0.94779 9.784056,-1.12847 14.657374,0.35632"
       id="path1487" /><path
       style="fill:none;stroke:#ffccaa;stroke-width:0.3"
       d="m 28.740031,996.73577 c 1.880576,5.09973 6.230117,6.67293 9.84418,10.04903 0.223094,0.2084 2.735244,4.2071 1.941139,1.7461"
       id="path1489" /><path
       style="fill:none;stroke:#ffccaa;stroke-width:0.3"
       d="m 50.867516,1014.2734 c -1.964494,-1.3329 1.51225,-5.9046 2.396686,-2.5835 0.521713,1.959 0.316732,4.0964 -0.198099,6.0222 -0.446157,1.669 -1.223325,3.3506 -2.654131,4.401 -0.433393,0.3181 -1.6398,0.9924 -1.544944,0.4632 0.422928,-2.3595 7.64863,-2.172 9.19054,-1.9599 0.706059,0.097 1.920912,0.3815 2.654128,0.784 0.197643,0.1084 0.68653,0.4019 0.475416,0.4811 -0.259678,0.097 -0.554635,0 -0.831956,0"
       id="path1491" /><path
       style="fill:none;stroke:#ffccaa;stroke-width:0.3"
       d="m 55.324128,1027.1554 c -0.147672,1.3262 -0.15522,2.6631 -0.27732,3.9911 -0.03295,0.3584 -0.966237,6.0953 -0.950741,6.1113 1.490242,1.5467 7.128206,-3.1346 7.447585,0.6949"
       id="path1493" /><path
       style="fill:none;stroke:#ffccaa;stroke-width:0.3"
       d="m 11.926467,1004.9193 c -1.900449,2.3021 -3.5934018,4.756 -5.4272262,7.1091 -0.4493763,0.5766 -1.0730045,1.0606 -1.3270653,1.7461 -0.1014862,0.2738 0.3368992,-0.4815 0.4555437,-0.7483"
       id="path1495" /><path
       style="fill:none;stroke:#ffccaa;stroke-width:0.3"
       d="m -9.0494378,1023.2712 c -1.3247102,0.2496 -7.6804332,7.4253 -5.2489102,7.9644 1.752471,0.3885 13.66935936,-3.07 10.5572588,-6.3252 -0.5364163,-0.5611 -1.1400128,-1.1429 -1.8817008,-1.3719 -1.0946818,-0.3381 -2.284431,-0.1782 -3.4266478,-0.2673 z"
       id="path1497" /><path
       style="fill:none;stroke:#ffccaa;stroke-width:0.3"
       d="m -7.9402542,1018.5852 c -2.0294653,5.5002 -3.1874878,11.2501 -2.6739558,17.1404"
       id="path1499" /><path
       style="fill:none;stroke:#ffccaa;stroke-width:0.3"
       d="m -23.62759,1046.0062 c 0.297114,0.5524 0.592227,1.1058 0.891347,1.657 0.789805,1.4556 1.251735,1.8611 1.029964,3.8486 -0.249793,2.2386 -2.209472,5.2762 -4.892415,3.5635 -1.322737,-0.8444 -0.42658,-3.2153 0.554635,-3.813 1.343512,-0.8182 3.093434,0.1094 4.19912,0.8553"
       id="path1501" /><path
       style="fill:none;stroke:#ffccaa;stroke-width:0.3"
       d="m -19.646307,1046.7724 c 0.792284,1.0096 1.594816,2.0113 2.376855,3.0289 2.535989,3.2999 1.162309,-0.4812 2.139193,-1.7995 0.259213,-0.3498 0.904444,2.8864 1.663777,2.4766 0.606888,-0.3276 0.951225,-1.013 1.307283,-1.6036 0.260945,-0.4328 2.047917,-3.656 0.732906,-3.9376"
       id="path1503" /><path
       style="fill:none;stroke:#ffccaa;stroke-width:0.3"
       d="m -4.1966779,1043.3336 c -0.8639228,1.4661 -1.5072333,3.0704 -1.8024342,4.7394"
       id="path1505" /><path
       style="fill:none;stroke:#ffccaa;stroke-width:0.3"
       d="m 2.2406848,1042.6209 c 0.7558669,1.6278 1.4553168,3.3658 2.5947793,4.7751"
       id="path1507" /><path
       style="fill:none;stroke:#ffccaa;stroke-width:0.3"
       d="m 12.045299,1040.5006 c -0.193045,3.0418 0.828117,5.5686 1.485551,8.392 0.115874,0.4977 0.162353,2.0017 -0.03961,1.5323 -0.986732,-2.293 0.08681,-5.7227 1.267627,-7.7506 0.571317,-0.9811 2.118894,-2.2944 1.901531,-0.3385"
       id="path1515" /><path
       style="fill:none;stroke:#ffccaa;stroke-width:0.3"
       d="m 22.58273,1049.4093 c -0.587608,-0.9799 -1.5079,-1.826 -1.762826,-2.9399 -0.190715,-0.8332 0.195249,-1.7194 0.514982,-2.5122 1.822008,-4.5177 4.958575,2.3077 3.80297,5.2027 -1.527273,3.8261 -6.097019,3.3322 -5.803503,0.1425 0.113207,-1.2302 0.950743,-2.2806 1.426115,-3.4209"
       id="path1517" /><path
       style="fill:none;stroke:#ffccaa;stroke-width:0.3"
       d="m 147.58877,954.96674 c -2.47714,4.13774 -0.0616,0.24654 0,0 0.25924,-1.03767 -0.14722,-2.16633 0.0991,-3.20715 0.0413,-0.17459 1.70807,-2.63921 2.35702,-1.40755 0.51893,0.98488 0.86304,2.05996 1.14885,3.13587 0.33673,1.26756 1.13926,6.46226 0.95075,4.25836"
       id="path1529" /><path
       style="fill:none;stroke:#ffccaa;stroke-width:0.3"
       d="m 156.48229,955.57253 c -0.23771,-0.98589 -0.72988,-1.94368 -0.71308,-2.95767 0.0281,-1.69736 2.08052,-0.003 2.41646,0.65924 0.72692,1.43142 0.35251,5.89044 -0.57441,5.29177 -0.26926,-0.17391 -0.14433,-0.62659 -0.25746,-0.92649 -0.26385,-0.69959 -0.581,-1.3779 -0.87151,-2.06685 z"
       id="path1531" /><path
       style="fill:none;stroke:#ffccaa;stroke-width:0.3"
       d="m 159.80984,949.97786 c 2.45269,-5.14493 3.05586,3.45721 2.93154,4.98888 -0.0122,0.14891 -0.0816,1.74956 -0.61408,1.3185"
       id="path1533" /><path
       style="fill:none;stroke:#ffccaa;stroke-width:0.3"
       d="m 160.80023,953.38099 c 3.4807,-0.99015 1.11311,-0.6245 4.61505,-0.42762 1.47569,0.083 3.00313,-2.19427 1.20827,-2.97551 -1.68351,-0.73276 -2.53291,2.2161 -1.88169,3.20715 1.0033,1.52686 5.22232,2.94296 6.87316,1.22941 0.74094,-0.76909 0.48835,-1.44539 0.47533,-2.44099"
       id="path1535" /><path
       style="fill:none;stroke:#ffccaa;stroke-width:0.3"
       d="m 182.64762,944.98899 c -0.033,-0.49295 0.39394,-1.51183 -0.099,-1.47884 -0.49294,0.033 0.0416,0.98814 0.099,1.47884 0.24675,2.10886 1.49085,7.42386 1.3667,9.7105"
       id="path1537" /><path
       style="fill:none;stroke:#ffccaa;stroke-width:0.3"
       d="m 180.98379,951.27853 c 1.55903,-1.47704 3.93213,-1.30699 5.40745,-2.83295 0.93093,1.0631 1.9912,2.02558 2.79279,3.18931 0.35834,0.52024 0.0435,2.10914 0.5942,1.79956 0.72995,-0.41039 1.73575,-4.49783 2.06002,-4.52561 0.15508,-0.0133 0.36251,3.5277 1.1884,4.04454"
       id="path1539" /><path
       style="fill:none;stroke:#ffccaa;stroke-width:0.3"
       d="m 194.73003,948.83756 c -0.0717,0.53438 -1.04534,2.64083 0.57444,2.33408 1.39062,-0.26337 2.02401,-2.02422 2.41646,-3.17151 0.11356,-0.33203 0.34893,-1.35911 0.27731,-1.01558 -0.23564,1.13012 1.01005,7.91861 2.61456,5.2383"
       id="path1541" /><path
       style="fill:none;stroke:#ffccaa;stroke-width:0.3"
       d="m 201.32588,946.34312 c 0.20503,-6.54949 -0.0183,-0.0977 0,0 0.51829,2.7731 1.87296,4.10972 1.32707,6.87753"
       id="path1543" /><path
       style="fill:none;stroke:#ffccaa;stroke-width:0.3"
       d="m 200.19682,950.28076 c 1.40931,-1.33366 2.96974,-1.30363 4.79338,-1.05122"
       id="path1545" /><path
       style="fill:none;stroke:#ffccaa;stroke-width:0.3"
       d="m 215.07212,944.82865 c -0.65577,2.51788 1.94384,4.85608 1.10919,7.23387"
       id="path1547" /><path
       style="fill:none;stroke:#ffccaa;stroke-width:0.3"
       d="m 212.95276,949.78189 c 1.21941,-2.02507 0.5153,-1.46889 2.35704,-2.49444 2.06631,-1.15065 1.1607,-1.09448 1.88169,0.58795 0.709,1.6545 1.39393,2.75231 2.31746,4.29401 0.26527,0.4428 0.53731,0.88154 0.81208,1.3185 0.095,0.15107 0.1206,0.41896 0.2971,0.44542 0.69797,0.10467 0.70789,-4.34869 0.65366,-5.00668 -0.0279,-0.33793 0.10728,0.67106 0.19809,0.99777 0.19264,0.69315 0.50279,2.04737 1.28749,2.35191 0.0562,0.0217 4.26717,-1.52861 2.73335,-1.83521 -0.55713,-0.11136 -3.27398,0 -2.21837,1.35414 1.0096,1.29551 3.4131,1.50569 4.65471,1.74609 0.83005,0.16071 1.59322,0.0747 2.11937,-0.58798"
       id="path1549" /><path
       style="fill:none;stroke:#ffccaa;stroke-width:0.3"
       d="m 140.993,969.09594 c 0.20431,3.15031 0.0302,1.58925 0.6932,5.43433 0.31245,1.81221 0.69321,3.61347 0.95076,5.4343 0.76152,5.38409 -2.14098,-0.78147 -0.19802,-3.83074 0.55285,-0.86765 1.61267,-1.06675 2.45602,-0.53451 0.92316,0.58259 1.79674,1.28185 2.49579,2.12026 2.68798,3.2239 -5.02724,7.4303 -3.74361,1.65701"
       id="path1551" /><path
       style="fill:none;stroke:#ffccaa;stroke-width:0.3"
       d="m 148.42072,973.8354 c 2.6692,0.41555 1.8778,-0.25263 3.22853,2.31624 0.0156,0.0295 1.71278,3.04683 1.40629,3.56348 -0.28052,0.47292 -0.51732,-0.98178 -0.65363,-1.51447 -0.13481,-0.52681 -0.64265,-2.66668 0.1783,-2.99334 0.75179,-0.29911 2.92351,1.78949 4.6745,1.30069 0.77475,-0.21629 1.64076,-2.0865 0.45553,-2.36971 -2.3882,-0.57068 -3.40727,6.15931 0.0198,5.02449 1.61665,-0.5353 1.89698,-0.92247 2.95121,-1.87082"
       id="path1553" /><path
       style="fill:none;stroke:#ffccaa;stroke-width:0.3"
       d="m 162.36495,973.71067 c -3.22866,1.92426 0.93739,2.75976 0.85175,1.83518 -0.0565,-0.6104 -4.50453,-8.19513 2.05994,1.65703 1.30731,1.96204 0.045,2.40284 1.10926,1.92429"
       id="path1555" /><path
       style="fill:none;stroke:#ffccaa;stroke-width:0.3"
       d="m 166.84144,970.93114 c 2.55159,0.44985 7.34261,9.14752 2.81268,9.56795 -1.86857,0.17343 -3.34614,-3.21784 0.55454,-3.93764"
       id="path1557" /><path
       style="fill:none;stroke:#ffccaa;stroke-width:0.3"
       d="m 174.01173,971.25187 c 0.5502,1.25812 2.51359,5.67785 1.52513,6.94878 -0.69985,-0.98589 -1.93546,-1.75982 -2.09956,-2.95768 -0.16454,-1.20097 5.98995,-0.52464 4.53583,-3.79511 -0.0277,-0.0624 -0.0711,0.12872 -0.0594,0.19599 0.066,0.3806 1.72406,8.03986 2.79288,7.67931 1.38618,-0.4676 0.63846,-8.84562 4.37739,-2.83297 0.65911,1.05993 1.10641,2.24045 1.74304,3.31404"
       id="path1559" /><path
       style="fill:none;stroke:#ffccaa;stroke-width:0.3"
       d="m 199.04808,969.30978 c -3.35574,-1.07011 -3.87641,2.85281 -2.81265,5.09577 0.6183,1.30373 3.46374,3.74774 3.62474,4.70378 0.0512,0.30412 -0.61923,-0.061 -0.91117,-0.16033"
       id="path1561" /><path
       style="fill:none;stroke:#ffccaa;stroke-width:0.3"
       d="m 195.62144,976.91782 c 1.48973,-0.89982 2.86268,-1.50956 4.55559,-1.21161"
       id="path1563" /><path
       style="fill:none;stroke:#ffccaa;stroke-width:0.3"
       d="m 202.75204,976.93562 c 0.64619,-2.28634 0.66971,-1.3781 0.53477,-2.67263"
       id="path1565" /><path
       style="fill:none;stroke:#ffccaa;stroke-width:0.3"
       d="m 203.44525,970.68169 c 3.655,-0.50741 4.04973,1.62624 5.70454,4.63254 0.14632,0.2658 0.40027,1.14073 0.25744,0.87305 -0.73424,-1.37615 -0.7765,-3.68766 0.27734,-4.84632"
       id="path1567" /><path
       style="fill:none;stroke:#ffccaa;stroke-width:0.3"
       d="m 213.34886,969.82645 c -0.54139,0.38606 -2.01019,0.61678 -1.62417,1.15814 0.38606,0.54139 1.07937,-1.53932 1.62417,-1.15814 0.82818,0.57944 0.30277,2.06876 0.87154,2.90426 0.82939,1.2184 3.64596,1.34678 2.51555,3.63476 -1.09349,2.21324 -4.08813,2.54056 -5.16969,-0.0177 -0.25964,-0.61415 0.0925,-1.33038 0.13867,-1.99554"
       id="path1569" /><path
       style="fill:none;stroke:#ffccaa;stroke-width:0.3"
       d="m 219.6674,966.2808 c -0.10519,3.02916 3.67263,7.31716 1.64405,9.95995"
       id="path1571" /><path
       style="fill:none;stroke:#ffccaa;stroke-width:0.3"
       d="m 218.65723,972.65943 c 1.7695,-1.35843 3.8341,-2.23989 6.10063,-2.01338"
       id="path1573" /><path
       style="fill:none;stroke:#ffccaa;stroke-width:0.3"
       d="m 237.79102,967.70619 c -0.68003,0.64738 -1.52929,1.15432 -2.04012,1.94209 -1.68511,2.59861 4.89955,3.66303 4.8528,5.46997 -0.0538,2.07913 -4.92424,1.79205 -3.88221,-0.99779 1.00365,-2.68706 4.50046,-1.3239 6.41755,-2.35188 0.19219,-0.10306 0.53105,-0.80503 0.0396,-0.85524 -2.10947,-0.21564 -2.46431,4.01089 0.0594,3.88419 1.63131,-0.0819 3.02866,-0.57859 3.90205,-1.90646 0.11602,-0.17637 1.00809,-2.79627 -0.0397,-2.74389 -0.47038,0.0236 -0.0912,1.81674 -0.0198,2.01338 0.3134,0.86248 1.16756,-0.2716 1.70339,-0.16037 1.35493,0.28128 0.93938,2.56117 2.59477,1.24722"
       id="path1575" /><path
       style="fill:none;stroke:#ffccaa;stroke-width:0.3"
       d="m 252.2107,969.7552 c 1.47821,-1.28079 1.5911,1.71493 2.29767,1.55012 0.13102,-0.0306 1.47516,-3.71324 1.76284,-4.22273"
       id="path1577" /><path
       style="fill:none;stroke:#ffccaa;stroke-width:0.3"
       d="m 258.52922,966.17391 c -5.29296,1.1195 -1.15766,8.39459 2.29769,5.13141"
       id="path1579" /><path
       style="fill:none;stroke:#ffccaa;stroke-width:0.3"
       d="m 262.39163,964.57032 c 0.0924,0.71864 0.18103,1.43777 0.27731,2.15591 0.1084,0.80825 0.21244,1.61724 0.33676,2.42318 0.79346,5.14382 1.53996,-3.50636 3.72375,-1.22941 1.3017,1.35721 1.67627,3.75314 2.61456,5.38086"
       id="path1581" /><path
       style="fill:none;stroke:#ffccaa;stroke-width:0.3"
       d="m 145.15251,1004.3388 c 0.28109,-4.177 0.62079,-8.39731 0.19809,-12.59691 4.87279,-2.37309 4.36075,5.94607 1.90149,7.34078 -0.80083,0.45418 -0.10922,-1.84367 -0.0397,-2.7617"
       id="path1583" /><path
       style="fill:none;stroke:#ffccaa;stroke-width:0.3"
       d="m 150.06466,991.22519 c 1.9872,1.01743 3.38735,3.33356 3.6644,5.57686 0.042,0.34004 -0.14764,-0.67315 -0.15843,-1.0156 -0.0575,-1.82132 -0.10097,-3.73214 0.61396,-5.43431"
       id="path1585" /><path
       style="fill:none;stroke:#ffccaa;stroke-width:0.3"
       d="m 158.0668,994.23633 c 3.50911,-1.48429 -0.61937,2.4511 -0.57441,1.81737 0.0449,-0.63373 0.56179,-1.18218 0.57441,-1.81737 0.0302,-1.52045 -1.34118,-3.85678 0.33676,-3.51004 2.9946,0.61883 0.93191,12.24361 1.86192,6.64588"
       id="path1587" /><path
       style="fill:none;stroke:#ffccaa;stroke-width:0.3"
       d="m 161.84999,991.65281 c 0.3169,-0.50483 1.45556,-1.19759 0.95073,-1.51448 -0.50482,-0.31692 -1.13043,0.94615 -0.95073,1.51448 0.81159,2.56672 4.18926,4.54099 2.91166,7.71493 -0.0321,0.0798 -0.21807,0.0587 -0.25746,-0.0177 -1.23468,-2.39797 -0.0429,-1.17925 -1.04982,-4.15147 -1.37707,-4.06498 -3.49599,-3.56224 1.72326,-6.04009 0.31845,-0.15121 0.69607,0.21947 0.95073,0.46326 1.5616,1.49487 2.26899,3.92168 0.97062,5.82628 -0.17436,0.25575 -0.42767,0.62124 -0.73295,0.57015 -0.97276,-0.1628 -1.53802,-1.81152 -0.33668,-2.12026 1.33893,-0.34412 6.28497,1.03833 5.94212,-1.49667 -0.28281,-2.09127 -1.5757,1.15443 -1.58451,1.19377 -0.0574,0.25673 0.36605,4.67995 1.4855,3.5813 1.26283,-1.23931 1.15562,-3.69438 2.21848,-5.14922 0.31806,-0.43537 0.74602,0.78886 1.02995,1.24719 0.58372,0.94232 1.3255,3.04131 2.41649,3.49221 0.13263,0.0548 0.19193,-0.79512 0.39608,-1.74609 0.19584,-0.91215 0.42259,-1.81737 0.63386,-2.72605"
       id="path1589" /><path
       style="fill:none;stroke:#ffccaa;stroke-width:0.3"
       d="m 180.74614,988.9802 c 0.51062,1.50807 -0.41767,9.41811 -1.46574,9.49666 -0.21876,0.0164 -0.34332,-0.27318 -0.51499,-0.40979"
       id="path1591" /><path
       style="fill:none;stroke:#ffccaa;stroke-width:0.3"
       d="m 176.54696,994.45014 c 1.00979,-0.64931 2.0682,-1.70048 3.189,-0.78399"
       id="path1593" /><path
       style="fill:none;stroke:#ffccaa;stroke-width:0.3"
       d="m 193.81896,990.79757 c -0.43333,-0.36949 1.70432,-7.85691 1.18841,-2.47663"
       id="path1595" /><path
       style="fill:none;stroke:#ffccaa;stroke-width:0.3"
       d="m 193.7793,994.28978 c -1.02574,0.92972 -0.51953,6.65332 1.92135,5.39869 0.68215,-0.35066 1.17523,-0.98592 1.76282,-1.47886"
       id="path1597" /><path
       style="fill:none;stroke:#ffccaa;stroke-width:0.3"
       d="m 199.86017,992.22296 c 0.41595,0.90868 0.60999,1.9567 1.24783,2.72605 0.74022,0.89287 4.28662,1.93895 4.10008,3.72385 -0.27492,2.63034 -8.06958,3.56654 -7.24939,0.32071"
       id="path1599" /><path
       style="fill:none;stroke:#ffccaa;stroke-width:0.3"
       d="m 212.10104,990.08486 c -0.0866,0.98814 2.2797,8.32398 3.08996,8.17819 0.11763,-0.0212 0.51316,-6.8262 0.5942,-7.51893"
       id="path1601" /><path
       style="fill:none;stroke:#ffccaa;stroke-width:0.3"
       d="m 218.45921,995.62608 c 0.0858,-0.49294 0.17164,-0.98589 0.25744,-1.47883"
       id="path1603" /><path
       style="fill:none;stroke:#ffccaa;stroke-width:0.3"
       d="m 217.54804,988.32094 c -0.3679,-2.16943 -0.70181,-1.48112 -0.25755,-2.28063"
       id="path1605" /><path
       style="fill:none;stroke:#ffccaa;stroke-width:0.3"
       d="m 222.51961,992.04479 c -0.20465,0.49887 -1.11286,1.29198 -0.61396,1.49664 0.49887,0.20468 0.59703,-0.95769 0.61396,-1.49664 0.0655,-2.08042 -1.44364,-5.13911 0.59423,-4.56126 0.38661,0.10962 0.63304,0.53972 0.7923,0.90868 2.05404,4.7592 -0.42625,-0.40431 -1.38653,3.65258 -0.24966,1.05473 0.53769,2.1001 0.79232,3.15367 0.0949,0.39262 -0.0316,-0.81095 0.0199,-1.21158"
       id="path1607" /><path
       style="fill:none;stroke:#ffccaa;stroke-width:0.3"
       d="m 226.08493,987.02027 c 1.64295,2.17374 1.23793,4.99499 1.76291,7.50115"
       id="path1609" /><path
       style="fill:none;stroke:#ffccaa;stroke-width:0.3"
       d="m 230.16522,990.1205 c -0.0379,0.20667 -0.57777,3.44919 0.75274,3.15367 1.55692,-0.34581 2.31736,-2.94063 2.89187,-4.16927 0.0987,-0.21098 0.22805,-0.86908 0.27723,-0.64141 0.24249,1.1225 -1.0746,4.56729 0.4952,5.25614 0.3448,0.15128 0.73946,-0.14256 1.10918,-0.21381"
       id="path1611" /><path
       style="fill:none;stroke:#ffccaa;stroke-width:0.3"
       d="m 237.45436,988.46349 c 0.0792,-0.99779 0.15844,-1.99556 0.23768,-2.99333 -0.0198,-0.11285 -0.0214,-0.44665 -0.0594,-0.33854 -0.58203,1.65809 -0.27379,4.23175 -0.33677,5.95104 -0.0214,0.58756 0.1397,2.33505 0,1.76392 -0.20425,-0.83521 -1.28156,-3.97121 0.15854,-4.38309 1.07085,-0.30628 2.08005,0.89297 3.18889,0.99777 3.50116,0.33092 3.15299,-2.40815 1.98081,-2.08465 -4.36423,1.20452 -0.0456,8.15925 3.4662,3.58132 0.69784,-0.90969 0.89281,-2.61739 0.95075,-3.70602 0.0447,-0.84002 -0.0291,-1.45833 -0.1188,-2.24501 -0.0463,-0.40646 0.32539,0.75324 0.53478,1.10469 1.30857,2.19635 1.14649,1.54077 2.89187,3.95546 0.47379,0.65546 1.18038,1.23585 1.32707,2.03118 0.62211,3.37315 -4.45593,2.16922 -4.79335,-0.24945 -0.13182,-0.94469 1.29408,-1.40163 1.94111,-2.10243"
       id="path1613" /><path
       style="fill:none;stroke:#ffccaa;stroke-width:0.3"
       d="m 263.06516,979.66168 c 0.033,0.73051 0.009,1.46582 0.099,2.19154 0.22744,1.83714 0.58235,3.65633 0.85172,5.48778 0.71168,4.83827 0.66525,-1.90378 2.55514,-2.08465 0.7176,-0.0687 1.29135,3.18918 1.32707,3.36748 0.0739,0.36894 0.0671,0.74983 0.11888,1.12252 0.008,0.0565 0.043,0.21495 0.0594,0.16034 0.44942,-1.49839 0.30242,-3.22027 1.4855,-4.43653 0.93917,-0.9655 3.31261,0.12078 4.31795,-0.89086 0.57007,-0.57367 -0.30644,-1.18753 -0.65363,-1.30069 -2.57188,-0.83822 -2.50909,5.21224 0.7923,5.89756 1.504,0.31221 0.87469,-4.35226 1.18851,-5.14921 0.16211,-0.41172 3.30819,1.82562 4.13962,1.55011 0.87063,-0.28852 0.69339,-3.0545 -0.21786,-2.70827 -5.08537,1.93233 1.38657,6.05808 4.71413,4.68598"
       id="path1615" /><path
       style="fill:none;stroke:#ffccaa;stroke-width:0.3"
       d="m 135.72422,1013.1228 c -0.0462,1.3007 -0.1825,2.6012 -0.13866,3.902 0.0357,1.0581 0.2557,2.1019 0.37641,3.1537 0.0906,0.7893 0.17797,1.5791 0.25744,2.3697 0.10047,0.9993 -0.27127,2.3371 -0.13866,0.873 0.26332,-2.9069 0.76824,-6.6655 2.19859,-6.0222 2.03759,0.9164 3.72304,8.2198 0.57442,8.1782 -1.4357,-0.019 -1.16806,-5.1872 0.61408,-5.3809 1.74751,-0.1899 3.54033,1.0138 5.26869,0.3207 0.37031,-0.1485 2.24348,-1.451 0.93097,-1.9599 -3.23694,-1.2551 -6.18435,8.014 0.83185,5.5947"
       id="path1617" /><path
       style="fill:none;stroke:#ffccaa;stroke-width:0.3"
       d="m 150.46085,1017.7197 c -3.97323,7.1423 2.82575,5.3952 3.78319,1.0868 0.15494,-0.6972 -0.57451,1.317 -0.73287,2.0134 -0.27612,1.2144 -0.46005,2.2833 0.93097,2.4053"
       id="path1619" /><path
       style="fill:none;stroke:#ffccaa;stroke-width:0.3"
       d="m 156.83873,1018.7531 c -0.16682,1.7352 1.3253,4.4725 3.42675,3.7238 1.45622,-0.5188 3.01146,-6.3775 1.18841,-6.2717 -0.89477,0.052 -1.45728,1.3418 -0.65366,1.9599 0.52044,0.4003 12.47587,5.7966 4.93202,6.7885 -2.05044,0.2695 -2.63057,-2.1085 -0.65363,-2.833 1.2641,-0.4633 6.03893,-0.025 6.55619,-1.0334 0.74981,-1.4614 -1.79742,-4.4164 -2.77301,-1.9956 -2.21287,5.4912 5.00313,7.9121 6.71464,4.5257"
       id="path1621" /><path
       style="fill:none;stroke:#ffccaa;stroke-width:0.3"
       d="m 188.41151,1016.7932 c 0.14526,-0.7543 0.13936,-1.5542 0.43575,-2.2628 0.50151,-1.1991 2.09761,-2.5084 2.73346,-0.5346 0.80036,2.4846 -0.49003,4.4563 -1.64404,6.735 -0.51488,1.0167 -2.93738,2.6632 -3.08991,3.7951 -0.0794,0.589 1.1834,-0.135 1.76284,-0.2672 1.04791,-0.2391 6.67245,-1.977 7.24948,-0.7662"
       id="path1623" /><path
       style="fill:none;stroke:#ffccaa;stroke-width:0.3"
       d="m 207.06998,1012.7308 c 0.59278,1.4711 5.81682,6.5487 5.01126,8.4811 -0.93993,2.2546 -4.26582,0.022 -4.04071,-1.764 0.12732,-1.0102 0.69987,-1.9123 1.04984,-2.8685"
       id="path1625" /><path
       style="fill:none;stroke:#ffccaa;stroke-width:0.3"
       d="m 216.35964,1019.5549 c -0.1519,-0.8078 -0.51576,-1.6035 -0.45564,-2.4232 0.21672,-2.9547 3.33528,-0.2776 3.80307,1.6927 0.26461,1.1145 -1.03968,5.8009 -1.30731,3.1536"
       id="path1627" /><path
       style="fill:none;stroke:#ffccaa;stroke-width:0.3"
       d="m 220.20215,1017.8978 c 0.50798,0.1348 2.22489,0.6203 2.83245,0.6771 2.31116,0.2162 3.24133,-2.4143 1.64404,-2.0312 -2.40088,0.5759 -5.08458,6.9956 1.50537,4.49"
       id="path1629" /><path
       style="fill:none;stroke:#ffccaa;stroke-width:0.3"
       d="m 228.81836,1015.4569 c 0.64707,0.9799 1.19309,2.0346 1.94115,2.9398 0.55488,0.6715 2.6888,2.098 3.03045,3.225 0.82421,2.7186 -9.62604,4.8812 -9.32921,-0.3207"
       id="path1631" /><path
       style="fill:none;stroke:#ffccaa;stroke-width:0.3"
       d="m 241.45542,1022.3522 c 0.18246,-2.7741 0.0391,-6.3699 2.07973,-8.6415 0.70096,-0.7802 1.74321,1.4466 1.94114,2.4767 0.003,0.01 -0.0254,3.3737 0.2971,3.0111"
       id="path1633" /><path
       style="fill:none;stroke:#ffccaa;stroke-width:0.3"
       d="m 250.68554,1017.7019 c 0.2245,-1.1047 0.23611,-2.2751 0.6735,-3.3141 0.99877,-2.3724 3.0312,-1.6692 3.30779,0.4276 0.0988,0.7493 -0.99031,5.6757 -0.99031,2.7439"
       id="path1635" /><path
       style="fill:none;stroke:#ffccaa;stroke-width:0.3"
       d="m 255.83544,1011.1272 c 1.42836,-5.3143 3.38328,2.3681 2.43634,4.1337 -0.19357,0.3609 -0.62063,0.5345 -0.93096,0.8018 0.31032,-0.9325 0.19868,-2.142 0.93097,-2.7974 0.30448,-0.2725 7.6297,-1.4026 5.42713,-0.1247 -0.96262,0.5585 -2.00711,0.9621 -3.01067,1.4432"
       id="path1637" /><path
       style="fill:none;stroke:#ffccaa;stroke-width:0.3"
       d="m 240.44524,1023.5816 c 0.55462,-0.3148 1.06,-0.7393 1.66383,-0.9443 2.51002,-0.8524 5.3739,-0.9559 7.96248,-1.0869 1.7249,-0.087 5.00083,-0.4335 4.35761,0.3029"
       id="path1639" /><path
       style="fill:none;stroke:#ffccaa;stroke-width:0.3"
       d="m 242.48539,1027.8934 c 5.3644,0.034 10.40278,-3.0824 15.72696,-3.0824"
       id="path1641" /><path
       style="fill:none;stroke:#ffccaa;stroke-width:0.3"
       d="m 136.69483,1033.3812 c 1.60424,1.5768 7.99342,12.7512 3.08989,13.3987 -2.15627,0.2847 -2.86277,-4.3265 -0.97053,-5.5591 0.9793,-0.6379 4.40731,0.9014 6.12044,0.4633 0.89614,-0.2292 2.59953,-2.7437 1.02997,-2.5123 -3.55418,0.5241 -5.64187,6.8881 0.87151,5.9867"
       id="path1643" /><path
       style="fill:none;stroke:#ffccaa;stroke-width:0.3"
       d="m 151.57003,1038.3522 c -0.67344,1.0097 -1.58972,1.8943 -2.02036,3.029 -0.92143,2.428 2.50296,6.2306 4.02096,3.9555"
       id="path1645" /><path
       style="fill:none;stroke:#ffccaa;stroke-width:0.3"
       d="m 154.36284,1041.9514 c 1.10117,0.092 3.09705,0.7091 4.06048,-0.3564 0.44164,-0.4884 0.85162,-2.0594 -0.13864,-2.3519 -1.12197,-0.3314 -1.42124,1.0985 -2.00049,1.5858 -0.56763,0.4774 -1.8932,0.3813 -1.92135,1.1225 -0.004,0.094 2.05944,4.9561 3.60495,4.4187 3.46509,-1.2049 2.51058,-7.0865 3.28798,-9.7283 0.0188,-0.064 0.10054,0.1395 0.57443,1.5501 0.46818,1.3936 0.80725,3.4492 1.62417,4.7216 1.01878,1.5869 2.96582,-7.8382 3.54553,-2.3341 0.0787,0.7477 0.13967,1.4972 0.21788,2.245 0.0708,0.6776 0.17722,1.5698 0.23765,2.2628"
       id="path1647" /><path
       style="fill:none;stroke:#ffccaa;stroke-width:0.3"
       d="m 169.89177,1036.909 c 0.74607,0.6414 1.64224,1.1415 2.23824,1.9243 0.5923,0.778 0.88614,1.7463 1.24785,2.6548 0.30658,0.77 0.59362,1.5563 0.75264,2.3697 0.44399,2.2709 -2.14485,2.849 -3.48607,1.3185 -2.14845,-2.4516 0.15869,-3.9739 2.49576,-3.2428"
       id="path1649" /><path
       style="fill:none;stroke:#ffccaa;stroke-width:0.3"
       d="m 193.89818,1038.6551 c -0.5084,-0.1781 -0.996,-0.6355 -1.52517,-0.5345 -3.26556,0.6231 -0.25915,8.2663 0,10.0312"
       id="path1651" /><path
       style="fill:none;stroke:#ffccaa;stroke-width:0.3"
       d="m 188.90671,1046.1563 c 2.33796,-2.7083 5.13403,-1.5686 7.84368,-2.5657"
       id="path1653" /><path
       style="fill:none;stroke:#ffccaa;stroke-width:0.3"
       d="m 198.236,1039.2075 c 0.74604,0.974 1.55678,1.9017 2.23816,2.922 0.40524,0.6069 0.6908,1.286 1.01018,1.9421 0.16952,0.3483 0.30871,0.7106 0.45553,1.0691 0.0381,0.093 0.13089,0.3805 0.0991,0.285 -0.70025,-2.1023 -1.06254,-5.4198 -0.27731,-7.4298"
       id="path1655" /><path
       style="fill:none;stroke:#ffccaa;stroke-width:0.3"
       d="m 205.86171,1043.5015 c -0.71305,-0.5048 -2.02247,-0.6487 -2.13913,-1.5145 -0.21259,-1.5778 0.71477,-4.3574 2.29767,-4.1871 2.18424,0.2349 2.71105,4.1421 1.94106,5.6659"
       id="path1657" /><path
       style="fill:none;stroke:#ffccaa;stroke-width:0.3"
       d="m 209.34781,1036.4458 c 0.50178,0.9086 1.12559,1.76 1.50537,2.726 0.24252,0.6169 0.25506,1.3021 0.33676,1.9599 0.0697,0.5609 -0.0151,2.2516 -0.0991,1.6927 -0.16333,-1.087 0.0935,-5.9683 1.98069,-5.7016 1.05466,0.1491 1.91313,2.5863 2.21846,3.4032 0.12967,0.3469 0.11887,1.475 0.11887,1.1047 0,-0.8817 -0.0246,-1.0359 0.45554,-1.9422 1.10138,-2.0785 3.23567,1.0401 4.21896,1.9599"
       id="path1659" /><path
       style="fill:none;stroke:#ffccaa;stroke-width:0.3"
       d="m 234.38416,1035.9825 c 0.35711,2.2645 0.73473,4.5406 0.59431,6.8419 -0.0267,0.4381 -0.23421,1.7173 -0.2971,1.2828 -0.34372,-2.3732 2.03658,-5.6813 1.96083,-8.2138 -0.10433,-3.4871 -1.30207,-0.4351 -2.25804,0.089 -0.8701,0.4772 -1.95749,0.3987 -2.87199,0.784 -1.07228,0.4518 0.16753,0.6996 0.27731,0.6949"
       id="path1661" /><path
       style="fill:none;stroke:#ffccaa;stroke-width:0.3"
       d="m 228.77873,1045.5149 c 5.74331,-0.017 11.31967,-2.5018 17.07388,-2.0313"
       id="path1663" /><path
       style="fill:none;stroke:#00ffff;stroke-width:0.3"
       d="m 81.838446,918.07315 c 8.105984,0.0199 13.60133,-0.72853 19.886494,5.07796 1.47751,1.36499 2.99626,2.71188 3.96146,4.50782 2.6122,4.86047 5.53604,14.57949 -1.36672,17.42543 -2.65375,1.0941 -5.919796,0.80034 -8.715164,1.15813 -9.419908,1.20573 -18.921653,1.79322 -28.403619,2.29844 -2.506384,0.13356 -5.00399,0.38796 -7.506978,0.57017 -1.082865,0.0788 -2.219454,0.22712 -3.307815,0.17817 -0.04261,-0.003 -0.243721,-0.14636 -0.198054,0.0177 0.06633,0.23842 0.621895,-0.50027 1.366721,-1.26502 1.48781,-1.5276 4.048175,-3.19109 4.971592,-5.18488 0.0186,-0.0401 -1.081799,0.24757 -2.713569,1.12249 -1.729602,0.92739 -4.363733,2.18969 -5.427226,3.9733 -1.001675,1.67992 1.905545,2.46631 2.852275,3.01114 2.926773,1.68426 6.543659,2.23153 7.506933,6.00446 0.250621,2.01001 0.07567,1.28691 0.316931,2.20937"
       id="path1669" /><path
       style="fill:none;stroke:#00ffff;stroke-width:0.3"
       d="m 26.484119,779.0429 c 11.162342,0.91702 21.429766,2.49338 30.02783,10.26282 3.089296,2.79157 5.031615,6.37598 4.020849,10.61918 -0.939014,3.94201 -4.803323,5.36282 -8.418068,5.87973 -11.383182,1.62783 -23.003539,0.94748 -34.464657,1.19378 -10.9404488,0.23511 -21.8583449,2.09523 -32.741395,3.11803 -2.810283,0.26414 -5.650868,0.75608 -8.457679,0.96216 -2.059975,0.15124 -4.854488,-0.19878 -6.754289,0.71268 -0.767286,0.36814 -1.345914,1.73461 -1.267671,2.54789 0.331779,3.44865 5.472072,5.46332 8.259624,6.09356 6.175995,1.39634 12.635574,1.0477 18.8961503,0.8018 3.0777259,-0.12089 6.1543035,-0.0196 9.2301932,-0.21381 6.7244965,-0.42493 14.0789425,-1.41632 20.5599265,0.90868 3.417858,1.22613 9.275469,3.20823 8.754779,7.76841 -0.23268,2.03782 -2.46544,3.92268 -4.001066,5.00668 -6.650551,4.69458 -15.307098,4.29334 -23.0556139,5.18488 -6.53352551,0.75173 -12.9648398,2.0306 -19.4111321,3.31404 -6.699668,1.33387 -13.346192,2.93124 -20.064772,4.16925 -15.606353,2.87576 -31.662317,4.91522 -47.53743,5.07796 -5.756749,0.059 -11.601262,0.11854 -17.331333,-0.5167 -0.513099,-0.0569 -4.614605,-0.18471 -5.288525,-1.03341 -1.83847,-2.31526 8.872079,-9.60102 10.00267,-10.13809 0.562067,-0.26702 1.974286,-0.91094 1.842047,-0.3029 -1.067451,4.90823 -14.687287,14.21725 -12.201257,19.90204 0.34871,0.79737 1.66843,0.5466 2.5353,0.62362 3.757468,0.33383 7.878353,-0.85786 11.27034,1.37194"
       id="path1671" /><path
       style="fill:none;stroke:#00ffff;stroke-width:0.3"
       d="m -174.38706,848.26857 c 1.80052,3.28308 10.77635,10.83712 6.27892,15.28733 -0.33291,0.32941 -0.79939,0.61166 -1.26768,0.60579 -2.64409,-0.0333 -2.82424,-3.50554 -2.61456,-5.30961 0.4133,-3.55597 3.75266,-1.6156 5.88277,-1.40755 1.39817,0.13655 2.45228,-0.0497 3.72375,-0.69488 0.91606,-0.46484 2.34362,-1.41721 2.91166,-2.42318 0.26841,-0.47533 0.5545,-2.62523 -0.91113,-1.99555 -5.69825,2.44817 -6.05005,16.01783 2.47591,8.44545"
       id="path1673" /><path
       style="fill:none;stroke:#00ffff;stroke-width:0.3"
       d="m -153.05466,850.54919 c -0.69326,0.93245 -1.59919,1.73945 -2.07976,2.79731 -2.70755,5.96016 5.54292,5.6319 6.63546,3.27843 0.12553,-0.27041 -0.0528,-0.59391 -0.0792,-0.89088"
       id="path1675" /><path
       style="fill:none;stroke:#00ffff;stroke-width:0.3"
       d="m -148.79606,852.91891 c 1.04891,-0.46236 5.72834,-0.42929 5.70445,-2.61917 -0.0206,-1.88864 -2.02304,-1.86113 -3.12954,-0.78398 -1.01929,0.99226 -2.1232,2.05428 -2.57491,3.40315 -0.3774,1.12696 2.20707,6.8653 3.98124,7.10914 2.83186,0.38918 3.55005,-9.4008 4.02089,-11.77732 0.0575,-0.29025 0.0402,-0.63492 0.23767,-0.85524 0.14506,-0.16182 0.45443,0.78169 0.89134,2.06682 0.54112,1.59163 0.81671,3.58156 1.84205,4.95324 0.61869,0.8277 0.95978,-4.40134 1.36672,-4.9176 0.14072,-0.17851 0.28882,0.39955 0.69325,1.9421 0.20423,0.77896 0.57499,3.42151 1.32707,4.098"
       id="path1677" /><path
       style="fill:none;stroke:#00ffff;stroke-width:0.3"
       d="m -132.41547,846.61153 c 0.18486,-0.74832 1.30292,-2.06012 0.55459,-2.24499 -0.74833,-0.18486 -0.8423,1.52988 -0.55459,2.24499 0.54588,1.35684 2.17675,2.05042 2.81262,3.36749 0.57692,1.19499 -0.26613,7.54123 -1.96093,5.14924 -1.84832,-2.60869 2.95807,-6.91359 4.37744,-8.58801"
       id="path1679" /><path
       style="fill:none;stroke:#00ffff;stroke-width:0.3"
       d="m -123.7003,842.63826 c -1.23285,0.22257 -3.7503,1.71704 -3.10972,3.34968 0.95369,2.43064 8.63114,2.58003 7.80408,6.43207 -0.66786,3.11057 -9.32416,8.53451 -10.79497,4.15144"
       id="path1681" /><path
       style="fill:none;stroke:#00ffff;stroke-width:0.3"
       d="m -11.896405,941.02114 c 0.143513,-3.85268 -0.953674,-4.00471 -3.011254,-0.0127 -0.415584,0.80629 -0.477309,2.5369 -0.364146,3.35126 0.30744,2.21255 1.751301,3.45062 3.067272,5.00174"
       id="path1795" /><path
       style="fill:none;stroke:#00ffff;stroke-width:0.3"
       d="m -16.01412,947.24496 c 0.99347,-2.47677 3.587205,-3.08362 6.0365292,-2.91034"
       id="path1797" /><path
       style="fill:none;stroke:#00ffff;stroke-width:0.3"
       d="m -7.69466,941.62587 c -2.461757,3.88744 1.7715018,1.99257 2.0868984,-0.0882 0.024527,-0.16174 -0.5482088,0.69035 -0.5462535,0.88191 0.010451,1.02481 0.9316561,1.8805 1.7927584,2.2678"
       id="path1799" /><path
       style="fill:none;stroke:#00ffff;stroke-width:0.3"
       d="m -2.4704833,943.86845 c -0.098978,-0.82577 -0.2582254,-1.61647 -0.5462191,-2.39377"
       id="path1801" /><path
       style="fill:none;stroke:#00ffff;stroke-width:0.3"
       d="m -3.6889795,939.40847 c -1.3442103,-0.99054 -1.5366444,-1.31294 -0.9804056,-2.70872"
       id="path1803" /><path
       style="fill:none;stroke:#00ffff;stroke-width:0.3"
       d="m -2.8626382,935.52804 c 1.5807743,2.04714 3.71215443,3.92015 4.8460422,6.29941"
       id="path1805" /><path
       style="fill:none;stroke:#00ffff;stroke-width:0.3"
       d="m 1.3951532,933.38624 c -0.48553951,-0.13438 -1.32223402,-0.88868 -1.45661854,-0.40315 -0.13438716,0.48554 0.97229082,0.26448 1.45661854,0.40315 1.7838949,0.51083 3.3657354,0.51334 4.397838,2.24261 1.1627643,1.94815 -0.8731674,4.57475 -2.8432019,4.91352 -1.3406781,0.23056 -0.3136397,-1.83806 -0.1540642,-2.17958"
       id="path1807" /><path
       style="fill:none;stroke:#00ffff;stroke-width:0.3"
       d="m -10.201693,953.83411 c 1.4723058,0.9851 6.8130976,3.55468 5.0841328,6.16083 -0.166616,0.25116 -0.4209071,0.4854 -0.7143035,0.55435 -1.2090638,0.28414 -2.1435245,-1.44841 -1.5266591,-2.39376 0.6504173,-0.9968 2.5712764,-0.6291 3.5294993,-1.32289 0.3437626,-0.24887 0.857332,-1.22952 0.4341839,-1.19687 -2.01041,0.15502 -1.1529139,4.07736 1.0364232,2.40636 0.4741069,-0.36185 0.7843335,-0.89872 1.1765015,-1.34808"
       id="path1809" /><path
       style="fill:none;stroke:#00ffff;stroke-width:0.3"
       d="m -0.00544776,953.27978 c -0.42017685,0.32338 -0.94483236,0.54415 -1.26052794,0.9701 -0.1604195,0.21645 -0.1307597,0.54747 -0.056018,0.80634 0.40463254,1.40129 1.62105704,1.99298 2.9692599,2.104 0.4038203,0.0333 1.1472968,0.23733 1.2044759,-0.16381 0.020399,-0.14306 -0.1680527,-0.23516 -0.2520791,-0.35274"
       id="path1811" /><path
       style="fill:none;stroke:#00ffff;stroke-width:0.3"
       d="m 2.1234479,954.90504 c 0.3874929,-0.25199 0.7686437,-0.51401 1.1624786,-0.75594 1.8420742,-1.13162 1.2006871,-3.1845 0.2100818,-2.40639 -1.4953112,1.17459 0.07887,4.3257 1.5966969,4.69937 1.4513269,0.3573 0.4624838,-4.40253 0.3921575,-5.07732 -0.042405,-0.40688 -0.1651132,-0.81648 -0.1120695,-1.22209 0.059293,-0.45339 0.7100781,0.58682 0.9944258,0.94491 0.6621436,0.83389 1.0553144,1.82573 1.6806915,2.65835 0.3663977,0.48781 0.084169,-1.21738 0.112067,-1.82682 0.047215,-1.03134 -0.340368,-2.33272 0.3781372,-3.07411 0.490048,-0.50565 2.0143043,3.37023 2.1429163,2.74653 0.35447,-1.719 0.0269,-3.80659 0.042,-5.54347 0.0033,-0.37666 -0.06265,-1.43875 0.140076,-1.1213 0.394102,0.61716 2.118537,7.02058 2.030849,7.54671"
       id="path1813" /><path
       style="fill:none;stroke:#00ffff;stroke-width:0.3"
       d="m 11.087206,950.49544 c -0.02334,-0.44516 -0.356886,-0.99425 -0.07004,-1.33548 0.533106,-0.63413 7.081811,-3.7524 7.899297,-3.35127"
       id="path1815" /><path
       style="fill:none;stroke:#00ffff;stroke-width:0.3"
       d="m 140.04769,1067.8375 c -0.77033,0.9617 -1.59428,1.8828 -2.31098,2.8851 -0.48112,0.6728 -0.9153,1.3841 -1.27451,2.1292 -0.25604,0.5311 -0.9636,2.0074 -0.4202,2.7717 1.27594,1.7947 4.8063,2.6462 6.56876,4.9388 0.2335,0.3037 0.46377,0.6755 0.44818,1.0583 -0.12062,2.9601 -5.74812,4.4583 -7.15698,1.6504 -0.60336,-1.2025 0.0587,-2.3183 0.42016,-3.4269"
       id="path1821" /><path
       style="fill:none;stroke:#00ffff;stroke-width:0.3"
       d="m 146.67246,1080.4111 c 0.20542,0.5039 0.57605,0.9691 0.61627,1.5118 0.077,1.0389 -1.49027,-0.068 -2.1009,-1.1087 -0.59306,-1.0104 -0.67537,-2.9868 -0.0981,-4.0442 0.2368,-0.4337 0.6809,-1.0303 1.1625,-0.9197 3.54727,0.8144 3.52277,5.8715 0.96641,7.6097 -2.21876,1.5086 -2.98325,-1.2208 -2.98325,-2.8348 0,-1.3791 0.21902,-1.6152 0.71429,-2.7087"
       id="path1823" /><path
       style="fill:none;stroke:#00ffff;stroke-width:0.3"
       d="m 156.86874,1075.9259 c 0.88802,1.6726 1.19361,3.5396 1.87677,5.2915 0.13297,0.341 0.29834,1.2945 0.49022,0.9827 0.44704,-0.7264 0.54141,-2.8269 0.58822,-3.2253 0.0348,-0.2961 0.0772,-1.1362 0.21008,-0.8693 0.35607,0.7153 1.40306,4.6961 1.93283,4.649 1.70016,-0.1513 0.0672,-4.4308 1.16245,-5.1026 0.0432,-0.027 2.56452,0.9722 3.7956,0.038 0.15172,-0.1151 0.50202,-0.4518 0.40617,-0.7307 -0.39386,-1.1462 -2.28267,0.098 -2.54908,0.3905 -0.61664,0.6771 -1.1598,1.5144 -1.30254,2.419 -0.49747,3.153 9.10336,3.5129 7.81529,1.2599"
       id="path1825" /><path
       style="fill:none;stroke:#00ffff;stroke-width:0.3"
       d="m 177.97553,1074.2502 c -5.4119,3.3299 3.75227,1.4764 3.83757,5.9467 0.0526,2.758 -4.84074,4.5987 -4.86,1.6504 -0.007,-1.0271 0.56959,-1.9738 0.85439,-2.9607"
       id="path1827" /><path
       style="fill:none;stroke:#00ffff;stroke-width:0.3"
       d="m 182.80756,1076.1023 c 1.27847,-0.1761 1.40499,5.3815 1.9748,5.4175 0.62463,0.039 1.44978,-3.183 1.6247,-3.8049 0.0548,-0.1949 0.0276,-0.7105 0.18203,-0.5795 0.35198,0.2985 0.69869,2.7782 0.89644,3.4143 0.2977,0.9576 0.17462,0.7999 0.93837,-0.6804 0.49882,-0.9668 0.87976,-1.9903 1.28852,-2.9985 0.0882,-0.2176 0.0495,-0.8248 0.22407,-0.6677 0.0571,0.051 0.4077,0.5914 0.40619,0.6173 -0.0498,0.8491 -1.67113,1.7702 -0.16806,2.9733 0.2925,0.2341 0.76859,0.04 1.12048,-0.088 0.91091,-0.3328 1.63822,-1.217 2.12887,-1.9906 0.13208,-0.2082 0.49027,-2.3207 -0.028,-1.5748 -0.31798,0.4576 -0.59664,0.9744 -0.68633,1.5244 -0.20039,1.2285 0.98653,6.5979 2.38104,2.8348"
       id="path1829" /><path
       style="fill:none;stroke:#00ffff;stroke-width:0.3"
       d="m 195.59487,1077.211 c -0.014,-0.6468 -0.028,-1.2935 -0.042,-1.9403 0.0188,-0.059 0.014,-0.2215 0.056,-0.1763 0.99177,1.0637 -0.70702,0.2748 -0.014,2.1166 1.87653,2.0833 1.43552,1.0686 2.04486,3.5528 0.0693,0.2827 0.10707,0.5722 0.16806,0.8568 0.0138,0.064 0.0697,0.2532 0.056,0.189 -0.12544,-0.5894 -0.63534,-2.6283 -0.68627,-2.7214 -0.39259,-0.7182 -1.30861,-1.106 -1.58266,-1.8772 -0.91856,-2.5848 0.70628,-5.0007 3.20736,-3.2127 1.5218,1.0879 1.90764,3.106 0.71432,4.5985 -0.3343,0.4182 -0.81185,1.0981 -1.31659,0.9198 -1.09334,-0.3864 -1.73673,-1.5371 -2.60509,-2.3056 z"
       id="path1831" /><path
       style="fill:none;stroke:#00ffff;stroke-width:0.3"
       d="m 211.82767,1070.4706 c -0.20542,0.6341 -0.54028,1.2402 -0.61627,1.9024 -0.18259,1.5915 0.70848,3.5144 1.14848,5.0144 0.12454,0.4245 0.18428,0.4881 -0.014,0.1511"
       id="path1833" /><path
       style="fill:none;stroke:#00ffff;stroke-width:0.3"
       d="m 210.09092,1074.54 c 0.80396,-1.9759 0.35954,-1.6625 1.7087,-2.7843 1.80391,-1.4999 1.52149,-0.7267 2.18496,1.1339 0.63913,1.7923 0.78891,1.9925 1.66666,3.6536 0.18751,0.3549 0.37658,0.709 0.57423,1.0583 0.0686,0.1213 0.0885,0.3207 0.22413,0.3528 0.095,0.022 0.0317,-0.1927 0.042,-0.2898 0.39947,-3.737 0.13168,-1.8564 0.47617,-4.0442 0.0238,-0.1511 0.0148,-0.3109 0.07,-0.4535 1.8e-4,0 0.2264,1.5676 1.13448,2.5449 0.69903,0.7524 1.36673,0.403 1.93283,-0.5543 1.62811,-2.7534 -1.9903,-2.0625 -1.82081,-0.4158 0.14042,1.364 3.36106,2.9456 4.38388,2.6079 0.27657,-0.091 0.35481,-0.4619 0.53221,-0.6929"
       id="path1835" /><path
       style="fill:none;stroke:#00ffff;stroke-width:0.3"
       d="m 228.04641,1073.3557 c 0.49954,0.2688 0.96063,0.6265 1.49863,0.8064 1.87444,0.6265 1.03217,-4.2676 -1.49863,-0.8064 -0.54951,0.7516 -1.00171,1.6902 -0.96641,2.6206 0.0292,0.7692 1.68645,1.37 2.25496,1.4362 2.52608,0.2943 2.57159,-3.618 2.26894,-5.2033 -0.004,-0.022 -0.4226,-1.4895 -0.028,-1.2976 0.0559,0.027 2.36114,3.7775 2.32495,3.8426 -0.0331,0.06 -0.50358,0.047 -0.68628,-0.9953 -0.26247,-1.4977 -0.11896,-3.7597 1.2745,-4.7624 0.11689,-0.084 0.0458,0.2848 0.0561,0.4284 0.0824,1.1532 0.0953,1.6462 0.53218,2.6835 0.083,0.1972 0.53234,0.9253 0.70033,1.2347 0.0265,0.049 0.11131,0.1883 0.07,0.1512 -0.97729,-0.8783 -0.71507,-3.0349 -0.56026,-4.1198 0.051,-0.3576 0.003,-1.0402 0.36415,-1.0205 0.44601,0.024 0.60383,0.6606 0.86839,1.0205 0.43887,0.9617 0.92846,1.9019 1.3166,2.8851 0.0617,0.1564 -0.0176,1.5819 -0.51828,0.7938 -0.45066,-0.7095 -0.83063,-3.6042 -0.79832,-3.6789 1.66428,-3.8498 3.72892,2.5182 2.26896,3.2253 -0.15376,0.074 -0.21486,-0.8578 -0.11203,-1.6252 0.28654,-2.1387 0.58602,-3.1009 1.66667,-5.0144 0.0385,-0.068 0.15217,0.087 0.16811,0.1638 2.38532,11.4559 -0.3106,-0.2819 1.03643,5.2915 0.09,0.3724 0.20177,0.7415 0.25211,1.1213 0.0114,0.086 -0.0406,0.334 -0.0701,0.252 -0.28137,-0.7823 -0.63798,-1.5648 -0.70025,-2.3938 -0.0456,-0.607 0.64731,-5.2576 2.507,-4.019 0.29938,0.1994 0.44818,0.5627 0.67227,0.8441"
       id="path1837" /><path
       style="fill:none;stroke:#00ffff;stroke-width:0.3"
       d="m 136.29411,1098.7549 c -0.14358,-0.8931 -0.31706,-5.7144 1.27455,-5.9214 1.44281,-0.1876 1.34122,2.7989 1.31655,3.5529 -0.013,0.3982 0.2606,-0.7532 0.37816,-1.1339"
       id="path1839" /><path
       style="fill:none;stroke:#00ffff;stroke-width:0.3"
       d="m 142.56875,1094.7233 c 1.73392,1.6887 -1.33064,2.9442 -1.30257,1.1969 0.0153,-0.9472 0.61333,-5.4991 2.96926,-3.8804 1.16612,0.8012 1.20843,2.3829 0.95239,3.6158 -0.0818,0.3939 -0.42995,1.5083 -0.47622,1.1087 -0.0483,-0.4171 0,-0.8399 0,-1.2599"
       id="path1841" /><path
       style="fill:none;stroke:#00ffff;stroke-width:0.3"
       d="m 145.46795,1091.9516 c 1.51683,0.3781 1.01637,0.01 2.03086,1.3607 0.0928,0.1239 1.81692,2.1501 1.41459,2.6835 -0.2087,0.2767 -1.62615,-1.1615 -0.60227,-1.6505 0.71557,-0.3416 5.08852,-0.4012 4.32779,-1.915 -0.74715,-1.4867 -3.46138,0.5962 -2.89917,1.8395 0.82436,1.823 4.28413,1.9865 5.78437,1.2724 0.43546,-0.2072 0.58828,-0.7643 0.88242,-1.1464"
       id="path1843" /><path
       style="fill:none;stroke:#00ffff;stroke-width:0.3"
       d="m 160.16013,1091.3342 c 0.44349,0.9029 0.89529,1.8018 1.33048,2.7088 1.28781,2.6838 0.69607,-1.8619 1.58268,-1.5245 1.04437,0.3975 1.42291,2.0281 2.61909,2.3812 0.97226,0.287 1.44359,-5.4774 1.49863,-3.7922"
       id="path1845" /><path
       style="fill:none;stroke:#00ffff;stroke-width:0.3"
       d="m 167.98939,1092.8083 c 0.7026,-0.9421 0.7253,-1.2207 0.3081,-2.1418"
       id="path1847" /><path
       style="fill:none;stroke:#00ffff;stroke-width:0.3"
       d="m 168.25548,1088.7893 c 0.0934,-0.5376 0.12811,-1.0887 0.28008,-1.6127 0.0714,-0.2463 0.53047,-0.9448 0.74235,-1.1717 0.6596,-0.7063 0.80766,1.6513 1.27455,3.3639 0.0448,0.1645 0.8179,2.806 0.89635,3.1875 0.13341,0.6489 0.077,1.4796 -0.58822,0.8064"
       id="path1849" /><path
       style="fill:none;stroke:#00ffff;stroke-width:0.3"
       d="m 169.9922,1091.6492 c -0.763,-0.3502 2.09063,-2.7194 2.437,-1.3985 0.20696,0.7893 0.13383,2.8758 1.35856,3.0993 1.00824,0.1841 1.217,-2.0496 1.55469,-1.8268 0.27037,0.1784 0.23926,0.6106 0.43415,0.8693 0.53245,0.7068 0.66868,0.7528 1.24651,1.1339"
       id="path1851" /><path
       style="fill:none;stroke:#00ffff;stroke-width:0.3"
       d="m 187.80763,1087.5042 c -1.53543,1.8103 -0.0889,4.2728 0.26609,5.9341"
       id="path1853" /><path
       style="fill:none;stroke:#00ffff;stroke-width:0.3"
       d="m 186.23894,1091.2712 c 0.0754,-1.1075 0.5847,-2.078 1.82081,-2.167 1.748,-0.1257 1.8524,4.0092 1.93276,4.0065 0.70918,-0.025 1.03626,-2.675 1.3866,-2.8852 0.009,-0.01 0.15332,0.5361 0.75631,0.9954 0.66884,0.5093 1.34427,1.253 2.18495,1.2598 1.59475,0.013 1.6151,-1.3774 0.42016,-2.167 -0.96279,-0.6361 -2.05398,0.7983 -1.10648,1.6001 0.98313,0.8319 4.99324,2.3745 6.20461,1.2851"
       id="path1855" /><path
       style="fill:none;stroke:#00ffff;stroke-width:0.3"
       d="m 204.29249,1087.731 c 0.72647,1.7188 0.72986,3.6107 1.24656,5.3797 0.0542,0.1856 0.0793,0.6396 0.23807,0.5291 1.16584,-0.811 1.23518,-2.8572 2.53511,-3.641 1.07363,-0.6474 1.63422,2.9108 1.69471,3.6158"
       id="path1857" /><path
       style="fill:none;stroke:#00ffff;stroke-width:0.3"
       d="m 211.08538,1091.4476 c -0.35301,-1.2113 -0.47315,-2.3712 -0.43421,-3.6158 0.39217,-0.8147 0.78433,-1.6295 1.1765,-2.4442 0.21008,0.8357 0.42016,1.6715 0.63025,2.5072 -0.0374,0.5543 -0.2413,1.1227 -0.11204,1.663 0.37177,1.5541 3.88381,-1.8038 2.40902,-3.0741 -0.10617,-0.091 -0.43255,-0.127 -0.42017,0.013 0.19141,2.158 3.13933,6.3625 0.58822,8.2144 -0.26235,0.1905 -0.60581,0.3625 -0.92439,0.3024 -2.29045,-0.432 -0.77568,-4.2052 -0.22407,-5.7451"
       id="path1859" /><path
       style="fill:none;stroke:#00ffff;stroke-width:0.3"
       d="m 214.62881,1087.8318 c 0.66715,1.2568 0.99068,-2.1372 1.6247,-1.8017 0.6676,0.3533 0.947,3.0197 1.03643,3.5277 0.15404,0.8752 0.16751,1.1273 0.15407,1.8898 0,0.051 -0.0304,0.1991 -0.014,0.1512 0.0907,-0.2651 0.11965,-0.5523 0.23807,-0.8063 0.30824,-0.6612 0.62535,-1.325 1.03648,-1.9276 1.10088,-1.6138 1.21836,2.624 1.73668,3.0237 0.28881,0.2227 0.79737,-2.0035 1.20454,-2.167 0.25987,-0.1044 2.68636,-0.6986 2.46504,-0.9575 -0.49776,-0.5823 -3.80243,3.9683 -0.53226,4.0316 1.85872,0.036 5.30116,-3.3426 3.1233,-4.6364 -1.48479,-0.882 1.23822,1.9644 1.3866,2.3686 0.19341,0.527 0.25479,1.1211 0.16804,1.6756 -0.17328,1.1078 -4.1969,3.8411 -2.60504,-0.3401"
       id="path1861" /><path
       style="fill:none;stroke:#00ffff;stroke-width:0.3"
       d="m 228.28454,1086.4837 c 0.0654,-0.3486 0.13597,-0.6962 0.19611,-1.0457 0.0601,-0.3495 -0.2776,0.7006 -0.19611,1.0457 0.26244,1.1115 0.76044,2.1547 1.19049,3.2127 0.62008,1.5254 1.0672,1.0027 0.36415,1.5748"
       id="path1863" /><path
       style="fill:none;stroke:#00ffff;stroke-width:0.3"
       d="m 227.64025,1089.8602 c 1.28895,-2.4629 3.49822,-2.0371 6.06454,-2.3434"
       id="path1865" /><path
       style="fill:none;stroke:#00ffff;stroke-width:0.3"
       d="m 239.4612,1088.7767 c -0.71914,-1.4664 -0.91747,-1.2116 -0.29414,-2.9607 0.24183,-0.6787 0.55761,-1.3376 0.95242,-1.9403 2.14006,-3.2667 1.79899,2.698 2.54903,2.923"
       id="path1867" /><path
       style="fill:none;stroke:#00ffff;stroke-width:0.3"
       d="m 245.45573,1086.1687 c -4.57139,1.4977 0.18561,-4.938 1.40058,-3.5654 1.72111,1.9443 -1.01061,9.5049 0.93837,1.9276"
       id="path1869" /><path
       style="fill:none;stroke:#00ffff;stroke-width:0.3"
       d="m 248.84515,1082.0363 c 0.28012,0.4746 0.72028,0.8858 0.84032,1.4237 0.12933,0.5794 -0.0456,1.1883 -0.12608,1.7764 -0.62158,4.545 0.34746,-3.9386 2.82919,-2.8851 0.0361,0.015 1.17303,4.0996 1.40063,4.6364"
       id="path1871" /><path
       style="fill:none;stroke:#00ffff;stroke-width:0.3"
       d="m 134.31928,1109.6907 c 0.57892,0.168 1.13681,0.4453 1.73674,0.504 2.4876,0.2432 1.07359,-3.3612 -1.06443,-1.7009 -0.36141,0.2807 -0.6354,0.7408 -0.67231,1.1969 -0.0754,0.9324 -0.11949,1.9754 0.35016,2.7843 0.85263,1.4687 4.95933,0.4938 5.49028,-0.8567 0.16015,-0.4073 0.056,-0.8735 0.0841,-1.3102"
       id="path1873" /><path
       style="fill:none;stroke:#00ffff;stroke-width:0.3"
       d="m 139.68354,1106.982 c 2.3163,2.7492 1.85873,1.7177 3.05327,4.8883 0.0801,0.2126 0.18751,0.8549 0.042,0.6803 -0.6621,-0.7941 -0.47358,-2.558 -0.56026,-3.5402"
       id="path1875" /><path
       style="fill:none;stroke:#00ffff;stroke-width:0.3"
       d="m 143.03092,1106.3898 c 0.94353,-3.793 2.85732,2.7862 2.99728,3.7419 0.0447,0.3051 0.0992,1.0336 -0.18208,0.9071 -0.97007,-0.4363 -1.48085,-6.7997 0.89635,-4.145"
       id="path1877" /><path
       style="fill:none;stroke:#00ffff;stroke-width:0.3"
       d="m 148.64729,1108.9474 c 0.0374,0.3779 -0.26594,1.1712 0.11205,1.1339 0.37795,-0.037 0.0172,-0.7767 -0.11205,-1.1339 -0.0968,-0.2678 -2.28857,-2.6715 -0.51822,-2.9985 1.57327,-0.2907 2.49373,2.2132 2.29693,3.3638 -0.0475,0.2777 -0.0462,0.8378 -0.3221,0.7812 -0.60526,-0.1243 -0.97108,-0.7643 -1.45661,-1.1465 z"
       id="path1879" /><path
       style="fill:none;stroke:#00ffff;stroke-width:0.3"
       d="m 150.36999,1104.7142 c 0.42018,0.4158 0.95136,0.7435 1.26055,1.2473 0.2844,0.4634 1.44555,2.9392 1.47058,4.019 0.003,0.098 -0.30996,1.1023 -0.58822,0.2646 -0.19127,-0.5759 -0.33618,-1.1823 -0.33618,-1.7891 0,-0.2034 0.62841,-5.2546 2.04489,-3.578"
       id="path1881" /><path
       style="fill:none;stroke:#00ffff;stroke-width:0.3"
       d="m 162.17694,1110.1821 c -0.007,-1.6395 -0.17134,-4.5265 1.44261,-5.7073 0.50705,-0.371 0.86969,1.2818 1.07845,2.419 0.25127,1.3687 -0.0992,2.0102 0.85431,1.0205"
       id="path1883" /><path
       style="fill:none;stroke:#00ffff;stroke-width:0.3"
       d="m 168.91376,1108.0025 c -0.4295,0.105 -0.99954,0.6496 -1.28855,0.3149 -0.95176,-1.102 1.69926,-7.0732 2.8852,-2.4819 0.33912,1.3128 0.15325,1.6591 0.07,2.8725 -0.004,0.06 0.0324,-0.1167 0.042,-0.1764 0.0744,-0.4613 0.14004,-0.9239 0.21008,-1.3858"
       id="path1885" /><path
       style="fill:none;stroke:#00ffff;stroke-width:0.3"
       d="m 171.18269,1105.4953 c 0.92417,-6.0781 3.3841,2.8594 2.95522,3.5025 -0.18688,0.2801 -0.57426,0.5645 -0.89636,0.4661 -0.70736,-0.216 -1.28588,-2.3272 -0.7843,-2.9103 0.86762,-1.0086 4.00195,0.1561 5.2942,-0.4913 0.95996,-0.481 -0.31893,-2.0603 -1.19054,-1.4111 -6.071,4.5221 2.56995,6.0074 3.92168,4.0694 0.17261,-0.2475 0.16803,-0.5795 0.25207,-0.8693"
       id="path1887" /></g></svg>
