<?xml version="1.0" encoding="UTF-8" standalone="no"?>
<!-- Created with Inkscape (http://www.inkscape.org/) -->

<svg
   width="1967.4601mm"
   height="837.7002mm"
   viewBox="0 0 1967.46 837.70021"
   version="1.1"
   id="svg12"
   inkscape:version="1.2.1 (9c6d41e410, 2022-07-14, custom)"
   sodipodi:docname="addition_property_of_difference.svg"
   xml:space="preserve"
   xmlns:inkscape="http://www.inkscape.org/namespaces/inkscape"
   xmlns:sodipodi="http://sodipodi.sourceforge.net/DTD/sodipodi-0.dtd"
   xmlns="http://www.w3.org/2000/svg"
   xmlns:svg="http://www.w3.org/2000/svg"><sodipodi:namedview
     id="namedview14"
     pagecolor="#505050"
     bordercolor="#eeeeee"
     borderopacity="1"
     inkscape:showpageshadow="0"
     inkscape:pageopacity="0"
     inkscape:pagecheckerboard="0"
     inkscape:deskcolor="#505050"
     inkscape:document-units="mm"
     showgrid="true"
     inkscape:zoom="0.12176488"
     inkscape:cx="3827.0477"
     inkscape:cy="3285.0195"
     inkscape:window-width="1366"
     inkscape:window-height="746"
     inkscape:window-x="0"
     inkscape:window-y="0"
     inkscape:window-maximized="1"
     inkscape:current-layer="layer1"
     inkscape:lockguides="false"><inkscape:grid
       type="xygrid"
       id="grid344"
       color="#969696"
       opacity="0.39215686"
       empcolor="#000000"
       empopacity="0.17254902"
       dotted="false"
       originx="-137.50165"
       originy="-10073.731" /></sodipodi:namedview><defs
     id="defs9" /><g
     inkscape:label="Layer 1"
     inkscape:groupmode="layer"
     id="layer1"
     transform="translate(-242.50167,-10222.23)"><path
       style="fill:none;stroke:#ffffff;stroke-width:5.5"
       d="m 959.03365,10243.864 c 0.19564,29.67 -11.88826,58.321 -23.48748,85.247 -4.28869,9.956 -1.10649,2.089 -4.791,10.827 -0.53546,1.27 -2.5841,4.598 -1.40224,3.889 17.05459,-10.227 52.80999,-10.563 72.21527,-8.83 6.7337,0.602 13.3212,1.511 19.9818,2.628 2.2729,0.381 8.2849,3.11 6.7776,1.367 -18.3616,-21.236 -30.23385,-46.437 -43.93684,-70.847 -2.35836,-4.201 -9.15508,-16.445 -8.53027,-11.668"
       id="path1017" /><path
       style="fill:none;stroke:#ffffff;stroke-width:5.5"
       d="m 1104.8663,10224.102 c -27.9913,30.124 -31.3883,72.381 -22.0852,111.211 2.4821,10.36 13.7934,25.513 20.0987,34.057 3.6295,4.918 8.1653,9.21 11.2179,14.505 0.469,0.814 -1.3243,-1.331 -1.9865,-1.997"
       id="path1019" /><path
       style="fill:none;stroke:#ffffff;stroke-width:5.5"
       d="m 1178.0164,10266.253 c -23.4293,17.914 -23.3313,37.838 -14.4898,64.224 1.8514,5.526 7.8995,17.702 6.6606,18.816 -2.3586,2.121 -5.2815,-3.598 -7.4786,-5.886"
       id="path1021" /><path
       style="fill:none;stroke:#ffffff;stroke-width:5.5"
       d="m 1141.3245,10318.81 c 7.1475,-9.97 40.1937,1.292 43.7031,-3.048"
       id="path1023" /><path
       style="fill:none;stroke:#ffffff;stroke-width:5.5"
       d="m 1253.1529,10276.344 c -18.093,7.812 -30.0845,34.177 -19.9819,52.662 1.4355,2.627 11.4656,15.56 17.1774,10.301 2.41,-2.219 3.2719,-5.676 4.9079,-8.514"
       id="path1025" /><path
       style="fill:none;stroke:#ffffff;stroke-width:5.5"
       d="m 1276.6404,10291.69 c 8.0593,13.831 -1.1953,24.787 -7.5954,37.526 -5.9589,11.861 -5.2455,10.953 -8.063,-2.733"
       id="path1027" /><path
       style="fill:none;stroke:#ffffff;stroke-width:5.5"
       d="m 1258.2944,10299.995 c 8.5093,2.751 36.133,20.463 36.8088,30.798 0.075,1.147 -1.4655,-1.777 -2.1034,-2.733"
       id="path1029" /><path
       style="fill:none;stroke:#ffffff;stroke-width:5.5"
       d="m 1288.4425,10256.372 c 4.6352,2.032 9.9202,2.977 13.9056,6.097 20.9686,16.413 31.7111,55.498 28.5122,80.727 -1.4745,11.629 -8.2041,27.694 -16.5932,12.929"
       id="path1031" /><path
       style="fill:none;stroke:#ffffff;stroke-width:5.5"
       d="m 1370.2398,10299.469 c 3.0434,6.504 8.7394,48.824 3.0382,48.457"
       id="path1033" /><path
       style="fill:none;stroke:#ffffff;stroke-width:5.5"
       d="m 1402.9586,10331.213 c -10.8435,-3.751 -21.3775,-3.239 -32.9525,-2.207 10.9842,0.736 21.9571,2.75 32.9525,2.207 6.9201,-0.342 13.3814,-3.695 20.2156,-4.835 2.1861,-0.364 -6.589,4.426 -20.2156,4.835 -8.2913,0.249 -38.5808,-0.518 -47.4424,-2.733 -1.4536,-0.363 2.4758,-2.156 3.9731,-2.102 3.611,0.131 6.907,2.788 10.5168,2.628 32.1525,-1.426 13.2297,-9.889 32.9525,2.207 z"
       id="path1035" /><path
       style="fill:none;stroke:#ffffff;stroke-width:5.5"
       d="m 1488.9625,10295.685 c -8.1323,2.776 -33.2348,25.288 -22.4358,36.264 12.3844,12.587 33.0692,-13.188 34.7054,-23.545 0.438,-2.773 0.5467,-6.284 -1.4023,-8.304 -2.7146,-2.815 -11.0471,-8.321 -10.8673,-4.415 0.8821,19.155 37.0325,42.923 32.2515,63.594 -6.2238,26.909 -50.5762,22.298 -42.5346,-2.418"
       id="path1037" /><path
       style="fill:none;stroke:#ffffff;stroke-width:5.5"
       d="m 1574.8496,10290.534 c 4.3484,-24.86 0.3301,-0.369 0,0 -28.7381,32.127 -12.806,-13.132 -31.4335,38.156 -1.2704,3.499 -2.1121,7.699 -0.7011,11.143 7.9068,19.297 11.3792,21.802 25.1234,30.693 0.2083,0.135 23.0937,15.491 13.5549,9.881"
       id="path1043" /><path
       style="fill:none;stroke:#ffffff;stroke-width:5.5"
       d="m 1617.0335,10320.597 c -5.8616,9.673 -9.6181,20.347 -13.7887,30.798 -0.6311,1.582 -1.8193,5.943 -2.5707,4.415 -0.9257,-1.883 -3.9286,-12.411 -4.2067,-13.35"
       id="path1045" /><path
       style="fill:none;stroke:#ffffff;stroke-width:5.5"
       d="m 1591.6764,10322.068 c 3.9645,1.467 46.6544,33.538 47.2087,32.901 2.8138,-3.234 -3.6409,-7.779 -5.8427,-11.457"
       id="path1047" /><path
       style="fill:none;stroke:#ffffff;stroke-width:5.5"
       d="m 1631.1728,10262.154 c 5.6089,2.487 11.9676,3.716 16.8268,7.462 19.4693,15.012 25.2251,54.838 23.3706,77.049 -1.4669,17.568 -4.4659,23.9 -11.101,38.892 -1.7667,3.992 -5.1357,8.709 -1.7528,4.836"
       id="path1049" /><path
       style="fill:none;stroke:#ffffff;stroke-width:5.5"
       d="m 1676.9792,10233.878 c 13.805,11.28 23.6267,27.151 28.9796,44.148 12.4285,39.464 5.5155,74.338 -12.9708,110.474 -4.1576,8.128 -13.3665,24.03 -19.6313,32.691 -4.4041,6.088 -3.6547,4.622 -3.0381,1.156"
       id="path1051" /><path
       style="fill:none;stroke:#ffffff;stroke-width:5.5"
       d="m 1766.7223,10309.455 c -1.1715,-5.272 73.2711,-13.735 40.8986,0.42"
       id="path1053" /><path
       style="fill:none;stroke:#ffffff;stroke-width:5.5"
       d="m 1757.3741,10332.264 c 19.8153,1.861 55.386,-12.328 73.2669,-0.63"
       id="path1055" /><path
       style="fill:none;stroke:#ffffff;stroke-width:5.5"
       d="m 871.71849,10447.349 c -25.8015,6.601 -29.7327,37.567 -24.5392,60.23 1.3021,5.682 5.2811,13.725 7.8292,18.921 2.9603,6.036 4.1817,8.556 3.7394,8.514 -0.8651,-0.08 -3.9004,-2.534 -4.4404,-2.943"
       id="path1057" /><path
       style="fill:none;stroke:#ffffff;stroke-width:5.5"
       d="m 824.86039,10514.096 c 12.7924,-6.556 32.2984,-15.887 47.3255,-8.514"
       id="path1059" /><path
       style="fill:none;stroke:#ffffff;stroke-width:5.5"
       d="m 919.74509,10458.911 c 2.8435,-2.978 11.5086,-6.091 8.5304,-8.934 -2.9783,-2.844 -5.7499,5.897 -8.5304,8.934 -6.4908,7.09 -14.5644,13.068 -19.2807,21.444 -10.5572,18.748 9.8674,53.919 24.8897,44.778"
       id="path1061" /><path
       style="fill:none;stroke:#ffffff;stroke-width:5.5"
       d="m 940.19449,10480.46 c 8.0791,0.413 1.066,52.63 -9.1146,33.005"
       id="path1063" /><path
       style="fill:none;stroke:#ffffff;stroke-width:5.5"
       d="m 926.28889,10492.758 c 17.145,3.966 31.3814,13.682 45.6896,23.335 0.9428,0.636 -1.8037,-1.386 -2.6877,-2.102"
       id="path1065" /><path
       style="fill:none;stroke:#ffffff;stroke-width:5.5"
       d="m 982.72889,10472.997 c 2.3025,3.698 8.1802,35.213 -1.4022,35.213 15.5767,-12.05 13.9769,-12.294 25.70781,-13.56"
       id="path1067" /><path
       style="fill:none;stroke:#ffffff;stroke-width:5.5"
       d="m 1012.0592,10469.948 c 3.3159,1.601 13.2044,48.245 13.2044,39.839"
       id="path1069" /><path
       style="fill:none;stroke:#ffffff;stroke-width:5.5"
       d="m 1033.3264,10438.099 c 3.0382,-0.351 6.6438,-2.854 9.1145,-1.051 15.2768,11.144 21.2797,47.277 20.0987,62.858 -1.005,13.26 -4.8732,26.213 -8.8807,38.892 -4.2873,13.565 -10.7207,19.719 -12.5034,15.977"
       id="path1071" /><path
       style="fill:none;stroke:#ffffff;stroke-width:5.5"
       d="m 1103.3214,10492.443 c 7.7238,7.217 23.6949,-12.107 33.1863,-5.466"
       id="path1073" /><path
       style="fill:none;stroke:#ffffff;stroke-width:5.5"
       d="m 1196.1028,10460.698 c -20.2505,-1.756 -23.5278,17.985 -19.164,33.637 1.1375,4.08 16.4419,26.345 3.1551,25.017"
       id="path1075" /><path
       style="fill:none;stroke:#ffffff;stroke-width:5.5"
       d="m 1160.5794,10510.312 c -3.116,-2.172 -7.1758,-9.633 -9.3482,-6.517 -2.1724,3.116 5.6219,7.254 9.3482,6.517 7.3124,-1.446 11.95,-9.18 18.8133,-12.088 6.2345,-2.642 13.5382,-1.268 20.0989,-2.943"
       id="path1077" /><path
       style="fill:none;stroke:#ffffff;stroke-width:5.5"
       d="m 1230.4576,10452.605 c -22.5057,1.419 -8.1015,75.513 12.8538,58.548"
       id="path1079" /><path
       style="fill:none;stroke:#ffffff;stroke-width:5.5"
       d="m 1258.7361,10473.207 c 1.2464,-3.013 6.7526,-7.793 3.7393,-9.04 -3.0133,-1.246 -3.137,5.835 -3.7393,9.04 -2.8988,15.424 -2.3083,48.105 -13.5551,37.21"
       id="path1081" /><path
       style="fill:none;stroke:#ffffff;stroke-width:5.5"
       d="m 1240.3902,10488.343 c 4.9467,-0.49 9.9562,-2.397 14.8402,-1.471 5.778,1.095 26.2414,21.915 17.9955,8.934"
       id="path1083" /><path
       style="fill:none;stroke:#ffffff;stroke-width:5.5"
       d="m 1275.0955,10428.323 c 4.0509,2.348 8.8337,3.74 12.1528,7.043 25.6405,25.511 37.9776,77.187 13.2044,106.901"
       id="path1085" /><path
       style="fill:none;stroke:#ffffff;stroke-width:5.5"
       d="m 1373.4823,10448.95 c -3.3596,8.655 8.7335,63.048 1.0517,74.211 -0.6436,0.935 -2.1813,-0.631 -3.2719,-0.946"
       id="path1087" /><path
       style="fill:none;stroke:#ffffff;stroke-width:5.5"
       d="m 1359.3431,10507.919 c 1.4801,-3.399 1.6206,-7.789 4.4404,-10.196 12.3667,-10.554 45.7904,-9.49 61.4647,-8.619"
       id="path1089" /><path
       style="fill:none;stroke:#ffffff;stroke-width:5.5"
       d="m 1473.5086,10469.657 c -5.1416,4.065 -10.8567,7.494 -15.4247,12.194 -18.257,18.784 46.8634,14.415 33.3033,-10.512 -0.8798,-1.617 -19.7746,-17.883 -17.8786,-1.682 2.7132,23.186 39.0263,43.654 44.521,67.378 4.9918,21.554 -54.8361,12.836 -43.002,-7.568"
       id="path1091" /><path
       style="fill:none;stroke:#ffffff;stroke-width:5.5"
       d="m 1560.3304,10452.209 c -23.8975,23.29 -35.8364,42.185 -11.4515,71.687 3.7133,4.493 23.4746,12.436 24.0717,1.156"
       id="path1093" /><path
       style="fill:none;stroke:#ffffff;stroke-width:5.5"
       d="m 1591.4134,10477.751 c 14.3441,-39.478 -10.8993,38.923 -13.7888,42.887 -0.4143,0.568 -0.9348,-1.051 -1.4022,-1.577"
       id="path1095" /><path
       style="fill:none;stroke:#ffffff;stroke-width:5.5"
       d="m 1575.2877,10486.581 c 8.4184,-1.754 26.2809,41.767 32.3682,41.1 1.7092,-0.188 2.5112,-5.454 2.6877,-6.202"
       id="path1097" /><path
       style="fill:none;stroke:#ffffff;stroke-width:5.5"
       d="m 1618.757,10482.482 c 2.744,11.188 6.5495,25.031 -4.5574,32.585 -10.6305,-31.951 33.8277,-8.391 36.692,-24.281"
       id="path1099" /><path
       style="fill:none;stroke:#ffffff;stroke-width:5.5"
       d="m 1652.7613,10454.416 c 13.0275,20.557 19.3413,44.101 22.2022,68.114"
       id="path1101" /><path
       style="fill:none;stroke:#ffffff;stroke-width:5.5"
       d="m 1681.5421,10434.377 c 12.3108,9.003 16.7974,10.496 25.1235,23.44 23.3286,36.269 23.8776,76.75 1.9865,112.788 -2.4921,4.102 -14.1295,25.761 -16.1258,10.196"
       id="path1103" /><path
       style="fill:none;stroke:#ffffff;stroke-width:5.5"
       d="m 1760.7684,10488.511 c 10.3214,-5.399 25.7162,-8.29 35.056,-9.566"
       id="path1105" /><path
       style="fill:none;stroke:#ffffff;stroke-width:5.5"
       d="m 1871.3116,10462.337 c -17.9538,-17.958 -55.3434,33.81 -30.2649,31.009 2.8887,-0.323 30.4893,-4.549 32.8356,-15.978 1.0224,-4.979 -2.213,-20.101 -2.5707,-15.031 -2.1077,29.865 25.019,48.769 21.0336,69.796 -5.7491,30.331 -51.286,14.87 -55.2715,-16.503"
       id="path1109" /><path
       style="fill:none;stroke:#ffffff;stroke-width:5.5"
       d="m 1948.6684,10448.778 c -6.349,5.921 -13.9695,10.722 -19.0471,17.764 -19.7311,27.366 -1.3052,79.714 30.8491,48.457"
       id="path1111" /><path
       style="fill:none;stroke:#ffffff;stroke-width:5.5"
       d="m 1983.958,10466.437 c -4.272,19.094 -2.8202,17.298 -12.1526,36.579 -2.9125,6.018 -6.1534,11.887 -9.6991,17.554 -1.8836,3.012 -3.9174,10.801 -6.5437,8.41 -4.2889,-3.906 -2.0254,-11.423 -3.0382,-17.134"
       id="path1113" /><path
       style="fill:none;stroke:#ffffff;stroke-width:5.5"
       d="m 1955.6796,10471.587 c 10.5097,14.874 20.2255,30.267 31.6672,44.464 1.1932,1.48 3.4586,6.064 3.856,4.204 0.5344,-2.5 -2.1812,-4.625 -3.2718,-6.937"
       id="path1115" /><path
       style="fill:none;stroke:#ffffff;stroke-width:5.5"
       d="m 1989.0996,10416.718 c 4.9856,2.382 11.4755,2.856 14.9572,7.148 22.429,27.644 23.6336,121.998 -11.2178,141.798"
       id="path1117" /><path
       style="fill:none;stroke:#ffffff;stroke-width:5.5"
       d="m 245.58349,10454.745 c -0.54155,13.641 -0.90147,7.449 2.4539,25.438 0.91842,4.924 2.07603,9.8 3.03821,14.716 1.10232,5.631 2.26171,11.255 3.15501,16.923 7.02984,44.607 -19.81736,-29.444 5.14156,-19.446 10.66056,4.27 15.98607,17.06 16.82684,27.54 0.34832,4.342 -3.50441,19.234 -6.54379,12.509 -1.69553,-3.752 -2.25914,-7.919 -3.38873,-11.878"
       id="path1227" /><path
       style="fill:none;stroke:#ffffff;stroke-width:5.5"
       d="m 300.15388,10485.964 c 9.52251,-0.735 8.53622,45.939 -5.14155,37.736"
       id="path1229" /><path
       style="fill:none;stroke:#ffffff;stroke-width:5.5"
       d="m 274.67993,10496.581 c 11.65772,2.837 24.87657,11.06 37.27614,8.829"
       id="path1231" /><path
       style="fill:none;stroke:#ffffff;stroke-width:5.5"
       d="m 347.24571,10476.189 c 5.53895,5.338 38.88875,30.847 28.3953,44.358 -7.34991,9.463 -21.4943,-10.832 -23.9549,-15.557 -2.03679,-3.911 6.3092,-1.583 21.73467,1.681 7.57719,1.604 19.93845,5.734 27.81105,2.523 7.07421,-2.885 -0.58277,-19.447 -4.32356,-16.923 -3.18439,2.148 -5.58541,5.817 -6.42694,9.565 -3.89282,17.338 15.8968,31.963 30.14811,22.705"
       id="path1233" /><path
       style="fill:none;stroke:#ffffff;stroke-width:5.5"
       d="m 428.69232,10486.279 c -4.87918,15.515 -7.88971,13.178 -1.05166,25.648 4.23439,7.723 8.63115,8.762 8.29656,9.04 -0.63846,0.53 -1.63594,0.28 -2.4539,0.421 -7.62965,-18.175 -11.9725,-14.535 7.47857,-19.446 11.38016,-2.874 9.98206,-2.762 18.2291,-1.472"
       id="path1235" /><path
       style="fill:none;stroke:#ffffff;stroke-width:5.5"
       d="m 522.52537,10507.407 c -12.85737,6.298 -23.39014,-37.189 -3.15505,-33.216 12.5448,2.464 16.73072,16.997 17.17741,27.645 0.10361,2.471 -1.68328,9.715 -0.9348,7.358"
       id="path1237" /><path
       style="fill:none;stroke:#ffffff;stroke-width:5.5"
       d="m 558.3993,10470.617 c -3.92351,16.412 -6.11696,27.514 4.20669,40.995 0.68331,0.892 9.64893,6.488 6.19318,6.727"
       id="path1239" /><path
       style="fill:none;stroke:#ffffff;stroke-width:5.5"
       d="m 541.10499,10508.248 c 10.64999,-6.513 19.49763,-12.414 31.43351,-9.039"
       id="path1241" /><path
       style="fill:none;stroke:#ffffff;stroke-width:5.5"
       d="m 659.94461,10468.83 c 7.15004,12.343 -32.98,49.533 -33.18624,52.873 -0.23773,3.849 7.71501,0.372 11.5684,0.21 5.99578,-0.251 11.99449,-0.492 17.99543,-0.525 13.93282,-0.08 28.82119,2.856 42.65139,2.102 3.19611,-0.174 -2.74564,-5.799 -4.44045,-8.514 -21.91211,-35.107 -11.78484,-22.501 -34.58853,-46.146 z"
       id="path1243" /><path
       style="fill:none;stroke:#ffffff;stroke-width:5.5"
       d="m 273.70872,10621.364 c 5.3943,19.263 5.48328,18.358 10.04938,43.728 0.84426,4.69 1.36451,9.44 1.75278,14.19 0.94337,11.541 -3.68892,20.005 -7.36171,1.787 -1.56115,-7.744 0.0662,-30.109 14.25607,-20.392 23.06566,15.793 1.91473,58.129 -3.27189,22.599"
       id="path1245" /><path
       style="fill:none;stroke:#ffffff;stroke-width:5.5"
       d="m 330.84991,10655.001 c 1.52924,0.291 0.76081,55.395 -5.49209,37.315"
       id="path1247" /><path
       style="fill:none;stroke:#ffffff;stroke-width:5.5"
       d="m 305.25907,10667.299 c 7.6383,3.283 15.0995,8.087 23.60432,8.724"
       id="path1249" /><path
       style="fill:none;stroke:#ffffff;stroke-width:5.5"
       d="m 394.30115,10648.589 c 7.84468,8.872 27.61265,26.024 21.9684,40.784 -3.89567,10.187 -20.32439,5.471 -23.37062,-2.628 -7.04664,-18.735 27.12958,-4.225 33.77052,-6.727 0.36994,-0.14 13.28547,-9.985 7.47861,-10.302 -10.75981,-0.586 -26.01034,30.341 -8.64712,28.697 6.56027,-0.622 14.07272,-6.617 19.04704,-9.881"
       id="path1251" /><path
       style="fill:none;stroke:#ffffff;stroke-width:5.5"
       d="m 459.85577,10667.614 c -19.28715,8.704 -14.52436,16.062 -2.57077,29.747 1.83361,2.1 6.96309,3.766 5.60892,6.202 -0.64677,1.164 -2.41495,1.122 -3.62243,1.682"
       id="path1253" /><path
       style="fill:none;stroke:#ffffff;stroke-width:5.5"
       d="m 443.84689,10704.404 c -3.95793,-17.316 23.05235,-18.535 33.3031,-15.031"
       id="path1255" /><path
       style="fill:none;stroke:#ffffff;stroke-width:5.5"
       d="m 557.89553,10691.475 c -4.55729,1.472 -8.93754,5.137 -13.67181,4.415 -18.11954,-2.763 -5.21335,-47.185 9.93248,-32.06 2.99173,2.988 6.21073,6.532 6.77746,10.722 0.76825,5.679 -2.02541,11.282 -3.03813,16.923 z"
       id="path1257" /><path
       style="fill:none;stroke:#ffffff;stroke-width:5.5"
       d="m 581.49986,10653.949 c -5.60274,10.08 -10.74947,23.041 -6.3101,34.688 3.31819,8.706 14.40846,13.859 6.3101,16.818"
       id="path1259" /><path
       style="fill:none;stroke:#ffffff;stroke-width:5.5"
       d="m 565.72468,10699.359 c 8.20148,-8.891 23.17515,-3.051 32.13463,-9.25"
       id="path1261" /><path
       style="fill:none;stroke:#ffffff;stroke-width:5.5"
       d="m 690.29007,10640.705 c 4.26474,13.065 -30.44127,49.805 -29.09642,56.762 0.66913,3.461 23.08212,-0.803 23.60433,-0.841 2.81419,-0.209 37.98377,0.05 38.21096,-0.21 5.58943,-6.416 -14.2119,-38.959 -19.1639,-44.359 -3.98357,-4.343 -9.03666,-7.568 -13.55497,-11.352 z"
       id="path1263" /><path
       style="fill:none;stroke:#ffffff;stroke-width:5.5"
       d="m 2069.3729,10479.148 c 2.1665,-0.966 36.7036,-17.555 39.9638,-6.412"
       id="path1265" /><path
       style="fill:none;stroke:#ffffff;stroke-width:5.5"
       d="m 2064.8157,10495.02 c 11.9831,2.769 46.3204,-1.957 52.5839,6.307"
       id="path1267" /><path
       style="fill:none;stroke:#ffffff;stroke-width:5.5"
       d="m 916.9675,10634.927 c -2.81843,25.802 -21.87573,44.808 -37.39301,64.33 -2.25092,2.832 -9.78519,7.825 -6.31002,8.829 1.42256,0.412 24.90065,-7.863 26.99305,-8.199 9.5231,-1.528 19.76202,-0.207 29.09642,1.262 7.22548,1.137 21.57166,4.991 28.39535,6.727 9.00967,2.292 11.54022,3.039 11.56843,2.418 0.0945,-2.083 -2.08405,-3.613 -3.03816,-5.466 -1.73424,-3.369 -3.39172,-6.777 -5.0247,-10.196 -10.8969,-22.816 -20.50458,-48.06 -44.28736,-59.705 z"
       id="path1269" /><path
       style="fill:none;stroke:#ffffff;stroke-width:5.5"
       d="m 1064.3193,10646.49 c -24.2357,4.917 -37.5307,27.164 -31.3166,51.19 3.1841,12.312 9.6025,22.536 15.1909,33.742 0.7172,1.438 2.5126,5.036 0.9348,4.73 -1.9777,-0.384 -3.6614,-1.682 -5.4921,-2.523"
       id="path1271" /><path
       style="fill:none;stroke:#ffffff;stroke-width:5.5"
       d="m 1012.4365,10706.51 c 18.1121,-10.276 37.5935,-8.199 57.3749,-8.199"
       id="path1273" /><path
       style="fill:none;stroke:#ffffff;stroke-width:5.5"
       d="m 1116.4358,10647.751 c -17.1571,19.655 -23.117,37.184 -17.2943,62.648 1.624,7.102 3.7247,17.462 10.4,11.457"
       id="path1275" /><path
       style="fill:none;stroke:#ffffff;stroke-width:5.5"
       d="m 1138.521,10668.774 c 2.7362,10.35 -8.9453,44.99 -17.4111,46.565 -2.5612,0.477 -2.2592,-4.695 -3.3887,-7.042"
       id="path1277" /><path
       style="fill:none;stroke:#ffffff;stroke-width:5.5"
       d="m 1113.6313,10677.919 c 2.9992,2.172 5.9707,4.383 8.9977,6.517 15.4166,10.865 10.2506,7.698 25.2403,15.662 0.3211,0.17 10.6949,5.862 10.6336,5.255 -0.3073,-3.04 -3.7449,-4.83 -5.6089,-7.252"
       id="path1279" /><path
       style="fill:none;stroke:#ffffff;stroke-width:5.5"
       d="m 1155.5816,10617.794 c 36.7907,18.505 41.0008,62.666 28.5121,98.491 -4.3803,12.566 -7.0702,17.003 -12.6201,21.864"
       id="path1281" /><path
       style="fill:none;stroke:#ffffff;stroke-width:5.5"
       d="m 1282.3672,10649.328 c 3.3987,6.149 8.2268,71.181 -0.7011,65.381"
       id="path1283" /><path
       style="fill:none;stroke:#ffffff;stroke-width:5.5"
       d="m 1255.491,10687.589 c 17.4551,-5.755 35.7405,-6.263 53.8693,-7.568 1.8273,-0.132 7.2714,-0.226 5.4921,0.21"
       id="path1285" /><path
       style="fill:none;stroke:#ffffff;stroke-width:5.5"
       d="m 1433.692,10636.819 c -10.4586,19.861 -3.3464,8.41 -16.4764,25.543 -19.4624,25.395 -4.6557,6.995 -23.6043,30.588 -3.5435,4.412 -8.1983,8.089 -10.7504,13.139 -1.1584,2.293 5.2761,0.414 17.411,0.946 7.333,0.322 56.1474,6.038 60.2963,1.577 8.9565,-9.631 -21.8725,-60.143 -26.8762,-71.793 z"
       id="path1287" /><path
       style="fill:none;stroke:#ffffff;stroke-width:5.5"
       d="m 1506.7252,10660.68 c -7.7266,4.651 -27.9979,15.725 -10.9842,25.017 11.6762,6.377 43.6986,-3.999 30.0312,-20.392 -4.1839,-5.018 -20.749,-10.933 -19.047,-4.625 2.4368,9.031 12.6771,13.793 18.346,21.233 10.4309,13.69 26.9529,40.075 15.4245,58.023 -11.9213,18.56 -46.5464,3.659 -44.9884,-16.924 0.3438,-4.542 3.973,-8.198 5.9596,-12.298"
       id="path1289" /><path
       style="fill:none;stroke:#ffffff;stroke-width:5.5"
       d="m 1581.6281,10664.569 c -3.6225,0.491 -7.9959,-0.79 -10.8674,1.472 -13.2172,10.412 -14.4756,48.138 9.8157,42.361 4.1071,-0.977 7.4006,-4.065 11.101,-6.097"
       id="path1291" /><path
       style="fill:none;stroke:#ffffff;stroke-width:5.5"
       d="m 1605.6998,10670.561 c 0.4285,-3.224 0.8569,-6.447 1.2854,-9.671 0.078,-0.455 0.2945,-1.824 0.2336,-1.366 -1.1819,8.892 -14.9734,57.906 -21.7346,62.227 -1.2292,0.786 -2.4056,-6.357 -3.8561,-13.454 -1.893,-9.262 -6.687,-20.019 -7.3618,-29.327 -0.2738,-3.777 6.3261,4.193 9.2314,6.622 6.0935,5.095 12.157,10.226 18.2291,15.347 2.0756,1.75 3.595,5.15 6.3101,5.15 2.5872,0 -0.7764,-5.116 -1.1686,-7.673"
       id="path1293" /><path
       style="fill:none;stroke:#ffffff;stroke-width:5.5"
       d="m 1609.4391,10628.305 c 5.57,2.803 12.8441,3.516 16.71,8.409 14.7891,18.716 9.1334,63.71 0,84.512 -8.1484,18.558 -5.5988,20.681 -10.6337,14.505"
       id="path1295" /><path
       style="fill:none;stroke:#ffffff;stroke-width:5.5"
       d="m 819.27836,10885.077 c -4.87424,21.533 -4.1075,21.921 -11.33481,41.1 -4.66082,12.368 -8.42631,21.05 -14.37293,32.375 -2.07304,3.948 -4.35081,7.785 -6.54375,11.667 -0.26107,0.463 -1.21267,1.722 -0.81799,1.367 19.8279,-17.836 47.97933,-6.186 71.86469,-4.1 4.55338,0.398 11.75843,3.1 13.67177,-1.051 4.55398,-9.88 -27.54993,-80.696 -39.0289,-84.932 -4.34843,-1.604 -8.95874,2.383 -13.43808,3.574 z"
       id="path1297" /><path
       style="fill:none;stroke:#ffffff;stroke-width:5.5"
       d="m 941.5067,10861.847 c -37.32509,60.848 -41.15263,113.397 14.37293,162.086"
       id="path1299" /><path
       style="fill:none;stroke:#ffffff;stroke-width:5.5"
       d="m 1017.4612,10912.932 c -18.05711,9.015 -30.50178,24.46 -23.7212,45.62 3.2113,10.021 10.4418,17.25 16.9437,25.017 2.3005,2.748 9.5294,6.825 6.4269,8.619 -0.8566,0.496 -1.7917,-0.841 -2.6876,-1.261"
       id="path1301" /><path
       style="fill:none;stroke:#ffffff;stroke-width:5.5"
       d="m 976.32891,10970.745 c 11.81087,-14.368 28.70779,-13.901 45.57269,-11.878"
       id="path1303" /><path
       style="fill:none;stroke:#ffffff;stroke-width:5.5"
       d="m 1080.3281,10891.489 c -4.9078,5.256 -10.9305,9.658 -14.7234,15.767 -16.3466,26.329 -10.9212,69.461 16.71,85.773"
       id="path1305" /><path
       style="fill:none;stroke:#ffffff;stroke-width:5.5"
       d="m 1118.7728,10921.341 c -1.4145,17.351 -6.6672,33.646 -15.1908,48.773 -0.6653,1.181 -1.8281,3.883 -2.8045,2.944 -1.9429,-1.87 -1.4802,-5.186 -2.2202,-7.779"
       id="path1307" /><path
       style="fill:none;stroke:#ffffff;stroke-width:5.5"
       d="m 1095.4022,10933.009 c -4.0956,-11.847 43.1885,42.464 35.8739,34.688"
       id="path1309" /><path
       style="fill:none;stroke:#ffffff;stroke-width:5.5"
       d="m 1133.3795,10879.716 c 3.5056,2.698 7.8829,4.54 10.5168,8.094 18.1807,24.531 24.4703,65.118 13.2044,93.551 -2.594,6.547 -7.4008,11.983 -11.1011,17.975"
       id="path1311" /><path
       style="fill:none;stroke:#ffffff;stroke-width:5.5"
       d="m 1215.8778,10929.54 c -9.2784,18.694 1.411,40.216 -5.7258,58.864"
       id="path1313" /><path
       style="fill:none;stroke:#ffffff;stroke-width:5.5"
       d="m 1192.7409,10964.228 c 13.7452,-5.609 28.3306,-2.424 42.6514,-3.574"
       id="path1315" /><path
       style="fill:none;stroke:#ffffff;stroke-width:5.5"
       d="m 1251.518,10939.316 c -4.6936,12.877 -9.9788,15.055 6.6606,23.02 12.1207,5.802 27.1772,-15.571 13.4381,-22.81 -8.2151,-4.328 -5.1735,9.331 -4.4404,11.142 4.3765,10.813 37.2541,46.069 15.6583,55.29 -25.2238,10.77 -37.4066,-4.886 -36.2244,-27.855"
       id="path1317" /><path
       style="fill:none;stroke:#ffffff;stroke-width:5.5"
       d="m 1325.0186,10920.605 c -4.2067,3.049 -9.5127,4.982 -12.6201,9.146 -11.4505,15.34 -0.9972,40.272 7.8291,53.082 3.6481,5.295 11.8496,15.932 15.892,10.932"
       id="path1319" /><path
       style="fill:none;stroke:#ffffff;stroke-width:5.5"
       d="m 1353.5308,10930.486 c 0.9348,-3.398 6.2031,-9.261 2.8044,-10.196 -3.3986,-0.934 -2.104,6.742 -2.8044,10.196 -5.6074,27.659 -0.8417,19.29 -11.6853,42.572 -3.5464,7.613 -6.7424,11.934 -8.2966,8.514 -2.3146,-5.095 -3.7955,-49.204 1.6359,-46.671 4.3821,2.044 39.0138,70.035 30.3818,43.412"
       id="path1321" /><path
       style="fill:none;stroke:#ffffff;stroke-width:5.5"
       d="m 1365.0993,10885.497 c 19.0806,9.746 13.7001,3.915 25.8244,27.225 7.9253,15.237 18.5905,36.178 16.1258,54.449 -2.0195,14.971 -7.7551,29.351 -14.0224,43.097 -4.5913,10.069 -6.5931,7.926 -10.6336,5.361"
       id="path1323" /><path
       style="fill:none;stroke:#ffffff;stroke-width:5.5"
       d="m 1417.2156,10849.128 c 26.8153,49.503 55.4089,114.926 32.6021,171.651 -2.6019,6.472 -32.694,54.911 -43.703,28.696"
       id="path1325" /><path
       style="fill:none;stroke:#ffffff;stroke-width:5.5"
       d="m 1507.5431,10946.779 c 5.6267,-13.888 93.5836,-36.697 43.4694,-2.733"
       id="path1327" /><path
       style="fill:none;stroke:#ffffff;stroke-width:5.5"
       d="m 1514.5544,10968.433 c 21.8178,2.394 43.8894,-2.734 66.022,-2.734"
       id="path1329" /><path
       style="fill:none;stroke:#ffffff;stroke-width:5.5"
       d="m 1669.7353,10905.89 c -9.6922,24.825 -27.1897,45.086 -43.82,65.486 -6.2317,7.644 -11.1816,11.973 -8.0628,12.718 2.3232,0.555 4.7422,-0.621 7.1281,-0.735 9.2649,-0.446 18.5408,-1.267 27.811,-0.946 9.0419,0.312 18.0087,1.772 26.993,2.838 3.9607,0.469 11.6733,5.032 11.9191,1.051 0.6469,-10.476 -31.8043,-79.94 -35.4065,-84.932 -0.9035,-1.252 0.7289,3.025 1.4023,4.415"
       id="path1331" /><path
       style="fill:none;stroke:#ffffff;stroke-width:5.5"
       d="m 1757.9594,10917.242 c -30.5252,9.49 -25.2484,36.578 -12.8539,59.6 7.1079,13.202 4.3087,4.759 6.5438,12.298"
       id="path1333" /><path
       style="fill:none;stroke:#ffffff;stroke-width:5.5"
       d="m 1713.0878,10974.95 c 14.5706,-12.027 33.1698,-7.556 50.4805,-10.407"
       id="path1335" /><path
       style="fill:none;stroke:#ffffff;stroke-width:5.5"
       d="m 1812.0623,10923.234 c -18.4727,11.266 -37.3168,50.826 -4.0898,54.448"
       id="path1337" /><path
       style="fill:none;stroke:#ffffff;stroke-width:5.5"
       d="m 1826.9028,10942.574 c -0.2302,6.066 -3.9459,54.098 -17.2944,40.89"
       id="path1339" /><path
       style="fill:none;stroke:#ffffff;stroke-width:5.5"
       d="m 1799.3255,10956.87 c 25.0965,8.209 16.5794,2.773 33.303,15.872 2.3168,1.815 6.9856,7.977 7.2449,5.045 0.2816,-3.184 -0.4674,-6.376 -0.7011,-9.565"
       id="path1341" /><path
       style="fill:none;stroke:#ffffff;stroke-width:5.5"
       d="m 1838.2374,10897.901 c 16.7011,29.18 40.237,81.752 11.3348,111"
       id="path1343" /><path
       style="fill:none;stroke:#ffffff;stroke-width:5.5"
       d="m 1916.5291,10930.171 c 0,6.691 4.281,52.477 -2.1034,54.869"
       id="path1345" /><path
       style="fill:none;stroke:#ffffff;stroke-width:5.5"
       d="m 1907.2977,10959.813 c 15.4575,-3.933 32.2869,-12.914 47.2087,-4.31"
       id="path1347" /><path
       style="fill:none;stroke:#ffffff;stroke-width:5.5"
       d="m 2005.2615,10908.951 c -21.2141,36.524 -0.8345,2.142 -20.6829,33.847 -1.9763,3.157 -22.1452,34.422 -19.982,37 5.6429,6.725 34.2446,3.857 39.9639,3.889 8.3679,0.05 32.6009,3.506 39.8468,-2.733 4.2824,-3.687 -2.6788,-13.507 -3.3886,-14.821 -10.7034,-19.813 -23.2502,-38.492 -35.7572,-57.182 z"
       id="path1349" /><path
       style="fill:none;stroke:#ffffff;stroke-width:5.5"
       d="m 2077.5937,10919.462 c -13.0671,-9.447 -30.7952,14.798 -10.3999,19.867 7.7172,1.918 18.8113,2.02 23.9548,-5.571 7.1583,-10.564 -14.998,-18.19 -13.5549,-14.296 6.5619,17.709 48.9897,57.575 25.9413,83.145 -13.0626,14.493 -27.7025,-1.143 -33.1862,-13.664 -1.3064,-2.983 1.3243,-6.377 1.9865,-9.566"
       id="path1351" /><path
       style="fill:none;stroke:#ffffff;stroke-width:5.5"
       d="m 2142.564,10932.286 c -25.563,10.091 -8.9064,53.515 14.2561,43.097"
       id="path1353" /><path
       style="fill:none;stroke:#ffffff;stroke-width:5.5"
       d="m 2171.3098,10917.36 c -3.2894,21.84 -2.3943,20.945 -11.5684,47.196 -1.4181,4.058 -4.6977,11.617 -8.5302,9.671 -2.9541,-1.5 -13.1628,-32.527 -4.6742,-32.586 17.9104,-0.123 50.049,41.722 31.4335,10.091"
       id="path1355" /><path
       style="fill:none;stroke:#ffffff;stroke-width:5.5"
       d="m 2181.5929,10885.406 c 4.0899,4.87 9.1177,9.087 12.2696,14.61 15.6979,27.512 22.5039,83.88 -7.8292,104.484"
       id="path1357" /></g></svg>
