<?xml version="1.0" encoding="UTF-8" standalone="no"?>
<!-- Created with Inkscape (http://www.inkscape.org/) -->

<svg
   width="6413.3877mm"
   height="9391.3828mm"
   viewBox="0 0 6413.3875 9391.383"
   version="1.1"
   id="svg12"
   inkscape:version="1.2.1 (9c6d41e410, 2022-07-14, custom)"
   sodipodi:docname="anit_diff_as_sum.svg"
   xml:space="preserve"
   xmlns:inkscape="http://www.inkscape.org/namespaces/inkscape"
   xmlns:sodipodi="http://sodipodi.sourceforge.net/DTD/sodipodi-0.dtd"
   xmlns="http://www.w3.org/2000/svg"
   xmlns:svg="http://www.w3.org/2000/svg"><sodipodi:namedview
     id="namedview14"
     pagecolor="#505050"
     bordercolor="#eeeeee"
     borderopacity="1"
     inkscape:showpageshadow="0"
     inkscape:pageopacity="0"
     inkscape:pagecheckerboard="0"
     inkscape:deskcolor="#505050"
     inkscape:document-units="mm"
     showgrid="true"
     inkscape:zoom="0.041336587"
     inkscape:cx="12918.338"
     inkscape:cy="1257.9655"
     inkscape:window-width="1366"
     inkscape:window-height="746"
     inkscape:window-x="0"
     inkscape:window-y="0"
     inkscape:window-maximized="1"
     inkscape:current-layer="layer1"
     inkscape:lockguides="false"><inkscape:grid
       type="xygrid"
       id="grid344"
       color="#969696"
       opacity="0.39215686"
       empcolor="#000000"
       empopacity="0.17254902"
       dotted="false"
       originx="-2989.8058"
       originy="-32939.855" /></sodipodi:namedview><defs
     id="defs9" /><g
     inkscape:label="Layer 1"
     inkscape:groupmode="layer"
     id="layer1"
     transform="translate(-3094.806,-33088.352)"><path
       style="fill:none;stroke:#ffffff;stroke-width:10.7"
       d="m 3460.3657,33921.155 c -15.0905,-8.903 -28.0742,-23.357 -45.2718,-26.709 -9.049,-1.765 -17.5842,6.86 -24.3396,13.136 -84.4116,78.396 -94.7372,180.904 -89.0825,291.632 0.6048,11.843 46.8749,215.813 25.3129,239.088"
       id="path541" /><path
       style="fill:none;stroke:#ffffff;stroke-width:10.7"
       d="m 3194.5777,34162.431 c 46.9588,9.449 206.8481,-42.288 221.9767,19.707"
       id="path543" /><path
       style="fill:none;stroke:#ffffff;stroke-width:10.7"
       d="m 3692.5651,33900.576 c -12.1698,5.982 -26.9979,8.284 -36.5094,17.952 -101.769,103.434 -130.4335,401.463 50.6262,444.894"
       id="path545" /><path
       style="fill:none;stroke:#ffffff;stroke-width:10.7"
       d="m 3902.3722,34034.569 c -20.0818,74.636 -51.3842,145.394 -78.3735,217.63 -16.4611,44.056 -18.8246,54.475 -19.4718,52.547 -4.5148,-13.468 -2.2714,-28.319 -3.4073,-42.477"
       id="path547" /><path
       style="fill:none;stroke:#ffffff;stroke-width:10.7"
       d="m 3787.0025,34046.83 c 41.2099,54.657 84.1195,107.688 131.9205,156.763 12.9042,13.247 26.7025,25.595 39.9169,38.534 5.1226,5.016 10.2412,10.046 15.0905,15.327 1.3303,1.447 4.8696,6.13 3.4075,4.815 -4.197,-3.775 -7.7888,-8.173 -11.6829,-12.26"
       id="path549" /><path
       style="fill:none;stroke:#ffffff;stroke-width:10.7"
       d="m 3946.1833,33887.437 c 29.6941,24.67 64.8962,43.918 89.0828,74.004 64.3496,80.049 77.8264,218.696 71.5581,313.528 -2.2262,33.676 -13.0119,66.276 -21.4185,98.962 -1.6915,6.578 -2.4908,15.788 -8.7625,18.392 -4.9107,2.04 1.6227,-10.51 2.4339,-15.764"
       id="path551" /><path
       style="fill:none;stroke:#ffffff;stroke-width:10.7"
       d="m 4346.8124,34037.633 c -3.4478,-8.594 163.3485,-46.699 124.6185,-18.828"
       id="path553" /><path
       style="fill:none;stroke:#ffffff;stroke-width:10.7"
       d="m 4312.2504,34150.171 c 67.523,7.593 139.3304,-10.507 202.505,-2.188"
       id="path555" /><path
       style="fill:none;stroke:#ffffff;stroke-width:10.7"
       d="m 5049.2521,33594.054 c -14.0529,60.044 -13.6303,43.545 -13.6303,109.471 0,17.529 1.1147,35.039 1.9473,52.546 7.2094,151.585 -5.08,-144.412 11.683,-162.017 25.5524,-26.837 110.0939,-37.143 147.0109,-45.98 37.4243,-8.959 74.7856,-20.616 111.4753,-32.403 32.9687,-10.592 11.1498,37.42 10.7093,81.01 -0.3162,31.287 2.4342,63.018 2.4342,94.147"
       id="path557" /><path
       style="fill:none;stroke:#ffffff;stroke-width:10.7"
       d="m 5182.633,34209.287 c 11.9862,39.399 28.1842,89.749 12.1695,131.365 -4.2013,10.917 -8.1849,-22.122 -9.7356,-33.718 -3.1848,-23.813 -2.3378,-84.339 -2.4339,-97.647 z"
       id="path559" /><path
       style="fill:none;stroke:#ffffff;stroke-width:10.7"
       d="m 5206.9726,33892.255 c -48.9273,79.56 -25.6276,35.917 -52.0867,92.832 -3.3954,7.305 -8.4053,29.741 -10.2227,21.894 -2.4725,-10.676 -0.8522,-21.9 -1.4602,-32.84"
       id="path561" /><path
       style="fill:none;stroke:#ffffff;stroke-width:10.7"
       d="m 5119.8368,33850.218 c 39.1165,70.255 106.8811,115.033 159.1807,173.842"
       id="path563" /><path
       style="fill:none;stroke:#ffffff;stroke-width:10.7"
       d="m 5055.0935,34348.534 c -1.4517,3.302 -20.8155,140.24 -14.1168,142.751 9.5218,3.569 64.1826,-16.582 74.4789,-18.391 54.4123,-9.568 75.103,-10.862 131.4339,-10.51 10.8717,0.07 156.3161,19.778 169.4031,10.949 1.958,-1.321 -12.5097,-86.411 -13.6302,-118.669 -0.6538,-18.819 13.6496,-97.895 2.4339,-117.353 -1.5756,-2.733 -4.5432,4.379 -6.8149,6.567"
       id="path565" /><path
       style="fill:none;stroke:#ffffff;stroke-width:10.7"
       d="m 5093.0634,33186.378 c 6.1161,-54.983 41.7745,-74.403 0,0 z"
       id="path567" /><path
       style="fill:none;stroke:#ffffff;stroke-width:10.7"
       d="m 5125.1914,33342.705 c -11.5305,73.183 -9.6578,35.224 -5.8414,102.904 0.3458,6.13 2.0449,24.437 0.9736,18.391 -8.7611,-49.435 -7.1887,-70.281 4.8678,-121.295 z"
       id="path569" /><path
       style="fill:none;stroke:#ffffff;stroke-width:10.7"
       d="m 5087.2219,33174.117 c 6.5918,-99.403 48.6682,-114.797 0,0 z"
       id="path571" /><path
       style="fill:none;stroke:#ffffff;stroke-width:10.7"
       d="m 5238.6138,34655.057 c -21.4995,0.656 -15.7295,252.51 -3.4075,187.854"
       id="path573" /><path
       style="fill:none;stroke:#ffffff;stroke-width:10.7"
       d="m 5137.8483,34792.989 c 29.3547,-22.902 185.9881,-101.158 202.505,-36.782"
       id="path575" /><path
       style="fill:none;stroke:#ffffff;stroke-width:10.7"
       d="m 5726.3785,33575.223 c 3.0829,-12.697 6.1661,-25.397 9.249,-38.095 -0.9734,-1.751 -2.4476,-7.202 -2.9204,-5.254 -3.4455,14.189 -4.2191,28.9 -6.3286,43.349 -31.4791,53.131 -71.5383,102.039 -94.4375,159.393 -52.3377,131.085 -50.8391,321.397 8.2759,449.71 38.7128,84.029 74.6046,95.813 114.3958,157.638"
       id="path577" /><path
       style="fill:none;stroke:#ffffff;stroke-width:10.7"
       d="m 6007.2572,33848.027 c -35.2861,12.539 -132.1694,112.676 -44.7847,140.126 45.0655,14.155 96.6092,-4.551 102.2258,-54.298 3.3604,-29.763 -74.5718,-160.02 -57.4411,-85.828 13.9055,60.225 172.3081,201.007 157.7205,254.852 -16.8185,62.079 -194.9423,91.247 -202.5052,23.209"
       id="path579" /><path
       style="fill:none;stroke:#ffffff;stroke-width:10.7"
       d="m 6328.5397,33708.343 c -122.8346,47.8 -155.8983,383.151 19.4712,383.151"
       id="path581" /><path
       style="fill:none;stroke:#ffffff;stroke-width:10.7"
       d="m 6463.8672,33827.448 c -36.0254,45.426 -43.5861,102.179 -56.4676,156.763 -2.7956,11.845 -2.6342,42.733 -11.683,34.594 -5.2964,-4.765 -6.1661,-12.845 -9.2493,-19.267"
       id="path583" /><path
       style="fill:none;stroke:#ffffff;stroke-width:10.7"
       d="m 6360.1807,33844.087 c 88.1586,25.067 96.2956,103.672 149.4451,158.954 6.1206,6.366 3.5891,-17.444 3.4073,-26.273"
       id="path585" /><path
       style="fill:none;stroke:#ffffff;stroke-width:10.7"
       d="m 6493.0751,33598.432 c 56.32,45.44 54.4187,34.708 89.5691,110.348 40.2892,86.696 58.8079,181.707 38.9432,276.307 -4.5487,21.664 -63.2229,144.991 -42.3507,92.831"
       id="path587" /><path
       style="fill:none;stroke:#ffffff;stroke-width:10.7"
       d="m 6690.7122,33456.994 c 14.6037,27.734 32.3019,54.047 43.8111,83.198 50.7862,128.646 79.9414,289.878 64.7432,427.818 -7.0493,63.982 -22.9806,126.902 -40.8905,188.73 -9.7253,33.571 -42.8988,106.357 -49.166,68.31"
       id="path589" /><path
       style="fill:none;stroke:#ffffff;stroke-width:10.7"
       d="m 3247.8587,35339.261 c -23.1844,94.343 -78.3389,174.646 -124.1319,258.794 -15.9552,29.316 -27.304,50.565 -22.3925,51.671 17.3495,3.9 62.2805,-11.83 78.3735,-13.576 64.0364,-6.951 128.4415,-9.483 192.7691,-11.822 42.0259,-1.529 84.7016,3.205 84.7016,-7.882 0,-63.388 -56.0168,-163.456 -88.5957,-215.003 -7.2573,-11.482 -65.2177,-90.495 -53.0604,-49.482"
       id="path591" /><path
       style="fill:none;stroke:#ffffff;stroke-width:10.7"
       d="m 3727.3477,35310.8 c -14.4415,-8.173 -26.7523,-25.376 -43.3245,-24.522 -58.3972,3.011 -86.2459,162.198 -83.7279,202.303 3.6611,58.309 28.1271,105.357 50.6262,157.642 2.0804,4.834 10.0645,20.132 0.4868,4.815"
       id="path593" /><path
       style="fill:none;stroke:#ffffff;stroke-width:10.7"
       d="m 3536.0389,35516.169 c 52.1597,-35.909 130.5216,-42.799 185.4673,-7.006"
       id="path595" /><path
       style="fill:none;stroke:#ffffff;stroke-width:10.7"
       d="m 4026.7245,35223.659 c -16.551,8.028 -37.3335,10.425 -49.653,24.085 -69.4563,77.018 -57.7564,277.323 -7.3017,362.572 16.8892,28.533 30.815,52.118 61.8223,40.286"
       id="path597" /><path
       style="fill:none;stroke:#ffffff;stroke-width:10.7"
       d="m 4166.4335,35372.98 c -55.6149,59.359 -61.7878,144.168 -93.464,214.563 -3.6076,8.02 -8.7302,-15.364 -11.683,-23.645"
       id="path599" /><path
       style="fill:none;stroke:#ffffff;stroke-width:10.7"
       d="m 4034.0262,35411.513 c 68.2636,27.792 101.8157,95.092 154.313,142.315"
       id="path601" /><path
       style="fill:none;stroke:#ffffff;stroke-width:10.7"
       d="m 4163.0257,35174.18 c 112.5276,118.917 194.7241,320.802 115.3697,480.361"
       id="path603" /><path
       style="fill:none;stroke:#ffffff;stroke-width:10.7"
       d="m 4540.289,35358.531 c 43.521,-5.419 128.6131,-25.347 157.2337,-22.773"
       id="path605" /><path
       style="fill:none;stroke:#ffffff;stroke-width:10.7"
       d="m 4554.8929,35438.662 c 54.574,15.436 120.6728,-4.908 173.2976,20.582"
       id="path607" /><path
       style="fill:none;stroke:#ffffff;stroke-width:10.7"
       d="m 5187.2347,35244.241 c -12.4945,-1.169 -26.2674,-9.133 -37.483,-3.503 -56.238,28.223 -106.2173,112.67 -103.6865,176.03 1.6597,41.558 24.7795,66.061 55.4942,90.204 24.2467,19.061 34.0024,14.039 19.4717,19.267"
       id="path609" /><path
       style="fill:none;stroke:#ffffff;stroke-width:10.7"
       d="m 4996.8992,35464.499 c 59.5617,-34.518 99.6585,-30.374 163.5617,-27.149"
       id="path611" /><path
       style="fill:none;stroke:#ffffff;stroke-width:10.7"
       d="m 5368.3208,35202.641 c -16.5508,19.121 -38.7443,34.549 -49.6525,57.364 -41.3621,86.514 18.184,203.801 75.9394,264.922"
       id="path613" /><path
       style="fill:none;stroke:#ffffff;stroke-width:10.7"
       d="m 5519.2264,35288.03 c -17.8774,33.649 -44.2238,190.248 -78.8604,187.415"
       id="path615" /><path
       style="fill:none;stroke:#ffffff;stroke-width:10.7"
       d="m 5416.5133,35330.943 c 58.0549,10.3 123.0887,151.96 150.9054,115.165"
       id="path617" /><path
       style="fill:none;stroke:#ffffff;stroke-width:10.7"
       d="m 5607.8221,35266.136 c -5.3969,29.514 30.2948,151.966 21.9057,155.45"
       id="path619" /><path
       style="fill:none;stroke:#ffffff;stroke-width:10.7"
       d="m 5539.6718,35392.247 c 39.8833,-29.054 94.3393,-17.37 135.8141,-38.098"
       id="path621" /><path
       style="fill:none;stroke:#ffffff;stroke-width:10.7"
       d="m 5704.6938,35221.032 c 30.0646,69.913 8.192,157.07 41.8637,224.637"
       id="path623" /><path
       style="fill:none;stroke:#ffffff;stroke-width:10.7"
       d="m 5771.8709,35058.575 c 101.2804,116.261 190.0296,365.271 75.4526,502.695"
       id="path625" /><path
       style="fill:none;stroke:#ffffff;stroke-width:10.7"
       d="m 6023.5418,35302.042 c 44.3526,-2.183 106.9533,-22.079 152.3659,1.752"
       id="path627" /><path
       style="fill:none;stroke:#ffffff;stroke-width:10.7"
       d="m 6485.507,35101.051 c -14.9284,-5.984 -28.765,-19.378 -44.7853,-17.954 -14.0242,1.246 -23.9815,15.145 -34.0751,24.961 -51.4059,49.99 -61.2632,103.092 -41.3772,172.09 15.8729,55.073 54.4494,94.157 76.4265,145.378 10.6437,24.807 -1.0038,26.829 -21.4191,25.836"
       id="path629" /><path
       style="fill:none;stroke:#ffffff;stroke-width:10.7"
       d="m 6291.2771,35361.595 c 62.7539,-23.255 123.9565,-30.24 181.573,-66.122"
       id="path631" /><path
       style="fill:none;stroke:#ffffff;stroke-width:10.7"
       d="m 6682.1702,35042.375 c -17.2001,30.213 -41.2737,57.443 -51.5996,90.643 -21.1087,67.863 19.0883,203.417 97.3582,224.634 12.0994,3.281 24.9888,-2.042 37.483,-3.064"
       id="path633" /><path
       style="fill:none;stroke:#ffffff;stroke-width:10.7"
       d="m 6836.4834,35133.891 c -36.915,44.474 -39.6579,218.79 -82.7546,203.621"
       id="path635" /><path
       style="fill:none;stroke:#ffffff;stroke-width:10.7"
       d="m 6703.1021,35225.85 c 20.3322,-26.89 163.7231,98.862 169.4035,90.641 4.3503,-6.294 -1.9471,-15.179 -2.9205,-22.77"
       id="path637" /><path
       style="fill:none;stroke:#ffffff;stroke-width:10.7"
       d="m 6833.0755,34967.934 c 19.4718,13.428 43.9571,21.564 58.4153,40.286 50.3226,65.156 82.5515,209.989 83.7279,289.88 0.6244,42.42 -19.0106,103.751 -12.1698,148.884"
       id="path639" /><path
       style="fill:none;stroke:#ffffff;stroke-width:10.7"
       d="m 7186.5316,35105.568 c -138.325,19.455 147.1451,-27.21 113.9092,-12.261"
       id="path641" /><path
       style="fill:none;stroke:#ffffff;stroke-width:10.7"
       d="m 7164.6259,35210.221 c 61.5535,22.566 126.5286,11.824 190.3355,11.824"
       id="path643" /><path
       style="fill:none;stroke:#ffffff;stroke-width:10.7"
       d="m 5268.2612,36107.653 c -1.2981,18.537 -3.3208,37.037 -3.8944,55.611 -0.4011,12.991 0.4254,25.99 0.9736,38.973 0.2612,15.073 2.2773,30.051 2.9208,45.103 0.3254,7.612 -2.6575,-15.041 -4.8681,-22.333 -4.2611,-14.055 -32.1236,-62.91 -25.7998,-77.507 6.6628,-15.378 16.3013,-31.213 30.6679,-39.847 56.6499,-34.044 129.0809,-36.547 191.7956,-51.234 14.1891,-3.323 75.5478,-39.301 83.2414,-38.533 14.9606,1.494 0.6244,30.109 -0.4868,45.103 -4.4546,60.108 7.0974,112.723 14.1171,171.651"
       id="path645" /><path
       style="fill:none;stroke:#ffffff;stroke-width:10.7"
       d="m 5388.0119,36344.987 c -4.5435,14.888 -8.9366,29.824 -13.6303,44.665 -18.6899,59.097 -15.2487,49.802 -36.9962,103.343 -3.7322,9.187 -6.2645,35.116 -12.1697,27.149 -5.533,-7.466 -4.1326,-18.121 -6.3281,-27.149"
       id="path647" /><path
       style="fill:none;stroke:#ffffff;stroke-width:10.7"
       d="m 5292.1139,36357.248 c 51.2297,22.286 90.8063,100.727 147.4978,106.847"
       id="path649" /><path
       style="fill:none;stroke:#ffffff;stroke-width:10.7"
       d="m 5551.087,36323.969 c 25.972,51.914 10.9455,108.381 8.7622,163.772 -0.6101,15.472 -1.9473,61.901 -1.9473,46.415"
       id="path655" /><path
       style="fill:none;stroke:#ffffff;stroke-width:10.7"
       d="m 5492.6718,36432.567 c 37.5221,-8.8 94.3758,-31.038 128.9997,-14.888"
       id="path657" /><path
       style="fill:none;stroke:#ffffff;stroke-width:10.7"
       d="m 5675.2187,36280.18 c -2.0352,71.472 3.7001,143.857 17.0375,214.128"
       id="path659" /><path
       style="fill:none;stroke:#ffffff;stroke-width:10.7"
       d="m 5478.0681,36739.526 c 10.9757,-17.888 23.0288,188.272 27.2603,144.502"
       id="path661" /><path
       style="fill:none;stroke:#ffffff;stroke-width:10.7"
       d="m 5327.6498,36980.802 c -4.219,13.11 -5.2477,150.585 3.4073,153.699 6.8789,2.474 67.4772,-29.493 85.6753,-32.406 38.0383,-6.088 86.1372,-4.831 124.6185,-2.188 53.3889,3.664 107.4282,9.734 160.1546,18.828 2.1879,0.378 23.0979,6.125 27.7469,4.818 7.0813,-1.99 8.5167,-108.448 8.7622,-124.799 0.1675,-11.152 2.2363,-64.01 0,-73.565"
       id="path663" /><path
       style="fill:none;stroke:#ffffff;stroke-width:10.7"
       d="m 5565.6907,37214.196 c -35.1253,31.356 7.8496,192.802 -18.9849,231.204 -1.8717,2.68 -5.5171,-3.503 -8.2757,-5.255"
       id="path665" /><path
       style="fill:none;stroke:#ffffff;stroke-width:10.7"
       d="m 5456.1624,37346.438 c 60.3213,-31.123 131.0561,-27.747 194.7167,-11.385"
       id="path667" /><path
       style="fill:none;stroke:#ffffff;stroke-width:10.7"
       d="m 5363.6723,35895.714 c 15.7967,5.353 -23.6564,145.952 0,84.953"
       id="path669" /><path
       style="fill:none;stroke:#ffffff;stroke-width:10.7"
       d="m 5354.9101,35704.796 c 5.3546,18.537 10.7093,37.074 16.0642,55.613 -0.4869,1.458 -0.9737,2.918 -1.4605,4.379"
       id="path671" /><path
       style="fill:none;stroke:#ffffff;stroke-width:10.7"
       d="m 6033.9839,36300.323 c -16.5508,13.282 -39.4751,21.227 -49.6525,39.849 -41.3092,75.581 -44.1685,406.754 73.9917,429.13"
       id="path673" /><path
       style="fill:none;stroke:#ffffff;stroke-width:10.7"
       d="m 6219.4515,36445.704 c -14.4373,-16.201 -97.3709,85.836 -55.008,104.653 43.7097,19.418 88.9686,-40.336 103.6865,-69.623 8.9766,-17.864 -56.3708,-53.482 -48.6785,-35.03 17.3381,41.589 127.1415,133.889 133.3804,200.115 3.9534,41.96 -95.7268,107.587 -122.1843,59.988 -5.8865,-10.588 -0.3249,-24.23 -0.4874,-36.343"
       id="path675" /><path
       style="fill:none;stroke:#ffffff;stroke-width:10.7"
       d="m 6468.6882,36402.352 c -66.9036,1.886 -43.2859,243.355 32.1283,187.854"
       id="path677" /><path
       style="fill:none;stroke:#ffffff;stroke-width:10.7"
       d="m 6588.4389,36420.306 c -1.0745,66.993 -38.1971,129.053 -47.2189,193.982 -1.0112,7.279 6.9001,-12.983 10.7093,-19.267"
       id="path679" /><path
       style="fill:none;stroke:#ffffff;stroke-width:10.7"
       d="m 6589.8991,36298.571 c -9.1403,-51.08 -3.0231,-73.427 0,0 z"
       id="path681" /><path
       style="fill:none;stroke:#ffffff;stroke-width:10.7"
       d="m 6427.3113,33767.581 c -104.4387,-30.607 -14.5193,-95.745 -0.4873,-70.501 10.8807,19.576 2.2489,53.385 0.4873,70.501 z"
       id="path683" /><path
       style="fill:none;stroke:#ffffff;stroke-width:10.7"
       d="m 6445.8091,33877.491 c -22.8015,55.539 -7.8245,107.85 0.9734,164.206 2.2937,14.692 3.9947,29.472 5.8415,44.228 1.9701,15.74 5.7259,48.384 0,29.776 -16.9476,-55.079 -20.4338,-117.092 -16.0642,-174.279 1.6404,-21.471 -10.0322,-73.517 9.2493,-63.931 8.7151,4.331 15.6237,174.271 14.604,196.173 -8.3109,178.48 -72.3085,-327.435 -18.4986,-85.389"
       id="path685" /><path
       style="fill:none;stroke:#ffffff;stroke-width:10.7"
       d="m 6426.824,33707.152 c -74.6025,4.39 -7.1792,-75.2 -1.9471,-55.612 4.7874,17.92 -1.6624,37.417 1.9471,55.612 5.0702,25.556 23.265,48.39 23.8529,74.441 0.5075,22.471 -38.6246,8.877 -41.3774,3.503 -15.5982,-30.451 4.8274,-52.71 17.5245,-77.944 z"
       id="path687" /><path
       style="fill:none;stroke:#ffffff;stroke-width:10.7"
       d="m 6442.8881,33926.534 c 6.822,24.104 30.4173,143.394 5.3547,162.018 -22.2404,16.526 -5.5891,-155.483 -5.3547,-162.018 z"
       id="path689" /><path
       style="fill:none;stroke:#ffffff;stroke-width:10.7"
       d="m 6656.5894,36132.612 c 99.1611,138.71 213.4569,285.797 146.0376,464.6 -3.6745,9.745 -37.2221,81.627 -56.4676,87.577 -5.1454,1.59 -5.8418,-9.049 -8.7625,-13.573"
       id="path691" /><path
       style="fill:none;stroke:#ffffff;stroke-width:10.7"
       d="m 6825.5061,36069.119 c 176.5061,143.428 245.9497,375.106 180.1127,593.776 -2.5583,8.495 -43.0432,127.251 -76.9131,134.868"
       id="path693" /><path
       style="fill:none;stroke:#ffffff;stroke-width:10.7"
       d="m 7416.4704,36411.985 c 13.6115,-1.709 120.7116,-16.274 120.2375,-15.327 -18.0771,36.134 -160.1526,9.064 -120.2375,15.327 30.0445,4.715 137.3568,-19.135 109.0414,30.215"
       id="path695" /><path
       style="fill:none;stroke:#ffffff;stroke-width:10.7"
       d="m 7742.6207,36066.929 c -0.1622,18.391 -0.2842,36.785 -0.4866,55.173 -0.1222,11.094 -0.3969,22.186 -0.4868,33.28 -0.1149,14.157 0.3574,56.628 0,42.476 -0.6287,-24.887 -16.3563,-68.551 -14.604,-87.577 1.4081,-15.291 1.3647,-37.539 15.5774,-43.352 4.0663,-1.662 118.5211,-5.538 151.3922,-13.573 22.2258,-5.435 75.5644,-37.505 82.2677,-34.155 10.6523,5.32 -4.7893,190.642 11.6829,131.365"
       id="path697" /><path
       style="fill:none;stroke:#ffffff;stroke-width:10.7"
       d="m 7868.6997,36279.304 c -8.6286,43.81 -28.7481,83.559 -45.7581,124.36 -11.1784,26.815 -8.4683,38.476 -12.1698,-4.815"
       id="path699" /><path
       style="fill:none;stroke:#ffffff;stroke-width:10.7"
       d="m 7761.6058,36277.553 c 35.2335,48.876 100.9735,68.551 128.5127,123.047"
       id="path701" /><path
       style="fill:none;stroke:#ffffff;stroke-width:10.7"
       d="m 7909.5905,36546.417 c -1.2541,46.395 -6.9787,92.639 -14.604,138.372"
       id="path703" /><path
       style="fill:none;stroke:#ffffff;stroke-width:10.7"
       d="m 7775.2359,36724.638 c 10.3452,40.452 3.8441,81.214 -1.9471,121.732 -6.7628,47.313 -0.4847,46.725 49.1659,44.664 51.6549,-2.143 27.645,-2.855 81.7809,-3.066 10.9439,-0.04 138.3921,11.102 148.4712,6.569 5.5972,-2.516 15.6834,-295.989 0,-199.239"
       id="path705" /><path
       style="fill:none;stroke:#ffffff;stroke-width:10.7"
       d="m 7915.9185,36986.057 c -3.6743,12.073 18.4616,180.824 -24.3398,156.763"
       id="path707" /><path
       style="fill:none;stroke:#ffffff;stroke-width:10.7"
       d="m 7800.0622,37051.3 c 66.5568,38.548 139.6654,16.259 210.7803,12.261"
       id="path709" /><path
       style="fill:none;stroke:#ffffff;stroke-width:10.7"
       d="m 7835.5979,35670.641 c 3.5698,12.846 9.6785,25.241 10.7093,38.534 1.547,19.947 -23.5088,33.994 -19.9586,9.194 14.9807,-104.637 8.3182,-14.914 4.8681,22.334"
       id="path711" /><path
       style="fill:none;stroke:#ffffff;stroke-width:10.7"
       d="m 7839.4923,35865.501 c -6.9421,2.178 5.2985,186.886 -5.3546,126.987"
       id="path713" /><path
       style="fill:none;stroke:#ffffff;stroke-width:10.7"
       d="m 8319.9553,36031.461 c -64.7629,182.618 -86.8403,407.559 -3.4076,589.397 8.4248,18.362 53.1783,98.631 89.0825,105.092"
       id="path715" /><path
       style="fill:none;stroke:#ffffff;stroke-width:10.7"
       d="m 8508.8299,36347.615 c -36.4696,-15.947 -84.772,17.198 -62.7957,58.24 16.6399,31.075 100.8859,98.901 119.2639,28.461 8.7072,-33.372 -61.404,-120.835 -56.4682,-86.701 10.0817,69.72 81.0943,136.435 104.6602,203.618 27.2539,77.7 -54.1991,143.436 -103.6865,50.358"
       id="path717" /><path
       style="fill:none;stroke:#ffffff;stroke-width:10.7"
       d="m 8739.0822,36231.576 c 3.4076,-12.409 6.8152,-24.815 10.2227,-37.221 -0.3246,-1.897 -0.4638,-7.549 -0.9736,-5.694 -3.8754,14.113 -6.1661,28.609 -9.2491,42.915 -20.6076,44.956 -46.3579,87.895 -61.8222,134.869 -41.3544,125.616 51.5977,173.985 151.3922,191.357"
       id="path719" /><path
       style="fill:none;stroke:#ffffff;stroke-width:10.7"
       d="m 8877.3313,36306.453 c -9.2747,-44.651 20.2102,-99.591 0,0 z"
       id="path721" /><path
       style="fill:none;stroke:#ffffff;stroke-width:10.7"
       d="m 8894.3688,36372.575 c 11.2022,72.057 5.1978,145.376 7.7886,217.631"
       id="path723" /><path
       style="fill:none;stroke:#ffffff;stroke-width:10.7"
       d="m 8911.8932,36112.908 c 24.9886,29.337 56.5497,54.163 74.966,88.014 65.7291,120.824 27.9342,340.881 -6.3283,464.163"
       id="path725" /><path
       style="fill:none;stroke:#ffffff;stroke-width:10.7"
       d="m 9004.8705,35932.936 c 12.1698,3.357 29.1761,-0.204 36.5093,10.07 23.3624,32.739 71.6703,217.702 74.9655,232.958 46.301,214.373 27.3573,426.936 -66.6901,625.303"
       id="path727" /><path
       style="fill:none;stroke:#ffffff;stroke-width:10.7"
       d="m 9327.1848,36173.363 c 37.8743,21.894 234.899,-39.474 158.2071,11.824"
       id="path729" /><path
       style="fill:none;stroke:#ffffff;stroke-width:10.7"
       d="m 9324.7509,36308.671 c 43.8166,0.391 92.4605,2.389 136.3017,3.942"
       id="path731" /><path
       style="fill:none;stroke:#ffffff;stroke-width:10.7"
       d="m 6111.2467,37978.263 c -40.8887,6.572 -114.3196,93.845 -46.7323,121.732 39.0197,16.1 141.5756,-14.563 113.4224,-73.128 -11.9182,-24.792 -69.9437,-75.92 -66.6901,-48.604 8.1428,68.366 185.0969,178.699 152.3656,259.667 -37.0761,91.715 -234.7143,106.204 -178.6525,17.952"
       id="path733" /><path
       style="fill:none;stroke:#ffffff;stroke-width:10.7"
       d="m 6464.1704,37906.886 c -21.2566,15.327 -46.7966,26.014 -63.7699,45.979 -13.6683,16.079 -19.0132,37.952 -24.8266,58.238 -26.5734,92.736 -18.6534,182.986 71.5584,233.394 22.1157,12.359 19.6001,10.226 38.4564,6.131"
       id="path735" /><path
       style="fill:none;stroke:#ffffff;stroke-width:10.7"
       d="m 6620.9167,37974.76 c -22.7163,22.04 -50.1642,211.516 -77.3996,229.891 -6.9546,4.691 -7.3676,-15.161 -9.7359,-23.209"
       id="path737" /><path
       style="fill:none;stroke:#ffffff;stroke-width:10.7"
       d="m 6513.8232,38009.351 c 75.7428,20.458 91.6281,126.601 156.2595,157.203"
       id="path739" /><path
       style="fill:none;stroke:#ffffff;stroke-width:10.7"
       d="m 6713.4071,37998.406 c 1.134,48.791 29.8979,99.39 25.3135,148.881"
       id="path741" /><path
       style="fill:none;stroke:#ffffff;stroke-width:10.7"
       d="m 6679.8188,38114.007 c 34.2051,-36.787 74.4186,-36.488 116.8297,-50.794"
       id="path743" /><path
       style="fill:none;stroke:#ffffff;stroke-width:10.7"
       d="m 6821.9617,37951.99 c 15.9681,64.547 2.8038,144.581 34.562,205.806"
       id="path745" /><path
       style="fill:none;stroke:#ffffff;stroke-width:10.7"
       d="m 6860.4184,37751.875 c 85.137,164.248 117.776,377.706 62.7962,556.993"
       id="path747" /><path
       style="fill:none;stroke:#ffffff;stroke-width:10.7"
       d="m 5667.2931,38157.359 c 13.0743,-4.013 273.2058,-52.385 219.5427,-9.197"
       id="path749" /><path
       style="fill:none;stroke:#ffffff;stroke-width:10.7"
       d="m 5662.9118,38252.379 c 54.8196,-15.711 114.1288,-33.47 171.8371,-24.521"
       id="path751" /><path
       style="fill:none;stroke:#ffffff;stroke-width:10.7"
       d="m 5284.1886,38088.61 c 15.577,19.997 34.695,37.682 46.7315,59.992 31.397,58.189 10.6129,220.244 -30.6674,267.985"
       id="path767" /><path
       style="fill:none;stroke:#ffffff;stroke-width:10.7"
       d="m 4920.5553,38141.156 c -12.1698,7.006 -27.232,10.478 -36.5093,21.019 -10.1579,11.541 -13.8817,27.535 -18.9849,42.037 -32.7862,93.181 -22.3489,187.317 49.6527,258.355 8.2894,8.178 27.4312,25.13 37.483,19.703"
       id="path769" /><path
       style="fill:none;stroke:#ffffff;stroke-width:10.7"
       d="m 5103.5887,38208.154 c 0.016,21.021 -30.9639,170.635 -41.8639,178.657 -6.8802,5.064 -7.0191,-15.721 -8.7622,-24.082"
       id="path771" /><path
       style="fill:none;stroke:#ffffff;stroke-width:10.7"
       d="m 5004.2835,38222.166 c 60.1628,45.019 131.7098,89.795 166.9693,158.515"
       id="path773" /><path
       style="fill:none;stroke:#ffffff;stroke-width:10.7"
       d="m 4669.8578,38202.899 c -19.9583,11.531 -41.2149,21.061 -59.8752,34.592 -36.7406,26.644 -60.158,62.458 -59.3886,108.598 1.1676,70.014 43.1974,131.268 70.0979,193.109 3.0961,7.117 -7.7631,-13.443 -11.683,-20.143"
       id="path775" /><path
       style="fill:none;stroke:#ffffff;stroke-width:10.7"
       d="m 4465.4056,38410.02 c 73.9857,-0.986 148.7646,0.265 221.9766,10.51"
       id="path777" /><path
       style="fill:none;stroke:#ffffff;stroke-width:10.7"
       d="m 4227.3647,38257.634 c -28.9917,52.173 -53.3961,106.561 -85.1884,157.202 -19.253,30.67 -39.6558,60.603 -59.8752,90.643 -15.2726,22.691 -66.8036,67.803 -8.2757,56.05 51.8311,-10.406 103.5516,-18.606 156.26,-23.207 24.883,-2.172 72.3567,-6.03 100.279,-5.254 16.1014,0.444 58.7346,21.584 73.0186,7.879 9.7708,-9.374 -11.2194,-41.54 -15.5771,-49.919 -20.9314,-40.246 -72.359,-163.867 -95.4111,-189.606 -17.472,-19.507 -51.6054,-21.423 -65.2301,-43.788 -11.3938,-18.701 2.9329,-44.228 -1.4605,-65.683 -4.6411,-22.662 -19.7226,-24.953 -16.551,-5.691"
       id="path781" /><path
       style="fill:none;stroke:#ffffff;stroke-width:10.7"
       d="m 4346.5243,39460.445 c -105.668,17.841 -147.7534,133.917 -136.3017,231.204 4.925,41.838 19.1582,72.215 6.8149,113.85"
       id="path783" /><path
       style="fill:none;stroke:#ffffff;stroke-width:10.7"
       d="m 4137.204,39694.715 c 51.0071,1.35 115.4504,-12.557 164.0485,6.567"
       id="path785" /><path
       style="fill:none;stroke:#ffffff;stroke-width:10.7"
       d="m 4538.32,39461.321 c -13.6303,8.464 -31.4198,12.446 -40.8906,25.398 -49.9237,68.275 -53.4792,287.53 0.4868,356.877"
       id="path787" /><path
       style="fill:none;stroke:#ffffff;stroke-width:10.7"
       d="m 4659.5309,39567.726 c -2.8798,49.575 -9.6764,215.302 -61.3357,232.082"
       id="path789" /><path
       style="fill:none;stroke:#ffffff;stroke-width:10.7"
       d="m 4572.8819,39613.705 c 32.8335,57.695 88.6881,86.45 136.7883,126.111"
       id="path791" /><path
       style="fill:none;stroke:#ffffff;stroke-width:10.7"
       d="m 4706.7495,39411.839 c 18.6602,21.894 39.4758,42.121 55.981,65.683 61.0312,87.124 83.9375,208.618 57.9282,311.777 -7.0279,27.874 -17.643,97.39 -43.8111,57.801"
       id="path793" /><path
       style="fill:none;stroke:#ffffff;stroke-width:10.7"
       d="m 4990.5487,39593.126 c 18.1755,12.057 196.0084,-49.149 119.2641,2.627"
       id="path795" /><path
       style="fill:none;stroke:#ffffff;stroke-width:10.7"
       d="m 4978.3792,39710.916 c 34.8152,18.896 156.8669,-60.283 196.1769,-13.137"
       id="path797" /><path
       style="fill:none;stroke:#ffffff;stroke-width:10.7"
       d="m 5381.4425,39432.421 c 68.6652,-5.607 137.0119,-15.32 204.9389,-26.713 78.1827,-13.112 53.6987,-9.749 122.6711,-24.521 33.5415,-7.184 56.3295,-12.764 55.4945,-10.509 -1.0618,2.865 -39.5171,39.878 -44.2979,47.73 -55.2635,90.779 -41.7303,75.129 -88.1096,192.233 -8.9363,22.561 -49.6634,179.272 -75.9389,163.33 -60.3028,-36.581 -130.9052,-264.202 -174.7581,-341.55 z"
       id="path799" /><path
       style="fill:none;stroke:#ffffff;stroke-width:10.7"
       d="m 6040.5574,39452.563 c -28.9229,7.959 -108.3262,88.165 -64.2567,119.105 18.2346,12.803 55.1585,6.475 72.0458,0.437 27.6923,-9.898 72.8858,-68.178 18.011,-73.565 -48.6741,-4.776 118.3923,127.685 123.6445,137.935 4.3011,8.393 5.1827,18.683 3.8947,28.025 -12.3465,89.546 -247.3018,205.465 -193.2559,52.985"
       id="path801" /><path
       style="fill:none;stroke:#ffffff;stroke-width:10.7"
       d="m 6350.6435,39379.874 c -54.0231,35.473 -56.543,23.744 -73.0189,93.708 -22.4192,95.2 -0.645,178.072 56.9548,254.849 3.4964,4.662 30.4855,34.79 32.1283,34.595 4.1198,-0.495 -2.5963,-7.882 -3.8944,-11.825"
       id="path803" /><path
       style="fill:none;stroke:#ffffff;stroke-width:10.7"
       d="m 6506.4164,39497.228 c -32.8866,59.51 -49.5977,125.161 -72.0449,188.73 -3.7455,10.607 -8.0582,40.129 -14.1166,30.652 -4.2672,-6.676 -4.5437,-15.182 -6.8154,-22.77"
       id="path805" /><path
       style="fill:none;stroke:#ffffff;stroke-width:10.7"
       d="m 6390.5602,39524.813 c 12.6566,-2.627 25.9765,-12.702 37.9698,-7.882 25.1346,10.107 92.7036,130.165 114.8826,156.766"
       id="path807" /><path
       style="fill:none;stroke:#ffffff;stroke-width:10.7"
       d="m 6576.5146,39492.41 c -5.4991,15.623 64.5774,137.916 44.2979,151.947 -4.8874,3.382 -11.3586,3.503 -17.0376,5.255 -131.7976,-90.278 96.8897,-105.848 64.2566,-81.008"
       id="path809" /><path
       style="fill:none;stroke:#ffffff;stroke-width:10.7"
       d="m 6721.5785,39464.824 c 25.5297,57.457 15.0622,129.128 45.7581,184.351"
       id="path811" /><path
       style="fill:none;stroke:#ffffff;stroke-width:10.7"
       d="m 6786.3218,39278.722 c 96.1459,146.047 121.1657,313.613 50.1393,473.355"
       id="path813" /><path
       style="fill:none;stroke:#ffffff;stroke-width:10.7"
       d="m 7183.3457,39946.951 c 29.8395,42.812 24.6465,123.295 61.3363,165.96 7.4975,8.718 17.1701,-81.606 19.958,-91.081 12.939,-43.971 62.5758,101.502 79.8341,70.938 11.7692,-20.841 0.1537,-62.114 17.0376,-78.82 9.3239,-9.226 104.2273,7.943 137.2751,-45.1 33.6452,-54.005 -36.3501,-49.496 -61.3358,-18.831 -130.0188,159.578 117.8288,173.437 141.6564,103.78"
       id="path815" /><path
       style="fill:none;stroke:#ffffff;stroke-width:10.7"
       d="m 7784.0462,39892.653 c -99.4005,51.459 -85.2564,299.066 50.6267,154.138"
       id="path817" /><path
       style="fill:none;stroke:#ffffff;stroke-width:10.7"
       d="m 7851.7105,39967.969 c 0.4868,15.912 -6.8818,34.174 1.4602,47.731 21.2485,34.528 50.2468,-32.758 53.0606,-38.534 2.7789,-5.704 6.7443,-22.471 9.2485,-16.64 7.1893,16.738 24.1041,148.17 27.7472,67.874"
       id="path819" /><path
       style="fill:none;stroke:#ffffff;stroke-width:10.7"
       d="m 7959.2911,39896.156 c -11.621,-45.424 81.9584,132.903 51.6001,111.662 -15.9874,-11.184 -2.0883,-72.94 18.0113,-76.631 25.6759,-4.712 52.8624,87.291 60.362,106.407"
       id="path821" /><path
       style="fill:none;stroke:#ffffff;stroke-width:10.7"
       d="m 8296.2877,39858.082 c -11.1439,50.012 66.6626,93.094 70.0982,140.999 0.7065,9.851 -15.4718,-13.303 -19.472,-22.333 -12.3743,-27.932 -23.1494,-72.419 -7.7883,-101.589 18.3727,-34.891 55.385,4.331 77.8865,7.445 19.4492,2.691 50.7286,-5.154 70.0979,-10.073 60.3721,-15.332 40.7842,-76.067 6.8149,-58.676 -102.1937,52.316 -4.1889,130.357 68.6374,128.738 12.1978,-0.27 52.3182,-3.993 33.5891,-21.894"
       id="path823" /><path
       style="fill:none;stroke:#ffffff;stroke-width:10.7"
       d="m 8660.8942,39859.834 c 19.6045,8.517 92.5676,13.433 105.1472,-9.197"
       id="path825" /><path
       style="fill:none;stroke:#ffffff;stroke-width:10.7"
       d="m 8831.2715,39741.602 c -21.699,-90.381 48.9239,-95.099 33.1018,-54.298 -7.6642,19.765 -22.0678,36.201 -33.1018,54.298 z"
       id="path827" /><path
       style="fill:none;stroke:#ffffff;stroke-width:10.7"
       d="m 8868.754,39826.115 c 7.5636,51.308 14.6944,103.458 28.2342,153.7 1.8584,6.895 0.7059,22.881 7.3017,20.142 7.9907,-3.318 3.5698,-16.933 5.3547,-25.397"
       id="path829" /><path
       style="fill:none;stroke:#ffffff;stroke-width:10.7"
       d="m 8928.6292,39800.279 c 13.9547,15.327 30.0879,28.921 41.8642,45.979 0.494,0.715 27.0674,52.221 19.472,63.931 -5.2998,8.173 -7.9351,-18.29 -8.2759,-28.024 -0.4254,-12.153 1.024,-42.005 13.6306,-52.107 28.5821,-22.908 61.2523,59.954 63.7693,77.504"
       id="path831" /><path
       style="fill:none;stroke:#ffffff;stroke-width:10.7"
       d="m 9080.0214,39749.048 c 71.8656,-34.597 83.2218,163.547 26.2869,155.011 -34.6025,-5.188 -48.0134,-41.921 -19.9586,-62.18 35.142,-25.379 68.1318,10.174 106.1207,-27.149 42.0042,-41.267 38.1169,-71.342 34.0754,-70.937 -63.5407,6.35 -80.8903,188.439 12.1695,120.856 9.5057,-6.903 16.8757,-16.348 25.3135,-24.521"
       id="path833" /><path
       style="fill:none;stroke:#ffffff;stroke-width:10.7"
       d="m 9334.6135,39701.756 c 25.1283,13.481 -33.0176,263.914 -76.913,201.866"
       id="path835" /><path
       style="fill:none;stroke:#ffffff;stroke-width:10.7"
       d="m 9229.9534,39759.993 c 26.5282,22.339 187.8613,136.748 190.8217,159.83"
       id="path837" /><path
       style="fill:none;stroke:#ffffff;stroke-width:10.7"
       d="m 4313.6826,40603.234 c -29.17,6.432 -35.7219,4.627 -59.2045,20.436 -104.9414,70.647 -68.0778,201.07 -58.172,305.919 0.6127,6.485 10.7246,80.092 -7.5727,42.109"
       id="path839" /><path
       style="fill:none;stroke:#ffffff;stroke-width:10.7"
       d="m 4094.0745,40853.728 c 59.5355,-15.809 128.2803,-31.049 190.0057,-16.719"
       id="path841" /><path
       style="fill:none;stroke:#ffffff;stroke-width:10.7"
       d="m 4483.3798,40597.971 c -11.7031,10.941 -26.175,19.524 -35.1097,32.822 -57.3635,85.375 -45.2655,218.067 -8.2611,307.464 1.6878,4.077 16.4229,49.303 29.6024,34.06"
       id="path843" /><path
       style="fill:none;stroke:#ffffff;stroke-width:10.7"
       d="m 4557.0413,40732.663 c 1.2349,54.028 -10.7936,109.156 -25.8159,161.006 -1.7076,5.895 -7.53,28.388 -15.4895,14.865"
       id="path845" /><path
       style="fill:none;stroke:#ffffff;stroke-width:10.7"
       d="m 4507.1306,40756.195 c 38.9522,33.639 60.3404,86.555 104.2966,114.562"
       id="path847" /><path
       style="fill:none;stroke:#ffffff;stroke-width:10.7"
       d="m 4706.4301,40799.851 c 2.9088,-1.027 68.8121,-18.955 68.4985,-13.314 -0.2749,4.945 -80.3965,32.441 -68.4985,13.314 46.9136,-75.406 65.8045,-28.438 62.991,-24.461"
       id="path855" /><path
       style="fill:none;stroke:#ffffff;stroke-width:10.7"
       d="m 4838.2638,40659.897 c 34.553,53.925 40.1153,121.888 49.5668,184.232"
       id="path857" /><path
       style="fill:none;stroke:#ffffff;stroke-width:10.7"
       d="m 4887.4863,40492.387 c 52.9659,28.024 42.6678,13.218 72.629,77.096 43.8377,93.467 65.047,200.359 42.6828,302.514 -0.3903,1.781 -19.0817,75.092 -29.6026,79.574 -4.5077,1.921 -5.2779,-8.255 -7.9169,-12.385"
       id="path859" /><path
       style="fill:none;stroke:#ffffff;stroke-width:10.7"
       d="m 5198.6551,40728.636 c 24.3922,-7.303 175.4466,-41.376 133.5551,-5.263"
       id="path861" /><path
       style="fill:none;stroke:#ffffff;stroke-width:10.7"
       d="m 5200.0323,40807.902 c 47.5393,29.292 104.3064,-14.602 153.5189,4.644"
       id="path863" /><path
       style="fill:none;stroke:#ffffff;stroke-width:10.7"
       d="m 5537.017,40620.884 c 61.5452,14.338 37.1136,12.639 104.9851,10.528 15.2378,-0.474 170.9827,-14.298 178.3024,-9.909 1.2724,0.762 -17.0376,16.632 -21.6855,31.584 -12.0544,38.772 -15.4437,62.047 -26.8486,108.68 -3.0379,12.422 -36.9308,143.277 -44.7477,140.263 -28.4509,-10.967 -92.3768,-168.717 -105.329,-196.617 -9.9944,-21.529 -75.9484,-152.257 -48.1901,-98.152"
       id="path865" /><path
       style="fill:none;stroke:#ffffff;stroke-width:10.7"
       d="m 6024.7674,40633.579 c -57.9464,-5.527 -80.994,108.849 -5.8518,91.651 11.9247,-2.73 23.8373,-6.932 34.0772,-13.623 45.1316,-29.498 -35.3501,-86.587 9.638,-13.623 9.7094,15.745 21.3299,30.268 33.0444,44.585 0.079,0.1 71.111,65.846 72.2849,98.155 2.0662,56.867 -151.3816,90.487 -147.6674,39.632 0.6752,-9.248 7.5727,-16.926 11.3591,-25.39"
       id="path867" /><path
       style="fill:none;stroke:#ffffff;stroke-width:10.7"
       d="m 6346.951,40619.955 c -36.9009,0.72 -33.5002,-7.175 -56.4507,29.105 -19.5527,30.908 -30.1702,56.263 -24.4396,93.509 3.4941,22.709 48.9051,110.545 81.2345,73.384"
       id="path869" /><path
       style="fill:none;stroke:#ffffff;stroke-width:10.7"
       d="m 6431.9717,40665.472 c -1.7121,62.64 5.3866,69.395 -16.8664,120.136 -20.3824,46.477 -25.3611,3.268 -33.3888,-19.198"
       id="path871" /><path
       style="fill:none;stroke:#ffffff;stroke-width:10.7"
       d="m 6370.7016,40682.191 c 43.7655,20.542 68.9311,52.848 91.5609,93.818 3.6867,6.676 4.571,15.05 9.6383,20.746 6.5479,7.364 3.5837,-19.378 5.163,-29.104"
       id="path873" /><path
       style="fill:none;stroke:#ffffff;stroke-width:10.7"
       d="m 6482.2269,40514.99 c 107.8974,95.599 124.2677,265.345 62.3025,390.758"
       id="path875" /><path
       style="fill:none;stroke:#ffffff;stroke-width:10.7"
       d="m 4501.0251,41649.065 c -9.8888,-0.727 -101.7619,157.007 -105.3291,156.364 -4.5712,-0.82 -0.3677,-9.303 0,-13.933"
       id="path877" /><path
       style="fill:none;stroke:#ffffff;stroke-width:10.7"
       d="m 4407.0551,41642.872 c 37.1803,42.59 59.4397,95.218 84.6765,145.219 5.0064,9.919 12.5635,40.984 14.4568,30.035 0.8829,-5.106 0.9179,-10.321 1.3769,-15.483"
       id="path879" /><path
       style="fill:none;stroke:#ffffff;stroke-width:10.7"
       d="m 4568.4909,41711.61 c 2.3016,10.084 78.7178,-8.03 71.9408,1.551"
       id="path881" /><path
       style="fill:none;stroke:#ffffff;stroke-width:10.7"
       d="m 4693.4404,41622.747 c 12.8543,37.193 -12.1264,83.606 7.9169,118.28"
       id="path883" /><path
       style="fill:none;stroke:#ffffff;stroke-width:10.7"
       d="m 4530.9717,41983.47 c 5.5853,39.7 -12.5122,79.682 -7.2284,118.898"
       id="path885" /><path
       style="fill:none;stroke:#ffffff;stroke-width:10.7"
       d="m 4422.5446,42088.435 c -1.9505,19.302 -2.6458,38.77 -5.8515,57.902 -0.7146,4.262 -26.8047,64.248 -24.0951,66.571 7.2663,6.226 19.0977,-1.431 28.5697,-2.786 62.079,-8.884 124.6114,-10.911 187.252,-9.599 2.6607,0.06 41.6732,4.033 44.0595,-0.619 6.11,-11.911 -3.6677,-26.567 -4.1307,-39.944 -1.5967,-46.141 -1.0353,-54.761 1.7211,-98.772 0.5562,-8.879 8.3339,-20.679 1.7209,-26.63 -1.3838,-1.243 -0.2294,3.717 -0.344,5.575"
       id="path887" /><path
       style="fill:none;stroke:#ffffff;stroke-width:10.7"
       d="m 4479.3398,42328.402 c -10.1875,39.772 1.0242,109.355 -17.899,145.526 -0.9068,1.733 -3.4423,-1.858 -5.1634,-2.786"
       id="path889" /><path
       style="fill:none;stroke:#ffffff;stroke-width:10.7"
       d="m 4401.5476,42386.613 c 42.8217,-1.892 77.3379,29.501 118.0653,35.607"
       id="path891" /><path
       style="fill:none;stroke:#ffffff;stroke-width:10.7"
       d="m 4384.6812,41572.275 c -1.1475,14.246 -3.1295,28.446 -3.4422,42.731 -0.2231,10.176 -1.0983,21.232 3.4422,30.345 5.7801,11.599 16.2859,-23.453 14.1129,-36.23 -2.2056,-12.964 -23.6506,-27.789 -14.1129,-36.846 15.5898,-14.8 42.6098,-5.945 63.6794,-10.218 58.1739,-11.792 115.8578,-22.73 174.8604,-30.652 28.4491,-3.82 55.2183,-8.985 82.9554,-16.721 6.0724,-1.694 12.7561,-3.879 18.5875,-6.501 0.7205,-0.326 5.5459,-6.125 6.5402,-4.337 9.9423,17.889 6.0405,149.109 -0.6887,116.422"
       id="path893" /><path
       style="fill:none;stroke:#ffffff;stroke-width:10.7"
       d="m 4547.8383,41240.038 c -2.2947,-34.263 -2.2947,-34.263 0,0 z"
       id="path895" /><path
       style="fill:none;stroke:#ffffff;stroke-width:10.7"
       d="m 4543.0192,41348.412 c -3.2501,-3.935 -8.4103,122.98 -4.1304,94.747"
       id="path897" /><path
       style="fill:none;stroke:#ffffff;stroke-width:10.7"
       d="m 4546.8057,41224.557 c -0.1149,-12.591 -3.4335,-25.566 -0.3442,-37.774 1.0178,-4.024 19.9498,1.55 18.9317,5.572 -3.0406,12.015 -12.3918,21.468 -18.5875,32.202 z"
       id="path899" /><path
       style="fill:none;stroke:#ffffff;stroke-width:10.7"
       d="m 5078.2713,41592.093 c -15.9488,18.476 -35.9188,34.131 -47.8459,55.425 -11.0638,19.751 -14.8762,42.886 -19.6202,65.021 -33.4256,155.977 -20.5888,323.263 35.7981,472.191"
       id="path901" /><path
       style="fill:none;stroke:#ffffff;stroke-width:10.7"
       d="m 5215.612,41813.171 c -8.9998,24.317 -56.2494,86.788 -30.6348,114.564 39.2192,42.529 179.7566,-37.885 135.6199,-78.338 -3.3568,-3.074 -25.7167,-12.078 -29.2579,-2.786 -2.358,6.186 69.1073,119.338 72.2847,141.502 15.8909,110.858 -53.3006,140.37 -131.8337,76.79"
       id="path905" /><path
       style="fill:none;stroke:#ffffff;stroke-width:10.7"
       d="m 5571.1845,41747.218 c -8.6053,4.233 -20.0885,5.006 -25.8162,12.697 -41.8526,56.198 -53.4019,196.03 -29.2579,260.091 7.1829,19.058 18.219,36.608 29.9469,53.258 19.2508,27.331 21.8215,27.014 38.8958,29.723"
       id="path907" /><path
       style="fill:none;stroke:#ffffff;stroke-width:10.7"
       d="m 5686.496,41790.258 c -11.7901,-32.512 -5.8505,-63.154 0,0 z"
       id="path909" /><path
       style="fill:none;stroke:#ffffff;stroke-width:10.7"
       d="m 5692.0033,41951.886 c 8.2254,36.555 4.7239,74.047 3.7864,111.16"
       id="path911" /><path
       style="fill:none;stroke:#ffffff;stroke-width:10.7"
       d="m 5774.6147,41623.986 c 30.1855,156.524 137.9524,334.936 44.4034,487.053"
       id="path913" /><path
       style="fill:none;stroke:#ffffff;stroke-width:10.7"
       d="m 5864.1102,41629.867 c 10.7853,15.896 24.0941,30.343 32.3559,47.684 55.9877,117.514 79.0485,382.182 -13.0799,486.126"
       id="path915" /><path
       style="fill:none;stroke:#ffffff;stroke-width:10.7"
       d="m 6122.2703,41846.921 c 13.7083,5.818 146.8474,-25.898 144.5694,-10.528"
       id="path917" /><path
       style="fill:none;stroke:#ffffff;stroke-width:10.7"
       d="m 6110.2225,41936.406 c 54.2367,10.149 119.2107,-16.36 171.4185,7.12"
       id="path919" /><path
       style="fill:none;stroke:#ffffff;stroke-width:10.7"
       d="m 6519.8364,41753.721 c 26.3038,7.261 215.2835,-16.041 217.1991,-7.432 2.3492,10.562 -13.0329,45.069 -15.1456,52.639 -16.4481,58.923 -36.6376,112.763 -60.9258,168.751 -0.5633,1.297 -17.5581,51.922 -19.9644,51.089 -39.2814,-13.592 -110.5707,-235.995 -121.1633,-265.047 z"
       id="path921" /><path
       style="fill:none;stroke:#ffffff;stroke-width:10.7"
       d="m 6919.1241,41733.285 c -33.9085,10.089 -87.0447,59.206 -64.3678,100.322 24.7494,44.873 92.5277,-2.529 112.5577,-20.436 30.8369,-27.567 -26.4155,-76.153 -11.0151,-19.818 3.1964,11.692 8.0017,22.903 12.7362,34.06 6.7469,15.902 14.3931,31.406 21.6853,47.064 15.6194,33.541 32.2244,56.386 27.8812,95.988 -5.344,48.726 -117.8266,27.708 -139.0623,-9.289 -5.606,-9.769 -3.2126,-22.294 -4.8189,-33.441"
       id="path923" /><path
       style="fill:none;stroke:#ffffff;stroke-width:10.7"
       d="m 7171.4324,41665.784 c -111.4142,103.532 -133.5519,277.406 5.852,367.536"
       id="path933" /><path
       style="fill:none;stroke:#ffffff;stroke-width:10.7"
       d="m 7307.0525,41789.019 c -25.4892,30.15 -43.0496,65.244 -61.6143,99.703 -2.9949,5.559 -6.3918,21.297 -9.982,16.1 -2.8392,-4.109 -3.6716,-9.289 -5.5075,-13.933"
       id="path935" /><path
       style="fill:none;stroke:#ffffff;stroke-width:10.7"
       d="m 7215.1473,41777.563 c 9.4086,13.727 18.2134,27.89 28.2258,41.182 30.6626,40.707 67.5889,74.634 107.0501,106.514 5.6423,4.558 11.4073,8.964 17.2109,13.314 1.0851,0.812 4.1548,3.32 3.4423,2.166 -1.8146,-2.936 -4.5895,-5.159 -6.8845,-7.739"
       id="path937" /><path
       style="fill:none;stroke:#ffffff;stroke-width:10.7"
       d="m 7354.5539,41619.959 c 13.539,12.075 29.6905,21.746 40.6173,36.229 56.2319,74.528 122.6097,283.853 43.0265,358.555"
       id="path939" /></g></svg>
