<?xml version="1.0" encoding="UTF-8" standalone="no"?>
<!-- Created with Inkscape (http://www.inkscape.org/) -->

<svg
   width="791.46625mm"
   height="196.2449mm"
   viewBox="0 0 791.46622 196.2449"
   version="1.1"
   id="svg12"
   inkscape:version="1.2.1 (9c6d41e410, 2022-07-14, custom)"
   sodipodi:docname="anti_difference_example.svg"
   xml:space="preserve"
   xmlns:inkscape="http://www.inkscape.org/namespaces/inkscape"
   xmlns:sodipodi="http://sodipodi.sourceforge.net/DTD/sodipodi-0.dtd"
   xmlns="http://www.w3.org/2000/svg"
   xmlns:svg="http://www.w3.org/2000/svg"><sodipodi:namedview
     id="namedview14"
     pagecolor="#505050"
     bordercolor="#eeeeee"
     borderopacity="1"
     inkscape:showpageshadow="0"
     inkscape:pageopacity="0"
     inkscape:pagecheckerboard="0"
     inkscape:deskcolor="#505050"
     inkscape:document-units="mm"
     showgrid="true"
     inkscape:zoom="0.12176488"
     inkscape:cx="1831.3983"
     inkscape:cy="1166.1819"
     inkscape:window-width="1366"
     inkscape:window-height="746"
     inkscape:window-x="0"
     inkscape:window-y="0"
     inkscape:window-maximized="1"
     inkscape:current-layer="layer1"
     inkscape:lockguides="false"><inkscape:grid
       type="xygrid"
       id="grid344"
       color="#969696"
       opacity="0.39215686"
       empcolor="#000000"
       empopacity="0.17254902"
       dotted="false"
       originx="-921.48083"
       originy="-10153.351" /></sodipodi:namedview><defs
     id="defs9" /><g
     inkscape:label="Layer 1"
     inkscape:groupmode="layer"
     id="layer1"
     transform="translate(-1026.4809,-10301.851)"><path
       style="fill:none;stroke:#ffffff;stroke-width:5.5"
       d="m 1091.1945,10354.128 c -7.1503,32.039 -27.2218,59.193 -48.7277,83.25 -3.4819,3.896 -13.683,12.546 -13.2044,13.981 0.3412,1.023 7.3453,-0.304 14.4897,-0.526 11.3709,-0.354 22.745,-0.8 34.1211,-0.736 10.4828,0.06 30.5463,1.649 41.366,2.523 7.66,0.619 19.439,3.994 27.2268,2.417 8.2566,-1.67 -30.0131,-66.523 -33.5368,-70.951 -2.7368,-3.44 -13.132,-11.68 -9.6988,-8.935"
       id="path1069" /><path
       style="fill:none;stroke:#ffffff;stroke-width:5.5"
       d="m 1309.3593,10353.392 c -3.1161,1.962 -6.9376,3.103 -9.3483,5.887 -18.868,21.787 -14.3437,59.708 0.9348,81.568 0.4631,0.663 10.7806,13.089 15.1909,11.458 2.9501,-1.092 3.6615,-5.116 5.4922,-7.674"
       id="path1087" /><path
       style="fill:none;stroke:#ffffff;stroke-width:5.5"
       d="m 1345.1163,10382.824 c 3.7649,5.623 5.2388,72.343 -8.8808,66.327"
       id="path1089" /><path
       style="fill:none;stroke:#ffffff;stroke-width:5.5"
       d="m 1325.6019,10411.205 c 19.7676,8.273 20.1123,6.13 34.0042,18.71 5.4004,4.891 7.0425,9.467 6.6606,9.776 -0.9524,0.771 -1.7138,-1.752 -2.5707,-2.628"
       id="path1091" /><path
       style="fill:none;stroke:#ffffff;stroke-width:5.5"
       d="m 1358.6713,10343.827 c 2.1033,-5.151 1.9513,-11.994 6.3101,-15.452 1.2853,-1.019 9.9955,7.287 17.411,21.969 14.0716,27.861 21.5824,57.701 16.5932,88.926 -2.2184,13.885 -8.3222,33.321 -14.7235,25.964"
       id="path1093" /><path
       style="fill:none;stroke:#ffffff;stroke-width:5.5"
       d="m 1477.9783,10385.032 c 11.5468,-1.405 28.8401,0.572 37.7436,1.471"
       id="path1095" /><path
       style="fill:none;stroke:#ffffff;stroke-width:5.5"
       d="m 1481.0165,10406.37 c 14.7459,6.608 33.709,-1.482 48.2603,6.097"
       id="path1097" /><path
       style="fill:none;stroke:#ffffff;stroke-width:5.5"
       d="m 1700.9341,10322.594 c -4.5183,2.453 -9.5106,4.184 -13.555,7.358 -26.0116,20.414 -40.7906,69.703 -13.7887,94.603 9.2724,8.55 34.4165,22.872 27.4605,-1.052"
       id="path1109" /><path
       style="fill:none;stroke:#ffffff;stroke-width:5.5"
       d="m 1754.2191,10357.282 c -7.392,14.921 -13.6784,30.253 -21.2673,45.094 -5.6683,11.084 -7.1152,12.795 -7.3617,12.298 -1.3113,-2.642 -0.3896,-5.886 -0.5843,-8.83"
       id="path1111" /><path
       style="fill:none;stroke:#ffffff;stroke-width:5.5"
       d="m 1719.7474,10364.009 c 2.8434,3.714 5.466,7.608 8.5303,11.142 13.5739,15.654 17.0573,18.034 34.5885,31.219 5.1239,3.853 18.6135,16.258 16.2427,10.301 -1.1312,-2.842 -2.8825,-5.396 -4.3237,-8.094"
       id="path1113" /><path
       style="fill:none;stroke:#ffffff;stroke-width:5.5"
       d="m 1779.2257,10303.779 c 5.3752,5.465 11.9315,9.98 16.1257,16.397 19.0917,29.21 26.6624,72.765 12.3864,105.325 -6.9275,15.799 -4.3669,15.511 -12.2696,12.719"
       id="path1115" /><path
       style="fill:none;stroke:#ffffff;stroke-width:5.5"
       d="m 1206.5871,10376.308 c -4.8122,-1.835 -35.7786,28.465 -21.1504,34.267 9.3888,3.724 46.4227,-20.721 39.3795,-30.904 -5.8481,-8.454 -6.9353,13.147 -0.7011,25.648 12.6015,25.27 42.5628,55.136 13.0875,80.728 -24.5663,21.33 -74.4266,3.524 -68.5927,-29.537 0.489,-2.772 3.6613,-4.275 5.492,-6.412"
       id="path1259" /><path
       style="fill:none;stroke:#ffffff;stroke-width:5.5"
       d="m 1601.6674,10361.382 c -5.7647,1.401 -11.9854,1.556 -17.2942,4.204 -16.2421,8.102 -15.8829,30.249 -14.2561,44.674 0.4811,4.266 9.485,32.209 4.791,21.653"
       id="path1261" /><path
       style="fill:none;stroke:#ffffff;stroke-width:5.5"
       d="m 1555.6273,10411.101 c 8.8751,-2.036 43.2954,-10.721 50.13,-2.523"
       id="path1263" /></g></svg>
