<?xml version="1.0" encoding="UTF-8" standalone="no"?>
<!-- Created with Inkscape (http://www.inkscape.org/) -->

<svg
   width="745.61774mm"
   height="122.66647mm"
   viewBox="0 0 745.61772 122.66647"
   version="1.1"
   id="svg12"
   inkscape:version="1.2.1 (9c6d41e410, 2022-07-14, custom)"
   sodipodi:docname="anti_cancel_therom.svg"
   xml:space="preserve"
   xmlns:inkscape="http://www.inkscape.org/namespaces/inkscape"
   xmlns:sodipodi="http://sodipodi.sourceforge.net/DTD/sodipodi-0.dtd"
   xmlns="http://www.w3.org/2000/svg"
   xmlns:svg="http://www.w3.org/2000/svg"><sodipodi:namedview
     id="namedview14"
     pagecolor="#505050"
     bordercolor="#eeeeee"
     borderopacity="1"
     inkscape:showpageshadow="0"
     inkscape:pageopacity="0"
     inkscape:pagecheckerboard="0"
     inkscape:deskcolor="#505050"
     inkscape:document-units="mm"
     showgrid="true"
     inkscape:zoom="0.12176488"
     inkscape:cx="1420.7709"
     inkscape:cy="1461.8337"
     inkscape:window-width="1366"
     inkscape:window-height="746"
     inkscape:window-x="0"
     inkscape:window-y="0"
     inkscape:window-maximized="1"
     inkscape:current-layer="layer1"
     inkscape:lockguides="false"><inkscape:grid
       type="xygrid"
       id="grid344"
       color="#969696"
       opacity="0.39215686"
       empcolor="#000000"
       empopacity="0.17254902"
       dotted="false"
       originx="-996.36133"
       originy="-10091.731" /></sodipodi:namedview><defs
     id="defs9" /><g
     inkscape:label="Layer 1"
     inkscape:groupmode="layer"
     id="layer1"
     transform="translate(-1101.3614,-10240.231)"><path
       style="fill:none;stroke:#ffffff;stroke-width:5.5"
       d="m 1147.4638,10265.116 c -5.8926,24.78 -1.2901,13.996 -12.9707,33.741 -7.9808,13.491 -15.6126,26.949 -24.5392,39.839 -3.0315,4.377 -6.1984,8.723 -6.1932,8.724 7.412,2.343 20.9729,1.506 27.6942,2.208 16.3715,1.708 34.3657,6.154 50.9479,4.309 4.3811,-0.487 6.6878,-2.56 6.427,-7.253 -1.0508,-18.905 -16.0077,-35.556 -26.6426,-49.824 -2.8902,-3.877 -6.7291,-7.175 -8.7639,-11.562 -2.9514,-6.364 -3.973,-13.455 -5.9595,-20.182 z"
       id="path1551" /><path
       style="fill:none;stroke:#ffffff;stroke-width:5.5"
       d="m 1235.6879,10275.522 c 22.5156,0 2.0509,0.146 27.2267,-0.525 4.1496,-0.111 35.083,-1.578 37.8605,1.892 0.5267,0.658 -22.2515,48.693 -24.6561,55.5 -1.2373,3.502 -2.4909,7.012 -3.3887,10.616 -0.7818,3.139 -0.1131,12.42 -1.636,9.566 -12.8828,-24.143 -31.866,-41.992 -50.7142,-61.702 -1.1822,-1.236 -14.9303,-12.644 -5.0247,-13.139"
       id="path1553" /><path
       style="fill:none;stroke:#ffffff;stroke-width:5.5"
       d="m 1361.305,10269.951 c -4.752,2.067 -10.4772,2.656 -14.2561,6.202 -11.0914,10.408 -5.2089,48.16 -4.2067,61.176 0.1776,2.307 2.2002,10.694 -2.2203,7.463"
       id="path1555" /><path
       style="fill:none;stroke:#ffffff;stroke-width:5.5"
       d="m 1322.6266,10320.721 c 14.4753,-3.758 27.1746,4.868 41.366,2.628"
       id="path1557" /><path
       style="fill:none;stroke:#ffffff;stroke-width:5.5"
       d="m 1404.5406,10282.565 c 25.1954,-23.722 0.5354,-1.023 0,0 -1.9004,3.633 -23.2404,63.482 7.1281,47.722"
       id="path1559" /><path
       style="fill:none;stroke:#ffffff;stroke-width:5.5"
       d="m 1436.5584,10292.761 c 2.9718,1.768 4.7863,57.706 -5.2584,43.938"
       id="path1561" /><path
       style="fill:none;stroke:#ffffff;stroke-width:5.5"
       d="m 1419.1473,10303.693 c 9.3526,-5.053 54.6333,32.538 39.3795,15.767"
       id="path1563" /><path
       style="fill:none;stroke:#ffffff;stroke-width:5.5"
       d="m 1468.9267,10252.818 c 3.5445,0.84 7.6904,0.376 10.6336,2.522 18.2886,13.339 20.0985,92.206 1.8697,105.325"
       id="path1565" /><path
       style="fill:none;stroke:#ffffff;stroke-width:5.5"
       d="m 1543.8296,10295.178 c 7.1388,-0.493 49.9097,-5.822 34.4716,0.736"
       id="path1567" /><path
       style="fill:none;stroke:#ffffff;stroke-width:5.5"
       d="m 1551.3081,10305.69 c 15.4997,10.192 33.9088,8.45 50.948,13.454"
       id="path1569" /><path
       style="fill:none;stroke:#ffffff;stroke-width:5.5"
       d="m 1690.1296,10266.903 c -17.9053,0.248 -29.4273,19.906 -27.811,37 0.8326,8.806 3.7279,17.299 5.9595,25.858 0.2524,0.968 7.4187,14.334 0.818,9.881"
       id="path1571" /><path
       style="fill:none;stroke:#ffffff;stroke-width:5.5"
       d="m 1640.9345,10315.255 c 17.0648,-5.717 33.1228,2.449 49.8963,4.52"
       id="path1573" /><path
       style="fill:none;stroke:#ffffff;stroke-width:5.5"
       d="m 1748.5563,10266.903 c 3.2329,-3.259 12.9572,-6.543 9.6987,-9.776 -3.2585,-3.233 -6.5075,6.476 -9.6987,9.776 -5.4174,5.601 -11.7039,10.507 -16.1259,16.923 -8.5328,12.38 -9.7852,33.494 -2.8044,46.776 4.247,8.08 11.9621,18.796 21.5009,14.611"
       id="path1575" /><path
       style="fill:none;stroke:#ffffff;stroke-width:5.5"
       d="m 1784.0796,10285.193 c 2.9213,-0.176 7.0371,-2.889 8.7639,-0.526 4.032,5.517 -9.6458,46.596 -15.892,46.671 -2.0596,0.02 -2.8824,-2.943 -4.3236,-4.415"
       id="path1577" /><path
       style="fill:none;stroke:#ffffff;stroke-width:5.5"
       d="m 1770.9921,10296.44 c 3.9316,2.217 30.8512,38.31 31.9008,37.736 3.4481,-1.888 -0.2072,-7.873 -0.7012,-11.773"
       id="path1579" /><path
       style="fill:none;stroke:#ffffff;stroke-width:5.5"
       d="m 1813.0592,10243.357 c 4.0119,0.281 8.7479,-1.475 12.0358,0.841 17.3005,12.187 20.8392,48.833 18.4628,66.432 -3.9328,29.126 -9.0449,23.988 -13.3213,41.941"
       id="path1581" /></g></svg>
