<?xml version="1.0" encoding="UTF-8" standalone="no"?>
<!-- Created with Inkscape (http://www.inkscape.org/) -->

<svg
   width="993.24707mm"
   height="535.7887mm"
   viewBox="0 0 993.24705 535.78871"
   version="1.1"
   id="svg12"
   inkscape:version="1.2.1 (9c6d41e410, 2022-07-14, custom)"
   sodipodi:docname="anti_difference_notation.svg"
   xml:space="preserve"
   xmlns:inkscape="http://www.inkscape.org/namespaces/inkscape"
   xmlns:sodipodi="http://sodipodi.sourceforge.net/DTD/sodipodi-0.dtd"
   xmlns="http://www.w3.org/2000/svg"
   xmlns:svg="http://www.w3.org/2000/svg"><sodipodi:namedview
     id="namedview14"
     pagecolor="#505050"
     bordercolor="#eeeeee"
     borderopacity="1"
     inkscape:showpageshadow="0"
     inkscape:pageopacity="0"
     inkscape:pagecheckerboard="0"
     inkscape:deskcolor="#505050"
     inkscape:document-units="mm"
     showgrid="true"
     inkscape:zoom="0.12176488"
     inkscape:cx="2168.1128"
     inkscape:cy="1732.8478"
     inkscape:window-width="1366"
     inkscape:window-height="746"
     inkscape:window-x="0"
     inkscape:window-y="0"
     inkscape:window-maximized="1"
     inkscape:current-layer="layer1"
     inkscape:lockguides="false"><inkscape:grid
       type="xygrid"
       id="grid344"
       color="#969696"
       opacity="0.39215686"
       empcolor="#000000"
       empopacity="0.17254902"
       dotted="false"
       originx="-799.2099"
       originy="-10019.732" /></sodipodi:namedview><defs
     id="defs9" /><g
     inkscape:label="Layer 1"
     inkscape:groupmode="layer"
     id="layer1"
     transform="translate(-904.20992,-10168.232)"><path
       style="fill:none;stroke:#ffffff;stroke-width:5.5"
       d="m 958.68305,10265.097 c 20.75908,-0.309 41.11652,-5.601 61.93215,-6.307 21.9495,-0.745 43.949,0.63 65.9052,0.63 0.6876,0 19.2807,-0.05 19.2807,1.052 0,0.334 -18.126,15.544 -20.683,18.71 -15.6363,19.361 -27.6546,41.557 -41.5997,62.122 -9.2127,13.587 -19.1839,26.66 -26.8762,41.205 -2.6658,5.041 -3.7824,11.076 -6.31,16.293 -0.5728,1.182 -1.0285,4.477 -1.8697,3.468 -3.4224,-4.104 -0.6532,-15.434 -1.6359,-20.707 -1.9186,-10.293 -5.4438,-18.388 -8.99773,-28.171 -2.95148,-8.124 -4.18745,-16.714 -6.89433,-24.912 -7.47598,-22.64 -23.51243,-41.274 -32.25149,-63.383 z"
       id="path1284" /><path
       style="fill:none;stroke:#ffffff;stroke-width:5.5"
       d="m 1188.2995,10299.889 c -18.7627,2.785 -27.8351,15.963 -27.5774,34.688 0.2056,14.936 0.8264,19.33 4.9078,31.429 0.5573,1.652 7.6962,14.762 3.7394,8.83"
       id="path1286" /><path
       style="fill:none;stroke:#ffffff;stroke-width:5.5"
       d="m 1145.2975,10354.128 c 13.8425,-2.522 33.268,-8.869 46.975,-1.471"
       id="path1288" /><path
       style="fill:none;stroke:#ffffff;stroke-width:5.5"
       d="m 1264.9551,10288.642 c -30.2647,21.918 -50.2819,66.314 -3.2719,77.259"
       id="path1290" /><path
       style="fill:none;stroke:#ffffff;stroke-width:5.5"
       d="m 1288.092,10313.87 c 7.3947,0.825 -2.8877,65.609 -13.6718,45.514"
       id="path1292" /><path
       style="fill:none;stroke:#ffffff;stroke-width:5.5"
       d="m 1272.5505,10324.906 c 3.8562,1.157 8.2018,1.262 11.5685,3.469 5.1573,3.381 19.0534,23.807 20.9167,26.489 0.9221,1.327 3.1283,5.646 2.2202,4.31 -0.5129,-0.755 -0.8569,-1.612 -1.2854,-2.418"
       id="path1294" /><path
       style="fill:none;stroke:#ffffff;stroke-width:5.5"
       d="m 1299.4267,10270.352 c 5.8817,4.52 12.7381,7.997 17.6449,13.56 16.7781,19.022 22.699,51.151 17.7617,75.262 -2.3623,11.535 -5.6359,20.997 -12.0359,30.693 -1.0841,1.642 -6.3471,7.973 -7.5955,2.733"
       id="path1296" /><path
       style="fill:none;stroke:#ffffff;stroke-width:5.5"
       d="m 1396.9327,10336.543 c 0.02,-2.201 56.9201,-13.019 36.3413,1.261"
       id="path1378" /><path
       style="fill:none;stroke:#ffffff;stroke-width:5.5"
       d="m 1402.7754,10350.208 c 13.3773,5.066 26.8959,4.474 40.6648,1.997"
       id="path1380" /><path
       style="fill:none;stroke:#ffffff;stroke-width:5.5"
       d="m 1473.7052,10334.861 c -4.3368,-10.329 -10.0925,11.256 -5.7258,11.983 7.6793,1.279 36.7093,-13.797 28.3953,-19.236 -4.7032,-3.077 -7.8111,5.885 -7.3617,8.62 3.2469,19.757 39.6202,25.378 18.4628,45.304 -9.9297,9.351 -38.311,8.085 -30.4987,-15.873"
       id="path1382" /><path
       style="fill:none;stroke:#ffffff;stroke-width:5.5"
       d="m 1551.1788,10324.98 c 3.1161,-2.733 6.2321,-5.466 9.3482,-8.198 -0.039,-0.491 0.2531,-1.796 -0.1168,-1.472 -3.3504,2.938 -5.8986,6.712 -9.2314,9.67 -5.5273,4.907 -12.5764,8.186 -17.2943,13.875 -2.7527,3.32 -4.8953,7.919 -4.3235,12.194 2.1067,15.748 22.3906,23.478 33.42,13.034"
       id="path1384" /><path
       style="fill:none;stroke:#ffffff;stroke-width:5.5"
       d="m 1587.0528,10326.662 c 10.3602,-13.325 8.6444,-20.203 0,0 -1.635,3.821 -1.4703,22.969 -11.3348,21.759"
       id="path1386" /><path
       style="fill:none;stroke:#ffffff;stroke-width:5.5"
       d="m 1570.8101,10323.929 c 12.2836,13.758 15.7564,17.485 28.7459,32.901 7.6019,9.022 7.0188,8.767 3.3888,-2.733"
       id="path1388" /><path
       style="fill:none;stroke:#ffffff;stroke-width:5.5"
       d="m 1600.2572,10284.827 c 6.31,5.361 13.4976,9.834 18.9301,16.082 18.3793,21.14 27.071,54.306 10.6336,78.836 -4.7236,7.049 -14.011,16.339 -23.0199,11.352"
       id="path1390" /><path
       style="fill:none;stroke:#ffffff;stroke-width:5.5"
       d="m 1751.6988,10291.975 c -6.2322,2.277 -12.759,3.87 -18.6965,6.832 -26.7728,13.355 25.0444,20.535 30.3818,29.222 7.7362,12.59 -10.6991,37.118 -24.1886,36.369 -13.9509,-0.775 -1.5095,-1.079 -4.5573,-3.259"
       id="path1392" /><path
       style="fill:none;stroke:#ffffff;stroke-width:5.5"
       d="m 1800.4265,10364.188 c 0.818,-3.434 5.8876,-9.483 2.4539,-10.301 -3.4337,-0.818 -1.6359,6.867 -2.4539,10.301 z"
       id="path1394" /><path
       style="fill:none;stroke:#ffffff;stroke-width:5.5"
       d="m 1835.5993,10302.065 c 1.9237,0.592 14.9805,-19.87 15.0741,-16.292 0.3515,13.44 -2.1177,26.818 -2.4539,40.258 -0.3105,12.414 0.7951,25.971 -2.1034,38.262"
       id="path1396" /><path
       style="fill:none;stroke:#ffffff;stroke-width:5.5"
       d="m 1832.0937,10342.324 c -9.88,-22.338 39.6643,-12.311 43.9368,-4.625"
       id="path1398" /><path
       style="fill:none;stroke:#ffffff;stroke-width:5.5"
       d="m 1892.0394,10359.247 c -2.9603,1.122 -5.7762,3.982 -8.8809,3.364 -1.2117,-0.241 -7.1379,-14.921 -1.7528,-12.088 4.0576,2.135 7.0891,5.816 10.6337,8.724 z"
       id="path1400" /><path
       style="fill:none;stroke:#ffffff;stroke-width:5.5"
       d="m 1002.7872,10583.561 c -7.73405,38.048 -31.02066,71.231 -52.93451,102.591 -1.05833,1.515 2.58932,-2.831 4.32358,-3.469 5.71545,-2.1 11.62577,-3.808 17.64483,-4.73 21.44964,-3.285 43.3874,-1.227 65.0872,-1.261 4.4483,0 30.4224,2.995 37.5098,-0.315 3.287,-1.536 -3.4856,-12.128 -8.2966,-21.023 -10.9529,-20.253 -21.6697,-42.875 -36.9255,-60.336 -23.4259,-26.811 -14.5068,-15.318 -14.1392,-11.352"
       id="path1402" /><path
       style="fill:none;stroke:#ffffff;stroke-width:5.5"
       d="m 1159.0198,10616.462 c -11.4562,-7.914 -35.3526,28.318 -16.8269,27.855 11.1777,-0.279 24.81,-8.343 30.265,-18.08 6.1603,-10.996 -14.8687,-12.51 -13.4381,-9.775 7.7939,14.898 48.6817,39.703 32.9525,64.96 -10.5854,16.997 -43.5245,15.436 -40.7817,-8.619"
       id="path1404" /><path
       style="fill:none;stroke:#ffffff;stroke-width:5.5"
       d="m 1244.2057,10601.01 c 0.3609,-0.617 7.5227,-10.99 7.2449,-14.821 -0.042,-0.583 -1.4962,-0.525 -1.7528,0 -2.3138,4.733 -2.7787,10.305 -5.4921,14.821 -4.6445,7.73 -12.579,13.36 -16.3594,21.548 -6.5665,14.222 1.9258,48.075 23.7211,38.157 3.8276,-1.742 6.6217,-5.186 9.9325,-7.779"
       id="path1406" /><path
       style="fill:none;stroke:#ffffff;stroke-width:5.5"
       d="m 1280.6638,10604.584 c -11.1373,20.129 -4.3497,46.615 -14.8402,66.747 -0.5278,1.013 -7.1977,-14.755 -7.7124,-15.977"
       id="path1408" /><path
       style="fill:none;stroke:#ffffff;stroke-width:5.5"
       d="m 1250.1652,10635.592 c -0.7011,-3.188 1.0851,-10.266 -2.1033,-9.565 -3.1885,0.701 -0.9983,8.546 2.1033,9.565 5.9838,1.966 12.6281,-4.419 18.6965,-2.733 8.6708,2.41 15.4862,9.199 22.9032,14.296 2.1689,1.49 6.93,7.922 5.1415,5.991 -0.7847,-0.847 -1.3243,-1.892 -1.9865,-2.838"
       id="path1410" /><path
       style="fill:none;stroke:#ffffff;stroke-width:5.5"
       d="m 1289.311,10582.089 c 0.2727,-6.482 -1.6193,-13.433 0.818,-19.446 1.4258,-3.517 9.8075,0.554 21.1504,12.088 8.8808,9.031 21.5621,24.789 25.3571,37.526 2.6469,8.884 4.4841,18.292 3.8562,27.54 -1.4051,20.697 -14.9039,54.802 -36.8088,61.597"
       id="path1412" /><path
       style="fill:none;stroke:#ffffff;stroke-width:5.5"
       d="m 1415.1618,10611.942 c -2.9603,-0.526 -8.3553,-4.537 -8.8808,-1.577 -2.2631,12.747 68.9823,-29.859 29.447,3.994"
       id="path1414" /><path
       style="fill:none;stroke:#ffffff;stroke-width:5.5"
       d="m 1400.672,10638.536 c 19.7916,0.817 39.1619,-6.762 58.894,-4.1"
       id="path1416" /><path
       style="fill:none;stroke:#ffffff;stroke-width:5.5"
       d="m 1560.7608,10585.348 c -24.3816,-16.266 -35.9617,26.022 -31.4335,42.781 1.8577,6.875 19.2664,29.622 18.346,32.796"
       id="path1418" /><path
       style="fill:none;stroke:#ffffff;stroke-width:5.5"
       d="m 1519.7453,10646.839 c 2.376,-4.064 3.0769,-9.794 7.1281,-12.193 5.7593,-3.409 37.677,-9.592 44.8716,-4.415"
       id="path1420" /><path
       style="fill:none;stroke:#ffffff;stroke-width:5.5"
       d="m 1620.5896,10576.308 c -39.1554,7.393 -28.255,74.462 11.6853,66.327"
       id="path1422" /><path
       style="fill:none;stroke:#ffffff;stroke-width:5.5"
       d="m 1651.7894,10598.697 c 0.4674,-2.908 4.3103,-8.257 1.4022,-8.724 -5.2871,-0.85 4.3009,52.241 -8.764,57.707 -2.0117,0.842 -3.8951,-1.962 -5.8426,-2.943"
       id="path1424" /><path
       style="fill:none;stroke:#ffffff;stroke-width:5.5"
       d="m 1627.8345,10616.146 c 16.9838,-12.266 27.9383,0.04 43.703,8.83 3.2271,1.799 6.4568,3.6 9.5819,5.571 0.6648,0.419 1.6016,2.348 1.7529,1.576 0.234,-1.192 -0.9348,-2.242 -1.4022,-3.363"
       id="path1426" /><path
       style="fill:none;stroke:#ffffff;stroke-width:5.5"
       d="m 1668.2657,10551.501 c 20.1751,3.325 16.7574,-1.234 27.2267,22.389 12.3821,27.94 12.49,55.104 -0.1169,83.04 -7.8559,17.409 -5.0563,16.062 -15.3076,16.293"
       id="path1428" /><path
       style="fill:none;stroke:#ffffff;stroke-width:5.5"
       d="m 915.26419,10428.097 c 3.43082,51.78 3.19815,-41.359 3.15505,-43.727 -1.23759,-68.02 -12.64613,-135.78 -9.93254,-203.711 5.4142,-2.277 10.46717,-5.762 16.2426,-6.832 10.13002,-1.877 20.56472,-1.285 30.84922,-1.892 32.46874,-1.917 64.50158,-0.393 96.98808,-0.106 66.9578,0.593 133.9155,0.534 200.8705,1.472 30.1794,0.423 60.3884,-0.941 90.5612,0 21.0609,-0.431 41.9752,2.381 62.9838,3.048 69.3927,2.203 138.9253,1.271 208.3491,3.154 4.0353,0.109 30.2015,-3.202 32.4852,1.787 3.1914,6.972 2.5039,23.285 2.9213,29.221 2.7383,38.945 5.7805,77.882 9.1145,116.782 3.5007,40.844 10.211,81.523 0.5844,121.932 -0.6704,2.814 -1.3391,10.48 -3.1551,13.245 -1.0498,1.598 -14.7004,-3.16 -16.4763,-3.469 -22.7049,-3.953 -45.1214,-0.946 -67.8917,-0.946 -29.1411,0 -57.6959,-2.973 -86.705,-4.941 -39.0158,-2.646 -78.2533,-3.536 -117.3205,-5.255 -24.174,-1.064 -48.3864,0 -72.5658,-0.526 -44.8817,-0.988 -90.2525,-3.278 -134.9653,-7.253 -24.3552,-2.165 -48.6891,-1.396 -73.0333,-3.363 -29.0827,-2.35 -58.1692,-7.824 -87.4061,-7.674 -25.30263,0.13 -49.98867,5.385 -74.90281,9.145 -3.09443,0.467 -19.69242,4.409 -19.04706,-0.525"
       id="path1430" /></g></svg>
