<?xml version="1.0" encoding="UTF-8" standalone="no"?>
<!-- Created with Inkscape (http://www.inkscape.org/) -->

<svg
   width="367.7529mm"
   height="121.9314mm"
   viewBox="0 0 367.7529 121.9314"
   version="1.1"
   id="svg12"
   inkscape:version="1.2.1 (9c6d41e410, 2022-07-14, custom)"
   sodipodi:docname="avl_tree_inbetween_steps.svg"
   xmlns:inkscape="http://www.inkscape.org/namespaces/inkscape"
   xmlns:sodipodi="http://sodipodi.sourceforge.net/DTD/sodipodi-0.dtd"
   xmlns="http://www.w3.org/2000/svg"
   xmlns:svg="http://www.w3.org/2000/svg">
  <sodipodi:namedview
     id="namedview14"
     pagecolor="#505050"
     bordercolor="#eeeeee"
     borderopacity="1"
     inkscape:showpageshadow="0"
     inkscape:pageopacity="0"
     inkscape:pagecheckerboard="0"
     inkscape:deskcolor="#505050"
     inkscape:document-units="mm"
     showgrid="false"
     inkscape:zoom="0.80495774"
     inkscape:cx="710.59631"
     inkscape:cy="295.6677"
     inkscape:window-width="1366"
     inkscape:window-height="746"
     inkscape:window-x="0"
     inkscape:window-y="0"
     inkscape:window-maximized="1"
     inkscape:current-layer="layer1"
     inkscape:lockguides="false" />
  <defs
     id="defs9" />
  <g
     inkscape:label="Layer 1"
     inkscape:groupmode="layer"
     id="layer1"
     transform="translate(-52.320798,-51.744349)">
    <path
       style="fill:none;stroke:#00ffff;stroke-width:0.264999"
       d="m 83.808045,76.996448 c -0.992211,0.791374 -2.270773,2.090428 -3.641315,1.144836 -4.580175,-3.160051 4.372256,-16.240212 9.439108,-6.519185 1.162,2.229355 1.455145,4.158551 0.760082,6.789497 -0.392652,1.486259 -2.43827,3.184524 -3.694337,3.895608 -5.85805,3.316351 -14.248638,-0.460457 -11.348127,-7.775326 2.30197,-5.805387 12.978667,-11.075429 16.474233,-3.323193 1.089909,2.41713 -2.030968,6.928633 -3.782708,8.029728 -1.877438,1.180103 -3.952846,2.173978 -6.13365,2.575872 -3.052189,0.562478 -4.570386,-3.555685 -5.179129,-5.612855"
       id="path248" />
    <path
       style="fill:none;stroke:#00ffff;stroke-width:0.264999"
       d="m 96.923795,55.753446 c 0.653743,3.562803 1.413592,7.104224 2.209522,10.637404 0.506413,2.247982 -1.122037,-3.067844 -1.148955,-3.164189 -1.232697,-4.411858 -2.256129,-6.972782 1.148955,-10.701004 0.320292,-0.350687 0.821315,-0.529611 1.290353,-0.604221 1.39589,-0.222039 2.41765,0.389197 3.32314,1.446945 3.61844,4.226896 -2.95762,10.128197 -5.391246,7.695819 -0.277439,-0.277294 0.01177,-0.784421 0.01767,-1.176634"
       id="path250" />
    <path
       style="fill:none;stroke:#00ffff;stroke-width:0.264999"
       d="m 89.040196,77.632466 c 0.4478,0.333913 0.97277,0.583819 1.343398,1.001737 0.457801,0.51621 1.964931,3.231057 2.297896,3.784303 1.55538,2.584368 3.18004,5.128943 5.126106,7.441414 0.156594,0.186079 3.377664,3.587293 3.446854,3.545801 0.4939,-0.296183 -0.0154,-0.888527 -0.26514,-1.097129"
       id="path252" />
    <path
       style="fill:none;stroke:#00ffff;stroke-width:0.264999"
       d="m 104.70133,92.531199 c -0.24222,-0.469657 -0.60447,-1.660578 -1.30805,-1.971662 -1.05907,-0.468265 -2.95792,1.632204 -3.34081,2.067065 -2.286966,2.597372 -5.056307,9.526098 -1.131264,12.052538 3.908514,2.5158 11.277584,-0.375 12.355664,-4.929142 0.58559,-2.473698 0.17771,-4.936485 -0.88382,-7.155204 -0.42243,-0.882941 -0.86683,-1.783416 -1.52014,-2.512266 -1.37438,-1.533311 -3.63013,-1.204003 -4.41905,0.842724 -0.1948,0.505389 0.16498,1.070631 0.24747,1.605947 z"
       id="path254" />
    <path
       style="fill:none;stroke:#00ffff;stroke-width:0.264999"
       d="m 115.09493,107.65252 c -0.81899,0.50352 -1.81885,0.79147 -2.45698,1.51055 -0.81363,0.91682 -1.58039,4.0788 -0.35353,5.11994 2.38732,2.02595 7.32002,-3.95428 7.61844,-6.15347 0.28387,-2.09194 -3.27192,-3.70902 -4.36603,-2.16246 -0.33543,0.47415 -0.2946,1.12363 -0.4419,1.68544 z"
       id="path256" />
    <path
       style="fill:none;stroke:#00ffff;stroke-width:0.264999"
       d="m 120.18569,114.20352 c 0.9782,3.09316 3.27071,4.27539 6.00991,5.56515"
       id="path258" />
    <path
       style="fill:none;stroke:#00ffff;stroke-width:0.264999"
       d="m 101.13073,105.09255 c -0.73805,1.78423 -1.48506,3.66912 -2.333267,5.40616 -2.202923,4.51136 -4.881422,8.78545 -7.158865,13.26098 -0.304888,0.59915 -0.902497,2.34747 -0.388877,1.19253"
       id="path260" />
    <path
       style="fill:none;stroke:#00ffff;stroke-width:0.264999"
       d="m 92.504727,122.04244 c -1.622025,-0.0687 -1.760331,-0.2015 -3.482205,0.3657 -1.807826,0.59552 -4.855451,1.66732 -5.780119,3.68891 -1.904201,4.16314 -2.321756,9.71892 3.040303,11.41653 0.950661,0.30098 2.019522,0.0814 2.987278,-0.15901 6.918513,-1.71869 12.063786,-11.94225 4.949341,-16.94988 -1.488474,-1.04768 -8.000833,0.54171 -7.10584,2.05116"
       id="path264" />
    <path
       style="fill:none;stroke:#00ffff;stroke-width:0.264999"
       d="m 106.27451,130.9785 c -0.1532,1.15013 -0.39424,2.29194 -0.4596,3.45039 -0.0636,1.12667 0.28024,2.58559 0.58332,3.6571 0.12302,0.43491 0.47708,1.68662 0.54797,1.24024 0.11005,-0.69297 0.0187,-4.90867 0,-5.07225 -0.1265,-1.10735 -1.05595,-2.22927 -0.67169,-3.27548 0.38975,-1.06119 1.58926,-1.72768 2.65143,-2.11477 0.36656,-0.13358 0.61525,0.51257 0.79543,0.85863 1.7398,3.3415 -1.19057,6.10797 -1.00755,8.82474 0.0502,0.74511 4.58939,-0.61505 5.83314,-0.3975"
       id="path266" />
    <path
       style="fill:none;stroke:#00ffff;stroke-width:0.264999"
       d="m 83.419168,137.49768 c -0.361918,1.00003 -0.520557,2.05941 -0.848473,3.06878 -1.191083,3.66633 -3.191201,6.90031 -5.302851,10.09679 -0.85852,1.29958 -2.119349,2.93606 -2.03278,3.05289 0.07655,0.10332 0.456416,-0.52768 0.494945,-0.58833"
       id="path272" />
    <path
       style="fill:none;stroke:#00ffff;stroke-width:0.264999"
       d="m 69.066068,163.47901 c 0.01177,0.57772 0.06412,1.15603 0.03535,1.73316 -0.03729,0.74802 -0.275521,1.85576 -0.265136,2.68717 0.0024,0.18173 -0.07036,0.65523 0.0707,0.54063 0.825518,-0.67072 2.052431,-3.80771 3.570597,-1.86037 0.428535,0.54968 0.820065,1.17647 0.954518,1.86037 0.198356,1.00893 0.198911,2.07253 0.01767,3.08467 -0.342603,1.91334 -1.800725,2.89293 -2.633749,1.00173"
       id="path274" />
    <path
       style="fill:none;stroke:#00ffff;stroke-width:0.264999"
       d="m 76.295651,166.97712 c 0.09828,-0.69581 7.465679,-1.37011 4.560464,-0.42932"
       id="path276" />
    <path
       style="fill:none;stroke:#00ffff;stroke-width:0.264999"
       d="m 81.934356,161.17345 c 0.459581,0.0159 1.005491,-0.2209 1.378744,0.0477 1.482722,1.06702 1.224481,6.97215 1.608534,8.87244"
       id="path278" />
    <path
       style="fill:none;stroke:#00ffff;stroke-width:0.264999"
       d="m 98.302539,133.92007 c 3.211801,6.31938 7.670151,12.0008 10.694091,18.41273"
       id="path280" />
    <path
       style="fill:none;stroke:#00ffff;stroke-width:0.264999"
       d="m 109.73904,161.14165 c 0.32995,0.55122 0.7496,1.05785 0.98987,1.65366 0.20215,0.50129 0.20764,1.06093 0.31818,1.59003 0.67233,3.21825 1.67777,-2.01825 3.65896,-0.76321 0.59595,0.37752 2.24394,4.48337 1.13129,3.81609"
       id="path282" />
    <path
       style="fill:none;stroke:#00ffff;stroke-width:0.264999"
       d="m 117.21609,162.22288 c 0.21645,-0.0343 8.31063,-1.754 4.89629,-0.82682"
       id="path284" />
    <path
       style="fill:none;stroke:#00ffff;stroke-width:0.264999"
       d="m 124.49867,156.91213 c 0.56534,-0.29828 1.87793,-1.74932 2.31559,-0.44521 0.71399,2.12747 -1.11746,4.72694 -1.80297,6.63049 -0.11389,0.31625 -0.48542,0.79015 -0.21211,0.98582 0.32655,0.2338 6.08104,-3.03129 7.2826,-2.13066"
       id="path286" />
    <path
       style="fill:none;stroke:#00ffff;stroke-width:0.264999"
       d="m 114.31718,98.048647 c 4.14063,4.000203 9.11169,6.985143 13.64604,10.526103 1.687,1.31742 2.13247,1.73838 3.80038,2.73489 0.42532,0.2541 1.28267,0.14429 1.3434,0.636 0.0145,0.11768 -0.20716,0.1174 -0.31818,0.15901"
       id="path288" />
    <path
       style="fill:none;stroke:#00ffff;stroke-width:0.264999"
       d="m 132.31157,121.45411 c 0.49415,-3.84926 -0.0866,-0.21983 0,0 0.46375,1.17671 1.52371,2.02198 2.20952,3.08469 0.12665,0.19625 0.0857,0.47143 0.21212,0.66783 0.1734,0.26943 0.61766,-1.49035 2.28024,-2.22607 1.69459,-0.74988 2.61448,3.3104 2.03276,3.27549"
       id="path290" />
    <path
       style="fill:none;stroke:#00ffff;stroke-width:0.264999"
       d="m 140.1598,120.8976 c 1.80276,-0.55288 7.32994,-1.4331 5.62105,-0.63602"
       id="path292" />
    <path
       style="fill:none;stroke:#00ffff;stroke-width:0.264999"
       d="m 148.06107,115.15754 c 0.89771,2.17109 1.1829,4.47418 1.50249,6.77359"
       id="path294" />
    <path
       style="fill:none;stroke:#00ffff;stroke-width:0.264999"
       d="m 81.421757,80.923862 c -0.810257,4.13643 -3.023795,7.634102 -5.585703,10.907712 -0.724503,0.925775 -2.287045,3.491439 -3.658968,3.688908"
       id="path296" />
    <path
       style="fill:none;stroke:#00ffff;stroke-width:0.264999"
       d="m 52.450441,97.539841 c 0.176758,0.837422 0.390234,1.667928 0.530273,2.512269 0.07834,0.47234 0.09666,0.95302 0.12374,1.43105 0.09691,1.71066 -0.628526,2.43311 0.618665,1.46283 1.251405,-0.97357 2.339649,-1.55164 3.234743,0.17491 0.644691,1.24355 1.510125,5.75309 0.848471,4.08641"
       id="path298" />
    <path
       style="fill:none;stroke:#00ffff;stroke-width:0.264999"
       d="m 60.298668,101.91247 c 1.754521,0.0853 3.588657,-1.4076 5.33822,-1.16074 0.586126,0.0827 -0.287965,0.6614 -0.388879,0.69962"
       id="path300" />
    <path
       style="fill:none;stroke:#00ffff;stroke-width:0.264999"
       d="m 66.715129,98.509769 c 0.441907,0.429313 1.051216,0.736359 1.325721,1.287936 0.217799,0.437635 0.247462,5.913505 0.247462,6.980295"
       id="path302" />
    <path
       style="fill:none;stroke:#00ffff;stroke-width:0.264999"
       d="m 175.09107,80.318408 c 0.56382,2.028735 0.43195,1.23123 0.63634,3.768405 0.0559,0.693301 0.0758,1.389073 0.12374,2.082964 0.21094,3.053238 0.33226,-4.938147 2.95191,-2.814386 1.78501,1.447109 1.47756,7.845604 0.9015,6.217076"
       id="path304" />
    <path
       style="fill:none;stroke:#00ffff;stroke-width:0.264999"
       d="m 184.22967,85.247548 c 0.69526,-0.0265 1.39272,-0.01831 2.08578,-0.0795 1.00853,-0.08905 1.51207,-0.409935 0,-0.222604 -4.65099,0.576212 -0.52657,-0.212651 1.06059,-0.47701"
       id="path306" />
    <path
       style="fill:none;stroke:#00ffff;stroke-width:0.264999"
       d="m 189.10829,81.018027 c 0.36614,1.326179 2.58865,5.175774 1.82067,6.360181"
       id="path308" />
    <path
       style="fill:none;stroke:#00ffff;stroke-width:0.264999"
       d="m 195.68386,77.265518 c 2.42725,-2.957316 5.18749,-5.590555 7.91893,-8.252332 0.42275,-0.411973 0.75138,-1.005769 1.20198,-1.208437"
       id="path310" />
    <path
       style="fill:none;stroke:#00ffff;stroke-width:0.264999"
       d="m 209.9132,58.805095 c 0.12963,0.545915 0.31758,1.081201 0.38888,1.637747 0.10484,0.818327 0.24743,4.763325 0.26514,5.501553 0.0201,0.837371 0.20274,3.309882 -0.053,2.512277 -0.09,-0.280734 -0.1414,-0.572421 -0.21211,-0.858632"
       id="path312" />
    <path
       style="fill:none;stroke:#00ffff;stroke-width:0.264999"
       d="m 209.0294,61.047058 c -2.13847,-7.635026 8.34112,-3.157442 7.03513,0.445211 -0.91521,2.524639 -6.37298,3.233024 -5.67406,0.954027"
       id="path314" />
    <path
       style="fill:none;stroke:#00ffff;stroke-width:0.264999"
       d="m 216.20594,76.502296 c 0.46547,0.805625 0.94439,1.603626 1.39642,2.416868 1.48118,2.664767 2.91741,5.417098 4.15391,8.204631 0.13616,0.306957 1.67825,3.135697 1.20199,2.814387"
       id="path316" />
    <path
       style="fill:none;stroke:#00ffff;stroke-width:0.264999"
       d="m 227.23589,95.089926 c -0.18265,1.060032 -0.38292,2.117177 -0.54795,3.180093 -0.12962,0.834872 -0.2308,1.673953 -0.33585,2.512271 -0.16784,1.33925 -0.25948,2.13029 -0.31818,3.4504 -0.0158,0.35481 0.0948,1.41203 0.0177,1.06533 -0.60845,-2.7368 0.64141,-13.322968 3.55292,-12.927066 3.04702,0.414329 -0.28497,5.14377 -0.70704,5.740056 -0.54036,0.763413 -1.60983,1.316434 -1.60853,1.319744 0.0733,0.186748 0.40065,-0.0422 0.60099,-0.03181 0.41406,0.02148 0.83163,0.04168 1.23733,0.127212 0.72908,0.153712 1.45853,0.327511 2.1565,0.588314 0.75464,0.28197 3.48544,2.04918 1.94439,2.97339"
       id="path320" />
    <path
       style="fill:none;stroke:#00ffff;stroke-width:0.264999"
       d="m 240.05115,108.60531 c 0.45958,0.15371 0.97537,0.19255 1.37875,0.46112 0.66452,0.44244 6.75231,7.7043 6.75231,8.96785 0,0.29109 -0.58213,-0.0474 -0.86613,-0.1113"
       id="path322" />
    <path
       style="fill:none;stroke:#00ffff;stroke-width:0.264999"
       d="m 252.725,122.2797 c -2.04227,-0.99148 -2.98695,-0.19155 -3.83573,1.71726 -2.46053,5.5334 1.41171,9.06497 7.3533,5.88316 1.74496,-0.93445 4.31818,-4.53378 2.38629,-6.50328 -1.55637,-1.58668 -3.96951,-1.18201 -5.90386,-1.09714 z"
       id="path324" />
    <path
       style="fill:none;stroke:#00ffff;stroke-width:0.264999"
       d="m 255.50017,129.35541 c 1.20878,1.75297 2.71718,3.2358 4.20693,4.73833 0.659,0.66465 1.18427,1.26014 1.16663,1.27204 -0.36945,0.2493 -0.65924,-0.60534 -0.93684,-0.95403 -1.50289,-1.8878 -2.53002,-3.57508 -4.43672,-5.05634 z"
       id="path326" />
    <path
       style="fill:none;stroke:#00ffff;stroke-width:0.264999"
       d="m 275.05006,140.10411 c 0.34174,0.67842 0.61296,1.39721 1.02521,2.03525 1.65515,2.56174 4.1919,4.53822 6.57556,6.37609 0.81168,0.62583 1.64631,1.04175 2.54537,1.49464 0.28749,0.14483 0.57102,0.65733 -0.0884,0.0954"
       id="path328" />
    <path
       style="fill:none;stroke:#00ffff;stroke-width:0.264999"
       d="m 289.33243,154.03291 c 0.0295,0.96993 0.0775,1.93947 0.0884,2.90978 0.007,0.6043 -0.0354,1.20832 -0.0354,1.81265 0,5.18498 1.36945,-3.61682 3.78269,0.57242 0.30017,0.52107 0.84844,3.58579 0.84844,2.78258"
       id="path330" />
    <path
       style="fill:none;stroke:#00ffff;stroke-width:0.264999"
       d="m 296.1201,157.97622 c 0.19458,-0.15714 4.79962,0.58613 4.43675,-0.55652"
       id="path332" />
    <path
       style="fill:none;stroke:#00ffff;stroke-width:0.264999"
       d="m 302.48354,153.25378 c 1.94411,2.47181 1.2391,4.90654 1.32572,7.71173"
       id="path334" />
    <path
       style="fill:none;stroke:#00ffff;stroke-width:0.264999"
       d="m 247.86403,139.02288 c -0.3653,0.49821 -0.72045,1.00404 -1.09591,1.49464 -2.62997,3.43641 -5.3898,6.66354 -8.30783,9.85828 -0.0435,0.0477 -2.36554,2.49364 -0.95452,1.22434"
       id="path336" />
    <path
       style="fill:none;stroke:#00ffff;stroke-width:0.264999"
       d="m 226.84703,155.27314 c 0.0216,2.68609 0.0912,1.54683 -0.15909,3.95921 -0.0627,0.60444 -0.13565,1.20782 -0.19444,1.81265 -0.40672,4.18434 1.32103,-2.13541 3.81806,-0.3657 1.35551,0.96068 1.37088,5.10397 0.47725,3.99101"
       id="path338" />
    <path
       style="fill:none;stroke:#00ffff;stroke-width:0.264999"
       d="m 233.72306,161.045 c -0.2524,-0.01 6.22103,-0.96415 4.80793,-0.2862"
       id="path340" />
    <path
       style="fill:none;stroke:#00ffff;stroke-width:0.264999"
       d="m 241.30616,156.91089 c 4.95707,-4.55378 -1.28415,8.05079 -1.64389,8.74524 -0.25532,0.4929 -0.95402,1.27802 -0.49492,1.59005 1.46168,0.99344 5.18848,-2.55607 6.59322,-0.0954"
       id="path342" />
    <path
       style="fill:none;stroke:#00ffff;stroke-width:0.264999"
       d="m 220.62499,108.58941 c -1.471,2.47172 -3.39107,4.64181 -4.77258,7.1711 -0.34387,0.62956 -0.49188,1.41242 -1.02522,1.89216"
       id="path344" />
    <path
       style="fill:none;stroke:#00ffff;stroke-width:0.264999"
       d="m 201.09278,123.75844 c 0.12765,2.36571 0.0806,1.03453 0.10605,3.68891 0.005,0.54592 0.003,1.09198 0.0177,1.63774 0.10803,4.12918 1.83988,-2.30976 4.33068,-0.1749 0.82651,0.70841 2.19532,4.52989 0.24746,4.22952"
       id="path346" />
    <path
       style="fill:none;stroke:#00ffff;stroke-width:0.264999"
       d="m 211.50406,128.95789 c 2.46373,0.10229 1.6824,0.25755 3.51757,-0.15901 0.24606,-0.0558 0.95815,-0.24566 0.70704,-0.2703 -1.40869,-0.13824 -5.30867,1.33944 -4.22461,0.42931 1.23451,-1.03644 6.20648,-1.00172 4.61349,-1.00172"
       id="path348" />
    <path
       style="fill:none;stroke:#00ffff;stroke-width:0.264999"
       d="m 218.80434,122.2638 c 0.75464,3.28495 0.12456,6.86344 1.21966,10.06499"
       id="path350" />
    <path
       style="fill:none;stroke:#00ffff;stroke-width:0.264999"
       d="m 348.55787,67.998535 c -0.17309,2.869345 -0.15822,1.597094 -0.0354,4.992746 0.0294,0.811162 0.0803,1.621483 0.10607,2.432767 0.0214,0.672883 0.0353,1.346133 0.0353,2.019358 0,1.478544 -0.20881,3.191687 -0.51261,0.508815 -0.67008,-5.918039 -0.39497,-2.026915 0.33584,-7.775324 0.0916,-0.720701 -0.48519,-1.710645 0.0707,-2.178362 0.047,-0.03953 3.83106,-0.825709 4.47207,-0.0795 2.73502,3.183879 -4.32477,7.498998 -4.04784,8.602138 0.0434,0.172985 1.09591,-0.101015 2.08579,-0.07949 1.3869,0.03015 2.78017,0.06145 4.15391,0.254405 0.98957,0.138993 2.27415,1.184677 1.06058,2.003459"
       id="path352" />
    <path
       style="fill:none;stroke:#00ffff;stroke-width:0.264999"
       d="m 343.67922,85.854748 c -1.15962,2.41767 -2.54185,4.814636 -4.10088,7.012093 -1.0187,1.435881 -1.38457,1.755881 -2.51,3.100589 -0.70109,0.837676 -1.67698,1.735018 -2.28026,2.639478 -0.26604,0.398864 0.35798,0.02482 0.42424,-0.06361 0.62256,-0.830985 1.07016,-1.782675 1.67925,-2.623569 1.63936,-2.263224 3.5891,-4.309819 5.24984,-6.566894 0.4449,-0.604682 1.1457,-1.0672 1.37874,-1.780842 0.17844,-0.54647 0.10605,-1.144834 0.15907,-1.717249 z"
       id="path354" />
    <path
       style="fill:none;stroke:#00ffff;stroke-width:0.264999"
       d="m 327.62922,100.57857 c -0.0913,2.33067 -1.26394,10.01693 -0.21211,11.90943 0.0371,0.0667 0.0522,-0.14633 0.053,-0.2226 0.005,-0.46124 -0.0236,-0.92223 -0.0353,-1.38334"
       id="path358" />
    <path
       style="fill:none;stroke:#00ffff;stroke-width:0.264999"
       d="m 326.88683,103.69506 c -1.93061,-4.882441 5.05209,-4.788017 5.10842,-0.42932 0.0287,2.22152 -3.60156,6.43486 -4.2953,2.84618"
       id="path360" />
    <path
       style="fill:none;stroke:#00ffff;stroke-width:0.264999"
       d="m 322.36171,118.08496 c -0.19441,0.73672 -0.30662,1.50022 -0.5833,2.21017 -0.0725,0.18618 -4.81322,8.83329 -4.36602,6.74179"
       id="path362" />
    <path
       style="fill:none;stroke:#00ffff;stroke-width:0.264999"
       d="m 299.63009,131.44134 c 0.56375,2.05259 0.30792,0.72173 0.44191,3.1324 0.0319,0.57301 0.074,1.14551 0.12374,1.71724 0.0504,0.57853 0.10967,1.15633 0.17677,1.73315 0.61587,5.29365 0.60788,-2.98132 2.5277,-2.33737 0.99578,0.33401 1.41168,3.8228 1.50246,4.34083 0.0328,0.18693 0.0643,0.9314 0.053,1.25613 -0.003,0.048 -0.0135,0.191 -0.0177,0.14311 -0.0101,-0.11618 0,-0.2332 0,-0.34981"
       id="path364" />
    <path
       style="fill:none;stroke:#00ffff;stroke-width:0.264999"
       d="m 306.98342,137.88103 c 0.78218,1.69248 3.31171,-0.96426 4.20693,-0.15901 0.09,0.081 -0.16688,0.4348 -0.30049,0.27032 -0.0914,-0.11256 -0.11785,-0.26501 -0.17677,-0.39752"
       id="path366" />
    <path
       style="fill:none;stroke:#00ffff;stroke-width:0.264999"
       d="m 312.37465,133.90591 c 2.00006,2.35571 1.2401,6.47301 1.62623,8.90426"
       id="path368" />
    <path
       style="fill:none;stroke:#00ffff;stroke-width:0.264999"
       d="m 332.57857,118.37117 c 1.20211,2.94926 2.83448,5.70819 4.63116,8.33184 0.21754,0.31769 1.00272,1.07549 0.91917,0.69962"
       id="path370" />
    <path
       style="fill:none;stroke:#00ffff;stroke-width:0.264999"
       d="m 335.58353,133.3494 c 0.36531,0.60421 0.83769,1.1555 1.09593,1.81265 0.19809,0.50411 0.17555,1.0691 0.24746,1.60594 0.57507,4.29347 0.11782,-2.39446 3.21707,-0.55651 0.62714,0.37191 2.43607,2.06017 1.39642,2.79848"
       id="path372" />
    <path
       style="fill:none;stroke:#00ffff;stroke-width:0.264999"
       d="m 343.18432,135.36876 c 0.47955,-1.06804 2.45676,0.28162 3.21707,-0.33391 0.12366,-0.10014 -0.0842,-0.30696 -0.12375,-0.46111"
       id="path374" />
    <path
       style="fill:none;stroke:#00ffff;stroke-width:0.264999"
       d="m 347.16145,131.02793 c 1.2758,2.40638 1.93202,5.19046 0.90149,7.83893"
       id="path376" />
    <path
       style="fill:none;stroke:#00ffff;stroke-width:0.264999"
       d="m 362.84027,86.220455 c 4.09545,1.449242 7.75274,4.217564 11.17134,6.900799 0.36086,0.283236 3.14359,2.614184 1.36107,2.257864"
       id="path378" />
    <path
       style="fill:none;stroke:#00ffff;stroke-width:0.264999"
       d="m 378.20089,102.37531 c 2.70589,-6.495677 -6.83527,1.29412 -2.52772,4.29313 2.62675,1.8288 6.89244,-0.46673 7.98964,-3.05289 0.67599,-1.59328 -4.37205,-3.30588 -2.9696,-0.84272"
       id="path380" />
    <path
       style="fill:none;stroke:#00ffff;stroke-width:0.264999"
       d="m 382.47851,106.33452 c 0.0235,0.43992 -0.1674,0.9491 0.0707,1.31975 0.98988,1.54077 3.75359,2.10315 5.30285,2.83028 0.19262,0.0904 1.77398,1.42598 1.18431,1.16073"
       id="path382" />
    <path
       style="fill:none;stroke:#00ffff;stroke-width:0.264999"
       d="m 383.55677,117.19454 c -0.11697,3.122 -6.0797,10.5734 -5.74477,12.86346 0.0526,0.35991 0.43773,-0.58888 0.58333,-0.92222"
       id="path384" />
    <path
       style="fill:none;stroke:#00ffff;stroke-width:0.264999"
       d="m 374.50654,135.63907 c 0.19031,1.4324 -0.006,2.84783 -0.0353,4.27722 -0.005,0.26025 -0.19526,0.85729 0.053,0.77912 1.46196,-0.46027 1.35909,-1.74524 3.02266,0.3498 0.38518,0.48507 1.18676,3.48671 -0.17677,2.75079"
       id="path386" />
    <path
       style="fill:none;stroke:#00ffff;stroke-width:0.264999"
       d="m 379.50894,139.37567 c 1.38898,-0.10898 2.72825,-0.6832 4.10085,-0.81092"
       id="path388" />
    <path
       style="fill:none;stroke:#00ffff;stroke-width:0.264999"
       d="m 385.3244,135.46416 c 0.55975,-0.41871 1.00393,-1.07555 1.67923,-1.25614 0.24757,-0.0662 0.42836,0.80104 0.12374,1.92396 -0.54641,2.01428 -0.81362,2.3868 -1.99741,4.11822 -0.33031,0.48313 -0.70946,0.93102 -1.06059,1.39923 -0.1497,0.19963 -0.46035,0.35539 -0.4419,0.60423 0.0238,0.3225 6.72959,-1.26749 5.56802,-0.22262"
       id="path390" />
    <path
       style="fill:none;stroke:#00ffff;stroke-width:0.264999"
       d="m 392.57163,116.0497 c 0.67759,0.85863 1.34024,1.72927 2.03279,2.57587 1.71863,2.10095 3.6245,3.89783 5.76244,5.56516 0.19717,0.15376 2.78051,1.64638 2.45697,2.59178 -0.0314,0.0918 -0.053,-0.33538 -0.053,-0.39751"
       id="path392" />
    <path
       style="fill:none;stroke:#00ffff;stroke-width:0.264999"
       d="m 404.52074,131.77525 c 0.25339,0.98053 0.54501,1.95196 0.76012,2.94159 0.14473,0.66587 0.21672,1.34552 0.31814,2.01936 0.12038,0.79994 0.0381,1.65604 0.35353,2.40096 0.0251,0.0596 0.12594,-0.0557 0.15907,-0.1113 0.42902,-0.71986 1.50336,-3.55514 2.77519,-3.25959 1.48013,0.34395 2.599,4.18182 1.82065,4.18182"
       id="path394" />
    <path
       style="fill:none;stroke:#00ffff;stroke-width:0.264999"
       d="m 412.47504,134.89175 c 0.25292,-0.20632 5.17636,-0.98225 4.50744,-1.38334"
       id="path396" />
    <path
       style="fill:none;stroke:#00ffff;stroke-width:0.264999"
       d="m 417.84862,128.99267 c 0.0359,2.73392 2.4987,7.37789 2.03274,9.89009"
       id="path398" />
  </g>
</svg>
