<?xml version="1.0" encoding="UTF-8" standalone="no"?>
<!-- Created with Inkscape (http://www.inkscape.org/) -->

<svg
   width="210mm"
   height="297mm"
   viewBox="0 0 210 297"
   version="1.1"
   id="svg12"
   inkscape:version="1.2.1 (9c6d41e410, 2022-07-14, custom)"
   sodipodi:docname="avl_tree.svg"
   xmlns:inkscape="http://www.inkscape.org/namespaces/inkscape"
   xmlns:sodipodi="http://sodipodi.sourceforge.net/DTD/sodipodi-0.dtd"
   xmlns="http://www.w3.org/2000/svg"
   xmlns:svg="http://www.w3.org/2000/svg">
  <sodipodi:namedview
     id="namedview14"
     pagecolor="#505050"
     bordercolor="#eeeeee"
     borderopacity="1"
     inkscape:showpageshadow="0"
     inkscape:pageopacity="0"
     inkscape:pagecheckerboard="0"
     inkscape:deskcolor="#505050"
     inkscape:document-units="mm"
     showgrid="false"
     inkscape:zoom="0.80495774"
     inkscape:cx="349.08665"
     inkscape:cy="280.76008"
     inkscape:window-width="1366"
     inkscape:window-height="746"
     inkscape:window-x="0"
     inkscape:window-y="0"
     inkscape:window-maximized="1"
     inkscape:current-layer="layer1"
     inkscape:lockguides="false" />
  <defs
     id="defs9" />
  <g
     inkscape:label="Layer 1"
     inkscape:groupmode="layer"
     id="layer1">
    <path
       style="fill:none;stroke:#00ffff;stroke-width:0.264999"
       d="m 104.72847,13.098491 c -3.15285,-1.790911 -6.351295,0.787656 -8.396217,3.307295 -4.000084,4.928683 1.065432,16.120271 6.911407,13.658487 5.21147,-2.194594 13.60162,-9.804454 9.75726,-16.250263 -0.88161,-1.478198 -2.51055,-3.610793 -4.48974,-3.784304 -4.09711,-0.3591818 -5.31162,1.303835 -8.29015,1.303835"
       id="path304" />
    <path
       style="fill:none;stroke:#00ffff;stroke-width:0.264999"
       d="m 98.665518,29.714465 c -2.440212,1.587629 -3.423343,4.570576 -4.931666,6.980295 -1.772812,2.83227 -3.681675,5.571771 -5.78012,8.172839 -0.839409,1.040464 -1.700066,2.063697 -2.563053,3.08469 -0.312877,0.370163 -0.645366,0.723323 -0.972195,1.081228 -0.05589,0.06121 -0.132313,0.244864 -0.176752,0.1749 -0.977797,-1.539388 0.174333,-1.410211 -2.262558,-2.893883 -4.154522,-2.529425 -13.807448,1.800516 -14.936407,6.439691 -0.941813,3.870145 2.154947,12.196627 6.999785,12.370546 5.642499,0.202552 11.204419,-3.662786 13.840471,-8.570344 1.706385,-3.176788 0.865978,-5.973077 -2.492344,-7.377808 -1.075777,-0.449982 -4.513127,-0.162512 -4.419049,-1.939853"
       id="path306" />
    <path
       style="fill:none;stroke:#00ffff;stroke-width:0.264999"
       d="m 110.64998,25.055633 c 6.27213,6.815294 12.22869,13.955618 18.38328,20.893194 0.3455,0.389464 5.24766,5.628764 5.85081,5.628764 0.37466,0 -0.23039,-0.735793 -0.47725,-1.017632 -0.82811,-0.945478 -2.33553,-1.837354 -3.65896,-1.272037 -2.37556,1.014732 -5.06494,3.105022 -5.39127,5.899065 -0.60881,5.212739 5.72549,12.531629 11.20673,9.349472 3.91679,-2.273908 8.10199,-6.387226 8.74973,-11.098519 0.0846,-0.615333 0.22379,-1.334053 -0.10607,-1.860349 -3.70203,-5.906574 -8.89729,-4.690221 -14.38843,-2.385073"
       id="path308" />
    <path
       style="fill:none;stroke:#00ffff;stroke-width:0.264999"
       d="m 79.274714,64.377447 c 2.213202,3.45467 3.055988,7.556519 4.560464,11.337034 1.609035,4.043254 2.484718,5.688269 4.595813,9.699267 0.650451,1.235835 1.411721,2.455741 2.174176,3.625305 1.355643,2.079493 2.057643,0.981017 -0.760082,0.0954 -1.71718,-0.539711 -2.915441,-0.06099 -4.684194,0.731422 -0.955145,0.427913 -2.72987,2.083869 -3.323134,2.734884 -0.96596,1.05999 -1.973771,2.333466 -2.350929,3.768402 -1.435873,5.462939 2.560611,13.869759 8.7674,13.944699 4.883007,0.0589 13.051322,-5.72124 14.158652,-10.637402 0.32879,-1.459743 0.42166,-3.002362 0.21211,-4.483928 -0.55887,-3.95128 -5.337538,-6.684608 -8.643666,-7.473214 -1.953133,-0.465879 -3.927252,1.566608 -5.232164,2.655376"
       id="path310" />
    <path
       style="fill:none;stroke:#00ffff;stroke-width:0.264999"
       d="m 70.030056,64.091248 c -0.547965,0.111302 -1.13801,0.09571 -1.643893,0.333907 -1.480701,0.697192 -4.411993,6.747295 -5.391243,8.47494 -3.692591,6.514671 -7.077297,13.195196 -10.782493,19.700668 -1.299964,2.282436 -4.196167,7.828287 -6.416468,9.540267 -0.200383,0.15451 -0.27159,-0.42771 -0.38888,-0.65192 -0.653925,-1.25 -1.383654,-2.51314 -2.686782,-3.180089 -2.949568,-1.509609 -6.805666,-0.654486 -9.598179,0.779119 -6.179767,3.17253 -5.310603,5.40614 -1.520161,10.90771 2.779274,4.03392 6.723886,10.04787 12.108207,10.65331 1.375457,0.15466 2.841926,0.12476 4.136239,-0.36571 4.796938,-1.81775 11.666328,-9.07376 11.683978,-14.56482 0.01831,-5.69279 -5.939295,-8.253775 -10.870874,-7.616317 -0.657521,0.08499 -5.792687,1.4917 -5.868503,1.462844 -0.09714,-0.03697 0.08249,-0.190807 0.123732,-0.28621"
       id="path312" />
    <path
       style="fill:none;stroke:#00ffff;stroke-width:0.264999"
       d="m 37.806315,118.598 c -3.378203,0.94285 -5.914898,3.30291 -8.572961,5.50156 -2.916959,2.4128 -1.694722,1.68275 -4.772588,3.9433 -0.420791,0.30906 -7.011113,4.36243 -7.211888,4.18182 -0.159102,-0.14312 -0.87089,-1.66793 -1.626218,-2.22605 -3.090164,-2.28336 -6.2075619,-1.17172 -9.68656,-0.22261 -2.4082668,0.65701 -5.91741909,1.67329 -6.9997806,4.24542 -1.8503926,4.39727 1.16037272,11.20442 4.5958128,14.00829 1.6717107,1.36439 4.8086964,2.03641 6.8760498,1.62186 7.987906,-1.60175 13.780881,-6.97147 10.835518,-15.37575 -0.771454,-2.20126 -1.830722,-3.99996 -3.994822,-5.02453 -0.972883,-0.46061 -8.998938,-1.26577 -10.0754426,-0.38162 -0.69308,0.56924 -0.953911,1.49619 -1.2373354,2.30556 -0.6865008,1.96043 -1.8292201,4.36295 -1.8029771,6.50329 0.043922,3.58221 0.2996792,10.53265 4.9316668,11.49604 1.9354013,0.40254 4.3126653,-0.44604 5.9038563,-1.46285 2.222557,-1.42025 5.806612,-3.74043 6.964426,-6.47148 2.633879,-6.21279 -4.320615,-13.03498 -10.322909,-13.18148 -2.6611878,-0.065 -4.7727363,0.98505 -6.5932284,2.87799 -0.754716,0.78474 -2.2048689,2.59403 -2.686784,3.6889 -1.61422624,3.66739 1.9864267,12.76156 4.6488459,15.31213 1.4198163,1.36017 3.4528845,2.26728 5.4442705,2.21017 12.446538,-0.35697 12.431649,-16.76254 5.179129,-23.65988 -1.534261,-1.45913 -3.490321,-2.76953 -5.744766,-2.46457 -0.735293,0.0995 -1.319824,0.67842 -1.9797363,1.01763"
       id="path314" />
    <path
       style="fill:none;stroke:#00ffff;stroke-width:0.264999"
       d="m 99.036721,20.078792 c 1.175439,0.346946 2.258929,0.180331 3.429179,0.111303 0.3075,-0.01814 1.2255,-0.127823 0.91917,-0.0954 -0.63699,0.06741 -7.517732,2.05753 -4.348349,-0.0159 1.055759,-0.690684 2.721309,0.554785 3.782709,-0.127206"
       id="path320" />
    <path
       style="fill:none;stroke:#00ffff;stroke-width:0.264999"
       d="m 104.72847,15.960575 c 3.55592,-4.856206 3.28089,1.957934 2.52768,4.102313 -0.45288,1.289338 -0.80384,2.099836 -1.71458,2.893887 -0.33006,0.287772 -1.4569,0.960606 -1.13128,0.667816 0.72275,-0.649885 7.54496,-1.592281 6.0983,-0.190802"
       id="path322" />
    <path
       style="fill:none;stroke:#00ffff;stroke-width:0.264999"
       d="m 137.07592,52.738326 c -4.49956,-0.611711 -7.36208,8.743003 -1.52014,8.109223 1.63225,-0.177081 3.48028,-1.820932 4.4544,-2.989287 1.13276,-1.358632 1.34043,-5.04145 -0.42423,-6.010367 -1.46568,-0.804762 -0.37197,0.669729 -2.51003,0.890431 -2.16363,0.223343 -2.41848,-1.311838 -4.13622,0.0318 -2.49819,1.95412 -1.75539,7.488375 1.856,7.552719 2.74235,0.04886 5.75499,-3.01979 4.86095,-5.851369 -0.17974,-0.569277 -0.22912,-1.304928 -0.72471,-1.637755 -0.51428,-0.345374 -1.28602,0.147238 -1.85602,-0.09539 -1.30906,-0.557233 -1.78018,-2.396889 -2.77514,-1.128937"
       id="path326" />
    <path
       style="fill:none;stroke:#00ffff;stroke-width:0.264999"
       d="m 73.229448,54.376071 c 1.714849,0.664215 3.584077,0.574127 5.355894,0.0795 0.129866,-0.03625 -0.254193,-0.117596 -0.388879,-0.111302 -1.663467,0.07774 -7.446971,1.619083 -4.967015,0.0318 0.77706,-0.497356 1.846217,-0.09441 2.757493,-0.238506 0.736388,-0.116441 1.448398,-0.500944 2.191848,-0.44522"
       id="path328" />
    <path
       style="fill:none;stroke:#00ffff;stroke-width:0.264999"
       d="m 81.095362,50.432758 c 0.378479,2.923929 0.322697,1.535197 0.247462,4.11821 -0.06637,2.278663 -0.02109,1.246555 -0.123732,3.211902 -0.0272,0.520837 0.02574,2.052275 -0.141404,1.558237 -0.541869,-1.601571 0.299855,-5.146099 0.318169,-6.296578 0.01384,-0.869601 -1.137105,-2.829431 -0.300495,-2.591771 0.885463,0.251534 0.624356,1.766755 0.636339,2.687174 0.02939,2.257817 -0.92679,6.59262 -0.883801,4.913238 0.03652,-1.426744 0.147984,-2.850763 0.194429,-4.277219 0.03605,-1.107287 0.03535,-2.215462 0.05303,-3.323193 z"
       id="path330" />
    <path
       style="fill:none;stroke:#00ffff;stroke-width:0.264999"
       d="m 36.162421,108.1832 c 1.628233,1.18161 3.100594,1.0524 4.949341,0.79503 0.263919,-0.0367 1.06126,-0.0611 0.79543,-0.0795 -0.288576,-0.02 -7.15269,0.67762 -5.744771,-0.71552 0.551326,-0.54554 1.522598,0.34409 2.297907,0.36571 0.153011,0.004 3.230927,-0.79966 3.411516,0.1749"
       id="path332" />
    <path
       style="fill:none;stroke:#00ffff;stroke-width:0.264999"
       d="m 45.566171,104.6533 c 0.770741,2.76428 0.827243,5.72365 0.954518,8.58624 0.0035,0.0796 -0.01228,-0.15896 -0.01767,-0.2385 -0.04762,-0.69958 -0.114712,-1.39816 -0.141406,-2.09886 -0.173519,-4.55518 0.282247,-1.54034 -0.795428,-6.24888 z"
       id="path334" />
    <path
       style="fill:none;stroke:#00ffff;stroke-width:0.264999"
       d="m 90.622841,96.226065 c -2.032465,-0.441174 -3.21392,0.99736 -4.189261,2.671276 -1.011061,1.735219 -0.39229,5.414809 2.015085,5.755959 1.873826,0.26554 3.688786,-1.40152 4.931666,-2.32146 2.468629,-1.82721 3.391879,-4.86385 0.265137,-6.487389 -0.369398,-0.191809 -0.753671,-0.497347 -1.166622,-0.445211 -0.671947,0.08484 -1.198992,0.662371 -1.856005,0.826825 -0.717126,0.179501 -1.526871,-0.09288 -2.209525,0.190799 -0.480324,0.199597 -0.737592,0.739622 -1.0429,1.160733 -2.686071,3.704893 1.767282,7.565793 5.532657,4.340823 4.087077,-3.500488 0.195498,-7.699619 -4.012496,-7.775319"
       id="path336" />
    <path
       style="fill:none;stroke:#00ffff;stroke-width:0.264999"
       d="m 12.211154,136.88353 c -1.900133,-0.20244 -1.313167,-0.55749 -2.3332603,1.65363 -0.3451873,0.74822 -0.6453748,1.76078 -0.6186651,2.60767 0.037045,1.17461 0.4658288,1.56403 1.6262074,2.16248 4.150517,2.14059 9.67271,-6.06901 4.259974,-7.95024 -0.524513,-0.1823 -3.158944,-0.69806 -3.464544,-0.0954 -0.257237,0.50729 0.797019,1.1195 0.530288,1.62186 -0.426327,0.80295 -1.674817,0.85208 -2.2272036,1.57413 -0.4482807,0.58596 -1.543e-4,4.06429 0.9191656,4.40442 1.413658,0.52302 2.105372,-0.12778 2.987279,-1.11303 1.252504,-1.39927 2.045989,-3.53602 1.201982,-5.32664 -0.278977,-0.59187 -1.995371,-2.31556 -2.65143,-1.30384"
       id="path338" />
  </g>
</svg>
