<?xml version="1.0" encoding="UTF-8" standalone="no"?>
<!-- Created with Inkscape (http://www.inkscape.org/) -->

<svg
   width="16188.673mm"
   height="8667.4551mm"
   viewBox="0 0 16188.673 8667.4553"
   version="1.1"
   id="svg12"
   inkscape:version="1.2.1 (9c6d41e410, 2022-07-14, custom)"
   sodipodi:docname="b_tree_insertion_example.svg"
   xml:space="preserve"
   xmlns:inkscape="http://www.inkscape.org/namespaces/inkscape"
   xmlns:sodipodi="http://sodipodi.sourceforge.net/DTD/sodipodi-0.dtd"
   xmlns="http://www.w3.org/2000/svg"
   xmlns:svg="http://www.w3.org/2000/svg"><sodipodi:namedview
     id="namedview14"
     pagecolor="#505050"
     bordercolor="#eeeeee"
     borderopacity="1"
     inkscape:showpageshadow="0"
     inkscape:pageopacity="0"
     inkscape:pagecheckerboard="0"
     inkscape:deskcolor="#505050"
     inkscape:document-units="mm"
     showgrid="true"
     inkscape:zoom="0.02"
     inkscape:cx="41950"
     inkscape:cy="28350"
     inkscape:window-width="1366"
     inkscape:window-height="746"
     inkscape:window-x="0"
     inkscape:window-y="0"
     inkscape:window-maximized="1"
     inkscape:current-layer="layer1"
     inkscape:lockguides="true"><inkscape:grid
       type="xygrid"
       id="grid344"
       color="#969696"
       opacity="0.39215686"
       empcolor="#000000"
       empopacity="0.17254902"
       dotted="false"
       originx="4475.1445"
       originy="-28738.946" /></sodipodi:namedview><defs
     id="defs9" /><g
     inkscape:label="Layer 1"
     inkscape:groupmode="layer"
     id="layer1"
     transform="translate(4370.1442,-28887.444)"><path
       style="fill:none;stroke:#ffffff;stroke-width:10.7"
       d="m 5318.1755,31991.509 c 68.7358,-113.899 52.9028,-54.733 56.9143,-174.709"
       id="path366" /><path
       style="fill:none;stroke:#ffffff;stroke-width:10.7"
       d="m 4893.4517,30315.454 c 9.9414,1.065 55.6505,361.566 67.5859,264.944"
       id="path368" /><path
       style="fill:none;stroke:#ffffff;stroke-width:10.7"
       d="m 4990.2062,30383.29 c 9.9599,-33.918 17.5967,-68.606 29.8798,-101.754 2.8058,-7.571 73.2886,-187.824 123.7889,-123.511 85.805,109.273 -27.5987,326.356 -71.8544,428.772 -17.6027,40.736 -46.9517,98.941 -44.1087,101.754 1.4332,1.418 48.822,-34.079 94.6203,-56.316 15.7169,-7.632 214.0434,-51.747 157.226,-0.64"
       id="path370" /><path
       style="fill:none;stroke:#ffffff;stroke-width:10.7"
       d="m 5717.9993,30352.572 c 67.8483,-7.846 135.3948,-9.869 202.0463,5.12"
       id="path372" /><path
       style="fill:none;stroke:#ffffff;stroke-width:10.7"
       d="m 6252.2835,30302.655 c 55.6321,27.354 114.1635,0.151 169.3204,24.959"
       id="path374" /><path
       style="fill:none;stroke:#ffffff;stroke-width:10.7"
       d="m 6825.6962,30220.74 c 82.5508,26.124 152.5865,-7.232 231.926,-13.439"
       id="path376" /><path
       style="fill:none;stroke:#ffffff;stroke-width:10.7"
       d="m 5552.9476,31096.205 c -7.3516,20.266 -16.8128,39.886 -22.0546,60.796 -25.3982,101.321 -35.1393,206.285 -62.6056,307.821 -54.453,201.299 -61.5819,215.121 -121.6548,383.336 -12.5021,35.008 -25.7659,69.749 -37.7056,104.953 -12.3394,36.383 -14.5539,80.374 -12.0943,78.715 10.7374,-7.244 79.0315,-420.503 87.506,-449.891 47.3533,-164.216 116.6366,-322.77 168.6089,-485.73 z"
       id="path378" /><path
       style="fill:none;stroke:#ffffff;stroke-width:10.7"
       d="m 3681.1743,33549.81 c 18.4972,-2.133 40.4722,4.606 55.4916,-6.399 88.627,-64.941 83.2196,-198.188 -0.7113,-261.104 -20.3754,-15.273 -58.7418,5.674 -69.7202,-25.598 -28.1646,-80.228 3.6158,-176.119 -27.7458,-255.344 85.4863,-70.596 120.553,-116.841 212.0062,-71.675"
       id="path380" /><path
       style="fill:none;stroke:#ffffff;stroke-width:10.7"
       d="m 4126.5299,33131.277 c 235.8425,-228.767 211.1784,73.073 181.4145,227.826 -4.824,25.081 -12.3249,98.739 -32.7257,125.431 -9.0429,-150.118 -48.0667,-118.22 70.4318,-163.189 31.131,-11.814 69.1019,-25.061 103.157,-29.438"
       id="path382" /><path
       style="fill:none;stroke:#ffffff;stroke-width:10.7"
       d="m 4652.988,33075.6 c -16.5721,97.013 80.7976,72.265 140.8635,116.473 151.799,111.722 -44.2676,243.724 -81.1034,190.708 -82.3896,-118.58 145.7415,-358.204 80.392,-406.374 -26.12,-19.254 -151.5433,0.227 -152.9578,38.397 -0.7669,20.696 8.5371,40.531 12.8057,60.796 z"
       id="path384" /><path
       style="fill:none;stroke:#ffffff;stroke-width:10.7"
       d="m 5044.2746,32936.729 c -22.2907,53.655 -44.5694,128.903 41.9746,126.072 100.3381,-3.282 237.5466,-138.239 83.9488,-155.51 -32.8415,-3.693 13.8927,65.984 31.303,94.074 70.0836,113.077 148.2007,216.561 236.1948,316.14"
       id="path386" /><path
       style="fill:none;stroke:#ffffff;stroke-width:10.7"
       d="m 6630.0527,30954.134 c 5.2173,28.798 5.9243,58.792 15.6517,86.395 26.4578,75.079 84.6111,160.97 128.0572,225.265 129.5112,191.663 266.468,368.013 430.4155,531.807 54.9328,54.881 114.165,105.332 169.3206,159.99 45.1181,44.71 39.906,34.094 51.2228,64.636"
       id="path388" /><path
       style="fill:none;stroke:#ffffff;stroke-width:10.7"
       d="m 7712.8496,32766.5 c 0.802,33.548 -0.2844,86.334 9.9597,119.032 12.4445,39.721 89.8184,-51.217 103.1576,49.917 4.9298,37.376 7.5349,89.299 1.4235,127.992 -6.6159,41.888 -50.4222,208.572 -66.1636,49.277"
       id="path390" /><path
       style="fill:none;stroke:#ffffff;stroke-width:10.7"
       d="m 7979.6364,32794.658 c 3.8595,-25.898 38.9202,-179.849 114.54,-154.23 75.4991,25.578 -33.1634,228.242 -44.8204,264.943 -6.5053,20.482 88.3679,-7.988 98.8893,-6.399 59.7154,9.015 87.7581,60.47 76.1228,117.112 -13.6753,66.572 -109.3558,185.872 -186.3945,131.832 -13.3247,-9.347 -18.9717,-26.452 -28.4578,-39.678"
       id="path392" /><path
       style="fill:none;stroke:#ffffff;stroke-width:10.7"
       d="m 7789.6844,32696.744 c -2.6086,-19.198 11.3731,-60.204 -7.8259,-57.596 -19.1987,2.609 6.8879,38.244 7.8259,57.596 2.6238,54.128 -1.0761,108.501 2.8453,162.55 3.2671,45.03 59.9998,354.323 23.4773,387.176 -31.337,28.188 -47.3298,-72.068 -56.2028,-113.273 -6.3103,-29.304 -36.8054,-248.969 -28.4568,-293.102 9.5888,-50.69 38.8914,-95.567 58.337,-143.351 z"
       id="path394" /><path
       style="fill:none;stroke:#ffffff;stroke-width:10.7"
       d="m 8663.3205,32705.704 c 44.25,88.389 30.6875,185.288 43.3978,278.382 1.3163,9.642 12.5402,-15.068 17.0741,-23.678"
       id="path396" /><path
       style="fill:none;stroke:#ffffff;stroke-width:10.7"
       d="m 8898.093,33072.4 c 13.517,3.627 27.0685,14.631 40.5514,10.88 43.9795,-12.236 55.3487,-95.201 49.0886,-130.552 -15.4043,-86.987 -85.8475,0.431 -102.4461,33.278 -21.2378,42.027 28.2358,-90.654 32.0143,-137.591 6.7368,-83.686 1.9815,-219.924 -84.6606,-76.155 87.131,-150.546 183.2424,-139.883 329.3931,-162.55"
       id="path398" /><path
       style="fill:none;stroke:#ffffff;stroke-width:10.7"
       d="m 3688.2887,33748.198 c 101.0576,-7.341 196.9715,-37.799 293.1091,2.56"
       id="path400" /><path
       style="fill:none;stroke:#ffffff;stroke-width:10.7"
       d="m 4317.9047,33711.08 c 55.7697,-11.368 108.0421,-33.248 162.2058,-49.917"
       id="path402" /><path
       style="fill:none;stroke:#ffffff;stroke-width:10.7"
       d="m 4672.1967,33601.647 c 60.4898,-1.488 127.0565,-30.962 186.3948,-21.759"
       id="path404" /><path
       style="fill:none;stroke:#ffffff;stroke-width:10.7"
       d="m 5276.9126,33615.726 c 67.8506,-11.927 132.5527,-51.97 202.7574,-45.436"
       id="path406" /><path
       style="fill:none;stroke:#ffffff;stroke-width:10.7"
       d="m 7896.3988,33410.299 c 90.1274,10.742 184.6442,-21.963 272.4777,6.4"
       id="path408" /><path
       style="fill:none;stroke:#ffffff;stroke-width:10.7"
       d="m 8702.4492,33360.382 c 57.2847,-11.747 118.1053,-21.55 175.7233,-10.879"
       id="path410" /><path
       style="fill:none;stroke:#ffffff;stroke-width:10.7"
       d="m 9561.8574,33338.624 c 80.9234,-23.502 169.3371,1.526 249.7117,-20.479"
       id="path412" /><path
       style="fill:none;stroke:#ffffff;stroke-width:10.7"
       d="m 10128.867,33244.55 c 70.178,-9.755 175.097,-12.272 235.483,-58.236"
       id="path414" /><path
       style="fill:none;stroke:#ffffff;stroke-width:10.7"
       d="m 8633.5782,29065.693 c -18.9714,9.386 -66.3004,9.187 -56.9143,28.159 9.3861,18.971 37.9429,-18.773 56.9143,-28.159 z"
       id="path416" /><path
       style="fill:none;stroke:#ffffff;stroke-width:10.7"
       d="m 8685.5122,29269.841 c -17.7713,127.249 40.1413,246.658 19.2093,373.096"
       id="path418" /><path
       style="fill:none;stroke:#ffffff;stroke-width:10.7"
       d="m 8780.844,29363.914 c 6.8773,-28.158 13.7546,-56.316 20.6319,-84.474 2.6085,-3.2 8.8051,-13.61 7.8256,-9.599 -40.68,166.56 -52.4523,30.573 66.1627,204.146 7.9865,11.687 6.0775,55.537 8.5374,41.598 2.6646,-15.101 18.375,-164.067 55.4915,-141.431 67.6199,41.238 22.9577,166.733 130.9029,78.075 9.9076,-8.138 14.2288,-21.332 21.3432,-31.998"
       id="path420" /><path
       style="fill:none;stroke:#ffffff;stroke-width:10.7"
       d="m 9111.6588,29361.355 c 111.279,-45.207 -45.3742,-100.409 -39.1279,-72.316 5.9481,26.754 15.3633,58.662 39.1279,72.316 18.2105,10.462 280.9807,34.862 231.2149,144.63 -68.3001,150.65 -404.019,152.255 -250.4233,-86.394"
       id="path422" /><path
       style="fill:none;stroke:#ffffff;stroke-width:10.7"
       d="m 9838.7404,29145.688 c 66.6885,60.695 56.8627,155.869 103.1576,225.906"
       id="path424" /><path
       style="fill:none;stroke:#ffffff;stroke-width:10.7"
       d="m 10051.459,29215.444 c -79.7718,139.325 160.813,141.107 219.832,46.077 57.909,-93.244 -64.679,-160.745 -142.998,-120.312 -31.644,16.336 -51.223,49.49 -76.834,74.235 z"
       id="path426" /><path
       style="fill:none;stroke:#ffffff;stroke-width:10.7"
       d="m 10119.045,28988.898 c 4.857,32.336 -49.736,-107.606 -54.781,-95.354 -13.366,32.464 54.265,92.293 54.781,95.354 8.711,51.75 -15.601,104.33 -14.229,156.79 1.963,75.071 17.487,149.19 24.188,223.986 8.239,91.951 9.783,167.284 19.92,252.784"
       id="path428" /><path
       style="fill:none;stroke:#ffffff;stroke-width:10.7"
       d="m -4365.102,35469.76 c 5.2096,-14.688 29.7317,-200.555 84.6602,-177.909 71.8531,29.624 92.4811,221.963 144.4205,257.904 52.3327,36.213 -41.3801,-81.468 -12.0945,-97.274 47.7442,-25.769 110.3282,-33.231 143.7089,-81.275 2.5043,-3.604 9.6097,-18.878 -2.1343,-19.838 -47.0402,-3.847 -130.6394,122.364 -57.6257,135.031 46.1983,8.014 258.1155,-73.316 241.8863,-117.113 -3.32,-8.959 -24.492,-12.293 -20.6316,-26.878 5.0974,-19.259 92.9055,-120.558 69.0088,-88.315 -166.6346,224.84 308.5669,170.933 111.6946,-94.714 -14.5467,-19.628 31.2751,37.56 47.6658,55.677 66.1584,73.126 149.5978,143.4 175.0118,243.825 6.1147,24.163 1.6123,82.958 -43.3973,72.955 -255.488,-56.779 -159.5892,-361.994 41.9743,-108.153"
       id="path430" /><path
       style="fill:none;stroke:#ffffff;stroke-width:10.7"
       d="m -2992.753,35117.143 c 0.378,101.404 44.9007,190.642 64.0288,287.981 3.7455,19.061 17.2859,57.81 -2.1345,58.236 -8.6067,0.189 -14.7028,-8.959 -22.0542,-13.439 -3.7943,-45.65 -26.4678,-93.698 -11.3829,-136.951 18.8558,-54.065 216.7464,-33.481 254.6921,-13.439 26.5879,14.043 -4.3647,58.608 -19.92,48.637 -77.6931,-49.806 -19.2314,-208.519 49.7999,-187.508 115.1997,35.062 106.358,234.707 10.6716,286.061 -83.9124,45.036 -70.9684,-144.728 -71.1431,-152.95"
       id="path432" /><path
       style="fill:none;stroke:#ffffff;stroke-width:10.7"
       d="m -1996.0394,35080.025 c -24.6628,19.625 -50.2135,38.184 -73.9885,58.876 -59.636,51.903 -39.3637,43.963 17.7856,48.637 63.2759,5.174 281.7784,12.485 267.4978,126.072 -3.9395,31.335 -67.2,139.387 -118.0972,102.393 -46.1192,-33.52 -47.8747,-92.429 -56.9143,-140.791"
       id="path434" /><path
       style="fill:none;stroke:#ffffff;stroke-width:10.7"
       d="m -1725.6957,35360.327 c 10.9086,14.506 14.5759,43.517 32.7257,43.517 64.633,0 -94.8135,-415.719 -167.1862,-328.299 -23.3615,-210.464 235.7147,-115.31 261.0952,7.04 15.42,74.333 -83.4274,246.475 -86.0832,50.556"
       id="path436" /><path
       style="fill:none;stroke:#ffffff;stroke-width:10.7"
       d="m -1626.8068,34996.19 c 25.8486,0.853 54.7546,-9.665 77.5457,2.56 46.8336,25.12 123.3548,243.115 106.0033,298.861 12.7855,-111.372 20.4914,-222.759 17.7856,-334.699"
       id="path438" /><path
       style="fill:none;stroke:#ffffff;stroke-width:10.7"
       d="m -1366.4234,34850.919 c 23.9515,19.412 53.7247,33.3 71.8545,58.236 19.718,27.121 115.6972,248.425 73.2771,267.503"
       id="path440" /><path
       style="fill:none;stroke:#ffffff;stroke-width:10.7"
       d="m -1335.8318,35098.583 c 73.4034,-65.476 151.7601,-75.724 239.0407,-103.033"
       id="path442" /><path
       style="fill:none;stroke:#ffffff;stroke-width:10.7"
       d="m -267.26367,34952.672 c -22.5287,-9.172 -43.349,-29.58 -67.5859,-27.518 -83.0498,7.067 -41.7804,175.573 -28.457,205.427 26.0466,58.366 178.9382,199.599 183.5488,222.707 0.8277,4.147 -8.0629,2.559 -12.0943,3.839"
       id="path444" /><path
       style="fill:none;stroke:#ffffff;stroke-width:10.7"
       d="m -363.30657,35248.974 c -38.7176,-75.251 -28.2583,-117.453 55.4916,-147.191 71.8481,-25.512 183.3663,13.67 226.234798,75.516 23.7559,34.271 -23.264798,63.419 -55.491498,42.877 -60.4822,-38.553 -90.7098,-113.42 -12.8056,-150.391 28.6814,-13.611 80.722198,-7.227 103.868798,14.719 17.5585,16.649 34.24,85.63 14.9397,71.036 -29.6212,-22.398 -70.102198,-100.067 -29.1685,-134.392 43.5084,-36.484 178.405402,97.309 187.817402,138.231 4.06,17.653 -15.7387,-32.932 -19.9199,-50.556 -10.716202,-45.169 -22.271302,-109.96 17.7855,-143.991"
       id="path446" /><path
       style="fill:none;stroke:#ffffff;stroke-width:10.7"
       d="m 832.60793,34909.795 c 10.197,19.839 21.943,38.955 30.5917,59.516 11.3159,26.903 19.5905,54.986 29.1679,82.555 7.0228,20.216 13.7861,40.52 20.6319,60.797 32.0575,94.95 3.2346,-174.096 56.9143,-153.591 65.58907,25.055 74.56137,119.729 129.48017,150.391 1.3552,0.756 17.1791,-127.687 47.6657,-128.632 40.6601,-1.261 93.6144,55.139 125.212,76.795"
       id="path448" /><path
       style="fill:none;stroke:#ffffff;stroke-width:10.7"
       d="m 1340.5685,35127.382 c -77.5026,-25.143 -150.9596,-85.953 -91.7739,-172.149 63.9082,-93.076 221.5102,68.72 163.6284,135.031 -145.9241,167.175 -46.7744,-179.905 -14.228,-191.988 42.1547,-15.65 117.2041,116.054 125.2111,148.471 8.477,34.317 -26.87,-58.225 -2.1338,-94.075 20.4208,-29.595 127.3029,-44.633 133.0375,-67.835 8.0108,-32.411 -63.5085,34.723 -75.4121,65.916 -40.3111,105.631 296.4273,121.754 245.4439,51.197"
       id="path450" /><path
       style="fill:none;stroke:#ffffff;stroke-width:10.7"
       d="m 2222.0313,34780.523 c 35.8084,4.267 73.3721,0.933 107.4256,12.799 34.6046,12.059 57.2325,52.035 80.3915,78.076 10.1021,11.358 -7.9576,-29.607 -8.537,-44.797 -1.9834,-51.989 -9.674,-265.712 90.3512,-227.826"
       id="path452" /><path
       style="fill:none;stroke:#ffffff;stroke-width:10.7"
       d="m 2658.1376,34775.404 c -1.1856,34.131 3.343,68.946 -3.5568,102.393 -12.497,60.58 -70.2299,-18.287 -86.0832,-47.996 -24.7243,-46.334 -12.1513,-192.509 74.6998,-128.632 54.4579,40.052 62.3374,58.914 91.0635,105.593 -1.1098,-80.182 -34.0411,-161.503 43.397,-213.747 62.2171,-41.974 67.4029,195.649 35.572,185.589 -45.858,-14.494 51.9338,-307.799 75.4112,-295.662 49.1715,25.421 92.2529,258.604 51.2227,291.822 -15.1157,12.237 -7.3707,-39.166 -3.5568,-58.237 6.1466,-30.735 23.6868,-99.582 49.7999,-126.711 33.494,-34.798 75.9979,67.157 90.3522,113.272 2.8161,9.047 -7.0159,36.087 -9.2493,26.879 -15.4082,-63.527 21.6903,-156.175 94.6204,-168.31 50.8765,-8.465 199.6875,198.467 122.3665,215.027"
       id="path454" /><path
       style="fill:none;stroke:#ffffff;stroke-width:10.7"
       d="m 3505.2359,35997.186 c 80.7921,21.81 189.6473,-30.454 253.2694,39.038"
       id="path564" /><path
       style="fill:none;stroke:#ffffff;stroke-width:10.7"
       d="m 4155.4832,36040.704 c 63.4605,60.804 154.4209,-14.061 222.6778,16.638"
       id="path566" /><path
       style="fill:none;stroke:#ffffff;stroke-width:10.7"
       d="m 4748.1045,36075.261 c 68.1539,-11.35 142.4096,-15.48 207.7377,-39.677"
       id="path568" /><path
       style="fill:none;stroke:#ffffff;stroke-width:10.7"
       d="m 5179.2313,36011.905 c 84.0048,38.795 138.2206,6.927 215.5634,10.24"
       id="path570" /><path
       style="fill:none;stroke:#ffffff;stroke-width:10.7"
       d="m 6832.5957,36039.424 c 70.5488,-13.965 141.3936,-27.164 211.2944,-44.157"
       id="path572" /><path
       style="fill:none;stroke:#ffffff;stroke-width:10.7"
       d="m 7195.4249,35953.669 c 75.261,5.047 151.9719,-26.878 225.5232,-26.878"
       id="path574" /><path
       style="fill:none;stroke:#ffffff;stroke-width:10.7"
       d="m 7560.3888,35910.152 c 67.06,6.796 129.1786,-16.398 193.5088,-28.798"
       id="path576" /><path
       style="fill:none;stroke:#ffffff;stroke-width:10.7"
       d="m 7920.3724,35863.435 c 81.1255,5.885 168.257,-18.558 248.2892,0.64"
       id="path578" /><path
       style="fill:none;stroke:#00ffff;stroke-width:10.7"
       d="m 5964.6505,32981.056 c -1.423,-19.625 15.3564,-60.299 -4.269,-58.876 -19.6254,1.423 5.4276,39.234 4.269,58.876 -0.8143,13.804 -35.3289,301.601 31.303,250.225"
       id="path580" /><path
       style="fill:none;stroke:#00ffff;stroke-width:10.7"
       d="m 6096.2647,33018.174 c 4.2687,20.052 2.4074,42.488 12.806,60.157 192.5026,327.084 368.4341,-289.953 57.6257,-108.794 -24.6495,14.368 -46.9545,32.425 -70.4317,48.637 z"
       id="path582" /><path
       style="fill:none;stroke:#00ffff;stroke-width:10.7"
       d="m 6209.3828,32757.071 c -3.3202,-18.132 -6.6405,-36.265 -9.9607,-54.397 -2.6085,-3.413 -8.5994,-14.465 -7.8257,-10.239 40.5256,221.317 2.4713,-225.376 -2.1341,247.664 -1.7878,183.631 35.8977,406.735 74.6999,586.843"
       id="path584" /><path
       style="fill:none;stroke:#00ff00;stroke-width:10.7"
       d="m 3145.1169,37554.708 c 2.5556,-71.493 70.5402,-242.464 155.8032,-252.144 11.4506,-1.3 19.4457,12.373 29.1686,18.559"
       id="path712" /><path
       style="fill:none;stroke:#00ff00;stroke-width:10.7"
       d="m 3729.9125,33905.018 c -28.6931,108.998 -2.5788,149.086 110.9832,201.588 88.1741,40.764 193.2834,-26.002 261.8061,-69.116 18.8152,-11.838 35.5399,-51.319 54.0689,-39.038 35.9998,23.862 51.5597,79.986 88.9287,99.194 25.8641,13.295 58.8968,-134.81 88.2173,-125.432 27.0333,8.646 90.2415,164.646 137.3063,126.072 31.7506,-26.022 44.7721,-81.239 56.9143,-116.472"
       id="path714" /><path
       style="fill:none;stroke:#00ff00;stroke-width:10.7"
       d="m 3473.7976,35790.339 c 15.7494,48.495 31.7148,103.366 56.9143,147.191 44.4,77.216 77.1568,-71.691 72.5659,-99.834 -13.2361,-81.139 -40.5902,-119.807 -124.5003,-111.353 -7.3336,0.739 -12.5616,10.027 -19.92,9.6 -18.3048,-1.063 9.153,-41.241 14.2287,-127.992 2.7289,-46.64 0.9485,-93.434 1.4228,-140.151 58.3023,-20.16 117.2339,-32.538 177.8577,-34.558"
       id="path716" /><path
       style="fill:none;stroke:#00ff00;stroke-width:10.7"
       d="m 4093.4533,35464.6 c 35.1793,-2.302 88.004,-27.1 101.7348,23.679 22.0786,81.649 -20.0517,185.853 -32.0144,266.223 -5.581,37.495 -8.7614,72.408 -2.1344,110.072 7.7952,44.305 18.4464,45.21 10.6715,10.24"
       id="path718" /><path
       style="fill:none;stroke:#00ff00;stroke-width:10.7"
       d="m 4073.5333,35742.982 c 64.0036,-75.403 172.6121,-115.536 261.0947,-124.792"
       id="path720" /><path
       style="fill:none;stroke:#ff00ff;stroke-width:10.7"
       d="m 4860.3752,33855.741 c -34.0946,90.03 -45.1894,213.614 94.6203,159.35 24.0162,-9.321 98.2674,-89.384 109.5601,-92.154 10.3828,-2.547 12.001,93.57 55.4916,87.675 34.3855,-4.661 95.5568,-114.663 113.1173,-95.994 41.6321,44.259 65.0507,197.235 85.3719,201.587 29.7844,6.379 185.3313,-190.19 234.0603,-217.587"
       id="path787" /><path
       style="fill:none;stroke:#ff00ff;stroke-width:10.7"
       d="m 6843.673,35551.845 c -6.64,-17.92 -2.0008,-60.397 -19.9197,-53.757 -17.9189,6.64 33.7413,40.56 19.9197,53.757 -25.0161,23.884 -72.7929,3.695 -101.0234,23.678 -20.6233,14.598 -48.981,106.881 -29.8794,136.951 34.7215,54.659 106.7649,-77.409 112.4058,-92.794 8.0687,-22.004 0.1392,-82.406 18.497,-67.835 25.6538,20.361 6.2516,65.979 17.7856,96.633 38.4461,102.179 51.3522,80.948 79.6803,149.751 30.8769,74.994 0.8242,6.169 10.672,41.597 0.9795,3.524 1.4226,-7.222 1.4226,-10.879"
       id="path795" /><path
       style="fill:none;stroke:#00ffff;stroke-width:10.7"
       d="m 7241.3627,35448.811 c -18.5701,7.904 -31.4029,351.219 2.1341,234.865"
       id="path799" /><path
       style="fill:none;stroke:#00ffff;stroke-width:10.7"
       d="m 7317.4854,35519.206 c -103.7489,129.602 150.9691,81.801 160.7831,12.16 4.2836,-30.397 -45.3057,-58.471 -70.4311,-52.477 -32.0796,7.653 -60.2347,26.878 -90.352,40.317 z"
       id="path801" /><path
       style="fill:none;stroke:#00ffff;stroke-width:10.7"
       d="m 7366.5738,35366.256 c -25.5934,84.442 -85.0146,337.871 -16.3629,410.854"
       id="path803" /><path
       style="fill:none;stroke:#ffffff;stroke-width:10.7"
       d="m 1459.9901,37136.725 c 49.223,-83.475 77.4466,-194.401 156.5146,-257.904"
       id="path809" /><path
       style="fill:none;stroke:#ffffff;stroke-width:10.7"
       d="m 4977.3012,35444.031 c 43.8597,-100.014 272.9082,-365.769 257.538,-467.17"
       id="path811" /><path
       style="fill:none;stroke:#ffffff;stroke-width:10.7"
       d="m 6462.7677,35282.122 c -140.1487,-24.011 -211.755,-138.869 -315.8751,-223.347 -57.4567,-46.617 -119.2432,-87.689 -177.146,-133.751 -30.7765,-24.483 -27.822,-21.325 -36.2829,-44.157"
       id="path813" /><path
       style="fill:none;stroke:#ffffff;stroke-width:10.7"
       d="m 5392.0651,34338.821 c -91.6617,91.885 -110.138,91.113 3.5572,158.71 44.6594,26.552 133.1012,77.034 172.1661,117.113 145.1468,148.915 -17.1025,298.297 -106.0029,228.465 -146.3877,-114.989 84.3323,-303.628 119.5203,-408.294 22.6093,-67.251 27.8038,-100.56 -32.7261,-135.032 -16.3378,-9.304 -36.5373,-17.989 -54.7798,-13.439 -37.0231,9.234 -67.8232,34.985 -101.7348,52.477 z"
       id="path815" /><path
       style="fill:none;stroke:#ffffff;stroke-width:10.7"
       d="m 5983.2637,34237.707 c 57.3584,276.522 33.677,134.978 54.0688,284.782 1.7918,13.163 3.7322,49.726 10.6712,38.398 7.4719,-12.198 8.5374,-27.305 12.8061,-40.958"
       id="path817" /><path
       style="fill:none;stroke:#ffffff;stroke-width:10.7"
       d="m 6096.3814,34306.183 c 5.217,-30.291 7.0791,-61.356 15.6511,-90.874 4.3983,-15.146 89.0031,-187.247 130.9033,-115.833 65.5132,111.66 -104.4433,312.999 -97.4659,366.697 3.9724,30.571 261.1911,-105.796 237.6175,-56.317"
       id="path819" /><path
       style="fill:none;stroke:#ffffff;stroke-width:10.7"
       d="m 6679.0424,34503.291 c 48.1849,-2.249 312.3081,-15.853 332.9495,-67.836"
       id="path821" /><path
       style="fill:none;stroke:#ffffff;stroke-width:10.7"
       d="m 7311.5037,34410.496 c 105.4963,3.499 200.0848,-53.505 300.224,-78.075"
       id="path823" /><path
       style="fill:none;stroke:#ffffff;stroke-width:10.7"
       d="m 6617.1479,34758.634 c 62.1604,25.691 137.1034,58.933 201.3352,72.956 359.9286,78.576 729.5486,124.298 1092.7564,185.588 205.6127,34.696 410.4521,70.059 616.8107,99.834 82.5458,11.91 168.6055,34.498 251.8457,39.037"
       id="path825" /><path
       style="fill:none;stroke:#ffffff;stroke-width:10.7"
       d="m 9247.3062,35198.927 c 2.486,24.598 23.6924,381.129 49.7999,378.856 6.6405,-0.578 8.5368,-10.24 12.8053,-15.359"
       id="path827" /><path
       style="fill:none;stroke:#ffffff;stroke-width:10.7"
       d="m 9369.672,35302.6 c -27.2856,-72.065 82.1148,-183.62 150.1119,-131.192 33.6624,25.955 34.8552,73.301 28.4567,110.074 -4.8818,28.055 -17.5945,54.168 -26.3226,81.274 -1.2319,3.826 -7.5522,11.951 -3.5567,11.519 8.3584,-0.902 14.2282,-8.959 21.3423,-13.439 29.8799,-6.186 59.1291,-18.968 89.64,-18.558 61.757,0.829 115.2295,65.953 105.2923,125.432 -14.4092,86.245 -225.0522,282.576 -158.6492,36.478"
       id="path829" /><path
       style="fill:none;stroke:#ffffff;stroke-width:10.7"
       d="m 10279.591,35208.526 c 22.413,51.62 -65.626,544.858 24.9,253.424"
       id="path831" /><path
       style="fill:none;stroke:#ffffff;stroke-width:10.7"
       d="m 10337.928,35355.717 c 17.786,-44.797 33.279,-90.575 53.358,-134.392 34.121,-74.459 52.276,1.839 52.645,42.238 0.279,30.498 -5.275,60.856 -10.671,90.874 -5.087,28.297 -33.542,56.539 -22.766,83.194 1.124,2.781 74.917,-69.66 83.238,-74.875 23.098,-14.477 71.777,-0.383 78.969,28.158 11.224,44.544 -21.411,267.845 -111.695,189.428"
       id="path833" /><path
       style="fill:none;stroke:#ffffff;stroke-width:10.7"
       d="m 10466.697,35156.049 c -17.957,-43.206 345.71,-122.969 298.801,-71.035"
       id="path835" /><path
       style="fill:none;stroke:#ffffff;stroke-width:10.7"
       d="m 9462.1582,35817.128 c 139.7323,39.363 294.3675,6.419 432.5496,49.276"
       id="path837" /><path
       style="fill:none;stroke:#ffffff;stroke-width:10.7"
       d="m 10330.103,35804.969 c 98.993,12.764 320.494,-73.119 400.535,-37.118"
       id="path839" /><path
       style="fill:none;stroke:#ffffff;stroke-width:10.7"
       d="m 11141.134,35744.172 c 122.117,-1.004 269.743,-56.722 390.575,-22.398"
       id="path841" /><path
       style="fill:none;stroke:#ffffff;stroke-width:10.7"
       d="m 11598.583,35599.541 c 64.604,-29.338 148.346,-49.806 218.409,-28.798"
       id="path843" /></g></svg>
