<?xml version="1.0" encoding="UTF-8" standalone="no"?>
<!-- Created with Inkscape (http://www.inkscape.org/) -->

<svg
   width="210mm"
   height="297mm"
   viewBox="0 0 210 297"
   version="1.1"
   id="svg12"
   inkscape:version="1.2.1 (9c6d41e410, 2022-07-14, custom)"
   sodipodi:docname="balanced_tree.svg"
   xmlns:inkscape="http://www.inkscape.org/namespaces/inkscape"
   xmlns:sodipodi="http://sodipodi.sourceforge.net/DTD/sodipodi-0.dtd"
   xmlns="http://www.w3.org/2000/svg"
   xmlns:svg="http://www.w3.org/2000/svg">
  <sodipodi:namedview
     id="namedview14"
     pagecolor="#505050"
     bordercolor="#eeeeee"
     borderopacity="1"
     inkscape:showpageshadow="0"
     inkscape:pageopacity="0"
     inkscape:pagecheckerboard="0"
     inkscape:deskcolor="#505050"
     inkscape:document-units="mm"
     showgrid="false"
     inkscape:zoom="0.80495774"
     inkscape:cx="552.2029"
     inkscape:cy="463.37836"
     inkscape:window-width="1366"
     inkscape:window-height="746"
     inkscape:window-x="0"
     inkscape:window-y="0"
     inkscape:window-maximized="1"
     inkscape:current-layer="layer1"
     inkscape:lockguides="false" />
  <defs
     id="defs9" />
  <g
     inkscape:label="Layer 1"
     inkscape:groupmode="layer"
     id="layer1">
    <g
       id="g266"
       transform="matrix(2.2516901,0,0,2.2516901,-115.83056,-14.323896)">
      <path
         style="fill:none;stroke:#00ffff;stroke-width:0.264999"
         d="m 93.064189,25.251657 c 1.461635,-1.344515 -4.524875,13.510838 -0.176763,13.785687 3.6601,0.23136 11.099634,-8.848008 8.714374,-11.861734 -0.72296,-0.913439 -7.503318,-2.036803 -8.537611,-1.923953 -1.224892,0.133646 -2.298132,0.899393 -3.482213,1.240233 -0.444577,0.127974 -0.917467,0.123693 -1.378747,0.159007 -0.184861,0.01415 0.365313,-0.0636 0.547968,-0.0954"
         id="path248" />
      <path
         style="fill:none;stroke:#00ffff;stroke-width:0.264999"
         d="m 92.480872,38.131025 c -1.176014,1.724125 -1.736225,3.752942 -2.616075,5.628761 -0.874192,1.863749 -1.50598,3.023188 -2.545379,4.770131 -0.769313,1.293003 -1.281436,1.843754 -0.989867,1.621845 1.58374,-1.205383 0.03258,-3.007431 -1.661557,-2.750772 -3.812178,0.57754 -5.927069,4.286435 -6.699292,7.743515 -0.71637,3.207044 0.53146,9.556261 5.055399,8.379545 4.46637,-1.161741 8.59624,-8.239114 6.239705,-12.545462 -1.522881,-2.782919 -6.105747,-1.934446 -7.84824,-0.06359"
         id="path250" />
      <path
         style="fill:none;stroke:#00ffff;stroke-width:0.264999"
         d="m 99.056432,38.258226 c 1.585348,3.471153 4.091508,6.37523 6.716958,9.095057 2.24783,2.328632 4.67222,4.482335 6.87605,6.853094 0.50811,0.546598 0.71015,1.157526 0.91916,1.399239 0.24127,0.279014 1.09618,0.620419 1.16664,0.699624 0.18417,0.207068 1.08044,0.363884 1.04289,0.349809 -5.9752,-2.23964 -9.36564,8.584694 -1.73227,10.319398 8.11675,1.84455 16.83101,-14.9459 5.21448,-11.114418 -1.98554,0.654891 -3.91707,1.468964 -5.83315,2.30556 -1.4792,0.645845 -4.21318,1.908106 -5.56801,3.068791"
         id="path252" />
      <path
         style="fill:none;stroke:#00ffff;stroke-width:0.264999"
         d="m 81.344859,64.907381 c -1.070525,2.137821 -0.73837,1.683891 -2.297906,3.800213 -1.745573,2.368775 -3.644056,4.625105 -5.408928,6.980296 -0.491733,0.656212 -1.189971,1.33033 -1.573172,2.019358 -0.200615,0.36072 -0.825532,-0.07558 -1.23734,-0.0477 -1.271736,0.0861 -2.663984,0.53231 -3.570597,1.494642 -1.152015,1.222816 -2.378853,3.241899 -2.492346,5.024543 -0.15126,2.375884 -0.06824,8.619672 4.012507,8.538543 5.131689,-0.102021 8.646157,-9.217461 7.194214,-13.51539 -1.153221,-3.413678 -5.096349,-3.219913 -7.865912,-2.400964 -2.320113,0.686049 -3.20358,1.620118 -2.403962,0.810919"
         id="path254" />
      <path
         style="fill:none;stroke:#00ffff;stroke-width:0.264999"
         d="m 86.683079,63.539949 c 1.90114,3.565342 3.817541,7.064499 6.009907,10.4625 0.797452,1.235988 1.603656,2.466406 2.421647,3.6889 0.678669,1.014273 1.375103,2.016559 2.068118,3.021082 1.262221,1.829588 1.422799,2.072116 2.51002,3.545811 0.180258,0.244332 0.282162,0.738309 0.583319,0.699613 0.27658,-0.03554 -0.831289,-0.944448 -0.848466,-0.954026 -0.941125,-0.524886 -1.87498,-1.108043 -3.004952,-0.954029 -2.387277,0.325381 -3.91418,2.251043 -5.037725,4.213627 -0.72608,1.268298 -1.152882,3.208885 -0.813104,4.674724 1.222629,5.274543 9.897847,1.496597 12.249627,-0.254402 2.52126,-1.877184 2.42896,-2.145784 3.7827,-4.452131"
         id="path256" />
      <path
         style="fill:none;stroke:#00ffff;stroke-width:0.264999"
         d="m 105.40219,81.427957 c -0.60688,-0.551215 -1.07638,-1.309844 -1.82065,-1.653644 -3.703894,-1.710925 -8.129392,-0.192524 -10.853195,2.591771"
         id="path258" />
    </g>
  </g>
</svg>
