<?xml version="1.0" encoding="UTF-8" standalone="no"?>
<!-- Created with Inkscape (http://www.inkscape.org/) -->

<svg
   width="1127.6466mm"
   height="223.26631mm"
   viewBox="0 0 1127.6466 223.26632"
   version="1.1"
   id="svg12"
   inkscape:version="1.2.1 (9c6d41e410, 2022-07-14, custom)"
   sodipodi:docname="binomial_therom_proof_step_1.svg"
   xml:space="preserve"
   xmlns:inkscape="http://www.inkscape.org/namespaces/inkscape"
   xmlns:sodipodi="http://sodipodi.sourceforge.net/DTD/sodipodi-0.dtd"
   xmlns="http://www.w3.org/2000/svg"
   xmlns:svg="http://www.w3.org/2000/svg"><sodipodi:namedview
     id="namedview14"
     pagecolor="#505050"
     bordercolor="#eeeeee"
     borderopacity="1"
     inkscape:showpageshadow="0"
     inkscape:pageopacity="0"
     inkscape:pagecheckerboard="0"
     inkscape:deskcolor="#505050"
     inkscape:document-units="mm"
     showgrid="true"
     inkscape:zoom="0.12176488"
     inkscape:cx="1166.1819"
     inkscape:cy="1420.7709"
     inkscape:window-width="1366"
     inkscape:window-height="746"
     inkscape:window-x="0"
     inkscape:window-y="0"
     inkscape:window-maximized="1"
     inkscape:current-layer="layer1"
     inkscape:lockguides="false"><inkscape:grid
       type="xygrid"
       id="grid344"
       color="#969696"
       opacity="0.39215686"
       empcolor="#000000"
       empopacity="0.17254902"
       dotted="false"
       originx="-630.80311"
       originy="-9811.2336" /></sodipodi:namedview><defs
     id="defs9" /><g
     inkscape:label="Layer 1"
     inkscape:groupmode="layer"
     id="layer1"
     transform="translate(-735.80309,-9959.7334)"><path
       style="fill:none;stroke:#ffffff;stroke-width:5.5"
       d="m 785.15539,10051.891 c 0,-2.908 2.90814,-8.725 0,-8.725 -2.90814,0 2.68531,7.609 0,8.725 -4.37483,1.819 -9.23946,-3.765 -13.90552,-2.943 -3.49877,0.616 -5.89587,4.111 -8.17968,6.832 -20.96582,24.982 -34.26327,61.62 -15.65833,91.975 10.45125,17.052 33.64765,17.506 39.61318,27.855"
       id="path1091" /><path
       style="fill:none;stroke:#ffffff;stroke-width:5.5"
       d="m 846.85384,10087.209 c -1.72874,18.208 -9.52005,34.459 -16.12569,51.191 -5.22259,13.228 -5.18832,7.629 -6.42694,-2.523"
       id="path1093" /><path
       style="fill:none;stroke:#ffffff;stroke-width:5.5"
       d="m 817.05631,10095.724 c 2.68761,3.328 5.62313,6.471 8.06286,9.985 8.49368,12.235 15.50312,25.554 23.95492,37.841 1.63301,2.375 5.65536,8.558 6.42686,5.782"
       id="path1095" /><path
       style="fill:none;stroke:#ffffff;stroke-width:5.5"
       d="m 883.8963,10098.877 c 5.2896,6.3 16.9373,37.019 7.94602,44.568 -13.25597,-33.414 -1.61211,-21.22 17.87851,-22.389"
       id="path1097" /><path
       style="fill:none;stroke:#ffffff;stroke-width:5.5"
       d="m 935.07796,10093.096 c 1.63595,3.854 4.31596,7.417 4.90781,11.562 0.3329,2.331 -3.31563,31.987 -6.19318,32.165 -0.98939,0.06 -1.40224,-1.401 -2.10336,-2.102"
       id="path1099" /><path
       style="fill:none;stroke:#ffffff;stroke-width:5.5"
       d="m 914.62868,10103.922 c 7.55886,-0.1 21.47891,0.309 18.57963,13.35"
       id="path1101" /><path
       style="fill:none;stroke:#ffffff;stroke-width:5.5"
       d="m 959.50024,10057.041 c 27.9113,33.608 40.17087,71.658 15.07406,111.421 -8.34843,13.228 -14.57013,-8.794 -15.42463,-11.772"
       id="path1103" /><path
       style="fill:none;stroke:#ffffff;stroke-width:5.5"
       d="m 990.58315,10053.468 c 0.46741,-5.571 0.6654,-11.172 1.40224,-16.713 7.59375,-57.1137 25.23991,3.522 30.03131,17.133"
       id="path1105" /><path
       style="fill:none;stroke:#ffffff;stroke-width:5.5"
       d="m 1097.0364,10111.701 c 0.4243,-1.649 54.4113,-7.058 35.2896,-1.682"
       id="path1107" /><path
       style="fill:none;stroke:#ffffff;stroke-width:5.5"
       d="m 1093.9981,10140.397 c 4.4405,1.717 8.5649,4.949 13.3214,5.15 7.0509,0.3 29.9839,-8.327 40.4311,-9.67"
       id="path1109" /><path
       style="fill:none;stroke:#ffffff;stroke-width:5.5"
       d="m 1270.3296,10088.26 c 1.7528,-3.188 8.4468,-7.812 5.2583,-9.565 -3.1884,-1.753 -3.2049,6.562 -5.2583,9.565 -12.4717,18.243 -34.5179,39.982 -22.4358,65.486 3.3355,7.041 9.5327,12.408 15.1908,17.765 3.7067,3.509 19.2012,13.023 16.2427,6.517"
       id="path1111" /><path
       style="fill:none;stroke:#ffffff;stroke-width:5.5"
       d="m 1316.136,10116.746 c 0.1897,7.549 -11.3223,42.874 -17.1774,46.671 -0.832,0.539 -1.636,-1.121 -2.4539,-1.682"
       id="path1113" /><path
       style="fill:none;stroke:#ffffff;stroke-width:5.5"
       d="m 1293.8171,10125.471 c 15.0245,-10.433 35.3581,25.162 44.6378,25.858"
       id="path1115" /><path
       style="fill:none;stroke:#ffffff;stroke-width:5.5"
       d="m 1346.7515,10109.914 c 0.1081,3.585 13.1063,31.715 8.2965,30.273 -0.1423,-23.689 14.2494,-12.532 27.928,-19.026"
       id="path1117" /><path
       style="fill:none;stroke:#ffffff;stroke-width:5.5"
       d="m 1399.5691,10098.561 c 2.5193,5.483 4.8761,43.632 -2.1033,45.62 -1.6699,0.476 -3.0383,-1.682 -4.5574,-2.523"
       id="path1119" /><path
       style="fill:none;stroke:#ffffff;stroke-width:5.5"
       d="m 1373.8614,10111.596 c 1.0165,1.859 37.235,15.75 31.6672,11.457"
       id="path1121" /><path
       style="fill:none;stroke:#ffffff;stroke-width:5.5"
       d="m 1403.7757,10051.365 c 28.3231,25.371 36.679,61.66 32.0179,98.807 -0.5836,4.651 -5.3357,20.642 -13.2045,21.969"
       id="path1123" /><path
       style="fill:none;stroke:#ffffff;stroke-width:5.5"
       d="m 1528.8086,10074.385 c 1.0128,-3.013 2.0255,-6.026 3.0382,-9.04 -0.2727,-0.245 -0.7012,-1.083 -0.818,-0.735 -8.2571,24.568 8.9997,-6.624 -18.346,13.875 -4.4241,3.316 -6.0676,9.288 -8.4133,14.295 -9.911,21.155 -13.6379,47.607 4.4403,65.381 3.928,3.862 16.4704,13.297 23.3707,9.986"
       id="path1125" /><path
       style="fill:none;stroke:#ffffff;stroke-width:5.5"
       d="m 1592.4935,10102.346 c -0.6382,4.082 -10.8579,47.088 -16.2425,48.773 -2.9256,0.915 -1.8854,-5.842 -2.5708,-8.83"
       id="path1127" /><path
       style="fill:none;stroke:#ffffff;stroke-width:5.5"
       d="m 1563.9815,10110.124 c 11.4886,17.315 33.3218,24.326 45.8063,40.048"
       id="path1129" /><path
       style="fill:none;stroke:#ffffff;stroke-width:5.5"
       d="m 1634.5606,10098.141 c -1.2719,7.824 11.6004,47.932 5.0247,47.932"
       id="path1131" /><path
       style="fill:none;stroke:#ffffff;stroke-width:5.5"
       d="m 1624.8619,10136.508 c 8.6218,-12.039 25.3169,-3.563 35.4065,-11.037"
       id="path1133" /><path
       style="fill:none;stroke:#ffffff;stroke-width:5.5"
       d="m 1685.3918,10097.616 c 13.2259,2.752 3.9358,52.31 -7.5955,44.988"
       id="path1135" /><path
       style="fill:none;stroke:#ffffff;stroke-width:5.5"
       d="m 1660.6189,10113.383 c 10.8776,-0.508 18.383,0.36 27.2268,4.94"
       id="path1137" /><path
       style="fill:none;stroke:#ffffff;stroke-width:5.5"
       d="m 1697.7781,10046.845 c 5.7648,5.572 12.3197,10.427 17.2944,16.714 17.4517,22.054 30.4422,57.027 21.5009,84.932 -2.0677,6.453 -10.0922,27.815 -21.6177,22.809"
       id="path1139" /><path
       style="fill:none;stroke:#ffffff;stroke-width:5.5"
       d="m 1741.2476,10037.911 c -2.101,-7.646 -2.3837,-46.0692 11.3347,-46.881 11.6399,-0.689 17.835,26.521 18.1123,35.003"
       id="path1141" /><path
       style="fill:none;stroke:#ffffff;stroke-width:5.5"
       d="m 1802.7123,10002.277 c 5.7758,3.604 12.605,0.522 18.6966,1.997 2.623,0.636 -0.522,1.549 -2.1035,0.736"
       id="path1143" /><path
       style="fill:none;stroke:#ffffff;stroke-width:5.5"
       d="m 1838.5862,9961.0726 c 5.2403,24.8314 10.5054,49.7954 22.4358,72.2134"
       id="path1145" /><path
       style="fill:none;stroke:#ffffff;stroke-width:5.5"
       d="m 1809.0224,9999.9647 c -16.4947,7.2373 -9.1911,4.9813 -20.2156,7.7783 -1.4376,0.365 -5.7442,1.477 -4.3235,1.051 2.4873,-0.746 9.2442,-1.891 9.8156,-2.102 5.0604,-1.873 9.3601,-6.135 14.7235,-6.7273 22.1364,-2.4429 23.4657,11.7813 0,0 z"
       id="path1147" /><path
       style="fill:none;stroke:#ffffff;stroke-width:5.5"
       d="m 1835.7818,9960.6519 c 5.9675,16.8399 23.3969,60.6401 19.865,76.2081"
       id="path1149" /><path
       style="fill:none;stroke:#ffffff;stroke-width:5.5"
       d="m 1350.6076,10123.158 c 9.8497,-18.43 1.3917,-27.988 0,0 -0.5761,11.587 3.4681,51.379 1.1686,13.77 -0.2811,-4.598 -0.7791,-9.18 -1.1686,-13.77 z"
       id="path1151" /><path
       style="fill:none;stroke:#ffffff;stroke-width:5.5"
       d="m 1334.4819,10125.366 c 8.849,8.813 25.211,-1.77 34.4717,3.784 3.5777,2.145 -44.3556,7.287 -34.4717,-3.784 0.6466,-0.725 30.1179,-0.09 31.1997,0"
       id="path1153" /></g></svg>
