<?xml version="1.0" encoding="UTF-8" standalone="no"?>
<!-- Created with Inkscape (http://www.inkscape.org/) -->

<svg
   width="992.84912mm"
   height="649.61102mm"
   viewBox="0 0 992.84911 649.61103"
   version="1.1"
   id="svg12"
   inkscape:version="1.2.1 (9c6d41e410, 2022-07-14, custom)"
   sodipodi:docname="binomial_therom_proof_step_move_points.svg"
   xml:space="preserve"
   xmlns:inkscape="http://www.inkscape.org/namespaces/inkscape"
   xmlns:sodipodi="http://sodipodi.sourceforge.net/DTD/sodipodi-0.dtd"
   xmlns="http://www.w3.org/2000/svg"
   xmlns:svg="http://www.w3.org/2000/svg"><sodipodi:namedview
     id="namedview14"
     pagecolor="#505050"
     bordercolor="#eeeeee"
     borderopacity="1"
     inkscape:showpageshadow="0"
     inkscape:pageopacity="0"
     inkscape:pagecheckerboard="0"
     inkscape:deskcolor="#505050"
     inkscape:document-units="mm"
     showgrid="true"
     inkscape:zoom="0.12176488"
     inkscape:cx="1880.6736"
     inkscape:cy="2209.1756"
     inkscape:window-width="1366"
     inkscape:window-height="746"
     inkscape:window-x="0"
     inkscape:window-y="0"
     inkscape:window-maximized="1"
     inkscape:current-layer="layer1"
     inkscape:lockguides="false"><inkscape:grid
       type="xygrid"
       id="grid344"
       color="#969696"
       opacity="0.39215686"
       empcolor="#000000"
       empopacity="0.17254902"
       dotted="false"
       originx="-594.02057"
       originy="-9925.6491" /></sodipodi:namedview><defs
     id="defs9" /><g
     inkscape:label="Layer 1"
     inkscape:groupmode="layer"
     id="layer1"
     transform="translate(-699.02062,-10074.149)"><path
       style="fill:none;stroke:#ff5555;stroke-width:5.5"
       d="m 851.1611,10615.565 c -8.87989,25.196 -21.82466,48.66 -32.48516,73.16 -1.7471,4.015 -3.29141,8.119 -5.14155,12.088 -0.18732,0.402 -0.62671,1.265 -0.93483,0.946 -1.56672,-1.621 -2.26355,-8.357 -2.4539,-9.46"
       id="path1491" /><path
       style="fill:none;stroke:#ff5555;stroke-width:5.5"
       d="m 802.90077,10623.029 c 8.43917,14.338 17.46882,29.123 25.00656,43.727"
       id="path1493" /><path
       style="fill:none;stroke:#ff5555;stroke-width:5.5"
       d="m 886.45073,10551.446 c -0.97378,3.504 -2.70366,6.881 -2.92133,10.511 -0.29704,4.954 0.82084,9.893 1.40226,14.821 0.43168,3.66 1.0478,7.295 1.63594,10.932 3.72869,23.06 -2.91045,-13.445 10.16622,-17.869 13.2967,-4.499 28.87072,16.218 25.00656,28.17 -6.23454,19.285 -40.03536,24.051 -40.31433,7.989 -0.0663,-3.818 4.70433,-3.089 6.54378,-3.258"
       id="path1495" /><path
       style="fill:none;stroke:#00ff00;stroke-width:5.5"
       d="m 733.76706,10634.675 c -0.85184,23.166 -11.30565,42.647 -20.68297,63.384 -5.56052,12.296 -8.14645,17.776 -8.88087,15.556 -0.88004,-2.659 -2.06015,-13.044 -2.45393,-16.187"
       id="path1562" /><path
       style="fill:none;stroke:#00ff00;stroke-width:5.5"
       d="m 701.28192,10645.502 c 11.9515,0.583 35.10892,63.135 42.88507,67.798 2.48656,1.491 -0.56239,-5.784 -1.16854,-8.619"
       id="path1564" /><path
       style="fill:none;stroke:#00ff00;stroke-width:5.5"
       d="m 763.91516,10585.376 c -26.34918,9.241 -15.59163,44.615 5.84267,16.503 4.82976,-6.334 6.74632,-11.644 6.54377,-19.236 -0.0451,-1.691 0.48393,-5.305 -1.16854,-4.94 -4.424,0.976 -12.09159,3.228 -11.2179,7.673 1.6034,8.158 23.56788,13.543 25.35715,24.807"
       id="path1566" /><path
       style="fill:none;stroke:#00ff00;stroke-width:5.5"
       d="m 980.00381,10684.156 c 8.81852,1.306 17.50604,3.461 26.40879,4.204 187.8017,15.687 375.5079,-10.529 563.4657,-5.361 27.3478,0.752 54.6787,2.579 82.0309,3.049 2.052,0.03 13.2788,1.346 14.4898,-0.211 1.9115,-2.456 -7.0552,-7.718 -7.3618,-7.883 -8.3952,-4.531 -17.8819,-6.018 -27.2267,-6.938 -2.7839,-0.273 -8.9038,1.47 -8.2966,-1.261 0.2623,-1.18 1.9933,-1.453 3.1551,-1.787 5.3156,-1.526 64.6099,-12.782 62.3995,-1.051 -1.0597,5.624 -29.2204,51.891 -26.1751,53.923 1.0234,0.683 2.3371,-0.77 3.5056,-1.156"
       id="path1570" /><path
       style="fill:none;stroke:#00ff00;stroke-width:5.5"
       d="m 1082.2503,10661.136 c 0.3505,-2.979 4.0299,-8.584 1.0516,-8.935 -2.9782,-0.351 -1.5164,5.972 -1.0516,8.935 0.9242,5.89 4.1081,11.261 5.1415,17.133 2.3485,13.347 2.8137,28.642 3.6225,42.466"
       id="path1572" /><path
       style="fill:none;stroke:#00ff00;stroke-width:5.5"
       d="m 1191.7416,10662.187 c 10.6071,16.17 5.6081,45.111 8.8809,58.653"
       id="path1574" /><path
       style="fill:none;stroke:#00ff00;stroke-width:5.5"
       d="m 1307.6599,10661.766 c 9.7445,5.734 -1.9641,54.716 2.6876,58.654 0.9757,0.826 1.0907,-2.313 1.636,-3.469"
       id="path1576" /><path
       style="fill:none;stroke:#00ff00;stroke-width:5.5"
       d="m 1414.4637,10663.238 c 8.0037,14.868 6.0764,32.839 6.0764,49.298"
       id="path1578" /><path
       style="fill:none;stroke:#00ff00;stroke-width:5.5"
       d="m 1527.4606,10659.349 c -0.7671,18.485 7.8118,40.442 2.454,58.758"
       id="path1580" /><path
       style="fill:none;stroke:#ff5555;stroke-width:5.5"
       d="m 986.66443,10688.36 c 5.92298,-36.409 1.40318,-73.147 1.75281,-109.634 0.29905,-31.207 4.34767,-62.398 5.8426,-93.551 0.93043,-19.39 -2.312,-39.044 -2.45387,-58.444 -0.20151,-27.555 1.28555,-54.984 1.75276,-82.514 0.47959,-28.261 -0.80064,-56.535 -0.11684,-84.827 0.93204,-38.563 0.44385,-77.571 -0.35053,-116.151 -0.28674,-13.926 0.0905,-27.717 0.23368,-41.625 0.0422,-4.096 -0.11379,-8.204 0,-12.298 0.0276,-0.993 1.01864,-3.77 0.46743,-2.944 -6.24209,9.359 -10.83181,19.33 -17.99541,28.276 -0.83358,1.041 -5.30299,5.869 -7.01114,7.358 -0.34703,0.302 -1.33718,1.164 -1.16855,0.736 3.98786,-10.129 11.89617,-20.225 17.52799,-29.327 4.1143,-6.649 10.98855,-16.879 11.21789,-16.503 5.44155,8.926 5.88425,20.782 11.10105,30.168 5.5563,9.996 13.0586,16.059 14.4898,27.645"
       id="path1584" /><path
       style="fill:none;stroke:#ff5555;stroke-width:5.5"
       d="m 979.88697,10598.383 c -2.96029,-0.666 -8.21514,-4.958 -8.88087,-1.998 -2.41408,10.735 12.80599,-1.638 27.1099,-5.676 3.7211,-1.05 23.1244,4.076 19.7482,0.211"
       id="path1586" /><path
       style="fill:none;stroke:#ff5555;stroke-width:5.5"
       d="m 964.81291,10500.732 c 4.44042,1.051 8.80936,2.471 13.32124,3.153 12.25597,1.853 25.24005,1.731 37.62665,2.418 0.014,0 11.1794,2.148 7.946,-1.051"
       id="path1588" /><path
       style="fill:none;stroke:#ff5555;stroke-width:5.5"
       d="m 974.04431,10414.959 c 23.76447,-9.933 49.81959,-13.817 75.48709,-13.034"
       id="path1590" /><path
       style="fill:none;stroke:#ff5555;stroke-width:5.5"
       d="m 958.26914,10304.484 c 14.75249,1.271 29.56076,1.53 44.28726,3.153 5.1081,0.563 11.2958,3.097 16.2426,2.628"
       id="path1592" /><path
       style="fill:none;stroke:#ff5555;stroke-width:5.5"
       d="m 954.41298,10214.717 c 29.65912,-7.569 60.45252,0.125 90.21052,-1.787"
       id="path1594" /><path
       style="fill:none;stroke:#ffffff;stroke-width:5.5"
       d="m 1310.2307,10513.45 c -2.9213,-1.716 -6.3174,-2.806 -8.764,-5.15 -2.1225,-2.034 -2.3371,-7.852 -2.3371,-10.406 0,-16.172 23.5993,4.314 11.1011,15.556 -14.8034,13.317 -26.6197,-21.203 -7.7123,-25.858 12.7909,-3.149 10.0693,22.887 7.7123,25.858 -3.5442,4.468 -10.2598,5.172 -15.7752,6.623 -11.7631,3.094 -1.8268,-35.204 11.3348,-28.066 3.7604,2.04 6.6583,19.962 4.4404,21.443 -30.1609,20.143 -14.1527,-9.52 -10.6336,-8.093 4.128,1.674 7.089,5.396 10.6336,8.093 z"
       id="path1600" /><path
       style="fill:none;stroke:#ffffff;stroke-width:5.5"
       d="m 1113.8006,10534.999 c -16.8799,20.383 -35.3931,51.525 -14.7235,75.997 6.5092,7.707 18.3037,10.934 19.3976,21.759"
       id="path1602" /><path
       style="fill:none;stroke:#ffffff;stroke-width:5.5"
       d="m 1201.3236,10592.391 c -4.4362,0.812 -22.8526,44.027 -17.7616,33.952"
       id="path1612" /><path
       style="fill:none;stroke:#ffffff;stroke-width:5.5"
       d="m 1267.5794,10512.715 c 4.2067,0.946 9.1726,0.248 12.62,2.838 4.6344,3.481 7.3619,9.055 10.0495,14.19 18.2661,34.903 17.9634,87.692 -4.0899,120.566"
       id="path1685" /><path
       style="fill:none;stroke:#00ff00;stroke-width:5.5"
       id="path1781"
       d="m 921.63821,11185.243 c 4.00257,-5.412 7.39837,-11.188 11.55347,-16.482 0,0 -0.0685,-0.04 -0.0685,-0.04 v 0 c -4.67406,4.92 -9.19916,9.945 -12.60243,15.865 0,0 1.11747,0.659 1.11747,0.659 z" /><path
       style="fill:none;stroke:#00ff00;stroke-width:5.5"
       d="m 1151.4194,10554.275 c -15.8363,-11.255 -38.4886,27.203 -33.3033,32.691 9.2493,9.788 28.7223,-8.736 33.6538,-14.821 1.697,-2.094 4.0258,-4.348 3.973,-7.043 -0.076,-3.885 -2.4918,-14.254 -4.3235,-10.827 -7.0798,13.247 12.6617,34.548 16.71,47.091"
       id="path1834" /><path
       style="fill:none;stroke:#ff8080;stroke-width:5.5"
       d="m 1010.6113,11144.385 c 2.1218,1.619 24.4421,-33.338 27.4605,-26.278"
       id="path1836" /><path
       style="fill:none;stroke:#ff8080;stroke-width:5.5"
       d="m 1241.63,10543.764 c -0.5454,4.695 -1.6753,9.359 -1.6361,14.085 0.039,4.736 1.24,9.391 1.8698,14.085 0.4608,3.435 0.9502,6.866 1.4022,10.302 4.3692,33.21 -1.7657,-23.468 14.4898,-15.032 15.8016,8.201 6.6588,85.311 -20.0987,37.526 -1.9752,-3.527 -1.2465,-7.989 -1.8697,-11.983"
       id="path1838" /><path
       style="fill:none;stroke:#00ffff;stroke-width:5.5"
       d="m 1058.7548,11159.206 c 16.2694,-5.662 25.8163,-44.288 42.4177,-46.67 1.6436,-0.236 2.5708,2.102 3.8561,3.153"
       id="path2523" /><path
       style="fill:none;stroke:#00ff00;stroke-width:5.5"
       d="m 1241.9804,11196.522 c 11.696,-10.157 23.0406,-24.897 37.9773,-31.219"
       id="path2683" /><path
       style="fill:none;stroke:#ff5555;stroke-width:5.5"
       d="m 1306.2917,10497.514 c 0.8959,-3.119 5.806,-8.46 2.6876,-9.355 -3.1184,-0.896 -2.7448,12.599 -2.6876,9.355 0.099,-5.626 2.6784,-12.793 2.9213,-19.131 0.3999,-10.432 -3.7579,-20.888 -2.3371,-31.114 0.7617,-5.482 1.9394,-12.004 0,-17.239 -0.3129,-0.844 0.5512,-7.176 0.4675,-7.147 -1.6254,0.562 -3.0166,1.663 -4.4405,2.628 -4.5256,3.066 -8.8229,6.459 -13.3212,9.565 -2.2574,1.559 -8.6914,6.478 -7.0112,4.31 3.2973,-4.256 7.5152,-7.907 11.3347,-11.668 0.01,0 7.5134,-8.28 8.6472,-7.884 9.1168,3.19 17.5859,11.329 25.7077,16.398 4.2863,2.676 8.7468,3.465 8.5302,8.725"
       id="path1526" /><path
       style="fill:none;stroke:#00ff00;stroke-width:5.5"
       d="m 781.97178,11216.283 c 2.55481,-5.015 7.69902,-23.545 12.15269,-23.545"
       id="path1528" /><path
       style="fill:none;stroke:#00ff00;stroke-width:5.5"
       d="m 1317.7433,10505.292 c 12.3748,-2.277 7.0876,-1.897 17.8785,-1.997 11.6225,-0.108 23.9754,2.25 35.5233,1.156 0.945,-0.09 14.7942,-3.715 14.7235,-3.784 -2.4116,-2.366 -19.3333,-15.983 -17.8785,-17.554 3.0444,-3.286 16.8623,-2.887 19.5145,0.315 10.8199,13.063 -9.3603,29.608 -14.9572,40.364 -0.893,1.716 -3.9522,15.072 -3.155,11.247"
       id="path1593" /><path
       style="fill:none;stroke:#00ff00;stroke-width:5.5"
       d="m 1414.9651,10516.119 c -1.9086,-4.45 -5.1523,-8.542 -5.7259,-13.35 -0.3469,-2.907 1.8295,-5.587 3.1551,-8.199 10.7747,-21.222 19.661,20.085 2.5708,21.549 -1.4754,0.126 -9.4249,-19.985 -0.2338,-21.969 5.5327,-1.194 12.6488,24.649 0.2338,21.969 -28.0294,-6.052 6.0546,-25.398 4.5572,-13.35 -0.5799,4.666 -3.0381,8.9 -4.5572,13.35 z"
       id="path1595" /><path
       style="fill:none;stroke:#00ff00;stroke-width:5.5"
       d="m 1440.7896,10555.116 c -15.9553,10.456 -30.558,36.602 -15.892,54.659 0.9318,1.148 16.1151,10.812 18.9303,15.032"
       id="path1597" /><path
       style="fill:none;stroke:#00ff00;stroke-width:5.5"
       d="m 1474.4433,10578.031 c -5.6603,3.166 -21.9564,15.039 -9.8157,22.599 5.567,3.467 19.9738,-4.23 17.6449,-11.562 -1.3655,-4.299 -8.45,-15.505 -7.8292,-11.037 0.8309,5.979 9.6953,22.273 15.4247,28.801"
       id="path1599" /><path
       style="fill:none;stroke:#00ff00;stroke-width:5.5"
       d="m 1510.0835,10572.04 c 2.0781,4.764 8.9459,44.778 -0.4674,44.778"
       id="path1601" /><path
       style="fill:none;stroke:#00ff00;stroke-width:5.5"
       d="m 1499.333,10600.42 c 1.4922,-4.897 48.7118,-10.239 29.9145,-2.207"
       id="path1603" /><path
       style="fill:none;stroke:#00ff00;stroke-width:5.5"
       d="m 1537.4271,10567.414 c 3.3416,10.115 10.1844,20.259 10.5168,31.324"
       id="path1605" /><path
       style="fill:none;stroke:#00ff00;stroke-width:5.5"
       d="m 1584.1684,10592.747 c -2.1349,12.056 -7.2089,24.2 -7.8291,36.474"
       id="path1607" /><path
       style="fill:none;stroke:#00ff00;stroke-width:5.5"
       d="m 1612.4468,10549.23 c 1.2465,4.134 2.7482,8.2 3.7393,12.403 0.5538,2.349 1.8295,13.676 1.8696,16.293 0.066,4.269 -1.519,16.988 -1.519,12.719 0,-6.84 6.7826,-25.731 16.5932,-18.711 3.1116,2.227 5.1296,11.103 5.3752,14.086 1.7041,20.696 -27.0106,18.396 -17.9954,-4.31"
       id="path1609" /><path
       style="fill:none;stroke:#00ff00;stroke-width:5.5"
       d="m 1642.3613,10506.659 c 4.0898,4.87 9.7692,8.763 12.2695,14.61 12.074,28.239 3.0906,106.009 -18.8133,127.504"
       id="path1611" /><path
       style="fill:none;stroke:#ff8080;stroke-width:5.5"
       d="m 1366.2373,11072.382 c 10.2852,-8.396 25.9013,-22.059 39.3796,-11.668"
       id="path1613" /><path
       style="fill:none;stroke:#ff8080;stroke-width:5.5"
       d="m 1333.9859,10315.456 c -4.341,12.058 -14.5986,20.78 -14.8403,34.373 -0.2904,16.326 15.7435,26.008 27.811,33.636 0.9218,0.583 10.7508,4.628 10.9841,6.307 0.2629,1.892 -3.8355,0.06 -5.7257,-0.21 -11.3115,-1.633 -15.1378,-4.166 -21.2673,-16.398 -5.9012,-11.777 -8.011,-46.895 3.0382,-57.708 3.9795,-3.894 10.2989,-4.237 15.4246,-6.412 1.6104,-0.683 4.3754,-2.494 6.31,-2.628 0.6601,-0.05 -6.6985,8.975 -8.2965,9.25 -4.4148,0.762 -11.3532,-4.175 -13.4381,-0.21 -3.6571,6.956 1.4703,15.693 1.1685,23.546 -0.2074,5.396 -2.2427,10.595 -2.6876,15.977 -0.9462,11.448 1.0431,24.683 12.5032,30.273 5.1305,2.502 20.9854,0.935 21.8516,1.997 0.7793,0.956 -1.1685,2.172 -1.7527,3.259"
       id="path1678" /><path
       style="fill:none;stroke:#ff8080;stroke-width:5.5"
       d="m 1401.7607,10329.226 c -2.3223,3.461 -22.184,20.442 -15.8921,27.645 4.9223,5.635 25.94,-15.731 25.3572,-17.028 -1.9434,-4.325 -7.1617,-14.761 -9.4651,-10.617 -5.8504,10.526 9.2404,22.627 16.9436,25.648"
       id="path1680" /><path
       style="fill:none;stroke:#ff8080;stroke-width:5.5"
       d="m 1441.9581,10355.61 c -3.4487,-1.841 -17.9088,38.594 -11.919,26.278"
       id="path1682" /><path
       style="fill:none;stroke:#ff8080;stroke-width:5.5"
       d="m 1465.4456,10313.459 c 1.0517,6.062 2.1937,12.108 3.155,18.185 0.4802,3.035 0.7349,6.102 1.1685,9.145 3.9626,27.803 -1.3451,-10.197 10.7506,-10.932 1.8715,-0.114 4.1863,0.459 5.2584,1.997 14.5101,20.818 -17.6728,51.075 -20.5662,20.707"
       id="path1684" /><path
       style="fill:none;stroke:#ff8080;stroke-width:5.5"
       d="m 1517.4453,10317.769 c -0.8535,5.007 5.9519,38.171 -2.2202,40.469 -1.8549,-29.965 -1.8018,-17.123 18.3459,-21.654"
       id="path1686" /><path
       style="fill:none;stroke:#ff8080;stroke-width:5.5"
       d="m 1549.2293,10306.206 c 8.9251,16.201 10.5264,34.429 13.0876,52.347"
       id="path1688" /><path
       style="fill:none;stroke:#ff8080;stroke-width:5.5"
       d="m 1295.3074,10398.496 c 6.0201,-30.98 19.1089,6.839 10.1663,6.412 -4.0019,-0.191 -6.7775,-4.274 -10.1663,-6.412 z"
       id="path1690" /><path
       style="fill:none;stroke:#ff8080;stroke-width:5.5"
       d="m 1307.5771,10397.34 c -2.2592,-3.924 -5.5984,-7.401 -6.7775,-11.773 -0.5479,-2.031 0.9737,-4.147 1.9865,-5.991 6.4803,-11.801 23.2437,9.252 4.791,17.764 -16.8937,7.793 -26.5723,-16.751 -13.4381,-22.179 23.2544,-9.611 24.2933,34.476 -0.2338,21.548 -7.9087,-4.168 4.9192,-27.046 16.1258,-21.022 15.2108,8.176 -6.2335,29.945 -16.8268,28.38 -4.8575,-0.717 4.2762,-30.894 10.5167,-21.443 2.7943,4.232 2.0996,9.959 3.8562,14.716 1.9596,5.307 6.7784,9.709 7.2448,15.347 0.34,4.109 -6.7203,9.692 -10.9841,8.199 -5.2364,-1.835 -13.1129,-17.383 -7.7123,-21.864 11.6335,-9.652 16.4763,4.152 16.4763,12.613 0,13.412 -25.532,-3.16 -14.0224,-12.613 2.3578,-1.937 5.9985,-1.121 8.9977,-1.682 z"
       id="path1692" /></g></svg>
