<?xml version="1.0" encoding="UTF-8" standalone="no"?>
<!-- Created with Inkscape (http://www.inkscape.org/) -->

<svg
   width="1420.0532mm"
   height="696.74988mm"
   viewBox="0 0 1420.0532 696.74988"
   version="1.1"
   id="svg12"
   inkscape:version="1.2.1 (9c6d41e410, 2022-07-14, custom)"
   sodipodi:docname="binomial_therom_proof_step_4_inside_of.svg"
   xml:space="preserve"
   xmlns:inkscape="http://www.inkscape.org/namespaces/inkscape"
   xmlns:sodipodi="http://sodipodi.sourceforge.net/DTD/sodipodi-0.dtd"
   xmlns="http://www.w3.org/2000/svg"
   xmlns:svg="http://www.w3.org/2000/svg"><sodipodi:namedview
     id="namedview14"
     pagecolor="#505050"
     bordercolor="#eeeeee"
     borderopacity="1"
     inkscape:showpageshadow="0"
     inkscape:pageopacity="0"
     inkscape:pagecheckerboard="0"
     inkscape:deskcolor="#505050"
     inkscape:document-units="mm"
     showgrid="true"
     inkscape:zoom="0.12176488"
     inkscape:cx="2094.1999"
     inkscape:cy="1667.1474"
     inkscape:window-width="1366"
     inkscape:window-height="746"
     inkscape:window-x="0"
     inkscape:window-y="0"
     inkscape:window-maximized="1"
     inkscape:current-layer="layer1"
     inkscape:lockguides="false"><inkscape:grid
       type="xygrid"
       id="grid344"
       color="#969696"
       opacity="0.39215686"
       empcolor="#000000"
       empopacity="0.17254902"
       dotted="false"
       originx="-853.53891"
       originy="-10026.403" /></sodipodi:namedview><defs
     id="defs9" /><g
     inkscape:label="Layer 1"
     inkscape:groupmode="layer"
     id="layer1"
     transform="translate(-958.53896,-10174.903)"><path
       style="fill:none;stroke:#ffffff;stroke-width:5.5"
       d="m 992.80417,10290.849 c -4.75202,4.485 -10.49396,8.113 -14.25607,13.455 -21.13875,30.019 -31.7596,101.12 21.9684,101.12"
       id="path1015" /><path
       style="fill:none;stroke:#00ff00;stroke-width:5.5"
       d="m 1058.1251,10331.213 c -6.906,14.636 -16.046,27.979 -23.9549,42.046 -1.1607,2.064 -2.2255,4.182 -3.2719,6.307 -0.3178,0.645 -0.8744,2.714 -0.818,1.997 2.1444,-16.975 1.4622,-9.222 2.3371,-23.23"
       id="path1017" /><path
       style="fill:none;stroke:#00ff00;stroke-width:5.5"
       d="m 1032.4174,10329.216 c -1.1296,-3.468 -2.2592,-6.937 -3.3888,-10.406 -0.1947,-0.386 -0.7179,-1.567 -0.5842,-1.156 7.3745,22.646 3.7776,10.23 23.838,43.202 4.7249,7.765 8.9515,17.512 14.6067,24.911"
       id="path1019" /><path
       style="fill:none;stroke:#ffffff;stroke-width:5.5"
       d="m 1092.5967,10327.64 c 6.509,14.821 12.3706,32.343 8.2966,48.667"
       id="path1021" /><path
       style="fill:none;stroke:#ffffff;stroke-width:5.5"
       d="m 1085.5856,10362.642 c 10.1825,-4.7 25.8834,-14.436 38.2109,-8.199"
       id="path1023" /><path
       style="fill:none;stroke:#ff5555;stroke-width:5.5"
       d="m 1162.0075,10325.853 c 1.1685,5.571 3.6532,11.022 3.5056,16.713 -0.1334,5.144 -2.8911,9.878 -4.3236,14.821 -1.6623,5.736 -2.6846,24.439 -10.3999,14.295"
       id="path1025" /><path
       style="fill:none;stroke:#ff5555;stroke-width:5.5"
       d="m 1135.2481,10340.043 c 6.8166,2.4 22.5611,6.968 25.0066,15.767"
       id="path1027" /><path
       style="fill:none;stroke:#ffffff;stroke-width:5.5"
       d="m 1166.9153,10295.264 c 2.9603,-1.506 5.6661,-5.355 8.8809,-4.52 4.8288,1.256 8.0591,6.013 11.3347,9.776 18.5555,21.319 26.0934,48.733 21.1504,76.523 -0.4472,2.514 -10.6751,37.312 -13.555,21.338"
       id="path1029" /><path
       style="fill:none;stroke:#ffffff;stroke-width:5.5"
       d="m 1219.0319,10282.756 c 0.4284,-5.816 0.3273,-11.696 1.2853,-17.449 5.2844,-31.734 22.9572,11.349 18.9302,17.869"
       id="path1031" /><path
       style="fill:none;stroke:#ffffff;stroke-width:5.5"
       d="m 1297.7909,10321.017 c 5.4468,5.775 18.3747,-5.169 25.1233,-0.21 1.4485,1.064 -0.3895,3.574 -0.5842,5.361"
       id="path1033" /><path
       style="fill:none;stroke:#ffffff;stroke-width:5.5"
       d="m 1294.8695,10343.617 c 12.6809,6.998 25.9387,0.297 39.3795,2.312"
       id="path1035" /><path
       style="fill:none;stroke:#00ff00;stroke-width:5.5"
       d="m 1488.3782,10309.244 c -2.337,4.03 -4.9068,7.933 -7.0112,12.089 -5.133,10.136 -9.5388,20.629 -14.6066,30.798 -4.0012,8.029 -6.5885,13.927 -7.2449,13.139 -1.6132,-1.934 -1.6359,-4.765 -2.4539,-7.148"
       id="path1037" /><path
       style="fill:none;stroke:#00ff00;stroke-width:5.5"
       d="m 1449.9335,10326.588 c 15.6934,14.06 35.2763,27.872 43.9368,46.881"
       id="path1039" /><path
       style="fill:none;stroke:#00ff00;stroke-width:5.5"
       d="m 1540.8453,10268.46 c -4.4404,5.746 -10.2664,10.651 -13.3212,17.239 -13.348,28.787 -7.8915,71.345 8.9976,97.02 8.468,12.873 20.4438,22.047 29.2133,34.478"
       id="path1041" /><path
       style="fill:none;stroke:#00ff00;stroke-width:5.5"
       d="m 1596.9347,10327.64 c -12.5735,16.519 -6.7639,6.5 -14.4897,27.014 -1.4811,3.932 -2.51,14.636 -5.2584,11.457 -0.2083,-0.241 -3.0717,-7.158 -3.5056,-8.199"
       id="path1043" /><path
       style="fill:none;stroke:#00ff00;stroke-width:5.5"
       d="m 1564.099,10335.418 c 18.957,2.072 24.3315,23.097 37.8605,32.901"
       id="path1045" /><path
       style="fill:none;stroke:#00ff00;stroke-width:5.5"
       d="m 1614.2291,10327.324 c 2.9785,7.098 23.3461,26.729 12.2695,35.318 1.2605,-30.226 7.6976,-14.203 24.4224,-23.23"
       id="path1047" /><path
       style="fill:none;stroke:#00ff00;stroke-width:5.5"
       d="m 1671.7208,10316.287 c 1.8307,3.364 4.9063,6.307 5.4921,10.091 1.0945,7.071 -2.0917,30.343 -8.6472,35.423 -1.1555,0.896 -2.8823,-0.49 -4.3235,-0.735"
       id="path1049" /><path
       style="fill:none;stroke:#00ff00;stroke-width:5.5"
       d="m 1653.1412,10332.054 c 14.5965,3.462 11.0488,1.98 21.7346,9.881"
       id="path1051" /><path
       style="fill:none;stroke:#00ff00;stroke-width:5.5"
       d="m 1672.1882,10284.017 c 3.4277,-0.911 6.8159,-3.48 10.2831,-2.733 28.7143,6.185 38.6376,45.713 34.7053,70.006 -1.3715,8.473 -4.2084,16.765 -7.946,24.492 -7.3933,15.283 -6.5081,15.491 -10.7505,10.826"
       id="path1053" /><path
       style="fill:none;stroke:#00ff00;stroke-width:5.5"
       d="m 1741.7158,10256.162 c 1.8841,-4.536 6.1943,-31.016 10.6336,-32.48 4.217,-1.391 11.1601,37.409 14.8403,28.801"
       id="path1055" /><path
       style="fill:none;stroke:#00ff00;stroke-width:5.5"
       d="m 1780.0436,10226.73 c 5.5979,2.172 39.3977,15.473 32.602,5.045"
       id="path1057" /><path
       style="fill:none;stroke:#00ff00;stroke-width:5.5"
       d="m 1815.2164,10190.15 c 13.3063,19.674 17.033,44.422 15.5415,67.904"
       id="path1059" /><path
       style="fill:none;stroke:#ffffff;stroke-width:5.5"
       d="m 1896.1956,10299.889 c -5.6128,18.301 5.4593,46.401 2.9214,60.861"
       id="path1061" /><path
       style="fill:none;stroke:#ffffff;stroke-width:5.5"
       d="m 1888.717,10342.986 c -3.0382,-0.981 -8.1335,-5.981 -9.1145,-2.943 -0.9811,3.038 5.9648,3.465 9.1145,2.943 13.4979,-2.237 22.6411,-13.825 36.6919,-5.781"
       id="path1063" /><path
       style="fill:none;stroke:#ff5555;stroke-width:5.5"
       d="m 2018.6577,10313.554 c -7.9525,10.266 -13.6701,45.274 -23.4875,52.872 -1.4758,1.143 -2.4081,-2.914 -3.155,-4.625"
       id="path1065" /><path
       style="fill:none;stroke:#ff5555;stroke-width:5.5"
       d="m 1974.3703,10325.012 c 12.9135,0.439 19.8676,8.673 25.5909,19.13"
       id="path1067" /><path
       style="fill:none;stroke:#ff5555;stroke-width:5.5"
       d="m 2092.6256,10269.196 c -23.8518,23.34 -35.4215,63.098 -15.3076,92.816 9.2065,13.602 25.2662,24.014 39.0288,32.585"
       id="path1069" /><path
       style="fill:none;stroke:#ff5555;stroke-width:5.5"
       d="m 2138.5489,10302.202 c 0.675,16.742 -6.9148,31.476 -11.3347,47.196 -1.0759,3.827 -2.0709,7.679 -2.9212,11.563 -0.6698,3.058 0.7644,7.239 -1.6361,9.25 -1.6987,1.422 -1.1685,-4.275 -1.7527,-6.412"
       id="path1081" /><path
       style="fill:none;stroke:#ff5555;stroke-width:5.5"
       d="m 2112.6076,10315.762 c 17.1844,12.85 27.8441,27.727 38.912,45.199 0.4907,0.774 4.3467,10.948 5.9596,6.307"
       id="path1083" /><path
       style="fill:none;stroke:#ff5555;stroke-width:5.5"
       d="m 2179.5645,10307.563 c 1.6484,5.148 8.8408,44.537 3.973,47.722"
       id="path1085" /><path
       style="fill:none;stroke:#ff5555;stroke-width:5.5"
       d="m 2170.9173,10341.304 c 13.4462,-10.254 19.9421,-4.533 33.1862,-8.199"
       id="path1087" /><path
       style="fill:none;stroke:#ff5555;stroke-width:5.5"
       d="m 2236.8224,10312.083 c 9.5988,6.178 0.1261,46.404 -10.1661,42.781"
       id="path1089" /><path
       style="fill:none;stroke:#ff5555;stroke-width:5.5"
       d="m 2210.8811,10322.699 c 2.7109,0.598 26.3638,7.671 18.6965,16.293"
       id="path1091" /><path
       style="fill:none;stroke:#ff5555;stroke-width:5.5"
       d="m 2238.4584,10261.312 c 4.2457,1.612 9.6875,1.471 12.7369,4.836 23.6028,26.046 30.8633,59.953 23.3707,93.341 -2.6507,11.812 -1.9986,10.955 -7.7123,15.031"
       id="path1093" /><path
       style="fill:none;stroke:#ff5555;stroke-width:5.5"
       d="m 2278.6558,10243.653 c -0.1319,-11.062 -1.688,-27.716 9.6989,-34.582 8.0711,-4.867 15.1076,32.888 15.3077,35.949"
       id="path1095" /><path
       style="fill:none;stroke:#ff5555;stroke-width:5.5"
       d="m 2328.4353,10215.378 c 1.178,4.586 27.8199,1.704 24.8897,-1.262"
       id="path1097" /><path
       style="fill:none;stroke:#ff5555;stroke-width:5.5"
       d="m 2361.9722,10175.855 c 8.3001,22.49 6.2287,47.99 14.0223,70.426"
       id="path1099" /><path
       style="fill:none;stroke:#00ff00;stroke-width:5.5"
       d="m 1677.7971,10270.773 c 23.4593,31.545 50.4603,66.72 35.7571,108.162 -5.638,15.891 -17.9337,27.551 -27.1099,41.31 -0.8178,1.226 1.2487,-2.689 2.1034,-3.889 2.2793,-3.202 4.6857,-6.315 6.8943,-9.566 7.641,-11.247 17.2654,-23.876 17.4111,-38.156 0.2283,-22.393 -8.1938,-72.095 -21.2673,-89.557 -3.2156,-4.295 -10.7142,-3.907 -13.7887,-8.304 -3.198,-4.574 1.4482,-18.028 -3.8562,-16.293 -1.357,0.444 0.4203,2.833 0.8181,4.205"
       id="path1105" /><path
       style="fill:none;stroke:#00ff00;stroke-width:5.5"
       d="m 1583.9381,10439.079 c -2.1033,4.17 -4.6446,8.146 -6.31,12.509 -5.4065,14.163 6.0523,50.129 17.1774,60.335 17.5953,16.141 53.1147,1.206 65.204,-15.031 11.0876,-14.892 9.088,-34.379 7.7123,-51.821 -0.09,-1.147 -1.2206,-15.929 -5.8426,-15.347 -2.3087,0.291 -6.9977,4.447 -8.2965,5.466"
       id="path2070" /><path
       style="fill:none;stroke:#00ff00;stroke-width:5.5"
       d="m 1621.9154,10519.491 c 1.0517,-5.466 2.3753,-10.886 3.1551,-16.397 1.0763,-7.608 2.9942,-33.885 3.2718,-40.364 0.3467,-8.088 0.5713,-16.187 0.4675,-24.282 -0.014,-1.052 0.1244,-3.516 -0.818,-3.048 -1.6074,0.798 -1.7138,3.154 -2.5707,4.73"
       id="path2072" /><path
       style="fill:none;stroke:#00ff00;stroke-width:5.5"
       d="m 1617.2413,10573.52 c 3.6665,36.371 1.1146,73.887 -2.337,110.37 -0.4855,5.132 -1.7874,24.409 -5.0247,28.485 -0.3551,0.448 -5.9711,-11.344 -10.5168,-21.127 -7.2322,-15.566 -14.1399,-31.297 -22.2021,-46.461 -1.1901,-2.238 -2.9465,-8.674 -4.0899,-6.412 -4.5337,8.972 27.0935,79.169 35.5234,79.992 3.2157,0.314 4.2157,-4.898 6.3101,-7.358 4.5273,-5.318 8.602,-11.053 13.5549,-15.977 8.2447,-8.198 48.5415,-41.629 57.8423,-21.549"
       id="path2074" /><path
       style="fill:none;stroke:#00ff00;stroke-width:5.5"
       d="m 1553.3227,10806.452 c -15.5199,14.581 -27.32,33.064 -37.8605,51.506 -1.436,2.513 -2.0911,10.072 -3.8561,7.779 -2.2012,-2.86 -0.1084,-7.22 0,-10.827"
       id="path2082" /><path
       style="fill:none;stroke:#00ff00;stroke-width:5.5"
       d="m 1512.5409,10810.237 c -2.219,-43.621 0,0 0,0 8.6692,16.419 22.7049,29.386 34.238,43.937 2.835,3.577 10.1816,14.367 7.2449,4.52"
       id="path2084" /><path
       style="fill:none;stroke:#00ff00;stroke-width:5.5"
       d="m 1585.5741,10772.08 c -3.6224,-0.701 -7.3636,-3.258 -10.8673,-2.102 -11.3866,3.758 -7.4971,24.619 5.2583,23.651 7.5618,-0.575 27.7042,-18.375 17.4112,-22.39 -36.1886,-14.116 15.7024,30.045 17.9954,34.583"
       id="path2086" /><path
       style="fill:none;stroke:#00ff00;stroke-width:5.5"
       d="m 1681.0431,10818.961 c -8.8079,9.446 -15.0884,42.935 -22.5526,49.929 -1.2127,1.137 -4.9285,-11.9 -5.1416,-12.508"
       id="path2088" /><path
       style="fill:none;stroke:#00ff00;stroke-width:5.5"
       d="m 1636.1715,10813.81 c 4.5181,-2.359 26.4524,40.349 28.7459,28.486"
       id="path2090" /><path
       style="fill:none;stroke:#00ff00;stroke-width:5.5"
       d="m 1249.1635,10608.377 c -3.6376,-17.525 3.6481,-16.409 0,0 z"
       id="path2094" /><path
       style="fill:none;stroke:#00ff00;stroke-width:5.5"
       d="m 1248.4624,10648.425 c 0.7633,13.324 3.4931,25.715 4.4404,39.208 0.5948,8.471 -0.8077,12.93 0.1168,13.034 1.4189,0.159 0.5453,-2.803 0.818,-4.205"
       id="path2096" /><path
       style="fill:none;stroke:#00ff00;stroke-width:5.5"
       d="m 1265.1724,10648.11 c 11.98,4.445 10.1949,1.05 13.6717,15.872 0.8042,3.428 0.8807,6.994 1.0517,10.511 0.1022,2.102 -0.074,4.21 -0.2336,6.307 -0.036,0.469 -0.47,1.822 -0.3506,1.367 3.9868,-15.19 10.1297,-37.503 17.2942,-29.327 5.4266,6.193 7.4039,23.109 9.8157,25.648 0.9732,1.024 2.4929,-1.332 3.7393,-1.997"
       id="path2098" /><path
       style="fill:none;stroke:#00ff00;stroke-width:5.5"
       d="m 1320.6776,10640.121 c -17.4633,20.282 26.2234,16.657 22.0853,33.742 -5.391,22.257 -35.4996,13.573 -20.9168,-5.046"
       id="path2100" /><path
       style="fill:none;stroke:#00ff00;stroke-width:5.5"
       d="m 1353.747,10665.559 c -7.0119,-18.923 -6.1416,-11.185 -6.6606,-22.39 6.4286,-16.969 -3.6797,-23.489 3.973,-36.369 m 0,0 c 5.6479,0.315 11.5706,-0.823 16.9437,0.946 14.6644,4.827 30.579,30.84 26.4088,46.145 -0.4933,1.81 -4.8118,12.943 -9.9325,13.455 -10.0314,1.002 -11.0527,-22.263 -4.9078,-26.384 9.1396,-6.13 26.8873,3.175 37.1593,1.472 6.4809,-1.075 19.1793,-11.119 8.5302,-17.134 -8.4256,-4.759 -18.5662,1.477 -21.1504,10.301 -7.112,24.285 35.8339,29.19 49.8963,26.068"
       id="path2102" /><path
       style="fill:none;stroke:#00ff00;stroke-width:5.5"
       d="m 1437.7644,10716.539 c -16.2702,-6.995 -10.9013,-17.921 -0.9348,-28.381 2.9272,-3.072 8.6597,-5.647 12.9707,-3.363 12.4874,6.615 -4.5566,41.052 -0.2337,19.34"
       id="path2104" /><path
       style="fill:none;stroke:#00ff00;stroke-width:5.5"
       d="m 1482.7529,10665.454 c 3.155,-3.014 12.4783,-5.885 9.465,-9.04 -14.3033,-14.977 -9.2323,30.811 -7.8291,34.162 1.3086,3.125 11.4423,14.163 8.764,10.721"
       id="path2106" /><path
       style="fill:none;stroke:#00ff00;stroke-width:5.5"
       d="m 1470.0158,10693.834 c 10.0521,-5.772 30.4395,-21.207 43.9369,-15.136"
       id="path2108" /><path
       style="fill:none;stroke:#ff5555;stroke-width:5.5"
       d="m 2136.3548,10457.058 c 1.6359,-3.083 7.9912,-7.614 4.9078,-9.25 -3.0833,-1.635 -4.6915,5.767 -4.9078,9.25 -0.5889,9.481 1.3088,18.966 2.5707,28.381 12.4171,92.641 125.4683,-28.58 54.4537,-54.133"
       id="path2112" /><path
       style="fill:none;stroke:#ff5555;stroke-width:5.5"
       d="m 2169.7748,10519.391 c 0.275,-21.119 0.2722,-42.421 2.1033,-63.489 0.2945,-3.389 0.9663,-6.734 1.5191,-10.091 0.071,-0.43 0.3339,-1.697 0.3506,-1.261 0.055,1.438 -0.1558,2.873 -0.2337,4.31"
       id="path2114" /><path
       style="fill:none;stroke:#ff5555;stroke-width:5.5"
       d="m 2185.3163,10547.141 c -7.0828,31.872 -10.7883,66.036 -7.9461,98.807 0.3058,3.527 1.8809,14.009 0.3506,14.926 -5.7694,3.46 -20.0346,-39.619 -21.3842,-43.727 -1.3024,-3.964 -2.4035,-7.992 -3.6223,-11.983 -0.2055,-0.673 -2.8339,-9.302 -2.9215,-9.145 -2.4831,4.468 2.0638,10.014 3.0383,15.031 1.7995,9.266 7.0482,53.374 14.1393,66.958 2.1706,4.158 5.1615,-2.114 11.4515,-10.091 7.6858,-9.747 23.0741,-34.16 38.4447,-34.582 2.2729,-0.06 1.0907,4.414 1.636,6.622"
       id="path2118" /><path
       style="fill:none;stroke:#ff5555;stroke-width:5.5"
       d="m 2132.6154,10758.631 c -11.8834,17.931 -21.0548,37.615 -29.6806,57.287 -1.2717,2.9 -0.6673,7.425 -3.5056,8.829 -0.9799,0.485 -2.0471,-7.385 -3.3888,-14.505"
       id="path2120" /><path
       style="fill:none;stroke:#ff5555;stroke-width:5.5"
       d="m 2088.3282,10758.525 c -0.818,-3.363 0.9097,-10.909 -2.4539,-10.091 -3.3637,0.818 0.5691,7.188 2.4539,10.091 52.8624,81.438 9.3057,3.706 38.3278,53.924 2.5488,4.41 4.7945,8.989 7.2448,13.455 0.5493,1.001 2.0842,4.035 1.7529,2.943 -0.793,-2.616 -2.1034,-5.046 -3.1551,-7.569"
       id="path2122" /><path
       style="fill:none;stroke:#ff5555;stroke-width:5.5"
       d="m 2156.2198,10738.869 c 12.9381,0.523 1.1818,-17.055 0.2338,-12.614 -0.8778,4.113 1.3897,8.735 -0.2338,12.614 -2.3094,5.518 -9.1691,8.491 -10.9842,14.191 -0.7614,2.39 2.0573,6.207 4.5572,5.991 12.592,-1.088 37.2331,-25.208 22.9033,-38.472 -5.5324,-5.121 -5.9022,3.911 -5.2584,6.097 2.1729,7.378 6.9592,12.739 11.919,18.29 11.347,12.698 4.9205,3.279 12.5034,15.872"
       id="path2124" /><path
       style="fill:none;stroke:#ff5555;stroke-width:5.5"
       d="m 2263.3741,10781.125 c 8.9439,-8.502 14.8419,-35.631 0,0 -6.4053,15.377 -10.4652,31.634 -16.1257,47.301 -11.702,32.389 -8.1096,22.309 -12.2696,2.103"
       id="path2126" /><path
       style="fill:none;stroke:#ff5555;stroke-width:5.5"
       d="m 2222.3587,10776.395 c 10.4398,9.66 20.5403,19.912 28.5121,31.744"
       id="path2128" /><path
       style="fill:none;stroke:#ff5555;stroke-width:5.5"
       d="m 1906.7384,10555.55 c -25.3702,-6.298 -0.2068,-17.082 1.0517,-12.298 1.0467,3.979 -0.7011,8.199 -1.0517,12.298 z"
       id="path2132" /><path
       style="fill:none;stroke:#ff5555;stroke-width:5.5"
       d="m 1904.2845,10580.988 c 5.247,15.65 3.1601,11.226 10.6336,26.173 4.2307,8.462 9.5428,17.625 10.1662,16.924 1.0681,-1.201 0.6233,-3.154 0.9349,-4.73"
       id="path2134" /><path
       style="fill:none;stroke:#ff5555;stroke-width:5.5"
       d="m 1932.2124,10578.57 c 1.1295,-3.048 6.437,-8.015 3.3887,-9.145 -3.0483,-1.129 -4.9581,6.298 -3.3887,9.145 21.3267,38.688 15.8656,2.048 18.2291,23.546 0.8049,7.321 1.017,-23.697 6.8943,-28.171 5.6164,-4.275 17.8337,26.831 18.5797,28.486"
       id="path2136" /><path
       style="fill:none;stroke:#ff5555;stroke-width:5.5"
       d="m 1980.8233,10563.329 c 2.8045,3.854 4.7143,8.556 8.4134,11.562 5.0714,4.122 22.5798,5.454 22.6695,15.452 0.1379,15.386 -26.6495,32.527 -18.2291,13.244 5.4532,-6.762 13.1784,-12.203 16.3595,-20.287 1.8948,-4.815 -1.9115,-10.189 -2.3371,-15.346 -0.2476,-3 0.6044,-11.749 0.9349,-15.242 0.058,-0.612 0.1362,-7.061 2.2202,-6.832 9.641,1.058 45.5758,38.037 28.9796,44.568 -4.9242,1.938 -15.9819,-9.14 -12.9707,-13.034 0.7415,-0.959 13.1836,-6.325 14.6066,-6.938 7.9071,-2.347 15.8087,-4.713 23.7212,-7.042 23.6064,-6.949 22.8016,-23.02 4.4403,-13.98 -10.7859,5.31 -22.4307,19.064 -3.5055,22.809 13.3012,2.633 27.6672,-0.128 40.8986,-1.892"
       id="path2138" /><path
       style="fill:none;stroke:#ff5555;stroke-width:5.5"
       d="m 1976.266,10666.656 c -18.2285,16.084 -28.8031,-15.6 -16.9437,-27.435 15.7769,-15.744 35.442,12.237 37.8604,25.227 1.457,7.827 -4.5598,15.861 -6.8943,4.941"
       id="path2140" /><path
       style="fill:none;stroke:#ff5555;stroke-width:5.5"
       d="m 2013.1916,10631.338 c -0.5064,4.274 -0.712,8.595 -1.5191,12.823 -1.5124,7.923 -5.4245,14.511 2.6876,20.603 5.9264,4.45 17.8132,6.681 15.3078,3.784"
       id="path2142" /><path
       style="fill:none;stroke:#ff5555;stroke-width:5.5"
       d="m 1996.5985,10663.607 c 12.8627,-11.505 32.6507,-14.701 48.3772,-7.463"
       id="path2144" /><path
       style="fill:none;stroke:#ff5555;stroke-width:5.5"
       d="m 2288.3059,10708.912 c 2.6876,5.571 6.4493,10.741 8.0628,16.713 1.5207,5.627 0.8834,11.626 1.1686,17.449 0.2212,4.516 0.2896,9.038 0.3505,13.559 0.2031,15.074 1.3229,-21.404 10.0494,-23.545 5.9201,-1.453 12.4428,0.283 18.1121,2.523 3.6985,1.461 6.5217,4.809 8.7641,8.093 13.1599,19.274 -2.7209,39.408 -24.3054,40.89 -6.0667,0.416 -23.4584,-6.265 -20.7999,-16.398 1.7165,-6.543 10.1272,-8.97 15.1908,-13.455"
       id="path2433" /><path
       style="fill:none;stroke:#00ff00;stroke-width:5.5"
       d="m 632.23051,11109.816 c 53.38278,9.832 106.72629,-6.766 160.08876,-7.883"
       id="path2435" /><path
       style="fill:none;stroke:#00ff00;stroke-width:5.5"
       d="m 1694.1702,10767.57 c 1.2464,4.24 2.9618,8.369 3.7392,12.719 1.1777,6.59 1.4353,13.311 2.1034,19.972 4.043,40.306 -3.5161,-8.168 9.1146,-12.614 12.9752,-4.567 23.6145,22.997 18.1122,33.426 -7.9148,15.002 -27.4108,10.634 -32.2515,-4.73 -1.0237,-3.249 0.4675,-6.797 0.7012,-10.196"
       id="path2439" /></g></svg>
