<?xml version="1.0" encoding="UTF-8" standalone="no"?>
<!-- Created with Inkscape (http://www.inkscape.org/) -->

<svg
   width="1471.118mm"
   height="540.95618mm"
   viewBox="0 0 1471.118 540.95619"
   version="1.1"
   id="svg12"
   inkscape:version="1.2.1 (9c6d41e410, 2022-07-14, custom)"
   sodipodi:docname="binomialtherom.svg"
   xml:space="preserve"
   xmlns:inkscape="http://www.inkscape.org/namespaces/inkscape"
   xmlns:sodipodi="http://sodipodi.sourceforge.net/DTD/sodipodi-0.dtd"
   xmlns="http://www.w3.org/2000/svg"
   xmlns:svg="http://www.w3.org/2000/svg"><sodipodi:namedview
     id="namedview14"
     pagecolor="#505050"
     bordercolor="#eeeeee"
     borderopacity="1"
     inkscape:showpageshadow="0"
     inkscape:pageopacity="0"
     inkscape:pagecheckerboard="0"
     inkscape:deskcolor="#505050"
     inkscape:document-units="mm"
     showgrid="true"
     inkscape:zoom="0.12176488"
     inkscape:cx="2816.9042"
     inkscape:cy="1897.0987"
     inkscape:window-width="1366"
     inkscape:window-height="746"
     inkscape:window-x="0"
     inkscape:window-y="0"
     inkscape:window-maximized="1"
     inkscape:current-layer="layer1"
     inkscape:lockguides="false"><inkscape:grid
       type="xygrid"
       id="grid344"
       color="#969696"
       opacity="0.39215686"
       empcolor="#000000"
       empopacity="0.17254902"
       dotted="false"
       originx="-958.85188"
       originy="-9901.355" /></sodipodi:namedview><defs
     id="defs9" /><g
     inkscape:label="Layer 1"
     inkscape:groupmode="layer"
     id="layer1"
     transform="translate(-1063.8519,-10049.855)"><path
       style="fill:none;stroke:#ffffff;stroke-width:5.5"
       d="m 1111.4101,10264.151 c -5.0637,2.487 -11.7735,2.974 -15.1909,7.463 -32.5518,42.757 -41.2354,123.778 -10.9842,169.654 5.2208,7.917 15.7838,17.853 25.2403,20.602 1.8308,0.532 3.3498,-1.822 5.0247,-2.733"
       id="path1071" /><path
       style="fill:none;stroke:#ffffff;stroke-width:5.5"
       d="m 1183.5085,10332.475 c 0.5453,-3.784 5.42,-10.807 1.6359,-11.353 -3.7841,-0.545 -0.218,7.802 -1.6359,11.353 -3.8555,9.653 -9.7987,18.356 -14.0224,27.855 -2.9892,6.722 -10.2717,37.345 -15.6583,41.31 -1.3105,0.964 -1.6532,-2.325 -3.7393,-13.35"
       id="path1073" /><path
       style="fill:none;stroke:#ffffff;stroke-width:5.5"
       d="m 1141.7919,10333.841 c 15.6354,9.72 64.2973,48.94 58.7771,69.796"
       id="path1075" /><path
       style="fill:none;stroke:#ffffff;stroke-width:5.5"
       d="m 1257.126,10323.961 c -0.1214,9.787 11.3741,58.543 5.492,63.593 -1.0638,0.914 -2.8044,0 -4.2066,0"
       id="path1077" /><path
       style="fill:none;stroke:#ffffff;stroke-width:5.5"
       d="m 1241.0002,10370.316 c 2.5318,-3.679 4.0938,-8.265 7.5955,-11.037 7.1964,-5.697 33.3004,-14.478 40.1974,-6.412"
       id="path1079" /><path
       style="fill:none;stroke:#ffffff;stroke-width:5.5"
       d="m 1362.1769,10322.384 c -5.0406,7.313 -13.4002,54.692 -19.9819,57.182 -2.2814,0.863 -3.6614,-3.224 -5.4921,-4.835"
       id="path1081" /><path
       style="fill:none;stroke:#ffffff;stroke-width:5.5"
       d="m 1314.7345,10331.739 c 10.0918,3.95 25.7446,7.806 29.0965,19.867"
       id="path1083" /><path
       style="fill:none;stroke:#ffffff;stroke-width:5.5"
       d="m 1369.188,10239.554 c 22.6365,18.573 34.7936,47.055 42.8852,74.946 18.6664,64.342 0.1384,114.005 -33.7706,168.077"
       id="path1085" /><path
       style="fill:none;stroke:#ffffff;stroke-width:5.5"
       d="m 1450.6347,10251.222 c -7.2416,-11.195 9.3069,-70.39 19.3976,-65.486 10.5802,5.141 17.7137,45.627 18.3459,57.287"
       id="path1087" /><path
       style="fill:none;stroke:#ffffff;stroke-width:5.5"
       d="m 1567.0204,10351.606 c 2.6675,-6.355 71.4018,-6.371 43.0019,-1.262"
       id="path1089" /><path
       style="fill:none;stroke:#ffffff;stroke-width:5.5"
       d="m 1561.5283,10378.199 c 18.3928,12.469 39.1041,0.383 58.5434,3.469"
       id="path1091" /><path
       style="fill:none;stroke:#ffffff;stroke-width:5.5"
       d="m 1728.9788,10182.792 c -0.5843,5.081 -1.251,10.153 -1.7528,15.242 -0.6279,6.369 -1.0839,12.754 -1.6359,19.131 -0.1881,2.173 -0.4209,4.342 -0.5843,6.517 -0.031,0.419 -0.109,1.667 0,1.261 2.6219,-9.77 -1.2035,-18.502 -0.2337,-28.171 0.4856,-4.842 0.9086,-10.401 4.2067,-13.98 12.501,-13.564 31.6918,-12.48 47.9098,-14.4 5.5593,-0.659 11.1406,-1.116 16.71,-1.682 39.099,-3.976 25.4487,-16.102 25.9413,27.33 0.076,6.714 3.1142,16.642 2.1034,22.704"
       id="path1093" /><path
       style="fill:none;stroke:#ffffff;stroke-width:5.5"
       d="m 1770.5785,10385.767 c -0.4674,-3.048 1.6461,-9.612 -1.4022,-9.144 -3.0483,0.467 3.8414,7.257 1.4022,9.144 -5.1248,3.965 -13.489,0.897 -18.9301,4.415 -6.9326,4.483 -17.9463,31.107 -2.2203,33.532 13.3615,2.06 41.9046,-9.236 42.3008,-25.753 0.1558,-6.496 -5.3628,-11.944 -11.3348,-13.455 -3.198,-0.809 -6.5441,0.838 -9.8156,1.261 -7.5569,0.979 -15.1512,1.703 -22.6695,2.944 -1.575,0.259 -5.4519,2.793 -4.5573,1.471 2.6872,-3.971 5.7061,-7.71 8.4135,-11.667"
       id="path1095" /><path
       style="fill:none;stroke:#ffffff;stroke-width:5.5"
       d="m 1765.437,10351.711 c -0.8069,27.201 -3.4488,54.445 -6.7775,81.463 -1.1322,9.189 -3.9897,18.288 -3.6225,27.54 0.069,1.738 0.6679,-2.113 2.1034,-10.722"
       id="path1097" /><path
       style="fill:none;stroke:#ffffff;stroke-width:5.5"
       d="m 1751.5314,10268.565 c -0.2984,-6.877 13.0278,-48.025 25.1235,-34.687 2.5178,2.776 4.3731,6.121 6.0763,9.46 0.9303,1.824 1.2835,3.894 1.7529,5.886 1.205,5.116 1.5724,14.226 0.1168,12.404 -5.977,-7.481 -10.2292,-24.239 -23.4875,-17.239 -3.698,1.953 -11.0801,9.025 -11.3348,13.77 -0.1885,3.513 -0.1405,13.371 1.7528,10.406 3.7304,-5.841 2.287,-13.738 4.5573,-20.287 12.6244,-36.413 24.9925,-5.41 30.8492,11.353"
       id="path1099" /><path
       style="fill:none;stroke:#ffffff;stroke-width:5.5"
       d="m 1721.0328,10452.515 c 0.5367,12.409 -0.8835,24.754 -2.6877,37 -0.2097,1.423 -1.177,4.592 0.2337,4.31 4.7877,-0.957 8.9952,-3.854 13.6719,-5.256 14.6277,-4.386 29.6694,-6.35 44.8716,-7.463 18.7933,-1.376 37.6957,-0.117 56.44,1.156 1.5156,0.103 3.9601,1.397 4.5572,0 0.071,-0.165 -8.1502,-26.216 -9.3482,-30.167 -1.68,-5.542 -5.212,-19.208 -9.2314,-22.495"
       id="path1101" /><path
       style="fill:none;stroke:#ffffff;stroke-width:5.5"
       d="m 1780.2773,10533.663 c -6.1216,17.456 0.4667,36.375 -2.337,54.028 -0.2533,1.596 -2.3003,-2.283 -3.2719,-3.573"
       id="path1103" /><path
       style="fill:none;stroke:#ffffff;stroke-width:5.5"
       d="m 1757.6078,10562.464 c 9.4247,-2.493 34.2517,-14.175 42.4176,-5.256"
       id="path1105" /><path
       style="fill:none;stroke:#ffffff;stroke-width:5.5"
       d="m 1735.4057,10063.803 c 0.2025,-8.766 4.5102,-20.092 0,0 z"
       id="path1107" /><path
       style="fill:none;stroke:#ffffff;stroke-width:5.5"
       d="m 1743.5854,10112.787 c -1.4123,2.216 2.6242,42.08 0,33.426"
       id="path1109" /><path
       style="fill:none;stroke:#ffffff;stroke-width:5.5"
       d="m 1945.5076,10178.903 c -34.7763,65.082 -35.3627,149.005 3.3888,212.646 12.1314,19.923 24.3856,31.209 40.0805,47.721"
       id="path1111" /><path
       style="fill:none;stroke:#ffffff;stroke-width:5.5"
       d="m 2001.0705,10215.678 c -32.1681,48.834 -38.1866,94.361 0.2336,141.904 3.7897,4.69 22.3676,21.005 17.1775,28.591"
       id="path1123" /><path
       style="fill:none;stroke:#ffffff;stroke-width:5.5"
       d="m 2041.151,10254.57 c 1.0128,-5.22 1.6666,-10.523 3.0383,-15.662 3.3509,-12.551 16.8751,-49.061 31.0828,-22.179 5.5281,10.46 3.6338,27.03 9.4652,34.898"
       id="path1133" /><path
       style="fill:none;stroke:#ffffff;stroke-width:5.5"
       d="m 2064.288,10303.238 c -13.1086,-16.08 -1.4973,-30.711 0,0 z"
       id="path1135" /><path
       style="fill:none;stroke:#ffffff;stroke-width:5.5"
       d="m 2067.7936,10335.508 c 0.4037,-3.056 9.3021,57.977 7.128,43.307"
       id="path1137" /><path
       style="fill:none;stroke:#ffffff;stroke-width:5.5"
       d="m 2106.2383,10202.854 c 3.5055,3.539 8.0787,6.273 10.5167,10.617 21.6299,38.537 19.4265,110.429 9.8156,151.89 -0.2108,0.909 -6.2529,26.975 -11.1009,28.065"
       id="path1139" /><path
       style="fill:none;stroke:#ffffff;stroke-width:5.5"
       d="m 2229.0509,10245.11 c -9.0847,22.78 -19.4779,45.003 -28.629,67.799 -2.3716,5.907 -4.4305,11.945 -7.0113,17.764 -0.3591,0.81 -1.2377,2.718 -1.7527,1.997 -1.2721,-1.78 -0.9348,-4.275 -1.4023,-6.412"
       id="path1141" /><path
       style="fill:none;stroke:#ffffff;stroke-width:5.5"
       d="m 2180.2062,10253.94 c 22.0854,28.361 42.1197,58.598 58.5435,90.608"
       id="path1143" /><path
       style="fill:none;stroke:#ffffff;stroke-width:5.5"
       d="m 2266.6775,10175.945 c -13.2639,-20.126 3.242,-14.999 2.9213,-10.511 -0.2592,3.627 -1.9475,7.007 -2.9213,10.511 z"
       id="path1145" /><path
       style="fill:none;stroke:#ffffff;stroke-width:5.5"
       d="m 2263.8731,10204.851 c 0.03,11.937 0.01,24.466 3.0381,36.055"
       id="path1147" /><path
       style="fill:none;stroke:#ffffff;stroke-width:5.5"
       d="m 2358.0567,10269.602 c -3.6717,21.901 -21.2759,69.734 -39.3795,82.514 -1.7843,1.26 -3.6613,-2.382 -5.492,-3.574"
       id="path1149" /><path
       style="fill:none;stroke:#ffffff;stroke-width:5.5"
       d="m 2299.5133,10283.056 c 8.7314,9.009 17.8576,18.336 27.811,26.069"
       id="path1151" /><path
       style="fill:none;stroke:#ffffff;stroke-width:5.5"
       d="m 2386.3351,10196.022 c -1.5191,-3.679 -4.4809,-7.057 -4.5572,-11.037 -0.1998,-10.427 14.9863,-11.719 11.8022,-2.207 -1.5975,4.772 -4.83,8.829 -7.245,13.244 z"
       id="path1153" /><path
       style="fill:none;stroke:#ffffff;stroke-width:5.5"
       d="m 2389.0227,10207.164 c -0.9288,18.091 5.3482,34.829 8.7641,52.242 0.3479,1.773 1.4348,7.06 0.818,5.361 -0.7482,-2.061 -1.2465,-4.205 -1.8698,-6.307"
       id="path1155" /><path
       style="fill:none;stroke:#ffffff;stroke-width:5.5"
       d="m 2423.2607,10214.312 c -2.3001,-1.924 26.8286,-2.859 18.6966,-3.469"
       id="path1157" /><path
       style="fill:none;stroke:#ffffff;stroke-width:5.5"
       d="m 2448.7347,10181.832 c 10.3658,12.669 13.3736,25.869 12.5032,41.52"
       id="path1159" /><path
       style="fill:none;stroke:#ffffff;stroke-width:5.5"
       d="m 2488.4648,10122.232 c 18.176,22.639 27.0927,53.406 33.6537,81.148 14.7208,62.244 16.3696,127.354 -15.6583,184.79 -6.1042,10.947 -13.5428,21.138 -21.2673,31.009 -12.8067,16.365 -9.0422,17.786 -16.71,12.088"
       id="path1161" /></g></svg>
