<?xml version="1.0" encoding="UTF-8" standalone="no"?>
<!-- Created with Inkscape (http://www.inkscape.org/) -->

<svg
   width="1420.0532mm"
   height="248.32689mm"
   viewBox="0 0 1420.0532 248.32689"
   version="1.1"
   id="svg12"
   inkscape:version="1.2.1 (9c6d41e410, 2022-07-14, custom)"
   sodipodi:docname="binomial_therom_proof_step_2.svg"
   xml:space="preserve"
   xmlns:inkscape="http://www.inkscape.org/namespaces/inkscape"
   xmlns:sodipodi="http://sodipodi.sourceforge.net/DTD/sodipodi-0.dtd"
   xmlns="http://www.w3.org/2000/svg"
   xmlns:svg="http://www.w3.org/2000/svg"><sodipodi:namedview
     id="namedview14"
     pagecolor="#505050"
     bordercolor="#eeeeee"
     borderopacity="1"
     inkscape:showpageshadow="0"
     inkscape:pageopacity="0"
     inkscape:pagecheckerboard="0"
     inkscape:deskcolor="#505050"
     inkscape:document-units="mm"
     showgrid="true"
     inkscape:zoom="0.12176488"
     inkscape:cx="2200.963"
     inkscape:cy="1519.3215"
     inkscape:window-width="1366"
     inkscape:window-height="746"
     inkscape:window-x="0"
     inkscape:window-y="0"
     inkscape:window-maximized="1"
     inkscape:current-layer="layer1"
     inkscape:lockguides="false"><inkscape:grid
       type="xygrid"
       id="grid344"
       color="#969696"
       opacity="0.39215686"
       empcolor="#000000"
       empopacity="0.17254902"
       dotted="false"
       originx="-853.53893"
       originy="-10026.403" /></sodipodi:namedview><defs
     id="defs9" /><g
     inkscape:label="Layer 1"
     inkscape:groupmode="layer"
     id="layer1"
     transform="translate(-958.53896,-10174.903)"><path
       style="fill:none;stroke:#ffffff;stroke-width:5.5"
       d="m 992.80417,10290.849 c -4.75202,4.485 -10.49396,8.113 -14.25607,13.455 -21.13875,30.019 -31.7596,101.12 21.9684,101.12"
       id="path1015" /><path
       style="fill:none;stroke:#00ff00;stroke-width:5.5"
       d="m 1058.1251,10331.213 c -6.906,14.636 -16.046,27.979 -23.9549,42.046 -1.1607,2.064 -2.2255,4.182 -3.2719,6.307 -0.3178,0.645 -0.8744,2.714 -0.818,1.997 2.1444,-16.975 1.4622,-9.222 2.3371,-23.23"
       id="path1017" /><path
       style="fill:none;stroke:#00ff00;stroke-width:5.5"
       d="m 1032.4174,10329.216 c -1.1296,-3.468 -2.2592,-6.937 -3.3888,-10.406 -0.1947,-0.386 -0.7179,-1.567 -0.5842,-1.156 7.3745,22.646 3.7776,10.23 23.838,43.202 4.7249,7.765 8.9515,17.512 14.6067,24.911"
       id="path1019" /><path
       style="fill:none;stroke:#ffffff;stroke-width:5.5"
       d="m 1092.5967,10327.64 c 6.509,14.821 12.3706,32.343 8.2966,48.667"
       id="path1021" /><path
       style="fill:none;stroke:#ffffff;stroke-width:5.5"
       d="m 1085.5856,10362.642 c 10.1825,-4.7 25.8834,-14.436 38.2109,-8.199"
       id="path1023" /><path
       style="fill:none;stroke:#ff5555;stroke-width:5.5"
       d="m 1162.0075,10325.853 c 1.1685,5.571 3.6532,11.022 3.5056,16.713 -0.1334,5.144 -2.8911,9.878 -4.3236,14.821 -1.6623,5.736 -2.6846,24.439 -10.3999,14.295"
       id="path1025" /><path
       style="fill:none;stroke:#ff5555;stroke-width:5.5"
       d="m 1135.2481,10340.043 c 6.8166,2.4 22.5611,6.968 25.0066,15.767"
       id="path1027" /><path
       style="fill:none;stroke:#ffffff;stroke-width:5.5"
       d="m 1166.9153,10295.264 c 2.9603,-1.506 5.6661,-5.355 8.8809,-4.52 4.8288,1.256 8.0591,6.013 11.3347,9.776 18.5555,21.319 26.0934,48.733 21.1504,76.523 -0.4472,2.514 -10.6751,37.312 -13.555,21.338"
       id="path1029" /><path
       style="fill:none;stroke:#ffffff;stroke-width:5.5"
       d="m 1219.0319,10282.756 c 0.4284,-5.816 0.3273,-11.696 1.2853,-17.449 5.2844,-31.734 22.9572,11.349 18.9302,17.869"
       id="path1031" /><path
       style="fill:none;stroke:#ffffff;stroke-width:5.5"
       d="m 1297.7909,10321.017 c 5.4468,5.775 18.3747,-5.169 25.1233,-0.21 1.4485,1.064 -0.3895,3.574 -0.5842,5.361"
       id="path1033" /><path
       style="fill:none;stroke:#ffffff;stroke-width:5.5"
       d="m 1294.8695,10343.617 c 12.6809,6.998 25.9387,0.297 39.3795,2.312"
       id="path1035" /><path
       style="fill:none;stroke:#00ff00;stroke-width:5.5"
       d="m 1488.3782,10309.244 c -2.337,4.03 -4.9068,7.933 -7.0112,12.089 -5.133,10.136 -9.5388,20.629 -14.6066,30.798 -4.0012,8.029 -6.5885,13.927 -7.2449,13.139 -1.6132,-1.934 -1.6359,-4.765 -2.4539,-7.148"
       id="path1037" /><path
       style="fill:none;stroke:#00ff00;stroke-width:5.5"
       d="m 1449.9335,10326.588 c 15.6934,14.06 35.2763,27.872 43.9368,46.881"
       id="path1039" /><path
       style="fill:none;stroke:#00ff00;stroke-width:5.5"
       d="m 1540.8453,10268.46 c -4.4404,5.746 -10.2664,10.651 -13.3212,17.239 -13.348,28.787 -7.8915,71.345 8.9976,97.02 8.468,12.873 20.4438,22.047 29.2133,34.478"
       id="path1041" /><path
       style="fill:none;stroke:#00ff00;stroke-width:5.5"
       d="m 1596.9347,10327.64 c -12.5735,16.519 -6.7639,6.5 -14.4897,27.014 -1.4811,3.932 -2.51,14.636 -5.2584,11.457 -0.2083,-0.241 -3.0717,-7.158 -3.5056,-8.199"
       id="path1043" /><path
       style="fill:none;stroke:#00ff00;stroke-width:5.5"
       d="m 1564.099,10335.418 c 18.957,2.072 24.3315,23.097 37.8605,32.901"
       id="path1045" /><path
       style="fill:none;stroke:#00ff00;stroke-width:5.5"
       d="m 1614.2291,10327.324 c 2.9785,7.098 23.3461,26.729 12.2695,35.318 1.2605,-30.226 7.6976,-14.203 24.4224,-23.23"
       id="path1047" /><path
       style="fill:none;stroke:#00ff00;stroke-width:5.5"
       d="m 1671.7208,10316.287 c 1.8307,3.364 4.9063,6.307 5.4921,10.091 1.0945,7.071 -2.0917,30.343 -8.6472,35.423 -1.1555,0.896 -2.8823,-0.49 -4.3235,-0.735"
       id="path1049" /><path
       style="fill:none;stroke:#00ff00;stroke-width:5.5"
       d="m 1653.1412,10332.054 c 14.5965,3.462 11.0488,1.98 21.7346,9.881"
       id="path1051" /><path
       style="fill:none;stroke:#00ff00;stroke-width:5.5"
       d="m 1672.1882,10284.017 c 3.4277,-0.911 6.8159,-3.48 10.2831,-2.733 28.7143,6.185 38.6376,45.713 34.7053,70.006 -1.3715,8.473 -4.2084,16.765 -7.946,24.492 -7.3933,15.283 -6.5081,15.491 -10.7505,10.826"
       id="path1053" /><path
       style="fill:none;stroke:#00ff00;stroke-width:5.5"
       d="m 1741.7158,10256.162 c 1.8841,-4.536 6.1943,-31.016 10.6336,-32.48 4.217,-1.391 11.1601,37.409 14.8403,28.801"
       id="path1055" /><path
       style="fill:none;stroke:#00ff00;stroke-width:5.5"
       d="m 1780.0436,10226.73 c 5.5979,2.172 39.3977,15.473 32.602,5.045"
       id="path1057" /><path
       style="fill:none;stroke:#00ff00;stroke-width:5.5"
       d="m 1815.2164,10190.15 c 13.3063,19.674 17.033,44.422 15.5415,67.904"
       id="path1059" /><path
       style="fill:none;stroke:#ffffff;stroke-width:5.5"
       d="m 1896.1956,10299.889 c -5.6128,18.301 5.4593,46.401 2.9214,60.861"
       id="path1061" /><path
       style="fill:none;stroke:#ffffff;stroke-width:5.5"
       d="m 1888.717,10342.986 c -3.0382,-0.981 -8.1335,-5.981 -9.1145,-2.943 -0.9811,3.038 5.9648,3.465 9.1145,2.943 13.4979,-2.237 22.6411,-13.825 36.6919,-5.781"
       id="path1063" /><path
       style="fill:none;stroke:#ff5555;stroke-width:5.5"
       d="m 2018.6577,10313.554 c -7.9525,10.266 -13.6701,45.274 -23.4875,52.872 -1.4758,1.143 -2.4081,-2.914 -3.155,-4.625"
       id="path1065" /><path
       style="fill:none;stroke:#ff5555;stroke-width:5.5"
       d="m 1974.3703,10325.012 c 12.9135,0.439 19.8676,8.673 25.5909,19.13"
       id="path1067" /><path
       style="fill:none;stroke:#ff5555;stroke-width:5.5"
       d="m 2092.6256,10269.196 c -23.8518,23.34 -35.4215,63.098 -15.3076,92.816 9.2065,13.602 25.2662,24.014 39.0288,32.585"
       id="path1069" /><path
       style="fill:none;stroke:#ff5555;stroke-width:5.5"
       d="m 2138.5489,10302.202 c 0.675,16.742 -6.9148,31.476 -11.3347,47.196 -1.0759,3.827 -2.0709,7.679 -2.9212,11.563 -0.6698,3.058 0.7644,7.239 -1.6361,9.25 -1.6987,1.422 -1.1685,-4.275 -1.7527,-6.412"
       id="path1081" /><path
       style="fill:none;stroke:#ff5555;stroke-width:5.5"
       d="m 2112.6076,10315.762 c 17.1844,12.85 27.8441,27.727 38.912,45.199 0.4907,0.774 4.3467,10.948 5.9596,6.307"
       id="path1083" /><path
       style="fill:none;stroke:#ff5555;stroke-width:5.5"
       d="m 2179.5645,10307.563 c 1.6484,5.148 8.8408,44.537 3.973,47.722"
       id="path1085" /><path
       style="fill:none;stroke:#ff5555;stroke-width:5.5"
       d="m 2170.9173,10341.304 c 13.4462,-10.254 19.9421,-4.533 33.1862,-8.199"
       id="path1087" /><path
       style="fill:none;stroke:#ff5555;stroke-width:5.5"
       d="m 2236.8224,10312.083 c 9.5988,6.178 0.1261,46.404 -10.1661,42.781"
       id="path1089" /><path
       style="fill:none;stroke:#ff5555;stroke-width:5.5"
       d="m 2210.8811,10322.699 c 2.7109,0.598 26.3638,7.671 18.6965,16.293"
       id="path1091" /><path
       style="fill:none;stroke:#ff5555;stroke-width:5.5"
       d="m 2238.4584,10261.312 c 4.2457,1.612 9.6875,1.471 12.7369,4.836 23.6028,26.046 30.8633,59.953 23.3707,93.341 -2.6507,11.812 -1.9986,10.955 -7.7123,15.031"
       id="path1093" /><path
       style="fill:none;stroke:#ff5555;stroke-width:5.5"
       d="m 2278.6558,10243.653 c -0.1319,-11.062 -1.688,-27.716 9.6989,-34.582 8.0711,-4.867 15.1076,32.888 15.3077,35.949"
       id="path1095" /><path
       style="fill:none;stroke:#ff5555;stroke-width:5.5"
       d="m 2328.4353,10215.378 c 1.178,4.586 27.8199,1.704 24.8897,-1.262"
       id="path1097" /><path
       style="fill:none;stroke:#ff5555;stroke-width:5.5"
       d="m 2361.9722,10175.855 c 8.3001,22.49 6.2287,47.99 14.0223,70.426"
       id="path1099" /><path
       style="fill:none;stroke:#00ff00;stroke-width:5.5"
       d="m 1677.7971,10270.773 c 23.4593,31.545 50.4603,66.72 35.7571,108.162 -5.638,15.891 -17.9337,27.551 -27.1099,41.31 -0.8178,1.226 1.2487,-2.689 2.1034,-3.889 2.2793,-3.202 4.6857,-6.315 6.8943,-9.566 7.641,-11.247 17.2654,-23.876 17.4111,-38.156 0.2283,-22.393 -8.1938,-72.095 -21.2673,-89.557 -3.2156,-4.295 -10.7142,-3.907 -13.7887,-8.304 -3.198,-4.574 1.4482,-18.028 -3.8562,-16.293 -1.357,0.444 0.4203,2.833 0.8181,4.205"
       id="path1105" /></g></svg>
