<?xml version="1.0" encoding="UTF-8" standalone="no"?>
<!-- Created with Inkscape (http://www.inkscape.org/) -->

<svg
   width="145.3403mm"
   height="197.45322mm"
   viewBox="0 0 145.3403 197.45322"
   version="1.1"
   id="svg12"
   inkscape:version="1.2.1 (9c6d41e410, 2022-07-14, custom)"
   sodipodi:docname="binomialTree.svg"
   xml:space="preserve"
   xmlns:inkscape="http://www.inkscape.org/namespaces/inkscape"
   xmlns:sodipodi="http://sodipodi.sourceforge.net/DTD/sodipodi-0.dtd"
   xmlns="http://www.w3.org/2000/svg"
   xmlns:svg="http://www.w3.org/2000/svg"><sodipodi:namedview
     id="namedview14"
     pagecolor="#000000"
     bordercolor="#ffffff"
     borderopacity="1"
     inkscape:showpageshadow="0"
     inkscape:pageopacity="0"
     inkscape:pagecheckerboard="0"
     inkscape:deskcolor="#000000"
     inkscape:document-units="mm"
     showgrid="true"
     inkscape:zoom="0.91285872"
     inkscape:cx="362.59718"
     inkscape:cy="498.43419"
     inkscape:window-width="1366"
     inkscape:window-height="746"
     inkscape:window-x="0"
     inkscape:window-y="0"
     inkscape:window-maximized="1"
     inkscape:current-layer="layer1"
     inkscape:lockguides="true" /><defs
     id="defs9"><rect
       x="587.26367"
       y="362.45731"
       width="66.575974"
       height="20.973427"
       id="rect1884" /></defs><g
     inkscape:label="Layer 1"
     inkscape:groupmode="layer"
     id="layer1"
     transform="translate(-2686.2908,-21734.554)"><path
       style="fill:none;stroke:#00ffff;stroke-width:1"
       d="m 2703.5511,21749.63 c 1.1697,3.68 1.4624,7.628 1.6521,11.469"
       id="path251" /><path
       style="fill:none;stroke:#00ffff;stroke-width:1"
       d="m 2704.1589,21751.131 c -1.0348,-3.818 3.0937,-3.82 4.4579,-0.449 0.4786,1.183 0.2027,2.399 -0.1246,3.561 -0.1169,0.415 -0.3014,0.809 -0.4987,1.192 -0.041,0.08 -0.2247,0.253 -0.2027,0.168 1.0009,-3.872 4.9202,-0.554 4.676,2.804 -0.3175,4.366 -4.4813,6.447 -6.2815,1.641"
       id="path253" /><path
       style="fill:none;stroke:#00ffff;stroke-width:1"
       d="m 2718.499,21758.674 c -0.395,0.304 -0.9118,0.494 -1.1848,0.911 -0.8845,1.352 -1.3713,4.438 -0.016,5.693 2.3202,2.146 6.9535,-2.475 6.6247,-5.118 -0.3514,-2.822 -3.4394,-3.011 -5.4243,-1.486 -0.091,0.07 -2.1381,4.781 -0.9509,2.439"
       id="path255" /><path
       style="fill:none;stroke:#00ffff;stroke-width:1"
       d="m 2719.247,21754.453 c -0.052,-0.444 0.2881,-1.384 -0.1559,-1.331 -0.4439,0.05 0.1212,0.886 0.1559,1.331 0.049,0.626 0.042,1.254 0.094,1.879 0.2871,3.476 0.4766,6.953 0.7327,10.432 0.029,0.401 0.2336,3.394 0.6546,3.758 0.1801,0.155 0.2701,-0.393 0.405,-0.589"
       id="path257" /><path
       style="fill:none;stroke:#00ffff;stroke-width:1"
       d="m 2768.782,21736.969 c -0.3376,-0.495 -0.5876,-1.063 -1.0131,-1.486 -2.4347,-2.418 -6.596,6.119 -6.9673,7.501 -0.6924,2.579 -0.8485,6.015 0.5456,8.427 0.9859,1.706 2.2233,2.804 4.1616,3.337 9.7433,2.677 19.8919,-16.909 11.098,-18.816 -4.5093,-0.978 -8.05,2.07 -12.2357,1.864"
       id="path259" /><path
       style="fill:none;stroke:#00ffff;stroke-width:1"
       d="m 2768.2364,21747.05 c -0.2881,-0.468 0.5385,-5.784 1.7304,-4.627 1.1218,1.09 1.1097,2.868 2.4625,3.842"
       id="path261" /><path
       style="fill:none;stroke:#00ffff;stroke-width:1"
       d="m 2691.2374,21829.382 c -0.1299,0.317 -0.052,0.893 -0.3897,0.953 -0.3017,0.06 -0.3794,-0.496 -0.4832,-0.785 -1.0435,-2.914 -0.9448,-6.054 -1.6676,-9.03 -0.093,-1.07 -0.3416,-2.138 -0.2806,-3.21 0.1334,-2.349 3.5244,-2.842 5.128,-1.935 2.4227,1.369 1.046,3.901 -0.062,5.636 -0.5323,0.834 -1.4982,1.482 -1.5743,1.276 -0.2263,-0.61 0.7806,-1.167 1.4028,-1.36 1.9106,-0.59 5.1375,1.781 5.5645,3.576 0.1839,0.773 0.3197,1.663 -0.015,2.383 -0.3768,0.81 -2.4063,3.583 -3.5383,3.155 -0.6551,-0.248 -1.091,-0.879 -1.6366,-1.318"
       id="path263" /><path
       style="fill:none;stroke:#00ffff;stroke-width:1"
       d="m 2703.5667,21826.732 c -0.1458,2.028 -0.8387,6.383 0.9194,7.866"
       id="path265" /><path
       style="fill:none;stroke:#00ffff;stroke-width:1"
       d="m 2768.1899,21781.444 c -1.261,1.755 0.7382,-1.573 0.187,-1.669 -0.934,-0.162 0.1262,1.183 -0.187,1.669 -0.6583,1.02 -2.0246,1.422 -2.7279,2.412 -1.9251,2.708 -3.7785,11.513 1.2782,12.366 1.9304,0.326 4.1368,-0.852 5.5023,-2.019 3.687,-3.152 6.4913,-7.407 5.5176,-12.465 -0.716,-3.719 -5.0104,-4.245 -7.8245,-2.411 -0.7665,0.499 -0.9578,1.653 -1.7457,2.117 -2.7377,1.613 -2.036,-0.718 -2.3694,0.631"
       id="path267" /><path
       style="fill:none;stroke:#00ffff;stroke-width:1"
       d="m 2769.9356,21791.525 c 0.2807,-0.609 1.1964,-2.647 1.6208,-3.407 0.8525,-1.525 1.3108,-2.093 1.4497,-1.851 0.4537,0.789 -0.2315,1.932 0.4365,2.79"
       id="path269" /><path
       style="fill:none;stroke:#00ffff;stroke-width:1"
       d="m 2741.1778,21814.702 c -0.4519,0.05 -0.9232,0.01 -1.356,0.154 -3.7063,1.197 -7.0633,9.037 -7.3883,12.535 -0.3354,3.613 0.049,8.697 3.8032,10.487 4.8461,2.311 15.6458,-4.516 17.4262,-9.408 1.7989,-4.944 -2.4976,-12.454 -7.7467,-13.123 -2.527,-0.323 -5.5452,0.774 -7.5285,2.201"
       id="path271" /><path
       style="fill:none;stroke:#00ffff;stroke-width:1"
       d="m 2739.1669,21828.919 c 0.01,0.477 0.053,0.955 0.016,1.43 -0.03,0.384 -0.385,2.382 -0.3739,3.071 0.055,3.425 4.8821,-3.249 6.64,-2.174"
       id="path273" /><path
       style="fill:none;stroke:#00ffff;stroke-width:1"
       d="m 2765.6647,21793.614 c -3.5303,6.951 -7.1403,13.906 -10.8328,20.793 -0.078,0.146 -2.1249,3.172 -1.6677,3.926"
       id="path275" /><path
       style="fill:none;stroke:#00ffff;stroke-width:1"
       d="m 2784.6962,21782.019 c 0.2402,2.319 -0.8049,8.031 0.795,9.59"
       id="path277" /><path
       style="fill:none;stroke:#00ffff;stroke-width:1"
       d="m 2785.3822,21784.655 c -0.7961,-1.656 1.2788,-4.479 3.0705,-3.197 1.5216,1.088 0.7917,3.03 0.2961,4.403 -0.108,0.298 -0.6684,0.953 -0.3585,0.883 0.4471,-0.101 0.6964,-0.649 1.1379,-0.771 1.1859,-0.329 1.9143,0.743 2.1977,1.752 0.5143,1.831 -1.6822,6.927 -1.9172,3.758"
       id="path279" /><path
       style="fill:none;stroke:#00ffff;stroke-width:1"
       d="m 2794.89,21789.127 c 0.4781,0 1.4388,0.464 1.4341,-0.01 -0.01,-0.478 -1.2213,-0.414 -1.4341,0.01 -0.2987,0.602 0.331,1.303 0.4522,1.963 0.061,0.333 -0.032,0.696 0.093,1.01 0.8734,2.188 4.4466,0.211 5.3618,-0.813 1.2626,-1.413 -0.055,-3.233 -1.6677,-3.478 -1.5319,-0.232 -2.9363,0.684 -4.2397,1.318 z"
       id="path281" /><path
       style="fill:none;stroke:#00ffff;stroke-width:1"
       d="m 2799.0207,21785.103 c -1.6851,4.989 -1.2885,10.062 -0.1871,15.115"
       id="path283" /><path
       style="fill:none;stroke:#00ffff;stroke-width:1"
       d="m 2763.7475,21842.365 c -0.068,0.15 -0.044,0.489 -0.2027,0.449 -0.4151,-0.107 -0.8175,-7.398 -0.6858,-8.553 0.1847,-0.989 1.42,-3.905 3.1798,-3.014 1.9629,0.993 -0.3987,4.959 -1.0287,6.001 -0.5674,0.938 -0.9035,1.06 -0.8105,1.093 0.1352,0.05 0.2048,-0.205 0.3273,-0.28 0.2228,-0.137 0.4467,-0.292 0.7014,-0.351 0.4063,-0.09 0.8332,-0.149 1.247,-0.1 1.8883,0.233 3.7822,2.043 3.2109,4.08 -0.3477,1.24 -1.7172,4.104 -3.4291,3.996 -1.3705,-0.09 -2.2694,-2.872 -2.5096,-3.323 z"
       id="path285" /><path
       style="fill:none;stroke:#00ffff;stroke-width:1"
       d="m 2772.4139,21840.108 c 3.7254,0.413 0.068,-0.106 0,0 -0.1484,0.232 -1.3861,3.852 -0.6392,5.047 2.1344,3.416 7.8182,-0.363 5.0657,-4.473 -0.1915,-0.285 -0.4646,-0.562 -0.7948,-0.658 -0.3897,-0.115 -0.8099,0.06 -1.2157,0.07 -0.8052,0.02 -1.6108,0.01 -2.416,0.01 z"
       id="path287" /><path
       style="fill:none;stroke:#00ffff;stroke-width:1"
       d="m 2773.9726,21836.042 c -0.8191,4.706 -0.3691,10.674 0.9194,15.311"
       id="path289" /><path
       style="fill:none;stroke:#00ffff;stroke-width:1"
       d="m 2687.7872,21909.019 c -1.2816,-3.69 -0.2325,-8.621 -0.4209,-12.465 -1.9856,-0.522 1.7128,-5.961 2.9928,-3.687 0.9126,1.621 0.2053,3.736 -0.265,5.342 -0.095,0.324 -0.5839,0.935 -0.2494,0.981 0.4266,0.06 0.8172,-0.363 1.2469,-0.336 2.5458,0.158 3.8148,2.589 3.7565,4.907 -0.031,1.224 -0.7233,2.662 -1.5587,3.505 -2.3113,2.333 -3.8639,-0.06 -4.7228,-2.159"
       id="path295" /><path
       style="fill:none;stroke:#00ffff;stroke-width:1"
       d="m 2699.5554,21906.214 c 3.0644,-8.103 2.9022,6.526 0,7.361 -0.4242,0.122 0.526,-0.729 0.8884,-0.981 1.895,-1.318 4.1521,-1.68 6.2503,-0.799"
       id="path297" /><path
       style="fill:none;stroke:#00ffff;stroke-width:1"
       d="m 2756.3381,21874.176 c -0.5299,-0.112 -1.1125,-0.592 -1.5899,-0.336 -1.5203,0.816 -3.5962,8.929 -3.6004,10.614 -0.016,6.7 5.3739,8.676 10.755,5.454 0.9046,-0.542 1.8426,-1.141 2.4472,-2.005 1.098,-1.569 1.9685,-3.323 2.5561,-5.146 0.7647,-2.372 -0.1553,-7.068 -2.9615,-7.95 -2.2423,-0.704 -8.0055,2.673 -9.5858,4.095"
       id="path299" /><path
       style="fill:none;stroke:#00ffff;stroke-width:1"
       d="m 2753.6261,21891.1 c -1.1316,2.992 -2.5791,5.842 -4.0994,8.651 -2.259,4.173 -4.6678,8.34 -7.2477,12.324 -0.8925,1.378 -1.8974,2.667 -2.8369,4.01 -0.1937,0.277 -0.3916,0.569 -0.3585,0.926 0.01,0.05 0.057,0.2 0.031,0.154 -0.2185,-0.393 -0.2902,-0.847 -0.6236,-1.192 -1.6526,-1.713 -5.1104,-0.71 -6.3283,1.08 -0.7377,1.084 -1.12,2.513 -1.2623,3.799 -0.5454,4.924 4.6032,13.084 10.365,9.969 1.4163,-0.765 2.0892,-1.701 2.9149,-3.042 1.6923,-2.75 0.549,-5.477 -0.9665,-8.049 -0.7366,-1.249 -1.8664,-3 -3.5227,-3.042 -1.3075,-0.03 -2.0179,1.181 -3.1173,1.444"
       id="path301" /><path
       style="fill:none;stroke:#00ffff;stroke-width:1"
       d="m 2769.4392,21876.556 c 1.2698,-2.033 1.0234,-1.763 2.7276,-3.856 1.9508,-2.395 4.1418,-4.574 6.1257,-6.94 2.0066,-2.393 3.8401,-4.923 5.8763,-7.291 1.0306,-1.199 2.1199,-2.43 3.3513,-3.435 0.1428,-0.117 1.1689,-0.642 1.1689,-0.04 0,1.449 -4.8863,2.54 -5.6735,0.406 -1.2118,-3.284 0.8057,-6.989 3.4759,-8.861 0.699,-0.49 1.4689,-1.053 2.3222,-1.08 1.4624,-0.05 2.9996,0.203 4.3021,0.87 1.184,0.605 2.2919,1.584 2.8525,2.79 0.6448,1.388 0.7636,3.04 0.5609,4.557 -0.3924,2.941 -5.389,6.618 -8.4479,5.398 -2.0751,-0.828 -1.3554,-3.255 -0.7794,-4.711"
       id="path303" /><path
       style="fill:none;stroke:#00ffff;stroke-width:1"
       d="m 2794.2691,21856.267 c -0.2961,0.87 -0.6366,1.725 -0.8885,2.608 -1.1234,3.943 -1.5992,8.044 -2.8057,11.974 -1.3168,4.291 -3.0403,8.466 -4.6603,12.647 -0.5308,1.37 -1.7061,4.341 -2.1355,5.623 -0.2582,0.771 -0.2593,1.03 -0.078,1.682 0.024,0.09 -0.024,0.356 0.031,0.281 0.8514,-1.149 -1.0726,-3.038 -2.0106,-3.155 -1.2692,-0.159 -2.9673,0.974 -3.9124,1.668 -2.3992,1.764 -2.6778,6.799 -1.1845,9.198 0.6371,1.024 1.4234,1.992 2.3847,2.72 3.4819,2.637 11.0868,-2.381 12.7034,-5.538 0.8843,-1.727 -0.2307,-4.316 -0.9197,-5.889 -1.0017,-2.286 -1.9134,-4.13 -4.6447,-4.557 -0.5239,-0.08 -2.7943,0.447 -3.3669,0.631 -10.3309,3.316 -2.5429,20.27 3.85,16.181 4.7977,-3.069 4.1063,-10.125 0.4831,-13.657 -1.888,-1.84 -4.1108,-2.046 -6.5775,-1.626 -0.4366,0.07 -1.5333,0.431 -1.1536,0.659"
       id="path305" /><path
       style="fill:none;stroke:#00ffff;stroke-width:1"
       d="m 2807.5368,21851.597 c 2.0532,1.383 4.9015,2.89 5.1438,5.706 0.2977,3.462 -2.9937,5.87 -5.3152,7.838 -0.7033,0.596 -3.1512,2.077 -3.0083,3.323 0.039,0.34 1.1943,0.519 1.3094,0.533 1.0578,0.121 5.4629,-0.591 5.9854,0.757 1.4745,3.804 -5.089,9.853 -4.8633,12.717 0.2053,2.602 8.1793,3.289 7.3414,7.823 -0.4186,2.267 -7.0506,8.987 -9.96,8.595 -2.0468,-0.275 -1.9661,-1.864 -2.3847,-3.35"
       id="path307" /><path
       style="fill:none;stroke:#00ffff;stroke-width:1"
       d="m 2820.7856,21873.666 c -0.843,-3.337 -2.2339,-6.556 -2.5718,-10.025 0.717,-0.809 1.2739,-1.794 2.1511,-2.426 0.2489,-0.179 0.6389,0.06 0.8885,0.239 2.2064,1.575 0.8496,5.748 0,5.748 -0.1279,0 0.073,-0.253 0.1558,-0.35 0.5318,-0.625 1.2592,-1.221 2.1354,-1.276 1.8232,-0.115 2.6629,1.978 2.6342,3.449 -0.026,1.343 -0.6941,5.5 -2.7277,5.65 -0.4295,0.03 -0.3741,-0.775 -0.5611,-1.163"
       id="path309" /><path
       style="fill:none;stroke:#00ffff;stroke-width:1"
       d="m 2829.7015,21867.749 c 1.6312,4.596 0.8485,1.28 1.0131,5.496 0.033,0.858 0.2911,2.723 0.4207,3.716"
       id="path311" /><path
       style="fill:none;stroke:#00ffff;stroke-width:1"
       d="m 2763.5507,21894.417 c 2.028,0.686 2.1053,0.261 3.0239,2.327 1.4549,3.272 -0.2715,4.461 -2.7744,5.665 -0.4959,0.238 -1.8947,0.744 -1.964,1.472 -0.1829,1.918 6.0044,-0.724 2.9614,3.561 -0.3145,0.443 -0.6614,0.863 -0.9974,1.29 -0.381,0.484 -0.7731,0.96 -1.1534,1.444 -0.5416,0.691 -3.2504,3.601 -2.5564,4.641 1.4531,2.179 8.0767,1.629 7.778,5.174 -0.4921,5.835 -4.7437,8.096 -10.1005,6.59 -1.0866,-0.306 -3.18,-1.002 -4.0992,-1.921"
       id="path313" /><path
       style="fill:none;stroke:#00ffff;stroke-width:1"
       d="m 2771.2662,21913.373 c 0.9334,0.953 0.9078,6.936 1.8706,7.431 0.099,0.05 0.1037,-0.196 0.1558,-0.294"
       id="path315" /><path
       style="fill:none;stroke:#00ffff;stroke-width:1"
       d="m 2771.8117,21914.859 c -0.3585,-0.663 -1.3311,-2.087 -1.0755,-3 0.5202,-1.857 2.2074,-3.729 3.85,-1.683 1.1475,1.429 0.5596,3.768 0,5.286 -0.1437,0.39 -0.2437,0.836 -0.5456,1.122 -0.136,0.129 -0.1344,-0.395 -0.047,-0.561 0.2657,-0.502 1.1324,-1.859 2.0106,-1.907 1.6489,-0.09 2.5061,1.638 2.6966,2.987 0.1149,0.814 -0.4744,5.752 -2.0108,3.491"
       id="path317" /><path
       style="fill:none;stroke:#00ffff;stroke-width:1"
       d="m 2781.0237,21915.799 c 1.3417,3.143 -0.608,6.618 1.1221,9.73"
       id="path319" /></g></svg>
