<?xml version="1.0" encoding="UTF-8" standalone="no"?>
<!-- Created with Inkscape (http://www.inkscape.org/) -->

<svg
   width="48.385506mm"
   height="38.042809mm"
   viewBox="0 0 48.385504 38.042809"
   version="1.1"
   id="svg12"
   inkscape:version="1.2.1 (9c6d41e410, 2022-07-14, custom)"
   sodipodi:docname="boundry_integral.svg"
   xml:space="preserve"
   xmlns:inkscape="http://www.inkscape.org/namespaces/inkscape"
   xmlns:sodipodi="http://sodipodi.sourceforge.net/DTD/sodipodi-0.dtd"
   xmlns="http://www.w3.org/2000/svg"
   xmlns:svg="http://www.w3.org/2000/svg"><sodipodi:namedview
     id="namedview14"
     pagecolor="#000000"
     bordercolor="#ffffff"
     borderopacity="1"
     inkscape:showpageshadow="0"
     inkscape:pageopacity="0"
     inkscape:pagecheckerboard="0"
     inkscape:deskcolor="#000000"
     inkscape:document-units="mm"
     showgrid="true"
     inkscape:zoom="0.9568253"
     inkscape:cx="333.39419"
     inkscape:cy="196.4831"
     inkscape:window-width="1366"
     inkscape:window-height="746"
     inkscape:window-x="1360"
     inkscape:window-y="0"
     inkscape:window-maximized="1"
     inkscape:current-layer="layer1"
     inkscape:lockguides="true"
     showguides="true"><sodipodi:guide
       position="3265.6758,-22192.731"
       orientation="0,-1"
       id="guide3409"
       inkscape:locked="true" /></sodipodi:namedview><defs
     id="defs9"><rect
       x="587.26367"
       y="362.45731"
       width="66.575974"
       height="20.973427"
       id="rect1884" /></defs><g
     inkscape:label="Layer 1"
     inkscape:groupmode="layer"
     id="layer1"
     transform="translate(-14.115156,-12.911618)"><path
       style="fill:none;stroke:#ffb380;stroke-width:0.3"
       d="m 15.589949,12.97136 c -1.640873,3.779017 -1.818321,7.905549 -0.193316,11.731391 0.972588,2.289819 2.719437,4.085988 3.65818,6.394081 1.110559,2.730537 1.506529,6.855552 -1.026055,8.962411 -1.162333,0.966943 -2.472265,0.856837 -3.836643,1.12364"
       id="path480" /><path
       style="fill:none;stroke:#ffb380;stroke-width:0.3"
       d="m 18.415389,45.316291 c -0.565084,0.784768 -1.332154,1.458011 -1.695251,2.354303 -0.29931,0.738841 -0.32849,1.590899 -0.223087,2.381062 0.288757,2.164707 4.969782,-1.077572 5.948263,-0.588579"
       id="path482" /><path
       style="fill:none;stroke:#ffb380;stroke-width:0.3"
       d="m 27.679791,31.672025 c -1.560089,-1.894512 0.05042,-6.042275 -1.263996,-8.306944 -0.470362,0.232451 6.079531,0.187274 4.862698,0.187274"
       id="path484" /><path
       style="fill:none;stroke:#ffb380;stroke-width:0.3"
       d="m 26.742949,27.150696 c 1.458087,-0.353416 3.586602,-1.735835 5.189853,-0.989879"
       id="path486" /><path
       style="fill:none;stroke:#ffb380;stroke-width:0.3"
       d="m 25.761486,19.459076 c 1.439298,0.160914 2.853023,0.431113 4.297603,0.53507 0.281813,0.02028 0.976614,0.251379 0.847624,0 -0.363662,-0.708722 -2.533322,-1.686912 -3.271546,-2.086773 -0.6912,-0.374389 -0.805082,-0.478744 -0.490734,-0.227404"
       id="path488" /><path
       style="fill:none;stroke:#ffb380;stroke-width:0.3"
       d="m 36.364244,26.34809 c -0.968962,0.55326 -1.184926,-2.824031 -0.312269,-2.595086 0.842748,0.221098 0.95009,3.188629 0.312269,2.595086 -0.226015,-0.210324 -1.269944,-2.208333 -0.371779,-2.809111 1.16972,-0.782417 0.324572,3.616334 0.371779,2.809111 0.177454,-3.034351 0.641882,-3.302591 0,0 z"
       id="path490" /><path
       style="fill:none;stroke:#ffb380;stroke-width:0.3"
       d="m 41.673051,26.254454 c 0.408283,-0.744364 0.81457,-4.722495 1.576297,-5.029651 0.143423,-0.05783 1.356508,5.017038 1.04094,4.307307"
       id="path492" /><path
       style="fill:none;stroke:#ffb380;stroke-width:0.3"
       d="m 40.081899,18.495949 c 0.943801,-0.437325 3.631732,-0.670674 4.520692,0.04013 0.195271,0.156136 -0.481674,-0.160854 -0.684048,-0.307666 -0.665496,-0.482783 -2.414056,-2.597309 -2.438808,-2.595082 -0.200392,0.01803 0.0778,0.395336 0.133837,0.588576"
       id="path494" /><path
       style="fill:none;stroke:#ffb380;stroke-width:0.3"
       d="m 54.253623,19.258423 c 0.456033,0.343336 0.956918,0.634057 1.368097,1.030008 0.255431,0.245973 1.413192,1.665003 1.442458,2.22054 0.03001,0.569633 -0.302152,2.903966 -1.650627,2.367678 -1.901161,-0.756091 -0.49712,-2.652319 0.28253,-3.558209"
       id="path500" /><path
       style="fill:none;stroke:#ffb380;stroke-width:0.3"
       d="m 57.450808,19.124655 c 0.718749,0.517235 1.503799,0.953002 2.156246,1.551703 1.179716,1.082538 1.035457,3.127436 0.62457,2.20716 -0.693224,-1.552646 -0.630081,-4.758681 1.338358,-5.511214 0.287549,-0.10993 0.614658,0.03567 0.921988,0.05351"
       id="path502" /></g></svg>
