<?xml version="1.0" encoding="UTF-8" standalone="no"?>
<!-- Created with Inkscape (http://www.inkscape.org/) -->

<svg
   width="380.24567mm"
   height="94.668274mm"
   viewBox="0 0 380.24564 94.668274"
   version="1.1"
   id="svg12"
   inkscape:version="1.2.2 (b0a8486541, 2022-12-01)"
   sodipodi:docname="cauchy.svg"
   xml:space="preserve"
   inkscape:export-filename="../../../../Pictures/cauchy.png"
   inkscape:export-xdpi="96"
   inkscape:export-ydpi="96"
   xmlns:inkscape="http://www.inkscape.org/namespaces/inkscape"
   xmlns:sodipodi="http://sodipodi.sourceforge.net/DTD/sodipodi-0.dtd"
   xmlns="http://www.w3.org/2000/svg"
   xmlns:svg="http://www.w3.org/2000/svg"><sodipodi:namedview
     id="namedview14"
     pagecolor="#000000"
     bordercolor="#ffffff"
     borderopacity="1"
     inkscape:showpageshadow="0"
     inkscape:pageopacity="0"
     inkscape:pagecheckerboard="0"
     inkscape:deskcolor="#000000"
     inkscape:document-units="mm"
     showgrid="true"
     inkscape:zoom="0.527922"
     inkscape:cx="494.39122"
     inkscape:cy="397.78604"
     inkscape:window-width="1366"
     inkscape:window-height="746"
     inkscape:window-x="1360"
     inkscape:window-y="0"
     inkscape:window-maximized="1"
     inkscape:current-layer="layer1"
     inkscape:lockguides="true"
     showguides="false"><sodipodi:guide
       position="3265.6758,-22192.731"
       orientation="0,-1"
       id="guide3409"
       inkscape:locked="true" /><inkscape:grid
       type="xygrid"
       id="grid299"
       color="#dea02b"
       opacity="0.14901961"
       empcolor="#ffffff"
       empopacity="0.30196078"
       originx="749.38183"
       originy="11.543774"
       enabled="false" /></sodipodi:namedview><defs
     id="defs9"><rect
       x="587.26367"
       y="362.45731"
       width="66.575974"
       height="20.973427"
       id="rect1884" /></defs><g
     inkscape:label="Layer 1"
     inkscape:groupmode="layer"
     id="layer1"
     transform="translate(771.66719,-98.818265)"><path
       style="fill:none;stroke:#000000;stroke-width:0.325001"
       d="m -760.14755,149.17352 c -3.52978,0.28123 -4.9657,1.09657 -6.33373,4.46099 -2.99066,7.35495 -0.2803,13.1731 0.86249,20.48659 0.25575,1.63659 0.39891,3.56821 0.45818,5.26105 0.0169,0.48492 0.11343,1.93622 0.0539,1.45467 -0.0765,-0.61864 -0.0981,-0.75415 -0.18867,-1.40619"
       id="path704" /><path
       style="fill:none;stroke:#000000;stroke-width:0.325001"
       d="m -771.65605,166.84775 c 3.73991,0.25706 10.69321,-2.59969 13.98809,-0.6546"
       id="path706" /><path
       style="fill:none;stroke:#000000;stroke-width:0.325001"
       d="m -755.05358,132.12966 c -5.29778,0.7208 -1.93053,16.58954 1.75191,15.51647 0.41532,-0.12103 0.57497,-0.64652 0.86244,-0.96978"
       id="path708" /><path
       style="fill:none;stroke:#000000;stroke-width:0.325001"
       d="m -749.25889,143.83975 c 0.018,-1.76985 -0.1392,-3.55017 0.0539,-5.30955 0.0884,-0.80591 0.47672,-1.55199 0.7816,-2.30322 1.089,-2.68322 3.35349,5.19882 4.25844,6.52176"
       id="path710" /><path
       style="fill:none;stroke:#000000;stroke-width:0.325001"
       d="m -744.48835,126.09279 c 0.92536,0.80007 2.13755,1.3568 2.77607,2.4002 2.22694,3.639 3.53853,11.55997 3.42291,15.71042 -0.0883,3.17093 -0.70977,7.32741 -1.72495,5.43076"
       id="path712" /><path
       style="fill:none;stroke:#000000;stroke-width:0.325001"
       d="m -720.44711,151.01611 c -1.06011,1.34961 -2.36554,2.5384 -3.18032,4.04883 -3.81757,7.07686 -3.95023,17.5222 1.53625,23.66261 0.76861,0.86021 2.69243,2.88312 4.09673,2.27898"
       id="path714" /><path
       style="fill:none;stroke:#000000;stroke-width:0.325001"
       d="m -712.65791,165.2961 c -2.08201,1.72467 -5.37065,4.91195 -4.20452,8.14614 0.54305,1.50621 3.17344,-0.0264 3.44982,-0.19395 2.60776,-1.58116 5.09394,-5.09717 5.09394,-8.24311 0,-2.54628 -4.3502,0.24539 -4.33924,0.29092 0.52033,2.1637 4.81232,6.92866 7.73522,5.28531"
       id="path716" /><path
       style="fill:none;stroke:#000000;stroke-width:0.325001"
       d="m -706.998,153.10114 c -0.7497,0.56751 -0.76062,-4.05134 0.61992,-4.09733 2.09611,-0.0698 4.83793,3.74645 5.33649,4.53372 5.08518,8.03002 5.2628,16.52652 3.09951,25.65067 -0.0729,0.30739 -2.47436,6.79086 -4.82441,6.93391 -0.67178,0.0409 -0.91639,-0.98594 -1.37456,-1.47891"
       id="path718" /><path
       style="fill:none;stroke:#000000;stroke-width:0.325001"
       d="m -683.22627,158.77433 c 1.91868,-0.85989 16.07203,-6.531 17.16849,-4.89738 0.17891,0.26655 -0.23357,0.59804 -0.35036,0.89706"
       id="path720" /><path
       style="fill:none;stroke:#000000;stroke-width:0.325001"
       d="m -681.79779,164.35058 c 5.90048,-1.65488 13.94122,-6.28131 20.18713,-4.82466"
       id="path722" /><path
       style="fill:none;stroke:#000000;stroke-width:0.325001"
       d="m -647.02955,136.97856 c -0.50001,-1.67632 4.11374,-14.9851 5.6869,-13.4072 1.76339,1.76872 3.0598,4.8046 3.71938,7.15212 0.45643,1.62443 1.16313,6.63107 1.0781,4.94587"
       id="path724" /><path
       style="fill:none;stroke:#000000;stroke-width:0.325001"
       d="m -630.66965,117.51024 c 1.12337,2.76032 1.40383,5.98344 1.26677,8.94621"
       id="path726" /><path
       style="fill:none;stroke:#000000;stroke-width:0.325001"
       d="m -626.78853,138.28776 c -8.04357,-0.0127 -0.87815,-5.68122 -0.32345,-3.63667 0.0824,0.30354 0.61454,7.3084 0.59295,7.49154 -0.0359,0.30465 -0.62544,-0.34859 -0.64685,-0.6546 -0.0749,-1.07154 0.25157,-2.13352 0.37735,-3.20027 z"
       id="path728" /><path
       style="fill:none;stroke:#000000;stroke-width:0.325001"
       d="m -652.52778,150.77366 c 21.35701,-3.74213 43.30756,-2.80332 64.44247,-8.19463"
       id="path730" /><path
       style="fill:none;stroke:#000000;stroke-width:0.325001"
       d="m -647.78425,168.78731 c -3.81265,-3.51672 4.24543,-10.96099 4.79748,-4.364 0.48707,5.82075 -2.76524,11.91248 -7.22318,15.44373 -0.11718,0.0928 -0.44992,-0.11179 -0.3773,-0.24245 0.34449,-0.61973 0.85262,-1.15128 1.4015,-1.60013 0.94541,-0.7731 1.95146,-1.49405 3.04562,-2.03654 1.02232,-0.50688 9.5586,-3.35646 8.92114,-0.77583"
       id="path732" /><path
       style="fill:none;stroke:#000000;stroke-width:0.325001"
       d="m -632.74496,165.2961 c 0.69151,4.42157 0.53467,10.78224 1.02417,14.64367"
       id="path734" /><path
       style="fill:none;stroke:#000000;stroke-width:0.325001"
       d="m -635.84442,162.43526 c 0.79957,-0.4364 1.49042,-1.24015 2.39871,-1.3092 2.33159,-0.17724 2.70764,4.80481 4.85137,4.97011 3.95592,0.30503 6.42975,-7.85245 9.24457,-9.62506 0.54007,-0.34009 -0.71141,1.07633 -1.18589,1.50316 -1.04214,1.73752 -2.45129,3.30227 -3.12643,5.21256 -1.27025,3.59412 2.63322,12.12225 7.00751,12.12225"
       id="path736" /><path
       style="fill:none;stroke:#000000;stroke-width:0.325001"
       d="m -608.16464,158.2652 c -3.58317,1.77913 -1.96382,-5.47924 -0.48514,-5.47924 1.09368,0 -0.3297,5.80173 0.48514,5.47924 1.13326,-0.44851 0.80407,-4.75328 0.91636,-3.53968"
       id="path738" /><path
       style="fill:none;stroke:#000000;stroke-width:0.325001"
       d="m -605.79284,162.26555 c -8.50527,8.34043 5.79454,6.22792 5.71381,12.00101 -0.0418,2.99194 -6.48726,9.64749 -5.49823,1.96381"
       id="path740" /><path
       style="fill:none;stroke:#000000;stroke-width:0.325001"
       d="m -554.5839,102.18773 c -9.59229,-0.73461 -15.23992,8.58959 -13.63773,17.3833 1.13009,6.20249 4.21101,11.8359 5.87558,17.89241 1.94957,7.0935 2.45486,14.44958 2.58738,21.77154 0.1228,6.78438 0.54349,14.8561 -3.77328,20.60782 -3.46214,4.613 -8.50928,4.02472 -13.74558,3.83062 -2.15738,-0.08 -7.27275,-0.0303 -9.19069,-1.67287 -1.17849,-1.00927 1.09385,-2.93629 1.96752,-4.21854"
       id="path742" /><path
       style="fill:none;stroke:#000000;stroke-width:0.325001"
       d="m -556.14708,135.11173 c -11.36515,-0.34614 -16.39505,5.89187 -14.39244,17.35905 0.35582,2.03745 1.22991,5.83622 3.63857,6.54601 3.60572,1.06254 7.42431,-1.20533 10.51129,-2.73963 2.28789,-1.13713 6.15113,-2.62792 7.33097,-5.26105 1.70021,-3.79449 -0.32238,-10.60693 -3.18034,-13.38295 -2.06418,-2.00502 -5.82188,-3.35072 -8.32818,-4.43674"
       id="path744" /><path
       style="fill:none;stroke:#000000;stroke-width:0.325001"
       d="m -544.15342,178.55784 c -1.66017,4.45359 -1.37158,3.24441 -2.39871,7.51578 -0.26914,1.11925 -0.50271,2.24675 -0.75464,3.36999 -0.16134,0.71934 -0.33165,1.43671 -0.48515,2.15776 -1.20362,5.65397 0.48948,-4.34847 -2.56047,-5.18833 -0.92976,-0.25602 -8.57587,2.75892 -6.76499,1.33345"
       id="path748" /><path
       style="fill:none;stroke:#000000;stroke-width:0.325001"
       d="m -526.2033,107.81245 c -1.03317,-0.0808 -2.12245,-0.58788 -3.09951,-0.24245 -0.99523,0.35187 -1.66828,1.32573 -2.3179,2.15777 -4.01141,5.13784 -2.19464,11.05401 -1.07803,16.84991 0.6172,3.20367 1.23224,7.61696 0.35037,6.10961"
       id="path750" /><path
       style="fill:none;stroke:#000000;stroke-width:0.325001"
       d="m -538.57432,123.76532 c 5.25578,-0.79547 9.25867,-0.46242 13.93427,1.55164"
       id="path752" /><path
       style="fill:none;stroke:#000000;stroke-width:0.325001"
       d="m -510.89446,110.2369 c 0.4402,-0.79199 2.11259,-1.93575 1.32061,-2.37596 -0.79199,-0.4402 -0.81894,1.62141 -1.32061,2.37596 -1.17163,1.76219 -2.84511,3.22502 -3.69253,5.16407 -0.83982,1.92165 -0.80849,6.15842 -0.0809,8.26737 0.56604,1.64065 3.72597,7.62716 6.2799,5.69745"
       id="path754" /><path
       style="fill:none;stroke:#000000;stroke-width:0.325001"
       d="m -502.59332,112.68559 c 0.92535,-0.22628 1.84056,-0.49903 2.77606,-0.67884 1.16888,-0.22467 2.3433,-0.45159 3.53076,-0.53338 9.63209,-0.66349 -4.47649,11.76619 -5.33652,15.12855 -0.2898,1.133 1.73476,0.83201 1.88664,0.82431 2.25637,-0.11434 6.81719,0.0434 8.40906,-1.81833"
       id="path756" /><path
       style="fill:none;stroke:#000000;stroke-width:0.325001"
       d="m -503.72526,120.71052 c 4.92612,-1.87826 9.87829,-1.36209 14.87752,-3.17603"
       id="path758" /><path
       style="fill:none;stroke:#000000;stroke-width:0.325001"
       d="m -491.86631,99.011705 c 1.06011,0.113141 2.33173,-0.305957 3.18033,0.33942 5.30048,4.031115 7.1575,19.676935 5.82168,25.262745 -0.67371,2.81716 -2.01017,5.49008 -3.61164,7.9037 -0.52972,0.79834 -1.68895,0.90513 -2.53343,1.35769"
       id="path760" /><path
       style="fill:none;stroke:#000000;stroke-width:0.325001"
       d="m -537.68489,147.59764 c 2.23019,-0.0291 -4.29365,0.0129 -4.04284,-0.097 1.87855,-0.82324 1.76184,0.35628 4.04284,0.097 2.45067,-0.27859 4.8103,-1.11708 7.25008,-1.47891 3.32535,-0.49317 24.85096,-2.54743 25.60454,-2.6184 2.91154,-0.27423 34.90833,-3.18926 38.64925,-3.51546 9.52143,-0.83023 19.09356,-1.25561 28.5962,-2.25474"
       id="path762" /><path
       style="fill:none;stroke:#000000;stroke-width:0.325001"
       d="m -504.58776,160.35023 c -0.68276,0.42024 -1.56836,0.6185 -2.04828,1.26072 -3.99907,5.35159 -5.47156,14.19753 -2.18311,20.21989 1.60431,2.93808 4.62389,4.69543 7.54656,5.98839"
       id="path764" /><path
       style="fill:none;stroke:#000000;stroke-width:0.325001"
       d="m -499.7633,169.00551 c 0.87357,-0.0617 4.34813,-0.84598 5.5252,0.41216 2.49354,2.66527 -2.74195,8.47931 -4.15063,10.32814 -0.87352,1.14646 -1.67424,1.90359 -1.37457,2.13352 0.85715,0.65766 6.30688,-0.0291 6.98065,0 5.11986,0.22123 5.17199,2.65338 2.7221,0.50913"
       id="path766" /><path
       style="fill:none;stroke:#000000;stroke-width:0.325001"
       d="m -499.08948,174.75145 c 3.57538,-1.07034 8.69309,-3.33654 12.50574,-1.86682"
       id="path768" /><path
       style="fill:none;stroke:#000000;stroke-width:0.325001"
       d="m -480.86986,173.99987 c 0.60075,0.19685 6.2305,-2.20846 4.74358,-1.47891 -1.48693,0.72956 -6.20609,2.25627 -4.74358,1.47891 2.65156,-1.40935 6.40757,-1.96518 9.37936,-2.59416"
       id="path770" /><path
       style="fill:none;stroke:#000000;stroke-width:0.325001"
       d="m -457.01725,179.45488 c 0.2601,-1.63794 -1.18217,-4.64974 -1.59017,-6.08536 -1.04694,-3.68386 -0.94851,-5.87572 -0.59294,-9.57657 0.0286,-0.29825 -0.20188,0.56425 -0.29648,0.84855 -0.27377,0.82291 -0.5258,1.65307 -0.80854,2.47295 -3.94004,11.42525 1.27701,-4.04988 -2.29091,6.69147 -0.31743,0.95563 -0.64687,1.90723 -0.9703,2.86084 0.41188,-7.25083 3.9668,-2.78588 6.4145,-5.72169"
       id="path772" /><path
       style="fill:none;stroke:#000000;stroke-width:0.325001"
       d="m -457.85283,159.25923 c 1.32065,1.21222 3.01547,2.11425 3.96195,3.63668 2.99844,4.82301 2.38324,14.5198 0.13484,19.49255 -1.14966,2.54269 -1.05783,2.21956 -2.0484,1.21223"
       id="path774" /><path
       style="fill:none;stroke:#000000;stroke-width:0.325001"
       d="m -450.76438,158.28945 c 0.46526,-2.18227 1.49773,-10.8271 2.80298,-10.54634 0.6392,0.13749 2.87396,7.94548 2.74914,9.40684"
       id="path776" /><path
       style="fill:none;stroke:#000000;stroke-width:0.325001"
       d="m -440.76516,148.228 c 1.25321,1.22034 2.37904,8.41601 1.21282,8.60679"
       id="path778" /><path
       style="fill:none;stroke:#000000;stroke-width:0.325001"
       d="m -443.32562,152.95567 c 5.21335,-0.42085 2.83157,-0.64258 7.16933,0.31518"
       id="path780" /><path
       style="fill:none;stroke:#000000;stroke-width:0.325001"
       d="m -434.8626,145.68232 c 0.57892,7.13324 0.33408,6.04108 1.644,10.98275"
       id="path782" /><path
       style="fill:none;stroke:#000000;stroke-width:0.325001"
       d="m -419.47301,121.92273 c 3.54869,2.65611 10.53428,12.19653 6.44154,16.68021 -1.03094,1.12942 -2.2733,2.48603 -3.80019,2.56991 -5.21529,0.28649 -4.80593,-7.88119 2.42562,-8.87347"
       id="path784" /><path
       style="fill:none;stroke:#000000;stroke-width:0.325001"
       d="m -403.51739,124.6866 c 0.71873,0.0566 1.46203,-0.025 2.1562,0.16972 0.99911,0.28025 2.0435,0.59219 2.85693,1.23647 5.68616,4.50375 -5.53234,10.45933 -4.5549,13.16475 1.00582,2.78395 9.46885,1.76712 10.13395,-0.77582"
       id="path786" /><path
       style="fill:none;stroke:#000000;stroke-width:0.325001"
       d="m -404.11034,133.39037 c 4.0109,-1.81385 8.29369,-3.15502 12.66749,-3.73365"
       id="path788" /></g></svg>
