<?xml version="1.0" encoding="UTF-8" standalone="no"?>
<!-- Created with Inkscape (http://www.inkscape.org/) -->

<svg
   width="757.58264mm"
   height="84.84729mm"
   viewBox="0 0 757.58263 84.8473"
   version="1.1"
   id="svg12"
   inkscape:version="1.2.1 (9c6d41e410, 2022-07-14, custom)"
   sodipodi:docname="caviat_connection.svg"
   xml:space="preserve"
   xmlns:inkscape="http://www.inkscape.org/namespaces/inkscape"
   xmlns:sodipodi="http://sodipodi.sourceforge.net/DTD/sodipodi-0.dtd"
   xmlns="http://www.w3.org/2000/svg"
   xmlns:svg="http://www.w3.org/2000/svg"><sodipodi:namedview
     id="namedview14"
     pagecolor="#000000"
     bordercolor="#ffffff"
     borderopacity="1"
     inkscape:showpageshadow="0"
     inkscape:pageopacity="0"
     inkscape:pagecheckerboard="0"
     inkscape:deskcolor="#000000"
     inkscape:document-units="mm"
     showgrid="true"
     inkscape:zoom="0.64"
     inkscape:cx="1332.8125"
     inkscape:cy="85.9375"
     inkscape:window-width="1366"
     inkscape:window-height="746"
     inkscape:window-x="0"
     inkscape:window-y="0"
     inkscape:window-maximized="1"
     inkscape:current-layer="layer1"
     inkscape:lockguides="true"><inkscape:grid
       type="xygrid"
       id="grid344"
       color="#969696"
       opacity="0.39215686"
       empcolor="#ffffff"
       empopacity="0.17254902"
       dotted="false"
       originx="-16682.893"
       originy="-36794.162" /></sodipodi:namedview><defs
     id="defs9" /><g
     inkscape:label="Layer 1"
     inkscape:groupmode="layer"
     id="layer1"
     transform="translate(-16787.892,-36942.655)"><path
       style="fill:none;stroke:#ffffff;stroke-width:0.410001"
       d="m 16803.42,36952.255 c -1.031,4.597 4.618,15.64 2.766,19.261 -0.199,0.39 -0.804,-0.415 -1.069,-0.764"
       id="path958" /><path
       style="fill:none;stroke:#ffffff;stroke-width:0.410001"
       d="m 16797.572,36956.583 c -0.03,-1.226 -0.828,-2.695 -0.1,-3.677 2.148,-2.878 9.607,-3.312 12.954,-5.289 3.973,10.119 0.191,0 3.243,9.559 3.393,10.624 3.049,-6.584 6.257,-0.537 0.629,1.185 1.16,2.428 1.572,3.705 1.047,3.244 2.313,8.507 1.289,6.533 1.048,-1.763 1.694,-3.839 3.144,-5.288 1.373,-1.372 3.776,-0.988 5.534,-1.811 3.637,-1.702 1.892,-6.248 -0.06,-4.61 -2.998,2.513 -3.87,11.747 0.283,12.134 3.241,0.302 5.824,-2.382 6.571,-5.148 0.718,-2.659 -0.09,-4.445 -0.314,-4.412 -0.233,0.04 -0.04,0.475 0,0.707 0.55,3.268 0.696,3.174 1.761,6.505 0.07,0.223 1.845,5.25 1.635,6.335 -0.358,1.845 -1.394,1.509 -2.013,0.538 -3.124,-4.904 6.843,-8.455 9.653,-9.871 0.84,-0.423 3.055,-1.271 2.232,-1.725 -2.93,-1.617 -7.316,2.656 -8.143,5.204 -2.092,6.448 8.694,6.759 11.979,6.307 4.616,-0.635 5.761,-1.193 8.803,-2.489"
       id="path960" /><path
       style="fill:none;stroke:#ffffff;stroke-width:0.410001"
       d="m 16883.154,36958.138 c 0.777,-6.447 -2.228,-7.619 0,0 1.137,3.887 4.851,6.031 2.327,9.984"
       id="path962" /><path
       style="fill:none;stroke:#ffffff;stroke-width:0.410001"
       d="m 16881.299,36966.17 c 13.49,-7.871 1.517,-1.531 11.256,-5.486 1.1,-0.447 2.254,-0.864 3.176,-1.613 2.053,-1.667 0.702,-6.521 -2.044,-6.674 -4.007,-0.224 -5.229,6.776 -4.716,9.276 1.707,8.335 9.84,8.381 14.337,2.461"
       id="path964" /><path
       style="fill:none;stroke:#ffffff;stroke-width:0.410001"
       d="m 16904.314,36960.316 c -0.272,-2.602 -0.194,-5.265 -0.817,-7.806 -0.441,-1.797 -4.978,-3.019 -1.981,0.65 4.587,5.617 12.117,6.988 8.74,15.98 -0.244,0.651 -1.723,3.485 -2.766,3.931 -1.527,0.653 -0.184,-3.353 0.157,-4.977 0.435,-2.071 3.181,-13.13 4.307,-14.481 0.593,-0.711 0.821,1.689 0.975,2.602 0.502,2.982 1.149,5.97 1.195,8.994 0.02,1.252 -0.182,2.677 -1.006,3.62 -0.357,0.408 -1.268,-0.566 -1.195,-1.103 0.734,-5.434 4.13,-8.581 7.829,-12.077 0.906,-0.856 1.875,-1.645 2.766,-2.517 0.371,-0.362 1.263,-1.456 0.755,-1.357 -1.934,0.376 -3.324,2.226 -4.559,3.761 -1.014,1.26 -2.289,2.577 -2.452,4.186 -0.308,3.031 15.087,5.058 15.846,10.464 0.652,4.641 -7.781,8.154 -12.199,5.204 -1.858,-1.24 -2.642,-3.467 -3.49,-5.373"
       id="path966" /><path
       style="fill:none;stroke:#ffffff;stroke-width:0.410001"
       d="m 16959.305,36968.292 c -0.608,-2.998 -1.735,-5.937 -1.824,-8.994 -0.118,-4.062 4.571,-4.938 6.54,-1.132 0.69,1.335 1.041,2.858 1.163,4.356 0.265,3.27 -0.97,8.817 -2.641,8.032 -1.192,-0.56 -2.159,-1.508 -3.238,-2.262 z"
       id="path968" /><path
       style="fill:none;stroke:#ffffff;stroke-width:0.410001"
       d="m 16964.555,36954.857 c 1.174,1.386 2.75,2.514 3.522,4.158 0.841,1.793 0.835,3.873 1.163,5.826 0.12,0.717 0.05,2.903 0.09,2.178 0.114,-1.952 1.088,-11.55 3.144,-10.012 2.426,1.814 3.583,7.228 4.276,9.814 0.314,1.171 0.47,2.378 0.723,3.563"
       id="path970" /><path
       style="fill:none;stroke:#ffffff;stroke-width:0.410001"
       d="m 16979.49,36957.403 c 2.054,1.343 4.609,14.997 5.848,11.794"
       id="path972" /><path
       style="fill:none;stroke:#ffffff;stroke-width:0.410001"
       d="m 16989.865,36955.791 c 0.924,2.957 0.679,17.896 -2.735,18.355 -0.523,0.07 -0.901,-0.547 -1.352,-0.82"
       id="path974" /><path
       style="fill:none;stroke:#ffffff;stroke-width:0.410001"
       d="m 16980.401,36962.522 c 6.786,0.649 4.472,-0.793 7.829,2.376"
       id="path976" /><path
       style="fill:none;stroke:#ffffff;stroke-width:0.410001"
       d="m 17016.464,36956.328 c -0.262,-1.273 0.487,-4.08 -0.786,-3.818 -1.272,0.262 0.474,2.557 0.786,3.818 1.333,5.377 2.578,12.722 5.282,17.761 0.527,0.982 1.073,-1.99 1.29,-3.082 1.065,-5.376 1.519,-10.803 2.892,-9.956 2.002,1.235 3.769,6.042 4.905,7.976 1.317,2.243 1.005,1.453 0.912,-1.556 -0.04,-1.442 -0.128,-2.884 -0.157,-4.327 -0.08,-4.037 -0.195,-3.965 0.282,-6.844"
       id="path978" /><path
       style="fill:none;stroke:#ffffff;stroke-width:0.410001"
       d="m 17035.958,36961.532 c 1.283,2.139 3.678,4.972 3.678,7.863 0,0.887 -2.346,0.497 -2.641,-0.34 -0.841,-2.388 -0.607,-5.028 -1.037,-7.523 -0.378,-2.194 -1.321,-4.308 -1.384,-6.533 -0.09,-3.322 3.048,0.172 3.302,0.594 1.987,3.3 3.305,8.992 2.798,12.868"
       id="path980" /><path
       style="fill:none;stroke:#ffffff;stroke-width:0.410001"
       d="m 17039.479,36958.223 c 3.405,-2.356 1.669,5.614 4.025,5.854 0.445,0.05 0.412,-0.806 0.503,-1.244 0.357,-1.727 1.372,-9.824 1.477,-10.747 0.318,-2.772 0,-4.494 0.724,-4.243 0.478,0.168 0.76,1.005 1.257,1.273"
       id="path982" /><path
       style="fill:none;stroke:#ffffff;stroke-width:0.410001"
       d="m 17052.15,36946.457 c -0.356,2.14 -0.605,4.301 -1.069,6.421 -0.418,1.911 -1.116,3.753 -1.572,5.656 -1.66,6.927 11.478,-3.52 13.331,1.725 0.651,1.843 -3.26,8.946 -3.616,5.742"
       id="path984" /><path
       style="fill:none;stroke:#ffffff;stroke-width:0.410001"
       d="m 17114.107,36950.371 c -1.688,-6.159 3.204,-6.918 2.327,-4.101 -0.467,1.501 -1.551,2.734 -2.327,4.101 z"
       id="path986" /><path
       style="fill:none;stroke:#ffffff;stroke-width:0.410001"
       d="m 17115.836,36960.609 c -0.178,2.499 -0.481,4.991 -0.534,7.495 -0.06,3.082 0.177,7.403 1.132,10.465 0.129,0.415 0.507,1.258 0.849,0.99 1.329,-1.042 2.033,-2.697 3.049,-4.045"
       id="path988" /><path
       style="fill:none;stroke:#ffffff;stroke-width:0.410001"
       d="m 17130.174,36954.953 c -1.195,0.594 -2.652,0.828 -3.585,1.782 -4.367,4.464 -1.755,9.495 1.447,13.377 0.867,1.052 3.85,2.165 3.772,3.564"
       id="path990" /><path
       style="fill:none;stroke:#ffffff;stroke-width:0.410001"
       d="m 17123.917,36972.007 c 0.23,-1.64 -0.441,-3.712 0.692,-4.921 3.127,-3.341 10.103,-3.664 13.802,-1.273"
       id="path992" /><path
       style="fill:none;stroke:#ffffff;stroke-width:0.410001"
       d="m 17155.326,36953.114 c -1.333,4.967 1.02,-4.983 0.786,-3.733 -0.234,1.25 -0.722,2.463 -0.786,3.733 -0.349,6.937 2.688,14.956 2.358,21.778"
       id="path994" /><path
       style="fill:none;stroke:#ffffff;stroke-width:0.410001"
       d="m 17152.717,36967.312 c -2.714,-3.664 -0.663,-7.79 3.238,-9.531 1.434,-0.64 5.016,-2.25 6.603,-0.198 1.514,1.959 1.184,5.475 1.132,7.778 -0.02,0.81 -0.364,3.171 -0.03,2.432 0.559,-1.241 1.251,-4.213 1.478,-4.978 3.482,-11.719 2.287,6.767 7.231,5.487 3.999,-1.035 3.818,-13.79 0.06,-7.608 -0.781,1.286 -1.479,2.665 -1.823,4.129 -2.493,10.618 11.528,12.945 16.664,6.816 0.845,-1.008 1.006,-2.432 1.509,-3.648"
       id="path996" /><path
       style="fill:none;stroke:#ffffff;stroke-width:0.410001"
       d="m 17218.774,36953.397 c -0.597,-1.272 -1.611,-2.424 -1.792,-3.818 -0.193,-1.493 4.253,-11.448 2.641,-3.959"
       id="path998" /><path
       style="fill:none;stroke:#ffffff;stroke-width:0.410001"
       d="m 17217.423,36959.082 c -1.83,8.802 4.653,15.843 11.381,7.806"
       id="path1000" /><path
       style="fill:none;stroke:#ffffff;stroke-width:0.410001"
       d="m 17231.131,36955.999 c -0.456,0.01 -6.557,-0.483 -6.005,2.178 1.493,7.205 13.985,11.539 9.778,20.307 -1.51,3.146 -6.703,5.352 -9.495,2.347 -1.499,-1.613 -2.243,-3.79 -3.365,-5.685"
       id="path1002" /><path
       style="fill:none;stroke:#ffffff;stroke-width:0.410001"
       d="m 17282.304,36961.419 c 0.188,-0.999 0.594,-1.982 0.566,-2.998 -0.06,-1.963 -3.061,2.568 -4.088,4.242 -2.702,4.408 -5.69,11.4 -2.326,16.348 2.503,3.681 8.062,-4.011 8.583,-5.035 1.409,-2.766 1.383,-3.764 1.383,-6.278 0,-0.246 -0.101,-0.971 -0.03,-0.736 0.414,1.389 0.555,2.859 1.069,4.214 1.543,4.07 6.052,10.151 10.973,9.503"
       id="path1004" /><path
       style="fill:none;stroke:#ffffff;stroke-width:0.410001"
       d="m 17343.503,36963.504 c -1.045,0.514 -2.282,0.748 -3.135,1.54 -3.388,3.149 -6.643,12.401 -1.468,15.499 4.302,2.575 9.295,-2.847 11.917,-5.119"
       id="path1006" /><path
       style="fill:none;stroke:#ffffff;stroke-width:0.410001"
       d="m 17354.574,36974.904 c -0.128,1.479 0.126,3.894 -2.379,4.119 -0.822,0.07 -1.484,-0.937 -1.8,-1.699 -2.052,-4.938 1.54,-14.697 5.091,-8.64 0.547,0.933 0.763,2.036 0.956,3.1 0.332,1.83 0.399,4.722 -0.69,6.319"
       id="path1008" /><path
       style="fill:none;stroke:#ffffff;stroke-width:0.410001"
       d="m 17357.553,36966.104 c 1.361,2.755 1.066,1.882 2.068,5.6 0.317,1.177 0.592,2.367 0.845,3.56 0.117,0.554 0.145,1.126 0.266,1.68 0.02,0.09 0.129,0.331 0.156,0.24 0.855,-2.873 1.168,-8.055 3.957,-9.72 2.227,-1.329 2.409,9.134 2.468,10.299 0,0.154 -0.01,-0.306 -0.02,-0.459"
       id="path1010" /><path
       style="fill:none;stroke:#ffffff;stroke-width:0.410001"
       d="m 17368.158,36966.684 c 0.274,-0.706 0.199,-2.551 0.823,-2.12 2.082,1.442 4.451,9.055 4.402,11.72 -0.01,0.535 -0.386,0.999 -0.578,1.499"
       id="path1012" /><path
       style="fill:none;stroke:#ffffff;stroke-width:0.410001"
       d="m 17370.003,36973.604 c 0.318,-3.405 3.074,-2.089 4.558,-4.04"
       id="path1014" /><path
       style="fill:none;stroke:#ffffff;stroke-width:0.410001"
       d="m 17374.761,36963.004 c 0.511,0.794 1.165,1.512 1.534,2.38 0.485,1.14 0.633,2.397 1.001,3.58 1.343,4.329 1.216,-5.124 2.845,-5.72 0.486,-0.177 0.879,0.61 1.134,1.06 0.49,0.867 1.782,8.879 2.579,6.42"
       id="path1016" /><path
       style="fill:none;stroke:#ffffff;stroke-width:0.410001"
       d="m 17384.054,36964.124 c 1.939,6.915 8.944,8.82 7.337,-0.4"
       id="path1018" /><path
       style="fill:none;stroke:#ffffff;stroke-width:0.410001"
       d="m 17394.859,36967.164 c 0,0.613 -0.636,1.833 -0.02,1.84 0.613,0 0.206,-1.255 0.02,-1.84 -0.437,-1.389 -1.653,-2.516 -1.845,-3.96 -0.216,-1.616 1.654,-5.838 3.957,-3.479 1.169,1.197 1.768,3.523 1.867,5.139 0.02,0.368 0.113,2.859 -0.622,3.52 -0.71,0.639 -0.612,-1.87 -0.511,-2.82 0.303,-2.874 0.804,-6.34 1.689,-5.979 1.083,0.441 1.063,2.136 1.912,2.939 1.428,1.352 5.211,5.382 7.848,2.76 0.718,-0.713 1.023,-1.746 1.534,-2.62"
       id="path1020" /><path
       style="fill:none;stroke:#ffffff;stroke-width:0.410001"
       d="m 17409.599,36955.945 c -0.986,0.373 -2.93,0.07 -2.957,1.12 -0.04,1.422 1.726,2.303 2.846,3.18 4.305,3.368 13.398,5.12 7.158,12.079 -1.07,1.194 -6.116,2.334 -6.891,0.02 -0.255,-0.758 0.192,-1.587 0.289,-2.38"
       id="path1022" /><path
       style="fill:none;stroke:#ffffff;stroke-width:0.410001"
       d="m 17439.523,36956.785 c 0.149,1.22 0.347,2.435 0.445,3.66 1.104,13.831 -0.974,-6.729 0.667,10.099 0.149,1.53 0.331,3.056 0.534,4.58 0.759,5.714 0.366,2.174 0.311,1.66"
       id="path1024" /><path
       style="fill:none;stroke:#ffffff;stroke-width:0.410001"
       d="m 17438.879,36959.145 c -0.06,-1.554 -0.54,-3.148 -0.178,-4.66 1.633,-6.813 6.075,-0.479 6.825,2.32 0.886,3.306 -0.235,6.805 -2.823,8.979 -0.968,0.813 -0.641,-1.221 -0.2,-2.2 0.522,-1.16 1.304,-2.186 1.956,-3.279 m 0,0 c 1.097,-0.64 2.132,-1.399 3.29,-1.92 3.126,-1.406 -2.523,14.293 1.912,8.999 1.149,-1.371 2.091,-2.906 3.046,-4.42 0.79,-1.251 1.129,-2.815 2.157,-3.879 0.07,-0.07 0.107,0.179 0.111,0.28 0.146,3.701 -0.03,5.322 0.355,8.539 0.205,1.716 -0.236,1.531 0.579,1.7"
       id="path1026" /><path
       style="fill:none;stroke:#ffffff;stroke-width:0.410001"
       d="m 17458.087,36960.845 c 1.396,-0.165 -0.578,-3.543 0.689,-3.86 0.544,-0.136 0.04,1.12 0.07,1.68 0.189,4.384 0.912,8.672 -0.511,12.859"
       id="path1028" /><path
       style="fill:none;stroke:#ffffff;stroke-width:0.410001"
       d="m 17456.398,36966.084 c 0.583,-2.733 0.193,-2.295 2.69,-4.939 0.617,-0.655 1.404,-1.125 2.112,-1.68 2.04,-1.602 1.189,1.954 1.311,3.279 0.268,2.911 0.314,3.713 1.29,6.36 0.146,0.397 0.214,0.946 0.6,1.12 1.91,0.859 4.505,-5.971 6.003,-5.32 0.07,0.03 0.838,2.65 0.867,2.78 0.157,0.712 0.222,1.44 0.333,2.16"
       id="path1030" /><path
       style="fill:none;stroke:#ffffff;stroke-width:0.410001"
       d="m 17515.883,36962.282 c -1.037,-0.127 -2.101,-0.645 -3.112,-0.38 -0.966,0.253 -1.708,1.081 -2.379,1.82 -4.872,5.365 -1.649,13.184 4.402,14.719"
       id="path1032" /><path
       style="fill:none;stroke:#ffffff;stroke-width:0.410001"
       d="m 17506.835,36976.101 c 8.329,-3.055 4.978,-1.832 10.049,-3.68"
       id="path1034" /><path
       style="fill:none;stroke:#ffffff;stroke-width:0.410001"
       d="m 17518.418,36964.742 c 0.844,2.026 1.647,4.071 2.534,6.079 0.551,1.247 1.185,2.454 1.779,3.68 0.236,0.487 0.501,0.961 0.711,1.46 0.02,0.06 0,0.233 -0.02,0.18 -1.5,-2.769 -3.434,-8.039 -2.201,-11.199 0.205,-0.527 0.771,-0.827 1.156,-1.24"
       id="path1036" /><path
       style="fill:none;stroke:#ffffff;stroke-width:0.410001"
       d="m 17528.511,36969.521 c 0.08,0.345 1.049,2.52 -0.07,3 -3.061,1.319 -4.22,-12.221 -2.001,-12.299 1.905,-0.07 3.246,2.333 3.246,3.86 0,1.855 -0.785,3.626 -1.178,5.439 z"
       id="path1038" /><path
       style="fill:none;stroke:#ffffff;stroke-width:0.410001"
       d="m 17531.557,36958.542 c 0.852,1.3 1.975,2.458 2.556,3.9 0.51,1.265 0.515,2.682 0.645,4.04 0.06,0.581 -0.191,2.286 -0.333,1.72 -0.222,-0.883 -0.215,-9.796 1.045,-9.32 0.368,0.139 2.199,6.112 2.445,6.96 0.231,0.793 0.437,1.594 0.623,2.4 0.06,0.255 0,1.019 0.111,0.78 0.146,-0.329 -0.07,-0.732 0.02,-1.08 0.565,-2.202 1.143,-4.409 1.934,-6.54 0.211,-0.566 0.538,-1.152 1.045,-1.48 1.819,-1.176 3.39,8.691 3.624,10.339"
       id="path1040" /><path
       style="fill:none;stroke:#ffffff;stroke-width:0.410001"
       d="m 16792.925,37000.225 c 0.348,-0.953 0.697,-1.907 1.045,-2.86 0.01,-0.1 0.136,-0.343 0.04,-0.3 -1.024,0.483 -0.899,2.801 -1.089,3.16 -0.876,1.653 -2.449,2.887 -3.246,4.58 -2.756,5.854 -2.481,14.514 5.58,15.439 6.426,0.736 14.562,-3.923 14.651,-11 0.03,-2.399 -1.03,-5.331 -3.179,-6.699 -1.91,-1.217 -12.408,-3.151 -5.58,1.34"
       id="path1042" /><path
       style="fill:none;stroke:#ffffff;stroke-width:0.410001"
       d="m 16806.665,37013.864 c -0.543,8.008 5.961,11.776 12.828,13.439"
       id="path1044" /><path
       style="fill:none;stroke:#ffffff;stroke-width:0.410001"
       d="m 16829.653,37006.704 c -0.02,-0.114 -0.638,-4.223 -0.823,-4.859 -0.187,-0.642 -0.65,1.286 -0.511,1.94 0.222,1.046 1.279,1.851 1.334,2.919 0.09,1.681 -0.823,3.282 -0.934,4.96 -0.09,1.399 0.404,4.315 1.223,5.5"
       id="path1046" /><path
       style="fill:none;stroke:#ffffff;stroke-width:0.410001"
       d="m 16825.562,37013.244 c 4.655,-1.824 2.001,-1.296 8.07,-0.88"
       id="path1048" /><path
       style="fill:none;stroke:#ffffff;stroke-width:0.410001"
       d="m 16839.168,37016.504 c 2.512,0.92 -0.4,5.931 -2.579,2.34 -1.904,-3.139 0.232,-10.974 3.402,-7.18 0.586,0.702 1.207,1.466 1.4,2.36 0.262,1.212 0.193,2.512 -0.09,3.72 -0.217,0.933 -2.868,5.369 -4.58,3.28 -0.685,-0.838 -0.859,-1.987 -1.289,-2.98"
       id="path1050" /><path
       style="fill:none;stroke:#ffffff;stroke-width:0.410001"
       d="m 16870.293,37002.065 c -0.118,7.49 -0.324,3.433 0.467,9.919 0.134,1.101 1.41,9.115 0.289,10.339 -0.76,0.831 -0.972,-2.094 -1.023,-3.219 -0.259,-5.727 0.2,-11.967 2.401,-17.339 0.797,-1.944 3.248,-6.197 6.159,-4.42 0.567,0.346 1.088,0.887 1.289,1.52 1.148,3.62 -0.909,7.569 -2.423,10.679 -0.138,0.283 -3.637,5.36 -2.712,6.66 2.357,3.315 10.791,2.777 12.716,5.24 0.136,0.173 -0.03,0.44 -0.04,0.659"
       id="path1052" /><path
       style="fill:none;stroke:#ffffff;stroke-width:0.410001"
       d="m 16915.98,37002.405 c -0.954,-3.331 -0.973,-5.553 1.023,-8.26 0.216,-0.292 0.961,-0.842 0.978,-0.48 0.02,0.424 -0.192,0.827 -0.289,1.24"
       id="path1054" /><path
       style="fill:none;stroke:#ffffff;stroke-width:0.410001"
       d="m 16915.825,37007.264 c -0.643,4.044 -0.394,8.01 0.555,11.98 0.43,1.798 0.792,3.172 1.312,2.919 1.884,-0.916 2.802,-7.608 3.179,-9.499"
       id="path1056" /><path
       style="fill:none;stroke:#ffffff;stroke-width:0.410001"
       d="m 16921.583,37009.824 c 0.192,-0.8 0.391,-1.598 0.578,-2.4 2.771,-11.88 -0.577,2.059 -0.578,2.4 0,1.9 1.002,3.667 1.423,5.52 0.158,0.696 0.243,2.558 0.711,2.02 1.23,-1.413 2.688,-4.393 3.913,-6 0.363,-0.477 1.294,-1.335 1.601,-0.82 0.85,1.427 0.337,7.339 2.556,7.18"
       id="path1058" /><path
       style="fill:none;stroke:#ffffff;stroke-width:0.410001"
       d="m 16934.811,37007.804 c -0.593,0.06 -1.563,-0.375 -1.779,0.18 -1.485,3.834 11.975,8.579 7.248,14.02 -3.139,3.613 -7.147,0.12 -6.981,-3.72"
       id="path1060" /><path
       style="fill:none;stroke:#ffffff;stroke-width:0.410001"
       d="m 16941.036,37016.844 c 2.556,-2.072 2.229,-0.797 1.534,-3.64"
       id="path1062" /><path
       style="fill:none;stroke:#ffffff;stroke-width:0.410001"
       d="m 16941.747,37006.145 c -0.403,-2.31 -0.122,-4.56 0.89,-6.66"
       id="path1064" /><path
       style="fill:none;stroke:#ffffff;stroke-width:0.410001"
       d="m 16946.349,36999.505 c 0.593,0.707 1.251,1.364 1.779,2.12 2.611,3.734 7.898,10.734 5.847,15.799 -0.656,1.621 -2.708,2.762 -4.424,1.86 -3.502,-1.842 -2.476,-8.137 0.756,-9.6 3.5,-1.583 5.679,2.691 8.982,1.56 0.837,-0.287 1.534,-1.234 1.222,-2.14 -0.316,-0.917 -1.692,-0.918 -2.378,-0.48 -2.32,1.48 -4.379,3.398 -4.113,6.34 0.469,5.207 11.754,4.779 13.761,1.2 0.171,-0.305 -0.09,-0.693 -0.133,-1.04"
       id="path1066" /><path
       style="fill:none;stroke:#ffffff;stroke-width:0.410001"
       d="m 16995.988,37013.603 c -2.908,-0.987 -4.015,-0.791 -5.669,-3.819 -3.251,-5.95 3.318,-11.572 9.092,-5.44 2.773,2.944 2.276,8.088 0.512,11.299 -0.585,1.065 -1.165,2.766 -2.379,2.76 -1.133,0 -1.304,-1.853 -1.956,-2.78"
       id="path1068" /><path
       style="fill:none;stroke:#ffffff;stroke-width:0.410001"
       d="m 17006.037,36999.564 c -1.743,5.204 2.65,-4.639 2.023,-3.459 -1.935,3.637 -5.987,9.652 -2.512,13.859 1.511,1.829 3.616,2.692 5.269,4.179"
       id="path1070" /><path
       style="fill:none;stroke:#ffffff;stroke-width:0.410001"
       d="m 17003.48,37010.244 c 0.972,-3.983 6.104,-6.178 9.96,-5.26"
       id="path1072" /><path
       style="fill:none;stroke:#ffffff;stroke-width:0.410001"
       d="m 17040.563,36996.304 c -0.614,6.915 3.54,12.261 3.646,19.059"
       id="path1074" /><path
       style="fill:none;stroke:#ffffff;stroke-width:0.410001"
       d="m 17037.406,37006.744 c -1.416,-3.665 1.131,-10.398 5.736,-6.96 2.349,1.754 3.495,4.716 4.291,7.4 0.211,0.712 0.345,2.913 0.467,2.18 1.551,-9.3 4.058,-3.913 6.403,0.98 0.251,0.523 0.293,1.175 0.689,1.6 0.224,0.24 -0.09,-0.652 -0.111,-0.98 -0.07,-1.419 -0.252,-3.325 0.645,-4.56 0.867,-1.196 5.809,-3.076 5.58,-3.64 -0.509,-1.254 -1.899,-0.578 -2.601,-0.16 -2.371,1.412 -4.043,4.387 -3.313,7.2 1.092,4.204 10.493,4.723 12.005,1.02"
       id="path1076" /><path
       style="fill:none;stroke:#ffffff;stroke-width:0.410001"
       d="m 17107.4,37001.22 c -1.236,-1.46 3.091,-5.352 2.267,-7.319 -0.467,-1.115 -3.84,1.601 -6.069,4.98 -1.26,1.909 -3.647,6.452 -3.935,9.039 -0.167,1.495 -0.253,3.115 0.333,4.5 1.475,3.486 7.191,4.589 10.183,2.66 1.109,-0.716 1.675,-2.04 2.512,-3.06"
       id="path1078" /><path
       style="fill:none;stroke:#ffffff;stroke-width:0.410001"
       d="m 17113.758,36995.041 c -0.304,1.353 -1.006,2.676 -0.911,4.06 0.168,2.466 2.304,9.003 4.935,10.439 0.317,0.173 0.682,-0.24 1.023,-0.36"
       id="path1080" /><path
       style="fill:none;stroke:#ffffff;stroke-width:0.410001"
       d="m 17125.541,37007.84 c 0.514,4.162 -4.887,4.096 -5.869,0.62 -0.275,-0.973 -1.14,-6.812 1.845,-6.74 2.117,0.05 3.458,4.812 4.024,6.12 z"
       id="path1082" /><path
       style="fill:none;stroke:#ffffff;stroke-width:0.410001"
       d="m 17128.187,37000.66 c 0,-0.553 0.553,-1.659 0,-1.659 -0.666,0 -0.152,2.247 1.845,4.819 1.71,2.203 9.439,7.257 8.337,10.38 -0.674,1.911 -3.567,2.237 -5.046,1.52 -1.138,-0.552 -1.922,-1.723 -2.513,-2.84 -0.598,-1.132 -0.637,-2.48 -0.956,-3.72"
       id="path1084" /><path
       style="fill:none;stroke:#ffffff;stroke-width:0.410001"
       d="m 17140.192,37004.96 c 1.404,-0.185 2.202,-0.12 3.424,-1.04 2.456,-1.848 -0.756,-6.962 -3.49,-1.76 -3.581,6.813 -0.994,12.892 7.047,11.72 0.915,-0.134 1.734,-0.64 2.601,-0.96"
       id="path1086" /><path
       style="fill:none;stroke:#ffffff;stroke-width:0.410001"
       d="m 17149.441,36996.421 c 3.64,3.168 4.511,3.461 7.092,7.399 0.808,1.234 1.792,2.456 2.09,3.9 0.808,3.921 -1.188,7.455 -5.558,5.9 -2.449,-0.872 -5.478,-4.212 -3.357,-6.86 1.442,-1.802 4.081,-1.747 6.091,-1.8"
       id="path1088" /><path
       style="fill:none;stroke:#ffffff;stroke-width:0.410001"
       d="m 17180.166,36994.921 c 0.637,1.353 1.442,2.639 1.912,4.06 0.419,1.268 0.483,2.627 0.733,3.939 0.473,2.472 1.7,8.338 1.935,10.96 0.09,0.984 0.577,4.9 -0.756,6.099"
       id="path1090" /><path
       style="fill:none;stroke:#ffffff;stroke-width:0.410001"
       d="m 17180.299,37007.52 c -0.659,-3.2 -1.758,-6.34 -1.979,-9.599 -0.162,-2.398 -0.05,-4.929 0.845,-7.16 1.956,-4.886 8.912,1.417 8.938,5.98 0.03,4.757 -4.803,7.952 -7.804,10.779 z"
       id="path1092" /><path
       style="fill:none;stroke:#ffffff;stroke-width:0.410001"
       d="m 17203.649,37002.288 c -3.233,-0.766 -7.481,6.551 -5.848,8.039 2.27,2.068 10.345,-4.419 9.96,-7.16 -0.04,-0.268 -0.49,-0.243 -0.755,-0.299 -1.111,-0.238 -2.551,-1.379 -3.357,-0.58 -0.819,0.81 0.406,2.271 0.489,3.419 0.241,3.359 -0.3,5.77 4.624,5.9"
       id="path1094" /><path
       style="fill:none;stroke:#ffffff;stroke-width:0.410001"
       d="m 17212.608,37001.308 c -0.09,-0.687 0.42,-2.149 -0.267,-2.06 -0.686,0.09 0.139,1.379 0.267,2.06 0.332,1.761 0.75,3.504 1.112,5.259 0.223,1.085 0.693,2.153 0.644,3.26 -0.04,0.834 -0.592,1.56 -0.889,2.34"
       id="path1096" /><path
       style="fill:none;stroke:#ffffff;stroke-width:0.410001"
       d="m 17208.095,37008.587 c -0.215,-0.56 -0.874,-1.125 -0.645,-1.68 1.445,-3.501 6.269,-5.288 9.204,-7.199 0.215,1.167 0.383,2.343 0.645,3.5 2.069,9.122 4.204,-0.371 7.981,-1.58 0.197,-0.06 3.291,8.435 3.758,9.539"
       id="path1098" /></g></svg>
