<?xml version="1.0" encoding="UTF-8" standalone="no"?>
<!-- Created with Inkscape (http://www.inkscape.org/) -->

<svg
   width="1146.1536mm"
   height="902.92944mm"
   viewBox="0 0 1146.1535 902.92946"
   version="1.1"
   id="svg12"
   inkscape:version="1.2.1 (9c6d41e410, 2022-07-14, custom)"
   sodipodi:docname="change_square.svg"
   xml:space="preserve"
   xmlns:inkscape="http://www.inkscape.org/namespaces/inkscape"
   xmlns:sodipodi="http://sodipodi.sourceforge.net/DTD/sodipodi-0.dtd"
   xmlns="http://www.w3.org/2000/svg"
   xmlns:svg="http://www.w3.org/2000/svg"><sodipodi:namedview
     id="namedview14"
     pagecolor="#505050"
     bordercolor="#eeeeee"
     borderopacity="1"
     inkscape:showpageshadow="0"
     inkscape:pageopacity="0"
     inkscape:pagecheckerboard="0"
     inkscape:deskcolor="#505050"
     inkscape:document-units="mm"
     showgrid="true"
     inkscape:zoom="0.11226215"
     inkscape:cx="2663.4089"
     inkscape:cy="1389.6047"
     inkscape:window-width="1366"
     inkscape:window-height="746"
     inkscape:window-x="0"
     inkscape:window-y="0"
     inkscape:window-maximized="1"
     inkscape:current-layer="layer1"
     inkscape:lockguides="false"><inkscape:grid
       type="xygrid"
       id="grid344"
       color="#969696"
       opacity="0.39215686"
       empcolor="#000000"
       empopacity="0.17254902"
       dotted="false"
       originx="-723.47842"
       originy="-10079.076" /></sodipodi:namedview><defs
     id="defs9" /><g
     inkscape:label="Layer 1"
     inkscape:groupmode="layer"
     id="layer1"
     transform="translate(-828.47846,-10227.576)"><path
       style="fill:none;stroke:#ffffff;stroke-width:5.5"
       d="m 1124.8482,10922.585 c 7.954,-18.213 4.7448,-44.102 5.1416,-63.174 0.5505,-26.467 1.5997,-52.87 3.8561,-79.256 4.1865,-48.956 9.554,-97.621 11.919,-146.739 1.9114,-39.696 -1.1878,-79.385 -0.9349,-119.094 0.2875,-45.113 3.0035,-89.904 1.8697,-135.072 -0.2735,-10.897 0.7472,-21.919 -0.9348,-32.69 -0.7853,-5.029 -2.9603,-9.74 -4.4404,-14.611 5.1415,3.854 9.8019,8.452 15.4246,11.563 6.5966,3.649 52.7278,2.798 61.4647,2.838 41.5989,0.192 83.1849,0.878 124.7992,-1.787 27.6816,-1.773 55.0792,-3.733 82.8489,-4.1 47.9259,-0.632 95.7899,2.516 143.7293,1.262 31.0119,-0.812 62.2698,-1.211 93.2488,-2.943 9.6598,-0.541 34.5069,-5.196 43.5862,-3.154 0.9357,0.211 -2.2746,13.253 -3.2719,21.233 -2.9693,23.763 -4.6396,47.543 -5.2584,71.478 -0.6348,24.556 2.3807,48.67 3.0382,73.159 0.3624,13.5 -1.5245,26.887 -1.6359,40.364 -0.1767,21.382 0.2263,42.633 -0.2337,64.014 -0.9023,41.94 -1.9165,84.107 -0.117,126.032 1.1322,26.377 3.9061,52.659 4.791,79.046 0.7351,21.916 0.4433,43.77 1.636,65.696 0.2048,3.766 4.4849,56.189 3.5056,56.972 -3.1506,2.519 -8.0544,-0.613 -12.0359,-1.262 -31.0424,-5.055 -61.6991,-2.928 -93.1319,-1.787 -44.8799,1.63 -89.5892,0.46 -134.1474,-5.991 -36.4562,-5.278 -72.8162,-14.553 -109.6082,-17.134 -31.0258,-2.176 -62.3198,-3.343 -93.3657,-0.946 -20.8566,1.611 -41.4735,4.803 -62.2827,6.728 -26.8422,2.482 -52.9615,3.815 -79.4601,9.355 z"
       id="path1021" /><path
       style="fill:none;stroke:#ffffff;stroke-width:5.5"
       d="m 1377.4847,10983.551 c 1.3482,-8.024 4.6584,-9.411 -2.8045,-10.301 -8.8655,-1.058 -18.478,2.072 -24.7729,8.619 -19.8425,20.638 -4.6701,56.281 3.1551,78.52 1.8127,5.152 5.1415,10.095 5.1415,15.557 0,2.977 -4.4037,-4.018 -6.4269,-6.202"
       id="path1023" /><path
       style="fill:none;stroke:#ffffff;stroke-width:5.5"
       d="m 1332.0288,11048.091 c 14.4871,-5.564 29.8254,-7.475 44.6379,-11.773"
       id="path1025" /><path
       style="fill:none;stroke:#ffffff;stroke-width:5.5"
       d="m 1427.1472,10994.272 c 0.6622,-2.908 4.8947,-8.062 1.9865,-8.724 -2.9081,-0.662 -0.7404,6.014 -1.9865,8.724 -2.8042,6.098 -8.8217,10.851 -10.0494,17.449 -3.3233,17.863 0.1185,40.49 8.2966,56.972 3.5347,7.124 8.7768,13.284 13.6718,19.551 1.4835,1.9 2.9788,4.58 5.3753,4.836 1.7355,0.184 2.337,-2.593 3.5056,-3.89"
       id="path1027" /><path
       style="fill:none;stroke:#ffffff;stroke-width:5.5"
       d="m 1468.3964,11033.164 c 15.1617,-28.119 0.4163,-2.823 0,0 -0.9134,6.194 3.2782,12.385 2.5707,18.606 -0.5508,4.842 -3.857,8.967 -6.1932,13.244 -5.1033,9.343 -7.9102,1.707 -10.7505,-4.099"
       id="path1029" /><path
       style="fill:none;stroke:#ffffff;stroke-width:5.5"
       d="m 1450.5178,11040.628 c -0.6232,-4.555 -1.2501,-9.11 -1.8697,-13.665 -0.2763,-2.032 -1.1158,-4.068 -0.8179,-6.097 0.083,-0.566 1.5588,-0.04 1.636,0.526 0.8654,6.363 -3.2585,14.475 1.0516,19.236 4.559,5.035 13.9409,0.889 19.9819,3.994 12.2158,6.279 22.9871,37.175 20.3325,7.989"
       id="path1031" /><path
       style="fill:none;stroke:#ffffff;stroke-width:5.5"
       d="m 1475.7581,10996.375 c -1.0127,-3.854 -2.0254,-7.709 -3.0382,-11.563 0,-0.911 -0.2315,-3.614 0,-2.733 1.2381,4.712 0.051,10.447 3.0382,14.296 33.2565,42.848 7.8502,-17.735 33.1863,37.841 8.1164,17.803 10.1482,28.1 7.7123,47.091 -0.7785,6.069 -4.4856,16.041 -11.6853,11.037"
       id="path1033" /><path
       style="fill:none;stroke:#ffffff;stroke-width:5.5"
       d="m 900.13965,10677.879 c -3.27189,-1.086 -6.88692,-5.077 -9.81564,-3.258 -10.02864,6.227 -10.95111,29.687 -9.34823,37.631 4.61311,22.861 41.40189,1.762 36.92556,-17.029 -0.68127,-2.86 -5.85647,-8.609 -6.66062,-5.781 -2.10394,7.398 25.82638,45.127 27.22676,59.915 0.99587,10.516 -6.1664,29.48 -18.34594,31.534 -7.38264,1.245 -9.72151,-11.647 -12.73699,-18.5"
       id="path1035" /><path
       style="fill:none;stroke:#ffffff;stroke-width:5.5"
       d="m 955.8786,10670.732 c 2.41496,-3.574 10.81876,-8.307 7.2449,-10.722 -3.57388,-2.415 -5.35339,6.845 -7.2449,10.722 -4.38986,8.996 -9.19366,23.839 -8.29656,34.162 2.00943,23.121 28.39566,36.732 46.74123,23.125"
       id="path1037" /><path
       style="fill:none;stroke:#ffffff;stroke-width:5.5"
       d="m 1005.8917,10668.419 c -2.4585,2.626 -5.4087,66.243 -11.80213,56.761 -2.40676,-3.569 -3.97301,-7.638 -5.95953,-11.457"
       id="path1039" /><path
       style="fill:none;stroke:#ffffff;stroke-width:5.5"
       d="m 982.87166,10691.965 c 15.88902,3.147 26.67624,14.778 38.21104,25.227 6.1106,5.535 7.3519,8.291 7.0111,6.937 -0.6551,-2.603 -2.1812,-4.905 -3.2719,-7.357"
       id="path1041" /><path
       style="fill:none;stroke:#ffffff;stroke-width:5.5"
       d="m 1009.3973,10641.72 c 4.012,2.453 8.9199,3.837 12.0359,7.358 20.5633,23.24 21.4537,55.181 20.4493,84.091 -0.2596,7.474 -3.0524,16.589 -6.4269,7.989"
       id="path1043" /><path
       style="fill:none;stroke:#ffffff;stroke-width:5.5"
       d="m 1155.8199,10346.811 c -9.8961,-29.529 -3.5484,-60.682 -4.2067,-91.029 -0.022,-1 0.4213,-13.341 -1.1685,-14.295 -0.2194,-0.132 -2.3107,9.264 -2.9213,15.137 -1.9383,18.642 0.6576,37.332 -0.2338,56.025 -0.3036,6.367 -5.0754,35.788 -3.5055,24.492"
       id="path1045" /><path
       style="fill:none;stroke:#ffffff;stroke-width:5.5"
       d="m 869.06241,10259.987 c -2.2103,5.734 -39.88361,58.726 -37.74358,60.651 2.65358,2.387 36.30787,-5.142 45.10529,-6.412 8.38557,-1.21 21.08867,-4.061 30.14811,-2.838 1.9984,0.269 4.30154,2.943 6.07634,2.943 1.563,0 -2.1431,-2.278 -3.155,-3.469 -2.19506,-2.584 -4.33829,-5.213 -6.42694,-7.883 -11.29215,-14.439 -25.12062,-27.158 -34.00422,-42.992 z"
       id="path1049" /><path
       style="fill:none;stroke:#ffffff;stroke-width:5.5"
       d="m 946.06857,10272.811 c -8.1035,-5.066 -21.72928,12.093 -15.30774,17.869 2.74672,2.471 7.77523,-0.05 9.23139,-2.417 2.89878,-4.715 0.71602,-16.83 6.07635,-15.452 4.17816,1.074 23.20343,31.679 25.24027,38.051 4.20486,13.154 -27.24129,33.586 -32.25144,16.188 -1.03346,-3.589 1.63594,-7.288 2.4539,-10.932"
       id="path1051" /><path
       style="fill:none;stroke:#ffffff;stroke-width:5.5"
       d="m 1000.2884,10264.192 c -28.78134,10.437 -5.32806,45.899 18.5797,31.113"
       id="path1053" /><path
       style="fill:none;stroke:#ffffff;stroke-width:5.5"
       d="m 1032.8904,10262.72 c -8.4741,0.88 -3.4023,32.283 -7.9459,40.048 -1.4233,2.433 -2.874,-4.867 -3.9731,-7.463"
       id="path1055" /><path
       style="fill:none;stroke:#ffffff;stroke-width:5.5"
       d="m 1015.1288,10278.067 c 7.7832,3.687 19.7157,16.401 30.6155,16.818 2.0497,0.08 -0.4898,-4.155 -1.4022,-5.992"
       id="path1057" /><path
       style="fill:none;stroke:#ffffff;stroke-width:5.5"
       d="m 1027.0478,10237.072 c 5.4921,3.013 12.0839,4.573 16.4763,9.04 14.1443,14.383 19.1599,40.458 18.8133,59.6 -0.026,1.42 -1.1061,14.87 -4.3235,17.764 -1.2615,1.135 -2.5864,-2.396 -3.1551,-3.994"
       id="path1059" /><path
       style="fill:none;stroke:#ffffff;stroke-width:5.5"
       d="m 1147.0559,10239.28 c 8.4113,-0.36 16.9509,0.219 25.3572,-0.631 9.5869,-0.969 18.457,-5.614 28.0447,-6.728 30.5797,-3.549 61.5289,-0.301 92.0803,1.472 42.2743,2.454 84.4419,3.856 126.6688,7.253 67.9292,5.465 135.5608,2.76 203.5581,1.051 28.5932,-0.718 57.2039,1.502 85.7701,0.526 9.143,-0.312 18.1823,-1.966 27.3437,-2.102 19.558,-0.291 38.9961,1.368 58.5434,1.786 12.283,0.264 24.5615,-0.724 36.8088,-1.366 4.7857,-0.251 9.6928,-1.892 14.3729,-1.892 0.5112,0 1.5191,-0.721 1.5191,-0.21 0,6.306 -3.1446,12.294 -3.272,18.71 -0.4748,23.92 1.0752,47.876 -0.2337,71.898 -1.7658,32.406 -5.2278,64.911 -4.9078,97.441 0.5668,57.624 6.3517,114.984 6.8944,172.597 0.4179,44.36 -2.2102,88.463 -3.7393,132.759 -1.2206,35.358 1.3726,70.531 1.8696,105.849 0.3976,28.262 -0.6372,56.575 0.1168,84.828 0.079,2.943 2.8823,17.122 0.4675,19.656 -0.5007,0.525 -22.7566,-2.926 -24.3055,-3.153 -27.4631,-4.043 -54.6809,-2.313 -82.3815,-2.313 -13.2907,0 -27.5635,2.782 -40.3142,-1.997"
       id="path1061" /><path
       style="fill:none;stroke:#ffffff;stroke-width:5.5"
       d="m 1800.0311,11035.957 c -5.7804,26.428 -23.9508,49.132 -40.4312,69.9 -3.6246,4.568 -8.5369,8.419 -12.0358,13.14 -0.6913,0.933 3.2796,-3.003 12.1527,-6.412 12.1436,-4.666 19.8749,-6.645 32.8357,-9.04 8.9971,-1.663 19.4876,0.02 28.1617,-1.892 0.5,-0.11 -0.4463,-0.923 -0.7012,-1.367 -3.4458,-6.003 -6.9385,-11.98 -10.4,-17.974 -2.1059,-3.647 -23.1319,-34.964 -22.5526,-37.421 1.2051,-5.11 8.6004,-6.025 12.9707,-8.934 z"
       id="path1063" /><path
       style="fill:none;stroke:#ffffff;stroke-width:5.5"
       d="m 1879.2575,11047.099 c -16.8176,-18.945 -29.6979,4.716 -29.2132,21.969 0.432,15.38 8.4294,27.152 16.3595,39.523 1.0434,1.627 4.2797,5.891 2.4538,5.255 -1.2554,-0.437 -2.2592,-1.401 -3.3887,-2.102"
       id="path1065" /><path
       style="fill:none;stroke:#ffffff;stroke-width:5.5"
       d="m 1844.2017,11095.136 c -3.6225,-3.469 -8.6423,-5.912 -10.8675,-10.406 -3.0205,-6.102 40.6038,-6.449 42.301,-6.518"
       id="path1067" /><path
       style="fill:none;stroke:#ffffff;stroke-width:5.5"
       d="m 1911.8596,11047.204 c 1.1295,-3.013 6.402,-7.91 3.3887,-9.04 -3.0132,-1.129 -2.1817,6.057 -3.3887,9.04 -2.494,6.163 -6.7095,11.822 -7.7124,18.395 -1.2116,7.94 5.1126,26.35 13.6719,29.747 1.9191,0.762 4.1288,-0.07 6.1931,-0.105"
       id="path1069" /><path
       style="fill:none;stroke:#ffffff;stroke-width:5.5"
       d="m 1940.8391,11055.403 c 2.4838,-54.236 -2.1946,30.941 -2.2201,31.219 -0.3257,3.553 -0.7578,11.755 -3.8562,9.985 -2.2183,-1.266 -3.2719,-3.924 -4.9078,-5.886"
       id="path1071" /><path
       style="fill:none;stroke:#ffffff;stroke-width:5.5"
       d="m 1916.1832,11063.812 c 20.3476,-0.883 43.2136,37.149 35.0559,7.463"
       id="path1073" /><path
       style="fill:none;stroke:#ffffff;stroke-width:5.5"
       d="m 1941.774,11006.42 c 30.3303,40.944 35.778,74.427 25.2402,123.508"
       id="path1075" /><path
       style="fill:none;stroke:#ffffff;stroke-width:5.5"
       d="m 1692.4094,10241.19 c 5.8707,0.72 7.2683,12.881 7.7123,19.026 1.1658,16.129 0.1029,27.98 -0.1168,44.147 -0.1243,9.146 1.9685,18.393 0.5842,27.435 -0.5655,3.694 -2.1812,7.148 -3.2718,10.722 18.1122,-0.561 36.216,-1.776 54.3367,-1.682 20.6938,0.108 60.7043,9.922 80.1612,2.943 2.3131,-0.829 3.5835,-3.363 5.3752,-5.045"
       id="path1077" /><path
       style="fill:none;stroke:#ffffff;stroke-width:5.5"
       d="m 1138.1751,10919.701 c 5.2481,-23.348 -4.8449,-47.327 -2.5708,-70.847 0.167,-1.728 0.8859,3.356 1.2854,5.045"
       id="path1079" /><path
       style="fill:none;stroke:#ffffff;stroke-width:5.5"
       d="m 1168.7906,10910.976 c -5.4515,-36.017 -17.7625,-70.609 -26.8762,-105.744"
       id="path1081" /><path
       style="fill:none;stroke:#ffffff;stroke-width:5.5"
       d="m 1196.3679,10907.718 c -0.4674,-5.571 -0.085,-11.28 -1.4022,-16.714 -6.2224,-25.659 -16.1599,-50.283 -23.3706,-75.682 -14.586,-51.377 -3.6191,-17.554 -19.0471,-68.219 -2.2753,-7.471 -4.7852,-14.87 -7.2449,-22.284 -1.5207,-4.583 -7.3084,-16.906 -3.3887,-14.085"
       id="path1083" /><path
       style="fill:none;stroke:#ffffff;stroke-width:5.5"
       d="m 1240.5384,10887.956 c 2.415,4.38 2.8652,15.554 7.2449,13.139 4.3797,-2.415 -5.5734,-8.425 -7.2449,-13.139 -4.1244,-11.631 -6.5009,-23.813 -10.0493,-35.633 -6.8133,-22.695 -14.3354,-45.175 -21.0336,-67.904 -13.217,-44.85 -24.0719,-90.383 -36.3413,-135.492 -4.5457,-16.713 -8.6051,-38.997 -18.9302,-53.924"
       id="path1085" /><path
       style="fill:none;stroke:#ffffff;stroke-width:5.5"
       d="m 1164.3502,10479.904 c 36.4485,85.212 70.1175,171.779 107.1543,256.793 6.5324,14.994 16.0091,30.852 21.0336,46.671"
       id="path1087" /><path
       style="fill:none;stroke:#ffffff;stroke-width:5.5"
       d="m 1270.9203,10738.589 c 2.4149,2.943 5.2469,5.589 7.2448,8.83 11.4267,18.534 19.1333,40.607 28.629,60.125 13.5878,27.929 27.4051,55.561 38.211,84.722"
       id="path1089" /><path
       style="fill:none;stroke:#ffffff;stroke-width:5.5"
       d="m 1168.2064,10387.613 c 2.6486,3.224 5.7222,6.141 7.9459,9.671 6.8453,10.866 9.9407,25.746 14.7236,37.526 13.0688,32.186 27.567,63.995 42.5345,95.338 27.9781,58.589 59.124,115.586 87.523,173.964 19.0598,39.179 34.89,79.82 53.5187,119.199 9.7963,20.709 20.7778,40.707 32.0177,60.651 6.6729,11.84 15.7674,24.786 20.5662,37.736"
       id="path1091" /><path
       style="fill:none;stroke:#ffffff;stroke-width:5.5"
       d="m 1260.1697,10348.827 c 17.5452,34.508 35.1348,68.979 53.4019,103.116 21.607,40.379 45.4357,79.943 64.7366,121.512 30.2996,65.258 56.9959,131.889 91.3792,195.197 19.556,36.007 37.8719,72.564 57.9591,108.267 5.7691,10.254 12.0548,20.189 18.1123,30.273 2.0492,3.411 8.2002,13.604 6.5437,9.986"
       id="path1095" /><path
       style="fill:none;stroke:#ffffff;stroke-width:5.5"
       d="m 1407.6384,10359.338 c 6.2018,37.45 23.9104,71.159 36.9256,106.375 7.0341,19.033 11.727,38.631 17.8785,57.918 7.7297,24.235 18.1561,47.432 27.2268,71.162 25.445,66.567 53.0976,132.475 76.1882,199.927 10.6613,31.144 19.0771,62.698 31.5503,93.236 4.4298,10.846 10.2622,20.559 16.5932,30.378 9.7227,14.576 -0.889,-1.667 4.5573,7.358 0.2294,0.38 0.737,1.488 0.8179,1.051 0.1809,-0.977 -0.3116,-1.962 -0.4674,-2.943"
       id="path1097" /><path
       style="fill:none;stroke:#ffffff;stroke-width:5.5"
       d="m 1494.9277,10353.767 c 5.0667,33.775 13.8643,66.925 24.5391,99.333 16.4525,49.949 30.7613,100.616 44.1705,151.469 6.7324,25.532 11.2262,51.561 17.7617,77.153 8.0889,31.677 18.9538,62.825 28.8626,93.972 10.7446,33.775 21.5141,67.4 33.6538,100.7 0.4606,1.263 15.9541,47.518 10.8673,38.366"
       id="path1099" /><path
       style="fill:none;stroke:#ffffff;stroke-width:5.5"
       d="m 1576.9585,10356.71 c 2.5811,68.961 21.9152,135.419 35.7571,202.555 7.5449,36.594 13.434,73.596 21.6179,110.054 6.8175,30.372 13.6607,60.386 19.2806,91.029 8.7384,47.647 8.7405,97.281 28.0449,142.429"
       id="path1101" /><path
       style="fill:none;stroke:#00ffff;stroke-width:5.5"
       d="m 1823.2849,10916.757 c -12.7418,0.532 -32.2006,21.533 -44.8715,20.603 -4.3155,-0.317 3.8452,-7.856 6.6606,-11.142 10.0106,-11.684 21.116,-21.805 31.9009,-32.691 1.9362,-1.954 6.18,-8.628 3.7393,-7.358 -7.7745,4.045 -28.1752,18.972 -35.6402,24.071 -7.7006,5.261 -15.4292,10.483 -23.2538,15.557 -0.562,0.365 -2.3129,1.238 -1.8697,0.736 15.8569,-17.973 38.1041,-31.87 57.3749,-45.725 5.2767,-3.793 11.2072,-6.834 15.7752,-11.457 0.5059,-0.512 -1.1435,0.878 -1.7528,1.261 -4.183,2.631 -8.4135,5.186 -12.6202,7.779 -20.3895,12.567 -29.2225,18.4 -52.9344,30.588 -1.3398,0.689 -5.0754,2.207 -4.4404,0.841 5.0984,-10.967 47.7215,-37.588 59.4782,-45.935 3.1412,-2.23 12.511,-8.833 8.9977,-7.253 -26.092,11.736 -63.4622,40.074 -86.8218,43.938 -1.1377,0.188 0.8116,-2.242 1.6359,-3.048 3.6622,-3.584 7.5669,-6.938 11.6853,-9.986 14.7079,-10.886 32.2991,-21.747 48.0266,-31.009 4.6352,-2.73 9.29,-5.45 14.1392,-7.778 0.9611,-0.462 3.9366,-1.251 3.155,-0.526 -19.2902,17.895 -45.2879,31.604 -67.1905,45.515 -7.0813,4.497 -14.0925,9.108 -21.2673,13.454 -0.4815,0.292 -2.1185,0.71 -1.6359,0.421 21.6762,-13.018 44.6017,-27.251 67.8917,-37.947 6.5187,-2.993 13.096,-5.979 19.9819,-7.988 0.8115,-0.237 2.5652,0.96 1.9864,1.576 -18.0617,19.229 -45.0955,25.485 -64.8534,41.941 -2.7231,2.268 6.9448,-1.419 10.3999,-2.208 5.8555,-1.335 19.7035,-5.553 21.3841,-3.363 3.948,5.143 -53.1835,32.676 -58.1928,34.162 -4.4372,1.316 3.7575,-8.869 7.3617,-11.773 8.4848,-6.836 17.7425,-12.664 26.8763,-18.605 3.5389,-2.302 7.3837,-4.096 11.101,-6.097 1.6366,-0.881 6.7736,-3.047 5.0247,-2.417 -15.0095,5.401 -29.0813,13.259 -44.1706,18.5 -2.2426,0.779 -8.2176,3.758 -6.8943,1.787 14.9513,-22.268 75.3346,-45.295 86.705,-66.537 0.5525,-1.033 -2.3903,-0.567 -3.5055,-0.211 -6.2177,1.985 -12.2304,4.576 -18.2291,7.148 -28.2275,12.103 -11.7033,6.693 -43.4693,19.972 -5.0775,2.122 -10.0643,5.036 -15.5415,5.571 -1.3688,0.133 -0.394,-3.028 0.4674,-4.1 17.685,-22.014 51.0522,-35.377 74.6691,-49.824 0.6751,-0.413 -1.501,0.511 -2.2202,0.841 -5.0085,2.299 -9.9795,4.678 -14.9572,7.043 -5.4223,2.576 -10.8306,5.181 -16.2425,7.778 -4.5362,2.177 -25.6041,12.539 -31.3167,14.506 -0.4239,0.146 -0.824,-0.989 -0.4674,-1.261 9.6395,-7.353 19.6713,-14.182 29.6807,-21.023 11.7187,-8.01 24.3544,-14.672 35.757,-23.125 1.2131,-0.9 -2.8666,0.985 -4.2067,1.681 -6.6917,3.478 -13.2506,7.205 -19.865,10.827 -22.6508,12.405 -45.8245,27.914 -69.7613,37.841 -0.8283,0.344 0.2257,-1.973 0.9348,-2.522 6.6924,-5.184 13.8003,-9.817 20.9167,-14.401 18.3992,-11.851 41.4879,-25.015 60.6468,-34.793 7.5136,-3.834 15.2317,-7.271 23.02,-10.511 1.5868,-0.66 5.7299,-2.724 5.0247,-1.156 -5.1651,11.479 -65.6496,37.078 -77.7072,42.571 -4.5194,2.059 -22.8709,10.882 -24.7729,8.724 -0.6081,-0.689 3.5393,-4.502 11.4516,-10.932 17.1064,-13.901 53.9405,-35.458 63.9186,-54.028 0.8012,-1.491 -3.4463,0.124 -5.0247,0.736 -6.3389,2.455 -12.5503,5.269 -18.5797,8.409 -4.2151,2.195 -45.1779,26.236 -48.7277,27.855 -3.2948,1.503 5.4966,-4.75 8.5304,-6.727 19.611,-12.783 39.4729,-25.179 59.3613,-37.526 2.3663,-1.469 33.6904,-19.573 39.1458,-23.861 0.9253,-0.727 -2.4058,0 -3.5056,0.42 -5.561,2.119 -10.9216,4.731 -16.3594,7.148 -45.1879,20.088 -1.6081,0.937 -56.6739,25.963 -7.5949,3.452 -14.5744,10.571 -22.9031,10.091 -4.567,-0.263 4.7745,-8.012 8.2965,-10.931 7.5195,-6.233 16.1499,-10.996 24.4224,-16.188 15.18,-9.527 30.672,-18.548 45.9232,-27.96 3.4857,-2.152 7.084,-4.17 10.2831,-6.728 0.4421,-0.353 0.7924,-1.773 0.2337,-1.681 -8.0911,1.316 -30.2457,11.393 -33.6537,13.034 -16.4849,7.936 -32.6844,16.453 -48.9614,24.806 -3.0441,1.563 -5.6747,4.126 -8.9978,4.941 -2.505,0.614 4.2277,-2.962 6.427,-4.31 6.7229,-4.12 13.5352,-8.092 20.3324,-12.088 14.0028,-8.232 28.3269,-15.933 42.0672,-24.596 3.3595,-2.119 11.8624,-4.807 9.1144,-7.674 -2.9738,-3.103 -8.1052,2.886 -12.0358,4.625 -19.3621,8.565 -32.0251,15.597 -51.4154,25.122 -6.231,3.061 -12.5485,5.944 -18.8133,8.935 -3.2004,1.528 -6.0819,4.053 -9.582,4.625 -1.9192,0.314 2.9208,-2.571 4.4405,-3.784 5.4146,-4.323 10.8152,-8.668 16.3593,-12.824 10.443,-7.828 59.3034,-37.979 62.2828,-50.665 0.3343,-1.423 -2.9515,0.231 -4.3236,0.736 -4.8507,1.784 -9.6882,3.679 -14.256,6.096 -13.0976,6.933 -27.8122,17.321 -40.1975,25.333 -7.1302,4.612 -14.3387,9.102 -21.5009,13.665 -1.9134,1.219 -7.5341,5.049 -5.7259,3.679 26.5142,-20.092 54.4726,-36.688 82.2646,-54.87 2.6064,-1.705 8.4828,-3.627 6.8943,-6.306 -3.4185,-5.766 -61.0455,33.052 -67.8917,34.372 -3.1767,0.612 3.5965,-5.491 6.0764,-7.568 5.5354,-4.638 11.847,-8.261 17.7618,-12.404 25.7986,-18.069 26.067,-18.178 49.4287,-35.003 5.4261,-3.908 11.2548,-7.319 16.2427,-11.773 0.5866,-0.523 0.2982,-2.492 -0.4675,-2.312 -23.8409,5.587 -53.5518,25.597 -75.6039,35.844 -13.298,6.179 -26.6623,12.229 -40.1975,17.869 -0.4086,0.17 -1.4814,-0.317 -1.1685,-0.631 25.086,-25.104 60.5905,-43.443 88.6915,-65.486 0.8501,-0.666 10.9223,-6.568 10.7505,-11.667 -0.075,-2.236 -6.942,0.705 -16.9437,6.517 -21.1172,12.27 -40.6248,26.779 -60.8804,40.364 -3.8605,2.589 -15.4011,10.249 -12.036,7.042 24.4018,-23.254 53.931,-40.868 80.6287,-61.281 5.2238,-3.994 10.4418,-8.008 15.4246,-12.299 1.4213,-1.224 4.004,-2.347 3.7394,-4.204 -0.3201,-2.245 -10.9189,2.573 -16.7101,5.361 -24.3664,11.729 -47.2777,26.023 -70.2288,40.258 -4.1151,2.553 -8.0259,5.446 -12.2695,7.779 -2.1483,1.181 3.9523,-2.902 5.9594,-4.31 5.2381,-3.673 10.4887,-7.329 15.7752,-10.932 37.1931,-25.349 8.5556,-5.478 53.7525,-35.633 13.1058,-8.745 26.4413,-17.171 39.1458,-26.489 1.1238,-0.824 3.3765,-3.781 1.9865,-3.679 -15.1975,1.116 -44.583,18.893 -57.0244,25.438 -11.7821,6.197 -23.4949,12.528 -35.1726,18.92 -9.3176,5.101 -18.5477,10.359 -27.8112,15.557 -2.8503,1.599 -10.2991,7.584 -8.5302,4.835 2.1575,-3.352 6.4724,-4.661 9.8156,-6.832 8.8509,-5.749 17.7984,-11.348 26.7594,-16.924 20.3101,-12.636 40.9773,-24.694 61.231,-37.42 7.2986,-4.586 14.6214,-9.156 21.6179,-14.191 1.7992,-1.294 5.3915,-2.632 4.674,-4.73 -0.5697,-1.665 -16.4887,3.537 -26.993,7.884 -24.9638,10.331 -49.2203,23.258 -73.3837,35.318 -4.3294,2.161 -8.2143,7.405 -12.9707,6.517 -3.3547,-0.626 4.3236,-5.301 6.7774,-7.673 4.8805,-4.717 10.0775,-9.096 15.191,-13.56 18.1858,-15.874 18.268,-15.129 38.2109,-32.795 0.797,-0.706 19.6711,-16.743 22.7864,-22.705 0.4715,-0.902 0.1978,-3.014 -0.8179,-2.943 -18.1949,1.271 -67.9808,37.664 -75.7209,42.676 -7.2947,4.724 -14.4744,9.624 -21.7347,14.401 -2.166,1.425 -8.2042,6.196 -6.5438,4.204 8.4974,-10.191 21.0024,-16.231 31.7841,-23.966 18.9563,-13.598 31.995,-22.393 51.5322,-35.844 7.9476,-5.471 18.333,-8.938 23.2538,-17.238 0.7953,-1.342 -3.0253,0.816 -4.4405,1.471 -3.9724,1.839 -7.8452,3.891 -11.6853,5.992 -26.8204,14.673 -51.9893,31.945 -77.941,48.037 -0.9666,0.599 1.757,-1.448 2.6876,-2.103 12.5867,-8.842 25.1993,-17.648 37.8605,-26.383 7.6479,-5.277 66.0219,-42.808 66.0219,-48.563 0,-2.142 -8.8934,0.118 -17.1773,3.259 -24.2044,9.176 -46.2855,24.324 -68.2423,37.736 -7.6047,4.645 -15.1278,9.424 -22.7863,13.98 -2.0048,1.192 -6.9379,5.469 -6.1932,3.259 1.0612,-3.151 4.7543,-4.666 7.3618,-6.728 7.0614,-5.584 14.3268,-10.907 21.6177,-16.187 8.224,-5.957 49.0963,-34.299 54.6873,-38.157 4.305,-2.97 25.1139,-16.482 30.6155,-22.179 0.4639,-0.48 -0.992,-1.333 -1.6359,-1.156 -4.7203,1.296 -9.2302,3.303 -13.6719,5.361 -28.1448,13.037 -37.1976,17.971 -62.1658,31.954 -5.8374,3.27 -11.5932,6.683 -17.4111,9.986 -1.1547,0.656 -4.5272,2.741 -3.5056,1.892 21.3587,-17.735 44.349,-33.437 65.7883,-51.085 4.7775,-3.933 9.4801,-7.973 13.9055,-12.298 2.9877,-2.92 10.8383,-10.617 6.6607,-10.617 -16.4619,0 -49.3905,23.912 -62.3997,31.639 -24.8194,14.743 -49.9242,29.065 -43.8198,22.81 26.2889,-26.936 69.1065,-49.185 102.0128,-68.009 6.8265,-3.905 13.6962,-7.734 20.566,-11.562 1.1155,-0.622 4.5136,-2.392 3.3888,-1.787 -16.5894,8.919 -22.8322,12.191 -42.4176,22.284 -9.327,4.807 -18.6179,9.688 -28.0448,14.295 -10.7912,5.275 -21.3849,11.053 -32.6021,15.347 -2.0758,0.795 -7.9053,1.526 -6.6606,-0.315 6.3217,-9.353 97.6664,-63.843 91.496,-70.216 -3.4161,-3.528 -56.4438,30.249 -61.1142,33.111 -4.8664,2.982 -9.7076,6.006 -14.6066,8.934 -1.023,0.612 -4.1341,2.362 -3.155,1.682 30.7655,-21.349 63.9736,-39.413 96.9881,-56.972 7.4118,-3.942 14.9104,-7.719 22.3189,-11.667 1.863,-0.993 7.5698,-3.528 5.4921,-3.154 -2.6352,0.474 -4.8194,2.335 -7.245,3.469 -9.4157,4.402 -18.8038,8.865 -28.2783,13.139 -20.0967,9.066 -63.2622,31.786 -89.2758,36.79 -0.896,0.173 -2.259,-1.343 -1.7528,-2.102 4.1552,-6.23 26.4714,-20.652 28.1616,-21.759 22.7158,-14.88 48.7939,-25.327 70.813,-40.889 0.351,-0.248 -0.8763,-0.03 -1.2854,0.105 -4.2768,1.379 -8.5167,2.872 -12.7371,4.415 -5.5573,2.031 -11.05,4.236 -16.593,6.307 -8.5779,3.204 -42.332,15.611 -50.5975,18.605 -1.5794,0.572 -26.6348,9.864 -28.2783,9.25 -1.743,-0.651 3.1305,-5.522 16.8267,-12.298 20.7772,-10.28 44.1509,-19.809 67.1907,-23.756 1.4094,-0.242 -2.7971,0.601 -4.2069,0.841 -3.6949,0.628 -7.4136,1.115 -11.101,1.787 -18.3557,3.341 -36.2778,8.088 -54.3366,12.718 -3.3905,0.87 -6.7884,1.711 -10.1663,2.628 -0.7524,0.205 -2.9378,1.041 -2.2202,0.736 20.0067,-8.498 40.8889,-14.5 61.8153,-20.182 8.3045,-2.255 33.4448,-8.099 25.0066,-6.412 -15.1424,3.027 -30.3836,5.622 -45.5727,8.409 -16.0037,2.937 -29.001,5.724 -44.8717,7.253 -4.0153,0.387 -14.643,1.817 -12.0358,-1.261 8.0441,-9.497 46.0514,-10.751 58.4266,-11.773 7.5348,-0.622 18.5796,-0.995 18.5796,-2.207 0,-2.981 -5.9003,-1.098 -8.8808,-1.052 -10.1267,0.158 -16.8175,0.862 -26.7594,3.049 -0.3098,0.07 -34.4786,8.866 -19.1639,7.778"
       id="path1168" /><path
       style="fill:none;stroke:#ff00ff;stroke-width:5.5"
       d="m 1681.7758,10291.645 c 0.1947,-4.976 0.4394,-9.95 0.5842,-14.927 0.069,-2.377 -1.9649,-22.421 -1.7527,-11.352 0.7914,41.285 2.8926,11.202 -1.636,46.881 -0.6732,5.304 -0.5038,7.965 -1.0516,7.883 -0.727,-0.109 -0.7444,-1.287 -0.9349,-1.997 -0.9037,-3.368 -1.5581,-6.797 -2.3371,-10.196 2.376,-5.431 8.0054,-10.43 7.1281,-16.292 -1.2557,-8.391 -9.058,-14.382 -12.8539,-21.969 -1.1139,-2.227 0.1352,-5.314 -1.2854,-7.358 -0.221,-0.318 -0.097,0.769 -0.1168,1.156 -0.1745,3.328 -0.1467,6.669 -0.4674,9.986 -0.1367,1.414 -3.8059,37.442 -6.0764,38.577 -0.8789,0.439 -1.2505,-6.673 -1.519,-13.035 -0.4785,-11.335 -0.3506,-18.487 -0.3506,-29.957 0,-8.331 -0.2121,-13.927 -1.2853,-11.352 -6.9032,16.559 -6.5192,39.427 -18.346,53.713 -2.0587,2.487 -1.6432,-6.339 -1.5191,-9.565 0.522,-13.564 3.3216,-35.786 4.5572,-47.827 0.1933,-1.884 0.5165,-7.415 -0.2336,-5.676 -9.5745,22.194 -9.6012,51.073 -26.0583,70.216 -3.7302,4.339 0.2926,-11.463 1.0517,-17.134 1.2882,-9.624 8.2872,-39.725 7.5955,-54.659 -0.049,-1.051 -0.5747,2.025 -0.818,3.048 -2.6392,11.1 -4.7741,22.328 -7.8292,33.321 -4.1378,14.889 -7.753,23.767 -15.074,36.685 -2.6778,4.725 -8.8952,18.131 -10.0494,12.824 -4.5061,-20.718 14.5652,-57.931 17.0605,-80.097 0.3217,-2.857 -3.2185,4.809 -4.3235,7.463 -2.6315,6.321 -4.8861,12.794 -7.4786,19.131 -6.6927,16.36 -8.4558,20.779 -16.4763,35.318 -2.6407,4.787 -9.1148,18.561 -9.8157,13.14 -1.8388,-14.226 5.2701,-33.053 7.8291,-46.987 1.1064,-6.023 2.2238,-12.045 3.2719,-18.079 0.6721,-3.869 3.6723,-8.31 1.636,-11.668 -0.3697,-0.609 -4.0338,10.152 -4.0898,10.301 -4.4075,11.794 -12.688,40.319 -22.4358,45.83 -3.6454,2.061 0.3215,-8.407 1.1684,-12.509 1.3924,-6.742 12.7191,-53.773 11.6854,-54.238 -0.9762,-0.439 -1.6136,1.519 -1.9865,2.523 -3.9313,10.576 -7.251,21.371 -10.8673,32.059 -6.2008,18.327 -7.2075,22.698 -15.5415,41.415 -2.5625,5.755 -5.3044,11.444 -8.4134,16.924 -0.7329,1.291 -2.543,4.658 -3.0382,3.258 -3.9456,-11.155 15.0429,-67.05 19.047,-80.097 1.0963,-3.572 2.4153,-7.084 3.2719,-10.721 0.1313,-0.558 -0.035,-2.16 -0.3505,-1.682 -15.7735,23.863 -26.44,50.63 -45.1054,72.633 -8.269,9.749 -14.7137,15.921 -16.3594,14.296 -8.5506,-8.446 14.3549,-65.643 18.6965,-76.838 3.5768,-9.223 -7.44,18.34 -11.5684,27.329 -2.1312,4.641 -30.567,54.129 -34.8223,49.509 -3.974,-4.314 20.6389,-55.822 24.4223,-63.699 2.1866,-4.553 4.5475,-9.026 6.5438,-13.665 0.3517,-0.817 1.0406,-3.308 0.4674,-2.628 -18.4221,21.869 -33.4865,46.157 -52.467,67.694 -2.7893,3.164 -8.6861,12.053 -9.8157,7.988 -4.5349,-16.317 20.4952,-46.676 22.6695,-62.648 0.1059,-0.777 -1.5207,0.631 -1.9864,1.262 -2.6482,3.588 -4.7917,7.523 -7.245,11.247 -3.7791,5.736 -7.554,11.477 -11.4516,17.134 -7.2037,10.454 -26.3846,39.399 -37.1593,44.568 -1.4885,0.714 -0.8617,-3.371 -0.3505,-4.94 1.7958,-5.515 4.3534,-10.78 7.128,-15.873 12.4714,-22.892 28.6571,-42.252 43.1188,-63.699 0.3236,-0.48 -1.1204,0.422 -1.5191,0.841 -4.2176,4.437 -8.0931,9.189 -12.2696,13.665 -8.4327,9.037 -26.2177,26.976 -34.2379,34.688 -4.0958,3.937 -8.2595,7.815 -12.6202,11.457 -21.5872,18.032 11.6951,-32.772 8.4135,-40.889 -0.9076,-2.245 -41.7867,46.187 -43.3525,44.778 -1.8798,-1.691 19.8164,-36.865 21.6178,-39.628 3.2407,-4.97 6.954,-9.622 10.1662,-14.611 0.9258,-1.437 3.7345,-5.419 2.2202,-4.625 -3.6649,1.924 -6.286,5.397 -9.2314,8.304 -19.5241,19.275 -28.1528,29.702 -47.4424,46.776 -5.5053,4.873 -10.9505,9.891 -17.0605,13.98 -2.217,1.484 -7.8648,5.177 -7.5954,2.523 2.6325,-25.941 23.805,-50 37.9772,-70.531 5.0925,-7.378 13.5621,-18.861 12.2696,-19.657 -1.5735,-0.968 -3.0182,2.161 -4.3235,3.469 -20.1263,20.162 -39.1793,43.258 -62.2828,60.335 -2.2953,1.697 -6.5474,6.02 -7.8291,3.469 -1.7706,-3.523 1.902,-7.787 3.973,-11.142 9.3874,-15.21 23.4003,-29.633 35.757,-42.256 5.625,-5.746 19.0393,-24.667 17.2943,-16.818 -1.8107,8.145 -11.6434,11.954 -17.528,17.869 -18.609,18.706 -37.5709,37.807 -58.7771,53.609 -3.2352,2.41 -8.6524,9.569 -10.5168,5.991 -8.8543,-16.991 41.5007,-69.82 37.9772,-73.895 -0.887,-1.026 -7.7666,6.312 -14.7234,13.875 -17.7152,19.258 -32.9516,41.199 -51.5323,59.6 -2.3261,2.303 -8.1028,8.523 -8.2965,5.255 -0.3822,-6.447 32.3073,-46.78 38.0941,-57.497 2.0636,-3.822 -6.7744,5.516 -9.582,8.829 -12.2679,14.48 -25.5533,39.186 -39.2626,50.455 -0.6496,0.534 -0.2499,-1.72 0,-2.522 1.944,-6.246 4.4342,-12.309 6.5437,-18.501 3.227,-9.471 6.8859,-18.818 9.4652,-28.485 0.9394,-3.522 2.0987,-10.389 -1.5191,-10.827 -8.2602,-1 -22.3698,33.678 -25.0066,40.048 -0.6889,1.665 -1.7129,3.351 -1.6359,5.151 0.202,4.726 4.5498,-8.347 6.0763,-12.824 1.6357,-4.797 3.1649,-9.651 4.2067,-14.611 0.6778,-3.227 2.0926,-11.959 -0.4673,-9.881 -6.1895,5.025 -15.9253,44.137 -17.528,43.938 -7.2273,-0.897 -8.0934,-35.26 -8.8809,-41.73 -1.8361,-15.085 -8.5147,30.829 -10.3999,25.648 -4.7051,-12.933 -0.8037,-32.033 0.5843,-45.41"
       id="path1233" /><path
       style="fill:none;stroke:#ff00ff;stroke-width:5.5"
       d="m 1706.5487,10324.861 c 2.376,-7.008 4.4048,-14.143 7.128,-21.023 8.1987,-20.715 22.6008,-39.461 39.0289,-54.239 0.3803,-0.342 7.8645,-7.77 10.0494,-7.989 0.8823,-0.09 -1.2105,1.299 -1.8697,1.892"
       id="path1235" /><path
       style="fill:none;stroke:#ff00ff;stroke-width:5.5"
       d="m 1725.5957,10311.301 c 14.6275,-17.756 31.7955,-32.782 49.7794,-46.986 5.0182,-3.964 10.2087,-7.704 15.3078,-11.563 2.4154,-1.828 9.5536,-7.428 7.0111,-5.781 -5.0209,3.252 -9.8935,6.727 -14.8403,10.091"
       id="path1237" /><path
       style="fill:none;stroke:#ff00ff;stroke-width:5.5"
       d="m 1736.9305,10319.605 c 19.6109,-21.5 41.5946,-40.268 64.0355,-58.654 1.54,-1.261 2.9743,-2.647 4.4404,-3.994 0.365,-0.335 1.4483,-1.349 1.0517,-1.051 -5.0948,3.819 -8.4507,7.643 -13.3213,12.403"
       id="path1239" /><path
       style="fill:none;stroke:#ff00ff;stroke-width:5.5"
       d="m 1823.2849,10270.937 c 3.7393,-2.242 7.2414,-8.516 11.2179,-6.727 3.4982,1.573 -5.3333,5.522 -8.1797,8.094 -17.1348,15.477 -33.8608,31.299 -51.5322,46.144 6.6996,1.121 13.4411,4.713 20.0987,3.364 5.7471,-1.164 31.2759,-30.609 35.1728,-36.579 0.7089,-1.086 0.078,-2.593 0.1169,-3.89"
       id="path1241" /><path
       style="fill:none;stroke:#00ffff;stroke-width:5.5"
       d="m 1722.7912,10297.531 c 19.9212,24.022 58.4467,19.673 81.4466,33.742 3.1457,1.924 -6.7427,-2.993 -10.0492,-4.626"
       id="path1245" /><path
       style="fill:none;stroke:#00ffff;stroke-width:5.5"
       d="m 1727.4654,10284.392 c 6.4658,1.576 13.0592,2.7 19.3975,4.73 21.9078,7.014 43.6038,16.58 64.9704,25.122 3.4051,1.361 6.7872,2.78 10.1663,4.204 0.3611,0.153 1.4161,0.67 1.0517,0.526 -8.2059,-3.248 -5.5607,-2.091 -13.0876,-6.307"
       id="path1247" /><path
       style="fill:none;stroke:#00ffff;stroke-width:5.5"
       d="m 1782.1526,10290.698 c 3.4279,0.946 8.6215,4.796 10.5167,1.787 1.8989,-3.014 -4.785,-5.504 -7.946,-7.147 -18.9209,-9.837 -39.7738,-15.655 -58.5433,-25.858 29.1888,-2.91 56.5162,6.962 83.0826,18.29 13.1215,5.594 11.6308,5.409 6.7774,6.622"
       id="path1249" /><path
       style="fill:none;stroke:#00ffff;stroke-width:5.5"
       d="m 1799.0963,10251.281 c 18.2118,-4.009 38.0056,21.52 53.9861,18.395"
       id="path1251" /></g></svg>
