<?xml version="1.0" encoding="UTF-8" standalone="no"?>
<!-- Created with Inkscape (http://www.inkscape.org/) -->

<svg
   width="1942.5765mm"
   height="619.979mm"
   viewBox="0 0 1942.5765 619.97901"
   version="1.1"
   id="svg12"
   inkscape:version="1.2.1 (9c6d41e410, 2022-07-14, custom)"
   sodipodi:docname="combinatorics_pascalls_pascalls_property.svg"
   xml:space="preserve"
   xmlns:inkscape="http://www.inkscape.org/namespaces/inkscape"
   xmlns:sodipodi="http://sodipodi.sourceforge.net/DTD/sodipodi-0.dtd"
   xmlns="http://www.w3.org/2000/svg"
   xmlns:svg="http://www.w3.org/2000/svg"><sodipodi:namedview
     id="namedview14"
     pagecolor="#505050"
     bordercolor="#eeeeee"
     borderopacity="1"
     inkscape:showpageshadow="0"
     inkscape:pageopacity="0"
     inkscape:pagecheckerboard="0"
     inkscape:deskcolor="#505050"
     inkscape:document-units="mm"
     showgrid="true"
     inkscape:zoom="0.047217406"
     inkscape:cx="4214.5475"
     inkscape:cy="847.14522"
     inkscape:window-width="1366"
     inkscape:window-height="746"
     inkscape:window-x="0"
     inkscape:window-y="0"
     inkscape:window-maximized="1"
     inkscape:current-layer="layer1"
     inkscape:lockguides="false"><inkscape:grid
       type="xygrid"
       id="grid344"
       color="#969696"
       opacity="0.39215686"
       empcolor="#000000"
       empopacity="0.17254902"
       dotted="false"
       originx="-2515.3414"
       originy="-8932.2556" /></sodipodi:namedview><defs
     id="defs9" /><g
     inkscape:label="Layer 1"
     inkscape:groupmode="layer"
     id="layer1"
     transform="translate(-2620.3417,-9080.756)"><path
       style="fill:none;stroke:#ffffff;stroke-width:5.5"
       d="m 2672.0396,9302.3063 c -69.791,79.1333 -61.2724,174.8529 1.2054,253.4498 12.8495,16.1647 26.6745,31.3359 41.8865,45.2686 2.5761,2.3595 10.1169,9.294 6.931,7.861"
       id="path3539" /><path
       style="fill:none;stroke:#ffffff;stroke-width:5.5"
       d="m 2785.3444,9380.9163 c 4.3259,-76.4325 16.669,-117.0678 54.2416,-24.1251"
       id="path3541" /><path
       style="fill:none;stroke:#ffffff;stroke-width:5.5"
       d="m 2827.5323,9466.5743 c 12.9577,12.1077 29.5111,21.2617 38.8732,36.3233 6.6685,10.7282 14.374,88.9896 -24.7102,67.2252 -36.8916,-20.5434 17.1402,-61.551 33.4492,-69.3938 12.9475,-6.2262 23.3733,-6.715 36.7635,-8.1321"
       id="path3543" /><path
       style="fill:none;stroke:#ffffff;stroke-width:5.5"
       d="m 2925.1671,9249.9898 c 14.0627,9.126 31.9203,14.126 42.1881,27.378 48.7668,62.9404 44.1914,162.9664 30.1343,236.3726 -10.0845,52.6608 -26.2754,100.9755 -35.2573,80.7786"
       id="path3545" /><path
       style="fill:none;stroke:#ffffff;stroke-width:5.5"
       d="m 3136.107,9384.1692 c 5.4758,-13.1087 141.0909,-3.6466 81.9651,10.0295"
       id="path3547" /><path
       style="fill:none;stroke:#ffffff;stroke-width:5.5"
       d="m 3125.2584,9465.761 c 40.3128,32.2044 89.2858,-5.5996 134.7001,4.3372"
       id="path3549" /><path
       style="fill:none;stroke:#ffffff;stroke-width:5.5"
       d="m 3386.5225,9291.1924 c 1.4063,-16.8063 1.9774,-33.7035 4.2187,-50.4189 15.85,-118.2042 48.1585,119.3117 62.9804,50.4189"
       id="path3551" /><path
       style="fill:none;stroke:#ffffff;stroke-width:5.5"
       d="m 3481.7466,9242.1289 c 10.4268,-1.6429 82.9352,11.2619 75.6369,-5.1504"
       id="path3553" /><path
       style="fill:none;stroke:#ffffff;stroke-width:5.5"
       d="m 3569.4373,9191.7099 c 40.2484,26.0779 47.5851,56.7817 55.4469,99.2115"
       id="path3555" /><path
       style="fill:none;stroke:#ffffff;stroke-width:5.5"
       d="m 3519.1131,9463.5924 c 8.739,17.981 18.6498,35.4382 26.2169,53.9429 13.6271,33.324 18.8653,52.7632 15.0669,88.3686 -3.2675,30.6301 -28.9819,-4.257 -31.0382,-11.656 -6.1609,-22.1682 -11.4458,-128.1339 -10.2456,-130.6555 6.8423,-14.3757 31.8209,-1.7657 47.6121,-3.7949 12.4056,-1.5942 24.8212,-10.2441 35.8595,2.1685"
       id="path3559" /><path
       style="fill:none;stroke:#ffffff;stroke-width:5.5"
       d="m 3702.0279,9197.1313 c 10.7478,12.0174 24.0438,22.1706 32.2435,36.0523 66.5901,112.7339 30.6584,258.3413 2.4108,376.2442"
       id="path3561" /><path
       style="fill:none;stroke:#ffffff;stroke-width:5.5"
       d="m 3351.5666,9151.5916 c -91.544,110.2204 -99.5232,264.3615 -39.4757,391.9663 27.5575,58.5613 76.7766,108.0613 119.9342,155.3227"
       id="path3563" /><path
       style="fill:none;stroke:#ffffff;stroke-width:5.5"
       d="m 3905.7353,9313.149 c 3.8126,50.3152 7.3021,100.6674 13.8617,150.7145 1.965,14.9919 13.9725,57.6707 5.7256,44.9976 -2.8623,-4.3987 -5.0223,-9.2163 -7.5335,-13.8245"
       id="path3565" /><path
       style="fill:none;stroke:#ffffff;stroke-width:5.5"
       d="m 3863.8488,9448.1416 c 6.5781,-11.2407 186.5712,-33.549 149.7671,-15.7221"
       id="path3567" /><path
       style="fill:none;stroke:#ffffff;stroke-width:5.5"
       d="m 4114.867,9278.4522 c 2.8124,-13.2824 4.3414,-26.9029 8.4374,-39.8472 30.6384,-96.8239 36.388,25.3468 52.4337,54.2139"
       id="path3569" /><path
       style="fill:none;stroke:#ffffff;stroke-width:5.5"
       d="m 4207.6803,9237.5206 c 34.4465,0.6742 80.8308,21.6649 116.017,11.1138 2.367,-0.7097 -4.8216,-1.0843 -7.2325,-1.6264"
       id="path3571" /><path
       style="fill:none;stroke:#ffffff;stroke-width:5.5"
       d="m 4332.7374,9168.9402 c 26.614,30.929 34.4041,68.6843 46.7081,105.9881"
       id="path3573" /><path
       style="fill:none;stroke:#ffffff;stroke-width:5.5"
       d="m 4163.9856,9447.5995 c 5.3237,9.6681 10.9819,19.1594 15.9712,29.0043 10.5844,20.8848 21.7935,41.5208 30.7369,63.1592 13.7131,33.1781 -8.1503,47.427 -13.2591,6.5057 -2.7925,-22.3687 20.0619,-99.0945 53.639,-65.8698"
       id="path3575" /><path
       style="fill:none;stroke:#ffffff;stroke-width:5.5"
       d="m 4292.9601,9490.4284 c 30.3312,-3.2297 60.547,-10.1863 91.0054,-12.4693"
       id="path3577" /><path
       style="fill:none;stroke:#ffffff;stroke-width:5.5"
       d="m 4414.7024,9411.5472 c 14.4787,33.7324 36.4625,71.2758 36.4625,109.7831"
       id="path3579" /><path
       style="fill:none;stroke:#ffffff;stroke-width:5.5"
       d="m 4486.7235,9171.9218 c 85.8327,133.0584 97.8311,327.0791 28.3261,469.4922"
       id="path3581" /><path
       style="fill:none;stroke:#ffffff;stroke-width:5.5"
       d="m 4047.9689,9081.9269 c -70.2786,149.3426 -102.8739,332.1049 -7.2322,477.0821 21.4251,32.4769 56.6482,72.4654 92.512,91.3503"
       id="path3583" /></g></svg>
