<?xml version="1.0" encoding="UTF-8" standalone="no"?>
<!-- Created with Inkscape (http://www.inkscape.org/) -->

<svg
   width="777.16211mm"
   height="279.38498mm"
   viewBox="0 0 777.16209 279.38498"
   version="1.1"
   id="svg12"
   inkscape:version="1.2.1 (9c6d41e410, 2022-07-14, custom)"
   sodipodi:docname="combinatorics_triangle_feature.svg"
   xml:space="preserve"
   xmlns:inkscape="http://www.inkscape.org/namespaces/inkscape"
   xmlns:sodipodi="http://sodipodi.sourceforge.net/DTD/sodipodi-0.dtd"
   xmlns="http://www.w3.org/2000/svg"
   xmlns:svg="http://www.w3.org/2000/svg"><sodipodi:namedview
     id="namedview14"
     pagecolor="#505050"
     bordercolor="#eeeeee"
     borderopacity="1"
     inkscape:showpageshadow="0"
     inkscape:pageopacity="0"
     inkscape:pagecheckerboard="0"
     inkscape:deskcolor="#505050"
     inkscape:document-units="mm"
     showgrid="true"
     inkscape:zoom="0.12176488"
     inkscape:cx="2759.4163"
     inkscape:cy="1511.109"
     inkscape:window-width="1366"
     inkscape:window-height="746"
     inkscape:window-x="0"
     inkscape:window-y="0"
     inkscape:window-maximized="1"
     inkscape:current-layer="layer1"
     inkscape:lockguides="false"><inkscape:grid
       type="xygrid"
       id="grid344"
       color="#969696"
       opacity="0.39215686"
       empcolor="#000000"
       empopacity="0.17254902"
       dotted="false"
       originx="-746.92782"
       originy="-10062.901" /></sodipodi:namedview><defs
     id="defs9" /><g
     inkscape:label="Layer 1"
     inkscape:groupmode="layer"
     id="layer1"
     transform="translate(-851.92786,-10211.401)"><path
       style="fill:none;stroke:#ffffff;stroke-width:5.5"
       d="m 934.84505,10344.142 c -20.04375,28.926 -42.99993,55.671 -65.32089,82.83 -4.09096,4.978 -8.07614,10.042 -12.15274,15.032 -0.79126,0.968 -3.50049,3.522 -2.45393,2.837 29.61638,-19.374 81.43814,-12.394 116.38571,-15.556 3.24588,-0.294 20.37289,1.133 23.37062,-2.103 0.56843,-0.613 -1.00214,-1.339 -1.51905,-1.997 -3.42239,-4.353 -6.88232,-8.68 -10.16625,-13.139 -2.91126,-3.953 -5.69923,-7.997 -8.41343,-12.088 -7.19349,-10.842 -12.2538,-23.064 -19.98189,-33.532 -5.89507,-7.984 -13.16543,-14.856 -19.74815,-22.284 z"
       id="path1154" /><path
       style="fill:none;stroke:#ffffff;stroke-width:5.5"
       d="m 1087.3384,10266.989 c -36.6731,56.264 -62.9704,126.085 -36.6919,191.728 2.2129,5.527 16.0897,23.816 16.7099,29.116 0.1036,0.885 -1.3243,-1.191 -1.9864,-1.787"
       id="path1158" /><path
       style="fill:none;stroke:#ffffff;stroke-width:5.5"
       d="m 1176.9647,10264.992 c -12.4447,17.848 -20.5145,37.472 -28.0447,57.707 -0.5581,1.5 -1.1315,6.218 -1.2854,4.625 -0.2293,-2.371 0,-4.765 0,-7.148"
       id="path1168" /><path
       style="fill:none;stroke:#ffffff;stroke-width:5.5"
       d="m 1145.2975,10275.398 c 12.386,6.891 37.716,58.363 48.0266,59.599"
       id="path1170" /><path
       style="fill:none;stroke:#ffffff;stroke-width:5.5"
       d="m 1155.6974,10415.515 c 3.7393,11.562 8.3177,22.886 11.2179,34.687 5.3593,21.807 -4.747,41.663 -3.7393,12.088 0.5179,-15.198 4.3276,-37.731 24.0718,-36.789 3.5119,0.167 4.0653,2.406 5.0247,4.625"
       id="path1206" /><path
       style="fill:none;stroke:#ffffff;stroke-width:5.5"
       d="m 1217.5127,10262.154 c 13.2703,26.016 13.626,24.364 22.6696,50.349 15.4956,44.524 18.8212,89.381 -6.5438,131.287 -1.3139,2.171 -26.5046,36.945 -21.0336,19.446"
       id="path1210" /><path
       style="fill:none;stroke:#ffffff;stroke-width:5.5"
       d="m 1305.2694,10350.134 c 0.917,-6.857 58.9165,-25.314 35.6402,-3.889"
       id="path1212" /><path
       style="fill:none;stroke:#ffffff;stroke-width:5.5"
       d="m 1303.984,10374.205 c 15.4397,8.984 32.4488,1.601 49.1952,3.679"
       id="path1214" /><path
       style="fill:none;stroke:#ffffff;stroke-width:5.5"
       d="m 1466.1761,10232.406 c -41.8432,57.789 -54.8117,146.305 -19.1638,210.438"
       id="path1218" /><path
       style="fill:none;stroke:#ffffff;stroke-width:5.5"
       d="m 1536.8723,10252.483 c -17.1456,13.862 -27.4622,41.561 -33.8874,62.753 -0.8755,2.888 0.3462,-6.025 0.4674,-9.04"
       id="path1220" /><path
       style="fill:none;stroke:#ffffff;stroke-width:5.5"
       d="m 1493.4029,10261.628 c 13.4684,20.95 30.5248,39.981 42.4177,61.912"
       id="path1222" /><path
       style="fill:none;stroke:#ffffff;stroke-width:5.5"
       d="m 1474.4728,10382.194 c 4.2066,4.52 9.5106,8.225 12.62,13.559 14.2317,24.415 -11.4302,54.116 -8.0628,14.611 0.5255,-6.165 2.0943,-12.264 4.2067,-18.079 0.5268,-1.451 14.1275,-30.189 20.4493,-18.816"
       id="path1224" /><path
       style="fill:none;stroke:#ffffff;stroke-width:5.5"
       d="m 1532.6656,10394.492 c 8.4002,0.405 17.0685,-0.02 25.0066,2.418"
       id="path1226" /><path
       style="fill:none;stroke:#ffffff;stroke-width:5.5"
       d="m 1569.0069,10363.483 c 5.6607,15.269 17.1774,32.446 17.1774,49.404"
       id="path1228" /><path
       style="fill:none;stroke:#ffffff;stroke-width:5.5"
       d="m 1600.7909,10212.119 c 16.4937,60.986 47.7229,190.515 0.7011,243.129"
       id="path1230" /></g></svg>
