<?xml version="1.0" encoding="UTF-8" standalone="no"?>
<!-- Created with Inkscape (http://www.inkscape.org/) -->

<svg
   width="1995.9562mm"
   height="1252.0321mm"
   viewBox="0 0 1995.9561 1252.0322"
   version="1.1"
   id="svg12"
   inkscape:version="1.2.2 (b0a8486541, 2022-12-01)"
   sodipodi:docname="complex_differentiable.svg"
   xml:space="preserve"
   inkscape:export-filename="complex_differentiable.png"
   inkscape:export-xdpi="529.18311"
   inkscape:export-ydpi="529.18311"
   xmlns:inkscape="http://www.inkscape.org/namespaces/inkscape"
   xmlns:sodipodi="http://sodipodi.sourceforge.net/DTD/sodipodi-0.dtd"
   xmlns="http://www.w3.org/2000/svg"
   xmlns:svg="http://www.w3.org/2000/svg"><sodipodi:namedview
     id="namedview14"
     pagecolor="#000000"
     bordercolor="#ffffff"
     borderopacity="1"
     inkscape:showpageshadow="0"
     inkscape:pageopacity="0"
     inkscape:pagecheckerboard="0"
     inkscape:deskcolor="#000000"
     inkscape:document-units="mm"
     showgrid="true"
     inkscape:zoom="0.085547631"
     inkscape:cx="6651.2654"
     inkscape:cy="2980.7956"
     inkscape:window-width="1366"
     inkscape:window-height="746"
     inkscape:window-x="1360"
     inkscape:window-y="0"
     inkscape:window-maximized="1"
     inkscape:current-layer="layer1"
     inkscape:lockguides="true"
     showguides="false"><sodipodi:guide
       position="3265.6758,-22192.731"
       orientation="0,-1"
       id="guide3409"
       inkscape:locked="true" /><inkscape:grid
       type="xygrid"
       id="grid299"
       color="#dea02b"
       opacity="0.14901961"
       empcolor="#ffffff"
       empopacity="0.30196078"
       originx="324.35186"
       originy="-84.763201"
       enabled="false"
       visible="true" /></sodipodi:namedview><defs
     id="defs9"><rect
       x="587.26367"
       y="362.45731"
       width="66.575974"
       height="20.973427"
       id="rect1884" /></defs><g
     inkscape:label="Layer 1"
     inkscape:groupmode="layer"
     id="layer1"
     transform="translate(346.63724,-195.12523)"><path
       style="fill:none;stroke:#00ffff;stroke-width:3.325;stroke-dasharray:none"
       d="m -307.52885,245.23903 c 5.05185,-22.83693 -0.78887,-6.57977 14.18372,18.30232 8.71648,4.79621 6.64174,1.569 8.91947,7.65166"
       id="path794" /><path
       style="fill:none;stroke:#00ffff;stroke-width:3.325;stroke-dasharray:none"
       d="m -286.36053,232.59663 c -7.01403,2.10008 -6.99158,2.83147 -11.30462,-0.78905 -0.78887,-0.78905 -2.85209,-3.01357 -2.09659,-2.35805 15.36187,11.87733 37.29114,64.9106 19.13058,80.22 -13.21612,11.13896 -29.6627,0.21243 -35.11142,-13.39868 -8.81813,-22.18233 22.26971,-39.80728 39.70086,-41.67975 5.13074,-0.56448 7.43123,2.69794 5.76215,6.97459"
       id="path796" /><path
       style="fill:none;stroke:#00ffff;stroke-width:3.325;stroke-dasharray:none"
       d="m -244.36708,277.95426 c 8.0062,11.0376 36.66884,-4.97708 21.8516,-16.30906 -17.29826,-13.21446 -24.80837,26.45078 -23.02884,35.16888 2.35753,11.74653 20.51627,13.31977 28.73698,9.35601 7.25069,-3.50976 7.03648,-8.65619 8.99836,-15.46933"
       id="path798" /><path
       style="fill:none;stroke:#00ffff;stroke-width:3.325;stroke-dasharray:none"
       d="m -211.55615,254.43237 c 4.97296,4.83051 10.70143,8.97242 14.89067,14.473 6.17934,8.08079 9.63007,20.53139 9.19042,30.57327 -0.0607,1.308 -2.35753,-1.83909 -2.83086,-3.06971 -1.56865,-4.37892 -2.6397,-8.97211 -2.6397,-13.55527 0,-7.57276 7.37479,-36.43318 20.22894,-29.49804 2.09659,1.30801 3.24774,3.93888 4.83764,5.90271"
       id="path800" /><path
       style="fill:none;stroke:#00ffff;stroke-width:3.325;stroke-dasharray:none"
       d="m -154.93933,286.91878 c 9.86703,11.0376 11.82891,-4.89818 8.58147,-11.19571"
       id="path802" /><path
       style="fill:none;stroke:#00ffff;stroke-width:3.325;stroke-dasharray:none"
       d="m -149.23909,261.17572 c -5.60436,-10.04431 -3.19131,-18.27531 0,-28.42796 3.74383,4.43537 8.24317,8.28381 11.23149,13.26757 2.69432,4.51428 3.34909,9.98816 5.52548,14.78802 1.82656,4.27726 9.88919,18.74813 13.60814,23.12675 12.16843,14.3941 7.84842,-42.43238 7.64543,-43.82748 -0.12136,-1.01666 -1.56865,-1.569 -2.09659,-2.35805"
       id="path804" /><path
       style="fill:none;stroke:#00ffff;stroke-width:3.325;stroke-dasharray:none"
       d="m -61.423685,259.7967 c -4.837638,-27.4811 -27.142539,10.22488 -19.809317,19.92716 11.827699,15.65354 32.31363,-5.60893 37.659792,-16.02015 1.826554,-3.35194 4.003249,-10.43943 0,-11.35352 -8.378485,-2.10008 -12.195438,34.9704 3.326635,35.55157 2.909744,0.12139 5.051849,-2.81024 7.566547,-4.22081"
       id="path806" /><path
       style="fill:none;stroke:#00ffff;stroke-width:3.325;stroke-dasharray:none"
       d="m -23.847332,249.9879 c -2.096593,-31.39358 -0.788877,18.0914 -0.788877,26.58735 0.03034,3.27304 1.568652,11.64122 -1.013404,9.72838 -1.307716,-1.01666 -1.838691,-2.81024 -2.909744,-4.22081"
       id="path808" /><path
       style="fill:none;stroke:#00ffff;stroke-width:3.325;stroke-dasharray:none"
       d="m -36.518523,267.7655 c 24.991938,-3.20506 15.780278,-6.65867 29.50371,1.569"
       id="path810" /><path
       style="fill:none;stroke:#00ffff;stroke-width:3.325;stroke-dasharray:none"
       d="M 2.5057231,248.99369 C 7.8958794,236.93246 17.761701,231.2164 28.941003,225.31703 c 4.916527,-2.61904 9.314518,-3.96133 9.686504,-3.30673 0,0.56448 -15.047229,19.61276 -14.969555,26.06263 0,6.91815 14.498353,23.88637 14.105735,24.43719 -0.788878,1.308 -3.191009,-0.0607 -4.758448,-0.12139"
       id="path812" /><path
       style="fill:none;stroke:#00ffff;stroke-width:3.325;stroke-dasharray:none"
       d="m 16.871787,260.71746 c 2.357529,-1.83909 4.082137,-4.55949 6.856254,-5.42836 9.844279,-3.09247 27.854956,-0.78905 35.624488,-10.64277 0.788878,-0.56447 8.89702,-14.29 5.683255,-12.95256 -9.37065,3.96134 -22.217821,36.86048 -3.326332,29.95932 10.362814,-3.78076 24.572316,-9.17544 30.26346,-20.29437 1.568652,-3.14861 3.326635,-9.3557 -1.016439,-11.87823 -5.965126,-3.43086 -30.340223,1.01666 -19.285927,9.35601 2.988631,2.35804 20.908891,7.78731 21.929273,8.26135 11.231191,5.4059 24.023441,16.51785 18.528301,30.64762 -4.08214,10.56356 -39.188999,37.09446 -39.188999,15.47084"
       id="path814" /><path
       style="fill:none;stroke:#00ffff;stroke-width:3.325;stroke-dasharray:none"
       d="m -297.32805,395.26083 c -13.47646,6.557 -27.87772,19.29743 -26.27083,36.16308 1.82655,18.0392 8.79568,35.13974 10.12645,53.24995 0,1.569 1.01644,7.96789 -1.82655,7.21192"
       id="path816" /><path
       style="fill:none;stroke:#00ffff;stroke-width:3.325;stroke-dasharray:none"
       d="m -337.03134,451.95863 c 10.22779,-2.10008 41.75224,-8.126 49.04815,1.01666"
       id="path818" /><path
       style="fill:none;stroke:#00ffff;stroke-width:3.325;stroke-dasharray:none"
       d="m -230.67975,423.30276 c -2.09659,-2.35805 -5.25483,-4.22112 -6.65297,-7.21192 -0.78887,-1.83909 0.0607,-4.24327 0.78888,-6.29723 3.32664,-12.77017 10.20534,14.263 6.02156,13.47637 -5.05185,-1.01666 -8.73924,-17.25288 -2.98863,-14.1853"
       id="path820" /><path
       style="fill:none;stroke:#00ffff;stroke-width:3.325;stroke-dasharray:none"
       d="m -228.8089,461.99626 c -2.09659,-3.4873 -5.68355,-6.42165 -6.30373,-10.40575 -4.71355,-29.40851 23.99734,16.38705 6.30373,10.40575 -5.39015,-1.83909 -5.80735,-18.61612 0,-17.25288 11.59316,2.85575 0.78888,13.37288 0,17.25288 -0.78887,3.46484 1.82656,6.99705 1.30772,10.48435 0,1.01666 -2.77321,1.569 -2.90974,0.56448 -0.78888,-3.70186 1.0134,-7.36973 1.56865,-11.0376 z"
       id="path822" /><path
       style="fill:none;stroke:#00ffff;stroke-width:3.325;stroke-dasharray:none"
       d="m -107.58606,373.11796 c -33.06154,-9.57057 -72.90106,86.34241 -38.67714,96.84619 22.7931,6.99705 50.531846,-14.4991 69.10657,-25.74762 3.191312,-1.83909 18.109893,-10.08952 11.305826,-7.34727"
       id="path824" /><path
       style="fill:none;stroke:#00ffff;stroke-width:3.325;stroke-dasharray:none"
       d="m -132.7473,388.13358 c 1.30772,21.60571 -0.78888,43.61202 3.66494,64.97403 1.82656,9.31079 1.01644,9.35571 4.36401,6.9746"
       id="path826" /><path
       style="fill:none;stroke:#00ffff;stroke-width:3.325;stroke-dasharray:none"
       d="m -28.949851,411.50434 c -2.35753,-0.21244 -6.438757,-3.27274 -6.777064,-1.01667 0,2.35805 4.634655,0.21244 6.777064,1.01667 35.2209464,10.48465 12.875388,9.25434 60.189218,9.9654 10.148604,0.12139 20.28052,-0.78905 30.429428,-1.30801 9.945619,-0.56447 19.888205,-1.308 29.842927,-2.10008 13.765298,-1.01666 -21.641637,-18.27532 -34.77068,-22.60235 -9.968376,-3.27273 -19.993187,-4.16436 -18.266759,-8.41916 3.405523,-8.52083 32.646476,-6.65867 38.087302,-4.37892 31.925865,13.45057 -10.723877,66.67443 -24.233098,79.98965"
       id="path828" /><path
       style="fill:none;stroke:#00ffff;stroke-width:3.325;stroke-dasharray:none"
       d="m 178.64141,350.51349 c -12.19423,20.42517 -47.66883,57.72145 -40.886,83.13372 1.30772,4.77405 5.54793,9.8525 10.46446,10.48465 21.74662,2.85576 47.95434,-4.8305 68.60259,-12.56016 0.78888,-0.12139 -0.78887,0.21244 -1.30771,0.12139 -3.40553,-0.21243 -6.72093,-0.56447 -10.12646,-0.78905"
       id="path830" /><path
       style="fill:none;stroke:#00ffff;stroke-width:3.325;stroke-dasharray:none"
       d="m 153.73624,360.47434 c 4.49934,19.37664 3.66495,39.35387 6.10076,58.99788 0,2.10009 2.09659,21.0288 6.43875,24.98801"
       id="path832" /><path
       style="fill:none;stroke:#00ffff;stroke-width:3.325;stroke-dasharray:none"
       d="m 316.70465,357.79157 c -0.78887,-3.19383 -1.30771,-6.34245 -1.30771,-9.57027 -0.0282,-1.83909 2.35753,-6.83924 2.61543,-4.97708 0,4.87542 -0.78888,9.70592 -1.30772,14.5519 z"
       id="path834" /><path
       style="fill:none;stroke:#00ffff;stroke-width:3.325;stroke-dasharray:none"
       d="m 320.2725,368.29079 c -1.30771,13.79138 -1.01644,27.66501 0,41.45063"
       id="path836" /><path
       style="fill:none;stroke:#00ffff;stroke-width:3.325;stroke-dasharray:none"
       d="m 343.57078,370.35962 c -8.99866,14.55191 -10.75786,9.86373 6.64174,13.63448 8.04018,1.8391 31.68344,3.58897 31.96865,16.70177 0,13.18867 -24.96584,23.80746 -34.00395,14.1853 -3.94681,-4.19836 -5.25483,-10.22488 -7.90486,-15.31273"
       id="path838" /><path
       style="fill:none;stroke:#00ffff;stroke-width:3.325;stroke-dasharray:none"
       d="m 460.03032,363.08033 c -2.61543,0 -5.39016,-1.308 -7.56655,0 -9.37065,5.86841 -17.63839,23.62446 -15.54452,34.55615 2.35753,12.63785 20.12396,11.01483 27.96691,6.57946 3.11212,-1.83909 5.18718,-4.95432 7.82567,-7.42587"
       id="path840" /><path
       style="fill:none;stroke:#00ffff;stroke-width:3.325;stroke-dasharray:none"
       d="m 482.98362,393.41991 c -6.22455,12.71706 -7.14936,18.95693 -9.19042,-15.94245 0,-4.22081 1.30771,-8.46438 3.06721,-12.32284 5.94268,-13.37258 16.85285,9.64948 15.46564,14.63081 -1.56865,5.327 -6.22455,9.09653 -9.37065,13.63448 z"
       id="path842" /><path
       style="fill:none;stroke:#00ffff;stroke-width:3.325;stroke-dasharray:none"
       d="m 502.53685,360.85703 c 2.61543,4.45783 6.10076,8.41916 7.40877,13.31947 4.49934,17.14879 -2.7732,31.07431 2.0966,10.56356 0.78888,-3.76954 1.82655,-7.57276 3.32663,-11.19571 0,-0.56448 3.52962,-9.3897 7.48766,-7.96759 6.85595,2.35805 9.21288,15.88935 8.24316,22.07732 0,2.10009 0.78888,-4.51428 1.30772,-6.57977 0.78888,-2.10008 5.80735,-14.91972 10.78031,-12.03514 8.71649,5.03354 9.88919,21.4476 5.33372,29.34539"
       id="path844" /><path
       style="fill:none;stroke:#00ffff;stroke-width:3.325;stroke-dasharray:none"
       d="m 564.67915,358.63585 c 15.49143,-4.40138 13.52955,51.78749 5.76214,48.88227"
       id="path846" /><path
       style="fill:none;stroke:#00ffff;stroke-width:3.325;stroke-dasharray:none"
       d="m 563.57745,377.94482 c -2.35753,-11.45853 -5.88624,-22.28733 3.66494,-33.94463 4.63436,-5.72183 13.63302,-6.68113 20.98748,-7.0535 15.33487,-0.78905 10.02481,44.3962 -5.46904,48.27196 -1.56866,0.56447 -2.0966,-2.35805 -2.9765,-3.66787"
       id="path848" /><path
       style="fill:none;stroke:#00ffff;stroke-width:3.325;stroke-dasharray:none"
       d="m 612.36952,342.70007 c 2.35753,-0.56447 4.83764,-2.81023 6.77706,-1.56899 10.91564,7.23437 4.16103,54.02656 2.90974,65.96914"
       id="path850" /><path
       style="fill:none;stroke:#00ffff;stroke-width:3.325;stroke-dasharray:none"
       d="m 628.35035,382.77168 c 12.19544,-4.79651 2.0966,-1.56899 21.24932,-4.22081 22.79431,-3.20506 1.01644,-22.36623 -12.7434,0.12139 -6.77706,10.95839 -2.98863,26.45048 11.56616,27.73724 4.91652,0.56447 9.76539,-1.569 14.62912,-2.61904"
       id="path852" /><path
       style="fill:none;stroke:#00ffff;stroke-width:3.325;stroke-dasharray:none"
       d="m 684.12246,367.44681 c -9.55087,8.85921 -4.91652,28.27318 -13.94765,38.00278 -0.78888,0.56447 -1.83869,-0.21244 -2.63971,-0.56447"
       id="path854" /><path
       style="fill:none;stroke:#00ffff;stroke-width:3.325;stroke-dasharray:none"
       d="m 657.16865,374.41807 c 15.77997,11.06005 32.43894,20.81878 48.37578,31.64546"
       id="path856" /><path
       style="fill:none;stroke:#00ffff;stroke-width:3.325;stroke-dasharray:none"
       d="m 758.16831,336.10817 c 2.0966,-1.01666 4.16103,-4.27726 6.57408,-3.51006 11.1523,3.51006 20.33362,35.06872 17.84714,44.89877 -1.82655,7.57276 -8.29929,14.52581 -16.90564,6.81648 -7.74678,-6.91814 2.09659,-29.52595 15.04723,-23.44055"
       id="path858" /><path
       style="fill:none;stroke:#00ffff;stroke-width:3.325;stroke-dasharray:none"
       d="m 798.7961,375.56917 c 2.35753,-7.6292 3.60851,-15.49543 5.25484,-23.28396"
       id="path860" /><path
       style="fill:none;stroke:#00ffff;stroke-width:3.325;stroke-dasharray:none"
       d="m 838.33251,333.19748 c 2.63971,-0.78905 8.71649,-0.0607 7.82567,-2.67366 -0.78888,-2.61904 -6.10045,0.56447 -7.82567,2.67366 -3.52961,4.43538 -5.88654,10.02185 -6.85625,15.62744 -1.56865,8.8143 13.97496,35.27419 8.24316,39.23097"
       id="path862" /><path
       style="fill:none;stroke:#00ffff;stroke-width:3.325;stroke-dasharray:none"
       d="m 818.18489,370.89466 c 26.79392,-4.63871 17.0622,-3.27304 29.07408,-4.89818"
       id="path864" /><path
       style="fill:none;stroke:#00ffff;stroke-width:3.325;stroke-dasharray:none"
       d="m 879.30195,336.41499 c -16.51211,9.51412 -11.3565,29.29591 -5.68325,43.75101"
       id="path866" /><path
       style="fill:none;stroke:#00ffff;stroke-width:3.325;stroke-dasharray:none"
       d="m 851.59233,366.06749 c 13.13723,-4.22081 21.17043,-2.99232 33.40774,-0.21244"
       id="path868" /><path
       style="fill:none;stroke:#00ffff;stroke-width:3.325;stroke-dasharray:none"
       d="m 1001.3762,326.76005 c -13.39881,-3.17138 -9.41589,-5.1352 -20.83094,6.29753 -2.69432,2.67366 -5.18718,5.60893 -7.14936,8.8932 -15.25688,26.22287 39.895,2.77685 38.932,-7.29052 -0.061,-0.78905 -6.1796,-0.0607 -8.7392,7.88868 -4.29638,13.18988 1.3077,13.16287 10.7014,23.20475"
       id="path870" /><path
       style="fill:none;stroke:#00ffff;stroke-width:3.325;stroke-dasharray:none"
       d="m 1030.4502,340.70712 c 0,-2.96805 0,-5.92516 -0.7888,-8.89321 0,-0.56447 -0.7889,-1.83909 -0.7889,-1.56899 -1.0164,2.73133 0.7889,8.34026 1.0164,10.32654 0.7889,9.11899 3.7888,22.33922 -2.3575,30.18724"
       id="path872" /><path
       style="fill:none;stroke:#00ffff;stroke-width:3.325;stroke-dasharray:none"
       d="m 1018.6371,358.56029 c 11.1748,-13.76529 30.417,-9.67194 46.247,-9.05132"
       id="path874" /><path
       style="fill:none;stroke:#00ffff;stroke-width:3.325;stroke-dasharray:none"
       d="m 1121.7567,315.42352 c -2.9097,0.56448 -9.134,-1.83909 -8.7617,1.01666 0.7889,2.93466 5.9652,-0.21243 8.7617,-1.01666 5.3338,-1.83909 9.8668,-6.50086 15.4669,-6.65867 16.2763,-0.56447 3.0341,26.31512 0.7889,29.50107 -5.6833,7.31328 -12.8754,13.37166 -19.2872,20.08436 -3.8679,4.04024 -12.9273,9.88649 -9.1904,14.02718 6.4391,7.11026 30.9549,4.08546 37.492,4.06301 2.8521,-0.0149 5.7621,-0.0303 8.5815,-0.1214 1.8265,-0.0607 6.1004,0.1214 5.1871,-1.308 -0.7888,-1.01666 -1.8265,-1.308 -2.6154,-1.83909"
       id="path876" /><path
       style="fill:none;stroke:#00ffff;stroke-width:3.325;stroke-dasharray:none"
       d="m 1110.7058,344.46178 c 14.0007,-5.42836 22.6623,-1.569 35.1035,4.063"
       id="path878" /><path
       style="fill:none;stroke:#00ffff;stroke-width:3.325;stroke-dasharray:none"
       d="m 1166.0956,368.65982 c -3.4844,3.14892 -1.0134,0.21244 7.4876,1.8391 6.7999,1.308 34.8466,8.81429 29.2468,19.84855 -4.7588,9.3897 -45.1184,11.58933 -42.4234,-12.32435 0.5643,-3.22782 3.8002,-5.19135 5.8865,-7.80978 2.6154,-3.32918 5.1307,-6.57946 7.7468,-9.88649 1.3077,4.04054 3.7214,7.86622 4.161,12.11434 0.061,0.78906 -5.3677,47.77881 -0.2124,39.0762"
       id="path880" /><path
       style="fill:none;stroke:#00ffff;stroke-width:3.325;stroke-dasharray:none"
       d="m 1256.9263,319.48167 c -14.1057,7.36973 -13.8181,6.02682 -26.5278,18.85192 -3.4055,3.38594 -19.5748,20.63518 -19.3651,28.35027 0.7889,17.72449 42.1109,12.08703 50.496,3.98379 2.8521,-2.73132 -5.7624,-5.42836 -9.1115,-7.50508"
       id="path882" /><path
       style="fill:none;stroke:#00ffff;stroke-width:3.325;stroke-dasharray:none"
       d="m 1225.3873,350.89588 c 29.0783,3.74708 17.794,3.93888 33.747,3.07001"
       id="path884" /><path
       style="fill:none;stroke:#00ffff;stroke-width:3.325;stroke-dasharray:none"
       d="m 1361.4905,285.0894 c -5.5479,0.21244 -11.2315,-0.56447 -16.5922,0.78905 -26.1692,7.0535 -70.7135,77.35423 -21.432,92.01903 19.2343,5.7109 44.6863,3.01356 63.7637,-2.61904 5.9427,-1.8391 18.4234,-3.96134 11.3835,-10.48466"
       id="path886" /><path
       style="fill:none;stroke:#00ffff;stroke-width:3.325;stroke-dasharray:none"
       d="m 1341.936,303.17261 c -4.7924,30.55748 -7.0929,61.82724 -6.6417,92.78562"
       id="path888" /><path
       style="fill:none;stroke:#00ffff;stroke-width:3.325;stroke-dasharray:none"
       d="m -280.84416,580.98623 c 14.39337,3.9841 44.82492,-12.82176 56.61682,-6.06051"
       id="path890" /><path
       style="fill:none;stroke:#00ffff;stroke-width:3.325;stroke-dasharray:none"
       d="m -266.64922,593.70542 c -2.09659,1.01666 -7.53287,0.56447 -6.64204,2.75257 0.78887,2.10009 4.29634,-2.10009 6.64204,-2.75257 13.738,-3.14861 25.74956,-4.11915 38.67805,-9.80729"
       id="path892" /><path
       style="fill:none;stroke:#00ffff;stroke-width:3.325;stroke-dasharray:none"
       d="m -229.66726,544.05444 c 11.23149,-3.46454 9.99114,-3.84844 23.47305,-3.98379 8.22071,-0.0607 30.26498,-1.01666 29.75524,13.26757 -0.78888,14.99772 -13.11114,29.66495 -22.87198,39.84127 -1.01644,1.01666 -2.63971,3.48729 -3.74383,2.35804 -1.30772,-1.01666 0.78888,-3.22782 1.30771,-4.8305"
       id="path894" /><path
       style="fill:none;stroke:#00ffff;stroke-width:3.325;stroke-dasharray:none"
       d="m -301.76094,545.51054 c -3.32633,0.78905 -6.85595,1.01666 -9.94562,2.35805 -9.03264,4.27726 -41.90456,26.98551 -33.58008,39.99573 1.56865,2.35805 25.85576,12.21814 28.81799,13.55558 15.41376,6.9746 34.85443,13.7926 46.8402,26.35701"
       id="path896" /><path
       style="fill:none;stroke:#00ffff;stroke-width:3.325;stroke-dasharray:none"
       d="m 25.618009,544.05444 c 2.909744,18.90503 3.247444,38.03555 4.499332,57.08171 0,1.83909 -1.307716,5.76704 0.788877,5.42836 1.826555,-0.21244 0.788878,-3.80322 1.016438,-5.74429 1.307716,-10.14597 6.359869,-53.37893 -6.100449,-56.77458 -4.578219,-1.308 -9.528728,0.56447 -14.183711,1.308 -12.22122779,2.35805 -6.1004497,3.82598 -15.5703156,3.82598 -1.5686523,0 -7.1153704,0.21244 -5.6832546,-2.35804"
       id="path898" /><path
       style="fill:none;stroke:#00ffff;stroke-width:3.325;stroke-dasharray:none"
       d="m 32.333176,578.07585 c -11.436598,-2.69794 -41.2877171,17.64529 -51.092552,15.78434 -2.773208,-0.56447 0,-3.64541 3.743829,-9.41245"
       id="path900" /><path
       style="fill:none;stroke:#00ffff;stroke-width:3.325;stroke-dasharray:none"
       d="m 33.607213,606.65252 c -1.826554,2.35804 -2.69432,5.7898 -5.254833,7.41494 -3.664639,2.35805 -8.32205,2.61904 -12.508865,3.90489 -5.604366,1.8391 -11.253942,3.46484 -16.9044278,5.1352 -2.6397051,0.78905 -19.1035752,5.74429 -20.0720742,5.1349 -1.568652,-1.01666 1.568652,-3.4084 2.35753,-5.1349"
       id="path902" /><path
       style="fill:none;stroke:#00ffff;stroke-width:3.325;stroke-dasharray:none"
       d="m 194.96085,521.836 c -3.66494,-1.01666 -7.19456,-3.88243 -10.96084,-3.30673 -3.66495,0.56448 -6.22455,3.9838 -8.99867,6.45565 -19.12936,17.06867 -22.66202,34.89362 -16.22447,59.45614 2.61543,9.98786 10.57733,18.56392 15.98902,27.04864 0.78888,0.78905 6.10045,11.93044 1.8387,7.50508"
       id="path904" /><path
       style="fill:none;stroke:#00ffff;stroke-width:3.325;stroke-dasharray:none"
       d="m 143.61464,577.68983 c -2.98863,-1.01666 -7.90485,-5.78981 -8.84088,-2.83148 -1.01341,2.96804 5.76244,3.03572 8.84088,2.83148 15.33487,-1.01666 25.01773,-5.50757 39.44509,-5.50757"
       id="path906" /><path
       style="fill:none;stroke:#00ffff;stroke-width:3.325;stroke-dasharray:none"
       d="m 212.73031,492.87331 c 0.78888,2.96804 0.78888,5.9813 1.30772,8.8932 2.61543,10.98115 6.51764,21.47339 8.24286,32.71432 0,1.01666 1.01644,3.9838 0,3.38564 -4.29635,-2.81024 -7.98374,-38.37515 -9.6862,-44.97525 -0.78888,-3.4084 -2.61543,-6.53455 -4.00325,-9.80729"
       id="path908" /><path
       style="fill:none;stroke:#00ffff;stroke-width:3.325;stroke-dasharray:none"
       d="m 260.24804,508.73322 c -4.97296,6.45534 -10.78031,12.29825 -14.89067,19.29865 -12.98037,22.31342 -22.63623,57.52418 -2.61543,78.45829 9.3482,9.67193 20.72593,10.90224 32.98357,14.395"
       id="path910" /><path
       style="fill:none;stroke:#00ffff;stroke-width:3.325;stroke-dasharray:none"
       d="m 302.41384,540.83815 c 1.01643,0.21244 14.07873,2.35805 15.80637,3.38563 13.58234,7.29083 -20.15005,40.75899 -20.83092,49.4953 -0.78887,7.57275 30.46432,0.56447 35.44973,-2.10009 1.56865,-0.78905 -2.69432,-1.8391 -4.16103,-2.61904"
       id="path912" /><path
       style="fill:none;stroke:#00ffff;stroke-width:3.325;stroke-dasharray:none"
       d="m 291.10589,567.80788 c 13.94887,-4.61594 29.20029,-7.34696 43.94653,-6.45564"
       id="path914" /><path
       style="fill:none;stroke:#00ffff;stroke-width:3.325;stroke-dasharray:none"
       d="m 359.03065,580.14438 c -13.03225,-0.56448 -14.28838,20.76598 -3.11212,23.07395 14.94225,3.06971 19.99289,-19.27164 12.06346,-27.96637 -1.01644,-1.308 -2.98864,-3.01356 -4.42045,-2.10008 -2.61543,1.308 -2.09659,5.56401 -4.49933,7.13271 -4.16102,2.83147 -17.63869,3.25028 -13.68733,6.37643 0.78888,0.56448 1.30772,-1.01666 1.8387,-1.308"
       id="path916" /><path
       style="fill:none;stroke:#00ffff;stroke-width:3.325;stroke-dasharray:none"
       d="m 358.01361,563.36341 c -0.78888,-2.10009 -0.0137,-7.07627 -2.09659,-6.37644 -2.0966,0.78905 1.83869,4.14191 2.09659,6.37644 6.17934,45.62318 -2.61543,2.99232 4.97296,35.0144 0.008,0.0237 5.39016,16.62286 1.30772,10.80058"
       id="path918" /><path
       style="fill:none;stroke:#00ffff;stroke-width:3.325;stroke-dasharray:none"
       d="m 367.19371,505.66806 c 4.29635,2.96804 9.70896,4.7513 12.92728,8.8932 13.97375,17.93542 24.15421,64.31578 18.78893,86.88626 -1.82655,7.86622 -4.57822,15.81044 -9.17919,22.44423 -6.14566,8.83675 -8.45737,2.77685 -10.62224,-0.56448"
       id="path920" /><path
       style="fill:none;stroke:#00ffff;stroke-width:3.325;stroke-dasharray:none"
       d="m 448.46204,518.31138 c -4.42044,1.308 -9.42739,1.56899 -13.34689,3.98409 -18.52709,11.82513 -44.25663,67.46895 -25.1746,83.74675 13.55534,11.56322 51.69453,-5.66569 60.19134,-18.69503 1.01644,-1.56899 -3.52961,-1.308 -5.33372,-1.56899"
       id="path922" /><path
       style="fill:none;stroke:#00ffff;stroke-width:3.325;stroke-dasharray:none"
       d="m 419.81639,575.54543 c 22.11314,-6.9746 44.33339,-9.09653 67.32825,-9.35601"
       id="path924" /><path
       style="fill:none;stroke:#00ffff;stroke-width:3.325;stroke-dasharray:none"
       d="m 546.05376,501.2248 c 1.56865,-2.10009 6.43906,-4.97709 4.37523,-6.45565 -2.09659,-1.56899 -2.61543,4.59349 -4.37523,6.45565 -3.45043,3.54374 -8.14152,5.76704 -11.30462,9.57027 -11.56737,13.89729 -35.93579,65.72878 -11.46239,78.84189 8.7168,4.67239 19.5229,3.74677 29.41117,3.82598 4.71355,0.0303 34.35015,-4.35647 36.12968,-12.03544"
       id="path926" /><path
       style="fill:none;stroke:#00ffff;stroke-width:3.325;stroke-dasharray:none"
       d="m 532.36552,512.87179 c 12.06345,14.34189 7.61145,63.81685 18.10868,75.85199"
       id="path928" /><path
       style="fill:none;stroke:#00ffff;stroke-width:3.325;stroke-dasharray:none"
       d="m 700.77445,531.39079 c 17.92512,-14.68422 32.61947,-29.58938 42.0769,-51.6409 2.98863,-6.91815 4.16102,-18.43312 -7.07016,-17.6984 -4.97296,0.21244 -10.04727,2.35805 -14.18371,5.1352 -6.99128,4.79621 -14.10574,10.20242 -18.60598,17.3846 -1.30772,2.35804 1.30772,5.4059 3.11212,7.29052 11.25394,11.32772 34.82166,15.86355 48.80117,23.59897 4.63465,2.61904 11.59225,4.01778 12.92727,9.11899 1.56865,5.58648 -1.0134,13.84419 -6.35987,16.09905 -27.79427,11.77233 -54.47987,-4.40138 -77.95868,-15.70634 -5.33372,-2.61904 -16.72177,-9.15299 -16.32915,-16.62317"
       id="path930" /><path
       style="fill:none;stroke:#00ffff;stroke-width:3.325;stroke-dasharray:none"
       d="m 901.14566,459.21638 c -7.66819,10.56356 -4.91653,20.95019 4.49933,29.72594 2.61543,2.35805 7.43092,6.24109 11.30462,6.9746 11.11831,2.10009 33.4132,-9.35601 32.56273,-22.75894 -0.78888,-8.7014 -15.49264,-11.1165 -22.11284,-11.1165 -17.97821,0 -21.48508,30.6986 -22.53155,42.29369 -2.61543,28.21553 -1.83869,31.33045 1.01644,55.47326 0.78887,6.73758 3.32633,20.81909 2.69432,28.73266 0,1.56899 0,5.34945 -1.56866,4.59348 -1.83869,-1.01666 -0.78887,-4.04054 -1.30771,-6.06051"
       id="path932" /><path
       style="fill:none;stroke:#00ffff;stroke-width:3.325;stroke-dasharray:none"
       d="m 979.78187,484.95944 c -2.77321,-22.44423 16.22447,-25.4065 7.56654,-9.88619 -2.09659,3.62265 -5.05185,6.57946 -7.56654,9.88619 z"
       id="path934" /><path
       style="fill:none;stroke:#00ffff;stroke-width:3.325;stroke-dasharray:none"
       d="m 980.2024,517.06316 c -0.78888,-3.64511 -1.56865,-7.31298 -1.01644,-10.95839 0.78888,-5.48511 9.25808,-4.16467 7.82597,0.21244 -1.30772,3.98379 -2.61543,11.13896 -6.72093,10.64246 -3.74353,-0.56447 0.78887,-7.5503 0,0 z"
       id="path936" /><path
       style="fill:none;stroke:#00ffff;stroke-width:3.325;stroke-dasharray:none"
       d="m 1085.6204,451.24879 c -17.0886,10.02185 -52.616,56.59068 -37.3206,76.38703 15.7542,20.39907 54.8585,-0.78905 69.1988,-11.48432 5.8866,-4.45813 6.7774,-6.65867 0.7889,-7.73087"
       id="path938" /><path
       style="fill:none;stroke:#00ffff;stroke-width:3.325;stroke-dasharray:none"
       d="m 1069.7227,461.05486 c 7.0704,21.0549 7.7471,42.24635 5.5479,64.05297"
       id="path940" /><path
       style="fill:none;stroke:#00ffff;stroke-width:3.325;stroke-dasharray:none"
       d="m 1162.5526,496.52874 c 20.6989,6.13941 42.4717,9.72838 64.093,9.64947 0.7888,-0.002 10.9381,0.56448 13.1891,-2.10008 1.8265,-2.35805 -1.8266,-6.37674 -2.9098,-7.21192 -8.5022,-7.34697 -19.2082,-11.17295 -29.1575,-16.02136 -1.8265,-0.78905 -6.1793,-2.93466 -4.4993,-4.14191 6.7209,-4.98831 31.1106,1.569 32.8146,9.41246 1.5686,7.68565 2.3575,16.09935 0,23.59867 -3.9581,12.40204 -14.4192,22.57503 -23.1078,32.02694"
       id="path942" /><path
       style="fill:none;stroke:#00ffff;stroke-width:3.325;stroke-dasharray:none"
       d="m 1331.937,501.41326 c 2.0966,2.98929 5.2324,7.49385 6.0219,11.35352 2.3575,24.64598 -82.114,48.60124 -56.0237,-4.67239 8.5812,-17.51448 23.0547,-27.59157 36.2966,-41.06793 0.2124,-0.21244 -1.0164,0.0303 -1.0164,0.0607 -4.7925,3.06971 -9.5737,6.13942 -14.3673,9.20913 -2.6155,4.27726 -6.3374,8.00157 -7.4877,12.79475 -0.7889,2.98928 4.2175,44.07118 5.706,50.34049"
       id="path944" /><path
       style="fill:none;stroke:#00ffff;stroke-width:3.325;stroke-dasharray:none"
       d="m 18.19346,758.55134 c -4.634655,-0.56447 -9.3142147,-2.10008 -13.9476555,-1.308 -3.74382992,0.56448 -6.8562545,3.11493 -10.1264546,5.05599 -16.5910009,9.90896 -28.7918999,27.81523 -23.7097089,48.1961 2.357529,9.35601 6.021561,18.35421 9.866732,27.19795 2.096593,4.69484 18.6062791,24.01747 13.6873253,29.11746"
       id="path946" /><path
       style="fill:none;stroke:#00ffff;stroke-width:3.325;stroke-dasharray:none"
       d="m -47.262729,826.05307 c 20.123958,-7.13271 38.3634093,-10.04431 58.998317,-10.04431"
       id="path948" /><path
       style="fill:none;stroke:#00ffff;stroke-width:3.325;stroke-dasharray:none"
       d="m 65.03366,721.62046 c 3.946814,6.91815 4.21746,-13.24178 2.852095,-9.9654 -1.307716,3.17138 -1.838691,6.63622 -2.852095,9.9654 -3.867927,3.19383 -9.179195,5.2141 -11.724235,9.57057 -4.420444,7.57276 -6.438756,16.36096 -8.322049,24.9088 -10.126151,45.12547 -1.838691,84.4578 37.824545,110.33166"
       id="path950" /><path
       style="fill:none;stroke:#00ffff;stroke-width:3.325;stroke-dasharray:none"
       d="m 98.954173,784.06619 c 4.578217,-2.35804 8.739247,-5.58647 13.608437,-7.29052 3.80027,-1.308 7.95006,-1.308 11.98456,-1.56899 22.03547,-1.30801 -16.40713,36.90812 -19.62666,41.22362 -3.24744,4.35646 -9.911938,11.72043 -5.750913,15.25962 3.450733,2.93466 43.521453,6.79433 31.535673,-0.56448"
       id="path952" /><path
       style="fill:none;stroke:#00ffff;stroke-width:3.325;stroke-dasharray:none"
       d="m 99.467246,815.09559 c 17.350144,-4.53704 33.242994,-10.32654 49.132804,-18.53813"
       id="path954" /><path
       style="fill:none;stroke:#00ffff;stroke-width:3.325;stroke-dasharray:none"
       d="m 145.03311,719.09034 c 4.83764,2.61904 10.78031,3.54375 14.52414,7.49355 26.4195,27.77335 50.62681,79.11502 24.15421,115.39008 -2.77321,3.82599 -7.53287,5.76705 -11.30583,8.65619"
       id="path956" /><path
       style="fill:none;stroke:#00ffff;stroke-width:3.325;stroke-dasharray:none"
       d="m 227.06816,775.71258 c 15.70139,-6.60223 32.74235,-8.126 49.38858,-10.87979"
       id="path958" /><path
       style="fill:none;stroke:#00ffff;stroke-width:3.325;stroke-dasharray:none"
       d="m 228.68293,794.48651 c 17.19328,-3.38563 34.68633,-3.66787 52.10717,-2.83148"
       id="path960" /><path
       style="fill:none;stroke:#00ffff;stroke-width:3.325;stroke-dasharray:none"
       d="m 383.74315,722.84501 c -5.05185,2.98928 -10.75786,5.05599 -15.12642,8.97241 -3.03415,2.73132 -4.75845,6.73757 -6.65297,10.40544 -11.07341,21.89341 -9.17919,39.15176 -4.57822,63.29002 0.0607,0.21243 10.78031,27.95392 3.66464,26.19434"
       id="path962" /><path
       style="fill:none;stroke:#00ffff;stroke-width:3.325;stroke-dasharray:none"
       d="m 339.78872,799.92397 c 23.02855,-8.93842 32.84825,-6.65867 55.26116,-7.29052"
       id="path964" /><path
       style="fill:none;stroke:#00ffff;stroke-width:3.325;stroke-dasharray:none"
       d="m 436.62038,696.56478 c -20.3594,34.06512 -33.60921,79.02459 -13.86998,116.69232 4.71355,8.97241 13.21491,18.17031 22.53155,22.36623"
       id="path966" /><path
       style="fill:none;stroke:#00ffff;stroke-width:3.325;stroke-dasharray:none"
       d="m 460.2503,759.31763 c 7.589,-13.13677 44.4326,-14.1853 31.20192,7.73057 -9.4723,15.73275 -25.90765,26.11574 -35.62449,41.68218 -3.24775,5.16889 5.76214,5.29301 10.46446,5.29301 7.48766,-0.0225 25.75077,-1.01666 33.40774,-4.22081 0,-0.12139 -0.78888,0.0303 -1.01644,-0.0607 -2.35753,-0.78905 -4.63465,-1.83909 -6.95759,-2.83147"
       id="path968" /><path
       style="fill:none;stroke:#00ffff;stroke-width:3.325;stroke-dasharray:none"
       d="m 459.57247,790.57707 c 11.95999,1.56899 23.81469,-0.56448 35.70004,-1.569"
       id="path970" /><path
       style="fill:none;stroke:#00ffff;stroke-width:3.325;stroke-dasharray:none"
       d="m 524.34658,794.79333 c -31.11484,27.87168 19.70555,31.72922 27.54274,13.39746 3.52962,-8.22736 -12.11533,-7.23407 -23.78768,-6.44411 -9.63007,0.56447 -23.13353,9.67193 -3.74353,-6.9746 z"
       id="path972" /><path
       style="fill:none;stroke:#00ffff;stroke-width:3.325;stroke-dasharray:none"
       d="m 532.59308,779.39168 c 3.03414,2.35804 0.78888,58.0489 1.82655,59.30136 0.78888,0.78905 0,-2.10008 0,-3.30672"
       id="path974" /><path
       style="fill:none;stroke:#00ffff;stroke-width:3.325;stroke-dasharray:none"
       d="m 541.52408,722.76822 c 2.61543,-1.01666 5.88624,-5.37191 7.64544,-3.22782 21.69352,26.79948 26.0903,87.59064 13.00525,118.98907 -5.25484,12.58595 -7.48766,13.66149 -15.38675,21.0822"
       id="path976" /><path
       style="fill:none;stroke:#00ffff;stroke-width:3.325;stroke-dasharray:none"
       d="m 611.22838,755.86857 c 0.78887,13.8973 6.72062,30.78328 0,43.75192"
       id="path978" /><path
       style="fill:none;stroke:#00ffff;stroke-width:3.325;stroke-dasharray:none"
       d="m 601.11102,785.67343 c 8.79568,-9.35601 22.27001,-6.73758 33.92082,-5.66569"
       id="path980" /><path
       style="fill:none;stroke:#00ffff;stroke-width:3.325;stroke-dasharray:none"
       d="m 712.73323,729.28123 c 1.56865,-2.10009 6.72062,-5.16889 4.49933,-6.65868 -2.0966,-1.56899 -2.61543,4.93217 -4.49933,6.65868 -3.86793,3.28427 -9.8106,3.98409 -12.8496,8.04679 -9.37065,12.58626 -4.63466,32.16472 2.09659,44.5173 2.35753,4.27726 5.25483,8.18215 7.98374,12.19204 2.0966,3.17137 12.77041,14.23719 1.56866,5.29301"
       id="path982" /><path
       style="fill:none;stroke:#00ffff;stroke-width:3.325;stroke-dasharray:none"
       d="m 685.36313,783.45225 c 7.29559,-3.72432 27.8413,-0.12139 35.70003,-8.73509"
       id="path984" /><path
       style="fill:none;stroke:#00ffff;stroke-width:3.325;stroke-dasharray:none"
       d="m 724.719,684.15484 c 7.64544,10.67646 13.50346,22.18111 18.44942,34.24569"
       id="path986" /><path
       style="fill:none;stroke:#00ffff;stroke-width:3.325;stroke-dasharray:none"
       d="m 804.71724,709.13162 c -3.60821,-5.98161 9.84458,-10.74413 9.6865,-17.38369 -0.005,-0.56447 -1.0134,-0.12139 -1.30772,0.1214 -2.69432,2.67366 -5.46904,5.32699 -7.40846,8.57727 -8.55902,14.4469 -11.80191,26.36945 -13.60844,43.36802 -1.82656,17.35789 2.61543,34.18044 10.62223,49.41973 3.66494,6.95214 5.46905,13.26757 8.24316,6.45564"
       id="path988" /><path
       style="fill:none;stroke:#00ffff;stroke-width:3.325;stroke-dasharray:none"
       d="m 823.24554,729.12675 c 3.74383,-2.93465 6.93514,-6.71512 11.1526,-8.81429 4.37524,-2.10009 22.87198,-4.74007 25.25348,3.22782 1.82656,6.18464 -17.27216,25.95732 -20.83091,30.56993 -1.82656,2.35804 -3.78904,4.53703 -4.79243,7.29082 -3.32664,9.59272 23.97125,2.10009 23.70971,3.74677 0,1.30801 -4.63466,-0.56447 -5.13074,-0.56447"
       id="path990" /><path
       style="fill:none;stroke:#00ffff;stroke-width:3.325;stroke-dasharray:none"
       d="m 831.83156,743.38064 c 10.14891,0.78905 20.35971,1.01666 30.18123,3.90489"
       id="path992" /><path
       style="fill:none;stroke:#00ffff;stroke-width:3.325;stroke-dasharray:none"
       d="m 879.43849,754.41369 c -3.24775,4.063 -6.77707,7.88898 -9.68651,12.19234 -0.78887,0.78905 -7.27345,10.75536 -4.83764,14.185 5.96513,8.44192 47.52562,-2.61904 29.24672,-22.52314 -0.78888,-0.78905 -13.60753,-3.58896 -14.7068,-3.82598 z"
       id="path994" /><path
       style="fill:none;stroke:#00ffff;stroke-width:3.325;stroke-dasharray:none"
       d="m 880.88517,746.98084 c 5.80735,13.26666 2.09659,32.37351 11.56737,43.98104"
       id="path996" /><path
       style="fill:none;stroke:#00ffff;stroke-width:3.325;stroke-dasharray:none"
       d="m 909.27352,664.92144 c 8.04018,8.91597 18.1102,16.33516 24.04923,26.7397 4.49934,7.92267 5.05185,17.56759 6.36018,26.58704 4.63435,31.50677 -4.21746,66.33484 -21.93049,92.55771"
       id="path998" /><path
       style="fill:none;stroke:#00ffff;stroke-width:3.325;stroke-dasharray:none"
       d="m 1020.7152,667.15051 c 1.0164,-2.10009 4.973,-5.4059 2.9097,-6.36521 -2.0966,-1.01666 -1.3077,4.74007 -2.9097,6.36521 -5.7621,5.56402 -14.1057,8.36272 -18.8675,14.78771 -15.25722,20.58328 -16.53944,58.54995 -10.62256,82.21083 3.03414,12.32405 10.78036,27.46865 19.46976,37.23861 9.7093,10.93624 8.6831,11.35261 10.7015,5.37222"
       id="path1000" /><path
       style="fill:none;stroke:#00ffff;stroke-width:3.325;stroke-dasharray:none"
       d="m 1042.5668,707.83606 c 4.7924,-1.01666 33.1923,-5.9027 34.5091,0.56447 2.7732,13.50368 -28.7885,36.5661 -31.7881,52.94436 -2.3575,13.37136 23.3693,13.31947 29.1575,8.28381 2.6155,-2.10009 2.6155,-6.02683 3.7888,-9.05132"
       id="path1002" /><path
       style="fill:none;stroke:#00ffff;stroke-width:3.325;stroke-dasharray:none"
       d="m 1037.0425,727.9101 c 13.2149,1.01666 26.449,2.61904 39.6954,1.569"
       id="path1004" /><path
       style="fill:none;stroke:#00ffff;stroke-width:3.325;stroke-dasharray:none"
       d="m 1109.5567,735.34174 c 4.2964,-0.78905 8.604,-1.8391 12.9273,-2.61904 3.665,-0.78905 7.3071,-1.569 10.9609,-2.35805 19.3648,-3.69032 -13.3457,5.42867 -16.4864,5.66569 -2.6154,0.21243 -9.8667,-0.56448 -7.4084,-0.78905 5.1871,-0.56448 10.442,0.21243 15.6492,0 2.7732,-0.21244 5.3901,-1.01666 8.0629,-1.569"
       id="path1006" /><path
       style="fill:none;stroke:#00ffff;stroke-width:3.325;stroke-dasharray:none"
       d="m 1159.7967,703.31601 c -1.3077,-12.79596 0.7889,-13.89638 17.1672,-12.63785 11.1186,0.78905 27.4165,7.70811 23.8914,22.15623 -5.2548,21.36869 -33.9071,34.05176 -40.6381,53.4803 -3.4055,9.80759 42.827,-4.58196 42.5912,-6.65868 0,-1.308 -1.5686,-2.10008 -2.0966,-3.0697"
       id="path1008" /><path
       style="fill:none;stroke:#00ffff;stroke-width:3.325;stroke-dasharray:none"
       d="m 1164.3861,726.68343 c 29.4406,6.68113 17.7953,3.98379 34.9391,7.96759"
       id="path1010" /><path
       style="fill:none;stroke:#00ffff;stroke-width:3.325;stroke-dasharray:none"
       d="m 1224.2304,745.22611 c -4.4205,4.29972 -9.9911,7.68565 -13.3469,12.87487 -19.9143,31.01574 46.521,5.68814 37.1446,-5.66568 -1.0165,-1.30801 -2.9098,-2.10009 -4.5782,-2.35805 -13.843,-2.10009 -15.361,10.91347 -19.2083,-4.81897 z"
       id="path1012" /><path
       style="fill:none;stroke:#00ffff;stroke-width:3.325;stroke-dasharray:none"
       d="m 1232.2196,729.51825 c -1.5687,10.38298 -4.3752,27.48565 -5.3337,38.3099 -0.7889,4.81897 -0.7889,9.70592 -0.7889,14.5519 0,3.27304 1.3077,11.61543 3.6085,9.1982 1.8266,-1.83909 1.8266,-4.7516 2.9097,-7.13271"
       id="path1014" /><path
       style="fill:none;stroke:#00ffff;stroke-width:3.325;stroke-dasharray:none"
       d="m 1255.6013,642.32487 c 5.1872,4.19835 12.562,6.60222 15.5706,12.56016 4.2964,8.59973 3.6082,18.90503 4.9727,28.42796 5.131,34.66327 6.7209,46.26747 -0.7889,84.50969 -2.6154,12.61176 -17.9521,33.43297 -16.4872,23.59867"
       id="path1016" /><path
       style="fill:none;stroke:#00ffff;stroke-width:3.325;stroke-dasharray:none"
       d="m 1389.1458,671.44598 c 0,-3.78077 0,-7.62921 -0.7889,-11.35383 0,-0.78905 -1.3077,1.01666 -1.3077,1.8391 0,3.25028 2.3575,6.37643 1.8387,9.57057 -1.0134,6.65837 -5.2548,12.55985 -6.2248,19.21974 -1.8266,13.13556 0.7888,25.90543 -1.0135,38.69229"
       id="path1018" /><path
       style="fill:none;stroke:#00ffff;stroke-width:3.325;stroke-dasharray:none"
       d="m 1363.4706,694.42949 c 15.6234,-8.97211 30.1894,-3.50976 46.416,-0.21244"
       id="path1020" /><path
       style="fill:none;stroke:#00ffff;stroke-width:3.325;stroke-dasharray:none"
       d="m 1473.8998,638.0385 c -1.5687,3.64542 -4.2964,6.99736 -4.4994,10.9587 -0.7889,11.35352 13.1901,19.56055 22.5313,20.92409 21.7739,3.14861 30.6651,-18.80003 23.1077,-36.16338 -0.7889,-1.01666 -5.3902,-9.23189 -8.2429,-7.65197 -4.4204,2.35805 -6.7773,8.8143 -8.0629,12.95287 -1.8265,5.34945 -3.191,10.77812 -4.0818,16.30936 -2.6155,15.39164 -2.6155,25.82652 -1.3077,41.22028 1.5656,19.56055 4.9165,38.93963 6.1004,58.53963 0,3.19414 2.3575,11.79843 0,9.64948 -0.7889,-0.56448 -0.7889,-1.8391 -0.7889,-2.83148"
       id="path1022" /><path
       style="fill:none;stroke:#00ffff;stroke-width:3.325;stroke-dasharray:none"
       d="m 1557.5459,630.0697 c 0.7889,-2.35804 4.1611,-6.79402 1.8387,-7.34727 -2.3575,-0.56447 -0.7888,5.11275 -1.8387,7.34727 -2.7732,5.327 -7.4873,9.51383 -9.8667,15.02473 -10.2842,23.91247 -10.9381,49.54507 -6.4391,74.78011 1.0165,5.86871 2.6398,11.61542 4.4205,17.30478 3.9468,12.82176 2.6154,14.3161 5.2548,9.28803"
       id="path1024" /><path
       style="fill:none;stroke:#00ffff;stroke-width:3.325;stroke-dasharray:none"
       d="m 1580.1621,659.56743 c 2.3576,0.56448 4.7925,1.01666 7.1491,1.569 4.0821,1.01666 8.4574,1.01666 12.2473,2.99232 4.161,2.10009 0,9.72838 -2.6154,13.71248 -4.003,6.76003 -28.1821,30.80694 -25.1488,38.46558 1.3077,3.25028 16.9317,1.8391 25.0699,1.01667 3.4055,-0.21244 6.8559,-0.56448 10.205,-1.01667 1.0165,-0.21243 3.4056,-0.78905 2.6155,-1.308 -2.6944,-2.35804 -6.3599,-2.9559 -9.6077,-4.45783"
       id="path1026" /><path
       style="fill:none;stroke:#00ffff;stroke-width:3.325;stroke-dasharray:none"
       d="m 1575.4046,691.82593 c 15.4656,-14.78802 31.6067,4.29971 48.279,1.308"
       id="path1028" /><path
       style="fill:none;stroke:#00ffff;stroke-width:3.325;stroke-dasharray:none"
       d="m 1626.9186,622.25416 c 5.9654,12.61206 13.4246,24.59409 17.7682,37.85043 8.4574,25.74883 6.1008,62.99989 -13.765,82.59686"
       id="path1030" /><path
       style="fill:none;stroke:#00ffff;stroke-width:3.325;stroke-dasharray:none"
       d="m -287.97531,1030.3597 c 0,-2.1001 1.8387,-6.6811 0,-6.5798 -2.09659,0.061 0,4.4582 0,6.5798 1.8387,7.7084 4.91653,15.1027 6.72063,22.8381 5.94268,25.2757 9.29176,51.8947 6.93514,77.8453 0,2.1001 -0.78887,7.0763 -2.69432,5.9024 -10.10369,-6.557 0,-94.7516 28.30523,-59.3014 13.18881,16.5449 5.60436,66.2423 -19.05169,65.7388 -8.97591,-0.2124 -8.7617,-14.6308 -9.52843,-18.6158"
       id="path1032" /><path
       style="fill:none;stroke:#00ffff;stroke-width:3.325;stroke-dasharray:none"
       d="m -239.43143,1086.4448 c 0,2.619 1.01643,5.1916 0.78887,7.7308 -1.56865,10.0896 -8.48012,22.6282 -2.90974,22.4443 10.67867,-0.2125 27.55184,-17.1737 34.17204,-23.5198 2.83086,-2.6979 10.67898,-6.6022 7.56655,-8.9724 -6.10045,-4.5932 -17.0622,27.9821 -16.90564,30.5723 0.78888,12.5602 9.92317,4.8755 15.98994,2.7526"
       id="path1034" /><path
       style="fill:none;stroke:#00ffff;stroke-width:3.325;stroke-dasharray:none"
       d="m -188.51152,1074.7978 c 3.87915,11.4846 29.31529,32.8442 22.61043,45.6681 -3.74383,7.1102 -16.98361,17.9603 -21.24932,11.1957 -4.0257,-6.3652 -4.29634,-14.395 -6.43875,-21.6057"
       id="path1036" /><path
       style="fill:none;stroke:#00ffff;stroke-width:3.325;stroke-dasharray:none"
       d="m -167.85083,1111.2704 c 1.01341,-5.6317 1.83869,-11.2746 2.83086,-16.9379"
       id="path1038" /><path
       style="fill:none;stroke:#00ffff;stroke-width:3.325;stroke-dasharray:none"
       d="m -164.53542,1075.3362 c -1.56865,-10.0896 2.0966,-13.8445 7.90455,-20.9241"
       id="path1040" /><path
       style="fill:none;stroke:#00ffff;stroke-width:3.325;stroke-dasharray:none"
       d="m -132.9964,1051.5827 c -5.05185,23.5717 -22.00817,36.2289 0.78887,55.8572 3.66495,3.1714 8.58147,-0.061 11.72302,-1.308"
       id="path1042" /><path
       style="fill:none;stroke:#00ffff;stroke-width:3.325;stroke-dasharray:none"
       d="m -109.10859,1073.1116 c -3.19101,2.8892 -12.69273,21.9466 -4.57822,25.9058 10.1037,4.9318 23.237596,-11.5108 28.055817,-18.0914 1.307716,-1.8391 4.003249,-8.0808 2.615432,-6.3765 -4.837639,5.5865 -11.304613,49.0865 -1.568653,36.7006"
       id="path1044" /><path
       style="fill:none;stroke:#00ffff;stroke-width:3.325;stroke-dasharray:none"
       d="m -76.552229,1062.7705 c 10.701425,14.3161 5.683255,5.6317 12.326209,34.4014 1.568652,7.1103 1.568652,16.0723 3.664942,14.8669"
       id="path1046" /><path
       style="fill:none;stroke:#00ffff;stroke-width:3.325;stroke-dasharray:none"
       d="m -46.794864,1059.7819 c 0.788877,-3.8033 6.224546,-10.5973 2.615432,-11.4055 -3.799962,-0.789 -2.639705,7.5279 -2.615432,11.4055 0.788877,7.8097 3.112424,15.3646 4.082137,23.1519 1.307716,9.5703 -0.788878,20.8191 3.034143,30.1117"
       id="path1048" /><path
       style="fill:none;stroke:#00ffff;stroke-width:3.325;stroke-dasharray:none"
       d="m -2.5922452,1061.0064 c -4.8376387,8.0468 -13.0064638,48.4389 -20.5693708,49.5742"
       id="path1050" /><path
       style="fill:none;stroke:#00ffff;stroke-width:3.325;stroke-dasharray:none"
       d="m -40.846426,1076.1768 c 19.757434,6.5573 13.111142,2.358 22.008162,8.8143"
       id="path1052" /><path
       style="fill:none;stroke:#00ffff;stroke-width:3.325;stroke-dasharray:none"
       d="m 141.16184,1024.0012 c -14.31418,12.1404 -30.74042,26.9281 -31.71135,47.3487 -0.78888,13.1368 6.85595,22.3924 13.765,32.4877 1.56865,2.358 5.33372,5.3719 3.94681,7.9675 -0.78887,0.7891 -3.74383,0.2125 -4.36401,0.2125"
       id="path1054" /><path
       style="fill:none;stroke:#00ffff;stroke-width:3.325;stroke-dasharray:none"
       d="m 97.292069,1093.7996 c -23.708799,-24.5422 38.220501,-10.383 43.192251,-8.7351"
       id="path1056" /><path
       style="fill:none;stroke:#00ffff;stroke-width:3.325;stroke-dasharray:none"
       d="m 141.84301,967.60714 c 8.71679,11.77324 16.0937,24.28029 22.53155,37.39336"
       id="path1058" /><path
       style="fill:none;stroke:#00ffff;stroke-width:3.325;stroke-dasharray:none"
       d="m 272.84247,1020.0162 c -10.49814,-8.0016 6.72093,-20.39911 4.97296,-14.3951 -1.30772,4.8982 -3.32633,9.5931 -4.97296,14.3951 z"
       id="path1060" /><path
       style="fill:none;stroke:#00ffff;stroke-width:3.325;stroke-dasharray:none"
       d="m 273.94993,1053.8816 c 0.78888,1.0166 2.35753,39.3156 3.52962,39.0762 1.56865,-0.2125 2.35753,-2.1001 3.40552,-3.1486"
       id="path1062" /><path
       style="fill:none;stroke:#00ffff;stroke-width:3.325;stroke-dasharray:none"
       d="m 304.29834,1041.0868 c -2.61543,0.5645 -7.61175,-1.0166 -7.40877,1.569 1.56865,18.6951 43.01172,22.9162 36.98014,39.3044 -3.11242,8.3852 -20.01928,18.485 -28.90628,14.0272 -3.94651,-2.1001 -5.76214,-6.7943 -8.58117,-10.2024"
       id="path1064" /><path
       style="fill:none;stroke:#00ffff;stroke-width:3.325;stroke-dasharray:none"
       d="m 408.52179,1045.1486 c -4.29635,4.4354 -9.68651,8.0019 -12.92728,13.2406 -2.35753,3.9389 -3.66494,8.7806 -3.6085,13.3987 0.78887,23.0739 25.6461,3.7467 30.9425,-4.7401 1.56865,-2.698 5.33402,-8.9384 2.09659,-9.2771 -3.79996,-0.5645 -3.74383,7.1327 -3.45043,10.9587 0.78888,12.2451 9.65252,24.1744 20.14975,29.807"
       id="path1066" /><path
       style="fill:none;stroke:#00ffff;stroke-width:3.325;stroke-dasharray:none"
       d="m 538.92837,1016.0336 c -30.83206,21.6054 -27.18987,68.2929 17.5856,53.5546"
       id="path1068" /><path
       style="fill:none;stroke:#00ffff;stroke-width:3.325;stroke-dasharray:none"
       d="m 569.53257,1071.1976 c -3.24775,-3.6679 -8.58147,-6.2636 -9.78785,-11.0376 -1.56865,-5.8235 5.25453,-27.174 14.36728,-27.8875 7.43092,-0.5644 6.51764,19.7706 5.18717,23.074 -2.35753,5.7446 -6.51795,10.5635 -9.78815,15.8635 z"
       id="path1070" /><path
       style="fill:none;stroke:#00ffff;stroke-width:3.325;stroke-dasharray:none"
       d="m 584.66111,1034.9565 c 18.26646,-0.789 15.96384,23.7295 20.9098,27.6593 4.71354,3.747 17.69058,-44.8363 18.52709,-13.7914 0,4.3 -0.008,9.356 0,13.7914"
       id="path1072" /><path
       style="fill:none;stroke:#00ffff;stroke-width:3.325;stroke-dasharray:none"
       d="m 177.20838,1030.2841 c -3.66494,4.4806 -8.32205,8.3403 -11.03973,13.4776 -8.10784,15.2596 -9.70896,42.5444 2.09659,56.1607 4.08183,4.774 15.02114,9.0737 14.44495,4.3789"
       id="path1074" /><path
       style="fill:none;stroke:#00ffff;stroke-width:3.325;stroke-dasharray:none"
       d="m 183.75303,1062.081 c 3.03414,-3.0924 5.54793,-6.7943 9.11153,-9.2771 4.57822,-3.1714 12.61263,-3.3067 12.66573,3.6679 0,14.7619 -23.71001,32.8903 -18.5283,46.3543 2.09659,5.4062 21.24932,-3.0698 20.75202,-3.6679 -0.78887,-1.0167 -2.09659,-1.8391 -3.32663,-2.8315"
       id="path1076" /><path
       style="fill:none;stroke:#00ffff;stroke-width:3.325;stroke-dasharray:none"
       d="m 183.4126,1083.918 c 10.70142,1.308 21.43197,1.308 32.1334,0.2124"
       id="path1078" /><path
       style="fill:none;stroke:#00ffff;stroke-width:3.325;stroke-dasharray:none"
       d="m 224.72823,1094.1067 c -38.99724,41.0185 15.49264,26.453 16.90564,14.1061 0.78888,-7.1888 -13.92186,-12.4278 -16.90564,-14.1061 z"
       id="path1080" /><path
       style="fill:none;stroke:#00ffff;stroke-width:3.325;stroke-dasharray:none"
       d="m 223.28155,1082.5387 c 4.83764,16.3351 11.93268,32.9185 13.50345,50.1092 0,1.308 -0.78887,-2.6979 -1.30771,-4.063"
       id="path1082" /><path
       style="fill:none;stroke:#00ffff;stroke-width:3.325;stroke-dasharray:none"
       d="m 228.04364,1015.6475 c 18.50221,21.082 33.53396,67.9297 29.92545,95.8529 -1.01644,8.0019 -5.18717,24.3595 -14.21071,28.0432"
       id="path1084" /><path
       style="fill:none;stroke:#00ffff;stroke-width:3.325;stroke-dasharray:none"
       d="m 643.57599,1015.4196 c -2.09659,3.5438 -4.42045,7.1324 -6.72093,10.6425 -2.35753,3.4873 -7.82567,7.7309 -5.54794,11.1954 4.83764,7.2344 47.95525,13.8445 44.88804,28.4258 -1.56866,7.5503 -25.85576,18.4851 -31.03383,14.1853 -4.75875,-3.9613 -4.08214,-11.6946 -6.10045,-17.5418"
       id="path1086" /><path
       style="fill:none;stroke:#00ffff;stroke-width:3.325;stroke-dasharray:none"
       d="m 680.30217,1009.6726 c -4.91652,5.09 13.738,30.085 10.88166,36.7006 -0.78888,1.569 -2.61543,2.1 -3.74383,3.0697"
       id="path1088" /><path
       style="fill:none;stroke:#00ffff;stroke-width:3.325;stroke-dasharray:none"
       d="m 683.70072,1028.1397 c 3.87915,-1.8391 7.76953,-3.9049 11.72423,-5.6653 47.29806,-21.0549 -11.93268,1.308 -0.78887,17.9341 8.73924,12.7441 44.02906,-5.5072 40.46212,-16.3351 -0.78887,-1.8391 -3.6082,2.358 -4.42014,4.2211 -2.77321,6.2411 -5.80735,18.3542 0.78888,23.074"
       id="path1090" /><path
       style="fill:none;stroke:#00ffff;stroke-width:3.325;stroke-dasharray:none"
       d="m 741.08426,1012.1997 c 10.02482,8.3403 3.40553,22.9429 7.14936,32.87 0,0.5645 0.78887,-0.789 1.0134,-1.0166 1.01644,-2.7769 9.78785,-34.7786 13.86998,-25.4339 5.20963,11.8513 3.82272,24.1225 6.22455,36.3179"
       id="path1092" /><path
       style="fill:none;stroke:#00ffff;stroke-width:3.325;stroke-dasharray:none"
       d="m 776.61985,1015.6475 c 5.88624,9.2319 18.58019,27.1221 7.14935,37.7761"
       id="path1094" /><path
       style="fill:none;stroke:#00ffff;stroke-width:3.325;stroke-dasharray:none"
       d="m 767.77805,1040.3205 c 23.91846,-7.8434 12.61264,-7.1327 33.58009,-4.7513"
       id="path1096" /><path
       style="fill:none;stroke:#00ffff;stroke-width:3.325;stroke-dasharray:none"
       d="m 863.329,970.05927 c -2.09659,13.58167 7.35204,75.21253 -3.40552,80.91283"
       id="path1098" /><path
       style="fill:none;stroke:#00ffff;stroke-width:3.325;stroke-dasharray:none"
       d="m 844.96637,1016.8754 c 11.43538,-10.9134 27.4593,-9.8865 41.82536,-6.5005 7.61176,3.0135 15.04723,6.5794 22.87199,9.0173 8.762,2.7526 6.67572,-14.5 -1.82656,-12.402 -14.96925,3.6226 -6.51764,30.0112 4.67986,33.4827 1.82656,0.5645 3.74383,-0.091 5.60437,-0.1214"
       id="path1100" /><path
       style="fill:none;stroke:#00ffff;stroke-width:3.325;stroke-dasharray:none"
       d="m 930.99435,1011.2064 c 4.83764,6.5009 10.20504,12.7171 14.62882,19.5336 4.71355,7.2908 2.0966,11.3016 0.78888,9.7283 -8.37848,-9.3332 -3.60851,-28.6828 0.78888,-38.6935"
       id="path1102" /><path
       style="fill:none;stroke:#00ffff;stroke-width:3.325;stroke-dasharray:none"
       d="m 959.3906,994.9629 c 2.61543,8.1597 4.97296,16.283 7.40877,24.4372 0.78888,2.9346 1.83869,5.8687 2.61543,8.8143 0.78888,1.569 0.78888,3.4308 1.30772,4.9091 0.78888,0.5645 0,-1.308 0,-2.1001 0.78888,-3.3292 1.0134,-6.6811 1.56865,-9.9654 2.35753,-10.6761 7.56655,-27.482 11.72424,-25.51272 5.18717,2.35805 4.21715,18.56422 4.21715,23.20502 0,2.3581 -1.82655,8.6222 -0.78887,6.8165 6.17933,-7.9679 11.59225,-22.0254 23.55191,-23.9914 9.4159,-1.5689 6.3035,21.1326 5.548,25.5116"
       id="path1104" /><path
       style="fill:none;stroke:#00ffff;stroke-width:3.325;stroke-dasharray:none"
       d="m 1110.761,1021.2091 c 8.5815,-14.29 14.2353,-30.1614 18.8678,-46.12631 0,-0.78905 2.7732,-9.04009 0.7889,-10.56356 -1.3077,-1.01667 -2.6943,2.35804 -3.3266,3.90488 -4.5783,12.45395 -5.548,25.27571 -4.0257,38.38669 0.7888,4.4578 1.5686,8.8367 2.3575,13.2664 0,1.0166 1.3077,3.8596 0.7889,2.9892 -3.1125,-4.8189 -2.9098,-11.4315 -4.9166,-16.702 -1.5686,-3.7468 -13.8699,-8.36274 -10.9608,-4.4579 1.0134,1.308 7.6682,-1.0166 10.5436,-1.839 14.4192,-3.40814 29.7586,-7.60649 44.5419,-8.97216 1.8387,-0.21243 -3.665,1.30801 -5.548,1.8391 -17.9521,4.85266 -35.9482,11.37936 -54.5736,13.10946 -6.1793,0.5645 -8.7165,-0.7891 -8.0626,-1.8391 4.0032,-7.34727 41.9935,-15.83745 52.961,-13.87059 11.855,2.10009 -11.6193,3.85998 -15.4657,3.74708"
       id="path1116" /><path
       style="fill:none;stroke:#00ffff;stroke-width:3.325;stroke-dasharray:none"
       d="m 1225.9465,963.36023 c 19.4179,3.82568 42.8809,-8.8143 47.0137,-29.34568 0.7889,-2.69795 0.7889,-6.71512 -1.8386,-8.8932 -10.1262,-9.51383 -23.8924,15.12882 -25.7508,20.92287 -5.3337,16.54517 -1.8266,38.4316 4.2174,54.17098 0,0.2125 22.0601,39.1157 19.1291,45.9719 0,0.2125 -0.029,-0.5644 0,-1.0166 0,-2.1001 0,-3.5101 -1.0134,-5.293"
       id="path1118" /><path
       style="fill:none;stroke:#00ffff;stroke-width:3.325;stroke-dasharray:none"
       d="m 1340.4554,942.90229 c -4.161,-4.30002 -8.5363,-24.06937 1.3077,-25.90573 5.6044,-1.01666 3.1913,5.16919 2.0966,7.42617"
       id="path1120" /><path
       style="fill:none;stroke:#00ffff;stroke-width:3.325;stroke-dasharray:none"
       d="m 1338.3297,957.0017 c 6.5179,-9.20943 -1.5687,50.6701 4.8376,38.99941"
       id="path1122" /><path
       style="fill:none;stroke:#00ffff;stroke-width:3.325;stroke-dasharray:none"
       d="m 1372.9359,949.56764 c -3.4504,2.10008 -9.6862,2.61904 -10.4645,6.65867 -1.3077,6.08297 16.6183,11.61542 18.3718,13.11067 5.1871,4.40169 10.3403,9.33356 13.4245,15.39073 1.3078,2.61904 0.7889,6.55701 -1.3077,8.57728 -10.1037,9.96541 -35.6032,19.84951 -33.7481,-2.98929"
       id="path1124" /><path
       style="fill:none;stroke:#00ffff;stroke-width:3.325;stroke-dasharray:none"
       d="m 1423.8537,961.3694 c -5.1872,5.13489 -12.0116,9.05101 -15.6495,15.39163 -2.9887,5.27056 2.3575,12.08704 7.4876,12.27095 11.8289,0.56447 23.579,-9.67194 26.442,-20.84489 0.7889,-1.83909 -2.3575,3.38564 -2.9098,5.29301 -1.5686,5.29301 -6.4387,19.37665 -0.7888,24.07058"
       id="path1126" /><path
       style="fill:none;stroke:#00ffff;stroke-width:3.325;stroke-dasharray:none"
       d="m 1444.4252,958.83897 c 2.8521,1.30801 6.9351,1.01667 8.5026,3.74708 3.1121,5.2138 3.4504,11.74623 4.4204,17.77609 0,1.56899 -1.5687,5.60923 -1.5687,4.1419 0,-5.08967 3.6647,-20.66097 12.325,-16.70176 7.1946,3.30673 7.3524,18.56392 8.2432,25.19801"
       id="path1128" /><path
       style="fill:none;stroke:#00ffff;stroke-width:3.325;stroke-dasharray:none"
       d="m -222.19082,1188.601 c -1.30772,2.1001 -6.35987,5.2705 -4.16103,6.6586 2.0966,1.308 1.56865,-6.1846 4.16103,-6.6586 8.32205,-1.569 16.90564,1.8391 25.33146,1.308 4.21715,-0.2125 8.00619,-2.8892 11.98577,-4.379 0.78888,-0.2124 2.0966,-0.2124 2.35753,-1.0166 2.0966,-5.1689 -13.66032,-8.2838 -14.78568,-8.3403 -22.13893,-1.569 -31.56845,21.3426 -32.30119,39.6868 0,3.0136 3.45043,5.1914 6.02156,6.7376 12.69152,7.7081 34.02216,5.0108 43.52934,-7.0538 1.30772,-1.8391 1.30772,-4.2433 2.0966,-6.3764"
       id="path1130" /><path
       style="fill:none;stroke:#00ffff;stroke-width:3.325;stroke-dasharray:none"
       d="m -181.21562,1172.82 c 7.43122,3.3067 16.30336,4.3789 22.2697,9.8865 17.03642,15.7324 14.57724,43.5892 6.02187,16.309 -1.56866,-5.1689 -1.82656,-10.6989 -1.82656,-16.0993 0,-5.8684 4.0257,-25.1449 12.66573,-14.9446 11.59195,5.0899 10.14861,3.1713 19.18125,12.3489 3.87885,3.9389 7.66789,8.0016 11.03943,12.3501 2.35753,3.1487 4.63465,6.557 6.46151,10.1236 1.30772,2.7313 3.52962,11.2743 1.30772,9.1189 -6.43876,-6.3991 -17.37594,-37.0289 -6.04402,-41.9113"
       id="path1132" /><path
       style="fill:none;stroke:#00ffff;stroke-width:3.325;stroke-dasharray:none"
       d="m -89.402737,1198.8689 c -1.568653,2.6191 -1.568653,6.7601 -4.420444,7.5728 -10.464459,3.0922 -8.141519,-34.4772 -2.35753,-41.2995 4.420444,-5.2706 13.817187,11.8512 12.509168,23.6767 -0.788878,3.8256 -3.800265,6.6811 -5.683558,10.0443 z"
       id="path1134" /><path
       style="fill:none;stroke:#00ffff;stroke-width:3.325;stroke-dasharray:none"
       d="m -81.157452,1161.9381 c 4.634655,4.74 9.844279,8.9724 13.842977,14.2371 4.296348,5.6882 8.615148,11.6425 10.960541,18.3813 0.788877,1.569 -3.664942,0.5644 -4.79243,-0.7891 -12.194223,-13.0317 -6.517947,-35.8168 13.085048,-32.0281"
       id="path1136" /><path
       style="fill:none;stroke:#00ffff;stroke-width:3.325;stroke-dasharray:none"
       d="m 24.003238,1170.6722 c -3.326635,1.569 -7.37479,2.1001 -9.945923,4.5935 -9.0323424,9.1752 -7.0701617,25.1707 -1.826555,35.5516 1.568653,3.3292 3.664943,6.5005 5.886543,9.4913 0.788877,0.5645 6.359868,6.7152 6.224545,6.7376 -0.788877,0.1214 -1.016438,-1.0166 -1.838691,-1.308"
       id="path1138" /><path
       style="fill:none;stroke:#00ffff;stroke-width:3.325;stroke-dasharray:none"
       d="m -1.6710791,1210.4379 c 16.3813421,-7.4486 6.3598686,-3.2727 30.3484151,-11.4843"
       id="path1140" /><path
       style="fill:none;stroke:#00ffff;stroke-width:3.325;stroke-dasharray:none"
       d="m 42.274245,1181.5529 c -0.788878,4.2773 -2.615432,8.7354 -1.013404,12.796 2.976495,9.1754 37.429803,5.6317 32.38918,-10.7217"
       id="path1142" /><path
       style="fill:none;stroke:#00ffff;stroke-width:3.325;stroke-dasharray:none"
       d="m 69.396455,1161.4033 c 3.247748,2.9347 7.431225,5.0897 9.787844,8.814 4.003249,6.3767 6.179641,13.7395 8.840888,20.7672 0.788878,1.8391 0.788878,3.7243 1.307716,5.5865 0,0.2124 0,1.0166 0,0.789 0,-3.7467 1.838691,-30.1951 6.517644,-30.2628 6.303733,-0.061 10.340663,20.3202 12.063753,24.988"
       id="path1144" /><path
       style="fill:none;stroke:#00ffff;stroke-width:3.325;stroke-dasharray:none"
       d="m 120.23293,1171.3617 c -10.14891,15.9155 -8.87457,46.4538 16.06791,32.4864"
       id="path1146" /><path
       style="fill:none;stroke:#00ffff;stroke-width:3.325;stroke-dasharray:none"
       d="m 137.99905,1178.1819 c -0.78888,-3.6454 0.78888,-11.8525 -2.69432,-10.9587 -3.66494,0.789 2.09659,7.2343 2.69432,10.9587 2.09659,11.6673 4.0257,24.2532 2.61543,36.1655"
       id="path1148" /><path
       style="fill:none;stroke:#00ffff;stroke-width:3.325;stroke-dasharray:none"
       d="m 130.94315,1198.9457 c 21.40619,-7.5278 11.93298,-7.573 28.05582,-4.6724"
       id="path1150" /><path
       style="fill:none;stroke:#00ffff;stroke-width:3.325;stroke-dasharray:none"
       d="m 167.58499,1180.5575 c -5.60437,-7.6856 -2.63971,-13.0318 3.79996,-18.8531"
       id="path1152" /><path
       style="fill:none;stroke:#00ffff;stroke-width:3.325;stroke-dasharray:none"
       d="m 196.40298,1187.1461 c -1.30772,3.2278 -1.30772,7.3133 -3.74383,9.6495 -3.03414,2.8102 -7.90485,-4.8302 -8.66036,-8.8932 -1.30771,-7.6068 -0.78887,-14.762 4.75875,-20.688 6.17964,-7.1327 10.02482,10.9584 10.02482,11.6412 0,2.8891 -1.56866,5.5076 -2.35753,8.2838 z"
       id="path1154" /><path
       style="fill:none;stroke:#00ffff;stroke-width:3.325;stroke-dasharray:none"
       d="m 202.26798,1164.3893 c 5.13074,6.6022 10.46446,13.0839 15.38675,19.8485 3.32633,4.5935 2.98863,7.7646 4.16072,7.2908 2.35753,-1.0166 3.32664,-38.1238 7.56655,-15.0238 0.78888,2.7769 1.01644,5.5076 1.56865,8.2838"
       id="path1156" /><path
       style="fill:none;stroke:#00ffff;stroke-width:3.325;stroke-dasharray:none"
       d="m 323.15008,1149.2969 c 4.83764,17.2006 18.60628,36.5221 14.21072,54.9373"
       id="path1158" /><path
       style="fill:none;stroke:#00ffff;stroke-width:3.325;stroke-dasharray:none"
       d="m 319.49425,1182.474 c 14.28838,0.061 21.74661,-1.0167 32.39282,-10.2816"
       id="path1160" /><path
       style="fill:none;stroke:#00ffff;stroke-width:3.325;stroke-dasharray:none"
       d="m 357.92441,1153.7389 c 2.83085,5.6882 6.22454,11.1393 8.50258,17.096 3.24744,8.4192 5.25483,17.2526 8.06263,25.8265 0.78887,2.3581 0,7.2116 2.6397,7.1324 4.57822,-0.2124 8.66005,-43.4797 15.72718,-14.9446 0,1.0167 0.78888,2.3581 0.78888,3.3859 10.88196,8.6562 17.14139,7.4259 24.62572,-3.7018 2.09659,-3.036 2.09659,-7.2344 4.16072,-10.2024 0.0607,-0.091 -0.12137,8.7351 -0.091,9.7284 0.12137,3.9837 0.21239,7.9678 0.78888,11.9562 0.12137,1.569 1.30772,7.6292 1.82656,10.2813"
       id="path1162" /><path
       style="fill:none;stroke:#00ffff;stroke-width:3.325;stroke-dasharray:none"
       d="m 433.58139,1164.3893 c 4.42044,8.3402 12.71882,34.2472 10.02481,43.2135"
       id="path1164" /><path
       style="fill:none;stroke:#00ffff;stroke-width:3.325;stroke-dasharray:none"
       d="m 430.69258,1193.8117 c 5.60436,-9.7284 13.55534,-8.2273 23.36928,-10.8005"
       id="path1166" /><path
       style="fill:none;stroke:#00ffff;stroke-width:3.325;stroke-dasharray:none"
       d="m 532.36552,1153.2807 c -3.24775,-1.308 -6.36017,-4.3562 -9.78815,-3.7468 -12.92727,2.358 -27.92504,36.4781 -2.98863,37.8492 7.19456,0.5645 32.84734,-19.7445 22.53155,-28.4255 -2.90974,-2.3581 -7.14935,-8.3628 -9.78784,-5.6657 -2.8521,2.8557 3.03414,7.3925 4.37523,11.1957 4.71354,14.0023 0,8.9721 11.56737,21.7626 5.05185,5.6878 27.2099,18.4331 19.46858,28.5011 -7.61145,9.909 -23.65661,7.6292 -31.11484,-1.0167 -5.54823,-6.557 -5.75121,-15.5743 -6.72093,-23.4405"
       id="path1168" /><path
       style="fill:none;stroke:#00ffff;stroke-width:3.325;stroke-dasharray:none"
       d="m 580.98949,1173.5095 c 2.35753,-4.2436 2.98863,12.5589 0,10.8795 -4.21746,-2.1001 -7.90485,-5.9249 -10.02481,-10.2025 -4.36401,-8.7351 -1.01644,-31.2494 10.28393,-34.4038 8.87457,-2.358 11.93298,21.0549 11.56646,25.276 -0.78888,4.0627 -1.56865,8.0241 -3.03415,11.8783 -3.24744,9.0738 -2.35753,8.5208 -5.76214,4.5143"
       id="path1170" /><path
       style="fill:none;stroke:#00ffff;stroke-width:3.325;stroke-dasharray:none"
       d="m 593.05962,1153.0494 c 6.35987,-4.4578 12.19453,2.1001 18.26554,1.308 6.64205,-0.789 8.26562,-16.0204 2.35753,-16.0994 -12.48307,-0.1213 -17.24637,41.8762 3.11213,33.7143"
       id="path1172" /><path
       style="fill:none;stroke:#00ffff;stroke-width:3.325;stroke-dasharray:none"
       d="m 631.91031,1143.7802 c 1.30772,3.9841 1.82656,8.363 4.16103,11.9562 3.24774,5.2706 14.15762,11.3019 13.7653,19.377 -1.01644,23.2578 -19.65276,27.0125 -34.43268,9.8862 -3.11242,-3.6227 -2.35753,-9.3108 -3.6085,-13.9492"
       id="path1174" /><path
       style="fill:none;stroke:#00ffff;stroke-width:3.325;stroke-dasharray:none"
       d="m 719.89836,1105.7774 c -3.86793,17.5937 3.87885,35.5279 10.28392,51.7165"
       id="path1176" /><path
       style="fill:none;stroke:#00ffff;stroke-width:3.325;stroke-dasharray:none"
       d="m 706.38458,1141.7884 c 30.04258,-16.939 16.591,-11.6154 39.01545,-18.9308"
       id="path1178" /><path
       style="fill:none;stroke:#00ffff;stroke-width:3.325;stroke-dasharray:none"
       d="m 760.87447,1132.7471 c -8.24286,5.9816 -13.39848,14.7881 -13.94887,-2.6736 0,-4.5371 5.68325,-35.0008 14.96955,-33.1759 8.50228,1.569 10.96054,22.1292 8.58117,27.4292 -1.82656,3.8821 -7.40847,4.7737 -9.60731,8.4416 -2.0966,3.6454 -0.78888,8.9159 -2.98864,12.402 -2.6397,3.8036 -10.93808,6.6023 -11.64534,-0.789 -0.78888,-5.056 1.0134,-10.1235 1.56865,-15.1816"
       id="path1180" /><path
       style="fill:none;stroke:#00ffff;stroke-width:3.325;stroke-dasharray:none"
       d="m 869.68553,1117.3455 c 4.42015,-2.9681 8.26562,-7.0311 13.26771,-8.8932 4.97296,-1.8391 11.35771,5.9248 12.16843,9.0513 1.01644,3.7468 0,7.8662 -1.01644,11.5632 -3.11212,9.9654 -10.36311,18.1184 -16.591,26.1155 -2.35753,3.036 -7.09292,5.1916 -7.14935,9.0513 -0.0303,2.619 4.42044,2.8891 6.95759,3.0697 5.39016,0.2124 24.99194,-4.9543 29.07408,-8.577 0.78888,-0.789 0,-2.1001 0,-3.07"
       id="path1182" /><path
       style="fill:none;stroke:#00ffff;stroke-width:3.325;stroke-dasharray:none"
       d="m 863.99318,1140.8674 c 27.82128,-4.2997 40.16448,0.2124 63.75343,-16.3871 2.85209,-2.1001 11.855,-7.6516 10.46476,-12.9528 -1.01644,-4.0403 -8.14182,2.968 -10.96085,6.0605 -7.37479,8.0808 -17.14018,24.988 -12.32499,36.4705 6.10045,14.5 19.49558,3.8257 26.69682,-1.8391"
       id="path1184" /><path
       style="fill:none;stroke:#00ffff;stroke-width:3.325;stroke-dasharray:none"
       d="m 954.53051,1116.5036 c 4.21746,7.11 13.42578,16.3352 12.50886,26.357 -0.0607,0.5645 -1.01644,-0.789 -1.30771,-1.308 -0.78888,-3.1713 -1.83869,-6.4216 -1.83869,-9.7283 -0.78888,-12.2971 0.78887,-25.5908 9.26931,-34.6321"
       id="path1186" /><path
       style="fill:none;stroke:#00ffff;stroke-width:3.325;stroke-dasharray:none"
       d="m 987.42487,1135.581 c 5.88655,6.1058 -10.30668,9.943 -11.15229,5.8235 -1.56866,-7.6292 -1.56866,-15.7582 0,-23.2836 2.09659,-8.6001 16.64409,-27.1427 24.23312,-11.4846 7.1381,14.7361 0.7889,31.1186 -11.38353,40.9146 -6.17964,5.0108 -10.08124,-3.3067 -10.70142,-7.2908 -0.78888,-4.0062 0.78888,-8.1257 0.78888,-12.192"
       id="path1188" /><path
       style="fill:none;stroke:#00ffff;stroke-width:3.325;stroke-dasharray:none"
       d="m 145.01187,379.53961 c 4.37523,-14.78923 13.39847,-19.95477 27.28878,-23.51976 2.0966,-0.56448 6.10076,-1.01666 8.40094,-1.569 1.01644,-0.21243 4.42044,-0.78905 3.32663,-0.78905 -7.01403,1.01666 -19.62666,-3.58866 -24.83416,3.07001 -5.46904,7.05351 -10.54334,14.57892 -14.18341,22.75894 -3.74383,8.28381 -17.76946,52.34377 -3.40552,60.91437 17.61169,10.51834 39.40564,-3.80353 53.81357,-10.04461 9.3479,-4.04024 11.67205,-5.74429 18.03101,-9.9654"
       id="path1190" /><path
       style="fill:none;stroke:#00ffff;stroke-width:3.325;stroke-dasharray:none"
       d="m -290.47423,236.95613 c -1.30771,-3.38563 -2.69432,-6.63591 -3.6085,-10.12321 -0.78888,-1.569 0,-3.17138 0.78887,-4.74007 0.0203,-0.56447 -0.78887,-1.308 0,-1.308 0.78888,0 0.78888,0.78905 0.78888,1.308 0.78888,4.93187 0.78888,10.04431 2.09659,14.86692 4.16103,14.76191 14.73259,33.7501 11.90689,49.87889 -4.71354,26.93575 -30.46674,33.27637 -45.48242,8.57728 -0.78887,-1.56899 -0.78887,-3.4873 0,-5.05629 5.88624,-15.12852 24.10233,-18.17001 38.17074,-19.84825 3.11213,-0.21244 6.22455,-0.56448 9.33698,-0.56448 2.09659,-0.0607 7.88209,0.56448 6.02156,-0.21244 -19.9143,-8.62249 -37.08391,7.31329 -44.4587,24.82989 -3.11213,7.31329 1.56865,21.081 11.03973,21.003 34.70878,-0.21243 22.47967,-67.55149 19.28714,-88.11323 -1.0134,-6.60222 -2.09659,-13.21446 -3.45043,-19.77056 -0.78888,-3.76953 -1.82655,-7.52754 -2.98863,-11.19541 0,-0.56447 -0.78888,-1.56899 -1.01644,-1.308 -3.45043,3.74678 -1.30771,10.14597 -1.30771,15.23474"
       id="path1192" /><path
       style="fill:none;stroke:#00ffff;stroke-width:3.325;stroke-dasharray:none"
       d="m -239.38167,1356.9318 c -0.78888,12.534 -0.78888,5.8799 1.83869,24.2013 2.61543,18.0924 5.38985,36.1971 8.24286,54.2478 1.56865,9.9879 2.7732,14.08 1.01643,8.2047"
       id="path1196" /><path
       style="fill:none;stroke:#00ffff;stroke-width:3.325;stroke-dasharray:none"
       d="m -240.82866,1376.4686 c -4.49933,-10.2024 -15.33486,-38.197 5.94268,-41.5274 24.99193,-3.9049 32.36915,25.277 30.09688,43.9031 -1.01644,8.0243 -5.68325,18.6161 -11.72302,24.2014 -1.01644,1.0166 -4.08214,1.8391 -4.57822,0.5644 -2.98863,-8.7014 12.66573,-24.4113 21.43319,-20.2955 6.93514,3.2505 13.13693,9.0176 16.74787,15.7855 7.51011,14.0272 -15.46564,59.6425 -28.13926,45.2824 -1.82655,-2.1001 -1.82655,-5.1124 -2.83085,-7.652"
       id="path1198" /><path
       style="fill:none;stroke:#00ffff;stroke-width:3.325;stroke-dasharray:none"
       d="m -177.66932,1387.119 c 3.24775,-1.8391 6.22455,-6.7148 9.68651,-5.3495 2.85209,1.0167 -0.78888,6.1622 0,9.2095 1.56865,10.1459 7.03648,24.3583 19.62787,24.9088 3.45043,0.1214 7.03649,-1.0167 10.02481,-2.9104 13.08384,-7.7873 11.19751,-20.5833 6.10045,-32.1805"
       id="path1200" /><path
       style="fill:none;stroke:#00ffff;stroke-width:3.325;stroke-dasharray:none"
       d="m -126.14713,1355.5527 c 2.35753,0.7891 5.33372,0.2125 6.85595,2.1001 8.32205,9.8076 23.708802,42.2227 11.23149,53.4815"
       id="path1202" /><path
       style="fill:none;stroke:#00ffff;stroke-width:3.325;stroke-dasharray:none"
       d="m -121.0525,1391.0263 c 23.605034,-15.1027 13.47767,-14.1061 27.037561,-14.3161"
       id="path1204" /><path
       style="fill:none;stroke:#00ffff;stroke-width:3.325;stroke-dasharray:none"
       d="m -40.035702,1346.8195 c -0.02822,-3.9838 3.879152,-11.9833 0,-11.9572 -3.946814,0.029 -1.307716,8.1822 0,11.9572 18.789845,55.9746 9.348196,4.3 17.167185,45.7406 0.788877,3.9049 1.307716,7.8662 1.838691,11.7993 0.06068,0.5645 0.02579,1.8391 0,1.308 0.788877,-3.1941 3.191312,-35.6034 10.442005,-31.1049 9.291762,5.767 11.54036592,18.932 13.3468951,28.6534"
       id="path1206" /><path
       style="fill:none;stroke:#00ffff;stroke-width:3.325;stroke-dasharray:none"
       d="m 19.303046,1386.8122 c 0.788877,1.569 4.296348,8.5208 0,10.2024 -20.5693704,7.7646 -7.927307,-42.8512 -0.788877,-31.2619 1.568652,2.6737 3.405523,5.5865 3.608507,8.7354 0,4.1984 -1.568653,8.2274 -2.615432,12.3241 z"
       id="path1208" /><path
       style="fill:none;stroke:#00ffff;stroke-width:3.325;stroke-dasharray:none"
       d="m 26.358947,1354.1734 c 4.002946,-10.067 17.427515,30.1718 17.506403,29.6525 0,-1.308 1.307715,-18.4061 2.357529,-17.3044 1.568652,1.308 7.273146,10.6424 7.645435,11.1954 1.016439,1.569 3.326636,6.241 3.879153,4.3789 3.034144,-9.909 -0.788877,-23.5456 -2.694319,-34.0967"
       id="path1210" /><path
       style="fill:none;stroke:#00ffff;stroke-width:3.325;stroke-dasharray:none"
       d="m 109.49995,1351.7222 c 4.97296,3.0357 10.67897,5.2141 15.04722,9.119 3.94682,3.5437 6.93515,8.1821 9.52873,12.796 8.26562,14.4988 8.79568,20.2682 0,37.0829 -1.30771,2.619 -4.83764,3.7808 -7.74708,3.826 -17.34984,0.2124 -18.86752,-19.4817 -14.86336,-31.5666 1.30772,-3.6678 4.21746,-6.4781 6.30344,-9.7284"
       id="path1212" /><path
       style="fill:none;stroke:#00ffff;stroke-width:3.325;stroke-dasharray:none"
       d="m 162.79923,1383.5956 c 4.21746,15.8635 -7.48766,15.0499 -13.42457,-10.0443 -2.90974,-12.2191 15.36066,-29.3117 23.02885,-9.4914 4.79243,12.2983 -0.78888,30.6073 -14.86488,34.5562 -7.13782,2.1001 -9.25778,-11.8786 -11.8277,-18.852"
       id="path1214" /><path
       style="fill:none;stroke:#00ffff;stroke-width:3.325;stroke-dasharray:none"
       d="m 217.54732,1348.2744 c 4.79273,15.9943 3.32664,12.4551 9.60762,28.1942 1.56865,3.9389 5.60436,14.1853 7.40877,10.3266 2.09659,-4.4578 1.56865,-34.8156 8.66035,-30.8012 4.63436,2.619 21.69474,25.9585 22.61014,25.9054 2.09659,-0.1214 -6.64174,-33.7188 -7.90455,-38.2307"
       id="path1216" /><path
       style="fill:none;stroke:#00ffff;stroke-width:3.325;stroke-dasharray:none"
       d="m 279.9457,1365.2832 c 17.58559,6.8957 12.08954,8.1033 31.53901,0.5645 23.52615,-9.2316 -11.88079,-38.4619 -23.81469,-11.0373 -3.11242,7.2341 -4.36401,15.4175 -4.16102,23.2825 0.78887,19.8227 25.1488,28.1266 40.71912,19.7705 2.35753,-1.308 3.82271,-3.6226 5.68355,-5.4283"
       id="path1218" /><path
       style="fill:none;stroke:#00ffff;stroke-width:3.325;stroke-dasharray:none"
       d="m 417.24192,1335.71 c 1.30771,-3.115 3.03414,-6.0833 3.86792,-9.3561 1.01644,-4.4016 -8.66035,3.3292 -11.98456,6.4442 -9.11154,8.4983 -14.7338,21.2907 -8.84089,33.3282 3.40552,6.9522 28.89263,14.1334 15.80637,18.5381"
       id="path1220" /><path
       style="fill:none;stroke:#00ffff;stroke-width:3.325;stroke-dasharray:none"
       d="m 396.57909,1369.0379 c 12.77041,-6.5005 26.52661,-8.2046 40.46425,-10.0443"
       id="path1222" /><path
       style="fill:none;stroke:#00ffff;stroke-width:3.325;stroke-dasharray:none"
       d="m 447.75478,1367.4286 c 5.80735,-19.7184 3.94682,-10.2586 6.10075,-28.35"
       id="path1224" /><path
       style="fill:none;stroke:#00ffff;stroke-width:3.325;stroke-dasharray:none"
       d="m 455.57953,1318.8522 c 2.77321,5.9476 5.94268,11.7213 8.32205,17.8565 1.56866,4.3225 2.61544,8.9157 3.74383,13.3984 0.78888,3.2503 1.56866,6.5345 2.61544,9.8076 0,1.0166 0,2.619 0.78887,2.9104 3.82272,1.308 13.34659,-36.5064 20.75203,-29.5002 5.46904,5.1692 1.56865,19.8225 7.82566,22.3653"
       id="path1226" /><path
       style="fill:none;stroke:#00ffff;stroke-width:3.325;stroke-dasharray:none"
       d="m 532.85705,1292.2649 c 10.64499,11.9574 36.44553,55.5873 6.10045,62.368 -21.27511,4.7401 -22.74121,-13.1629 -15.46564,-23.7556 3.94682,-5.767 23.86658,-2.6979 25.93374,-2.619"
       id="path1234" /><path
       style="fill:none;stroke:#00ffff;stroke-width:3.325;stroke-dasharray:none"
       d="m 686.80981,1306.747 c 0.78887,-3.0136 4.83763,-10.6425 1.30771,-14.5519 -3.45073,-3.8825 -11.1523,0.5644 -15.04723,3.9048 -14.10573,12.403 -22.95087,21.7105 -25.93373,39.6902 -1.56866,10.2473 1.30771,19.7963 6.36017,28.5803 1.82655,3.3516 14.05263,13.6071 8.50228,9.6492"
       id="path1236" /><path
       style="fill:none;stroke:#00ffff;stroke-width:3.325;stroke-dasharray:none"
       d="m 634.09793,1354.019 c 11.56646,-11.8774 29.30073,-2.9924 42.50653,-10.4847"
       id="path1238" /><path
       style="fill:none;stroke:#00ffff;stroke-width:3.325;stroke-dasharray:none"
       d="m 690.88739,1256.1006 c 7.35203,9.83 10.57733,21.8673 15.22989,33.1003"
       id="path1240" /><path
       style="fill:none;stroke:#00ffff;stroke-width:3.325;stroke-dasharray:none"
       d="m 805.56862,1280.6179 c -8.99836,-5.2478 6.93514,-27.814 12.66573,-23.7544 15.46563,10.9812 12.61384,35.4702 7.64543,50.5708 -3.24744,9.9654 -7.96098,16.1771 -14.02684,24.1483 -1.56562,2.1001 -3.52932,4.0855 -5.13074,6.2975 0,0.5645 -0.78888,1.308 -0.78888,1.308 3.11212,0.7891 6.35987,-1.5689 9.52843,-1.0166 2.35753,0.2124 4.42044,1.0166 6.64204,1.569"
       id="path1242" /><path
       style="fill:none;stroke:#00ffff;stroke-width:3.325;stroke-dasharray:none"
       d="m 832.08855,1382.2921 c -1.30772,3.8033 -7.94976,10.0219 -4.16102,11.4055 12.16843,4.4581 -4.08184,-28.0047 4.08213,-30.4932 3.24775,-1.0167 4.91653,5.8687 4.42045,9.2771 -0.78888,3.5438 -3.24775,6.3989 -4.37524,9.8073 -1.56865,4.5932 -1.30771,9.7508 -3.24775,14.1061 -0.78887,1.0167 -3.19101,0.024 -2.98863,-1.0167 1.01341,-4.7173 5.54824,-8.3175 6.22485,-13.1094 0.78888,-5.4512 -2.09659,-10.8798 -2.09659,-16.3883 0.0158,-1.0167 1.82655,-2.8558 2.35753,-2.1001 3.66494,5.846 1.01644,12.5848 0,18.38 z"
       id="path1244"
       inkscape:export-filename="../Dendron/notes/assets/images/complex_differentiable.png"
       inkscape:export-xdpi="96"
       inkscape:export-ydpi="96" /></g></svg>
