<?xml version="1.0" encoding="UTF-8" standalone="no"?>
<!-- Created with Inkscape (http://www.inkscape.org/) -->

<svg
   width="7095.2114mm"
   height="3575.9995mm"
   viewBox="0 0 7095.2113 3575.9996"
   version="1.1"
   id="svg12"
   inkscape:version="1.2.1 (9c6d41e410, 2022-07-14, custom)"
   sodipodi:docname="concav.svg"
   xml:space="preserve"
   xmlns:inkscape="http://www.inkscape.org/namespaces/inkscape"
   xmlns:sodipodi="http://sodipodi.sourceforge.net/DTD/sodipodi-0.dtd"
   xmlns="http://www.w3.org/2000/svg"
   xmlns:svg="http://www.w3.org/2000/svg"><sodipodi:namedview
     id="namedview14"
     pagecolor="#505050"
     bordercolor="#eeeeee"
     borderopacity="1"
     inkscape:showpageshadow="0"
     inkscape:pageopacity="0"
     inkscape:pagecheckerboard="0"
     inkscape:deskcolor="#505050"
     inkscape:document-units="mm"
     showgrid="true"
     inkscape:zoom="0.02"
     inkscape:cx="12350"
     inkscape:cy="7800"
     inkscape:window-width="1366"
     inkscape:window-height="746"
     inkscape:window-x="0"
     inkscape:window-y="0"
     inkscape:window-maximized="1"
     inkscape:current-layer="layer1"
     inkscape:lockguides="true"><inkscape:grid
       type="xygrid"
       id="grid344"
       color="#969696"
       opacity="0.39215686"
       empcolor="#000000"
       empopacity="0.17254902"
       dotted="false"
       originx="-10703.537"
       originy="-46093.581" /></sodipodi:namedview><defs
     id="defs9" /><g
     inkscape:label="Layer 1"
     inkscape:groupmode="layer"
     id="layer1"
     transform="translate(-10808.538,-46242.078)"><path
       style="fill:none;stroke:#ffffff;stroke-width:10.7"
       d="m 11044.676,46450.878 c -25.375,20.906 -54.916,37.594 -76.123,62.716 -58.381,69.159 -54.847,204.263 -38.417,286.063 5.249,26.135 71.45,172.203 42.685,116.472"
       id="path358" /><path
       style="fill:none;stroke:#ffffff;stroke-width:10.7"
       d="m 10809.192,46753.579 c 94.971,11.703 160.989,26.1 230.504,81.275"
       id="path360" /><path
       style="fill:none;stroke:#ffffff;stroke-width:10.7"
       d="m 11327.825,46243.531 c 20.339,72.053 40.219,145.981 42.686,221.427 0.128,3.903 -1.848,-7.625 -2.134,-11.52 -9.742,-132.415 7.556,-31.716 -40.552,-209.907 z"
       id="path362" /><path
       style="fill:none;stroke:#ffffff;stroke-width:10.7"
       d="m 11747.569,46575.67 c -4.828,18.09 207.842,10.518 207.738,10.88 -2.231,7.693 -13.281,8.959 -19.921,13.439"
       id="path364" /><path
       style="fill:none;stroke:#ffffff;stroke-width:10.7"
       d="m 11707.017,46793.897 c 143.946,-1.533 80.154,-1.641 191.375,-0.64"
       id="path366" /><path
       style="fill:none;stroke:#ffffff;stroke-width:10.7"
       d="m 12243.436,46605.109 c -31.303,25.171 -68.027,44.796 -93.909,75.515 -10.065,11.946 -11.584,30.757 -8.537,46.077 21.091,106.071 308.428,-20.285 263.229,-133.111 -4.135,-10.321 -20.213,-12.314 -31.303,-11.52 -43.726,3.133 -89.948,4.093 -129.48,23.039 -116.743,55.947 -151.873,155.741 -112.406,119.672 40.399,-36.92 74.937,-79.782 112.406,-119.672 z"
       id="path368" /><path
       style="fill:none;stroke:#ffffff;stroke-width:10.7"
       d="m 12303.196,46427.2 c -10.434,-19.412 -11.891,-68.671 -31.303,-58.236 -19.412,10.434 36.611,36.846 31.303,58.236 -8.69,35.019 -59.621,49.77 -66.875,85.115 -8.392,40.891 14.658,82.231 24.189,122.872 19.377,82.628 118.316,355.23 87.506,438.372"
       id="path370" /><path
       style="fill:none;stroke:#ffffff;stroke-width:10.7"
       d="m 12855.977,47044.761 c 76.686,31.514 204.656,-0.147 259.672,66.556"
       id="path372" /><path
       style="fill:none;stroke:#ffffff;stroke-width:10.7"
       d="m 12855.977,47224.589 c 78.131,25.781 203.365,56.672 271.055,-12.158"
       id="path374" /><path
       style="fill:none;stroke:#ffffff;stroke-width:10.7"
       d="m 13129.166,46909.09 c 34.624,-9.6 69.496,-39.257 103.869,-28.799 99.666,30.324 169.422,109.345 165.763,212.467 -1.601,45.138 -19.517,88.612 -36.283,130.552 -23.5,58.79 -143.343,275.456 -140.863,177.268"
       id="path376" /><path
       style="fill:none;stroke:#ffffff;stroke-width:10.7"
       d="m 14172.123,46942.368 c -30.354,7.039 -65.201,3.737 -91.063,21.118 -19.414,13.048 -26.83,39.44 -32.725,62.076 -32.773,125.829 239.714,161.526 236.906,83.195"
       id="path378" /><path
       style="fill:none;stroke:#ffffff;stroke-width:10.7"
       d="m 14269.589,46902.69 c 6.403,-18.772 37.981,-49.914 19.209,-56.317 -18.773,-6.403 -34.459,43.635 -19.209,56.317 142.77,118.735 62.422,-109.229 127.346,73.595 8.432,23.743 15.147,99.414 14.229,74.236 -0.745,-20.435 23.693,-258.796 73.989,-168.31"
       id="path380" /><path
       style="fill:none;stroke:#ffffff;stroke-width:10.7"
       d="m 14556.296,46983.325 c 26.965,-47.463 31.245,-92.801 20.631,-144.631 -5.894,44.322 40.645,-261.753 107.426,-222.706 15.656,9.154 11.863,133.929 27.034,179.189 11.789,35.17 84.908,133.84 76.124,175.988"
       id="path382" /><path
       style="fill:none;stroke:#ffffff;stroke-width:10.7"
       d="m 14685.776,46882.211 c 63.673,-20.379 118.471,-14.488 181.415,-6.399"
       id="path384" /><path
       style="fill:none;stroke:#ffffff;stroke-width:10.7"
       d="m 14870.036,46742.7 c 2.372,-26.452 -0.591,-53.94 7.115,-79.355 10.81,-35.655 98.466,-113.447 140.863,-95.994 17.544,7.222 -8.231,46.478 -22.766,110.713 -40.532,179.133 -35.701,222.07 136.595,177.269"
       id="path386" /><path
       style="fill:none;stroke:#ffffff;stroke-width:10.7"
       d="m 15212.946,46724.141 c -18.991,12.907 -100.723,37.435 -47.666,74.235 51.119,35.458 192.007,-33.083 162.918,-101.113 -4.655,-10.886 -23.842,11.637 -27.035,23.038 -8.288,29.594 1.628,214.478 54.069,188.149 16.329,-8.199 22.766,-28.585 34.148,-42.878"
       id="path388" /><path
       style="fill:none;stroke:#ffffff;stroke-width:10.7"
       d="m 15419.972,46631.347 c -2.372,-19.199 12.084,-59.968 -7.115,-57.596 -32.008,3.953 94.073,357.283 105.292,376.936"
       id="path390" /><path
       style="fill:none;stroke:#ffffff;stroke-width:10.7"
       d="m 15984.136,46596.149 c -12.357,112.238 17.613,234.825 59.76,339.819 2.648,6.597 -4.98,-13.324 -7.826,-19.839"
       id="path392" /><path
       style="fill:none;stroke:#ffffff;stroke-width:10.7"
       d="m 15953.545,46664.625 c -72.337,-171.134 187.817,-205.373 187.817,-35.838 0,78.195 -116.682,211.61 -65.452,16.639"
       id="path394" /><path
       style="fill:none;stroke:#ffffff;stroke-width:10.7"
       d="m 16253.768,46687.664 c 9.249,28.158 23.644,55.121 27.746,84.474 2.872,20.548 -30.565,42.307 -33.437,21.759 -0.553,-3.953 -10.287,-266.018 39.84,-215.667 54.47,54.713 22.788,145.394 54.069,185.589 68.067,-101.373 49.8,-164.673 49.8,-271.343 126.425,-3.522 50.402,141.074 105.292,181.108 15.509,11.313 43.215,-61.084 71.854,-114.552 8.767,-16.368 24.94,-63.521 31.303,-46.077 9.315,25.537 -16.533,196.716 41.263,180.468"
       id="path396" /><path
       style="fill:none;stroke:#ffffff;stroke-width:10.7"
       d="m 16728.292,46516.154 c 31.945,-193.839 -0.1,-1.39 0,0 5.804,83.293 31.303,145.812 31.303,225.266 59.45,-105.626 76.195,-127.331 176.435,-96.634"
       id="path398" /><path
       style="fill:none;stroke:#ffffff;stroke-width:10.7"
       d="m 11173.445,47899.747 c -20.632,-8.106 -40.533,-30.238 -61.895,-24.318 -111.383,30.867 -140.638,187.518 -116.674,279.662 19.622,75.451 80.85,127.292 106.714,199.027"
       id="path400" /><path
       style="fill:none;stroke:#ffffff;stroke-width:10.7"
       d="m 10922.31,48197.328 c 70.196,-38.626 156.26,71.279 218.409,44.797"
       id="path402" /><path
       style="fill:none;stroke:#ffffff;stroke-width:10.7"
       d="m 11366.242,47597.686 c 11.715,14.734 53.131,332.255 70.432,245.105"
       id="path408" /><path
       style="fill:none;stroke:#ffffff;stroke-width:10.7"
       d="m 11453.748,47548.409 c 85.209,67.068 44.482,188.988 93.909,270.063"
       id="path410" /><path
       style="fill:none;stroke:#ffffff;stroke-width:10.7"
       d="m 12397.105,47925.985 c -16.776,13.902 53.26,524.345 44.109,321.26"
       id="path412" /><path
       style="fill:none;stroke:#ffffff;stroke-width:10.7"
       d="m 12360.11,48156.371 c 79.837,4.341 245.732,35.465 278.17,-71.035 15.387,-50.52 -44.682,-30.207 -61.183,-7.68 -73.578,100.447 19.738,228.86 91.062,179.188 33.058,-23.021 54.069,-59.729 81.104,-89.594"
       id="path414" /><path
       style="fill:none;stroke:#ffffff;stroke-width:10.7"
       d="m 12773.451,48002.78 c 5.749,18.54 9.964,296.075 53.358,113.913"
       id="path416" /><path
       style="fill:none;stroke:#ffffff;stroke-width:10.7"
       d="m 12838.191,47920.866 c 22.51,77.913 50.534,346.939 148.689,135.031"
       id="path418" /><path
       style="fill:none;stroke:#ffffff;stroke-width:10.7"
       d="m 13006.8,47866.469 c -100.248,202.877 114.131,168.291 202.758,281.582 11.983,15.318 6.631,41.67 -3.557,58.237 -36.999,60.164 -183.445,71.736 -231.926,17.919 -10.079,-11.189 -9.486,-28.585 -14.229,-42.878"
       id="path420" /><path
       style="fill:none;stroke:#ffffff;stroke-width:10.7"
       d="m 13622.188,47936.225 c -148.114,261.41 157.965,295.985 205.603,50.557"
       id="path422" /><path
       style="fill:none;stroke:#ffffff;stroke-width:10.7"
       d="m 13802.891,47894.627 c 58.337,21.332 121.219,32.938 175.012,63.996 90.374,52.179 -41.469,186.529 -68.297,208.627 -64.717,53.306 -95.201,-70.765 -96.755,-104.313"
       id="path424" /><path
       style="fill:none;stroke:#ffffff;stroke-width:10.7"
       d="m 14968.214,47645.683 c 41.224,102.066 52.754,209.792 69.008,317.42 4.262,28.222 19.086,85.415 14.94,117.113"
       id="path426" /><path
       style="fill:none;stroke:#ffffff;stroke-width:10.7"
       d="m 14921.971,47963.743 c 94.666,-9.981 141.855,18.807 135.172,-93.434"
       id="path428" /><path
       style="fill:none;stroke:#ffffff;stroke-width:10.7"
       d="m 15075.64,47773.675 c 24.425,31.998 49.279,63.674 73.277,95.994 17.981,24.216 35.004,49.13 52.646,73.595 10.816,15 21.405,30.175 32.726,44.798 68.273,88.185 -15.444,-120.929 33.437,-119.673 46.265,1.189 58.981,115.503 128.769,84.475 43.645,-19.405 115.462,-108.869 80.391,-161.27 -46.644,-69.694 -92.041,25.052 -103.869,62.076 -41.361,129.475 133.911,163.552 215.564,163.19 7.123,-0.03 53.205,-9.402 41.974,-26.239"
       id="path430" /><path
       style="fill:none;stroke:#ffffff;stroke-width:10.7"
       d="m 16191.874,47609.845 c -28.932,10.88 -69.539,6.994 -86.795,32.638 -44.158,65.627 -84.796,253.467 30.592,292.462 67.661,22.866 147.581,-30.472 203.469,-60.797 -106.036,99.909 1.219,-261.577 61.183,-215.026 69.806,54.192 35.314,300.583 30.592,202.868"
       id="path432" /><path
       style="fill:none;stroke:#ffffff;stroke-width:10.7"
       d="m 16475.734,47616.885 c 72.198,75.631 56.646,38.469 74.701,149.11 3.328,20.393 -4.116,73.61 12.094,60.796 52.193,-41.259 78.457,-273.049 105.291,-188.147 12.847,40.644 -2.245,157.265 33.438,175.989 7.56,3.967 15.651,-6.827 23.477,-10.24"
       id="path434" /><path
       style="fill:none;stroke:#ffffff;stroke-width:10.7"
       d="m 16830.739,47600.886 c -96.2,25.127 -34.514,344.98 88.928,182.388"
       id="path436" /><path
       style="fill:none;stroke:#ffffff;stroke-width:10.7"
       d="m 16978.716,47673.201 c -9.96,24.959 -26.054,48.277 -29.881,74.876 -1.746,12.135 4.409,26.577 14.229,33.917 46.656,34.876 119.772,-53.797 142.286,-83.834 13.61,-18.157 47.233,-59.339 24.9,-63.356 -35.627,-6.409 -29.668,290.105 52.646,109.433"
       id="path438" /><path
       style="fill:none;stroke:#ffffff;stroke-width:10.7"
       d="m 17197.837,47673.841 c 2.371,-17.919 5.638,-35.742 7.114,-53.756 1.848,-22.557 2.675,-45.205 2.845,-67.836 0.07,-8.987 -1.141,-17.946 -2.134,-26.878 -1.016,-9.145 2.579,18.328 2.134,27.518 -1.953,40.407 -30.371,86.025 -9.959,120.952 18.889,32.324 67.491,35.855 104.58,40.958 13.337,1.834 49.835,-124.916 52.645,-151.031 7.933,-73.74 -26.205,91.034 24.9,52.477 55.005,-41.5 46.129,-143.888 43.398,-202.867 21.812,-56.665 51.964,-108.303 81.814,-160.63 3.697,-6.481 12.961,-24.632 14.229,-17.279 14.795,85.764 6.838,174.169 27.034,260.463 10.738,45.882 39.086,105.296 28.458,108.794 -9.122,3.002 -19.515,-0.982 -28.458,-4.48 -129.242,-50.548 262.235,-161.73 282.438,-170.869 29.973,-13.558 91.947,-65.784 61.183,-77.435 -38.073,-14.42 -52.17,229.085 -54.069,254.703 -1.035,13.958 3.696,46.281 -9.249,40.958 -27.287,-11.221 -35.658,-47.067 -51.934,-71.676 m 0,0 c -238.381,-106.247 -16.671,-121.956 -4.98,-91.514 10.952,28.519 3.32,61.009 4.98,91.514 z"
       id="path440" /><path
       style="fill:none;stroke:#ffffff;stroke-width:10.7"
       d="m 11393.276,49504.126 c -73.417,-281.513 244.842,-763.084 569.856,-578.524 186.071,105.661 314.03,529.251 365.675,723.795"
       id="path442" /><path
       style="fill:none;stroke:#ffffff;stroke-width:10.7"
       d="m 13292.084,48982.559 c -133.171,181.407 59.899,727.774 332.949,569.564 200.361,-116.092 218.048,-423.271 245.444,-624.601 13.413,-98.574 44.252,-226.035 -4.98,-181.748"
       id="path444" /><path
       style="fill:none;stroke:#ffffff;stroke-width:10.7"
       d="m 15018.725,49817.706 c -11.171,-160.702 61.059,-303.828 125.924,-446.052 43.671,-95.753 87.263,-211.894 200.623,-246.384 116.251,-35.37 290.993,42.099 395.555,-22.399 190.141,-117.286 319.563,-394.85 369.232,-600.282 40.451,-167.31 72.167,-130.909 15.652,-181.749"
       id="path448" /></g></svg>
