<?xml version="1.0" encoding="UTF-8" standalone="no"?>
<!-- Created with Inkscape (http://www.inkscape.org/) -->

<svg
   width="801.06689mm"
   height="596.79181mm"
   viewBox="0 0 801.06688 596.79181"
   version="1.1"
   id="svg12"
   inkscape:version="1.2.1 (9c6d41e410, 2022-07-14, custom)"
   sodipodi:docname="corss_product_evauated.svg"
   xml:space="preserve"
   xmlns:inkscape="http://www.inkscape.org/namespaces/inkscape"
   xmlns:sodipodi="http://sodipodi.sourceforge.net/DTD/sodipodi-0.dtd"
   xmlns="http://www.w3.org/2000/svg"
   xmlns:svg="http://www.w3.org/2000/svg"><sodipodi:namedview
     id="namedview14"
     pagecolor="#000000"
     bordercolor="#ffffff"
     borderopacity="1"
     inkscape:showpageshadow="0"
     inkscape:pageopacity="0"
     inkscape:pagecheckerboard="0"
     inkscape:deskcolor="#000000"
     inkscape:document-units="mm"
     showgrid="true"
     inkscape:zoom="0.16137215"
     inkscape:cx="1186.698"
     inkscape:cy="1118.5325"
     inkscape:window-width="1311"
     inkscape:window-height="697"
     inkscape:window-x="0"
     inkscape:window-y="0"
     inkscape:window-maximized="1"
     inkscape:current-layer="layer1"
     inkscape:lockguides="true" /><defs
     id="defs9"><rect
       x="587.26367"
       y="362.45731"
       width="66.575974"
       height="20.973427"
       id="rect1884" /></defs><g
     inkscape:label="Layer 1"
     inkscape:groupmode="layer"
     id="layer1"
     transform="translate(-3110.0578,-22306.667)"><path
       style="fill:none;stroke:#00ffff;stroke-width:1"
       d="m 3292.1985,22364.434 c 2.323,-5.335 0.5085,-1.314 4.1992,-8.777 0.9776,-1.977 1.7468,-3.484 2.4884,-5.51 0.577,-1.577 0.586,-1.489 0.6532,-2.748 0.01,-0.103 0.046,-0.401 0,-0.309 -0.3577,0.725 -0.101,1.624 0,2.426 0.7554,5.994 3.0996,10.178 6.159,15.227 0.5355,0.884 1.0912,1.757 1.5862,2.664 0.1492,0.273 0.3683,0.559 0.3424,0.869 -0.013,0.141 -0.2953,-0.04 -0.4046,-0.126 -0.7085,-0.582 -1.3478,-1.243 -2.0217,-1.865"
       id="path1304" /><path
       style="fill:none;stroke:#00ffff;stroke-width:1"
       d="m 3294.9359,22360.382 c 2.9543,2.989 -2.9443,-1.019 -2.1463,-1.22 3.6954,-0.93 10.5986,-1.97 14.5883,-0.771"
       id="path1306" /><path
       style="fill:none;stroke:#00ffff;stroke-width:1"
       d="m 3318.9492,22355.138 c -0.2792,1.344 -1.9061,7.576 -3.3285,8.048 -0.436,0.145 -0.8279,-1.474 -1.3062,-2.832"
       id="path1308" /><path
       style="fill:none;stroke:#00ffff;stroke-width:1"
       d="m 3313.3191,22355.222 c -0.2905,-0.56 -0.3101,-1.972 -0.871,-1.682 -0.5609,0.29 0.4204,1.24 0.871,1.682 2.8342,2.784 8.9916,6.385 10.3891,10.614"
       id="path1310" /><path
       style="fill:none;stroke:#00ffff;stroke-width:1"
       d="m 3329.9291,22360.088 c 0.042,0.08 0.1246,0.328 0.1246,0.238 0.063,-1.855 -0.5249,-3.982 -0.9953,-5.721 -0.5281,-1.95 -1.1877,-3.823 -1.4621,-3.491 -0.1868,0.226 -0.6842,2.079 -0.6842,2.089 -0.5261,-3.306 -1.6306,-7.246 2.5817,-8.44 0.8279,-0.235 1.7577,-0.248 2.5817,0 2.7736,0.836 5.7505,3.303 4.7902,6.576 -0.5251,1.79 -1.957,2.805 -3.4527,3.645 -0.1455,0.08 -0.573,0.205 -0.4976,0.06 1.9742,-3.901 11.4837,-1.088 9.9225,4.263 -0.9085,3.114 -4.7104,4.957 -7.7763,4.206 -1.2095,-0.296 -2.1677,-1.23 -3.2038,-1.921 -0.6777,-0.451 -1.5828,-0.763 -1.9287,-1.5 -0.4852,-1.034 -0.2488,-2.271 -0.3731,-3.407"
       id="path1312" /><path
       style="fill:none;stroke:#00ffff;stroke-width:1"
       d="m 3287.1907,22340.402 c 2.5551,1.361 5.62,1.11 8.4294,0.996 0.7374,-0.03 1.5049,0.07 2.2084,-0.155 0.308,-0.1 0.7253,-0.436 0.6221,-0.743 -0.9009,-2.677 -4.8385,-3.58 -7.0919,-4.388 -0.4212,-0.151 -1.3973,-0.08 -1.2443,-0.505 0.1817,-0.499 1.0369,-0.234 1.5554,-0.351"
       id="path1314" /><path
       style="fill:none;stroke:#00ffff;stroke-width:1"
       d="m 3320.0377,22339.603 c 4.3608,0.366 -3.3182,-0.259 7.8076,0.379 2.4683,0.141 4.3566,0.357 6.7185,0.603 0.5795,0.06 2.0019,0.381 1.742,-0.141 -0.3034,-0.608 -0.8337,-1.076 -1.2131,-1.64 -2.006,-2.983 -1.6878,-2.649 -3.3282,-5.833 -0.472,-0.916 -1.3356,-2.693 -1.493,-2.636 -0.2088,0.08 -0.062,0.439 -0.093,0.659"
       id="path1316" /><path
       style="fill:none;stroke:#00ffff;stroke-width:1"
       d="m 3352.9471,22349.025 c 4.15,0.778 8.3116,-0.122 12.4732,0.01 0.3096,0.01 1.0303,-0.06 0.902,0.225 -0.1648,0.362 -0.7673,0.215 -1.1507,0.322"
       id="path1318" /><path
       style="fill:none;stroke:#00ffff;stroke-width:1"
       d="m 3355.4977,22352.53 c 4.2698,0.64 8.6389,-0.104 12.9087,0.617"
       id="path1320" /><path
       style="fill:none;stroke:#00ffff;stroke-width:1"
       d="m 3383.7414,22340.262 c 2.4884,2 2.3191,1.537 4.137,4.557 1.1372,1.889 1.928,3.759 1.773,6.057 -0.1791,2.649 -4.5985,7.717 -7.2787,4.417 -2.699,-3.324 0.5675,-7.651 4.0436,-8.259 2.4091,-0.421 2.7599,0.175 4.8837,1.206"
       id="path1326" /><path
       style="fill:none;stroke:#00ffff;stroke-width:1"
       d="m 3397.2722,22350.918 c 2.1712,-0.129 4.4982,0.09 6.5942,-0.617 0.3371,-0.114 1.4068,-0.515 1.0575,-1.22 -1.2393,-2.501 -7.0246,-1.624 -8.1494,0.435 -0.2379,0.435 0.4128,0.913 0.4977,1.402 0.1143,0.659 -0.4514,1.616 0.093,2.005 1.3999,0.999 3.2311,1.22 4.9147,1.57 1.5552,0.324 6.578,-0.461 6.4389,-2.72"
       id="path1328" /><path
       style="fill:none;stroke:#00ffff;stroke-width:1"
       d="m 3412.7003,22346.151 c 0.2323,1.831 2.8324,8.258 1.7108,9.66 -0.1103,0.138 -0.3524,-0.02 -0.5289,-0.03"
       id="path1330" /><path
       style="fill:none;stroke:#00ffff;stroke-width:1"
       d="m 3409.1853,22350.497 c 3.2864,-1.271 6.7845,-0.605 10.1404,0"
       id="path1332" /><path
       style="fill:none;stroke:#00ffff;stroke-width:1"
       d="m 3425.7022,22329.227 c -0.7154,1.16 -1.5825,2.238 -2.146,3.478 -3.1549,6.941 -0.9181,16.634 3.7946,22.307 2.0696,2.491 4.4061,4.293 7.7142,4.08"
       id="path1334" /><path
       style="fill:none;stroke:#00ffff;stroke-width:1"
       d="m 3440.4151,22321.18 c 0.1704,18.384 3.3126,36.614 2.6128,55.032"
       id="path1336" /><path
       style="fill:none;stroke:#00ffff;stroke-width:1"
       d="m 3456.6521,22322.932 c 0.068,2.752 -0.2762,5.454 -0.7776,8.146 -0.024,0.125 -0.031,0.252 -0.031,0.379 0,0.07 0.021,-0.131 0.031,-0.197"
       id="path1338" /><path
       style="fill:none;stroke:#00ffff;stroke-width:1"
       d="m 3452.6706,22321.951 c 1.143,0 2.8173,-6.078 3.6703,-6.282 1.6095,-0.384 5.587,3.199 6.6255,4.459"
       id="path1340" /><path
       style="fill:none;stroke:#00ffff;stroke-width:1"
       d="m 3485.1755,22322.904 c 2.1714,-0.192 5.3819,4.012 4.137,5.917 -1.0258,1.57 -3.7899,3.989 -5.661,1.767 -0.6683,-0.794 -0.9747,-1.833 -1.4621,-2.749"
       id="path1342" /><path
       style="fill:none;stroke:#00ffff;stroke-width:1"
       d="m 3482.2516,22320.535 c 1.0237,-0.03 1.3856,-6.184 2.613,-6.338 1.8164,-0.228 6.332,5.059 7.0297,6.632"
       id="path1344" /><path
       style="fill:none;stroke:#00ffff;stroke-width:1"
       d="m 3505.8606,22318.698 c 0.5289,0.219 1.243,0.2 1.5865,0.659 1.3234,1.767 1.3848,6.165 1.5552,8.356 0.1204,1.549 0.01,2.434 0.4355,2.356 0.2929,-0.05 0.4561,-0.383 0.6842,-0.575"
       id="path1346" /><path
       style="fill:none;stroke:#00ffff;stroke-width:1"
       d="m 3511.3973,22324.306 c -0.8607,0.173 -1.9166,-0.05 -2.5818,0.519 -0.3262,0.281 0.4651,0.769 0.84,0.981 2.9943,1.693 6.4609,1.476 9.5803,2.468"
       id="path1348" /><path
       style="fill:none;stroke:#00ffff;stroke-width:1"
       d="m 3499.1418,22319.175 c 2.5183,-2.082 3.4888,-4.674 4.5104,-7.642 0.3278,-0.952 0.5334,-2.442 0.9019,-2.412 1.3708,0.113 8.5429,6.617 9.9849,8.427"
       id="path1350" /><path
       style="fill:none;stroke:#00ffff;stroke-width:1"
       d="m 3528.4431,22306.822 c 6.5868,20.211 2.0547,41.999 6.9985,62.506 1.17,4.852 3.3642,9.32 5.257,13.909 0.7024,1.703 1.896,4.11 2.1151,6.084"
       id="path1354" /><path
       style="fill:none;stroke:#00ffff;stroke-width:1"
       d="m 3453.044,22367.561 c -0.083,0.542 -0.2255,1.078 -0.249,1.626 -0.1127,2.606 0.3633,5.192 0.3421,7.796 -0.01,0.682 -0.4366,2.544 0.031,2.047 0.1958,-0.208 0.2075,-0.533 0.3109,-0.799"
       id="path1378" /><path
       style="fill:none;stroke:#00ffff;stroke-width:1"
       d="m 3453.2305,22369.902 c -0.5583,-0.699 -1.8015,-1.814 -1.4309,-2.972 0.1678,-0.524 0.7229,-0.848 1.1819,-1.15 1.2893,-0.848 3.2655,-1.837 4.9147,-1.809 4.8852,0.08 5.9253,4.023 2.9861,7.474 -1.1793,1.384 -2.9224,2.5 -4.5101,3.393 -1.1946,0.671 -0.9822,0.03 0.9953,-0.701 1.1158,-0.411 2.272,-0.755 3.4526,-0.897 1.7206,-0.208 8.4698,0.595 5.2879,3.855 -1.493,1.53 -7.2818,4.895 -9.4249,3.562 -0.9094,-0.566 -0.5803,-1.771 -0.5287,-2.538"
       id="path1380" /><path
       style="fill:none;stroke:#00ffff;stroke-width:1"
       d="m 3476.0307,22377.165 c -0.889,1.581 -1.5126,3.295 -2.364,4.894 -0.9774,1.836 -2.1609,4.097 -2.7684,3.407 -1.3303,-1.512 -2.3484,-4.788 -3.1729,-6.646 -0.2079,-0.469 -0.849,-1.579 -0.3421,-1.5 2.9499,0.454 11.3107,7.781 12.2246,10.782"
       id="path1382" /><path
       style="fill:none;stroke:#00ffff;stroke-width:1"
       d="m 3483.9314,22366.621 c -0.1132,3.969 1.2317,7.861 1.7418,11.694"
       id="path1384" /><path
       style="fill:none;stroke:#00ffff;stroke-width:1"
       d="m 3482.9982,22368.178 c -0.8749,-2.026 -1.774,-5.195 1.2753,-5.945 0.6046,-0.149 1.2819,-0.144 1.8664,0.07 4.5834,1.68 2.0003,6.546 -0.7466,8.483 -0.5514,0.388 0.9271,-1.018 1.5242,-1.332 0.7215,-0.38 1.4978,-0.692 2.3019,-0.828 3.3025,-0.556 5.1012,1.594 5.1012,4.852 0,1.869 -5.3375,5.801 -7.061,4.893 -0.4728,-0.249 -0.5183,-0.935 -0.7776,-1.402"
       id="path1386" /><path
       style="fill:none;stroke:#00ffff;stroke-width:1"
       d="m 3503.963,22374.179 c 0.335,2.748 0.3051,0.84 -1.4306,5.398 -0.3056,0.802 -0.5619,1.624 -0.9022,2.411 -0.264,0.612 -0.5453,1.81 -1.1819,1.613 -0.263,-0.08 -0.3318,-0.439 -0.4977,-0.659"
       id="path1388" /><path
       style="fill:none;stroke:#00ffff;stroke-width:1"
       d="m 3496.9333,22375.637 c 2.173,0.978 4.046,2.486 5.1324,4.641"
       id="path1390" /><path
       style="fill:none;stroke:#00ffff;stroke-width:1"
       d="m 3511.8328,22366.692 c -0.2384,-0.716 -0.477,-1.43 -0.7154,-2.146 -0.1244,-0.04 -0.4144,-0.235 -0.3734,-0.112 2.871,5.953 -0.1092,-1.251 0.8401,4.459 0.09,0.545 2.1138,5.727 2.3328,6.295 0.3464,0.899 1.3677,3.601 1.0885,2.678"
       id="path1392" /><path
       style="fill:none;stroke:#00ffff;stroke-width:1"
       d="m 3512.7969,22368.57 c -0.9453,-3.345 -3.3676,-5.498 0.498,-7.907 0.5244,-0.327 1.2277,-0.381 1.8351,-0.267 2.6747,0.502 2.58,3.529 1.6174,5.44 -0.5278,1.048 -1.1813,2.123 -2.1463,2.79 -0.4947,0.343 -2.3328,0.232 -1.8042,-0.06 0.5713,-0.31 5.2364,-2.164 6.4389,-0.757 3.3838,3.961 -0.9691,8.827 -4.9146,9.843 -1.1107,0.286 -1.1631,-0.739 -1.1197,-1.5"
       id="path1394" /><path
       style="fill:none;stroke:#00ffff;stroke-width:1"
       d="m 3523.1551,22374.039 c 0.1101,-0.05 3.1126,-1.388 3.4526,-1.515 5.6134,-2.091 2.4204,4.039 0.9644,6.296 -0.8181,1.268 -2.1032,2.211 -2.8305,3.533 -0.3842,0.699 0.6971,0.274 1.4308,0.168 1.0729,-0.154 5.3549,0.07 5.9722,-0.729"
       id="path1396" /><path
       style="fill:none;stroke:#00ffff;stroke-width:1"
       d="m 3521.7555,22378.539 c 3.1443,-1.18 6.5397,-0.78 9.7671,-0.168 1.3766,0.262 1.2766,0.04 1.2128,0.785"
       id="path1398" /><path
       style="fill:none;stroke:#00ffff;stroke-width:1"
       d="m 3450.6799,22352.068 c -0.042,0.411 -0.5358,1.192 -0.1243,1.234 0.4111,0.04 -0.094,-0.883 0.1243,-1.234 0.4874,-0.785 1.4439,-1.215 1.8973,-2.019 0.7353,-1.305 1.6672,-7.945 1.773,-9.717 0.026,-0.443 -0.018,-0.888 -0.031,-1.332 -0.011,-0.341 -0.2667,-1.236 0,-1.023 1.2853,1.027 1.3679,4.699 1.9282,6.295 0.3829,1.09 0.8322,2.158 1.3378,3.197 0.3659,0.752 4.8654,7.63 2.5818,7.263"
       id="path1400" /><path
       style="fill:none;stroke:#00ffff;stroke-width:1"
       d="m 3451.6131,22349.193 c 3.039,-0.993 6.2733,-0.355 9.3313,0.253"
       id="path1402" /><path
       style="fill:none;stroke:#00ffff;stroke-width:1"
       d="m 3467.0412,22348.492 c 6.163,-2.894 -0.3402,8.882 -1.1509,9.198 -0.303,0.118 -0.1069,-0.643 -0.1244,-0.967"
       id="path1404" /><path
       style="fill:none;stroke:#00ffff;stroke-width:1"
       d="m 3463.0907,22350.918 c -0.4043,-0.509 -1.8341,-1.335 -1.2128,-1.528 1.6491,-0.513 10.0343,3.28 11.5088,4.332 3.1965,2.28 3.5595,1.714 2.4884,2.86"
       id="path1406" /><path
       style="fill:none;stroke:#00ffff;stroke-width:1"
       d="m 3483.1538,22353.75 c -0.062,-0.939 -0.1915,-1.877 -0.1868,-2.818 0.016,-2.976 0.3051,-6.11 0.6221,-9.072 0.1275,-1.188 0.2616,-1.565 0.6535,-2.65 0.091,-0.251 0.3558,-0.928 0.4352,-0.672 0.086,0.277 0.043,0.579 0.062,0.869 0.2453,3.73 0,4.069 1.9598,8.3 0.5876,1.27 1.4972,2.369 2.3328,3.491 0.4527,0.609 2.2852,1.636 0.4355,1.136"
       id="path1408" /><path
       style="fill:none;stroke:#00ffff;stroke-width:1"
       d="m 3483.3716,22350.792 c 3.5332,-1.195 2.0169,-1.097 4.4479,-0.996"
       id="path1410" /><path
       style="fill:none;stroke:#00ffff;stroke-width:1"
       d="m 3494.787,22348.717 c -0.1606,1.57 -0.1704,7.278 -1.9907,7.571"
       id="path1412" /><path
       style="fill:none;stroke:#00ffff;stroke-width:1"
       d="m 3490.619,22352.32 c 4.5503,-0.805 2.72,-1.063 5.5367,-0.322"
       id="path1414" /><path
       style="fill:none;stroke:#00ffff;stroke-width:1"
       d="m 3506.3583,22353.624 c 0.8488,-3.061 0.4016,-1.178 0.9642,-4.276 0.7448,-4.102 1.8372,-8.126 2.364,-12.269 0.073,-0.576 0.2424,-2.189 -0.1244,-1.738 -0.2984,0.367 -0.5257,0.821 -0.591,1.29 -0.6972,4.994 -0.2339,6.869 2.8929,10.599 0.7403,0.884 1.5206,1.735 2.3329,2.552 1.3287,1.338 3.0673,2.376 2.3328,2.104 -0.2019,-0.08 -0.3733,-0.216 -0.5599,-0.323"
       id="path1416" /><path
       style="fill:none;stroke:#00ffff;stroke-width:1"
       d="m 3508.7224,22347.735 c -0.4668,-0.229 -1.1708,-1.153 -1.3999,-0.687 -0.2289,0.467 0.8866,0.769 1.3999,0.687 8.4563,-1.35 -1.7696,-1.868 5.8478,-1.136"
       id="path1418" /><path
       style="fill:none;stroke:#00ffff;stroke-width:1"
       d="m 3522.5331,22347.497 c -0.013,-0.911 -1.5976,0.432 -1.8352,0.08 -0.1193,-0.175 0.068,-0.402 0.28,-0.393 0.5278,0.02 1.0392,0.423 1.5552,0.309 0.1889,-0.04 2.7376,-2.005 3.7325,-0.996 1.1414,1.158 -6.6091,6.47 -4.2614,7.698 1.3599,0.711 3.8121,0.19 5.1945,0.08 1.0166,-0.08 2.0323,-0.168 3.0483,-0.252 0.8962,-0.08 -0.5173,-0.66 -0.902,-0.968"
       id="path1420" /><path
       style="fill:none;stroke:#00ffff;stroke-width:1"
       d="m 3517.4007,22351.479 c 3.1962,0.519 7.5245,-1.385 10.2957,0.28"
       id="path1422" /><path
       style="fill:none;stroke:#00ffff;stroke-width:1"
       d="m 3542.1604,22309.977 c 4.9247,7.662 6.3418,16.968 7.5898,25.826 0.8311,5.899 1.4359,9.589 0.9642,15.311 -0.63,7.644 -2.7041,16.511 -9.9227,20.611"
       id="path1424" /><path
       style="fill:none;stroke:#00ffff;stroke-width:1"
       d="m 3456.096,22431.836 c -0.083,1.515 -0.1461,3.03 -0.2483,4.543 -0.3145,4.655 -0.6753,9.284 -1.2725,13.909 -0.2471,1.914 -0.1552,0.598 -0.1552,-0.08"
       id="path430" /><path
       style="fill:none;stroke:#00ffff;stroke-width:1"
       d="m 3452.4647,22427.686 c 1.7554,-1.945 5.7194,-5.246 5.2142,-8.44 -0.057,-0.36 0.185,0.708 0.3414,1.037 0.37,0.778 0.7953,1.528 1.1794,2.3 1.7064,3.426 2.7602,6.506 3.6313,10.179"
       id="path432" /><path
       style="fill:none;stroke:#00ffff;stroke-width:1"
       d="m 3486.6052,22431.276 c 9.7461,8.103 0.4881,30.557 -6.1764,11.581"
       id="path434" /><path
       style="fill:none;stroke:#00ffff;stroke-width:1"
       d="m 3484.2153,22427.294 c 2.9634,-0.857 2.6647,-8.153 5.059,-9.983 0.8887,-0.68 6.5303,6.619 7.2627,8.132"
       id="path436" /><path
       style="fill:none;stroke:#00ffff;stroke-width:1"
       d="m 3512.2416,22432.594 c 2.2013,3.663 -1.779,15.983 0.7759,13.235"
       id="path438" /><path
       style="fill:none;stroke:#00ffff;stroke-width:1"
       d="m 3517.7972,22438.342 c -2.1666,2.086 -3.3026,3.54 -0.3725,4.851 0.8388,0.376 6.4336,1.7 3.6624,3.281"
       id="path440" /><path
       style="fill:none;stroke:#00ffff;stroke-width:1"
       d="m 3507.1826,22428.051 c 5.4515,-2.584 5.0311,-9.058 8.2868,-13.124 0.4287,-0.535 0.6987,1.195 0.9001,1.851 1.3905,4.528 3.0903,8.86 4.8107,13.264"
       id="path442" /><path
       style="fill:none;stroke:#00ffff;stroke-width:1"
       d="m 3457.7099,22495.464 c 1.352,-2.291 -9.069,-18.845 -5.3073,-21.677 0.1195,-0.09 0.3565,0.06 0.4035,0.197 0.76,2.271 -2.5756,9.829 -3.2278,11.693 -2.1639,6.186 -1.7298,3.377 -2.0485,7.936 1.2771,-0.479 8.1316,-4.935 10.3043,-1.711"
       id="path444" /><path
       style="fill:none;stroke:#00ffff;stroke-width:1"
       d="m 3468.4176,22489.323 c -2.0376,4.193 -2.8365,8.702 -3.8796,13.179 -0.1002,0.43 -0.095,1.578 -0.4035,1.262 -0.5303,-0.543 -0.3517,-1.477 -0.5276,-2.215"
       id="path446" /><path
       style="fill:none;stroke:#00ffff;stroke-width:1"
       d="m 3461.186,22493.557 c 3.4782,3.029 10.4269,7.111 11.1733,12.843"
       id="path448" /><path
       style="fill:none;stroke:#00ffff;stroke-width:1"
       d="m 3482.9739,22484.191 c 1.9066,-5.64 4.0417,-11.278 5.2141,-17.134 0.1565,-0.781 0.7776,-2.918 0.1863,-2.383 -0.9016,0.814 -0.1337,2.437 0,3.645 0.6824,6.166 2.9944,11.891 4.7176,17.807 0,0 1.722,5.164 -0.062,2.888"
       id="path450" /><path
       style="fill:none;stroke:#00ffff;stroke-width:1"
       d="m 3485.3637,22479.424 c 2.3789,-1.118 5.0859,-1.436 7.604,-0.561"
       id="path452" /><path
       style="fill:none;stroke:#00ffff;stroke-width:1"
       d="m 3506.5618,22483.686 c -0.8651,4.751 -1.787,9.488 -3.0105,14.161 -0.2767,1.057 -0.3054,3.28 -1.4277,2.075"
       id="path454" /><path
       style="fill:none;stroke:#00ffff;stroke-width:1"
       d="m 3498.1198,22486.63 c 1.1314,1.311 4.6704,3.119 5.3383,5.413"
       id="path456" /><path
       style="fill:none;stroke:#00ffff;stroke-width:1"
       d="m 3522.2354,22491.538 c 1.2149,-8.09 2.2541,-16.207 3.6003,-24.285 0.2143,-1.285 0.2282,-5.13 0.5586,-3.869 0.2065,0.787 0.049,1.629 0.1242,2.439 0.3384,3.642 0.5836,5.855 1.4898,9.366 1.4041,5.442 3.3432,10.738 4.7486,16.181"
       id="path458" /><path
       style="fill:none;stroke:#00ffff;stroke-width:1"
       d="m 3524.3459,22482.172 c 2.3242,-0.644 4.6295,-0.958 7.0144,-1.038"
       id="path460" /><path
       style="fill:none;stroke:#00ffff;stroke-width:1"
       d="m 3538.2194,22484.303 c 1.5518,-0.86 3.0032,-1.934 4.6555,-2.58 1.4742,-0.576 4.3343,-0.497 4.1589,1.851 -0.327,4.379 -8.198,12.818 -7.8523,14.89 0.4598,2.757 8.9625,0.482 10.8008,0.253"
       id="path462" /><path
       style="fill:none;stroke:#00ffff;stroke-width:1"
       d="m 3537.04,22492.491 c 3.5892,1.209 7.168,-0.143 10.7698,-0.561"
       id="path464" /><path
       style="fill:none;stroke:#00ffff;stroke-width:1"
       d="m 3452.9302,22522.468 c 0.5246,5.778 -1.58,13.003 0.838,18.564 0.379,0.871 0.8852,-1.707 1.0863,-2.636"
       id="path466" /><path
       style="fill:none;stroke:#00ffff;stroke-width:1"
       d="m 3452.5888,22526.226 c -5.0889,-2.683 3.7923,-11.703 6.5798,-7.515 1.968,2.956 0.6093,6.743 -0.7448,9.562 -0.2916,0.607 -0.7297,1.132 -1.1174,1.682 -0.1199,0.171 -0.5483,0.627 -0.4035,0.477 4.7118,-4.866 9.9194,1.638 8.8766,6.954 -0.2636,1.344 -0.6112,2.695 -1.2105,3.926 -0.8281,1.702 -5.0207,7.594 -7.604,3.73 -1.1317,-1.693 -1.3242,-3.851 -1.9863,-5.777"
       id="path468" /><path
       style="fill:none;stroke:#00ffff;stroke-width:1"
       d="m 3473.5076,22533.909 c -0.5771,1.677 -2.8058,13.712 -3.3209,13.741 -0.486,0.03 -0.7035,-0.673 -1.0553,-1.01"
       id="path470" /><path
       style="fill:none;stroke:#00ffff;stroke-width:1"
       d="m 3466.4933,22535.872 c 5.2413,3.527 11.1832,8.914 12.8493,15.311"
       id="path472" /><path
       style="fill:none;stroke:#00ffff;stroke-width:1"
       d="m 3492.9056,22516.299 c 1.0924,5.592 1.2378,12.379 2.483,17.554"
       id="path474" /><path
       style="fill:none;stroke:#00ffff;stroke-width:1"
       d="m 3492.6573,22519.496 c -2.6832,-2.825 -0.1176,-11.35 4.5004,-8.525 3.7625,2.301 4.1956,6.978 3.414,10.88 -0.308,1.538 -0.9645,2.99 -1.5829,4.431 -0.104,0.242 -0.4431,0.798 -0.5586,0.561 -0.7764,-1.595 2.0847,-5.24 3.7244,-5.637 0.5951,-0.144 1.3645,-0.06 1.8001,0.365 3.4542,3.41 3.7646,6.699 2.0795,11.02 -0.7068,1.813 -2.6911,5.329 -4.6555,6.366 -3.6607,1.933 -4.3432,-4.051 -3.9727,-6.478"
       id="path476" /><path
       style="fill:none;stroke:#00ffff;stroke-width:1"
       d="m 3517.642,22528.974 c 0.6626,2.572 -0.9318,17.113 -3.8486,15.984"
       id="path478" /><path
       style="fill:none;stroke:#00ffff;stroke-width:1"
       d="m 3507.6481,22532.928 c 2.6894,-0.536 5.2199,-0.374 6.2694,2.411"
       id="path480" /><path
       style="fill:none;stroke:#00ffff;stroke-width:1"
       d="m 3536.5124,22515.71 c 1.268,6.379 1.7004,12.954 3.1036,19.293"
       id="path482" /><path
       style="fill:none;stroke:#00ffff;stroke-width:1"
       d="m 3536.2641,22520.477 c -0.5107,-1.961 -1.2181,-3.963 -0.7449,-6.057 1.0894,-4.821 7.0075,-6.463 9.311,-1.486 1.1098,2.398 0.2114,6.127 -0.5276,8.3 -0.2167,0.638 -1.9868,4.231 -3.2278,4.655 -1.767,0.605 1.0901,-7.533 4.7486,-7.15 4.16,0.434 5.1251,7.97 4.5934,10.936 -1.0738,5.991 -8.1903,15.356 -11.2353,4.851"
       id="path484" /><path
       style="fill:none;stroke:#00ffff;stroke-width:1"
       d="m 3553.8929,22533.713 c 0.5277,-0.916 0.76,-2.085 1.583,-2.748 2.4536,-1.978 8.3636,0.517 9.1558,3.253 0.6096,2.105 -1.2812,5.601 -2.2967,6.87 -1.2325,1.54 -2.824,2.765 -4.3762,3.982 -0.8803,0.69 -1.9038,1.177 -2.8864,1.711 -0.3957,0.215 -1.6914,0.552 -1.2415,0.532 4.0022,-0.172 7.8705,-3.238 11.9181,-3.813 1.8294,-0.26 4.0728,0.448 2.2967,2.271"
       id="path486" /><path
       style="fill:none;stroke:#00ffff;stroke-width:1"
       d="m 3555.1034,22539.153 c 3.8287,-0.729 10.189,-4.043 14.1838,-1.598"
       id="path488" /><path
       style="fill:none;stroke:#00ffff;stroke-width:1"
       d="m 3406.1517,22434.911 c 1.407,6.393 1.502,13.075 2.7312,19.461"
       id="path490" /><path
       style="fill:none;stroke:#00ffff;stroke-width:1"
       d="m 3414.2213,22441.893 c -1.4795,1.047 -3.2472,1.775 -4.4383,3.141 -0.7777,0.891 -1.1067,2.158 -1.2104,3.337 -0.4017,4.562 9.5001,1.899 10.118,6.365"
       id="path492" /><path
       style="fill:none;stroke:#00ffff;stroke-width:1"
       d="m 3398.4546,22433.452 c 1.1843,-2.782 2.9898,-11.079 6.0832,-12.394 1.0093,-0.429 1.8324,1.241 2.576,2.047 3.1609,3.427 6.2031,6.971 9.0938,10.628"
       id="path494" /><path
       style="fill:none;stroke:#00ffff;stroke-width:1"
       d="m 3413.5384,22531.964 c 0,0.888 -0.063,1.778 0,2.664 0.36,5.023 1.4113,9.88 1.676,14.918 0.1609,3.062 -0.1298,4.669 0.4035,4.627 0.4194,-0.03 0.2483,-0.804 0.3725,-1.206"
       id="path496" /><path
       style="fill:none;stroke:#00ffff;stroke-width:1"
       d="m 3412.9177,22537.124 c -3.8696,-1.157 1.8494,-13.136 4.6866,-9.366 2.55,3.388 2.136,8.279 1.5208,12.142 -0.155,0.973 -0.471,1.914 -0.7449,2.86 -0.078,0.27 -0.5283,0.963 -0.3104,0.785 3.8034,-3.109 -3.9048,0.894 3.321,-3.701 6.4907,-4.129 5.171,10.806 5.0279,11.693 -0.094,0.586 -3.0621,8.374 -5.6176,6.955 -1.8179,-1.01 -1.1348,-5.027 -1.1174,-6.114"
       id="path498" /><path
       style="fill:none;stroke:#00ffff;stroke-width:1"
       d="m 3432.0674,22554.201 c 0.9725,-0.953 1.7529,-2.154 2.9175,-2.86 2.3767,-1.441 4.9659,1.329 4.3141,3.589 -0.5602,1.943 -6.6898,9.128 -6.6109,9.31 0.622,1.436 10.0362,1.079 11.2043,1.43"
       id="path500" /><path
       style="fill:none;stroke:#00ffff;stroke-width:1"
       d="m 3432.6261,22560.118 c 3.3692,-2.088 6.8019,-3.818 10.8008,-2.832"
       id="path502" /><path
       style="fill:none;stroke:#00ffff;stroke-width:1"
       d="m 3552.8006,22422.404 c 0.2957,5.924 1.6144,11.727 2.6381,17.554"
       id="path504" /><path
       style="fill:none;stroke:#00ffff;stroke-width:1"
       d="m 3545.6311,22421.226 c 0.4552,-2 0.9104,-4.001 1.3656,-6.001 0.2173,-1.009 0.4238,-2.021 0.6518,-3.028 0.6027,-2.663 1.3025,-5.87 1.8932,-5.609 0.658,0.291 2.0602,3.359 2.0795,3.393 2.2099,3.876 4.5522,7.196 8.8144,8.805"
       id="path506" /><path
       style="fill:none;stroke:#00ffff;stroke-width:1"
       d="m 3588.8964,22504.034 c 1.9788,8.242 1.6363,17.302 4.6555,25.238"
       id="path508" /><path
       style="fill:none;stroke:#00ffff;stroke-width:1"
       d="m 3590.3862,22513.821 c -2.0575,-3.324 0.6134,-15.671 6.4246,-12.171 4.835,2.913 0.8141,12.165 -1.5829,15.227 -0.052,0.07 -0.017,-0.182 0.031,-0.252 0.3306,-0.481 0.6202,-1.022 1.0863,-1.374 1.1463,-0.865 2.5271,-1.331 3.8796,-0.505 3.0834,1.884 4.301,5.759 3.9107,9.198 -0.4595,4.047 -2.2305,7.777 -5.5556,10.235 -0.4612,0.341 -1.1271,0.751 -1.645,0.505 -1.3542,-0.645 -1.9427,-2.418 -2.483,-3.674"
       id="path510" /><path
       style="fill:none;stroke:#00ffff;stroke-width:1"
       d="m 3615.4639,22523.86 c 1.9275,-11.486 -2.7817,12.253 -3.352,14.301 -0.6237,2.24 -1.4112,4.785 -1.5829,4.767 -0.2301,-0.02 -0.5419,-2.398 -0.9311,-4.823"
       id="path512" /><path
       style="fill:none;stroke:#00ffff;stroke-width:1"
       d="m 3607.8599,22528.375 c -0.1863,-0.814 0.2545,-2.626 -0.5587,-2.44 -0.8132,0.186 -0.1279,1.966 0.5587,2.44 1.2486,0.861 3.1481,0.211 4.4382,1.009 2.8777,1.781 9.907,10.077 12.5079,13.32"
       id="path514" /><path
       style="fill:none;stroke:#00ffff;stroke-width:1"
       d="m 3437.808,22424.639 c 9.1669,11.619 18.0231,23.529 26.8158,35.445 2.1001,2.847 3.9915,5.771 6.3936,8.385 2.2995,2.502 5.117,4.369 7.542,6.73 6.7273,6.551 13.8546,12.653 20.8567,18.928 9.7812,8.767 19.2756,17.849 29.1125,26.556 11.743,10.395 23.4626,20.758 34.8233,31.575 3.1855,3.034 6.7578,5.514 10.0559,8.413 4.0009,3.517 7.7115,7.39 11.6388,10.992 2.5375,2.328 5.2009,4.523 7.6661,6.927 0.8125,0.792 1.5537,1.585 2.2967,2.439 0.2189,0.252 0.94,0.947 0.7139,0.702 -2.8248,-3.063 -12.7708,-6.041 -16.3254,-6.983 -3.6403,-0.964 -6.2012,-1.135 -9.9007,-1.318 -0.8072,-0.04 -3.0006,0.07 -2.3588,0.561 2.2537,1.725 5.1959,2.287 7.8213,3.365 2.0169,0.828 12.9505,6.806 14.7424,3.617 1.7729,-3.154 -0.058,-8.076 -0.2482,-11.413 -0.2231,-3.914 0.4537,-7.479 1.676,-11.16"
       id="path516" /><path
       style="fill:none;stroke:#00ffff;stroke-width:1"
       d="m 3474.4004,22427.808 c 7.0482,8.265 10.7172,12.652 20.5774,22.658 3.6557,3.092 7.9034,6.446 11.3595,9.955 8.4261,8.555 18.6202,18.198 28.5539,24.761 4.0506,2.676 9.0451,3.961 13.501,5.749 6.501,2.607 13.1856,6.844 18.622,11.244 3.9337,3.184 6.5807,7.746 9.9008,11.526 3.2303,3.677 6.5701,7.355 9.8697,10.964 2.8728,3.142 6.5021,5.475 9.8386,8.076 4.2811,3.337 8.3863,6.987 12.5079,10.516 5.932,5.079 11.5346,10.553 17.5358,15.563 1.4911,1.245 3.232,2.144 4.7796,3.309 1.4184,1.068 2.4515,2.557 3.8796,3.59 1.4167,1.024 -0.4623,-3.039 -0.931,-4.599 -0.4567,-1.521 -2.9898,-10.031 -3.4452,-12.816 -0.2097,-1.282 -1.1979,-3.748 0.093,-3.897 3.4575,-0.399 8.3917,7.911 9.342,10.543 2.668,7.39 -9.4327,8.736 -14.37,11.077 -1.8289,0.867 -3.6053,1.841 -5.4004,2.776 -1.0397,0.542 -2.0797,1.084 -3.1037,1.655 -0.3011,0.168 -1.2053,0.636 -0.869,0.561 0.9847,-0.223 1.9036,-0.673 2.8554,-1.01"
       id="path518" /><path
       style="fill:none;stroke:#00ffff;stroke-width:1"
       d="m 3396.1566,22434.594 c 3.2059,3.998 6.4488,8.041 10.118,11.638 4.3666,4.28 9.5188,7.65 13.8735,11.945 3.0777,3.036 5.6292,6.52 8.473,9.759 2.7768,3.163 5.7266,6.176 8.5041,9.338 4.813,5.479 9.1994,11.416 14.4632,16.489 6.8544,6.606 16.0345,9.974 23.0603,16.208 5.2326,4.643 9.7472,10.074 14.5563,15.143 9.6418,10.163 19.1863,20.424 28.9263,30.481 8.879,9.169 16.3581,19.583 25.4191,28.603 3.9064,3.889 5.2236,6.229 3.383,-0.308 -1.612,-5.726 -4.0618,-11.156 -5.9901,-16.769 -0.2013,-0.587 0.9551,0.797 1.3656,1.262 3.1966,3.615 8.7423,8.114 10.1491,12.759 0.6736,2.223 -4.1874,2.217 -6.4867,2.551 -3.3962,0.495 -6.8283,0.805 -10.1801,1.543 -6.5507,1.443 -5.1147,2.197 -11.0801,4.262 -0.8863,0.307 0.3612,-0.63 1.8001,-1.795"
       id="path520" /><path
       style="fill:none;stroke:#00ffff;stroke-width:1"
       d="m 3554.165,22601.276 c 0.6977,1.633 0.5253,19.448 2.9175,18.367"
       id="path522" /><path
       style="fill:none;stroke:#00ffff;stroke-width:1"
       d="m 3561.0552,22610.782 c -9.6331,5.996 1.1305,4.779 6.4246,8.805 0.6362,0.484 3.1081,2.607 1.2415,3.169"
       id="path524" /><path
       style="fill:none;stroke:#00ffff;stroke-width:1"
       d="m 3544.1401,22603.014 c 1.6228,-0.395 8.2377,-12.832 8.4731,-12.927 0.6838,-0.275 0.95,1.13 1.3656,1.739 2.7201,3.983 6.2596,7.581 8.5972,11.805"
       id="path526" /><path
       style="fill:none;stroke:#00ffff;stroke-width:1"
       d="m 3583.1534,22597.126 c -0.8898,2.084 -2.1336,4.051 -2.6692,6.253 -3.0607,12.585 4.8636,25.668 10.2111,36.398"
       id="path528" /><path
       style="fill:none;stroke:#00ffff;stroke-width:1"
       d="m 3593.0541,22621.634 c 2.0554,-4.944 3.0526,-10.262 4.3142,-15.451 0.2176,-0.895 0.2147,-2.294 0.5897,-3.141 0.2589,-0.585 0.1101,1.277 0.2172,1.907 0.2264,1.334 0.4372,2.673 0.7759,3.982 1.7134,6.623 1.9105,7.393 3.8486,12.283 0.3466,0.874 2.5263,5.771 1.5208,3.954"
       id="path530" /><path
       style="fill:none;stroke:#00ffff;stroke-width:1"
       d="m 3594.606,22617.652 c 3.0125,-1.228 6.6006,-2.275 9.7455,-1.43"
       id="path532" /><path
       style="fill:none;stroke:#00ffff;stroke-width:1"
       d="m 3613.228,22622.98 c -0.9642,0.744 -3.2235,14.687 -4.2209,10.067"
       id="path534" /><path
       style="fill:none;stroke:#00ffff;stroke-width:1"
       d="m 3606.8965,22622.448 c 5.1667,2.604 7.1553,12.503 10.6146,16.18"
       id="path536" /><path
       style="fill:none;stroke:#00ffff;stroke-width:1"
       d="m 3620.9562,22601.164 c 2.9168,27.319 -0.4695,-5.628 1.3036,14.75 0.083,0.958 0.5083,3.75 0.6828,2.804"
       id="path538" /><path
       style="fill:none;stroke:#00ffff;stroke-width:1"
       d="m 3621.4528,22604.557 c -3.1556,-3.047 2.1485,-7.879 5.2763,-6.001 3.537,2.123 3.7642,6.069 2.607,9.59 -1.0476,3.188 -2.5206,4.098 -2.3898,3.421 1.1179,-5.784 7.5025,-2.647 6.8592,2.468 -0.428,3.403 -6.5751,10.788 -8.1317,4.459"
       id="path540" /><path
       style="fill:none;stroke:#00ffff;stroke-width:1"
       d="m 3646.5616,22612.465 c 1.4357,5.546 -0.9545,10.67 -1.8622,16.096 -0.1363,0.814 0.033,2.325 -0.9932,2.383"
       id="path542" /><path
       style="fill:none;stroke:#00ffff;stroke-width:1"
       d="m 3636.9091,22619.195 c 3.025,-0.754 5.6577,1.002 7.9765,2.748"
       id="path544" /><path
       style="fill:none;stroke:#00ffff;stroke-width:1"
       d="m 3642.2164,22582.432 c 2.668,4.684 5.5686,9.312 7.8834,14.189 4.9912,10.515 8.4501,21.806 6.4556,33.566 -0.5154,3.039 -2.1447,8.587 -3.6002,11.666 -0.7526,1.591 -0.8023,1.064 -1.2415,0.336"
       id="path546" /><path
       style="fill:none;stroke:#00ffff;stroke-width:1"
       d="m 3677.621,22605.902 c -1.1152,6.776 1.9484,13.329 2.2967,19.938"
       id="path548" /><path
       style="fill:none;stroke:#00ffff;stroke-width:1"
       d="m 3673.7413,22618.689 c 3.7778,-2.466 9.6917,-2.697 13.9355,-1.233"
       id="path550" /><path
       style="fill:none;stroke:#00ffff;stroke-width:1"
       d="m 3696.7086,22603.379 c 0.4138,0.869 0.9689,1.684 1.2415,2.607 1.2004,4.068 0.6693,9.086 0.4655,13.236 -0.059,1.196 -0.3072,4.607 -0.7759,3.506"
       id="path552" /><path
       style="fill:none;stroke:#00ffff;stroke-width:1"
       d="m 3688.7631,22600.266 c 2.3728,-5.689 2.3469,-4.09 2.7002,-8.357 0.059,-0.708 -0.409,-1.599 0.062,-2.131 0.4656,-0.526 1.09,0.904 1.5208,1.458 0.8849,1.14 1.7096,2.324 2.5761,3.478 2.6698,3.553 5.4349,7.025 8.0385,10.627"
       id="path554" /><path
       style="fill:none;stroke:#00ffff;stroke-width:1"
       d="m 3727.7491,22588.874 c -1.2622,2.197 -2.9595,4.195 -3.7865,6.59 -3.8476,11.142 -5.3248,40.563 9.6214,45.4"
       id="path556" /><path
       style="fill:none;stroke:#00ffff;stroke-width:1"
       d="m 3732.6839,22633.601 c 2.4065,-6.97 4.5579,-14.069 5.5246,-21.396 0.1945,-1.474 0.382,-2.95 0.5276,-4.43 0.068,-0.692 0.039,-2.754 0.1862,-2.076 0.7968,3.68 1.3546,7.136 2.6072,10.741 1.0826,3.115 3.5195,6.793 3.9106,10.151"
       id="path558" /><path
       style="fill:none;stroke:#00ffff;stroke-width:1"
       d="m 3735.3842,22624.488 c 2.309,-3.391 5.2962,-3.538 9.0317,-3.506"
       id="path560" /><path
       style="fill:none;stroke:#00ffff;stroke-width:1"
       d="m 3752.5475,22619.468 c 0.7098,6.406 1.7001,14.574 -1.9553,20.331"
       id="path562" /><path
       style="fill:none;stroke:#00ffff;stroke-width:1"
       d="m 3745.0366,22626.114 c 3.2339,-0.461 5.9615,0.49 8.0696,2.888"
       id="path564" /><path
       style="fill:none;stroke:#00ffff;stroke-width:1"
       d="m 3761.1411,22605.272 c -0.2379,1.767 -0.6567,3.518 -0.7138,5.3 0,0.02 0.6066,8.823 0.6828,9.534 0.1782,1.666 0.2204,6.342 1.0863,4.908"
       id="path566" /><path
       style="fill:none;stroke:#00ffff;stroke-width:1"
       d="m 3760.2721,22609.815 c -2.9647,-7.3 5.783,-11.962 8.7214,-3.309 0.84,2.474 -0.8721,13.345 -2.483,11.89 -1.244,-1.124 2.3504,-3.957 3.321,-3.786 4.8497,0.856 7.9212,8.769 6.1763,12.984 -1.7673,4.268 -7.3416,12.626 -9.7456,7.683 -0.7185,-1.477 -0.5793,-3.234 -0.869,-4.851"
       id="path568" /><path
       style="fill:none;stroke:#00ffff;stroke-width:1"
       d="m 3780.9426,22627.79 c 0.8794,-0.486 1.675,-1.172 2.6382,-1.458 1.6888,-0.502 3.736,0.785 3.4761,2.664 -0.6834,4.939 -7.3981,9.849 -7.9144,13.488 -0.1086,0.765 1.4662,0.698 2.2347,0.617 1.844,-0.195 8.1288,-2.088 9.6524,-1.262 0.2806,0.152 -0.6207,0.15 -0.9311,0.224"
       id="path570" /><path
       style="fill:none;stroke:#00ffff;stroke-width:1"
       d="m 3778.6769,22635.866 c 2.5017,-0.718 11.4305,1.15 12.663,-2.748"
       id="path572" /><path
       style="fill:none;stroke:#00ffff;stroke-width:1"
       d="m 3778.9252,22585.503 c 0.9415,-0.169 1.9125,-0.793 2.8244,-0.505 6.4658,2.045 9.9725,14.868 11.4836,19.798 3.5383,11.542 5.1417,23.325 2.514,35.248 -0.403,1.829 -2.9592,9.83 -5.1211,12.171 -0.2465,0.266 -0.6621,-0.3 -0.9932,-0.449"
       id="path574" /><path
       style="fill:none;stroke:#00ffff;stroke-width:1"
       d="m 3809.4861,22609.62 c 0.073,7.348 -0.3779,14.721 0.4965,22.041 0.1304,1.091 1.0004,4.276 0.6828,3.224"
       id="path576" /><path
       style="fill:none;stroke:#00ffff;stroke-width:1"
       d="m 3803.8374,22621.734 c 5.3752,-2.674 12.0495,-1.658 17.753,-0.337"
       id="path578" /><path
       style="fill:none;stroke:#00ffff;stroke-width:1"
       d="m 3827.5184,22613.181 c 1.3967,1.496 3.0562,2.783 4.19,4.487 3.0787,4.625 1.8541,11.089 -2.4829,14.385 -1.2128,0.922 -3.8516,2.346 -4.4693,0.954 -0.8375,-1.888 -0.9518,-4.02 -1.4277,-6.029"
       id="path580" /><path
       style="fill:none;stroke:#00ffff;stroke-width:1"
       d="m 3818.673,22611.442 c 2.9826,-3.045 4.774,-6.653 5.8969,-10.712 0.1703,-0.615 0.1419,-2.474 0.3725,-1.878 2.7034,6.978 3.5452,9.151 9.5593,13.936"
       id="path582" /><path
       style="fill:none;stroke:#00ffff;stroke-width:1"
       d="m 3842.9748,22590.13 c -4.6666,13.746 -5.742,28.857 -1.4588,42.905 2.055,6.739 6.1147,12.584 10.2732,18.143"
       id="path584" /><path
       style="fill:none;stroke:#00ffff;stroke-width:1"
       d="m 3848.1123,22627.174 c 1.3009,-4.134 2.3553,-8.343 3.4451,-12.535 0.4785,-1.841 0.9899,-3.674 1.4277,-5.525 0.4004,-1.692 0.8038,-3.387 1.0863,-5.103 0.3296,-2.003 -0.017,-5.047 0.2793,-3.477 0.9239,4.889 2.2965,9.409 4.0348,14.077 0.4131,1.109 4.0541,8.489 3.1347,10.151"
       id="path586" /><path
       style="fill:none;stroke:#00ffff;stroke-width:1"
       d="m 3851.9299,22619.266 c 2.8144,-0.935 5.7445,-1.3 8.6592,-1.739"
       id="path588" /><path
       style="fill:none;stroke:#00ffff;stroke-width:1"
       d="m 3869.2484,22619.069 c 1.4102,1.552 3.5776,-1.103 4.8727,0.337 2.1623,2.404 -7.7357,13.686 -7.8833,16.152 -0.028,0.461 2.7974,-0.158 5.7108,-0.393 0.3861,-0.03 3.464,-0.188 4.2831,-0.08 2.1856,0.279 -0.4008,1.046 -0.9932,1.122"
       id="path590" /><path
       style="fill:none;stroke:#00ffff;stroke-width:1"
       d="m 3867.6034,22630.398 c 3.426,-1.929 5.4864,-2.589 9.0938,-1.822"
       id="path592" /><path
       style="fill:none;stroke:#00ffff;stroke-width:1"
       d="m 3880.6699,22624.397 c -0.2412,-6.645 -0.4589,-13.376 -1.9243,-19.881 -4.7374,-1.337 2.708,-5.997 3.8176,-4.403 2.1735,3.123 0.7924,5.572 -0.3104,8.917 -0.2814,0.854 -0.7554,1.632 -1.1483,2.44 -0.093,0.192 -0.4755,0.696 -0.3104,0.561 0.903,-0.742 0.4584,-1.294 1.7691,-1.823 4.4076,-1.778 6.8365,4.616 6.735,8.02 -0.047,1.583 -0.2603,3.196 -0.807,4.683 -0.1224,0.333 -4.7602,8.947 -7.0764,5.637 -0.8058,-1.152 -0.4966,-2.767 -0.7449,-4.151 z"
       id="path594" /><path
       style="fill:none;stroke:#00ffff;stroke-width:1"
       d="m 3897.9264,22626.557 c -1.8931,3.814 -3.6287,7.697 -5.4935,11.525 -0.4046,0.83 -0.842,3.173 -1.3656,2.411 -0.2962,-0.43 -0.1863,-1.028 -0.2794,-1.542"
       id="path596" /><path
       style="fill:none;stroke:#00ffff;stroke-width:1"
       d="m 3889.5154,22626.388 c 4.3603,4.155 9.8089,7.989 12.1354,13.769"
       id="path598" /><path
       style="fill:none;stroke:#00ffff;stroke-width:1"
       d="m 3899.1684,22591.378 c 1.7691,3.693 3.9015,7.232 5.3073,11.077 6.15,16.821 10.9103,47.915 -2.2346,62.477"
       id="path600" /><path
       style="fill:none;stroke:#00ffff;stroke-width:1"
       d="m 3514.8237,22453.956 c -3.925,8.16 -7.5771,16.656 -12.5389,24.285 -1.5915,2.447 -3.5191,4.647 -5.1831,7.038 -1.3375,1.922 -2.1044,4.101 -3.4451,6.029 -2.0489,2.946 -4.6782,5.531 -6.9212,8.329 -6.5973,8.228 -12.0714,17.164 -18.529,25.518 -3.6324,4.699 -7.5833,9.086 -11.0801,13.825 -0.2743,0.371 -0.9227,0.489 -1.1173,0.841 -0.4912,0.887 -0.838,2.179 -0.838,3.141 0,0.198 -0.62,0.631 -0.7449,0.953 -0.3205,0.827 -0.462,1.711 -0.838,2.524 -1.2867,2.782 -3.0387,5.256 -4.5934,7.88 -1.174,1.981 -2.013,4.133 -3.1968,6.113 -5.0378,8.425 -11.7438,15.507 -17.4427,23.443 -6.5871,9.173 -12.4349,18.75 -19.4601,27.593 -1.7073,2.149 -2.8435,4.486 -4.4382,6.73 -0.028,0.04 -1.946,2.683 -2.0175,2.496 -1.7437,-4.569 -0.5042,-13.164 0.031,-17.19 0.5689,-4.277 1.7833,-14.695 4.0969,-19.825 0.1633,-0.363 -0.1136,0.787 -0.1863,1.177 -0.9235,4.969 -0.092,-0.135 -1.3035,6.758 -0.5661,3.222 -1.2014,7.765 -1.6139,10.769 -0.4594,3.345 -3.5686,12.016 1.8311,14.077 5.2093,1.987 21.7054,-7.353 24.0846,-1.262"
       id="path602" /><path
       style="fill:none;stroke:#00ffff;stroke-width:1"
       d="m 3552.7538,22436.75 c -6.7705,8.915 -11.9632,18.929 -18.6221,27.93 -2.8895,3.906 -6.3903,7.367 -9.0627,11.441 -3.194,4.87 -6.3551,9.954 -9.1558,15.059 -1.7522,3.194 -3.1823,6.658 -5.2453,9.674 -3.0708,4.49 -6.3757,8.902 -9.5593,13.32 -4.6353,6.433 -9.9034,12.336 -14.8046,18.564 -4.5424,5.772 -8.2541,12.261 -12.0733,18.508 -5.6926,9.311 -10.8816,18.88 -16.2943,28.35 -0.7089,1.241 -4.2075,9.611 -5.6177,10.46 -0.1668,0.1 -0.4658,-1.677 -0.6207,-3.645 -0.4574,-5.812 -0.3302,-7.713 -0.2793,-15.059 0.011,-1.624 0.1517,-2.218 0.2483,-3.702 0.01,-0.149 0.1448,-0.486 0,-0.448 -0.1774,0.05 -0.1744,0.326 -0.2173,0.504 -0.2371,0.985 -0.4305,1.979 -0.6207,2.973 -1.1725,6.129 -4.3544,18.546 -1.1174,24.284 4.5022,7.982 16.6927,0.226 21.6948,-1.878 0.8881,-0.374 4.7696,-2.514 5.928,-1.234"
       id="path604" /><path
       style="fill:none;stroke:#00ffff;stroke-width:1"
       d="m 3485.7143,22446.733 c -3.8506,5.264 -6.8628,11.056 -10.6766,16.349 -5.4152,7.515 -11.1508,14.892 -17.0392,22.041 -3.9658,4.815 -8.2452,9.382 -11.9802,14.385 -3.3857,4.536 -6.3134,9.41 -9.6835,13.965 -5.4744,7.4 -10.9562,14.986 -16.822,22.069 -5.1267,5.754 -3.9642,4.299 -7.9454,9.198 -7.248,8.92 -14.5064,17.725 -22.2534,26.219 -4.3261,4.744 -8.8195,9.354 -13.532,13.713 -2.8516,2.637 -5.4247,5.122 -7.7282,8.272 -2.0893,2.858 -3.9974,5.857 -6.0832,8.721 -1.8917,2.598 -0.7956,0.873 -2.8864,4.179 -2.4183,3.823 0.3684,-0.413 -1.4277,2.271 -0.1004,0.15 -0.3004,0.596 -0.3414,0.421 -0.5358,-2.3 1.1205,-7.657 1.4277,-9.338 1.1374,-6.225 2.6627,-12.479 3.2589,-18.788 0.1417,-1.501 0.5779,-4.925 -0.4035,-5.16 -2.6262,-0.63 -6.7161,15.039 -7.0143,17.61 -1.3133,11.323 10.5544,8.258 17.8151,10.824 2.9951,1.059 4.8465,4.878 6.2073,7.46"
       id="path606" /><path
       style="fill:none;stroke:#00ffff;stroke-width:1"
       d="m 3274.3856,22647.376 c 0.1033,-6.878 2.4662,-13.416 4.3141,-19.965 0.2658,-0.943 0.5412,-1.882 0.7759,-2.833 0.045,-0.182 0.083,-0.747 0.062,-0.561 -0.768,6.937 1.9406,13.271 5.1521,19.209 2.2398,4.142 1.7237,2.316 2.2346,4.347"
       id="path608" /><path
       style="fill:none;stroke:#00ffff;stroke-width:1"
       d="m 3275.627,22644.544 c 4.1681,-3.144 6.5551,-2.754 11.0181,-1.458"
       id="path610" /><path
       style="fill:none;stroke:#00ffff;stroke-width:1"
       d="m 3295.9251,22638.291 c -0.3736,5.735 -3.0653,10.894 -4.5003,16.404"
       id="path612" /><path
       style="fill:none;stroke:#00ffff;stroke-width:1"
       d="m 3289.3143,22645.077 c 4.7985,3.579 8.9145,7.869 12.0422,12.955"
       id="path614" /><path
       style="fill:none;stroke:#00ffff;stroke-width:1"
       d="m 3307.0673,22625.812 c 2.7717,6.239 1.0219,13.55 3.2899,19.826"
       id="path616" /><path
       style="fill:none;stroke:#00ffff;stroke-width:1"
       d="m 3308.4329,22630.804 c -1.4189,-3.448 -2.1177,-6.55 1.1484,-9.226 0.5658,-0.464 1.355,-0.802 2.0795,-0.701 4.3507,0.605 5.6818,6.067 5.7728,9.59 0.068,2.64 -0.7871,5.038 -2.0174,7.319 -0.2042,0.379 -0.4699,0.938 -0.9,0.925 -0.3184,0 -0.1738,-0.655 -0.062,-0.953 3.4433,-9.198 11.0924,-4.745 9.1558,3.758 -0.6341,2.784 -8.9489,16.272 -11.2042,9.842 -1.0215,-2.911 -0.7273,-3.149 -0.2173,-5.524"
       id="path618" /><path
       style="fill:none;stroke:#00ffff;stroke-width:1"
       d="m 3328.4206,22647.993 c 2.4313,-0.617 4.8479,-1.294 7.2937,-1.85 10.8488,-2.467 -4.7462,14.701 -3.9106,17.61 0.9532,3.318 9.7139,2.486 12.5388,3.337"
       id="path620" /><path
       style="fill:none;stroke:#00ffff;stroke-width:1"
       d="m 3327.7689,22653.546 c 6.6128,1.451 13.2229,0.06 19.8325,0.645"
       id="path622" /><path
       style="fill:none;stroke:#00ffff;stroke-width:1"
       d="m 3251.1001,22634.486 c 4.4162,1.589 3.414,0.209 4.5935,5.44 1.0243,4.544 1.5571,9.256 -1.1484,13.377 -3.5248,5.367 -7.6723,0.32 -8.6282,-3.674"
       id="path624" /><path
       style="fill:none;stroke:#00ffff;stroke-width:1"
       d="m 3246.9412,22631.486 c 2.7233,-3.56 8.0186,-11.515 6.6419,-16.265 -0.1906,-0.657 -0.3347,1.387 -0.1552,2.048 0.8309,3.057 2.2376,5.959 4.0037,8.58 2.1572,3.202 4.7309,6.103 7.0764,9.17"
       id="path626" /><path
       style="fill:none;stroke:#00ffff;stroke-width:1"
       d="m 3354.5458,22635.524 c 1.194,6.792 1.7866,13.671 2.7312,20.499"
       id="path628" /><path
       style="fill:none;stroke:#00ffff;stroke-width:1"
       d="m 3349.0833,22645.563 c 4.8085,-0.52 9.5107,-1.435 14.3701,-1.262 0.063,0 3.0714,-0.06 3.1967,1.094 0.077,0.709 -0.3517,1.383 -0.5276,2.075"
       id="path630" /><path
       style="fill:none;stroke:#00ffff;stroke-width:1"
       d="m 3391.3554,22628.99 c 1.2299,6.598 1.6508,13.311 2.4519,19.966 0.1228,1.019 0.5888,3.649 1.2105,2.832"
       id="path632" /><path
       style="fill:none;stroke:#00ffff;stroke-width:1"
       d="m 3399.1767,22639.338 c -0.9932,0.411 -2.1259,0.58 -2.9795,1.233 -6.9628,5.33 4.7606,7.056 7.8212,7.964 0.4307,0.128 3.4763,0.715 3.0727,1.991"
       id="path634" /><path
       style="fill:none;stroke:#00ffff;stroke-width:1"
       d="m 3379.7166,22631.57 c 2.8577,-1.144 5.7688,-15.827 6.1763,-16.04 1.5342,-0.803 2.7656,2.099 4.0038,3.309 3.9809,3.891 8.5714,8.921 11.5457,13.656"
       id="path636" /><path
       style="fill:none;stroke:#00ffff;stroke-width:1"
       d="m 3421.9887,22655.378 c 1.0611,-4.794 0.7196,-2.951 1.7071,-9.591 0.9463,-6.363 1.7489,-12.756 2.1415,-19.18 0.067,-1.093 0.093,-2.187 0.093,-3.281 0,-0.73 -0.041,-1.46 -0.093,-2.188 -0.01,-0.134 -0.074,-0.525 -0.093,-0.392 -1.3579,9.57 5.2344,21.145 8.7213,29.808"
       id="path638" /><path
       style="fill:none;stroke:#00ffff;stroke-width:1"
       d="m 3423.3544,22643.796 c 3.3787,-1.744 7.2348,-1.578 10.9249,-1.542"
       id="path640" /><path
       style="fill:none;stroke:#00ffff;stroke-width:1"
       d="m 3450.6357,22643.151 c -0.7004,1.522 -3.7276,17.981 -5.4935,18.424"
       id="path642" /><path
       style="fill:none;stroke:#00ffff;stroke-width:1"
       d="m 3439.6797,22648.591 c 6.2043,2.895 3.4887,1.006 8.2248,5.553"
       id="path644" /><path
       style="fill:none;stroke:#00ffff;stroke-width:1"
       d="m 3453.9256,22623.101 c 1.0261,8.369 2.6378,18.561 3.4761,25.967"
       id="path646" /><path
       style="fill:none;stroke:#00ffff;stroke-width:1"
       d="m 3452.1876,22627.84 c -4.0921,-6.126 4.2149,-14.914 9.6524,-8.188 4.0794,5.046 0.3411,11.579 -1.9553,16.152 -0.1774,0.354 -0.9674,1.244 -0.7759,0.898 3.4892,-6.305 10.3862,-3.033 12.0422,2.692 0.832,2.876 0.068,6.164 -1.0242,8.805 -3.3655,8.142 -12.5388,13.115 -12.5388,0.196"
       id="path648" /><path
       style="fill:none;stroke:#00ffff;stroke-width:1"
       d="m 3482.076,22642.59 c -0.7608,5.824 -1.4059,11.881 -3.9727,17.246 -0.6733,1.408 -2.4633,4.382 -3.4451,3.169 -0.9439,-1.166 -1.3242,-2.692 -1.9863,-4.038"
       id="path650" /><path
       style="fill:none;stroke:#00ffff;stroke-width:1"
       d="m 3470.0647,22645.563 c 0.083,-0.897 1.1457,-2.609 0.2483,-2.692 -0.8973,-0.08 -0.8489,2.02 -0.2483,2.692 1.9886,2.224 5.2275,3.035 7.2937,5.188 2.5109,2.615 9.0185,13.784 10.8629,17.722"
       id="path652" /><path
       style="fill:none;stroke:#00ffff;stroke-width:1"
       d="m 3215.6031,22635.014 c 1.3123,5.96 3.31,11.71 4.9348,17.582"
       id="path654" /><path
       style="fill:none;stroke:#00ffff;stroke-width:1"
       d="m 3212.0959,22643.258 c 5.5852,-1.075 13.6034,-3.765 19.0876,-0.589"
       id="path656" /><path
       style="fill:none;stroke:#00ffff;stroke-width:1"
       d="m 3116.0019,22638.437 c 0.7152,8.621 3.193,17.47 2.1725,26.163"
       id="path658" /><path
       style="fill:none;stroke:#00ffff;stroke-width:1"
       d="m 3110.3532,22637.456 c 2.7554,-2.018 4.0571,-13.641 5.2762,-15.087 0.5712,-0.677 0.7322,1.615 1.0553,2.44 0.4909,1.254 0.9661,2.517 1.5518,3.729 1.3678,2.832 3.7239,4.963 5.09,7.74"
       id="path660" /><path
       style="fill:none;stroke:#00ffff;stroke-width:1"
       d="m 3129.7201,22659.609 c 3.4892,-7.288 3.4751,-15.927 4.0348,-23.892 0.141,-2.006 -0.2424,-7.98 0.2483,-6.029 1.2186,4.844 1.8928,9.687 3.4451,14.47 0.5776,1.779 4.264,9.316 3.7865,11.581"
       id="path662" /><path
       style="fill:none;stroke:#00ffff;stroke-width:1"
       d="m 3133.9722,22648.448 c 4.9747,-1.175 2.658,-0.833 6.9212,-1.206"
       id="path664" /><path
       style="fill:none;stroke:#00ffff;stroke-width:1"
       d="m 3148.3112,22648.28 c 3.14,-2.048 7.4604,-2.815 6.735,2.384 -0.6172,4.422 -2.8316,8.013 -5.028,11.777 -0.4138,0.709 -1.6277,2.302 -0.807,2.328 2.8373,0.09 15.5216,-4.461 10.3353,0.336"
       id="path666" /><path
       style="fill:none;stroke:#00ffff;stroke-width:1"
       d="m 3147.7525,22654.814 c 3.5746,-0.475 8.9015,-2.292 12.1044,0.28"
       id="path668" /><path
       style="fill:none;stroke:#00ffff;stroke-width:1"
       d="m 3169.4162,22658.515 c 1.4743,-4.884 -3.0454,-15.245 -4.9659,-19.825 -3.9021,-4.47 -4.0506,-8.678 1.5829,-11.498 0.8455,-0.423 1.821,-0.734 2.7623,-0.645 4.952,0.471 3.4853,6.837 2.6071,9.815 -0.5755,1.952 -1.4974,3.582 -2.3899,5.356 -0.065,0.129 -0.3024,0.479 -0.1862,0.393 1.3607,-1.013 0.9899,-2.853 3.6623,-2.889 4.7011,-0.06 7.5095,3.135 7.9765,7.6 0.4958,4.739 -10.2054,12.446 -12.4768,5.776"
       id="path670" /><path
       style="fill:none;stroke:#00ffff;stroke-width:1"
       d="m 3193.7801,22641.886 c -2.4922,5.694 -0.6502,14.018 -3.4761,19.49 -0.2164,0.418 -0.8484,0.411 -1.2725,0.616"
       id="path672" /><path
       style="fill:none;stroke:#00ffff;stroke-width:1"
       d="m 3182.1723,22645.756 c 2.6177,3.585 7.7639,5.675 9.4663,9.927"
       id="path674" /><path
       style="fill:none;stroke:#00ffff;stroke-width:1"
       d="m 3561.0083,22645.4 c 1.4763,34.764 36.6904,44.286 65.5757,39.975 14.7052,-2.194 35.8186,-10.474 50.5644,-7.455 18.9638,3.881 10.7602,24.009 16.328,27.363 1.3327,0.803 6.2411,-7.515 9.9197,-11.897 11.5945,-13.812 25.405,-27.686 45.1218,-22.288 12.5573,3.438 23.7079,8.92 33.885,16.974 21.6259,17.114 27.7708,41.246 62.8544,38.388 5.734,-0.467 10.0101,-4.004 14.8357,-6.742 16.4231,-9.317 24.2106,-16.965 33.3584,-34.184 0.6734,-1.268 9.6673,-17.87 6.6717,-19.194 -1.1251,-0.498 -2.458,0.105 -3.687,0.158"
       id="path692" /><path
       style="fill:none;stroke:#00ffff;stroke-width:1"
       d="m 3685.3124,22734.947 c 3.1536,8.8 7.2837,30.146 4.1259,39.181 -0.2131,0.61 -1.2875,-0.105 -1.9312,-0.158"
       id="path694" /><path
       style="fill:none;stroke:#00ffff;stroke-width:1"
       d="m 3670.9156,22741.213 c -6.1099,-12.172 34.6044,-8.865 34.8508,-3.966 0.064,1.282 -1.2876,2.221 -1.9313,3.331"
       id="path696" /><path
       style="fill:none;stroke:#00ffff;stroke-width:1"
       d="m 3669.2477,22782.853 c 16.9425,7.914 33.6853,-7.833 50.2131,-2.855"
       id="path698" /><path
       style="fill:none;stroke:#00ffff;stroke-width:1"
       d="m 3131.7381,22683.789 c 5.797,17.209 13.0622,39.092 31.6027,46.637 19.9104,8.102 45.1121,0.677 64.0833,-6.345 15.8946,-5.884 28.7504,-16.431 43.7171,-23.874 12.8426,-6.386 13.3459,4.997 17.6448,14.753 1.2823,2.909 2.685,9.982 5.1794,8.01 8.9324,-7.061 14.3886,-16.962 23.8776,-23.635 15.8413,-11.141 37.9486,-14.439 56.7971,-12.136 17.8855,2.186 33.031,10.359 46.9652,21.653 12.466,10.105 19.6831,23.769 37.5721,16.26 13.2942,-5.581 46.2628,-32.249 46.2628,-46.241"
       id="path700" /><path
       style="fill:none;stroke:#00ffff;stroke-width:1"
       d="m 3313.717,22748.668 c -5.5848,13.817 -13.06,26.735 -19.8394,39.975 -1.6597,3.241 -3.2608,6.512 -4.916,9.756 -0.598,1.172 -0.7642,2.737 -1.8435,3.49 -1.2569,0.876 -1.4413,-2.768 -1.6679,-4.284"
       id="path702" /><path
       style="fill:none;stroke:#00ffff;stroke-width:1"
       d="m 3287.3815,22756.758 c 0.1463,-3.093 -0.7642,-6.426 0.4389,-9.279 0.4165,-0.988 2.2741,0.236 3.0724,0.951 6.5804,5.899 10.7784,12.85 15.7137,20.067 11.9982,17.546 23.8654,34.691 34.2362,53.22"
       id="path704" /><path
       style="fill:none;stroke:#00ffff;stroke-width:1"
       d="m 3438.0211,22847.653 c 1.9123,13.954 -7.474,28.919 -5.0916,42.909"
       id="path706" /><path
       style="fill:none;stroke:#00ffff;stroke-width:1"
       d="m 3421.2541,22846.543 c 4.7981,-1.687 51.3379,-14.813 39.4156,0.476"
       id="path708" /><path
       style="fill:none;stroke:#00ffff;stroke-width:1"
       d="m 3421.1663,22900.318 c 14.4406,-3.924 29.2085,-5.595 44.0682,-3.886"
       id="path710" /><path
       style="fill:none;stroke:#00ffff;stroke-width:1"
       d="m 3477.0855,22870.654 c 15.1278,-0.911 14.0294,-0.317 25.8968,-2.379 2.2241,-0.386 8.6409,-0.657 6.5838,-1.586 -5.3069,-2.399 -16.7044,6.325 -22.5608,6.424 -3.4061,0.06 -11.2541,0.676 -9.9198,-2.459 1.4694,-3.451 7.5573,0.1 11.2366,-0.634 9.5636,-1.905 15.4839,-5.465 25.4577,-4.997"
       id="path712" /><path
       style="fill:none;stroke:#00ffff;stroke-width:1"
       d="m 3554.6878,22848.288 c -10.0038,9.589 -9.8881,25.405 -15.8891,36.484 -0.378,0.698 -1.4278,-0.83 -1.8435,-1.507"
       id="path714" /><path
       style="fill:none;stroke:#00ffff;stroke-width:1"
       d="m 3527.0354,22851.222 c 4.4049,10.377 -5.9741,-13.187 -2.6336,-11.262 17.8652,10.294 38.0539,44.733 46.4386,63.293"
       id="path716" /><path
       style="fill:none;stroke:#00ffff;stroke-width:1"
       d="m 3411.5099,22822.51 c 11.9027,1.82 27.082,4.708 38.8889,0.397 2.1047,-0.769 8.3059,-2.766 6.6717,-6.9 -4.3182,-10.925 -26.8947,1.916 -14.3968,-11.739"
       id="path718" /><path
       style="fill:none;stroke:#00ffff;stroke-width:1"
       d="m 3513.6921,22824.89 c 6.935,0.37 13.8702,1.484 20.8051,1.11 6.4035,-0.345 12.7508,-1.655 18.9616,-3.252 14.9274,-3.838 -11.4227,-18.824 -18.6105,-11.897"
       id="path720" /><path
       style="fill:none;stroke:#00ffff;stroke-width:1"
       d="m 3353.5716,22856.14 c -3.9165,0.261 38.8323,-8.742 31.1638,-2.221"
       id="path722" /><path
       style="fill:none;stroke:#00ffff;stroke-width:1"
       d="m 3348.4801,22876.841 c 11.9583,-4.603 25.3158,-7.531 38.1866,-5.869"
       id="path724" /><path
       style="fill:none;stroke:#00ffff;stroke-width:1"
       d="m 3189.0619,22895.718 c 5.7947,-10.635 7.1879,-11.962 10.7976,-24.588 1.5702,-5.492 2.7817,-11.095 3.687,-16.735 0.5035,-3.137 0.5481,-6.341 0.5267,-9.518 -0.01,-1.412 -0.9223,-5.536 -0.9656,-4.124 -0.3013,9.802 20.1434,51.438 15.8013,55.361"
       id="path726" /><path
       style="fill:none;stroke:#00ffff;stroke-width:1"
       d="m 3195.0313,22878.269 c 7.661,-4.443 15.9289,-6.036 24.7555,-5.552"
       id="path728" /><path
       style="fill:none;stroke:#00ffff;stroke-width:1"
       d="m 3252.4429,22863.833 c -1.6791,6.36 -6.7965,29.094 -10.4464,33.233 -0.5223,0.593 -1.5217,-0.423 -2.2825,-0.634"
       id="path730" /><path
       style="fill:none;stroke:#00ffff;stroke-width:1"
       d="m 3230.4965,22865.975 c 18.1299,1.234 34.229,16.64 39.3279,33.788"
       id="path732" /><path
       style="fill:none;stroke:#00ffff;stroke-width:1"
       d="m 3282.2899,22894.528 c 1.3304,-12.421 -1.1354,-25.356 -6.4961,-36.723 4.4185,-1.454 8.6084,-4.158 13.2556,-4.362 2.8718,-0.126 -0.037,10.812 0.7023,10.946 0.9479,0.171 1.6842,-1.354 2.6335,-1.19 13.5376,2.33 13.1692,29.792 1.6679,32.836 -3.8215,1.012 -7.8421,-1.005 -11.7632,-1.507 z"
       id="path734" /><path
       style="fill:none;stroke:#00ffff;stroke-width:1"
       d="m 3264.2939,22833.297 c 2.8677,0.529 5.7112,1.211 8.603,1.586 3.2317,0.42 6.4952,0.541 9.7441,0.794 17.8016,1.386 -7.8666,-5.597 -10.3586,-13.96"
       id="path736" /><path
       style="fill:none;stroke:#00ffff;stroke-width:1"
       d="m 3170.188,22820.29 c 21.4164,-1.441 12.2431,-0.565 34.4996,-3.173 0.1213,-0.01 11.0824,-1.268 12.6412,-1.745 0.3943,-0.121 1.1247,-0.711 0.79,-0.952 -3.84,-2.763 -8.7224,-3.674 -12.9922,-5.71 -4.3329,-2.067 -9.079,-3.683 -12.6411,-6.901 -0.836,-0.755 2.052,0.954 2.9847,1.586"
       id="path738" /></g></svg>
