<?xml version="1.0" encoding="UTF-8" standalone="no"?>
<!-- Created with Inkscape (http://www.inkscape.org/) -->

<svg
   width="8420.8008mm"
   height="4722.4985mm"
   viewBox="0 0 8420.8006 4722.4986"
   version="1.1"
   id="svg12"
   inkscape:version="1.2.1 (9c6d41e410, 2022-07-14, custom)"
   sodipodi:docname="critical_original.svg"
   xml:space="preserve"
   xmlns:inkscape="http://www.inkscape.org/namespaces/inkscape"
   xmlns:sodipodi="http://sodipodi.sourceforge.net/DTD/sodipodi-0.dtd"
   xmlns="http://www.w3.org/2000/svg"
   xmlns:svg="http://www.w3.org/2000/svg"><sodipodi:namedview
     id="namedview14"
     pagecolor="#505050"
     bordercolor="#eeeeee"
     borderopacity="1"
     inkscape:showpageshadow="0"
     inkscape:pageopacity="0"
     inkscape:pagecheckerboard="0"
     inkscape:deskcolor="#505050"
     inkscape:document-units="mm"
     showgrid="true"
     inkscape:zoom="0.02"
     inkscape:cx="16400"
     inkscape:cy="8900"
     inkscape:window-width="1366"
     inkscape:window-height="746"
     inkscape:window-x="0"
     inkscape:window-y="0"
     inkscape:window-maximized="1"
     inkscape:current-layer="layer1"
     inkscape:lockguides="true"><inkscape:grid
       type="xygrid"
       id="grid344"
       color="#969696"
       opacity="0.39215686"
       empcolor="#000000"
       empopacity="0.17254902"
       dotted="false"
       originx="-9626.5198"
       originy="-45804.153" /></sodipodi:namedview><defs
     id="defs9" /><g
     inkscape:label="Layer 1"
     inkscape:groupmode="layer"
     id="layer1"
     transform="translate(-9731.5199,-45952.65)"><path
       style="fill:none;stroke:#ffffff;stroke-width:10.7"
       d="m 9902.8782,46418.072 c -85.4445,43.92 -60.4105,17.422 -115.2514,126.711 -39.156,78.031 -81.3427,192.254 -19.2088,272.624 60.2306,77.907 258.002,80.695 276.035,-28.8"
       id="path271" /><path
       style="fill:none;stroke:#ffffff;stroke-width:10.7"
       d="m 10017.419,46496.147 c 5.691,-18.772 35.846,-50.625 17.074,-56.316 -18.772,-5.691 -31.964,43.545 -17.074,56.316 160.613,137.758 72.074,-92.014 150.111,94.713 16.211,38.788 44.269,128.043 34.149,175.991 -2.371,11.234 -16.572,30.12 -25.611,23.037 -31.712,-24.845 -50.412,-226.566 19.92,-220.147 8.407,0.768 58.192,23.056 62.605,24.958"
       id="path273" /><path
       style="fill:none;stroke:#ffffff;stroke-width:10.7"
       d="m 10363.174,46645.896 c 9.474,-47.783 24.124,-85.828 0.711,-126.711"
       id="path275" /><path
       style="fill:none;stroke:#ffffff;stroke-width:10.7"
       d="m 10351.791,46395.672 c -11.943,-60.526 -6.17,-81.51 20.631,-128.63"
       id="path277" /><path
       style="fill:none;stroke:#ffffff;stroke-width:10.7"
       d="m 10514.708,46312.479 c 25.651,109.884 67.349,280.088 61.895,392.935"
       id="path279" /><path
       style="fill:none;stroke:#ffffff;stroke-width:10.7"
       d="m 10518.265,46571.662 c 73.517,-43.997 165.292,-82.539 243.31,-26.879"
       id="path281" /><path
       style="fill:none;stroke:#ffffff;stroke-width:10.7"
       d="m 10859.041,46631.178 c 32.621,-73.359 37.635,-43.942 23.477,-86.395"
       id="path283" /><path
       style="fill:none;stroke:#ffffff;stroke-width:10.7"
       d="m 10831.295,46419.992 c -21.556,-52.125 -20.5,-76.79 -5.692,-124.153"
       id="path285" /><path
       style="fill:none;stroke:#ffffff;stroke-width:10.7"
       d="m 11011.287,46363.676 c -3.083,33.702 -3.731,67.72 -9.249,101.113 -14.547,88.032 -72.272,214.566 104.58,126.712"
       id="path287" /><path
       style="fill:none;stroke:#ffffff;stroke-width:10.7"
       d="m 11154.996,46466.707 c 2.762,25.98 -10.718,90.403 39.128,90.877 50.199,0.473 76.041,-87.194 84.661,-108.794 4.764,-11.938 4.096,-48.726 -3.558,-38.399 -19.423,26.209 18.877,197.13 86.083,113.273"
       id="path289" /><path
       style="fill:none;stroke:#ffffff;stroke-width:10.7"
       d="m 11376.25,46293.918 c 67.891,82.082 49.437,202.751 106.715,288.624"
       id="path291" /><path
       style="fill:none;stroke:#ffffff;stroke-width:10.7"
       d="m 12184.435,46585.741 c 3.524,8.376 13.327,32.766 13.518,23.677 2.685,-128.048 -53.25,-253.767 -51.223,-382.055 -84.801,-138.156 90.582,-133.489 102.445,-35.197 5.842,48.403 -7.153,92.354 -29.88,134.392 -7.295,13.495 -34.446,37.399 -39.84,23.038 -4.886,-13.011 0.749,-28.172 -2.846,-41.597 -7.413,-27.69 -19.919,-53.757 -29.879,-80.636"
       id="path293" /><path
       style="fill:none;stroke:#ffffff;stroke-width:10.7"
       d="m 12433.436,46368.796 c -77.063,9.53 -68.463,27.664 -60.472,-78.717 7.166,-95.4 73.506,-88.048 76.835,-8.318 1.231,29.493 -10.909,58.023 -16.363,87.035 z"
       id="path295" /><path
       style="fill:none;stroke:#ffffff;stroke-width:10.7"
       d="m 12550.822,46329.756 c 2.608,-48.424 5.217,-96.845 7.826,-145.269"
       id="path297" /><path
       style="fill:none;stroke:#ffffff;stroke-width:10.7"
       d="m 12535.882,46066.734 c -16.778,-17.238 -1.244,-137.337 46.954,-102.394 64.154,46.511 74.94,190.281 88.929,259.824 4.529,22.516 -3.921,84.299 12.094,67.836 24.602,-25.291 13.402,-69.297 21.343,-103.674 53.346,-230.939 54.362,53.903 136.595,69.755"
       id="path299" /><path
       style="fill:none;stroke:#ffffff;stroke-width:10.7"
       d="m 12874.523,46041.136 c -11.04,28.373 108.472,286.48 56.914,242.543 -26.481,-109.684 -59.401,-111.931 7.826,-186.227 17.751,-19.617 39.835,-34.929 61.183,-50.557 13.135,-9.615 27.902,-16.775 41.974,-24.958 81.199,-47.218 -50.241,55.25 -12.805,91.514 41.248,39.959 124.727,63.671 128.768,131.192 3.089,51.592 -58.756,160.983 -125.923,121.592 -37.513,-22 -67.349,-55.037 -101.023,-82.556"
       id="path301" /><path
       style="fill:none;stroke:#ffffff;stroke-width:10.7"
       d="m 11088.121,48474.903 c 8.3,-38.611 9.621,-79.418 24.9,-115.835 58.964,-140.533 338.946,-377.579 493.021,-391.655 49.561,-4.527 101.011,3.382 147.978,19.839 163.475,57.287 350.912,412.654 408.361,550.365 3.853,9.236 30.611,209.436 66.163,124.153"
       id="path303" /><path
       style="fill:none;stroke:#ffffff;stroke-width:10.7"
       d="m 14145.848,48010.292 c -3.557,43.304 -13.918,86.582 -10.671,129.91 15.362,204.983 260.472,454.742 478.081,411.496 72.176,-14.346 137.05,-56.134 198.489,-96.634 194.325,-128.1 243.672,-495.382 263.94,-705.876 3.379,-35.087 37.958,-219.634 -7.113,-265.584"
       id="path305" /><path
       style="fill:none;stroke:#ffffff;stroke-width:10.7"
       d="m 16618.069,48890.235 c 12.387,-82.063 8.332,-165.412 19.208,-247.663 18.517,-140.034 83.293,-464.013 281.726,-462.053 165.379,1.635 315.398,81.751 458.162,-34.557 215.335,-175.427 322.292,-487.005 425.435,-726.353 50.274,-116.662 147.126,-378.616 191.375,-507.489 33.754,-98.306 211.731,-527.989 133.037,-635.479"
       id="path307" /><path
       style="fill:none;stroke:#ffffff;stroke-width:10.7"
       d="m 11338.545,50502.294 c 14.097,-99.262 49.748,-194.162 81.814,-288.621 16.48,-48.549 32.456,-97.29 50.512,-145.272 18.239,-48.469 38.095,-96.324 58.337,-143.992 25.741,-60.613 44.908,-125.285 81.815,-179.827 13.769,-20.349 20.498,45.083 25.611,69.115 9.939,46.723 17.563,94.001 29.88,140.152 30.444,114.065 159.043,522.087 278.881,567.002"
       id="path309" /><path
       style="fill:none;stroke:#ffffff;stroke-width:10.7"
       d="m 14076.84,49654.987 c 2.608,-20.05 27.878,-57.547 7.825,-60.156 -20.052,-2.609 -12.627,40.513 -7.825,60.156 12.95,52.98 43.167,100.359 59.76,152.31 48.341,151.36 81.681,307.117 124.5,460.131 17.768,63.498 24.389,131.556 54.781,190.069 2.665,5.13 14.215,-0.392 16.362,-5.76 16.923,-42.307 24.553,-87.786 38.417,-131.191 66.749,-208.984 61.345,-189.907 138.73,-376.296 26.367,-63.51 90.351,-178.808 90.351,-256.624"
       id="path311" /><path
       style="fill:none;stroke:#ffffff;stroke-width:10.7"
       d="m 16090.899,50673.802 c 65.73,-252.725 168.954,-505.518 185.683,-768.591 3.291,-51.739 -0.351,-103.725 -2.846,-155.509 -1.768,-36.711 -23.477,-81.621 -9.248,-80.637 87.462,6.054 191.186,-70.321 267.498,-106.873 242.735,-116.263 476.22,-250.343 719.256,-366.056 121.998,-58.084 297.286,-106.704 249,-152.31"
       id="path313" /></g></svg>
