<?xml version="1.0" encoding="UTF-8" standalone="no"?>
<!-- Created with Inkscape (http://www.inkscape.org/) -->

<svg
   width="127.67598mm"
   height="57.167797mm"
   viewBox="0 0 127.67597 57.167798"
   version="1.1"
   id="svg12"
   inkscape:version="1.2.1 (9c6d41e410, 2022-07-14, custom)"
   sodipodi:docname="cross_product_determinent_expanded.svg"
   xml:space="preserve"
   xmlns:inkscape="http://www.inkscape.org/namespaces/inkscape"
   xmlns:sodipodi="http://sodipodi.sourceforge.net/DTD/sodipodi-0.dtd"
   xmlns="http://www.w3.org/2000/svg"
   xmlns:svg="http://www.w3.org/2000/svg"><sodipodi:namedview
     id="namedview14"
     pagecolor="#000000"
     bordercolor="#ffffff"
     borderopacity="1"
     inkscape:showpageshadow="0"
     inkscape:pageopacity="0"
     inkscape:pagecheckerboard="0"
     inkscape:deskcolor="#000000"
     inkscape:document-units="mm"
     showgrid="true"
     inkscape:zoom="1.2909772"
     inkscape:cx="221.15031"
     inkscape:cy="228.89638"
     inkscape:window-width="1311"
     inkscape:window-height="697"
     inkscape:window-x="0"
     inkscape:window-y="0"
     inkscape:window-maximized="1"
     inkscape:current-layer="layer1"
     inkscape:lockguides="true" /><defs
     id="defs9"><rect
       x="587.26367"
       y="362.45731"
       width="66.575974"
       height="20.973427"
       id="rect1884" /></defs><g
     inkscape:label="Layer 1"
     inkscape:groupmode="layer"
     id="layer1"
     transform="translate(-3359.4364,-22273.377)"><path
       style="fill:none;stroke:#00ffff;stroke-width:1"
       d="m 3362.0443,22297.244 c -0.289,0.02 -0.8867,-0.23 -0.8669,0.06 0.02,0.289 0.5825,0 0.8669,-0.06 0.5529,-0.108 1.083,-0.314 1.635,-0.427 1.6114,-0.327 3.2828,-0.02 4.905,0 0.1476,0 1.1971,-0.134 1.2838,0 0.1161,0.18 -0.2684,0.86 -0.2743,0.873 -0.7425,1.612 -1.7287,3.09 -2.458,4.709 -0.1785,0.397 -1.1814,3.518 -1.3277,3.698 -0.2446,0.302 -0.8974,-0.719 -1.5253,-1.586 -1.0325,-1.426 -2.0139,-2.888 -3.0615,-4.303 -0.3896,-0.526 -0.7794,-1.052 -1.1851,-1.566 -0.024,-0.03 -0.1054,-0.1 -0.099,-0.06 0.027,0.153 0.1098,0.291 0.1646,0.436"
       id="path647" /><path
       style="fill:none;stroke:#00ffff;stroke-width:1"
       d="m 3360.3544,22293.298 c 2.2707,-0.524 4.6295,-0.557 6.946,-0.655 0.4938,-0.02 0.9993,0.05 1.4814,-0.06 0.3932,-0.09 -0.5912,-0.34 -2.0191,-1.061 -0.4399,-0.222 -0.8811,-0.446 -1.2948,-0.714 -0.4468,-0.289 -3.0144,-2.306 -1.7777,-1.784"
       id="path649" /><path
       style="fill:none;stroke:#00ffff;stroke-width:1"
       d="m 3376.6386,22297.273 c -0.1573,0.328 -0.3341,0.646 -0.4719,0.982 -0.041,0.101 -1.4016,3.766 -1.4155,3.807 -0.1685,0.497 -0.325,0.998 -0.4499,1.507 -0.033,0.135 -0.071,0.546 -0.022,0.416 0.1826,-0.48 0.1462,-0.979 0.1536,-1.477"
       id="path651" /><path
       style="fill:none;stroke:#00ffff;stroke-width:1"
       d="m 3373.8843,22297.69 c 2.878,1.829 3.8354,5.259 5.8268,7.872"
       id="path653" /><path
       style="fill:none;stroke:#00ffff;stroke-width:1"
       d="m 3384.3196,22304.57 c 0.029,0.106 -0.011,0.268 0.088,0.318 0.028,0.01 0.1295,-0.319 0.1865,-1.23 0.13,-2.085 0.1835,-4.199 -0.1755,-6.266 2,-0.95 2.4327,-1.675 4.3124,-1.407 0.1743,0.02 0.4321,0.08 0.4609,0.257 0.034,0.207 -0.2195,0.357 -0.3292,0.536"
       id="path655" /><path
       style="fill:none;stroke:#00ffff;stroke-width:1"
       d="m 3384.2759,22300.149 c 1.6773,-0.376 3.3756,-0.628 5.0806,-0.833"
       id="path657" /><path
       style="fill:none;stroke:#00ffff;stroke-width:1"
       d="m 3381.0937,22293.08 c 3.4231,-0.09 0.6413,0.03 3.5882,-0.199 1.457,-0.113 2.9122,-0.05 4.3673,-0.138 0.2507,-0.01 0.7761,0.02 0.7352,-0.437 -0.1581,-1.779 -1.9012,-3.673 -3.3687,-4.53 -0.1889,-0.111 -0.4271,-0.291 -0.6255,-0.199 -0.1733,0.08 -0.095,0.37 -0.1426,0.555"
       id="path659" /><path
       style="fill:none;stroke:#00ffff;stroke-width:1"
       d="m 3396.522,22297.918 c 1.6609,-0.235 3.8368,-0.675 5.3,-0.466"
       id="path661" /><path
       style="fill:none;stroke:#00ffff;stroke-width:1"
       d="m 3396.094,22300.456 c 2.0647,0.187 4.9612,-1.16 7.1545,-0.664"
       id="path663" /><path
       style="fill:none;stroke:#00ffff;stroke-width:1"
       d="m 3412.1916,22294.448 c 1.3072,1.547 1.3475,1.467 2.3154,3.024 0.479,0.77 0.9512,1.557 1.0534,2.488 0.1826,1.664 -1.2671,2.189 -2.436,1.19 -3.1472,-2.69 0.6691,-3.652 3.0615,-2.528"
       id="path665" /><path
       style="fill:none;stroke:#00ffff;stroke-width:1"
       d="m 3418.0842,22298.88 c 3.8315,0.1 1.501,-2.311 0.1317,-0.883 -0.2058,0.215 -0.122,0.585 -0.1317,0.883 -0.061,1.875 -0.4759,1.87 1.1303,2.062 0.5322,0.06 0.7018,-0.06 1.1631,-0.228"
       id="path667" /><path
       style="fill:none;stroke:#00ffff;stroke-width:1"
       d="m 3422.0017,22296.579 c 0.5617,1.346 1.386,4.018 1.207,5.483 -0.015,0.121 -0.2341,0.07 -0.3511,0.1"
       id="path669" /><path
       style="fill:none;stroke:#00ffff;stroke-width:1"
       d="m 3420.5642,22299.603 c 1.4199,-0.972 3.0277,-0.267 4.5319,-0.614"
       id="path671" /><path
       style="fill:none;stroke:#00ffff;stroke-width:1"
       d="m 3430.462,22286.169 c -0.5816,0.926 -1.3432,1.76 -1.7448,2.776 -0.4779,1.21 -0.7003,2.516 -0.8559,3.808 -0.7542,6.258 0.789,12.011 7.2533,14.177"
       id="path673" /><path
       style="fill:none;stroke:#00ffff;stroke-width:1"
       d="m 3439.7238,22285.656 c -0.015,-1.98 0.1847,6.909 -0.022,5.135"
       id="path675" /><path
       style="fill:none;stroke:#00ffff;stroke-width:1"
       d="m 3436.388,22284.922 c 1.0873,0.199 1.475,-3.776 1.9642,-4.174 0.01,0 2.4093,2.48 3.7199,3.777"
       id="path677" /><path
       style="fill:none;stroke:#00ffff;stroke-width:1"
       d="m 3451.3992,22283.911 c 1.1277,1.584 2.5266,3.776 1.1083,5.661 -0.6367,0.846 -2.2295,1.598 -3.0615,0.515 -0.5375,-0.699 -0.4262,-1.396 -0.417,-2.171"
       id="path679" /><path
       style="fill:none;stroke:#00ffff;stroke-width:1"
       d="m 3449.2156,22281.839 c 0.5656,-1.196 0.7264,-2.515 0.9766,-3.798 0.058,-0.298 -0.039,-0.842 0.2633,-0.872 0.083,0 0.1211,0.117 0.1647,0.188 0.1839,0.301 0.3446,0.614 0.5157,0.922 0.9526,1.714 1.9788,3.294 3.2261,4.809"
       id="path681" /><path
       style="fill:none;stroke:#00ffff;stroke-width:1"
       d="m 3461.7579,22281.343 c 0.5363,1.348 0.4825,7.359 1.7557,7.564"
       id="path683" /><path
       style="fill:none;stroke:#00ffff;stroke-width:1"
       d="m 3465.5437,22285.15 c -3.3971,0.735 1.0304,1.924 1.7337,2.3 0.1862,0.1 0.3,0.297 0.4499,0.446"
       id="path685" /><path
       style="fill:none;stroke:#00ffff;stroke-width:1"
       d="m 3458.3343,22281.412 c 0.7332,-1.912 1.0049,-3.945 1.5253,-5.919 0.1701,-0.645 0.4284,-1.621 0.5706,-1.616 0.317,0.01 0.9686,1.783 1.0314,1.924 1.006,2.25 2.1316,4.264 3.5444,6.285"
       id="path687" /><path
       style="fill:none;stroke:#00ffff;stroke-width:1"
       d="m 3440.0329,22294.216 c 1.1882,0.137 1.1825,-0.179 1.5692,1.022 0.5059,1.571 -2.0119,4.232 -2.5568,3.033 -0.5347,-1.176 0.8346,-1.955 1.0864,-2.865 0.1061,-0.383 -0.4967,-1.19 -0.099,-1.19 1.3807,0 1.4556,0.777 1.6021,1.527"
       id="path689" /><path
       style="fill:none;stroke:#00ffff;stroke-width:1"
       d="m 3437.3993,22300.006 c 2.361,-1.331 5.3948,-1.35 7.7361,-2.498"
       id="path691" /><path
       style="fill:none;stroke:#00ffff;stroke-width:1"
       d="m 3440.5706,22301.156 c 0.4499,0.42 0.9883,0.762 1.3497,1.26 0.5489,0.756 -0.014,2.886 -1.0315,3.033 -1.4493,0.21 -0.9254,-2.08 -0.7681,-2.696 0.1368,-0.536 0.2999,-1.064 0.4499,-1.597 z"
       id="path693" /><path
       style="fill:none;stroke:#00ffff;stroke-width:1"
       d="m 3444.8282,22299.977 c 0.245,-0.291 1.026,-0.628 0.7352,-0.873 -0.2908,-0.245 -0.6486,0.502 -0.7352,0.873 -0.3573,1.526 -0.1958,3.136 -0.4719,4.679 -0.1449,0.811 -0.1981,-0.01 -0.3072,-0.416"
       id="path695" /><path
       style="fill:none;stroke:#00ffff;stroke-width:1"
       d="m 3442.3153,22300.681 c 1.5032,1.282 3.7238,1.882 4.9709,3.46"
       id="path697" /><path
       style="fill:none;stroke:#00ffff;stroke-width:1"
       d="m 3452.6191,22292.184 c 1.1223,1.243 0.815,0.736 1.5692,2.241 0.2127,0.424 0.712,1.469 0.7901,1.963 0.1253,0.792 -0.528,1.258 -1.1412,0.555 -0.9571,-1.098 -0.713,-3.998 1.207,-3.093"
       id="path699" /><path
       style="fill:none;stroke:#00ffff;stroke-width:1"
       d="m 3450.4464,22300.74 c 3.8779,-1.269 2.555,-0.698 6.8144,-2.816 0.6775,-0.336 2.4779,-1.129 3.1273,-1.854"
       id="path701" /><path
       style="fill:none;stroke:#00ffff;stroke-width:1"
       d="m 3454.7589,22301.008 c 0.4536,0.36 0.9902,0.635 1.3607,1.08 0.3873,0.466 0.6642,1.026 0.8669,1.597 0.3635,1.023 -0.3227,3.123 -1.668,3.113 -1.7084,-0.01 -0.723,-2.835 -0.1097,-3.5 0.2901,-0.315 0.7023,-0.489 1.0534,-0.734"
       id="path703" /><path
       style="fill:none;stroke:#00ffff;stroke-width:1"
       d="m 3461.3538,22300.443 c -0.4545,0.937 -0.1493,3.542 -0.5487,4.451 -0.036,0.08 -0.1682,0.07 -0.2524,0.1"
       id="path705" /><path
       style="fill:none;stroke:#00ffff;stroke-width:1"
       d="m 3457.974,22301.801 c 1.2301,-0.138 1.9096,0.04 2.7543,0.823"
       id="path707" /><path
       style="fill:none;stroke:#00ffff;stroke-width:1"
       d="m 3468.8046,22289.438 c 1.2254,2.891 -0.1,-0.16 1.3716,2.974 0.2521,0.537 0.5195,1.069 0.7242,1.626 0.4028,1.096 0.6613,2.268 -0.7791,2.746 -0.2413,0.08 -0.5399,-0.01 -0.7461,-0.158 -0.9791,-0.707 -2.2016,-3.686 -0.1427,-3.738"
       id="path709" /><path
       style="fill:none;stroke:#00ffff;stroke-width:1"
       d="m 3467.3232,22298.39 c 0.6291,-0.09 1.2752,-0.1 1.8874,-0.267 1.74,-0.485 5.8619,-2.102 7.2532,-3.163"
       id="path711" /><path
       style="fill:none;stroke:#00ffff;stroke-width:1"
       d="m 3471.2187,22299.055 c 0.4253,0.426 1.8279,1.76 2.2604,2.409 0.8407,1.262 0.2608,3.356 -1.2948,3.044 -2.43,-0.488 -1.1651,-3.217 0.2633,-4.036"
       id="path713" /><path
       style="fill:none;stroke:#00ffff;stroke-width:1"
       d="m 3474.8947,22299.055 c 0.6986,-0.311 1.3644,-0.709 2.0958,-0.932 0.691,-0.211 0.9227,0.04 0.6804,0.604 -0.4276,0.995 -3.2148,4.04 -2.0301,4.948 0.1768,0.135 6.2541,-0.896 2.6885,-0.853"
       id="path715" /><path
       style="fill:none;stroke:#00ffff;stroke-width:1"
       d="m 3474.0826,22301.028 c 1.6246,-0.778 3.3588,-0.938 5.0806,-1.319"
       id="path717" /><path
       style="fill:none;stroke:#00ffff;stroke-width:1"
       d="m 3441.2619,22313.272 c 0.062,-0.321 0.5071,-0.9 0.1865,-0.962 -0.3205,-0.06 -0.225,0.638 -0.1865,0.962 0.1503,1.265 0.5443,2.49 0.7462,3.747 0.2312,1.441 0.4113,2.751 0.1646,2.241"
       id="path719" /><path
       style="fill:none;stroke:#00ffff;stroke-width:1"
       d="m 3440.2633,22314.134 c -0.6039,-1.001 4.2919,-2.171 4.1589,-1.09"
       id="path721" /><path
       style="fill:none;stroke:#00ffff;stroke-width:1"
       d="m 3441.7667,22315.899 c 1.2159,-0.06 3.3788,-1.617 4.3673,-0.367"
       id="path723" /><path
       style="fill:none;stroke:#00ffff;stroke-width:1"
       d="m 3447.6154,22319.062 c -0.6089,1.362 -0.3737,3.251 -1.2181,4.531 -0.058,0.09 -0.2121,0 -0.3182,-0.01"
       id="path725" /><path
       style="fill:none;stroke:#00ffff;stroke-width:1"
       d="m 3445.0038,22320.043 c 1.7617,0.852 3.0663,2.329 4.7184,3.351"
       id="path727" /><path
       style="fill:none;stroke:#00ffff;stroke-width:1"
       d="m 3456.6902,22308.791 c 0.9302,2.079 2.33,4.583 2.1178,6.979"
       id="path729" /><path
       style="fill:none;stroke:#00ffff;stroke-width:1"
       d="m 3456.4378,22310.516 c 0.8763,-1.707 3.0769,-2.605 4.9269,-2.31"
       id="path731" /><path
       style="fill:none;stroke:#00ffff;stroke-width:1"
       d="m 3458.0947,22311.17 c 1.566,0.234 3.3203,-0.87 4.8612,-0.367"
       id="path733" /><path
       style="fill:none;stroke:#00ffff;stroke-width:1"
       d="m 3464.7225,22313.916 c 0.064,1.954 0.5003,4.702 -0.823,6.336"
       id="path735" /><path
       style="fill:none;stroke:#00ffff;stroke-width:1"
       d="m 3461.8915,22315.879 c 0.8032,-1.53 2.0424,-0.6 2.9956,0.228"
       id="path737" /><path
       style="fill:none;stroke:#00ffff;stroke-width:1"
       d="m 3473.1719,22314.462 c 0,-2.322 -0.4834,-4.724 -1.1412,-6.931 1.4515,-0.67 2.7987,-1.062 4.2905,-0.793"
       id="path739" /><path
       style="fill:none;stroke:#00ffff;stroke-width:1"
       d="m 3473.106,22308.414 c 0.8539,-0.183 3.0953,-0.924 3.6651,0.277"
       id="path741" /><path
       style="fill:none;stroke:#00ffff;stroke-width:1"
       d="m 3476.2663,22314.481 c -0.2622,-0.145 2.9935,-1.892 3.6102,-0.823 0.4937,0.857 -2.5065,3.187 -2.8969,3.599 -0.7181,0.758 -1.0592,1.145 -0.845,1.259 0.6496,0.349 1.4669,-0.175 2.1837,-0.347 0.6617,-0.158 1.1335,-0.316 1.7886,-0.386 0.069,0 0.1475,-0.01 0.2085,0.02 0.1368,0.08 -0.3048,0.08 -0.4609,0.09"
       id="path743" /><path
       style="fill:none;stroke:#00ffff;stroke-width:1"
       d="m 3476.3431,22315.691 c 1.9938,-0.114 3.9999,-0.261 5.7609,-1.309"
       id="path745" /><path
       style="fill:none;stroke:#00ffff;stroke-width:1"
       d="m 3475.553,22275.746 c 1.7139,1.273 3.2634,2.231 4.4442,4.164 2.5023,4.097 3.9213,9.468 4.9708,13.999 1.8965,8.188 2.1576,14.74 0.7681,23.041 -0.1707,1.02 -1.9946,9.957 -3.8186,10.826"
       id="path747" /><path
       style="fill:none;stroke:#00ffff;stroke-width:1"
       d="m 3431.7013,22287.647 c -1.3807,5.353 -1.3254,10.865 -0.6694,16.329 0.4762,3.966 1.3004,8.232 2.2166,12.145 0.8511,3.635 1.9477,7.137 3.281,10.618 0.3836,1.002 0.698,2.033 1.1522,3.004 0.053,0.114 0.1855,0.384 0.2524,0.278 0.1369,-0.217 -2.3984,-3.806 -2.6446,-4.184 -4.1937,-6.429 -6.0969,-12.666 -6.0791,-20.453 0.015,-6.609 1.4247,-12.709 3.5992,-18.867 0.047,-0.132 1.6614,-4.456 1.4155,-4.739 -0.038,-0.04 -0.4148,0.252 -0.7791,0.902 -0.7768,1.387 -1.4848,3.853 -1.7447,4.967 -1.121,4.805 -2.3642,9.599 -3.0505,14.485 -0.6438,4.583 1.0828,12.198 1.9642,16.091 0.2105,0.93 1.8001,5.956 3.1273,6.484"
       id="path749" /><path
       style="fill:none;stroke:#00ffff;stroke-width:1"
       d="m 3440.5492,22294.649 c -0.314,-1.331 -0.014,-2.656 0.011,-3.995 0.01,-0.292 0.063,-1.144 -0.044,-0.873 -0.5212,1.319 1.5274,5.336 1.6021,7.049 0.055,1.263 -2.1904,1.727 -2.875,1.973 -0.5493,0.197 -1.1411,0.268 -1.1632,0.199 -0.1163,-0.367 -0.045,-0.79 0.088,-1.151 0.2153,-0.583 0.5616,-1.116 0.9327,-1.616 0.4273,-0.574 0.9499,-1.072 1.4485,-1.586 1.648,-1.698 1.2842,-1.403 2.1507,-2.082"
       id="path751" /></g></svg>
