<?xml version="1.0" encoding="UTF-8" standalone="no"?>
<!-- Created with Inkscape (http://www.inkscape.org/) -->

<svg
   width="264.42368mm"
   height="82.709091mm"
   viewBox="0 0 264.42367 82.709092"
   version="1.1"
   id="svg12"
   inkscape:version="1.2.1 (9c6d41e410, 2022-07-14, custom)"
   sodipodi:docname="cross_product_determinent.svg"
   xml:space="preserve"
   xmlns:inkscape="http://www.inkscape.org/namespaces/inkscape"
   xmlns:sodipodi="http://sodipodi.sourceforge.net/DTD/sodipodi-0.dtd"
   xmlns="http://www.w3.org/2000/svg"
   xmlns:svg="http://www.w3.org/2000/svg"><sodipodi:namedview
     id="namedview14"
     pagecolor="#000000"
     bordercolor="#ffffff"
     borderopacity="1"
     inkscape:showpageshadow="0"
     inkscape:pageopacity="0"
     inkscape:pagecheckerboard="0"
     inkscape:deskcolor="#000000"
     inkscape:document-units="mm"
     showgrid="true"
     inkscape:zoom="0.91285872"
     inkscape:cx="598.12103"
     inkscape:cy="170.89172"
     inkscape:window-width="1366"
     inkscape:window-height="746"
     inkscape:window-x="1360"
     inkscape:window-y="0"
     inkscape:window-maximized="1"
     inkscape:current-layer="layer1"
     inkscape:lockguides="true" /><defs
     id="defs9"><rect
       x="587.26367"
       y="362.45731"
       width="66.575974"
       height="20.973427"
       id="rect1884" /></defs><g
     inkscape:label="Layer 1"
     inkscape:groupmode="layer"
     id="layer1"
     transform="translate(-3286.9556,-22306.667)"><path
       style="fill:none;stroke:#00ffff;stroke-width:1"
       d="m 3292.1985,22364.434 c 2.323,-5.335 0.5085,-1.314 4.1992,-8.777 0.9776,-1.977 1.7468,-3.484 2.4884,-5.51 0.577,-1.577 0.586,-1.489 0.6532,-2.748 0.01,-0.103 0.046,-0.401 0,-0.309 -0.3577,0.725 -0.101,1.624 0,2.426 0.7554,5.994 3.0996,10.178 6.159,15.227 0.5355,0.884 1.0912,1.757 1.5862,2.664 0.1492,0.273 0.3683,0.559 0.3424,0.869 -0.013,0.141 -0.2953,-0.04 -0.4046,-0.126 -0.7085,-0.582 -1.3478,-1.243 -2.0217,-1.865"
       id="path1304" /><path
       style="fill:none;stroke:#00ffff;stroke-width:1"
       d="m 3294.9359,22360.382 c 2.9543,2.989 -2.9443,-1.019 -2.1463,-1.22 3.6954,-0.93 10.5986,-1.97 14.5883,-0.771"
       id="path1306" /><path
       style="fill:none;stroke:#00ffff;stroke-width:1"
       d="m 3318.9492,22355.138 c -0.2792,1.344 -1.9061,7.576 -3.3285,8.048 -0.436,0.145 -0.8279,-1.474 -1.3062,-2.832"
       id="path1308" /><path
       style="fill:none;stroke:#00ffff;stroke-width:1"
       d="m 3313.3191,22355.222 c -0.2905,-0.56 -0.3101,-1.972 -0.871,-1.682 -0.5609,0.29 0.4204,1.24 0.871,1.682 2.8342,2.784 8.9916,6.385 10.3891,10.614"
       id="path1310" /><path
       style="fill:none;stroke:#00ffff;stroke-width:1"
       d="m 3329.9291,22360.088 c 0.042,0.08 0.1246,0.328 0.1246,0.238 0.063,-1.855 -0.5249,-3.982 -0.9953,-5.721 -0.5281,-1.95 -1.1877,-3.823 -1.4621,-3.491 -0.1868,0.226 -0.6842,2.079 -0.6842,2.089 -0.5261,-3.306 -1.6306,-7.246 2.5817,-8.44 0.8279,-0.235 1.7577,-0.248 2.5817,0 2.7736,0.836 5.7505,3.303 4.7902,6.576 -0.5251,1.79 -1.957,2.805 -3.4527,3.645 -0.1455,0.08 -0.573,0.205 -0.4976,0.06 1.9742,-3.901 11.4837,-1.088 9.9225,4.263 -0.9085,3.114 -4.7104,4.957 -7.7763,4.206 -1.2095,-0.296 -2.1677,-1.23 -3.2038,-1.921 -0.6777,-0.451 -1.5828,-0.763 -1.9287,-1.5 -0.4852,-1.034 -0.2488,-2.271 -0.3731,-3.407"
       id="path1312" /><path
       style="fill:none;stroke:#00ffff;stroke-width:1"
       d="m 3287.1907,22340.402 c 2.5551,1.361 5.62,1.11 8.4294,0.996 0.7374,-0.03 1.5049,0.07 2.2084,-0.155 0.308,-0.1 0.7253,-0.436 0.6221,-0.743 -0.9009,-2.677 -4.8385,-3.58 -7.0919,-4.388 -0.4212,-0.151 -1.3973,-0.08 -1.2443,-0.505 0.1817,-0.499 1.0369,-0.234 1.5554,-0.351"
       id="path1314" /><path
       style="fill:none;stroke:#00ffff;stroke-width:1"
       d="m 3320.0377,22339.603 c 4.3608,0.366 -3.3182,-0.259 7.8076,0.379 2.4683,0.141 4.3566,0.357 6.7185,0.603 0.5795,0.06 2.0019,0.381 1.742,-0.141 -0.3034,-0.608 -0.8337,-1.076 -1.2131,-1.64 -2.006,-2.983 -1.6878,-2.649 -3.3282,-5.833 -0.472,-0.916 -1.3356,-2.693 -1.493,-2.636 -0.2088,0.08 -0.062,0.439 -0.093,0.659"
       id="path1316" /><path
       style="fill:none;stroke:#00ffff;stroke-width:1"
       d="m 3352.9471,22349.025 c 4.15,0.778 8.3116,-0.122 12.4732,0.01 0.3096,0.01 1.0303,-0.06 0.902,0.225 -0.1648,0.362 -0.7673,0.215 -1.1507,0.322"
       id="path1318" /><path
       style="fill:none;stroke:#00ffff;stroke-width:1"
       d="m 3355.4977,22352.53 c 4.2698,0.64 8.6389,-0.104 12.9087,0.617"
       id="path1320" /><path
       style="fill:none;stroke:#00ffff;stroke-width:1"
       d="m 3383.7414,22340.262 c 2.4884,2 2.3191,1.537 4.137,4.557 1.1372,1.889 1.928,3.759 1.773,6.057 -0.1791,2.649 -4.5985,7.717 -7.2787,4.417 -2.699,-3.324 0.5675,-7.651 4.0436,-8.259 2.4091,-0.421 2.7599,0.175 4.8837,1.206"
       id="path1326" /><path
       style="fill:none;stroke:#00ffff;stroke-width:1"
       d="m 3397.2722,22350.918 c 2.1712,-0.129 4.4982,0.09 6.5942,-0.617 0.3371,-0.114 1.4068,-0.515 1.0575,-1.22 -1.2393,-2.501 -7.0246,-1.624 -8.1494,0.435 -0.2379,0.435 0.4128,0.913 0.4977,1.402 0.1143,0.659 -0.4514,1.616 0.093,2.005 1.3999,0.999 3.2311,1.22 4.9147,1.57 1.5552,0.324 6.578,-0.461 6.4389,-2.72"
       id="path1328" /><path
       style="fill:none;stroke:#00ffff;stroke-width:1"
       d="m 3412.7003,22346.151 c 0.2323,1.831 2.8324,8.258 1.7108,9.66 -0.1103,0.138 -0.3524,-0.02 -0.5289,-0.03"
       id="path1330" /><path
       style="fill:none;stroke:#00ffff;stroke-width:1"
       d="m 3409.1853,22350.497 c 3.2864,-1.271 6.7845,-0.605 10.1404,0"
       id="path1332" /><path
       style="fill:none;stroke:#00ffff;stroke-width:1"
       d="m 3425.7022,22329.227 c -0.7154,1.16 -1.5825,2.238 -2.146,3.478 -3.1549,6.941 -0.9181,16.634 3.7946,22.307 2.0696,2.491 4.4061,4.293 7.7142,4.08"
       id="path1334" /><path
       style="fill:none;stroke:#00ffff;stroke-width:1"
       d="m 3440.4151,22321.18 c 0.1704,18.384 3.3126,36.614 2.6128,55.032"
       id="path1336" /><path
       style="fill:none;stroke:#00ffff;stroke-width:1"
       d="m 3456.6521,22322.932 c 0.068,2.752 -0.2762,5.454 -0.7776,8.146 -0.024,0.125 -0.031,0.252 -0.031,0.379 0,0.07 0.021,-0.131 0.031,-0.197"
       id="path1338" /><path
       style="fill:none;stroke:#00ffff;stroke-width:1"
       d="m 3452.6706,22321.951 c 1.143,0 2.8173,-6.078 3.6703,-6.282 1.6095,-0.384 5.587,3.199 6.6255,4.459"
       id="path1340" /><path
       style="fill:none;stroke:#00ffff;stroke-width:1"
       d="m 3485.1755,22322.904 c 2.1714,-0.192 5.3819,4.012 4.137,5.917 -1.0258,1.57 -3.7899,3.989 -5.661,1.767 -0.6683,-0.794 -0.9747,-1.833 -1.4621,-2.749"
       id="path1342" /><path
       style="fill:none;stroke:#00ffff;stroke-width:1"
       d="m 3482.2516,22320.535 c 1.0237,-0.03 1.3856,-6.184 2.613,-6.338 1.8164,-0.228 6.332,5.059 7.0297,6.632"
       id="path1344" /><path
       style="fill:none;stroke:#00ffff;stroke-width:1"
       d="m 3505.8606,22318.698 c 0.5289,0.219 1.243,0.2 1.5865,0.659 1.3234,1.767 1.3848,6.165 1.5552,8.356 0.1204,1.549 0.01,2.434 0.4355,2.356 0.2929,-0.05 0.4561,-0.383 0.6842,-0.575"
       id="path1346" /><path
       style="fill:none;stroke:#00ffff;stroke-width:1"
       d="m 3511.3973,22324.306 c -0.8607,0.173 -1.9166,-0.05 -2.5818,0.519 -0.3262,0.281 0.4651,0.769 0.84,0.981 2.9943,1.693 6.4609,1.476 9.5803,2.468"
       id="path1348" /><path
       style="fill:none;stroke:#00ffff;stroke-width:1"
       d="m 3499.1418,22319.175 c 2.5183,-2.082 3.4888,-4.674 4.5104,-7.642 0.3278,-0.952 0.5334,-2.442 0.9019,-2.412 1.3708,0.113 8.5429,6.617 9.9849,8.427"
       id="path1350" /><path
       style="fill:none;stroke:#00ffff;stroke-width:1"
       d="m 3528.4431,22306.822 c 6.5868,20.211 2.0547,41.999 6.9985,62.506 1.17,4.852 3.3642,9.32 5.257,13.909 0.7024,1.703 1.896,4.11 2.1151,6.084"
       id="path1354" /><path
       style="fill:none;stroke:#00ffff;stroke-width:1"
       d="m 3453.044,22367.561 c -0.083,0.542 -0.2255,1.078 -0.249,1.626 -0.1127,2.606 0.3633,5.192 0.3421,7.796 -0.01,0.682 -0.4366,2.544 0.031,2.047 0.1958,-0.208 0.2075,-0.533 0.3109,-0.799"
       id="path1378" /><path
       style="fill:none;stroke:#00ffff;stroke-width:1"
       d="m 3453.2305,22369.902 c -0.5583,-0.699 -1.8015,-1.814 -1.4309,-2.972 0.1678,-0.524 0.7229,-0.848 1.1819,-1.15 1.2893,-0.848 3.2655,-1.837 4.9147,-1.809 4.8852,0.08 5.9253,4.023 2.9861,7.474 -1.1793,1.384 -2.9224,2.5 -4.5101,3.393 -1.1946,0.671 -0.9822,0.03 0.9953,-0.701 1.1158,-0.411 2.272,-0.755 3.4526,-0.897 1.7206,-0.208 8.4698,0.595 5.2879,3.855 -1.493,1.53 -7.2818,4.895 -9.4249,3.562 -0.9094,-0.566 -0.5803,-1.771 -0.5287,-2.538"
       id="path1380" /><path
       style="fill:none;stroke:#00ffff;stroke-width:1"
       d="m 3476.0307,22377.165 c -0.889,1.581 -1.5126,3.295 -2.364,4.894 -0.9774,1.836 -2.1609,4.097 -2.7684,3.407 -1.3303,-1.512 -2.3484,-4.788 -3.1729,-6.646 -0.2079,-0.469 -0.849,-1.579 -0.3421,-1.5 2.9499,0.454 11.3107,7.781 12.2246,10.782"
       id="path1382" /><path
       style="fill:none;stroke:#00ffff;stroke-width:1"
       d="m 3483.9314,22366.621 c -0.1132,3.969 1.2317,7.861 1.7418,11.694"
       id="path1384" /><path
       style="fill:none;stroke:#00ffff;stroke-width:1"
       d="m 3482.9982,22368.178 c -0.8749,-2.026 -1.774,-5.195 1.2753,-5.945 0.6046,-0.149 1.2819,-0.144 1.8664,0.07 4.5834,1.68 2.0003,6.546 -0.7466,8.483 -0.5514,0.388 0.9271,-1.018 1.5242,-1.332 0.7215,-0.38 1.4978,-0.692 2.3019,-0.828 3.3025,-0.556 5.1012,1.594 5.1012,4.852 0,1.869 -5.3375,5.801 -7.061,4.893 -0.4728,-0.249 -0.5183,-0.935 -0.7776,-1.402"
       id="path1386" /><path
       style="fill:none;stroke:#00ffff;stroke-width:1"
       d="m 3503.963,22374.179 c 0.335,2.748 0.3051,0.84 -1.4306,5.398 -0.3056,0.802 -0.5619,1.624 -0.9022,2.411 -0.264,0.612 -0.5453,1.81 -1.1819,1.613 -0.263,-0.08 -0.3318,-0.439 -0.4977,-0.659"
       id="path1388" /><path
       style="fill:none;stroke:#00ffff;stroke-width:1"
       d="m 3496.9333,22375.637 c 2.173,0.978 4.046,2.486 5.1324,4.641"
       id="path1390" /><path
       style="fill:none;stroke:#00ffff;stroke-width:1"
       d="m 3511.8328,22366.692 c -0.2384,-0.716 -0.477,-1.43 -0.7154,-2.146 -0.1244,-0.04 -0.4144,-0.235 -0.3734,-0.112 2.871,5.953 -0.1092,-1.251 0.8401,4.459 0.09,0.545 2.1138,5.727 2.3328,6.295 0.3464,0.899 1.3677,3.601 1.0885,2.678"
       id="path1392" /><path
       style="fill:none;stroke:#00ffff;stroke-width:1"
       d="m 3512.7969,22368.57 c -0.9453,-3.345 -3.3676,-5.498 0.498,-7.907 0.5244,-0.327 1.2277,-0.381 1.8351,-0.267 2.6747,0.502 2.58,3.529 1.6174,5.44 -0.5278,1.048 -1.1813,2.123 -2.1463,2.79 -0.4947,0.343 -2.3328,0.232 -1.8042,-0.06 0.5713,-0.31 5.2364,-2.164 6.4389,-0.757 3.3838,3.961 -0.9691,8.827 -4.9146,9.843 -1.1107,0.286 -1.1631,-0.739 -1.1197,-1.5"
       id="path1394" /><path
       style="fill:none;stroke:#00ffff;stroke-width:1"
       d="m 3523.1551,22374.039 c 0.1101,-0.05 3.1126,-1.388 3.4526,-1.515 5.6134,-2.091 2.4204,4.039 0.9644,6.296 -0.8181,1.268 -2.1032,2.211 -2.8305,3.533 -0.3842,0.699 0.6971,0.274 1.4308,0.168 1.0729,-0.154 5.3549,0.07 5.9722,-0.729"
       id="path1396" /><path
       style="fill:none;stroke:#00ffff;stroke-width:1"
       d="m 3521.7555,22378.539 c 3.1443,-1.18 6.5397,-0.78 9.7671,-0.168 1.3766,0.262 1.2766,0.04 1.2128,0.785"
       id="path1398" /><path
       style="fill:none;stroke:#00ffff;stroke-width:1"
       d="m 3450.6799,22352.068 c -0.042,0.411 -0.5358,1.192 -0.1243,1.234 0.4111,0.04 -0.094,-0.883 0.1243,-1.234 0.4874,-0.785 1.4439,-1.215 1.8973,-2.019 0.7353,-1.305 1.6672,-7.945 1.773,-9.717 0.026,-0.443 -0.018,-0.888 -0.031,-1.332 -0.011,-0.341 -0.2667,-1.236 0,-1.023 1.2853,1.027 1.3679,4.699 1.9282,6.295 0.3829,1.09 0.8322,2.158 1.3378,3.197 0.3659,0.752 4.8654,7.63 2.5818,7.263"
       id="path1400" /><path
       style="fill:none;stroke:#00ffff;stroke-width:1"
       d="m 3451.6131,22349.193 c 3.039,-0.993 6.2733,-0.355 9.3313,0.253"
       id="path1402" /><path
       style="fill:none;stroke:#00ffff;stroke-width:1"
       d="m 3467.0412,22348.492 c 6.163,-2.894 -0.3402,8.882 -1.1509,9.198 -0.303,0.118 -0.1069,-0.643 -0.1244,-0.967"
       id="path1404" /><path
       style="fill:none;stroke:#00ffff;stroke-width:1"
       d="m 3463.0907,22350.918 c -0.4043,-0.509 -1.8341,-1.335 -1.2128,-1.528 1.6491,-0.513 10.0343,3.28 11.5088,4.332 3.1965,2.28 3.5595,1.714 2.4884,2.86"
       id="path1406" /><path
       style="fill:none;stroke:#00ffff;stroke-width:1"
       d="m 3483.1538,22353.75 c -0.062,-0.939 -0.1915,-1.877 -0.1868,-2.818 0.016,-2.976 0.3051,-6.11 0.6221,-9.072 0.1275,-1.188 0.2616,-1.565 0.6535,-2.65 0.091,-0.251 0.3558,-0.928 0.4352,-0.672 0.086,0.277 0.043,0.579 0.062,0.869 0.2453,3.73 0,4.069 1.9598,8.3 0.5876,1.27 1.4972,2.369 2.3328,3.491 0.4527,0.609 2.2852,1.636 0.4355,1.136"
       id="path1408" /><path
       style="fill:none;stroke:#00ffff;stroke-width:1"
       d="m 3483.3716,22350.792 c 3.5332,-1.195 2.0169,-1.097 4.4479,-0.996"
       id="path1410" /><path
       style="fill:none;stroke:#00ffff;stroke-width:1"
       d="m 3494.787,22348.717 c -0.1606,1.57 -0.1704,7.278 -1.9907,7.571"
       id="path1412" /><path
       style="fill:none;stroke:#00ffff;stroke-width:1"
       d="m 3490.619,22352.32 c 4.5503,-0.805 2.72,-1.063 5.5367,-0.322"
       id="path1414" /><path
       style="fill:none;stroke:#00ffff;stroke-width:1"
       d="m 3506.3583,22353.624 c 0.8488,-3.061 0.4016,-1.178 0.9642,-4.276 0.7448,-4.102 1.8372,-8.126 2.364,-12.269 0.073,-0.576 0.2424,-2.189 -0.1244,-1.738 -0.2984,0.367 -0.5257,0.821 -0.591,1.29 -0.6972,4.994 -0.2339,6.869 2.8929,10.599 0.7403,0.884 1.5206,1.735 2.3329,2.552 1.3287,1.338 3.0673,2.376 2.3328,2.104 -0.2019,-0.08 -0.3733,-0.216 -0.5599,-0.323"
       id="path1416" /><path
       style="fill:none;stroke:#00ffff;stroke-width:1"
       d="m 3508.7224,22347.735 c -0.4668,-0.229 -1.1708,-1.153 -1.3999,-0.687 -0.2289,0.467 0.8866,0.769 1.3999,0.687 8.4563,-1.35 -1.7696,-1.868 5.8478,-1.136"
       id="path1418" /><path
       style="fill:none;stroke:#00ffff;stroke-width:1"
       d="m 3522.5331,22347.497 c -0.013,-0.911 -1.5976,0.432 -1.8352,0.08 -0.1193,-0.175 0.068,-0.402 0.28,-0.393 0.5278,0.02 1.0392,0.423 1.5552,0.309 0.1889,-0.04 2.7376,-2.005 3.7325,-0.996 1.1414,1.158 -6.6091,6.47 -4.2614,7.698 1.3599,0.711 3.8121,0.19 5.1945,0.08 1.0166,-0.08 2.0323,-0.168 3.0483,-0.252 0.8962,-0.08 -0.5173,-0.66 -0.902,-0.968"
       id="path1420" /><path
       style="fill:none;stroke:#00ffff;stroke-width:1"
       d="m 3517.4007,22351.479 c 3.1962,0.519 7.5245,-1.385 10.2957,0.28"
       id="path1422" /><path
       style="fill:none;stroke:#00ffff;stroke-width:1"
       d="m 3542.1604,22309.977 c 4.9247,7.662 6.3418,16.968 7.5898,25.826 0.8311,5.899 1.4359,9.589 0.9642,15.311 -0.63,7.644 -2.7041,16.511 -9.9227,20.611"
       id="path1424" /></g></svg>
