<?xml version="1.0" encoding="UTF-8" standalone="no"?>
<!-- Created with Inkscape (http://www.inkscape.org/) -->

<svg
   width="121.98942mm"
   height="63.332649mm"
   viewBox="0 0 121.98941 63.332651"
   version="1.1"
   id="svg12"
   inkscape:version="1.2.1 (9c6d41e410, 2022-07-14, custom)"
   sodipodi:docname="cross_product.svg"
   xml:space="preserve"
   xmlns:inkscape="http://www.inkscape.org/namespaces/inkscape"
   xmlns:sodipodi="http://sodipodi.sourceforge.net/DTD/sodipodi-0.dtd"
   xmlns="http://www.w3.org/2000/svg"
   xmlns:svg="http://www.w3.org/2000/svg"><sodipodi:namedview
     id="namedview14"
     pagecolor="#000000"
     bordercolor="#ffffff"
     borderopacity="1"
     inkscape:showpageshadow="0"
     inkscape:pageopacity="0"
     inkscape:pagecheckerboard="0"
     inkscape:deskcolor="#000000"
     inkscape:document-units="mm"
     showgrid="true"
     inkscape:zoom="0.34952039"
     inkscape:cx="474.93653"
     inkscape:cy="246.05145"
     inkscape:window-width="1366"
     inkscape:window-height="746"
     inkscape:window-x="1360"
     inkscape:window-y="0"
     inkscape:window-maximized="1"
     inkscape:current-layer="layer1"
     inkscape:lockguides="true" /><defs
     id="defs9"><rect
       x="587.26367"
       y="362.45731"
       width="66.575974"
       height="20.973427"
       id="rect1884" /></defs><g
     inkscape:label="Layer 1"
     inkscape:groupmode="layer"
     id="layer1"
     transform="translate(-2649.0622,-22080.216)"><path
       style="fill:none;stroke:#00ffff;stroke-width:1"
       d="m 2649.5364,22133.211 c 0.1897,-0.567 0.3085,-1.164 0.5689,-1.702 1.6396,-3.397 4.0711,-6.696 5.9708,-9.924 3.3258,-5.652 6.672,-11.34 9.424,-17.303 0.2804,-0.608 2.4169,-4.682 1.9497,-6.262 -0.035,-0.118 -0.046,0.244 -0.041,0.366 0.049,1.051 0.05,2.109 0.2032,3.149 0.5736,3.896 1.6095,8.485 3.1684,12.085 4.2008,9.702 10.554,17.749 16.9788,26.036 0.6512,0.84 1.3367,1.652 1.9905,2.49 0.213,0.273 0.5773,0.497 0.6093,0.843 0.021,0.231 -0.3791,-0.269 -0.5688,-0.403"
       id="path1254" /><path
       style="fill:none;stroke:#00ffff;stroke-width:1"
       d="m 2656.4825,22115.78 c 7.3345,-0.549 15.2146,-1.613 22.4626,0.09"
       id="path1256" /><path
       style="fill:none;stroke:#00ffff;stroke-width:1"
       d="m 2655.3043,22091.227 c 5.8891,-0.09 11.7372,0.946 17.629,1.117 1.3406,0.04 4.745,0.197 5.1588,-0.769 1.3354,-3.117 -8.3248,-8.701 -10.155,-9.741"
       id="path1258" /><path
       style="fill:none;stroke:#00ffff;stroke-width:1"
       d="m 2718.549,22102.964 c -0.9207,1.446 -1.8447,2.891 -2.762,4.339 -3.6756,5.803 -7.5639,11.25 -11.5766,16.808 -0.731,1.013 -1.3864,2.079 -2.1121,3.095 -0.049,0.07 -0.2178,0.228 -0.2032,0.146 0.173,-0.982 0.4604,-1.941 0.6905,-2.911"
       id="path1260" /><path
       style="fill:none;stroke:#00ffff;stroke-width:1"
       d="m 2705.2664,22107.413 c -1.6867,1.059 0.1265,-4.133 1.1374,-3.461 1.5762,1.049 2.689,2.665 4.0214,4.01 1.836,1.854 3.6725,3.707 5.4835,5.585 3.5222,3.652 7.6634,7.959 10.6831,12.011 2.3911,3.208 3.3737,6.143 5.443,9.356"
       id="path1262" /><path
       style="fill:none;stroke:#00ffff;stroke-width:1"
       d="m 2739.7525,22106.003 c 0.4196,-1.08 0.2907,-2.604 1.2591,-3.241 0.5786,-0.38 0.5064,1.292 0.6906,1.959 0.4259,1.545 0.7387,3.118 1.1374,4.669 1.0996,4.28 2.3585,8.518 3.4526,12.799 0.4003,1.566 0.7286,3.15 1.0967,4.724 0.4233,1.809 0.4061,2.281 0.4061,1.483"
       id="path1264" /><path
       style="fill:none;stroke:#00ffff;stroke-width:1"
       d="m 2743.4489,22102.744 c -0.7527,-1.664 -2.1767,-3.852 -1.3406,-5.877 0.3672,-0.89 1.2838,-1.511 2.1529,-1.923 6.5744,-3.118 14.6942,-0.933 16.2886,6.884 1.2538,6.149 -1.9601,8.59 -5.2401,12.927 -0.4432,0.586 0.9424,-1.152 1.5436,-1.575 2.6014,-1.83 5.1414,-3.31 8.4489,-3.277 1.0253,0.01 2.1643,0.264 2.9244,0.952 3.9587,3.583 2.3466,6.112 -0.9342,10.198 -3.6087,4.496 -13.3845,6.933 -18.8068,7.068 -1.7214,0.04 -4.9845,-0.47 -6.0521,-2.362 -0.2503,-0.443 0.2437,-0.989 0.3654,-1.483"
       id="path1266" /><path
       style="fill:none;stroke:#00ffff;stroke-width:1"
       d="m 2726.6323,22093.15 c 11.6877,-1.323 23.4521,-0.403 35.1766,-0.403 1.0033,0 2.7435,0.804 3.0059,-0.165 0.2829,-1.044 -1.4552,-1.634 -2.3561,-2.234 -2.3976,-1.596 -8.391,-4.45 -11.0484,-5.731 -2.135,-1.028 -4.2966,-2.001 -6.4178,-3.057 -1.5025,-0.749 -1.4782,-1.396 -1.1782,-0.11"
       id="path1268" /></g></svg>
