<?xml version="1.0" encoding="UTF-8" standalone="no"?>
<!-- Created with Inkscape (http://www.inkscape.org/) -->

<svg
   width="110.05214mm"
   height="54.058052mm"
   viewBox="0 0 110.05214 54.058053"
   version="1.1"
   id="svg12"
   inkscape:version="1.2.1 (9c6d41e410, 2022-07-14, custom)"
   sodipodi:docname="curl_sum_equation.svg"
   xml:space="preserve"
   xmlns:inkscape="http://www.inkscape.org/namespaces/inkscape"
   xmlns:sodipodi="http://sodipodi.sourceforge.net/DTD/sodipodi-0.dtd"
   xmlns="http://www.w3.org/2000/svg"
   xmlns:svg="http://www.w3.org/2000/svg"><sodipodi:namedview
     id="namedview14"
     pagecolor="#000000"
     bordercolor="#ffffff"
     borderopacity="1"
     inkscape:showpageshadow="0"
     inkscape:pageopacity="0"
     inkscape:pagecheckerboard="0"
     inkscape:deskcolor="#000000"
     inkscape:document-units="mm"
     showgrid="true"
     inkscape:zoom="2.7063106"
     inkscape:cx="176.62422"
     inkscape:cy="120.4592"
     inkscape:window-width="1366"
     inkscape:window-height="746"
     inkscape:window-x="1360"
     inkscape:window-y="0"
     inkscape:window-maximized="1"
     inkscape:current-layer="layer1"
     inkscape:lockguides="true"
     showguides="true"><sodipodi:guide
       position="3265.6758,-22192.731"
       orientation="0,-1"
       id="guide3409"
       inkscape:locked="true" /></sodipodi:namedview><defs
     id="defs9"><rect
       x="587.26367"
       y="362.45731"
       width="66.575974"
       height="20.973427"
       id="rect1884" /></defs><g
     inkscape:label="Layer 1"
     inkscape:groupmode="layer"
     id="layer1"
     transform="translate(-245.96526,-118.53792)"><path
       style="fill:none;stroke:#ffb380;stroke-width:0.3;stroke-dasharray:none"
       d="m 248.33803,118.66552 c -1.22883,0.75945 -2.79824,2.31189 -2.01446,3.90174 0.32607,0.66139 1.31826,1.55722 1.75218,1.99107 1.20856,1.20837 2.67665,2.44089 2.99021,4.24699 0.0929,0.53521 0.14989,1.14173 -0.0944,1.62691 -0.71429,1.41861 -1.7109,2.51322 -3.03218,3.2822 -0.59629,0.34703 -0.48241,0.40556 -0.72395,0.20336"
       id="path614" /><path
       style="fill:none;stroke:#ffb380;stroke-width:0.3;stroke-dasharray:none"
       d="m 253.70867,119.52789 c -0.72543,0.57471 -1.5418,1.22412 -1.31151,2.27484 0.32411,1.47868 2.26539,3.05967 2.9273,4.60169 0.55393,1.29052 1.19104,3.82828 0.76591,5.25435 -0.36922,1.23854 -2.17897,1.90731 -3.34695,1.83027"
       id="path1170" /><path
       style="fill:none;stroke:#ffb380;stroke-width:0.3;stroke-dasharray:none"
       d="m 250.94928,135.58416 c -0.23434,0.13558 -0.49617,0.23204 -0.70297,0.40673 -2.07661,1.75404 2.47885,2.18067 2.56005,3.00789 0.0392,0.39969 -0.25998,0.79751 -0.55607,1.06884 -0.47369,0.43405 -3.94129,1.09207 -4.13388,0.26012 -0.0262,-0.113 0.1609,-0.16711 0.24133,-0.25066"
       id="path1172" /><path
       style="fill:none;stroke:#ffb380;stroke-width:0.3;stroke-dasharray:none"
       d="m 261.40982,125.97404 c -1.09956,0.38644 -0.92242,0.22518 -2.04594,1.62691 -1.46992,1.83392 2.29523,1.9411 3.24204,1.5607 0.0401,-0.0161 -0.042,-0.0757 -0.0629,-0.1135"
       id="path1174" /><path
       style="fill:none;stroke:#ffb380;stroke-width:0.3;stroke-dasharray:none"
       d="m 263.9594,127.42124 c -0.15039,0.20967 -0.33798,0.39712 -0.45117,0.629 -0.0464,0.095 -0.0515,0.21948 -0.0106,0.31687 0.42682,1.01327 2.64091,0.67348 2.7804,-0.26957 0.0369,-0.2496 -0.23114,-0.52326 -0.38823,-0.69522"
       id="path1176" /><path
       style="fill:none;stroke:#ffb380;stroke-width:0.3;stroke-dasharray:none"
       d="m 267.66309,126.72129 c 0.82415,0.0386 0.91128,-0.10574 1.54233,0.57226 0.26559,0.28535 0.53314,0.59652 0.66099,0.96479 0.0392,0.11289 -0.12327,0.22221 -0.23083,0.2743 -0.45413,0.21999 -1.17626,-0.0662 -1.15411,-0.65738 0.0291,-0.77806 1.17544,-1.3096 1.67873,-0.70468"
       id="path1178" /><path
       style="fill:none;stroke:#ffb380;stroke-width:0.3;stroke-dasharray:none"
       d="m 270.78972,125.77541 c 0.60973,0.92254 1.16472,2.05457 1.28003,3.13558"
       id="path1180" /><path
       style="fill:none;stroke:#ffb380;stroke-width:0.3;stroke-dasharray:none"
       d="m 277.07445,124.00662 c -1.46995,0.94173 -2.77305,2.6721 -1.65775,4.44562 0.84778,1.34812 2.5368,1.95117 3.9555,2.43564"
       id="path1182" /><path
       style="fill:none;stroke:#ffb380;stroke-width:0.3;stroke-dasharray:none"
       d="m 280.31647,126.39023 c 0.20341,0.97728 0.57025,2.06272 0.46167,3.08356 -0.005,0.0441 -0.0769,-0.0441 -0.11544,-0.0662"
       id="path1184" /><path
       style="fill:none;stroke:#ffb380;stroke-width:0.3;stroke-dasharray:none"
       d="m 279.44564,126.75439 c 1.35459,-0.903 0.60754,-0.57683 3.14762,-0.70941 0.21331,-0.0111 0.79513,0.0447 0.61905,0.16554 -0.14711,0.10096 -0.32878,0.13872 -0.49316,0.20809"
       id="path1186" /><path
       style="fill:none;stroke:#ffb380;stroke-width:0.3;stroke-dasharray:none"
       d="m 279.46663,127.58204 c 1.22073,0.13891 2.43056,-0.12297 3.65122,-0.12297"
       id="path1188" /><path
       style="fill:none;stroke:#ffb380;stroke-width:0.3;stroke-dasharray:none"
       d="m 278.37546,125.48219 c 1.37943,-0.20291 3.12706,0.33489 4.44862,-0.10405 0.19246,-0.0639 -0.10898,-0.42432 -0.27281,-0.54388 -0.41799,-0.30506 -0.91276,-0.46045 -1.40592,-0.58171"
       id="path1190" /><path
       style="fill:none;stroke:#ffb380;stroke-width:0.3;stroke-dasharray:none"
       d="m 284.72316,122.83846 c 0.3276,0.28612 1.80721,1.55703 1.95151,1.79244 0.5085,0.82958 0.7834,1.7814 1.17509,2.6721 m 0,0 c -0.10032,1.39713 -0.80136,2.3952 -1.95152,3.14978 -0.065,0.0426 -0.17922,0.0912 -0.23081,0.0331 -0.0477,-0.0538 0.0559,-0.13242 0.0839,-0.19863"
       id="path1192" /><path
       style="fill:none;stroke:#ffb380;stroke-width:0.3;stroke-dasharray:none"
       d="m 291.57444,126.69764 c -0.22628,0.75332 -1.31903,0.13735 -0.71345,-0.42565 0.54424,-0.50599 1.3249,-0.32391 1.16459,0.005 -0.0901,0.18485 -0.3142,0.26748 -0.45114,0.42091 -0.2172,0.2433 -0.34735,0.57086 -0.60855,0.76616 -0.0801,0.0599 -0.28919,5.8e-4 -0.28329,-0.0993 0.0524,-0.88515 0.7443,-1.51366 0.89184,-1.1918 0.0729,0.15907 0.15615,0.44603 0,0.52496 -0.62241,0.31456 -0.94795,-0.51276 -0.50361,-0.27431 0.16843,0.0904 0.33573,0.18287 0.50361,0.27431 z"
       id="path1194" /><path
       style="fill:none;stroke:#ffb380;stroke-width:0.3;stroke-dasharray:none"
       d="m 294.84794,127.98876 c 0.0391,-0.39662 0.0362,-0.82884 0.24133,-1.1918 0.38176,-0.67547 1.34001,-1.68069 2.22432,-1.24856 0.7451,0.36411 1.08744,1.0541 1.23804,1.82554 0.0371,0.18995 -0.0568,0.85472 0.16788,0.59591"
       id="path1196" /><path
       style="fill:none;stroke:#ffb380;stroke-width:0.3;stroke-dasharray:none"
       d="m 293.96661,124.54577 c 1.0899,-0.31266 2.23526,-0.26071 3.35749,-0.25539 0.0356,1.7e-4 0.81266,0.0831 0.82883,-0.1135 0.0196,-0.23902 -0.43291,-0.53222 -0.57706,-0.63847 -0.1864,-0.1374 -0.36909,-0.28107 -0.56658,-0.402 -0.31829,-0.19492 -0.76583,-0.30676 -1.07018,-0.52969 -0.1029,-0.0754 0.26183,0.008 0.37772,0.0615 1.09939,0.50588 1.29529,0.60368 2.11942,1.48503 0.06,0.0642 0.28424,0.49932 0.0839,0.57226 -0.36711,0.13366 -1.58933,-0.18289 -1.80462,-0.20337 -1.08937,-0.10364 -1.53247,-0.0292 -2.74892,0.0237 z"
       id="path1198" /><path
       style="fill:none;stroke:#ffb380;stroke-width:0.3;stroke-dasharray:none"
       d="m 303.00028,124.89101 c 1.20097,0.81249 1.76242,3.77995 -0.65053,2.93222 -2.26719,-0.79652 0.12854,-1.47884 1.17512,-1.33368"
       id="path1200" /><path
       style="fill:none;stroke:#ffb380;stroke-width:0.3;stroke-dasharray:none"
       d="m 306.95575,125.06127 c -0.26929,0.0221 -0.5466,-0.003 -0.80788,0.0662 -0.63563,0.16751 -0.93676,0.59369 -0.26231,0.9648 0.38108,0.20968 3.83731,1.39044 3.48337,1.9627 -0.48857,0.78997 -2.68258,0.52228 -3.33644,0.36416 -0.3488,-0.0844 -0.67908,-0.23985 -0.99677,-0.40673 -0.19264,-0.1012 -0.51752,-0.3495 -0.24133,-0.5155"
       id="path1202" /><path
       style="fill:none;stroke:#ffb380;stroke-width:0.3;stroke-dasharray:none"
       d="m 311.47182,125.51167 c 0.33575,0.0126 0.67143,0.0488 1.00721,0.0378 0.48747,-0.0159 0.97168,-0.0869 1.45841,-0.11824 0.37029,-0.0238 0.74113,-0.0431 1.11218,-0.0473 0.0502,-5.6e-4 0.1701,-0.0114 0.14687,0.0331 -0.11816,0.22638 -0.47617,0.18887 -0.72395,0.25065"
       id="path1204" /><path
       style="fill:none;stroke:#ffb380;stroke-width:0.3;stroke-dasharray:none"
       d="m 311.4928,126.5947 c 0.17486,0.0631 0.33898,0.17917 0.52461,0.18918 1.18428,0.0639 2.32098,-0.16739 3.50433,0.0142"
       id="path1206" /><path
       style="fill:none;stroke:#ffb380;stroke-width:0.3;stroke-dasharray:none"
       d="m 320.7258,124.13542 c 0.32174,0.6653 -0.6836,2.2404 -0.13642,2.67211"
       id="path1228" /><path
       style="fill:none;stroke:#ffb380;stroke-width:0.3;stroke-dasharray:none"
       d="m 318.91068,126.0792 c 0.78132,-0.68746 1.94424,-0.45297 2.90629,-0.43983 0.13989,-0.23489 0.19924,-0.54297 0.41968,-0.70468 0.30212,-0.22163 1.13216,-0.0498 1.32201,0.24593 0.51312,0.79932 -0.84209,1.73795 -1.21708,1.3999 -0.10355,-0.0934 -0.10001,-0.26131 -0.16789,-0.38308 -0.10749,-0.19285 -0.23781,-0.37205 -0.35672,-0.55807"
       id="path1230" /><path
       style="fill:none;stroke:#ffb380;stroke-width:0.3;stroke-dasharray:none"
       d="m 323.9888,124.57525 c 1.4809,-0.64675 1.37049,-0.70051 1.983,0.95061 0.13428,0.36195 0.40365,0.79078 0.27279,1.19181"
       id="path1232" /><path
       style="fill:none;stroke:#ffb380;stroke-width:0.3;stroke-dasharray:none"
       d="m 324.73374,125.94678 c -0.0243,-0.14504 -0.19529,-0.35272 -0.0734,-0.43511 0.38213,-0.25838 2.24641,-0.3041 2.82233,-0.35943"
       id="path1234" /><path
       style="fill:none;stroke:#ffb380;stroke-width:0.3;stroke-dasharray:none"
       d="m 328.0912,125.03401 c -0.009,-10e-4 -1.57025,-0.13984 -1.30101,0.28849 0.49498,0.78744 2.70176,0.56644 3.39942,0.36889 0.15501,-0.0439 1.01941,-0.53811 0.45116,-0.6432 -0.44611,-0.0825 -0.55142,0.65914 -0.27278,0.89386 0.14155,0.11926 0.32874,0.17026 0.4931,0.25539"
       id="path1236" /><path
       style="fill:none;stroke:#ffb380;stroke-width:0.3;stroke-dasharray:none"
       d="m 331.79491,123.79018 c 0.0385,-0.17657 0.0204,-0.37594 0.11539,-0.5297 0.0529,-0.0857 0.38581,0.26056 0.62952,0.60064 0.50988,0.71151 0.92993,1.45341 1.48987,2.13295"
       id="path1238" /><path
       style="fill:none;stroke:#ffb380;stroke-width:0.3;stroke-dasharray:none"
       d="m 338.60423,123.18009 c -0.35674,0.17341 -0.74935,0.287 -1.07019,0.52023 -1.47357,1.07118 1.21656,2.47849 1.75215,1.77825"
       id="path1244" /><path
       style="fill:none;stroke:#ffb380;stroke-width:0.3;stroke-dasharray:none"
       d="m 339.9367,123.79018 c 0.19238,0.20494 0.34218,0.46045 0.57708,0.61482 0.64458,0.42362 1.90645,0.47433 2.49708,-0.10405 0.28649,-0.28053 0.0456,-0.6241 -0.18883,-0.74251 -0.19865,-0.10033 -0.41968,-0.14819 -0.62952,-0.22228 0.36023,-0.19706 0.685,-0.48151 1.08068,-0.59118 0.34149,-0.0946 1.67407,0.93199 1.83611,0.64793 0.34554,-0.60574 -0.72946,-0.78697 0.23081,-1.28167"
       id="path1246" /><path
       style="fill:none;stroke:#ffb380;stroke-width:0.3;stroke-dasharray:none"
       d="m 346.30538,121.09915 c 0.48961,0.2291 1.68275,1.77024 1.2066,2.32213"
       id="path1248" /><path
       style="fill:none;stroke:#ffb380;stroke-width:0.3;stroke-dasharray:none"
       d="m 322.20517,130.62887 c -0.92729,0.19736 -2.5517,-0.41297 -1.5738,-1.55597 0.71393,-0.83443 2.23486,-0.31993 2.70693,0.52023 0.41174,0.73279 -1.08704,1.63412 -1.13313,1.03574 -0.0217,-0.28135 0.37772,-0.41934 0.56655,-0.62901"
       id="path1250" /><path
       style="fill:none;stroke:#ffb380;stroke-width:0.3;stroke-dasharray:none"
       d="m 325.00655,128.48173 c -1.01603,1.14162 0.91964,-0.67997 0.83934,-0.38308 -0.16137,0.59676 -0.51435,-0.0844 -0.83934,0.38308 -0.33533,0.48232 -0.18354,1.07131 0.23082,1.39517 0.66252,0.51781 1.26736,0.39775 1.84658,0.70941 0.0886,0.0477 -0.18391,0.0884 -0.28326,0.10404"
       id="path1252" /><path
       style="fill:none;stroke:#ffb380;stroke-width:0.3;stroke-dasharray:none"
       d="m 324.48193,130.40659 c 0.85178,-0.373 1.86209,-0.69428 2.81189,-0.51077"
       id="path1254" /><path
       style="fill:none;stroke:#ffb380;stroke-width:0.3;stroke-dasharray:none"
       d="m 332.62377,129.28573 c -0.0909,-0.14031 -0.13017,-0.33367 -0.27281,-0.42092 -0.50546,-0.30923 -1.5422,1.51307 -0.0839,1.81135 0.50867,0.10405 1.15819,-0.0756 1.56329,-0.37834 0.0926,-0.0692 0.74277,-0.86834 0.27282,-1.04047 -0.15965,-0.0585 0.12451,0.32579 0.24132,0.44929 0.19061,0.2015 0.39915,0.38562 0.60854,0.56753 0.39453,0.34274 0.94875,0.59322 1.18558,1.06884"
       id="path1256" /><path
       style="fill:none;stroke:#ffb380;stroke-width:0.3;stroke-dasharray:none"
       d="m 339.83179,128.48173 c -0.29102,-0.64064 -1.1715,-0.0749 -0.7869,0.20336 0.51747,0.37437 2.79535,1.03657 2.56006,1.86811 -0.13907,0.4915 -2.24137,1.59759 -1.94104,0.1277"
       id="path1258" /><path
       style="fill:none;stroke:#ffb380;stroke-width:0.3;stroke-dasharray:none"
       d="m 342.05611,128.78441 c 0.74129,1.06021 1.16052,1.00483 2.43415,0.81346 0.0198,-0.003 0.96284,-0.12646 1.08069,-0.43038 0.1252,-0.32296 -0.68165,-0.7764 -0.84987,-0.92223 0.4022,0.0315 0.81386,0.002 1.2066,0.0946 0.13358,0.0314 0.86594,0.40536 1.10165,0.56752 0.027,0.0186 0.0952,0.0817 0.063,0.0757 -0.58382,-0.10965 -0.59165,-0.91805 -0.15738,-1.21072 0.28379,-0.19126 0.84622,-0.32423 1.20657,-0.42091"
       id="path1260" /><path
       style="fill:none;stroke:#ffb380;stroke-width:0.3;stroke-dasharray:none"
       d="m 348.90742,127.25682 c 0.26874,-0.0222 0.72652,-0.0542 0.99671,-0.0993 0.0303,-0.005 0.11335,-0.029 0.084,-0.0378 -0.84931,-0.25524 -2.48359,0.64604 -1.9935,1.66947 0.2208,0.46103 0.73073,0.64295 1.12266,0.90331"
       id="path1262" /><path
       style="fill:none;stroke:#ffb380;stroke-width:0.3;stroke-dasharray:none"
       d="m 347.71132,129.37085 c -2.59421,-0.52433 2.32812,-0.99494 2.60202,-1.04046 0.5556,-0.0923 0.94377,-0.15604 0.91281,-0.29795 -0.0193,-0.0882 -0.14303,-0.12077 -0.23085,-0.14188 -0.23286,-0.056 -0.47678,-0.12195 -0.71345,-0.0851 -0.62494,0.0972 -1.14525,1.06404 -0.17835,1.14451 0.29358,0.0244 0.59187,-0.0114 0.88132,-0.0662 0.26348,-0.0499 0.5225,-0.1335 0.76592,-0.24593 0.1874,-0.0865 0.35025,-0.21969 0.51411,-0.34525 0.0819,-0.0628 0.12372,-0.18126 0.22035,-0.21755 0.0779,-0.0293 -0.1092,0.12603 -0.15738,0.19391 -0.12263,0.17274 -0.43196,0.58465 -0.49313,0.84656 -0.0852,0.36485 0.31568,0.27646 0.51411,0.23174"
       id="path1264" /><path
       style="fill:none;stroke:#ffb380;stroke-width:0.3;stroke-dasharray:none"
       d="m 353.45045,127.5926 c -0.78425,-0.10776 -0.56605,0.33006 -0.0106,0.54388 0.27924,0.10748 0.57692,0.16161 0.87085,0.21755 0.2664,0.0507 0.74334,0.088 1.01771,-0.005 0.20805,-0.0703 0.7623,-0.92656 0.44067,-1.04047 -0.74594,-0.26417 -2.40276,0.32251 -2.86435,0.49659 -0.145,0.0547 -0.40294,0.18195 -0.33573,0.32159 0.37287,0.77477 1.60493,0.7177 2.27676,0.67631 0.21849,-0.0135 0.46826,0.0314 0.65053,-0.0899 0.0932,-0.062 -0.007,-0.22386 -0.0106,-0.33579"
       id="path1266" /><path
       style="fill:none;stroke:#ffb380;stroke-width:0.3;stroke-dasharray:none"
       d="m 261.36259,143.78765 c 0.0353,0.77835 0.12126,1.55227 0.19936,2.32686 0.0418,0.4149 0.17355,0.86842 0.042,0.69049"
       id="path1268" /><path
       style="fill:none;stroke:#ffb380;stroke-width:0.3;stroke-dasharray:none"
       d="m 260.4288,143.80184 c 1.03833,-0.61062 2.21832,-0.71848 3.39944,-0.75197 0.215,-0.006 0.57801,-0.067 0.6295,0.14188 0.0268,0.10881 -0.21328,0.0805 -0.32525,0.0851"
       id="path1270" /><path
       style="fill:none;stroke:#ffb380;stroke-width:0.3;stroke-dasharray:none"
       d="m 262.05509,143.85859 c 0.15946,0.5632 -0.97753,0.19432 -1.07022,0.59118 -0.022,0.0944 0.18632,0.0674 0.28329,0.0662 1.37464,-0.0163 2.74661,-0.2345 4.1129,-0.36416"
       id="path1272" /><path
       style="fill:none;stroke:#ffb380;stroke-width:0.3;stroke-dasharray:none"
       d="m 260.35538,142.24114 c 1.17591,-0.0967 2.36841,-0.0658 3.54629,0.005 0.0311,0.002 0.65029,0.0553 0.64002,0.0378 -0.18031,-0.30705 -1.47082,-0.91212 -1.75217,-1.04993 -0.15733,-0.0771 -0.31563,-0.15512 -0.48263,-0.20809 -0.0281,-0.009 -0.10589,0.009 -0.084,0.0284 0.0795,0.0717 0.18886,0.10089 0.28329,0.15134"
       id="path1274" /><path
       style="fill:none;stroke:#ffb380;stroke-width:0.3;stroke-dasharray:none"
       d="m 272.88287,142.8465 c -1.27183,-0.47749 0.0188,-0.65431 0.0734,-0.47766 0.0476,0.1539 -0.049,0.31844 -0.0734,0.47766 z"
       id="path1276" /><path
       style="fill:none;stroke:#ffb380;stroke-width:0.3;stroke-dasharray:none"
       d="m 272.70448,143.82076 c -0.068,0.58401 0.41339,1.61952 1.11215,1.41409"
       id="path1278" /><path
       style="fill:none;stroke:#ffb380;stroke-width:0.3;stroke-dasharray:none"
       d="m 275.31701,143.7309 c 0.0382,-0.82712 -0.10573,-0.62991 0.69249,-0.23174 0.45987,0.2294 1.48408,0.64211 1.8256,1.11614 0.15878,0.22041 -0.3252,0.48456 -0.83936,0.61482 -0.87623,0.22198 -1.33014,-0.11578 -1.89908,-0.71414"
       id="path1280" /><path
       style="fill:none;stroke:#ffb380;stroke-width:0.3;stroke-dasharray:none"
       d="m 282.21028,143.26742 c -1.36695,-0.6089 -2.58525,1.0851 -0.47215,0.76143 0.15536,-0.0238 0.36832,-0.004 0.45116,-0.13715 0.10973,-0.17695 -0.1869,-0.61274 0.0209,-0.62428 0.29408,-0.0163 0.41859,0.41912 0.66101,0.58645 0.37097,0.25605 0.8695,0.4384 1.31151,0.54388"
       id="path1282" /><path
       style="fill:none;stroke:#ffb380;stroke-width:0.3;stroke-dasharray:none"
       d="m 285.4733,142.58639 c 0.47168,-0.45394 1.63039,1.37407 1.80462,1.26748 0.24437,-0.14948 -0.31049,-1.11528 -0.26228,-1.26748 0.0346,-0.10937 0.22384,0.0505 0.33573,0.0757 0.43627,0.0983 0.64219,0.14715 1.09117,0.17972 1.25388,0.0909 0.70929,-0.61627 0.042,-0.35471 -0.39463,0.15468 -0.64339,0.57784 -0.0209,0.75198 0.26987,0.0755 0.55959,0.0315 0.83936,0.0473"
       id="path1284" /><path
       style="fill:none;stroke:#ffb380;stroke-width:0.3;stroke-dasharray:none"
       d="m 290.43604,142.47289 c 0.68347,-0.77366 -0.71472,-0.14186 -0.54557,-0.071 0.16912,0.0709 0.41018,-0.0528 0.54557,0.071 0.17015,0.15544 0.0996,0.46615 0.24133,0.64792 0.0898,0.1152 0.90733,0.555 1.01772,0.33106"
       id="path1286" /><path
       style="fill:none;stroke:#ffb380;stroke-width:0.3;stroke-dasharray:none"
       d="m 292.08328,141.80604 c 0.2472,0.10709 1.28963,1.51894 1.17512,1.62218 -0.052,0.0469 -0.13991,-0.006 -0.20986,-0.009"
       id="path1288" /><path
       style="fill:none;stroke:#ffb380;stroke-width:0.3;stroke-dasharray:none"
       d="m 291.9049,142.8134 c -0.0209,-0.16238 -0.16595,-0.35988 -0.0629,-0.48713 0.26935,-0.33269 1.59541,-0.18735 2.00396,-0.0899 m 0,0 c -0.67868,-0.76221 0.16558,-1.1307 0.17836,-0.75666 0.0191,0.55896 -0.72033,1.66105 0.5141,-0.0142 0.16749,-0.2273 0.22907,-0.74687 0.50363,-0.68104 0.35843,0.0859 0.74333,0.93558 0.88132,1.21546 0.0687,0.13943 0.13068,0.28416 0.16789,0.4351 0.0129,0.0525 -7.6e-4,0.21093 -0.021,0.1608 -0.27212,-0.67457 -0.1184,-1.51951 0.55606,-1.92486 0.10492,-0.0631 0.24481,-0.003 0.36722,-0.005"
       id="path1290" /><path
       style="fill:none;stroke:#ffb380;stroke-width:0.3;stroke-dasharray:none"
       d="m 303.37271,140.05617 c -0.19934,-0.13085 -0.36745,-0.33182 -0.59804,-0.39254 -0.15325,-0.0404 -0.32221,0.0382 -0.46164,0.1135 -0.65995,0.3564 -0.99476,0.89527 -0.80791,1.65056 0.0919,0.37163 0.37992,0.75122 0.56661,1.08776"
       id="path1292" /><path
       style="fill:none;stroke:#ffb380;stroke-width:0.3;stroke-dasharray:none"
       d="m 300.44544,141.72091 c 0.70805,-0.3387 1.30797,-0.24282 2.02499,-0.0567"
       id="path1294" /><path
       style="fill:none;stroke:#ffb380;stroke-width:0.3;stroke-dasharray:none"
       d="m 303.61404,141.7824 c -0.12129,-0.0262 0.74297,-0.36301 0.59803,-0.62429 0.004,-0.26327 -0.0838,-0.54397 0.0105,-0.7898 0.0175,-0.0457 0.49267,0.0699 0.52461,0.0757 0.44633,0.0812 0.88188,0.0719 1.33248,0.0804 0.3,0.006 -1.4073,0.11665 -1.00723,0.57698 0.47579,0.54745 2.13713,0.35911 2.4971,0.3216 0.13387,-0.0139 0.23783,-0.12612 0.35674,-0.18917"
       id="path1296" /><path
       style="fill:none;stroke:#ffb380;stroke-width:0.3;stroke-dasharray:none"
       d="m 307.50656,139.82443 c 0.5801,0.36799 0.74258,1.09599 1.1961,1.55597"
       id="path1298" /><path
       style="fill:none;stroke:#ffb380;stroke-width:0.3;stroke-dasharray:none"
       d="m 308.97547,139.12921 c 0.70824,-0.0542 0.60243,-0.17453 1.20658,0.48712 0.31136,0.34098 0.65953,0.67668 0.83937,1.10195 0.31927,0.75496 -1.73676,0.58773 -1.983,0.42565 -0.88477,-0.58241 -0.10568,-0.89059 0.34623,-1.00263 0.19013,-0.0471 0.39172,0.006 0.58756,0.009"
       id="path1300" /><path
       style="fill:none;stroke:#ffb380;stroke-width:0.3;stroke-dasharray:none"
       d="m 261.478,155.87597 c 0.042,-0.34997 0.0351,-0.70935 0.12592,-1.04992 0.0933,-0.34965 0.50797,-0.79683 0.58756,-0.73779 0.10152,0.0753 1.91548,1.62984 1.56332,1.69785"
       id="path1302" /><path
       style="fill:none;stroke:#ffb380;stroke-width:0.3;stroke-dasharray:none"
       d="m 259.7993,152.77822 c 1.01074,-0.0665 2.02163,0.0526 3.03218,0.0851 0.28726,0.009 0.65209,0.0246 0.6505,0.005 -0.003,-0.0403 -1.73939,-1.09167 -1.95151,-1.19654 -0.25516,-0.12615 -0.1864,-0.0172 0.11541,0.10878"
       id="path1304" /><path
       style="fill:none;stroke:#ffb380;stroke-width:0.3;stroke-dasharray:none"
       d="m 269.57785,152.95321 c -0.27712,-0.59056 -0.0784,-0.6996 0,0 z"
       id="path1306" /><path
       style="fill:none;stroke:#ffb380;stroke-width:0.3;stroke-dasharray:none"
       d="m 269.58835,154.25852 c -0.0823,0.20184 0.2711,1.84317 0.60855,1.70258 0.19994,-0.0833 0.32176,-0.29007 0.48262,-0.4351"
       id="path1308" /><path
       style="fill:none;stroke:#ffb380;stroke-width:0.3;stroke-dasharray:none"
       d="m 271.60284,153.61532 c -0.46617,-0.33786 -0.91403,-0.42965 0,0 1.83441,0.86231 -0.0262,0.0497 1.97249,0.73779 0.29332,0.10097 0.6028,0.18182 0.86035,0.3547 0.4304,0.2889 -0.23603,0.53578 -0.53509,0.63374 -0.6704,0.21959 -1.73842,0.35971 -2.31873,-0.18918 -0.0765,-0.0724 -0.049,-0.20494 -0.0734,-0.30741"
       id="path1310" /><path
       style="fill:none;stroke:#ffb380;stroke-width:0.3;stroke-dasharray:none"
       d="m 277.64624,152.69309 c 0.14168,0.79298 0.52491,1.49185 0.91281,2.18498 0.0793,0.14177 0.34351,0.49907 0.18886,0.44929"
       id="path1312" /><path
       style="fill:none;stroke:#ffb380;stroke-width:0.3;stroke-dasharray:none"
       d="m 277.00621,154.50445 c 0.59391,-0.44031 1.33223,-0.22456 1.99351,-0.43984 0.21571,-0.0702 0.60735,-0.2152 0.56657,-0.53915 -0.0156,-0.12448 -0.2191,-0.43871 -0.12591,-0.3547 0.19145,0.1726 1.62991,1.57869 1.64727,1.57961 0.1198,0.006 0.29564,-1.24182 0.32522,-1.39044 0.004,-0.0198 0.003,-0.064 0.0209,-0.0567 0.42703,0.16497 0.63907,0.59981 1.16461,0.61955 0.25686,0.01 0.51951,-0.0166 0.76592,-0.0899 0.17817,-0.053 0.47617,-0.48349 0.14687,-0.59117 -0.25157,-0.0823 -1.15573,-0.0111 -1.10167,0.41619 0.0901,0.71187 2.72568,1.09634 3.30501,0.81345"
       id="path1314" /><path
       style="fill:none;stroke:#ffb380;stroke-width:0.3;stroke-dasharray:none"
       d="m 286.61694,152.66472 c 0.2518,0.003 0.53292,-0.10848 0.75541,0.009 0.22376,0.11861 0.84259,1.51818 0.67149,1.55124 -0.30189,0.0583 0.29223,-1.75467 1.08071,-1.57962 0.49369,0.10961 0.81053,1.01682 0.95475,1.01682"
       id="path1316" /><path
       style="fill:none;stroke:#ffb380;stroke-width:0.3;stroke-dasharray:none"
       d="m 291.6741,153.43561 c -0.78912,0.43979 -1.14691,-1.09423 -0.2518,-1.06412 0.47384,0.0159 0.85542,0.63791 0.90231,1.05466 0.0826,0.7338 -0.047,0.0831 -0.12589,0.22228"
       id="path1318" /><path
       style="fill:none;stroke:#ffb380;stroke-width:0.3;stroke-dasharray:none"
       d="m 292.37705,152.03571 c 0.26231,0.0836 0.53594,0.13753 0.78692,0.25065 0.10885,0.0491 0.64093,0.37677 0.81839,0.54861 0.0281,0.0273 0.0987,0.11543 0.0629,0.0993 -0.62537,-0.28189 -0.24424,-1.36983 0.19934,-1.62691"
       id="path1320" /><path
       style="fill:none;stroke:#ffb380;stroke-width:0.3;stroke-dasharray:none"
       d="m 294.97909,151.08983 c 0.17836,0.11981 0.38841,0.20241 0.5351,0.35943 0.14086,0.15081 0.2046,0.35846 0.30427,0.53915 0.25299,0.4586 0.18904,0.83571 0.33573,0.402 0.061,-0.18034 0.35052,-1.13514 0.68199,-1.13032 0.21037,0.003 0.35901,1.1934 0.38819,1.17762 0.15293,-0.0827 1.41463,-1.46357 1.5843,-0.83711 0.0808,0.29845 0.0624,0.6173 0.13642,0.9175"
       id="path1322" /><path
       style="fill:none;stroke:#ffb380;stroke-width:0.3;stroke-dasharray:none"
       d="m 299.39623,151.57223 c 0.0944,0.15291 0.12105,0.38143 0.28329,0.45875 0.32539,0.15505 0.94718,-0.40771 1.11215,-0.63847 0.041,-0.0573 0.1039,-0.25901 0.0944,-0.18918 -0.0792,0.58285 -0.0404,1.14797 0.65051,1.2864"
       id="path1324" /><path
       style="fill:none;stroke:#ffb380;stroke-width:0.3;stroke-dasharray:none"
       d="m 301.48414,150.17706 c 0.60275,0.29139 1.33022,1.13045 1.36398,1.81608"
       id="path1326" /><path
       style="fill:none;stroke:#ffb380;stroke-width:0.3;stroke-dasharray:none"
       d="m 307.46462,151.22225 c -0.1434,0.14188 -0.25056,0.33382 -0.43016,0.42565 -0.12776,0.0653 -0.29141,0.0506 -0.43018,0.0142 -0.9493,-0.24916 -0.79426,-1.95904 0.0315,-1.91541 0.30086,0.0159 1.3511,0.25342 1.22754,0.89386 -0.0445,0.23082 -0.26578,0.38781 -0.39868,0.58171 z"
       id="path1328" /><path
       style="fill:none;stroke:#ffb380;stroke-width:0.3;stroke-dasharray:none"
       d="m 309.4581,149.32577 c -0.20635,-0.0347 -0.4513,-0.22916 -0.61902,-0.10405 -1.95763,1.46028 1.25947,1.90523 1.4374,2.27957 0.0183,0.0384 -0.0608,0.0356 -0.34623,0.0473"
       id="path1330" /><path
       style="fill:none;stroke:#ffb380;stroke-width:0.3;stroke-dasharray:none"
       d="m 308.13611,151.20333 c 0.87389,-0.41336 1.59078,-0.54241 2.50759,-0.33578"
       id="path1332" /><path
       style="fill:none;stroke:#ffb380;stroke-width:0.3;stroke-dasharray:none"
       d="m 314.08508,148.49812 c -0.0629,-0.20967 -0.0479,-0.4615 -0.18883,-0.62901 -0.0576,-0.0685 -0.18315,0.13183 -0.1574,0.21756 0.0515,0.17168 0.28598,0.24264 0.34623,0.41145 0.12372,0.3466 0.055,0.74495 0.18889,1.08776 0.0305,0.0781 0.74697,0.73243 0.58753,0.96007"
       id="path1334" /><path
       style="fill:none;stroke:#ffb380;stroke-width:0.3;stroke-dasharray:none"
       d="m 313.23524,149.7656 c 0.18886,-0.19706 0.34202,-0.43603 0.56658,-0.59118 0.19298,-0.13333 1.31069,-0.43128 1.57379,-0.13242 0.18709,0.21253 0.36222,1.04083 0.62952,1.11614 0.25369,0.0715 0.34092,-0.24194 0.35672,-0.39254 0.0172,-0.16477 -0.0148,-0.33103 -0.0209,-0.49659 0,-0.0205 -0.019,-0.0687 0,-0.0615 0.23091,0.0867 1.96898,1.12635 1.75221,0.23174 -0.17955,-0.7408 -3.03888,0.0877 -0.98629,0.78981 0.28496,0.0975 0.58351,0.15417 0.88135,0.19864 0.33822,0.0505 0.956,0.1142 1.32199,0"
       id="path1336" /><path
       style="fill:none;stroke:#ffb380;stroke-width:0.3;stroke-dasharray:none"
       d="m 262.73705,158.9217 c -0.33573,0.0709 -0.6817,0.10427 -1.00722,0.21282 -1.81935,0.60664 1.35213,0.83344 1.79412,1.16816 0.62547,0.47365 -0.54946,1.26708 -0.94428,1.03574 -0.13668,-0.0801 -0.19584,-0.24909 -0.29376,-0.37363"
       id="path1338" /><path
       style="fill:none;stroke:#ffb380;stroke-width:0.3;stroke-dasharray:none"
       d="m 263.39806,159.89595 c 0.24217,0.87534 4.73501,0.72946 2.40268,-0.44929 0.27629,-0.0315 0.55592,-0.14779 0.82887,-0.0946 0.27018,0.0527 0.48878,0.25422 0.72395,0.39727 1.53339,0.93277 -1.62931,0.0698 -0.0105,-0.9175"
       id="path1340" /><path
       style="fill:none;stroke:#ffb380;stroke-width:0.3;stroke-dasharray:none"
       d="m 269.36801,158.36836 c -0.61553,0.33922 -1.27979,0.84344 -0.60852,1.55597 0.31261,0.33183 0.77859,0.50628 1.19608,0.65265 0.90088,0.31583 0.42169,0.1034 0.28329,0.0757"
       id="path1342" /><path
       style="fill:none;stroke:#ffb380;stroke-width:0.3;stroke-dasharray:none"
       d="m 267.90963,160.26484 c 0.97329,-0.4015 2.02954,-0.38915 3.0322,-0.69049 0.0769,0.2412 0.006,0.60729 0.23083,0.7236 0.25775,0.1333 1.2243,-0.44696 1.39544,-0.58171 0.19754,-0.15555 0.29264,-0.44142 0.11541,-0.41146 -0.24211,0.0409 -0.42174,0.68608 -0.25181,0.85129 0.1227,0.11928 0.32176,0.11665 0.48263,0.17498"
       id="path1344" /><path
       style="fill:none;stroke:#ffb380;stroke-width:0.3;stroke-dasharray:none"
       d="m 273.50189,159.06358 c -0.19585,-0.0646 -0.38132,-0.19499 -0.58756,-0.19391 -0.43241,0.002 -0.36764,0.48933 -0.28329,0.72833 0.24222,0.68625 1.00409,1.0008 1.65774,1.12559 0.30203,0.0577 0.26414,0.0805 0.32526,-0.0757 0.47564,-0.3074 0.9348,-0.64194 1.42692,-0.9222 0.17101,-0.0974 0.67958,-0.15997 0.80789,-0.41145 0.35228,-0.69042 -2.53404,-0.92532 -1.93053,0.55333 0.46197,1.13187 2.49881,0.5957 3.07417,-0.009"
       id="path1346" /><path
       style="fill:none;stroke:#ffb380;stroke-width:0.3;stroke-dasharray:none"
       d="m 261.20522,144.28424 c 0,-0.14188 -0.022,-0.28546 0,-0.42565 0.0169,-0.10934 0.11403,-0.19429 0.13639,-0.30267 0.0319,-0.15438 -0.0677,-0.33939 -0.0629,-0.29796 0.0437,0.38406 -0.24146,3.29359 0.11541,3.5234 0.0559,0.036 0.061,-0.12275 0.0629,-0.18918 0.009,-0.30415 0.0435,-0.61029 0.0106,-0.91277 -0.55626,-5.09814 -0.21042,1.0722 -0.10493,-2.20862 0.004,-0.12692 -0.22032,-0.1685 -0.22032,-0.26958 0,-0.0377 0.0677,0.0361 0.10491,0.0426 0.13869,0.0242 0.27898,0.0426 0.41968,0.0473 0.76055,0.0254 1.30546,-0.0638 2.10892,-0.16553 0.95064,-0.12035 1.88576,-0.30709 2.82236,-0.50605 0.006,-0.001 0.43188,-0.13957 0.4931,-0.0568 0.0342,0.0463 -0.10226,0.0544 -0.15737,0.0709"
       id="path1348" /><path
       style="fill:none;stroke:#ffb380;stroke-width:0.3;stroke-dasharray:none"
       d="m 260.95341,144.8092 c 1.39166,-0.19489 2.79292,-0.31185 4.18632,-0.49658 1.97596,-0.26197 1.22253,-0.33415 2.04594,-0.23647"
       id="path1350" /><path
       style="fill:none;stroke:#ffb380;stroke-width:0.3;stroke-dasharray:none"
       d="m 259.25733,169.05094 c 1.24841,0.40925 1.22335,0.19111 2.00398,1.14451 1.71545,2.09505 -1.17375,2.69944 -2.59152,1.91067 -0.84783,-0.47168 -0.10345,-1.02109 0.49311,-1.13978 0.27448,-0.0546 0.55959,-0.0126 0.83936,-0.0189"
       id="path1384" /><path
       style="fill:none;stroke:#ffb380;stroke-width:0.3;stroke-dasharray:none"
       d="m 264.08367,169.56644 c -0.20635,-0.005 -0.41777,-0.06 -0.61902,-0.0142 -0.0603,0.0137 -0.74686,0.24036 -0.49313,0.55806 0.39643,0.49637 3.11878,1.05414 2.71743,1.8823 -0.36634,0.75593 -2.48584,0.3914 -2.94828,0.15134 -0.83706,-0.43456 -0.74996,-0.46963 -0.5036,-0.74724"
       id="path1386" /><path
       style="fill:none;stroke:#ffb380;stroke-width:0.3;stroke-dasharray:none"
       d="m 268.24901,172.09667 c -0.23553,-0.77875 0.45699,-2.14697 1.21708,-2.17553 0.6118,-0.023 1.41801,1.2133 1.76265,1.72623 0.006,0.009 0.45646,0.63333 0.12592,0.52496"
       id="path1388" /><path
       style="fill:none;stroke:#ffb380;stroke-width:0.3;stroke-dasharray:none"
       d="m 267.30474,168.75299 c 1.60078,0.0541 0.0434,-0.0172 2.01445,0.1466 0.63249,0.0526 1.26582,0.0947 1.89908,0.13716 0.53284,0.0358 0.84984,0.0812 0.84984,-0.009 0,-0.38569 -1.34136,-0.79512 -1.62626,-0.86547 -0.37875,-0.0935 -0.7869,-0.15125 -0.7869,-0.18445 0,-0.0149 0.19489,0.008 0.50361,0.11823 0.18076,0.0647 1.934,0.74257 1.66825,1.01209 -0.12602,0.12781 -0.92747,-0.004 -1.01775,-0.009 -0.78271,-0.0454 -1.57191,5e-5 -2.35021,-0.0946 -0.39079,-0.0475 -0.76941,-0.16711 -1.15411,-0.25066 z"
       id="path1390" /><path
       style="fill:none;stroke:#ffb380;stroke-width:0.3;stroke-dasharray:none"
       d="m 280.00011,168.90433 c -0.0976,-0.006 -0.67041,0.0476 -0.74494,-0.21283 -0.0729,-0.25477 0.6812,-0.83257 0.75541,-0.44456 0.0412,0.21526 -0.006,0.43828 -0.0106,0.65739 z"
       id="path1392" /><path
       style="fill:none;stroke:#ffb380;stroke-width:0.3;stroke-dasharray:none"
       d="m 279.71682,170.11505 c -0.55327,0.24471 0.0323,1.69593 0.29376,1.65528 0.166,-0.0258 0.2798,-0.18602 0.41969,-0.27903"
       id="path1394" /><path
       style="fill:none;stroke:#ffb380;stroke-width:0.3;stroke-dasharray:none"
       d="m 282.25589,169.46239 c -0.1738,-0.20593 -1.20536,0.1449 -0.74493,0.35944 0.46008,0.21437 1.422,0.26691 1.87806,0.33578 0.28075,0.0424 1.33538,0.15522 1.43743,0.41146 0.15772,0.39612 -2.82038,1.73265 -3.47287,0.36889"
       id="path1396" /><path
       style="fill:none;stroke:#ffb380;stroke-width:0.3;stroke-dasharray:none"
       d="m 289.15964,170.51705 c -0.18537,0.0426 -0.37148,0.17345 -0.55608,0.12769 -0.26829,-0.0665 -0.54761,-0.21121 -0.70297,-0.43983 -1.16787,-1.71882 2.12728,-1.22735 1.68923,-0.17972 -0.084,0.20095 -0.28678,0.32791 -0.43018,0.49186 z"
       id="path1398" /><path
       style="fill:none;stroke:#ffb380;stroke-width:0.3;stroke-dasharray:none"
       d="m 292.03447,168.7388 c -1.21616,0.38337 -0.95454,0.86958 -0.20984,1.60326 0.1674,0.16493 0.40155,0.2761 0.51411,0.4824 0.0392,0.0719 -0.13888,0.10013 -0.22035,0.10877"
       id="path1400" /><path
       style="fill:none;stroke:#ffb380;stroke-width:0.3;stroke-dasharray:none"
       d="m 290.83836,170.24275 c 0.68586,-0.26984 1.41656,-0.35181 2.1299,-0.51551"
       id="path1402" /><path
       style="fill:none;stroke:#ffb380;stroke-width:0.3;stroke-dasharray:none"
       d="m 294.46863,168.92797 c 0.1364,0.0536 0.30517,0.0575 0.40918,0.1608 0.21807,0.21653 0.87601,1.35749 0.70297,1.66947"
       id="path1404" /><path
       style="fill:none;stroke:#ffb380;stroke-width:0.3;stroke-dasharray:none"
       d="m 294.27975,170.011 c 0.80862,-0.27906 0.50342,-0.23144 1.33249,-0.29795 0.32682,-0.0262 0.6414,0.0309 0.92329,-0.17499 0.0325,-0.0237 0.36955,-0.4389 0.1574,-0.52496 -0.55451,-0.22494 -0.65087,1.33271 -0.24132,1.7215 0.63338,0.60123 0.91548,-0.0786 0.88132,-0.55807 -0.0119,-0.16729 -0.0839,-0.32475 -0.12589,-0.48713"
       id="path1406" /><path
       style="fill:none;stroke:#ffb380;stroke-width:0.3;stroke-dasharray:none"
       d="m 297.21752,168.99418 c 0.12242,0.17026 0.244,0.34111 0.36724,0.51078 0.0691,0.0952 0.14362,0.18652 0.20982,0.28376 0.17909,0.263 0.0907,0.27959 0.1679,0.0236 0.0486,-0.16113 0.22223,-0.80809 0.54557,-0.69995 0.5796,0.19383 0.89162,0.82871 1.44788,1.01682"
       id="path1408" /><path
       style="fill:none;stroke:#ffb380;stroke-width:0.3;stroke-dasharray:none"
       d="m 301.70814,167.7409 c 0.26236,0.41189 0.71591,1.46611 1.34297,1.46611 0.36928,0 0.55287,-0.5462 0.89183,-0.54388 0.36904,0.003 0.6436,0.66612 1.0387,0.5486 0.79192,-0.23552 1.14702,-1.12829 0.3882,-1.59853"
       id="path1410" /><path
       style="fill:none;stroke:#ffb380;stroke-width:0.3;stroke-dasharray:none"
       d="m 305.61116,166.91325 c 0.16786,-0.008 0.3415,-0.0679 0.50361,-0.0237 0.63587,0.17377 1.40314,0.66756 1.79414,1.21546 0.0696,0.0976 0.10758,0.38003 -0.0106,0.35943 -0.38812,-0.0677 -0.44432,-0.98331 -0.042,-0.9648 0.12081,0.006 0.21683,0.1072 0.32526,0.1608"
       id="path1412" /><path
       style="fill:none;stroke:#ffb380;stroke-width:0.3;stroke-dasharray:none"
       d="m 309.33584,168.14762 c 0.5471,-0.23894 0.52612,-0.37497 0.13639,-0.73305 0.0374,-0.92092 0.0289,-1.29101 0.69248,-1.7546 0.54057,0.83449 1.34836,1.50148 1.88857,2.33632 0.0143,0.022 -0.049,0.0189 -0.0734,0.0284"
       id="path1414" /><path
       style="fill:none;stroke:#ffb380;stroke-width:0.3;stroke-dasharray:none"
       d="m 310.99356,167.31998 c 0.45106,0.0504 1.26341,0.17538 1.78366,0.14188 0.1356,-0.009 1.61594,-0.37639 0.99674,-0.72833 -0.33875,-0.19252 -0.97946,0.003 -1.09117,0.402 -0.25056,0.89451 1.17287,1.38625 1.81512,1.13979 0.12515,-0.048 0.21685,-0.15765 0.32525,-0.23647"
       id="path1416" /><path
       style="fill:none;stroke:#ffb380;stroke-width:0.3;stroke-dasharray:none"
       d="m 314.71825,166.43086 c 0.28329,0.28061 0.57412,0.5538 0.84985,0.84183 0.22553,0.23556 0.30472,0.42642 0.34623,0.40672 0.18066,-0.0857 0.35287,-0.93941 0.95477,-1.21072 0.17341,-0.0782 1.16928,1.20943 1.51085,1.37625"
       id="path1418" /><path
       style="fill:none;stroke:#ffb380;stroke-width:0.3;stroke-dasharray:none"
       d="m 322.11513,166.32681 c -0.042,-0.15922 0.023,-0.4074 -0.12589,-0.47767 -0.37602,-0.17743 -1.76752,0.7477 -1.15411,1.70731 0.30268,0.47355 2.18673,-0.26807 2.56003,-0.51078 0.11882,-0.0772 0.21643,-0.18863 0.29377,-0.3074 0.0919,-0.1411 -0.0995,-0.17209 -0.16786,-0.14188 -0.36279,0.16026 -1.1753,1.24218 -0.35673,1.37152 0.24558,0.0388 0.49662,-0.0252 0.74493,-0.0378"
       id="path1420" /><path
       style="fill:none;stroke:#ffb380;stroke-width:0.3;stroke-dasharray:none"
       d="m 324.85357,166.00521 c 0.38121,0.0851 0.78025,0.11208 1.14361,0.25539 1.71005,0.67447 -0.22196,2.23122 -1.21709,1.7215 -0.19621,-0.10052 -0.20984,-0.38781 -0.31474,-0.58172"
       id="path1422" /><path
       style="fill:none;stroke:#ffb380;stroke-width:0.3;stroke-dasharray:none"
       d="m 331.46355,164.94583 c 0.4268,0.54137 0.51689,0.64079 0.92329,1.22018 0.0859,0.12243 0.61817,0.81063 0.59806,1.09722 -0.0599,0.85371 -2.00258,0.24062 -2.29777,0.0567 -0.96189,-0.59912 0.528,-0.85013 0.88133,-0.86075"
       id="path1424" /><path
       style="fill:none;stroke:#ffb380;stroke-width:0.3;stroke-dasharray:none"
       d="m 336.51021,164.87962 c -0.28181,0.098 -1.22986,0.32188 -1.54234,0.68103 -0.40118,0.46115 2.24891,0.52936 2.14038,1.32423 -0.0988,0.72359 -2.38453,1.27954 -2.92727,0.80872 -0.0796,-0.069 -0.049,-0.20494 -0.0734,-0.3074"
       id="path1426" /><path
       style="fill:none;stroke:#ffb380;stroke-width:0.3;stroke-dasharray:none"
       d="m 333.96063,163.96684 c 0.94959,0.0623 1.90252,0.10249 2.85385,0.0568 0.0999,-0.005 0.2648,0.0343 0.29377,-0.0615 0.0285,-0.0941 -0.12838,-0.14947 -0.19937,-0.21756 -0.44547,-0.42735 -0.78541,-0.66681 -1.39541,-0.80872 -0.039,-0.009 -0.15422,-0.0429 -0.11544,-0.0331 0.21014,0.0533 0.30713,0.0897 0.52462,0.21755 0.15737,0.0925 1.36951,0.78603 0.64,0.83238 -0.42931,0.0273 -0.86101,0.0335 -1.2905,0.009 -0.23305,-0.013 -0.90424,-0.21612 -0.67149,-0.19863"
       id="path1428" /></g></svg>
