<?xml version="1.0" encoding="UTF-8" standalone="no"?>
<!-- Created with Inkscape (http://www.inkscape.org/) -->

<svg
   width="102.02975mm"
   height="32.489948mm"
   viewBox="0 0 102.02974 32.489949"
   version="1.1"
   id="svg12"
   inkscape:version="1.2.1 (9c6d41e410, 2022-07-14, custom)"
   sodipodi:docname="curl_equation.svg"
   xml:space="preserve"
   xmlns:inkscape="http://www.inkscape.org/namespaces/inkscape"
   xmlns:sodipodi="http://sodipodi.sourceforge.net/DTD/sodipodi-0.dtd"
   xmlns="http://www.w3.org/2000/svg"
   xmlns:svg="http://www.w3.org/2000/svg"><sodipodi:namedview
     id="namedview14"
     pagecolor="#000000"
     bordercolor="#ffffff"
     borderopacity="1"
     inkscape:showpageshadow="0"
     inkscape:pageopacity="0"
     inkscape:pagecheckerboard="0"
     inkscape:deskcolor="#000000"
     inkscape:document-units="mm"
     showgrid="true"
     inkscape:zoom="0.91285872"
     inkscape:cx="371.90859"
     inkscape:cy="147.33934"
     inkscape:window-width="1311"
     inkscape:window-height="697"
     inkscape:window-x="0"
     inkscape:window-y="0"
     inkscape:window-maximized="1"
     inkscape:current-layer="layer1"
     inkscape:lockguides="true" /><defs
     id="defs9"><rect
       x="587.26367"
       y="362.45731"
       width="66.575974"
       height="20.973427"
       id="rect1884" /></defs><g
     inkscape:label="Layer 1"
     inkscape:groupmode="layer"
     id="layer1"
     transform="translate(-3349.7884,-22281.648)"><path
       style="fill:none;stroke:#00ffff;stroke-width:1"
       d="m 3350.4166,22298.679 c 3.7026,1.147 7.8124,0.136 11.6234,-0.224 0.6297,-0.06 1.7955,-0.357 2.4519,-0.183 0.2344,0.06 -0.08,0.82 -0.1087,0.898 -0.9689,2.626 -2.1985,5.151 -3.1811,7.767 -0.9713,2.586 -1.0613,2.933 -1.5365,5.343 -0.01,0.04 -0.066,1.419 -0.3569,1.359 -0.6808,-0.139 -1.7322,-2.721 -1.9087,-3.014 -1.2605,-2.091 -2.4995,-4.244 -3.8642,-6.267 -0.5557,-0.825 -1.1346,-1.634 -1.7534,-2.412 -0.4276,-0.537 -1.1163,-0.895 -1.3811,-1.528 -0.2236,-0.535 0.01,-1.159 0.016,-1.739 z"
       id="path292" /><path
       style="fill:none;stroke:#00ffff;stroke-width:1"
       d="m 3352.4497,22295.608 c 3.4671,-1.177 7.1964,-0.722 10.7852,-1.023 0.6114,-0.05 -0.965,-0.778 -1.5209,-1.038 -1.2371,-0.578 -3.5107,-1.977 -4.7331,-2.327 -0.1333,-0.04 0.1344,0.243 0.2019,0.364"
       id="path294" /><path
       style="fill:none;stroke:#00ffff;stroke-width:1"
       d="m 3375.3859,22308.732 c 0.025,0.196 0.101,0.393 0.077,0.589 -0.011,0.08 -0.1131,-0.144 -0.1241,-0.224 -0.093,-0.703 -0.1383,-1.411 -0.1863,-2.118 -0.061,-0.887 0,-1.785 -0.1397,-2.663 -0.7789,-4.965 -0.8652,-1.333 -0.6829,-4.627 0,-0.05 0,0.104 0,0.154 -0.025,0.467 -0.051,0.935 -0.077,1.402 0.2609,-3.254 2.519,-2.498 5.0436,-2.538 0.2961,0 1.0833,-0.135 0.8845,0.08 -0.2061,0.228 -0.8715,0.529 -1.1328,0.659"
       id="path296" /><path
       style="fill:none;stroke:#00ffff;stroke-width:1"
       d="m 3374.9202,22302.479 c 2.1278,0.128 4.128,-1.15 6.1918,-1.094"
       id="path298" /><path
       style="fill:none;stroke:#00ffff;stroke-width:1"
       d="m 3371.7079,22297.038 c 1.107,-0.289 8.3714,-1.362 8.8765,-2.074 0.042,-0.06 -0.7567,-0.188 -1.4743,-0.519 -0.5916,-0.274 -1.1869,-0.554 -1.7224,-0.926 -0.8813,-0.611 -1.8135,-1.492 -2.2037,-2.537 -0.082,-0.221 0.4585,0.133 0.6519,0.266"
       id="path300" /><path
       style="fill:none;stroke:#00ffff;stroke-width:1"
       d="m 3369.8301,22301.385 c -0.6448,0.151 -2.2415,8.371 -2.5916,4.893"
       id="path302" /><path
       style="fill:none;stroke:#00ffff;stroke-width:1"
       d="m 3366.5094,22302.198 c 2.7175,2.038 5.0725,5.317 5.8814,8.679"
       id="path304" /><path
       style="fill:none;stroke:#00ffff;stroke-width:1"
       d="m 3387.9247,22302.465 c 0.6234,0.04 6.9316,-2.955 5.3226,-0.687"
       id="path306" /><path
       style="fill:none;stroke:#00ffff;stroke-width:1"
       d="m 3389.4299,22305.325 c 1.4039,0.28 5.5822,-2.265 6.4403,-0.715"
       id="path308" /><path
       style="fill:none;stroke:#00ffff;stroke-width:1"
       d="m 3406.9657,22299.548 c -2.8352,0.14 -3.2795,9.069 1.1483,6.59 0.6496,-0.363 1.1277,-0.972 1.6915,-1.458"
       id="path310" /><path
       style="fill:none;stroke:#00ffff;stroke-width:1"
       d="m 3411.3575,22300.081 c -0.1603,0.687 -0.5479,1.359 -0.4812,2.061 0.3619,3.81 7.5644,-0.705 3.7711,-2.145"
       id="path312" /><path
       style="fill:none;stroke:#00ffff;stroke-width:1"
       d="m 3415.2059,22297.249 c 0.4813,0.486 0.9827,0.953 1.4433,1.458 0.3834,0.421 0.721,0.882 1.0864,1.318 1.5441,1.845 0.8826,1.713 0.6673,0.463 -0.2223,-1.29 -0.5789,-5.224 1.3655,-5.37 0.9363,0.224 2.1128,0 2.8089,0.673 1.0996,1.051 1.0498,5.128 0.5897,6.351"
       id="path314" /><path
       style="fill:none;stroke:#00ffff;stroke-width:1"
       d="m 3430.2745,22289.663 c -1.2679,2.404 -2.716,4.297 -2.3744,7.25 0.4712,4.074 3.2967,7.952 7.7901,7.445"
       id="path316" /><path
       style="fill:none;stroke:#00ffff;stroke-width:1"
       d="m 3439.787,22300.88 c -0.5212,1.952 -1.5983,-7.906 -1.5983,-7.767 1.8609,-0.908 3.4814,-1.632 5.4936,-1.739"
       id="path318" /><path
       style="fill:none;stroke:#00ffff;stroke-width:1"
       d="m 3439.1197,22295.636 c 2.2837,-0.636 4.3265,-1.868 6.5024,-2.79"
       id="path320" /><path
       style="fill:none;stroke:#00ffff;stroke-width:1"
       d="m 3435.2092,22289.411 c 3.2554,-0.283 2.4051,-0.07 6.223,-1.234 0.5715,-0.175 1.6055,-0.331 1.5362,-0.925 -0.071,-0.61 -5.079,-2.656 -5.1054,-2.608 -0.049,0.09 0.155,0.131 0.2325,0.196"
       id="path322" /><path
       style="fill:none;stroke:#00ffff;stroke-width:1"
       d="m 3448.0119,22281.812 c 2.6286,7.596 4.9683,16.825 1.7071,24.663 -0.2757,0.662 -0.807,1.187 -1.2105,1.78"
       id="path324" /></g></svg>
