<?xml version="1.0" encoding="UTF-8" standalone="no"?>
<!-- Created with Inkscape (http://www.inkscape.org/) -->

<svg
   width="615.03967mm"
   height="304.04605mm"
   viewBox="0 0 615.03966 304.04605"
   version="1.1"
   id="svg12"
   inkscape:version="1.2.1 (9c6d41e410, 2022-07-14, custom)"
   sodipodi:docname="cut_example.svg"
   xml:space="preserve"
   xmlns:inkscape="http://www.inkscape.org/namespaces/inkscape"
   xmlns:sodipodi="http://sodipodi.sourceforge.net/DTD/sodipodi-0.dtd"
   xmlns="http://www.w3.org/2000/svg"
   xmlns:svg="http://www.w3.org/2000/svg"><sodipodi:namedview
     id="namedview14"
     pagecolor="#000000"
     bordercolor="#ffffff"
     borderopacity="1"
     inkscape:showpageshadow="0"
     inkscape:pageopacity="0"
     inkscape:pagecheckerboard="0"
     inkscape:deskcolor="#000000"
     inkscape:document-units="mm"
     showgrid="true"
     inkscape:zoom="0.24657563"
     inkscape:cx="798.94353"
     inkscape:cy="442.05505"
     inkscape:window-width="1366"
     inkscape:window-height="746"
     inkscape:window-x="0"
     inkscape:window-y="0"
     inkscape:window-maximized="1"
     inkscape:current-layer="layer1"
     inkscape:lockguides="true"><inkscape:grid
       type="xygrid"
       id="grid344"
       color="#969696"
       opacity="0.39215686"
       empcolor="#ffffff"
       empopacity="0.17254902"
       dotted="false"
       originx="-15698.321"
       originy="-31569.879" /></sodipodi:namedview><defs
     id="defs9" /><g
     inkscape:label="Layer 1"
     inkscape:groupmode="layer"
     id="layer1"
     transform="translate(-15803.321,-31718.379)"><path
       style="fill:none;stroke:#ffb380;stroke-width:0.499999"
       d="m 15965.124,31835.082 c -9.956,6.51 -14.043,3.144 -17.831,-8.046 -1.846,-5.457 -2.628,-18.843 -0.173,-23.618 5.042,-9.806 12.28,-17.702 20.255,-6.852 4.358,5.93 7.507,12.788 9.81,19.777 1.267,3.848 -1.183,29.435 -12.061,18.739 -4.116,-4.048 -5.193,-10.313 -7.79,-15.469"
       id="path2014" /><path
       style="fill:none;stroke:#ffb380;stroke-width:0.499999"
       d="m 16079.438,31780.319 c -7.935,-8.206 -9.744,-7.025 -10.56,-18.064 -0.581,-7.853 0.114,-17.834 3.981,-25.02 5.651,-10.5 13.834,-5.431 16.908,3.374 4.24,12.145 2.308,23.509 -4.963,33.896 -1.512,2.161 -2.742,5.555 -5.366,5.814 -7.375,0.728 -11.074,-9.216 -13.503,-13.392"
       id="path2016" /><path
       style="fill:none;stroke:#ffb380;stroke-width:0.499999"
       d="m 16021.156,31982.084 c -11.456,0.594 -17.789,-8.875 -19.101,-19.932 -6.269,-52.86 24.836,-8.778 24.64,5.45 -0.205,14.927 -5.194,18.757 -13.964,9.499 -1.727,-1.822 -1.924,-4.637 -2.885,-6.955"
       id="path2018" /><path
       style="fill:none;stroke:#ffb380;stroke-width:0.499999"
       d="m 16117.984,31944.451 c -12.788,-6.757 -9.466,-2.336 -12.406,-22.528 -1.041,-7.149 -1.685,-21.196 1.789,-28.393 0.848,-1.757 3.229,-3.529 5.078,-2.907 5.799,1.949 9.9,16.411 10.156,19.725 0.463,6.01 0.501,22.711 -6.925,28.29 -1.509,1.133 -4.394,1.093 -5.655,-0.312 -3.03,-3.376 -3.808,-8.236 -5.713,-12.354"
       id="path2020" /><path
       style="fill:none;stroke:#ffb380;stroke-width:0.499999"
       d="m 16237.837,31816.187 c -10.82,-6.489 -10.982,-3.562 -12.579,-17.493 -0.757,-6.604 -1.003,-13.299 -0.577,-19.932 0.172,-2.687 2.049,-19.72 6.866,-23.618 10.771,-8.715 16.017,18.534 16.273,21.697 0.862,10.622 -2.017,37.621 -21.062,27.719 -3.613,-1.879 -3.809,-7.198 -5.713,-10.797"
       id="path2022" /><path
       style="fill:none;stroke:#ffb380;stroke-width:0.499999"
       d="m 16091.498,31764.331 c 1.981,-0.329 3.939,-0.862 5.943,-0.986 9.264,-0.571 19.415,2.945 28.564,4.153 26.744,3.529 53.568,7.652 80.441,10.07 6.762,0.608 22.303,-1.241 25.505,3.997"
       id="path2024" /><path
       style="fill:none;stroke:#ff00ff;stroke-width:0.499999"
       d="m 16129.698,31910.504 c 14.737,-26.055 39.995,-44.101 59.725,-66.131 7.788,-8.696 11.999,-14.768 19.1,-24.033 7.329,-9.563 14.959,-19.013 19.447,-30.314"
       id="path2026" /><path
       style="fill:none;stroke:#ff00ff;stroke-width:0.499999"
       d="m 16109.502,31885.899 c -9.142,-40.196 -9.075,-82.367 -20.601,-122.035"
       id="path2028" /><path
       style="fill:none;stroke:#ffb380;stroke-width:0.499999"
       d="m 16071.417,31764.902 c -3.681,2.515 -7.547,5.106 -11.08,7.786 -8.38,6.358 -16.283,12.965 -25.621,17.96 -9.123,4.882 -18.957,8.38 -27.929,13.6 -5.666,3.297 -18.895,14.599 -24.467,14.742"
       id="path2030" /><path
       style="fill:none;stroke:#ff00ff;stroke-width:0.499999"
       d="m 15970.145,31828.282 c 6.652,30.58 14.767,60.762 23.37,90.838 3.054,10.676 5.146,24.22 10.098,34.467"
       id="path2032" /><path
       style="fill:none;stroke:#ff00ff;stroke-width:0.499999"
       d="m 16024.849,31917.407 c 2.154,-6.938 4.328,-13.87 6.463,-20.815 9.811,-31.921 18.399,-64.235 28.737,-95.977 2.586,-7.941 6.35,-19.174 8.829,-27.459 0.632,-2.113 1.159,-4.255 1.731,-6.385 0.101,-0.379 0.671,-1.056 0.288,-1.142 -0.392,-0.09 -0.346,0.727 -0.519,1.09"
       id="path2034" /><path
       style="fill:none;stroke:#ffb380;stroke-width:0.499999"
       d="m 16022.425,31969.263 c 23.105,-25.917 50.766,-47.101 84.134,-57.617"
       id="path2036" /><path
       style="fill:none;stroke:#00ffff;stroke-width:0.499999"
       d="m 15883.068,32022.417 c 1.972,-60.497 41.062,-113.336 91.231,-144.46 13.747,-8.528 28.921,-15.288 43.914,-21.282 32.564,-13.019 67.948,-21.951 103.291,-19.932 32.579,1.86 51.835,14.786 79.748,27.459 6.846,3.108 17.668,7.953 25.275,9.914 29.957,7.724 61.58,1.699 91.289,-4.36 34.251,-6.985 70.841,-15.446 100.407,-34.986"
       id="path2038" /><path
       style="fill:none;stroke:#00ffff;stroke-width:0.499999"
       d="m 15816.188,31930.177 c -2.116,-0.987 -4.057,-3.413 -6.347,-2.959 -1.815,0.359 -2.249,3.018 -2.828,4.775 -2.802,8.507 -2.966,19.564 1.616,27.563 5.811,10.148 26.517,6.162 27.179,-5.346"
       id="path2040" /><path
       style="fill:none;stroke:#00ffff;stroke-width:0.499999"
       d="m 15831.942,31930.903 c 0.04,2.163 -0.568,4.436 0.115,6.489 0.614,1.848 1.943,3.56 3.578,4.62 7.449,4.828 13.263,-10.585 14.368,-13.808 1.03,-3.001 -4.247,-9.233 -5.482,-11.835"
       id="path2042" /><path
       style="fill:none;stroke:#00ffff;stroke-width:0.499999"
       d="m 15843.771,31903.029 c 3.445,2.288 -2.111,-6.029 -0.06,-6.177 3.648,-0.263 -0.934,4.15 0.06,6.177 1.816,3.711 5.589,6.117 7.963,9.499 2.098,2.988 7.178,11.359 7.617,15.572"
       id="path2044" /><path
       style="fill:none;stroke:#00ffff;stroke-width:0.499999"
       d="m 15848.272,31921.041 c -1.481,-2.059 -3.971,-3.685 -4.443,-6.177 -1.35,-7.121 15.304,-14.719 20.543,-15.832"
       id="path2046" /><path
       style="fill:none;stroke:#ff00ff;stroke-width:0.499999"
       d="m 15813.072,31768.328 c -1.923,2.128 -4.387,3.872 -5.77,6.385 -1.628,2.957 -2.396,6.344 -3.059,9.655 -5.967,29.811 29.762,10.47 29.141,1.816"
       id="path2048" /><path
       style="fill:none;stroke:#ff00ff;stroke-width:0.499999"
       d="m 15825.132,31763.605 c 2.674,0.709 5.55,0.886 8.021,2.128 2.556,1.284 4.612,3.397 6.752,5.294 1.017,0.902 7.555,7.193 7.501,8.773 -0.03,0.957 -1.771,-0.92 -2.308,-1.713 -1.657,-2.449 -3.035,-5.101 -4.155,-7.838 -1.745,-4.269 -6.47,-15.504 -0.692,-19.258"
       id="path2050" /><path
       style="fill:none;stroke:#ff00ff;stroke-width:0.499999"
       d="m 15858.832,31762.203 c -9.836,-0.164 -6.094,-18.432 1.847,-11.627 5.855,5.018 5.059,22.919 4.327,4.152"
       id="path2052" /><path
       style="fill:none;stroke:#ff00ff;stroke-width:0.499999"
       d="m 15865.583,31732.097 c -0.711,1.747 -2.548,3.401 -2.135,5.242 0.02,0.07 15.622,-1.253 18.466,7.371 1.443,4.375 -4.581,19.207 -5.482,13.652 -0.873,-5.383 0.143,-11.893 0.692,-17.234"
       id="path2054" /><path
       style="fill:none;stroke:#ff00ff;stroke-width:0.499999"
       d="m 15882.837,31718.704 c -1.519,0.883 -5.441,1.128 -4.559,2.648 0.883,1.519 2.964,-3.386 4.559,-2.648 3.351,1.551 4.724,5.705 7.444,8.202 8.85,8.121 9.459,1.679 11.483,18.894 0.606,5.15 -8.999,20.985 -12.579,8.461"
       id="path2056" /></g></svg>
