<?xml version="1.0" encoding="UTF-8" standalone="no"?>
<!-- Created with Inkscape (http://www.inkscape.org/) -->

<svg
   width="1356.9243mm"
   height="252.59418mm"
   viewBox="0 0 1356.9243 252.59418"
   version="1.1"
   id="svg12"
   inkscape:version="1.2.1 (9c6d41e410, 2022-07-14, custom)"
   sodipodi:docname="delta_of_f.svg"
   xml:space="preserve"
   xmlns:inkscape="http://www.inkscape.org/namespaces/inkscape"
   xmlns:sodipodi="http://sodipodi.sourceforge.net/DTD/sodipodi-0.dtd"
   xmlns="http://www.w3.org/2000/svg"
   xmlns:svg="http://www.w3.org/2000/svg"><sodipodi:namedview
     id="namedview14"
     pagecolor="#505050"
     bordercolor="#eeeeee"
     borderopacity="1"
     inkscape:showpageshadow="0"
     inkscape:pageopacity="0"
     inkscape:pagecheckerboard="0"
     inkscape:deskcolor="#505050"
     inkscape:document-units="mm"
     showgrid="true"
     inkscape:zoom="0.12176488"
     inkscape:cx="2866.1795"
     inkscape:cy="1182.607"
     inkscape:window-width="1366"
     inkscape:window-height="746"
     inkscape:window-x="0"
     inkscape:window-y="0"
     inkscape:window-maximized="1"
     inkscape:current-layer="layer1"
     inkscape:lockguides="false"><inkscape:grid
       type="xygrid"
       id="grid344"
       color="#969696"
       opacity="0.39215686"
       empcolor="#000000"
       empopacity="0.17254902"
       dotted="false"
       originx="-359.76447"
       originy="-9954.5233" /></sodipodi:namedview><defs
     id="defs9" /><g
     inkscape:label="Layer 1"
     inkscape:groupmode="layer"
     id="layer1"
     transform="translate(-464.76447,-10103.023)"><path
       style="fill:none;stroke:#ffffff;stroke-width:1.5"
       d="m 533.43086,10190.206 c 4.14631,21.225 -10.42083,40.391 -19.16388,58.864 -11.4011,24.089 -23.9799,47.641 -37.62671,70.532 -2.22549,3.733 -11.38073,17.631 -11.10107,18.184 2.55413,5.055 11.31761,-0.611 16.94373,-1.261 21.97344,-2.539 43.80857,-4.395 65.90514,-5.571 5.66063,-0.301 49.23251,2.2 49.31201,0.841 0.28795,-4.922 -4.14758,-13.41 -5.60895,-17.239 -11.20619,-29.365 -22.64135,-57.047 -38.44465,-84.196 -3.80434,-6.536 -10.63006,-13.185 -5.02473,-19.762"
       id="path1077" /><path
       style="fill:none;stroke:#ffffff;stroke-width:1.5"
       d="m 701.58251,10224.684 c 1.20748,-3.119 3.66469,-6.012 3.62246,-9.356 -0.0193,-1.535 -9.30365,1.489 -16.24261,5.256 -19.09463,10.366 -35.23985,27.627 -31.55034,51.086 2.49147,15.84 26.69405,49.201 24.1886,61.596 -0.35282,1.746 -3.6612,-0.158 -5.25838,-0.946"
       id="path1079" /><path
       style="fill:none;stroke:#ffffff;stroke-width:1.5"
       d="m 647.59637,10299.945 c 20.77315,-8.065 48.65211,-13.714 69.99502,-3.679"
       id="path1081" /><path
       style="fill:none;stroke:#ffffff;stroke-width:1.5"
       d="m 783.96397,10227.311 c 9.15752,-27.851 0.62907,-0.536 0,0 -4.73498,4.038 -13.27886,1.663 -17.64482,6.097 -12.74983,12.949 -12.0972,50.418 -6.77747,66.012 1.47905,4.335 14.00247,31.804 25.24025,24.912 2.13347,-1.309 3.19397,-3.854 4.79094,-5.782"
       id="path1083" /><path
       style="fill:none;stroke:#ffffff;stroke-width:1.5"
       d="m 829.77041,10256.113 c -12.10638,14.824 -7.39706,50.637 -18.46279,63.909 -2.42919,2.914 -2.69203,-7.122 -3.50565,-10.827"
       id="path1085" /><path
       style="fill:none;stroke:#ffffff;stroke-width:1.5"
       d="m 801.60879,10271.039 c 14.84469,11.363 28.93494,23.554 42.30079,36.58 1.66479,1.622 -2.59003,-3.866 -3.73925,-5.887"
       id="path1087" /><path
       style="fill:none;stroke:#ffffff;stroke-width:1.5"
       d="m 842.85794,10194.201 c 19.24982,0.23 12.86071,-2.349 26.75933,30.798 14.50049,34.582 22.48328,71.497 7.12803,107.321 -3.77775,8.814 -16.73886,31.288 -22.08519,18.921"
       id="path1089" /><path
       style="fill:none;stroke:#ffffff;stroke-width:1.5"
       d="m 963.56721,10257.479 c 11.28987,3.263 74.14209,-8.625 44.05359,16.293"
       id="path1091" /><path
       style="fill:none;stroke:#ffffff;stroke-width:1.5"
       d="m 971.86375,10286.911 c 19.30725,-3.772 37.86015,-1.376 57.02435,-0.315"
       id="path1093" /><path
       style="fill:none;stroke:#ffffff;stroke-width:1.5"
       d="m 1169.1118,10203.03 c -3.8561,-1.682 -7.4737,-6.011 -11.5684,-5.045 -20.7652,4.895 -49.2253,26.403 -49.8963,50.454 -0.8207,29.417 18.0723,43.848 24.656,69.691 2.1639,8.494 -8.792,3.513 -11.2179,3.153"
       id="path1095" /><path
       style="fill:none;stroke:#ffffff;stroke-width:1.5"
       d="m 1083.4585,10290.695 c 2.2591,-3.959 2.6303,-9.985 6.7775,-11.878 18.4554,-8.421 52.7049,-10.463 73.2669,-5.36"
       id="path1097" /><path
       style="fill:none;stroke:#ffffff;stroke-width:1.5"
       d="m 1244.7158,10202.715 c -13.1969,2.534 -11.6062,0.239 -21.8515,13.244 -17.6976,22.465 -26.6947,54.791 -4.9079,78.1 8.3997,8.986 18.9667,17.768 28.8627,8.199"
       id="path1099" /><path
       style="fill:none;stroke:#ffffff;stroke-width:1.5"
       d="m 1286.0818,10232.147 c -2.3415,6.972 -13.433,72.339 -25.9414,65.486 -3.954,-2.167 -2.6487,-8.62 -3.9731,-12.929"
       id="path1101" /><path
       style="fill:none;stroke:#ffffff;stroke-width:1.5"
       d="m 1256.7516,10242.343 c 11.4108,13.707 21.5728,28.35 32.6021,42.361 2.1384,2.716 8.8022,11.193 9.6988,11.037 1.4158,-0.247 -0.078,-2.874 -0.1168,-4.31"
       id="path1103" /><path
       style="fill:none;stroke:#ffffff;stroke-width:1.5"
       d="m 1350.4678,10227.837 c -11.8171,8.337 10.6449,63.741 3.272,70.742 -0.8771,0.833 -2.415,-0.14 -3.6225,-0.211"
       id="path1105" /><path
       style="fill:none;stroke:#ffffff;stroke-width:1.5"
       d="m 1332.3556,10277.451 c -0.6065,-20.727 41.3933,-6.583 41.0155,-14.401"
       id="path1107" /><path
       style="fill:none;stroke:#ffffff;stroke-width:1.5"
       d="m 1383.0699,10224.684 c 2.047,2.254 20.8187,75.888 20.3324,50.98"
       id="path1109" /><path
       style="fill:none;stroke:#ffffff;stroke-width:1.5"
       d="m 1419.7618,10149.632 c 24.4092,53.789 52.7532,123.29 8.764,175.225 -10.6475,12.571 -9.5446,11.638 -19.0471,12.088"
       id="path1111" /><path
       style="fill:none;stroke:#ffffff;stroke-width:1.5"
       d="m 1513.1274,10246.337 c 1.5435,-1.142 81.8399,-23.908 50.7143,-6.727"
       id="path1113" /><path
       style="fill:none;stroke:#ffffff;stroke-width:1.5"
       d="m 1663.6342,10201.769 c 0.1558,-3.539 1.8714,-7.365 0.4674,-10.617 -0.6241,-1.445 -9.2245,-0.08 -17.7616,4.1 -15.4194,7.549 -27.7562,19.345 -27.5773,37.841 0.2064,21.345 14.1773,34.511 22.0851,52.662 1.0274,2.358 2.6227,5.84 0.818,7.673 -1.8871,1.917 -5.3752,-0.21 -8.0628,-0.315"
       id="path1115" /><path
       style="fill:none;stroke:#ffffff;stroke-width:1.5"
       d="m 1599.7155,10265.783 c 9.5464,-21.51 36.6139,-5.359 53.1683,-13.98"
       id="path1117" /><path
       style="fill:none;stroke:#ffffff;stroke-width:1.5"
       d="m 1715.9844,10184.951 c 4.791,-7.744 11.2315,-14.684 14.373,-23.231 0.6404,-1.742 -3.3215,-3.972 -4.791,-2.838 -8.3332,6.43 -15.5333,14.455 -21.501,23.125 -18.4804,26.85 -20.3605,59.324 -5.1415,88.191 4.7239,8.96 19.5382,19.112 28.8627,11.773"
       id="path1119" /><path
       style="fill:none;stroke:#ffffff;stroke-width:1.5"
       d="m 1762.7256,10204.712 c -4.5124,19.238 -8.6544,46.144 -25.4739,59.915 -2.3905,1.957 -6.0764,1.121 -9.1146,1.682"
       id="path1121" /><path
       style="fill:none;stroke:#ffffff;stroke-width:1.5"
       d="m 1728.6045,10220.689 c 20.5092,3.446 25.2566,36.599 42.5346,44.779 1.7092,0.809 -0.9467,-3.664 -1.5192,-5.466"
       id="path1123" /><path
       style="fill:none;stroke:#ffffff;stroke-width:1.5"
       d="m 1768.1008,10108.743 c 4.8689,-1.507 9.9014,-6.479 14.6067,-4.52 14.0963,5.868 26.8961,42.021 29.447,50.35 4.1627,13.59 8.5803,27.517 8.7641,41.73 0.3495,27.043 -3.5937,101.587 -32.7189,125.821"
       id="path1125" /></g></svg>
