<?xml version="1.0" encoding="UTF-8" standalone="no"?>
<!-- Created with Inkscape (http://www.inkscape.org/) -->

<svg
   width="1058.7722mm"
   height="282.32126mm"
   viewBox="0 0 1058.7722 282.32126"
   version="1.1"
   id="svg12"
   inkscape:version="1.2.1 (9c6d41e410, 2022-07-14, custom)"
   sodipodi:docname="determinent_example.svg"
   xml:space="preserve"
   xmlns:inkscape="http://www.inkscape.org/namespaces/inkscape"
   xmlns:sodipodi="http://sodipodi.sourceforge.net/DTD/sodipodi-0.dtd"
   xmlns="http://www.w3.org/2000/svg"
   xmlns:svg="http://www.w3.org/2000/svg"><sodipodi:namedview
     id="namedview14"
     pagecolor="#000000"
     bordercolor="#ffffff"
     borderopacity="1"
     inkscape:showpageshadow="0"
     inkscape:pageopacity="0"
     inkscape:pagecheckerboard="0"
     inkscape:deskcolor="#000000"
     inkscape:document-units="mm"
     showgrid="true"
     inkscape:zoom="0.22780149"
     inkscape:cx="1898.5829"
     inkscape:cy="770.40761"
     inkscape:window-width="1311"
     inkscape:window-height="697"
     inkscape:window-x="0"
     inkscape:window-y="0"
     inkscape:window-maximized="1"
     inkscape:current-layer="layer1"
     inkscape:lockguides="true" /><defs
     id="defs9"><rect
       x="587.26367"
       y="362.45731"
       width="66.575974"
       height="20.973427"
       id="rect1884" /></defs><g
     inkscape:label="Layer 1"
     inkscape:groupmode="layer"
     id="layer1"
     transform="translate(-3200.1986,-22159.807)"><path
       style="fill:none;stroke:#00ffff;stroke-width:1"
       d="m 3208.8661,22224.185 c 1.202,0.861 2.6019,1.497 3.6057,2.582 7.4118,8.015 6.9644,23.957 -0.7916,31.307 -0.4667,0.442 -6.1391,5.433 -8.5746,3.178 -1.2671,-1.173 -2.0209,-2.942 -2.2865,-4.648 -1.7148,-11.014 15.5715,-18.978 15.962,-9.098"
       id="path559" /><path
       style="fill:none;stroke:#00ffff;stroke-width:1"
       d="m 3230.4564,22250.207 c 6.8326,4.571 19.1423,-5.565 6.0243,-8.899 -6.9969,-1.778 -15.7237,10.638 -11.5208,16.726 4.3101,6.244 14.514,2.338 19.9634,-0.159 0.7162,-0.328 -1.5195,0.417 -2.2866,0.596"
       id="path561" /><path
       style="fill:none;stroke:#00ffff;stroke-width:1"
       d="m 3255.6966,22237.494 c 0.4836,-1.43 0.9673,-2.86 1.4509,-4.291 0.1321,-0.03 0.439,-0.207 0.3959,-0.08 -0.5067,1.498 -1.6259,2.804 -1.8468,4.37 -0.2763,1.958 0.454,3.943 0.3958,5.92 -0.1035,3.507 -0.5681,6.994 -0.8795,10.488 -0.2246,2.519 -0.2765,9.47 -1.715,7.39"
       id="path563" /><path
       style="fill:none;stroke:#00ffff;stroke-width:1"
       d="m 3247.8694,22249.81 c 3.8155,-1.749 14.6513,-3.6 17.6771,0.159"
       id="path565" /><path
       style="fill:none;stroke:#00ffff;stroke-width:1"
       d="m 3301.6915,22191.964 c -3.0634,4.278 -6.7953,8.148 -9.1901,12.833 -8.7474,17.111 -10.2703,40.739 -6.7717,59.197 2.6781,14.129 11.2614,24.15 19.3476,35.239"
       id="path567" /><path
       style="fill:none;stroke:#00ffff;stroke-width:1"
       d="m 3335.2425,22172.894 c -0.1172,4.145 -0.013,8.303 -0.3519,12.436 -2.979,36.317 -3.9804,23.928 -5.0128,63.328 -0.3432,13.095 0.2733,40.919 0.6596,56.058 0.2926,11.471 1.1263,23.087 0.4397,34.565"
       id="path569" /><path
       style="fill:none;stroke:#00ffff;stroke-width:1"
       d="m 3354.0186,22186.045 c 0.5276,-1.099 2.6821,-2.77 1.583,-3.298 -1.0993,-0.528 -1.0242,2.214 -1.583,3.298 -1.347,2.611 -3.3202,4.963 -4.1333,7.787 -4.609,16.003 9.6676,5.822 13.1477,-0.159 1.3547,-2.329 1.5576,-4.147 1.0551,-4.291 -4.509,-1.292 -5.8832,10.03 -2.7262,12.475 0.975,0.755 2.3159,0.847 3.474,1.271"
       id="path575" /><path
       style="fill:none;stroke:#00ffff;stroke-width:1"
       d="m 3379.3027,22200.665 c -3.5462,8.811 -1.887,4.733 -5.1448,12.674 -0.4836,1.178 -0.9369,2.37 -1.4512,3.536 -0.263,0.596 -0.7678,2.391 -0.8792,1.748 -0.2879,-1.66 0.205,-3.364 0.3077,-5.046"
       id="path577" /><path
       style="fill:none;stroke:#00ffff;stroke-width:1"
       d="m 3371.1679,22198.4 c 2.4929,9.181 10.1457,15.796 13.3233,24.553"
       id="path579" /><path
       style="fill:none;stroke:#00ffff;stroke-width:1"
       d="m 3404.9385,22178.337 c -7.7237,-0.476 -10.9112,17.119 -1.1872,15.614 4.7988,-0.743 11.3226,-7.636 6.332,-12.237 -1.5314,-1.412 -1.9497,1.703 -1.715,2.384 0.9967,2.891 2.7273,4.448 4.7051,6.754 2.0087,2.342 4.2227,4.38 4.6609,7.548"
       id="path581" /><path
       style="fill:none;stroke:#00ffff;stroke-width:1"
       d="m 3432.9928,22206.307 c -2.127,7.353 -3.3102,15.549 -6.5958,22.566 -0.6048,1.291 0.3461,-2.832 0.4837,-4.251"
       id="path589" /><path
       style="fill:none;stroke:#00ffff;stroke-width:1"
       d="m 3421.9996,22207.657 c 2.0191,3.861 6.8932,4.892 9.674,7.906"
       id="path591" /><path
       style="fill:none;stroke:#00ffff;stroke-width:1"
       d="m 3461.223,22177.344 c -4.5757,-5.475 -11.5694,10.085 -8.7066,12.038 6.3717,4.347 15.9507,-3.856 15.3903,-10.489 -0.1924,-2.279 -6.6731,-3.836 -6.6837,-1.549 -0.01,1.893 5.6013,11.639 7.3433,14.342 1.7446,2.708 3.8214,5.093 5.2768,7.986"
       id="path593" /><path
       style="fill:none;stroke:#00ffff;stroke-width:1"
       d="m 3482.1098,22200.903 c 1.2313,-0.662 2.3532,-1.59 3.6938,-1.986 1.1877,-0.351 1.4327,2.331 1.1433,3.536 -0.956,3.975 -3.1713,8.112 -5.1888,11.601 -2.147,3.712 -5.2482,7.646 -4.7931,8.105 0.269,0.271 13.3167,-0.928 10.8172,0.635"
       id="path595" /><path
       style="fill:none;stroke:#00ffff;stroke-width:1"
       d="m 3477.3608,22212.902 c 4.8387,-2.723 7.5668,-3.749 12.972,-2.861"
       id="path597" /><path
       style="fill:none;stroke:#00ffff;stroke-width:1"
       d="m 3361.0103,22243.493 c 1.2747,5.88 0.7963,2.162 0.6596,9.217 -0.1001,5.152 -0.2128,7.557 0.088,12.118 0.08,1.209 -0.4675,4.466 0.3958,3.615 2.6869,-2.648 2.9739,-8.831 5.2327,-12.038 4.5103,-6.403 8.4397,3.227 8.3108,7.112 -0.3138,9.462 -11.9197,15.557 -9.9819,1.549"
       id="path599" /><path
       style="fill:none;stroke:#00ffff;stroke-width:1"
       d="m 3386.3822,22260.656 c -0.2929,6.236 -3.3332,11.582 -5.1448,17.441 -0.4032,1.305 -0.8099,2.61 -1.1433,3.934 -0.2241,0.89 -0.349,1.801 -0.5276,2.701 -0.026,0.133 -0.082,0.533 -0.088,0.398 -0.035,-0.807 0,-1.616 0,-2.424"
       id="path601" /><path
       style="fill:none;stroke:#00ffff;stroke-width:1"
       d="m 3377.4557,22265.583 c 4.3138,6.225 8.8707,12.319 12.7521,18.831"
       id="path603" /><path
       style="fill:none;stroke:#00ffff;stroke-width:1"
       d="m 3417.5586,22238.567 c 0.6448,2.278 1.3568,4.537 1.9346,6.833 0.1633,0.648 3.0409,13.629 3.2541,14.66 0.3083,1.491 0.5916,2.987 0.8353,4.49 0.079,0.486 0.3702,1.9 0.132,1.47 -2.0663,-3.734 3.0129,-29.437 8.7506,-19.587 4.1048,7.047 2.2897,16.498 -2.9903,22.407 -0.6324,0.709 -1.5208,1.552 -2.4622,1.431 -3.2615,-0.421 -2.1606,-6.55 -2.0228,-8.542"
       id="path605" /><path
       style="fill:none;stroke:#00ffff;stroke-width:1"
       d="m 3447.0639,22257.359 c 1.6023,5.431 -0.3916,10.788 -1.2311,16.249 -0.3953,2.571 -0.652,5.171 -1.2314,7.708 -0.9578,4.192 -0.5681,4.239 -1.8907,2.86"
       id="path607" /><path
       style="fill:none;stroke:#00ffff;stroke-width:1"
       d="m 3435.4553,22264.47 c 6.3971,3.411 3.8161,1.553 8.0467,5.125"
       id="path609" /><path
       style="fill:none;stroke:#00ffff;stroke-width:1"
       d="m 3470.765,22234.634 c 0.4252,2.728 0.881,5.451 1.2753,8.184 0.4558,3.161 0.9019,6.323 1.275,9.495 0.272,2.312 0.5244,4.629 0.6596,6.953 0.062,1.072 -1.1925,8.343 -0.8795,2.145 0.1696,-3.353 4.4926,-25.466 10.2457,-13.428 2.5067,5.244 2.2403,11.157 -0.8794,16.09 -2.3691,3.746 -7.2361,6.81 -7.6073,4.529 -0.2501,-1.536 0.2931,-3.099 0.4397,-4.648"
       id="path611" /><path
       style="fill:none;stroke:#00ffff;stroke-width:1"
       d="m 3491.1681,22260.497 c 1.1432,-0.649 2.2571,-1.352 3.4297,-1.946 2.4784,-1.256 8.821,-2.848 7.4753,2.622 -1.3118,5.334 -5.425,10.378 -8.7064,14.581 -1.0895,1.395 -2.7731,2.431 -3.3858,4.092 -0.2866,0.776 2.8855,-0.233 6.2441,-0.517 2.1395,-0.181 5.112,-0.435 7.0795,0.676 0.4564,0.257 0.314,0.833 -0.2638,0.794 -0.4344,-0.03 -0.821,-0.291 -1.2314,-0.437"
       id="path613" /><path
       style="fill:none;stroke:#00ffff;stroke-width:1"
       d="m 3491.5639,22270.986 c 11.1842,0.408 6.5389,0.515 13.9393,0.159"
       id="path615" /><path
       style="fill:none;stroke:#00ffff;stroke-width:1"
       d="m 3369.4968,22310.517 c 0.2529,3.239 1.783,-8.712 -0.3077,-7.43 -6.7895,4.163 -14.5802,21.917 -7.6073,28.287 4.4767,4.09 12.311,1.421 16.8854,-0.834"
       id="path617" /><path
       style="fill:none;stroke:#00ffff;stroke-width:1"
       d="m 3387.7014,22328.832 c 1.106,2.857 -5.0781,19.35 -6.64,18.871 -0.8157,-0.25 -1.2776,-5.29 -1.3189,-5.602"
       id="path619" /><path
       style="fill:none;stroke:#00ffff;stroke-width:1"
       d="m 3378.863,22326.964 c 2.2286,9.11 15.1268,14.413 16.7095,23.123"
       id="path621" /><path
       style="fill:none;stroke:#00ffff;stroke-width:1"
       d="m 3438.1376,22300.783 c -1.715,0.874 -3.924,1.134 -5.1448,2.622 -4.2802,5.217 -7.3927,15.135 -1.6709,20.62 3.4865,3.342 9.6883,2.386 13.9391,1.708"
       id="path623" /><path
       style="fill:none;stroke:#00ffff;stroke-width:1"
       d="m 3455.4186,22323.707 c 0.4252,3.006 1.3679,5.984 1.2753,9.018 -0.086,2.818 -1.1242,5.528 -1.8029,8.264 -0.4117,1.659 -0.2945,4.156 -1.8907,4.767 -0.2871,0.111 -0.4691,-0.397 -0.7038,-0.595"
       id="path625" /><path
       style="fill:none;stroke:#00ffff;stroke-width:1"
       d="m 3446.1844,22327.958 c 1.2919,6.376 5.4065,10.644 10.9932,13.627"
       id="path627" /><path
       style="fill:none;stroke:#00ffff;stroke-width:1"
       d="m 3489.1014,22295.578 c -1.7735,0.371 -4.1548,-0.274 -5.3205,1.113 -2.4739,2.943 -3.4547,6.916 -4.5292,10.607 -3.8483,13.219 5.428,17.412 16.6654,14.343"
       id="path629" /><path
       style="fill:none;stroke:#00ffff;stroke-width:1"
       d="m 3502.2491,22322.118 c 1.1432,-0.954 2.1883,-2.039 3.4298,-2.861 8.8233,-5.838 6.5055,4.635 4.4852,8.899 -2.0267,4.278 -3.5132,6.234 -6.2439,9.774 -0.8739,1.133 -3.6521,2.931 -2.3747,3.575 0.057,0.03 18.7542,-2.77 12.0926,0.398"
       id="path631" /><path
       style="fill:none;stroke:#00ffff;stroke-width:1"
       d="m 3499.5667,22333.997 c 4.621,-1.301 10.9424,-4.546 16.0499,-3.854"
       id="path633" /><path
       style="fill:none;stroke:#00ffff;stroke-width:1"
       d="m 3522.872,22167.61 c 0.7038,3.073 1.6891,6.094 2.1109,9.217 2.3225,17.202 2.2494,34.643 3.3416,51.966 2.431,38.556 5.5875,77.034 0.176,115.493"
       id="path635" /><path
       style="fill:none;stroke:#00ffff;stroke-width:1"
       d="m 3538.6581,22160.022 c 2.9755,6.264 6.8787,12.166 8.9265,18.792 0.5054,1.635 10.6738,55.907 10.7291,56.217 5.0017,28.047 8.5323,52.765 -1.0112,80.531 -2.2304,6.489 -8.0584,20.499 -13.1919,26.937 -0.9331,1.17 -2.5209,1.615 -3.7814,2.423"
       id="path637" /><path
       style="fill:none;stroke:#00ffff;stroke-width:1"
       d="m 3586.4797,22257.022 c 8.2838,-0.544 16.4579,-2.114 24.6245,-3.536 1.1882,-0.206 2.3625,-0.507 3.5618,-0.635 0.1868,-0.02 0.6602,0.07 0.5276,0.198 -0.4662,0.468 -1.1433,0.663 -1.715,0.994"
       id="path639" /><path
       style="fill:none;stroke:#00ffff;stroke-width:1"
       d="m 3592.196,22267.948 c 8.649,2.025 17.1437,0.869 25.8559,1.549"
       id="path641" /><path
       style="fill:none;stroke:#00ffff;stroke-width:1"
       d="m 3667.3646,22253.454 c 5.5657,7.683 4.3682,4.349 6.2878,12.515 0.586,2.493 1.343,4.963 1.6272,7.509 0.232,2.079 0.359,4.232 -0.088,6.277 -0.308,1.408 -1.1142,2.732 -2.1106,3.774 -5.869,6.134 -14.5542,-16.182 -1.2314,-14.978"
       id="path643" /><path
       style="fill:none;stroke:#00ffff;stroke-width:1"
       d="m 3679.5007,22271.412 c 1.4219,0.106 2.8425,0.405 4.2654,0.317 1.4031,-0.09 2.7839,-0.441 4.1333,-0.834 11.3546,-3.309 7.7018,-9.992 -1.2311,-4.926 -2.6096,1.48 -6.2148,2.598 -7.1676,5.443 -1.8087,5.4 7.9674,10.837 12.0484,10.488 2.5781,-0.22 3.2533,-0.862 5.0569,-2.026"
       id="path645" /><path
       style="fill:none;stroke:#00ffff;stroke-width:1"
       d="m 3701.3111,22257.348 c 0.6808,3.069 4.5596,23.135 0.5276,24.274"
       id="path647" /><path
       style="fill:none;stroke:#00ffff;stroke-width:1"
       d="m 3694.5833,22271.809 c 14.4034,-0.603 8.9498,-1.495 16.5775,0.159"
       id="path649" /><path
       style="fill:none;stroke:#00ffff;stroke-width:1"
       d="m 3725.8475,22230.808 c -12.2952,17.006 -16.3441,39.683 -8.6624,59.475 2.6627,6.861 8.5693,11.948 11.7406,18.514"
       id="path651" /><path
       style="fill:none;stroke:#00ffff;stroke-width:1"
       d="m 3342.7379,22361.352 c 3.2972,4.195 5.8578,8.568 10.3333,11.521 8.4195,5.556 19.9355,6.047 29.2856,2.98 3.0785,-1.01 15.2943,-8.759 18.6442,-5.92 3.3583,2.847 7.7623,19.419 11.6527,17.401 2.1691,-1.124 6.4038,-7.562 7.1234,-8.462 4.5485,-5.687 12.5095,-16.054 21.1508,-15.256 13.2493,1.224 16.809,10.134 25.328,19.07 1.2222,1.282 5.461,4.736 7.4314,4.926 10.0901,0.976 15.1905,-8.792 19.2598,-16.209 1.206,-2.198 6.2799,-9.868 5.9801,-13.349 -0.2336,-2.715 -5.4679,-0.898 -5.7602,-0.874"
       id="path653" /><path
       style="fill:none;stroke:#00ffff;stroke-width:1"
       d="m 3423.8226,22439.618 c -3.3655,-6.142 -5.674,-11.983 -7.1234,-18.951 -1.1914,-5.726 -1.9881,-11.527 -3.0342,-17.282 -0.2733,-1.503 -0.281,-3.103 -0.9234,-4.489 -0.1765,-0.381 -0.5387,0.67 -0.6596,1.073 -0.4413,1.468 -0.6808,2.991 -1.0113,4.489 -0.6514,2.952 -1.2845,5.907 -1.9349,8.86 -1.3234,6.007 -2.0372,15.538 -7.0355,19.944 -2.213,1.95 -3.4383,-25.411 -3.9134,-25.626 -0.046,-0.02 -1.496,1.618 -3.0782,4.529 -3.0954,5.695 -5.6788,11.744 -7.8711,17.839 -0.6813,1.894 -1.3422,3.797 -1.9346,5.721 -0.3461,1.124 -0.136,2.505 -0.8795,3.416 -0.8636,1.059 -2.3746,1.351 -3.5618,2.027 1.0214,-5.804 3.8039,-11.025 6.2441,-16.329 0.792,-1.721 1.6679,-3.384 2.4185,-5.125 1.4352,-3.329 3.0225,-6.572 4.0454,-10.051 0.063,-0.216 1.1606,-3.484 1.2313,-3.457 0.9276,0.359 1.6018,4.428 1.8028,5.125 0.5193,1.801 5.1471,21.853 6.7278,23.123 0.097,0.08 0.778,-2.328 1.0993,-3.417 0.5241,-1.776 1.1356,-3.402 1.583,-5.205 1.6265,-6.551 2.9922,-13.233 4.2653,-19.864 0.093,-0.482 1.0939,-6.56 1.9348,-5.801 1.4216,1.285 2.4812,11.641 2.9022,13.31 1.3164,5.217 1.6982,5.271 3.4298,10.29 1.8163,5.264 3.5829,10.546 5.2766,15.851 0.6341,1.986 -1.5306,-3.893 -2.0227,-5.919 -0.5378,-2.214 -0.6928,-4.505 -1.0553,-6.754 -1.1856,-7.358 -1.9233,-14.686 -4.2213,-21.812 -0.5147,-1.595 -0.8091,-3.125 -1.2312,-4.727 -0.1336,-0.507 -0.079,-1.89 -0.4398,-1.51 -1.9654,2.072 -4.1526,20.894 -4.2213,21.295 -0.5498,3.205 -1.2381,6.803 -2.0667,9.972 -0.5155,1.971 -1.274,3.89 -1.9788,5.8 -0.1149,0.312 -0.1494,1.137 -0.3957,0.914 -1.0082,-0.911 -1.4469,-8.506 -1.627,-9.773 -0.8877,-6.248 -1.7413,-12.333 -3.6937,-18.355 -0.2501,-0.772 -1.2614,-3.258 -1.3191,-3.258 -0.5426,0 -0.2235,1.062 -0.3518,1.589 -0.7154,2.94 -1.7135,6.805 -2.8582,9.535 -4.8668,11.608 -4.0269,7.39 -9.9817,19.825 -2.5357,5.295 0.1843,2.674 1.2312,1.073"
       id="path655" /><path
       style="fill:none;stroke:#00ffff;stroke-width:1"
       d="m 3729.6745,22286.823 c 1.7936,-7.078 3.5621,-14.132 5.7605,-21.096 0.486,-1.54 1.0027,-3.07 1.4949,-4.608 0.2114,-0.661 0.035,-1.608 0.6157,-1.987 0.5717,-0.373 -0.064,0.922 0.1759,5.523 0.118,2.266 0.5308,7.66 1.2753,10.21 0.4088,1.401 1.0528,4.515 2.2865,3.734 5.0083,-3.167 5.4631,-13.979 5.9362,-19.189 0.073,-0.804 0.056,-1.615 0.044,-2.423 0,-0.162 -0.093,-0.639 -0.088,-0.477 0.071,2.385 0.3223,3.369 1.0552,6.039 0.5685,2.071 1.2678,4.103 1.8909,6.158 1.6018,5.284 3.1859,10.503 3.5619,16.051"
       id="path659" /><path
       style="fill:none;stroke:#00ffff;stroke-width:1"
       d="m 3764.1489,22285.671 c 0.5715,-1.178 2.8935,-2.964 1.7147,-3.535 -1.1784,-0.572 -1.021,2.424 -1.7147,3.535 -1.419,2.273 -7.026,6.348 -4.4852,10.211 3.3337,5.068 12.9735,-4.482 8.8384,-8.383 -1.1446,-1.08 -2.9022,-1.218 -4.3532,-1.828 z"
       id="path661" /><path
       style="fill:none;stroke:#00ffff;stroke-width:1"
       d="m 3778.8796,22280.705 c -7.1345,0.02 -6.1894,19.227 -2.6385,19.944 4.0318,0.815 8.9633,-6.539 8.3548,-10.012 -1.4301,-8.16 -18.845,3.55 -8.6186,-0.119"
       id="path663" /><path
       style="fill:none;stroke:#00ffff;stroke-width:1"
       d="m 3770.7008,22222.7 c 2.1838,2.119 5.3379,3.567 6.5518,6.357 4.666,10.727 9.7621,40.735 11.125,51.092 1.7653,13.416 3.1149,29.221 1.2753,42.947 -1.029,7.676 -4.463,25.349 -13.2358,29.758 -0.8615,0.433 -1.4949,-1.219 -2.2426,-1.828"
       id="path665" /><path
       style="fill:none;stroke:#00ffff;stroke-width:1"
       d="m 3826.2553,22276.859 c 0.6927,6.579 -3.8944,-0.775 -5.2769,0.318 -1.3821,1.093 3.529,-0.09 5.2769,-0.318 3.8579,-0.492 7.7179,-0.976 11.5647,-1.549 0.7868,-0.118 3.1009,-0.716 2.3304,-0.517 -1.2449,0.322 -2.4905,0.641 -3.7375,0.954 -1.7579,0.441 -3.475,1.114 -5.2768,1.311 -1.6185,0.177 -6.4165,0.343 -4.8808,-0.199 1.9206,-0.677 16.4449,-1.925 18.2486,0"
       id="path667" /><path
       style="fill:none;stroke:#00ffff;stroke-width:1"
       d="m 3897.9291,22262.936 c 1.9203,1.483 4.3534,2.473 5.7605,4.449 3.9224,5.511 2.763,15.643 -2.0228,20.143 -0.7977,0.75 -3.902,2.896 -5.4964,1.47 -4.5744,-4.09 -2.0344,-12.998 4.2651,-13.786 4.9135,-0.615 10.2872,3.287 14.9947,0.795 5.298,-2.805 3.7743,-10.487 -0.4837,-8.026 -15.2381,8.809 -4.065,24.511 5.2327,16.567 1.1906,-1.017 1.9346,-2.463 2.9022,-3.695"
       id="path669" /><path
       style="fill:none;stroke:#00ffff;stroke-width:1"
       d="m 3925.6317,22265.439 c -0.4691,-1.656 0.2482,-5.436 -1.407,-4.967 -1.6555,0.469 1.3758,3.246 1.407,4.967 0.073,4.002 -1.1242,7.955 -1.0993,11.958 0.019,3.1 0.9342,6.132 1.2311,9.217 0.1143,1.187 0.5083,2.498 0,3.576 -0.2757,0.585 -1.2605,0.291 -1.8907,0.437"
       id="path671" /><path
       style="fill:none;stroke:#00ffff;stroke-width:1"
       d="m 3918.5962,22280.377 c 3.0443,-6.393 7.5012,-5.678 13.4554,-5.284"
       id="path673" /><path
       style="fill:none;stroke:#00ffff;stroke-width:1"
       d="m 3953.1585,22224.835 c -12.768,15.714 -19.7858,37.657 -14.0272,57.767 3.3861,11.825 12.2023,18.331 20.1393,26.698"
       id="path675" /><path
       style="fill:none;stroke:#00ffff;stroke-width:1"
       d="m 3636.6778,22272.148 c -5.229,0.263 -4.0675,-0.869 -6.9914,4.887 -0.808,1.59 -1.4787,3.27 -1.891,5.006 -3.0382,12.79 17.2633,-2.988 11.8727,-4.966 -1.1568,-0.425 -1.6246,2.066 -1.6711,3.297 -0.1043,2.755 3.7256,5.697 5.1009,7.827"
       id="path780" /><path
       style="fill:none;stroke:#00ffff;stroke-width:1"
       d="m 3657.8725,22287.841 c -2.631,6.603 -6.481,12.599 -9.9817,18.752 -0.5744,1.01 -0.8607,2.227 -1.6708,3.059 -0.4168,0.429 0.2929,-1.159 0.3955,-1.748 0.2786,-1.597 0.4985,-3.205 0.7477,-4.807"
       id="path782" /><path
       style="fill:none;stroke:#00ffff;stroke-width:1"
       d="m 3647.1873,22288.119 c 2.0471,7.489 8.7548,12.676 11.9166,19.428"
       id="path784" /><path
       style="fill:none;stroke:#00ffff;stroke-width:1"
       d="m 3651.9757,22341.161 c -1.2832,7.599 -2.0412,15.184 -1.8468,22.884 0.033,1.315 0.1762,5.242 0.3077,3.933 0.5721,-5.684 -0.5506,-11.419 -0.088,-17.083 0.268,-3.279 1.6269,-6.445 1.6269,-9.734 0,-2.432 -1.1755,-4.722 -1.6269,-7.112 -0.093,-0.494 0.4175,-1.847 0.044,-1.509 -0.7604,0.687 -8.7085,11.43 -9.6737,10.17 -0.721,-0.941 10.7895,-16.543 12.3121,-17.322 1.3182,-0.674 0.1961,2.968 0.5276,4.41 0.6922,3.012 1.3817,6.078 2.7263,8.86 2.1376,4.422 7.1374,6.304 9.9817,10.091"
       id="path786" /><path
       style="fill:none;stroke:#00ffff;stroke-width:1"
       d="m 3631.0464,22422.941 c 1.2165,-2.41 2.5543,-4.763 3.6496,-7.231 1.1354,-2.557 2.0402,-5.211 3.0343,-7.826 0.5157,-1.358 0.9774,-2.735 1.4949,-4.092 0.3767,-0.988 0.6352,-2.039 1.1872,-2.94 0.3693,-0.603 0.028,0.544 0.264,3.218 0.052,0.595 0.6456,11.09 3.1218,10.727 11.4279,-1.674 7.8463,-23.896 9.8939,-4.847 0.1958,1.821 0.3992,3.645 0.7474,5.443 1.4055,7.255 0.8813,5.596 3.298,10.449"
       id="path788" /><path
       style="fill:none;stroke:#00ffff;stroke-width:1"
       d="m 3673.5676,22399.024 c -11.5001,-1.676 -7.5917,0.331 -6.6398,8.105 0.6922,5.654 0.5956,11.589 -0.4397,17.203 -0.5228,2.833 -1.165,4.447 -2.1108,6.873 -0.2173,0.557 -1.0258,2.141 -0.6596,1.669 2.6397,-3.407 6.3129,-4.909 10.6854,-4.728 1.9516,0.08 2.4091,1.616 2.1545,1.271"
       id="path790" /><path
       style="fill:none;stroke:#00ffff;stroke-width:1"
       d="m 3685.2643,22409.195 c -7.4388,0.256 -4.7694,10.237 2.2426,8.025 2.6313,-0.83 7.1083,-6.784 1.9785,-8.184 -5.9692,-1.63 -13.226,6.359 -8.3545,-1.51"
       id="path792" /><path
       style="fill:none;stroke:#00ffff;stroke-width:1"
       d="m 3684.7364,22399.779 c 1.0401,8.811 2.2654,17.575 1.583,26.46 -0.072,0.936 -0.2511,1.861 -0.4397,2.781 -0.033,0.16 -0.2069,0.599 -0.2199,0.437 -0.055,-0.7 0.059,-1.404 0.088,-2.106"
       id="path794" /><path
       style="fill:none;stroke:#00ffff;stroke-width:1"
       d="m 3694.3225,22394.892 c 2.6752,-0.316 7.6169,-2.577 10.4654,-1.191 0.3905,0.19 -1.7111,4.443 -2.0667,7.906 -0.5908,5.752 1.5507,11.15 5.2766,15.335 1.3613,1.529 -8.014,0.755 -9.9378,0.755 -1.8766,0 -2.5196,0.605 -0.6154,0.834"
       id="path796" /><path
       style="fill:none;stroke:#00ffff;stroke-width:1"
       d="m 3722.2448,22385.556 c -9.5977,1.517 -6.1859,3.465 -5.6285,11.124 0.2255,3.095 0.1194,7.442 0,10.449 -0.2902,7.325 -0.3243,6.875 -0.7035,12.356 -0.1161,1.681 -0.317,3.674 -0.044,3.615 2.5619,-0.551 4.9392,-2.059 7.5192,-2.662 0.5868,-0.137 3.8772,-0.78 4.8371,-0.08 0.5916,0.432 0.1442,2.168 -0.4397,1.112"
       id="path798" /><path
       style="fill:none;stroke:#00ffff;stroke-width:1"
       d="m 3736.7117,22395.369 c -1.2311,2.543 -2.985,4.893 -3.6936,7.628 -1.7954,6.929 15.4519,1.227 10.6852,-7.469 -0.3453,-0.63 -0.8205,-1.493 -1.5391,-1.51 -1.8719,-0.04 -3.6129,1.001 -5.4525,1.351 -2.1378,0.406 -4.3365,0.456 -6.4638,0.914 -0.3728,0.08 -1.1723,0.964 -0.9234,0.675 3.2026,-3.72 1.9492,-2.554 7.3872,-1.589 z"
       id="path800" /><path
       style="fill:none;stroke:#00ffff;stroke-width:1"
       d="m 3737.4152,22384.92 c -0.998,8.957 3.5947,20.838 1.2753,29.519"
       id="path802" /><path
       style="fill:none;stroke:#00ffff;stroke-width:1"
       d="m 3747.8808,22373.597 c -0.3691,3.647 10.2838,1.422 11.125,3.854 0.6059,1.752 -1.7421,6.839 -1.8468,8.661 -0.394,6.842 1.2467,14.064 6.9474,18.435 5.1938,3.981 -0.016,-0.503 2.5945,1.311 0.953,0.662 -2.3254,0.07 -3.4737,0.238 -1.7166,0.252 -3.4229,0.593 -5.1009,1.033 -2.3135,0.607 -4.5932,1.342 -6.8596,2.106 -1.6637,0.56 -3.2906,1.226 -4.925,1.867 -1.0334,0.405 -2.0523,0.847 -3.0781,1.271 -0.1908,0.08 -0.5342,0.442 -0.5715,0.239 -0.1228,-0.666 1.0885,-0.808 1.6708,-1.153"
       id="path804" /><path
       style="fill:none;stroke:#00ffff;stroke-width:1"
       d="m 3874.8385,22270.851 c -1.6563,0.119 -3.496,-0.41 -4.9689,0.357 -4.4423,2.312 -12.0123,18.449 1.8029,14.899 3.5711,-0.918 10.9992,-5.061 10.4214,-9.813 -0.3651,-3.002 -7.1946,-8.466 -7.2554,-5.443 -0.1524,7.534 8.1161,12.271 7.5192,19.824"
       id="path806" /><path
       style="fill:none;stroke:#00ffff;stroke-width:1"
       d="m 3891.4599,22288.133 c -0.8028,0.02 -6.8445,24.271 -6.508,14.541"
       id="path808" /><path
       style="fill:none;stroke:#00ffff;stroke-width:1"
       d="m 3883.7208,22289.881 c 1.3475,2.408 5.4369,4.906 4.925,8.144"
       id="path810" /><path
       style="fill:none;stroke:#00ffff;stroke-width:1"
       d="m 3881.6102,22329.968 c 0.1757,-1.099 1.6267,-3.122 0.5276,-3.298 -1.0991,-0.175 -0.3506,2.199 -0.5276,3.298 -1.0996,6.82 -2.1439,13.643 -2.6384,20.54 -0.1923,2.683 -0.2749,5.51 0,5.403 0.5458,-0.211 0.6014,-1.022 0.7475,-1.589 0.5021,-1.949 0.8818,-3.931 1.1874,-5.92 0.2873,-1.872 1.451,-13.761 1.451,-14.739 0,-1.257 -0.753,-2.439 -0.7475,-3.695 0.01,-2.227 0.6631,-4.411 0.7914,-6.635 0.1437,-2.489 -0.7242,-3.441 -0.7914,-3.417 -0.8276,0.294 -1.3501,1.133 -1.9349,1.788 -2.4087,2.699 -4.6841,5.514 -7.0355,8.264 -0.639,0.747 -1.3414,1.441 -1.9349,2.225 -0.1749,0.231 -0.6231,0.895 -0.3516,0.794 3.9267,-1.461 7.902,-6.841 10.5973,-9.892 1.5373,-1.741 2.3802,-4.253 4.3971,-5.403 0.2469,-0.141 -0.1243,0.554 -0.1759,0.834 -0.2709,1.468 -0.3474,2.984 -0.7914,4.41 -0.7488,2.405 -3.6581,4.674 -2.7702,7.032 0.5567,1.479 9.0157,7.108 11.125,10.846"
       id="path812" /><path
       style="fill:none;stroke:#00ffff;stroke-width:1"
       d="m 3845.9486,22397.031 c 3.5529,-9.302 0.8536,-1.945 3.9574,-11.204 0.4506,-1.344 0.9215,-2.681 1.4073,-4.012 0.8067,-2.213 1.5859,-7.426 2.4183,-1.947 0.5678,3.738 0.8784,7.513 1.4952,11.243 0.2781,1.682 0.098,5.6 1.6269,4.847 3.7642,-1.855 6.0018,-10.469 7.1676,-13.746 1.4848,-4.174 1.2914,-5.236 1.3631,-4.847 0.4326,2.345 -0.027,4.779 0.2199,7.151 0.254,2.445 0.6461,4.873 0.9673,7.31 0.5416,4.107 0.9377,8.281 2.1106,12.237"
       id="path814" /><path
       style="fill:none;stroke:#00ffff;stroke-width:1"
       d="m 3893.4387,22373.67 c -3.434,-2.714 -10.2105,1.464 -10.1576,5.046 0.027,1.827 3.1856,6.447 3.4737,8.462 0.4392,3.07 0.3614,6.196 0.3519,9.297 -0.01,1.959 -2.8075,15.74 -2.7702,15.812 0.1476,0.283 2.0807,-1.151 5.1006,-2.265 3.3928,-1.251 6.9901,-1.748 10.5974,-1.748"
       id="path816" /><path
       style="fill:none;stroke:#00ffff;stroke-width:1"
       d="m 3898.7658,22391.48 c -1.3295,-0.177 1.628,-8.429 1.0554,-4.926 -0.2706,1.657 -1.1342,3.248 -1.0554,4.926 0.1432,3.037 1.5134,8.59 1.9788,12.237"
       id="path818" /><path
       style="fill:none;stroke:#00ffff;stroke-width:1"
       d="m 3907.1647,22373.046 c 15.7483,-5.55 10.1905,1.159 9.8058,11.958 -0.1368,3.841 -0.047,7.714 0.4836,11.521 0.6035,4.333 2.9986,8.1 5.4526,11.562 0.3542,0.5 1.1715,1.029 0.9234,1.589 -0.3403,0.769 -15.6827,3.825 -15.742,3.019 -0.046,-0.628 1.205,-1.695 1.5391,-2.026"
       id="path820" /><path
       style="fill:none;stroke:#00ffff;stroke-width:1"
       d="m 3933.8998,22387.308 c 3.9278,-10.843 -6.9257,12.192 1.0113,10.529 6.2881,-1.318 8.8939,-8.489 6.5518,-13.906 -0.4966,-1.149 -1.1239,-2.514 -2.2865,-2.979 -12.0533,-4.822 -19.4939,15.455 -8.0028,1.986"
       id="path822" /><path
       style="fill:none;stroke:#00ffff;stroke-width:1"
       d="m 3934.0758,22373.046 c 1.28,10.024 1.5425,20.11 1.8029,30.194 0.064,2.492 -0.2583,6.728 0.7913,9.217"
       id="path824" /><path
       style="fill:none;stroke:#00ffff;stroke-width:1"
       d="m 3930.7778,22368.795 c -1.2899,-0.438 -2.5094,-1.377 -3.8696,-1.312 -3.2742,0.158 1.461,14.164 1.6709,15.455 1.5994,9.838 -0.011,19.222 -0.4837,29.042 -0.019,0.368 -0.893,6.384 0.308,6.476 0.2871,0.02 12.5703,-5.529 12.1362,-4.012 -0.2252,0.786 -0.9967,1.297 -1.4949,1.946"
       id="path826" /><path
       style="fill:none;stroke:#00ffff;stroke-width:1"
       d="m 3942.1226,22371.456 c 2.1399,-0.119 4.537,-1.381 6.4201,-0.357 4.4915,2.443 1.8671,26.491 3.7814,32.697 0.9525,3.088 1.7918,3.765 4.6612,4.013 1.8957,0.163 5.0755,-0.968 5.1009,-0.716 0.1116,1.112 -15.598,5.881 -16.314,6.079 -1.4234,0.395 -9.2654,3.874 -6.9913,-0.477"
       id="path828" /><path
       style="fill:none;stroke:#00ffff;stroke-width:1"
       d="m 3983.8963,22333.157 c 0.6128,-2.455 0.4463,-8.628 0,0 z"
       id="path830" /><path
       style="fill:none;stroke:#00ffff;stroke-width:1"
       d="m 3959.9065,22288.984 c 0.8356,-2.702 1.6899,-5.397 2.5064,-8.105 4.4733,-14.832 -0.4696,0.975 4.1775,-13.746 0.4977,-1.576 1.0065,-3.149 1.4949,-4.728 0.2003,-0.647 0.6358,-2.581 0.7038,-1.907 0.2971,2.953 -0.084,16.502 3.4737,15.057 3.6971,-1.501 10.4609,-20.188 8.6186,-22.407 -1.0078,-1.214 -0.3988,3.16 -0.2199,4.728 0.2484,2.175 0.6519,4.332 1.0993,6.476 0.3742,1.793 0.92,3.546 1.3632,5.324 1.026,4.115 1.9447,8.2 2.7702,12.355"
       id="path832" /><path
       style="fill:none;stroke:#00ffff;stroke-width:1"
       d="m 3997.1072,22278.614 c 1.7436,6.094 -3.22,14.19 -1.4952,19.905"
       id="path834" /><path
       style="fill:none;stroke:#00ffff;stroke-width:1"
       d="m 4008.2761,22282.19 c -11.543,19.21 13.1074,5.39 10.9492,-1.589 -0.3241,-1.048 -0.9699,-2.14 -1.9349,-2.662 -5.7655,-3.118 -4.5503,1.407 -9.0143,4.251 -2.1146,1.348 -5.2488,0.829 -7.0795,2.543 -0.7276,0.681 1.2607,2.363 2.1987,2.026 2.0973,-0.753 3.2538,-3.046 4.8808,-4.569 z"
       id="path836" /><path
       style="fill:none;stroke:#00ffff;stroke-width:1"
       d="m 4009.2876,22271.384 c -0.2054,2.463 -0.5575,4.919 -0.6157,7.389 -0.1683,7.125 0.222,14.253 0.4836,21.375 0.117,3.181 0.2596,6.363 0.5276,9.535 0.041,0.48 -0.01,1.654 0.3958,1.391 0.5438,-0.355 0.2638,-1.272 0.3958,-1.908"
       id="path838" /><path
       style="fill:none;stroke:#00ffff;stroke-width:1"
       d="m 4005.154,22213.18 c 11.6096,11.416 16.2689,27.556 20.9748,42.749 4.708,15.2 9.67,32.96 7.0356,49.106 -0.7441,4.56 -3.8799,13.946 -8.4426,17.282 -0.6319,0.462 -1.3486,-0.795 -2.0228,-1.192"
       id="path840" /><path
       style="fill:none;stroke:#00ffff;stroke-width:1"
       d="m 4076.1893,22256.61 c -4.3762,10.037 -2.0362,21.167 -1.451,31.744"
       id="path842" /><path
       style="fill:none;stroke:#00ffff;stroke-width:1"
       d="m 4067.307,22278.024 c 7.3668,-2.529 15.2212,-1.19 22.6896,0.159"
       id="path844" /><path
       style="fill:none;stroke:#00ffff;stroke-width:1"
       d="m 4111.5839,22263.822 c -1.43,0.431 -3.198,0.274 -4.2907,1.292 -2.0518,1.912 -3.3798,4.514 -4.6329,7.023 -0.5492,1.1 -1.0935,2.465 -0.6839,3.624 3.2705,9.26 17.2318,-5.745 14.9246,-8.961 -0.8609,-1.2 -3.6491,2.976 -3.8867,6.546 -0.3244,4.874 3.1766,10.174 6.654,13.315"
       id="path846" /><path
       style="fill:none;stroke:#00ffff;stroke-width:1"
       d="m 4129.8047,22285.172 c 1.4404,-1.095 2.7485,-2.392 4.3217,-3.286 6.7138,-3.818 4.8544,4.369 3.4825,7.163 -0.1434,0.293 -7.8978,11.772 -7.742,12.221 0.4567,1.316 3.7502,1.804 4.8504,2.219 0.7998,0.302 2.3132,0.861 3.1406,1.349 1.3522,0.797 2.4908,2.417 0.8395,-0.141"
       id="path848" /><path
       style="fill:none;stroke:#00ffff;stroke-width:1"
       d="m 4131.5769,22295.511 c -0.8292,-0.534 -1.6584,-1.068 -2.4873,-1.602 -0.2384,-0.103 -0.9697,-0.256 -0.7152,-0.309 5.3491,-1.1 12.1108,-1.54 17.5675,-2.191"
       id="path850" /><path
       style="fill:none;stroke:#00ffff;stroke-width:1"
       d="m 4151.4453,22258.035 c 3.1734,5.254 11.7581,13.176 7.9287,20.17 -0.7104,1.298 -2.6879,2.707 -4.3217,1.911 -2.5476,-1.242 -5.5927,-7.234 -1.4615,-8.709 4.5836,-1.637 9.6993,2.171 14.1475,-0.141 1.4539,-0.755 3.933,-4.84 1.0261,-5.758 -3.225,-1.019 -5.6404,4.453 -5.8767,6.517 -0.7091,6.192 4.2156,9.949 9.5144,6.658"
       id="path852" /><path
       style="fill:none;stroke:#00ffff;stroke-width:1"
       d="m 4177.5636,22261.237 c -0.9631,9.744 -0.4553,9.991 1.2438,17.053"
       id="path854" /><path
       style="fill:none;stroke:#00ffff;stroke-width:1"
       d="m 4172.1844,22270.789 c 5.0437,-1.358 8.9606,0.5 13.6811,0.927"
       id="path856" /><path
       style="fill:none;stroke:#00ffff;stroke-width:1"
       d="m 4198.8001,22234.1 c -1.5753,2.94 -3.5356,5.705 -4.726,8.821 -4.7355,12.396 -8.31,32.949 0.5284,44.415 2.8694,3.722 5.8015,5.371 9.4835,7.866"
       id="path858" /><path
       style="fill:none;stroke:#00ffff;stroke-width:1"
       d="m 4209.1263,22272.483 c 0.4871,-1.816 1.0308,-3.619 1.4613,-5.45 0.4924,-2.094 0.8207,-4.224 1.306,-6.321 0.3236,-1.398 0.7297,-2.776 1.1192,-4.157 0.1494,-0.53 0.118,-1.176 0.4976,-1.574 0.186,-0.195 0.2331,0.494 0.2797,0.759 0.2342,1.332 0.3564,2.681 0.5599,4.017 0.3172,2.086 0.4632,9.212 2.3317,10.9 1.8807,1.7 4.4876,-11.828 4.6953,-12.838 0.1715,-0.834 0.3183,-1.675 0.5284,-2.5 0.03,-0.117 0.1379,-0.419 0.1865,-0.309 2.6546,5.995 3.6349,13.349 4.322,19.833"
       id="path860" /><path
       style="fill:none;stroke:#00ffff;stroke-width:1"
       d="m 4231.7879,22280.677 c -0.2593,-1.133 -0.8647,-2.24 -0.7774,-3.399 0.05,-0.67 2.0093,-1.148 1.9587,-0.478 -0.1013,1.347 -1.2427,2.528 -1.1813,3.877 0.069,1.54 1.8213,2.837 1.5546,4.355 -0.481,2.737 -2.3016,5.064 -3.638,7.5 -0.4119,0.751 -1.0371,1.365 -1.5856,2.023 -0.1164,0.14 -0.3609,0.542 -0.4043,0.365 -0.5432,-2.208 6.8985,-5.425 9.1414,-3.736"
       id="path866" /><path
       style="fill:none;stroke:#00ffff;stroke-width:1"
       d="m 4242.2974,22282.503 c -3.1499,-1.748 -4.8173,4.515 -2.8919,5.816 2.6728,1.805 6.3283,-1.381 7.4625,-3.568 0.3903,-0.753 0.5575,-1.658 0.4662,-2.501 -0.3648,-3.368 -3.6814,-0.314 -5.0368,0.253 -1.3015,0.545 -2.7012,0.888 -3.918,1.602 -0.2527,0.148 -0.296,0.553 -0.2487,0.842 0.091,0.556 0.6726,-0.938 1.1504,-1.236 0.9197,-0.572 2.0109,-0.805 3.0163,-1.208 z"
       id="path868" /><path
       style="fill:none;stroke:#00ffff;stroke-width:1"
       d="m 4242.4527,22273.289 c 0.7424,23.258 -0.016,1.515 0.7773,20.03 0.068,1.573 0.088,3.147 0.1556,4.72 0.016,0.347 -0.011,1.371 0.093,1.039 0.1442,-0.455 0.021,-0.955 0.031,-1.433"
       id="path870" /><path
       style="fill:none;stroke:#00ffff;stroke-width:1"
       d="m 4231.5079,22277.25 c 1.9987,3.399 -3.9618,4.155 -4.3841,6.827 -0.063,0.4 0.4847,-0.65 0.7152,-0.984 0.6818,-0.987 1.3832,-1.962 2.0211,-2.978 0.5858,-0.933 0.6548,-3.343 1.6478,-2.865 5.9751,2.873 -1.4293,15.661 -5.4723,16.575 -0.1249,0.03 0.191,-0.18 0.3108,-0.225 1.4166,-0.53 3.4251,-0.882 4.7885,-0.983 1.6883,-0.125 12.8934,0.876 7.5866,3.905"
       id="path872" /><path
       style="fill:none;stroke:#00ffff;stroke-width:1"
       d="m 4241.2711,22227.441 c 8.5023,18.623 20.3607,39.296 16.4171,60.625 -0.6739,3.646 -2.2574,7.091 -3.8865,10.422 -2.7932,5.711 -7.2165,12.246 -12.1573,16.462"
       id="path874" /><path
       style="fill:none;stroke:#00ffff;stroke-width:1"
       d="m 4120.0538,22338.863 c -4.4355,-1.882 0.5326,-5.491 -0.1865,-8.091 -0.05,-0.18 -0.01,0.375 0,0.562 0.058,2.51 0.021,5.024 0.1865,7.529 0.577,8.773 5.2594,33.332 2.7982,41.634 -1.0297,3.473 -1.3957,-4.194 -1.3679,-12.586 0.019,-5.903 1.0779,-11.819 0.5596,-17.699 -0.3373,-3.826 -2.1775,-7.513 -1.9899,-11.349 0.1743,-3.571 2.1913,-6.811 3.0469,-10.282 3.0946,-12.552 -17.2847,18.248 -17.4119,18.541 -0.7321,1.684 2.6683,-2.533 3.8555,-3.933 2.6281,-3.099 11.9946,-15.604 15.3601,-17.081 0.2969,-0.13 0.1185,0.639 0.1863,0.956 0.4296,2.005 0.6781,4.059 1.3059,6.012 1.7614,5.475 5.175,10.395 8.9549,14.664"
       id="path876" /><path
       style="fill:none;stroke:#00ffff;stroke-width:1"
       d="m 4077.9536,22419.995 c 0.2502,-7.01 -0.2464,-4.625 2.2389,-12.53 0.7553,-2.402 1.5827,-4.784 2.4873,-7.135 0.6099,-1.585 1.3623,-3.112 2.0521,-4.663 4.9096,-11.047 0.3868,16.715 6.2188,14.608 4.7397,-1.713 7.62,-11.609 9.0792,-15.563 0.3622,-0.983 0.9043,-4.077 0.8083,-3.035 -0.3628,3.934 -0.6141,3.029 0,8.821 0.2899,2.735 0.6273,5.482 1.3059,8.148 1.9569,7.686 1.5727,6.994 3.9799,10.675"
       id="path878" /><path
       style="fill:none;stroke:#00ffff;stroke-width:1"
       d="m 4127.2674,22392.464 c -18.0679,0.328 -5.9653,6.482 -5.9079,19.496 0.03,6.652 -1.6058,12.975 -3.4822,19.272 -0.1333,0.447 -0.671,0.99 -0.3733,1.349 0.1585,0.19 3.4578,-3.213 6.1566,-4.552 2.5889,-1.284 5.7549,-2.012 6.6537,1.237"
       id="path880" /><path
       style="fill:none;stroke:#00ffff;stroke-width:1"
       d="m 4133.6724,22407.746 c 0.3609,-6.563 10.3222,-11.332 5.9698,-5.393 -1.5851,2.163 -5.4165,2.769 -5.9698,5.393 3.1986,11.626 3.9902,6.561 1.5547,12.811 -1.1054,2.837 6.8466,-2.349 7.4001,-2.529 2.5482,-0.827 2.158,1.327 0.6221,1.967"
       id="path882" /><path
       style="fill:none;stroke:#00ffff;stroke-width:1"
       d="m 4144.7415,22387.183 c -0.8495,3.982 6.2027,1.674 7.7735,4.157 2.3132,3.658 -2.8316,16.832 2.7982,25.733 1.2637,1.998 6.2138,3.769 3.8555,6.574 -1.3009,1.548 -15.2823,8.772 -16.728,7.248 -0.5739,-0.605 0.7858,-3.235 0.9951,-3.708"
       id="path884" /><path
       style="fill:none;stroke:#00ffff;stroke-width:1"
       d="m 4170.7977,22382.182 c -8.8495,9.755 -1.5438,11.03 -0.4977,22.643 0.126,1.396 -1.2004,19.529 -0.373,20.339 2.7127,2.655 15.2355,-6.611 17.4122,-2.303 0.3156,0.624 -0.1807,1.793 -0.8708,1.91 -0.6344,0.107 -0.7461,-1.049 -1.1192,-1.573"
       id="path886" /><path
       style="fill:none;stroke:#00ffff;stroke-width:1"
       d="m 4190.4486,22398.813 c -0.8292,1.966 -2.9417,3.814 -2.4876,5.899 1.1144,5.118 16.1835,-4.991 9.1413,-6.011 -2.1952,-0.318 -4.4357,0.08 -6.6537,0.112 z"
       id="path888" /><path
       style="fill:none;stroke:#00ffff;stroke-width:1"
       d="m 4190.1996,22386.733 c -0.5509,9.727 6.7328,21.87 4.3532,32.082 -0.2188,0.939 -0.6022,-1.849 -0.6842,-2.809"
       id="path890" /><path
       style="fill:none;stroke:#00ffff;stroke-width:1"
       d="m 4199.4656,22377.687 c 1.9899,-0.06 3.9793,-0.199 5.9698,-0.168 21.6505,0.335 4.2875,3.989 8.0843,20.732 1.1496,5.07 4.5127,8.984 8.3328,12.249 0.9403,0.803 3.1242,1.601 2.5498,2.697 -1.6873,3.217 -35.9019,8.368 -20.5838,7.978"
       id="path892" /></g></svg>
