<?xml version="1.0" encoding="UTF-8" standalone="no"?>
<!-- Created with Inkscape (http://www.inkscape.org/) -->

<svg
   width="211.15775mm"
   height="137.03404mm"
   viewBox="0 0 211.15774 137.03404"
   version="1.1"
   id="svg12"
   inkscape:version="1.2.1 (9c6d41e410, 2022-07-14, custom)"
   sodipodi:docname="determinent_chessboard.svg"
   xml:space="preserve"
   xmlns:inkscape="http://www.inkscape.org/namespaces/inkscape"
   xmlns:sodipodi="http://sodipodi.sourceforge.net/DTD/sodipodi-0.dtd"
   xmlns="http://www.w3.org/2000/svg"
   xmlns:svg="http://www.w3.org/2000/svg"><sodipodi:namedview
     id="namedview14"
     pagecolor="#000000"
     bordercolor="#ffffff"
     borderopacity="1"
     inkscape:showpageshadow="0"
     inkscape:pageopacity="0"
     inkscape:pagecheckerboard="0"
     inkscape:deskcolor="#000000"
     inkscape:document-units="mm"
     showgrid="true"
     inkscape:zoom="0.32215995"
     inkscape:cx="802.39644"
     inkscape:cy="457.8471"
     inkscape:window-width="1311"
     inkscape:window-height="697"
     inkscape:window-x="0"
     inkscape:window-y="0"
     inkscape:window-maximized="1"
     inkscape:current-layer="layer1"
     inkscape:lockguides="true" /><defs
     id="defs9"><rect
       x="587.26367"
       y="362.45731"
       width="66.575974"
       height="20.973427"
       id="rect1884" /></defs><g
     inkscape:label="Layer 1"
     inkscape:groupmode="layer"
     id="layer1"
     transform="translate(-3323.7566,-22202.385)"><path
       style="fill:none;stroke:#00ffff;stroke-width:1"
       d="m 3343.7592,22217.781 c -2.8891,20.029 -3.3833,40.429 -6.8596,60.388 -3.0217,17.35 -8.0269,34.297 -10.9052,51.688 -1.6392,9.905 -4.9775,9.232 6.6838,6.119 3.0974,-0.827 6.2079,-1.635 9.3661,-2.186 2.896,-0.505 21.5254,-2.112 22.6458,0.199 0.6592,1.36 -1.7883,2.437 -2.6824,3.655"
       id="path1485" /><path
       style="fill:none;stroke:#00ffff;stroke-width:1"
       d="m 3347.5409,22213.808 c 5.5744,1.341 11.2514,-0.02 16.7974,-0.834 0.9391,-0.139 1.8755,-0.296 2.8142,-0.437 0.2046,-0.03 0.8078,-0.157 0.6156,-0.08 -2.8482,1.135 -11.8989,3.86 -14.4669,3.695 -2.0687,-0.133 -7.7857,-1.902 -5.7603,-2.344 3.9647,-0.865 8.0803,0.829 12.1363,0.953 2.2053,0.07 7.9291,-2.195 6.9916,1.828"
       id="path1487" /><path
       style="fill:none;stroke:#00ffff;stroke-width:1"
       d="m 3380.4321,22227.991 c 0.4397,-1.258 0.8795,-2.516 1.3192,-3.774 0.1612,-0.159 0.5584,-0.69 0.4837,-0.477 -0.5079,1.453 -1.6967,2.716 -1.8029,4.251 -0.3771,5.452 2.0607,17.054 -1.0553,23.679"
       id="path1489" /><path
       style="fill:none;stroke:#00ffff;stroke-width:1"
       d="m 3374.364,22239.711 c 3.701,0 14.5549,-2.559 18.5123,-1.43 1.0869,0.31 -2.1484,0.719 -3.254,0.954 -3.8171,0.811 -7.2091,1.082 -11.081,0.794 -1.3926,-0.103 -5.4579,0.239 -4.1773,-0.318 1.3746,-0.598 11.2659,-0.701 13.7633,-0.913 0.6492,-0.06 2.5703,0.134 1.9347,0.278"
       id="path1491" /><path
       style="fill:none;stroke:#00ffff;stroke-width:1"
       d="m 3432.6272,22236.017 c 1.158,0.264 2.2925,0.67 3.4738,0.794 1.6267,0.171 6.9046,0.159 8.9264,0 0.906,-0.07 3.3929,-0.872 2.5064,-1.073 -4.4245,-0.999 -6.3666,0.07 -10.9491,0.358 -1.3168,0.08 -5.2728,-0.183 -3.9575,-0.08 4.2151,0.333 15.8504,-0.905 19.4358,0.715"
       id="path1493" /><path
       style="fill:none;stroke:#00ffff;stroke-width:1"
       d="m 3475.6761,22219.132 c 0.4544,1.562 1.2858,3.062 1.3631,4.688 0.1023,2.148 -0.54,4.266 -0.8354,6.396 -0.9516,6.86 -2.4083,13.803 -2.6824,20.739"
       id="path1495" /><path
       style="fill:none;stroke:#00ffff;stroke-width:1"
       d="m 3467.5412,22232.083 c 8.1718,-2.235 15.147,-1.659 23.0854,0.08"
       id="path1497" /><path
       style="fill:none;stroke:#00ffff;stroke-width:1"
       d="m 3377.5299,22265.377 c 1.1287,0.503 2.1991,1.165 3.3859,1.509 1.0977,0.319 6.7896,0.837 7.3874,-0.397 0.7538,-1.557 -3.4661,0.236 -5.1888,0.08 -1.8955,-0.172 -3.6919,-1.395 -5.5845,-1.191 -2.1116,0.226 -3.9039,1.677 -5.8922,2.423 -1.9883,0.746 3.7721,-2.299 5.8922,-2.423 3.9994,-0.234 7.9012,1.34 11.8726,1.867 0.9621,0.127 2.138,-0.09 2.8582,0.556 0.2313,0.209 -0.5746,0.253 -0.8795,0.318"
       id="path1499" /><path
       style="fill:none;stroke:#00ffff;stroke-width:1"
       d="m 3374.8477,22292.234 c 0.2784,1.655 0.908,3.289 0.8354,4.966 -0.054,1.253 -2.4027,12.156 -2.7263,13.706 -0.5574,2.672 -0.9353,7.426 -1.1872,4.808"
       id="path1501" /><path
       style="fill:none;stroke:#00ffff;stroke-width:1"
       d="m 3366.0092,22304.907 c 1.1444,-2.009 25.0694,-8.341 23.2174,-4.251"
       id="path1503" /><path
       style="fill:none;stroke:#00ffff;stroke-width:1"
       d="m 3429.725,22257.312 c -4.6843,2.576 1.2735,16.852 -2.5064,21.334"
       id="path1505" /><path
       style="fill:none;stroke:#00ffff;stroke-width:1"
       d="m 3420.8427,22267.721 c 5.5564,-0.628 11.1181,0.403 16.6215,1.072"
       id="path1507" /><path
       style="fill:none;stroke:#00ffff;stroke-width:1"
       d="m 3469.52,22266.568 c 8.7448,1.033 5.3135,1.114 11.7406,0.636 1.3172,-0.1 4.5235,-1.392 3.9574,-0.199 -0.7693,1.622 -9.2642,1.407 -10.1575,1.272 -1.9109,-0.289 -6.8014,-0.244 -5.5405,-1.709 1.4225,-1.652 18.3209,-2.541 21.8102,-2.383"
       id="path1509" /><path
       style="fill:none;stroke:#00ffff;stroke-width:1"
       d="m 3420.7547,22308.523 c -1.3045,0.132 -4.046,-0.908 -3.9135,0.397 0.1324,1.304 2.6458,-0.06 3.9135,-0.397 15.3391,-4.052 -3.0094,-1.066 14.0271,-3.497 0.5395,-0.08 2.0313,-0.524 1.627,-0.159 -1.9417,1.755 -5.001,1.574 -7.5632,2.106 -2.6885,0.559 -9.7019,3.773 -8.0909,1.55 2.2942,-3.167 14.7071,-6.112 18.2485,-2.543"
       id="path1511" /><path
       style="fill:none;stroke:#00ffff;stroke-width:1"
       d="m 3470.3115,22291.24 c 1.1286,0.967 2.8634,1.509 3.3858,2.901 1.192,3.174 -0.8381,15.878 -1.6269,19.507 -0.4874,2.242 -0.7722,4.471 -2.8143,2.542"
       id="path1513" /><path
       style="fill:none;stroke:#00ffff;stroke-width:1"
       d="m 3463.2319,22302.404 c 6.8549,-2.675 14.4604,-1.189 21.7223,-1.589"
       id="path1515" /><path
       style="fill:none;stroke:#00ffff;stroke-width:1"
       d="m 3484.6024,22202.882 c 11.9231,1.314 26.0916,-0.819 35.9254,7.867 6.3297,5.591 2.7975,33.507 2.9022,41 0.2267,16.219 2.4326,31.893 5.1887,47.834 1.543,8.925 3.1799,17.834 4.837,26.738 0.6869,3.691 1.0647,4.207 0.9234,4.132 -5.6287,-2.966 -21.1027,1.941 -25.7678,2.781 -13.4594,2.425 -27.4861,4.909 -41.158,5.681 -1.1072,0.06 2.14,-0.582 3.2099,-0.874"
       id="path1517" /></g></svg>
