<?xml version="1.0" encoding="UTF-8" standalone="no"?>
<!-- Created with Inkscape (http://www.inkscape.org/) -->

<svg
   width="12486.58mm"
   height="2662.6184mm"
   viewBox="0 0 12486.58 2662.6185"
   version="1.1"
   id="svg12"
   inkscape:version="1.2.1 (9c6d41e410, 2022-07-14, custom)"
   sodipodi:docname="difference_calc_rules.svg"
   xml:space="preserve"
   xmlns:inkscape="http://www.inkscape.org/namespaces/inkscape"
   xmlns:sodipodi="http://sodipodi.sourceforge.net/DTD/sodipodi-0.dtd"
   xmlns="http://www.w3.org/2000/svg"
   xmlns:svg="http://www.w3.org/2000/svg"><sodipodi:namedview
     id="namedview14"
     pagecolor="#505050"
     bordercolor="#eeeeee"
     borderopacity="1"
     inkscape:showpageshadow="0"
     inkscape:pageopacity="0"
     inkscape:pagecheckerboard="0"
     inkscape:deskcolor="#505050"
     inkscape:document-units="mm"
     showgrid="true"
     inkscape:zoom="0.02"
     inkscape:cx="18650"
     inkscape:cy="10200"
     inkscape:window-width="1366"
     inkscape:window-height="746"
     inkscape:window-x="1360"
     inkscape:window-y="0"
     inkscape:window-maximized="1"
     inkscape:current-layer="layer1"
     inkscape:lockguides="true"><inkscape:grid
       type="xygrid"
       id="grid344"
       color="#969696"
       opacity="0.39215686"
       empcolor="#000000"
       empopacity="0.17254902"
       dotted="false"
       originx="-2648.739"
       originy="-43696.189" /></sodipodi:namedview><defs
     id="defs9" /><g
     inkscape:label="Layer 1"
     inkscape:groupmode="layer"
     id="layer1"
     transform="translate(-2753.7391,-43844.686)"><path
       style="fill:none;stroke:#ffffff;stroke-width:10.7"
       d="m 3731.1643,44217.05 c -75.4644,123.13 -190.8566,209.206 -296.7244,303.98 -89.1783,79.836 -178.1521,159.97 -266.9103,239.985 -40.7046,36.698 -77.6698,54.864 -65.3076,52.478 131.7088,-25.443 265.0564,-20.566 398.9451,-27.52 192.2716,-9.982 384.0779,-19.386 576.4135,-26.876 3.846,-0.151 136.2933,6.668 136.2933,-14.721 0,-33.251 -74.8046,-60.511 -96.5412,-76.155 -98.5224,-70.911 -183.056,-159.764 -279.6873,-233.585 -49.0953,-37.505 -164.4748,-103.757 -201.6028,-168.31"
       id="path327" /><path
       style="fill:none;stroke:#ffffff;stroke-width:10.7"
       d="m 4821.521,44031.461 c -34.0736,24.747 -67.8387,49.922 -102.2208,74.237 -44.6542,31.578 -91.173,60.547 -134.874,93.432 -199.7239,150.297 81.8867,278.31 149.0721,384.617 13.2326,20.937 16.0814,64.236 11.3575,88.315 -25.6431,130.704 -142.1479,219.282 -255.5528,272.622 -13.9094,6.543 23.1701,-20.252 35.4936,-29.438"
       id="path331" /><path
       style="fill:none;stroke:#ffffff;stroke-width:10.7"
       d="m 5363.8604,44329.684 c -62.1382,17.822 -70.7154,14.938 -126.357,54.395 -198.9746,141.1 166.4102,331.095 -22.715,305.261"
       id="path333" /><path
       style="fill:none;stroke:#ffffff;stroke-width:10.7"
       d="m 5008.9272,44593.986 c 26.5014,-3.839 52.7854,-9.739 79.5041,-11.52 10.6132,-0.706 220.3095,-3.143 235.6768,-3.198 27.9212,-0.104 111.5102,3.127 83.7644,0"
       id="path335" /><path
       style="fill:none;stroke:#ffffff;stroke-width:10.7"
       d="m 5866.4476,44327.122 c -147.3676,114.16 -187.483,213.069 -2.8406,296.302"
       id="path337" /><path
       style="fill:none;stroke:#ffffff;stroke-width:10.7"
       d="m 6062.3707,44424.396 c -22.0466,64.397 -43.0588,316.783 -157.5906,239.345"
       id="path339" /><path
       style="fill:none;stroke:#ffffff;stroke-width:10.7"
       d="m 5811.078,44513.992 c 32.118,-57.888 454.3993,41.447 434.4386,77.433 -8.6127,15.531 -34.1913,-10.533 -49.6916,-19.198"
       id="path341" /><path
       style="fill:none;stroke:#ffffff;stroke-width:10.7"
       d="m 6222.8,44192.733 c 20.3499,-2.347 42.1233,-14.878 61.0495,-7.041 99.7537,41.309 257.7065,220.935 248.4538,336.619 -5.7407,71.773 -39.9637,139.229 -72.407,203.507 -30.6763,60.777 -76.6651,49.035 -76.6651,-5.12"
       id="path343" /><path
       style="fill:none;stroke:#ffffff;stroke-width:10.7"
       d="m 7104.4565,44348.241 c 23.1894,-0.426 46.3878,-0.494 69.5677,-1.28 104.5977,-3.543 209.1309,-8.07 313.7617,-10.877 14.7407,-0.397 55.3453,-4.953 44.0105,4.479 -7.0535,5.869 -17.036,6.826 -25.5539,10.24"
       id="path345" /><path
       style="fill:none;stroke:#ffffff;stroke-width:10.7"
       d="m 7135.6901,44449.995 c 172.8231,45.471 419.9466,-70.043 584.9321,-18.558"
       id="path347" /><path
       style="fill:none;stroke:#ffffff;stroke-width:10.7"
       d="m 8532.7107,43853.553 c -66.3041,94.459 -213.5082,141.499 -224.3177,269.422 -5.7047,67.514 64.9068,114.671 106.4794,154.231 95.4061,90.789 181.8711,180.179 141.9744,318.061 -7.2409,25.024 -3.5584,44.625 -18.4566,68.474 -58.6843,93.951 -180.8953,150.252 -278.2694,190.709 -59.5133,24.728 -86.5473,26.964 -80.9236,14.079 6.5696,-15.052 24.6086,-21.76 36.9131,-32.637"
       id="path351" /><path
       style="fill:none;stroke:#ffffff;stroke-width:10.7"
       d="m 9187.2089,44168.412 c -82.2182,132.271 -61.7215,119.126 -161.8507,216.308 -52.6288,51.08 -111.5102,100.565 -173.2063,140.79 -14.5595,9.493 -59.9098,28.593 -42.5926,30.077 80.7831,6.938 181.7939,-19.483 261.2308,-25.595 117.6867,-9.06 163.8075,-10.377 274.0094,-12.161 85.6974,-1.389 94.5377,-1.28 154.7516,-1.28 7.9491,0 52.529,5.956 52.529,-5.76 0,-108.053 -368.5839,-260.678 -377.6482,-277.741 -10.3026,-19.397 8.518,-43.09 12.777,-64.638 z"
       id="path353" /><path
       style="fill:none;stroke:#ffffff;stroke-width:10.7"
       d="m 10051.828,44210.65 c -35.493,0.214 -72.3931,-9.255 -106.4807,0.64 -31.1005,9.028 -56.3348,32.684 -80.9252,53.756 -103.2672,88.495 -35.0581,171.429 41.1731,247.025 2.7318,2.71 54.61,45.083 48.2706,60.796 -5.0088,12.417 -26.8401,-2.217 -39.7521,-5.76"
       id="path355" /><path
       style="fill:none;stroke:#ffffff;stroke-width:10.7"
       d="m 9669.9184,44461.515 c -99.3653,-95.795 475.5266,6.818 410.3046,-40.958"
       id="path357" /><path
       style="fill:none;stroke:#ffffff;stroke-width:10.7"
       d="m 10526.021,44166.494 c -262.616,5.747 -133.48,472.45 85.182,351.978"
       id="path359" /><path
       style="fill:none;stroke:#ffffff;stroke-width:10.7"
       d="m 10851.14,44225.369 c -36.961,78.573 -64.062,305.168 -194.504,253.426"
       id="path361" /><path
       style="fill:none;stroke:#ffffff;stroke-width:10.7"
       d="m 10548.736,44325.844 c 113.492,-46.058 179.855,68.419 275.429,99.833 44.26,14.547 20.571,-55.134 1.418,-68.477"
       id="path363" /><path
       style="fill:none;stroke:#ffffff;stroke-width:10.7"
       d="m 10758.856,44023.143 c 41.172,-11.946 80.88,-40.31 123.516,-35.838 39.213,4.114 69.909,36.922 102.222,59.515 124.037,86.728 219.701,229.656 212.959,385.257 -1.597,36.857 -61.568,170.154 -119.256,133.752"
       id="path365" /><path
       style="fill:none;stroke:#ffffff;stroke-width:10.7"
       d="m 12099.917,43979.444 c -1.894,-17.703 12.024,-55.01 -5.681,-53.115 -17.706,1.894 3.787,35.412 5.681,53.115 z"
       id="path391" /><path
       style="fill:none;stroke:#ffffff;stroke-width:10.7"
       d="m 12143.929,44178.472 c -53.532,73.408 -72.925,130.14 -34.074,213.748 25.517,54.912 22.267,66.8 51.111,28.798"
       id="path393" /><path
       style="fill:none;stroke:#ffffff;stroke-width:10.7"
       d="m 12595.404,44150.955 c -164.49,3.924 -148.872,84.426 -130.616,213.106 2.293,16.161 -10.485,46.36 5.678,48.636 26.459,3.728 35.435,-40.561 48.272,-63.995"
       id="path395" /><path
       style="fill:none;stroke:#ffffff;stroke-width:10.7"
       d="m 12403.739,44319.905 c -37.386,2.132 -74.783,4.074 -112.157,6.397 -17.524,1.09 -35.53,8.221 -52.532,3.842 -10.931,-2.818 21.39,-8.26 32.656,-8.962 43.928,-2.73 88.373,4.284 132.033,-1.277 52.818,-6.729 171.201,-57.489 215.801,-17.28"
       id="path397" /><path
       style="fill:none;stroke:#ffffff;stroke-width:10.7"
       d="m 13461.443,44123.436 c -84.995,-35.508 -50.741,-38.582 -154.752,24.958 -41.258,25.204 -85.099,48.339 -119.256,82.555 -215.465,215.831 294.778,235.207 344.995,161.909 10.691,-15.605 9.183,-42.51 9.938,-59.515"
       id="path399" /><path
       style="fill:none;stroke:#ffffff;stroke-width:10.7"
       d="m 14049.582,44115.517 c 26.975,1.706 53.896,5.119 80.925,5.119 80.02,0 159.935,-5.99 239.937,-7.681 27.445,-0.579 54.944,-2.963 82.343,-1.278 4.446,0.273 15.202,4.787 11.359,7.038 -23.859,13.984 -99.382,27.731 -122.098,32.639"
       id="path401" /><path
       style="fill:none;stroke:#ffffff;stroke-width:10.7"
       d="m 14077.978,44194.87 c -19.403,4.908 -63.117,-4.683 -58.21,14.722 4.906,19.402 38.201,-15.187 58.21,-14.722 90.673,2.114 180.661,16.532 271.169,22.4 62.482,4.051 132.331,-16.989 187.404,12.801 6.434,3.479 1.895,14.504 2.842,21.756"
       id="path403" /><path
       style="fill:none;stroke:#ffffff;stroke-width:10.7"
       d="m 14944.017,44076.48 c -35.021,5.546 -71.578,4.974 -105.062,16.637 -30.104,10.488 -61.184,24.794 -82.343,48.638 -6.596,7.432 15.685,14.187 25.554,15.359 43.247,5.139 87.104,5.067 130.616,3.199 65.972,-2.831 131.893,-8.538 197.345,-17.277 88.379,-11.806 137.302,-27.699 122.096,-42.238 -35.405,-33.854 -196.25,-50.639 -205.863,-50.557 -28.807,0.241 -53.57,27.631 -82.343,26.239 -44.697,-2.164 -85.395,-27.324 -129.198,-36.478 -11.875,-2.482 -43.77,5.511 -34.071,12.798 24.784,18.621 39.784,0.788 61.046,-10.88"
       id="path405" /><path
       style="fill:none;stroke:#ffffff;stroke-width:10.7"
       d="m 15050.496,43872.333 c 26.502,-4.268 71.848,-38.529 79.507,-12.801 51.803,174.009 -90.606,347.549 -154.751,492.13"
       id="path407" /><path
       style="fill:none;stroke:#ffffff;stroke-width:10.7"
       d="m 3335.9012,45715.166 c -70.7091,114.62 -176.3991,195.167 -282.5282,274.542 -55.7498,41.696 -194.0785,139.745 -261.2308,186.868 -26.4477,18.56 -35.1938,23.175 -32.6546,24.32 21.9432,9.89 262.3198,-8.9 272.5899,-8.961 202.5189,-1.164 405.1178,3.355 607.6471,1.921 13.9861,-0.101 80.2963,3.775 93.7022,-16 19.6477,-28.985 -25.931,-65.63 -45.4316,-94.713 -63.6916,-94.99 -149.006,-210.489 -234.2573,-286.062 -35.7966,-31.734 -78.5577,-54.61 -117.8367,-81.915 z"
       id="path423" /><path
       style="fill:none;stroke:#ffffff;stroke-width:10.7"
       d="m 4187.7418,45633.251 c 83.5652,-15.904 74.8895,-28.903 160.4295,45.437 251.4177,218.498 -143.0266,326.387 -224.3177,199.668 -84.7598,-132.13 319.1431,-167.772 239.9353,-24.958"
       id="path425" /><path
       style="fill:none;stroke:#ffffff;stroke-width:10.7"
       d="m 3912.3129,45987.788 c -40.699,13.866 -82.6561,24.479 -122.0968,41.597 -3.344,1.453 3.6481,9.496 7.0991,8.322 39.5555,-13.478 73.2681,-47.71 114.9977,-49.919 87.0603,-4.607 172.6348,29.098 259.8113,30.077 23.3032,0.262 585.5269,-55.649 611.9072,-41.595 5.0577,2.694 -21.3189,8.004 -70.9872,19.198"
       id="path427" /><path
       style="fill:none;stroke:#ffffff;stroke-width:10.7"
       d="m 4182.0622,46230.334 c 62.3422,35.594 123.8689,39.015 89.444,132.471 -35.8717,97.383 -214.6372,209.146 -285.3669,82.556 -38.6704,-69.213 196.4433,-102.365 245.6148,-69.117"
       id="path429" /><path
       style="fill:none;stroke:#ffffff;stroke-width:10.7"
       d="m 4522.799,46254.011 c -40.6345,-3.788 63.0997,-35.155 66.7287,-12.798 12.751,78.55 -100.5946,231.355 -188.8257,214.387 -24.2719,-4.67 -48.9212,-61.494 -58.2086,-79.356"
       id="path431" /><path
       style="fill:none;stroke:#ffffff;stroke-width:10.7"
       d="m 4309.8388,46197.054 c 147.77,58.431 267.426,163.487 414.5629,226.547 4.118,1.765 124.1515,50.755 89.4437,-5.119"
       id="path433" /><path
       style="fill:none;stroke:#ffffff;stroke-width:10.7"
       d="m 5242.6048,45779.161 c -34.0736,20.267 -68.6472,39.714 -102.221,60.796 -141.351,88.768 -165.839,108.598 -53.9501,254.704 28.824,37.639 104.0985,88.707 107.9005,145.272 2.4617,36.626 -54.6917,-10.996 -105.0599,-49.916"
       id="path435" /><path
       style="fill:none;stroke:#ffffff;stroke-width:10.7"
       d="m 4958.659,46099.78 c 129.1119,-59.555 272.0401,13.616 401.7841,-8.318"
       id="path437" /><path
       style="fill:none;stroke:#ffffff;stroke-width:10.7"
       d="m 5830.3759,45845.717 c -236.2428,-3.299 -87.1077,336.804 76.6651,293.743 25.921,-6.816 46.3786,-26.879 69.5677,-40.32"
       id="path439" /><path
       style="fill:none;stroke:#ffffff;stroke-width:10.7"
       d="m 6135.6188,45827.159 c -8.745,45.098 -21.3413,228.978 -112.159,223.986 -34.6895,-1.908 -43.5835,-54.444 -61.0492,-84.476"
       id="path441" /><path
       style="fill:none;stroke:#ffffff;stroke-width:10.7"
       d="m 5916.9806,45830.998 c 131.658,10.613 242.4639,81.979 354.933,143.992 5.8854,3.243 68.5702,37.748 68.1469,37.118 -18.5833,-27.67 -41.6449,-52.051 -62.4671,-78.076"
       id="path443" /><path
       style="fill:none;stroke:#ffffff;stroke-width:10.7"
       d="m 6181.0504,45640.929 c 145.851,66.075 327.4168,215.101 319.441,394.857 -1.506,33.943 -39.0642,139.424 -97.9623,95.353 -14.6571,-10.967 -21.7686,-29.438 -32.653,-44.156"
       id="path445" /><path
       style="fill:none;stroke:#ffffff;stroke-width:10.7"
       d="m 6898.0172,45761.884 c 3.7111,-50.549 708.2983,-114.176 360.6128,26.876"
       id="path447" /><path
       style="fill:none;stroke:#ffffff;stroke-width:10.7"
       d="m 6926.4118,45887.955 c 181.2449,16.002 369.8856,32.909 552.2775,19.198"
       id="path449" /><path
       style="fill:none;stroke:#ffffff;stroke-width:10.7"
       d="m 8214.1127,45486.701 c 13.7239,-19.412 19.0312,-49.577 41.1715,-58.237 51.7332,-20.233 166.8002,121.811 180.3072,155.509 98.2199,245.054 -470.9597,132.601 -211.5407,32.639 33.3713,-12.859 69.4195,-18.796 105.0597,-21.76 75.4602,-6.27 89.5236,3.355 151.9126,23.04"
       id="path451" /><path
       style="fill:none;stroke:#ffffff;stroke-width:10.7"
       d="m 7852.0788,45885.394 c -20.3491,8.107 -69.1539,3.971 -61.0476,24.32 8.1063,20.349 39.3989,-20.984 61.0476,-24.32 34.6146,-5.334 70.2127,2.212 105.0615,-1.278 76.0857,-7.623 151.0655,-24.432 227.1567,-31.999 192.7768,-19.169 459.1852,-20.574 633.2027,-13.438"
       id="path453" /><path
       style="fill:none;stroke:#ffffff;stroke-width:10.7"
       d="m 8171.52,46098.502 c 26.9751,19.625 55.1548,37.693 80.9252,58.876 48.549,39.907 93.735,78.885 102.221,147.19 11.9012,95.8 -118.2907,171.593 -197.3426,119.033 -116.6244,-77.541 22.0977,-175.863 100.8012,-191.987 34.7109,-7.112 98.5713,-3.804 132.035,-3.201"
       id="path455" /><path
       style="fill:none;stroke:#ffffff;stroke-width:10.7"
       d="m 8578.9837,46144.58 c -0.3093,39.444 72.1648,-89.818 92.2829,-60.796 37.1933,53.649 -99.1579,333.928 -170.3676,307.178 -29.9778,-11.26 -48.8174,-77.949 -58.2086,-103.671"
       id="path457" /><path
       style="fill:none;stroke:#ffffff;stroke-width:10.7"
       d="m 8397.2588,46099.14 c 35.02,5.974 72.4197,3.895 105.0597,17.92 49.789,21.392 91.5903,57.949 137.7146,86.395 74.6453,46.035 168.5909,103.896 248.4538,146.55 21.9784,11.739 87.4961,46.418 68.1466,30.718"
       id="path459" /><path
       style="fill:none;stroke:#ffffff;stroke-width:10.7"
       d="m 9568.5407,45609.571 c -37.387,48.853 -70.1255,101.64 -112.1606,146.553 -31.9887,34.179 -165.018,136.048 -210.1197,170.868 -34.9951,27.019 -56.8113,41.24 -53.9501,46.077 2.4514,4.143 493.5469,24.27 506.8456,24.958 112.4334,5.816 120.8961,5.966 221.4788,13.441 12.7867,0.95 36.8458,15.933 38.3325,3.199 1.5455,-13.237 -26.1038,-7.565 -36.9131,-15.359 -163.7074,-118.068 -133.188,-110.411 -269.7493,-218.866 -21.1262,-16.778 -107.053,-73.629 -127.7763,-97.915 -7.6808,-9.001 23.7451,-2.05 35.4936,-0.64"
       id="path461" /><path
       style="fill:none;stroke:#ffffff;stroke-width:10.7"
       d="m 10577.972,45577.575 c 17.51,-25.387 39.639,-48.141 52.529,-76.155 11.113,-24.154 -53.558,-12.205 -79.504,-6.4 -76.178,17.039 -253.056,66.489 -274.008,164.47 -43.351,202.734 376.466,336.076 45.43,264.303"
       id="path463" /><path
       style="fill:none;stroke:#ffffff;stroke-width:10.7"
       d="m 10100.94,45802.841 c 119.59,-63.669 255.408,-31.649 381.909,-8.321"
       id="path465" /><path
       style="fill:none;stroke:#ffffff;stroke-width:10.7"
       d="m 11059.263,45539.176 c -72.723,50.676 -197.195,121.748 -184.565,230.386 14.441,124.222 198.294,73.329 261.231,48.638"
       id="path467" /><path
       style="fill:none;stroke:#ffffff;stroke-width:10.7"
       d="m 11255.185,45622.372 c -62.268,-12.703 -137.815,237.783 -163.269,231.666 -38.477,-9.252 -63.415,-47.358 -95.123,-71.035"
       id="path469" /><path
       style="fill:none;stroke:#ffffff;stroke-width:10.7"
       d="m 10945.685,45677.408 c 116.688,-43.532 245.955,67.836 353.512,67.836 18.418,0 -28.617,-23.201 -42.591,-35.197"
       id="path471" /><path
       style="fill:none;stroke:#ffffff;stroke-width:10.7"
       d="m 11267.962,45336.309 c 91.625,-7.289 87.318,-27.516 140.557,85.754 90.734,193.048 20.411,336.318 -112.161,474.211"
       id="path473" /></g></svg>
