<?xml version="1.0" encoding="UTF-8" standalone="no"?>
<!-- Created with Inkscape (http://www.inkscape.org/) -->

<svg
   width="418.34839mm"
   height="91.142464mm"
   viewBox="0 0 418.34837 91.14247"
   version="1.1"
   id="svg12"
   inkscape:version="1.2.1 (9c6d41e410, 2022-07-14, custom)"
   sodipodi:docname="directional_derivative_def.svg"
   xmlns:inkscape="http://www.inkscape.org/namespaces/inkscape"
   xmlns:sodipodi="http://sodipodi.sourceforge.net/DTD/sodipodi-0.dtd"
   xmlns="http://www.w3.org/2000/svg"
   xmlns:svg="http://www.w3.org/2000/svg">
  <sodipodi:namedview
     id="namedview14"
     pagecolor="#505050"
     bordercolor="#eeeeee"
     borderopacity="1"
     inkscape:showpageshadow="0"
     inkscape:pageopacity="0"
     inkscape:pagecheckerboard="0"
     inkscape:deskcolor="#505050"
     inkscape:document-units="mm"
     showgrid="true"
     inkscape:zoom="0.4596467"
     inkscape:cx="1044.2803"
     inkscape:cy="332.86435"
     inkscape:window-width="1366"
     inkscape:window-height="746"
     inkscape:window-x="0"
     inkscape:window-y="0"
     inkscape:window-maximized="1"
     inkscape:current-layer="layer1"
     inkscape:lockguides="false"
     showguides="true">
    <inkscape:grid
       type="xygrid"
       id="grid344"
       color="#969696"
       opacity="0.39215686"
       empcolor="#000000"
       empopacity="0.17254902"
       dotted="false"
       originx="-15.226224"
       originy="-113.43199" />
    <sodipodi:guide
       position="258.62464,198.58089"
       orientation="0,-1"
       id="guide2196"
       inkscape:locked="false" />
  </sodipodi:namedview>
  <defs
     id="defs9" />
  <g
     inkscape:label="Layer 1"
     inkscape:groupmode="layer"
     id="layer1"
     transform="translate(-120.22622,-261.93203)">
    <path
       style="fill:none;stroke:#00ffff;stroke-width:0.264999"
       d="m 152.67153,50.041095 c -1.40293,-0.248968 -2.81054,-1.020969 -4.20878,-0.746903 -1.25464,0.245919 -2.18098,1.354492 -3.14944,2.18917 -5.44462,4.69251 -5.88197,11.937381 -2.40502,17.925378 0.49411,0.850945 1.67934,2.386433 2.74859,2.936055 0.61653,0.316907 -0.27818,-0.316754 -1.68923,-1.339242"
       id="path2825" />
    <path
       style="fill:none;stroke:#00ffff;stroke-width:0.264999"
       d="m 135.4642,65.081921 c 0.58216,-0.738301 0.89047,-1.826037 1.7465,-2.214906 2.71468,-1.233191 11.57912,-0.598173 14.6019,0.386321"
       id="path2827" />
    <path
       style="fill:none;stroke:#00ffff;stroke-width:0.264999"
       d="m 163.69452,43.55086 c 0.96391,-1.63114 1.92783,-3.26228 2.89175,-4.893421 -0.0382,-0.180282 0.0303,-0.654825 -0.11452,-0.540851 -2.31057,1.818643 -1.72983,2.624858 -2.77723,5.434272 -3.21149,8.614061 -6.14123,13.721667 -2.80585,22.947593 1.83752,5.08272 5.85265,7.521633 8.70387,11.718451"
       id="path2829" />
    <path
       style="fill:none;stroke:#00ffff;stroke-width:0.264999"
       d="m 179.44166,53.93007 c -0.0134,2.590795 -0.5851,10.582211 -1.77513,13.057711 -0.0526,0.109448 -0.20544,-0.14791 -0.25767,-0.25754 -0.40925,-0.858978 -0.74441,-1.75133 -1.11662,-2.626995 -12.85796,-12.896373 7.11031,2.014202 8.58935,4.12078"
       id="path2831" />
    <path
       style="fill:none;stroke:#00ffff;stroke-width:0.264999"
       d="m 189.17627,65.700046 c 2.00037,2.134804 -1.06055,9.778444 -0.17179,7.468907"
       id="path2833" />
    <path
       style="fill:none;stroke:#00ffff;stroke-width:0.264999"
       d="m 200.17063,58.385667 c 0.11452,0.961511 0.50983,1.930606 0.34357,2.884535 -0.19964,1.145455 -0.95183,2.121958 -1.40292,3.193613 -0.51392,1.220922 -0.94672,4.996434 -2.60543,2.961807"
       id="path2835" />
    <path
       style="fill:none;stroke:#00ffff;stroke-width:0.264999"
       d="m 192.41159,59.23558 c 1.96772,1.380117 4.16431,2.538285 5.38266,4.661632"
       id="path2837" />
    <path
       style="fill:none;stroke:#00ffff;stroke-width:0.264999"
       d="m 206.21181,38.605919 c 1.35521,0.935763 3.05638,1.505887 4.06564,2.807293 6.34942,8.187378 3.07868,20.415977 0.97346,29.025723 -0.0971,0.396967 -2.81108,8.271901 -4.20878,9.529299"
       id="path2839" />
    <path
       style="fill:none;stroke:#00ffff;stroke-width:0.264999"
       d="m 219.21035,56.067721 c 1.69789,0.866439 16.95717,-3.149873 8.84704,0.566618"
       id="path2841" />
    <path
       style="fill:none;stroke:#00ffff;stroke-width:0.264999"
       d="m 220.64192,62.326167 c 4.21347,1.591387 7.21495,1.081714 11.22342,0.824143"
       id="path2843" />
    <path
       style="fill:none;stroke:#00ffff;stroke-width:0.264999"
       d="m 256.03004,51.045522 c 0.57262,-0.927177 1.14524,-1.854351 1.71786,-2.781525 0.20042,-0.163116 0.73705,-0.709203 0.60126,-0.489347 -0.7023,1.137147 -2.04616,1.962507 -2.31912,3.270872 -0.43184,2.069941 0.53275,4.232441 0.31495,6.335702 -0.45744,4.417388 -5.02421,5.875591 2.06143,3.502659 2.9586,-0.990816 4.25528,-0.837123 6.04118,-2.961809"
       id="path2845" />
    <path
       style="fill:none;stroke:#00ffff;stroke-width:0.264999"
       d="m 269.71572,50.092598 c 0.3299,6.320833 0.9288,4.108001 -1.05934,9.194485 -1.26664,3.240599 -1.12077,2.337023 -2.17598,-0.901416"
       id="path2847" />
    <path
       style="fill:none;stroke:#00ffff;stroke-width:0.264999"
       d="m 265.22063,51.406088 c 0.70624,0.712555 1.41197,1.42562 2.11872,2.137664 4.50834,4.542091 2.56563,2.714831 7.21504,6.876552 0.85317,0.763683 2.72774,3.205224 2.74861,2.060377 0.0139,-0.764455 -1.1517,-3.040451 -1.40292,-3.579916"
       id="path2849" />
    <path
       style="fill:none;stroke:#00ffff;stroke-width:0.264999"
       d="m 274.4685,40.305743 c 0.75396,-0.918591 1.50182,-1.84222 2.26187,-2.755773 2.40523,-2.890996 6.19397,-4.847323 4.2374,1.854356 -0.58954,2.019321 -1.9198,3.792879 -2.37637,5.846358 -0.10786,0.4851 0.99534,-0.01879 1.48883,-0.07727 2.45814,-0.291293 4.03934,-0.791425 5.55444,1.184727"
       id="path2851" />
    <path
       style="fill:none;stroke:#00ffff;stroke-width:0.264999"
       d="m 288.49779,55.810178 c 2.54167,-1.428419 6.25647,-3.039613 9.01881,-1.596797"
       id="path2853" />
    <path
       style="fill:none;stroke:#00ffff;stroke-width:0.264999"
       d="m 316.29864,46.615693 c -2.83733,1.463611 -4.39227,13.485347 -6.72833,14.448472 -1.08469,0.447202 -1.44494,-1.890551 -1.861,-2.987558"
       id="path2855" />
    <path
       style="fill:none;stroke:#00ffff;stroke-width:0.264999"
       d="m 307.53751,50.659201 c -0.0382,-0.729724 0.61521,-2.227339 -0.11451,-2.189168 -0.72973,0.03817 -0.33564,1.613567 0.11451,2.189168 1.9581,2.503813 4.54554,4.444227 6.81421,6.670519 1.63827,1.607658 4.88384,5.447535 4.69552,3.245101"
       id="path2857" />
    <path
       style="fill:none;stroke:#00ffff;stroke-width:0.264999"
       d="m 329.15403,49.448722 c 0.83031,-0.351981 1.59059,-1.107956 2.49092,-1.055947 1.97008,0.113808 -0.25999,15.298433 -3.92246,12.13054"
       id="path2859" />
    <path
       style="fill:none;stroke:#00ffff;stroke-width:0.264999"
       d="m 322.65476,53.827044 c 2.44762,-0.372978 3.90718,0.498107 6.06982,1.081717"
       id="path2861" />
    <path
       style="fill:none;stroke:#00ffff;stroke-width:0.264999"
       d="m 347.53524,43.96293 c -0.48673,1.622563 -1.27359,3.184001 -1.46018,4.867685 -0.14967,1.350595 3.66191,13.107792 0.94484,11.82148"
       id="path2863" />
    <path
       style="fill:none;stroke:#00ffff;stroke-width:0.264999"
       d="m 341.66585,55.990462 c 2.23789,-5.177644 8.26036,-2.044718 12.655,-5.099473"
       id="path2865" />
    <path
       style="fill:none;stroke:#00ffff;stroke-width:0.264999"
       d="m 373.04563,44.606807 c -0.2546,3.225443 -3.98298,0.221083 -2.89175,0 0.94472,-0.1914 1.93297,0.09938 2.89175,0 1.36902,-0.141899 2.80056,-1.26338 4.0656,-0.721132 1.75088,0.750498 -1.88791,7.830348 -4.18015,8.679386 -0.16211,0.06005 0.0433,-0.373729 0.17181,-0.489344 1.44764,-1.302205 2.49563,-1.975702 4.58097,-1.777082 3.83108,0.364897 4.86141,4.625819 3.14944,7.520413 -1.95243,3.301151 -11.99436,9.730245 -8.44619,0.952939"
       id="path2867" />
    <path
       style="fill:none;stroke:#00ffff;stroke-width:0.264999"
       d="m 393.54556,47.130792 c 2.0016,4.798557 2.4257,-4.724054 3.86519,-3.914746 0.9887,0.555847 0.12089,2.296588 -0.14316,3.399647 -0.6086,2.542445 -3.8186,13.053467 -6.4134,14.087906 -0.83793,0.33405 -1.54746,-1.575065 -1.68923,-1.854356"
       id="path2869" />
    <path
       style="fill:none;stroke:#00ffff;stroke-width:0.264999"
       d="m 385.72922,47.645888 c -0.8971,-1.141799 -1.54952,-4.322506 -2.69132,-3.425399 -1.1418,0.897104 1.60642,2.460254 2.69132,3.425399 3.03593,2.700829 5.66337,2.791108 6.9574,6.541725"
       id="path2871" />
    <path
       style="fill:none;stroke:#00ffff;stroke-width:0.264999"
       d="m 155.75522,116.35867 c -1.75576,3.49056 -2.56751,11.13393 0.42948,14.26819 4.25855,4.45362 10.98087,5.57111 13.34212,-1.15897 1.749,-4.98504 -0.0665,-10.30575 -1.03073,-15.22113 -0.0412,-0.20986 0.12372,0.40974 0.1718,0.61812 0.28956,1.255 0.9345,4.21925 0.94482,5.27974 0.0347,3.56566 -0.73443,12.34325 -5.89801,13.16074 -4.56044,0.722 -6.45121,-9.32319 -6.98602,-11.84723 -0.3587,-1.69293 0.40635,-6.14388 -0.97346,-5.09946 -2.41598,1.82873 -2.06875,12.22825 0.57263,14.44847 8.0458,6.7629 18.48439,-6.82611 13.48529,-15.19537"
       id="path2891" />
    <path
       style="fill:none;stroke:#00ffff;stroke-width:0.264999"
       d="m 182.26769,116.848 c 2.24075,0.62744 16.98069,-2.67219 8.04536,3.09058"
       id="path2893" />
    <path
       style="fill:none;stroke:#00ffff;stroke-width:0.264999"
       d="m 183.26977,125.08956 c 4.89979,1.30487 7.51259,1.0216 11.79605,0.43784"
       id="path2895" />
    <path
       style="fill:none;stroke:#00ffff;stroke-width:0.264999"
       d="m 234.51957,92.406635 c -0.71578,0.42925 -2.57658,0.571974 -2.14733,1.287751 0.42925,0.715777 1.34761,-1.048906 2.14733,-1.287751 1.65159,-0.493268 3.42623,-1.302007 5.09635,-0.875665 4.38985,1.120624 -1.70746,10.89433 -3.0349,8.267316 -1.42822,-2.826438 5.05631,-3.720047 5.43992,0.618104 0.23567,2.66514 -2.43421,7.44685 -5.61171,7.03109 -0.99151,-0.12974 -1.97129,-0.83252 -2.80586,-1.33926"
       id="path2897" />
    <path
       style="fill:none;stroke:#00ffff;stroke-width:0.264999"
       d="m 230.48258,113.86044 c -0.77305,0.20604 -2.52516,-0.15492 -2.31912,0.61812 0.20604,0.77304 1.53129,-0.47895 2.31912,-0.61812 5.34169,-0.94364 8.79525,-1.42452 13.8861,-1.85436 3.34948,-0.2828 4.20412,-0.22289 1.54609,1.64832"
       id="path2899" />
    <path
       style="fill:none;stroke:#00ffff;stroke-width:0.264999"
       d="m 239.30098,117.95547 c -2.05658,2.23781 -0.98782,4.24899 -0.80167,6.92806 0.0711,1.02318 0.0465,2.42855 0.0859,2.42095 0.94856,-0.18286 1.35024,-4.86062 4.09426,-2.42095 3.12723,2.78036 1.74921,10.20437 -4.40921,4.58436"
       id="path2901" />
    <path
       style="fill:none;stroke:#00ffff;stroke-width:0.264999"
       d="m 236.49511,121.74144 c 3.6192,-2.40054 7.6377,-2.96181 11.82468,-2.96181"
       id="path2903" />
    <path
       style="fill:none;stroke:#00ffff;stroke-width:0.264999"
       d="m 243.19481,152.18369 c -1.03072,0.34339 -2.07304,0.65374 -3.09216,1.03018 -1.40415,0.51866 -3.25453,2.12548 -4.35194,1.10747 -2.01848,-1.87246 4.16215,-10.45991 4.89593,-12.72291 0.18943,-0.58424 -0.49583,1.16298 -0.48673,1.77709 0.096,6.48049 0.60056,1.88715 3.0349,8.80817 0.72437,2.05943 2.90247,8.88318 1.14525,11.48666"
       id="path2905" />
    <path
       style="fill:none;stroke:#00ffff;stroke-width:0.264999"
       d="m 236.92459,174.64192 c 1.59724,-2.17146 26.21233,-7.14921 13.77159,-0.46358"
       id="path2907" />
    <path
       style="fill:none;stroke:#00ffff;stroke-width:0.264999"
       d="m 243.85333,176.9856 c -1.91132,4.02034 -0.43932,8.00097 -0.40083,12.20783 0.007,0.76499 -0.059,1.52919 -0.11453,2.29219 -0.0114,0.15674 -0.12798,0.61499 -0.0859,0.46357 0.53633,-1.9299 1.80037,-6.82578 4.83868,-5.92361 2.95968,0.87881 2.71373,7.00719 -0.0286,7.82949 -1.20651,0.36177 -2.46229,-0.53228 -3.69343,-0.79841"
       id="path2909" />
    <path
       style="fill:none;stroke:#00ffff;stroke-width:0.264999"
       d="m 242.56492,183.75913 c 2.49342,-3.93517 7.31261,-2.97151 10.6508,-4.68737"
       id="path2911" />
    <path
       style="fill:none;stroke:#00ffff;stroke-width:0.264999"
       d="m 258.65564,101.75565 c 2.96818,0.41838 13.66641,-0.87894 15.00273,1.72558 0.24905,0.48541 0.72524,11.06804 0.83031,11.69271 0.3989,2.37159 3.585,14.2332 3.63615,14.47423 1.01238,4.7707 1.8973,9.57171 2.60544,14.39697 1.3825,9.42035 0.74879,19.10811 3.43574,28.33037 3.2452,11.13827 0.16744,-0.31131 2.86312,6.74776 0.1227,0.3213 0.33676,0.82978 0.0573,1.03019 -1.01276,0.72619 -8.65305,1.67234 -9.84913,1.95739 -1.09364,0.26062 -2.17989,0.55194 -3.26395,0.84991 -0.2907,0.0799 -1.15192,0.35425 -0.85891,0.28329 1.03672,-0.25108 2.06143,-0.54943 3.09214,-0.82414"
       id="path2913" />
    <path
       style="fill:none;stroke:#00ffff;stroke-width:0.264999"
       d="m 218.88695,93.617112 c -5.41651,5.7141 -8.97655,5.42227 -7.41547,13.907628 0.90572,4.92307 1.96974,9.72625 2.40502,14.73179 0.74107,8.52192 0.53889,17.15644 0.65852,25.70335 0.15118,10.80106 -0.0118,21.36469 -0.8303,32.14208 -0.3679,4.84441 -0.60843,9.49994 -0.45811,14.34546 0.0374,1.20448 0.0865,1.83895 -0.28631,2.96181 -0.10245,0.30853 -0.69545,1.06258 -0.42947,0.87565 3.10646,-2.18321 6.00823,-4.1655 9.70597,-5.04794"
       id="path2915" />
    <path
       style="fill:none;stroke:#00ffff;stroke-width:0.264999"
       d="m 375.17059,101.20434 c 0.58873,5.70337 0.38396,2.10563 0.17177,9.37476 -0.35103,12.02531 -0.49391,24.10536 -0.45809,36.13409 0.009,3.03264 -0.14334,6.09816 0.34357,9.09147 0.0827,0.50842 0.0204,-1.0306 0,-1.54529"
       id="path2917" />
    <path
       style="fill:none;stroke:#00ffff;stroke-width:0.264999"
       d="m 391.17542,124.64127 c -0.50583,-0.78981 -0.72765,-2.87527 -1.51746,-2.36945 -0.78983,0.50582 1.43539,1.43515 1.51746,2.36945 0.83701,9.52871 -3.45791,4.73779 2.63406,12.28508 0.34095,0.4224 0.92996,0.83755 1.46016,0.72113 5.25254,-1.15332 4.82253,-11.12295 4.75279,-14.88631 -0.0156,-0.84445 0.16436,-2.25637 -0.65852,-2.44671 -0.58687,-0.13576 -1.08773,1.51797 -1.14522,1.88009"
       id="path2919" />
    <path
       style="fill:none;stroke:#00ffff;stroke-width:0.264999"
       d="m 407.75284,101.61642 c 1.74149,16.84305 1.39626,33.74045 0.54401,50.60831"
       id="path2921" />
    <path
       style="fill:none;stroke:#00ffff;stroke-width:0.264999"
       d="m 431.48808,124.48674 c 4.66834,1.11061 23.76223,0.2159 8.61798,5.69183"
       id="path2923" />
    <path
       style="fill:none;stroke:#00ffff;stroke-width:0.264999"
       d="m 432.54742,133.65548 c 4.25394,0.88767 8.68707,1.18399 13.02721,1.10745"
       id="path2925" />
    <path
       style="fill:none;stroke:#00ffff;stroke-width:0.264999"
       d="m 461.75123,134.91746 c 0.18134,0.74689 -0.20288,2.42201 0.54401,2.24068 0.74689,-0.18134 -0.64725,-1.47906 -0.54401,-2.24068 0.32425,-2.3918 1.46177,-4.62029 1.8324,-7.00533 0.10782,-0.6937 0.33427,-2.7046 0.54398,-2.03462 1.35006,4.31343 1.79623,8.87432 3.17807,13.21224 1.12186,3.52181 1.78821,4.41766 1.80377,4.40409 0.91586,-0.79887 0.28109,-6.61451 0.25768,-6.87656 -0.35737,-3.99782 -1.20192,-9.33254 -1.88966,-13.36677 -0.27537,-1.61534 -2.40659,-8.30181 -1.14527,-10.50799 2.39067,-4.18148 14.1547,-5.72301 15.9762,-6.18117 4.57782,-1.15145 11.07329,-2.37261 15.54673,-3.06483 4.8146,-0.74502 9.61364,-1.01892 14.45874,-0.92717"
       id="path2927" />
    <path
       style="fill:none;stroke:#00ffff;stroke-width:0.264999"
       d="m 495.67917,118.53736 c -4.39303,-2.67665 -7.6546,6.73254 -1.97556,5.0222 1.42737,-0.42988 2.87306,-1.01706 4.00838,-1.98312 0.17913,-0.15242 4.30207,-4.64224 1.17388,-5.25399 -0.54255,-0.1061 -0.49707,1.09145 -0.34356,1.62255 1.42671,4.93607 5.85554,10.32965 3.72202,15.60745"
       id="path2929" />
    <path
       style="fill:none;stroke:#00ffff;stroke-width:0.264999"
       d="m 489.69525,137.72474 c -0.82076,-0.14594 -2.31635,-1.25859 -2.46229,-0.43783 -0.14595,0.82077 1.6307,0.49636 2.46229,0.43783 7.56465,-0.53243 15.52215,-2.43593 23.21986,-1.39077 0.98179,0.13331 -1.89886,0.57061 -2.86311,0.79841"
       id="path2931" />
    <path
       style="fill:none;stroke:#00ffff;stroke-width:0.264999"
       d="m 497.68337,148.51604 c 0.11451,1.18472 0.53932,2.38013 0.34356,3.55416 -0.31282,1.87591 -2.94029,4.22918 -2.31913,4.76466 0.68276,0.58857 7.39966,-2.2098 8.04537,-5.27976"
       id="path2933" />
    <path
       style="fill:none;stroke:#00ffff;stroke-width:0.264999"
       d="m 507.13164,158.22562 c 1.64539,1.42627 3.18119,2.67292 4.66688,0 0.46212,-0.83137 0.91308,-1.78247 0.83028,-2.73002 -0.18557,-2.12362 -1.25558,-3.86589 -3.43572,-4.06928 -1.27664,-0.11909 -2.28758,0.92657 -3.12081,1.64832 -0.0772,0.0669 -0.21282,0.33316 -0.20042,0.23179 0.14354,-1.16209 0.9593,-2.17759 0.7158,-3.4254 -0.1855,-0.95069 -0.89712,-1.71698 -1.34569,-2.57547 3.86203,-2.63221 8.75498,-1.33771 12.8554,-2.83305"
       id="path2935" />
    <path
       style="fill:none;stroke:#00ffff;stroke-width:0.264999"
       d="m 533.93041,124.33221 c 0.67217,3.92906 3.58584,12.8987 -0.83032,15.73623"
       id="path2937" />
    <path
       style="fill:none;stroke:#00ffff;stroke-width:0.264999"
       d="m 530.58055,135.14925 c -0.20397,-2.33351 12.46057,-0.61347 13.25623,-1.36501 0.11197,-0.10578 -0.22905,-0.20603 -0.34356,-0.30905"
       id="path2939" />
    <path
       style="fill:none;stroke:#00ffff;stroke-width:0.264999"
       d="m 553.74318,111.58355 c 3.22119,-7.34544 0,-0.004 0,0 0.26868,2.05435 1.69687,3.78608 2.3764,5.74333 0.31004,0.89304 0.0582,4.12343 1.48879,2.65276"
       id="path2941" />
    <path
       style="fill:none;stroke:#00ffff;stroke-width:0.264999"
       d="m 562.33253,110.5791 c -1.38187,3.52284 -1.22185,11.62118 4.66685,10.508 0.86307,-0.16315 1.86719,-1.33267 1.3457,-2.29218 -1.4713,-2.70713 -10.63376,-0.77325 -5.38266,0.64387"
       id="path2943" />
    <path
       style="fill:none;stroke:#00ffff;stroke-width:0.264999"
       d="m 548.38917,131.31177 c -0.86849,0.0859 -2.69134,-0.61093 -2.60548,0.25756 0.0859,0.86849 1.73598,-0.18258 2.60548,-0.25756 2.81445,-0.24267 5.62814,-0.49827 8.44616,-0.69538 6.08272,-0.42545 7.61188,-0.39702 13.39938,-0.64387 2.42448,-0.10341 4.85179,-0.16213 7.27233,-0.33482 0.35322,-0.0252 1.37719,-0.18421 1.03072,-0.25754 -0.81249,-0.17196 -1.66061,-0.0343 -2.4909,-0.0515"
       id="path2945" />
    <path
       style="fill:none;stroke:#00ffff;stroke-width:0.264999"
       d="m 562.73335,143.69987 c -6.59511,6.57142 2.07893,-6.09768 0.14319,3.91473 -0.46244,2.39185 -2.81953,3.87057 -2.20462,4.17229 0.57381,0.28155 6.92095,-2.88549 7.52999,-4.01776"
       id="path2947" />
    <path
       style="fill:none;stroke:#00ffff;stroke-width:0.264999"
       d="m 573.18375,138.72918 c 0.76348,1.62256 1.69252,3.1771 2.29047,4.86767 0.15463,0.43712 -0.33255,3.48364 -0.0572,3.83747 0.36703,0.47166 0.80915,-0.92148 1.34567,-1.18473 1.25005,-0.61334 2.38681,0.13244 2.51955,1.49379 0.29506,3.02579 -1.82042,6.37355 -4.75279,4.27531"
       id="path2949" />
    <path
       style="fill:none;stroke:#00ffff;stroke-width:0.264999"
       d="m 573.06921,142.05155 c 0.74441,-0.87566 1.27882,-1.98665 2.23322,-2.62699 2.07269,-1.39062 6.5949,-1.80283 9.07608,-1.80283"
       id="path2951" />
    <path
       style="fill:none;stroke:#00ffff;stroke-width:0.264999"
       d="m 599.18081,124.92457 c 2.83123,-0.66411 7.3252,-3.27995 10.70809,-2.70425 0.8482,0.14434 -1.51546,0.82596 -2.31913,1.1332"
       id="path2953" />
    <path
       style="fill:none;stroke:#00ffff;stroke-width:0.264999"
       d="m 598.46506,129.99829 c 4.73221,1.20875 10.33799,0.68867 15.11723,-0.5151"
       id="path2955" />
    <path
       style="fill:none;stroke:#00ffff;stroke-width:0.264999"
       d="m 625.97961,126.98496 c -0.31493,0.72114 -1.66598,1.84847 -0.94483,2.16341 0.72115,0.31495 0.70517,-1.41388 0.94483,-2.16341 0.78314,-2.44919 1.50336,-4.92076 2.1187,-7.4174 0.42302,-1.71632 0.43882,-3.51847 0.88758,-5.22824 0.0361,-0.13772 0.17422,-0.49199 0.22902,-0.36057 0.91638,2.1981 0.82986,4.69383 1.40295,7.00532 0.46305,1.86771 1.01603,3.71428 1.63195,5.5373 0.34497,1.02095 2.23277,6.19535 3.29264,7.70071 0.0932,0.13246 0.27455,-0.25095 0.25767,-0.41207 -0.33044,-3.15405 -0.77433,-6.29693 -1.28844,-9.42629 -1.00531,-6.11927 -2.89549,-11.64538 -4.83867,-17.48756 -0.4395,-1.32142 -1.25426,-2.62943 -1.14525,-4.01775 0.0878,-1.11824 0.85344,-2.16229 1.68928,-2.910303 2.3081,-2.065558 10.61861,-4.351221 12.13956,-4.790411 9.56967,-2.763306 19.3601,-4.850091 29.11793,-6.825033 2.47729,-0.501393 4.97218,-0.915146 7.44413,-1.442268 2.98069,-0.635611 2.34114,-0.06733 3.29253,-1.030195"
       id="path2957" />
    <path
       style="fill:none;stroke:#00ffff;stroke-width:0.264999"
       d="m 653.895,109.88372 c 0.32449,-0.84132 0.4548,-1.78632 0.97343,-2.52396 1.25291,-1.78195 2.89145,0.62009 2.86316,1.77708 -0.0196,0.8035 -2.21419,7.15291 -1.83239,7.18561 0.99769,0.0855 5.31614,-0.90013 5.95524,-1.67407 0.14001,-0.16953 -0.0954,-0.42925 -0.14317,-0.64387"
       id="path2959" />
    <path
       style="fill:none;stroke:#00ffff;stroke-width:0.264999"
       d="m 665.74828,117.17235 c -0.11266,3.44993 1.63465,6.35182 2.40504,0.72115 0.0794,-0.58059 -2.24816,-20.636402 -4.12287,-9.78686 3.28138,-4.27716 6.87346,-4.46912 11.65286,-3.29662"
       id="path2961" />
    <path
       style="fill:none;stroke:#00ffff;stroke-width:0.264999"
       d="m 651.23229,129.61195 c 2.46229,-0.42924 4.92093,-0.87994 7.38688,-1.28773 4.47161,-0.73947 8.9549,-1.407 13.428,-2.13765 2.19625,-0.35875 8.564,-1.71143 5.6403,-1.21048"
       id="path2963" />
    <path
       style="fill:none;stroke:#00ffff;stroke-width:0.264999"
       d="m 661.59676,138.42012 c -9.26478,6.10922 1.07916,-5.7454 1.54612,3.992 0.0651,1.35687 -1.93675,2.37302 -1.68923,3.70871 0.18984,1.02444 7.42881,-2.6287 7.81626,-4.79041"
       id="path2965" />
    <path
       style="fill:none;stroke:#00ffff;stroke-width:0.264999"
       d="m 669.87121,135.40681 c 3.08284,-0.058 0.78147,5.85358 1.46015,7.03106 0.16481,0.28595 0.42267,-0.74095 2.09008,-2.18915 1.31932,-1.14587 2.99193,-1.93594 3.9511,0.0773 0.94562,1.98483 -0.0428,5.10854 -2.1187,6.07814 -0.81463,0.3805 -1.7942,0.12019 -2.69132,0.18029"
       id="path2967" />
    <path
       style="fill:none;stroke:#00ffff;stroke-width:0.264999"
       d="m 669.81395,139.6306 c 0.5134,-6.37214 7.96515,-5.48604 12.36866,-7.34013"
       id="path2969" />
    <path
       style="fill:none;stroke:#00ffff;stroke-width:0.264999"
       d="m 697.15671,110.70788 c 1.40062,0.71087 23.48058,-1.31832 11.71011,2.49822"
       id="path2971" />
    <path
       style="fill:none;stroke:#00ffff;stroke-width:0.264999"
       d="m 699.59034,117.24962 c 1.39338,0.86708 2.59845,2.16347 4.18013,2.60124 1.36326,0.37733 6.79746,0.25074 7.90226,-1.57104"
       id="path2973" />
    <path
       style="fill:none;stroke:#00ffff;stroke-width:0.264999"
       d="m 718.97367,106.32956 c 0.0477,-0.84991 0.99303,-2.50203 0.14311,-2.54973 -0.84992,-0.0477 -0.24598,1.70472 -0.14311,2.54973 0.73506,6.03791 2.21948,11.24875 1.05933,17.51331"
       id="path2975" />
    <path
       style="fill:none;stroke:#00ffff;stroke-width:0.264999"
       d="m 152.47736,108.57023 c 6.94488,-0.96789 2.11185,-0.58417 11.82467,0 0.89651,0.0539 2.92769,0.44607 2.6627,-0.41208 -0.85093,-2.7556 -4.47033,-5.03225 -6.6138,-6.69626 -0.5552,-0.43101 -1.12221,-0.84666 -1.68924,-1.262 -0.1012,-0.0741 -0.40821,-0.289931 -0.31494,-0.206032 0.23576,0.212082 0.49628,0.394912 0.74441,0.592372"
       id="path2977" />
    <path
       style="fill:none;stroke:#00ffff;stroke-width:0.264999"
       d="m 170.33187,241.70799 c 0.78526,3.85775 4.27305,13.89705 9.47692,13.44405 3.45688,-0.30093 5.4339,-13.2952 4.09425,-15.83924 -0.11601,-0.22031 -0.42902,0.32441 -0.48673,0.56662"
       id="path2979" />
    <path
       style="fill:none;stroke:#00ffff;stroke-width:0.264999"
       d="m 194.72562,247.86343 c 3.54776,0.60485 2.93922,-2.42227 1.14524,-3.6057"
       id="path2981" />
    <path
       style="fill:none;stroke:#00ffff;stroke-width:0.264999"
       d="m 195.98539,239.51885 c -0.82696,-5.16484 -0.26728,-6.69129 3.72205,-10.32772 0.32449,1.49378 -0.18227,3.48087 0.97346,4.48135 1.61795,1.4006 14.44218,0.84445 12.05372,6.1554 -1.64868,3.666 -13.78713,12.12113 -11.10889,3.24514"
       id="path2983" />
    <path
       style="fill:none;stroke:#00ffff;stroke-width:0.264999"
       d="m 233.52086,235.19202 c -3.46912,-0.80696 -7.24804,8.63709 -2.03282,8.73091 2.2212,0.04 10.48169,-4.45811 8.10262,-7.70071 -1.1151,-1.51985 -1.66887,2.69623 -1.23113,3.6572 1.77131,3.88856 5.23075,5.21408 8.87566,6.95381"
       id="path2985" />
    <path
       style="fill:none;stroke:#00ffff;stroke-width:0.264999"
       d="m 168.41358,226.48688 c 2.33209,-0.14577 4.16941,2.41291 6.41339,2.62699 0.74544,0.0711 9.50115,-0.33949 9.4769,-1.36501 -0.0381,-1.61014 -12.26129,-6.86525 -12.94128,-8.24154 -0.14917,-0.30191 0.92263,-0.0865 4.32331,0.48933"
       id="path2987" />
    <path
       style="fill:none;stroke:#00ffff;stroke-width:0.264999"
       d="m 264.44252,230.58191 c -2.21339,8.92497 13.2426,4.86586 11.65287,-0.66963 -0.15619,-0.54388 -0.64897,-0.92717 -0.97346,-1.39076"
       id="path2989" />
    <path
       style="fill:none;stroke:#00ffff;stroke-width:0.264999"
       d="m 274.74973,222.44335 c 3.0925,1.82911 4.09642,5.02293 5.01046,8.29307 0.15896,0.56871 0.17642,2.27178 0.40082,1.72558 0.77771,-1.89291 1.11973,-4.60846 3.17807,-5.69183 3.66082,-1.92679 3.63041,8.26298 3.40712,9.88989 2.61391,-4.90988 2.84858,-5.47461 1.94692,-9.86412"
       id="path2991" />
    <path
       style="fill:none;stroke:#00ffff;stroke-width:0.264999"
       d="m 289.12257,222.90695 c 0.22781,-2.37813 0.93724,-4.5939 2.03284,-6.69627 1.54608,0.60953 3.54832,0.57402 4.63824,1.8286 0.68718,0.791 3.84883,13.32871 2.92037,14.34546 -0.23571,0.25813 -0.66806,0.20604 -1.00208,0.30906"
       id="path2993" />
    <path
       style="fill:none;stroke:#00ffff;stroke-width:0.264999"
       d="m 293.58904,229.19113 c 0.64897,-1.20189 0.86954,-2.76605 1.94692,-3.60567 2.33151,-1.817 7.3855,-1.73847 10.22133,-1.69982"
       id="path2995" />
    <path
       style="fill:none;stroke:#00ffff;stroke-width:0.264999"
       d="m 342.72013,224.7098 c 3.69838,-0.31843 -1.26173,-3.85873 -0.11451,-5.12523 0.28994,-0.32009 1.31842,1.62308 2.7772,3.83748 2.32085,3.523 4.64812,7.77245 7.64453,10.79128 0.67214,0.67718 0.0545,-1.92536 -0.14314,-2.85878 -0.099,-0.46767 -2.09192,-7.42026 -1.68927,-7.46891 2.18916,-0.26452 10.53957,3.90232 13.05583,0.97867 0.93521,-1.08662 1.3933,-2.79352 0.34357,-3.96623 -1.01564,-1.13463 -3.09822,0.2094 -3.69344,0.77264 -4.22926,4.00204 -1.11865,7.68099 3.03492,9.96714 0.49695,0.27352 1.19775,0.0772 1.68924,-0.20605 0.79278,-0.45687 1.31703,-1.27058 1.97554,-1.90586"
       id="path2997" />
    <path
       style="fill:none;stroke:#00ffff;stroke-width:0.264999"
       d="m 370.86455,220.87231 c -0.95436,1.01303 -2.46173,1.70643 -2.86309,3.03908 -1.72461,5.72635 9.61189,9.02064 11.79602,3.76022 0.31952,-0.76955 0.0573,-1.66549 0.0859,-2.49823"
       id="path2999" />
    <path
       style="fill:none;stroke:#00ffff;stroke-width:0.264999"
       d="m 380.28423,218.58013 c 0.6823,-3.97522 -0.28281,-4.29662 0,0 0.22859,3.47291 2.87877,9.86733 0.71577,13.23801 -0.57239,0.89198 -5.59259,-3.64021 -5.66898,-5.74335 -0.0776,-2.13611 8.63537,-1.87903 10.24995,-1.1332 0.61899,0.28592 1.03074,0.89283 1.54609,1.33925 -0.56839,-1.21974 -0.21782,-9.44361 2.92039,-9.246 4.39194,0.27655 2.56296,11.65157 0.88757,11.38365 -2.08642,-0.33364 1.95954,-14.3082 4.40921,-13.41829 2.36824,0.86032 5.07794,14.31269 3.23532,14.39698 -1.47029,0.0673 -1.72448,-2.68934 -1.51746,-4.14653 0.87719,-6.17435 6.50639,-11.6356 13.08445,-9.37477 0.85627,0.29429 1.41246,1.1332 2.11869,1.69981"
       id="path3001" />
    <path
       style="fill:none;stroke:#00ffff;stroke-width:0.264999"
       d="m 147.20013,302.45488 c -0.83819,-0.20774 1.2212,-7.77465 0.97346,-5.69183 -0.22734,1.91135 -1.2106,3.78167 -0.97346,5.69183 0.40862,3.29145 2.13667,6.29314 2.8631,9.52932 0.59599,2.65505 0.95552,9.65507 1.08799,12.49109 0.0533,1.14156 0.27812,4.48773 -0.14316,3.42542 -0.59337,-1.49631 -1.01162,-3.05626 -1.51744,-4.58439"
       id="path3003" />
    <path
       style="fill:none;stroke:#00ffff;stroke-width:0.264999"
       d="m 145.56814,307.11651 c -0.45703,-3.48197 -2.17351,-9.07731 1.37431,-11.6927 6.79338,-5.00796 16.39599,7.87848 17.43637,12.98046 0.68479,3.35819 0.4169,6.9343 -0.34357,10.27618 -1.49632,6.57553 -11.41013,12.20143 -14.68779,4.12078"
       id="path3005" />
    <path
       style="fill:none;stroke:#00ffff;stroke-width:0.264999"
       d="m 177.37737,328.36428 c -5.26779,2.2179 0.0787,14.52002 5.52583,10.43073 1.81837,-1.36509 3.03516,-3.43759 4.12287,-5.4343 1.28521,-2.35924 1.47502,-7.77795 -2.26186,-7.77795"
       id="path3007" />
    <path
       style="fill:none;stroke:#00ffff;stroke-width:0.264999"
       d="m 177.54916,318.55167 c 0.83046,0.56034 12.97474,1.96821 13.28486,0.77264 0.29184,-1.1251 -7.51462,-6.19205 -8.64661,-7.15983 -0.61748,-0.5279 -1.16532,-1.13221 -1.74651,-1.69982 -0.0787,-0.0768 -0.33193,-0.28717 -0.25767,-0.20606 3.2345,3.53318 11.39721,7.31799 13.11307,10.40497 0.4328,0.77863 -3.39601,1.18618 -3.63615,1.21048 -2.83851,0.28724 -14.17726,-0.58571 -14.74506,-0.30906 -0.37319,0.18183 0.7635,0.32623 1.14525,0.48934"
       id="path3009" />
    <path
       style="fill:none;stroke:#00ffff;stroke-width:0.264999"
       d="m 213.59579,311.64936 c 0.42947,-0.75547 2.04389,-1.83693 1.28842,-2.26641 -0.75547,-0.42947 -0.5881,1.75189 -1.28842,2.26641 -1.21747,0.89448 -2.9887,0.82248 -4.18015,1.75133 -2.93174,2.2856 -3.51805,6.54115 -2.405,9.81261 1.01667,2.98819 2.26827,4.15675 4.29466,6.41297 0.53756,0.59852 1.10245,1.17198 1.66062,1.75132 0.18631,0.19338 0.80566,0.43322 0.57261,0.56662 -0.28002,0.1603 -0.5917,-0.25756 -0.88755,-0.38633"
       id="path3011" />
    <path
       style="fill:none;stroke:#00ffff;stroke-width:0.264999"
       d="m 203.20269,326.61295 c 1.03072,-0.7984 1.89392,-1.88135 3.09216,-2.39522 2.35648,-1.01058 9.84794,-2.06981 12.13962,-0.48931"
       id="path3013" />
    <path
       style="fill:none;stroke:#00ffff;stroke-width:0.264999"
       d="m 232.77869,303.40782 c 2.95924,-3.67642 4.28392,-8.91821 0,0 -2.6556,5.52837 -4.64438,12.67281 -2.66269,18.77529 0.68096,2.09699 1.80911,4.08772 3.23532,5.7691 1.57306,1.85452 6.21944,6.06087 6.32746,3.63144"
       id="path3015" />
    <path
       style="fill:none;stroke:#00ffff;stroke-width:0.264999"
       d="m 245.00419,314.09609 c 3.79363,-0.37105 -0.2375,13.5657 -2.43366,12.85166 -0.94083,-0.3059 -1.45005,-2.95867 -1.63197,-3.63143"
       id="path3017" />
    <path
       style="fill:none;stroke:#00ffff;stroke-width:0.264999"
       d="m 240.56636,317.21241 c 3.96644,1.95476 7.59843,5.98706 11.6815,7.21137"
       id="path3019" />
    <path
       style="fill:none;stroke:#00ffff;stroke-width:0.264999"
       d="m 261.83931,321.61649 c 1.21257,-1.40737 -3.19913,12.65686 -1.05934,9.88988"
       id="path3021" />
    <path
       style="fill:none;stroke:#00ffff;stroke-width:0.264999"
       d="m 270.25687,315.07478 c 3.05883,4.33899 0.7544,-3.79416 2.17597,-3.68297 0.34,0.0266 0.2063,2.36047 0.0859,3.47692 -0.50243,4.65864 -1.19879,11.91854 -5.55444,14.57725"
       id="path3023" />
    <path
       style="fill:none;stroke:#00ffff;stroke-width:0.264999"
       d="m 263.41403,322.15737 c -5.76541,-8.43597 5.43636,0.15776 6.98601,-1.23625"
       id="path3025" />
    <path
       style="fill:none;stroke:#00ffff;stroke-width:0.264999"
       d="m 270.85812,297.02061 c 0.37221,-1.09887 0.33138,-2.44255 1.11664,-3.29662 1.54173,-1.67683 4.58193,1.89442 5.58306,3.9405 5.14198,10.50895 5.74688,21.55287 2.4623,32.5799 -0.0708,0.23763 -1.37889,5.31135 -2.51955,6.25841"
       id="path3027" />
    <path
       style="fill:none;stroke:#00ffff;stroke-width:0.264999"
       d="m 303.41179,314.17333 c 1.0545,-0.14047 21.7045,-3.15825 12.71222,0.46361"
       id="path3029" />
    <path
       style="fill:none;stroke:#00ffff;stroke-width:0.264999"
       d="m 303.66944,321.10141 c 3.90187,2.25739 14.94247,-2.09744 17.83724,-0.0515"
       id="path3031" />
    <path
       style="fill:none;stroke:#00ffff;stroke-width:0.264999"
       d="m 346.12946,308.40427 c 0.0864,2.87453 -0.89726,13.2997 1.66064,14.68026"
       id="path3033" />
    <path
       style="fill:none;stroke:#00ffff;stroke-width:0.264999"
       d="m 352.91508,323.44509 c 0.24813,-1.44226 0.49626,-2.88453 0.7444,-4.3268"
       id="path3035" />
    <path
       style="fill:none;stroke:#00ffff;stroke-width:0.264999"
       d="m 353.54493,313.19467 c -0.93069,-2.76583 -0.69284,-4.09978 0.14318,-6.61901"
       id="path3037" />
    <path
       style="fill:none;stroke:#00ffff;stroke-width:0.264999"
       d="m 357.86826,301.06412 c 4.3604,3.84497 4.60073,3.08238 6.61378,8.39608 0.63718,1.68192 2.58445,7.3967 1.03074,9.45204 -0.8148,1.07787 -1.05114,-7.82262 1.34566,-8.55063 2.41252,-0.73278 5.48736,5.12243 5.12499,6.67052 -0.0295,0.12592 -0.14558,-0.23127 -0.14318,-0.36057 0.0262,-1.41531 0.92247,-3.23398 2.49092,-3.52842 2.87389,-0.53952 4.85656,3.01519 5.15361,5.33126"
       id="path3039" />
    <path
       style="fill:none;stroke:#00ffff;stroke-width:0.264999"
       d="m 343.63857,335.60138 c 0.37095,-4.6245 -0.42745,-3.09635 0,0 0.22597,1.63687 0.81886,3.20238 1.17386,4.81618 0.17972,0.81697 0.26614,1.65207 0.42949,2.47247 0.0659,0.33085 -0.0283,0.79974 0.25765,0.97869 0.35941,0.2249 2.21085,-6.44735 4.6669,-6.59325 3.24552,-0.19279 5.39456,5.92789 3.97972,8.47335"
       id="path3041" />
    <path
       style="fill:none;stroke:#00ffff;stroke-width:0.264999"
       d="m 362.56378,338.9753 c 1.05934,0.15452 2.10979,0.39326 3.17803,0.46357 2.13137,0.14028 4.83892,-0.0332 6.75696,-1.10746 1.2103,-0.67788 5.01895,-4.67783 2.26186,-5.84635 -1.1746,-0.49781 -3.1139,-0.34624 -4.32329,-0.36056 -0.54639,-0.006 1.0857,-0.16775 1.63197,-0.15455 1.41575,0.0342 4.24221,0.24079 5.41129,1.21048 4.63866,3.84748 -2.2584,10.2778 -1.43157,11.64121 0.23631,0.38967 0.57453,-0.71239 0.80169,-1.10747"
       id="path3043" />
    <path
       style="fill:none;stroke:#00ffff;stroke-width:0.264999"
       d="m 384.29482,336.39979 c 1.09753,-1.03877 2.20666,-2.0654 3.29256,-3.11632 0.39029,-0.37771 1.47471,-1.59078 1.14528,-1.15897 -0.41079,0.53845 -0.80066,1.10116 -1.28842,1.57104 -0.9965,0.96001 -2.76784,1.37419 -3.14942,2.70425 -0.35954,1.25323 0.52473,2.64751 1.31703,3.68294 1.66756,2.17932 9.24729,-2.90485 9.44829,-5.71756 0.0353,-0.49455 -0.25389,-1.21548 -0.74443,-1.28775 -1.94765,-0.28697 -4.02934,-0.31049 -5.89801,0.30906 -3.59283,1.19118 -6.71141,6.97173 -1.54607,-0.92719"
       id="path3045" />
    <path
       style="fill:none;stroke:#00ffff;stroke-width:0.264999"
       d="m 388.76129,327.90071 c 0.0833,0.30905 0.49318,-5.48634 0.48675,-5.35703 -0.19015,3.81894 0.37949,6.95768 0.60121,11.07459 0.32298,5.99717 0.19013,5.91228 -0.11451,11.66695 -0.0204,0.38675 -1.01356,4.42105 0.60127,3.47692"
       id="path3047" />
    <path
       style="fill:none;stroke:#00ffff;stroke-width:0.264999"
       d="m 415.33101,282.85543 c -3.87429,-0.4324 -8.86513,2.20505 -9.10474,6.64475 -0.12943,2.39877 1.13803,4.77273 2.2905,6.72202 0.6504,1.10009 1.48873,2.07762 2.23324,3.11634 0.22019,0.30721 0.94663,1.03325 0.57262,0.97869 -0.36645,-0.0534 -0.70623,-0.22321 -1.05934,-0.33481"
       id="path3049" />
    <path
       style="fill:none;stroke:#00ffff;stroke-width:0.264999"
       d="m 402.07475,297.22665 c 0.89712,-0.69539 1.61885,-1.71456 2.69137,-2.08615 2.1958,-0.76077 10.72586,-1.80703 12.4832,0.10303"
       id="path3051" />
    <path
       style="fill:none;stroke:#00ffff;stroke-width:0.264999"
       d="m 433.62634,273.7382 c -1.12617,1.1418 -2.50402,2.08107 -3.37849,3.4254 -4.36166,6.7052 -3.52494,16.02821 -0.25768,22.92184 2.08261,4.39415 6.24721,7.38845 8.30302,11.61543"
       id="path3053" />
    <path
       style="fill:none;stroke:#00ffff;stroke-width:0.264999"
       d="m 446.88257,282.26308 c -4.32686,3.93827 -4.64777,9.62197 -6.64244,14.70602 -0.23776,0.60595 -0.2462,-1.28195 -0.28633,-1.93162"
       id="path3055" />
    <path
       style="fill:none;stroke:#00ffff;stroke-width:0.264999"
       d="m 438.06414,285.73998 c 1.95276,5.19472 9.31741,7.91798 12.28281,10.58525"
       id="path3057" />
    <path
       style="fill:none;stroke:#00ffff;stroke-width:0.264999"
       d="m 459.96698,281.85099 c 0.48028,1.17721 3.43271,11.17148 2.86311,11.56394 -0.36176,0.24927 -0.87802,-0.0343 -1.31701,-0.0515"
       id="path3059" />
    <path
       style="fill:none;stroke:#00ffff;stroke-width:0.264999"
       d="m 456.24496,290.71066 c 0.10496,-0.77264 -0.27697,-1.81034 0.31493,-2.31793 2.24526,-1.92545 8.93728,-2.29681 11.91056,-2.627"
       id="path3061" />
    <path
       style="fill:none;stroke:#00ffff;stroke-width:0.264999"
       d="m 472.82237,269.10232 c -0.32289,-2.56797 4.29927,-7.5536 6.04118,-3.45113 0.49305,1.16117 -0.71334,3.39124 -1.23113,4.22379 -1.2428,1.99831 -2.17464,2.13989 -1.861,2.1634 1.93826,0.14531 1.1824,-1.19968 3.00625,-0.28329 5.15496,2.59007 2.34019,11.31816 -3.14944,8.78241"
       id="path3063" />
    <path
       style="fill:none;stroke:#00ffff;stroke-width:0.264999"
       d="m 472.02071,288.34122 c 1.57472,-0.87567 3.01983,-2.04238 4.72417,-2.62701 2.61162,-0.89585 7.98337,-1.25861 10.87982,-1.41651 0.71887,-0.0392 2.6343,-0.29846 2.14733,0.2318 -0.22802,0.24829 -0.62989,0.24038 -0.94482,0.36057"
       id="path3065" />
    <path
       style="fill:none;stroke:#00ffff;stroke-width:0.264999"
       d="m 482.07025,290.35009 c 0.55716,0.7909 -2.73582,12.74364 -2.5768,12.9032 0.20052,0.2012 4.75543,-3.00985 7.10051,-2.29218 3.19003,0.97623 -0.85823,6.28389 -3.17804,5.84634 -0.76327,-0.14396 -1.39337,-0.6868 -2.09008,-1.03019"
       id="path3067" />
    <path
       style="fill:none;stroke:#00ffff;stroke-width:0.264999"
       d="m 479.17851,297.12362 c 1.60489,-6.14616 8.3642,-4.49387 12.82676,-6.90229"
       id="path3069" />
    <path
       style="fill:none;stroke:#00ffff;stroke-width:0.264999"
       d="m 499.50666,273.45491 c 0.94414,4.57683 1.24291,9.53522 2.54815,14.0364 0.54192,1.86884 -0.33769,-3.51276 2.11868,-4.5071 2.74889,-1.11276 3.43577,4.39145 3.43577,5.97512"
       id="path3071" />
    <path
       style="fill:none;stroke:#00ffff;stroke-width:0.264999"
       d="m 513.87949,288.62452 c 1.30797,3.72322 -1.07021,6.7137 -1.28839,10.25044"
       id="path3073" />
    <path
       style="fill:none;stroke:#00ffff;stroke-width:0.264999"
       d="m 531.77395,276.15916 c -1.84436,5.00942 -3.78608,10.01497 -6.35614,14.70603 -0.80658,1.47225 -1.715,3.23854 -2.29045,2.98756 -0.68167,-0.2973 -2.01268,-3.43633 -2.1187,-3.65719"
       id="path3075" />
    <path
       style="fill:none;stroke:#00ffff;stroke-width:0.264999"
       d="m 518.91858,283.16449 c -0.36266,-0.77265 -0.70474,-1.5553 -1.08801,-2.31794 -0.24697,-0.49146 -1.25011,-1.12382 -0.80167,-1.44227 0.0506,-0.0359 6.08468,4.38972 8.67527,6.38721"
       id="path3077" />
    <path
       style="fill:none;stroke:#00ffff;stroke-width:0.264999"
       d="m 539.50436,279.58456 c 0.54398,1.80284 1.36612,3.54426 1.63198,5.40852 1.36662,9.58316 -8.57504,0.77097 -6.64242,0.10303 2.19482,-0.75857 11.10514,-0.38825 11.76742,-0.87567"
       id="path3079" />
    <path
       style="fill:none;stroke:#00ffff;stroke-width:0.264999"
       d="m 564.47073,267.351 c -1.50788,0.88425 -2.97291,1.84611 -4.52371,2.65276 -1.2595,0.65512 -2.58874,1.1668 -3.89382,1.72557 -6.82368,2.92152 3.41408,-5.61135 2.89174,-9.16873 -0.12756,-0.86874 -1.1973,1.46564 -1.20253,2.34369 -0.0122,2.03232 0.75678,4.39611 1.51746,6.20692 0.81658,1.94382 3.42355,3.83762 1.60337,5.71758"
       id="path3081" />
    <path
       style="fill:none;stroke:#00ffff;stroke-width:0.264999"
       d="m 553.70542,280.40872 c 4.23026,-0.2805 8.32832,-1.51485 12.39729,-2.62699 5.51037,-1.50611 3.17249,-0.67179 1.17393,0.28329 -1.51746,3.03049 -3.14173,6.00981 -4.55238,9.09148 -0.26501,0.57893 -0.29007,1.24023 -0.45812,1.85435 -0.47217,1.72555 -0.68945,2.03436 -0.68714,2.03462 0.45817,0.0515 3.8493,-4.96607 4.63824,-0.54085 0.25493,1.42997 -2.65751,8.28061 -4.18012,5.64033 -0.65935,-1.14335 -1.01164,-2.43813 -1.51746,-3.65719"
       id="path3083" />
    <path
       style="fill:none;stroke:#00ffff;stroke-width:0.264999"
       d="m 560.23338,287.98066 c -0.90967,-5.38103 10.04107,-5.07324 10.02085,-5.38279 -0.0103,-0.15955 -0.22902,-0.22319 -0.34353,-0.33479"
       id="path3085" />
    <path
       style="fill:none;stroke:#00ffff;stroke-width:0.264999"
       d="m 570.94138,260.31993 c -0.26088,3.24203 -0.31477,6.84082 0.71581,9.99287 0.25175,0.76998 0.70635,-1.47153 1.20253,-2.11189 0.68209,-0.88034 1.23653,-0.47767 1.74649,0.25755 1.07188,1.54543 2.67803,4.21633 2.40501,6.18116"
       id="path3087" />
    <path
       style="fill:none;stroke:#00ffff;stroke-width:0.264999"
       d="m 585.58893,256.41846 c 2.68568,8.83992 -0.22799,-0.4096 2.71994,7.98402 3.22678,9.18763 5.47301,18.46935 1.97554,27.99552 -1.19928,3.26654 -3.8758,7.84327 -6.35609,10.58525 -4.06154,4.49006 -4.52514,3.60296 -2.20461,-0.64386"
       id="path3089" />
    <path
       style="fill:none;stroke:#00ffff;stroke-width:0.264999"
       d="m 606.69008,277.61472 c 0.35489,-2.88999 16.38242,-3.43144 12.16824,-0.95294"
       id="path3091" />
    <path
       style="fill:none;stroke:#00ffff;stroke-width:0.264999"
       d="m 639.61594,262.26481 c 0.40082,-0.95292 1.27614,-1.8276 1.20251,-2.85878 -0.0333,-0.46677 -0.9584,-0.0947 -1.40295,0.0515 -3.25083,1.06886 -6.16114,3.68471 -6.55651,7.28862 -0.48088,4.38321 2.06372,7.56142 4.6096,10.71403 0.82722,1.02436 2.843,2.16142 2.17598,3.29662 -0.52162,0.88773 -2.62107,0.7206 -3.26395,0.74689"
       id="path3093" />
    <path
       style="fill:none;stroke:#00ffff;stroke-width:0.264999"
       d="m 630.62575,279.77812 c -0.83032,-0.66962 -2.12527,-1.00682 -2.49092,-2.00887 -1.03982,-2.84952 16.09018,-3.59199 18.00899,-5.15098"
       id="path3095" />
    <path
       style="fill:none;stroke:#00ffff;stroke-width:0.264999"
       d="m 658.79882,254.84741 c 0.43902,-0.80699 0.87802,-1.61397 1.31704,-2.42096 0.0573,-0.22321 0.28189,-0.87205 0.17177,-0.66963 -5.1398,9.44795 -8.00963,14.52034 -1.57472,24.69892 0.82163,1.29965 3.42775,5.14543 5.26814,5.89787"
       id="path3097" />
    <path
       style="fill:none;stroke:#00ffff;stroke-width:0.264999"
       d="m 676.34971,261.64671 c -3.15602,3.91645 -3.86013,8.69797 -5.72624,13.18648 -0.44566,1.072 -1.02026,3.32088 -2.06142,2.80728 -0.65178,-0.3215 -1.58388,-3.41697 -1.66061,-3.63144"
       id="path3099" />
    <path
       style="fill:none;stroke:#00ffff;stroke-width:0.264999"
       d="m 666.21429,270.76392 c 3.76669,2.07411 -1.90489,-3.6513 -0.60126,-4.01776 0.70786,-0.19898 7.69686,4.80223 8.41756,5.30551 2.28063,1.59261 5.25685,3.09172 3.72205,3.2451"
       id="path3101" />
    <path
       style="fill:none;stroke:#00ffff;stroke-width:0.264999"
       d="m 688.94743,274.29234 c 0.48469,0.20396 -4.83876,14.5517 -2.54818,10.84279"
       id="path3103" />
    <path
       style="fill:none;stroke:#00ffff;stroke-width:0.264999"
       d="m 696.5347,265.45843 c 5.72159,-13.73212 0.55194,-2.65588 0,0 -0.24046,1.15697 0.47037,2.35353 0.34356,3.52841 -0.22654,2.09885 -1.10739,6.44457 -3.46438,7.31437"
       id="path3105" />
    <path
       style="fill:none;stroke:#00ffff;stroke-width:0.264999"
       d="m 689.72049,269.70797 c -0.33404,-0.92718 -0.90948,-1.80038 -1.00209,-2.78152 -0.0233,-0.24763 0.66009,-0.1825 0.74441,0.0515 0.3098,0.85995 -0.53311,2.2716 0.25768,2.73002 1.41382,0.81961 3.28773,-0.033 4.89593,0.25756 1.42732,0.25791 2.77759,2.46617 1.71786,-0.12878"
       id="path3107" />
    <path
       style="fill:none;stroke:#00ffff;stroke-width:0.264999"
       d="m 698.45295,246.50284 c 0.81124,-1.56247 1.0155,-3.64426 2.43369,-4.68739 0.7746,-0.56974 1.99978,0.27241 2.74857,0.87567 2.7077,2.18139 4.20204,7.53875 4.69551,10.3277 1.6056,9.07437 -0.14155,17.97947 -2.92036,26.60477 -1.08784,3.37664 -3.15074,7.05551 -3.77931,10.63675"
       id="path3109" />
    <path
       style="fill:none;stroke:#00ffff;stroke-width:0.264999"
       d="m 438.85419,321.73279 c 1.2025,0.30048 2.37596,0.76172 3.60754,0.90145 1.97509,0.22408 3.96856,-0.24424 5.95527,-0.30906 5.58072,-0.18208 11.16666,-0.1555 16.74921,-0.33483 12.41007,-0.39867 24.50004,-0.80332 36.8197,-2.70425 17.06428,-2.63303 34.39412,-4.95979 51.59336,-6.59325 24.16995,-2.29548 48.49714,-2.64731 72.69453,-4.66163 13.15836,-1.09538 16.14712,-1.74894 31.78059,-3.37388 16.1213,-1.67565 32.357,-2.99083 48.5585,-3.63143 5.35318,-0.21167 10.5919,-0.32486 15.91887,-0.23183 1.8415,0.0322 2.2488,0.73312 0.7158,-0.12874"
       id="path3111" />
    <path
       style="fill:none;stroke:#00ffff;stroke-width:0.264999"
       d="m 570.987,335.09959 c 0.17179,-0.78123 1.29661,-2.17192 0.51538,-2.34371 -3.55701,-0.78217 0.58131,3.40392 1.88965,6.15543 1.19505,2.51325 3.76701,11.71454 4.15153,13.21223 0.31136,1.21263 0.24003,4.97604 0.40084,3.73445 0.29054,-2.24339 1.37795,-12.26575 5.21086,-11.71846 2.76985,0.3955 4.51472,4.96973 5.21089,7.03109 0.0316,0.0934 0.62987,5.56592 0.62987,3.34814"
       id="path3113" />
  </g>
</svg>
