<?xml version="1.0" encoding="UTF-8" standalone="no"?>
<!-- Created with Inkscape (http://www.inkscape.org/) -->

<svg
   width="307.03812mm"
   height="101.92331mm"
   viewBox="0 0 307.03811 101.92331"
   version="1.1"
   id="svg12"
   inkscape:version="1.2.1 (9c6d41e410, 2022-07-14, custom)"
   sodipodi:docname="divergence_therom.svg"
   xml:space="preserve"
   xmlns:inkscape="http://www.inkscape.org/namespaces/inkscape"
   xmlns:sodipodi="http://sodipodi.sourceforge.net/DTD/sodipodi-0.dtd"
   xmlns="http://www.w3.org/2000/svg"
   xmlns:svg="http://www.w3.org/2000/svg"><sodipodi:namedview
     id="namedview14"
     pagecolor="#000000"
     bordercolor="#ffffff"
     borderopacity="1"
     inkscape:showpageshadow="0"
     inkscape:pageopacity="0"
     inkscape:pagecheckerboard="0"
     inkscape:deskcolor="#000000"
     inkscape:document-units="mm"
     showgrid="true"
     inkscape:zoom="0.67657766"
     inkscape:cx="496.61705"
     inkscape:cy="326.64395"
     inkscape:window-width="1366"
     inkscape:window-height="746"
     inkscape:window-x="1360"
     inkscape:window-y="0"
     inkscape:window-maximized="1"
     inkscape:current-layer="layer1"
     inkscape:lockguides="true"
     showguides="true"><sodipodi:guide
       position="3265.6758,-22192.731"
       orientation="0,-1"
       id="guide3409"
       inkscape:locked="true" /></sodipodi:namedview><defs
     id="defs9"><rect
       x="587.26367"
       y="362.45731"
       width="66.575974"
       height="20.973427"
       id="rect1884" /></defs><g
     inkscape:label="Layer 1"
     inkscape:groupmode="layer"
     id="layer1"
     transform="translate(-47.910707,52.748678)"><path
       style="fill:none;stroke:#ffb380;stroke-width:0.3"
       d="m 55.494014,-45.327356 c -2.552051,4.593902 -6.167903,9.425649 -5.552,15.001613 0.497972,4.508333 3.192351,8.339283 5.13139,12.315327 3.303087,6.773061 4.645255,13.637501 1.535173,20.7714798 -1.882651,4.3184709 -4.736484,7.6883022 -7.360565,11.5964572 -1.647331,2.453442 -1.352093,2.078667 -0.483717,1.267476"
       id="path393" /><path
       style="fill:none;stroke:#ffb380;stroke-width:0.3"
       d="m 71.855527,-43.549105 c -2.768385,3.152294 -4.575484,6.160627 -4.921062,10.328979 -0.482449,5.819296 3.767347,10.636731 5.741231,15.796159 3.279809,8.5729077 5.740897,21.4155497 1.766554,30.041069 -2.108671,4.576451 -5.716558,8.547405 -9.442564,11.899144"
       id="path395" /><path
       style="fill:none;stroke:#ffb380;stroke-width:0.3"
       d="m 50.867346,31.7995 c -0.809344,4.513995 0.652481,8.973579 1.345944,13.412552 0.143581,0.919085 0.270261,1.840748 0.399557,2.761953 0.04609,0.328337 0.166714,1.314699 0.147222,0.983716 -0.389207,-6.608924 -0.700262,-13.126093 -0.273388,-19.749921 0.03626,-0.562639 0.121033,-2.075426 0.462666,-1.626912 1.685854,2.213279 1.359427,6.033836 1.030449,8.664239 -0.120512,0.96358 -0.911857,2.587654 -0.525727,2.856555 0.549444,0.382633 1.349833,0.03961 1.99784,0.208087 2.397868,0.623409 5.675794,2.605418 6.203944,5.296919"
       id="path399" /><path
       style="fill:none;stroke:#ffb380;stroke-width:0.3"
       d="m 99.321042,-26.277385 c -1.009447,1.153975 -2.228842,2.1537 -3.028336,3.461922 -4.638109,7.58939 -0.837134,17.2515155 6.708664,20.5255384"
       id="path401" /><path
       style="fill:none;stroke:#ffb380;stroke-width:0.3"
       d="m 107.6701,-5.1843127 c -0.67885,1.1703261 -0.9996,-1.7408869 -1.32494,-3.0268122 -0.78214,-3.0913911 -1.42468,-6.2204411 -1.95579,-9.3641811 -0.58869,-2.204935 12.37542,-7.190563 8.30695,-3.007895"
       id="path403" /><path
       style="fill:none;stroke:#ffb380;stroke-width:0.3"
       d="m 107.58594,-15.418703 c 2.99492,0.781915 5.83107,0.270857 8.64344,-0.813461"
       id="path405" /><path
       style="fill:none;stroke:#ffb380;stroke-width:0.3"
       d="m 107.6701,-25.917949 c -3.2671,-2.117963 8.8131,-0.625409 7.54984,-1.853914 -1.1574,-1.125545 -3.22227,-1.883336 -4.60562,-2.648458 -0.3646,-0.201663 -0.72939,-0.403003 -1.0936,-0.605364 -0.11247,-0.06249 -0.28418,-0.30675 -0.33646,-0.189182 -0.0554,0.124542 0.19627,0.189182 0.2944,0.283771"
       id="path407" /><path
       style="fill:none;stroke:#ffb380;stroke-width:0.3"
       d="m 125.84022,-12.675664 c -1.61667,0.05973 0.33352,-3.862427 1.07256,-3.064643 0.73551,0.793978 -0.7772,4.105863 -1.07256,3.064643 -0.64849,-2.286093 0.49907,-6.622465 1.76656,-4.729388 0.56835,0.848879 1.04239,3.118088 0.12616,3.934852 -0.51076,0.455313 -1.84834,1.477335 -1.89272,0.794536 -0.11193,-1.721842 1.63936,-3.157353 1.7245,-4.880724"
       id="path409" /><path
       style="fill:none;stroke:#ffb380;stroke-width:0.3"
       d="m 140.2249,-11.256849 c 0.79738,-3.298704 1.69749,-6.586096 3.23867,-9.629027 0.35938,-0.70957 1.26707,-2.262288 1.74555,-1.626912 1.88846,2.507713 0.47185,6.498834 2.18711,9.023673"
       id="path411" /><path
       style="fill:none;stroke:#ffb380;stroke-width:0.3"
       d="m 136.92317,-26.334133 c 0.96047,-0.1617 8.73357,-0.811983 8.49623,-1.759334 -0.40784,-1.627907 -3.31477,-3.201635 -4.56356,-3.972681 -0.58949,-0.363969 -2.53058,-0.812909 -1.85067,-0.945881 0.29814,-0.05831 0.60285,0.07567 0.90428,0.113501"
       id="path413" /><path
       style="fill:none;stroke:#ffb380;stroke-width:0.3"
       d="m 149.91989,-38.952141 c 0.97441,0.990018 2.17121,1.802119 2.92323,2.970056 2.33374,3.624477 6.18062,15.615655 6.62446,19.50399 0.33558,2.939982 0.0514,5.933538 -0.29435,8.8723342 -0.10391,0.8831447 -3.26543,7.00349424 -2.67088,5.2212451"
       id="path415" /><path
       style="fill:none;stroke:#ffb380;stroke-width:0.3"
       d="m 168.36346,-31.517543 c 4.33478,3.715123 8.72498,11.019467 2.37634,15.512391 -0.63679,0.450657 -1.56971,1.223984 -2.20812,0.775618 -4.01849,-2.822239 -0.6109,-7.324084 1.61934,-9.458769"
       id="path417" /><path
       style="fill:none;stroke:#ffb380;stroke-width:0.3"
       d="m 179.50947,-29.720379 c 2.4168,2.121694 1.51284,0.931786 3.07044,4.23754 0.68318,1.449949 1.93772,4.120322 2.37635,5.732018 0.12975,0.476766 0.40319,4.511757 -0.86223,2.667376 -2.29311,-3.342272 -1.03611,-10.948877 1.68244,-13.790904 0.58268,-0.609139 1.54223,-0.681029 2.31334,-1.021545"
       id="path419" /><path
       style="fill:none;stroke:#ffb380;stroke-width:0.3"
       d="m 197.57447,-25.842275 c -0.21886,-1.091253 10.12084,-2.626628 8.70647,0.07567"
       id="path421" /><path
       style="fill:none;stroke:#ffb380;stroke-width:0.3"
       d="m 197.53237,-21.339901 c 3.34267,0.632466 6.7324,0.641044 10.11556,0.964798"
       id="path423" /><path
       style="fill:none;stroke:#ffb380;stroke-width:0.3"
       d="m 225.18716,-41.600594 c -2.60766,3.36976 -6.16771,7.616137 -4.98412,12.277484 0.49621,1.954205 3.41762,5.776704 4.35323,7.188674 2.33302,3.52086 5.83616,8.113551 5.59401,12.6180052 -0.10874,2.0227607 -0.49883,4.0722787 -1.28279,5.9401127 -0.79869,1.9029468 -2.24228,3.46548068 -3.38589,5.1834123 -0.25866,0.388575 -0.42268,0.8903732 -0.82021,1.1350546 -0.0146,0.009 0.0828,-0.1901005 1.05155,-2.19444625"
       id="path425" /><path
       style="fill:none;stroke:#ffb380;stroke-width:0.3"
       d="m 238.31006,-36.038838 c -2.99642,-1.7717 -4.95097,-0.291743 -3.89057,2.875465 0.59622,1.780781 3.07083,4.269814 4.01678,5.656355 4.20017,6.15646 6.11742,13.443217 3.44891,20.7147212 -0.1132,0.3084328 -4.90686,12.4233013 -5.74124,8.7966576"
       id="path427" /><path
       style="fill:none;stroke:#ffb380;stroke-width:0.3"
       d="m 249.35096,-37.117139 c -0.38606,-1.537783 -0.33703,-1.873602 -1.15668,-3.197064 -0.59669,-0.963478 0.51747,2.261246 1.15668,3.197064 4.43936,6.499378 4.00867,2.114891 5.76233,9.950629 1.67198,7.470871 0.0488,13.973524 -4.0168,20.2796221 -0.88987,1.3802889 -0.6528,1.1589014 -1.36699,1.7025752"
       id="path429" /><path
       style="fill:none;stroke:#ffb380;stroke-width:0.3"
       d="m 232.82116,11.879314 c 2.24091,4.94529 3.3101,10.320674 5.44689,15.304307 0.62071,1.447681 0.85444,3.327583 2.16611,4.199697 0.66243,0.440436 0.54069,-1.498978 0.73601,-2.270109 0.43618,-1.722072 0.78248,-3.465729 1.15666,-5.202327 0.81772,-3.794927 1.48185,-7.642678 2.58677,-11.369442"
       id="path431" /><path
       style="fill:none;stroke:#ffb380;stroke-width:0.3"
       d="m 271.63724,-28.791046 c 0.53276,-0.163954 1.05992,-0.636458 1.59824,-0.491858 2.35455,0.632463 5.75283,7.862589 5.88846,10.083051 0.0588,0.962951 -0.4468,3.423341 -2.25023,2.951136 -1.91357,-0.501041 -6.44401,-4.687961 -2.90214,-6.167117"
       id="path433" /><path
       style="fill:none;stroke:#ffb380;stroke-width:0.3"
       d="m 279.35526,-21.167273 c 0.5537,-2.462744 2.11995,-4.84415 1.17777,-7.245421 1.08656,0.554913 2.30756,0.901843 3.25967,1.66474 1.38833,1.112421 1.48534,2.782788 3.11245,3.594332 2.13533,1.065024 1.31318,-8.298919 0.88333,-9.212854"
       id="path435" /><path
       style="fill:none;stroke:#ffb380;stroke-width:0.3"
       d="m 299.94392,-40.179419 c -7.63675,7.608565 -2.19911,16.71298 3.19656,23.646939"
       id="path437" /><path
       style="fill:none;stroke:#ffb380;stroke-width:0.3"
       d="m 307.55694,-21.99965 c -0.58844,-2.593284 -1.61087,-7.3367 -1.87177,-10.6695 -3.188,-4.679602 6.30855,-5.497595 7.59199,-3.897022 0.16878,0.210485 -0.15422,0.517087 -0.23133,0.77563"
       id="path439" /><path
       style="fill:none;stroke:#ffb380;stroke-width:0.3"
       d="m 306.65259,-31.117913 c 2.2365,0.370525 4.21211,-0.416648 6.2249,-1.248561"
       id="path441" /><path
       style="fill:none;stroke:#ffb380;stroke-width:0.3"
       d="m 306.40026,-42.033344 c 0.72204,-0.220702 1.41811,-0.559472 2.16611,-0.662112 1.33491,-0.183168 2.69158,-0.132625 4.03778,-0.189169 0.61199,-0.02569 1.56319,0.381252 1.82968,-0.170264 0.44862,-0.928503 -5.04492,-1.816344 -6.09878,-1.702576"
       id="path443" /><path
       style="fill:none;stroke:#ffb380;stroke-width:0.3"
       d="m 315.73772,-52.627168 c 0.60984,0.44141 1.4075,0.700829 1.82957,1.324229 3.43662,5.076005 4.51064,17.804794 4.43743,24.252298 -0.0349,3.070702 -0.82127,11.014522 -3.11256,13.450382"
       id="path445" /><path
       style="fill:none;stroke:#ffb380;stroke-width:0.3"
       d="m 334.79105,-39.157871 c 0.93938,0.233318 2.03547,0.130474 2.81811,0.699956 1.85605,1.350507 5.57821,8.423388 4.18502,10.745163 -0.8835,1.472358 -2.40626,2.492345 -3.84855,3.424078 -1.0999,0.710518 -2.88555,-0.368474 -3.34381,-1.267476 -1.47338,-2.890541 1.34718,-5.608436 3.09145,-7.39676"
       id="path447" /><path
       style="fill:none;stroke:#ffb380;stroke-width:0.3"
       d="m 347.57752,-42.449525 c 0.57616,2.877812 1.67508,11.706484 4.07987,13.961154 0.7705,0.72239 0.86088,-1.95014 1.05146,-2.988979 0.77851,-4.243713 2.63123,-11.107473 1.93479,-15.304293"
       id="path451" /></g></svg>
