<?xml version="1.0" encoding="UTF-8" standalone="no"?>
<!-- Created with Inkscape (http://www.inkscape.org/) -->

<svg
   width="127.20779mm"
   height="37.231728mm"
   viewBox="0 0 127.20778 37.231728"
   version="1.1"
   id="svg12"
   inkscape:version="1.2.1 (9c6d41e410, 2022-07-14, custom)"
   sodipodi:docname="divergence_definition.svg"
   xml:space="preserve"
   xmlns:inkscape="http://www.inkscape.org/namespaces/inkscape"
   xmlns:sodipodi="http://sodipodi.sourceforge.net/DTD/sodipodi-0.dtd"
   xmlns="http://www.w3.org/2000/svg"
   xmlns:svg="http://www.w3.org/2000/svg"><sodipodi:namedview
     id="namedview14"
     pagecolor="#000000"
     bordercolor="#ffffff"
     borderopacity="1"
     inkscape:showpageshadow="0"
     inkscape:pageopacity="0"
     inkscape:pagecheckerboard="0"
     inkscape:deskcolor="#000000"
     inkscape:document-units="mm"
     showgrid="true"
     inkscape:zoom="0.91285872"
     inkscape:cx="241.54888"
     inkscape:cy="147.33934"
     inkscape:window-width="1311"
     inkscape:window-height="697"
     inkscape:window-x="0"
     inkscape:window-y="0"
     inkscape:window-maximized="1"
     inkscape:current-layer="layer1"
     inkscape:lockguides="true" /><defs
     id="defs9"><rect
       x="587.26367"
       y="362.45731"
       width="66.575974"
       height="20.973427"
       id="rect1884" /></defs><g
     inkscape:label="Layer 1"
     inkscape:groupmode="layer"
     id="layer1"
     transform="translate(-3379.5496,-22283.94)"><path
       style="fill:none;stroke:#ff00ff;stroke-width:0.499999"
       d="m 3381.5173,22305.375 c 2.1834,0.155 4.3556,-0.216 6.5334,-0.337 3.1469,-0.173 6.3296,-0.1 9.4816,-0.08 0.9025,0 1.6883,0.03 2.5606,-0.03 0.3077,-0.02 0.5953,-0.06 0.9001,-0.112 0.066,-0.01 0.2567,-0.04 0.2016,0 -3.1594,2.22 -7.444,8.965 -9.0781,12.381 -0.2325,0.485 -1.2597,4.33 -2.4831,3.645 -2.1238,-1.19 -3.3859,-3.82 -4.6244,-5.763 -1.1848,-1.858 -2.4196,-3.564 -3.2745,-5.608 -0.1219,-0.292 -1.1856,-2.764 -1.1792,-2.79 0.131,-0.524 1.2509,-0.848 0.962,-1.304 -0.3479,-0.55 -1.2827,-0.224 -1.9243,-0.337"
       id="path1551" /><path
       style="fill:none;stroke:#ff00ff;stroke-width:0.499999"
       d="m 3411.4679,22313.76 c -0.4035,-0.155 -0.9025,-0.16 -1.2105,-0.463 -0.3709,-0.365 0.5003,-2.967 0.8845,-2.65 0.6644,0.547 0.8401,5.766 -1.8312,4.262 -0.4394,-0.247 0.016,-4.162 0.9467,-4.473 1.1179,-0.372 1.4756,3.044 1.2105,3.324 -0.4374,0.46 -1.3682,0 -1.8622,-0.407 -0.6672,-0.539 1.2222,-3.432 1.8156,-2.664 0.626,0.81 0.1127,2.049 0.047,3.071 z"
       id="path1553" /><path
       style="fill:none;stroke:#ff00ff;stroke-width:0.499999"
       d="m 3419.7237,22320.097 c 0.4932,1.287 0.2096,-1.566 0.1706,-2.804 -0.1077,-3.398 -0.1492,-7.282 -0.9932,-10.586 -0.2503,-0.98 -0.7964,-1.86 -1.1949,-2.79 2.3549,-0.523 4.7135,-0.416 7.0921,-0.435 0.3155,0 1.0994,-0.29 0.9466,-0.01 -0.2538,0.459 -0.9788,0.376 -1.4743,0.547"
       id="path1555" /><path
       style="fill:none;stroke:#ff00ff;stroke-width:0.499999"
       d="m 3418.5288,22308.558 c 2.607,-0.552 5.2142,-1.103 7.8214,-1.655"
       id="path1557" /><path
       style="fill:none;stroke:#ff00ff;stroke-width:0.499999"
       d="m 3410.6143,22299.023 c 3.3703,1.058 7.3031,-0.127 10.7233,-0.56 0.8949,-0.114 1.7915,-0.212 2.6848,-0.337 0.3963,-0.06 1.1935,0.05 1.1482,-0.35 -0.1209,-1.065 -5.2882,-1.906 -5.09,-2.622 0.065,-0.236 0.3932,-0.29 0.5898,-0.435"
       id="path1559" /><path
       style="fill:none;stroke:#ff00ff;stroke-width:0.499999"
       d="m 3381.8123,22299.248 c 1.0345,0.06 2.068,0.196 3.1036,0.168 1.4015,-0.04 2.7903,-0.286 4.1899,-0.365 3.1671,-0.177 6.3204,0.176 9.4819,0.1 0.8776,-0.02 -0.4921,-0.676 -0.8226,-0.926 -0.7887,-0.595 -1.6206,-1.133 -2.3897,-1.752 -1.3068,-1.053 -2.6847,-2.655 -2.9176,-2.398 -0.073,0.08 0.1305,0.79 0.1397,0.827"
       id="path1561" /><path
       style="fill:none;stroke:#ff00ff;stroke-width:0.499999"
       d="m 3437.4767,22307.282 c 0.6993,-0.176 9.2869,-2.713 6.0211,-0.701"
       id="path1563" /><path
       style="fill:none;stroke:#ff00ff;stroke-width:0.499999"
       d="m 3438.5787,22309.287 c 2.6683,1.484 5.983,-1.384 9.0471,-0.407"
       id="path1565" /><path
       style="fill:none;stroke:#ff00ff;stroke-width:0.499999"
       d="m 3458.4886,22302.697 c 2.0367,-0.04 1.9378,-0.354 3.6623,2.299 0.6255,0.962 1.138,2.068 1.2415,3.211 0.2079,2.292 -3.0962,6.533 -4.7176,3.59 -1.4475,-2.629 1.1766,-5.832 4.2056,-5.357"
       id="path1567" /><path
       style="fill:none;stroke:#ff00ff;stroke-width:0.499999"
       d="m 3467.4429,22309.427 c 0.5035,-1.856 0.4746,-0.944 0.155,-2.734"
       id="path1569" /><path
       style="fill:none;stroke:#ff00ff;stroke-width:0.499999"
       d="m 3467.536,22302.108 c -0.3919,-1.442 -0.5403,-2.707 0.2791,-3.982 1.7486,2.228 2.5878,4.84 3.5849,7.431 0.1494,0.389 0.2858,0.782 0.45,1.164 0.043,0.101 0.1129,0.374 0.1708,0.281 0.6964,-1.119 0.6078,-9.974 0.4345,-10.797"
       id="path1571" /><path
       style="fill:none;stroke:#ff00ff;stroke-width:0.499999"
       d="m 3484.3267,22289.643 c -1.9706,4.663 -4.0965,10.143 -1.2724,14.975 1.5262,2.611 4.3585,4.094 6.6419,5.917"
       id="path1573" /><path
       style="fill:none;stroke:#ff00ff;stroke-width:0.499999"
       d="m 3493.7776,22296.331 c -0.2484,1.01 -0.6966,1.99 -0.745,3.029 -0.1276,2.743 0.4013,5.57 1.0863,8.216 0.2845,1.1 0.2818,0.732 0.357,0.309"
       id="path1575" /><path
       style="fill:none;stroke:#ff00ff;stroke-width:0.499999"
       d="m 3491.9618,22297.607 c 3.3052,-2.516 1.9992,-2.156 6.9988,-2.524 0.5252,-0.04 1.0892,-0.02 1.5674,0.197 0.1661,0.08 0.031,0.364 0.047,0.547"
       id="path1577" /><path
       style="fill:none;stroke:#ff00ff;stroke-width:0.499999"
       d="m 3493.0791,22301.828 c 2.5234,0.327 4.9858,-0.628 7.3713,-1.36"
       id="path1579" /><path
       style="fill:none;stroke:#ff00ff;stroke-width:0.499999"
       d="m 3499.1934,22284.091 c 0.9414,1.243 2.136,2.331 2.8244,3.73 0.952,1.934 1.4372,4.068 2.0328,6.141 2.0418,7.103 4.314,15.107 0,21.859 -1.9111,2.991 -1.8846,2.593 -4.5159,3.337"
       id="path1581" /></g></svg>
