<?xml version="1.0" encoding="UTF-8" standalone="no"?>
<!-- Created with Inkscape (http://www.inkscape.org/) -->

<svg
   width="181.92728mm"
   height="61.674297mm"
   viewBox="0 0 181.92727 61.674298"
   version="1.1"
   id="svg12"
   inkscape:version="1.2.1 (9c6d41e410, 2022-07-14, custom)"
   sodipodi:docname="divergence_therom_lower_d.svg"
   xml:space="preserve"
   xmlns:inkscape="http://www.inkscape.org/namespaces/inkscape"
   xmlns:sodipodi="http://sodipodi.sourceforge.net/DTD/sodipodi-0.dtd"
   xmlns="http://www.w3.org/2000/svg"
   xmlns:svg="http://www.w3.org/2000/svg"><sodipodi:namedview
     id="namedview14"
     pagecolor="#000000"
     bordercolor="#ffffff"
     borderopacity="1"
     inkscape:showpageshadow="0"
     inkscape:pageopacity="0"
     inkscape:pagecheckerboard="0"
     inkscape:deskcolor="#000000"
     inkscape:document-units="mm"
     showgrid="true"
     inkscape:zoom="0.9568253"
     inkscape:cx="433.72599"
     inkscape:cy="72.113478"
     inkscape:window-width="1366"
     inkscape:window-height="746"
     inkscape:window-x="1360"
     inkscape:window-y="0"
     inkscape:window-maximized="1"
     inkscape:current-layer="layer1"
     inkscape:lockguides="true"
     showguides="true"><sodipodi:guide
       position="3265.6758,-22192.731"
       orientation="0,-1"
       id="guide3409"
       inkscape:locked="true" /></sodipodi:namedview><defs
     id="defs9"><rect
       x="587.26367"
       y="362.45731"
       width="66.575974"
       height="20.973427"
       id="rect1884" /></defs><g
     inkscape:label="Layer 1"
     inkscape:groupmode="layer"
     id="layer1"
     transform="translate(20.46051,-21.69261)"><path
       style="fill:none;stroke:#ffb380;stroke-width:0.3"
       d="m -14.78236,25.572375 c -2.926645,4.28376 -5.806863,9.317008 -3.316139,14.553882 1.739952,3.658333 4.773587,6.364655 5.978002,10.353596 1.271727,4.211875 -0.361847,8.358317 -2.513138,11.918659 -0.910197,1.506357 -2.292928,3.821837 -3.910971,4.695232"
       id="path393" /><path
       style="fill:none;stroke:#ffb380;stroke-width:0.3"
       d="m -18.366177,75.694983 c 0.250067,-3.315002 0.0637,-0.224613 0,0 -0.458161,1.615397 -2.387137,4.172892 -0.356893,5.725234 0.909005,0.695031 2.294642,0.341873 3.301286,0.200657 0.260169,-0.0365 1.019345,-0.124772 0.788149,0 -2.093595,1.129879 -6.621613,-2.70142 -5.502155,-4.49458 0.401765,-0.643554 1.346373,-2.060948 1.769613,-1.431311 0.5146,0.765548 -0.714798,1.703289 -0.996316,2.581711 -0.350742,1.09442 -1.211313,4.180173 0.505584,4.788866 1.964732,0.696558 4.101388,-1.204672 5.844162,-1.845985"
       id="path395" /><path
       style="fill:none;stroke:#ffb380;stroke-width:0.3"
       d="m -2.7668812,38.079623 c -0.4312444,0.285369 -0.9456713,0.473668 -1.2937331,0.856107 -3.2859323,3.610478 -3.9768237,14.959928 2.9592452,14.767907"
       id="path397" /><path
       style="fill:none;stroke:#ffb380;stroke-width:0.3"
       d="M 4.20747,52.339212 C 3.9483062,52.921962 3.6714758,52.830707 3.5531608,52.098436 2.8424423,47.699685 4.3274559,54.208745 3.2705963,46.80125 3.199362,46.301973 2.8740637,45.873796 2.6757971,45.410066 2.37183,43.265962 7.3572676,42.421414 6.8692996,44.567335"
       id="path399" /><path
       style="fill:none;stroke:#ffb380;stroke-width:0.3"
       d="M 3.6275232,47.59047 C 5.4451379,46.996457 7.2088107,46.266921 9.0404285,45.717736"
       id="path401" /><path
       style="fill:none;stroke:#ffb380;stroke-width:0.3"
       d="m 2.1404406,40.313529 c 1.8656074,-0.51317 3.7956317,-0.586851 5.7103234,-0.749093 0.2913962,-0.02469 0.9456208,0.119861 0.8625099,-0.160523 -0.00474,-0.01598 -4.0936042,-3.376512 -3.256661,-2.247289"
       id="path403" /><path
       style="fill:none;stroke:#ffb380;stroke-width:0.3"
       d="m 15.479424,46.587218 c -0.178451,-0.441433 -0.461648,-0.8539 -0.535356,-1.324298 -0.03638,-0.232182 0.118952,-0.458131 0.223055,-0.668832 0.59735,-1.209048 1.290598,2.275403 0.312301,1.99313 -2.154494,-0.621649 0.14306,-3.380486 0.237908,-1.578448 0.02797,0.531357 -0.158605,1.052298 -0.237908,1.578448 z"
       id="path405" /><path
       style="fill:none;stroke:#ffb380;stroke-width:0.3"
       d="m 22.215803,38.93573 c 1.100933,2.540942 1.063709,2.296448 1.873713,4.69523 0.04871,0.144248 1.575024,4.013784 0.475847,4.227047 -0.180842,0.03509 -0.384741,-0.103484 -0.490733,-0.254151 -1.08866,-1.54753 -1.148434,-3.633169 -0.52047,-5.377447 0.705414,-1.959409 3.40265,-4.095811 4.966798,-1.605209 0.529627,0.84333 0.364361,2.156542 0.297416,3.090021"
       id="path407" /><path
       style="fill:none;stroke:#ffb380;stroke-width:0.3"
       d="m 20.713869,35.698561 c 1.083781,-0.112805 2.1727,-0.170333 3.256661,-0.280911 0.971058,-0.09906 2.463866,-0.226573 2.349561,-0.535069 -0.435004,-1.174023 -3.368765,-2.742274 -4.386818,-3.290679 -1.186527,-0.639154 -1.779286,-0.750146 -1.472198,-0.775843 0.446175,-0.03734 0.905108,0.07251 1.338358,0.147138"
       id="path409" /><path
       style="fill:none;stroke:#ffb380;stroke-width:0.3"
       d="m 27.256964,39.002617 c 1.382514,1.393468 1.327039,1.13335 2.275197,3.00976 0.603999,1.195316 0.774526,2.60292 0.877364,3.919384 0.05421,0.693917 0.342249,2.729182 0.07436,2.086768 -0.371091,-0.889905 -0.122658,-2.301936 -0.327155,-3.29067 -0.272933,-1.319628 -0.685061,-2.485118 -1.561409,-3.518088 -0.223131,-0.263006 -0.534956,-0.454173 -0.713788,-0.749094 -0.274145,-0.452109 -0.09602,-1.444077 -0.62457,-1.45806 -1.84885,-0.04892 -5.357981,5.539343 -2.795704,6.768621"
       id="path411" /><path
       style="fill:none;stroke:#ffb380;stroke-width:0.3"
       d="m 29.933677,27.619017 c 0.778227,1.38226 1.69966,2.693154 2.334676,4.146785 2.628606,6.017215 4.021597,13.138145 2.87003,19.637042 -0.259942,1.466998 -0.539038,3.033612 -1.412687,4.240421 -0.134892,0.186336 0.06938,-0.454811 0.104069,-0.682215"
       id="path413" /><path
       style="fill:none;stroke:#ffb380;stroke-width:0.3"
       d="m 41.488163,35.150117 c 0.426294,0.428053 0.867627,0.841639 1.278883,1.284163 1.955048,2.103697 3.916648,5.740278 2.215718,8.587864 -0.286723,0.480018 -1.314206,1.888445 -2.245458,1.618583 -2.914626,-0.844613 -1.904915,-7.276547 1.293733,-6.715119"
       id="path415" /><path
       style="fill:none;stroke:#ffb380;stroke-width:0.3"
       d="m 46.112921,36.300517 c 0.68901,0.374547 1.562939,0.52288 2.067028,1.123641 0.597467,0.712038 1.050989,3.000308 1.100418,4.039772 0.01326,0.278966 0.02421,0.58956 -0.118951,0.829355 -0.05641,0.09449 -0.285538,-2.65e-4 -0.312304,-0.107011 -0.726577,-2.897624 1.266828,-7.739182 4.446329,-8.400582 0.319336,-0.06643 0.634484,0.151599 0.951724,0.227399"
       id="path417" /><path
       style="fill:none;stroke:#ffb380;stroke-width:0.3"
       d="m 65.584101,33.983834 c -0.451083,0.294288 -1.647534,0.431784 -1.353246,0.882866 0.294291,0.451081 0.820039,-0.806902 1.353246,-0.882866 0.652454,-0.09295 1.274318,0.398155 1.933154,0.414673 0.321432,0.0081 5.856938,-1.223182 5.115526,0.53507"
       id="path419" /><path
       style="fill:none;stroke:#ffb380;stroke-width:0.3"
       d="m 65.822006,38.090492 c 3.385053,-0.122938 6.778853,-0.03159 10.126911,-0.561829"
       id="path421" /><path
       style="fill:none;stroke:#ffb380;stroke-width:0.3"
       d="m 85.480997,21.85114 c -1.363702,3.185033 -3.758673,6.526461 -2.884881,10.219825 0.318743,1.347279 3.225598,4.494641 3.80687,5.270426 2.338559,3.121115 4.987877,6.689545 5.234476,10.768269 0.240242,3.97356 -1.946872,7.37191 -4.416589,10.233199 -0.482039,0.558464 -0.945559,1.181312 -1.591151,1.538322 -0.447992,0.24774 -0.247851,-0.414607 0,-1.618583"
       id="path423" /><path
       style="fill:none;stroke:#ffb380;stroke-width:0.3"
       d="m 99.355305,26.787154 c -0.282543,-0.753555 -0.124285,-1.907887 -0.847627,-2.260666 -1.14822,-0.559996 -2.671474,2.941915 -2.706452,3.116773 -0.607023,3.03458 2.156079,5.669777 3.47975,8.026042 3.935444,7.005492 6.141844,12.884563 0.297384,19.717298 -2.058435,2.406504 -1.546773,2.086882 -3.152564,2.80911"
       id="path425" /><path
       style="fill:none;stroke:#ffb380;stroke-width:0.3"
       d="m 89.882701,68.897094 c 0.02975,-0.441431 0.53068,-1.294541 0.08925,-1.32429 -0.441431,-0.02975 -0.124386,0.883256 -0.08925,1.32429 0.06952,0.872556 0.324821,1.72313 0.401518,2.595086 0.202235,2.299197 0.148961,4.615786 0.34204,6.915769 0.0584,0.695613 0.111821,3.955613 0.6989,2.635213"
       id="path427" /><path
       style="fill:none;stroke:#ffb380;stroke-width:0.3"
       d="m 90.090904,71.960365 c -0.13879,-0.700048 -0.406834,-1.386535 -0.416369,-2.100143 -0.01551,-1.16037 0.07047,-2.336321 0.342005,-3.464579 0.420503,-1.74721 3.148074,1.023631 3.331025,3.156916 0.160721,1.874062 -0.118851,3.434461 -0.773263,5.163415 -0.428263,1.13147 -1.010365,2.199241 -1.472195,3.317428 -0.06975,0.168876 -0.239281,0.397576 -0.118954,0.535069 0.186333,0.212919 2.189983,-0.0066 2.379298,0.01339 2.055831,0.217123 2.974935,1.026192 3.806872,2.809111"
       id="path429" /><path
       style="fill:none;stroke:#ffb380;stroke-width:0.3"
       d="m 112.23491,36.798381 c 3.20842,1.601526 6.59458,7.079977 2.20087,9.604491 -1.99874,1.148427 -2.75878,-4.217974 -0.98146,-5.283808"
       id="path431" /><path
       style="fill:none;stroke:#ffb380;stroke-width:0.3"
       d="m 117.17198,42.523623 c 0.85674,-1.139299 0.95133,-1.881066 1.13015,-3.103406"
       id="path433" /><path
       style="fill:none;stroke:#ffb380;stroke-width:0.3"
       d="m 118.74824,36.664616 c 0.0149,-0.441431 0.48605,-1.309423 0.0446,-1.324298 -0.44143,-0.01487 -0.22924,0.923049 -0.0446,1.324298 0.63843,1.387567 1.58714,2.611339 2.43881,3.879252 0.35403,0.527071 1.00995,1.708885 1.44245,1.244036 1.16903,-1.256435 1.43673,-6.792719 0.20817,-8.092929"
       id="path435" /><path
       style="fill:none;stroke:#ffb380;stroke-width:0.3"
       d="m 131.64112,30.792228 c 0.93793,4.432933 1.16396,9.027184 2.24545,13.43024"
       id="path437" /><path
       style="fill:none;stroke:#ffb380;stroke-width:0.3"
       d="m 136.71198,30.190272 c 0.0772,-0.05212 0.7663,-0.406151 0.6692,-0.695584 -0.47132,-1.404345 -4.08251,0.25414 -4.49096,0.642083 -1.32231,1.255932 -0.92216,2.179301 -0.87736,3.812362 2.49069,0.549044 4.49246,0.181318 6.48362,-1.284163"
       id="path439" /><path
       style="fill:none;stroke:#ffb380;stroke-width:0.3"
       d="m 128.4439,27.15376 c 1.84159,-1.248238 4.05273,-1.376889 6.1862,-1.658718 1.0601,-0.140038 2.21635,-0.23886 2.23061,-0.428058 0.0447,-0.593405 -2.78937,-2.798906 -3.45002,-3.250544"
       id="path441" /><path
       style="fill:none;stroke:#ffb380;stroke-width:0.3"
       d="m 146.13996,28.411174 c 1.97195,-0.172365 3.02219,1.501511 3.82176,3.116771 0.87901,1.775745 1.16602,4.209179 -0.10407,5.899142 -0.47209,0.628149 -1.92861,1.487892 -2.23061,0.762468 -0.39714,-0.953971 -0.61719,-2.039647 -0.47584,-3.063269 0.13861,-1.003845 1.30709,-4.6101 3.16744,-4.400944"
       id="path443" /><path
       style="fill:none;stroke:#ffb380;stroke-width:0.3"
       d="m 153.69426,38.082544 c 0.58104,-0.05602 0.30159,1.329883 0.84762,1.551707 0.57964,0.235472 1.92408,-9.932188 2.09677,-11.437112 0.2198,-1.915421 0.39168,-2.986997 0.25283,-4.748739 -0.008,-0.09955 -0.088,-0.379468 -0.1041,-0.28091 -0.56423,3.460549 1.17602,6.98692 2.1265,10.193072 1.23838,4.177298 1.3821,2.911589 1.07065,4.815618"
       id="path445" /><path
       style="fill:none;stroke:#ffb380;stroke-width:0.3"
       d="m 156.7279,35.086159 c 0.80826,-3.152431 1.77843,-3.662622 4.72882,-3.464576"
       id="path447" /></g></svg>
