<?xml version="1.0" encoding="UTF-8" standalone="no"?>
<!-- Created with Inkscape (http://www.inkscape.org/) -->

<svg
   width="266.0596mm"
   height="283.49222mm"
   viewBox="0 0 266.0596 283.49223"
   version="1.1"
   id="svg12"
   inkscape:version="1.2.1 (9c6d41e410, 2022-07-14, custom)"
   sodipodi:docname="double_integral_sum.svg"
   xml:space="preserve"
   xmlns:inkscape="http://www.inkscape.org/namespaces/inkscape"
   xmlns:sodipodi="http://sodipodi.sourceforge.net/DTD/sodipodi-0.dtd"
   xmlns="http://www.w3.org/2000/svg"
   xmlns:svg="http://www.w3.org/2000/svg"><sodipodi:namedview
     id="namedview14"
     pagecolor="#000000"
     bordercolor="#ffffff"
     borderopacity="1"
     inkscape:showpageshadow="0"
     inkscape:pageopacity="0"
     inkscape:pagecheckerboard="0"
     inkscape:deskcolor="#000000"
     inkscape:document-units="mm"
     showgrid="true"
     inkscape:zoom="0.32391637"
     inkscape:cx="509.39074"
     inkscape:cy="549.52456"
     inkscape:window-width="1366"
     inkscape:window-height="746"
     inkscape:window-x="0"
     inkscape:window-y="0"
     inkscape:window-maximized="1"
     inkscape:current-layer="layer1"
     inkscape:lockguides="true"><inkscape:grid
       type="xygrid"
       id="grid344"
       color="#969696"
       opacity="0.39215686"
       empcolor="#ffffff"
       empopacity="0.17254902"
       dotted="false"
       originx="-4085.0916"
       originy="-4061.9439" /></sodipodi:namedview><defs
     id="defs9" /><g
     inkscape:label="Layer 1"
     inkscape:groupmode="layer"
     id="layer1"
     transform="translate(-4190.0919,-4210.4433)"><path
       style="fill:none;stroke:#ff9955;stroke-width:3"
       d="m 4284.5323,3998.9405 c -4.8731,-4.0914 -6.2458,-9.6485 -5.9301,-15.8451 0.059,-1.1578 0.3424,-2.2932 0.5271,-3.4377 0.079,-0.4889 0.5219,-1.0395 0.2636,-1.462 -0.3583,-0.5859 -4.5504,6.8979 -4.5684,6.9149 -1.493,1.4754 -3.7806,1.8503 -5.5348,3.0031 -1.0881,0.7151 -1.8431,1.8716 -2.9431,2.5684 -1.0406,0.6592 0.5575,-2.7048 1.6253,-3.3192 8.8627,-5.099 6.9757,1.4081 5.9741,-6.0456 -0.02,-0.146 0.2635,0.1316 0.3953,0.1976 0.1611,1.1986 0.3222,2.3971 0.4832,3.5957 1.3968,9.9835 -0.013,19.9569 -0.2196,29.9516 -0.1277,6.1841 1.2487,12.2255 1.0542,18.3739 -0.3044,9.6218 -1.0357,19.2711 -1.5374,28.8847 -0.4403,8.4353 0.2971,16.8923 -0.044,25.3283 -0.4111,10.1691 -1.4096,20.3183 -1.1861,30.5048 0.1643,7.4852 1.7212,15.0658 2.4599,22.5229 1.1297,11.4034 1.0005,23.065 0.3954,34.4956 -0.3144,5.9376 -1.8894,11.2845 -2.7674,17.1095 -0.8977,5.9555 -1.186,12.3769 -1.186,18.4135 0,9.8552 2.413,19.5167 2.5038,29.3193 0.078,8.4059 -2.5118,16.9286 -0.7907,25.2889 -11.3229,13.8427 -25.9017,24.2738 -40.0611,35.0093 -10.2178,7.7469 -20.2705,15.6209 -30.7927,22.9575 -7.1212,4.9653 -14.671,9.2258 -21.5241,14.5807 -3.7488,2.9291 -6.9031,6.574 -10.4985,9.6809 -5.0284,4.3451 -10.8572,7.6032 -16.0333,11.7356 -4.5998,3.6722 -8.4693,8.3465 -12.6509,12.4864 -8.8182,8.7302 -17.8157,16.6599 -24.7308,27.0275 -2.8537,1.335 -5.8454,2.408 -8.5612,4.0051 -4.3314,2.547 -14.9012,12.4374 -18.625,16.5168 -3.5976,3.9411 -6.2635,8.7055 -9.576,12.8815 -3.4651,4.3683 -2.5434,3.4283 -5.5348,6.3222 -0.1751,0.1694 -0.4426,0.5674 -0.615,0.3952 -1.0557,-1.0551 5.3691,-17.6342 6.2816,-19.836 1.3685,-3.3022 2.9117,-6.5338 4.173,-9.8785 0.1535,-0.4069 0.4196,-1.523 0.044,-1.304 -3.8889,2.2675 -17.7289,27.0449 -16.1211,30.6233 0.8764,1.9507 4.1646,1.001 6.2815,1.304 6.8543,0.9809 12.7448,0.1765 16.8679,6.7568"
       id="path1285" /><path
       style="fill:none;stroke:#ff9955;stroke-width:3"
       d="m 4272.1934,4269.1901 c 1.1714,-0.8825 2.1563,-2.0931 3.5142,-2.6474 0.1517,-0.062 8.9227,1.9094 9.5321,2.0942 7.4782,2.268 14.4983,5.7511 21.9634,8.1004 20.6562,6.5008 41.9851,10.7476 62.8153,16.6353 26.6242,7.5254 52.3992,17.0332 79.2439,24.222 26.4598,7.0858 53.1191,12.9516 79.8149,19.0457 26.1747,5.9751 52.2328,12.7134 78.2337,19.4013 12.1637,3.1288 24.2537,6.3769 36.0638,10.6688 6.7811,2.4642 14.1385,6.4236 21.2167,8.0608 0.7352,0.1701 -0.9863,-1.1559 -1.5814,-1.62 -2.9559,-2.306 -5.8832,-4.6559 -8.961,-6.7964 -6.6749,-4.6422 -15.3627,-7.1818 -20.9971,-13.2767 -0.8231,-0.8905 1.7983,-2.8378 5.6666,-3.2796 2.1482,-0.2454 20.1557,1.6979 14.8034,8.4164 -10.0237,12.5821 -23.3058,15.3836 -33.9554,25.9211"
       id="path1287" /><path
       style="fill:none;stroke:#00ffff;stroke-width:3"
       d="m 4270.7878,4353.0386 c -1.7571,0.1976 -3.5446,0.212 -5.2713,0.5927 -2.1731,0.4791 -6.4334,2.7136 -8.2143,3.5562 -13.47,6.374 -27.5429,14.4129 -37.3817,25.8816 -5.994,6.9871 -10.6301,14.8641 -14.8912,22.9971 -15.9117,30.3703 -0.7574,51.4791 29.5189,60.2192 35.9022,10.3641 75.9595,6.5728 111.8815,-1.225 22.2505,-4.83 56.967,-14.8151 74.0166,-30.9788 10.6775,-10.1227 8.5302,-24.6114 0.8786,-36.1157 -4.0275,-6.0553 -9.3391,-11.3649 -13.8809,-17.0305 -15.8783,-19.8071 -30.9734,-31.0415 -55.831,-36.8665 -8.7625,-2.0533 -17.161,-3.7739 -26.2243,-3.3982 -10.7154,0.4442 -21.3534,2.526 -31.5394,5.8086 -1.6332,0.5263 -15.9215,5.4278 -17.2632,5.769 -1.8905,0.4808 -3.9614,0.1341 -5.7983,0.7903 -2.29,0.818 -4.1732,2.5125 -6.3694,3.5562 -2.1496,1.0215 -4.4623,1.6574 -6.6769,2.5289"
       id="path1289" /><path
       style="fill:none;stroke:#00ffff;stroke-width:3"
       d="m 4198.4403,4437.0846 c -2.7683,-4.5698 -2.1581,-9.9778 -3.5141,-14.8572"
       id="path1412" /><path
       style="fill:none;stroke:#00ffff;stroke-width:3"
       d="m 4196.1561,4410.6894 c -0.7209,-2.937 -0.7526,-5.9465 -1.0981,-8.9302"
       id="path1414" /><path
       style="fill:none;stroke:#00ffff;stroke-width:3"
       d="m 4193.6962,4386.902 c -0.8192,-5.306 -0.4583,-2.8422 -1.0981,-7.3891"
       id="path1416" /><path
       style="fill:none;stroke:#00ffff;stroke-width:3"
       d="m 4192.7298,4367.6192 c -0.7465,-3.3158 -0.3133,-6.6551 -0.1757,-9.997"
       id="path1418" /><path
       style="fill:none;stroke:#00ffff;stroke-width:3"
       d="m 4192.5102,4345.61 c -0.3195,-5.508 -0.4016,-3.0332 0,-7.4286"
       id="path1420" /><path
       style="fill:none;stroke:#00ffff;stroke-width:3"
       d="m 4192.6859,4326.4458 c -0.044,-1.5279 -0.088,-3.0558 -0.1318,-4.5837"
       id="path1422" /><path
       style="fill:none;stroke:#00ffff;stroke-width:3"
       d="m 4191.8074,4293.2541 c -0.1938,-3.6093 0.048,-7.2218 -0.2196,-10.8268"
       id="path1424" /><path
       style="fill:none;stroke:#00ffff;stroke-width:3"
       d="m 4428.0017,4413.0207 c -0.5362,-4.2607 0.012,-9.1048 -1.801,-13.1187"
       id="path1426" /><path
       style="fill:none;stroke:#00ffff;stroke-width:3"
       d="m 4425.8932,4392.2363 c -1.6287,-4.6998 -2.0821,-9.4361 -2.2841,-14.3435"
       id="path1428" /><path
       style="fill:none;stroke:#00ffff;stroke-width:3"
       d="m 4423.9604,4368.6861 c -0.7185,-3.7974 0.2221,-7.7253 -0.5271,-11.4986"
       id="path1430" /><path
       style="fill:none;stroke:#00ffff;stroke-width:3"
       d="m 4422.1595,4345.4124 c -0.9357,-4.2093 -1.3364,-8.493 -1.845,-12.763"
       id="path1432" /><path
       style="fill:none;stroke:#00ffff;stroke-width:3"
       d="m 4420.5341,4320.9533 c -3.1804,-5.0843 -4.9463,-8.2963 -3.2944,-14.0274 0.071,-6.6541 0.5222,-13.3707 -0.3515,-19.994"
       id="path1434" /><path
       style="fill:none;stroke:#00ffff;stroke-width:3"
       d="m 4415.7901,4276.7768 c -1.6353,-4.4954 -1.807,-9.1536 -2.2403,-13.8299"
       id="path1436" /><path
       style="fill:none;stroke:#00ffff;stroke-width:3"
       d="m 4413.1105,4249.7493 c -1.9645,-4.0523 -2.8325,-7.628 -2.1524,-12.0122"
       id="path1438" /><path
       style="fill:none;stroke:#00ffff;stroke-width:3"
       d="m 4411.3535,4230.0714 c -1.392,-4.3376 -1.3783,-2.4993 -1.0543,-5.4134"
       id="path1440" /><path
       style="fill:none;stroke:#00ffff;stroke-width:3"
       d="m 4194.0916,4282.4273 c 7.7567,-0.7812 13.7211,-5.0316 20.8213,-7.7052 4.3166,-1.6255 9.1015,-2.5695 13.5294,-3.9119 16.0824,-4.8755 26.2775,-5.9267 42.1697,-0.3556 12.1311,4.2526 27.6023,14.1641 40.7641,13.4347 13.7476,-0.7619 30.5798,-7.5732 42.6969,-13.9879 12.3605,-6.5436 21.3324,-16.3418 30.6169,-26.5138 3.706,-4.0602 15.7569,-18.5633 21.4363,-19.1643"
       id="path1442" /><path
       style="fill:none;stroke:#00ffff;stroke-width:3"
       d="m 4399.7568,4220.4695 c -3.8911,-5.5313 -10.4227,-6.8711 -16.7361,-8.0213 -16.9373,-3.0857 -31.615,8.7722 -44.8932,17.5837 -4.6628,3.0942 -8.3824,5.8642 -13.7491,7.5076 -8.5356,2.6138 -17.3163,3.9803 -26.2243,4.386 -2.5656,0.1169 -5.075,-0.3349 -7.6432,-0.3556 -9.0257,-0.073 -18.4926,0.787 -27.1468,3.5167 -7.2096,2.2741 -13.0918,6.9638 -19.811,10.2737 -5.3365,2.6288 -10.7824,5.4805 -16.2529,7.8237 -4.8696,2.0859 -9.475,3.7945 -13.8808,6.8359 -5.1404,3.5485 -9.4852,9.8899 -14.2762,12.763"
       id="path1444" /><path
       style="fill:none;stroke:#00ffff;stroke-width:3"
       d="m 4213.5951,4445.7777 c 4.5735,-8.8042 4.7018,-9.9136 11.2452,-18.374 13.8324,-17.8849 29.5431,-34.9423 45.3764,-51.0914 5.9068,-6.0247 13.0156,-13.6043 20.6456,-17.8998 2.7818,-1.5661 2.2577,-1.0254 2.1524,0.8693"
       id="path1448" /><path
       style="fill:none;stroke:#00ffff;stroke-width:3"
       d="m 4241.8839,4453.799 c 15.4281,-18.4695 -5.4338,6.8379 13.1781,-17.149 17.7264,-22.8459 37.8278,-46.562 58.9058,-66.3438 3.7196,-3.491 7.6144,-6.7945 11.5527,-10.0366 1.4964,-1.2318 9.1621,-7.3812 10.0153,-6.8359 0.6251,0.3995 -1.4199,3.2127 -3.6898,6.7174"
       id="path1450" /><path
       style="fill:none;stroke:#00ffff;stroke-width:3"
       d="m 4284.4051,4458.3036 c 13.0006,-12.7405 -0.035,0.4944 22.3147,-26.8695 6.0738,-7.4363 29.2865,-34.2967 35.6247,-41.1734 4.193,-4.5493 22.5729,-23.9781 29.3431,-27.1065 2.7418,-1.267 0.022,2.4236 -1.7571,5.2158"
       id="path1452" /><path
       style="fill:none;stroke:#00ffff;stroke-width:3"
       d="m 4341.0267,4443.8415 c -0.8054,2.845 -2.1588,5.5894 -2.416,8.535 -0.058,0.6693 1.3191,-0.4783 1.7571,-0.9879 2.0391,-2.3725 3.6514,-5.0829 5.5787,-7.5471 13.1851,-16.8582 27.1813,-33.7414 42.5211,-48.6811 2.4521,-2.3882 12.1391,-13.1069 16.9118,-13.7508 1.3725,-0.1852 -0.3332,2.779 -0.8346,4.0699"
       id="path1454" /><path
       style="fill:none;stroke:#00ffff;stroke-width:3"
       d="m 4382.1422,4439.3764 c 1.8009,-1.8308 3.7873,-3.4961 5.4029,-5.4924 5.3423,-7.5607 6.6244,-9.7124 12.2117,-16.4773 3.6153,-4.3774 7.9137,-8.4049 11.2453,-13.0001"
       id="path1456" /><path
       style="fill:none;stroke:#00ffff;stroke-width:3"
       d="m 4336.1508,4274.2479 c 13.5127,-11.6666 10.3195,-33.9953 24.7747,-44.8087 2.863,-2.1418 5.982,-3.9275 9.0929,-5.69 4.4811,-2.539 13.6473,-4.1124 15.2865,-9.7995"
       id="path1458" /><path
       style="fill:none;stroke:#00ffff;stroke-width:3"
       d="m 4335.6676,4235.1687 c -3.2445,5.5413 -4.1929,12.4179 -7.819,17.7417 -2.5029,3.6749 -5.5412,6.903 -8.1703,10.4712 -1.9596,2.6594 -4.7261,7.4904 -8.2583,8.535 -2.8643,0.8471 -5.6474,-0.2899 -8.4778,-0.6322 -2.7902,-0.3375 -6.0416,-0.044 -8.6097,-1.304"
       id="path1460" /><path
       style="fill:none;stroke:#00ffff;stroke-width:3"
       d="m 4287.6117,4241.6094 c -0.4832,1.1064 -0.9749,2.2091 -1.4496,3.3192 -0.9572,2.2388 -1.7737,4.4383 -3.4263,6.2827 -6.0335,6.734 -16.1333,3.1007 -17.8342,16.8725"
       id="path1462" /><path
       style="fill:none;stroke:#00ffff;stroke-width:3"
       d="m 4252.646,4253.3451 c -4.2564,-0.6063 -12.384,5.0186 -12.607,8.9301 -0.027,0.4793 0.8492,-0.4478 1.2739,-0.6717"
       id="path1464" /><path
       style="fill:none;stroke:#00ffff;stroke-width:3"
       d="m 4219.3056,4270.0199 c 4.3788,-0.4186 7.0288,-6.5988 11.0256,-7.4286"
       id="path1466" /><path
       style="fill:none;stroke:#00ff00;stroke-width:3"
       d="m 4122.4097,4619.0554 c 0.6589,-1.1328 3.1095,-2.7393 1.9767,-3.3982 -1.1327,-0.6589 -1.3178,2.2654 -1.9767,3.3982 z"
       id="path1519" /><path
       style="fill:none;stroke:#00ff00;stroke-width:3"
       d="m 4323.2869,4431.7991 c -5.5733,4.8757 -4.6428,-5.22 -3.4702,-5.0973 1.8461,0.1931 3.4585,5.0496 3.4702,5.0973 0.5191,2.1165 -1.69,6.6808 0.4832,6.5198 2.1733,-0.1611 -0.3221,-4.3466 -0.4832,-6.5198 z"
       id="path1584" /><path
       style="fill:none;stroke:#00ff00;stroke-width:3"
       d="m 4362.25,4475.5014 c 0.2196,-1.2249 1.8838,-3.4551 0.6589,-3.6748 -1.2249,-0.2196 -0.4916,2.4416 -0.6589,3.6748 -0.9191,6.7741 -1.9742,13.4805 -3.0749,20.2311 -0.6895,4.2286 -0.2478,3.6333 -1.8449,-1.7781"
       id="path1586" /><path
       style="fill:none;stroke:#00ff00;stroke-width:3"
       d="m 4353.2889,4478.3464 c 7.4494,2.1151 12.2632,8.6222 16.4726,14.7387"
       id="path1588" /><path
       style="fill:none;stroke:#00ff00;stroke-width:3"
       d="m 4389.1332,4475.778 c 1.1214,9.0225 0.026,18.0081 -1.4496,26.909 -1.5015,9.0573 0.1534,10.4228 -2.6795,6.7964"
       id="path1590" /><path
       style="fill:none;stroke:#00ff00;stroke-width:3"
       d="m 4373.3635,4486.1702 c 5.1795,4.0667 12.602,6.6076 14.6715,13.3557"
       id="path1592" /><path
       style="fill:none;stroke:#00ff00;stroke-width:3"
       d="m 4322.1887,4413.8203 c 0.3954,-38.6425 -1.2067,-77.2806 -2.416,-115.8943 -0.122,-3.8961 -0.9123,-20.8177 -3.4262,-22.3253"
       id="path1594" /><path
       style="fill:none;stroke:#00ff00;stroke-width:3"
       d="m 4322.7158,4406.2731 c 0.4442,8.4088 0.3747,17.272 2.3721,25.4865"
       id="path1596" /><path
       style="fill:none;stroke:#00ff00;stroke-width:3"
       d="m 4307.649,4272.4791 c 3.4704,2.4019 19.861,1.3781 20.0745,3.8724"
       id="path1598" /><path
       style="fill:none;stroke:#00ff00;stroke-width:3"
       d="m 4307.6929,4427.9662 c 9.3948,-2.5976 19.3607,-4.9311 29.1235,-4.0304"
       id="path1600" /><path
       style="fill:none;stroke:#00ff00;stroke-width:3"
       d="m 4389.1332,4321.2788 c -4.239,-0.4345 -3.4996,-1.4048 -5.6226,3.0425 -4.6763,9.7959 6.2327,12.7796 6.0179,18.7691"
       id="path1602" /><path
       style="fill:none;stroke:#00ff00;stroke-width:3"
       d="m 4381.5778,4338.7044 c 3.9974,-2.1043 7.7333,-5.0846 12.3434,-4.307"
       id="path1604" /><path
       style="fill:none;stroke:#00ff00;stroke-width:3"
       d="m 4415.9285,4315.5888 c -1.6859,5.873 -2.7368,11.8682 -3.602,17.8998 -0.097,0.6776 -0.2597,2.6861 -0.3953,2.0151 -0.2943,-1.4561 -0.5271,-2.924 -0.7907,-4.386"
       id="path1606" /><path
       style="fill:none;stroke:#00ff00;stroke-width:3"
       d="m 4408.6806,4319.1845 c 1.3764,0.026 2.8584,-0.4505 4.1291,0.079 3.3316,1.3885 9.0919,8.3589 10.8939,11.6961"
       id="path1608" /><path
       style="fill:none;stroke:#00ff00;stroke-width:3"
       d="m 4435.0806,4330.2484 c -0.2538,1.4684 -3.0985,14.3101 -1.2739,9.5229"
       id="path1610" /><path
       style="fill:none;stroke:#00ff00;stroke-width:3"
       d="m 4444.0416,4317.5249 c -1.0387,-1.0127 0.07,20.4284 -3.4262,16.3588"
       id="path1612" /><path
       style="fill:none;stroke:#00ff00;stroke-width:3"
       d="m 4434.9049,4323.3335 c 3.3736,0.1687 6.6151,0.9112 9.8396,1.8176"
       id="path1614" /><path
       style="fill:none;stroke:#00ff00;stroke-width:3"
       d="m 4445.1838,4302.7468 c 1.6692,1.2644 3.7165,2.1446 5.0076,3.7933 4.2156,5.383 7.2227,28.0905 0.5271,31.4135"
       id="path1616" /><path
       style="fill:none;stroke:#00ff00;stroke-width:3"
       d="m 4407.9778,4307.5674 c -6.4585,9.4301 -7.5788,22.7624 1.7131,30.4652"
       id="path1618" /><path
       style="fill:none;stroke:#00ff00;stroke-width:3"
       d="m 4340.8576,4292.157 c 10.642,-4.6418 15.4238,2.444 13.8809,12.5654 -0.6578,4.3152 -1.6624,8.9059 -3.602,12.8816 -0.3792,0.7772 -5.1254,6.7809 -3.1627,7.5471 4.9075,1.9158 14.648,-2.2079 18.0978,-0.4346 0.5308,0.2728 -3.1698,2.8197 -3.2066,2.8449 -2.238,1.5301 -3.9708,2.6487 -6.018,4.5046 -6.1979,5.6189 -9.9099,13.4537 -7.5994,21.8117 2.1066,7.62 9.8994,11.5441 14.1445,17.7812 8.7717,12.8878 12.7498,33.6834 2.1084,46.824 -4.5182,5.5795 -8.457,7.425 -15.1986,11.1429 -2.3846,1.3151 -7.0801,3.6017 -10.0153,4.1094"
       id="path1620" /><path
       style="fill:none;stroke:#00ff00;stroke-width:3"
       d="m 4124.5109,4602.5188 c -1.4031,7.5379 -0.7379,15.1145 0.5711,22.6019 0.4348,2.4874 1.0103,4.2568 1.5374,4.149 0.381,-0.078 0.1464,-0.7639 0.2196,-1.1459"
       id="path1622" /><path
       style="fill:none;stroke:#00ff00;stroke-width:3"
       d="m 4127.8933,4619.2332 c 1.962,0.1317 3.9203,0.4438 5.8862,0.3951 1.7707,-0.044 3.6194,-0.032 5.2712,-0.6717 10.2629,-3.9743 -0.2408,-9.9491 -4.1731,-7.4682 -1.2763,0.8053 -1.8885,2.3566 -2.8991,3.4773 -1.3188,1.4624 -4.867,2.4601 -4.0852,4.2675 1.8319,4.2352 8.0243,8.7076 12.4313,5.5319 1.7879,-1.2884 3.0163,-3.2138 4.5244,-4.8207"
       id="path1624" /><path
       style="fill:none;stroke:#00ff00;stroke-width:3"
       d="m 4146.65,4608.2088 c -0.5564,-1.1591 -0.5102,-4.0336 -1.6692,-3.4772 -1.1591,0.5564 1.3536,2.2308 1.6692,3.4772 0.8935,3.5287 1.1937,7.1835 1.9328,10.7478 0.4403,2.1234 2.3881,4.4514 1.3617,6.3617 -0.2361,0.4395 -0.9371,0.3425 -1.4056,0.5137 -0.5857,-3.7275 -2.5357,-7.4904 -1.7571,-11.1824 0.1392,-0.6601 8.3483,-5.5383 9.1368,-6.0457 0.5903,-0.3798 1.149,-0.807 1.7131,-1.2249 0.183,-0.1356 0.7348,-0.5281 0.5271,-0.4346 -1.5712,0.7068 -6.1217,4.8922 -4.1291,6.8754 4.4107,4.3897 23.3079,5.9107 17.4829,16.0821 -3.8376,6.701 -12.1552,8.9722 -15.9015,0.1976 -0.674,-1.5786 0.6442,-3.3719 0.9663,-5.0578"
       id="path1626" /><path
       style="fill:none;stroke:#00ff00;stroke-width:3"
       d="m 4214.3412,4608.1693 c -8.5547,-1.4255 -9.8075,22.7578 -1.8449,17.9393 2.345,-1.4191 3.9826,-3.767 5.974,-5.6505"
       id="path1628" /><path
       style="fill:none;stroke:#00ff00;stroke-width:3"
       d="m 4220.9302,4613.3456 c -0.5774,-0.1108 -4.2135,-1.3481 -5.1834,-0.039 -1.3821,1.865 10.7231,9.559 13.0902,10.3922 1.1706,0.412 3.8722,6.3878 3.031,3.7933"
       id="path1630" /><path
       style="fill:none;stroke:#00ff00;stroke-width:3"
       d="m 4228.1342,4608.6039 c 4.0013,4.1361 5.8709,8.3061 7.2479,13.6323 0.05,0.1934 -0.062,-0.3946 -0.088,-0.5927 -0.092,-0.7107 -0.1758,-1.4225 -0.2636,-2.1337"
       id="path1632" /><path
       style="fill:none;stroke:#00ff00;stroke-width:3"
       d="m 4234.5475,4607.458 c -1.805,-13.974 -0.116,-0.1459 0,0 1.3547,1.7027 4.4911,0.9787 6.018,2.5289 2.2691,2.3039 3.6895,8.9741 4.5683,12.2493"
       id="path1634" /><path
       style="fill:none;stroke:#00ff00;stroke-width:3"
       d="m 4280.2314,4594.1419 c -8.5622,-8.2781 6.832,29.2074 3.6019,25.0913"
       id="path1636" /><path
       style="fill:none;stroke:#00ff00;stroke-width:3"
       d="m 4275.619,4605.996 c -6.6975,-5.4512 10.951,-10.0451 11.9921,-9.2858 3.2391,2.3625 3.0952,8.3706 6.0619,10.9059 0.9028,0.7716 0.165,-2.3698 0.2196,-3.5563 0.028,-0.6015 0.326,-4.3736 0.5271,-5.0972 0.4918,-1.7695 3.4524,4.727 7.4676,4.544 5.163,-0.2352 2.6446,-10.8927 1.4056,-8.8116 -7.9379,13.3338 3.2762,19.7296 11.1574,9.602"
       id="path1638" /><path
       style="fill:none;stroke:#00ff00;stroke-width:3"
       d="m 4344.1009,4588.768 c -5.279,-3.7905 -10.8114,12.952 -3.8216,12.2097 3.8975,-0.4139 13.2782,-9.5098 10.191,-13.8298 -0.586,-0.8199 -2.1565,0.8438 -2.416,1.8176 -0.3514,1.3185 -0.6496,2.7218 -0.4393,4.07 0.2574,1.6493 3.1513,9.9104 6.2816,9.6018 0.6711,-0.066 0.7321,-1.1327 1.0981,-1.699"
       id="path1640" /><path
       style="fill:none;stroke:#00ff00;stroke-width:3"
       d="m 4352.8423,4583.6707 c 6.0894,2.1802 5.862,8.6277 9.5321,12.6444 0.3123,0.3418 0.3571,-0.8806 0.3515,-1.3435 -0.033,-2.6746 -2.0836,-9.6664 -1.0543,-12.3283 0.3402,-0.8796 1.8247,0.5104 2.6795,0.9088 2.1876,1.0197 3.6066,2.2386 6.062,0.6323 1.3528,-0.8851 0.7053,-7.0934 0.3074,-6.9545 -3.2525,1.1359 -6.1399,10.1915 -2.2402,12.1703 1.594,0.8089 3.5434,-0.4742 5.3151,-0.7113"
       id="path1642" /><path
       style="fill:none;stroke:#00ff00;stroke-width:3"
       d="m 4376.6506,4577.5855 c -0.4629,2.6976 -3.3526,8.5416 2.9871,8.2585 2.458,-0.1098 3.115,-7.0098 3.1627,-7.5077 0.2749,-2.871 -0.8805,-6.7829 -0.9224,-4.8207 -0.1605,7.5081 7.7188,14.2933 12.7387,18.6901"
       id="path1644" /><path
       style="fill:none;stroke:#00ff00;stroke-width:3"
       d="m 4429.0553,4589.7558 c 0.1904,1.6991 0.879,3.4155 0.5711,5.0973 -0.4821,2.633 -3.9929,1.5078 -4.9637,0.5532 -5.5596,-5.4663 -4.5192,-16.915 2.8552,-20.4287 1.33,-0.6337 3.1166,-0.017 4.3487,0.7903 3.5219,2.309 6.3859,12.4528 2.4599,15.2919 -0.9035,0.6534 -0.4392,-2.1865 -0.6589,-3.2797"
       id="path1646" /><path
       style="fill:none;stroke:#00ff00;stroke-width:3"
       d="m 4442.4969,4569.8408 c 0.9811,-1.5937 1.9378,-3.2027 2.9431,-4.7812 0.2005,-0.3148 -0.3314,0.67 -0.5271,0.9879 -0.7858,1.2766 -1.8704,2.397 -2.416,3.7933 -0.8309,2.1266 -1.9009,8.0511 -1.4056,10.5502 1.0473,5.2849 9.4784,9.5079 4.4366,8.3374"
       id="path1648" /><path
       style="fill:none;stroke:#00ff00;stroke-width:3"
       d="m 4438.4996,4584.4214 c 5.0274,-4.7758 7.3313,-6.6068 13.3537,-6.7173"
       id="path1650" /><path
       style="fill:none;stroke:#00ff00;stroke-width:3"
       d="m 4500.7878,4562.1356 c -0.4823,6.7468 3.7098,13.5296 1.9327,20.1521"
       id="path1652" /><path
       style="fill:none;stroke:#00ff00;stroke-width:3"
       d="m 4497.0979,4573.8317 c 2.522,-6.5538 0.4453,-4.1848 5.9301,-7.6657 1.7883,-1.1349 3.9126,-2.3306 5.5348,-3.7538 0.5816,-0.5103 1.2402,-2.3935 1.5814,-1.6991 1.8005,3.6654 2.3902,8.5535 3.9534,12.4074 0.9292,2.2909 1.9494,4.4225 2.1524,4.386 2.2403,-0.403 0.8244,-17.1473 1.9328,-12.0517 0.4427,2.0354 0.7245,5.5114 3.2066,6.2827 0.8646,0.2686 10.3116,-4.5595 8.6975,-6.5198 -2.2056,-2.6786 -8.1374,5.2786 -7.0283,6.9149 3.2361,4.7741 10.0987,4.5315 14.7595,2.8845"
       id="path1654" /><path
       style="fill:none;stroke:#00ff00;stroke-width:3"
       d="m 4550.7325,4557.3939 c -13.476,12.3212 4.2313,25.5508 6.2376,14.4226"
       id="path1656" /><path
       style="fill:none;stroke:#00ff00;stroke-width:3"
       d="m 4556.3112,4558.2237 c 2.416,2.4367 5.0964,4.637 7.2479,7.3101 2.883,3.5818 3.2298,8.7574 2.3721,6.7964 -2.3266,-5.3193 -3.4582,-13.7115 -0.6589,-18.9667"
       id="path1658" /><path
       style="fill:none;stroke:#00ff00;stroke-width:3"
       d="m 4575.1119,4560.5946 c 8.0559,-1.7851 0.015,6.1675 -0.3953,4.6626 -0.4104,-1.5048 0.5007,-3.1064 0.3953,-4.6626 -0.1748,-2.582 -1.2962,-5.0786 -1.23,-7.6657 0.054,-2.116 3.4366,-1.5233 3.3824,0.5927 -0.063,2.4636 -1.4349,4.7153 -2.1524,7.073 z"
       id="path1660" /><path
       style="fill:none;stroke:#00ff00;stroke-width:3"
       d="m 4582.4476,4546.251 c -0.059,1.9889 -1.3271,4.3439 -0.1757,5.9666 2.3081,3.2527 11.9881,-0.054 12.8706,5.8481 0.5883,3.9348 -9.4299,16.4141 -6.8965,5.69 0.4372,-1.8508 1.2006,-3.6089 1.801,-5.4134"
       id="path1662" /><path
       style="fill:none;stroke:#00ff00;stroke-width:3"
       d="m 4597.9538,4542.4577 c 1.7864,3.1084 3.428,6.3046 5.3591,9.3253 2.0675,3.2341 6.6563,7.358 6.4572,11.9332 -0.1532,3.5202 -7.7464,12.4212 -11.5528,10.155 -1.3935,-0.8296 -1.2885,-2.9767 -1.9327,-4.465"
       id="path1664" /><path
       style="fill:none;stroke:#00ff00;stroke-width:3"
       d="m 4656.4203,4554.5094 c -2.0645,-0.5136 -4.1086,-1.9639 -6.1936,-1.541 -1.4217,0.2884 -2.0696,2.0869 -2.7674,3.3587 -3.7113,6.7636 10.2455,11.8317 10.5864,18.3739 0.2033,3.9016 -8.0591,11.6252 -8.5219,3.9119 -0.1834,-3.0573 0.7029,-6.0851 1.0543,-9.1277 6.4782,-8.5849 5.0458,-6.7084 13.0463,-6.4012 5.4629,0.2097 8.0758,-6.398 3.8216,-6.1247 -7.6357,0.4906 -9.6136,15.9596 -0.615,16.2797 1.509,0.054 2.9285,-0.7376 4.3927,-1.1064"
       id="path1666" /><path
       style="fill:none;stroke:#00ff00;stroke-width:3"
       d="m 4680.7558,4553.7587 c -6.6218,-5.2811 -9.5895,3.9974 -4.5684,8.4164 2.3682,2.0843 10.1746,5.1576 13.0902,1.8572 0.773,-0.8751 0.82,-2.1865 1.2299,-3.2797"
       id="path1668" /><path
       style="fill:none;stroke:#00ff00;stroke-width:3"
       d="m 4691.1665,4545.8164 c -0.088,-1.304 1.0403,-3.9998 -0.2636,-3.9119 -1.8334,0.1235 7.3777,32.0497 1.8449,25.7631"
       id="path1670" /><path
       style="fill:none;stroke:#00ff00;stroke-width:3"
       d="m 4689.5851,4560.0809 c -0.5593,-3.9133 -2.7931,-6.4453 2.0646,-6.2432 1.6166,0.067 3.36,0.1893 4.744,1.0274 1.7517,1.0607 2.8406,2.9503 4.2609,4.4255 0.2343,-2.0811 0.4686,-4.1621 0.7029,-6.2432"
       id="path1672" /><path
       style="fill:none;stroke:#00ff00;stroke-width:3"
       d="m 4699.1611,4545.4608 c -0.1846,-0.7588 -3.3208,-11.8533 1.4057,-11.6171"
       id="path1674" /><path
       style="fill:none;stroke:#00ff00;stroke-width:3"
       d="m 4710.8018,4544.5519 c 0.5124,1.9625 1.5964,3.8601 1.5374,5.8876 -0.117,4.0203 -8.0217,0.4111 -7.1601,-7.6262 0.1963,-1.8313 0.8963,-3.6538 1.9328,-5.1763 0.1482,-0.2177 5.0545,-4.4011 5.4469,-0.2766 0.2338,2.4566 -1.1714,4.7944 -1.757,7.1915 z"
       id="path1676" /><path
       style="fill:none;stroke:#00ff00;stroke-width:3"
       d="m 4715.5019,4528.9044 c 1.2007,1.5543 2.9009,2.8281 3.602,4.6627 1.6824,4.4024 2.4765,13.4367 0.4392,18.0183 -0.095,0.2141 -0.3239,-0.3984 -0.3075,-0.6322 0.1471,-2.0925 0.3283,-4.1971 0.7907,-6.2432 0.3527,-1.5605 2.4801,-9.9929 4.6563,-12.1703 4.7662,-4.7687 7.588,18.0574 7.8629,20.3101"
       id="path1678" /><path
       style="fill:none;stroke:#00ff00;stroke-width:3"
       d="m 4196.3836,4669.4263 c 10.4646,-0.5701 14.4665,27.4293 3.9973,28.2919 -0.9574,0.079 -1.9678,-0.6764 -2.4598,-1.5015 -4.6066,-7.7243 -0.4522,-14.1209 3.6019,-20.7448"
       id="path1680" /><path
       style="fill:none;stroke:#00ff00;stroke-width:3"
       d="m 4212.4169,4671.3625 c -8.4344,0.6475 -6.3821,23.9438 4.9637,15.2919 11.2831,-8.6042 -3.8895,-23.6557 8.2583,-5.3344 1.8831,2.8402 4.2815,6.1426 5.1833,9.5228"
       id="path1682" /><path
       style="fill:none;stroke:#00ff00;stroke-width:3"
       d="m 4117.4032,4739.0893 c -3.2866,9.3365 -0.9386,18.7053 -0.571,28.2524 0.1306,3.391 0.9503,2.8716 -1.0982,3.2401"
       id="path1684" /><path
       style="fill:none;stroke:#00ff00;stroke-width:3"
       d="m 4109.4964,4761.5726 c 1.2677,-9.5987 13.25,-6.4458 16.2529,-9.9574 1.0376,-1.2134 0.479,-3.5242 0.4832,-3.5167 3.1194,5.5591 5.5682,11.4848 8.8732,16.9514 0.4293,0.71 0.7239,-5.1022 2.2842,-2.8055 1.6402,2.4142 4.6414,11.2275 4.3927,1.383"
       id="path1686" /><path
       style="fill:none;stroke:#00ff00;stroke-width:3"
       d="m 4142.0023,4739.7215 c -1.1568,-0.1976 -3.2727,-1.7495 -3.4703,-0.5927 -0.1975,1.1567 2.3023,0.7068 3.4703,0.5927 4.9747,-0.486 6.0154,-3.396 9.9713,0.3161 1.1039,1.0358 2.034,2.3969 2.3721,3.8724 1.0566,4.6107 -1.7532,9.7596 -3.3824,13.8693 -1.4192,3.5802 1.1181,1.3868 0,3.3983 -0.7329,1.3185 -0.7503,1.2271 -1.6692,1.8176"
       id="path1688" /><path
       style="fill:none;stroke:#00ff00;stroke-width:3"
       d="m 4201.3913,4738.8127 c -2.0525,0.5065 -10.4504,9.0287 -7.204,11.7751 4.9056,4.1502 13.971,-7.4489 15.5061,-9.6019 0.1618,-0.2268 -0.1632,-0.7488 -0.4392,-0.7112 -12.0698,1.6451 2.9524,17.6989 3.6459,22.6414 0.162,1.1544 -1.5529,6.9545 -3.9095,6.0061 -2.5101,-1.0101 -3.4263,-4.1884 -5.1394,-6.2827"
       id="path1690" /><path
       style="fill:none;stroke:#00ff00;stroke-width:3"
       d="m 4213.6029,4751.6152 c 1.186,-0.3556 2.5056,-0.4147 3.5581,-1.0669 0.4809,-0.298 0.889,-13.0999 0.9664,-14.3831"
       id="path1692" /><path
       style="fill:none;stroke:#00ff00;stroke-width:3"
       d="m 4219.3573,4730.1591 c 1.6384,3.9174 4.2075,17.5399 8.6097,19.5199 1.9505,0.8773 0.8768,-4.2234 0.8346,-6.3617 -0.1357,-6.8763 3.745,-7.4206 9.0928,-10.6688 6.2909,-3.8209 0.4117,-3.9091 -3.3823,4.4256 -4.7689,10.476 3.0251,6.6785 7.6432,3.2006"
       id="path1694" /><path
       style="fill:none;stroke:#00ff00;stroke-width:3"
       d="m 4247.0751,4730.3172 c -1.3324,-0.5927 -3.4046,-3.1106 -3.9973,-1.7781 -0.5927,1.3324 3.0376,0.6801 3.9973,1.7781 3.8361,4.3888 8.2235,8.7717 10.0592,14.304 1.8125,5.4621 -7.118,17.2162 -11.8162,11.6961 -1.5265,-1.7934 -1.3764,-4.5046 -2.0646,-6.7568"
       id="path1696" /><path
       style="fill:none;stroke:#00ff00;stroke-width:3"
       d="m 4287.0046,4727.8673 c -1.4186,2.5592 -3.0811,12.5358 2.0645,13.0001 8.3018,0.7491 16.0955,-4.9747 17.7904,-12.9606 0.3507,-1.6525 -2.3481,-6.5569 -2.7235,-7.3495"
       id="path1698" /><path
       style="fill:none;stroke:#00ff00;stroke-width:3"
       d="m 4308.7923,4710.3627 c -0.8265,3.4074 -2.3233,4.664 0.9664,6.9939 4.7959,3.3968 14.7831,4.1369 15.8136,11.6171 0.8177,5.9355 -2.5619,9.1652 -6.4572,12.3678 -2.9246,2.4045 -4.7619,2.8303 -4.9198,2.4894 -0.349,-0.7534 0.059,-1.6596 0.088,-2.4894"
       id="path1700" /><path
       style="fill:none;stroke:#00ff00;stroke-width:3"
       d="m 4148.742,4814.4731 c -9.1511,8.5311 -18.9157,22.5796 -17.6586,36.0367 0.9054,9.6917 6.3051,17.7984 9.005,26.9485 3.3599,11.3862 1.8707,24.988 -2.7234,35.8785 -3.7868,8.9767 -10.4067,16.8306 -18.3614,22.4044 -2.9385,2.059 -11.0511,5.7251 -10.5424,2.1733 0.2382,-1.6636 1.1421,-3.1611 1.7131,-4.7417"
       id="path1710" /><path
       style="fill:none;stroke:#00ff00;stroke-width:3"
       d="m 4169.5633,4812.1418 c -12.6029,16.4546 -14.9979,44.3615 -6.589,63.0641 1.9811,4.4062 4.9482,8.2204 7.5554,12.2494 5.4196,8.3752 7.4167,17.5593 6.2815,27.5016 -1.1508,10.0796 -19.9322,17.5779 -27.1906,14.225"
       id="path1712" /><path
       style="fill:none;stroke:#00ff00;stroke-width:3"
       d="m 4134.7692,4959.7052 c -0.6184,9.6418 -0.3622,2.7192 -0.2197,12.6444 0.042,2.9369 0.011,5.8746 0.044,8.8116 0.026,2.3316 0.092,4.6626 0.1318,6.9939 0.07,4.1145 0.048,4.5507 0,4.5046 -0.4526,-0.4342 -0.5101,-1.1598 -0.615,-1.7781 -0.4533,-2.6716 -0.8725,-5.3571 -1.0543,-8.0608 -0.516,-7.6762 -2.6979,-26.2115 8.3461,-27.8968 1.5115,-0.2307 2.4691,1.9404 3.2067,3.2796 2.5366,4.6059 1.7986,10.8335 -0.6589,15.2919 -1.8717,3.3957 -3.2019,4.9064 -6.5451,6.2037 -0.5239,0.2033 -2.2277,-0.1743 -1.6692,-0.2371 7.6594,-0.8613 20.8652,5.5393 22.9737,13.3162"
       id="path1714" /><path
       style="fill:none;stroke:#00ff00;stroke-width:3"
       d="m 4211.3357,4855.4083 c -0.3087,-1.3522 0.9887,-5.0988 -0.2197,-6.5593 -2.7398,-3.3118 -9.8003,9.39 -10.3227,11.1034 -0.7713,2.5295 -1.3459,5.2348 -1.0543,7.8632 0.9597,8.6512 2.6368,8.7049 4.8759,14.7782 0.3978,1.0792 2.8083,7.6402 0.4832,8.3374"
       id="path1716" /><path
       style="fill:none;stroke:#00ff00;stroke-width:3"
       d="m 4193.3696,4881.8826 c 1.9262,-2.8188 13.0192,-10.5049 15.3744,-4.149"
       id="path1718" /><path
       style="fill:none;stroke:#00ff00;stroke-width:3"
       d="m 4234.7047,4835.4933 c -1.6545,3.385 -3.5917,6.646 -4.9637,10.1551 -3.6459,9.3252 -5.3207,22.4854 1.0982,31.0579 1.9384,2.5888 5.2626,6.1414 8.6096,3.9909"
       id="path1720" /><path
       style="fill:none;stroke:#00ff00;stroke-width:3"
       d="m 4248.937,4855.4478 c 3.4415,-12.5101 0.011,-0.094 0,0 -0.4598,3.7974 -0.2248,7.6538 -0.6149,11.459 0,0.04 -0.7242,9.1872 -2.0646,4.5836"
       id="path1722" /><path
       style="fill:none;stroke:#00ff00;stroke-width:3"
       d="m 4241.0741,4858.1742 c 1.186,0.224 2.5222,0.052 3.5581,0.6718 4.2778,2.5584 11.2529,10.2957 14.1005,14.7782"
       id="path1724" /><path
       style="fill:none;stroke:#00ff00;stroke-width:3"
       d="m 4267.4741,4867.5785 c 2.7249,-3.652 -0.3129,20.0566 0.3075,15.9636"
       id="path1726" /><path
       style="fill:none;stroke:#00ff00;stroke-width:3"
       d="m 4280.0372,4852.0496 c 0.3221,-1.1327 2.0991,-3.0761 0.9664,-3.3982 -1.2174,-0.3462 -1.583,14.6758 -2.8114,18.7691 -1.3713,4.5699 -2.6374,-0.3348 -3.6459,-2.5289"
       id="path1728" /><path
       style="fill:none;stroke:#00ff00;stroke-width:3"
       d="m 4270.1976,4855.5663 c -6.8456,-9.4615 -0.1972,-0.1554 0,0 2.8423,2.2402 6.4345,2.2088 8.2582,5.2554"
       id="path1730" /><path
       style="fill:none;stroke:#00ff00;stroke-width:3"
       d="m 4278.5876,4821.7425 c 1.3324,-0.3293 3.2621,-2.1469 3.9973,-0.9879 7.5036,11.8278 11.9574,46.8585 7.5555,60.6538 -0.431,1.3505 -1.6692,2.2918 -2.5039,3.4377"
       id="path1732" /><path
       style="fill:none;stroke:#00ff00;stroke-width:3"
       d="m 4320.9769,4835.1377 c 3.8218,8.3953 6.3964,15.971 4.3488,25.5259 -0.013,0.059 -3.325,6.2279 -5.7544,4.5441 -5.4229,-3.7585 -2.9426,-19.717 0.4393,-16.6749"
       id="path1734" /><path
       style="fill:none;stroke:#00ff00;stroke-width:3"
       d="m 4338.4598,4861.9676 c 1.3178,-2.4499 3.148,-4.6869 3.9534,-7.3496 0.9375,-3.0994 0.8078,-6.4255 1.1861,-9.6414 0.5295,-4.5026 1.0533,-9.006 1.5374,-13.5137 0.996,-9.2756 3.3245,-18.6312 2.2403,-27.8968 -0.1789,-1.5285 -1.0054,2.9657 -1.0103,4.5045 -0.01,3.1382 0,6.2967 0.4392,9.4043 1.8177,12.9321 5.6742,19.5453 11.2452,32.7571 1.461,3.4647 3.5839,6.3965 3.9095,10.234 0.1522,1.7934 -2.8613,0.4427 -2.8991,0.4347"
       id="path1736" /><path
       style="fill:none;stroke:#00ff00;stroke-width:3"
       d="m 4341.0515,4846.5967 c -0.5857,-1.3172 -2.235,-2.5915 -1.7571,-3.9514 1.3668,-3.8895 14.9966,-5.8788 17.8343,-6.5988"
       id="path1738" /><path
       style="fill:none;stroke:#00ff00;stroke-width:3"
       d="m 4061.7757,4822.3432 c -2.5238,36.4535 -2.7487,72.9449 -1.4056,109.4534 0.63,17.1267 2.6751,34.682 2.1524,51.8422"
       id="path1740" /><path
       style="fill:none;stroke:#00ff00;stroke-width:3"
       d="m 4056.1092,4825.0697 c 37.3335,-13.1326 76.9094,-21.0559 116.0545,-26.7114 16.9927,-2.455 34.0156,-4.3892 50.9551,-7.2311 27.0479,-4.5377 54.074,-9.2257 81.1328,-13.7113 22.2757,-3.6927 44.792,-7.8664 67.3837,-9.4043 1.4611,-0.1 3.0318,-0.4619 4.3927,0.079 2.4478,0.973 -2.2891,23.2449 -2.5917,25.2889 -1.1945,8.0677 -2.5862,16.1263 -3.1628,24.2615 -0.9807,13.8373 -0.2323,23.3001 1.9328,36.5504 2.4323,14.885 6.0578,28.8141 6.4133,43.9789 0.2951,12.5895 -1.031,25.7194 -3.4702,38.0914 -0.061,0.308 -0.8155,6.5107 -1.8449,7.1125 -0.8128,0.4753 -4.7445,0.5977 -5.3151,0.7508 -9.9688,2.6744 -19.8926,5.7754 -29.7824,8.7325 -22.3839,6.693 -44.6854,13.7649 -67.0323,20.5868 -15.197,4.6392 -29.7421,11.1177 -44.7174,16.3982 -14.0153,4.9421 -28.0193,9.9828 -42.1259,14.6597 -11.0768,3.6724 -22.3447,6.6531 -33.4721,10.1551 -7.6178,2.3974 -15.0452,5.3224 -22.6663,7.7052 -13.3318,4.1683 -26.8605,8.9765 -40.5444,11.8146 -2.8265,0.5862 -5.671,1.0872 -8.5218,1.541 -0.5368,0.086 -2.2282,0.2561 -2.8113,-0.1185 -3.2377,-2.0802 -6.2805,-23.8905 -6.4133,-25.0518 -2.55,-22.2874 -2.1671,-44.623 -2.0207,-67.0155"
       id="path1742" /><path
       style="fill:none;stroke:#00ff00;stroke-width:3"
       d="m 4026.4347,5132.3568 c 3.9914,-1.3755 -2.9875,-4.5115 -2.0206,-6.5989 0.1491,-0.3219 0.3793,0.6091 0.4831,0.9484 0.5716,1.8664 0.9888,3.7772 1.5375,5.6505 1.311,4.4758 2.3764,9.0386 4.0413,13.3952 0.4495,1.1764 1.1387,2.4319 2.2402,3.0425 2.7197,1.5077 4.0237,-10.4079 4.3927,-10.6292 0.3423,-0.2053 0.1704,2.1145 1.5374,4.9787 0.6249,1.3093 2.1079,4.5139 4.4366,4.0305 4.5108,-0.9364 0.4525,-8.5087 2.5039,-10.2341 2.2495,-1.8922 16.4268,-8.1522 9.3564,-12.7235 -1.8854,-1.219 -4.1205,1.17 -5.0955,2.1733 -8.7202,8.9732 -0.043,17.3694 10.191,16.3982 3.6143,-0.343 4.6269,-1.1211 7.5115,-2.6474"
       id="path1744" /><path
       style="fill:none;stroke:#00ff00;stroke-width:3"
       d="m 4090.9631,5121.0558 c -6.6758,-1.219 -14.8495,29.136 0.044,17.149"
       id="path1746" /><path
       style="fill:none;stroke:#00ff00;stroke-width:3"
       d="m 4095.5754,5127.536 c -0.5364,1.7924 -4.0052,7.4683 1.6693,7.3891 5.7701,-0.08 3.2815,-15.9811 3.3384,-5.1763 0.01,1.7145 0.093,3.4309 0.2636,5.1368 0.2749,2.7427 0.8583,4.7494 1.5813,5.8876"
       id="path1748" /><path
       style="fill:none;stroke:#00ff00;stroke-width:3"
       d="m 4103.3066,5121.4905 c 5.375,2.1325 7.2289,7.5615 6.6769,13.079 -0.036,0.3617 -0.5272,-0.5005 -0.7907,-0.7507"
       id="path1750" /><path
       style="fill:none;stroke:#00ff00;stroke-width:3"
       d="m 4111.5209,5112.6788 c 2.8752,8.0466 3.4253,16.6113 6.1058,24.6962"
       id="path1752" /><path
       style="fill:none;stroke:#00ff00;stroke-width:3"
       d="m 4137.6573,5109.8734 c -3.1569,4.6915 4.4589,19.389 2.0646,22.4043"
       id="path1754" /><path
       style="fill:none;stroke:#00ff00;stroke-width:3"
       d="m 4134.9778,5125.0467 c 0.4246,-1.5279 0.541,-3.1773 1.2739,-4.5836 0.3353,-0.6436 8.464,-8.3618 9.2685,-8.2979 4.1424,0.3287 5.7402,8.6112 7.204,11.7751 0.4459,0.9639 1.1246,3.7247 1.5813,2.766 0.6434,-1.3504 2.851,-11.0531 3.2946,-10.4712 2.1033,2.7592 0.9642,11.2032 5.0076,12.5259"
       id="path1756" /><path
       style="fill:none;stroke:#00ff00;stroke-width:3"
       d="m 4164.7162,5117.381 c 0.7011,-7.8203 0.3201,-5.6565 1.4496,-12.0912 0.1169,-0.6659 3.261,-9.4633 0.7468,-6.915 -0.2684,0.2721 -3.4487,3.6959 -3.8217,4.3861 -0.8478,1.5688 2.2498,1.2771 2.4599,1.3039 4.1308,0.5277 10.4883,0.6105 11.2014,6.2037 0.4371,3.4292 -5.5489,20.0832 -10.4546,12.1308 -0.9208,-1.4927 -1.0543,-3.3456 -1.5814,-5.0183 z"
       id="path1758" /><path
       style="fill:none;stroke:#00ff00;stroke-width:3"
       d="m 4206.4467,5089.4052 c -3.008,11.3556 0.128,23.4786 -1.8011,34.9302"
       id="path1760" /><path
       style="fill:none;stroke:#00ff00;stroke-width:3"
       d="m 4199.9894,5111.849 c -0.059,-1.8835 -0.6824,-3.8354 -0.1757,-5.6504 0.9669,-3.4627 7.0472,-4.7836 9.4882,-6.2432 1.1882,-0.7105 2.2696,-1.5983 3.2945,-2.5289 0.6314,-0.5733 1.6469,-2.8282 1.6253,-1.9757 -0.1157,4.579 -0.4114,12.6154 3.9534,15.8055 0.8253,0.6032 1.7272,-6.9524 2.5038,-7.152 0.7361,-0.1891 5.3934,3.0421 7.5554,2.608 4.2075,-0.8449 5.5075,-7.2896 2.2403,-7.073 -3.0701,0.2034 -5.4657,4.2438 -5.7105,6.6778 -0.6261,6.2251 14.7469,3.1886 15.8137,2.5289"
       id="path1762" /><path
       style="fill:none;stroke:#00ff00;stroke-width:3"
       d="m 4252.4819,5083.9522 c 1.4935,2.2128 3.4219,4.1876 4.4805,6.6384 1.0715,2.4802 1.2345,5.261 1.8011,7.9028 0.4731,2.2058 1.0541,4.3978 1.3178,6.6383 1.3371,11.3596 -11.848,-5.5445 -4.4366,-10.7478"
       id="path1764" /><path
       style="fill:none;stroke:#00ff00;stroke-width:3"
       d="m 4268.9545,5103.0375 c -1.0982,-1.3567 -3.0552,-2.341 -3.2945,-4.07 -0.4822,-3.4833 3.4548,-9.797 7.1601,-10.3131 1.1958,-0.1666 1.2608,2.1044 1.5374,3.2797 0.9023,3.8337 -1.768,22.1377 -0.8346,8.1793"
       id="path1766" /><path
       style="fill:none;stroke:#00ff00;stroke-width:3"
       d="m 4276.7295,5090.6696 c -0.8277,9.9516 8.9776,16.5389 10.7181,2.9241 0.4182,-3.2709 -0.9123,-6.4124 -1.9767,-9.4044"
       id="path1768" /><path
       style="fill:none;stroke:#00ff00;stroke-width:3"
       d="m 4287.0963,5074.4294 c 2.1972,6.0943 4.1594,10.5041 5.0955,16.9119 0.4637,3.1745 0.631,6.3939 0.6588,9.6019 0,0.256 -0.459,0.7439 -0.571,0.5137 -1.9849,-4.0813 0.7889,-27.9825 7.2919,-21.4561 4.5993,4.616 4.3901,12.1611 2.1963,17.7418 -1.0488,2.6679 -3.8201,5.2247 -4.4805,4.7812 -2.3715,-1.5925 -0.3996,-9.6575 -0.088,-12.3678"
       id="path1770" /><path
       style="fill:none;stroke:#00ff00;stroke-width:3"
       d="m 4304.7548,5074.8641 c 5.0388,8.5656 1.7787,18.7803 3.9973,28.0548 0.059,0.2458 0.2982,-0.4247 0.3515,-0.6717 0.2273,-1.0548 0.3221,-2.1338 0.4832,-3.2006"
       id="path1772" /><path
       style="fill:none;stroke:#00ff00;stroke-width:3"
       d="m 4311.5635,5091.6575 c 2.4745,-0.5664 4.9558,-1.104 7.4236,-1.6991 10.3748,-2.502 0.8135,-10.9211 -3.3385,-5.9271 -1.8436,2.2175 -4.5639,4.7824 -4.0851,7.6262 0.4937,2.933 3.9189,4.5836 6.4133,6.2037 2.0389,1.3242 16.665,3.1539 12.9584,-1.1065"
       id="path1774" /><path
       style="fill:none;stroke:#00ff00;stroke-width:3"
       d="m 4353.0743,5072.1771 c -2.7864,2.4626 -1.0484,-11.4818 1.0981,-9.9575 0.4856,0.3449 -0.1104,1.1861 -0.1757,1.7781 -0.3007,2.7273 -0.6149,5.453 -0.9224,8.1794 z"
       id="path1776" /><path
       style="fill:none;stroke:#00ff00;stroke-width:3"
       d="m 4353.865,5077.7091 c 0.2191,6.8368 0.8638,13.6374 2.7673,20.2311 0.4782,1.6562 1.5602,6.3901 2.0646,4.7416 0.5057,-1.6526 0.4686,-3.4245 0.7028,-5.1368"
       id="path1778" /><path
       style="fill:none;stroke:#00ff00;stroke-width:3"
       d="m 4362.2111,5077.9857 c 1.4202,2.4367 3.0451,4.7651 4.2608,7.31 0.3688,0.772 0.2034,1.7065 0.4393,2.5289 0.3384,1.1797 0.9184,-2.2773 1.3178,-3.4377 0.096,-0.2784 2.7867,-8.184 3.7338,-9.5228 0.7599,-1.0741 1.3611,2.3315 1.5374,3.6352 0.3023,2.2343 0.4997,4.4817 0.7907,6.7174 0.6277,4.8223 0.5697,4.3691 1.186,7.6262"
       id="path1780" /><path
       style="fill:none;stroke:#00ff00;stroke-width:3"
       d="m 4381.3192,5073.165 c 1.1572,0.3662 4.768,17.9213 2.1085,15.5289"
       id="path1782" /><path
       style="fill:none;stroke:#00ff00;stroke-width:3"
       d="m 4378.9472,5081.1863 c 0.7822,-3.9018 11.1409,0.6977 13.4416,-0.4347 4.6472,-2.2873 1.848,-14.1069 -3.1628,-6.0456 -4.5212,7.2737 -0.2373,13.2649 7.819,9.6414"
       id="path1784" /><path
       style="fill:none;stroke:#00ff00;stroke-width:3"
       d="m 4404.6004,5074.1133 c -2.8285,-2.7103 -9.0026,3.1412 -6.6769,5.769 4.4514,5.0296 18.3016,-4.9645 12.0799,-6.4803 -8.4702,-2.0635 -5.523,4.0068 -3.4702,9.2463 1.0055,2.5662 10.852,12.4517 5.7544,15.5685 -6.8394,4.1816 -8.4204,-2.939 -9.8396,-7.7052"
       id="path1786" /><path
       style="fill:none;stroke:#00ff00;stroke-width:3"
       d="m 4417.471,5059.6117 c 6.1698,7.5233 2.5187,1.8999 6.2815,11.8146 0.7843,2.0667 1.7924,4.0418 2.6356,6.0852 0.4796,1.1624 1.8202,4.1964 0.6589,3.7143 -5.9872,-2.4858 -1.1483,-17.0839 1.3178,-20.4287 0.7544,-1.0231 1.9913,-1.5805 2.987,-2.3708 1.0396,2.2259 2.9379,4.2278 3.1188,6.6778 0.1321,1.7889 -4.0423,5.4675 -2.6356,8.0214 2.4855,4.5121 18.18,-6.8075 15.0669,-9.1277 -4.0077,-2.987 -10.5585,22.3931 -2.416,19.0852 1.2087,-0.4911 1.9914,-1.686 2.9871,-2.5289"
       id="path1788" /><path
       style="fill:none;stroke:#00ff00;stroke-width:3"
       d="m 4452.4806,5056.253 c -0.4539,-3.1874 0.2713,-6.7876 -1.3617,-9.5623 -0.7709,-1.3098 -1.4831,2.7023 -1.8011,4.1884 -0.5845,2.7327 -0.9005,5.543 -0.8785,8.3375 0.045,5.6725 1.3276,13.641 5.7984,17.6627"
       id="path1790" /><path
       style="fill:none;stroke:#00ff00;stroke-width:3"
       d="m 4051.8244,5201.6641 c -0.088,0.6824 0.1886,5.0517 -1.7571,5.7691 -2.0035,0.7386 -3.4574,-2.8485 -4.173,-4.8603 -2.1969,-6.1754 -2.2568,-15.2054 2.6356,-20.2311 4.5495,-4.6735 9.2878,1.2019 10.147,5.4529 0.4202,2.0786 0.2866,4.2671 -0.044,6.3618 -0.3212,2.0358 -0.5043,4.3608 -1.8888,5.8875 -1.1599,1.279 -4.958,3.3463 -4.9198,1.6201 0.067,-3.0374 3.3677,-5.0578 5.0516,-7.5867"
       id="path1792" /><path
       style="fill:none;stroke:#00ff00;stroke-width:3"
       d="m 4071.3279,5172.4239 c -7.4164,4.2807 5.1388,19.8498 4.6123,21.0213 -0.4751,1.0571 -3.1986,0.4528 -3.4703,0.4347 -18.4845,-3.621 7.3639,-16.7425 10.9818,-10.2341"
       id="path1794" /><path
       style="fill:none;stroke:#00ff00;stroke-width:3"
       d="m 4123.425,5166.4968 c -0.029,-1.4752 1.2228,-3.7478 -0.088,-4.4256 -1.2749,-0.6594 -2.6602,1.3941 -3.4263,2.6079 -4.5565,7.2194 -5.9587,14.3416 -3.602,22.4439 0.069,0.2385 5.1193,9.6785 2.2403,9.3253"
       id="path1796" /><path
       style="fill:none;stroke:#00ff00;stroke-width:3"
       d="m 4108.2264,5188.7826 c 0.8785,-2.384 0.9689,-5.2343 2.6356,-7.152 1.7298,-1.9905 8.7657,-3.9071 11.5088,-3.3587 1.0536,0.2106 1.6107,1.4225 2.416,2.1337"
       id="path1798" /><path
       style="fill:none;stroke:#00ff00;stroke-width:3"
       d="m 4167.9229,5185.3449 c -10.5922,4.4181 -10.9163,-22.3107 -4.5245,-21.2585 7.8427,1.2912 10.875,16.8582 4.5245,21.2585 -1.5181,1.0518 0.205,-3.688 0.3075,-5.532"
       id="path1800" /><path
       style="fill:none;stroke:#00ff00;stroke-width:3"
       d="m 4171.3052,5164.2445 c 3.4331,3.1279 6.5167,16.3762 12.607,15.8846 4.3409,-0.3505 -0.7709,-11.4266 2.5478,-12.605 1.5734,-0.5587 13.0401,-0.2482 11.3331,-3.3192 -0.2782,-0.5005 -0.8501,-0.849 -1.4057,-0.9878 -8.4047,-2.1 -2.5678,22.018 0.615,18.8481 6.1207,-6.0957 -0.2425,-16.3603 2.7234,-23.3132 0.3336,-0.782 1.9308,-0.7034 2.5478,-0.1185 1.6465,1.5608 8.9603,17.5788 7.6872,18.8876 -1.4144,1.4541 -2.6135,-3.3599 -2.8553,-5.3738 -0.8196,-6.8297 -0.1863,-11.2661 2.3282,-17.5837 0.8707,-2.1877 4.1696,-6.7832 5.2712,-4.7022"
       id="path1802" /><path
       style="fill:none;stroke:#00ff00;stroke-width:3"
       d="m 4248.3967,5143.0255 c 2.2603,11.4438 0.9975,4.5297 3.031,17.2281 0.548,3.422 2.4732,12.151 1.5813,16.2797 -0.1691,0.7832 -1.4215,2.2213 -1.8449,1.541 -5.1042,-8.2016 -4.3033,-14.8823 -3.8655,-24.1825 0.3308,-7.0273 1.1505,-15.8163 5.0076,-22.0092 0.6657,-1.0688 2.5788,-1.6562 3.6459,-0.9879 3.0313,1.8987 2.6357,9.5698 2.3721,11.7357 -0.2604,2.1393 -4.6032,21.4287 -4.3049,23.8664 0.5536,4.5226 23.1486,-6.1962 27.63,-0.2371"
       id="path1804" /><path
       style="fill:none;stroke:#00ff00;stroke-width:3"
       d="m 4315.2976,4432.3226 c -3.5,-1.7728 4.7701,-3.9381 3.8655,-5.769 -1.0252,-2.0753 -2.1886,4.1733 -3.8655,5.769 -1.7526,1.6678 -4.3385,2.154 -6.4133,3.3982 -0.4456,0.2673 -1.563,1.3387 -1.0982,1.1064 0.7195,-0.3596 1.1991,-1.0878 1.8889,-1.5015 9.3338,-5.5975 2.5916,0.3761 9.4881,-8.614 0.5614,-0.7318 2.6693,-2.5454 1.9768,-1.9362 -6.3589,5.5929 5.7336,-4.6417 -5.8423,7.5471 -2.2207,2.3384 -4.9798,4.0996 -7.4236,6.2037 -0.6324,0.5444 -1.04,1.3963 -1.801,1.7386 -0.4954,0.2229 0.5763,-0.9249 0.9225,-1.3435 1.0173,-1.23 1.9131,-2.6025 3.1627,-3.5957 1.5533,-1.2346 6.304,-1.3967 5.1394,-3.0031 -1.8033,-2.4873 -9.5496,5.4873 -9.9714,5.8876 -2.8205,2.677 0.091,1.4338 2.5038,0.9878"
       id="path1965" /><path
       style="fill:none;stroke:#00ff00;stroke-width:3"
       d="m 4317.7136,4431.8089 c 0.41,-1.1327 0.8078,-2.2699 1.2299,-3.3982 0.1558,-0.4163 0.9325,-1.4072 0.5272,-1.2249 -1.5035,0.6763 -0.7021,3.3563 -1.7571,4.6231 -1.3217,1.5871 -11.8218,10.7211 -14.6715,13.5138 -1.1211,1.0986 -3.2317,2.9342 -3.0749,3.2006 0.1366,0.2321 3.0191,-0.1894 4.0852,-0.2766 5.9754,-0.4886 11.7568,-0.054 17.6585,0.9483 3.8567,0.6554 7.959,1.0329 11.7285,2.0943 1.7494,0.4926 2.3848,0.7098 3.558,1.6596 0.3062,0.2478 0.676,1.1281 0.8786,0.7903 0.3047,-0.5081 -0.7533,-0.9284 -1.0103,-1.4621 -0.6223,-1.2917 -0.9849,-2.7992 -1.6692,-4.0304 -0.1034,-0.1859 0.1238,0.6111 -0.088,0.6322 -1.7254,0.1725 -2.5201,3.0888 -3.6459,4.2281 -0.1523,0.154 -0.5363,0.6446 -0.4832,0.4346 0.6329,-2.5046 3.3732,-5.6925 4.7441,-7.5472 0.8459,-1.1444 1.7386,-2.2538 2.6356,-3.3587 3.558,-4.3824 2.3112,-2.5368 5.1833,-6.4802 2.3145,-3.1777 1.4335,-1.8851 2.416,-3.5168 0.1127,-0.1871 0.5646,-0.5052 0.3514,-0.5532 -0.2548,-0.057 -0.4857,0.2469 -0.7467,0.2371 -4.4686,-0.1675 -29.1488,-4.9457 -22.2709,-11.38"
       id="path1969" /><path
       style="fill:none;stroke:#00ff00;stroke-width:3"
       d="m 4309.8067,4443.8212 c -1.0309,-15.1044 -2.534,-30.3203 -2.1523,-45.4805 0.1986,-7.8907 1.1488,-15.6143 1.0981,-23.5503 -0.068,-10.6247 -0.6519,-21.2457 -0.571,-31.8877 0.041,-5.4564 0.8785,-10.8534 0.8785,-16.3192 0,-8.7463 -0.7529,-17.6844 -1.8449,-26.3558 -0.1007,-0.7997 -0.9053,-5.0075 -0.9225,-6.2432 -0.07,-5.0222 1.3197,-9.9718 1.5814,-15.0152"
       id="path1971" /><path
       style="fill:none;stroke:#00ff00;stroke-width:3"
       d="m 4330.2767,4450.1039 c -1.0191,-26.7988 -1.1961,-53.7223 -1.7571,-80.5688 -0.1337,-6.3967 -0.797,-12.8417 -0.5711,-19.2433 0.3418,-9.6848 1.787,-19.2935 1.9767,-29.0032 0.236,-12.0746 -0.1193,-24.2164 0.2636,-36.2737"
       id="path1973" /><path
       style="fill:none;stroke:#00ff00;stroke-width:3"
       d="m 4345.7389,4430.4655 c 0.2196,-1.9099 0.6139,-3.8076 0.6589,-5.7296 0.1673,-7.1515 -0.9545,-14.4802 -1.0103,-21.6535 -0.1793,-23.0109 0.5915,-46.0776 1.0542,-69.0703 0.099,-4.8986 -0.3202,-9.7633 0,-14.6597 0.6801,-10.3998 0.933,-20.8158 1.5814,-31.2159 0.3235,-5.1885 0.622,-10.8274 -0.1758,-15.2524"
       id="path1975" /><path
       style="fill:none;stroke:#00ff00;stroke-width:3"
       d="m 4339.8088,4267.7868 c -1.1572,-10.0252 -6.2123,0.9323 -12.3435,1.4225 -2.3331,0.1866 -4.3043,-0.8443 -5.6226,-2.8054 -0.4457,-0.6632 -1.5019,-2.2919 -0.7028,-2.2919 0.3286,0 -0.9518,1.9803 -2.0646,3.0821 -3.2486,3.2166 -3.9726,3.93 -7.0283,6.2432 -0.5134,0.3887 -3.3326,1.6596 -1.9327,1.6596"
       id="path1977" /><path
       style="fill:none;stroke:#00ff00;stroke-width:3"
       d="m 4309.8067,4279.4829 c 2.4052,-2.6605 2.2149,-3.5048 4.9199,-4.2675 5.0705,-1.4296 1.568,8.7339 6.2376,7.7052 1.2662,-0.2789 10.8669,-8.1988 8.2143,-5.5319"
       id="path1979" /><path
       style="fill:none;stroke:#00ff00;stroke-width:3"
       d="m 4343.235,4279.4039 c -0.3313,-0.2656 -1.6329,-21.8322 -0.9224,-12.5654 0.321,4.1875 0.9984,8.3663 0.9224,12.5654 -0.018,0.9793 -1.8486,-14.403 -0.8785,-14.7387 1.4629,-0.5061 0.3847,3.3127 -0.4393,4.6232 -2.6105,4.152 -6.3723,6.7705 -10.4106,9.4438 -4.0631,2.6896 -8.6343,5.5081 -13.0023,7.7447 -1.7818,0.9124 -3.5985,1.7606 -5.4469,2.5289 -0.2863,0.119 -1.1585,0.3196 -0.9225,0.1185 0.493,-0.4201 1.1714,-0.5532 1.7571,-0.8298"
       id="path1981" /><path
       style="fill:none;stroke:#00ff00;stroke-width:3"
       d="m 4323.9512,4312.8722 c -0.1308,-3.6845 -0.3728,-7.4263 0.088,-11.1034 0.026,-0.2045 0.1239,-0.7922 0.1757,-0.5927 1.6533,6.3734 -1.056,15.5131 -1.3618,21.8906 -0.2321,4.8416 -0.2329,9.6962 -0.088,14.5412 0.3493,11.6631 2.2424,23.2603 3.0749,34.8907 1.0105,14.1185 1.2299,28.5583 1.2299,42.7145 0,7.0172 -3.1292,16.8623 -2.2403,23.2342 0.2551,1.8282 2.6094,6.1948 3.4703,7.9818"
       id="path1983" /><path
       style="fill:none;stroke:#00ff00;stroke-width:3"
       d="m 4309.9825,4368.1916 c -0.3514,19.997 -1.3095,40.068 -1.7571,60.1006 -0.1274,5.7033 -0.091,11.4129 -0.3954,17.1095 -0.073,1.3598 -0.2214,2.7145 -0.3513,4.07 -0.018,0.1853 -0.1871,0.697 -0.2197,0.5136 -0.5938,-3.3384 1.7846,-10.9481 2.0646,-14.3435 0.3695,-4.4816 0.4184,-14.6557 0.3953,-18.374 -0.075,-12.0274 -1.1174,-24.1332 -0.7467,-36.1552 0.1331,-4.3181 0.8946,-8.6024 1.0103,-12.921 0.06,-2.2572 -0.4766,-4.4988 -0.4832,-6.7569 -0.013,-4.386 0.5733,-8.7105 0.7467,-13.0791"
       id="path1985" /><path
       style="fill:none;stroke:#00ff00;stroke-width:3"
       d="m 4315.5173,4439.7908 c -0.6169,0.9079 1.9478,-7.8011 1.0542,-6.4408 -1.1944,1.8183 -2.0618,8.3689 -1.0542,6.4408 17.8734,-34.2049 -4.6967,-1.9364 0,0 1.4495,0.5976 9.1246,-13.1456 10.3667,-15.1734 1.2603,-2.0574 -1.0601,4.708 -1.5375,7.073 -0.3609,1.7888 -3.4232,13.0242 -1.4935,15.2129 2.1183,2.4025 8.4177,-13.9405 8.9172,-14.9758 0.081,-0.1682 0.1064,0.3674 0.088,0.5532 -0.085,0.849 -0.2653,1.6856 -0.3953,2.5289 -0.6042,3.9166 -2.1291,8.7649 -1.8889,12.763 0.1237,2.0588 1.0163,-4.0053 1.3178,-6.0457 0.6001,-4.0607 1.9725,-10.7322 0.7028,-15.0152 -0.2313,-0.7803 -1.2086,1.1521 -1.5374,1.8966 -2.0149,4.5626 -5.1832,13.4085 -9.2685,16.0426 -10.0321,6.4685 -5.0862,-3.9461 -5.2712,-4.8601 -2.5458,-12.572 -3.862,-2.7603 -2.4599,-10.0366"
       id="path1987" /></g></svg>
