<?xml version="1.0" encoding="UTF-8" standalone="no"?>
<!-- Created with Inkscape (http://www.inkscape.org/) -->

<svg
   width="6386.5288mm"
   height="5429.4707mm"
   viewBox="0 0 6386.5287 5429.4708"
   version="1.1"
   id="svg12"
   inkscape:version="1.2.1 (9c6d41e410, 2022-07-14, custom)"
   sodipodi:docname="ecn_diagram.svg"
   xml:space="preserve"
   xmlns:inkscape="http://www.inkscape.org/namespaces/inkscape"
   xmlns:sodipodi="http://sodipodi.sourceforge.net/DTD/sodipodi-0.dtd"
   xmlns="http://www.w3.org/2000/svg"
   xmlns:svg="http://www.w3.org/2000/svg"><sodipodi:namedview
     id="namedview14"
     pagecolor="#505050"
     bordercolor="#eeeeee"
     borderopacity="1"
     inkscape:showpageshadow="0"
     inkscape:pageopacity="0"
     inkscape:pagecheckerboard="0"
     inkscape:deskcolor="#505050"
     inkscape:document-units="mm"
     showgrid="true"
     inkscape:zoom="0.034886493"
     inkscape:cx="10003.872"
     inkscape:cy="18574.524"
     inkscape:window-width="1366"
     inkscape:window-height="746"
     inkscape:window-x="0"
     inkscape:window-y="0"
     inkscape:window-maximized="1"
     inkscape:current-layer="layer1"
     inkscape:lockguides="false"><inkscape:grid
       type="xygrid"
       id="grid344"
       color="#969696"
       opacity="0.39215686"
       empcolor="#000000"
       empopacity="0.17254902"
       dotted="false"
       originx="1386.4483"
       originy="-8925.2061" /></sodipodi:namedview><defs
     id="defs9" /><g
     inkscape:label="Layer 1"
     inkscape:groupmode="layer"
     id="layer1"
     transform="translate(1281.4484,-9073.7059)"><path
       style="fill:none;stroke:#ffffff;stroke-width:5.5"
       d="m -1255.5068,11088.346 c -6.2538,20.912 -13.6974,41.505 -18.7613,62.737 -33.9255,142.242 137.125,101.366 143.9726,153.723 8.4108,64.31 -88.4463,172.883 -117.0542,74.11 -5.6136,-19.382 0,-40.357 0,-60.535"
       id="path1951" /><path
       style="fill:none;stroke:#ffffff;stroke-width:5.5"
       d="m -1067.486,11286.462 c 0.5438,12.963 6.6863,26.94 1.6314,38.889 -14.455,34.17 -47.3664,-35.51 -49.3503,-63.103 -1.0365,-14.415 30.3102,-85.036 44.8639,-42.925 7.3168,21.171 1.9034,44.759 2.855,67.139 z"
       id="path1953" /><path
       style="fill:none;stroke:#ffffff;stroke-width:5.5"
       d="m -1038.1205,11203.18 c 13.4413,7.542 85.0341,72.746 107.67349,30.818 7.49461,-13.88 -52.88992,-113.286 -33.44402,-109.697 16.63856,3.07 109.80753,106.824 97.06935,117.402 -7.42238,6.163 -14.75925,-13.427 -18.35343,-22.38 -19.16327,-47.736 -5.9427,-68.359 20.80054,-109.331 146.10984,-104.102 16.82245,-16.632 40.37755,44.026 15.36371,39.564 77.1041,100.59 123.98779,63.104 0.25152,-9.524 80.74873,-117.435 48.53461,-129.509 -54.45626,-20.411 -65.94668,45.693 -60.77028,79.246 2.62915,17.042 -2.20785,40.843 12.23567,50.263 15.97152,10.416 109.78173,0.889 128.47408,-6.604 8.03911,-3.223 10.60422,-13.697 15.90633,-20.546"
       id="path1955" /><path
       style="fill:none;stroke:#ffffff;stroke-width:5.5"
       d="m -910.46208,11599.045 c 7.61328,23.602 17.9981,46.485 22.83984,70.808 7.26713,36.507 4.45624,74.453 10.60418,111.165 26.99475,161.196 63.93707,330.837 44.04821,494.922 -3.72497,30.732 -52.63312,191.945 -20.80054,206.554 66.45664,30.501 222.45023,6.35 294.47077,2.201 160.26071,-9.232 311.99817,-21.418 470.256148,10.273 55.416185,11.098 110.158952,23.114 165.996592,32.286 3.036464,0.499 146.12951,13.844 97.88509,19.445"
       id="path1957" /><path
       style="fill:none;stroke:#ffffff;stroke-width:5.5"
       d="m 333.49346,12605.399 c -18.08157,10.518 -33.38642,29.975 -54.24469,31.552 -15.02338,1.136 -28.20448,-13.074 -37.93032,-24.581 -50.87845,-60.194 -66.63007,-153.045 -59.13893,-228.934 28.61845,-289.917 332.37093,-94.268 340.96621,95.389 6.18977,136.579 -150.64615,235.217 -268.7761,157.759 -51.88511,-34.021 -124.53247,-127.049 -143.56456,-187.843 -9.14145,-29.2 -2.44718,-61.147 -3.67077,-91.72"
       id="path1959" /><path
       style="fill:none;stroke:#ffffff;stroke-width:5.5"
       d="m 258.04041,12934.492 c -16.35483,3.824 -27.84071,-130.06 -4.89424,-42.558 3.62223,13.812 -0.32856,29.268 4.89424,42.558 17.24411,43.88 59.64663,87.524 58.73109,139.414 -0.27149,15.387 -19.30675,-24.544 -24.87914,-38.889 -25.44096,-65.49 -65.03053,-229.866 42.0089,-250.946 75.90901,-14.95 78.45221,120.627 68.11174,162.895 -5.17945,21.171 -13.42379,41.612 -22.83984,61.269 -5.45441,11.387 -32.8681,33.861 -20.39276,31.919 51.16272,-7.966 112.7564,-32.427 163.14166,-7.705"
       id="path1961" /><path
       style="fill:none;stroke:#ffffff;stroke-width:5.5"
       d="m 613.68927,12593.659 c 61.80635,18.602 105.94377,75.018 154.57688,115.201 62.61619,51.736 129.82713,97.531 191.28357,150.788 95.32008,82.603 183.62508,167.121 284.68248,242.875 14.7304,11.042 121.7047,67.92 80.3471,96.857"
       id="path1963" /><path
       style="fill:none;stroke:#ff8080;stroke-width:5.5"
       d="m 1459.1713,13285.23 c 10.9013,19.331 -27.5172,-104.869 -12.6432,-88.418 82.8339,91.614 -64.226,-64.8 12.6432,88.418 154.2184,307.393 -8.5953,-193.944 90.5435,125.84 16.6669,53.761 20.4333,96.108 12.236,88.052 -47.8351,-47.014 -124.3145,-404.259 15.0905,-347.437 81.6094,33.265 35.1914,154.062 6.9336,204.353 -8.0319,14.295 -23.3203,25.913 -25.2872,42.191 -2.6221,21.702 181.5824,-39.544 177.4168,61.636"
       id="path1965" /><path
       style="fill:none;stroke:#ff8080;stroke-width:5.5"
       d="m 1843.7778,13602.215 c 1.3594,-13.575 -1.4645,-28.258 4.0785,-40.723 18.3933,-41.364 84.9551,-42.259 89.7282,8.071 7.3747,77.76 -36.6898,127.767 -78.308,184.908 -4.6873,6.435 13.6748,-8.189 20.8003,-11.741 42.7971,-21.333 123.1177,-59.442 170.0752,-29.717"
       id="path1967" /><path
       style="fill:none;stroke:#ffffff;stroke-width:5.5"
       d="m 1928.2039,13128.205 c 44.7212,-72.778 98.1073,-140.017 150.09,-207.655 105.6812,-137.508 201.3323,-282.232 306.2986,-420.079 33.1568,-43.542 69.3287,-84.724 102.7795,-128.041 31.8182,-41.203 62.4972,-83.28 92.9907,-125.473 27.0071,-37.369 46.428,-62.018 33.8518,-68.24 -9.3932,-4.648 -25.1367,22.285 -30.181,28.983"
       id="path1969" /><path
       style="fill:none;stroke:#ffffff;stroke-width:5.5"
       d="m 2710.8764,11935.475 c 6.2537,10.639 13.7197,20.654 18.761,31.918 32.0662,71.647 44.4876,152.22 65.6646,227.467 7.5988,27 13.9083,43.035 11.8279,43.658 -3.4631,1.039 -20.7158,-39.118 -28.5501,-67.139 -19.5003,-69.747 -25.9805,-149.847 -15.0905,-221.596 0.1026,-0.677 30.5684,-81.587 48.5349,-35.954 25.3751,64.449 17.4014,78.54 -6.526,133.544 -9.8348,22.609 -33.6981,49.972 -24.471,55.399 42.6426,25.081 110.4731,-20.396 142.7488,26.783"
       id="path1971" /><path
       style="fill:none;stroke:#ffffff;stroke-width:5.5"
       d="m 2979.652,12183.486 c -2.1751,-11.985 5.4592,-38.129 -6.5254,-35.954 -11.9848,2.175 2.2442,24.551 6.5254,35.954 9.8206,26.159 28.1869,48.972 35.4833,75.945 2.2085,8.163 -18.5783,27.328 -16.7219,19.077 22.1659,-98.526 130.1784,46.308 31.4047,113.734 -47.9674,32.743 -98.0059,-29.716 -67.704,-73.01"
       id="path1973" /><path
       style="fill:none;stroke:#ffffff;stroke-width:5.5"
       d="m 3158.7,12086.263 c 63.1558,13.8 129.254,15.339 193.7311,15.776 181.1592,1.225 363.1179,-19.514 544.0773,-2.569 32.0043,2.997 49.2392,6.264 77.4922,16.877 14.6095,5.488 8.2405,2.384 -0.8154,-21.279"
       id="path1975" /><path
       style="fill:none;stroke:#ffffff;stroke-width:5.5"
       d="m 4258.8449,11925.317 c -120.7899,117.257 -35.4626,71.293 52.2052,157.758 29.0312,28.633 50.4159,86.742 53.0207,126.574 2.2484,34.381 -18.7833,123.843 -71.782,118.136 -64.398,-6.935 -41.4292,-167.313 -0.8157,-191.879 44.2008,-26.735 109.0475,18.062 158.655,5.137 11.9441,-3.112 76.0172,-38.113 36.2993,-44.76 -81.2967,-13.605 -92.5087,133.025 -13.4594,133.545 62.6676,0.411 72.3302,-107.36 56.2843,-108.964 -0.236,-0.02 -6.0193,9.13 5.302,32.286 8.0012,16.365 16.8444,32.428 27.3264,47.327 7.4287,10.56 16.1602,20.38 26.1022,28.617 7.6859,6.368 4.6789,-19.787 3.6708,-29.717 -1.3533,-13.33 -19.8027,-134.999 4.0786,-137.948 15.3477,-1.895 45.6192,113.656 69.3351,128.776 11.0345,7.035 34.336,-60.167 43.2329,-69.341 20.782,-21.43 64.5568,-30.087 78.7157,-56.866 4.2029,-7.949 0.048,-30.013 -16.3142,-24.948 -39.0546,12.088 -118.8419,74.414 -42.009,105.295 82.8374,33.294 87.2575,-86.579 84.0179,-137.581 -0.8268,-13.015 6.4548,25.362 11.42,37.422 6.8323,16.594 75.8452,136.329 69.7431,148.954 -5.8357,12.073 -16.2648,-22.412 -18.7614,-35.588 -4.1076,-21.678 -6.346,-44.053 -4.4862,-66.038 8.1034,-95.802 44.4584,-131.561 136.6311,-136.48"
       id="path1977" /><path
       style="fill:none;stroke:#ffffff;stroke-width:5.5"
       d="m -267.98568,14394.724 c 15.92496,42.497 64.44118,-117.932 64.44118,-90.619"
       id="path1979" /><path
       style="fill:none;stroke:#ff8080;stroke-width:5.5"
       d="m 1467.4345,13692.147 c -6.3437,39.689 -11.2718,232.115 66.0722,231.135 52.8172,-0.669 81.2642,-19.143 120.3172,-44.392 7.829,-5.062 13.6763,-14.426 22.8399,-16.144 4.3354,-0.812 1.2269,8.817 0.8157,13.208 -1.6716,17.854 -5.3909,116.177 9.3805,128.042 16.9072,13.58 19.1463,-147.213 79.5314,-117.035 74.3262,37.144 53.7482,143.124 157.0244,152.989 29.7833,2.845 69.9196,-20.465 89.7276,-37.422 38.5728,-33.022 135.6315,-219.327 33.4439,-224.164"
       id="path1981" /><path
       style="fill:none;stroke:#ff8080;stroke-width:5.5"
       d="m 1275.7428,14305.572 c -37.7299,52.638 -76.3254,120.308 -21.2085,180.872 29.6992,32.635 148.0865,3.275 161.1027,-38.155 2.9096,-9.262 -1.9034,-19.323 -2.8551,-28.984"
       id="path1983" /><path
       style="fill:none;stroke:#ff8080;stroke-width:5.5"
       d="m 1454.7911,14365.374 c 11.9941,99.383 -88.0121,40.468 -64.0332,-18.711 15.2332,-37.595 49.1816,-55.329 56.6915,-40.357 8.8961,17.735 4.8943,39.378 7.3417,59.068 z"
       id="path1985" /><path
       style="fill:none;stroke:#ff8080;stroke-width:5.5"
       d="m 1488.2349,14247.238 c 55.5948,24.498 43.6915,65.359 68.9274,106.395 13.407,21.802 4.3792,-113.427 26.1028,-97.957 34.9353,24.879 40.9286,164.367 82.3862,58.701 2.0394,-26.048 5.9891,-52.018 6.1183,-78.145 0.062,-12.58 -45.5662,28.229 -6.1183,78.145 58.2632,73.724 63.0806,-24.665 49.3506,-29.717 -5.8657,-2.159 -3.5801,12.922 -1.2234,18.711 16.9638,41.67 23.3977,39.939 48.9427,80.713 21.3622,34.098 47.6447,117.069 6.1176,102.727 -24.1639,-8.345 -40.8882,-30.728 -49.3505,-53.565 -23.6678,-63.871 132.6927,-87.338 163.1419,-112.998 19.4991,-16.433 -29.2324,-42.5 -59.9545,-8.072 -69.6278,78.027 57.0683,205.378 111.7519,44.392"
       id="path1987" /><path
       style="fill:none;stroke:#ff8080;stroke-width:5.5"
       d="m 1918.5215,14266.316 c -10.6042,-5.014 -20.0829,-15.042 -31.8127,-15.042 -36.1339,0 -23.2452,51.402 -5.3025,62.369 28.8687,17.646 133.1034,9.074 140.7099,39.99 4.6019,18.705 -40.1428,124.57 -58.3234,109.331 -19.3434,-16.214 6.822,-109.758 8.9728,-124.006"
       id="path1989" /><path
       style="fill:none;stroke:#ff8080;stroke-width:5.5"
       d="m 1980.923,14286.861 c 10.4462,-149.202 -20.9029,-57.584 0,0 1.0398,2.865 108.9019,158.398 58.7309,111.899"
       id="path1991" /><path
       style="fill:none;stroke:#ff8080;stroke-width:5.5"
       d="m 1985.817,14356.568 c 13.3233,-5.748 26.0283,-13.22 39.97,-17.243 4.7496,-1.371 29.8966,-1.211 38.3382,-2.201 20.5171,-2.407 53.9043,-39.62 66.8882,-53.931 8.332,-9.185 22.8351,-28.451 5.7097,-38.523 -49.4088,-29.061 -84.338,57.674 -44.864,92.087 34.0939,29.722 120.8201,37.166 140.3021,-15.409 6.409,-17.296 -0.7347,-38.766 -4.4865,-55.399"
       id="path1993" /><path
       style="fill:none;stroke:#ff8080;stroke-width:5.5"
       d="m 2195.4543,14171.293 c -5.438,-11.251 -5.0634,-39.191 -16.3145,-33.753 -11.2509,5.438 7.1983,25.206 16.3145,33.753 20.7102,19.417 49.3442,28.831 70.5585,47.695 39.302,34.949 78.1717,101.594 25.695,145.652 -24.6522,20.697 -100.045,-20.964 -92.9904,-52.097 8.1288,-35.876 71.673,-39.474 99.1081,-41.825"
       id="path1995" /><path
       style="fill:none;stroke:#ffffff;stroke-width:5.5"
       d="m -265.20391,11500.394 c 1.31953,5.596 3.19148,21.727 -0.40807,17.244 -45.38355,-56.525 1.99216,-152.797 -40.78523,-212.058 6.69589,-4.257 136.33072,-62.327 101.14784,-8.071"
       id="path2041" /><path
       style="fill:none;stroke:#ffffff;stroke-width:5.5"
       d="m -261.53337,11367.216 c 29.75514,-0.15 192.700402,-109.349 135.40758,-0.733 -7.07123,13.405 -16.85795,25.192 -25.28694,37.788"
       id="path2043" /><path
       style="fill:none;stroke:#ffffff;stroke-width:5.5"
       d="m -245.21924,11479.115 c 60.94335,2.494 107.32947,-35.409 168.44393,-39.99"
       id="path2045" /><path
       style="fill:none;stroke:#ffffff;stroke-width:5.5"
       d="m 96.154793,11241.009 c -14.95462,17.733 -33.562183,32.941 -44.863834,53.198 -7.571581,13.571 -9.192207,29.985 -10.196486,45.493 -6.234086,96.268 135.157177,51.344 140.709857,-1.1"
       id="path2047" /><path
       style="fill:none;stroke:#ffffff;stroke-width:5.5"
       d="m 228.70747,11369.051 c 30.73141,-52.524 25.87913,-30.087 28.14188,-93.188 4.00857,-111.786 -1.18282,-55.485 65.2568,26.416 12.8482,15.838 23.23402,29.597 25.69477,28.249 4.75518,-2.603 -39.28512,-180.092 -50.57391,-144.551"
       id="path2049" /><path
       style="fill:none;stroke:#ffffff;stroke-width:5.5"
       d="m 518.28413,11152.591 c 42.18173,-7.259 184.85141,-83.7 97.47729,24.948"
       id="path2051" /><path
       style="fill:none;stroke:#ffffff;stroke-width:5.5"
       d="m 535.00609,11246.513 c 54.31335,-25.22 109.85712,-42.685 169.25954,-47.695"
       id="path2053" /><path
       style="fill:none;stroke:#ffffff;stroke-width:5.5"
       d="m 743.41941,11120.306 c -11.78671,180.484 197.98342,-59.239 69.33563,-34.12 -18.9094,3.692 -56.22849,26.809 -69.33563,34.12 z"
       id="path2055" /><path
       style="fill:none;stroke:#ffffff;stroke-width:5.5"
       d="m 747.09019,11051.332 c -1.76736,-11.496 -2.37347,-23.231 -5.30204,-34.487 -2.92859,-11.256 3.23398,23.042 5.30204,34.487 15.69524,86.863 23.27158,144.056 67.29608,221.229 16.85158,29.54 29.3837,52.17 37.11469,14.308"
       id="path2057" /><path
       style="fill:none;stroke:#ffffff;stroke-width:5.5"
       d="m 1019.5371,11035.556 c -13.7311,9.784 -29.62739,17.083 -41.1933,29.351 -31.23435,33.128 -8.97512,79.979 36.2991,84.749 42.881,4.518 95.6671,-49.367 112.1597,-82.548 5.3505,-10.765 13.003,-24.409 7.7493,-35.221 -21.2895,-43.815 -100.2504,-3.961 -115.0148,3.669 -20.87261,10.786 -33.64238,33.485 -53.83689,45.493 -5.10456,3.035 1.17374,-13.043 5.70984,-16.876 14.25585,-12.047 32.08465,-19.078 48.12705,-28.617 z"
       id="path2059" /><path
       style="fill:none;stroke:#ffffff;stroke-width:5.5"
       d="m 1035.4432,10900.911 c 17.878,152.569 102.3617,276.083 121.9486,431.452"
       id="path2061" /><path
       style="fill:none;stroke:#ffffff;stroke-width:5.5"
       d="m 593.32939,11927.077 c 4.82475,60 34.64295,110.355 63.6253,161.428 13.54056,23.861 28.60366,48.805 30.18094,46.96 2.81615,-3.293 -13.25073,-33.307 -19.57686,-46.227"
       id="path2063" /><path
       style="fill:none;stroke:#ffffff;stroke-width:5.5"
       d="m 590.47421,11982.843 c 7.61328,-16.999 9.92206,-37.578 22.83987,-50.997 5.73992,-5.962 106.63362,-44.233 110.93624,-31.918 4.24699,12.155 -13.21789,22.188 -21.20812,32.285"
       id="path2065" /><path
       style="fill:none;stroke:#ffffff;stroke-width:5.5"
       d="m 646.35017,12012.927 c 11.08982,-1.209 183.41718,-80.698 99.92439,5.136"
       id="path2067" /><path
       style="fill:none;stroke:#ffffff;stroke-width:5.5"
       d="m 669.19,12087.404 c 51.07869,-12.928 104.9686,-59.246 160.28676,-48.428"
       id="path2069" /><path
       style="fill:none;stroke:#ffffff;stroke-width:5.5"
       d="m 867.81536,11899.561 c -9.65267,24.336 -22.91652,47.535 -28.95799,73.009 -2.85869,12.054 -0.5861,25.155 2.85517,37.055 22.11176,76.468 139.3086,-1.747 125.61893,-10.273 17.67376,-18.344 43.46093,-31.421 53.02123,-55.032 0.3798,-0.938 -19.1083,-121.231 -11.8279,-118.502 4.5801,1.716 77.4031,131.721 80.7553,113.366 3.0126,-16.495 3.5756,-33.565 2.0391,-50.263 -1.485,-16.136 -30.2001,-147.956 -42.4168,-141.616 -3.1635,1.642 -7.5998,21.35 -8.1572,23.481"
       id="path2071" /><path
       style="fill:none;stroke:#ffffff;stroke-width:5.5"
       d="m 1180.6395,11783.993 c -9.2388,-13.052 141.4593,-117.283 84.8334,-33.386"
       id="path2073" /><path
       style="fill:none;stroke:#ffffff;stroke-width:5.5"
       d="m 1188.7966,11836.457 c 49.5588,-7.04 93.4482,-35.434 134.184,-63.103"
       id="path2075" /><path
       style="fill:none;stroke:#ffffff;stroke-width:5.5"
       d="m 1345.4126,11714.653 c -17.5469,80.18 106.4838,43.368 122.3564,-4.77 13.8176,-41.905 -77.5417,-53.344 -97.4775,-38.889 -13.5604,9.832 -16.5859,29.106 -24.8789,43.659 z"
       id="path2077" /><path
       style="fill:none;stroke:#ffffff;stroke-width:5.5"
       d="m 1359.6874,11619.264 c 21.6364,27.687 86.2167,214.11 97.0694,218.294 4.1674,1.607 3.2628,-8.316 4.894,-12.474"
       id="path2079" /><path
       style="fill:none;stroke:#ffffff;stroke-width:5.5"
       d="m 1533.4333,11663.289 c -52.7439,161.468 63.773,50.826 94.6224,-15.775 24.7779,-53.494 -27.26,-53.18 -59.1389,-26.416 -14.0737,11.816 -23.6556,28.128 -35.4835,42.191 z"
       id="path2081" /><path
       style="fill:none;stroke:#ffffff;stroke-width:5.5"
       d="m 1538.3275,11542.952 c 10.4852,104.501 67.5871,194.35 121.1326,281.765"
       id="path2083" /><path
       style="fill:none;stroke:#ff8080;stroke-width:5.5"
       d="m 1343.7813,12643.596 c 12.2549,39.825 41.0114,184.351 72.1899,206.554 9.3512,6.659 -5.4374,-22.396 -9.7885,-33.02"
       id="path2085" /><path
       style="fill:none;stroke:#ff8080;stroke-width:5.5"
       d="m 1326.2435,12700.095 c 2.3111,-15.409 -0.7835,-32.69 6.9333,-46.227 17.7827,-31.192 200.3554,-159.798 113.3837,-25.681"
       id="path2087" /><path
       style="fill:none;stroke:#ff8080;stroke-width:5.5"
       d="m 1389.8688,12699.729 c 19.305,-0.612 39.1181,2.607 57.9151,-1.835 2.4469,-0.578 56.6248,-31.584 57.9155,-31.185 5.6187,1.738 -19.708,31.424 -37.1147,50.997 -6.8342,7.684 -14.4111,14.675 -21.6165,22.013"
       id="path2089" /><path
       style="fill:none;stroke:#ff8080;stroke-width:5.5"
       d="m 1407.8144,12800.254 c -71.9502,115.455 -0.1352,0.103 0,0 15.3014,-11.625 37.597,-9.491 54.6521,-18.344 29.2044,-15.16 64.0971,-44.012 92.5832,-62.737"
       id="path2091" /><path
       style="fill:none;stroke:#ff8080;stroke-width:5.5"
       d="m 1588.9016,12533.531 c -29.8016,45.569 -36.2363,165.68 51.7972,133.545 18.7203,-6.833 116.9792,-70.882 66.0728,-63.837 69.9605,-79.073 2.723,-72.683 7.7489,-126.941 0.6122,-6.609 8.8176,9.93 13.4592,14.675 1.6279,1.664 85.7007,81.186 85.2417,50.63 -0.3895,-25.931 -78.4382,-147.68 -82.7943,-125.474"
       id="path2093" /><path
       style="fill:none;stroke:#ff8080;stroke-width:5.5"
       d="m 1897.2393,12309.367 c 71.6622,-113.454 -23.6474,-9.555 -33.0361,33.019 -17.1605,104.662 170.4168,-60.632 143.9728,-24.948"
       id="path2095" /><path
       style="fill:none;stroke:#ff8080;stroke-width:5.5"
       d="m 2020.4113,12187.929 c -19.2622,-15.735 80.3474,187.27 80.3474,133.178"
       id="path2097" /><path
       style="fill:none;stroke:#ff8080;stroke-width:5.5"
       d="m 2069.354,12119.323 c -1.3595,-12.107 8.0285,-37.681 -4.0786,-36.322 -12.1071,1.36 -1.9299,25.723 4.0786,36.322 12.1091,21.36 34.2397,35.516 48.1266,55.766 20.9881,30.604 31.2314,78.724 59.9549,104.561"
       id="path2099" /><path
       style="fill:none;stroke:#00ffff;stroke-width:5.5"
       d="m 4320.8099,11635.573 c 9.9177,-76.645 -20.7788,-147.983 -47.3114,-218.295 -55.7393,-147.708 -123.4213,-283.823 -201.0717,-421.179 -142.5596,-252.172 -307.1326,-514.301 -541.6309,-691.204 -690.9517,-521.2442 -1541.5004,-432.4763 -2295.8118,-114.834 -184.6531,77.758 -362.09623,186.179 -521.2376,307.814 -118.08198,90.252 -224.90089,193.494 -345.45275,280.664 -12.26669,8.87 -145.49712,109.062 -164.77303,102.726 -19.46576,-6.398 -2.36381,-67.449 -0.81573,-78.879 6.26808,-46.282 13.00181,-92.059 23.65547,-137.58 9.13452,-39.031 26.82224,-80.647 30.99702,-120.704 0.80116,-7.687 -8.31525,13.101 -11.41992,20.178 -6.90359,15.738 -13.09883,31.777 -19.5771,47.695 -16.4192,40.343 -84.72601,187.869 -51.38955,204.719 27.39872,13.849 128.57983,-3.871 154.57678,-7.337 95.93974,-12.794 200.0159,-30.517 294.8787,-1.468"
       id="path2101" /><path
       style="fill:none;stroke:#00ffff;stroke-width:5.5"
       d="m 3172.8821,9519.8328 c -0.1903,-61.7141 3.7139,-123.5724 2.4474,-185.2749 -0.553,-26.9499 -2.8774,-62.9081 -6.526,-91.3534 -0.7694,-5.9985 -5.1011,-23.4113 -2.4468,-17.9772 19.7276,40.3874 5.9171,23.7205 39.9698,76.3113 18.8306,29.0818 116.2886,126.7607 107.6735,157.7588"
       id="path2103" /><path
       style="fill:none;stroke:#00ffff;stroke-width:5.5"
       d="m 3189.1965,9464.4337 c 20.9381,-63.2398 99.1881,-67.5113 124.8035,-127.6746"
       id="path2105" /><path
       style="fill:none;stroke:#00ffff;stroke-width:5.5"
       d="m 3317.6705,9238.0681 c -81.8848,105.3244 79.0475,182.8652 148.4588,78.1457 7.23,-10.9076 0.272,-26.1709 0.408,-39.2563"
       id="path2107" /><path
       style="fill:none;stroke:#00ffff;stroke-width:5.5"
       d="m 3401.2807,9157.7211 c 26.2507,40.1064 92.2899,166.0679 110.9361,45.8602"
       id="path2109" /><path
       style="fill:none;stroke:#00ffff;stroke-width:5.5"
       d="m 3504.468,9124.335 c -24.1128,50.6904 -53.7004,136.2011 26.5101,151.155 37.2026,6.9358 73.7677,-13.5748 106.0427,12.1071"
       id="path2111" /><path
       style="fill:none;stroke:#00ffff;stroke-width:5.5"
       d="m 3728.7878,9861.3991 c 11.4493,19.4537 21.5873,34.4429 28.5499,56.4995 0.4863,1.5407 -3.5375,-0.5266 -4.4866,-1.8343 -5.6054,-7.7244 -10.0295,-16.2479 -14.6825,-24.581 -35.6833,-63.9051 -72.267,-128.8058 -105.2264,-194.0801 -4.8863,-9.6771 -21.5707,-26.6445 -11.4202,-30.4512 10.1502,-3.8067 7.6134,20.3008 11.4202,30.4512 -75.0654,-13.8921 170.7229,-134.2841 138.2625,-94.6554 -14.0176,17.1132 -33.3786,32.5785 -48.1271,49.1621"
       id="path2113" /><path
       style="fill:none;stroke:#00ffff;stroke-width:5.5"
       d="m 3694.528,9737.76 c 18.761,1.1007 37.8618,7.0208 56.2837,3.3021 17.3657,-3.5055 31.1825,-16.8851 47.3115,-24.2142 88.4229,-40.18 67.8749,5.2726 36.7067,63.4705"
       id="path2115" /><path
       style="fill:none;stroke:#00ffff;stroke-width:5.5"
       d="m 3752.0357,9882.3112 c -8.0844,-9.4417 160.5153,-157.7302 157.8393,-102.3599"
       id="path2117" /><path
       style="fill:none;stroke:#00ffff;stroke-width:5.5"
       d="m 3967.3827,9454.1611 c -1.2221,116.5427 2.6829,-46.9662 -8.5651,83.6489 -6.4574,74.9858 9.5152,136.7852 97.477,113.7331 31.6156,-8.2855 63.1716,-25.8326 91.3596,-42.1913 5.8303,-3.3837 23.3566,-12.5669 16.7222,-11.3734 -2.9345,0.5278 -5.4383,2.4459 -8.1574,3.6688 -6.5257,0.4892 -13.0511,0.9783 -19.5768,1.4675"
       id="path2119" /><path
       style="fill:none;stroke:#00ffff;stroke-width:5.5"
       d="m 4130.1163,9408.3009 c 15.3625,16.6319 32.5299,31.7623 46.0875,49.8959 34.3871,45.994 105.2718,188.4671 86.465,132.0771"
       id="path2121" /><path
       style="fill:none;stroke:#00ffff;stroke-width:5.5"
       d="m 4132.5636,9453.0604 c -5.3022,-10.5172 -16.8912,-19.8148 -15.9067,-31.5518 2.8104,-33.4958 259.0652,-185.3569 118.6857,-35.5875"
       id="path2123" /><path
       style="fill:none;stroke:#00ffff;stroke-width:5.5"
       d="m 4169.6783,9461.1318 c 46.1579,-2.4696 85.0133,-24.7153 126.4346,-41.8245 5.4219,-2.2396 18.496,-7.2551 17.5377,-1.4675 -0.8107,4.8965 -4.0783,9.0497 -6.1177,13.5746"
       id="path2125" /><path
       style="fill:none;stroke:#00ffff;stroke-width:5.5"
       d="m 4236.9743,9551.0176 c 53.1294,-14.108 100.3321,-49.1313 154.5765,-53.1977"
       id="path2127" /><path
       style="fill:none;stroke:#00ffff;stroke-width:5.5"
       d="m 4473.9373,9336.0254 c 13.471,-22.7639 231.7194,-172.0515 112.568,-58.3341"
       id="path2129" /><path
       style="fill:none;stroke:#00ffff;stroke-width:5.5"
       d="m 4513.0916,9378.2167 c 54.1973,-26.6451 102.7287,-66.899 160.2867,-85.1164"
       id="path2131" /><path
       style="fill:none;stroke:#00ffff;stroke-width:5.5"
       d="m 4857.7283,9077.0074 c 9.3806,25.9262 18.2071,52.0598 28.1419,77.7787 7.8798,20.3992 16.5614,40.4835 25.2873,60.5354 7.4544,17.1301 15.385,34.0498 23.2476,50.9964 62.4438,134.5874 -44.6995,-136.1933 -48.5349,-143.4504 -8.3804,-15.8571 -11.1411,-51.574 -28.1419,-45.8601 -5.5652,1.8704 -69.2197,85.2201 -48.1266,104.1941"
       id="path2137" /><path
       style="fill:none;stroke:#00ffff;stroke-width:5.5"
       d="m 4836.5196,9343.363 c 88.4701,-44.543 164.913,-125.5593 268.3685,-132.811"
       id="path2139" /></g></svg>
