<?xml version="1.0" encoding="UTF-8" standalone="no"?>
<!-- Created with Inkscape (http://www.inkscape.org/) -->

<svg
   width="666.93945mm"
   height="143.17639mm"
   viewBox="0 0 666.93943 143.1764"
   version="1.1"
   id="svg12"
   inkscape:version="1.2.1 (9c6d41e410, 2022-07-14, custom)"
   sodipodi:docname="equivilence_surface_integral_mass.svg"
   xml:space="preserve"
   xmlns:inkscape="http://www.inkscape.org/namespaces/inkscape"
   xmlns:sodipodi="http://sodipodi.sourceforge.net/DTD/sodipodi-0.dtd"
   xmlns="http://www.w3.org/2000/svg"
   xmlns:svg="http://www.w3.org/2000/svg"><sodipodi:namedview
     id="namedview14"
     pagecolor="#000000"
     bordercolor="#ffffff"
     borderopacity="1"
     inkscape:showpageshadow="0"
     inkscape:pageopacity="0"
     inkscape:pagecheckerboard="0"
     inkscape:deskcolor="#000000"
     inkscape:document-units="mm"
     showgrid="true"
     inkscape:zoom="0.26268493"
     inkscape:cx="1084.9499"
     inkscape:cy="197.95578"
     inkscape:window-width="1366"
     inkscape:window-height="746"
     inkscape:window-x="1360"
     inkscape:window-y="0"
     inkscape:window-maximized="1"
     inkscape:current-layer="layer1"
     inkscape:lockguides="true"
     showguides="true"><sodipodi:guide
       position="3265.6758,-22192.731"
       orientation="0,-1"
       id="guide3409"
       inkscape:locked="true" /></sodipodi:namedview><defs
     id="defs9"><rect
       x="587.26367"
       y="362.45731"
       width="66.575974"
       height="20.973427"
       id="rect1884" /></defs><g
     inkscape:label="Layer 1"
     inkscape:groupmode="layer"
     id="layer1"
     transform="translate(-3205.3197,-22623.719)"><path
       style="fill:none;stroke:#00ffff;stroke-width:0.499999"
       d="m 3212.6323,22655.528 c -3.4126,5.191 -9.4513,12.8 -6.0666,19.416 0.6541,1.279 4.5753,4.449 5.4167,5.336 5.9585,6.281 9.6139,12.431 10.129,21.512 0.4033,7.107 -7.8868,18.795 -12.8644,23.217 -3.3062,2.937 -2.7376,2.048 -3.6833,-0.731"
       id="path434" /><path
       style="fill:none;stroke:#00ffff;stroke-width:0.499999"
       d="m 3242.2341,22656.137 c -3.6425,2.458 -7.1878,6.839 -7.4208,11.45 -0.2232,4.419 5.0796,6.929 7.4208,9.818 7.9344,9.791 8.9131,21.091 1.8687,31.744 -1.2492,1.889 -10.1712,14.788 -14.1373,11.109"
       id="path436" /><path
       style="fill:none;stroke:#00ffff;stroke-width:0.499999"
       d="m 3265.0651,22694.434 c 1.6636,-5.986 0.048,0.09 2.2479,-10.11 0.3449,-1.6 0.7715,-3.18 1.1374,-4.775 0.5189,-2.261 0.5747,-2.141 0.6771,-3.801 0.056,-0.901 0.039,1.807 0.1355,2.705 0.1814,1.684 2.2451,13.382 4.2249,13.496 2.3407,0.135 3.5262,-13.487 3.6292,-15.494 0.044,-0.86 -0.7785,-3.048 -0.054,-2.583 0.7614,0.49 0.1277,1.807 0.2437,2.705 0.2272,1.759 0.4623,3.518 0.7854,5.262 1.0558,5.698 2.8884,11.088 5.7417,16.128"
       id="path438" /><path
       style="fill:none;stroke:#00ffff;stroke-width:0.499999"
       d="m 3294.1794,22661.204 c -7.3795,11.411 -7.0168,28.414 0.2979,39.832 1.7765,2.773 4.2831,4.844 6.4999,7.212"
       id="path440" /><path
       style="fill:none;stroke:#00ffff;stroke-width:0.499999"
       d="m 3313.0292,22669.95 c -3.3847,3.931 -4.8219,8.901 -5.9854,13.862 -0.221,0.942 -0.3522,1.909 -0.4063,2.875 -0.019,0.338 -0.079,1.205 0.1896,0.999 0.4367,-0.335 0.3611,-1.04 0.5417,-1.559"
       id="path442" /><path
       style="fill:none;stroke:#00ffff;stroke-width:0.499999"
       d="m 3305.1751,22673.702 c 5.9499,1.938 10.3362,5.204 13.6227,10.403"
       id="path444" /><path
       style="fill:none;stroke:#00ffff;stroke-width:0.499999"
       d="m 3325.704,22681.741 c -0.063,0.788 -0.064,1.583 -0.1896,2.364 -0.074,0.459 -3.7653,14.658 -1.8687,12.497"
       id="path446" /><path
       style="fill:none;stroke:#00ffff;stroke-width:0.499999"
       d="m 3331.3914,22674.798 c -1.2936,3.924 1.2195,10.149 -1.8146,13.424"
       id="path448" /><path
       style="fill:none;stroke:#00ffff;stroke-width:0.499999"
       d="m 3324.1332,22677.137 c 2.4077,1.348 4.7918,2.687 6.9874,4.361"
       id="path450" /><path
       style="fill:none;stroke:#00ffff;stroke-width:0.499999"
       d="m 3339.3809,22685.591 c -0.4786,-0.941 -2.5888,12.383 -0.4875,9.988"
       id="path452" /><path
       style="fill:none;stroke:#00ffff;stroke-width:0.499999"
       d="m 3343.8225,22674.067 c 0.8486,-0.406 1.6408,-0.961 2.5458,-1.218 0.8824,-0.25 3.4822,-0.321 4.4416,0.122 4.7193,2.178 -6.565,13.779 -3.4665,15.738 1.5707,0.993 4.8856,-0.894 6.3103,-1.559 0.9491,-0.443 0.9151,-0.382 0.4333,-0.512"
       id="path454" /><path
       style="fill:none;stroke:#00ffff;stroke-width:0.499999"
       d="m 3343.1996,22683.203 c 4.5588,-4.33 8.2861,-5.286 13.8395,-6.626"
       id="path456" /><path
       style="fill:none;stroke:#00ffff;stroke-width:0.499999"
       d="m 3353.8974,22654.236 c -0.09,-0.698 0.4276,-2.185 -0.2708,-2.095 -0.6984,0.09 0.1071,1.411 0.2708,2.095 0.7943,3.324 1.8228,6.589 2.6,9.916 2.1509,9.208 3.8304,18.389 2.3021,27.846 -0.2413,1.493 -2.2759,9.657 -3.9813,11.645 -0.3114,0.363 -0.9208,-0.26 -1.3812,-0.39"
       id="path458" /><path
       style="fill:none;stroke:#00ffff;stroke-width:0.499999"
       d="m 3374.643,22671.144 c 6.7901,2.044 11.1156,14.568 2.5458,17.516 -5.4276,1.868 -6.3687,-5.81 -0.4875,-9.233"
       id="path460" /><path
       style="fill:none;stroke:#00ffff;stroke-width:0.499999"
       d="m 3384.4741,22683.349 c 0.4876,-0.95 1.1734,-1.822 1.4626,-2.85 0.3162,-1.124 1.6081,-11.492 1.652,-11.816 0.5113,-3.771 1.6338,-8.247 1.3271,-12.156 -0.1773,-2.26 -0.1054,4.549 0.1895,6.797 0.9089,6.924 3.0217,13.816 2.5188,20.829"
       id="path462" /><path
       style="fill:none;stroke:#00ffff;stroke-width:0.499999"
       d="m 3388.5908,22679.695 c -1.8586,-5.349 4.2989,-5.057 7.8811,-4.678"
       id="path464" /><path
       style="fill:none;stroke:#00ffff;stroke-width:0.499999"
       d="m 3212.5511,22743.28 c 0.58,6.696 0.3579,4.596 1.625,14.691 0.3584,2.856 0.6587,5.804 1.1104,8.649 0.023,0.144 0.01,-0.293 0,-0.439 -0.071,-1.048 -0.1519,-2.096 -0.2437,-3.143 -0.3924,-4.47 -0.4029,-8.98 -1.0292,-13.423 -0.6105,-4.331 -3.5689,-7.125 1.2187,-10.232 0.5457,-0.355 1.2502,0.57 1.598,1.12 1.1046,1.747 2.0667,3.622 2.6541,5.603 0.1737,0.587 0.3862,10.095 0.4333,10.135 1.4316,1.219 6.3085,0.08 7.7999,0.244 4.2121,0.448 7.5753,3.784 11.1582,5.725"
       id="path468" /><path
       style="fill:none;stroke:#00ffff;stroke-width:0.499999"
       d="m 3430.4337,22675.689 c 5.7644,-0.05 11.5178,0.417 17.2789,0.609"
       id="path470" /><path
       style="fill:none;stroke:#00ffff;stroke-width:0.499999"
       d="m 3433.2232,22682.242 c 6.5145,-2.604 13.5466,-3.188 20.3394,-4.726"
       id="path472" /><path
       style="fill:none;stroke:#00ffff;stroke-width:0.499999"
       d="m 3476.7456,22651.156 c -3.7883,3.354 -8.309,8.981 -5.3624,14.349 0.84,1.531 6.3948,5.356 7.4749,6.286 4.619,3.973 7.6205,9.251 6.3645,15.567 -0.9632,4.844 -6.3675,12.872 -10.752,15.251 -0.4588,0.249 -1.2565,-0.08 -1.4624,-0.56 -0.3909,-0.911 -0.036,-1.982 -0.054,-2.973"
       id="path474" /><path
       style="fill:none;stroke:#00ffff;stroke-width:0.499999"
       d="m 3487.9038,22657.928 c 1.6326,4.32 0.049,1.16 4.4146,5.872 9.8087,10.588 9.8354,19.149 0,30.453 -3.2201,3.7 -2.4186,3.57 -4.9833,2.801"
       id="path476" /><path
       style="fill:none;stroke:#00ffff;stroke-width:0.499999"
       d="m 3476.7728,22715.375 c 1.0212,8.194 1.0892,16.466 1.5978,24.703"
       id="path478" /><path
       style="fill:none;stroke:#00ffff;stroke-width:0.499999"
       d="m 3476.2852,22726.508 c 0.048,-4.217 -3.663,-8.136 -3.2229,-12.376 0.4926,-4.745 6.0089,-1.992 7.4479,-1.12 4.8247,2.921 8.2073,9.351 8.3145,14.885 0.047,2.413 -0.4993,4.856 -1.3542,7.114 -0.8501,2.244 -2.2042,4.297 -3.6832,6.188 -4.24,5.419 -4.9235,2.018 -5.3354,-2.096"
       id="path480" /><path
       style="fill:none;stroke:#00ffff;stroke-width:0.499999"
       d="m 3513.4913,22683.732 c 1.0383,-4.455 0.4208,-1.941 1.7875,-7.114 0.3347,-1.267 0.6503,-2.538 1.0021,-3.8 0.3795,-1.362 0.7904,-2.714 1.1916,-4.069 0.683,-2.306 0.7969,-2.577 0.8125,-2.534 0.7287,2.021 -0.044,12.193 3.0063,12.815 2.6043,0.531 4.4347,-8.73 4.577,-9.453 0.2853,-1.448 0.3996,-2.933 0.4062,-4.409 0,-0.559 0.1,-1.92 -0.3792,-1.632 -0.2283,0.137 0.093,3.954 0.3792,5.384 0.9026,4.51 2.2497,11.637 6.6353,14.032"
       id="path486" /><path
       style="fill:none;stroke:#00ffff;stroke-width:0.499999"
       d="m 3540.8722,22650.697 c 0.3882,-1.137 0.7527,-2.283 1.1647,-3.411 0.4119,-1.129 -0.8878,2.242 -1.1647,3.411 -0.4762,2.011 -0.7137,4.072 -1.0291,6.115 -2.1168,13.71 -2.6958,26.944 6.7708,38.297"
       id="path488" /><path
       style="fill:none;stroke:#00ffff;stroke-width:0.499999"
       d="m 3553.195,22681.661 c -0.2091,1.129 -0.3931,-1.415 -0.6228,-3.411 -0.023,-0.196 -1.3271,-12.477 -1.3271,-12.497 0.5637,1.046 7.5559,-4.243 9.3436,-2.291 0.6012,0.657 -0.8214,1.629 -1.4895,2.217"
       id="path490" /><path
       style="fill:none;stroke:#00ffff;stroke-width:0.499999"
       d="m 3551.4347,22672.793 c 3.5796,0.911 6.8981,-0.933 10.454,-0.755"
       id="path492" /><path
       style="fill:none;stroke:#00ffff;stroke-width:0.499999"
       d="m 3549.8097,22655.423 c 1.0291,0.235 2.0318,0.692 3.0874,0.706 0.4183,0 8.1251,-1.388 8.2333,-1.583 0.8355,-1.503 -10.5311,-7.977 -6.2562,-5.871"
       id="path512" /><path
       style="fill:none;stroke:#00ffff;stroke-width:0.499999"
       d="m 3573.1553,22645.849 c -7.5352,14.925 -7.2831,32.831 6.2019,44.095"
       id="path514" /><path
       style="fill:none;stroke:#00ffff;stroke-width:0.499999"
       d="m 3582.7697,22649.235 c 0.1986,1.535 0.1357,3.127 0.5958,4.604 0.3328,1.069 1.0191,2.014 1.7334,2.875 4.5557,5.494 7.3421,-4.707 7.1498,-8.039 -0.096,-1.668 -0.5686,-3.418 -2.1937,-2.217"
       id="path516" /><path
       style="fill:none;stroke:#00ffff;stroke-width:0.499999"
       d="m 3583.9614,22670.698 c 0.7854,1.486 1.5666,2.975 2.3562,4.458 0.6277,1.18 1.1897,2.398 1.8958,3.533 5.2703,8.468 6.6728,-11.332 5.8499,-13.472 -0.093,-0.244 -0.4694,-0.228 -0.7041,-0.341"
       id="path518" /><path
       style="fill:none;stroke:#00ffff;stroke-width:0.499999"
       d="m 3598.9654,22635.105 c 2.1905,14.929 8.9058,29.748 7.2311,45.119 -0.2925,2.685 -1.4791,9.25 -3.7104,11.815 -0.3204,0.369 -0.9569,-0.194 -1.4354,-0.292"
       id="path520" /><path
       style="fill:none;stroke:#00ffff;stroke-width:0.499999"
       d="m 3616.2606,22635.744 c 5.4187,6.438 4.6062,4.436 7.827,13.545 3.3972,9.608 5.9286,20.094 4.6041,30.356 -0.6708,5.197 -2.3773,10.065 -4.8207,14.641 -1.8227,3.414 -1.3588,3.36 -2.5458,1.462"
       id="path522" /><path
       style="fill:none;stroke:#00ffff;stroke-width:0.499999"
       d="m 3661.4081,22638.497 c 0.6861,1.518 1.3747,3.036 2.0583,4.556 1.7803,3.958 5.0589,9.207 5.1728,13.594 0.056,2.173 -3.0375,10.85 -7.3124,7.187 -3.714,-3.183 -3.6081,-13.796 1.2187,-16.079 0.7236,-0.343 1.5709,0.308 2.3563,0.462"
       id="path524" /><path
       style="fill:none;stroke:#00ffff;stroke-width:0.499999"
       d="m 3655.6935,22671.313 c 1.4264,-0.577 2.7715,-1.423 4.2792,-1.73 3.0799,-0.627 6.2458,-0.71 9.3707,-1.047 5.2161,-0.563 10.6568,-1.522 15.8164,-0.439"
       id="path526" /><path
       style="fill:none;stroke:#00ffff;stroke-width:0.499999"
       d="m 3642.5312,22636.012 c -0.5931,23.703 2.1698,47.421 5.0916,70.918"
       id="path528" /><path
       style="fill:none;stroke:#00ffff;stroke-width:0.499999"
       d="m 3661.9497,22681.301 c 1.2819,0.829 2.7111,1.465 3.8458,2.485 4.2782,3.849 8.3595,12.349 4.0353,17.517 -0.9645,1.153 -3.3739,2.506 -4.929,1.169 -2.7421,-2.356 -3.8192,-9.089 -1.1646,-11.889 1.0362,-1.092 3.2145,0.186 4.0354,0.512"
       id="path530" /><path
       style="fill:none;stroke:#00ffff;stroke-width:0.499999"
       d="m 3674.76,22686.003 c 0.6951,0.52 1.5871,0.849 2.0854,1.559 2.1716,3.098 3.0982,7.022 5.5249,10.184 0.1502,0.196 0.5158,0.672 0.5958,0.438 0.9803,-2.858 -0.1089,-13.209 -0.2979,-16.152 -0.045,-0.698 -0.1395,-7.965 -1.327,-5.116"
       id="path532" /><path
       style="fill:none;stroke:#00ffff;stroke-width:0.499999"
       d="m 3701.2472,22653.967 c 0.2817,4.031 0.5803,21.861 3.4395,24.776 0.2883,0.294 0.3792,-0.731 0.5687,-1.096"
       id="path534" /><path
       style="fill:none;stroke:#00ffff;stroke-width:0.499999"
       d="m 3700.868,22661.3 c 1.0382,-1.316 1.6267,-3.176 3.1146,-3.947 0.8608,-0.446 11.3833,-0.518 12.0519,0.03 0.2219,0.18 -0.1986,0.536 -0.2979,0.804"
       id="path536" /><path
       style="fill:none;stroke:#00ffff;stroke-width:0.499999"
       d="m 3703.4951,22664.954 c 4.3094,-1.465 8.738,-2.443 13.1623,-3.459"
       id="path538" /><path
       style="fill:none;stroke:#00ffff;stroke-width:0.499999"
       d="m 3697.8077,22648.364 c 4.0085,-0.927 2.9347,-0.975 8.0165,-0.366 1.6482,0.198 3.2782,0.533 4.902,0.877 1.0595,0.225 2.0896,0.572 3.1417,0.829 0.2128,0.05 0.7868,0.268 0.65,0.1 -2.2146,-2.769 -6.0075,-4.966 -8.5312,-8.064 -1.368,-1.679 -6.6804,-9.088 -0.7854,-3.143"
       id="path540" /><path
       style="fill:none;stroke:#00ffff;stroke-width:0.499999"
       d="m 3737.3759,22656.769 c -2.9216,4.964 -4.8403,11.183 -8.9644,15.372 -0.4471,0.454 -0.3547,-0.608 -0.3251,-3.386"
       id="path542" /><path
       style="fill:none;stroke:#00ffff;stroke-width:0.499999"
       d="m 3728.2219,22660.374 c -0.2348,-1.786 -0.4367,-3.578 -0.7042,-5.359 -0.067,-0.445 -0.6199,-1.002 -0.2979,-1.316 0.281,-0.274 0.5647,0.611 0.6229,0.999 0.2815,1.875 -0.713,4.126 0.3792,5.676 1.3338,1.894 4.2763,1.934 6.0395,3.435 1.8634,1.587 3.0695,3.815 4.6582,5.677 3.6273,4.251 3.0443,3.573 6.3105,6.577"
       id="path544" /><path
       style="fill:none;stroke:#00ffff;stroke-width:0.499999"
       d="m 3749.3737,22631.237 c 1.2007,0.869 2.6095,1.506 3.602,2.607 1.3991,1.551 3.5394,6.369 3.9812,8.356 0.757,3.405 0.248,7.599 -3.7374,8.77 -0.8729,0.257 -1.9241,0.121 -2.7083,-0.341 -3.2659,-1.921 -1.8049,-9.813 2.4917,-7.991 1.0135,0.43 1.7153,1.381 2.5729,2.071"
       id="path546" /><path
       style="fill:none;stroke:#00ffff;stroke-width:0.499999"
       d="m 3745.3654,22658.377 c 2.7038,-1.29 -4.8084,2.13 -3.602,1.607 6.304,-2.732 13.4287,-3.552 20.1769,-4.848 4.8503,-0.931 10.1522,-2.146 15.0852,-1.388"
       id="path548" /><path
       style="fill:none;stroke:#00ffff;stroke-width:0.499999"
       d="m 3749.482,22671.873 c 3.3515,1.508 2.5994,0.678 4.9833,4.653 1.9399,3.235 5.3196,11.421 -0.677,13.156 -0.7613,0.22 -1.7671,0.213 -2.3563,-0.317 -3.3551,-3.018 -1.8042,-6.692 -0.081,-9.964"
       id="path550" /><path
       style="fill:none;stroke:#00ffff;stroke-width:0.499999"
       d="m 3760.0445,22671.045 c -2.1261,5.034 4.8943,12.546 9.3435,7.82 4.0359,-4.287 2.644,-13.138 0.2709,-17.857"
       id="path552" /><path
       style="fill:none;stroke:#00ffff;stroke-width:0.499999"
       d="m 3788.4356,22667.43 c 0.4715,0.934 0.1712,0.415 -0.1354,-1.973 -0.6718,-5.231 -1.3395,-10.458 -1.5167,-15.738 2.4916,-0.893 4.8845,-2.136 7.4749,-2.68 2.9142,-0.612 7.0546,-0.358 6.7437,1.097"
       id="path554" /><path
       style="fill:none;stroke:#00ffff;stroke-width:0.499999"
       d="m 3789.4105,22657.32 c 5.0442,-0.09 9.6832,-2.211 14.4895,-3.508"
       id="path556" /><path
       style="fill:none;stroke:#00ffff;stroke-width:0.499999"
       d="m 3780.5815,22638.927 c 2.7165,1.19 16.5854,4.958 18.9039,3.362 0.5756,-0.397 0.097,-1.514 -0.325,-2.071 -1.3186,-1.74 -10.0371,-7.686 -12.2957,-6.797 -0.5402,0.212 0.5122,0.521 2.0583,1.12"
       id="path558" /><path
       style="fill:none;stroke:#00ffff;stroke-width:0.499999"
       d="m 3809.0999,22623.749 c 0.334,2.785 0.9278,5.552 1.0021,8.356 0.1158,4.378 -0.33,8.753 -0.4333,13.131 -0.3395,14.393 -0.3102,17.259 0,31.818 0.1506,7.069 -0.2148,15.077 1.6791,22.023"
       id="path560" /><path
       style="fill:none;stroke:#00ffff;stroke-width:0.499999"
       d="m 3824.5101,22653.349 c 0.1986,-0.731 1.3267,-1.994 0.5958,-2.192 -0.7308,-0.199 -0.9285,1.512 -0.5958,2.192 1.0903,2.23 3.2377,3.789 4.55,5.896 1.4205,2.281 6.2046,14.286 1.977,16.03 -1.4707,0.607 -3.2816,0.815 -4.7666,0.244 -2.1806,-0.839 -4.5339,-6.18 -3.4666,-8.43 0.7771,-1.638 1.7007,-1.936 3.0604,-2.679"
       id="path562" /><path
       style="fill:none;stroke:#00ffff;stroke-width:0.499999"
       d="m 3837.2933,22658.538 c -0.4062,1.454 -1.4305,2.867 -1.2187,4.361 0.4844,3.417 6.0692,5.585 8.8832,4.215 3.79,-1.846 5.106,-12.286 1.1917,-13.131"
       id="path564" /><path
       style="fill:none;stroke:#00ffff;stroke-width:0.499999"
       d="m 3855.7098,22650.84 c 0.01,-0.796 0.018,-1.592 0.027,-2.388 0.027,-0.162 0.083,-0.652 0.081,-0.487 -0.011,0.959 -0.4056,1.963 -0.1083,2.875 0.6768,2.076 2.2145,3.792 2.9521,5.847 0.9225,2.57 2.6739,9.801 -0.2979,11.913 -3.0524,2.169 -4.9969,-3.483 -5.0105,-5.238 -0.023,-2.912 1.2004,-4.114 2.6542,-6.383"
       id="path566" /><path
       style="fill:none;stroke:#00ffff;stroke-width:0.499999"
       d="m 3863.1034,22648.72 c -0.2459,2.478 2.5008,9.69 5.0375,10.33 0.9088,0.229 1.066,-1.725 1.6249,-4.824 0.1069,-0.592 2.7983,-14.576 2.1396,-15.543 -0.2486,-0.365 -0.3069,0.828 -0.4604,1.243"
       id="path568" /></g></svg>
