<?xml version="1.0" encoding="UTF-8" standalone="no"?>
<!-- Created with Inkscape (http://www.inkscape.org/) -->

<svg
   width="500.86017mm"
   height="182.33994mm"
   viewBox="0 0 500.86015 182.33994"
   version="1.1"
   id="svg12"
   inkscape:version="1.2.1 (9c6d41e410, 2022-07-14, custom)"
   sodipodi:docname="equivilence_surface_integral.svg"
   xml:space="preserve"
   xmlns:inkscape="http://www.inkscape.org/namespaces/inkscape"
   xmlns:sodipodi="http://sodipodi.sourceforge.net/DTD/sodipodi-0.dtd"
   xmlns="http://www.w3.org/2000/svg"
   xmlns:svg="http://www.w3.org/2000/svg"><sodipodi:namedview
     id="namedview14"
     pagecolor="#000000"
     bordercolor="#ffffff"
     borderopacity="1"
     inkscape:showpageshadow="0"
     inkscape:pageopacity="0"
     inkscape:pagecheckerboard="0"
     inkscape:deskcolor="#000000"
     inkscape:document-units="mm"
     showgrid="true"
     inkscape:zoom="0.52314274"
     inkscape:cx="972.96581"
     inkscape:cy="370.83569"
     inkscape:window-width="1366"
     inkscape:window-height="746"
     inkscape:window-x="1360"
     inkscape:window-y="0"
     inkscape:window-maximized="1"
     inkscape:current-layer="layer1"
     inkscape:lockguides="true"
     showguides="true"><sodipodi:guide
       position="3265.6758,-22192.731"
       orientation="0,-1"
       id="guide3409"
       inkscape:locked="true" /></sodipodi:namedview><defs
     id="defs9"><rect
       x="587.26367"
       y="362.45731"
       width="66.575974"
       height="20.973427"
       id="rect1884" /></defs><g
     inkscape:label="Layer 1"
     inkscape:groupmode="layer"
     id="layer1"
     transform="translate(-3162.0843,-22622.875)"><path
       style="fill:none;stroke:#00ffff;stroke-width:0.499999"
       d="m 3169.0638,22661.966 c -3.7357,7.133 -8.4527,16.604 -6.0923,24.98 1.3634,4.839 3.5539,9.416 5.6843,13.97 2.6384,5.639 12.4463,21.388 12.6746,28.968 0.1508,5.012 -2.0061,9.861 -3.6992,14.581 -1.1525,3.213 -7.2749,12.268 -10.6889,13.701 -0.4672,0.196 -0.9792,-0.261 -1.4687,-0.391"
       id="path280" /><path
       style="fill:none;stroke:#00ffff;stroke-width:0.499999"
       d="m 3190.6866,22668.254 c -2.7964,4.071 -5.0501,8.741 -3.9711,13.847 1.261,5.967 5.5848,10.069 8.8394,14.949 10.7286,16.085 13.9975,27.334 2.0945,44.626 -3.2724,4.754 -7.8127,10.39 -14.1433,10.594"
       id="path282" /><path
       style="fill:none;stroke:#00ffff;stroke-width:0.499999"
       d="m 3176.788,22778.473 c 1.3362,5.633 1.6341,11.433 2.176,17.175 0.2397,2.539 -0.1035,5.288 1.0064,7.584 0.4165,0.862 -0.055,-1.919 -0.2177,-2.862"
       id="path284" /><path
       style="fill:none;stroke:#00ffff;stroke-width:0.499999"
       d="m 3175.1833,22781.213 c -0.1556,-2.822 -0.736,-6.948 1.7952,-9.077 6.5051,-5.471 12.8389,8.64 13.7896,11.646 0.7413,2.344 1.0266,4.86 0.9247,7.315 -0.1662,4.001 -2.6789,14.84 -9.1115,13.799 -3.3104,-0.535 -4.1481,-4.298 -5.1403,-6.63"
       id="path286" /><path
       style="fill:none;stroke:#00ffff;stroke-width:0.499999"
       d="m 3222.4813,22664.119 c 1.3806,31.368 3.9301,62.678 3.3726,94.096"
       id="path288" /><path
       style="fill:none;stroke:#00ffff;stroke-width:0.499999"
       d="m 3245.5998,22669.526 c 1.079,0.913 2.4074,1.595 3.2366,2.74 2.5586,3.532 5.7587,17.489 -0.4079,19.133 -2.698,0.719 -3.2875,-3.171 -3.2094,-4.453 0.2669,-4.383 3.0596,-7.473 7.3165,-8.123"
       id="path290" /><path
       style="fill:none;stroke:#00ffff;stroke-width:0.499999"
       d="m 3238.4468,22701.111 c 8.9757,-3.494 18.5184,-4.365 27.9871,-5.553"
       id="path292" /><path
       style="fill:none;stroke:#00ffff;stroke-width:0.499999"
       d="m 3247.259,22718.531 c -6.2881,4.128 -4.0227,19.082 5.1948,15.096 7.6584,-3.312 3.6539,-13.969 0.272,-18.717 -0.7038,-0.988 -1.6073,-1.823 -2.5021,-2.642 -0.9123,-0.835 -2.603,-1.102 -2.9102,-2.3 -0.088,-0.343 0.7165,-0.01 1.0607,0.07"
       id="path298" /><path
       style="fill:none;stroke:#00ffff;stroke-width:0.499999"
       d="m 3265.3187,22716.966 c -0.2448,-0.873 0.1383,-2.863 -0.7343,-2.618 -0.8726,0.244 0.5549,1.729 0.7343,2.618 0.3325,1.647 1.4261,16.659 7.8602,12.502 3.1528,-2.037 3.8468,-14.219 0.7617,-16.686"
       id="path300" /><path
       style="fill:none;stroke:#00ffff;stroke-width:0.499999"
       d="m 3284.8743,22689.368 c 2.1772,7.37 3.6478,14.955 6.038,22.264"
       id="path302" /><path
       style="fill:none;stroke:#00ffff;stroke-width:0.499999"
       d="m 3282.4809,22692.964 c 0.6527,-0.75 1.0646,-1.814 1.9581,-2.25 1.9662,-0.961 9.5661,-2.135 11.2602,-0.147"
       id="path304" /><path
       style="fill:none;stroke:#00ffff;stroke-width:0.499999"
       d="m 3287.7029,22696.634 c -5.5091,6.604 -0.016,0 0,0 1.5558,-0.602 3.3846,0.35 5.0046,-0.05 1.3857,-0.341 4.8189,-2.511 6.4731,-3.523"
       id="path306" /><path
       style="fill:none;stroke:#00ffff;stroke-width:0.499999"
       d="m 3279.4075,22683.472 c 3.6602,0.08 1.6131,-0.02 6.8267,0.538 0.2424,0.03 7.5547,1.544 8.241,0.05 0.8303,-1.808 -6.0169,-13.809 -8.0235,-11.23"
       id="path308" /><path
       style="fill:none;stroke:#00ffff;stroke-width:0.499999"
       d="m 3320.9936,22684.866 c -2.4058,5.474 -4.327,11.143 -6.582,16.686 -0.2075,0.51 -0.2551,1.136 -0.6528,1.517 -0.2211,0.212 -0.1868,-0.424 -0.2174,-2.912"
       id="path310" /><path
       style="fill:none;stroke:#00ffff;stroke-width:0.499999"
       d="m 3310.6582,22690.469 c 5.3642,5.811 12.5531,9.42 18.6309,14.459"
       id="path312" /><path
       style="fill:none;stroke:#00ffff;stroke-width:0.499999"
       d="m 3345.1186,22660.792 c 2.2892,2.723 4.1635,4.664 5.902,7.731 1.9392,3.421 3.065,7.266 0.027,10.545 -1.324,1.429 -3.0964,1.959 -4.4061,0.122 -3.5595,-4.991 4.2426,-12.992 8.377,-7.315"
       id="path314" /><path
       style="fill:none;stroke:#00ffff;stroke-width:0.499999"
       d="m 3337.7478,22688.609 c 11.4266,-3.655 23.5122,-3.926 35.1946,-6.238"
       id="path316" /><path
       style="fill:none;stroke:#00ffff;stroke-width:0.499999"
       d="m 3347.1313,22703.803 c 1.1059,0.554 2.4148,0.818 3.3181,1.663 3.4346,3.216 5.9063,12.518 1.4145,15.903 -0.7202,0.543 -1.6034,1.098 -2.5025,1.028 -3.0099,-0.236 -6.0923,-6.037 -2.4476,-7.609 0.8048,-0.347 1.7404,-0.212 2.6109,-0.318"
       id="path318" /><path
       style="fill:none;stroke:#00ffff;stroke-width:0.499999"
       d="m 3355.6715,22707.619 c -0.1995,-0.807 0.209,-2.621 -0.5985,-2.422 -0.8072,0.2 0.2249,1.679 0.5985,2.422 1.2253,2.438 2.8453,4.657 4.1614,7.047 0.9985,1.812 1.5292,3.901 2.7741,5.553 0.059,0.08 0.1929,-0.123 0.1905,-0.22 -0.026,-1.047 -0.1339,-2.093 -0.272,-3.131 -0.4241,-3.19 -1.103,-6.694 -1.6592,-9.885 -0.073,-0.422 -1.3589,-6.829 -0.4622,-4.208"
       id="path320" /><path
       style="fill:none;stroke:#00ffff;stroke-width:0.499999"
       d="m 3384.5018,22667.495 c -1.4094,7.069 -1.9105,21.514 2.0942,27.818"
       id="path322" /><path
       style="fill:none;stroke:#00ffff;stroke-width:0.499999"
       d="m 3381.6732,22674.101 c 2.9511,-3.672 7.8218,-4.153 12.2663,-3.89"
       id="path324" /><path
       style="fill:none;stroke:#00ffff;stroke-width:0.499999"
       d="m 3384.1481,22680.315 c 4.1335,-0.564 7.7589,-2.736 11.3961,-4.624"
       id="path326" /><path
       style="fill:none;stroke:#00ffff;stroke-width:0.499999"
       d="m 3383.8491,22665.832 c 2.3479,0.358 4.6987,0.702 7.0443,1.076 3.1916,0.51 -3.3134,-2.351 -4.5422,-3.205 -2.5511,-1.772 -4.8667,-3.902 -6.7995,-6.337"
       id="path328" /><path
       style="fill:none;stroke:#00ffff;stroke-width:0.499999"
       d="m 3399.9503,22647.8 c 0.4262,0.897 1.0152,1.734 1.2785,2.691 1.0731,3.904 2.4635,15.599 2.7741,17.934 1.6825,12.651 2.9729,25.14 3.9981,37.849 0.1016,1.259 0.367,10.621 1.8495,12.991"
       id="path330" /><path
       style="fill:none;stroke:#00ffff;stroke-width:0.499999"
       d="m 3438.5901,22666.19 c 1.8494,1.264 4.1224,2.065 5.5483,3.792 4.8802,5.913 6.478,17.529 -0.4895,22.534 -0.8774,0.63 -2.2394,1.138 -3.1822,0.611 -4.6116,-2.577 -7.6946,-12.506 -0.9519,-14.63 1.375,-0.434 2.8829,-0.03 4.3246,-0.05"
       id="path332" /><path
       style="fill:none;stroke:#00ffff;stroke-width:0.499999"
       d="m 3457.0032,22671.768 c 0.036,1.998 -0.2672,4.032 0.109,5.994 0.9155,4.778 4.3196,11.776 7.0715,9.763 3.8158,-2.792 5.0361,-7.841 5.7388,-12.111 0.3181,-1.934 0.6324,-8.939 -0.3807,-9.664 -1.2848,-0.919 -1.614,2.85 -1.6865,4.428"
       id="path334" /><path
       style="fill:none;stroke:#00ffff;stroke-width:0.499999"
       d="m 3483.6848,22661.052 c 1.106,0.726 2.4556,1.175 3.3182,2.178 2.359,2.742 4.9064,8.946 4.4333,12.698 -0.3479,2.759 -3.3274,6.623 -6.582,4.942 -4.2958,-2.22 -4.7159,-10.493 -2.3389,-10.423 1.1313,0.03 2.0489,0.963 3.0734,1.444"
       id="path336" /><path
       style="fill:none;stroke:#00ffff;stroke-width:0.499999"
       d="m 3493.585,22665.162 c -2.4042,-0.338 0.3384,-3.321 -0.5712,-4.55 -0.1384,-0.187 0.1071,0.454 0.136,0.685 0.1616,1.287 0.011,2.64 0.4352,3.865 0.8607,2.489 2.1304,4.823 3.3727,7.145 1.022,1.911 2.3249,3.385 2.7199,2.96 2.6987,-2.906 1.5687,-10.58 1.3869,-13.848 -0.109,-1.961 -0.3132,-3.917 -0.5167,-5.871 -0.104,-0.998 -0.544,-3.964 -0.544,-2.961"
       id="path338" /><path
       style="fill:none;stroke:#00ffff;stroke-width:0.499999"
       d="m 3542.7761,22660.364 c 6.1026,-0.226 14.9997,-5.853 20.6978,-3.695"
       id="path340" /><path
       style="fill:none;stroke:#00ffff;stroke-width:0.499999"
       d="m 3550.0651,22666.603 c 5.7052,-4.008 12.2248,-4.001 18.8756,-4.135"
       id="path342" /><path
       style="fill:none;stroke:#00ffff;stroke-width:0.499999"
       d="m 3598.6415,22623.029 c -3.9282,5.038 -11.9806,16.305 -9.5739,23.512 1.2647,3.787 3.7478,7.061 5.902,10.422 3.224,5.03 9.5462,10.457 9.4107,17.175 -0.069,3.417 -0.8802,6.847 -2.1214,10.031 -0.3098,0.795 -6.3296,9.579 -8.9754,7.267 -0.6713,-0.587 -0.3628,-1.746 -0.544,-2.618"
       id="path348" /><path
       style="fill:none;stroke:#00ffff;stroke-width:0.499999"
       d="m 3613.4373,22630.515 c -2.849,1.923 -5.339,2.709 -6.0923,6.484 -1.0078,5.051 2.6284,8.597 5.0316,12.453 4.4328,7.114 8.8585,14.994 7.017,23.708 -0.5995,2.838 -7.6504,17.226 -11.5864,14.973"
       id="path350" /><path
       style="fill:none;stroke:#00ffff;stroke-width:0.499999"
       d="m 3604.7865,22704.008 c -0.8464,6.775 -0.5607,13.885 1.2784,20.503"
       id="path352" /><path
       style="fill:none;stroke:#00ffff;stroke-width:0.499999"
       d="m 3603.5625,22708.314 c -0.6434,-3.763 -1.4274,-4.833 1.333,-8.71 0.6572,-0.923 1.869,-1.374 2.9644,-1.664 6.2717,-1.659 8.6241,5.92 8.4587,10.57 -0.066,1.869 -0.3508,3.758 -0.952,5.529 -0.7815,2.304 -7.1088,15.052 -10.4441,7.585 -0.4662,-1.045 -0.4895,-2.235 -0.7342,-3.352"
       id="path354" /><path
       style="fill:none;stroke:#00ffff;stroke-width:0.499999"
       d="m 3620.3712,22718.981 c 0.8795,-0.897 1.4563,-2.266 2.6382,-2.691 1.8288,-0.658 3.6962,4.086 3.7261,4.282 0.653,4.236 0.6377,7.282 -1.5502,10.642 -0.3767,0.579 -1.2972,1.606 -1.7952,0.539 -0.1719,-0.37 -0.3826,-2.375 0.7345,-2.227 4.4273,0.587 7.8227,6.754 5.8206,10.741 -2.9374,5.848 -8.0174,3.338 -11.7772,-0.612 -0.8442,-0.887 -0.7977,-2.316 -1.1967,-3.474"
       id="path358" /><path
       style="fill:none;stroke:#00ffff;stroke-width:0.499999"
       d="m 3634.6775,22648.984 c 0.5713,-0.693 0.8266,-1.938 1.7135,-2.08 0.8493,-0.135 1.5062,0.868 2.1214,1.469 4.3812,4.276 4.8199,13.23 -1.1695,16.392 -0.958,0.505 -2.1174,1.095 -3.1549,0.782 -4.7921,-1.444 0.056,-9.849 3.3727,-10.251 0.7284,-0.09 1.3779,0.506 2.0669,0.759"
       id="path360" /><path
       style="fill:none;stroke:#00ffff;stroke-width:0.499999"
       d="m 3649.0925,22668.484 c 0.2178,0.791 -0.1381,2.59 0.653,2.373 0.7909,-0.218 -0.6754,-1.553 -0.653,-2.373 0.079,-2.855 0.7017,-5.67 0.952,-8.515 0.5477,-6.222 0.9581,-12.456 1.3327,-18.692 0.013,-0.234 0.4969,-7.017 -0.1087,-8.587 -0.4847,-1.257 -1.4166,2.4 -1.523,3.743 -0.577,7.281 -0.1317,9.761 2.7469,16.735 2.2255,5.391 6.09,9.26 9.1115,14.092 1.2613,2.018 1.4483,1.684 0.4625,2.349"
       id="path362" /><path
       style="fill:none;stroke:#00ffff;stroke-width:0.499999"
       d="m 3649.0656,22662.147 c -1.9479,-4.676 6.4108,-3.909 9.1114,-4.184"
       id="path364" /></g></svg>
