<?xml version="1.0" encoding="UTF-8" standalone="no"?>
<!-- Created with Inkscape (http://www.inkscape.org/) -->

<svg
   width="9001.3242mm"
   height="4179.6328mm"
   viewBox="0 0 9001.324 4179.6329"
   version="1.1"
   id="svg12"
   inkscape:version="1.2.1 (9c6d41e410, 2022-07-14, custom)"
   sodipodi:docname="example_router_protocol.svg"
   xml:space="preserve"
   xmlns:inkscape="http://www.inkscape.org/namespaces/inkscape"
   xmlns:sodipodi="http://sodipodi.sourceforge.net/DTD/sodipodi-0.dtd"
   xmlns="http://www.w3.org/2000/svg"
   xmlns:svg="http://www.w3.org/2000/svg"><sodipodi:namedview
     id="namedview14"
     pagecolor="#505050"
     bordercolor="#eeeeee"
     borderopacity="1"
     inkscape:showpageshadow="0"
     inkscape:pageopacity="0"
     inkscape:pagecheckerboard="0"
     inkscape:deskcolor="#505050"
     inkscape:document-units="mm"
     showgrid="true"
     inkscape:zoom="0.049336952"
     inkscape:cx="21687.599"
     inkscape:cy="10722.187"
     inkscape:window-width="1366"
     inkscape:window-height="746"
     inkscape:window-x="0"
     inkscape:window-y="0"
     inkscape:window-maximized="1"
     inkscape:current-layer="layer1"
     inkscape:lockguides="false"><inkscape:grid
       type="xygrid"
       id="grid344"
       color="#969696"
       opacity="0.39215686"
       empcolor="#000000"
       empopacity="0.17254902"
       dotted="false"
       originx="1163.8102"
       originy="-13777.852" /></sodipodi:namedview><defs
     id="defs9" /><g
     inkscape:label="Layer 1"
     inkscape:groupmode="layer"
     id="layer1"
     transform="translate(1058.8103,-13926.351)"><path
       style="fill:none;stroke:#ffffff;stroke-width:5.5"
       d="m 679.57412,14481.436 c -23.24767,-0.856 -47.23768,-8.458 -69.74298,-2.568 -20.1763,5.281 -35.52208,21.971 -52.20538,34.487 -80.07432,60.07 -136.00261,141.498 -157.83965,239.94 -19.50183,87.915 -7.34063,191.69 37.93056,270.391 70.66097,122.84 186.22894,154.577 321.79691,141.25 73.59557,-7.236 148.98073,-104.704 186.79736,-155.558 142.85346,-192.104 199.87946,-391.058 -55.87616,-515.101 -20.04909,-9.724 -126.75219,-50.105 -161.51018,-44.026 -19.16827,3.353 -32.90033,20.79 -49.35048,31.185 z"
       id="path956" /><path
       style="fill:none;stroke:#ffffff;stroke-width:5.5"
       d="m 764.81562,14641.029 c -46.20636,56.704 -75.18543,120.993 -104.00276,187.11 -8.45995,19.41 -16.75609,40.427 -17.5378,39.623 -3.67157,-3.775 -0.74248,-10.511 -0.81563,-15.776 -0.33473,-24.09 -0.27186,-48.184 -0.40781,-72.276"
       id="path958" /><path
       style="fill:none;stroke:#ffffff;stroke-width:5.5"
       d="m 638.78865,14724.312 c -2.17517,-19.812 -4.3503,-39.624 -6.52547,-59.435 -0.27197,-1.468 -1.69873,-5.606 -0.81587,-4.403 72.25448,98.481 169.87663,167.145 247.97536,259.752"
       id="path960" /><path
       style="fill:none;stroke:#ffffff;stroke-width:5.5"
       d="m 3767.8466,15634.91 c -0.8742,-12.53 3.1046,-51.401 -17.1294,-59.801 -37.9973,-15.776 -87.2387,64.568 -96.2538,79.246 -73.7278,120.041 -136.515,426.766 92.9907,416.777 134.6978,-5.863 208.3821,-114.329 203.1114,-243.976 -3.1047,-76.364 -11.2305,-177.614 -76.6768,-233.337 -47.2885,-40.262 -246.1001,-23.034 -191.2834,64.205"
       id="path962" /><path
       style="fill:none;stroke:#ffffff;stroke-width:5.5"
       d="m 3791.5022,15720.394 c -25.0111,48.053 -59.6868,109.298 -50.9818,168.031 2.8578,19.282 -0.6651,-39.143 -4.0785,-58.334"
       id="path964" /><path
       style="fill:none;stroke:#ffffff;stroke-width:5.5"
       d="m 3713.602,15749.01 c 40.758,78.008 133.2534,100.313 174.1538,175.736"
       id="path966" /><path
       style="fill:none;stroke:#ffffff;stroke-width:5.5"
       d="m 3904.8857,17018.052 c 63.8482,-202.696 -149.3639,-263.984 -219.0179,-55.766 -32.9927,98.626 -76.0563,347.352 93.8067,347.803 27.3376,0.07 56.9614,-0.847 80.7554,-14.308 47.8319,-27.06 96.1895,-59.062 128.0657,-103.828 55.848,-78.431 65.5402,-211.431 25.2873,-297.907 -33.1534,-71.224 -106.548,-85.331 -171.2987,-68.974 -8.7344,2.207 -18.7174,3.375 -25.287,9.539 -10.0221,9.404 -14.683,23.236 -22.0244,34.854"
       id="path968" /><path
       style="fill:none;stroke:#ffffff;stroke-width:5.5"
       d="m 3868.5867,16976.227 c -30.8398,60.62 -27.641,51.789 -59.9546,133.178 -5.6983,14.353 -6.4185,56.15 -15.4982,43.659 -3.9124,-5.383 -1.1218,-13.291 -2.4474,-19.812 -3.0308,-14.909 -7.0694,-29.595 -10.604,-44.392"
       id="path970" /><path
       style="fill:none;stroke:#ffffff;stroke-width:5.5"
       d="m 3742.5598,16991.269 c 45.3629,57.592 129.5046,61.591 176.6007,113.733"
       id="path972" /><path
       style="fill:none;stroke:#ffffff;stroke-width:5.5"
       d="m 2337.2578,16246.919 c -17.8097,5.381 -36.929,7.547 -53.4287,16.143 -84.3605,43.952 -141.3369,175.559 -149.6824,263.421 -4.0643,42.787 -11.2364,89.637 6.5254,128.775 91.821,202.33 353.7699,102.07 429.4706,-52.097 38.8678,-79.155 33.3698,-266.498 -75.8611,-293.872 -57.0611,-14.3 -101.6899,0.238 -152.5373,20.912 -2.472,1.006 -93.4522,38.299 -99.9241,55.766"
       id="path974" /><path
       style="fill:none;stroke:#ffffff;stroke-width:5.5"
       d="m 2333.9952,16439.532 c -25.0293,107.915 -15.639,79.214 -44.0484,166.931 -18.9669,58.563 -14.3661,6.76 -20.8007,-39.256"
       id="path976" /><path
       style="fill:none;stroke:#ffffff;stroke-width:5.5"
       d="m 2305.0373,16485.392 c 42.9416,23.163 112.3389,34.667 123.172,89.886"
       id="path978" /><path
       style="fill:none;stroke:#ffffff;stroke-width:5.5"
       d="m 448.07053,15226.532 c 14.01583,82.612 25.25604,165.581 26.51064,249.479 0.31377,20.983 8.6922,49.811 -13.86702,32.285"
       id="path980" /><path
       style="fill:none;stroke:#ffffff;stroke-width:5.5"
       d="m 2186.3458,16902.077 c -28.1895,-10.646 49.4969,-164.871 81.1625,-131.71 76.7048,80.327 -3.075,238.065 -30.5887,316.251 -4.7228,13.421 -10.4251,26.18 -15.9065,39.257 -1.0869,2.592 -5.1065,8.983 -2.4469,8.071 35.9923,-12.334 67.4338,-26.267 106.0421,-30.451 9.2244,-1 33.0965,8.181 28.1419,-0.734"
       id="path982" /><path
       style="fill:none;stroke:#ffffff;stroke-width:5.5"
       d="m 4030.6625,17506.33 c -37.9661,-14.02 -49.852,-3.892 -32.2204,-45.493 15.6162,-36.846 53.0135,-60.125 91.3593,-42.558 22.4089,10.265 33.724,32.181 33.4438,56.133 -0.073,6.247 -11.5104,18.675 -5.3019,17.977 5.3636,-0.603 9.7835,-4.887 15.0905,-5.87 10.1237,-1.875 21.6477,3.071 28.9578,9.539 32.9962,29.194 -16.0261,88.348 -34.2598,110.064 -28.3819,33.801 -37.2851,54.389 -71.7823,27.883"
       id="path984" /><path
       style="fill:none;stroke:#ffffff;stroke-width:5.5"
       d="m 4268.4414,15601.851 c -38.8069,-15.582 -156.5867,82.247 -178.64,71.175 -19.1797,-9.63 53.1617,-119.059 63.6254,-133.178 6.3397,-8.554 -0.2421,21.373 1.2234,31.919 2.2911,16.486 5.6777,32.896 10.6045,48.795 30.4261,98.188 103.1896,170.483 144.788,261.953"
       id="path986" /><path
       style="fill:none;stroke:#ffffff;stroke-width:5.5"
       d="m 1123.0694,14723.171 c 217.2131,-161.304 509.8403,-166.547 768.3975,-184.175 203.3518,-13.863 404.7148,-1.891 606.0712,27.883 293.0242,43.33 683.8786,95.298 915.225,299.375 111.1014,98.006 175.2952,249.27 245.5285,376.42 58.8995,106.632 127.3871,212.665 139.8937,336.43"
       id="path988" /><path
       style="fill:none;stroke:#ffffff;stroke-width:5.5"
       d="m 1046.8005,14948.436 c 197.0662,127.312 417.3854,220.695 639.9233,294.238 99.5543,32.901 201.5982,58.26 299.7732,95.389 91.8181,34.725 180.3635,77.458 272.4465,111.532 128.0287,47.376 260.9241,87.164 392.7636,122.905 225.5517,61.146 493.1942,63.341 685.6032,211.691"
       id="path990" /><path
       style="fill:none;stroke:#ffffff;stroke-width:5.5"
       d="m 3662.7782,16017.527 c 7.8248,84.202 33.5499,164.947 42.4167,249.112 8.0166,76.098 9.9663,152.685 15.9064,228.934 8.7755,112.641 24.8394,224.584 34.2596,337.164 3.3999,40.632 2.8887,53.148 8.5651,94.655 5.0281,36.769 31.7444,85.269 15.906,120.337"
       id="path992" /><path
       style="fill:none;stroke:#ffffff;stroke-width:5.5"
       d="m 3287.1442,15779.788 c 87.607,46.024 233.6411,20.65 296.9181,106.029"
       id="path994" /><path
       style="fill:none;stroke:#ffffff;stroke-width:5.5"
       d="m 868.16036,15079.412 c 323.32164,416.117 728.10424,755.699 1093.04934,1132.562 70.0564,72.344 133.9554,151.18 201.8879,224.898"
       id="path996" /><path
       style="fill:none;stroke:#ffffff;stroke-width:5.5"
       d="m 1486.1793,14045.828 c 49.1571,107.179 36.7857,179.167 -65.6649,245.81 -48.7187,31.692 -109.6471,39.647 -147.6431,87.318 -25.9776,32.592 -48.1758,68.705 -61.5858,108.23 -8.8017,25.942 -4.6277,61.912 -19.9851,84.016 -31.1876,44.887 -126.5146,-80.818 -91.3594,-119.97 12.6645,-14.105 10.9168,126.107 24.8793,129.875 38.419,10.368 125.6099,-65.439 152.1296,-25.681"
       id="path1006" /><path
       style="fill:none;stroke:#ffffff;stroke-width:5.5"
       d="m 1448.2485,13418.828 c -29.3137,69.03 -78.9053,190.453 -15.9061,259.385 40.9242,44.779 116.4323,18.615 145.1958,-25.682 7.3713,-11.351 2.9909,-26.904 4.4864,-40.356 -14.8186,-21.646 -34.733,-40.574 -44.4557,-64.938 -13.0268,-32.644 67.4579,-39.543 83.2022,9.905 17.1759,53.945 -1.7732,45.735 -38.7465,55.033"
       id="path1008" /><path
       style="fill:none;stroke:#ffffff;stroke-width:5.5"
       d="m 1599.5624,13424.331 c 56.4089,23.256 116.6873,74.018 139.4865,133.178 1.9669,5.104 -9.7407,-6.317 -11.828,-11.373 -6.9651,-16.868 -41.198,-92.264 -15.9062,-111.165 5.2282,-3.907 13.4872,-1.981 19.5771,0.367 77.3144,29.806 94.2028,155.04 55.468,37.055 -11.5758,-35.26 -39.2112,-73.511 -26.1027,-108.23 7.3819,-19.552 106.4342,76.418 108.8972,79.246 7.6218,8.755 26.9232,29.13 15.4988,31.185 -26.469,4.762 -56.6987,-58.564 -55.0604,-79.613 3.2811,-42.162 78.1212,10.139 98.2925,-5.503 11.8321,-9.176 46.714,-93.794 18.7613,-84.016 -36.9972,12.942 -27.7635,81.02 -14.2748,102.727 26.0866,41.98 93.9628,5.962 116.6461,-16.143 8.3889,-8.175 11.6919,-20.301 17.5379,-30.451"
       id="path1010" /><path
       style="fill:none;stroke:#ffffff;stroke-width:5.5"
       d="m 2056.7672,13294.456 c -10.7403,4.647 -27.7392,3.131 -32.2205,13.941 -14.519,35.026 98.1686,88.363 135,60.902 7.4374,-5.545 8.7005,-16.387 13.0511,-24.581"
       id="path1012" /><path
       style="fill:none;stroke:#ffffff;stroke-width:5.5"
       d="m 2148.1265,13247.862 c -3.9955,31.554 60.576,101.57 20.3925,124.006 -11.012,-20.545 -28.7895,-38.716 -33.036,-61.636 -1.9158,-10.341 76.5209,-16.794 94.6224,-15.776 21.7485,-27.294 -85.6069,-171.84 -77.4924,-186.009 4.9124,-8.578 12.4204,-5.606 19.9847,-5.136"
       id="path1014" /><path
       style="fill:none;stroke:#ffffff;stroke-width:5.5"
       d="m 2317.3862,13166.047 c 5.438,12.474 16.3142,23.814 16.3142,37.422 0,7.65 -9.3771,12.918 -16.3142,16.143 -53.3685,24.813 -89.2222,-102.128 -41.6012,-85.85 16.6095,5.677 27.7342,21.523 41.6012,32.285 z"
       id="path1016" /><path
       style="fill:none;stroke:#ffffff;stroke-width:5.5"
       d="m 2348.3832,13112.849 c 19.1691,11.863 40.6427,20.629 57.5072,35.588 12.936,11.474 20.2854,28.011 30.1813,42.191 55.9409,80.158 -29.6434,-50.934 1.2234,-74.843 32.2506,-24.982 108.0077,50.99 91.7673,84.382"
       id="path1018" /><path
       style="fill:none;stroke:#ffffff;stroke-width:5.5"
       d="m 2056.3594,13873.761 c 27.0116,50.466 -55.259,-232.192 -58.3234,-204.72 22.1602,-5.87 44.8139,-25.099 66.4806,-17.61 62.7481,21.689 -22.4321,187.435 -22.4321,61.269"
       id="path1020" /><path
       style="fill:none;stroke:#ffffff;stroke-width:5.5"
       d="m 2181.9783,13714.901 c 84.4447,-24.032 6.3368,63.556 0.4083,47.695 -5.5663,-14.893 2.5902,-32.081 -0.4083,-47.695 -4.1553,-21.636 -20.2441,-40.712 -20.8002,-62.736 -0.1738,-6.872 27.1222,-6.63 51.3895,19.811 25.6751,27.976 38.4884,61.363 26.9184,96.49"
       id="path1022" /><path
       style="fill:none;stroke:#ffffff;stroke-width:5.5"
       d="m 2271.2987,13717.836 c 5.2388,-44.297 8.3796,-23.74 -6.9339,-62.003"
       id="path1024" /><path
       style="fill:none;stroke:#ffffff;stroke-width:5.5"
       d="m 2250.4977,13554.207 c 15.2268,13.942 32.3541,26.057 45.6798,41.825 7.2416,8.569 10.0428,20.065 15.091,30.084 27.7442,55.064 4.4752,-27.094 21.616,-39.99 23.4497,-17.642 74.6916,88.432 76.2688,91.353"
       id="path1026" /><path
       style="fill:none;stroke:#ffffff;stroke-width:5.5"
       d="m 2410.7847,13536.23 c 15.0233,25.062 80.8053,100.987 51.7977,138.681 -19.8942,-87.489 -38.8665,-62.261 -2.8551,-94.655 23.7915,-0.367 47.6013,-2.101 71.3746,-1.101 59.6426,2.509 116.1902,27.953 55.4682,89.886 -9.2782,9.463 -19.3331,19.387 -31.8127,23.847 -21.4518,7.668 -37.8377,-6.428 -54.2447,-15.775"
       id="path1028" /><path
       style="fill:none;stroke:#ffffff;stroke-width:5.5"
       d="m 2248.4588,13994.465 c -32.0098,0.368 -74.9345,47.188 -53.8369,79.246 30.9896,47.088 118.3132,13.937 148.4591,-15.409 23.5206,-22.897 -20.3041,1.467 -1.6317,44.759 4.4257,10.261 26.3022,40.712 40.7855,19.812 28.2559,-40.774 -21.182,-92.806 -24.0633,-134.278 -1.2293,-17.695 71.4798,37.25 80.3471,45.493 8.4523,7.856 25.9167,37.565 17.1301,30.084 -11.0463,-9.404 -33.4174,-28.778 -22.8398,-48.428 1.9711,-3.662 147.8698,-37.732 125.6194,-57.234 -31.2481,-27.388 -94.274,24.709 -73.8222,60.536 25.138,44.035 127.3587,26.424 163.5498,7.704"
       id="path1030" /><path
       style="fill:none;stroke:#ffffff;stroke-width:5.5"
       d="m 2898.9864,14094.99 c 5.251,-70.86 -66.3847,-142.46 -97.4772,-198.116 3.2629,-19.934 -2.8117,-44.014 9.7886,-59.801 7.4821,-9.375 24.5621,-1.371 35.8912,2.568 84.2833,29.303 29.6611,157.223 10.1963,129.142 -5.6102,-8.094 -4.8944,-19.078 -7.3416,-28.617"
       id="path1032" /><path
       style="fill:none;stroke:#ffffff;stroke-width:5.5"
       d="m 2963.0196,13927.692 c -66.2932,-6.396 -21.2082,-65.299 -5.3023,-44.025 8.8514,11.838 3.5348,29.35 5.3023,44.025 z"
       id="path1034" /><path
       style="fill:none;stroke:#ffffff;stroke-width:5.5"
       d="m 2985.0437,13828.634 c 14.8879,7.147 103.899,34.466 95.8459,80.347 -1.0999,6.266 -9.6015,20.286 -19.1696,11.007 -34.5506,-33.508 -19.1834,-93.871 -8.1568,-133.545 24.3353,8.316 51.9301,10.211 73.006,24.948 24.1833,16.909 43.6993,79.265 33.4439,107.863 -11.8278,-16.999 -32.4976,-30.504 -35.4834,-50.996 -1.4187,-9.737 73.5578,-65.228 92.5828,-93.555"
       id="path1036" /><path
       style="fill:none;stroke:#ffffff;stroke-width:5.5"
       d="m 3234.2423,13737.281 c -10.8759,13.33 -27.1764,23.673 -32.6281,39.99 -18.0496,54.022 123.725,47.417 112.9758,81.081 -13.9812,43.785 -67.4191,67.433 -105.2264,44.759"
       id="path1038" /><path
       style="fill:none;stroke:#ffffff;stroke-width:5.5"
       d="m -124.84525,14334.196 c 111.986855,49.468 205.949021,129.954 313.23193,187.477 49.8711,26.739 109.58753,39.144 152.53758,77.779 4.46595,4.017 13.42252,18.797 12.64359,12.84 -6.5663,-50.21 -33.77319,-84.645 -36.70689,-141.983 -2.4034,-46.973 69.71638,-43.846 79.12362,-6.237 23.92569,95.653 -100.60564,143.397 -171.70667,155.925 -14.42051,2.541 -42.02899,5.82 -43.64038,1.834 -1.35228,-3.345 20.68476,-12.221 36.29906,-19.444"
       id="path1040" /><path
       style="fill:none;stroke:#ffffff;stroke-width:5.5"
       d="m 274.03619,14090.221 c -78.08891,-0.824 -18.04363,-67.589 -9.78842,-48.062 6.36622,15.059 6.52563,32.041 9.78842,48.062 z"
       id="path1042" /><path
       style="fill:none;stroke:#ffffff;stroke-width:5.5"
       d="m 315.22948,14153.324 c 27.65836,49.13 41.14695,116.368 88.91228,151.522"
       id="path1044" /><path
       style="fill:none;stroke:#ffffff;stroke-width:5.5"
       d="m 386.19613,14160.662 c 11.14798,10.15 24.01729,18.685 33.44392,30.451 26.53432,33.12 29.29027,63.533 30.58922,56.133 2.20093,-12.539 -10.28663,-123.557 30.58898,-99.792 18.34869,10.668 28.51518,33.032 35.89126,51.73"
       id="path1046" /><path
       style="fill:none;stroke:#ffffff;stroke-width:5.5"
       d="m -1620.8442,13975.958 c -8.5558,-3.892 -16.3232,-12.69 -25.6673,-11.674 -33.1616,3.603 -67.6592,129.586 -69.792,152.8 -3.1465,34.248 -4.134,82.174 17.3039,113.369 67.8597,98.745 192.1491,47.173 228.6984,-52.145 8.0945,-21.995 3.175,-47.269 -1.1537,-70.304 -12.7674,-67.941 -59.4233,-163.517 -143.0446,-155.654 -34.4184,3.236 -60.3808,19.06 -77.867,47.475"
       id="path1048" /><path
       style="fill:none;stroke:#ffffff;stroke-width:5.5"
       d="m -1640.4552,14472.495 c -8.0751,-3.372 -17.8156,-4.159 -24.2253,-10.117 -3.1479,-2.926 -2.2675,-65.793 12.9779,-21.013 3.5559,10.444 7.4983,20.753 11.2474,31.13 z"
       id="path1050" /><path
       style="fill:none;stroke:#ffffff;stroke-width:5.5"
       d="m -1631.5148,14563.294 c 9.2483,32.5 4.6417,143.653 22.7833,167.588 2.0626,2.721 5.6479,-4.7 6.3447,-8.042"
       id="path1052" /><path
       style="fill:none;stroke:#ffffff;stroke-width:5.5"
       d="m -1500.5829,14652.536 c 4.5485,5.991 8.8459,21.192 14.9967,16.862 10.5483,-7.426 -32.788,-105.872 -38.9335,-113.109 -7.7665,-9.145 -20.1878,-12.971 -30.2817,-19.457 -54.4754,-130.333 103.7196,-102.175 86.8074,-14.008 -2.6219,13.668 -41.2863,83.307 -44.9899,27.499"
       id="path1054" /><path
       style="fill:none;stroke:#ffffff;stroke-width:5.5"
       d="m -1243.0448,14518.154 c 2.6259,-73.773 -0.4484,-1.472 0,0 5.229,17.165 19.9469,30.372 25.3789,47.475 5.9518,18.738 8.407,64.825 6.6331,87.166 -0.1658,2.089 -0.6445,-4.142 -0.8651,-6.226 -1.3176,-12.446 -1.9939,-24.966 -3.7492,-37.357 -3.1724,-18.765 -6.3448,-37.53 -9.5171,-56.295 -5.9602,-11.588 -14.6628,-22.136 -17.8806,-34.763 -4.8679,-19.102 6.0542,-41.486 -9.8055,-57.073 -10.8257,-10.64 -72.176,58.301 -48.4506,79.643"
       id="path1056" /><path
       style="fill:none;stroke:#ffffff;stroke-width:5.5"
       d="m -1298.1286,14656.686 c 64.2131,17.652 125.6444,-12.311 190.0535,-4.41"
       id="path1058" /><path
       style="fill:none;stroke:#ffffff;stroke-width:5.5"
       d="m 4028.8239,17148.536 c 7.5944,1.124 15.5422,0.822 22.7833,3.372 64.6208,22.76 124.4126,73.299 181.6896,108.699 106.439,65.785 211.7305,130.601 325.8881,182.116 61.9345,27.948 138.5504,46.095 192.3608,87.166"
       id="path1060" /><path
       style="fill:none;stroke:#ffffff;stroke-width:5.5"
       d="m 4937.8497,17485.528 c -2.4995,-11.328 -2.349,-23.59 -7.4983,-33.985 -18.691,-37.732 -99.8482,-38.18 -133.5275,-25.423 -29.6868,11.244 -53.0815,33.051 -67.4849,61.483 -29.4828,58.199 -29.3397,123.959 -13.8433,187.304 12.8723,52.619 58.6243,82.863 108.4374,92.615 27.5508,5.393 56.6028,3.79 84.2118,-1.297 28.5173,-5.256 58.3907,-12.346 81.9044,-29.316 72.3504,-52.213 84.2309,-75.394 57.9679,-149.427 -7.4978,-21.136 -16.9947,-43.139 -33.4539,-58.371 -21.585,-19.976 -50.6641,-29.932 -76.7136,-43.583 -17.0558,-8.939 -33.265,-23.005 -52.488,-24.127 -42.2283,-2.465 -42.2585,5.381 -46.7207,24.645"
       id="path1062" /><path
       style="fill:none;stroke:#ffffff;stroke-width:5.5"
       d="m 4930.6398,17973.504 c -38.8919,-57.731 -5.4674,-102.048 0,0 z"
       id="path1064" /><path
       style="fill:none;stroke:#ffffff;stroke-width:5.5"
       d="m 4933.8122,18018.644 c 3.3792,42.732 32.1304,76.935 45.2784,115.963"
       id="path1066" /><path
       style="fill:none;stroke:#ffffff;stroke-width:5.5"
       d="m 5035.0394,18002.301 c 27.6156,-16.585 84.9836,139.007 49.604,103.51"
       id="path1068" /><path
       style="fill:none;stroke:#ffffff;stroke-width:5.5"
       d="m 5018.6008,17971.948 c -44.0941,-91.123 87.5051,-76.242 94.8822,-4.151 0.9822,9.598 -8.0555,62.055 -32.8771,45.14 -6.2331,-4.248 -9.2287,-11.934 -13.843,-17.9"
       id="path1070" /><path
       style="fill:none;stroke:#ffffff;stroke-width:5.5"
       d="m 5208.9426,17955.604 c -30.0276,-94.435 53.9938,-55.63 45.5665,10.118 -7.339,57.259 -14.3946,75.179 -38.645,117.778 -5.5859,9.812 -14.3082,17.764 -19.0344,28.018 -2.4929,5.409 11.3514,-3.607 17.0153,-5.448 32.4348,-10.539 128.2018,-45.827 151.4084,-17.122"
       id="path1072" /><path
       style="fill:none;stroke:#ffffff;stroke-width:5.5"
       d="m -1405.5443,14220.238 c 4.5182,-10.377 5.9346,-22.763 13.5546,-31.131 35.6538,-39.155 140.9929,-59.637 190.0533,-68.747 69.3788,-12.884 140.9056,-17.317 211.10634,-9.08 57.98193,6.803 111.57969,24.764 166.98157,41.767 49.26868,15.121 99.28814,27.905 148.23573,44.102 109.69451,36.298 217.77047,78.62 329.63713,108.18 54.10086,14.296 110.83694,15.25 166.405,15.825 12.65743,0.131 25.7194,-2.454 38.3568,-0.778 34.80015,4.613 89.339263,54.615 121.703149,45.658"
       id="path1074" /><path
       style="fill:none;stroke:#ffffff;stroke-width:5.5"
       d="m -1041.2996,13542.882 c 45.84738,32.998 44.42728,92.687 74.11795,135.419"
       id="path1076" /><path
       style="fill:none;stroke:#ffffff;stroke-width:5.5"
       d="m -1113.687,13590.097 c 34.8686,-39.998 74.5614,-70.863 121.99167,-93.912 30.94339,-15.037 11.00673,14.029 4.03764,28.796"
       id="path1078" /><path
       style="fill:none;stroke:#ffffff;stroke-width:5.5"
       d="m -1037.8387,13674.41 c 56.90775,-18.367 106.39669,-51.663 158.90647,-79.125"
       id="path1080" /><path
       style="fill:none;stroke:#ffffff;stroke-width:5.5"
       d="m -895.3708,13474.134 c 33.74011,33.722 62.41685,71.869 92.57526,108.699 11.57678,14.138 24.7171,29.517 22.20641,31.131 -16.32791,10.491 -122.268,-112.893 -114.78167,-139.83 17.08772,-61.484 91.90904,-35.81 103.53421,10.377 2.69108,10.692 0.76179,85.665 -32.0119,60.965 -7.39354,-5.573 -12.49723,-13.663 -18.74584,-20.495"
       id="path1082" /><path
       style="fill:none;stroke:#ffffff;stroke-width:5.5"
       d="m -602.64845,13377.369 c 32.45392,45.229 11.80796,13.117 41.81753,72.12 6.12708,12.047 12.88375,23.766 19.0342,35.8 34.6475,67.797 -19.89606,-44 -23.64856,-50.587 -11.27715,-19.795 -18.5261,-44.288 -37.20317,-57.333 -23.50881,-16.42 -59.13033,24.215 -49.60411,40.211 2.75915,4.633 12.32109,2.45 16.43859,9.858"
       id="path1084" /><path
       style="fill:none;stroke:#ffffff;stroke-width:5.5"
       d="m -641.87034,13544.698 c 8.748,3.977 16.72101,13.223 26.24405,11.933 39.35103,-5.329 155.31264,-80.77 178.22905,-69.526"
       id="path1086" /><path
       style="fill:none;stroke:#ffffff;stroke-width:5.5"
       d="m -288.00789,13299.542 c -90.95454,75.872 126.72894,25.188 139.5839,80.94 4.48612,19.456 -23.55376,56.531 -44.12448,56.036 -15.60849,-0.376 -23.05603,-40.806 -23.64875,-42.546"
       id="path1088" /><path
       style="fill:none;stroke:#ffffff;stroke-width:5.5"
       d="m -209.85246,13313.032 c 13.46097,-51.232 37.07456,-33.47 69.79211,-6.745 22.22119,18.151 18.80775,15.904 32.87715,33.984 1.89878,2.44 6.95764,10.118 5.768,7.264 -18.40267,-44.145 -40.81793,-94.427 6.921471,-129.712 4.500774,-3.326 27.813687,-13.998 36.626243,-17.641 3.702527,-1.53 10.775606,-7.306 11.536019,-3.372 4.717309,24.402 -55.561993,66.256 1.73019,103.769 24.419903,15.99 110.589296,-5.243 82.193234,-42.026"
       id="path1090" /><path
       style="fill:none;stroke:#ffffff;stroke-width:5.5"
       d="m -824.42539,13841.997 c 42.72324,26.219 56.43969,70.006 76.13667,113.109 4.78587,10.473 23.41298,38.582 14.41985,31.391 -6.16167,-4.927 -9.07246,-12.914 -13.84295,-19.198"
       id="path1092" /><path
       style="fill:none;stroke:#ffffff;stroke-width:5.5"
       d="m -859.32128,13887.656 c 5.09498,-10.636 6.40732,-24.145 15.28495,-31.909 13.86214,-12.123 131.63199,-59.388 133.81605,-34.503 1.52836,17.414 -17.85612,45.271 -23.93696,56.295"
       id="path1094" /><path
       style="fill:none;stroke:#ffffff;stroke-width:5.5"
       d="m -790.39461,13977.676 c 44.91087,-18.793 85.1962,-56.74 134.10443,-64.596"
       id="path1096" /><path
       style="fill:none;stroke:#ffffff;stroke-width:5.5"
       d="m -585.05625,13910.486 c 23.50809,17.806 -21.72105,-46.049 -44.12462,-74.455 -10.94893,-13.883 -23.45629,-26.461 -35.18442,-39.692 51.97458,-14.517 86.82649,-17.53 91.99853,40.47 1.22941,13.787 -6.10718,29.564 -8.36347,29.315 -5.07022,-0.56 -7.49832,-6.918 -11.24748,-10.377"
       id="path1098" /><path
       style="fill:none;stroke:#ffffff;stroke-width:5.5"
       d="m -534.00998,13747.827 c 18.76825,-5.903 66.92215,-80.655 93.15199,-61.484 28.92663,21.142 9.83271,120.892 2.30727,146.315 -6.38477,21.57 -14.17929,36.224 -24.2253,54.739 -0.90787,1.673 -4.1777,6.325 -2.88402,4.929 18.50012,-19.97 86.4724,-81.52 119.39606,-64.597"
       id="path1100" /><path
       style="fill:none;stroke:#ffffff;stroke-width:5.5"
       d="m -175.53314,13626.935 c 33.44412,3.333 133.73507,106.86 63.44737,125.561 -19.20968,5.111 -69.4818,-18.252 -53.93028,-44.102 16.70103,-27.76 93.499591,-16.698 120.549691,-31.65 10.883953,-6.016 21.339572,-13.149 30.281827,-21.791 7.6030663,-7.348 7.2657225,-33.956 -6.633422,-36.06 -38.061767,-5.763 -60.332381,68.711 -23.936774,85.35 21.339889,9.757 46.05691945,12.064 69.503739,11.156 11.933422,-0.463 26.818986,-17.428 35.184079,-25.943"
       id="path1102" /><path
       style="fill:none;stroke:#ffffff;stroke-width:5.5"
       d="m 46.532308,13595.026 c -9.613212,-2.681 -18.918688,-9.126 -28.839663,-8.042 -15.190205,1.659 -13.8798826,22.489 -5.191283,28.536 9.596172,6.679 21.637492,9.466 33.16552,11.415 18.767345,3.173 111.988838,-10.997 109.302368,22.57 -1.30564,16.314 -55.613463,79.874 -65.177568,65.894 -8.288893,-12.117 -2.387997,-53.618 -2.018903,-59.927"
       id="path1104" /><path
       style="fill:none;stroke:#ffffff;stroke-width:5.5"
       d="m 109.11426,13531.207 c 0.96133,-12.279 1.95953,-24.555 2.88401,-36.838 0.32525,-4.321 -3.08692,-11.193 0.8651,-12.971 15.18487,-6.83 -11.00865,34.825 -3.74911,49.809 8.59596,17.743 33.35861,22.108 45.85499,37.357 21.09996,25.748 40.53294,74.436 37.49169,108.18"
       id="path1106" /><path
       style="fill:none;stroke:#ffffff;stroke-width:5.5"
       d="m 137.37721,13637.053 c -4.71054,-8.994 -13.81533,-16.833 -14.13164,-26.981 -1.33704,-42.893 74.75212,-72.78 107.57183,-80.162"
       id="path1108" /><path
       style="fill:none;stroke:#00ffff;stroke-width:5.5"
       d="m -1805.0547,16081.419 c 2.9378,-8.371 -7.9393,-104.184 17.0155,-71.86"
       id="path1110" /><path
       style="fill:none;stroke:#00ffff;stroke-width:5.5"
       d="m -1386.3028,15380.455 c 7.2099,3.113 15.791,4.087 21.6296,9.34 19.8705,17.874 95.5853,134.009 70.3689,156.692 -23.3826,21.033 -57.4514,-63.178 -44.7015,-102.473 9.5098,-29.31 33.7359,-50.029 59.9864,-63.818 13.8756,-7.289 32.743,-8.938 27.3977,10.896"
       id="path1175" /><path
       style="fill:none;stroke:#00ffff;stroke-width:5.5"
       d="m -1185.2905,15467.362 c -8.9403,-1.643 -19.9881,1.066 -26.8208,-4.929 -17.3466,-15.22 -11.0444,-57.431 15.8617,-59.148 53.1486,-3.393 64.3913,131.271 38.9335,65.115"
       id="path1177" /><path
       style="fill:none;stroke:#00ffff;stroke-width:5.5"
       d="m -1161.3535,15406.917 c 34.3212,11.259 32.4276,58.813 64.8892,71.082 39.7689,15.031 46.9994,-77.352 41.8175,-102.213"
       id="path1179" /><path
       style="fill:none;stroke:#00ffff;stroke-width:5.5"
       d="m -1032.7288,15320.788 c -7.8656,5.834 62.89488,164.741 39.22193,120.632"
       id="path1181" /><path
       style="fill:none;stroke:#00ffff;stroke-width:5.5"
       d="m -1033.5939,15393.945 c 12.4959,0.444 57.81667,2.698 74.11782,1.297 43.63952,-3.749 58.06891,-45.659 27.97458,-49.29 -51.7796,-6.249 11.69483,119.641 55.94883,93.911 16.83715,-9.789 2.18971,-39.491 -2.59547,-58.37 -1.6913,-6.673 -4.78652,-12.913 -6.92163,-19.457 -0.46465,-1.424 -2.02477,-5.358 -0.8651,-4.41 3.07051,2.511 62.78135,91.954 51.0461,91.577 -3.40975,-0.11 -5.50929,-4.307 -7.20984,-7.264 -15.10297,-26.266 -29.72331,-64.505 -9.51711,-92.874 10.1632,-14.269 41.73327,-33.892 53.35337,-10.896"
       id="path1183" /><path
       style="fill:none;stroke:#00ffff;stroke-width:5.5"
       d="m -671.94468,15310.151 c 4.17013,-52.215 -13.93595,-43.875 0,0 7.13433,22.462 21.10621,42.148 32.01207,63.04 6.10627,11.698 10.39096,35.819 23.07167,32.169 3.70612,-1.067 4.03759,-6.572 6.05636,-9.858"
       id="path1185" /><path
       style="fill:none;stroke:#00ffff;stroke-width:5.5"
       d="m -566.96846,15375.526 c -2.11492,8.215 -14.55984,22.531 -6.34474,24.645 8.21508,2.115 12.7081,-19.035 6.34474,-24.645 -12.85378,-11.331 -35.56776,-3.661 -49.60411,-13.49 -9.24526,-6.474 0.84262,-31.254 7.20984,-36.06 30.64875,-23.133 65.84871,18.314 78.73249,40.989 -5.25018,-64.278 56.00306,-44.617 68.06157,-2.335 4.34504,15.236 -13.14826,32.123 -20.76474,15.307"
       id="path1187" /><path
       style="fill:none;stroke:#00ffff;stroke-width:5.5"
       d="m -465.16431,15263.455 c 27.13953,-104.75 39.8957,94.684 47.58552,111.033"
       id="path1189" /><path
       style="fill:none;stroke:#00ffff;stroke-width:5.5"
       d="m -384.99001,15296.661 c -7.78676,9.253 -16.52923,17.78 -23.36035,27.759 -44.61531,65.176 51.44746,35.662 78.73246,16.084 8.16708,-5.86 14.41968,-14.009 21.62953,-21.013"
       id="path1191" /><path
       style="fill:none;stroke:#00ffff;stroke-width:5.5"
       d="m -308.27674,15243.479 c -100.72918,9.206 48.71958,54.411 57.10264,59.408 12.46849,7.434 25.64862,16.651 31.72367,29.834 8.88188,19.275 -54.46853,59.38 -68.06157,64.078 -14.44906,4.994 -21.42824,2.004 -34.03095,-1.038"
       id="path1193" /><path
       style="fill:none;stroke:#00ffff;stroke-width:5.5"
       d="m -1500.2194,15688.651 c -12.0977,18.694 -58.0791,64.408 -44.7015,96.765 22.3867,54.149 137.1304,-87.49 79.309,-93.911 -10.2428,-1.138 -13.1545,23.776 -12.6895,26.72 5.883,37.247 42.7188,84.094 82.4814,59.927"
       id="path1195" /><path
       style="fill:none;stroke:#00ffff;stroke-width:5.5"
       d="m -1381.6885,15687.354 c 33.5418,47.918 -12.8199,-41.057 -2.3073,-35.541 16.1302,8.464 -1.3114,25.466 2.3073,35.541 14.8403,41.315 64.5197,95.669 41.8175,111.552"
       id="path1197" /><path
       style="fill:none;stroke:#00ffff;stroke-width:5.5"
       d="m -1396.6851,15745.206 c 41.4625,0.459 82.8804,0.895 124.2988,-1.298"
       id="path1199" /><path
       style="fill:none;stroke:#00ffff;stroke-width:5.5"
       d="m -944.76771,15666.6 c -11.15135,0.173 -23.43189,-4.374 -33.45405,0.519 -10.92072,5.331 -16.85946,17.62 -23.93694,27.499 -39.9,55.694 76.44048,44.558 103.82272,50.069 2.33952,0.471 43.6205,5.966 32.01205,25.942 -18.04153,31.047 -79.83222,73.944 -99.78526,14.528 -7.71844,-22.984 -2.4994,-48.426 -3.7491,-72.639"
       id="path1201" /><path
       style="fill:none;stroke:#00ffff;stroke-width:5.5"
       d="m -832.29314,15723.154 c 0,7.351 -7.35037,22.052 0,22.052 7.35037,0 5.76815,-17.496 0,-22.052 -21.84796,-17.256 -48.33537,12.491 -37.49152,-29.314 1.6507,-6.364 6.43188,-12.256 12.11257,-15.566 13.50841,-7.869 31.85029,2.301 42.1059,8.821 31.14854,19.8 29.88156,64.342 13.26637,25.942 -3.87751,-8.961 -6.68301,-18.35 -10.09401,-27.499 -1.8764,-5.033 -3.73206,-10.076 -5.76783,-15.047 -0.69097,-1.687 0.72939,3.665 1.73036,5.189 4.03952,6.149 8.09477,12.407 13.26621,17.641 15.20538,15.387 49.92708,44.981 75.84831,32.947 26.24055,-12.183 24.62638,-50.325 8.94037,-69.526 -4.62841,-5.666 -12.49722,-7.61 -18.74583,-11.415 14.74446,-51.509 60.77176,69.23 43.8361,54.739 -43.54903,-37.263 14.34337,-72.967 41.52915,-82.497 32.98892,-11.565 1.51633,-0.573 24.22548,-9.858 1.20023,-0.491 3.95509,-2.318 3.74911,-1.038 -6.61385,41.105 -28.97981,78.311 15.57347,109.218 20.98229,14.555 13.42307,-38.709 19.03421,-45.4 9.05373,-10.795 68.47074,-40.351 66.90778,-49.809 -5.75272,-34.812 -56.22121,0.868 -54.79536,45.918 1.43506,45.341 103.16675,50.598 123.72237,21.013"
       id="path1203" /><path
       style="fill:none;stroke:#00ffff;stroke-width:5.5"
       d="m -356.15032,15643.252 c 46.48205,47.879 178.04574,-96.348 101.80384,-131.269 -26.93192,-12.335 -120.86881,12.735 -101.80384,41.508 19.55766,29.517 198.00858,23.063 203.89604,62.781 2.95603,19.942 -46.89676,29.804 -47.29684,29.833 -33.48545,2.5 -67.0773,-3.538 -100.65035,-4.15 -18.65154,-0.34 -38.81999,8.686 -55.94885,1.297 -12.69243,-5.475 -14.80439,-23.348 -22.20658,-35.022"
       id="path1205" /><path
       style="fill:none;stroke:#00ffff;stroke-width:5.5"
       d="m 0.59614353,15513.021 c 32.11692347,-28.785 140.89099647,111.744 76.71326447,124.005 -18.207831,3.478 -65.857993,-39.197 -44.412852,-56.036 32.675089,-25.656 82.243744,-9.647 119.684584,-24.645 13.73704,-5.503 26.28358,-39.125 0.57674,-35.022 -27.27603,4.353 -75.430827,61.521 -32.01207,80.162 29.65519,12.731 53.88692,-7.976 78.15543,-19.976"
       id="path1207" /><path
       style="fill:none;stroke:#00ffff;stroke-width:5.5"
       d="m 224.96855,15496.158 c -15.60843,-51.693 -55.1973,5.103 -39.51026,6.486 86.57641,7.635 -14.55996,-44.163 103.53437,24.386 5.28257,3.066 11.05995,7.531 12.4011,13.49 5.58297,24.806 -13.73267,49.911 -24.8022,68.229 -12.49595,20.678 -14.28999,7.633 -17.01533,-8.302"
       id="path1209" /><path
       style="fill:none;stroke:#00ffff;stroke-width:5.5"
       d="m 277.1683,15468.919 c 2.11489,-10.118 3.45297,-20.429 6.34473,-30.353 0.36442,-1.25 1.70834,2.357 1.44182,3.632 -1.89825,9.081 -10.98179,18.011 -7.78655,26.721 7.1991,19.624 26.09329,32.886 36.33787,51.106 6.59802,11.735 37.94729,89.726 23.0717,92.874"
       id="path1211" /><path
       style="fill:none;stroke:#00ffff;stroke-width:5.5"
       d="m 275.1494,15536.369 c 10.62241,-0.85 74.49076,-36.871 100.93904,-18.678"
       id="path1213" /><path
       style="fill:none;stroke:#00ffff;stroke-width:5.5"
       d="m -1404.3551,16505.845 c 8.0751,6.399 19.0237,10.304 24.2253,19.197 8.9723,15.341 40.183,126.343 36.3381,148.391 -0.5019,2.878 -3.2686,-4.843 -4.9029,-7.264"
       id="path1215" /><path
       style="fill:none;stroke:#00ffff;stroke-width:5.5"
       d="m -1278.9025,16619.473 c 46.632,1.943 30.1322,45.701 19.3225,35.022 -9.4851,-9.37 -10.3761,-25.136 -19.3225,-35.022 -10.4339,-11.53 -28.7983,-14.866 -37.4917,-27.758 -10.5505,-15.647 20.2071,-29.841 26.2442,-30.613 41.3999,-5.291 77.092,23.03 80.4625,64.078 0.3163,3.852 -3.4627,8.134 -7.2098,9.08 -9.2148,2.327 -15.958,-18.156 -17.0155,-20.235"
       id="path1217" /><path
       style="fill:none;stroke:#00ffff;stroke-width:5.5"
       d="m -1185.4622,16569.145 c 9.3249,4.323 19.8471,6.679 27.9746,12.971 10.0552,7.784 9.5018,45.757 -5.768,27.758 -13.7374,-16.192 -52.3991,-81.629 -15.8618,-98.062 5.3949,-2.427 12.4322,-0.558 17.5922,2.335 45.2123,25.345 39.2916,115.745 30.2817,85.35"
       id="path1219" /><path
       style="fill:none;stroke:#00ffff;stroke-width:5.5"
       d="m -1131.5319,16492.614 c 1.3458,-8.301 12.3391,-23.559 4.0375,-24.904 -8.3016,-1.346 -8.2241,17.611 -4.0375,24.904 13.7322,23.925 38.0442,40.176 54.2185,62.522 20.652,28.532 18.8166,76.821 36.6264,1.297"
       id="path1221" /><path
       style="fill:none;stroke:#00ffff;stroke-width:5.5"
       d="m -1033.7655,16506.364 c -65.3774,108.88 23.8484,97.226 53.06496,7.264"
       id="path1223" /><path
       style="fill:none;stroke:#00ffff;stroke-width:5.5"
       d="m -980.41218,16465.375 c -4.38784,69.843 85.21382,60.035 106.9951,109.218 6.88683,15.55 -21.88409,23.967 -27.10931,24.645 -35.33513,4.586 -67.34149,-19.808 -96.036,-36.06"
       id="path1225" /><path
       style="fill:none;stroke:#00ffff;stroke-width:5.5"
       d="m -663.75289,16480.681 c -31.49647,-1.954 -27.16053,-9.484 -38.93351,27.758 -21.04237,66.566 44.35424,60.96 71.23395,-4.669 3.41469,-8.338 2.25388,-24.722 -6.6331,-26.202 -8.50133,-1.416 -26.86828,-5.421 -25.66734,3.113 2.28632,16.247 21.14511,25.097 31.43533,37.876 13.45642,16.711 24.74336,35.301 39.79863,50.588 11.48215,11.658 26.26759,17.154 40.66405,23.348"
       id="path1227" /><path
       style="fill:none;stroke:#00ffff;stroke-width:5.5"
       d="m -520.13118,16438.395 c -0.0243,-34.773 -6.85602,-36.035 0,0 5.01073,26.336 11.5543,52.366 18.16878,78.346 3.09962,12.174 9.17334,23.625 10.95925,36.06 0.87358,6.082 -2.11489,12.106 -3.17235,18.16"
       id="path1229" /><path
       style="fill:none;stroke:#00ffff;stroke-width:5.5"
       d="m -543.20319,16519.076 c 29.59568,-34.401 77.29897,-49.451 121.70346,-46.697"
       id="path1231" /><path
       style="fill:none;stroke:#00ffff;stroke-width:5.5"
       d="m -233.75357,16386.251 c -13.91433,-76.205 -0.61629,-0.382 0,0 16.12813,9.978 39.12532,-1.059 56.52556,6.485 31.23197,13.542 58.44214,91.632 19.61094,112.59 -54.4812,29.405 -104.95206,-125.578 1.73054,-87.944"
       id="path1233" /><path
       style="fill:none;stroke:#00ffff;stroke-width:5.5"
       d="m -111.47336,16404.67 c 48.894598,-15.08 12.461394,-4.704 48.738996,-13.49 25.511152,-6.179 34.073624,-7.568 56.5255566,-16.604 37.7789274,-15.203 -21.1285926,-32.225 -36.6262436,-31.909 -51.767951,1.059 -49.332091,64.851 -17.015328,91.577 20.477109,16.935 76.604997,26.551 92.863484,-4.151 8.854519,-16.72 8.651875,-36.838 12.977839,-55.257"
       id="path1235" /><path
       style="fill:none;stroke:#00ffff;stroke-width:5.5"
       d="m 48.29819,16306.867 c -11.343534,7.091 -24.627814,11.757 -34.030602,21.273 -6.2057496,6.28 10.506656,16.13 19.03386,18.419 23.168054,6.217 94.602852,7.799 95.747812,44.88 0.58902,19.077 -35.42993,75.509 -51.046273,41.508 -6.60281,-14.376 -7.305966,-30.785 -10.958936,-46.178"
       id="path1237" /><path
       style="fill:none;stroke:#00ffff;stroke-width:5.5"
       d="m 103.67029,16292.858 c 4.42209,-10.031 8.84415,-20.062 13.26621,-30.093 0.3846,-0.09 1.31281,-0.62 1.1538,-0.26 -4.51837,10.25 -15.39468,19.194 -14.42001,30.353 1.36642,15.643 15.63921,27.443 20.76474,42.286 3.61757,10.476 29.56793,111.977 21.9179,116.741"
       id="path1239" /><path
       style="fill:none;stroke:#00ffff;stroke-width:5.5"
       d="m 78.002987,16383.656 c -2.42959,-29.305 146.383983,-35.944 134.104593,-6.485"
       id="path1241" /><path
       style="fill:none;stroke:#00ffff;stroke-width:5.5"
       d="m -1345.2337,17127.944 c 0.206,-0.543 17.1086,-23.809 3.1723,-25.942 -58.568,-8.968 -100.5018,195.85 -27.1093,233.481 18.0398,9.25 38.8564,13.697 59.1212,14.269 20.5642,0.58 63.0041,-23.5 59.6981,-48.772"
       id="path1243" /><path
       style="fill:none;stroke:#00ffff;stroke-width:5.5"
       d="m -1108.1719,17279.966 c -77.2175,42.247 -60.7169,-120.548 1.442,-98.84 20.6968,7.228 34.2941,23.552 38.6452,44.621 5.9258,28.693 1.2812,49.756 -9.5171,76.271 -0.3334,0.818 -13.982,31.279 -24.2253,12.192 -5.4896,-10.228 -4.2298,-22.829 -6.3448,-34.244 z"
       id="path1245" /><path
       style="fill:none;stroke:#00ffff;stroke-width:5.5"
       d="m -1102.4039,17151.033 c 9.6132,-2.162 20.5189,-11.764 28.8396,-6.486 14.421,9.147 39.0413,104.002 44.1248,122.967 2.0914,7.803 3.6231,15.746 5.4794,23.608 0.4509,1.91 1.6701,7.656 1.442,5.707 -6.1029,-52.152 -25.7775,-133.967 -4.9027,-126.599 22.9074,8.086 36.44153,43.77 43.54789,64.337 2.63128,7.616 9.30003,30.539 5.1911,23.608 -3.8806,-6.546 -11.6686,-85.076 1.73037,-86.129 28.61953,-2.249 41.19369,46.844 45.56663,64.856 4.4588,18.366 6.41242,18.06 -1.442,14.528"
       id="path1247" /><path
       style="fill:none;stroke:#00ffff;stroke-width:5.5"
       d="m -912.06223,17254.543 c 11.53584,12.625 21.35516,27.066 34.60752,37.876 2.61767,2.135 0.31776,-6.86 -0.57674,-10.118 -6.43233,-23.424 -23.81668,-80.665 -38.64515,-102.213 -5.6344,-8.187 -15.76561,-12.106 -23.64842,-18.159 -3.46079,-13.49 -10.30999,-26.544 -10.38237,-40.471 -0.22352,-43.009 52.59761,6.743 55.08374,10.377 17.39947,25.434 33.00217,143.516 10.38237,81.2"
       id="path1249" /><path
       style="fill:none;stroke:#00ffff;stroke-width:5.5"
       d="m -889.56729,17145.326 c 18.73709,14.357 30.22675,84.692 62.87048,76.011 44.77535,-11.908 24.66706,-74.228 16.15021,-101.954"
       id="path1251" /><path
       style="fill:none;stroke:#00ffff;stroke-width:5.5"
       d="m -815.73771,17071.649 c 17.54601,55.849 11.14427,40.359 34.31917,94.43 5.66991,13.229 12.31775,26.041 17.59204,39.433 0.72972,1.852 2.27674,6.075 0.28837,5.967 -3.91301,-0.214 -6.53699,-4.324 -9.80549,-6.486"
       id="path1253" /><path
       style="fill:none;stroke:#00ffff;stroke-width:5.5"
       d="m -813.14224,17174.121 c 16.5347,-5.534 32.76697,-12.071 49.60411,-16.603 26.87767,-7.234 58.40034,1.307 72.96446,-29.574 0.10033,-0.212 8.55133,-38.804 -6.63311,-31.649 -52.47507,24.725 -28.43286,111.004 25.95571,86.906 12.03563,-5.332 20.57215,-16.43 30.85825,-24.645"
       id="path1255" /><path
       style="fill:none;stroke:#00ffff;stroke-width:5.5"
       d="m -651.35176,17084.101 c 18.91578,32.484 5.91775,17.556 44.41314,42.805 12.46585,8.177 26.09805,14.771 37.49138,24.386 61.92197,52.256 -66.51053,118.515 -98.34311,55.517"
       id="path1257" /><path
       style="fill:none;stroke:#00ffff;stroke-width:5.5"
       d="m -342.19085,17150.773 c 5.60213,22.81 5.97715,33.955 24.51386,53.701 23.76172,25.312 58.26956,-49.835 54.79536,-66.931 -9.44311,-46.47 -91.22841,-31.904 -109.8791,-46.697 -21.84884,-17.329 31.17464,-78.74 55.66048,-65.634 17.01542,-3.113 34.2502,-13.476 51.04626,-9.339 40.85759,10.061 57.39101,137.285 57.39101,177.705 0,6.67 -1.76148,-13.333 -1.1538,-19.975 0.75005,-8.198 7.53687,-63.089 18.45747,-73.158 27.96926,-25.788 42.61264,35.337 44.1248,46.178 0.19224,12.798 0.38449,25.596 0.57673,38.394 -0.48072,0.779 -0.96144,1.557 -1.44216,2.335 -5.19105,-15.565 -12.91546,-30.505 -15.57315,-46.696 -4.90247,-29.867 16.48268,-55.46 40.37536,-27.24 12.51563,14.783 38.051488,94.791 6.63311,45.14"
       id="path1259" /><path
       style="fill:none;stroke:#00ffff;stroke-width:5.5"
       d="m -115.79954,17063.348 c 37.913521,6.727 63.056002,28.812 72.676119,66.671 1.831552,7.208 -0.486119,23.492 -7.498212,21.014 -32.709326,-11.56 -12.516591,-67.822 0.576739,-84.573 4.077494,-5.216 19.732122,-14.177 25.378939,-17.64"
       id="path1261" /><path
       style="fill:none;stroke:#00ffff;stroke-width:5.5"
       d="m -18.032851,17005.496 c 13.3288877,21.482 69.830711,132.376 49.604109,150.985 -2.765108,2.544 -7.11372,-2.422 -10.670566,-3.632"
       id="path1263" /><path
       style="fill:none;stroke:#00ffff;stroke-width:5.5"
       d="m -10.24627,17105.374 c 69.492706,-25.851 11.8335162,-8.982 59.986306,-15.047 21.561981,-2.715 44.517204,-11.448 59.409914,-28.017 2.48279,-2.763 13.92359,-28.228 -0.86511,-20.754 -32.037417,16.19 -64.341983,107.49 -9.228746,101.953 12.948836,-1.3 24.609746,-8.474 36.914636,-12.711"
       id="path1265" /><path
       style="fill:none;stroke:#00ffff;stroke-width:5.5"
       d="m 144.046,17038.443 c -9.13262,3.113 -25.27374,-0.07 -27.39787,9.339 -8.13207,36.033 101.26324,29.998 102.38092,91.836 0.34197,18.921 -34.31775,69.532 -51.62301,19.716"
       id="path1267" /><path
       style="fill:none;stroke:#00ffff;stroke-width:5.5"
       d="m 191.63118,17031.698 c 30.44904,-65.766 67.76942,28.001 66.61976,56.814 -0.80648,20.211 -7.52224,23.892 -19.03421,36.319 26.11811,-51.594 35.97263,-40.384 70.94558,-62.521"
       id="path1269" /><path
       style="fill:none;stroke:#00ffff;stroke-width:5.5"
       d="m 492.71717,16945.31 c 8.93183,62.447 29.44471,122.244 40.66408,184.191 0.91326,5.042 5.25179,18.733 1.44182,15.306 -3.39445,-3.054 -5.96025,-6.918 -8.94035,-10.377"
       id="path1271" /><path
       style="fill:none;stroke:#00ffff;stroke-width:5.5"
       d="m 475.12513,16992.265 c -15.29903,-39.85 3.96801,-93.429 52.19972,-59.149 8.65315,6.151 17.70428,13.216 22.20659,22.83 12.54442,26.787 13.23303,60.859 -13.26621,79.124 -8.1462,5.615 -18.61338,6.694 -15.57348,-4.929"
       id="path1273" /><path
       style="fill:none;stroke:#00ffff;stroke-width:5.5"
       d="m 600.00066,16986.817 c -4.65336,37.371 6.04911,107.151 60.27499,70.304 10.20802,-6.936 23.62419,-62.142 6.05636,-66.931 -12.18059,-3.321 21.64377,119.156 32.58879,82.237"
       id="path1275" /><path
       style="fill:none;stroke:#00ffff;stroke-width:5.5"
       d="m 700.07427,16966.323 c 5.10035,-70.982 -2.83056,-8.57 0,0 1.0622,3.216 71.3876,112.428 26.53242,108.18 -53.92153,-74.205 -30.65017,-55.512 27.39787,-97.284 5.28221,-3.802 14.60122,-10.479 16.43858,-18.16 2.50379,-10.467 -2.0189,-19.324 -2.0189,-29.315 0,-17.495 11.67332,32.986 17.30401,49.55 10.14629,29.847 13.07459,35.614 19.89931,64.078 13.14871,54.839 -10.01295,-85.105 45.27827,-48.772 20.81941,13.681 37.43495,88.995 27.97425,73.676"
       id="path1277" /><path
       style="fill:none;stroke:#00ffff;stroke-width:5.5"
       d="m 1090.8715,14590.327 c 10.7668,-3.459 21.7693,-6.256 32.3004,-10.377 35.2107,-13.779 67.1546,-37.704 101.5156,-53.701 98.6723,-45.937 201.4622,-94.412 305.412,-126.859 72.7419,-22.705 149.4531,-35.56 223.7957,-51.106 257.007,-53.745 534.6652,-81.619 795.1091,-34.763 100.9513,18.162 207.7562,44.21 301.9513,85.61 76.4923,33.619 149.2657,74.469 226.3912,106.623 56.8756,23.712 115.1403,44.283 171.8845,68.229 70.9244,29.931 138.2114,66.11 209.9527,94.69 61.6018,24.54 123.649,41.497 184.2854,69.785 37.1303,17.321 70.0723,44.472 106.1297,64.077 31.1676,16.947 64.1067,30.547 94.8825,48.253 45.2662,26.044 85.7014,63.61 122.2803,100.397 49.0543,49.334 80.4019,120.241 111.0324,182.116 8.5241,17.219 21.8057,33.626 27.9744,51.885 9.4282,27.906 5.4102,60.323 12.401,89.501 4.5948,19.177 10.485,38.175 17.5925,56.555 0.7397,1.912 11.8178,21.808 10.959,24.126 -0.6247,1.686 -7.743,13.079 -3.1724,6.226"
       id="path1279" /><path
       style="fill:none;stroke:#00ffff;stroke-width:5.5"
       d="m 4175.1869,15306.074 c 14.3934,29.418 13.9184,64.786 32.5888,92.355 11.2876,16.667 30.1765,26.021 43.8364,40.47 50.5846,53.503 113.4663,127.798 148.5244,191.455 52.1607,94.711 102.2395,197.102 130.6435,301.71 22.3404,82.276 35.3531,166.564 47.0088,250.863 19.7837,143.084 21.4643,234.653 -17.8808,380.056 -27.1264,100.249 -98.3324,185.68 -164.0975,262.797 -5.5787,6.541 -119.5168,143.721 -133.2394,143.721 -25.2756,0 -8.3582,-75.46 -7.2099,-80.162 10.6096,-43.446 30.2109,-79.133 49.6046,-120.114 12.2225,-25.827 31.8329,-58.524 18.1687,-42.805 -51.5988,59.361 -138.1165,177.124 -151.6967,250.864 -4.2252,22.942 47.2609,0.857 69.7923,-5.189 51.6242,-13.852 101.7304,-34.61 154.2918,-44.88 10.7891,-2.109 30.0958,-8.042 32.8776,2.594 2.0759,7.937 -2.5839,15.797 -5.4798,22.57"
       id="path1281" /><path
       style="fill:none;stroke:#00ffff;stroke-width:5.5"
       d="m 4829.6269,15436.183 c 29.6725,84.761 -70.1932,155.53 -68.9269,232.963 1.0756,65.768 182.5279,-1.392 91.4218,121.929 -9.1908,12.441 -44.9286,41.2 -63.7358,45.399 -26.7451,5.972 -2.7167,-41.987 11.5359,-63.299 6.9019,-10.321 15.3821,-19.539 23.9368,-28.537 30.996,-32.601 72.1199,-55.749 95.1712,-95.468 4.3886,-7.562 12.9159,-31.859 -1.1539,-36.579 -45.9483,-15.412 -77.925,174.182 25.0907,104.548 31.6455,-21.391 32.0458,-56.998 29.4164,-91.058 -0.5257,-6.807 -2.395,-13.452 -3.1723,-20.235 -0.1876,-1.635 -0.2562,-6.482 0.2884,-4.929 3.9806,11.36 31.1917,154.854 49.0275,98.841 4.4281,-13.907 28.625,-161.636 49.6041,-149.688 38.3257,21.826 73.3242,86.801 61.1402,131.528 -6.2807,23.056 -16.9844,44.967 -29.4164,65.375 -12.7058,20.857 -29.8249,20.803 -30.8586,17.641 -15.2368,-46.601 61.8432,-157.68 74.118,-177.965 7.8893,-13.038 36.2257,-49.502 49.8925,-65.894 1.3186,-1.582 5.1805,-6.284 4.3259,-4.41 -17.2278,37.776 -57.7969,65.488 -66.0429,108.18 -1.3044,6.753 10.4299,9.689 17.0156,11.674 21.7659,6.56 172.1839,4.984 149.9661,58.63 -15.326,37.005 -112.6606,163.674 -115.9354,44.361"
       id="path1283" /><path
       style="fill:none;stroke:#00ffff;stroke-width:5.5"
       d="m 5434.3943,15537.877 c -12.3047,-10.29 -22.9195,-23.033 -36.9144,-30.871 -8.9514,-5.014 -15.1556,15.99 -16.1504,26.201 -6.6236,67.993 59.0507,105.742 68.35,153.839 2.1821,11.285 -9.4115,9.64 -16.1501,11.155 m 0,0 c -15.5464,-27.311 -44.6917,-46.193 -3.1724,-63.818 27.8714,-11.832 76.9452,17.632 92.2867,26.202 11.214,6.264 12.5798,40.613 -4.6142,33.984 -50.6328,-19.52 -1.4485,-174.488 41.8176,-140.348 45.6209,35.998 7.362,108.072 -22.495,138.792 -30.8495,31.74 -41.2677,-19.072 -45.855,-41.768"
       id="path1285" /><path
       style="fill:none;stroke:#00ffff;stroke-width:5.5"
       d="m 5107.9294,16110.167 c -13.236,-7.111 -9.0765,-26.572 -18.7457,-36.06 -2.6025,-2.554 1.7788,7.141 3.4607,10.377 4.5951,8.839 11.76,16.365 15.285,25.683 7.5134,19.86 10.7966,41.107 17.5924,61.224 2.4006,7.106 56.8383,137.531 38.3564,140.089 -4.981,0.689 -6.1521,-7.956 -9.2284,-11.934"
       id="path1287" /><path
       style="fill:none;stroke:#00ffff;stroke-width:5.5"
       d="m 5101.0079,16182.286 c -12.5783,-24.344 -69.0197,-166.653 -29.7048,-188.082 80.9194,-44.106 89.8822,78.881 75.5598,120.892 -10.0786,29.563 -17.6642,33.162 -20.7643,7.264"
       id="path1289" /><path
       style="fill:none;stroke:#00ffff;stroke-width:5.5"
       d="m 5229.9214,16111.464 c 11.3435,8.215 33.1213,10.669 34.0304,24.645 0.8475,13.029 -17.921,22.363 -30.8581,24.127 -38.2312,5.21 -45.4353,-68.401 -40.0872,-88.205 18.1541,-67.226 103.7285,4.438 80.1743,32.688 -5.5312,6.634 -31.0074,-61.109 -18.169,-65.116 26.9775,-8.419 59.5612,40.887 68.0617,57.592 10.4963,20.629 5.3822,45.093 0.2884,39.433 -28.825,-32.03 -0.09,-132.867 14.4195,-167.847 4.3241,-10.424 10.242,-20.119 14.9969,-30.353 1.2504,-2.692 3.3782,-10.596 4.3259,-7.783 7.5967,22.551 11.098,46.08 19.0341,69.007 11.5031,33.232 40.7006,83.959 26.5324,120.373 -14.9005,-17.036 -34.6461,-30.831 -44.7014,-51.107 -12.9004,-26.013 113.726,-71.774 135.8347,-69.785"
       id="path1291" /><path
       style="fill:none;stroke:#00ffff;stroke-width:5.5"
       d="m 5515.1454,15896.142 c 7.8827,-12.712 13.9689,-26.732 23.6484,-38.136 33.903,-39.941 56.7918,10.324 53.0651,42.027 -1.9923,16.949 -8.0359,33.243 -13.8432,49.291 -9.8962,32.936 -30.6004,61.303 -42.3942,93.392 -2.3847,6.489 -9.6549,18.094 -3.1724,20.495 32.5239,12.047 100.4105,-19.769 131.5091,-28.018 7.5123,-1.993 29.3804,-7.912 23.0716,-3.373"
       id="path1293" /><path
       style="fill:none;stroke:#00ffff;stroke-width:5.5"
       d="m 4633.9678,17042.906 c 6.2484,9.858 10.4582,21.356 18.7457,29.574 8.092,8.025 19.684,11.522 29.128,17.9 21.427,14.471 43.2562,28.471 63.4474,44.621 32.6302,26.1 60.4297,57.794 92.2869,84.832 50.6828,43.015 104.0511,76.622 162.6555,107.661 12.8553,6.809 26.0162,13.026 38.9334,19.716 12.4627,6.455 24.8182,13.114 37.2034,19.716 77.9716,41.564 -71.9056,-6.587 -53.0651,-55.776 15.9694,-41.694 106.013,-3.941 111.0329,28.537 7.0342,45.51 -140.6803,44.906 -162.3671,44.102 -12.9979,-0.482 -37.3139,-10.311 -38.9337,2.594 -1.1967,9.535 5.7679,18.333 8.6516,27.499"
       id="path1295" /></g></svg>
