<?xml version="1.0" encoding="UTF-8" standalone="no"?>
<!-- Created with Inkscape (http://www.inkscape.org/) -->

<svg
   width="319.80972mm"
   height="437.88681mm"
   viewBox="0 0 319.80971 437.88682"
   version="1.1"
   id="svg12"
   inkscape:version="1.2.1 (9c6d41e410, 2022-07-14, custom)"
   sodipodi:docname="example_iterated_integral.svg"
   xml:space="preserve"
   xmlns:inkscape="http://www.inkscape.org/namespaces/inkscape"
   xmlns:sodipodi="http://sodipodi.sourceforge.net/DTD/sodipodi-0.dtd"
   xmlns="http://www.w3.org/2000/svg"
   xmlns:svg="http://www.w3.org/2000/svg"><sodipodi:namedview
     id="namedview14"
     pagecolor="#000000"
     bordercolor="#ffffff"
     borderopacity="1"
     inkscape:showpageshadow="0"
     inkscape:pageopacity="0"
     inkscape:pagecheckerboard="0"
     inkscape:deskcolor="#000000"
     inkscape:document-units="mm"
     showgrid="true"
     inkscape:zoom="0.32391637"
     inkscape:cx="1200.9273"
     inkscape:cy="898.38004"
     inkscape:window-width="1366"
     inkscape:window-height="746"
     inkscape:window-x="0"
     inkscape:window-y="0"
     inkscape:window-maximized="1"
     inkscape:current-layer="layer1"
     inkscape:lockguides="true"><inkscape:grid
       type="xygrid"
       id="grid344"
       color="#969696"
       opacity="0.39215686"
       empcolor="#ffffff"
       empopacity="0.17254902"
       dotted="false"
       originx="-3752.7167"
       originy="-3847.0063" /></sodipodi:namedview><defs
     id="defs9" /><g
     inkscape:label="Layer 1"
     inkscape:groupmode="layer"
     id="layer1"
     transform="translate(-3857.7167,-3995.5062)"><path
       style="fill:none;stroke:#ffffff;stroke-width:3"
       d="m 3983.4211,3995.5793 c 0.8327,17.0655 13.8644,30.1682 17.1754,46.6658 3.34,16.6429 0.1369,31.8844 -4.217,48.0885 -0.9153,3.4062 -5.9662,18.296 -9.8835,19.6384 -0.6366,0.2181 -0.5857,-1.2118 -0.8786,-1.8177"
       id="path1284" /><path
       style="fill:none;stroke:#ffffff;stroke-width:3"
       d="m 4017.9914,4011.8985 c -9.8025,25.0932 11.7986,33.9531 16.0333,58.1644 2.8681,16.3977 -7.4068,33.9274 -16.6482,46.3103"
       id="path1286" /><path
       style="fill:none;stroke:#ffffff;stroke-width:3"
       d="m 4004.9013,4137.0389 c -0.3222,10.3418 0.4377,20.8096 1.5813,31.0975 0.6358,5.7187 0.8849,6.2541 2.0207,11.4985 0.074,0.3423 0.3212,1.3625 0.2196,1.0274 -0.2771,-0.9139 -0.4978,-1.844 -0.7467,-2.766"
       id="path1288" /><path
       style="fill:none;stroke:#ffffff;stroke-width:3"
       d="m 4003.4517,4131.2304 c 2.9834,-3.4288 8.1461,-6.0938 11.1574,-0.3951 3.2328,6.1178 -0.9475,14.2576 -3.6898,19.5989 -0.9098,1.772 -2.6781,3.1547 -3.1189,5.0972 -0.3013,1.3283 2.7283,-0.038 4.0852,0.079 2.3464,0.2031 4.7441,0.3404 6.9844,1.0668 8.2271,2.668 12.2923,8.8943 15.6818,16.5169"
       id="path1290" /><path
       style="fill:none;stroke:#ffffff;stroke-width:3"
       d="m 4096.1372,4037.8986 c -0.1611,-1.1854 0.7022,-3.7173 -0.4832,-3.5562 -1.1854,0.1611 0.7549,2.3912 0.4832,3.5562 -4.5164,12.4782 -2.912,6.7555 -5.403,17.6627 -0.1541,0.6747 -1.0065,11.0624 -2.987,6.7569"
       id="path1292" /><path
       style="fill:none;stroke:#ffffff;stroke-width:3"
       d="m 4078.5665,4045.2482 c 7.9869,-1.5996 12.4364,-0.7821 15.1987,7.073"
       id="path1294" /><path
       style="fill:none;stroke:#ffffff;stroke-width:3"
       d="m 4123.5915,4037.543 c 1.4495,-0.3161 2.9879,-1.5395 4.3487,-0.9483 7.1264,3.0958 10.4624,16.2953 6.1058,22.5229 -5.0064,7.1567 -10.5675,-1.2339 -6.2815,-7.3496"
       id="path1296" /><path
       style="fill:none;stroke:#ffffff;stroke-width:3"
       d="m 4150.2111,4060.7376 c 0.8639,1.6069 0.9848,5.6846 2.5917,4.8207 1.6069,-0.8638 -2.6864,-2.9987 -2.5917,-4.8207 0.2318,-4.4574 2.8506,-8.5071 3.5141,-12.921 0.2408,-1.6013 -0.1316,-24.1315 -0.1318,-24.143 -0.1061,-6.5656 0.8081,-15.8492 -1.142,-22.4043 -0.059,-0.1973 -0.4063,0.2686 -0.3954,0.4741 0.1825,3.448 0.281,6.9291 0.9664,10.3132 1.9358,9.5581 7.031,18.8204 11.7724,27.225 2.4476,4.3387 7.456,10.3939 7.8189,15.7266"
       id="path1298" /><path
       style="fill:none;stroke:#ffffff;stroke-width:3"
       d="m 4154.2084,4043.8257 c 0.1025,-1.1196 -0.3752,-2.4654 0.3075,-3.3587 2.3482,-3.0724 9.2333,-2.7727 12.607,-2.845"
       id="path1300" /><path
       style="fill:none;stroke:#ffffff;stroke-width:3"
       d="m 4018.6386,4393.5316 c 3.5288,-1.4884 6.9729,-3.1959 10.5863,-4.4651 8.983,-3.155 24.8053,-3.0626 34.0872,-1.7781 4.319,0.5977 8.2297,2.087 12.6509,1.7386 1.3965,-0.1101 6.9321,-0.5462 7.7311,-2.0942 1.3059,-2.5302 -1.5942,-12.247 -2.0645,-15.3314 -0.9717,-6.3718 -1.3044,-12.8268 -1.845,-19.2433 -1.1526,-13.6813 -0.5251,-9.1938 -1.757,-17.4256 -0.1171,-0.7822 -0.1174,-4.5562 -0.8346,-5.1368 -0.1907,-0.1544 -3.8878,5.9066 -4.3048,6.5988 -3.0587,5.0765 -6.1774,10.1406 -9.8397,14.8177 -5.4777,6.9957 -11.8907,11.972 -18.4053,17.8998 -5.748,5.2303 -10.3387,12.0554 -15.4183,17.8998 -1.1178,1.2861 -1.9315,2.9393 -3.3823,3.8328 -2.1823,1.344 -5.5244,0.7512 -7.204,2.687 -1.5598,1.7977 -0.4759,4.776 -1.23,7.0335 -0.3531,1.0571 -2.8833,3.622 -2.1963,0.3556"
       id="path1308" /><path
       style="fill:none;stroke:#ffffff;stroke-width:3"
       d="m 4077.7201,4329.4796 c -4.1217,-2.6543 -2.5392,-2.3697 -6.1058,-2.845 -12.3875,-1.6508 -26.7865,-3.0948 -38.436,-7.073 -3.3201,-1.1338 -5.7715,-3.0585 -8.8293,-4.6231 -5.65,-2.891 -14.7907,-7.1489 -20.5577,-9.1277 -5.269,-1.808 -10.7875,-1.8374 -16.2529,-2.6475 -7.346,-1.0888 -14.3251,-4.489 -21.3923,-6.5197 -0.929,-0.267 -6.4617,-2.5016 -6.3255,-0.9089 -0.029,3.2402 0.1848,6.4917 -0.088,9.7205 -0.1589,1.8825 -1.2274,3.5738 -1.801,5.3738 -2.0457,6.4203 -3.8692,12.9568 -6.4133,19.2038 -1.1561,2.8389 -2.3381,5.5924 -3.6459,8.3374 -0.2015,0.423 -1.4993,3.9773 -1.0542,1.9757 12.7016,8.6314 21.2417,22.1277 33.1648,31.6111 5.4815,4.3599 11.558,7.5911 17.3071,11.4985 4.4741,3.0408 7.7412,7.1845 12.6509,9.6019 2.4984,1.2302 7.481,6.2882 8.434,5.9666 1.083,-0.3653 -4.4884,-5.1137 -4.9198,-5.4529 -6.1181,-4.8107 -11.6655,-6.2707 -19.0203,-9.2858 -9.0541,-3.7117 -14.9867,-10.5652 -22.9298,-15.924 -8.2248,-5.549 -17.1359,-9.3106 -25.3457,-15.0153 -3.9433,-2.7401 -7.5705,-6.6454 -10.9817,-9.8785 -1.6983,-1.6096 -3.443,-3.1697 -5.1395,-4.7812 -0.1351,-0.1283 -0.4804,-0.569 -0.3514,-0.4346 0.4069,0.4238 0.7907,0.8693 1.186,1.3039"
       id="path1310" /><path
       style="fill:none;stroke:#ffffff;stroke-width:3"
       d="m 3958.0196,4343.3885 c -6.2911,-3.384 -11.7435,-8.1581 -17.9661,-11.6566 -0.7962,-0.4477 1.0855,1.4706 1.6693,2.1732 4.7604,5.7302 5.1313,6.3865 10.8499,12.2889 10.2692,10.5992 21.2014,20.4534 32.4179,30.0305 6.8069,5.812 13.7245,12.4863 21.2606,17.3466"
       id="path1312" /><path
       style="fill:none;stroke:#ffffff;stroke-width:3"
       d="m 4013.3673,4391.3979 c 14.6791,-2.2312 30.1986,-6.086 45.1568,-5.8086"
       id="path1314" /><path
       style="fill:none;stroke:#ffffff;stroke-width:3"
       d="m 4122.3497,4373.8537 c -0.6341,-6.4065 -0.6862,-5.0002 -0.571,-11.3405 0.3551,-19.5482 1.6295,-39.1056 2.4599,-58.6386 0.6677,-15.7067 0.7942,-31.4381 1.5813,-47.14 0.1005,-2.0038 2.3061,-22.5894 1.9767,-23.0762 -0.7136,-1.0545 -3.1939,1.4628 -5.974,4.5046 -6.021,6.5879 -11.3682,13.5296 -18.7568,18.7296 -0.6741,0.4745 -2.0083,1.7252 -2.2841,0.9483 -0.4464,-1.2569 0.704,-2.5873 1.2738,-3.7933 1.0729,-2.2709 15.147,-24.3774 16.7361,-24.1825 0.5396,0.066 1.4623,5.1944 2.0207,6.5988 4.4042,11.0783 13.0987,17.7168 17.3071,29.5959"
       id="path1316" /><path
       style="fill:none;stroke:#ffffff;stroke-width:3"
       d="m 4160.4782,4301.3062 c 19.3787,-4.3677 3.7799,19.7844 4.6122,27.5016 0.5155,4.779 10.1685,2.3982 8.0826,-1.1458"
       id="path1318" /><path
       style="fill:none;stroke:#ffffff;stroke-width:3"
       d="m 4162.8502,4322.7622 c 3.7441,-3.0519 9.1978,-5.9314 14.0126,-3.5562"
       id="path1320" /><path
       style="fill:none;stroke:#ffffff;stroke-width:3"
       d="m 4121.3833,4374.5649 c -2.3872,1.5903 -4.5036,2.5218 -7.2918,2.9241 -12.1697,1.7557 -24.3692,3.2037 -36.5032,5.3343 -10.0842,1.7707 -19.9029,4.8671 -29.9141,6.994 -9.505,2.0193 -19.2465,2.9441 -28.7721,4.9392 -27.6321,5.7875 -55.1895,12.7404 -83.1095,17.0305 -10.2507,1.5751 -20.522,2.6218 -30.7487,4.4256 -2.2075,0.3893 -4.4064,0.8479 -6.633,1.1064 -0.6517,0.076 -2.2117,0.018 -1.8888,-0.5532 2.1083,-3.7298 8.1724,-6.9437 11.2452,-9.5624 1.5575,-1.3272 3.0991,-2.6809 4.5245,-4.149 0.4605,-0.4742 7.9181,-7.6106 7.3797,-9.9574 -0.6691,-2.9167 -6.2598,0.7797 -8.5657,2.6869 -3.2758,2.7095 -14.6004,15.1938 -13.2659,20.1521 2.261,8.4008 33.6753,4.456 30.6609,17.1094"
       id="path1322" /><path
       style="fill:none;stroke:#ffffff;stroke-width:3"
       d="m 3874.8223,4393.2155 c -2.2212,8.011 -4.784,15.9311 -6.8526,23.9849 -0.3693,1.4376 -0.686,2.889 -0.9664,4.3465 -0.1231,0.6397 -0.1008,2.5669 -0.2636,1.9362 -0.1991,-0.7715 -0.3514,-1.5542 -0.5271,-2.3313"
       id="path1324" /><path
       style="fill:none;stroke:#ffffff;stroke-width:3"
       d="m 3858.2619,4404.2003 c 4.128,1.6106 6.971,4.1284 10.0592,7.073"
       id="path1326" /><path
       style="fill:none;stroke:#ffffff;stroke-width:3"
       d="m 4123.6236,4366.4251 c -7.6912,-5.8788 -15.6961,-11.3855 -24.3794,-15.7661 -0.6185,-0.312 -8.2139,-3.2048 -8.1265,-4.1489 0.098,-1.0594 10.58,-4.5538 10.235,-6.2827 -0.6642,-3.3287 -12.1298,-0.4508 -12.0359,2.5684 0.1224,3.9375 3.9878,7.4419 5.6665,10.6687 0.8072,1.5515 1.3037,3.2459 1.9767,4.8602"
       id="path1328" /><path
       style="fill:none;stroke:#ffffff;stroke-width:3"
       d="m 4146.3776,4344.9295 c -0.1757,-1.3962 0.8691,-4.3642 -0.5271,-4.1885 -1.3961,0.1757 0.8165,2.8114 0.5271,4.1885 -0.6412,3.0517 -2.2361,5.8234 -3.2505,8.7721 -2.2416,6.5158 -1.4246,10.3976 -6.1058,1.9757"
       id="path1330" /><path
       style="fill:none;stroke:#ffffff;stroke-width:3"
       d="m 4129.7294,4338.1726 c 5.9187,9.5355 22.4669,17.7513 28.0253,26.7509"
       id="path1332" /></g></svg>
