<?xml version="1.0" encoding="UTF-8" standalone="no"?>
<!-- Created with Inkscape (http://www.inkscape.org/) -->

<svg
   width="11546.116mm"
   height="1673.9528mm"
   viewBox="0 0 11546.116 1673.9528"
   version="1.1"
   id="svg12"
   inkscape:version="1.2.1 (9c6d41e410, 2022-07-14, custom)"
   sodipodi:docname="expaneded_tangent.svg"
   xml:space="preserve"
   xmlns:inkscape="http://www.inkscape.org/namespaces/inkscape"
   xmlns:sodipodi="http://sodipodi.sourceforge.net/DTD/sodipodi-0.dtd"
   xmlns="http://www.w3.org/2000/svg"
   xmlns:svg="http://www.w3.org/2000/svg"><sodipodi:namedview
     id="namedview14"
     pagecolor="#505050"
     bordercolor="#eeeeee"
     borderopacity="1"
     inkscape:showpageshadow="0"
     inkscape:pageopacity="0"
     inkscape:pagecheckerboard="0"
     inkscape:deskcolor="#505050"
     inkscape:document-units="mm"
     showgrid="true"
     inkscape:zoom="0.034886493"
     inkscape:cx="716.60972"
     inkscape:cy="3468.391"
     inkscape:window-width="1366"
     inkscape:window-height="746"
     inkscape:window-x="0"
     inkscape:window-y="0"
     inkscape:window-maximized="1"
     inkscape:current-layer="layer1"
     inkscape:lockguides="false"><inkscape:grid
       type="xygrid"
       id="grid344"
       color="#969696"
       opacity="0.39215686"
       empcolor="#000000"
       empopacity="0.17254902"
       dotted="false"
       originx="-592.77706"
       originy="-14728.815" /></sodipodi:namedview><defs
     id="defs9" /><g
     inkscape:label="Layer 1"
     inkscape:groupmode="layer"
     id="layer1"
     transform="translate(-697.77695,-14877.315)"><path
       style="fill:none;stroke:#ffffff;stroke-width:10.7"
       d="m 1624.4239,14988.588 c -13.0513,-6.237 -27.3155,-27.023 -39.1541,-18.711 -55.5723,39.016 -51.3826,126.413 -44.4563,180.506 3.1205,24.37 33.3092,56.6 48.1269,72.275 1.3433,1.421 53.9874,40.75 30.5893,25.315"
       id="path3580" /><path
       style="fill:none;stroke:#ffffff;stroke-width:10.7"
       d="m 1472.7018,15189.639 c 55.4805,-34.589 109.8127,-54.575 172.1146,-31.919"
       id="path3582" /><path
       style="fill:none;stroke:#ffffff;stroke-width:10.7"
       d="m 1700.6925,15200.278 c -12.2357,-18.588 -28.7118,-34.997 -36.707,-55.766 -16.2073,-42.101 8.4079,-109.402 53.8369,-51.73 46.4505,58.97 14.0954,136.067 15.4985,10.273 0.062,-5.558 -6.4746,-112.424 33.8518,-99.425 45.9791,14.821 77.6081,74.249 89.7279,116.668 3.81,13.335 7.343,41.091 -6.5257,41.091 -51.1662,0 -29.2404,-156.002 79.1239,-143.817"
       id="path3584" /><path
       style="fill:none;stroke:#ffffff;stroke-width:10.7"
       d="m 2502.9419,15006.565 c 5.982,-12.474 9.8052,-26.236 17.9457,-37.422 30.5194,-41.934 74.2143,15.336 71.3742,48.429 -2.0068,23.386 -10.6738,45.837 -18.7611,67.873 -1.4777,4.026 -5.0921,8.805 -9.3808,8.805 -6.8429,0 26.0647,-49.903 65.2566,-22.747 42.9128,29.734 47.0614,46.146 26.5107,99.792 -31.1949,81.432 -127.3304,99.256 -112.1598,-21.279"
       id="path3586" /><path
       style="fill:none;stroke:#ffffff;stroke-width:10.7"
       d="m 2914.8749,15058.662 c 19.305,26.171 40.4498,51.08 57.9149,78.513 8.8956,13.972 13.9025,30.068 20.801,45.126 41.4734,90.532 19.6593,-143.92 34.6673,-149.32 14.5469,23.48 32.7436,45.06 43.6406,70.441 9.8078,22.844 -14.9516,55.688 32.2205,58.701 27.7572,1.773 105.6644,-67.384 85.6495,-99.792 -6.7604,-10.946 -23.5188,14.409 -28.1423,26.416 -14.7576,38.323 6.1749,143.465 58.3233,78.512"
       id="path3588" /><path
       style="fill:none;stroke:#ffffff;stroke-width:10.7"
       d="m 3234.6323,15025.643 c 12.7794,16.387 27.0317,31.726 38.3387,49.162 8.7757,13.533 15.1206,28.528 21.6159,43.292 52.3243,118.936 -33.9439,29.616 4.0785,-58.334 9.2668,-21.435 37.6214,-1.673 45.6798,1.834"
       id="path3590" /><path
       style="fill:none;stroke:#ffffff;stroke-width:10.7"
       d="m 3402.6684,15130.938 c -20.3917,-30.416 -0.9499,-66.035 -12.6437,-97.59 6.0311,-33.371 -14.2535,-94.992 29.3659,-106.763 6.3897,29.473 16.5496,58.375 19.1691,88.418 1.2525,14.365 -7.6562,28.14 -7.7494,42.559 -0.4725,73.109 158.0581,-10.423 116.2388,-70.808 -8.7377,-12.617 -28.2427,21.735 -27.3263,37.055 2.4706,41.298 23.2478,92.755 57.5072,118.135"
       id="path3592" /><path
       style="fill:none;stroke:#ffffff;stroke-width:10.7"
       d="m 3604.1483,14980.883 c 7.7494,18.467 16.8786,36.413 23.2476,55.4 5.3608,15.979 8.5678,32.625 11.8282,49.162 3.1348,15.9 6.409,31.882 7.3409,48.061 4.2413,73.631 -62.3022,-38.917 -8.9728,-94.655 6.0275,-6.3 16.2496,-9.314 24.8796,-8.072 44.1123,6.349 42.5325,59.265 32.6281,89.519 -2.6643,8.139 -16.9217,26.421 -18.3533,17.977 -2.2911,-13.51 -0.8158,-27.393 -1.2235,-41.09"
       id="path3594" /><path
       style="fill:none;stroke:#ffffff;stroke-width:10.7"
       d="m 3711.4139,15008.4 c 24.0109,-31.27 24.1839,-53.787 37.5229,-16.143 14.7592,41.652 22.3176,86.771 29.3653,130.243 0.9596,5.919 2.2815,23.443 3.6708,17.61 4.3294,-18.176 1.6367,-40.764 18.7614,-53.565 16.5888,-12.4 107.8423,-12.553 90.1358,-52.097 -2.3037,-5.145 -6.2521,-10.222 -11.4202,-12.474 -42.0433,-18.319 -83.5152,136.056 15.9068,82.548 6.8307,-3.676 12.2354,-9.538 18.3533,-14.308"
       id="path3596" /><path
       style="fill:none;stroke:#ffffff;stroke-width:10.7"
       d="m 3956.5344,15003.263 c 9.1088,13.086 16.8786,27.213 27.3265,39.256 14.8531,17.122 55.4707,46.8 64.8485,72.276 17.9163,48.672 -132.2826,102.223 -150.9059,-15.042"
       id="path3598" /><path
       style="fill:none;stroke:#ffffff;stroke-width:10.7"
       d="m 4324.8268,15012.435 c 3.566,44.906 1.0586,29.093 10.1967,75.578 1.627,8.276 2.5882,31.181 7.3412,24.214 8.5124,-12.479 14.0168,-45.019 16.3142,-55.766 1.7113,-8.004 2.9522,-32.321 4.0785,-24.214 0.8779,6.318 12.5931,87.171 22.4322,79.98 18.9161,-13.825 8.7791,-52.273 33.0361,-65.305 22.2073,-11.93 134.9709,-13.626 105.6341,-66.405 -23.835,-42.881 -119.8869,12.708 -103.5952,52.464 23.4222,57.155 103.7524,88.59 159.0635,64.571"
       id="path3600" /><path
       style="fill:none;stroke:#ffffff;stroke-width:10.7"
       d="m 4745.3245,14877.423 c 0.544,27.027 2.5583,54.064 1.6317,81.081 -0.708,20.648 -4.2256,41.104 -6.5259,61.636 -11.9356,106.538 14.3822,-58.905 55.876,-23.114 25.1457,21.69 12.7003,81.941 39.9698,92.454"
       id="path3602" /><path
       style="fill:none;stroke:#ffffff;stroke-width:10.7"
       d="m 4874.2065,14994.458 c -7.6134,14.064 -23.2693,26.205 -22.8399,42.191 1.9159,71.342 125.1688,41.565 104.411,-37.054 -1.9931,-7.549 -10.0666,13.476 -9.7886,21.279 0.7086,19.886 9.3113,72.668 38.3382,76.311 35.0784,4.403 32.527,-73.101 27.7341,-90.987 -1.4832,-5.534 -11.2334,-18.173 -11.8277,-12.474 -2.3619,22.657 40.9882,61.187 60.7703,59.068 15.2805,-1.636 31.7807,-59.662 41.601,-71.542 5.9711,-7.223 43.7354,-11.648 58.3234,-24.581 1.7846,-1.582 25.9504,-26.834 9.7883,-29.35 -33.8667,-5.273 -64.8568,35.578 -55.468,67.506 6.8617,23.334 53.3339,35.048 73.0059,40.724"
       id="path3604" /><path
       style="fill:none;stroke:#ffffff;stroke-width:10.7"
       d="m 738.56429,15886.346 c 19.98482,-6.237 39.41604,-14.653 59.95453,-18.711 110.778,-21.886 -53.02041,187.208 -57.91526,230.401 -7.25979,64.063 129.78424,38.204 128.8819,24.948 -1.15808,-17.013 -28.938,-18.244 -44.45603,-25.315"
       id="path3606" /><path
       style="fill:none;stroke:#ffffff;stroke-width:10.7"
       d="m 699.00247,16011.452 c 28.44138,-6.693 253.4694,-40.072 246.34385,17.611"
       id="path3608" /><path
       style="fill:none;stroke:#ffffff;stroke-width:10.7"
       d="m 1073.4126,15984.67 c 55.9913,8.907 111.7075,-0.1 167.628,-2.201 13.7625,-0.519 45.9785,-6.152 40.7855,6.604 -3.6057,8.857 -13.5951,13.452 -20.3928,20.178"
       id="path3610" /><path
       style="fill:none;stroke:#ffffff;stroke-width:10.7"
       d="m 1168.4429,16076.023 c 60.0702,17.364 118.6891,-8.315 179.0478,0.734"
       id="path3612" /><path
       style="fill:none;stroke:#ffffff;stroke-width:10.7"
       d="m 1741.0703,15961.19 c -66.1903,-10.668 -83.8666,39.428 -81.1634,97.59 2.888,62.131 43.7185,85.969 83.2022,123.639 3.6664,3.498 -10.161,-0.661 -15.0905,-1.834"
       id="path3614" /><path
       style="fill:none;stroke:#ffffff;stroke-width:10.7"
       d="m 1608.5175,16128.854 c 70.1063,-34.207 137.7299,-15.049 210.0447,-46.96"
       id="path3616" /><path
       style="fill:none;stroke:#ffffff;stroke-width:10.7"
       d="m 1974.3626,15888.914 c -7.4773,25.56 -21.3209,50.071 -22.4319,76.678 -4.581,109.722 79.1197,212.451 158.6553,276.262"
       id="path3618" /><path
       style="fill:none;stroke:#ffffff;stroke-width:10.7"
       d="m 2175.0269,16040.436 c -10.604,3.18 -24.7695,0.997 -31.8125,9.539 -10.16,12.322 -12.6867,29.933 -13.867,45.86 -6.6331,89.503 102.1487,16.584 125.2114,-10.273 8.6817,-10.11 24.3752,-30.763 13.0511,-37.788 -7.7841,-4.829 -35.9513,31.064 -22.0239,62.736 7.5025,17.062 25.0147,27.639 37.5224,41.458"
       id="path3620" /><path
       style="fill:none;stroke:#ffffff;stroke-width:10.7"
       d="m 2351.6278,16133.257 c -14.3687,14.435 -31.4516,218.483 25.287,105.662"
       id="path3622" /><path
       style="fill:none;stroke:#ffffff;stroke-width:10.7"
       d="m 2427.8966,16015.488 c 11.3821,-100.997 -0.6186,-1.936 0,0 37.8288,58.003 35.4068,42.914 50.5738,104.194 3.9216,15.845 7.5485,31.842 9.3808,48.062 0.7709,6.826 2.2217,26.233 -1.6315,20.545 -11.5361,-17.03 -35.6946,-121.057 22.0245,-96.856 9.5824,4.017 14.4827,15.307 19.169,24.581 33.6304,66.554 -26.5893,142.891 0,53.197"
       id="path3624" /><path
       style="fill:none;stroke:#ffffff;stroke-width:10.7"
       d="m 2593.8932,16138.026 c 3.1269,18.467 10.4204,36.699 9.3811,55.399 -1.5192,27.331 -18.2988,51.754 -24.0638,78.513 -1.1364,5.275 -3.995,11.512 -1.2235,16.143 1.705,2.848 7.5409,0.608 9.7885,-1.835 11.3311,-12.316 19.5771,-27.149 29.3659,-40.724"
       id="path3626" /><path
       style="fill:none;stroke:#ffffff;stroke-width:10.7"
       d="m 2705.6456,16062.816 c 1.7671,-12.597 3.5176,-25.195 5.302,-37.789 1.7843,-12.594 -3.1817,25.247 -5.302,37.789 -7.8097,46.189 -45.6671,169.183 38.3381,172.801 35.5841,1.532 130.7941,-48.905 88.5047,-90.253"
       id="path3628" /><path
       style="fill:none;stroke:#ffffff;stroke-width:10.7"
       d="m 2814.1348,15808.2 c 8.0211,-15.653 7.461,-41.152 24.0633,-46.96 47.4885,-16.613 89.5887,193.713 91.3596,207.287 4.3362,33.245 6.119,67.122 3.2623,100.526 -7.3554,86.014 -34.7848,209.078 -95.4373,276.628"
       id="path3630" /><path
       style="fill:none;stroke:#ffffff;stroke-width:10.7"
       d="m 3239.1186,15969.628 c -13.7189,44.621 -7.4388,91.306 -9.3806,137.213 -0.4796,11.34 6.7321,35.476 -4.4862,33.754 -5.7587,-0.885 -9.2448,-7.094 -13.8671,-10.64"
       id="path3632" /><path
       style="fill:none;stroke:#ffffff;stroke-width:10.7"
       d="m 3158.3638,16076.023 c 55.6897,-31.7 114.8895,10.5 172.1144,19.078"
       id="path3634" /><path
       style="fill:none;stroke:#ffffff;stroke-width:10.7"
       d="m 3552.7588,15894.417 c -67.9783,31.639 -75.9314,109.265 -55.0603,175.736 14.5103,46.213 34.0024,61.4 33.0362,61.269 -8.6707,-1.169 -15.7615,-7.6 -23.6556,-11.373"
       id="path3636" /><path
       style="fill:none;stroke:#ffffff;stroke-width:10.7"
       d="m 3408.7861,16082.627 c 56.2657,-16.859 122.3423,-19.177 178.64,-0.367"
       id="path3638" /><path
       style="fill:none;stroke:#ffffff;stroke-width:10.7"
       d="m 3696.3233,16062.816 c 9.4795,54.801 -13.3397,100.632 -37.5224,147.853 -5.9679,11.653 -15.1135,36.468 -26.1027,29.35 -5.1946,-3.364 -6.5257,-10.517 -9.7885,-15.776"
       id="path3640" /><path
       style="fill:none;stroke:#ffffff;stroke-width:10.7"
       d="m 3605.7798,16098.036 c 48.8841,41.907 98.3263,84.424 139.0784,134.646 4.4085,5.432 12.7667,24.475 11.4197,17.61 -0.948,-4.832 -2.4471,-9.539 -3.6708,-14.309"
       id="path3642" /><path
       style="fill:none;stroke:#ffffff;stroke-width:10.7"
       d="m 3938.1811,15829.846 c 4.3505,-11.495 24.547,-30.136 13.0513,-34.486 -11.4956,-4.351 -7.7533,23.396 -13.0513,34.486 -16.7505,35.066 -41.2573,66.79 -53.0212,103.828 -30.449,95.864 -0.6273,207.854 63.2174,282.131 15.2755,17.772 26.3179,20.105 42.009,32.652"
       id="path3644" /><path
       style="fill:none;stroke:#ffffff;stroke-width:10.7"
       d="m 4010.3713,15954.586 c -15.7705,21.401 -35.1605,40.559 -47.3112,64.204 -64.0363,124.611 156.9307,57.41 147.6436,-34.487 -1.937,-19.167 -29.6164,-31.308 -35.0758,-6.237 -7.1528,32.849 29.4074,76.728 48.9426,99.792"
       id="path3646" /><path
       style="fill:none;stroke:#ffffff;stroke-width:10.7"
       d="m 4224.0867,15994.576 c 10.3325,20.423 23.1984,39.751 30.9972,61.269 4.4577,12.3 4.5495,25.828 5.302,38.889 0.6122,10.63 0.099,21.354 -1.2234,31.919 -13.5946,108.623 -27.966,-109.602 39.5618,-66.039 82.0465,52.93 -14.9537,207.244 -36.299,61.636"
       id="path3648" /><path
       style="fill:none;stroke:#ffffff;stroke-width:10.7"
       d="m 4527.5307,15955.319 c -1.4955,-11.128 6.6423,-34.881 -4.4863,-33.386 -11.1289,1.496 11.3554,24.504 4.4863,33.386 -11.4922,14.861 -39.4917,10.224 -50.1661,25.682 -19.8326,28.722 -4.9149,84.708 13.4591,108.964 42.0873,55.559 158.9283,27.397 89.7279,18.711"
       id="path3650" /><path
       style="fill:none;stroke:#ffffff;stroke-width:10.7"
       d="m 4193.9059,16163.341 c -16.1391,-3.119 -47.5501,94.134 -42.4169,95.022 7.4972,1.297 14.1388,-5.625 21.2082,-8.438"
       id="path3652" /><path
       style="fill:none;stroke:#ffffff;stroke-width:10.7"
       d="m 4358.6789,16165.176 c 13.6257,39.094 18.3475,77.857 3.2625,116.301"
       id="path3654" /><path
       style="fill:none;stroke:#ffffff;stroke-width:10.7"
       d="m 4584.6301,15707.675 c 59.776,52.696 38.4916,24.233 78.308,116.668 79.2196,183.911 112.0412,341.966 -61.9938,486.118"
       id="path3656" /><path
       style="fill:none;stroke:#ffffff;stroke-width:10.7"
       d="m 5102.7346,15763.888 c -44.8914,37.047 -46.609,32.186 -77.0845,81.814 -33.209,54.08 -52.1206,92.273 -64.4409,155.925 -4.4696,23.091 -6.812,47.081 -4.0783,70.441 6.5775,56.207 71.0422,177.21 142.3411,133.545"
       id="path3658" /><path
       style="fill:none;stroke:#ffffff;stroke-width:10.7"
       d="m 5217.3417,15962.371 c -35.8023,46.212 -39.3409,105.068 -61.586,157.025 -2.0158,4.708 -6.0565,16.684 -8.9728,12.474 -10.7138,-15.471 -43.7232,-158.052 -31.8124,-168.766 5.7459,-5.169 155.6096,138.359 173.7458,157.392"
       id="path3660" /><path
       style="fill:none;stroke:#ffffff;stroke-width:10.7"
       d="m 5296.4656,16012.633 c 33.6169,-9.789 84.7736,14.358 113.3833,-8.805"
       id="path3662" /><path
       style="fill:none;stroke:#ffffff;stroke-width:10.7"
       d="m 5432.6888,15911.374 c 7.8851,21.035 14.7375,42.486 23.6558,63.104 4.7085,10.885 11.8761,20.552 17.1297,31.185 0.8107,1.641 8.7191,23.035 11.8279,27.883 6.2849,9.799 11.7401,-39.314 -11.4202,-48.429 -15.095,-5.94 -34.4371,10.835 -40.3773,22.747 -13.5969,27.265 9.0567,47.126 35.483,46.961 45.2681,-0.283 127.8509,-60.323 55.0604,-83.282 -10.4709,-3.303 -12.1762,20.318 -10.604,31.184 3.6041,24.914 85.4313,156.354 73.0059,92.088"
       id="path3664" /><path
       style="fill:none;stroke:#ffffff;stroke-width:10.7"
       d="m 5577.4772,15751.047 c 131.3937,162.516 225.3827,315.456 77.4922,509.598 -1.9481,2.557 -64.8075,88.605 -86.465,71.175"
       id="path3666" /><path
       style="fill:none;stroke:#ffffff;stroke-width:10.7"
       d="m 5925.7848,15910.64 c -16.7111,82.143 -22.7105,176.28 11.8279,254.983"
       id="path3668" /><path
       style="fill:none;stroke:#ffffff;stroke-width:10.7"
       d="m 5882.9601,16076.47 c 84.5333,0.482 169.6347,3.696 254.0931,9.539"
       id="path3670" /><path
       style="fill:none;stroke:#ffffff;stroke-width:10.7"
       d="m 6548.661,15872.926 c -19.441,0.122 -40.6625,-7.761 -58.3231,0.367 -15.0233,6.914 -20.964,25.745 -29.3654,39.99 -30.3776,51.506 -46.429,107.372 -17.9456,164.363 24.315,48.651 107.1171,88.044 6.9332,27.516"
       id="path3672" /><path
       style="fill:none;stroke:#ffffff;stroke-width:10.7"
       d="m 6359.0085,16052.698 c 18.4893,-1.345 36.9535,-3.102 55.468,-4.036 64.8309,-3.27 77.1216,-3.165 139.0788,-1.101 28.3115,0.944 35.3007,3.008 35.0755,3.302 -3.162,4.138 -10.0605,2.691 -15.0907,4.036"
       id="path3674" /><path
       style="fill:none;stroke:#ffffff;stroke-width:10.7"
       d="m 6744.4313,16225.132 c -25.952,46.788 -45.2464,96.96 -66.4806,146.019 -14.5563,33.63 -11.7073,43.241 -14.2748,20.912"
       id="path3676" /><path
       style="fill:none;stroke:#ffffff;stroke-width:10.7"
       d="m 6665.3071,16296.307 c 52.909,56.805 37.8148,33.109 55.876,63.103"
       id="path3678" /><path
       style="fill:none;stroke:#ffffff;stroke-width:10.7"
       d="m 6872.0893,15812.758 c -73.0478,242.647 -50.2055,335.707 119.5011,520.604"
       id="path3680" /><path
       style="fill:none;stroke:#ffffff;stroke-width:10.7"
       d="m 7053.1767,16043.526 c -22.7039,17.977 -48.7701,32.378 -68.1117,53.931 -8.8849,9.901 -13.2622,24.133 -13.867,37.422 -3.2475,71.356 153.0387,25.916 127.2505,-38.522 -12.292,-30.715 -41.4991,16.876 -36.299,35.587 10.5185,37.848 41.5558,58.904 68.1117,84.383"
       id="path3682" /><path
       style="fill:none;stroke:#ffffff;stroke-width:10.7"
       d="m 7226.1071,16189.544 c -1.1989,5.544 -28.2866,156.815 -23.6556,159.227 4.0687,2.119 5.1659,-7.582 7.7491,-11.374"
       id="path3684" /><path
       style="fill:none;stroke:#ffffff;stroke-width:10.7"
       d="m 7275.4571,16049.396 c 8.0211,19.934 17.9443,39.204 24.0636,59.801 6.5762,22.136 9.6962,45.162 13.8671,67.873 3.4444,18.756 6.0479,37.657 8.9728,56.5 14.9051,96.019 7.0099,-115.021 48.1267,-92.454 35.8624,19.683 3.4398,186.066 -22.4322,137.58"
       id="path3686" /><path
       style="fill:none;stroke:#ffffff;stroke-width:10.7"
       d="m 7452.466,16208.989 c 6.6215,59.861 -2.8575,122.407 -10.6042,182.34"
       id="path3688" /><path
       style="fill:none;stroke:#ffffff;stroke-width:10.7"
       d="m 7536.4837,16225.132 c 87.9964,-155.771 -74.8824,73.616 9.3808,85.116 14.7994,2.02 127.0719,-33.806 81.9787,-47.327"
       id="path3690" /><path
       style="fill:none;stroke:#ffffff;stroke-width:10.7"
       d="m 7610.3059,15914.384 c 47.6411,63.972 69.1803,81.667 93.8061,158.492 31.6662,98.789 36.6546,317.014 -70.9662,378.621"
       id="path3692" /><path
       style="fill:none;stroke:#ffffff;stroke-width:10.7"
       d="m 8067.7974,16035.099 c -28.399,45.367 -30.4829,45.106 -53.8369,103.46 -27.6994,69.214 -60.3879,157.741 -29.3653,232.236 8.2439,19.796 21.2156,38.004 36.707,52.831 2.4082,2.305 93.3984,59.47 93.3984,19.078"
       id="path3694" /><path
       style="fill:none;stroke:#ffffff;stroke-width:10.7"
       d="m 8319.8514,16128.654 c -38.2759,57.957 -54.415,126.156 -72.5979,192.245 -4.9554,18.011 -2.5834,39.411 -13.8671,54.299 -0.9954,1.313 -2.1238,-2.559 -2.8549,-4.036 -7.0278,-14.197 -13.5951,-28.617 -20.3927,-42.925"
       id="path3696" /><path
       style="fill:none;stroke:#ffffff;stroke-width:10.7"
       d="m 8153.855,16181.484 c 32.3964,32.375 124.6148,40.654 148.4588,79.981"
       id="path3698" /><path
       style="fill:none;stroke:#ffffff;stroke-width:10.7"
       d="m 8369.6098,16287.513 c 1.1437,-5.088 183.8724,-50.576 120.3168,-11.373"
       id="path3700" /><path
       style="fill:none;stroke:#ffffff;stroke-width:10.7"
       d="m 8626.15,16087.196 c 0.9298,39.578 18.2346,76.325 22.8399,115.201 6.4267,54.251 -30.57,93.493 -23.2476,70.074 20.4303,-65.342 108.6805,-121.388 150.0904,-35.587 23.0582,47.775 -18.9706,119.958 -76.2687,115.2 -19.838,-1.647 -25.6723,-61.682 -31.8128,-95.022"
       id="path3702" /><path
       style="fill:none;stroke:#ffffff;stroke-width:10.7"
       d="m 8735.0472,15887.613 c 16.7222,5.258 36.7496,4.494 50.1661,15.776 32.9647,27.719 62.494,100.071 71.3742,139.414 40.2508,178.328 -12.883,349.555 -97.069,505.929"
       id="path3704" /><path
       style="fill:none;stroke:#ffffff;stroke-width:10.7"
       d="m 9141.9243,16020.745 c 3.5409,62.43 5.7472,125.412 0.4085,187.843 -2.2543,26.359 -6.0489,51.523 -9.3814,51.73 -4.1841,0.26 -5.1657,-6.604 -7.7488,-9.906"
       id="path3706" /><path
       style="fill:none;stroke:#ffffff;stroke-width:10.7"
       d="m 9092.5744,16184.374 c 10.4683,-10.885 17.6687,-26.379 31.4048,-32.653 27.3486,-12.491 116.6431,-8.459 148.051,1.468"
       id="path3708" /><path
       style="fill:none;stroke:#ffffff;stroke-width:10.7"
       d="m 9504.5071,15945.534 c 6.3897,-10.395 15.0466,-19.7 19.1691,-31.185 0.8641,-2.407 -5.1864,-6.214 -6.5259,-4.035 -6.5321,10.626 -6.0476,24.633 -12.6432,35.22 -18.2131,29.237 -46.791,51.985 -61.1782,83.282 -20.9693,45.616 12.8674,123.522 31.8127,163.996 12.9238,27.611 34.7199,46.959 20.3927,34.487 -19.7567,-17.199 -6.3513,-6.992 -23.6558,-19.445"
       id="path3710" /><path
       style="fill:none;stroke:#ffffff;stroke-width:10.7"
       d="m 9381.3351,16123.838 c 46.4545,-19.289 95.6265,-19.891 143.5645,-7.704"
       id="path3712" /><path
       style="fill:none;stroke:#ffffff;stroke-width:10.7"
       d="m 9643.1776,16218.127 c 29.3153,-5.014 67.1058,-29.301 76.2688,15.409 12.5789,61.375 -53.8353,117.765 -80.3473,165.463 -19.5493,35.171 74.984,9.43 95.8456,3.302 33.7013,-9.899 -6.4511,-17.144 -24.0631,-23.847"
       id="path3714" /><path
       style="fill:none;stroke:#ffffff;stroke-width:10.7"
       d="m 9616.2592,16319.386 c 59.9996,-32.33 128.4526,-44.432 194.5463,-58.701"
       id="path3716" /><path
       style="fill:none;stroke:#ffffff;stroke-width:10.7"
       d="m 9999.2346,15747.052 c 15.9614,-49.855 9.1784,-31.734 21.6164,-63.838 0.806,-2.082 3.298,-8.301 2.447,-6.237 -59.6076,144.539 -191.5608,727.642 85.241,741.1"
       id="path3718" /><path
       style="fill:none;stroke:#ffffff;stroke-width:10.7"
       d="m 10152.995,15972.316 c -73.933,-13.846 -95.642,124.225 -0.815,103.828 32.442,-6.979 99.931,-77.124 70.966,-84.75 -4.885,-1.286 -11.706,2.835 -13.051,7.705 -15.768,57.099 17.706,105.578 55.06,144.184"
       id="path3720" /><path
       style="fill:none;stroke:#ffffff;stroke-width:10.7"
       d="m 10361.001,16113.566 c -2.114,36.93 -22.109,68.033 -32.628,102.726"
       id="path3722" /><path
       style="fill:none;stroke:#ffffff;stroke-width:10.7"
       d="m 10400.97,15918.018 c 48.434,-126.719 86.438,70.792 88.097,105.662 1.115,23.426 -1.061,85.322 -17.129,68.24 -18.357,-19.515 11.696,-93.602 31.812,-106.763 18.79,-12.293 31.363,29.656 31.813,31.919 7.356,37.019 -33.935,184.899 -55.877,86.217"
       id="path3724" /><path
       style="fill:none;stroke:#ffffff;stroke-width:10.7"
       d="m 10619.581,16026.248 c -10.175,61.613 -23.403,127.948 -13.867,188.944"
       id="path3726" /><path
       style="fill:none;stroke:#ffffff;stroke-width:10.7"
       d="m 10716.242,15931.226 c 4.622,-12.474 8.449,-25.273 13.867,-37.422 0.02,-0.05 13.201,-30.725 22.84,-34.854 10.626,-4.551 -3.834,23.244 -9.381,33.386 -7.602,13.901 -25.328,23.173 -27.326,38.89 -4.184,32.915 1.207,67.007 9.788,99.058 12.979,48.473 157.049,34.938 142.341,-16.51"
       id="path3728" /><path
       style="fill:none;stroke:#ffffff;stroke-width:10.7"
       d="m 10866.601,15677.98 c 2.806,56.782 -6.806,23.215 52.613,77.412 165.983,151.397 247.461,318.01 165.589,538.949 -15.358,41.445 -56.201,120.58 -95.438,152.989 -29.925,24.718 -15.101,-35.438 -14.682,-39.623"
       id="path3730" /><path
       style="fill:none;stroke:#ffffff;stroke-width:10.7"
       d="m 11297.703,15689.721 c -14.997,174.64 50.092,-61.337 70.559,-42.926 4.463,4.015 -21.285,43.015 -28.142,56.5 -16.131,31.727 -34.566,62.589 -46.495,96.123 -30.747,86.431 -70.54,202.732 -61.586,301.209 2.655,29.205 11.535,58.27 24.879,84.383 13.256,25.941 76.107,100.21 110.528,56.5"
       id="path3732" /><path
       style="fill:none;stroke:#ffffff;stroke-width:10.7"
       d="m 11456.358,15910.583 c 205.676,-52.346 -55.956,161.101 -22.024,255.349 6.704,18.621 75.392,19.587 88.913,11.74 4.856,-2.818 -13.392,-32.595 -15.499,-37.055"
       id="path3736" /><path
       style="fill:none;stroke:#ffffff;stroke-width:10.7"
       d="m 11415.573,16031.654 c -10.332,-6.115 -24.882,-28.677 -30.997,-18.344 -6.114,10.332 19.118,20.084 30.997,18.344 33.346,-4.886 60.99,-31.036 94.214,-36.688 13.597,-2.313 99.227,0.583 55.469,27.516"
       id="path3738" /><path
       style="fill:none;stroke:#ffffff;stroke-width:10.7"
       d="m 11615.829,15974.787 c 43.818,16.072 90.479,15.556 135.408,26.782 6.533,1.633 22.913,3.484 18.354,8.439 -3.099,3.368 -7.886,4.647 -11.828,6.97"
       id="path3740" /><path
       style="fill:none;stroke:#ffffff;stroke-width:10.7"
       d="m 11850.346,15817.028 c -12.78,19.078 -27.549,36.964 -38.339,57.234 -20.497,38.507 -46.171,107.724 -8.564,146.385 26.925,27.681 147.272,33.778 168.036,-0.733 3.533,-5.873 -0.544,-13.697 -0.816,-20.546"
       id="path3742" /><path
       style="fill:none;stroke:#ffffff;stroke-width:10.7"
       d="m 12038.671,15532.426 c -0.816,11.985 -6.769,24.747 -2.447,35.954 7.853,20.361 24.518,36.112 37.115,53.932 42.855,60.627 82.442,108.672 115.423,176.837 63.778,131.816 67.349,252.43 5.302,388.16 -67.978,148.703 -59.777,133.388 -146.42,194.814"
       id="path3744" /></g></svg>
