<?xml version="1.0" encoding="UTF-8" standalone="no"?>
<!-- Created with Inkscape (http://www.inkscape.org/) -->

<svg
   width="234.4554mm"
   height="110.1843mm"
   viewBox="0 0 234.45539 110.18429"
   version="1.1"
   id="svg12"
   inkscape:version="1.2.1 (9c6d41e410, 2022-07-14, custom)"
   sodipodi:docname="exponential_rule_proof.svg"
   xml:space="preserve"
   xmlns:inkscape="http://www.inkscape.org/namespaces/inkscape"
   xmlns:sodipodi="http://sodipodi.sourceforge.net/DTD/sodipodi-0.dtd"
   xmlns="http://www.w3.org/2000/svg"
   xmlns:svg="http://www.w3.org/2000/svg"><sodipodi:namedview
     id="namedview14"
     pagecolor="#000000"
     bordercolor="#ffffff"
     borderopacity="1"
     inkscape:showpageshadow="0"
     inkscape:pageopacity="0"
     inkscape:pagecheckerboard="0"
     inkscape:deskcolor="#000000"
     inkscape:document-units="mm"
     showgrid="true"
     inkscape:zoom="0.23291783"
     inkscape:cx="747.04458"
     inkscape:cy="571.01683"
     inkscape:window-width="1366"
     inkscape:window-height="746"
     inkscape:window-x="0"
     inkscape:window-y="0"
     inkscape:window-maximized="1"
     inkscape:current-layer="layer1"
     inkscape:lockguides="true"><inkscape:grid
       type="xygrid"
       id="grid344"
       color="#969696"
       opacity="0.39215686"
       empcolor="#ffffff"
       empopacity="0.17254902"
       dotted="false"
       originx="55.828459"
       originy="41.642226" /></sodipodi:namedview><defs
     id="defs9" /><g
     inkscape:label="Layer 1"
     inkscape:groupmode="layer"
     id="layer1"
     transform="translate(-49.171542,-106.85777)"><path
       style="fill:none;stroke:#ff9955;stroke-width:3"
       d="m 71.71571,136.90777 c -0.132207,1.07033 -0.07345,2.18209 -0.396621,3.21101 -0.378791,1.20598 -1.020832,2.32116 -1.679806,3.39988 -3.558071,5.82446 -7.601537,11.10099 -12.202009,16.11798 -2.053452,2.23937 -4.451664,4.34158 -6.392621,6.69484 -0.13657,0.16558 -0.437343,0.31981 -0.373293,0.52467 0.07969,0.25488 10.271207,-1.37533 11.338748,-1.42711 8.580511,-0.4162 17.573725,0.45955 25.990494,2.18264 1.059791,0.21697 3.325164,0.0435 3.056326,1.09132 -0.129264,0.50384 -0.827373,-0.69476 -1.026557,-1.17527 -0.376716,-0.90879 -0.735877,-1.82515 -1.07321,-2.74928 -1.841225,-5.04406 -3.241884,-10.3267 -5.482736,-15.21554 -1.643896,-3.58648 -5.795518,-10.50905 -9.308978,-12.55021 -0.706723,-0.41057 -1.633159,-0.07 -2.449737,-0.10493 z"
       id="path3692" /><path
       style="fill:none;stroke:#ff9955;stroke-width:3"
       d="m 101.36914,168.13635 c 2.08666,-7.08246 4.6871,-13.98525 7.25586,-20.903 1.34446,-3.62066 3.3367,-7.68846 3.54628,-11.64775 0.005,-0.099 -0.0389,0.19495 -0.0467,0.29381 -0.07,0.88787 -0.21441,1.77515 -0.18665,2.66535 0.23316,7.47669 0.95489,14.47896 3.00967,21.65853 0.68674,2.39951 4.37738,11.68613 2.14644,8.45774"
       id="path3702" /><path
       style="fill:none;stroke:#ff9955;stroke-width:3"
       d="m 105.40536,156.13181 c 2.80428,-0.39285 5.72294,-1.26154 8.53906,-0.54566"
       id="path3704" /><path
       style="fill:none;stroke:#ff9955;stroke-width:3"
       d="m 126.98632,118.16642 c -2.94423,3.8576 -5.47185,8.06068 -7.5125,12.46625 -0.26574,0.5737 -0.49107,1.16614 -0.69992,1.7629 -0.0564,0.16117 -0.11219,0.6734 -0.0933,0.50369 0.0577,-0.51919 0.13998,-1.03535 0.20997,-1.55303"
       id="path3706" /><path
       style="fill:none;stroke:#ff9955;stroke-width:3"
       d="m 117.53736,119.90833 c -0.31886,-0.68557 -0.27099,-2.37557 -0.95656,-2.05672 -1.56893,0.72969 2.03428,2.57482 4.64282,5.18378 3.82757,3.8282 3.12054,3.56611 5.13277,8.62564"
       id="path3708" /><path
       style="fill:none;stroke:#ff9955;stroke-width:3"
       d="m 145.30098,148.38763 c 1.6282,-1.75698 14.44179,-4.56786 12.55196,0.1679"
       id="path3714" /><path
       style="fill:none;stroke:#ff9955;stroke-width:3"
       d="m 146.60751,153.71832 c 4.72909,0.0969 10.41092,-3.27207 14.74504,-0.71356"
       id="path3716" /><path
       style="fill:none;stroke:#ff9955;stroke-width:3"
       d="m 175.36759,157.45695 c 2.46951,-7.93677 5.33839,-15.73897 7.20921,-23.88316 1.04628,-4.55473 0.43021,-1.99274 0.90989,-4.88995 0.0281,-0.17003 0.0371,-0.65658 0.11667,-0.50369 1.42339,2.73535 1.00185,6.08517 1.49318,9.12932 0.96448,5.97571 2.53049,11.68349 3.98955,17.54509 0.54096,2.17323 1.17234,4.77438 1.42317,7.03063 0.028,0.25221 0.1596,0.77621 -0.0933,0.75553 -0.35281,-0.0288 -0.45107,-0.54566 -0.67661,-0.81849"
       id="path3718" /><path
       style="fill:none;stroke:#ff9955;stroke-width:3"
       d="m 178.98386,149.12512 c 3.06702,-2.61111 5.17202,-3.46863 8.88902,-3.42087"
       id="path3720" /><path
       style="fill:none;stroke:#ff9955;stroke-width:3"
       d="m 201.80135,113.21645 c -2.82494,3.82107 -4.7482,8.17378 -6.85924,12.40329 -0.52017,1.04216 -1.02452,2.09229 -1.51651,3.14804 -0.15366,0.32975 -0.16134,0.75149 -0.41994,1.00737 -0.18922,0.18724 0.14186,-0.51409 0.18663,-0.77651 0.19644,-1.15143 0.35776,-2.30857 0.53663,-3.46285"
       id="path3722" /><path
       style="fill:none;stroke:#ff9955;stroke-width:3"
       d="m 193.58893,113.69914 c 0.7388,0.20288 1.6175,0.13082 2.21641,0.60863 3.0981,2.47168 5.54018,11.35214 6.34599,15.2785"
       id="path3724" /><path
       style="fill:none;stroke:#ff9955;stroke-width:3"
       d="m 210.29377,113.42631 c 2.29858,15.64736 -0.17724,-2.06535 1.21318,10.09473 0.24588,2.15031 1.36227,4.90506 0.11667,4.19739"
       id="path3726" /><path
       style="fill:none;stroke:#ff9955;stroke-width:3"
       d="m 207.79736,122.03096 c 3.10543,-2.56383 6.34862,0.19876 9.56564,-0.52466"
       id="path3728" /><path
       style="fill:none;stroke:#ff9955;stroke-width:3"
       d="m 220.95592,109.16596 c 2.32324,4.69222 2.7695,10.0004 3.89624,15.06864"
       id="path3730" /><path
       style="fill:none;stroke:#ff9955;stroke-width:3"
       d="m 236.91417,141.80068 c 3.77314,-0.57051 7.61534,-0.91144 11.38543,-1.55303"
       id="path3732" /><path
       style="fill:none;stroke:#ff9955;stroke-width:3"
       d="m 256.60534,146.35485 c 2.95103,-5.25852 2.23091,-3.14341 3.63961,-8.75156 1.19869,-4.77213 2.22107,-9.59909 2.98635,-14.46002 0.146,-0.92728 0.27831,-1.85737 0.37327,-2.79127 0.022,-0.21588 0.15145,-0.77922 -0.0233,-0.65058 -0.23392,0.17216 -0.2113,0.54988 -0.23334,0.83947 -0.0796,1.04659 -0.15965,2.10228 -0.07,3.14804 0.54282,6.33004 3.34322,11.99575 5.71606,17.77596 0.48342,1.17758 2.57035,4.97465 0.6999,5.89733"
       id="path3734" /><path
       style="fill:none;stroke:#ff9955;stroke-width:3"
       d="m 260.71157,137.72921 c 0.0106,-5.12361 5.38744,-3.03861 8.30577,-5.28872"
       id="path3736" /><path
       style="fill:none;stroke:#ff9955;stroke-width:3"
       d="m 278.83957,108.59932 c -2.49269,2.81082 -3.94292,6.25547 -5.27275,9.71696 -0.29509,0.7681 -0.53551,1.5562 -0.81658,2.32955 -0.11663,0.3209 -0.35888,1.28375 -0.39661,0.94441 -0.0543,-0.4889 -0.0933,-0.97939 -0.13999,-1.46908"
       id="path3738" /><path
       style="fill:none;stroke:#ff9955;stroke-width:3"
       d="m 271.16375,108.03267 c 1.05767,0.83948 2.31047,1.47949 3.17299,2.51843 0.98401,1.18528 1.50831,2.68658 2.26308,4.0295 3.99338,7.10494 2.052,3.48645 5.69272,10.57743"
       id="path3740" /><path
       style="fill:none;stroke:#ff9955;stroke-width:3"
       d="m 66.167426,201.83222 c 2.244929,-1.14792 12.166299,-4.08085 13.858484,-1.30118 0.176289,0.28957 -0.09332,0.67158 -0.139984,1.00737"
       id="path3742" /><path
       style="fill:none;stroke:#ff9955;stroke-width:3"
       d="m 68.803817,205.67283 c 4.900472,-1.82991 10.066057,-2.3923 15.001681,-0.54566"
       id="path3744" /><path
       style="fill:none;stroke:#ff9955;stroke-width:3"
       d="m 112.0824,211.67511 c 2.58794,-4.95221 2.53734,-4.43416 4.36285,-9.46512 1.5946,-4.39457 3.13207,-8.97774 4.12956,-13.55757 0.0912,-0.41869 0.54303,-1.32283 0.11665,-1.28021 -0.38294,0.0383 -0.99283,3.14983 -1.09656,5.24675 -0.25079,5.06993 0.77337,9.9213 2.2631,14.73283 0.0463,0.14951 2.29309,6.35902 2.26308,6.42202 -0.0702,0.14743 -0.32663,0 -0.48995,0"
       id="path3746" /><path
       style="fill:none;stroke:#ff9955;stroke-width:3"
       d="m 114.90542,205.33705 c 1.95909,-4.10957 5.2483,-3.12041 9.19233,-3.60976"
       id="path3748" /><path
       style="fill:none;stroke:#ff9955;stroke-width:3"
       d="m 132.49683,175.61952 c -2.87134,2.77767 -4.38174,6.46235 -6.04267,10.01077 -0.38407,0.82053 -0.72881,1.65925 -1.11988,2.47647 -0.11484,0.23997 -0.13191,0.66611 -0.39662,0.69257 -0.0234,0.002 -0.029,-1.19477 -0.0467,-2.89621"
       id="path3750" /><path
       style="fill:none;stroke:#ff9955;stroke-width:3"
       d="m 124.2844,175.05287 c 5.4996,1.19295 8.24566,6.15039 9.56561,11.24901"
       id="path3752" /><path
       style="fill:none;stroke:#ff9955;stroke-width:3"
       d="m 158.06735,176.27012 c -1.2132,1.23822 -2.7296,2.23923 -3.63959,3.71468 -1.02217,1.65733 -1.52242,3.59767 -2.02977,5.4776 -1.88745,6.9937 -2.62119,14.17551 0.34995,20.98696 1.83807,4.21385 6.11704,5.73792 7.79248,8.94044"
       id="path3754" /><path
       style="fill:none;stroke:#ff9955;stroke-width:3"
       d="m 166.74642,209.87023 c 2.90493,-7.80282 6.72119,-15.4092 8.28241,-23.6523 0.26157,-1.3811 0.38214,-2.78522 0.58326,-4.1764 0.0244,-0.169 -0.016,-0.63484 0.0933,-0.50369 0.12836,0.15394 0.90274,8.08724 0.93322,8.26886 1.19097,7.09745 1.85261,8.38977 4.82948,16.28587 0.62986,1.6707 4.283,8.09854 2.26307,5.7924"
       id="path3764" /><path
       style="fill:none;stroke:#ff9955;stroke-width:3"
       d="m 170.19937,201.55939 c 2.44822,-0.93392 5.05057,-1.02139 7.62916,-1.04934"
       id="path3766" /><path
       style="fill:none;stroke:#ff9955;stroke-width:3"
       d="m 189.35393,195.2633 c 1.02318,-0.40924 8.20491,-0.82861 7.13921,-2.26659"
       id="path3768" /><path
       style="fill:none;stroke:#ff9955;stroke-width:3"
       d="m 200.73934,184.24515 c 3.49539,4.48032 0.0866,13.49235 4.40952,17.56609"
       id="path3770" /><path
       style="fill:none;stroke:#ff9955;stroke-width:3"
       d="m 204.82224,173.81463 c 0.89434,0.54567 2.10548,0.7629 2.68303,1.63699 1.04683,1.58433 4.66297,13.31053 4.82948,13.97731 2.1043,8.42648 3.36573,18.82995 -0.95657,26.90528"
       id="path3772" /><path
       style="fill:none;stroke:#ff9955;stroke-width:3"
       d="m 51.278521,310.1518 c 1.557887,-4.29039 3.322814,-9.30848 5.062783,-13.64152 1.807297,-4.50072 3.83758,-8.89905 5.716032,-13.36868 0.260831,-0.62063 0.434319,-2.34475 0.863243,-1.82587 1.090435,1.31914 0.9051,3.30114 1.353182,4.95292 1.713201,6.31546 4.058259,12.15404 7.022568,17.98583 0.643493,1.26597 2.444552,4.22128 1.936456,4.88994 -0.332073,0.43701 -1.09075,-0.12594 -1.633161,-0.20985 -3.210444,-0.49664 -6.200235,-0.47817 -9.47229,-0.44073 -2.613477,0.0299 -5.307766,-0.48272 -7.839144,0.16788 -1.084209,0.27866 -2.134872,2.18857 -3.009669,1.49008 -0.85529,-0.68291 0.622151,-2.09869 0.93323,-3.14804"
       id="path3776" /><path
       style="fill:none;stroke:#ff9955;stroke-width:3"
       d="m 82.028488,304.27545 c 0.559938,-0.58763 1.311121,-1.03977 1.679818,-1.7629 2.155087,-4.22676 2.981719,-12.82754 3.546277,-17.5451 0.111022,-0.92772 0.168367,-1.86109 0.256638,-2.79125 0.02061,-0.21715 -0.04806,-0.83402 0.06998,-0.6506 0.192267,0.29875 0.134651,0.6979 0.186642,1.04935 0.204676,1.38366 0.340267,2.77797 0.583277,4.15541 0.792062,4.48968 1.413287,7.06673 2.869686,11.45888 1.581386,4.76908 5.749333,12.21422 3.406294,10.01079"
       id="path3778" /><path
       style="fill:none;stroke:#ff9955;stroke-width:3"
       d="m 85.551436,299.67932 c -5.70452,-2.75922 3.087664,-3.52466 5.06277,-3.67272"
       id="path3780" /><path
       style="fill:none;stroke:#ff9955;stroke-width:3"
       d="m 101.13639,264.52617 c -2.173945,3.19111 -3.311724,7.10502 -4.339533,10.78729 -0.530759,1.90153 -0.54643,3.95929 -1.329851,5.77141 -0.367842,0.85085 -0.601223,-1.75849 -0.793245,-2.66534"
       id="path3782" /><path
       style="fill:none;stroke:#ff9955;stroke-width:3"
       d="m 93.577219,266.58288 c 0.785469,0.3288 1.717826,0.42312 2.356409,0.98639 1.45311,1.28175 3.913484,5.724 4.876132,7.17754 1.99071,3.00587 4.12392,5.77872 5.7627,9.0034"
       id="path3784" /><path
       style="fill:none;stroke:#ff9955;stroke-width:3"
       d="m 115.34483,293.74001 c 3.20293,-1.78447 8.13536,-1.49475 11.43208,0.021"
       id="path3786" /><path
       style="fill:none;stroke:#ff9955;stroke-width:3"
       d="m 117.60791,299.19661 c 0.7077,0.60862 1.20971,1.63357 2.1231,1.82586 1.72691,0.36357 6.97609,-0.73663 9.49563,-0.56664"
       id="path3788" /><path
       style="fill:none;stroke:#ff9955;stroke-width:3"
       d="m 140.14544,299.44845 c 0.7077,-0.29381 1.68419,-0.25333 2.1231,-0.88144 0.98976,-1.41643 2.7329,-9.48261 2.91636,-10.34657 0.74791,-3.52218 1.30902,-7.03766 1.49316,-10.64039 0.0614,-1.20208 0.0177,-2.41123 -0.0933,-3.60975 -0.0377,-0.40701 -0.19079,-1.55178 -0.34995,-1.17528 -2.39486,5.665 4.27789,15.44167 6.41595,20.18945 0.61351,1.36236 3.35541,6.77704 1.98313,7.45037"
       id="path3790" /><path
       style="fill:none;stroke:#ff9955;stroke-width:3"
       d="m 144.25167,293.2573 c 0.11665,-0.86046 -0.17791,-1.89192 0.34995,-2.58139 0.84782,-1.10741 5.19817,-3.03806 6.88258,-4.88996"
       id="path3792" /><path
       style="fill:none;stroke:#ff9955;stroke-width:3"
       d="m 156.85027,258.31402 c -0.67364,3.58343 -0.58396,7.23326 -1.74979,10.72435 -0.32123,0.96193 -0.91632,2.95929 -1.79647,2.45546 -0.5346,-0.30602 -0.62217,-1.06333 -0.93325,-1.595"
       id="path3794" /><path
       style="fill:none;stroke:#ff9955;stroke-width:3"
       d="m 150.01437,259.46831 c 4.84805,3.47437 10.14404,6.93356 12.71527,12.50822"
       id="path3796" /><path
       style="fill:none;stroke:#ff9955;stroke-width:3"
       d="m 183.40071,271.11606 c -11.3202,7.22465 -7.19328,23.42433 0.93322,31.48043"
       id="path3798" /><path
       style="fill:none;stroke:#ff9955;stroke-width:3"
       d="m 189.28006,295.08317 c 0.32663,-0.75553 0.77016,-1.47065 0.9799,-2.26659 0.70224,-2.66497 0.84683,-5.4466 1.30652,-8.16393 0.51992,-3.07342 1.13336,-6.29876 1.49317,-9.40215 0.0896,-0.77274 0.11556,-1.55202 0.13998,-2.32956 0.0161,-0.51332 -0.0592,-2.03495 -0.16333,-1.53205 -1.1811,5.70357 0.51887,11.52983 2.02979,16.97846 1.1175,4.02994 2.94042,8.20616 1.44651,7.7022"
       id="path3800" /><path
       style="fill:none;stroke:#ff9955;stroke-width:3"
       d="m 189.21007,288.13649 c 5.33607,-1.14894 2.90187,-1.12747 7.27921,-0.58763"
       id="path3802" /><path
       style="fill:none;stroke:#ff9955;stroke-width:3"
       d="m 202.64859,284.82054 c 1.91646,0.21975 5.82452,-2.28022 7.69917,-1.19625"
       id="path3804" /><path
       style="fill:none;stroke:#ff9955;stroke-width:3"
       d="m 212.8908,275.20852 c 2.55921,4.44261 2.91682,9.38773 3.24299,14.37606"
       id="path3806" /><path
       style="fill:none;stroke:#ff9955;stroke-width:3"
       d="m 217.06701,260.91641 c 1.95113,3.02841 1.60233,2.06619 2.58972,7.19852 2.61914,13.61412 4.97943,27.07184 0.13999,40.50482"
       id="path3808" /></g></svg>
