<?xml version="1.0" encoding="UTF-8" standalone="no"?>
<!-- Created with Inkscape (http://www.inkscape.org/) -->

<svg
   width="9562.0781mm"
   height="23133.818mm"
   viewBox="0 0 9562.0779 23133.819"
   version="1.1"
   id="svg12"
   inkscape:version="1.2.1 (9c6d41e410, 2022-07-14, custom)"
   sodipodi:docname="exponentiation_non_comun.svg"
   xml:space="preserve"
   xmlns:inkscape="http://www.inkscape.org/namespaces/inkscape"
   xmlns:sodipodi="http://sodipodi.sourceforge.net/DTD/sodipodi-0.dtd"
   xmlns="http://www.w3.org/2000/svg"
   xmlns:svg="http://www.w3.org/2000/svg"><sodipodi:namedview
     id="namedview14"
     pagecolor="#505050"
     bordercolor="#eeeeee"
     borderopacity="1"
     inkscape:showpageshadow="0"
     inkscape:pageopacity="0"
     inkscape:pagecheckerboard="0"
     inkscape:deskcolor="#505050"
     inkscape:document-units="mm"
     showgrid="true"
     inkscape:zoom="0.01"
     inkscape:cx="15100"
     inkscape:cy="46400"
     inkscape:window-width="1366"
     inkscape:window-height="746"
     inkscape:window-x="0"
     inkscape:window-y="0"
     inkscape:window-maximized="1"
     inkscape:current-layer="layer1"
     inkscape:lockguides="false"><inkscape:grid
       type="xygrid"
       id="grid344"
       color="#969696"
       opacity="0.39215686"
       empcolor="#000000"
       empopacity="0.17254902"
       dotted="false"
       originx="2203.4736"
       originy="-11930.139" /></sodipodi:namedview><defs
     id="defs9" /><g
     inkscape:label="Layer 1"
     inkscape:groupmode="layer"
     id="layer1"
     transform="translate(2098.4736,-12078.639)"><path
       style="fill:none;stroke:#ffffff;stroke-width:10.7"
       d="m -928.21109,14723.402 c 5.35472,-28.608 7.7787,-57.925 16.06415,-85.826 1.86444,-6.278 21.43321,-50.418 37.48299,-57.363 78.68206,-34.045 93.5885,182.368 117.31673,222.009"
       id="path382" /><path
       style="fill:none;stroke:#ffffff;stroke-width:10.7"
       d="m -617.63818,14750.551 c 12.16975,-37.074 26.42336,-73.528 36.50925,-111.223 1.37425,-5.136 6.70645,-94.223 11.19616,-90.643 15.67857,12.501 116.5905,173.674 111.96198,179.534 -8.57379,10.855 -32.21995,-12.912 -60.36209,-28.901 -29.23104,-16.607 -58.61796,-33.073 -89.08262,-47.291 -14.80439,-6.91 -35.38868,-1.869 -47.21867,-13.137 -12.0835,-11.509 24.60064,-23.589 39.9167,-30.214 25.41622,-10.994 51.33475,-21.038 77.88675,-28.901 23.18459,-6.866 109.45,-27.357 140.68253,-22.332 13.90221,2.237 -31.54866,55.863 -68.1508,95.021 -32.71467,35 -77.18893,78.209 -102.71278,120.42 -70.21737,116.123 19.0029,5.172 19.95837,3.94"
       id="path384" /><path
       style="fill:none;stroke:#ffffff;stroke-width:10.7"
       d="m -303.65783,14576.71 c -11.19616,17.807 -24.86379,34.282 -33.58851,53.422 -7.34737,16.119 -13.81109,33.522 -14.11716,51.233 -2.24599,129.965 222.17278,-56.9 123.64517,-95.898 -22.5582,-8.928 -11.39959,36.827 4.8677,60.867 16.38339,24.212 31.75311,37.596 51.11316,55.612"
       id="path386" /><path
       style="fill:none;stroke:#ffffff;stroke-width:10.7"
       d="m -48.09257,14615.244 c 65.250627,-25.591 141.249978,-62.377 213.21482,-48.168"
       id="path390" /><path
       style="fill:none;stroke:#ffffff;stroke-width:10.7"
       d="m -11.583052,14734.787 c 70.964207,25.056 144.672452,4.345 217.108762,0"
       id="path392" /><path
       style="fill:none;stroke:#ffffff;stroke-width:10.7"
       d="m 402.18938,14250.921 c 5.6792,22.333 12.33554,44.439 17.03763,66.997 3.31666,15.912 11.79145,34.399 3.89448,48.606 -6.85024,12.323 -22.68527,-20.592 -24.33986,-34.594 -3.99876,-33.839 1.34829,-119.644 29.20783,-148.881 25.76562,-27.041 150.20647,-43.415 186.92772,-48.606 19.812,-2.801 10.7864,21.218 14.11716,40.724 6.31595,36.987 11.4118,74.248 19.95811,110.785 7.7417,33.097 47.42357,125.144 26.28683,98.525"
       id="path394" /><path
       style="fill:none;stroke:#ffffff;stroke-width:10.7"
       d="m 546.27937,14817.986 c -11.75893,55.828 -8.42161,25.813 -8.76191,79.696 -0.14089,22.31 -6.09661,62.055 3.8945,84.074 8.10872,17.87 113.31631,0.08 130.94629,1.314 25.68575,1.8 88.59694,32.402 109.04127,3.503 25.51126,-36.062 6.81898,-99.227 4.86796,-138.811 -0.10287,-2.087 7.54404,-74.221 -11.19616,-57.363"
       id="path396" /><path
       style="fill:none;stroke:#ffffff;stroke-width:10.7"
       d="m 665.54332,14626.191 c 6.81387,59.474 -9.63662,127.222 5.35472,185.665"
       id="path398" /><path
       style="fill:none;stroke:#ffffff;stroke-width:10.7"
       d="m 705.94731,15181.433 c -35.277,29.452 35.37789,111.019 3.4072,130.928"
       id="path400" /><path
       style="fill:none;stroke:#ffffff;stroke-width:10.7"
       d="m 636.33605,15258.063 c 49.61541,-16.855 101.54631,-32.253 153.33919,-40.723"
       id="path402" /><path
       style="fill:none;stroke:#ffffff;stroke-width:10.7"
       d="m 489.32503,14454.977 c -19.74876,-5.293 11.10165,-113.577 32.1283,-97.649 22.44342,17.001 36.23064,52.615 54.52063,74.003"
       id="path404" /><path
       style="fill:none;stroke:#ffffff;stroke-width:10.7"
       d="m 482.02335,13839.307 c 17.64411,-45.662 53.39104,-85.986 0,0 z"
       id="path406" /><path
       style="fill:none;stroke:#ffffff;stroke-width:10.7"
       d="m 501.00795,13952.282 c 7.90405,39.953 10.70279,80.663 16.06415,120.857"
       id="path408" /><path
       style="fill:none;stroke:#ffffff;stroke-width:10.7"
       d="m 972.70846,14285.076 c 19.02454,-79.858 5.89862,-26.706 14.60394,-59.99 5.20763,-19.911 -10.02075,39.926 -14.60394,59.99 -10.29073,45.051 -22.80619,89.689 -30.18076,135.308 -26.95183,166.722 66.282,293.442 197.6372,385.341"
       id="path410" /><path
       style="fill:none;stroke:#ffffff;stroke-width:10.7"
       d="m 1271.1117,14419.07 c -74.7769,-4.239 -79.5468,81.826 -28.2338,114.289 25.4391,16.094 59.4903,-24.455 55.4941,-47.292 -4.1558,-23.749 -43.6774,-84.654 -27.2603,-66.997 44.4896,47.85 45.6279,108.789 106.1203,141.438"
       id="path412" /><path
       style="fill:none;stroke:#ffffff;stroke-width:10.7"
       d="m 1321.7378,14182.173 c 22.7171,10.071 49.9537,13.292 68.1511,30.214 22.0627,20.516 33.1115,50.447 47.2184,77.068 58.458,110.315 160.2024,374.388 19.4719,467.665"
       id="path414" /><path
       style="fill:none;stroke:#ffffff;stroke-width:10.7"
       d="m -1031.4341,12887.838 c -14.2792,7.444 -30.7202,11.726 -42.8377,22.332 -58.6557,51.337 -118.8416,554.335 120.72416,349.434"
       id="path416" /><path
       style="fill:none;stroke:#ffffff;stroke-width:10.7"
       d="m -911.68368,13027.524 c 10.02443,-3.897 78.1499,242.245 29.69429,182.599"
       id="path418" /><path
       style="fill:none;stroke:#ffffff;stroke-width:10.7"
       d="m -935.04951,13136.12 c 13.08304,-75.614 143.93418,-17.251 126.56563,-49.919"
       id="path420" /><path
       style="fill:none;stroke:#ffffff;stroke-width:10.7"
       d="m -834.77071,12887.838 c 26.77359,13.136 56.30556,21.727 80.32073,39.409 18.88088,13.902 32.05861,34.395 45.75844,53.423 70.29789,97.638 107.17842,228.905 26.77329,334.108"
       id="path422" /><path
       style="fill:none;stroke:#ffffff;stroke-width:10.7"
       d="m -269.1193,12913.673 c -17.07502,-87.438 17.85657,-85.667 0,0 z"
       id="path424" /><path
       style="fill:none;stroke:#ffffff;stroke-width:10.7"
       d="m -220.92687,13003.002 c 0,21.457 -1.37052,42.957 0,64.37 4.20346,65.673 5.10956,80.551 30.66778,136.183 7.63656,16.622 37.79093,55.827 39.917,37.658 2.27334,-19.427 0.32449,-39.118 0.48674,-58.677"
       id="path426" /><path
       style="fill:none;stroke:#ffffff;stroke-width:10.7"
       d="m -114.3196,12979.356 c -22.85118,31.935 -53.15205,48.17 6.3282,76.631 1.49125,0.713 146.376381,35.13 153.826224,45.54 47.086988,65.796 -148.882364,181.011 -133.380846,95.022"
       id="path428" /><path
       style="fill:none;stroke:#ffffff;stroke-width:10.7"
       d="m 414.33582,12974.539 c -20.60763,8.028 -44.95128,9.785 -61.82286,24.084 -44.74766,37.926 -34.71675,129.85 -2.92044,170.339 9.69369,12.343 158.44273,100.853 126.07887,45.54"
       id="path430" /><path
       style="fill:none;stroke:#ffffff;stroke-width:10.7"
       d="m 592.50107,13119.918 c -81.89375,53.467 -89.41101,-82.378 -36.50895,-113.413 46.04766,-27.014 65.28255,42.902 56.95434,73.565 -3.91303,14.407 -13.63025,26.566 -20.44539,39.848 z"
       id="path432" /><path
       style="fill:none;stroke:#ffffff;stroke-width:10.7"
       d="m 586.17288,12962.716 c 17.68681,9.634 37.50521,16.108 53.06041,28.901 13.44287,11.056 22.8242,26.452 32.12827,41.162 3.64961,5.77 26.48617,83.475 11.68292,64.369 -18.22252,-23.519 -20.34741,-113.344 19.95863,-120.419 24.73031,-4.341 35.57815,52.494 36.99571,65.245 0.63852,5.744 -3.29002,22.199 -4.86796,16.64 -4.06993,-14.339 -1.17004,-79.355 25.31334,-75.317 38.08048,5.806 88.45098,104.63 51.59963,128.739"
       id="path434" /><path
       style="fill:none;stroke:#ffffff;stroke-width:10.7"
       d="m 892.85128,12937.757 c 0.81142,20.435 -2.93253,41.57 2.43427,61.304 4.19436,15.423 15.50988,28.1 25.3128,40.724 68.39357,88.075 117.74045,-117.692 80.32075,-126.55 22.8793,2.919 49.6429,-4.326 68.6378,8.758 16.9406,11.669 22.438,90.921 23.3658,90.643 9.3596,-2.808 5.4867,-159.391 59.8754,-69.186 5.1564,8.552 8.2129,18.222 11.6829,27.586 8.841,23.859 7.6983,25.46 16.5509,45.103"
       id="path436" /><path
       style="fill:none;stroke:#ffffff;stroke-width:10.7"
       d="m 1219.0016,12925.058 c -19.2911,177.991 129.1246,69.323 106.607,-41.161 -3.4914,-17.131 -25.2761,191.036 27.747,136.183"
       id="path438" /><path
       style="fill:none;stroke:#ffffff;stroke-width:10.7"
       d="m 1379.6425,12871.636 c 2.9846,-40.528 -27.9081,-142.132 0,0 10.0293,51.077 34.3088,99.922 36.0227,151.947 0.1297,3.935 -7.7886,-1.168 -11.6829,-1.752"
       id="path440" /><path
       style="fill:none;stroke:#ffffff;stroke-width:10.7"
       d="m 1343.6203,12974.539 c 56.4016,-15.394 114.2525,-25.089 172.8105,-21.456 43.4001,-55.398 43.5897,-67.106 32.615,-123.046"
       id="path442" /><path
       style="fill:none;stroke:#ffffff;stroke-width:10.7"
       d="m 1545.1519,12743.772 c 21.9056,30.507 45.3837,59.943 65.7168,91.519 21.4454,33.303 35.7652,68.764 51.1129,104.655 5.2822,12.353 -16.9314,-50.811 13.6299,-83.636 29.297,-31.467 163.6462,-10.553 154.7999,-69.187 -8.8947,-58.955 -96.0939,-97.178 -129.9733,-35.031 -69.6637,127.788 131.3788,183.866 220.0294,163.333 34.9572,-8.097 30.7776,-6.464 27.7471,-27.587"
       id="path444" /><path
       style="fill:none;stroke:#ffffff;stroke-width:10.7"
       d="m -1047.9853,13556.055 c -84.0535,117.487 -98.0726,295.316 59.38865,357.754 17.66448,7.005 65.69104,15.844 86.64892,5.693"
       id="path446" /><path
       style="fill:none;stroke:#ffffff;stroke-width:10.7"
       d="m -853.7553,13842.871 c 20.00432,-64.027 18.68067,-130.002 18.98459,-196.174 0.0507,-11.044 -3.46212,-40.617 4.38124,-32.841 34.37236,34.074 59.67052,78.808 92.00364,115.164 15.5375,17.471 31.28407,32.764 31.15453,32.842 -3.13047,1.877 -5.74601,-4.512 -8.76221,-6.568 -23.11175,-15.754 -45.38258,-32.879 -69.61127,-46.854 -5.09979,-2.942 -100.05528,-35.842 -108.55425,-44.227 -9.41562,-9.289 23.00907,-14.274 36.02249,-16.64 40.97361,-7.448 109.57703,-20.531 147.9845,5.693 57.94103,39.56 -81.91651,258.648 -79.83371,166.835"
       id="path448" /><path
       style="fill:none;stroke:#ffffff;stroke-width:10.7"
       d="m -709.66531,13503.508 c 95.71746,68.677 176.69414,219.488 150.90523,341.99 -16.78172,79.717 -17.00231,70.507 -41.3772,44.665"
       id="path450" /><path
       style="fill:none;stroke:#ffffff;stroke-width:10.7"
       d="m -207.29671,13530.219 c -7.4062,-73.278 58.75016,-117.439 0,0 z"
       id="path452" /><path
       style="fill:none;stroke:#ffffff;stroke-width:10.7"
       d="m -143.04014,13630.495 c -34.96671,8.665 44.416956,336.288 48.192158,141"
       id="path454" /><path
       style="fill:none;stroke:#ffffff;stroke-width:10.7"
       d="m -59.312223,13580.138 c 52.1767223,65.313 170.880403,126.958 115.856478,225.951 -17.82673,32.071 -61.8322504,58.767 -76.913249,13.136"
       id="path456" /><path
       style="fill:none;stroke:#ffffff;stroke-width:10.7"
       d="m 490.27531,13485.555 c -73.12501,29.751 -121.43827,100.761 -92.49037,183.475 25.53782,72.97 135.81824,37.209 152.85246,-17.954"
       id="path458" /><path
       style="fill:none;stroke:#ffffff;stroke-width:10.7"
       d="m 611.97298,13613.856 c -15.57743,-15.034 -36.44628,-26.053 -46.73222,-45.102 -20.89827,-38.704 46.58257,-64.311 53.06042,-12.699 2.41376,19.231 -4.21881,38.534 -6.3282,57.801 z"
       id="path460" /><path
       style="fill:none;stroke:#ffffff;stroke-width:10.7"
       d="m 646.53497,13469.353 c 58.10456,17.204 66.4569,70.785 81.78093,123.922 4.18283,14.504 6.68184,29.444 9.73596,44.227 0.35589,1.723 0.4668,7.013 0.48675,5.254 0.40659,-35.847 -13.01956,-127.942 21.41884,-146.692 12.8402,-6.991 32.18992,59.822 25.31335,78.382 -0.60852,1.642 -0.279,-3.525 0,-5.255 1.82494,-11.31 13.21223,-64.615 33.58851,-59.553 22.66082,5.63 82.50518,70.833 61.33557,99.401 -2.37799,3.209 -1.29796,-7.882 -1.94696,-11.823"
       id="path462" /><path
       style="fill:none;stroke:#ffffff;stroke-width:10.7"
       d="m 882.6286,13443.955 c 19.30945,24.668 41.37237,47.409 57.92838,74.003 8.17853,13.137 10.15746,59.187 14.11719,44.227 5.34804,-20.205 -7.02848,-101.119 30.66748,-101.59 33.41855,-0.417 42.02925,53.848 30.18135,75.755 -6.6095,12.22 -5.7523,-56.695 30.1807,-44.227 20.8191,7.223 28.4952,72.243 33.5886,91.081"
       id="path464" /><path
       style="fill:none;stroke:#ffffff;stroke-width:10.7"
       d="m 1102.1719,13468.477 c 20.2829,16.932 38.784,36.261 60.8488,50.795 8.16,5.375 18.472,7.456 28.2338,7.882 73.0478,3.189 27.2718,-125.253 18.9846,-157.202"
       id="path466" /><path
       style="fill:none;stroke:#ffffff;stroke-width:10.7"
       d="m 1225.8165,13308.21 c 10.5472,18.099 22.2891,35.554 31.6416,54.298 18.3779,36.834 27.8782,64.926 36.5095,104.217 1.8637,8.485 2.4988,17.197 3.4072,25.836 0.2289,2.177 -0.1429,8.753 0,6.568 1.1373,-17.393 26.8536,-152.494 67.6643,-113.851 25.1612,23.825 23.303,73.615 33.1018,105.093"
       id="path468" /><path
       style="fill:none;stroke:#ffffff;stroke-width:10.7"
       d="m 1452.1748,13370.828 c -6.6529,21.31 -22.6367,41.768 -19.9587,63.932 2.663,22.038 15.9855,44.772 34.562,56.925 93.2576,61.01 120.8303,-146.68 107.5811,-151.071 -12.8091,-4.246 -40.3782,220.459 32.615,133.556"
       id="path470" /><path
       style="fill:none;stroke:#ffffff;stroke-width:10.7"
       d="m 1641.0494,13377.834 c 35.5862,-244.155 -44.5178,84.524 36.9963,113.851"
       id="path472" /><path
       style="fill:none;stroke:#ffffff;stroke-width:10.7"
       d="m 1599.6725,13406.735 c 17.5405,-4.698 140.2471,-48.917 148.958,7.882 88.9785,-2.842 82.2677,24.809 82.2677,-22.77"
       id="path474" /><path
       style="fill:none;stroke:#ffffff;stroke-width:10.7"
       d="m 1823.5959,13306.896 c -14.7273,-50.445 -9.2657,-97.19 25.8001,-137.496 21.4189,32.696 48.2739,62.417 64.2566,98.087 17.9812,40.129 14.4637,86.961 26.7736,129.177 2.7781,9.527 10.8071,37.503 11.1962,27.587 0.9456,-24.105 -8.9731,-71.32 4.8679,-94.146 8.2979,-13.685 165.6814,8.697 144.09,-59.115 -7.4699,-23.461 -18.2926,-47.92 -36.9962,-63.932 -29.7805,-25.495 -67.3318,37.915 -71.5583,108.158 -6.0187,100.032 124.4901,117.123 188.8753,92.395 15.3338,-5.89 18.498,-27.149 27.747,-40.724"
       id="path476" /><path
       style="fill:none;stroke:#ffffff;stroke-width:10.7"
       d="m -830.30991,15791.732 c -9.05777,-17.949 -18.11496,-168.411 54.52062,-155.888 58.41045,10.071 94.67395,79.774 120.23743,126.988 24.3767,45.022 27.0369,68.547 19.95837,62.18 -40.62174,-36.541 -76.00876,-135.259 -137.27506,-144.941 -18.03641,-2.85 -58.24133,79.459 -57.44136,111.661 0.75239,30.289 20.00911,57.215 31.15453,85.389 1.70394,4.307 2.78907,12.866 7.30194,11.823 35.9763,-8.322 -26.00283,-466.84 97.84511,-218.069 7.83339,15.735 14.24575,32.159 20.4451,48.606 11.16925,29.633 18.5076,58.706 28.23405,88.453"
       id="path478" /><path
       style="fill:none;stroke:#ffffff;stroke-width:10.7"
       d="m -496.85792,15785.602 c 24.11796,-78.707 22.56988,-50.51 21.41884,-124.798 -1.44674,-93.372 -2.31291,-40.006 -4.38124,-112.099 -0.27765,-9.679 -5.03618,-34.418 2.92074,-28.901 37.32874,25.884 65.224,79.466 92.00364,114.727 33.51921,44.135 50.54335,59.412 41.86396,63.056 -18.85767,7.916 -245.90637,-54.218 -246.31634,-57.364 -2.46478,-18.911 15.52258,-36.405 30.18105,-48.606 21.00731,-17.483 177.19048,-105.584 208.34659,-75.316 17.21972,16.729 -19.22774,108.395 -19.95836,110.348 -9.23658,24.686 -20.54117,48.577 -32.12831,72.251 -36.123,73.805 -17.87874,49.855 -93.95057,86.702 z"
       id="path480" /><path
       style="fill:none;stroke:#ffffff;stroke-width:10.7"
       d="m -256.38307,15504.04 c 4.38114,-15.326 28.46953,-41.597 13.14342,-45.978 -61.91831,-17.7 9.93747,77.826 29.20728,138.81 18.7415,59.313 12.18827,119.75 37.483,177.345"
       id="path482" /><path
       style="fill:none;stroke:#ffffff;stroke-width:10.7"
       d="m 39.585909,15553.96 c 16.969538,6.522 218.871671,-1.336 89.569641,33.717"
       id="path484" /><path
       style="fill:none;stroke:#ffffff;stroke-width:10.7"
       d="m 56.136794,15618.329 c 64.654066,11.722 134.207656,-2.99 192.769446,-32.842"
       id="path486" /><path
       style="fill:none;stroke:#ffffff;stroke-width:10.7"
       d="m 652.94273,15604.754 c 3.8944,-21.164 6.02189,-42.731 11.68318,-63.493 36.64802,-134.401 83.06511,-97.38 147.01072,-3.066 5.35438,7.897 44.15968,60.028 41.3775,78.382 -0.24468,1.614 -3.35568,-0.919 -4.38123,-2.189 -8.97533,-11.118 -16.14183,-23.637 -25.31335,-34.593 -9.68161,-11.566 -60.1635,-79.427 -93.46385,-94.146 -46.40114,-20.511 -82.44446,11.867 -90.54314,61.742 -3.15008,19.399 -1.71977,69.637 13.63017,57.363 69.51615,-55.584 30.08122,-87.878 58.90186,-139.248 36.65087,-65.327 116.07395,105.664 126.56563,151.509"
       id="path488" /><path
       style="fill:none;stroke:#ffffff;stroke-width:10.7"
       d="m -820.61981,16717.996 c -6.73722,-32.416 39.41704,-227.445 106.60726,-186.541 66.4586,40.459 87.90501,164.371 132.8941,225.075 4.7744,6.442 -3.54211,-15.69 -6.3282,-23.208"
       id="path490" /><path
       style="fill:none;stroke:#ffffff;stroke-width:10.7"
       d="m -440.92265,16694.349 c 14.27805,-62.477 28.43905,-125.204 34.07553,-189.167 2.12267,-24.089 4.2826,-50.002 4.38094,-49.919 9.58001,8.043 83.15849,205.026 97.35836,235.146 5.60498,11.888 9.17276,40.477 20.44509,33.717 3.11817,-1.87 1.94715,-7.006 2.92074,-10.51"
       id="path492" /><path
       style="fill:none;stroke:#ffffff;stroke-width:10.7"
       d="m -120.61409,16496.862 c -8.43372,-98.837 2.067,-4.665 0,0 -13.09005,29.547 -57.06159,44.398 -59.38833,76.631 -2.24335,31.077 49.95196,69.522 82.267689,63.493 28.696025,-5.354 47.968388,-29.471 55.007371,-56.487 23.074885,-88.562 -80.7256,-130.143 6.814942,-16.64 13.718999,17.788 29.2314751,34.149 44.7849611,50.357 22.1413979,23.073 51.5134969,44.091 69.1242719,71.814"
       id="path494" /><path
       style="fill:none;stroke:#ffffff;stroke-width:10.7"
       d="m 405.60735,16470.589 c 23.76556,-8.576 280.08026,-117.03 185.4672,-6.13"
       id="path496" /><path
       style="fill:none;stroke:#ffffff;stroke-width:10.7"
       d="m 463.53543,16545.906 c 76.94549,-22.856 155.00517,-56.418 236.58039,-53.423"
       id="path498" /><path
       style="fill:none;stroke:#ffffff;stroke-width:10.7"
       d="m 899.70047,15970.959 c -19.67389,60.342 -12.11501,125.324 3.4072,186.102 1.993,7.804 -0.0877,-16.247 -1.94696,-24.084 -8.34891,-35.19 -16.93895,-64.401 -31.1548,-97.649 -13.97053,-32.674 -43.01183,-71.131 -32.61503,-72.689 20.72259,-3.107 41.53975,5.546 62.30959,8.32 27.74707,-16.348 52.25674,-40.262 83.2412,-49.044 41.84233,-11.859 86.70363,-7.01 129.97333,-11.385 23.5414,-2.38 87.1581,-8.046 67.6638,-21.456 -62.9886,-43.331 11.7348,171.46 13.1437,176.469"
       id="path500" /><path
       style="fill:none;stroke:#ffffff;stroke-width:10.7"
       d="m 1069.5906,16072.549 c -58.353,0.112 -80.17215,108.403 -18.9852,119.105 31.0554,5.432 64.9043,-26.706 52.5737,-58.677 -8.2928,-21.501 -46.6531,-79.413 -33.5885,-60.428 26.428,38.402 65.6718,143.09 78.3732,89.767"
       id="path502" /><path
       style="fill:none;stroke:#ffffff;stroke-width:10.7"
       d="m 1126.0582,16394.834 c 4.7835,28.319 32.615,62.106 32.615,93.708"
       id="path504" /><path
       style="fill:none;stroke:#ffffff;stroke-width:10.7"
       d="m 1012.6357,16560.356 c -35.29368,178.568 71.751,131.267 196.6636,102.903 12.9752,-2.946 25.9145,-6.06 38.9438,-8.757 5.3131,-1.1 10.6425,-2.406 16.0636,-2.628 2.342,-0.1 4.8892,4.916 6.3288,3.066 23.403,-30.074 2.1823,-111.343 -2.921,-139.249 -5.0707,-27.727 -10.3479,-58.228 -35.5355,-68.748"
       id="path506" /><path
       style="fill:none;stroke:#ffffff;stroke-width:10.7"
       d="m 1182.039,17038.967 c -6.1793,-84.498 -8.4918,-41.808 1.9476,-105.531 5.3708,-32.784 7.515,-43.269 9.2486,-73.565 1.8824,-32.895 -0.012,-42.947 2.4343,-42.475 1.236,0.238 89.101,112.483 96.3848,122.609 7.3966,10.282 25.5112,23.886 17.5244,33.717 -7.0105,8.63 -120.6531,-46.15 -133.3811,-49.043 -48.1326,-10.941 -103.85,-5.491 -93.4639,-10.072 54.2741,-23.938 78.3205,-33.047 131.4336,-46.416 22.1794,-5.583 68.3156,-20.032 94.9246,-16.202 5.3564,0.771 -2.564,10.69 -5.3547,15.326 -13.4082,22.276 -26.3397,44.911 -41.3775,66.121 -53.4441,75.382 -97.6321,109.375 -100.7655,200.991 -0.4443,12.99 20.8586,-15.873 29.2073,-25.836"
       id="path508" /><path
       style="fill:none;stroke:#ffffff;stroke-width:10.7"
       d="m 1463.4046,15843.533 c 1.9472,13.137 8.4485,26.389 5.8415,39.41 -3.8155,19.058 -16.2262,35.323 -24.3393,52.985 -11.5209,35.907 -29.3644,70.37 -34.5626,107.72 -19.3927,139.339 -6.9176,245.747 81.781,353.814 47.5397,57.92 158.1734,125.927 108.5545,112.537"
       id="path510" /><path
       style="fill:none;stroke:#ffffff;stroke-width:10.7"
       d="m 1733.5735,16279.232 c -6.9773,-13.867 -19.5061,-26.142 -20.9321,-41.6 -3.9604,-42.93 18.8175,-147.2 76.9135,-151.071 34.008,-2.266 72.8972,144.507 75.939,177.344"
       id="path512" /><path
       style="fill:none;stroke:#ffffff;stroke-width:10.7"
       d="m 1902.0034,15825.142 c 64.2525,41.386 45.0843,21.396 99.3053,117.792 94.4541,167.923 156.6383,375.993 50.6267,554.804"
       id="path514" /><path
       style="fill:none;stroke:#ff00ff;stroke-width:10.7"
       d="m -1160.8544,18935.494 c 32.2638,-60.043 50.2507,-164.869 125.1054,-188.292"
       id="path516" /><path
       style="fill:none;stroke:#ff00ff;stroke-width:10.7"
       d="m -1053.2734,17451.054 c -78.8344,30.54 -69.6434,9.848 -102.2263,96.336 -55.725,147.915 -37.5663,231.964 135.8148,197.925 19.6209,-3.852 66.87217,-8.901 68.15082,-37.658"
       id="path581" /><path
       style="fill:none;stroke:#ff00ff;stroke-width:10.7"
       d="m -911.13036,17609.57 c -0.94043,13.441 -14.77428,65.682 5.84145,84.512 31.67996,28.935 91.36673,-34.905 76.91297,-65.245 -3.47022,-7.285 0.55004,16.238 2.43401,24.083 10.20715,42.508 0.0577,80.777 44.78467,51.671"
       id="path583" /><path
       style="fill:none;stroke:#ff00ff;stroke-width:10.7"
       d="m -775.31579,17543.448 c 16.87547,19.267 35.01599,37.496 50.62641,57.802 40.7571,53.015 4.18726,12.56 22.39234,42.037 0.1904,0.308 -12.47608,-40.516 6.3282,-86.264 16.26143,-39.562 55.92675,35.599 58.41511,39.848 8.89505,15.186 16.52667,31.083 24.3396,46.854 9.69153,19.562 13.13471,29.154 21.90559,45.54"
       id="path585" /><path
       style="fill:none;stroke:#ff00ff;stroke-width:10.7"
       d="m -299.7208,17518.927 c -9.89809,-13.429 -16.26571,-50.184 -29.69429,-40.286 -13.42859,9.898 19.76122,26.883 29.69429,40.286 29.3349,39.582 58.5949,79.219 88.10943,118.667 21.31584,28.49 40.84311,53.558 41.37722,52.985 25.45618,-27.302 -24.9436,-89.478 -3.89449,-118.23 20.22582,-27.628 117.362624,168.431 109.041258,59.553 -1.376174,-18.006 -11.508321,-36.714 -5.841454,-53.86 0.964623,-2.919 204.795356,-57.089 118.290187,-118.23 -52.5818118,-37.164 -116.913624,65.207 -92.490376,107.282 53.5877042,92.319 152.017055,80.76 237.554135,66.997 10.47555,-1.685 58.1531,-4.839 41.37749,-24.959"
       id="path587" /><path
       style="fill:none;stroke:#ff00ff;stroke-width:10.7"
       d="m 565.79409,17353.405 c -21.74336,12.553 -45.95228,21.574 -65.23006,37.658 -161.30595,134.586 170.79666,93.634 212.7278,140.125 27.03801,29.977 -81.85174,129.551 -116.34322,116.04 -13.4444,-5.267 -15.25272,-24.522 -22.8791,-36.783"
       id="path589" /><path
       style="fill:none;stroke:#ff00ff;stroke-width:10.7"
       d="m 648.5485,17457.185 c 24.94936,-33.072 24.97225,-108.855 67.66407,-50.358 39.92334,54.705 65.10922,80.245 72.04498,140.563 1.43505,12.48 -2.58583,-25.147 -1.46021,-37.659 1.94093,-21.574 15.05066,-69.813 32.12827,-56.487 36.04988,28.13 42.9065,59.91 57.92812,105.093 4.34178,13.059 -3.87258,33.658 5.84144,7.444"
       id="path591" /><path
       style="fill:none;stroke:#ff00ff;stroke-width:10.7"
       d="m 972.26483,17517.613 c -50.97166,61.888 -97.43347,-29.281 -78.86023,-67.873 19.38216,-40.272 84.98872,-37.735 92.49037,10.948 2.97154,19.283 -9.08677,37.95 -13.63014,56.925 z"
       id="path593" /><path
       style="fill:none;stroke:#ff00ff;stroke-width:10.7"
       d="m 966.42336,17362.601 c 54.75944,-7.298 39.81234,-17.078 75.93924,45.102 10.2986,17.726 17.8202,36.968 25.3133,56.05 43.0392,109.602 -36.2278,-76.09 3.8942,-90.643 47.6286,-17.276 104.4621,154.675 105.6335,87.578 0.3746,-21.456 -0.3956,-42.955 0.9735,-64.37 3.2001,-50.053 6.7431,-68.332 17.0382,-111.224"
       id="path595" /><path
       style="fill:none;stroke:#ff00ff;stroke-width:10.7"
       d="m 1533.5347,17141.905 c -3.6068,98.852 100.6165,193.456 106.1208,285.065"
       id="path597" /><path
       style="fill:none;stroke:#ff00ff;stroke-width:10.7"
       d="m 1527.6933,17343.334 c -118.2304,-74.873 66.2048,-70.181 96.3848,-123.923 17.9424,-31.949 3.6366,-19.619 8.7625,-48.605 2.6613,-15.05 18.9553,24.088 26.7736,37.22 21.6334,36.337 41.5384,73.679 61.8223,110.786 5.9842,10.948 11.18,41.289 19.4713,31.966 12.3142,-13.846 21.6035,-101.675 36.9963,-101.153 40.0378,1.359 37.7797,80.287 70.5847,93.271 6.4611,2.557 12.9813,-4.963 19.4719,-7.444"
       id="path599" /><path
       style="fill:none;stroke:#ff00ff;stroke-width:10.7"
       d="m 1888.4056,17234.737 c -35.4705,88.17 47.9013,91.267 79.8339,10.072 9.604,-24.42 0.1751,-103.636 7.3017,-78.382 4.6474,16.468 50.7078,168.23 70.098,157.64 8.1319,-4.441 11.034,-14.889 16.5509,-22.333"
       id="path601" /><path
       style="fill:none;stroke:#ff00ff;stroke-width:10.7"
       d="m 2072.4128,17194.452 c 59.3815,-45.304 -20.0715,-82.463 -16.0641,-123.923 0.3039,-3.145 25.5273,62.411 25.8001,63.056 19.5207,46.21 69.1641,126.173 65.7168,177.345"
       id="path603" /><path
       style="fill:none;stroke:#ff00ff;stroke-width:10.7"
       d="m 2056.3487,17256.632 c 35.8921,-73.863 112.6862,-78.335 180.5995,-106.845"
       id="path605" /><path
       style="fill:none;stroke:#ff00ff;stroke-width:10.7"
       d="m 2652.1811,17129.206 c 26.8417,-68.901 30.1106,-138.852 33.1017,-211.499 1.6624,-40.371 -3.3075,-64.099 3.4079,-56.926 67.6134,72.223 113.1903,167.408 186.9276,236.898"
       id="path607" /><path
       style="fill:none;stroke:#ff00ff;stroke-width:10.7"
       d="m 3039.1802,16802.104 c -6.0036,-16.494 -15.8329,-32.064 -18.011,-49.481 -1.2652,-10.116 12.2167,-34.38 17.0376,-25.398 10.4323,19.438 2.1892,56.833 0.9734,74.879 z"
       id="path609" /><path
       style="fill:none;stroke:#ff00ff;stroke-width:10.7"
       d="m 3095.6479,16895.812 c -5.0681,15.099 -29.5884,283.581 57.9284,123.047"
       id="path611" /><path
       style="fill:none;stroke:#ff00ff;stroke-width:10.7"
       d="m 3210.5305,16882.238 c -11.9505,56.438 -18.5653,29.754 43.3244,64.807 13.7645,7.796 28.5189,14.227 40.8909,24.084 108.3738,86.345 -172.2901,178.111 -151.8791,113.851"
       id="path613" /><path
       style="fill:none;stroke:#ff00ff;stroke-width:10.7"
       d="m -1197.8504,18189.771 c -3.5169,-15.959 15.7634,-219.194 45.2714,-211.938 50.1292,12.328 87.9027,90.465 104.6603,132.242 4.2181,10.516 5.8806,21.884 8.7622,32.842 0.6883,2.617 1.7224,10.579 1.9473,7.882 0.7034,-8.438 -0.3247,-16.932 -0.4871,-25.398"
       id="path615" /><path
       style="fill:none;stroke:#ff00ff;stroke-width:10.7"
       d="m -942.28515,18050.085 c 16.55075,101.45 -76.61125,36.77 -73.50555,-23.646 0.5604,-10.902 4.0081,-24.622 13.6302,-29.776 64.93485,-34.79 118.61653,42.138 134.84133,76.192"
       id="path617" /><path
       style="fill:none;stroke:#ff00ff;stroke-width:10.7"
       d="m -847.3608,17916.091 c 46.04509,-36.83 154.09733,182.405 65.71681,186.102"
       id="path619" /><path
       style="fill:none;stroke:#ff00ff;stroke-width:10.7"
       d="m -861.4777,18045.268 c 54.43826,-20.886 112.26615,-35.26 170.86358,-27.149"
       id="path621" /><path
       style="fill:none;stroke:#ff00ff;stroke-width:10.7"
       d="m -234.97747,17979.585 c 4.05655,-12.407 24.57642,-33.164 12.16966,-37.221 -12.40677,-4.056 -6.69803,25.37 -12.16966,37.221 -25.37894,54.968 -55.62592,75.505 -43.32446,139.686 15.09558,78.758 121.47731,79.5 165.50914,31.09"
       id="path623" /><path
       style="fill:none;stroke:#ff00ff;stroke-width:10.7"
       d="m -114.2533,18027.315 c 60.46391,3.94 191.393494,-3.959 130.946865,-94.584"
       id="path625" /><path
       style="fill:none;stroke:#ff00ff;stroke-width:10.7"
       d="m 6.9578956,17864.42 c 23.2036714,19.559 48.9966244,36.406 69.6110134,58.677 15.008899,16.215 29.002791,49.658 34.075251,72.69 1.38838,6.304 1.9327,24.426 -1.94696,19.267 -11.296331,-15.022 -20.550334,-83.887 9.73567,-87.14 32.76261,-3.519 56.1397,53.028 69.12454,69.186 1.17619,1.464 2.55513,-2.975 2.92073,-4.816 2.73116,-13.759 2.80626,-65.877 25.31307,-70.938 41.2531,-9.277 64.47523,87.78 87.13566,84.074"
       id="path627" /><path
       style="fill:none;stroke:#ff00ff;stroke-width:10.7"
       d="m 294.65144,17880.622 c 0.81132,-12.115 14.54894,-35.533 2.43398,-36.345 -12.11497,-0.811 -7.96821,25.538 -2.43398,36.345 14.52002,28.356 43.20691,47.437 59.38832,74.879 5.58245,9.467 1.80637,42.763 -2.92073,32.841 -14.92062,-31.317 -18.30171,-131.199 15.5774,-150.633 37.20324,-21.34 79.11679,108.833 89.0829,111.224 0.65577,0.157 3.84614,-24.329 10.22242,-35.907 28.80164,-52.296 72.12988,-1.085 93.46414,28.901"
       id="path629" /><path
       style="fill:none;stroke:#ff00ff;stroke-width:10.7"
       d="m 791.17828,17805.305 c -6.65279,23.5 -22.44733,46.204 -19.95836,70.5 5.15577,50.329 77.09132,112.348 128.99964,102.904 104.38874,-18.991 73.32982,-155.77 38.45647,-218.506"
       id="path631" /><path
       style="fill:none;stroke:#ff00ff;stroke-width:10.7"
       d="m 1016.5628,17693.206 c 11.8116,57.581 53.1767,101.424 80.8072,151.509 10.387,18.829 16.2818,40.047 27.7473,58.239 1.3792,2.189 4.8678,-1.751 7.3017,-2.627"
       id="path633" /><path
       style="fill:none;stroke:#ff00ff;stroke-width:10.7"
       d="m 1155.7848,17791.731 c -2.9954,9.157 0.4168,82.156 32.1283,70.938 26.3519,-9.322 44.0595,-55.081 51.6002,-73.565 5.8093,-14.24 9.2185,-29.357 13.1431,-44.227 1.5178,-5.751 2.6511,-23.415 3.4077,-17.516 3.8564,30.068 5.718,193.635 51.1129,154.575"
       id="path635" /><path
       style="fill:none;stroke:#ff00ff;stroke-width:10.7"
       d="m 1352.4485,17722.107 c -18.1576,-7.992 27.2411,-186.535 17.0376,-55.174 -1.4906,19.19 -21.4576,36.44 -17.0376,55.174 6.571,27.851 71.0874,66.219 41.3775,105.093 -27.5848,-27.733 -68.4244,-46.802 -82.7545,-83.199 -5.7166,-14.519 25.7957,-21.049 41.377,-21.894 31.2697,-1.696 87.1516,3.079 117.8037,26.711 16.1064,12.418 -11.6629,-4.244 -6.8149,-51.671 5.7219,-55.976 40.1474,-112.861 33.5885,-169.9 -3.4566,-30.06 -1.2024,61 4.8679,90.643 3.6638,17.891 46.1168,182.884 92.4904,149.757 35.4817,-25.346 10.5056,-80.657 26.2863,-114.726 9.4215,-20.341 103.0979,3.191 86.1622,-48.606 -18.673,-57.11 -92.9961,-51.4 -89.5694,17.954 4.4693,90.456 153.6682,145.165 181.573,74.878"
       id="path637" /><path
       style="fill:none;stroke:#ff00ff;stroke-width:10.7"
       d="m 1846.5419,17519.364 c -23.2692,-56.697 109.0136,-148.486 117.3164,-57.801 8.005,87.434 -58.0468,171.659 -14.6034,254.413"
       id="path639" /><path
       style="fill:none;stroke:#ff00ff;stroke-width:10.7"
       d="m 2041.258,17945.868 c -33.264,-4.817 -66.528,-9.634 -99.792,-14.451"
       id="path641" /><path
       style="fill:none;stroke:#ffffff;stroke-width:10.7"
       d="m -2095.5259,20590.266 c 36.1346,-23.857 97.2473,-124.464 157.7203,-113.851"
       id="path643" /><path
       style="fill:none;stroke:#ffffff;stroke-width:10.7"
       d="m -171.52394,19514.806 c -7.30186,-12.115 -18.72695,-22.561 -21.9056,-36.344 -11.1121,-48.185 25.48672,-205.842 92.97712,-204.056 53.908475,1.426 111.475247,129.315 111.475247,176.469 0,6.483 -2.5233795,-0.08 -31.641546,-35.469 -14.657297,-17.814 -87.847391,-129.623 -120.724171,-95.46 -28.71762,29.842 -32.17956,105.434 -33.58852,142.752 -0.65673,17.394 0.60768,69.288 3.40747,52.108 12.72546,-78.085 -3.21817,-168.832 44.29795,-239.086 23.66653,-34.992 47.204536,-3.553 59.388601,21.894 8.458766,17.667 13.846442,36.71 18.98487,55.611 8.799986,32.371 10.1669,67.252 16.064145,99.839"
       id="path647" /><path
       style="fill:none;stroke:#ffffff;stroke-width:10.7"
       d="m 138.56222,19521.813 c -11.19002,-34.439 -3.69217,-67.055 -1.94725,-101.591 -3.56981,-50.503 -11.76234,-100.89 -10.70942,-151.508 0.42294,-20.333 9.88281,-39.457 15.09066,-59.115 3.35233,-12.655 14.96719,-81.188 26.28655,-90.643 4.99939,-4.176 13.07942,17.081 31.64155,79.696 23.70774,79.972 49.99278,150.726 93.9506,221.571"
       id="path649" /><path
       style="fill:none;stroke:#ffffff;stroke-width:10.7"
       d="m 398.99544,19259.518 c -53.61525,8.244 -118.6283,103.112 -77.39973,148.006 23.13374,25.19 183.45525,-70.778 165.99561,-133.994 -7.95985,-28.82 -88.77456,-43.911 -88.59588,-14.012 0.18616,31.15 157.92949,166.923 184.98076,208.434"
       id="path651" /><path
       style="fill:none;stroke:#ffffff;stroke-width:10.7"
       d="m 758.73426,19217.48 c 11.88153,16.3 228.87524,-54.61 123.64489,0"
       id="path653" /><path
       style="fill:none;stroke:#ffffff;stroke-width:10.7"
       d="m 770.9039,19303.306 c 58.59981,4.47 119.23209,-22.201 178.16554,-12.26"
       id="path655" /><path
       style="fill:none;stroke:#ffffff;stroke-width:10.7"
       d="m 1249.4197,18737.117 c -27.2201,48.371 16.1014,107.479 8.7621,155.888 -4.1009,27.05 -23.3673,-49.568 -32.615,-75.316 -4.8684,-13.555 -15.7714,-27.789 -11.6829,-41.6 4.9905,-16.857 19.99,-30.762 35.5358,-38.972 170.509,-90.043 112.2382,-43.381 243.3955,-84.512 12.8099,-4.017 54.8526,-41.839 45.7585,-47.292 -1.8134,-1.087 -8.1679,12.71 -5.8415,53.422 3.272,57.26 15.1182,108.828 40.8905,159.829"
       id="path657" /><path
       style="fill:none;stroke:#ffffff;stroke-width:10.7"
       d="m 1435.8606,18954.31 c -37.0349,-34.696 -110.7759,64.761 -67.6638,88.891 39.4383,22.074 97.0743,-15.919 115.3695,-50.357 12.0619,-22.705 -50.5491,-44.563 -47.7057,-38.534 24.0546,51.004 78.9293,58.799 104.1733,104.217"
       id="path659" /><path
       style="fill:none;stroke:#ffffff;stroke-width:10.7"
       d="m 1458.74,19323.449 c 9.5377,21.148 32.479,68.244 17.0376,93.708"
       id="path661" /><path
       style="fill:none;stroke:#ffffff;stroke-width:10.7"
       d="m 1328.2799,19438.614 c 35.2802,186.848 74.9162,163.334 238.0408,121.733 14.9117,-3.803 70.9071,-7.245 79.8337,-27.587 4.9684,-11.323 24.4702,-259.921 -24.3395,-239.963"
       id="path663" /><path
       style="fill:none;stroke:#ffffff;stroke-width:10.7"
       d="m 1535.1662,19822.204 c 6.815,-16.64 15.157,-32.734 20.4451,-49.92 7.6085,-24.727 11.7746,-66.177 16.5509,-91.956 13.7819,-74.385 103.0762,126.03 97.3583,135.745 -8.7871,14.931 -68.2533,-23.247 -74.966,-22.332 -57.9999,7.905 -85.1221,91.877 -113.9089,-43.351 -5.0681,-23.808 214.335,-110.64 229.7654,-84.512 21.9668,37.195 -128.4159,212.1 -151.879,242.151 -10.0507,12.873 -20.0712,25.777 -29.6943,38.972 -4.9729,6.82 -18.3789,28.304 -14.1169,21.019 4.3414,-7.42 9.0868,-14.596 13.6302,-21.894"
       id="path665" /><path
       style="fill:none;stroke:#ffffff;stroke-width:10.7"
       d="m 1989.4675,18766.497 c -0.4868,-13.137 2.097,-26.755 -1.4605,-39.41 -0.8427,-2.998 -9.3642,-1.798 -9.2489,1.314 0.4885,13.182 17.9398,27.063 10.7094,38.096 -18.0018,27.469 -58.1441,34.897 -76.4262,62.18 -18.5238,27.643 -23.2836,62.715 -29.2076,95.46 -21.8114,120.561 -5.9148,153.594 61.3356,273.68 14.9905,26.767 96.376,101.646 119.7507,124.798 26.649,26.394 27.3842,26.001 43.8112,48.167 2.8512,3.848 -5.8415,-7.59 -8.7622,-11.385"
       id="path667" /><path
       style="fill:none;stroke:#ffffff;stroke-width:10.7"
       d="m 2171.0405,19162.785 c -23.2549,-35.117 -8.3142,-244.479 52.5734,-218.505 47.1416,20.11 56.3932,95.998 80.8075,134.431"
       id="path669" /><path
       style="fill:none;stroke:#ffffff;stroke-width:10.7"
       d="m 2460.1945,18641.261 c 141.3272,141.937 232.0503,315.826 236.0939,520.649 0.7956,40.298 -51.6276,204.164 -86.1621,237.335 -3.9028,3.749 -3.5698,-10.217 -5.3547,-15.326"
       id="path671" /><path
       style="fill:none;stroke:#ffffff;stroke-width:10.7"
       d="m -644.34061,21149.976 c -13.50291,-33.414 21.93732,-177.799 80.32056,-141 43.97415,27.716 67.88494,72.874 78.37334,121.733 1.03056,4.8 7.05925,73.895 1.46037,51.233"
       id="path695" /><path
       style="fill:none;stroke:#ffffff;stroke-width:10.7"
       d="m -357.13382,21195.516 c 30.90108,-95.094 4.99573,-19.456 43.32443,-119.543 1.16012,-3.029 24.0024,-82.825 39.91687,-99.401 10.60335,-11.044 14.32215,27.181 19.47161,41.599 20.74621,58.089 48.60367,114.833 66.69043,173.404"
       id="path697" /><path
       style="fill:none;stroke:#ffffff;stroke-width:10.7"
       d="m 19.155866,21040.942 c -55.009674,3.534 -85.342591,-12.017 -93.950739,65.683 -2.504638,22.608 6.396363,46.423 18.497992,65.683 6.279793,9.994 20.330488,14.524 32.128288,14.888 66.347556,2.046 109.560417,-55.557 118.777068,-115.602 3.542496,-23.079 2.429357,-71.68 -20.445237,-66.997 -21.530106,4.408 -57.701438,14.534 -55.007372,36.345 2.9645,24 44.566945,19.894 63.769557,34.593 15.081437,11.544 23.520587,30.037 37.482997,42.913 35.46387,32.703 77.72854,55.414 112.93548,88.015"
       id="path699" /><path
       style="fill:none;stroke:#ffffff;stroke-width:10.7"
       d="m 559.00731,21015.544 c 26.02005,5.909 192.72178,-49.53 159.18066,12.699"
       id="path701" /><path
       style="fill:none;stroke:#ffffff;stroke-width:10.7"
       d="m 604.27874,21129.395 c 15.57731,6.568 29.8338,19.207 46.73192,19.705 43.36439,1.276 134.79769,-46.87 178.65257,-30.214 3.09626,1.176 -1.62267,6.422 -2.43399,9.633"
       id="path703" /><path
       style="fill:none;stroke:#ffffff;stroke-width:10.7"
       d="m 1242.9489,20658.228 c -22.6995,63.445 -15.0997,28.292 -12.6567,124.36 4.4225,173.905 -27.2754,-90.351 12.6567,-124.36 18.0849,-15.403 47.9761,0.304 71.0715,-5.255 23.5891,-5.678 44.2605,-20.056 67.1773,-28.025 27.9483,-9.719 56.53,-17.594 85.1884,-24.959 119.6649,-30.756 82.5732,-27.761 97.8449,57.363 10.6091,59.135 22.6113,113.85 40.4037,170.338"
       id="path705" /><path
       style="fill:none;stroke:#ffffff;stroke-width:10.7"
       d="m 1428.4164,20890.308 c -129.9402,80.921 45.4365,151.728 84.2149,54.736 9.8983,-24.757 -19.3858,-60.815 -23.8528,-40.723 -6.08,27.346 38.3216,66.161 52.5734,87.139"
       id="path707" /><path
       style="fill:none;stroke:#ffffff;stroke-width:10.7"
       d="m 1445.454,21212.594 c -1.4645,22.414 47.9859,77.369 37.483,115.164"
       id="path709" /><path
       style="fill:none;stroke:#ffffff;stroke-width:10.7"
       d="m 1299.4168,21416.65 c -5.1445,27.022 -2.3877,139.222 25.7998,155.45 23.1758,13.342 170.7065,-32.18 204.4524,-35.907 10.5542,-1.166 78.6685,9.608 87.1356,-4.379 14.3592,-23.72 49.4683,-212.792 15.5771,-218.068 -6.0258,-0.938 -11.6829,3.503 -17.5243,5.255"
       id="path711" /><path
       style="fill:none;stroke:#ffffff;stroke-width:10.7"
       d="m 1451.7822,21848.407 c 69.6244,-30.16 43.1286,-154.601 62.7961,-169.463 4.7241,-3.569 22.6458,26.257 37.483,46.417 18.5508,25.206 108.8787,124.359 117.3167,147.13 4.1844,11.292 -23.7422,-4.614 -35.049,-8.758 -22.3094,-8.176 -95.8623,-39.392 -114.396,-38.972 -24.0393,0.545 -46.2739,33.625 -68.1508,23.646 -156.7852,-71.52 153.7566,-166.769 193.743,-141 54.7587,35.29 -119.5162,216.326 -124.6184,221.572 -12.2535,12.597 -26.922,22.615 -40.8905,33.279 -11.4003,8.703 -48.2167,30.645 -35.049,24.959 4.8229,-2.082 9.4112,-4.67 14.1169,-7.006"
       id="path713" /><path
       style="fill:none;stroke:#ffffff;stroke-width:10.7"
       d="m 1904.9849,20737.923 c -23.0414,20.727 -52.652,35.928 -69.1243,62.18 -78.744,125.495 -79.7461,386.844 -9.2492,515.833 53.0838,97.127 134.9575,152.292 221.49,214.564"
       id="path715" /><path
       style="fill:none;stroke:#ffffff;stroke-width:10.7"
       d="m 4705.9817,22425.543 c 116.8968,0 64.1244,10.479 159.6673,-23.646"
       id="path717" /><path
       style="fill:none;stroke:#ffffff;stroke-width:10.7"
       d="m 2423.5654,15373.673 c -4.0565,15.472 -27.6417,42.359 -12.1696,46.416 15.472,4.057 8.1617,-30.931 12.1696,-46.416 5.8903,-22.758 10.1678,-45.984 17.5249,-68.311 6.829,-20.724 63.6151,-190.927 117.3165,-143.627 24.0153,21.153 55.862,89.384 65.23,107.282 7.1042,13.574 23.9717,56.07 20.4454,41.162 -10.2801,-43.462 -58.3536,-166.558 -128.0264,-151.947 -67.8508,14.229 -54.6118,123.709 -65.7168,165.521 -4.8469,18.25 -39.908,36.355 -26.7736,49.92 15.4981,16.006 54.1805,9.561 66.2041,-9.196 29.645,-46.247 27.6622,-106.326 41.8637,-159.391 8.726,-32.606 17.1322,-66.035 21.4188,-64.37 27.2284,10.577 29.4442,50.632 40.8908,77.506 7.9078,18.566 16.1241,37.034 22.8791,56.05 15.1044,42.52 25.0166,86.287 35.5354,130.053"
       id="path778" /><path
       style="fill:none;stroke:#ffffff;stroke-width:10.7"
       d="m 2833.931,15127.58 c 7.1393,12.26 16.8183,23.36 21.4183,36.782 5.57,16.253 24.2991,112.308 28.2342,134.432 13.7621,77.371 33.7963,119.574 -35.5359,42.037"
       id="path780" /><path
       style="fill:none;stroke:#ffffff;stroke-width:10.7"
       d="m 2792.0668,15255.443 c 43.4454,-52.8 107.6566,-57.579 169.89,-37.221"
       id="path782" /><path
       style="fill:none;stroke:#ffffff;stroke-width:10.7"
       d="m 3186.8542,15089.045 c -51.4495,51.606 -110.4101,85.774 -59.8754,184.351 59.8154,116.681 212.9729,-18.139 212.7279,-93.708 -0.092,-28.349 -11.4062,-58.033 -29.694,-79.695 -15.594,-18.471 -116.2092,-15.311 -123.1585,-10.948 -23.1931,14.564 -103.596,179.745 -7.3017,84.075"
       id="path784" /><path
       style="fill:none;stroke:#ffffff;stroke-width:10.7"
       d="m 3206.3262,14988.769 c -3.57,-14.012 -6.1917,-28.301 -10.7095,-42.037 -3.6401,-11.068 -18.7309,-42.596 -15.0908,-31.528 8.1193,24.685 22.1901,47.831 25.8003,73.565 7.2047,51.357 1.7569,103.792 6.3281,155.451 1.6674,18.841 28.9914,180.917 33.5886,204.931 3.126,16.33 5.2107,33.094 11.1961,48.605 1.847,4.787 11.961,-1.475 14.1171,-6.13"
       id="path786" /><path
       style="fill:none;stroke:#ffffff;stroke-width:10.7"
       d="m 3503.2686,15073.719 c 45.5841,-0.04 256.1601,-115.338 110.9883,2.19"
       id="path788" /><path
       style="fill:none;stroke:#ffffff;stroke-width:10.7"
       d="m 3537.3438,15169.617 c 58.6163,3.918 107.6849,-27.179 162.1017,-42.475"
       id="path790" /><path
       style="fill:none;stroke:#ffffff;stroke-width:10.7"
       d="m 3955.9845,15184.943 c -19.0392,-41.809 -28.6142,-48.056 -13.1437,-103.342 90.3562,-322.898 135.2375,-7.158 210.7808,112.975"
       id="path792" /><path
       style="fill:none;stroke:#ffffff;stroke-width:10.7"
       d="m -389.02,23872.763 c -10.68171,-49.602 24.1386,-208.106 102.22632,-194.422 43.92315,7.697 76.97088,56.821 105.14678,87.577 12.88682,14.067 48.67917,40.691 48.67917,63.056 0,2.199 -4.74435,-1.159 -5.84145,-3.065 -13.63375,-23.682 -19.89875,-49.907 -36.50924,-72.252 -49.44145,-66.507 -121.27297,-100.703 -163.5619,-7.006 -18.60982,41.233 -45.58049,81.105 -50.13968,126.112 -2.31013,22.805 23.22578,39.797 31.15482,61.304 0.13763,0.374 1.11112,29.274 0.97348,28.901 -49.28788,-133.691 -42.7409,-59.033 25.31306,-210.186 6.45824,-14.345 19.22518,-65.568 39.917,-79.696 61.8119,-42.204 101.61755,198.966 109.04126,224.636 3.25051,11.241 40.17611,113.006 32.61503,35.469"
       id="path794" /><path
       style="fill:none;stroke:#ffffff;stroke-width:10.7"
       d="m 47.145052,23864.443 c 32.931266,-104.129 3.555576,-6.758 46.732205,-181.723 48.738793,-180.854 4.504267,-9.314 24.826053,-100.715 2.37606,-10.686 3.09435,21.692 5.35471,32.404 4.55022,21.564 8.6773,43.285 15.09066,64.37 20.80204,68.388 50.23993,147.775 102.71307,197.925"
       id="path796" /><path
       style="fill:none;stroke:#ffffff;stroke-width:10.7"
       d="m 494.01953,23634.114 c -1.0097,-75.928 -50.1683,-61.549 -81.2942,-0.438 -18.06446,35.467 -32.78947,102.971 -20.44539,141.438 49.30182,153.636 339.30891,-31.658 252.15778,-176.031 -43.26281,-71.668 -118.22207,12.192 -150.41819,35.031 -21.84794,15.498 -48.14792,25.003 -67.66433,43.351 -5.43295,5.108 0.78481,26.444 6.32876,21.457 5.21208,-4.689 8.84404,-19.982 10.70888,-26.274"
       id="path798" /><path
       style="fill:none;stroke:#ffffff;stroke-width:10.7"
       d="m 480.3891,23434.875 c 7.79574,24.481 -15.36039,-101.326 -8.27519,-76.63 10.60929,36.979 11.06369,76.144 16.06415,114.289 15.47231,118.025 31.10217,236.08 48.67918,353.813 4.49392,30.101 8.4255,60.307 14.11663,90.205 2.72873,14.335 8.84971,53.408 16.06413,40.723 3.69628,-6.498 3.24532,-14.596 4.86799,-21.894"
       id="path800" /><path
       style="fill:none;stroke:#ffffff;stroke-width:10.7"
       d="m 941.38073,23531.211 c 27.26031,0.146 54.98558,5.453 81.78097,0.437 8.8763,-1.661 245.2071,-103.924 113.9087,-35.031"
       id="path802" /><path
       style="fill:none;stroke:#ffffff;stroke-width:10.7"
       d="m 992.98035,23664.766 c 90.48065,42.802 162.62305,-74.913 248.75055,-64.807"
       id="path804" /><path
       style="fill:none;stroke:#ffffff;stroke-width:10.7"
       d="m 1840.9706,23522.891 c 32.5309,41.074 15.0099,419.345 29.2073,160.704"
       id="path806" /><path
       style="fill:none;stroke:#ffffff;stroke-width:10.7"
       d="m 1827.3407,23137.111 c -45.2812,26.726 -177.325,184.973 -35.536,184.351 45.8049,-0.201 182.759,-74.844 152.8524,-135.307 -37.5214,-75.859 -52.2271,-63.57 -117.3164,-49.044 -21.7052,4.844 -43.921,8.951 -64.2566,17.954 -36.8685,16.322 -40.7843,48.879 -39.9167,49.043 22.8171,4.321 29.0817,-36.349 41.3769,-56.05"
       id="path808" /><path
       style="fill:none;stroke:#ffffff;stroke-width:10.7"
       d="m 1819.065,23016.254 c -12.6566,13.283 -31.7016,22.605 -37.9698,39.848 -21.6336,59.512 9.4072,256.402 16.5509,308.711 1.6971,12.427 -0.5061,29.106 9.736,36.344 6.6345,4.69 7.1396,-14.596 10.7094,-21.894"
       id="path810" /><path
       style="fill:none;stroke:#ffffff;stroke-width:10.7"
       d="m 1574.2089,22884.45 c -25.0919,-93.102 0.08,-10.908 0,0 -0.041,5.621 -12.1493,167.022 -18.9846,177.782 -5.7533,9.058 -9.8746,-29.927 21.9056,-95.459 34.1731,-70.466 85.8966,-120.26 144.5767,-170.338 17.3991,-14.849 35.6614,-28.655 53.5472,-42.914 14.0131,-11.171 51.7273,-49.359 40.4034,-35.468 -56.3745,69.15 31.9922,181.942 58.4151,246.53"
       id="path812" /><path
       style="fill:none;stroke:#ffffff;stroke-width:10.7"
       d="m 1722.6801,23861.816 c -32.6377,10.323 -1.5181,-45.467 -17.0376,-51.671 -16.8401,-6.732 18.4187,33.588 17.0376,51.671 -0.5694,7.456 -59.2013,99.01 -8.2751,112.099 35.3163,9.077 72.615,-7.095 109.0412,-8.758 30.9601,-1.413 62.0136,-1.336 92.9771,0 5.1497,0.223 119.2844,20.871 136.7883,4.817 28.2185,-25.881 28.9305,-268.077 -2.4342,-283.751 -18.2535,-9.122 -27.1459,43.817 -28.7206,49.919"
       id="path814" /><path
       style="fill:none;stroke:#ffffff;stroke-width:10.7"
       d="m 1843.4048,24403.045 c 27.3008,-4.319 59.3808,-194.16 64.2561,-193.984 30.5845,1.101 127.4207,94.176 137.7623,129.615 11.6706,39.992 -121.0366,-32.777 -124.6186,-34.156 -5.144,-1.98 -137.7546,-39.308 -121.6982,-57.801 40.0773,-46.159 142.8317,-83.725 203.9658,-59.553 71.3458,28.211 -80.6018,196.852 -100.2793,226.388 -13.9773,20.981 -27.8139,42.091 -40.4034,63.932 -1.1691,2.028 -2.1322,8.671 -0.4868,7.006 6.5289,-6.607 10.7094,-15.18 16.0642,-22.77"
       id="path816" /><path
       style="fill:none;stroke:#ffffff;stroke-width:10.7"
       d="m 2327.275,22933.055 c -20.7696,16.64 -48.0698,27.436 -62.309,49.92 -28.0759,44.331 -47.0582,200.978 -47.7057,236.897 -4.2908,238.019 76.8679,496.948 291.5877,624.428"
       id="path818" /><path
       style="fill:none;stroke:#ffffff;stroke-width:10.7"
       d="m 2614.4821,23570.62 c -11.1963,-24.959 -29.878,-47.776 -33.5891,-74.878 -8.7871,-64.176 53.7605,-230.393 112.449,-263.171 60.8627,-33.992 133.8744,238.802 139.7093,260.981"
       id="path820" /><path
       style="fill:none;stroke:#ffffff;stroke-width:10.7"
       d="m 2867.6133,22857.739 c 21.4188,47.438 43.7785,94.462 64.2567,142.313 97.1055,226.906 200.5544,466.752 181.0861,719.012 -6.6818,86.582 -25.5503,166.901 -48.6791,130.491"
       id="path822" /><path
       style="fill:none;stroke:#ffffff;stroke-width:10.7"
       d="m 4017.2244,23105.816 c -100.5107,-21.43 -14.5436,-61.874 -8.2751,-45.102 5.3512,14.317 5.5168,30.068 8.2751,45.102 z"
       id="path824" /><path
       style="fill:none;stroke:#ffffff;stroke-width:10.7"
       d="m 4056.1676,23238.058 c -29.1438,94.781 70.761,173.392 45.7589,267.112 -2.8112,10.537 -0.7517,-8.14 3.4071,-49.92"
       id="path826" /><path
       style="fill:none;stroke:#ffffff;stroke-width:10.7"
       d="m 4202.692,23223.17 c -95.3307,-13.554 -49.8345,111.197 -43.3244,168.587"
       id="path828" /><path
       style="fill:none;stroke:#ffffff;stroke-width:10.7"
       d="m 4337.5332,23220.98 c -61.1113,-4.698 -48.6124,-16.147 -90.5433,20.143 -40.2093,34.8 -55.1619,51.491 0.4868,62.18 39.742,7.634 161.984,23.248 155.7735,88.892 -7.0282,74.284 -200.2954,152.709 -174.2713,49.043"
       id="path830" /><path
       style="fill:none;stroke:#ffffff;stroke-width:10.7"
       d="m 4828.7057,23093.555 c -7.7888,-12.261 -11.1056,-44.571 -23.3664,-36.782 -12.2608,7.788 19.4572,22.792 23.3664,36.782 11.2432,40.235 12.605,82.649 21.4188,123.485 6.971,32.296 60.7322,147.672 23.3659,181.285"
       id="path832" /><path
       style="fill:none;stroke:#ffffff;stroke-width:10.7"
       d="m 4773.2112,23263.018 c 57.3289,-72.459 98.0366,-65.413 166.4827,-94.146"
       id="path834" /><path
       style="fill:none;stroke:#ffffff;stroke-width:10.7"
       d="m 4950.8903,23091.366 c 14.7659,23.062 30.3419,45.625 44.2979,69.186 8.4587,14.281 15.7776,29.225 22.879,44.227 4.6453,9.813 2.2675,34.668 12.1695,30.214 6.7755,-3.047 19.8782,-116.975 46.7323,-97.211 13.2146,9.726 10.0079,36.2 23.8527,45.54 36.2059,24.427 105.3693,-12.603 135.3281,-33.279 22.7152,-15.678 32.1066,-81.422 -15.0908,-68.311 -49.1588,13.657 -123.1731,68.599 -59.8752,122.609 44.1309,37.656 121.5178,40.285 176.2188,40.285"
       id="path836" /><path
       style="fill:none;stroke:#ffffff;stroke-width:10.7"
       d="m 5793.5258,22888.186 c 62.2535,51.577 120.7045,150.987 104.1738,237.335 -3.2311,16.877 -16.8841,47.27 -42.3516,38.534 -41.4827,-14.23 -101.9868,-123.502 -1.947,-104.217 30.9924,-7.006 62.2953,-12.758 92.9772,-21.019 15.4768,-4.166 30.4788,-10.033 45.272,-16.201 113.2675,-47.233 -10.8526,-91.729 -53.061,-7.882 -39.1439,77.759 104.1979,137.859 164.5354,116.478"
       id="path838" /><path
       style="fill:none;stroke:#ffffff;stroke-width:10.7"
       d="m 6176.6308,22945.987 c 5.3549,-18.245 10.7095,-36.491 16.0642,-54.736 -1.4603,-1.314 -3.828,-5.826 -4.3813,-3.941 -5.616,19.136 -3.6991,40.402 -11.6829,58.677 -10.5135,24.065 -35.8532,40.805 -42.8376,66.121 -11.9412,43.282 30.4667,98.204 61.3349,120.857"
       id="path840" /><path
       style="fill:none;stroke:#ffffff;stroke-width:10.7"
       d="m 6080.7323,23083.046 c 47.1196,-40.435 102.3564,-41.269 158.6944,-55.612 25.7849,-39.611 65.8946,41.172 93.9506,24.96 29.5181,-17.057 44.1528,-55.549 53.0599,-86.264 3.2571,-11.231 13.1127,-43.752 5.842,-34.593 -21.4866,27.068 19.2509,170.506 49.1659,173.404 7.4759,0.724 7.7886,-12.845 11.6829,-19.268"
       id="path842" /><path
       style="fill:none;stroke:#ffffff;stroke-width:10.7"
       d="m 6460.4297,22905.701 c 33.3603,41.691 54.7812,82.977 73.9924,130.491 0.5606,1.386 -0.8837,-2.887 -0.9734,-4.379 -0.5607,-9.33 -0.6491,-18.683 -0.9734,-28.025"
       id="path844" /><path
       style="fill:none;stroke:#ffffff;stroke-width:10.7"
       d="m 6568.4975,22768.642 c 58.7806,61.914 53.3291,135.515 63.7693,213.252 2.8951,21.557 15.6956,42.511 17.0376,63.056"
       id="path846" /><path
       style="fill:none;stroke:#ffffff;stroke-width:10.7"
       d="m 6767.5954,22779.589 c -7.9134,62.201 33.4097,129.717 27.7471,190.92"
       id="path848" /><path
       style="fill:none;stroke:#ffffff;stroke-width:10.7"
       d="m 6664.3949,22907.891 c 42.9736,-26.865 63.3807,-29.24 103.2005,-1.314"
       id="path850" /><path
       style="fill:none;stroke:#ffffff;stroke-width:10.7"
       d="m 6700.4171,22855.782 c -25.3854,55.308 -13.3101,47.135 49.166,47.73 7.9047,0.08 66.7969,-3.158 75.9396,-3.941 9.379,-0.804 37.1369,-4.593 27.7469,-5.255 -50.0502,-3.531 -109.5833,0.941 -156.259,17.516 -12.9331,4.592 27.3934,-2.327 40.8895,-4.817 57.1125,-10.539 117.8925,-23.234 173.2979,-39.848"
       id="path852" /><path
       style="fill:none;stroke:#ffffff;stroke-width:10.7"
       d="m 7307.5949,22688.016 c 1.4605,16.64 2.0584,33.378 4.3812,49.919 9.166,65.271 23.8943,129.554 30.1816,195.298 0.087,0.907 11.9779,69.796 -7.3017,36.345"
       id="path854" /><path
       style="fill:none;stroke:#ffffff;stroke-width:10.7"
       d="m 7211.6974,22729.178 c -87.2643,-35.528 -30.994,1.232 0,0 259.056,-10.3 34.752,-31.706 184.4935,-21.457 13.2574,0.908 42.4936,1.267 37.483,13.575 -3.5248,8.658 -11.6832,14.596 -17.525,21.894"
       id="path856" /><path
       style="fill:none;stroke:#ffffff;stroke-width:10.7"
       d="m 7182.4896,22985.78 c 16.8756,7.006 32.3691,21.747 50.6267,21.018 31.9087,-1.273 61.1878,-18.334 92.0035,-26.711 45.5171,-12.373 91.4294,-22.637 137.2746,-33.279"
       id="path858" /><path
       style="fill:none;stroke:#ffffff;stroke-width:10.7"
       d="m 4371.2705,23926.801 c -19.4717,-4.817 -39.5735,-21.33 -58.4152,-14.45 -20.12,7.347 -29.5945,31.589 -39.9167,50.357 -56.5996,102.911 -29.5441,214.225 43.8113,300.391 15.2953,17.967 35.2833,31.339 53.0604,46.854 16.6775,14.556 37.7343,31.607 36.9956,32.404 -0.2823,0.304 -15.7697,-7.901 -31.641,-16.202"
       id="path860" /><path
       style="fill:none;stroke:#ffffff;stroke-width:10.7"
       d="m 4186.2897,24248.211 c 16.8754,-21.165 27.9898,-48.651 50.6262,-63.494 43.3393,-28.418 129.7109,-34.959 180.5995,-29.776"
       id="path862" /><path
       style="fill:none;stroke:#ffffff;stroke-width:10.7"
       d="m 4546.5152,24187.783 c -18.6603,-4.38 -41.6894,-0.365 -55.9808,-13.137 -22.9757,-20.535 -32.3163,-134.258 23.8527,-126.55 30.4382,4.177 60.0437,18.017 84.7018,36.345 20.3235,15.106 57.0103,91.835 22.8791,116.478 -6.9234,4.999 -16.8754,-2.627 -25.3132,-3.941"
       id="path864" /><path
       style="fill:none;stroke:#ffffff;stroke-width:10.7"
       d="m 4622.9416,24002.994 c 66.0594,1.873 101.9837,50.079 118.2905,110.347 3.1305,11.571 6.7484,24.924 1.9468,35.907 -2.5678,5.874 -15.8938,8.681 -18.9852,3.066 -43.3562,-78.759 -43.9071,-177.71 35.0494,-229.892"
       id="path866" /><path
       style="fill:none;stroke:#ffffff;stroke-width:10.7"
       d="m 5126.2836,24126.04 c 0.4866,-33.863 -0.314,-67.769 1.4603,-101.59 3.1332,-59.726 12.497,-118.988 16.5507,-178.658 1.6338,-24.048 1.9188,-48.169 2.921,-72.252 0.1339,-3.212 -2.0523,-11.606 0.4869,-9.633 22.4189,17.417 25.5357,50.883 41.3774,74.441 33.325,49.557 61.0033,78.048 100.7655,120.419 15.6014,16.625 31.6219,32.853 47.2191,49.481 6.664,7.105 26.1107,25.954 16.5507,24.084 -46.3484,-9.064 -93.953,-45.072 -138.249,-61.742 -48.7566,-18.349 -102.8861,-22.976 -148.958,-47.292 -12.4772,-6.585 -30.8809,-17.148 -28.7205,-31.09 6.2632,-40.419 196.3499,-138.834 231.2257,-155.45 19.3005,-9.196 48.9974,-34.183 61.8223,-17.078 15.7861,21.055 -10.427,51.745 -18.9847,76.631 -11.2398,32.685 -65.9093,185.094 -76.9128,215.003 -26.2657,71.392 -88.4155,184.905 -84.7021,268.425 0.5112,11.494 21.1209,-10.208 29.2079,-18.391"
       id="path868" /><path
       style="fill:none;stroke:#ffffff;stroke-width:10.7"
       d="m -369.14506,25848.527 c 7.09674,-44.77 33.49437,-176.934 113.42221,-151.071 80.43283,26.026 109.46366,124.543 151.87898,186.978 13.044106,19.201 -13.33729,-44.806 -24.33958,-65.245 -31.24649,-58.048 -79.47785,-120.326 -150.41849,-129.615 -74.77633,-9.792 -101.38259,105.62 -90.54312,158.953 14.64689,72.066 45.06545,121.56 55.49411,108.159 17.18656,-22.086 -15.61907,-225.783 48.19244,-286.817 19.54921,-18.699 51.69635,22.139 55.98085,27.149 46.69213,54.602 60.6346,132.634 78.86022,199.677 3.20017,11.771 7.10722,44.756 13.14341,34.155 3.71761,-6.529 3.56981,-14.596 5.35472,-21.894"
       id="path872" /><path
       style="fill:none;stroke:#ffffff;stroke-width:10.7"
       d="m 56.310276,25850.717 c 3.894397,-27.733 5.921177,-55.793 11.683191,-83.199 25.667961,-122.084 26.695733,-68.946 38.456483,-171.214 0.85227,-7.411 -4.3443,-29.213 -1.4605,-22.333 51.33281,122.467 73.99404,184.332 159.66769,290.758"
       id="path874" /><path
       style="fill:none;stroke:#ffffff;stroke-width:10.7"
       d="m 483.71314,25600.245 c -18.82264,-2.482 -40.65262,-17.948 -56.46788,-7.445 -25.06453,16.647 -37.76797,48.231 -47.7054,76.631 -50.48801,144.29 232.93953,141.242 229.76543,21.894 -0.47763,-17.958 -8.8538,-35.339 -18.0114,-50.795 -31.73175,-53.554 -45.18353,-34.583 -107.58075,-40.285 -26.35504,-2.408 -52.49646,-11.507 -78.86023,-9.196 -16.25295,1.425 -36.98486,58.235 -2.92073,45.978"
       id="path876" /><path
       style="fill:none;stroke:#ffffff;stroke-width:10.7"
       d="m 471.54321,25436.037 c -2.43391,-15.91 -4.86781,-31.82 -7.30168,-47.73 -1.78491,-0.438 -5.63264,-3.131 -5.35472,-1.314 29.13729,190.465 -0.39489,-150.448 0.97348,128.301 0.39627,80.721 18.9479,160.369 25.31306,240.839 4.98382,63.007 2.45933,124.341 6.32849,186.978"
       id="path878" /><path
       style="fill:none;stroke:#ffffff;stroke-width:10.7"
       d="m 899.91981,25567.841 c 53.66911,-32.211 322.51179,-92.187 126.56559,21.456"
       id="path880" /><path
       style="fill:none;stroke:#ffffff;stroke-width:10.7"
       d="m 953.46642,25662.863 c 97.51208,-0.684 191.59348,-30.797 281.36558,-66.559"
       id="path882" /><path
       style="fill:none;stroke:#ffffff;stroke-width:10.7"
       d="m 1763.0002,25286.279 c 1.7849,45.394 0.7788,90.985 5.3547,136.183 3.8808,38.333 12.6773,76.016 19.9586,113.851 6.5133,33.844 14.0807,67.477 21.4188,101.152 3.8584,17.706 8.1674,35.311 12.1697,52.984 1.3525,5.973 8.015,22.484 3.8945,17.954 -22.0218,-24.21 -21.0402,-61.991 -30.6681,-93.27 -34.6606,-112.607 -60.4933,-225.301 -87.1356,-339.801 -2.3299,-10.013 1.8496,20.49 3.4077,30.652 7.4394,48.518 4.4316,34.39 13.1432,67.873"
       id="path884" /><path
       style="fill:none;stroke:#ffffff;stroke-width:10.7"
       d="m 88.921161,27166.316 c -37.320661,-1.606 -74.641325,-3.212 -111.961988,-4.815"
       id="path886" /><path
       style="fill:none;stroke:#ffffff;stroke-width:10.7"
       d="m 17.931967,27107.632 c 10.690849,-39.616 -6.773369,-101.444 0,0 0.854173,12.795 34.342945,252.164 37.969745,251.349 4.443936,-1 -1.725202,-50.676 -3.894214,-70.938 -1.724631,-16.11 -15.966868,-133.633 -17.524645,-140.562 -12.025569,-53.496 -33.50211074,-48.686 0.973484,-116.917"
       id="path888" /><path
       style="fill:none;stroke:#ffffff;stroke-width:10.7"
       d="m 243.31617,27344.968 c -0.2956,-82.158 14.30932,-163.285 19.4719,-245.218 1.49765,-23.768 -1.13554,-69.734 2.43369,-70.938 0.51829,-0.174 19.81279,57.674 21.90589,63.056 29.91746,76.928 68.0049,149.521 110.98823,219.821"
       id="path890" /><path
       style="fill:none;stroke:#ffffff;stroke-width:10.7"
       d="m 531.00998,27243.379 c -5.93347,-35.801 2.5741,-239.781 48.19216,-246.094 49.96579,-6.914 103.31868,144.248 121.2112,189.605"
       id="path892" /><path
       style="fill:none;stroke:#ffffff;stroke-width:10.7"
       d="m 945.26915,27042.388 c 42.44708,21.566 212.00305,-41.071 140.19605,8.758"
       id="path894" /><path
       style="fill:none;stroke:#ffffff;stroke-width:10.7"
       d="m 962.7938,27155.799 c 68.7894,16.965 127.4706,-27.614 192.7692,-31.964"
       id="path896" /><path
       style="fill:none;stroke:#ffffff;stroke-width:10.7"
       d="m 1789.4917,26986.275 c 4.0566,26.273 8.1631,52.541 12.1699,78.822 10.3517,67.898 12.6265,69.364 14.6037,132.678 0.2963,9.491 -8.6015,22.813 -0.9735,28.464 17.3908,12.883 147.2251,-31.189 171.3506,-36.346 22.0321,-4.709 89.8287,-0.997 102.7125,-25.834 30.6817,-59.144 -24.6113,-142.779 -20.4448,-189.605"
       id="path898" /><path
       style="fill:none;stroke:#ffffff;stroke-width:10.7"
       d="m 1888.7973,26854.473 c 9.3409,43.794 30.2075,84.638 36.5089,129.175 1.0427,7.371 0.2477,27.723 -4.3806,21.894 -29.4711,-37.113 -26.633,-106.889 -32.1283,-151.069 z"
       id="path900" /><path
       style="fill:none;stroke:#ffffff;stroke-width:10.7"
       d="m 1826.7203,26693.445 c 3.8093,-56.084 27.3185,-134.099 89.0826,-154.136 43.9881,-14.271 77.7044,24.408 93.9506,59.553 2.0621,4.461 7.7016,15.589 2.921,14.449 -34.6065,-8.239 -54.0288,-115.007 -95.4114,-139.247 -74.2947,-43.518 -78.4908,147.753 -81.2936,172.965 -1.7431,15.679 -17.3309,59.965 -9.2492,46.416 36.8836,-61.836 8.7865,-132.985 41.8636,-196.173 41.8234,-79.897 143.2574,-18.513 155.7735,49.044"
       id="path902" /><path
       style="fill:none;stroke:#ffffff;stroke-width:10.7"
       d="m 1659.7509,26272.197 c 4.0275,47.921 17.3869,95.226 12.6564,143.628 -0.1826,1.868 -2.1982,6.55 -2.9207,4.816 -8.1341,-19.511 -10.7649,-147.176 -9.7357,-148.444 25.4214,-31.309 74.7393,-30.49 110.9885,-48.167 50.473,-24.615 131.159,-62.256 164.5354,-107.283 3.3315,-4.494 3.2148,10.73 4.3807,16.202 10.3789,48.711 6.0657,46.504 25.3133,104.217 17.8314,53.467 42.5792,113.011 74.4793,159.83"
       id="path904" /><path
       style="fill:none;stroke:#ffffff;stroke-width:10.7"
       d="m 2427.9074,26218.775 c -95.7589,121.047 -102.9942,330.311 -18.4984,460.221 54.0789,83.143 141.5158,123.592 221.0035,175.594"
       id="path906" /><path
       style="fill:none;stroke:#ffffff;stroke-width:10.7"
       d="m 2623.1108,26427.648 c 6.0038,23.062 10.5274,46.561 18.0112,69.186 0.2638,0.798 112.317,237.254 85.6747,177.344"
       id="path908" /><path
       style="fill:none;stroke:#ffffff;stroke-width:10.7"
       d="m 2686.8801,26171.483 c 72.1,57.042 44.9858,27.089 107.5812,154.137 78.0714,158.459 158.383,289.048 113.4224,466.787 -4.8128,19.026 -45.157,145.28 -96.8717,129.178"
       id="path910" /><path
       style="fill:none;stroke:#ffffff;stroke-width:10.7"
       d="m 1995.5087,27597.328 c 30.2276,-12.756 62.2631,-209.786 66.2035,-211.5 5.637,-2.453 36.1104,31.536 41.8643,38.534 21.9794,26.739 43.0323,54.255 63.283,82.322 5.5925,7.753 12.7397,15.502 14.1167,24.961 2.0391,14.007 -25.276,15.618 -39.43,15.764 -39.1607,0.405 -182.3574,-10.819 -206.8863,-42.913 -43.4937,-56.909 227.0059,-168.412 265.7882,-170.775 11.5165,-0.704 -5.6446,22.886 -12.1702,32.403 -33.1293,48.305 -65.2954,97.634 -103.6866,141.875 -27.5615,31.761 -68.9069,52.433 -89.0826,89.329 -11.6252,21.259 2.0084,48.509 0.4867,72.689 -0.922,14.653 -8.2546,28.678 -7.7884,43.352 0.3635,11.44 22.1266,-7.411 31.1548,-14.452"
       id="path912" /><path
       style="fill:none;stroke:#ffffff;stroke-width:10.7"
       d="m 3342.947,26281.038 c 42.7943,-15.473 366.1101,-119.865 145.0637,3.94"
       id="path914" /><path
       style="fill:none;stroke:#ffffff;stroke-width:10.7"
       d="m 3395.5203,26360.733 c 106.9308,15.704 42.0243,17.529 157.2336,-19.705 65.7302,-21.243 66.2922,-20.12 123.1583,-31.966"
       id="path916" /><path
       style="fill:none;stroke:#ffffff;stroke-width:10.7"
       d="m 3870.6283,26081.798 c 25.8337,113.977 -7.8301,-41.76 18.9852,118.23 9.5742,57.124 31.9767,124.383 40.8903,122.171 8.0674,-2.002 5.1099,-44.087 1.4602,-68.749 -11.3831,-76.92 -40.677,-176.635 -103.6865,-229.015 -38.1852,-31.743 -181.8904,120.213 -46.7317,95.897"
       id="path918" /><path
       style="fill:none;stroke:#ffffff;stroke-width:10.7"
       d="m 3757.2059,26349.786 c -11.3583,14.888 -48.9635,33.306 -34.0751,44.664 14.8881,11.359 17.1119,-36.732 34.0751,-44.664 23.1738,-10.836 51.4247,-1.587 76.4263,-7.006 330.0555,-71.542 -115.9854,-6.873 298.89,-58.239"
       id="path920" /><path
       style="fill:none;stroke:#ffffff;stroke-width:10.7"
       d="m -459.2161,29052.581 c -65.6789,7.877 -71.82443,-8.805 -84.70167,74.441 -6.02599,38.954 -6.85152,79.06 -2.43398,118.229 1.42626,12.647 9.52336,24.905 19.47161,32.843 84.26154,67.228 207.24521,-137.113 120.23743,-190.921 -18.82097,-11.639 -10.85477,27.752 5.84147,60.428 15.98573,31.29 87.39429,121.917 124.13192,130.929"
       id="path926" /><path
       style="fill:none;stroke:#ffffff;stroke-width:10.7"
       d="m -156.91864,29202.338 c 56.28219,-66.397 53.51451,-149.574 49.65266,-232.079 -1.59057,-33.983 -6.51465,-43.916 -3.40747,-43.789 0.35595,0.03 112.1668809,142.788 162.101389,156.763 14.176324,3.966 -19.681878,-22.746 -32.615031,-29.776 -17.4839609,-9.506 -35.667466,-18.516 -55.007372,-23.209 -34.597612,-8.393 -70.089516,-13.751 -105.633796,-15.764 -34.36996,-1.945 -68.80833,2.421 -103.1998,3.942 -1.96702,0.08 -7.72491,1.45 -5.84145,0.876 51.3482,-15.645 215.913019,-77.618 269.195677,-48.17 49.5375,27.382 -80.628005,207.902 -75.93949,262.734 0.177853,2.079 2.770005,-3.268 3.407471,-5.255 4.255939,-13.271 7.464115,-26.858 11.196171,-40.285"
       id="path928" /><path
       style="fill:none;stroke:#ffffff;stroke-width:10.7"
       d="m 317.7026,28949.677 c -0.32448,-12.7 11.7252,-38.42 -0.97348,-38.098 -12.69865,0.326 5.44187,26.207 0.97348,38.098 -26.1784,69.665 -101.35417,141.787 -34.56199,157.639 40.44691,9.601 84.06588,4.328 124.61838,-4.816 31.86975,-7.186 155.78114,-107.759 123.15817,-133.117 -54.6749,-42.5 -154.64737,-31.134 -213.21456,-19.706 -20.17559,3.937 -37.84298,16.076 -56.9546,23.646 -2.6529,1.05 -7.65618,4.974 -8.27544,2.19 -5.07552,-22.831 42.78301,-19.275 65.23004,-25.836 z"
       id="path938" /><path
       style="fill:none;stroke:#ffffff;stroke-width:10.7"
       d="m 326.95183,28803.423 c -5.84155,-12.7 -4.82589,-43.939 -17.52465,-38.097 -12.69876,5.842 11.72128,25.381 17.52465,38.097 13.18151,28.882 26.91638,57.523 39.42995,86.701 53.95892,125.82 64.67351,156.401 104.17329,304.771 7.18492,26.988 10.70197,54.822 15.57742,82.323 1.13006,6.374 8.7036,20.878 2.43398,19.267 -6.77085,-1.741 -3.89432,-13.431 -5.84147,-20.143"
       id="path940" /><path
       style="fill:none;stroke:#ffffff;stroke-width:10.7"
       d="m 834.1881,28881.803 c 13.15559,-1.95 244.708,-91.874 198.1242,-17.076 -11.5995,18.624 -27.9095,33.864 -41.86427,50.795"
       id="path942" /><path
       style="fill:none;stroke:#ffffff;stroke-width:10.7"
       d="m 861.93517,29019.302 c 68.3065,1.558 132.90338,-22.336 197.63743,-40.725"
       id="path944" /><path
       style="fill:none;stroke:#ffffff;stroke-width:10.7"
       d="m 1452.8999,28780.214 c -4.3811,-12.698 -0.4447,-42.476 -13.1434,-38.095 -12.6988,4.379 13.5751,24.67 13.1434,38.095 -0.7484,23.275 -15.0504,44.635 -16.5509,67.873 -0.2663,4.125 9.9745,191.601 10.7092,201.428 0.6559,8.773 1.7885,89.426 16.5511,100.713 7.6625,5.861 232.4467,-37.645 239.5012,-38.97 87.0811,-16.375 91.4261,-20.524 168.9165,-30.216 12.4648,-1.558 22.3112,-3.233 33.5885,1.315 1.9363,0.781 4.5406,6.004 4.868,3.94 5.1245,-32.271 -74.8519,-254.352 -90.0561,-261.419 -4.9729,-2.31 -8.4379,7.006 -12.6569,10.509"
       id="path946" /><path
       style="fill:none;stroke:#ffffff;stroke-width:10.7"
       d="m 1617.435,28756.568 c 3.9702,56.586 23.1653,117.943 55.9814,161.581"
       id="path948" /><path
       style="fill:none;stroke:#ffffff;stroke-width:10.7"
       d="m 1575.5713,28373.854 c -30.6807,31.3 -104.7973,148.513 -28.234,181.287 75.174,32.178 147.2441,-110.63 78.8602,-156.766 -15.5441,-10.485 -45.3373,-42.51 -50.6262,-24.521 -17.2804,58.777 95.2243,139.123 131.4336,164.647 15.2454,10.745 29.3979,17.502 42.351,30.213 2.2953,2.251 -5.1926,-3.794 -7.789,-5.691"
       id="path950" /><path
       style="fill:none;stroke:#ffffff;stroke-width:10.7"
       d="m 1384.2621,28111.122 c -13.251,36.243 -33.9515,151.493 -4.381,184.351 15.6658,17.407 45.9875,-152.826 49.166,-158.078 23.4007,-38.668 49.5015,-37.795 91.0298,-42.912 40.277,-4.964 80.8057,-7.61 121.2112,-11.385 5.9427,-0.556 39.8594,-3.048 48.6792,-5.694 13.1839,-3.953 -1.6893,-28.496 2.9204,-1.313 2.2389,13.201 4.7237,26.374 7.789,39.41 4.0777,17.338 8.652,34.568 13.6299,51.671 14.3656,49.355 41.299,99.504 53.0604,148.881"
       id="path952" /><path
       style="fill:none;stroke:#ffffff;stroke-width:10.7"
       d="m 1786.3516,29510.173 c -2.7584,-14.013 -5.5414,-28.02 -8.2752,-42.037 -30.4876,-156.327 37.0154,171.722 36.509,175.593 -1.0863,8.305 -14.566,-8.321 -21.4183,-13.136"
       id="path954" /><path
       style="fill:none;stroke:#ffffff;stroke-width:10.7"
       d="m 1717.7144,29585.489 c 61.8313,-49.982 148.1776,-72.541 226.3576,-63.931"
       id="path956" /><path
       style="fill:none;stroke:#ffffff;stroke-width:10.7"
       d="m 2160.2076,28237.233 c -17.8491,14.597 -41.5282,24.112 -53.5471,43.789 -13.5907,22.251 -15.8437,49.935 -19.4719,75.755 -30.4035,216.35 41.2579,392.949 236.0936,499.629"
       id="path958" /><path
       style="fill:none;stroke:#ffffff;stroke-width:10.7"
       d="m 2417.2333,28505.222 c 27.5205,-221.414 -29.7594,-3.321 23.3659,65.243 57.1153,73.716 151.0354,-39.055 152.8524,-103.341 2.5147,-88.966 -83.6119,-105.071 -146.0375,-66.997 -33.8181,20.627 -56.1786,40.436 -77.3997,72.252 -2.5614,3.839 -7.2293,16.769 -4.3812,13.137 13.5876,-17.331 24.6641,-36.492 36.9962,-54.737"
       id="path960" /><path
       style="fill:none;stroke:#ffffff;stroke-width:10.7"
       d="m 2473.2142,28295.034 c 0.4868,-13.573 15.0348,-40.238 1.4602,-40.724 -13.5745,-0.485 -3.1254,27.244 -1.4602,40.724 5.9879,48.477 16.1696,96.346 24.3393,144.502 4.7089,27.758 45.1188,323.668 48.6792,324.914 6.9222,2.421 11.2416,-20.765 20.9321,-59.992"
       id="path962" /><path
       style="fill:none;stroke:#ffffff;stroke-width:10.7"
       d="m 2665.0099,28140.459 c 17.0376,23.064 36.5406,44.493 51.1128,69.186 58.0099,98.303 89.4048,214.638 88.1091,328.856 -0.7948,70.08 -26.8742,230.442 -30.1807,169.46"
       id="path964" /><path
       style="fill:none;stroke:#ffffff;stroke-width:10.7"
       d="m 3076.3484,28357.653 c 0.839,-41.219 250.5739,-58.616 200.0713,7.006"
       id="path966" /><path
       style="fill:none;stroke:#ffffff;stroke-width:10.7"
       d="m 3142.5519,28429.903 c 77.2927,0.693 154.9013,-7.768 230.7394,-22.331"
       id="path968" /><path
       style="fill:none;stroke:#ffffff;stroke-width:10.7"
       d="m 3646.3812,28231.979 c -20.6076,10.363 -45.363,14.93 -61.8228,31.091 -13.6787,13.427 -19.9503,33.684 -23.3658,52.546 -34.3125,189.497 313.7921,92.401 270.1689,-53.861 -12.215,-40.955 -63.0491,-109.969 -120.7243,-90.205 -27.8144,9.531 -38.5805,46.101 -64.256,60.429 -23.7979,13.279 -54.8171,7.831 -79.3472,19.703 -14.0898,6.821 -35.7941,46.953 -20.9322,42.04 23.1759,-7.665 37.5888,-31.679 51.1135,-49.483"
       id="path970" /><path
       style="fill:none;stroke:#ffffff;stroke-width:10.7"
       d="m 3673.1542,28041.061 c -5.1922,-16.203 -10.3844,-32.407 -15.5769,-48.607 -3.2453,-0.876 -10.7616,-5.829 -9.7358,-2.627 46.9177,146.402 19.4707,-56.92 -3.8944,114.726 -4.8699,35.777 4.4958,72.077 5.8414,108.159 2.0622,55.3 4.5514,110.619 4.3813,165.96 -0.281,91.328 -11.1231,180.183 -13.1432,271.052"
       id="path972" /><path
       style="fill:none;stroke:#ffffff;stroke-width:10.7"
       d="m -291.13486,31128.936 c 2.98492,-14.166 14.76314,-81.537 -22.87907,-77.507 -100.46962,10.758 -145.5637,176.313 -36.50951,208.873 86.52918,25.833 242.20199,-36.399 173.78457,-144.942 -49.33844,-78.272 -215.38967,-87.955 -234.14667,22.77 -0.78737,4.649 1.05558,33.981 18.49813,23.646 26.93983,-15.957 57.95923,-84.735 65.71681,-98.523"
       id="path996" /><path
       style="fill:none;stroke:#ffffff;stroke-width:10.7"
       d="m -301.84427,31002.825 c 39.36338,-117.692 -4.52098,-98.184 0,0 5.35125,116.213 23.3734,229.658 15.5774,346.369 -0.89919,13.462 -2.47407,26.868 -3.89448,40.285 -0.52694,4.977 2.20207,12.089 -1.94699,14.888 -0.74655,0.503 -1.65738,-9.498 -4.38121,-35.47"
       id="path998" /><path
       style="fill:none;stroke:#ffffff;stroke-width:10.7"
       d="m -58.448684,31177.103 c 26.475367,-96.75 18.884627,-64.852 38.943228,-151.947 3.323906,-14.433 6.635306,-28.869 9.7359457,-43.35 1.3661227,-6.381 2.1354563,-24.505 5.3547145,-18.83 37.4562888,66.04 50.2636618,158.763 116.8299658,205.806"
       id="path1000" /><path
       style="fill:none;stroke:#ffffff;stroke-width:10.7"
       d="m 219.99592,31121.491 c -9.57351,-22.625 -26.24403,-43.432 -28.72054,-67.871 -3.39235,-33.481 3.92923,-67.53 11.68292,-100.277 11.70535,-49.435 57.69048,0.497 69.61102,14.012 51.14695,57.983 76.70818,119.303 107.58104,188.73"
       id="path1002" /><path
       style="fill:none;stroke:#ffffff;stroke-width:10.7"
       d="m 769.58318,30915.245 c -106.0305,-10.046 -66.15631,20.548 0,0 68.22485,-21.188 143.17982,-95.001 170.37685,-58.676 7.93252,10.596 -7.46414,25.397 -11.19619,38.097"
       id="path1004" /><path
       style="fill:none;stroke:#ffffff;stroke-width:10.7"
       d="m 743.78337,31075.075 c 68.24239,32.422 185.36604,-99.698 248.26356,-77.068"
       id="path1006" /><path
       style="fill:none;stroke:#ffffff;stroke-width:10.7"
       d="m 1396.0834,30720.385 c 8.005,107.897 13.5744,215.844 15.0907,324.038 0.2614,18.656 -12.3079,54.729 6.3282,55.613 89.2938,4.225 296.0224,-74.301 391.3803,-102.466 7.1371,-2.108 -10.0284,-11.43 -12.6569,-18.391 -9.9844,-26.448 -10.3578,-55.692 -18.4979,-82.762 -6.2584,-20.812 -65.8795,-211.5 -89.0829,-165.959"
       id="path1008" /><path
       style="fill:none;stroke:#ffffff;stroke-width:10.7"
       d="m 1520.2153,30668.714 c 15.0512,-1.516 38.9433,270.206 38.9433,160.269"
       id="path1010" /><path
       style="fill:none;stroke:#ffffff;stroke-width:10.7"
       d="m 1416.042,30458.969 c 3.2144,-18.368 0.033,-185.87 54.5207,-170.339 42.1147,12.001 104.4239,111.188 121.6976,150.632"
       id="path1012" /><path
       style="fill:none;stroke:#ffffff;stroke-width:10.7"
       d="m 1670.6338,31484.502 c 29.5543,-9.031 18.635,-162.222 45.7584,-184.791 23.34,-19.42 173.0397,139.875 126.5657,152.824 -63.2217,17.616 -31.0369,-15.836 -107.5811,1.315 -23.2999,5.217 -40.897,31.879 -64.743,30.652 -29.4469,-1.517 -52.1857,-27.85 -79.8337,-38.098 -10.5704,-3.918 -23.4994,1.088 -33.5888,-3.939 -27.8991,-13.907 66.4956,-65.429 110.9885,-87.578 52.7691,-26.27 108.9918,-45.071 164.5354,-64.809 20.0303,-7.118 48.0361,-22.694 63.2831,-7.882 6.8333,6.638 -13.7609,48.675 -25.3134,67.873 -23.5718,39.172 -48.576,77.494 -74.4792,115.166 -31.8289,46.286 -74.3222,86.854 -101.7393,136.181 -7.9465,14.298 17.6922,-27.565 25.3133,-42.037"
       id="path1014" /><path
       style="fill:none;stroke:#ffffff;stroke-width:10.7"
       d="m 1307.9743,30161.204 c 32.7462,-11.414 -27.2746,-76.502 -23.3659,-62.619 6.0374,21.444 18.5677,40.862 23.3659,62.619 7.2872,33.041 5.2436,67.701 12.6566,100.714 4.5895,20.439 25.5619,41.335 25.7998,41.161 22.3612,-16.283 -73.5799,-183.473 -41.3772,-233.394 15.9493,-24.726 136.8633,-18.728 150.9053,-19.704 25.6568,-1.789 51.4285,-2.667 76.9129,-6.13 16.48,-2.241 33.2413,-4.76 48.6792,-10.949 9.0864,-3.641 -19.8783,-31.67 -11.1962,-27.149 57.8607,30.134 87.6618,185.563 90.5432,242.591"
       id="path1016" /><path
       style="fill:none;stroke:#ffffff;stroke-width:10.7"
       d="m 2080.025,30109.97 c 112.959,-153.493 26.6025,20.36 9.7359,79.259 -98.6001,344.312 -104.6237,636.804 253.6181,800.896"
       id="path1018" /><path
       style="fill:none;stroke:#ffffff;stroke-width:10.7"
       d="m 2463.7429,30333.363 c -114.0761,28.922 -138.2739,284.329 -6.3282,300.829 100.9206,12.618 233.5749,-91.747 195.6903,-200.555 -22.9517,-65.918 -117.9785,-131.505 -189.3621,-100.274 -25.016,10.943 -42.7129,34.327 -61.3356,54.298 -10.3373,11.083 -37.4189,29.66 -24.826,38.094 34.9872,23.437 65.8009,-55.53 86.1616,-92.392 z"
       id="path1020" /><path
       style="fill:none;stroke:#ffffff;stroke-width:10.7"
       d="m 2513.3961,30194.989 c -10.9845,75.752 -8.3104,31.903 -1.9475,123.922 7.8153,113.025 10.7062,226.426 19.4719,339.363 2.7357,35.248 10.4786,155.326 26.2868,103.78"
       id="path1022" /><path
       style="fill:none;stroke:#ffffff;stroke-width:10.7"
       d="m 2573.7582,29999.692 c 82.2384,56.814 61.8557,31.575 123.1578,136.183 154.1936,263.121 183.5793,455.266 55.9808,727.332"
       id="path1024" /><path
       style="fill:none;stroke:#ffffff;stroke-width:10.7"
       d="m 3019.6587,30318.475 c 16.9342,4.934 285.6516,-152.622 221.977,-68.749"
       id="path1032" /><path
       style="fill:none;stroke:#ffffff;stroke-width:10.7"
       d="m 3081.9681,30523.405 c 88.1256,-11.538 160.8212,-61.383 241.9353,-92.395"
       id="path1034" /><path
       style="fill:none;stroke:#ffffff;stroke-width:10.7"
       d="m 3982.5315,30099.53 c -2.7911,-15.889 9.3326,-123.132 -38.9433,-88.893 -62.8748,44.596 -146.7763,210.053 -67.6637,275.871 74.2397,61.764 245.6857,-44.175 272.1165,-117.793 13.4522,-37.467 17.6745,-80.306 8.762,-119.104 -27.2913,-118.806 -243.4707,-65.649 -279.9049,20.142 -4.501,10.6 -0.098,28.869 10.7093,32.843 11.9425,4.389 23.0415,-10.803 34.562,-16.203"
       id="path1036" /><path
       style="fill:none;stroke:#ffffff;stroke-width:10.7"
       d="m 3998.1091,29829.353 c -3.7323,-17.661 -6.7509,-35.489 -11.1964,-52.986 -0.5765,-2.267 -0.9705,4.718 -0.4866,7.007 3.2692,15.472 11.0353,30.178 11.683,45.979 1.9669,47.998 -4.4326,96.028 -3.8947,144.066 0.4313,38.502 14.2999,294.182 16.551,328.853 2.8824,44.394 5.8965,195.707 29.6945,245.655"
       id="path1038" /><path
       style="fill:none;stroke:#ffffff;stroke-width:10.7"
       d="m 577.97148,32673.19 c -73.63648,3.945 -107.72682,115.49 -46.2452,159.39 70.06722,50.027 237.49135,-27.189 233.65965,-117.792 -4.02648,-95.208 -140.89551,-72.523 -187.41445,-41.598 -75.9801,50.506 -61.04144,100.383 -27.74707,49.043"
       id="path1040" /><path
       style="fill:none;stroke:#ffffff;stroke-width:10.7"
       d="m 609.12601,32562.403 c 15.59271,42.908 6.65313,-86.664 -3.89422,-69.185 -9.44808,15.655 3.72872,66.423 3.89422,69.185 6.28613,104.892 2.96204,211.167 2.43398,316.156 -0.13436,26.71 -0.11554,53.422 0,80.132 0.047,10.861 3.58497,43.262 3.40746,32.404 -0.16327,-9.988 -2.27163,-19.849 -3.40746,-29.777"
       id="path1042" /><path
       style="fill:none;stroke:#ffffff;stroke-width:10.7"
       d="m 1001.9666,32765.582 c 7.361,-67.463 28.1416,-132.318 44.2979,-197.924 3.128,-12.703 5.7021,-28.022 7.7887,-41.161 0.3698,-2.328 -1.2713,-7.729 0.9735,-7.006 15.4212,4.953 34.4088,99.406 47.219,129.177 14.3536,33.354 31.2564,65.622 49.1659,97.211 10.4374,18.409 47.8791,68.019 41.8639,47.728 -1.2929,-4.36 -4.5435,-7.882 -6.8152,-11.822"
       id="path1044" /><path
       style="fill:none;stroke:#ffffff;stroke-width:10.7"
       d="m 1276.03,32719.606 c 8.0899,-69.528 -1.2177,-137.581 7.3019,-207.121 2.1345,-17.423 0.5795,-47.427 18.0111,-49.483 28.2513,-3.334 144.4768,186.037 149.445,197.488"
       id="path1046" /><path
       style="fill:none;stroke:#ffffff;stroke-width:10.7"
       d="m 1721.9307,32469.572 c 12.8666,24.029 186.095,-69.414 222.4637,-56.05 5.8264,2.141 -1.9471,12.261 -2.9207,18.392"
       id="path1048" /><path
       style="fill:none;stroke:#ffffff;stroke-width:10.7"
       d="m 1791.0552,32563.716 c 67.066,-25.255 136.6846,-54.766 209.3201,-56.05"
       id="path1050" /><path
       style="fill:none;stroke:#ffffff;stroke-width:10.7"
       d="m 2456.9854,32261.575 c -56.5966,19.09 -51.7105,5.598 -78.8599,61.74 -92.4769,191.233 322.5614,6.173 197.1504,-83.198 -59.4433,-42.36 -60.4958,-2.365 -118.2905,21.458 -33.2161,13.689 -70.8481,15.465 -103.1998,31.088 -32.2438,15.574 -15.0303,43.691 11.1962,23.21 15.3445,-11.986 24.0152,-30.652 36.0228,-45.98"
       id="path1052" /><path
       style="fill:none;stroke:#ffffff;stroke-width:10.7"
       d="m 2452.6042,32058.833 c -30.1596,66.59 -24.895,35.483 -17.0376,123.047 11.1292,124.023 29.3799,247.689 47.2189,370.89 5.863,40.492 0.6669,85.595 21.4189,120.856 3.8532,6.549 5.7475,-14.319 6.3282,-21.894"
       id="path1054" /><path
       style="fill:none;stroke:#ffffff;stroke-width:10.7"
       d="m -1138.9065,17003.929 c 9.7358,34.01 12.6565,70.764 29.2075,102.028 13.3924,25.299 -13.619,-55.616 -19.4716,-83.636 -8.7537,-41.909 -16.9751,-83.937 -24.3396,-126.112 -23.7196,-135.837 -27.2398,-177.369 -47.2187,-314.403 -6.5599,-44.995 -13.3965,-89.95 -20.4453,-134.87 -4.4722,-28.5 -4.4149,-58.219 -14.117,-85.388 -9.276,-25.976 -33.5928,-45.063 -41.8639,-71.376 -11.8603,-37.731 19.5574,-50.159 -10.7094,-68.31 -16.787,-10.068 26.8028,139.846 10.7094,68.31 37.6452,-24.23 73.2588,-51.953 112.9355,-72.689 84.1574,-43.984 251.86096,-56.204 339.78041,-74.441 340.45817,-70.621 683.46999,-140.329 1014.47258,-248.72 211.65863,-69.311 423.77446,-137.896 638.18343,-198.363 338.40568,-95.437 685.66578,-154.419 1030.04998,-222.01 39.7596,-7.803 234.9179,-65.171 273.0899,-35.031 40.3335,31.847 69.6558,246.36 82.2677,303.019 40.5089,181.985 81.0307,362.423 135.3281,540.791 59.2835,194.748 141.709,381.16 200.0714,576.261 2.5359,8.477 43.6738,104.249 34.562,119.105 -5.211,8.497 -95.0727,7.4 -95.4108,7.444 -111.555,14.525 -216.9649,56.57 -325.6636,83.637 -217.1264,54.066 -443.7956,61.46 -664.957,91.081 -117.6892,15.762 -233.3196,39.966 -351.4631,52.984 -116.1744,12.801 -235.463,15.693 -352.43658,17.078 -197.16913,2.334 -395.47231,-14.145 -592.42526,-5.255 -99.29277,4.482 -198.218231,16.225 -297.429204,22.332 -100.397366,6.181 -201.315576,5.229 -301.810436,8.758 -184.02261,6.463 -368.05279,21.169 -551.04777,41.599 -56.65205,6.325 -112.70205,14.803 -168.91665,24.084 -14.9309,2.465 -29.9675,4.368 -44.7846,7.444 -0.1557,0.03 9.1187,0.644 8.2754,4.817 -0.9111,4.508 -4.6313,16.536 -6.3285,12.261 -39.783,-100.2 -43.2269,-233.124 -51.5996,-335.86 -13.9153,-170.746 -19.4314,-341.337 -44.785,-511.015"
       id="path1473" /><path
       style="fill:none;stroke:#ffffff;stroke-width:10.7"
       d="m 558.45031,33522.481 c -12.57861,-67.119 -9.74656,-222.578 74.74053,-250.891 77.38168,-25.932 95.08818,202.028 103.29979,256.902"
       id="path1531" /><path
       style="fill:none;stroke:#ffffff;stroke-width:10.7"
       d="m 982.58734,33468.914 c 38.60566,-108.604 65.03346,-221.076 87.50116,-333.976 5.8966,-29.628 8.1795,-46.477 8.5069,-46.461 10.4379,0.521 23.0806,80.116 26.1289,90.736 8.2262,28.665 119.2514,357.849 161.0262,288.06"
       id="path1533" /><path
       style="fill:none;stroke:#ffffff;stroke-width:10.7"
       d="m 1388.4951,33148.604 c -2.4306,20.772 -3.4819,41.751 -7.2917,62.312 -3.9038,21.071 -13.8223,40.976 -15.799,62.314 -11.0057,118.798 205.6885,-13.774 223.0065,-94.562 28.5092,-132.998 -159.0457,-75.364 -199.9158,-30.064 -21.384,23.701 -16.2245,62.156 -18.2293,94.017 -0.3057,4.857 11.8336,-2.329 12.7603,-7.107 5.5254,-28.496 3.646,-57.941 5.469,-86.91 z"
       id="path1535" /><path
       style="fill:none;stroke:#ffffff;stroke-width:10.7"
       d="m 1463.2356,32949.095 c 0.4051,-17.492 18.7064,-52.07 1.2152,-52.475 -17.4913,-0.405 -3.8209,35.174 -1.2152,52.475 28.2441,187.526 76.182,372.813 79.6016,563.546"
       id="path1537" /><path
       style="fill:none;stroke:#ffffff;stroke-width:10.7"
       d="m 1822.9621,33101.595 c 11.5998,0.03 257.876,-64.981 260.6804,-55.205 1.7704,6.17 -7.2917,10.567 -10.9375,15.851"
       id="path1539" /><path
       style="fill:none;stroke:#ffffff;stroke-width:10.7"
       d="m 1918.3626,33207.638 c 78.3369,-14.066 165.4524,-14.563 238.8049,-47.554"
       id="path1541" /><path
       style="fill:none;stroke:#ffffff;stroke-width:10.7"
       d="m 2665.1599,32850.159 c -26.7769,71.977 -2.5625,317.741 44.3585,376.608 2.7109,3.402 7.2088,-6.091 7.8994,-10.385 4.0627,-25.262 6.0764,-50.935 6.0764,-76.523 0,-76.541 11.9084,-233.727 -58.3343,-289.7 -29.0802,-23.172 -61.5183,-56.893 -98.4384,-52.472 -30.73,3.678 -81.1708,78.75 -63.8033,112.599"
       id="path1543" /><path
       style="fill:none;stroke:#ffffff;stroke-width:10.7"
       d="m 2547.8843,33186.32 c -6.0765,19.129 -37.3607,51.316 -18.2296,57.393 19.1311,6.075 -1.1289,-52.085 18.2296,-57.393 51.2561,-14.055 106.2396,13.168 159.2031,8.745 72.6308,-6.065 141.7915,-34.714 213.8921,-45.369"
       id="path1545" /><path
       style="fill:none;stroke:#ffffff;stroke-width:10.7"
       d="m 70.510342,34394.857 c 28.297775,-3.45 457.114368,-60.515 338.458928,34.981"
       id="path1547" /><path
       style="fill:none;stroke:#ffffff;stroke-width:10.7"
       d="m 136.13606,34553.372 c 130.6469,29.683 278.50787,20.391 390.71673,-59.034"
       id="path1549" /><path
       style="fill:none;stroke:#ffffff;stroke-width:10.7"
       d="m 487.35566,34228.143 c -16.00137,-18.039 -48.66833,-30.011 -48.00404,-54.115 0.47069,-17.079 32.74999,-11.472 49.82678,-12.025 106.51813,-3.448 310.65155,22.05 286.20145,176.006 -20.07462,126.405 -128.33127,237.977 -195.66199,341.08 -28.30917,43.349 -14.74578,27.548 -2.43067,15.306"
       id="path1551" /><path
       style="fill:none;stroke:#ffffff;stroke-width:10.7"
       d="m 1616.9701,34757.8 c 77.4731,-155.959 120.7286,-325.946 157.9879,-495.221 8.4199,-38.254 15.1758,-76.854 22.4831,-115.335 2.4154,-12.718 -5.7938,-41.714 6.6841,-38.261 14.0062,3.876 5.4372,28.575 9.1148,42.635 10.1008,38.616 19.6731,77.436 32.2051,115.334 54.9642,166.209 132.8088,316.947 232.1209,460.238"
       id="path1553" /><path
       style="fill:none;stroke:#ffffff;stroke-width:10.7"
       d="m 2632.9545,34426.56 c 2.8358,-43.366 0.029,-87.472 8.5075,-130.093 6.3807,-32.073 39.7518,-98.015 66.2329,-124.624 51.4636,-51.71 110.5948,109.386 135.5053,136.104"
       id="path1555" /><path
       style="fill:none;stroke:#ffffff;stroke-width:10.7"
       d="m 2979.9207,34325.984 c -69.1197,-226.407 71.9114,-269.688 109.3761,-53.02"
       id="path1557" /><path
       style="fill:none;stroke:#ffffff;stroke-width:10.7"
       d="m 3130.0093,34035.738 c 2.7369,-13.755 16.6621,-93.384 26.7364,-104.399 5.3139,-5.813 11.289,11.43 14.5836,18.584 12.0102,26.072 22.7814,52.843 30.9901,80.349 19.6453,65.834 45.7094,157.499 20.0525,225.2"
       id="path1559" /><path
       style="fill:none;stroke:#ffffff;stroke-width:10.7"
       d="m 3062.5604,34059.789 c 27.1415,0.73 54.5216,5.85 81.4247,2.188 24.4967,-3.336 188.4273,-55.242 193.8396,-68.874"
       id="path1561" /><path
       style="fill:none;stroke:#ffffff;stroke-width:10.7"
       d="m 3938.7868,33910.022 c -18.2295,0.545 -40.9789,-10.388 -54.6883,1.637 -54.0668,47.435 -127.9951,283.594 -27.9516,326.322 105.8846,45.222 211.387,-43.313 281.3402,-104.4"
       id="path1563" /><path
       style="fill:none;stroke:#ffffff;stroke-width:10.7"
       d="m 4243.2172,34051.045 c -22.6854,10.202 -43.1856,31.027 -68.0564,30.609 -73.6129,-1.243 -7.7816,-115.71 6.6842,-127.36 45.308,-36.48 143.6439,3.196 115.4528,49.742 -12.3738,20.431 -36.0537,31.337 -54.0806,47.009 z"
       id="path1565" /><path
       style="fill:none;stroke:#ffffff;stroke-width:10.7"
       d="m 4282.7142,33771.184 c 23.9009,27.512 49.3059,53.787 71.7026,82.537 15.1543,19.452 27.1949,41.143 40.7125,61.767 21.1918,32.332 24.2226,58.343 19.444,18.584 -1.5851,-13.189 -24.2094,-200.088 23.6987,-183.113 30.2506,10.721 45.7131,103.929 52.8653,131.731 2.0926,8.136 3.6455,32.795 5.4682,24.598 6.5262,-29.355 -4.9072,-161.427 32.8131,-153.595 22.1104,4.59 109.0869,131.908 80.8172,130.09"
       id="path1567" /><path
       style="fill:none;stroke:#ffffff;stroke-width:10.7"
       d="m 4630.2881,33657.49 c 19.6474,34.073 43.7396,65.942 58.942,102.214 9.0247,21.534 9.6509,45.733 12.7606,68.874 18.7804,139.755 -21.0479,-121.894 27.9516,-121.894 21.5707,0 36.7459,103.516 37.066,103.309 21.2021,-13.732 5.3809,-65.878 42.5352,-74.337 61.5202,-14.012 78.5053,98.597 84.4632,136.649"
       id="path1569" /><path
       style="fill:none;stroke:#ffffff;stroke-width:10.7"
       d="m 4957.2019,33659.13 c 13.8108,49.306 88.7228,245.436 169.5334,179.285 53.4011,-43.712 33.3727,-145.074 32.2053,-203.883"
       id="path1571" /><path
       style="fill:none;stroke:#ffffff;stroke-width:10.7"
       d="m 5171.0932,33529.585 c 66.738,51.229 41.5282,20.537 82.6397,116.427 11.1406,25.985 22.1044,52.081 31.5979,78.711 41.5713,116.613 -1.4425,52.891 57.1185,-79.258 7.0276,-15.857 19.5143,-31.888 35.8516,-37.714 70.4349,-25.127 120.9185,198.983 140.9734,237.77"
       id="path1573" /><path
       style="fill:none;stroke:#ffffff;stroke-width:10.7"
       d="m 5564.2405,33735.656 c -5.9052,-53.745 -19.9358,-105.175 -38.282,-155.784"
       id="path1575" /><path
       style="fill:none;stroke:#ffffff;stroke-width:10.7"
       d="m 5513.8062,33464.54 c -18.296,-72.924 -64.4443,-141.944 18.2289,-183.113"
       id="path1577" /><path
       style="fill:none;stroke:#ffffff;stroke-width:10.7"
       d="m 5794.5386,33474.925 c -17.4191,-1.641 -37.5198,-14.348 -52.2579,-4.919 -73.6698,47.136 -56.4668,219.43 55.2958,227.934 20.7415,1.576 40.5099,-9.475 60.7648,-14.214"
       id="path1579" /><path
       style="fill:none;stroke:#ffffff;stroke-width:10.7"
       d="m 5935.512,33519.2 c -17.0137,-10.75 -40.292,-49.263 -51.0418,-32.25 -10.7498,17.016 44.2701,13.298 51.0418,32.25 10.1489,28.403 -17.9419,61.971 -7.2916,90.189 27.6913,73.369 167.1949,-149.662 120.9217,-147.582 -22.2366,1 -13.1236,212.111 32.8131,217.548 18.5476,2.194 27.9516,-24.781 41.9275,-37.168"
       id="path1581" /><path
       style="fill:none;stroke:#ffffff;stroke-width:10.7"
       d="m 6190.1163,33385.829 c -22.167,135.787 13.8885,-113.07 -9.1151,-92.377 -30.3737,27.324 6.1203,68.387 9.1151,92.377 6.1434,49.21 1.3743,99.253 5.4684,148.675 6.8853,83.116 31.2648,114.903 11.5454,110.961 -22.3118,-4.461 -35.2436,-28.787 -52.8653,-43.18 m 0,0 c -87.4866,-103.108 -70.8989,-95.518 12.7607,-92.923"
       id="path1583" /><path
       style="fill:none;stroke:#ffffff;stroke-width:10.7"
       d="m 6069.1946,33395.669 c 65.8765,50.911 163.3974,-14.51 230.9056,15.851 102.3202,15.34 90.5962,44.382 91.7545,-20.224"
       id="path1585" /><path
       style="fill:none;stroke:#ffffff;stroke-width:10.7"
       d="m 6373.0175,33269.405 c -10.1063,-43.577 -3.7275,-80.053 17.0143,-118.616 24.9135,40.449 54.9796,78.146 74.7406,121.347 6.5461,14.311 52.7812,255.398 83.2475,229.573 40.9953,-34.749 17.5781,-108.141 39.4971,-150.862 6.1482,-11.983 61.8666,-9.431 71.0943,-12.025 54.7933,-15.403 187.4109,-81.344 131.2515,-163.434 -68.7732,-100.529 -169.6255,144.058 -154.9493,190.764 15.3554,48.867 53.2105,90.359 93.577,121.892 49.5047,38.672 173.8481,-19.922 199.3085,-72.698"
       id="path1587" /><path
       style="fill:none;stroke:#ffffff;stroke-width:10.7"
       d="m 1637.0225,34728.83 c 31.0207,-205.541 41.6987,-414.051 92.3622,-617.114 7.7332,-30.996 16.5681,-61.709 25.521,-92.374 1.5859,-5.434 1.5294,-12.486 6.0765,-15.854 2.4741,-1.831 3.9155,5.141 4.2534,8.2 5.7626,52.181 8.1075,104.706 13.9762,156.876 11.7469,104.424 25.9558,181.835 61.3723,284.779 41.5395,120.74 120.0489,217.533 191.4085,320.855 9.3843,13.587 18.32,27.538 26.1286,42.088 0.8669,1.616 0.9029,6.506 -0.6076,5.466 -4.3646,-3.003 -6.4816,-8.382 -9.7224,-12.57"
       id="path1589" /><path
       style="fill:none;stroke:#ffffff;stroke-width:10.7"
       d="m 1345.96,35144.247 c 1.4178,14.576 10.7406,56.859 4.2534,43.728 -21.4233,-43.36 -45.6658,-228.574 -47.3964,-239.959 -35.8063,-235.548 -80.0076,-466.92 -128.2135,-700.196 -27.7115,-134.098 -47.2639,-269.711 -81.4247,-402.299 25.1162,-18.038 46.4287,-43.166 75.3485,-54.113 156.3029,-59.16 321.9307,-90.323 480.6479,-142.663 333.0457,-109.826 662.811,-229.521 996.5399,-337.253 474.8805,-153.298 583.9793,-181.263 1008.693,-305.551 72.1625,-21.117 578.6788,-169.611 677.5255,-200.603 406.0203,-127.302 807.5506,-264.391 1218.3312,-376.062 444.7594,-120.907 888.0283,-245.391 1330.7454,-373.329 16.9573,-4.9 220.8348,-66.382 235.1588,-38.808 7.6418,14.71 6.6518,32.629 7.2917,49.194 6.1533,159.285 -17.0097,316.59 -6.6841,476.637 25.1579,389.947 104.2624,777.757 173.7872,1161.529 22.4344,123.836 39.5535,252.234 77.1708,372.782 8.1312,26.057 41.4098,70.908 15.7986,80.35 -143.926,53.061 -376.6688,30.88 -533.5133,42.089 -257.06,18.37 -512.0081,54.07 -767.457,87.456 -441.7661,57.737 -883.4312,115.819 -1323.4537,185.845 -463.3801,73.743 -919.5574,176.236 -1379.9646,264.008 -211.7813,40.375 -426.283,63.874 -638.029,103.855 -161.9675,30.581 -323.2802,66.503 -483.6862,104.401 -202.054,47.737 -405.1439,97.034 -597.3163,177.099 -63.0843,26.282 -105.3995,55.886 -165.28,85.27"
       id="path1591" /><path
       style="fill:none;stroke:#ffffff;stroke-width:10.7"
       d="m -1375.4513,16211.752 c 40.5022,-19.96 82.302,-34.593 125.7828,-45.915 116.8211,-30.42 234.9762,-52.74 353.04231,-77.617 39.82712,-8.392 80.84328,-14.884 120.31422,-24.597 12.28328,-3.024 25.61989,-9.1 37.67407,-13.665 1.66153,-0.63 6.48137,-2.916 4.861,-2.187 -9.3287,4.196 -20.40464,3.655 -30.38234,4.373"
       id="path1593" /><path
       style="fill:none;stroke:#ffffff;stroke-width:10.7"
       d="m -1186.4735,17263.961 c 303.95598,-48.941 602.23011,-141.901 909.03908,-173.82 519.68402,-54.066 1035.70221,14.798 1555.57452,2.186 697.9074,-16.931 1392.9169,-101.173 2083.6191,-199.51 199.1794,-28.357 397.2956,-64.548 596.7089,-91.282 152.5281,-20.447 305.5247,-37.778 458.1652,-57.393 86.3447,-11.096 176.6676,-25.474 264.3256,-24.598 84.9244,0.85 173.9038,14.184 258.2498,24.598 14.809,1.828 33.8169,16.573 44.3587,6.013 34.2876,-34.348 4.7876,-317.345 -2.4313,-358.571 -34.3135,-195.968 -45.0757,-201.076 -68.6638,-391.367 -13.915,-112.255 -13.3422,-226.611 -18.229,-339.44 -8.0391,-185.614 -16.6847,-374.064 -38.2821,-558.627 -40.6931,-347.753 -116.5119,-691.309 -156.165,-1039.09 -22.3501,-196.023 -25.1801,-388.601 -31.5973,-584.864 -7.7933,-238.357 -22.5084,-479.02 -18.2295,-717.688 2.2812,-127.239 21.3873,-255.315 30.3821,-382.075 3.6777,-51.831 29.9669,-245.595 -17.6216,-289.699 -21.9635,-20.356 -79.6678,30.382 -93.5775,38.809 -146.6721,88.855 -318.9698,112.408 -486.1169,137.197 -487.1698,72.248 -983.6597,62.104 -1474.7575,73.791 -254.3317,6.052 -509.0687,14.271 -763.2039,26.237 -200.6358,9.446 -400.0187,21.295 -600.9621,12.025 -223.5174,-10.311 -446.85534,-27.87 -670.84172,-23.504 -434.8013,8.476 -867.35408,51.912 -1302.79373,45.368 -213.40956,-3.207 -433.55055,0.393 -645.92785,-26.237 -43.7566,-5.486 -86.0985,-11.286 -128.8211,-22.411 -24.4109,-6.356 -52.3454,-21.683 -77.7789,-24.05 -25.3872,-2.362 -52.4072,4.074 -77.7784,4.92 -4.8167,0.16 -68.8049,-5.151 -70.4871,3.279 -4.6004,23.056 0.9993,48.589 2.4307,71.605 8.2864,133.243 29.4259,257.65 57.1185,387.541 30.4677,142.907 46.8947,292.025 63.1954,437.281 20.623,183.772 4.345,369.345 12.153,553.708 8.3336,196.772 34.1111,391.904 58.9416,587.05 31.8266,250.128 61.9385,500.493 102.6922,749.392 44.8477,273.902 80.7416,546.042 91.1471,823.728 4.999,133.408 -19.683,229.808 6.0762,363.491 11.6301,60.357 8.6118,123.303 36.4588,26.236"
       id="path1595" /></g></svg>
