<?xml version="1.0" encoding="UTF-8" standalone="no"?>
<!-- Created with Inkscape (http://www.inkscape.org/) -->

<svg
   width="74.276749mm"
   height="65.290375mm"
   viewBox="0 0 74.276746 65.290377"
   version="1.1"
   id="svg12"
   inkscape:version="1.2.1 (9c6d41e410, 2022-07-14, custom)"
   sodipodi:docname="f_change.svg"
   xml:space="preserve"
   xmlns:inkscape="http://www.inkscape.org/namespaces/inkscape"
   xmlns:sodipodi="http://sodipodi.sourceforge.net/DTD/sodipodi-0.dtd"
   xmlns="http://www.w3.org/2000/svg"
   xmlns:svg="http://www.w3.org/2000/svg"><sodipodi:namedview
     id="namedview14"
     pagecolor="#000000"
     bordercolor="#ffffff"
     borderopacity="1"
     inkscape:showpageshadow="0"
     inkscape:pageopacity="0"
     inkscape:pagecheckerboard="0"
     inkscape:deskcolor="#000000"
     inkscape:document-units="mm"
     showgrid="true"
     inkscape:zoom="0.52314274"
     inkscape:cx="326.87064"
     inkscape:cy="158.65651"
     inkscape:window-width="1366"
     inkscape:window-height="746"
     inkscape:window-x="1360"
     inkscape:window-y="0"
     inkscape:window-maximized="1"
     inkscape:current-layer="layer1"
     inkscape:lockguides="true"
     showguides="true"><sodipodi:guide
       position="3265.6758,-22192.731"
       orientation="0,-1"
       id="guide3409"
       inkscape:locked="true" /></sodipodi:namedview><defs
     id="defs9"><rect
       x="587.26367"
       y="362.45731"
       width="66.575974"
       height="20.973427"
       id="rect1884" /></defs><g
     inkscape:label="Layer 1"
     inkscape:groupmode="layer"
     id="layer1"
     transform="translate(-3285.6049,-22699.18)"><path
       style="fill:none;stroke:#ffccaa;stroke-width:0.499999"
       d="m 3299.0134,22711.942 c -5.3696,3.162 -3.2679,18.267 4.5965,14.19 5.4127,-2.806 8.1927,-12.621 6.3372,-18.007 -0.9378,-2.722 -2.5275,-5.28 -4.5149,-7.364 -4.0614,-4.258 -16.6133,2.731 -19.5284,6.557 -0.2789,0.366 0.8371,-0.416 1.1696,-0.734"
       id="path3050" /><path
       style="fill:none;stroke:#ffccaa;stroke-width:0.499999"
       d="m 3289.494,22739.173 c 10.0721,-3.123 20.5264,-5.221 30.9517,-6.802 2.8527,-0.433 5.71,-0.967 8.5947,-1.028 1.7933,-0.04 3.5539,0.49 5.3308,0.734"
       id="path3052" /><path
       style="fill:none;stroke:#ffccaa;stroke-width:0.499999"
       d="m 3297.0823,22753.265 c -8.0476,10.827 6.0963,15.617 10.2538,5.04 2.7596,-7.021 -4.1867,-13.26 -10.1178,-15.34 -1.2678,-0.445 -2.6062,-0.958 -3.9437,-0.832 -3.0411,0.286 -6.8185,1.486 -4.0798,4.135"
       id="path3054" /><path
       style="fill:none;stroke:#ffccaa;stroke-width:0.499999"
       d="m 3314.5708,22746.879 c -0.1219,1.877 1.5755,13.492 6.0925,11.328 4.1583,-1.992 3.6265,-8.526 2.611,-12.062 -0.7185,-2.501 -1.6581,-3.515 -1.4959,-3.547 0.4832,-0.1 0.6346,0.757 0.8976,1.174"
       id="path3056" /><path
       style="fill:none;stroke:#ffccaa;stroke-width:0.499999"
       d="m 3347.4264,22722.193 c -0.2669,9.416 -0.7341,7.548 0.9792,16.564 0.3654,1.922 1.0483,4.399 1.5231,4.208 0.3173,-0.128 0.145,-0.669 0.2176,-1.003"
       id="path3058" /><path
       style="fill:none;stroke:#ffccaa;stroke-width:0.499999"
       d="m 3347.1272,22724.591 c -1.1695,-1.574 -2.6911,-2.94 -3.5085,-4.722 -0.1731,-0.378 0.6047,-0.629 1.0063,-0.734 2.9567,-0.775 6.0444,-0.929 9.0842,-1.248 1.1565,-0.121 2.3189,-0.195 3.4814,-0.22 0.3469,0 1.2175,-0.172 1.0335,0.122 -0.3635,0.582 -1.1785,0.702 -1.7678,1.052"
       id="path3060" /><path
       style="fill:none;stroke:#ffccaa;stroke-width:0.499999"
       d="m 3346.0665,22728.872 c 4.7704,-1.424 9.0191,-4.945 13.7624,-5.969"
       id="path3062" /><path
       style="fill:none;stroke:#ffccaa;stroke-width:0.499999"
       d="m 3341.5788,22711.477 c 4.7335,1.719 9.0407,1.673 13.8167,0.343 7.1584,-1.995 -0.5227,-7.278 -3.3997,-9.42 -1.169,-0.87 -2.1108,-1.435 -3.3183,-2.104 -0.097,-0.05 -0.4023,-0.188 -0.2991,-0.147 3.4995,1.399 7.014,3.927 9.601,6.631 0.4763,0.497 1.637,1.81 0.082,2.397 -0.086,0.03 -5.9686,0.346 -6.174,0.367 -5.4773,0.557 -4.7641,0.591 -10.3082,1.933 z"
       id="path3064" /></g></svg>
