<?xml version="1.0" encoding="UTF-8" standalone="no"?>
<!-- Created with Inkscape (http://www.inkscape.org/) -->

<svg
   width="531.0141mm"
   height="560.19305mm"
   viewBox="0 0 531.01409 560.19306"
   version="1.1"
   id="svg12"
   inkscape:version="1.2.1 (9c6d41e410, 2022-07-14, custom)"
   sodipodi:docname="factorial_scratch.svg"
   xml:space="preserve"
   xmlns:inkscape="http://www.inkscape.org/namespaces/inkscape"
   xmlns:sodipodi="http://sodipodi.sourceforge.net/DTD/sodipodi-0.dtd"
   xmlns="http://www.w3.org/2000/svg"
   xmlns:svg="http://www.w3.org/2000/svg"><sodipodi:namedview
     id="namedview14"
     pagecolor="#000000"
     bordercolor="#ffffff"
     borderopacity="1"
     inkscape:showpageshadow="0"
     inkscape:pageopacity="0"
     inkscape:pagecheckerboard="0"
     inkscape:deskcolor="#000000"
     inkscape:document-units="mm"
     showgrid="true"
     inkscape:zoom="0.45254834"
     inkscape:cx="1051.8213"
     inkscape:cy="738.0427"
     inkscape:window-width="1366"
     inkscape:window-height="746"
     inkscape:window-x="1360"
     inkscape:window-y="0"
     inkscape:window-maximized="1"
     inkscape:current-layer="layer1"
     inkscape:lockguides="true"><inkscape:grid
       type="xygrid"
       id="grid344"
       color="#969696"
       opacity="0.39215686"
       empcolor="#ffffff"
       empopacity="0.17254902"
       dotted="false"
       originx="-15074.595"
       originy="-33841.674" /></sodipodi:namedview><defs
     id="defs9" /><g
     inkscape:label="Layer 1"
     inkscape:groupmode="layer"
     id="layer1"
     transform="translate(-15179.595,-33990.175)"><path
       style="fill:none;stroke:#ffffff;stroke-width:0.499999"
       d="m 15255.686,34007.735 c -0.564,-0.127 -6.361,14.47 -6.508,14.425 -0.901,-0.27 -0.257,-1.863 -0.346,-2.799"
       id="path1186" /><path
       style="fill:none;stroke:#ffffff;stroke-width:0.499999"
       d="m 15248.266,34004.682 c 3.435,6.4 5.317,14.202 10.753,19.288"
       id="path1188" /><path
       style="fill:none;stroke:#ffffff;stroke-width:0.499999"
       d="m 15261.754,34014.013 c 1.452,1.231 6.142,-1.619 7.043,-0.111"
       id="path1190" /><path
       style="fill:none;stroke:#ffffff;stroke-width:0.499999"
       d="m 15280.588,34005.105 c -0.928,5.601 -0.946,11.263 -0.629,16.915 0.05,0.841 0.286,3.315 0.44,2.487"
       id="path1206" /><path
       style="fill:none;stroke:#ffffff;stroke-width:0.499999"
       d="m 15283.354,33995.63 c 4.427,8.009 6.984,16.293 5.471,25.511 -0.967,5.893 -0.567,5.03 -1.886,7.552"
       id="path1208" /><path
       style="fill:none;stroke:#ffffff;stroke-width:0.499999"
       d="m 15245.656,33995.376 c -4.079,10.504 -9.563,24.35 -2.641,34.901 2.734,4.168 6.83,6.514 10.502,9.674"
       id="path1210" /><path
       style="fill:none;stroke:#ffffff;stroke-width:0.499999"
       d="m 15302.722,33994.641 c 1.321,6.569 -1.366,15.393 1.603,21.439"
       id="path1212" /><path
       style="fill:none;stroke:#ffffff;stroke-width:0.499999"
       d="m 15305.237,34031.465 c -2.876,-3.474 1.246,-6.588 1.038,-4.016 -0.111,1.378 -0.887,2.641 -1.038,4.016 -0.187,1.704 0.235,3.443 0.03,5.146 -0.09,0.728 -1.25,-1.137 -1.164,-1.865 0.137,-1.148 0.755,-2.188 1.132,-3.281 z"
       id="path1214" /><path
       style="fill:none;stroke:#ffffff;stroke-width:0.499999"
       d="m 15323.002,34006.859 c 0.768,0.614 12.975,-2.59 10.343,0.566"
       id="path1220" /><path
       style="fill:none;stroke:#ffffff;stroke-width:0.499999"
       d="m 15323.85,34014.863 c 2.443,0.106 14.421,-3.294 14.935,-1.328"
       id="path1222" /><path
       style="fill:none;stroke:#ffffff;stroke-width:0.499999"
       d="m 15376.451,33993.312 c -1.995,3.892 -3.828,7.925 -5.313,12.05 -0.135,0.373 -0.394,1.539 -0.283,1.158 0.156,-0.542 0.272,-1.095 0.408,-1.64"
       id="path1232" /><path
       style="fill:none;stroke:#ffffff;stroke-width:0.499999"
       d="m 15369.471,33993.397 c 2.79,3.934 5.454,7.993 7.892,12.16 0.513,0.879 1.922,3.572 1.541,2.63"
       id="path1234" /><path
       style="fill:none;stroke:#ffffff;stroke-width:0.499999"
       d="m 15383.966,33990.201 c 0.423,4.024 2.224,8.586 1.635,12.7"
       id="path1236" /><path
       style="fill:none;stroke:#ffffff;stroke-width:0.499999"
       d="m 15386.701,34015.543 c -0.22,-1 -0.601,-1.977 -0.66,-2.998 -0.03,-0.463 0.2,-0.915 0.408,-1.331 1.226,-2.431 3.656,5.935 0.252,4.329 -1.236,-0.585 -0.199,-2.749 0,-4.101 0.05,-0.336 0.472,0.563 0.472,0.905 0,1.076 -0.315,2.129 -0.472,3.196 z"
       id="path1238" /><path
       style="fill:none;stroke:#ffffff;stroke-width:0.499999"
       d="m 15365.478,34021.141 c 15.525,-0.476 31.029,0.146 46.533,0.934"
       id="path1240" /><path
       style="fill:none;stroke:#ffffff;stroke-width:0.499999"
       d="m 15395.568,34032.201 c -0.977,3.426 -2.668,6.601 -3.836,9.954 -0.02,0.07 -0.466,1.83 -0.535,2.264 -0.01,0.08 0.03,0.334 0,0.254 -0.224,-0.566 -0.244,-1.669 -0.283,-2.122"
       id="path1246" /><path
       style="fill:none;stroke:#ffffff;stroke-width:0.499999"
       d="m 15388.336,34033.926 c 3.679,1.984 6.963,4.673 9.873,7.665"
       id="path1248" /><path
       style="fill:none;stroke:#ffffff;stroke-width:0.499999"
       d="m 15256.636,34080.011 c -1.442,2.506 -2.252,3.588 -3.175,6.025 -1.275,3.37 -2.161,7.747 -0.755,11.199 0.668,1.641 6.41,9.264 5.88,10.692 -0.318,0.858 -3.543,-3.955 -3.773,-4.439 -2.266,-4.771 -3.18,-10.332 -1.258,-15.386 0.578,-1.519 1.779,-2.865 2.232,-4.413 0.354,-1.207 1.695,-4.607 0.849,-3.678 -9.021,9.93 -3.474,20.071 3.333,28.766 0.596,0.759 3.41,5.379 4.591,5.712 0.239,0.07 0.08,-0.49 0.125,-0.736"
       id="path1250" /><path
       style="fill:none;stroke:#ffffff;stroke-width:0.499999"
       d="m 15274.841,34089.316 c -0.913,2.117 -3.046,13.132 -4.559,14.113"
       id="path1252" /><path
       style="fill:none;stroke:#ffffff;stroke-width:0.499999"
       d="m 15269.716,34088.838 c 2.944,5.159 4.577,10.726 8.049,15.581"
       id="path1254" /><path
       style="fill:none;stroke:#ffffff;stroke-width:0.499999"
       d="m 15285.719,34096.672 c 2.389,0.294 4.715,-1.543 7.106,-1.273"
       id="path1256" /><path
       style="fill:none;stroke:#ffffff;stroke-width:0.499999"
       d="m 15298.516,34098.651 c 0.253,-1.447 -0.312,-9.655 2.452,-9.956 2.554,-0.278 3.128,6.929 3.396,8.739"
       id="path1258" /><path
       style="fill:none;stroke:#ffffff;stroke-width:0.499999"
       d="m 15305.37,34080.04 c 1.31,1.773 2.957,3.339 3.93,5.318 2.212,4.496 2.992,11.549 2.421,16.489 -0.249,2.157 -1.24,4.884 -1.729,4.837 -0.459,-0.05 -0.44,-0.813 -0.66,-1.217"
       id="path1260" /><path
       style="fill:none;stroke:#ffffff;stroke-width:0.499999"
       d="m 15318.167,34079.08 c 2.118,4.934 1.284,10.469 1.509,15.724"
       id="path1262" /><path
       style="fill:none;stroke:#ffffff;stroke-width:0.499999"
       d="m 15325.713,34112.367 c -1.097,-1.204 -3.383,-2.331 -1.824,-4.241 1.478,-1.813 2.288,5.014 1.824,4.241 -4.845,-8.046 0.447,-3.442 0.471,-3.112 0.08,1.048 -0.314,2.075 -0.471,3.112 z"
       id="path1264" /><path
       style="fill:none;stroke:#ffffff;stroke-width:0.499999"
       d="m 15346.526,34091.1 c 0.141,0.07 6.857,0.03 5.943,1.159"
       id="path1278" /><path
       style="fill:none;stroke:#ffffff;stroke-width:0.499999"
       d="m 15345.835,34097.661 c 0.193,-0.613 12.585,-2.161 9.401,0.368"
       id="path1280" /><path
       style="fill:none;stroke:#ffffff;stroke-width:0.499999"
       d="m 15383.847,34069.179 c -1.938,3.008 -3.744,6.101 -5.282,9.335 -1.089,2.288 -0.998,3.511 -0.849,0.169"
       id="path1282" /><path
       style="fill:none;stroke:#ffffff;stroke-width:0.499999"
       d="m 15377.873,34069.264 c 1.205,1.143 2.682,2.05 3.616,3.423 0.148,0.217 3.177,11.354 4.087,8.427"
       id="path1284" /><path
       style="fill:none;stroke:#ffffff;stroke-width:0.499999"
       d="m 15389.632,34066.21 c 1.499,2.924 1.854,6.022 1.666,9.221"
       id="path1286" /><path
       style="fill:none;stroke:#ffffff;stroke-width:0.499999"
       d="m 15392.525,34086.885 c -0.581,-8.562 1.206,4.919 -0.943,5.628 -1.126,0.373 0.895,-6.34 0.943,-5.628 0.1,1.487 -0.598,2.921 -0.881,4.384 -0.03,0.167 -0.234,0.508 -0.06,0.508 0.07,0 0.477,-0.934 0.503,-0.989"
       id="path1288" /><path
       style="fill:none;stroke:#ffffff;stroke-width:0.499999"
       d="m 15371.994,34101.506 c 2.979,-0.715 6.031,-0.958 9.055,-1.384 8.83,-1.246 17.758,-2.307 26.693,-1.754 4.04,0.249 8.092,0.04 12.137,0.114 1.165,0.03 2.327,0.08 3.489,0.169 0.341,0.03 1.279,0 1.007,0.198 -0.716,0.54 -1.186,0.683 -1.981,1.016"
       id="path1294" /><path
       style="fill:none;stroke:#ffffff;stroke-width:0.499999"
       d="m 15376.367,34118.767 c 0.493,1.559 -1.3,4.133 -0.422,5.58 0.257,0.426 0.357,-0.931 0.444,-1.418 0.101,-0.563 -0.03,-4.156 -0.02,-4.162 0.74,-0.592 1.9,0 2.846,-0.08 0.719,-0.06 2.356,-0.564 2.957,-0.781 1.499,-0.539 2.459,-1.518 2.512,-1.278 0.344,1.548 -0.09,3.522 0.07,5.16 0.03,0.336 0.106,1.333 0.155,1 0.04,-0.296 -0.601,-5.22 -0.733,-5.281 -1.623,-0.73 -4.103,0.574 -5.692,0.899 -0.699,0.146 -2.06,-0.351 -2.112,0.36 -0.103,1.416 1.087,2.63 1.445,4.001 0.333,1.275 -0.06,2.622 0.467,3.9 0.03,0.08 0.08,-0.17 0.09,-0.26 0.09,-0.722 0.04,-0.56 -0.07,-1.5"
       id="path1296" /><path
       style="fill:none;stroke:#ffffff;stroke-width:0.499999"
       d="m 15382.703,34140.087 c 0.05,-0.6 0.117,-1.198 0.156,-1.799 0.04,-0.603 -0.1,1.199 -0.156,1.799 -0.135,1.337 -0.353,2.662 -0.467,4.001 -0.115,1.362 0.156,2.704 0.156,4.059 0,0.285 -0.134,-0.556 -0.156,-0.839 -0.03,-0.392 -0.128,-5.13 -0.178,-5.141 -0.267,-0.06 -0.403,0.373 -0.555,0.601"
       id="path1298" /><path
       style="fill:none;stroke:#ffffff;stroke-width:0.499999"
       d="m 15379.702,34133.147 c 0.08,0.704 1.709,-4.715 2.868,-3.839 0.698,0.527 0.857,1.754 1.023,2.519 0.364,1.68 0.369,1.85 0.378,1.82 0.291,-0.915 -0.385,-3.511 -1.779,-3.28 -0.531,0.09 -1.131,0.219 -1.49,0.621 -0.529,0.59 -1.39,2.85 -1,2.159 0.656,-1.164 1.194,-2.389 1.801,-3.579 1.47,-2.887 2.661,1.762 3.646,2.759"
       id="path1300" /><path
       style="fill:none;stroke:#ffffff;stroke-width:0.499999"
       d="m 15378.768,34146.168 c 0.604,1.923 0.429,3.886 0.334,5.857 -0.07,1.337 -0.09,1.731 0.02,1.662 1.593,-0.979 2.664,-2.006 4.557,-2.561 0.819,-0.241 2.017,-0.519 2.913,-0.519 0.155,0 0.617,0.244 0.756,0.119 0.181,-0.161 0.715,-11.676 -0.778,-7.26"
       id="path1302" /><path
       style="fill:none;stroke:#ffffff;stroke-width:0.499999"
       d="m 15383.481,34163.746 c 0.497,-2.402 0.271,-1.084 0.601,-3.64 0.271,-2.101 -0.146,-3.995 1.867,-1.321 0.77,1.022 2.444,2.9 2.535,4.321 0.04,0.595 -1.139,-0.516 -1.734,-0.46 -6.11,0.579 -0.632,2.622 -5.892,-0.881 -0.208,-0.138 -0.579,-0.03 -0.711,-0.238 -0.328,-0.53 0.62,-1.13 1.133,-1.482 0.904,-0.617 6.277,-3.374 7.159,-1.879 0.683,1.157 -2.38,4.869 -2.845,5.178 -0.596,0.4 -1.578,-0.08 -2.113,0.402 -0.733,0.657 -2.092,3.3 -1.4,2.599"
       id="path1304" /><path
       style="fill:none;stroke:#ffffff;stroke-width:0.499999"
       d="m 15378.657,34109.15 c -0.633,-6.946 2.203,-3.138 0,0 -0.541,0.77 0.09,-1.887 0.2,-2.821 0.02,-0.169 0.169,0.31 0.178,0.479 0.05,0.905 -0.138,1.172 -0.378,2.342 z"
       id="path1306" /><path
       style="fill:none;stroke:#ffffff;stroke-width:0.499999"
       d="m 15378.635,34114.129 c -0.08,0.749 0.887,7.144 0.355,2.36"
       id="path1308" /><path
       style="fill:none;stroke:#ffffff;stroke-width:0.499999"
       d="m 15396.109,34113.989 c -2.153,8.554 -2.619,18.648 2.401,26.397 0.853,1.318 1.972,2.44 2.957,3.66"
       id="path1310" /><path
       style="fill:none;stroke:#ffffff;stroke-width:0.499999"
       d="m 15411.744,34123.384 c -1.692,3.363 -1.845,7.192 -2.623,10.822 -0.154,0.717 -0.384,2.86 -0.511,2.138 -0.05,-0.305 -0.07,-0.612 -0.111,-0.919"
       id="path1318" /><path
       style="fill:none;stroke:#ffffff;stroke-width:0.499999"
       d="m 15406.853,34125.485 c 1.962,3.186 3.749,6.472 5.492,9.779 0.375,0.714 1.296,2.805 1.356,2"
       id="path1320" /><path
       style="fill:none;stroke:#ffffff;stroke-width:0.499999"
       d="m 15415.19,34130.126 c 0.05,-0.416 5.471,-2.109 4.736,-0.521"
       id="path1322" /><path
       style="fill:none;stroke:#ffffff;stroke-width:0.499999"
       d="m 15427.618,34120.246 c -0.06,0.641 -0.04,1.291 -0.178,1.919 -0.07,0.317 -1.516,2.143 -1.089,0.859 2.019,-6.064 1.078,-1.42 0.845,0.262"
       id="path1324" /><path
       style="fill:none;stroke:#ffffff;stroke-width:0.499999"
       d="m 15427.774,34129.724 c 0.38,2.63 0.483,5.278 0.667,7.921"
       id="path1326" /><path
       style="fill:none;stroke:#ffffff;stroke-width:0.499999"
       d="m 15433.132,34126.726 c 0.876,1.812 2.596,8.183 0.8,9.797"
       id="path1328" /><path
       style="fill:none;stroke:#ffffff;stroke-width:0.499999"
       d="m 15432.02,34133.026 c 2.049,-1.945 4.864,-1.892 7.47,-2.4"
       id="path1330" /><path
       style="fill:none;stroke:#ffffff;stroke-width:0.499999"
       d="m 15440.58,34123.524 c 2.426,2.593 2.419,6.144 3.89,9.121"
       id="path1332" /><path
       style="fill:none;stroke:#ffffff;stroke-width:0.499999"
       d="m 15444.025,34108.247 c 2.992,2.181 3.978,6.2 4.669,9.658 1.86,9.305 0.81,17.595 -1.689,26.619"
       id="path1334" /><path
       style="fill:none;stroke:#ffffff;stroke-width:0.499999"
       d="m 15299.361,34216.449 c 0.468,4.342 0.161,1.024 0.4,4.86 0,0.109 0,0.416 0.05,0.32 0.782,-1.407 -1.109,-3.95 -0.445,-5.18 0.603,-1.117 3.438,-1.678 4.758,-1.958 2.209,-0.471 1.071,-0.201 2.912,-0.561 1.021,-0.201 1.617,-0.598 2.513,-0.9 0.435,-0.148 0.378,0.86 0.4,1.321 0.06,1.315 -0.659,4.262 0.378,5.299"
       id="path1344" /><path
       style="fill:none;stroke:#ffffff;stroke-width:0.499999"
       d="m 15304.097,34231.228 c 0.384,1.284 1.648,-8.445 2.979,-6.897 0.722,0.838 1.274,2.537 1.601,3.357 0.275,0.696 0.494,1.731 0.867,2.4 0.197,0.357 -0.13,-0.802 -0.223,-1.199 -0.215,-0.912 -0.519,-2.047 -1.178,-2.759 -0.984,-1.064 -1.956,-0.167 -2.468,0.82 -0.177,0.341 -0.267,0.72 -0.4,1.08 -0.393,1.066 -2.179,2.659 -1.178,3.198 2.195,1.186 1.626,-12.901 4.468,-5.357 0.305,0.807 0.544,2.167 0.956,3.058"
       id="path1346" /><path
       style="fill:none;stroke:#ffffff;stroke-width:0.499999"
       d="m 15308.365,34238.089 c 0.582,0.995 1.507,4.371 1.668,4.818"
       id="path1348" /><path
       style="fill:none;stroke:#ffffff;stroke-width:0.499999"
       d="m 15305.72,34247.987 c 0.14,0.886 0.161,1.802 0.422,2.662 0.881,2.905 8.039,-0.953 8.048,-1.021 0.234,-1.683 0.162,-9.158 -0.556,-10.319 -0.04,-0.06 -0.531,1.897 -0.556,2"
       id="path1350" /><path
       style="fill:none;stroke:#ffffff;stroke-width:0.499999"
       d="m 15310.388,34262.468 c 0.04,-0.781 0.06,-1.561 0.112,-2.342 0.106,-1.143 0.269,-2.762 0.355,-3.998 0.04,-0.595 -0.271,-2.145 0.2,-1.78 1.091,0.846 2.065,2.712 3.179,3.781 0.123,0.116 0.357,0.235 0.312,0.399 -0.107,0.384 -6.198,1.484 -6.27,0.68 -0.197,-2.209 8.367,-8.758 4.891,-1.881 -0.376,0.743 -0.715,1.508 -1.111,2.241 -0.531,0.979 -1.112,1.931 -1.668,2.9 z"
       id="path1352" /><path
       style="fill:none;stroke:#ffffff;stroke-width:0.499999"
       d="m 15299.183,34198.69 c -0.155,-0.953 -0.446,-1.892 -0.467,-2.858 -0.01,-0.56 0.07,-1.627 0.623,-1.561 0.215,0.03 -0.04,2.178 -0.156,4.419 z"
       id="path1354" /><path
       style="fill:none;stroke:#ffffff;stroke-width:0.499999"
       d="m 15299.317,34205.529 c -0.556,2.366 1.204,4.504 1.044,6.8"
       id="path1356" /><path
       style="fill:none;stroke:#ffffff;stroke-width:0.499999"
       d="m 15325.039,34210.271 c -0.301,0.862 0.436,-3.223 0.07,-2.882 -1.33,1.241 0.518,0.866 -0.07,2.882 -0.544,1.878 -2.047,3.392 -2.557,5.278 -1.784,6.62 1.072,14.028 4.336,19.579 1.615,2.747 4.408,3.81 6.18,6.2"
       id="path1358" /><path
       style="fill:none;stroke:#ffffff;stroke-width:0.499999"
       d="m 15339.713,34218.79 c -0.408,1.212 -0.862,2.411 -1.223,3.638 -0.09,0.302 -1.656,6.615 -1.734,6.98 -0.242,1.127 -0.417,2.268 -0.623,3.4 -0.02,0.1 -0.04,0.376 -0.04,0.28 -0.02,-0.386 0,-0.772 0,-1.158 -0.03,-0.456 -0.06,-0.908 -0.09,-1.36"
       id="path1360" /><path
       style="fill:none;stroke:#ffffff;stroke-width:0.499999"
       d="m 15334.999,34220.489 c 1.826,4.022 6.098,7.16 7.026,11.541"
       id="path1362" /><path
       style="fill:none;stroke:#ffffff;stroke-width:0.499999"
       d="m 15345.604,34225.691 c -1.334,1.315 4.043,-2.247 3.646,-0.821"
       id="path1364" /><path
       style="fill:none;stroke:#ffffff;stroke-width:0.499999"
       d="m 15351.073,34219.65 c 0.01,-0.743 -0.23,-2.915 0.489,-3.799 1.444,-1.778 -1.363,8.255 -0.489,3.799 0.243,-1.238 0.713,-2.426 1.179,-3.601 0.07,-0.169 0.273,-0.513 0.4,-0.378 0.212,0.222 0.07,0.611 0.111,0.918"
       id="path1366" /><path
       style="fill:none;stroke:#ffffff;stroke-width:0.499999"
       d="m 15353.474,34225.67 c 1.07,3.145 1.767,6.339 2.09,9.638"
       id="path1368" /><path
       style="fill:none;stroke:#ffffff;stroke-width:0.499999"
       d="m 15367.236,34215.811 c -2.242,3.509 1.292,9.893 -0.04,13.258 -0.174,0.437 -0.653,-0.685 -0.912,-1.079"
       id="path1376" /><path
       style="fill:none;stroke:#ffffff;stroke-width:0.499999"
       d="m 15363.39,34224.19 c 1.424,-0.402 4.929,-3.153 6.492,-1.219"
       id="path1378" /><path
       style="fill:none;stroke:#ffffff;stroke-width:0.499999"
       d="m 15370.793,34218.229 c 1.58,2.903 2.115,6.131 1.69,9.38"
       id="path1380" /><path
       style="fill:none;stroke:#ffffff;stroke-width:0.499999"
       d="m 15372.905,34204.55 c 0.682,0.934 1.471,1.797 2.046,2.8 2.72,4.749 4.572,10.567 4.846,16.039 0.139,2.775 -1.518,12.427 -2.312,8.781"
       id="path1382" /><path
       style="fill:none;stroke:#ffffff;stroke-width:0.499999"
       d="m 15388.09,34213.951 c 0.429,-0.03 5.38,-1.071 5.202,0.1 -0.08,0.558 -0.652,0.921 -0.978,1.381"
       id="path1384" /><path
       style="fill:none;stroke:#ffffff;stroke-width:0.499999"
       d="m 15386.089,34220.05 c 1.604,2.106 8.631,-0.81 8.159,1.061"
       id="path1386" /><path
       style="fill:none;stroke:#ffffff;stroke-width:0.499999"
       d="m 15423.862,34192.231 c -1.084,3.763 -1.509,7.93 -2.957,11.579 -0.146,0.367 -0.02,-0.786 -0.02,-1.18"
       id="path1388" /><path
       style="fill:none;stroke:#ffffff;stroke-width:0.499999"
       d="m 15420.393,34193.771 c 0.712,0.355 1.596,0.477 2.135,1.061 1.912,2.069 2.858,5.824 3.534,8.478 0.292,1.148 0.331,1.807 0.401,1.521 0.09,-0.36 -0.174,-1.635 -0.223,-1.921"
       id="path1390" /><path
       style="fill:none;stroke:#ffffff;stroke-width:0.499999"
       d="m 15429.575,34185.813 c 1.407,2.534 1.134,4.363 1.134,6.958"
       id="path1392" /><path
       style="fill:none;stroke:#ffffff;stroke-width:0.499999"
       d="m 15432.732,34200.69 c -0.156,0.654 -1.12,1.805 -0.467,1.961 0.654,0.156 0.173,-2.564 0.467,-1.961 0.14,0.289 0.9,3.44 -0.511,3.961 -1.275,0.471 -1.105,-5.001 0.511,-3.961 1.028,0.664 0.814,4.234 -0.267,3.662 -1.337,-0.712 0.623,-7.848 0.02,-0.78"
       id="path1394" /><path
       style="fill:none;stroke:#ffffff;stroke-width:0.499999"
       d="m 15412.568,34211.53 c 11.73,0.138 23.459,-6.077 35.215,-3.54"
       id="path1396" /><path
       style="fill:none;stroke:#ffffff;stroke-width:0.499999"
       d="m 15419.464,34218.29 c 0.192,-0.624 0.407,-1.246 0.578,-1.878 0.17,-0.633 -0.279,1.296 -0.578,1.878 -2.247,4.369 -6.621,9.626 -3.958,14.981 0.269,0.54 3.56,4.831 4.18,2.76"
       id="path1398" /><path
       style="fill:none;stroke:#ffffff;stroke-width:0.499999"
       d="m 15425.422,34224.532 c -1.646,0.889 -2.742,13.332 -2.223,5.519"
       id="path1400" /><path
       style="fill:none;stroke:#ffffff;stroke-width:0.499999"
       d="m 15422.932,34223.55 c 0.588,0.64 4.24,7.289 4.402,7.221 0.132,-0.06 0.06,-0.281 0.09,-0.421"
       id="path1402" /><path
       style="fill:none;stroke:#ffffff;stroke-width:0.499999"
       d="m 15428.134,34226.551 c -0.07,0.108 5.397,-1.389 4.669,-0.08"
       id="path1404" /><path
       style="fill:none;stroke:#ffffff;stroke-width:0.499999"
       d="m 15435.938,34226.77 c 0.738,-1.81 0.528,-4.151 1.867,-5.699 0.983,-1.138 1.665,5.998 1.69,6.339"
       id="path1406" /><path
       style="fill:none;stroke:#ffffff;stroke-width:0.499999"
       d="m 15441.051,34216.451 c 1.448,2.316 3.398,16.063 0.823,17.378 -0.407,0.209 -0.654,-0.664 -0.845,-1.079"
       id="path1408" /><path
       style="fill:none;stroke:#ffffff;stroke-width:0.499999"
       d="m 15446.476,34216.332 c 1.328,3.218 1.582,6.895 1.712,10.377"
       id="path1410" /><path
       style="fill:none;stroke:#ffffff;stroke-width:0.499999"
       d="m 15449.055,34235.43 c -3.663,-3.802 -0.294,-2.802 0,0 0.303,2.897 -1.216,5.12 -1.623,4.919 -1.858,-0.905 -2.342,-6.155 -0.956,-7.56 0.127,-0.127 0.385,0.05 0.511,0.18 0.749,0.768 2.049,1.389 2.068,2.461 0.154,9.006 -3.878,2.26 -2.313,0.381 0.501,-0.601 2.099,-1.132 2.313,-0.381 0.375,1.318 -1.248,5.191 -1.468,3.839 -0.06,-0.376 -0.04,-0.759 -0.07,-1.14"
       id="path1412" /><path
       style="fill:none;stroke:#ffffff;stroke-width:0.499999"
       d="m 15466.449,34094.635 c 2.909,-0.85 5.763,-0.651 8.537,0.539 0.582,0.249 1.588,1.323 0.512,1.601"
       id="path1414" /><path
       style="fill:none;stroke:#ffffff;stroke-width:0.499999"
       d="m 15468.717,34098.812 c 2.249,-0.992 3.808,-1.259 6.025,-1.198"
       id="path1416" /><path
       style="fill:none;stroke:#ffffff;stroke-width:0.499999"
       d="m 15478.099,34088.115 c 1.726,-0.248 3.442,-0.891 5.18,-0.741 4.731,0.413 -4.324,12.065 -5.002,13.46"
       id="path1418" /><path
       style="fill:none;stroke:#ffffff;stroke-width:0.499999"
       d="m 15510.625,34087.335 c -2.406,1.241 -1.703,0.495 -3.246,3.619 -1.923,3.89 -2.998,7.843 0.111,11.42 0.725,0.833 3.084,3.013 3.446,2.9 0.172,-0.06 -0.03,-0.36 -0.05,-0.54"
       id="path1420" /><path
       style="fill:none;stroke:#ffffff;stroke-width:0.499999"
       d="m 15514.671,34096.653 c -1.416,3.866 0.07,0 -1.223,2.961 -0.11,0.254 0.25,-0.495 0.378,-0.741 0.488,-0.939 2.357,-4.463 2.646,-5.239 0.261,-0.703 0.311,-1.465 0.467,-2.201 -0.871,3.543 0.25,6.344 1.289,9.281"
       id="path1422" /><path
       style="fill:none;stroke:#ffffff;stroke-width:0.499999"
       d="m 15519.806,34096.394 c 1.235,-0.04 4.265,-1.042 5.358,0.04"
       id="path1424" /><path
       style="fill:none;stroke:#ffffff;stroke-width:0.499999"
       d="m 15527.766,34096.473 c -0.01,1.747 1.784,-5.823 2.734,-4.479 0.954,1.349 1.022,3.329 1.067,4.9 0.01,0.408 -0.02,0.812 -0.02,1.22 0,0.119 0.02,0.479 0,0.36 -0.03,-0.238 -0.03,-0.479 -0.04,-0.72"
       id="path1426" /><path
       style="fill:none;stroke:#ffffff;stroke-width:0.499999"
       d="m 15531.656,34086.395 c 1.423,0.752 3.138,1.112 4.269,2.26 2.488,2.524 1.966,7.554 0.867,10.499 -1.29,3.458 -0.802,3.58 -2.001,1.979"
       id="path1428" /><path
       style="fill:none;stroke:#ffffff;stroke-width:0.499999"
       d="m 15539.993,34087.033 c 2.004,-0.251 0.09,-2.667 0.934,-3.559 0.111,-0.116 0.197,0.305 0.156,0.461 -0.278,1.058 -1.166,2.008 -1.09,3.098 0.126,1.799 1.185,3.405 1.668,5.141 0.209,0.751 0.207,1.603 0.422,2.381"
       id="path1430" /><path
       style="fill:none;stroke:#ffffff;stroke-width:0.499999"
       d="m 15543.195,34103.374 c -2.635,6.008 -0.05,-0.379 0,0 0.142,1.071 -0.622,2.087 -1.134,3.04 -0.104,0.193 -0.233,-0.434 -0.156,-0.64 0.318,-0.852 0.86,-1.601 1.29,-2.4 z"
       id="path1432" /><path
       style="fill:none;stroke:#ffffff;stroke-width:0.499999"
       d="m 15551.532,34088.015 c 0.517,-1 5.862,-1.646 4.669,0.86"
       id="path1434" /><path
       style="fill:none;stroke:#ffffff;stroke-width:0.499999"
       d="m 15552.354,34092.055 c 2.107,1.508 4.605,-0.238 6.848,0.519"
       id="path1436" /><path
       style="fill:none;stroke:#ffffff;stroke-width:0.499999"
       d="m 15585.614,34063.856 c -1.809,3.892 -2.466,5.199 -4.135,9.239 -0.895,2.164 -0.744,2.429 -0.734,2.421 0.3,-0.246 0.37,-0.68 0.556,-1.021"
       id="path1438" /><path
       style="fill:none;stroke:#ffffff;stroke-width:0.499999"
       d="m 15581.123,34065.935 c 2.746,2.71 5.69,6.869 6.736,9.98"
       id="path1440" /><path
       style="fill:none;stroke:#ffffff;stroke-width:0.499999"
       d="m 15593.328,34063.956 c 0.03,0.884 -0.881,8.499 0.334,8.2"
       id="path1442" /><path
       style="fill:none;stroke:#ffffff;stroke-width:0.499999"
       d="m 15595.418,34078.794 c -0.252,0.706 -0.475,1.426 -0.756,2.122 -0.01,0.03 -0.04,-0.06 -0.07,-0.08 0.274,-0.68 0.981,-2.754 0.822,-2.04 -0.262,1.18 -0.724,2.305 -1.134,3.44 -0.149,0.415 -0.659,1.534 -0.733,1.1 -0.182,-1.063 1.205,-5.194 1.867,-4.54 0.889,0.878 -3.097,8.567 -2.445,4.54 0.152,-0.944 0.363,-1.878 0.533,-2.82"
       id="path1444" /><path
       style="fill:none;stroke:#ffffff;stroke-width:0.499999"
       d="m 15606.579,34059.117 c -4.842,9.999 -5.911,17.502 1.556,25.977"
       id="path1446" /><path
       style="fill:none;stroke:#ffffff;stroke-width:0.499999"
       d="m 15616.339,34065.755 c -2.104,3.808 -3.74,8.134 -4.936,12.081"
       id="path1448" /><path
       style="fill:none;stroke:#ffffff;stroke-width:0.499999"
       d="m 15612.67,34068.436 c 0,-0.606 0.607,-1.821 0,-1.821 -0.333,0 1.839,10.121 2.068,11.459"
       id="path1450" /><path
       style="fill:none;stroke:#ffffff;stroke-width:0.499999"
       d="m 15619.162,34071.155 c 1.338,-0.666 2.827,-1.082 4.313,-0.859"
       id="path1452" /><path
       style="fill:none;stroke:#ffffff;stroke-width:0.499999"
       d="m 15627.255,34071.896 c 0.459,-1.026 0.846,-2.09 1.378,-3.079 1.931,-3.599 2.543,-4.191 2.624,-0.482 0.03,1.55 0.261,4.141 -0.379,5.58"
       id="path1454" /><path
       style="fill:none;stroke:#ffffff;stroke-width:0.499999"
       d="m 15632.457,34057.635 c 0.6,0.389 1.496,0.516 1.801,1.162 1.31,2.781 0.706,20.746 -4.491,19.997"
       id="path1456" /><path
       style="fill:none;stroke:#ffffff;stroke-width:0.499999"
       d="m 15640.705,34054.336 c -0.855,4.183 -0.393,8.469 -0.978,12.679"
       id="path1458" /><path
       style="fill:none;stroke:#ffffff;stroke-width:0.499999"
       d="m 15640.305,34078.114 c -1.452,-4.305 0.37,-0.717 0,0 -0.572,1.109 -3.009,3.448 -3.024,2.201 0,-0.545 -0.04,-1.262 0.401,-1.579 0.726,-0.529 2.66,-1.519 2.623,-0.622 -0.211,5.138 -3.991,0.534 -2.423,0.06 0.773,-0.233 1.615,-0.04 2.423,-0.06 z"
       id="path1460" /><path
       style="fill:none;stroke:#ffffff;stroke-width:0.499999"
       d="m 15575.12,34091.274 c 21.827,0.1 43.817,-0.979 65.607,1.141"
       id="path1462" /><path
       style="fill:none;stroke:#ffffff;stroke-width:0.499999"
       d="m 15601.621,34103.554 c -0.674,0.365 -1.463,0.574 -2.023,1.1 -2.072,1.942 -5.104,6.723 -6.848,9.139 -0.511,0.709 -0.853,1.566 -1.511,2.141 -0.239,0.206 0.09,-0.627 0.133,-0.942"
       id="path1464" /><path
       style="fill:none;stroke:#ffffff;stroke-width:0.499999"
       d="m 15592.306,34105.533 c 0.867,0.368 1.965,0.407 2.601,1.1 2.037,2.226 5.321,7.184 4.824,10.758"
       id="path1466" /><path
       style="fill:none;stroke:#ffffff;stroke-width:0.499999"
       d="m 15602.443,34103.914 c 1.55,2.82 4.113,7.498 2.135,10.718"
       id="path1468" /><path
       style="fill:none;stroke:#ffffff;stroke-width:0.499999"
       d="m 15606.712,34124.792 c -3.358,1.262 -0.226,-4.133 -0.04,-3.281 0.38,1.797 0.417,6.054 -1.379,7.321 -0.487,0.344 -1.069,-1.069 -0.8,-1.601 5.092,-10.067 0.243,5.115 2.045,-5.537 0.04,-0.241 0.631,0.09 0.645,0.338 0.08,1.331 -2.375,10.578 -1.756,5.739 0.891,-6.972 2.905,-8.755 1.289,-2.979 z"
       id="path1470" /><path
       style="fill:none;stroke:#ffffff;stroke-width:0.499999"
       d="m 15684.96,34085.726 c -0.942,3.551 -1.799,7.131 -3.135,10.56 -0.29,0.743 -0.661,2.725 -1.156,2.098 -0.31,-0.389 -0.267,-0.958 -0.401,-1.44"
       id="path1472" /><path
       style="fill:none;stroke:#ffffff;stroke-width:0.499999"
       d="m 15678.734,34089.544 c -0.05,-0.698 0.545,-2.151 -0.155,-2.098 -0.7,0.05 -0.525,1.926 0.155,2.098 9.354,2.365 2.172,-2.241 4.38,-0.778"
       id="path1474" /><path
       style="fill:none;stroke:#ffffff;stroke-width:0.499999"
       d="m 15686.004,34090.306 c 1.349,0.286 2.67,0.781 4.047,0.86 0.08,0 3.461,-0.312 1.334,-1.5 -2.331,-1.305 -5.299,5.305 0,4.479 0.924,-0.143 1.763,-0.627 2.645,-0.939 1.756,0.486 3.778,0.411 5.269,1.459 0.617,0.434 0.291,1.556 0.02,2.26 -0.192,0.503 -0.766,0.805 -1.268,1 -2.037,0.794 -3.262,-1.092 -4.201,-2.5"
       id="path1476" /><path
       style="fill:none;stroke:#ffffff;stroke-width:0.499999"
       d="m 15675.155,34096.566 c -0.526,-0.582 -1.482,-0.963 -1.578,-1.741 -0.554,-4.45 5.916,-14.499 8.781,-17.118 2.643,-2.416 5.547,-4.811 8.938,-5.961 3.878,-1.315 5.803,5.725 5.958,7.18 0.935,8.787 1.253,19.519 -5.892,26.178 -5.457,5.088 -11.884,2.895 -12.272,-4.9 -0.252,-5.061 0.308,-10.165 1.178,-15.158 0.754,-4.323 2.446,-8.427 3.669,-12.639"
       id="path1478" /><path
       style="fill:none;stroke:#ffffff;stroke-width:0.499999"
       d="m 15259.012,34303.989 c 0.124,-4.458 0.09,-0.1 0,0 -4.312,4.76 -5.117,1.169 -6.669,7.019 -0.254,0.955 -0.38,2.08 0.07,2.961 0.31,0.611 1.183,0.894 1.868,0.86 4.485,-0.215 8.61,-4.63 8.559,-9.078 -0.01,-0.918 -0.272,-2.492 -1.801,-1.842 -0.92,0.392 1.494,6.38 2.179,7.861 0.617,1.334 1.6,3.371 1.979,3.019 0.536,-0.497 0.202,-1.45 0.266,-2.18"
       id="path1480" /><path
       style="fill:none;stroke:#ffffff;stroke-width:0.499999"
       d="m 15267.194,34303.73 c 0.474,0.719 0.843,1.521 1.422,2.159 0.62,0.685 1.483,1.108 2.135,1.762 2.091,2.093 4.739,6.408 0.867,8.519 -2.633,1.434 -5.12,-0.73 -5.758,-3.22 -0.174,-0.68 0.03,-1.399 0.04,-2.101"
       id="path1482" /><path
       style="fill:none;stroke:#ffffff;stroke-width:0.499999"
       d="m 15291.071,34305.611 c -0.08,2.95 -0.799,5.818 -1.156,8.739 -0.218,1.781 -0.09,2.122 -0.178,2.058 -0.226,-0.164 -0.208,-0.518 -0.311,-0.78"
       id="path1484" /><path
       style="fill:none;stroke:#ffffff;stroke-width:0.499999"
       d="m 15286.536,34309.429 c 1.976,-0.987 3.304,-0.09 4.668,1.28"
       id="path1486" /><path
       style="fill:none;stroke:#ffffff;stroke-width:0.499999"
       d="m 15294.539,34312.469 c 0.03,-1.096 -0.907,-4.16 0.445,-5.138 1.644,-1.194 2.119,5.164 2.001,6.019 -0.06,0.434 -0.427,1.677 -0.445,1.238 -0.05,-1.267 1.999,-9.959 3.001,-10.038 1.02,-0.08 1.506,7.866 2.713,7.181 0.435,-0.249 3.786,-7.419 3.646,-7.861 -0.125,-0.392 -0.775,0.283 -1.156,0.439"
       id="path1488" /><path
       style="fill:none;stroke:#ffffff;stroke-width:0.499999"
       d="m 15319.839,34304.029 c 0.154,-8.401 -0.153,7.797 1.445,6.921 0.715,-0.392 1.651,-4.194 2.246,-5.141 0.539,-0.86 0.816,3.765 1.378,3.979 0.634,0.244 3.03,-6.035 3.38,-6.979 -0.05,0.867 0,1.746 -0.156,2.601 -0.07,0.379 -0.968,2.111 -0.711,2.84 0.941,2.676 7.735,-5.491 6.758,-6.74 -0.739,-0.944 -3.025,10.041 0.601,5.82"
       id="path1490" /><path
       style="fill:none;stroke:#ffffff;stroke-width:0.499999"
       d="m 15337.27,34299.811 c 0.716,2.477 0.957,5.048 1.467,7.578 0.128,0.637 0.207,2.32 0.644,1.841 0.224,-0.246 0.282,-0.6 0.423,-0.899"
       id="path1492" /><path
       style="fill:none;stroke:#ffffff;stroke-width:0.499999"
       d="m 15343.25,34298.149 c 3.061,0.112 -1.584,4.551 -0.333,6.2 0.317,0.42 0.535,-0.252 1.111,-1.36"
       id="path1494" /><path
       style="fill:none;stroke:#ffffff;stroke-width:0.499999"
       d="m 15349.364,34299.25 c -0.756,0.566 -1.581,1.051 -2.268,1.699 -0.693,0.653 -1.441,1.32 -1.845,2.18 -1.17,2.498 8.232,3.664 7.003,5.62"
       id="path1496" /><path
       style="fill:none;stroke:#ffffff;stroke-width:0.499999"
       d="m 15373.886,34304.05 c -0.934,-0.54 -2.134,-0.773 -2.801,-1.62 -2.446,-3.108 2.324,-8.442 4.757,-3.64 0.65,1.283 0.799,7.739 -0.867,7.36 -0.769,-0.174 -0.726,-1.399 -1.089,-2.1 z"
       id="path1498" /><path
       style="fill:none;stroke:#ffffff;stroke-width:0.499999"
       d="m 15377.488,34293.31 c 3.176,5.66 1.981,2.49 3.223,9.261 0.05,0.293 0,1.119 0.178,0.878 1.02,-1.386 0.58,-4.194 1.956,-5.339 1.79,-1.49 0.324,13.385 2.201,4.9 0.138,-0.622 0.225,-1.257 0.356,-1.879 0.01,-0.05 0.13,-1.397 0.623,-1.521 1.504,-0.381 2.371,-0.124 3.735,-0.72 0.427,-0.188 3.492,-2.085 2,-3.101 -0.824,-0.561 -1.855,0.892 -2.49,1.662 -4.592,5.577 -0.542,7.382 4.958,6.218 1.641,-0.347 2.043,-0.609 3.268,-1.278"
       id="path1500" /><path
       style="fill:none;stroke:#ffffff;stroke-width:0.499999"
       d="m 15415.06,34295.691 c -0.689,1.173 -1.597,2.242 -2.068,3.519 -3.504,9.512 9.128,7.456 9.405,1.04 0.05,-1.114 -0.8,-2.217 -1.29,-3.079"
       id="path1502" /><path
       style="fill:none;stroke:#ffffff;stroke-width:0.499999"
       d="m 15420.618,34293.371 c 2.286,-2.159 4.346,8.975 4.936,8.499 1.307,-1.059 1.663,-4.414 3.067,-5.819 1.79,-1.791 2.143,6.316 2.113,7.02"
       id="path1504" /><path
       style="fill:none;stroke:#ffffff;stroke-width:0.499999"
       d="m 15432.824,34300.311 c 0.894,-2.132 0.709,-4.424 0.844,-6.681"
       id="path1506" /><path
       style="fill:none;stroke:#ffffff;stroke-width:0.499999"
       d="m 15434.735,34288.212 c 0.715,-3.675 2.39,-5.308 5.003,-7.501 -0.938,4.292 -0.09,7.804 1.156,11.84 0.05,0.173 1.111,3.091 1.045,3.96 -0.119,0.26 -0.237,0.52 -0.356,0.78 -0.04,0.02 -0.07,0.04 -0.111,0.06"
       id="path1508" /><path
       style="fill:none;stroke:#ffffff;stroke-width:0.499999"
       d="m 15438.626,34292.53 c 2.323,-4.257 6.181,-5.006 10.694,-4.72"
       id="path1510" /><path
       style="fill:none;stroke:#ffffff;stroke-width:0.499999"
       d="m 15461.369,34286.312 c 0.688,3.257 2.936,5.76 4.269,8.7"
       id="path1512" /><path
       style="fill:none;stroke:#ffffff;stroke-width:0.499999"
       d="m 15462.437,34293.771 c -1.1,-2.855 -1.788,-2.321 1,-4.181 1.243,-0.828 1.529,-0.841 2.579,-1.058 1.082,1.233 2.361,2.318 3.246,3.699 0.325,0.506 -0.579,1.668 -1.045,1.68 -0.331,0 -0.652,-0.313 -0.778,-0.62 -0.627,-1.532 -1.86,-3.162 -1.423,-4.759 0.257,-0.937 2.002,-0.08 2.868,-0.521 1.661,-0.846 3.081,-4.112 4.625,-0.7 1.45,3.207 -1.204,7.097 -4.38,7.9 -1.001,0.253 -1.943,0.06 -1.868,-1.2 0.04,-0.646 0.415,-1.227 0.623,-1.84"
       id="path1514" /><path
       style="fill:none;stroke:#ffffff;stroke-width:0.499999"
       d="m 15495.807,34282.232 c -0.127,4.689 -0.274,9.377 0.134,14.057"
       id="path1516" /><path
       style="fill:none;stroke:#ffffff;stroke-width:0.499999"
       d="m 15493.206,34291.752 c -4.129,-2.588 5.322,-6.34 5.714,-5.562 0.583,1.159 0.391,4.519 0.822,6.12 0.136,0.505 0.405,1.603 0.845,1.32 1.879,-1.203 2.049,-4.042 3.424,-5.638 0.245,-0.286 0.153,0.736 0.244,1.098 0.164,0.654 0.477,3.866 2.157,3.461 1.338,-0.323 7.005,-3.389 3.179,-4.601 -2.131,-0.672 -1.476,2.198 -1,3.061 1.277,2.312 6.159,4.882 8.092,2.101"
       id="path1518" /><path
       style="fill:none;stroke:#ffffff;stroke-width:0.499999"
       d="m 15522.397,34282.33 c 0.719,1.302 1.538,2.551 2.157,3.9 1.078,2.36 1.889,5.572 1.289,5.702 -1.326,0.283 2.224,-9.488 3.646,-7.821 0.281,0.33 0.148,0.854 0.222,1.28 3.067,-1.916 3.053,-0.683 2.846,-2.359"
       id="path1520" /><path
       style="fill:none;stroke:#ffffff;stroke-width:0.499999"
       d="m 15532.579,34278.613 c 0.13,-1.516 0.612,-2.734 1.957,-3.562"
       id="path1522" /><path
       style="fill:none;stroke:#ffffff;stroke-width:0.499999"
       d="m 15535.447,34277.933 c -0.209,1.19 -0.844,3.953 -0.155,4.939 2.028,2.903 8.114,-3.265 5.313,-4.54 -1.294,-0.59 -2.604,1.278 -2.757,2.26 -0.69,4.437 3.274,8.062 2.112,12.559 -0.184,0.715 -2.229,1.411 -2.734,0.598 -0.723,-1.161 -0.727,-2.637 -1.09,-3.958"
       id="path1524" /><path
       style="fill:none;stroke:#ffffff;stroke-width:0.499999"
       d="m 15542.762,34279.512 c -0.34,-3.722 3.78,-1.923 3.868,-0.622 0.08,1.236 -0.544,2.424 -0.978,3.58 -4.038,10.779 -3.007,4.374 2.557,-0.03 0.309,-0.246 0.726,-0.617 1.089,-0.461 1.294,0.553 -2.269,9.97 -0.889,7.239"
       id="path1526" /><path
       style="fill:none;stroke:#ffffff;stroke-width:0.499999"
       d="m 15552.143,34282.11 c 0.467,2.771 1.126,4.945 -0.266,7.3 -1.345,-3.705 4.401,-3.85 4.558,-0.759"
       id="path1528" /><path
       style="fill:none;stroke:#ffffff;stroke-width:0.499999"
       d="m 15558.991,34295.149 c -2.195,2.44 -3.462,5.421 -4.958,8.282"
       id="path1530" /><path
       style="fill:none;stroke:#ffffff;stroke-width:0.499999"
       d="m 15260.502,34329.529 c -1.725,5.207 -2.113,10.777 -4.002,15.939 -0.134,0.365 -0.2,-0.757 -0.267,-1.141"
       id="path1532" /><path
       style="fill:none;stroke:#ffffff;stroke-width:0.499999"
       d="m 15253.343,34333.069 c 2.188,2.321 3.442,2.58 6.18,2.58"
       id="path1534" /><path
       style="fill:none;stroke:#ffffff;stroke-width:0.499999"
       d="m 15264.481,34342.528 c -1.409,-1.021 -1.556,-8.001 0.823,-7.699 1.887,0.238 1.944,5.781 1.445,6.659 -0.411,0.723 -1.512,0.693 -2.268,1.04 z"
       id="path1536" /><path
       style="fill:none;stroke:#ffffff;stroke-width:0.499999"
       d="m 15268.416,34336.927 c 3.205,4.895 -1.165,-2.008 2.357,4.561 0.539,1.003 0.841,2.339 1.845,2.879 1.507,0.81 4.532,-10.327 3.757,-11.719 -0.154,-0.277 -0.373,0.178 -0.956,1.12"
       id="path1538" /><path
       style="fill:none;stroke:#ffffff;stroke-width:0.499999"
       d="m 15286.246,34333.609 c -0.517,0.241 -0.46,-2.246 0.312,-2.302 4.071,-0.28 6.896,10.044 3.979,13.16 -2.226,2.379 -3.511,-3.651 -2.267,-5.558"
       id="path1540" /><path
       style="fill:none;stroke:#ffffff;stroke-width:0.499999"
       d="m 15292.761,34340.808 c 1.312,-1.984 1.166,-4.164 0.689,-6.379"
       id="path1542" /><path
       style="fill:none;stroke:#ffffff;stroke-width:0.499999"
       d="m 15293.383,34330.468 c 0.141,-0.907 0.197,-1.831 0.422,-2.72 0.09,-0.351 0.205,-0.767 0.512,-0.96 1.072,-0.672 -1.277,2.463 -0.934,3.68 0.356,1.262 2.056,1.678 2.823,2.739 0.473,0.656 1.949,5.535 3.202,5.482 1.334,-0.06 2.108,-11.541 1,-7.681"
       id="path1544" /><path
       style="fill:none;stroke:#ffffff;stroke-width:0.499999"
       d="m 15302.498,34335.009 c 2.27,-4.146 1.531,-1.665 1.156,-7.681 1.33,1.858 6.372,7.221 3.913,10.5 -0.94,1.254 -2.95,-4.884 -1.823,-5.66 1.522,-1.046 4.888,0.655 7.07,-0.279 0.589,-0.253 1.866,-1.866 0.801,-2.42 -2.674,-1.391 -4.688,3.874 -4.18,5.639 0.932,3.242 6.396,4.889 8.715,2.34"
       id="path1546" /><path
       style="fill:none;stroke:#ffffff;stroke-width:0.499999"
       d="m 15329.133,34332.789 c -0.1,1.135 7.314,0.1 6.202,-1.522 -2.929,-4.254 -8.418,3.017 -8.27,5.44 0.154,2.532 6.727,3.149 8.248,2.202 4.112,-2.567 -0.317,-6.485 0.222,-7.941 0.03,-0.07 0.109,0.117 0.156,0.18 0.383,0.516 0.742,1.051 1.134,1.559 1.141,1.487 3.262,5.096 4.757,6 2.28,1.379 3.223,-5.508 3.513,-6.738 0.08,-0.334 0.385,-1.892 0.489,-2.421 0,-0.04 0.274,-0.953 0.02,-0.839 -0.56,0.251 -1.273,0.958 -1.6,1.36 -3.555,4.355 3.796,6.474 4.602,5.998 1.656,-0.979 1.678,-2.858 1.912,-4.498 0.179,-1.257 0.349,-3.278 0.111,-4.601 -0.03,-0.188 -0.447,1.429 0.778,3.68 0.28,0.516 2.613,4.276 3.468,4.66 0.08,0.04 -0.125,-0.135 -0.155,-0.22 -0.142,-0.4 -0.329,-0.796 -0.356,-1.22 -0.06,-0.865 -0.02,-1.743 0.111,-2.601 0.301,-1.997 1.188,-3.492 2.535,-4.918 1.158,6.909 1.273,4.069 0.58,9.299 -0.146,1.099 -0.307,2.458 -0.445,2.42 -0.297,-0.08 -0.37,-0.493 -0.556,-0.74"
       id="path1548" /><path
       style="fill:none;stroke:#ffffff;stroke-width:0.499999"
       d="m 15354.411,34333.429 c -2.537,-3 2.594,-2.598 2.756,-0.841"
       id="path1550" /><path
       style="fill:none;stroke:#ffffff;stroke-width:0.499999"
       d="m 15375.42,34323.788 c 0.526,2.325 -0.705,-3.44 -0.534,-2.58 1.245,6.268 -0.135,-2.117 0.378,7.181 0.04,0.677 0.875,2.397 0.534,3.32"
       id="path1552" /><path
       style="fill:none;stroke:#ffffff;stroke-width:0.499999"
       d="m 15372.952,34330.349 c 0.511,-0.833 0.721,-1.958 1.534,-2.5 1.151,-0.77 2.657,-0.775 3.98,-1.18 4.45,-1.363 -0.685,-5.35 -0.823,-1.439 -0.03,0.973 0.242,1.981 0.712,2.839 2.195,4.005 10.597,-0.315 5.869,-6.779 4.809,0.802 4.892,2.289 5.291,6.599 0.07,0.745 0.07,-1.496 0.156,-2.24 0.111,-1.01 0.253,-2.018 0.422,-3.02 0.334,-1.978 0.751,-3.942 1.09,-5.92 0.961,0.181 1.408,10.863 1.778,10.94 0.131,0.03 0.506,-1.999 0.645,-2.58 0.114,-0.474 1.408,-5.808 2.068,-5.18 1.173,1.117 1.3,3.733 1.511,5.24 0.03,0.246 -0.04,0.954 0.09,0.74 0.787,-1.347 1.388,-6.398 3.891,-6.18 1.663,0.145 2.336,4.062 2.601,5.24"
       id="path1554" /><path
       style="fill:none;stroke:#ffffff;stroke-width:0.499999"
       d="m 15419.907,34310.13 c 0.355,-0.601 0.711,-1.201 1.067,-1.799 0.06,-0.03 0.209,-0.114 0.177,-0.06 -2.283,3.852 -1.184,-0.291 0.779,5.958 0.473,1.508 0.452,3.128 0.733,4.681 0.487,2.683 1.714,6.075 1.312,8.919 -0.02,0.159 -0.142,-0.299 -0.133,-0.461 0.06,-1.082 0.108,-2.177 0.333,-3.238 0.37,-1.752 1.229,-4.519 2.423,-6.059 0.486,-0.627 1.226,-0.693 1.579,0.08 0.777,1.699 0.742,3.355 0.244,5.16 -0.282,1.026 -3.248,5.815 -4.224,4.939 -0.893,-0.804 -0.138,-2.637 0.07,-3.421"
       id="path1556" /><path
       style="fill:none;stroke:#ffffff;stroke-width:0.499999"
       d="m 15433.312,34316.369 c 0.112,1.587 0.417,3.172 0.334,4.76 -0.05,1.002 -1.448,5.842 -1.534,5.879 -0.192,0.08 -0.311,-0.281 -0.467,-0.418"
       id="path1558" /><path
       style="fill:none;stroke:#ffffff;stroke-width:0.499999"
       d="m 15427.955,34318.43 c 3.783,0.704 2.362,0.04 4.513,1.32"
       id="path1560" /><path
       style="fill:none;stroke:#ffffff;stroke-width:0.499999"
       d="m 15449.742,34326.129 c -0.67,-3.162 0.853,-10.173 4.847,-10.84 3.528,-0.59 6.348,4.805 6.958,7.361 0.345,1.442 0.208,2.958 0.312,4.44"
       id="path1562" /><path
       style="fill:none;stroke:#ffffff;stroke-width:0.499999"
       d="m 15186.698,34328.942 c -3.16,1.534 -4.362,3.691 -5.558,6.757 -0.834,2.141 -1.481,4.757 -1.245,7.062 0.979,9.559 13.322,13.102 19.92,6.678 5.014,-4.879 6.038,-12.142 4.224,-18.558 -0.79,-2.797 -1.474,-4.053 -4.068,-5.22 -0.904,-0.405 -1.839,-1.072 -2.846,-1.159 -3.376,-0.294 -8.006,3.04 -10.427,4.44 z"
       id="path1564" /><path
       style="fill:none;stroke:#ffffff;stroke-width:0.499999"
       d="m 15191.878,34352.14 c 5.802,-5.876 8.162,-9.472 8.76,-17.88 0,-0.08 0.611,-4.379 -0.4,-4.9"
       id="path1566" /><path
       style="fill:none;stroke:#ffffff;stroke-width:0.499999"
       d="m 15198.148,34349.1 c 2.458,-5.373 3.735,-11.562 3.735,-17.499"
       id="path1568" /><path
       style="fill:none;stroke:#ffffff;stroke-width:0.499999"
       d="m 15192.745,34350.98 c 0,2.562 4.904,-0.05 5.514,-0.88 0.6,-0.818 0.498,-1.988 0.978,-2.881 0.416,-0.774 1.111,-1.36 1.667,-2.04 1.125,-0.944 3.3,-16.708 1.579,-7.839 -0.172,0.886 -0.339,1.772 -0.489,2.661 -0.184,1.09 -0.284,2.196 -0.512,3.278 -0.467,2.223 -2.011,4.52 1.735,-1.518 0.219,-0.355 0.183,-0.855 0.467,-1.162 0.299,-0.323 -0.1,0.908 -0.334,1.281 -0.729,1.159 -1.861,2.061 -2.446,3.299 -0.703,1.492 -0.65,3.27 -1.356,4.76 -0.468,0.99 -2.58,3.231 -2.49,2.14 0.102,-1.235 1.758,-4.056 2.179,-4.86 -1.837,7.009 -1.208,4.041 -6.492,3.761 -1.147,-0.06 -2.268,0.75 -3.401,0.56 -0.384,-0.07 0.356,-0.694 0.533,-1.04"
       id="path1570" /><path
       style="fill:none;stroke:#ffffff;stroke-width:0.499999"
       d="m 15201.861,34342.36 c -3.393,3.249 -8.62,4.667 -13.095,5.521 -1.91,2.452 5.833,2.897 6.936,2.079 0.692,-3.988 -0.272,-2.1 3.002,-4.86 1.065,-0.898 2.105,-1.827 3.157,-2.74 z"
       id="path1572" /><path
       style="fill:none;stroke:#ffffff;stroke-width:0.499999"
       d="m 15191.256,34346.96 c 2.901,-0.222 6.105,-1.455 8.982,-1.04"
       id="path1574" /><path
       style="fill:none;stroke:#ffffff;stroke-width:0.499999"
       d="m 15187.988,34347.06 c 2.385,0.556 6.408,0.757 7.425,3.498"
       id="path1576" /><path
       style="fill:none;stroke:#ffffff;stroke-width:0.499999"
       d="m 15183.297,34348.158 c 2.671,-0.05 5.3,0.445 7.914,0.921"
       id="path1578" /><path
       style="fill:none;stroke:#ffffff;stroke-width:0.499999"
       d="m 15186.92,34344.56 c 3.074,-0.19 6.151,0.288 8.782,1.939"
       id="path1580" /><path
       style="fill:none;stroke:#ffffff;stroke-width:0.499999"
       d="m 15190.767,34343.719 c 1.71,-1.154 8.317,-1.411 8.492,-3.218"
       id="path1582" /><path
       style="fill:none;stroke:#ffffff;stroke-width:0.499999"
       d="m 15194.857,34343.279 c 2.754,-1.338 5.223,-3.116 6.092,-6.119 -2.345,4.599 -7.02,6.54 -11.227,9"
       id="path1584" /><path
       style="fill:none;stroke:#ffffff;stroke-width:0.499999"
       d="m 15193.545,34345.64 c -1.24,1.325 -5.123,5.381 -7.381,3.82"
       id="path1586" /><path
       style="fill:none;stroke:#ffffff;stroke-width:0.499999"
       d="m 15201.772,34337.361 c 1.74,-6.758 1.316,-4.154 1.823,-7.7"
       id="path1588" /><path
       style="fill:none;stroke:#ffffff;stroke-width:0.499999"
       d="m 15245.523,34358.265 c -0.787,1.223 -0.32,0.675 -0.623,-2.68 -0.35,-3.884 -0.583,-8.138 -0.733,-12.038 -0.474,-12.301 -0.821,-24.599 -1.379,-36.896 -0.221,-4.882 0.1,-10.817 -0.822,-15.621 -0.154,-0.8 -0.593,-1.519 -0.889,-2.279 5.584,1.687 11.006,-0.148 16.696,-0.5 4.257,-0.263 8.205,1.266 12.406,1.38 5.897,0.16 12.302,-0.393 18.141,-1.06 6.172,-0.705 12.142,-2.449 18.275,-3.36 10.18,-1.511 20.225,-3.547 30.369,-5.3 6.695,-1.156 13.433,-2.034 20.142,-3.099 5.422,-0.861 10.816,-2.034 16.274,-2.64 6.213,-0.69 12.469,-0.858 18.698,-1.34 22.333,-1.727 44.667,-2.466 67.052,-3.14 8.174,-0.246 16.228,-1.071 24.366,-1.72 5.25,-0.418 10.501,-0.433 15.763,-0.52 11.502,-0.189 22.941,-0.119 34.438,0.08 5.606,0.1 11.556,-0.313 17.119,0.58 1.141,0.184 2.135,0.785 3.334,0.96 2.599,0.38 12.713,0.784 14.807,2.74 3.279,3.063 1.014,20.482 0.867,25.018 -0.223,6.917 -0.733,13.902 -0.645,20.819 0.04,2.75 0.638,5.809 0.423,8.58 -0.06,0.818 -3.288,-0.04 -3.446,-0.06 -3.795,-0.488 -7.669,-0.346 -11.472,-0.06 -7.194,0.539 -14.32,1.863 -21.476,2.739 -12.046,1.476 -24.013,2.856 -35.972,4.94 -6.634,1.156 -13.261,2.277 -19.965,2.98 -6.447,0.676 -12.915,1.019 -19.364,1.66 -30.228,3.005 -60.482,5.792 -90.685,9.039 -4.959,0.533 -9.88,1.345 -14.829,1.96 -4.645,0.577 -9.332,0.613 -13.984,1.08 -7.047,0.707 -14.058,1.855 -21.076,2.8 -4.266,0.574 -8.514,0.896 -12.783,1.52 -7.054,1.03 -14.236,0.974 -21.299,2.04 -9.961,1.503 -19.78,4.087 -29.747,5.559 -2.932,0.433 -6.204,0.01 -8.959,0.18"
       id="path1606" /><path
       style="fill:none;stroke:#ffffff;stroke-width:0.499999"
       d="m 15244.767,34351.786 c -0.727,1.86 -0.809,1.471 -0.756,3.259 0.08,2.861 1.023,5.729 1.556,8.541 0.261,1.376 0.01,2.68 0.445,4.04 1.03,-1.207 1.746,-2.777 3.09,-3.62 2.394,-1.501 11.178,-3.199 13.384,-3.66 1.448,-0.302 8.117,-1.794 9.582,-1.3 0.538,0.182 -1.088,0.33 -1.645,0.44 -2.717,0.539 -0.783,-0.02 -4.224,0.88 -5.105,1.338 -10.051,3.1 -15.362,3.46 -1.214,0.08 -4.569,0.02 -6.203,-0.22 -0.334,-0.05 -0.922,0.07 -0.978,-0.26 -0.06,-0.346 0.548,-0.44 0.822,-0.66"
       id="path1608" /><path
       style="fill:none;stroke:#ffffff;stroke-width:0.499999"
       d="m 15245.567,34366.245 c -0.172,-4.826 -1.376,-9.477 -1.6,-14.319 -0.08,-1.725 -0.08,-3.453 -0.07,-5.178 0.01,-1.696 0.112,-3.387 0.133,-5.08 0.03,-2.553 0.176,-5.252 -0.711,-7.699 -0.18,-0.498 -0.443,0.976 -0.511,1.497 -0.185,1.408 -0.353,2.823 -0.401,4.242 -0.249,7.471 1.162,14.422 3.068,21.579 0.238,0.889 0.673,1.757 0.69,2.678 0.01,0.785 -1.351,2.045 -0.601,2.28 1.474,0.463 11.371,-2.651 13.384,-3.119 8.518,-1.979 17.042,-4.173 25.723,-5.3"
       id="path1610" /><path
       style="fill:none;stroke:#ffffff;stroke-width:0.499999"
       d="m 15239.498,34297.07 c -0.07,-3.339 -0.472,-6.609 -1.067,-9.88 -0.09,-0.478 -0.193,-0.955 -0.223,-1.439 0,-0.09 0,-0.344 0.02,-0.259 0.301,0.902 0.201,1.892 0.311,2.839 0.167,1.434 0.354,2.865 0.511,4.299 0.162,1.479 0.212,2.972 0.445,4.44 1.306,8.223 3.155,16.349 4.335,24.598 0.377,2.638 1.646,12.772 2.246,17.54 0,0.06 -0.01,-0.122 -0.02,-0.18 -0.102,-0.649 -0.211,-1.294 -0.312,-1.94 -0.866,-5.548 -1.076,-6.76 -1.712,-13.639 -0.679,-7.35 -0.315,-14.698 -0.333,-22.058 0,-1.932 0.36,-7.986 -0.756,-9.779 -0.331,-0.535 -0.247,1.233 -0.289,1.857 -0.149,2.23 -0.229,5.85 -0.178,7.821 0.287,10.991 1.868,22.085 3.535,32.938 0.658,4.284 0.823,5.413 1.556,9.258 0.162,0.849 0.353,1.693 0.512,2.54 0.05,0.272 0.17,1.085 0.09,0.82 -5.589,-18.103 -4.015,-37.497 -6.847,-56.036"
       id="path1612" /><path
       style="fill:none;stroke:#ffffff;stroke-width:0.499999"
       d="m 15238.32,34291.511 c 7.163,-0.87 14.214,-2.331 21.409,-3.021 5.625,-0.538 8.333,-0.593 13.851,-0.9 3.045,-0.167 5.387,-0.196 8.359,-0.878 1.654,-0.381 4.645,-2.723 0.912,-2.421 -3.944,0.32 -7.853,1.653 -11.739,2.421 -4.648,0.915 -9.277,1.542 -14.006,1.838 -1.147,0.07 -4.547,0.575 -5.847,0.06 -0.09,-0.04 0.132,-0.148 0.222,-0.18 1.694,-0.59 3.383,-1.206 5.114,-1.68 1.875,-0.513 3.77,-0.976 5.691,-1.28 6.895,-1.09 13.266,-0.821 20.165,-0.119 4.036,0.407 14.415,2.002 17.808,-1.622 0.911,-0.971 -2.524,-0.482 -5.203,-0.18 -4.177,0.471 -8.375,0.812 -12.583,0.841 -2.753,0.03 -6.614,-0.876 -9.338,0.04 -0.146,0.05 0.14,0.323 0.289,0.36 1.818,0.444 3.659,0.812 5.514,1.061 4.49,0.598 9.167,0.579 13.673,0.5 8.718,-0.156 17.271,-1.326 25.878,-2.641 3.628,-0.555 10.851,-1.86 14.473,-1.979 3.297,-0.111 6.596,0.185 9.893,0.278"
       id="path1614" /><path
       style="fill:none;stroke:#ffffff;stroke-width:0.499999"
       d="m 15280.961,34360.186 c -0.556,0.05 -1.112,0.106 -1.668,0.159 0,0 -0.03,0 -0.02,0 6.33,-0.606 12.668,-1.672 18.964,-2.54 9.376,-1.288 18.603,-2.741 27.813,-4.958 6.043,-1.455 8.162,-2.194 13.828,-3.58 1.224,-0.299 2.45,-0.601 3.691,-0.82 0.306,-0.06 1.034,-0.294 0.934,0 -0.155,0.452 -0.801,0.521 -1.201,0.78"
       id="path1616" /><path
       style="fill:none;stroke:#ffffff;stroke-width:0.499999"
       d="m 15292.499,34356.366 c 1.927,0 3.857,0.119 5.781,0.03 8.836,-0.452 17.657,-2.079 26.434,-3.101 6.585,-0.767 13.205,-1.225 19.787,-2.018 7.977,-0.964 13.817,-2.091 21.743,-3.202 2.165,-0.302 15.204,-2.672 17.719,-0.759"
       id="path1618" /><path
       style="fill:none;stroke:#ffffff;stroke-width:0.499999"
       d="m 15351.904,34347.867 c 31.132,-3.069 62.325,-8.318 93.709,-6.72 6.474,0.331 9.682,0.915 16.073,1.799"
       id="path1620" /><path
       style="fill:none;stroke:#ffffff;stroke-width:0.499999"
       d="m 15373.069,34345.047 c 3.922,-0.588 7.909,-0.786 11.872,-0.781 8.267,0.03 16.16,0.619 24.5,0.141 12.422,-0.712 24.839,-3.538 37.128,-5.361 9.759,-1.447 19.509,-2.868 29.324,-3.897 8.125,-0.855 16.609,-1.913 24.722,-0.561"
       id="path1622" /><path
       style="fill:none;stroke:#ffffff;stroke-width:0.499999"
       d="m 15428.205,34341.867 c 4.534,-1.249 9.18,-2.069 13.828,-2.76 23.452,-3.485 47.247,-3.516 70.699,-6.959 2.845,-0.418 12.279,-1.526 15.496,-3 0.128,-0.06 -0.281,-0.04 -0.423,-0.04 -1.067,0 -2.134,0.03 -3.201,0.04"
       id="path1624" /><path
       style="fill:none;stroke:#ffffff;stroke-width:0.499999"
       d="m 15475.671,34333.567 c 5.89,-0.937 11.769,-1.956 17.674,-2.8 13.59,-1.939 27.209,-3.638 40.796,-5.598 4.584,-0.662 9.177,-1.262 13.762,-1.921 1.736,-0.249 6.01,-1.037 4.246,-0.72"
       id="path1626" /><path
       style="fill:none;stroke:#ffffff;stroke-width:0.499999"
       d="m 15508.374,34326.867 c 4.869,-0.722 11.615,-1.743 16.207,-2.299 10,-1.206 20.089,-1.574 30.147,-1.96 0.843,-0.03 9.05,-0.776 5.669,0.06"
       id="path1628" /><path
       style="fill:none;stroke:#ffffff;stroke-width:0.499999"
       d="m 15550.059,34323.647 c 3.988,-0.616 4.088,-0.711 8.026,-1.018 3.36,-0.262 3.21,-0.233 6.025,-0.201 0.593,0 2.287,-0.283 1.779,0.03 -0.466,0.281 -1.212,0.455 -1.712,0.68 -1.581,0.712 -1.482,0.738 -1.734,-1.18 -0.305,-2.318 0.236,-4.056 0.778,-6.321 1.102,-4.604 1.81,-9.512 1.045,-14.258 -0.928,-5.755 -2.988,-9.073 -0.978,-15.1"
       id="path1630" /><path
       style="fill:none;stroke:#ffffff;stroke-width:0.499999"
       d="m 15284.207,34396.924 c -1.094,4.963 -4.306,9.318 -6.692,13.758 -0.375,0.699 -1.168,2.35 -1.156,2.36 0.221,0.199 2.735,-1.003 3.001,-1.079 2.23,-0.651 2.961,-0.731 5.536,-1.019 2.62,-0.296 5.4,-0.577 8.048,-0.64 0.36,0 3.752,-0.371 3.757,-0.442 0.1,-1.257 -1.938,-3.366 -2.579,-4.318 -2.362,-3.516 -4.601,-7.379 -7.759,-10.221"
       id="path1636" /><path
       style="fill:none;stroke:#ffffff;stroke-width:0.499999"
       d="m 15281.539,34389.383 c 1.419,-1.915 2.156,-4.183 2.49,-6.519 0.06,-0.442 -0.217,-1.397 0.222,-1.321 0.837,0.151 3.722,5.004 4.447,6.081 0.31,0.463 -0.78,-0.836 -1.29,-1.059 -0.626,-0.278 -1.318,-0.407 -2.001,-0.46 -0.924,-0.07 -7.322,0.415 -7.536,-0.18 -0.675,-1.876 9.697,-7.522 11.849,-5.101 0.521,0.587 -0.456,2.016 -0.6,2.281 -1.331,2.465 -3.205,4.865 -5.002,6.979 -0.642,0.754 -2.99,2.744 -3.557,4.019 -0.165,0.373 0.548,-0.6 0.8,-0.918"
       id="path1638" /><path
       style="fill:none;stroke:#ffffff;stroke-width:0.499999"
       d="m 15310.752,34396.265 c -1.77,3.799 -2.206,8.168 -4.046,11.938 -0.621,1.273 -0.204,-2.826 -0.222,-4.239"
       id="path1640" /><path
       style="fill:none;stroke:#ffffff;stroke-width:0.499999"
       d="m 15306.128,34397.223 c 1.445,5.545 -1.032,-4.212 -0.778,-3.159 1.426,5.921 0.153,1.891 5.336,9.818 0.433,0.664 0.772,1.387 1.155,2.08 0.254,0.46 0.883,1.863 0.823,1.341 -0.03,-0.227 -0.133,-0.439 -0.2,-0.661"
       id="path1642" /><path
       style="fill:none;stroke:#ffffff;stroke-width:0.499999"
       d="m 15313.487,34391.963 c 0.04,-0.619 0.753,-1.815 0.133,-1.858 -0.62,-0.05 -0.339,1.273 -0.133,1.858 0.375,1.069 1.354,1.841 1.8,2.881 0.711,1.654 0.594,3.823 0.934,5.599"
       id="path1644" /><path
       style="fill:none;stroke:#ffffff;stroke-width:0.499999"
       d="m 15319.178,34408.923 c -3.429,-6.014 1.638,-1.038 -0.378,3.46 -0.188,0.421 -1.012,0.688 -1.334,0.36 -0.55,-0.566 -0.878,-1.579 -0.556,-2.299 0.373,-0.831 1.566,-2.101 2.268,-1.521 0.798,0.658 -0.08,2.087 -0.378,3.079 -0.05,0.183 -0.445,-0.19 -0.422,-0.378 0.114,-0.934 0.656,-1.773 0.8,-2.701 0.14,-0.903 -0.333,-1.908 0.05,-2.739 0.164,-0.362 0.806,0.482 0.8,0.879 -0.01,0.682 -0.709,1.193 -0.845,1.86 -0.484,2.37 -0.09,5.424 -0.978,5 -0.914,-0.436 -1.588,-4.582 -0.889,-5.141 0.488,-0.389 1.245,0.09 1.867,0.141 z"
       id="path1646" /><path
       style="fill:none;stroke:#ffffff;stroke-width:0.499999"
       d="m 15329.205,34391.505 c 2.329,-0.37 4.831,0.609 7.136,0.22 0.103,-0.03 -0.1,-0.241 -0.2,-0.241"
       id="path1648" /><path
       style="fill:none;stroke:#ffffff;stroke-width:0.499999"
       d="m 15329.338,34398.823 c 1.436,0.175 8.912,-2.701 9.338,0.461"
       id="path1650" /><path
       style="fill:none;stroke:#ffffff;stroke-width:0.499999"
       d="m 15358.685,34375.426 c -0.312,0.625 -0.658,1.236 -0.934,1.879 -0.245,0.569 -2.15,5.58 -2.335,6.099 -0.295,0.833 -0.582,1.669 -0.822,2.521 -0.04,0.153 -0.05,0.638 -0.02,0.479 0.123,-0.717 0.207,-1.439 0.311,-2.159"
       id="path1652" /><path
       style="fill:none;stroke:#ffffff;stroke-width:0.499999"
       d="m 15353.349,34376.744 c 3.057,2.154 6.429,5.429 7.514,9.16"
       id="path1654" /><path
       style="fill:none;stroke:#ffffff;stroke-width:0.499999"
       d="m 15362.709,34376.225 c 1.081,-0.307 4.058,8.446 1.156,8.06 0.137,-4.629 0.08,-4.155 3.402,-4.3"
       id="path1656" /><path
       style="fill:none;stroke:#ffffff;stroke-width:0.499999"
       d="m 15368.133,34373.326 c 1.865,2.637 1.782,6.008 3.224,8.778"
       id="path1658" /><path
       style="fill:none;stroke:#ffffff;stroke-width:0.499999"
       d="m 15370.334,34368.224 c 0.771,0.262 1.717,0.228 2.312,0.781 2.468,2.294 3.32,7.244 3.157,10.419 -0.133,2.617 -0.935,6.596 -2.111,5.821"
       id="path1660" /><path
       style="fill:none;stroke:#ffffff;stroke-width:0.499999"
       d="m 15358.84,34370.405 c -6.083,0.579 -7.678,9.408 -6.402,14.2 0.514,1.931 2.632,3.762 4.157,4.839 0.825,0.585 2.668,1.561 3.802,1.46"
       id="path1662" /><path
       style="fill:none;stroke:#ffffff;stroke-width:0.499999"
       d="m 15378.516,34363.486 c 1.006,3.127 1.134,6.339 1.134,9.58"
       id="path1664" /><path
       style="fill:none;stroke:#ffffff;stroke-width:0.499999"
       d="m 15383.251,34380.485 c -0.412,5.829 -2.66,0.516 -1.889,0.06 3.43,-2.035 1.357,3.008 1.222,3.479 -0.279,0.977 -1.941,3.3 -2.267,1.879 -0.547,-2.381 1.451,-6.654 2.934,-5.419 0.733,0.609 -0.505,1.839 -0.755,2.76 -0.314,1.151 -2.476,5.239 -2.202,1.1 0.176,-2.648 1.728,-1.471 1.557,0.278"
       id="path1666" /><path
       style="fill:none;stroke:#ffffff;stroke-width:0.499999"
       d="m 15356.728,34397.903 c -0.674,-0.307 -1.37,-0.569 -2.023,-0.918 -0.652,-0.352 1.289,1.018 2.023,0.918 1.514,-0.207 2.708,-1.471 4.18,-1.879 1.937,-0.534 3.965,-0.659 5.958,-0.921 7.936,-1.037 12.123,-1.624 19.453,-1.96 2.593,-0.117 6.815,-0.527 4.936,0.421"
       id="path1668" /><path
       style="fill:none;stroke:#ffffff;stroke-width:0.499999"
       d="m 15373.447,34410.264 c -0.07,-0.701 0.5,-2.167 -0.2,-2.101 -0.7,0.07 0.348,1.413 0.2,2.101 -0.447,2.066 -1.33,4.016 -1.957,6.038 -0.445,1.439 -0.468,3.05 -1.244,4.339 -0.125,0.206 0.07,-0.479 0.07,-0.72 -0.01,-0.952 -0.07,-1.905 -0.111,-2.86"
       id="path1670" /><path
       style="fill:none;stroke:#ffffff;stroke-width:0.499999"
       d="m 15368.867,34407.803 c 0.934,1.12 1.859,2.247 2.801,3.361 1.496,1.767 3.057,3.479 4.514,5.278 0.723,0.894 1.601,1.781 1.867,2.9 0.05,0.209 -0.237,-0.36 -0.356,-0.54"
       id="path1672" /><path
       style="fill:none;stroke:#ffffff;stroke-width:0.499999"
       d="m 15377.249,34403.684 c 0.01,-0.76 0.804,-2.265 0.04,-2.281 -0.76,-0.03 -0.348,1.582 -0.04,2.281 0.728,1.672 2.237,2.913 3.023,4.559 0.625,1.307 0.648,3.561 1.045,5.08"
       id="path1674" /><path
       style="fill:none;stroke:#ffffff;stroke-width:0.499999"
       d="m 15384.341,34421.982 c -0.719,0.09 -1.532,0.627 -2.157,0.26 -1.671,-0.982 -0.19,-6.491 1.468,-4.3 0.413,0.545 0.796,1.164 0.911,1.839 0.177,1.037 -0.07,6.44 -1.779,5.98 -2.18,-0.585 -1.792,-7.369 0.601,-7.657 2.512,-0.305 0.698,6.098 0.267,6.897 -0.964,1.786 -2.551,-6.482 0.689,-5.979 0.39,0.06 0.956,0.304 0.956,0.701 0,0.817 -0.93,1.442 -0.956,2.259 -0.07,2.281 2.026,3.228 -0.378,4.639 -2.631,1.547 -1.69,-8.094 0.378,-4.639 3.544,5.922 -0.991,2.043 -1.045,2.001"
       id="path1676" /><path
       style="fill:none;stroke:#ffffff;stroke-width:0.499999"
       d="m 15404.038,34389.563 c -4.181,4.731 -0.378,0.159 0,0 1.83,-0.765 3.949,-0.484 5.87,-0.979 0.518,-0.135 2.015,-0.608 1.578,-0.299 -0.395,0.281 -0.8,0.545 -1.2,0.82"
       id="path1678" /><path
       style="fill:none;stroke:#ffffff;stroke-width:0.499999"
       d="m 15405.15,34394.643 c 3.564,-0.376 6.545,-2.5 10.205,-2.5"
       id="path1680" /><path
       style="fill:none;stroke:#ffffff;stroke-width:0.499999"
       d="m 15428.738,34375.064 c -1.252,1.889 -2.027,3.984 -2.379,6.22 -0.15,0.955 0.07,2.037 -0.111,2.979 -0.05,0.252 -0.253,-0.444 -0.355,-0.68"
       id="path1682" /><path
       style="fill:none;stroke:#ffffff;stroke-width:0.499999"
       d="m 15423.692,34376.826 c -0.178,-0.595 0.06,-1.958 -0.534,-1.781 -0.593,0.178 0.08,1.358 0.534,1.781 1.071,0.997 2.669,1.283 3.779,2.238 1.365,1.175 1.972,4.75 2.801,3.382"
       id="path1684" /><path
       style="fill:none;stroke:#ffffff;stroke-width:0.499999"
       d="m 15433.474,34374.146 c 0.523,0.934 3.328,6.58 1,7.559 -0.504,-4.451 -0.138,-3.185 2.691,-4.14"
       id="path1686" /><path
       style="fill:none;stroke:#ffffff;stroke-width:0.499999"
       d="m 15437.676,34372.286 c 3.169,1.344 2.629,5.085 3.89,7.638"
       id="path1688" /><path
       style="fill:none;stroke:#ffffff;stroke-width:0.499999"
       d="m 15440.766,34366.386 c 2.282,3.23 6.27,11.879 3.513,15.779"
       id="path1690" /><path
       style="fill:none;stroke:#ffffff;stroke-width:0.499999"
       d="m 15425.27,34366.626 c -0.652,0.426 -1.407,0.725 -1.956,1.278 -0.464,0.469 -1.564,3.352 -1.668,3.681 -2.136,6.783 -2.367,13.816 4.113,18.219 1.04,0.706 2.933,1.645 4.269,1.14"
       id="path1692" /><path
       style="fill:none;stroke:#ffffff;stroke-width:0.499999"
       d="m 15454.683,34366.626 c -0.871,2.995 -1.628,6.025 -2.356,9.06 -0.01,0.05 -0.294,1.37 -0.311,1.338 -0.209,-0.367 -0.312,-0.785 -0.467,-1.18"
       id="path1694" /><path
       style="fill:none;stroke:#ffffff;stroke-width:0.499999"
       d="m 15450.103,34368.746 c 3.068,2.632 5.109,5.524 6.137,9.339"
       id="path1696" /><path
       style="fill:none;stroke:#ffffff;stroke-width:0.499999"
       d="m 15457.196,34363.385 c 1.961,2.119 3.12,5.017 3.223,7.901"
       id="path1698" /><path
       style="fill:none;stroke:#ffffff;stroke-width:0.499999"
       d="m 15462.198,34378.585 c -2.338,-6.588 0.06,-0.867 0,0 -0.217,2.961 -1.116,4.059 -1.579,3.26 -0.235,-0.41 -0.516,-0.955 -0.311,-1.381 0.387,-0.799 1.284,-2.529 1.89,-1.879 0.728,0.781 -0.235,2.175 -0.734,3.12 -0.139,0.264 -0.602,-0.429 -0.533,-0.72 0.207,-0.881 0.845,-1.601 1.267,-2.4 z"
       id="path1700" /><path
       style="fill:none;stroke:#ffffff;stroke-width:0.499999"
       d="m 15425.359,34392.905 c 4.938,-0.828 3.172,-0.577 9.204,-1.342 9.363,-1.185 18.745,-1.868 28.146,-2.638 1.439,-0.119 2.878,-0.232 4.313,-0.381 1.748,-0.18 2.931,-0.598 2.868,-0.24 -0.06,0.354 -0.296,0.653 -0.444,0.981"
       id="path1702" /><path
       style="fill:none;stroke:#ffffff;stroke-width:0.499999"
       d="m 15446.613,34403.382 c -1.15,2.561 -0.617,6.064 -2.312,8.401 -0.215,0.296 -0.726,0.09 -1.089,0.14"
       id="path1704" /><path
       style="fill:none;stroke:#ffffff;stroke-width:0.499999"
       d="m 15443.3,34404.784 c -0.07,-1.248 -0.148,-2.495 -0.222,-3.741 -0.02,-0.24 -0.22,-0.905 -0.07,-0.719 0.989,1.206 1.671,2.64 2.645,3.86 1.875,2.344 4.239,4.892 6.292,7.218"
       id="path1706" /><path
       style="fill:none;stroke:#ffffff;stroke-width:0.499999"
       d="m 15451.415,34399.583 c 3.628,1.762 5.244,5.934 3.535,9.599"
       id="path1708" /><path
       style="fill:none;stroke:#ffffff;stroke-width:0.499999"
       d="m 15455.306,34418.741 c 0.06,-0.825 -0.11,-1.701 0.178,-2.479 0.181,-0.489 1.559,0.251 1.378,0.741 -0.27,0.73 -1.037,1.159 -1.556,1.738 z"
       id="path1710" /><path
       style="fill:none;stroke:#ffffff;stroke-width:0.499999"
       d="m 15481.34,34382.485 c 2.289,1.13 12.61,-2.328 6.447,1.159"
       id="path1712" /><path
       style="fill:none;stroke:#ffffff;stroke-width:0.499999"
       d="m 15482.451,34387.444 c 3.094,-0.58 8.847,-2.995 12.161,-1.559"
       id="path1714" /><path
       style="fill:none;stroke:#ffffff;stroke-width:0.499999"
       d="m 15504.772,34376.506 c 0.186,-0.561 1.116,-1.495 0.556,-1.68 -0.56,-0.185 -0.345,1.127 -0.556,1.68 -0.945,2.476 -1.856,4.966 -2.912,7.398 -0.347,0.801 -0.838,1.534 -1.289,2.28 -0.239,0.395 -0.351,0.971 -0.779,1.141 -0.245,0.1 -0.127,-0.516 -0.133,-0.781 -0.02,-1 0.02,-2 0.05,-3 0.01,-0.45 -0.401,-9.501 1.044,-8.48 2.696,1.907 6.351,10.583 7.537,13.861"
       id="path1716" /><path
       style="fill:none;stroke:#ffffff;stroke-width:0.499999"
       d="m 15509.597,34377.625 c 0.07,-0.614 0.835,-1.765 0.222,-1.839 -0.613,-0.07 -0.42,1.254 -0.222,1.839 0.05,0.14 3.694,6.382 2.979,7.16 -0.252,0.272 -0.741,-0.05 -1.112,-0.08"
       id="path1718" /><path
       style="fill:none;stroke:#ffffff;stroke-width:0.499999"
       d="m 15508.218,34382.565 c 0.442,-2.686 5.701,-1.963 6.915,-3.479"
       id="path1720" /><path
       style="fill:none;stroke:#ffffff;stroke-width:0.499999"
       d="m 15517.067,34372.066 c 0.637,0.445 1.622,0.617 1.912,1.339 0.698,1.741 2.552,9.086 1.134,11.779"
       id="path1722" /><path
       style="fill:none;stroke:#ffffff;stroke-width:0.499999"
       d="m 15295.212,34469.753 c -0.03,0.733 0,1.471 -0.09,2.199 -0.404,3.418 -1.472,6.789 -2.668,10.001 -0.509,1.365 -1.397,3.511 -1.334,3.537 0.134,0.06 0.283,-0.07 0.422,-0.119 4.094,-1.339 2.737,-1.108 6.87,-1.78 0.135,-0.03 11.271,-1.157 11.25,-1.4 -0.09,-1.003 -3.282,-4.064 -3.891,-4.919 -1.903,-2.675 -1.749,-2.989 -4.179,-5.82 -4.505,-5.247 -1.907,-1.413 -3.58,-3.959"
       id="path1726" /><path
       style="fill:none;stroke:#ffffff;stroke-width:0.499999"
       d="m 15301.303,34497.532 c -0.216,-0.948 0.747,-6.737 2.113,-6.782 1.538,-0.05 4.052,4.384 4.557,5.721"
       id="path1728" /><path
       style="fill:none;stroke:#ffffff;stroke-width:0.499999"
       d="m 15292.166,34458.093 c 1.531,-0.291 -0.03,-8.134 0.778,-8.499 0.212,-0.09 0.86,1.839 2.068,3.138 0.918,0.99 1.871,1.662 3.068,2.202 0.292,0.132 0.603,0.211 0.911,0.299 0.09,0.03 0.376,0.08 0.289,0.04 -1.14,-0.59 -3.61,-0.494 -4.646,0.201 -5.466,3.665 0.6,2.773 -5.314,1.58 -0.406,-0.08 -0.844,0.386 -1.222,0.22 -0.351,-0.154 0.261,-1.215 1.422,-2.44 1.004,-1.058 7.832,-7.26 9.538,-6.858 0.534,0.124 0.196,1.82 0.178,1.9 -0.711,3.082 -2.633,5.672 -4.157,8.398 -0.27,0.481 -0.537,0.965 -0.779,1.46 -0.05,0.114 -0.169,0.471 -0.111,0.36 0.125,-0.235 0.208,-0.492 0.311,-0.741"
       id="path1730" /><path
       style="fill:none;stroke:#ffffff;stroke-width:0.499999"
       d="m 15316.621,34470.052 c -1.138,0.365 -0.268,11.216 -1.044,7.8"
       id="path1732" /><path
       style="fill:none;stroke:#ffffff;stroke-width:0.499999"
       d="m 15313.198,34468.113 c 3.073,2.428 4.314,8.339 7.181,10.66"
       id="path1734" /><path
       style="fill:none;stroke:#ffffff;stroke-width:0.499999"
       d="m 15320.89,34463.972 c 2.112,1.907 1.929,4.326 2.579,6.86"
       id="path1736" /><path
       style="fill:none;stroke:#ffffff;stroke-width:0.499999"
       d="m 15326.581,34477.611 c -0.303,-0.606 -0.753,-1.159 -0.911,-1.818 -0.08,-0.328 0.744,-0.907 0.823,-0.582 0.404,1.694 0.242,3.477 0.09,2.4 z"
       id="path1738" /><path
       style="fill:none;stroke:#ffffff;stroke-width:0.499999"
       d="m 15336.497,34467.033 c 1.442,-0.37 8.752,-3.842 5.78,-0.08"
       id="path1740" /><path
       style="fill:none;stroke:#ffffff;stroke-width:0.499999"
       d="m 15337.653,34472.973 c 3.207,-0.228 6.283,-3.011 9.404,-2.342"
       id="path1742" /><path
       style="fill:none;stroke:#ffffff;stroke-width:0.499999"
       d="m 15368.689,34443.554 c -0.682,0.508 -1.55,0.831 -2.045,1.521 -3.034,4.228 -1.357,10.2 2.334,13.277 1.598,1.334 2.26,1.566 2.712,-0.238"
       id="path1744" /><path
       style="fill:none;stroke:#ffffff;stroke-width:0.499999"
       d="m 15375.114,34446.475 c 0.784,0.63 -0.276,8.226 -0.956,7.879 -0.267,-0.137 -0.341,-0.495 -0.511,-0.741"
       id="path1746" /><path
       style="fill:none;stroke:#ffffff;stroke-width:0.499999"
       d="m 15372.913,34447.213 c 4.109,-1.325 3.847,3.985 6.381,4.8 0.462,0.15 0.267,-0.932 0.4,-1.4"
       id="path1748" /><path
       style="fill:none;stroke:#ffffff;stroke-width:0.499999"
       d="m 15380.561,34444.774 c -2.594,-2.522 4.417,5.016 2.579,6.4 -0.312,0.235 -0.756,-0.201 -1.134,-0.299 2.836,-2.759 1.469,-2.781 3.157,-2.621 7.233,2.785 0.798,-4.928 2.602,-6.319 0.178,-0.138 0.898,0.477 1.445,1.68 0.607,1.334 2.451,5.102 2.156,7.159"
       id="path1750" /><path
       style="fill:none;stroke:#ffffff;stroke-width:0.499999"
       d="m 15390.343,34434.495 c 3.505,4.796 6.667,10.477 6.025,16.658 -0.04,0.373 -0.587,3.73 -1.845,4.119 -0.307,0.1 -0.533,-0.36 -0.8,-0.539"
       id="path1752" /><path
       style="fill:none;stroke:#ffffff;stroke-width:0.499999"
       d="m 15397.591,34433.934 c 0.581,3.024 2.669,5.662 3.379,8.601"
       id="path1754" /><path
       style="fill:none;stroke:#ffffff;stroke-width:0.499999"
       d="m 15403.194,34453.394 c -0.869,0.907 -2.748,-2.149 -1.868,-2.882 0.257,-0.211 1.868,1.538 1.868,2.882 0,1.003 -0.644,1.91 -1.112,2.799 -0.09,0.172 -0.338,0.368 -0.511,0.28 -2.244,-1.148 0.122,-5.894 1.623,-3.079 0.52,0.973 -0.578,2.132 -0.867,3.199"
       id="path1756" /><path
       style="fill:none;stroke:#ffffff;stroke-width:0.499999"
       d="m 15364.888,34468.314 c 15.028,-3.207 30.53,-3.265 45.82,-3.76"
       id="path1758" /><path
       style="fill:none;stroke:#ffffff;stroke-width:0.499999"
       d="m 15382.273,34480.892 c -1.978,1.196 -2.457,9.414 -3.49,10.52 -0.173,0.185 -0.371,-0.347 -0.556,-0.522"
       id="path1760" /><path
       style="fill:none;stroke:#ffffff;stroke-width:0.499999"
       d="m 15376.715,34482.252 c 1.001,0.667 2.13,1.172 3.001,2 1.146,1.09 3.67,5.011 4.469,6.379 1.205,2.379 1.57,2.953 0.889,1.839"
       id="path1762" /><path
       style="fill:none;stroke:#ffffff;stroke-width:0.499999"
       d="m 15385.652,34476.352 c -2.143,2.169 0.868,-3.072 0.756,-2.281 -0.111,0.794 -1.113,1.564 -0.756,2.281 0.747,1.495 2.627,2.119 3.624,3.46 0.661,0.889 0.575,3.414 0.534,4.519"
       id="path1764" /><path
       style="fill:none;stroke:#ffffff;stroke-width:0.499999"
       d="m 15392.211,34494.97 c -0.03,0.553 -0.06,1.106 -0.09,1.662 -0.07,0.08 -0.206,0.344 -0.2,0.238 0.03,-0.638 0.307,-1.259 0.289,-1.9 -0.04,-1.32 -1.108,-3.722 0.222,-3.04 0.335,0.172 0.783,0.466 0.756,0.842 -0.06,0.799 -0.277,2.59 -0.978,2.198 -0.645,-0.357 -1.569,-3.497 0.111,-3.86 2.313,-0.497 2.025,5.839 1.956,6.281 -0.09,0.559 -0.211,1.675 -0.755,1.519 -1.584,-0.45 -1.3,-2.9 -1.312,-3.94 z"
       id="path1766" /><path
       style="fill:none;stroke:#ffffff;stroke-width:0.499999"
       d="m 15425.181,34455.632 c 2.475,0.619 5.012,0 7.493,-0.299 0.489,-0.06 0.977,-0.14 1.467,-0.198 0.11,-0.03 0.422,-0.09 0.333,-0.03 -0.227,0.175 -0.518,0.241 -0.778,0.36"
       id="path1768" /><path
       style="fill:none;stroke:#ffffff;stroke-width:0.499999"
       d="m 15426.359,34461.273 c 1.249,0.172 11.857,-4.231 10.939,-2.119"
       id="path1770" /><path
       style="fill:none;stroke:#ffffff;stroke-width:0.499999"
       d="m 15462.843,34432.415 c -0.246,2.659 -1.027,5.199 -1.979,7.678 -0.349,0.908 -0.862,1.884 -0.889,1.86 -0.296,-0.235 -0.193,-0.733 -0.289,-1.098"
       id="path1772" /><path
       style="fill:none;stroke:#ffffff;stroke-width:0.499999"
       d="m 15457.129,34433.836 c 2.009,0.899 8.277,3.315 8.737,5.94"
       id="path1774" /><path
       style="fill:none;stroke:#ffffff;stroke-width:0.499999"
       d="m 15472.136,34431.415 c -0.668,3.058 1.011,5.691 1.689,8.559"
       id="path1776" /><path
       style="fill:none;stroke:#ffffff;stroke-width:0.499999"
       d="m 15470.668,34436.955 c 1.937,-1.466 2.456,-1.788 4.402,-1.521"
       id="path1778" /><path
       style="fill:none;stroke:#ffffff;stroke-width:0.499999"
       d="m 15478.45,34436.934 c 0.814,-1.238 0.474,-6.548 2.356,-6.898 1.36,-0.254 3.317,6.361 3.513,6.977"
       id="path1780" /><path
       style="fill:none;stroke:#ffffff;stroke-width:0.499999"
       d="m 15485.542,34423.636 c 5.318,3.545 8.077,9.681 5.802,15.798 -0.495,1.331 -1.527,3.57 -2.734,4.501"
       id="path1784" /><path
       style="fill:none;stroke:#ffffff;stroke-width:0.499999"
       d="m 15457.818,34423.935 c -0.615,0.294 -1.334,0.429 -1.845,0.881 -4.039,3.564 -6.751,14.346 -4.869,19.238 1.807,4.699 8.694,8.083 12.561,10.959"
       id="path1786" /><path
       style="fill:none;stroke:#ffffff;stroke-width:0.499999"
       d="m 15504.928,34420.395 c -2.896,5.247 -6.356,11.938 -3.446,18 1.483,3.09 4.174,3.558 6.647,5.259"
       id="path1788" /><path
       style="fill:none;stroke:#ffffff;stroke-width:0.499999"
       d="m 15514.666,34428.256 c -2.723,5.291 -1.499,2.368 -3.068,7.159 -0.58,1.77 -0.877,2.601 -0.956,2.54 -0.268,-0.214 -0.208,-0.653 -0.311,-0.981"
       id="path1790" /><path
       style="fill:none;stroke:#ffffff;stroke-width:0.499999"
       d="m 15509.886,34428.576 c -0.07,-0.622 0.397,-1.934 -0.222,-1.86 -0.62,0.07 -0.125,1.339 0.222,1.86 1.348,2.019 3.257,3.603 4.891,5.4 0.556,0.609 1.23,1.91 1.956,1.519 0.345,-0.186 0.489,-0.614 0.734,-0.921"
       id="path1792" /><path
       style="fill:none;stroke:#ffffff;stroke-width:0.499999"
       d="m 15518.156,34428.795 c 0.255,2.845 1.084,4.98 -0.756,7.06 0.05,-3.626 1.932,-3.115 4.536,-3.84 0.941,-1.48 1.891,-2.954 2.823,-4.439 3.429,-5.462 2.056,3.249 3.802,3.039"
       id="path1794" /><path
       style="fill:none;stroke:#ffffff;stroke-width:0.499999"
       d="m 15533.385,34426.255 c 1.393,-0.82 2.887,-0.783 4.425,-0.841"
       id="path1796" /><path
       style="fill:none;stroke:#ffffff;stroke-width:0.499999"
       d="m 15538.254,34419.556 c 2.249,2.614 2.838,5.382 3.824,8.44"
       id="path1798" /><path
       style="fill:none;stroke:#ffffff;stroke-width:0.499999"
       d="m 15539.655,34410.317 c 1.074,0.786 2.372,1.336 3.224,2.36 0.765,0.921 1.099,2.138 1.467,3.278 1.719,5.329 1.655,10.176 0.333,15.579 -0.838,3.429 -2.23,4.358 -0.756,3.241"
       id="path1800" /><path
       style="fill:none;stroke:#ffffff;stroke-width:0.499999"
       d="m 15548.17,34405.277 c 3.138,3.746 1.558,8.908 1.756,13.358"
       id="path1802" /><path
       style="fill:none;stroke:#ffffff;stroke-width:0.499999"
       d="m 15552.839,34434.034 c -0.349,-1.185 -0.889,-2.333 -1.045,-3.558 -0.04,-0.31 0.33,-2.382 1.133,-2.501 0.326,-0.05 0.381,0.693 0.267,2.22 -0.09,1.281 0.359,2.77 -0.355,3.839 -0.407,0.609 -3.61,1.913 -3.913,1.18 -0.759,-1.833 1.338,-5.022 2.868,-5.739 0.409,-0.193 1.032,0.09 1.267,0.479 0.291,0.479 0.08,1.122 0.04,1.68 -0.151,2.779 -0.05,3.763 -3.89,4.541 -0.167,0.03 0.656,-4.215 1.712,-3.879 0.821,0.259 1.274,1.159 1.912,1.738 z"
       id="path1804" /><path
       style="fill:none;stroke:#ffffff;stroke-width:0.499999"
       d="m 15453.613,34463.488 c 0.704,-0.426 1.352,-0.963 2.113,-1.278 1.267,-0.527 2.708,-0.455 4.046,-0.762 6.902,-1.575 13.818,-2.781 20.765,-4.138 7.37,-1.442 14.685,-3.173 22.098,-4.4 12.261,-2.03 24.602,-3.21 36.795,-5.721 5.413,-1.114 11.256,-2.101 16.652,-3.659 1.366,-0.394 2.647,-1.029 4.002,-1.46 1.077,-0.344 2.309,-0.22 3.334,-0.68"
       id="path1808" /><path
       style="fill:none;stroke:#ffffff;stroke-width:0.499999"
       d="m 15507.66,34469.549 c -2.095,4.628 -2.288,4.8 -4.068,9.898 -0.263,0.752 -1.216,2.667 -0.49,2.339 0.616,-0.275 0.155,-1.344 0.134,-2.019"
       id="path1810" /><path
       style="fill:none;stroke:#ffffff;stroke-width:0.499999"
       d="m 15501.457,34470.608 c 1.426,-0.506 8.252,13.157 9.404,13.94 0.336,0.228 0.559,-0.629 0.667,-1.021"
       id="path1812" /><path
       style="fill:none;stroke:#ffffff;stroke-width:0.499999"
       d="m 15512.462,34465.268 c 1.657,2.249 4.941,7.189 4.069,9.98"
       id="path1814" /><path
       style="fill:none;stroke:#ffffff;stroke-width:0.499999"
       d="m 15519.065,34485.726 c -3.369,-1.381 -0.137,-3.728 0.111,-2.4 0.147,0.789 -0.09,1.601 -0.111,2.4 -0.05,1.783 0.59,3.077 -1.089,4.101 -2.175,1.325 -1.563,-6.313 0.333,-6.76 1.557,-0.368 0.554,10.152 -1.69,6.379 -0.303,-0.508 0,-1.185 0,-1.778 0.816,-0.648 2.928,-1.019 2.446,-1.942 -2.589,-4.961 -4.548,8.263 -2.29,-2.098"
       id="path1816" /><path
       style="fill:none;stroke:#ffffff;stroke-width:0.499999"
       d="m 15581.115,34437.556 c 0.326,0.611 12.419,-1.982 8.582,-1.119"
       id="path1818" /><path
       style="fill:none;stroke:#ffffff;stroke-width:0.499999"
       d="m 15582.427,34442.617 c 3.865,-1.619 8.284,-1.257 12.183,-2.661"
       id="path1820" /><path
       style="fill:none;stroke:#ffffff;stroke-width:0.499999"
       d="m 15614.041,34428.438 c -6.134,9.046 -5.198,13.068 4.358,17.539"
       id="path1836" /><path
       style="fill:none;stroke:#ffffff;stroke-width:0.499999"
       d="m 15620.844,34433.378 c 0.127,0.688 -2.316,8.861 -2.868,6.779"
       id="path1838" /><path
       style="fill:none;stroke:#ffffff;stroke-width:0.499999"
       d="m 15617.487,34433.436 c 3.4,0.357 4.778,3.403 6.626,5.821"
       id="path1840" /><path
       style="fill:none;stroke:#ffffff;stroke-width:0.499999"
       d="m 15624.779,34432.418 c 2.018,-0.109 4.233,5.556 2.446,6.22"
       id="path1842" /><path
       style="fill:none;stroke:#ffffff;stroke-width:0.499999"
       d="m 15624.379,34436.836 c 1.38,-1.381 2.866,-2.939 5.025,-2.199"
       id="path1844" /><path
       style="fill:none;stroke:#ffffff;stroke-width:0.499999"
       d="m 15633.005,34434.577 c 0.898,-1.49 0.494,-4.445 2.268,-5.419 0.824,-0.453 2.303,4.781 2.334,5.559"
       id="path1846" /><path
       style="fill:none;stroke:#ffffff;stroke-width:0.499999"
       d="m 15636.118,34420.379 c 1.082,0.347 2.502,0.18 3.246,1.04 2.835,3.275 5.083,16.864 1.334,20.238"
       id="path1848" /><path
       style="fill:none;stroke:#ffffff;stroke-width:0.499999"
       d="m 15650.835,34400.038 c -1.957,3.244 -4.328,7.331 -2.756,11.239 0.558,1.389 1.776,2.059 3.046,2.641 0.511,0.235 1.914,-0.03 1.623,0.46 -0.09,0.154 -0.356,0.07 -0.534,0.101"
       id="path1850" /><path
       style="fill:none;stroke:#ffffff;stroke-width:0.499999"
       d="m 15657.883,34403.798 c -0.522,0.78 -2.966,9.162 -2.779,7.479"
       id="path1852" /><path
       style="fill:none;stroke:#ffffff;stroke-width:0.499999"
       d="m 15654.081,34404.819 c 2.164,2.334 4.434,4.934 5.425,7.919"
       id="path1854" /><path
       style="fill:none;stroke:#ffffff;stroke-width:0.499999"
       d="m 15663.53,34402.139 c 0.28,0.767 2.202,6.963 0.667,6.62 -0.08,-3.477 0.199,-3.112 2.624,-2.7 0.917,0.11 3.301,-6.366 4.535,-3.54 0.592,1.355 0.98,2.804 0.934,4.26"
       id="path1856" /><path
       style="fill:none;stroke:#ffffff;stroke-width:0.499999"
       d="m 15676.158,34403.618 c 0,0 4.839,-0.686 3.357,-0.138"
       id="path1858" /><path
       style="fill:none;stroke:#ffffff;stroke-width:0.499999"
       d="m 15680.916,34397.098 c 2.498,2.397 2.64,5.083 3.779,8.02"
       id="path1860" /><path
       style="fill:none;stroke:#ffffff;stroke-width:0.499999"
       d="m 15684.139,34389.341 c 0.556,0 1.161,-0.209 1.668,0.03 4.283,1.94 4.736,9.128 4.29,12.92 -0.283,2.418 -1.306,4.442 -1.934,6.699"
       id="path1862" /><path
       style="fill:none;stroke:#ffffff;stroke-width:0.499999"
       d="m 15695.767,34385.959 c 2.712,2.405 0.439,8.335 3.979,10.02"
       id="path1864" /><path
       style="fill:none;stroke:#ffffff;stroke-width:0.499999"
       d="m 15700.413,34405.337 c 0.223,-0.558 1.227,-1.455 0.667,-1.677 -0.56,-0.222 -0.599,1.08 -0.667,1.677 -0.09,0.813 0.813,5.006 -0.867,3.321 -0.807,-0.81 0.117,-4.183 0.867,-3.321 1.717,1.977 -1.249,4.527 -0.644,2.022 0.165,-0.688 0.429,-1.347 0.644,-2.022 z"
       id="path1866" /><path
       style="fill:none;stroke:#ffffff;stroke-width:0.499999"
       d="m 15648.523,34427.938 c 15.002,-7.456 32.279,-9.808 48.644,-12.459 1.968,-0.32 8.786,-1.23 11.45,-1.68 0.547,-0.09 2.152,-0.49 1.645,-0.259"
       id="path1868" /><path
       style="fill:none;stroke:#ffffff;stroke-width:0.499999"
       d="m 15677.536,34435.037 c -1.354,2.678 -2.078,5.591 -3.223,8.358 -0.612,1.479 -0.938,2.019 -1.067,1.86 -0.263,-0.317 -0.208,-0.799 -0.312,-1.198"
       id="path1870" /><path
       style="fill:none;stroke:#ffffff;stroke-width:0.499999"
       d="m 15672.956,34436.577 c 0.177,-7.782 6.561,7.723 7.07,9.099"
       id="path1872" /><path
       style="fill:none;stroke:#ffffff;stroke-width:0.499999"
       d="m 15681.516,34431.558 c 1.594,7.445 -0.387,-4.408 0.623,-3.681 1.246,0.897 3.329,10.848 3.512,13.079"
       id="path1874" /><path
       style="fill:none;stroke:#ffffff;stroke-width:0.499999"
       d="m 15686.429,34450.457 c -0.12,-0.265 -2.032,-2.424 -0.667,-2.982 2.301,-0.937 0.718,3.164 0.667,2.982 -0.305,-1.101 0.08,-2.305 0.4,-3.4 0.06,-0.206 0.47,0.246 0.445,0.46 -0.119,1.011 -0.563,1.958 -0.845,2.94 z"
       id="path1876" /><path
       style="fill:none;stroke:#ffffff;stroke-width:0.499999"
       d="m 15384.375,34515.954 c 2.294,0.276 4.584,-0.137 6.854,-0.452 0.412,-0.06 -0.795,0.251 -1.179,0.41"
       id="path1878" /><path
       style="fill:none;stroke:#ffffff;stroke-width:0.499999"
       d="m 15384.501,34520.28 c 2.059,-2.529 -1.811,1.403 -1.179,1.614 0.224,0.07 0.475,-0.03 0.707,-0.07 1.535,-0.32 3.058,-0.696 4.591,-1.032 2.336,-0.511 4.676,-0.905 7.058,-1.132"
       id="path1880" /><path
       style="fill:none;stroke:#ffffff;stroke-width:0.499999"
       d="m 15410.172,34504.091 c -0.209,1.479 -0.458,2.955 -0.629,4.439 -0.01,0.1 -0.04,1.768 0.03,2.022 0.05,0.188 0.03,-0.387 0.03,-0.58 0,-0.423 0,-0.849 0,-1.272 -0.02,-1.056 -0.621,-3.795 0.566,-4.609 1.179,-0.81 3.169,-0.852 4.559,-1.019 1.476,-0.177 1.162,-0.109 2.563,-0.622 0.153,-0.06 0.48,-0.37 0.44,-0.212 -0.524,2.043 -0.358,3.85 0.06,5.98 0.08,0.397 0.363,1.511 0.456,1.119 0.05,-0.211 0.02,-0.434 0.03,-0.651"
       id="path1888" /><path
       style="fill:none;stroke:#ffffff;stroke-width:0.499999"
       d="m 15412.562,34530.422 c 0.1,0.905 0.267,1.804 0.298,2.715 0,0.182 -0.59,3.413 -0.157,3.804 0.66,0.593 5.307,-0.743 6.116,-0.891 0.08,-0.03 3.144,-0.368 3.144,-0.368 -0.03,-0.162 -0.207,-0.259 -0.268,-0.41 -0.593,-1.485 -0.789,-2.546 -0.958,-4.257 -0.144,-1.448 0.309,-4.096 -0.221,-5.599 -0.172,-0.492 -0.559,0.881 -0.77,1.357"
       id="path1892" /><path
       style="fill:none;stroke:#ffffff;stroke-width:0.499999"
       d="m 15415.643,34526.816 c 0.131,1.463 0.277,2.929 0.503,4.384 0.04,0.278 0.219,1.108 0.157,0.833 -0.38,-1.712 -0.579,-3.471 -0.66,-5.217 z"
       id="path1894" /><path
       style="fill:none;stroke:#ffffff;stroke-width:0.499999"
       d="m 15413.442,34518.995 c 0.05,-0.887 0.266,-4.52 1.871,-4.398 0.871,0.07 1.201,2.709 1.352,3.31 0.06,0.257 0.257,1.024 0.22,0.762 -0.144,-1.04 -1.466,-3.855 -2.877,-3.649 -0.865,0.127 -0.82,1.995 -0.77,2.588 0.04,0.466 -0.07,1.765 0.204,1.387 0.772,-1.075 0.845,-7.75 2.924,-2.191 0.158,0.42 0.21,0.876 0.315,1.315"
       id="path1896" /><path
       style="fill:none;stroke:#ffffff;stroke-width:0.499999"
       d="m 15411.556,34487.715 c 0.194,0.495 0.508,0.958 0.581,1.485 0.03,0.249 -0.33,0.778 -0.487,0.579 -0.428,-0.54 -0.68,-2.426 -0.09,-2.064 0.661,0.408 0.534,1.461 0.801,2.191"
       id="path1898" /><path
       style="fill:none;stroke:#ffffff;stroke-width:0.499999"
       d="m 15412.389,34493.965 c 0.09,0.574 0.205,1.148 0.283,1.725 0,0.03 0.487,5.138 0.487,3.961"
       id="path1900" /><path
       style="fill:none;stroke:#ffffff;stroke-width:0.499999"
       d="m 15418.19,34544.223 c -1.023,-6.615 2.369,0 3.615,2.122 0.198,0.336 0.731,0.799 0.456,1.074 -0.25,0.251 -0.632,-0.323 -0.943,-0.495 -0.592,-0.328 -2.602,-0.968 -2.83,-1.315 -1.4,-2.143 3.098,-5.064 4.056,-4.202 0.284,0.257 -0.26,0.836 -0.361,0.993 -0.441,0.666 -5.335,7.567 -4.811,7.704 0.334,0.09 0.631,-0.278 0.944,-0.423"
       id="path1902" /><path
       style="fill:none;stroke:#ffffff;stroke-width:0.499999"
       d="m 15433.077,34506.763 c 0.07,-0.31 0.576,-2.543 0.629,-3.21 0.01,-0.148 0.03,-0.553 -0.06,-0.439 -1.362,1.694 -2.221,3.813 -2.688,5.911 -1.723,7.736 -0.118,16.007 6.178,21.127"
       id="path1904" /><path
       style="fill:none;stroke:#ffffff;stroke-width:0.499999"
       d="m 15444.38,34512.716 c -0.161,3.119 -1.967,5.972 -2.248,9.065 -0.06,0.666 0.14,-1.339 0.1,-2.009"
       id="path1906" /><path
       style="fill:none;stroke:#ffffff;stroke-width:0.499999"
       d="m 15440.89,34513.055 c 0.629,0.51 1.377,0.899 1.887,1.529 1.461,1.799 2.622,5.114 3.505,7.366"
       id="path1908" /><path
       style="fill:none;stroke:#ffffff;stroke-width:0.499999"
       d="m 15449.82,34513.507 c 0,0.55 2.127,8.602 1.006,6.408"
       id="path1910" /><path
       style="fill:none;stroke:#ffffff;stroke-width:0.499999"
       d="m 15448.42,34517.566 c 0.936,-0.945 3.744,-2.284 4.607,-0.495"
       id="path1912" /><path
       style="fill:none;stroke:#ffffff;stroke-width:0.499999"
       d="m 15456.784,34511.528 c -0.979,-2.315 -0.12,-2.839 0,0 z"
       id="path1914" /><path
       style="fill:none;stroke:#ffffff;stroke-width:0.499999"
       d="m 15457.758,34515.404 c 0.819,1.947 1.048,4.056 1.462,6.107"
       id="path1916" /><path
       style="fill:none;stroke:#ffffff;stroke-width:0.499999"
       d="m 15461.311,34501.275 c 2.382,2.71 4.151,6.583 5.141,9.986 2.299,7.898 2.211,13.538 -0.299,21.111"
       id="path1918" /></g></svg>
