<?xml version="1.0" encoding="UTF-8" standalone="no"?>
<!-- Created with Inkscape (http://www.inkscape.org/) -->

<svg
   width="80.863091mm"
   height="84.358803mm"
   viewBox="0 0 80.863088 84.358804"
   version="1.1"
   id="svg12"
   inkscape:version="1.2.1 (9c6d41e410, 2022-07-14, custom)"
   sodipodi:docname="flux_therom.svg"
   xml:space="preserve"
   xmlns:inkscape="http://www.inkscape.org/namespaces/inkscape"
   xmlns:sodipodi="http://sodipodi.sourceforge.net/DTD/sodipodi-0.dtd"
   xmlns="http://www.w3.org/2000/svg"
   xmlns:svg="http://www.w3.org/2000/svg"><sodipodi:namedview
     id="namedview14"
     pagecolor="#000000"
     bordercolor="#ffffff"
     borderopacity="1"
     inkscape:showpageshadow="0"
     inkscape:pageopacity="0"
     inkscape:pagecheckerboard="0"
     inkscape:deskcolor="#000000"
     inkscape:document-units="mm"
     showgrid="true"
     inkscape:zoom="0.9568253"
     inkscape:cx="388.78571"
     inkscape:cy="243.51363"
     inkscape:window-width="1366"
     inkscape:window-height="746"
     inkscape:window-x="1360"
     inkscape:window-y="0"
     inkscape:window-maximized="1"
     inkscape:current-layer="layer1"
     inkscape:lockguides="true"
     showguides="true"><sodipodi:guide
       position="3265.6758,-22192.731"
       orientation="0,-1"
       id="guide3409"
       inkscape:locked="true" /></sodipodi:namedview><defs
     id="defs9"><rect
       x="587.26367"
       y="362.45731"
       width="66.575974"
       height="20.973427"
       id="rect1884" /></defs><g
     inkscape:label="Layer 1"
     inkscape:groupmode="layer"
     id="layer1"
     transform="translate(0.45083004,-0.40413629)"><path
       style="fill:none;stroke:#ffb380;stroke-width:0.3"
       d="m 9.340175,21.809129 c -4.4227168,4.442085 -4.8288972,9.65436 -0.9963494,14.634139 1.4520386,1.886691 1.6004857,1.644062 3.8515294,3.544837 3.461369,2.922773 7.368606,6.722671 8.624942,11.223077 1.858381,6.65702 -2.893186,15.109071 3.568965,20.399513 3.428341,2.806715 8.555897,2.850546 12.684675,2.14027 11.719391,-2.016096 25.50958,-11.881723 30.648381,-22.593292 1.465855,-3.055498 1.882619,-7.059581 2.468515,-10.313461 1.030382,-5.72244 1.877141,-13.904277 0.44614,-19.596904 C 68.83008,14.059362 61.026134,8.5844768 53.922373,7.73681 46.837927,6.8914451 40.335686,10.068025 33.728027,12.097622 c -4.240337,1.302457 -8.570055,2.364637 -12.863105,3.477953 -1.832964,0.475343 -3.710495,0.806403 -5.457531,1.565074 -2.389539,1.037688 -3.907502,3.235955 -6.067216,4.66848 z"
       id="path391" /><path
       style="fill:none;stroke:#ffb380;stroke-width:0.3"
       d="m 40.895658,32.323242 c 0.889479,3.740902 0.327748,0.953792 0.877398,5.297186 0.194892,1.540047 0.490413,3.440719 0.758378,5.016265 0.08962,0.526952 0.188672,1.052253 0.282564,1.578459 0.04428,0.248176 0.158819,0.99518 0.104101,0.749093 -0.72843,-3.275912 -0.604938,-6.537962 -1.130189,-9.845267 -0.153435,-0.966113 -1.178184,-1.860238 -0.892252,-2.795736 0.115583,-0.378153 2.624752,-3.45183 3.494604,-2.862622 3.104766,2.103062 0.875016,5.576747 -0.193316,8.159808 -0.649438,1.570236 -1.62062,2.670736 -1.204518,2.875997 1.629101,0.803619 3.883247,-0.209343 5.531893,0.78922 0.385685,0.233604 0.614658,0.659919 0.921988,0.989878"
       id="path397" /><path
       style="fill:none;stroke:#ffb380;stroke-width:0.3"
       d="m 8.4181867,56.963176 c 2.3677643,-3.084785 5.3943913,-5.641678 8.2829713,-8.240069 0.38167,-0.343326 1.814203,-1.337734 1.814203,-1.805856 0,-0.150069 -3.186652,0.561491 -3.435125,0.615331 -0.189132,0.04098 -0.640485,0.210558 -0.579948,0.02675 0.129051,-0.391824 1.754704,-1.605241 2.156246,-1.244037 0.944086,0.849241 -0.429366,6.202913 0.505584,5.297186"
       id="path409" /><path
       style="fill:none;stroke:#ffb380;stroke-width:0.3"
       d="M -0.32574331,38.810955 C 0.29696917,37.870044 7.8619347,36.414881 7.9274561,36.336254 8.2655301,35.930553 5.5745033,35.110929 5.4589413,35.092218 4.7106784,34.971065 4.4716353,35.062603 4.5072165,34.998582 4.51989,34.975775 7.747939,34.143271 7.7044018,36.082096 7.6602428,38.048505 5.6089203,40.013145 6.5593592,42.007987"
       id="path411" /><path
       style="fill:none;stroke:#ffb380;stroke-width:0.3"
       d="m -0.14728,23.039791 c 0.22544272,-0.206412 4.5660278,1.791806 4.5950182,1.765726 0.5785246,-0.520398 -1.0448428,-1.984856 -0.966611,-2.00651 0.5311949,-0.147029 2.3392561,-0.05766 2.3198224,0.842735 -0.023468,1.087424 -1.8771354,2.299938 -2.6172051,2.902746 -0.9328534,0.759836 -1.2598045,0.958274 -1.1896661,0.963129 0.082191,0.0057 0.1586267,-0.04459 0.23794,-0.06689"
       id="path413" /><path
       style="fill:none;stroke:#ffb380;stroke-width:0.3"
       d="m 17.712361,16.29792 c 0.89325,-1.692553 1.770208,-3.392207 2.498252,-5.163418 0.405818,-0.987293 0.742243,-1.7748596 0.996349,-2.7823612 0.05894,-0.2336694 0.209325,-0.7524538 -0.02977,-0.7223442 -1.501804,0.1891321 -3.291602,3.2302104 -4.609872,4.1066564 -0.0491,0.03264 0.03937,-0.113038 0.07433,-0.16052 0.218647,-0.296961 0.446424,-0.587484 0.684049,-0.86949 0.989581,-1.1744193 2.107414,-2.756027 3.420271,-3.5849639 0.953619,-0.6021149 0.85902,1.6170831 1.100418,2.00651 1.038384,1.6751429 2.181852,2.0774449 3.925858,2.5014499"
       id="path415" /><path
       style="fill:none;stroke:#ffb380;stroke-width:0.3"
       d="m 71.841491,24.818892 c 2.305518,2.470494 5.944997,5.542089 7.598889,8.520977 0.345906,0.623025 -0.234791,-0.640138 -0.297416,-0.963125 -0.06586,-0.339659 -0.633581,-4.540639 0.163579,-4.253796 0.847738,0.30504 1.225455,3.546803 0.743524,4.240421 -2.127916,3.062605 -3.425378,1.587704 -5.754915,1.297538 -0.352996,-0.04397 0.02671,0.722606 0.148693,1.056764"
       id="path417" /><path
       style="fill:none;stroke:#ffb380;stroke-width:0.3"
       d="m 18.113846,30.356862 c 1.195924,-0.307436 6.444622,2.923947 7.286619,2.755601 0.168918,-0.03377 -0.08999,-0.332984 -0.14869,-0.494935 -0.21008,-0.579533 -0.986663,-2.084335 -0.624573,-2.715474 0.277511,-0.483714 1.041625,0.47994 1.412687,0.896241 0.226179,0.253754 0.870746,1.016365 0.921988,1.458061 0.189347,1.632143 -3.944551,4.326723 -4.847812,3.972888 -0.470461,-0.184296 0.203983,-0.814364 0.832739,-1.538325"
       id="path419" /><path
       style="fill:none;stroke:#ffb380;stroke-width:0.3"
       d="m 35.096121,26.29033 c 0.953873,-1.424752 4.82572,-2.67534 5.621107,-4.106651 0.128154,-0.230611 -2.810748,-0.391716 -2.780815,-0.494938 0.185444,-0.639508 2.712963,-2.409571 3.226924,-1.297543 0.483246,1.04557 -1.440074,3.937413 -0.223054,4.788866"
       id="path421" /><path
       style="fill:none;stroke:#ffb380;stroke-width:0.3"
       d="m 41.252586,9.3018865 c 1.056302,-1.9111251 1.890514,-3.9340498 2.780782,-5.9258913 0.137305,-0.3071972 0.648917,-1.0877709 0.34204,-0.9497457 -0.09355,0.042074 -3.88216,3.0067408 -3.80687,2.1670274 0.07005,-0.7812828 0.926396,-1.2685765 1.442424,-1.859362 0.09959,-0.1140142 0.875432,-0.9995164 1.130191,-1.1236457 0.496599,-0.2419667 0.321318,1.0573676 0.460994,1.5918286 0.616355,2.3584667 0.72584,3.1918089 2.557727,4.4276988"
       id="path423" /><path
       style="fill:none;stroke:#ffb380;stroke-width:0.3"
       d="m 26.932138,54.394839 c 3.549229,-1.75111 7.546806,-0.546007 11.316578,-0.842729 1.796558,-0.14141 -3.750254,-2.97039 -1.873713,-3.277304 0.362236,-0.05925 0.741384,-0.116417 1.100418,-0.04013 4.367795,0.928116 4.266615,2.812997 1.903452,6.032905 -0.363093,0.494726 -0.66607,1.291873 -1.278882,1.324298 -0.295412,0.01564 0.295103,-0.51494 0.47588,-0.749102"
       id="path425" /><path
       style="fill:none;stroke:#ffb380;stroke-width:0.3"
       d="m 47.855126,59.625141 c -0.563147,-0.604612 -1.74974,-2.878378 0,0 0.910868,1.49841 1.567518,2.895693 2.200867,4.49458 0.201362,0.508331 0.441849,1.004928 0.609685,1.524948 0.08057,0.249639 0.247147,0.976444 0.312304,0.722341 0.124446,-0.485322 -0.245677,-5.439521 0.342005,-4.788866 0.588743,0.651828 1.620452,2.129796 1.531673,3.076647 -0.215373,2.297051 -4.728421,0.01339 -5.859012,0.01339 -0.177668,0 0.304644,0.183152 0.460994,0.267536"
       id="path427" /><path
       style="fill:none;stroke:#ffb380;stroke-width:0.3"
       d="m 55.349946,68.293264 c 0.705972,4.21481 1.660342,8.381222 2.542876,12.560744 0.16451,0.77909 0.311687,1.56177 0.475848,2.340936 0.06883,0.32671 0.14759,0.651256 0.223086,0.976493 0.01871,0.08053 0.110892,0.305525 0.05948,0.240784 -0.22135,-0.278721 -0.274859,-0.659755 -0.460994,-0.963126 -1.142677,-1.8624 -2.409071,-3.663347 -4.371967,-4.735357 -0.485841,-0.265337 0.09477,1.139283 0.371745,1.618584 0.573574,0.992557 2.497003,4.196262 3.925858,4.280548 0.405276,0.02391 1.413193,-6.046907 1.249143,-6.661611 -0.03146,-0.117874 -0.09915,0.222949 -0.148725,0.334421"
       id="path429" /><path
       style="fill:none;stroke:#ffb380;stroke-width:0.3"
       d="m 68.123836,52.147551 c 2.531946,-0.204933 4.948941,0.535133 7.509674,0.44143 1.502074,-0.05496 2.695268,-0.08033 2.572615,-0.401296 -0.572389,-1.497851 -3.462036,-1.216321 -4.297637,-2.541585 -0.741477,-1.175985 2.986934,-1.887984 3.955594,-1.12364 0.981546,0.774509 -2.472031,9.702702 -0.579945,5.778743"
       id="path431" /><path
       style="fill:none;stroke:#ffb380;stroke-width:0.3"
       d="m 67.543856,10.505794 c 0.530395,-0.9096167 1.057638,-1.8210798 1.591183,-2.7288547 0.333926,-0.5681398 0.682779,-1.127506 1.011203,-1.6988445 0.163552,-0.2845224 0.904227,-1.6253381 1.159894,-2.1402728 1.638289,-3.29966106 -3.03131,0.6099439 -4.461182,0.066881 -0.406884,-0.1545352 0.386747,-0.8141759 0.728639,-1.0835164 0.483221,-0.3806772 4.159025,-3.16949398 4.937061,-2.14027806 0.588986,0.77913176 0.02922,1.95327316 0.05948,2.92950896 0.03151,1.0165397 0.375486,1.8691278 0.847624,2.742229"
       id="path433" /><path
       style="fill:none;stroke:#ffb380;stroke-width:0.3"
       d="m 52.167614,29.366984 c 0.842675,-0.280913 1.689815,-0.548767 2.528023,-0.84274 0.827508,-0.290219 1.647095,-0.602586 2.468515,-0.909617 0.964684,-0.360579 1.432126,-0.325363 0.877363,-1.244036 -0.22707,-0.376018 -0.558522,-0.891588 -0.966578,-1.110266 -1.069377,-0.573077 -0.540322,-0.05549 -1.487051,-0.28091 -0.05296,-0.01262 0.08479,-0.06995 0.133805,-0.09364 0.283829,-0.137187 0.569793,-0.270902 0.862512,-0.387927 0.342493,-0.136925 2.379226,-0.987984 2.974131,-0.882867 2.841856,0.502147 -0.116101,4.355912 -0.743524,5.618228 -0.21609,0.434756 -1.027681,1.829634 0.08921,1.578457"
       id="path435" /><path
       style="fill:none;stroke:#ffb380;stroke-width:0.3"
       d="m 15.481755,80.76037 c 1.118618,-2.194089 2.678049,-4.079642 4.371964,-5.84563 1.531133,-1.596279 2.32097,-2.191036 2.052143,-2.207154 -1.293916,-0.07759 -2.006386,0.979082 -3.464862,0.374546 -1.218827,-0.505203 3.096464,-5.486365 3.702802,-3.906001 1.106196,2.883186 -1.150541,7.106848 1.427572,10.00579"
       id="path437" /></g></svg>
