<?xml version="1.0" encoding="UTF-8" standalone="no"?>
<!-- Created with Inkscape (http://www.inkscape.org/) -->

<svg
   width="994.08911mm"
   height="406.72369mm"
   viewBox="0 0 994.08909 406.7237"
   version="1.1"
   id="svg12"
   inkscape:version="1.2.1 (9c6d41e410, 2022-07-14, custom)"
   sodipodi:docname="function_with_domain.svg"
   xml:space="preserve"
   xmlns:inkscape="http://www.inkscape.org/namespaces/inkscape"
   xmlns:sodipodi="http://sodipodi.sourceforge.net/DTD/sodipodi-0.dtd"
   xmlns="http://www.w3.org/2000/svg"
   xmlns:svg="http://www.w3.org/2000/svg"><sodipodi:namedview
     id="namedview14"
     pagecolor="#000000"
     bordercolor="#ffffff"
     borderopacity="1"
     inkscape:showpageshadow="0"
     inkscape:pageopacity="0"
     inkscape:pagecheckerboard="0"
     inkscape:deskcolor="#000000"
     inkscape:document-units="mm"
     showgrid="true"
     inkscape:zoom="0.32391637"
     inkscape:cx="1917.1615"
     inkscape:cy="744.0192"
     inkscape:window-width="1366"
     inkscape:window-height="746"
     inkscape:window-x="0"
     inkscape:window-y="0"
     inkscape:window-maximized="1"
     inkscape:current-layer="layer1"
     inkscape:lockguides="true"><inkscape:grid
       type="xygrid"
       id="grid344"
       color="#969696"
       opacity="0.39215686"
       empcolor="#ffffff"
       empopacity="0.17254902"
       dotted="false"
       originx="-3934.6192"
       originy="-3830.6498" /></sodipodi:namedview><defs
     id="defs9" /><g
     inkscape:label="Layer 1"
     inkscape:groupmode="layer"
     id="layer1"
     transform="translate(-4039.6194,-3979.1496)"><path
       style="fill:none;stroke:#ff9955;stroke-width:3"
       d="m 4236.8591,3998.4492 c -0.1924,6.9262 -0.1523,7.5102 -0.6589,15.1733 -1.4697,22.2314 -3.6194,44.4752 -3.4262,66.7785 0.1442,16.658 2.1904,33.1883 3.2945,49.7875 1.136,17.0811 1.6609,34.3484 2.1524,51.4471 0.7874,27.3986 -0.4337,54.8231 0.044,82.2283 0.3069,17.6113 2.8552,35.1121 2.8552,52.7116"
       id="path1188" /><path
       style="fill:none;stroke:#ff9955;stroke-width:3"
       d="m 4231.6758,3999.7137 c -2.8093,5.1787 -9.7302,11.2351 -10.5864,17.7812 -0.3019,2.3088 4.1748,-2.5295 5.2712,-4.5836 2.2334,-4.1838 2.7546,-9.2057 5.3152,-13.1976 10.2546,-8.0794 4.2146,-1.8407 7.4236,-7.1521 0.7094,-1.1741 -0.2357,2.7378 -0.2196,4.1095 0.1158,9.8958 3.4567,18.0074 7.3357,26.9089"
       id="path1190" /><path
       style="fill:none;stroke:#ff9955;stroke-width:3"
       d="m 4240.7247,4309.1469 c -0.9509,10.0764 -0.1757,20.1684 -0.1757,30.2676 0,6.0053 -0.1508,12.0143 -0.2636,18.0183 -0.034,1.8263 -0.1544,7.7049 -0.3075,9.8785 -0.1681,2.387 -0.5083,5.3705 -0.9224,7.7842 -0.1632,0.951 -1.1516,5.6617 -1.3178,6.4803 -0.039,0.1928 -0.7692,2.8233 -0.7907,2.8055 -2.0168,-1.6747 -8.3775,-22.437 -10.5424,-26.909 -0.8315,-1.7174 -1.3678,-5.2506 -3.2067,-4.7416 -0.5294,0.1465 0.1611,3.7733 0.8346,6.1246 2.1263,7.4232 5.4054,14.5115 8.5657,21.5351 0.4401,0.9779 1.986,3.8749 2.3721,3.9118 3.1582,0.3023 6.5494,-4.978 8.1265,-6.4407 4.3118,-3.9993 8.5751,-7.372 14.5836,-7.7447"
       id="path1192" /><path
       style="fill:none;stroke:#ff9955;stroke-width:3"
       d="m 4052.8059,4208.2679 c -7.5923,-6.8294 -15.0659,-13.8906 -8.4779,-24.4591 0.7131,-1.1438 6.9443,-7.2195 7.0283,-7.1915 0.5665,0.1911 -0.7495,0.932 -1.1421,1.383 -3.152,3.6211 -6.7593,6.8842 -8.6535,11.4195 9.2614,4.276 19.0477,4.3204 28.9916,3.0426 8.6236,-1.1082 16.9178,-3.8261 25.5215,-5.0183 31.292,-4.3362 62.5522,-9.1191 94.223,-9.2067 16.6429,-0.046 33.2847,1.6878 49.9008,2.4103 9.9644,0.4333 19.8862,0.5464 29.8263,1.5016 21.547,2.0705 42.9912,5.044 64.6163,6.2431 12.1363,0.673 24.0877,2.8745 36.1956,3.6748 10.446,0.6905 20.9826,1.0142 31.4516,1.1855 6.096,0.1 12.1452,0.4509 18.2296,-0.1976 2.1097,-0.2249 13.5301,-1.2221 12.6071,-5.6505 -1.3091,-6.2803 -16.7517,-11.3515 -21.7439,-13.3162 -3.7441,-1.4735 -8.8733,-2.7597 -8.2582,-3.8328 2.7963,-4.8782 15.2748,-2.3245 16.4726,2.845 3.5495,15.3188 -11.4973,30.5113 -15.5062,44.216"
       id="path1196" /><path
       style="fill:none;stroke:#ff9955;stroke-width:3"
       d="m 4303.4522,3979.7591 c -0.9664,2.1733 -2.0106,4.3136 -2.8992,6.5198 -0.9686,2.4049 -6.8275,21.516 -7.9947,22.2464 -0.4112,0.2573 -0.205,-0.9484 -0.3075,-1.4225"
       id="path1198" /><path
       style="fill:none;stroke:#ff9955;stroke-width:3"
       d="m 4284.8711,3983.4735 c 3.5185,2.5929 6.2249,5.8416 9.7957,8.2979"
       id="path1200" /><path
       style="fill:none;stroke:#ff9955;stroke-width:3"
       d="m 4450.1676,4221.6236 c -4.6735,7.4768 -5.4989,16.6017 -9.6199,24.3011 -0.1547,0.2889 -0.4267,-0.5179 -0.5272,-0.8299 -0.5183,-1.6098 -0.8785,-3.2664 -1.3178,-4.8997"
       id="path1202" /><path
       style="fill:none;stroke:#ff9955;stroke-width:3"
       d="m 4435.3204,4218.7391 c 11.6601,9.0884 18.3468,22.4917 24.1597,35.7206"
       id="path1204" /><path
       style="fill:none;stroke:#ff9955;stroke-width:3"
       d="m 4174.7027,4144.0579 c 22.5948,-9.1162 28.6536,-36.0864 48.4952,-48.365 15.4492,-9.5604 32.6789,-6.7399 48.8027,-0.9484 17.9344,6.4419 26.3936,19.0627 30.4413,37.4197 2.558,11.6014 1.4362,24.1022 2.8991,35.9181 1.5004,12.1191 4.2415,23.3824 8.3461,34.9698 5.1082,14.4206 18.7995,23.8833 30.0898,33.2312 7.7562,6.4217 21.1996,14.5113 19.5914,26.4743 -1.186,8.822 -7.3934,15.7779 -14.2762,21.0214 -28.611,21.7961 -55.6022,7.6696 -84.2077,-4.5837 -12.9631,-5.5527 -26.1415,-12.3871 -40.6323,-11.8541 -11.5515,0.4249 -22.9101,5.0069 -33.4282,9.4438 -10.9623,4.6243 -25.8824,11.8718 -37.0303,3.3981 -12.7796,-9.7138 -18.655,-48.3692 -12.1677,-61.8391 6.3625,-13.2111 17.4206,-15.2034 20.6016,-30.5443 0.9601,-4.6299 1.5175,-9.5503 1.6253,-14.2645 0.099,-4.3126 -0.8089,-8.6344 -0.7028,-12.9605 0.21,-8.564 4.0468,-24.8039 13.6173,-27.2251"
       id="path1206" /><path
       style="fill:none;stroke:#ff9955;stroke-width:3"
       d="m 4324.9763,4084.4709 c 1.8073,6.6699 1.8928,5.9926 2.6795,12.9211 0.9985,8.7934 1.6292,17.7373 1.6692,26.5928 0.01,1.1087 -0.3691,7.0378 -1.0542,3.4772 -2.1138,-10.9861 -1.8412,-16.3907 -0.088,-27.6202 1.3307,-8.5222 3.4893,-21.1369 9.7079,-28.0153 7.9048,-8.7436 1.9276,14.8836 1.4935,16.1217 -1.2056,3.4379 -2.7277,6.7569 -4.0413,10.155 -0.9268,2.3976 -2.4508,4.6707 -2.6795,7.231 -0.2024,2.2658 4.1168,2.1328 6.3694,2.4499 5.8383,0.8219 14.8313,0.088 16.8678,7.073"
       id="path1208" /><path
       style="fill:none;stroke:#ff9955;stroke-width:3"
       d="m 4173.2532,4131.769 c 0.4832,1.2645 1.118,2.481 1.4495,3.7934 0.4948,1.9581 -3.9238,16.1684 1.6692,10.9848 1.8392,-1.7045 2.1711,-2.0637 4.0853,-4.2279 0.7788,-0.8806 1.5365,-1.7798 2.2841,-2.687 1.6512,-2.0034 2.2,-2.842 3.7338,-5.2948 0.3917,-0.6264 0.2148,-2.2274 0.9225,-2.0153 0.096,0.029 -0.7892,2.4983 -1.3178,3.8329 -1.5116,3.816 -3.8571,6.9986 -7.4676,9.0091 -8.6521,4.8181 1.5657,-12.5198 -1.2299,-13.1186 -1.3489,-0.2889 -2.9453,-0.9847 -4.1291,-0.2766 -2.6327,1.5748 -7.248,8.0102 -7.248,11.6171"
       id="path1210" /><path
       style="fill:none;stroke:#ff9955;stroke-width:3"
       d="m 4148.3906,4260.3867 c 4.3016,-10.2242 11.0745,-19.0552 16.9557,-28.3709 11.6121,-18.3933 22.2153,-37.1999 35.6247,-54.4106 5.5165,-7.0805 11.639,-13.6705 17.2632,-20.6658 7.2953,-9.0738 13.7423,-18.9 20.0306,-28.6871 5.3936,-8.3945 11.5055,-17.5308 14.4519,-27.1855"
       id="path1212" /><path
       style="fill:none;stroke:#ff9955;stroke-width:3"
       d="m 4177.6458,4271.2925 c 1.5521,-2.5157 2.9119,-5.1607 4.6563,-7.5471 1.7803,-2.4356 3.9668,-4.5477 5.8862,-6.8754 5.8564,-7.1022 9.0987,-11.5982 14.7154,-19.5989 13.3913,-19.0749 25.6449,-38.6564 37.6892,-58.5991 8.5606,-14.1743 18.52,-28.3211 25.6533,-43.3072 3.9352,-8.2674 5.8949,-17.2747 9.8835,-25.4074"
       id="path1214" /><path
       style="fill:none;stroke:#ff9955;stroke-width:3"
       d="m 4217.5753,4277.6543 c 1.0835,-2.8055 1.9032,-5.7277 3.2506,-8.4165 5.435,-10.8457 14.2667,-19.9914 20.953,-30.1095 12.8522,-19.4488 23.4822,-39.9374 34.834,-60.2587 4.2285,-7.5697 17.6876,-27.3656 18.4492,-36.2737"
       id="path1216" /><path
       style="fill:none;stroke:#ff9955;stroke-width:3"
       d="m 4256.143,4269.0798 c 1.7424,-2.5684 3.3956,-5.1997 5.2273,-7.7052 4.6198,-6.3192 9.8751,-11.9246 14.1883,-18.532 6.3972,-9.7997 8.5707,-14.3071 14.408,-24.5382 3.1476,-5.5168 10.4861,-14.7636 10.8938,-21.7326"
       id="path1218" /><path
       style="fill:none;stroke:#ff9955;stroke-width:3"
       d="m 4283.3337,4279.1559 c 10.4382,-15.508 20.7258,-31.2597 31.0562,-46.9031 1.21,-1.8322 2.3546,-3.7068 3.5142,-5.5714 0.6646,-1.0687 2.0645,-4.4196 2.0645,-3.1611"
       id="path1220" /><path
       style="fill:none;stroke:#ff9955;stroke-width:3"
       d="m 4302.5736,4281.7637 c 10.7533,-15.9446 24.4749,-31.8122 42.3894,-39.8695"
       id="path1222" /><path
       style="fill:none;stroke:#ff9955;stroke-width:3"
       d="m 4284.0804,4086.6442 c 26.8888,-41.7869 72.8871,-71.474 121.5016,-81.1615 21.2467,-4.2339 43.6029,-5.9407 64.3088,1.7781 26.6559,9.9369 44.5058,32.4405 63.4742,52.3164 11.3883,11.9331 24.6949,21.723 35.8003,33.9424 5.2304,5.7551 9.7126,12.1948 15.2426,17.6627 6.905,6.8276 14.8774,11.4286 23.4569,15.8846 6.5243,3.3886 14.0781,4.9454 21.2606,6.2037 5.9813,1.0479 11.999,2.0945 18.0099,2.9635 4.2226,0.6105 8.4784,0.8935 12.6949,1.5411 1.5845,0.2433 5.4485,2.0271 5.8422,0.079 0.3357,-1.6608 -0.4902,-3.5463 -1.2738,-4.8997 -0.9248,-1.5971 -2.0064,-3.1059 -3.1628,-4.5441 -1.221,-1.5188 -2.5865,-2.9181 -3.9534,-4.307 -1.0245,-1.0411 -13.7094,-12.1829 -13.793,-12.684 -0.1414,-0.8483 1.296,-1.3443 2.1524,-1.4225 4.2208,-0.3852 12.4597,1.7023 15.9894,2.8055 32.5932,10.1871 2.5261,30.0834 -9.5761,41.9242 -1.7348,1.6974 -8.8996,8.5589 -8.2582,10.7873 0.2855,0.9918 2.0207,0.4215 3.031,0.6322"
       id="path1224" /><path
       style="fill:none;stroke:#ff9955;stroke-width:3"
       d="m 4591.1726,4009.8292 c -1.9767,-0.6059 -3.8826,-2.1045 -5.9301,-1.8176 -7.2168,1.011 -9.8673,12.506 -10.2789,17.6232 -0.2828,3.5166 1.2434,8.1278 2.6796,11.2614 1.5724,3.4308 4.1119,5.8019 2.943,5.69 -0.6333,-0.061 -1.2006,-0.4215 -1.8009,-0.6322"
       id="path1226" /><path
       style="fill:none;stroke:#ff9955;stroke-width:3"
       d="m 4569.9999,4030.5345 c 7.0054,-5.9991 15.0283,-5.9175 23.5887,-3.9514"
       id="path1228" /><path
       style="fill:none;stroke:#ff9955;stroke-width:3"
       d="m 4637.3369,4217.5944 c 4.8424,-2.0552 9.9805,-3.5068 15.1547,-4.465 11.3448,-2.1011 22.841,-1.6552 34.3069,-2.0548 10.538,-0.3672 21.0513,-1.2132 31.5834,-1.6991 32.6424,-1.5058 65.7128,-1.6393 98.352,-0.039 15.5612,0.7628 31.0953,1.9781 46.6502,2.845 28.7268,1.6012 57.4331,3.2717 86.1405,5.2159 19.4476,1.317 39.435,2.3154 58.5983,5.9666 2.0559,0.3917 4.0888,0.9042 6.1059,1.462 2.4105,0.6665 7.9297,3.8072 10.191,0.3951 1.0951,-1.6525 -0.4045,-2.9128 -1.7132,-3.8328 -6.5374,-4.5958 -14.596,-6.5264 -21.8316,-9.6809 -0.4012,-0.175 -4.583,-1.4678 -1.6693,-3.0821 6.8879,-3.816 24.1179,-3.4741 30.3535,1.1064 11.1901,8.2198 -16.3839,28.5843 -21.3924,34.1795"
       id="path1230" /><path
       style="fill:none;stroke:#ff9955;stroke-width:3"
       d="m 4917.4141,4115.2535 c 1.0176,8.3645 0.5601,16.7734 0.8346,25.1703 0.1487,4.5489 -0.7035,5.3749 0.6149,3.7143"
       id="path1232" /><path
       style="fill:none;stroke:#ff9955;stroke-width:3"
       d="m 4921.675,4113.5149 c -2.1147,7.43 0.9349,-7.9677 0.7907,-5.9666 -1.0744,14.9101 -1.9952,-6.0346 2.3721,19.4803 1.4397,8.4114 2.0052,17.5704 1.3616,26.0792"
       id="path1234" /><path
       style="fill:none;stroke:#ff9955;stroke-width:3"
       d="m 4925.9359,4109.3264 c 1.8553,-0.564 6.865,-3.5916 9.1807,-0.7112 4.5541,5.6644 -6.2622,13.8349 -7.6433,18.5715 -0.6056,2.0768 11.4662,6.1544 13.3977,7.5076 7.5476,5.2881 6.3136,5.9658 9.9274,14.6597"
       id="path1236" /></g></svg>
