<?xml version="1.0" encoding="UTF-8" standalone="no"?>
<!-- Created with Inkscape (http://www.inkscape.org/) -->

<svg
   width="649.37891mm"
   height="146.18236mm"
   viewBox="0 0 649.37889 146.18236"
   version="1.1"
   id="svg12"
   inkscape:version="1.2.1 (9c6d41e410, 2022-07-14, custom)"
   sodipodi:docname="fundimental_therom.svg"
   xml:space="preserve"
   xmlns:inkscape="http://www.inkscape.org/namespaces/inkscape"
   xmlns:sodipodi="http://sodipodi.sourceforge.net/DTD/sodipodi-0.dtd"
   xmlns="http://www.w3.org/2000/svg"
   xmlns:svg="http://www.w3.org/2000/svg"><sodipodi:namedview
     id="namedview14"
     pagecolor="#000000"
     bordercolor="#ffffff"
     borderopacity="1"
     inkscape:showpageshadow="0"
     inkscape:pageopacity="0"
     inkscape:pagecheckerboard="0"
     inkscape:deskcolor="#000000"
     inkscape:document-units="mm"
     showgrid="true"
     inkscape:zoom="0.45254834"
     inkscape:cx="1858.365"
     inkscape:cy="388.90873"
     inkscape:window-width="1366"
     inkscape:window-height="746"
     inkscape:window-x="0"
     inkscape:window-y="0"
     inkscape:window-maximized="1"
     inkscape:current-layer="layer1"
     inkscape:lockguides="true"><inkscape:grid
       type="xygrid"
       id="grid344"
       color="#969696"
       opacity="0.39215686"
       empcolor="#ffffff"
       empopacity="0.17254902"
       dotted="false"
       originx="-16659.004"
       originy="-36630.322" /></sodipodi:namedview><defs
     id="defs9" /><g
     inkscape:label="Layer 1"
     inkscape:groupmode="layer"
     id="layer1"
     transform="translate(-16764.004,-36778.822)"><path
       style="fill:none;stroke:#ffffff;stroke-width:0.410001"
       d="m 16786.177,36792.853 c -4.771,6.281 -13.345,17.946 -13.079,26.276 0.38,11.893 13.911,20.756 19.305,30.657 9.134,16.766 6.082,39.671 -5.314,54.755 -6.861,9.081 -14.764,13.314 -22.952,20.307"
       id="path433" /><path
       style="fill:none;stroke:#ffffff;stroke-width:0.410001"
       d="m 16823.498,36839.605 c 5.941,0.222 11.827,-1.138 17.733,-1.641 5.321,-0.452 11.037,-0.995 16.38,-0.51 0.339,0.03 2.68,-0.04 2.799,0.878 0.245,1.894 -4.299,7.787 -5.22,9.332 -2.752,4.622 -5.189,9.506 -7.483,14.369 -2.135,4.527 -3.853,9.237 -5.47,13.97 -0.01,0.04 -0.879,3.662 -1.289,3.847 -0.822,0.371 -0.944,-1.542 -1.289,-2.376 -2.518,-6.066 -5.204,-12.834 -7.924,-18.666 -2.063,-4.426 -4.383,-8.834 -7.64,-12.528 -1.462,-1.662 -8.563,-6.667 -5.093,-6.252"
       id="path437" /><path
       style="fill:none;stroke:#ffffff;stroke-width:0.410001"
       d="m 16820.857,36826.934 c 9.24,0.926 18.501,1.664 27.731,2.685 1.01,0.114 2.009,0.31 3.018,0.426 0.302,0.04 0.676,0.22 0.912,0.03 0.133,-0.106 -0.748,-1.125 -1.824,-2.432 -3.182,-3.865 -6.243,-7.869 -9.589,-11.594 -2.086,-2.326 -3.832,-3.873 -3.679,-4.101 0.26,-0.389 0.923,0.151 1.384,0.225"
       id="path439" /><path
       style="fill:none;stroke:#ffffff;stroke-width:0.410001"
       d="m 16893.926,36837.173 c -8.136,4.099 -12.648,13.637 -8.741,22.228 1.732,3.81 4.508,6.718 5.345,10.946 0.273,1.378 0.263,1.127 -0.566,0.595"
       id="path441" /><path
       style="fill:none;stroke:#ffffff;stroke-width:0.410001"
       d="m 16878.425,36861.89 c 3.805,-1.026 7.525,-2.444 11.414,-3.082 1.874,-0.307 3.799,0.114 5.69,0.283 0.215,0.03 2.92,0.31 2.17,1.273"
       id="path443" /><path
       style="fill:none;stroke:#ffffff;stroke-width:0.410001"
       d="m 16913.388,36856.66 c -0.859,-1.445 -2.152,-2.704 -2.578,-4.329 -0.213,-0.81 0.432,-1.632 0.817,-2.376 2.097,-4.04 5.109,3.527 1.761,6.705 -5.14,4.873 -5.223,-7.636 -0.818,-6.874 2.37,0.41 2.542,6.643 0.818,6.874 -3.094,0.407 -0.882,-7.3 -0.314,-3.99 0.225,1.315 0.209,2.659 0.314,3.99 z"
       id="path445" /><path
       style="fill:none;stroke:#ffffff;stroke-width:0.410001"
       d="m 16932.504,36839.634 c 1.629,3.106 3.697,5.953 5.439,8.993 0.947,1.651 2.035,3.257 2.641,5.061 0.77,2.289 1.46,4.686 1.447,7.099 -0.01,1.836 -1.109,5.824 -3.962,3.818 -3.64,-2.556 -5.903,-8.541 -4.81,-12.867 0.237,-0.939 1.696,-4.479 3.741,-3.931 1.554,0.415 2.746,1.677 4.119,2.516"
       id="path447" /><path
       style="fill:none;stroke:#ffffff;stroke-width:0.410001"
       d="m 16947.785,36839.038 c 3.164,5.356 5.445,11.96 5.816,18.243 0,0.06 0.09,3.377 -1.1,3.506 -0.999,0.111 -1.908,-3.315 -1.95,-4.921 -0.13,-5.064 1.753,-10.417 5.597,-13.801 2.629,-2.315 3.574,0 2.955,2.233"
       id="path449" /><path
       style="fill:none;stroke:#ffffff;stroke-width:0.410001"
       d="m 16939.673,36831.487 c 7.251,1.574 1.879,0.754 9.683,0.961 2.534,0.07 5.383,0.957 7.892,0.735 0.676,-0.06 -0.683,-1.188 -1.163,-1.667 -1.059,-1.058 -2.132,-2.103 -3.238,-3.111 -1.479,-1.35 -10.469,-8.059 -10.502,-9.644 -0.04,-2.011 4.097,-0.04 6.005,0.592"
       id="path451" /><path
       style="fill:none;stroke:#ffffff;stroke-width:0.410001"
       d="m 16980.263,36843.338 c 2.694,-0.339 5.383,-0.709 8.08,-1.019 3.613,-0.415 6.34,-0.815 9.841,-0.622 0.802,0.04 2.64,0.395 2.17,1.046 -0.982,1.362 -4.957,1.608 -5.534,1.725"
       id="path453" /><path
       style="fill:none;stroke:#ffffff;stroke-width:0.410001"
       d="m 16978.314,36850.437 c 3.665,-2.839 14.62,-5.445 19.022,-2.972"
       id="path455" /><path
       style="fill:none;stroke:#ffffff;stroke-width:0.410001"
       d="m 17037.832,36828.659 c -0.797,-0.122 -1.609,-0.566 -2.39,-0.368 -4.798,1.217 -9.309,7.213 -8.395,12.219 0.943,5.154 3.88,8.178 6.666,12.244 0.43,0.63 1.456,1.805 0.251,1.924"
       id="path457" /><path
       style="fill:none;stroke:#ffffff;stroke-width:0.410001"
       d="m 17025.79,36851.342 c -0.818,-0.122 -2.33,-1.186 -2.453,-0.368 -0.122,0.817 1.662,0.608 2.453,0.368 6.149,-1.874 8.709,-5.242 15.343,-3.451"
       id="path459" /><path
       style="fill:none;stroke:#ffffff;stroke-width:0.410001"
       d="m 17063.467,36813.091 c -1.425,1.346 -3.197,2.405 -4.276,4.043 -6.712,10.197 -5.504,28.024 -0.629,38.605 0.588,1.278 5.77,12.541 8.206,6.816"
       id="path461" /><path
       style="fill:none;stroke:#ffffff;stroke-width:0.410001"
       d="m 17069.347,36844.145 c 0.474,-0.191 7.422,-2.916 8.143,-3.45 5.099,-3.8 1.015,-8.271 -3.616,-3.678 -0.725,0.72 -4.491,5.625 -4.527,7.128 -0.06,2.527 3.535,8.723 6.948,8.202 1.888,-0.288 3.312,-1.905 4.968,-2.858"
       id="path463" /><path
       style="fill:none;stroke:#ffffff;stroke-width:0.410001"
       d="m 17083.181,36834.81 c -1.232,-9.678 -0.164,-0.269 0,0 1.128,1.858 3.066,3.093 4.747,4.469 0.628,0.513 1.445,-4.336 2.17,-4.41 1.53,-0.159 2.329,13.583 5.25,9.813"
       id="path465" /><path
       style="fill:none;stroke:#ffffff;stroke-width:0.410001"
       d="m 17097.36,36833.736 c 1.845,1.17 4.017,1.937 5.534,3.506 1.012,1.05 1.315,2.619 1.729,4.016 0.483,1.63 0.966,3.31 0.944,5.006 -0.117,8.747 -13.181,-9.017 -2.138,-6.448"
       id="path467" /><path
       style="fill:none;stroke:#ffffff;stroke-width:0.410001"
       d="m 17123.142,36841.118 c -0.702,-1.103 -1.768,-2.045 -2.106,-3.31 -0.658,-2.455 0.217,-6.059 1.257,-8.287 0.169,-0.362 1.66,-2.706 2.641,-1.129 1.285,2.058 3.066,9.959 0.943,11.991 -0.681,0.653 -1.823,0.489 -2.735,0.735 z"
       id="path469" /><path
       style="fill:none;stroke:#ffffff;stroke-width:0.410001"
       d="m 17132.826,36825.42 c 1.174,-1.346 2.348,-2.696 3.522,-4.043 0.219,-0.275 0.89,-1.084 0.66,-0.82 -5.221,5.996 -4.31,3.316 -5.094,11.454 -0.133,1.389 -0.277,2.797 -0.126,4.186 0.162,1.479 0.48,3.17 1.95,3.847 0.33,0.151 0.216,-0.712 0.189,-1.077 -0.577,-1.979 -2.286,-3.953 -1.73,-5.938 0.323,-1.152 10.293,-2.475 11.979,-2.121"
       id="path471" /><path
       style="fill:none;stroke:#ffffff;stroke-width:0.410001"
       d="m 17157.979,36818.803 c 0.671,-1.019 1.817,-1.852 2.012,-3.056 0.08,-0.495 -1.063,-0.288 -1.509,-0.06 -1.381,0.722 -2.675,1.664 -3.741,2.799 -2.437,2.595 -5.127,6.776 -4.874,10.607 0.468,7.083 8.574,7.599 13.803,7.863 1.428,0.07 8.641,0.418 10.973,-0.227"
       id="path473" /><path
       style="fill:none;stroke:#ffffff;stroke-width:0.410001"
       d="m 17165.902,36794.168 c 3.557,5.5 2.699,3.77 6.131,12.332 5.432,13.552 11.039,28.498 4.465,42.677 -2.881,6.215 -10.042,15.732 -12.262,12.163 -0.401,-0.645 -0.168,-1.508 -0.252,-2.262"
       id="path475" /><path
       style="fill:none;stroke:#ffffff;stroke-width:0.410001"
       d="m 17203.55,36837.602 c 1.121,-0.757 2.059,-1.913 3.364,-2.265 3.958,-1.058 10.844,-0.03 14.746,1.132 1.913,0.569 2.476,1.762 0.786,2.63"
       id="path477" /><path
       style="fill:none;stroke:#ffffff;stroke-width:0.410001"
       d="m 17237.506,36820.518 c 1.048,-1.019 2.096,-2.038 3.145,-3.054 0.08,-0.293 0.469,-1.09 0.251,-0.878 -5.151,5.006 -11.152,11.784 -8.835,19.486 0.462,1.538 1.18,2.99 1.918,4.414 0.323,0.621 4.33,5.728 4.402,6.76 0.04,0.585 -1.193,0.264 -1.761,0.111"
       id="path479" /><path
       style="fill:none;stroke:#ffffff;stroke-width:0.410001"
       d="m 17228.043,36838.507 c -2.391,-7.123 11.632,-7.89 15.28,-4.358"
       id="path481" /><path
       style="fill:none;stroke:#ffffff;stroke-width:0.410001"
       d="m 17254.045,36811.834 c 0.416,-0.672 2.019,-3.045 2.389,-4.186 0.03,-0.1 -0.231,0.05 -0.283,0.143 -0.754,1.32 -1.563,2.625 -2.106,4.043 -1.213,3.167 -2.33,6.382 -3.145,9.673 -1.621,6.546 -2.879,15.521 1.792,21.27 3.076,3.784 5.836,4.564 9.873,6.702 0.579,0.307 1.243,0.518 1.698,0.989 0.131,0.138 -0.168,0.342 -0.252,0.511"
       id="path483" /><path
       style="fill:none;stroke:#ffffff;stroke-width:0.410001"
       d="m 17270.96,36824.817 c 2.634,3.524 9.548,8.514 5.722,13.69 -0.824,1.114 -1.993,2.13 -3.333,2.487 -2.665,0.714 -3.73,-1.834 -3.49,-3.818 0.163,-1.35 1.006,-2.527 1.509,-3.789"
       id="path485" /><path
       style="fill:none;stroke:#ffffff;stroke-width:0.410001"
       d="m 17281.838,36821.875 c 0.734,-1.122 1.145,-2.54 2.201,-3.366 0.366,-0.285 0.367,0.868 0.409,1.331 0.127,1.379 0.04,2.77 0.09,4.157 0.114,3.191 1.791,8.493 -0.534,11.086"
       id="path487" /><path
       style="fill:none;stroke:#ffffff;stroke-width:0.410001"
       d="m 17281.65,36830.021 c 3.928,-4.707 4.164,-4.257 8.803,-5.09 -1.628,1.626 -3.917,6.831 -0.06,8.032 3.524,1.097 6.568,-5.567 7.482,-7.382 0.247,-0.489 0.582,-2.113 0.441,-1.584 -0.53,1.98 -0.06,12.697 2.861,8.966"
       id="path489" /><path
       style="fill:none;stroke:#ffffff;stroke-width:0.410001"
       d="m 17302.967,36824.309 c 4.865,9.742 -0.06,0.4 0,0 0.471,-3.413 3.72,-8.575 6.917,-10.382"
       id="path491" /><path
       style="fill:none;stroke:#ffffff;stroke-width:0.410001"
       d="m 17313.625,36811.694 c -0.952,5.262 0.358,10.525 1.73,15.584 -0.702,-2.461 -2.532,-4.859 -2.107,-7.382 0.28,-1.66 13.969,-4.352 14.998,-4.525"
       id="path493" /><path
       style="fill:none;stroke:#ffffff;stroke-width:0.410001"
       d="m 17356.929,36819.084 c -1.593,-0.678 -3.817,-0.596 -4.779,-2.035 -1.1,-1.646 -0.741,-3.945 -0.535,-5.911 1.131,-10.75 10.972,-7.734 11.036,2.035 0,1.354 -0.1,2.958 -1.037,3.931 -1.179,1.218 -3.123,1.321 -4.685,1.98 z"
       id="path495" /><path
       style="fill:none;stroke:#ffffff;stroke-width:0.410001"
       d="m 17370.071,36804.378 c -0.461,0.971 -0.956,1.926 -1.383,2.913 -0.87,2.008 -1.257,2.609 -0.692,4.837 0.284,1.116 5.169,8.604 3.081,9.276 -1.666,-2.272 -4.09,-4.149 -4.998,-6.816 -0.661,-1.939 7.454,-2.974 8.237,-2.942 0.783,0.03 1.53,0.34 2.295,0.51"
       id="path497" /><path
       style="fill:none;stroke:#ffffff;stroke-width:0.410001"
       d="m 17398.337,36799.399 c -1.614,1.595 -3.508,2.947 -4.842,4.781 -1.126,1.547 -1.973,3.344 -2.421,5.204 -2.668,11.07 14.456,6.903 16.286,3.506 0.344,-0.638 -0.209,-1.432 -0.314,-2.149"
       id="path499" /><path
       style="fill:none;stroke:#ffffff;stroke-width:0.410001"
       d="m 17399.249,36783.108 c -0.661,-1.103 -1.321,-2.204 -1.981,-3.307 -0.04,-0.246 -0.254,-0.95 -0.126,-0.736 0.781,1.305 1.404,2.696 2.107,4.043 1.687,0.699 3.835,0.741 5.062,2.093 6.92,7.636 9.645,32.29 8.677,42.058 -0.278,2.813 -2.254,10.261 -5.282,12.33 -0.819,0.561 -1.949,-0.376 -2.924,-0.566"
       id="path501" /></g></svg>
