<?xml version="1.0" encoding="UTF-8" standalone="no"?>
<!-- Created with Inkscape (http://www.inkscape.org/) -->

<svg
   width="9428.4346mm"
   height="4265.5029mm"
   viewBox="0 0 9428.4344 4265.5033"
   version="1.1"
   id="svg12"
   inkscape:version="1.2.1 (9c6d41e410, 2022-07-14, custom)"
   sodipodi:docname="gradient_vector.svg"
   xml:space="preserve"
   xmlns:inkscape="http://www.inkscape.org/namespaces/inkscape"
   xmlns:sodipodi="http://sodipodi.sourceforge.net/DTD/sodipodi-0.dtd"
   xmlns="http://www.w3.org/2000/svg"
   xmlns:svg="http://www.w3.org/2000/svg"><sodipodi:namedview
     id="namedview14"
     pagecolor="#505050"
     bordercolor="#eeeeee"
     borderopacity="1"
     inkscape:showpageshadow="0"
     inkscape:pageopacity="0"
     inkscape:pagecheckerboard="0"
     inkscape:deskcolor="#505050"
     inkscape:document-units="mm"
     showgrid="true"
     inkscape:zoom="0.020505009"
     inkscape:cx="9948.7886"
     inkscape:cy="5315.7743"
     inkscape:window-width="1366"
     inkscape:window-height="746"
     inkscape:window-x="0"
     inkscape:window-y="0"
     inkscape:window-maximized="1"
     inkscape:current-layer="layer1"
     inkscape:lockguides="false"><inkscape:grid
       type="xygrid"
       id="grid344"
       color="#969696"
       opacity="0.39215686"
       empcolor="#000000"
       empopacity="0.17254902"
       dotted="false"
       originx="392.96408"
       originy="-15757.303" /></sodipodi:namedview><defs
     id="defs9" /><g
     inkscape:label="Layer 1"
     inkscape:groupmode="layer"
     id="layer1"
     transform="translate(287.96409,-15905.794)"><path
       style="fill:none;stroke:#ffffff;stroke-width:10.7;stroke-dasharray:none"
       d="m -271.04074,17156.913 c 196.802268,-3.325 92.09958,4.431 268.5427417,-19.351 99.1043163,-13.357 198.9165283,-28.648 299.0747583,-30.585 6.09602,-0.118 60.20302,-5.553 63.83946,9.987 3.70102,15.815 -81.67508,178.193 -85.3508,187.259 -62.56983,154.328 -120.85264,310.506 -183.191916,465.028 -3.839633,9.518 -78.657792,272.983 -98.5349326,242.189 -37.1162254,-57.502 -46.5308414,-146.883 -56.2068394,-210.355 -40.447722,-265.325 -9.735502,-448.171 -208.172472,-644.172 z"
       id="path4977" /><path
       style="fill:none;stroke:#ffffff;stroke-width:10.7;stroke-dasharray:none"
       d="m -287.69443,16905.361 c 135.39096,-6.833 306.995479,30.215 439.9382,-8.115 72.88496,-21.014 -103.840142,-180.227 -131.842743,-199.119 -53.395006,-36.024 -29.8764581,-10.953 6.939175,1.248"
       id="path4979" /><path
       style="fill:none;stroke:#ffffff;stroke-width:10.7;stroke-dasharray:none"
       d="m 987.71014,17278.631 c -23.13032,-12.484 -43.10933,-37.823 -69.39095,-37.452 -24.79397,0.351 -46.00016,21.411 -63.14561,39.325 -97.35936,101.721 -87.24583,272.186 -36.08356,391.996 13.17448,30.852 32.95063,58.556 52.04341,86.14 14.79068,21.368 77.0414,65.151 52.04264,58.05 -27.71561,-7.873 -49.77572,-29.04 -74.94167,-43.069"
       id="path4981" /><path
       style="fill:none;stroke:#ffffff;stroke-width:10.7;stroke-dasharray:none"
       d="m 671.98127,17699.341 c -17.34781,-2.497 -49.54659,-24.838 -52.04341,-7.491 -4.69316,32.608 56.6412,-2.225 151.27258,-8.114 62.89794,-3.914 184.49303,28.842 243.56176,-12.484"
       id="path4983" /><path
       style="fill:none;stroke:#ffffff;stroke-width:10.7;stroke-dasharray:none"
       d="m 1275.6815,17189.995 c 4.6262,-18.934 9.2523,-37.868 13.8784,-56.802 -0.9251,-2.705 -2.0969,-10.892 -2.7754,-8.115 -5.2105,21.326 -4.6452,43.935 -11.103,64.917 -9.1313,29.669 -31.3727,55.358 -35.3889,86.139 -22.1085,169.443 54.0096,506.551 198.4576,614.836"
       id="path4985" /><path
       style="fill:none;stroke:#ffffff;stroke-width:10.7;stroke-dasharray:none"
       d="m 1637.9023,17439.674 c -70.756,78.402 -45.7382,173.027 -74.2486,262.788 -1.9988,6.293 -6.5485,22.21 -10.4084,16.853 -18.026,-25.017 -26.4725,-55.734 -38.165,-84.266 -15.576,-38.01 -35.7517,-75.049 -43.022,-115.477 -4.5625,-25.372 46.6665,22.361 68.0025,36.827 67.8103,45.979 132.5608,92.199 185.2739,155.426"
       id="path4987" /><path
       style="fill:none;stroke:#ffffff;stroke-width:10.7;stroke-dasharray:none"
       d="m 1816.237,17678.118 c 1.6724,24.179 -28.6408,264.599 30.532,235.323"
       id="path4989" /><path
       style="fill:none;stroke:#ffffff;stroke-width:10.7;stroke-dasharray:none"
       d="m 2107.6783,17515.826 c -50.4801,85.396 -45.8081,60.634 -64.5332,149.808 -7.6459,36.413 -4.595,57.427 -8.327,57.427 -8.2624,0 -12.4907,-10.82 -18.7359,-16.23"
       id="path4991" /><path
       style="fill:none;stroke:#ffffff;stroke-width:10.7;stroke-dasharray:none"
       d="m 1942.5283,17543.291 c 45.1448,46.484 99.2656,78.2 152.6601,112.98"
       id="path4993" /><path
       style="fill:none;stroke:#ffffff;stroke-width:10.7;stroke-dasharray:none"
       d="m 2332.5048,17701.838 c -10.2531,12 -63.5955,321.206 -36.7774,224.711"
       id="path4995" /><path
       style="fill:none;stroke:#ffffff;stroke-width:10.7;stroke-dasharray:none"
       d="m 2535.8201,17404.095 c 20.3547,-14.565 36.5424,-38.681 61.064,-43.694 48.1111,-9.836 -58.4276,284.29 -48.5732,328.953 17.2968,78.397 173.1502,123.686 84.6568,31.834"
       id="path4997" /><path
       style="fill:none;stroke:#ffffff;stroke-width:10.7;stroke-dasharray:none"
       d="m 2478.9199,17578.246 c 63.6283,-13.754 140.0718,-44.73 194.2944,5.618"
       id="path4999" /><path
       style="fill:none;stroke:#ffffff;stroke-width:10.7;stroke-dasharray:none"
       d="m 2902.204,17725.557 c -141.4081,-64.494 13.4305,-103.274 16.6537,-74.279 2.8035,25.219 -11.1024,49.519 -16.6537,74.279 z"
       id="path5001" /><path
       style="fill:none;stroke:#ffffff;stroke-width:10.7;stroke-dasharray:none"
       d="m 3178.3801,17738.041 c -9.021,-19.558 -25.1198,-37.224 -27.0629,-58.675 -0.9663,-10.667 10.6476,-19.46 19.4299,-25.592 65.2767,-45.572 52.9466,100.325 7.633,84.267 -134.3343,-47.603 0.7554,-117.474 18.7351,-67.413 7.8835,21.95 -12.4902,44.942 -18.7351,67.413 z"
       id="path5003" /><path
       style="fill:none;stroke:#ffffff;stroke-width:10.7;stroke-dasharray:none"
       d="m 3367.123,17704.959 c -32.9605,-76.284 51.966,-156.264 0,0 z"
       id="path5005" /><path
       style="fill:none;stroke:#ffffff;stroke-width:10.7;stroke-dasharray:none"
       d="m 3417.0842,16966.532 c 11.7965,-19.142 16.6027,-45.072 35.3897,-57.426 104.6757,-68.834 197.6585,146.096 214.4172,200.367 97.5813,316.001 -57.3145,606.75 -160.9862,896.349"
       id="path5007" /><path
       style="fill:none;stroke:#ffffff;stroke-width:10.7;stroke-dasharray:none"
       d="m 3992.3347,17424.069 c 16.7039,15.32 407.6406,-63.794 238.705,39.325"
       id="path5009" /><path
       style="fill:none;stroke:#ffffff;stroke-width:10.7;stroke-dasharray:none"
       d="m 3964.5789,17588.858 c 16.3621,23.593 412.6835,-34.221 340.7084,34.331"
       id="path5011" /><path
       style="fill:none;stroke:#ffffff;stroke-width:10.7;stroke-dasharray:none"
       d="m 4971.4401,16484.651 c -23.8241,5.617 -50.529,4.183 -71.4724,16.853 -61.6439,37.292 -99.9313,143.699 -94.3724,211.604 2.3046,28.149 11.7428,55.535 22.2055,81.769 8.5222,21.369 101.6071,135.402 75.6361,147.311 -33.2084,15.229 -70.7157,-19.459 -104.086,-34.331"
       id="path5013" /><path
       style="fill:none;stroke:#ffffff;stroke-width:10.7;stroke-dasharray:none"
       d="m 4670.9775,16826.087 c 16.6539,-21.014 26.3911,-50.261 49.9618,-63.044 52.3097,-28.367 189.0503,-33.794 228.9894,15.605"
       id="path5015" /><path
       style="fill:none;stroke:#ffffff;stroke-width:10.7;stroke-dasharray:none"
       d="m 5164.3463,16829.833 c 3.6639,38.12 -117.6576,331.508 -142.9449,333.946 -9.8639,0.95 -13.8784,-14.149 -20.8177,-21.223"
       id="path5017" /><path
       style="fill:none;stroke:#ffffff;stroke-width:10.7;stroke-dasharray:none"
       d="m 4963.8072,16918.469 c 107.1179,53.774 209.981,118.041 306.0136,189.756"
       id="path5019" /><path
       style="fill:none;stroke:#ffffff;stroke-width:10.7;stroke-dasharray:none"
       d="m 5655.6336,16415.365 c -34.9266,24.136 -74.975,42.173 -104.7798,72.407 -130.6944,132.573 -149.2279,380.078 -2.7755,503.728 25.8358,21.813 106.7798,70.632 150.5781,68.662"
       id="path5021" /><path
       style="fill:none;stroke:#ffffff;stroke-width:10.7;stroke-dasharray:none"
       d="m 6035.8959,16607.618 c -38.1884,80.521 -147.9574,214.909 -112.413,316.468 6.0606,17.317 5.2454,-36.669 3.4692,-54.929"
       id="path5045" /><path
       style="fill:none;stroke:#ffffff;stroke-width:10.7;stroke-dasharray:none"
       d="m 5874.2157,16724.343 c 110.4495,-1.556 201.7143,41.216 277.563,117.974 37.7025,30.586 83.8541,53.012 113.1076,91.757 13.6349,18.059 -14.6443,181.087 28.4497,58.05"
       id="path5047" /><path
       style="fill:none;stroke:#ffffff;stroke-width:10.7;stroke-dasharray:none"
       d="m 6450.1591,16646.318 c 8.3272,-17.269 42.2507,-43.481 24.9814,-51.808 -17.2694,-8.327 -24.3097,32.648 -24.9814,51.808 -0.7509,21.426 67.0761,307.292 -5.5507,288.38 -21.1614,-5.51 -37.0084,-23.304 -55.5125,-34.955"
       id="path5049" /><path
       style="fill:none;stroke:#ffffff;stroke-width:10.7;stroke-dasharray:none"
       d="m 6256.5592,16751.184 c 74.0804,-40.257 116.7178,-25.332 181.1102,13.732"
       id="path5051" /><path
       style="fill:none;stroke:#ffffff;stroke-width:10.7;stroke-dasharray:none"
       d="m 6647.9237,16838.571 c -11.7872,9.83 -65.5619,276.438 -35.3898,217.222"
       id="path5053" /><path
       style="fill:none;stroke:#ffffff;stroke-width:10.7;stroke-dasharray:none"
       d="m 6761.7242,16660.051 c -30.2892,-40.751 148.5783,-129.234 165.844,-74.28 13.9525,44.41 -93.3217,198.599 -104.086,261.539 -16.705,97.677 145.0128,75.309 143.6388,53.057 -1.6602,-26.886 -47.9528,-24.697 -72.8601,-34.955"
       id="path5055" /><path
       style="fill:none;stroke:#ffffff;stroke-width:10.7;stroke-dasharray:none"
       d="m 6709.6817,16794.877 c 44.0918,-33.696 187.5711,-73.937 228.2965,-26.84"
       id="path5057" /><path
       style="fill:none;stroke:#ffffff;stroke-width:10.7;stroke-dasharray:none"
       d="m 7126.7211,16912.851 c 21.9184,-156.068 68.4708,-16.982 55.512,-9.987 -16.5452,8.93 -37.0081,6.658 -55.512,9.987 z"
       id="path5059" /><path
       style="fill:none;stroke:#ffffff;stroke-width:10.7;stroke-dasharray:none"
       d="m 7341.1387,16874.151 c 9.2522,-29.546 6.9527,-65.708 27.7566,-88.637 15.4466,-17.024 145.2234,31.31 -27.7566,88.637 z"
       id="path5061" /><path
       style="fill:none;stroke:#ffffff;stroke-width:10.7;stroke-dasharray:none"
       d="m 7568.0467,16786.763 c -18.273,7.698 -35.0177,24.133 -54.8188,23.095 -17.6295,-0.923 -24.5692,-59.598 -6.94,-58.674 23.7254,1.243 41.1726,23.719 61.7588,35.579 z"
       id="path5063" /><path
       style="fill:none;stroke:#ffffff;stroke-width:10.7;stroke-dasharray:none"
       d="m 7595.1088,16168.182 c 27.9876,-3.953 60.902,-28.204 83.9631,-11.86 39.9394,28.307 55.1085,81.351 76.3302,125.464 103.3735,214.886 104.8181,417.74 36.7773,646.046 -41.3882,138.874 -43.344,133.242 -110.3323,193.501"
       id="path5065" /><path
       style="fill:none;stroke:#ffffff;stroke-width:10.7;stroke-dasharray:none"
       d="m 5221.2473,17639.418 c -144.5959,33.976 -132.9902,211.7 -77.7177,318.965 17.9954,34.923 50.5669,61.21 67.3084,96.751 8.3826,17.795 -37.1591,-13.182 -54.8187,-21.847"
       id="path5067" /><path
       style="fill:none;stroke:#ffffff;stroke-width:10.7;stroke-dasharray:none"
       d="m 5009.6052,17925.925 c 16.8849,-21.223 25.7974,-52.824 50.655,-63.668 51.9004,-22.642 190.7633,-16.906 239.3987,23.719"
       id="path5069" /><path
       style="fill:none;stroke:#ffffff;stroke-width:10.7;stroke-dasharray:none"
       d="m 5657.7159,18016.434 c -45.4809,24.381 -101.3431,274.465 -127.6798,244.061 -11.4898,-13.264 -17.5786,-30.377 -26.3681,-45.566"
       id="path5071" /><path
       style="fill:none;stroke:#ffffff;stroke-width:10.7;stroke-dasharray:none"
       d="m 5437.7471,18038.905 c -11.1027,-23.512 -26.6674,-45.396 -33.3081,-70.535 -1.5547,-5.885 14.0544,1.987 16.6536,7.491 9.2813,19.654 -2.2799,52.37 16.6545,63.044 112.822,63.599 132.4417,-15.322 209.5598,79.273"
       id="path5073" /><path
       style="fill:none;stroke:#ffffff;stroke-width:10.7;stroke-dasharray:none"
       d="m 5870.0519,17557.024 c 9.7626,-17.094 51.5168,-91.945 67.3092,-114.229 1.52,-2.144 7.4033,-6.332 6.9392,-3.745 -3.7761,21.059 -11.5654,41.197 -17.3482,61.796 -10.8712,44.942 -25.6294,89.119 -32.6136,134.827 -46.8037,306.307 -8.0981,478.675 201.2337,699.726"
       id="path5075" /><path
       style="fill:none;stroke:#ffffff;stroke-width:10.7;stroke-dasharray:none"
       d="m 6379.3806,17791.722 c -54.4396,78.565 -98.8531,163.225 -142.9451,247.807 -6.5865,12.635 -13.0164,25.352 -19.4289,38.076 -1.4523,2.881 -1.938,11.075 -4.164,8.739 -2.2812,-2.394 -15.1749,-42.568 -15.9596,-44.942"
       id="path5077" /><path
       style="fill:none;stroke:#ffffff;stroke-width:10.7;stroke-dasharray:none"
       d="m 6166.3508,17874.117 c 3.007,-19.143 -9.2432,-50.955 9.0207,-57.427 24.8087,-8.791 245.7456,177.891 266.4609,205.361 6.5201,8.647 6.0142,20.807 9.0215,31.21"
       id="path5079" /><path
       style="fill:none;stroke:#ffffff;stroke-width:10.7;stroke-dasharray:none"
       d="m 6551.4699,18058.255 c 55.3828,12.771 -5.2248,165.92 13.8784,202.864 2.5911,5.012 8.7895,-7.074 13.1845,-10.611"
       id="path5081" /><path
       style="fill:none;stroke:#ffffff;stroke-width:10.7;stroke-dasharray:none"
       d="m 6857.4843,17812.945 c -42.5085,52.002 -75.6557,265.27 -106.8623,243.437"
       id="path5083" /><path
       style="fill:none;stroke:#ffffff;stroke-width:10.7;stroke-dasharray:none"
       d="m 6653.4752,17875.365 c 70.0006,-7.122 116.101,-4.715 158.9048,49.936"
       id="path5085" /><path
       style="fill:none;stroke:#ffffff;stroke-width:10.7;stroke-dasharray:none"
       d="m 7017.7766,18073.236 c -6.2458,-2.604 -126.0923,228.019 -60.3695,186.635"
       id="path5087" /><path
       style="fill:none;stroke:#ffffff;stroke-width:10.7;stroke-dasharray:none"
       d="m 7318.2395,18031.414 c 122.9061,49.929 -68.7467,95.307 -101.3113,31.835 -35.5426,-69.276 70.8289,-226.577 77.0247,-304.609 4.428,-55.773 -107.0753,12.376 -117.2705,38.7 -8.5987,22.201 -11.5657,46.191 -17.3485,69.286 66.2184,10.772 147.373,-6.85 210.9492,24.344"
       id="path5089" /><path
       style="fill:none;stroke:#ffffff;stroke-width:10.7;stroke-dasharray:none"
       d="m 7488.9413,18023.3 c 37.4549,-70.181 89.282,-102.506 0,0 z"
       id="path5091" /><path
       style="fill:none;stroke:#ffffff;stroke-width:10.7;stroke-dasharray:none"
       d="m 7697.1133,17960.256 c 20.9468,-21.283 76.8967,-118.913 66.6147,-44.943"
       id="path5093" /><path
       style="fill:none;stroke:#ffffff;stroke-width:10.7;stroke-dasharray:none"
       d="m 7957.3286,17884.728 c 46.8747,-122.539 154.9493,-52.135 98.5362,38.076"
       id="path5095" /><path
       style="fill:none;stroke:#ffffff;stroke-width:10.7;stroke-dasharray:none"
       d="m 5525.8732,18786.07 c -36.7771,7.491 -76.1021,7.076 -110.3313,22.471 -88.5372,39.821 -91.4852,196.755 -61.0642,270.278 14.869,35.937 48.8569,64.562 54.8187,102.993 2.0622,13.293 -25.5688,-8.714 -37.471,-14.981"
       id="path5097" /><path
       style="fill:none;stroke:#ffffff;stroke-width:10.7;stroke-dasharray:none"
       d="m 5241.3702,19071.329 c 63.1198,-21.433 270.4457,-52.318 311.5651,19.35"
       id="path5099" /><path
       style="fill:none;stroke:#ffffff;stroke-width:10.7;stroke-dasharray:none"
       d="m 5633.4292,19168.08 c 23.0021,-13.77 127.203,-100.737 173.477,-53.058 52.1197,53.703 -134.8446,244.865 -161.6811,278.393 -17.1421,21.417 -71.0525,62.75 -44.4103,69.286 55.0934,13.517 157.0104,-41.167 208.1729,-57.426 13.7178,-4.36 55.2053,-15.657 40.9405,-13.732 -81.8586,11.044 7.543,4.232 -65.9212,8.739"
       id="path5101" /><path
       style="fill:none;stroke:#ffffff;stroke-width:10.7;stroke-dasharray:none"
       d="m 5563.3445,19301.658 c 20.8804,-116.482 282.733,-62.982 335.1578,-109.235 5.4856,-4.84 -1.3883,-14.565 -2.0823,-21.847"
       id="path5103" /><path
       style="fill:none;stroke:#ffffff;stroke-width:10.7;stroke-dasharray:none"
       d="m 6080.3062,18681.829 c 11.7965,-32.666 29.4648,-63.777 35.3896,-97.999 1.7714,-10.231 -18.6782,12.081 -22.2051,21.847 -8.7501,24.23 -4.0728,52.056 -13.1845,76.152 -21.8834,57.871 -64.862,107.701 -79.1056,167.909 -46.3093,195.755 24.6478,423.096 213.0298,511.219"
       id="path5105" /><path
       style="fill:none;stroke:#ffffff;stroke-width:10.7;stroke-dasharray:none"
       d="m 6486.9367,18890.311 c -48.1973,1.752 -247.735,404.279 -170.008,207.234"
       id="path5107" /><path
       style="fill:none;stroke:#ffffff;stroke-width:10.7;stroke-dasharray:none"
       d="m 6341.2156,18836.63 c 57.0772,87.777 267.1553,264.411 267.1553,365.781"
       id="path5109" /><path
       style="fill:none;stroke:#ffffff;stroke-width:10.7;stroke-dasharray:none"
       d="m 6745.7643,19202.411 c 122.148,-39.22 -130.6037,169.145 -52.0425,156.673"
       id="path5111" /><path
       style="fill:none;stroke:#ffffff;stroke-width:10.7;stroke-dasharray:none"
       d="m 6965.0403,18915.903 c -26.2982,10.6 -34.6956,222.215 -102.0053,222.215"
       id="path5113" /><path
       style="fill:none;stroke:#ffffff;stroke-width:10.7;stroke-dasharray:none"
       d="m 6804.053,18960.222 c -12.2589,-23.72 -26.2493,-46.622 -36.7773,-71.159 -10.5281,-24.538 13.6916,57.744 36.7773,71.159 81.1771,47.169 77.2359,-69.893 122.1275,43.693"
       id="path5115" /><path
       style="fill:none;stroke:#ffffff;stroke-width:10.7;stroke-dasharray:none"
       d="m 7090.6367,19117.52 c 16.1912,24.344 42.9379,44.343 48.5736,73.031 9.1744,46.703 -53.7777,202.914 -70.7779,254.672"
       id="path5117" /><path
       style="fill:none;stroke:#ffffff;stroke-width:10.7;stroke-dasharray:none"
       d="m 7274.5237,18995.177 c -29.2684,-31.997 146.902,-164.634 174.1702,-94.878 18.3653,46.981 -87.444,185.939 -107.5552,237.195 -41.5814,105.975 168.9602,39.948 109.6375,34.331"
       id="path5119" /><path
       style="fill:none;stroke:#ffffff;stroke-width:10.7;stroke-dasharray:none"
       d="m 7277.9921,19081.94 c 66.2263,-52.745 103.7466,-74.922 181.8048,-70.534"
       id="path5121" /><path
       style="fill:none;stroke:#ffffff;stroke-width:10.7;stroke-dasharray:none"
       d="m 7760.9528,19186.182 c 8.7873,-42.957 59.7461,-116.039 0,0 z"
       id="path5123" /><path
       style="fill:none;stroke:#ffffff;stroke-width:10.7;stroke-dasharray:none"
       d="m 7953.1657,19126.259 c 9.0776,-57.991 42.2486,-107.499 0,0 z"
       id="path5125" /><path
       style="fill:none;stroke:#ffffff;stroke-width:10.7;stroke-dasharray:none"
       d="m 8125.2549,19119.392 c 11.7967,-18.31 53.6996,-43.133 35.3899,-54.929 -18.3097,-11.797 -23.5932,36.619 -35.3899,54.929 z"
       id="path5127" /><path
       style="fill:none;stroke:#ffffff;stroke-width:10.7;stroke-dasharray:none"
       d="m 8180.7685,18643.129 c 30.1606,29.693 -17.035,-83.193 11.7959,-86.14 17.3561,-1.774 70.5853,106.822 72.1672,110.484 73.0565,169.125 75.7846,368.125 -28.4514,526.199 -66.7534,101.232 -50.1097,87.707 -118.6583,116.725"
       id="path5129" /><path
       style="fill:none;stroke:#ffffff;stroke-width:10.7;stroke-dasharray:none"
       d="m 8279.303,15910.389 c 199.7295,119.113 490.2218,106.794 627.2929,323.958 100.3785,159.032 103.1545,380.103 113.8024,560.53 20.0043,338.977 12.129,678.358 26.3673,1017.444 8.0878,192.611 19.9932,385.063 33.3073,577.383 22.1038,319.286 90.9349,640.201 31.2269,960.017 -7.4366,39.833 -22.0046,82.663 -52.0435,109.859 -75.7738,68.601 -152.8509,88.737 -244.9494,97.375 -31.4386,2.949 -91.8615,13.455 -92.9838,-18.102 -0.7589,-21.335 17.1161,-39.116 25.6743,-58.674"
       id="path5131" /><path
       style="fill:none;stroke:#ffffff;stroke-width:10.7;stroke-dasharray:none"
       d="m 4846.5367,16271.175 c -46.8593,-9.785 -69.8762,-28.917 -108.2498,-4.994 -119.2233,74.329 -91.993,251.004 -83.2694,367.029 14.0571,186.962 45.679,374.607 39.5529,562.403 -14.1214,432.875 -51.887,865.055 -68.0035,1297.708 -10.9932,295.117 -8.5307,589.291 -12.4899,884.489 -2.5371,189.181 -25.0466,375.294 -45.1041,563.027 -8.0177,75.043 -29.9826,214.35 2.7752,224.087 30.3636,9.025 151.4298,-52.775 158.9056,-56.177 73.9106,-33.636 278.443,-148.082 362.9139,-137.948"
       id="path5133" /></g></svg>
