<?xml version="1.0" encoding="UTF-8" standalone="no"?>
<!-- Created with Inkscape (http://www.inkscape.org/) -->

<svg
   width="11641.106mm"
   height="1543.6008mm"
   viewBox="0 0 11641.106 1543.601"
   version="1.1"
   id="svg12"
   inkscape:version="1.2.1 (9c6d41e410, 2022-07-14, custom)"
   sodipodi:docname="gradient_tangent_equation.svg"
   xml:space="preserve"
   xmlns:inkscape="http://www.inkscape.org/namespaces/inkscape"
   xmlns:sodipodi="http://sodipodi.sourceforge.net/DTD/sodipodi-0.dtd"
   xmlns="http://www.w3.org/2000/svg"
   xmlns:svg="http://www.w3.org/2000/svg"><sodipodi:namedview
     id="namedview14"
     pagecolor="#505050"
     bordercolor="#eeeeee"
     borderopacity="1"
     inkscape:showpageshadow="0"
     inkscape:pageopacity="0"
     inkscape:pagecheckerboard="0"
     inkscape:deskcolor="#505050"
     inkscape:document-units="mm"
     showgrid="true"
     inkscape:zoom="0.020505009"
     inkscape:cx="28432.077"
     inkscape:cy="731.52857"
     inkscape:window-width="1366"
     inkscape:window-height="746"
     inkscape:window-x="0"
     inkscape:window-y="0"
     inkscape:window-maximized="1"
     inkscape:current-layer="layer1"
     inkscape:lockguides="false"><inkscape:grid
       type="xygrid"
       id="grid344"
       color="#969696"
       opacity="0.39215686"
       empcolor="#000000"
       empopacity="0.17254902"
       dotted="false"
       originx="978.88896"
       originy="-16697.163" /></sodipodi:namedview><defs
     id="defs9" /><g
     inkscape:label="Layer 1"
     inkscape:groupmode="layer"
     id="layer1"
     transform="translate(873.88902,-16845.65)"><path
       style="fill:none;stroke:#ffffff;stroke-width:10.7;stroke-dasharray:none"
       d="m 3668.4613,17354.665 c -192.5915,-15.896 181.7193,23.786 186.6614,24.344 51.9526,5.863 103.977,11.302 156.1296,14.981 31.3044,2.209 62.4112,-0.272 93.6776,1.248 7.8798,0.383 29.314,-7.304 23.5929,-1.872 -134.0816,127.306 -248.7398,357.044 -333.0755,514.963 -17.2278,32.259 -23.39,71.418 -40.9414,102.993 -5.2758,9.491 -2.0188,-21.626 -2.7752,-32.458 -2.0794,-29.771 -4.381,-59.527 -6.9392,-89.261 -11.1022,-129.032 -24.9918,-256.328 -60.3703,-381.385 -7.2345,-25.572 -42.9551,-97.042 -34.695,-71.783"
       id="path5224" /><path
       style="fill:none;stroke:#ffffff;stroke-width:10.7;stroke-dasharray:none"
       d="m 3700.3812,17129.954 c 65.7309,-18.906 361.8193,36.858 393.4465,19.35 58.9063,-32.608 -146.4704,-202.682 -176.947,-230.953 -6.6783,-6.196 17.3966,5.56 25.6744,9.363 48.2936,22.182 99.0155,44.847 140.8634,78.025 88.4872,70.153 -237.7864,82.316 -261.6031,83.018 -15.9584,0.471 -32.7607,-6.377 -47.8795,-1.248 -26.8071,9.094 -49.0366,28.297 -73.5547,42.445 z"
       id="path5226" /><path
       style="fill:none;stroke:#ffffff;stroke-width:10.7;stroke-dasharray:none"
       d="m 4505.3159,17525.072 c 86.4256,33.427 48.5341,-67.159 24.9804,-66.165 -93.0765,3.925 35.3914,9.936 -24.9804,66.165 -21.4458,19.973 -63.949,-4.069 -86.7394,14.356 -34.6813,28.038 -21.9223,129.971 -13.8777,159.795 4.857,18.005 105.0314,203.544 102.6986,208.482 -4.2106,8.912 -33.3746,0.656 -36.7774,0"
       id="path5228" /><path
       style="fill:none;stroke:#ffffff;stroke-width:10.7;stroke-dasharray:none"
       d="m 4315.8782,17799.095 c -0.694,-18.934 -18.1891,-46.826 -2.0815,-56.802 35.6555,-22.084 185.2213,29.116 235.9287,33.082"
       id="path5230" /><path
       style="fill:none;stroke:#ffffff;stroke-width:10.7;stroke-dasharray:none"
       d="m 4935.539,17388.996 c 12.0277,-18.726 54.8087,-44.15 36.0828,-56.178 -18.7259,-12.027 -26.2634,36.206 -36.0828,56.178 -31.8982,64.88 -69.0775,128.322 -88.8207,197.871 -49.1902,173.281 19.2591,364.826 163.7623,468.149"
       id="path5232" /><path
       style="fill:none;stroke:#ffffff;stroke-width:10.7;stroke-dasharray:none"
       d="m 5235.3074,17732.929 c -54.8725,-87.473 -166.1729,55.226 -108.9438,106.114 33.0478,29.387 107.1478,21.879 128.3735,-20.598 13.0664,-26.149 -17.8076,-114.702 -19.4297,-85.516 -4.5688,82.205 34.7813,181.277 118.6582,195.999"
       id="path5234" /><path
       style="fill:none;stroke:#ffffff;stroke-width:10.7;stroke-dasharray:none"
       d="m 5524.6671,17842.789 c 6.014,23.719 19.7535,46.748 18.0422,71.158 -1.9106,27.253 -47.1874,102.141 -61.064,125.464 -8.2452,13.858 -22.1594,52.255 -29.8384,38.076 -5.0723,-9.366 -1.8502,-21.223 -2.7752,-31.834"
       id="path5236" /><path
       style="fill:none;stroke:#ffffff;stroke-width:10.7;stroke-dasharray:none"
       d="m 5600.9973,17635.555 c 63.2063,-167.033 -0.2001,-0.933 0,0 13.1521,61.321 58.126,111.685 78.4116,171.03 18.0679,52.857 -9.7144,121.632 -9.7144,93.63 0,-47.091 15.6194,-197.575 92.2898,-170.406 169.7657,60.158 16.1724,426.876 -48.5733,152.304"
       id="path5238" /><path
       style="fill:none;stroke:#ffffff;stroke-width:10.7;stroke-dasharray:none"
       d="m 5893.1332,17263.533 c 23.1304,9.987 52.3897,11.368 69.391,29.961 153.5618,167.943 157.3726,568.37 56.9002,761.522 -4.4704,8.594 -73.2226,145.605 -115.8827,86.764"
       id="path5240" /><path
       style="fill:none;stroke:#ffffff;stroke-width:10.7;stroke-dasharray:none"
       d="m 6598.1441,17725.439 c -114.2175,7.634 0.785,-93.459 3.47,-69.91 2.6432,23.182 -2.3132,46.607 -3.47,69.91 z"
       id="path5242" /><path
       style="fill:none;stroke:#ffffff;stroke-width:10.7;stroke-dasharray:none"
       d="m 7019.3475,17516.957 c 3.4695,-21.847 10.1677,-43.421 10.4085,-65.541 0.036,-3.298 -9.198,-1.384 -9.7155,1.873 -3.3287,20.961 8.0766,44.341 -0.693,63.668 -15.5135,34.19 -54.6076,54.459 -68.6972,89.26 -40.1648,99.208 -6.6238,325.697 145.7203,298.992 139.9596,-24.534 180.6546,-222.054 199.1514,-333.947 1.3462,-8.142 -6.6768,-163.434 -25.6744,-103.617"
       id="path5244" /><path
       style="fill:none;stroke:#ffffff;stroke-width:10.7;stroke-dasharray:none"
       d="m 6835.4613,17200.489 c 128.3258,58.12 267.5427,56.309 405.2419,51.184 12.813,-0.477 60.5666,1.49 61.7588,-22.472 3.7531,-75.433 -96.8901,-149.434 -142.9448,-193.501 -22.7468,-21.765 -48.427,-40.886 -68.004,-65.541 -1.8622,-2.345 -4.5932,-10.368 -2.081,-8.738 98.6655,63.985 201.1691,155.14 240.7865,270.277 5.4361,15.799 12.0105,42.382 -13.8782,43.694 -111.0536,5.628 -220.0164,-72.266 -330.3019,-79.897 -50.1002,-3.467 -100.3848,3.329 -150.5773,4.994 z"
       id="path5246" /><path
       style="fill:none;stroke:#ffffff;stroke-width:10.7;stroke-dasharray:none"
       d="m 6990.2031,17541.301 c 58.6907,-64.703 26.6904,-135.784 8.3262,-66.789 -5.7708,21.68 0.2638,46.063 -8.3262,66.789 -41.4165,99.93 -121.8112,141.217 -14.5729,247.182 105.7859,104.531 215.3904,-65.11 240.7864,-151.68 16.7114,-56.965 13.7779,-123.339 -2.0807,-180.393 -1.5756,-5.669 -5.5025,10.524 -6.94,16.229 -9.1175,36.184 -11.1062,73.818 -18.0414,110.483 -11.6401,61.539 -30.634,245.2 -125.5982,262.787 -95.7684,17.737 -146.6919,-95.751 -151.9656,-171.654 -1.1647,-16.766 9.0548,-91.206 21.5114,-104.866 14.2526,-15.629 62.3538,-48.525 56.901,-28.088 -10.0216,37.562 -57.215,55.233 -73.5546,90.508 -15.8692,34.26 -7.6063,133.222 21.5114,161.044 146.5275,140.008 345.2595,31.363 353.8939,-154.177 1.655,-35.568 -24.9856,-125.59 -77.7179,-80.522"
       id="path5248" /><path
       style="fill:none;stroke:#ffffff;stroke-width:10.7;stroke-dasharray:none"
       d="m 2993.2886,17492.613 c 12.2446,3.897 476.6429,-39.366 265.767,63.044 -22.1263,10.746 -46.7233,15.397 -70.0849,23.096"
       id="path5250" /><path
       style="fill:none;stroke:#ffffff;stroke-width:10.7;stroke-dasharray:none"
       d="m 2973.1649,17641.173 c 85.3908,-20.669 191.4628,-39.206 276.87,-5.618 16.8498,6.626 24.9804,26.216 37.4703,39.324"
       id="path5252" /><path
       style="fill:none;stroke:#ffffff;stroke-width:10.7;stroke-dasharray:none"
       d="m 3062.6787,17420.206 c 105.5114,89.382 44.7445,65.673 216.4998,54.306 69.0364,-4.57 97.7802,-10.02 97.1476,-8.739 -12.4854,25.269 -70.2857,22.556 -93.6776,26.216"
       id="path5254" /><path
       style="fill:none;stroke:#ffffff;stroke-width:10.7;stroke-dasharray:none"
       d="m 2994.6763,17609.338 c -17.3479,5.202 -34.7236,10.311 -52.0435,15.605 -8.504,2.6 -24.9804,0.471 -24.9804,9.363 0,26.99 50.0859,-26.639 77.0239,-24.968 45.5523,2.826 84.9876,34.841 129.7604,43.694 18.4544,3.649 256.0542,-19.291 174.1715,18.726"
       id="path5256" /><path
       style="fill:none;stroke:#ffffff;stroke-width:10.7"
       d="m -869.86898,17092.146 c 21.7425,24.76 44.93056,48.322 65.22751,74.28 32.95595,42.147 65.80976,84.592 94.37151,129.833 48.90431,77.463 48.22221,178.84 -27.06246,50.56 -23.65404,-40.305 -43.84437,-78.999 -45.79768,-126.088 -1.8224,-43.933 50.33745,-100.064 94.3715,-73.655"
       id="path5714" /><path
       style="fill:none;stroke:#ffffff;stroke-width:10.7"
       d="m -588.83558,17116.49 c -0.69398,25.384 -4.97547,50.924 -2.08193,76.152 3.17553,27.686 9.06465,55.566 20.12331,81.146 43.87067,101.478 177.83151,-131.36 129.06698,-150.432 -24.9581,-9.761 -0.311,156.523 64.53367,109.859"
       id="path5716" /><path
       style="fill:none;stroke:#ffffff;stroke-width:10.7"
       d="m -362.62136,17082.159 c -50.22641,-24.178 172.52741,166.092 97.84109,136.7 19.79895,-58.866 86.98287,-62.406 124.90358,-99.872 30.58353,-30.217 27.19829,-138.313 -11.79644,-107.362 -106.81734,84.782 100.968641,227.564 180.416163,101.12"
       id="path5718" /><path
       style="fill:none;stroke:#ffffff;stroke-width:10.7"
       d="m 510.31585,17100.261 c -113.75344,96.671 -130.16351,-158.531 -26.36861,-159.171 34.99774,-0.215 79.18117,72.196 74.94207,97.999 -4.22095,25.693 -32.3823,40.781 -48.57346,61.172 z"
       id="path5720" /><path
       style="fill:none;stroke:#ffffff;stroke-width:10.7"
       d="m 612.32038,16923.613 c -74.88791,98.536 51.4373,-94.729 39.55274,-70.535 -11.88455,24.195 -41.16419,43.627 -39.55274,70.535 3.35994,56.102 67.63242,142.32 99.22877,172.278"
       id="path5722" /><path
       style="fill:none;stroke:#ffffff;stroke-width:10.7"
       d="m 619.95339,17081.535 c 52.74241,-33.96 108.86387,-31.21 168.61973,-31.21"
       id="path5724" /><path
       style="fill:none;stroke:#ffffff;stroke-width:10.7"
       d="m -725.53597,17750.676 c -46.23348,48.466 -57.77513,136.04 0,183.514 72.65543,59.7 230.48486,-59.949 183.19191,-143.566 -14.91551,-26.371 -114.30299,-55.879 -115.18865,-2.497 -1.26818,76.441 262.75545,112.646 233.84726,239.693 -26.50331,116.478 -175.79678,122.494 -204.70328,8.738"
       id="path5732" /><path
       style="fill:none;stroke:#ffffff;stroke-width:10.7"
       d="m -440.33917,17737.567 c 96.20822,-3.73 67.74275,-17.635 147.10839,38.076 18.72374,13.143 36.82598,27.335 53.43107,43.07 133.10234,126.129 -152.06038,-52.473 -109.63751,-156.049"
       id="path5734" /><path
       style="fill:none;stroke:#ffffff;stroke-width:10.7"
       d="m -153.75505,17723.211 c -199.85492,27.076 -34.15934,-131.769 1.38806,-86.14 17.64845,22.654 -0.92538,57.427 -1.38806,86.14 z"
       id="path5736" /><path
       style="fill:none;stroke:#ffffff;stroke-width:10.7"
       d="m -148.8978,17554.053 c 17.81038,-3.329 35.56585,-13.008 53.431097,-9.987 33.484317,5.661 67.29386,52.13 88.8204125,75.528 30.9511165,33.642 -21.4150575,-41.57 -13.1841345,-73.655 3.020722,-11.775 24.1846363,5.127 34.695103,11.235 14.645349,8.511 111.293722,81.905 134.618462,57.426 27.32966,-28.681 -25.71268,-138.923 -32.61354,-171.654"
       id="path5738" /><path
       style="fill:none;stroke:#ffffff;stroke-width:10.7"
       d="m 159.19806,17344.947 c 55.68709,38.933 215.17631,147.329 175.5589,244.061"
       id="path5740" /><path
       style="fill:none;stroke:#ffffff;stroke-width:10.7"
       d="m 243.85464,17511.608 c 25.83307,-99.363 -0.14059,-54.084 43.71618,-100.496 12.58906,-13.323 32.53378,-58.94 47.18614,-67.414 11.59907,-6.707 140.61537,166.82 155.43522,157.298 44.19944,-28.399 -65.0207,-233.394 138.78192,-75.528 25.72483,19.927 44.51561,47.684 69.39094,68.662"
       id="path5742" /><path
       style="fill:none;stroke:#ffffff;stroke-width:10.7"
       d="m 1088.3417,17377.405 c -84.3049,106.902 -182.9615,-32.11 -96.45339,-110.483 23.72829,-21.497 102.63839,-14.477 113.80099,23.719 8.2733,28.31 -11.5651,57.843 -17.3476,86.764 z"
       id="path5744" /><path
       style="fill:none;stroke:#ffffff;stroke-width:10.7"
       d="m 1092.5051,17162.681 c 82.0202,21.375 73.7968,5.981 129.7609,74.279 19.9788,24.382 37.647,50.74 53.4311,78.025 110.2655,190.614 -106.9416,-24.966 -40.9404,-113.604 8.9624,-12.036 26.1507,-21.269 40.9404,-18.726 50.8074,8.734 136.1356,44.835 169.3135,94.878 28.0466,42.304 24.11,66.112 -11.1022,55.554"
       id="path5746" /><path
       style="fill:none;stroke:#ffffff;stroke-width:10.7"
       d="m 602.60546,18039.055 c -20.16744,125.052 103.25526,371.847 247.72559,214.724 77.68584,-84.489 -47.15042,-389.075 -61.75793,-310.226"
       id="path5748" /><path
       style="fill:none;stroke:#ffffff;stroke-width:10.7"
       d="m 515.17313,17902.356 c 109.03688,-33.858 250.92601,-57.579 333.07602,-147.311 51.53289,-56.289 -81.65606,-74.959 -111.71905,-81.77 -37.97662,-8.604 -71.34156,-11.271 -54.81878,-12.484 43.52671,-3.197 33.99915,-0.839 81.187,13.732"
       id="path5750" /><path
       style="fill:none;stroke:#ffffff;stroke-width:10.7"
       d="m 7881.8743,16970.704 c 43.7152,2.014 -8.9385,-61.634 9.7152,-81.77 18.6539,-20.136 -13.6642,54.607 -9.7152,81.77 4.3558,29.963 26.3683,54.513 39.5528,81.77 3.2382,64.084 6.681,128.159 9.7152,192.253 12.4074,262.102 19.3572,524.374 31.2259,786.49 5.2385,115.694 6.0632,242.131 27.7558,357.041"
       id="path5790" /><path
       style="fill:none;stroke:#ffffff;stroke-width:10.7"
       d="m 8548.0043,17627.136 c -15.4974,19.975 -40.9855,35.249 -46.492,59.923 -30.1366,135.043 67.4478,293.548 220.6627,240.941 72.6588,-24.948 307.2101,-196.166 205.3977,-297.743 -30.312,-30.241 -100.0173,-38.286 -139.4759,-51.808"
       id="path5792" /><path
       style="fill:none;stroke:#ffffff;stroke-width:10.7"
       d="m 8580.6177,17403.673 c -23.1302,-0.208 -46.2606,-0.416 -69.391,-0.624 -3.238,0.208 -12.959,0.595 -9.7144,0.624 52.5952,0.474 391.6868,-27.014 421.8963,-49.311 47.3541,-34.952 -228.9466,-289.171 -128.3726,-208.483"
       id="path5794" /><path
       style="fill:none;stroke:#ffffff;stroke-width:10.7"
       d="m 9306.1446,17225.796 c 78.2161,53.611 -15.1593,-62.186 6.9392,-69.286 22.0985,-7.1 -8.3471,46.118 -6.9392,69.286 2.7379,45.054 20.4546,88.12 25.6751,132.954 12.7389,109.401 13.3919,219.911 23.5929,329.577 8.3987,90.291 24.8055,188.999 21.5107,280.89"
       id="path5796" /><path
       style="fill:none;stroke:#ffffff;stroke-width:10.7"
       d="m 8295.8141,17012.945 c 18.9306,324.757 -105.8397,728.411 6.2444,1039.29"
       id="path5798" /><path
       style="fill:none;stroke:#ffffff;stroke-width:10.7"
       d="m 9891.8035,17496.074 c 26.0453,-13.787 404.9505,-150 215.1125,-20.598 -19.212,13.095 -40.71,22.471 -61.065,33.706"
       id="path5800" /><path
       style="fill:none;stroke:#ffffff;stroke-width:10.7"
       d="m 9900.1304,17613.423 c 103.5706,17.554 230.4136,14.041 333.7696,-16.229"
       id="path5802" /><path
       style="fill:none;stroke:#ffffff;stroke-width:10.7"
       d="m 10463.585,17378.725 c -21.28,28.297 -58.333,49.916 -63.84,84.891 -20.511,130.272 305.396,90.501 355.975,-28.089 53.97,-126.541 -263.798,-68.687 -292.135,-56.802 -34.787,14.589 -201.355,170.381 0,0 z"
       id="path5804" /><path
       style="fill:none;stroke:#ffffff;stroke-width:10.7"
       d="m 10586.407,17135.287 c -5.515,131.431 -2.932,19.298 6.244,232.202 2.233,51.796 10.953,584.329 29.145,584.874 10.063,0.302 7.401,-18.726 11.102,-28.089"
       id="path5806" /></g></svg>
