<?xml version="1.0" encoding="UTF-8" standalone="no"?>
<!-- Created with Inkscape (http://www.inkscape.org/) -->

<svg
   width="80.736mm"
   height="89.86972mm"
   viewBox="0 0 80.735995 89.869722"
   version="1.1"
   id="svg12"
   inkscape:version="1.2.1 (9c6d41e410, 2022-07-14, custom)"
   sodipodi:docname="gradient_opp.svg"
   xml:space="preserve"
   xmlns:inkscape="http://www.inkscape.org/namespaces/inkscape"
   xmlns:sodipodi="http://sodipodi.sourceforge.net/DTD/sodipodi-0.dtd"
   xmlns="http://www.w3.org/2000/svg"
   xmlns:svg="http://www.w3.org/2000/svg"><sodipodi:namedview
     id="namedview14"
     pagecolor="#000000"
     bordercolor="#ffffff"
     borderopacity="1"
     inkscape:showpageshadow="0"
     inkscape:pageopacity="0"
     inkscape:pagecheckerboard="0"
     inkscape:deskcolor="#000000"
     inkscape:document-units="mm"
     showgrid="true"
     inkscape:zoom="0.91285872"
     inkscape:cx="344.5221"
     inkscape:cy="173.63037"
     inkscape:window-width="1311"
     inkscape:window-height="697"
     inkscape:window-x="0"
     inkscape:window-y="0"
     inkscape:window-maximized="1"
     inkscape:current-layer="layer1"
     inkscape:lockguides="true" /><defs
     id="defs9"><rect
       x="587.26367"
       y="362.45731"
       width="66.575974"
       height="20.973427"
       id="rect1884" /></defs><g
     inkscape:label="Layer 1"
     inkscape:groupmode="layer"
     id="layer1"
     transform="translate(-3356.9951,-22274.835)"><path
       style="fill:none;stroke:#00ffff;stroke-width:1"
       d="m 3358.7896,22293.913 c 2.6057,1.259 0.7635,0.613 5.478,0.603 1.2114,0 5.8647,-0.266 6.9678,0.631 0.7361,0.599 -3.5867,6.067 -4.0814,6.702 -0.3296,0.423 -2.913,3.757 -2.995,3.772 -0.1425,0.03 -0.082,-0.279 -0.1087,-0.421 -0.1096,-0.595 -0.3525,-1.244 -0.5431,-1.809 -1.167,-3.457 -2.6288,-6.495 -4.7176,-9.478 -1.5832,-2.261 -0.7827,-2.243 -1.6139,-1.921"
       id="path364" /><path
       style="fill:none;stroke:#00ffff;stroke-width:1"
       d="m 3359.8449,22289.37 c 4.1704,0.06 1.7357,0.06 5.509,0 1.1633,-0.02 2.2891,-0.04 3.4451,-0.03 0.4894,0 1.4406,0.126 1.5053,-0.01 0.025,-0.05 -0.8865,-0.947 -1.3346,-1.528 -0.5172,-0.671 -3.5571,-5.755 -4.5469,-4.234"
       id="path366" /><path
       style="fill:none;stroke:#00ffff;stroke-width:1"
       d="m 3379.4601,22296.325 c 0.4035,-0.215 0.7645,-0.545 1.2105,-0.645 0.543,-0.123 5.5351,-0.247 5.7107,0.322 0.065,0.212 -0.2379,0.374 -0.3569,0.561"
       id="path368" /><path
       style="fill:none;stroke:#00ffff;stroke-width:1"
       d="m 3380.5774,22299.886 c 2.5599,-0.666 5.2787,-1.698 7.9455,-1.009"
       id="path370" /><path
       style="fill:none;stroke:#00ffff;stroke-width:1"
       d="m 3406.8035,22275.293 c 1.9225,0.844 2.8341,2.206 3.0727,4.333 0.2199,1.96 -0.54,4.43 -2.4519,5.37 -1.1126,0.547 -2.0147,0.04 -2.1416,-1.234 -0.2549,-2.566 3.7042,-7.245 5.6643,-4.234"
       id="path372" /><path
       style="fill:none;stroke:#00ffff;stroke-width:1"
       d="m 3404.0568,22288.178 c 3.6143,-0.8 7.0303,-2.509 10.7232,-2.944"
       id="path374" /><path
       style="fill:none;stroke:#00ffff;stroke-width:1"
       d="m 3409.2865,22288.739 c 0.2431,0.468 0.4915,0.932 0.7294,1.402 0.5831,1.153 0.9255,1.595 0.9621,2.931 0.028,1.024 -1.2663,4.541 -2.8399,2.958 -1.2387,-1.246 -0.7056,-3.248 0.4035,-4.36 0.5678,-0.57 1.3744,-0.494 2.0795,-0.547"
       id="path376" /><path
       style="fill:none;stroke:#00ffff;stroke-width:1"
       d="m 3415.5714,22289.539 c -0.318,-0.374 -1.8763,5.232 -2.2191,4.879 -0.1996,-0.206 -0.1552,-0.552 -0.2328,-0.827"
       id="path378" /><path
       style="fill:none;stroke:#00ffff;stroke-width:1"
       d="m 3412.3126,22289.665 c 2.3853,1.428 5.144,3.424 5.8349,6.267"
       id="path380" /><path
       style="fill:none;stroke:#00ffff;stroke-width:1"
       d="m 3409.7831,22302.816 c 0.4138,0.571 0.9106,1.089 1.2414,1.711 0.3171,0.596 0.5168,1.252 0.6829,1.907 0.1923,0.758 0.433,1.533 0.3879,2.313 -0.025,0.439 -0.246,0.905 -0.5897,1.178 -1.8338,1.458 -2.8214,-3.84 -0.6052,-3.94"
       id="path382" /><path
       style="fill:none;stroke:#00ffff;stroke-width:1"
       d="m 3407.3312,22312.407 c 0.5845,0.03 1.1782,0.191 1.7535,0.08 2.5134,-0.468 7.1644,-2.315 9.6059,-3.491"
       id="path384" /><path
       style="fill:none;stroke:#00ffff;stroke-width:1"
       d="m 3410.8694,22313.725 c 1.0672,1.758 3.8978,5.395 0.9776,7.122 -1.9396,1.147 -1.4925,-2.157 -1.3346,-2.678 0.1455,-0.479 0.5587,-0.831 0.838,-1.247"
       id="path386" /><path
       style="fill:none;stroke:#00ffff;stroke-width:1"
       d="m 3416.9836,22313.627 c -0.6704,0.635 -0.701,6.05 -1.0708,6.211 -0.094,0.04 -0.1862,-0.08 -0.2793,-0.126"
       id="path388" /><path
       style="fill:none;stroke:#00ffff;stroke-width:1"
       d="m 3412.9799,22314.973 c 0.38,0.679 3.6268,0.889 4.64,1.906"
       id="path390" /><path
       style="fill:none;stroke:#00ffff;stroke-width:1"
       d="m 3413.9886,22327.62 c 0.6517,0.579 1.3967,1.068 1.9553,1.738 1.2149,1.457 1.0555,4.182 -0.7449,5.104 -0.2765,0.141 -0.6484,0.171 -0.9311,0.04 -1.1244,-0.513 -1.6376,-3.141 -0.2483,-3.688 0.3177,-0.125 0.6828,0.01 1.0242,0.01"
       id="path392" /><path
       style="fill:none;stroke:#00ffff;stroke-width:1"
       d="m 3412.1574,22336.172 c 3.4464,0.08 6.7691,-1.323 9.9162,-2.636"
       id="path394" /><path
       style="fill:none;stroke:#00ffff;stroke-width:1"
       d="m 3415.7266,22337.336 c 0.238,0.561 0.4759,1.122 0.7139,1.683 0.2948,0.528 0.6415,1.03 0.8845,1.584 0.2146,0.489 0.3938,1.001 0.4811,1.528 0.6894,4.16 -4.9762,0.518 -2.5916,-2.047"
       id="path396" /><path
       style="fill:none;stroke:#00ffff;stroke-width:1"
       d="m 3419.2493,22338.402 c 1.3189,-1.086 1.6035,-1.696 3.414,-1.753 1.1021,-0.03 -1.5825,4.546 -1.6449,5.314 -0.1309,1.611 2.9564,0.457 2.8399,0.365"
       id="path398" /><path
       style="fill:none;stroke:#00ffff;stroke-width:1"
       d="m 3419.7304,22340.421 c 0.7582,-0.693 3.9331,-2.433 4.5158,-0.561"
       id="path400" /><path
       style="fill:none;stroke:#00ffff;stroke-width:1"
       d="m 3418.3803,22348.875 c -0.3353,-1.348 0.085,-2.969 0,0 z"
       id="path402" /><path
       style="fill:none;stroke:#00ffff;stroke-width:1"
       d="m 3417.8837,22353.755 c -0.5356,0.729 -2.5562,2.605 0,0 z"
       id="path404" /><path
       style="fill:none;stroke:#00ffff;stroke-width:1"
       d="m 3419.5597,22278.013 c 2.5707,2.399 8.5569,-0.57 9.8076,3.197 0.054,0.162 -0.2555,8.863 -0.2483,9.24 0.099,5.214 0.6575,10.406 1.0242,15.605 0.4423,6.272 0.8094,12.544 1.5674,18.788 0.7928,6.531 1.9681,12.989 3.0416,19.476 0.6027,3.641 0.809,7.32 1.4122,10.964 0.1375,0.831 1.3676,5.853 0.9931,6.309 -0.017,0.02 -6.207,0.428 -6.7039,0.533 -1.2965,0.274 -3.7747,1.829 -1.5053,1.094"
       id="path406" /><path
       style="fill:none;stroke:#00ffff;stroke-width:1"
       d="m 3401.0152,22275.504 c -0.2043,0.128 -1.7126,0.903 -2.1105,1.486 -1.0115,1.482 -0.7002,4.563 -0.7294,6.197 -0.084,4.714 0.5316,9.373 0.6363,14.077 0.1483,6.667 0.2543,13.373 0.838,20.022 0.3482,3.968 0.9708,7.912 1.319,11.876 0.3701,4.213 0.4264,8.448 0.4656,12.675 0.026,2.823 0.2892,5.882 0.078,8.721 -0.2311,3.1 -0.6644,6.114 -1.5208,9.1 -0.077,0.27 -1.5267,3.282 -1.0863,4.22 0.368,0.784 5.1636,-0.08 6.347,-0.154 1.5943,-0.101 2.1505,-0.165 2.0484,0.01 -0.08,0.14 -0.2483,0.205 -0.3724,0.308"
       id="path408" /></g></svg>
