<?xml version="1.0" encoding="UTF-8" standalone="no"?>
<!-- Created with Inkscape (http://www.inkscape.org/) -->

<svg
   width="4426.4819mm"
   height="3479.7061mm"
   viewBox="0 0 4426.4819 3479.7065"
   version="1.1"
   id="svg12"
   inkscape:version="1.2.1 (9c6d41e410, 2022-07-14, custom)"
   sodipodi:docname="gradient_3d_example.svg"
   xml:space="preserve"
   xmlns:inkscape="http://www.inkscape.org/namespaces/inkscape"
   xmlns:sodipodi="http://sodipodi.sourceforge.net/DTD/sodipodi-0.dtd"
   xmlns="http://www.w3.org/2000/svg"
   xmlns:svg="http://www.w3.org/2000/svg"><sodipodi:namedview
     id="namedview14"
     pagecolor="#505050"
     bordercolor="#eeeeee"
     borderopacity="1"
     inkscape:showpageshadow="0"
     inkscape:pageopacity="0"
     inkscape:pagecheckerboard="0"
     inkscape:deskcolor="#505050"
     inkscape:document-units="mm"
     showgrid="true"
     inkscape:zoom="0.020505009"
     inkscape:cx="5925.3814"
     inkscape:cy="5559.6171"
     inkscape:window-width="1366"
     inkscape:window-height="746"
     inkscape:window-x="0"
     inkscape:window-y="0"
     inkscape:window-maximized="1"
     inkscape:current-layer="layer1"
     inkscape:lockguides="false"><inkscape:grid
       type="xygrid"
       id="grid344"
       color="#969696"
       opacity="0.39215686"
       empcolor="#000000"
       empopacity="0.17254902"
       dotted="false"
       originx="-13.836153"
       originy="-15157.24" /></sodipodi:namedview><defs
     id="defs9" /><g
     inkscape:label="Layer 1"
     inkscape:groupmode="layer"
     id="layer1"
     transform="translate(-118.83615,-15305.724)"><path
       style="fill:none;stroke:#ffffff;stroke-width:10.7;stroke-dasharray:none"
       d="m 1532.2712,15471.538 c -28.4503,7.491 -60.351,6.962 -85.3509,22.471 -24.1944,15.01 -40.6052,40.66 -55.5133,64.917 -92.5136,150.529 -41.7695,309.763 16.6545,456.913"
       id="path5855" /><path
       style="fill:none;stroke:#ffffff;stroke-width:10.7;stroke-dasharray:none"
       d="m 1182.5411,15791.128 c 95.2898,44.926 189.594,32.099 289.3598,29.961"
       id="path5857" /><path
       style="fill:none;stroke:#ffffff;stroke-width:10.7;stroke-dasharray:none"
       d="m 1857.02,15590.761 c -18.9668,2.496 -42.1443,-4.685 -56.9003,7.49 -105.7493,87.252 -84.5594,402.571 95.7592,333.946"
       id="path5859" /><path
       style="fill:none;stroke:#ffffff;stroke-width:10.7;stroke-dasharray:none"
       d="m 2077.6835,15703.116 c -57.9368,8.726 -7.2514,179.071 -61.0641,201.616 -11.9405,5.003 -22.2055,-13.316 -33.3082,-19.974"
       id="path5861" /><path
       style="fill:none;stroke:#ffffff;stroke-width:10.7;stroke-dasharray:none"
       d="m 1932.6562,15739.32 c 61.5964,69.376 125.0402,138.056 197.7637,195.998"
       id="path5863" /><path
       style="fill:none;stroke:#ffffff;stroke-width:10.7;stroke-dasharray:none"
       d="m 2270.5895,15862.287 c 7.0958,39.649 -35.2069,264.89 13.8784,182.89"
       id="path5865" /><path
       style="fill:none;stroke:#ffffff;stroke-width:10.7;stroke-dasharray:none"
       d="m 2463.4964,15766.784 c -49.5765,23.834 -9.1508,115.73 -42.3281,148.56 -6.8826,6.81 -15.4998,-11.742 -22.2052,-18.727"
       id="path5867" /><path
       style="fill:none;stroke:#ffffff;stroke-width:10.7;stroke-dasharray:none"
       d="m 2326.1021,15770.529 c 25.1125,53.137 66.8852,79.021 108.2499,114.853"
       id="path5869" /><path
       style="fill:none;stroke:#ffffff;stroke-width:10.7;stroke-dasharray:none"
       d="m 2671.6692,15855.421 c 5.5601,47.633 -57.0457,115.162 -39.5527,166.66 3.9306,11.572 17.339,-17.41 24.2867,-27.464"
       id="path5871" /><path
       style="fill:none;stroke:#ffffff;stroke-width:10.7;stroke-dasharray:none"
       d="m 2774.3676,15641.945 c -15.7988,-44.517 94.0286,-128.758 127.6789,-85.516 39.8959,51.269 -110.3038,214.821 -98.5346,287.756 8.2218,50.951 191.7607,89.79 110.3314,51.808"
       id="path5873" /><path
       style="fill:none;stroke:#ffffff;stroke-width:10.7;stroke-dasharray:none"
       d="m 2757.02,15781.765 c 23.701,-98.415 133.0452,-48.4 204.7029,-34.955 37.4269,7.023 45.9787,15.111 42.3281,12.484 -5.3335,-3.838 -11.565,-6.242 -17.3476,-9.363"
       id="path5875" /><path
       style="fill:none;stroke:#ffffff;stroke-width:10.7;stroke-dasharray:none"
       d="m 3010.2963,15326.725 c 25.4434,-4.37 52.1565,-22.169 76.3302,-13.109 182.3029,68.328 174.8211,654.367 70.0847,772.134"
       id="path5877" /><path
       style="fill:none;stroke:#ffffff;stroke-width:10.7;stroke-dasharray:none"
       d="m 119.47276,16650.025 c 78.49407,9.407 155.56037,25.761 229.68384,52.433"
       id="path5879" /><path
       style="fill:none;stroke:#ffffff;stroke-width:10.7;stroke-dasharray:none"
       d="m 304.05236,16519.567 c -18.73562,3.329 -59.53585,-8.748 -56.20684,9.988 3.32902,18.735 37.51808,-13.57 56.20684,-9.988 39.54939,7.582 74.78805,30.064 113.1067,42.446 6.80257,2.198 55.90019,3.745 23.5929,3.745"
       id="path5881" /><path
       style="fill:none;stroke:#ffffff;stroke-width:10.7;stroke-dasharray:none"
       d="m 455.32415,16410.957 c 44.17886,15.605 88.78329,30.054 132.53657,46.815 28.23014,10.814 175.73557,50.548 154.04792,113.604 -42.7197,124.205 -220.59262,219.462 -328.21877,278.393 -10.08533,5.522 -30.57347,22.551 -32.61354,11.235 -3.49232,-19.371 68.63141,-61.44 97.84069,-81.146"
       id="path5883" /><path
       style="fill:none;stroke:#ffffff;stroke-width:10.7;stroke-dasharray:none"
       d="m 1274.1364,16729.298 c 81.2131,12.072 232.9514,-21.141 296.299,51.184 59.3365,67.746 -65.1409,195.462 -98.5345,242.189 -51.7754,72.449 -65.3498,89.806 -106.1683,164.789 -18.471,33.93 -18.6374,38.792 -30.5321,69.286 -2.2077,5.66 -4.1756,22.264 -6.9391,16.853 -24.3524,-47.675 -35.0536,-261.46 -47.8796,-322.71 -18.9882,-90.678 -28.4698,-107.026 -60.3703,-191.629 -3.4695,-9.202 -18.8168,-27.227 -9.0207,-28.089 20.9767,-1.846 42.0971,-1.249 63.1456,-1.873 z"
       id="path5885" /><path
       style="fill:none;stroke:#ffffff;stroke-width:10.7;stroke-dasharray:none"
       d="m 1244.9928,16503.338 c 101.3493,-11.625 201.5341,35.3 301.8498,52.433 14.5979,2.493 48.9872,12.836 44.4104,-1.249 -10.5921,-32.595 -231.1462,-307.075 -136.0058,-215.972"
       id="path5887" /><path
       style="fill:none;stroke:#ffffff;stroke-width:10.7;stroke-dasharray:none"
       d="m 2002.0472,16719.311 c -24.0555,9.987 -58.2491,7.945 -72.1663,29.962 -45.8498,72.532 13.4916,215.566 41.6342,282.761 10.1254,24.176 45.2082,52.32 29.1444,73.032 -5.5653,7.175 -18.0419,2.08 -27.0629,3.12"
       id="path5889" /><path
       style="fill:none;stroke:#ffffff;stroke-width:10.7;stroke-dasharray:none"
       d="m 1785.5475,16951.513 c 87.6616,-16.703 205.3548,-25.302 288.666,16.853"
       id="path5891" /><path
       style="fill:none;stroke:#ffffff;stroke-width:10.7;stroke-dasharray:none"
       d="m 2574.3522,16872.171 c 43.6996,-11.556 309.643,-76.621 192.9069,23.72"
       id="path5941" /><path
       style="fill:none;stroke:#ffffff;stroke-width:10.7;stroke-dasharray:none"
       d="m 2596.5574,16997.635 c 83.4462,-1.083 181.2402,-58.065 257.4401,-10.611"
       id="path5943" /><path
       style="fill:none;stroke:#ffffff;stroke-width:10.7;stroke-dasharray:none"
       d="m 3581.9075,16237.986 c -18.7355,4.577 -40.4107,2.666 -56.2064,13.732 -10.9574,7.677 -12.9241,23.798 -15.9599,36.828 -22.3393,95.883 5.3472,179.185 62.4518,256.545 0.9518,1.29 44.498,47.827 44.4104,48.064 -2.6625,7.186 -14.3489,-5.389 -21.5114,-8.115"
       id="path5945" /><path
       style="fill:none;stroke:#ffffff;stroke-width:10.7;stroke-dasharray:none"
       d="m 3416.7574,16537.601 c 71.5838,-32.094 142.0503,-26.686 213.0297,1.248"
       id="path5947" /><path
       style="fill:none;stroke:#ffffff;stroke-width:10.7;stroke-dasharray:none"
       d="m 3845.5929,16464.57 c -41.8375,76.963 -23.4156,164.382 -37.4711,245.31 -2.754,15.856 -10.822,-30.315 -15.9599,-45.567"
       id="path5949" /><path
       style="fill:none;stroke:#ffffff;stroke-width:10.7;stroke-dasharray:none"
       d="m 3713.0565,16502.021 c 19.6077,54.351 246.87,165.764 233.1532,231.578"
       id="path5951" /><path
       style="fill:none;stroke:#ffffff;stroke-width:10.7;stroke-dasharray:none"
       d="m 3627.0119,16948.324 c -25.4434,34.538 -54.165,66.887 -76.3303,103.616 -57.0826,94.589 78.0014,225.818 44.4104,183.515"
       id="path5953" /><path
       style="fill:none;stroke:#ffffff;stroke-width:10.7;stroke-dasharray:none"
       d="m 3472.9638,17142.449 c 82.6722,-15.727 165.9564,-22.335 240.7864,21.223"
       id="path5955" /><path
       style="fill:none;stroke:#ffffff;stroke-width:10.7;stroke-dasharray:none"
       d="m 3935.8015,17141.825 c -21.9826,31.702 16.5878,187.545 -29.1444,212.228 -6.4357,3.473 -13.4159,-5.827 -20.1236,-8.74"
       id="path5957" /><path
       style="fill:none;stroke:#ffffff;stroke-width:10.7;stroke-dasharray:none"
       d="m 3766.4875,17149.94 c 37.3692,37.288 93.0521,54.746 117.9645,102.368"
       id="path5959" /><path
       style="fill:none;stroke:#ffffff;stroke-width:10.7;stroke-dasharray:none"
       d="m 3704.0358,17750.418 c -104.4051,-26.231 -159.8874,74.683 -131.8428,165.413 21.4865,69.513 64.6913,91.43 104.7799,142.942 4.5992,5.909 -13.5107,-6.473 -20.1229,-9.988"
       id="path5961" /><path
       style="fill:none;stroke:#ffffff;stroke-width:10.7;stroke-dasharray:none"
       d="m 3519.4558,17967.639 c 78.4942,-8.312 157.1972,-12.936 235.9287,-6.866"
       id="path5963" /><path
       style="fill:none;stroke:#ffffff;stroke-width:10.7;stroke-dasharray:none"
       d="m 3882.3705,18004.467 c 215.4867,-102.503 -41.1311,203.644 -27.0629,251.552 7.7274,26.316 159.6678,-15.349 145.0271,-9.363"
       id="path5965" /><path
       style="fill:none;stroke:#ffffff;stroke-width:10.7;stroke-dasharray:none"
       d="m 3840.0414,18144.288 c 56.4441,-16.819 110.844,-35.901 169.314,-39.949"
       id="path5967" /><path
       style="fill:none;stroke:#ffffff;stroke-width:10.7;stroke-dasharray:none"
       d="m 4065.5619,16111.273 c 52.6947,89.364 315.944,-41.177 352.5062,74.904 28.2345,89.642 -10.2057,203.446 -9.7152,295.246 0.2725,51.018 2.9361,102.017 6.2452,152.929 17.2517,265.414 67.1391,523.161 73.5547,790.235 4.5167,188.019 -20.8177,376.436 -26.3689,564.275 -4.4442,150.376 -5.9044,300.829 15.96,450.047 6.0573,41.342 19.0484,98.59 37.471,137.948 5.8709,12.543 28.4787,20.508 24.2869,33.707 -5.0686,15.959 -451.2447,129.367 -276.1755,-10.612"
       id="path5969" /><path
       style="fill:none;stroke:#ffffff;stroke-width:10.7;stroke-dasharray:none"
       d="m 3296.0177,16060.713 c -52.8854,11.132 -130.9619,22.242 -169.314,69.287 -16.0498,19.687 -1.8475,83.769 -1.3877,104.865 3.3887,155.473 34.8581,308.69 34.0013,464.403 -0.723,131.373 -28.4148,260.492 -31.2259,391.997 -9.0098,421.483 -8.7853,843.097 -10.4084,1264.626 -0.3329,86.462 -1.4455,173.313 -6.2453,259.666 -2.8118,50.586 -14.5903,109.418 -12.4907,160.419 0.7936,19.276 24.1261,-34.563 112.4137,-57.426 79.2813,-20.53 219.5665,-50.099 301.1559,-5.618"
       id="path5971" /></g></svg>
