<?xml version="1.0" encoding="UTF-8" standalone="no"?>
<!-- Created with Inkscape (http://www.inkscape.org/) -->

<svg
   width="2232.988mm"
   height="1263.3105mm"
   viewBox="0 0 2232.988 1263.3107"
   version="1.1"
   id="svg12"
   inkscape:version="1.2.1 (9c6d41e410, 2022-07-14, custom)"
   sodipodi:docname="gradient_absolute.svg"
   xml:space="preserve"
   xmlns:inkscape="http://www.inkscape.org/namespaces/inkscape"
   xmlns:sodipodi="http://sodipodi.sourceforge.net/DTD/sodipodi-0.dtd"
   xmlns="http://www.w3.org/2000/svg"
   xmlns:svg="http://www.w3.org/2000/svg"><sodipodi:namedview
     id="namedview14"
     pagecolor="#505050"
     bordercolor="#eeeeee"
     borderopacity="1"
     inkscape:showpageshadow="0"
     inkscape:pageopacity="0"
     inkscape:pagecheckerboard="0"
     inkscape:deskcolor="#505050"
     inkscape:document-units="mm"
     showgrid="true"
     inkscape:zoom="0.020505009"
     inkscape:cx="-1682.5157"
     inkscape:cy="0"
     inkscape:window-width="1366"
     inkscape:window-height="746"
     inkscape:window-x="0"
     inkscape:window-y="0"
     inkscape:window-maximized="1"
     inkscape:current-layer="layer1"
     inkscape:lockguides="false"><inkscape:grid
       type="xygrid"
       id="grid344"
       color="#969696"
       opacity="0.39215686"
       empcolor="#000000"
       empopacity="0.17254902"
       dotted="false"
       originx="-845.0051"
       originy="-16900.441" /></sodipodi:namedview><defs
     id="defs9" /><g
     inkscape:label="Layer 1"
     inkscape:groupmode="layer"
     id="layer1"
     transform="translate(-950.0051,-17048.927)"><path
       style="fill:none;stroke:#ffffff;stroke-width:10.7;stroke-dasharray:none"
       d="m 1027.4828,17087.777 c 1.1566,43.069 1.9159,86.152 3.47,129.209 9.0045,249.485 -6.9335,488.843 -37.47127,736.554 -9.56818,77.614 -25.08311,338.604 -38.16506,230.329"
       id="path5376" /><path
       style="fill:none;stroke:#ffffff;stroke-width:10.7;stroke-dasharray:none"
       d="m 1546.527,17500.996 c 117.4173,59.913 406.0293,-56.961 505.8595,-3.745 49.3323,26.297 -41.0282,142.536 -45.7981,149.808 -62.6549,95.509 -132.2594,187.415 -197.0706,281.513 -30.7793,44.688 -61.7921,107.027 -99.9223,146.687 -12.1259,12.612 -31.446,-30.61 -63.8403,-100.496 -51.0571,-110.149 -91.2061,-225.447 -130.4544,-340.188 -8.7336,-25.533 -17.4598,-51.072 -25.6751,-76.777 -2.7464,-8.593 -9.2766,-33.744 -3.4692,-26.84 6.7783,8.057 11.1027,17.893 16.6539,26.84"
       id="path5378" /><path
       style="fill:none;stroke:#ffffff;stroke-width:10.7;stroke-dasharray:none"
       d="m 1482.6867,17291.89 c 152.1793,-12.407 301.7091,26.123 455.2045,19.974 26.8507,-1.076 73.882,7.762 78.4117,-18.726 11.7694,-68.822 -316.9285,-185.429 -372.6291,-232.826 -19.0638,-16.222 50.0816,4.714 74.2484,11.236"
       id="path5380" /><path
       style="fill:none;stroke:#ffffff;stroke-width:10.7;stroke-dasharray:none"
       d="m 2656.7805,17782.51 c 94.8008,-286.56 -158.374,-34.355 -128.3726,121.094 23.191,120.163 139.2203,176.425 156.823,238.444 0.9472,3.337 -5.5512,4.161 -8.3267,6.242"
       id="path5382" /><path
       style="fill:none;stroke:#ffffff;stroke-width:10.7;stroke-dasharray:none"
       d="m 2435.424,18002.852 c 16.8849,-20.183 27.8601,-47.401 50.6548,-60.548 61.0076,-35.185 208.7202,-44.318 282.4207,-44.318"
       id="path5384" /><path
       style="fill:none;stroke:#ffffff;stroke-width:10.7;stroke-dasharray:none"
       d="m 3049.5333,17233.215 c 22.6042,-214.284 -0.8559,21.655 12.4899,-147.935 0.2191,-2.784 1.7812,-10.891 2.0815,-8.114 28.7951,266.088 24.7666,537.005 45.1043,803.967 11.1668,146.583 23.2201,289.798 68.697,429.448"
       id="path5386" /></g></svg>
