<?xml version="1.0" encoding="UTF-8" standalone="no"?>
<!-- Created with Inkscape (http://www.inkscape.org/) -->

<svg
   width="3194.3135mm"
   height="1566.4993mm"
   viewBox="0 0 3194.3134 1566.4993"
   version="1.1"
   id="svg12"
   inkscape:version="1.2.1 (9c6d41e410, 2022-07-14, custom)"
   sodipodi:docname="graph_of_sent_data_rates.svg"
   xml:space="preserve"
   xmlns:inkscape="http://www.inkscape.org/namespaces/inkscape"
   xmlns:sodipodi="http://sodipodi.sourceforge.net/DTD/sodipodi-0.dtd"
   xmlns="http://www.w3.org/2000/svg"
   xmlns:svg="http://www.w3.org/2000/svg"><sodipodi:namedview
     id="namedview14"
     pagecolor="#505050"
     bordercolor="#eeeeee"
     borderopacity="1"
     inkscape:showpageshadow="0"
     inkscape:pageopacity="0"
     inkscape:pagecheckerboard="0"
     inkscape:deskcolor="#505050"
     inkscape:document-units="mm"
     showgrid="true"
     inkscape:zoom="0.034886493"
     inkscape:cx="11265.105"
     inkscape:cy="6363.4944"
     inkscape:window-width="1366"
     inkscape:window-height="746"
     inkscape:window-x="0"
     inkscape:window-y="0"
     inkscape:window-maximized="1"
     inkscape:current-layer="layer1"
     inkscape:lockguides="false"><inkscape:grid
       type="xygrid"
       id="grid344"
       color="#969696"
       opacity="0.39215686"
       empcolor="#000000"
       empopacity="0.17254902"
       dotted="false"
       originx="1256.375"
       originy="-11081.151" /></sodipodi:namedview><defs
     id="defs9" /><g
     inkscape:label="Layer 1"
     inkscape:groupmode="layer"
     id="layer1"
     transform="translate(1151.3752,-11229.65)"><path
       style="fill:none;stroke:#ffffff;stroke-width:5.5"
       d="m -1149.8743,12793.845 c 15.7704,-10.272 32.238,-19.547 47.3112,-30.818 42.8846,-32.066 71.0349,-85.809 109.30487,-123.272 32.73602,-32.045 67.48306,-61.645 98.29292,-95.756 64.38402,-71.281 123.10983,-147.427 188.0208,-218.294 36.41762,-39.759 77.87391,-73.862 115.42278,-112.265 71.21348,-72.835 137.99965,-156.881 194.54651,-241.408 36.74356,-54.925 61.89316,-117.496 92.17512,-176.103 11.98414,-23.194 25.64577,-41.855 40.78536,-62.737 0.15203,-0.209 11.24521,-13.967 11.41992,-13.574 14.34846,32.265 0.67376,185.913 -0.81574,218.294 -6.48753,141.032 -9.42898,285.812 -44.86394,423.014 -15.12533,58.564 -26.76181,117.951 -42.00893,176.47 -21.33065,81.867 -5.88055,19.901 -14.27496,48.428 -1.45698,4.951 -8.26097,17.401 -3.67067,15.042 22.9412,-11.792 38.83041,-40.163 61.1781,-53.565 30.27913,-18.158 68.74793,-24.415 99.92439,-42.925 136.302433,-80.922 259.513519,-192.703 372.77876,-302.31 41.33866,-40.003 84.89579,-84.25 120.72493,-129.142 17.72634,-22.21 36.32311,-44.722 56.69182,-64.571 5.25425,-5.12 12.07074,-10.036 16.31413,-16.143 0.24783,-0.357 3.86876,-6.436 4.07836,-5.87 12.63187,34.093 1.76885,103.228 6.93351,142.717 4.72226,36.106 18.58934,70.146 22.83984,106.029 5.01608,42.345 -3.56817,85.073 -8.15694,126.94 -2.09055,19.074 -3.63538,37.887 -6.52571,56.867 -0.99441,6.53 -4.63764,24.885 -0.4078,19.811 2.12534,-2.549 2.25033,-12.802 2.8549,-9.538 1.91831,10.354 -5.03893,28.532 -7.34131,38.889 -0.46638,2.098 -1.6315,8.386 -1.6315,6.237 0,-23.218 17.93409,-27.946 34.66759,-39.99 4.36824,-3.144 -9.08826,19.735 -6.52569,18.711 31.62033,-12.642 126.9428,-111.822 151.72195,-140.149 65.59325,-74.984 135.73686,-145.486 200.66418,-221.229 41.57448,-48.5 78.56387,-98.857 117.05415,-149.687 53.97008,-71.273 112.08679,-138.76 163.5497,-212.058 73.3118,-104.416 137.9722,-214.582 213.7156,-317.352 28.1666,-38.216 59.7462,-75.27 84.4258,-115.934 10.896,-17.953 30.0009,-64.204 32.6285,-64.204 7.6014,0 -0.7385,15.197 -1.6315,22.746 -5.5814,47.195 -2.2518,27.701 -12.6435,87.318 -16.4974,94.646 -45.9675,186.612 -68.5195,279.93 -10.3572,42.857 -14.6153,87.56 -26.9185,129.876 -20.5971,70.842 -61.7931,146.571 -58.7309,222.33 1.3776,34.08 -2.5612,69.155 1.6313,103.093 3.0718,24.868 11.991,49.224 14.6829,74.477 1.4169,13.293 2.3837,35.234 -2.855,48.429 -2.7151,6.838 -1.7275,28.559 1.6313,22.013 35.685,-69.551 174.1361,-110.996 235.3321,-149.321 59.0696,-36.993 116.5437,-77.146 167.6278,-124.74 20.459,-19.06 34.5845,-41.982 53.4292,-62.37 24.3147,-26.305 53.3699,-49.92 79.5314,-74.476 63.119,-59.247 117.021,-131.971 183.5346,-187.109 23.0629,-19.12 45.8769,-28.991 73.0059,-40.724 8.0777,-3.494 14.8511,-7.521 23.2479,-9.906 1.2673,-0.36 4.8725,-0.927 3.6705,-1.468 -22.9557,-10.324 -59.1452,162.042 -63.6251,174.636 -17.8422,50.155 -27.2859,91.585 -20.8007,144.918 1.6684,13.721 1.7854,26.99 3.2628,40.723 0.6019,5.595 -3.1425,21.795 -0.408,16.877 0.9893,-1.78 7.1803,-63.682 17.9459,-37.055"
       id="path2280" /></g></svg>
