<?xml version="1.0" encoding="UTF-8" standalone="no"?>
<!-- Created with Inkscape (http://www.inkscape.org/) -->

<svg
   width="383.36926mm"
   height="405.85144mm"
   viewBox="0 0 383.36925 405.85146"
   version="1.1"
   id="svg12"
   inkscape:version="1.2.1 (9c6d41e410, 2022-07-14, custom)"
   sodipodi:docname="green_area.svg"
   xml:space="preserve"
   xmlns:inkscape="http://www.inkscape.org/namespaces/inkscape"
   xmlns:sodipodi="http://sodipodi.sourceforge.net/DTD/sodipodi-0.dtd"
   xmlns="http://www.w3.org/2000/svg"
   xmlns:svg="http://www.w3.org/2000/svg"><sodipodi:namedview
     id="namedview14"
     pagecolor="#000000"
     bordercolor="#ffffff"
     borderopacity="1"
     inkscape:showpageshadow="0"
     inkscape:pageopacity="0"
     inkscape:pagecheckerboard="0"
     inkscape:deskcolor="#000000"
     inkscape:document-units="mm"
     showgrid="true"
     inkscape:zoom="0.32391637"
     inkscape:cx="744.0192"
     inkscape:cy="722.40869"
     inkscape:window-width="1366"
     inkscape:window-height="746"
     inkscape:window-x="0"
     inkscape:window-y="0"
     inkscape:window-maximized="1"
     inkscape:current-layer="layer1"
     inkscape:lockguides="true"><inkscape:grid
       type="xygrid"
       id="grid344"
       color="#969696"
       opacity="0.39215686"
       empcolor="#ffffff"
       empopacity="0.17254902"
       dotted="false"
       originx="-3692.5298"
       originy="-4340.2832" /></sodipodi:namedview><defs
     id="defs9" /><g
     inkscape:label="Layer 1"
     inkscape:groupmode="layer"
     id="layer1"
     transform="translate(-3797.53,-4488.7831)"><path
       style="fill:none;stroke:#ff9955;stroke-width:3"
       d="m 3810.7726,4535.0474 c 21.5497,12.2955 46.8624,14.9304 71.0296,18.1369 35.1606,4.665 70.7818,4.8021 106.171,5.2158 32.2942,0.3776 64.6579,-0.5576 96.8147,-3.6748 19.9569,-1.9345 39.6156,-4.5039 58.9497,-9.9575 7.8951,-2.2269 39.3657,-9.8812 35.3171,-24.6566 -3.8165,-13.9288 -43.5289,-15.8805 -55.2159,-17.1886 -61.0656,-6.8347 -122.6749,-13.8384 -184.1411,-8.535 -24.3615,2.102 -55.288,6.439 -78.1458,15.45 -5.3625,2.114 -10.6265,5.2448 -15.5061,8.2584 -2.0451,1.263 -3.8948,3.2574 -6.018,4.386 -3.6754,1.9537 -7.4033,1.0048 -11.2892,2.1338 -10.4848,3.0462 -21.2704,5.5907 -30.3534,11.8936"
       id="path1574" /><path
       style="fill:none;stroke:#ff9955;stroke-width:3"
       d="m 3804.1396,4528.172 c 1.6361,6.9907 2.0777,7.7102 2.6795,14.7782 1.9151,22.4907 1.7194,45.2645 2.6796,67.8058 1.1429,26.8322 2.9941,53.6221 4.173,80.4503 1.1505,26.1804 1.1399,52.381 2.416,78.5536"
       id="path1576" /><path
       style="fill:none;stroke:#ff9955;stroke-width:3"
       d="m 4168.732,4513.3148 c 0.571,1.1327 1.479,2.1514 1.7131,3.3982 1.2208,6.5023 -0.6209,16.9064 -1.0103,23.4317 -0.4354,7.2954 -0.9578,14.5874 -1.23,21.8907 -0.9965,26.7395 -1.1782,38.7604 -0.1317,65.2374 1.0452,26.4459 5.0536,52.7742 2.987,79.2649"
       id="path1578" /><path
       style="fill:none;stroke:#ff9955;stroke-width:3"
       d="m 3823.912,4771.8597 c 8.6759,3.4618 11.5257,4.9359 20.0306,7.231 44.1651,11.9186 101.5261,5.7132 146.7155,2.3314 29.2009,-2.1854 58.7578,-3.4203 87.8096,-7.1916 18.2082,-2.3637 46.7276,-5.2235 63.8256,-15.1338 5.6839,-3.2945 11.3525,-10.198 11.0256,-17.1886 -0.2875,-6.1488 -0.8128,-4.1931 -0.7467,-9.1276 0.042,-3.1361 0.4194,-6.4919 0.7467,-9.6019 0.3719,-3.5328 3.868,-11.2017 1.0104,-14.0274 -2.2802,-2.2547 -5.5854,-3.6889 -8.6536,-4.4651 -21.2585,-5.3783 -47.0439,-2.0549 -68.6136,-0.5927 -7.6888,0.5212 -18.0048,1.0339 -25.6094,1.8966 -17.4716,1.9823 -34.6081,6.3204 -51.8775,9.5229 -15.8457,2.9385 -31.8108,5.1355 -47.6166,8.2979 -13.8154,2.7641 -27.5349,5.9874 -41.3791,8.614 -8.0544,1.5282 -16.1186,2.6225 -24.0279,4.8602 -6.1693,1.7454 -15.3198,5.3064 -20.8213,7.073 -5.7958,1.8612 -11.8473,2.7433 -17.6586,4.5441 -5.1374,1.5921 -10.022,3.9049 -14.979,5.9666 -4.6298,1.9256 -9.8041,3.3705 -9.4882,9.4438 0.053,1.029 0.8366,1.9341 0.8785,2.9636 0.063,1.5384 -1.5964,3.435 -0.571,4.5836 3.2972,3.6935 7.9936,5.8631 12.2116,8.456 34.1177,20.9725 82.937,13.7219 120.8426,10.076 26.4759,-2.5466 52.6675,-5.779 78.9803,-9.6414 24.9118,-3.6567 50.5877,-7.0151 74.456,-15.4499 17.1005,-6.0432 30.8821,-16.4587 45.596,-26.3953 5.1631,-3.4867 12.7332,-6.8577 16.78,-12.1308 2.0178,-2.6291 5.7039,-8.6141 3.6459,-12.2493 -1.5408,-2.7217 -6.305,-3.9534 -8.7853,-5.0577 -1.891,-0.842 -7.3619,-3.5154 -9.3125,-3.9119 -27.2787,-5.5454 -54.4636,6.4366 -81.7038,4.1884"
       id="path1580" /><path
       style="fill:none;stroke:#00ff00;stroke-width:3"
       d="m 3910.272,4893.7205 c 3.3549,-4.3655 6.0242,-11.9187 11.5967,-14.0669"
       id="path1582" /><path
       style="fill:none;stroke:#00ff00;stroke-width:3"
       d="m 4000.9369,4785.413 c 0.077,-17.9139 0.1997,-35.8232 0.5711,-53.7389 0.049,-2.3553 1.7611,-13.9898 -1.7132,-15.4104"
       id="path1588" /><path
       style="fill:none;stroke:#00ff00;stroke-width:3"
       d="m 3982.3998,4552.044 c 1.7709,-5.2106 5.1217,-9.3683 8.6097,-13.5138 9.9202,-11.7903 19.5493,-23.0461 26.4439,-36.9455 1.3266,-2.6744 5.9954,-10.1565 5.5348,-11.2219 -0.1347,-0.3114 -0.5857,0.3424 -0.8786,0.5137"
       id="path1590" /><path
       style="fill:none;stroke:#00ff00;stroke-width:3"
       d="m 4028.8744,4491.0345 c 0.053,19.1025 1.8237,38.1745 2.4159,57.2952 0.1404,4.5327 0.3417,9.0636 0.5711,13.5927 0.1836,3.6251 0.4732,1.8158 0.1317,3.5563"
       id="path1592" /><path
       style="fill:none;stroke:#00ff00;stroke-width:3"
       d="m 3989.3402,4553.9406 c 0.9379,14.1018 1.8079,28.2044 2.5478,42.3194 0.9042,17.2494 3.1668,34.456 3.602,51.7237 0.1713,6.7984 -0.5122,13.4542 -0.5711,20.2311 -0.1432,16.495 0.3922,1.1905 0.7029,16.0031 0.1528,7.2878 -1.3594,14.5326 -1.4496,21.8116 -0.1041,8.3967 0.9926,16.6547 1.3178,25.0123 0.2259,5.8062 -0.551,11.5421 -0.3075,17.3466 0.5232,12.4705 5.6225,27.1337 3.4263,39.3164"
       id="path1594" /><path
       style="fill:none;stroke:#00ff00;stroke-width:3"
       d="m 4035.1998,4565.6367 c -1.5902,13.1799 -1.5574,26.498 -1.23,39.751 0.5645,22.8446 0.1618,45.7738 1.3618,68.5961 0.4133,7.8611 1.6121,15.6006 2.3281,23.4317 1.1663,12.7546 1.3651,25.6154 2.9431,38.3285 0.3031,2.4422 3.1118,23.5107 3.9974,23.5107 1.1862,0 0.203,-2.4182 -0.1318,-3.5562"
       id="path1596" /><path
       style="fill:none;stroke:#00ff00;stroke-width:3"
       d="m 4042.0524,4699.9049 c -2.2623,15.5109 -9.6295,30.0865 -16.0333,44.2555 -5.6158,12.4256 -10.6806,23.976 -17.7025,35.6811 -2.9111,4.8527 -6.33,8.0639 -6.9843,7.5471 -0.5845,-0.4616 0.9417,-4.982 1.7571,-7.152 4.5155,-12.0182 12.4966,-21.7648 19.8109,-32.1248 2.337,-3.31 3.877,-5.3826 5.7105,-8.8906 0.2379,-0.4553 0.4765,-1.7328 0,-1.541 -3.8769,1.5601 -7.347,11.6595 -9.0928,15.0943 -5.1577,10.1471 -10.373,20.5501 -16.9997,29.8329 -0.8287,1.1608 -0.1547,-2.9182 0.3075,-4.2674 3.7012,-10.8041 5.7592,-15.6548 10.8499,-25.0123 5.6469,-10.38 10.8297,-18.9328 17.0436,-29.0032 2.395,-3.8814 5.3718,-7.4406 7.2918,-11.5776 1.8892,-4.0706 2.6942,-8.5613 4.0413,-12.842 z"
       id="path1598" /><path
       style="fill:none;stroke:#00ff00;stroke-width:3"
       d="m 4001.0248,4765.4584 c -0.8493,1.4884 -1.6985,2.9767 -2.5478,4.4651 0,0.1317 -0.1,0.4808 0,0.3951 2.6397,-2.2614 4.9296,-11.403 5.6227,-13.2766 4.2039,-11.366 6.2268,-17.4575 11.9041,-28.6871 5.787,-11.4465 10.1923,-17.5286 16.6043,-28.3314 1.8936,-3.1903 4.1973,-6.2039 5.4909,-9.681 3.1019,-8.3373 3.7825,-12.5966 -3.2067,-9.6809"
       id="path1600" /><path
       style="fill:none;stroke:#00ff00;stroke-width:3"
       d="m 4001.7715,4727.7622 c 8.7379,-7.834 -6.5272,8.592 -5.0076,6.3617 18.3233,-26.8925 -10.7039,20.8753 6.5011,-17.5836 12.3023,-27.4996 16.288,-30.4354 27.9814,-49.8666 2.4407,-4.0557 4.9813,-8.064 7.1161,-12.2888 3.4593,-6.8459 3.6927,-10.0269 2.2403,-9.918 -2.0582,0.1543 -3.7191,1.7913 -5.5787,2.687"
       id="path1602" /><path
       style="fill:none;stroke:#00ff00;stroke-width:3"
       d="m 4000.6733,4681.689 c -0.8199,-1.1591 -2.6422,-2.0692 -2.4599,-3.4772 0.5853,-4.5198 10.6429,-22.6034 11.7285,-24.6567 4.0836,-7.7234 12.382,-22.9963 16.0333,-30.7813 0.75,-1.599 6.4224,-12.7424 5.2273,-17.07 -1.2147,-4.3986 -13.574,9.0947 -13.8369,9.3648"
       id="path1604" /><path
       style="fill:none;stroke:#00ff00;stroke-width:3"
       d="m 4002.6501,4636.4061 c 3.4751,-12.4504 -4.8401,10.1974 -3.5142,7.7052 6.2989,-11.8395 11.284,-24.4832 17.0436,-36.5899 1.1054,-2.3234 12.3488,-22.2138 12.4313,-25.9211 0.051,-2.2817 -9.1945,8.5836 -9.576,9.0487"
       id="path1606" /><path
       style="fill:none;stroke:#00ff00;stroke-width:3"
       d="m 4006.2521,4607.4819 c -3.0456,3.9383 -6.0912,7.8765 -9.1368,11.8147 -0.8493,0.619 -2.5992,2.9068 -2.5478,1.8572 0.1267,-2.5831 1.7356,-4.8794 2.8113,-7.2311 3.4512,-7.5451 7.127,-14.9857 10.7621,-22.4439 3.2726,-6.7144 9.0017,-17.5332 12.0799,-24.9727 1.2367,-2.989 2.5508,-5.9797 3.2945,-9.1278 0.2705,-1.1452 0.8472,-3.7433 -0.3075,-3.5167 -2.7864,0.5469 -4.627,3.2928 -6.9404,4.9392"
       id="path1608" /><path
       style="fill:none;stroke:#00ff00;stroke-width:3"
       d="m 3999.9705,4581.0076 c 10.0071,-16.1832 18.092,-34.1104 24.5112,-52.0793 0.3597,-1.007 4.3188,-11.5886 3.7777,-14.383 -0.7087,-3.6596 -6.6074,3.6071 -9.3564,6.1246"
       id="path1610" /><path
       style="fill:none;stroke:#00ff00;stroke-width:3"
       d="m 3995.8414,4551.4908 c -2.2842,3.2269 -4.1679,6.7785 -6.8526,9.6809 -1.1215,1.2125 1.3143,-3.0331 2.0646,-4.5046 3.078,-6.0368 9.242,-17.2989 12.4752,-23.1156 3.5276,-6.3465 16.3587,-25.7333 17.4389,-33.5078 0.079,-0.5662 -1.2372,-0.3957 -1.7131,-0.079 -2.1098,1.4037 -3.8857,3.2599 -5.7105,5.0182 -2.2931,2.2096 -4.422,4.5836 -6.633,6.8754"
       id="path1612" /><path
       style="fill:none;stroke:#00ff00;stroke-width:3"
       d="m 3862.5236,4839.7445 c -2.0228,6.8933 10.3762,25.2712 8.2583,29.2403 -0.1665,0.3119 -0.7029,-0.079 -1.0543,-0.1185"
       id="path1614" /><path
       style="fill:none;stroke:#00ff00;stroke-width:3"
       d="m 3859.4487,4859.3434 c -0.3763,-8.4846 10.3305,-10.7325 16.0772,-14.7782"
       id="path1616" /><path
       style="fill:none;stroke:#00ff00;stroke-width:3"
       d="m 3875.9652,4834.9238 c 5.4409,-2.1806 12.6293,14.2036 11.421,15.2129 -0.4174,0.3486 -3.6293,-8.1616 -2.0207,-8.456 1.5368,-0.2811 6.664,9.2809 8.8293,10.8663 0.73,0.5345 3.4538,-6.855 4.5245,-8.3374 0.04,-0.056 10.4894,-12.1367 5.7983,-11.3405 -8.9908,1.526 -6.1745,26.7839 13.222,16.9119"
       id="path1618" /><path
       style="fill:none;stroke:#00ff00;stroke-width:3"
       d="m 3934.8271,4832.3554 c -3.7402,4.0812 -8.3493,12.5371 -0.571,15.9241 1.0515,0.4579 2.3906,0.1768 3.4262,-0.3161 7.8356,-3.729 6.043,-15.3852 1.4496,-15.1733 -1.5055,0.069 0.2578,3.1349 1.0982,4.386 5.1668,7.6918 15.3668,13.518 14.7594,23.9454 -0.064,1.0976 -0.3032,2.5262 -1.2739,3.0426 -3.1307,1.6655 -5.1522,-5.0128 -6.8965,-8.1003"
       id="path1620" /><path
       style="fill:none;stroke:#00ff00;stroke-width:3"
       d="m 3948.0491,4835.0424 c 4.5389,-22.1474 13.9972,0.4615 18.7128,8.1793 0.086,0.14 0.1454,-0.3107 0.1317,-0.4741 -0.119,-1.4284 -0.3298,-2.8479 -0.5271,-4.2675 -0.1339,-0.9641 -1.3617,-8.5156 -1.3617,-10.1551 0,-0.8128 1.4149,0.8043 2.1524,1.1459 3.365,1.5587 6.4116,2.3793 10.1032,2.4104 6.8456,0.057 5.7061,-9.0043 0.8785,-7.8238 -11.5953,2.8354 0.2431,26.5659 14.3641,14.7782 2.294,-1.915 0.5728,-10.7985 1.6692,-14.8572 0.212,-0.7848 0.9778,-1.6671 0.571,-2.3708 -1.6268,-2.8144 -5.9245,7.4726 -6.0618,8.5349 -1.038,8.0297 9.3984,10.2559 13.3976,4.1885 1.953,-2.9629 -2.7947,-14.0424 -3.9534,-17.2675 -3.0195,-8.4049 10.3674,8.8731 10.9378,9.8389 0.6261,1.0602 1.216,2.1701 1.5374,3.3587 0.094,0.3494 -0.2722,1.3805 -0.3514,1.0273 -1.5718,-7.0106 -1.3642,-16.1518 6.633,-19.5198 4.7773,-2.012 12.4435,16.3643 12.2994,19.0852"
       id="path1622" /><path
       style="fill:none;stroke:#00ff00;stroke-width:3"
       d="m 4077.2378,4804.3401 c -1.5375,0.039 -3.344,-0.7513 -4.6123,0.1185 -3.9156,2.6852 -9.8212,13.9042 -5.4909,18.453 4.9963,5.2485 13.2572,-2.3565 16.2968,-5.4924 0.9619,-0.9924 2.7976,-4.4893 1.5814,-3.8329 -5.4879,2.962 -0.3402,13.5073 3.7338,15.2129 1.0378,0.4344 2.167,-0.6059 3.2505,-0.9088"
       id="path1624" /><path
       style="fill:none;stroke:#00ff00;stroke-width:3"
       d="m 4088.2633,4812.7171 c -0.5271,-1.7387 -1.4896,-3.4014 -1.5813,-5.2159 -0.1817,-3.5968 6.472,3.4801 8.8732,6.1642 3.4223,3.8254 5.2029,7.2283 6.2816,12.1307 0.1644,0.7472 -0.8253,-1.3005 -1.0982,-2.0152 -0.9222,-2.4154 -5.5652,-12.3494 -0.4832,-13.2371 3.7782,-0.66 7.3519,0.9027 11.2013,-0.4347 3.1189,-1.0835 3.9532,-7.3285 -0.044,-6.1641 -10.0325,2.9223 -2.0133,22.9612 12.5191,6.2826 0.059,-2.5684 0.8432,-5.2243 0.1758,-7.7052 -0.775,-2.8809 -5.1173,0.4855 -5.3151,0.7508 -4.7573,6.3822 0.1818,18.2015 8.1704,13.0791 5.3554,-3.434 7.5434,-11.6029 5.3591,-17.4651 -0.2748,-0.7376 -1.5416,-1.7341 -2.0646,-1.1459 -1.2701,1.4281 0.8603,8.8979 1.6253,10.6687 2.6497,6.1341 7.0905,10.5362 11.9481,14.8573"
       id="path1626" /></g></svg>
