<?xml version="1.0" encoding="UTF-8" standalone="no"?>
<!-- Created with Inkscape (http://www.inkscape.org/) -->

<svg
   width="2127.2378mm"
   height="1426.6814mm"
   viewBox="0 0 2127.2377 1426.6814"
   version="1.1"
   id="svg12"
   inkscape:version="1.2.1 (9c6d41e410, 2022-07-14, custom)"
   sodipodi:docname="hessian_matrix_def.svg"
   xml:space="preserve"
   xmlns:inkscape="http://www.inkscape.org/namespaces/inkscape"
   xmlns:sodipodi="http://sodipodi.sourceforge.net/DTD/sodipodi-0.dtd"
   xmlns="http://www.w3.org/2000/svg"
   xmlns:svg="http://www.w3.org/2000/svg"><sodipodi:namedview
     id="namedview14"
     pagecolor="#000000"
     bordercolor="#ffffff"
     borderopacity="1"
     inkscape:showpageshadow="0"
     inkscape:pageopacity="0"
     inkscape:pagecheckerboard="0"
     inkscape:deskcolor="#000000"
     inkscape:document-units="mm"
     showgrid="true"
     inkscape:zoom="0.11452173"
     inkscape:cx="3291.9517"
     inkscape:cy="3746.014"
     inkscape:window-width="1366"
     inkscape:window-height="746"
     inkscape:window-x="1360"
     inkscape:window-y="0"
     inkscape:window-maximized="1"
     inkscape:current-layer="layer1"
     inkscape:lockguides="true"><inkscape:grid
       type="xygrid"
       id="grid344"
       color="#969696"
       opacity="0.39215686"
       empcolor="#ffffff"
       empopacity="0.17254902"
       dotted="false"
       originx="-2436.4327"
       originy="-11221.68" /></sodipodi:namedview><defs
     id="defs9" /><g
     inkscape:label="Layer 1"
     inkscape:groupmode="layer"
     id="layer1"
     transform="translate(-2541.4329,-11370.18)"><path
       style="fill:none;stroke:#ffffff;stroke-width:6.00001"
       d="m 3131.3428,11630.578 c -2.4596,5.812 -60.1824,9.46 -60.4978,10.952 -0.3273,1.55 2.4077,10.71 2.4794,11.512 1.6381,18.273 3.0726,35.317 0.248,53.534 -6.3786,41.139 -21.6149,80.136 -27.0256,121.597 -3.2483,24.891 -0.2384,51.431 1.9838,76.222 1.1687,13.041 0.8099,26.057 1.2393,39.117 0.3048,9.264 2.2492,18.335 2.7276,27.605 1.2925,25.049 1.5856,50.503 0.744,75.551 -0.3072,9.136 -2.1638,18.326 -3.9674,27.27 -0.1358,0.674 -1.4875,1.312 -1.4875,1.677 0,1.142 5.4962,0.862 11.1572,1.005 22.4232,0.57 43.9777,4.391 66.2006,6.259 0.3418,0.03 47.1331,-1.934 28.5134,1.118"
       id="path1719" /><path
       style="fill:none;stroke:#ffffff;stroke-width:6.00001"
       d="m 3201.7585,11683.218 c -14.8797,-1.869 -41.9849,4.602 -35.9519,25.705 1.8458,6.456 23.8363,33.012 2.2318,25.929"
       id="path1721" /><path
       style="fill:none;stroke:#ffffff;stroke-width:6.00001"
       d="m 3136.5495,11720.993 c 25.7953,0.372 57.2741,-8.314 82.8128,0.894"
       id="path1723" /><path
       style="fill:none;stroke:#ffffff;stroke-width:6.00001"
       d="m 3276.3887,11727.587 c -12.1523,-3.887 -32.4162,35.901 -36.1992,36.211 -0.6176,0.05 -1.6568,-8.16 -2.7276,-14.976 18.3383,-20.649 31.6569,15.27 50.0843,6.371"
       id="path1725" /><path
       style="fill:none;stroke:#ffffff;stroke-width:6.00001"
       d="m 3311.3486,11723.564 c -10.5322,15.658 1.0644,43.804 -16.6118,31.852"
       id="path1727" /><path
       style="fill:none;stroke:#ffffff;stroke-width:6.00001"
       d="m 3274.1575,11735.858 c 22.1914,1.111 48.4952,1.837 68.9276,12.07"
       id="path1729" /><path
       style="fill:none;stroke:#ffffff;stroke-width:6.00001"
       d="m 3495.0734,11900.483 c -7.6036,0.224 -15.3651,-0.887 -22.8105,0.671 -10.6465,2.228 -27.7884,17.095 -31.2409,27.382 -3.8304,11.412 -2.7329,17.542 0.9919,27.158 0.994,2.566 4.9197,5.433 3.2232,7.6 -0.6133,0.783 -4.1355,-1.302 -4.2151,-1.341"
       id="path1731" /><path
       style="fill:none;stroke:#ffffff;stroke-width:6.00001"
       d="m 3411.517,11934.124 c 13.6265,0.29 77.0019,-11.092 87.2754,-4.918"
       id="path1733" /><path
       style="fill:none;stroke:#ffffff;stroke-width:6.00001"
       d="m 3551.852,11951.335 c -3.8616,7.343 -41.3359,58.766 -48.5966,57.334 -1.7378,-0.343 -2.314,-2.682 -3.4711,-4.023"
       id="path1735" /><path
       style="fill:none;stroke:#ffffff;stroke-width:6.00001"
       d="m 3492.8419,11961.282 c 17.1519,0.156 41.5423,2.564 51.3239,19"
       id="path1737" /><path
       style="fill:none;stroke:#ffffff;stroke-width:6.00001"
       d="m 3630.9454,11951.67 c -4.7995,11.42 -18.0432,55.487 -36.9435,51.076 -2.7482,-0.642 -4.7934,-2.981 -7.19,-4.471"
       id="path1739" /><path
       style="fill:none;stroke:#ffffff;stroke-width:6.00001"
       d="m 3566.4805,11958.6 c 16.1899,0.966 33.1121,10.238 45.6216,20.34"
       id="path1741" /><path
       style="fill:none;stroke:#ffffff;stroke-width:6.00001"
       d="m 3163.3275,11944.741 c -3.2234,-0.894 -6.4466,-1.788 -9.6697,-2.682"
       id="path1743" /><path
       style="fill:none;stroke:#ffffff;stroke-width:6.00001"
       d="m 3170.0217,11932 c -22.9679,3.038 -39.6706,28.878 -39.6706,51.299 0,6.701 3.9672,13.925 3.9672,20.117 0,0.678 -6.4029,-6.102 -6.4466,-6.147"
       id="path1745" /><path
       style="fill:none;stroke:#ffffff;stroke-width:6.00001"
       d="m 3100.3503,11978.158 c -0.6043,-7.209 78.636,-1.441 60.0017,8.159"
       id="path1747" /><path
       style="fill:none;stroke:#ffffff;stroke-width:6.00001"
       d="m 3210.9321,11993.693 c -0.3461,-0.192 -25.9725,50.617 -30.4967,49.064 -3.3615,-1.155 -4.2976,-5.663 -6.4463,-8.494"
       id="path1749" /><path
       style="fill:none;stroke:#ffffff;stroke-width:6.00001"
       d="m 3160.1041,12003.863 c 13.5842,1.484 28.1519,4.373 39.4226,12.629"
       id="path1751" /><path
       style="fill:none;stroke:#ffffff;stroke-width:6.00001"
       d="m 3265.7276,12003.081 c 3.4711,-0.969 11.3818,0.565 10.4132,-2.906 -0.9686,-3.471 -8.2365,0.03 -10.4132,2.906 -5.2136,6.878 -5.9944,16.23 -9.9179,23.917 -2.3082,4.522 -5.7552,8.366 -8.6781,12.517 -1.4576,2.071 -1.9537,6.487 -4.463,6.147 -3.0602,-0.414 -3.6364,-4.992 -5.4546,-7.488"
       id="path1753" /><path
       style="fill:none;stroke:#ffffff;stroke-width:6.00001"
       d="m 3227.7922,12004.422 c 19.8299,10.604 58.0588,28.803 72.151,46.27"
       id="path1755" /><path
       style="fill:none;stroke:#ffffff;stroke-width:6.00001"
       d="m 3539.207,11672.041 c -5.62,0.895 -11.8113,0.06 -16.86,2.683 -11.4933,5.977 -21.9311,24.263 -16.8601,37.217 4.0032,10.225 8.5384,13.507 16.3642,20.005 2.2183,1.842 9.3229,4.292 6.6945,5.476 -1.6957,0.765 -7.4192,-0.93 -8.6781,-1.229"
       id="path1757" /><path
       style="fill:none;stroke:#ffffff;stroke-width:6.00001"
       d="m 3477.2217,11717.752 c 17.6001,-6.234 52.2084,-14.634 70.4155,-6.705 1.3745,0.598 -0.3308,2.98 -0.4961,4.47"
       id="path1759" /><path
       style="fill:none;stroke:#ffffff;stroke-width:6.00001"
       d="m 3608.1347,11719.317 c -12.4077,18.577 -13.0072,18.606 -22.8106,35.987 -2.0732,3.676 -4.0571,7.405 -5.9507,11.176 -0.6705,1.336 -1.0282,5.453 -1.7354,4.136 -2.4096,-4.486 -2.6448,-9.835 -3.9669,-14.753"
       id="path1761" /><path
       style="fill:none;stroke:#ffffff;stroke-width:6.00001"
       d="m 3560.53,11725.352 c 4.2151,0.633 8.6874,0.318 12.645,1.9 10.1682,4.066 42.1106,22.312 48.3486,32.858"
       id="path1763" /><path
       style="fill:none;stroke:#ffffff;stroke-width:6.00001"
       d="m 3664.4176,11728.705 c 0.2154,6.855 -19.3244,46.46 -22.5629,45.487 -1.1924,-0.358 -1.6528,-1.863 -2.4791,-2.794"
       id="path1765" /><path
       style="fill:none;stroke:#ffffff;stroke-width:6.00001"
       d="m 3617.0609,11736.081 c 8.6196,7.268 28.0792,4.711 34.4636,14.306"
       id="path1767" /><path
       style="fill:none;stroke:#ffffff;stroke-width:6.00001"
       d="m 3648.7972,11648.907 c 36.9892,-5.809 34.6331,-6.908 69.1758,-7.377 4.8228,-0.07 54.4261,-3.944 62.9774,5.142 3.4933,3.711 1.3087,29.846 1.9834,37.104 4.3785,47.106 6.5209,94.033 9.1736,141.268 1.2176,21.678 2.164,44.63 9.4218,65.381 3.1181,8.914 9.3255,15.654 14.3806,23.358 1.4592,2.224 2.6012,4.55 3.9672,6.706 0.3797,0.599 2.4432,-1.275 1.7357,-1.23 -2.5638,0.165 -13.3403,0.829 -14.3807,3.018 -1.1848,2.492 2.6564,13.874 5.2068,16.317"
       id="path1769" /><path
       style="fill:none;stroke:#ffffff;stroke-width:6.00001"
       d="m 3791.3636,11853.208 c 5.2896,8.568 12.0444,16.39 15.8684,25.705 11.5454,28.125 16.4277,83.248 20.3311,115.115 1.6002,13.066 0.6956,9.888 3.2232,20.453 0.403,1.684 2.3894,5.68 0.744,5.141 -6.6262,-2.173 -9.5163,-8.941 -15.8684,-11.512 -22.6618,-9.173 -51.9972,-8.408 -75.6221,-10.282 -11.651,-0.924 -23.3085,-1.763 -34.96,-2.682 -2.3939,-0.189 -9.5713,-0.758 -7.19,-0.447 39.8624,5.201 80.2066,6.054 120.2518,9.388 10.7291,0.893 26.2816,1.691 26.2816,3.353 0,6.824 -13.2199,-7.047 -15.3723,-13.524 -9.8147,-29.53 -12.3764,-61.62 -14.6286,-92.539 -2.0579,-28.249 2.8811,-58.552 -3.2234,-86.28 -5.6906,-25.848 -11.3109,-51.459 -16.116,-77.451 -1.582,-8.556 -4.8488,-17.613 -4.7109,-26.376 0.104,-6.615 10.6828,-49.662 8.6781,-52.975 -1.8492,-3.056 -19.6459,-1.232 -22.5627,-1.341 -29.6439,-1.114 -59.1378,1.015 -88.7632,0.558 -50.3018,-0.775 -40.2285,11.098 -52.0678,-4.023"
       id="path1771" /><path
       style="fill:none;stroke:#ffffff;stroke-width:6.00001"
       d="m 2599.5351,11451.753 c 0.6612,8.866 1.4967,17.722 1.9835,26.599 1.0237,18.67 -1.4456,40.006 4.463,58.117 2.2115,6.779 2.8044,0.327 2.9753,-0.559"
       id="path1773" /><path
       style="fill:none;stroke:#ffffff;stroke-width:6.00001"
       d="m 2609.4527,11498.47 c 8.8181,-3.521 70.272,-7.809 70.6633,-13.412 0.5795,-8.291 -4.364,-15.586 -2.4794,-28.499 0.575,-3.94 1.823,-15.696 2.2315,-11.735 2.1738,21.063 4.4577,39.164 13.6369,59.01 3.3576,7.26 14.5762,31.98 18.8436,19.67"
       id="path1775" /><path
       style="fill:none;stroke:#ffffff;stroke-width:6.00001"
       d="m 2718.0509,11488.635 c 3.8675,-0.305 22.7576,-1.753 24.5465,-2.124 8.559,-1.773 17.2058,-3.606 25.2899,-6.929 4.5122,-1.855 9.0416,-7.409 2.4797,-10.729 -11.2496,-5.692 -52.9865,8.105 -52.3161,19.782 1.6717,29.101 53.7528,14.097 65.9527,10.058"
       id="path1777" /><path
       style="fill:none;stroke:#ffffff;stroke-width:6.00001"
       d="m 2796.6486,11456.447 c -43.0982,-5.538 39.3816,35.964 37.4391,43.923 -1.2774,5.235 -22.9341,15.302 -24.546,12.517 -1.2379,-2.139 -0.4958,-4.918 -0.7437,-7.376"
       id="path1779" /><path
       style="fill:none;stroke:#ffffff;stroke-width:6.00001"
       d="m 2843.2618,11461.476 c 4.6281,3.763 8.795,8.178 13.8848,11.288 12.0211,7.345 30.3517,9.817 36.6954,25.37 3.9317,9.64 -44.0169,25.774 -46.3651,0.895"
       id="path1781" /><path
       style="fill:none;stroke:#ffffff;stroke-width:6.00001"
       d="m 2902.5198,11497.017 c 17.227,0.354 14.9367,-6.929 7.6864,-19.112"
       id="path1783" /><path
       style="fill:none;stroke:#ffffff;stroke-width:6.00001"
       d="m 2896.0735,11455.106 c -2.2276,-31.25 -10.4992,-24.091 7.4382,-31.964"
       id="path1785" /><path
       style="fill:none;stroke:#ffffff;stroke-width:6.00001"
       d="m 2930.2891,11440.13 c -4.3619,6.43 -19.5662,21.546 -4.9588,27.493 16.3007,6.637 35.9487,3.672 50.3322,-6.258 4.3921,-3.033 6.632,-12.09 -0.9917,-12.853 -21.8635,-2.19 2.2157,50.37 16.8601,38.111"
       id="path1787" /><path
       style="fill:none;stroke:#ffffff;stroke-width:6.00001"
       d="m 2993.5142,11437.783 c 16.343,-0.476 28.5335,14.681 39.175,25.37 2.5974,2.608 5.0652,5.376 7.1903,8.382 0.344,0.487 0.2728,2.318 0,1.788 -3.6182,-7.025 -10.4251,-30.399 4.463,-30.399 16.5394,0 35.4822,19.453 48.1007,28.723"
       id="path1789" /><path
       style="fill:none;stroke:#ffffff;stroke-width:6.00001"
       d="m 3143.271,11469.747 c 20.2801,-4.789 23.7699,-24.316 30.4969,-42.023 1.5637,-4.115 2.8218,-8.341 4.2151,-12.517 0.2598,-0.779 0.1342,-2.897 0.7438,-2.347 2.8546,2.573 31.9675,77.589 41.1583,57.781 4.9659,-10.702 3.361,-70.029 12.8931,-70.969 18.1624,-1.791 27.5543,88.023 43.1419,66.945"
       id="path1791" /><path
       style="fill:none;stroke:#ffffff;stroke-width:6.00001"
       d="m 3291.7882,11430.183 c -3.471,1.341 -8.2134,1.022 -10.4134,4.023 -8.9088,12.153 18.6994,22.51 36.9432,8.718 12.0573,-9.115 17.4847,-19.158 10.6617,-19.67 -17.3511,-1.304 -7.5325,31.154 2.4791,34.758 7.235,2.604 15.3726,-0.447 23.0587,-0.671"
       id="path1793" /><path
       style="fill:none;stroke:#ffffff;stroke-width:6.00001"
       d="m 3371.6255,11410.736 c -0.829,10.374 19.4783,35.612 9.6697,46.382 -1.8113,1.988 -5.1239,1.639 -7.6861,2.459"
       id="path1795" /><path
       style="fill:none;stroke:#ffffff;stroke-width:6.00001"
       d="m 3351.5423,11432.418 c 6.1984,-4.247 11.662,-9.845 18.5954,-12.741 7.8952,-3.297 29.9281,-3.359 36.9433,3.688 8.8429,8.883 14.3793,15.999 26.2821,21.906 4.6651,2.315 14.065,7.835 15.3723,2.794 2.6916,-10.381 -14.0018,-26.711 -7.4383,-36.77"
       id="path1797" /><path
       style="fill:none;stroke:#ffffff;stroke-width:6.00001"
       d="m 3472.5378,11423.589 c 2.3789,-8.379 2.848,-16.509 1.7357,-25.035"
       id="path1799" /><path
       style="fill:none;stroke:#ffffff;stroke-width:6.00001"
       d="m 3532.2919,11370.837 c 2.4672,10.998 -13.8325,72.504 -21.8189,71.975 -2.2088,-0.146 -2.9753,-3.278 -4.463,-4.918"
       id="path1801" /><path
       style="fill:none;stroke:#ffffff;stroke-width:6.00001"
       d="m 3492.1252,11399.001 c 24.3604,14.112 103.3661,29.549 118.02,47.164"
       id="path1803" /><path
       style="fill:none;stroke:#ffffff;stroke-width:6.00001"
       d="m 2555.9882,11823.93 c -10.4021,38.501 -10.1089,78.202 -6.1986,117.573"
       id="path1805" /><path
       style="fill:none;stroke:#ffffff;stroke-width:6.00001"
       d="m 2541.6076,11894.228 c 13.0261,-0.76 71.1194,0.407 75.6222,-7.712 0.038,-0.07 -13.1409,-16.389 -13.1409,-24.587 0,-7.483 19.5961,-45.221 22.3148,-42.693 6.7183,6.246 5.2195,36.574 5.7025,41.799 2.0448,22.12 2.1061,28.812 8.4303,49.063 2.6016,8.332 11.3281,35.274 16.3639,23.47"
       id="path1807" /><path
       style="fill:none;stroke:#ffffff;stroke-width:6.00001"
       d="m 2765.4989,11869.193 c 19.4392,2.366 39.2221,-0.401 58.7624,-0.894 5.2054,-0.131 10.4182,-0.458 15.6199,-0.223 1.4523,0.07 5.1314,-0.01 4.2154,1.117 -1.8188,2.241 -5.2896,2.31 -7.9343,3.465"
       id="path1809" /><path
       style="fill:none;stroke:#ffffff;stroke-width:6.00001"
       d="m 2761.2841,11899.928 c 33.8201,-0.43 66.6827,-1.547 99.9204,6.147"
       id="path1811" /><path
       style="fill:none;stroke:#ffffff;stroke-width:6.00001"
       d="m 2598.9852,12402.014 c 14.2631,5.278 73.046,32.337 52.5638,58.787 -13.9155,17.97 -47.2299,9.745 -62.7294,1.118 -16.4692,-9.168 -12.9219,-18.103 4.2149,-25.37 22.6187,-9.593 49.1808,-6.531 72.6472,-3.465 3.7481,0.49 17.3323,4.666 22.5626,4.023 5.5634,-0.684 15.8157,-13.825 8.4299,-18.105 -10.8662,-6.297 -37.1065,8.009 -40.6622,18.999 -5.1372,15.879 42.7823,16.482 46.1168,16.094 9.7997,-1.14 19.009,-5.29 28.5134,-7.935"
       id="path1813" /><path
       style="fill:none;stroke:#ffffff;stroke-width:6.00001"
       d="m 2737.0888,12405.255 c -1.2396,-5.588 -2.8155,-11.112 -3.719,-16.764 -0.2469,-1.544 1.3967,2.832 1.7354,4.358 0.907,4.089 0.6181,8.447 1.9836,12.406 1.3935,4.04 26.4744,56.661 8.1819,53.758 -4.6611,-0.74 -8.4298,-4.247 -12.6449,-6.371"
       id="path1815" /><path
       style="fill:none;stroke:#ffffff;stroke-width:6.00001"
       d="m 2721.4683,12441.131 c -1.8182,-3.8 -6.6691,-7.366 -5.4547,-11.4 1.0589,-3.516 6.5519,-3.593 10.1656,-4.247 20.369,-3.685 44.2092,-3.99 64.7129,-0.447 10.3827,1.794 9.6043,-0.16 10.4137,4.582"
       id="path1817" /><path
       style="fill:none;stroke:#ffffff;stroke-width:6.00001"
       d="m 2863.539,12365.021 c -7.0253,2.496 -15.8107,2.209 -21.0752,7.488 -24.8692,24.938 -18.1451,66.336 4.9589,88.851 21.1402,20.601 52.5531,29.474 79.3416,39.675"
       id="path1819" /><path
       style="fill:none;stroke:#ffffff;stroke-width:6.00001"
       d="m 2951.3102,12386.144 c -20.6136,18.699 1.3714,51.481 -11.4051,71.639"
       id="path1821" /><path
       style="fill:none;stroke:#ffffff;stroke-width:6.00001"
       d="m 2939.1611,12426.602 c 25.6297,-13.66 73.3393,1.093 94.9616,-17.994 8.5619,-7.558 -13.5612,-22.88 -6.1981,-44.258 1.4391,-4.178 3.7973,-7.987 5.9502,-11.847 1.4224,-2.549 5.5848,-9.935 5.207,-7.04 -6.0743,46.546 5.5269,77.672 29.505,117.238 19.3799,31.979 7.6962,9.488 15.3723,24.588"
       id="path1823" /><path
       style="fill:none;stroke:#ffffff;stroke-width:6.00001"
       d="m 3078.2565,12299.752 c 46.1378,36.398 97.7546,96.297 97.4411,158.59 -0.058,11.512 -11.3729,20.302 -19.3395,28.611 -17.9475,18.72 -18.1062,16.092 -36.4472,15.312"
       id="path1825" /><path
       style="fill:none;stroke:#ffffff;stroke-width:6.00001"
       d="m 3304.6272,12342.333 c -6.6943,-1.639 -13.2014,-5.298 -20.0832,-4.917 -8.2249,0.454 -45.2605,18.43 -47.3568,26.934 -3.8264,15.524 88.0092,22.195 99.9205,26.823 1.687,0.656 -1.1158,3.871 -2.7274,4.694"
       id="path1827" /><path
       style="fill:none;stroke:#ffffff;stroke-width:6.00001"
       d="m 3442.9786,12330.486 c -13.4663,-1.48 -12.7675,-3.255 -27.2735,7.377 -30.7134,22.51 -20.551,45.99 16.8603,49.175 16.3816,1.395 43.7388,-2.879 59.01,-10.618 10.7616,-5.453 17.158,-14.576 6.6945,-25.369 -19.1088,-19.712 -88.151,-22.812 -111.0779,-7.153 -5.91,4.036 21.0878,-5.615 24.0503,-7.265"
       id="path1829" /><path
       style="fill:none;stroke:#ffffff;stroke-width:6.00001"
       d="m 3441.7393,12291.928 c -3.1406,2.943 -8.2384,4.691 -9.4218,8.83 -7.0872,24.777 5.1067,68.533 8.4298,93.545 0.2884,2.171 5.8457,34.367 1.9834,41.91"
       id="path1831" /><path
       style="fill:none;stroke:#ffffff;stroke-width:6.00001"
       d="m 3570.1728,12312.94 c 30.6382,-0.03 61.5746,-5.367 92.2343,-2.906 4.2224,0.339 10.9079,-1.172 12.397,2.794 0.6117,1.629 -11.1596,4.928 -21.3225,8.047"
       id="path1833" /><path
       style="fill:none;stroke:#ffffff;stroke-width:6.00001"
       d="m 3575.1316,12345.798 c 36.2021,-4.714 74.8591,-3.38 110.3342,-12.518"
       id="path1835" /><path
       style="fill:none;stroke:#ffffff;stroke-width:6.00001"
       d="m 3667.3661,12263.094 c 17.0299,-11.597 98.5587,-7.494 76.6138,28.052 -17.5675,28.455 -57.8241,44.463 -79.3411,77.675"
       id="path1837" /><path
       style="fill:none;stroke:#ffffff;stroke-width:6.00001"
       d="m 3565.2902,12254.717 c -14.7114,7.525 -30.5936,13.104 -44.1339,22.576 -6.7654,4.732 -12.715,11.495 -15.6202,19.223 -9.1202,24.263 53.5236,27.224 64.2168,30.176 12.8696,3.553 26.0665,6.738 37.9351,12.852 35.1304,18.098 32.8867,44.561 -1.7356,56.664"
       id="path1839" /><path
       style="fill:none;stroke:#ffffff;stroke-width:6.00001"
       d="m 3873.9774,12245.664 c -19.1167,-6.689 -37.0075,-0.237 -52.5634,12.629 -2.8388,2.348 -7.0422,6.287 -5.455,9.612 3.7029,7.756 33.9471,13.059 36.9433,13.858 14.2788,3.809 40.1809,9.221 53.0598,19.447 19.513,15.493 -27.9352,42.37 -40.1669,34.981 -2.3416,-1.414 -1.6529,-5.215 -2.4794,-7.823"
       id="path1841" /><path
       style="fill:none;stroke:#ffffff;stroke-width:6.00001"
       d="m 3919.1026,12288.804 c -1.2395,5.402 -6.8712,11.648 -3.7187,16.206 6.3238,9.143 37.7582,-2.243 52.0676,-8.159 3.4825,-1.44 8.9744,-7.363 5.9508,-9.611 -9.557,-7.109 -16.2883,11.811 -0.9922,20.676"
       id="path1843" /><path
       style="fill:none;stroke:#ffffff;stroke-width:6.00001"
       d="m 3987.7826,12248.011 c -3.3678,-18.601 1.5812,-15.179 18.3478,-6.37 7.1874,3.776 14.3328,7.756 20.827,12.629 6.3796,4.787 12.5066,10.071 17.6038,16.205 34.4717,41.486 -59.817,29.39 -46.8609,3.241 2.4262,-4.896 9.2564,-5.811 13.8845,-8.717"
       id="path1845" /><path
       style="fill:none;stroke:#ffffff;stroke-width:6.00001"
       d="m 4061.9176,12238.064 c 6.5545,-17.533 13.4165,-8.331 25.042,5.253 4.6254,5.405 8.7868,11.277 12.1489,17.547 2.7196,5.071 5.3191,10.486 5.9507,16.205 2.9906,27.086 -51.1606,6.772 -41.1586,-11.176 3.1287,-5.614 10.083,-7.972 15.1244,-11.958"
       id="path1847" /><path
       style="fill:none;stroke:#ffffff;stroke-width:6.00001"
       d="m 4113.4894,12236.164 c 22.0993,3.804 11.2926,-1.164 30.2487,23.135 5.1237,6.568 10.3762,13.049 15.1244,19.894 5.1247,7.387 11.6001,17.68 8.926,18.776 -3.787,1.552 -14.4569,-10.016 -17.8523,-13.076"
       id="path1849" /><path
       style="fill:none;stroke:#ffffff;stroke-width:6.00001"
       d="m 4143.9863,12267.681 c 7.7687,-2.198 15.3606,-5.161 23.3063,-6.594 4.9626,-0.895 10.0939,0.02 15.1244,-0.335 51.389,-3.578 9.3888,-30.413 -16.1166,-16.541 -4.6669,2.538 -9.516,6.659 -10.6611,11.847 -3.489,15.807 74.522,42.122 84.7961,32.858"
       id="path1851" /><path
       style="fill:none;stroke:#ffffff;stroke-width:6.00001"
       d="m 4343.539,12197.437 c -8.2944,23.731 21.0836,71.852 8.6778,89.745"
       id="path1853" /><path
       style="fill:none;stroke:#ffffff;stroke-width:6.00001"
       d="m 4328.1664,12220.907 c -33.2213,-65.28 99.7813,-64.159 84.3008,-9.947 -3.1118,10.897 -27.5426,35.169 -40.6628,27.941 -2.4894,-1.372 -1.6531,-5.439 -2.4794,-8.159"
       id="path1855" /><path
       style="fill:none;stroke:#ffffff;stroke-width:6.00001"
       d="m 4453.3773,12241.918 c 11.4959,5.086 -1.9727,18.421 -7.1903,15.87 -70.3328,-34.379 8.3315,-50.168 24.2986,-19.669 10.3751,19.817 6.7138,21.271 -1.4881,32.187"
       id="path1857" /><path
       style="fill:none;stroke:#ffffff;stroke-width:6.00001"
       d="m 4477.4277,12252.983 c -2.9512,-14.11 -1.2025,-28.47 -3.4711,-42.582"
       id="path1859" /><path
       style="fill:none;stroke:#ffffff;stroke-width:6.00001"
       d="m 4479.6592,12194.084 c 3.1406,-5.178 5.3636,-11.039 9.4218,-15.535 3.1459,-3.485 12.9606,2.881 13.6369,3.577 11.9256,12.265 15.0064,30.28 19.3394,46.046 1.0369,3.773 2.1844,7.515 3.2229,11.288 0.3667,1.331 -0.3767,3.838 0.9922,4.023 0.5599,0.08 10.8397,-36.022 13.1406,-36.658 2.2979,-0.635 3.2628,3.528 4.4627,5.588 2.7032,4.641 4.9524,9.536 7.1906,14.418 3.2729,7.139 8.2642,17.469 11.4056,25.258"
       id="path1861" /><path
       style="fill:none;stroke:#ffffff;stroke-width:6.00001"
       d="m 4566.4388,12204.925 c 0.7438,-4.843 -0.054,-10.195 2.2312,-14.529 0.7671,-1.455 2.6496,1.992 3.7193,3.241 3.9862,4.654 7.7531,9.497 11.4051,14.417 7.7571,10.452 37.4478,50.653 24.5462,63.593 -1.6872,1.692 -4.6281,1.192 -6.9424,1.788"
       id="path1863" /><path
       style="fill:none;stroke:#ffffff;stroke-width:6.00001"
       d="m 4574.125,12254.1 c 28.6813,-19.017 57.9456,-31.448 93.722,-21.234"
       id="path1865" /><path
       style="fill:none;stroke:#ffffff;stroke-width:6.00001"
       d="m 2603.6143,12646.434 c 5.0415,2.534 10.3668,4.568 15.1246,7.6 12.64,8.058 24.7577,23.834 25.7859,39.229 1.1795,17.662 -21.2226,45.587 -41.1584,35.317 -15.2061,-7.834 -10.0415,-22.657 1.7356,-30.511 22.1429,-14.768 53.6524,-6.757 78.1017,-3.8 6.8199,0.824 14.3889,1.713 20.8272,-1.453 7.3753,-3.627 16.591,-14.887 3.4711,-19.112 -7.4351,-2.394 -17.5837,1.768 -23.0587,5.588 -42.7702,29.841 0.7747,56.724 35.9516,45.376 9.6573,-3.116 18.1824,-9.015 27.2738,-13.523"
       id="path1867" /><path
       style="fill:none;stroke:#ffffff;stroke-width:6.00001"
       d="m 2762.5451,12667.446 c -3.1406,-4.322 -4.8622,-10.181 -9.4221,-12.965 -1.7682,-1.079 -3.6972,4.024 -2.4791,5.7 2.7324,3.76 10.681,2.78 11.9012,7.265 2.4821,9.123 -3.3062,18.882 -2.2315,28.275 0.5527,4.832 20.0033,36 2.975,38.558"
       id="path1869" /><path
       style="fill:none;stroke:#ffffff;stroke-width:6.00001"
       d="m 2727.0894,12709.468 c 6.2812,-3.427 12.0076,-8.168 18.8436,-10.282 13.4054,-4.145 62.1033,-12.476 74.3826,-4.359"
       id="path1871" /><path
       style="fill:none;stroke:#ffffff;stroke-width:6.00001"
       d="m 2906.3512,12616.594 c -20.102,1.812 -20.216,-2.181 -29.7529,25.482 -6.5329,18.949 -15.7171,38.628 -13.6369,58.563 4.2989,41.201 24.0032,53.054 54.2991,67.504 10.8648,5.183 9.8779,4.895 16.3642,2.459"
       id="path1873" /><path
       style="fill:none;stroke:#ffffff;stroke-width:6.00001"
       d="m 2936.352,12662.863 c 15.2929,16.915 11.7367,42.286 22.0671,60.911"
       id="path1875" /><path
       style="fill:none;stroke:#ffffff;stroke-width:6.00001"
       d="m 2945.5262,12701.533 c 24.0017,-12.985 43.4909,-11.66 42.15,-42.693 -0.1667,-3.859 -1.1319,-15.389 -3.7193,-18.888 -1.9296,-2.609 -0.8961,6.503 -0.4958,9.724 0.8416,6.775 1.2941,13.678 3.2231,20.228 4.4575,15.135 9.7412,30.055 15.8684,44.594 3.2298,7.663 9.7015,18.469 16.6119,24.699"
       id="path1877" /><path
       style="fill:none;stroke:#ffffff;stroke-width:6.00001"
       d="m 2994.6183,12620.059 c -10.5354,0.805 -0.1402,-15.083 3.4713,-12.63 13.6393,9.265 22.5449,26.937 28.2655,41.241 17.3937,43.491 20.9552,82.036 10.9095,127.52 -3.5181,15.929 -1.4911,12.857 -5.9507,18.888"
       id="path1879" /><path
       style="fill:none;stroke:#ffffff;stroke-width:6.00001"
       d="m 3125.2836,12636.488 c 14.2888,1.612 28.6043,2.979 42.894,4.582 8.437,0.946 16.8933,1.763 25.2902,3.017 7.6369,1.141 21.6148,1.337 21.323,9.053 -0.7681,20.306 -56.6251,56.268 -54.5473,73.316 0.2302,1.888 4.0762,1.21 5.7026,0.224 7.2943,-4.427 13.3889,-10.581 20.0834,-15.871"
       id="path1881" /><path
       style="fill:none;stroke:#ffffff;stroke-width:6.00001"
       d="m 3290.9088,12635.817 c -32.1268,49.747 63.9693,50.15 84.2999,26.823 8.0296,-9.213 -11.9819,-20.295 -14.1324,-21.347 -9.7168,-4.752 -61.5715,-8.264 -70.1675,-5.476 -11.2491,3.648 -27.9382,24.775 1.4877,11.511"
       id="path1883" /><path
       style="fill:none;stroke:#ffffff;stroke-width:6.00001"
       d="m 3325.6208,12597.259 c 1.2171,5.207 -0.4202,-19.131 -6.4466,-17.546 -6.5148,1.712 -7.5366,21.969 -7.6861,28.387 -0.6379,27.372 7.8163,74.251 10.9093,95.78 1.1999,8.351 1.9174,16.793 3.7192,25.035 0.4506,2.061 1.4232,7.018 2.9753,5.588 2.7405,-2.525 1.8182,-7.227 2.727,-10.841"
       id="path1885" /><path
       style="fill:none;stroke:#ffffff;stroke-width:6.00001"
       d="m 3527.1973,12602.959 c 28.9277,0.337 57.6088,-3.559 86.5317,-4.471 5.4848,-0.172 19.6673,-0.378 20.3311,1.118 0.7403,1.669 -2.9776,2.221 -4.7109,2.794 -7.325,2.423 -14.8767,4.098 -22.3149,6.147"
       id="path1887" /><path
       style="fill:none;stroke:#ffffff;stroke-width:6.00001"
       d="m 3527.941,12634.923 c -3.3059,1.9 -13.436,4.23 -9.9176,5.7 10.75,4.491 74.5908,-10.24 89.7549,-13.188 6.8683,-1.336 13.7123,-2.794 20.5793,-4.135 0.5725,-0.112 2.3188,-0.224 1.7354,-0.224 -0.9121,0 -1.8183,0.149 -2.7274,0.224"
       id="path1889" /><path
       style="fill:none;stroke:#ffffff;stroke-width:6.00001"
       d="m 3617.6959,12563.507 c 19.6884,-1.528 67.1637,-10.654 85.044,5.588 2.1235,1.929 1.6383,6.251 0,8.606 -17.0183,24.464 -49.5033,39.051 -73.1428,55.657 -3.919,2.753 -10.1475,4.371 -11.1572,9.053 -0.6659,3.087 6.281,-0.671 9.4216,-1.006"
       id="path1891" /><path
       style="fill:none;stroke:#ffffff;stroke-width:6.00001"
       d="m 3520.9986,12571.889 c -9.5871,3.986 -19.6416,6.995 -28.7612,11.959 -13.2789,7.227 -25.9358,15.612 -38.1831,24.476 -2.7374,1.981 -6.3487,4.445 -6.4466,7.823 -0.4006,13.822 68.0503,40.045 80.3333,47.387 2.2231,1.329 32.412,17.152 26.0337,27.829"
       id="path1893" /><path
       style="fill:none;stroke:#ffffff;stroke-width:6.00001"
       d="m 3801.4207,12522.378 c 12.0499,19.475 10.2241,13.771 17.108,36.882 3.4845,11.697 6.9889,23.409 9.6697,35.317 0.721,3.202 0.9925,6.59 0.4958,9.835 -0.1,0.654 -1.9055,0.546 -1.9833,-0.112 -1.5907,-13.443 1.2489,-56.802 14.3807,-64.599 13.3302,-7.914 12.5669,33.544 14.1324,36.994 2.8572,6.297 32.1649,-44.454 45.1252,-28.276 3.5695,4.456 -1.2507,14.436 -1.983,19.223"
       id="path1895" /><path
       style="fill:none;stroke:#ffffff;stroke-width:6.00001"
       d="m 3928.3673,12542.607 c -17.3556,-7.122 -17.6546,10.419 -7.4388,15.535 12.8447,6.433 33.5571,-0.233 41.4068,-11.735 0.93,-1.363 -6.0524,2.474 -2.232,16.988 4.0094,15.234 11.0812,13.102 23.0587,8.047"
       id="path1897" /><path
       style="fill:none;stroke:#ffffff;stroke-width:6.00001"
       d="m 4013.9071,12521.149 c 1.2395,-5.625 2.4791,-11.251 3.7187,-16.876 0.083,-0.894 0.4257,-3.562 0.2482,-2.682 -1.315,6.521 -3.4843,12.923 -3.9669,19.558 -2.0738,28.512 3.7375,19.859 -3.4719,41.911 -0.834,2.551 -4.6588,7.34 -6.1981,5.141 -4.9567,-7.081 -8.7609,-14.902 -13.1414,-22.352"
       id="path1899" /><path
       style="fill:none;stroke:#ffffff;stroke-width:6.00001"
       d="m 3980.6825,12512.432 c 5.1242,0.186 10.5413,-1.16 15.3723,0.558 8.795,3.129 51.4483,34.171 54.5473,43.252"
       id="path1901" /><path
       style="fill:none;stroke:#ffffff;stroke-width:6.00001"
       d="m 4072.1731,12608.994 c 0.9916,4.284 1.9836,8.568 2.9752,12.853 0.7438,-0.04 2.3993,0.613 2.2315,-0.112 -8.368,-36.146 -12.8638,23.502 12.3971,-49.064 5.3834,-15.464 7.6086,-31.855 11.6533,-47.722 3.4766,-13.639 7.3668,-27.171 10.9095,-40.793 1.7328,-6.662 11.1932,-32.147 5.9503,-40.123"
       id="path1903" /><path
       style="fill:none;stroke:#ffffff;stroke-width:6.00001"
       d="m 4143.5801,12530.313 c 3.1102,-13.598 1.0613,-19.522 17.6038,1.565 3.8577,4.918 5.6039,11.189 7.9346,16.988 1.8098,4.503 3.6814,9.069 4.4628,13.859 0.4812,2.951 0.4439,6.196 -0.7441,8.94 -0.4278,0.989 -2.9882,1.275 -3.2231,0.224 -3.5986,-16.106 5.0686,-43.458 22.5626,-48.058 12.8341,-3.374 15.0693,25.937 15.3726,29.729 0.3328,4.166 -2.4014,8.739 -3.2232,12.629 -0.1148,0.544 0.6403,-0.91 0.9917,-1.341 6.6823,-8.189 13.3654,-19.26 22.8105,-24.476 7.3398,-4.053 13.9427,18.625 19.3394,25.817"
       id="path1905" /><path
       style="fill:none;stroke:#ffffff;stroke-width:6.00001"
       d="m 4270.7741,12564.848 c 10.4084,-11.591 14.4976,-15.364 4.2153,-26.487"
       id="path1907" /><path
       style="fill:none;stroke:#ffffff;stroke-width:6.00001"
       d="m 4262.0963,12511.873 c -14.9757,-1.026 6.6114,-50.11 12.8931,-37.664 7.7666,15.388 12.9374,44.407 26.7774,55.993 12.0886,10.12 6.549,-49.239 22.3147,-30.735 3.2534,3.818 6.2529,7.903 8.6786,12.294 2.8086,5.084 4.6205,10.658 6.9422,15.982 5.3178,12.194 3.3001,6.502 6.1984,15.647"
       id="path1909" /></g></svg>
