<?xml version="1.0" encoding="UTF-8" standalone="no"?>
<!-- Created with Inkscape (http://www.inkscape.org/) -->

<svg
   width="302.48401mm"
   height="121.04074mm"
   viewBox="0 0 302.484 121.04075"
   version="1.1"
   id="svg12"
   inkscape:version="1.2.1 (9c6d41e410, 2022-07-14, custom)"
   sodipodi:docname="hill.svg"
   xmlns:inkscape="http://www.inkscape.org/namespaces/inkscape"
   xmlns:sodipodi="http://sodipodi.sourceforge.net/DTD/sodipodi-0.dtd"
   xmlns="http://www.w3.org/2000/svg"
   xmlns:svg="http://www.w3.org/2000/svg">
  <sodipodi:namedview
     id="namedview14"
     pagecolor="#505050"
     bordercolor="#eeeeee"
     borderopacity="1"
     inkscape:showpageshadow="0"
     inkscape:pageopacity="0"
     inkscape:pagecheckerboard="0"
     inkscape:deskcolor="#505050"
     inkscape:document-units="mm"
     showgrid="true"
     inkscape:zoom="0.61842428"
     inkscape:cx="661.35825"
     inkscape:cy="323.40257"
     inkscape:window-width="1366"
     inkscape:window-height="746"
     inkscape:window-x="0"
     inkscape:window-y="0"
     inkscape:window-maximized="1"
     inkscape:current-layer="layer1"
     inkscape:lockguides="false">
    <inkscape:grid
       type="xygrid"
       id="grid344"
       color="#969696"
       opacity="0.39215686"
       empcolor="#000000"
       empopacity="0.17254902"
       dotted="false"
       originx="56.45613"
       originy="103.29082" />
  </sodipodi:namedview>
  <defs
     id="defs9" />
  <g
     inkscape:label="Layer 1"
     inkscape:groupmode="layer"
     id="layer1"
     transform="translate(-48.54387,-45.209208)">
    <path
       style="fill:none;stroke:#00ffff;stroke-width:0.264999"
       d="m 48.590715,148.43186 c 11.062045,4.18104 22.333645,-1.90899 31.704795,-7.55422 3.48502,-2.09939 7.093537,-4.08635 10.307516,-6.60217 3.215939,-2.51734 5.491541,-5.91235 8.558924,-8.58903 5.21572,-4.55138 10.23762,-8.02 15.09313,-13.08016 2.68396,-2.79708 6.65757,-8.69568 9.68629,-10.92774 1.88064,-1.38596 4.32917,-2.267195 6.4652,-3.14585 10.02702,-4.124616 19.05177,-4.294925 29.6341,-3.04238 6.73484,0.797147 13.55017,2.146504 19.78676,4.90506 5.80442,2.5674 10.93702,6.64677 16.17449,10.16196 9.17163,6.15564 18.26714,12.40724 27.77047,18.04731 2.48321,1.47374 4.93501,3.02925 7.59258,4.18069 5.18586,2.24686 11.1435,3.37711 16.74971,3.80814 2.88838,0.22207 5.79758,0.031 8.67397,0.28975"
       id="path1616" />
    <path
       style="fill:none;stroke:#00ffff;stroke-width:0.264999"
       d="m 222.99013,161.09808 c -1.00111,-1.29445 -10.54827,-1.68559 -11.38888,-1.77989 -9.06543,-1.01698 -17.94126,-1.7817 -26.15993,-6.02268 -4.24112,-2.18848 -8.58916,-6.10472 -11.04375,-10.24474 -3.24582,-5.47456 -3.35306,-12.37967 -4.73963,-18.39915 -0.88725,-3.8518 -2.14528,-10.55967 -4.14141,-14.0529 -0.86689,-1.51707 -2.01524,-2.83492 -2.94499,-4.30485 -1.12639,-1.78083 -1.76632,-3.68123 -3.22111,-5.23621 -1.0111,-1.080744 -2.5124,-1.352932 -3.81928,-1.883387 -2.26933,-0.92111 -4.13215,-2.511715 -6.71829,-2.566355 -6.3129,-2.608083 -1.49914,-0.345778 0,0 3.23474,0.746095 7.14298,0.526967 9.80134,2.918202"
       id="path1618" />
    <path
       style="fill:none;stroke:#00ffff;stroke-width:0.264999"
       d="m 147.72579,93.930308 c 0.19173,0.648489 0.0827,1.482027 0.5752,1.945468 1.29051,1.214443 7.67386,2.157619 9.87036,3.166563 1.10729,0.508624 1.9909,1.307021 3.06005,1.862691 1.14878,0.59705 2.40449,0.90607 3.61223,1.34526 2.72692,0.99162 5.36407,2.33675 8.07574,3.39423 4.37816,1.70735 9.00041,2.56149 13.48259,3.91162 8.11504,2.44444 15.92178,5.93312 23.44499,9.76873 1.77117,0.903 3.59935,1.68998 5.38384,2.56635 2.23404,1.09715 1.02858,0.56823 3.06005,1.49015 0.0144,0.007 1.78794,0.97616 2.11672,0.80717 1.66192,-0.85424 -2.2857,-6.07833 -2.66891,-6.60218 -0.287,-0.39234 -4.46823,-5.26756 -4.46353,-5.27759 0.51745,-1.1055 6.82656,1.47123 7.73063,2.3387 0.57349,0.55027 1.21558,1.25417 1.21942,2.04895 0.0173,3.56898 -9.17237,9.26656 -11.68797,11.114 -0.6804,0.49968 -1.385,0.96722 -2.0477,1.49015 -0.21366,0.16859 -0.79724,0.73687 -0.57519,0.5795 1.21972,-0.86446 1.37281,-1.16198 2.30076,-2.23522"
       id="path1632" />
    <path
       style="fill:none;stroke:#00ffff;stroke-width:0.264999"
       d="m 86.409912,52.268344 c -2.839771,4.17349 1.634635,-2.320134 0.828275,-2.276613 -3.922671,0.211718 -11.367932,15.609847 -2.392821,14.777269 1.486875,-0.13793 3.006554,-0.543866 4.27947,-1.324573 1.010396,-0.619699 1.533848,-1.807491 2.300771,-2.711236 8.775313,4.698397 0.303239,3.623987 0,0 -0.181278,-2.166439 2.191326,-5.883994 4.739621,-5.443167 2.179457,0.377022 4.198812,4.858589 2.001688,5.443167 -0.349841,0.09308 -0.674898,-0.262152 -1.012347,-0.393228"
       id="path1634" />
    <path
       style="fill:none;stroke:#00ffff;stroke-width:0.264999"
       d="m 98.281943,55.04167 c 0.78994,-0.496716 1.542106,-1.920988 2.369817,-1.490149 1.62719,0.846983 1.93904,4.801451 2.00167,6.395206 0.025,0.636416 -0.18387,2.505104 -0.3221,1.883378 -0.4028,-1.811694 1.65481,-7.554142 4.18742,-7.202365 3.73335,0.518559 2.52418,9.368356 2.43883,5.836403"
       id="path1636" />
    <path
       style="fill:none;stroke:#00ffff;stroke-width:0.264999"
       d="m 112.27072,53.282466 c -5.45409,8.059131 0.51861,10.154498 6.99438,6.271026 0.59537,-4.307755 0.5905,-2.541891 0.46015,-5.277591 m 0,0 c -0.79612,0.16104 1.64848,-6.395151 3.56622,-5.112028 2.86442,1.916531 6.77009,5.9259 6.83333,9.623851 0.005,0.320627 -0.37956,2.950183 -1.61056,2.669847 -3.87768,-0.883071 -3.66089,-3.565692 -0.11502,-4.905064 1.23389,-0.466077 6.73715,0.826258 7.0864,-1.117608 0.36663,-2.040619 -3.8049,-2.750613 -3.29012,-1.221088 0.44162,1.312137 1.23323,2.513384 2.13974,3.55979 0.66361,0.766023 3.58621,2.244351 4.4175,0.765769 0.97515,-1.734451 -0.84209,-4.563933 -0.48317,-6.436602 0.055,-0.287171 0.4037,0.425462 0.57519,0.66229 0.38763,0.535309 3.23161,4.649443 2.20877,4.884363 -1.33335,0.306235 -1.69046,-2.619006 -1.24243,-3.911629 0.80452,-2.321146 5.72077,-3.439563 7.66161,-2.504272"
       id="path1638" />
    <path
       style="fill:none;stroke:#00ffff;stroke-width:0.264999"
       d="m 167.46652,49.474316 c 0.22241,-0.613993 1.28123,-1.619569 0.66724,-1.841981 -0.614,-0.222413 -0.78826,1.200257 -0.66724,1.841981 0.19712,1.045264 1.02768,1.862685 1.54152,2.794028 0.1994,1.131404 0.40202,2.262246 0.5982,3.394214 0.17453,1.007054 -0.0127,3.446659 0.87431,2.938902"
       id="path1640" />
    <path
       style="fill:none;stroke:#00ffff;stroke-width:0.264999"
       d="m 175.42723,56.821562 c -0.16105,0.75887 -0.0296,1.647249 -0.48316,2.276612 -2.32239,3.222497 -4.47409,-2.598835 -2.50786,-5.546653 2.13555,-3.201689 6.90235,-1.01583 6.90235,2.400793 -0.18406,-1.131407 -0.86858,-2.292473 -0.55218,-3.394221 1.12797,-3.927705 4.08298,-0.103544 4.30245,1.303879 0.0874,0.560251 -0.95606,6.20326 -2.85297,4.242774 -0.54052,-0.558635 -0.5982,-1.434955 -0.8973,-2.152432"
       id="path1642" />
    <path
       style="fill:none;stroke:#00ffff;stroke-width:0.264999"
       d="m 184.60735,46.473331 c 0.58287,-0.23456 1.12819,-0.802894 1.7486,-0.703679 1.18481,0.189473 0.19349,10.138357 0.25309,11.17609 0.0231,0.401569 0.001,2.972915 1.03535,2.918201"
       id="path1644" />
    <path
       style="fill:none;stroke:#00ffff;stroke-width:0.264999"
       d="m 189.7381,54.048235 c -7.68707,2.504037 2.96456,2.919736 5.17676,3.145861 0.35279,-1.676413 0.6486,-3.365834 1.05836,-5.029238 0.1892,-0.768045 0.51416,-1.496726 0.73626,-2.255911 0.38537,-1.317313 0.30718,-3.713441 1.17341,-0.952039 0.8914,2.841642 0.96233,2.899983 1.40347,5.836402 0.11208,0.746097 -0.2346,1.62826 0.18407,2.255911 0.0632,0.09475 0.75072,-1.591986 0.78226,-1.655711 0.35713,-0.721505 0.85221,-1.817276 1.61054,-2.297307 0.75806,-0.479851 1.39123,2.13141 1.47251,2.255911 0.31409,0.48107 0.78226,0.841655 1.17339,1.262483"
       id="path1646" />
    <path
       style="fill:none;stroke:#00ffff;stroke-width:0.264999"
       d="m 206.62587,52.475308 c -3.55731,0.220568 -2.76325,4.236055 0,4.346254 1.95964,0.07815 7.02892,-2.612513 5.0387,-5.236203 -1.61552,-2.129727 -3.21271,0.732492 -1.19641,3.55979 1.36914,1.919839 6.05665,4.72695 4.76263,8.299278 -0.72795,2.009639 -8.89316,4.941583 -9.6633,2.56636 -0.1952,-0.602008 0.30677,-1.227986 0.46016,-1.84198"
       id="path1648" />
    <path
       style="fill:none;stroke:#00ffff;stroke-width:0.264999"
       d="m 240.53942,50.322876 c -2.19113,-3.053533 -7.55297,4.187004 -5.56791,4.822273 2.00017,0.640108 4.87782,-1.386453 5.77498,-2.566361 0.45706,-0.6011 -0.10312,-3.003854 -0.20707,-2.255912 -0.31027,2.232414 1.77131,9.322324 5.17676,8.195799 0.73724,-0.243879 1.11971,-1.076219 1.67956,-1.614329"
       id="path1650" />
    <path
       style="fill:none;stroke:#00ffff;stroke-width:0.264999"
       d="m 247.94792,51.336999 c -0.002,-0.188007 -1.30314,-4.403595 -0.6442,-1.924766 0.45272,1.703076 4.33674,8.030984 1.93264,9.458282 -1.62898,0.967118 -7.2609,-2.415199 -5.38381,-3.828845 1.61536,-1.216537 12.10708,-2.017035 11.29683,-0.455325"
       id="path1652" />
    <path
       style="fill:none;stroke:#00ffff;stroke-width:0.264999"
       d="m 271.23188,51.399089 c -1.06628,-1.514978 -6.47719,2.469212 -4.71663,3.973719 2.30469,1.969506 6.93967,-0.480512 8.76599,-1.945467 0.35735,-0.286646 1.41258,-1.621328 0.20708,-1.986856 -0.47929,-0.145329 -0.9947,0.149745 -1.49552,0.144874 -2.81247,-0.02735 -5.76609,-1.443777 -0.50617,3.932324 2.30291,2.353782 5.21488,3.74916 8.05274,5.236209"
       id="path1654" />
    <path
       style="fill:none;stroke:#00ffff;stroke-width:0.264999"
       d="m 296.37944,47.528856 c 0.40647,-0.71058 1.93,-1.725264 1.21942,-2.131738 -0.71058,-0.406474 -1.10219,1.321552 -1.21942,2.131738 -0.20986,1.450337 0.24042,2.92264 0.27609,4.387648 0.0334,1.372651 -0.0365,2.745921 -0.069,4.118594 -0.0137,0.581135 -0.14794,3.650454 -0.092,3.68397 0.24553,0.14723 0.20056,-0.539369 0.34514,-0.78647 0.97508,-1.666531 1.74837,-4.774833 3.65824,-4.491128 3.12579,0.464325 3.21443,8.357888 2.00169,6.64356"
       id="path1656" />
    <path
       style="fill:none;stroke:#00ffff;stroke-width:0.264999"
       d="m 303.58089,57.959871 c 1.04324,-3.813696 1.98197,-8.088199 4.62458,-11.196791 0.30583,-0.359757 0.0896,0.940612 0.16104,1.407364 0.0426,0.278482 2.54887,11.048525 2.25477,8.402764"
       id="path1658" />
    <path
       style="fill:none;stroke:#00ffff;stroke-width:0.264999"
       d="m 311.15046,48.460194 c 0.30678,-0.917544 0.29096,-2.017854 0.92033,-2.752632 0.68496,-0.79969 1.98644,1.05675 2.43882,2.007557 1.26283,2.654209 2.89155,7.211751 1.84062,10.120572"
       id="path1660" />
    <path
       style="fill:none;stroke:#00ffff;stroke-width:0.264999"
       d="m 91.333588,83.457904 c 2.803065,-1.721485 5.036312,-4.232029 6.557222,-7.160969 1.92819,-3.713268 1.715352,-7.206721 -3.359142,-3.828851 -1.46009,0.971917 0.901451,1.806337 1.909651,2.152438 2.266204,0.77796 16.030991,2.488779 7.523561,6.995401 -1.29036,0.68354 -2.64755,1.294781 -4.072381,1.614315 -0.385823,0.08653 -8.212585,0.506325 -8.558911,0.227666 -2.557867,-2.058093 1.059193,-5.283253 1.909638,-6.333109"
       id="path1662" />
    <path
       style="fill:none;stroke:#00ffff;stroke-width:0.264999"
       d="m 122.90033,78.821902 c -1.50727,-2.014908 -5.76553,3.017001 -3.40515,3.828838 2.86098,0.984012 5.91137,-0.868924 7.96071,-2.669842 0.32373,-0.284496 0.90778,-1.385615 0.52917,-1.179689 -1.64497,0.894712 -2.99885,7.653469 -0.34511,7.036786 0.68221,-0.158533 1.11972,-0.841655 1.67958,-1.262483"
       id="path1664" />
    <path
       style="fill:none;stroke:#00ffff;stroke-width:0.264999"
       d="m 131.16015,75.841603 c 0.83595,0.903748 1.53585,1.955737 2.50785,2.711244 2.24215,1.742765 5.4129,1.068326 1.21942,4.615307 -0.47252,0.399674 -0.92632,0.967449 -1.54152,1.034817 -2.04944,0.224433 -0.69687,-2.297607 -0.32212,-3.725352"
       id="path1666" />
    <path
       style="fill:none;stroke:#00ffff;stroke-width:0.264999"
       d="m 137.05016,72.737138 c 3.22918,0.548963 1.7822,7.294589 4.16442,8.630423 0.31358,0.175845 0.56752,-0.441526 0.85128,-0.662289"
       id="path1668" />
    <path
       style="fill:none;stroke:#00ffff;stroke-width:0.264999"
       d="m 143.99852,75.676035 c -1.0482,0.990047 -2.76789,1.831284 -2.6459,3.559797 0.24103,3.414852 6.10501,0.520409 6.67228,-1.593636 0.35884,-1.337265 -1.02265,-8.232439 1.4725,-8.423458 1.20717,-0.09242 2.13133,4.465929 2.41582,5.318993 0.6213,1.862942 0.16138,1.420715 0.85129,-0.124179 0.98382,-2.203064 1.95621,-1.937081 2.73793,0.186264 0.51606,1.401767 0.47473,4.591841 1.84064,3.166562"
       id="path1670" />
    <path
       style="fill:none;stroke:#00ffff;stroke-width:0.264999"
       d="m 159.73588,73.047585 c -0.15234,0.759947 -1.52029,3.340264 0.73626,3.104475 2.74877,-0.287218 4.15346,-1.310857 5.65993,-3.559794 0.70349,-1.050219 -1.66081,-1.112875 -2.07071,-0.786471 -2.17361,1.730859 4.67535,6.229312 4.44051,8.858088 -0.27903,3.123459 -5.7201,3.388043 -7.66162,2.255912 -0.75405,-0.439703 -1.22708,-1.241785 -1.84062,-1.862678"
       id="path1672" />
    <path
       style="fill:none;stroke:#00ffff;stroke-width:0.264999"
       d="m 188.31163,70.853763 c -0.80528,0.137975 -1.71736,-0.0099 -2.41584,0.413922 -1.61527,0.980125 -2.60433,3.903094 0.16106,4.097906 1.62067,0.114171 4.01114,-1.256088 5.10775,-2.069647 0.0259,-0.01924 2.02489,-1.675678 1.79461,-2.545668 -0.18007,-0.680299 -1.29163,0.8166 -1.49551,1.490142 -0.59766,1.974342 -0.4174,4.12338 0.75926,5.877806 1.87388,2.793984 1.72614,2.666806 2.6919,1.593619"
       id="path1674" />
    <path
       style="fill:none;stroke:#00ffff;stroke-width:0.264999"
       d="m 195.78918,70.419137 c 0.70557,0.800264 1.57261,1.48308 2.11671,2.400795 0.45844,0.773213 0.63896,1.687613 0.82828,2.566352 1.48142,6.876259 -2.09106,3.635185 0.98934,-1.510842 0.38542,-0.643863 0.90414,-1.319747 1.61054,-1.572927 0.44911,-0.160964 1.00468,0.172662 1.33445,0.517417 3.48227,3.640391 -0.0903,12.29995 -2.76092,6.271024 -0.45332,-1.023382 -0.12271,-2.235215 -0.18407,-3.352823"
       id="path1676" />
    <path
       style="fill:none;stroke:#00ffff;stroke-width:0.264999"
       d="m 205.54448,75.427676 c 4.63137,0.334864 0.12789,3.744428 -0.41413,2.835423 -0.48917,-0.820399 0.50473,-1.884564 0.41413,-2.835423 -0.0984,-1.033103 -1.2068,-1.950059 -0.96631,-2.959592 0.6176,-2.592576 5.5987,2.313061 4.37149,4.987848 -0.57155,1.245748 -0.68151,-5.084583 0.71322,-5.277596 1.29681,-0.179462 3.27405,10.510636 6.28116,3.621878 0.30095,-0.689424 0.39817,-1.453073 0.52918,-2.193827 0.2706,-1.530035 0.28256,-3.055945 0.41413,-4.594614 0.99464,1.695289 4.38272,6.59489 3.84231,9.10645 -0.0526,0.244528 -0.49084,0.09658 -0.73625,0.144875"
       id="path1678" />
    <path
       style="fill:none;stroke:#00ffff;stroke-width:0.264999"
       d="m 217.09442,76.23484 c -0.55985,-0.613995 -1.56519,-1.018974 -1.67956,-1.841981 -0.066,-0.474938 0.8849,-0.394761 1.35746,-0.476028 2.37394,-0.40825 4.97649,-0.39016 7.36249,-0.476012"
       id="path1680" />
    <path
       style="fill:none;stroke:#00ffff;stroke-width:0.264999"
       d="m 244.22066,63.920446 c -0.71324,0.151775 -1.45239,0.211761 -2.13972,0.455326 -10.28771,3.645581 7.22645,4.329201 7.61558,7.285147 0.38085,2.893036 -7.74895,6.470534 -8.60492,2.711244 -0.15503,-0.680871 0.092,-1.39356 0.13803,-2.090343"
       id="path1682" />
    <path
       style="fill:none;stroke:#00ffff;stroke-width:0.264999"
       d="m 248.93727,63.899752 c 1.83741,2.399677 3.08351,5.144359 4.30247,7.88535 0.31444,-1.062419 0.40176,-2.22066 0.94333,-3.187257 4.00306,-7.144673 7.2424,3.501997 3.22109,4.760183"
       id="path1684" />
    <path
       style="fill:none;stroke:#00ffff;stroke-width:0.264999"
       d="m 261.03939,65.969399 c 2.84356,1.989468 2.92073,1.16945 3.06005,5.029239 0.0373,1.033669 -0.12062,2.074087 -0.34511,3.083774 -0.41515,1.867239 -1.77755,3.043301 -2.53087,0.289751 -0.79461,-2.904495 -1.46992,-14.126573 5.0157,-10.079176 6.33555,3.953744 -3.12261,12.506641 -2.18573,6.271025"
       id="path1686" />
    <path
       style="fill:none;stroke:#00ffff;stroke-width:0.264999"
       d="m 268.37891,68.22531 c 1.5785,0.191887 2.50389,0.470398 3.98034,0.206965 4.17939,-0.745696 4.32005,-4.369639 -0.18407,-1.221086 -5.77887,4.03965 3.61105,5.308854 6.32717,4.698092"
       id="path1688" />
    <path
       style="fill:none;stroke:#00ffff;stroke-width:0.264999"
       d="m 279.05453,75.634646 c -0.0696,2.307402 -1.12217,3.773802 -2.43884,5.484556"
       id="path1690" />
    <path
       style="fill:none;stroke:#00ffff;stroke-width:0.264999"
       d="m 235.82282,89.749624 c -1.53732,2.815178 -2.58783,5.861159 -4.00338,8.733909 -0.2688,0.545521 -0.58891,1.826297 -1.08136,1.469454 -0.27003,-0.195668 -0.2761,-0.6071 -0.41416,-0.910648"
       id="path1692" />
    <path
       style="fill:none;stroke:#00ffff;stroke-width:0.264999"
       d="m 227.21787,92.998978 c 2.38631,-0.696151 5.50996,-0.847667 7.63861,0.641582"
       id="path1694" />
    <path
       style="fill:none;stroke:#00ffff;stroke-width:0.264999"
       d="m 239.27398,97.303841 c -0.65956,-0.855456 -1.68667,-1.526389 -1.97868,-2.566368 -0.15142,-0.539264 0.45316,-1.05478 0.85131,-1.448748 2.05948,-2.03785 5.57776,3.20393 3.42816,4.0772 -0.71079,0.288756 -1.53386,-0.04139 -2.30079,-0.06208 z"
       id="path1696" />
    <path
       style="fill:none;stroke:#00ffff;stroke-width:0.264999"
       d="m 243.27733,91.88137 c 0.5522,1.214191 1.15706,2.405779 1.65658,3.642574 0.44758,1.108181 0.73153,3.446132 1.86363,3.063076 1.05124,-0.355695 4.22156,-7.835977 3.58923,-8.878784"
       id="path1698" />
    <path
       style="fill:none;stroke:#00ffff;stroke-width:0.264999"
       d="m 270.19653,95.254889 c -0.71707,-1.47407 0.86125,-7.907882 3.63523,-6.477997 2.87086,1.47982 2.96204,8.977727 1.77158,6.91262"
       id="path1700" />
    <path
       style="fill:none;stroke:#00ffff;stroke-width:0.264999"
       d="m 275.7184,92.295297 c 1.53501,-0.0537 2.89431,1.30978 4.44051,1.345263 1.84162,0.04226 4.14214,-0.341159 5.01572,-2.235218 0.5277,-1.144125 -0.30482,-1.731923 -1.4035,-1.552231 -5.20324,0.851011 -4.92068,5.3004 2.46186,3.394212 1.1737,-0.303053 6.1031,-3.624918 5.3378,-4.739486 -0.86892,-1.265486 -6.33862,3.967051 -3.91133,5.463873 0.91045,0.561443 2.02387,1.039172 3.08305,0.889942 3.03843,-0.428088 4.94673,-1.464987 5.75195,-4.201377 0.35702,-1.213263 -0.1362,-3.09808 -0.48316,-4.201379 -0.10388,-0.330322 -0.77823,-1.068184 -0.46014,-0.931344 0.46659,0.200729 0.64046,0.789807 0.98931,1.158996 1.34661,1.425099 2.78603,2.762703 4.0954,4.222086 0.88375,0.984996 2.43286,2.15609 2.0247,3.414909 -0.68011,2.097547 -4.13566,2.387263 -5.84398,1.841981 -1.18925,-0.379598 -2.41009,-1.311825 -1.01234,-2.711228 1.01299,-1.01419 2.42349,-1.531543 3.63523,-2.297313"
       id="path1702" />
    <path
       style="fill:none;stroke:#00ffff;stroke-width:0.264999"
       d="m 316.8334,88.052518 c -2.15607,-2.999533 -5.90583,3.329879 -3.52021,4.698098 2.20123,1.262467 9.28967,-0.685022 7.5926,-3.787447 -1.49812,-2.738744 -2.60667,0.417867 -1.84062,2.00755 1.56967,3.257343 4.56059,4.679873 6.74128,7.367939"
       id="path1704" />
    <path
       style="fill:none;stroke:#00ffff;stroke-width:0.264999"
       d="m 259.47486,111.74997 c 0.97656,2.6325 2.57382,9.23602 5.24578,10.80354 0.78971,0.4633 1.21156,-1.49349 1.33448,-2.40078 0.35935,-2.65259 -0.0187,-5.32166 -0.16107,-7.96814 -0.0114,-0.21133 0.13353,0.40175 0.20708,0.6002"
       id="path1706" />
    <path
       style="fill:none;stroke:#00ffff;stroke-width:0.264999"
       d="m 259.93502,105.91357 c 0.80527,0.32424 1.59691,0.68464 2.41582,0.97273 1.17561,0.41358 6.37929,2.56223 5.5449,-0.70369 -0.44261,-1.73242 -2.07561,-3.06938 -2.43885,-4.73949 -0.53259,-2.448766 2.89171,-0.61138 3.4512,-0.20695"
       id="path1708" />
    <path
       style="fill:none;stroke:#00ffff;stroke-width:0.264999"
       d="m 284.46138,110.86002 c 1.69064,2.64143 2.48593,5.72668 3.08305,8.77529 0.12125,0.61903 0.44175,1.9624 -0.18407,1.88339 -0.36578,-0.0462 -0.64422,-0.35874 -0.96633,-0.53811"
       id="path1710" />
    <path
       style="fill:none;stroke:#00ffff;stroke-width:0.264999"
       d="m 282.8048,116.86199 c 2.51598,-2.22415 5.65057,-2.92401 8.90405,-2.33871"
       id="path1712" />
    <path
       style="fill:none;stroke:#00ffff;stroke-width:0.264999"
       d="m 294.37775,117.9589 c -0.63655,0.24146 -1.36819,1.13707 -1.90964,0.72437 -0.85289,-0.65007 -1.25692,-1.96018 -1.1044,-3.02167 1.04044,-7.24109 8.5419,-0.74089 6.4422,0.93133 -0.96223,0.76633 -2.28544,0.91065 -3.42816,1.36597 z"
       id="path1714" />
    <path
       style="fill:none;stroke:#00ffff;stroke-width:0.264999"
       d="m 315.86706,107.21744 c 1.34958,2.79047 1.1245,5.60399 0.85131,8.56834 -0.0696,0.75567 -0.74116,2.43957 0,2.27661 0.3683,-0.081 0.56752,-0.49672 0.85128,-0.74507"
       id="path1722" />
    <path
       style="fill:none;stroke:#00ffff;stroke-width:0.264999"
       d="m 321.02082,111.79136 c -10.49813,1.63757 0.44935,7.86028 1.79461,4.53252"
       id="path1724" />
    <path
       style="fill:none;stroke:#00ffff;stroke-width:0.264999"
       d="m 324.70208,107.56927 c 0.41413,0.97274 0.94168,1.90466 1.2424,2.91821 0.46086,1.5531 0.0716,4.18818 0.82828,5.62944 0.003,0.005 4.07398,-6.58768 4.46355,-4.1186 0.23611,1.49644 -0.16058,3.01437 0.069,4.51183"
       id="path1726" />
    <path
       style="fill:none;stroke:#00ffff;stroke-width:0.264999"
       d="m 334.54945,116.38597 c -4.14539,2.63671 -1.01222,-2.87056 -0.32213,-3.55979 1.03476,-1.03347 3.11655,0.14197 2.36982,1.42806 -0.49472,0.85209 -1.36512,1.42116 -2.04769,2.13173 z"
       id="path1728" />
    <path
       style="fill:none;stroke:#00ffff;stroke-width:0.264999"
       d="m 339.45011,110.83932 c 0.61355,-0.0345 1.31493,-0.42169 1.84063,-0.10348 0.48776,0.29523 0.40921,1.06436 0.62119,1.59363 1.6328,4.07655 1.0745,-1.11383 2.2778,-1.42806 0.26654,-0.0696 1.21666,4.45632 1.65655,4.86366 0.58775,0.54427 0.63111,-1.4795 0.82831,-2.25591 0.57229,-2.25349 1.20367,-4.50856 2.20874,-6.60216"
       id="path1730" />
    <path
       style="fill:none;stroke:#00ffff;stroke-width:0.264999"
       d="m 271.76106,131.72205 c 0.582,1.36455 0.51016,-3.56655 1.61054,-3.14587 1.29756,0.49606 3.03165,6.55125 3.38215,7.78187 0.17335,0.60866 0.25881,1.24201 0.46016,1.84199 0.0474,0.14133 0.19166,0.4747 0.27609,0.35184 0.2294,-0.33381 1.4878,-6.08227 2.13973,-5.48456 0.985,0.90309 1.65791,5.85922 3.12906,5.8364 1.94978,-0.0302 2.32725,-6.97391 2.82996,-8.58903 0.0658,-0.21129 1.24013,-2.27779 1.61055,-2.04895 2.34867,1.45092 3.62837,4.89759 4.60157,7.28516 0.68931,1.69111 1.46577,5.39638 0.66724,2.93889 -0.12409,-0.38189 -0.90083,-5.8958 -0.18407,-5.2569 1.4574,1.29908 3.89069,6.89869 6.69528,4.55322 0.59375,-0.49654 1.80943,-3.49705 2.0477,-4.0565 0.18994,-0.44597 0.98141,-1.12004 0.55218,-1.34527 -1.09051,-0.57223 -1.65763,4.25008 -0.11502,6.16754 1.11973,1.39182 2.93007,1.17921 4.00335,-0.0621 1.1783,-1.36276 0.0473,-3.83175 0.59819,-3.80815 0.52248,0.0224 0.89044,0.5512 1.35748,0.78647 1.80098,0.90722 3.39569,1.28989 5.3148,0.53811 0.23492,-0.092 4.62801,-2.25353 4.00338,-2.69054 -2.16538,-1.51495 -5.78167,3.39321 -5.15376,5.29829 0.78463,2.38056 9.11002,0.32368 9.89336,-0.68298"
       id="path1732" />
    <path
       style="fill:none;stroke:#00ffff;stroke-width:0.264999"
       d="m 337.19533,128.96941 c -1.77342,-1.47492 4.18582,12.79328 2.59991,10.92774"
       id="path1734" />
    <path
       style="fill:none;stroke:#00ffff;stroke-width:0.264999"
       d="m 334.64147,135.15766 c 0.75925,-0.5864 1.39353,-1.3871 2.27777,-1.7592 0.9266,-0.38992 11.28969,-1.18468 9.70931,1.84198 -1.11786,2.14087 -6.93737,-0.0128 -3.91133,-4.94644 1.52556,-2.4873 7.86577,-0.53516 8.16779,2.50427 0.21704,2.18423 -3.09425,4.68747 -5.13075,4.22207 -1.67111,-0.3819 -2.24232,-1.95842 -2.945,-3.20795"
       id="path1736" />
    <path
       style="fill:none;stroke:#00ffff;stroke-width:0.264999"
       d="m 288.44172,153.5982 c 0.99701,-0.0828 2.09196,-0.68714 2.99103,-0.24835 1.98954,0.97099 2.13797,6.64573 1.77161,8.44415 -0.9822,4.82156 -3.24922,-9.40724 0.52918,-7.11958 2.1991,1.33146 2.02617,3.73851 2.991,5.69153 0.0643,0.13007 -0.014,-0.29435 0.023,-0.43463 0.32431,-1.22896 0.40846,-2.57096 1.05836,-3.66327 0.90415,-1.51961 2.03985,-0.59354 2.78396,0.10348 0.44677,0.4185 4.47799,5.04359 1.28844,3.70467 0.8743,-0.64159 1.62054,-1.51086 2.62289,-1.92477 0.57632,-0.23799 6.19024,-0.92351 7.08643,-2.19383 0.81772,-1.15908 -1.79177,-1.38646 -3.06004,-0.60019 -1.49629,0.92762 -2.66804,5.14473 0.43715,4.53253 0.7076,-0.13951 1.28843,-0.64849 1.93265,-0.97274"
       id="path1738" />
    <path
       style="fill:none;stroke:#00ffff;stroke-width:0.264999"
       d="m 313.42825,155.33671 c -0.22203,2.10027 0.86274,7.05207 3.65824,3.87024 0.84252,-0.95896 0.94576,-2.06899 1.47251,-3.14587 0.20006,-0.40901 -0.0182,0.91101 0,1.36597 0.0485,1.21276 -0.0161,2.42157 1.03535,3.18726"
       id="path1740" />
    <path
       style="fill:none;stroke:#00ffff;stroke-width:0.264999"
       d="m 321.96415,154.01213 c -3.70203,3.83333 4.98737,5.43935 3.33613,9.18923 -0.3224,0.73218 -3.09158,4.82217 -4.02637,1.84199 -0.40041,-1.27652 -0.26075,-2.66295 -0.39112,-3.99442"
       id="path1742" />
    <path
       style="fill:none;stroke:#00ffff;stroke-width:0.264999"
       d="m 323.09152,156.41293 c 4.29389,-5.5788 0.1458,5.06745 4.99273,4.61531 3.21397,-0.29982 3.48655,-3.33279 3.10605,-5.77432 -0.11483,-0.73676 -0.27533,-1.46594 -0.43715,-2.19382 -0.11763,-0.52898 -0.2554,-2.04395 -0.48318,-1.55224 -0.79721,1.72091 4.3507,6.66865 4.4405,8.52695 0.0331,0.68403 -0.77795,-1.1492 -0.98933,-1.8006 -0.17777,-0.54789 -1.21679,-3.78099 0.20707,-4.0979 0.60878,-0.13549 8.54395,1.33938 7.96073,-0.20696 -1.02534,-2.71852 -5.96326,0.0884 -4.85466,2.75263 1.50882,3.62606 5.92172,4.19176 8.99607,2.25592 0.57148,-0.35985 0.79762,-1.09002 1.19642,-1.63503"
       id="path1744" />
  </g>
</svg>
