<?xml version="1.0" encoding="UTF-8" standalone="no"?>
<!-- Created with Inkscape (http://www.inkscape.org/) -->

<svg
   width="114.77208mm"
   height="83.844704mm"
   viewBox="0 0 114.77208 83.844705"
   version="1.1"
   id="svg12"
   inkscape:version="1.2.1 (9c6d41e410, 2022-07-14, custom)"
   sodipodi:docname="huffman_idea.svg"
   xml:space="preserve"
   xmlns:inkscape="http://www.inkscape.org/namespaces/inkscape"
   xmlns:sodipodi="http://sodipodi.sourceforge.net/DTD/sodipodi-0.dtd"
   xmlns="http://www.w3.org/2000/svg"
   xmlns:svg="http://www.w3.org/2000/svg"><sodipodi:namedview
     id="namedview14"
     pagecolor="#000000"
     bordercolor="#ffffff"
     borderopacity="1"
     inkscape:showpageshadow="0"
     inkscape:pageopacity="0"
     inkscape:pagecheckerboard="0"
     inkscape:deskcolor="#000000"
     inkscape:document-units="mm"
     showgrid="true"
     inkscape:zoom="2.1357159"
     inkscape:cx="341.80576"
     inkscape:cy="291.70547"
     inkscape:window-width="1366"
     inkscape:window-height="746"
     inkscape:window-x="0"
     inkscape:window-y="0"
     inkscape:window-maximized="1"
     inkscape:current-layer="layer1"
     inkscape:lockguides="true" /><defs
     id="defs9"><rect
       x="587.26367"
       y="362.45731"
       width="66.575974"
       height="20.973427"
       id="rect1884" /></defs><g
     inkscape:label="Layer 1"
     inkscape:groupmode="layer"
     id="layer1"
     transform="translate(-34.587638,-122.73484)"><path
       style="fill:none;stroke:#ff7f2a;stroke-width:0.410001"
       d="m 48.221571,125.70103 c 0.433044,-0.12385 0.856298,-0.28932 1.299133,-0.37156 0.987624,-0.18343 1.998708,-0.20334 2.997997,-0.30564 2.705549,-0.27697 5.411128,-0.38945 8.127907,-0.49142 5.701474,-0.21399 11.399636,-0.41029 17.101915,-0.5933 6.173324,-0.19813 12.338394,-0.59993 18.514303,-0.72514 2.605956,-0.0528 5.208834,-0.0187 7.814784,-0.012 1.61701,0.004 3.34247,0.0872 4.9367,-0.20376 -0.34975,1.07477 -0.35776,0.84877 -0.37324,2.09988 -0.047,3.80192 0.32107,7.6327 0.51965,11.42851 0.20392,3.89796 0.29407,7.801 0.51299,11.6982 0.17804,3.16931 0.44243,6.34222 0.52632,9.51677 0.0675,2.55635 0.0547,5.13869 0.3531,7.68293 0.0251,0.21373 0.13235,0.91173 0.17321,1.12069 0.0625,0.31974 0.0237,0.12242 -0.22651,0.024 -8.33283,-0.13627 -16.648726,-0.89829 -24.97666,-1.24057 -3.760337,-0.15455 -7.528966,-0.21449 -11.29246,-0.24571 -4.218512,-0.035 -8.558446,-0.4522 -12.731498,0.34759 -2.005031,0.38428 -3.872777,1.20315 -5.769481,1.92972 -1.662036,0.63668 -3.349718,1.2058 -5.029975,1.79188 -0.150101,0.0524 -1.399168,0.51303 -1.492337,0.46146 -0.06359,-0.0352 0.252266,-0.34924 0.293138,-0.43748"
       id="path364" /><path
       style="fill:none;stroke:#ff7f2a;stroke-width:0.410001"
       d="m 49.946924,167.64189 c 0.173953,-7.56171 0.51952,-15.138 1.092605,-22.68324 0.336442,-4.42959 0.673862,-8.88076 0.51299,-13.32827 -0.07699,-2.12848 -0.544473,-4.51918 -1.912056,-6.23265 -0.171313,-0.21463 -0.256728,-0.38337 -0.306462,-0.66521 -0.01577,-0.0893 0.01434,-0.30448 -0.06663,-0.26369 -0.395671,0.19932 0.194726,0.75561 0.253328,0.86064"
       id="path429" /><path
       style="fill:none;stroke:#ff7f2a;stroke-width:0.410001"
       d="m 55.503214,128.07657 c -0.04387,0.44157 -0.988195,3.32058 -0.186542,3.1403"
       id="path431" /><path
       style="fill:none;stroke:#ff7f2a;stroke-width:0.410001"
       d="m 55.316672,131.21687 c -1.118455,-1.66532 2.643907,-1.6274 2.418384,-2.15146 -0.180872,-0.42031 -0.404886,-0.57459 -0.386408,-1.07873 0.0053,-0.14464 0.07684,-0.56991 0.08661,-0.4255 0.07257,1.07246 0.0082,2.17098 0.266491,3.2242 0.02392,0.0975 0.175614,0.80982 0.419719,0.85099 0.06892,0.0116 0.01333,-0.13937 0.01333,-0.20927"
       id="path433" /><path
       style="fill:none;stroke:#ff7f2a;stroke-width:0.410001"
       d="m 59.014206,129.42498 c 2.19148,1.22042 2.454208,-1.4204 1.192532,-1.59412 -1.218062,-0.1677 -1.486892,1.78746 -0.832776,2.51104 0.378825,0.41905 3.090791,0.0845 3.457694,-0.39553 0.04388,-0.0574 -0.135339,0.0514 -0.199869,0.0839"
       id="path435" /><path
       style="fill:none;stroke:#ff7f2a;stroke-width:0.410001"
       d="m 64.090814,127.15366 c 0.04907,1.02627 -0.03607,2.06076 0.126584,3.08037 0.03139,0.19678 0.08665,0.83897 0.406395,0.62326"
       id="path437" /><path
       style="fill:none;stroke:#ff7f2a;stroke-width:0.410001"
       d="m 65.176754,127.53122 c -0.09562,1.0398 1.045969,2.54845 1.045969,3.45192"
       id="path439" /><path
       style="fill:none;stroke:#ff7f2a;stroke-width:0.410001"
       d="m 68.807662,130.70747 c -2.151721,-0.13432 -0.777978,-4.46931 0.819455,-3.07437 0.217043,0.18953 0.407945,0.44007 0.479679,0.71915 0.112477,0.43759 0.125494,0.90839 0.0533,1.3544 -0.02773,0.1713 -0.647155,1.75636 -1.352434,1.00082 -0.547036,-0.58602 -0.519652,-1.33494 -0.519652,-2.0316"
       id="path441" /><path
       style="fill:none;stroke:#ff7f2a;stroke-width:0.410001"
       d="m 74.137439,127.76494 c 0.707438,0.75298 0.33481,2.63842 1.079281,3.3081 0.540872,0.48653 0.959329,-2.63487 1.019318,-2.8826 0.03981,-0.1644 0.08948,0.32639 0.126579,0.49142 0.0427,0.1899 0.312679,1.67108 0.652902,1.60011 0.258236,-0.0539 0.491434,-3.17386 0.512987,-3.57778 0.01214,-0.22745 -0.0743,-0.46373 -0.01333,-0.68319 0.03695,-0.13298 0.03863,0.27392 0.07329,0.40752"
       id="path443" /><path
       style="fill:none;stroke:#ff7f2a;stroke-width:0.410001"
       d="m 80.066813,129.10136 c -0.199869,0.0919 -0.414359,0.39432 -0.599602,0.27568 -0.56234,-0.36017 -0.11073,-3.32605 0.512993,-2.90058 0.446656,0.30469 0.825365,1.25235 0.726181,1.73795 -0.07295,0.35713 -0.32004,1.06234 -0.639572,0.88695 -0.330174,-0.18122 0.164335,-0.73513 0.246501,-1.10269"
       id="path445" /><path
       style="fill:none;stroke:#ff7f2a;stroke-width:0.410001"
       d="m 81.312648,126.74614 c 0.279813,0.47944 0.603137,0.936 0.839439,1.43831 0.42841,0.91067 0.159287,1.539 0.02665,0.97085 -0.100608,-0.43095 -0.183462,-3.833 0.852763,-2.81068"
       id="path447" /><path
       style="fill:none;stroke:#ff7f2a;stroke-width:0.410001"
       d="m 83.644424,125.38575 c 0.317495,1.07755 0.576135,2.18025 0.979344,3.23019"
       id="path449" /><path
       style="fill:none;stroke:#ff7f2a;stroke-width:0.410001"
       d="m 85.34329,124.97224 c 0.21763,0.13184 0.479692,0.20912 0.652893,0.39553 0.640443,0.68927 1.625352,3.06878 1.352431,4.00328 -0.128706,0.44069 -0.45879,0.6866 -0.879409,0.43149 -0.468108,-0.28392 -0.952719,-1.77865 -0.226515,-2.05558 0.118997,-0.0454 0.253164,0.028 0.379746,0.0419"
       id="path451" /><path
       style="fill:none;stroke:#ff7f2a;stroke-width:0.410001"
       d="m 89.880259,125.39174 c -0.195715,1.34051 -0.153078,2.72221 -0.01998,4.0692"
       id="path453" /><path
       style="fill:none;stroke:#ff7f2a;stroke-width:0.410001"
       d="m 90.666405,133.17056 c -0.07773,0.23972 -0.143841,0.48352 -0.233178,0.71915 -0.370472,0.97717 -0.487905,-0.74932 0.233178,-0.71915 0.03577,0.002 -0.386866,1.94653 -0.59294,1.702 -0.153217,-0.18182 -0.363614,-1.86718 -0.09327,-1.87579 1.200404,-0.0382 0.578628,0.52621 0.2998,1.40234 -0.03193,0.10034 -0.03583,0.21613 -0.09994,0.29965 -0.02127,0.0277 -0.08285,-0.0146 -0.09327,-0.0479 -0.182409,-0.58394 -0.148,-0.96948 -0.126585,-1.59412 0.0075,-0.21754 -0.08034,-0.78691 0.08661,-0.64724 0.250913,0.2099 0.294132,0.79424 0.619586,0.7611 0.278698,-0.0284 -0.224087,-0.52014 -0.266494,-0.79706 -0.01955,-0.12763 0.05774,-0.2517 0.08661,-0.37755"
       id="path455" /><path
       style="fill:none;stroke:#ff7f2a;stroke-width:0.410001"
       d="m 54.956913,127.8848 c 0.12193,-0.32388 0.252875,-0.65056 0.306459,-0.99483 0.0149,-0.0957 0.04094,-0.38446 0.03997,-0.28766 -0.0024,0.22976 0.0466,0.46737 -0.01331,0.68919 -0.05915,0.21896 -0.330985,0.3665 -0.33311,0.5933 -0.0049,0.52387 0.243197,1.02097 0.313126,1.54018 0.153874,1.14252 0.04992,2.32052 0.279811,3.45792 0.0048,0.0239 0.01312,-0.0475 0.01333,-0.0719 0.0021,-0.25371 -0.0052,-0.5074 -0.0067,-0.7611 -0.0085,-1.52418 0.02072,-3.04865 -0.0067,-4.57261 -7.94e-4,-0.0481 0.05674,-1.36059 -0.273151,-0.76709"
       id="path457" /><path
       style="fill:none;stroke:#ff7f2a;stroke-width:0.410001"
       d="m 57.720039,134.37018 c 0.30535,0.69198 -0.07686,2.94484 0.319788,3.24217"
       id="path459" /><path
       style="fill:none;stroke:#ff7f2a;stroke-width:0.410001"
       d="m 57.480202,140.80059 c 0.186542,0.20177 0.483983,0.34112 0.559625,0.60529 0.193556,0.67596 -0.370599,2.04471 -0.632912,2.64887 -0.10372,0.23889 -0.343675,0.88058 -0.446368,0.64124 -0.366943,-0.8552 1.021974,-2.28607 1.65223,-2.7927 0.227367,-0.18277 0.769784,-0.47836 0.759492,-0.51539 -0.09825,-0.35352 -0.793234,-0.45641 -0.972685,-0.49142 -0.302422,-0.059 -0.612923,-0.0639 -0.919382,-0.0959 z"
       id="path461" /><path
       style="fill:none;stroke:#ff7f2a;stroke-width:0.410001"
       d="m 58.492857,140.18332 c -0.297579,0.26169 -0.653399,0.46924 -0.892738,0.78507 -1.548284,2.04317 0.933714,2.32457 1.752166,3.5598 0.351329,0.53024 -0.345424,1.06939 -0.792806,1.16862 -0.898416,0.19928 -0.861049,-1.00776 -0.792805,-1.69599 0.102822,-1.03699 0.823576,-2.10166 1.365755,-2.96651 0.03452,-0.055 0.671968,-0.91711 0.632913,-1.1806 -0.05495,-0.37075 -0.898999,-0.001 -1.872083,0.28167 -0.375568,0.10915 -0.75283,0.27398 -0.75283,0.25769 0,-0.0803 0.128802,-0.0959 0.193201,-0.14383"
       id="path463" /><path
       style="fill:none;stroke:#ff7f2a;stroke-width:0.410001"
       d="m 61.610773,133.26748 c 0.124363,0.23572 0.282097,0.45666 0.373087,0.70717 0.342725,0.94356 0.511035,1.94163 0.766156,2.91256 0.216805,0.82511 0.477981,1.50193 0.319784,1.28848"
       id="path465" /><path
       style="fill:none;stroke:#ff7f2a;stroke-width:0.410001"
       d="m 63.962538,139.93761 c -0.15545,0.34559 -0.340521,0.67934 -0.466354,1.03678 -0.183108,0.52014 -0.246235,0.93435 -0.03331,1.45628 0.210285,0.51546 1.731795,1.57026 1.252495,2.08554 -0.676103,0.72686 -1.384536,0.18928 -1.332442,-0.73713 0.02971,-0.52836 0.582541,-1.26419 0.839438,-1.62409 0.424411,-0.59456 1.92608,-1.83866 0.433047,-2.31926 -0.222213,-0.0715 -0.461915,0.0679 -0.692874,0.10188 z"
       id="path467" /><path
       style="fill:none;stroke:#ff7f2a;stroke-width:0.410001"
       d="m 65.508171,133.23752 c 0.403309,1.31565 0.898437,2.58634 1.612257,3.76356"
       id="path469" /><path
       style="fill:none;stroke:#ff7f2a;stroke-width:0.410001"
       d="m 68.366266,138.63115 c -0.277093,0.81652 -1.30868,2.00446 -0.619588,2.8826 0.162758,0.20741 1.26011,0.91988 1.285809,1.04277 0.131286,0.62778 -1.322589,1.16985 -1.43904,0.63525 -0.295206,-1.35522 2.140744,-3.13497 1.798799,-3.89541 -0.167159,-0.37173 -0.672978,-0.46145 -1.02598,-0.66521 z"
       id="path471" /><path
       style="fill:none;stroke:#ff7f2a;stroke-width:0.410001"
       d="m 68.299641,133.0817 c 0.76512,1.14973 2.20989,2.43188 2.145234,3.94335"
       id="path473" /><path
       style="fill:none;stroke:#ff7f2a;stroke-width:0.410001"
       d="m 73.063131,138.27158 c -0.312751,0.48684 -1.267259,1.25724 -0.779484,1.92373 0.378928,0.51776 1.184849,0.51314 1.565622,1.03677 0.672536,0.92486 -1.925463,2.25077 -1.905392,1.73795 0.0513,-1.31076 1.978059,-3.30486 2.538307,-4.38682 0.05827,-0.11254 0.220567,-0.79418 -0.239845,-0.72515 -0.411933,0.0618 -0.765522,0.36488 -1.179208,0.41352 -1.704769,0.20043 -0.662819,-0.34464 -1.079283,-0.11986"
       id="path475" /><path
       style="fill:none;stroke:#ff7f2a;stroke-width:0.410001"
       d="m 72.656731,133.32741 c -0.184399,1.16976 0.542335,2.19463 1.145907,3.1343"
       id="path477" /><path
       style="fill:none;stroke:#ff7f2a;stroke-width:0.410001"
       d="m 75.728014,137.36664 c 0.0053,1.08529 -0.853011,1.49956 0.126585,2.43313 0.331268,0.31571 1.241528,0.61666 1.512321,0.99483 0.656471,0.91675 -0.559528,2.12662 -1.439037,2.21139 -0.535998,0.0517 -0.326475,-0.64466 -0.273153,-0.86298 0.332615,-1.36189 1.416126,-2.36392 1.932043,-3.63771 0.349051,-0.86179 0.02564,-1.27906 -0.872752,-1.23454 -0.329814,0.0164 -0.680003,-0.0282 -0.986007,0.0959 -1.552951,0.6299 -1.100193,0.62819 -0.686208,0.65923"
       id="path479" /><path
       style="fill:none;stroke:#ff7f2a;stroke-width:0.410001"
       d="m 55.768009,144.40833 c 0.203713,1.31363 0.503621,3.98634 1.898735,4.62655 2.360882,1.08339 3.721798,-0.0673 5.782802,-1.07274 1.851847,-0.90337 3.751392,-1.83212 5.802791,-2.17543 0.907952,-0.15195 1.766416,-0.0517 2.524979,0.49741 0.41311,0.29906 1.430896,1.52879 1.945368,1.40235 0.770969,-0.18948 1.31123,-0.68638 1.938708,-1.14465 1.078799,-0.7879 2.136883,-1.64987 3.37108,-2.19341 0.408736,-0.18001 0.826331,-0.39915 1.272484,-0.41951 2.86352,-0.1307 2.945427,2.00431 5.256496,2.42714 2.220433,0.40624 4.082534,-1.30949 5.596257,-2.65487 1.599639,-1.42174 3.091702,-2.91218 4.297135,-4.68048"
       id="path481" /><path
       style="fill:none;stroke:#ff7f2a;stroke-width:0.410001"
       d="m 68.233019,151.16237 c -0.514077,0.36535 -1.761884,1.93386 -1.512321,2.60092 0.114093,0.30497 0.682532,-0.034 0.952696,-0.21574 0.582718,-0.39201 2.037749,-1.58927 2.178544,-2.34923 0.0038,-0.0205 -0.03959,0.0223 -0.04664,0.042 -0.05608,0.15674 -0.111342,0.31542 -0.139909,0.47943 -0.04722,0.27111 -0.119346,0.54779 -0.08661,0.82103 0.05875,0.4903 0.506743,2.10438 1.012655,1.33642"
       id="path483" /><path
       style="fill:none;stroke:#ff7f2a;stroke-width:0.410001"
       d="m 71.104436,150.8807 c 0.211474,0.17039 0.722659,3.63684 1.039305,1.51621"
       id="path485" /><path
       style="fill:none;stroke:#ff7f2a;stroke-width:0.410001"
       d="m 72.303639,150.01772 c -0.01688,1.65317 0.505896,3.10603 1.259152,4.53664"
       id="path487" /><path
       style="fill:none;stroke:#ff7f2a;stroke-width:0.410001"
       d="m 77.266989,150.53311 c -0.706175,-0.36207 -1.570378,0.67191 -1.072615,1.28248 0.735208,0.90184 2.199645,1.19105 2.671545,2.34324 0.160171,0.39107 -0.362018,1.59011 -0.90606,0.9349 -0.85756,-1.0328 0.525552,-3.27383 1.105929,-4.1531 0.177999,-0.26968 0.598123,-0.56828 0.45303,-0.85699 -0.242109,-0.48177 -2.230434,0.44305 -2.251829,0.44947 z"
       id="path489" /><path
       style="fill:none;stroke:#ff7f2a;stroke-width:0.410001"
       d="m 83.5428,149.62818 c 0.164333,0.53936 0.321501,1.08096 0.492998,1.61809 0.132779,0.41585 0.287904,0.82437 0.419725,1.24053 0.09919,0.31317 0.195831,0.62762 0.273153,0.94688 0.05831,0.24077 0.09549,0.48631 0.133239,0.73114 0.0046,0.0297 -0.0098,0.11978 -0.0067,0.0899 0.0663,-0.62617 0.357518,-3.07776 1.09927,-3.25416 0.376684,-0.0896 0.474644,0.67983 0.45969,1.06674 -0.0063,0.16387 -0.155433,2.46462 -0.746168,2.91256 -0.64988,0.4928 -0.253862,-1.07345 -0.173215,-1.4383 0.06484,-0.29334 0.173215,-0.57533 0.259824,-0.86299"
       id="path491" /><path
       style="fill:none;stroke:#ff7f2a;stroke-width:0.410001"
       d="m 88.706019,150.50314 c 0.202086,-0.0499 0.412647,-0.22628 0.606261,-0.14982 0.114853,0.0454 -0.02093,0.24842 -0.05996,0.36557 -0.192514,0.57781 -0.428519,1.14026 -0.632907,1.71397 -0.164285,0.46116 -0.324827,0.92379 -0.473022,1.39037 -0.111967,0.35251 -0.05996,0.50601 -0.113255,0.44347 -0.11747,-0.13783 -0.17766,-0.31563 -0.266491,-0.47344"
       id="path493" /><path
       style="fill:none;stroke:#ff7f2a;stroke-width:0.410001"
       d="m 86.960513,151.41407 c 1.038482,-0.21115 1.316487,0.63299 2.145236,0.92291"
       id="path495" /><path
       style="fill:none;stroke:#ff7f2a;stroke-width:0.410001"
       d="m 90.198357,149.73605 c 0.509352,0.70684 1.348708,2.29351 1.159221,3.18824"
       id="path497" /><path
       style="fill:none;stroke:#ff7f2a;stroke-width:0.410001"
       d="m 90.558111,151.98939 c -0.112943,-1.24208 0.987327,-1.346 1.898737,-1.5282 0.421941,0.0719 0.837818,0.21144 1.265822,0.21575 0.218492,0.002 1.311353,-0.51464 0.759492,-0.88695 -0.289637,-0.19541 -0.593882,0.0959 -0.766153,0.28766 -0.927035,1.03177 -0.04749,2.6435 1.272483,2.64887 0.416571,0.002 0.716029,-0.21906 1.045969,-0.41351"
       id="path499" /><path
       style="fill:none;stroke:#ff7f2a;stroke-width:0.410001"
       d="m 96.780629,150.65297 c -0.07551,-0.40952 -0.0087,-0.87365 -0.226515,-1.22855 -0.132101,-0.21522 -1.039797,-0.6148 -0.879417,0.006 0.322593,1.24867 3.639746,2.00863 2.804792,3.48189 -0.566591,0.99973 -4.01266,2.2528 -3.35776,0.13184"
       id="path501" /><path
       style="fill:none;stroke:#ff7f2a;stroke-width:0.410001"
       d="m 35.040239,176.02263 c -0.533223,-0.0428 5.29e-4,-0.70121 -0.199867,-0.95887 -0.01595,-0.0205 -0.0053,0.0525 0,0.0779 0.06144,0.29478 0.16178,0.58226 0.199867,0.88096 0.04981,0.3906 0.19119,3.00792 0.8994,3.03242 0.540819,0.0187 0.765154,-1.19555 0.959358,-1.53419 0.278271,-0.48523 0.392637,1.08849 0.739508,0.71316 0.415994,-0.45013 0.850109,-1.61265 0.652897,-2.21139"
       id="path503" /><path
       style="fill:none;stroke:#ff7f2a;stroke-width:0.410001"
       d="m 38.657823,174.97986 c 0.0067,-0.17779 0.197779,-0.52671 0.01998,-0.53337 -0.177789,-0.007 -0.09244,0.37087 -0.01998,0.53337 0.25676,0.57581 0.729364,1.03931 0.979347,1.61809 0.171342,0.3967 0.15607,1.0384 0.253164,1.50422 0.1958,0.93937 0.160015,-2.40656 0.886074,-1.63007 0.61119,0.65364 0.329734,1.67095 0.786143,2.35522 0.01982,0.0297 0.04442,-0.0559 0.06662,-0.0839"
       id="path505" /><path
       style="fill:none;stroke:#ff7f2a;stroke-width:0.410001"
       d="m 42.808387,176.37022 c 0.0805,0.0767 0.802536,2.0458 0.546301,2.26532 -0.06705,0.0574 -0.168775,0.0519 -0.253164,0.0779"
       id="path507" /><path
       style="fill:none;stroke:#ff7f2a;stroke-width:0.410001"
       d="m 41.515916,176.95752 c 0.768813,-0.39622 1.662874,-0.61727 2.531641,-0.61727"
       id="path509" /><path
       style="fill:none;stroke:#ff7f2a;stroke-width:0.410001"
       d="m 50.736425,175.38139 c 1.160981,0.41531 3.470182,2.71535 1.745504,3.8894 -0.871358,0.59317 -1.421231,-1.948 -0.732846,-2.94252"
       id="path511" /><path
       style="fill:none;stroke:#ff7f2a;stroke-width:0.410001"
       d="m 54.274066,177.34706 c 0.07106,0.1698 0.198083,0.32595 0.213188,0.5094 0.02604,0.31609 0.08865,0.6871 -0.09327,0.94689 -0.09127,0.13033 -0.374171,-0.0408 -0.439708,-0.18579 -0.406895,-0.9002 -0.317463,-3.01431 0.519655,-2.58894 0.934199,0.4747 0.795393,2.2244 0.219853,2.90657 -0.289293,0.34289 -0.515774,-0.27998 -0.546304,-0.62327 -0.02873,-0.3231 0.08439,-0.64324 0.126586,-0.96486 z"
       id="path513" /><path
       style="fill:none;stroke:#ff7f2a;stroke-width:0.410001"
       d="m 57.491917,176.24437 c 0.179557,0.14572 0.874012,2.82874 1.045965,2.08553 0.07534,-0.32565 0.118104,-0.65811 0.166557,-0.98883 0.02709,-0.18488 0.03006,-0.3729 0.05996,-0.55734 0.175914,-1.08506 0.52596,1.77929 0.899401,1.45628 0.336688,-0.29121 -0.114702,-1.1786 0.306462,-1.41433 0.249081,-0.13942 3.129057,-0.51838 2.371748,-1.39036 -0.609809,-0.70214 -1.736669,1.0314 -1.738839,1.24653 -0.01572,1.55884 3.245612,0.89595 3.524314,0.14383"
       id="path515" /><path
       style="fill:none;stroke:#ff7f2a;stroke-width:0.410001"
       d="m 69.324015,174.57833 c -0.170997,0.36557 -0.526111,0.69334 -0.512993,1.09671 0.07441,2.28787 3.075578,1.61563 3.617588,-0.39554"
       id="path517" /><path
       style="fill:none;stroke:#ff7f2a;stroke-width:0.410001"
       d="m 72.435272,173.69737 c -0.328671,0.1718 -0.757214,0.22352 -0.986007,0.51539 -0.100761,0.12854 0.115663,0.33136 0.253161,0.41951 0.883669,0.56647 2.878333,0.42265 3.057959,1.84582 0.05127,0.40619 -0.274963,0.95422 -0.612923,1.16263 -1.285632,0.7928 -1.853716,-1.0495 -0.692872,-2.01962 0.446222,-0.37291 2.806954,0.38392 2.724848,-0.35957 -0.206102,-1.86631 -2.238745,0.28487 -2.12525,1.38436 0.180168,1.74538 2.17442,1.17476 3.191206,0.70117 0.07874,-0.0367 0.819732,-0.33003 0.599599,-0.64124"
       id="path519" /><path
       style="fill:none;stroke:#ff7f2a;stroke-width:0.410001"
       d="m 81.595821,173.72134 c -0.217633,0.0879 -0.473003,0.11293 -0.652899,0.26369 -1.020723,0.8554 2.398575,1.95744 2.51832,2.04958 0.941253,0.72431 1.25743,1.66853 0.139909,2.30728 -1.901944,1.08712 -1.275823,-1.50428 -1.005998,-2.24136 0.400235,-1.09333 1.34744,-1.92673 1.71219,-3.02043 0.415501,-1.24589 -4.181867,-1.35361 -2.271813,-1.14465"
       id="path521" /><path
       style="fill:none;stroke:#ff7f2a;stroke-width:0.410001"
       d="m 89.510538,172.46283 c 0.02069,1.23728 5.29e-4,1.09635 0.179877,2.78671 0.04532,0.4273 0.111509,0.85226 0.179877,1.27649 0.388821,2.41265 0.700389,-0.97226 1.852099,-1.61809 0.133697,-0.075 0.360236,-0.10465 0.459692,0.012 0.536472,0.62913 0.653013,1.92929 0.179885,2.63689 -0.207369,0.31013 -0.488039,0.91286 -0.826116,0.7551 -0.574389,-0.26803 -0.10613,-1.90823 -0.03331,-2.26532"
       id="path523" /><path
       style="fill:none;stroke:#ff7f2a;stroke-width:0.410001"
       d="m 94.600473,174.05695 c 0.08883,0.18378 0.270891,0.34727 0.266486,0.55134 -0.0053,0.24775 -0.2002,0.45348 -0.29314,0.6832 -0.153593,0.37964 -0.295082,0.76408 -0.446368,1.14465 -0.09967,0.25071 -0.20248,0.50016 -0.306462,0.74911 -0.04037,0.0967 -0.04005,0.22861 -0.126576,0.28767 -0.03376,0.023 -0.054,-0.0998 -0.166561,-0.5993"
       id="path525" /><path
       style="fill:none;stroke:#ff7f2a;stroke-width:0.410001"
       d="m 92.914929,174.50642 c 0.38694,1.64117 -0.354047,-1.07616 -0.259823,-0.80905 0.09422,0.26712 0.04342,0.62629 0.259823,0.80905 0.344704,0.29112 0.856327,0.28999 1.265822,0.47943 1.341321,0.62052 0.124436,0.24857 0.852768,0.45546"
       id="path527" /><path
       style="fill:none;stroke:#ff7f2a;stroke-width:0.410001"
       d="m 95.779681,173.78127 c 0.07291,0.15224 0.824786,2.48364 0.819452,2.48707 -0.139211,0.0894 -0.260694,-0.20404 -0.386408,-0.31163 -0.06194,-0.053 -0.797449,-0.50767 -0.819452,-0.64125 -0.02439,-0.14802 0.289962,-0.0869 0.439706,-0.0959 0.707289,-0.0424 0.919342,0.0699 1.752169,-0.23972 0.326223,-0.12128 1.313098,-1.32607 0.732837,-1.12667 -0.618786,0.21264 -1.488339,1.38429 -1.045967,2.04958 0.482116,0.72506 1.801403,-0.2909 2.191875,-0.63525"
       id="path529" /><path
       style="fill:none;stroke:#ff7f2a;stroke-width:0.410001"
       d="m 99.910261,173.91311 c -0.07978,-1.26095 -0.886529,-0.36613 -0.639577,-0.18577 0.179284,0.13093 0.491783,0.0201 0.639577,0.18577 0.309039,0.34641 0.381399,0.85036 0.632909,1.24054 0.21236,0.32945 1.32917,1.0963 0.87275,1.79189 -0.39559,0.60287 -1.810205,1.42984 -2.544966,0.95886 -0.564542,-0.36186 -0.317191,-1.09476 -0.273153,-1.57014"
       id="path531" /><path
       style="fill:none;stroke:#ff7f2a;stroke-width:0.410001"
       d="m 110.65648,172.48493 c -0.06,-0.1718 -0.11992,-0.3436 -0.17988,-0.51539 -0.009,-0.028 -0.0363,-0.11161 -0.0267,-0.0839 0.0696,0.19949 0.13769,0.39953 0.20653,0.5993 0.12436,0.51139 0.21076,1.03354 0.37309,1.53418 0.0706,0.21762 0.83759,1.99679 0.99933,2.34324 0.15462,0.33122 0.31977,0.65747 0.48634,0.98284 0.0667,0.1302 0.13532,0.25973 0.21319,0.38355 0.0182,0.029 0.0741,0.10613 0.0733,0.0719 -0.014,-0.56044 -0.10152,-1.11753 -0.11326,-1.67802 -0.0382,-1.82283 0.0527,-2.32113 0.18654,-4.09916 0.011,-0.14572 0.34843,-3.12117 0.04,-3.48189 -0.22464,-0.2627 -0.41075,0.57276 -0.50633,0.90493"
       id="path533" /><path
       style="fill:none;stroke:#ff7f2a;stroke-width:0.410001"
       d="m 111.14948,173.43181 c -1.82243,1.99709 0.90347,0.28412 2.04531,0.32362"
       id="path535" /><path
       style="fill:none;stroke:#ff7f2a;stroke-width:0.410001"
       d="m 120.98292,173.12617 c -0.1932,0.10987 -0.44011,0.15658 -0.57961,0.32961 -0.55581,0.68935 -1.52745,2.42261 -0.80613,3.34406 1.00389,1.28243 2.89553,0.63707 3.99733,-0.0659"
       id="path537" /><path
       style="fill:none;stroke:#ff7f2a;stroke-width:0.410001"
       d="m 123.82103,174.10302 c -0.0718,0.39629 0.40951,2.70741 0.66622,2.94253 0.0701,0.0642 0.14571,-0.12989 0.18654,-0.21575 0.43504,-0.9149 0.70396,-2.33386 0.86609,-1.83384 0.14902,0.45959 0.006,2.2056 0.45303,2.40317 0.0666,0.0295 0.12436,-0.0759 0.18654,-0.11387"
       id="path539" /><path
       style="fill:none;stroke:#ff7f2a;stroke-width:0.410001"
       d="m 126.89231,175.41547 c -0.3379,0.48479 -0.95621,0.85462 -0.0933,1.27649 0.50891,0.2488 1.88765,-0.91867 1.57895,-1.11468 -0.27932,-0.17735 -0.72539,2.502 0.19319,1.88777 0.16797,-0.11232 0.26206,-0.30764 0.39308,-0.46145"
       id="path541" /><path
       style="fill:none;stroke:#ff7f2a;stroke-width:0.410001"
       d="m 129.22408,174.95401 c 0.0822,0.35558 0.13388,0.7196 0.2465,1.06674 0.0552,0.17023 0.16746,0.31634 0.25317,0.47345 0.24148,0.44263 0.079,-0.23437 0.0799,-0.47944 0.002,-0.5286 0.0812,-2.71026 0.51299,-1.90575"
       id="path543" /><path
       style="fill:none;stroke:#ff7f2a;stroke-width:0.410001"
       d="m 131.45593,174.67235 c -0.19099,0.21175 -0.45124,0.37737 -0.57295,0.63524 -0.063,0.1334 0.002,0.30483 0.0666,0.43749 0.50803,1.04457 2.12015,-0.45998 1.65223,-1.04277 -0.10712,-0.13342 -0.28062,0.23496 -0.31979,0.40152 -0.12618,0.53658 -0.0317,1.47955 0.65956,1.54618"
       id="path545" /><path
       style="fill:none;stroke:#ff7f2a;stroke-width:0.410001"
       d="m 134.08084,174.48656 c -0.24206,0.004 -0.55895,-0.16306 -0.72618,0.012 -0.78147,0.81799 1.63044,2.5435 2.23184,1.702"
       id="path547" /><path
       style="fill:none;stroke:#ff7f2a;stroke-width:0.410001"
       d="m 135.84633,173.29997 c -0.34286,0.0501 0.3289,2.70869 0.11326,2.66685 -0.20448,-0.0397 -1.23906,-0.53673 -0.92605,-0.86299 0.42674,-0.44479 1.40299,-0.32644 1.93871,-0.62326 0.41474,-0.22979 0.49276,-0.43135 0.66621,-0.88695 0.0427,-0.11209 0.0856,-0.42735 -0.0133,-0.35958 -0.65164,0.44629 -1.50475,1.97044 -0.15323,2.21739 0.47789,0.0873 1.87185,-0.19164 1.43903,-0.9349 m 0,0 c -0.12214,-0.41551 -0.24429,-0.83102 -0.36643,-1.24653 0.0111,-0.038 -0.004,-0.12625 0.0333,-0.11387 0.44337,0.14624 0.10684,0.95204 0.33312,1.3604 0.19263,0.34762 0.63347,0.48431 0.91272,0.76709 0.13735,0.1391 0.36432,0.44568 0.19986,0.55136 -0.0561,0.036 -0.14809,-0.0175 -0.18654,-0.0719 -0.50533,-0.71527 -0.25427,-1.58945 -0.20653,-2.39118"
       id="path549" /><path
       style="fill:none;stroke:#ff7f2a;stroke-width:0.410001"
       d="m 140.07018,171.68187 c -0.29417,-1.4915 1.95226,-2.04236 2.31845,-0.64723 0.38875,1.4811 -1.86326,2.7697 -0.75283,4.62054"
       id="path551" /><path
       style="fill:none;stroke:#ff7f2a;stroke-width:0.410001"
       d="m 142.54852,178.72356 c 1.76647,-1.90692 0.58743,1.54643 0.0666,1.65405 -0.49482,0.10226 0.006,-0.63245 0.04,-1.0967 0.0136,-0.18866 -0.18652,-0.72878 -0.1066,-0.55735 0.13663,0.2931 0.24463,0.60745 0.27982,0.92891 0.0403,0.3678 -0.65446,0.36666 -0.53298,-0.28167 0.0427,-0.2277 0.16877,-0.43149 0.25316,-0.64724 z"
       id="path553" /><path
       style="fill:none;stroke:#ff7f2a;stroke-width:0.410001"
       d="m 125.18012,164.99376 c -0.002,0.17779 -0.004,0.35559 -0.007,0.53338"
       id="path555" /><path
       style="fill:none;stroke:#ff7f2a;stroke-width:0.410001"
       d="m 39.362789,185.23516 c 0.127318,1.58118 -0.182496,3.16378 -0.273153,4.74041 -0.0097,0.16837 -0.04595,0.85144 0.19321,1.00681 0.119522,0.0777 3.070328,-0.69199 3.277809,-0.73113 0.424907,-0.0802 0.851085,-0.15461 1.279144,-0.21575 0.729937,-0.10425 1.069438,-0.14749 1.738841,-0.13184 0.371454,0.009 1.80871,0.41198 1.125913,-0.3476 -0.304897,-0.33918 -0.600291,-0.6898 -0.939371,-0.99482 -0.283509,-0.25503 -0.876583,-0.51981 -1.212527,-0.6772 -0.13712,-0.0642 -0.499856,-0.12037 -0.393068,-0.22773 0.406607,-0.40879 1.647241,-0.22961 2.00533,0 2.020234,1.29536 0.256625,3.80619 -0.646239,5.18987 -0.122849,0.18827 -0.246761,0.37609 -0.379746,0.55735 -0.01442,0.0197 -0.06407,0.066 -0.05996,0.042 0.02968,-0.17357 0.09327,-0.3396 0.139903,-0.5094"
       id="path557" /><path
       style="fill:none;stroke:#ff7f2a;stroke-width:0.410001"
       d="m 43.733206,175.16105 c 0.06352,-0.32594 0.131183,-0.65234 0.226515,-0.97085 0.02545,-0.085 0.103688,-0.33878 0.08661,-0.25171 -0.0088,0.0451 -0.02665,0.0879 -0.03997,0.13185 -0.09105,0.36357 -0.228335,0.7186 -0.27315,1.09071 -0.04252,0.35306 0.03491,0.71179 0.01333,1.06674 -0.02742,0.45092 -0.346824,3.08593 -0.399735,3.4759 -0.03856,0.28423 -0.528738,2.54651 -0.439709,2.75675 0.0341,0.0805 0.08179,-0.15586 0.106598,-0.23972 0.113139,-0.38247 0.214953,-0.76843 0.306465,-1.15664 0.14298,-0.60654 0.608226,-2.91835 0.619585,-3.30809 0.02527,-0.86735 -0.0793,-1.7366 -0.206528,-2.59494 -0.291286,-1.96517 0.175252,1.60895 -0.02665,1.62408 -0.597173,0.0448 -2.12961,-1.37886 -2.491671,-1.22855 -0.142661,0.0592 0.1813,0.25707 0.306461,0.34759 0.765247,0.55349 1.656059,0.91526 2.544966,1.21656 0.08653,0.0293 -0.16293,-0.0829 -0.246499,-0.11985 -0.183036,-0.0809 -0.369366,-0.15413 -0.552966,-0.23372 -0.372253,-0.16138 -0.739867,-0.29831 -1.052629,-0.56933 -0.851119,-0.73752 1.060797,-1.9272 1.472348,-2.3792 0.01606,-0.0176 0.466879,-0.55168 0.07329,-0.5034 -0.58165,0.0713 0.04536,0.97596 -0.02665,1.84582 -0.02691,0.32503 -0.336733,0.56987 -0.413057,0.88695 -0.09518,0.39542 -0.05689,0.81149 -0.09327,1.21657 -0.119179,1.32705 -0.136602,1.63103 -0.399732,2.90657 -0.06567,0.31835 -0.175753,0.62694 -0.233178,0.94688 -0.01209,0.0674 -0.01154,0.26063 0.02665,0.20376 0.159486,-0.23746 0.23984,-0.51939 0.359759,-0.77908"
       id="path559" /><path
       style="fill:none;stroke:#ff7f2a;stroke-width:0.410001"
       d="m 57.050981,189.84972 c -0.824256,0.0297 -0.599937,-0.12967 -0.95936,1.10869 -0.876141,3.01865 1.318228,5.02938 3.277812,2.09153"
       id="path561" /><path
       style="fill:none;stroke:#ff7f2a;stroke-width:0.410001"
       d="m 60.648579,192.75629 c -0.06884,0.37556 -0.02172,0.79256 -0.206531,1.12667 -0.07662,0.13854 -0.36621,0.21251 -0.466355,0.0899 -0.539551,-0.66061 -0.246705,-2.7579 0.03997,-3.49387 0.386154,-0.99135 0.904197,0.12012 0.912722,0.58131 0.01058,0.57288 -0.186542,1.13067 -0.27981,1.696 z"
       id="path563" /><path
       style="fill:none;stroke:#ff7f2a;stroke-width:0.410001"
       d="m 61.421393,190.36511 c 0.01556,-0.21175 0.258386,-0.6197 0.04664,-0.63525 -0.211749,-0.0156 -0.103899,0.4308 -0.04664,0.63525 0.708572,1.3456 0.354335,0.41495 0.572952,1.64206 0.140576,0.78906 1.034645,-1.42424 1.299131,-1.41433 0.447122,0.0168 -0.05925,3.8783 0.80613,1.80987"
       id="path565" /><path
       style="fill:none;stroke:#ff7f2a;stroke-width:0.410001"
       d="m 64.759167,189.53809 c -0.204309,0.032 -0.644888,-0.10843 -0.612926,0.0959 0.03196,0.20431 0.52506,-0.28308 0.612926,-0.0959 0.132355,0.28198 -0.240739,0.59352 -0.23318,0.90493 0.0043,0.1793 0.192281,0.30416 0.266488,0.46745 0.15172,0.33384 0.178467,0.75063 0.386411,1.06075 0.208616,0.31111 0.984001,-0.0333 1.105927,-0.29965"
       id="path567" /><path
       style="fill:none;stroke:#ff7f2a;stroke-width:0.410001"
       d="m 67.137578,191.67157 c 0.0026,-0.60855 0.113448,-1.19093 0.139906,-1.79788 -0.310625,0.14764 -0.58875,-2.73436 0.233178,-2.48107 0.997203,0.30731 2.440187,2.0719 2.298468,3.15827 -0.06657,0.51029 -0.66767,0.62665 -1.005999,0.31164 -0.654919,-0.6098 -0.330076,-1.32737 0.399738,-1.66005 0.204353,-0.0932 1.191719,-0.2784 1.292468,-0.29964 0.02156,-0.005 1.013356,-0.11577 0.812792,-0.4315 -0.372367,-0.58617 -1.574804,0.16348 -0.952699,0.86299 0.292239,0.3286 0.660019,0.58751 1.032645,0.82103 0.187394,0.11744 0.560415,0.0735 0.712853,-0.0899 0.426742,-0.45749 -0.157364,-1.31156 0.199869,-1.08472 0.171538,0.10893 0.369497,0.49052 0.486346,0.64125 0.04196,0.0541 0.09608,0.22312 0.126577,0.16181 0.05785,-0.11633 -0.02824,-0.26048 -0.01332,-0.38954 0.05089,-0.44033 0.242789,-1.65762 0.792807,-1.80987"
       id="path569" /><path
       style="fill:none;stroke:#ff7f2a;stroke-width:0.410001"
       d="m 80.348758,184.3542 c -0.206528,0.7651 -0.474824,1.51615 -0.619591,2.29529 -0.05773,0.31071 -0.438226,4.03623 -0.07328,4.16509 0.309081,0.10913 2.232406,-1.07831 2.611591,-1.23454 0.280988,-0.11578 0.571894,-0.22077 0.872752,-0.26369 0.20492,-0.0292 0.0011,0.54638 -0.05996,0.55734 -0.06385,0.0115 -0.0222,-0.12785 -0.0333,-0.19177"
       id="path571" /><path
       style="fill:none;stroke:#ff7f2a;stroke-width:0.410001"
       d="m 88.516639,185.10332 c -0.182105,-0.026 -0.494716,0.0986 -0.546309,-0.0779 -0.165683,-0.567 0.441219,-1.33181 0.493008,-1.28249 0.208106,0.19822 -0.22874,0.61715 -0.206531,0.79107 0.02643,0.20693 0.17322,0.37955 0.259832,0.56933 z"
       id="path573" /><path
       style="fill:none;stroke:#ff7f2a;stroke-width:0.410001"
       d="m 88.536623,186.12212 c -0.01334,0.33959 -0.05249,0.67916 -0.03997,1.01879 0.0399,1.08214 0.06867,1.38222 0.486339,2.31927 0.07206,0.16166 0.28381,0.5835 0.333107,0.41351 0.285084,-0.98305 0.357,-2.11518 0.453038,-3.12831 0.02643,-0.27874 -0.0458,-1.10553 0.03997,-0.83901 0.160351,0.49829 0.312875,0.98527 0.493006,1.48025 0.101563,0.27909 0.170757,0.57152 0.299799,0.83901 0.01484,0.0308 0.05254,0.10904 0.06662,0.0779 0.324835,-0.71798 0.332508,-1.54684 0.612924,-2.2833 0.04783,-0.12562 0.195929,-0.355 0.299799,-0.26968 0.100116,0.0822 0.419873,4.17252 0.866084,2.07954"
       id="path575" /><path
       style="fill:none;stroke:#ff7f2a;stroke-width:0.410001"
       d="m 99.972052,185.64306 c 0.02887,-0.35958 0.05774,-0.71916 0.08661,-1.07873 0.002,-0.0499 0.002,-0.19959 0.007,-0.14982 0.0387,0.40886 -0.136857,0.82017 -0.09327,1.22855 0.103608,0.97066 0.386208,1.91378 0.579608,2.87061 0.0847,0.41894 0.43111,1.65348 0.34644,1.23454"
       id="path577" /><path
       style="fill:none;stroke:#ff7f2a;stroke-width:0.410001"
       d="m 99.339145,188.08817 c 0.633565,0.40219 -1.144466,-0.48504 -0.852768,-0.37755 0.291697,0.10748 0.543554,0.40961 0.852768,0.37755 0.363167,-0.0376 0.595156,-0.44158 0.939365,-0.56333 0.32507,-0.11499 0.68972,-0.0556 1.02599,-0.13185 0.97849,-0.22193 0.93276,-1.04098 0.4397,-1.73795 -0.0838,-0.11848 0.10344,0.27121 0.15324,0.40752 0.38783,1.06158 0.30454,0.83882 0.62624,2.00763 0.0698,0.25345 0.13777,0.50738 0.20653,0.7611 0.0401,0.14781 0.0219,0.32586 0.11992,0.44348 0.17744,0.21281 0.21109,-0.51504 0.27315,-0.78507 0.021,-0.0915 0.15379,-0.89422 0.2998,-1.12068 0.16597,-0.25741 0.47281,1.96452 0.52632,1.75593 0.28203,-0.35558 0.53342,-0.73779 0.8461,-1.06674 0.0863,-0.0908 0.23692,-0.0936 0.33311,-0.1738 0.89932,-0.74978 -0.48418,-1.63816 -1.00599,0.15582 -0.10227,0.35158 -0.42206,0.81611 -0.17322,1.08472 0.32963,0.35582 2.20148,0.62572 2.67821,0.0539"
       id="path579" /><path
       style="fill:none;stroke:#ff7f2a;stroke-width:0.410001"
       d="m 111.9374,186.50604 c -0.19987,0.0499 -0.44017,0.0194 -0.5996,0.14982 -0.52548,0.42999 -1.00242,1.76105 -0.60626,2.39118 0.57921,0.92132 2.69398,-1.52706 2.95135,-1.97167 0.29845,-0.51555 -0.1142,-0.78833 -0.54629,-0.43749 -1.07484,0.87274 0.72534,3.45679 1.61226,3.29611 0.17563,-0.0318 0.18109,-0.87881 0.20652,-1.37837"
       id="path581" /><path
       style="fill:none;stroke:#ff7f2a;stroke-width:0.410001"
       d="m 114.88877,185.44529 c -0.0133,-0.1738 0.13381,-0.53471 -0.04,-0.52139 -0.1738,0.0133 -0.0145,0.35582 0.04,0.52139 0.16523,0.50202 0.43085,0.96612 0.61292,1.46228 0.20581,0.56085 0.47519,1.74891 0.59293,2.2833 0.0542,0.24616 0.13653,0.99516 0.13991,0.74312 0.0144,-1.07194 -0.0396,-1.41172 0.2998,-2.56497 0.0893,-0.30348 0.38971,-0.90947 0.63291,-0.70717 0.882,0.73367 0.94221,3.2144 -0.0466,3.90739 -0.54848,0.38438 -0.43011,-2.3301 -0.40639,-2.50504"
       id="path583" /><path
       style="fill:none;stroke:#ff7f2a;stroke-width:0.410001"
       d="m 118.45971,188.21402 c 1.63826,1.28647 -0.0607,0.94683 -0.11992,0.71316 -0.0498,-0.19658 -0.47573,-2.19968 0.13991,-2.72678 0.0925,-0.0792 0.19012,0.16173 0.2465,0.26968 0.33926,0.64959 0.38046,2.50833 0.61959,2.60692 0.0624,0.0257 0.0798,-0.11363 0.0933,-0.17978 0.13419,-0.65839 0.16793,-1.4197 0.20653,-2.07955 0.002,-0.0298 0.0447,-0.83729 0.02,-0.81504 -0.35096,0.31581 0.64128,2.58311 1.09927,2.77473 0.47543,0.19891 0.3026,-1.5143 0.39973,-1.70199 0.16536,-0.31955 1.17741,-0.1018 1.15257,-0.34759 -0.0147,-0.14548 -0.47789,-0.0688 -0.88608,0.64723 -1.05203,1.8454 2.73942,1.95596 2.6449,1.16263"
       id="path585" /><path
       style="fill:none;stroke:#ff7f2a;stroke-width:0.410001"
       d="m 130.26158,187.02958 c -0.65336,0.68914 -0.11379,1.13947 0.63957,0.99482 0.37509,-0.072 0.74269,-0.19807 1.08595,-0.36557 0.49288,-0.24049 1.71107,-1.3729 0.41305,-1.60011 -0.90182,-0.15786 -2.84879,1.26108 -3.18453,2.03161 -0.17636,0.40473 -0.17958,0.92415 0.007,1.32443 0.14437,0.31029 0.55109,0.41757 0.86609,0.55135 0.83014,0.35255 2.16271,0.4334 2.9447,-0.0899 0.31669,-0.21192 0.54631,-0.53138 0.81946,-0.79706"
       id="path587" /><path
       style="fill:none;stroke:#ff7f2a;stroke-width:0.410001"
       d="m 134.83853,186.54415 c -1.25565,0.13575 -1.08637,3.14668 -1.38575,3.41597 -0.0653,0.0588 0.002,-0.17583 0,-0.26369 -0.007,-0.24179 0.004,-0.48516 -0.0266,-0.72515 -0.061,-0.48456 -0.11676,-0.97344 -0.24649,-1.44429 -0.0654,-0.23735 -0.20046,-0.45182 -0.33312,-0.65922 -0.0597,-0.0934 -0.32762,-0.29789 -0.25316,-0.21575 0.40722,0.44925 2.60623,2.8191 2.9447,2.89459 0.34055,0.076 0.41949,-0.66644 0.43304,-0.71316"
       id="path589" /><path
       style="fill:none;stroke:#ff7f2a;stroke-width:0.410001"
       d="m 136.03773,188.24614 c 0.56687,-2.21515 -0.51859,-1.09134 -0.46636,-0.6712 0.0594,0.47793 0.1735,0.9617 0.39307,1.39035 0.50045,0.97697 1.10451,0.0771 1.33911,-0.43748 0.0471,-0.10337 0.0597,-0.21924 0.0866,-0.32961 0.009,-0.0355 0.0396,-0.13874 0.02,-0.10787 -0.27868,0.43873 -0.0412,1.99418 0.33311,2.31926"
       id="path591" /><path
       style="fill:none;stroke:#ff7f2a;stroke-width:0.410001"
       d="m 138.29622,187.27529 c 0.17988,0.38354 0.39279,0.75327 0.53963,1.15064 0.11861,0.32097 0.17219,0.66237 0.25317,0.99483 0.19932,0.81821 0.12309,0.55827 0.27315,-0.3416 0.0548,-0.32852 0.1144,-0.65629 0.17988,-0.98284 0.0449,-0.22391 0.0107,-0.77068 0.20653,-0.65323 0.0527,0.0316 0.0289,0.1194 0.04,0.17979 0.0333,0.18139 0.0624,0.36352 0.0933,0.54535 0.35808,2.11164 0.23242,-0.49405 1.05929,-0.76709 0.43477,-0.14357 0.0934,2.47171 0.58628,2.15146"
       id="path593" /><path
       style="fill:none;stroke:#ff7f2a;stroke-width:0.410001"
       d="m 141.85384,187.85061 c -1.26543,-2.81184 1.61894,4.14891 0.99267,3.56579 -0.41538,-0.38676 -0.95477,-2.46736 -1.01932,-2.81668 -0.0454,-0.2457 0.0503,-0.50036 0.0266,-0.74911 -0.0638,-0.67269 -0.48539,-1.15118 0.0333,-1.66604 0.27513,-0.27308 0.54817,-0.0707 0.74617,0.1738 0.50032,0.61781 0.66855,2.03426 -0.15323,2.51703 -0.21189,0.12448 -0.0515,-0.49437 -0.0133,-0.73713 0.0368,-0.2335 0.0933,-0.46345 0.13991,-0.69518"
       id="path595" /><path
       style="fill:none;stroke:#ff7f2a;stroke-width:0.410001"
       d="m 143.37949,185.3995 c 0.95751,1.23317 0.99538,2.78176 1.15923,4.25498"
       id="path597" /><path
       style="fill:none;stroke:#ff7f2a;stroke-width:0.410001"
       d="m 144.7186,188.46189 c 0.58849,-0.1718 1.19042,-0.30293 1.76549,-0.51539 1.68824,-0.62373 0.90347,-1.75255 -0.80613,-0.47345 -0.36772,0.27512 -0.97993,0.53005 -0.95936,0.98884 0.0756,1.68779 3.75147,1.87897 4.48367,1.00082"
       id="path599" /><path
       style="fill:none;stroke:#ff7f2a;stroke-width:0.410001"
       d="m 52.45524,199.32051 c 0.05996,0.30764 0.155433,0.61044 0.17988,0.92291 0.09466,1.20982 -0.139949,2.55488 -0.333113,3.73959 -0.108717,0.66681 -0.261239,1.32574 -0.386405,1.98965 -0.02484,0.13182 -0.160658,0.39565 -0.02665,0.40153 0.195035,0.009 1.476693,-1.04579 1.785477,-1.1866 1.050047,-0.47884 1.424877,-0.49249 2.638237,-0.51539 0.0057,-1.1e-4 0.527709,0.0413 0.546301,0.21574 0.03083,0.28919 -0.261347,0.43617 -0.493003,0.44348 -0.706782,0.0223 -3.699314,0.29646 -4.103926,-0.37755 -0.102867,-0.17136 -0.104256,-0.39422 -0.08661,-0.59331 0.118361,-1.3353 0.665107,-2.73651 0.959358,-4.03323 0.184848,-0.8146 0.356759,-1.45395 0.253164,-2.2893 -0.07813,-0.63006 -0.632749,-0.66624 -0.639572,-0.62327 -0.0038,0.0241 0.0089,0.0479 0.01333,0.0719 0.01111,0.0839 0.04726,0.16823 0.03331,0.2517 -0.08891,0.53202 -0.319731,1.0431 -0.339773,1.58213 -0.02492,0.67029 0.170421,1.33186 0.206528,2.00164 0.06868,1.27392 -0.09636,2.51555 0.186542,3.77554 0.298577,1.32982 2.812219,-1.36204 2.891404,-0.29365"
       id="path601" /><path
       style="fill:none;stroke:#ff7f2a;stroke-width:0.410001"
       d="m 62.874947,200.66293 c -0.257603,0.11985 -0.605602,0.12986 -0.772813,0.35957 -0.274598,0.37723 -0.355881,0.86807 -0.45303,1.32444 -0.298654,1.40294 0.299283,3.07481 2.025314,2.92455 0.256021,-0.0223 0.475236,-0.19577 0.712856,-0.29365"
       id="path603" /><path
       style="fill:none;stroke:#ff7f2a;stroke-width:0.410001"
       d="m 65.193401,203.46163 c -0.446828,-0.28186 -0.716597,1.1048 -0.313124,1.27049 0.646832,0.26564 1.63376,-1.47997 1.665552,-1.47425 0.01423,0.003 -0.146804,2.22745 0.446371,1.7739"
       id="path605" /><path
       style="fill:none;stroke:#ff7f2a;stroke-width:0.410001"
       d="m 67.465217,203.03013 c -0.04219,-0.23172 0.105145,-0.73737 -0.12658,-0.69517 -0.231727,0.0422 0.03457,0.47836 0.12658,0.69517 0.16243,0.38274 0.40232,0.72841 0.62625,1.07873 0.03307,0.0517 0.08108,0.1375 0.139904,0.11986 0.256791,-0.077 0.32412,-0.69457 0.439708,-0.89894 0.176091,-0.31134 0.851054,1.46458 0.919387,1.67203"
       id="path607" /><path
       style="fill:none;stroke:#ff7f2a;stroke-width:0.410001"
       d="m 71.509182,201.95141 c -0.03811,1.75038 1.577687,1.90718 2.36509,0.52138 0.27007,-0.47532 0.393017,-1.00405 0.539641,-1.5222"
       id="path609" /><path
       style="fill:none;stroke:#ff7f2a;stroke-width:0.410001"
       d="m 74.487197,199.91981 c -0.266491,0.23572 -0.532979,0.47144 -0.79947,0.70716 0.0021,0.0439 -0.03538,0.11886 0.0067,0.13185 0.96421,0.29775 2.658578,-0.47291 3.617587,0.69518 0.72925,0.88823 -0.885751,2.73067 -1.592268,2.52302 -0.732652,-0.21533 0.206838,-1.61312 0.393068,-1.82186 0.497554,-0.55768 1.379217,-0.39695 1.978678,-0.74911 0.08606,-0.0505 0.680257,-0.46259 0.413057,-0.67121 -0.632031,-0.49345 -1.512716,0.61392 -1.439037,1.24054 0.170754,1.45221 2.076807,1.26501 2.818117,0.43149"
       id="path611" /><path
       style="fill:none;stroke:#ff7f2a;stroke-width:0.410001"
       d="m 86.166064,199.23062 c 1.092621,0.91367 2.084568,3.15907 1.399064,4.55462 -0.104767,0.21329 -0.295349,0.47453 -0.532977,0.47345 -1.061526,-0.005 -1.152405,-1.24792 -0.96602,-1.92973"
       id="path613" /><path
       style="fill:none;stroke:#ff7f2a;stroke-width:0.410001"
       d="m 89.117425,200.59701 c -0.08438,0.78826 0.449834,1.21202 1.232514,1.07872 0.373147,-0.0635 1.405096,-0.33834 1.439037,-0.89295 0.02543,-0.41535 -0.767622,-1.11846 -0.526314,-1.48024 0.06573,-0.0985 0.247618,0.007 0.319783,0.012 0.206902,0.0149 1.065554,-0.22489 1.192538,-0.0899 0.298281,0.3171 -0.05723,1.17655 0.119922,1.6061 0.256175,0.62119 1.464816,1.21136 1.439037,1.76792 -0.02881,0.62203 -0.998251,1.32053 -1.432374,0.59929 -0.134202,-0.22296 -0.146569,-0.49941 -0.219853,-0.74911"
       id="path615" /><path
       style="fill:none;stroke:#ff7f2a;stroke-width:0.410001"
       d="m 94.713688,198.41558 c 0.408654,0.96315 0.826641,2.10869 0.686208,3.18225 0.01999,-0.41551 -0.110363,-0.86701 0.05996,-1.24653 0.204917,-0.4566 1.612105,-0.66973 2.025314,-0.62327"
       id="path617" /><path
       style="fill:none;stroke:#ff7f2a;stroke-width:0.410001"
       d="m 102.42188,197.85225 c -0.29556,1.15918 0.54817,1.93673 1.14589,2.81667"
       id="path619" /><path
       style="fill:none;stroke:#ff7f2a;stroke-width:0.410001"
       d="m 102.22201,200.18349 c -0.24503,-0.94948 -0.38521,-0.64638 0.68621,-1.3484 0.42716,-0.27989 0.92475,-0.43856 1.35909,-0.70717 0.13181,-0.0815 0.5999,-0.68919 0.10659,-0.68919 -0.16264,0 0.0581,0.32688 0.13991,0.46745 0.25561,0.43922 0.68323,1.06477 1.17256,1.2705 0.65931,0.2772 0.67804,-1.05252 0.79946,-1.0128 0.16164,0.0529 0.55894,1.12838 0.77948,0.86897 0.35138,-0.41333 -0.14125,-1.29113 0.31979,-1.64206 0.25316,0.32162 0.53491,0.62267 0.75949,0.96486 0.22664,0.34534 0.32553,1.11194 0.0733,0.94089 -0.41679,-0.28263 -0.38375,-0.92481 -0.51965,-1.30646 -0.0756,-0.21232 -0.3568,-0.37817 -0.31312,-0.59929 0.0672,-0.34043 0.34161,-0.61893 0.5996,-0.851 0.24857,-0.22359 0.64094,0.78237 0.60626,1.57015 -0.0139,0.31467 -0.0742,0.62989 -0.17322,0.92891 -0.0606,0.183 -0.43668,0.91886 -0.57295,0.90493 -0.0827,-0.008 -0.0901,-0.15071 -0.0866,-0.23372 0.0213,-0.51373 0.1066,-1.0228 0.15989,-1.53419"
       id="path621" /><path
       style="fill:none;stroke:#ff7f2a;stroke-width:0.410001"
       d="m 113.58109,195.25731 c -0.06,0.49541 -0.15714,0.98773 -0.17988,1.48624 -0.0196,0.42942 0.0364,0.85896 0.0533,1.28848 0.0142,0.35955 0.0326,0.71898 0.04,1.07873 0.0205,0.99508 -0.031,0.38754 0.25983,-0.37756 0.0914,-0.24047 0.69582,-1.8803 1.35243,-1.64206 1.01419,0.36799 0.60357,3.07797 -0.15989,3.61374 -0.71685,0.50306 -0.95982,-0.22872 -1.06596,-0.99482 -0.0417,-0.30075 0.16878,-0.58332 0.25317,-0.87497"
       id="path623" /><path
       style="fill:none;stroke:#ff7f2a;stroke-width:0.410001"
       d="m 116.53912,199.72803 c 0.81162,-0.51139 0.81517,-0.93199 0.93937,-1.78589"
       id="path625" /><path
       style="fill:none;stroke:#ff7f2a;stroke-width:0.410001"
       d="m 117.27862,196.96529 c -0.34751,-0.76605 0.10233,-1.39683 0.54631,-2.00763 0.31533,0.81141 1.94904,3.80006 1.63224,4.4947 -3.01458,-0.016 -0.61338,-1.5732 0.47968,-2.10951"
       id="path627" /><path
       style="fill:none;stroke:#ff7f2a;stroke-width:0.410001"
       d="m 120.96949,196.9593 c -1.74343,0.84541 -0.0457,-0.0313 0,0 0.27145,0.18604 -0.0409,0.68235 0.0933,0.98284 0.1959,0.43867 1.51756,0.83823 1.11259,1.69001 -0.18646,0.39219 -1.74911,1.61272 -1.52564,0.52737"
       id="path629" /><path
       style="fill:none;stroke:#ff7f2a;stroke-width:0.410001"
       d="m 131.93519,198.04879 c -0.91211,-0.27067 -0.58082,-0.3748 -1.39907,0.51539 -1.61676,1.75893 -0.0181,2.93682 0.71286,4.65651"
       id="path631" /><path
       style="fill:none;stroke:#ff7f2a;stroke-width:0.410001"
       d="m 129.30361,201.8603 c 1.52516,-0.44553 0.85251,-0.46633 2.00533,-0.23373"
       id="path633" /><path
       style="fill:none;stroke:#ff7f2a;stroke-width:0.410001"
       d="m 132.28163,202.65136 c -0.19987,-0.21774 -0.56525,-0.35966 -0.5996,-0.65323 -0.17221,-1.47162 1.75206,-3.70052 1.47234,-0.70716 -0.0551,0.5894 -0.27511,1.33173 -0.55296,1.86979 -0.0329,0.0637 -0.12177,0.20455 -0.15989,0.14383 -0.43704,-0.69617 0.0949,-1.25209 0.37308,-1.90575"
       id="path635" /><path
       style="fill:none;stroke:#ff7f2a;stroke-width:0.410001"
       d="m 133.98049,199.64291 c 0.12436,0.2597 0.27567,0.50813 0.37308,0.77908 0.19205,0.5342 0.34028,1.08335 0.49301,1.63008 0.37841,0.84504 -7.9e-4,1.09463 -0.0933,0.23373 -0.0435,-0.4052 -0.0411,-0.81785 0.007,-1.22257 0.0402,-0.34101 0.51923,-2.24771 1.23917,-1.67202"
       id="path637" /><path
       style="fill:none;stroke:#ff7f2a;stroke-width:0.410001"
       d="m 139.59674,198.98968 c 0.11707,-1.53641 0.17758,-0.63899 0,0 -0.10787,0.38811 -1.24257,3.63274 -0.88607,3.84746 0.58706,0.35359 4.47997,-1.45484 3.96402,0.22774"
       id="path639" /></g></svg>
