<?xml version="1.0" encoding="UTF-8" standalone="no"?>
<!-- Created with Inkscape (http://www.inkscape.org/) -->

<svg
   width="61.681957mm"
   height="77.232368mm"
   viewBox="0 0 61.681955 77.232373"
   version="1.1"
   id="svg12"
   inkscape:version="1.2.1 (9c6d41e410, 2022-07-14, custom)"
   sodipodi:docname="huffman_tree_aligned.svg"
   xml:space="preserve"
   xmlns:inkscape="http://www.inkscape.org/namespaces/inkscape"
   xmlns:sodipodi="http://sodipodi.sourceforge.net/DTD/sodipodi-0.dtd"
   xmlns="http://www.w3.org/2000/svg"
   xmlns:svg="http://www.w3.org/2000/svg"><sodipodi:namedview
     id="namedview14"
     pagecolor="#000000"
     bordercolor="#ffffff"
     borderopacity="1"
     inkscape:showpageshadow="0"
     inkscape:pageopacity="0"
     inkscape:pagecheckerboard="0"
     inkscape:deskcolor="#000000"
     inkscape:document-units="mm"
     showgrid="true"
     inkscape:zoom="1.5101792"
     inkscape:cx="154.28633"
     inkscape:cy="102.63683"
     inkscape:window-width="1366"
     inkscape:window-height="746"
     inkscape:window-x="0"
     inkscape:window-y="0"
     inkscape:window-maximized="1"
     inkscape:current-layer="layer1"
     inkscape:lockguides="true" /><defs
     id="defs9"><rect
       x="587.26367"
       y="362.45731"
       width="66.575974"
       height="20.973427"
       id="rect1884" /></defs><g
     inkscape:label="Layer 1"
     inkscape:groupmode="layer"
     id="layer1"
     transform="translate(-62.252577,-134.1747)"><path
       style="fill:none;stroke:#ff0000;stroke-width:0.410001"
       d="m 81.064535,143.22796 c -0.04711,0.32488 -0.05375,0.65827 -0.141327,0.97465 -0.111517,0.40284 -0.106479,0.93473 -0.45225,1.16959 -1.355394,0.92064 -2.387624,0.57917 -2.741739,-0.95771 -0.747784,-3.24542 0.978228,-7.77241 3.806401,-9.52621 2.680671,-1.66234 5.016934,1.03258 5.860362,3.32231 0.453115,1.23011 0.665806,2.61055 0.0094,3.82235 -0.347515,0.64157 -0.815827,1.23852 -1.385004,1.69505 -0.961411,0.77114 -3.79829,2.06568 -4.82396,0.43224 -0.414457,-0.66004 -0.433401,-1.4973 -0.650103,-2.24595"
       id="path1319" /><path
       style="fill:none;stroke:#ff0000;stroke-width:0.410001"
       d="m 82.996001,144.92301 c -1.15399,5.76394 -3.19279,10.99084 -6.114743,16.09456 -0.459853,0.80321 -0.93056,1.60034 -1.413272,2.39003 -0.729585,1.19356 -0.391871,0.1034 -0.292078,-0.4831"
       id="path1321" /><path
       style="fill:none;stroke:#ff0000;stroke-width:0.410001"
       d="m 87.499622,142.13464 c 0.540184,0.51699 1.122418,0.99336 1.620552,1.55098 1.065228,1.19245 1.936758,2.54841 2.996129,3.74607 1.523523,1.72241 3.279798,3.12399 5.050086,4.57666 0.654155,0.53678 2.587738,1.64866 2.016265,2.80531"
       id="path1323" /><path
       style="fill:none;stroke:#ff0000;stroke-width:0.410001"
       d="m 102.11284,153.91528 c 0.17446,-3.89003 -2.199436,-0.31511 -2.675797,0.88143 -0.677347,1.70138 -1.404729,4.66514 -0.131908,6.33104 1.583615,2.07267 4.266635,1.03802 5.719035,-0.66108 0.62618,-0.73253 0.92379,-1.71586 1.14946,-2.65276 0.15022,-0.62365 0.10145,-1.29984 -0.0471,-1.92389 -1.11671,-4.69108 -6.172942,-4.13951 -8.065059,-0.50852"
       id="path1325" /><path
       style="fill:none;stroke:#ff0000;stroke-width:0.410001"
       d="m 105.03359,162.55159 c -0.46487,2.15625 -1.05754,4.30894 -1.93147,6.33951 -1.1818,2.74592 -2.67159,5.3043 -4.126746,7.90744 -0.679598,1.21574 -0.994407,1.83727 -0.78201,1.70353 0.812159,-0.51139 -0.507987,-1.81098 -1.234255,-1.5425 -2.868578,1.06044 -3.93917,4.81265 -3.165727,7.52605 0.24583,0.86241 1.549107,1.30045 2.308344,1.25434 3.219908,-0.19558 6.558644,-4.27223 7.169994,-7.24636 0.59434,-2.89136 -0.6314,-4.55493 -3.561445,-3.81388 -0.558694,0.1413 -1.102148,0.80763 -1.629973,0.57632 -0.375798,-0.16469 0.10678,-0.81363 0.160171,-1.22044"
       id="path1327" /><path
       style="fill:none;stroke:#ff0000;stroke-width:0.410001"
       d="m 104.17621,160.08529 c 1.98513,2.82167 0.48959,0.67666 2.36487,3.41553 1.46334,2.13722 2.86013,4.25371 4.09848,6.53444 1.2529,2.30754 2.2537,4.74274 3.8441,6.85651 1.00689,1.33824 2.33469,2.45696 3.62739,3.50876 0.14201,0.11555 1.04516,1.14971 1.0364,0.33054 -0.004,-0.40157 -0.11505,-0.78344 -0.33919,-1.11874 -2.53162,-3.78694 -7.24968,4.02162 -3.55202,6.25476 3.79366,2.2911 8.44536,-1.9941 8.4702,-5.89032 0.005,-0.72159 0.05,-1.65703 -0.5182,-2.10187 -0.97477,-0.76318 -2.3159,-1.01662 -3.55202,-1.08483 -1.54096,-0.085 -5.19037,1.91911 -6.97212,2.44935"
       id="path1329" /><path
       style="fill:none;stroke:#ff0000;stroke-width:0.410001"
       d="m 77.408872,162.56854 c -0.5339,0.25144 -1.103008,0.43875 -1.601703,0.7543 -2.083871,1.31859 -2.997404,5.20206 -1.733613,7.33112 0.413991,0.69744 1.025062,1.28049 1.677082,1.76286 0.691174,0.51134 2.195129,0.65423 2.967866,0.41529 2.467742,-0.76307 3.124599,-3.838 2.835963,-6.04288 -0.103349,-0.78949 -0.150239,-1.65236 -0.593572,-2.31374 -1.907323,-2.84545 -1.693733,-2.48063 -3.552023,-1.90695 -0.699143,0.21584 -1.433401,0.33628 -2.101056,0.63565 -0.742215,0.3328 -1.714929,1.18145 -1.187151,1.22892"
       id="path1331" /><path
       style="fill:none;stroke:#ff0000;stroke-width:0.410001"
       d="m 72.792192,171.75575 c -1.015111,2.85983 -2.279663,5.62667 -3.617968,8.34815 -0.348023,0.70772 -0.969127,1.87949 -1.309632,2.62733 -0.06026,0.13235 -0.186365,0.54337 -0.10364,0.42377 1.477222,-2.13561 -0.261644,-4.01966 -2.609837,-3.0511 -2.211493,0.91218 -3.934447,5.51605 -1.526331,7.11923 2.538712,1.69013 6.518511,-0.86845 6.491621,-3.77149 -0.0181,-1.9552 -2.753169,-2.23642 -4.145595,-2.40698 -0.104314,-0.0128 -1.121992,0.0654 -1.281364,-0.34749 -0.04445,-0.11517 0.04397,-0.24296 0.06595,-0.36444"
       id="path1333" /><path
       style="fill:none;stroke:#ff0000;stroke-width:0.410001"
       d="m 79.312075,171.39131 c 0.318434,1.6351 0.891818,3.2096 1.54518,4.73768 1.902444,4.44943 -0.06467,-0.45902 1.686505,3.72065 0.02556,0.061 1.271061,3.01326 1.196565,3.25451 -0.04218,0.1366 -0.380791,-0.22608 -1.036397,-0.13561 -0.308258,0.0425 -0.605663,0.16835 -0.876229,0.32207 -2.184672,1.24117 -2.772423,4.60138 -2.807695,6.78022 -0.02093,1.29232 0.809969,3.57991 2.572153,3.33926 2.946415,-0.40238 6.418013,-7.42919 4.23981,-10.17034 -1.377707,-1.73376 -4.243512,-0.59291 -5.361009,0.79668"
       id="path1335" /><path
       style="fill:none;stroke:#ff0000;stroke-width:0.410001"
       d="m 82.930051,196.01201 c -1.035664,2.26711 -2.090936,4.51828 -3.288207,6.70394 -0.155051,0.28305 -0.568605,1.13384 -0.339188,0.90685 0.240371,-0.23784 -0.664779,-0.23121 -0.998712,-0.17798 -0.715015,0.11398 -1.375595,0.36787 -1.969156,0.79667 -1.509403,1.09044 -1.882275,3.36328 -1.008131,4.975 1.358712,2.50517 5.347493,1.88098 5.945153,-0.856 0.229698,-1.05189 -1.001046,-2.09836 -1.865514,-2.31375 -0.466331,-0.11619 -0.969499,-0.0648 -1.441535,0.0254 -0.443579,0.0848 -0.854154,0.29872 -1.262522,0.49158 -0.07976,0.0377 -0.780246,0.41406 -0.847961,0.67802 -0.0149,0.058 0.113062,-0.0395 0.16959,-0.0593"
       id="path1337" /><path
       style="fill:none;stroke:#ff0000;stroke-width:0.410001"
       d="m 83.683794,194.13897 c 0.607935,1.11977 1.406723,2.12425 2.185855,3.12738 1.53479,1.97603 2.964399,4.05822 4.560154,5.98354 0.589778,0.71158 0.950445,1.12606 1.620547,1.62725 0.151688,0.11345 0.559287,0.45091 0.499359,0.27122 -0.762056,-2.28498 -2.243305,-3.44051 -3.617974,-0.43224 -0.601326,1.31591 -1.04331,4.42284 0.282657,5.53436 0.643454,0.53938 1.501701,1.02965 2.336604,0.94075 2.708138,-0.28838 5.772309,-3.6418 5.417535,-6.45816 -0.05245,-0.41637 -0.245685,-0.87557 -0.593572,-1.11027 -2.309966,-1.55843 -6.253358,2.68268 -7.311316,3.50877 -0.598739,0.46751 -1.675945,1.57425 -1.545174,0.83905"
       id="path1339" /><path
       style="fill:none;stroke:#ff0000;stroke-width:0.410001"
       d="m 98.15472,142.19297 c 0.407196,1.69747 0.07721,3.45414 0.57473,5.12755"
       id="path1373" /><path
       style="fill:none;stroke:#ff0000;stroke-width:0.410001"
       d="m 111.66558,162.40652 c 0.66001,1.38704 0.61148,2.96257 1.12119,4.4241"
       id="path1375" /><path
       style="fill:none;stroke:#ff0000;stroke-width:0.410001"
       d="m 99.982551,165.24574 c -1.289248,1.04375 -1.40667,0.77149 -1.714769,2.49173 -0.319379,1.78321 0.05782,3.37315 2.251808,3.49182 0.41274,0.0223 0.79649,-0.28983 1.10235,-0.56785 1.5432,-1.4027 0.57861,-3.23339 -0.50877,-4.52579 -0.30878,-0.367 -0.65102,-0.88679 -1.130619,-0.88991 -0.69415,-0.005 -1.818994,1.20436 -2.477934,1.59335"
       id="path1377" /><path
       style="fill:none;stroke:#ff0000;stroke-width:0.410001"
       d="m 76.993359,150.46485 c -0.342325,0.26273 -0.778899,0.43511 -1.026974,0.7882 -0.322705,0.45931 -0.830431,2.85081 -0.857388,3.18671 -0.317237,3.95283 3.686736,0.13535 4.183284,-1.45775 1.088362,-3.49186 -4.232863,-1.10623 -5.06893,0.87295"
       id="path1379" /><path
       style="fill:none;stroke:#ff0000;stroke-width:0.410001"
       d="m 70.190822,168.93249 c -0.342326,-0.0339 -0.69136,-0.17718 -1.026979,-0.1017 -1.87018,0.42057 -2.065382,5.82358 -1.743033,7.06838 0.139382,0.53824 0.383036,1.07742 0.763169,1.48317 1.8498,1.97447 3.990815,-1.07387 4.35287,-2.66971 0.344776,-1.51969 -0.08212,-4.73266 -2.346027,-4.4241 -0.588548,0.0802 -0.710195,0.30327 -0.895071,0.56784"
       id="path1381" /><path
       style="fill:none;stroke:#ff0000;stroke-width:0.410001"
       d="m 84.888825,172.19547 c 0.01465,1.81902 0.804018,3.34063 1.45096,5.00889"
       id="path1383" /><path
       style="fill:none;stroke:#ff0000;stroke-width:0.410001"
       d="m 77.0122,197.2145 c -1.43309,-1.42746 -1.615268,0.25472 -1.554595,1.40689 0.03426,0.65054 0.09121,1.31267 0.292079,1.93236 0.206412,0.63682 0.468807,1.28828 0.913913,1.7883 2.164161,2.43115 5.008527,-4.76235 2.506197,-5.54284 -1.204215,-0.3756 -3.441891,2.61138 -2.788849,2.94092 0.342401,0.17278 0.766303,-0.0339 1.149455,-0.0508"
       id="path1385" /><path
       style="fill:none;stroke:#ff0000;stroke-width:0.410001"
       d="m 87.903801,192.90058 c 0.827389,2.92995 1.601187,5.82175 3.335316,8.35663"
       id="path1387" /></g></svg>
