<?xml version="1.0" encoding="UTF-8" standalone="no"?>
<!-- Created with Inkscape (http://www.inkscape.org/) -->

<svg
   width="103.95765mm"
   height="15.431357mm"
   viewBox="0 0 103.95765 15.431358"
   version="1.1"
   id="svg12"
   inkscape:version="1.2.1 (9c6d41e410, 2022-07-14, custom)"
   sodipodi:docname="huffman_start.svg"
   xml:space="preserve"
   xmlns:inkscape="http://www.inkscape.org/namespaces/inkscape"
   xmlns:sodipodi="http://sodipodi.sourceforge.net/DTD/sodipodi-0.dtd"
   xmlns="http://www.w3.org/2000/svg"
   xmlns:svg="http://www.w3.org/2000/svg"><sodipodi:namedview
     id="namedview14"
     pagecolor="#000000"
     bordercolor="#ffffff"
     borderopacity="1"
     inkscape:showpageshadow="0"
     inkscape:pageopacity="0"
     inkscape:pagecheckerboard="0"
     inkscape:deskcolor="#000000"
     inkscape:document-units="mm"
     showgrid="true"
     inkscape:zoom="2.1357159"
     inkscape:cx="226.15368"
     inkscape:cy="34.180576"
     inkscape:window-width="1366"
     inkscape:window-height="746"
     inkscape:window-x="0"
     inkscape:window-y="0"
     inkscape:window-maximized="1"
     inkscape:current-layer="layer1"
     inkscape:lockguides="true" /><defs
     id="defs9"><rect
       x="587.26367"
       y="362.45731"
       width="66.575974"
       height="20.973427"
       id="rect1884" /></defs><g
     inkscape:label="Layer 1"
     inkscape:groupmode="layer"
     id="layer1"
     transform="translate(-42.637752,-127.3199)"><path
       style="fill:none;stroke:#ff7f2a;stroke-width:0.410001"
       d="m 46.317848,132.72496 c -0.235399,0.0679 -0.498032,0.0745 -0.706196,0.20376 -0.753686,0.46779 -1.474284,1.67543 -1.865422,2.41515 -1.096164,2.07306 -1.337178,4.517 0.06662,6.53828 0.220476,0.31745 0.657304,0.43514 1.032642,0.52738 2.331116,0.57284 4.669394,-0.74503 6.17588,-2.44512 1.527616,-1.72393 1.837703,-5.76616 0.0067,-7.41325 -1.331306,-1.19756 -3.344126,-0.45316 -4.710189,0.1738 z"
       id="path769" /><path
       style="fill:none;stroke:#ff7f2a;stroke-width:0.410001"
       d="m 63.406237,131.98754 c -0.0644,-0.20176 -0.0258,-0.47553 -0.193204,-0.60528 -0.310849,-0.24095 -0.797457,0.47136 -1.245836,1.54617 -0.549124,1.3163 -0.56252,3.2093 -0.419719,4.48871 0.278006,2.49076 3.095562,3.72632 5.156557,2.49306 1.208754,-0.7233 2.046227,-1.89767 2.438371,-3.24218 0.471548,-1.61676 0.541308,-5.23783 -1.165886,-6.32254 -1.408515,-0.89493 -3.701201,0.72799 -4.570283,1.64206 -0.288057,0.30298 -0.390851,0.73913 -0.586274,1.1087"
       id="path771" /><path
       style="fill:none;stroke:#ff7f2a;stroke-width:0.410001"
       d="m 81.860585,130.53126 c -0.413059,0.10388 -0.92157,0.0279 -1.239176,0.31164 -0.955992,0.8542 -1.521213,4.17459 -1.385742,5.41161 0.466868,4.26306 5.220769,3.07601 6.968684,0.51539 0.972444,-1.42459 1.420045,-2.8632 1.292468,-4.60257 -0.37006,-5.04541 -4.3429,-2.76489 -6.888734,-1.06674 -0.778616,0.51936 -2.293604,1.59588 -2.551631,2.70281"
       id="path773" /><path
       style="fill:none;stroke:#ff7f2a;stroke-width:0.410001"
       d="m 44.911919,136.66203 c 1.773413,0.29476 0.711455,-1.26554 0.07329,-0.82702 -0.567897,0.39022 0.16127,0.0593 -0.07329,0.82702 -0.29305,0.95916 -1.478964,1.30558 0.106596,1.69 0.447515,0.10851 1.804274,-0.56463 2.151897,-0.14982 0.06965,0.0831 -0.08439,0.19977 -0.126583,0.29965"
       id="path775" /><path
       style="fill:none;stroke:#ff7f2a;stroke-width:0.410001"
       d="m 47.470212,135.10387 c 0.195424,-0.20976 0.37132,-0.43957 0.586274,-0.62926 1.497935,-1.32187 0.130442,2.09929 0.23984,2.21738 0.03867,0.0418 1.163774,-0.51702 1.439038,0.024 0.210879,0.41446 0.382913,0.86687 0.419722,1.33043 0.03647,0.45924 -0.774219,2.60099 -1.325781,1.35441 -0.174474,-0.39433 -0.251723,-0.82492 -0.38641,-1.23455"
       id="path777" /><path
       style="fill:none;stroke:#ff7f2a;stroke-width:0.410001"
       d="m 47.710052,138.87941 c -0.350911,0.65132 -0.972472,1.63728 -0.826115,2.42714"
       id="path779" /><path
       style="fill:none;stroke:#ff7f2a;stroke-width:0.410001"
       d="m 63.452872,134.03713 c 0.493073,0.79467 0.757796,0.97899 0.839441,1.86979 0.04303,0.46948 0.07475,0.94782 0.0067,1.41433 -0.334915,2.29476 -1.486247,-0.97107 -0.666224,-1.93572"
       id="path781" /><path
       style="fill:none;stroke:#ff7f2a;stroke-width:0.410001"
       d="m 65.684717,134.53454 c -0.06712,-0.20208 0.237821,-1.62354 0.532977,-1.4383 0.442918,0.27797 0.02162,2.37693 -0.07995,2.7927 -0.04815,0.19711 -0.294326,0.67628 -0.106596,0.59929 0.332529,-0.13636 2.311318,-1.70091 2.485004,-0.65922"
       id="path783" /><path
       style="fill:none;stroke:#ff7f2a;stroke-width:0.410001"
       d="m 80.994493,132.63478 c -0.168775,0.43549 -0.44404,0.84358 -0.50633,1.30646 -0.04407,0.32745 0.06606,0.66876 0.199869,0.97086 0.590711,1.33363 2.763697,0.31245 2.318453,-0.83902 -0.100232,-0.25921 -0.332663,-0.44564 -0.486346,-0.6772"
       id="path785" /><path
       style="fill:none;stroke:#ff7f2a;stroke-width:0.410001"
       d="m 83.23966,131.26839 c 1.909056,-2.21645 0.962967,1.36594 0.659561,2.16345 -0.08293,0.21799 -0.377325,0.7889 -0.266491,0.79107 0.53661,0.0105 1.779818,-0.91815 2.238505,-0.26968"
       id="path787" /><path
       style="fill:none;stroke:#ff7f2a;stroke-width:0.410001"
       d="m 99.015796,130.3335 c -0.09721,0.39272 0.457112,-1.42341 0.04663,-1.32444 -0.200621,0.0484 -0.379741,0.19761 -0.499661,0.36557 -0.609033,0.85296 -1.226791,1.71503 -1.665552,2.66685 -1.211072,2.6272 -1.183476,6.12594 1.179206,8.07847 0.811152,0.67034 1.839896,0.90947 2.878081,0.81504 3.35468,-0.30516 4.53513,-5.1014 3.08461,-7.64099 -0.87954,-1.5399 -3.43164,-2.69905 -5.023314,-2.9605 -0.38906,-0.0639 -1.465512,0.58122 -1.10593,0.4195 0.04558,-0.0205 0.09327,-0.036 0.139907,-0.0539"
       id="path789" /><path
       style="fill:none;stroke:#ff7f2a;stroke-width:0.410001"
       d="m 99.961832,134.9121 c 0.0019,0.63988 0.05116,1.27699 0.126578,1.91174 0.003,0.0263 0.0542,0.75454 0.15989,0.54536"
       id="path791" /><path
       style="fill:none;stroke:#ff7f2a;stroke-width:0.410001"
       d="m 101.27429,136.87178 c -0.0388,0.0472 -0.36347,2.17377 -0.28648,1.50423"
       id="path793" /><path
       style="fill:none;stroke:#ff7f2a;stroke-width:0.410001"
       d="m 101.81392,135.35557 c 0.0178,-0.22973 2.7e-4,-0.46495 0.0533,-0.68918 0.10542,-0.4461 0.45707,-0.9398 0.57296,-0.86299 0.4029,0.26705 -0.2782,2.56022 -0.39974,3.04441 -0.0961,0.38297 -0.24997,0.85123 -0.11325,0.87497 0.62606,0.10868 1.90674,-1.19059 2.47834,-0.90493"
       id="path795" /><path
       style="fill:none;stroke:#ff7f2a;stroke-width:0.410001"
       d="m 113.23297,129.68626 c -0.32201,0.03 -0.68938,-0.0776 -0.96602,0.0899 -1.26846,0.768 -1.91204,3.94369 -2.0453,5.12396 -0.0785,0.69476 -0.1362,1.41174 0,2.09752 0.31437,1.58284 0.72703,3.28234 2.2918,4.0692 4.16595,2.0949 11.36997,-5.05297 6.80878,-9.07329 -1.78327,-1.57182 -3.01064,-1.4461 -4.95002,-1.94171 -1.22175,-0.31222 -2.32357,-0.73 -3.60426,-0.27568"
       id="path797" /><path
       style="fill:none;stroke:#ff7f2a;stroke-width:0.410001"
       d="m 113.38669,133.82475 c -0.26205,0.30764 -0.54471,0.59884 -0.78614,0.92291 -0.32795,0.4402 0.54713,0.3496 0.68621,0.52738 0.54413,0.69556 0.62949,1.23389 0.59959,2.05557 -0.0314,0.86318 -0.82175,2.96114 -1.00599,0.70717"
       id="path799" /><path
       style="fill:none;stroke:#ff7f2a;stroke-width:0.410001"
       d="m 114.06624,135.311 c 0.26897,0.68274 0.90889,2.85868 0.65955,3.6437"
       id="path801" /><path
       style="fill:none;stroke:#ff7f2a;stroke-width:0.410001"
       d="m 114.09288,136.00018 c -0.25915,-0.42456 -0.5223,-3.19681 0.57296,-2.98447 1.06237,0.20596 0.612,2.48272 0.25982,3.11632"
       id="path803" /><path
       style="fill:none;stroke:#ff7f2a;stroke-width:0.410001"
       d="m 116.60454,136.94108 c 0.0811,0.309 -0.81955,3.87078 -0.17988,1.79188"
       id="path805" /><path
       style="fill:none;stroke:#ff7f2a;stroke-width:0.410001"
       d="m 116.92433,134.29819 c -0.0289,-0.25769 -0.093,-0.51386 -0.0866,-0.77308 0,-1.4e-4 0.0526,-1.38417 0.52631,-1.30047 0.0811,0.0143 0.12269,0.12319 0.13991,0.20376 0.29043,1.35851 -0.16724,0.17345 -0.57961,1.86979 -0.10247,0.42149 0.0705,0.86736 0.0466,1.30047 -0.0198,0.35944 -0.31967,0.50482 -0.1066,0.53337 0.319,0.0427 1.95996,-1.16854 2.01866,-0.32362"
       id="path807" /><path
       style="fill:none;stroke:#ff7f2a;stroke-width:0.410001"
       d="m 131.64117,135.04731 c -0.0403,0.30954 0.014,0.729 -0.36642,0.88695 -0.74158,0.30788 -1.25278,-1.23807 -1.33911,-1.63007 -0.43091,-1.95655 -0.44625,-5.26002 1.49234,-6.52031 2.0306,-1.32012 4.47049,2.69889 4.78347,4.14111 0.20914,0.96373 0.26809,1.97507 0.15323,2.95452 -0.15744,1.34254 -1.59065,2.08345 -2.79147,1.7739 -0.34958,-0.0901 -0.62845,-0.36252 -0.90606,-0.59329 -0.36955,-0.3072 -0.81841,-0.57939 -1.02598,-1.01281 -0.25083,-0.52374 -0.25526,-1.4993 -0.27315,-2.17543"
       id="path809" /><path
       style="fill:none;stroke:#ff7f2a;stroke-width:0.410001"
       d="m 132.20079,129.75555 c 0.14885,0.1634 0.0737,2.91835 0.63958,3.14629 0.0805,0.0324 0.16433,-0.0559 0.2465,-0.0839"
       id="path817" /><path
       style="fill:none;stroke:#ff7f2a;stroke-width:0.410001"
       d="m 133.30006,131.7512 c -0.23318,0.11187 -0.8114,0.10243 -0.69953,0.3356 0.11187,0.23318 0.44315,-0.30162 0.69953,-0.3356 0.26591,-0.0352 0.52502,0.12221 0.7928,0.13784 0.23513,0.0137 0.58868,-0.2281 0.7062,-0.024 0.0503,0.0874 -0.0489,0.19576 -0.0733,0.29365"
       id="path819" /><path
       style="fill:none;stroke:#ff7f2a;stroke-width:0.410001"
       d="m 134.81238,129.87541 c -0.38905,1.79405 -0.24114,3.64721 0.0267,5.44757"
       id="path821" /><path
       style="fill:none;stroke:#ff7f2a;stroke-width:0.410001"
       d="m 146.42684,127.47103 c -0.37004,0.47009 -0.82363,1.18991 0,0 z"
       id="path823" /><path
       style="fill:none;stroke:#ffb380;stroke-width:0.410001"
       d="m 132.96632,130.07056 c -0.0977,-0.1698 -0.19428,-0.34027 -0.29314,-0.5094 -0.0113,-0.0194 -0.1223,-0.19833 -0.15323,-0.17979 -0.23473,0.14077 0.44295,0.41551 0.44637,0.68919 0.005,0.36527 -0.30646,0.66322 -0.45969,0.99483 0.02,0.38155 0.0291,0.76382 0.06,1.14464 0.0358,0.44249 0.0826,0.88422 0.13991,1.32444 0.0449,0.34514 0.097,0.68976 0.16655,1.03079 0.0177,0.0864 0.1439,0.30345 0.15323,0.21574 0.0201,-0.18872 0.004,-0.37986 -0.007,-0.56933 -0.0682,-1.16608 -0.21288,-2.36293 -0.41973,-3.51185 -0.065,-0.36109 -0.15228,-0.71815 -0.2465,-1.07274 -0.015,-0.0564 -0.022,-0.14837 -0.0799,-0.15581 -0.18755,-0.0241 -0.0761,0.37448 -0.0666,0.56333 0.0669,1.3302 0.2487,2.64376 0.47302,3.95533 0.039,0.2283 0.0461,0.90037 0.12658,0.6832 0.18979,-0.51221 -0.11168,-1.09014 -0.0933,-1.63607 0.0335,-0.99186 0.36506,-1.9804 0.25317,-2.9665 -0.0488,-0.42991 -0.49995,-0.70807 -0.71286,-1.08472 -0.0381,-0.0674 -0.10933,-0.39092 -0.15324,-0.5094"
       id="path1037" /><path
       style="fill:none;stroke:#ffb380;stroke-width:0.410001"
       d="m 134.31209,134.55926 c -1.15512,1.0138 -0.74333,2.71097 0,0 0.0739,-0.26964 -0.0339,-0.56829 -0.13991,-0.82702 -0.0254,-0.0619 -0.15106,0.0779 -0.13991,0.14383 0.041,0.24264 0.18655,0.45546 0.27982,0.68319 z"
       id="path1039" /><path
       style="fill:none;stroke:#ffb380;stroke-width:0.410001"
       d="m 134.6452,129.51322 c -0.0377,-0.17979 0.0665,-0.57712 -0.11326,-0.53937 -0.17978,0.0377 0.1211,0.35583 0.11326,0.53937 -0.0213,0.49941 -0.18603,0.98656 -0.19986,1.48624 -0.0264,0.9524 0.12356,1.90154 0.17987,2.85264 0.0161,0.27178 0.0337,0.54348 0.0533,0.81503 0.008,0.11463 0.0398,0.45632 0.0466,0.3416 0.0254,-0.42311 0.0356,-0.84699 0.0533,-1.2705 0.0312,-0.74779 0.15209,-1.65947 0.0999,-2.43313 -0.002,-0.0362 -0.0118,0.0717 -0.0133,0.10787 -0.007,0.1697 -0.0141,0.33955 -0.0133,0.5094 0.002,0.46173 -0.12106,2.56975 0.13991,2.93654 0.034,0.0478 0.0438,-0.10988 0.0533,-0.1678 0.0395,-0.24249 0.0622,-0.48743 0.0933,-0.73114"
       id="path1041" /><path
       style="fill:none;stroke:#ffb380;stroke-width:0.410001"
       d="m 135.69783,132.3239 c -0.18876,0.032 -0.38811,0.0258 -0.56629,0.0959 -0.097,0.0381 -0.15974,0.13565 -0.22651,0.21574 -0.47302,0.56734 0.7392,0.78176 1.03264,1.11469 0.29939,0.33967 0.36988,0.72661 0.45969,1.13865"
       id="path1043" /></g></svg>
