<?xml version="1.0" encoding="UTF-8" standalone="no"?>
<!-- Created with Inkscape (http://www.inkscape.org/) -->

<svg
   width="2026.8964mm"
   height="1181.6838mm"
   viewBox="0 0 2026.8963 1181.6839"
   version="1.1"
   id="svg12"
   inkscape:version="1.2.1 (9c6d41e410, 2022-07-14, custom)"
   sodipodi:docname="i_unit_derivative.svg"
   xmlns:inkscape="http://www.inkscape.org/namespaces/inkscape"
   xmlns:sodipodi="http://sodipodi.sourceforge.net/DTD/sodipodi-0.dtd"
   xmlns="http://www.w3.org/2000/svg"
   xmlns:svg="http://www.w3.org/2000/svg">
  <sodipodi:namedview
     id="namedview14"
     pagecolor="#505050"
     bordercolor="#eeeeee"
     borderopacity="1"
     inkscape:showpageshadow="0"
     inkscape:pageopacity="0"
     inkscape:pagecheckerboard="0"
     inkscape:deskcolor="#505050"
     inkscape:document-units="mm"
     showgrid="true"
     inkscape:zoom="0.19291862"
     inkscape:cx="3436.6822"
     inkscape:cy="1010.7889"
     inkscape:window-width="1366"
     inkscape:window-height="746"
     inkscape:window-x="0"
     inkscape:window-y="0"
     inkscape:window-maximized="1"
     inkscape:current-layer="layer1"
     inkscape:lockguides="false"
     showguides="true">
    <inkscape:grid
       type="xygrid"
       id="grid344"
       color="#969696"
       opacity="0.39215686"
       empcolor="#000000"
       empopacity="0.17254902"
       dotted="false"
       originx="-41.543532"
       originy="176.95827" />
    <sodipodi:guide
       position="232.30734,998.73205"
       orientation="0,-1"
       id="guide2196"
       inkscape:locked="false" />
  </sodipodi:namedview>
  <defs
     id="defs9" />
  <g
     inkscape:label="Layer 1"
     inkscape:groupmode="layer"
     id="layer1"
     transform="translate(-146.54353,28.458221)">
    <path
       style="fill:none;stroke:#ffffff;stroke-width:1.5;stroke-dasharray:none"
       d="m 206.07477,83.038183 c -2.13889,0.486527 -4.66152,0.143899 -6.41666,1.459579 -10.74265,8.052856 -9.48718,24.120098 -5.31029,34.963818 1.71042,4.44044 7.5157,11.69819 6.71165,16.85164 -0.26094,1.67247 -3.41564,-0.24269 -5.0153,-0.79614"
       id="path6322" />
    <path
       style="fill:none;stroke:#ffffff;stroke-width:1.5;stroke-dasharray:none"
       d="m 180.55571,123.37594 c 2.92559,-2.29995 5.27718,-5.63427 8.77677,-6.89986 4.53729,-1.64085 19.38927,-1.1943 24.33898,0.33174 2.33556,1.43746 4.67112,2.87493 7.00667,4.31239 0.0492,0.0885 0.0983,0.17694 0.1475,0.2654"
       id="path6324" />
    <path
       style="fill:none;stroke:#ffffff;stroke-width:1.5;stroke-dasharray:none"
       d="m 263.75073,82.175694 c -15.86278,12.243234 -25.5645,39.801246 -13.42329,57.985556 2.39929,3.59351 6.21571,6.05241 9.73556,8.5585 0.62244,0.44318 11.89147,7.78787 15.04593,6.36911"
       id="path6326" />
    <path
       style="fill:none;stroke:#ffffff;stroke-width:1.5;stroke-dasharray:none"
       d="m 301.43925,102.14556 c 11.64195,-19.938401 -11.65435,19.85448 -12.24322,21.16404 -1.01067,2.24761 -1.80481,4.58689 -2.65518,6.89991 -0.18274,0.49707 -0.49578,2.05283 -0.44252,1.52592 1.17522,-11.6269 -0.13387,-20.24582 -1.40132,-31.64658 -0.20723,-1.864026 2.40121,2.88177 3.61393,4.31244 1.78617,2.10718 3.72278,4.08221 5.60536,6.10371 5.64916,6.06605 15.19068,16.85205 18.21735,22.22559"
       id="path6328" />
    <path
       style="fill:none;stroke:#ffffff;stroke-width:1.5;stroke-dasharray:none"
       d="m 340.38159,124.10575 c 0.20376,18.50862 0.61912,7.5833 -0.88505,22.82269 -0.15686,1.5893 -1.96199,4.88708 -0.36877,4.77685 1.80097,-0.1246 1.52427,-3.27302 2.28641,-4.90953"
       id="path6330" />
    <path
       style="fill:none;stroke:#ffffff;stroke-width:1.5;stroke-dasharray:none"
       d="m 363.02422,106.85603 c -0.82503,0.78393 3.47505,23.30793 -2.65519,24.01691 -1.25976,0.1457 -2.36012,-0.92883 -3.54018,-1.39324"
       id="path6332" />
    <path
       style="fill:none;stroke:#ffffff;stroke-width:1.5;stroke-dasharray:none"
       d="m 341.63542,113.09247 c 14.62029,2.10714 10.54934,0.6475 22.64262,5.17493 1.18234,0.44264 2.31507,1.00806 3.46645,1.52591 0.32387,0.14567 1.25323,0.66303 0.95883,0.46442 -0.58791,-0.39664 -1.22925,-0.70767 -1.84388,-1.06151"
       id="path6334" />
    <path
       style="fill:none;stroke:#ffffff;stroke-width:1.5;stroke-dasharray:none"
       d="m 368.99831,75.34215 c 2.48307,-1.570164 4.58513,-5.364803 7.4492,-4.710496 3.32124,0.758751 4.93642,4.863306 6.49041,7.89505 10.09724,19.699189 7.54674,43.961846 2.4339,64.553706 -2.41373,9.72124 -0.87249,7.74329 -4.64652,11.4777"
       id="path6336" />
    <path
       style="fill:none;stroke:#ffffff;stroke-width:1.5;stroke-dasharray:none"
       d="m 410.07956,119.5943 c 5.85248,0.77821 47.00244,-10.23582 20.57752,2.32206"
       id="path6338" />
    <path
       style="fill:none;stroke:#ffffff;stroke-width:1.5;stroke-dasharray:none"
       d="m 416.49616,128.28548 c 11.7693,0.5973 23.30151,-0.53521 35.0334,1.3269"
       id="path6340" />
    <path
       style="fill:none;stroke:#ffffff;stroke-width:1.5;stroke-dasharray:none"
       d="m 464.65786,109.57617 c 2.13887,-2.52111 4.00871,-5.29776 6.41657,-7.56333 1.90424,-1.7917 4.14116,-3.223675 6.41668,-4.511458 21.28901,-12.048154 -6.83684,29.938108 -6.26909,32.177338 0.4241,1.67272 27.49359,-5.5932 31.49314,-7.62968"
       id="path6342" />
    <path
       style="fill:none;stroke:#ffffff;stroke-width:1.5;stroke-dasharray:none"
       d="m 514.14704,104.33495 c -0.12293,3.02975 0.13655,6.09941 -0.36875,9.08925 -1.80002,10.6507 -6.1363,20.83621 -7.89176,18.51025 -1.76897,-2.34389 -2.21263,-5.44029 -3.31896,-8.16043"
       id="path6344" />
    <path
       style="fill:none;stroke:#ffffff;stroke-width:1.5;stroke-dasharray:none"
       d="m 500.28126,106.78969 c 2.04054,0.17692 4.29403,-0.39397 6.12158,0.53076 4.66424,2.36006 29.49427,23.28624 31.56691,27.73221 0.99698,2.13866 -3.59921,-3.07596 -5.16281,-4.84315"
       id="path6346" />
    <path
       style="fill:none;stroke:#ffffff;stroke-width:1.5;stroke-dasharray:none"
       d="m 528.82419,89.407294 c -3.05684,-4.774271 19.09405,-26.653675 20.43001,-16.718949 1.34864,10.028885 -10.25128,19.190985 -8.70307,28.661065 0.26773,1.6377 15.05535,-2.079471 17.62739,-1.06155"
       id="path6348" />
    <path
       style="fill:none;stroke:#ffffff;stroke-width:1.5;stroke-dasharray:none"
       d="m 573.22439,118.2674 c 5.96112,1.21359 27.01058,-1.62002 30.23929,3.31723"
       id="path6372" />
    <path
       style="fill:none;stroke:#ffffff;stroke-width:1.5;stroke-dasharray:none"
       d="m 635.54689,104.20223 c -1.86999,4.33072 -14.92924,30.65142 -15.85719,30.65142 -1.7032,0 -1.96998,-6.16757 -2.72899,-11.47771 m 0,0 c 0.0246,-4.13551 0.16732,-8.272 0.0738,-12.40652 -0.0541,-2.394 -0.32302,-4.77846 -0.51631,-7.16526 -0.0772,-0.95289 -0.96032,-3.53933 -0.29499,-2.85282 1.41967,1.46485 1.72031,3.71117 2.80264,5.44028 1.99659,3.18972 4.06204,6.35293 6.41666,9.28831 5.44212,6.78441 17.12688,18.95991 24.85524,22.75635 0.87103,0.42788 1.7701,-0.79615 2.65515,-1.19423"
       id="path6374" />
    <path
       style="fill:none;stroke:#ffffff;stroke-width:1.5;stroke-dasharray:none"
       d="m 670.72772,106.98871 c -0.68213,4.52265 0.30035,44.92262 -11.65321,28.19667"
       id="path6376" />
    <path
       style="fill:none;stroke:#ffffff;stroke-width:1.5;stroke-dasharray:none"
       d="m 649.70774,116.27702 c 4.96787,1.84019 9.60117,5.16615 13.71835,8.16047"
       id="path6378" />
    <path
       style="fill:none;stroke:#ffffff;stroke-width:1.5;stroke-dasharray:none"
       d="m 708.12128,108.78007 c -1.06072,-20.617109 1.99266,19.23747 0.1475,22.88902 -1.19554,2.36601 -2.48562,1.60025 -4.49908,1.39324 1.8826,-19.53863 12.47446,-10.08572 26.92043,-11.94211"
       id="path6380" />
    <path
       style="fill:none;stroke:#ffffff;stroke-width:1.5;stroke-dasharray:none"
       d="m 775.164,111.89828 c 1.84388,-1.924 3.04098,-4.82414 5.53161,-5.77202 6.4248,-2.44513 6.47462,11.02722 5.38412,13.33532 -1.26241,2.67191 -3.18725,5.04342 -5.31038,7.09892 -0.87243,0.84464 -2.31026,1.87726 -3.3927,1.3269 -2.11145,-1.07354 3.65387,-4.32474 5.97411,-3.84798 9.22248,1.89502 14.03525,5.12393 11.80076,15.59108 -2.23613,10.47479 -26.27463,23.55814 -15.85727,-4.17976"
       id="path6382" />
    <path
       style="fill:none;stroke:#ffffff;stroke-width:1.5;stroke-dasharray:none"
       d="m 823.17814,105.06472 c 1.86847,-1.06152 3.74632,-2.10664 5.60536,-3.18456 7.60513,-4.409631 11.41981,-8.323903 5.90034,2.45479 -8.54779,16.69255 -2.62731,4.54944 -11.06313,21.82748 -1.54051,3.15521 -4.26929,12.00627 -5.75286,8.82389 -0.93988,-2.01611 -0.78668,-4.37875 -1.18004,-6.56812"
       id="path6384" />
    <path
       style="fill:none;stroke:#ffffff;stroke-width:1.5;stroke-dasharray:none"
       d="m 807.98476,100.885 c -7.36486,-14.341006 -3.56658,-3.338176 0,0 4.56441,4.27212 18.9365,9.06484 17.55355,17.97949"
       id="path6386" />
    <path
       style="fill:none;stroke:#ffffff;stroke-width:1.5;stroke-dasharray:none"
       d="m 207.1811,250.36035 c -2.18805,2.60958 -5.0079,4.79962 -6.56416,7.82873 -4.18122,8.1384 -3.81908,23.09739 0.0737,31.24851 6.46436,13.53561 21.15847,16.42899 29.7968,2.9855 5.32806,-8.29185 6.51658,-20.62904 3.90897,-30.05429 -0.61075,-2.20752 -3.90792,-5.32566 -3.76148,-7.82873"
       id="path6392" />
    <path
       style="fill:none;stroke:#ffffff;stroke-width:1.5;stroke-dasharray:none"
       d="m 201.57574,221.30123 c 4.07054,7.68049 1.79006,6.6429 12.68578,8.62484 5.59889,1.01845 11.27342,1.83757 16.96352,1.92404 15.33264,0.23298 0.9637,-22.59553 -2.65518,-27.20147 -1.11577,-1.4201 -4.16207,-2.98612 -3.09767,-4.44512 1.26346,-1.73186 6.27937,0.94621 6.41662,0.99517"
       id="path6394" />
    <path
       style="fill:none;stroke:#ffffff;stroke-width:1.5;stroke-dasharray:none"
       d="m 279.31293,262.96589 c 2.01595,-0.66344 3.93265,-1.81664 6.04784,-1.99033 7.28058,-0.59784 34.8793,-0.80933 13.42334,8.49217"
       id="path6396" />
    <path
       style="fill:none;stroke:#ffffff;stroke-width:1.5;stroke-dasharray:none"
       d="m 274.9614,277.76087 c 12.43457,2.47645 24.97991,0.42854 37.46728,1.26052"
       id="path6398" />
    <path
       style="fill:none;stroke:#ffffff;stroke-width:1.5;stroke-dasharray:none"
       d="m 379.84021,218.18301 c -1.01737,3.29257 -11.42065,-0.80581 -13.64458,3.11822 -2.97369,5.24694 0.41397,27.84494 0.59006,33.50424 0.72439,23.28029 1.35897,46.78565 0.1475,70.06036 -0.32854,6.31182 -0.6158,9.55765 -1.18008,15.32573 -0.12814,1.30982 0.79451,4.03222 -0.51627,3.91432 -3.33945,-0.30038 3.39373,-10.66855 7.00667,-12.07479 9.99683,-3.89099 21.66903,-3.2027 32.15696,-2.78648 0.10453,0.004 11.60459,2.62117 8.2605,-0.19902"
       id="path6400" />
    <path
       style="fill:none;stroke:#ffffff;stroke-width:1.5;stroke-dasharray:none"
       d="m 430.87832,216.25902 c -1.12871,10.64901 -1.55167,21.30285 -1.99143,31.97828"
       id="path6402" />
    <path
       style="fill:none;stroke:#ffffff;stroke-width:1.5;stroke-dasharray:none"
       d="m 430.28825,282.27233 c -1.91762,5.39606 -7.39828,10.70299 -5.75283,16.18817 4.56014,15.2016 58.61483,-9.54326 19.10238,-15.06033 -4.4228,-0.61755 -8.89971,-0.75189 -13.34955,-1.12784 z"
       id="path6404" />
    <path
       style="fill:none;stroke:#ffffff;stroke-width:1.5;stroke-dasharray:none"
       d="m 437.14739,266.74758 c 0.44254,-2.34419 0.84386,-4.69654 1.32762,-7.03258 0.48374,-2.33604 -1.41557,4.64861 -1.32762,7.03258 0.28702,7.77997 2.08645,15.44691 2.50764,23.22076 0.46048,8.4988 -3.40423,22.59238 -2.13881,29.98794 0.0601,0.35134 0.23143,-0.76706 1.4751,-8.2931"
       id="path6406" />
    <path
       style="fill:none;stroke:#ffffff;stroke-width:1.5;stroke-dasharray:none"
       d="m 454.33221,211.88024 c -4.37528,-15.31681 25.59127,-5.96193 27.36289,1.39324 2.0171,8.37431 -0.41693,12.44629 -1.47511,21.29677 -1.17178,9.80049 -2.29666,19.93078 0,29.72255 3.15574,13.45438 6.90158,19.30388 13.86586,30.85047 0.14867,0.24651 8.8333,12.80121 9.66185,16.25453 2.37984,9.91865 -45.57779,16.29285 -48.23537,14.39685 -1.19166,-0.85016 1.86023,-2.29642 3.02387,-3.18455"
       id="path6408" />
    <path
       style="fill:none;stroke:#ffffff;stroke-width:1.5;stroke-dasharray:none"
       d="m 194.64281,416.621 c 9.87121,17.92124 4.16845,37.62526 1.40136,56.79138 -1.08564,7.51959 -1.70292,12.59346 -1.40136,12.53916 0.71102,-0.12798 0.39269,-4.09027 0.22128,-9.48732"
       id="path6410" />
    <path
       style="fill:none;stroke:#ffffff;stroke-width:1.5;stroke-dasharray:none"
       d="m 191.84013,426.24107 c 0.25402,-6.74042 -2.1774,-18.27948 5.82664,-23.02174 17.59779,-10.42644 38.24928,16.18967 42.99881,29.25815 2.08426,5.73492 3.02153,12.02126 2.65518,18.11218 -0.60129,9.99705 -5.40305,21.30346 -12.4645,28.59474 -7.41401,7.65532 -15.69305,12.84986 -25.29777,7.36423"
       id="path6412" />
    <path
       style="fill:none;stroke:#ffffff;stroke-width:1.5;stroke-dasharray:none"
       d="m 261.39057,484.89004 c -2.82847,6.54259 -4.2373,7.88722 -3.09766,16.25457 4.17219,30.63277 31.54522,12.0474 35.10712,-7.09896 1.06277,-5.71275 -1.43035,-11.11361 -7.59673,-8.95654"
       id="path6414" />
    <path
       style="fill:none;stroke:#ffffff;stroke-width:1.5;stroke-dasharray:none"
       d="m 267.14342,466.71155 c 8.86279,2.89192 6.40944,3.03276 16.15223,2.18937 5.13676,-0.44466 13.97574,-0.95004 13.86585,-4.04704 -0.22011,-6.20366 -6.7559,-13.18644 -10.10438,-18.04591 -0.65012,-0.9435 -3.03343,-3.113 -1.91759,-2.85279 2.51655,0.5869 4.6563,2.24333 7.00668,3.31722"
       id="path6416" />
    <path
       style="fill:none;stroke:#ffffff;stroke-width:1.5;stroke-dasharray:none"
       d="m 356.01754,392.93585 c 1.77011,-2.32209 7.63241,-5.19616 5.31033,-6.96625 -2.32208,-1.77011 -4.16361,4.28102 -5.31033,6.96625 -2.00578,4.69685 -2.59536,9.87978 -3.98275,14.79491 -8.97764,31.80538 -24.99283,71.67753 1.18008,100.71177 3.39066,3.76137 8.01464,6.1922 12.02197,9.28828"
       id="path6418" />
    <path
       style="fill:none;stroke:#ffffff;stroke-width:1.5;stroke-dasharray:none"
       d="m 400.93403,437.18796 c -0.27043,-2.1894 1.37808,-6.8386 -0.81129,-6.56817 -2.18941,0.27043 2.38704,5.0243 0.81129,6.56817 -3.1619,3.09788 -9.25991,1.64759 -12.39076,4.77682 -4.64111,4.63872 -6.3891,19.651 -5.60535,25.5429 0.47966,3.60598 2.00624,7.0726 3.83522,10.2171 0.63803,1.09696 7.93963,10.59203 8.55553,4.31241"
       id="path6420" />
    <path
       style="fill:none;stroke:#ffffff;stroke-width:1.5;stroke-dasharray:none"
       d="m 375.63621,465.91539 c 2.55049,-2.09116 35.49822,4.99467 31.05065,1.26055"
       id="path6422" />
    <path
       style="fill:none;stroke:#ffffff;stroke-width:1.5;stroke-dasharray:none"
       d="m 416.27491,393.66562 c 0.6146,-1.85767 3.7015,-4.95837 1.84383,-5.57297 -1.85764,-0.61463 -2.8263,3.8808 -1.84383,5.57297 2.62483,4.52091 9.1109,6.09428 11.35819,10.81426 3.42985,7.20363 3.99873,15.4972 4.94157,23.41978 3.1236,26.24788 0.888,59.01984 -14.30834,81.80345"
       id="path6424" />
    <path
       style="fill:none;stroke:#ffffff;stroke-width:1.5;stroke-dasharray:none"
       d="m 506.1816,428.03237 c 3.68956,4.03612 25.24125,-0.2097 24.78151,5.37396"
       id="path6426" />
    <path
       style="fill:none;stroke:#ffffff;stroke-width:1.5;stroke-dasharray:none"
       d="m 506.1816,445.083 c 13.5043,7.33494 26.61962,5.19774 40.93369,3.05191"
       id="path6428" />
    <path
       style="fill:none;stroke:#ffffff;stroke-width:1.5;stroke-dasharray:none"
       d="m 634.51433,502.53785 c -1.91011,7.20325 -3.409,25.45781 2.21258,31.77926"
       id="path6434" />
    <path
       style="fill:none;stroke:#ffffff;stroke-width:1.5;stroke-dasharray:none"
       d="m 648.08513,532.39306 c 3.58237,-6.17064 3.57478,-9.0134 2.80262,-15.52469"
       id="path6436" />
    <path
       style="fill:none;stroke:#ffffff;stroke-width:1.5;stroke-dasharray:none"
       d="m 654.64928,501.34365 c -0.36031,2.17723 3.23218,-10.18646 6.71163,-8.89024 6.30727,2.34969 8.28829,12.88619 9.66187,18.37757 1.55866,6.2313 1.25174,7.17695 1.54887,6.56817 1.58755,-3.25279 2.05793,-7.57097 5.16279,-9.95182 5.31458,-4.0753 6.17167,8.67492 8.113,9.81908 1.65555,0.97573 2.87845,-2.54751 4.35149,-3.78161 9.48413,-7.94581 18.49388,-0.99602 15.63595,9.28825"
       id="path6438" />
    <path
       style="fill:none;stroke:#ffffff;stroke-width:1.5;stroke-dasharray:none"
       d="m 624.5575,565.03487 c -0.86048,-2.41057 -0.17087,-8.09213 -2.5814,-7.23165 -2.92018,1.04238 8.85047,14.12404 8.85047,23.81793 0,1.31569 1.26336,-2.33522 2.13891,-3.31727 2.61454,-2.93256 4.51361,-4.61994 8.55549,-4.8432 6.53772,-0.3611 10.19397,5.62748 10.91565,11.14592"
       id="path6440" />
    <path
       style="fill:none;stroke:#ffffff;stroke-width:1.5;stroke-dasharray:none"
       d="m 661.50842,572.33279 c 4.40068,-1.48169 8.74257,-3.15103 13.20204,-4.44508 2.4111,-0.69964 4.91506,-1.02666 7.37545,-1.52598 19.08873,-3.87406 -5.83988,-8.45574 -6.26906,-11.54404 -0.11142,-0.80182 15.2859,-6.51513 17.40603,-1.79128 4.4432,9.89978 -6.84792,21.41529 -3.61402,27.93127 0.33917,0.68334 1.32763,-0.75192 1.99144,-1.1279"
       id="path6442" />
    <path
       style="fill:none;stroke:#ffffff;stroke-width:1.5;stroke-dasharray:none"
       d="m 712.84153,560.45702 c -0.66379,2.74227 -2.6664,5.48733 -1.99136,8.22685 0.55379,2.24753 3.02246,3.76266 5.16281,4.64412 15.8478,6.52666 32.61656,-17.91015 12.46449,-16.0555 -5.29661,0.48747 -10.42397,2.12302 -15.63594,3.18453 z"
       id="path6444" />
    <path
       style="fill:none;stroke:#ffffff;stroke-width:1.5;stroke-dasharray:none"
       d="m 729.58375,535.57767 c 0.0492,-2.38842 0.41682,-4.79155 0.14758,-7.16526 -0.0416,-0.36637 -0.87746,0.29485 -0.88505,0.66347 -0.0449,2.18069 0.86034,4.32408 0.73747,6.50179 -0.29758,5.27473 -1.32755,10.4825 -1.99133,15.72376 -0.0983,6.85565 -0.0344,13.71555 -0.29499,20.56696 -0.2804,7.37225 -0.86505,14.72981 -1.32762,22.09287 -0.32163,5.11971 -1.53382,6.0887 0.22124,4.31247"
       id="path6446" />
    <path
       style="fill:none;stroke:#ffffff;stroke-width:1.5;stroke-dasharray:none"
       d="m 813.22129,422.45938 c -19.66709,29.38489 -34.54503,71.55148 -20.42993,106.35107 4.53559,11.18211 10.21709,18.77422 18.88117,26.53802 3.15309,2.82546 6.70105,5.17755 10.10433,7.69607 3.23051,2.39061 5.08812,3.81955 5.23655,4.11332"
       id="path6448" />
    <path
       style="fill:none;stroke:#ffffff;stroke-width:1.5;stroke-dasharray:none"
       d="m 895.97378,432.80919 c -2.80266,0.30961 -6.14122,-0.74827 -8.40799,0.92882 -7.12978,5.27502 -5.75431,20.55706 -4.05651,27.59953 0.58526,2.42758 1.62962,4.72398 2.58141,7.0326 0.4703,1.14072 2.57717,4.18425 1.77017,3.25088 -0.59161,-0.68424 -1.18012,-1.37112 -1.77017,-2.05671"
       id="path6450" />
    <path
       style="fill:none;stroke:#ffffff;stroke-width:1.5;stroke-dasharray:none"
       d="m 872.51989,458.15304 c 9.56488,-3.08803 18.73094,-3.11838 27.36289,-8.16046"
       id="path6452" />
    <path
       style="fill:none;stroke:#ffffff;stroke-width:1.5;stroke-dasharray:none"
       d="m 932.55597,416.35562 c -4.31575,-5.59855 8.30529,-8.23314 8.70307,-13.60072 0.0217,-0.29136 -0.59965,0.13031 -0.81129,0.33174 -1.5012,1.42867 -3.21842,2.73031 -4.27776,4.51146 -1.61428,2.7142 -2.14032,5.96448 -3.61402,8.75752 -7.05435,13.36982 -10.82781,11.90715 -9.14554,27.46682 0.47287,4.37378 2.16461,8.56697 3.90901,12.60563 0.42815,0.99123 17.96383,26.4732 15.78345,17.6477"
       id="path6454" />
    <path
       style="fill:none;stroke:#ffffff;stroke-width:1.5;stroke-dasharray:none"
       d="m 965.59798,429.09388 c 1.83007,-2.5764 6.73952,-15.61097 0,0 -1.65669,3.83744 -6.32288,20.88621 -10.91565,24.68039 -1.28042,1.05778 -2.61189,-2.18316 -3.3927,-3.64903"
       id="path6456" />
    <path
       style="fill:none;stroke:#ffffff;stroke-width:1.5;stroke-dasharray:none"
       d="m 949.15071,436.25914 c -0.24582,-1.96823 1.23077,-6.15053 -0.73747,-5.9047 -1.96821,0.24582 -0.85217,4.71836 0.73747,5.9047 2.4964,1.86301 6.44216,0.11528 9.21938,1.52591 1.86997,0.94983 15.6346,15.61404 17.03724,15.5911 0.9176,-0.0151 0.73758,-1.68077 1.10638,-2.52113"
       id="path6458" />
    <path
       style="fill:none;stroke:#ffffff;stroke-width:1.5;stroke-dasharray:none"
       d="m 978.35754,431.41595 c 5.15937,0.77374 16.5586,19.61345 4.8678,16.98431 -25.67616,-15.12354 2.68925,-0.63739 11.65321,-15.72375"
       id="path6460" />
    <path
       style="fill:none;stroke:#ffffff;stroke-width:1.5;stroke-dasharray:none"
       d="m 997.09112,419.20847 c 2.99938,3.67109 6.44348,7.01987 8.99808,11.01325 1.5234,2.38144 2.1058,5.24775 3.0977,7.89506 0.6444,1.71998 0.7931,6.43353 2.0651,5.10855 2.5839,-2.69153 1.8267,-7.73962 5.3841,-10.48247 2.6793,-2.06584 5.9456,5.29997 5.6053,12.34014"
       id="path6462" />
    <path
       style="fill:none;stroke:#ffffff;stroke-width:1.5;stroke-dasharray:none"
       d="m 1044.3677,438.91294 c -0.9096,2.83072 -1.8772,5.64351 -2.7289,8.4922 -0.032,0.10681 -5.6395,22.29593 -3.8352,20.43419 1.7291,-1.78408 2.8519,-4.0691 4.2778,-6.10367"
       id="path6464" />
    <path
       style="fill:none;stroke:#ffffff;stroke-width:1.5;stroke-dasharray:none"
       d="m 1077.7048,410.84898 c 1.9422,-2.03456 7.8612,-4.16155 5.8266,-6.10375 -2.0346,-1.9422 -5.0644,3.39622 -5.8266,6.10375 -1.7724,6.29592 -0.3348,13.11873 -1.4014,19.57179 -1.1864,7.17799 -7.0828,15.27963 -7.3017,15.19301 -1.1028,-0.43649 -1.475,-1.85764 -2.2126,-2.78646"
       id="path6466" />
    <path
       style="fill:none;stroke:#ffffff;stroke-width:1.5;stroke-dasharray:none"
       d="m 1059.1186,427.96599 c -1.7455,-1.83555 -3.401,-7.25212 -5.2365,-5.50661 -1.8356,1.74551 2.9264,4.46762 5.2365,5.50661 4.8251,2.17017 10.2288,2.73444 15.4147,3.78169 0.8686,0.17542 1.9886,0.45119 2.6552,-0.13269 1.0777,-0.94398 -0.8685,-5.30765 -0.9588,-5.573"
       id="path6468" />
    <path
       style="fill:none;stroke:#ffffff;stroke-width:1.5;stroke-dasharray:none"
       d="m 1085.5965,363.14691 c 4.3515,0.22117 9.307,-1.55921 13.0545,0.66347 3.818,2.26444 5.6836,7.06517 7.0804,11.27863 9.1622,27.63795 -5.1425,53.26954 -17.2585,77.02656 -0.3393,0.6654 -6.4199,11.87466 -6.3429,14.99399 0.016,0.63362 1.2293,0.30962 1.8439,0.46442"
       id="path6470" />
    <path
       style="fill:none;stroke:#ffffff;stroke-width:1.5;stroke-dasharray:none"
       d="m 1143.4937,400.49917 c -12.9637,0.10838 30.3574,-6.80185 24.634,-5.77202"
       id="path6472" />
    <path
       style="fill:none;stroke:#ffffff;stroke-width:1.5;stroke-dasharray:none"
       d="m 1206.8488,370.17948 c 0.8113,-2.14516 2.3278,-4.14448 2.4339,-6.43548 0.033,-0.71255 -1.8866,-0.60082 -2.1389,0.0664 -0.7518,1.98789 1.5019,5.23407 -0.295,6.3691 -3.657,2.31016 -9.0469,-0.1674 -12.8333,1.924 -2.4429,1.34932 -3.2597,4.66884 -3.9827,7.36433 -3.2555,12.13805 1.217,22.4699 5.6791,33.43789 1.6318,4.01103 3.1948,7.02204 1.9913,7.56335 -2.4093,1.0836 -4.9059,-1.99107 -7.2279,-3.25094"
       id="path6474" />
    <path
       style="fill:none;stroke:#ffffff;stroke-width:1.5;stroke-dasharray:none"
       d="m 1179.1171,408.46059 c 10.1799,-6.56717 22.2496,0.13615 30.2393,-9.6864"
       id="path6476" />
    <path
       style="fill:none;stroke:#ffffff;stroke-width:1.5;stroke-dasharray:none"
       d="m 1245.8649,364.7392 c 14.9521,-13.44464 4.3622,-16.74077 1.1063,-10.08446 -1.4859,3.03773 0.4356,7.0748 -1.1063,10.08446 -2.3848,4.655 -8.3993,7.0235 -10.1781,11.94207 -3.0493,8.43204 1.7598,21.9491 4.7203,29.52359 0.9104,2.32915 11.6055,24.48933 9.7355,14.39685"
       id="path6478" />
    <path
       style="fill:none;stroke:#ffffff;stroke-width:1.5;stroke-dasharray:none"
       d="m 1285.6923,372.03715 c -7.4417,8.35697 -10.1154,19.33416 -13.8658,29.58986 -0.7724,2.11241 -1.3354,7.74205 -2.8765,6.10375 -4.1749,-4.43822 -3.983,-15.39642 -4.9415,-21.09769 -0.061,-0.36356 -1.3172,-7.00426 -1.1063,-6.89991 3.635,1.79835 5.7615,5.7136 8.7767,8.42582 5.9982,5.39562 12.3444,10.55227 18.7337,15.45841 25.639,-18.18665 0.888,29.97455 10.1043,19.77081"
       id="path6480" />
    <path
       style="fill:none;stroke:#ffffff;stroke-width:1.5;stroke-dasharray:none"
       d="m 1329.1337,381.65719 c 4.9992,-4.60555 7.1683,-19.46823 0,0 -1.6667,4.52652 -2.8234,19.77945 -7.0067,23.81784 -0.4335,0.41844 -1.0817,-0.53075 -1.6226,-0.79613"
       id="path6482" />
    <path
       style="fill:none;stroke:#ffffff;stroke-width:1.5;stroke-dasharray:none"
       d="m 1312.8339,389.61855 c -1.7701,-1.99033 -3.32,-7.74112 -5.3103,-5.97103 -1.9904,1.77011 2.9898,4.6633 5.3103,5.97103 3.9985,2.25346 8.5216,5.09836 13.0546,4.3788 3.2665,-0.51853 1.6341,-10.43977 1.4751,-12.07481"
       id="path6484" />
    <path
       style="fill:none;stroke:#ffffff;stroke-width:1.5;stroke-dasharray:none"
       d="m 1330.3875,335.87911 c 2.2864,-2.05671 3.8233,-5.67949 6.8592,-6.17011 3.591,-0.58028 10.1302,10.76037 11.5794,15.72377 6.765,23.16921 -2.599,49.42599 -10.0306,71.1219 -6.7978,19.84531 -5.5767,12.16298 -6.8592,22.15925"
       id="path6486" />
    <path
       style="fill:none;stroke:#ffffff;stroke-width:1.5;stroke-dasharray:none"
       d="m 903.36264,514.41777 c 135.66216,-34.9096 275.17966,-48.98686 414.64746,-57.38846 24.3415,-1.46635 48.6908,-2.48823 72.9432,-5.10861 4.6775,-0.50538 13.8586,0.28493 15.8572,-5.10854"
       id="path6488" />
    <path
       style="fill:none;stroke:#ffffff;stroke-width:1.5;stroke-dasharray:none"
       d="m 1176.1804,529.87613 c -3.3612,-36.28535 2.7162,25.51245 3.9826,26.40534 2.1725,1.53175 9.4715,-11.09856 15.636,-4.1797 1.7621,1.97779 2.8255,4.48797 4.0565,6.83352 1.64,3.12502 3.984,14.61421 9.4406,11.80939"
       id="path6490" />
    <path
       style="fill:none;stroke:#ffffff;stroke-width:1.5;stroke-dasharray:none"
       d="m 1422.9627,337.07746 c 3.4664,4.51147 7.6771,8.53848 10.3994,13.53439 10.277,18.86064 27.009,87.68593 26.4779,106.15205 -0.597,20.7576 -4.4346,41.39271 -9.0718,61.63453 -3.1101,13.57601 -17.5808,41.54371 -23.8227,54.801 -11.4868,24.39705 -1.8401,5.5312 -12.5383,25.87456"
       id="path6492" />
    <path
       style="fill:none;stroke:#ffffff;stroke-width:1.5;stroke-dasharray:none"
       d="m 154.54157,711.18779 c 8.53002,-4.27001 50.17545,-8.05784 18.80736,6.17008 -2.66661,1.20954 -5.4578,2.12304 -8.18671,3.18458"
       id="path6494" />
    <path
       style="fill:none;stroke:#ffffff;stroke-width:1.5;stroke-dasharray:none"
       d="m 146.64984,728.03944 c 13.86818,1.98591 27.8551,-0.27051 41.74503,0.4644"
       id="path6496" />
    <path
       style="fill:none;stroke:#ffffff;stroke-width:1.5;stroke-dasharray:none"
       d="m 299.76408,708.46763 c -0.24585,-1.90188 1.16434,-5.95151 -0.73756,-5.70566 -1.90189,0.24585 0.0965,3.89829 0.73756,5.70566 4.3878,12.37004 10.23398,22.83511 10.76815,36.29078 11.36511,-9.9401 11.27088,-15.84616 11.80069,-29.19183"
       id="path6498" />
    <path
       style="fill:none;stroke:#ffffff;stroke-width:1.5;stroke-dasharray:none"
       d="m 323.80802,706.54366 c 2.16935,1.53255 1.42836,-13.54121 5.75285,-12.53921 7.47078,1.73101 10.55282,17.39162 11.06314,23.81784 0.11439,1.44047 0.096,-2.90954 0.44252,-4.31239 0.31316,-1.26764 2.41711,-11.8264 6.78544,-9.22197 2.75798,1.64431 4.96811,5.61605 6.41662,8.2931 0.60204,1.11265 1.20221,4.40756 1.84388,3.31727 2.19193,-3.72441 1.92696,-8.80409 5.8266,-11.61037 5.33786,-3.8413 13.88043,9.84361 14.08705,13.93243 0.088,1.74223 -0.93418,3.36148 -1.40127,5.04222"
       id="path6500" />
    <path
       style="fill:none;stroke:#ffffff;stroke-width:1.5;stroke-dasharray:none"
       d="m 295.63383,775.40981 c 1.96678,4.22397 4.18824,8.33842 5.90034,12.67185 1.5814,4.00261 1.6262,6.85247 2.21262,10.88067 0.0521,0.35766 0.0957,1.40041 0.22129,1.06148 2.96352,-7.99735 -3.35605,-3.00014 6.85913,-14.79492 5.63501,-6.50637 13.56077,9.10662 14.30838,12.73821"
       id="path6502" />
    <path
       style="fill:none;stroke:#ffffff;stroke-width:1.5;stroke-dasharray:none"
       d="m 327.79074,786.48945 c 5.05392,-6.79548 25.99017,-3.93063 29.20678,-11.34507 2.26126,-5.21232 -5.57766,-6.06579 -8.70303,-6.03737 -1.59933,0.0146 -5.54234,1.61261 -4.79405,0.19905 1.33215,-2.51651 12.89117,-8.07485 16.07847,-6.10376 5.15051,3.18522 -11.17321,45.13617 4.05646,26.86979"
       id="path6504" />
    <path
       style="fill:none;stroke:#ffffff;stroke-width:1.5;stroke-dasharray:none"
       d="m 376.61618,771.49546 c -10.24277,25.16843 21.56038,16.9146 18.58617,3.64892 -1.18687,-5.29373 -16.29587,-5.06421 -18.58617,-3.64892 -3.47471,2.1472 -4.44867,6.8889 -6.12158,10.61521 -0.20462,0.45577 1.22552,0.16735 1.4751,-0.26543 1.88918,-3.27596 2.86107,-7.01614 4.64648,-10.34978 3.41658,-6.37929 13.28051,-17.67991 10.8419,-27.00245 -0.0708,-0.27072 -0.55914,0.31898 -0.59006,0.59708 -0.24692,2.22115 -0.32815,4.46858 -0.22124,6.70087 0.74938,15.64767 3.52823,31.00115 3.61402,46.70695 0.10867,19.89486 -0.58132,12.5137 -0.44257,7.89503"
       id="path6506" />
    <path
       style="fill:none;stroke:#ffffff;stroke-width:1.5;stroke-dasharray:none"
       d="m 450.73943,642.6534 c -13.61122,40.08107 -25.25935,105.37402 -11.28445,146.15811 6.06097,17.68824 15.16488,21.28464 26.03529,33.63693"
       id="path6508" />
    <path
       style="fill:none;stroke:#ffffff;stroke-width:1.5;stroke-dasharray:none"
       d="m 507.82537,683.65464 c 13.05362,2.45631 10.08547,10.65781 4.9415,20.03621 -1.32258,2.41122 -3.24221,4.46703 -5.16282,6.43543 -1.32419,1.35718 -6.46567,3.76605 -5.16279,2.38842 7.80143,-8.24889 28.6217,-10.31118 33.11576,-17.18337"
       id="path6510" />
    <path
       style="fill:none;stroke:#ffffff;stroke-width:1.5;stroke-dasharray:none"
       d="m 557.0933,660.36749 c 1.86556,-4.22896 5.17422,-7.4786 7.67046,-11.27865 1.15305,-1.7553 -2.5142,3.36682 -3.68768,5.10854 -1.36782,2.03018 -2.89904,3.9751 -3.98278,6.17011 -4.48579,9.08561 -10.17534,19.20386 -8.70304,29.98798 1.6778,12.2895 25.93017,26.43429 28.83799,10.08441"
       id="path6512" />
    <path
       style="fill:none;stroke:#ffffff;stroke-width:1.5;stroke-dasharray:none"
       d="m 587.62768,673.83555 c 3.66371,-2.87385 -2.13371,29.58521 -6.85917,24.61401 -2.76881,-2.9128 -4.04034,-13.49352 -4.42531,-15.39206 m 0,0 c -0.59114,-9.99684 -2.62246,-13.44021 4.13026,-7.96141 2.83351,2.29897 21.90432,19.75668 24.33902,16.38724 0.9884,-1.36788 0.98335,-3.2288 1.47502,-4.84319"
       id="path6514" />
    <path
       style="fill:none;stroke:#ffffff;stroke-width:1.5;stroke-dasharray:none"
       d="m 608.50015,668.12989 c -4.43703,0.73364 13.55402,15.42376 7.7442,19.90347 -2.2443,1.73051 -5.63833,-0.66016 -8.40801,-1.2605"
       id="path6516" />
    <path
       style="fill:none;stroke:#ffffff;stroke-width:1.5;stroke-dasharray:none"
       d="m 598.02699,682.65943 c 4.47294,-7.05887 14.01183,-2.75206 19.83994,-6.56815 5.91061,-3.87006 4.25453,-5.13468 5.01531,-10.68154 0.24805,-1.80843 0.71657,-5.90733 2.2864,-4.97591 4.4514,2.64104 7.56713,11.48278 9.88311,15.79014 0.68017,1.265 1.26818,4.9765 2.06515,3.78164 1.5643,-2.34521 2.90412,-11.2059 8.03918,-8.95657 4.11687,1.80335 10.77362,24.26438 6.93299,11.2123"
       id="path6518" />
    <path
       style="fill:none;stroke:#ffffff;stroke-width:1.5;stroke-dasharray:none"
       d="m 653.85915,648.82346 c 0.90964,-2.67592 1.09765,-5.71971 2.72889,-8.02775 3.42,-4.83899 8.71061,0.003 10.91565,2.6538 9.0479,10.88138 13.6031,27.06251 11.80076,41.06762 -0.88434,6.87194 -3.27358,14.20032 -7.22794,20.03615 -0.23715,0.34997 -1.18528,0.88712 -1.18012,0.46442 0.027,-2.20704 0.8359,-4.33453 1.25386,-6.50179"
       id="path6520" />
    <path
       style="fill:none;stroke:#ffffff;stroke-width:1.5;stroke-dasharray:none"
       d="m 688.59752,645.3072 c 1.74762,0.17087 8.76289,-17.04173 13.79201,-15.45841 5.28778,1.66478 -2.79728,16.30815 -3.54018,18.77565 -0.34941,1.16046 2.40216,0.37825 3.61392,0.39807 3.60881,0.059 8.83486,0.18142 11.5057,3.11822"
       id="path6522" />
    <path
       style="fill:none;stroke:#ffffff;stroke-width:1.5;stroke-dasharray:none"
       d="m 709.24875,673.17208 c 6.95423,-2.24858 20.12886,-11.29858 28.10044,-10.01807 0.85553,0.13742 -1.62925,2.26835 -3.83524,0.46442"
       id="path6524" />
    <path
       style="fill:none;stroke:#ffffff;stroke-width:1.5;stroke-dasharray:none"
       d="m 766.62968,640.86209 c 0.76573,-3.38362 5.8571,-4.1099 7.44921,-7.16526 1.5921,-3.05538 -5.03952,4.70281 -7.44921,7.16526 -9.42018,9.6265 -23.00246,18.7919 -10.32566,33.30517 2.39736,2.74466 30.74151,23.90381 26.55168,8.5585"
       id="path6526" />
    <path
       style="fill:none;stroke:#ffffff;stroke-width:1.5;stroke-dasharray:none"
       d="m 798.78663,644.24566 c -0.10594,10.86565 0.87752,5.90249 -4.3515,17.97953 -3.85979,8.91471 -5.8212,13.46948 -6.85921,11.67672 -0.55206,-0.95348 -0.59002,-2.12304 -0.88503,-3.18455"
       id="path6528" />
    <path
       style="fill:none;stroke:#ffffff;stroke-width:1.5;stroke-dasharray:none"
       d="m 786.54338,655.98875 c 7.16161,-7.18357 25.38312,14.71713 29.13298,13.20265 0.93266,-0.37669 1.43687,-4.75199 1.54887,-5.44031"
       id="path6530" />
    <path
       style="fill:none;stroke:#ffffff;stroke-width:1.5;stroke-dasharray:none"
       d="m 822.0193,641.59184 c 2.94073,5.27876 9.60556,19.47177 0.88503,22.69001 0.0492,-4.17973 -1.80011,-8.84063 0.1475,-12.53919 1.61708,-3.07085 11.86659,-0.50279 14.67716,-5.50663 0.46939,-0.83568 1.84023,-9.5326 2.21258,-9.08929 2.09794,2.49775 10.2478,21.39378 12.61207,20.10254 1.81466,-0.99107 1.93538,-8.52624 5.23654,-7.36428 1.01475,0.35718 5.12274,20.92272 2.87639,11.94212"
       id="path6532" />
    <path
       style="fill:none;stroke:#ffffff;stroke-width:1.5;stroke-dasharray:none"
       d="m 865.31312,626.46519 c 1.25383,-2.43266 1.58787,-5.63507 3.7615,-7.29795 3.81955,-2.92203 13.6961,12.15329 15.56213,23.28709 3.56423,21.26612 -2.69891,38.84829 -15.78345,55.46447"
       id="path6534" />
    <path
       style="fill:none;stroke:#ffffff;stroke-width:1.5;stroke-dasharray:none"
       d="m 929.18446,642.85242 c -1.49011,11.54938 9.50495,27.33874 3.17146,37.41859"
       id="path6536" />
    <path
       style="fill:none;stroke:#ffffff;stroke-width:1.5;stroke-dasharray:none"
       d="m 918.71138,666.33856 c 6.54955,-11.5646 19.83803,-5.54966 29.50173,-11.34502"
       id="path6538" />
    <path
       style="fill:none;stroke:#ffffff;stroke-width:1.5;stroke-dasharray:none"
       d="m 960.45636,639.53518 c -0.80174,-5.9268 21.8976,-18.86386 22.05262,-8.8239 0.0828,5.36347 -1.85668,9.36976 -4.49908,13.93245 -0.80999,1.39864 -2.633,2.26319 -2.95013,3.84802 -0.15351,0.76716 1.50492,-0.49194 2.28632,-0.53075 3.24128,-0.161 6.58714,-0.8531 9.73561,-0.0664 7.90138,1.97432 10.81656,7.61278 11.06315,15.72382 0.10843,3.56738 -17.1052,24.20358 -14.0871,1.85764"
       id="path6540" />
    <path
       style="fill:none;stroke:#ffffff;stroke-width:1.5;stroke-dasharray:none"
       d="m 1012.6008,666.67027 c 0.2827,0.5086 1.9937,4.22975 3.2452,4.17975 2.8423,-0.11361 2.7198,-5.02108 3.6876,-7.69601 2.538,-7.01435 4.3971,-12.36258 6.4167,-19.77083 6.0106,-22.04813 -1.4928,-10.75876 -19.6187,0.26537 3.0731,2.85284 6.1462,5.70568 9.2193,8.55852 0.025,0.0885 0.049,0.17693 0.074,0.2654"
       id="path6542" />
    <path
       style="fill:none;stroke:#ffffff;stroke-width:1.5;stroke-dasharray:none"
       d="m 1065.1356,648.78925 c 7.8669,0.367 18.1388,-1.48437 25.0027,0.33173"
       id="path6544" />
    <path
       style="fill:none;stroke:#ffffff;stroke-width:1.5;stroke-dasharray:none"
       d="m 1116.8375,632.26935 c 15.8144,-17.5564 20.906,4.815 14.7508,17.78048 -3.0225,6.36667 -8.6552,12.19375 -14.0134,16.58623 -4.612,3.78086 -10.6135,6.73272 -10.7681,6.03742 -0.3116,-1.40158 2.0964,-2.03669 3.3928,-2.6538 7.1869,-3.42101 11.4471,-5.59456 18.2911,-6.50182 2.0624,-0.27342 4.6875,-0.34647 6.6379,0.53076 0.5161,0.23211 1.6963,-0.63223 1.6963,-0.0664 0,1.31252 -0.8717,1.305 0.8851,1.59231"
       id="path6546" />
    <path
       style="fill:none;stroke:#ffffff;stroke-width:1.5;stroke-dasharray:none"
       d="m 1176.0622,644.21145 c -1.0129,11.32414 0.4202,3.29605 -7.6704,19.96988 -0.9888,2.03787 -3.2987,12.68913 -4.794,5.77202"
       id="path6548" />
    <path
       style="fill:none;stroke:#ffffff;stroke-width:1.5;stroke-dasharray:none"
       d="m 1156.6649,644.80854 c 3.2265,4.83634 37.2147,25.93864 36.7296,28.99278"
       id="path6550" />
    <path
       style="fill:none;stroke:#ffffff;stroke-width:1.5;stroke-dasharray:none"
       d="m 1234.8445,641.49133 c -10.6319,8.87312 5.6131,23.67362 2.5077,32.90712 -0.467,1.3887 -2.0651,2.07884 -3.0977,3.11822"
       id="path6552" />
    <path
       style="fill:none;stroke:#ffffff;stroke-width:1.5;stroke-dasharray:none"
       d="m 1220.8312,666.10533 c 8.6021,-6.46086 18.9924,-3.36767 28.543,-6.43546"
       id="path6554" />
    <path
       style="fill:none;stroke:#ffffff;stroke-width:1.5;stroke-dasharray:none"
       d="m 1288.6853,637.04619 c -3.6122,3.1808 -10.4456,35.08296 -13.3496,33.10618 -0.7317,-0.49813 -0.9342,-1.50384 -1.4013,-2.25573"
       id="path6556" />
    <path
       style="fill:none;stroke:#ffffff;stroke-width:1.5;stroke-dasharray:none"
       d="m 1269.7304,647.26334 c 9.7924,7.03808 18.4077,15.29985 28.2479,22.29192 7.3556,5.22655 7.2981,6.62159 6.1217,2.38842"
       id="path6558" />
    <path
       style="fill:none;stroke:#ffffff;stroke-width:1.5;stroke-dasharray:none"
       d="m 1326.3,638.37311 c 0.9097,2.58744 2.9959,5.03266 2.729,7.76234 -0.4366,4.46551 -3.046,8.44286 -4.7203,12.60554 -2.5797,6.41353 -5.7855,20.36633 -10.4732,14.46324"
       id="path6560" />
    <path
       style="fill:none;stroke:#ffffff;stroke-width:1.5;stroke-dasharray:none"
       d="m 1299.306,645.80372 c -0.052,0.23675 19.7709,3.50292 18.586,6.96624"
       id="path6562" />
    <path
       style="fill:none;stroke:#ffffff;stroke-width:1.5;stroke-dasharray:none"
       d="m 1356.6131,652.17287 c 7.3991,-0.79364 14.8874,-1.52897 22.3476,-1.26055 0.3987,0.0143 1.5524,0.0555 1.1801,0.19899 -0.828,0.31919 -2.2907,-0.14065 -3.0977,-0.33168"
       id="path6564" />
    <path
       style="fill:none;stroke:#ffffff;stroke-width:1.5;stroke-dasharray:none"
       d="m 1392.5315,637.17888 c -0.1615,0.64019 23.7368,-16.34715 24.4127,-10.61521 0.6024,5.10897 -6.8692,10.43373 -10.0306,13.66708 -0.621,0.63513 -2.6311,1.51275 -1.8438,1.92399 1.2392,0.64725 2.735,-0.64108 4.1302,-0.72977 3.1408,-0.1996 6.3782,-0.85828 9.4406,-0.13272 7.7081,1.82629 12.43,9.91825 9.3668,17.38241 -1.3146,3.20334 -16.3961,20.59792 -16.4472,12.47286 -0.021,-3.40082 1.0326,-6.72293 1.5488,-10.08441"
       id="path6566" />
    <path
       style="fill:none;stroke:#ffffff;stroke-width:1.5;stroke-dasharray:none"
       d="m 1442.3158,634.72413 c 15.4962,-12.46703 5.3253,-4.03405 16.8897,-14.06517 0.6027,-0.52276 1.993,-2.30968 1.8439,-1.5259 -1.2778,6.72015 -5.9854,12.30241 -8.998,18.44389 -3.1478,6.4171 -8.6097,23.88655 -13.7184,29.12546 -2.2055,2.26169 -2.3694,-5.88264 -3.0977,-8.95659"
       id="path6568" />
    <path
       style="fill:none;stroke:#ffffff;stroke-width:1.5;stroke-dasharray:none"
       d="m 1429.1875,635.1222 c -8.6707,-18.25657 -1.8061,-1.45849 0,0 4.4357,3.58195 10.3721,4.76766 15.3409,7.5633 1.8939,1.06558 3.2769,2.90113 5.1628,3.98071"
       id="path6570" />
    <path
       style="fill:none;stroke:#ffffff;stroke-width:1.5;stroke-dasharray:none"
       d="m 1346.0662,717.25736 c 15.2783,-8.44082 6.385,-2.14059 21.9051,-19.50546 30.1673,-33.753 56.2415,-61.78843 93.2256,-88.43793 19.9875,-14.40233 42.5781,-24.30018 59.0773,-42.92526"
       id="path6572" />
    <path
       style="fill:none;stroke:#ffffff;stroke-width:1.5;stroke-dasharray:none"
       d="m 924.9284,725.81586 c 1.72093,-4.31244 2.94037,-8.86058 5.16279,-12.93728 7.05427,-12.94008 34.15982,-45.30013 37.61481,-49.42708 23.12119,-27.61797 48.1722,-53.25141 72.3531,-79.8794 2.7812,-3.06268 17.7628,-16.32825 15.4147,-23.81789"
       id="path6574" />
    <path
       style="fill:none;stroke:#ffffff;stroke-width:1.5;stroke-dasharray:none"
       d="m 463.30267,687.85302 c 2.35746,-17.28452 -0.0135,-0.0574 0,0 2.02155,8.518 12.363,18.26368 10.17812,27.59953"
       id="path6576" />
    <path
       style="fill:none;stroke:#ffffff;stroke-width:1.5;stroke-dasharray:none"
       d="m 454.00963,739.00505 c 2.40337,0.52194 49.53378,-16.37599 35.03334,-5.24127"
       id="path6578" />
    <path
       style="fill:none;stroke:#ffffff;stroke-width:1.5;stroke-dasharray:none"
       d="m 474.95587,750.35004 c -0.59362,8.45484 -0.87159,5.39041 1.03259,15.12667 0.3624,1.85301 0.86257,3.67663 1.32757,5.50662 2.95855,11.64333 7.05946,-11.4622 14.60336,-3.38357 1.20338,1.28865 8.06424,15.19446 7.22797,11.80938"
       id="path6580" />
    <path
       style="fill:none;stroke:#ffffff;stroke-width:1.5;stroke-dasharray:none"
       d="m 508.4404,646.38736 c -5.3453,-2.37852 -27.99787,8.02944 -27.28915,12.34019 0.39285,2.38959 2.40625,4.21503 3.83527,6.17011 3.86222,5.28405 8.9019,9.77115 12.02195,15.5247 4.87375,8.98744 5.07076,21.69165 4.79401,31.38122 -0.54404,19.04783 -3.39733,37.57845 -3.0239,56.725 0.0523,2.68232 -0.005,11.91329 1.32758,15.25934 2.50444,6.28711 31.9419,-8.92191 41.81874,-4.64413"
       id="path6582" />
    <path
       style="fill:none;stroke:#ffffff;stroke-width:1.5;stroke-dasharray:none"
       d="m 1500.4377,588.5345 c 1.1554,-1.85767 1.7691,-4.19262 3.4663,-5.57298 3.0976,-2.51923 18.7571,-8.37617 22.4215,-3.44995 5.5388,7.44619 3.3703,28.11505 4.3515,37.15321 1.6414,15.12049 4.7062,33.01088 7.7441,47.70208 1.0838,5.24107 2.5395,10.39839 3.8354,15.5911 0.074,0.2949 2.4604,6.28938 1.4013,7.36431 -8.1408,8.26185 -34.9182,14.69387 -45.1377,17.44874 -1.1412,0.30763 -3.407,1.3734 -3.5402,0.19902 -0.1033,-0.91046 7.5669,-7.26263 9.3668,-8.82386"
       id="path6584" />
    <path
       style="fill:none;stroke:#ffffff;stroke-width:1.5;stroke-dasharray:none"
       d="m 1555.311,555.36199 c 25.3758,33.6141 23.7842,78.48417 15.0458,117.56342 -4.8086,21.50491 -13.3503,43.78243 -9.5881,66.07964"
       id="path6586" />
    <path
       style="fill:none;stroke:#00ffff;stroke-width:1.5;stroke-dasharray:none"
       d="m 1616.2197,318.137 c -0.4917,3.18458 -0.9834,6.36913 -1.475,9.55371 0,0.28747 -0.064,1.14271 0,0.86246 1.2013,-5.24936 6.8039,-48.65588 19.6923,-35.89267 11.8427,11.72767 9.2704,18.3409 17.1111,29.19183"
       id="path6594" />
    <path
       style="fill:none;stroke:#00ffff;stroke-width:1.5;stroke-dasharray:none"
       d="m 1687.024,314.35534 c 0.074,1.87978 1.2893,4.09069 0.2212,5.63933 -6.2707,9.09259 -28.202,-16.25143 -10.2518,-23.81787 8.3355,-3.51362 19.6939,0.65213 25.3715,7.09893 3.4548,3.92295 0.659,9.54823 -2.0651,3.51628"
       id="path6596" />
    <path
       style="fill:none;stroke:#00ffff;stroke-width:1.5;stroke-dasharray:none"
       d="m 1699.9311,286.82215 c 1.2538,-3.49418 0.9785,-8.02554 3.7614,-10.48252 2.239,-1.97675 31.0932,42.23335 0.9588,32.3764 1.1801,-4.79896 0.3473,-10.62495 3.5403,-14.39688 2.3929,-2.82678 16.4098,1.29892 20.725,-0.92883 3.6562,-1.88758 11.6003,-16.18872 6.564,-19.77083 -4.1229,-2.93248 -21.7137,18.61879 -8.2605,27.59954 5.5,3.67154 36.4091,3.04846 33.9271,-3.64897"
       id="path6598" />
    <path
       style="fill:none;stroke:#00ffff;stroke-width:1.5;stroke-dasharray:none"
       d="m 1844.3422,276.60501 c 0.7868,-1.87978 1.5735,-3.75955 2.3602,-5.63933 0.049,-0.13269 0.2021,-0.52861 0.1475,-0.39807 -4.5447,10.85888 -8.6214,21.08113 -10.6944,32.70812 -1.0223,5.7337 -1.6999,16.59286 -2.8764,16.78527 -2.2393,0.36626 -3.1563,-3.27943 -4.4991,-5.10855"
       id="path6600" />
    <path
       style="fill:none;stroke:#00ffff;stroke-width:1.5;stroke-dasharray:none"
       d="m 1811.8903,283.17318 c 8.0548,5.83996 15.9166,12.12068 21.6838,20.30156"
       id="path6602" />
    <path
       style="fill:none;stroke:#00ffff;stroke-width:1.5;stroke-dasharray:none"
       d="m 1900.4694,278.7944 c -5.8906,-13.73978 8.263,-22.25377 2.1388,-7.56334"
       id="path6604" />
    <path
       style="fill:none;stroke:#00ffff;stroke-width:1.5;stroke-dasharray:none"
       d="m 1900.7644,289.27691 c 1.3941,1.72414 -2.4665,40.56647 6.7854,29.98796 3.2316,-3.69499 5.5561,-8.09408 8.3342,-12.14115"
       id="path6606" />
    <path
       style="fill:none;stroke:#00ffff;stroke-width:1.5;stroke-dasharray:none"
       d="m 1928.8648,286.62311 c 0.7867,-2.41053 4.7706,-6.44491 2.3601,-7.2316 -2.4105,-0.78669 -3.2182,4.84557 -2.3601,7.2316 4.0718,11.32109 10.2798,11.45469 15.8572,19.96986 9.3954,14.34412 -33.5789,28.82862 -19.7662,-1.924"
       id="path6608" />
    <path
       style="fill:none;stroke:#00ffff;stroke-width:1.5;stroke-dasharray:none"
       d="m 1975.8464,308.64965 c -1.1488,-4.45267 2.4847,-26.27527 8.7768,-25.54281 5.3691,0.625 8.493,13.39217 9.7355,17.18335 0.5743,1.75234 0.5666,6.63829 1.7702,5.24127 0.8821,-1.02383 1.0818,-2.47687 1.6226,-3.71531"
       id="path6610" />
    <path
       style="fill:none;stroke:#00ffff;stroke-width:1.5;stroke-dasharray:none"
       d="m 2011.3223,300.82095 c -2.4585,0.99517 -8.3707,0.52702 -7.3755,2.98553 0.9952,2.45851 6.202,-0.60698 7.3755,-2.98553 1.3213,-2.67805 -2.0587,-5.88146 -1.5489,-8.8239 0.7393,-4.26728 8.7751,0.24304 9.5144,2.38843 1.2503,3.62788 -3.156,10.4057 -1.3276,6.56818 3.4052,-7.14706 1.105,-3.73327 7.3017,-13.5344 3.2773,-5.18342 6.752,-10.23951 10.1781,-15.32571 0.7872,-1.16856 2.5771,-3.67001 3.3927,-2.52111 5.7271,8.06779 9.6035,34.6135 -3.909,36.68879"
       id="path6612" />
    <path
       style="fill:none;stroke:#00ffff;stroke-width:1.5;stroke-dasharray:none"
       d="m 2025.9257,299.36137 c -6.9238,-17.33946 43.7225,-8.13097 44.2526,-5.90472"
       id="path6614" />
    <path
       style="fill:none;stroke:#00ffff;stroke-width:1.5;stroke-dasharray:none"
       d="m 1625.8078,367.63041 c 1.6472,-1.924 6.8656,-4.12483 4.9416,-5.77202 -1.924,-1.64719 -3.147,3.98473 -4.9416,5.77202 -4.4087,4.39073 -10.1504,7.58981 -13.6445,12.73823 -10.0878,14.86382 9.5566,26.70815 22.1262,20.69968 2.8376,-1.35642 4.7204,-4.15764 7.0805,-6.23644"
       id="path6616" />
    <path
       style="fill:none;stroke:#00ffff;stroke-width:1.5;stroke-dasharray:none"
       d="m 1647.3441,370.48325 c 2.2618,3.05186 5.1725,5.71643 6.7854,9.15562 1.1206,2.38932 0.5231,5.27275 1.1801,7.8287 2.6673,10.37706 8.9412,-10.7243 15.931,-8.29313 7.141,2.48383 5.9396,9.91116 6.1953,15.25937 0.1656,3.4648 -0.7288,4.26413 0.6638,2.45475"
       id="path6618" />
    <path
       style="fill:none;stroke:#00ffff;stroke-width:1.5;stroke-dasharray:none"
       d="m 1683.8526,383.55322 c 0.59,-1.99036 3.7604,-5.38104 1.77,-5.97107 -1.9903,-0.59004 -3.6984,5.20211 -1.77,5.97107 4.9789,1.98543 10.8156,0.75186 16.0785,-0.26538 1.2728,-0.24604 2.1417,-4.66048 1.9175,-3.3836 -0.5872,3.34516 -3.7789,25.8984 2.729,11.14597"
       id="path6620" />
    <path
       style="fill:none;stroke:#00ffff;stroke-width:1.5;stroke-dasharray:none"
       d="m 1706.7902,383.42053 c 10.1705,12.21684 0.2509,-13.0806 5.0891,-13.73344 2.6548,-0.35822 3.4745,8.82931 3.6876,14.19786 0.233,5.86804 -0.8452,7.76695 -0.1475,6.96622 3.5362,-4.05839 4.0574,-17.01462 10.1782,-16.91799 3.7417,0.0591 2.2151,20.25661 5.384,19.30641 4.8741,-1.46146 12.4532,-24.0579 7.1542,-22.55732 -9.9676,2.82271 -4.6102,27.14249 9.5881,6.89988 0.4343,-0.61925 0.3289,-2.47549 0.9588,-2.05668 0.9073,0.60328 0.3501,2.16614 0.7375,3.18455 1.1907,3.12954 2.4996,6.21998 3.9828,9.22197 1.5634,3.16429 17.3092,26.22833 5.3104,26.93609 -11.0527,0.65194 -11.4595,-16.83485 -8.7031,-24.01691 2.9343,-7.64556 14.8381,-3.48494 18.8811,-9.75273 3.7887,-5.87351 3.2408,-13.44663 6.8592,-19.041 0.3003,-0.46429 4.496,18.01466 4.8678,21.42942 0.2221,2.04041 -0.2127,7.88252 0.8113,6.10375 0.787,-1.36699 0.9958,-2.99767 1.6226,-4.44513 1.0221,-2.36035 1.9808,-4.76951 3.3189,-6.96621 6.6786,-10.96394 6.8081,16.57903 12.317,14.52956 3.463,-1.28831 6.5313,-3.68636 9.0719,-6.36913 1.7498,-1.84779 6.2323,-12.57932 1.9913,-14.72858 -4.2356,-2.14654 -10.2306,3.69236 -9.6619,7.89503 1.2249,9.05074 20.2156,6.0253 18.2912,-1.39322 -0.6354,-2.44948 -2.1773,4.8558 -1.8439,7.36428 1.8857,14.18696 11.9009,22.2444 14.1608,32.77444 1.8972,8.84005 -13.7841,9.63478 -16.7422,4.17976 -0.5109,-0.9421 0.295,-2.12304 0.4425,-3.18455"
       id="path6622" />
    <path
       style="fill:none;stroke:#00ffff;stroke-width:1.5;stroke-dasharray:none"
       d="m 1838.2944,411.08639 c 2.1634,0.1106 6.3797,2.49518 6.4903,0.33174 0.1106,-2.16345 -5.7533,-2.36876 -6.4903,-0.33174 2.9679,14.07658 3.8233,8.05175 -0.5163,19.63812 -1.5303,4.08562 -6.4928,16.19401 -4.7203,12.2075"
       id="path6624" />
    <path
       style="fill:none;stroke:#00ffff;stroke-width:1.5;stroke-dasharray:none"
       d="m 1914.7777,367.43136 c -3.4173,0.84037 -7.0064,1.16049 -10.2518,2.52111 -24.8501,10.41821 23.0377,17.15632 15.5621,32.17736 -1.7006,3.41714 -12.2132,13.51335 -16.1522,6.17008 -2.5617,-4.77565 0.01,-9.9763 1.3275,-14.39685"
       id="path6626" />
    <path
       style="fill:none;stroke:#00ffff;stroke-width:1.5;stroke-dasharray:none"
       d="m 1931.4462,388.9935 c 3.5648,1.99036 7.6958,3.20024 10.6944,5.97104 4.0328,3.72636 -4.9501,7.58304 -8.0392,2.72018 -3.4548,-5.43859 -7.1233,-19.66259 2.5076,-21.76119 2.1066,-0.45905 4.4329,0.46218 6.2691,1.59229 7.8911,4.85675 10.7254,12.62976 5.6054,20.56694 -0.7657,1.18708 -5.2574,5.67822 -7.7442,3.11822 -1.6653,-1.71445 -1.9177,-4.37875 -2.8765,-6.56815 -2.1389,-1.87976 -4.2777,-3.75954 -6.4166,-5.63933 z"
       id="path6628" />
    <path
       style="fill:none;stroke:#00ffff;stroke-width:1.5;stroke-dasharray:none"
       d="m 1981.7467,365.17563 c 1.9913,-1.96824 4.1687,-3.76462 5.9741,-5.90471 1.0672,-1.26507 3.4433,-5.55204 2.2127,-4.44513 -2.195,1.97448 -1.5653,16.06645 -1.5489,16.58628 0.2803,8.89008 2.14,14.02321 0.4426,13.79977 -1.9053,-0.25083 -3.6386,-1.23844 -5.4579,-1.85767 m 0,0 c -3.0731,-2.8086 -6.6694,-5.13484 -9.2193,-8.4258 -0.5015,-0.64725 1.6153,-0.35111 2.4339,-0.33173 2.9316,0.0694 5.853,0.3737 8.7768,0.59711 5.1489,0.39342 15.5601,2.8039 20.7989,-0.39808 3.2538,-1.98877 2.7797,-15.20222 0.3686,-12.6719 -5.5801,5.85607 -2.5323,15.05468 1.1801,20.89869 5.2312,8.23492 9.9552,-9.40828 12.022,-15.12667 2.6139,-7.23205 6.6139,11.19872 7.7442,13.40169 0.5625,1.09624 0.4809,-2.42169 0.59,-3.64897 1.0197,-11.46732 1.9576,-15.27373 7.818,-25.60918 m 0,0 c 0.3442,5.15279 0.729,10.30304 1.0326,15.45838 0.9127,15.494 7.4679,-14.5879 10.7681,-11.47768 2.2619,2.13169 0.7568,10.01812 1.6964,12.87092 0.7014,2.12942 9.2677,-11.45767 13.497,-8.16042 4.6735,3.64357 -0.9821,17.83708 7.6705,11.61038"
       id="path6630" />
    <path
       style="fill:none;stroke:#00ffff;stroke-width:1.5;stroke-dasharray:none"
       d="m 2080.6515,353.56526 c 2.7289,3.49417 5.4022,7.0325 8.1867,10.48253 1.1257,1.3947 3.1512,2.29743 3.5402,4.04704 1.5451,6.94944 -29.8429,18.6272 -22.6426,11.61037"
       id="path6632" />
    <path
       style="fill:none;stroke:#00ffff;stroke-width:1.5;stroke-dasharray:none"
       d="m 1634.2158,438.95133 c 0.1967,5.15279 0.249,10.31314 0.5901,15.45839 0.2002,3.02064 0.5337,6.03702 1.0325,9.02293 2.4669,14.76787 9.7372,-10.64972 14.0133,-6.10376 3.3079,3.51658 4.3815,12.88537 9.6619,14.52957 8.4722,2.63805 14.8945,-23.05743 15.9309,-27.2678 0.121,-0.49136 -0.4917,0.88458 -0.7375,1.32686"
       id="path6634" />
    <path
       style="fill:none;stroke:#00ffff;stroke-width:1.5;stroke-dasharray:none"
       d="m 1673.3794,476.70166 c -0.713,4.88741 -1.4259,9.77482 -2.1388,14.66223 -0.3442,0.90672 -1.3538,3.63527 -1.0326,2.72018 0.7637,-2.17549 1.9463,-4.23363 2.3602,-6.50185 0.6527,-3.57785 -0.4952,-7.48635 0.8112,-10.88056 3.8324,-9.95725 9.7329,-18.99169 14.3822,-28.59474 3.7727,-7.79261 12.3815,-26.54922 16.0046,-33.17251"
       id="path6636" />
    <path
       style="fill:none;stroke:#00ffff;stroke-width:1.5;stroke-dasharray:none"
       d="m 1758.3445,478.29392 c 0.1967,-2.3663 -0.345,-4.91635 0.5901,-7.09893 1.11,-2.59075 4.8104,3.19061 6.4167,5.50667 6.2614,9.02835 16.6417,24.98428 3.3189,33.23883 -6.2079,3.84633 -20.1024,4.34055 -20.2825,-6.6345 -0.062,-3.76177 2.5568,-7.07681 3.8353,-10.61522"
       id="path6638" />
    <path
       style="fill:none;stroke:#00ffff;stroke-width:1.5;stroke-dasharray:none"
       d="m 1783.8636,476.70166 c 5.729,10.6005 21.6146,22.33723 30.6818,7.56332 2.8474,-4.63944 2.8351,-11.15017 3.319,-16.25454"
       id="path6640" />
    <path
       style="fill:none;stroke:#00ffff;stroke-width:1.5;stroke-dasharray:none"
       d="m 1822.5847,455.47123 c -19.4049,13.33299 15.6347,8.84991 18.1436,20.36794 1.5656,7.18733 -13.661,20.6502 -11.0632,14.66223 1.7312,-3.99058 3.8844,-7.78449 5.8266,-11.67673 3.6385,-7.60756 7.2703,-15.21837 10.9156,-22.82268 0.3621,-0.75519 0.2705,-2.30758 1.1064,-2.25573 1.3732,0.0852 8.4357,32.5424 7.0066,34.7648 -0.7533,1.17153 -2.5567,1.10576 -3.8351,1.65864 -4.204,-4.33454 -9.443,-7.86368 -12.6121,-13.00362 -3.4835,-5.6498 29.4607,-5.92837 31.9357,-5.70568"
       id="path6642" />
    <path
       style="fill:none;stroke:#00ffff;stroke-width:1.5;stroke-dasharray:none"
       d="m 1950.6224,457.72696 c -11.3474,8.9458 -5.0332,28.29287 -13.2021,38.4801 -1.2629,1.57496 -2.3935,-0.6881 -2.8027,-1.19417"
       id="path6644" />
    <path
       style="fill:none;stroke:#00ffff;stroke-width:1.5;stroke-dasharray:none"
       d="m 1921.2681,468.27584 c 8.4531,-0.17092 12.3894,4.37814 19.1024,7.16526"
       id="path6646" />
    <path
       style="fill:none;stroke:#00ffff;stroke-width:1.5;stroke-dasharray:none"
       d="m 2041.4141,440.74264 c -10.2309,4.84846 -21.3252,14.42175 -19.9137,27.40049 1.5838,14.56251 18.7817,11.72493 26.7729,5.77202"
       id="path6648" />
    <path
       style="fill:none;stroke:#00ffff;stroke-width:1.5;stroke-dasharray:none"
       d="m 2057.6401,455.27218 c -15.8249,-3.77859 -4.8759,13.39178 4.6465,11.21235 4.2909,-0.9821 8.3604,-4.13451 11.4319,-7.09893 0.8874,-0.85645 2.4925,-4.2451 1.9914,-3.11822 -1.9578,4.40272 -7.552,27.03211 -0.3688,16.91799"
       id="path6650" />
    <path
       style="fill:none;stroke:#00ffff;stroke-width:1.5;stroke-dasharray:none"
       d="m 2081.684,454.34336 c 4.0202,-20.3032 -11.1126,6.92349 10.9157,-0.19902 0.602,-0.19463 7.3622,-9.6969 9.7356,-6.30277 4.0318,5.76561 1.185,28.48187 7.5967,18.04583"
       id="path6652" />
    <path
       style="fill:none;stroke:#00ffff;stroke-width:1.5;stroke-dasharray:none"
       d="m 2113.9147,457.85965 c 10.7042,-31.7758 -0.303,-1.21007 0,0 2.993,11.95236 11.8745,14.96589 11.8745,4.51146 4.6219,-2.41054 9.0779,-5.17033 13.8658,-7.23161 4.6167,-1.98758 4.9994,0.69193 8.2605,-3.18455 4.3051,-5.11745 -3.2126,-9.066 -7.6704,-4.5778 -4.6158,4.64744 -4.4445,18.22834 3.1714,17.64776 1.9076,-0.14543 3.3928,-1.76921 5.0891,-2.65381"
       id="path6654" />
    <path
       style="fill:none;stroke:#00ffff;stroke-width:1.5;stroke-dasharray:none"
       d="m 2158.4624,430.65818 c 0.162,-0.91713 2.3948,-13.85165 2.7289,-14.52957 1.642,-3.33187 3.3737,6.7132 4.1303,10.34984 0.9922,4.76909 1.737,9.58699 2.5076,14.39685 1.9621,12.24801 3.1623,24.54704 4.8678,36.82154"
       id="path6656" />
    <path
       style="fill:none;stroke:#ffffff;stroke-width:1.5;stroke-dasharray:none"
       d="m 1976.7314,598.71016 c 5.905,-11.81269 13.5795,-21.94851 26.6991,-25.67551"
       id="path6658" />
    <path
       style="fill:none;stroke:#ffffff;stroke-width:1.5;stroke-dasharray:none"
       d="m 593.8779,893.12039 c 2.69462,-24.09843 13.01787,-5.05497 11.43193,4.44513 -0.66169,3.96359 -1.71061,7.89647 -3.24516,11.61037 -1.58459,3.83503 -3.82741,7.37523 -6.04788,10.88062 -1.5009,2.36937 -3.29295,4.54663 -5.08905,6.70084 -0.42627,0.51128 -1.91822,1.81435 -1.54887,1.26055 3.98672,-5.97717 21.44353,-17.7075 28.76423,-13.8661"
       id="path6660" />
    <path
       style="fill:none;stroke:#ffffff;stroke-width:1.5;stroke-dasharray:none"
       d="m 639.01563,889.2724 c 2.69624,14.2726 3.24713,7.94954 -2.95018,24.1496 -1.11339,2.9105 -2.04362,5.95855 -3.76148,8.55851 -0.32414,0.49059 -0.77329,-0.94864 -0.88508,-1.52594 -0.92652,-4.78461 -1.27098,-9.66763 -2.13887,-14.46323 -0.7867,-5.26336 -1.47794,-10.54189 -2.3601,-15.79009 -0.20036,-1.19194 -0.72272,-2.31859 -0.88509,-3.51629 -0.0425,-0.31344 0.35714,0.52281 0.51631,0.79615 0.92278,1.58469 2.46143,2.96267 2.72889,4.77685 0.66767,4.52884 -2.65311,10.0028 -10e-6,13.73338 2.94271,4.1378 9.79795,3.14068 14.01336,5.97109 7.98082,5.35865 12.90928,21.52263 9.21929,0.59709"
       id="path6662" />
    <path
       style="fill:none;stroke:#ffffff;stroke-width:1.5;stroke-dasharray:none"
       d="m 652.43892,862.26998 c 1.84386,-2.67592 3.35587,-5.61393 5.53162,-8.02775 0.84169,-0.93382 2.16532,-1.29167 3.31893,-1.79134 10.15302,-4.3974 -2.69102,16.61575 -0.59004,20.50063 0.77684,1.43645 21.02,-8.19531 21.02,2.85285"
       id="path6664" />
    <path
       style="fill:none;stroke:#ffffff;stroke-width:1.5;stroke-dasharray:none"
       d="m 694.70021,889.73682 c 3.02694,4.51498 9.45285,28.06872 3.3927,31.24851 -2.50765,-4.7105 -6.80067,-8.84421 -7.52294,-14.13149 -0.38251,-2.80014 28.44721,-2.2726 31.34561,-2.18939"
       id="path6666" />
    <path
       style="fill:none;stroke:#ffffff;stroke-width:1.5;stroke-dasharray:none"
       d="m 756.65393,901.41354 c -2.19294,-0.254 -16.65951,5.32877 -19.10241,0.0663 -1.96943,-4.24249 3.06723,-13.74614 3.68776,-17.84681 0.28321,-1.87145 -0.44998,-7.51994 -0.66379,-5.6393 -1.55617,13.68692 6.72786,29.05164 14.08708,39.93967 3.42884,5.07299 5.85224,11.41918 8.99806,6.56817"
       id="path6668" />
    <path
       style="fill:none;stroke:#ffffff;stroke-width:1.5;stroke-dasharray:none"
       d="m 785.71325,883.43405 c -1.10633,4.59991 -1.70315,9.35315 -3.31896,13.79977 -1.30807,3.59978 -3.33518,6.9148 -5.38411,10.15076 -11.97584,18.91387 -10.9928,-24.0565 -9.88309,-24.48129 0.9634,-0.36877 1.93498,0.8009 2.72889,1.45958 3.98544,3.30663 22.36517,26.42573 25.07657,20.63329"
       id="path6670" />
    <path
       style="fill:none;stroke:#ffffff;stroke-width:1.5;stroke-dasharray:none"
       d="m 796.26007,880.51485 c 2.85187,4.82108 6.01377,9.47174 8.55557,14.46323 0.96774,1.90043 1.2605,4.07485 1.91759,6.10373 2.41176,7.44662 1.48725,-11.04797 8.55549,-9.95175 6.19667,0.96105 6.3745,11.14079 10.03059,14.72859"
       id="path6672" />
    <path
       style="fill:none;stroke:#ffffff;stroke-width:1.5;stroke-dasharray:none"
       d="m 846.04431,879.98409 c -0.44252,-2.10092 0.7734,-6.74528 -1.32752,-6.30277 -2.10092,0.44252 0.98015,4.18404 1.32752,6.30277 0.26307,1.60454 5.97625,25.98693 3.17145,26.33898 -1.73939,0.21834 -3.3927,-0.8846 -5.08904,-1.32691"
       id="path6674" />
    <path
       style="fill:none;stroke:#ffffff;stroke-width:1.5;stroke-dasharray:none"
       d="m 832.10479,898.16264 c 10.37069,-5.10686 22.40283,-4.15822 33.70572,-3.78169"
       id="path6676" />
    <path
       style="fill:none;stroke:#ffffff;stroke-width:1.5;stroke-dasharray:none"
       d="m 878.34877,868.77179 c 0.35179,2.56466 0.36843,24.75701 2.2864,24.68034 4.47844,-0.17902 6.37971,-9.97106 10.47316,-1.85764 1.89748,3.76089 6.72875,29.01291 4.8678,14.1315"
       id="path6678" />
    <path
       style="fill:none;stroke:#ffffff;stroke-width:1.5;stroke-dasharray:none"
       d="m 892.06712,850.85863 c 2.80266,-2.45475 5.4242,-5.13321 8.40799,-7.36431 10.38214,-7.76316 -2.28682,10.42691 -0.44247,14.59593 3.34608,7.56353 16.71304,-2.59916 19.91368,6.03736"
       id="path6680" />
    <path
       style="fill:none;stroke:#ffffff;stroke-width:1.5;stroke-dasharray:none"
       d="m 939.78629,890.93104 c 7.61926,-1.49981 15.47767,-3.17293 23.30638,-2.85287"
       id="path6682" />
    <path
       style="fill:none;stroke:#ffffff;stroke-width:1.5;stroke-dasharray:none"
       d="m 1003.2888,874.01306 c -9.07664,6.67938 -12.31344,15.0469 -14.89839,25.34377 -0.42958,1.71119 -0.48864,-3.49459 -0.73756,-5.24123"
       id="path6684" />
    <path
       style="fill:none;stroke:#ffffff;stroke-width:1.5;stroke-dasharray:none"
       d="m 983.74393,877.46299 c -1.30302,-1.87979 -2.02925,-6.94233 -3.90901,-5.63931 -1.87979,1.303 2.06034,4.29252 3.90901,5.63931 5.27137,3.84018 11.39666,6.34608 17.03727,9.62003 3.1618,1.83526 6.2582,3.7814 9.3667,5.70569 0.2217,0.13724 5.0892,3.33645 5.0892,3.18455 0,-0.74917 -0.4917,-1.41536 -0.7376,-2.12304"
       id="path6686" />
    <path
       style="fill:none;stroke:#ffffff;stroke-width:1.5;stroke-dasharray:none"
       d="m 1034.6344,880.64754 c 2.2597,-1.34626 21.4015,4.17636 22.7902,-3.31724"
       id="path6688" />
    <path
       style="fill:none;stroke:#ffffff;stroke-width:1.5;stroke-dasharray:none"
       d="m 1060.9648,862.86709 c 4.5612,9.6234 4.1533,6.85194 5.6053,17.05067 0.7625,5.35483 -0.012,7.39127 0.6638,7.16526 3.2509,-1.08812 4.8859,-8.94842 9.8831,-6.70086 5.9653,2.68306 3.2228,12.43105 6.8592,16.51992"
       id="path6690" />
    <path
       style="fill:none;stroke:#ffffff;stroke-width:1.5;stroke-dasharray:none"
       d="m 1121.2222,880.51485 c -8.7284,-1.22074 33.5822,-0.64641 25.4452,-1.45958"
       id="path6692" />
    <path
       style="fill:none;stroke:#ffffff;stroke-width:1.5;stroke-dasharray:none"
       d="m 1154.0429,864.72475 c 2.4585,-2.87496 4.5499,-6.10978 7.3754,-8.62488 4.4934,-3.99966 18.6561,-9.18565 15.7835,3.05188 -1.4229,6.06148 -17.7407,29.78867 -17.2586,30.85042 2.3613,5.20012 27.5743,-6.3487 31.6407,-10.08441"
       id="path6694" />
    <path
       style="fill:none;stroke:#ffffff;stroke-width:1.5;stroke-dasharray:none"
       d="m 1209.875,859.3508 c 0.5595,4.43989 -12.4552,39.66022 -16.2997,40.00603 -2.22,0.19968 -1.1685,-4.34086 -1.2539,-6.56812"
       id="path6696" />
    <path
       style="fill:none;stroke:#ffffff;stroke-width:1.5;stroke-dasharray:none"
       d="m 1191.5839,869.50157 c 12.356,7.63891 23.303,17.47086 32.8207,28.32933"
       id="path6698" />
    <path
       style="fill:none;stroke:#ffffff;stroke-width:1.5;stroke-dasharray:none"
       d="m 1268.7311,861.93827 c -1.5452,-0.2644 1.9759,29.06286 1.1063,28.86006 -0.9611,-0.22416 -1.2784,-1.50381 -1.9176,-2.25573 7.0438,-16.56689 8.151,-10.21591 21.7575,-15.72375"
       id="path6700" />
    <path
       style="fill:none;stroke:#ffffff;stroke-width:1.5;stroke-dasharray:none"
       d="m 1310.2548,858.48831 c 0.3196,1.96824 1.2333,3.92967 0.9588,5.90471 -0.6218,4.4745 -9.4748,28.98013 -13.8659,30.38602 -1.7313,0.55433 -1.9517,-3.1123 -2.5076,-4.8432"
       id="path6702" />
    <path
       style="fill:none;stroke:#ffffff;stroke-width:1.5;stroke-dasharray:none"
       d="m 1290.5624,862.73437 c 2.8764,2.78649 5.6919,5.63721 8.6292,8.35949 9.1948,8.52175 18.869,16.37471 28.4693,24.41498 4.1514,3.47683 1.2525,1.71886 -0.2213,0.59708"
       id="path6704" />
    <path
       style="fill:none;stroke:#ffffff;stroke-width:1.5;stroke-dasharray:none"
       d="m 1368.6683,862.0046 c -1.3586,4.40976 -11.6034,46.70708 -15.0459,45.37998 -2.2043,-0.84976 -2.8027,-3.80375 -4.204,-5.70563"
       id="path6706" />
    <path
       style="fill:none;stroke:#ffffff;stroke-width:1.5;stroke-dasharray:none"
       d="m 1336.2901,875.73801 c 8.6601,0.99708 17.387,4.03516 24.7815,8.69122"
       id="path6708" />
    <path
       style="fill:none;stroke:#ffffff;stroke-width:1.5;stroke-dasharray:none"
       d="m 1366.2344,829.1638 c 11.5593,-0.19997 31.2508,-2.51449 37.836,10.61522 2.5925,5.16879 3.4178,17.86154 4.1303,22.35827 2.2232,14.03109 3.1187,18.54173 7.9655,32.17732 2.5556,7.18971 12.7428,23.27305 10.0306,31.97834 -3.0737,9.86578 -26.2859,12.05955 -33.3371,13.79977 -4.8197,1.18948 -9.6219,2.45205 -14.4558,3.58261 -2.5427,0.59468 -5.0638,1.74861 -7.6704,1.59227 -1.5658,-0.0939 2.9009,-1.19423 4.3514,-1.79131"
       id="path6710" />
    <path
       style="fill:none;stroke:#ffffff;stroke-width:1.5;stroke-dasharray:none"
       d="m 530.00656,853.64511 c -6.99791,2.35384 -18.54835,2.47822 -23.97019,8.35949 -4.08858,4.43505 0.65341,28.20143 0.9588,33.57057 0.72789,12.79782 0.74337,28.52264 0,40.80219 -0.14378,2.37522 -5.73051,34.38866 -5.6791,34.43311 4.36348,3.77116 30.4968,-1.40705 35.69719,-2.12307 0.50273,-0.0692 17.26636,-0.67522 15.26711,-4.04704"
       id="path6712" />
    <path
       style="fill:none;stroke:#ffffff;stroke-width:1.5;stroke-dasharray:none"
       d="m 454.03947,887.54742 c -0.9417,3.83482 6.15233,27.3776 4.35153,30.38602"
       id="path6714" />
    <path
       style="fill:none;stroke:#ffffff;stroke-width:1.5;stroke-dasharray:none"
       d="m 429.18422,940.49078 c 14.31783,0.38449 28.45099,-1.94577 42.70383,-2.78651 2.22462,-0.13123 7.89932,-1.04098 6.6379,0.79613 -1.04217,1.51781 -2.80268,2.38842 -4.20399,3.58264"
       id="path6716" />
    <path
       style="fill:none;stroke:#ffffff;stroke-width:1.5;stroke-dasharray:none"
       d="m 451.23679,962.65001 c 3.08566,2.59582 6.18213,28.92872 7.15421,30.38604 1.09807,1.64621 3.3588,-2.32611 5.31034,-2.65379 4.71895,-0.79238 8.04545,-0.2775 11.35817,3.11822 0.93228,0.95564 4.60785,7.96132 0.88503,7.96132"
       id="path6718" />
    <path
       style="fill:none;stroke:#ffffff;stroke-width:1.5;stroke-dasharray:none"
       d="m 857.77133,872.22175 c 7.58867,-15.49908 0.003,-0.51835 0,0 -0.0351,5.1802 3.72356,9.88118 3.83519,15.06029 0.10197,4.73096 -6.89089,11.08739 -6.49042,15.59108 0.0361,0.40531 3.24827,-1.20214 6.26917,-1.32691 2.64454,-0.10922 14.30835,-0.77206 14.30835,5.17493"
       id="path6720" />
    <path
       style="fill:none;stroke:#ffffff;stroke-width:1.5;stroke-dasharray:none"
       d="m 1237.6067,950.70793 c 19.6044,-34.42202 40.2652,-68.04133 64.9776,-99.11953 6.5504,-8.2378 13.9847,-15.74003 20.6513,-23.88417 14.4477,-17.65001 19.4693,-14.07025 10.8419,-18.57664"
       id="path6722" />
    <path
       style="fill:none;stroke:#ffffff;stroke-width:1.5;stroke-dasharray:none"
       d="m 1015.6058,874.30643 c 1.473,0 6.8934,-19.10739 7.0067,-19.10739 0.788,0 -0.3404,1.54077 -0.4426,2.32206 -0.2048,1.56626 0.059,3.23943 -0.5163,4.71051 -1.6395,4.1924 -5.3893,7.62167 -6.0478,12.07482 -1.2833,8.67851 4.5563,20.17897 -1.4751,28.86008 -1.1108,1.59872 -1.7429,-3.50464 -2.2863,-5.37395"
       id="path6724" />
    <path
       style="fill:none;stroke:#ffffff;stroke-width:1.5;stroke-dasharray:none"
       d="m 1001.2975,869.3969 c 1.2757,-3.48377 -4.71364,-4.83053 -5.16282,-7.96142 -0.44921,-3.13089 2.46092,6.31695 5.16282,7.96142 13.0582,7.94782 6.5864,-2.59123 13.202,3.51628"
       id="path6726" />
    <path
       style="fill:none;stroke:#ffffff;stroke-width:1.5;stroke-dasharray:none"
       d="m 946.36952,959.89456 c 18.11266,-55.57412 45.97866,-107.10302 76.11458,-156.90596 10.8053,-17.85692 22.6055,-34.79356 32.747,-53.0097 2.8086,-5.04467 22.0074,-37.16242 16.8897,-44.91558"
       id="path6728" />
    <path
       style="fill:none;stroke:#ffffff;stroke-width:1.5;stroke-dasharray:none"
       d="m 823.56327,1088.4837 c -9.23147,-2.0048 -27.48362,12.4416 -33.18949,11.146 -5.55069,-1.2604 9.91119,-27.6808 10.91565,-30.6514 0.7779,-2.3006 1.31622,-9.6216 0.88506,-7.2316 -0.92028,5.1011 -1.96371,10.2146 -2.21266,15.3921 -0.34753,7.2271 5.31032,40.0163 14.01334,41.6646"
       id="path6736" />
    <path
       style="fill:none;stroke:#ffffff;stroke-width:1.5;stroke-dasharray:none"
       d="m 841.85437,1075.6791 c 2.3088,4.9833 1.91288,37.7796 -2.4339,38.1485 -3.34132,0.2835 -4.25374,-5.2157 -5.97408,-8.0941"
       id="path6738" />
    <path
       style="fill:none;stroke:#ffffff;stroke-width:1.5;stroke-dasharray:none"
       d="m 828.43108,1086.8914 c 8.74569,-3.9154 22.811,22.1423 29.05926,24.1497 0.77126,0.2478 1.32755,-0.9289 1.99134,-1.3933"
       id="path6740" />
    <path
       style="fill:none;stroke:#ffffff;stroke-width:1.5;stroke-dasharray:none"
       d="m 868.77472,1085.7636 c 6.93652,-4.2964 15.52519,-1.9795 22.86389,-4.1797"
       id="path6742" />
    <path
       style="fill:none;stroke:#ffffff;stroke-width:1.5;stroke-dasharray:none"
       d="m 910.15095,1068.6466 c -1.07363,2.5666 -9.20891,39.4699 -12.53824,33.1062"
       id="path6744" />
    <path
       style="fill:none;stroke:#ffffff;stroke-width:1.5;stroke-dasharray:none"
       d="m 889.13096,1075.5465 c -0.76213,-1.8356 -0.45085,-6.2688 -2.28639,-5.5067 -1.83555,0.7622 0.58192,4.4845 2.28639,5.5067 10.01239,6.0043 16.29016,0.937 18.2911,13.1363"
       id="path6746" />
    <path
       style="fill:none;stroke:#ffffff;stroke-width:1.5;stroke-dasharray:none"
       d="m 776.50792,1057.567 c -5.99263,21.6558 -3.63119,45.2472 -1.84383,67.4729 0.34089,4.2388 -1.39642,9.5353 1.47511,12.6719 1.93159,2.1098 1.77009,-5.4403 2.65514,-8.1605"
       id="path6748" />
    <path
       style="fill:none;stroke:#ffffff;stroke-width:1.5;stroke-dasharray:none"
       d="m 767.65737,1073.158 c 0.71297,-4.3566 -0.17653,-9.3113 2.13892,-13.0699 6.23131,-10.1153 43.57608,-21.232 51.55432,-23.6852 20.55099,-6.3191 49.7376,-15.3145 71.3943,-16.9843 3.93835,-0.3037 2.72907,7.4203 3.83527,11.2123 1.81779,6.2313 3.56838,12.5114 6.04781,18.5103 7.04483,17.0445 18.31047,36.1175 27.65798,51.55 1.93294,3.1912 32.14413,47.5214 27.5104,51.6165 -1.08151,0.9558 -9.42332,-2.4556 -12.16951,-3.2509 -5.96694,-1.728 -11.87341,-3.7925 -17.99603,-4.8432 -13.11685,-2.2511 -26.33059,-4.1047 -39.60614,-5.0422 -11.82079,-0.8348 -23.69976,-0.177 -35.54966,-0.2654 -12.71034,0.398 -25.4414,2.0217 -38.13103,1.1942 -13.87647,-0.9049 -27.48584,-4.2461 -41.22875,-6.3691"
       id="path6750" />
    <path
       style="fill:none;stroke:#ffffff;stroke-width:1.5;stroke-dasharray:none"
       d="m 807.11603,1128.0254 c -11.04445,-7.0035 -21.80635,-14.4161 -31.93571,-22.69"
       id="path6752" />
    <path
       style="fill:none;stroke:#ffffff;stroke-width:1.5;stroke-dasharray:none"
       d="m 1115.4531,105.67323 c -9.5401,5.31917 -19.7263,9.18659 -29.8706,13.1363 -1.8924,0.73681 -6.3854,3.1829 -5.9741,1.19423 1.1841,-5.7251 5.5348,-10.3005 8.408,-15.39203 2.9383,-5.206864 5.9375,-10.385379 8.6293,-15.723803 7.7429,-15.355688 2.4326,-12.19737 5.2365,5.241267 1.5968,9.930456 7.5327,41.341556 21.7576,41.001236 2.1582,-0.0516 3.0977,-3.00764 4.6466,-4.51146"
       id="path6754" />
    <path
       style="fill:none;stroke:#ffffff;stroke-width:1.5;stroke-dasharray:none"
       d="m 1152.4778,86.035108 c 11.8543,-18.028674 0.091,-1.050631 0,0 -0.3177,3.674094 3.7515,6.665378 3.909,10.349815 0.1333,3.117482 -8.1825,36.380897 -11.7269,35.627287 -1.6091,-0.34212 -2.6759,-8.15425 -2.7289,-8.42582"
       id="path6756" />
    <path
       style="fill:none;stroke:#ffffff;stroke-width:1.5;stroke-dasharray:none"
       d="m 1136.1781,89.35234 c -0.6884,-1.835542 -0.2296,-6.195012 -2.0652,-5.506622 -1.8355,0.688388 0.7893,4.018314 2.0652,5.506622 3.3049,3.854942 7.7141,6.614684 11.3581,10.1508 12.026,11.66992 23.0106,24.1788 34.2222,36.55611"
       id="path6758" />
    <path
       style="fill:none;stroke:#ffffff;stroke-width:1.5;stroke-dasharray:none"
       d="m 1224.1671,108.45972 c 5.2881,0.0168 18.3839,3.27968 22.5689,-1.59226"
       id="path6760" />
    <path
       style="fill:none;stroke:#ffffff;stroke-width:1.5;stroke-dasharray:none"
       d="m 1285.5308,81.39093 c 3.8747,1.610288 4.6897,-4.905214 7.818,-5.6393 3.1282,-0.734087 -6.3871,2.762263 -7.818,5.6393 -1.4884,2.992929 1.2079,6.764308 0.4425,10.018122 -0.8146,3.463068 -3.4518,6.225387 -5.0153,9.420988 -4.9523,10.1219 -6.7852,14.48398 -10.1781,25.07842 -0.8101,2.52955 -1.3717,5.13204 -2.0651,7.69605 -0.1917,0.70903 0.1011,1.87436 -0.59,2.12301 -1.324,0.47634 -0.3266,-2.79755 -0.5901,-4.17972"
       id="path6762" />
    <path
       style="fill:none;stroke:#ffffff;stroke-width:1.5;stroke-dasharray:none"
       d="m 1243.122,79.466938 c 2.0897,0.442299 4.4673,0.179837 6.2691,1.326901 9.3159,5.930472 20.46,21.335211 24.4128,31.646581"
       id="path6764" />
    <path
       style="fill:none;stroke:#ffffff;stroke-width:1.5;stroke-dasharray:none"
       d="m 1134.0392,189.40068 c -5.0399,-0.81826 -10.1904,-1.12332 -15.1197,-2.45479 -6.3331,-1.7107 -23.531,-10.96052 -27.2891,-13.26902 -33.2101,-20.40003 -65.8051,-58.1314 -57.3809,-100.446368 6.7227,-33.768411 31.1608,-56.461882 59.8148,-73.1785654 58.8585,-34.3378466 143.9779,-39.9804326 200.9071,1.1942022 30.5507,22.0961792 41.6276,64.7928542 45.5065,99.7165812 8.4327,75.92532 -77.2754,111.53121 -139.0272,113.11829 -16.7767,0.43119 -33.7344,-3.06301 -49.6367,-8.42582 -35.1384,-11.84984 -55.2688,-33.9973 -74.0495,-65.88063 -7.3654,-12.50413 -9.883,-27.2899 -14.8246,-40.934849"
       id="path6766" />
  </g>
</svg>
