<?xml version="1.0" encoding="UTF-8" standalone="no"?>
<!-- Created with Inkscape (http://www.inkscape.org/) -->

<svg
   width="350.94174mm"
   height="533.89758mm"
   viewBox="0 0 350.94173 533.89759"
   version="1.1"
   id="svg12"
   inkscape:version="1.2.1 (9c6d41e410, 2022-07-14, custom)"
   sodipodi:docname="icmp_round_trip_example.svg"
   xml:space="preserve"
   xmlns:inkscape="http://www.inkscape.org/namespaces/inkscape"
   xmlns:sodipodi="http://sodipodi.sourceforge.net/DTD/sodipodi-0.dtd"
   xmlns="http://www.w3.org/2000/svg"
   xmlns:svg="http://www.w3.org/2000/svg"><sodipodi:namedview
     id="namedview14"
     pagecolor="#000000"
     bordercolor="#ffffff"
     borderopacity="1"
     inkscape:showpageshadow="0"
     inkscape:pageopacity="0"
     inkscape:pagecheckerboard="0"
     inkscape:deskcolor="#000000"
     inkscape:document-units="mm"
     showgrid="true"
     inkscape:zoom="0.45254834"
     inkscape:cx="746.88154"
     inkscape:cy="1555.6349"
     inkscape:window-width="1366"
     inkscape:window-height="746"
     inkscape:window-x="0"
     inkscape:window-y="0"
     inkscape:window-maximized="1"
     inkscape:current-layer="layer1"
     inkscape:lockguides="true"><inkscape:grid
       type="xygrid"
       id="grid344"
       color="#969696"
       opacity="0.39215686"
       empcolor="#ffffff"
       empopacity="0.17254902"
       dotted="false"
       originx="-15607.347"
       originy="-31456.679" /></sodipodi:namedview><defs
     id="defs9" /><g
     inkscape:label="Layer 1"
     inkscape:groupmode="layer"
     id="layer1"
     transform="translate(-15712.349,-31605.178)"><path
       style="fill:none;stroke:#ff9955;stroke-width:0.499999"
       d="m 15755.485,31606.011 c 1.002,6.067 0.373,12.428 -0.03,18.524 -0.192,2.897 -0.635,6.985 -1.29,9.927 -0.109,0.492 -0.07,1.622 -0.534,1.416 -0.08,-0.04 -0.731,-3.522 -0.912,-4.469"
       id="path399" /><path
       style="fill:none;stroke:#ff9955;stroke-width:0.499999"
       d="m 15750.266,31611.639 c -0.388,-2.781 -1.315,-2.918 0.817,-3.45 1.936,-0.484 3.852,-1.066 5.817,-1.416 2.135,-0.375 5.426,-0.621 7.671,-0.08 1.057,0.254 3.302,0.423 2.925,1.442 -0.411,1.108 -1.7,1.643 -2.579,2.434"
       id="path401" /><path
       style="fill:none;stroke:#ff9955;stroke-width:0.499999"
       d="m 15752.812,31625.837 c -0.66,0.849 -1.309,1.706 -1.98,2.545 -0.107,0.135 -4.855,5.392 -4.15,5.884 2.396,1.665 10.563,-1.918 13.173,-2.434 1.94,-0.384 3.914,-0.574 5.88,-0.791 0.552,-0.06 1.666,-0.5 1.666,0.06 0,0.685 -1.234,0.608 -1.886,0.82"
       id="path403" /><path
       style="fill:none;stroke:#ff9955;stroke-width:0.499999"
       d="m 15782.65,31614.1 c -0.901,0.518 -2.146,0.677 -2.704,1.556 -3.082,4.852 -6.575,14.2 -5.251,20.306 0.225,1.037 0.857,2.13 1.793,2.63 2.09,1.114 5.867,-2.132 6.728,-2.828 0.937,-0.76 3.545,-2.059 2.484,-2.63 -0.281,-0.151 -0.625,0.14 -0.943,0.169"
       id="path405" /><path
       style="fill:none;stroke:#ff9955;stroke-width:0.499999"
       d="m 15793.874,31632.681 c 1.472,-4.111 0.571,-1.24 1.824,-6.958 0.27,-1.228 0.584,-2.447 0.849,-3.675 0.471,-2.188 0.653,-3.133 0.943,-5.064 0.03,-0.17 0.04,-0.678 0.06,-0.508 0.71,4.466 1.016,8.427 3.616,12.388 0.442,0.674 0.898,2 1.666,1.754 2.543,-0.818 1.183,-15.05 1.195,-17.592 0,-0.882 -0.504,-2.178 0.252,-2.63 0.212,-0.127 0.513,0.14 0.66,0.338 3.971,5.408 3.168,4.429 5.376,9.446 1.049,2.384 2.738,6.964 3.364,6.646 0.358,-0.18 0.21,-0.772 0.315,-1.159"
       id="path407" /><path
       style="fill:none;stroke:#ff9955;stroke-width:0.499999"
       d="m 15826.697,31634.039 c 0.272,1.111 0.58,2.217 0.818,3.336 0.03,0.122 0,0.487 -0.03,0.368 -1.819,-7.001 -0.983,-14.454 -2.767,-21.466 -3.074,-4.234 -3.637,-11.947 4.182,-10.718 6.118,0.961 8.63,10.001 6.225,14.82 -3.474,6.963 -10.994,6.187 -9.212,-0.227"
       id="path409" /><path
       style="fill:none;stroke:#ff9955;stroke-width:0.499999"
       d="m 15774.287,31683.278 c 1.389,3.939 0.691,8.353 0.691,12.472 0,11.208 -0.458,22.455 -0.22,33.658 0.05,2.323 0.238,4.641 0.409,6.956 0.242,3.278 0.582,4.752 0.472,4.752 -0.969,0 -0.946,-1.694 -1.352,-2.572"
       id="path411" /><path
       style="fill:none;stroke:#ff9955;stroke-width:0.499999"
       d="m 15777.682,31686.418 c 4.037,-0.587 7.891,0.905 11.917,0.905 2.646,0 4.606,-0.28 7.2,-0.143 4.068,0.217 8.017,1.273 12.073,1.556 2.95,0.206 6.736,0.161 9.841,0.283 5.867,0.233 11.71,0.924 17.575,1.188 8.726,0.394 17.651,0.06 26.379,-0.309 12.683,-0.535 25.476,-0.948 38.139,-1.924 12.44,-0.96 24.713,-3.204 37.131,-4.299 11.25,-0.993 22.526,-1.302 33.768,-2.546 5.085,-0.563 10.126,-1.383 15.186,-2.122 2.236,-0.325 4.506,-0.397 6.697,-0.989 2.91,-0.789 5.958,-2.03 8.992,-2.516 2.255,-0.363 4.475,-0.516 6.729,-0.963 1.237,-0.247 7.33,-1.646 8.363,-1.13 0.277,0.137 0.106,0.521 0.126,0.735 0.122,1.321 0.306,2.638 0.44,3.958 1.084,10.727 0.68,21.368 0.912,32.102 0.155,7.176 1.373,15.14 0.88,22.426 -0.155,2.294 -0.918,4.501 -1.006,6.819 -0.03,0.666 0.7,3.879 0.409,4.778 -0.131,0.405 -4.622,-0.04 -5.125,-0.06 -8.756,-0.225 -17.625,1.717 -26.348,2.291 -5.226,0.341 -10.671,0.778 -15.909,0.622 -3.163,-0.1 -6.256,-0.453 -9.432,-0.342 -3.512,0.125 -6.811,1.037 -10.282,1.445 -9.398,1.101 -18.896,2.286 -28.328,2.998 -7.304,0.547 -14.657,0.312 -21.977,0.537 -15.493,0.476 -31.005,0.653 -46.502,1.045 -19.287,0.489 -38.546,2.818 -57.851,2.913 -6.13,0.03 -12.118,0.246 -18.204,0.989 -1.593,0.196 -3.184,0.405 -4.78,0.567 -1.268,0.129 -1.61,-0.241 -2.578,-0.199 -0.245,0.03 -0.791,0.479 -0.691,0.257 0.558,-1.257 1.551,-1.895 1.886,-3.339 0.825,-3.551 0.672,-7.745 0.88,-11.314 0.331,-5.659 0.546,-9.265 0.786,-14.565 0.09,-1.955 1.364,-10.79 -0.691,-12.301"
       id="path413" /><path
       style="fill:none;stroke:#ff9955;stroke-width:0.499999"
       d="m 15778.437,31725.336 c 3.817,-2.125 7.728,-1.008 11.853,-1.813 7.485,-1.455 15.035,-2.865 22.575,-4.013 3.807,-0.582 7.605,-0.445 11.444,-0.651 3.949,-0.214 7.855,-0.871 11.791,-1.217 9.226,-0.815 18.569,-0.95 27.825,-1.048 10.882,-0.111 21.794,0.738 32.668,0.482 11.728,-0.276 23.363,-1.302 35.119,-1.215 10.619,0.08 21.158,1.238 31.756,1.384 7.555,0.106 15.008,-0.931 22.511,-1.582 8.46,-0.736 17.73,-0.342 26.317,-0.426 4.731,-0.05 8.525,1.495 12.859,-0.932"
       id="path415" /><path
       style="fill:none;stroke:#ff9955;stroke-width:0.499999"
       d="m 15790.039,31699.936 c 0.136,-0.857 1.266,-2.437 0.408,-2.572 -0.857,-0.137 -0.408,1.704 -0.408,2.572 0,3.932 0.339,8.223 0.974,12.163 0.157,0.971 0.577,2.987 0.944,4.156 0.06,0.186 0.209,0.731 0.22,0.537 0.06,-1.076 -1.133,-3.368 -1.321,-3.817 4.888,-2.32 2.857,-2.149 5.723,-2.149"
       id="path417" /><path
       style="fill:none;stroke:#ff9955;stroke-width:0.499999"
       d="m 15802.741,31705.085 c 1.51,-0.252 1.087,20.862 -2.107,12.869"
       id="path419" /><path
       style="fill:none;stroke:#ff9955;stroke-width:0.499999"
       d="m 15798.276,31709.299 c 2.766,-0.658 3.173,1.035 5.188,2.093"
       id="path421" /><path
       style="fill:none;stroke:#ff9955;stroke-width:0.499999"
       d="m 15812.456,31711.025 c 3.174,3.952 -2.858,-9.237 -2.546,-9.758 0.115,-1.395 -0.148,-2.876 0.345,-4.186 0.248,-0.657 1.028,-1.037 1.698,-1.245 5.081,-1.569 3.245,11.53 0.723,9.334 -1.202,-1.048 -1.844,-2.602 -2.766,-3.903"
       id="path423" /><path
       style="fill:none;stroke:#ff9955;stroke-width:0.499999"
       d="m 15815.286,31701.465 c 2.094,-0.124 3.699,1.99 5.785,1.865 2.839,-0.166 5.093,-5.773 3.459,-6.08 -2.474,-0.465 -8.164,7.821 -0.629,10.832 1.369,0.548 4.147,-0.441 5.376,-1.217"
       id="path425" /><path
       style="fill:none;stroke:#ff9955;stroke-width:0.499999"
       d="m 15847.104,31701.209 c 0.542,-8.068 0.128,-0.268 0,0 -2.51,5.289 -5.37,3.206 -3.396,8.683 2.081,5.771 7.968,2.556 9.873,-1.302"
       id="path427" /><path
       style="fill:none;stroke:#ff9955;stroke-width:0.499999"
       d="m 15857.637,31708.45 c -1.216,-1.696 -2.778,-3.193 -3.647,-5.09 -0.429,-0.937 -1.029,-4.345 0.471,-5.403 2.351,-1.656 7.481,5.003 6.383,7.183 -0.691,1.373 -2.138,2.207 -3.207,3.31 z"
       id="path429" /><path
       style="fill:none;stroke:#ff9955;stroke-width:0.499999"
       d="m 15861.756,31696.629 c 3.129,-1.897 6.934,12.316 4.527,12.641 -2.919,0.395 -4.533,-6.469 -1.855,-7.72 2.875,-1.344 5.254,4.146 7.829,0.06 0.159,-0.251 2.233,-6.699 0.503,-5.514 -1.384,0.948 -2.606,2.178 -3.553,3.564 -1.02,1.493 -2.356,6.948 0.912,7.38 3.534,0.468 9.047,-2.543 10.03,-6.08"
       id="path431" /><path
       style="fill:none;stroke:#ff9955;stroke-width:0.499999"
       d="m 15838.646,31719.142 c 2.198,-9.279 3.761,-18.77 4.937,-28.228 0.432,-3.472 0.84,-2.826 -0.409,-4.099"
       id="path433" /><path
       style="fill:none;stroke:#ff9955;stroke-width:0.499999"
       d="m 15904.264,31717.274 c 0.189,-1.423 0.441,-2.839 0.566,-4.27 0.658,-7.541 1.261,-15.206 1.572,-22.768 0.16,-3.905 -0.03,-9.318 -0.755,-7.297"
       id="path435" /><path
       style="fill:none;stroke:#ff9955;stroke-width:0.499999"
       d="m 15930.643,31691.369 c 0.04,-7.66 0,0 0,0 -0.914,1.251 -3.16,0.868 -4.182,2.034 -1.381,1.577 -3.572,8.065 -3.71,10.465 -0.563,9.839 9.677,6.826 11.193,2.828 0.245,-0.643 0,-1.376 0,-2.064"
       id="path437" /><path
       style="fill:none;stroke:#ff9955;stroke-width:0.499999"
       d="m 15934.793,31694.422 c 0.87,1.736 1.877,3.408 2.61,5.204 0.53,1.299 0.729,2.71 1.163,4.043 2.588,7.951 3.058,-5.821 5.691,-4.241 1.376,0.825 3.57,13.666 1.949,5.543"
       id="path439" /><path
       style="fill:none;stroke:#ff9955;stroke-width:0.499999"
       d="m 15946.521,31699.145 c 1.49,0.07 3.876,0.981 5.25,-0.254 0.884,-0.794 1.239,-6.197 -0.188,-5.26 -0.758,0.495 -0.896,1.593 -1.509,2.262 -1.086,1.183 -3.497,1.648 -3.553,3.252 -0.31,8.9 5.009,3.765 7.074,2.46"
       id="path441" /><path
       style="fill:none;stroke:#ff9955;stroke-width:0.499999"
       d="m 15957.903,31696.232 c -4.789,5.339 4.103,9.101 7.483,5.627 0.223,-0.227 -0.08,-0.669 -0.158,-0.904"
       id="path443" /><path
       style="fill:none;stroke:#ff9955;stroke-width:0.499999"
       d="m 15965.637,31692.358 c 0.971,0.744 0.661,10.483 3.804,10.888 0.397,0.05 0.566,-0.566 0.849,-0.849"
       id="path445" /><path
       style="fill:none;stroke:#ff9955;stroke-width:0.499999"
       d="m 15972.177,31697.306 c -6.067,-0.841 -3.975,8.072 -0.03,6.448 1.311,-0.537 2.438,-2.839 3.019,-3.76"
       id="path447" /><path
       style="fill:none;stroke:#ff9955;stroke-width:0.499999"
       d="m 15976.799,31694.62 c -0.849,0.188 -2.736,-0.283 -2.547,0.567 0.188,0.846 2.016,-1.257 2.547,-0.567 0.908,1.178 -0.204,3.099 0.44,4.44 0.793,1.654 5.003,2.106 4.213,4.921 -0.497,1.773 -6.888,7.369 -5.471,1.387"
       id="path449" /><path
       style="fill:none;stroke:#ff9955;stroke-width:0.499999"
       d="m 15979.283,31699.626 c 2.513,8.71 14.332,0.529 9.903,-3.593 -0.499,-0.463 -1.268,-0.502 -1.886,-0.791"
       id="path451" /><path
       style="fill:none;stroke:#ff9955;stroke-width:0.499999"
       d="m 15989.752,31691.369 c 0.482,1.431 1.01,2.849 1.447,4.297 0.349,1.156 0.584,2.344 0.911,3.508 2.171,7.694 -0.367,-1.953 2.61,-2.262 1.075,-0.114 1.562,4.463 1.604,4.863 0.05,0.516 -0.116,2.069 -0.03,1.555 0.136,-0.83 -0.04,-1.706 0.189,-2.516 2.198,-7.818 5.519,0.858 7.043,3.027"
       id="path453" /><path
       style="fill:none;stroke:#ff9955;stroke-width:0.499999"
       d="m 15849.022,31732.914 c 10.138,-1.511 8.402,20.15 2.421,18.187 -5.462,-1.794 -1.947,-9.633 2.012,-11.456"
       id="path455" /><path
       style="fill:none;stroke:#ff9955;stroke-width:0.499999"
       d="m 15860.718,31738.033 c 0.108,2.186 -0.925,7.79 2.453,8.626 4.262,1.055 8.319,-7.284 7.388,-10.634 -0.04,-0.159 -0.12,0.315 -0.125,0.482 -0.03,0.875 -0.08,1.759 0.03,2.63 0.133,1.071 0.927,7.659 3.773,6.985 0.985,-0.233 1.551,-1.3 2.326,-1.95"
       id="path457" /><path
       style="fill:none;stroke:#ff9955;stroke-width:0.499999"
       d="m 15878.042,31732.406 c -0.112,2.442 5.352,8.212 2.075,10.067 -1.163,-1.376 -2.888,-2.43 -3.489,-4.128 -0.168,-0.472 4.623,-1.769 6.319,-3.677 1.274,-1.432 1.003,-2.411 0.912,-2.347 -1.435,1.004 -2.743,7.14 -0.817,8.371 4.774,3.055 9.254,-6.644 7.954,-10.153 -0.443,-1.195 -0.204,2.616 0.22,3.818 1.519,4.3 7.775,5.952 11.571,7.297"
       id="path459" /><path
       style="fill:none;stroke:#ff9955;stroke-width:0.499999"
       d="m 15720.481,31843.52 c 0.161,8.363 0.09,16.714 -0.503,25.059 -0.109,1.547 -0.25,3.095 -0.408,4.638 -0.05,0.455 -0.37,1.264 -0.189,1.754 0.05,0.127 1.604,-0.847 2.641,-1.188 2.753,-0.908 5.364,-1.431 8.238,-1.781 7.091,-0.865 14.212,-0.378 21.317,-0.878 1.203,-0.08 3.022,0.206 4.181,-0.14 1.221,-0.368 0.669,-3.173 0.629,-3.593 -0.215,-2.278 -0.545,-4.543 -0.817,-6.816 -0.388,-3.638 -0.833,-7.271 -1.164,-10.917 -0.247,-2.725 0.08,-12.591 -1.194,-15.245 -0.01,-0.03 -2.606,1.442 -2.61,1.445 -3.684,0.997 -7.534,1.227 -11.287,1.92 -1.185,0.22 -22.951,6.081 -15.438,-0.677"
       id="path461" /><path
       style="fill:none;stroke:#ff9955;stroke-width:0.499999"
       d="m 16002.822,31835.575 c 1.301,7.418 0.752,15.007 0.346,22.484 -0.112,2.064 -0.165,4.13 -0.283,6.194 -0.04,0.651 -0.483,1.825 0.157,1.95 1.681,0.333 6.388,-1.601 7.515,-1.81 1.83,-0.336 3.678,-0.601 5.534,-0.736 1.643,-0.119 20.903,-0.04 21.599,-0.592 0.584,-0.461 0.665,-1.31 0.598,-1.979 -0.918,-9.136 -3.073,-18.082 -4.716,-27.096 -0.09,-0.5 -0.307,-5.58 -1.038,-5.967 -0.204,-0.108 -5.503,3.763 -5.691,3.903 -4.584,3.445 -10.326,5.863 -16.192,5.315 -2.657,-0.246 -5.208,-1.164 -7.829,-1.666 z"
       id="path463" /><path
       style="fill:none;stroke:#ff9955;stroke-width:0.499999"
       d="m 15722.778,31838.874 c 0.797,0.283 1.588,0.582 2.39,0.849 3.662,1.22 -1.862,-1.042 -2.39,-0.849 -1.449,0.534 -1.872,2.46 -2.892,3.622 -0.182,0.206 -0.565,0.14 -0.755,0.339 -0.31,0.325 0.169,0.883 0.22,1.328 0.354,3.101 0.1,6.3 -0.157,9.39 -0.223,2.72 -0.473,5.39 -0.252,8.117 0.08,0.956 0.25,1.903 0.346,2.858 0,0.09 0.03,0.339 0.03,0.254 0,-5.94 -0.198,-11.869 -0.09,-17.817 0.02,-1.048 -0.51,-5.083 0.252,-6.109 3.959,-5.342 21.206,-2.241 24.618,-6.845"
       id="path465" /><path
       style="fill:none;stroke:#ff9955;stroke-width:0.499999"
       d="m 15724.185,31654.756 c 0.341,5.013 -0.22,1.05 2.232,7.776 0.914,2.508 2.237,5.831 2.17,8.712 -0.09,4.014 -4.684,6.279 -7.892,3.676 -3.846,-3.12 4.087,-8.568 7.169,-8.568 5.52,-0.678 1.294,8.807 4.779,9.333 3.635,0.548 5.234,-4.641 5.691,-7.127 0.08,-0.457 -0.08,-1.761 -0.315,-1.358 -1.339,2.339 2.018,11.514 3.207,9.361 0.763,-1.38 0.86,-3.035 1.289,-4.553"
       id="path467" /><path
       style="fill:none;stroke:#ff9955;stroke-width:0.499999"
       d="m 15741.886,31662.619 c -2.949,-8.692 3.926,9.202 3.176,9.755 -0.335,0.249 -1.674,-0.51 -1.949,-0.648"
       id="path469" /><path
       style="fill:none;stroke:#ff9955;stroke-width:0.499999"
       d="m 15738.994,31668.869 c 1.09,-0.633 2.175,-1.273 3.27,-1.895 1.043,-0.595 2.132,-1.109 3.144,-1.754 2.082,-1.328 3.127,-3.18 2.578,-2.32 -1.025,1.608 -4.681,6.426 -0.692,7.749 2.337,0.778 4.765,-3.532 5.345,-5.006 0.384,-0.971 -0.284,-2.312 -0.22,-1.979 0.525,2.715 3.142,4.308 5.439,5.318"
       id="path471" /><path
       style="fill:none;stroke:#ff9955;stroke-width:0.499999"
       d="m 15776.346,31655.407 c 0.09,-0.972 1.254,-2.821 0.283,-2.914 -0.971,-0.09 -0.451,1.95 -0.283,2.914 0.912,5.238 2.389,7.911 2.389,12.866 0,0.426 0.02,-0.849 0.06,-1.272"
       id="path473" /><path
       style="fill:none;stroke:#ff9955;stroke-width:0.499999"
       d="m 15783.137,31659.931 c -0.237,1.765 -2.101,5.426 0.157,6.786 2.534,1.53 9.941,-3.122 8.929,-5.032 -0.133,-0.254 -1.712,0.744 -0.534,4.355 0.44,1.349 2.257,6.668 3.49,3.138"
       id="path475" /><path
       style="fill:none;stroke:#ff9955;stroke-width:0.499999"
       d="m 15798.858,31654.613 c 3.917,-0.08 4.265,13.541 -1.95,10.861"
       id="path477" /><path
       style="fill:none;stroke:#ff9955;stroke-width:0.499999"
       d="m 15792.223,31657.102 c 2.494,1.837 5.719,2.363 7.704,4.808"
       id="path479" /><path
       style="fill:none;stroke:#ff9955;stroke-width:0.499999"
       d="m 15810.302,31665.36 c -1.247,0 -2.559,0.371 -3.741,-0.03 -0.497,-0.17 -0.645,-0.918 -0.629,-1.442 0.189,-6.218 8.557,-6.379 7.105,-2.461 -0.554,1.495 -1.823,2.619 -2.735,3.929 z"
       id="path481" /><path
       style="fill:none;stroke:#ff9955;stroke-width:0.499999"
       d="m 15811.088,31659.394 c 0.818,-0.122 1.796,-0.871 2.452,-0.368 0.756,0.579 1.124,6.019 2.107,7.353 0.94,1.278 2.189,-1.302 2.264,-1.413 1.745,-2.601 3.978,-6.975 3.395,-10.38 3.724,4.136 4.759,9.271 4.905,14.679 0.01,0.4 -0.382,-0.705 -0.534,-1.075"
       id="path483" /><path
       style="fill:none;stroke:#ff9955;stroke-width:0.499999"
       d="m 15821.024,31663.804 c 3.134,-2.233 5.688,-2.809 9.086,-2.005"
       id="path485" /><path
       style="fill:none;stroke:#ff9955;stroke-width:0.499999"
       d="m 15715.491,31887.314 c 0.03,3.746 -4.244,8.152 -2.453,11.792 0.539,1.096 10.568,0.363 13.394,4.498 3.133,4.583 -6.58,13.004 -8.96,4.469 -0.434,-1.553 -0.357,-3.204 -0.535,-4.807"
       id="path487" /><path
       style="fill:none;stroke:#ff9955;stroke-width:0.499999"
       d="m 15721.276,31893.537 c 1.455,-1.543 2.056,-3.437 4.402,-2.659 3.464,1.148 6.119,4.278 7.608,7.495 0.265,0.572 0.148,2.064 -0.44,1.837 -3.993,-1.546 -4.483,-7.557 -2.987,-10.859 0.403,-0.889 1.488,-1.265 2.233,-1.897"
       id="path489" /><path
       style="fill:none;stroke:#ff9955;stroke-width:0.499999"
       d="m 15736.556,31884.967 c -0.667,2.188 -1.701,16.843 2.704,15.499 2.784,-0.852 2.816,-4.27 4.968,-5.347"
       id="path491" /><path
       style="fill:none;stroke:#ff9955;stroke-width:0.499999"
       d="m 15754.824,31881.94 c -7.247,-3.252 -0.599,-4.979 -0.221,-3.564 0.307,1.151 0.147,2.376 0.221,3.564 z"
       id="path493" /><path
       style="fill:none;stroke:#ff9955;stroke-width:0.499999"
       d="m 15755.484,31888.19 c 0.831,3.037 1.691,6.191 3.112,9.022"
       id="path495" /><path
       style="fill:none;stroke:#ff9955;stroke-width:0.499999"
       d="m 15761.363,31885.901 c 2.952,0.201 9.24,18.15 5.219,11.142"
       id="path497" /><path
       style="fill:none;stroke:#ff9955;stroke-width:0.499999"
       d="m 15763.47,31890.198 c -0.734,-1.479 -1.559,-2.919 -2.201,-4.44 -4.196,-9.948 8,-0.929 6.948,0.963 -0.953,1.715 -3.136,2.358 -4.747,3.477 z"
       id="path499" /><path
       style="fill:none;stroke:#ff9955;stroke-width:0.499999"
       d="m 16014.684,31877.048 c -2.72,-1.643 -0.642,-4.625 -0.346,-3.535 0.311,1.14 -0.08,2.429 0.346,3.535 1.232,3.207 5.435,7.39 4.37,11.652 -0.893,3.572 -6.89,-8.183 -4.653,-8.287 2.568,-0.119 8.422,2.104 9.904,1.641 1.998,-0.627 2.315,-5.71 1.32,-4.752 -1.058,1.016 -3.713,7.625 -0.282,6.845 1.243,-0.283 2.158,-1.358 3.238,-2.038"
       id="path501" /><path
       style="fill:none;stroke:#ff9955;stroke-width:0.499999"
       d="m 16031.253,31876.651 c -10.276,3.871 4.761,2.836 6.1,6.308 0.87,2.257 -5.233,7.667 -5.471,5.204 -0.106,-1.095 0.252,-2.188 0.378,-3.281"
       id="path503" /><path
       style="fill:none;stroke:#ff9955;stroke-width:0.499999"
       d="m 16035.749,31875.011 c 0.262,-1.093 0.525,-2.188 0.786,-3.281 0.07,-0.254 0.282,-1.021 0.221,-0.765 -0.324,1.352 -1.3,2.688 -1.007,4.046 0.408,1.886 2.154,3.222 2.956,4.976 0.983,2.154 1.472,4.49 -1.258,3.509"
       id="path505" /><path
       style="fill:none;stroke:#ff9955;stroke-width:0.499999"
       d="m 16034.743,31881.006 c 1.27,-7.091 5.532,-0.426 7.515,-1.527 0.54,-0.299 0.835,-2.521 0.88,-2.743"
       id="path507" /><path
       style="fill:none;stroke:#ff9955;stroke-width:0.499999"
       d="m 16050.684,31869.269 c 1.985,2.17 0.433,-5.519 1.509,-5.035 0.527,0.238 0.685,1.133 0.472,1.67 -0.48,1.209 -1.321,2.243 -1.981,3.365 z"
       id="path509" /><path
       style="fill:none;stroke:#ff9955;stroke-width:0.499999"
       d="m 16052.539,31873.002 c 2.22,1.86 2.096,17.934 2.201,10.692"
       id="path511" /><path
       style="fill:none;stroke:#ff9955;stroke-width:0.499999"
       d="m 16058.261,31885.927 c 1.987,2.924 0.07,-13.753 -1.226,-12.245 0.335,-1.857 0.463,-3.764 1.006,-5.572 0.372,-1.236 1.434,-2.019 2.327,-0.594 1.79,2.857 2.963,5.39 2.61,8.74 -0.184,1.744 -2.016,5.923 -4.025,2.404 -0.881,-1.545 -1.279,-3.319 -1.918,-4.978"
       id="path513" /><path
       style="fill:none;stroke:#ff9955;stroke-width:0.499999"
       d="m 15749.354,31924.176 c 1.63,3.95 2.047,8.363 2.201,12.612 0.241,6.625 -0.868,13.02 -1.823,19.545 -0.896,6.109 -1.526,12.253 -2.264,18.383 -1.938,16.105 -2.771,32.314 -4.685,48.419 -2.119,17.83 -5.134,35.592 -5.345,53.597 -0.145,12.387 0.541,24.979 1.509,37.332 0.329,4.194 0.574,5.779 1.352,9.928 0.587,3.122 2.126,6.831 1.478,10.038"
       id="path515" /><path
       style="fill:none;stroke:#ff9955;stroke-width:0.499999"
       d="m 16033.519,31906.583 c -0.384,4.813 0.156,9.61 0.597,14.396 1.174,12.748 3.752,24.742 3.458,37.643 -0.147,6.493 -1.087,12.98 -1.508,19.46 -0.728,11.178 -0.937,22.368 -2.422,33.485 -1.304,9.764 -3.022,19.429 -3.71,29.274 -0.795,11.385 -1.126,22.942 -1.289,34.361 -0.109,7.718 0.518,15.412 0.912,23.109 0.457,8.901 0.433,17.822 0.881,26.726 0.235,4.683 0.9,9.353 1.1,14.028"
       id="path517" /><path
       style="fill:none;stroke:#ff9955;stroke-width:0.499999"
       d="m 15776.502,31919.347 c 0.767,4.175 1.062,8.355 1.226,12.586 0.01,0.251 0.668,4.673 -0.471,3.733"
       id="path519" /><path
       style="fill:none;stroke:#ff9955;stroke-width:0.499999"
       d="m 15773.075,31931.822 c 3.281,-2.072 6.072,-1.556 9.558,-1.556"
       id="path521" /><path
       style="fill:none;stroke:#ff9955;stroke-width:0.499999"
       d="m 15787.569,31926.276 c 2.335,3.48 4.287,9.729 0.944,13.351 -0.402,0.434 -1.174,0.151 -1.761,0.225"
       id="path523" /><path
       style="fill:none;stroke:#ff9955;stroke-width:0.499999"
       d="m 15785.117,31932.867 c 2.571,0.754 4.116,2.469 6.099,4.016"
       id="path525" /><path
       style="fill:none;stroke:#ff9955;stroke-width:0.499999"
       d="m 15795.461,31937.788 c 0.747,0.315 1.82,1.339 2.327,0.707 0.264,-0.331 -5.342,-7.975 -5.502,-9.049 0.212,-0.828 -0.04,-5.88 2.641,-4.3 1.65,0.975 2.428,3.351 2.358,5.148 -0.03,0.806 -1.446,2.573 -1.446,1.725 0,-0.03 4.007,0.115 4.464,0.03 0.829,-0.157 5.711,-1.846 3.302,-2.489 -1.816,-0.483 -2.123,6.51 0.44,8.061 1.688,1.021 4.625,-3.006 5.376,-4.299"
       id="path527" /><path
       style="fill:none;stroke:#ff9955;stroke-width:0.499999"
       d="m 15811.402,31923.789 c 1.1,1.104 2.033,2.403 3.301,3.308 2.699,1.928 9.221,3.005 8.489,7.834 -0.09,0.585 -0.418,1.23 -0.943,1.5 -0.673,0.344 -1.544,0.373 -2.264,0.14 -4.405,-1.418 -4.236,-5.331 -2.421,-8.824 0.606,-1.164 7.128,-7.995 6.54,-8.964 -3.729,-6.143 -12.812,5.189 -9.275,2.715"
       id="path529" /><path
       style="fill:none;stroke:#ff9955;stroke-width:0.499999"
       d="m 15785.274,31947.403 c -0.985,1.294 -2.258,2.408 -2.955,3.876 -0.843,1.773 -2.909,11.565 -2.138,13.407 2.008,4.789 8.058,-1.712 9.306,-3.733 -0.09,-1.622 -0.417,-3.247 -0.283,-4.866 0.252,-3.02 5.833,-0.843 4.465,0.198"
       id="path531" /><path
       style="fill:none;stroke:#ff9955;stroke-width:0.499999"
       d="m 15793.983,31950.941 c 3.47,-0.146 7.499,3.725 7.452,7.382 -0.03,2.003 -8.964,-5.647 -7.452,-7.382 1.087,-1.249 3.283,0.455 4.937,0.537 2.761,0.135 7.082,-3.337 4.936,-3.508 -2.258,-0.18 -2.795,5.857 -2.516,7.072 1.137,4.937 8.207,2.132 8.207,-1.699"
       id="path533" /><path
       style="fill:none;stroke:#ff9955;stroke-width:0.499999"
       d="m 15825.802,31946.244 c -3.129,-0.658 -8.181,12.171 -4.088,12.587 5.588,0.566 9.327,-6.536 10.848,-10.523 0.07,-0.177 0.521,-3.4 -1.069,-3.281 -0.754,0.06 -1.242,0.948 -1.981,1.104 -1.21,0.259 -2.882,-0.805 -3.71,0.113 -1.405,1.559 -0.979,4.104 -1.824,6.025 -1.07,2.434 -3.366,3.008 -1.132,-1.585 0.778,-1.598 1.97,-2.958 2.956,-4.44 z"
       id="path535" /><path
       style="fill:none;stroke:#ff9955;stroke-width:0.499999"
       d="m 15824.984,31939.995 c 0.367,0.857 0.895,1.664 1.101,2.572 0.2,0.889 0.988,9.422 1.069,9.985 0.526,3.673 1.747,7.271 2.295,10.917"
       id="path537" /><path
       style="fill:none;stroke:#ff9955;stroke-width:0.499999"
       d="m 15779.678,31982.22 c -1.394,0.5 -2.953,0.675 -4.182,1.5 -2.839,1.905 -4.153,8.157 -3.081,11.255 1.668,4.826 5.22,3.252 9.023,1.81 0.542,-0.204 1.75,-1.056 2.327,-1.442 0.07,-0.05 0.256,-0.219 0.22,-0.14 -0.402,0.889 -0.533,0.947 -1.1,1.527"
       id="path555" /><path
       style="fill:none;stroke:#ff9955;stroke-width:0.499999"
       d="m 15792.474,31994.295 c -2.026,1.321 -2.129,2.435 -3.836,0.567 -0.494,-0.54 -0.873,-1.194 -1.163,-1.866 -2.027,-4.709 5.409,-5.59 7.357,-1.783 0.311,0.609 0.824,1.466 0.409,2.008 -0.601,0.786 -1.845,0.717 -2.767,1.074 z"
       id="path557" /><path
       style="fill:none;stroke:#ff9955;stroke-width:0.499999"
       d="m 15795.241,31985.585 c 3.319,-0.04 2.268,-0.733 3.962,2.913 0.518,1.117 0.97,2.263 1.383,3.424 2.855,8.02 -2.356,-1.706 0.912,-4.13 1.255,-0.931 4.208,1.074 4.559,2.291 0.504,1.746 0.185,2.083 -0.252,3.734"
       id="path559" /><path
       style="fill:none;stroke:#ff9955;stroke-width:0.499999"
       d="m 15814.514,31979.561 c 0.592,1.966 6.073,18.304 2.516,17.846"
       id="path561" /><path
       style="fill:none;stroke:#ff9955;stroke-width:0.499999"
       d="m 15811.402,31989.715 c 4.651,-1.595 0.587,-0.69 6.036,-0.254 1.61,0.127 3.165,-0.658 4.654,-1.132"
       id="path563" /><path
       style="fill:none;stroke:#ff9955;stroke-width:0.499999"
       d="m 15826.525,31989.205 c 2.327,0.1 7.042,-0.05 6.351,-3.649 -0.219,-1.14 -0.407,-1.791 -1.635,-2.233 -2.414,-0.868 -5.715,3.834 -4.716,5.882 0.899,1.847 2.421,3.397 4.056,4.638 1.425,1.085 5.198,0.399 5.942,-1.244"
       id="path565" /><path
       style="fill:none;stroke:#ff9955;stroke-width:0.499999"
       d="m 15836.46,31984.368 c 0.88,0.651 1.99,1.074 2.641,1.953 0.583,0.786 0.647,1.849 0.881,2.799 1.406,5.734 -3.422,-3.834 0.408,-4.495 1.988,-0.344 5.631,3.731 4.214,5.289"
       id="path567" /><path
       style="fill:none;stroke:#ff9955;stroke-width:0.499999"
       d="m 15845.044,31981.654 c -0.51,3.619 4.369,11.181 3.835,15.017 -0.02,0.178 -0.341,-0.09 -0.502,-0.169"
       id="path569" /><path
       style="fill:none;stroke:#ff9955;stroke-width:0.499999"
       d="m 15843.943,31991.242 c 2.305,-2.154 4.718,-1.778 7.546,-1.696"
       id="path571" /><path
       style="fill:none;stroke:#ff9955;stroke-width:0.499999"
       d="m 15863.028,31981.455 c 0.451,1.122 0.877,2.254 1.352,3.368 0.374,0.876 0.786,1.739 1.195,2.601 6.762,14.267 -7.641,-5.053 4.339,-5.712 -0.105,-3.982 -0.375,10.469 2.421,8.965 1.848,-0.994 3.518,-4.012 4.339,-5.657 0.365,-0.733 0.59,-1.531 0.817,-2.319 0.06,-0.199 0.115,-0.812 0.03,-0.622 -0.932,2.133 -2.106,5.145 -0.817,7.438 1.014,1.804 1.859,0.797 2.421,-0.452"
       id="path573" /><path
       style="fill:none;stroke:#ff9955;stroke-width:0.499999"
       d="m 15879.377,31983.04 c 1.048,0.725 2.24,1.281 3.145,2.178 0.702,0.698 0.585,1.717 1.1,2.489 0.07,0.103 -0.05,-0.243 -0.06,-0.367 -0.08,-0.688 -0.215,-1.374 -0.22,-2.064 0,-0.154 -0.04,-3.128 0.723,-3.622 1.97,-1.27 7.063,8.538 4.905,2.46"
       id="path575" /><path
       style="fill:none;stroke:#ff9955;stroke-width:0.499999"
       d="m 15889.439,31974.896 c 1.404,0.394 2.981,0.405 4.212,1.185 2.195,1.397 3.609,7.258 2.39,9.674 -0.323,0.64 -1.34,2.288 -2.484,2.122 -2.812,-0.413 -5.536,-6.451 -2.263,-8.004 0.559,-0.265 1.236,-0.06 1.855,-0.08"
       id="path577" /><path
       style="fill:none;stroke:#ff9955;stroke-width:0.499999"
       d="m 15900.852,31983.691 c -1.007,0.122 -2.136,0.865 -3.019,0.368 -1.216,-0.686 -5.638,-8.867 2.861,-5.657 1.262,0.476 1.418,1.048 1.981,2.037"
       id="path579" /><path
       style="fill:none;stroke:#ff9955;stroke-width:0.499999"
       d="m 15901.669,31973.793 c 1.247,0.452 2.732,0.495 3.741,1.357 0.918,0.781 1.15,2.119 1.635,3.223 0.365,0.828 1.557,2.516 0.661,2.63 -0.824,0.106 -2.041,-7.118 -0.221,-5.911 0.584,0.386 3.273,5.265 2.579,5.517 -0.29,0.103 -0.702,-3.469 -0.22,-4.017 0.904,-1.029 3.257,1.4 3.553,1.67 0.589,0.537 0.498,0.664 0.565,1.328"
       id="path581" /><path
       style="fill:none;stroke:#ff9955;stroke-width:0.499999"
       d="m 15866.644,32003.207 c 0.89,1.272 1.907,2.465 2.672,3.818 4.938,8.725 -9.806,8.982 -1.635,0"
       id="path583" /><path
       style="fill:none;stroke:#ff9955;stroke-width:0.499999"
       d="m 15871.989,32005.411 c 1.641,11.567 9.05,2.653 6.728,-0.479 -0.365,-0.492 -0.113,1.251 0.06,1.839 0.402,1.341 1.431,4.14 2.987,2.487"
       id="path585" /><path
       style="fill:none;stroke:#ff9955;stroke-width:0.499999"
       d="m 15882.27,32002.781 c 3.845,0.82 5.388,5.135 4.213,8.569"
       id="path587" /><path
       style="fill:none;stroke:#ff9955;stroke-width:0.499999"
       d="m 15881.327,32008.154 c 2.086,-1.685 4.237,-3.286 6.445,-4.807 1.446,1.48 2.577,3.355 4.339,4.441 0.929,0.573 2.738,-1.367 3.018,-1.923 1.243,-2.468 0.287,-3.811 0.692,-3.677 0.524,0.174 0.251,1.102 0.566,1.555 0.334,0.482 0.817,0.861 1.321,1.16 1.483,0.881 3.454,0.972 5.062,1.584"
       id="path589" /><path
       style="fill:none;stroke:#ff9955;stroke-width:0.499999"
       d="m 15895.538,31949.128 c 7.806,2.411 15.636,5.022 23.361,7.75 4.616,1.633 8.751,3.932 13.52,5.204 7.705,2.059 15.649,2.898 22.983,6.194 5.871,2.641 10.785,7.771 17.198,9.081 4.133,0.841 8.527,0.812 12.702,1.384 3.917,0.537 11.129,2.537 14.809,4.045 3.529,1.447 6.756,3.59 10.061,5.458 0.912,0.516 1.858,0.95 2.767,1.471 0.235,0.135 0.656,0.63 0.723,0.368 1.102,-4.294 -8.065,-9.776 -10.25,-12.615 -1.006,-1.307 3.37,-0.886 4.937,-0.368 1.364,0.453 2.736,0.995 3.898,1.839 3.128,2.27 3.347,5.315 1.289,8.485 -2.132,3.286 -6.182,6.427 -9.243,8.626 -2.035,1.463 -7.97,5.762 -6.54,3.706"
       id="path591" /><path
       style="fill:none;stroke:#ff9955;stroke-width:0.499999"
       d="m 16023.035,32048.424 c -6.198,3.619 -12.923,7.13 -19.777,9.419 -7.421,2.477 -15.181,3.919 -22.763,5.797 -6.273,1.553 -12.514,3.305 -18.708,5.146 -7.403,2.204 -14.724,4.662 -22.134,6.845 -10.878,3.204 -21.933,5.726 -32.856,8.768 -6.752,1.881 -13.425,4.035 -20.154,5.996 -8.641,2.519 -17.428,4.511 -26.033,7.157 -5.314,1.632 -10.494,3.601 -15.752,5.4 -9.986,3.418 -20.133,6.358 -30.152,9.673 -5.811,1.924 -11.703,3.702 -17.481,5.712 -5.454,1.9 -10.616,4.853 -15.847,7.271 -1.737,0.802 -3.297,1.715 -4.873,2.799 -0.604,0.416 -1.061,1.659 -1.729,1.358 -0.68,-0.307 0.198,-1.498 0.503,-2.178 2.874,-6.408 6.872,-12.2 11.382,-17.563 0.667,-0.794 2.734,-3.122 2.075,-2.32 -3.607,4.379 -10.618,11.583 -12.797,16.205 -0.652,1.384 -1.733,3.35 -0.754,4.528 1.088,1.307 3.373,0.444 5.062,0.648 2.419,0.296 4.874,0.365 7.262,0.849 5.34,1.085 9.664,3.485 13.174,7.636"
       id="path593" /><path
       style="fill:none;stroke:#ff9955;stroke-width:0.499999"
       d="m 15853.074,31985.31 c -1.866,5.067 -0.981,-7.35 0.03,-5.855 1.095,1.617 1.543,7.006 -0.03,5.855 -1.466,-1.074 -1.554,-6.339 1.132,-2.714"
       id="path611" /><path
       style="fill:none;stroke:#ff9955;stroke-width:0.499999"
       d="m 15854.584,31997.018 c 0.146,-0.876 1.317,-2.482 0.44,-2.63 -0.877,-0.146 -0.294,1.754 -0.44,2.63 z"
       id="path613" /><path
       style="fill:none;stroke:#ff9955;stroke-width:0.499999"
       d="m 15808.68,31948.316 c 0.375,-2.839 2.517,-5.183 0,0 z"
       id="path615" /><path
       style="fill:none;stroke:#ff9955;stroke-width:0.499999"
       d="m 15805.693,31923.511 c 0.859,4.866 -1.209,5.737 0,0 z"
       id="path617" /><path
       style="fill:none;stroke:#ff9955;stroke-width:0.499999"
       d="m 15809.654,31936.41 c 0.881,-3.321 0.881,-3.321 0,0 z"
       id="path619" /><path
       style="fill:none;stroke:#ff9955;stroke-width:0.499999"
       d="m 15905.676,32014.695 c 1.044,5.345 1.16,10.832 1.477,16.262 0.03,0.494 -0.389,-0.908 -0.597,-1.358"
       id="path621" /><path
       style="fill:none;stroke:#ff9955;stroke-width:0.499999"
       d="m 15903.129,32025.384 c 2.756,-1.288 5.989,-2.415 8.961,-1.809"
       id="path623" /><path
       style="fill:none;stroke:#ff9955;stroke-width:0.499999"
       d="m 15916.24,32018.513 c -2.296,-5.876 2.654,12.317 -0.818,11.115"
       id="path625" /><path
       style="fill:none;stroke:#ff9955;stroke-width:0.499999"
       d="m 15912.561,32023.35 c 3.11,0.444 3.838,2.307 5.314,4.58"
       id="path627" /><path
       style="fill:none;stroke:#ff9955;stroke-width:0.499999"
       d="m 15922.748,32026.914 c 0.168,0.442 0.335,0.886 0.503,1.328 0.4,1.053 -7.266,-23.588 -3.396,-8.599 -1.795,0.447 0.102,-6.16 2.202,-5.938 0.552,0.06 1.089,0.513 1.32,1.018 1.496,3.267 1.562,6.7 -1.886,8.542 -1.169,0.624 -2.699,-2.832 -1.636,-3.622 2.271,-1.688 5.894,1.702 8.427,1.133 1.16,-0.261 5.491,-3.386 3.962,-5.346 -2.475,-3.17 -4.611,6.657 -4.622,7.156 -0.11,4.955 11.672,-0.183 10.47,-2.037"
       id="path629" /><path
       style="fill:none;stroke:#ff9955;stroke-width:0.499999"
       d="m 15941.927,32009.152 c -0.831,-3.466 0.377,-3.987 0,0 z"
       id="path631" /><path
       style="fill:none;stroke:#ff9955;stroke-width:0.499999"
       d="m 15944.537,32022.754 c -0.86,-0.904 -1.934,-1.645 -2.578,-2.714 -1.878,-3.114 6.606,2.897 2.578,2.714 -7.235,-0.328 -5.167,-6.368 -2.358,-3.026 0.822,0.981 1.572,2.018 2.358,3.026 z"
       id="path633" /><path
       style="fill:none;stroke:#ff9955;stroke-width:0.499999"
       d="m 15957.27,32007.567 c -1.048,0.434 -2.277,0.569 -3.144,1.302 -0.9,0.759 -1.37,1.926 -1.918,2.969 -5.302,10.096 10.589,4.881 10.627,-0.876 0,-0.86 -0.335,-1.9 -1.069,-2.347 -1.313,-0.802 -2.996,-1.394 -4.496,-1.048 -2.033,0.469 -3.483,2.308 -5.313,3.31 -0.51,0.278 -1.455,1.051 -1.667,0.508 -0.242,-0.621 0.839,-1.037 1.258,-1.555"
       id="path635" /><path
       style="fill:none;stroke:#ff9955;stroke-width:0.499999"
       d="m 15910.832,32041.704 c -1.101,0.548 -2.443,0.762 -3.301,1.64 -0.548,0.561 -0.444,1.514 -0.535,2.292 -0.612,5.249 4.456,7.239 7.578,3.026 0.346,-1.697 0.803,-3.375 1.037,-5.091 0.102,-0.747 -0.427,-1.62 -0.03,-2.262 1.394,-2.261 6.393,-0.259 6.822,1.866 0.129,0.637 -1.091,-0.149 -1.226,-0.452"
       id="path637" /><path
       style="fill:none;stroke:#ff9955;stroke-width:0.499999"
       d="m 15923.062,32035.653 c 3.614,-0.651 2.581,-1.241 5.125,3.053 1.338,2.257 -0.838,6.064 -3.175,3.564 -0.818,-0.876 -0.173,-1.849 0.849,-1.894 3.112,-0.141 6.318,0.336 5.722,-4.244 -0.302,-2.323 -3.195,3.577 -2.61,5.826 0.709,2.725 3.504,2.445 5.534,1.699 0.978,-0.36 3.588,-1.81 2.547,-1.81"
       id="path639" /><path
       style="fill:none;stroke:#ff9955;stroke-width:0.499999"
       d="m 15940.261,32033.7 c -5.816,-1.738 0.608,-4.924 0.629,-3.564 0.02,1.207 -0.42,2.376 -0.629,3.564 z"
       id="path641" /><path
       style="fill:none;stroke:#ff9955;stroke-width:0.499999"
       d="m 15942.619,32042.016 c 0.103,1.019 -0.881,7.334 0,0 z"
       id="path643" /><path
       style="fill:none;stroke:#ff9955;stroke-width:0.499999"
       d="m 15953.938,32029.345 c -0.807,1.498 -1.994,2.85 -2.421,4.498 -0.173,0.664 0.293,1.41 0.754,1.921 3.214,3.567 9.49,-4.911 6.572,-6.109 -0.427,-0.175 -0.923,0.09 -1.384,0.06 -1.178,-0.07 -2.518,-0.99 -3.521,-0.368 -1.938,1.201 -2.879,3.538 -4.371,5.26 -0.167,0.193 -0.706,0.712 -0.597,0.482 1.079,-2.289 3.266,-3.869 4.968,-5.742 z"
       id="path645" /><path
       style="fill:none;stroke:#ff9955;stroke-width:0.499999"
       d="m 15952.806,32024.368 c 0.168,1.215 0.368,2.427 0.503,3.646 1.074,9.724 0.941,7.739 1.226,14.764 0.08,2.048 0.08,2.522 0.09,2.461 0.107,-0.381 0.06,-0.791 0.09,-1.188"
       id="path647" /><path
       style="fill:none;stroke:#ff9955;stroke-width:0.499999"
       d="m 15909.032,32064.325 c -5.926,-3.288 -10.625,12.047 -3.458,11.568 2.391,-0.159 3.859,-1.236 5.25,-2.744"
       id="path757" /><path
       style="fill:none;stroke:#ff9955;stroke-width:0.499999"
       d="m 15916.358,32071.906 c -1.285,-1.977 -4.736,-6.734 -2.893,-9.306 2.838,-3.958 7.617,7.022 5.062,6.054"
       id="path759" /><path
       style="fill:none;stroke:#ff9955;stroke-width:0.499999"
       d="m 15919.125,32062.516 c 1.205,1.225 2.652,2.254 3.615,3.677 0.549,0.81 0.542,1.881 0.786,2.829 0.09,0.354 0.201,1.439 0.221,1.074 0.06,-1.111 0.02,-12.142 2.452,-10.464 1.36,0.939 1.747,7.487 1.037,4.722"
       id="path761" /><path
       style="fill:none;stroke:#ff9955;stroke-width:0.499999"
       d="m 15927.865,32058.528 c 2.95,1.876 3.016,5.549 4.685,8.173 0.299,0.471 -0.608,-0.936 -0.975,-1.357 -0.149,-0.172 -2.143,-1.733 -1.855,-2.207 0.354,-0.576 3.999,0 4.937,-0.82 2.468,-2.143 2.188,-4.056 1.792,-4.072 -2.202,-0.08 -0.522,9.07 2.829,6.647 3.563,-2.578 0.643,-6.581 1.164,-9.078 0.08,-0.405 0.543,0.624 0.817,0.934 0.741,0.836 1.298,1.505 2.39,1.836 1.498,0.455 2.46,-0.09 2.924,-1.553 0.213,-0.672 0.336,-2.635 0.66,-2.008 0.852,1.64 0.96,3.413 2.232,4.863"
       id="path763" /><path
       style="fill:none;stroke:#ff9955;stroke-width:0.499999"
       d="m 15950.44,32052.588 c -1.548,0 5.186,6.438 3.301,6.959 -3.496,-0.991 8.577,-5.231 5.88,-7.353"
       id="path765" /><path
       style="fill:none;stroke:#ff9955;stroke-width:0.499999"
       d="m 15961.319,32046.111 c -1.164,-2.899 -1.194,-6.236 0,0 z"
       id="path767" /><path
       style="fill:none;stroke:#ff9955;stroke-width:0.499999"
       d="m 15964.777,32056.406 c 5.14,6.194 -0.499,5.26 -0.534,2.913 -0.02,-0.986 0.356,-1.942 0.534,-2.913 z"
       id="path769" /><path
       style="fill:none;stroke:#ff9955;stroke-width:0.499999"
       d="m 15978.957,32041.164 c -7.673,5.096 -4.803,23 4.15,8.993 0.05,-2.046 -0.07,-4.103 0.158,-6.137 0.528,-4.729 9.776,3.863 5.408,5.572"
       id="path771" /><path
       style="fill:none;stroke:#ff9955;stroke-width:0.499999"
       d="m 15991.816,32047.188 c 0.195,0.516 2.733,5.739 2.61,5.117 -0.714,-3.611 -4.181,-6.612 -5.345,-9.927 0.21,-11.047 8.023,0.975 5.44,4.385 -0.552,0.728 -1.803,0.283 -2.705,0.425 z"
       id="path773" /><path
       style="fill:none;stroke:#ff9955;stroke-width:0.499999"
       d="m 15998.073,32045.095 c 1.089,-1.875 2.719,-3.836 1.509,-5.913 -0.188,-2.017 -0.434,-4.029 -0.565,-6.051 -0.183,-2.822 4.448,2.098 7.011,-0.283 2.446,-2.272 -1.055,-5.996 -2.389,-2.686 -0.853,2.114 1.321,6.892 4.464,5.486 1.347,-0.602 1.425,-2.583 2.138,-3.874"
       id="path775" /><path
       style="fill:none;stroke:#ff9955;stroke-width:0.499999"
       d="m 16008.417,32026.257 c 4.967,0 13.21,10.263 2.327,9.022 -3.473,-0.394 -2.372,-6.723 4.307,-4.836"
       id="path777" /></g></svg>
