<?xml version="1.0" encoding="UTF-8" standalone="no"?>
<!-- Created with Inkscape (http://www.inkscape.org/) -->

<svg
   width="2434.0938mm"
   height="262.5058mm"
   viewBox="0 0 2434.0937 262.5058"
   version="1.1"
   id="svg12"
   inkscape:version="1.2.1 (9c6d41e410, 2022-07-14, custom)"
   sodipodi:docname="intcalc_product_rule.svg"
   xml:space="preserve"
   xmlns:inkscape="http://www.inkscape.org/namespaces/inkscape"
   xmlns:sodipodi="http://sodipodi.sourceforge.net/DTD/sodipodi-0.dtd"
   xmlns="http://www.w3.org/2000/svg"
   xmlns:svg="http://www.w3.org/2000/svg"><sodipodi:namedview
     id="namedview14"
     pagecolor="#505050"
     bordercolor="#eeeeee"
     borderopacity="1"
     inkscape:showpageshadow="0"
     inkscape:pageopacity="0"
     inkscape:pagecheckerboard="0"
     inkscape:deskcolor="#505050"
     inkscape:document-units="mm"
     showgrid="true"
     inkscape:zoom="0.12176488"
     inkscape:cx="5937.6727"
     inkscape:cy="583.09095"
     inkscape:window-width="1366"
     inkscape:window-height="746"
     inkscape:window-x="0"
     inkscape:window-y="0"
     inkscape:window-maximized="1"
     inkscape:current-layer="layer1"
     inkscape:lockguides="false"><inkscape:grid
       type="xygrid"
       id="grid344"
       color="#969696"
       opacity="0.39215686"
       empcolor="#000000"
       empopacity="0.17254902"
       dotted="false"
       originx="-883.89076"
       originy="-10403.363" /></sodipodi:namedview><defs
     id="defs9" /><g
     inkscape:label="Layer 1"
     inkscape:groupmode="layer"
     id="layer1"
     transform="translate(-988.89079,-10551.863)"><path
       style="fill:none;stroke:#ffffff;stroke-width:5.5"
       d="m 1037.2311,10675.043 c -2.242,30.336 -22.945,53.258 -39.84691,77.259 -1.6899,2.4 -4.4187,4.404 -5.72582,7.148 -0.63288,1.328 13.45963,-2.29 16.00893,-2.313 10.2815,-0.09 46.8978,-0.936 54.9209,-7.043 2.4929,-1.897 -15.0249,-58.103 -18.5796,-62.647"
       id="path1093" /><path
       style="fill:none;stroke:#ffffff;stroke-width:5.5"
       d="m 1130.5967,10670.944 c -5.6089,3.538 -12.5827,5.52 -16.8268,10.616 -4.7546,5.709 -6.5791,13.367 -8.9977,20.392 -12.7644,37.074 -6.6028,77.811 13.3213,111.001"
       id="path1095" /><path
       style="fill:none;stroke:#ffffff;stroke-width:5.5"
       d="m 1160.3943,10721.083 c -3.5056,2.383 -7.9974,3.739 -10.5168,7.148 -9.6842,13.102 -2.7088,34.06 3.3887,46.775 1.2301,2.566 3.8054,4.561 4.3236,7.358 0.2577,1.391 -2.0471,-1.958 -3.155,-2.838"
       id="path1097" /><path
       style="fill:none;stroke:#ffffff;stroke-width:5.5"
       d="m 1136.5562,10765.967 c 9.6924,-9.359 28.1099,4.708 36.6919,-4.415"
       id="path1099" /><path
       style="fill:none;stroke:#ffffff;stroke-width:5.5"
       d="m 1209.7063,10709.1 c -34.2465,7.322 -7.845,86.521 11.2179,60.02"
       id="path1101" /><path
       style="fill:none;stroke:#ffffff;stroke-width:5.5"
       d="m 1238.6858,10728.441 c 4.0054,14.511 -2.036,27.523 -9.6987,39.628 -7.4102,11.706 -7.2198,-3.289 -7.8292,-8.935"
       id="path1103" /><path
       style="fill:none;stroke:#ffffff;stroke-width:5.5"
       d="m 1223.3781,10734.432 c 3.1231,4.405 38.0596,68.939 23.838,28.486"
       id="path1105" /><path
       style="fill:none;stroke:#ffffff;stroke-width:5.5"
       d="m 1241.9577,10704.475 c 3.5446,1.472 7.7493,1.883 10.6337,4.415 16.2753,14.285 27.1432,50.231 21.8515,70.952 -0.2404,0.941 -5.3961,18.838 -12.737,18.184 -2.154,-0.191 -2.9602,-3.153 -4.4404,-4.73"
       id="path1107" /><path
       style="fill:none;stroke:#ffffff;stroke-width:5.5"
       d="m 1330.065,10736.325 c -3.1161,-2.944 -5.379,-7.212 -9.3483,-8.83 -5.8132,-2.369 -21.1459,15.135 -14.4898,21.443 9.4051,8.914 21.4168,-13.684 23.8381,-12.613 6.8531,3.029 6.6468,13.45 10.5168,19.866 2.8438,4.715 7.5667,8.331 9.5819,13.455 1.9244,4.893 4.8636,11.34 1.8697,15.662 -13.166,19.006 -30.6098,-3.592 -29.447,-17.975"
       id="path1109" /><path
       style="fill:none;stroke:#ffffff;stroke-width:5.5"
       d="m 1382.9994,10725.708 c -29.7475,-4.477 -27.6989,57.582 -0.4673,46.46 4.5838,-1.872 8.2576,-5.466 12.3864,-8.199"
       id="path1111" /><path
       style="fill:none;stroke:#ffffff;stroke-width:5.5"
       d="m 1412.9139,10722.66 c -8.6642,7.533 -19.2475,73.825 -27.6942,38.366"
       id="path1113" /><path
       style="fill:none;stroke:#ffffff;stroke-width:5.5"
       d="m 1383.8174,10738.217 c 13.4833,2.124 40.4706,52.387 26.8763,16.923"
       id="path1115" /><path
       style="fill:none;stroke:#ffffff;stroke-width:5.5"
       d="m 1409.1745,10694.489 c 2.2203,-4.134 2.0025,-12.973 6.6606,-12.403 11.0249,1.349 22.3099,51.243 23.137,59.494 0.9156,9.135 1.0572,18.387 0.3505,27.54 -1.0776,13.96 -1.6047,11.747 -6.5437,7.463"
       id="path1117" /><path
       style="fill:none;stroke:#ffffff;stroke-width:5.5"
       d="m 1451.008,10654.23 c 4.2456,1.087 9.9952,-0.16 12.7369,3.259 13.6807,17.059 -0.037,92.577 -5.3752,112.472 -0.8614,3.21 -9.138,33.787 -15.0741,38.682"
       id="path1119" /><path
       style="fill:none;stroke:#ffffff;stroke-width:5.5"
       d="m 1537.1287,10704.58 c 8.8691,-7.686 67.3485,-16.556 23.8381,4.73"
       id="path1121" /><path
       style="fill:none;stroke:#ffffff;stroke-width:5.5"
       d="m 1522.7558,10730.228 c 21.1998,1.749 43.2817,1.669 64.6198,0"
       id="path1123" /><path
       style="fill:none;stroke:#ffffff;stroke-width:5.5"
       d="m 1680.2787,10679.501 c -18.8451,25.34 -4.7543,5.803 -26.0582,37.525 -4.1902,6.24 -8.7346,12.244 -12.737,18.605 -1.1912,1.894 -2.8045,3.86 -2.8045,6.097 0,4.205 17.2119,0.817 31.901,0.421 7.6273,-0.206 18.8887,-0.12 27.1099,0 2.03,0.03 6.3322,1.593 6.0763,-0.421 -0.6868,-5.406 -5.8532,-9.196 -8.6471,-13.875 -14.6871,-24.597 -18.6756,-19.11 -14.8404,-48.352 z"
       id="path1125" /><path
       style="fill:none;stroke:#ffffff;stroke-width:5.5"
       d="m 1756.5838,10687.279 c -0.8451,-26.999 -24.3404,-12.826 -27.9279,5.781 -1.6803,8.716 -0.082,20.425 2.454,28.907 2.5226,8.437 15.5311,29.971 8.1796,25.122"
       id="path1127" /><path
       style="fill:none;stroke:#ffffff;stroke-width:5.5"
       d="m 1715.6852,10732.058 c 16.1844,-3.648 31.6421,1.369 46.8582,-6.097"
       id="path1129" /><path
       style="fill:none;stroke:#ffffff;stroke-width:5.5"
       d="m 1799.1184,10687.805 c 0.8569,-2.979 5.549,-8.078 2.5708,-8.935 -2.9783,-0.857 -0.1099,7.051 -2.5708,8.935 -4.5362,3.472 -11.9617,1.683 -16.2426,5.465 -12.2729,10.844 0.8995,37.957 23.3706,32.796"
       id="path1131" /><path
       style="fill:none;stroke:#ffffff;stroke-width:5.5"
       d="m 1821.7879,10696.634 c -7.0442,-4.373 -3.3846,55.044 -15.191,43.412"
       id="path1133" /><path
       style="fill:none;stroke:#ffffff;stroke-width:5.5"
       d="m 1796.7813,10718.077 c 3.8562,-1.296 7.5296,-4.376 11.5685,-3.889 8.0583,0.973 39.6479,27.11 24.7729,1.892"
       id="path1135" /><path
       style="fill:none;stroke:#ffffff;stroke-width:5.5"
       d="m 1825.8777,10653.748 c 4.4404,-0.876 9.3779,-4.85 13.3213,-2.628 5.368,3.024 7.0847,10.139 9.8157,15.662 13.829,27.966 14.7397,66.57 -1.8698,93.131"
       id="path1137" /><path
       style="fill:none;stroke:#ffffff;stroke-width:5.5"
       d="m 1951.8454,10677.819 c 1.2278,-12.861 -38.9004,16.35 -28.0447,21.233 7.8967,3.551 21.6024,-2.369 25.5907,-9.671 1.8887,-3.458 2.4934,-15.502 2.454,-11.562 -0.078,7.79 -3.6211,15.51 -2.5708,23.23 1.4832,10.901 18.7962,23.27 20.5662,36.159 2.675,19.481 -31.6626,23.242 -35.4065,3.784"
       id="path1143" /><path
       style="fill:none;stroke:#ffffff;stroke-width:5.5"
       d="m 2004.4293,10689.697 c -19.7249,4.955 -11.0883,36.85 6.6606,35.213"
       id="path1145" /><path
       style="fill:none;stroke:#ffffff;stroke-width:5.5"
       d="m 2042.2897,10687.805 c 5.7296,-6.883 9.7353,-29.395 0,0 -0.1863,0.562 -10.2506,46.501 -19.7482,45.724 -1.8639,-0.152 -1.6359,-3.363 -2.4539,-5.045"
       id="path1147" /><path
       style="fill:none;stroke:#ffffff;stroke-width:5.5"
       d="m 2017.5168,10700.208 c 15.246,4.894 46.2063,46.268 28.3954,4.73"
       id="path1149" /><path
       style="fill:none;stroke:#ffffff;stroke-width:5.5"
       d="m 2039.9526,10645.023 c 5.3363,-0.03 11.4091,-2.81 16.0088,-0.105 7.9212,4.659 18.5678,31.227 18.9303,38.367 1.7254,33.984 -0.387,40.192 -14.6066,63.909 -1.8574,3.098 -4.0507,6.004 -6.4269,8.724 -0.2828,0.324 -1.3464,0.531 -1.2854,0.106 0.1795,-1.252 1.1685,-2.243 1.7527,-3.364"
       id="path1151" /><path
       style="fill:none;stroke:#ffffff;stroke-width:5.5"
       d="m 2146.6192,10682.298 c 0.8958,-3.224 5.9111,-8.775 2.6876,-9.671 -3.2235,-0.896 -2.2396,6.355 -2.6876,9.671 -0.7661,5.668 -0.3309,11.445 -0.9349,17.133 -1.2751,12.008 -2.7047,26.557 -7.1281,37.736"
       id="path1153" /><path
       style="fill:none;stroke:#ffffff;stroke-width:5.5"
       d="m 2127.6889,10718.036 c 1.9865,-3.539 2.4148,-8.64 5.9596,-10.616 8.4716,-4.723 32.1308,-5.493 41.5996,-4.31"
       id="path1155" /><path
       style="fill:none;stroke:#ffffff;stroke-width:5.5"
       d="m 2220.704,10678.408 c -1.3904,14.955 -26.7879,32.669 -23.7212,47.302 1.8558,8.854 42.9613,11.453 50.7143,12.718 2.7783,0.454 5.5596,0.919 8.2965,1.577 0.6301,0.152 2.1998,0.372 1.7528,0.841 -4.2998,4.512 -17.3695,-12.194 -17.6448,-12.719 -3.1479,-6.003 -4.4307,-12.816 -6.8944,-19.13 -4.0036,-10.262 -10.6317,-19.734 -12.5032,-30.589 -0.5718,-3.316 13.0619,-33.943 0,0 z"
       id="path1157" /><path
       style="fill:none;stroke:#ffffff;stroke-width:5.5"
       d="m 2310.3303,10694.07 c -2.4824,-15.172 -42.0481,5.264 -30.4987,15.978 3.6508,3.386 17.8282,7.26 22.2022,2.943 4.9014,-4.838 1.4241,-19.362 8.2965,-18.921 6.764,0.435 2.6071,13.345 4.791,19.762 3.2452,9.534 8.5508,18.315 11.4516,27.96 4.9613,16.495 -12.7523,36.96 -28.3953,18.815 -2.9639,-3.437 -1.7917,-8.899 -2.6876,-13.349"
       id="path1159" /><path
       style="fill:none;stroke:#ffffff;stroke-width:5.5"
       d="m 2349.0087,10691.758 c -12.8941,17.998 2.6408,52.175 24.5391,36.264"
       id="path1161" /><path
       style="fill:none;stroke:#ffffff;stroke-width:5.5"
       d="m 2385.9343,10691.232 c 6.88,-40.537 -5.3346,37.369 -12.1527,40.679 -1.3937,0.677 -2.7267,-1.471 -4.09,-2.207"
       id="path1163" /><path
       style="fill:none;stroke:#ffffff;stroke-width:5.5"
       d="m 2360.9277,10705.212 c 8.1612,1.265 39.6629,22.06 45.339,18.606 2.5549,-1.555 -8.3562,-16.533 -9.9325,-19.552"
       id="path1165" /><path
       style="fill:none;stroke:#ffffff;stroke-width:5.5"
       d="m 2392.0106,10648.136 c 4.9857,0.77 11.0706,-0.904 14.9572,2.312 16.2809,13.474 15.7805,63.987 9.8156,82.304 -3.0275,9.297 -8.0523,20.258 -11.6853,18.08"
       id="path1167" /><path
       style="fill:none;stroke:#ffffff;stroke-width:5.5"
       d="m 2420.2891,10615.34 c 23.5657,-8.444 33.7436,-8.655 34.1211,20.497 0.1711,13.209 -0.2458,26.432 0.3505,39.628 1.0887,24.092 5.5244,47.826 12.737,70.532 0.2311,0.727 -43.2808,17.063 -36.4581,8.093"
       id="path1169" /><path
       style="fill:none;stroke:#ffffff;stroke-width:5.5"
       d="m 2286.0249,10619.019 c -5.6437,1.533 -26.2468,1.843 -29.5639,7.148 -2.2487,3.596 -4.0589,38.265 -4.0899,42.466 -0.089,12.14 -1.7104,24.232 -1.6358,36.369 0.059,9.668 1.8428,19.241 2.1032,28.907 0.4277,15.869 -1.5868,31.969 -2.3369,47.826 -0.1472,3.11 0.088,7.336 -1.2854,10.302 -0.1025,0.221 -2.431,3.306 -2.2203,3.363 19.9922,5.395 45.6427,-11.602 74.5523,0"
       id="path1171" /><path
       style="fill:none;stroke:#ffffff;stroke-width:5.5"
       d="m 2511.2008,10665.374 c -3.0382,-0.35 -6.3842,-2.429 -9.1146,-1.051 -9.9202,5.006 -8.4964,25.35 -6.1931,33.111 2.5518,8.599 5.8428,11.851 10.6336,18.605 0.9994,1.409 3.9823,5.151 2.3371,4.625 -1.7851,-0.571 -3.3498,-1.682 -5.0247,-2.523"
       id="path1173" /><path
       style="fill:none;stroke:#ffffff;stroke-width:5.5"
       d="m 2476.2618,10705.948 c 16.0594,-4.678 32.4045,1.234 48.494,-1.261"
       id="path1175" /><path
       style="fill:none;stroke:#ffffff;stroke-width:5.5"
       d="m 2564.2522,10667.792 c -3.7783,0.736 -8.2823,-0.138 -11.3348,2.207 -10.2891,7.905 -7.8318,47.663 10.1662,43.097 2.8882,-0.733 5.1416,-3.013 7.7123,-4.52"
       id="path1177" /><path
       style="fill:none;stroke:#ffffff;stroke-width:5.5"
       d="m 2586.1036,10674.729 c -0.8524,1.366 -6.8504,50.43 -10.5168,50.35 -1.2761,-0.03 -1.7138,-1.892 -2.5707,-2.838"
       id="path1179" /><path
       style="fill:none;stroke:#ffffff;stroke-width:5.5"
       d="m 2561.2139,10698.38 c 4.5405,-6.646 32.3794,16.919 38.4448,11.563 2.7955,-2.469 -1.3909,-13.801 -1.6361,-14.716"
       id="path1181" /><path
       style="fill:none;stroke:#ffffff;stroke-width:5.5"
       d="m 2593.3486,10628.9 c 3.6224,0.771 8.0044,-0.04 10.8673,2.312 5.1838,4.255 8.3777,10.527 11.8021,16.293 17.0653,28.733 28.6145,64.307 6.3101,93.026"
       id="path1183" /><path
       style="fill:none;stroke:#ffffff;stroke-width:5.5"
       d="m 1708.5368,10623.539 c 3.0771,0.701 8.5306,5.179 9.2313,2.102 0.7008,-3.077 -7.5284,-4.759 -9.2313,-2.102 -7.0735,11.036 -3.4786,34.791 -2.5708,47.617 1.7016,24.041 5.476,50.871 1.5191,75.051 -2.4904,15.218 -11.3597,24.045 -15.5415,37.21 -0.7735,2.435 3.4933,-0.22 10.9842,-2.312 5.6629,-1.582 28.2228,-8.801 21.0336,-0.841"
       id="path1293" /><path
       style="fill:none;stroke:#ffffff;stroke-width:5.5"
       d="m 1848.9942,10617.232 c 12.4662,-0.812 30.4288,-4.073 40.6649,6.097 2.1626,2.148 0.166,6.109 -0.1169,9.145 -2.0382,21.871 -5.6414,43.576 -7.2449,65.486 -1.1168,15.261 -2.125,30.851 -1.7527,46.145 0.01,0.409 2.1206,19.177 1.7527,19.971 -0.7547,1.63 -44.1528,1.789 -49.1951,10.407"
       id="path1295" /><path
       style="fill:none;stroke:#ffffff;stroke-width:5.5"
       d="m 2720.3807,10651.276 c 2.5705,8.191 3.5195,60.476 -2.1034,61.702 -1.8676,0.407 -3.5835,-1.332 -5.3753,-1.997"
       id="path1297" /><path
       style="fill:none;stroke:#ffffff;stroke-width:5.5"
       d="m 2698.6459,10686.174 c 18.0278,-9.81 37.5338,-3.24 56.7907,-4.625"
       id="path1299" /><path
       style="fill:none;stroke:#ffffff;stroke-width:5.5"
       d="m 2841.3236,10639.293 c -1.6315,7.012 -46.8094,48.387 -41.5997,52.452 6.8266,5.327 31.1623,7.184 40.6649,9.986 7.3473,2.166 14.0858,7.048 21.7347,7.463 6.5605,0.355 -6.2215,-56.238 -10.5168,-62.228 -2.4922,-3.476 -6.8554,-5.115 -10.2831,-7.673 z"
       id="path1301" /><path
       style="fill:none;stroke:#ffffff;stroke-width:5.5"
       d="m 2932.9365,10645.389 c -20.6064,0.909 -26.2632,19.169 -20.9167,37.001 1.3804,4.604 10.7733,16.888 10.9841,22.389 0.05,1.316 -2.493,-0.9 -3.6223,-1.577"
       id="path1303" /><path
       style="fill:none;stroke:#ffffff;stroke-width:5.5"
       d="m 2890.8694,10685.017 c 15.2899,-11.292 26.4235,-1.516 41.2491,-2.627"
       id="path1305" /><path
       style="fill:none;stroke:#ffffff;stroke-width:5.5"
       d="m 2976.1722,10643.708 c -3.0772,2.102 -6.9533,3.357 -9.2314,6.306 -8.8638,11.476 -4.0819,36.488 7.946,44.148 2.0422,1.301 4.8298,-0.35 7.2448,-0.525"
       id="path1307" /><path
       style="fill:none;stroke:#ffffff;stroke-width:5.5"
       d="m 2995.8035,10662.313 c -1.2854,-4.941 -1.8131,-10.143 -3.8562,-14.821 -0.4413,-1.011 -1.5631,1.981 -1.2854,3.048 1.0783,4.144 5.1585,7.491 5.1416,11.773 -0.024,6.175 -4.2898,11.665 -5.2584,17.764 -0.8226,5.18 2.9543,33.464 -10.0494,19.761"
       id="path1309" /><path
       style="fill:none;stroke:#ffffff;stroke-width:5.5"
       d="m 2968.2261,10668.935 c -1.4767,-37.247 56.4624,42.52 37.7436,7.358"
       id="path1311" /><path
       style="fill:none;stroke:#ffffff;stroke-width:5.5"
       d="m 3007.8393,10605.446 c 19.3784,19.281 24.3631,50.264 20.0987,76.628 -1.294,8 -6.7123,26.128 -12.7369,20.708"
       id="path1313" /><path
       style="fill:none;stroke:#ffffff;stroke-width:5.5"
       d="m 2919.4984,10595.355 c -11.1729,0.841 -29.2621,-0.04 -38.9121,7.358 -2.0699,1.586 6.281,21.892 6.6606,25.648 1.149,11.369 -0.5316,16.124 -0.7011,27.33 -0.3843,25.415 6.3245,56.258 -3.8561,80.622 -2.7858,6.667 -9.8771,9.658 -11.919,13.98 -1.6753,3.546 7.7658,1.235 11.6852,1.367 3.9404,0.132 46.8873,3.974 42.3009,2.943"
       id="path1315" /><path
       style="fill:none;stroke:#ffffff;stroke-width:5.5"
       d="m 3027.7043,10579.588 c 3.7783,-0.946 7.4722,-3.338 11.3348,-2.838 5.4018,0.7 15.5548,64.464 17.4111,71.688 2.6607,10.353 19.7541,47.905 17.9954,55.71 -0.5425,2.408 -12.8784,2.539 -18.6966,3.784 -9.5037,2.035 -19.0283,4.03 -28.3952,6.622 -4.3297,1.199 -8.5437,2.842 -12.6202,4.731 -1.1944,0.553 -4.28,2.086 -3.0381,2.522 3.3075,1.163 7.0112,0.07 10.5167,0.105"
       id="path1317" /><path
       style="fill:none;stroke:#ffffff;stroke-width:5.5"
       d="m 3137.6455,10619.216 c -0.1742,15.878 -15.306,28.459 -23.4875,40.994 -2.1098,3.233 -6.7412,9.715 -3.155,11.143 3.8153,1.519 29.8497,2.258 32.0177,2.417 4.5327,0.334 9.0516,0.859 13.5551,1.472 2.9381,0.399 10.8114,4.417 8.5302,2.523 -10.1862,-8.459 -8.758,-32.653 -14.373,-43.202 -3.1588,-5.935 -8.725,-10.231 -13.0875,-15.347 z"
       id="path1319" /><path
       style="fill:none;stroke:#ffffff;stroke-width:5.5"
       d="m 3204.0181,10623.21 c -5.2574,-4.054 -31.5911,13.691 -18.6966,21.339 5.011,2.972 22.6929,0.679 23.3707,-7.043 0.4383,-4.994 -9.6851,-14.142 -4.6741,-14.296 13.1848,-0.404 31.427,48.477 31.6672,59.39 0.5237,23.793 -50.8018,21.755 -35.1728,-2.102"
       id="path1321" /><path
       style="fill:none;stroke:#ffffff;stroke-width:5.5"
       d="m 3287.9187,10615.747 c -5.3753,2.278 -12.9987,1.903 -16.1258,6.833 -14.3183,22.571 -6.9562,43.433 8.0628,61.071"
       id="path1323" /><path
       style="fill:none;stroke:#ffffff;stroke-width:5.5"
       d="m 3303.8107,10636.77 c -3.0452,-3.054 10.3704,-24.948 6.4269,-13.455 -1.613,4.702 -5.6436,8.547 -6.4269,13.455 -2.2066,13.827 6.0619,34.271 -10.5168,41.941"
       id="path1325" /><path
       style="fill:none;stroke:#ffffff;stroke-width:5.5"
       d="m 3285.4648,10656.111 c -23.8167,-38.721 49.6201,19.437 45.4557,2.207"
       id="path1327" /><path
       style="fill:none;stroke:#ffffff;stroke-width:5.5"
       d="m 3327.1813,10587.682 c 4.9857,5.115 11.0203,9.386 14.9572,15.346 12.9289,19.575 15.423,62.538 6.1932,83.987"
       id="path1329" /><path
       style="fill:none;stroke:#ffffff;stroke-width:5.5"
       d="m 3356.6282,10558.145 c 13.328,-4.048 30.9452,-5.882 43.7031,1.892 2.4917,1.518 0.2401,12.765 0.2337,12.824 -3.2207,29.213 -2.1019,58.568 3.0382,87.56 2.7254,15.372 5.5315,25.261 10.6336,39.417 0.829,2.3 1.7004,4.61 2.9214,6.728 0.523,0.907 3.922,1.465 2.9213,1.156 -13.5755,-4.187 -35.4135,3.67 -49.5457,6.202 -3.192,0.572 -6.3633,2.076 -9.582,1.682 -1.0671,-0.131 1.2465,-1.752 1.8697,-2.628"
       id="path1331" /><path
       style="fill:none;stroke:#ffffff;stroke-width:5.5"
       d="m 3209.8607,10564.872 c -8.8001,1.832 -25.0717,1.867 -30.1481,11.878 -2.2667,4.47 3.2905,9.496 4.3235,14.401 1.9107,9.07 1.5552,18.427 0.117,27.54 -8.4767,53.707 0.1875,-23.973 -8.8809,39.733 -2.7587,19.38 -2.3501,37.944 -3.1551,57.287 -0.2306,5.542 -0.8763,10.986 -1.2854,16.503 -0.034,0.454 -0.4554,1.366 0,1.366 7.8101,0 15.1609,-3.915 22.9033,-4.94 1.857,-0.246 44.9992,-5.993 34.4717,3.889"
       id="path1333" /></g></svg>
