<?xml version="1.0" encoding="UTF-8" standalone="no"?>
<!-- Created with Inkscape (http://www.inkscape.org/) -->

<svg
   width="6170.3579mm"
   height="3397.3511mm"
   viewBox="0 0 6170.3577 3397.3512"
   version="1.1"
   id="svg12"
   inkscape:version="1.2.1 (9c6d41e410, 2022-07-14, custom)"
   sodipodi:docname="integral_relation_differences.svg"
   xml:space="preserve"
   xmlns:inkscape="http://www.inkscape.org/namespaces/inkscape"
   xmlns:sodipodi="http://sodipodi.sourceforge.net/DTD/sodipodi-0.dtd"
   xmlns="http://www.w3.org/2000/svg"
   xmlns:svg="http://www.w3.org/2000/svg"><sodipodi:namedview
     id="namedview14"
     pagecolor="#505050"
     bordercolor="#eeeeee"
     borderopacity="1"
     inkscape:showpageshadow="0"
     inkscape:pageopacity="0"
     inkscape:pagecheckerboard="0"
     inkscape:deskcolor="#505050"
     inkscape:document-units="mm"
     showgrid="true"
     inkscape:zoom="0.02"
     inkscape:cx="14600"
     inkscape:cy="12200"
     inkscape:window-width="1366"
     inkscape:window-height="746"
     inkscape:window-x="1360"
     inkscape:window-y="0"
     inkscape:window-maximized="1"
     inkscape:current-layer="layer1"
     inkscape:lockguides="true"><inkscape:grid
       type="xygrid"
       id="grid344"
       color="#969696"
       opacity="0.39215686"
       empcolor="#000000"
       empopacity="0.17254902"
       dotted="false"
       originx="-4364.6483"
       originy="-43975.211" /></sodipodi:namedview><defs
     id="defs9" /><g
     inkscape:label="Layer 1"
     inkscape:groupmode="layer"
     id="layer1"
     transform="translate(-4469.6484,-44123.707)"><path
       style="fill:none;stroke:#ffffff;stroke-width:10.7"
       d="m 5420.8448,44348.241 c -62.6962,15.973 -97.0605,19.786 -154.7514,61.437 -117.3988,84.756 -105.9854,152.606 -35.492,266.864 18.7638,30.411 58.4447,55.671 70.9856,89.593 5.8931,15.941 -26.847,-20.931 -41.1715,-30.078"
       id="path383" /><path
       style="fill:none;stroke:#ffffff;stroke-width:10.7"
       d="m 5020.4802,44652.224 c -95.8985,-28.689 -80.6214,3.278 0,0 110.1783,-4.485 219.4632,-21.897 329.379,-30.718 36.7972,-2.956 74.4096,-7.832 110.7395,-1.281 8.8514,1.596 -18.0128,1.397 -26.9753,0.64"
       id="path385" /><path
       style="fill:none;stroke:#ffffff;stroke-width:10.7"
       d="m 5822.6307,44359.121 c 29.2616,-31.506 510.5482,5.054 350.6748,1.921"
       id="path391" /><path
       style="fill:none;stroke:#ffffff;stroke-width:10.7"
       d="m 5761.5816,44481.353 c 171.5886,37.156 348.5488,6.234 521.0436,-8.958 13.7518,-1.212 45.3417,-17.64 41.1716,-4.48 -4.3823,13.83 -28.394,5.972 -42.591,8.959"
       id="path393" /><path
       style="fill:none;stroke:#ffffff;stroke-width:10.7"
       d="m 6663.1141,44503.753 c 8.0452,-29.866 12.4489,-60.96 24.1361,-89.596 7.0111,-17.179 19.7842,-31.475 31.2335,-46.077 85.1085,-108.54 92.8354,70.654 120.6772,65.275 37.6886,-7.278 57.6739,-150.336 132.0351,-152.31 35.9521,-0.952 73.7983,35.129 86.6047,65.916 6.6619,16.015 8.8762,33.102 5.678,49.919 -0.3646,1.915 -3.1248,7.048 -2.839,5.119 0.7482,-5.053 2.84,-9.813 4.26,-14.718"
       id="path395" /><path
       style="fill:none;stroke:#ffffff;stroke-width:10.7"
       d="m 7503.5971,44218.971 c -20.5912,52.909 -155.5543,294.556 -228.5777,291.18 -24.5655,-1.136 -30.7017,-57.05 -32.653,-64.636"
       id="path397" /><path
       style="fill:none;stroke:#ffffff;stroke-width:10.7"
       d="m 7249.4654,44291.925 c 96.2498,15.56 167.0431,80.362 244.1937,133.752 19.0434,13.179 66.1908,47.091 44.0124,53.755"
       id="path399" /><path
       style="fill:none;stroke:#ffffff;stroke-width:10.7"
       d="m 7850.0135,44201.691 c 37.348,55.256 203.6963,307.139 7.099,225.907"
       id="path401" /><path
       style="fill:none;stroke:#ffffff;stroke-width:10.7"
       d="m 7726.4954,44366.799 c 181.9904,-43.241 138.9658,-41.912 283.9476,-53.115 51.7935,-4.003 77.8926,0.32 65.3077,-4.479 -11.1422,-4.249 -23.6625,-2.987 -35.4936,-4.48"
       id="path403" /><path
       style="fill:none;stroke:#ffffff;stroke-width:10.7"
       d="m 8122.6018,44128.735 c 29.3415,10.666 65.2332,10.663 88.0242,31.999 26.1493,24.479 95.1992,199.012 82.3449,239.985 -7.3281,23.36 -55.1341,-18.812 -59.6299,-42.878 -10.2658,-54.954 18.3793,-103.13 61.0494,-133.112 66.2247,-46.533 184.671,78.52 166.1091,115.834 -59.8201,120.248 -239.8215,54.224 -299.5652,-30.078 -6.7553,-9.533 8.5191,-21.759 12.7786,-32.639"
       id="path405" /><path
       style="fill:none;stroke:#ffffff;stroke-width:10.7"
       d="m 4718.7052,45431.105 c -477.403,201.307 379.8286,379.954 204.4433,593.242 -79.2888,96.423 -256.6652,131.913 -373.3913,124.792 -8.2385,-0.502 -102.7497,-17.335 -66.7272,-64.636 16.8644,-22.144 48.2711,-27.731 72.4067,-41.597"
       id="path499" /><path
       style="fill:none;stroke:#ffffff;stroke-width:10.7"
       d="m 5478.2648,45404.226 c 29.8146,17.279 68.8672,24.195 89.4438,51.837 85.6822,115.102 61.5693,260.34 -85.1854,295.021 -23.9527,5.661 -54.8615,16.968 -73.8262,1.28 -159.0719,-131.587 98.7552,-279.483 178.8876,-234.865 16.8353,9.374 -17.9166,28.783 -24.1361,32.638"
       id="path511" /><path
       style="fill:none;stroke:#ffffff;stroke-width:10.7"
       d="m 5080.739,45833.639 c -21.2961,7.68 -43.2496,13.736 -63.8883,23.039 -20.6386,9.303 41.4111,-20.342 63.8883,-23.039 52.1576,-6.259 105.2708,5.996 157.5905,1.28 245.5439,-22.137 494.2846,-83.043 736.8429,-126.072 36.4345,-6.464 211.9519,-22.353 274.0078,-52.477 3.0047,-1.458 -6.6229,-1.687 -9.938,-1.28 -28.3823,3.49 -99.3425,22.389 -114.9978,26.239"
       id="path513" /><path
       style="fill:none;stroke:#ffffff;stroke-width:10.7"
       d="m 5475.4258,45962.271 c 76.4251,38.598 148.2208,103.179 139.134,199.667 -8.2346,87.438 -122.5837,144.905 -194.5053,88.955 -100.7917,-78.41 63.2901,-184.893 143.394,-172.15"
       id="path515" /><path
       style="fill:none;stroke:#ffffff;stroke-width:10.7"
       d="m 5767.8902,45964.191 c -107.5071,126.561 60.4095,-67.818 68.1483,-42.237 19.5495,64.62 -50.0094,-4.725 -68.1483,42.237 -15.6484,40.513 11.3334,86.504 9.938,129.912 -0.5276,16.411 -11.1595,30.914 -15.616,46.717 -3.2361,11.475 -3.8454,43.175 -11.3591,33.917 -20.1483,-24.824 -29.7818,-56.594 -45.4316,-84.474 41.6504,-95.199 -92.457,-99.177 -109.3183,-159.99 -0.8924,-3.219 6.8685,-0.04 9.938,1.28 26.4019,11.325 52.2241,23.966 78.0847,36.477 126.6647,61.283 246.6031,132.172 370.5507,198.388 22.8165,12.189 87.8408,50.983 70.9873,31.358 -9.8353,-11.452 -24.6087,-17.492 -36.9131,-26.238"
       id="path517" /><path
       style="fill:none;stroke:#ffffff;stroke-width:10.7"
       d="m 6775.9035,45347.27 c 22.7155,-8.746 76.893,-3.523 68.1466,-26.239 -8.746,-22.715 -45.6813,16.868 -68.1466,26.239 -68.4773,28.563 -169.2431,44.69 -149.0736,140.151 17.2778,81.774 60.2199,134.363 102.2209,203.507 20.5685,33.861 44.5143,101.029 29.8157,95.994 -11.6502,-3.991 -21.7697,-11.519 -32.6546,-17.279"
       id="path527" /><path
       style="fill:none;stroke:#ffffff;stroke-width:10.7"
       d="m 6500.4746,45653.81 c -151.5899,-0.119 656.7729,-109.696 523.8827,-44.797"
       id="path529" /><path
       style="fill:none;stroke:#ffffff;stroke-width:10.7"
       d="m 7798.1119,45372.228 c -6.6058,-23.952 568.5483,-138.119 367.7116,-24.958"
       id="path535" /><path
       style="fill:none;stroke:#ffffff;stroke-width:10.7"
       d="m 7854.9026,45466.302 c 26.0282,1.494 52.0518,5.888 78.0847,4.48 127.5723,-6.901 255.6031,-25.835 383.3294,-34.558 39.7906,-2.717 61.1645,-3.175 25.5539,7.039"
       id="path537" /><path
       style="fill:none;stroke:#ffffff;stroke-width:10.7"
       d="m 8681.1877,45461.823 c 35.3118,-51.395 66.2794,-169.015 137.7145,-192.628 24.67,-8.155 42.8241,82.115 59.6297,78.075 38.6141,-9.284 66.4623,-81.212 103.6405,-101.754 35.6026,-19.672 110.7392,153.105 110.7392,92.794"
       id="path604" /><path
       style="fill:none;stroke:#ffffff;stroke-width:10.7"
       d="m 9317.2293,45216.078 c 98.2239,-33.622 110.2561,-30.058 79.506,67.836 -23.0323,73.322 -31.2195,81.24 -61.0495,148.47 -8.1764,18.428 -7.1752,40.888 -18.4565,57.597 -7.2403,10.723 -8.854,-24.424 -11.3575,-37.118"
       id="path606" /><path
       style="fill:none;stroke:#ffffff;stroke-width:10.7"
       d="m 9246.2437,45253.835 c 25.082,2.987 51.5999,0.08 75.2457,8.96 39.5991,14.875 189.2255,104.118 227.1567,129.912 20.9825,14.268 62.4742,39.689 72.4069,71.035 1.8127,5.722 -10.9913,-5.136 -15.6178,-8.959"
       id="path608" /><path
       style="fill:none;stroke:#ffffff;stroke-width:10.7"
       d="m 9893.6429,45181.52 c -8.8824,34.5 54.5497,234.484 -19.8761,191.988"
       id="path610" /><path
       style="fill:none;stroke:#ffffff;stroke-width:10.7"
       d="m 9751.6683,45296.713 c 107.2165,-15.073 218.5754,-12.175 323.6997,11.519"
       id="path612" /><path
       style="fill:none;stroke:#ffffff;stroke-width:10.7"
       d="m 10350.797,45150.802 c -9.26,4.129 -204.66,95.842 -136.294,158.71 72.564,66.727 256.137,15.395 336.479,-10.879 24.411,-7.983 -53.006,-2.306 -76.669,7.679 -62.298,26.29 -228.14,108.579 -278.266,16.639 -40.398,-74.096 131.201,-156.189 154.75,-172.149 31.183,-21.135 127.612,-58.915 90.863,-67.196 -41.741,-9.405 -53.8,53.494 -90.863,67.196 -37.321,13.797 -80.691,-4.667 -119.258,5.12 -24.324,6.173 -99.917,56.888 -96.541,74.235 19.264,99 194.493,62.828 295.303,65.916 60.643,1.858 121.187,-6.232 181.727,-10.239 7.163,-0.475 28.3,-1.622 21.297,-3.2 -16.192,-3.65 -33.127,-2.134 -49.69,-3.2"
       id="path614" /><path
       style="fill:none;stroke:#ffffff;stroke-width:10.7"
       d="m 4910.3698,46719.343 c -39.2794,45.864 -80.8814,89.836 -117.8384,137.592 -210.3565,271.818 368.6849,277.399 360.6143,444.772 -7.0794,146.818 -232.409,164.937 -336.4781,190.067 -125.8417,27.552 -1.6032,-0.673 -72.4068,17.279 -8.5122,2.159 -34.2397,7.705 -25.5556,6.4 51.0545,-7.672 106.3443,-25.838 156.171,-39.038 32.8433,-8.7 65.6525,-17.648 97.9624,-28.158 41.7888,-13.593 80.5648,-37.093 114.9978,-63.996 186.065,-145.376 -100.4892,-227.984 -201.6011,-300.781 -62.4112,-44.934 -92.3134,-130.054 -88.0243,-203.507 1.6634,-28.486 3.4418,-122.411 32.6546,-138.871 23.9376,-13.488 55.0631,-9.207 79.5042,-21.759 34.1899,-17.559 60.5146,-47.809 93.7023,-67.196 9.7725,-5.708 54.4494,-16.304 70.9873,-20.478 8.1257,-2.051 31.7759,-10.485 24.1361,-7.04 -37.0444,16.705 -79.5148,22.512 -114.9994,43.517 -59.6538,35.313 -120.4493,69.308 -176.0471,110.713 -21.1551,15.755 -36.4931,49.808 -39.7521,75.515 -22.7384,179.364 567.7932,291.948 406.0444,493.409 -77.6739,96.745 -296.803,90.422 -407.4638,99.834 -36.4307,3.098 -72.9741,4.988 -109.3199,8.96 -3.8579,0.421 -14.8955,4.154 -11.3576,2.56 17.1332,-7.723 35.2718,-13.038 52.5291,-20.479"
       id="path616" /><path
       style="fill:none;stroke:#ffffff;stroke-width:10.7"
       d="m 5780.6688,46996.446 c -75.1604,89.883 -86.0141,107.592 -181.7266,196.467 -163.1345,151.481 -262.9692,140.96 -4.2601,117.753 56.722,-5.088 113.5079,-9.625 170.3691,-12.799 118.6796,-6.626 163.0386,-4.682 282.528,-1.92 16.2,0.374 57.5017,19.078 48.2706,5.76 -21.1212,-30.473 -65.725,-54.413 -89.4438,-81.275 -23.1429,-26.211 -39.068,-58.568 -63.8883,-83.195 -159.1319,-157.898 -101.7537,-134.019 -252.7122,-151.031"
       id="path618" /><path
       style="fill:none;stroke:#ffffff;stroke-width:10.7"
       d="m 6423.8078,46913.251 c -33.6004,4.906 -68.7236,3.58 -100.8013,14.719 -292.6881,101.638 70.5277,237.925 102.2224,348.138 24.9864,86.886 -129.612,27.788 -146.233,20.479"
       id="path620" /><path
       style="fill:none;stroke:#ffffff;stroke-width:10.7"
       d="m 6088.7508,47189.073 c 135,-38.766 318.5683,-67.72 458.5749,-39.037"
       id="path622" /><path
       style="fill:none;stroke:#ffffff;stroke-width:10.7"
       d="m 7032.8743,46968.927 c 87.0754,-52.944 240.6731,31.384 333.6393,-17.919 7.5816,-4.02 -15.5578,-8.717 -24.1361,-8.959"
       id="path624" /><path
       style="fill:none;stroke:#ffffff;stroke-width:10.7"
       d="m 7069.7873,47050.842 c 134.2975,-1.298 265.6912,-27.816 400.3665,-13.439"
       id="path626" /><path
       style="fill:none;stroke:#ffffff;stroke-width:10.7"
       d="m 7890.3946,46920.291 c 22.7161,-26.026 45.4287,-52.053 68.1482,-78.075 82.8493,-94.893 93.6369,61.141 119.2581,47.356 33.0538,-17.783 66.8316,-105.556 109.3197,-97.274 37.0083,7.214 102.6261,30.605 127.775,58.237 24.1451,26.529 4.4577,93.082 22.7166,40.957"
       id="path628" /><path
       style="fill:none;stroke:#ffffff;stroke-width:10.7"
       d="m 8571.8679,46760.941 c -40.8765,46.04 62.1305,-50.452 76.6667,-27.519 32.1996,50.799 -74.4299,23.55 -76.6667,27.519 -18.9688,33.655 22.1223,77.706 12.7786,115.193 -2.5395,10.188 -88.1809,99.562 -116.4188,93.433 -13.1673,-2.857 -27.5077,-42.366 -29.8143,-47.357"
       id="path630" /><path
       style="fill:none;stroke:#ffffff;stroke-width:10.7"
       d="m 8412.8578,46764.78 c 29.3415,6.4 60.6462,6.858 88.0245,19.199 39.4716,17.792 258.3918,153.425 258.3918,202.867 0,6.098 6.5593,-10.282 9.938,-15.359"
       id="path632" /><path
       style="fill:none;stroke:#ffffff;stroke-width:10.7"
       d="m 8965.1353,46725.743 c 22.1081,50.505 107.6645,225.295 -24.1361,191.348"
       id="path634" /><path
       style="fill:none;stroke:#ffffff;stroke-width:10.7"
       d="m 8828.8402,46851.815 c 84.3315,-55.703 255.5161,-97.949 329.3793,-31.358"
       id="path636" /><path
       style="fill:none;stroke:#ffffff;stroke-width:10.7"
       d="m 9574.2016,46616.31 c -33.1271,10.879 -70.1034,13.702 -99.3817,32.638 -95.8376,61.982 -137.5921,201.508 1.4195,234.225 59.44,13.989 192.3793,-19.967 232.8378,-29.439 31.7984,-7.443 170.7076,-49.552 174.6277,-60.156 11.5813,-31.328 -176.4655,84.281 -178.8877,85.115 -126.7442,43.627 -353.0651,33.843 -421.6604,-104.953 -42.1473,-85.281 111.9621,-170.246 163.2685,-177.909 42.6625,-6.372 85.1255,26.927 127.7763,20.479 128.455,-70.136 59.3799,-53.323 116.4191,-55.037 23.7887,-0.715 -43.6475,-5.099 -48.2722,-2.56 -26.0715,14.314 -41.0321,45.374 -68.1469,57.597 -80.5349,36.302 -262.995,19.333 -231.4167,185.588 22.5393,118.666 511.6351,30.185 587.7711,-1.92"
       id="path638" /></g></svg>
