<?xml version="1.0" encoding="UTF-8" standalone="no"?>
<!-- Created with Inkscape (http://www.inkscape.org/) -->

<svg
   width="193.02075mm"
   height="80.171326mm"
   viewBox="0 0 193.02075 80.171327"
   version="1.1"
   id="svg12"
   inkscape:version="1.2.1 (9c6d41e410, 2022-07-14, custom)"
   sodipodi:docname="integral_area_equation.svg"
   xml:space="preserve"
   xmlns:inkscape="http://www.inkscape.org/namespaces/inkscape"
   xmlns:sodipodi="http://sodipodi.sourceforge.net/DTD/sodipodi-0.dtd"
   xmlns="http://www.w3.org/2000/svg"
   xmlns:svg="http://www.w3.org/2000/svg"><sodipodi:namedview
     id="namedview14"
     pagecolor="#000000"
     bordercolor="#ffffff"
     borderopacity="1"
     inkscape:showpageshadow="0"
     inkscape:pageopacity="0"
     inkscape:pagecheckerboard="0"
     inkscape:deskcolor="#000000"
     inkscape:document-units="mm"
     showgrid="true"
     inkscape:zoom="0.36991778"
     inkscape:cx="397.3856"
     inkscape:cy="592.02345"
     inkscape:window-width="1366"
     inkscape:window-height="746"
     inkscape:window-x="1360"
     inkscape:window-y="0"
     inkscape:window-maximized="1"
     inkscape:current-layer="layer1"
     inkscape:lockguides="true"
     showguides="true"><sodipodi:guide
       position="3265.6758,-22192.731"
       orientation="0,-1"
       id="guide3409"
       inkscape:locked="true" /></sodipodi:namedview><defs
     id="defs9"><rect
       x="587.26367"
       y="362.45731"
       width="66.575974"
       height="20.973427"
       id="rect1884" /></defs><g
     inkscape:label="Layer 1"
     inkscape:groupmode="layer"
     id="layer1"
     transform="translate(-3310.4243,-22600.229)"><path
       style="fill:none;stroke:#00ffff;stroke-width:0.499999"
       d="m 3320.0885,22607.723 c -1.8918,3.402 -4.8204,8.459 -4.558,12.508 0.2767,4.27 2.7327,8.233 3.7503,12.335 1.6009,6.454 0.6366,14.398 -2.9425,20.103 -1.5334,2.443 -3.0832,3.747 -5.9043,3.857"
       id="path3255" /><path
       style="fill:none;stroke:#00ffff;stroke-width:0.499999"
       d="m 3330.0123,22611.356 c -3.253,3.803 -4.797,8.724 -2.5386,13.46 1.4116,2.959 3.6858,5.409 5.0773,8.39 2.7473,5.886 3.998,13.928 -0.6732,19.272 -1.1106,1.271 -2.4645,2.232 -4.1541,2.474 -2.9373,0.422 -1.4165,-0.661 -2.5963,0.312"
       id="path3257" /><path
       style="fill:none;stroke:#00ffff;stroke-width:0.499999"
       d="m 3328.0506,22654.572 c -1.4684,0.834 -2.9446,1.564 -4.481,2.214 -0.015,0 -0.2693,0.07 -0.2693,0.121 0,0.08 0.1683,0.03 0.25,0.02 0.6227,-0.133 2.4813,-0.861 2.5194,-0.882 0.718,-0.401 1.3206,-0.98 1.9809,-1.47 z"
       id="path3259" /><path
       style="fill:none;stroke:#00ffff;stroke-width:0.499999"
       d="m 3331.7624,22666.007 c 1.2055,4.216 -1.1715,8.751 -0.2115,12.923"
       id="path3261" /><path
       style="fill:none;stroke:#00ffff;stroke-width:0.499999"
       d="m 3331.8201,22669.432 c -0.2251,-2.698 -2.6594,-5.499 -0.8077,-8.096 3.1372,-4.401 8.1419,-0.651 9.6161,2.958 1.6377,4.01 1.0013,8.231 -1.2309,11.851 -1.1047,1.791 -5.7215,7.195 -5.8851,1.384"
       id="path3263" /><path
       style="fill:none;stroke:#00ffff;stroke-width:0.499999"
       d="m 3357.7643,22609.09 c -2.4789,15.857 -1.7394,32.041 -2.6926,48.042"
       id="path3265" /><path
       style="fill:none;stroke:#00ffff;stroke-width:0.499999"
       d="m 3370.7844,22615.076 c -0.6411,0.98 -1.3755,1.905 -1.9232,2.941 -1.4858,2.809 1.2538,7.615 4.6542,5.899 3.6789,-1.857 1.3316,-6.212 0.3462,-9.031 -0.7716,-2.207 -1.2613,-3.859 -2.0964,-6.02 -0.4229,-1.095 -0.7081,-1.791 -1.3847,-2.699 -0.2457,-0.33 -0.726,-0.631 -0.4231,-0.09"
       id="path3267" /><path
       style="fill:none;stroke:#00ffff;stroke-width:0.499999"
       d="m 3366.4572,22628.552 c 6.9227,1.684 14.1984,0.278 21.2515,0.381"
       id="path3269" /><path
       style="fill:none;stroke:#00ffff;stroke-width:0.499999"
       d="m 3369.5536,22640.68 c 1.0671,1.87 2.6392,4.468 3.4425,6.487 1.0996,2.764 1.7952,5.696 -0.3654,8.2 -0.3971,0.461 -0.9938,0.964 -1.5963,0.883 -3.4088,-0.459 -2.7822,-7.693 -0.577,-9.36 0.4228,-0.319 1.0129,-0.311 1.5194,-0.467"
       id="path3271" /><path
       style="fill:none;stroke:#00ffff;stroke-width:0.499999"
       d="m 3377.1118,22644.659 c -0.9004,2.551 -0.7657,7.28 2.9617,7.923 3.2303,0.558 4.2407,-8.758 3.9426,-10.691 -0.1153,-0.748 -0.4616,-1.442 -0.6924,-2.163"
       id="path3273" /><path
       style="fill:none;stroke:#00ffff;stroke-width:0.499999"
       d="m 3396.0169,22625.802 c 0.109,1.464 0.21,2.93 0.327,4.394 0.158,1.978 0.4679,5.806 0.7693,7.871 0.3691,2.53 0.3264,2.495 0.4615,1.523"
       id="path3275" /><path
       style="fill:none;stroke:#00ffff;stroke-width:0.499999"
       d="m 3401.8635,22626.077 c 0.064,-0.03 1.4337,-0.638 1.4617,-0.916 0.017,-0.166 -1.3499,-0.07 -2.481,0.07 -0.7928,0.1 -7.2565,0.277 -6.6351,2.456 0.2404,0.843 1.0898,1.373 1.6348,2.059 2.6489,1.956 4.9213,1.754 7.5582,0.173"
       id="path3277" /><path
       style="fill:none;stroke:#00ffff;stroke-width:0.499999"
       d="m 3393.536,22621.788 c 1.4823,-0.59 9.4081,-0.367 8.8468,-2.249 -0.7258,-2.434 -3.1554,-4.57 -4.7503,-6.453 -0.3854,-0.455 -0.7977,-0.889 -1.154,-1.367 -0.042,-0.06 -0.079,-0.243 -0.019,-0.207 0.2828,0.167 0.5,0.427 0.75,0.64"
       id="path3279" /><path
       style="fill:none;stroke:#00ffff;stroke-width:0.499999"
       d="m 3418.8455,22623.899 c -2.4804,2.457 -3.8381,5.804 -5.3658,8.892 -0.4711,0.952 -0.9096,1.92 -1.3462,2.889 -0.1277,0.283 -0.3462,1.176 -0.3462,0.865 0,-0.37 0.2704,-0.693 0.3462,-1.055 0.2902,-1.388 0.5,-2.791 0.75,-4.187"
       id="path3281" /><path
       style="fill:none;stroke:#00ffff;stroke-width:0.499999"
       d="m 3412.9989,22623.605 c 1.3364,3.982 3.8302,7.22 6.2697,10.553 1.61,2.199 0.7894,1.591 2.0193,2.37"
       id="path3283" /><path
       style="fill:none;stroke:#00ffff;stroke-width:0.499999"
       d="m 3428.5192,22610.456 c -2.6957,3.039 -4.3861,7.687 -2.3655,11.609 0.324,0.629 0.733,1.367 1.4039,1.591 1.8176,0.608 2.9943,-0.786 3.5195,-2.214 1.1785,-3.203 0.6201,-7.876 -0.327,-11.037 -0.565,-1.887 -1.3234,-3.716 -2.154,-5.502 -0.2632,-0.566 -1.8675,-1.977 -1.0193,-0.502"
       id="path3285" /><path
       style="fill:none;stroke:#00ffff;stroke-width:0.499999"
       d="m 3425.3075,22628.12 c 6.388,1.951 13.9289,-0.931 20.0206,-0.26"
       id="path3287" /><path
       style="fill:none;stroke:#00ffff;stroke-width:0.499999"
       d="m 3429.6924,22640.351 c 0.3526,0.975 0.7316,1.94 1.0577,2.924 0.8446,2.547 1.8394,5.659 0.5001,8.269 -0.6153,1.199 -2.3644,3.42 -3.2503,2.405 -1.8249,-2.092 -2.0725,-5.442 -0.019,-7.422 0.958,-0.924 1.8189,-1.037 3.0195,-1.401"
       id="path3289" /><path
       style="fill:none;stroke:#00ffff;stroke-width:0.499999"
       d="m 3433.3465,22642.859 c -0.071,-0.778 0.5669,-2.406 -0.2116,-2.335 -0.7785,0.07 8e-4,1.583 0.2116,2.335 0.4355,1.556 1.0806,3.046 1.7116,4.533 0.3629,0.855 1.4116,2.686 1.8078,2.63 0.4331,-0.06 0.594,-0.675 0.7309,-1.09 1.1913,-3.617 1.5279,-7.886 1.5386,-11.66 0.01,-2.472 0.5113,-2.151 -0.5578,-2.578"
       id="path3291" /><path
       style="fill:none;stroke:#00ffff;stroke-width:0.499999"
       d="m 3449.0207,22638.102 c -0.1467,1.776 -0.1347,-2.028 -0.1347,-3.685 0,-1.713 -0.051,-7.271 0,-9.186 0.014,-0.51 0.09,-1.015 0.1347,-1.523 0.1201,0.552 10.433,-1.823 5.1157,1.142"
       id="path3293" /><path
       style="fill:none;stroke:#00ffff;stroke-width:0.499999"
       d="m 3447.2128,22628.691 c 2.7295,0.309 5.3173,-0.773 8.0198,-0.831"
       id="path3295" /><path
       style="fill:none;stroke:#00ffff;stroke-width:0.499999"
       d="m 3445.4627,22616.875 c 1.3543,0.215 5.7694,3.592 7.1929,2.058 1.4359,-1.546 0.034,-5.406 -0.7309,-6.833 -0.8262,-1.542 -2.9146,-2.653 -2.0386,-0.242"
       id="path3297" /><path
       style="fill:none;stroke:#00ffff;stroke-width:0.499999"
       d="m 3461.3677,22600.267 c -1.9728,12.719 -3.3361,25.503 -4.6542,38.302 -0.4372,4.246 -1.1721,8.555 -0.6731,12.819"
       id="path3299" /><path
       style="fill:none;stroke:#00ffff;stroke-width:0.499999"
       d="m 3472.5224,22621.857 c 0.6795,1.159 1.5306,2.234 2.0385,3.478 1.2992,3.181 3.7457,13.278 -2.404,13.649 -0.8618,0.05 -1.7838,-0.234 -2.481,-0.744 -2.3249,-1.698 -2.4062,-7.988 1.2117,-8.165 0.5676,-0.03 1.0898,0.323 1.6348,0.484"
       id="path3301" /><path
       style="fill:none;stroke:#00ffff;stroke-width:0.499999"
       d="m 3479.0612,22626.961 c -3.3973,1.496 -2.1096,9.672 1.7886,8.978 3.2074,-0.571 6.277,-10.66 4.5003,-12.75 -0.2011,-0.236 -0.2909,0.56 -0.3462,0.865"
       id="path3303" /><path
       style="fill:none;stroke:#00ffff;stroke-width:0.499999"
       d="m 3492.7545,22622.567 c 2.2618,1.083 1.6361,0.308 2.1733,3.719 0.2615,1.66 1.3811,8.892 -2.0579,8.892 -0.5996,0 -1.249,-0.172 -1.7117,-0.553 -3.1454,-2.594 -0.9651,-6.084 2.231,-6.747"
       id="path3305" /><path
       style="fill:none;stroke:#00ffff;stroke-width:0.499999"
       d="m 3497.6395,22624.158 c 0.1826,-1.292 -0.2585,-2.598 -0.1539,-3.892 0.016,-0.195 0.1269,0.375 0.1346,0.57 0.1587,4.014 0.075,8.671 2.6348,12.076 0.2207,0.293 0.5887,0.67 0.9424,0.571 0.7066,-0.198 0.8875,-3.484 0.9808,-4.325 0.1788,-1.611 1.6371,-10.365 0.7116,-12.647 -0.3177,-0.783 -0.5725,1.596 -0.75,2.422"
       id="path3307" /></g></svg>
