<?xml version="1.0" encoding="UTF-8" standalone="no"?>
<!-- Created with Inkscape (http://www.inkscape.org/) -->

<svg
   width="237.88359mm"
   height="193.25935mm"
   viewBox="0 0 237.88358 193.25936"
   version="1.1"
   id="svg12"
   inkscape:version="1.2.1 (9c6d41e410, 2022-07-14, custom)"
   sodipodi:docname="integral_slice.svg"
   xml:space="preserve"
   xmlns:inkscape="http://www.inkscape.org/namespaces/inkscape"
   xmlns:sodipodi="http://sodipodi.sourceforge.net/DTD/sodipodi-0.dtd"
   xmlns="http://www.w3.org/2000/svg"
   xmlns:svg="http://www.w3.org/2000/svg"><sodipodi:namedview
     id="namedview14"
     pagecolor="#000000"
     bordercolor="#ffffff"
     borderopacity="1"
     inkscape:showpageshadow="0"
     inkscape:pageopacity="0"
     inkscape:pagecheckerboard="0"
     inkscape:deskcolor="#000000"
     inkscape:document-units="mm"
     showgrid="true"
     inkscape:zoom="0.32391637"
     inkscape:cx="500.12909"
     inkscape:cy="450.73363"
     inkscape:window-width="1366"
     inkscape:window-height="746"
     inkscape:window-x="0"
     inkscape:window-y="0"
     inkscape:window-maximized="1"
     inkscape:current-layer="layer1"
     inkscape:lockguides="true"><inkscape:grid
       type="xygrid"
       id="grid344"
       color="#969696"
       opacity="0.39215686"
       empcolor="#ffffff"
       empopacity="0.17254902"
       dotted="false"
       originx="-3756.7789"
       originy="-4412.0286" /></sodipodi:namedview><defs
     id="defs9" /><g
     inkscape:label="Layer 1"
     inkscape:groupmode="layer"
     id="layer1"
     transform="translate(-3861.7793,-4560.5285)"><path
       style="fill:none;stroke:#ffffff;stroke-width:3"
       d="m 3889.8492,4583.0694 c -6.4306,10.2389 -9.8539,22.4922 -4.8759,34.219 8.0201,18.893 27.4827,33.966 17.3511,56.6234 -3.9967,8.9379 -21.8016,15.9243 -27.8496,18.2159 -4.4174,1.6738 -14.2141,1.1971 -10.3228,-0.5532"
       id="path1674" /><path
       style="fill:none;stroke:#ffffff;stroke-width:3"
       d="m 3930.6572,4630.249 c -5.6126,-1.3136 -15.6149,23.0611 -5.0955,21.1004 2.1728,-0.405 4.4404,-1.185 6.0619,-2.687 2.4614,-2.28 4.2458,-5.2615 5.7544,-8.2584 0.9268,-1.8411 -2.4006,-4.7702 -4.1291,-4.1094 -0.8478,0.3241 1.0378,2.4461 3.0309,5.2158 3.0661,4.2607 6.3789,8.3521 9.2246,12.763 4.407,6.8309 6.7157,11.7606 3.9535,20.5077 -2.3692,7.5025 -12.7475,6.5505 -15.023,-0.1185 -1.2178,-3.569 -1.1421,-7.455 -1.7132,-11.1825"
       id="path1676" /><path
       style="fill:none;stroke:#ffffff;stroke-width:3"
       d="m 3976.5168,4623.7687 c -1.9182,1.7649 -4.3911,3.0732 -5.7544,5.2949 -4.6185,7.5259 -5.7381,21.5853 3.3384,26.3162 1.4451,0.7532 3.1779,1.2391 4.788,0.9878 1.7902,-0.2794 3.2213,-1.6596 4.8319,-2.4893"
       id="path1678" /><path
       style="fill:none;stroke:#ffffff;stroke-width:3"
       d="m 3995.6249,4626.9693 c -2.4693,5.1793 -2.6526,11.0279 -4.3048,16.4773 -0.4343,1.4323 -1.6529,4.7642 -2.6356,3.6353 -1.0959,-1.259 -1.6107,-2.9241 -2.416,-4.3861"
       id="path1680" /><path
       style="fill:none;stroke:#ffffff;stroke-width:3"
       d="m 3983.3254,4631.9085 c 1.4057,0.04 2.9654,-0.5225 4.217,0.1186 3.5847,1.8362 17.4282,16.5807 13.5734,20.6262"
       id="path1682" /><path
       style="fill:none;stroke:#ffffff;stroke-width:3"
       d="m 4004.2346,4606.4221 c 3.3827,19.4884 15.837,39.2244 7.5553,59.0732 -0.8303,1.9902 -1.9521,3.9853 -3.6019,5.3739 -1.026,0.8635 -2.6064,0.6323 -3.9095,0.9484"
       id="path1684" /><path
       style="fill:none;stroke:#ffffff;stroke-width:3"
       d="m 4054.7943,4612.6653 c 6.6028,7.3883 21.5687,28.3047 7.3358,35.9971 -1.8577,1.004 -4.1782,1.5732 -6.2376,1.1064 -1.9886,-0.4507 -3.8919,-1.8743 -4.9198,-3.6353 -4.7168,-8.0803 3.4478,-12.5486 9.0049,-15.7265"
       id="path1686" /><path
       style="fill:none;stroke:#ffffff;stroke-width:3"
       d="m 4081.5896,4619.8568 c 2.9955,0.343 1.5877,-8.5375 2.7235,-9.8785 0.1589,-0.1876 0.4181,0.3477 0.4392,0.5927 0.3142,3.645 -0.4372,10.1036 -0.9224,13.0396 -1.0374,6.2776 -2.3149,10.9192 -4.7002,16.7539 -2.8649,7.0081 -3.2416,4.8004 -5.4469,-0.7903"
       id="path1688" /><path
       style="fill:none;stroke:#ffffff;stroke-width:3"
       d="m 4070.7397,4624.8751 c 5.3658,2.1609 -4.6348,-7.2802 -2.0206,-7.6657 1.2581,-0.1856 2.1229,1.4015 3.1627,2.1337 2.1964,1.5467 4.3872,3.1022 6.5451,4.7022 7.5909,5.6281 16.7167,11.6504 19.811,21.0609"
       id="path1690" /><path
       style="fill:none;stroke:#ffffff;stroke-width:3"
       d="m 3899.3374,4710.6597 c 0.6003,-1.1459 2.9469,-2.8374 1.801,-3.4377 -1.1459,-0.6003 -1.2464,2.269 -1.801,3.4377 -2.2459,4.7327 -3.6829,8.0298 -5.2712,13.0001 -1.9997,6.2574 -1.4974,9.2886 -2.1524,3.9119"
       id="path1692" /><path
       style="fill:none;stroke:#ffffff;stroke-width:3"
       d="m 3888.0043,4713.8208 c 5.828,4.4591 10.0497,11.4076 16.3847,15.0548"
       id="path1694" /><path
       style="fill:none;stroke:#ffffff;stroke-width:3"
       d="m 3913.7454,4729.6659 c -0.5857,1.1854 -1.4452,2.2713 -1.7571,3.5562 -2.9226,12.0381 17.6141,1.5322 13.9248,-4.1094 -0.8016,-1.2259 -11.4314,0.046 -12.1677,0.5532 -2.3975,1.6519 -4.8094,7.569 -1.8449,4.2675"
       id="path1696" /><path
       style="fill:none;stroke:#ffffff;stroke-width:3"
       d="m 3916.1174,4717.8907 c 1.7418,11.7951 2.7368,23.9133 5.403,35.5625"
       id="path1698" /><path
       style="fill:none;stroke:#ffffff;stroke-width:3"
       d="m 3911.1976,4565.9994 c 0.2929,-1.2513 0.5857,-2.5026 0.8786,-3.7538 0.015,-0.079 0.062,-0.3154 0.044,-0.2371 -1.7986,7.6851 0.044,1.408 -5.1394,12.6049 -1.126,2.4325 -1.5869,4.3982 -1.7571,4.228 -0.2795,-0.2793 0,-0.7903 0,-1.1854"
       id="path1700" /><path
       style="fill:none;stroke:#ffffff;stroke-width:3"
       d="m 3902.1487,4565.4857 c 4.5017,3.8988 13.128,7.7854 14.6716,14.2645"
       id="path1702" /><path
       style="fill:none;stroke:#ffffff;stroke-width:3"
       d="m 3922.5307,4572.7958 c 1.4972,5.1097 3.5079,10.056 5.0956,15.1338"
       id="path1704" /></g></svg>
