<?xml version="1.0" encoding="UTF-8" standalone="no"?>
<!-- Created with Inkscape (http://www.inkscape.org/) -->

<svg
   width="821.45117mm"
   height="485.57632mm"
   viewBox="0 0 821.45115 485.57633"
   version="1.1"
   id="svg12"
   inkscape:version="1.2.1 (9c6d41e410, 2022-07-14, custom)"
   sodipodi:docname="iterated_integral.svg"
   xml:space="preserve"
   xmlns:inkscape="http://www.inkscape.org/namespaces/inkscape"
   xmlns:sodipodi="http://sodipodi.sourceforge.net/DTD/sodipodi-0.dtd"
   xmlns="http://www.w3.org/2000/svg"
   xmlns:svg="http://www.w3.org/2000/svg"><sodipodi:namedview
     id="namedview14"
     pagecolor="#000000"
     bordercolor="#ffffff"
     borderopacity="1"
     inkscape:showpageshadow="0"
     inkscape:pageopacity="0"
     inkscape:pagecheckerboard="0"
     inkscape:deskcolor="#000000"
     inkscape:document-units="mm"
     showgrid="true"
     inkscape:zoom="0.32391637"
     inkscape:cx="1944.9465"
     inkscape:cy="1176.2295"
     inkscape:window-width="1366"
     inkscape:window-height="746"
     inkscape:window-x="0"
     inkscape:window-y="0"
     inkscape:window-maximized="1"
     inkscape:current-layer="layer1"
     inkscape:lockguides="true"><inkscape:grid
       type="xygrid"
       id="grid344"
       color="#969696"
       opacity="0.39215686"
       empcolor="#ffffff"
       empopacity="0.17254902"
       dotted="false"
       originx="-3753.5188"
       originy="-3813.0393" /></sodipodi:namedview><defs
     id="defs9" /><g
     inkscape:label="Layer 1"
     inkscape:groupmode="layer"
     id="layer1"
     transform="translate(-3858.5188,-3961.5393)"><path
       style="fill:none;stroke:#ffffff;stroke-width:3"
       d="m 3860.0516,3983.3689 c -0.285,6.2807 1.2988,12.6952 4.5683,18.0975 0.7398,1.2224 2.4696,2.9099 3.6899,0.5927 1.6065,-3.0509 1.6385,-6.8117 3.4263,-9.76 0.5641,-0.9305 1.2163,1.8161 1.6693,2.8057 0.027,0.059 3.2861,7.8562 4.6561,6.401 3.0896,-3.2813 2.9755,-8.2084 2.7676,-12.3282"
       id="path973" /><path
       style="fill:none;stroke:#ffffff;stroke-width:3"
       d="m 3888.6919,3988.7429 c 2.9086,-1.0144 7.7185,-1.3145 9.664,-4.4255 2.6154,-4.1828 -8.9178,-8.7685 -10.367,0.3556 -2.4571,15.4734 13.9653,18.9484 21.5681,8.1003"
       id="path975" /><path
       style="fill:none;stroke:#ffffff;stroke-width:3"
       d="m 3955.8998,3983.1318 c -0.322,-1.1062 0.14,-3.6412 -0.9665,-3.3189 -1.1062,0.322 1.6333,2.3791 0.9665,3.3189 -1.2253,1.7278 -4.2889,1.409 -5.5348,3.1219 -2.504,3.4425 -2.3088,15.9956 4.3926,16.2004 3.0065,0.092 5.5057,-2.4233 8.2584,-3.6351"
       id="path977" /><path
       style="fill:none;stroke:#ffffff;stroke-width:3"
       d="m 3968.5067,3986.6881 c -6.7128,0.6599 -5.5589,9.6271 0.7908,9.2464 4.3466,-0.2606 6.6554,-2.4961 8.0825,-6.3222 0.2826,-0.7573 -0.7509,-2.4498 -1.4057,-1.9757 -2.562,1.8548 0.7702,15.9682 3.3824,11.6959"
       id="path979" /><path
       style="fill:none;stroke:#ffffff;stroke-width:3"
       d="m 3980.8064,3981.2353 c 1.2591,2.5816 2.5249,5.1599 3.7777,7.7446 2.1384,4.412 2.8601,6.0971 2.899,6.0458 1.364,-1.8042 0.4339,-25.3088 9.1808,-7.1917 1.3322,2.7596 1.2248,2.4379 1.5814,4.149"
       id="path981" /><path
       style="fill:none;stroke:#ffffff;stroke-width:3"
       d="m 4037.1645,3981.0377 c 5.9097,3.8049 9.1249,10.0049 12.3872,16.003 0.6125,1.1264 2.0717,5.2819 1.0983,2.9636 -0.4059,-0.966 -4.8784,-16.3298 -3.6899,-16.4772 3.2766,-0.4066 7.1911,3.2975 11.465,0.4347 1.8986,-1.2718 3.1625,-6.5119 -0.6591,-5.1368 -10.2685,3.6949 -1.9336,20.4999 7.2919,13.9483"
       id="path983" /><path
       style="fill:none;stroke:#ffffff;stroke-width:3"
       d="m 4073.5357,3993.208 c 1.0477,3.6652 1.7695,6.0692 1.274,5.3739 -3.4396,-4.8268 -4.4146,-14.641 -5.1835,-20.1917 -0.1622,-1.1713 -1.8619,-3.243 -0.7027,-3.4771 1.1591,-0.2344 0.4685,2.318 0.7027,3.4771 -1.2299,-2.4762 -3.0823,-4.7312 -3.6897,-7.4285 -0.3833,-1.702 3.3018,-2.1903 4.9637,-1.6596 4.6304,1.4787 8.7949,4.2076 9.2686,9.8785 0.3936,4.7128 -5.1513,12.9854 -5.3152,8.2189 -0.072,-2.0983 0.5564,-4.1621 0.8346,-6.2432"
       id="path985" /><path
       style="fill:none;stroke:#ffffff;stroke-width:3"
       d="m 4081.179,3969.8553 c 1.4496,0.6848 3.375,0.7811 4.3487,2.0548 2.7675,3.6192 3.988,13.4429 4.9199,18.1369"
       id="path987" /><path
       style="fill:none;stroke:#ffffff;stroke-width:3"
       d="m 4096.1142,3976.4146 c -0.9097,3.162 -2.6501,6.6545 -1.2301,10.0761 2.3847,5.7455 11.4753,-7.1779 10.894,-10.7085 -0.024,-0.1468 -0.3117,0.1331 -0.3514,0.2768 -0.3056,1.0991 -0.5974,2.2193 -0.6591,3.3586 -0.1513,2.7964 -0.8318,13.0607 4.7443,10.1947"
       id="path989" /><path
       style="fill:none;stroke:#ffffff;stroke-width:3"
       d="m 4112.4548,3977.7582 c -3.4866,3.9613 7.6616,14.0425 10.0153,7.1125 3.7192,-2.4894 7.4024,-5.0334 11.1576,-7.4682 1.3858,-0.8985 2.8801,-1.6226 4.2609,-2.5289 9.1972,-6.0373 -8.2543,-9.1062 -10.8939,0.7112 -2.4715,9.1923 14.748,12.0848 19.9867,6.1642"
       id="path991" /><path
       style="fill:none;stroke:#ffffff;stroke-width:3"
       d="m 4216.8689,3970.8036 c -0.7471,-8.8411 2.8866,-10.5397 0,0 z"
       id="path993" /><path
       style="fill:none;stroke:#ffffff;stroke-width:3"
       d="m 4217.2642,3979.3782 c 0.7644,3.5523 3.5282,19.5561 5.3152,13.7112"
       id="path995" /><path
       style="fill:none;stroke:#ffffff;stroke-width:3"
       d="m 4228.7292,3978.5879 c 9.335,8.5204 0.7276,-7.5581 3.602,-7.9028 0.1098,-0.013 -0.032,2.9942 0.088,6.836 0.021,0.7133 2.3826,17.1924 0.1757,15.0548"
       id="path997" /><path
       style="fill:none;stroke:#ffffff;stroke-width:3"
       d="m 4228.246,3986.4116 c 4.3051,-5.9036 11.2289,-0.9014 16.4285,-3.2401"
       id="path999" /><path
       style="fill:none;stroke:#ffffff;stroke-width:3"
       d="m 4247.8374,3967.0497 c 0.322,-1.3171 2.2833,-3.629 0.9662,-3.9513 -4.6037,-1.1258 4.2931,14.7227 4.173,17.4257"
       id="path1001" /><path
       style="fill:none;stroke:#ffffff;stroke-width:3"
       d="m 4258.3797,3996.8433 c -0.571,1.9625 -0.9443,3.9937 -1.7132,5.8876 -3.1655,7.7978 -2.1037,-14.6273 1.7132,-5.8876 10.8164,24.7666 -19.2683,-9.7496 0,0 9.0768,4.5927 1.1112,5.6089 -0.4831,5.8481"
       id="path1003" /><path
       style="fill:none;stroke:#ffffff;stroke-width:3"
       d="m 3891.2396,4115.1084 c -1.1128,1.2906 -2.5754,2.3484 -3.3385,3.8722 -4.5447,9.0762 2.7382,12.2758 9.7078,6.994 1.2687,-0.9613 3.3417,-3.528 1.9767,-4.3466 -2.6312,-1.578 -1.1924,3.0975 -0.7466,4.0307 1.1168,2.3375 2.4873,4.5516 3.9095,6.7172 4.8868,7.4422 15.862,16.4237 13.749,26.5927 -1.3216,6.3606 -8.0608,10.4646 -14.2322,7.7843 -4.6167,-2.0047 -5.5173,-5.5816 -7.4236,-9.5623"
       id="path1005" /><path
       style="fill:none;stroke:#ffffff;stroke-width:3"
       d="m 3945.3136,4100.8833 c -3.211,0.829 2.472,-3.8417 1.1419,-4.8207 -1.33,-0.9789 -0.3527,3.3703 -1.1419,4.8207 -1.4703,2.7014 -4.6691,4.2299 -6.018,6.994 -8.3836,17.1773 -0.7239,44.137 21.3924,44.137"
       id="path1007" /><path
       style="fill:none;stroke:#ffffff;stroke-width:3"
       d="m 3976.3696,4115.4243 c -4.8001,-0.7377 -4.7033,24.8457 -7.2478,26.4745 -1.0358,0.663 -2.5159,-4.1844 -3.3385,-6.2434"
       id="path1009" /><path
       style="fill:none;stroke:#ffffff;stroke-width:3"
       d="m 3963.4992,4124.7498 c -3.7725,-11.1763 15.4773,8.2939 16.7362,9.4832 2.114,1.9979 3.9301,4.331 4.173,4.1489 0.3892,-0.2918 -0.3807,-0.8956 -0.5712,-1.3433"
       id="path1011" /><path
       style="fill:none;stroke:#ffffff;stroke-width:3"
       d="m 3976.6334,4096.2206 c 1.9618,0.4741 4.4804,-0.026 5.8861,1.4226 2.6395,2.7202 3.7029,6.6252 5.2711,10.0759 4.4145,9.715 13.0662,31.9693 4.8321,41.8454"
       id="path1013" /><path
       style="fill:none;stroke:#ffffff;stroke-width:3"
       d="m 4003.2967,4111.0383 c 0.9451,-3.2864 18.5635,-7.1668 15.0231,0.1582"
       id="path1015" /><path
       style="fill:none;stroke:#ffffff;stroke-width:3"
       d="m 4010.5447,4122.4183 c 4.6747,0.1376 9.5073,-0.9737 13.837,-2.7263"
       id="path1017" /><path
       style="fill:none;stroke:#ffffff;stroke-width:3"
       d="m 4075.0293,4064.333 c -2.4485,3.215 -8.3963,8.481 -6.1937,13.8695 1.5129,3.7007 12.6532,8.4658 14.6275,9.6017 6.3032,3.6264 11.929,6.9339 15.7258,13.5927 1.6981,2.9776 2.7162,6.4537 2.8554,9.8785 0.4207,10.3571 -13.6755,34.9416 -25.5654,33.3102"
       id="path1019" /><path
       style="fill:none;stroke:#ffffff;stroke-width:3"
       d="m 4103.0105,4047.342 c 2.0312,0.4022 10.7665,0.2199 10.4987,-4.4254 -0.3246,-5.6325 -8.9255,-5.1068 -10.6304,-0.83 -0.6488,1.6279 0.1939,3.5041 0.1317,5.2554 -0.084,2.3902 -1.8491,5.1305 -0.5709,7.1519 2.5294,4.0003 22.4078,1.0232 22.9298,-3.3586"
       id="path1025" /><path
       style="fill:none;stroke:#ffffff;stroke-width:3"
       d="m 4128.7958,4031.1807 c -0.6443,2.5289 -1.8857,4.9776 -1.9328,7.5867 -0.041,2.2651 3.0424,8.1224 5.8862,8.4955 0.8445,0.1108 1.669,-0.3424 2.5037,-0.5136"
       id="path1027" /><path
       style="fill:none;stroke:#ffffff;stroke-width:3"
       d="m 4141.4905,4033.2355 c 0.3545,2.3002 -0.4167,19.4273 -2.372,19.2037 -0.9255,-0.1056 -1.1713,-1.4489 -1.7571,-2.173"
       id="path1029" /><path
       style="fill:none;stroke:#ffffff;stroke-width:3"
       d="m 4134.9455,4037.3055 c 7.7753,-2.2023 8.1772,1.3571 12.9582,4.7022 0.7533,0.5268 -0.8025,-1.6542 -1.1859,-2.4894"
       id="path1031" /><path
       style="fill:none;stroke:#ffffff;stroke-width:3"
       d="m 4144.829,4017.3904 c 1.1713,0.2503 2.6101,-0.035 3.5142,0.7508 5.071,4.4096 17.209,31.3423 6.1936,34.7724"
       id="path1033" /><path
       style="fill:none;stroke:#ffffff;stroke-width:3"
       d="m 4107.7987,4149.1298 c -14.8132,17.8451 8.6635,8.3029 10.6302,17.7811 0.7006,3.3758 -4.5001,9.434 -5.6227,7.7052 -0.8872,-1.3663 -0.7906,-3.161 -1.1859,-4.7416"
       id="path1035" /><path
       style="fill:none;stroke:#ffffff;stroke-width:3"
       d="m 4122.3383,4150.5917 c 1.4121,-1.2753 6.8797,-16.569 2.3281,-9.7994 -1.0345,1.5391 -2.2069,3.0953 -2.6355,4.8998 -0.3781,1.592 0.2257,3.2652 0.3074,4.8996 0.1233,2.4622 -0.5762,5.0879 0.3075,7.3892 1.6012,4.1686 9.1035,7.2861 12.4754,7.9423 0.9424,0.1834 1.6983,-0.8956 2.5476,-1.3435"
       id="path1037" /><path
       style="fill:none;stroke:#ffffff;stroke-width:3"
       d="m 4140.6999,4147.4307 c 0.1328,-1.7661 0.4016,-9.1326 0,0 -0.2035,4.6215 -0.06,9.2628 -0.4834,13.8694 -0.039,0.4289 -0.4675,1.0785 -0.8784,0.9483 -0.9409,-0.2982 -1.4936,-1.2909 -2.2402,-1.9362"
       id="path1039" /><path
       style="fill:none;stroke:#ffffff;stroke-width:3"
       d="m 4134.5941,4152.0537 c 5.8894,-1.3472 9.466,4.2919 13.0461,8.1005 0.1085,0.1154 0.3281,0.5398 0.2635,0.3951 -0.1516,-0.3411 -0.3514,-0.6586 -0.527,-0.988"
       id="path1041" /><path
       style="fill:none;stroke:#ffffff;stroke-width:3"
       d="m 4144.3459,4138.4216 c 4.6291,5.697 -2.4276,-9.331 0.7027,-9.3649 2.3847,-0.026 5.9507,6.9456 6.9403,9.0487 4.3293,9.1985 9.4138,26.3891 0.7908,34.8512"
       id="path1043" /><path
       style="fill:none;stroke:#ffffff;stroke-width:3"
       d="m 4190.3371,4078.6766 c 0.3661,-1.225 2.323,-3.3089 1.0982,-3.6748 -1.225,-0.3662 -0.2968,2.6786 -1.0982,3.6748 -1.8886,2.3479 -4.8284,3.7007 -6.7207,6.0455 -6.2177,7.7041 -3.5108,19.6148 4.4804,24.4591"
       id="path1045" /><path
       style="fill:none;stroke:#ffffff;stroke-width:3"
       d="m 4177.2907,4103.2937 c -0.7292,-5.0086 21.1802,-9.1541 21.6998,-5.4134"
       id="path1047" /><path
       style="fill:none;stroke:#ffffff;stroke-width:3"
       d="m 4214.453,4056.2722 c -2.1608,4.744 -8.6304,17.0828 -5.6226,22.2859 1.1824,2.0455 -0.3548,-4.7297 -0.8787,-7.0337 -1.6106,-2.4498 -3.1789,-4.928 -4.8319,-7.3494 -0.505,-0.74 -2.391,-2.5567 -1.5813,-2.1733 6.0427,2.8609 15.0541,10.0346 18.9763,15.4499"
       id="path1049" /><path
       style="fill:none;stroke:#ffffff;stroke-width:3"
       d="m 4226.6207,4094.8773 c -0.9896,3.6081 -2.0249,23.7717 -4.9199,23.7082 -0.8666,-0.019 -1.3764,-1.0538 -2.0646,-1.5806"
       id="path1051" /><path
       style="fill:none;stroke:#ffffff;stroke-width:3"
       d="m 4211.1145,4104.4002 c 4.8363,-0.2686 9.3202,-1.1383 12.519,3.0818"
       id="path1053" /><path
       style="fill:none;stroke:#ffffff;stroke-width:3"
       d="m 4248.7597,4064.8071 c -0.024,-0.2352 -0.9353,-4.8358 0.2635,-5.6504 0.643,-0.4368 2.816,2.0233 4.876,4.8998 4.1971,5.8608 12.4354,17.5882 6.6768,24.8936 -0.7607,0.9649 -2.0225,1.7828 -3.2504,1.7386 -4.8027,-0.1728 -11.0144,-7.6457 -7.1163,-12.2098 1.0581,-1.239 3.0457,-1.1591 4.5683,-1.7385"
       id="path1055" /><path
       style="fill:none;stroke:#ffffff;stroke-width:3"
       d="m 4287.1957,4064.175 c -0.5419,3.0279 -0.031,28.4502 -6.2378,23.3527"
       id="path1057" /><path
       style="fill:none;stroke:#ffffff;stroke-width:3"
       d="m 4271.6017,4071.9197 c -5.6496,-10.9342 -0.2794,-0.2154 0,0 14.0719,10.8497 7.9137,0.7477 11.2451,6.5987"
       id="path1059" /><path
       style="fill:none;stroke:#ffffff;stroke-width:3"
       d="m 3880.4774,4234.6379 c -1.0247,2.4233 -1.9788,4.8784 -3.0747,7.2705 -0.9398,2.0508 -5.5224,7.9631 -4.7003,10.4711 0.7062,2.1537 4.7215,1.424 5.6666,1.6201 6.9744,1.4478 13.0728,4.84 12.6949,13.0791 -0.1674,3.6481 -5.0122,13.5961 -10.5426,11.222 -4.519,-1.9401 -3.6867,-8.9902 -3.9534,-12.1703"
       id="path1061" /><path
       style="fill:none;stroke:#ffffff;stroke-width:3"
       d="m 3900.1127,4256.8446 c 0.6151,1.383 0.4619,4.7638 1.8449,4.149 1.383,-0.6149 -1.4562,-2.6861 -1.8449,-4.149 -0.7316,-2.7538 -1.6404,-5.571 -1.4933,-8.4164 0.3992,-7.7234 9.7258,-3.5999 10.6301,4.0698 0.9253,7.8481 -4.1388,15.2684 -12.519,7.9423 -1.3475,-1.1779 -1.2007,-3.3718 -1.801,-5.0578"
       id="path1063" /><path
       style="fill:none;stroke:#ffffff;stroke-width:3"
       d="m 3920.8901,4304.5773 c -4.3703,5.9251 -13.6482,16.9976 -7.4236,24.6568 1.6325,2.0084 12.5944,9.2824 14.1446,10.5106 9.0802,7.1953 22.6391,17.4476 19.8549,31.2951 -1.8995,9.4467 -24.9436,34.4655 -26.0488,11.1033"
       id="path1065" /><path
       style="fill:none;stroke:#ffffff;stroke-width:3"
       d="m 3962.0498,4406.9417 c 1.1906,-3.0758 1.5616,-3.2779 1.9328,-5.5319 0.3175,-1.9272 -1.3436,3.6698 -1.9328,5.5319 -1.0414,3.2919 -2.0495,6.5953 -2.9869,9.9182 -1.0009,3.547 -1.2409,13.3847 -3.3385,4.1489"
       id="path1067" /><path
       style="fill:none;stroke:#ffffff;stroke-width:3"
       d="m 3953.4842,4408.4432 c 4.4601,5.879 10.033,10.7619 14.8031,16.3589"
       id="path1069" /><path
       style="fill:none;stroke:#ffffff;stroke-width:3"
       d="m 3975.8428,4420.2185 c -1.2152,2.6736 -3.097,5.1361 -3.646,8.0214 -0.948,4.9847 14.7781,3.7835 13.0903,-3.3192 -0.2429,-1.0227 -0.7721,-2.1792 -1.7132,-2.6475 -2.3871,-1.1885 -5.1541,-1.37 -7.7311,-2.0547 z"
       id="path1071" /><path
       style="fill:none;stroke:#ffffff;stroke-width:3"
       d="m 3974.7448,4415.2001 c -0.059,1.4753 -0.4705,2.979 -0.1757,4.4257 1.8912,9.2829 6.6984,17.7914 8.3899,27.2251"
       id="path1073" /><path
       style="fill:none;stroke:#ffffff;stroke-width:3"
       d="m 3949.3551,4268.0111 c -5.61,13.0119 -5.3917,10.2227 -7.3798,19.4802 -0.123,0.5731 -0.1153,2.3056 -0.2635,1.7386 -0.2601,-0.9943 -0.059,-2.0548 -0.088,-3.0821"
       id="path1075" /><path
       style="fill:none;stroke:#ffffff;stroke-width:3"
       d="m 3938.549,4272.2786 c 6.7064,0.4953 10.6346,7.0125 13.3538,12.5653"
       id="path1077" /><path
       style="fill:none;stroke:#ffffff;stroke-width:3"
       d="m 3957.6133,4286.4245 c 0.2346,4.5461 2.0428,9.2977 1.4935,13.9089"
       id="path1079" /><path
       style="fill:none;stroke:#ffffff;stroke-width:3"
       d="m 3995.0388,4313.9261 c -4.7048,1.3398 -11.2786,13.8123 -5.2713,16.4378 5.1062,2.2315 18.1764,-3.0703 12.3876,-9.9971 -0.9277,-1.1099 -4.4046,-2.9805 -4.0413,-1.5806 0.6705,2.5853 4.9961,7.9711 5.7984,9.1279 4.3661,6.2957 9.5609,12.3989 9.0048,20.6261 -0.6929,10.2563 -11.8229,14.1563 -12.3433,-0.3556"
       id="path1081" /><path
       style="fill:none;stroke:#ffffff;stroke-width:3"
       d="m 4026.6661,4308.8289 c 0.454,-1.1327 2.4945,-2.9443 1.3618,-3.3983 -1.1327,-0.4538 -1.0848,2.2098 -1.3618,3.3983 -0.8692,3.7293 -1.9587,7.4732 -2.0646,11.3009 -0.1206,4.3725 3.2642,11.2858 8.3021,11.9332 1.2182,0.1564 2.3429,-0.7376 3.5142,-1.1065"
       id="path1083" /><path
       style="fill:none;stroke:#ffffff;stroke-width:3"
       d="m 4043.0509,4314.1632 c -0.5712,2.5027 -1.4107,4.9585 -1.7132,7.5075 -0.2137,1.8018 1.3997,13.511 -1.4057,15.0945 -1.4555,0.8215 -9.2551,-14.75 -7.1162,-16.0822 3.4785,-2.1661 10.0653,2.0799 12.9146,3.7539 1.4599,0.8575 2.8638,1.8093 4.2608,2.766 0.5665,0.3876 1.3279,1.883 1.6253,1.2644 0.4157,-0.8649 -0.6149,-1.8177 -0.9223,-2.7265"
       id="path1085" /><path
       style="fill:none;stroke:#ffffff;stroke-width:3"
       d="m 4049.2885,4291.087 c 1.7862,1.0144 4.0873,1.4295 5.3591,3.0427 7.3041,9.2636 13.3644,38.458 6.8525,48.918"
       id="path1087" /><path
       style="fill:none;stroke:#ffffff;stroke-width:3"
       d="m 4091.634,4298.081 c 1.9328,1.8441 4.196,3.3946 5.7983,5.5319 4.2979,5.7335 4.1442,20.1221 -2.7236,24.1827 -4.9832,2.9461 -6.1831,-1.3203 -5.8423,-4.386 0.7194,-6.4718 4.508,-12.473 10.2349,-15.5292"
       id="path1089" /><path
       style="fill:none;stroke:#ffffff;stroke-width:3"
       d="m 4116.5403,4297.2513 c 0.3368,1.3435 1.0104,2.6453 1.0104,4.0304 0,6.5735 -1.2041,13.0921 -1.801,19.6384 -0.2371,2.5987 -0.495,5.1969 -0.8348,7.7843 -0.1,0.7612 0.042,2.8128 -0.4831,2.2521 -0.8805,-0.9406 -0.598,-2.5066 -0.9223,-3.7536 -0.3199,-1.2295 -0.6737,-2.4501 -1.0105,-3.6748"
       id="path1091" /><path
       style="fill:none;stroke:#ffffff;stroke-width:3"
       d="m 4108.1503,4305.2329 c -0.4101,-1.1853 -0.044,-3.9661 -1.23,-3.5562 -1.1854,0.4101 0.39,2.6249 1.23,3.5562 3.4592,3.8357 7.8687,6.722 11.421,10.4715 27.4987,29.0237 4.1368,6.7926 14.364,16.4377"
       id="path1093" /><path
       style="fill:none;stroke:#ffffff;stroke-width:3"
       d="m 4199.499,4310.2587 c 3.6674,-1.1605 18.5214,-7.6197 21.4363,-5.4925 0.5093,0.372 -0.4979,1.1592 -0.7469,1.7386"
       id="path1095" /><path
       style="fill:none;stroke:#ffffff;stroke-width:3"
       d="m 4204.9458,4321.8758 c 8.423,0.7453 16.9679,-0.3945 25.5214,0.1185"
       id="path1097" /><path
       style="fill:none;stroke:#ffffff;stroke-width:3"
       d="m 4305.4943,4239.0943 c -2.8453,3.4126 -7.3398,8.2745 -9.049,12.4864 -1.8516,4.563 -3.4624,9.2864 -4.2609,14.146 -1.4057,8.5558 7.3158,18.7216 10.894,25.3677 10.2949,19.122 26.0673,43.0488 9.4443,63.4198 -3.8259,4.6885 -9.3734,9.0226 -15.1987,10.8665"
       id="path1099" /><path
       style="fill:none;stroke:#ffffff;stroke-width:3"
       d="m 4328.9951,4367.7119 c 1.0396,-2.463 2.0791,-4.926 3.1189,-7.389 0.088,-0.2635 0.3935,-1.0358 0.2636,-0.7903 -4.857,9.1747 -7.2324,19.1196 -9.7957,29.0031 -0.1688,0.6501 -0.29,-1.3123 -0.3956,-1.9757"
       id="path1101" /><path
       style="fill:none;stroke:#ffffff;stroke-width:3"
       d="m 4318.892,4371.7817 c 6.6029,1.2703 10.7222,6.2143 14.7593,11.143"
       id="path1103" /><path
       style="fill:none;stroke:#ffffff;stroke-width:3"
       d="m 4343.7986,4385.7697 c -2.2495,3.4632 -5.5121,6.0899 -4.876,10.4318 0.8392,5.7287 12.9394,-0.4988 12.2115,-5.532 -0.119,-0.8241 -0.6691,-1.6319 -1.3615,-2.0944 -1.8296,-1.2218 -3.8733,-3.4581 -5.974,-2.8054 -5.7928,1.7995 -9.0856,12.6812 -3.3825,5.1369"
       id="path1105" /><path
       style="fill:none;stroke:#ffffff;stroke-width:3"
       d="m 4342.3489,4379.9216 c -0.4247,-1.3303 0.056,-4.4153 -1.274,-3.9907 -1.3303,0.4244 1.0581,2.6112 1.274,3.9907 1.5044,9.6208 2.3614,19.6753 2.5477,29.3984"
       id="path1107" /><path
       style="fill:none;stroke:#ffffff;stroke-width:3"
       d="m 4314.8947,4205.784 c -0.8054,2.2786 -1.6158,4.5556 -2.4162,6.836 -1.0414,2.9684 -3.6669,10.4236 -4.5244,13.3951 -0.522,1.809 -0.9504,3.646 -1.3176,5.4925 -0.059,0.2974 -0.037,1.2009 0.044,0.9088 0.1813,-0.6527 0.1757,-1.3435 0.2636,-2.0153"
       id="path1109" /><path
       style="fill:none;stroke:#ffffff;stroke-width:3"
       d="m 4302.024,4215.8996 c 6.568,3.8092 16.2388,7.3945 19.1082,15.0153"
       id="path1111" /><path
       style="fill:none;stroke:#ffffff;stroke-width:3"
       d="m 4330.1371,4234.6291 c 1.633,5.9593 2.5048,12.228 2.2405,18.4135"
       id="path1113" /><path
       style="fill:none;stroke:#ffffff;stroke-width:3"
       d="m 4375.6136,4219.5304 c -3.7676,8.2437 -5.6345,15.4853 -4.832,24.6962 1.0726,12.3103 6.7026,25.0603 13.1781,35.4045 3.2236,5.1501 7.217,9.7448 9.7078,15.3315 3.2705,7.3351 4.8845,16.1422 4.7,24.1824 -0.3153,13.7655 -5.9314,24.9005 -17.0434,33.4682 -2.2751,1.7542 -12.5817,9.7925 -11.6845,1.8574"
       id="path1117" /><path
       style="fill:none;stroke:#ffffff;stroke-width:3"
       d="m 4392.2618,4196.5334 c 2.6064,-0.092 5.2501,0.1725 7.8189,-0.2765 2.7631,-0.4829 4.0127,-5.4031 -1.9328,-5.7296 -4.6545,-0.2555 -16.1266,5.5833 -12.7386,10.9453 1.4454,2.2879 3.9823,3.7894 6.4132,4.979 1.4153,0.6924 19.6356,4.7027 17.2633,0.4344"
       id="path1119" /><path
       style="fill:none;stroke:#ffffff;stroke-width:3"
       d="m 4419.7599,4174.9984 c -5.7589,7.8589 -7.3001,18.6791 -1.3176,26.988 0.7466,1.0372 1.5967,2.2091 2.8112,2.6078 0.898,0.295 1.8155,-0.5268 2.7233,-0.7901"
       id="path1121" /><path
       style="fill:none;stroke:#ffffff;stroke-width:3"
       d="m 4430.1707,4185.1534 c -0.1026,-1.0933 0.7856,-3.3822 -0.3077,-3.2795 -1.093,0.1024 0.5879,2.218 0.3077,3.2795 -0.6519,2.4683 -2.3722,4.567 -3.031,7.0334 -1.4883,5.5735 0.5106,19.9499 -2.943,5.611"
       id="path1123" /><path
       style="fill:none;stroke:#ffffff;stroke-width:3"
       d="m 4422.088,4190.1323 c -0.4099,0.3821 9.9221,16.4468 9.9713,12.763 0.026,-1.9415 -0.2926,-3.8725 -0.4392,-5.8087"
       id="path1125" /><path
       style="fill:none;stroke:#ffffff;stroke-width:3"
       d="m 4431.5762,4172.0348 c 1.2591,-0.2897 2.7517,-1.6544 3.7777,-0.8691 1.7852,1.3657 2.2061,3.9378 2.9872,6.0454 3.6287,9.793 8.0012,26.3348 0.527,35.4441"
       id="path1127" /><path
       style="fill:none;stroke:#ffffff;stroke-width:3"
       d="m 4404.5173,4368.4189 c -14.264,15.4596 11.4612,6.1224 9.6199,24.3406 -0.6612,6.5431 -10.2875,11.6514 -12.2555,1.62"
       id="path1129" /><path
       style="fill:none;stroke:#ffffff;stroke-width:3"
       d="m 4426.2612,4363.0449 c 0.4832,-1.5674 0.9663,-3.1348 1.4494,-4.7021 -0.016,-0.3556 0.061,-1.4071 -0.044,-1.0668 -0.5831,1.8915 -0.526,3.996 -1.4055,5.7689 -2.0066,4.045 -5.3832,7.3478 -7.1601,11.4986 -2.7025,6.3121 0.7675,13.5987 5.974,17.1489 2.1381,1.4581 4.2392,2.218 6.4133,1.0274"
       id="path1131" /><path
       style="fill:none;stroke:#ffffff;stroke-width:3"
       d="m 4435.7931,4371.659 c 0.038,2.437 -0.2849,17.6929 -3.6018,17.5837 -0.8384,-0.028 -1.4351,-0.8695 -2.1526,-1.3039"
       id="path1133" /><path
       style="fill:none;stroke:#ffffff;stroke-width:3"
       d="m 4428.5454,4377.5465 c 5.502,1.3591 9.0384,5.3932 13.5295,8.4561 0.9969,0.6799 3.2641,2.0497 3.5139,0.8691 0.2543,-1.2004 -0.1463,-2.4498 -0.2196,-3.6748"
       id="path1135" /><path
       style="fill:none;stroke:#ffffff;stroke-width:3"
       d="m 4440.1421,4348.5434 c 1.098,0.1579 2.541,-0.3405 3.2943,0.4741 5.4705,5.9161 11.1376,23.8466 11.2014,31.0579 0.047,5.2707 -1.1597,10.5489 -2.7673,15.5686 -0.4783,1.4936 -2.1963,2.2391 -3.2946,3.3586"
       id="path1137" /><path
       style="fill:none;stroke:#ffffff;stroke-width:3"
       d="m 4459.382,4251.4183 c -13.4559,7.349 -11.6887,23.2053 -7.907,35.8785 0.089,0.2966 3.0464,8.3847 2.8114,8.8906 -0.3148,0.6778 -1.4935,0.053 -2.2402,0.079"
       id="path1139" /><path
       style="fill:none;stroke:#ffffff;stroke-width:3"
       d="m 4441.9431,4284.9656 c 6.8667,-5.4642 13.6864,-7.4827 22.0072,-5.0578"
       id="path1141" /><path
       style="fill:none;stroke:#ffffff;stroke-width:3"
       d="m 4486.8871,4247.0032 c -4.2977,8.3153 -10.582,25.0409 -5.1835,33.9029 3.2705,5.3689 8.287,8.9561 13.3099,12.3679"
       id="path1143" /><path
       style="fill:none;stroke:#ffffff;stroke-width:3"
       d="m 4504.194,4259.3711 c 2.2323,-5.6684 2.305,-7.4014 0,0 -0.6668,2.1413 -6.3807,21.2209 -7.6869,21.4559 -1.0488,0.1886 -1.7132,-12.2142 -2.0207,-14.8177 -0.1614,-1.3666 -0.3034,-2.2411 -0.7469,-3.4375 -0.042,-0.1132 -0.2365,-0.4204 -0.1757,-0.3162 4.9419,8.4458 17.7348,11.7607 25.4336,17.8208"
       id="path1145" /><path
       style="fill:none;stroke:#ffffff;stroke-width:3"
       d="m 4534.855,4278.8119 c -0.1037,1.4105 -6.1005,24.6904 -2.0206,9.2067"
       id="path1147" /><path
       style="fill:none;stroke:#ffffff;stroke-width:3"
       d="m 4544.8263,4255.5381 c 0.5125,-1.1853 2.7231,-3.0438 1.5375,-3.5563 -1.1853,-0.5125 -1.4692,2.2667 -1.5375,3.5563 -0.172,3.2607 1.0015,6.499 0.8348,9.76 -0.1159,2.2693 -2.3215,10.0173 -3.5142,12.605 -0.2461,0.5336 -0.6464,1.5364 -1.1861,1.3038 -1.0033,-0.4323 -1.2886,-1.765 -1.9328,-2.6474"
       id="path1149" /><path
       style="fill:none;stroke:#ffffff;stroke-width:3"
       d="m 4534.6793,4265.1401 c 5.7118,1.2737 9.6552,4.7585 13.9247,8.4164"
       id="path1151" /><path
       style="fill:none;stroke:#ffffff;stroke-width:3"
       d="m 4544.2554,4235.9394 c 1.7131,0.1317 3.6705,-0.4964 5.1395,0.395 2.0296,1.2322 9.376,14.1298 9.6639,14.6992 5.3226,10.5336 8.4047,20.4726 5.8423,32.2828 -1.6042,7.3928 -0.9115,6.548 -5.0957,7.9029"
       id="path1153" /><path
       style="fill:none;stroke:#ffffff;stroke-width:3"
       d="m 4581.0221,4246.7661 c 9.8192,0.5429 14.4431,23.1341 4.4366,25.526 -1.0605,0.2534 -2.2987,-0.2691 -3.1187,-0.988 -5.561,-4.8728 1.3168,-12.7323 4.6122,-16.5166"
       id="path1155" /><path
       style="fill:none;stroke:#ffffff;stroke-width:3"
       d="m 4600.4817,4244.3163 c -2.3003,10.0095 5.3409,-8.7902 5.5787,-6.5592 0.535,5.0191 -1.9801,16.17 -2.8114,20.5867 -0.5853,3.1099 -1.3536,6.1841 -2.1524,9.2461 -0.097,0.3725 -0.1918,1.2165 -0.5271,1.0274 -0.9533,-0.5385 -2.0156,-3.7788 -2.328,-4.5837"
       id="path1157" /><path
       style="fill:none;stroke:#ffffff;stroke-width:3"
       d="m 4594.8151,4239.4559 c -1.2007,0.079 -3.6809,-0.9636 -3.602,0.2371 0.079,1.2007 3.153,-1.3533 3.602,-0.2371 1.0091,2.5088 -0.9303,5.4412 -0.4392,8.1005 0.3868,2.0961 4.2431,4.6379 5.9301,5.8875"
       id="path1161" /><path
       style="fill:none;stroke:#ffffff;stroke-width:3"
       d="m 4643.5739,4222.8602 c -0.2781,9.5967 9.372,16.2393 10.1909,25.4468 0.758,8.5223 -8.1896,14.8241 -16.0332,11.1827 -5.1639,-2.3977 -6.7731,-8.4723 -2.2402,-12.2889 2.0748,-1.7473 5.9914,-2.4767 8.6095,-3.1215"
       id="path1163" /><path
       style="fill:none;stroke:#ffffff;stroke-width:3"
       d="m 4667.2504,4228.1945 c 6.8886,-8.8014 0.1487,-0.9422 0,0 -0.6348,4.0269 0.9231,8.1391 0.7027,12.21 -0.1347,2.4894 -0.935,4.9165 -1.7568,7.2705 -2.5252,7.231 -2.7845,8.2375 -5.7105,3.4377"
       id="path1165" /><path
       style="fill:none;stroke:#ffffff;stroke-width:3"
       d="m 4655.9172,4237.4409 c -0.1648,-0.5004 -2.0304,-5.8719 -1.9767,-6.7175 0.021,-0.3424 0.7051,0.1333 0.9665,0.3556 1.646,1.4004 3.1435,2.9662 4.7001,4.4651 6.6315,6.386 13.1342,12.823 19.2399,19.7175"
       id="path1167" /></g></svg>
