<?xml version="1.0" encoding="UTF-8" standalone="no"?>
<!-- Created with Inkscape (http://www.inkscape.org/) -->

<svg
   width="1606.5187mm"
   height="1379.761mm"
   viewBox="0 0 1606.5186 1379.7611"
   version="1.1"
   id="svg12"
   inkscape:version="1.2.1 (9c6d41e410, 2022-07-14, custom)"
   sodipodi:docname="j_unit_derivative.svg"
   xmlns:inkscape="http://www.inkscape.org/namespaces/inkscape"
   xmlns:sodipodi="http://sodipodi.sourceforge.net/DTD/sodipodi-0.dtd"
   xmlns="http://www.w3.org/2000/svg"
   xmlns:svg="http://www.w3.org/2000/svg">
  <sodipodi:namedview
     id="namedview14"
     pagecolor="#505050"
     bordercolor="#eeeeee"
     borderopacity="1"
     inkscape:showpageshadow="0"
     inkscape:pageopacity="0"
     inkscape:pagecheckerboard="0"
     inkscape:deskcolor="#505050"
     inkscape:document-units="mm"
     showgrid="true"
     inkscape:zoom="0.13255831"
     inkscape:cx="4888.4148"
     inkscape:cy="10900.863"
     inkscape:window-width="1366"
     inkscape:window-height="746"
     inkscape:window-x="0"
     inkscape:window-y="0"
     inkscape:window-maximized="1"
     inkscape:current-layer="layer1"
     inkscape:lockguides="false"
     showguides="true">
    <inkscape:grid
       type="xygrid"
       id="grid344"
       color="#969696"
       opacity="0.39215686"
       empcolor="#000000"
       empopacity="0.17254902"
       dotted="false"
       originx="-140.89519"
       originy="160.76124" />
    <sodipodi:guide
       position="132.95567,1213.0062"
       orientation="0,-1"
       id="guide2196"
       inkscape:locked="false" />
  </sodipodi:namedview>
  <defs
     id="defs9" />
  <g
     inkscape:label="Layer 1"
     inkscape:groupmode="layer"
     id="layer1"
     transform="translate(-245.8952,12.261175)">
    <path
       style="fill:none;stroke:#ffffff;stroke-width:1.5;stroke-dasharray:none"
       d="m 372.08165,124.32797 c -19.27358,4.96433 -25.93064,24.41932 -18.58479,42.01853 1.52412,3.65147 12.41814,19.0194 12.10501,22.61054 -0.14303,1.6404 -3.35193,0.0108 -4.9132,-0.51241"
       id="path7537" />
    <path
       style="fill:none;stroke:#ffffff;stroke-width:1.5;stroke-dasharray:none"
       d="m 341.67669,174.03281 c 11.06943,-6.31834 22.59332,-4.51614 34.03646,-4.73989"
       id="path7539" />
    <path
       style="fill:none;stroke:#ffffff;stroke-width:1.5;stroke-dasharray:none"
       d="m 435.52616,102.10171 c -3.58404,4.46234 -8.09961,8.31533 -10.75211,13.38703 -10.32708,19.74585 -10.07526,59.80197 7.54784,75.83827 5.47268,4.97991 13.21913,8.75971 20.64975,7.04577"
       id="path7541" />
    <path
       style="fill:none;stroke:#ffffff;stroke-width:1.5;stroke-dasharray:none"
       d="m 482.16609,128.23518 c -5.70073,9.70911 -6.77134,20.45722 -9.18557,31.12955 -0.31397,1.38796 -0.45511,4.85998 -1.56653,3.97129 -2.29315,-1.83357 -3.15897,-4.95225 -4.62837,-7.49417"
       id="path7543" />
    <path
       style="fill:none;stroke:#ffffff;stroke-width:1.5;stroke-dasharray:none"
       d="m 459.73621,138.09928 c 15.18824,8.5915 29.31404,19.71733 40.08896,33.56357"
       id="path7545" />
    <path
       style="fill:none;stroke:#ffffff;stroke-width:1.5;stroke-dasharray:none"
       d="m 525.10329,160.70987 c -1.98146,-0.292 -6.57865,32.10164 -2.34981,20.68899"
       id="path7547" />
    <path
       style="fill:none;stroke:#ffffff;stroke-width:1.5;stroke-dasharray:none"
       d="m 546.46512,142.07054 c -6.7123,6.8958 -2.25489,20.12106 -6.90698,27.86289 -0.61325,1.02056 -1.70542,-1.689 -2.34979,-2.6902"
       id="path7549" />
    <path
       style="fill:none;stroke:#ffffff;stroke-width:1.5;stroke-dasharray:none"
       d="m 526.81226,149.43658 c 2.97241,3.42797 16.54644,16.48767 19.43921,10.63274"
       id="path7551" />
    <path
       style="fill:none;stroke:#ffffff;stroke-width:1.5;stroke-dasharray:none"
       d="m 555.29466,80.06762 c 6.24239,4.355584 13.63573,7.408505 18.72718,13.066755 19.56874,21.747245 24.92441,74.147365 18.51353,101.587425 -0.91617,3.92143 -2.8957,7.5155 -4.34356,11.27325"
       id="path7553" />
    <path
       style="fill:none;stroke:#ffffff;stroke-width:1.5;stroke-dasharray:none"
       d="m 650.14101,144.88887 c 7.08512,0.81817 20.40967,-4.3206 26.20383,2.04969"
       id="path7555" />
    <path
       style="fill:none;stroke:#ffffff;stroke-width:1.5;stroke-dasharray:none"
       d="m 647.79122,168.39615 c 11.25326,1.84494 22.13557,-3.14075 33.18203,-3.52289"
       id="path7557" />
    <path
       style="fill:none;stroke:#ffffff;stroke-width:1.5;stroke-dasharray:none"
       d="M 756.23797,16.911764 C 749.394,26.903 731.512,43.718244 739.29096,57.713258 c 6.8648,12.350331 20.87126,7.659756 32.11388,5.444487 2.37583,-0.468135 5.81909,-3.019613 7.19183,-1.024827 2.1695,3.152609 -2.67706,7.270824 -4.91321,10.376517 -8.00936,11.123813 -29.18984,29.716095 -28.62482,43.876035 0.0915,2.29322 6.64784,1.80869 13.17307,2.36992 26.26056,2.25868 25.8693,18.48331 16.16374,40.03288 -9.49682,21.08603 -24.94134,39.59201 -37.66796,58.67217 -5.24748,7.86717 -24.33111,32.89736 -21.64662,45.22118 4.66318,21.40752 79.5474,-3.43675 92.92381,-10.31248"
       id="path7559" />
    <path
       style="fill:none;stroke:#ffffff;stroke-width:1.5;stroke-dasharray:none"
       d="m 888.89474,25.366702 c -4.12576,10.741017 -8.49281,21.489487 -11.74901,32.538736 -2.80519,9.51889 -2.94251,21.82074 -0.49848,-0.512413"
       id="path7561" />
    <path
       style="fill:none;stroke:#ffffff;stroke-width:1.5;stroke-dasharray:none"
       d="m 883.12701,34.910532 c 9.58101,9.823244 12.96487,12.966105 21.14822,22.290312 3.88244,4.42372 5.09654,6.715483 5.34038,5.892853 0.30998,-1.045765 -0.61712,-2.092378 -0.92567,-3.138567"
       id="path7563" />
    <path
       style="fill:none;stroke:#ffffff;stroke-width:1.5;stroke-dasharray:none"
       d="m 930.19416,-5.8909638 c -0.26109,2.1350882 -0.424,4.2844862 -0.78325,6.40526474 -0.401,2.36718316 -1.05286,4.68601026 -1.49534,7.04579166 -2.266,12.0847114 15.28336,-6.64994484 22.42989,1.9215795"
       id="path7565" />
    <path
       style="fill:none;stroke:#ffffff;stroke-width:1.5;stroke-dasharray:none"
       d="m 978.4006,25.430747 c -8.25544,8.313132 -9.51319,17.961247 -10.75208,29.015854 -0.21717,1.937882 0.4576,4.129212 -0.49847,5.828763 -0.41582,0.739179 -1.66146,-0.341609 -2.49219,-0.512414"
       id="path7567" />
    <path
       style="fill:none;stroke:#ffffff;stroke-width:1.5;stroke-dasharray:none"
       d="m 952.33925,33.629478 c 4.39301,4.061362 19.49964,10.114267 16.59102,18.255017"
       id="path7569" />
    <path
       style="fill:none;stroke:#ffffff;stroke-width:1.5;stroke-dasharray:none"
       d="m 838.5521,91.853323 c 6.52721,-0.918096 13.01519,-2.180428 19.58162,-2.754286 18.05578,-1.577946 36.22098,-1.430176 54.33018,-2.177785 35.53566,-1.467035 71.07674,-4.012367 106.5953,-5.316352"
       id="path7571" />
    <path
       style="fill:none;stroke:#ffffff;stroke-width:1.5;stroke-dasharray:none"
       d="m 875.22313,129.00382 c -0.28482,1.83618 -0.48567,3.68737 -0.85447,5.50853 -1.22571,6.05245 -3.34314,14.60807 -4.9132,20.68899 -1.29916,5.03164 -2.39803,10.12821 -4.05874,15.05236 -0.10747,0.31867 -0.46151,1.15112 -0.56967,0.83269 -0.85257,-2.50988 -1.18677,-5.16691 -1.78015,-7.75037"
       id="path7573" />
    <path
       style="fill:none;stroke:#ffffff;stroke-width:1.5;stroke-dasharray:none"
       d="m 864.89833,144.76078 c 2.39815,-10.38583 15.34186,22.1613 19.1544,16.90987 0.66614,-0.91753 0.1424,-2.26319 0.2136,-3.39479"
       id="path7575" />
    <path
       style="fill:none;stroke:#ffffff;stroke-width:1.5;stroke-dasharray:none"
       d="m 899.43322,113.69523 c -0.56964,3.24534 -0.92006,6.53689 -1.70894,9.73601 -0.66297,2.68857 -1.69664,5.27307 -2.63467,7.87846 -1.84428,5.12248 -1.76424,4.09108 3.06187,1.3451 2.70682,-1.54015 18.46601,-12.16537 22.14509,-7.23791 0.65135,0.87236 0.42725,2.13507 0.64087,3.20261"
       id="path7577" />
    <path
       style="fill:none;stroke:#ffffff;stroke-width:1.5;stroke-dasharray:none"
       d="m 929.62459,127.08222 c 7.29858,8.81331 16.16017,26.22713 6.33725,36.83026"
       id="path7579" />
    <path
       style="fill:none;stroke:#ffffff;stroke-width:1.5;stroke-dasharray:none"
       d="m 929.83816,153.53597 c 9.45071,-9.0724 22.18111,-7.29597 33.18195,-12.16999"
       id="path7581" />
    <path
       style="fill:none;stroke:#ffffff;stroke-width:1.5;stroke-dasharray:none"
       d="m 975.83719,126.12144 c 3.88572,4.0563 8.53779,36.36353 -1.28164,33.05115"
       id="path7583" />
    <path
       style="fill:none;stroke:#ffffff;stroke-width:1.5;stroke-dasharray:none"
       d="m 963.66099,135.98554 c 6.20268,-2.67074 13.06766,2.00023 19.08323,-0.57646"
       id="path7585" />
    <path
       style="fill:none;stroke:#ffffff;stroke-width:1.5;stroke-dasharray:none"
       d="m 996.27337,97.169675 c 9.05643,-5.962689 13.51753,-8.040142 11.89143,6.917675 -0.6343,5.83385 -4.3145,11.86039 -7.1207,16.84583 -0.7307,1.29821 -3.24192,3.81248 -1.78007,4.09939 6.27927,1.23241 27.53977,-7.64487 27.27187,4.16339"
       id="path7587" />
    <path
       style="fill:none;stroke:#ffffff;stroke-width:1.5;stroke-dasharray:none"
       d="m 943.93691,222.45656 c -8.98409,-1.53428 -28.43922,17.23126 -17.80149,25.23674 8.78557,6.61162 35.95608,-3.10902 33.89411,-15.11641 -1.73144,-10.08261 -24.2596,0.81071 -28.69602,2.75425 -5.65865,2.47897 -5.85399,2.71329 -1.8514,-4.35558 1.5339,-2.70899 3.3219,-5.26686 4.91318,-7.94254 1.49482,-2.51342 2.89576,-5.08149 4.34361,-7.62223"
       id="path7589" />
    <path
       style="fill:none;stroke:#ffffff;stroke-width:1.5;stroke-dasharray:none"
       d="m 945.50345,204.07345 c 0.56965,-1.79346 3.5024,-4.81075 1.70892,-5.3804 -1.79345,-0.56964 -1.6355,3.50008 -1.70892,5.3804 -0.23855,6.10728 0.391,12.21973 0.78325,18.31907 1.12001,17.41475 3.454,35.17283 1.21055,52.07476"
       id="path7591" />
    <path
       style="fill:none;stroke:#ffffff;stroke-width:1.5;stroke-dasharray:none"
       d="m 1083.2871,211.69572 c -7.0986,-4.29343 7.3197,-19.58628 11.6777,-13.38699 1.8748,2.6669 -2.0788,14.31248 -4.7708,15.30859 -2.2412,0.82932 -4.6046,-1.28106 -6.9069,-1.9216 z"
       id="path7593" />
    <path
       style="fill:none;stroke:#ffffff;stroke-width:1.5;stroke-dasharray:none"
       d="m 1082.8598,231.93635 c -1.5005,9.94293 0.2702,19.84709 1.9226,29.65636"
       id="path7595" />
    <path
       style="fill:none;stroke:#ffffff;stroke-width:1.5;stroke-dasharray:none"
       d="m 1090.8349,203.81727 c -0.9732,-2.75426 -2.7405,-5.34714 -2.9195,-8.26278 -0.3972,-6.47116 13.8374,2.24477 10.3249,11.40134 -0.6047,1.57646 -1.5072,4.69417 -3.0618,4.0353 -4.9339,-2.0911 -5.8912,-14.41397 -4.2012,-17.61447 0.7452,-1.41128 3.9381,1.15848 3.9163,2.75429 -0.04,2.8971 -2.7058,5.12421 -4.0587,7.68632 z"
       id="path7597" />
    <path
       style="fill:none;stroke:#ffffff;stroke-width:1.5;stroke-dasharray:none"
       d="m 1146.518,198.56496 c -14.7009,10.61738 -16.4319,21.9397 -14.0276,39.00801 0.707,5.01945 4.165,12.35658 3.3467,12.93862 -0.8724,0.62043 -2.0887,0.46973 -3.1331,0.7046"
       id="path7599" />
    <path
       style="fill:none;stroke:#ffffff;stroke-width:1.5;stroke-dasharray:none"
       d="m 1116.3979,241.48018 c 9.9218,-5.21134 22.1043,-7.73571 33.3244,-6.78959"
       id="path7601" />
    <path
       style="fill:none;stroke:#ffffff;stroke-width:1.5;stroke-dasharray:none"
       d="m 1230.8971,183.57665 c -21.9968,14.70417 -24.7529,47.04285 -6.1237,65.84607 6.216,6.27404 5.4086,5.47589 11.5353,5.57257"
       id="path7603" />
    <path
       style="fill:none;stroke:#ffffff;stroke-width:1.5;stroke-dasharray:none"
       d="m 1259.9492,219.89445 c 1.8513,-2.30589 7.8599,-5.06632 5.554,-6.91767 -2.3059,-1.85136 -4.5361,4.14125 -5.554,6.91767 -0.025,0.0675 -3.5346,33.52205 -10.4674,15.18046"
       id="path7605" />
    <path
       style="fill:none;stroke:#ffffff;stroke-width:1.5;stroke-dasharray:none"
       d="m 1245.4943,215.73102 c 0.031,10.0884 25.8688,15.84827 30.761,25.74916"
       id="path7607" />
    <path
       style="fill:none;stroke:#ffffff;stroke-width:1.5;stroke-dasharray:none"
       d="m 1291.0661,241.7364 c -1.0886,0.50185 -11.1377,21.95588 -3.3467,16.39746"
       id="path7609" />
    <path
       style="fill:none;stroke:#ffffff;stroke-width:1.5;stroke-dasharray:none"
       d="m 1316.5579,215.47484 c 1.0918,-2.19914 2.3068,-4.3413 3.2754,-6.59741 0.366,-0.85238 1.1392,-1.8668 0.7121,-2.69024 -0.349,-0.67282 -2.3243,3.94139 -3.9875,9.28765 -1.6736,5.37938 -2.4583,11.02453 -4.3436,16.33341 -1.023,2.88074 -0.8092,2.53438 -2.7058,2.43397"
       id="path7611" />
    <path
       style="fill:none;stroke:#ffffff;stroke-width:1.5;stroke-dasharray:none"
       d="m 1300.3941,217.97289 c 4.3326,1.74796 8.2791,4.23497 12.4611,6.27714"
       id="path7613" />
    <path
       style="fill:none;stroke:#ffffff;stroke-width:1.5;stroke-dasharray:none"
       d="m 1319.9046,169.48506 c 15.6068,19.61849 24.2667,53.9066 7.975,75.71018"
       id="path7615" />
    <path
       style="fill:none;stroke:#ffffff;stroke-width:1.5;stroke-dasharray:none"
       d="m 1380.7857,198.30873 c 1.9663,0.002 21.9534,-7.85439 18.7984,-2.17778"
       id="path7617" />
    <path
       style="fill:none;stroke:#ffffff;stroke-width:1.5;stroke-dasharray:none"
       d="m 1381.3553,209.45389 c 8.1473,2.94084 16.9021,1.69283 25.2781,0.57646"
       id="path7619" />
    <path
       style="fill:none;stroke:#ffffff;stroke-width:1.5;stroke-dasharray:none"
       d="m 1454.199,186.0747 c -5.3146,-0.53786 -6.1449,-1.44979 -11.0368,1.3451 -18.3093,10.46057 4.0175,14.89175 17.5166,4.54771 1.2222,-0.93653 2.8481,-3.25557 1.709,-4.29152 -2.0577,-1.87125 -5.4451,-1.14564 -8.1888,-1.60129 -4.972,-0.82569 -9.9147,-2.36999 -14.9532,-2.24187 -2.7207,0.0692 -6.3823,1.97207 -6.6933,4.67585 -0.2709,2.35528 11.6063,-8.11547 11.749,-8.26278"
       id="path7621" />
    <path
       style="fill:none;stroke:#ffffff;stroke-width:1.5;stroke-dasharray:none"
       d="m 1448.7874,165.51381 c -1.3766,1.77212 -3.6069,3.13414 -4.13,5.31635 -1.9999,8.34337 5.0323,49.42859 16.0926,46.50219"
       id="path7623" />
    <path
       style="fill:none;stroke:#ffffff;stroke-width:1.5;stroke-dasharray:none"
       d="m 1489.3748,202.0238 c 9.9606,-4.09382 -8.9084,27.3042 -0.8544,25.49293"
       id="path7625" />
    <path
       style="fill:none;stroke:#ffffff;stroke-width:1.5;stroke-dasharray:none"
       d="m 1522.2007,186.45898 c -1.9462,1.62268 -4.3954,2.78528 -5.8387,4.86803 -2.5603,3.69456 -0.8086,7.7547 3.3465,9.2876 7.8943,2.91229 19.4417,-1.72946 25.3494,-6.7255 12.3004,-10.40212 -6.9195,-10.8626 -12.3186,-9.99223 -3.5691,0.57536 -7.0257,1.70807 -10.5386,2.5621 z"
       id="path7627" />
    <path
       style="fill:none;stroke:#ffffff;stroke-width:1.5;stroke-dasharray:none"
       d="m 1540.9279,152.12682 c -9.9621,23.29025 -11.1384,49.21378 -17.5167,73.59644"
       id="path7629" />
    <path
       style="fill:none;stroke:#ffffff;stroke-width:1.5;stroke-dasharray:none"
       d="m 1120.8839,64.630937 c 3.7739,1.515917 7.3285,3.776311 11.3217,4.547751 2.2477,0.434229 20.6223,0.794782 12.2474,-7.301997 -14.6806,-14.193044 -28.2345,1.952826 -25.1357,19.215795 0.4908,2.734273 3.3432,4.56492 5.6253,6.149039 9.1289,6.336982 24.3359,9.125291 32.5411,-0.448369 1.8,-2.100273 2.7058,-4.825298 4.0588,-7.237949"
       id="path7633" />
    <path
       style="fill:none;stroke:#ffffff;stroke-width:1.5;stroke-dasharray:none"
       d="m 1169.8736,43.877902 c 0.1666,6.444305 1.4332,31.027094 11.0369,32.090372 1.7321,0.191768 3.0381,-1.70807 4.5571,-2.562105"
       id="path7635" />
    <path
       style="fill:none;stroke:#ffffff;stroke-width:1.5;stroke-dasharray:none"
       d="m 1200.0649,43.685764 c -1.3054,3.394779 -4.0247,6.548821 -3.9163,10.184336 0.2582,8.661821 17.9605,13.991971 21.7178,19.279841 5.1939,7.309704 2.7898,17.958199 -7.3342,17.550423 -10.4804,-0.422132 -1.779,-17.206994 1.5665,-19.856301 10.4118,-8.245081 15.9533,-8.286597 25.919,-12.490257 1.6041,-0.676651 9.9261,-3.75081 8.1886,-7.81441 -6.1027,-14.273149 -24.3029,1.758383 -18.7983,13.771308 5.0629,11.049166 32.7556,23.813328 43.3644,17.678516"
       id="path7637" />
    <path
       style="fill:none;stroke:#ffffff;stroke-width:1.5;stroke-dasharray:none"
       d="m 529.09083,387.77633 c -6.26615,-20.5613 6.30682,22.0385 8.40229,21.52166 2.04703,-0.50485 5.53974,-16.39686 6.76458,-14.86016 2.81942,3.53729 2.40027,17.07448 7.19182,18.5112 2.63745,0.79081 2.45539,-12.92551 8.3311,-14.47591 6.0308,-1.59134 23.11884,-8.0767 17.37428,-17.5504 -5.50251,-9.07454 -18.69971,11.53986 -17.51668,19.34385 2.16786,14.30025 32.37386,9.91976 35.38937,-0.70453"
       id="path7639" />
    <path
       style="fill:none;stroke:#ffffff;stroke-width:1.5;stroke-dasharray:none"
       d="m 659.04175,368.94485 c 1.89479,8.03394 -0.12149,46.14159 16.37742,25.94134"
       id="path7641" />
    <path
       style="fill:none;stroke:#ffffff;stroke-width:1.5;stroke-dasharray:none"
       d="m 679.4067,381.69129 c -19.6956,17.29012 9.16247,20.45282 15.1669,1.72947"
       id="path7643" />
    <path
       style="fill:none;stroke:#ffffff;stroke-width:1.5;stroke-dasharray:none"
       d="m 693.36305,364.58928 c 1.32919,4.82529 2.54365,9.68367 3.98754,14.47591 6.15913,20.44211 6.76687,-4.1638 12.81708,-5.25232 4.16311,-0.74901 4.71312,13.23348 7.12059,15.24455"
       id="path7645" />
    <path
       style="fill:none;stroke:#ffffff;stroke-width:1.5;stroke-dasharray:none"
       d="m 729.53567,386.43122 c -5.96083,3.07337 -6.10426,5.60932 -8.61584,-1.92157 -2.31368,-6.93734 6.94872,-13.82313 8.97191,-7.55822 0.97179,3.00914 -0.23738,6.31987 -0.35607,9.47979 z"
       id="path7647" />
    <path
       style="fill:none;stroke:#ffffff;stroke-width:1.5;stroke-dasharray:none"
       d="m 735.44582,358.88859 c 7.55542,7.20411 7.59431,14.03501 9.82642,23.12297 0.75057,3.05602 -0.66355,-20.4984 2.77698,-17.87064 7.90546,6.03784 8.17886,16.83723 13.67163,24.08377 0.20635,0.27223 -0.003,-0.68323 0,-1.02483 0.0209,-2.45536 -0.0292,-4.91263 0.0712,-7.36606 0.45562,-11.14062 0.78201,-12.23107 2.49219,-23.12299"
       id="path7649" />
    <path
       style="fill:none;stroke:#ffffff;stroke-width:1.5;stroke-dasharray:none"
       d="m 848.09541,340.42044 c -1.70916,8.21944 6.23921,39.063 3.70265,44.06821 -0.29892,0.58988 -2.2987,-1.23378 -6.05245,-4.35558"
       id="path7669" />
    <path
       style="fill:none;stroke:#ffffff;stroke-width:1.5;stroke-dasharray:none"
       d="m 839.05226,373.47158 c -1.85134,-1.36644 -4.18761,-5.95069 -5.55405,-4.09935 -1.36647,1.85137 3.2552,4.19891 5.55405,4.09935 4.84013,-0.20963 8.9761,-3.73896 13.67155,-4.93202 5.73218,-1.4565 14.4743,1.99919 11.17934,-5.95691"
       id="path7671" />
    <path
       style="fill:none;stroke:#ffffff;stroke-width:1.5;stroke-dasharray:none"
       d="m 864.11675,344.32765 c 11.8913,1.67126 13.40403,28.11645 17.37428,31.44983 0.40283,0.33819 0.22098,-1.02891 0.356,-1.53726 0.87556,-3.29631 2.83189,-14.02752 7.76147,-14.02752 9.9786,0 7.23162,26.29231 9.61282,17.23014 1.01211,-3.85177 2.0887,-7.6863 3.13306,-11.52943 8.91058,-28.10176 -1.58343,-1.30655 0,0 8.73113,7.2044 13.35349,-2.18466 16.09256,-7.302 1.00494,-1.87752 1.47724,-3.99589 2.13612,-6.02095 0.19658,-0.60417 0.5745,-2.47561 0.42728,-1.85755 -2.55134,10.71119 5.39874,36.29182 12.1762,17.55042 2.41945,-6.69037 3.60323,-13.77398 4.98441,-20.75303 0.54535,-2.75569 0.45487,-5.60104 0.78326,-8.39091 0.0993,-0.84327 0.0152,-3.19618 0.49848,-2.49802 2.37431,3.4302 12.16717,37.90068 9.96888,40.99365 -1.91939,2.70057 -18.71482,-14.60022 -18.58483,-15.56477 0.12337,-0.91541 33.84708,-1.88255 39.59057,-4.03534"
       id="path7673" />
    <path
       style="fill:none;stroke:#ffffff;stroke-width:1.5;stroke-dasharray:none"
       d="m 512.57279,509.13499 c -0.0238,2.3913 -0.12396,4.78306 -0.0712,7.17391 0.17547,7.95708 0.77608,15.78687 2.06499,23.63542 0.35957,2.18942 0.93515,4.68841 1.2105,6.91766 0.0738,0.59751 -0.234,2.19612 0.2136,1.79348 0.27098,-0.24376 0.43238,-1.02092 0.56967,-1.34512"
       id="path7677" />
    <path
       style="fill:none;stroke:#ffffff;stroke-width:1.5;stroke-dasharray:none"
       d="m 533.64973,548.52735 c 3.3759,-5.55321 7.72734,-17.02123 -0.56962,-20.75302"
       id="path7679" />
    <path
       style="fill:none;stroke:#ffffff;stroke-width:1.5;stroke-dasharray:none"
       d="m 545.39874,514.83565 c 1.54279,3.224 3.11076,6.43607 4.62838,9.67198 8.79224,18.74723 1.58359,5.77947 6.19493,-6.91769 0.74954,-2.06383 1.92162,-4.68432 4.05874,-5.18825 3.75576,-0.88561 9.09592,16.12644 9.54161,17.61448 0.47993,1.60237 0.54962,6.56191 0.92567,4.93202 0.95737,-4.14949 0.78552,-8.05685 3.77394,-11.78565 9.92214,-12.38036 18.59251,-0.28509 19.4392,10.63273"
       id="path7681" />
    <path
       style="fill:none;stroke:#ffffff;stroke-width:1.5;stroke-dasharray:none"
       d="m 486.22657,590.41779 c 10.59151,-14.91919 0.0543,-0.18846 0,0 -12.82149,44.50721 9.73791,-12.18872 -4.48601,22.03405 -4.46146,10.73426 -3.27731,6.3391 -7.04937,-4.1634 -9.80941,-24.40004 -9.04008,-18.15081 -2.06496,-12.23406 5.29489,4.49147 26.63829,16.55092 27.91271,22.93086 0.25115,1.25729 -0.807,2.43396 -1.2105,3.65094"
       id="path7701" />
    <path
       style="fill:none;stroke:#ffffff;stroke-width:1.5;stroke-dasharray:none"
       d="m 490.3565,648.12913 c -3.94501,5.5508 -1.75844,17.47372 -7.3342,21.90605 -2.00122,1.5908 -3.59007,-3.68612 -4.98444,-5.82885"
       id="path7703" />
    <path
       style="fill:none;stroke:#ffffff;stroke-width:1.5;stroke-dasharray:none"
       d="m 468.49625,644.09384 c 4.58969,3.70104 13.67418,17.22856 20.64975,12.29807"
       id="path7705" />
    <path
       style="fill:none;stroke:#ffffff;stroke-width:1.5;stroke-dasharray:none"
       d="m 525.10504,628.7212 c 9.05965,-3.24127 4.89926,-2.04041 16.51976,-4.54776 3.60149,-0.77708 7.22577,-1.44674 10.82331,-2.24181 3.04276,-0.67247 11.64434,-0.65395 9.04317,-2.36993 -1.38411,-0.91313 -3.21151,-0.84508 -4.77078,-1.4092 -9.49299,-3.43426 -14.9011,-10.06218 -7.04943,-19.27984 2.91894,-3.42672 9.85108,-6.15778 12.60348,-0.70456 5.88127,11.65236 0.556,27.20115 -0.42722,39.58452"
       id="path7707" />
    <path
       style="fill:none;stroke:#ffffff;stroke-width:1.5;stroke-dasharray:none"
       d="m 599.30164,577.41508 c -18.61614,4.02585 -11.11358,20.83221 7.19183,7.55822 2.06909,-1.5004 3.99875,-3.43765 5.05563,-5.76476 1.84544,-4.0634 -4.18404,-11.66845 -8.82955,-8.71115 -2.16966,1.38121 -1.96569,9.04047 -3.41791,6.91769 -2.0883,-3.0526 0.37978,-7.38737 0.56968,-11.08106 0.14241,-4.03533 0.56318,-8.07043 0.42724,-12.10598 -0.0194,-0.57478 -0.76299,0.96253 -0.78327,1.53728 -0.12432,3.5227 0.39081,7.04397 0.35603,10.5687 -0.0365,3.69838 -1.41325,7.47998 -0.56968,11.08106 8.64864,36.91986 9.077,13.40031 8.54476,27.28644"
       id="path7709" />
    <path
       style="fill:none;stroke:#ffffff;stroke-width:1.5;stroke-dasharray:none"
       d="m 615.39423,629.10549 c 0.87821,-1.98562 4.62021,-5.07865 2.63459,-5.95686 -1.98562,-0.8782 -2.10828,3.85045 -2.63459,5.95686 -1.12276,4.49365 -4.58896,9.69282 -2.27859,13.70726 5.94876,10.33643 20.05838,-7.09281 21.21937,-11.59353 0.39624,-1.53607 0.24226,-3.30169 -0.42722,-4.73986 -3.49067,-7.49842 -11.35798,-8.691 -18.08633,-4.03529 -2.96553,2.052 -9.62237,9.47825 -6.05251,8.96734 2.00608,-0.28713 3.75018,-1.53728 5.62528,-2.30592 z"
       id="path7711" />
    <path
       style="fill:none;stroke:#ffffff;stroke-width:1.5;stroke-dasharray:none"
       d="m 618.24247,599.5773 c 0.48147,20.01218 7.3342,38.76042 7.3342,58.80026 0,1.25283 -0.41881,-2.47132 -0.56962,-3.71502"
       id="path7713" />
    <path
       style="fill:none;stroke:#ffffff;stroke-width:1.5;stroke-dasharray:none"
       d="m 675.70566,477.17274 c -19.24651,20.89177 -18.29289,57.46081 -12.81705,83.5887 2.546,12.14832 8.21558,31.68375 22.64354,35.35701"
       id="path7715" />
    <path
       style="fill:none;stroke:#ffffff;stroke-width:1.5;stroke-dasharray:none"
       d="m 726.76037,517.58994 c -13.04694,4.24508 -16.08042,16.13045 -11.03693,28.37531 0.28027,0.68049 10.8177,16.19523 10.11126,16.33337 -2.38524,0.46646 -7.95089,-1.62809 -9.18559,-1.98557"
       id="path7717" />
    <path
       style="fill:none;stroke:#ffffff;stroke-width:1.5;stroke-dasharray:none"
       d="m 709.45729,555.95748 c -5.76006,-11.49678 22.42081,-8.76109 23.35564,-11.91379"
       id="path7719" />
    <path
       style="fill:none;stroke:#ffffff;stroke-width:1.5;stroke-dasharray:none"
       d="m 778.52716,474.29037 c -3.06186,1.98565 -6.62858,3.35317 -9.18562,5.95691 -15.63798,15.9235 -10.53658,53.25017 -0.85447,70.7141 3.53695,6.37969 7.55163,11.87413 14.02763,15.30855 4.96744,2.63438 4.00783,-2.52034 2.99066,-4.61176"
       id="path7721" />
    <path
       style="fill:none;stroke:#ffffff;stroke-width:1.5;stroke-dasharray:none"
       d="m 805.30056,479.927 c -5.21266,5.86095 -8.80975,11.61783 -11.25053,18.83148"
       id="path7723" />
    <path
       style="fill:none;stroke:#ffffff;stroke-width:1.5;stroke-dasharray:none"
       d="m 789.20802,483.77015 c 4.13385,5.51241 31.4633,15.57759 29.76409,28.56749"
       id="path7725" />
    <path
       style="fill:none;stroke:#ffffff;stroke-width:1.5;stroke-dasharray:none"
       d="m 812.20759,519.5115 c -0.73303,10.05237 -3.18895,19.81157 -5.69648,29.52824 -0.27739,1.0749 -0.83619,3.95211 -1.42415,3.01045 -0.91374,-1.46346 -1.56652,-3.07448 -2.34979,-4.61174"
       id="path7727" />
    <path
       style="fill:none;stroke:#ffffff;stroke-width:1.5;stroke-dasharray:none"
       d="m 793.26675,529.18342 c 0.81402,-0.0294 19.49998,12.2495 17.65909,9.3517"
       id="path7729" />
    <path
       style="fill:none;stroke:#ffffff;stroke-width:1.5;stroke-dasharray:none"
       d="m 817.69044,461.09557 c 3.63151,3.24533 8.04791,5.78414 10.89448,9.73596 15.59288,21.64712 9.45616,54.25463 1.63772,77.69582"
       id="path7731" />
    <path
       style="fill:none;stroke:#ffffff;stroke-width:1.5;stroke-dasharray:none"
       d="m 865.61209,445.72294 c 8.96549,29.60854 26.4989,62.81706 15.80774,94.34946 -0.14306,0.42193 -12.55905,31.23719 -20.86342,18.89556"
       id="path7733" />
    <path
       style="fill:none;stroke:#ffffff;stroke-width:1.5;stroke-dasharray:none"
       d="m 982.53231,521.305 c 1.18163,11.26803 0.87607,-16.7047 0.78327,-19.47201 -0.42809,-12.76217 -1.77352,-26.10794 -4.12993,-38.68777 -0.39433,-2.10516 -1.09183,-4.14205 -1.63774,-6.21308 3.22801,-0.85404 6.51099,-3.60198 9.68402,-2.56211 18.46487,6.05134 36.74877,26.87859 24.28117,46.31005 -1.3974,2.17803 -17.27084,18.90344 -22.21625,11.78566 -0.86592,-1.24629 -0.1424,-3.03183 -0.21359,-4.54775"
       id="path7735" />
    <path
       style="fill:none;stroke:#ffffff;stroke-width:1.5;stroke-dasharray:none"
       d="m 1036.008,501.0003 c 6.3964,-6.90452 5.3496,-4.6214 9.2568,-14.92422 1.1893,-3.13627 2.1089,-6.37167 2.9906,-9.60792 4.8616,-17.8444 2.1802,-16.25905 4.6284,-5.31636 2.0264,9.05717 4.0253,16.03595 9.1144,23.89164 0.077,0.11824 5.8911,8.9457 9.5416,7.43011 3.4065,-1.4143 2.9109,-15.80028 2.8483,-17.10206 -0.42,-8.73143 -1.5172,-17.42985 -2.8483,-26.06942 -0.2209,-1.43375 -0.7914,-5.0328 -1.7802,-3.97126 -1.4439,1.55024 -0.2848,4.22748 -0.4272,6.34121"
       id="path7737" />
    <path
       style="fill:none;stroke:#ffffff;stroke-width:1.5;stroke-dasharray:none"
       d="m 1107.57,454.49811 c 1.073,11.26995 4.613,21.76002 9.0432,32.09039 0.23,0.53623 3.8708,8.02756 3.7027,7.9425 -2.7744,-1.4038 -3.7562,-4.95732 -5.5541,-7.49414"
       id="path7739" />
    <path
       style="fill:none;stroke:#ffffff;stroke-width:1.5;stroke-dasharray:none"
       d="m 1107.214,470.12699 c -0.3798,-2.24186 -1.723,-4.52794 -1.1393,-6.72555 2.432,-9.15767 22.4033,-8.60149 28.5536,-9.09547 4.4007,-0.35343 9.3241,-1.96631 13.2443,0.0641 0.2963,0.15341 -0.3244,0.66305 -0.6408,0.76865 -2.6792,0.89405 -5.4591,1.45184 -8.1887,2.17778"
       id="path7741" />
    <path
       style="fill:none;stroke:#ffffff;stroke-width:1.5;stroke-dasharray:none"
       d="m 1121.2416,469.87074 c 0.5221,3.24536 -0.5274,7.20212 1.5665,9.73604 6.0293,7.29652 32.4603,-3.51227 36.8847,-1.02489 0.5466,0.30734 -1.2693,1.20988 -6.6222,4.29154"
       id="path7743" />
    <path
       style="fill:none;stroke:#ffffff;stroke-width:1.5;stroke-dasharray:none"
       d="m 1130.4984,498.05392 c 14.7026,-3.04117 30.4078,-5.39154 45.287,-1.92159"
       id="path7745" />
    <path
       style="fill:none;stroke:#ffffff;stroke-width:1.5;stroke-dasharray:none"
       d="m 293.32285,754.36442 c 4.88575,18.13274 3.01895,39.40516 12.17625,56.17414"
       id="path7747" />
    <path
       style="fill:none;stroke:#ffffff;stroke-width:1.5;stroke-dasharray:none"
       d="m 331.56048,789.01687 c 3.35493,-1.79512 8.62657,-3.08454 10.32488,-7.23794 4.16209,-10.17884 -12.40309,-11.19838 -19.01202,-2.24184 -6.1478,8.33165 -3.76768,19.99766 7.76144,21.52168 11.19264,1.47955 18.88188,-6.09406 25.56295,-13.38699"
       id="path7749" />
    <path
       style="fill:none;stroke:#ffffff;stroke-width:1.5;stroke-dasharray:none"
       d="m 359.1172,778.19195 c -7.46202,-0.0238 14.79923,22.91098 4.55717,24.27597"
       id="path7751" />
    <path
       style="fill:none;stroke:#ffffff;stroke-width:1.5;stroke-dasharray:none"
       d="m 381.54709,775.11744 c 6.2965,4.07746 13.46246,6.5736 19.86644,10.44061 36.76761,22.20191 -30.12262,34.91984 -22.71468,1.60129"
       id="path7753" />
    <path
       style="fill:none;stroke:#ffffff;stroke-width:1.5;stroke-dasharray:none"
       d="m 489.28173,779.53709 c 3.06294,12.77646 9.60266,19.43113 19.29681,27.41448 2.31218,1.90416 9.72052,6.92799 7.04942,5.57261 -0.97129,-0.49287 -1.89884,-1.06755 -2.84824,-1.60129"
       id="path7755" />
    <path
       style="fill:none;stroke:#ffffff;stroke-width:1.5;stroke-dasharray:none"
       d="m 506.65602,788.37634 c 15.25391,2.57276 10.73224,-1.26053 16.73336,6.02094"
       id="path7757" />
    <path
       style="fill:none;stroke:#ffffff;stroke-width:1.5;stroke-dasharray:none"
       d="m 498.46731,797.34371 c -8.53833,-12.489 -8.60699,-30.37002 1.99376,-42.01854 6.36415,-6.99314 15.6303,-10.86744 24.13885,-14.4118 1.37023,-0.57078 5.56051,-2.06136 4.12994,-1.66536 -14.16722,3.92152 -45.58253,13.99037 -40.44499,34.3322 3.15704,12.50013 12.02108,30.88253 23.49795,38.87991 3.34216,2.32891 7.92467,1.96064 11.96261,2.49806 0.69193,0.0921 2.41347,-0.0828 1.99376,-0.64055 -1.24677,-1.6568 -3.41786,-2.34858 -5.1268,-3.52288"
       id="path7759" />
    <path
       style="fill:none;stroke:#ffffff;stroke-width:1.5;stroke-dasharray:none"
       d="m 487.7864,796.76726 c 3.58403,-2.96778 6.55258,-6.89909 10.75211,-8.90334 2.80191,-1.33723 22.82903,-4.78348 26.98709,-5.44449 4.86193,-0.7729 5.29198,-1.63972 3.91633,0.12814"
       id="path7761" />
    <path
       style="fill:none;stroke:#ffffff;stroke-width:1.5;stroke-dasharray:none"
       d="m 592.24563,756.92651 c -0.8545,-1.85753 -2.26793,-3.54941 -2.56345,-5.57257 -0.43232,-2.95987 6.33111,-9.9573 4.98444,-3.65099 -0.66382,3.10859 -1.61401,6.14905 -2.42099,9.22356 z"
       id="path7763" />
    <path
       style="fill:none;stroke:#ffffff;stroke-width:1.5;stroke-dasharray:none"
       d="m 592.4592,767.49521 c 1.80332,11.52449 0.0391,23.21881 1.35295,34.78054 0.56528,4.9743 1.61435,10.20077 2.77704,10.12031 1.35792,-0.094 1.37665,-2.34857 2.06496,-3.52287"
       id="path7765" />
    <path
       style="fill:none;stroke:#ffffff;stroke-width:1.5;stroke-dasharray:none"
       d="m 608.05332,777.74359 c 14.02887,-9.65743 9.3323,24.08377 11.03696,24.08377 1.61644,0 -2.5241,-9.1699 5.9101,-11.40132"
       id="path7767" />
    <path
       style="fill:none;stroke:#ffffff;stroke-width:1.5;stroke-dasharray:none"
       d="m 644.68263,776.15275 c 0.67133,1.60033 1.20915,3.26345 2.01398,4.80097 2.39467,4.57473 6.98455,8.32475 6.24343,13.94995 -0.34486,2.61739 -3.86554,10.55176 -4.8336,10.14542 -0.91188,-0.38278 0.0278,-4.23148 0.0503,-4.98213"
       id="path7769" />
    <path
       style="fill:none;stroke:#ffffff;stroke-width:1.5;stroke-dasharray:none"
       d="m 650.62393,792.32202 c 2.32137,7.34647 -14.01654,22.95843 -18.83098,13.67819 -0.65807,-1.26849 -0.88919,-2.88144 -0.5035,-4.25746 0.65045,-2.32064 1.91145,-4.50607 3.47414,-6.34087 1.30257,-1.52937 11.46622,-10.35347 15.00441,-7.42789 1.1384,0.94128 0.5706,2.8987 0.85593,4.34803 z"
       id="path7771" />
    <path
       style="fill:none;stroke:#ffffff;stroke-width:1.5;stroke-dasharray:none"
       d="m 620.66555,790.78209 c -0.10146,0.65842 5.39444,-7.26892 8.00569,-5.38977 0.46709,0.33615 -1.21973,5.31976 -1.30913,5.88798 -0.0364,0.23149 -1.05104,5.92662 -1.10771,5.84266 -2.86073,-4.23844 -7.30104,-8.96262 -12.58752,-10.32658 -0.76306,-0.19687 -0.1813,1.91993 0.5035,2.30992 1.94297,1.10652 4.29953,1.25312 6.49517,1.67579 2.12635,0.40934 4.30832,1.1679 6.4448,0.81526 1.72268,-0.28432 2.85033,-2.15577 4.53152,-2.62694 6.16387,-1.72746 10.79238,1.87783 14.40019,6.20501"
       id="path7773" />
    <path
       style="fill:none;stroke:#ffffff;stroke-width:1.5;stroke-dasharray:none"
       d="m 827.38575,727.93093 c 5.71807,23.72738 8.35946,48.11408 10.19723,72.41635 0.17653,2.33432 3.56222,22.15476 -1.5027,21.43525"
       id="path7775" />
    <path
       style="fill:none;stroke:#ffffff;stroke-width:1.5;stroke-dasharray:none"
       d="m 812.03645,780.65006 c 6.59924,-5.17234 53.35977,-20.01766 57.74809,-15.15914 1.49567,1.65589 -2.89009,3.53237 -4.8302,4.63462"
       id="path7777" />
    <path
       style="fill:none;stroke:#ffffff;stroke-width:1.5;stroke-dasharray:none"
       d="m 867.95974,737.4899 c 9.79985,22.95856 9.94854,49.33612 18.24752,72.60947 0.21095,0.59153 0.33951,-1.21295 0.42944,-1.83451 0.59029,-4.08011 0.8467,-8.21121 1.61005,-12.26251 0.75729,-4.01926 2.74952,-14.00379 6.6549,-17.37995 12.89712,-11.14944 29.9062,56.66433 20.28701,14.48326"
       id="path7779" />
    <path
       style="fill:none;stroke:#ffffff;stroke-width:1.5;stroke-dasharray:none"
       d="m 913.25662,782.58115 c 3.2917,0.0965 6.59037,0.0549 9.87512,0.28964 4.52946,0.32369 36.94999,3.84786 37.99776,-4.63463 0.66752,-5.40409 -1.02195,-19.60039 -9.98246,-20.75937 -17.7093,-2.2906 -26.42325,28.62697 -10.5192,40.84286 10.05184,7.72078 47.14312,15.10001 42.93545,-5.98641"
       id="path7781" />
    <path
       style="fill:none;stroke:#ffffff;stroke-width:1.5;stroke-dasharray:none"
       d="m 1045.3902,744.5384 c 2.7097,19.99263 5.0012,40.75327 11.1633,60.1539 1.3348,4.20256 -2.3446,-8.50159 -3.5422,-12.74533"
       id="path7783" />
    <path
       style="fill:none;stroke:#ffffff;stroke-width:1.5;stroke-dasharray:none"
       d="m 1047.9663,729.95859 c 16.0296,2.47454 37.0514,17.83138 27.9081,37.17372 -3.3925,7.17672 -8.9702,13.2434 -14.7055,18.73173 -1.3257,1.26863 -5.2392,2.39914 -5.4741,0.57934 -0.6805,-5.27087 2.3614,-10.3636 3.5421,-15.54539"
       id="path7785" />
    <path
       style="fill:none;stroke:#ffffff;stroke-width:1.5;stroke-dasharray:none"
       d="m 1081.5633,750.62141 c -3.8932,12.5675 -13.5225,45.63838 13.8467,36.78748 9.4002,-3.03993 14.9796,-12.40181 18.5695,-20.66276 1.3913,-3.20167 1.7731,-17.84525 0,-10.91076 -2.0347,7.95779 -0.039,33.70051 8.0504,33.11845 4.5104,-0.32456 7.1331,-29.99716 7.4064,-33.11845 0.7816,-8.92947 0.4337,-15.97723 2.6834,-14.1936 4.6698,3.70232 28.1706,38.34911 18.2475,43.44982 -5.5863,2.8715 -9.3096,-18.72612 -7.621,-22.49736 6.5909,-14.71975 10.8328,-15.56215 22.0044,-22.11115"
       id="path7787" />
    <path
       style="fill:none;stroke:#ffffff;stroke-width:1.5;stroke-dasharray:none"
       d="m 1181.71,723.87564 c -0.072,5.82546 -0.1244,11.65121 -0.2146,17.47641 -0.1833,11.8399 -0.1303,19.15846 -1.1807,30.60806 -0.2386,2.60038 -0.3041,8.89519 -2.4688,7.43471 -2.4089,-1.6252 -12.4325,-21.68908 -9.9825,-23.65597 5.7028,-4.5783 41.6473,-6.51386 41.6473,4.92427 -0.6082,-6.34045 -1.1973,-12.68277 -1.8247,-19.02135 -0.8831,-8.92206 -3.3608,-19.12929 0.4293,-27.71136 1.7936,-4.06124 5.2043,-9.22494 9.5532,-10.81414 5.2229,-1.90862 18.583,3.49632 20.5016,8.49686 5.1537,13.43208 -21.8375,43.63117 -14.3834,52.52602 6.6346,7.91677 30.4027,-18.75813 33.4897,-23.84914 0.9769,-1.61109 2.4352,-6.99829 1.288,-5.50368 -5.6924,7.41608 -7.1102,39.55661 3.6495,35.72542 19.7706,-7.03967 0.7034,-78.17001 10.0899,-37.55992 1.3248,5.73148 2.8582,11.41352 4.4008,17.09025 2.7811,10.23433 6.333,19.89667 6.333,30.60798"
       id="path7789" />
    <path
       style="fill:none;stroke:#ffffff;stroke-width:1.5;stroke-dasharray:none"
       d="m 1377.3881,744.5384 c 4.7405,12.00312 19.3106,33.17907 7.5137,46.7327 -1.5844,1.82038 -4.6316,4.55713 -6.5476,3.08977 -4.7336,-3.62513 -7.2448,-9.67303 -9.3385,-15.25569 -1.0291,-2.74418 -0.5253,-5.98088 0.322,-8.78654 6.3646,-21.07362 28.2325,0.10861 41.7547,-2.80009 3.3752,-0.72602 5.2638,-3.68895 4.9376,-7.14507 -1.0138,-10.74029 -20.3838,-9.29791 -19.2136,0.38618 1.0792,8.93141 18.1761,31.53479 26.298,14.00054 11.9744,-3.42414 1.1977,-12.0396 3.4347,-17.57305 0.7817,-1.93365 1.7775,3.77717 2.7908,5.60017 0.7885,1.41836 14.3585,22.64717 14.9201,22.69046 4.2047,0.32425 -6.6264,-38.11418 8.587,-24.42842 4.3651,-2.76792 10.4448,-3.86638 13.0953,-8.30375 2.3939,-4.00765 -5.032,-19.51696 -0.4293,-26.84232 1.1242,-1.78912 3.7203,2.431 4.6156,4.34494 1.9416,4.15079 3.3391,8.53683 5.1522,12.74531 2.1951,5.09497 4.2266,10.28156 6.8697,15.15914 1.0003,1.84582 8.9957,16.05627 14.1686,17.09031 1.8567,0.37114 1.3269,-4.81682 0.7514,-11.97287 -0.7709,-9.58603 -7.978,-30.9979 7.8357,-29.73901 1.771,0.14098 12.5085,1.03385 13.8467,3.28287 0.5406,0.90865 -6.7161,9.60278 -9.5531,14.29017 -1.5859,2.62023 -8.551,18.53664 0.6441,14.29022 7.0075,-3.23621 13.9042,-7.10039 19.6429,-12.26251 3.5436,-3.18765 5.2653,-7.96315 7.5136,-12.16597 0.5429,-1.01485 -2.1373,1.31172 -2.4688,2.4139 -1.4993,4.9862 -4.8382,26.76753 4.9376,27.5182 14.0503,1.07891 15.5067,-27.74645 16.1008,-35.72542 0.2402,-3.22564 2.0989,-10.68938 -0.966,-9.65552 -6.8862,2.32286 2.468,45.23472 -3.1129,49.05006 -3.2953,2.25277 -6.9991,-14.17885 -0.5366,-21.04907 5.4708,-5.816 15.0903,-6.37097 20.5016,-12.4556 3.2515,-3.65609 3.9531,-6.19547 4.2935,-11.0073 0.1867,-2.63907 -1.1636,-10.28616 -1.8247,-7.72442 -1.6711,6.47527 6.1214,39.15161 15.7787,31.28387 4.9561,-4.03768 7.7637,-13.20751 11.0559,-18.34547 4.4537,-6.95071 12.08,-12.83497 15.7787,-20.08348 0.6334,-1.24133 -2.6062,1.18826 -3.5422,2.2208 -4.764,5.25575 -10.8371,13.35391 -12.1292,20.75937 -3.2038,18.36237 9.612,18.53427 21.6824,13.03494"
       id="path7791" />
    <path
       style="fill:none;stroke:#ffffff;stroke-width:1.5;stroke-dasharray:none"
       d="m 1636.7179,711.41995 c 1.1449,3.50819 1.379,7.45998 3.4348,10.52457 6.5747,9.80072 27.6427,20.964 22.5411,36.30475 -4.3425,13.05827 -48.2773,29.68469 -32.953,16.31783"
       id="path7793" />
    <path
       style="fill:none;stroke:#ffffff;stroke-width:1.5;stroke-dasharray:none"
       d="m 418.76643,1055.5125 c 0.1789,-3.2829 0.3578,-6.5658 0.5367,-9.8486 0.0716,-0.2897 0.23089,-1.1669 0.21465,-0.869 -1.56082,28.6417 7.42128,62.3221 10.08984,91.4378 0.39429,4.302 0.594,8.6212 0.75135,12.9384 0.0575,1.5764 0.84975,5.9851 -0.10733,4.7312 -2.4668,-3.2321 -3.22015,-7.467 -4.83023,-11.2004"
       id="path8817" />
    <path
       style="fill:none;stroke:#ffffff;stroke-width:1.5;stroke-dasharray:none"
       d="m 406.85185,1073.858 c -3.23714,-18.9447 4.85542,-52.86 30.91346,-42.967 26.46404,10.0471 31.53103,62.554 24.68785,85.0651 -4.71301,15.5037 -24.32588,43.8016 -31.02079,29.932 -1.63697,-3.3912 0,-7.5312 0,-11.2969"
       id="path8819" />
    <path
       style="fill:none;stroke:#ffffff;stroke-width:1.5;stroke-dasharray:none"
       d="m 515.58576,1139.0328 c 1.15458,-29.0454 0.24738,-0.8558 0,0 -1.57084,5.4331 -5.65588,9.8559 -7.62106,15.1592 -2.03012,5.4785 -2.79441,11.3467 -4.29353,16.9937 -1.01687,3.8303 -2.79754,14.3746 -4.72291,10.9107 -1.68579,-3.0329 -1.66672,-6.7387 -2.36145,-10.1384 -1.09466,-5.3567 -2.00365,-10.7497 -3.00548,-16.1246 m 0,0 c -0.78715,-6.7267 -1.5743,-13.4534 -2.36144,-20.1801 -0.14313,-1.3839 -1.37492,-5.1725 -0.42938,-4.1518 2.60761,2.8148 3.50745,6.8656 5.79631,9.9452 13.44039,18.0835 39.10932,40.5395 45.18949,61.5056"
       id="path8821" />
    <path
       style="fill:none;stroke:#ffffff;stroke-width:1.5;stroke-dasharray:none"
       d="m 615.94719,1021.5251 c -8.62285,4.4737 -18.10258,7.5853 -25.86853,13.4212 -13.81739,10.3835 -16.05528,32.381 -9.12381,46.8292 5.71439,11.9114 38.59369,39.0175 35.95841,51.1743 -0.78594,3.6256 -5.08066,5.4071 -7.62101,8.1106"
       id="path8823" />
    <path
       style="fill:none;stroke:#ffffff;stroke-width:1.5;stroke-dasharray:none"
       d="m 557.34034,1098.4796 c 24.01782,-11.3399 52.42023,-16.907 78.46451,-9.6555"
       id="path8825" />
    <path
       style="fill:none;stroke:#ffffff;stroke-width:1.5;stroke-dasharray:none"
       d="m 751.0863,1077.1409 c 4.94458,-1.1175 37.45939,-6.8716 38.21252,0.1931 0.17963,1.6848 -1.86049,2.8323 -2.79074,4.2484"
       id="path8827" />
    <path
       style="fill:none;stroke:#ffffff;stroke-width:1.5;stroke-dasharray:none"
       d="m 741.74783,1105.1419 c 15.61097,3.0006 40.70337,-5.8018 54.74269,2.3173"
       id="path8829" />
    <path
       style="fill:none;stroke:#ffffff;stroke-width:1.5;stroke-dasharray:none"
       d="m 966.62196,1039.2912 c -0.57105,21.8572 4.73054,43.3351 5.47421,65.0783"
       id="path8831" />
    <path
       style="fill:none;stroke:#ffffff;stroke-width:1.5;stroke-dasharray:none"
       d="m 986.26487,1103.2108 c 6.24017,-8.511 7.40635,-15.0269 7.40635,-24.8147"
       id="path8833" />
    <path
       style="fill:none;stroke:#ffffff;stroke-width:1.5;stroke-dasharray:none"
       d="m 990.45113,1060.4368 c -1.45989,-11.5376 1.0835,-21.3787 7.19169,-30.9942 6.04678,7.0164 12.97268,13.3621 18.14018,21.0491 3.1943,4.7516 4.4163,10.5653 6.6549,15.835 1.5898,3.7422 3.3015,7.4329 4.8303,11.2004 1.7657,4.3516 3.4073,16.2149 3.8641,5.8899 0.2126,-4.8052 -0.7505,-27.8566 6.011,-30.8977 5.2204,-2.3479 17.9282,29.7491 18.355,29.6425 2.2979,-0.5742 4.1252,-13.7656 8.1576,-16.0282 14.6893,-8.2421 19.9332,22.7778 21.4677,30.2218"
       id="path8835" />
    <path
       style="fill:none;stroke:#ffffff;stroke-width:1.5;stroke-dasharray:none"
       d="m 945.47623,1143.4743 c 1.789,4.0875 4.05725,7.9972 5.36699,12.2625 2.62829,8.5592 3.36796,17.5335 4.40079,26.3596 0.21468,1.8346 -0.90988,4.5053 0.6441,5.5037 1.48833,0.9562 -0.26895,-3.0183 4.93755,-10.5246 9.89991,-14.2728 21.27535,1.6656 25.11724,11.8764"
       id="path8837" />
    <path
       style="fill:none;stroke:#ffffff;stroke-width:1.5;stroke-dasharray:none"
       d="m 1000.2189,1166.551 c 3.7926,-0.2897 7.5809,-0.6426 11.3778,-0.869 2.6805,-0.1599 5.37,-0.1309 8.0505,-0.2897 3.296,-0.1953 6.5914,-0.4271 9.8751,-0.7724 24.7135,-2.5983 -5.5302,-8.0763 -8.2651,-18.8283 -2.0406,-8.0224 7.9109,-14.0278 14.598,-10.0417 15.0311,8.9597 -4.193,47.1509 -0.8586,49.4362 1.5911,1.0906 3.5064,-1.6092 5.2595,-2.4138"
       id="path8839" />
    <path
       style="fill:none;stroke:#ffffff;stroke-width:1.5;stroke-dasharray:none"
       d="m 1076.5365,1160.6611 c -2.0752,5.053 -5.2083,9.7921 -6.2256,15.1591 -3.6586,19.3019 55.1117,-0.6267 42.9354,-14.1935 -2.1555,-2.4018 -4.9676,-4.7258 -8.1577,-5.214 -5.8503,-0.8953 -11.8569,0.3841 -17.7109,1.2552 -3.7081,0.5517 -7.2274,1.9955 -10.8412,2.9932 z"
       id="path8841" />
    <path
       style="fill:none;stroke:#ffffff;stroke-width:1.5;stroke-dasharray:none"
       d="m 1090.2759,1120.2045 c 0.4651,-3.5404 0.9303,-7.0807 1.3954,-10.6211 0.1073,-0.1287 0.3438,-0.5524 0.322,-0.3862 -3.0252,23.0267 -2.3382,-2.3357 4.2935,28.001 1.6683,7.6319 2.0213,15.4956 2.7908,23.2698 1.8564,18.7531 -0.3214,38.1469 2.2542,56.6779"
       id="path8843" />
    <path
       style="fill:none;stroke:#ffffff;stroke-width:1.5;stroke-dasharray:none"
       d="m 1250.3175,927.48031 c -16.7831,1.83865 -34.1438,27.2778 -30.2694,43.64294 2.9908,12.63309 8.9066,20.17729 16.9594,29.83555 0.4138,0.4963 1.1502,1.1613 0.8588,1.738 -0.2962,0.5862 -1.2881,0.2575 -1.9322,0.3863"
       id="path8845" />
    <path
       style="fill:none;stroke:#ffffff;stroke-width:1.5;stroke-dasharray:none"
       d="m 1198.151,991.01365 c 9.1083,-16.86488 41.8363,-1.21282 51.0931,-6.56574"
       id="path8847" />
    <path
       style="fill:none;stroke:#ffffff;stroke-width:1.5;stroke-dasharray:none"
       d="m 1300.8739,932.59775 c -3.8011,5.60102 16.4706,-21.49038 12.3439,-16.12471 -4.1267,5.36567 -9.032,10.22122 -12.3439,16.12471 -8.1082,14.4531 -10.9116,37.60174 -6.8697,53.39501 4.7887,18.71134 18.2674,32.24394 34.6704,41.13254 1.3641,0.7392 3.9112,2.5907 4.5082,1.1586 0.6049,-1.4509 -2.5761,-1.8023 -3.8641,-2.7035"
       id="path8849" />
    <path
       style="fill:none;stroke:#ffffff;stroke-width:1.5;stroke-dasharray:none"
       d="m 1344.5607,953.45367 c 3.8029,8.63351 3.1253,18.4328 6.2257,27.22856 1.0595,3.0059 5.0602,-6.54802 5.0449,-6.56574 -1.2251,-1.41677 -4.0392,-8.65079 -5.1523,-7.24162 -6.5187,8.25291 -1.1787,22.0845 9.2311,24.33187 19.3663,4.18098 41.2198,-16.3023 39.0712,-35.43572 -2.8132,-25.05332 -47.5326,-24.62311 -54.4206,-2.31735 -10.2881,33.31622 25.3858,53.14063 43.6868,33.69778 5.9676,-6.34 3.5954,-24.01631 -3.1129,-28.86999 -5.4667,-3.95538 -12.501,-5.68555 -19.2136,-6.37264 -4.0897,-0.41863 -7.8142,2.88978 -11.9146,3.18632 -3.1874,0.23053 -7.0698,-3.77875 -9.4457,-1.64147 -3.387,3.04667 -4.6726,8.84391 -3.4348,13.2281 1.1508,4.07583 8.6287,-2.31611 18.2475,-9.17278"
       id="path8851" />
    <path
       style="fill:none;stroke:#ffffff;stroke-width:1.5;stroke-dasharray:none"
       d="m 1370.7513,928.54246 c 0.6801,-8.28059 -1.6244,-29.41225 0,0 0.8539,15.46251 2.646,30.87105 3.2201,46.34645 0.5956,16.05031 -1.5015,32.14869 -0.5367,48.18109 0.5398,8.9706 1.8646,23.3337 9.0165,10.9107"
       id="path8853" />
    <path
       style="fill:none;stroke:#ffffff;stroke-width:1.5;stroke-dasharray:none"
       d="m 1430.1094,944.08784 c -3.4244,-59.15615 3.0917,34.41044 2.1468,40.36007 -0.547,3.44405 -1.6469,2.35484 -3.8642,1.83454 -26.8289,-32.14999 -6.8611,-16.90983 13.632,-26.45611"
       id="path8855" />
    <path
       style="fill:none;stroke:#ffffff;stroke-width:1.5;stroke-dasharray:none"
       d="m 1447.391,935.88062 c 13.7388,18.44569 14.0951,16.84663 23.1851,36.01514 5.8004,12.23166 5.7256,18.25204 5.6889,17.86265 -2.5328,-26.88103 13.3527,-16.30635 16.7448,-0.28964"
       id="path8857" />
    <path
       style="fill:none;stroke:#ffffff;stroke-width:1.5;stroke-dasharray:none"
       d="m 1540.5607,986.28245 c -1.2213,4.8604 -29.9497,63.62875 -6.1183,32.24945"
       id="path8859" />
    <path
       style="fill:none;stroke:#ffffff;stroke-width:1.5;stroke-dasharray:none"
       d="m 1560.8477,978.4615 c 2.5761,-5.31056 5.6187,-10.41916 7.7284,-15.93165 1.9446,-5.08129 -14.5421,11.34161 -7.7284,15.93165 7.2056,4.85402 16.3218,7.33817 25.0098,7.33817 20.3594,0 13.1002,-21.677 -2.7908,-17.57305 -7.8952,2.03901 -14.2064,11.7488 -22.219,10.23488 -4.8255,-0.91178 -3.0358,-10.087 -1.288,-14.67641 3.3804,-8.87651 11.0614,-15.47418 15.886,-23.656 6.1896,-10.49655 2.9586,-16.46716 1.5027,-15.25574 -12.6163,10.49776 6.3851,42.27779 11.9148,53.10536 3.3853,6.62893 6.9392,13.17125 10.519,19.69723 0.4652,0.84799 1.9408,3.32276 1.6101,2.41386 -0.9685,-2.66188 -2.3615,-5.14957 -3.5422,-7.72439"
       id="path8861" />
    <path
       style="fill:none;stroke:#ffffff;stroke-width:1.5;stroke-dasharray:none"
       d="m 1593.0493,903.92089 c 2.8266,-6.37268 3.4907,-14.24869 8.4797,-19.11797 10.568,-10.31433 22.1411,5.75672 25.6539,11.77978 19.5739,33.56173 18.87,79.14729 7.1916,114.9972 -0.8005,2.4572 -8.8237,25.4296 -16.4228,27.2286"
       id="path8863" />
    <path
       style="fill:none;stroke:#ffffff;stroke-width:1.5;stroke-dasharray:none"
       d="m 1692.7668,955.67447 c 1.9547,-2.22554 55.7459,-6.78143 44.2233,-1.35175"
       id="path8865" />
    <path
       style="fill:none;stroke:#ffffff;stroke-width:1.5;stroke-dasharray:none"
       d="m 1831.6626,910.48663 c -18.0074,7.45268 -21.3243,28.66197 -15.242,45.67057 3.0816,8.61735 10.4768,16.37856 16.1008,23.17327 2.1225,2.56424 8.4633,6.36815 5.6888,8.20722 -0.7045,0.46699 -1.6458,-0.38624 -2.4687,-0.57933"
       id="path8867" />
    <path
       style="fill:none;stroke:#ffffff;stroke-width:1.5;stroke-dasharray:none"
       d="m 1795.7043,968.70943 c -0.598,-16.28169 42.0187,-4.09641 41.5401,-9.26935"
       id="path8869" />
    <path
       style="fill:none;stroke:#ffffff;stroke-width:1.5;stroke-dasharray:none"
       d="m 1886.4053,883.54771 c 1.7867,-3.10878 6.9749,-12.72339 10.4119,-17.66959 0.4305,-0.6196 -0.7977,1.28106 -1.1808,1.93109 -3.0876,5.23994 -7.0131,10.07538 -9.2311,15.7385 -4.906,12.52609 -9.6511,25.28355 -12.0219,38.52555 -6.4909,36.25363 13.4551,60.1626 29.6253,84.19614"
       id="path8871" />
    <path
       style="fill:none;stroke:#ffffff;stroke-width:1.5;stroke-dasharray:none"
       d="m 1923.0078,928.44591 c -12.8319,9.76776 2.6611,24.52785 11.163,18.53856 14.3222,-10.08949 -23.4087,-28.60746 -31.5575,-18.34547 -1.308,1.64727 4.4384,-0.27908 6.1183,-1.54485 2.8616,-2.15609 5.7088,-4.44089 7.9432,-7.24169 3.6742,-4.60542 5.8154,-9.00698 6.1183,-14.67636 0.124,-2.32124 0.3214,-7.87535 -1.7175,-6.75889 -8.6716,4.74832 12.3086,60.33466 20.0724,63.05058 1.0247,0.35848 2.0036,-0.83683 3.0054,-1.25521"
       id="path8873" />
    <path
       style="fill:none;stroke:#ffffff;stroke-width:1.5;stroke-dasharray:none"
       d="m 1952.4185,936.74962 c 1.5856,0.40219 -5.7849,51.75168 2.254,39.29798"
       id="path8875" />
    <path
       style="fill:none;stroke:#ffffff;stroke-width:1.5;stroke-dasharray:none"
       d="m 1978.3944,920.0456 c -0.8587,6.05081 -3.9486,12.19708 -2.5761,18.15238 3.0344,13.1663 43.4175,8.08281 25.2243,-10.52457 -11.1013,-11.35407 -27.1532,-6.76154 -41.1105,-8.49683 -1.7585,-0.21865 3.4896,-0.85577 5.2597,-0.77245 4.4298,0.20851 9.5493,4.15549 13.2026,1.64147 4.616,-3.17645 13.9138,-24.97923 12.8806,-32.53909 -0.2755,-2.0152 -2.8018,-6.12103 -4.079,-4.53808 -1.3916,1.72474 -2.1714,3.92671 -2.6833,6.08295 -10.7774,45.40031 -8.0455,16.29265 2.0394,50.20866 0.5902,1.98509 2.8344,29.24238 1.8246,18.34555"
       id="path8877" />
    <path
       style="fill:none;stroke:#ffffff;stroke-width:1.5;stroke-dasharray:none"
       d="m 1999.54,840.87034 c 5.1165,0.48278 11.599,-2.06529 15.3495,1.44833 5.3192,4.98334 6.4337,13.24215 7.943,20.37312 10.0258,47.36981 -7.0453,92.51754 -21.1457,136.91526"
       id="path8879" />
    <path
       style="fill:none;stroke:#ffffff;stroke-width:1.5;stroke-dasharray:none"
       d="m 676.48605,1012.4489 c 0.17891,-3.0254 3.56216,-8.8973 0.53676,-9.0762 -3.02541,-0.1789 1.19533,6.5892 -0.53676,9.0762 -4.20275,6.0343 -12.78499,8.4577 -16.20806,14.966 -4.85232,9.2259 7.74293,19.3652 15.24199,18.4421 10.90662,-1.3425 45.60212,-14.5709 33.38232,-35.0495 -7.56264,-12.67386 -14.69131,-13.54209 -26.51263,-12.16597 -0.55187,0.0643 -8.70656,1.17465 -8.47974,4.73117 0.20019,3.1385 1.71741,6.0508 2.57612,9.0762 z"
       id="path8881" />
    <path
       style="fill:none;stroke:#ffffff;stroke-width:1.5;stroke-dasharray:none"
       d="m 695.05567,1104.2729 c 5.47931,-35.0744 0.9353,-1.8167 0,0 -8.11207,15.757 -25.70062,20.4615 -17.60355,40.3601 1.65987,4.0791 5.87148,7.5744 10.19723,8.4003 20.31812,3.8792 42.0171,-21.6981 34.99233,-41.036 -5.89126,-16.2175 -12.87806,-9.9148 -27.58601,-7.7244 -4.2745,0.6366 -8.5929,1.125 -12.77331,2.2208 -1.28612,0.3371 -3.94272,3.2564 -3.43485,2.0276 1.47526,-3.5693 4.36515,-6.3726 6.54772,-9.559"
       id="path8883" />
    <path
       style="fill:none;stroke:#ffffff;stroke-width:1.5;stroke-dasharray:none"
       d="m 710.94176,972.47504 c 22.0105,-1.99435 22.9331,13.47401 23.93648,31.76666 1.11371,20.3042 -0.56518,38.5889 6.33293,57.4504 7.2407,19.7981 41.90217,61.9124 32.09425,82.6512 -1.75471,3.7104 -3.97065,7.2334 -6.54769,10.4279 -3.50922,4.3501 -43.79302,45.5944 -18.56952,16.3178"
       id="path8885" />
    <path
       style="fill:none;stroke:#ffffff;stroke-width:1.5;stroke-dasharray:none"
       d="m 654.58903,976.72348 c -17.28745,4.21166 -15.74996,1.27079 -28.55206,15.44883 -16.93392,18.75389 -5.26093,36.40219 0.85873,57.45029 5.23377,18.0012 9.22948,32.4008 12.23655,50.7881 2.69045,16.4511 4.60836,78.1674 18.35486,88.7342 14.04126,10.7935 46.52579,-4.5971 63.75906,-2.9932"
       id="path8887" />
    <path
       style="fill:none;stroke:#ffffff;stroke-width:1.5;stroke-dasharray:none"
       d="m 1234.2168,1108.811 c 122.4281,-25.0135 247.2826,-36.4209 371.4984,-48.7604 28.5356,-2.8347 118.4717,-11.8711 148.1269,-14.2902 35.812,-2.9213 75.1994,-4.9169 111.2029,-6.276 28.2718,-1.0673 56.5714,-0.2068 84.6899,-3.4761"
       id="path8889" />
    <path
       style="fill:none;stroke:#ffffff;stroke-width:1.5;stroke-dasharray:none"
       d="m 1623.5419,1149.764 c 0.2147,2.8645 0.2737,5.7449 0.644,8.5934 0.6681,5.1399 1.6319,10.2371 2.4688,15.3523 0.5585,3.4139 1.1865,6.8165 1.7175,10.2348 0.149,0.96 -0.4834,3.44 0.3219,2.8967 7.1416,-4.818 8.3037,-32.8196 24.3658,-28.9666 9.6376,2.3119 24.3216,32.0019 24.9026,31.9597 3.7784,-0.2741 6.4403,-3.9909 9.6605,-5.9864"
       id="path8891" />
    <path
       style="fill:none;stroke:#ffffff;stroke-width:1.5;stroke-dasharray:none"
       d="m 886.7813,1479.7127 c -5.46931,20.2979 -3.57227,41.3316 -1.93207,61.9884"
       id="path8893" />
    <path
       style="fill:none;stroke:#ffffff;stroke-width:1.5;stroke-dasharray:none"
       d="m 900.19858,1535.0388 c 3.00363,-11.5433 7.01374,-49.9625 15.99354,-58.609 8.93093,-8.5994 12.36204,16.1848 13.20263,20.4697 0.42806,2.1821 0.4723,8.6736 1.18072,6.5658 0.58328,-1.7355 0.55081,-3.6239 0.96595,-5.4071 1.01682,-4.3675 1.94127,-8.7703 3.32753,-13.035 4.31392,-13.2713 14.55838,20.5851 16.85213,18.0559 3.41458,-3.7651 2.44073,-10.6355 7.29901,-13.7109 6.28793,-3.9804 15.05153,25.0097 15.9934,28.4838"
       id="path8895" />
    <path
       style="fill:none;stroke:#ffffff;stroke-width:1.5;stroke-dasharray:none"
       d="m 848.03214,1618.6556 c -3.70115,-30.7758 3.39201,34.4811 3.86422,34.953 1.44068,1.44 11.53887,-20.7428 17.17413,-20.3732 11.62862,0.7628 15.99345,20.2304 15.99345,29.0632"
       id="path8897" />
    <path
       style="fill:none;stroke:#ffffff;stroke-width:1.5;stroke-dasharray:none"
       d="m 888.49873,1645.0152 c 14.69044,-0.525 36.31822,0.9768 43.57945,-15.3523 1.10619,-2.4876 2.19278,-6.2242 0.21465,-8.7865 -4.91731,-6.3695 -21.10401,-2.411 -20.82361,-4.7312 0.8925,-7.3852 18.55687,-10.1392 24.15114,-10.0418 33.90297,0.5903 -13.08626,51.8595 11.27051,32.346"
       id="path8899" />
    <path
       style="fill:none;stroke:#ffffff;stroke-width:1.5;stroke-dasharray:none"
       d="m 967.28517,1619.4281 c -2.46878,4.4093 -6.30955,8.295 -7.40632,13.228 -4.66511,20.9821 44.47165,6.2335 39.2858,-8.3037 -1.03179,-2.8925 -4.12175,-5.0809 -7.08424,-5.8899 -3.5343,-0.9651 -7.28768,0.823 -10.94862,0.9656 -4.61206,0.1796 -9.94473,-2.4655 -13.84662,0 -4.54261,2.8703 -5.83134,9.0601 -8.15774,13.9039 -0.8871,1.847 -3.44115,5.8714 -1.39539,5.9865 8.37975,0.4711 8.98491,-18.4836 9.55313,-19.8904 4.85436,-12.0189 15.47667,-20.886 7.72832,-35.822 -0.16219,-0.3127 -0.44918,0.6139 -0.42931,0.9655 0.19724,3.4888 0.48712,6.9832 1.07341,10.428 3.22405,18.9438 8.92302,37.3769 11.80724,56.3882 1.11781,7.3679 1.82475,14.7935 2.57612,22.2077 0.66185,6.5309 0.63153,15.2182 1.8247,15.3524 0.8487,0.095 0.57248,-1.6093 0.85873,-2.414"
       id="path8901" />
    <path
       style="fill:none;stroke:#ffffff;stroke-width:1.5;stroke-dasharray:none"
       d="m 1238.9588,1409.4205 c -0.5009,-3.5725 -0.8908,-7.1624 -1.5027,-10.7176 -2.481,-14.4135 -1.1863,8.0585 1.5027,10.7176 26.4723,26.1782 1.1399,-24.9636 24.4732,10.3314 4.0837,6.1771 6.4938,13.4472 8.1577,20.6628 0.8385,3.6365 -0.9948,14.0244 -2.8981,10.8142 -2.4702,-4.1663 -3.8642,-8.8831 -5.7963,-13.3246"
       id="path8903" />
    <path
       style="fill:none;stroke:#ffffff;stroke-width:1.5;stroke-dasharray:none"
       d="m 1263.754,1363.943 c 0.5367,-2.8323 0.5888,-5.8011 1.6101,-8.4968 0.7007,-1.8496 15.5807,-25.7552 19.2136,-15.1592 4.1389,12.0721 -11.2848,41.1432 -8.2651,46.2499 2.3552,3.983 34.9329,-13.4786 39.3932,2.1242"
       id="path8905" />
    <path
       style="fill:none;stroke:#ffffff;stroke-width:1.5;stroke-dasharray:none"
       d="m 1363.4715,1406.3307 c -0.7156,-4.4093 2.2625,-13.9436 -2.1468,-13.228 -4.4093,0.7156 5.0685,9.8489 2.1468,13.228 -3.0926,3.5767 -10.4334,-2.2229 -14.1687,0.676 -5.816,4.5136 -1.4023,18.8951 2.7907,22.3042 10.5331,8.5639 29.1783,0.6932 35.6365,-9.1727 1.9609,-2.9958 2.874,-6.8599 2.5761,-10.428 -1.0388,-12.4388 -12.3959,-17.1688 -23.0778,-17.3799 -4.9899,-0.099 -17.2694,2.0643 -13.8467,5.6967 2.9872,3.1702 6.7266,5.5358 10.0899,8.3037 z"
       id="path8907" />
    <path
       style="fill:none;stroke:#ffffff;stroke-width:1.5;stroke-dasharray:none"
       d="m 1193.3401,1475.4643 c -6.2959,0.6422 -14.9313,1.4093 -21.1458,2.5104 -1.2814,0.2271 -4.8403,1.5502 -3.5422,1.6414 11.9573,0.8403 7.5105,-2.2349 24.688,-4.1518 13.0725,-1.4589 26.2568,-1.6403 39.3931,-2.3174 73.759,-3.802 77.548,-3.7141 169.058,-2.607 14.4338,0.1747 72.1033,1.5201 87.8029,6.952"
       id="path8909" />
    <path
       style="fill:none;stroke:#ffffff;stroke-width:1.5;stroke-dasharray:none"
       d="m 1327.5131,1520.6521 c -1.1807,6.8876 -2.4367,13.7628 -3.5422,20.6628 -0.6479,4.044 -1.117,8.1147 -1.7175,12.1659 -3.5728,24.1043 1.4881,-4.4504 22.0045,9.3659 13.9445,9.3906 9.6657,42.7855 -1.9321,17.8627"
       id="path8911" />
    <path
       style="fill:none;stroke:#ffffff;stroke-width:1.5;stroke-dasharray:none"
       d="m 1388.5886,1509.2586 c -5.7475,-1.7448 -28.6347,8.3401 -29.0887,5.8898 -1.1347,-6.124 5.2109,-11.3378 8.3724,-16.704 14.4547,-24.5354 4.649,-13.4295 10.3045,-2.1242 2.4767,4.9508 8.262,7.837 10.4118,12.9384 2.7282,6.4739 2.9138,18.8187 1.2882,26.4561"
       id="path8913" />
    <path
       style="fill:none;stroke:#ffffff;stroke-width:1.5;stroke-dasharray:none"
       d="m 1604.8757,1469.7675 c -2.6547,4.2866 60.8526,-7.9032 55.6013,0.869"
       id="path8915" />
    <path
       style="fill:none;stroke:#ffffff;stroke-width:1.5;stroke-dasharray:none"
       d="m 1184.3261,1653.5588 c 201.4625,22.0555 403.6977,-24.4193 605.0669,0.4828 42.4824,5.2535 66.7895,9.8906 109.2707,22.5939 6.5089,1.9464 12.5273,5.2945 18.5696,8.4003 0.7347,0.3777 10.1655,9.355 9.8751,3.8622"
       id="path8917" />
    <path
       style="fill:none;stroke:#ffffff;stroke-width:1.5;stroke-dasharray:none"
       d="m 1490.7775,1725.9752 c 3.6853,8.1428 7.8445,16.0874 11.0559,24.4285 6.1983,16.0994 7.7336,33.4751 12.4512,49.919 1.1575,4.0348 2.8374,-7.9014 4.1862,-11.8763 1.9199,-5.6573 6.1606,-18.9348 12.7733,-23.0767 15.7335,-9.8546 26.1036,19.0652 25.7611,29.8355"
       id="path8919" />
    <path
       style="fill:none;stroke:#ffffff;stroke-width:1.5;stroke-dasharray:none"
       d="m 1336.6165,1462.6692 c 13.9433,-28.7131 34.4057,-53.3934 54.7425,-77.727 5.3114,-6.3552 19.2729,-20.0279 22.6485,-29.6424"
       id="path8921" />
    <path
       style="fill:none;stroke:#ffffff;stroke-width:1.5;stroke-dasharray:none"
       d="m 1870.1959,1450.0204 c -1.7586,-13.4557 -5.4179,-15.6308 -17.6035,-7.5312 -7.6889,5.1107 -15.4745,12.317 -20.3943,20.2765 -27.2333,44.06 30.9424,36.2518 54.0986,19.6007 3.3833,-2.4328 6.0431,-8.0492 4.1862,-11.7797 -8.4855,-17.0471 -29.0088,-27.0267 -46.4775,-30.3183 -18.6411,-3.5126 -36.5409,14.4714 -14.0614,-9.8487"
       id="path8931" />
    <path
       style="fill:none;stroke:#ffffff;stroke-width:1.5;stroke-dasharray:none"
       d="m 1856.8859,1397.8807 c -3.2917,6.6301 -7.8429,12.7725 -9.8751,19.8903 -6.4991,22.764 -3.4972,74.719 -3.0054,98.776 0.3518,17.2128 -0.6022,37.8449 3.2201,55.0365"
       id="path8933" />
    <path
       style="fill:none;stroke:#ffffff;stroke-width:1.5;stroke-dasharray:none"
       d="m 2131.6631,1602.4223 c -3.8999,1.0299 -7.7735,2.1655 -11.6999,3.0898 -3.9263,0.9242 7.829,-1.9558 11.6999,-3.0898 5.5732,-1.6327 10.8186,-4.4528 16.5301,-5.5037 17.1771,-3.1605 42.9337,-0.886 41.54,5.5037 -0.9614,4.4078 -5.51,7.1451 -8.265,10.7176"
       id="path8935" />
    <path
       style="fill:none;stroke:#ffffff;stroke-width:1.5;stroke-dasharray:none"
       d="m 2139.9282,1632.8372 c -3.6853,1.8989 -12.9548,2.0114 -11.0559,5.6967 1.8989,3.6853 6.9549,-5.0892 11.0559,-5.6967 11.1888,-1.6574 22.6258,-0.3319 33.919,-0.9656 14.9336,-0.838 24.807,-2.4987 39.0711,-4.5381"
       id="path8937" />
    <path
       style="fill:none;stroke:#ffffff;stroke-width:1.5;stroke-dasharray:none"
       d="m 2248.018,1593.3461 c -16.1537,16.5881 14.3269,-16.3944 8.0504,-17.1868 -9.2104,-1.1629 -31.4986,28.9889 -18.3549,38.7186 20.333,15.0514 79.5622,-19.7277 59.5729,-37.2703 -18.0365,-15.8287 -52.3072,3.4725 -71.4874,6.7589 -0.4811,0.082 -0.1083,-1.0824 0.2146,-1.4483 2.4904,-2.8221 5.4644,-5.1828 8.0504,-7.9175 4.7514,-5.0247 9.3027,-10.2349 13.954,-15.3524"
       id="path8939" />
    <path
       style="fill:none;stroke:#ffffff;stroke-width:1.5;stroke-dasharray:none"
       d="m 2260.0399,1538.7924 c 8.2966,6.4241 -3.0894,-15.1682 -2.7908,-12.2625 0.4285,4.1701 2.1102,8.1261 2.7908,12.2625 4.0061,24.3468 4.8014,49.1906 4.8302,73.8648 0.024,20.2437 -7.8738,43.675 -4.1861,63.3401"
       id="path8941" />
    <path
       style="fill:none;stroke:#ffffff;stroke-width:1.5;stroke-dasharray:none"
       d="m 1924.6072,1353.5996 c 25.5375,55.4518 50.913,111.1673 72.7755,168.1991 13.4519,35.0916 25.7063,66.7242 27.264,104.6658 2.419,58.9231 -22.1737,111.7088 -58.3922,156.9022 -6.7799,8.4599 -16.7448,13.7752 -25.1171,20.6628"
       id="path8943" />
    <path
       style="fill:none;stroke:#ffffff;stroke-width:1.5;stroke-dasharray:none"
       d="m 1156.2784,1329.847 c -11.8991,25.3211 -25.2105,49.0147 -33.4895,75.9889 -24.9779,81.3815 -26.58,168.2421 -7.5137,251.0435 13.5218,58.7232 40.6542,118.4674 90.4863,154.4883"
       id="path8945" />
    <path
       style="fill:none;stroke:#ffffff;stroke-width:1.5;stroke-dasharray:none"
       d="m 223.0611,2047.7982 c 12.20916,31.3886 6.01088,67.0063 15.02739,99.4519"
       id="path8947" />
    <path
       style="fill:none;stroke:#ffffff;stroke-width:1.5;stroke-dasharray:none"
       d="m 260.95158,2136.3393 c 0.78006,-18.0101 -0.1536,-10.556 2.57617,-26.3595 0.71844,-4.1593 3.55696,-19.2284 3.86416,-23.9457 0.57629,-8.8496 -0.75538,-10.8177 0.32204,-18.4421 3.83288,-27.1235 22.02883,44.451 25.11717,45.2844 2.49713,0.6739 5.57146,-24.9801 6.11828,-27.3251 0.822,-3.5251 3.02174,-12.4853 5.15227,-9.559 9.69548,6.2263 5.54773,18.4848 10.62653,26.5527 1.01696,1.6155 1.05261,-2.4495 4.83023,-13.228 1.70762,-4.8723 4.39196,-13.9623 9.66046,-16.9937 14.47184,-8.3269 23.36983,29.7087 23.50713,37.3668"
       id="path8949" />
    <path
       style="fill:none;stroke:#ffffff;stroke-width:1.5;stroke-dasharray:none"
       d="m 185.70731,2214.7421 c 9.90292,14.5815 9.29009,32.8351 14.7054,48.7605 0.90734,2.6682 -0.35381,-2.4907 3.00548,-11.2971 1.46057,-3.8289 5.01321,-14.4 11.16317,-15.7385 13.136,-2.8588 21.13688,18.6091 24.15115,27.5182"
       id="path8951" />
    <path
       style="fill:none;stroke:#ffffff;stroke-width:1.5;stroke-dasharray:none"
       d="m 238.08849,2241.9707 c 3.79262,-0.2575 7.5942,-0.4063 11.37788,-0.7724 5.19966,-0.5032 10.4815,-0.6276 15.56409,-1.8346 31.74075,-7.5377 -0.85748,-15.248 -2.57611,-26.0699 -0.81012,-5.1012 5.27912,-9.0696 9.76779,-8.1106 12.98665,2.7745 5.80306,29.487 4.07888,37.4634 -0.62657,2.8986 -3.56398,10.8094 -1.39545,8.7866 1.26487,-1.18 1.789,-2.9611 2.6835,-4.4416"
       id="path8953" />
    <path
       style="fill:none;stroke:#ffffff;stroke-width:1.5;stroke-dasharray:none"
       d="m 309.14656,2217.8319 c -0.64403,5.9543 -1.71355,11.8777 -1.93208,17.8627 -1.02579,28.0932 31.00759,9.854 37.24646,-5.214 2.68156,-6.4765 1.04594,-13.239 -7.19168,-15.2557 -3.03316,-0.7425 -5.79972,2.6084 -8.90911,2.8967 -6.37791,0.5912 -14.33538,-4.4406 -19.21359,-0.2897 -4.36619,3.7153 0.0361,11.4944 -0.64403,17.1868 -0.15525,1.2994 -1.74409,2.1699 -1.82475,3.476 -0.0502,0.813 1.6208,-0.9293 1.71742,-1.738 0.74898,-6.2686 0.50091,-12.6165 0.75136,-18.9248 z"
       id="path8955" />
    <path
       style="fill:none;stroke:#ffffff;stroke-width:1.5;stroke-dasharray:none"
       d="m 324.38866,2187.8998 c -0.46515,-3.9266 -0.93029,-7.8532 -1.39544,-11.7798 -0.46513,-0.032 -1.39135,-0.5627 -1.39538,-0.097 -0.27483,31.771 9.20027,63.4126 14.16871,94.5276 2.28034,14.2807 3.07377,28.614 5.25954,42.8705"
       id="path8957" />
    <path
       style="fill:none;stroke:#ffffff;stroke-width:1.5;stroke-dasharray:none"
       d="m 520.60334,1939.2701 c -61.74582,82.1346 -71.71181,203.7583 -24.25847,294.6866 9.11897,17.4734 20.51803,34.4168 37.13913,45.3809"
       id="path8959" />
    <path
       style="fill:none;stroke:#ffffff;stroke-width:1.5;stroke-dasharray:none"
       d="m -84.463599,1759.2913 c 12.506404,-0.7318 -10.340578,-5.4589 -9.875123,-2.1242 3.144335,22.5266 11.085962,45.3091 17.818153,66.9128 3.018367,9.6859 16.268753,40.4464 13.739336,51.4638 -0.703315,3.0636 -6.146641,-1.5902 -8.909103,-3.0897"
       id="path8961" />
    <path
       style="fill:none;stroke:#ffffff;stroke-width:1.5;stroke-dasharray:none"
       d="m -87.791052,1860.6742 c 0.241962,-5.9037 -13.234038,-5.6017 -14.598018,-11.6831 -2.90208,-12.9393 39.874431,-27.0898 49.160989,-36.1116"
       id="path8963" />
    <path
       style="fill:none;stroke:#ffffff;stroke-width:1.5;stroke-dasharray:none"
       d="m -55.482226,1792.4097 c 5.545852,3.4438 11.560493,6.2278 16.637503,10.3314 3.360605,2.7163 21.899004,23.3546 24.795173,27.0355 1.97944,2.5158 6.3363577,10.6233 3.649503,8.883 -12.110439,-7.8435 -21.459888,-27.764 -9.66045,-39.8772 3.834201,-3.9362 9.087995,-6.1796 13.6319996,-9.2693"
       id="path8965" />
    <path
       style="fill:none;stroke:#ffffff;stroke-width:1.5;stroke-dasharray:none"
       d="m 22.660209,1775.3195 c 0.16201,14.9391 0.08925,34.9662 1.824752,49.1466 5.176301,42.2943 1.7707,-1.1414 4.937559,17.0902 0.02355,0.1355 -4.079372,-6.1715 -4.400859,-6.6623"
       id="path8967" />
    <path
       style="fill:none;stroke:#ffffff;stroke-width:1.5;stroke-dasharray:none"
       d="m -4.925791,1807.1827 c -3.5779525,-1.6415 -9.092411,-8.5023 -10.733857,-4.9244 -3.083648,6.7216 18.5759216,4.4063 35.207053,6.2761"
       id="path8969" />
    <path
       style="fill:none;stroke:#ffffff;stroke-width:1.5;stroke-dasharray:none"
       d="m 117.97676,1746.9322 c 2.03943,-3.6691 4.07886,-7.3381 6.11828,-11.0073 0.28625,-0.869 0.44108,-1.7929 0.85875,-2.6069 0.20827,-0.406 -0.007,0.9457 -0.21472,1.3517 -2.12889,4.1541 -6.79835,7.5948 -6.76231,12.2625 0.0439,5.6796 5.6558,10.0215 6.97703,15.5454 1.56394,6.5388 2.83722,51.2117 -3.2202,54.5537 -2.67402,1.4753 -8.13805,-2.6867 -9.87511,-3.7657"
       id="path8971" />
    <path
       style="fill:none;stroke:#ffffff;stroke-width:1.5;stroke-dasharray:none"
       d="m 71.928581,1767.5951 c -3.756851,-3.3151 -8.03701,-6.118 -11.270557,-9.9452 -0.672534,-0.796 2.331432,-0.3999 3.112807,0.2896 3.159324,2.7878 4.215842,8.1674 8.15775,9.6556 3.088367,1.1659 46.040739,2.5274 43.042699,17.0902"
       id="path8973" />
    <path
       style="fill:none;stroke:#ffffff;stroke-width:1.5;stroke-dasharray:none"
       d="m 703.72279,1990.0582 c 1.06399,4.4413 13.86554,-14.7851 7.83563,-15.1592 -2.64594,-0.1641 -5.18469,1.3406 -7.51366,2.607 -14.71078,7.9996 -29.15902,25.05 -22.75576,43.2568 3.81347,10.8431 11.88898,19.1553 19.85767,26.9389 4.2192,4.1212 10.38855,6.5964 13.20263,11.7797 0.5983,1.102 -2.52619,0.4338 -3.75682,0.1931"
       id="path8975" />
    <path
       style="fill:none;stroke:#ffffff;stroke-width:1.5;stroke-dasharray:none"
       d="m 671.09188,2042.6808 c 14.55092,-10.9338 34.00042,-15.3544 51.95181,-11.3935"
       id="path8977" />
    <path
       style="fill:none;stroke:#ffffff;stroke-width:1.5;stroke-dasharray:none"
       d="m 791.52566,1946.898 c 0.32203,-2.9288 3.89491,-8.4644 0.96608,-8.7865 -2.92883,-0.322 0.57901,6.2776 -0.96608,8.7865 -5.61983,9.1254 -15.32173,15.5421 -19.965,25.2009 -12.87577,26.784 1.68806,68.9202 28.55206,81.7823 5.32264,2.5484 11.66407,1.8024 17.49612,2.7035"
       id="path8979" />
    <path
       style="fill:none;stroke:#ffffff;stroke-width:1.5;stroke-dasharray:none"
       d="m 838.32527,2001.7414 c -4.36957,31.1969 32.07882,35.7196 37.46111,5.4071 6.40493,-36.072 -26.53781,-31.6278 -46.37029,-17.9593 -2.76657,1.9067 -5.15639,4.3638 -7.29901,6.952 -0.45381,0.5482 -0.83788,2.4678 -0.21466,2.1242 5.44539,-3.0022 10.03247,-9.6609 13.73929,-14.1937"
       id="path8981" />
    <path
       style="fill:none;stroke:#ffffff;stroke-width:1.5;stroke-dasharray:none"
       d="m 847.23429,1957.7122 c -0.85868,6.3727 -2.88068,12.6949 -2.57609,19.1179 0.073,1.5391 8.84,41.4678 9.12371,43.0637 1.88359,10.5962 2.46039,20.4745 3.43485,30.9942"
       id="path8983" />
    <path
       style="fill:none;stroke:#ffffff;stroke-width:1.5;stroke-dasharray:none"
       d="m 907.55852,2021.8249 c 5.2419,16.9549 -4.26148,33.2434 -6.33293,50.0156"
       id="path8985" />
    <path
       style="fill:none;stroke:#ffffff;stroke-width:1.5;stroke-dasharray:none"
       d="m 1011.8916,1967.4643 c -14.53752,-2.8571 -26.26271,10.8696 -30.05482,23.9457 -11.785,40.6375 49.82862,40.0785 60.53892,7.1451 3.0347,-9.3318 -26.7167,-31.6097 -30.4841,-31.0908 -0.7366,0.1014 -37.97928,22.8449 -38.85667,28.2907 -0.79001,4.9036 10.05822,-2.2918 13.84673,-5.5037 4.83952,-4.1029 8.51268,-9.4377 13.20264,-13.7108 18.188,-16.5714 14.8313,-1.7708 17.3888,-39.7807 0.151,-2.2441 -0.956,-6.6243 -3.1128,-5.9865 -3.0535,0.9031 -3.6813,5.2946 -4.7229,8.3038 -8.9467,25.8479 -7.6855,55.8703 -7.1916,82.7478 0.1757,9.567 -1.6087,19.5573 1.288,28.6769 0.8263,2.6015 4.3629,-3.5041 5.689,-5.8899"
       id="path8987" />
    <path
       style="fill:none;stroke:#ffffff;stroke-width:1.5;stroke-dasharray:none"
       d="m 1062.1259,1949.6982 c 2.1826,-3.6048 10.1524,-8.6317 6.5477,-10.8142 -3.6047,-2.1826 -6.7614,6.6056 -6.5477,10.8142 0.5169,10.1812 6.2998,19.4183 8.587,29.3527 1.4796,6.4264 1.8142,13.0638 2.6836,19.6007 0.6416,4.8239 3.6867,16.576 -0.7514,14.5798"
       id="path8989" />
    <path
       style="fill:none;stroke:#ffffff;stroke-width:1.5;stroke-dasharray:none"
       d="m 1057.8324,1994.017 c -2.3614,-2.8645 -6.1449,-5.0019 -7.0843,-8.5934 -0.4598,-1.7577 3.6999,-0.7957 15.564,-1.9311 9.6661,-0.925 19.1228,-0.7326 25.1173,-9.1728"
       id="path8991" />
    <path
       style="fill:none;stroke:#ffffff;stroke-width:1.5;stroke-dasharray:none"
       d="m 1099.0504,1949.1188 c 7.0105,13.9484 10.1756,29.4138 15.886,43.836 2.0195,5.1004 8.7555,-29.7683 15.4568,-19.9869 2.3097,3.3713 8.6221,30.8914 4.0788,28.2907"
       id="path8993" />
    <path
       style="fill:none;stroke:#ffffff;stroke-width:1.5;stroke-dasharray:none"
       d="m 1137.9069,1893.2133 c 4.7944,3.5404 11.3589,5.4856 14.3833,10.6211 14.4265,24.4971 5.6926,84.3029 -1.5027,110.7489 -0.2477,0.9105 -10.7338,28.3785 -10.7338,33.5046"
       id="path8995" />
    <path
       style="fill:none;stroke:#ffffff;stroke-width:1.5;stroke-dasharray:none"
       d="m 1257.2672,1975.1887 c 15.7568,4.6532 31.041,-6.3189 46.585,-5.4071 0.5499,0.032 -5.492,2.9012 -8.2651,1.9311"
       id="path8997" />
    <path
       style="fill:none;stroke:#ffffff;stroke-width:1.5;stroke-dasharray:none"
       d="m 1380.4919,1924.2075 c 1.9679,-2.7035 3.9357,-5.407 5.9036,-8.1105 0.036,-0.6759 0.5055,-2.5749 0.1072,-2.0277 -2.312,3.1764 -3.3241,7.2718 -6.0108,10.1382 -6.6334,7.0771 -16.4569,11.2357 -21.6824,19.4077 -3.1016,4.8506 -2.1747,11.4475 -1.7175,17.1868 1.9521,24.5042 41.3216,41.6968 16.5302,27.7113"
       id="path8999" />
    <path
       style="fill:none;stroke:#ffffff;stroke-width:1.5;stroke-dasharray:none"
       d="m 1347.2169,1980.0165 c -36.2126,-5.9725 18.7598,-13.1023 21.897,-13.5178 5.9159,-0.7835 11.8714,-1.2393 17.8181,-1.7379 2.4991,-0.2096 5.0058,-0.3863 7.5137,-0.3863 0.4483,0 1.6877,0.1831 1.2882,0.3863 -1.1458,0.5825 -2.5046,0.5793 -3.7569,0.8689"
       id="path9001" />
    <path
       style="fill:none;stroke:#ffffff;stroke-width:1.5;stroke-dasharray:none"
       d="m 1449.8324,1880.4681 c -16.4731,30.1563 -19.8764,61.2634 0.4295,90.2791 3.8094,5.4434 16.1645,20.2713 21.7896,23.2698"
       id="path9003" />
    <path
       style="fill:none;stroke:#ffffff;stroke-width:1.5;stroke-dasharray:none"
       d="m 1490.2991,1940.3323 c 1.789,-6.1795 3.9471,-12.264 5.3669,-18.5386 2.0122,-8.8927 -12.7436,8.4105 -5.3669,18.5386 6.6597,9.1436 23.8056,4.4557 30.9135,0.1931 8.9553,-5.3705 17.4411,-24.9406 0,-26.6492 -14.3609,-1.407 -27.2729,6.861 -38.5346,14.2901 -0.9998,0.6596 2.0492,-1.2793 2.8982,-2.1242 3.2062,-3.1903 6.2624,-6.5328 9.2312,-9.9451 7.3986,-8.5041 16.7979,-18.4941 15.0273,-30.8012 -0.4975,-3.4582 -3.8608,6.0291 -4.5082,9.4624 -2.5844,13.7033 -0.7039,73.4422 5.5815,81.3961 0.9331,1.1808 2.3614,-1.8668 3.5422,-2.8001"
       id="path9005" />
    <path
       style="fill:none;stroke:#ffffff;stroke-width:1.5;stroke-dasharray:none"
       d="m 1557.493,1941.3944 c 1.0671,-0.6032 -8.5442,41.1165 -4.7229,39.0083 2.7706,-1.5286 4.5082,-4.4415 6.7623,-6.6623"
       id="path9007" />
    <path
       style="fill:none;stroke:#ffffff;stroke-width:1.5;stroke-dasharray:none"
       d="m 1583.5762,1917.5453 c 24.7022,3.033 -1.2803,-15.029 -1.2882,-14.9661 -2.6196,20.8946 7.6587,50.439 32.0943,28.5804 13.3288,-11.9233 4.7053,-28.4775 -6.333,-25.2975 -8.6863,2.5024 -21.8259,20.3265 -24.4731,11.6832 -4.2039,-13.7257 11.5059,-26.3661 15.7788,-40.0704 1.3709,-4.3972 2.1648,-12.7622 -2.3615,-13.6143 -10.0811,-1.8979 3.0898,66.8129 4.2936,73.5751 2.4035,13.5018 3.8803,20.7814 4.2936,19.2144 0.521,-1.9755 0.5008,-4.0553 0.7512,-6.083"
       id="path9009" />
    <path
       style="fill:none;stroke:#ffffff;stroke-width:1.5;stroke-dasharray:none"
       d="m 1619.5345,1843.9702 c 0.079,-1.7628 0.5047,-17.0468 1.61,-18.8282 1.703,-2.7445 6.0055,1.9328 12.4515,14.2901 4.127,7.9118 7.9077,16.0234 11.163,24.3319 17.3759,44.3484 20.5843,74.0602 1.7175,118.087 -5.6227,13.121 -3.0247,10.1127 -9.9825,15.835"
       id="path9011" />
    <path
       style="fill:none;stroke:#ffffff;stroke-width:1.5;stroke-dasharray:none"
       d="m 634.70419,2151.5951 c 17.28062,-11.4299 10.88263,-9.8624 31.34283,-12.9384 34.11225,-5.1285 69.00047,-5.1857 103.36683,-7.4348 34.48315,-2.2568 55.6096,-4.0815 90.80844,-7.2416 115.41284,-10.3618 230.83741,-19.4112 346.59581,-25.1044 94.6622,-4.6557 189.3127,-6.9616 284.0176,-10.2348 69.7311,-2.4101 139.224,-2.5217 208.9881,-2.7036 2.2831,-0.01 18.7412,0 24.2585,-0.5793 1.2458,-0.1318 -2.515,-0.068 -3.7568,0.097"
       id="path9013" />
    <path
       style="fill:none;stroke:#ffffff;stroke-width:1.5;stroke-dasharray:none"
       d="m 1170.4304,2211.8455 c -0.2146,6.0186 -1.3703,12.0773 -0.6439,18.0558 0.7226,5.9479 3.4963,11.4677 4.9375,17.2834 1.137,4.5883 1.967,9.2492 2.7908,13.9039 4.2352,23.9308 5.3655,-21.2736 23.6145,-10.8141 5.7539,3.2979 15.7958,22.8061 18.8915,22.9801 1.4087,0.079 2.3614,-1.5449 3.5421,-2.3173"
       id="path9015" />
    <path
       style="fill:none;stroke:#ffffff;stroke-width:1.5;stroke-dasharray:none"
       d="m 1670.9497,1792.6028 c 0.4294,4.2163 -0.38,8.7528 1.2881,12.6488 4.3758,10.2197 11.3339,19.1386 16.5302,28.9666 11.5929,21.9262 26.5277,57.3729 33.4894,77.92 11.2191,33.1127 20.15,68.4022 22.3265,103.5071 3.8293,61.7598 -7.9016,134.2894 -42.7207,186.9309 -10.602,16.0286 -23.9119,30.2458 -37.7833,43.5464 -5.862,5.6207 -13.8823,8.4324 -20.8235,12.6487"
       id="path9017" />
    <path
       style="fill:none;stroke:#ffffff;stroke-width:1.5;stroke-dasharray:none"
       d="m 1069.9598,1944.7814 c 0.9911,26.5143 10.6067,51.9936 12.7732,78.3063 0.025,0.3079 -0.1719,-0.5991 -0.322,-0.8691 -4.0583,-7.3012 -0.1149,0.4916 -3.2202,-5.7933"
       id="path9019" />
    <path
       style="fill:none;stroke:#ffffff;stroke-width:1.5;stroke-dasharray:none"
       d="m 1055.6838,1994.797 c -19.7389,-0.114 51.6411,-24.4843 41.1106,-17.38"
       id="path9021" />
    <path
       style="fill:none;stroke:#ffffff;stroke-width:1.5;stroke-dasharray:none"
       d="m 1101.41,1937.1535 c 1.7889,6.4692 3.5387,12.9494 5.3669,19.4076 3.9892,14.0923 6.8222,27.5691 9.3384,41.905 2.0217,11.5186 -1.6677,-24.7055 10.9485,-22.0146 10.8156,2.3069 14.0755,18.6353 14.8127,27.4217 0.9557,11.3907 -2.8171,-35.5907 -17.7109,-34.2771 -11.8967,1.0492 -0.031,72.3363 -5.6888,35.8219 -1.0869,-7.0142 -2.1361,-14.0343 -3.2202,-21.049 -0.9553,-6.1812 -1.9413,-12.3576 -2.8981,-18.5386 -3.6565,-23.6221 1.3728,-14.5977 -10.9485,-28.6769 z"
       id="path9023" />
    <path
       style="fill:none;stroke:#ffffff;stroke-width:1.5;stroke-dasharray:none"
       d="m 1117.966,2560.2272 c -5.689,2.3495 -11.7989,3.8653 -17.0668,7.0485 -4.2425,2.5636 -7.658,6.3362 -11.0559,9.9453 -40.0704,42.5614 62.6438,12.9522 53.6692,-10.6212 -2.6115,-6.8594 -20.2251,-9.0798 -25.5465,-6.3726 -6.9821,3.552 -12.3768,9.6139 -18.3549,14.6764 -4.1097,3.4803 -12.8198,7.3933 -10.5192,12.2625 0.9352,1.9794 6.6738,-0.5184 12.7733,-7.5313 2.7957,-3.2144 3.935,-7.6321 6.655,-10.9108 2.704,-3.2594 8.3535,-4.4051 9.4458,-8.4968 1.7984,-6.7367 -0.9747,-13.9123 -1.6101,-20.8559 -0.3308,-3.6151 -0.4077,-7.2923 -1.288,-10.8142 -1.7535,-7.0146 -6.4004,-7.9261 -6.1183,-6.083 1.9572,12.7894 8.1011,24.8472 9.0164,37.7531 0.4464,6.2953 -4.7021,11.9471 -5.0449,18.2489 -0.977,17.9568 -0.2958,36.1614 2.7907,53.8779 0.074,0.4229 1.2405,0.4267 1.2881,0 0.819,-7.3354 0.7871,-14.7408 1.1807,-22.1112"
       id="path9025" />
    <path
       style="fill:none;stroke:#ffffff;stroke-width:1.5;stroke-dasharray:none"
       d="m 1153.4951,2490.804 c 2.2898,-6.0508 4.1161,-12.298 6.8695,-18.1524 2.0483,-4.3549 10.6455,-14.4672 10.7339,-9.6554 0.2029,11.0441 -18.1091,51.9768 -14.3834,56.195 6.8262,7.7285 26.5842,-4.8569 35.4218,8.0141 5.0449,1.0621 12.1175,-0.994 15.1347,3.1864 4.4801,6.2072 2.2784,15.1404 3.5422,22.6904 1.1336,6.7733 2.4035,13.5232 3.6495,20.2767 0.1495,0.8106 -0.03,3.0123 0.5367,2.4138 6.2447,-6.5942 3.1165,-19.8252 14.1686,-23.656 4.9746,-1.7243 13.2972,30.5 17.2816,34.084"
       id="path9027" />
    <path
       style="fill:none;stroke:#ffffff;stroke-width:1.5;stroke-dasharray:none"
       d="m 1026.5136,2664.3138 c 22.9936,-10.8646 -23.9882,4.8625 -18.7842,1.3518 7.1702,-4.8374 85.3436,-13.6872 96.39,-14.7731 83.8627,-8.2441 168.5028,-16.5237 252.782,-19.311"
       id="path9029" />
    <path
       style="fill:none;stroke:#ffffff;stroke-width:1.5;stroke-dasharray:none"
       d="m 1137.1795,2747.4477 c -5.0449,3.7336 -11.2966,6.2347 -15.1347,11.2004 -2.3483,3.0382 -3.2037,7.5763 -2.254,11.2969 5.6666,22.2014 51.4668,0.757 53.8838,-14.7728 2.3947,-15.3863 -19.6928,-9.122 -25.3319,-8.4005 -3.6977,0.4734 -8.0127,-1.3168 -11.1632,0.676 -6.8972,4.363 -11.3036,11.8592 -15.9933,18.5386 -0.243,0.3461 0.8362,-0.326 1.0734,-0.676 10.2012,-15.0551 0.5651,-4.6461 14.9199,-17.8626 z"
       id="path9031" />
    <path
       style="fill:none;stroke:#ffffff;stroke-width:1.5;stroke-dasharray:none"
       d="m 1138.4676,2728.5229 c 0.9303,-3.6047 2.3305,-7.12 2.7908,-10.8141 2.261,-18.1493 -6.7025,-19.2116 -2.7908,10.8141 2.3065,17.7043 5.3172,35.3269 8.9092,52.8156 0.053,0.2569 3.9466,19.0711 11.0558,17.5731 3.2767,-0.6903 7.717,-11.9946 8.8017,-14.3867"
       id="path9033" />
    <path
       style="fill:none;stroke:#ffffff;stroke-width:1.5;stroke-dasharray:none"
       d="m 1207.5935,2710.1775 c 2.2899,-3.283 4.5798,-6.5659 6.8698,-9.8486 0.4293,-0.8692 1.8425,-3.402 1.288,-2.6072 -2.8394,4.0709 -3.8283,10.029 -8.1578,12.4558 -5.8171,3.2604 -13.2147,1.8605 -19.7502,3.1863 -5.6877,1.1536 -16.02,6.5088 -17.3888,0.8689 -2.3743,-9.7832 19.5711,-49.2461 21.4676,-48.4706 1.0511,0.4297 0.2679,2.2553 0.4294,3.3793 1.1982,8.3386 0.7164,17.1109 3.6496,25.0079 2.2958,6.1809 9.558,9.7562 11.5924,16.0282 1.6242,5.0067 -1.587,10.4833 -1.288,15.7384 0.268,4.7099 2.7436,9.0321 3.8643,13.6144"
       id="path9035" />
    <path
       style="fill:none;stroke:#ffffff;stroke-width:1.5;stroke-dasharray:none"
       d="m 1262.6582,2720.8949 c 4.267,10.7403 14.8901,51.9732 5.4743,62.3748 -0.9134,1.0091 -2.7193,0.1288 -4.0789,0.1931"
       id="path9037" />
    <path
       style="fill:none;stroke:#ffffff;stroke-width:1.5;stroke-dasharray:none"
       d="m 1252.6758,2758.6481 c 9.3521,-13.1964 23.8611,-6.11 33.3823,-17.0903"
       id="path9039" />
    <path
       style="fill:none;stroke:#ffffff;stroke-width:1.5;stroke-dasharray:none"
       d="m 1291.4249,2724.6608 c 2.4688,3.3149 5.3983,6.3322 7.4064,9.9451 4.8565,8.7374 6.2365,18.1147 9.1238,27.4217 2.9349,9.4602 0.068,-12.0438 7.5137,-15.8351 4.8737,-2.4815 9.3819,15.7226 9.4458,16.1248"
       id="path9041" />
    <path
       style="fill:none;stroke:#ffffff;stroke-width:1.5;stroke-dasharray:none"
       d="m 1315.5761,2695.8873 c 1.2523,-3.2829 2.0891,-6.7561 3.7568,-9.8486 0.858,-1.5912 9.6093,-10.0605 11.378,-6.083 4.0328,9.0689 -5.9094,33.305 -2.6836,37.0771 0.6317,0.7387 26.4197,-10.2857 32.5236,-5.7933"
       id="path9043" />
    <path
       style="fill:none;stroke:#ffffff;stroke-width:1.5;stroke-dasharray:none"
       d="m 1509.8446,2618.5706 c 13.9698,1.7162 49.4098,-10.5904 60.6462,-0.4827"
       id="path9045" />
    <path
       style="fill:none;stroke:#ffffff;stroke-width:1.5;stroke-dasharray:none"
       d="m 1666.344,2569.9068 c -13.8806,-1.7453 -10.6054,-4.3018 -19.6429,12.166 -2.967,5.4062 -5.4281,11.15 -7.0844,17.0903 -12.3733,44.3746 56.9542,15.6817 54.2059,-6.4693 -2.5671,-20.6906 -30.3381,-2.7455 -36.7097,0.4829 -3.2918,1.6678 -6.4596,3.5707 -9.6604,5.4071 -1.3438,0.7709 -3.8969,3.9612 -3.9716,2.4138 -0.3868,-8.0012 21.154,-26.7835 22.8631,-31.0908 3.0178,-7.6056 2.9869,-54.1098 -5.7962,-36.2081 -11.1891,22.8055 2.7151,10.1663 5.7962,36.2081 1.0689,9.0354 -4.0269,17.9411 -3.7569,27.0355 0.807,27.1764 12.344,54.0127 12.344,81.4926"
       id="path9047" />
    <path
       style="fill:none;stroke:#ffffff;stroke-width:1.5;stroke-dasharray:none"
       d="m 969.18064,2882.1664 c 23.03934,-0.7048 45.24576,3.4047 68.37466,1.7378 47.5104,-3.4237 125.8384,-14.9511 164.0132,-20.0832 146.5779,-19.7064 292.9517,-40.0042 440.4096,-52.0433 34.781,-2.8397 66.8642,-4.8799 101.5422,-5.7933 29.412,-0.7747 20.4422,-4.4458 34.1337,2.8967"
       id="path9049" />
    <path
       style="fill:none;stroke:#ffffff;stroke-width:1.5;stroke-dasharray:none"
       d="m 1459.8248,2898.9669 c -0.4294,5.053 -1.9168,10.1272 -1.2881,15.1593 0.7912,6.3323 3.6244,12.2378 5.4744,18.3454 1.5133,4.9964 2.8885,10.0394 4.6154,14.9659 7.7811,22.1983 14.9894,-25.3238 29.3035,-17.7659 5.2929,2.7945 15.2227,20.8981 16.1007,20.8557 1.3999,-0.067 2.1468,-1.8023 3.2202,-2.7035"
       id="path9051" />
    <path
       style="fill:none;stroke:#ffffff;stroke-width:1.5;stroke-dasharray:none"
       d="m 495.20861,2848.7236 c 12.93961,16.3999 13.23229,37.9923 25.11721,54.6502"
       id="path9053" />
    <path
       style="fill:none;stroke:#ffffff;stroke-width:1.5;stroke-dasharray:none"
       d="m 540.50548,2892.9458 c 2.41065,-19.2879 -7.92916,-54.8576 5.25955,-71.5473 3.37413,-4.2698 18.78452,18.2129 21.46771,22.8836 4.2513,7.4001 2.22581,10.2571 4.0789,-0.1932 0.90008,-5.076 3.26763,-16.4412 7.51366,-13.5178 9.37188,6.4532 7.80055,17.0267 12.45126,25.3942 0.40804,0.7339 0.0143,-1.695 0.21466,-2.5104 1.69878,-6.9199 2.60739,-14.1399 5.47426,-20.6629 2.44049,-5.5528 7.9517,-4.9191 12.02192,-2.5104 9.10987,5.3912 25.1573,22.0176 23.50712,33.8908"
       id="path9055" />
    <path
       style="fill:none;stroke:#ffffff;stroke-width:1.5;stroke-dasharray:none"
       d="m 485.11884,2985.156 c 14.40767,10.3193 16.78443,24.506 23.8291,38.8152 0.38416,0.7802 -0.0175,-1.7463 0.10733,-2.607 0.58058,-4.0039 2.30967,-20.6917 11.05589,-17.5731 14.13092,5.0388 20.91349,12.5535 27.69333,24.5251"
       id="path9057" />
    <path
       style="fill:none;stroke:#ffffff;stroke-width:1.5;stroke-dasharray:none"
       d="m 558.21632,3001.7636 c 8.41912,-11.0752 30.73286,-8.0504 39.50057,-19.6974 15.58055,-20.697 -24.81945,-6.4688 -16.53016,-15.835 16.98104,-19.1874 26.42875,-14.3156 32.52356,10.428 1.21449,4.9305 1.04468,10.102 1.50278,15.1593 0.32909,3.6332 -1.11691,7.8438 0.85868,10.9106 1.05151,1.6325 3.86419,-0.3863 5.79631,-0.5794"
       id="path9059" />
    <path
       style="fill:none;stroke:#ffffff;stroke-width:1.5;stroke-dasharray:none"
       d="m 646.23386,2966.6174 c 0.25032,7.792 -1.91842,33.608 15.24203,27.2286 20.99583,-7.8052 28.6353,-41.2155 9.66047,-38.9118 -3.86882,0.4697 -7.20558,2.9795 -10.7338,4.6348 -4.77557,2.2404 -10.92909,2.8855 -14.1687,7.0484 -4.56415,5.8653 -5.57165,13.8089 -7.62106,20.9524 -0.35663,1.2433 2.02671,-1.7777 2.46877,-2.993 2.12884,-5.8528 3.09639,-12.0806 5.15229,-17.9594 3.35219,-9.5853 8.52199,-18.5536 11.05585,-28.3871 1.27704,-4.9562 0.50265,-10.2425 0.21471,-15.3524 -0.10824,-1.9207 -0.79944,-7.4293 -1.39544,-5.6002 -1.1575,3.5525 -1.03934,7.5144 -0.42931,11.2006 2.69692,16.2962 7.23106,32.2411 10.30448,48.4706 9.71161,51.2834 5.11054,35.9735 12.55861,88.2515 1.31789,9.2501 -0.5923,9.1617 3.54211,8.3037"
       id="path9061" />
    <path
       style="fill:none;stroke:#ffffff;stroke-width:1.5;stroke-dasharray:none"
       d="m 881.84179,2607.6252 c -36.90704,57.821 -74.39316,138.5089 -80.82584,206.4351 -8.64468,91.2834 29.1102,201.1053 94.99454,266.3957 8.31049,8.2357 17.9613,14.9982 26.94192,22.4975"
       id="path9063" />
    <path
       style="fill:none;stroke:#ffffff;stroke-width:1.5;stroke-dasharray:none"
       d="m 1824.9176,2509.4286 c 21.1766,69.8352 61.9743,132.842 79.1084,204.1175 18.5715,77.2555 0.011,162.4703 -53.1326,221.8841"
       id="path9065" />
    <path
       style="fill:none;stroke:#ffffff;stroke-width:1.5;stroke-dasharray:none"
       d="m 2087.0619,2749.8737 c -4.2936,1.7701 -8.5083,3.7452 -12.8807,5.3104 -0.8856,0.317 1.4919,-1.1863 2.3615,-1.5449 3.4431,-1.4194 7.0023,-2.54 10.5192,-3.7655 1.3621,-0.4747 73.7219,-23.6236 64.403,-14.1936"
       id="path9067" />
    <path
       style="fill:none;stroke:#ffffff;stroke-width:1.5;stroke-dasharray:none"
       d="m 2103.914,2761.6535 c 7.0746,12.0123 -24.6879,6.532 -24.6879,16.4145 0,2.5476 5.1112,-0.1421 7.6211,-0.5795 5.4503,-0.9496 10.7924,-2.4423 16.2081,-3.5726 19.8896,-4.1508 40.0106,-7.3393 59.6801,-12.4556"
       id="path9069" />
    <path
       style="fill:none;stroke:#ffffff;stroke-width:1.5;stroke-dasharray:none"
       d="m 2202.6654,2727.473 c 2.6119,-6.8233 7.047,-13.2064 7.8357,-20.4697 0.2011,-1.8524 -3.9909,-1.2595 -5.5817,-0.2898 -4.3176,2.6319 -19.3053,17.4665 -17.2814,24.3319 2.1053,7.1417 8.5973,13.2292 15.4567,16.1248 5.4779,2.3122 12.0492,-0.3077 17.7109,-2.1244 32.3165,-10.3682 22.2087,-45.0625 -8.2651,-37.0771 -12.0556,3.1591 -29.5354,9.0713 -39.2859,19.6972 -0.2696,0.2939 0.8436,0.4061 1.1807,0.1931 2.7624,-1.7452 5.4796,-3.6261 7.8358,-5.8898 13.239,-12.7196 24.4635,-28.247 27.8007,-46.7326 1.0711,-5.9333 1.6747,-12.0568 1.0734,-18.056 -0.2157,-2.1516 -1.8409,-6.9649 -3.4349,-5.5036 -2.6623,2.4411 -2.0267,7.0112 -2.1468,10.6212 -0.4902,14.7328 0.1768,29.4817 0.322,44.2222 0.2955,29.9971 0.9338,40.5529 0,72.0302 -0.4285,14.4433 -2.3615,29.541 -2.3615,44.1256"
       id="path9071" />
  </g>
</svg>
