<?xml version="1.0" encoding="UTF-8" standalone="no"?>
<!-- Created with Inkscape (http://www.inkscape.org/) -->

<svg
   width="752.97278mm"
   height="460.28198mm"
   viewBox="0 0 752.97276 460.28199"
   version="1.1"
   id="svg12"
   inkscape:version="1.2.1 (9c6d41e410, 2022-07-14, custom)"
   sodipodi:docname="jace.svg"
   xml:space="preserve"
   xmlns:inkscape="http://www.inkscape.org/namespaces/inkscape"
   xmlns:sodipodi="http://sodipodi.sourceforge.net/DTD/sodipodi-0.dtd"
   xmlns="http://www.w3.org/2000/svg"
   xmlns:svg="http://www.w3.org/2000/svg"><sodipodi:namedview
     id="namedview14"
     pagecolor="#000000"
     bordercolor="#ffffff"
     borderopacity="1"
     inkscape:showpageshadow="0"
     inkscape:pageopacity="0"
     inkscape:pagecheckerboard="0"
     inkscape:deskcolor="#000000"
     inkscape:document-units="mm"
     showgrid="true"
     inkscape:zoom="0.32391637"
     inkscape:cx="685.36209"
     inkscape:cy="858.24622"
     inkscape:window-width="1366"
     inkscape:window-height="746"
     inkscape:window-x="0"
     inkscape:window-y="0"
     inkscape:window-maximized="1"
     inkscape:current-layer="layer1"
     inkscape:lockguides="true"><inkscape:grid
       type="xygrid"
       id="grid344"
       color="#969696"
       opacity="0.39215686"
       empcolor="#ffffff"
       empopacity="0.17254902"
       dotted="false"
       originx="-3936.3716"
       originy="-3810.1786" /></sodipodi:namedview><defs
     id="defs9" /><g
     inkscape:label="Layer 1"
     inkscape:groupmode="layer"
     id="layer1"
     transform="translate(-4041.3717,-3958.6785)"><path
       style="fill:none;stroke:#ff9955;stroke-width:3"
       d="m 4174.9187,4198.8382 c 6.3156,-6.2902 17.2143,-4.8551 23.1934,-11.7356 7.4097,-8.5265 9.797,-28.2618 6.5892,-39.1978 -2.6186,-8.9257 -12.7318,-11.2818 -4.8321,-22.4044 4.2894,-6.0393 11.6925,-10.5674 18.669,-12.8815 3.4795,-1.1541 7.5176,-0.5321 10.8498,-2.0942 5.5591,-2.6058 10.6849,-12.6044 13.8369,-17.2675 3.701,-5.475 9.0731,-10.7198 9.2686,-17.5836"
       id="path971" /><path
       style="fill:none;stroke:#ff9955;stroke-width:3"
       d="m 4243.8398,4068.877 c -4.6085,-10.5741 -10.0068,-21.9917 -18.537,-30.0305 -6.092,-5.7409 -14.0777,-10.1203 -18.3174,-17.6231 -2.6913,-4.7628 -3.2377,-10.278 -5.4909,-15.213 -4.4077,-9.6534 -15.8247,-29.341 -22.271,-36.5504 -3.4563,-3.8653 -7.8767,-6.3121 -11.7724,-9.6411"
       id="path975" /><path
       style="fill:none;stroke:#ff9955;stroke-width:3"
       d="m 4186.208,3964.3234 c 3.7195,8.1576 9.4728,14.329 15.1987,20.9817 1.86,2.1611 3.5465,4.7821 5.7105,6.6779 1.7595,1.5417 3.9119,2.6672 5.7544,4.1095 3.3803,2.6463 6.2511,5.9113 9.7518,8.3769 7.417,5.2245 14.9211,10.2201 22.139,15.7266 10.6325,8.1116 17.0214,11.1448 24.7308,22.9971 2.1754,3.3446 3.6195,7.0802 5.4028,10.6291 3.8071,7.5752 7.5975,15.232 9.7957,23.4714 0.7287,2.731 0.7607,5.5549 1.4057,8.2979 3.3227,14.1293 7.2713,37.615 22.7542,43.5837"
       id="path977" /><path
       style="fill:none;stroke:#ff9955;stroke-width:3"
       d="m 4320.2726,4100.0139 c 0.6003,-1.7386 1.2007,-3.4771 1.801,-5.2157"
       id="path979" /><path
       style="fill:none;stroke:#ff9955;stroke-width:3"
       d="m 4306.5235,4124.9869 c 1.6251,-0.1977 3.3827,0.079 4.8758,-0.593 1.1795,-0.5302 1.8132,-1.8452 2.6797,-2.8053 11.8319,-13.1115 9.5435,-31.3743 6.6767,-47.5353"
       id="path981" /><path
       style="fill:none;stroke:#ff9955;stroke-width:3"
       d="m 4322.3811,4086.2633 c -0.7051,-14.15 1.0318,-29.1963 13.9247,-37.7754 4.9562,-3.298 11.7383,-3.0324 15.9893,-7.3496 6.5203,-1.3139 8.6136,-3.4235 12.2557,-7.9817"
       id="path983" /><path
       style="fill:none;stroke:#ff9955;stroke-width:3"
       d="m 4337.2721,3985.7004 c 6.3259,-3.0094 8.0833,-0.2048 9.0051,5.8481 1.3703,8.9982 -2.2728,23.5148 3.602,31.374 3.7785,5.0546 11.5866,5.7227 17.1754,7.7447 5.0687,1.8338 16.1947,7.83 19.5914,11.0243"
       id="path985" /><path
       style="fill:none;stroke:#ff9955;stroke-width:3"
       d="m 4382.1653,4034.6581 c 23.9381,10.0873 22.2358,23.5604 27.7619,45.2432 1.4356,5.6341 2.3471,11.103 5.3149,16.1613"
       id="path987" /><path
       style="fill:none;stroke:#ff9955;stroke-width:3"
       d="m 4410.059,4073.6188 c 5.1006,19.7535 19.1955,34.7221 29.8701,51.526 2.5905,4.0778 5.1821,7.9859 6.5889,12.605"
       id="path989" /><path
       style="fill:none;stroke:#ff9955;stroke-width:3"
       d="m 4438.0402,4120.6009 c 4.5315,13.5993 5.4872,27.2177 2.6355,41.2919 -1.8856,9.3075 -4.2505,18.0234 -3.0747,27.541"
       id="path991" /><path
       style="fill:none;stroke:#ff9955;stroke-width:3"
       d="m 4394.7724,4144.1906 c 0.1995,-3.3798 0.953,-6.2992 3.2507,-8.8117 3.3173,-3.6277 9.9007,-2.9586 11.7284,-7.7843 3.2438,-8.5653 -4.4164,-19.2937 -6.677,-27.7781 -2.7422,-10.2923 -2.295,-22.2049 -0.7027,-32.6384 -6.1311,-12.6602 -15.3686,-23.4526 -24.3355,-34.1796"
       id="path993" /><path
       style="fill:none;stroke:#ff9955;stroke-width:3"
       d="m 4371.7108,4028.2962 c 0.9956,-1.1721 1.9126,-2.4159 2.9869,-3.5166 2.1804,-2.2336 5.0265,-3.715 7.204,-6.0457 3.6756,-3.9338 6.5919,-9.0704 11.2454,-11.9726 3.8105,-2.3765 8.0086,-1.5698 11.421,-4.7416 1.9015,-1.7677 4.2283,-3.7442 5.8422,-5.6902 3.6735,-4.4294 6.0349,-9.6816 10.4545,-13.5136 7.5758,-6.5685 18.5499,-6.4362 27.8056,-4.9392 8.082,1.3068 14.7373,-1.7949 17.7906,8.1793"
       id="path995" /><path
       style="fill:none;stroke:#ff9955;stroke-width:3"
       d="m 4473.0499,3979.4967 c 0.8639,1.4883 1.8944,2.8917 2.5916,4.4651 3.0374,6.852 -7.7478,21.9964 -2.7673,33.9818 2.0357,4.8996 5.9928,6.6609 9.9274,9.6414"
       id="path997" /><path
       style="fill:none;stroke:#ff9955;stroke-width:3"
       d="m 4388.0517,4028.7704 c 4.7445,-3.17 11.8986,-2.0688 16.4285,-5.5714 4.7628,-3.6827 6.8093,-8.9522 9.7957,-13.9483 3.6282,-6.0701 7.5433,-11.8655 10.7619,-18.1763 2.0437,-4.0069 3.574,-7.8145 6.8527,-10.985"
       id="path999" /><path
       style="fill:none;stroke:#ff9955;stroke-width:3"
       d="m 4345.7501,4132.613 c -0.6882,1.462 -1.584,2.8432 -2.0645,4.386 -1.0967,3.5202 2.6511,14.2271 4.0851,17.3071 3.8201,8.2042 9.3504,17.4356 17.8782,21.2979 5.9423,2.6914 12.817,2.685 19.0204,4.5046 5.4845,1.6089 10.7169,3.9798 16.0332,6.006 3.2425,1.2362 6.7273,1.4597 9.62,3.596 7.2422,5.3483 14.7611,21.4056 18.9325,29.3192"
       id="path1001" /><path
       style="fill:none;stroke:#ff9955;stroke-width:3"
       d="m 4428.1128,4212.0753 c 9.607,10.0555 24.0959,27.922 38.7874,30.3466 7.5329,1.2436 27.6212,-3.8692 34.5263,-8.0211 3.7279,-2.2415 4.9604,-3.498 8.1266,-6.2037 11.3687,-6.1172 20.3998,-4.8681 32.5498,-1.2249 3.1553,0.9461 9.4535,2.6235 11.948,5.2948"
       id="path1003" /><path
       style="fill:none;stroke:#ff9955;stroke-width:3"
       d="m 4549.2189,4232.5434 c 4.2678,-1.1808 8.1704,-3.1689 12.0359,-5.2551"
       id="path1005" /><path
       style="fill:none;stroke:#ff9955;stroke-width:3"
       d="m 4549.1311,4187.972 c -3.1036,-2.6736 -6.6125,-4.6834 -10.1031,-6.7569 -4.9469,-2.9388 -11.4903,-1.5886 -13.266,-8.377 -0.5799,-2.2177 -1.1546,-4.5733 -0.8345,-6.8755 0.2543,-1.8309 0.5901,-4.6103 2.372,-5.6898 3.3124,-2.0069 7.3562,-2.4548 8.917,-6.5593 1.5899,-4.1804 2.5752,-8.9088 2.9872,-13.3559 0.8186,-8.8358 -2.1408,-19.5715 7.072,-24.8145 1.9757,-1.1245 4.0876,-1.841 6.3696,-1.225 2.3132,0.6241 5.1702,2.8985 7.6433,2.2918 4.5,-1.1041 9.7726,-3.7034 13.2659,-6.7175 1.1854,-1.0229 3.4039,-4.3516 5.1393,-4.6231 3.0168,-0.472 11.1511,6.6657 12.6508,8.9302 3.3644,5.08 1.1567,24.882 -0.5271,30.9394 -0.8665,3.1178 -3.4525,6.0214 -3.5142,9.2858 -0.1929,10.2325 9.3922,19.3609 3.5142,29.2401 -4.8792,8.2013 -16.4396,12.4418 -19.1521,21.9303 -0.6501,2.2744 -0.9348,5.1631 -0.1757,7.4681 0.6779,2.0577 8.1338,11.5679 3.1189,13.1186 -3.0527,0.944 -7.2766,-5.3218 -8.0386,-7.1914 -2.5717,-6.3095 -0.3767,-15.3154 -2.8993,-22.8788 -1.8544,-5.5607 -9.6887,-9.5628 -13.6173,-13.7112"
       id="path1007" /><path
       style="fill:none;stroke:#ff9955;stroke-width:3"
       d="m 4544.0794,4114.081 c -4.9292,7.3708 -14.4518,7.321 -20.6894,12.6839 -8.4632,7.276 -10.7023,18.37 -10.8061,29.0822"
       id="path1009" /><path
       style="fill:none;stroke:#ff9955;stroke-width:3"
       d="m 4512.1447,4151.5005 c -2.132,8.1008 -10.7003,13.1921 -9.2247,22.4835 0.7279,4.5823 5.0478,9.9311 7.7312,13.6324"
       id="path1011" /><path
       style="fill:none;stroke:#ff9955;stroke-width:3"
       d="m 4503.3153,4186.6679 c -5.2832,13.7678 -26.1458,8.3619 -33.3404,18.5322 -2.2256,-1.3435 -4.6764,-2.3701 -6.6767,-4.0305 -6.8657,-5.699 -10.1337,-20.5658 -12.7827,-28.6081"
       id="path1013" /><path
       style="fill:none;stroke:#ff9955;stroke-width:3"
       d="m 4455.567,4124.078 c -2.704,18.4383 -1.6264,9.9627 -3.3824,25.4074 -4.503,10.6068 -2.6546,21.7218 -1.1859,32.8756 0.3505,2.662 1.8497,7.7052 2.5038,7.7052 1.203,0 -0.069,-2.4167 -0.3074,-3.5958 -0.8205,-4.0592 -1.9425,-8.0644 -2.0207,-12.2493 -0.1985,-10.6284 1.516,-21.2354 1.2739,-31.8482 -0.065,-2.8436 -1.2107,-11.5379 -1.4496,-13.9879 -1.0267,-10.5278 -0.9582,-20.3668 -4.7002,-30.4652"
       id="path1015" /><path
       style="fill:none;stroke:#ff9955;stroke-width:3"
       d="m 4449.9883,4108.4306 c -7.1501,-10.8657 -8.1018,-24.605 -16.3407,-34.9303 -4.9784,-6.2392 -12.8566,-8.4405 -20.0747,-10.8665"
       id="path1017" /><path
       style="fill:none;stroke:#ff9955;stroke-width:3"
       d="m 4581.8127,4197.5737 c 3.9309,10.4833 10.5992,28.3755 22.0512,32.4014 11.8202,4.1553 23.818,-5.2673 32.3299,-12.2888 2.2405,-1.8481 6.0206,-4.562 8.2145,-7.152"
       id="path1019" /><path
       style="fill:none;stroke:#ff9955;stroke-width:3"
       d="m 4633.4266,4218.8322 c 8.1076,-2.3572 16.1999,-5.4181 23.0176,-10.5503 6.8636,-5.1665 11.6393,-12.3422 16.8241,-19.0455 12.9384,-16.7282 24.7639,-34.2691 37.6891,-51.0124 8.423,-10.9117 14.1335,-19.3911 26.312,-25.5657"
       id="path1021" /><path
       style="fill:none;stroke:#ff9955;stroke-width:3"
       d="m 4711.2649,4135.7345 c 26.0027,-15.2376 52.737,-29.4328 82.846,-34.1794"
       id="path1023" /><path
       style="fill:none;stroke:#ff9955;stroke-width:3"
       d="m 4608.0808,4339.3891 c 9.8348,1.0959 19.8377,-0.2461 29.5188,2.3312 4.0142,1.0689 7.9901,2.8715 11.4649,5.1369 1.977,1.2888 3.5221,3.1477 5.8862,3.7933 3.497,0.9549 7.7359,0.3501 11.2892,0.5533 5.37,0.3072 10.5315,2.2373 15.9454,2.0941 12.713,-0.3362 26.6187,-6.3248 36.1519,-14.62 10.7582,-9.3613 16.4269,-23.0283 24.9941,-33.8635 2.9887,-3.7799 7.0017,-6.6035 10.4547,-9.9179 4.0143,-3.8534 7.8023,-7.6356 13.5295,-8.2188"
       id="path1025" /><path
       style="fill:none;stroke:#ff9955;stroke-width:3"
       d="m 4629.4731,4236.3765 c -0.236,4.5638 -0.2839,2.0523 -0.088,4.228 0.2783,3.0877 0.3567,6.5318 1.7132,9.3647 0.4635,0.9678 1.1557,2.8575 2.0206,3.6353 1.8209,1.6378 6.9802,4.3792 5.6227,7.3099"
       id="path1027" /><path
       style="fill:none;stroke:#ff9955;stroke-width:3"
       d="m 4631.0546,4254.4737 c -1.1129,-0.4609 -2.1918,-1.0139 -3.3386,-1.383 -1.2583,-0.4051 -2.6037,1.0044 -3.8655,0.3556 -0.453,-0.2328 -1.6418,-5.6129 -2.8112,-6.7963 -4.436,-4.4892 -10.7413,-2.3932 -16.0332,-1.5807"
       id="path1029" /><path
       style="fill:none;stroke:#ff9955;stroke-width:3"
       d="m 4616.1633,4252.5375 c 4.9326,-2.244 9.2935,-0.3752 12.2994,4.1095 1.175,1.7531 2.0511,7.8081 5.1395,6.6384 7.8642,5.7957 7.9857,8.433 6.0181,16.3983"
       id="path1031" /><path
       style="fill:none;stroke:#ff9955;stroke-width:3"
       d="m 4632.9873,4279.3675 c -5.7867,4.236 -10.7346,9.9783 -17.2193,13.2371 -10.3151,5.184 -22.1872,5.3089 -33.3843,6.757 -4.5448,0.5876 -9.5195,1.9563 -14.1444,1.8571"
       id="path1033" /><path
       style="fill:none;stroke:#ff9955;stroke-width:3"
       d="m 4561.0352,4276.246 c 13.7248,-7.1692 32.0696,-8.599 41.9502,-21.5747 1.0981,-2.4762 2.1963,-4.9523 3.2944,-7.4285"
       id="path1035" /><path
       style="fill:none;stroke:#ff9955;stroke-width:3"
       d="m 4607.0706,4229.0663 c -0.4183,4.1225 -9.4567,35.8849 -4.6125,16.5169 0.8695,-3.4761 1.1105,-4.0032 2.1085,-6.7964"
       id="path1037" /><path
       style="fill:none;stroke:#ff9955;stroke-width:3"
       d="m 4571.2701,4279.2884 c -1.0223,-0.043 -15.2167,4.1402 -15.6379,3.3192 -0.2995,-0.5839 0.3513,-1.2644 0.527,-1.8965"
       id="path1039" /><path
       style="fill:none;stroke:#ff9955;stroke-width:3"
       d="m 4547.6375,4319.5927 c -0.4246,0.3423 -0.7286,1.0464 -1.2739,1.0274 -0.6459,-0.022 -0.02,-0.9798 1.4057,-3.1216 0.9697,-1.4565 1.9296,-2.9205 2.9432,-4.3466 2.8488,-4.0087 5.3446,-7.6512 10.0592,-9.5623 -8.8594,5.1197 -15.3259,17.2538 -23.984,21.377"
       id="path1041" /><path
       style="fill:none;stroke:#ff9955;stroke-width:3"
       d="m 4395.7826,4238.0359 c 2.8712,17.0421 8.1121,25.9459 23.1933,35.0885 3.6407,2.2069 7.5893,3.8624 11.0697,6.322"
       id="path1043" /><path
       style="fill:none;stroke:#ff9955;stroke-width:3"
       d="m 4447.5724,4286.3219 c 15.7535,3.7277 26.253,13.1823 33.3404,27.6598"
       id="path1045" /><path
       style="fill:none;stroke:#ff9955;stroke-width:3"
       d="m 4428.6838,4270.9511 c -8.2101,9.9799 -16.8003,19.6319 -25.1701,29.4773 -3.3679,3.9618 -6.5609,8.3558 -10.3227,11.9726"
       id="path1047" /><path
       style="fill:none;stroke:#ff9955;stroke-width:3"
       d="m 4366.6591,4285.3342 c -9.7261,-0.5199 -16.6116,8.3986 -22.5782,15.0151 -16.5185,18.3176 -20.3931,37.8886 -10.2349,60.733 3.3192,7.4644 10.0412,15.9258 16.4285,20.9028 15.6525,12.1968 38.4686,13.7356 57.2365,10.55 2.0793,-0.066 4.2786,0.502 6.2378,-0.1973 1.9209,-0.6857 3.3931,-2.3083 4.8319,-3.7539 14.4015,-14.469 15.4228,-37.2924 16.209,-56.3863"
       id="path1049" /><path
       style="fill:none;stroke:#ff9955;stroke-width:3"
       d="m 4292.4228,4288.5348 c -0.9662,-1.2909 -1.8031,-2.6895 -2.899,-3.8724 -3.0986,-3.3449 -15.2456,-6.8734 -19.8988,-6.5593 -2.7109,0.1828 -7.0533,2.893 -9.7078,1.6992 -3.4767,-1.5637 -4.3119,-6.78 -8.1264,-8.4956 -3.3481,-1.5057 -5.8846,-0.287 -9.2687,-0.237 -3.6853,0.054 -10.8098,-1.0298 -14.1443,-2.4104 -2.5141,-1.0411 -20.8555,-14.1761 -21.041,-14.383 -11.5107,-12.8421 -0.5831,-2.1058 -4.9639,-6.3619"
       id="path1051" /><path
       style="fill:none;stroke:#ff9955;stroke-width:3"
       d="m 4286.5806,4293.79 c 0.9485,5.3054 -0.2895,8.4151 -5.9741,8.3375 -1.7333,-0.024 -3.2496,-0.2762 -4.7879,-1.1065 -1.9457,-1.0501 -10.355,-9.013 -7.6872,-12.012 2.7628,-3.1062 8.1053,2.1068 7.4237,3.5956 -0.3754,0.82 -3.6584,1.2499 -2.1524,-0.4741"
       id="path1053" /><path
       style="fill:none;stroke:#ff9955;stroke-width:3"
       d="m 4266.9453,4299.5986 c -3.4864,1.4113 -2.6816,2.0357 -5.3589,0.6718 -6.9127,-3.5213 -9.2826,-12.2354 -14.1446,-17.7022 -2.4535,-2.7591 -5.7145,-3.3917 -8.8731,-5.1369 -2.5503,-1.4091 -4.9942,-3.0038 -7.4676,-4.5442 -1.334,-0.8305 -2.4357,-2.1608 -3.9534,-2.5683 -1.4319,-0.3844 -2.9577,0.2109 -4.4365,0.3162"
       id="path1055" /><path
       style="fill:none;stroke:#ff9955;stroke-width:3"
       d="m 4270.5913,4339.9817 c -5.7693,3.6727 -9.1557,-3.4398 -4.173,-6.9543 7.9446,-5.6036 14.2234,11.5205 7.6432,16.5563 -7.2744,5.5669 -17.6813,-1.2776 -18.8007,-8.9302 -0.3723,-2.5458 1.0493,-5.6872 2.3283,-7.8237"
       id="path1057" /><path
       style="fill:none;stroke:#ff9955;stroke-width:3"
       d="m 4269.3615,4329.3129 c -3.5079,-2.3428 -6.5995,-2.1944 -10.4548,-1.6989 -11.59,1.4894 -6.4905,18.8905 -16.7359,22.2859 -6.576,2.1791 -24.8428,-13.0437 -23.8083,-19.599 0.1836,-1.1639 1.0541,-2.1074 1.5812,-3.161"
       id="path1059" /><path
       style="fill:none;stroke:#ff9955;stroke-width:3"
       d="m 4274.1055,4345.9484 c -2.2704,2.2391 -2.1823,6.3798 -5.0517,8.1004 -13.6824,8.2053 -35.1015,-4.9564 -47.1774,-11.4196"
       id="path1061" /><path
       style="fill:none;stroke:#ff9955;stroke-width:3"
       d="m 4292.2911,4368.4318 c -2.9668,3.7286 -7.5798,4.8684 -11.289,7.5473 -2.7385,1.9772 -5.5817,4.2362 -7.4237,7.1123 -2.1376,3.3377 -2.327,7.8385 -6.677,9.2858 -2.9446,0.9797 -5.6904,-0.6676 -8.3021,-1.9363 -8.2812,-4.0224 -16.0086,-10.6574 -12.6508,-20.784"
       id="path1063" /><path
       style="fill:none;stroke:#ff9955;stroke-width:3"
       d="m 4290.7099,4377.5594 c -1.887,13.375 -6.0243,25.4397 -20.9531,26.5139 -7.153,0.5147 -12.5458,-5.1469 -15.8137,-11.222 -1.5049,-2.7977 -2.7535,-6.2159 -2.5918,-9.4438 0.2664,-5.3178 4.2685,-8.3957 0.5273,-13.3556"
       id="path1065" /><path
       style="fill:none;stroke:#ff9955;stroke-width:3"
       d="m 4257.6769,4384.5929 c -2.2981,-3.0544 -4.4434,-6.2087 -6.7648,-9.2462 -2.8517,-3.7311 -5.9121,-7.9126 -10.3227,-9.9576 -2.1797,-1.0104 -4.5649,-1.5155 -6.8967,-2.0941 -0.8035,-0.1995 -3.0649,0.2439 -3.8655,-0.3162 -1.2155,-0.8504 2.9564,0.4365 4.3489,0.9485 5.6084,2.0619 9.7475,4.3212 13.3975,9.2461 6.106,8.2386 -2.0722,28.8986 13.7932,27.6993 2.8448,-0.2151 8.8464,-0.5461 11.3768,-2.6474"
       id="path1067" /><path
       style="fill:none;stroke:#ff9955;stroke-width:3"
       d="m 4277.4,4387.7147 c -6.0171,-12.0224 6.7353,-5.4893 7.4674,0 0.3199,2.3966 -2.9644,5.4724 -5.4907,3.7536 -1.1691,-0.7953 -1.3178,-2.5024 -1.9767,-3.7536 z"
       id="path1069" /><path
       style="fill:none;stroke:#ff9955;stroke-width:3"
       d="m 4279.4207,4368.7874 c 7.8814,-3.1654 9.4662,-4.0872 10.2788,5.4134 0.1762,2.0609 0.7665,4.6435 0.2635,6.7175 -0.8231,3.3936 -3.1512,6.4048 -4.2169,9.7597"
       id="path1071" /><path
       style="fill:none;stroke:#ff9955;stroke-width:3"
       d="m 4386.3385,4241.1181 c -2.2709,-14.2696 -9.367,-17.0321 -19.3278,-26.1978 -4.54,-4.1775 -18.3134,-17.9765 -23.1055,-22.9576 -3.2586,-3.3869 -16.6156,-17.2432 -19.1521,-21.8906 -3.0229,-5.5385 -4.5392,-11.7752 -6.8088,-17.6628"
       id="path1073" /><path
       style="fill:none;stroke:#ff9955;stroke-width:3"
       d="m 4339.9518,4191.8839 c -8.4064,-4.7107 -13.4332,-13.4197 -14.7595,-22.8391 -0.7425,-5.2737 -0.6136,-9.9129 -3.6021,-14.6598 -7.8988,-12.5463 -23.4521,-15.7335 -36.8985,-18.2949"
       id="path1075" /><path
       style="fill:none;stroke:#ff9955;stroke-width:3"
       d="m 4304.5029,4142.5706 c -1.9476,1.2774 -3.692,2.9382 -5.8423,3.8327 -1.6404,0.6824 -3.5007,0.6422 -5.2713,0.7903 -9.6575,0.8073 -17.0645,-1.7584 -21.9633,-10.6294 -1.2951,-2.3447 -3.2178,-4.6709 -3.2507,-7.3495 -0.059,-4.8189 1.9913,-9.4306 2.9872,-14.146"
       id="path1077" /><path
       style="fill:none;stroke:#ff9955;stroke-width:3"
       d="m 4270.2399,4149.1693 c -1.8061,11.803 7.1041,18.9632 16.0771,24.6567 4.93,3.128 10.6297,6.616 15.9896,8.9697 7.8766,3.4586 17.2193,4.9323 23.281,11.4194"
       id="path1079" /><path
       style="fill:none;stroke:#ff9955;stroke-width:3"
       d="m 4277.2683,4161.7743 c 33.7947,-3.7777 40.6617,30.3511 52.8439,54.0943"
       id="path1081" /><path
       style="fill:none;stroke:#ff9955;stroke-width:3"
       d="m 4311.8824,4188.6832 c 10.369,19.1246 41.7227,46.8728 63.8696,48.3253"
       id="path1083" /><path
       style="fill:none;stroke:#ff9955;stroke-width:3"
       d="m 4282.9346,4193.3854 c -3.5219,13.4821 -20.2676,25.1796 -34.2627,19.0852 -12.0481,-5.2467 -18.12,-17.9954 -24.7309,-28.4896"
       id="path1085" /><path
       style="fill:none;stroke:#ff9955;stroke-width:3"
       d="m 4214.1892,4153.3182 c 0.6911,4.159 2.5231,8.6752 1.8011,13 -2.7025,16.1872 -27.3463,27.8091 -38.8314,38.4472"
       id="path1087" /><path
       style="fill:none;stroke:#ff9955;stroke-width:3"
       d="m 4047.575,4100.8833 c -1.3909,-1.4621 -2.7821,-2.9241 -4.173,-4.386 0.099,0.2154 -0.7281,-1.0366 -0.4831,-0.9485 2.8199,1.0149 2.0447,3.6854 4.6561,5.3345 2.3852,1.5063 5.5264,1.3642 8.0386,2.6475 10.6688,5.4496 19.749,26.3829 24.2477,36.5897 6.9038,15.6644 13.1845,40.6794 28.4644,49.9457"
       id="path1089" /><path
       style="fill:none;stroke:#ff9955;stroke-width:3"
       d="m 4096.0702,4176.6708 c 0.4393,1.5939 0.3773,3.4216 1.3179,4.7813 15.2329,22.025 56.6852,29.7897 81.1766,31.7691"
       id="path1091" /><path
       style="fill:none;stroke:#ff9955;stroke-width:3"
       d="m 4161.0379,4213.5374 c 20.1432,4.94 29.1944,-14.7905 37.6452,-29.0822"
       id="path1093" /><path
       style="fill:none;stroke:#ff9955;stroke-width:3"
       d="m 4106.92,4246.65 c 17.7972,3.1834 32.0516,15.0418 45.9476,25.8421 13.0333,10.1296 25.2981,20.3081 34.4386,34.2585 14.2868,21.8051 15.9796,50.795 11.6843,75.9063"
       id="path1095" /><path
       style="fill:none;stroke:#ff9955;stroke-width:3"
       d="m 4193.1043,4344.3677 c -0.1833,16.5211 4.5128,32.5414 9.7081,48.0886 1.7098,5.117 5.0819,16.1393 9.7518,20.7052 1.9769,1.9333 4.6267,3.0295 6.9403,4.544"
       id="path1097" /><path
       style="fill:none;stroke:#ff9955;stroke-width:3"
       d="m 4120.6691,4250.0483 c -14.0116,-11.3099 -28.9158,-21.6866 -42.9604,-33.0732 -8.9707,-7.2731 -19.7461,-14.4002 -20.3819,-26.8695"
       id="path1099" /></g></svg>
