<?xml version="1.0" encoding="UTF-8" standalone="no"?>
<!-- Created with Inkscape (http://www.inkscape.org/) -->

<svg
   width="150.0769mm"
   height="70.589699mm"
   viewBox="0 0 150.0769 70.589703"
   version="1.1"
   id="svg12"
   inkscape:version="1.2.1 (9c6d41e410, 2022-07-14, custom)"
   sodipodi:docname="knapsack_example_problem.svg"
   xml:space="preserve"
   xmlns:inkscape="http://www.inkscape.org/namespaces/inkscape"
   xmlns:sodipodi="http://sodipodi.sourceforge.net/DTD/sodipodi-0.dtd"
   xmlns="http://www.w3.org/2000/svg"
   xmlns:svg="http://www.w3.org/2000/svg"><sodipodi:namedview
     id="namedview14"
     pagecolor="#000000"
     bordercolor="#ffffff"
     borderopacity="1"
     inkscape:showpageshadow="0"
     inkscape:pageopacity="0"
     inkscape:pagecheckerboard="0"
     inkscape:deskcolor="#000000"
     inkscape:document-units="mm"
     showgrid="true"
     inkscape:zoom="1.5101792"
     inkscape:cx="393.99298"
     inkscape:cy="102.63683"
     inkscape:window-width="1366"
     inkscape:window-height="746"
     inkscape:window-x="0"
     inkscape:window-y="0"
     inkscape:window-maximized="1"
     inkscape:current-layer="layer1"
     inkscape:lockguides="true" /><defs
     id="defs9"><rect
       x="587.26367"
       y="362.45731"
       width="66.575974"
       height="20.973427"
       id="rect1884" /></defs><g
     inkscape:label="Layer 1"
     inkscape:groupmode="layer"
     id="layer1"
     transform="translate(-13.559676,-148.62312)"><path
       style="fill:none;stroke:#ffb380;stroke-width:0.410001"
       d="m 105.16454,190.71396 c -0.0951,-2.90958 -0.50527,-5.79797 -0.66895,-8.70411 -0.44322,-7.86944 0.48677,-15.88335 -1.14004,-23.64604 0.76891,0.91544 4.61556,-0.71617 5.36101,0.11018 0.61938,0.68659 0.18217,2.07987 0.22612,2.90702 0.0684,1.28795 0.17652,2.20594 0.31092,3.51725 0.34383,3.35456 0.29539,6.6887 0.44282,10.05168 0.21072,4.80635 0.39102,9.61279 0.81028,14.40798 0.20976,2.39908 0.20671,4.79403 0.38629,7.19551 0.0498,0.66549 0.0753,1.32864 0.16018,1.99169 0.0415,0.32407 0.42566,1.02982 0.10364,0.97465 -1.30962,-0.22436 -1.50333,-0.66373 -3.1092,-0.34748 -0.57909,0.11405 -1.13613,0.31245 -1.72419,0.38986 -0.098,0.0129 -0.35452,0.0257 -0.29207,-0.0508 9.9e-4,-0.12032 0.13458,-0.0359 0.17901,-0.0848 0.14556,-0.16002 0.0625,-1.31632 0.0565,-1.48317 -0.0314,-0.87205 -0.24184,-5.02649 -0.32034,-5.42418 -0.12699,-0.64337 -0.7323,-1.15135 -0.78201,-1.80524 -0.18544,-2.43911 0.89977,-2.32846 0.0754,-4.28002"
       id="path1429" /><path
       style="fill:none;stroke:#ffb380;stroke-width:0.410001"
       d="m 100.42469,206.40541 c 0.89141,-2.22811 -8e-4,-0.0157 0,0 0.0357,0.69909 0.47162,1.32622 0.58415,2.01712 0.0124,0.0759 -0.10512,2.29835 0.22613,2.63581 0.14096,0.14361 0.37687,-0.14125 0.5653,-0.21188"
       id="path1431" /><path
       style="fill:none;stroke:#ffb380;stroke-width:0.410001"
       d="m 102.61997,207.43939 c -0.87252,1.8575 1.88384,0.86738 2.52505,0.4153"
       id="path1433" /><path
       style="fill:none;stroke:#ffb380;stroke-width:0.410001"
       d="m 105.36172,204.94767 c 0.68909,0.78672 0.74586,1.85041 1.15888,2.75446 0.016,0.035 0.0881,0.0861 0.10363,0.0508 0.0981,-0.22185 0.65791,-2.70604 0.85739,-2.50021 0.39685,0.40948 0.42139,2.1811 0.92334,2.96636"
       id="path1435" /><path
       style="fill:none;stroke:#ffb380;stroke-width:0.410001"
       d="m 109.18697,205.95622 c -0.89297,-0.85173 0.14319,1.62378 0.5182,1.33062 0.67256,-0.52577 0.74031,-1.55123 0.80085,-2.31375 0.0177,-0.22341 0.0755,0.44195 0.12248,0.66107 0.0447,0.20828 0.43063,3.05782 1.06466,2.89007"
       id="path1437" /><path
       style="fill:none;stroke:#ffb380;stroke-width:0.410001"
       d="m 112.16425,205.03242 c 0.66238,1.60433 1.27877,3.23534 1.87494,4.8648"
       id="path1439" /><path
       style="fill:none;stroke:#ffb380;stroke-width:0.410001"
       d="m 112.39037,206.64272 c -0.3172,-0.38704 -0.85075,-0.67097 -0.9516,-1.16111 -0.34193,-1.66193 1.4174,-2.84647 2.66637,-1.75439 1.48726,1.30044 -0.49803,3.21111 -0.58415,2.11882 -0.0225,-0.28502 0.0879,-0.56501 0.13191,-0.84752"
       id="path1441" /><path
       style="fill:none;stroke:#ffb380;stroke-width:0.410001"
       d="m 116.56423,201.5406 c -0.19157,0.35879 -0.48502,0.67965 -0.57472,1.07636 -0.0805,0.35598 0.78379,0.7837 0.8668,0.83906 1.22126,0.81446 3.32309,1.99058 2.89249,3.80539 -0.2314,0.97525 -1.54148,1.90411 -2.30834,0.77974 -0.61315,-0.899 -0.3998,-1.9572 -0.009,-2.85618"
       id="path1443" /><path
       style="fill:none;stroke:#ffb380;stroke-width:0.410001"
       d="m 120.37064,203.20176 c -0.14761,0.53959 -0.36948,1.06418 -0.44282,1.61877 -0.0446,0.33753 -0.0163,0.69502 0.0942,1.01704 0.86163,2.50973 3.26128,-1.66843 2.54388,-2.31375 -0.16378,-0.14733 -0.26094,0.38179 -0.27324,0.60174 -0.0198,0.3546 -0.0419,1.98614 0.65954,2.03407 0.14963,0.0102 0.25124,-0.16385 0.37687,-0.24578"
       id="path1445" /><path
       style="fill:none;stroke:#ffb380;stroke-width:0.410001"
       d="m 124.19589,203.05768 c -0.21042,0.52264 -0.57665,1.00717 -0.63126,1.56792 -0.12165,1.249 1.20069,2.81315 2.49678,2.69514 1.75018,-0.15935 1.86526,-1.72411 1.48864,-2.96635"
       id="path1447" /><path
       style="fill:none;stroke:#ffb380;stroke-width:0.410001"
       d="m 127.49352,200.65917 c 0.58425,1.03348 0.54913,4.158 1.40385,5.11907"
       id="path1449" /><path
       style="fill:none;stroke:#ffb380;stroke-width:0.410001"
       d="m 131.08322,202.59153 c -0.59671,0.55937 -1.32528,1.00516 -1.79014,1.67811 -1.7059,2.46952 3.85219,1.6543 4.80512,2.93245 0.15984,0.21438 0.0628,0.53112 0.0942,0.79668"
       id="path1451" /><path
       style="fill:none;stroke:#ffb380;stroke-width:0.410001"
       d="m 49.188947,193.59078 c 0.06595,0.23449 0.162956,0.46238 0.197856,0.70345 0.215829,1.49076 0.143458,3.11257 0.179015,4.61055 0.0037,0.15537 0.0078,0.6206 -0.0094,0.46614 -0.212689,-1.91319 -0.128719,-3.87721 -0.36745,-5.78014 -0.04798,-0.38241 -0.247435,-0.73592 -0.292076,-1.11874 -0.01213,-0.10399 3.846325,-1.59542 4.334026,-1.80523 0.581056,-0.24998 1.09533,-0.62235 1.14004,-0.44919 0.546433,2.11635 0.614891,4.3862 0.970443,6.54291 0.149989,0.90981 0.306957,1.81848 0.452247,2.72905 0.02906,0.18212 0.321321,1.28472 0.235545,1.59335 -0.01256,0.0452 -0.118307,-0.0942 -0.131906,-0.1017 -0.151859,-0.0841 -0.16977,-0.0659 -0.414557,-0.1017 -0.503851,-0.0737 -1.31715,-0.12875 -1.705347,-0.11019 -1.479603,0.0708 -2.972938,0.61054 -4.45651,0.22036 -0.895029,-0.23539 -2.201525,-1.38467 -0.244969,-0.27121"
       id="path1453" /><path
       style="fill:none;stroke:#ffb380;stroke-width:0.410001"
       d="m 50.536264,205.346 c -0.248108,0.29946 -0.590383,0.54125 -0.744324,0.89838 -0.840801,1.95054 -0.542605,5.60215 1.846673,6.38188 0.730705,0.23846 1.418611,0.1922 2.035109,-0.29664 1.053093,-0.83503 -0.266738,-2.37547 -1.281364,-2.33917 -1.10986,0.0397 -2.86129,1.85481 -0.819696,0.85601"
       id="path1455" /><path
       style="fill:none;stroke:#ffb380;stroke-width:0.410001"
       d="m 55.190631,207.04105 c -1.293677,0.79526 -1.775946,6.37869 0.951602,4.94956 0.368838,-0.19325 0.729537,-0.43731 0.98929,-0.76276 0.447435,-0.56061 1.135413,-2.35107 0.02826,-2.87313 -0.680977,-0.3211 -2.994113,-0.34547 -3.382426,0.73735 -0.09515,0.26533 0.319072,-0.46715 0.442825,-0.7204"
       id="path1457" /><path
       style="fill:none;stroke:#ffb380;stroke-width:0.410001"
       d="m 54.983353,205.62568 c -0.06909,0.50004 -0.247237,0.99692 -0.20728,1.50013 0.19592,2.46733 1.012307,4.97967 1.385004,7.41586"
       id="path1459" /><path
       style="fill:none;stroke:#ffb380;stroke-width:0.410001"
       d="m 46.173971,204.54932 c -0.667264,3.66169 0.25966,7.25295 0.650103,10.88226 0.0033,0.0309 0.0028,-0.0623 0,-0.0932 -0.0585,-0.65408 -0.05797,-0.59064 -0.150747,-1.21197"
       id="path1461" /><path
       style="fill:none;stroke:#ffb380;stroke-width:0.410001"
       d="m 47.511865,207.80383 c -1.08943,0.16938 -0.658737,-0.0517 -1.573439,0.93228 -0.291943,0.31407 -0.789196,0.61512 -0.753746,1.04245 0.02099,0.25305 0.770801,0.37005 0.782011,0.37292 1.355622,0.34731 3.175513,0.68498 2.185856,2.48326 -0.154141,0.28008 -0.35154,0.5484 -0.602993,0.74583 -0.884045,0.6941 -3.590965,0.94649 -3.090351,-0.77973"
       id="path1463" /><path
       style="fill:none;stroke:#ffb380;stroke-width:0.410001"
       d="m 66.996145,177.46232 c 0.210713,1.58508 0.209079,3.18889 0.339188,4.78006 0.229789,2.81021 0.799665,5.58826 1.215412,8.37358 0.393593,2.6369 0.694557,5.28056 0.961023,7.93286 0.08588,0.85486 0.261809,2.73016 0.348608,3.69523 0.03251,0.36151 0.06348,0.72316 0.09421,1.08483 0.007,0.0819 0.02881,0.32734 0.01885,0.24578 -0.04136,-0.33858 -0.07537,-0.67802 -0.11306,-1.01703"
       id="path1467" /><path
       style="fill:none;stroke:#ffb380;stroke-width:0.410001"
       d="m 50.969666,194.99768 c 0.160378,0.56374 0.385772,3.73283 0.866806,3.93253"
       id="path1475" /><path
       style="fill:none;stroke:#ffb380;stroke-width:0.410001"
       d="m 52.56195,195.7096 c -0.07537,0.25708 -0.206788,0.50404 -0.226122,0.77125 -0.101247,1.39925 1.32999,1.72917 2.04453,0.63565 0.328341,-0.50249 -0.200973,-1.9439 -0.923337,-1.85609 -0.331381,0.0403 -0.596714,0.29946 -0.895071,0.44919 z"
       id="path1477" /><path
       style="fill:none;stroke:#ffb380;stroke-width:0.410001"
       d="m 53.061305,193.14159 c 0.200265,1.59689 0.202913,3.20927 0.301497,4.81396 0.03231,0.52592 -0.08471,2.44453 0.41456,1.74591"
       id="path1479" /><path
       style="fill:none;stroke:#ffb380;stroke-width:0.410001"
       d="m 71.49977,189.33619 c -0.513393,-0.009 0.09615,-1.9916 0.584151,-1.70353 0.516949,0.30516 -0.487456,1.11107 -0.584151,1.70353 -0.08603,0.52714 0.146863,1.05972 0.169591,1.59335 0.01019,0.2393 -0.156986,0.66751 -0.02827,0.94076 0.285084,0.60521 1.702803,-0.78118 1.959734,-1.02551"
       id="path1481" /><path
       style="fill:none;stroke:#ffb380;stroke-width:0.410001"
       d="m 74.166137,189.47179 c 0.278,2.04451 3.223873,-0.24921 2.101062,-1.17806 -0.476615,-0.39428 -0.927733,-0.40183 -1.498069,-0.33901 -1.359843,0.14978 -1.155275,1.13331 0.169596,-0.44071"
       id="path1483" /><path
       style="fill:none;stroke:#ffb380;stroke-width:0.410001"
       d="m 75.202532,186.08168 c -0.238685,0.63 -0.632301,1.22152 -0.716055,1.88999 -0.108104,0.86283 0.258582,2.72171 0.518201,3.6698 0.09878,0.36074 0.400267,1.35801 0.508774,1.00008"
       id="path1485" /><path
       style="fill:none;stroke:#ffb380;stroke-width:0.410001"
       d="m 66.204713,176.97076 c 2.445518,-0.71655 4.99303,-1.01751 7.528022,-1.20349 0.117155,-0.009 1.374615,-0.19757 1.592284,0.0848 0.187732,0.24349 0.680803,5.07717 0.763163,5.63606 0.357625,2.42683 0.886321,4.84058 1.196571,7.27179 0.418557,3.27995 0.729679,6.58131 1.036394,9.8737 0.05498,0.59014 0.610252,4.02895 0.310921,4.18679 -0.409543,0.21597 -1.601204,0.39957 -1.790143,0.44919 -1.45657,0.38255 -2.943287,0.90854 -4.447089,1.06789 -0.992399,0.10516 -1.630618,0.18786 -2.411978,-0.32206 -0.537972,-0.35109 -0.347646,-0.60331 0.235543,-0.48309"
       id="path1487" /><path
       style="fill:none;stroke:#ffb380;stroke-width:0.410001"
       d="m 67.938326,207.52415 c 0.578338,1.55177 0.807811,3.19793 1.271942,4.78005 0.02083,0.071 0.325271,1.45849 0.77259,0.93229"
       id="path1489" /><path
       style="fill:none;stroke:#ffb380;stroke-width:0.410001"
       d="m 70.538742,209.71924 c -0.06292,0.55842 -0.442528,1.40729 0.254389,1.80524 0.996272,0.56888 3.226476,-1.3716 2.449666,-2.3646 -0.590221,-0.75449 -2.666764,0.62134 -2.704055,0.55936 -0.239998,-0.39893 0.443652,-0.81979 0.63126,-1.24587 0.130266,-0.29584 0.213561,-0.61022 0.320341,-0.91532"
       id="path1491" /><path
       style="fill:none;stroke:#ffb380;stroke-width:0.410001"
       d="m 71.744733,205.72739 c -0.07223,0.95488 -0.260827,1.90805 -0.216701,2.86464 0.03207,0.69519 0.958462,2.90251 1.564021,3.31384 0.103981,0.0706 0.244967,-0.0565 0.367451,-0.0848"
       id="path1493" /><path
       style="fill:none;stroke:#ffb380;stroke-width:0.410001"
       d="m 74.392258,208.61746 c -0.684693,2.51524 2.326003,2.53395 2.590996,0.22035 0.04595,-0.40118 -0.234679,-1.19367 -0.819694,-0.9916 -0.269693,0.0932 -0.445034,0.36918 -0.706639,0.48308 -0.337089,0.14677 -0.868554,-0.0228 -1.064663,0.28817 -0.427992,0.6787 0.498877,1.98829 0.40514,1.11874 -0.04251,-0.39433 -0.270093,-0.74583 -0.40514,-1.11874 z"
       id="path1495" /><path
       style="fill:none;stroke:#ffb380;stroke-width:0.410001"
       d="m 75.34386,205.73585 c -0.37748,2.78623 0.654733,5.36161 1.347321,8.00915"
       id="path1497" /><path
       style="fill:none;stroke:#ffb380;stroke-width:0.410001"
       d="m 65.055258,207.43939 c 0.01884,0.25991 0.02841,0.52066 0.05653,0.77973 0.169985,1.5658 0.396667,3.14899 0.640682,4.70378 0.203091,1.29404 0.53786,3.197 0.62184,2.51715"
       id="path1499" /><path
       style="fill:none;stroke:#ffb380;stroke-width:0.410001"
       d="m 66.138762,209.7362 c -0.03769,0.24578 -0.0778,0.4912 -0.113061,0.73734 -0.09782,0.68281 -0.382972,1.64898 0.0094,2.30528 0.205272,0.34333 3.331112,1.19902 2.346032,2.3307 -0.826159,0.94911 -2.733166,0.0654 -3.674505,-0.22035 -0.301863,-0.0916 -1.071791,-0.51891 -0.913913,-0.24579 0.149268,0.25822 0.395715,0.44637 0.593572,0.66955"
       id="path1501" /><path
       style="fill:none;stroke:#ffb380;stroke-width:0.410001"
       d="m 22.3803,212.65037 c -7.93e-4,1.51549 -0.553241,5.26814 0.62184,6.41579"
       id="path1613" /><path
       style="fill:none;stroke:#ffb380;stroke-width:0.410001"
       d="m 22.05054,214.85394 c -0.749433,-1.37682 -2.010752,-3.68575 0.113059,-4.44104 0.30507,-0.1085 0.669639,0.0358 0.951603,0.19493 1.68447,0.9509 1.601909,4.18728 0.244967,5.314 -0.142285,0.11815 -0.04397,-0.36726 -0.06595,-0.5509"
       id="path1615" /><path
       style="fill:none;stroke:#ffb380;stroke-width:0.410001"
       d="m 24.839393,211.97235 c 1.212459,2.83219 0.875599,1.90837 1.582862,3.86472 0.114237,0.31599 0.225338,0.63311 0.339183,0.94924 0.03063,0.085 0.06428,0.33954 0.09422,0.25426 0.04604,-0.13115 -0.03559,-0.27631 -0.03769,-0.41529 -0.0136,-0.90111 -0.04574,-1.80314 -0.0094,-2.70362 0.03472,-0.86088 0.255137,-1.40912 0.386294,-1.38147 0.19767,0.0417 0.251251,0.31641 0.376875,0.47462"
       id="path1617" /><path
       style="fill:none;stroke:#ffb380;stroke-width:0.410001"
       d="m 28.598691,215.29466 c -0.006,-0.67793 0.314503,-1.3381 0.141328,-2.00017"
       id="path1619" /><path
       style="fill:none;stroke:#ffb380;stroke-width:0.410001"
       d="m 28.692909,211.67571 c 0.540793,-1.90082 0.02635,-1.39922 0.782011,-2.00864"
       id="path1621" /><path
       style="fill:none;stroke:#ffb380;stroke-width:0.410001"
       d="m 31.095466,209.48909 c -0.709348,2.8753 -0.856604,4.83834 2.534465,4.96652"
       id="path1623" /><path
       style="fill:none;stroke:#ffb380;stroke-width:0.410001"
       d="m 33.092891,212.70122 c -0.602655,-0.34046 3.610893,-1.59069 2.779426,-2.65276 -0.789487,-1.00845 -2.585601,1.38679 -2.779426,2.65276 -0.414314,2.70606 1.639517,2.32199 3.222254,1.86456 0.385705,-0.11147 0.793082,-0.19787 1.130614,-0.41528 0.193957,-0.12493 0.263812,-0.37857 0.395718,-0.56785"
       id="path1625" /><path
       style="fill:none;stroke:#ffb380;stroke-width:0.410001"
       d="m 24.779423,202.25584 c -0.366898,-0.97319 -0.424508,-1.04001 -0.67837,-2.08493 -0.726705,-2.99116 -0.88273,-6.14464 -1.102353,-9.20415 -0.342992,-4.77812 -0.480652,-9.5574 -0.716057,-14.34018 -0.277143,-5.63079 -0.886992,-11.2554 -0.838539,-16.8997 0.01924,-2.23955 0.333452,-4.43713 0.62184,-6.6531 0.02856,-0.21943 0.77312,-3.50073 0.197858,-4.22069 -0.08435,-0.10556 -0.519203,0.11397 -1.158883,0.89838 -0.449297,0.55096 -0.856581,1.13503 -1.271942,1.71201 -1.280843,1.77919 -2.39558,3.45519 -3.627393,5.29705 -0.79711,1.19187 -1.433674,2.51111 -2.402559,3.56809 -0.107556,0.11734 0.03874,-0.3208 0.103637,-0.46614 0.23826,-0.53358 0.513959,-1.05037 0.800857,-1.55945 1.676275,-2.97444 3.495831,-5.84826 6.058215,-8.15322 0.782756,-0.70412 0.636852,2.10158 0.67837,2.28833 0.106042,0.47694 0.23745,0.96317 0.489934,1.38146 1.200986,1.98974 3.973447,2.2807 6.029952,2.89008"
       id="path1627" /><path
       style="fill:none;stroke:#ffb380;stroke-width:0.410001"
       d="m 29.904878,163.02376 c 0.02827,-0.25991 0.344707,-0.75146 0.0848,-0.77973 -0.259908,-0.0283 -0.126859,0.5217 -0.0848,0.77973 0.117031,0.71797 0.403204,1.39911 0.555887,2.11035 0.412994,1.92385 0.02135,1.28935 0.602996,3.24603 0.213069,0.71677 0.111128,0.70685 0.433404,0.61022"
       id="path1629" /><path
       style="fill:none;stroke:#ffb380;stroke-width:0.410001"
       d="m 32.411078,163.65941 c -0.04711,-0.38704 -0.09422,-0.77408 -0.141325,-1.16112 -0.05025,-0.0904 -0.163248,-0.37387 -0.150751,-0.27121 0.05888,0.4837 0.222818,0.95001 0.292076,1.43233 0.307755,2.14325 0.224829,3.32738 1.488644,5.05974"
       id="path1631" /><path
       style="fill:none;stroke:#ffb380;stroke-width:0.410001"
       d="m 29.970834,167.53261 c -3.732483,0.58059 -0.285491,0.15214 0,0 0.883488,-0.47081 1.471213,-1.3793 2.327182,-1.89847 0.124706,-0.0756 2.414839,-0.94724 2.958447,-0.72039 0.167679,0.07 -0.157031,0.32771 -0.235546,0.49156"
       id="path1633" /><path
       style="fill:none;stroke:#ffb380;stroke-width:0.410001"
       d="m 30.74342,167.86315 c 1.852996,-0.0182 3.716858,-0.42588 5.408114,-1.18654"
       id="path1635" /><path
       style="fill:none;stroke:#ffb380;stroke-width:0.410001"
       d="m 39.166507,166.99019 c -2.855107,1.37451 -1.616711,-4.60577 -0.650102,-4.4919 0.95761,0.11281 0.417658,2.89639 0.433401,3.27994 0.01683,0.41004 -0.165185,1.36225 0.216701,1.21196 0.394857,-0.1554 -0.04397,-0.84753 -0.06595,-1.27129"
       id="path1637" /><path
       style="fill:none;stroke:#ffb380;stroke-width:0.410001"
       d="m 41.616179,160.98969 c -0.351747,0.41529 -0.775475,0.77905 -1.055242,1.24587 -1.280234,2.1362 2.479123,2.52239 2.798275,3.76302 0.03968,0.15424 -0.175873,0.26556 -0.26381,0.39834"
       id="path1639" /><path
       style="fill:none;stroke:#ffb380;stroke-width:0.410001"
       d="m 41.587911,166.18504 c -0.683118,-1.74518 0.01824,-2.28173 1.592284,-2.61886"
       id="path1641" /><path
       style="fill:none;stroke:#ffb380;stroke-width:0.410001"
       d="m 46.430718,159.86248 c -0.15703,-0.37291 -0.447187,-0.71482 -0.47109,-1.11873 -0.01154,-0.19495 0.485975,-2.04702 0.866803,-1.17807 0.367398,0.8383 -0.115277,1.42289 -0.395713,2.2968 z"
       id="path1643" /><path
       style="fill:none;stroke:#ffb380;stroke-width:0.410001"
       d="m 47.551912,160.11674 c 0.377061,0.89866 0.496011,4.11358 1.535753,4.40714 0.248634,0.0702 0.477369,-0.19775 0.716054,-0.29663"
       id="path1645" /><path
       style="fill:none;stroke:#ffb380;stroke-width:0.410001"
       d="m 50.783588,160.3032 c -0.865393,1.21868 0.110295,2.06876 0.01884,3.2206"
       id="path1647" /><path
       style="fill:none;stroke:#ffb380;stroke-width:0.410001"
       d="m 49.841407,162.32031 c 0.73488,-1.49917 0.158937,-0.91144 1.808985,-1.63573 0.487173,-0.21384 0.989499,-0.39646 1.460381,-0.64412 0.36235,-0.19058 0.347918,-0.83691 -0.160171,-0.56784 -0.935696,0.49551 -2.372521,2.47731 -0.358029,2.93245 1.315141,0.29713 2.081758,-1.60602 2.129325,-2.51716 0.03132,-0.59996 -0.05707,-1.20193 -0.141323,-1.79676 -0.01897,-0.13396 -0.253693,-0.46461 -0.235548,-0.33054 0.04149,0.3066 0.09732,0.61425 0.197859,0.90685 0.220784,0.64255 0.440986,1.29182 0.763163,1.88999 0.781361,1.45072 0.875084,-3.04121 1.177729,-3.41554 0.215053,-0.26599 0.687497,2.94745 0.970444,2.78837 0.727839,-0.40921 0.587198,-1.92095 1.074083,-2.53411 0.10197,-0.12841 0.01184,0.32774 0.01885,0.49157 0.0019,0.0436 0.03369,0.97878 0.282652,0.94076 0.631525,-0.0965 1.174583,-0.50287 1.761875,-0.7543"
       id="path1649" /><path
       style="fill:none;stroke:#ffb380;stroke-width:0.410001"
       d="m 61.411379,156.94698 c -0.782011,0.46049 -1.849349,0.62194 -2.346032,1.38147 -0.223338,0.34154 0.725098,0.39344 1.121199,0.49157 0.278812,0.0691 4.288705,0.13797 3.024396,1.93237 -0.928738,1.31813 -4.802245,2.84694 -6.058219,1.31366"
       id="path1651" /><path
       style="fill:none;stroke:#ffb380;stroke-width:0.410001"
       d="m 116.74388,157.09332 c 0.45538,0.0452 0.90854,0.13848 1.36616,0.1356 1.04031,-0.007 2.06915,-0.24652 3.10919,-0.27121 0.21073,-0.005 2.2693,0.0731 2.60042,0.0848 0.31337,0.011 0.78462,0.0226 1.13061,0.0424 0.12593,0.007 0.49639,0.0742 0.37688,0.0339 -2.30473,-0.77751 -4.71938,-0.3052 -7.09462,-0.0763 -0.20009,0.0193 -0.76715,0.1245 -0.60299,0.008 1.17237,-0.82861 4.68285,-1.45473 6.21838,-1.79676 0.0384,-0.009 -0.0758,0.0214 -0.11306,0.0339 -0.27365,0.092 -0.54789,0.18236 -0.81969,0.27969 -0.37522,0.13435 -0.74933,0.27192 -1.1212,0.41528 -0.24891,0.096 -3.544,1.46724 -3.69334,1.32215 -0.26618,-0.25859 0.97358,-1.26371 0.12248,-1.02551 -0.54192,0.15166 -1.20129,1.30294 -1.47922,0.81363 -0.9366,-1.64892 2.33543,-3.16665 2.26123,-3.85626 -0.0184,-0.17067 -0.71214,0.2448 -1.15888,0.60174 -0.70316,0.56183 -2.50612,1.9194 -3.05267,3.03416 -0.54018,1.10178 2.30597,1.88469 2.54389,2.00864 0.63715,0.33194 1.20745,0.94342 1.5546,1.56792"
       id="path1653" /><path
       style="fill:none;stroke:#ffb380;stroke-width:0.410001"
       d="m 129.04875,153.26249 c -0.27608,1.50313 -0.12158,3.02985 0.0377,4.53427"
       id="path1655" /><path
       style="fill:none;stroke:#ffb380;stroke-width:0.410001"
       d="m 130.31127,158.58497 c 0.31279,-0.56445 0.87112,-1.396 0.49936,-2.04255 -0.41795,-1.49875 -0.32341,-2.18226 0.37686,-3.35621 1.60413,1.60442 1.1621,0.77005 1.75246,2.51716 0.32214,0.95331 0.45088,1.37454 0.5182,1.23739 0.23807,-0.48497 0.7864,-2.87728 0.90449,-2.80531 0.27741,0.16904 0.19778,2.21198 0.39572,2.3646 0.13591,0.10479 1.33638,-3.80649 1.46038,-1.29672 0.0212,0.42907 0.0251,0.85883 0.0377,1.28824"
       id="path1657" /><path
       style="fill:none;stroke:#ffb380;stroke-width:0.410001"
       d="m 138.06541,156.37292 c 0.39368,-0.69525 0.55588,-1.25771 0.55588,-2.0256"
       id="path1659" /><path
       style="fill:none;stroke:#ffb380;stroke-width:0.410001"
       d="m 138.50823,152.99976 c -0.37096,-0.85006 -0.49671,-1.75003 0.0565,-2.54259 0.39573,0.51134 0.92047,0.94502 1.18718,1.53403 0.15959,0.35243 0.87561,3.78732 1.04582,4.56817"
       id="path1661" /><path
       style="fill:none;stroke:#ffb380;stroke-width:0.410001"
       d="m 139.22429,154.72871 c 0.64575,-1.06796 1.57106,-1.49165 2.77001,-1.49165"
       id="path1663" /><path
       style="fill:none;stroke:#ffb380;stroke-width:0.410001"
       d="m 130.99905,161.38181 c -1.34261,0.39888 -0.96555,0.0554 -1.79956,1.40689 -1.34339,2.17697 -0.65314,3.35355 1.10236,4.94109 7.9e-4,7.9e-4 0.97837,0.62162 0.83854,0.89838"
       id="path1665" /><path
       style="fill:none;stroke:#ffb380;stroke-width:0.410001"
       d="m 127.54126,167.44163 c 0.58629,-2.02889 2.60755,-1.70149 4.26807,-1.51707 0.0189,-0.49439 -0.0222,-0.99473 0.0565,-1.48317 0.0836,-0.51864 0.79638,-1.49841 1.06466,-0.92381 0.22976,0.49209 0.36451,1.03052 0.44283,1.56793 0.0541,0.37146 -0.21687,0.96881 -0.22613,0.96618 -0.10541,-0.0299 -0.0615,-0.21257 -0.066,-0.32206 -0.0144,-0.35286 0.006,-0.70627 0.009,-1.05941"
       id="path1667" /><path
       style="fill:none;stroke:#ffb380;stroke-width:0.410001"
       d="m 134.30612,163.17009 c 0.14446,0.36444 0.33375,0.71416 0.4334,1.09331 0.13401,0.50989 0.22193,1.03392 0.2638,1.55945 0.0245,0.30775 0.007,0.62386 -0.066,0.92381 -0.025,0.10256 -0.0837,-0.19956 -0.0848,-0.30511 -0.0108,-1.03544 0.37042,-5.05541 1.92204,-5.06822 0.17016,-0.001 0.23241,0.24861 0.34861,0.37291"
       id="path1669" /><path
       style="fill:none;stroke:#ffb380;stroke-width:0.410001"
       d="m 140.22301,161.58521 c -0.57112,-0.2162 -0.004,-2.86589 0.11306,-1.6103 0.0501,0.53575 -0.29642,1.10442 -0.11306,1.6103 0.30944,0.85375 1.01127,1.5086 1.5169,2.2629"
       id="path1671" /><path
       style="fill:none;stroke:#ffb380;stroke-width:0.410001"
       d="m 139.73307,162.53445 c -0.0197,-0.88425 -0.17734,-0.81495 0.40514,-1.50013 0.96211,-1.13176 1.30912,-1.57681 1.92204,-0.21188 0.46987,1.04636 0.40137,0.98927 0.92334,1.98321 0.12496,0.23796 0.19481,0.69308 0.46167,0.66107 0.43266,-0.0519 0.62712,-2.64259 0.83854,-2.72903 0.0882,-0.0361 0.86527,1.55064 1.3002,1.6442 0.56896,0.12239 1.53274,-2.3809 0.59358,-2.17815 -0.54376,0.11739 -1.17902,1.04454 -0.48052,1.39842 0.84016,0.42566 2.76574,-0.0124 3.65567,-0.34748"
       id="path1673" /><path
       style="fill:none;stroke:#ffb380;stroke-width:0.410001"
       d="m 129.66117,176.02709 c -0.003,-0.69497 -0.0504,-1.39115 -0.009,-2.08492 0.0184,-0.31221 0.31082,-0.85762 0.3486,-0.17798 0.0573,1.03046 -0.0658,1.09672 -0.33918,2.2629 z"
       id="path1675" /><path
       style="fill:none;stroke:#ffb380;stroke-width:0.410001"
       d="m 130.61277,176.69664 c 0.17927,0.63985 0.93863,6.22579 1.96915,5.25467"
       id="path1677" /><path
       style="fill:none;stroke:#ffb380;stroke-width:0.410001"
       d="m 133.59948,177.54417 c 0.0408,-0.34184 0.46431,-0.98468 0.12248,-1.02551 -0.34184,-0.0408 -0.2078,0.69198 -0.12248,1.02551 0.4675,1.82753 1.09999,1.69694 0.97986,3.39858 -1.46881,-3.69847 0.15727,-1.69173 1.97858,-3.07652 0.15725,-0.11956 0.46592,-1.17728 0.009,-1.01704 -1.54282,0.5416 -0.258,4.26682 1.29079,2.0934"
       id="path1679" /><path
       style="fill:none;stroke:#ffb380;stroke-width:0.410001"
       d="m 138.11252,176.24745 c -0.044,-0.23731 0.1054,-0.7559 -0.13191,-0.71192 -0.23731,0.044 0.0111,0.50299 0.13191,0.71192 0.29407,0.50855 0.73929,0.9139 1.08351,1.38994 0.13866,0.19177 0.37026,0.80878 0.41456,0.57632 0.14852,-0.77937 -0.44842,-2.63326 0.27322,-3.2206 0.42791,-0.34827 0.9144,1.96807 1.1212,1.53403 0.27519,-0.57757 0.10469,-1.79312 0.7349,-2.19511 0.91742,-0.58518 1.5135,2.6114 1.54517,3.15281"
       id="path1681" /><path
       style="fill:none;stroke:#ffb380;stroke-width:0.410001"
       d="m 147.34588,172.66241 c 2.38599,-0.85785 -0.11308,-1.55025 -0.22612,-1.16959 -0.11304,0.38065 0.34952,0.79216 0.22612,1.16959 -0.15538,0.47523 -0.82499,0.66028 -0.97986,1.13568 -0.12385,0.3802 0.0782,0.80656 0.22612,1.17807 0.40894,1.02732 0.99083,0.97 1.85609,0.70345"
       id="path1683" /><path
       style="fill:none;stroke:#ffb380;stroke-width:0.410001"
       d="m 150.64351,175.48467 c -0.3015,0.017 -0.67622,0.24854 -0.9045,0.0509 -0.9353,-0.80995 0.075,-5.30387 1.3379,-2.95788 0.46394,0.86181 0.50949,1.35855 0.7349,2.16967"
       id="path1685" /><path
       style="fill:none;stroke:#ffb380;stroke-width:0.410001"
       d="m 151.96256,172.87429 c 0.7734,0.20992 3.62451,0.56156 3.93832,-0.72888 0.0735,-0.30234 -0.0314,-0.62152 -0.0471,-0.93228"
       id="path1687" /><path
       style="fill:none;stroke:#ffb380;stroke-width:0.410001"
       d="m 155.44862,169.22144 c 0.16332,0.44072 0.34676,0.87449 0.48994,1.32215 0.11468,0.35852 0.19028,0.7284 0.28266,1.09331 0.61925,2.44614 0.0443,-1.99277 1.41327,-2.17815 0.2405,-0.0326 0.85177,1.34154 0.9516,1.42385"
       id="path1689" /><path
       style="fill:none;stroke:#ffb380;stroke-width:0.410001"
       d="m 158.96296,168.40781 c -0.0188,-0.35031 0.29378,-1.06978 -0.0565,-1.05093 -0.35031,0.0188 -0.0172,0.70795 0.0565,1.05093 0.26471,1.23122 1.28585,3.25375 0.50877,3.69523"
       id="path1691" /><path
       style="fill:none;stroke:#ffb380;stroke-width:0.410001"
       d="m 158.0302,170.30628 c 0.48994,-0.40399 0.89906,-0.93358 1.46981,-1.21197 1.01436,-0.49477 2.96278,-0.8013 4.06079,-0.36443"
       id="path1693" /></g></svg>
