<?xml version="1.0" encoding="UTF-8" standalone="no"?>
<!-- Created with Inkscape (http://www.inkscape.org/) -->

<svg
   width="9289.7422mm"
   height="4088.6433mm"
   viewBox="0 0 9289.742 4088.6434"
   version="1.1"
   id="svg12"
   inkscape:version="1.2.1 (9c6d41e410, 2022-07-14, custom)"
   sodipodi:docname="less_useful_crit.svg"
   xml:space="preserve"
   xmlns:inkscape="http://www.inkscape.org/namespaces/inkscape"
   xmlns:sodipodi="http://sodipodi.sourceforge.net/DTD/sodipodi-0.dtd"
   xmlns="http://www.w3.org/2000/svg"
   xmlns:svg="http://www.w3.org/2000/svg"><sodipodi:namedview
     id="namedview14"
     pagecolor="#505050"
     bordercolor="#eeeeee"
     borderopacity="1"
     inkscape:showpageshadow="0"
     inkscape:pageopacity="0"
     inkscape:pagecheckerboard="0"
     inkscape:deskcolor="#505050"
     inkscape:document-units="mm"
     showgrid="true"
     inkscape:zoom="0.02"
     inkscape:cx="13950"
     inkscape:cy="20750"
     inkscape:window-width="1366"
     inkscape:window-height="746"
     inkscape:window-x="0"
     inkscape:window-y="0"
     inkscape:window-maximized="1"
     inkscape:current-layer="layer1"
     inkscape:lockguides="true"><inkscape:grid
       type="xygrid"
       id="grid344"
       color="#969696"
       opacity="0.39215686"
       empcolor="#000000"
       empopacity="0.17254902"
       dotted="false"
       originx="-9251.8306"
       originy="-45066.341" /></sodipodi:namedview><defs
     id="defs9" /><g
     inkscape:label="Layer 1"
     inkscape:groupmode="layer"
     id="layer1"
     transform="translate(-9356.8306,-45214.839)"><path
       style="fill:none;stroke:#ffffff;stroke-width:10.7"
       d="m 9697.275,45664.2 c -27.7458,15.144 -58.8097,25.373 -83.2374,45.436 -69.6214,57.182 -90.233,219.546 -78.2571,300.141 8.3211,56.002 24.5144,110.607 39.8399,165.111 2.0307,7.22 58.2739,109.693 44.1087,120.311 -18.9992,14.243 -43.8751,-19.008 -63.3172,-32.639"
       id="path325" /><path
       style="fill:none;stroke:#ffffff;stroke-width:10.7"
       d="m 9357.2113,46128.811 c 103.8675,-7.409 207.5191,11.62 308.7608,32.636"
       id="path327" /><path
       style="fill:none;stroke:#ffffff;stroke-width:10.7"
       d="m 9952.6783,45231.587 c 14.3577,90.051 87.6487,188.651 75.4117,282.221"
       id="path329" /><path
       style="fill:none;stroke:#ffffff;stroke-width:10.7"
       d="m 10016.707,45219.427 c 91.452,54.838 184.995,163.338 202.046,273.262"
       id="path331" /><path
       style="fill:none;stroke:#ffffff;stroke-width:10.7"
       d="m 10675.492,45729.475 c 7.825,-29.438 52.915,-80.489 23.477,-88.315 -29.438,-7.824 -1.441,67.286 -23.477,88.315 -30.194,28.816 -86.408,16.698 -116.675,45.437 -35.425,33.636 -101.568,220.628 -101.023,265.583 0.871,71.813 17.351,143.984 42.686,211.188 21.9,58.095 132.713,94.218 177.857,49.916"
       id="path333" /><path
       style="fill:none;stroke:#ffffff;stroke-width:10.7"
       d="m 10910.975,45841.468 c -66.245,-27.813 -91.019,107.391 -41.263,115.191 70.329,11.028 193.588,-96.726 145.843,-168.309 -27.352,-41.008 -45.608,66 -36.282,104.315 12.179,50.043 38.527,87.635 82.525,112.633"
       id="path335" /><path
       style="fill:none;stroke:#ffffff;stroke-width:10.7"
       d="m 11343.525,46019.376 c -25.951,-6.387 -140.899,232.389 -64.029,146.55"
       id="path337" /><path
       style="fill:none;stroke:#ffffff;stroke-width:10.7"
       d="m 11396.882,45893.945 c 33.024,113.491 14.702,-159.472 31.303,-135.673 43.237,61.989 58.292,182.928 69.008,251.505 1.737,11.11 -5.84,43.556 -8.537,32.639 -11.881,-48.096 19.477,-204.208 98.889,-139.512 46.695,38.042 18.986,197.345 -10.671,143.992"
       id="path339" /><path
       style="fill:none;stroke:#ffffff;stroke-width:10.7"
       d="m 11719.16,46014.897 c 9.96,24.106 28.994,46.249 29.88,72.316 0.84,24.725 -108.744,262.21 -27.035,104.952"
       id="path341" /><path
       style="fill:none;stroke:#ffffff;stroke-width:10.7"
       d="m 11916.937,45870.265 c 3.795,-30.29 15.875,-60.677 11.383,-90.874 -4.354,-29.273 -60.42,22.074 -74.7,47.998 -31.621,57.404 -39.5,131.498 -14.94,193.268 40.409,101.629 272.615,187.364 231.927,74.234"
       id="path343" /><path
       style="fill:none;stroke:#ffffff;stroke-width:10.7"
       d="m 12008.001,45553.485 c 28.219,10.027 64.37,8.051 84.66,30.08 55.444,60.193 157.236,372.944 156.514,442.211 -0.782,75.076 -22.19,149.972 -50.511,219.507 -18.306,44.945 -89.245,114.093 -142.998,96.634"
       id="path345" /><path
       style="fill:none;stroke:#ffffff;stroke-width:10.7"
       d="m 13356.161,45545.166 c -34.311,-66.773 -21.668,-98.48 0,0 z"
       id="path347" /><path
       style="fill:none;stroke:#ffffff;stroke-width:10.7"
       d="m 13339.798,45797.311 c 3.083,45.863 2.06,92.189 9.249,137.592 2.705,17.089 36.932,141.838 67.586,151.029 18.805,5.638 14.043,-36.735 19.208,-55.676"
       id="path349" /><path
       style="fill:none;stroke:#ffffff;stroke-width:10.7"
       d="m 13553.938,45769.152 c 32.489,32.424 65.118,64.709 97.466,97.274 23.382,23.54 49.379,44.826 69.721,71.035 99.031,127.606 -67.287,225.351 -111.695,126.072 -9.187,-20.537 4.269,-44.797 6.403,-67.194"
       id="path351" /><path
       style="fill:none;stroke:#ffffff;stroke-width:10.7"
       d="m 14421.172,45734.595 c -41.645,15.29 70.918,324.675 110.271,278.381"
       id="path353" /><path
       style="fill:none;stroke:#ffffff;stroke-width:10.7"
       d="m 14517.927,45921.462 c 12.339,-38.555 225.133,-50.131 213.428,-124.791 -7.889,-50.321 -117.355,6.768 -144.42,49.916 -38.856,61.947 74.709,118.867 118.098,119.674 59.587,1.103 70.767,-11.573 111.694,-37.118"
       id="path355" /><path
       style="fill:none;stroke:#ffffff;stroke-width:10.7"
       d="m 14848.742,45705.797 c 32.014,25.17 61.308,54.253 96.042,75.515 62.37,38.179 133.205,30.088 81.815,125.431 -23.493,43.588 -63.073,78.809 -100.311,110.075 -4.293,3.603 -16.746,13.967 -14.229,8.958 14.544,-28.934 34.148,-55.036 51.223,-82.555"
       id="path357" /><path
       style="fill:none;stroke:#ffffff;stroke-width:10.7"
       d="m 15102.011,45731.396 c 20.378,11.308 120.636,65.979 137.306,79.354 197.701,158.615 -123.299,332.689 -151.535,133.752"
       id="path359" /><path
       style="fill:none;stroke:#ffffff;stroke-width:10.7"
       d="m 15813.441,45802.431 c 23.545,146.889 250.932,99.161 224.812,-30.078"
       id="path361" /><path
       style="fill:none;stroke:#ffffff;stroke-width:10.7"
       d="m 16029.716,45646.279 c 19.683,26.879 37.088,55.584 59.048,80.635 42.432,48.405 192.907,154.448 120.232,238.707 -12.402,14.377 -29.576,32.737 -48.377,30.078 -87.949,-12.441 -80.752,-95.285 -62.606,-151.673 m 0,0 c 39.26,-96.627 263.338,-4.003 276.035,-110.071 8.496,-70.97 -131.288,6.147 -145.131,27.518 -56.909,87.855 135.876,151.631 209.16,138.872"
       id="path363" /><path
       style="fill:none;stroke:#ffffff;stroke-width:10.7"
       d="m 16585.342,45602.123 c -3.319,38.825 -12.703,77.602 -9.959,116.472 2.973,42.117 45.532,105.053 45.532,148.471 0,10.882 -15.555,-15.541 -24.901,-21.119 -15.863,-9.467 -32.812,-17.06 -49.799,-24.318 -2.838,-1.212 -76.362,-25.244 -71.855,-30.718 18.021,-21.886 175.26,-45.262 207.738,-55.676 82.475,38.841 321.3,76.971 220.543,-87.035"
       id="path365" /><path
       style="fill:none;stroke:#ffffff;stroke-width:10.7"
       d="m 16915.447,45483.73 c 26.603,112.435 65.943,218.903 106.003,327.02"
       id="path367" /><path
       style="fill:none;stroke:#ffffff;stroke-width:10.7"
       d="m 9845.2525,46774.529 c 15.3085,172.643 68.0685,341.095 108.8488,509.407 5.633,23.249 -2.9975,-47.76 -3.5571,-71.675 -2.2947,-98.047 4.6734,-247.179 41.9743,-234.866 72.5785,23.961 69.7935,143.021 57.6255,198.388 -4.529,20.613 -18.05,71.464 -31.303,55.038 -46.0125,-57.028 -35.7364,-228.081 58.338,-231.666 53.227,-2.03 122.732,38.497 173.589,15.999 21.474,-9.501 17.861,-39.846 0,-50.557 -51.02,-30.596 -154.283,165.159 0,147.191 35.664,-4.154 68.297,-22.185 102.446,-33.279 35.809,12.373 70.066,30.826 107.426,37.119 37.991,6.399 153.884,-30.773 139.44,-88.314 -30.923,-123.188 -20.955,113.26 12.806,139.511 18.975,14.754 40.064,-28.797 52.646,-49.277"
       id="path369" /><path
       style="fill:none;stroke:#ffffff;stroke-width:10.7"
       d="m 10689.72,46996.596 c 101.775,310.685 298.505,-60.433 194.932,-110.715 -43.738,-21.233 -52.421,77.452 -6.403,121.592 34.334,32.936 82.62,47.49 125.923,67.196 23.68,10.777 77.337,14.918 67.586,39.04 -11.386,28.165 -122.468,15.811 -116.674,-23.04 10.84,-72.689 314.994,-88.101 288.129,-120.952 -62.933,-76.954 -226.63,12.24 -197.778,101.754 46.02,142.774 312.652,114.675 418.321,71.675"
       id="path371" /><path
       style="fill:none;stroke:#ffffff;stroke-width:10.7"
       d="m 11988.792,46816.767 c 13.662,62.14 37.598,170.54 103.157,198.387 21.709,9.221 32,-126.727 32.014,-126.712 14.953,15.971 58.947,190.556 120.232,161.269 92.64,-44.27 42.865,-145.941 86.083,-178.548 37.947,-28.628 80.792,-14.897 120.944,-50.557 35.777,-31.777 -9.02,-73.194 -48.378,-57.597 -71.646,28.395 -104.815,123.33 -15.651,153.59 97.606,33.126 199.619,10.594 296.666,34.558"
       id="path373" /><path
       style="fill:none;stroke:#ffffff;stroke-width:10.7"
       d="m 12982.66,46670.854 c 43.392,66.644 43.788,184.219 88.928,247.666 6.072,8.533 53.877,-207.65 78.258,-187.507 34.929,28.855 76.233,227.555 88.929,122.872 38.654,-21.759 75.77,-46.512 115.963,-65.277 39.083,-18.246 54.479,-5.742 88.929,-27.518 110.625,-69.927 -271.194,-63.13 -81.103,38.398 81.314,43.43 199.031,28.454 209.872,-72.316 1.944,-18.073 14.433,-73.953 -8.537,-95.993 -33.649,-32.286 -162.487,97.889 61.183,168.309 19.213,6.049 40.702,-2.439 59.76,-8.959 102.217,-34.975 74.249,-109.609 54.068,-195.188 -12.425,-52.691 -28.252,-83.499 -14.939,-75.515 84.002,50.375 165.551,163.157 200.623,252.784 6.834,17.464 31.09,125.875 -32.726,116.472 -91.985,-13.552 -127.17,-174.709 -9.249,-174.709"
       id="path375" /><path
       style="fill:none;stroke:#ffffff;stroke-width:10.7"
       d="m 14532.155,46442.389 c -36.886,144.72 92.276,213.723 123.789,332.78"
       id="path377" /><path
       style="fill:none;stroke:#ffffff;stroke-width:10.7"
       d="m 14552.075,46685.573 c 45.532,-23.463 89.218,-50.922 136.595,-70.395 110.052,-45.233 231.259,87.035 125.212,87.035 -90.072,0 -116.772,-117.414 -49.801,-168.31 50.254,-38.189 148.966,31.438 138.729,89.596 -18.955,107.691 -107.543,105.887 -132.326,0"
       id="path379" /><path
       style="fill:none;stroke:#ffffff;stroke-width:10.7"
       d="m 15317.574,46443.03 c -32.014,-3.413 -64.113,-14.367 -96.043,-10.24 -30.947,4.001 -13.526,51.515 -7.114,59.516 51.903,64.762 200.724,103.409 201.335,202.869 0.09,14.639 -37.311,135.012 -80.392,112.633 -39.872,-20.712 -22.541,-87.603 -24.9,-132.472"
       id="path381" /><path
       style="fill:none;stroke:#ffffff;stroke-width:10.7"
       d="m 15410.06,46435.989 c 23.003,8.747 53.215,7.366 69.009,26.239 26.834,32.065 65.668,213.884 19.208,250.224 -0.999,0.783 -14.102,-104.23 41.975,-145.269 33.733,-24.689 97.219,111.871 120.232,131.191 1.934,-44.356 -7.03,-133.551 24.189,-182.388 7.088,-11.089 17.667,-27.441 30.591,-24.959 82.392,15.823 10.291,218.932 12.094,114.553 0.532,-30.787 2.151,-61.657 6.403,-92.154 4.542,-32.574 12.168,-64.672 19.92,-96.634 12.257,-50.535 22.876,-60.371 26.323,-55.037 28.743,44.471 40.432,121.133 45.531,173.429 0.829,8.496 -0.435,34.058 0.712,25.599 31.567,-232.82 66.327,-51.283 127.346,33.918 22.403,31.282 71.906,-163.083 71.143,-183.669"
       id="path383" /><path
       style="fill:none;stroke:#ffffff;stroke-width:10.7"
       d="m 16497.125,46357.276 c -12.546,-135.885 66.346,-210.963 0,0 z"
       id="path385" /><path
       style="fill:none;stroke:#ffffff;stroke-width:10.7"
       d="m 16524.16,46366.875 c 31.097,72.191 53.481,274.971 116.674,323.18 27.006,20.601 38.517,-56.47 51.935,-87.675"
       id="path387" /><path
       style="fill:none;stroke:#ffffff;stroke-width:10.7"
       d="m 16724.783,46387.994 c -119.298,-12.052 73.572,296.553 21.344,283.501"
       id="path389" /><path
       style="fill:none;stroke:#ffffff;stroke-width:10.7"
       d="m 16659.332,46574.221 c 88.458,-53.184 129.468,-71.515 216.986,-55.036"
       id="path391" /><path
       style="fill:none;stroke:#ffffff;stroke-width:10.7"
       d="m 17263.336,46315.678 c 4.743,-23.037 18.867,-46.056 14.228,-69.115 -6.615,-32.887 -63.543,29.938 -82.525,57.595 -31.082,45.291 -45.139,109.331 -39.129,163.19 5.892,52.805 29.595,88.474 63.317,125.433 23.306,25.543 39.07,24.884 34.86,26.877 -6.861,3.249 -15.177,0.428 -22.766,0.64 -271.83,-43.783 -84.857,-217.782 80.392,-145.27 30.355,0.853 71.724,-20.852 91.064,2.56 19.282,23.343 -9.255,59.856 -14.94,89.595 -0.732,3.826 -0.841,12.729 -4.269,10.879 -12.492,-6.742 67.126,-219.45 131.615,-190.068 18.312,8.343 36.682,51.662 43.397,65.916 11.081,23.526 37.143,84.019 17.074,51.196 -35.128,-57.453 -24.556,-130.237 14.94,-180.468"
       id="path393" /><path
       style="fill:none;stroke:#ffffff;stroke-width:10.7"
       d="m 10150.456,48115.244 c 36.52,4.908 72.805,17.338 109.56,14.719 22.22,-1.582 42.139,-15.325 61.183,-26.877 168.949,-102.497 55.029,-257.275 -61.183,-149.111 -23.236,21.627 -49.478,47.771 -52.646,79.354 -5.694,56.787 3.294,117.382 27.746,168.95 46.168,97.361 258.827,105.605 320.144,21.119 16.175,-22.286 13.754,-53.33 20.631,-79.994"
       id="path395" /><path
       style="fill:none;stroke:#ffffff;stroke-width:10.7"
       d="m 10550.991,47945.016 c 59.29,59.275 -42.851,-99.539 -34.86,-73.596 30.424,98.761 101.698,216.789 201.335,256.624 15.885,6.35 36.791,12.386 51.223,3.199 29.846,-18.999 -81.579,-121.785 -62.606,-127.992 60.049,-19.643 131.393,-22.056 183.549,-62.717 15.797,-12.313 49.773,-90.178 -3.557,-77.433 -122.759,29.332 34.07,280.721 114.54,194.546 48.096,-51.504 -31.556,-126.294 -1.423,-183.028 32.343,-60.892 153.194,-18.64 207.026,-38.397 37.898,-13.909 71.175,-37.298 93.198,-72.316 11.99,-19.065 17.447,-41.656 23.477,-63.357 1.215,-4.368 0.672,-17.002 -2.134,-13.438 -18.237,23.162 -22.547,251.6 -38.418,248.304 -10.965,-2.276 -19.92,-10.24 -29.88,-15.359"
       id="path397" /><path
       style="fill:none;stroke:#ffffff;stroke-width:10.7"
       d="m 11154.284,47833.661 c -7.639,-84.241 258.404,-76.226 172.878,51.197"
       id="path399" /><path
       style="fill:none;stroke:#ffffff;stroke-width:10.7"
       d="m 10337.562,48425.624 c 31.777,-17.277 60.817,-41.016 95.332,-51.837 69.892,-21.908 315.763,-56.687 384.883,-63.995 193.155,-20.418 641.194,-61.397 836.643,-55.676 180.473,5.281 179.464,-21.08 171.454,47.358"
       id="path401" /><path
       style="fill:none;stroke:#ffffff;stroke-width:10.7"
       d="m 12246.33,47545.04 c 49.583,81.46 105.604,158.753 156.514,239.345 19.901,31.504 41.544,62.376 56.203,96.634 22.43,52.417 7.401,159.663 -75.411,147.831 -72.11,-10.303 -160.679,-148.646 -80.392,-203.507 13.214,-9.031 31.777,-3.839 47.666,-5.76"
       id="path403" /><path
       style="fill:none;stroke:#ffffff;stroke-width:10.7"
       d="m 12578.568,47969.974 c 20.721,-57.848 28.654,-98.795 19.208,-154.871"
       id="path405" /><path
       style="fill:none;stroke:#ffffff;stroke-width:10.7"
       d="m 12588.527,47676.872 c 2.135,-33.706 0.686,-67.829 6.404,-101.113 4.443,-25.871 22.99,-59.458 42.686,-78.076 34.559,-32.668 62.775,33.935 72.565,52.477 31.364,59.394 165.191,322.678 149.4,379.497 -5.893,21.204 -18.601,-40.15 -24.188,-61.436 -21.519,-81.984 -16.877,-69.615 -13.517,-145.912 34.204,18.903 114.725,69.133 164.34,82.556 114.732,31.039 147.127,-114.803 93.198,-133.752 -79.115,-27.799 -123.148,340.402 68.297,255.984"
       id="path407" /><path
       style="fill:none;stroke:#ffffff;stroke-width:10.7"
       d="m 13251.581,47705.672 c -86.624,125.825 141.973,206.044 193.509,91.514"
       id="path409" /><path
       style="fill:none;stroke:#ffffff;stroke-width:10.7"
       d="m 13425.881,47510.483 c -35.382,88.384 83.643,412.147 7.114,438.372"
       id="path411" /><path
       style="fill:none;stroke:#ffffff;stroke-width:10.7"
       d="m 13366.832,47781.186 c 11.857,-20.693 16.79,-47.379 35.572,-62.076 46.775,-36.603 132.255,11.062 157.937,49.916"
       id="path413" /><path
       style="fill:none;stroke:#ffffff;stroke-width:10.7"
       d="m 13511.964,47568.718 c -10.008,-29.956 -34.816,-151.204 29.169,-138.872"
       id="path415" /><path
       style="fill:none;stroke:#ffffff;stroke-width:10.7"
       d="m 13694.802,47605.196 c 140.725,106.466 55.606,192.013 24.9,121.592 -16.536,-37.923 -21.807,-80.335 -24.9,-121.592 -2.418,-32.245 -4.176,-66.9 8.537,-96.634 19.924,-46.598 168.245,200.962 132.326,265.584 -2.159,3.884 -8.19,-5.284 -9.249,-9.599 -7.167,-29.2 -12.056,-59.026 -14.94,-88.956 -3.971,-41.219 -9.758,-221.795 27.746,-248.303 25.226,-17.831 77.516,242.924 80.392,257.265 2.621,13.067 7.07,52.839 4.98,39.676 -3.301,-20.783 3.989,-254.28 51.934,-220.786 79.833,55.768 62.439,176.559 125.923,243.183"
       id="path417" /><path
       style="fill:none;stroke:#ffffff;stroke-width:10.7"
       d="m 14969.684,47223.14 c -35.808,33.706 -80.335,60.074 -107.425,101.114 -67.169,101.764 35.292,277.264 115.251,343.659"
       id="path419" /><path
       style="fill:none;stroke:#ffffff;stroke-width:10.7"
       d="m 14805.345,47523.281 c 65.844,-58.248 126.811,-47.879 202.045,-68.474 31.066,-9.173 61.485,-34.114 93.198,-27.519 7.753,1.613 67.229,100.524 81.103,122.872 6.37,10.261 13.269,20.204 19.209,30.719 1.441,2.552 2.845,11.25 2.845,8.319 0,-59.603 -31.189,-146.66 18.498,-194.548"
       id="path421" /><path
       style="fill:none;stroke:#ffffff;stroke-width:10.7"
       d="m 15314.017,47494.484 c -41.79,-50.504 -82.362,-142.748 -3.557,-188.148 31.771,-18.304 67.047,92.89 61.183,108.791 -11.31,30.673 -38.417,52.904 -57.626,79.357 z"
       id="path423" /><path
       style="fill:none;stroke:#ffffff;stroke-width:10.7"
       d="m 15406.503,47246.818 c 85.152,46.881 104.562,128.265 124.5,216.307 2.97,13.116 3.873,53.541 1.423,40.318 -9.633,-51.994 -13.474,-118.063 7.826,-167.029 8.201,-18.852 55.652,92.861 61.894,97.914 11.608,9.398 5.684,-29.44 10.672,-43.519 14.138,-39.899 26.233,-77.239 59.76,-104.952 37.267,-30.805 87.96,92.025 109.56,112.633"
       id="path425" /><path
       style="fill:none;stroke:#ffffff;stroke-width:10.7"
       d="m 16308.597,47164.906 c -3.32,-19.201 9.239,-60.918 -9.96,-57.598 -13.883,2.4 72.247,253.363 86.082,348.137"
       id="path427" /><path
       style="fill:none;stroke:#ffffff;stroke-width:10.7"
       d="m 16237.453,47399.768 c 37.232,-29.011 73.722,-58.999 111.695,-87.034 20.949,-15.465 128.967,-70.917 118.098,-113.271 -1.766,-6.882 -3.824,14.081 -2.846,21.119 6.86,49.368 28.397,140.909 82.526,162.549 30.857,12.335 34.253,-103.092 35.571,-114.554 1.888,-16.42 12.411,32.052 24.9,42.879 24.711,21.42 56.135,22.598 85.372,9.599 18.785,-8.353 129.571,-93.353 96.754,-122.873 -44.149,-39.714 -110.878,50.829 -101.023,90.874 27.82,113.041 187.942,75.835 266.787,87.035"
       id="path429" /><path
       style="fill:none;stroke:#ffffff;stroke-width:10.7"
       d="m 17217.093,47134.187 c -234.607,130.199 -11.058,255.794 138.729,132.469"
       id="path431" /><path
       style="fill:none;stroke:#ffffff;stroke-width:10.7"
       d="m 17385.702,47093.868 c 9.352,-143.1 137.55,250.536 108.137,201.588 -19.8,-32.951 -13.606,-289.062 39.84,-216.947"
       id="path433" /><path
       style="fill:none;stroke:#ffffff;stroke-width:10.7"
       d="m 17617.629,47190.504 c 13.729,-38.148 20.649,-71.104 15.651,-110.075"
       id="path435" /><path
       style="fill:none;stroke:#ffffff;stroke-width:10.7"
       d="m 17652.488,46986.354 c 16.951,-58.499 50.414,-108.558 80.392,-160.628 4.597,119.035 67.318,237.818 69.72,354.538 -29.359,-149.49 -40.871,-156.604 88.929,-160.63 33.675,-42.664 67.349,-85.328 101.024,-127.992"
       id="path437" /><path
       style="fill:none;stroke:#ffffff;stroke-width:10.7"
       d="m 17991.84,46775.169 c -21.073,-83.267 7.486,-108.429 84.661,-101.753 24.663,39.464 64.398,72.854 73.988,118.392 15.83,75.168 -139.446,210.151 -44.819,290.542 43.264,36.756 83.735,-0.864 123.077,-18.559"
       id="path439" /><path
       style="fill:none;stroke:#ffffff;stroke-width:10.7"
       d="m 18315.541,46894.202 c -93.297,-55.641 -51.556,145.378 -29.169,110.072 20.327,-32.057 1.164,-84.452 29.169,-110.072 23.647,-21.635 66.183,7.16 96.043,-4.482 15.104,-5.887 18.783,-59.941 7.826,-47.995 -44.168,48.159 -75.665,326.853 26.323,264.303"
       id="path441" /><path
       style="fill:none;stroke:#ffffff;stroke-width:10.7"
       d="m 18542.487,46732.931 c -37.599,175.207 57.867,348.874 98.89,515.808"
       id="path443" /><path
       style="fill:none;stroke:#ffffff;stroke-width:10.7"
       d="m 10987.81,49281.89 c 1.219,21.944 2.142,28.741 -6.403,-25.599 -10.712,-68.114 -15.348,-137.234 -29.169,-204.785 -6.705,-32.771 -18.023,-64.423 -27.034,-96.633 -30.592,-37.331 -73.248,-67.427 -91.775,-111.994 -13.923,-33.493 61.414,-54.145 73.278,-53.756 84.366,2.767 187.434,45.002 211.294,135.671 5.985,22.744 1.867,110.657 -56.203,95.994 -19.337,-4.883 -19.92,-34.558 -29.88,-51.837"
       id="path445" /><path
       style="fill:none;stroke:#ffffff;stroke-width:10.7"
       d="m 11265.267,48963.831 c 5.255,4.985 103.308,64.133 80.392,110.072 -30.815,61.775 -113.783,-56.48 -138.729,-140.149 -6.937,-23.268 33.643,-75.981 46.954,-55.677 15.81,24.114 -11.229,67.861 11.383,85.754 26.419,20.908 71.829,-13.618 101.023,3.199 27.212,15.677 47.41,93.168 57.626,126.712 -2.134,-52.69 -7.794,-105.354 -6.403,-158.069 1.539,-58.271 16.74,-88.012 24.901,-142.071 7.071,-46.837 -9.097,-152.379 -4.981,-154.23 27.072,-12.176 121.576,186.11 128.058,200.307 16.481,36.097 49.503,118.953 51.223,119.033 20.964,0.967 9.9,-299.797 105.291,-171.509 14.082,18.938 25.101,40.013 36.284,60.796 24.93,46.333 39.289,79.594 66.163,119.672"
       id="path447" /><path
       style="fill:none;stroke:#ffffff;stroke-width:10.7"
       d="m 11845.794,48798.081 c 0.949,-19.839 22.685,-58.566 2.846,-59.516 -19.839,-0.95 -9.908,40.952 -2.846,59.516 40.062,105.312 151.657,223.345 95.332,239.344"
       id="path449" /><path
       style="fill:none;stroke:#ffffff;stroke-width:10.7"
       d="m 11842.949,48949.753 c 2.546,-99.105 236.047,-114.887 273.189,-71.038"
       id="path451" /></g></svg>
