<?xml version="1.0" encoding="UTF-8" standalone="no"?>
<!-- Created with Inkscape (http://www.inkscape.org/) -->

<svg
   width="252.85233mm"
   height="151.98857mm"
   viewBox="0 0 252.85232 151.98858"
   version="1.1"
   id="svg12"
   inkscape:version="1.2.1 (9c6d41e410, 2022-07-14, custom)"
   sodipodi:docname="linear_definition.svg"
   xmlns:inkscape="http://www.inkscape.org/namespaces/inkscape"
   xmlns:sodipodi="http://sodipodi.sourceforge.net/DTD/sodipodi-0.dtd"
   xmlns="http://www.w3.org/2000/svg"
   xmlns:svg="http://www.w3.org/2000/svg">
  <sodipodi:namedview
     id="namedview14"
     pagecolor="#505050"
     bordercolor="#eeeeee"
     borderopacity="1"
     inkscape:showpageshadow="0"
     inkscape:pageopacity="0"
     inkscape:pagecheckerboard="0"
     inkscape:deskcolor="#505050"
     inkscape:document-units="mm"
     showgrid="true"
     inkscape:zoom="0.67358731"
     inkscape:cx="503.27551"
     inkscape:cy="524.05975"
     inkscape:window-width="1366"
     inkscape:window-height="746"
     inkscape:window-x="0"
     inkscape:window-y="0"
     inkscape:window-maximized="1"
     inkscape:current-layer="layer1"
     inkscape:lockguides="false">
    <inkscape:grid
       type="xygrid"
       id="grid344"
       color="#969696"
       opacity="0.39215686"
       empcolor="#000000"
       empopacity="0.17254902"
       dotted="false"
       originx="64.683967"
       originy="87.575239" />
  </sodipodi:namedview>
  <defs
     id="defs9" />
  <g
     inkscape:label="Layer 1"
     inkscape:groupmode="layer"
     id="layer1"
     transform="translate(-40.316043,-60.924763)">
    <path
       style="fill:none;stroke:#00ffff;stroke-width:0.264999"
       d="m 53.429893,106.61992 c -5.03193,2.52136 -7.238204,8.60636 -6.252596,14.00413 0.184454,1.01018 0.668255,2.40091 1.03506,3.36327 0.06083,0.1596 1.139272,2.24888 0.67596,1.95715"
       id="path932" />
    <path
       style="fill:none;stroke:#00ffff;stroke-width:0.264999"
       d="m 49.691016,121.51712 c 0.407109,0.008 4.467259,0.6369 4.182475,0.89307"
       id="path934" />
    <path
       style="fill:none;stroke:#00ffff;stroke-width:0.264999"
       d="m 45.82539,121.02308 c -1.502693,-0.83931 -3.839755,0.32495 -5.365398,-0.28502 -0.06948,-0.0278 0.136501,-0.08 0.211224,-0.076 1.719842,0.0914 3.439076,0.51803 5.154174,0.36103 10.830321,-0.99139 1.053769,-1.93949 9.569005,-1.06408 0.913188,0.0939 1.817833,0.25805 2.724946,0.39903 1.314644,0.20431 1.767994,0.35306 1.753254,0.24702 -0.06681,-0.48054 -0.916376,-0.33372 -1.39415,-0.41804 -4.426464,-0.78123 -8.308534,0.0732 -12.653055,0.83607 -1.107192,0.19441 -4.471564,0.46243 -3.358653,0.30402 12.112572,-1.72402 -5.676278,1.58382 6.569443,-1.88115 2.290358,-0.64807 4.677053,-1.20081 7.055284,-1.10208 0.408016,0.0169 -0.703398,0.4038 -2.555952,0.038"
       id="path936" />
    <path
       style="fill:none;stroke:#00ffff;stroke-width:0.264999"
       d="m 48.909439,112.07336 c -2.240211,4.89594 -3.027098,10.07012 -2.091245,15.37224 0.293912,1.66516 0.84106,3.35325 1.436407,4.9404 0.498739,1.3296 0.786998,1.66931 0.697079,1.65313 -0.197821,-0.0356 -0.222806,-0.33539 -0.316847,-0.51304 -0.258302,-0.48794 -0.492889,-0.98808 -0.739335,-1.48212"
       id="path938" />
    <path
       style="fill:none;stroke:#00ffff;stroke-width:0.264999"
       d="m 48.888317,120.41503 c 0.404937,-0.53913 11.541565,1.17809 7.667866,1.17809"
       id="path940" />
    <path
       style="fill:none;stroke:#00ffff;stroke-width:0.264999"
       d="m 73.095988,108.12104 c -5.932765,3.29103 -7.971054,11.39794 -3.865628,17.02537 1.109617,1.52098 4.437038,4.08326 4.92181,5.28243"
       id="path986" />
    <path
       style="fill:none;stroke:#00ffff;stroke-width:0.264999"
       d="m 89.656904,109.81217 c -1.282393,1.2686 -4.993875,3.18116 -5.048541,5.32044 -0.05217,2.04186 9.403723,2.20326 9.73799,6.68853 0.387072,5.19381 -11.907271,8.67469 -12.272833,5.0164 -0.07981,-0.79868 0.774536,-1.40611 1.161804,-2.10916"
       id="path988" />
    <path
       style="fill:none;stroke:#00ffff;stroke-width:0.264999"
       d="m 93.564774,102.68659 c 1.218131,0.64606 2.59317,1.0578 3.65439,1.93816 0.888722,0.73726 1.477095,1.79007 2.048989,2.79323 3.287817,5.76715 4.545027,12.36429 2.323607,18.77351 -0.15,0.43278 -3.285664,7.00884 -4.752818,6.23251 -0.355724,-0.18823 -0.225322,-0.77273 -0.337981,-1.15909"
       id="path990" />
    <path
       style="fill:none;stroke:#00ffff;stroke-width:0.264999"
       d="m 119.75807,116.2917 c 0.77791,-1.74268 14.53195,-0.5382 6.84406,0.77906"
       id="path992" />
    <path
       style="fill:none;stroke:#00ffff;stroke-width:0.264999"
       d="m 119.01875,121.78314 c 6.6433,1.85985 2.2378,1.18392 10.96315,0.39903 0.57876,-0.0521 2.76519,-0.31518 1.98563,0.76007"
       id="path994" />
    <path
       style="fill:none;stroke:#00ffff;stroke-width:0.264999"
       d="m 165.13162,86.117254 c -0.0352,0.703059 -0.0704,1.406118 -0.10563,2.109177 -0.0845,1.127422 -0.19432,2.253232 -0.25348,3.382267 -0.0395,0.752827 -0.0337,1.507375 -0.0422,2.261186 -0.0748,6.563036 -0.60218,-6.701105 0.40135,-7.75263 0.87288,-0.91462 7.70899,-0.862047 7.90023,-0.87406 0.9401,-0.05905 1.87202,-0.211873 2.80945,-0.304032 1.02796,-0.10106 1.57022,-0.202365 1.58428,-0.038 0.089,1.04031 -0.24613,2.074542 -0.31687,3.116247 -0.13908,2.047782 -0.24068,4.342928 -0.0211,6.403529 0.10753,1.0092 0.31019,2.006581 0.50697,3.002235 0.0344,0.174349 1.10511,2.974167 0.10563,1.026083"
       id="path996" />
    <path
       style="fill:none;stroke:#00ffff;stroke-width:0.264999"
       d="m 170.09568,103.56067 c -9.32756,2.69665 4.04783,6.43258 5.2809,8.26567 0.3009,0.44732 0.43035,1.20158 0.0845,1.61512 -2.31271,2.76523 -5.03574,3.28055 -8.47055,2.18519 -0.69773,-0.22251 -1.27163,-1.01819 -1.3308,-1.74815 -0.0319,-0.39383 0.78861,-0.0507 1.18292,-0.076"
       id="path998" />
    <path
       style="fill:none;stroke:#00ffff;stroke-width:0.264999"
       d="m 163.0615,116.61472 c -0.14787,-0.60805 0.16445,-1.97201 -0.4436,-1.82414 -0.60805,0.14786 0.5256,1.20377 0.4436,1.82414 -0.0301,0.22765 -2.25276,5.67599 -1.30965,7.06858 0.87378,1.29023 13.71095,-2.30313 15.67373,-2.62222 0.52952,-0.0861 1.06948,-0.13886 1.60537,-0.11401 0.25972,0.012 0.35858,0.68286 0.57036,0.53204 1.78925,-1.27421 2.52605,-13.39442 -0.35912,-7.06857"
       id="path1000" />
    <path
       style="fill:none;stroke:#00ffff;stroke-width:0.264999"
       d="m 170.91949,127.90164 c 0.27461,0.8614 0.66258,1.69459 0.82383,2.5842 0.12291,0.67812 0.61481,5.76878 -1.37304,5.66246 -0.77732,-0.0416 -4.59044,-1.45724 -4.8373,-2.88823 -0.18561,-1.07594 7.8863,-1.62521 9.231,-1.78614 0.84238,-0.10082 2.50704,0.23959 2.47148,-0.60805 -0.0115,-0.27303 -0.35206,-0.41804 -0.52809,-0.62706"
       id="path1002" />
    <path
       style="fill:none;stroke:#00ffff;stroke-width:0.264999"
       d="m 170.89836,63.771455 c -1.04937,-3.556817 0.40916,-3.680482 0,0 z"
       id="path1004" />
    <path
       style="fill:none;stroke:#00ffff;stroke-width:0.264999"
       d="m 169.60984,70.478997 c 0.37517,3.268564 0.76246,6.475882 0.7182,9.766783 -0.0169,1.257166 -0.11284,2.400454 -0.12675,2.394196 -0.11588,-0.05212 0.033,-1.362954 0.0422,-1.463112"
       id="path1006" />
    <path
       style="fill:none;stroke:#00ffff;stroke-width:0.264999"
       d="m 197.13392,89.404523 c -0.91537,0.722059 -2.00655,1.264879 -2.74609,2.166176 -5.75922,7.018926 -3.59539,19.836481 1.18293,26.659151 0.62756,0.89607 1.94868,2.80713 3.35865,3.00224"
       id="path1008" />
    <path
       style="fill:none;stroke:#00ffff;stroke-width:0.264999"
       d="m 216.18742,95.333009 c -0.29573,-0.551045 -0.77651,-1.037621 -0.8872,-1.653134 -0.004,-0.0201 0.96708,-2.244572 1.01395,-0.912072 0.0301,0.855583 -0.0845,1.710136 -0.12675,2.565206 z"
       id="path1010" />
    <path
       style="fill:none;stroke:#00ffff;stroke-width:0.264999"
       d="m 215.15237,105.04279 c 0.4588,3.54969 2.07698,9.16418 0.67596,12.69302 -0.0545,0.13738 -0.14282,-0.27031 -0.14787,-0.41803 -0.0515,-1.50659 -0.0408,-3.01502 -0.0211,-4.52237 0.0394,-3.02728 0.43513,-4.93608 -0.50696,-7.75262 z"
       id="path1012" />
    <path
       style="fill:none;stroke:#00ffff;stroke-width:0.264999"
       d="m 217.03237,92.710791 c -0.35206,0.563712 -1.6199,1.339069 -1.05619,1.691134 0.56371,0.352065 1.4567,-1.160739 1.05619,-1.691134 -0.5217,-0.690904 -1.7923,0.04256 -2.57708,-0.323019 -0.2439,-0.113619 -0.0557,-0.812538 0.21124,-0.779074 3.34595,0.419392 3.12687,2.274759 0.63369,4.788394 -1.06096,1.069668 -2.32339,-2.316069 -0.99281,-3.059249 0.81374,-0.454499 1.81664,-0.418034 2.72496,-0.627052 z"
       id="path1014" />
    <path
       style="fill:none;stroke:#00ffff;stroke-width:0.264999"
       d="m 214.49753,103.8837 c 0.0352,-0.60172 0.70733,-1.76995 0.10561,-1.80516 -0.60172,-0.0352 -0.20074,1.20997 -0.10561,1.80516 0.22489,1.40709 0.82639,2.73603 1.05617,4.14233 0.43459,2.65973 0.006,5.41512 -0.61257,7.99965 -0.1276,0.53356 -0.4916,2.13725 -0.40135,1.59612 0.0656,-0.39352 0.14082,-0.78539 0.21123,-1.17809"
       id="path1016" />
    <path
       style="fill:none;stroke:#00ffff;stroke-width:0.264999"
       d="m 204.59055,104.39674 c -2.25251,1.56679 -4.76179,4.18691 -4.49934,7.20158 0.39136,4.49533 9.41415,5.92273 9.92811,2.96424 0.12501,-0.71962 -4.61424,0.97352 -5.15417,0.93108 -2.25363,-0.17713 -4.06741,-3.03916 -3.9501,-5.14942 0.11382,-2.04756 2.30804,-4.89524 3.6755,-5.94748 0.76929,-0.59196 1.83744,-0.62759 2.74608,-0.96908 0.11268,-0.0423 0.96292,-0.38552 0.63369,-0.43703 -5.07445,-0.79391 -11.50828,11.90945 -3.71774,13.03505 0.93745,0.13545 7.87443,-1.17968 6.56943,-1.84316 -0.67976,-0.34559 -2.31742,0.58003 -2.99954,0.72207 -3.22988,0.67255 -8.11535,0.14743 -8.19598,-4.18035 -0.0538,-2.88744 2.892,-4.98135 4.96406,-6.3275 0.31934,-0.20747 3.83202,-1.74906 2.3236,-1.15909"
       id="path1018" />
    <path
       style="fill:none;stroke:#00ffff;stroke-width:0.264999"
       d="m 209.80808,119.92099 c -0.26052,-0.64605 -0.70671,-1.24559 -0.78156,-1.93816 -0.0335,-0.30963 0.29654,-0.55075 0.48584,-0.79806 1.46476,-1.91366 0.74792,3.23228 0.29572,2.73622 -1.96642,-2.15719 1.3943,-5.67109 0.2746,-1.95716"
       id="path1020" />
    <path
       style="fill:none;stroke:#00ffff;stroke-width:0.264999"
       d="m 209.02652,123.11325 c -0.0493,0.75372 -0.1681,1.50611 -0.14788,2.26118 0.003,0.11002 0.43285,8.76632 0,6.89756"
       id="path1022" />
    <path
       style="fill:none;stroke:#00ffff;stroke-width:0.264999"
       d="m 226.58025,87.97941 c 0.80269,0.424368 1.67425,0.738411 2.40809,1.273103 1.49215,1.087221 3.33799,3.723283 4.11909,5.111412 4.02661,7.155855 5.02957,15.591865 -0.0211,22.573825 -1.23713,1.71018 -4.32486,4.71616 -6.25258,5.92848 -0.53492,0.33639 -1.53705,1.18466 -1.79552,0.60805 -0.41655,-0.92926 0.49288,-1.97616 0.73932,-2.96424"
       id="path1024" />
    <path
       style="fill:none;stroke:#00ffff;stroke-width:0.264999"
       d="m 246.45758,98.905297 c 0.1197,-0.703059 0.23939,-1.406118 0.35909,-2.109176 0.0493,-0.06967 0.10247,-0.281287 0.14787,-0.209021 0.50259,0.799878 -0.5047,1.611744 -0.50696,2.318197 -0.009,2.704833 1.6638,9.121783 -0.50696,11.628943 -0.25542,0.295 -0.74637,0.22801 -1.11956,0.34202"
       id="path1026" />
    <path
       style="fill:none;stroke:#00ffff;stroke-width:0.264999"
       d="m 242.02162,107.53199 c 0.59145,-0.65239 1.01525,-1.51088 1.77437,-1.95716 1.65702,-0.97414 6.04196,-2.32945 8.15373,-2.18517 0.69385,0.0474 -1.16562,0.78145 -1.81664,1.02608"
       id="path1028" />
    <path
       style="fill:none;stroke:#00ffff;stroke-width:0.264999"
       d="m 253.66073,93.432854 c 1.0421,0.92474 2.33885,1.624846 3.1263,2.774214 1.92133,2.804419 2.53093,7.773982 1.6265,11.001902 -0.0378,0.13504 -0.90083,2.33778 -1.85886,1.76713 -2.26836,-1.35113 0.48435,-7.63415 4.24585,-7.67662 2.09722,-0.0237 4.91027,2.21727 4.18248,4.57937 -1.105,3.58638 -5.38649,6.92577 -9.10431,4.71239 -0.86862,-0.51714 -2.89707,-2.31255 -2.1546,-3.64829"
       id="path1030" />
    <path
       style="fill:none;stroke:#00ffff;stroke-width:0.264999"
       d="m 292.25361,72.512162 c -0.0279,1.273738 0.11057,2.669073 0.0212,3.876309 -0.0558,2.445149 -0.16393,6.182498 -0.10572,8.512692 0.21439,8.581498 0.89141,17.195117 0.86608,25.785087 -0.006,2.09385 -0.29204,8.66142 -0.38023,11.32492 -0.0389,1.17371 -0.22148,4.63971 -0.0634,6.3465 0.0933,1.00746 0.48738,1.48207 -0.0211,0.53204"
       id="path1032" />
    <path
       style="fill:none;stroke:#00ffff;stroke-width:0.264999"
       d="m 63.294623,151.74856 c -0.950563,1.12742 -1.973635,2.1975 -2.85169,3.38228 -0.407307,0.54958 -1.875678,2.69369 -1.62652,3.80031 0.799917,3.55279 13.960289,6.97766 9.716867,13.47208 -4.103475,6.28023 -13.453969,-3.75196 -9.801354,-5.49144 0.527394,-0.25117 1.154753,-0.17735 1.732129,-0.26603"
       id="path1034" />
    <path
       style="fill:none;stroke:#00ffff;stroke-width:0.264999"
       d="m 81.524314,168.96395 c -0.252143,-1.18499 0.321956,-2.6316 -0.506963,-3.61029"
       id="path1036" />
    <path
       style="fill:none;stroke:#00ffff;stroke-width:0.264999"
       d="m 79.876672,161.11632 c -0.528453,-2.05935 0.186766,-3.01398 1.478647,-4.42736 -1.534706,6.46468 7.955993,3.18024 9.040922,7.88564 0.860179,3.73065 -8.627037,10.41665 -7.308779,2.4322"
       id="path1038" />
    <path
       style="fill:none;stroke:#00ffff;stroke-width:0.264999"
       d="m 97.958487,162.42742 c -3.503864,0.71101 -2.126313,6.01819 1.563158,4.25634 1.451705,-0.69323 3.753875,-3.44227 2.344715,-4.21834 -1.31534,-0.72439 -0.66829,2.28086 -0.59146,2.4322 1.24081,2.44424 3.10527,3.01401 5.17529,4.44636"
       id="path1040" />
    <path
       style="fill:none;stroke:#00ffff;stroke-width:0.264999"
       d="m 119.96931,156.76497 c -0.78862,0.94374 -1.76212,1.75975 -2.36585,2.83123 -1.50591,2.67264 6.62097,5.18117 7.68901,6.3275 1.03248,1.10819 0.97852,2.43961 -0.38023,2.92624 -1.91257,0.68498 -3.92992,-1.95954 -4.11911,-3.59129 -0.35723,-3.08109 6.47639,-1.80321 8.04811,-2.88823 1.55503,-1.0735 0.96793,-4.49457 -0.46473,-3.24926 -2.29645,1.99613 -0.69937,7.37874 2.64045,6.09949 3.07341,-1.17721 3.11588,-3.99867 2.76721,-6.82155 -0.0512,-0.41453 -0.13601,-0.82425 -0.21124,-1.2351 -0.0234,-0.12765 -0.12555,-0.50314 -0.0845,-0.38003 0.4069,1.22019 0.76531,2.45604 1.14067,3.6863 0.9401,3.0812 3.17749,6.94432 -1.64763,5.92847 m 0,0 c -5.02281,-2.50561 10.77457,-5.49215 7.98472,-4.23734"
       id="path1042" />
    <path
       style="fill:none;stroke:#00ffff;stroke-width:0.264999"
       d="m 157.56936,161.89538 c 0.0211,0.55738 -0.49401,1.69326 0.0634,1.67214 0.55737,-0.0211 0.0821,-1.13367 -0.0634,-1.67214 -0.37582,-1.3909 -2.96624,-4.03161 -0.2746,-4.48436 2.54666,-0.42836 3.45948,2.55845 2.83057,4.48436 -0.15246,0.46686 -0.1426,1.33011 -0.63372,1.33011 -0.77919,0 -1.2815,-0.88674 -1.92225,-1.33011 z"
       id="path1044" />
    <path
       style="fill:none;stroke:#00ffff;stroke-width:0.264999"
       d="m 165.46959,154.57979 c 0.2394,-0.52571 1.24392,-1.33773 0.7182,-1.57713 -0.52571,-0.2394 -0.45923,1.06078 -0.7182,1.57713 -0.42431,0.84602 -1.15438,1.57833 -1.33077,2.5082 -0.14406,0.75945 0.12877,1.56515 0.42245,2.28019 0.8796,2.14162 5.13711,3.64307 2.6616,3.59128"
       id="path1046" />
    <path
       style="fill:none;stroke:#00ffff;stroke-width:0.264999"
       d="m 163.27274,161.42034 c 2.44341,-1.49582 4.73101,-2.92867 7.58338,-2.73622"
       id="path1048" />
    <path
       style="fill:none;stroke:#00ffff;stroke-width:0.264999"
       d="m 186.27637,152.2426 c 2.16146,2.76055 3.85868,5.83326 5.74562,8.77871 0.42602,0.66501 1.02225,2.58518 1.41528,1.90015 1.51741,-2.64469 0.24155,-8.75798 0.10563,-11.87595 -0.01,-0.21777 0.26254,0.34855 0.38021,0.53204"
       id="path1050" />
    <path
       style="fill:none;stroke:#00ffff;stroke-width:0.264999"
       d="m 197.09167,153.78172 c -3.91316,10.57767 8.40511,5.99244 7.39327,2.03317 -0.22215,-0.86926 -1.32775,-0.5096 -1.56316,0.22802 -0.44822,1.40442 -0.48053,5.55632 1.58428,6.2895 0.87105,0.3093 1.0668,-1.56444 1.07729,-1.65313 0.18146,-1.53431 -0.75552,-6.65675 0.25348,-7.22058 0.39703,-0.22186 3.08254,3.32536 3.59104,4.16133 0.26892,0.4421 0.53965,0.89417 0.69706,1.38711 0.0425,0.13295 -0.0423,0.51019 -0.12673,0.39904 -1.40147,-1.84602 -0.61195,-7.44165 2.70381,-6.2135 0.67578,0.25031 1.18294,0.8234 1.7744,1.23509 0.25348,-0.90574 0.50697,-1.81147 0.76045,-2.71721 -1.77756,-3.44317 -2.36626,-5.12792 1.4364,-5.62446 0.51401,1.20343 1.31213,2.32204 1.54204,3.61029 0.11846,0.66379 -1.2718,2.85066 -0.19012,3.6673 2.1866,1.65082 6.18862,-2.48872 5.64002,-4.67437 -0.22651,-0.9024 -0.8023,1.73079 -0.84496,2.66021 -0.0294,0.64088 -0.20218,5.25148 1.37304,4.82639"
       id="path1052" />
    <path
       style="fill:none;stroke:#00ffff;stroke-width:0.264999"
       d="m 225.43957,148.11927 c 0.56329,0.54471 1.31247,0.94742 1.68988,1.63413 0.75368,1.37134 1.40708,4.00276 1.20405,5.71947 -0.0228,0.19237 -0.25635,0.49865 -0.42248,0.39903 -0.31549,-0.1892 -0.48488,-0.60376 -0.52809,-0.96909 -0.28393,-2.40098 1.4391,-7.99923 4.2881,-3.62928 0.78955,1.21105 -0.15128,5.20047 -1.20405,4.80738 -0.76236,-0.28466 -0.77453,-1.43145 -1.1618,-2.14717"
       id="path1054" />
    <path
       style="fill:none;stroke:#00ffff;stroke-width:0.264999"
       d="m 231.31194,148.10027 c 0.13621,-0.1972 1.10401,-2.77755 2.28134,-1.91915 2.35018,1.71352 2.11181,5.51706 1.88,8.01864 -0.0404,0.43559 0.21552,-0.86181 0.4436,-1.2351 0.30492,-0.49905 0.66363,-0.97699 1.09844,-1.36811 1.31724,-1.18491 3.7007,-0.99074 4.75281,-2.4892 0.49002,-0.69791 0.68813,-2.01713 -0.48584,-2.22319 -2.49823,-0.43849 -3.70655,3.32046 -1.85888,4.7884 4.51921,3.59045 10.06961,-4.87291 5.44989,-7.79063 -0.12671,-0.08 0.0144,0.31813 0.10561,0.43703 0.46728,0.60895 1.01205,1.15491 1.54204,1.71014 1.69023,1.77075 4.52159,3.82499 4.77393,6.49853 0.35165,3.72566 -5.37006,6.39109 -7.35102,2.92623"
       id="path1056" />
    <path
       style="fill:none;stroke:#00ffff;stroke-width:0.264999"
       d="m 79.665431,184.92524 c -2.506308,2.02626 -9.738458,12.77333 -5.217536,15.04922 2.625516,1.32171 8.934932,-0.34746 11.829235,-0.79807 0.303329,-0.0472 -0.598868,-0.14166 -0.887198,-0.24703"
       id="path1058" />
    <path
       style="fill:none;stroke:#00ffff;stroke-width:0.264999"
       d="m 89.04432,195.03406 c -0.0845,-0.82973 -0.326255,-1.65836 -0.253481,-2.48921 0.149452,-1.7063 2.461508,-0.29832 2.133486,1.76715 -0.0273,0.17189 -0.0065,0.43164 -0.168984,0.49404 -0.537128,0.2063 -1.14068,0.15202 -1.711021,0.22802 z"
       id="path1060" />
    <path
       style="fill:none;stroke:#00ffff;stroke-width:0.264999"
       d="m 90.755341,201.32357 c 0.125735,0.8137 -1.321621,11.87997 0.802687,7.5626"
       id="path1062" />
    <path
       style="fill:none;stroke:#00ffff;stroke-width:0.264999"
       d="m 110.25244,186.99641 c 0.53514,-0.54471 1.11429,-1.04943 1.6054,-1.63414 0.49112,-0.58471 -0.93942,1.26057 -1.6054,1.63414 -1.91303,1.07312 -4.43304,1.0636 -6.0836,2.50821 -1.70888,1.49566 -4.215596,7.59896 -1.62652,9.89979 3.17228,2.81912 10.08452,0.58797 13.1389,0.019 0.23935,-0.0446 0.50549,-0.25147 0.7182,-0.13301 0.25166,0.14015 -1.88061,1.08127 -2.15461,1.15909"
       id="path1070" />
    <path
       style="fill:none;stroke:#00ffff;stroke-width:0.264999"
       d="m 104.4012,195.01505 c 3.64435,-0.34077 8.45396,-2.66929 12.12496,-1.2541"
       id="path1072" />
    <path
       style="fill:none;stroke:#00ffff;stroke-width:0.264999"
       d="m 129.53832,182.53105 c 1.25143,2.68381 0.0103,14.23528 1.56314,15.71427 0.6819,0.64948 0.81462,-0.9363 1.18293,-2.69823"
       id="path1078" />
    <path
       style="fill:none;stroke:#00ffff;stroke-width:0.264999"
       d="m 135.64305,197.80829 c 0.0732,0.72415 -0.0537,1.51656 0.2746,2.16617 0.21261,0.42068 0.21121,-0.92005 0.27461,-1.38712 0.47044,-3.46692 1.15152,-7.96733 0.19011,-11.38192 -0.43558,-1.54702 -1.74361,-2.75959 -2.1546,-4.31333 -0.1451,-0.54854 0.0594,-1.7933 0.59145,-1.59615 0.53205,0.19715 -0.3943,1.0641 -0.59145,1.59615 0.42247,-1.54546 0.5095,-3.22482 1.26741,-4.63637 1.65078,-3.07448 7.864,0.60485 6.29482,4.80738 -0.63925,1.71204 -1.68541,3.25195 -2.70381,4.76938 -0.10291,0.15333 -2.84713,2.1081 -2.28136,2.79321 2.32715,2.81802 8.26546,0.88962 10.05486,4.02833"
       id="path1080" />
    <path
       style="fill:none;stroke:#00ffff;stroke-width:0.264999"
       d="m 67.857334,202.33064 c -1.689286,2.50487 -3.120404,5.24424 -4.140232,8.09466 -0.254513,0.71136 -0.61368,2.95485 -0.528098,2.20419 0.02871,-0.25182 0.01408,-0.50671 0.02111,-0.76006"
       id="path1084" />
    <path
       style="fill:none;stroke:#00ffff;stroke-width:0.264999"
       d="m 53.831237,192.31685 c 0.295391,3.09994 0.2022,1.75253 0.3591,5.96647 0.04928,1.32353 0.09282,2.64731 0.126754,3.97132 0.223877,8.73482 -1.429702,-1.1082 0.316847,-3.7053 0.714443,-1.06237 2.333781,-0.97419 3.084049,0.076 1.185783,1.6598 2.525332,3.47515 2.661581,5.51046 0.135475,2.02367 -3.199841,8.56085 -6.294837,4.88338 -0.553624,-0.65782 -0.450641,-1.65947 -0.67596,-2.4892"
       id="path1086" />
  </g>
</svg>
