<?xml version="1.0" encoding="UTF-8" standalone="no"?>
<!-- Created with Inkscape (http://www.inkscape.org/) -->

<svg
   width="2389.6909mm"
   height="1839.1797mm"
   viewBox="0 0 2389.6909 1839.1797"
   version="1.1"
   id="svg12"
   inkscape:version="1.2.1 (9c6d41e410, 2022-07-14, custom)"
   sodipodi:docname="linear_diff_proof.svg"
   xml:space="preserve"
   xmlns:inkscape="http://www.inkscape.org/namespaces/inkscape"
   xmlns:sodipodi="http://sodipodi.sourceforge.net/DTD/sodipodi-0.dtd"
   xmlns="http://www.w3.org/2000/svg"
   xmlns:svg="http://www.w3.org/2000/svg"><sodipodi:namedview
     id="namedview14"
     pagecolor="#505050"
     bordercolor="#eeeeee"
     borderopacity="1"
     inkscape:showpageshadow="0"
     inkscape:pageopacity="0"
     inkscape:pagecheckerboard="0"
     inkscape:deskcolor="#505050"
     inkscape:document-units="mm"
     showgrid="true"
     inkscape:zoom="0.05647531"
     inkscape:cx="3204.9403"
     inkscape:cy="3789.2665"
     inkscape:window-width="1366"
     inkscape:window-height="746"
     inkscape:window-x="0"
     inkscape:window-y="0"
     inkscape:window-maximized="1"
     inkscape:current-layer="layer1"
     inkscape:lockguides="false"><inkscape:grid
       type="xygrid"
       id="grid344"
       color="#969696"
       opacity="0.39215686"
       empcolor="#000000"
       empopacity="0.17254902"
       dotted="false"
       originx="270.16943"
       originy="-9281.1662" /></sodipodi:namedview><defs
     id="defs9" /><g
     inkscape:label="Layer 1"
     inkscape:groupmode="layer"
     id="layer1"
     transform="translate(165.16942,-9429.6663)"><path
       style="fill:none;stroke:#ffffff;stroke-width:5.5;stroke-dasharray:none"
       d="m 12.943517,9475.6889 c 5.463031,-19.7609 18.368053,-42.3209 -8.0621738,-34.2217 -31.6799642,9.7078 -67.7518342,23.3561 -90.6997602,48.9526 -12.586763,14.0399 -20.926823,29.4619 -23.178853,48.273 -2.86267,23.912 -1.04973,40.3897 6.80244,62.5509 2.06854,5.8381 44.190863,72.4239 16.880249,65.7236"
       id="path1069" /><path
       style="fill:none;stroke:#ffffff;stroke-width:5.5;stroke-dasharray:none"
       d="m -160.39383,9587.1925 c 41.90267,-11.9753 90.45009,-12.6772 132.01859,2.7197"
       id="path1071" /><path
       style="fill:none;stroke:#ffffff;stroke-width:5.5;stroke-dasharray:none"
       d="m 148.48932,9478.8618 c 22.73635,-49.6803 5.69841,-6.7509 0,0 -13.72358,16.2576 -34.24856,26.1149 -47.11345,43.0601 -22.595383,29.7625 -37.549966,146.9499 29.47731,101.9853"
       id="path1073" /><path
       style="fill:none;stroke:#ffffff;stroke-width:5.5;stroke-dasharray:none"
       d="m 193.8392,9536.1999 c 4.70295,-8.1587 9.40591,-16.3177 14.10886,-24.4763 0.58786,-1.2089 1.27884,-4.88 1.76357,-3.6262 7.0693,18.283 -16.54698,3.5275 -15.87243,28.1025 0.36507,13.3001 14.79423,22.81 17.636,35.8082 2.98861,13.6697 -0.81149,64.3281 -25.95016,54.8452"
       id="path1075" /><path
       style="fill:none;stroke:#ffffff;stroke-width:5.5;stroke-dasharray:none"
       d="m 157.8113,9569.5149 c 26.25433,-7.5454 65.55338,38.9811 88.43221,38.9811 1.96716,0 -2.51947,-3.0218 -3.7792,-4.5326"
       id="path1077" /><path
       style="fill:none;stroke:#ffffff;stroke-width:5.5;stroke-dasharray:none"
       d="m 236.41769,9465.9435 c 3.77916,-9.6697 5.5325,-20.4018 11.33747,-29.0089 11.76258,-17.4411 40.79539,19.8903 49.63292,38.9808 22.48091,48.5624 16.58808,104.4617 -10.07774,150.4847 -25.52152,44.0478 -19.35403,44.6717 -39.05134,33.7685"
       id="path1079" /><path
       style="fill:none;stroke:#ffffff;stroke-width:5.5;stroke-dasharray:none"
       d="m 487.10176,9475.4621 c -7.64227,3.0219 -25.94861,1.423 -22.92686,9.0655 3.02176,7.6422 14.73753,-9.7513 22.92686,-9.0655 13.89013,1.1637 25.80011,10.8204 39.30328,14.278 1.48026,0.3789 55.80279,1.8481 56.93925,11.5583 0.44943,3.8397 -7.72329,0.4533 -11.58938,0.4533"
       id="path1085" /><path
       style="fill:none;stroke:#ffffff;stroke-width:5.5;stroke-dasharray:none"
       d="m 473.24482,9540.0528 c -6.38254,4.8347 -23.98249,8.1219 -19.14766,14.5044 4.83487,6.3826 11.14137,-14.6124 19.14766,-14.5044 61.02593,19.5437 29.58957,16.6465 79.61437,12.0115 26.93858,-2.4961 52.92807,3.2343 48.37319,-0.4532"
       id="path1087" /><path
       style="fill:none;stroke:#ffffff;stroke-width:5.5;stroke-dasharray:none"
       d="m 709.82018,9540.2792 c 0.92382,-7.4787 0.93009,-15.1294 2.7714,-22.4366 2.4664,-9.788 6.5545,-19.0966 10.07775,-28.5557 24.10028,-64.7044 20.17932,25.8784 28.2177,40.3407 2.66774,4.7996 5.82076,-9.3863 7.81018,-14.5047 4.27744,-11.0043 9.10281,-30.2323 20.91137,-36.9411 27.45809,-15.5996 33.00085,47.1003 38.54736,54.392 0.0456,0.06 5.24542,-18.6251 16.37641,-14.7312"
       id="path1089" /><path
       style="fill:none;stroke:#ffffff;stroke-width:5.5;stroke-dasharray:none"
       d="m 950.42652,9460.7309 c -8.44973,12.7916 -49.72738,105.2854 -59.96271,104.9314 -2.80686,-0.097 -3.69519,-4.2304 -5.54278,-6.3458"
       id="path1091" /><path
       style="fill:none;stroke:#ffffff;stroke-width:5.5;stroke-dasharray:none"
       d="m 877.36276,9470.4763 c 36.32517,27.4476 80.44418,65.8935 87.42455,113.7698"
       id="path1093" /><path
       style="fill:none;stroke:#ffffff;stroke-width:5.5;stroke-dasharray:none"
       d="m -49.538528,10022.782 c -25.209106,52.272 -57.848912,100.717 -93.471152,146.405 -7.11444,9.125 -19.815,23.679 -19.39971,24.023 6.57629,5.461 92.208359,3.847 105.060608,4.533 20.796808,1.111 79.233852,10.868 97.754187,6.346 3.890653,-0.95 -20.624408,-46.838 -20.911296,-47.594 -15.4004502,-40.528 -27.1134365,-82.663 -41.06691,-123.741"
       id="path1099" /><path
       style="fill:none;stroke:#ffffff;stroke-width:5.5;stroke-dasharray:none"
       d="m 221.55308,10032.301 c -48.50268,18.068 -76.57636,61.276 -72.05594,113.77 0.48548,5.637 26.76808,96.178 19.65163,94.959 -5.86455,-1.005 -17.8715,-18.342 -19.1478,-19.944"
       id="path1101" /><path
       style="fill:none;stroke:#ffffff;stroke-width:5.5;stroke-dasharray:none"
       d="m 106.66658,10152.643 c 16.53555,-10.156 118.34786,-7.259 124.96424,7.026"
       id="path1103" /><path
       style="fill:none;stroke:#ffffff;stroke-width:5.5;stroke-dasharray:none"
       d="m 425.12357,10102.104 c 7.99221,14.872 141.32539,17.827 86.66877,22.663"
       id="path1105" /><path
       style="fill:none;stroke:#ffffff;stroke-width:5.5;stroke-dasharray:none"
       d="m 420.58861,10158.989 c 55.08125,8.801 25.74264,7.079 89.94399,2.492 26.1008,-1.864 66.87402,-7.771 54.9238,5.666"
       id="path1107" /><path
       style="fill:none;stroke:#ffffff;stroke-width:5.5;stroke-dasharray:none"
       d="m 746.60398,10237.857 c 6.37382,-26.354 27.20068,-112.188 60.71849,-115.13 23.2396,-2.039 11.91334,31.179 17.63599,41.474 0.28964,0.521 4.78282,-20.273 19.39972,-24.476 18.40802,-5.295 27.48775,-3.045 36.53187,11.785 10.61334,17.402 11.96504,35.861 10.58159,55.525 -0.45559,6.475 -3.194,25.034 -5.03881,18.81"
       id="path1153" /><path
       style="fill:none;stroke:#ffffff;stroke-width:5.5;stroke-dasharray:none"
       d="m 1005.0982,10076.947 c -44.29689,43.474 33.3268,-40.395 30.7372,-38.981 -13.3307,7.281 -26.0831,31.983 -30.7372,38.981 -14.61003,21.971 -32.10989,42.409 -43.08227,66.404 -29.8092,65.189 -13.15866,153.308 58.45087,179.267"
       id="path1155" /><path
       style="fill:none;stroke:#ffffff;stroke-width:5.5;stroke-dasharray:none"
       d="m 1143.6674,10146.297 c -28.2605,-4.375 -55.8508,127.036 -62.9859,125.555 -3.1128,-0.646 -4.354,-19.41 -5.5428,-29.462"
       id="path1157" /><path
       style="fill:none;stroke:#ffffff;stroke-width:5.5;stroke-dasharray:none"
       d="m 1075.6425,10158.989 c -0.2519,-7.63 -0.5038,-15.261 -0.7557,-22.89 0.4199,-0.227 1.244,-1.157 1.2597,-0.68 0.2593,7.854 -4.7855,16.98 -0.504,23.57 7.6018,11.699 23.0665,16.02 32.7527,26.062 14.9214,15.47 54.748,64.7 52.4043,89.294"
       id="path1159" /><path
       style="fill:none;stroke:#ffffff;stroke-width:5.5;stroke-dasharray:none"
       d="m 1258.0499,10139.725 c -10.2,21.191 9.1423,95.846 -18.14,103.118 -5.6267,-13.976 -13.7834,-27.183 -16.8802,-41.927 -3.8564,-18.36 71.7077,-9.012 83.3934,-6.799"
       id="path1161" /><path
       style="fill:none;stroke:#ffffff;stroke-width:5.5;stroke-dasharray:none"
       d="m 1333.6331,10105.73 c 22.3052,31.034 51.3574,84.87 39.5552,126.008 -0.8646,3.013 -2.5196,-5.742 -3.7794,-8.612"
       id="path1163" /><path
       style="fill:none;stroke:#ffffff;stroke-width:5.5;stroke-dasharray:none"
       d="m 1383.014,10026.182 c 13.2035,-0.383 -7.6566,-54.0334 11.8413,-61.4182 5.7646,-2.1834 11.864,5.4157 15.1168,10.6518 14.6127,23.522 27.6597,48.2404 37.5395,74.1094 28.4074,74.381 29.5269,162.869 -10.0778,232.979 -5.3551,9.48 -19.4303,36.037 -36.2797,30.142"
       id="path1165" /><path
       style="fill:none;stroke:#ffffff;stroke-width:5.5;stroke-dasharray:none"
       d="m 1597.6701,10158.989 c -27.915,17.841 148.1345,-12.13 121.437,0.68"
       id="path1167" /><path
       style="fill:none;stroke:#ffffff;stroke-width:5.5;stroke-dasharray:none"
       d="m 1805.2717,10170.774 c 14.965,3.192 20.1079,-63.493 32.249,-78.642 7.6948,-9.601 12.6021,36.5 14.6127,32.182 4.082,-8.768 12.7732,-38.877 30.4853,-35.129 20.1169,4.258 52.668,79.873 37.5395,56.659"
       id="path1169" /><path
       style="fill:none;stroke:#ffffff;stroke-width:5.5;stroke-dasharray:none"
       d="m 2023.9592,10070.828 c 74.1913,-47.506 -21.9785,89.614 -29.4776,102.212 -9.2278,15.502 -18.9014,34.736 -21.9189,32.182 -3.3366,-2.825 -1.5117,-8.612 -2.2676,-12.918"
       id="path1171" /><path
       style="fill:none;stroke:#ffffff;stroke-width:5.5;stroke-dasharray:none"
       d="m 1966.012,10098.931 c -12.3579,-78.291 -1.4674,-1.701 0,0 8.6103,9.979 27.3318,5.319 36.7838,14.504 27.0752,26.313 55.9148,76.93 73.5675,113.77"
       id="path1173" /><path
       style="fill:none;stroke:#ffffff;stroke-width:5.5;stroke-dasharray:none"
       d="m 1046.1651,10642.851 c 4.7286,-12.157 13.0145,-133.206 39.5552,-105.838 17.1826,17.718 5.9954,62.673 12.8491,73.883 1.0967,1.793 1.9143,-3.746 2.7714,-5.666 3.0136,-6.751 21.9581,-63.923 36.2799,-48.5 22.1175,23.819 28.4671,63.89 32.7527,94.733"
       id="path1175" /><path
       style="fill:none;stroke:#ffffff;stroke-width:5.5;stroke-dasharray:none"
       d="m 1243.4372,10539.279 c 8.1462,-8.083 14.859,-17.93 24.4385,-24.249 9.0809,-5.991 1.9305,21.977 -0.2519,32.635 -1.4977,7.314 -35.1856,129.846 -51.1446,113.543 -5.1326,-5.243 -7.956,-28.884 -9.0701,-35.808"
       id="path1177" /><path
       style="fill:none;stroke:#ffffff;stroke-width:5.5;stroke-dasharray:none"
       d="m 1209.4248,10527.494 c 0.2519,-7.176 7.9324,-21.278 0.7557,-21.53 -7.1767,-0.252 -5.132,15.837 -0.7557,21.53 11.8238,15.384 31.7923,22.609 45.3499,36.489 27.288,27.935 51.962,79.651 66.7652,116.262"
       id="path1179" /><path
       style="fill:none;stroke:#ffffff;stroke-width:5.5;stroke-dasharray:none"
       d="m 1396.1152,10529.988 c 0.8398,-6.95 9.4695,-20.011 2.5194,-20.851 -6.9501,-0.84 -2.3839,13.851 -2.5194,20.851 -0.4478,23.116 11.0148,108.286 2.7713,126.688 -1.5999,3.571 -9.221,-2.131 -9.8259,-2.494 -76.1095,-67.705 75.0855,-61.649 96.2425,-45.099 1.9658,1.537 -4.3669,2.417 -6.5504,3.626"
       id="path1181" /><path
       style="fill:none;stroke:#ffffff;stroke-width:5.5;stroke-dasharray:none"
       d="m 1518.5598,10598.204 c 3.4432,-10.123 6.231,-20.493 10.3298,-30.369 30.9489,-74.57 53.0626,24.776 36.2799,38.754 -6.2113,5.174 -2.2252,-16.554 0.2519,-24.249 6.0158,-18.687 14.8831,-40.489 38.0434,-44.42 23.4505,-3.981 27.9593,52.193 47.3655,53.938"
       id="path1183" /><path
       style="fill:none;stroke:#ffffff;stroke-width:5.5;stroke-dasharray:none"
       d="m 1799.2251,10552.198 c 30.9933,4.996 61.8098,-1.99 92.7154,-4.307"
       id="path1185" /><path
       style="fill:none;stroke:#ffffff;stroke-width:5.5;stroke-dasharray:none"
       d="m 1951.6512,10474.689 c 5.8786,8.99 13.4073,17.095 17.636,26.969 3.6829,8.6 15.1633,77.694 8.0622,84.081 -1.3494,1.214 -0.5171,-3.643 -0.2519,-5.439 3.6114,-24.449 8.7385,-56.447 25.9502,-75.695 18.3996,-20.578 21.9477,37.487 22.6749,45.553 0.4922,5.459 4.6186,-9.955 7.3065,-14.731 2.1348,-3.794 20.0756,-42.625 34.2643,-35.808 23.2146,11.153 30.515,45.513 32.7528,67.99"
       id="path1187" /><path
       style="fill:none;stroke:#ffffff;stroke-width:5.5;stroke-dasharray:none"
       d="m 2147.4115,10479.448 c 27.0515,17.15 -15.0646,142.126 -33.0045,132.808 -4.7997,-2.494 -4.5351,-9.821 -6.8026,-14.732"
       id="path1189" /><path
       style="fill:none;stroke:#ffffff;stroke-width:5.5;stroke-dasharray:none"
       d="m 2096.5188,10498.032 c -12.9567,15.72 -4.3754,-27.046 2.5195,-23.343 50.726,27.242 85.6291,78.922 123.4526,120.342"
       id="path1191" /><path
       style="fill:none;stroke:#ffffff;stroke-width:5.5;stroke-dasharray:none"
       d="m 1305.7571,11155.404 c -2.3068,-38.379 8.7858,-92.599 45.6018,-114.677 24.5084,-14.697 33.4914,37.413 34.5162,49.859 0.3674,4.462 -0.9361,17.273 1.2599,13.372 7.504,-13.331 31.786,-77.165 55.1756,-70.03 22.1182,6.748 32.7357,46.433 39.0513,65.044 3.181,9.374 10.8336,37.548 10.8336,27.649"
       id="path1193" /><path
       style="fill:none;stroke:#ffffff;stroke-width:5.5;stroke-dasharray:none"
       d="m 343.07982,11040.274 c -8.11847,49.83 -28.98785,96.474 -52.65637,140.739 -9.26679,17.331 -19.97659,33.851 -29.98128,50.766 -6.03575,10.205 -12.2636,20.298 -18.14,30.596 -0.59894,1.049 -2.41137,3.033 -1.25959,3.399 5.11301,1.623 39.45524,-13.022 42.32642,-13.598 24.62176,-4.941 56.00197,-8.226 81.12601,-9.065 29.67072,-0.992 47.87662,-0.467 75.5831,1.813 22.24363,1.83 32.84011,8.353 28.72168,-19.264 -4.15165,-27.839 -6.50398,-39.597 -17.38421,-69.803 -6.32933,-17.572 -13.29951,-34.975 -21.66712,-51.673 -4.80293,-9.584 -32.87779,-56.45 -46.3577,-62.324 -12.32799,-5.371 -26.87397,-1.057 -40.31094,-1.586 z"
       id="path1195" /><path
       style="fill:none;stroke:#ffffff;stroke-width:5.5;stroke-dasharray:none"
       d="m 619.96596,11086.734 c 8.39814,-7.253 16.80631,-14.493 25.19442,-21.757 26.57949,-23.017 -12.41031,-13.765 -18.64381,-5.666 -5.73196,7.448 0.22315,20.908 -6.55061,27.423 -10.72983,10.319 -33.26027,5.303 -40.81476,18.13 -9.83768,16.705 -5.51987,38.69 -4.03113,58.019 1.4732,19.127 38.97553,88.968 34.26433,101.985 -1.17179,3.237 -6.96304,-0.799 -10.07774,-2.267"
       id="path1197" /><path
       style="fill:none;stroke:#ffffff;stroke-width:5.5;stroke-dasharray:none"
       d="m 542.87122,11190.759 c 10.74962,-6.724 20.13088,-16.441 32.24885,-20.171 22.88502,-7.044 70.16485,-9.036 90.44783,5.893"
       id="path1199" /><path
       style="fill:none;stroke:#ffffff;stroke-width:5.5;stroke-dasharray:none"
       d="m 915.24419,11129.794 c 25.30006,4.717 173.88691,-8.571 87.92841,13.372"
       id="path1201" /><path
       style="fill:none;stroke:#ffffff;stroke-width:5.5;stroke-dasharray:none"
       d="m 917.25981,11185.999 c -0.9238,7.177 -9.43028,18.699 -2.77138,21.53 17.34735,7.377 118.22507,-18.336 144.61567,-21.303 27.0884,-3.046 26.3515,-5.782 18.14,6.119"
       id="path1203" /></g></svg>
