<?xml version="1.0" encoding="UTF-8" standalone="no"?>
<!-- Created with Inkscape (http://www.inkscape.org/) -->

<svg
   width="1265.9731mm"
   height="599.63397mm"
   viewBox="0 0 1265.9731 599.634"
   version="1.1"
   id="svg12"
   inkscape:version="1.2.1 (9c6d41e410, 2022-07-14, custom)"
   sodipodi:docname="linearity_definition.svg"
   xml:space="preserve"
   xmlns:inkscape="http://www.inkscape.org/namespaces/inkscape"
   xmlns:sodipodi="http://sodipodi.sourceforge.net/DTD/sodipodi-0.dtd"
   xmlns="http://www.w3.org/2000/svg"
   xmlns:svg="http://www.w3.org/2000/svg"><sodipodi:namedview
     id="namedview14"
     pagecolor="#505050"
     bordercolor="#eeeeee"
     borderopacity="1"
     inkscape:showpageshadow="0"
     inkscape:pageopacity="0"
     inkscape:pagecheckerboard="0"
     inkscape:deskcolor="#505050"
     inkscape:document-units="mm"
     showgrid="true"
     inkscape:zoom="0.12176488"
     inkscape:cx="2595.1654"
     inkscape:cy="1248.3074"
     inkscape:window-width="1366"
     inkscape:window-height="746"
     inkscape:window-x="0"
     inkscape:window-y="0"
     inkscape:window-maximized="1"
     inkscape:current-layer="layer1"
     inkscape:lockguides="false"><inkscape:grid
       type="xygrid"
       id="grid344"
       color="#969696"
       opacity="0.39215686"
       empcolor="#000000"
       empopacity="0.17254902"
       dotted="false"
       originx="-755.7438"
       originy="-10139.844" /></sodipodi:namedview><defs
     id="defs9" /><g
     inkscape:label="Layer 1"
     inkscape:groupmode="layer"
     id="layer1"
     transform="translate(-860.74381,-10288.342)"><path
       style="fill:none;stroke:#ffffff;stroke-width:5.5"
       d="m 1130.1066,10358.333 c -21.568,3.892 -34.7703,24.997 -35.8739,45.935 -0.6741,12.788 4.3012,24.976 8.4134,36.789 3.3884,9.734 6.1647,17.344 5.8427,17.449 -1.1974,0.392 -2.1813,-1.261 -3.2719,-1.892"
       id="path1069" /><path
       style="fill:none;stroke:#ffffff;stroke-width:5.5"
       d="m 1075.0688,10425.29 c 13.1171,-1.95 50.7778,-6.461 57.7254,2.523"
       id="path1071" /><path
       style="fill:none;stroke:#ffffff;stroke-width:5.5"
       d="m 1188.2995,10345.404 c -26.589,36.322 -34.911,88.236 -14.1393,129.29 4.4472,8.79 16.3072,17.176 24.656,22.6"
       id="path1073" /><path
       style="fill:none;stroke:#ffffff;stroke-width:5.5"
       d="m 1295.8043,10383.455 c -10.1495,12.217 -15.7885,27.549 -19.3976,42.887 -0.5861,2.49 -0.7587,10.072 -1.2854,7.568 -0.3843,-1.828 -0.3895,-3.714 -0.5843,-5.571"
       id="path1077" /><path
       style="fill:none;stroke:#ffffff;stroke-width:5.5"
       d="m 1263.2023,10384.506 c 12.9226,14.42 34.0704,29.919 39.8469,49.404"
       id="path1079" /><path
       style="fill:none;stroke:#ffffff;stroke-width:5.5"
       d="m 1342.8961,10376.412 c 1.8771,13.76 9.8596,32.437 3.2719,45.935"
       id="path1081" /><path
       style="fill:none;stroke:#ffffff;stroke-width:5.5"
       d="m 1330.7434,10409.628 c 13.7589,-12.602 29.0943,-15.198 46.7413,-16.292"
       id="path1083" /><path
       style="fill:none;stroke:#ffffff;stroke-width:5.5"
       d="m 1418.0327,10355.705 c 0.1947,9.005 1.3914,18.043 0.5843,27.014 -0.5702,6.336 -6.6154,27.679 -12.2696,31.85 -0.8496,0.626 -1.8697,-0.981 -2.8045,-1.472"
       id="path1085" /><path
       style="fill:none;stroke:#ffffff;stroke-width:5.5"
       d="m 1383.561,10370.631 c 11.1429,7.638 25.7779,14.029 34.0042,25.438"
       id="path1087" /><path
       style="fill:none;stroke:#ffffff;stroke-width:5.5"
       d="m 1428.4326,10307.563 c 3.7004,1.752 8.0091,2.572 11.1011,5.255 38.8215,33.693 32.3886,99.967 7.2449,139.171 -2.5968,4.049 -7.0112,6.588 -10.5168,9.881"
       id="path1089" /><path
       style="fill:none;stroke:#ffffff;stroke-width:5.5"
       d="m 1529.9779,10394.071 c 0.9189,-0.861 50.6044,-15.325 31.4335,0.421"
       id="path1091" /><path
       style="fill:none;stroke:#ffffff;stroke-width:5.5"
       d="m 1528.1083,10412.256 c 15.6139,0.47 31.2865,-0.559 46.8581,-1.051"
       id="path1093" /><path
       style="fill:none;stroke:#ffffff;stroke-width:5.5"
       d="m 1704.6734,10354.549 c -24.1779,4.22 -32.4328,20.442 -31.901,44.358 0.1285,5.778 17.8125,33.69 8.2966,31.744"
       id="path1095" /><path
       style="fill:none;stroke:#ffffff;stroke-width:5.5"
       d="m 1651.8558,10405.424 c 14.3506,-6.245 29.825,3.085 44.0536,0.525"
       id="path1097" /><path
       style="fill:none;stroke:#ffffff;stroke-width:5.5"
       d="m 1766.6055,10337.73 c -18.8491,21.914 -48.8308,68.274 -10.9841,87.14 9.6964,4.834 10.0391,4.545 16.2425,3.889"
       id="path1099" /><path
       style="fill:none;stroke:#ffffff;stroke-width:5.5"
       d="m 1799.3244,10369.58 c -4.1774,9.425 -3.5458,38.484 -11.1011,45.514 -0.5724,0.533 -1.0127,-1.191 -1.5191,-1.787"
       id="path1101" /><path
       style="fill:none;stroke:#ffffff;stroke-width:5.5"
       d="m 1781.4458,10380.827 c 9.3619,9.161 28.3804,20.275 25.9414,35.318"
       id="path1103" /><path
       style="fill:none;stroke:#ffffff;stroke-width:5.5"
       d="m 1836.1331,10337.941 c 14.4534,25.932 17.8061,54.429 4.6742,81.673 -1.9352,4.015 -9.1593,18.013 -14.0224,10.722"
       id="path1109" /><path
       style="fill:none;stroke:#ffffff;stroke-width:5.5"
       d="m 1897.0135,10352.446 c 2.7985,23.458 3.0191,17.241 2.3371,38.577 -0.3568,11.163 1.0835,27.48 -2.9213,20.602"
       id="path1113" /><path
       style="fill:none;stroke:#ffffff;stroke-width:5.5"
       d="m 1878.7844,10384.401 c 1.186,-6.266 71.6673,-18.557 53.1683,-7.463"
       id="path1115" /><path
       style="fill:none;stroke:#ffffff;stroke-width:5.5"
       d="m 1987.1073,10322.174 c -18.9087,17.664 -25.5147,38.647 -17.7617,63.909 5.4807,17.858 16.2463,30.753 12.5033,31.114 -2.1121,0.203 -4.1288,-0.982 -6.1932,-1.472"
       id="path1117" /><path
       style="fill:none;stroke:#ffffff;stroke-width:5.5"
       d="m 1944.6897,10393.231 c 11.7683,-16.153 33.1464,0.404 46.6243,-7.989"
       id="path1119" /><path
       style="fill:none;stroke:#ffffff;stroke-width:5.5"
       d="m 2037.7048,10321.228 c -14.3353,16.654 -23.2317,73.167 8.8807,75.892"
       id="path1121" /><path
       style="fill:none;stroke:#ffffff;stroke-width:5.5"
       d="m 2087.4841,10336.469 c -0.2967,4.25 -13.5288,68.924 -20.0987,59.074"
       id="path1123" /><path
       style="fill:none;stroke:#ffffff;stroke-width:5.5"
       d="m 2056.8686,10354.338 c 9.5819,4.456 18.1484,9.945 26.6425,15.978"
       id="path1125" /><path
       style="fill:none;stroke:#ffffff;stroke-width:5.5"
       d="m 2093.5605,10290.639 c 39.0697,25.702 41.6222,117.608 1.0517,139.276"
       id="path1127" /><path
       style="fill:none;stroke:#ffffff;stroke-width:5.5"
       d="m 909.95532,10675.252 c 12.39364,-13.176 37.57208,-39.24 46.85811,-52.663 0.84217,-1.217 26.40361,-39.444 19.39761,-51.506 -11.08858,-19.09 -33.952,-9.63 -46.27383,-0.105 -10.31523,7.974 14.82582,8.251 25.47401,10.827 31.51378,7.623 69.22008,25.142 88.10718,52.872 3.5578,5.224 6.5979,14.148 2.3371,18.816 -34.112,37.37 -111.52187,6.66 -147.35179,-9.671 -9.66965,-4.407 -32.60069,-14.603 -35.05592,-27.855"
       id="path1137" /><path
       style="fill:none;stroke:#ffffff;stroke-width:5.5"
       d="m 1260.3978,10745.362 c -3.0381,-1.016 -5.9179,-3.26 -9.1145,-3.048 -21.1324,1.401 -43.9743,22.329 -45.2222,43.938 -0.8333,14.43 5.5416,28.368 11.8022,40.889 0.7709,1.542 9.1138,12.939 8.8808,15.662 -0.1254,1.466 -2.4329,-1.656 -3.6224,-2.523"
       id="path1143" /><path
       style="fill:none;stroke:#ffffff;stroke-width:5.5"
       d="m 1192.3893,10804.962 c 15.2407,-1.705 43.3902,-11.318 57.7254,1.577"
       id="path1145" /><path
       style="fill:none;stroke:#ffffff;stroke-width:5.5"
       d="m 1332.4962,10704.473 c -32.1255,30.34 -32.8697,86.115 -14.2561,124.035 10.0144,20.401 27.2321,36.463 41.8334,53.503"
       id="path1147" /><path
       style="fill:none;stroke:#ffffff;stroke-width:5.5"
       d="m 1432.055,10756.294 c -8.6143,21.629 -20.0393,42.568 -26.2919,65.066 -1.2021,4.325 0.388,-8.97 0.5843,-13.455"
       id="path1149" /><path
       style="fill:none;stroke:#ffffff;stroke-width:5.5"
       d="m 1452.9718,10828.823 c -11.2718,-18.347 -25.6552,-35.004 -40.0807,-50.98 -1.7528,-6.202 -2.3806,-12.839 -5.2583,-18.605 -4.0042,-8.024 -15.2385,-16.48 -21.7347,-22.915 -1.1679,-1.157 -1.9252,-3.921 -3.5056,-3.469 -1.8649,0.534 14.499,32.472 14.9572,33.006 4.2581,4.966 12.0639,6.442 15.5414,11.983 4.235,6.748 3.083,15.789 6.427,23.02 2.2971,4.967 28.6903,37.849 19.9818,23.65"
       id="path1151" /><path
       style="fill:none;stroke:#ffffff;stroke-width:5.5"
       d="m 1355.0489,10778.578 c -9.0566,4.321 -34.8263,30.324 -16.5932,41.625 13.4408,8.332 38.8972,-18.473 28.7458,-31.428 -3.2613,-4.163 -8.7957,-14.282 -12.1526,-10.197 -7.4191,9.03 39.5209,41.772 41.2491,42.887"
       id="path1153" /><path
       style="fill:none;stroke:#ffffff;stroke-width:5.5"
       d="m 1443.974,10691.019 c 38.1791,43.818 72.9325,99.665 51.4155,159.247 -2.8602,7.92 -13.9976,32.833 -26.0583,35.003"
       id="path1155" /><path
       style="fill:none;stroke:#ffffff;stroke-width:5.5"
       d="m 1576.3686,10778.789 c 13.0847,-0.02 80.1955,-23.871 42.184,1.366"
       id="path1157" /><path
       style="fill:none;stroke:#ffffff;stroke-width:5.5"
       d="m 1582.5619,10803.175 c 20.888,7.374 44.1084,-0.323 65.9051,-1.892"
       id="path1159" /><path
       style="fill:none;stroke:#ffffff;stroke-width:5.5"
       d="m 1730.7317,10757.135 c -27.0231,5.593 -19.6381,58.144 9.2313,38.052 6.6854,-4.653 21.2431,-28.206 5.1416,-33.111 -6.2464,-1.904 -4.1673,8.172 -3.5056,9.775 3.3061,8.011 7.7887,15.568 12.8538,22.6 6.7066,9.311 23.6828,17.907 27.3437,29.432"
       id="path1161" /><path
       style="fill:none;stroke:#ffffff;stroke-width:5.5"
       d="m 1838.1195,10716.351 c -11.4481,6.865 -13.4795,6.243 -20.6829,18.92 -14.7207,25.909 -9.6292,52.053 8.4134,74.211 2.1712,2.666 3.8684,6.04 6.8943,7.673 2.2719,1.227 -3.1734,-4.079 -4.9077,-5.991"
       id="path1163" /><path
       style="fill:none;stroke:#ffffff;stroke-width:5.5"
       d="m 1791.8457,10786.252 c 18.5874,-6.926 38.5604,-12.71 58.4267,-13.455"
       id="path1165" /><path
       style="fill:none;stroke:#ffffff;stroke-width:5.5"
       d="m 1914.6584,10690.493 c -13.9951,22.713 -38.552,100.824 -1.4022,113.208 2.8305,0.943 5.7647,-1.542 8.647,-2.313"
       id="path1167" /><path
       style="fill:none;stroke:#ffffff;stroke-width:5.5"
       d="m 1947.7278,10724.235 c 2.4065,-9.257 2.1018,78.472 -11.8021,61.071"
       id="path1169" /><path
       style="fill:none;stroke:#ffffff;stroke-width:5.5"
       d="m 1925.7594,10744.837 c 15.7639,8.913 12.1062,6.284 29.0964,18.92 2.1138,1.573 19.8788,13.534 10.7506,11.668"
       id="path1171" /><path
       style="fill:none;stroke:#ffffff;stroke-width:5.5"
       d="m 1959.7637,10645.609 c 40.6915,33.561 36.3286,134.77 4.4405,173.018"
       id="path1173" /></g></svg>
