<?xml version="1.0" encoding="UTF-8" standalone="no"?>
<!-- Created with Inkscape (http://www.inkscape.org/) -->

<svg
   width="6077.6089mm"
   height="2036.5239mm"
   viewBox="0 0 6077.6087 2036.524"
   version="1.1"
   id="svg12"
   inkscape:version="1.2.1 (9c6d41e410, 2022-07-14, custom)"
   sodipodi:docname="linear_derivative_diff_relation.svg"
   xml:space="preserve"
   xmlns:inkscape="http://www.inkscape.org/namespaces/inkscape"
   xmlns:sodipodi="http://sodipodi.sourceforge.net/DTD/sodipodi-0.dtd"
   xmlns="http://www.w3.org/2000/svg"
   xmlns:svg="http://www.w3.org/2000/svg"><sodipodi:namedview
     id="namedview14"
     pagecolor="#505050"
     bordercolor="#eeeeee"
     borderopacity="1"
     inkscape:showpageshadow="0"
     inkscape:pageopacity="0"
     inkscape:pagecheckerboard="0"
     inkscape:deskcolor="#505050"
     inkscape:document-units="mm"
     showgrid="true"
     inkscape:zoom="0.02"
     inkscape:cx="15200"
     inkscape:cy="9600"
     inkscape:window-width="1366"
     inkscape:window-height="746"
     inkscape:window-x="1360"
     inkscape:window-y="0"
     inkscape:window-maximized="1"
     inkscape:current-layer="layer1"
     inkscape:lockguides="true"><inkscape:grid
       type="xygrid"
       id="grid344"
       color="#969696"
       opacity="0.39215686"
       empcolor="#000000"
       empopacity="0.17254902"
       dotted="false"
       originx="-3795.257"
       originy="-43975.209" /></sodipodi:namedview><defs
     id="defs9" /><g
     inkscape:label="Layer 1"
     inkscape:groupmode="layer"
     id="layer1"
     transform="translate(-3900.2571,-44123.707)"><path
       style="fill:none;stroke:#ffffff;stroke-width:10.7"
       d="m 5420.8448,44348.241 c -62.6962,15.973 -97.0605,19.786 -154.7514,61.437 -117.3988,84.756 -105.9854,152.606 -35.492,266.864 18.7638,30.411 58.4447,55.671 70.9856,89.593 5.8931,15.941 -26.847,-20.931 -41.1715,-30.078"
       id="path383" /><path
       style="fill:none;stroke:#ffffff;stroke-width:10.7"
       d="m 5020.4802,44652.224 c -95.8985,-28.689 -80.6214,3.278 0,0 110.1783,-4.485 219.4632,-21.897 329.379,-30.718 36.7972,-2.956 74.4096,-7.832 110.7395,-1.281 8.8514,1.596 -18.0128,1.397 -26.9753,0.64"
       id="path385" /><path
       style="fill:none;stroke:#ffffff;stroke-width:10.7"
       d="m 5822.6307,44359.121 c 29.2616,-31.506 510.5482,5.054 350.6748,1.921"
       id="path391" /><path
       style="fill:none;stroke:#ffffff;stroke-width:10.7"
       d="m 5761.5816,44481.353 c 171.5886,37.156 348.5488,6.234 521.0436,-8.958 13.7518,-1.212 45.3417,-17.64 41.1716,-4.48 -4.3823,13.83 -28.394,5.972 -42.591,8.959"
       id="path393" /><path
       style="fill:none;stroke:#ffffff;stroke-width:10.7"
       d="m 6663.1141,44503.753 c 8.0452,-29.866 12.4489,-60.96 24.1361,-89.596 7.0111,-17.179 19.7842,-31.475 31.2335,-46.077 85.1085,-108.54 92.8354,70.654 120.6772,65.275 37.6886,-7.278 57.6739,-150.336 132.0351,-152.31 35.9521,-0.952 73.7983,35.129 86.6047,65.916 6.6619,16.015 8.8762,33.102 5.678,49.919 -0.3646,1.915 -3.1248,7.048 -2.839,5.119 0.7482,-5.053 2.84,-9.813 4.26,-14.718"
       id="path395" /><path
       style="fill:none;stroke:#ffffff;stroke-width:10.7"
       d="m 7503.5971,44218.971 c -20.5912,52.909 -155.5543,294.556 -228.5777,291.18 -24.5655,-1.136 -30.7017,-57.05 -32.653,-64.636"
       id="path397" /><path
       style="fill:none;stroke:#ffffff;stroke-width:10.7"
       d="m 7249.4654,44291.925 c 96.2498,15.56 167.0431,80.362 244.1937,133.752 19.0434,13.179 66.1908,47.091 44.0124,53.755"
       id="path399" /><path
       style="fill:none;stroke:#ffffff;stroke-width:10.7"
       d="m 7850.0135,44201.691 c 37.348,55.256 203.6963,307.139 7.099,225.907"
       id="path401" /><path
       style="fill:none;stroke:#ffffff;stroke-width:10.7"
       d="m 7726.4954,44366.799 c 181.9904,-43.241 138.9658,-41.912 283.9476,-53.115 51.7935,-4.003 77.8926,0.32 65.3077,-4.479 -11.1422,-4.249 -23.6625,-2.987 -35.4936,-4.48"
       id="path403" /><path
       style="fill:none;stroke:#ffffff;stroke-width:10.7"
       d="m 8122.6018,44128.735 c 29.3415,10.666 65.2332,10.663 88.0242,31.999 26.1493,24.479 95.1992,199.012 82.3449,239.985 -7.3281,23.36 -55.1341,-18.812 -59.6299,-42.878 -10.2658,-54.954 18.3793,-103.13 61.0494,-133.112 66.2247,-46.533 184.671,78.52 166.1091,115.834 -59.8201,120.248 -239.8215,54.224 -299.5652,-30.078 -6.7553,-9.533 8.5191,-21.759 12.7786,-32.639"
       id="path405" /><path
       style="fill:none;stroke:#ffffff;stroke-width:10.7"
       d="m 4154.4413,45768.953 c -51.4871,123.428 -21.4707,67.548 -136.2951,220.144 -211.1724,260.639 26.9478,-37.952 -85.1836,111.993 -12.4664,16.672 -30.0821,35.952 -26.9751,37.119 32.7972,12.321 240.7639,-5.435 258.3918,-5.76 137.0846,-2.527 227.2776,-1.675 364.8726,-14.079 24.0837,-2.172 49.6448,1.691 52.5293,-24.318 2.3461,-21.156 -40.4423,-51.025 -51.1098,-59.518 -119.0239,-94.744 -247.9839,-183.687 -376.2301,-265.581 z"
       id="path407" /><path
       style="fill:none;stroke:#ffffff;stroke-width:10.7"
       d="m 5085.7878,45710.076 c -29.8145,-8.533 -58.4652,-24.167 -89.4439,-25.599 -26.2157,-1.212 -52.0396,8.845 -76.6652,17.92 -101.682,37.463 -178.9456,110.633 -100.8012,216.305 43.8124,59.248 100.0977,91.337 161.8504,126.712 9.5888,5.493 36.0225,17.581 25.554,21.119 -21.0288,7.109 -58.9278,-7.234 -73.8262,-10.88"
       id="path409" /><path
       style="fill:none;stroke:#ffffff;stroke-width:10.7"
       d="m 4692.5204,45911.024 c 209.5133,-42.463 143.3407,-38.933 343.5774,-44.159 73.507,-1.918 142.6866,-4.691 130.6152,12.801 -8.3637,12.118 -27.4486,10.665 -41.1731,15.999"
       id="path411" /><path
       style="fill:none;stroke:#ffffff;stroke-width:10.7"
       d="m 5501.7703,45693.436 c 10.3658,19.05 655.5266,-128.934 414.5626,14.721"
       id="path415" /><path
       style="fill:none;stroke:#ffffff;stroke-width:10.7"
       d="m 5544.3629,45835.507 c 199.4466,-25.324 392.399,-46.644 590.6098,-9.599"
       id="path417" /><path
       style="fill:none;stroke:#ffffff;stroke-width:10.7"
       d="m 6518.3005,45413.774 c 18.4565,-15.999 31.2996,-43.844 55.3696,-47.995 73.1102,-12.613 169.2116,138.009 150.4931,204.787 -27.3293,97.494 -233.7162,116.322 -218.6397,51.194 19.5,-84.235 165.7659,-54.53 200.1832,-22.397"
       id="path419" /><path
       style="fill:none;stroke:#ffffff;stroke-width:10.7"
       d="m 6431.6973,45781.111 c 230.115,-60.042 467.0671,-74.152 702.7688,-94.073 30.3265,-2.563 60.6539,-5.265 90.8632,-8.961 3.0107,-0.368 11.5501,-3.297 8.5185,-3.199 -16.1509,0.521 -32.1804,2.987 -48.2706,4.48"
       id="path421" /><path
       style="fill:none;stroke:#ffffff;stroke-width:10.7"
       d="m 6586.4487,45907.823 c 49.6908,1.92 101.038,-7.107 149.072,5.76 192.5908,51.591 135.4987,230.753 -35.4936,241.265 -9.6393,0.593 -183.8205,-13.988 -136.295,-76.155 58.8412,-76.97 165.5974,-86.831 252.7138,-101.753"
       id="path423" /><path
       style="fill:none;stroke:#ffffff;stroke-width:10.7"
       d="m 7080.5157,45875.186 c 169.3749,-115.086 -36.7953,235.538 -72.4067,252.143 -15.0794,7.032 -20.6189,-26.988 -25.554,-42.876"
       id="path425" /><path
       style="fill:none;stroke:#ffffff;stroke-width:10.7"
       d="m 6908.7289,45893.744 c 186.128,8.573 337.8417,95.404 489.8086,192.627"
       id="path427" /><path
       style="fill:none;stroke:#ffffff;stroke-width:10.7"
       d="m 8028.8996,45470.091 c -1.8929,-18.984 13.3075,-58.849 -5.678,-56.957 -18.9854,1.894 22.0554,47.17 5.678,56.957 -38.1506,22.799 -94.2433,-4.832 -132.0351,18.557 -54.6994,33.857 -56.0419,138.163 -38.3325,187.511 10.7447,29.94 31.973,55.718 53.9501,78.713 29.5357,30.906 84.365,59.555 123.5165,81.275 13.2477,7.35 -22.8219,-19.934 -34.0744,-30.078"
       id="path429" /><path
       style="fill:none;stroke:#ffffff;stroke-width:10.7"
       d="m 7800.3218,45715.195 c -29.341,-2.773 -58.6819,-5.545 -88.0229,-8.318 0.4733,-4.268 -2.8541,-13.203 1.4195,-12.801 229.0109,21.646 -103.4677,54.417 234.2557,-40.957 33.2875,-9.401 130.5007,-16.674 103.6421,5.119"
       id="path431" /><path
       style="fill:none;stroke:#ffffff;stroke-width:10.7"
       d="m 8419.3277,45402.894 c 141.7593,-34.734 285.5114,-70.596 431.5984,-81.915 21.2368,-1.643 70.3236,-19.023 63.8881,1.281 -7.734,24.402 -48.2711,17.066 -72.4066,25.598"
       id="path443" /><path
       style="fill:none;stroke:#ffffff;stroke-width:10.7"
       d="m 8525.8072,45475.21 c 109.0469,-18.282 -153.9198,47.559 -113.5785,43.519 18.2128,-1.826 34.6115,-12.261 52.529,-15.999 165.603,-34.568 343.3411,-65.517 512.5255,-47.358"
       id="path445" /><path
       style="fill:none;stroke:#ffffff;stroke-width:10.7"
       d="m 9299.5631,45466.892 c 19.403,-33.279 39.3483,-66.247 58.2086,-99.835 56.2406,-100.156 44.6612,-135.24 164.6897,-71.036 15.8562,8.483 63.1478,48.919 66.7271,47.998 22.5999,-5.821 14.7161,-45.087 28.3945,-63.997 57.2694,-79.163 132.1507,-128.011 222.9001,-71.035 21.1781,13.298 110.7234,132.103 133.4543,107.513"
       id="path447" /></g></svg>
