<?xml version="1.0" encoding="UTF-8" standalone="no"?>
<!-- Created with Inkscape (http://www.inkscape.org/) -->

<svg
   width="234.45638mm"
   height="134.8795mm"
   viewBox="0 0 234.45637 134.87951"
   version="1.1"
   id="svg12"
   inkscape:version="1.2.1 (9c6d41e410, 2022-07-14, custom)"
   sodipodi:docname="linear_definition_dot.svg"
   xmlns:inkscape="http://www.inkscape.org/namespaces/inkscape"
   xmlns:sodipodi="http://sodipodi.sourceforge.net/DTD/sodipodi-0.dtd"
   xmlns="http://www.w3.org/2000/svg"
   xmlns:svg="http://www.w3.org/2000/svg">
  <sodipodi:namedview
     id="namedview14"
     pagecolor="#505050"
     bordercolor="#eeeeee"
     borderopacity="1"
     inkscape:showpageshadow="0"
     inkscape:pageopacity="0"
     inkscape:pagecheckerboard="0"
     inkscape:deskcolor="#505050"
     inkscape:document-units="mm"
     showgrid="true"
     inkscape:zoom="0.61842428"
     inkscape:cx="357.35984"
     inkscape:cy="218.29673"
     inkscape:window-width="1366"
     inkscape:window-height="746"
     inkscape:window-x="0"
     inkscape:window-y="0"
     inkscape:window-maximized="1"
     inkscape:current-layer="layer1"
     inkscape:lockguides="false">
    <inkscape:grid
       type="xygrid"
       id="grid344"
       color="#969696"
       opacity="0.39215686"
       empcolor="#000000"
       empopacity="0.17254902"
       dotted="false"
       originx="45.885596"
       originy="80.885073" />
  </sodipodi:namedview>
  <defs
     id="defs9" />
  <g
     inkscape:label="Layer 1"
     inkscape:groupmode="layer"
     id="layer1"
     transform="translate(-59.114412,-67.614934)">
    <path
       style="fill:none;stroke:#00ffff;stroke-width:0.264999"
       d="m 66.981116,83.740343 c -3.974382,2.196901 -5.233224,4.241886 -4.187421,8.961561 0.478069,2.15751 2.717628,3.334104 3.313134,5.298291 0.178922,0.590153 -1.516181,-0.182401 -1.633561,-0.227652"
       id="path1229" />
    <path
       style="fill:none;stroke:#00ffff;stroke-width:0.264999"
       d="m 59.158459,95.309661 c 2.994205,-1.055381 5.661873,-1.065446 8.650948,-0.393235"
       id="path1231" />
    <path
       style="fill:none;stroke:#00ffff;stroke-width:0.264999"
       d="m 84.490087,73.474897 c -0.713245,0.02759 -1.538808,-0.302409 -2.139735,0.08278 -0.82123,0.526401 -1.251868,1.515015 -1.702578,2.380104 -3.396745,6.519711 -4.657259,14.640272 -1.173398,21.420836 0.350927,0.683001 8.259815,10.358653 8.259815,7.616283"
       id="path1233" />
    <path
       style="fill:none;stroke:#00ffff;stroke-width:0.264999"
       d="m 97.581543,73.474897 c -1.043021,1.476348 -2.299999,2.82276 -3.129063,4.429044 -0.392382,0.760229 -0.332647,1.679005 -0.460163,2.524966 -0.122698,0.813999 -0.175609,3.750183 -0.138033,1.924773 0.04641,-2.254472 -0.06868,-6.41558 -1.955678,-8.113021 -0.06321,-0.05686 0.06007,0.162805 0.115054,0.227666 0.414562,0.489064 0.82351,0.986594 1.288439,1.428052 1.471631,1.397337 5.772165,4.188468 6.511213,6.581483"
       id="path1235" />
    <path
       style="fill:none;stroke:#00ffff;stroke-width:0.264999"
       d="m 99.721263,87.113863 c -1.275953,-2.020137 -1.96311,6.324707 -2.71491,5.360388 -0.39424,-0.505682 -0.628889,-1.117616 -0.94333,-1.676424"
       id="path1237" />
    <path
       style="fill:none;stroke:#00ffff;stroke-width:0.264999"
       d="m 94.153382,86.886197 c 1.102437,2.188711 3.610475,3.399936 4.509524,5.691527"
       id="path1239" />
    <path
       style="fill:none;stroke:#00ffff;stroke-width:0.264999"
       d="m 95.717914,105.6165 c 1.109593,-0.27962 6.188906,-2.43927 7.178446,-1.7799 0.63395,0.42242 -3.737958,4.93559 -4.233454,5.54665 -0.351922,0.434 -2.121408,2.16236 -0.920297,2.83541 1.127469,0.63179 2.855681,0.48924 4.095401,0.70369 0.50167,0.0868 1.98111,0.46334 1.49549,0.31045 -1.4418,-0.45393 0.65495,0.24465 -1.58754,-0.51742"
       id="path1241" />
    <path
       style="fill:none;stroke:#00ffff;stroke-width:0.264999"
       d="m 95.971001,109.63161 c 3.398385,-0.85364 7.139809,-1.17749 10.284509,-2.69053"
       id="path1243" />
    <path
       style="fill:none;stroke:#00ffff;stroke-width:0.264999"
       d="m 107.98108,73.164453 c 9.059,-0.331393 5.74948,0.402668 6.39618,9.334102 0.44897,6.200462 2.17877,12.286127 2.87598,18.461245 0.27267,2.41498 0.32112,4.85273 0.62123,7.26445 0.19034,1.52966 0.82654,3.38385 0.66721,3.47701 -1.15207,0.67361 -2.73353,0.74565 -4.00335,1.24179 -0.53825,0.2103 -1.25303,1.09559 -1.61054,0.64158 -0.13952,-0.17717 0.092,-0.44152 0.13803,-0.66228"
       id="path1245" />
    <path
       style="fill:none;stroke:#00ffff;stroke-width:0.264999"
       d="m 91.8756,67.721286 c -1.196252,0.888903 -3.773355,1.572985 -4.555561,2.980285 -0.327943,0.590019 -0.06151,2.091042 -0.09202,2.649146 -0.146487,2.67927 -0.374026,5.274216 -0.207076,7.968133 0.364519,5.881839 0.349699,-0.94384 0.736256,6.974704 0.193127,3.956206 -0.149556,7.640968 -0.276093,11.548625 -0.137499,4.246151 -0.01884,8.560491 0,12.811121 0.0086,1.94227 0.299098,3.85269 0.299098,5.795 0,0.86597 -0.426707,1.88858 -0.368115,2.73194 0.03231,0.46507 0.760363,-0.55939 1.196391,-0.72438 0.839972,-0.31782 4.403804,-1.32806 3.198106,-0.14487"
       id="path1247" />
    <path
       style="fill:none;stroke:#00ffff;stroke-width:0.264999"
       d="m 101.19377,122.96013 c -1.05861,-2.42224 -0.29447,-5.18489 0,0 z"
       id="path1249" />
    <path
       style="fill:none;stroke:#00ffff;stroke-width:0.264999"
       d="m 103.0344,128.32051 c -0.14724,3.03103 -2.02599,4.08235 0,0 z"
       id="path1251" />
    <path
       style="fill:none;stroke:#00ffff;stroke-width:0.264999"
       d="m 103.44855,136.06099 c 0.27266,1.40773 -0.30504,3.7629 0,0 z"
       id="path1253" />
    <path
       style="fill:none;stroke:#00ffff;stroke-width:0.264999"
       d="m 124.22462,72.108928 c 1.66007,2.651906 2.96566,4.603008 4.23345,7.78187 4.29187,10.761439 2.78358,22.076862 -4.78564,30.920502 -0.72217,0.84376 0.10088,-2.23345 0.36814,-3.31142"
       id="path1255" />
    <path
       style="fill:none;stroke:#00ffff;stroke-width:0.264999"
       d="m 142.23976,91.791266 c -0.88785,0.249925 10.54987,-1.456584 8.85801,0.227653 -0.53745,0.535035 -1.28843,0.800266 -1.93265,1.200401"
       id="path1257" />
    <path
       style="fill:none;stroke:#00ffff;stroke-width:0.264999"
       d="m 142.63091,96.241007 c -0.25309,0.655386 -1.14771,1.380757 -0.75927,1.966161 0.74086,1.116489 8.06901,0.952045 9.91637,1.676413"
       id="path1259" />
    <path
       style="fill:none;stroke:#00ffff;stroke-width:0.264999"
       d="m 191.52256,73.247231 c -1.63518,0.0036 -3.72114,-0.575561 -5.38384,-0.04139 -0.14131,0.0454 -0.008,6.724191 0,7.223065 0.0588,3.722053 -0.30893,7.43826 -0.25309,11.155389 0.0878,5.847918 -0.0322,11.825285 -0.62123,17.654085 -0.0725,0.71783 -0.52928,6.46421 -1.05835,6.62287 -0.61254,0.18368 0.573,-1.23351 1.1274,-1.55223 0.26543,-0.1526 6.95071,-2.7152 6.69528,-1.842 -0.18905,0.64628 -0.65826,-0.15221 -0.80527,-0.28975"
       id="path1261" />
    <path
       style="fill:none;stroke:#00ffff;stroke-width:0.264999"
       d="m 204.70605,78.504134 c 0.0844,-0.613994 0.86708,-1.757619 0.25308,-1.841981 -0.61399,-0.08436 0.0743,1.315739 -0.25308,1.841981 -1.00608,1.617228 -2.48766,2.888263 -3.63524,4.40835 -1.41542,1.874863 -0.80944,2.104841 -0.73626,-1.779898"
       id="path1263" />
    <path
       style="fill:none;stroke:#00ffff;stroke-width:0.264999"
       d="m 199.80538,77.57279 c 0.0614,0.630597 8.57017,5.918499 6.76429,6.498691"
       id="path1265" />
    <path
       style="fill:none;stroke:#00ffff;stroke-width:0.264999"
       d="m 205.25823,89.473259 c -0.78461,0.071 -3.20032,7.228406 -3.40516,7.24376 -0.29766,0.0223 -1.02702,-2.888199 -1.1274,-3.24934"
       id="path1267" />
    <path
       style="fill:none;stroke:#00ffff;stroke-width:0.264999"
       d="m 199.87439,90.652952 c -0.65999,-1.172414 5.58397,0.634227 4.18742,1.531538"
       id="path1269" />
    <path
       style="fill:none;stroke:#00ffff;stroke-width:0.264999"
       d="m 201.16283,101.5186 c 0.16254,0.0837 4.07563,0.5802 4.04939,0.93134 -0.11113,1.48719 -3.64315,6.33787 -3.26712,7.09888 0.23856,0.4828 2.95587,-0.49082 3.33614,-0.5795 0.0451,-0.0105 1.5444,-0.24187 1.4495,-0.45532 -0.11696,-0.26304 -0.8751,-0.48672 -1.08139,-0.57949"
       id="path1271" />
    <path
       style="fill:none;stroke:#00ffff;stroke-width:0.264999"
       d="m 201.36991,105.6165 c 0.87915,0.99788 8.84704,-1.85904 6.71828,-0.0207"
       id="path1273" />
    <path
       style="fill:none;stroke:#00ffff;stroke-width:0.264999"
       d="m 201.66901,132.97722 c -1.33502,3.69347 -2.37824,3.45048 0,0 z"
       id="path1275" />
    <path
       style="fill:none;stroke:#00ffff;stroke-width:0.264999"
       d="m 200.84073,116.77189 c -0.34064,4.1104 -2.86354,1.14828 -2.07071,0.5381 3.08505,-2.37427 2.16187,1.06859 1.67956,2.58707 -0.72273,2.27541 -2.39619,-1.67953 -1.24243,-0.6416"
       id="path1277" />
    <path
       style="fill:none;stroke:#00ffff;stroke-width:0.264999"
       d="m 201.27786,125.423 c -0.2224,0.5795 -1.24672,1.51611 -0.66721,1.73851 0.5795,0.22241 0.44481,-1.15901 0.66721,-1.73851 z"
       id="path1279" />
    <path
       style="fill:none;stroke:#00ffff;stroke-width:0.264999"
       d="m 206.89178,71.674304 c 1.64895,0.975012 8.86111,1.13694 9.15713,3.000992 0.16064,1.01155 -1.18276,4.600076 -1.28844,4.987836 -0.81559,2.992574 -0.90279,3.71713 -0.98934,6.850537 -0.0991,3.5895 0.17633,7.19037 0.092,10.782848 -0.0838,3.571103 -0.50871,7.167293 -0.41412,10.741463 0.0231,0.87157 1.2168,5.41168 1.10437,5.8364 -0.0878,0.33183 -4.19386,0.36164 -4.48655,0.39323 -0.56484,0.061 -2.24768,0.28975 -1.67956,0.28975 0.30623,0 1.56837,-0.46674 1.65656,-0.49671"
       id="path1281" />
    <path
       style="fill:none;stroke:#00ffff;stroke-width:0.264999"
       d="m 223.82556,95.43384 c -0.11504,-0.682982 0.33785,-2.163998 -0.34513,-2.048952 -0.68299,0.115047 0.23009,1.36597 0.34513,2.048952 z"
       id="path1283" />
    <path
       style="fill:none;stroke:#00ffff;stroke-width:0.264999"
       d="m 242.20882,75.2341 c -1.85079,-0.664592 -5.07925,-0.749187 -6.60326,0.889943 -0.24661,0.265237 0.25418,5.698244 0.25308,5.981276 -0.0221,5.733675 0.0921,11.712878 -0.6212,17.405721 -0.63695,5.08391 -1.51401,10.09941 -2.32379,15.14981 -0.32844,2.04843 -1.01235,4.57163 -1.01235,6.64356 0,0.093 0.53693,-1.00371 3.19808,-2.35939 0.94555,-0.4817 6.49601,-1.54215 4.25647,-1.69711"
       id="path1285" />
    <path
       style="fill:none;stroke:#00ffff;stroke-width:0.264999"
       d="m 254.72507,77.448609 c -1.75765,-1.704673 -5.68869,1.656094 -4.21042,3.435617 0.93192,1.121847 5.47788,0.965132 5.31482,-1.07622 -0.0691,-0.865602 -1.56573,-3.095074 -1.1044,-2.359397 0.79731,1.271464 1.33331,2.69365 2.11672,3.973726 0.93577,1.529025 3.36004,3.024882 1.7716,4.739489"
       id="path1287" />
    <path
       style="fill:none;stroke:#00ffff;stroke-width:0.264999"
       d="m 253.98881,91.211754 c 0.41415,0.862357 0.93043,1.682729 1.24244,2.587064 0.24492,0.709909 0.33413,1.467824 0.41414,2.214523 0.49923,4.658929 -1.73917,-3.56154 1.90965,-3.642574 3.17043,-0.07041 1.66031,5.390478 -1.35746,6.664259 -0.43812,0.184928 -0.95331,-0.02659 -1.4265,0.02069"
       id="path1289" />
    <path
       style="fill:none;stroke:#00ffff;stroke-width:0.264999"
       d="m 254.67906,103.62964 c -0.71324,0.92444 -1.54186,1.7704 -2.13972,2.77333 -3.18878,5.34924 9.71137,1.43295 5.15376,1.11761"
       id="path1291" />
    <path
       style="fill:none;stroke:#00ffff;stroke-width:0.264999"
       d="m 254.67906,121.42859 c -0.24542,-0.62779 -0.67408,-1.21219 -0.73626,-1.88338 -0.25262,-2.72699 3.53795,-3.44619 2.20877,-0.60019 -0.40726,0.87201 -0.98167,1.65572 -1.47251,2.48357 z"
       id="path1293" />
    <path
       style="fill:none;stroke:#00ffff;stroke-width:0.264999"
       d="m 254.40297,126.76828 c -0.0614,-0.5726 0.38853,-1.77916 -0.18407,-1.7178 -0.5726,0.0614 0.12271,1.1452 0.18407,1.7178 z"
       id="path1295" />
    <path
       style="fill:none;stroke:#00ffff;stroke-width:0.264999"
       d="m 253.39062,135.77124 c 2.42594,4.23954 -1.5526,3.82266 -1.21942,2.3594 0.19654,-0.86321 0.81295,-1.57294 1.21942,-2.3594 z"
       id="path1297" />
    <path
       style="fill:none;stroke:#00ffff;stroke-width:0.264999"
       d="m 262.22562,70.680876 c 0.74393,0.80716 1.6405,1.496647 2.23178,2.42148 2.10561,3.293442 0.78139,11.843873 0.98934,15.667225 0.38115,7.007884 0.59072,4.064164 1.65655,11.900459 0.42413,3.11834 0.4065,6.29137 0.92032,9.39619 0.1665,1.00604 0.38387,2.00767 0.69022,2.98029 0.26903,0.85411 3.52993,6.54029 3.06005,7.34725 -0.0808,0.13876 -1.62474,0.049 -2.13972,0.10348 -1.02791,0.10879 -6.80926,1.84681 -6.51121,0.37254"
       id="path1299" />
    <path
       style="fill:none;stroke:#00ffff;stroke-width:0.264999"
       d="m 281.04604,92.143101 c 0.0517,2.784245 0.27609,5.577051 0.27609,8.361369 0,3.0447 -7.9e-4,5.13856 -0.6212,4.94646 -0.6711,-0.20783 -4.86718,-3.7778 -4.3945,-4.05651 1.14121,-0.67287 8.03443,-1.19235 8.09875,-1.26248 0.1599,-0.174336 -0.0613,-0.469119 -0.092,-0.703677"
       id="path1301" />
    <path
       style="fill:none;stroke:#00ffff;stroke-width:0.264999"
       d="m 284.91136,91.046186 c 1.22561,-8.527973 4.19732,3.089735 4.3945,4.636016 0.11072,0.868299 0.2179,3.759906 -0.34511,4.946448 -0.0627,0.13224 -0.38459,0.17799 -0.43716,0.0414 -1.1517,-2.992808 1.19815,-8.3829 4.21043,-3.228647 2.66069,4.552677 -2.84464,8.314177 -5.6369,2.731937"
       id="path1303" />
    <path
       style="fill:none;stroke:#00ffff;stroke-width:0.264999"
       d="m 65.117487,140.6763 c -0.168724,0.70368 -0.520931,1.38756 -0.506173,2.11103 0.168451,8.2582 1.996699,16.28317 2.991017,24.44253 0.247579,2.03163 0.759791,5.07099 0.575202,7.28514 -0.0066,0.0787 -0.09573,-0.13043 -0.115041,-0.20695 -0.226814,-0.899 -0.414142,-1.8075 -0.621213,-2.71125"
       id="path1305" />
    <path
       style="fill:none;stroke:#00ffff;stroke-width:0.264999"
       d="m 90.219047,152.74234 c -0.306774,1.64881 -0.525296,3.31652 -0.920324,4.94644 -0.322559,1.33092 -1.377461,5.66599 -2.139723,7.18168 -0.04849,0.0964 -0.07142,-0.2045 -0.09205,-0.31045 -0.163537,-0.83974 -0.245931,-1.6967 -0.460135,-2.52496 -0.300606,-1.16235 -0.641773,-2.3184 -1.081378,-3.43562 -0.51549,-1.31007 -2.975348,-4.34002 -3.152069,-5.48455 -0.02,-0.12957 0.273966,-0.0174 0.391134,0.0414 0.551442,0.27686 1.100677,0.57295 1.587537,0.95204 1.815396,1.41353 4.052006,3.7009 5.613918,5.31898 1.193536,1.23646 2.121416,2.76836 3.520184,3.76676 0.150437,0.10737 0.352787,-0.11038 0.52918,-0.16557"
       id="path1307" />
    <path
       style="fill:none;stroke:#00ffff;stroke-width:0.264999"
       d="m 97.696598,163.401 c 1.487601,2.18308 -0.902732,11.30898 0.437128,6.12617"
       id="path1309" />
    <path
       style="fill:none;stroke:#00ffff;stroke-width:0.264999"
       d="m 107.29086,155.37079 c 0.39113,-0.57261 1.74599,-1.32669 1.17339,-1.71782 -0.57261,-0.39113 -0.90976,1.07645 -1.17339,1.71782 -0.26704,0.64967 -2.43234,8.78237 -2.78395,8.83738 -0.31283,0.0489 -0.49084,-0.40013 -0.73626,-0.60019"
       id="path1311" />
    <path
       style="fill:none;stroke:#00ffff;stroke-width:0.264999"
       d="m 100.0664,158.43386 c 2.18846,1.68953 5.52359,1.55939 7.66159,3.20795"
       id="path1313" />
    <path
       style="fill:none;stroke:#00ffff;stroke-width:0.264999"
       d="m 117.20723,155.03964 c 0.54452,-0.71058 0.96798,-1.53303 1.63355,-2.13173 0.18694,-0.16817 1.8735,-0.54782 1.70259,0.49672 -0.53835,3.29014 -2.19234,4.56685 -3.17508,7.61628 -0.44245,1.37292 -0.88402,2.80071 -0.8513,4.24278 0.0432,1.90683 4.7453,0.45031 5.33782,0.31045 0.47471,-0.11206 1.85221,-0.22273 1.4035,-0.41393 -0.74128,-0.31587 -1.5822,-0.32532 -2.34683,-0.5795"
       id="path1315" />
    <path
       style="fill:none;stroke:#00ffff;stroke-width:0.264999"
       d="m 113.22688,160.95883 c 1.74313,-0.81615 8.22843,-2.91995 9.68629,-1.7178"
       id="path1317" />
    <path
       style="fill:none;stroke:#00ffff;stroke-width:0.264999"
       d="m 135.3374,163.27684 c -0.30103,-1.61044 0.53268,-4.3525 0,0 z"
       id="path1319" />
    <path
       style="fill:none;stroke:#00ffff;stroke-width:0.264999"
       d="m 142.28577,160.29654 c -3.9438,-2.71096 1.02459,-2.81343 0.92033,-1.88337 -0.0778,0.69438 -0.61355,1.25558 -0.92033,1.88337 z"
       id="path1321" />
    <path
       style="fill:none;stroke:#00ffff;stroke-width:0.264999"
       d="m 146.70327,158.45456 c 0.35279,-0.6209 1.67925,-1.50989 1.05836,-1.86268 -0.62089,-0.35278 -0.70557,1.24178 -1.05836,1.86268 z"
       id="path1323" />
    <path
       style="fill:none;stroke:#00ffff;stroke-width:0.264999"
       d="m 164.53435,151.25219 c -10.47042,6.87189 3.08985,6.62863 3.95736,2.38009 0.0999,-0.4893 -1.04036,0.30495 -1.31144,0.72437 -0.85863,1.3285 -1.34155,3.87831 0.27609,4.98785 1.7785,1.21987 1.83025,-3.16782 1.84062,-3.39421"
       id="path1325" />
    <path
       style="fill:none;stroke:#00ffff;stroke-width:0.264999"
       d="m 168.90584,150.90035 c 0.74392,0.55191 1.58049,0.99704 2.23177,1.65571 0.72061,0.72879 1.29364,1.59615 1.84062,2.46288 3.38325,5.36105 -1.68265,-0.59959 -0.94333,-2.40078 0.36614,-0.89201 1.93504,0.0998 2.87598,0.31044 0.0767,0.0172 8.11163,1.92949 6.83334,-0.60019 -1.46072,-2.89072 -7.92736,-1.92074 -6.69528,1.7178 1.29599,3.8273 10.79132,3.1499 10.51459,1.40736 -0.0638,-0.40192 -0.59821,-0.55191 -0.89732,-0.82786"
       id="path1327" />
    <path
       style="fill:none;stroke:#00ffff;stroke-width:0.264999"
       d="m 199.2992,146.74037 c -1.06297,1.07113 3.68538,10.09042 4.67059,9.41687 1.35669,-0.9275 1.48868,-4.70341 1.54153,-5.8364 0.0402,-0.86172 -0.004,-1.72686 -0.069,-2.58705 -0.0311,-0.41076 -0.24345,-1.57231 -0.36814,-1.1797 -0.25259,0.79534 2.98383,0.94468 2.96803,0.99343 -0.47809,1.47437 -2.60623,2.37971 -1.56454,4.38765 1.70487,3.28627 6.52863,0.46517 8.00673,-1.40736 0.18397,-0.23306 1.06354,-1.82217 0.27609,-2.318 -0.23371,-0.14717 -0.60128,-0.178 -0.8283,-0.0207 -2.83265,1.9627 1.33331,11.03623 1.4265,5.67083"
       id="path1329" />
    <path
       style="fill:none;stroke:#00ffff;stroke-width:0.264999"
       d="m 215.4737,149.20323 c 0.72092,0.87615 1.45497,1.74166 2.16275,2.62846 3.39167,4.24951 -0.92544,0.72534 -0.13806,-1.57293 0.85441,-2.49391 3.74657,-3.88114 5.10775,-1.05553 1.12208,-2.90551 1.7486,-5.47845 4.50952,-7.03678 7.36939,-2.72466 -1.4279,5.83871 0.62123,6.91262 1.78947,0.93782 3.72026,-0.5082 4.85466,-1.59364 1.34821,-1.29001 2.12766,-3.9882 1.28844,-3.00099 -1.22286,1.4385 -2.94694,8.14508 0.5982,7.6784"
       id="path1331" />
    <path
       style="fill:none;stroke:#00ffff;stroke-width:0.264999"
       d="m 235.85864,144.02912 c 0.6519,1.1935 1.46624,2.3117 1.95568,3.58049 0.36414,0.94396 0.47767,1.97324 0.57519,2.98029 0.0951,0.98194 0.0901,1.97719 0,2.9596 -0.21477,2.34122 -1.49596,1.01939 -0.78226,-1.26248 0.48551,-1.55235 1.08824,-3.11568 2.04769,-4.42905 0.22228,-0.30426 0.81533,-0.12841 1.12738,0.0828 1.84714,1.25013 2.68419,7.34707 0.78226,6.82983 -0.48209,-0.13111 -0.10735,-0.99342 -0.16103,-1.49013"
       id="path1333" />
    <path
       style="fill:none;stroke:#00ffff;stroke-width:0.264999"
       d="m 243.31319,148.52025 c 2.34248,-1.14811 4.5034,7.54835 4.90067,7.32655 0.94607,-0.5282 0.76953,-3.13211 1.49551,-4.01511 1.05493,-1.28309 3.72574,-0.59025 5.15376,-1.30388 1.26335,-0.63133 1.24731,-3.28312 -0.52918,-2.56636 -1.90431,0.76833 -6.22973,4.61451 -1.24243,5.56734 2.07969,0.39733 6.29475,-3.35714 7.08641,-3.93232"
       id="path1335" />
    <path
       style="fill:none;stroke:#00ffff;stroke-width:0.264999"
       d="m 261.32833,147.6717 c 0.069,-0.82096 0.36658,-1.65461 0.20708,-2.46287 -0.26663,-1.35108 -3.13955,-1.61502 -2.23177,-0.0828 1.15952,1.95714 4.77397,4.9789 4.92367,7.14027 0.067,0.96741 -8.05175,5.96127 -8.67394,2.46288"
       id="path1337" />
    <path
       style="fill:none;stroke:#00ffff;stroke-width:0.264999"
       d="m 86.054619,183.16613 c -1.073701,0.92445 -2.293768,1.70213 -3.221098,2.77333 -5.085739,5.87478 8.545348,2.77374 6.189109,-1.38668 -0.32608,-0.57576 -1.307216,0.82849 -1.311444,1.49017 -0.01786,2.7977 1.629806,5.05992 4.141409,6.06405"
       id="path1339" />
    <path
       style="fill:none;stroke:#00ffff;stroke-width:0.264999"
       d="m 96.178077,190.18224 c 0.608603,1.39638 -4.528531,11.17099 -1.633574,5.65011"
       id="path1341" />
    <path
       style="fill:none;stroke:#00ffff;stroke-width:0.264999"
       d="m 99.744295,184.98741 c 0.567525,0.80026 1.225935,1.54329 1.702565,2.4008 0.53344,0.95971 0.88942,2.00803 1.31144,3.02168 0.32201,0.77341 0.6229,1.55552 0.92033,2.33871 1.45452,3.83001 -2.06652,-8.04305 1.10437,-6.60217 3.87696,1.76173 2.4657,11.55852 -0.92032,6.18822"
       id="path1343" />
    <path
       style="fill:none;stroke:#00ffff;stroke-width:0.264999"
       d="m 109.38457,190.78242 c 0.092,1.14521 0.4522,2.30031 0.27609,3.43563 -0.28163,1.81563 -2.72085,4.16532 -2.39281,6.14683 0.0829,0.50096 0.751,-0.70293 1.01235,-1.13829"
       id="path1345" />
    <path
       style="fill:none;stroke:#00ffff;stroke-width:0.264999"
       d="m 117.6904,185.44274 c -1.97477,1.46955 -4.41541,4.48848 -3.52021,7.22305 1.05458,3.22144 8.10165,-0.14191 8.99607,-1.46943 1.90199,-5.52725 5.96799,0.2753 4.62458,1.59363 -0.52595,0.51613 -0.10974,-2.26983 0,-2.50429"
       id="path1347" />
    <path
       style="fill:none;stroke:#00ffff;stroke-width:0.264999"
       d="m 132.9906,189.51994 c -0.68161,-1.91451 1.58257,-4.22887 0,0 z"
       id="path1349" />
    <path
       style="fill:none;stroke:#00ffff;stroke-width:0.264999"
       d="m 163.15389,179.17172 c -1.97798,1.88495 -3.42731,2.74713 -4.02639,5.73291 -0.4264,2.12517 8.29946,-2.1397 6.78733,-5.2569 -0.10538,-0.21724 -0.40629,0.37216 -0.64423,0.33114 -0.74415,-0.1283 -1.9821,-1.55019 -2.11671,-0.80715 -0.12179,0.67227 2.2587,6.29174 3.93433,6.39519 1.82041,0.11238 -0.14718,-7.71214 0.25309,-8.17508 0.20585,-0.23808 1.55075,0.98469 2.18576,1.6143 1.20236,1.19214 2.39209,2.40115 3.49717,3.68399 0.3183,0.3695 0.87354,1.73105 0.57519,1.34526 -0.57765,-0.74695 -3.80964,-4.79374 -0.96631,-4.94645 1.25428,-0.0674 7.83136,0.66118 8.32884,-0.70369 0.60739,-1.66641 -3.76191,-2.48656 -6.1431,1.13832 -0.36527,0.55604 0.17381,1.39173 0.59819,1.90408 1.79945,2.17244 5.54647,1.9219 8.02973,1.69711 0.87306,-0.079 1.87058,-0.35619 0.8053,-0.47604"
       id="path1351" />
    <path
       style="fill:none;stroke:#00ffff;stroke-width:0.264999"
       d="m 202.06012,171.72098 c -2.03717,0.10553 -7.87362,4.98428 -4.80862,7.18167 2.48183,1.77929 6.44037,-0.37098 8.37484,-1.98686 0.11505,-1.21419 -8.2e-4,-2.47304 0.34514,-3.64257 1.08831,-3.67899 5.03407,1.14859 2.6459,4.20139"
       id="path1353" />
    <path
       style="fill:none;stroke:#00ffff;stroke-width:0.264999"
       d="m 209.67573,170.18944 c 0.65956,0.31045 1.44802,0.43156 1.97869,0.93135 0.65914,0.62078 1.0919,1.46544 1.44947,2.2973 0.31898,0.74207 0.44538,1.55878 0.55219,2.35941 0.0632,0.47386 -0.21584,1.88161 -0.27609,1.40736 -0.19318,-1.52043 0.10929,-5.03876 1.84062,-5.71222 1.11411,-0.43338 0.74711,5.71444 1.49552,5.1534"
       id="path1355" />
    <path
       style="fill:none;stroke:#00ffff;stroke-width:0.264999"
       d="m 219.08593,170.62407 c -0.023,0.80716 -0.52118,1.75247 -0.069,2.42149 1.08716,1.60857 5.19316,0.94689 5.77496,3.06308 0.37327,1.3577 -3.65726,3.97596 -4.16441,2.54567 -0.22378,-0.63108 0.046,-1.33837 0.069,-2.00756"
       id="path1357" />
    <path
       style="fill:none;stroke:#00ffff;stroke-width:0.264999"
       d="m 224.65384,169.67204 c 0.35278,-0.64159 1.69994,-1.57198 1.05835,-1.92477 -0.64159,-0.35279 -1.13925,1.19707 -1.05835,1.92477 0.19265,1.73299 1.26096,3.25264 1.81762,4.90506 0.13486,0.40033 0.39139,0.84263 0.25308,1.24179 -0.3963,1.14374 -3.82698,-0.77742 -3.31313,-1.90408 0.56888,-1.24732 6.74129,-2.98195 6.74129,-3.41491 0,-0.53551 -4.16352,1.86907 -1.72557,3.20795 1.66488,0.91433 6.98697,-0.15091 6.7413,-2.87681 -0.092,-1.02062 -0.8068,1.98577 -0.66724,3.00098 0.259,1.88412 1.78419,1.72481 2.48485,0.5588"
       id="path1359" />
    <path
       style="fill:none;stroke:#00ffff;stroke-width:0.264999"
       d="m 238.3435,167.99563 c 0.10737,-0.57261 0.21474,-1.14521 0.3221,-1.71781 0.092,-0.0483 0.29525,-0.24703 0.2761,-0.14488 -0.93142,4.96736 -0.85116,-2.36899 0.46016,5.29829 0.52358,1.31862 -0.23187,2.72055 -0.023,4.05652 0.12699,0.8123 1.00641,-1.30833 1.40347,-2.02826 0.31383,-0.56902 2.47984,-5.95132 3.93436,-6.02268 0.75665,-0.0371 0.54144,7.342 1.72557,6.43661 2.28452,-1.74676 2.21256,-8.10155 3.42818,-9.08575 0.11604,-0.0939 0.19075,0.42554 0.75924,1.71781 0.40923,0.93024 4.59551,7.51406 1.08139,7.32654 -1.07289,-0.0573 -2.58519,-0.57672 -3.35915,-1.34526 -1.65713,-1.64554 8.07085,-5.30459 9.4332,-6.33312 0.63131,-0.47662 1.21693,-1.03481 1.67959,-1.67642 0.36416,-0.50501 1.21497,-3.0762 -0.52918,-2.81471 -1.74236,0.26122 -3.65005,2.49345 -1.77161,4.13929 0.1383,0.12117 7.12998,3.85083 7.24747,4.1393 1.30202,3.19677 -5.88951,7.20757 -7.8917,6.16754 -0.28195,-0.14646 0.0307,-0.63469 0.046,-0.95204"
       id="path1361" />
    <path
       style="fill:none;stroke:#00ffff;stroke-width:0.264999"
       d="m 69.604018,183.3524 c 0.904976,2.66984 1.826773,5.33404 2.714927,8.00952 0.431014,1.2984 0.85358,2.59999 1.242414,3.91164 1.617602,5.45664 -0.603176,-1.65172 -0.575191,-3.18727 0.120645,-6.61984 5.150557,-4.2662 7.017388,0.35185 0.349808,0.86533 0.131717,1.91571 -0.184058,2.79403 -1.414827,3.93532 -7.825486,2.08668 -6.764313,-1.15899"
       id="path1363" />
    <path
       style="fill:none;stroke:#00ffff;stroke-width:0.264999"
       d="m 84.213995,193.63853 c -1.2919,2.84777 -2.972766,5.50133 -4.831654,8.00954 -0.177224,0.23913 -0.814094,0.86051 -0.575189,0.68299 0.791176,-0.58792 1.441244,-1.34768 2.20875,-1.96618"
       id="path1365" />
  </g>
</svg>
