<?xml version="1.0" encoding="UTF-8" standalone="no"?>
<!-- Created with Inkscape (http://www.inkscape.org/) -->

<svg
   width="372.88745mm"
   height="157.877mm"
   viewBox="0 0 372.88744 157.87701"
   version="1.1"
   id="svg12"
   inkscape:version="1.2.1 (9c6d41e410, 2022-07-14, custom)"
   sodipodi:docname="line_concideration.svg"
   xmlns:inkscape="http://www.inkscape.org/namespaces/inkscape"
   xmlns:sodipodi="http://sodipodi.sourceforge.net/DTD/sodipodi-0.dtd"
   xmlns="http://www.w3.org/2000/svg"
   xmlns:svg="http://www.w3.org/2000/svg">
  <sodipodi:namedview
     id="namedview14"
     pagecolor="#505050"
     bordercolor="#eeeeee"
     borderopacity="1"
     inkscape:showpageshadow="0"
     inkscape:pageopacity="0"
     inkscape:pagecheckerboard="0"
     inkscape:deskcolor="#505050"
     inkscape:document-units="mm"
     showgrid="true"
     inkscape:zoom="0.61842428"
     inkscape:cx="878.03797"
     inkscape:cy="266.80712"
     inkscape:window-width="1366"
     inkscape:window-height="746"
     inkscape:window-x="0"
     inkscape:window-y="0"
     inkscape:window-maximized="1"
     inkscape:current-layer="layer1"
     inkscape:lockguides="false">
    <inkscape:grid
       type="xygrid"
       id="grid344"
       color="#969696"
       opacity="0.39215686"
       empcolor="#000000"
       empopacity="0.17254902"
       dotted="false"
       originx="14.937497"
       originy="120.6455" />
  </sodipodi:namedview>
  <defs
     id="defs9" />
  <g
     inkscape:label="Layer 1"
     inkscape:groupmode="layer"
     id="layer1"
     transform="translate(-90.062503,-27.854543)">
    <path
       style="fill:none;stroke:#00ffff;stroke-width:0.264999"
       d="m 146.27336,40.289913 c 0.52918,0.869252 1.30004,1.631553 1.58754,2.607757 0.60509,2.054553 -0.4792,12.407077 -0.50617,14.942844 -0.0861,8.094204 0.61589,16.184872 0.36812,24.276939 -0.22492,7.346108 -0.90476,14.70302 -1.31144,22.041737 -0.54618,9.85603 -1.01089,19.67373 -1.86364,29.51315 -0.20115,2.32091 -0.31595,4.75047 -0.78227,7.05749"
       id="path1823" />
    <path
       style="fill:none;stroke:#00ffff;stroke-width:0.264999"
       d="m 92.573066,93.334939 c 1.457163,0.489818 2.869554,1.141685 4.37149,1.469454 3.582584,0.78183 8.046824,0.297127 11.664974,0.186264 8.5772,-0.262816 17.13574,-0.926349 25.69975,-1.428052 8.33449,-0.488256 16.68544,-0.764444 25.00953,-1.428067 15.25944,-1.216525 30.51083,-2.799511 45.8316,-3.000978 6.43439,-0.08461 12.8504,0.126145 19.28058,0.248361 0.33016,0.0063 3.80004,0.42607 3.45117,-0.703693 -1.33404,-4.320019 -7.69015,-3.476866 -9.59427,-5.318985 -0.29209,-0.282583 0.7708,-0.275688 1.17341,-0.331139 1.20539,-0.166016 2.41866,-0.309833 3.63524,-0.331153 1.30458,-0.02286 7.92157,-0.247232 7.75364,2.421493 -0.36293,5.767697 -11.0246,12.932164 -11.13579,18.833776"
       id="path1825" />
    <path
       style="fill:none;stroke:#00ffff;stroke-width:0.264999"
       d="m 124.25486,35.46764 c -0.23775,0.613994 -0.47437,1.228425 -0.71324,1.841982 -1.29655,3.330261 -1.06422,2.749629 -2.39282,6.022672 -0.36799,0.906538 -0.86319,3.581066 -1.21941,2.66984 -0.30929,-0.791175 -0.23008,-1.68331 -0.34512,-2.524966"
       id="path1827" />
    <path
       style="fill:none;stroke:#00ffff;stroke-width:0.264999"
       d="m 116.54724,36.792213 c 1.46677,2.648983 4.53012,2.98551 6.90234,4.429044"
       id="path1829" />
    <path
       style="fill:none;stroke:#00ffff;stroke-width:0.264999"
       d="m 236.25702,94.142104 c -1.66403,3.205281 -3.39949,6.369006 -4.96971,9.623846 -0.1889,0.39157 -0.47462,1.57582 -0.5982,1.159 -0.0989,-0.33364 -0.092,-0.68988 -0.13805,-1.03482"
       id="path1831" />
    <path
       style="fill:none;stroke:#00ffff;stroke-width:0.264999"
       d="m 228.98653,97.453539 c 2.01976,1.015428 11.8279,7.102891 11.31986,9.996381"
       id="path1833" />
    <path
       style="fill:none;stroke:#00ffff;stroke-width:0.264999"
       d="m 148.98829,40.890112 c -2.91177,0.386936 -1.7487,-0.122138 -4.50954,2.255911 -0.82342,0.709259 -1.60201,1.469077 -2.39282,2.214523 -5.39408,5.08462 6.09943,-5.045532 6.90236,-4.470434 2.59741,1.86041 3.09419,5.609263 4.96969,8.195799 3.69116,3.447067 2.24025,1.678522 4.57856,5.112022"
       id="path1835" />
    <path
       style="fill:none;stroke:#00ffff;stroke-width:0.264999"
       d="m 92.089897,94.369756 c 0.359894,-2.420627 1.720924,-4.166367 3.221098,-6.064054 0.776372,-0.982093 1.592596,-1.933548 2.438834,-2.856119 0.56624,-0.617317 1.205309,-1.163849 1.794613,-1.75919 0.407866,-0.412046 0.796448,-0.842748 1.196408,-1.262483 0.10623,-0.111483 0.44422,-0.424974 0.32211,-0.33115 -0.48928,0.375944 -0.97583,0.758227 -1.426483,1.179703 -0.5994,0.560596 -10.349325,8.031858 -7.54658,11.093293 3.047719,3.329022 11.381043,5.509234 10.146463,11.403744"
       id="path1837" />
    <path
       style="fill:none;stroke:#00ffff;stroke-width:0.264999"
       d="m 142.13195,134.4174 c -2.42768,-3.75095 -1.40477,-1.97261 -3.19809,-5.38107 -0.53712,-1.02088 -1.03472,-2.06351 -1.61055,-3.06307 -0.91474,-1.58783 -2.09447,-3.07134 -2.11672,-3.06308 -1.7385,0.64595 3.47725,14.47725 6.28114,14.42542 1.45768,-0.0269 4.79283,-3.02152 5.31481,-3.35282 2.34551,-1.4887 6.2338,-4.16628 9.43322,-4.38764"
       id="path1839" />
    <path
       style="fill:none;stroke:#00ffff;stroke-width:0.264999"
       d="m 173.67569,89.071465 c -0.0767,-0.662287 -0.15339,-1.324573 -0.23009,-1.986857 -1.29406,-1.254639 -0.0103,-2.73717 -0.11502,-4.056504 -0.0153,-1.559135 -0.0307,-3.11827 -0.046,-4.677405 -0.97053,-2.632872 -0.2653,-3.999539 -0.11507,-6.229637 -2.94207,0.57074 -1.87565,-6.612214 0.0921,-5.815701 1.84296,0.74602 3.23579,4.775849 -0.0921,5.815701 -0.89093,0.278388 -2.03744,-6.419615 0.87432,-5.960575 4.80593,0.757657 1.03717,7.627612 -0.87432,5.960575 -1.03807,-0.905321 -2.80065,-6.133915 0.18407,-6.664254 3.43851,-0.61097 0.3778,6.840676 -0.18407,6.664254 -1.08112,-0.339459 -0.96775,-2.059019 -1.28844,-3.145853 -0.16259,-0.55102 2.34091,-0.138249 4.16444,-0.827859 2.74118,-1.036639 4.96418,-3.678072 7.01739,-5.629438 3.21656,-3.057013 6.19154,-5.59247 9.87036,-7.988834 0.35881,-0.233725 2.33767,-1.234292 2.16273,-1.531538 -0.0892,-0.151498 -9.63723,2.054643 -8.05274,0.786464 2.24489,-1.796756 5.90201,-4.123237 8.835,-3.953025 0.67623,0.03924 -0.48728,1.678339 -0.80527,4.718794 -0.31875,3.04771 0.12143,4.174094 0.98934,7.285155 0.54336,1.947687 0.53597,0.639906 0.48317,1.779898"
       id="path1841" />
    <path
       style="fill:none;stroke:#00ffff;stroke-width:0.264999"
       d="m 148.52813,67.816204 c 1.19133,0.08577 2.4329,-0.39816 3.61223,-0.103485 2.16334,-0.435293 3.65537,-0.202443 5.56791,0.227666 3.64548,-0.339782 2.98394,-0.683281 4.46351,0.248354 1.92015,-0.329689 2.28455,-0.350099 3.40516,-0.06209 1.34213,-0.17247 2.68425,-0.344939 4.02638,-0.517409 0.046,0.0069 0.092,0.0138 0.13803,0.02069"
       id="path1843" />
    <path
       style="fill:none;stroke:#00ffff;stroke-width:0.264999"
       d="m 172.36424,50.182818 c -0.27675,2.128709 0.95277,3.514609 3.15209,3.125166 3.50584,-0.620792 3.30147,-5.673302 3.15207,-8.361368 -0.0206,-0.370179 -0.0919,0.737793 -0.18407,1.096914 -0.35486,1.38324 -0.83775,3.092268 -1.61054,4.304864 -0.86508,1.357409 -2.29483,3.942951 -3.68125,3.125166 -0.97426,-0.574678 -0.86421,-4.4213 -0.8283,-3.290742 0.0336,1.058353 -0.1898,2.204743 0.25309,3.166562 0.30362,0.659373 2.40309,0.217506 2.71494,0.0207 2.33317,-1.472534 2.6039,-4.433115 2.96799,-6.871225 0.097,-0.649628 0.69052,-2.527116 -0.36811,-2.193822"
       id="path1845" />
    <path
       style="fill:none;stroke:#00ffff;stroke-width:0.264999"
       d="m 169.18916,37.578676 c 0.7471,0.148609 8.19716,-2.659226 8.07575,-2.95959 -0.40146,-0.993206 -2.97102,-1.619785 -3.84231,-1.986862 -0.41995,-0.176928 -1.68101,-0.704337 -1.26541,-0.517409 0.9487,0.426705 7.38663,2.511008 7.04039,3.332124 -0.50347,1.193984 -9.19224,2.024587 -10.00842,2.131737 z"
       id="path1847" />
    <path
       style="fill:none;stroke:#00ffff;stroke-width:0.264999"
       d="m 90.065218,141.64047 c 1.629523,-0.0334 2.690106,-2.38009 4.233431,-2.38009"
       id="path1853" />
    <path
       style="fill:none;stroke:#00ffff;stroke-width:0.264999"
       d="m 97.588777,134.95551 c 1.401628,-0.7709 2.280767,-2.23933 3.704263,-2.95959 1.02642,-0.61502 3.2454,-2.83154 4.57856,-4.18068 1.79483,-2.45564 2.8811,-3.43306 4.80863,-5.07064 0.15171,-1.69012 3.96674,-2.63991 5.22279,-4.18068 1.60362,-1.17933 3.07402,-2.55822 4.55555,-3.89094"
       id="path1855" />
    <path
       style="fill:none;stroke:#00ffff;stroke-width:0.264999"
       d="m 132.19257,105.44237 c 1.69591,-0.6856 3.16485,-1.37961 4.25645,-2.81472"
       id="path1857" />
    <path
       style="fill:none;stroke:#00ffff;stroke-width:0.264999"
       d="m 140.06125,95.984085 c 1.65249,-1.279596 3.75644,-2.202048 4.87765,-4.035808"
       id="path1859" />
    <path
       style="fill:none;stroke:#00ffff;stroke-width:0.264999"
       d="m 152.83059,85.42889 c 1.79486,-2.043482 4.96754,-2.296546 6.67229,-4.387643"
       id="path1861" />
    <path
       style="fill:none;stroke:#00ffff;stroke-width:0.264999"
       d="m 162.67795,75.825733 c 0.80593,-2.135672 4.54042,-3.631944 5.17676,-5.277598"
       id="path1863" />
    <path
       style="fill:none;stroke:#00ffff;stroke-width:0.264999"
       d="m 170.43159,66.615812 c 1.63598,-1.520072 3.65306,-2.274262 5.63693,-3.166562"
       id="path1865" />
    <path
       style="fill:none;stroke:#00ffff;stroke-width:0.264999"
       d="m 198.018,54.073753 c 1.0705,-0.817993 5.22648,-1.750425 5.3608,-3.68397"
       id="path1867" />
    <path
       style="fill:none;stroke:#00ffff;stroke-width:0.264999"
       d="m 209.38387,43.932493 c 1.52212,-0.972216 2.82068,-2.130703 4.02635,-3.45631"
       id="path1869" />
    <path
       style="fill:none;stroke:#00ffff;stroke-width:0.264999"
       d="m 219.07016,35.736695 c 0.60587,-0.42083 1.21174,-0.84166 1.81762,-1.26249"
       id="path1871" />
    <path
       style="fill:none;stroke:#00ffff;stroke-width:0.264999"
       d="m 225.51235,29.900293 c 0.79194,-0.60564 1.56468,-1.289924 2.32379,-1.945468"
       id="path1873" />
    <path
       style="fill:none;stroke:#00ffff;stroke-width:0.264999"
       d="m 128.94846,65.311933 c 0.44482,1.041722 0.95673,2.057285 1.33445,3.125166 1.39847,3.953654 0.50045,4.361554 0.75926,1.904071 0.42409,-4.026817 3.46604,-6.771138 6.46521,-2.711236 2.66103,3.602188 -1.48039,6.829908 -6.00506,4.863668 -1.82025,-0.791009 -0.90471,-2.214522 0.48317,-2.214522"
       id="path1875" />
    <path
       style="fill:none;stroke:#00ffff;stroke-width:0.264999"
       d="m 171.97312,106.93251 c 1.37614,-5.68534 -5.42065,-0.61461 -4.4175,2.13174 0.18791,0.51445 2.06164,2.28278 2.94499,1.32458 0.84882,-0.92075 0.8641,-2.36174 1.47251,-3.45632 0.54899,-0.98767 1.54628,-1.70862 1.97866,-2.75263 0.0699,-0.1687 -5.70583,-1.42713 -1.97866,2.75263 1.01048,1.13319 3.01245,0.49855 4.44051,1.01413 1.11397,0.40219 3.78936,2.03322 4.60157,3.02169"
       id="path1877" />
    <path
       style="fill:none;stroke:#00ffff;stroke-width:0.264999"
       d="m 283.64128,66.717991 c 0.99701,1.88338 2.16169,3.687144 2.99103,5.650138 0.8217,1.94493 1.40385,4.858239 1.38046,7.057495 -0.0377,3.540549 -1.64001,-0.06902 -1.84062,-1.15901 -0.44937,-2.441482 -0.48894,-4.658066 0.34513,-7.016093 1.15373,-3.261731 4.61163,-3.481111 6.60323,-1.138302"
       id="path1879" />
    <path
       style="fill:none;stroke:#00ffff;stroke-width:0.264999"
       d="m 303.01388,61.25413 c -2.94272,5.111863 -6.10249,10.138451 -5.40682,16.495084 0.43666,3.98994 7.00924,4.814337 9.87036,5.277596 0.59614,0.09652 2.39651,0.199133 1.79461,0.248348 -0.22167,0.01812 -0.44483,0 -0.66724,0"
       id="path1881" />
    <path
       style="fill:none;stroke:#00ffff;stroke-width:0.264999"
       d="m 318.6132,70.008733 c 0.0767,1.014127 0.17741,2.026724 0.23008,3.04238 0.10311,1.987278 0.15108,3.687403 -0.023,5.65014 -0.13081,1.474608 -0.38902,1.824948 -0.41416,1.80058 -0.79139,-0.76663 -0.83656,-2.038739 -1.24243,-3.063076"
       id="path1883" />
    <path
       style="fill:none;stroke:#00ffff;stroke-width:0.264999"
       d="m 314.47179,71.374701 c 0.005,-2.218103 9.22612,-2.536367 9.22612,-2.649146 0,-0.02232 -0.66609,-0.495922 -0.6672,-0.49672"
       id="path1885" />
    <path
       style="fill:none;stroke:#00ffff;stroke-width:0.264999"
       d="m 325.53857,61.895725 c 0.98933,0.827859 2.20641,1.442378 2.96801,2.483577 3.44244,4.706261 2.90759,11.868671 -0.11504,16.557167 -0.73657,1.14254 -3.03813,4.865685 -2.922,1.365957"
       id="path1887" />
    <path
       style="fill:none;stroke:#00ffff;stroke-width:0.264999"
       d="m 337.13451,70.298482 c 2.31722,-0.443647 13.569,-2.028668 5.38382,0.724373"
       id="path1889" />
    <path
       style="fill:none;stroke:#00ffff;stroke-width:0.264999"
       d="m 336.21421,74.727527 c 2.13387,2.441924 7.2304,0.866814 10.0084,1.841981"
       id="path1891" />
    <path
       style="fill:none;stroke:#00ffff;stroke-width:0.264999"
       d="m 370.38084,55.169368 c -1.11972,0.648489 -2.36194,1.120922 -3.35915,1.945467 -4.42259,3.656832 3.08165,5.68591 5.29182,1.510843 0.0728,-0.137566 1.10757,-2.89722 0.23008,-3.394214 -4.36657,-2.473116 -0.77742,3.365055 -0.75927,3.394214 0.81333,1.305139 3.13166,3.277033 4.30247,4.366961"
       id="path1903" />
    <path
       style="fill:none;stroke:#00ffff;stroke-width:0.264999"
       d="m 369.13841,70.857286 c 0.3988,1.034823 0.98446,2.0159 1.19642,3.104465 0.21629,1.110782 0.12514,2.263976 0.069,3.394226 -0.39645,7.983482 -2.59244,1.430419 0.78227,-2.028256 2.00289,-2.052717 4.23717,1.39487 3.93435,3.24935 -0.38304,2.345682 -2.06155,5.462222 -4.73961,2.380091 -0.52655,-0.605986 -0.32211,-1.572929 -0.48319,-2.359395"
       id="path1905" />
    <path
       style="fill:none;stroke:#00ffff;stroke-width:0.264999"
       d="m 381.65468,56.038629 c 4.45754,-0.582665 3.6,1.339747 3.61222,4.946446 0.008,2.41587 0.19839,5.01581 0.82828,7.36794 0.18995,0.709216 3.61339,8.772227 3.42818,9.272019 -0.31739,0.856459 -5.49399,2.596068 -6.28113,2.95959 -0.83018,0.383386 -1.69135,1.042868 -0.48318,-0.08279"
       id="path1907" />
    <path
       style="fill:none;stroke:#00ffff;stroke-width:0.264999"
       d="m 366.86066,56.142101 c -5.20187,1.682048 -6.56574,1.653122 -6.48824,7.160982 0.0836,5.943038 0.20788,3.838243 0.80528,11.114 0.24072,2.931485 0.35711,4.364646 0.023,7.160969 -0.0849,0.710113 -1.15192,2.457762 -1.03534,3.104478 0.0939,0.52083 1.05833,0.01453 1.58753,0.02069 1.95752,0.02286 3.96668,0.139835 5.84398,0.724374"
       id="path1909" />
    <path
       style="fill:none;stroke:#00ffff;stroke-width:0.264999"
       d="m 397.11595,66.635213 c -0.0642,1.087082 1.64999,7.800031 0.75927,7.864648 -0.36888,0.02676 -0.72093,-0.165566 -1.0814,-0.248346"
       id="path1911" />
    <path
       style="fill:none;stroke:#00ffff;stroke-width:0.264999"
       d="m 393.45769,72.968323 c 4.32959,-0.672166 3.91991,-0.758524 7.79968,-0.889942 0.74348,-0.02519 1.48786,-0.0061 2.23173,0 0.0999,7.93e-4 0.38195,-0.0352 0.29911,0.02069 -0.10869,0.07332 -0.26074,0.02759 -0.39113,0.04139"
       id="path1913" />
    <path
       style="fill:none;stroke:#00ffff;stroke-width:0.264999"
       d="m 414.78596,59.308663 c -1.76305,3.093708 -1.67447,6.216904 -1.35744,9.62385 0.0606,0.651074 0.25191,2.318888 0.3911,2.359397 0.22109,0.06434 2.52559,-2.701987 4.32549,-2.214522 1.93509,0.524079 2.4846,5.613946 0.71324,4.36696"
       id="path1915" />
    <path
       style="fill:none;stroke:#00ffff;stroke-width:0.264999"
       d="m 430.84543,59.950258 c -1.30683,2.168705 -1.84444,2.532204 -2.0247,5.298292 -0.36642,5.622847 4.80642,7.028363 7.93771,2.545661 1.23603,-1.769457 2.27288,-4.355015 2.41584,-6.560776 0.19804,-3.055972 -2.36723,-1.62037 -3.31312,-0.331138"
       id="path1917" />
    <path
       style="fill:none;stroke:#00ffff;stroke-width:0.264999"
       d="m 427.09517,52.064903 c 2.99093,0 1.72125,-0.09633 5.36081,0.455318 1.00673,0.152592 2.00874,0.3349 3.01402,0.496721 1.97927,0.318601 2.67669,0.617165 1.61055,-1.531538 -0.15534,-0.313103 -3.18836,-5.554878 -3.19807,-5.712221 -0.0388,-0.627901 1.09976,0.631519 1.56453,1.055511 1.32794,1.211497 6.51735,6.852195 4.0494,7.719786 -3.91166,1.375111 -9.06156,-0.480794 -12.40124,-2.483577 z"
       id="path1919" />
    <path
       style="fill:none;stroke:#00ffff;stroke-width:0.264999"
       d="m 281.17945,107.34514 c 0.0383,-0.66229 0.77731,-1.94851 0.11503,-1.98686 -0.66229,-0.0383 -0.66879,1.62157 -0.11503,1.98686 0.80156,0.52875 1.97981,-0.51047 2.87598,-0.16557 1.76335,0.67864 5.93015,8.43074 1.97868,8.87878 -0.56028,0.0635 -1.15802,-0.181 -1.61054,-0.51741 -2.83529,-2.10781 -0.92755,-6.74509 0.85128,-8.7132 1.23007,-1.36096 2.8826,-2.29691 4.48652,-3.18726 2.03686,-1.13067 2.95552,0.48093 1.84062,1.84198"
       id="path1921" />
    <path
       style="fill:none;stroke:#00ffff;stroke-width:0.264999"
       d="m 301.40334,101.77779 c 0.11504,-0.62779 0.97292,-1.76832 0.34513,-1.88337 -0.62779,-0.115043 0.098,1.42404 -0.34513,1.88337 -0.82613,0.85632 -2.41884,0.76317 -3.12907,1.71782 -2.3735,3.19033 -0.34607,8.49617 1.61054,11.19677 0.15076,0.20809 4.83546,6.00643 4.94669,2.50428"
       id="path1923" />
    <path
       style="fill:none;stroke:#00ffff;stroke-width:0.264999"
       d="m 308.67381,105.52385 c 0.99886,0.96456 2.46897,9.08484 1.56453,9.45828 -0.37931,0.15662 -0.78226,-0.24835 -1.17339,-0.37252"
       id="path1925" />
    <path
       style="fill:none;stroke:#00ffff;stroke-width:0.264999"
       d="m 304.76248,107.42793 c 2.03269,-3.03285 5.93961,-2.62732 9.20313,-3.02169"
       id="path1927" />
    <path
       style="fill:none;stroke:#00ffff;stroke-width:0.264999"
       d="m 313.09131,95.734432 c 1.14272,0.524309 2.42846,0.810496 3.42819,1.572927 4.347,3.315241 3.67104,9.746181 1.88664,14.114991 -0.44156,1.08105 -0.98613,2.11864 -1.54154,3.14585 -0.2666,0.49307 -0.60741,0.94232 -0.92033,1.40738 -0.0401,0.0596 -0.16298,0.23294 -0.13803,0.16556 0.0473,-0.1276 0.13806,-0.23456 0.20709,-0.35184"
       id="path1929" />
    <path
       style="fill:none;stroke:#00ffff;stroke-width:0.264999"
       d="m 325.49253,107.28306 c 1.8324,-3.30197 17.77442,-2.85063 6.60326,-0.12418"
       id="path1931" />
    <path
       style="fill:none;stroke:#00ffff;stroke-width:0.264999"
       d="m 325.9987,110.82214 c 3.52224,1.45484 7.50591,0.10518 11.04379,1.2625"
       id="path1933" />
    <path
       style="fill:none;stroke:#00ffff;stroke-width:0.264999"
       d="m 358.43977,93.747576 c -0.85895,0.206962 -1.80068,0.198784 -2.57689,0.620887 -7.75967,4.219799 2.81792,7.543287 4.85469,1.924772 0.38803,-1.07048 -1.68302,-3.516619 -2.2778,-2.545659 -1.99403,3.255216 3.02,7.786374 3.65823,10.513794"
       id="path1935" />
    <path
       style="fill:none;stroke:#00ffff;stroke-width:0.264999"
       d="m 355.97793,111.04981 c 1.27725,2.46201 1.21049,1.73082 1.19641,5.11203 -0.004,0.9886 -0.23338,2.80517 -0.73625,3.78745 -0.0498,0.0973 -0.33179,0.17101 -0.3221,0.0621 0.2804,-3.15281 4.66066,-8.12842 7.29347,-3.91164 1.84732,2.95871 -4.28175,8.67512 -5.72894,4.94646 -0.43831,-1.12925 -0.58288,-2.36977 -0.62122,-3.58049 -0.0315,-0.99564 0.2761,-1.97306 0.41413,-2.95959"
       id="path1937" />
    <path
       style="fill:none;stroke:#00ffff;stroke-width:0.264999"
       d="m 366.49252,94.327074 c 8.23849,-2.752304 5.92013,7.959576 6.35016,12.314386 0.2146,2.17311 0.79129,4.6361 1.38046,6.74705 0.24053,0.86181 0.86874,1.65109 0.8513,2.54566 -0.006,0.30292 -8.63518,3.15539 -9.54826,3.47701 -0.82005,0.28884 1.56234,-0.76342 2.3468,-1.1383"
       id="path1939" />
    <path
       style="fill:none;stroke:#00ffff;stroke-width:0.264999"
       d="m 351.7905,92.9818 c -11.47601,1.393306 -6.97762,14.18337 -7.1324,22.02104 -0.0573,2.90192 -0.15735,4.04195 -0.82831,6.66425 -0.21624,0.84506 -0.48138,1.67744 -0.75927,2.50427 -0.16216,0.48254 -0.9819,1.34679 -0.48313,1.44876 2.30301,0.47085 5.78723,-1.84551 7.1324,1.17969"
       id="path1941" />
    <path
       style="fill:none;stroke:#00ffff;stroke-width:0.264999"
       d="m 382.41395,103.28864 c -0.29032,2.39288 1.59184,10.25728 -1.26545,11.114"
       id="path1943" />
    <path
       style="fill:none;stroke:#00ffff;stroke-width:0.264999"
       d="m 379.19284,111.46374 c 3.4186,-1.68684 6.31851,-1.68938 9.89338,-1.28318"
       id="path1945" />
    <path
       style="fill:none;stroke:#00ffff;stroke-width:0.264999"
       d="m 400.40607,102.3573 c 0.10866,3.73815 0.40026,7.46171 0.98933,11.15539 0.0879,0.5513 0.20857,1.99394 0.57518,1.57293 0.97417,-1.11865 1.43163,-3.41085 3.33616,-3.39421 2.83665,0.0248 3.95695,5.64679 3.17508,7.61628"
       id="path1947" />
    <path
       style="fill:none;stroke:#00ffff;stroke-width:0.264999"
       d="m 426.3359,100.24626 c -0.51459,1.1021 -4.9221,0.27499 -6.1431,1.15901 -0.76454,0.55353 -0.41719,1.85111 -0.46016,2.79402 -0.24855,5.45529 0.88699,10.80388 0.73626,16.24672 -0.0536,1.93381 -0.42143,3.77073 -0.71324,5.67082 -0.11724,0.76325 -0.0543,1.50278 -0.48318,2.15244 -0.1273,0.19287 -0.65276,0.45498 -0.43712,0.5381 0.68757,0.26506 1.45349,-0.24847 2.18572,-0.33114 3.73692,-0.42196 4.02339,-0.51202 7.82267,-0.5381 1.90886,-0.0131 4.98853,0.59594 1.19642,1.44875"
       id="path1949" />
    <path
       style="fill:none;stroke:#00ffff;stroke-width:0.264999"
       d="m 440.07158,103.41282 c -0.55218,0.76577 -1.34707,1.40538 -1.65658,2.29731 -0.82317,2.37229 2.51875,1.37042 3.26713,0.76576 2.20533,-1.78184 6.17492,-9.822719 2.36979,-5.56735 6.07034,0.66903 1.825,8.29883 4.18743,10.90705"
       id="path1951" />
    <path
       style="fill:none;stroke:#00ffff;stroke-width:0.264999"
       d="m 436.02219,116.12045 c -1.02106,2.14312 -1.32242,1.67487 0.16108,4.18068 2.34315,3.9579 6.88311,-2.12976 5.24576,-4.78089"
       id="path1953" />
    <path
       style="fill:none;stroke:#00ffff;stroke-width:0.264999"
       d="m 443.56877,118.99725 c 0.62888,0.069 1.51482,-0.30489 1.88666,0.20697 0.94279,1.29781 -1.95786,3.9855 -2.16276,5.09132 -0.1293,0.69777 1.42299,-0.0783 2.11675,-0.22765 0.89675,-0.19308 4.38425,-0.27654 4.11837,-1.75921"
       id="path1955" />
    <path
       style="fill:none;stroke:#00ffff;stroke-width:0.264999"
       d="m 450.83925,94.409851 c 9.32085,1.026999 7.0634,5.803519 7.0634,12.852509 0,4.31244 0.47662,8.78318 1.26545,13.01807 0.27151,1.45763 0.74258,3.71606 1.54151,5.15343 0.0556,0.1001 2.3064,2.38563 2.09373,2.62844 -1.02259,1.16746 -9.35752,2.15959 -10.44559,2.318 -1.06053,0.15441 -2.12765,0.27862 -3.19807,0.33114 -0.20492,0.0101 -0.75073,-0.008 -0.5982,-0.14487 0.20542,-0.18479 1.60512,-0.31579 1.90963,-0.35184"
       id="path1957" />
    <path
       style="fill:none;stroke:#00ffff;stroke-width:0.264999"
       d="m 283.1121,151.65626 c 2.53673,2.62173 2.34701,1.99929 3.95736,5.69153 0.67167,1.53999 1.5978,3.85822 1.51853,5.71224 -0.0696,1.62797 -1.52169,3.52839 -2.71494,0.91063 -1.1041,-2.42215 -1.15554,-5.41015 -0.55219,-7.94745 0.54852,-2.30669 4.13555,-8.30517 7.22446,-5.62943"
       id="path1959" />
    <path
       style="fill:none;stroke:#00ffff;stroke-width:0.264999"
       d="m 300.18391,158.11355 c 0.069,-0.60709 0.81417,-1.75224 0.20708,-1.82127 -0.60709,-0.069 -0.37254,1.2331 -0.20708,1.82127 0.17001,0.60432 4.1622,8.26089 1.67959,8.34069"
       id="path1961" />
    <path
       style="fill:none;stroke:#00ffff;stroke-width:0.264999"
       d="m 297.12389,160.01763 c -0.0503,-0.0549 -2.35494,-2.11185 -2.25477,-3.06307 0.24323,-2.30979 8.88431,-3.48507 10.8597,-3.80816"
       id="path1963" />
    <path
       style="fill:none;stroke:#00ffff;stroke-width:0.264999"
       d="m 298.71143,146.46146 c -1.13505,0.46912 -2.47358,0.60699 -3.40516,1.40736 -1.03582,0.88992 -1.61018,2.21964 -2.23177,3.4356 -3.71771,7.27266 -2.30185,13.22224 4.62458,17.19877 0.12375,0.0711 4.14392,2.52518 4.96969,1.26249"
       id="path1965" />
    <path
       style="fill:none;stroke:#00ffff;stroke-width:0.264999"
       d="m 305.42972,142.73609 c 1.13505,0.53811 2.45067,0.79771 3.40515,1.61433 0.84238,0.72071 1.29998,1.81143 1.77161,2.81471 2.26176,4.81142 2.29211,9.08618 0.75926,14.11498 -0.63861,2.09507 -2.02552,4.13551 -2.43885,6.29174"
       id="path1967" />
    <path
       style="fill:none;stroke:#00ffff;stroke-width:0.264999"
       d="m 320.26976,156.39576 c 0.2508,-0.44969 10.28737,-1.63234 4.07239,0.39321"
       id="path1969" />
    <path
       style="fill:none;stroke:#00ffff;stroke-width:0.264999"
       d="m 318.5442,160.8041 c 3.73081,1.57113 7.36701,0.80715 11.20479,0.80715"
       id="path1971" />
    <path
       style="fill:none;stroke:#00ffff;stroke-width:0.264999"
       d="m 352.15864,143.87439 c -1.08905,0.5864 -2.28214,1.01109 -3.26713,1.75921 -5.89087,4.47422 2.77646,9.00681 4.62457,2.9803 0.21093,-0.68773 0.24667,-1.72305 -0.23008,-2.35941 -0.37237,-0.49708 -0.32242,1.3065 -0.046,1.86268 1.06548,2.14384 2.57122,3.81934 4.11843,5.60873"
       id="path1973" />
    <path
       style="fill:none;stroke:#00ffff;stroke-width:0.264999"
       d="m 365.34214,146.25449 c -1.06244,1.63181 0.46021,3.74465 -0.62124,5.23619"
       id="path1975" />
    <path
       style="fill:none;stroke:#00ffff;stroke-width:0.264999"
       d="m 361.95997,150.2903 c 1.9009,-0.38404 3.73801,-0.55744 5.5449,-1.24178"
       id="path1977" />
    <path
       style="fill:none;stroke:#00ffff;stroke-width:0.264999"
       d="m 369.39148,142.96376 c 2.1636,3.32127 2.03264,2.1588 2.39284,4.96715 0.0434,0.33839 -0.0403,1.30494 0.13803,1.01412 0.49972,-0.81475 0.13494,-0.81563 0.96634,-1.71781 2.19075,-2.3773 2.3254,3.93625 2.07071,4.96715"
       id="path1979" />
    <path
       style="fill:none;stroke:#00ffff;stroke-width:0.264999"
       d="m 378.61763,142.83958 c -2.16175,6.23839 5.01552,6.6802 6.02806,0.80715 0.097,-0.56253 -0.80883,-4.70905 -1.56454,-2.66984"
       id="path1981" />
    <path
       style="fill:none;stroke:#00ffff;stroke-width:0.264999"
       d="m 387.24556,145.0541 c 1.05889,2.33898 0.99724,4.50207 0.73626,6.95401"
       id="path1983" />
    <path
       style="fill:none;stroke:#00ffff;stroke-width:0.264999"
       d="m 352.34268,161.15595 c 0.42947,0.92444 0.94557,1.81338 1.28844,2.77332 0.34259,0.95913 0.58158,1.95673 0.75925,2.95959 0.13034,0.73555 0.14058,1.4885 0.16108,2.23522 0.13785,5.02118 -1.18372,-3.70109 3.70425,-3.24934 3.93536,0.36371 3.51761,7.28725 1.01235,7.49212 -3.23512,0.26456 -1.82923,-3.2382 -1.67955,-4.44975"
       id="path1985" />
    <path
       style="fill:none;stroke:#00ffff;stroke-width:0.264999"
       d="m 365.45715,161.85961 c -1.39263,2.6917 3.35971,7.16202 1.19642,8.89948"
       id="path1987" />
    <path
       style="fill:none;stroke:#00ffff;stroke-width:0.264999"
       d="m 362.88027,168.91711 c 2.30703,-1.51323 4.9548,-1.46094 7.54658,-2.11102"
       id="path1989" />
    <path
       style="fill:none;stroke:#00ffff;stroke-width:0.264999"
       d="m 372.35952,159.18977 c 2.22491,2.73408 2.86941,5.09977 2.6919,8.50625 -0.0589,1.13141 -0.63696,2.72142 -0.3451,1.84198 0.20413,-0.61515 0.86067,-3.65705 2.27778,-3.29073 1.83253,0.4737 3.85841,3.85578 2.16273,5.38107"
       id="path1991" />
    <path
       style="fill:none;stroke:#00ffff;stroke-width:0.264999"
       d="m 383.54132,161.81823 c -0.67551,1.56813 -1.18163,8.76273 2.78394,7.5335 2.35154,-0.72891 3.3886,-2.95839 3.81932,-5.1741 0.0829,-0.42629 -0.52576,-4.12521 -0.98933,-2.31802"
       id="path1993" />
    <path
       style="fill:none;stroke:#00ffff;stroke-width:0.264999"
       d="m 393.04356,165.21244 c 0.60034,-0.0892 3.30941,-1.15065 2.85298,0.72437 -0.425,1.74591 -1.46219,2.9046 -2.57688,4.28417 -0.62347,0.77161 -2.53352,2.53812 -1.54152,2.54567 0.47495,0.004 8.36819,-1.9443 8.53591,-2.13173 0.14086,-0.15745 -0.19942,-0.37254 -0.29911,-0.55881"
       id="path1995" />
    <path
       style="fill:none;stroke:#00ffff;stroke-width:0.264999"
       d="m 396.47172,140.85271 c 2.05226,-0.3918 8.53199,-0.64564 9.82435,1.65572 1.0755,1.91518 -0.5424,6.35495 -0.62119,8.15439 -0.17619,4.02337 0.15978,6.49759 1.10437,10.38964 0.86982,3.58409 2.42035,7.01261 3.77327,10.431 0.24503,0.61907 0.48123,1.44571 0.94332,1.98686 0.23077,0.27027 0.80881,0.37001 0.78227,0.7244 -0.10298,1.3742 -7.50229,3.87681 -8.19079,3.47699 -0.45524,-0.26437 0.30676,-1.00723 0.46014,-1.51084"
       id="path1997" />
    <path
       style="fill:none;stroke:#00ffff;stroke-width:0.264999"
       d="m 347.25797,136.36158 c -2.15265,1.47132 -7.44905,2.47263 -8.44388,5.38108 -0.66596,1.94691 0.75231,5.11871 0.92032,7.0575 0.13589,1.56825 0.15582,3.14492 0.18405,4.71879 0.12112,6.75657 0.0169,13.52479 0,20.28253 -0.009,3.51846 0.0301,7.05853 -0.41413,10.5552 -0.0523,0.41175 -0.4672,1.06419 -0.092,1.24178 0.12036,0.057 7.9238,-3.92455 10.33053,-3.68397"
       id="path1999" />
  </g>
</svg>
