<?xml version="1.0" encoding="UTF-8" standalone="no"?>
<!-- Created with Inkscape (http://www.inkscape.org/) -->

<svg
   width="219.55872mm"
   height="235.18019mm"
   viewBox="0 0 219.55871 235.1802"
   version="1.1"
   id="svg12"
   inkscape:version="1.2.1 (9c6d41e410, 2022-07-14, custom)"
   sodipodi:docname="llc_step_1.svg"
   xml:space="preserve"
   xmlns:inkscape="http://www.inkscape.org/namespaces/inkscape"
   xmlns:sodipodi="http://sodipodi.sourceforge.net/DTD/sodipodi-0.dtd"
   xmlns="http://www.w3.org/2000/svg"
   xmlns:svg="http://www.w3.org/2000/svg"><sodipodi:namedview
     id="namedview14"
     pagecolor="#000000"
     bordercolor="#ffffff"
     borderopacity="1"
     inkscape:showpageshadow="0"
     inkscape:pageopacity="0"
     inkscape:pagecheckerboard="0"
     inkscape:deskcolor="#000000"
     inkscape:document-units="mm"
     showgrid="true"
     inkscape:zoom="0.79080238"
     inkscape:cx="343.95445"
     inkscape:cy="338.8963"
     inkscape:window-width="1366"
     inkscape:window-height="746"
     inkscape:window-x="1360"
     inkscape:window-y="0"
     inkscape:window-maximized="1"
     inkscape:current-layer="layer1"
     inkscape:lockguides="true" /><defs
     id="defs9"><rect
       x="587.26367"
       y="362.45731"
       width="66.575974"
       height="20.973427"
       id="rect1884" /></defs><g
     inkscape:label="Layer 1"
     inkscape:groupmode="layer"
     id="layer1"
     transform="translate(52.967708,-214.92146)"><g
       id="g884"
       transform="translate(21.357224,-0.63121469)"><path
         style="fill:none;stroke:#ffffff;stroke-width:1"
         d="m 33.243645,236.77402 c -2.057574,0.50217 -2.939822,1.45954 -3.886422,-1.37573 -1.306041,-3.91187 3.582466,-11.24416 6.081503,-6.44166 0.413563,0.79476 0.645859,1.69674 0.719715,2.58962 0.297735,3.59944 -0.405585,2.74495 -2.914796,5.22777 -0.658627,0.6517 -0.994904,1.72284 -1.853276,2.07169 -0.438973,0.17841 -1.063842,-0.38912 -1.133523,-0.85781 -0.219615,-1.47714 0.227896,-2.97805 0.341844,-4.46708"
         id="path468" /><path
         style="fill:none;stroke:#ffffff;stroke-width:1"
         d="m 48.231471,225.20169 c 1.831591,4.40724 1.41015,2.68594 2.195123,7.73647 0.266589,1.71524 1.074217,5.19792 -0.323876,6.65206 -1.159153,1.20562 -1.616977,-2.51696 -1.205526,-5.422 0.284652,-2.00978 1.331478,-4.66954 2.393042,-6.34455 1.006536,-1.58819 3.830611,-4.47284 5.307796,-1.97458"
         id="path470" /><path
         style="fill:none;stroke:#ffffff;stroke-width:1"
         d="m 75.904101,218.85715 c 1.015651,3.11 2.619989,5.87971 3.274653,9.12838 0.452988,2.2479 0.799494,4.99249 -0.05395,7.2509 -1.087025,2.87652 -3.910248,2.55441 -5.361829,0.0486 -3.284317,-5.66968 0.71342,-12.29089 6.837199,-7.65555"
         id="path472" /><path
         style="fill:none;stroke:#ffffff;stroke-width:1"
         d="m 9.38519,224.89923 c 0.5788289,2.14729 -0.3501099,4.11272 -1.1155521,6.11796 -1.3152517,3.44558 -2.7716083,6.96218 -3.760466,10.5203 -0.1509139,0.54302 0.5320019,-0.99667 0.7376834,-1.5214 0.5380329,-1.37261 1.0544863,-2.75391 1.5473733,-4.14338 0.9625753,-2.71353 1.8989887,-5.68443 2.3570591,-8.52954 0.1300851,-0.80796 -0.5773631,-2.55153 0.2339023,-2.44394 1.199938,0.15915 5.382008,7.60289 6.099474,8.6752 0.155519,0.23245 0.65142,1.44374 0.953613,1.6185 0.243105,0.14059 0.429462,-2.28604 0.449832,-2.46012 0.237783,-2.03223 0.295788,-4.09198 0.575746,-6.11796 2.718771,-19.67494 -0.195775,2.3068 1.439426,-8.54572 0.04634,-0.30754 0.46912,-2.87445 -0.737724,-1.7318"
         id="path474" /></g><g
       id="g578"
       transform="translate(-0.05395198,13.465976)"><path
         style="fill:none;stroke:#ffffff;stroke-width:1"
         d="m -29.389428,270.78394 c 0.03393,-0.32808 0.429878,-0.9503 0.1018,-0.98423 -0.328078,-0.0339 -0.117787,0.65479 -0.1018,0.98423 0.03094,0.63762 0.219368,1.26182 0.24175,1.89979 0.09218,2.62737 -0.101216,5.40962 -0.24175,8.0341 -0.03765,0.70309 -0.116019,1.40344 -0.165393,2.1058 -0.01848,0.26288 0.106818,1.00976 -0.03815,0.78968 -0.203728,-0.30929 -0.110262,-0.73246 -0.165393,-1.09869"
         id="path478" /><path
         style="fill:none;stroke:#ffffff;stroke-width:1"
         d="m -30.8907,274.99554 c -0.02969,-1.28942 -0.377293,-2.61112 -0.08906,-3.86827 0.514119,-2.24238 2.682779,-4.50512 4.503844,-2.0028 1.935274,2.65927 4.312014,9.03248 2.900771,12.32581 -0.409803,0.95633 -1.046699,1.8503 -1.844793,2.51781 -0.966988,0.80876 -4.691144,2.53148 -5.254479,0.0114 -0.08099,-0.36232 0.161167,-0.72483 0.24175,-1.08724"
         id="path480" /></g><path
       style="fill:none;stroke:#ffffff;stroke-width:1"
       d="m -29.209828,310.97379 c 0.428331,1.35047 0.915168,2.68375 1.284993,4.05139 0.65453,2.42049 0.819262,3.32985 0.636129,5.72228 -0.02409,0.31472 0.0048,1.11269 -0.241721,0.91557 -0.461816,-0.36927 -0.06679,-3.38691 0.07633,-3.99416 0.273432,-1.16017 0.613718,-2.32061 1.145043,-3.38759 0.799054,-1.60464 4.776009,-6.11251 5.77613,-2.27747"
       id="path482" /><path
       style="fill:none;stroke:#ffffff;stroke-width:1"
       d="m -31.05071,358.58174 c -1.095167,1.16372 -3.691949,5.24344 -1.959301,6.53485 2.851698,2.12547 8.333657,-2.17896 7.061094,-5.41328 -0.458036,-1.16414 -2.042326,-0.84438 -1.284993,1.60224 0.41904,1.35374 1.343304,3.59125 1.921122,4.87539 1.084501,2.41018 3.418572,5.8163 2.811736,8.67498 -0.608549,2.86675 -4.642724,6.05048 -7.328287,3.43338 -0.746833,-0.7278 -0.819901,-2.42691 -0.941471,-3.35326"
       id="path486" /><path
       style="fill:none;stroke:#ffffff;stroke-width:1"
       d="m -27.221174,394.42615 c -0.576772,0.0648 -1.217302,0.466 -1.730315,0.19454 -1.372651,-0.72632 -1.887123,-3.7708 -1.984714,-4.84104 -0.161073,-1.7664 -0.002,-7.223 3.002543,-7.17575 2.871079,0.0451 4.727656,3.63596 5.356251,5.95118 0.532759,1.96224 0.471669,3.84886 -0.661572,5.5964 -1.132965,1.74711 -4.41527,3.12704 -5.101793,0.12588 -0.330556,-1.44503 -0.161167,-2.96033 -0.241751,-4.44049"
       id="path488" /><path
       style="fill:none;stroke:#ffffff;stroke-width:1"
       d="m -34.592975,423.24997 c 0.341724,-1.90238 3.350109,-11.72773 6.424965,-9.43035 1.728999,1.29182 2.426024,6.50787 3.613258,8.68642"
       id="path490" /><path
       style="fill:none;stroke:#ffffff;stroke-width:1"
       d="m -30.898053,339.10254 c 0.135714,-0.54934 0.107581,-1.16796 0.407143,-1.64802 0.509445,-0.81641 2.542438,-1.1292 2.913478,-1.7968 0.468069,-0.84218 -2.728272,1.25126 -2.900771,1.56791 -0.306694,0.56298 -0.03158,1.36675 -0.41985,1.87691 -0.433461,0.56954 -1.363539,0.56891 -1.844794,1.09868 -0.836699,0.92104 -2.167735,4.45504 -0.966914,5.64217 0.580968,0.57434 1.96269,0.27647 2.455479,0 2.180292,-1.2232 4.301642,-2.83354 4.478401,-5.50484 0.06699,-1.0124 -0.962308,-4.08903 -1.412236,-3.76526 -0.415825,0.29923 0.194009,2.07329 0.267193,2.32325 0.463526,1.58315 1.796391,9.62982 4.961843,10.74645"
       id="path492" /><path
       style="fill:none;stroke:#ffffff;stroke-width:1"
       d="m 102.99163,243.8206 c 0,-1.5617 -4.207727,-1.07321 -4.516162,-1.06821 -7.071979,0.10782 -14.117934,0.64692 -21.195287,0.5341 -4.296293,-0.0685 -8.580154,-0.31045 -12.882718,-0.27515 -4.573775,0.0375 -9.139468,0.37236 -13.71038,0.50174 -4.041476,0.11446 -8.085751,-0.0185 -12.127024,0.16186 -9.270036,0.41375 -18.517224,1.53365 -27.798585,1.45665 -1.8701382,-0.0155 -3.7137575,0.32589 -5.5777179,0.437 -2.9681329,0.17704 -5.93668031,-0.003 -8.9063657,0.17804 -1.7584412,0.10723 -4.0483509,0.79682 -5.7576278,0.56647 -0.8601846,-0.11592 -1.6313296,-0.59345 -2.4469936,-0.89018 0.104595,5.76154 -0.290227,11.57239 -0.01801,17.33422 0.175074,3.70569 0.674517,7.36022 0.737725,11.07059 0.135474,7.95247 0.209435,15.90468 0.305864,23.85679 0.04163,3.43316 -0.08691,6.89237 0.05399,10.32608 0.189291,4.61288 0.538326,9.14015 0.485772,13.77349 -0.118339,10.43328 -1.979474,21.25175 0.08997,31.59325 0.268047,0.97077 0.5937085,1.92745 0.8041395,2.91231 0.4774741,2.2347 0.2032063,7.44736 0.2158897,9.93763 0.022326,4.38355 0.1649107,8.83468 -0.1259152,13.20703 -0.2462015,3.70145 -0.722929,7.4035 -1.025578,11.10296 -0.294563,3.60062 -0.388227,7.2343 -0.287893,10.844 0.02085,0.75015 0.516676,4.37157 0.7017021,2.9295"
       id="path548" /><path
       style="fill:none;stroke:#ffffff;stroke-width:1"
       d="m -40.532481,280.03672 c 0.76977,0.11001 1.885171,0.34938 2.752858,0.29133 1.618447,-0.10828 3.156887,-0.6362 4.768031,-0.80925 4.0183,-0.43159 8.128166,-0.31813 12.163007,-0.46937 2.158137,-0.0809 4.284532,-0.56648 6.44136,-0.56648 2.617009,0 5.2457811,-0.0317 7.8627759,0 2.2489048,0.0272 4.478116,0.33989 6.72925363,0.33989 7.65821497,0 15.25289147,-0.4254 22.92260647,-0.1133 5.245309,0.21345 10.413304,0.68734 15.653549,0.71215 8.877538,0.042 17.751068,-0.42081 26.629079,-0.42081 7.923633,0 15.906255,0.47371 23.822229,0.24277 11.332282,-0.33061 22.612162,-0.72182 33.916072,-1.60232 1.14562,-0.0892 10.77766,-1.79854 10.77766,1.16533"
       id="path550" /><path
       style="fill:none;stroke:#ffffff;stroke-width:1"
       d="m -46.110201,306.17561 c 0.869644,-0.027 1.742993,0.004 2.608932,-0.0809 2.22165,-0.21707 4.404139,-0.9123 6.603257,-1.27863 2.874077,-0.47876 5.879504,-0.27745 8.780408,-0.58266 2.696875,-0.28373 5.379061,-0.76946 8.096677,-0.79307 2.662509,-0.0231 5.327987,0.53556 7.988732,0.6474 3.3850594,0.14229 6.7657731,-0.0129 10.1478328,0.1133 2.83941176,0.10593 5.6692895,0.37293 8.510526,0.46937 6.7499332,0.22913 13.4936762,0.15977 20.2416722,0.33989 13.913027,0.37136 27.840355,0.63122 41.760875,0.63122 10.676705,0 21.350846,-0.27552 32.026849,0.0162 5.79498,0.15833 11.5819,0.50964 17.38087,0.55029 5.79806,0.0406 11.6004,-0.21215 17.39888,-0.24277 2.09753,-0.0111 3.59437,-0.006 5.72169,-0.0971 1.29049,-0.0551 2.5767,-0.2266 3.86837,-0.2266 0.16335,0 0.57837,-0.0698 0.48577,0.0647 -0.14557,0.21157 -0.47976,0.18343 -0.71963,0.27515"
       id="path554" /><path
       style="fill:none;stroke:#ffffff;stroke-width:1"
       d="m -46.775963,329.69252 c 0.515791,0.0809 1.025746,0.22054 1.547373,0.24276 2.604972,0.111 5.37187,-0.60134 7.934739,-0.92253 3.397756,-0.42582 6.815874,-0.49539 10.219836,-0.84163 3.179156,-0.32337 6.294048,-1.04469 9.464101,-1.42428 5.670949,-0.67907 11.4919278,-0.89019 17.20096082,-0.89019 11.13018218,0 22.30793318,0.46457 33.41228618,1.19771 5.736434,0.37873 11.389244,1.29394 17.146969,1.63469 16.950374,1.00313 33.914489,1.89462 50.901098,1.69943 11.85969,-0.13627 23.76506,-0.20701 35.60745,-0.89018 5.97296,-0.34457 11.95709,-0.85275 17.9386,-1.00348 2.40936,-0.0607 5.05558,-0.27745 7.46694,0.0324"
       id="path556" /><path
       style="fill:none;stroke:#ffffff;stroke-width:1"
       d="m -52.737104,355.06009 c 2.09097,-1.08687 4.408246,-1.46665 6.747223,-1.5214 4.746843,-0.11111 9.559035,-0.20539 14.304136,-0.16184 2.934424,0.0269 5.844902,0.4751 8.780409,0.51791 7.284353,0.10625 14.6002929,-0.37161 21.8790186,-0.61502 5.7396126,-0.19195 11.4787584,0.0354 17.2189304,-0.0162 16.429165,-0.14777 32.846333,-1.45988 49.281805,-1.05203 16.175026,0.40139 32.306675,1.69118 48.490092,1.42429 6.00309,-0.099 12.04384,-0.28594 18.02858,-0.77689 5.31242,-0.43579 10.57793,-1.19423 15.88753,-1.63469 1.844,-0.15297 16.1673,-1.76637 18.49642,-0.66359"
       id="path558" /><path
       style="fill:none;stroke:#ffffff;stroke-width:1"
       d="m -49.066614,377.71921 c 3.269543,0.18965 6.562243,-0.13597 9.823998,-0.40466 5.195716,-0.42799 10.289429,-1.64692 15.49161,-2.08788 21.3336111,-1.80822 42.648899,-3.57424 64.01776,-4.93643 9.686597,-0.61749 19.366021,-1.64495 29.076076,-1.86128 3.829174,-0.0853 7.651501,0.0725 11.479273,0.0647 5.015836,-0.0101 9.938422,-0.13485 14.951887,0.1133 4.24357,0.21004 8.50088,0.32138 12.73875,0.63121 2.02126,0.14777 3.45376,0.36388 5.46978,0.33989 6.98605,-0.0831 13.88484,-1.35614 20.87145,-1.55377 3.74393,-0.10591 6.17244,0.0515 9.89596,0.59885 1.4139,0.20785 2.78957,0.65409 4.21021,0.80925 2.14365,0.23413 4.30625,0.23739 6.45938,0.35608"
       id="path560" /><path
       style="fill:none;stroke:#ffffff;stroke-width:1"
       d="m 21.217744,233.30612 c 0.312859,3.28688 0.439296,6.668 0.143928,9.97001 -0.324829,3.63134 -0.657159,7.30754 -1.115552,10.92492 -0.361905,2.85592 -1.040778,5.64763 -1.223497,8.52953 -0.485989,7.66518 -0.617437,15.45245 -0.467802,23.12847 0.165095,8.46915 1.281663,16.73897 2.015173,25.1516 0.293015,3.36059 0.245578,6.73907 0.521795,10.09948 0.479142,5.82914 1.21838,11.63734 1.871207,17.4475 1.137447,10.12331 1.046647,20.36388 1.601365,30.52506 0.376578,6.8981 0.67814,13.79814 0.953614,20.7007 0.205419,5.1472 0.111881,2.23403 0.125957,8.9018 0.0032,1.50225 0.096,4.45069 -0.143968,5.6162"
       id="path562" /><path
       style="fill:none;stroke:#ffffff;stroke-width:1"
       d="m 41.743431,230.3794 c 0.266448,4.47591 0.380931,8.95104 0.449791,13.43362 0.10949,7.1276 -0.350334,14.26595 -0.251872,21.39665 0.09568,6.92911 0.498303,13.92109 0.809649,20.84638 0.616579,13.71466 2.224629,27.36773 2.680893,41.09388 0.159504,4.79846 -0.192127,9.57627 -0.2339,14.37235 -0.04265,4.89593 0.09928,9.80743 0.359855,14.69605 0.10737,2.01431 0.351888,4.01427 0.539766,6.02085 0.273772,2.92394 0.196379,5.86953 0.593756,8.7885 0.249886,1.83555 0.885365,3.57495 1.133565,5.40579 0.332751,2.45451 0.04445,4.96623 0.287854,7.42897 0.116348,1.17721 0.486817,2.378 0.557776,3.52832 0.471096,1.22931 1.090049,2.41175 1.413288,3.68794 0.528032,2.08474 0.249023,4.29395 0.359857,6.44166 0.222395,4.30949 0.416982,8.63071 0.773666,12.93188 0.206236,2.48697 0.193767,5.50592 1.835266,7.50987"
       id="path568" /><path
       style="fill:none;stroke:#ffffff;stroke-width:1"
       d="m 65.995192,233.2563 c -0.190476,1.38909 -0.261847,2.79213 -0.161938,4.19193 0.08977,1.2578 0.429609,2.49598 0.557736,3.75494 0.416439,4.09188 0.850766,8.28943 1.025618,12.39776 0.100052,2.35085 -0.13866,4.67855 -0.125955,7.02432 0.02948,5.44274 0.331317,10.86671 0.179906,16.31456 -0.113072,4.06846 -0.777729,8.2499 -0.665721,12.31683 0.219927,7.9852 0.581885,16.03542 1.043591,24.01865 0.177636,3.07145 0.823799,6.09478 0.989595,9.16076 0.143936,2.6617 0.06514,5.33652 0.269883,7.99542 0.561461,7.29147 1.443416,14.56984 1.997162,21.86603 0.568537,7.49108 0.908971,14.99837 1.349454,22.49724 0.23975,4.08158 0.676434,8.15595 0.935601,12.23594 0.287341,4.52344 0.124521,9.08338 0.917634,13.56307 0.328133,1.85338 0.736981,3.69157 1.115552,5.53532 0.215193,1.04801 0.45703,2.09052 0.66572,3.13989 0.02537,0.12753 0.136316,0.47117 0.03598,0.38843 -0.159449,-0.13144 -0.167942,-0.37764 -0.251913,-0.56647"
       id="path572" /><path
       style="fill:none;stroke:#ffffff;stroke-width:1"
       d="m 91.148864,225.84354 c -0.298876,6.1881 -1.003628,12.36167 -0.64775,18.56428 0.19871,3.46337 0.620996,6.65164 0.64775,10.09948 0.05975,7.69958 -1.317458,15.3378 -1.583354,23.03135 -0.319677,9.24966 0.205735,18.57489 0.84567,27.80596 0.446248,6.43717 1.042431,12.99638 2.14109,19.35735 0.745887,4.3185 1.708097,8.58979 2.429023,12.91569 1.535787,9.21546 2.392624,18.64615 3.184676,27.9516 1.036473,12.177 0.13788,24.21713 0.935646,36.30314 0.228632,3.46376 1.849125,7.86905 2.644915,10.69832"
       id="path574" /><path
       style="fill:none;stroke:#ffffff;stroke-width:1"
       d="m -3.161362,258.75385 c -2.8035241,-0.27741 -3.1340329,-0.90358 -3.2026891,4.36997 -0.073905,5.67671 10.7755308,2.76922 12.2889633,-1.65087 1.4866726,-4.34194 -5.72171533,-4.60512 -7.5928539,-4.41853 -0.7504068,0.0748 -0.9956133,1.13296 -1.4934203,1.69943 z"
       id="path676" /><path
       style="fill:none;stroke:#ffffff;stroke-width:1"
       d="m 30.304917,256.30991 c -0.976731,-3.37141 -3.156527,0.3827 -3.832429,1.6347 -0.489982,0.90761 -0.892524,1.87121 -1.169503,2.86475 -0.671828,2.40989 -0.304057,4.18182 1.871204,6.10177 1.422684,1.25571 7.340878,-0.173 7.8988,-1.92603 0.655801,-2.06057 0.909481,-4.36918 0.413808,-6.47402 -0.239691,-1.01783 -1.448573,-1.59812 -2.411013,-2.00695 -0.852191,-0.362 -1.847244,-0.12948 -2.770867,-0.19422 z"
       id="path680" /><path
       style="fill:none;stroke:#ffffff;stroke-width:1"
       d="m 54.23509,257.34576 c -0.539779,-0.30213 -1.064004,-1.17885 -1.619335,-0.90637 -3.987107,1.95633 -7.007315,11.93791 -1.475369,13.85442 6.367819,2.2061 11.609308,-8.58286 7.70084,-13.1261 -2.434865,-2.8303 -5.45171,-0.14624 -5.811623,2.57343 -0.05493,0.41512 0.503799,0.66899 0.755698,1.00348"
       id="path682" /><path
       style="fill:none;stroke:#ffffff;stroke-width:1"
       d="m 83.707003,252.79775 c -3.757702,0.48288 -4.872114,-0.0285 -6.549305,5.76188 -0.741487,2.55993 -1.326833,5.69447 0.01802,7.99543 1.660924,2.84176 8.205361,0.88174 9.230201,-1.37573 1.242261,-2.73641 3.911047,-14.70388 -5.433753,-12.75384 -1.913181,0.39924 -0.923623,3.7981 -1.385435,5.69715"
       id="path684" /><path
       style="fill:none;stroke:#ffffff;stroke-width:1"
       d="m 0.20326487,286.68929 c -0.57576005,0.69056 -1.39465237,1.23638 -1.72728017,2.07169 -0.758589,1.90499 -2.4700251,9.32372 1.70930993,9.61393 1.06224807,0.0738 2.21539357,-0.39892 2.98675867,-1.13295 2.7032495,-2.57243 3.424202,-5.17579 2.1051483,-8.64284 -0.3565842,-0.93726 -1.0946659,-1.86409 -2.0331853,-2.21735 -0.9534493,-0.35888 -2.0261672,0.3996 -3.04075143,0.30752 -1.04308009,-0.0947 -1.97605067,-0.82015 -3.02274017,-0.85781 -0.6722864,-0.0242 -0.1141418,0.76625 0.6657207,2.20117"
       id="path686" /><path
       style="fill:none;stroke:#ffffff;stroke-width:1"
       d="m 2.6502588,311.04782 c -0.4558078,-0.81465 -0.6174478,-1.88811 -1.3674233,-2.44395 -0.40921649,-0.30328 -1.13861584,-0.0418 -1.49337949,0.3237 -2.64613471,2.72615 -5.15026241,8.06934 -1.27748981,11.24863 3.5170975,2.88731 9.4817363,-1.08579 9.9499138,-4.90407 0.3075649,-2.50839 -1.154258,-7.50863 -4.372194,-7.88214 -1.6936318,-0.19657 -3.41584989,0.17273 -5.0919067,0.48556 -0.7055805,0.1317 -2.0005281,1.53482 -0.4858131,0.0647"
       id="path688" /><path
       style="fill:none;stroke:#ffffff;stroke-width:1"
       d="m 3.579409,333.60273 c 1.9776953,0.90077 0.2782853,-2.05587 -0.1439264,-1.68324 -1.5430336,1.36182 -3.28167894,4.75083 -3.74245399,6.24743 -2.60580451,8.46369 6.70392409,10.63125 8.70840469,4.40235 0.7075593,-2.19874 0.762844,-8.26462 -1.1335226,-9.90527 -1.5004388,-1.29811 -2.8596087,-0.96987 -3.6885017,0.93873 -0.5194808,1.19615 -0.455794,2.56804 -0.6836913,3.85206"
       id="path690" /><path
       style="fill:none;stroke:#ffffff;stroke-width:1"
       d="m 3.0036627,357.07109 c -3.05492832,2.14327 -6.7741164,9.26725 -0.8096882,10.30989 5.2669101,0.92071 7.7134407,-3.46329 6.1174846,-7.97925 -0.2914412,-0.82466 -0.5501878,-1.75134 -1.2054866,-2.33064 -1.1527684,-1.01909 -2.5413917,-1.83072 -4.0123356,-2.2821 -0.3846734,-0.11804 -2.5357592,1.04607 -1.8172546,1.97458 0.3579011,0.46251 1.1515204,0.20501 1.7272804,0.30752 z"
       id="path696" /><path
       style="fill:none;stroke:#ffffff;stroke-width:1"
       d="m 4.5870175,380.66892 c 0.1019545,-0.96571 0.3967744,-1.93032 0.3058636,-2.89714 -0.083661,-0.88969 -1.2381579,-0.22598 -2.2130938,1.06823 -0.8184721,1.08651 -1.593683,2.23549 -2.10514824,3.49597 -0.94954962,2.3401 -1.86093386,4.73932 -2.24907476,7.23471 -0.6950797,4.46879 2.8000264,10.34534 7.9887325,8.01164 6.6842402,-3.00636 6.1708242,-9.50352 3.9943672,-15.32729 -0.3527533,-0.94387 -0.9690764,-2.01253 -1.9252012,-2.33064 -1.8859288,-0.62745 -3.9938483,-0.61073 -5.9555874,-0.29133 -0.6531811,0.10634 -2.54987631,1.56954 -2.30302668,2.73529 0.0596416,0.28165 0.44381393,0.36685 0.66572076,0.55028"
       id="path698" /><path
       style="fill:none;stroke:#ffffff;stroke-width:1"
       d="m 14.716836,380.66892 c -1.079555,0.98729 -2.305777,1.83496 -3.238669,2.96187 -0.973817,1.17632 -1.6132942,2.5934 -2.4289834,3.8844 -2.4929253,3.94566 -3.4166519,5.4882 -6.0275506,9.1122 -0.7819742,1.08543 -3.22273745,4.71586 -3.97635491,4.53184 -0.41964949,-0.10248 0.0359952,-0.86321 0.053993,-1.29482"
       id="path702" /><path
       style="fill:none;stroke:#ffffff;stroke-width:1"
       d="m 14.12308,354.10922 c -1.49338,1.11138 -3.058631,2.13218 -4.480137,3.33412 -3.9892631,3.37307 -8.0780148,7.15261 -11.6052313,11.05441 -0.2664518,0.29475 0.5517724,-0.57188 0.8276585,-0.85781"
       id="path704" /><path
       style="fill:none;stroke:#ffffff;stroke-width:1"
       d="m 14.105109,329.66976 c -18.1428212,14.5123 -12.4339377,8.93905 -18.6223769,15.03593"
       id="path706" /><path
       style="fill:none;stroke:#ffffff;stroke-width:1"
       d="m 11.028375,307.17251 c -2.7287586,4.39207 -6.9418516,7.40064 -10.95751901,10.5203 -1.19228369,0.92625 -2.41582329,1.81168 -3.63450919,2.70291 -0.3528484,0.25804 -0.6571811,0.85709 -1.0795707,0.74451 -0.3403219,-0.0907 0.3958384,-0.58266 0.5937576,-0.87399"
       id="path708" /><path
       style="fill:none;stroke:#ffffff;stroke-width:1"
       d="m -8.3119993,297.08794 c 0.4498041,0.12948 0.8900681,0.47841 1.349412,0.38845 4.7113671,-0.92268 14.331672,-8.36602 17.1649783,-10.27753"
       id="path710" /><path
       style="fill:none;stroke:#ffffff;stroke-width:1"
       d="m -9.3196067,273.44156 c 6.4886625,-8.1852 12.94172,-16.36908 19.6299427,-24.39091"
       id="path712" /><path
       style="fill:none;stroke:#ffffff;stroke-width:1"
       d="m 24.452534,275.64272 c 0.58777,-1.49442 1.125882,-3.00933 1.763303,-4.48326 1.360292,-3.14542 2.71649,-6.29567 4.228269,-9.37115 1.99979,-4.06828 5.186042,-8.4254 6.711241,-12.8024"
       id="path714" /><path
       style="fill:none;stroke:#ffffff;stroke-width:1"
       d="m 48.976467,277.7306 c 3.421928,-8.84564 7.559185,-17.44658 10.093881,-26.60826"
       id="path716" /><path
       style="fill:none;stroke:#ffffff;stroke-width:1"
       d="m 77.098968,276.07972 c 0.03598,-0.57187 -0.09439,-1.17952 0.107945,-1.71562 2.286709,-6.05894 9.201018,-19.09614 11.011471,-23.16083 0.59513,-1.33614 0.791676,-2.8162 1.187517,-4.2243"
       id="path718" /><path
       style="fill:none;stroke:#ffffff;stroke-width:1"
       d="m 110.19598,257.30939 c -0.97231,-4.94406 -5.12318,0.9347 -5.27181,2.99424 -0.14819,2.0534 -0.008,4.2084 0.71967,6.13414 1.31284,3.47296 10.56087,-0.78508 11.31738,-4.54801 0.82796,-4.11833 -3.65408,-5.23432 -6.76524,-4.58037 -2.17442,0.45705 -4.21775,1.4561 -6.40537,1.8451 -0.34224,0.0609 1.68645,-1.48566 1.69134,-1.48902"
       id="path886" /><path
       style="fill:none;stroke:#ffffff;stroke-width:1"
       d="m 112.28312,248.68275 c -3.33645,8.61053 -6.31085,17.39841 -9.9319,25.89611"
       id="path888" /><path
       style="fill:none;stroke:#ffffff;stroke-width:1"
       d="m -47.923586,407.47069 c 3.394668,-1.46757 7.180943,-1.40382 10.813553,-1.58614 1.888552,-0.0948 3.812432,-0.44346 5.703676,-0.43699 2.041217,0.007 3.956162,0.35935 5.973558,0.51792 2.414082,0.18975 4.836404,0.0341 7.251007,0.19422 1.472851,0.0977 2.93583,0.31638 4.408218,0.42082 5.9727196,0.42365 12.0405255,0.47218 18.0285781,0.56647 4.9323412,0.0777 9.8556469,0.38361 14.7899489,0.37226 10.140156,-0.0233 20.256367,-0.2587 30.389544,-0.58266 5.228487,-0.16716 10.460505,0.0555 15.689529,-0.0324 5.110364,-0.0859 10.217203,-0.25912 15.329715,-0.1133 6.079464,0.1734 12.1612,0.61271 18.24455,0.38844 6.297459,-0.23216 12.426199,-1.26326 18.640349,-2.21735 2.03767,-0.31286 5.77894,-0.93592 8.0067,-1.00347 0.94668,-0.0287 3.34905,0.53979 4.46221,-0.0324"
       id="path908" /><path
       style="fill:none;stroke:#ffffff;stroke-width:1"
       d="m -10.876792,401.09377 c 0.269727,9.96792 -1.005284,19.82948 -1.799243,29.74817 -0.443206,5.53683 -0.802272,11.19145 0.215889,16.6868"
       id="path912" /><path
       style="fill:none;stroke:#ffffff;stroke-width:1"
       d="m 26.044087,396.20588 c 0.06259,9.98542 -1.096378,19.82499 -2.554978,29.68342 -0.585875,3.95984 -1.293302,7.58177 -0.62974,11.49141"
       id="path914" /><path
       style="fill:none;stroke:#ffffff;stroke-width:1"
       d="m 6.3421406,417.94243 c -0.6537272,0.56648 -1.5508235,0.93794 -1.9611816,1.69943 -1.2629621,2.34364 -1.7803786,7.46592 -0.035981,9.77578 1.7183047,2.27531 5.4866222,0.85825 6.89119,-0.97109 1.05252,-1.37082 2.002239,-2.8826 2.518957,-4.53182 0.973188,-3.10615 -1.515255,-8.33789 -5.3438187,-6.24745 -1.1614335,0.63416 -4.7250879,5.78099 -3.5805163,6.26364 0.4959879,0.20915 0.6333808,-0.88106 0.8456295,-1.37574"
       id="path916" /><path
       style="fill:none;stroke:#ffffff;stroke-width:1"
       d="m 8.5372641,412.1158 c -0.2518992,-0.89557 0.1398746,-2.93861 -0.7556976,-2.68671 -0.8955696,0.2519 0.7556976,1.75639 0.7556976,2.68671 0,1.10277 -0.7316152,2.11834 -0.7556976,3.22085 -0.036761,1.68303 0.4263205,3.34058 0.5757465,5.01737 0.4530831,5.08421 0.567907,10.1949 1.0255779,15.2787 0.1449679,1.6103 0.3285199,3.222 0.6477501,4.80697 0.470562,2.33633 0.142753,2.41569 0.989597,1.92602"
       id="path918" /><path
       style="fill:none;stroke:#ffffff;stroke-width:1"
       d="m 50.388071,403.95854 c 1.005491,8.75141 1.26497,17.57813 1.115552,26.38166 -0.05697,3.35677 -0.417631,6.71171 -0.305864,10.0671 0.02289,0.6868 0.0259,7.53325 2.015173,9.32261"
       id="path920" /><path
       style="fill:none;stroke:#ffffff;stroke-width:1"
       d="m 73.34666,403.42443 c 2.529033,14.15043 -0.08358,28.85737 3.742494,42.80951"
       id="path922" /><path
       style="fill:none;stroke:#ffffff;stroke-width:1"
       d="m 101.21725,404.05565 c -0.15594,0.47476 -0.41027,0.92789 -0.4678,1.42428 -0.42992,3.70966 0.10643,7.67982 0.19792,11.39429 0.15906,6.45807 0.13502,7.00729 -0.17995,13.57927 -0.16082,3.35556 -1.18418,10.30385 -0.072,13.80587"
       id="path924" /><path
       style="fill:none;stroke:#ffffff;stroke-width:1"
       d="m 29.847845,288.87105 c -0.959604,0.42081 -2.074307,0.5911 -2.878814,1.26243 -0.674968,0.56324 -1.106795,1.42096 -1.349452,2.26591 -0.328973,1.14551 -0.604028,2.40231 -0.323877,3.56072 0.950617,3.93075 14.484646,-3.28502 10.957523,-6.68444 -0.571092,-0.55041 -1.457497,-0.72688 -2.249075,-0.77688 -4.620585,-0.29188 -4.136961,0.47718 -7.95275,2.88095 -0.678685,0.42753 -1.317911,0.97034 -2.087139,1.19769 -0.01574,0.005 1.239586,-1.23184 1.385435,-1.37573"
       id="path1000" /><path
       style="fill:none;stroke:#ffffff;stroke-width:1"
       d="m 30.207702,283.28719 c -0.259341,4.40937 -0.803984,8.79003 -1.439386,13.15847 -0.192593,1.32408 -1.264295,5.52338 -0.62974,7.12143"
       id="path1002" /><path
       style="fill:none;stroke:#ffffff;stroke-width:1"
       d="m 55.433376,288.30456 c -2.839852,-0.17219 -1.966193,-0.62229 -3.346656,3.90061 -2.973237,9.74142 7.284291,6.22112 10.471708,1.47285 0.516633,-0.76963 1.259713,-3.1198 -0.269883,-3.73876 -1.560423,-0.63144 -3.337229,-0.59617 -5.019942,-0.5503 -1.404707,0.0383 -2.735847,0.64333 -4.102312,0.97111"
       id="path1004" /><path
       style="fill:none;stroke:#ffffff;stroke-width:1"
       d="m 57.86236,282.81783 c -1.239179,7.23064 -0.920533,14.69483 -0.719715,22.01169"
       id="path1006" /><path
       style="fill:none;stroke:#ffffff;stroke-width:1"
       d="m 79.723409,288.77394 c -4.156448,-0.44468 -7.468878,9.48054 -1.583354,9.37115 2.458323,-0.0457 8.804526,-2.43742 7.934738,-6.37692 -0.635315,-2.87751 -3.593185,-4.09355 -6.351384,-2.99423 -0.90869,0.36217 -5.857997,5.42879 -3.670493,3.65782"
       id="path1008" /><path
       style="fill:none;stroke:#ffffff;stroke-width:1"
       d="m 82.170403,281.10221 c 0.192296,8.06571 -1.160767,16.06435 -2.321039,24.01865"
       id="path1010" /><path
       style="fill:none;stroke:#ffffff;stroke-width:1"
       d="m 114.52113,287.65716 c 0.45204,-0.35151 -1.24566,10.52303 -0.8277,10.11568 0.20291,-0.19776 0.24893,-0.51552 0.3059,-0.79307 0.35985,-1.98537 0.71969,-3.97074 1.07953,-5.95611 -0.18591,-1.12217 -0.64015,-2.23203 -0.55773,-3.3665 0.061,-0.83947 0.75157,-1.51823 0.97162,-2.33064 0.0754,-0.27817 0.146,-0.99401 -0.10798,-0.85781 -2.11022,1.13162 -3.47609,2.6534 -4.98396,4.3376 -0.30867,0.34475 -1.91435,1.82056 -0.32388,0.84162"
       id="path1016" /><path
       style="fill:none;stroke:#ffffff;stroke-width:1"
       d="m 108.43962,299.58556 c 1.8972,-0.62435 12.17687,-6.72905 12.46891,-2.13642"
       id="path1018" /><path
       style="fill:none;stroke:#ffffff;stroke-width:1"
       d="m 22.075043,293.04679 c -1.049565,-0.41001 -2.046798,-0.99441 -3.148695,-1.23006 -0.915175,-0.19571 -1.853959,0.28166 -2.78888,0.32371 -0.449363,0.0202 -0.899673,0.006 -1.349454,0 -0.755254,-0.01 -1.512523,-0.0421 -2.267046,-0.0809 -0.221874,-0.0114 -0.779819,0.15826 -0.66572,-0.0324 0.08958,-0.14967 0.191767,-0.29142 0.287853,-0.437 0.814716,-1.23436 1.710523,-2.41148 2.554981,-3.62546 0.0096,-0.0138 1.501915,-1.8698 1.151532,-2.18498 -0.371882,-0.33452 -5.044437,4.10791 -4.858006,5.58385 0.127939,1.01286 2.815333,2.6719 3.094704,2.96187 0.979853,1.01702 1.274249,2.59412 1.637348,3.9006"
       id="path1100" /><path
       style="fill:none;stroke:#ffffff;stroke-width:1"
       d="m 47.300677,293.61327 c -2.043467,-0.64123 -0.979675,-0.54212 -2.986757,-0.30752 -0.52102,0.0609 -1.778145,0.23606 -2.482977,0.2266 -0.619873,-0.008 -1.196273,-0.22505 -1.799283,-0.3237 -0.809339,-0.1324 -1.097214,0.18587 -0.233902,-0.46937 0.843182,-0.63996 2.747288,-2.33766 2.195124,-3.62546 -0.29168,-0.68027 -2.143483,-0.8621 -2.087137,0.0162 0.06047,0.94259 0.861857,1.81361 1.241467,2.63816 1.048105,2.27659 1.414421,5.92082 3.706472,7.36421"
       id="path1102" /><path
       style="fill:none;stroke:#ffffff;stroke-width:1"
       d="m 71.860633,292.86876 c -2.34437,-0.72851 -1.337027,-0.76141 -3.274653,-0.35607 -1.171736,0.24512 -0.906274,0.24021 -2.123159,0.38844 -0.380741,0.0464 -0.802939,0.10532 -1.169506,-0.0486 -0.897541,-0.37678 0.348456,-0.47791 0.881652,-0.93873 0.750541,-0.64865 2.600923,-1.9349 2.716877,-2.97805 0.08881,-0.79895 -1.685362,0.55034 -1.799286,0.71214 -0.871572,1.2379 1.27004,6.99993 2.087179,7.89831 0.297693,0.32729 0.408874,-0.1993 0.449792,-0.29132"
       id="path1104" /><path
       style="fill:none;stroke:#ffffff;stroke-width:1"
       d="m 97.176241,287.44677 c -0.284451,-0.41579 -1.002787,-1.50562 -1.439429,-2.05551 -0.954516,-1.20208 -2.170856,-2.1741 -3.058721,-3.43124 -0.530153,-0.75065 -0.871958,-1.59988 -1.385435,-2.36302 -0.620641,-0.92241 -1.412292,-1.68925 -2.033185,-2.6058 -0.547158,-0.8077 -0.916704,-1.72094 -1.52936,-2.49249 -0.908209,-1.14376 -2.053913,-1.91232 -3.112715,-2.86477 -0.07049,-0.0634 0.1446,-0.12999 0.2339,-0.16184 0.777071,-0.27719 1.559795,-0.53827 2.339049,-0.80926 0.957373,-0.33293 8.403524,-2.81195 3.562546,-1.60232 -0.752213,0.18796 -1.861064,0.24026 -2.483014,0.77689 -1.623457,1.40073 -2.595013,6.36304 -2.96875,8.07635 -0.108355,0.49672 -0.395663,1.59108 0.107945,1.52139 0.36666,-0.0507 0.707512,-1.07529 0.719714,-1.10058"
       id="path1112" /></g></svg>
