<?xml version="1.0" encoding="UTF-8" standalone="no"?>
<!-- Created with Inkscape (http://www.inkscape.org/) -->

<svg
   width="219.55872mm"
   height="235.18019mm"
   viewBox="0 0 219.55871 235.1802"
   version="1.1"
   id="svg12"
   inkscape:version="1.2.1 (9c6d41e410, 2022-07-14, custom)"
   sodipodi:docname="llc_step_2.svg"
   xml:space="preserve"
   xmlns:inkscape="http://www.inkscape.org/namespaces/inkscape"
   xmlns:sodipodi="http://sodipodi.sourceforge.net/DTD/sodipodi-0.dtd"
   xmlns="http://www.w3.org/2000/svg"
   xmlns:svg="http://www.w3.org/2000/svg"><sodipodi:namedview
     id="namedview14"
     pagecolor="#000000"
     bordercolor="#ffffff"
     borderopacity="1"
     inkscape:showpageshadow="0"
     inkscape:pageopacity="0"
     inkscape:pagecheckerboard="0"
     inkscape:deskcolor="#000000"
     inkscape:document-units="mm"
     showgrid="true"
     inkscape:zoom="0.79080238"
     inkscape:cx="431.2076"
     inkscape:cy="520.98983"
     inkscape:window-width="1366"
     inkscape:window-height="746"
     inkscape:window-x="1360"
     inkscape:window-y="0"
     inkscape:window-maximized="1"
     inkscape:current-layer="layer1"
     inkscape:lockguides="true" /><defs
     id="defs9"><rect
       x="587.26367"
       y="362.45731"
       width="66.575974"
       height="20.973427"
       id="rect1884" /></defs><g
     inkscape:label="Layer 1"
     inkscape:groupmode="layer"
     id="layer1"
     transform="translate(52.967708,-214.92146)"><g
       id="g884"
       transform="translate(21.357224,-0.63121469)"><path
         style="fill:none;stroke:#ffffff;stroke-width:1"
         d="m 33.243645,236.77402 c -2.057574,0.50217 -2.939822,1.45954 -3.886422,-1.37573 -1.306041,-3.91187 3.582466,-11.24416 6.081503,-6.44166 0.413563,0.79476 0.645859,1.69674 0.719715,2.58962 0.297735,3.59944 -0.405585,2.74495 -2.914796,5.22777 -0.658627,0.6517 -0.994904,1.72284 -1.853276,2.07169 -0.438973,0.17841 -1.063842,-0.38912 -1.133523,-0.85781 -0.219615,-1.47714 0.227896,-2.97805 0.341844,-4.46708"
         id="path468" /><path
         style="fill:none;stroke:#ffffff;stroke-width:1"
         d="m 48.231471,225.20169 c 1.831591,4.40724 1.41015,2.68594 2.195123,7.73647 0.266589,1.71524 1.074217,5.19792 -0.323876,6.65206 -1.159153,1.20562 -1.616977,-2.51696 -1.205526,-5.422 0.284652,-2.00978 1.331478,-4.66954 2.393042,-6.34455 1.006536,-1.58819 3.830611,-4.47284 5.307796,-1.97458"
         id="path470" /><path
         style="fill:none;stroke:#ffffff;stroke-width:1"
         d="m 75.904101,218.85715 c 1.015651,3.11 2.619989,5.87971 3.274653,9.12838 0.452988,2.2479 0.799494,4.99249 -0.05395,7.2509 -1.087025,2.87652 -3.910248,2.55441 -5.361829,0.0486 -3.284317,-5.66968 0.71342,-12.29089 6.837199,-7.65555"
         id="path472" /><path
         style="fill:none;stroke:#ffffff;stroke-width:1"
         d="m 9.38519,224.89923 c 0.5788289,2.14729 -0.3501099,4.11272 -1.1155521,6.11796 -1.3152517,3.44558 -2.7716083,6.96218 -3.760466,10.5203 -0.1509139,0.54302 0.5320019,-0.99667 0.7376834,-1.5214 0.5380329,-1.37261 1.0544863,-2.75391 1.5473733,-4.14338 0.9625753,-2.71353 1.8989887,-5.68443 2.3570591,-8.52954 0.1300851,-0.80796 -0.5773631,-2.55153 0.2339023,-2.44394 1.199938,0.15915 5.382008,7.60289 6.099474,8.6752 0.155519,0.23245 0.65142,1.44374 0.953613,1.6185 0.243105,0.14059 0.429462,-2.28604 0.449832,-2.46012 0.237783,-2.03223 0.295788,-4.09198 0.575746,-6.11796 2.718771,-19.67494 -0.195775,2.3068 1.439426,-8.54572 0.04634,-0.30754 0.46912,-2.87445 -0.737724,-1.7318"
         id="path474" /></g><g
       id="g578"
       transform="translate(-0.05395198,13.465976)"><path
         style="fill:none;stroke:#ffffff;stroke-width:1"
         d="m -29.389428,270.78394 c 0.03393,-0.32808 0.429878,-0.9503 0.1018,-0.98423 -0.328078,-0.0339 -0.117787,0.65479 -0.1018,0.98423 0.03094,0.63762 0.219368,1.26182 0.24175,1.89979 0.09218,2.62737 -0.101216,5.40962 -0.24175,8.0341 -0.03765,0.70309 -0.116019,1.40344 -0.165393,2.1058 -0.01848,0.26288 0.106818,1.00976 -0.03815,0.78968 -0.203728,-0.30929 -0.110262,-0.73246 -0.165393,-1.09869"
         id="path478" /><path
         style="fill:none;stroke:#ffffff;stroke-width:1"
         d="m -30.8907,274.99554 c -0.02969,-1.28942 -0.377293,-2.61112 -0.08906,-3.86827 0.514119,-2.24238 2.682779,-4.50512 4.503844,-2.0028 1.935274,2.65927 4.312014,9.03248 2.900771,12.32581 -0.409803,0.95633 -1.046699,1.8503 -1.844793,2.51781 -0.966988,0.80876 -4.691144,2.53148 -5.254479,0.0114 -0.08099,-0.36232 0.161167,-0.72483 0.24175,-1.08724"
         id="path480" /></g><path
       style="fill:none;stroke:#ffffff;stroke-width:1"
       d="m -29.209828,310.97379 c 0.428331,1.35047 0.915168,2.68375 1.284993,4.05139 0.65453,2.42049 0.819262,3.32985 0.636129,5.72228 -0.02409,0.31472 0.0048,1.11269 -0.241721,0.91557 -0.461816,-0.36927 -0.06679,-3.38691 0.07633,-3.99416 0.273432,-1.16017 0.613718,-2.32061 1.145043,-3.38759 0.799054,-1.60464 4.776009,-6.11251 5.77613,-2.27747"
       id="path482" /><path
       style="fill:none;stroke:#ffffff;stroke-width:1"
       d="m -31.05071,358.58174 c -1.095167,1.16372 -3.691949,5.24344 -1.959301,6.53485 2.851698,2.12547 8.333657,-2.17896 7.061094,-5.41328 -0.458036,-1.16414 -2.042326,-0.84438 -1.284993,1.60224 0.41904,1.35374 1.343304,3.59125 1.921122,4.87539 1.084501,2.41018 3.418572,5.8163 2.811736,8.67498 -0.608549,2.86675 -4.642724,6.05048 -7.328287,3.43338 -0.746833,-0.7278 -0.819901,-2.42691 -0.941471,-3.35326"
       id="path486" /><path
       style="fill:none;stroke:#ffffff;stroke-width:1"
       d="m -27.221174,394.42615 c -0.576772,0.0648 -1.217302,0.466 -1.730315,0.19454 -1.372651,-0.72632 -1.887123,-3.7708 -1.984714,-4.84104 -0.161073,-1.7664 -0.002,-7.223 3.002543,-7.17575 2.871079,0.0451 4.727656,3.63596 5.356251,5.95118 0.532759,1.96224 0.471669,3.84886 -0.661572,5.5964 -1.132965,1.74711 -4.41527,3.12704 -5.101793,0.12588 -0.330556,-1.44503 -0.161167,-2.96033 -0.241751,-4.44049"
       id="path488" /><path
       style="fill:none;stroke:#ffffff;stroke-width:1"
       d="m -34.592975,423.24997 c 0.341724,-1.90238 3.350109,-11.72773 6.424965,-9.43035 1.728999,1.29182 2.426024,6.50787 3.613258,8.68642"
       id="path490" /><path
       style="fill:none;stroke:#ffffff;stroke-width:1"
       d="m -30.898053,339.10254 c 0.135714,-0.54934 0.107581,-1.16796 0.407143,-1.64802 0.509445,-0.81641 2.542438,-1.1292 2.913478,-1.7968 0.468069,-0.84218 -2.728272,1.25126 -2.900771,1.56791 -0.306694,0.56298 -0.03158,1.36675 -0.41985,1.87691 -0.433461,0.56954 -1.363539,0.56891 -1.844794,1.09868 -0.836699,0.92104 -2.167735,4.45504 -0.966914,5.64217 0.580968,0.57434 1.96269,0.27647 2.455479,0 2.180292,-1.2232 4.301642,-2.83354 4.478401,-5.50484 0.06699,-1.0124 -0.962308,-4.08903 -1.412236,-3.76526 -0.415825,0.29923 0.194009,2.07329 0.267193,2.32325 0.463526,1.58315 1.796391,9.62982 4.961843,10.74645"
       id="path492" /><path
       style="fill:none;stroke:#ffffff;stroke-width:1"
       d="m 102.99163,243.8206 c 0,-1.5617 -4.207727,-1.07321 -4.516162,-1.06821 -7.071979,0.10782 -14.117934,0.64692 -21.195287,0.5341 -4.296293,-0.0685 -8.580154,-0.31045 -12.882718,-0.27515 -4.573775,0.0375 -9.139468,0.37236 -13.71038,0.50174 -4.041476,0.11446 -8.085751,-0.0185 -12.127024,0.16186 -9.270036,0.41375 -18.517224,1.53365 -27.798585,1.45665 -1.8701382,-0.0155 -3.7137575,0.32589 -5.5777179,0.437 -2.9681329,0.17704 -5.93668031,-0.003 -8.9063657,0.17804 -1.7584412,0.10723 -4.0483509,0.79682 -5.7576278,0.56647 -0.8601846,-0.11592 -1.6313296,-0.59345 -2.4469936,-0.89018 0.104595,5.76154 -0.290227,11.57239 -0.01801,17.33422 0.175074,3.70569 0.674517,7.36022 0.737725,11.07059 0.135474,7.95247 0.209435,15.90468 0.305864,23.85679 0.04163,3.43316 -0.08691,6.89237 0.05399,10.32608 0.189291,4.61288 0.538326,9.14015 0.485772,13.77349 -0.118339,10.43328 -1.979474,21.25175 0.08997,31.59325 0.268047,0.97077 0.5937085,1.92745 0.8041395,2.91231 0.4774741,2.2347 0.2032063,7.44736 0.2158897,9.93763 0.022326,4.38355 0.1649107,8.83468 -0.1259152,13.20703 -0.2462015,3.70145 -0.722929,7.4035 -1.025578,11.10296 -0.294563,3.60062 -0.388227,7.2343 -0.287893,10.844 0.02085,0.75015 0.516676,4.37157 0.7017021,2.9295"
       id="path548" /><path
       style="fill:none;stroke:#ffffff;stroke-width:1"
       d="m -40.532481,280.03672 c 0.76977,0.11001 1.885171,0.34938 2.752858,0.29133 1.618447,-0.10828 3.156887,-0.6362 4.768031,-0.80925 4.0183,-0.43159 8.128166,-0.31813 12.163007,-0.46937 2.158137,-0.0809 4.284532,-0.56648 6.44136,-0.56648 2.617009,0 5.2457811,-0.0317 7.8627759,0 2.2489048,0.0272 4.478116,0.33989 6.72925363,0.33989 7.65821497,0 15.25289147,-0.4254 22.92260647,-0.1133 5.245309,0.21345 10.413304,0.68734 15.653549,0.71215 8.877538,0.042 17.751068,-0.42081 26.629079,-0.42081 7.923633,0 15.906255,0.47371 23.822229,0.24277 11.332282,-0.33061 22.612162,-0.72182 33.916072,-1.60232 1.14562,-0.0892 10.77766,-1.79854 10.77766,1.16533"
       id="path550" /><path
       style="fill:none;stroke:#ffffff;stroke-width:1"
       d="m -46.110201,306.17561 c 0.869644,-0.027 1.742993,0.004 2.608932,-0.0809 2.22165,-0.21707 4.404139,-0.9123 6.603257,-1.27863 2.874077,-0.47876 5.879504,-0.27745 8.780408,-0.58266 2.696875,-0.28373 5.379061,-0.76946 8.096677,-0.79307 2.662509,-0.0231 5.327987,0.53556 7.988732,0.6474 3.3850594,0.14229 6.7657731,-0.0129 10.1478328,0.1133 2.83941176,0.10593 5.6692895,0.37293 8.510526,0.46937 6.7499332,0.22913 13.4936762,0.15977 20.2416722,0.33989 13.913027,0.37136 27.840355,0.63122 41.760875,0.63122 10.676705,0 21.350846,-0.27552 32.026849,0.0162 5.79498,0.15833 11.5819,0.50964 17.38087,0.55029 5.79806,0.0406 11.6004,-0.21215 17.39888,-0.24277 2.09753,-0.0111 3.59437,-0.006 5.72169,-0.0971 1.29049,-0.0551 2.5767,-0.2266 3.86837,-0.2266 0.16335,0 0.57837,-0.0698 0.48577,0.0647 -0.14557,0.21157 -0.47976,0.18343 -0.71963,0.27515"
       id="path554" /><path
       style="fill:none;stroke:#ffffff;stroke-width:1"
       d="m -46.775963,329.69252 c 0.515791,0.0809 1.025746,0.22054 1.547373,0.24276 2.604972,0.111 5.37187,-0.60134 7.934739,-0.92253 3.397756,-0.42582 6.815874,-0.49539 10.219836,-0.84163 3.179156,-0.32337 6.294048,-1.04469 9.464101,-1.42428 5.670949,-0.67907 11.4919278,-0.89019 17.20096082,-0.89019 11.13018218,0 22.30793318,0.46457 33.41228618,1.19771 5.736434,0.37873 11.389244,1.29394 17.146969,1.63469 16.950374,1.00313 33.914489,1.89462 50.901098,1.69943 11.85969,-0.13627 23.76506,-0.20701 35.60745,-0.89018 5.97296,-0.34457 11.95709,-0.85275 17.9386,-1.00348 2.40936,-0.0607 5.05558,-0.27745 7.46694,0.0324"
       id="path556" /><path
       style="fill:none;stroke:#ffffff;stroke-width:1"
       d="m -52.737104,355.06009 c 2.09097,-1.08687 4.408246,-1.46665 6.747223,-1.5214 4.746843,-0.11111 9.559035,-0.20539 14.304136,-0.16184 2.934424,0.0269 5.844902,0.4751 8.780409,0.51791 7.284353,0.10625 14.6002929,-0.37161 21.8790186,-0.61502 5.7396126,-0.19195 11.4787584,0.0354 17.2189304,-0.0162 16.429165,-0.14777 32.846333,-1.45988 49.281805,-1.05203 16.175026,0.40139 32.306675,1.69118 48.490092,1.42429 6.00309,-0.099 12.04384,-0.28594 18.02858,-0.77689 5.31242,-0.43579 10.57793,-1.19423 15.88753,-1.63469 1.844,-0.15297 16.1673,-1.76637 18.49642,-0.66359"
       id="path558" /><path
       style="fill:none;stroke:#ffffff;stroke-width:1"
       d="m -49.066614,377.71921 c 3.269543,0.18965 6.562243,-0.13597 9.823998,-0.40466 5.195716,-0.42799 10.289429,-1.64692 15.49161,-2.08788 21.3336111,-1.80822 42.648899,-3.57424 64.01776,-4.93643 9.686597,-0.61749 19.366021,-1.64495 29.076076,-1.86128 3.829174,-0.0853 7.651501,0.0725 11.479273,0.0647 5.015836,-0.0101 9.938422,-0.13485 14.951887,0.1133 4.24357,0.21004 8.50088,0.32138 12.73875,0.63121 2.02126,0.14777 3.45376,0.36388 5.46978,0.33989 6.98605,-0.0831 13.88484,-1.35614 20.87145,-1.55377 3.74393,-0.10591 6.17244,0.0515 9.89596,0.59885 1.4139,0.20785 2.78957,0.65409 4.21021,0.80925 2.14365,0.23413 4.30625,0.23739 6.45938,0.35608"
       id="path560" /><path
       style="fill:none;stroke:#ffffff;stroke-width:1"
       d="m 21.217744,233.30612 c 0.312859,3.28688 0.439296,6.668 0.143928,9.97001 -0.324829,3.63134 -0.657159,7.30754 -1.115552,10.92492 -0.361905,2.85592 -1.040778,5.64763 -1.223497,8.52953 -0.485989,7.66518 -0.617437,15.45245 -0.467802,23.12847 0.165095,8.46915 1.281663,16.73897 2.015173,25.1516 0.293015,3.36059 0.245578,6.73907 0.521795,10.09948 0.479142,5.82914 1.21838,11.63734 1.871207,17.4475 1.137447,10.12331 1.046647,20.36388 1.601365,30.52506 0.376578,6.8981 0.67814,13.79814 0.953614,20.7007 0.205419,5.1472 0.111881,2.23403 0.125957,8.9018 0.0032,1.50225 0.096,4.45069 -0.143968,5.6162"
       id="path562" /><path
       style="fill:none;stroke:#ffffff;stroke-width:1"
       d="m 41.743431,230.3794 c 0.266448,4.47591 0.380931,8.95104 0.449791,13.43362 0.10949,7.1276 -0.350334,14.26595 -0.251872,21.39665 0.09568,6.92911 0.498303,13.92109 0.809649,20.84638 0.616579,13.71466 2.224629,27.36773 2.680893,41.09388 0.159504,4.79846 -0.192127,9.57627 -0.2339,14.37235 -0.04265,4.89593 0.09928,9.80743 0.359855,14.69605 0.10737,2.01431 0.351888,4.01427 0.539766,6.02085 0.273772,2.92394 0.196379,5.86953 0.593756,8.7885 0.249886,1.83555 0.885365,3.57495 1.133565,5.40579 0.332751,2.45451 0.04445,4.96623 0.287854,7.42897 0.116348,1.17721 0.486817,2.378 0.557776,3.52832 0.471096,1.22931 1.090049,2.41175 1.413288,3.68794 0.528032,2.08474 0.249023,4.29395 0.359857,6.44166 0.222395,4.30949 0.416982,8.63071 0.773666,12.93188 0.206236,2.48697 0.193767,5.50592 1.835266,7.50987"
       id="path568" /><path
       style="fill:none;stroke:#ffffff;stroke-width:1"
       d="m 65.995192,233.2563 c -0.190476,1.38909 -0.261847,2.79213 -0.161938,4.19193 0.08977,1.2578 0.429609,2.49598 0.557736,3.75494 0.416439,4.09188 0.850766,8.28943 1.025618,12.39776 0.100052,2.35085 -0.13866,4.67855 -0.125955,7.02432 0.02948,5.44274 0.331317,10.86671 0.179906,16.31456 -0.113072,4.06846 -0.777729,8.2499 -0.665721,12.31683 0.219927,7.9852 0.581885,16.03542 1.043591,24.01865 0.177636,3.07145 0.823799,6.09478 0.989595,9.16076 0.143936,2.6617 0.06514,5.33652 0.269883,7.99542 0.561461,7.29147 1.443416,14.56984 1.997162,21.86603 0.568537,7.49108 0.908971,14.99837 1.349454,22.49724 0.23975,4.08158 0.676434,8.15595 0.935601,12.23594 0.287341,4.52344 0.124521,9.08338 0.917634,13.56307 0.328133,1.85338 0.736981,3.69157 1.115552,5.53532 0.215193,1.04801 0.45703,2.09052 0.66572,3.13989 0.02537,0.12753 0.136316,0.47117 0.03598,0.38843 -0.159449,-0.13144 -0.167942,-0.37764 -0.251913,-0.56647"
       id="path572" /><path
       style="fill:none;stroke:#ffffff;stroke-width:1"
       d="m 91.148864,225.84354 c -0.298876,6.1881 -1.003628,12.36167 -0.64775,18.56428 0.19871,3.46337 0.620996,6.65164 0.64775,10.09948 0.05975,7.69958 -1.317458,15.3378 -1.583354,23.03135 -0.319677,9.24966 0.205735,18.57489 0.84567,27.80596 0.446248,6.43717 1.042431,12.99638 2.14109,19.35735 0.745887,4.3185 1.708097,8.58979 2.429023,12.91569 1.535787,9.21546 2.392624,18.64615 3.184676,27.9516 1.036473,12.177 0.13788,24.21713 0.935646,36.30314 0.228632,3.46376 1.849125,7.86905 2.644915,10.69832"
       id="path574" /><path
       style="fill:none;stroke:#ffffff;stroke-width:1"
       d="m -3.161362,258.75385 c -2.8035241,-0.27741 -3.1340329,-0.90358 -3.2026891,4.36997 -0.073905,5.67671 10.7755308,2.76922 12.2889633,-1.65087 1.4866726,-4.34194 -5.72171533,-4.60512 -7.5928539,-4.41853 -0.7504068,0.0748 -0.9956133,1.13296 -1.4934203,1.69943 z"
       id="path676" /><path
       style="fill:none;stroke:#ffffff;stroke-width:1"
       d="m 30.304917,256.30991 c -0.976731,-3.37141 -3.156527,0.3827 -3.832429,1.6347 -0.489982,0.90761 -0.892524,1.87121 -1.169503,2.86475 -0.671828,2.40989 -0.304057,4.18182 1.871204,6.10177 1.422684,1.25571 7.340878,-0.173 7.8988,-1.92603 0.655801,-2.06057 0.909481,-4.36918 0.413808,-6.47402 -0.239691,-1.01783 -1.448573,-1.59812 -2.411013,-2.00695 -0.852191,-0.362 -1.847244,-0.12948 -2.770867,-0.19422 z"
       id="path680" /><path
       style="fill:none;stroke:#ffffff;stroke-width:1"
       d="m 54.23509,257.34576 c -0.539779,-0.30213 -1.064004,-1.17885 -1.619335,-0.90637 -3.987107,1.95633 -7.007315,11.93791 -1.475369,13.85442 6.367819,2.2061 11.609308,-8.58286 7.70084,-13.1261 -2.434865,-2.8303 -5.45171,-0.14624 -5.811623,2.57343 -0.05493,0.41512 0.503799,0.66899 0.755698,1.00348"
       id="path682" /><path
       style="fill:none;stroke:#ffffff;stroke-width:1"
       d="m 83.707003,252.79775 c -3.757702,0.48288 -4.872114,-0.0285 -6.549305,5.76188 -0.741487,2.55993 -1.326833,5.69447 0.01802,7.99543 1.660924,2.84176 8.205361,0.88174 9.230201,-1.37573 1.242261,-2.73641 3.911047,-14.70388 -5.433753,-12.75384 -1.913181,0.39924 -0.923623,3.7981 -1.385435,5.69715"
       id="path684" /><path
       style="fill:none;stroke:#ffffff;stroke-width:1"
       d="m 0.20326487,286.68929 c -0.57576005,0.69056 -1.39465237,1.23638 -1.72728017,2.07169 -0.758589,1.90499 -2.4700251,9.32372 1.70930993,9.61393 1.06224807,0.0738 2.21539357,-0.39892 2.98675867,-1.13295 2.7032495,-2.57243 3.424202,-5.17579 2.1051483,-8.64284 -0.3565842,-0.93726 -1.0946659,-1.86409 -2.0331853,-2.21735 -0.9534493,-0.35888 -2.0261672,0.3996 -3.04075143,0.30752 -1.04308009,-0.0947 -1.97605067,-0.82015 -3.02274017,-0.85781 -0.6722864,-0.0242 -0.1141418,0.76625 0.6657207,2.20117"
       id="path686" /><path
       style="fill:none;stroke:#ffffff;stroke-width:1"
       d="m 2.6502588,311.04782 c -0.4558078,-0.81465 -0.6174478,-1.88811 -1.3674233,-2.44395 -0.40921649,-0.30328 -1.13861584,-0.0418 -1.49337949,0.3237 -2.64613471,2.72615 -5.15026241,8.06934 -1.27748981,11.24863 3.5170975,2.88731 9.4817363,-1.08579 9.9499138,-4.90407 0.3075649,-2.50839 -1.154258,-7.50863 -4.372194,-7.88214 -1.6936318,-0.19657 -3.41584989,0.17273 -5.0919067,0.48556 -0.7055805,0.1317 -2.0005281,1.53482 -0.4858131,0.0647"
       id="path688" /><path
       style="fill:none;stroke:#ffffff;stroke-width:1"
       d="m 3.579409,333.60273 c 1.9776953,0.90077 0.2782853,-2.05587 -0.1439264,-1.68324 -1.5430336,1.36182 -3.28167894,4.75083 -3.74245399,6.24743 -2.60580451,8.46369 6.70392409,10.63125 8.70840469,4.40235 0.7075593,-2.19874 0.762844,-8.26462 -1.1335226,-9.90527 -1.5004388,-1.29811 -2.8596087,-0.96987 -3.6885017,0.93873 -0.5194808,1.19615 -0.455794,2.56804 -0.6836913,3.85206"
       id="path690" /><path
       style="fill:none;stroke:#ffffff;stroke-width:1"
       d="m 3.0036627,357.07109 c -3.05492832,2.14327 -6.7741164,9.26725 -0.8096882,10.30989 5.2669101,0.92071 7.7134407,-3.46329 6.1174846,-7.97925 -0.2914412,-0.82466 -0.5501878,-1.75134 -1.2054866,-2.33064 -1.1527684,-1.01909 -2.5413917,-1.83072 -4.0123356,-2.2821 -0.3846734,-0.11804 -2.5357592,1.04607 -1.8172546,1.97458 0.3579011,0.46251 1.1515204,0.20501 1.7272804,0.30752 z"
       id="path696" /><path
       style="fill:none;stroke:#ffffff;stroke-width:1"
       d="m 4.5870175,380.66892 c 0.1019545,-0.96571 0.3967744,-1.93032 0.3058636,-2.89714 -0.083661,-0.88969 -1.2381579,-0.22598 -2.2130938,1.06823 -0.8184721,1.08651 -1.593683,2.23549 -2.10514824,3.49597 -0.94954962,2.3401 -1.86093386,4.73932 -2.24907476,7.23471 -0.6950797,4.46879 2.8000264,10.34534 7.9887325,8.01164 6.6842402,-3.00636 6.1708242,-9.50352 3.9943672,-15.32729 -0.3527533,-0.94387 -0.9690764,-2.01253 -1.9252012,-2.33064 -1.8859288,-0.62745 -3.9938483,-0.61073 -5.9555874,-0.29133 -0.6531811,0.10634 -2.54987631,1.56954 -2.30302668,2.73529 0.0596416,0.28165 0.44381393,0.36685 0.66572076,0.55028"
       id="path698" /><path
       style="fill:none;stroke:#ffffff;stroke-width:1"
       d="m 14.716836,380.66892 c -1.079555,0.98729 -2.305777,1.83496 -3.238669,2.96187 -0.973817,1.17632 -1.6132942,2.5934 -2.4289834,3.8844 -2.4929253,3.94566 -3.4166519,5.4882 -6.0275506,9.1122 -0.7819742,1.08543 -3.22273745,4.71586 -3.97635491,4.53184 -0.41964949,-0.10248 0.0359952,-0.86321 0.053993,-1.29482"
       id="path702" /><path
       style="fill:none;stroke:#ffffff;stroke-width:1"
       d="m 14.12308,354.10922 c -1.49338,1.11138 -3.058631,2.13218 -4.480137,3.33412 -3.9892631,3.37307 -8.0780148,7.15261 -11.6052313,11.05441 -0.2664518,0.29475 0.5517724,-0.57188 0.8276585,-0.85781"
       id="path704" /><path
       style="fill:none;stroke:#ffffff;stroke-width:1"
       d="m 14.105109,329.66976 c -18.1428212,14.5123 -12.4339377,8.93905 -18.6223769,15.03593"
       id="path706" /><path
       style="fill:none;stroke:#ffffff;stroke-width:1"
       d="m 11.028375,307.17251 c -2.7287586,4.39207 -6.9418516,7.40064 -10.95751901,10.5203 -1.19228369,0.92625 -2.41582329,1.81168 -3.63450919,2.70291 -0.3528484,0.25804 -0.6571811,0.85709 -1.0795707,0.74451 -0.3403219,-0.0907 0.3958384,-0.58266 0.5937576,-0.87399"
       id="path708" /><path
       style="fill:none;stroke:#ffffff;stroke-width:1"
       d="m -8.3119993,297.08794 c 0.4498041,0.12948 0.8900681,0.47841 1.349412,0.38845 4.7113671,-0.92268 14.331672,-8.36602 17.1649783,-10.27753"
       id="path710" /><path
       style="fill:none;stroke:#ffffff;stroke-width:1"
       d="m -9.3196067,273.44156 c 6.4886625,-8.1852 12.94172,-16.36908 19.6299427,-24.39091"
       id="path712" /><path
       style="fill:none;stroke:#ffffff;stroke-width:1"
       d="m 24.452534,275.64272 c 0.58777,-1.49442 1.125882,-3.00933 1.763303,-4.48326 1.360292,-3.14542 2.71649,-6.29567 4.228269,-9.37115 1.99979,-4.06828 5.186042,-8.4254 6.711241,-12.8024"
       id="path714" /><path
       style="fill:none;stroke:#ffffff;stroke-width:1"
       d="m 48.976467,277.7306 c 3.421928,-8.84564 7.559185,-17.44658 10.093881,-26.60826"
       id="path716" /><path
       style="fill:none;stroke:#ffffff;stroke-width:1"
       d="m 77.098968,276.07972 c 0.03598,-0.57187 -0.09439,-1.17952 0.107945,-1.71562 2.286709,-6.05894 9.201018,-19.09614 11.011471,-23.16083 0.59513,-1.33614 0.791676,-2.8162 1.187517,-4.2243"
       id="path718" /><path
       style="fill:none;stroke:#ffffff;stroke-width:1"
       d="m 110.19598,257.30939 c -0.97231,-4.94406 -5.12318,0.9347 -5.27181,2.99424 -0.14819,2.0534 -0.008,4.2084 0.71967,6.13414 1.31284,3.47296 10.56087,-0.78508 11.31738,-4.54801 0.82796,-4.11833 -3.65408,-5.23432 -6.76524,-4.58037 -2.17442,0.45705 -4.21775,1.4561 -6.40537,1.8451 -0.34224,0.0609 1.68645,-1.48566 1.69134,-1.48902"
       id="path886" /><path
       style="fill:none;stroke:#ffffff;stroke-width:1"
       d="m 112.28312,248.68275 c -3.33645,8.61053 -6.31085,17.39841 -9.9319,25.89611"
       id="path888" /><path
       style="fill:none;stroke:#ffffff;stroke-width:1"
       d="m -47.923586,407.47069 c 3.394668,-1.46757 7.180943,-1.40382 10.813553,-1.58614 1.888552,-0.0948 3.812432,-0.44346 5.703676,-0.43699 2.041217,0.007 3.956162,0.35935 5.973558,0.51792 2.414082,0.18975 4.836404,0.0341 7.251007,0.19422 1.472851,0.0977 2.93583,0.31638 4.408218,0.42082 5.9727196,0.42365 12.0405255,0.47218 18.0285781,0.56647 4.9323412,0.0777 9.8556469,0.38361 14.7899489,0.37226 10.140156,-0.0233 20.256367,-0.2587 30.389544,-0.58266 5.228487,-0.16716 10.460505,0.0555 15.689529,-0.0324 5.110364,-0.0859 10.217203,-0.25912 15.329715,-0.1133 6.079464,0.1734 12.1612,0.61271 18.24455,0.38844 6.297459,-0.23216 12.426199,-1.26326 18.640349,-2.21735 2.03767,-0.31286 5.77894,-0.93592 8.0067,-1.00347 0.94668,-0.0287 3.34905,0.53979 4.46221,-0.0324"
       id="path908" /><path
       style="fill:none;stroke:#ffffff;stroke-width:1"
       d="m -10.876792,401.09377 c 0.269727,9.96792 -1.005284,19.82948 -1.799243,29.74817 -0.443206,5.53683 -0.802272,11.19145 0.215889,16.6868"
       id="path912" /><path
       style="fill:none;stroke:#ffffff;stroke-width:1"
       d="m 26.044087,396.20588 c 0.06259,9.98542 -1.096378,19.82499 -2.554978,29.68342 -0.585875,3.95984 -1.293302,7.58177 -0.62974,11.49141"
       id="path914" /><path
       style="fill:none;stroke:#ffffff;stroke-width:1"
       d="m 6.3421406,417.94243 c -0.6537272,0.56648 -1.5508235,0.93794 -1.9611816,1.69943 -1.2629621,2.34364 -1.7803786,7.46592 -0.035981,9.77578 1.7183047,2.27531 5.4866222,0.85825 6.89119,-0.97109 1.05252,-1.37082 2.002239,-2.8826 2.518957,-4.53182 0.973188,-3.10615 -1.515255,-8.33789 -5.3438187,-6.24745 -1.1614335,0.63416 -4.7250879,5.78099 -3.5805163,6.26364 0.4959879,0.20915 0.6333808,-0.88106 0.8456295,-1.37574"
       id="path916" /><path
       style="fill:none;stroke:#ffffff;stroke-width:1"
       d="m 8.5372641,412.1158 c -0.2518992,-0.89557 0.1398746,-2.93861 -0.7556976,-2.68671 -0.8955696,0.2519 0.7556976,1.75639 0.7556976,2.68671 0,1.10277 -0.7316152,2.11834 -0.7556976,3.22085 -0.036761,1.68303 0.4263205,3.34058 0.5757465,5.01737 0.4530831,5.08421 0.567907,10.1949 1.0255779,15.2787 0.1449679,1.6103 0.3285199,3.222 0.6477501,4.80697 0.470562,2.33633 0.142753,2.41569 0.989597,1.92602"
       id="path918" /><path
       style="fill:none;stroke:#ffffff;stroke-width:1"
       d="m 50.388071,403.95854 c 1.005491,8.75141 1.26497,17.57813 1.115552,26.38166 -0.05697,3.35677 -0.417631,6.71171 -0.305864,10.0671 0.02289,0.6868 0.0259,7.53325 2.015173,9.32261"
       id="path920" /><path
       style="fill:none;stroke:#ffffff;stroke-width:1"
       d="m 73.34666,403.42443 c 2.529033,14.15043 -0.08358,28.85737 3.742494,42.80951"
       id="path922" /><path
       style="fill:none;stroke:#ffffff;stroke-width:1"
       d="m 101.21725,404.05565 c -0.15594,0.47476 -0.41027,0.92789 -0.4678,1.42428 -0.42992,3.70966 0.10643,7.67982 0.19792,11.39429 0.15906,6.45807 0.13502,7.00729 -0.17995,13.57927 -0.16082,3.35556 -1.18418,10.30385 -0.072,13.80587"
       id="path924" /><path
       style="fill:none;stroke:#ffffff;stroke-width:1"
       d="m 29.847845,288.87105 c -0.959604,0.42081 -2.074307,0.5911 -2.878814,1.26243 -0.674968,0.56324 -1.106795,1.42096 -1.349452,2.26591 -0.328973,1.14551 -0.604028,2.40231 -0.323877,3.56072 0.950617,3.93075 14.484646,-3.28502 10.957523,-6.68444 -0.571092,-0.55041 -1.457497,-0.72688 -2.249075,-0.77688 -4.620585,-0.29188 -4.136961,0.47718 -7.95275,2.88095 -0.678685,0.42753 -1.317911,0.97034 -2.087139,1.19769 -0.01574,0.005 1.239586,-1.23184 1.385435,-1.37573"
       id="path1000" /><path
       style="fill:none;stroke:#ffffff;stroke-width:1"
       d="m 30.207702,283.28719 c -0.259341,4.40937 -0.803984,8.79003 -1.439386,13.15847 -0.192593,1.32408 -1.264295,5.52338 -0.62974,7.12143"
       id="path1002" /><path
       style="fill:none;stroke:#ffffff;stroke-width:1"
       d="m 55.433376,288.30456 c -2.839852,-0.17219 -1.966193,-0.62229 -3.346656,3.90061 -2.973237,9.74142 7.284291,6.22112 10.471708,1.47285 0.516633,-0.76963 1.259713,-3.1198 -0.269883,-3.73876 -1.560423,-0.63144 -3.337229,-0.59617 -5.019942,-0.5503 -1.404707,0.0383 -2.735847,0.64333 -4.102312,0.97111"
       id="path1004" /><path
       style="fill:none;stroke:#ffffff;stroke-width:1"
       d="m 57.86236,282.81783 c -1.239179,7.23064 -0.920533,14.69483 -0.719715,22.01169"
       id="path1006" /><path
       style="fill:none;stroke:#ffffff;stroke-width:1"
       d="m 79.723409,288.77394 c -4.156448,-0.44468 -7.468878,9.48054 -1.583354,9.37115 2.458323,-0.0457 8.804526,-2.43742 7.934738,-6.37692 -0.635315,-2.87751 -3.593185,-4.09355 -6.351384,-2.99423 -0.90869,0.36217 -5.857997,5.42879 -3.670493,3.65782"
       id="path1008" /><path
       style="fill:none;stroke:#ffffff;stroke-width:1"
       d="m 82.170403,281.10221 c 0.192296,8.06571 -1.160767,16.06435 -2.321039,24.01865"
       id="path1010" /><path
       style="fill:none;stroke:#ffffff;stroke-width:1"
       d="m 114.52113,287.65716 c 0.45204,-0.35151 -1.24566,10.52303 -0.8277,10.11568 0.20291,-0.19776 0.24893,-0.51552 0.3059,-0.79307 0.35985,-1.98537 0.71969,-3.97074 1.07953,-5.95611 -0.18591,-1.12217 -0.64015,-2.23203 -0.55773,-3.3665 0.061,-0.83947 0.75157,-1.51823 0.97162,-2.33064 0.0754,-0.27817 0.146,-0.99401 -0.10798,-0.85781 -2.11022,1.13162 -3.47609,2.6534 -4.98396,4.3376 -0.30867,0.34475 -1.91435,1.82056 -0.32388,0.84162"
       id="path1016" /><path
       style="fill:none;stroke:#ffffff;stroke-width:1"
       d="m 108.43962,299.58556 c 1.8972,-0.62435 12.17687,-6.72905 12.46891,-2.13642"
       id="path1018" /><path
       style="fill:none;stroke:#ffffff;stroke-width:1"
       d="m 22.075043,293.04679 c -1.049565,-0.41001 -2.046798,-0.99441 -3.148695,-1.23006 -0.915175,-0.19571 -1.853959,0.28166 -2.78888,0.32371 -0.449363,0.0202 -0.899673,0.006 -1.349454,0 -0.755254,-0.01 -1.512523,-0.0421 -2.267046,-0.0809 -0.221874,-0.0114 -0.779819,0.15826 -0.66572,-0.0324 0.08958,-0.14967 0.191767,-0.29142 0.287853,-0.437 0.814716,-1.23436 1.710523,-2.41148 2.554981,-3.62546 0.0096,-0.0138 1.501915,-1.8698 1.151532,-2.18498 -0.371882,-0.33452 -5.044437,4.10791 -4.858006,5.58385 0.127939,1.01286 2.815333,2.6719 3.094704,2.96187 0.979853,1.01702 1.274249,2.59412 1.637348,3.9006"
       id="path1100" /><path
       style="fill:none;stroke:#ffffff;stroke-width:1"
       d="m 47.300677,293.61327 c -2.043467,-0.64123 -0.979675,-0.54212 -2.986757,-0.30752 -0.52102,0.0609 -1.778145,0.23606 -2.482977,0.2266 -0.619873,-0.008 -1.196273,-0.22505 -1.799283,-0.3237 -0.809339,-0.1324 -1.097214,0.18587 -0.233902,-0.46937 0.843182,-0.63996 2.747288,-2.33766 2.195124,-3.62546 -0.29168,-0.68027 -2.143483,-0.8621 -2.087137,0.0162 0.06047,0.94259 0.861857,1.81361 1.241467,2.63816 1.048105,2.27659 1.414421,5.92082 3.706472,7.36421"
       id="path1102" /><path
       style="fill:none;stroke:#ffffff;stroke-width:1"
       d="m 71.860633,292.86876 c -2.34437,-0.72851 -1.337027,-0.76141 -3.274653,-0.35607 -1.171736,0.24512 -0.906274,0.24021 -2.123159,0.38844 -0.380741,0.0464 -0.802939,0.10532 -1.169506,-0.0486 -0.897541,-0.37678 0.348456,-0.47791 0.881652,-0.93873 0.750541,-0.64865 2.600923,-1.9349 2.716877,-2.97805 0.08881,-0.79895 -1.685362,0.55034 -1.799286,0.71214 -0.871572,1.2379 1.27004,6.99993 2.087179,7.89831 0.297693,0.32729 0.408874,-0.1993 0.449792,-0.29132"
       id="path1104" /><path
       style="fill:none;stroke:#ffffff;stroke-width:1"
       d="m 97.176241,287.44677 c -0.284451,-0.41579 -1.002787,-1.50562 -1.439429,-2.05551 -0.954516,-1.20208 -2.170856,-2.1741 -3.058721,-3.43124 -0.530153,-0.75065 -0.871958,-1.59988 -1.385435,-2.36302 -0.620641,-0.92241 -1.412292,-1.68925 -2.033185,-2.6058 -0.547158,-0.8077 -0.916704,-1.72094 -1.52936,-2.49249 -0.908209,-1.14376 -2.053913,-1.91232 -3.112715,-2.86477 -0.07049,-0.0634 0.1446,-0.12999 0.2339,-0.16184 0.777071,-0.27719 1.559795,-0.53827 2.339049,-0.80926 0.957373,-0.33293 8.403524,-2.81195 3.562546,-1.60232 -0.752213,0.18796 -1.861064,0.24026 -2.483014,0.77689 -1.623457,1.40073 -2.595013,6.36304 -2.96875,8.07635 -0.108355,0.49672 -0.395663,1.59108 0.107945,1.52139 0.36666,-0.0507 0.707512,-1.07529 0.719714,-1.10058"
       id="path1112" /><path
       style="fill:none;stroke:#ffffff;stroke-width:1"
       d="m 29.811865,313.47236 c -0.677715,0.31831 -1.444403,0.49232 -2.033146,0.95492 -1.672352,1.31404 -4.293462,7.29097 -1.421416,8.80468 2.590485,1.3653 8.948965,-3.11067 9.698001,-5.72952 0.928904,-3.24772 -0.83139,-3.00401 -3.130725,-3.3665 -1.047946,-0.1652 -2.093722,-0.95877 -3.112714,-0.66358 -0.995289,0.28831 -1.439675,1.49188 -2.195082,2.20116 -0.07841,0.0736 -0.383857,0.19423 -0.287895,0.14567 0.2522,-0.12762 0.448841,-0.27602 0.683733,-0.437"
       id="path1182" /><path
       style="fill:none;stroke:#ffffff;stroke-width:1"
       d="m 30.693514,308.4388 c -0.20624,5.50262 -1.73928,10.93057 -1.493379,16.46022 0.02373,0.53393 -0.138385,1.53774 0.39584,1.55376 0.555736,0.0167 0.455793,-1.01426 0.683691,-1.52139"
       id="path1184" /><path
       style="fill:none;stroke:#ffffff;stroke-width:1"
       d="m 22.4349,318.19839 c -2.897613,-1.16526 -0.999291,-0.68918 -5.937575,-0.0647 -0.408136,0.0516 -0.814361,0.11891 -1.223497,0.16185 -4.65927,0.48897 0.230431,-1.77324 1.691299,-3.57691 0.03444,-0.0425 0.971706,-1.69015 -0.215892,-1.06821 -0.74417,0.38972 -1.418349,0.91662 -2.033183,1.48903 -2.551123,2.37508 1.257631,5.00222 2.536968,6.58732 0.03309,0.041 1.539798,2.75881 1.871247,2.70291 0.229918,-0.0388 0.28788,-0.36686 0.431819,-0.55029"
       id="path1186" /><path
       style="fill:none;stroke:#ffffff;stroke-width:1"
       d="m 54.749645,312.67929 c -0.965607,0.0755 -2.00393,-0.1487 -2.896825,0.22659 -1.549559,0.65129 -3.348709,5.17752 -0.737685,5.9561 2.929951,0.87368 7.80759,-2.64924 7.610864,-5.74569 -0.02058,-0.32413 -0.460388,-0.47985 -0.755695,-0.61504 -1.681469,-0.76978 -6.405144,1.8028 -6.153465,-0.63122"
       id="path1188" /><path
       style="fill:none;stroke:#ffffff;stroke-width:1"
       d="m 54.299814,307.06307 c -0.431821,1.44047 -1.043205,2.83892 -1.295461,4.32142 -0.162922,0.95749 0.160404,11.48365 0.62974,11.3781 0.205362,-0.0462 -0.01199,-0.42082 -0.01796,-0.63123"
       id="path1190" /><path
       style="fill:none;stroke:#ffffff;stroke-width:1"
       d="m 49.207908,315.75445 c -3.088865,0.28498 -2.532097,0.0173 -5.415783,1.13295 -0.861716,0.33337 -1.694283,0.73778 -2.536928,1.11678 -6.477077,2.91321 4.621265,-2.62018 2.932766,-5.82663 -0.914035,-1.73574 -6.295893,3.4137 -4.858007,5.55148 1.942934,2.88865 6.798109,2.25554 8.132659,5.60003"
       id="path1192" /><path
       style="fill:none;stroke:#ffffff;stroke-width:1"
       d="m 83.555835,316.09434 c 0.01199,0.6474 0.04917,1.29483 0.03598,1.94221 -0.01683,0.82633 -0.09657,1.65033 -0.125957,2.47631 -0.166844,4.68924 1.101331,0.52971 1.025578,-0.74451 -0.075,-1.26153 -0.983311,-2.41116 -0.935604,-3.67401 0.05857,-1.55045 1.807467,-2.35742 0.953617,-3.6902 -0.08237,-0.12857 -0.225193,-0.26141 -0.37787,-0.25896 -0.944642,0.0152 -3.307146,2.36218 -3.652478,2.57342"
       id="path1194" /><path
       style="fill:none;stroke:#ffffff;stroke-width:1"
       d="m 78.967711,321.80766 c 2.687979,1.14145 5.4785,-0.39264 8.294598,-0.29132"
       id="path1196" /><path
       style="fill:none;stroke:#ffffff;stroke-width:1"
       d="m 75.585074,313.52091 c -1.737963,-1.65001 -3.369553,-3.34962 -5.361789,-4.69367 -0.04879,-0.0329 -1.619334,-1.00325 -1.619334,-1.18151 0,-0.0739 0.126227,0.0787 0.179948,0.12948 0.429501,0.40567 0.922319,0.74105 1.52936,0.82544 0.208587,0.029 4.745924,0.0154 4.210257,-0.55029 -0.250574,-0.26462 -4.126032,-1.10201 -4.53413,-0.98729 -0.27744,0.078 -0.104259,0.56964 -0.107948,0.85781 -0.009,0.70239 -0.637489,5.64504 0.08998,5.47055"
       id="path1198" /><path
       style="fill:none;stroke:#ffffff;stroke-width:1"
       d="m 121.42077,314.15694 c -0.072,0.55029 -0.13871,1.10129 -0.21589,1.65087 -0.36028,2.56573 -0.73458,3.98485 -0.71971,6.296 0.003,0.44031 -0.0839,1.67631 0.16194,1.31099 0.90803,-1.3496 1.01087,-5.69126 0.97158,-7.3804 -0.0146,-0.62912 -0.24528,-1.24996 -0.19792,-1.87746 0.0858,-1.13625 0.49282,-2.23149 0.59376,-3.3665 0.0403,-0.45315 -0.74931,0.52695 -1.06156,0.85781 -0.32411,0.34344 -5.82398,7.37006 -3.77843,3.6902"
       id="path1250" /><path
       style="fill:none;stroke:#ffffff;stroke-width:1"
       d="m 115.46522,322.45988 c 1.17987,0.30562 10.26269,-3.31702 9.35616,-0.59885"
       id="path1252" /><path
       style="fill:none;stroke:#ffffff;stroke-width:1"
       d="m 105.64127,318.47834 c -0.76769,0.31292 -1.53145,0.63564 -2.30307,0.93874 -1.07611,0.42271 -1.90605,0.74334 -2.9868,1.03585 -2.087518,0.565 -1.763424,0.57451 -0.953572,-0.90637 0.396058,-0.72422 3.894552,-6.31894 2.428982,-6.84629 -1.4228,-0.51195 -5.065507,3.21886 -4.192284,5.24396 0.438909,1.01789 1.349317,1.88894 2.213094,2.54107 0.66171,0.49958 6.4822,3.83213 5.75763,4.40233"
       id="path1254" /><path
       style="fill:none;stroke:#ffffff;stroke-width:1"
       d="m 32.23521,339.08397 c -0.85765,0.6474 -1.804244,1.19135 -2.572949,1.94221 -3.632787,3.54844 -0.630422,10.2546 4.678098,7.02431 2.584588,-1.57275 3.671991,-5.59915 0.701702,-7.29946 -1.227387,-0.70261 -2.805071,0.0665 -3.940374,0.55029 -1.094179,0.46622 -1.212244,0.62751 -1.205484,0.59885 0.06372,-0.2702 0.28788,-0.47477 0.431819,-0.71215"
       id="path1256" /><path
       style="fill:none;stroke:#ffffff;stroke-width:1"
       d="m 33.602674,333.9533 c -0.06597,0.55569 -0.179477,1.10777 -0.197919,1.66706 -0.06561,1.98976 0.08921,3.9866 -0.05399,5.97229 -0.840065,11.64818 -4.984282,10.70687 -0.971584,11.53996"
       id="path1258" /><path
       style="fill:none;stroke:#ffffff;stroke-width:1"
       d="m 57.622822,337.19032 c -2.797546,1.10138 -3.849296,3.43493 -2.734887,6.21506 0.362627,0.90465 0.906349,2.24567 1.961182,2.67053 2.979838,1.20022 5.633275,-2.7754 6.099513,-5.0821 0.299297,-1.48075 -1.365708,-2.34504 -2.554938,-2.13643 -1.142511,0.20041 -2.43731,0.87979 -3.400608,1.55376 -0.295349,0.20664 -0.56719,0.44679 -0.827659,0.69597 -0.119091,0.11392 -0.141094,0.38843 -0.305906,0.38843 -0.134387,0 0.07199,-0.25896 0.107987,-0.38843"
       id="path1260" /><path
       style="fill:none;stroke:#ffffff;stroke-width:1"
       d="m 59.781922,332.33479 c -0.191915,0.63662 -0.515969,1.24762 -0.575746,1.90985 -0.169786,1.88095 -0.02061,3.77819 -0.107985,5.66477 -0.182184,3.93311 -0.746799,7.90879 -0.953614,11.8151"
       id="path1262" /><path
       style="fill:none;stroke:#ffffff;stroke-width:1"
       d="m 47.564925,341.34988 c -0.761686,0.12408 -1.525265,0.23706 -2.285056,0.37225 -0.788159,0.14024 -1.80326,0.49296 -1.781275,0.16186 0.121914,-1.83603 4.355054,-6.63122 4.210298,-7.44514 -0.05941,-0.33405 -0.612489,0.32002 -0.845672,0.56648 -1.716539,1.81433 -2.231993,2.48597 -3.220659,5.16304 -1.439449,3.89768 4.92555,4.93422 5.577679,7.67172"
       id="path1264" /><path
       style="fill:none;stroke:#ffffff;stroke-width:1"
       d="m 22.465245,342.32098 c -0.479808,-0.25896 -0.900485,-0.6943 -1.439425,-0.77688 -2.777295,-0.42554 -9.636469,4.4505 -4.893988,-1.61851 0.536139,-0.6861 1.103543,-1.34833 1.691299,-1.99077 0.604441,-0.66068 1.282943,-1.25083 1.889218,-1.90983 0.353226,-0.38395 -0.685494,0.78726 -1.007568,1.19769 -1.483207,1.89011 -3.664691,4.67654 -3.598527,7.25092 0.08628,3.35707 6.606344,1.85006 8.18665,5.32489"
       id="path1266" /><path
       style="fill:none;stroke:#ffffff;stroke-width:1"
       d="m 85.853228,340.136 c -0.469723,2.05039 -0.744667,4.16062 -0.827659,6.26362 -0.01437,0.36435 -0.04878,1.39395 0.143925,1.0844 1.380472,-2.21754 0.864931,-4.97645 0.683734,-7.34802 -0.05556,-0.72715 0.390541,-2.43632 -0.287896,-2.1688 -1.0014,0.39487 -7.21547,5.80668 -2.321036,2.42776"
       id="path1268" /><path
       style="fill:none;stroke:#ffffff;stroke-width:1"
       d="m 80.239526,348.74646 c 1.391547,0.17946 8.213299,-1.76612 8.456533,-0.45318"
       id="path1270" /><path
       style="fill:none;stroke:#ffffff;stroke-width:1"
       d="m 83.298287,333.45156 c 0.257313,-1.51838 0.37987,-3.04778 0.503785,-4.58038 0.05105,-0.63145 0.111273,-1.26215 0.161936,-1.89364 0.05884,-0.73336 0.107569,-1.46748 0.161938,-2.20118 0.168844,-2.27846 -0.143867,-1.0825 -1.403445,0.43701 -1.204725,1.45334 -1.842826,2.15531 -3.148695,3.54452 -0.132136,0.14057 -0.298948,0.55963 -0.413811,0.40463 -0.209381,-0.28254 4.523266,-5.97161 5.217824,-6.84628 0.02453,-0.0309 0.292116,1.39157 0.341886,1.55376 0.193898,0.63188 0.419555,1.25539 0.683692,1.86128 0.684228,1.56953 1.78136,2.78632 2.752897,4.15957"
       id="path1272" /><path
       style="fill:none;stroke:#ffffff;stroke-width:1"
       d="m 120.92083,341.5441 c -0.13195,1.13296 -0.32044,2.26075 -0.39584,3.39886 -0.0565,0.85226 -0.0909,2.63156 0.30591,3.44743 0.0247,0.0508 0.11543,-0.0578 0.12591,-0.1133 0.0938,-0.49652 0.14325,-1.00123 0.17995,-1.50521 0.0695,-0.95493 -0.0488,-8.0209 -0.35986,-8.38387 -0.94515,-1.10297 -6.62034,7.8925 -4.42618,4.20811"
       id="path1274" /><path
       style="fill:none;stroke:#ffffff;stroke-width:1"
       d="m 115.30713,348.5846 c 0.19792,0.45858 0.12826,1.19467 0.59376,1.37574 1.80628,0.70263 8.64315,-3.26813 9.42815,-1.21388"
       id="path1276" /><path
       style="fill:none;stroke:#ffffff;stroke-width:1"
       d="m 120.27312,334.03423 c -0.16569,-3.44913 -0.23015,-1.56135 0.054,-3.99772 0.68127,-5.8424 -0.14306,-1.83234 -4.3182,0.72833 -1.02451,0.62836 1.45419,-1.91537 2.23106,-2.83238 0.66424,-0.78405 1.7125,-2.11405 2.64492,-2.75147 0.35465,-0.24246 -0.22161,0.85317 -0.16194,1.27862 0.10863,0.77448 0.30875,1.55392 0.66576,2.24973 0.87203,1.69958 2.81531,2.26699 3.83243,3.72256"
       id="path1278" /><path
       style="fill:none;stroke:#ffffff;stroke-width:1"
       d="m 34.761478,359.41924 c -2.548742,-0.67211 -5.907484,8.67344 -1.997202,8.15728 2.558206,-0.33768 7.982373,-4.3644 5.847601,-7.55842 -0.335322,-0.5017 -0.789117,-1.0726 -1.385393,-1.16534 -0.833072,-0.12957 -1.633214,0.42894 -2.465006,0.56648 -0.981792,0.16234 -2.177367,-0.17301 -2.950776,0.45318 -0.254656,0.20618 0.576818,-0.33527 0.791675,-0.58265"
       id="path1280" /><path
       style="fill:none;stroke:#ffffff;stroke-width:1"
       d="m 34.959397,353.80303 c 0.04199,0.49094 0.06292,0.98414 0.125957,1.47283 0.493506,3.82575 0.655519,3.16966 0.755695,7.38039 0.06488,2.72712 -0.300307,5.95288 0.107945,8.49718"
       id="path1282" /><path
       style="fill:none;stroke:#ffffff;stroke-width:1"
       d="m 25.945088,361.76609 c -1.582825,-2.04779 -4.223621,3.17015 -5.811621,1.89365 -0.892934,-0.71778 4.350756,-6.95779 4.768072,-7.72028 0.04533,-0.0828 -0.183226,0.0647 -0.251912,0.12946 -0.306459,0.28901 -0.603933,0.59091 -0.86364,0.92256 -0.886301,1.13184 -1.985536,2.64803 -2.375029,4.07864 -1.472613,5.40893 6.782776,6.44775 7.32297,8.75613"
       id="path1284" /><path
       style="fill:none;stroke:#ffffff;stroke-width:1"
       d="m 60.994719,358.62617 c -0.707705,0.57188 -1.654265,0.93584 -2.123117,1.71562 -0.42477,0.70647 -0.554334,1.63873 -0.37787,2.44395 0.985462,4.49676 8.155331,2.267 9.284192,-0.90636 1.153134,-3.24158 -5.094242,-3.8163 -6.783205,-3.25321 -0.941734,0.31397 -3.155762,2.38662 -2.285055,1.90984 0.870704,-0.47677 1.524122,-1.27233 2.285055,-1.90984 z"
       id="path1286" /><path
       style="fill:none;stroke:#ffffff;stroke-width:1"
       d="m 61.174628,355.50245 c -0.137938,0.45319 -0.420251,0.88589 -0.413808,1.35956 0.01796,1.32083 0.349128,2.6191 0.485772,3.93296 0.284258,2.73325 0.327409,5.53967 0.791676,8.25439"
       id="path1288" /><path
       style="fill:none;stroke:#ffffff;stroke-width:1"
       d="m 54.12154,361.41001 c -2.303613,0.52373 -1.132004,0.13979 -3.508555,1.23007 -0.575852,0.26418 -1.143881,0.54609 -1.727319,0.79307 -0.640559,0.27115 -1.286716,0.53067 -1.943171,0.76069 -3.815699,1.33703 -1.346523,0.15967 -0.395838,-1.03584 1.405874,-1.76794 3.596476,-4.48273 3.63451,-6.84629 0.01482,-0.92137 -1.663028,0.99465 -2.087179,1.81272 -1.032888,1.99216 -2.51184,4.98887 -1.673286,7.31566 0.615146,1.70689 7.029704,-0.73996 7.322968,4.27287"
       id="path1290" /><path
       style="fill:none;stroke:#ffffff;stroke-width:1"
       d="m 85.6986,358.75566 c -0.04799,0.64201 -0.146566,1.28223 -0.143968,1.92602 0.0066,1.62205 0.282581,3.73282 0.557777,5.30871 0.114696,0.6568 0.165094,2.47753 0.539765,1.92602 0.203497,-0.29955 0.178888,-0.70658 0.197919,-1.06822 0.01347,-0.25602 1.028094,-7.78061 -1.151493,-8.09253 -1.620139,-0.23186 -4.672843,3.06545 -2.339049,0.48555 0.193138,-0.21351 0.443815,-0.36686 0.665721,-0.55028"
       id="path1292" /><path
       style="fill:none;stroke:#ffffff;stroke-width:1"
       d="m 82.010097,366.15223 c 2.091428,-0.22691 7.744738,-3.23812 9.374169,-2.00695"
       id="path1294" /><path
       style="fill:none;stroke:#ffffff;stroke-width:1"
       d="m 84.906922,355.56721 c 0.221909,-0.82544 0.485928,-1.6407 0.665721,-2.47632 0.144589,-0.672 0.207899,-1.35896 0.305866,-2.03932 0.05197,-0.36092 0.09494,-0.72307 0.143925,-1.08441 0.148477,-1.09521 1.03395,-2.8367 -0.08993,-1.32717 -0.358601,0.48165 -3.790651,4.57551 -3.994364,4.4509 -0.117766,-0.072 0.23174,-1.18004 0.773665,-2.41159 0.213352,-0.48486 2.384131,-4.38495 2.968786,-4.15956 0.565005,0.21782 1.089256,0.53461 1.601325,0.85781 1.304165,0.82315 5.237316,3.2506 4.102354,5.29252"
       id="path1296" /><path
       style="fill:none;stroke:#ffffff;stroke-width:1"
       d="m 122.27759,364.50136 c -0.005,-0.97729 0.13668,-7.90488 -0.37787,-8.09253 -0.74254,-0.2708 -2.21707,0.80659 -2.77087,1.11676 -0.2847,0.15946 -1.09409,0.71022 -0.80964,0.5503 1.21894,-0.68533 -0.0148,-0.15233 1.06156,-0.58267"
       id="path1302" /><path
       style="fill:none;stroke:#ffffff;stroke-width:1"
       d="m 117.58148,365.29443 c 3.06081,1.29627 6.05186,-1.38844 9.1223,-0.7607"
       id="path1304" /><path
       style="fill:none;stroke:#ffffff;stroke-width:1"
       d="m 120.55027,353.90014 c 0.27589,-0.45858 0.63318,-0.87716 0.82766,-1.37574 0.44175,-1.13249 0.3985,-2.61839 0.55778,-3.81967 0.0602,-0.45395 0.1195,-0.90625 0.17994,-1.35955 0.0101,-0.0758 0.0897,-0.28099 0.036,-0.22659 -0.37431,0.37883 -3.59471,4.76615 -3.81446,4.32141 -0.14813,-0.29978 0.62778,-1.40097 0.66572,-1.45665 1.62261,-2.38146 2.56683,-2.93086 5.34382,-1.71562 0.52572,0.23006 1.25195,0.63517 1.52936,1.0844"
       id="path1306" /><path
       style="fill:none;stroke:#ffffff;stroke-width:1"
       d="m 33.570083,389.35531 c 0.143954,-0.47477 0.906621,-1.28034 0.431861,-1.42429 -0.474763,-0.14395 -0.257091,0.95999 -0.431861,1.42429 -1.153385,3.06411 -3.38523,5.839 -1.853237,9.22549 1.579978,3.49256 6.921892,1.76771 8.276627,-0.85782 1.763268,-3.41728 -3.015295,-10.86777 -6.42339,-8.36767 -1.844619,1.35317 -2.75817,5.61396 -0.971584,4.98499"
       id="path1308" /><path
       style="fill:none;stroke:#ffffff;stroke-width:1"
       d="m 35.999106,386.92755 c 0.143941,-0.73912 1.17094,-2.07342 0.431821,-2.21736 -1.152252,-0.2244 -0.184353,2.59576 -0.197919,4.61275 -0.03592,5.34021 -0.74559,10.69047 -0.323876,16.03941 0.246663,3.12862 -0.34856,3.30559 0.845669,2.62198"
       id="path1310" /><path
       style="fill:none;stroke:#ffffff;stroke-width:1"
       d="m 29.208591,394.32135 c -1.589344,0.0485 -3.186414,-0.0182 -4.768033,0.14566 -0.722807,0.0749 -1.401566,0.38472 -2.105149,0.56648 -1.16455,0.30083 -1.413089,0.36777 -2.536925,0.51791 -1.826919,0.24408 -0.917001,-0.23715 0.107944,-1.23005 0.712394,-0.69013 5.900224,-5.87516 4.480137,-6.79775 -3.004984,-1.95224 -5.552406,5.05704 -4.893987,7.25093 1.543534,5.14315 2.753338,3.37262 5.955588,5.9399"
       id="path1312" /><path
       style="fill:none;stroke:#ffffff;stroke-width:1"
       d="m 64.081295,387.93229 c -0.371617,2.17022 -1.780029,4.89265 -1.205526,7.21853 0.233955,0.94718 0.05219,-1.48537 0.377867,-3.36648 0.354098,-2.04526 1.537735,-4.80149 0.197919,-6.89485 -0.364852,-0.57005 -2.444263,2.65636 -2.536967,2.78384 -0.306488,0.42147 -1.385891,1.09122 -0.899621,1.27861 0.377473,0.14547 0.73039,-0.34806 1.097539,-0.51791"
       id="path1314" /><path
       style="fill:none;stroke:#ffffff;stroke-width:1"
       d="m 59.583146,396.76932 c 2.384533,0.41398 4.611084,-0.38966 6.963114,-0.66357 0.499538,-0.0582 1.987753,0.0213 2.536967,-0.27516"
       id="path1316" /><path
       style="fill:none;stroke:#ffffff;stroke-width:1"
       d="m 54.131383,381.00507 c -3.592317,-3.01882 -5.295207,-7.48672 -8.654455,-10.71452 -1.081913,-1.03958 -1.129599,-0.82543 0.233902,-0.82543 1.237113,0 2.369064,-0.01 3.63451,0.0647 0.508939,0.0301 1.115573,0.15659 1.637305,0.24279 0.126082,0.0208 0.504248,0.0837 0.377868,0.0647 -0.126379,-0.0189 -0.252262,-0.0412 -0.377868,-0.0647 -0.671065,-0.12576 -5.894998,-0.82742 -6.135454,-0.46938 -0.187931,0.27983 -2.736723,10.65168 -0.575789,6.58733"
       id="path1318" /><path
       style="fill:none;stroke:#ffffff;stroke-width:1"
       d="m 62.407967,384.79237 c -0.636743,0.275 -4.373348,4.92107 -3.922363,5.17923 0.195636,0.11199 0.432528,-0.16615 0.59376,-0.32369 0.542289,-0.52987 1.064685,-1.09028 1.493379,-1.71562 0.685464,-0.99991 0.85412,-3.85204 1.835224,-3.13992 1.373818,0.99717 0.549558,3.35087 0.773708,5.03357 0.323046,2.42512 0.600469,4.93659 0.755695,7.38039 0.02532,0.39883 0.004,1.59419 0.05395,1.19768 0.03851,-0.30603 0.04797,-0.61502 0.07196,-0.92253"
       id="path1320" /><path
       style="fill:none;stroke:#ffffff;stroke-width:1"
       d="m 58.827451,397.20633 c -1.380696,0.43187 -2.901283,0.46755 0,0 1.294784,-0.20866 2.621658,-0.21243 3.904393,-0.48555 0.983292,-0.20936 1.909746,-0.62916 2.860841,-0.95492 0.659924,-0.22603 1.325068,-0.92206 1.979192,-0.67977 0.264025,0.0978 -3.137545,2.50731 -3.562546,2.65435 -1.147233,0.39692 -2.04892,0.24232 -3.238669,0 -0.658246,-0.13407 -2.418336,-0.0592 -1.943211,-0.53411 2.184908,-2.1838 6.515304,-2.38744 9.356156,-1.69943"
       id="path1322" /><path
       style="fill:none;stroke:#ffffff;stroke-width:1"
       d="m 87.713283,384.38751 c -0.06531,0.77709 -1.745776,8.0291 -0.521793,8.8694 0.706472,0.48501 0.725972,-1.57921 0.845627,-2.42776 0.956773,-6.78495 0.0091,-0.0127 -0.323834,-6.44164 -0.05636,-1.08836 1.076397,-3.00972 0.01796,-3.26939 -0.707641,-0.1736 -5.869752,8.50459 -4.048318,5.22777"
       id="path1324" /><path
       style="fill:none;stroke:#ffffff;stroke-width:1"
       d="m 82.657358,393.74248 c 0.473805,0.37225 0.819512,1.08894 1.421415,1.11676 2.762362,0.12764 5.365385,-1.92655 8.600461,-0.82544"
       id="path1326" /><path
       style="fill:none;stroke:#ffffff;stroke-width:1"
       d="m 76.000068,388.70891 c -1.013584,0.37765 -2.020461,0.77382 -3.040753,1.13296 -0.854977,0.30094 -2.15437,1.39341 -2.644913,0.63122 -0.07859,-0.12211 3.101137,-3.58875 4.156306,-5.34108 0.917064,-1.52298 1.414203,-2.45 0.89962,-2.57342 -1.022921,-0.24534 -4.466145,5.8755 -4.156303,6.97576 0.315228,1.11937 2.329815,1.27011 3.166708,1.82891 1.021321,0.68194 1.410579,1.95236 1.673329,3.07516"
       id="path1328" /><path
       style="fill:none;stroke:#ffffff;stroke-width:1"
       d="m 120.52752,385.28325 c -0.65415,2.4157 -1.44648,5.07676 -1.83526,7.55842 -0.37672,2.40464 0.0493,3.12641 0.25191,3.01043 0.81991,-0.46935 1.69915,-10.49684 1.58335,-10.56885 -1.89699,-1.17973 -7.07928,6.16047 -5.03795,2.96187"
       id="path1330" /><path
       style="fill:none;stroke:#ffffff;stroke-width:1"
       d="m 114.2481,396.11106 c -0.37185,0.56647 -0.90117,1.05661 -1.11555,1.69942 -0.26951,0.80809 1.72686,-0.0442 2.53697,-0.30752 1.49781,-0.48693 8.21304,-3.58968 9.51809,-2.34682"
       id="path1332" /><path
       style="fill:none;stroke:#ffffff;stroke-width:1"
       d="m 108.3465,390.6405 c -2.49285,-0.53363 -5.00549,0.22626 -7.50291,0.45319 -0.45597,0.0414 -1.539012,0.55396 -1.367427,0.12949 0.161327,-0.39911 0.636217,-0.58088 0.935607,-0.89019 1.54055,-1.59161 3.02337,-3.49502 4.1563,-5.40582 0.0172,-0.029 0.73934,-1.20458 -0.09,-1.16532 -1.07412,0.0509 -3.23547,3.59069 -3.36463,3.7873 -1.360986,2.07182 -1.01442,4.24403 0.97163,5.71334 0.91849,0.67951 0.87352,0.36762 1.6373,1.03584 0.61147,0.53497 0.98827,1.13924 1.47541,1.79653"
       id="path1334" /><path
       style="fill:none;stroke:#ffffff;stroke-width:1"
       d="m 36.746715,421.41516 c -0.455821,-0.0378 -0.990568,-0.37243 -1.367464,-0.1133 -2.575669,1.77087 -6.168451,11.96854 0.07196,10.69833 3.273578,-0.66632 8.952127,-5.76415 5.973559,-9.4359 -0.295611,-0.3644 -0.785786,-0.55165 -1.241468,-0.66359 -5.381794,-1.322 -3.150991,0.60062 -7.538942,2.76765 -0.529397,0.26144 0.457605,-1.08943 0.719712,-1.6185"
       id="path1336" /><path
       style="fill:none;stroke:#ffffff;stroke-width:1"
       d="m 35.829082,416.25212 c -0.401841,0.99808 -1.034497,1.93198 -1.205526,2.99424 -0.214432,1.33181 0.01778,2.69838 0.07196,4.04626 0.132217,3.28852 0.396346,6.57044 0.575786,9.85672 0.07754,1.42009 0.385374,4.14036 0.269883,5.69714"
       id="path1338" /><path
       style="fill:none;stroke:#ffffff;stroke-width:1"
       d="m 28.326163,426.20593 c -1.061574,-0.0432 -2.122593,-0.1557 -3.184718,-0.12947 -0.955995,0.0236 -3.641246,0.90282 -3.796448,0.72833 -0.127984,-0.14389 0.252714,-0.29065 0.377867,-0.43701 1.64079,-1.91878 3.249949,-3.91024 4.642078,-6.02084 0.01439,-0.0218 0.938691,-1.10559 0.413848,-1.45666 -1.694207,-1.13327 -6.615274,4.32927 -6.585286,6.31218 0.05283,3.49359 6.705309,4.52384 7.862776,8.83704"
       id="path1340" /><path
       style="fill:none;stroke:#ffffff;stroke-width:1"
       d="m 62.764025,423.98858 c -0.265687,3.08199 -0.50719,6.16199 -0.467802,9.25786 0.005,0.39214 0.105281,1.5534 0.161938,1.16533 0.200589,-1.37388 0.885272,-10.08053 0.305864,-10.42319 -1.446406,-0.85542 -5.963793,3.79256 -3.058763,1.92602"
       id="path1342" /><path
       style="fill:none;stroke:#ffffff;stroke-width:1"
       d="m 57.186307,435.98171 c 2.977724,0.24799 8.026373,-3.08984 10.687637,-0.69594 0.249539,0.22447 0.131945,0.65819 0.197919,0.98729"
       id="path1344" /><path
       style="fill:none;stroke:#ffffff;stroke-width:1"
       d="m 61.36058,418.08103 c 0.561237,-2.22929 0.54969,-4.38417 0.41385,-6.63588 -0.0218,-0.3616 0.28457,-1.02024 -0.07196,-1.0844 -0.06379,-0.0115 -0.728244,0.92394 -0.953613,1.18151 -1.001028,1.14407 -2.018612,2.27362 -3.040753,3.39886 -0.339932,0.37422 -0.933757,1.59408 -1.043589,1.10059 -0.05935,-0.26667 4.190643,-5.4204 4.570154,-5.859 0.965528,-1.11587 1.893583,-2.1386 1.943171,-2.07169 0.764405,1.03142 1.042435,2.77573 1.565381,3.94917 0.728255,1.63411 1.592064,3.19943 2.339051,4.82314"
       id="path1346" /><path
       style="fill:none;stroke:#ffffff;stroke-width:1"
       d="m 53.443852,382.02069 c -3.194925,-2.38703 -3.022531,-6.75986 -5.523727,-9.61393 -0.923459,-1.05375 -2.336977,-1.35819 -3.41862,-2.1688 -0.414851,-0.31091 0.93731,0.44574 1.421415,0.63122 0.661718,0.25352 1.310376,0.55394 1.997205,0.72833 2.303912,0.58496 5.217612,1.25865 7.700838,1.52139 0.172672,0.0183 -0.291515,-0.18903 -0.431818,-0.29133 -0.452949,-0.33024 -0.880558,-0.6963 -1.349455,-1.00347 -0.636098,-0.41671 -1.262912,-0.86429 -1.961221,-1.16533 -1.198772,-0.51679 -5.932914,-1.88163 -6.135455,-1.69944 -0.974389,0.87652 -1.387004,8.90336 -1.223497,10.55267 0.05336,0.53825 -0.01669,1.31332 0.467802,1.55377 0.437423,0.21709 0.702149,-1.97316 0.719712,-2.10406"
       id="path1348" /><path
       style="fill:none;stroke:#ffffff;stroke-width:1"
       d="m 46.426706,372.30964 c -1.310479,-3.33812 -0.71342,-1.09458 0,0 2.102178,3.22533 4.798713,6.14664 7.179085,9.17694 0.324495,0.41309 1.242504,1.61907 1.655315,2.20117 0.04015,0.0566 0.164809,0.21782 0.107945,0.17803 -2.392244,-1.67366 -4.648042,-6.42488 -5.955546,-8.86941 -0.378458,-0.70757 -0.572971,-1.56743 -1.169546,-2.10406 -0.472937,-0.42543 -1.211503,-0.38845 -1.817253,-0.58267 z"
       id="path1350" /><path
       style="fill:none;stroke:#ffffff;stroke-width:1"
       d="m 48.495872,369.63912 c -1.98297,3.48497 -3.947737,7.11215 -5.379802,10.87636 -0.124487,0.32722 -0.477579,0.75203 -0.25187,1.01966 0.182644,0.21657 0.47227,-0.32785 0.64771,-0.55029 0.45906,-0.58206 0.872112,-1.2024 1.241507,-1.8451 1.437852,-2.50171 2.206403,-4.96017 3.040753,-7.67173 0.192032,-0.62409 0.100468,-2.08362 0.701702,-1.8289 1.124315,0.47632 1.200753,2.17059 2.087136,3.01041 0.475559,0.45058 3.001984,1.42916 3.832429,1.78037 0.323625,0.13686 1.135626,0.77446 0.935643,0.48554 -0.218906,-0.31625 -0.431832,-0.63661 -0.64775,-0.95492"
       id="path1352" /><path
       style="fill:none;stroke:#ffffff;stroke-width:1"
       d="m 47.758187,371.32236 c -0.209913,-0.51792 -0.111818,-1.76368 -0.629738,-1.55377 -0.517922,0.20992 0.269375,1.12663 0.629738,1.55377 0.68621,0.81335 1.691087,1.30492 2.428983,2.07169 2.868496,2.98073 5.035743,7.17303 5.307838,11.32954"
       id="path1354" /><path
       style="fill:none;stroke:#ffffff;stroke-width:1"
       d="m 90.805863,424.56391 c -0.199115,3.12052 -0.452358,6.24103 -0.359857,9.37116 0.03332,1.12747 0.174204,2.34906 0.287895,2.36301 0.276204,0.0339 0.401072,-1.40682 0.449829,-2.36301 0.04429,-0.86848 0.26311,-9.22445 -0.377867,-9.37116 -1.490202,-0.34112 -8.063053,5.7495 -3.544533,2.1688"
       id="path1356" /><path
       style="fill:none;stroke:#ffffff;stroke-width:1"
       d="m 85.426064,437.12353 c 3.334011,0.618 6.344867,-1.74851 9.590095,-1.1977"
       id="path1358" /><path
       style="fill:none;stroke:#ffffff;stroke-width:1"
       d="m 79.902336,432.17089 c -3.124091,-0.9436 -1.537671,-0.86091 -4.120282,-0.46937 -1.033161,0.15664 -1.813012,0.26477 -2.842831,0.30752 -1.484575,0.0616 -0.557909,-0.0162 -1.637348,-0.0324 -1.819098,-0.0273 -1.741845,0.66684 -0.64775,-0.40463 0.688803,-0.67457 4.189251,-4.55384 3.850439,-5.66478 -0.36403,-1.19363 -1.253792,-0.76485 -1.871247,-0.38844 -2.019187,1.2309 -3.857945,3.72086 -4.012335,6.13414 -0.164436,2.57031 2.890353,3.6435 4.210254,5.29251 0.995193,1.24335 1.323744,2.40496 1.781272,3.86824"
       id="path1360" /><path
       style="fill:none;stroke:#ffffff;stroke-width:1"
       d="m 117.95886,420.72349 c -0.0357,1.71663 -1.68605,9.68986 -0.82766,10.82782 0.0846,0.11219 0.16628,-0.23534 0.19792,-0.37226 0.19152,-0.82881 0.34543,-1.66689 0.4678,-2.50869 0.95952,-6.60029 0.16194,-0.98792 0.16194,-7.94687 0,-0.89533 0.31493,-1.7756 0.2879,-2.67053 -0.0139,-0.45921 -1.00654,0.0313 -1.33149,0.35607 -0.2573,0.25717 -4.16659,4.62893 -2.78884,4.62893"
       id="path1362" /><path
       style="fill:none;stroke:#ffffff;stroke-width:1"
       d="m 113.33476,428.03915 c -0.84727,1.72521 -3.00855,2.64537 -3.6705,4.4509 -0.16326,0.44531 0.955,0.15083 1.42142,0.0647 3.44389,-0.6357 6.64398,-1.93826 10.20183,-1.7318"
       id="path1364" /><path
       style="fill:none;stroke:#ffffff;stroke-width:1"
       d="m 107.54115,428.00677 c -2.25908,-1.26267 -1.24036,-1.10796 -3.63451,-0.98729 -4.282691,0.28967 -0.605,0.0673 -4.264252,0.2266 -0.98983,0.0431 -4.068924,0.49839 -4.192283,0.33988 -0.269547,-0.34635 0.488651,-0.73455 0.791675,-1.05202 1.864688,-1.95359 4.96691,-4.28699 5.50572,-7.05669 0.17592,-0.90432 -1.41061,-0.0985 -2.015178,0.5341 -2.118354,2.21641 -3.309146,4.74863 -4.192286,7.67172 -1.54483,5.11323 7.901104,3.43867 8.888354,6.99196"
       id="path1366" /></g></svg>
