<?xml version="1.0" encoding="UTF-8" standalone="no"?>
<!-- Created with Inkscape (http://www.inkscape.org/) -->

<svg
   width="339.95258mm"
   height="408.81741mm"
   viewBox="0 0 339.95257 408.81743"
   version="1.1"
   id="svg12"
   inkscape:version="1.2.1 (9c6d41e410, 2022-07-14, custom)"
   sodipodi:docname="llc_hot_dog.svg"
   xml:space="preserve"
   xmlns:inkscape="http://www.inkscape.org/namespaces/inkscape"
   xmlns:sodipodi="http://sodipodi.sourceforge.net/DTD/sodipodi-0.dtd"
   xmlns="http://www.w3.org/2000/svg"
   xmlns:svg="http://www.w3.org/2000/svg"><sodipodi:namedview
     id="namedview14"
     pagecolor="#000000"
     bordercolor="#ffffff"
     borderopacity="1"
     inkscape:showpageshadow="0"
     inkscape:pageopacity="0"
     inkscape:pagecheckerboard="0"
     inkscape:deskcolor="#000000"
     inkscape:document-units="mm"
     showgrid="true"
     inkscape:zoom="0.39540119"
     inkscape:cx="566.51322"
     inkscape:cy="680.32167"
     inkscape:window-width="1366"
     inkscape:window-height="746"
     inkscape:window-x="1360"
     inkscape:window-y="0"
     inkscape:window-maximized="1"
     inkscape:current-layer="layer1"
     inkscape:lockguides="true" /><defs
     id="defs9"><rect
       x="587.26367"
       y="362.45731"
       width="66.575974"
       height="20.973427"
       id="rect1884" /></defs><g
     inkscape:label="Layer 1"
     inkscape:groupmode="layer"
     id="layer1"
     transform="translate(42.809081,-219.68475)"><path
       style="fill:none;stroke:#ffffff;stroke-width:1"
       d="m 53.393249,224.656 c 0.119952,0.73373 0.332169,1.45823 0.359858,2.20118 0.133336,3.57794 -0.346139,7.33123 -0.683734,10.89255 -0.0037,0.0386 -0.48822,3.48452 -0.413808,4.35379 0.02498,0.2918 0.05998,-0.58266 0.08997,-0.87399"
       id="path1526" /><path
       style="fill:none;stroke:#ffffff;stroke-width:1"
       d="m 51.737931,228.50806 c 0.503799,-1.24086 0.500798,-2.8438 1.51139,-3.72257 0.851205,-0.74017 2.233182,-0.68245 3.346617,-0.50174 4.847143,0.7867 5.750819,8.06561 4.983961,11.718 -0.286519,1.36464 -0.830101,2.68397 -1.511389,3.9006 -0.62143,1.10974 -4.020913,5.35678 -4.929968,1.61851 -0.215609,-0.88663 -0.07196,-1.82352 -0.107945,-2.73529"
       id="path1528" /><path
       style="fill:none;stroke:#ffffff;stroke-width:1"
       d="m 94.295385,228.00935 c -3.531759,1.39968 -6.171375,4.83066 -6.909202,8.5781 -0.127188,0.64599 -0.130868,1.73477 0.503822,1.90983 6.091819,1.68022 16.654775,-9.81405 9.859939,-13.04517 -2.368204,-1.12614 -10.556476,1.83521 -8.15067,3.6902"
       id="path1536" /><path
       style="fill:none;stroke:#ffffff;stroke-width:1"
       d="m 162.45217,220.15656 c -1.21096,0.42482 -5.67251,6.81927 -2.80685,7.49369 2.63178,0.61938 5.90351,-1.89362 7.64689,-3.43123 0.82281,-0.72569 2.55242,-1.98728 1.78127,-2.76765 -1.2116,-1.22609 -3.91846,0.66209 -3.59852,2.20117 1.4019,6.74399 9.26772,14.83479 3.05872,21.47759 -4.31825,4.61994 -11.06567,4.20702 -12.30694,-2.75146 -0.19778,-1.10875 0.19193,-2.24433 0.2879,-3.36649"
       id="path1540" /><path
       style="fill:none;stroke:#ffffff;stroke-width:1"
       d="m 126.16209,250.83686 c -2.38575,0.45984 -6.08873,0.0901 -8.7804,0.0971 -8.74809,0.0225 -17.441614,-1.00276 -26.179254,-1.31099 -13.603994,-0.4799 -27.17814,0.0104 -40.771317,0.33988 -4.699347,0.1139 -9.38538,-0.17184 -14.088205,0.0486 -7.656571,0.35891 -15.253801,1.66722 -22.904598,1.9584 -4.3963354,0.16731 -8.8935165,0.26978 -13.24257584,-0.37226 -0.86964383,0.39384 -1.67957886,0.96313 -2.60893146,1.18151 -0.5857555,0.13764 -1.1975404,-0.14277 -1.7992434,-0.14567 -1.6437517,-0.008 -3.2870497,0.0617 -4.9300103,0.1133 -3.532142,0.11093 -6.984223,0.1263 -10.471667,-0.53411 -0.02999,1.31099 -0.09803,2.62166 -0.08997,3.93297 0.01691,2.75406 0.427113,5.51216 0.485813,8.27057 0.210197,9.87765 -0.170558,19.80708 -0.359857,29.68343 -0.0577,3.01046 -0.09884,6.02134 -0.179949,9.03126 -0.05937,2.20328 -0.475511,5.14572 0.125956,7.36422"
       id="path1542" /><path
       style="fill:none;stroke:#ffffff;stroke-width:1"
       d="m -40.197711,331.89172 c -0.275104,3.32936 -1.566642,8.38221 -0.971626,11.70182"
       id="path1544" /><path
       style="fill:none;stroke:#ffffff;stroke-width:1"
       d="m -38.974214,338.43049 c 3.131084,-0.50587 6.224418,-1.26243 9.374125,-1.65087 0.551381,-0.068 1.392113,0.29502 1.655317,-0.19423 0.376377,-0.69962 0.407073,-5.49891 0.431861,-6.45784 0.02549,-0.98592 -0.0041,-1.45245 -0.125956,-2.3792 -0.02935,-0.22323 -0.06567,-0.88052 -0.125956,-0.66359 -0.397217,1.42941 -0.255314,4.01923 -0.305864,5.24396 -0.110156,2.6689 -0.212984,4.92514 -0.161937,7.63935 0.01248,0.66357 0.09003,8.86635 1.29546,8.91798"
       id="path1546" /><path
       style="fill:none;stroke:#ffffff;stroke-width:1"
       d="m -36.927347,382.11982 c -3.002036,3.32477 -8.235041,19.9382 0.215889,19.77816 5.328464,-0.10091 8.466731,-8.14921 9.392137,-12.21972 0.332828,-1.46399 1.053475,-3.11668 0.43182,-4.48328 -2.489366,-5.4724 -7.213804,-0.70228 -9.374126,1.47285 -3.334117,3.35697 -2.801107,2.97819 -1.51139,2.2821"
       id="path1548" /><path
       style="fill:none;stroke:#ffffff;stroke-width:1"
       d="m -36.034955,438.28556 c -0.389638,5.41748 -1.235236,10.81922 -1.151533,16.266 0.0186,1.21014 0.113684,2.41811 0.197919,3.62545 0.0059,0.0842 0.07446,0.32716 0.07196,0.24279 -0.01443,-0.48668 -0.07196,-0.97111 -0.107945,-1.45666"
       id="path1550" /><path
       style="fill:none;stroke:#ffffff;stroke-width:1"
       d="m -42.764208,440.61622 c 5.159124,-0.46489 15.303813,-5.11323 19.881857,-3.01043"
       id="path1552" /><path
       style="fill:none;stroke:#ffffff;stroke-width:1"
       d="m -39.300581,489.93162 c -0.06597,0.72294 -0.172714,1.4433 -0.197919,2.1688 -0.158837,4.57189 -0.05513,9.16657 -0.08998,13.74113 -0.0022,0.28781 -0.115042,5.90599 0.03598,3.52835"
       id="path1554" /><path
       style="fill:none;stroke:#ffffff;stroke-width:1"
       d="m -38.418971,492.03568 c 1.019588,-0.52871 1.914799,-1.48396 3.058763,-1.58613 1.422276,-0.12703 3.373239,2.71474 3.778436,3.4636 3.118643,5.7637 0.927081,12.61678 -3.040752,17.31803 -1.308993,1.55094 -6.328601,6.64997 -4.858006,0.45318"
       id="path1556" /><path
       style="fill:none;stroke:#ffffff;stroke-width:1"
       d="m -33.129144,560.14248 c -0.449804,0.41539 -0.84446,0.89995 -1.349412,1.24624 -1.496028,1.02595 -2.314933,-4.08234 -2.195123,-7.31565 0.09983,-2.69423 0.506182,-8.39465 3.688502,-9.72725 4.650374,-1.94733 6.297706,9.47957 6.405378,10.50412 0.211677,2.01419 -1.526178,9.68573 -4.678098,9.2093 -3.284388,-0.49644 -2.636427,-8.60603 -2.608931,-10.37463"
       id="path1558" /><path
       style="fill:none;stroke:#ffffff;stroke-width:1"
       d="m -36.547723,585.16457 c -0.28189,-0.53948 -0.30617,-1.90039 -0.84567,-1.61848 -0.539499,0.28189 1.277544,1.18954 0.84567,1.61848 -0.608934,0.60484 -1.872528,-0.39888 -2.57295,0.0971 -0.869804,0.61595 -1.196012,5.48468 -1.169504,5.77808 0.09704,1.07397 0.428318,2.14955 0.953574,3.09134 2.992122,5.36493 11.99017,2.02366 10.057898,-4.4509 -0.238972,-0.80074 -0.415452,-2.57739 -1.169545,-2.21734 -1.062837,0.50744 -1.098566,2.15849 -1.169504,3.33412 -0.245717,4.07214 2.066907,8.94942 3.616539,12.55961 0.228726,0.53287 1.925199,3.75012 1.925199,4.95263 0,1.02145 -2.375406,1.4588 -2.536968,1.48902 -3.434032,0.64262 -10.273414,0.38642 -12.091043,-3.15608"
       id="path1560" /><path
       style="fill:none;stroke:#ffffff;stroke-width:1"
       d="m -11.836533,570.07 c -0.866209,-14.80619 2.5116468,-30.20023 2.2311038,-45.25346 -0.3968778,-21.29557 -2.6689738,-42.53529 -2.9867568,-63.83395 -0.141848,-9.50698 0.410255,-19.01069 0.359815,-28.51811 -0.104741,-19.74063 -0.137226,-39.70243 -1.367383,-59.39921 -0.946451,-15.15421 -3.837781,-30.1127 -5.145899,-45.22107 -0.608017,-7.02244 -0.455949,-10.12963 -0.575787,-18.1273 2.115496,0.83821 4.973135,2.45976 7.592894,2.65435 7.2250229,0.53666 14.5978253,-0.17412 21.843078,0 17.255079,0.4147 34.418343,-0.82196 51.674806,-1.35954 10.053735,-0.31319 20.161224,-0.0535 30.227567,-0.16185 15.099975,-0.16248 30.198625,0.56064 45.305455,0.48557 12.93531,-0.0643 25.85148,-0.74267 38.79208,-0.61504 12.68452,0.1251 25.51982,1.04059 38.18036,0.12947"
       id="path1562" /><path
       style="fill:none;stroke:#ffffff;stroke-width:1"
       d="m 35.951934,249.79978 c -0.363549,13.74833 -1.289744,27.6353 -1.043589,41.43377 0.07804,4.37439 0.823839,8.72268 0.899581,13.10991 0.1544,8.94331 -0.182089,17.94351 0.64775,26.86722 0.313026,3.36614 1.336845,6.64331 1.547413,10.00238 0.361493,5.76659 0.302387,11.57584 0.611728,17.3504 0.240477,4.48905 0.945904,8.92359 1.187516,13.40123 0.324474,6.01329 0.09951,12.04601 0.251912,18.06253 0.247751,9.78092 1.051915,19.57396 1.007565,29.35972 -0.02564,5.65548 -0.723032,11.31189 -0.25191,16.96196 0.68684,8.23714 3.052972,16.28243 3.526523,24.53657 0.234614,4.08939 0.423699,8.30613 0.287936,12.39777 -0.19104,5.75747 -1.11097,11.43694 -0.647753,17.22094 0.574363,7.17177 1.821159,14.23271 2.267045,21.429 0.900459,14.53282 0.989243,29.01588 0.64775,43.57021 -0.272103,11.59706 -1.317757,23.83541 3.238672,34.76553"
       id="path1564" /><path
       style="fill:none;stroke:#ffffff;stroke-width:1"
       d="m 80.177773,250.9651 c 0.173648,31.26823 0.752673,62.60167 2.914795,93.80867 2.146377,30.97973 5.788885,61.82528 7.592894,92.83757 1.217377,20.92763 0.427119,41.98066 0.683691,62.92756 0.157771,12.88055 0.783577,25.7851 1.403405,38.64996 0.342273,7.10406 2.034469,15.03114 1.259478,22.17354"
       id="path1566" /><path
       style="fill:none;stroke:#ffffff;stroke-width:1"
       d="m 122.5324,252.09806 c 27.35349,2.98495 54.92594,1.77585 82.37026,4.111"
       id="path1568" /><path
       style="fill:none;stroke:#ffffff;stroke-width:1"
       d="m 138.54581,255.43218 c -1.21464,19.76708 -1.58979,39.59682 -2.01513,59.39922 -0.17345,8.07497 -1.13055,16.06196 -1.58336,24.11576 -0.51159,9.09933 -0.50696,18.31116 -0.21597,27.41751 0.27223,8.51909 0.6535,17.17664 1.40349,25.66952 1.01834,11.53167 3.38705,22.93651 4.67802,34.44182 1.96065,17.4737 2.16965,35.11324 4.06636,52.60149 2.13019,19.64083 4.46018,39.31175 6.90913,58.91365 1.31959,10.56227 3.25517,20.94354 3.6345,31.59326"
       id="path1570" /><path
       style="fill:none;stroke:#ffffff;stroke-width:1"
       d="m -12.66415,369.95774 c 3.469415,0.13719 3.9354257,0.0873 7.7007983,0.58267 4.68934268,0.61689 9.2333576,1.51321 13.9623296,1.87746 6.7103231,0.51686 13.4401001,0.56867 20.1517411,1.06821 4.511188,0.33577 13.294005,1.23995 17.812646,1.26244 10.670458,0.0531 21.312682,-1.25988 31.990869,-1.2948 12.317372,-0.0403 24.601936,0.97111 36.920876,0.97111 19.55168,0 39.10269,-0.57408 58.65598,-0.38845 16.17314,0.15355 32.33179,0.77631 48.5081,0.80926 17.11235,0.0349 34.19928,-0.57716 51.31491,-0.35607 7.57756,0.0979 15.22957,0.33213 22.7067,1.58612"
       id="path1572" /><path
       style="fill:none;stroke:#ffffff;stroke-width:1"
       d="m -12.844098,428.19163 c 1.799269,-0.1079 3.5954118,-0.34308 5.3978117,-0.32371 3.0475237,0.0328 6.0572808,0.77637 9.1042833,0.84163 3.2562826,0.0697 11.508176,-0.41219 14.466075,-0.51792 23.276126,-0.83194 46.665477,-2.35649 69.955256,-2.10406 31.609702,0.3426 63.143122,3.27301 94.749072,3.88442 19.9049,0.38505 39.82663,-0.63492 59.7355,-0.48555 11.36808,0.0853 23.51299,-0.14196 34.9777,1.10058"
       id="path1574" /><path
       style="fill:none;stroke:#ffffff;stroke-width:1"
       d="m -11.454499,476.06909 c 4.0445029,1.27776 8.2372147,1.02547 12.41491938,0.67977 8.30893522,-0.68754 16.50117062,-2.38446 24.79381262,-3.20462 11.12048,-1.09985 18.857029,-1.65089 29.687885,-1.65089 19.445856,0 38.759256,3.20105 58.188082,3.91679 23.23155,0.85582 24.81345,0.29868 43.93799,1.23007 17.50514,0.85252 34.93842,2.12256 52.46648,2.52485 17.26831,0.39635 34.4885,0.0185 51.74685,-0.4208"
       id="path1576" /><path
       style="fill:none;stroke:#ffffff;stroke-width:1"
       d="m -6.632473,527.31103 c 3.7013383,0.10297 3.6653258,0.19907 7.55695238,-0.12949 6.51288802,-0.54983 7.23275312,-0.92959 13.63837362,-1.10059 6.720991,-0.17938 13.428514,0.64858 20.151738,0.42082 12.70349,-0.43031 25.302236,-2.32931 38.00041,-2.94565 17.584986,-0.85358 35.194259,-0.23866 52.790359,-0.55031 17.37783,-0.30779 34.77649,-1.01317 52.14261,-1.68325 24.09492,-0.92975 48.18239,-3.41818 72.29435,-3.59307"
       id="path1578" /><path
       style="fill:none;stroke:#ffffff;stroke-width:1"
       d="m -10.338947,542.52499 c 0.263893,1.26244 0.7548036,2.49812 0.7916786,3.78733 0.2338969,8.17782 -1.5252616,16.85581 -1.9072306,25.02212 -0.572765,12.24547 -0.820597,24.49542 -1.439344,36.74012 -0.0072,0.14235 -1.456727,11.64064 0.467799,13.66017 1.835239,-0.99268 3.4454523,-2.64816 5.5057181,-2.97804 4.1100674,-0.65809 8.3247572,0.0475 12.4868816,0.0971 5.7824233,0.0689 11.5623683,0.29198 17.3448473,0.35606 13.188315,0.14615 26.362546,-0.27944 39.5118,-1.32715 12.800736,-1.01995 25.532912,-2.78547 38.324287,-3.91681 14.07396,-1.24478 28.33056,-2.10795 42.46262,-2.55723 31.321,-0.99574 62.73367,-1.30722 94.06538,-0.67977 13.33941,0.26714 26.67186,0.82434 40.01562,1.03583"
       id="path1580" /><path
       style="fill:none;stroke:#ffffff;stroke-width:1"
       d="m 53.211014,527.40813 c -3.230219,21.31203 -5.147326,42.82239 -6.153468,64.35185 -0.270203,5.78184 -1.644634,18.23352 1.403406,23.6302 0.186341,0.32991 0.719685,-0.23738 1.079529,-0.35607"
       id="path1582" /><path
       style="fill:none;stroke:#ffffff;stroke-width:1"
       d="m 96.213396,535.95388 c -0.743366,19.03537 -0.913532,38.30786 0.935603,57.29512 1.733251,17.79736 0.01545,13.32757 3.634511,21.36431"
       id="path1586" /><path
       style="fill:none;stroke:#ffffff;stroke-width:1"
       d="m 152.38635,544.07876 c 0.23991,1.18692 0.65835,2.35138 0.71971,3.56071 1.00119,19.73149 -1.10171,39.5288 -0.28793,59.26976 0.007,0.16476 0.22122,18.90488 3.09475,21.20241"
       id="path1588" /><path
       style="fill:none;stroke:#ffffff;stroke-width:1"
       d="m -10.383381,576.6133 c 12.5297088,-4.24529 25.742773,-5.21039 38.792086,-6.70062 3.499033,-0.39958 8.308152,-1.06953 11.911092,-1.26244 8.058102,-0.43145 16.115315,0.13065 24.182088,-0.22659 20.631274,-0.91363 41.030205,-1.56855 61.678675,-0.19423 15.61011,1.039 31.21015,2.2461 46.81684,3.33412 8.5152,0.59365 17.11256,1.57139 25.65745,1.45667 12.08108,-0.16219 24.09656,-0.9575 36.0213,-2.9133 7.03133,-1.15324 20.11011,-5.00748 27.16877,-3.94915"
       id="path1606" /><path
       style="fill:none;stroke:#ffffff;stroke-width:1"
       d="m 8.7614429,296.57008 c -1.22351,0.0539 -2.6478653,0.83566 -3.6705301,0.16184 -5.88625946,-3.87842 -0.3733456,-26.30295 7.6648542,-27.19092 7.673639,-0.8477 5.373169,15.38439 3.562546,18.45098 -0.691584,1.17132 -7.9708557,13.91976 -13.2065947,7.28329 -1.0405877,-1.31897 0.2892346,-6.56393 0.7197143,-8.54573"
       id="path1610" /><path
       style="fill:none;stroke:#ffffff;stroke-width:1"
       d="M -1.2784441,306.57246 C 8.2493154,293.5953 15.825521,279.09575 19.772875,263.45541"
       id="path1612" /><path
       style="fill:none;stroke:#ffffff;stroke-width:1"
       d="m 59.392659,296.44059 c -0.93563,1.23007 -1.48744,2.88552 -2.80689,3.6902 -2.011048,1.22646 -2.402853,-4.31359 -2.339009,-6.66826 0.162147,-5.98017 1.826627,-11.98966 4.174275,-17.4475 1.917332,-4.45744 5.316159,-7.90959 6.081504,-5.72951 1.500846,4.27517 1.105037,9.03678 0.899662,13.56309 -0.05612,1.23678 -2.616559,12.77635 -6.009542,12.59198 -1.979215,-0.10754 -0.791675,-3.88442 -1.187513,-5.82663"
       id="path1614" /><path
       style="fill:none;stroke:#ffffff;stroke-width:1"
       d="m 50.288376,307.44645 c 6.334072,-17.43309 14.591175,-34.16041 23.282423,-50.52981"
       id="path1616" /><path
       style="fill:none;stroke:#ffffff;stroke-width:1"
       d="m 106.64128,295.4695 c -3.17129,-4.39937 -3.90837,-4.0472 -3.77844,-10.06713 0.0982,-4.5519 1.26982,-9.77788 3.81438,-13.66018 4.88508,-7.45331 11.97128,-2.76992 12.84678,4.49943 0.77179,6.40822 -3.41119,11.70696 -7.95279,15.50531 -1.57956,1.32106 -3.6166,5.30856 -4.92993,3.72257 -2.14136,-2.58593 -0.21592,-6.71142 -0.32388,-10.06713"
       id="path1618" /><path
       style="fill:none;stroke:#ffffff;stroke-width:1"
       d="m 97.860871,304.72735 c 8.155309,-15.90024 21.350709,-28.3119 33.106419,-41.49853"
       id="path1620" /><path
       style="fill:none;stroke:#ffffff;stroke-width:1"
       d="m 173.89771,293.36543 c -6.77559,12.43467 -7.06406,-0.3963 -2.33909,-14.4047 3.78123,-11.21045 14.91348,-15.17607 11.83913,-1.06822 -0.40392,1.85356 -1.13363,3.64828 -2.05115,5.30869 -1.13695,2.05752 -2.67674,3.86581 -4.06629,5.7619 -1.09391,1.49268 -1.53201,4.40976 -3.3826,4.40233 -5.81008,-0.0233 -4.66491,-6.08571 -4.64216,-8.93416"
       id="path1622" /><path
       style="fill:none;stroke:#ffffff;stroke-width:1"
       d="m 163.53395,304.40366 c 4.8006,-13.87705 14.61661,-25.79997 24.36195,-36.57826 1.8483,-2.04421 3.85336,-3.94359 5.86562,-5.82663 3.96272,-3.70825 3.0134,-4.78327 4.28226,-2.88094"
       id="path1624" /><path
       style="fill:none;stroke:#ffffff;stroke-width:1"
       d="m 3.5435792,331.36799 c -5.3820562,3.0868 -12.4280823,19.87418 -2.73492646,22.10879 8.89769136,2.05123 22.12242626,-10.86391 13.45850726,-20.71689 -3.332668,-3.79004 -8.4352499,-4.76195 -13.2065948,-4.46706 -3.6710805,0.22688 0.7945966,1.96045 2.483014,3.07516 z"
       id="path1626" /><path
       style="fill:none;stroke:#ffffff;stroke-width:1"
       d="m 20.600573,322.69279 c -5.839894,9.25371 -22.2226473,25.72276 -21.8790171,37.16092"
       id="path1628" /><path
       style="fill:none;stroke:#ffffff;stroke-width:1"
       d="m 13.318896,393.0933 c -0.443815,-0.94953 -0.324998,-2.55594 -1.331444,-2.84857 -1.527635,-0.44418 -5.3531612,6.59194 -6.4413183,10.19659 -0.6400033,2.1201 -0.7747265,4.46766 -0.3238738,6.63587 0.6568202,3.15875 4.8503571,2.86466 6.8371561,2.29829 5.888471,-1.67859 11.328072,-7.05619 13.278559,-12.81857 1.557358,-4.60097 1.254376,-9.69134 -4.750062,-7.18618 -2.512359,1.04821 -5.015812,2.19491 -7.269017,3.72257 -3.275507,2.22077 -3.719187,2.90603 -5.1818406,4.95264"
       id="path1630" /><path
       style="fill:none;stroke:#ffffff;stroke-width:1"
       d="m 23.322842,379.82154 c -3.797385,9.28366 -9.377368,17.65892 -13.7823837,26.64062 -1.7565608,3.58157 -5.2924339,9.94885 -4.7140389,14.50183"
       id="path1632" /><path
       style="fill:none;stroke:#ffffff;stroke-width:1"
       d="m 14.602308,443.88864 c -5.3269993,4.85175 -6.2194098,4.28421 -8.3126079,10.84398 -4.9122885,15.39438 11.4502669,3.77922 15.0418609,-0.42081 2.603069,-3.04406 6.500884,-8.57392 2.087177,-12.17118 -0.935964,-0.76283 -2.234224,-1.43251 -3.418621,-1.19769 -2.010616,0.39864 -3.598539,1.9638 -5.397809,2.9457 z"
       id="path1634" /><path
       style="fill:none;stroke:#ffffff;stroke-width:1"
       d="m 24.894107,429.54866 c -3.316674,10.39868 -7.961807,20.21111 -12.846698,29.94237 -2.751566,5.48144 -6.9668864,11.42639 -4.3182829,10.42319"
       id="path1636" /><path
       style="fill:none;stroke:#ffffff;stroke-width:1"
       d="m 13.918617,493.96525 c -3.64262,5.54635 -9.3741429,10.08136 -7.6289169,17.28565 0.4386395,1.8107 1.2863539,3.82384 2.8788545,4.79078 8.3135094,5.04786 20.8677454,-10.59878 20.1517384,-18.38624 -0.101196,-1.10061 -0.610246,-2.38924 -1.583354,-2.91332 -5.307494,-2.85848 -11.808886,5.12294 -14.753926,7.96306 -0.906574,0.87429 1.72393,-1.83939 2.518957,-2.8162"
       id="path1638" /><path
       style="fill:none;stroke:#ffffff;stroke-width:1"
       d="m 28.708565,481.63223 c -4.864922,12.17832 -10.775656,23.9569 -15.509663,36.18978 -1.311047,3.38783 -2.551477,6.5014 -1.475369,6.7654 0.351824,0.0863 0.527785,-0.49636 0.791678,-0.74454"
       id="path1640" /><path
       style="fill:none;stroke:#ffffff;stroke-width:1"
       d="m 17.22925,544.04185 c -6.616533,-0.40775 -10.0403449,11.83603 -4.246237,14.6313 6.156544,2.97013 19.715665,-8.45667 15.797514,-15.14922 -2.370296,-4.04868 -8.859266,-1.31633 -11.551277,0.51792 -1.752595,1.19417 -3.050532,2.94963 -4.49815,4.49945 -0.617132,0.66072 -2.175017,2.68822 -1.331441,2.36302 0.427233,-0.16473 0.647695,-0.64741 0.971545,-0.9711"
       id="path1642" /><path
       style="fill:none;stroke:#ffffff;stroke-width:1"
       d="m 24.53429,530.77009 c -3.258037,7.10543 -4.29346,14.57068 -5.253884,22.23828 -0.520441,4.15496 -1.357577,9.26991 -0.899663,13.59548"
       id="path1644" /><path
       style="fill:none;stroke:#ffffff;stroke-width:1"
       d="m 20.000117,594.6364 c -5.976516,1.51564 -9.169651,17.72886 -1.115552,18.15962 6.565358,0.35116 18.696294,-11.83711 8.132659,-18.192 -4.464875,-2.68603 -9.563406,1.38348 -12.666829,3.56068 -0.665564,0.46694 -2.123278,2.43337 -1.475369,1.94225 1.020331,-0.77345 1.791353,-1.84229 2.806893,-2.62202 1.367732,-1.0501 2.878799,-1.89902 4.318198,-2.84853 z"
       id="path1646" /><path
       style="fill:none;stroke:#ffffff;stroke-width:1"
       d="m 23.92248,586.31724 c 0.467829,-1.30559 0.880703,-2.63218 1.403488,-3.91676 0.522782,-1.28458 -1.279469,2.53545 -1.403488,3.91676 -0.298241,3.32184 0.469908,6.67435 0.251913,10.00241 -0.546881,8.34896 -3.073199,16.46018 -3.598487,24.86025 -0.235831,3.77124 -0.02302,2.80271 0.503743,1.42428"
       id="path1648" /><path
       style="fill:none;stroke:#ffffff;stroke-width:1"
       d="m 55.512121,334.08858 c -4.910859,4.70874 -4.170402,3.08014 -6.585328,12.13881 -4.647234,17.43232 31.344653,-0.82298 17.452832,-10.16421 -2.523061,-1.69658 -8.340341,-1.75376 -10.867504,-1.9746 z"
       id="path1650" /><path
       style="fill:none;stroke:#ffffff;stroke-width:1"
       d="m 61.557602,323.60066 c -1.055542,1.67245 -2.508697,3.15232 -3.166626,5.01737 -2.980235,8.44814 -1.743133,27.28778 0.935601,35.80138"
       id="path1652" /><path
       style="fill:none;stroke:#ffffff;stroke-width:1"
       d="m 37.231588,348.97886 c -0.703786,-4.94949 -10.769833,2.92783 -12.091043,1.78035 -1.429903,-1.24188 5.454076,-9.20783 6.585329,-10.32607 1.676775,-1.65748 1.15049,-1.00094 2.662883,-2.39539 0.106169,-0.0979 0.415451,-0.39149 0.287933,-0.32371 -4.030073,2.14217 -9.780421,9.85085 -9.392137,14.56657 0.134292,1.63095 0.700717,3.23338 1.439346,4.69368 2.049243,4.05143 9.068004,5.01083 12.738793,7.02431"
       id="path1654" /><path
       style="fill:none;stroke:#ffffff;stroke-width:1"
       d="m 123.66813,333.50593 c -8.62494,-2.41027 -14.84626,22.11016 -6.22543,23.46836 6.34691,0.99994 13.84498,-10.18738 14.28613,-15.63479 0.33924,-4.18906 -3.42532,-8.16907 -8.0607,-7.83357 -1.33272,0.0965 -7.00453,7.48899 -5.90155,4.40233"
       id="path1656" /><path
       style="fill:none;stroke:#ffffff;stroke-width:1"
       d="m 126.29508,323.85961 c -5.69402,8.06138 -5.45321,17.69656 -6.26146,27.12619 -0.10676,1.24559 -0.28477,6.69138 -1.00756,8.80469"
       id="path1658" /><path
       style="fill:none;stroke:#ffffff;stroke-width:1"
       d="m 108.41038,341.43661 c -0.68816,-4.39949 -15.566064,0.90725 -15.72555,-0.0971 -0.416107,-2.62038 9.66635,-10.1696 11.55128,-12.43013 1.21605,-1.45836 -3.18633,2.08257 -4.642077,3.30175 -1.412024,1.18257 -3.831985,3.61652 -4.750062,5.37345 -0.736746,1.40992 -1.56069,2.85686 -1.763303,4.4347 -0.681511,5.30726 3.517458,13.64735 9.716012,13.23939"
       id="path1660" /><path
       style="fill:none;stroke:#ffffff;stroke-width:1"
       d="m 185.38283,328.58566 c -1.33145,-0.0755 -2.72796,-0.64463 -3.99433,-0.22659 -5.43096,1.79281 -15.86095,16.75022 -11.94712,22.14118 5.28408,7.27835 26.59387,-4.87446 25.62152,-12.78621 -0.7382,-6.00649 -12.15448,-6.08198 -16.26532,-5.69714 -2.68041,0.25093 -4.93163,1.26681 -4.57019,0.29133"
       id="path1662" /><path
       style="fill:none;stroke:#ffffff;stroke-width:1"
       d="m 184.19531,319.61914 c -3.97045,9.40441 -4.98753,19.67554 -5.32577,29.78053 -0.0931,2.78062 -0.37972,8.50197 0.79168,11.36192"
       id="path1664" /><path
       style="fill:none;stroke:#ffffff;stroke-width:1"
       d="m 158.32197,342.8609 c -5.98962,-1.6735 -3.48351,-1.78938 -9.53615,-0.22659 -1.65102,0.42629 -3.27283,0.96039 -4.89399,1.48903 -0.59607,0.19437 -2.03154,1.2927 -1.72728,0.74451 2.38596,-4.2988 12.19795,-10.04636 11.73123,-14.66367 -0.0791,-0.7826 -2.02201,-0.51483 -2.12312,-0.48557 -3.71181,1.07429 -10.95162,6.67031 -9.93198,11.32955 1.48398,6.78104 10.86759,7.19401 10.86759,15.829"
       id="path1666" /><path
       style="fill:none;stroke:#ffffff;stroke-width:1"
       d="m 64.273743,395.27929 c -5.329767,3.18022 -12.885878,12.66343 -7.808865,19.13076 4.680879,5.96272 15.099382,2.62604 19.719959,-1.32717 4.716288,-4.03511 3.207917,-10.9365 -1.943253,-14.04866 -1.33236,-0.80496 -2.969469,-0.94027 -4.426186,-1.48902 -1.867553,-0.70352 -3.627061,-2.82895 -5.541655,-2.26591 -1.557848,0.45813 -1.274318,2.98745 -1.943254,4.46707 -0.06357,0.14063 -0.392657,0.45175 -0.251909,0.38845 0.251854,-0.11328 0.920832,-1.30313 0.935683,-1.32718"
       id="path1668" /><path
       style="fill:none;stroke:#ffffff;stroke-width:1"
       d="m 67.728302,387.8989 c -1.055569,1.953 -2.587821,3.71579 -3.166708,5.859 -0.591259,2.18901 -0.186881,4.53119 -0.25191,6.79772 -0.07893,2.75099 -0.05966,5.5049 -0.179951,8.25439 -0.14365,3.28336 -0.39328,6.56128 -0.611727,9.84052 -0.165389,2.48272 -0.38589,4.96166 -0.539766,7.44513 -0.219549,3.54341 -0.159078,2.97619 0.03602,1.74798"
       id="path1670" /><path
       style="fill:none;stroke:#ffffff;stroke-width:1"
       d="m 47.720492,405.47589 c -6.781089,-1.70132 -3.664281,-2.05352 -9.679991,0.55028 -1.406212,0.60866 -2.791994,1.26519 -4.210298,1.84511 -1.419821,0.58054 -2.899683,0.98116 -4.390245,1.32717 -0.543247,0.12611 -2.034127,0.0481 -1.619295,0.42082 0.447527,0.40211 1.488091,-0.80298 1.583354,-0.97112 1.54399,-2.72501 3.132511,-5.42593 4.606137,-8.18963 0.937006,-1.7573 3.369881,-4.47275 1.799243,-5.69716 -1.403575,-1.09418 -4.779155,2.73022 -5.829591,5.98848 -1.851956,5.74442 6.3236,10.63047 8.6364,15.37583 1.147897,2.35523 0.931598,5.89817 2.77087,7.73645"
       id="path1672" /><path
       style="fill:none;stroke:#ffffff;stroke-width:1"
       d="m 120.66259,395.57062 c -2.70908,6.1431 -1.8191,3.26397 -3.16671,12.33303 -0.22971,1.54584 -0.40064,3.10189 -0.50382,4.66129 -0.40048,6.05225 1.1707,7.0494 2.37503,-0.29132 0.43706,-2.66404 0.58291,-5.3686 0.79167,-8.06017 0.22316,-2.87719 2.67908,-6.74643 0.50383,-8.64283 -2.21228,-1.92868 -5.85029,0.71548 -8.67243,1.52139 -1.66603,0.47577 -2.53628,1.57127 -3.20273,2.33066"
       id="path1674" /><path
       style="fill:none;stroke:#ffffff;stroke-width:1"
       d="m 105.04502,417.42048 c 7.54658,-2.43045 3.79342,-1.73096 11.22732,-2.26593 1.49938,-0.1079 3.00122,-0.18585 4.49815,-0.32369 1.55043,-0.14276 3.09585,-0.33587 4.64216,-0.51793 1.27738,-0.1504 1.88527,-0.34961 2.98676,-0.29133 1.34886,0.0714 -2.68158,0.34773 -4.03035,0.42082 -4.26603,0.23116 -8.5862,0.39737 -12.8467,0.0324 -0.74596,-0.0639 -1.4871,-0.1753 -2.2311,-0.25896 -0.40756,-0.0458 -1.07218,0.25169 -1.22354,-0.12948 -0.03,-0.0755 1.93789,-0.57692 3.85048,-0.93873 1.85431,-0.35079 3.71565,-0.66394 5.57768,-0.97112 1.57036,-0.25906 12.22087,-2.39479 12.19903,-1.19768 -0.0103,0.56658 -0.40788,1.05742 -0.61181,1.58613"
       id="path1676" /><path
       style="fill:none;stroke:#ffffff;stroke-width:1"
       d="m 99.971082,391.29775 c -6.59647,-4.66766 -11.509824,-11.10661 -16.589192,-17.28565 -1.392841,-1.69439 -2.74334,-3.70854 -4.53417,-5.01737 -2.069552,-1.51252 2.492111,-0.72304 3.418618,-0.80926 3.335337,-0.31037 6.643171,-0.80847 9.967926,-1.19768 0.57346,-0.0671 1.152011,-0.0802 1.727279,-0.12949 0.180549,-0.0155 0.71914,-0.039 0.539766,-0.0647 -3.53336,-0.50671 -7.017401,-1.22656 -10.543712,-1.74799 -3.745981,-0.55392 -4.321199,9.09585 -4.786003,11.36192 -0.592706,2.88964 -1.166199,5.29938 -1.403406,8.18965 -0.0572,0.69702 -0.03883,2.26362 0.61173,2.00694 0.615329,-0.24277 0.983578,-0.88478 1.475367,-1.32717"
       id="path1678" /><path
       style="fill:none;stroke:#ffffff;stroke-width:1"
       d="m 189.5366,393.87017 c -0.0225,5.88256 -0.33815,11.75918 -0.3599,17.64173 -0.0107,2.89224 0.0901,4.80622 0.28793,4.82316 0.56516,0.0484 1.37985,-5.54847 1.6193,-7.08907 3.63885,-23.41248 -0.43096,8.17277 -1.54733,-15.37582 -0.12266,-2.58739 1.59485,-4.96672 1.8712,-7.54223 0.42115,-3.92499 -10.41126,7.10232 -11.04745,8.48098 -0.25937,0.56207 1.18496,-0.36196 1.7633,-0.58267"
       id="path1716" /><path
       style="fill:none;stroke:#ffffff;stroke-width:1"
       d="m 178.84896,415.00787 c 6.3397,3.01333 13.79769,-3.10035 19.57595,-0.0971"
       id="path1718" /><path
       style="fill:none;stroke:#ffffff;stroke-width:1"
       d="m 157.65363,404.29336 c -1.85922,-0.31291 -3.69699,-1.07165 -5.57768,-0.93873 -1.5932,0.1126 -3.00309,1.08893 -4.49815,1.65087 -1.06,0.39841 -2.1163,0.80699 -3.1667,1.23007 -2.96931,1.19597 -4.77192,2.65411 -1.58336,-0.45318 0.895,-0.87218 9.39736,-9.54832 8.20462,-10.35846 -3.82984,-2.60133 -12.1221,6.46111 -10.79554,10.1966 0.60544,1.70487 1.72767,3.23266 2.98676,4.53183 2.98202,3.07694 11.90457,3.35784 12.34296,8.35151"
       id="path1720" /><path
       style="fill:none;stroke:#ffffff;stroke-width:1"
       d="m 59.989686,442.13405 c -0.959591,0.17265 -2.193187,-0.17531 -2.878775,0.51794 -2.195645,2.22018 -4.185033,9.38703 -1.51139,12.07405 5.207185,5.23323 17.631431,-2.72941 19.144173,-8.31912 1.892374,-6.99249 -8.134972,-3.58918 -10.07591,-2.91332 -2.532446,-0.0463 -3.755911,2.41918 -5.829591,3.20465 -0.420111,0.15912 0.789768,-0.56788 0.899663,-1.00347 0.291071,-1.15372 0.167886,-2.37382 0.25183,-3.56073 z"
       id="path1722" /><path
       style="fill:none;stroke:#ffffff;stroke-width:1"
       d="m 67.078837,428.8623 c -1.58772,12.75304 -1.612017,25.65578 0.971544,38.29389"
       id="path1724" /><path
       style="fill:none;stroke:#ffffff;stroke-width:1"
       d="m 46.567199,449.0289 c -2.087123,-0.0755 -4.181647,-0.41776 -6.261369,-0.22659 -1.252287,0.11512 -2.397864,0.75908 -3.598569,1.13295 -4.098827,1.27629 -1.414211,0.54064 -0.107903,-1.29481 2.363118,-3.32032 3.156416,-4.84145 4.714039,-8.22202 0.246388,-0.53474 1.740996,-3.34065 0.503743,-3.85203 -2.498055,-1.03248 -11.18453,8.74968 -10.363681,11.8151 1.901444,7.10086 16.287498,3.84931 18.280448,13.17463"
       id="path1726" /><path
       style="fill:none;stroke:#ffffff;stroke-width:1"
       d="m 120.51686,443.04042 c -0.10796,1.10059 -0.17665,2.20574 -0.32387,3.30177 -0.69106,5.14489 -2.18355,10.46186 -1.58327,15.69951 0.0485,0.42329 0.63173,1.39838 0.79167,1.00349 1.29899,-3.20716 3.77267,-12.49155 3.20265,-16.6059 -0.18245,-1.31694 -1.83749,-2.09301 -2.08718,-3.39887 -0.29576,-1.54685 0.67403,-3.12452 0.53985,-4.69366 -0.0266,-0.31151 -0.89996,-0.24586 -0.93569,0.0647 -0.17694,1.53847 1.31977,3.38613 0.39584,4.62893 -0.85152,1.1454 -3.05137,-0.23031 -4.24623,0.5503 -1.2026,0.78566 -4.70017,7.80887 -3.3826,5.43818"
       id="path1732" /><path
       style="fill:none;stroke:#ffffff;stroke-width:1"
       d="m 110.94486,465.2787 c 4.54706,0.68981 17.61725,-4.42759 20.29566,-1.10056"
       id="path1734" /><path
       style="fill:none;stroke:#ffffff;stroke-width:1"
       d="m 119.94116,433.23226 c 0.2399,-2.19037 0.52073,-4.37666 0.71971,-6.57113 0.12495,-1.37802 0.12037,-2.76596 0.25183,-4.14338 0.0727,-0.76131 0.26782,-1.50669 0.3599,-2.2659 0.37459,-3.08853 0.43895,-3.32186 -2.12312,-0.84163 -4.31838,4.18046 -0.13189,0.26196 -4.93001,4.69366 -0.45572,0.42092 -1.13852,1.83902 -1.36746,1.26244 -0.18172,-0.45763 3.50531,-4.23328 4.67809,-5.43818 1.17701,-1.20924 2.40227,-2.37056 3.59857,-3.56071 4.20789,-4.18625 -0.97909,-0.0674 2.447,3.94916 2.3117,2.71014 5.65542,3.20612 7.95271,5.56765"
       id="path1736" /><path
       style="fill:none;stroke:#ffffff;stroke-width:1"
       d="m 188.7089,446.11557 c 0.53773,3.98188 -0.20253,7.95975 0.036,11.94459 0.0311,0.51934 0.30171,1.98209 0.4678,1.48905 0.68153,-2.02317 1.92322,-8.1588 1.7633,-9.38736 -0.19955,-1.53311 -2.38054,-2.5044 -2.26712,-4.04628 0.0472,-0.64217 5.5524,-5.41516 1.33144,-6.53876 -1.15067,-0.3063 -6.66513,3.82872 -6.33333,5.08213 0.0998,0.37711 1.81524,0.11968 2.08709,0.12946"
       id="path1738" /><path
       style="fill:none;stroke:#ffffff;stroke-width:1"
       d="m 182.30352,460.00239 c 6.44759,-0.97591 12.89833,-1.97346 19.43202,-1.5214"
       id="path1740" /><path
       style="fill:none;stroke:#ffffff;stroke-width:1"
       d="m 161.54005,450.45318 c -2.98655,0.57766 -5.90514,1.47537 -8.88831,2.0717 -3.28741,0.65714 -2.41505,0.39506 -5.25388,0.7445 -0.76071,0.0936 -1.50486,0.22603 -2.26705,0.29134 -0.14503,0.0124 -0.55752,0.13822 -0.43186,0.0647 2.90948,-1.70135 10.92288,-9.11697 11.08347,-12.65672 0.12283,-2.70724 -12.124,4.84222 -12.73879,8.18963 -0.96516,5.25513 15.80118,8.41774 16.76914,16.83249"
       id="path1742" /><path
       style="fill:none;stroke:#ffffff;stroke-width:1"
       d="m 64.068879,492.51972 c 0.620122,7.56142 0.06426,0.17939 0.539765,8.80465 0.194715,3.53197 0.147029,2.19387 0.539766,5.37345 0.05735,0.46429 0.20891,1.85885 0.179949,1.39192 -0.01736,-0.28001 -1.022406,-15.43839 -1.25948,-15.57002 -3.49607,-1.9413 -6.117344,-0.78589 -6.873179,2.10402"
       id="path1778" /><path
       style="fill:none;stroke:#ffffff;stroke-width:1"
       d="m 56.97981,508.02499 c -0.803685,0.90636 -3.317414,1.9154 -2.411053,2.7191 0.90636,0.80367 1.32709,-2.17834 2.411053,-2.7191 1.787713,-0.89183 3.90842,-0.84383 5.829591,-1.39192 4.726482,-1.34839 12.206213,-5.183 17.021053,-2.00691"
       id="path1780" /><path
       style="fill:none;stroke:#ffffff;stroke-width:1"
       d="m 55.972242,488.47342 c -4.399856,-2.54367 -6.672365,-7.0222 -9.860018,-10.74687 -1.056796,-1.23482 -2.298102,-2.38876 -3.490502,-3.49597 -0.186441,-0.17312 -1.447168,-1.17225 -1.151575,-0.90638 0.451453,0.40606 -0.815636,-1.02019 -0.827617,-1.03583 -1.473951,-1.9238 -2.7364,-3.40289 -4.462208,-5.01737 -0.756359,-0.70757 -1.50069,-1.3832 -2.303068,-2.03933 -0.02148,-0.0176 -0.435893,-0.32264 -0.431779,-0.32369 2.439053,-0.62684 17.002315,-0.17626 7.304958,-3.23702 -4.937919,-1.55855 -7.013043,5.86255 -8.132657,9.38734 -0.07457,0.23478 -0.973775,2.5516 0,2.20117"
       id="path1782" /><path
       style="fill:none;stroke:#ffffff;stroke-width:1"
       d="m 122.58084,494.97982 c -1.48008,3.57304 -1.85724,7.52464 -1.97911,11.36192 -0.0175,0.5524 0.17257,2.13852 0.35982,1.61854 1.98907,-5.52366 1.67181,-13.83649 0.8277,-19.48686 -0.12031,-0.80531 -0.0571,-2.03533 -0.8277,-2.29827 -0.97542,-0.3328 -6.54419,8.73074 -5.07394,6.92721"
       id="path1784" /><path
       style="fill:none;stroke:#ffffff;stroke-width:1"
       d="m 113.33272,507.08625 c 0.97159,0.11869 1.95014,0.52208 2.91479,0.35611 1.30121,-0.22387 2.4187,-1.06905 3.67045,-1.48905 4.06081,-1.36258 7.52693,-1.85426 11.6952,-2.10405"
       id="path1786" /><path
       style="fill:none;stroke:#ffffff;stroke-width:1"
       d="m 117.83086,479.02136 c -0.2759,-1.43507 -0.6722,-2.85217 -0.8277,-4.30523 -0.20161,-1.88407 1.49171,-4.20264 -1.00756,-2.42776 -1.45674,1.03452 -2.9091,2.07591 -4.39025,3.07516 -0.74389,0.50187 -1.65779,1.68551 -2.41097,1.19769 -1.55959,-1.01013 6.65527,-10.81201 7.48491,-10.64978 0.71152,0.13913 0.76239,1.23343 1.15157,1.84511 1.83001,2.87623 3.72111,5.14224 6.11745,7.47749"
       id="path1788" /><path
       style="fill:none;stroke:#ffffff;stroke-width:1"
       d="m 189.33353,494.97982 c -0.82484,4.12626 -0.27777,8.3948 0,12.55961 0.0527,0.79039 0.16684,1.57546 0.25183,2.36302 0.0349,0.32382 -0.20399,0.8776 0.10799,0.97115 0.26786,0.0803 0.59232,-2.13082 0.79167,-5.17924 0.63168,-9.65944 0.26852,-1.55533 -1.15149,-10.71454 -0.22329,-1.44023 0.0675,-2.92793 -0.14401,-4.36996 -0.41825,-2.85123 -14.0839,9.46009 -4.42618,5.40583"
       id="path1790" /><path
       style="fill:none;stroke:#ffffff;stroke-width:1"
       d="m 181.59671,512.23314 c 6.5548,4.18801 12.15639,-1.01288 18.67629,-1.23007 0.34533,-0.0114 -0.34369,0.64513 -0.64775,0.80922"
       id="path1792" /><path
       style="fill:none;stroke:#ffffff;stroke-width:1"
       d="m 188.18196,480.54275 c -0.12192,-0.85593 0.75759,-13.38465 0.68377,-13.40124 -0.44478,-0.1 -5.42207,4.77194 -6.04556,5.34108 -1.04966,0.95817 -4.17948,3.81143 -3.31064,2.68672 0.8913,-1.15377 8.42394,-9.48872 8.88832,-9.58156 0.18025,-0.036 -0.0665,0.39773 0.036,0.55028 0.2291,0.34081 0.56167,0.60839 0.89966,0.84163 1.64649,1.13617 3.58885,1.67647 5.21786,2.84857"
       id="path1794" /><path
       style="fill:none;stroke:#ffffff;stroke-width:1"
       d="m 74.540629,541.78704 c -0.842412,4.79513 -3.818268,10.23393 -3.238672,15.34346 0.0847,0.74668 0.06533,2.506 0.719632,2.13643 0.366559,-0.20704 2.483374,-16.96016 2.51904,-17.47989 -0.414486,-7.88252 -0.556882,-2.99839 -0.179951,-5.14683 0.535403,-3.0517 -4.277871,2.68716 -4.498149,2.88094 -0.698027,0.61407 -6.90394,5.82179 -2.626942,1.97459"
       id="path1796" /><path
       style="fill:none;stroke:#ffffff;stroke-width:1"
       d="m 63.421128,557.19527 c 6.151925,1.64041 12.330121,-2.99382 18.388518,-1.35959"
       id="path1798" /><path
       style="fill:none;stroke:#ffffff;stroke-width:1"
       d="m 70.978081,526.8968 c 0.477599,-4.70802 0.753387,-9.43192 1.151493,-14.14574 0.0591,-0.6998 0.748453,-2.39212 0.107987,-2.10404 -1.728915,0.77763 -5.251268,4.96024 -6.801218,6.21503 -1.387792,1.12353 -1.91738,1.29199 -1.907228,1.06823 0.07498,-1.65261 5.896147,-9.04486 7.52093,-8.86944 0.306554,0.0331 0.118366,2.68716 0.755655,4.2405 1.707785,4.16261 4.733602,5.71214 7.628916,8.83703"
       id="path1800" /><path
       style="fill:none;stroke:#ffffff;stroke-width:1"
       d="m 119.63011,542.98473 c -3.90468,-7.05122 8.23286,-10.8781 8.70844,-1.35953 0.26889,5.3816 -1.68548,9.63305 -4.35422,13.88681 -0.61161,0.97486 -1.84283,2.28508 -2.73493,3.13989 -0.28964,0.27752 -1.19268,0.89575 -0.79168,0.90636 3.23118,0.0854 6.44763,-0.79526 9.71602,-0.55028 3.48528,0.26128 4.92514,3.35552 4.53417,1.45666"
       id="path1802" /><path
       style="fill:none;stroke:#ffffff;stroke-width:1"
       d="m 188.46989,538.90613 c -2.93278,-8.29387 3.54738,-6.94849 4.85797,-0.61505 1.03256,4.98985 0.22039,6.90941 -2.01514,11.97697 -0.82455,1.86912 -3.36754,4.39068 -4.75006,5.76189 -0.68376,0.67815 -2.83189,2.26954 -1.87129,2.20117 4.72638,-0.33644 11.77111,-2.58715 15.97747,0.12946"
       id="path1808" /><path
       style="fill:none;stroke:#ffffff;stroke-width:1"
       d="m 173.03219,545.57434 c -4.31346,-1.54627 -8.07409,-0.90601 -12.48688,-0.55025 -2.64336,0.21312 -5.26234,0.43664 -7.91677,0.38841 -1.18055,-0.0214 -2.68438,-0.33933 -3.8504,-0.12946 -2.4798,0.44632 -5.13051,2.88094 -7.77284,2.88094 -0.36415,0 0.2649,-0.67987 0.43186,-1.00349 1.9555,-3.79031 2.61849,-5.07444 4.75006,-8.48095 0.43418,-0.69387 1.94717,-2.36085 1.1515,-2.16884 -1.35497,0.32702 -3.62121,2.5341 -4.17428,3.0752 -7.86318,7.69276 -4.1419,7.53919 -0.21589,14.43707 1.47601,2.59331 2.50412,5.48002 4.10231,7.99544"
       id="path1810" /><path
       style="fill:none;stroke:#ffffff;stroke-width:1"
       d="m 73.645295,586.6794 c 0.01201,1.96379 -0.01212,3.92814 0.03602,5.89137 0.02384,0.97266 0.1055,1.94318 0.179866,2.9133 1.064192,13.88198 0.02019,-8.59774 -0.215889,-8.80467 -2.510713,-2.20094 -5.900841,3.43514 -6.009539,3.5931"
       id="path1812" /><path
       style="fill:none;stroke:#ffffff;stroke-width:1"
       d="m 65.692584,601.44019 c 10.502355,1.55104 4.868746,1.98294 16.157332,-2.622 0.467214,-0.1906 5.004681,-2.86747 4.426188,-0.16182"
       id="path1814" /><path
       style="fill:none;stroke:#ffffff;stroke-width:1"
       d="m 70.766522,582.79497 c 0.613188,-5.11508 1.69236,-10.77431 1.115471,-15.95847 -0.07494,-0.67345 -1.068647,0.84651 -1.511311,1.35953 -0.351732,0.40767 -0.671764,0.84162 -1.007647,1.26244 -0.779669,0.90635 -1.550165,1.8207 -2.339009,2.71912 -0.756957,0.86209 -2.956063,3.50689 -2.267046,2.58961 1.850988,-2.46423 6.127131,-8.72612 9.03224,-10.00239 0.16173,-0.0711 6.454487,8.78261 8.276667,7.96303"
       id="path1816" /><path
       style="fill:none;stroke:#ffffff;stroke-width:1"
       d="m 122.87139,587.61611 c 0.14393,-1.13295 0.11665,-2.30114 0.43178,-3.39887 3.27487,-11.40777 6.78273,8.26524 5.75763,13.04515 -0.62658,2.92163 -2.01289,6.64244 -4.49815,8.57814 -0.82161,0.63992 -2.46369,1.14379 -3.20265,1.97455 -0.35938,0.40405 1.07933,-0.0683 1.6193,-0.0971 1.35508,-0.0722 2.70987,-0.15695 4.06636,-0.19425 2.95765,-0.0813 7.15587,-0.57026 10.03989,0.48556 1.26598,0.46347 0.92251,1.60419 -0.14392,1.42428"
       id="path1822" /><path
       style="fill:none;stroke:#ffffff;stroke-width:1"
       d="m 121.0001,578.84379 c -0.0431,-5.63113 0.40748,-11.24693 0.71972,-16.86483 0.21632,-3.89215 -5.1239,4.58621 -6.22543,6.05322 -0.35587,0.47392 -1.23204,2.02141 -0.97163,1.48902 0.38296,-0.78293 6.76722,-11.27083 7.41303,-10.77926 0.93631,0.71271 0.66079,2.30251 1.33144,3.26938 1.53423,2.21191 5.22875,3.12504 7.30496,4.79078"
       id="path1824" /><path
       style="fill:none;stroke:#ffffff;stroke-width:1"
       d="m 192.53871,588.50479 c -2.73277,-1.43092 1.45716,-7.42577 3.81438,-5.08215 1.85652,1.84584 0.19216,5.75644 -0.68369,7.57463 -0.4009,0.83222 -1.54282,2.89406 -2.62695,3.62545 -0.14034,0.0947 -0.53858,0.2304 -0.50374,0.0648 1.47324,-7.00445 14.28691,-4.32779 13.53039,2.91332 -0.5523,5.28646 -4.16304,10.05462 -8.74439,12.55959 -2.65102,1.44954 -5.68538,0.32295 -4.53409,-2.78382"
       id="path1826" /><path
       style="fill:none;stroke:#00ffff;stroke-width:1"
       d="m 98.886788,535.15809 c -0.779698,-1.28402 -1.565343,-2.56445 -2.339091,-3.85207 -2.184196,-3.63476 -4.163512,-7.35978 -6.261452,-11.03818 -0.47186,-0.82735 -4.174273,-5.88917 -4.174273,-7.02434 0,-0.45633 0.91544,-0.003 1.367465,-0.0647 1.669981,-0.23109 3.370365,-0.61146 5.001972,-1.03585 0.941752,-0.24495 5.912469,-2.556 1.043508,-2.8162 -6.224973,-0.33266 -7.928377,4.86172 -9.428077,9.80816 -0.24592,0.81111 -0.980184,3.20895 -1.151576,4.27286 -0.02924,0.18148 -0.06939,0.70088 0.03602,0.55031 1.948135,-2.78318 2.075847,-6.0339 1.943169,-9.25788 -0.0084,-0.20507 0.2915,-4.92027 0.791678,-4.92027 0.221121,0 0.5055,1.99202 1.187514,3.46361 1.447117,3.12243 2.963463,6.21443 4.570113,9.25788 1.320949,2.50221 3.088992,4.95051 4.930011,7.08906 0.792382,0.92043 2.429975,1.32641 2.626942,2.52486 0.164674,1.00195 -0.09595,2.02851 -0.143926,3.04279 z"
       id="path2024" /><path
       style="fill:none;stroke:#00ffff;stroke-width:1"
       d="m 164.88366,585.88213 c -6.25965,-5.0241 -12.14567,-11.62053 -15.90542,-18.80709 -0.092,-0.17581 -1.68545,-2.4978 -1.61938,-2.55722 0.85911,-0.77269 4.0561,-1.79544 4.82203,-2.13646 0.0469,-0.0209 2.04031,-0.96009 1.94317,-1.03582 -1.36954,-1.06772 -3.98997,-0.58832 -5.54166,-0.42082 -0.20867,0.0225 -0.59949,-0.0124 -0.64775,0.25898 -0.83944,4.71993 -1.51084,9.17366 -2.80689,13.8544 -0.47453,1.71376 -0.98243,3.41916 -1.40341,5.14686 -0.0729,0.29927 -0.22234,1.21148 -0.17994,0.90638 0.63908,-4.59943 2.09572,-9.32039 2.95081,-13.82207 0.40928,-2.15463 0.44674,-4.47926 0.32388,-6.66824 -0.0472,-0.84169 -0.60417,-3.23117 -0.14393,-2.52489 4.58662,7.03839 7.94054,15.66714 14.93388,20.814"
       id="path2026" /><path
       style="fill:none;stroke:#00ffff;stroke-width:1"
       d="m 192.62829,603.26486 c -1.09154,0.0217 -2.33471,0.62018 -3.27461,0.0647 -1.86968,-1.10487 -2.70732,-8.03489 -2.77087,-8.73993 -0.18599,-2.06335 -0.16751,-4.15335 0.0359,-6.21506 0.30546,-3.09531 1.51293,-12.25169 6.33342,-12.65672 7.02781,-0.59052 13.24521,12.1415 14.68196,17.18853 1.0773,3.78431 1.6187,9.22369 0.32387,13.17466 -1.04177,3.17881 -3.4568,8.09062 -7.70079,8.31914 -8.25716,0.4446 -5.02461,-6.19784 -7.62892,-11.13536 -1.33158,-2.52455 -12.77701,-10.45626 -7.12509,-15.11684"
       id="path2028" /><path
       style="fill:none;stroke:#00ffff;stroke-width:1"
       d="m 130.51776,563.57908 c -5.16241,3.92538 -9.34099,6.5356 -14.64594,0.0324 -1.1835,-1.45081 -1.43836,-3.4789 -1.83527,-5.30867 -2.0618,-9.50508 -1.35876,-18.26337 3.05873,-27.09384 0.60235,-1.20409 1.79529,-2.09211 2.98675,-2.7191 4.97079,-2.61577 8.91473,0.7116 11.51534,4.82317 3.9938,6.31423 4.98175,12.22912 2.9148,19.48683 -1.04956,3.6853 -0.61575,8.97157 -3.99441,10.77926 -10.66869,5.70812 -16.33757,-10.98109 -18.20849,-17.12381"
       id="path2032" /><path
       style="fill:none;stroke:#00ffff;stroke-width:1"
       d="m 63.306908,509.92102 c -1.451409,0.50713 -2.81732,1.56258 -4.354224,1.52138 -6.691651,-0.17928 -6.662941,-8.54091 -6.693231,-12.94804 -0.04102,-5.96885 0.621192,-20.94199 8.888312,-22.40015 6.950591,-1.22595 13.654852,12.50097 14.897936,17.28567 1.107739,4.26373 1.997295,8.67315 1.907228,13.07753 -0.116128,5.67894 -6.983521,14.72343 -13.926309,10.71452 -5.624042,-3.24745 -8.849993,-17.6512 -9.104284,-23.59785"
       id="path2034" /><path
       style="fill:none;stroke:#00ffff;stroke-width:1"
       d="m 47.617378,485.64341 c -5.791702,-8.47974 -1.465828,-1.54212 -7.089153,-13.07754 -2.592593,-5.31833 -5.271772,-9.75803 -10.003864,-13.36888 -0.281193,-0.21457 -4.475681,-2.0302 -2.734847,-3.20463 0.815179,-0.54995 7.823142,3.11207 9.500042,3.75493 3.473752,1.3317 7.125795,2.24191 10.651696,3.43124 1.185947,0.40004 -1.724038,-1.8155 -2.554978,-2.75147 -1.57843,-1.77794 -3.267421,-4.24234 -5.613701,-5.14686 -2.293141,-0.88404 -3.250965,1.13821 -4.102312,2.97806 -3.2107,6.93864 -6.398358,14.3115 -9.032322,21.52615 -0.378359,1.03635 -1.661027,3.92757 -0.827616,3.20465 1.230177,-1.0671 3.495492,-5.32747 3.562545,-5.43819"
       id="path2036" /><path
       style="fill:none;stroke:#00ffff;stroke-width:1"
       d="m 68.524769,512.38114 c -1.23549,0.85241 -2.327516,1.96435 -3.706471,2.55725 -2.949318,1.2681 -6.959812,-3.53041 -7.880747,-5.34109 -3.818773,-7.50824 -3.764401,-26.58172 3.058721,-32.56436 3.221546,-2.82472 5.909789,-0.13098 7.880747,2.36302 4.942813,6.25451 8.756486,19.07702 5.361789,26.57589 -1.587145,3.50599 -7.115746,11.21934 -12.846695,8.18965 -5.252413,-2.7767 -4.550783,-20.75453 -4.462209,-25.31346"
       id="path2038" /><path
       style="fill:none;stroke:#00ffff;stroke-width:1"
       d="m 12.359657,469.50739 c -0.167941,-1.00348 -0.335883,-2.00695 -0.503824,-3.01043"
       id="path2040" /></g></svg>
