<?xml version="1.0" encoding="UTF-8" standalone="no"?>
<!-- Created with Inkscape (http://www.inkscape.org/) -->

<svg
   width="4914.5386mm"
   height="6476.3516mm"
   viewBox="0 0 4914.5385 6476.3517"
   version="1.1"
   id="svg12"
   inkscape:version="1.2.1 (9c6d41e410, 2022-07-14, custom)"
   sodipodi:docname="m_4_tree.svg"
   xml:space="preserve"
   xmlns:inkscape="http://www.inkscape.org/namespaces/inkscape"
   xmlns:sodipodi="http://sodipodi.sourceforge.net/DTD/sodipodi-0.dtd"
   xmlns="http://www.w3.org/2000/svg"
   xmlns:svg="http://www.w3.org/2000/svg"><sodipodi:namedview
     id="namedview14"
     pagecolor="#505050"
     bordercolor="#eeeeee"
     borderopacity="1"
     inkscape:showpageshadow="0"
     inkscape:pageopacity="0"
     inkscape:pagecheckerboard="0"
     inkscape:deskcolor="#505050"
     inkscape:document-units="mm"
     showgrid="true"
     inkscape:zoom="0.02"
     inkscape:cx="12950"
     inkscape:cy="10100"
     inkscape:window-width="1366"
     inkscape:window-height="746"
     inkscape:window-x="0"
     inkscape:window-y="0"
     inkscape:window-maximized="1"
     inkscape:current-layer="layer1"
     inkscape:lockguides="true"><inkscape:grid
       type="xygrid"
       id="grid344"
       color="#969696"
       opacity="0.39215686"
       empcolor="#000000"
       empopacity="0.17254902"
       dotted="false"
       originx="-3478.9001"
       originy="-29162.439" /></sodipodi:namedview><defs
     id="defs9" /><g
     inkscape:label="Layer 1"
     inkscape:groupmode="layer"
     id="layer1"
     transform="translate(-3583.9003,-29310.938)"><path
       style="fill:none;stroke:#ffffff;stroke-width:10.7"
       d="m 6189.7636,29344.528 c -22.7658,-5.546 -46.2981,-24.707 -68.2974,-16.64 -28.6832,10.517 -73.7536,122.547 -78.9688,138.872 -48.1344,150.662 -105.9405,395.174 54.0686,498.528 24.5494,15.856 57.0312,19.82 86.0833,16.64 256.944,-28.131 435.6856,-353.529 313.029,-585.563 -73.5264,-139.094 -409.9263,-81.883 -421.1666,56.316"
       id="path318" /><path
       style="fill:none;stroke:#ffffff;stroke-width:10.7"
       d="m 6110.0833,29872.493 c -69.0951,131.665 -119.7324,271.849 -175.0118,409.575 -27.5378,68.609 -100.2789,247.846 -124.5002,314.219 -37.0547,101.542 -39.5026,118.33 -65.4519,207.987 -3.7875,13.086 -5.476,50.945 -12.0943,39.039 -21.5569,-38.783 29.6061,-138.904 -57.6257,-206.708 -93.24,-72.472 -320.5756,-12.002 -374.9239,87.034 -39.8838,72.679 -65.4592,153.594 -81.8142,234.866 -31.6089,157.075 76.7599,403.227 263.2287,393.575 214.3011,-11.091 433.8124,-216.138 470.9671,-423.653 15.9041,-88.829 -21.7779,-141.751 -103.8688,-171.508 -73.0724,-26.491 -331.7598,62.073 -263.9407,12.797"
       id="path320" /><path
       style="fill:none;stroke:#ffffff;stroke-width:10.7"
       d="m 6467.2211,30046.563 c -107.7418,-228.836 107.9661,208.086 120.9431,235.505 52.4672,110.855 77.2663,169.778 157.2263,261.104 25.918,29.602 56.5407,54.84 86.7942,79.994 21.6037,17.963 83.263,68.858 72.5662,42.879 -41.3441,-100.415 -187.7539,-145.905 -247.5778,-33.28 -71.0073,133.681 -56.5023,376.463 69.7201,478.69 41.9616,33.986 88.4163,73.723 142.2863,77.436 212.6221,14.652 407.8676,-215.631 315.8749,-420.452 -48.5179,-108.027 -132.8899,-140.711 -241.8866,-172.792 -60.9938,-17.952 -124.9611,-23.707 -187.8173,-33.277 -46.9371,-7.146 -59.935,2.628 -54.0687,-51.196"
       id="path322" /><path
       style="fill:none;stroke:#ffffff;stroke-width:10.7"
       d="m 6635.83,29805.937 c 161.1849,78.772 321.973,150.535 497.2899,192.63 90.1814,21.651 333.4816,70.252 427.5693,89.593 102.2993,19.767 203.8808,42.969 305.9155,63.995 5.8134,1.199 285.786,59.32 297.3779,49.279 13.8221,-11.973 -2.8861,-36.605 -7.1144,-54.399 -18.8217,-79.189 -95.5387,-296.463 -223.3893,-180.467 -61.0087,55.351 -98.943,133.02 -134.4604,207.346 -21.9422,45.919 -31.7593,97.724 -35.5712,148.471 -4.5775,60.942 -20.5562,130.496 10.6712,183.029 47.5369,79.97 124.6545,145.174 208.4491,185.589 52.5452,25.342 117.3506,8.218 175.0118,-0.64 241.6739,-37.129 387.9914,-225.986 318.0096,-462.05"
       id="path324" /><path
       style="fill:none;stroke:#ffffff;stroke-width:10.7"
       d="m 5836.1824,29725.303 c -90.2073,91.432 -198.1271,128.008 -315.1637,171.508 -380.4489,141.409 -752.4425,307.253 -1134.7312,442.854 -65.6799,23.297 -133.3183,41.783 -197.7774,68.475 -20.5743,8.519 -71.3068,46.717 -96.7544,46.717 -15.2427,0 -22.0041,-24.117 -36.9946,-26.879 -75.5907,-13.92 -165.1256,22.762 -221.9664,71.035 -161.4423,137.113 -256.3108,608.661 12.0944,698.836 336.087,112.917 739.2646,-239.683 786.1308,-559.324 13.394,-91.352 -24.5732,-188.2 -71.8545,-267.501 -39.7512,-66.675 -206.0218,-97.293 -271.7665,-101.116 -174.4787,-10.147 -560.4751,24.731 -682.9732,172.151 -35.4891,42.709 1.6733,213.312 7.1144,239.345 32.0376,153.265 149.7653,527.738 362.8295,512.606 381.6278,-27.101 560.3954,-660.373 315.1634,-926.02 -102.8303,-111.393 -422.5141,-45.456 -495.8667,75.514"
       id="path326" /><path
       style="fill:none;stroke:#ffffff;stroke-width:10.7"
       d="m 5527.4219,31361.679 c 103.9929,144.047 150.9204,317.913 224.1005,478.049 54.5568,119.386 101.9087,208.905 165.0515,321.263 17.4485,31.046 36.2448,61.32 54.069,92.152 7.9354,13.729 20.7478,56.435 24.1887,40.957 2.0532,-9.234 -8.5455,-16.907 -13.517,-24.958 -38.04,-61.592 -91.9827,-125.204 -173.5892,-87.672 -204.1967,93.903 -326.6882,426.532 -251.8463,634.198 36.2895,100.695 105.2087,189.786 181.4145,264.943 34.2014,33.732 88.1989,42.188 135.8831,47.998 174.5232,21.262 395.5751,-67.95 478.0812,-234.225 47.7435,-96.218 76.9011,-202.626 91.0632,-309.102 11.684,-87.842 -20.0205,-245.396 -86.0832,-319.339 -119.4853,-133.736 -289.7095,-117.904 -448.9122,-92.154 -146.1349,23.635 -87.0082,48.233 -141.5746,22.399"
       id="path328" /><path
       style="fill:none;stroke:#ffffff;stroke-width:10.7"
       d="m 6176.2461,33037.735 c 141.2385,115.29 261.5885,250.119 409.784,357.736 100.0776,72.675 161.4024,109.124 270.3436,162.549 37.2758,18.283 75.6933,34.147 113.8287,50.559 28.6825,12.343 76.7715,36.769 110.9832,44.797 10.8421,2.542 -44.6653,-39.545 -53.3574,-42.238 -72.4612,-22.453 -175.5124,-18.455 -241.8861,21.119 -235.2254,140.253 -228.5362,641.138 57.6255,728.273 224.8757,68.474 401.2242,-179.064 453.8924,-360.296 32.9695,-113.451 51.5234,-231.981 55.4916,-350.06 2.5964,-77.258 -32.0654,-252.754 -141.5746,-276.46 -90.5187,-19.598 -185.888,0.836 -277.4574,14.719 -76.8665,11.652 -175.4259,73.646 -236.1949,120.951"
       id="path330" /><path
       style="fill:none;stroke:#ffffff;stroke-width:10.7"
       d="m 6746.102,34362.451 c -64.4121,112.943 -135.7318,244.779 -212.0062,350.057 -84.3698,116.451 -201.6395,252.309 -306.6267,352.618 -31.1155,29.729 -65.1084,56.521 -100.3117,81.275 -32.3159,22.722 -66.8427,42.27 -101.7341,60.796 -19.0662,10.126 -39.4097,17.756 -59.7602,24.958 -2.7646,0.979 -73.0996,5.488 -49.8004,-21.757 25.2283,-29.501 78.2593,-17.716 27.0344,-95.355 -85.1366,-129.038 -297.008,-147.514 -432.5496,-120.952 -160.4542,31.443 -238.9661,127.775 -280.3038,287.983 -14.9926,58.105 29.8069,199.147 54.0689,240.623 138.4208,236.64 523.8547,336.6 756.9616,191.989 313.6558,-194.582 279.3896,-500.274 25.6119,-710.356 -69.7413,-57.732 -161.1249,-70.093 -244.0207,-96.633"
       id="path332" /><path
       style="fill:none;stroke:#ffffff;stroke-width:10.7"
       d="m 7145.9257,31071.778 c -15.0839,151.667 -13.6668,304.115 -14.2287,456.292 -0.3712,100.455 -1.9976,276.675 1.4229,378.214 1.0089,29.943 4.1778,59.78 7.1144,89.596 0.4286,4.35 2.0494,17.098 2.8456,12.798 14.32,-77.298 -112.5855,-119.52 -179.9918,-96.634 -249.359,84.672 -280.1663,425.524 -146.5543,620.763 294.8246,430.805 1025.3408,-98.491 871.5015,-459.491 -90.7016,-212.842 -322.5628,-191.381 -511.5179,-168.31 -85.6311,10.454 -81.3136,22.305 -115.2517,7.038"
       id="path334" /></g></svg>
