<?xml version="1.0" encoding="UTF-8" standalone="no"?>
<!-- Created with Inkscape (http://www.inkscape.org/) -->

<svg
   width="407.28235mm"
   height="251.37102mm"
   viewBox="0 0 407.28233 251.37102"
   version="1.1"
   id="svg12"
   inkscape:version="1.2.1 (9c6d41e410, 2022-07-14, custom)"
   sodipodi:docname="max_flow_push.svg"
   xml:space="preserve"
   xmlns:inkscape="http://www.inkscape.org/namespaces/inkscape"
   xmlns:sodipodi="http://sodipodi.sourceforge.net/DTD/sodipodi-0.dtd"
   xmlns="http://www.w3.org/2000/svg"
   xmlns:svg="http://www.w3.org/2000/svg"><sodipodi:namedview
     id="namedview14"
     pagecolor="#000000"
     bordercolor="#ffffff"
     borderopacity="1"
     inkscape:showpageshadow="0"
     inkscape:pageopacity="0"
     inkscape:pagecheckerboard="0"
     inkscape:deskcolor="#000000"
     inkscape:document-units="mm"
     showgrid="true"
     inkscape:zoom="0.39540119"
     inkscape:cx="761.25214"
     inkscape:cy="270.61123"
     inkscape:window-width="1366"
     inkscape:window-height="746"
     inkscape:window-x="1360"
     inkscape:window-y="0"
     inkscape:window-maximized="1"
     inkscape:current-layer="layer1"
     inkscape:lockguides="true" /><defs
     id="defs9"><rect
       x="587.26367"
       y="362.45731"
       width="66.575974"
       height="20.973427"
       id="rect1884" /></defs><g
     inkscape:label="Layer 1"
     inkscape:groupmode="layer"
     id="layer1"
     transform="translate(689.12019,-161.80759)"><path
       style="fill:none;stroke:#ffffff;stroke-width:1"
       d="m -680.62558,272.62092 c -3.86741,5.79066 -6.21882,12.51964 -7.23299,19.38972 -0.75994,5.14763 -1.72474,13.04092 1.58334,17.73882 6.06952,8.61949 12.43857,10.35027 20.83544,4.40236 1.71153,-1.21237 3.56113,-2.43285 4.67809,-4.20813 2.1381,-3.39831 3.76526,-7.1528 4.89398,-11.00584 1.81676,-6.2017 1.47634,-21.00853 -4.85805,-25.11924 -8.56083,-5.55556 -20.37064,2.96173 -26.37715,8.61047"
       id="path884" /><path
       style="fill:none;stroke:#ffffff;stroke-width:1"
       d="m -672.06107,286.54009 c -1.00759,0.37765 -3.40043,0.12535 -3.02279,1.13295 0.37767,1.00759 2.22279,-1.85258 3.02279,-1.13295 1.54302,1.38801 1.33231,3.93897 2.19509,5.82661 0.55777,1.22036 1.57871,2.20773 2.05115,3.4636 0.87839,2.33503 0.15688,7.89613 -3.20264,8.15729 -0.96862,0.0753 -2.25494,-0.87156 -2.98686,-1.29481"
       id="path886" /><path
       style="fill:none;stroke:#ffffff;stroke-width:1"
       d="m -669.82997,286.89614 c 0.57576,-0.92794 1.01938,-1.95228 1.72728,-2.78383 0.621,-0.7295 3.03601,-0.92502 2.37503,-1.6185 -0.62979,-0.66076 -4.28527,0.46008 -4.42619,0.9711 -0.30538,1.10749 0.5398,2.30288 0.32388,3.43123 -0.30255,1.58112 -1.8242,2.85733 -1.83526,4.46709 -0.006,0.9094 12.74149,1.59718 10.14778,8.51335 -1.73985,4.6394 -5.98919,5.41442 -10.54362,5.21159 -0.99695,-0.0444 -2.02547,-0.10143 -3.02279,-0.19422 -0.1923,-0.0179 -0.74856,-0.15106 -0.57578,-0.0647 0.8464,0.42292 3.05048,-0.35885 3.77851,-0.58267 1.25841,-0.38689 2.51077,-0.79739 3.74243,-1.26244 10.80852,-4.08114 -6.73214,-10.09202 -7.08909,-17.02669 -0.16391,-3.18482 10.50769,-8.18095 10.50769,-6.05322"
       id="path951" /><path
       style="fill:none;stroke:#ffffff;stroke-width:1"
       d="m -659.17835,274.91919 c 13.98072,-13.82423 31.16694,-23.87414 47.42857,-34.73315 7.05406,-4.71047 14.00413,-9.54596 21.19524,-14.04865 4.36103,-2.73064 8.97107,-5.24313 13.06267,-8.38386 0.27495,-0.21105 3.03731,-1.88103 2.51896,-2.75146 -0.55247,-0.92773 -2.17082,-0.22484 -3.23868,-0.0648 -1.5103,0.22643 -21.3777,6.08545 -12.91865,-0.45318 4.12334,-3.18724 13.48155,-9.49182 18.92821,-8.93415 2.36109,0.24174 -0.24966,5.78064 -1.58337,10.00237 -2.0978,6.6404 -3.27094,12.53441 -2.62695,19.48682"
       id="path953" /><path
       style="fill:none;stroke:#ffffff;stroke-width:1"
       d="m -638.84666,227.39983 c 4.58727,-9.1411 6.47571,-19.57989 7.125,-29.74816 0.15197,-2.37991 0.14237,-9.04549 -1.76321,-6.47404"
       id="path959" /><path
       style="fill:none;stroke:#ffffff;stroke-width:1"
       d="m -620.38625,192.18112 c -0.0715,1.36796 -0.9932,14.90434 2.30306,14.46945 0.59878,-0.079 0.95957,-0.73372 1.43934,-1.10058"
       id="path961" /><path
       style="fill:none;stroke:#ffffff;stroke-width:1"
       d="m -613.58506,194.60887 c -3.93636,7.20154 6.3718,6.10166 8.67243,1.81273 1.57531,-2.93676 -1.90923,-6.62766 -4.96593,-5.04974 -1.45759,0.75242 -2.471,2.15801 -3.7065,3.23701 z"
       id="path963" /><path
       style="fill:none;stroke:#ffffff;stroke-width:1"
       d="m -611.78581,185.99842 c 0.40399,9.76959 4.19229,18.95237 6.2974,28.42098"
       id="path965" /><path
       style="fill:none;stroke:#ffffff;stroke-width:1"
       d="m -658.27877,310.85005 c 0.95962,0.36686 1.98811,0.58867 2.87886,1.10058 3.91353,2.24911 6.56132,6.38106 11.15544,8.93418 6.14508,3.41506 12.99281,5.86814 19.39599,8.73993 7.76476,3.48247 15.44349,7.16179 23.49839,9.93762 10.95264,3.77444 22.07374,6.88801 32.81857,11.26482 1.19981,0.48872 2.39176,0.99895 3.56248,1.55376 3.58908,1.7009 5.52776,4.16601 4.10239,0.58267 -1.12368,-2.82493 -2.04245,-5.69541 -3.88643,-8.15728 -1.54837,-2.06725 -1.57166,-1.99041 -3.1667,-3.33412 -0.41841,-0.35249 -1.70418,-0.95305 -1.18753,-1.13295 0.39857,-0.13879 0.8381,-0.15302 1.2595,-0.12949 2.5826,0.14419 14.99471,2.02848 15.40166,4.79078 0.68289,4.63505 -18.11599,17.06828 -22.52676,20.42556"
       id="path967" /><path
       style="fill:none;stroke:#ffffff;stroke-width:1"
       d="m -652.59311,360.21452 c -2.81474,-3.13089 -8.81274,7.19495 -4.35414,6.89484 4.543,-0.30579 14.41826,-7.05187 12.66674,-12.75384 -1.73236,-5.63966 -11.91749,1.04334 -13.81831,3.17228 -0.3465,0.38808 -0.7873,1.07844 -0.46781,1.48903 0.83743,1.07616 2.5591,-1.03909 3.63453,-1.87747"
       id="path969" /><path
       style="fill:none;stroke:#ffffff;stroke-width:1"
       d="m -652.4491,346.65143 c -0.0683,6.71299 1.87892,13.10307 2.447,19.7458 0.18876,2.20731 0.0525,4.37301 0.57571,6.53876"
       id="path971" /><path
       style="fill:none;stroke:#ffffff;stroke-width:1"
       d="m -645.07217,383.26207 c 3.90864,-8.16613 5.83689,-17.08858 7.70088,-25.89612 0.17092,-0.80766 3.17789,-13.3827 0.97161,-12.91568"
       id="path973" /><path
       style="fill:none;stroke:#ffffff;stroke-width:1"
       d="m -629.49054,371.05852 c -0.52665,-0.84114 1.92125,-8.0812 3.16669,-6.99195 1.62962,1.42523 0.0911,8.01748 -0.072,9.22548 -0.24019,1.77892 -1.5248,4.99731 -1.15158,6.86249 0.35285,1.76332 6.85102,-3.57129 7.9528,-4.49948"
       id="path975" /><path
       style="fill:none;stroke:#ffffff;stroke-width:1"
       d="m -612.68548,367.88626 c -1.11551,0.74451 -2.51862,1.17844 -3.34655,2.23353 -1.78131,2.27002 3.54285,2.81593 4.822,2.39539 3.08552,-1.0144 5.50675,-2.32689 7.59291,-4.85551 3.08602,-3.74058 -1.55633,-6.0731 -4.82203,-3.94918 -1.66418,1.08233 -2.83088,2.78384 -4.24633,4.17577 z"
       id="path977" /><path
       style="fill:none;stroke:#ffffff;stroke-width:1"
       d="m -609.15887,356.7833 c 1.29249,6.28389 2.32156,12.54003 2.8068,18.93653 0.18706,2.46547 0.10269,4.86363 0.64776,6.89483"
       id="path979" /><path
       style="fill:none;stroke:#ffffff;stroke-width:1"
       d="m -552.66202,217.04138 c -1.81129,0.19422 -3.62927,0.83145 -5.43386,0.58267 -4.59853,-0.63396 -7.97091,-5.42881 -8.5285,-9.67867 -0.57425,-4.37725 0.53068,-7.6502 2.62697,-11.45904 5.31297,-9.65345 15.13671,-10.76115 23.17451,-3.72257 2.23965,1.96123 5.78615,5.89062 6.54931,9.12839 2.88531,12.24143 -16.43187,27.62715 -25.15372,19.48682 -3.31224,-3.0914 -2.33442,-12.23018 -2.41096,-14.89027"
       id="path981" /><path
       style="fill:none;stroke:#ffffff;stroke-width:1"
       d="m -541.97447,366.68855 c -9.84705,-6.84327 -14.26623,-24.48696 -5.57768,-34.18287 1.18827,-1.32604 2.7478,-2.55437 4.49815,-2.88094 8.25733,-1.54057 19.04871,15.91195 20.65555,21.39666 0.68723,2.34574 0.31985,5.01429 -0.50382,7.31566 -2.62059,7.32202 -11.14338,11.13187 -19.0722,8.35149 -5.56186,-1.95036 -9.50942,-10.47424 -9.57202,-16.31455 -0.0159,-1.47904 0.62376,-2.89174 0.93562,-4.3376"
       id="path983" /><path
       style="fill:none;stroke:#ffffff;stroke-width:1"
       d="m -543.2699,225.10154 c 1.9816,26.20307 1.66431,52.4864 2.66288,78.72419 0.18235,4.7911 0.78364,9.57829 0.61174,14.37234 -0.01,0.2837 -0.006,3.50139 -0.39584,3.43125 -2.03417,-0.36597 -7.26739,-10.54455 -8.49247,-12.49489 -5.66317,-9.0158 -0.34292,-0.12833 -4.17428,-6.47401 -0.25831,-0.42781 -1.22925,-1.13505 -0.75572,-1.29481 0.88976,-0.30022 13.89504,18.94824 15.94143,17.5446 3.61873,-2.48213 3.28409,-16.58331 10.32783,-18.28913"
       id="path985" /><path
       style="fill:none;stroke:#ffffff;stroke-width:1"
       d="m -587.99955,264.88445 c -3.72457,-1.0527 -10.59262,8.2292 -5.86563,10.1966 4.68159,1.94849 16.58906,-3.35875 13.27856,-9.87289 -2.60728,-5.13042 -3.46244,-1.26471 -7.41293,-0.32371 -2.22261,0.52941 -4.62783,-0.0968 -6.83718,0.48555 -0.74719,0.19694 -2.06552,3.26133 1.04351,2.78383"
       id="path987" /><path
       style="fill:none;stroke:#ffffff;stroke-width:1"
       d="m -587.92759,254.94681 c 1.08011,8.78181 -1.329,18.6762 2.08717,27.12618"
       id="path989" /><path
       style="fill:none;stroke:#ffffff;stroke-width:1"
       d="m -583.46539,295.57134 c 3.74454,-9.42842 7.27729,-18.94672 10.25578,-28.64758 1.1121,-3.62205 2.84451,-8.51656 2.62694,-12.10642"
       id="path991" /><path
       style="fill:none;stroke:#ffffff;stroke-width:1"
       d="m -560.14703,291.00715 c -0.13194,1.67246 -0.44914,3.34056 -0.39584,5.01737 0.0602,1.89681 1.93125,-0.65872 2.08719,-0.87399 1.95366,-2.697 4.45776,-6.98183 3.38259,-10.52029 -1.39186,-4.5807 -7.30339,0.19929 -8.24058,-2.97806 -0.74014,-2.50939 0.45448,-5.32176 1.18753,-7.63935 4.4426,-4.40945 9.94959,-6.09219 15.79751,-7.63935"
       id="path993" /><path
       style="fill:none;stroke:#ffffff;stroke-width:1"
       d="m -514.76961,207.10375 c 18.82454,2.86386 37.93482,1.47347 56.89266,3.07516 0.66567,0.0562 11.37894,1.42009 11.98306,1.00347 0.60952,-0.42032 0.11255,-2.15736 0.072,-2.29828 -1.2699,-4.41053 -4.56624,-7.48528 -8.5285,-9.61393 -1.08387,-0.58228 -2.51217,-1.18587 -3.7424,-1.58614 -0.14031,-0.0456 -0.57809,-0.11684 -0.43188,-0.0971 3.95541,0.53371 15.92627,4.45979 16.55326,9.03127 0.8355,6.09182 -13.86356,14.80616 -12.88272,16.86485 0.24034,0.50442 1.05558,0.36686 1.58337,0.5503"
       id="path995" /><path
       style="fill:none;stroke:#ffffff;stroke-width:1"
       d="m -479.43208,190.69209 c 4.27837,-9.55607 8.9848,-18.87027 12.59478,-28.71232"
       id="path1001" /><path
       style="fill:none;stroke:#ffffff;stroke-width:1"
       d="m -457.33717,175.38101 c 1.64391,-1.51034 5.48367,-6.93352 8.85237,-6.24744 1.70657,0.34757 -0.67638,5.16551 -0.57578,5.17922 2.21181,0.30145 5.98146,-2.70535 6.83723,1.32718 0.94059,4.4321 -13.2479,9.13721 -11.51525,6.02085"
       id="path1003" /><path
       style="fill:none;stroke:#ffffff;stroke-width:1"
       d="m -421.60382,195.41812 c -9.32828,0.8934 -22.23127,16.71283 -10.97547,23.98628 8.33289,5.3847 20.5301,-0.67162 21.95097,-10.19659 0.52496,-3.51913 -0.33128,-12.18947 -4.57012,-13.95153 -4.40412,-1.83078 -8.22148,0.55191 -10.6516,3.88442 -0.67826,0.93009 -0.59978,2.22274 -0.89966,3.33412"
       id="path1005" /><path
       style="fill:none;stroke:#ffffff;stroke-width:1"
       d="m -498.03649,335.51611 c 0.92363,-1.23007 1.84724,-2.46013 2.77087,-3.6902 1.41542,-1.8451 2.8439,-3.68024 4.24625,-5.5353 4.97541,-6.58173 9.81136,-13.24919 13.96233,-20.39318 5.33812,-9.18714 9.3251,-18.97526 15.14975,-27.90308 5.05282,-7.74475 12.05121,-13.99232 16.69719,-21.97932 4.47595,-7.69474 9.62321,-13.9256 15.32972,-20.68452 1.84827,-2.18917 3.64958,-4.42453 5.46968,-6.63588 1.8238,-2.21582 2.73497,-3.62255 1.58334,-3.01042 -3.36907,1.79083 -6.47353,4.48407 -9.60802,6.63587 -1.76554,1.21202 -3.53608,2.41713 -5.32585,3.5931 -12.33633,8.10567 6.16555,-6.28815 8.02476,-7.73646 0.16822,-0.13104 2.09383,-1.68412 2.59093,-1.42429 0.82658,0.43206 4.9227,11.68461 7.01709,14.79316"
       id="path1007" /><path
       style="fill:none;stroke:#ffffff;stroke-width:1"
       d="m -514.73358,368.11284 c 3.84527,-1.30607 8.00481,-1.38663 12.01907,-1.68325 13.5763,-1.00314 27.17342,-1.03868 40.69924,-2.78383 15.96988,-2.0605 31.80686,-5.12772 47.60852,-8.15727 23.1744,-4.44307 46.31258,-9.10685 69.23563,-14.72842 13.00776,-3.18999 13.25616,-3.62852 23.71418,-5.95612 3.20733,-0.71384 6.42678,-1.37213 9.64414,-2.03931 0.99949,-0.20726 2.77432,0.0723 2.91479,-0.93873 0.34059,-2.45109 -5.86478,-2.5252 -11.29943,-3.20465 -1.14062,-0.1426 -4.08848,0.4809 -3.41855,-0.45318 1.29259,-1.80222 23.28939,-5.35255 24.57783,-3.88442 0.42114,0.47984 0.11602,1.32674 -0.1439,1.90984 -2.66169,5.97093 -13.13085,14.40423 -9.78797,21.78511"
       id="path1019" /><path
       style="fill:none;stroke:#ffffff;stroke-width:1"
       d="m -415.09052,380.38113 c -3.88144,0.97441 -3.02379,0.26882 -6.26139,3.49596 -14.34232,14.29613 22.75396,11.72303 12.12699,1.23008 -1.78668,-1.76416 -3.91041,-3.15071 -5.8656,-4.72604 z"
       id="path1021" /><path
       style="fill:none;stroke:#ffffff;stroke-width:1"
       d="m -414.8026,371.28511 c 0.18645,3.76099 -5.24285,32.53786 -2.51894,32.72619"
       id="path1023" /><path
       style="fill:none;stroke:#ffffff;stroke-width:1"
       d="m -409.9086,412.94549 c 5.38874,-10.22448 8.85965,-21.30232 12.55884,-32.20829 0.89697,-2.64448 1.87352,-5.26301 2.69891,-7.9307 1.10223,-3.5624 2.188,-6.22553 0.86363,-5.85899"
       id="path1025" /><path
       style="fill:none;stroke:#ffffff;stroke-width:1"
       d="m -385.87044,387.17886 c -0.91165,-0.18344 -2.01528,-1.13922 -2.73494,-0.55028 -3.50941,2.87184 -7.12489,18.67249 0.97163,18.32149 3.45339,-0.14973 7.17267,-3.08306 6.62127,-6.92721 -0.50133,-3.49507 -3.55047,-3.92171 -6.15346,-3.496 -0.32237,0.0527 -0.80719,0.59167 -0.93562,0.29134 -0.13608,-0.31824 0.50379,-0.47477 0.75567,-0.71213"
       id="path1027" /><path
       style="fill:none;stroke:#ffffff;stroke-width:1"
       d="m -291.55315,336.55196 c -3.63889,-3.68249 -4.7684,-3.74785 -4.96604,-10.22897 -0.15118,-4.95823 1.69037,-13.3002 6.8013,-15.99086 7.08647,-3.73066 7.75589,11.45856 7.23308,14.50183 -0.75657,4.40403 -2.28477,6.13508 -5.57785,9.22549 -3.21066,3.01308 -4.89185,4.15433 -8.34853,-0.84163 -3.22609,-4.66269 -1.10569,-10.99067 0.64773,-15.63478"
       id="path1029" /><path
       style="fill:none;stroke:#ffffff;stroke-width:1"
       d="m -387.27392,391.45172 c -0.67172,-1.17613 -1.7499,-2.20017 -2.01515,-3.52835 -0.5507,-2.75773 8.62235,-8.58941 10.72359,-9.61396 1.08519,-0.52914 2.87885,-1.20094 2.87885,-1.13294 0,0.23482 -2.67189,1.83131 -2.73494,1.87748 -2.69759,1.97594 -7.13415,5.18713 -8.31252,8.4486 -0.45146,1.24957 0.0185,2.74359 -0.53983,3.94917 -2.23806,4.83161 -4.87352,5.24145 -4.46214,10.42318 0.82968,10.45067 13.22572,5.22864 13.38646,-2.97807 0.0708,-3.61588 -4.91326,-8.88836 -8.92432,-7.44511 -3.15444,1.13501 -6.78021,5.44766 -3.92237,5.92373"
       id="path1031" /><path
       style="fill:none;stroke:#ffffff;stroke-width:1"
       d="m -412.75144,219.30729 c 9.93992,1.72207 16.25272,10.09258 24.61387,14.98737 6.53375,3.82499 13.73769,6.52576 20.07978,10.68216 7.63498,5.00375 14.93716,10.25258 22.27485,15.66715 3.57555,2.63846 7.24416,5.0942 10.54372,8.09253 4.35052,3.95336 8.31903,8.45484 12.55885,12.55962 5.05407,4.89313 10.27171,9.63888 15.25773,14.59894 1.69542,1.68658 8.60382,9.86066 11.11943,10.03474 0.78777,0.0545 -1.55411,-19.49026 -2.08719,-21.84986 -0.18902,-0.8367 -0.9112,-3.14648 -0.28784,-2.55722 2.68948,2.54232 8.02621,13.68153 5.64972,18.0949 -2.15849,4.00851 -15.79104,8.82468 -20.47562,8.70757 -0.71639,-0.0179 1.10482,-0.91543 1.69134,-1.32717"
       id="path1033" /><path
       style="fill:none;stroke:#ffffff;stroke-width:1"
       d="m -340.85293,240.05656 c 4.52903,-8.12035 8.22878,-16.47773 11.47931,-25.18398 0.58373,-1.56343 3.2874,-7.39752 2.48293,-10.00237"
       id="path1039" /><path
       style="fill:none;stroke:#ffffff;stroke-width:1"
       d="m -321.52888,222.12349 c 1.37941,-0.87399 2.75482,-1.75433 4.13824,-2.62197 0.0315,-0.0198 6.76143,-4.97473 8.38465,-4.85553 1.26857,0.0932 -0.48585,2.51459 -0.97155,3.6902 -1.37377,3.32536 -9.79339,19.57444 -7.4131,23.14464"
       id="path1041" /><path
       style="fill:none;stroke:#ffffff;stroke-width:1"
       d="m -318.50612,228.98597 c 8.61838,-1.75282 15.00349,-3.16728 23.64232,-0.84163"
       id="path1043" /><path
       style="fill:none;stroke:#ffffff;stroke-width:1"
       d="m -405.99663,237.04006 c 3.00696,7.53759 2.86356,15.81677 3.45459,23.79205 0.30395,4.10172 1.15149,8.05326 1.15149,12.17118 0,1.67083 1.16411,5.4503 0.25191,6.92721 -0.69247,1.1211 -2.52249,-1.07592 -3.34666,-2.10407 -2.44425,-3.04919 -4.2409,-6.48655 -5.25381,-10.26133 -0.43944,-1.63768 -0.62074,-3.21845 -0.39584,-3.30175 0.3802,-0.14083 0.89183,1.50095 1.54733,3.62546 1.30522,4.23024 2.35376,8.63976 4.35423,12.62436 0.48593,0.96788 1.24753,2.91989 2.19509,2.39539 2.20143,-1.21862 3.68731,-9.6333 4.06635,-11.16771 0.37499,-1.51797 0.65344,-3.05863 0.93562,-4.59656 0.1592,-0.86771 0.15539,-1.76382 0.35989,-2.62198 0.0429,-0.17996 0.0573,0.36589 0.072,0.5503"
       id="path1045" /><path
       style="fill:none;stroke:#ffffff;stroke-width:1"
       d="m -407.0402,287.89356 c -4.0055,2.64703 -6.95211,5.18074 -6.87319,10.1966 0.18013,11.44667 14.91925,12.33909 19.25209,2.91331 1.97091,-4.28761 4.01945,-17.78163 -4.53419,-16.89723 -3.63926,0.37629 -4.78504,1.75299 -7.84471,3.78732 z"
       id="path1047" /><path
       style="fill:none;stroke:#ffffff;stroke-width:1"
       d="m -491.6775,348.36099 c 10.73883,-9.42591 24.18041,-15.0684 35.22954,-23.98629 3.54134,-2.85827 6.86551,-5.97423 10.50769,-8.70757 2.93222,-2.20054 5.94415,-4.1198 9.06825,-6.02083 2.77825,-1.69058 5.44433,-4.00051 7.05313,-6.89485 1.01388,-1.82402 1.5195,-3.34401 3.09475,-4.85551 1.69534,-1.62675 3.54229,-3.24735 5.50571,-4.53183 0.20394,-0.13342 2.95111,-1.29461 2.55498,-1.65088 -2.02261,-1.81914 -7.52973,2.71356 -9.17625,0.80926 -0.78724,-0.91051 5.68208,-4.61888 6.51338,-2.20117 1.12061,3.25921 -0.54682,6.8735 -0.97163,10.2937 -0.35087,2.8246 -1.3933,8.48234 0.93559,10.87637"
       id="path1049" /><path
       style="fill:none;stroke:#ffffff;stroke-width:1"
       d="m -444.53687,285.10973 c -7.71853,9.64611 2.89735,8.97968 8.16867,3.72256 3.52213,-3.51262 0.86092,-7.07192 -3.1667,-7.47749 -0.455,-0.0458 -3.73922,0.18034 -4.17427,0.7445 -0.63553,0.82412 -1.43053,3.85878 -0.8277,3.01043 0.89995,-1.26654 3.36833,-6.01608 3.74251,-8.5781 0.0153,-0.10441 0.18637,-3.53365 -0.61175,-3.72257 -1.0664,-0.25243 -0.78266,3.18134 -1.36747,5.79426 -0.49075,2.19279 -1.83825,4.26062 -1.76329,6.50641 0.0871,2.60997 1.59877,4.97614 2.2311,7.50986 0.24844,0.99555 -0.0175,8.29877 2.2311,5.6324"
       id="path1051" /><path
       style="fill:none;stroke:#ffffff;stroke-width:1"
       d="m -433.8132,295.7595 c 1.31609,-2.94281 1.56461,-3.15126 2.33899,-6.53876 1.40211,-6.13336 1.5493,-12.54669 1.65532,-18.80707 0.006,-0.3282 0.18092,-7.1327 -0.10798,-4.01389"
       id="path1053" /><path
       style="fill:none;stroke:#ffffff;stroke-width:1"
       d="m -393.97761,295.98609 c 5.13767,-0.61904 9.65596,2.18966 14.53803,3.36649 4.58774,1.10587 9.39125,1.11281 13.99828,2.20119 11.42164,2.69828 23.1207,7.11902 34.25799,10.9411 2.54047,0.87183 15.14112,5.91879 17.16489,5.27633 1.86598,-0.59237 -5.14225,-12.15302 -6.36936,-13.49835 -0.55214,-0.60534 -2.27859,-2.27939 -1.54731,-1.90984 4.02844,2.03577 7.4467,5.54951 5.32574,10.39082 -0.61658,1.40747 -1.38065,2.75869 -2.26703,4.01388 -1.76419,2.49819 -9.75365,11.33106 -6.51338,8.41625"
       id="path1057" /><path
       style="fill:none;stroke:#ffffff;stroke-width:1"
       d="m -383.36195,259.34308 c -1.76197,0.12336 -8.66198,4.7541 -4.82203,7.63937 3.47739,2.61285 9.78797,-0.83316 11.55128,-4.14338 2.51273,-4.71706 -4.95514,-4.02424 -6.72925,-3.49599 -1.73384,0.51627 -3.36743,1.50448 -4.6781,2.75147 -0.52967,0.50395 1.52149,1.28085 2.05116,0.77689 1.0623,-1.01071 1.7513,-2.35224 2.62694,-3.52836 z"
       id="path1059" /><path
       style="fill:none;stroke:#ffffff;stroke-width:1"
       d="m -383.64979,254.09912 c -0.10739,2.91304 -2.63057,20.81325 1.11554,21.65563 8.5176,0.29149 5.64568,2.07557 10.18381,-5.14685 0.8846,-1.40783 1.72554,-2.84409 2.51896,-4.30524 0.72298,-1.33142 3.34474,-5.61789 2.77087,-6.79772 -0.26816,-0.55132 -0.7598,0.96597 -1.07961,1.48903"
       id="path1061" /><path
       style="fill:none;stroke:#ffffff;stroke-width:1"
       d="m -363.57003,270.2842 c -1.18978,4.97146 -0.97346,10.08704 0.61174,14.92263"
       id="path1063" /><path
       style="fill:none;stroke:#ffffff;stroke-width:1"
       d="m -423.56153,272.13463 c -1.40184,-1.39747 3.02834,-8.13273 4.85797,-5.37343 2.06695,3.11718 -0.6386,7.95914 -2.26703,10.55266 -0.87953,1.40078 -2.0546,2.54523 -3.20265,3.72256 -0.32049,0.32866 -1.44737,0.80689 -1.00766,0.93875 3.5325,1.05932 9.86887,-1.61096 12.34296,1.97458"
       id="path1194" /><path
       style="fill:none;stroke:#ffffff;stroke-width:1"
       d="m -382.46636,256.92068 c -8.93186,0.87646 -8.83333,19.475 1.83525,14.6313 3.53894,-1.60673 6.5904,-5.04341 6.54931,-9.12838 -0.0119,-1.19279 0.0976,-2.8091 -0.89966,-3.46361 -3.62889,-2.3817 -8.39539,-2.53768 -12.34295,-1.1977 -0.33533,0.11383 -1.55215,1.67819 -0.39584,1.48903"
       id="path1196" /><path
       style="fill:none;stroke:#ffffff;stroke-width:1"
       d="m -381.17094,247.242 c 0.44384,1.20849 1.26296,2.33987 1.33152,3.62546 0.21542,4.03981 -2.95249,15.62533 -3.85048,19.90763 -0.62347,2.97318 -1.22815,5.95048 -1.79925,8.93416 -0.0739,0.38604 -0.43167,1.46721 -0.17994,1.16534 1.99514,-2.39271 4.29934,-17.58046 4.4622,-21.17009"
       id="path1198" /><path
       style="fill:none;stroke:#ffffff;stroke-width:1"
       d="m -365.37343,271.84331 c -0.45599,0.28024 1.96058,-4.1664 1.87129,-3.94916 -0.5538,1.34732 -1.72096,2.50025 -1.87129,3.94916 -0.20045,1.93171 0.82486,3.82019 0.86365,5.76189 0.0615,3.08043 -0.86381,6.67011 -1.29543,9.77579 -0.18484,1.32997 0.43098,-2.65101 0.61172,-3.98155 0.28564,-2.10276 0.86074,-4.19036 0.82769,-6.31217 -0.0277,-1.77975 -1.30013,-3.4882 -1.00763,-5.24396 0.2767,-1.661 3.61743,-8.41658 2.55497,-5.76188"
       id="path1200" /><path
       style="fill:none;stroke:#ffffff;stroke-width:1"
       d="m -487.67534,253.99825 c -2.00013,0.56497 -8.53812,6.96548 -5.68567,9.64632 3.59755,3.38111 11.23156,-4.62842 12.34288,-8.25439 0.22531,-0.73515 -0.0777,-1.5834 -0.43178,-2.26592 -1.94051,-3.74058 -2.94536,0.0412 -6.22543,0.87399 -3.67416,0.93287 -3.86749,-1.79887 -4.82203,0.77689 -0.13672,0.36894 0.6791,-0.47727 0.82762,-0.84162"
       id="path1268" /><path
       style="fill:none;stroke:#ffffff;stroke-width:1"
       d="m -489.29472,245.16121 c 0.036,-1.15453 0.072,-2.30907 0.10799,-3.4636 0.2399,-0.0863 0.72766,-0.51382 0.71971,-0.25898 -0.0396,1.27055 -0.91767,2.45461 -0.8277,3.72258 0.27483,3.87312 1.45104,7.63542 1.90723,11.49139 0.44569,3.76719 0.23708,7.59077 0.64775,11.36193 0.0217,0.19938 0.66305,7.16592 1.54733,3.88442"
       id="path1270" /><path
       style="fill:none;stroke:#ffffff;stroke-width:1"
       d="m -477.67148,269.27695 c 0.66377,-8.99094 3.56993,-17.73192 4.64208,-26.7701 0.44966,-3.79061 0.92309,-2.78092 0,-4.3376"
       id="path1272" /><path
       style="fill:none;stroke:#ffffff;stroke-width:1"
       d="m -462.70158,244.28722 c -1.70782,-5.4501 5.06893,-3.90303 5.43375,-2.00696 0.069,0.35871 -0.73196,7.12143 -2.62694,7.12143 -0.77041,0 1.35728,-0.84038 2.87886,0.0971 2.47152,1.52282 2.79369,4.34635 1.5113,6.79773 -1.02761,1.96436 -2.699,3.59139 -4.74998,4.49943 -1.29974,0.57545 -3.17218,-1.27385 -2.87885,-2.39539"
       id="path1276" /><path
       style="fill:none;stroke:#00ffff;stroke-width:1"
       d="m -658.8107,271.90451 c 24.59446,-11.07906 43.48809,-30.62354 63.69381,-47.84307 4.90213,-4.17765 10.08826,-7.83535 15.11382,-11.84748 1.7698,-1.4129 3.38705,-3.00822 5.1459,-4.43471 0.63162,-0.51226 1.26321,-1.02483 1.90723,-1.5214 0.12487,-0.0963 0.41519,-0.41543 0.39584,-0.25895 -0.24113,1.95018 -11.41804,10.3796 -13.38654,11.91221 -14.40984,11.21901 -29.48025,21.67218 -44.54972,31.98171 -9.52836,6.51866 -9.3225,6.42104 -17.09301,10.844 -0.3521,0.20041 -1.37973,0.83988 -1.00757,0.67977 6.00812,-2.58484 10.91432,-7.66546 16.15741,-11.45904 12.37792,-8.95592 24.89905,-17.79537 37.42463,-26.54352 6.27556,-4.38299 12.71191,-8.51682 19.10814,-12.72146 0.597,-0.39245 4.41781,-2.46722 2.51896,-3.07517 -4.56864,-1.46271 -24.41278,4.4298 -24.03816,5.72953 0.11744,0.40743 2.5147,0.25152 4.13833,0.16184 2.97956,-0.16458 16.14881,-1.77097 16.48129,-0.25896 0.39539,1.79807 -2.62,6.63382 -2.80689,7.02432 -2.34494,4.89972 -4.25453,9.91647 -5.6137,15.18159 -0.41215,1.59658 -0.72178,3.26374 -0.79168,4.92027 -0.0127,0.30209 -0.23235,1.04563 0.036,0.90636 2.4592,-1.27625 6.19696,-19.20608 7.0171,-22.43251 0.57576,-2.11373 1.04876,-4.25298 1.58336,-6.37691 0.57328,-2.27763 0.73636,-2.64568 0.68369,-2.62199 -0.98076,0.44112 -2.31588,2.36311 -3.09475,3.01043 -3.12292,2.59545 -6.8366,5.43963 -10.00386,7.99543 -9.279,7.4876 -18.4976,15.04511 -27.67267,22.6591 -6.42093,5.32846 -11.24406,9.21342 -17.84867,14.56655 -2.51782,2.04073 -5.0671,4.04312 -7.55687,6.11797 -1.09759,0.91468 -2.40279,1.66476 -3.20273,2.84857 -1.15044,1.70251 4.06236,-0.76692 5.9736,-1.52139"
       id="path1278" /><path
       style="fill:none;stroke:#00ffff;stroke-width:1"
       d="m -523.36231,210.40124 c 1.01957,-0.15106 2.03135,-0.37043 3.05872,-0.45319 3.24496,-0.2614 7.0229,0.64764 10.21984,0.77689 10.13462,0.40974 20.36014,0.0614 30.47948,0.84162 7.05455,0.54394 13.86748,1.65312 20.97944,1.26244 1.74989,-0.0961 12.6493,-0.44824 12.77473,-0.80926 0.62224,-1.79092 -9.55886,-15.16782 -9.28415,-15.95847 0.21011,-0.60473 1.3009,0.0209 1.90715,0.22659 1.88073,0.63813 7.76077,2.68954 7.8448,5.27633 0.19457,5.98945 -5.39319,12.77158 -8.38457,17.44751 -1.72415,2.69507 -3.44811,5.39092 -5.10988,8.1249 -0.16364,0.26922 -0.67048,0.82159 -0.35981,0.87399 0.39972,0.0674 0.66356,-0.47636 0.9356,-0.77688 1.09881,-1.21386 2.17183,-2.45453 3.16671,-3.75493 3.77858,-4.93895 7.20322,-9.94808 10.36368,-15.27872 0.94185,-1.58859 1.92305,-3.15703 2.84283,-4.7584 0.1429,-0.24878 0.63092,-0.95112 0.43186,-0.74451 -0.8765,0.90975 -1.99303,1.63234 -2.80681,2.58961 -3.65298,4.29713 -1.91971,4.05353 -9.1403,5.79425 -4.42947,1.06784 -8.95067,2.17591 -13.53047,2.29828 -4.25173,0.1136 -8.04524,-0.96988 -12.16301,-1.81273 -4.15852,-0.85119 -8.26841,-1.07429 -12.45086,-1.61851 -2.89446,-0.37663 -3.68068,-0.90258 -6.80122,-1.68324 -3.10526,-0.77684 -6.45254,-0.74452 -9.60802,-0.74452 -1.38742,0 -12.3209,-0.95725 -12.37898,-0.22659 -0.0773,0.97235 4.07923,0.38548 9.32017,0.58266 16.63545,0.62589 33.26821,1.42416 49.87557,2.58962 1.51883,0.10658 13.8814,0.0218 14.75392,-0.84163 0.52624,-0.52078 0.70536,-1.59391 0.53985,-2.2659 -1.93638,-7.86192 -8.88379,-10.61719 -15.79752,-12.98044 -0.0576,-0.0197 0.11991,0.0216 0.17987,0.0324 4.50388,1.31539 1.58486,0.43252 7.44897,2.33065 3.01,0.97429 7.96607,1.62038 10.00386,4.36996 1.08111,1.45874 -0.70419,4.29667 -1.18751,5.04975 -3.1316,4.87943 -7.2829,9.09725 -10.07583,14.17812 -0.67077,1.22026 -5.67905,9.1507 -1.33144,7.60699"
       id="path1282" /><path
       style="fill:none;stroke:#00ffff;stroke-width:1"
       d="m -295.58016,304.69647 c -0.0739,-6.16529 -2.32585,-11.88081 -2.8429,-17.99779 -0.0927,-1.09667 -0.44309,-4.30923 0,-3.30177 2.21861,5.04469 3.92962,10.74747 3.45456,16.28219 -0.14409,1.67866 0.76814,4.05048 -0.61166,5.01737 -1.61576,1.13226 -3.93145,-0.55853 -5.90164,-0.45318 -3.32586,0.17783 -6.54412,1.30455 -9.85993,1.61852 -3.78029,0.35794 -5.14197,0.0544 -5.03791,-0.0648 1.48445,-1.69947 12.46817,2.09407 14.89784,1.58615 2.11574,-0.44229 3.78301,-2.25853 5.90164,-2.68673 3.8246,-0.773 7.54155,2.17357 9.24822,-3.52834 0.51205,-1.71073 -1.76887,-5.33145 -2.26706,-6.76536 -0.0972,-0.27978 -0.93535,-2.4922 -0.50382,-1.90984 0.4853,0.6549 -0.48588,0.5571 -1.33143,-1.10059 -1.68839,-3.30999 -3.06343,-6.77354 -4.49816,-10.19659 -0.19203,-0.45821 0.35542,0.82347 1.0436,3.52834 0.81399,3.19936 2.09018,8.37081 1.72728,11.36193 -0.23831,1.96413 -1.57306,3.63165 -2.30315,5.47055 -0.40986,1.03233 -0.048,2.83302 -1.11548,3.1399 -1.91384,0.55019 -3.87715,-1.02669 -5.86568,-1.13295 -2.76805,-0.14792 -5.51008,0.63361 -8.27651,0.80926 -0.95867,0.0609 -1.9185,0.1089 -2.87885,0.12947 -1.84042,0.0394 -2.48651,-0.16346 -2.19509,-0.0324 4.07609,1.8336 10.87805,-0.18161 14.93379,-0.29133 1.43733,-0.0389 2.97643,1.11959 4.28234,0.51792 2.42932,-1.11927 4.00362,-3.54871 6.04557,-5.27633 0.24844,-0.2102 0.64185,-0.25071 0.82761,-0.51791 0.0618,-0.0888 -1.46245,-1.1273 -2.23109,-2.13644 -1.13351,-1.48812 -2.31974,-3.66377 -2.95074,-5.37345 -1.67725,-4.54445 -2.28,-9.28431 -2.91481,-14.04863"
       id="path1286" /><path
       style="fill:none;stroke:#00ffff;stroke-width:1"
       d="m -407.42231,214.28666 c 6.04181,10.20234 17.34044,15.76925 26.34122,23.04755 5.90413,4.77428 12.1016,9.24669 17.74069,14.33998 12.98911,11.73194 25.95687,23.90726 40.37544,33.89152 6.06875,4.20237 11.97348,8.92627 17.34492,13.98392 1.73969,1.63805 3.49393,3.25932 5.14591,4.985 1.03449,1.08065 2.46684,2.65793 2.05107,1.90982 -2.20167,-3.96132 -7.94361,-8.21761 -11.37126,-11.07059 -7.83169,-6.51863 -15.77358,-12.89801 -23.67833,-19.32495 -12.79501,-10.40294 -23.68526,-23.03443 -37.02881,-32.82333 -8.43991,-6.19159 -16.49179,-12.58368 -24.54187,-19.29261 -2.9573,-2.4646 -5.95641,-4.70542 -9.03235,-6.99195 -1.14268,-0.84944 -4.05598,-3.88891 -3.34663,-2.65436 3.77256,6.56582 11.87963,10.74057 17.63276,15.1816 34.58635,26.69829 -5.65349,-3.89803 14.46609,11.52377 7.8223,5.99584 15.87196,11.67524 23.57035,17.83594 11.79804,9.44149 22.93438,19.61105 33.82605,30.07188 2.80205,2.69121 12.80788,13.98653 16.12146,13.75731"
       id="path1292" /><path
       style="fill:none;stroke:#00ffff;stroke-width:1"
       d="m -655.79747,202.29706 c 0.21592,-1.60772 0.20041,-3.2639 0.64775,-4.82315 0.0574,-0.20004 1.55376,-3.53166 2.95082,-2.65435 0.92626,0.58167 -0.53157,10.02154 -0.71972,11.20006 -0.0919,0.57587 -0.65443,1.71967 -0.072,1.74799 1.70281,0.0828 2.46269,-1.88095 4.46213,-0.77687 3.75499,2.07347 2.76294,7.30913 1.58335,10.42319 -0.80751,2.1318 -7.20339,7.45243 -7.08907,2.20116"
       id="path1380" /><path
       style="fill:none;stroke:#00ffff;stroke-width:1"
       d="m -495.33922,169.82981 c 0.072,-1.38112 -0.37801,-2.89439 0.21589,-4.14337 0.68224,-1.43476 2.97669,-2.2885 3.52653,-0.35608 1.39894,4.91666 -0.51227,5.20316 -0.97155,9.12838 -0.0617,0.52729 0.84727,-0.65623 1.33144,-0.874 1.03004,-0.46328 2.69931,-0.60642 3.3826,0.74453 1.60062,3.16461 1.95417,6.09045 0.50374,9.19311 -1.38751,2.96807 -9.41236,9.02125 -7.62883,1.74799"
       id="path1382" /><path
       style="fill:none;stroke:#00ffff;stroke-width:1"
       d="m -351.29038,206.01962 c -1.79549,-0.94467 1.85428,-7.49897 3.81447,-5.95609 3.56304,2.80449 1.23161,8.23627 -0.108,11.39428 -0.4636,1.09295 -1.03264,2.14013 -1.61928,3.17228 -0.29347,0.51631 -1.40694,1.89568 -1.15149,1.35954 3.25123,-6.82392 6.98452,3.51586 6.62125,6.79773 -0.96398,8.70874 -6.88745,10.68573 -11.11948,3.17228"
       id="path1386" /></g></svg>
