<?xml version="1.0" encoding="UTF-8" standalone="no"?>
<!-- Created with Inkscape (http://www.inkscape.org/) -->

<svg
   width="9855.1143mm"
   height="4896.7949mm"
   viewBox="0 0 9855.1141 4896.795"
   version="1.1"
   id="svg12"
   inkscape:version="1.2.1 (9c6d41e410, 2022-07-14, custom)"
   sodipodi:docname="maximum_boundry.svg"
   xml:space="preserve"
   xmlns:inkscape="http://www.inkscape.org/namespaces/inkscape"
   xmlns:sodipodi="http://sodipodi.sourceforge.net/DTD/sodipodi-0.dtd"
   xmlns="http://www.w3.org/2000/svg"
   xmlns:svg="http://www.w3.org/2000/svg"><sodipodi:namedview
     id="namedview14"
     pagecolor="#505050"
     bordercolor="#eeeeee"
     borderopacity="1"
     inkscape:showpageshadow="0"
     inkscape:pageopacity="0"
     inkscape:pagecheckerboard="0"
     inkscape:deskcolor="#505050"
     inkscape:document-units="mm"
     showgrid="true"
     inkscape:zoom="0.02"
     inkscape:cx="20100"
     inkscape:cy="9550"
     inkscape:window-width="1366"
     inkscape:window-height="746"
     inkscape:window-x="0"
     inkscape:window-y="0"
     inkscape:window-maximized="1"
     inkscape:current-layer="layer1"
     inkscape:lockguides="true"><inkscape:grid
       type="xygrid"
       id="grid344"
       color="#969696"
       opacity="0.39215686"
       empcolor="#000000"
       empopacity="0.17254902"
       dotted="false"
       originx="-7877.2467"
       originy="-45291.576" /></sodipodi:namedview><defs
     id="defs9" /><g
     inkscape:label="Layer 1"
     inkscape:groupmode="layer"
     id="layer1"
     transform="translate(-7982.2468,-45440.075)"><path
       style="fill:none;stroke:#ffffff;stroke-width:10.7"
       d="m 13446.802,45739.406 c 22.069,184.716 -0.927,371.912 -13.517,556.765 -18.463,271.066 -30.159,543.029 -57.626,813.388 -26.441,260.261 -68.272,518.733 -90.352,779.471 -14.391,169.947 -17.785,338.986 -17.785,509.408 0,35.199 -0.168,70.406 0.711,105.593 0.579,23.179 3.602,91.914 7.826,69.116 2.57,-13.875 1.897,-28.158 2.845,-42.238"
       id="path540" /><path
       style="fill:none;stroke:#ffffff;stroke-width:10.7"
       d="m 13510.119,45444.384 c -74.326,54.703 -40.518,21.615 -96.754,96.634 -92.659,123.608 -191.929,240.453 -292.398,357.738 -15.589,18.197 -31.306,36.3 -46.243,55.036 -1.943,2.437 -6.572,10.42 -4.269,8.32 45.852,-41.819 107.511,-111.338 145.844,-152.311 30.238,-32.32 60.72,-64.411 91.063,-96.634 3.73,-3.961 73.45,-82.77 80.391,-79.995 7.719,3.086 6.022,15.564 7.826,23.679 17.199,77.359 11.889,104.977 53.357,181.749 19.651,36.38 45.176,69.523 71.855,101.113 62.241,73.699 175.333,152.35 194.22,258.544"
       id="path542" /><path
       style="fill:none;stroke:#ffffff;stroke-width:10.7"
       d="m 13326.57,48248.048 c -19.375,300.227 3.431,602.826 -24.9,902.983 -27.266,288.877 -69.029,576.365 -97.466,865.225 -7.935,80.611 -15.194,136.879 -18.497,213.747 -1.76,40.961 -5.254,102.09 -5.691,101.753 -38.261,-29.5 -75.375,-157.363 -90.352,-193.908 -57.672,-140.72 -131.538,-388.326 -229.792,-505.568 -4.395,-5.245 -0.03,13.792 1.423,20.479 5.92,27.317 13.356,54.288 20.631,81.275 36.444,135.182 102.54,431.414 186.395,542.046 33.469,44.155 67.576,-6.975 88.929,-26.879 85.902,-80.074 186.747,-216.232 314.452,-229.745"
       id="path544" /><path
       style="fill:none;stroke:#ffffff;stroke-width:10.7"
       d="m 17299.197,48453.474 c -52.288,76.74 103.78,-78.406 140.151,-107.513 124.248,-99.433 453.915,-279.714 382.75,-477.41 -26.598,-73.888 -262.734,-75.237 -297.378,-10.239 -5.849,10.975 236.899,238.104 169.321,261.744 -17.877,6.253 -37.329,6.766 -56.204,8.319 -171.259,14.09 -346.775,-8.491 -517.209,-22.398 -226.479,-18.481 -452.438,-37.064 -679.417,-49.917 -627.981,-35.562 -1258.349,-25.684 -1886.001,-67.836 -490.95,-32.972 -982.883,-72.268 -1471.237,-133.112 -428.615,-53.401 -854.246,-128.579 -1281.998,-188.148 -212.4,-29.578 -430.534,-64.35 -644.556,-48.637 -37.469,0.64 -74.992,-0.211 -112.406,1.92 -225.528,12.846 -447.604,38.942 -673.724,46.717 -580.6674,19.967 -1156.6499,-12.38 -1735.1785,-56.956 -287.1436,-22.125 -94.6561,-9.507 -368.521,-26.239 -46.0974,-2.816 -230.441,1.764 -273.1893,-24.958 -27.7381,-17.339 36.5578,-55.464 61.8945,-76.155 159.1979,-130.006 342.5532,-229.546 520.767,-330.219 31.7635,-17.943 64.2077,-34.726 95.3317,-53.757 5.2939,-3.237 19.3914,-14.799 13.5172,-12.799 -94.4895,32.161 -193.7828,132.522 -263.9408,197.747 -70.294,65.352 -389.3653,329.164 -138.7288,407.015 252.0331,78.284 557.7404,47.667 785.419,194.547"
       id="path546" /><path
       style="fill:none;stroke:#ffffff;stroke-width:10.7"
       d="m 10831.584,48288.365 c 10.528,-268.009 188.177,-538.418 366.387,-729.554 41.619,-44.638 142.223,-164.308 223.389,-138.871 33.78,10.586 109.604,84.103 129.48,99.833 68.435,54.161 115.757,84.495 204.181,112.633 220.965,70.316 467.87,-0.358 676.57,-75.515 262.605,-94.568 506.3,-231.011 742.022,-378.856 195.751,-122.776 390.394,-281.732 610.407,-359.657 191.458,-67.812 382.677,-108.772 585.507,-101.114 596.269,22.515 1621.11,547.047 1355.275,1277.36 -94.915,260.755 -344.728,362.848 -569.144,488.289 -142.32,79.551 -331.568,170.703 -348.601,355.177 -24.385,264.103 455.258,853.134 181.415,1054.013 -99.805,73.212 -246.608,67.939 -359.984,41.598 -535.71,-124.46 -646.434,-670.822 -959.008,-1025.855 -97,-110.176 -253.045,-198.415 -392.71,-238.705 -650.753,-187.725 -966.991,430.841 -1543.804,551.645 -68.784,14.406 -146.08,32.138 -217.697,23.679 -240.523,-28.411 -531.654,-172.669 -642.422,-401.255 -36.937,-76.225 -9.667,-305.122 -9.248,-386.536 0.502,-97.602 -48.401,-168.235 -17.075,-266.863"
       id="path548" /><path
       style="fill:none;stroke:#ffffff;stroke-width:10.7"
       d="m 14621.912,49799.01 c 62.994,-319.222 255.098,-599.61 365.674,-904.263 11.624,-32.026 17.382,-111.891 -14.939,-101.114 -49.953,16.657 -92.961,49.491 -139.441,74.236"
       id="path550" /><path
       style="fill:none;stroke:#ffffff;stroke-width:10.7"
       d="m 14251.967,49459.191 c -25.848,24.319 -47.651,53.827 -77.545,72.956 -8.434,5.396 1.245,-21.938 8.537,-28.799 19.89,-18.712 54.726,-20.881 69.008,-44.157 40.512,-66.019 59.761,-142.924 89.641,-214.386 47.666,-68.049 95.879,-135.718 142.997,-204.147 80.37,-116.721 301.642,-422.151 389.864,-597.723 60.985,-121.368 104.103,-262.311 -87.506,-174.709 -42.521,19.441 -80.629,47.358 -120.943,71.036"
       id="path552" /><path
       style="fill:none;stroke:#ffffff;stroke-width:10.7"
       d="m 13976.644,49048.977 c 7.589,-34.557 7.85,-71.59 22.766,-103.673 27.265,-58.642 219.678,-344.533 244.02,-378.856 246.416,-347.446 520.71,-676.617 755.539,-1032.255 32.062,-48.556 198.969,-259.142 164.341,-354.538 -16.479,-45.395 -129.792,-17.785 -135.884,-15.999 -197.883,58.013 -308.113,175.395 -483.772,302.701"
       id="path554" /><path
       style="fill:none;stroke:#ffffff;stroke-width:10.7"
       d="m 13662.904,48437.176 c 28.22,-61.649 49.389,-127.043 84.659,-184.948 252.972,-415.308 587.401,-779.331 901.383,-1148.088 40.44,-47.495 185.054,-211.714 220.544,-288.622 7.063,-15.308 14.025,-43.807 -1.424,-50.557 -56.967,-24.889 -287.025,142.489 -350.023,183.669"
       id="path556" /><path
       style="fill:none;stroke:#ffffff;stroke-width:10.7"
       d="m 12955.03,48368.06 c 25.374,-69.756 37.795,-145.701 76.123,-209.267 164.326,-272.53 328.932,-460.433 522.901,-695.636 74.115,-89.869 187.753,-214.475 246.156,-324.459 8.35,-15.725 25.628,-44.021 9.959,-52.477 -66.17,-35.714 -398.935,208.365 -421.166,223.346"
       id="path558" /><path
       style="fill:none;stroke:#ffffff;stroke-width:10.7"
       d="m 12168.188,48489.653 c 19.92,-53.757 32.712,-110.724 59.761,-161.27 155.459,-290.511 377.699,-551.752 596.889,-795.47 41.907,-46.596 87.025,-90.215 129.481,-136.311 32.019,-34.765 64.553,-69.192 93.909,-106.234 5.086,-6.418 16.06,-26.275 8.537,-23.038 -111.74,48.072 -262.344,205.134 -355.004,286.701"
       id="path560" /><path
       style="fill:none;stroke:#ffffff;stroke-width:10.7"
       d="m 11722.833,48904.986 c 151.211,-486.25 456.323,-903.001 737.042,-1320.876 28.564,-42.521 56.479,-85.808 78.968,-131.832 6.345,-12.984 20.842,-42.293 6.403,-42.877 -67.041,-2.711 -239.77,194.139 -296.666,249.584"
       id="path562" /><path
       style="fill:none;stroke:#ffffff;stroke-width:10.7"
       d="m 11357.869,48846.11 c -0.948,-20.265 -6.396,-40.822 -2.845,-60.796 50.092,-281.831 205.153,-539.345 313.74,-800.59 12.47,-29.999 92.756,-222.58 86.084,-277.742 -1.637,-13.526 -29.246,-12.723 -40.552,-5.12 -41.014,27.581 -70.669,69.116 -106.003,103.674"
       id="path564" /><path
       style="fill:none;stroke:#ffffff;stroke-width:10.7"
       d="m 11143.729,48749.476 c 13.902,-345.431 188.49,-654.372 313.74,-969.539 22.957,-57.765 108.727,-229.811 96.755,-311.66"
       id="path566" /></g></svg>
