<?xml version="1.0" encoding="UTF-8" standalone="no"?>
<!-- Created with Inkscape (http://www.inkscape.org/) -->

<svg
   width="25414.695mm"
   height="18221.25mm"
   viewBox="0 0 25414.695 18221.25"
   version="1.1"
   id="svg12"
   inkscape:version="1.2.1 (9c6d41e410, 2022-07-14, custom)"
   sodipodi:docname="maximum_example_hessian_saddle.svg"
   xml:space="preserve"
   xmlns:inkscape="http://www.inkscape.org/namespaces/inkscape"
   xmlns:sodipodi="http://sodipodi.sourceforge.net/DTD/sodipodi-0.dtd"
   xmlns="http://www.w3.org/2000/svg"
   xmlns:svg="http://www.w3.org/2000/svg"><sodipodi:namedview
     id="namedview14"
     pagecolor="#505050"
     bordercolor="#eeeeee"
     borderopacity="1"
     inkscape:showpageshadow="0"
     inkscape:pageopacity="0"
     inkscape:pagecheckerboard="0"
     inkscape:deskcolor="#505050"
     inkscape:document-units="mm"
     showgrid="true"
     inkscape:zoom="0.014535483"
     inkscape:cx="15032.18"
     inkscape:cy="58339.993"
     inkscape:window-width="1366"
     inkscape:window-height="746"
     inkscape:window-x="0"
     inkscape:window-y="0"
     inkscape:window-maximized="1"
     inkscape:current-layer="layer1"
     inkscape:lockguides="true"><inkscape:grid
       type="xygrid"
       id="grid344"
       color="#969696"
       opacity="0.39215686"
       empcolor="#000000"
       empopacity="0.17254902"
       dotted="false"
       originx="-5546.8206"
       originy="-67152.88" /></sodipodi:namedview><defs
     id="defs9" /><g
     inkscape:label="Layer 1"
     inkscape:groupmode="layer"
     id="layer1"
     transform="translate(-5651.8205,-67301.385)"><path
       style="fill:none;stroke:#ffffff;stroke-width:40.7;stroke-dasharray:none"
       d="m 10415.335,67794.378 c -68.398,165.516 -125.918,335.04 -197.735,499.271 -13.255,30.311 -48.044,121.776 -44.05,88.935 3.068,-25.237 12.399,-49.311 18.599,-73.966"
       id="path2364" /><path
       style="fill:none;stroke:#ffffff;stroke-width:40.7;stroke-dasharray:none"
       d="m 10214.663,67917.655 c 199.817,354.459 69.033,138.381 213.398,356.622 29.642,44.81 93.246,180.69 87.121,111.83"
       id="path2366" /><path
       style="fill:none;stroke:#ffffff;stroke-width:40.7;stroke-dasharray:none"
       d="m 10605.239,67449.203 c 38.646,-67.101 30.704,-59.789 67.544,-107.426 85.277,-110.271 61.233,70.433 49.923,121.515 -16.204,73.182 -95.267,245.567 -87.121,254.479 12.519,13.696 205.182,-76.254 254.511,-65.161"
       id="path2368" /><path
       style="fill:none;stroke:#ffffff;stroke-width:40.7;stroke-dasharray:none"
       d="m 11178.868,67959.921 c -0.979,-25.829 22.893,-78.467 -2.937,-77.488 -25.829,0.979 3.768,51.653 2.937,77.488 -2.109,65.537 -10.608,130.801 -11.747,196.362 -1.275,73.38 26.341,183.662 -3.916,256.24 17.966,-246.918 82.441,-192.662 263.321,-204.287"
       id="path2370" /><path
       style="fill:none;stroke:#ffffff;stroke-width:40.7;stroke-dasharray:none"
       d="m 12376.047,68099.048 c -89.317,49.863 -174.626,105.842 -259.405,162.901 -2.629,1.77 -58.875,40.542 -58.733,37.864 2.379,-44.944 110.123,-170.276 130.192,-206.048 2.818,-5.023 99.212,-170.413 57.754,-193.721 -10.386,-5.839 -12.27,52.97 18.599,192.84 17.779,80.553 48.211,310.269 156.622,300.267"
       id="path2372" /><path
       style="fill:none;stroke:#ffffff;stroke-width:40.7;stroke-dasharray:none"
       d="m 12781.307,67929.102 c 11.42,-27.297 61.558,-70.471 34.261,-81.891 -27.297,-11.42 -23.532,54.315 -34.261,81.891 -25.553,65.675 -172.241,516.545 -221.229,540.657 -34.116,16.791 -14.87,-74.582 -22.514,-111.83"
       id="path2374" /><path
       style="fill:none;stroke:#ffffff;stroke-width:40.7;stroke-dasharray:none"
       d="m 12556.163,68031.246 c -3.589,-38.157 -7.179,-76.315 -10.768,-114.472 -1.305,-1.174 -4.08,-5.27 -3.916,-3.522 3.712,39.461 -7.595,85.213 14.684,117.994 31.14,45.821 93.469,60.818 133.128,99.501 99.402,96.958 273.295,312.339 255.49,458.766"
       id="path2376" /><path
       style="fill:none;stroke:#ffffff;stroke-width:40.7;stroke-dasharray:none"
       d="m 13491,67992.501 c -17.52,143.699 17.122,285.186 28.388,427.066"
       id="path2378" /><path
       style="fill:none;stroke:#ffffff;stroke-width:40.7;stroke-dasharray:none"
       d="m 13390.175,68239.055 c 82.788,-112.861 212.577,-72.813 333.801,-65.161"
       id="path2380" /><path
       style="fill:none;stroke:#ffffff;stroke-width:40.7;stroke-dasharray:none"
       d="m 14144.897,67967.846 c 62.609,34.642 -25.808,576.416 -110.614,454.363"
       id="path2382" /><path
       style="fill:none;stroke:#ffffff;stroke-width:40.7;stroke-dasharray:none"
       d="m 13890.386,68083.198 c 59.932,72.483 139.35,122.577 205.567,187.557"
       id="path2384" /><path
       style="fill:none;stroke:#ffffff;stroke-width:40.7;stroke-dasharray:none"
       d="m 14347.527,67465.934 c -46.318,28.581 123.806,-139.643 140.96,-84.533 30.133,96.809 -16.535,228.762 -52.86,315.236 -14.805,35.246 -34.694,68.174 -53.839,101.263 -12.525,21.648 -61.838,60.871 -37.198,65.161 25.555,4.449 320.551,-83.34 309.329,17.611"
       id="path2386" /><path
       style="fill:none;stroke:#ffffff;stroke-width:40.7;stroke-dasharray:none"
       d="m 14895.705,68243.458 c 114.783,-34.367 220.051,-31.228 328.906,10.566"
       id="path2388" /><path
       style="fill:none;stroke:#ffffff;stroke-width:40.7;stroke-dasharray:none"
       d="m 15595.608,67935.266 c 94.181,-19.219 43.643,-140.444 28.389,-109.188 -16.495,33.796 -11.751,75.462 -28.389,109.188 -58.908,119.415 -163.519,144.375 -81.247,262.403 89.835,128.877 350.241,84.891 290.729,14.97 -75.811,-89.073 -428.569,48.774 -216.333,-43.147"
       id="path2390" /><path
       style="fill:none;stroke:#ffffff;stroke-width:40.7;stroke-dasharray:none"
       d="m 16275.935,67916.774 c -122.264,93.251 -192.006,230.022 -264.299,361.906 -11.976,21.846 -21.616,44.908 -33.282,66.921 -1.742,3.287 -6.652,12.52 -6.853,8.806 -0.815,-15.036 3.263,-29.939 4.895,-44.908"
       id="path2392" /><path
       style="fill:none;stroke:#ffffff;stroke-width:40.7;stroke-dasharray:none"
       d="m 15919.621,67864.822 c -159.924,-242.728 119.597,160.946 131.171,195.482 6.581,19.637 5.22,41.092 7.83,61.638"
       id="path2394" /><path
       style="fill:none;stroke:#ffffff;stroke-width:40.7;stroke-dasharray:none"
       d="m 16809.43,68083.198 c 139.224,-9.593 305.444,-120.205 450.288,-88.935"
       id="path2396" /><path
       style="fill:none;stroke:#ffffff;stroke-width:40.7;stroke-dasharray:none"
       d="m 17766.782,67596.255 c -43.095,48.326 -240.146,121.827 -246.68,216.615 -6.07,88.053 297.87,259.24 358.273,334.608 195.411,243.823 -413.433,329.589 -325.97,38.744 29.17,-97 91.416,-181.905 151.728,-263.284 8.28,-11.173 250.504,-217.113 249.616,-233.345 -1.794,-32.818 -78.904,-28.966 -83.206,-30.819 -37.083,-15.98 -63.64,-67.089 -103.761,-62.519 -40.135,29.351 -80.269,58.703 -120.403,88.055 0,0.293 0,0.587 0,0.88"
       id="path2398" /><path
       style="fill:none;stroke:#ffffff;stroke-width:40.7;stroke-dasharray:none"
       d="m 18532.271,67934.385 c 17.947,-28.764 35.893,-57.529 53.839,-86.293 0.326,-2.055 2.08,-7.929 0.979,-6.164 -87.575,140.367 -206.481,252.607 -309.328,383.038 -24.084,30.543 -49.048,60.381 -73.416,90.697 -6.304,7.842 -17.465,33.772 -18.599,23.775 -2.567,-22.626 9.32,-44.578 13.704,-66.922 10.3,-52.504 20.23,-105.079 30.346,-157.618"
       id="path2400" /><path
       style="fill:none;stroke:#ffffff;stroke-width:40.7;stroke-dasharray:none"
       d="m 18241.542,68027.723 c 10.486,-74.213 23.261,-152.345 3.915,-226.3 -6.369,-24.35 18.789,46.724 29.367,69.563 22.336,48.22 44.879,96.343 67.544,144.41 74.907,158.863 142.187,329.847 236.891,478.137"
       id="path2402" /><path
       style="fill:none;stroke:#ffffff;stroke-width:40.7;stroke-dasharray:none"
       d="m 18988.433,67879.791 c 7.179,37.277 28.137,74.447 21.536,111.83 -5.159,29.216 -211.062,399.322 -225.145,385.68 -7.983,-7.733 -8.483,-20.546 -12.725,-30.819"
       id="path2404" /><path
       style="fill:none;stroke:#ffffff;stroke-width:40.7;stroke-dasharray:none"
       d="m 18685.957,68032.126 c -22.188,-31.993 -44.376,-63.986 -66.565,-95.98 2.284,-1.761 4.136,-6.25 6.853,-5.283 103.902,36.996 -34.696,3.818 59.712,101.263 35.831,36.984 91.197,48.479 133.128,78.369 28.134,40.709 11.618,25.13 46.988,49.311"
       id="path2406" /><path
       style="fill:none;stroke:#ffffff;stroke-width:40.7;stroke-dasharray:none"
       d="m 19965.825,67529.883 c -45.817,135.218 -47.293,281.195 -54.818,422.664 -2.152,40.459 24.221,151.583 -2.936,121.515 -5.682,-6.29 -8.484,-14.676 -12.726,-22.013"
       id="path2408" /><path
       style="fill:none;stroke:#ffffff;stroke-width:40.7;stroke-dasharray:none"
       d="m 19753.406,67864.492 c 122.995,-8.936 246.272,-5.497 369.04,-15.85"
       id="path2410" /><path
       style="fill:none;stroke:#ffffff;stroke-width:40.7;stroke-dasharray:none"
       d="m 20286.9,67573.03 c 50.902,-21.133 101.245,-43.666 152.706,-63.399 115.043,-44.115 208.621,-114.075 138.024,33.461 -49.639,103.737 -89.805,171.031 -116.488,286.178 -25.881,111.686 -23.487,168.041 -2.937,274.731 17.179,89.186 20.927,33.864 17.621,69.563"
       id="path2412" /><path
       style="fill:none;stroke:#ffffff;stroke-width:40.7;stroke-dasharray:none"
       d="m 20287.879,67880.342 c 139.894,-45.859 297.798,-29.715 421.901,48.43"
       id="path2414" /><path
       style="fill:none;stroke:#ffffff;stroke-width:40.7;stroke-dasharray:none"
       d="m 9359.3781,67851.063 c 0.6821,21.16 345.8111,1.017 318.1386,60.758"
       id="path2416" /><path
       style="fill:none;stroke:#ffffff;stroke-width:40.7;stroke-dasharray:none"
       d="m 9314.3494,68018.368 c 128.2932,66.241 265.6892,84.432 406.2385,97.74"
       id="path2418" /><path
       style="fill:none;stroke:#ffffff;stroke-width:40.7;stroke-dasharray:none"
       d="m 8132.832,67855.466 c -346.2441,171.677 -237.1745,317.495 -90.0575,580.281 12.0979,21.61 49.3149,74.172 10.7678,87.175"
       id="path2420" /><path
       style="fill:none;stroke:#ffffff;stroke-width:40.7;stroke-dasharray:none"
       d="m 7777.4961,68363.543 c 129.7132,-92.715 296.2928,-145.943 455.1823,-103.905"
       id="path2422" /><path
       style="fill:none;stroke:#ffffff;stroke-width:40.7;stroke-dasharray:none"
       d="m 9845.1551,69884.758 c -26.1036,21.133 -55.5977,38.658 -78.3109,63.399 -102.194,111.319 -79.834,273.347 -23.4931,399.769 7.5758,17 192.0256,244.729 92.9944,165.544"
       id="path2424" /><path
       style="fill:none;stroke:#ffffff;stroke-width:40.7;stroke-dasharray:none"
       d="m 9584.7712,70330.315 c 106.3363,-87.246 222.2138,-72.86 324.9906,9.687"
       id="path2426" /><path
       style="fill:none;stroke:#ffffff;stroke-width:40.7;stroke-dasharray:none"
       d="m 10260.204,70467.681 c -4.569,35.222 -5.574,71.092 -13.705,105.666 -17.853,75.915 -47.662,148.512 -71.459,222.779 -6.374,19.892 -14.668,72.908 -27.408,56.354 -11.675,-15.17 -16.315,-34.635 -24.473,-51.952"
       id="path2428" /><path
       style="fill:none;stroke:#ffffff;stroke-width:40.7;stroke-dasharray:none"
       d="m 10065.405,70551.333 c 142.852,-11.832 269.522,133.536 355.336,237.748"
       id="path2430" /><path
       style="fill:none;stroke:#ffffff;stroke-width:40.7;stroke-dasharray:none"
       d="m 10686.999,70098.731 c 39.698,21.937 276.294,-67.188 162.495,22.895"
       id="path2432" /><path
       style="fill:none;stroke:#ffffff;stroke-width:40.7;stroke-dasharray:none"
       d="m 10707.555,70262.514 c 92.415,92.461 223.259,8.302 324.991,44.907"
       id="path2434" /><path
       style="fill:none;stroke:#ffffff;stroke-width:40.7;stroke-dasharray:none"
       d="m 11949.764,69935.83 c 102.232,-17.109 102.829,-45.564 82.226,87.174 -6.976,44.946 -19.458,89.074 -34.261,132.082 -13.678,39.74 -32.591,77.523 -50.902,115.352 -15.327,31.667 -58.537,58.116 -50.902,92.458 5.634,25.336 45.83,-24.385 68.522,-36.983 67.836,-37.662 201.533,-124.92 279.962,-73.966"
       id="path2436" /><path
       style="fill:none;stroke:#ffffff;stroke-width:40.7;stroke-dasharray:none"
       d="m 12838.594,69772.048 c -5.547,35.222 -6.705,71.422 -16.641,105.666 -47.058,162.174 -120.467,321.02 -176.2,480.779 -7.411,21.245 -22.616,84.84 -25.451,62.519 -4.006,-31.529 -4.568,-63.4 -6.852,-95.099 -4.568,-35.516 -9.136,-71.031 -13.704,-106.547"
       id="path2438" /><path
       style="fill:none;stroke:#ffffff;stroke-width:40.7;stroke-dasharray:none"
       d="m 12543.948,69803.748 c 102.255,249.748 295.394,437.826 459.099,646.322"
       id="path2440" /><path
       style="fill:none;stroke:#ffffff;stroke-width:40.7;stroke-dasharray:none"
       d="m 13583.528,69971.052 c -2.611,-40.799 -6.696,-81.53 -7.832,-122.396 -7.683,-276.448 -0.197,206.037 1.958,247.434 2.419,46.478 12.593,92.231 19.578,138.246 7.215,47.533 18.998,107.258 17.62,107.427 -11.523,1.413 -16.968,-15.85 -25.451,-23.775 -49.597,-70.15 -107.915,-134.886 -148.791,-210.451 -5.659,-10.461 27.431,-27.403 93.973,-29.058 133.577,-3.323 266.707,31.618 399.386,20.252"
       id="path2442" /><path
       style="fill:none;stroke:#ffffff;stroke-width:40.7;stroke-dasharray:none"
       d="m 14244.277,69897.086 c -28.543,-0.884 -286.74,145.379 -278.005,97.74 20.007,-109.106 224.03,-301.973 182.073,-406.812 -15.586,-38.946 -34.336,84.536 -20.556,124.157 23.93,68.806 92.573,116.103 116.488,184.915 26.527,76.329 16.458,160.961 31.324,240.389 6.837,36.526 36.423,117.029 47.965,162.021"
       id="path2444" /><path
       style="fill:none;stroke:#ffffff;stroke-width:40.7;stroke-dasharray:none"
       d="m 15142.896,69950.799 c 80.382,29.873 309.028,-74.35 246.679,81.891"
       id="path2446" /><path
       style="fill:none;stroke:#ffffff;stroke-width:40.7;stroke-dasharray:none"
       d="m 15591.226,69791.42 c 33.934,34.048 67.283,68.69 101.805,102.143 71.062,68.864 213.651,169.666 206.544,287.059 -6.772,111.87 -232.53,264.854 -248.637,147.052 -43.335,-316.938 660.971,-598.585 19.578,-552.984 -26.944,1.915 -52.86,11.153 -79.29,16.73 z"
       id="path2448" /><path
       style="fill:none;stroke:#ffffff;stroke-width:40.7;stroke-dasharray:none"
       d="m 16520.191,69837.209 c -111.568,140.196 -160.505,314.665 -238.849,473.735 -9.01,18.293 -25.613,71.215 -32.304,51.952 -9.02,-25.968 21.311,-74.282 31.325,-99.502"
       id="path2450" /><path
       style="fill:none;stroke:#ffffff;stroke-width:40.7;stroke-dasharray:none"
       d="m 16207.925,69789.659 c 32.15,92.878 108.464,123.981 174.242,183.154"
       id="path2452" /><path
       style="fill:none;stroke:#ffffff;stroke-width:40.7;stroke-dasharray:none"
       d="m 10223.006,71666.107 c -150.796,53.233 -217.425,188.473 -198.714,345.175 5.177,43.363 16.599,85.916 29.366,127.68 4.267,13.956 164.418,336.073 83.206,297.625"
       id="path2454" /><path
       style="fill:none;stroke:#ffffff;stroke-width:40.7;stroke-dasharray:none"
       d="m 9853.9654,72172.422 c 27.735,-19.666 50.6495,-49.194 83.2054,-58.997 130.0592,-39.161 340.5292,-28.927 441.4792,67.803"
       id="path2456" /><path
       style="fill:none;stroke:#ffffff;stroke-width:40.7;stroke-dasharray:none"
       d="m 10821.106,72365.262 c 5.874,56.942 23.144,113.85 17.62,170.827 -5.483,56.562 -96.648,293.87 -161.516,310.833 -12.79,3.344 -20.23,-17.024 -30.346,-25.536"
       id="path2458" /><path
       style="fill:none;stroke:#ffffff;stroke-width:40.7;stroke-dasharray:none"
       d="m 10513.735,72546.655 c -13.704,-31.112 -35.034,-59.888 -41.112,-93.338 -1.463,-8.047 21.175,-5.724 24.471,1.761 12.507,28.394 -12.112,79.922 16.641,91.577 197.828,80.189 50.83,-86.041 222.208,16.73"
       id="path2460" /><path
       style="fill:none;stroke:#ffffff;stroke-width:40.7;stroke-dasharray:none"
       d="m 11236.155,71947.002 c 9.66,7.548 357.059,-101.093 190.883,18.491"
       id="path2462" /><path
       style="fill:none;stroke:#ffffff;stroke-width:40.7;stroke-dasharray:none"
       d="m 11249.859,72105.5 c 135.324,80.056 288.002,15.686 427.774,52.834"
       id="path2464" /><path
       style="fill:none;stroke:#ffffff;stroke-width:40.7;stroke-dasharray:none"
       d="m 12924.736,71739.193 c 2.47,-12.796 4.484,-148.534 60.691,-163.783 91.808,-24.906 -20.15,433.773 -32.303,470.213 -17.365,52.067 -41.524,101.658 -64.607,151.454 -25.393,54.781 -58.079,104.64 -54.818,106.547 30.702,17.951 253.435,-145.349 376.872,-71.325"
       id="path2466" /><path
       style="fill:none;stroke:#ffffff;stroke-width:40.7;stroke-dasharray:none"
       d="m 13682.395,71831.65 c 141.831,-146.25 41.384,-89.905 0,0 -35.739,77.644 -47.071,164.49 -76.353,244.792 -17.791,48.79 -43.673,94.243 -64.607,141.769 -16.522,37.51 -35.12,146.013 -54.817,110.068 -13.281,-24.234 -11.747,-54.007 -17.62,-81.01"
       id="path2468" /><path
       style="fill:none;stroke:#ffffff;stroke-width:40.7;stroke-dasharray:none"
       d="m 13335.869,71814.92 c 30.441,153.605 247.508,167.293 265.278,314.355"
       id="path2470" /><path
       style="fill:none;stroke:#ffffff;stroke-width:40.7;stroke-dasharray:none"
       d="m 14073.95,71873.917 c -240.318,288.388 456.836,-129.216 336.738,74.846"
       id="path2472" /><path
       style="fill:none;stroke:#ffffff;stroke-width:40.7;stroke-dasharray:none"
       d="m 14754.277,71657.301 c -103.717,40.602 -148.856,174.951 -38.176,257.121 53.585,39.782 268.476,82.531 327.927,5.283 4.863,-6.318 -5.059,-18.068 -12.726,-20.253 -114.684,-32.685 -254.915,8.377 -365.125,40.506 -31.144,9.078 -61.457,20.807 -92.015,31.699 -4.044,1.441 -15.525,7.323 -11.747,5.283 41.99,-22.663 32.819,-17.268 80.269,-34.341"
       id="path2474" /><path
       style="fill:none;stroke:#ffffff;stroke-width:40.7;stroke-dasharray:none"
       d="m 15310.285,71793.786 c 91.518,36.504 251.176,1.14 318.139,7.045"
       id="path2476" /><path
       style="fill:none;stroke:#ffffff;stroke-width:40.7;stroke-dasharray:none"
       d="m 16102.206,71512.011 c -337.195,118.305 177.329,309.407 163.474,440.274 -10.259,96.898 -260.872,183.842 -86.142,-52.833 59.674,-80.83 129.216,-153.914 191.861,-232.464 41.988,-52.649 149.365,-156.573 87.121,-182.274 -83.064,-34.298 -192.07,57.236 -274.089,57.236 -29.168,0 -54.817,-19.959 -82.225,-29.939 z"
       id="path2478" /><path
       style="fill:none;stroke:#ffffff;stroke-width:40.7;stroke-dasharray:none"
       d="m 16943.069,71571.889 c -33.282,28.177 -74.228,49.241 -99.846,84.532 -13.365,18.411 -192.83,476.791 -228.08,424.424 -22.388,-33.259 -18.273,-78.075 -27.409,-117.113"
       id="path2480" /><path
       style="fill:none;stroke:#ffffff;stroke-width:40.7;stroke-dasharray:none"
       d="m 16575.987,71806.114 c 15.302,-64.378 -50.695,-225.508 -23.493,-275.611 4.863,-8.959 55.695,29.619 110.614,98.621 135.408,170.13 183.162,352.571 238.849,556.507"
       id="path2482" /><path
       style="fill:none;stroke:#ffffff;stroke-width:40.7;stroke-dasharray:none"
       d="m 12927.04,74253.859 c 11.798,-15.27 39.526,-126.652 79.29,-130.321 35.192,-3.247 33.398,111.742 22.514,198.124 -19.714,156.473 -56.707,229.912 -120.403,390.082 -16.813,42.279 -66.698,140.682 -66.564,140.888 3.001,4.627 77.368,-46.718 167.389,-78.369 35.959,-12.643 189.201,-21.848 181.095,-42.266"
       id="path2484" /><path
       style="fill:none;stroke:#ffffff;stroke-width:40.7;stroke-dasharray:none"
       d="m 13818.806,74218.637 c 11.421,-27.884 22.841,-55.768 34.262,-83.652 0.652,-2.054 2.775,-8.159 1.958,-6.164 -94.345,230.35 51.464,-102.06 -161.517,280.014 -42.014,75.371 -44.316,142.171 -68.522,218.376 -8.374,26.362 -3.745,-55.193 -5.874,-82.771"
       id="path2486" /><path
       style="fill:none;stroke:#ffffff;stroke-width:40.7;stroke-dasharray:none"
       d="m 13572.127,74225.682 c -13.378,-27.884 -26.756,-55.769 -40.135,-83.653 -2.61,-5.283 -10.38,-21.162 -7.831,-15.849 15.928,33.197 24.689,70.973 47.966,99.502 99.746,122.251 426.986,386.554 417.006,574.998"
       id="path2488" /><path
       style="fill:none;stroke:#ffffff;stroke-width:40.7;stroke-dasharray:none"
       d="m 14793.779,74333.109 c 63.911,-2.505 124.529,0.719 185.009,19.372"
       id="path2490" /><path
       style="fill:none;stroke:#ffffff;stroke-width:40.7;stroke-dasharray:none"
       d="m 15153.03,74092.719 c 32.304,41.973 59.299,88.627 96.911,125.918 45.587,45.2 408.9,240.305 222.207,347.817 -156.628,90.197 -298.629,-9.829 -242.764,-182.274 58.337,-180.078 285.757,-288.079 332.821,-433.229 10.577,-32.621 -69.471,-3.742 -102.783,4.403 -67.064,16.396 -136.254,30.227 -197.735,61.638 -30.451,15.557 -325.925,236.678 41.114,-35.222"
       id="path2492" /><path
       style="fill:none;stroke:#ffffff;stroke-width:40.7;stroke-dasharray:none"
       d="m 16145.622,73963.278 c -64.853,161.593 -95.519,333.585 -143.896,500.152 -8.513,29.31 -20.058,106.581 -39.155,82.771 -19.597,-24.432 -26.104,-56.942 -39.156,-85.413"
       id="path2494" /><path
       style="fill:none;stroke:#ffffff;stroke-width:40.7;stroke-dasharray:none"
       d="m 15843.146,74079.511 c -106.572,-335.871 175.727,-0.343 193.819,113.59"
       id="path2496" /><path
       style="fill:none;stroke:#ffffff;stroke-width:40.7;stroke-dasharray:none"
       d="m 16804.414,73995.859 c -27.622,100.523 -62.764,267.331 13.705,361.905 7.851,9.71 -12.654,-22.278 -22.514,-29.939"
       id="path2498" /><path
       style="fill:none;stroke:#ffffff;stroke-width:40.7;stroke-dasharray:none"
       d="m 16644.856,74287.32 c 136.281,-66.125 290.916,-83.748 440.499,-95.979"
       id="path2500" /><path
       style="fill:none;stroke:#ffffff;stroke-width:40.7;stroke-dasharray:none"
       d="m 17511.171,74061.9 c 30.883,-110.402 -260.16,177.595 -289.751,97.74 -35.582,-96.022 179.137,-273.195 179.137,-385.68 0,-13.582 -22.073,19.212 -24.473,32.581 -16.983,94.601 -6.048,153.157 17.621,250.076 37.208,152.366 126.674,273.739 184.031,415.618"
       id="path2502" /><path
       style="fill:none;stroke:#ffffff;stroke-width:40.7;stroke-dasharray:none"
       d="m 12902.568,76067.788 c 116.791,-34.346 65.656,-28.149 141.939,-31.699 11.411,-0.531 34.261,12.304 34.261,0.88 0,-49.538 -19.311,44.712 -1.959,-25.535"
       id="path2504" /><path
       style="fill:none;stroke:#ffffff;stroke-width:40.7;stroke-dasharray:none"
       d="m 13214.833,75862.621 c -9.462,24.362 -30.833,47.065 -28.388,73.085 7.974,84.878 196.527,139.994 242.765,189.318 84.247,89.873 -0.585,231.958 -100.826,184.035 -177.874,-85.038 133.234,-407.68 132.15,-466.691 -2.394,-130.265 -219.562,4.413 -245.701,20.253 z"
       id="path2506" /><path
       style="fill:none;stroke:#ffffff;stroke-width:40.7;stroke-dasharray:none"
       d="m 13939.21,75757.835 c -56.175,192.59 -27.675,425.981 -124.319,605.817 -42.756,79.561 -50.08,51.048 -71.459,19.372"
       id="path2508" /><path
       style="fill:none;stroke:#ffffff;stroke-width:40.7;stroke-dasharray:none"
       d="m 13657.29,75933.945 c -130.984,-434.477 392.905,303.347 450.288,390.963 38.244,58.392 122.361,184.194 122.361,130.322"
       id="path2510" /><path
       style="fill:none;stroke:#ffffff;stroke-width:40.7;stroke-dasharray:none"
       d="m 14823.145,75769.283 c -48.678,141.29 4.393,288.658 37.198,428.826 4.65,19.868 28.206,73.17 12.725,59.877 -0.754,-0.647 -43.413,-67.053 -45.028,-69.563"
       id="path2512" /><path
       style="fill:none;stroke:#ffffff;stroke-width:40.7;stroke-dasharray:none"
       d="m 14728.193,76070.43 c 84.556,-89.052 139.474,-56.296 232.975,-85.414"
       id="path2514" /><path
       style="fill:none;stroke:#ffffff;stroke-width:40.7;stroke-dasharray:none"
       d="m 15159.883,75810.669 c 32.629,-38.158 65.157,-76.402 97.889,-114.472 266.634,-310.123 -24.085,318.146 40.134,348.697 79.75,37.939 214.873,-43.044 287.792,-70.443"
       id="path2516" /><path
       style="fill:none;stroke:#ffffff;stroke-width:40.7;stroke-dasharray:none"
       d="m 15928.31,75573.801 c 41.403,132.535 38.236,402.33 -50.903,521.284 -11.198,14.944 -34.587,14.089 -51.881,21.134"
       id="path2518" /><path
       style="fill:none;stroke:#ffffff;stroke-width:40.7;stroke-dasharray:none"
       d="m 15638.558,75682.109 c 124.632,-30.447 198.415,30.812 287.793,103.904"
       id="path2520" /><path
       style="fill:none;stroke:#ffffff;stroke-width:40.7;stroke-dasharray:none"
       d="m 16730.998,75611.665 c 176.482,47.924 271.723,-10.269 419.942,-95.981"
       id="path2522" /><path
       style="fill:none;stroke:#ffffff;stroke-width:40.7;stroke-dasharray:none"
       d="m 17332.034,75306.995 c -49.923,2.348 -102.538,-9.297 -149.769,7.045 -41.956,14.516 -96.402,86.467 -65.586,136.484 66.058,107.217 434.005,198.129 526.642,117.113 27.727,-24.249 -68.152,-30.975 -104.741,-35.222 -113.051,-13.122 -173.64,-2.778 -292.688,3.522 -64.871,3.433 -143.843,13.191 -139.002,-6.164 9.996,-39.959 94.483,-101.338 117.467,-120.634"
       id="path2524" /><path
       style="fill:none;stroke:#ffffff;stroke-width:40.7;stroke-dasharray:none"
       d="m 18203.245,73339.85 c -61.395,197.805 26.368,-129.351 20.556,-96.86 -40.576,226.819 -22.211,473.913 -8.809,700.916 17.254,292.262 74.565,756.69 106.698,1032.002 47.104,403.595 111.662,806.56 51.881,1209.873"
       id="path2526" /><path
       style="fill:none;stroke:#ffffff;stroke-width:40.7;stroke-dasharray:none"
       d="m 18978.523,73691.189 c -98.749,69.314 -152.463,72.985 -173.263,194.601 -36.926,215.905 349.482,215.363 363.167,47.55 7.757,-95.124 -41.266,-160.312 -111.593,-206.049 -24.096,-15.671 -60.575,-58.722 -78.311,-36.102 -46.839,59.737 -43.071,145.584 -64.606,218.376"
       id="path2528" /><path
       style="fill:none;stroke:#ffffff;stroke-width:40.7;stroke-dasharray:none"
       d="m 19103.821,74866.721 c 115.889,81.534 -43.756,-129.956 -38.177,-95.98 5.58,33.976 58.018,67.841 38.177,95.98 -30.334,43.019 -112.167,18.504 -146.833,58.116 -49.542,56.61 -68.167,296.781 45.029,320.52 225.949,47.383 332.864,-294.927 220.249,-444.677 -11.571,-15.388 -34.085,-36.673 -50.901,-27.297 -33.543,18.702 -35.844,71.657 -67.544,93.338 -58.276,39.856 -135.728,45.288 -193.82,85.413 -41.216,28.469 -38.492,92.376 7.832,81.01"
       id="path2530" /><path
       style="fill:none;stroke:#ffffff;stroke-width:40.7;stroke-dasharray:none"
       d="m 19384.762,73331.045 c 99.647,-0.277 464.074,-24.517 521.746,73.085 46.74,79.1 71.022,459.135 91.038,553.865 78.659,372.269 183.546,746.453 288.771,1112.133 60.841,211.434 137.461,410.419 215.356,615.502 16.473,43.369 72.488,114.211 31.324,135.605 -27.232,14.154 -342.95,9.082 -365.125,9.686 -229.946,6.268 -445.781,8.885 -672.496,4.403"
       id="path2532" /><path
       style="fill:none;stroke:#ffffff;stroke-width:40.7;stroke-dasharray:none"
       d="m 12613.796,73738.738 c -109.295,-11.343 -60.936,-20.321 -178.158,44.028 -45.959,25.23 -142.25,70.816 -178.157,117.113 -77.339,99.715 -85.093,646.882 -86.142,769.599 -2.923,341.746 12.878,686.277 25.45,1027.6 11.361,308.435 24.316,402.847 20.557,666.574 -0.892,62.593 -2.348,169.626 -28.387,231.584 -8.767,20.86 -73.438,46.936 -50.902,44.909 138.282,-12.44 498.762,7.364 592.226,117.993"
       id="path2534" /><path
       style="fill:none;stroke:#ffffff;stroke-width:40.7;stroke-dasharray:none"
       d="m 13351.546,77782.106 c -4.45,87.915 -130.995,658.39 -174.242,671.858 -3.14,0.978 -20.503,-52.81 -38.176,-104.785"
       id="path2536" /><path
       style="fill:none;stroke:#ffffff;stroke-width:40.7;stroke-dasharray:none"
       d="m 13069.626,77906.263 c -6.199,-27.884 9.286,-89.851 -18.598,-83.652 -27.884,6.2 -2.316,64.196 18.598,83.652 483.273,449.584 -58.706,-235.38 386.661,339.011 66.903,86.284 82.66,175.818 96.91,137.366"
       id="path2538" /><path
       style="fill:none;stroke:#ffffff;stroke-width:40.7;stroke-dasharray:none"
       d="m 13849.8,77901.86 c 35.892,-7.06 373.432,-69.292 378.829,-23.775 2.179,18.369 -16.967,32.874 -25.45,49.311"
       id="path2540" /><path
       style="fill:none;stroke:#ffffff;stroke-width:40.7;stroke-dasharray:none"
       d="m 13982.929,78146.653 c 146.475,138.599 312.096,-8.371 471.823,30.819"
       id="path2542" /><path
       style="fill:none;stroke:#ffffff;stroke-width:40.7;stroke-dasharray:none"
       d="m 15047.958,77422.842 c 5.547,-56.942 1.718,-115.595 16.641,-170.826 1.445,-5.346 62.653,-110.392 80.269,-110.069 68.42,1.256 -47.609,126.095 -96.91,280.895 -24.197,75.978 -25.14,157.491 -39.155,235.987 -3.714,20.804 -21.111,62.434 0,63.4 10.006,0.457 410.133,-110.929 304.434,7.924"
       id="path2546" /><path
       style="fill:none;stroke:#ffffff;stroke-width:40.7;stroke-dasharray:none"
       d="m 14854.139,77969.662 c 200.935,34.637 390.567,-40.113 588.311,-59.877 64.949,-6.492 153.567,-21.421 119.425,59.877"
       id="path2548" /><path
       style="fill:none;stroke:#ffffff;stroke-width:40.7;stroke-dasharray:none"
       d="m 15388.611,78268.168 c 33.935,-0.88 81.549,-29.882 101.805,-2.642 37.522,50.463 -15.933,183.211 -43.071,228.944 -10.502,17.697 -45.443,53.005 -51.881,33.46 -22.276,-67.633 156.607,-54.38 165.432,54.594 10.387,128.256 -151.934,223.297 -260.385,163.782 -27.875,-15.297 -46.986,-42.853 -70.48,-64.28"
       id="path2550" /><path
       style="fill:none;stroke:#ffffff;stroke-width:40.7;stroke-dasharray:none"
       d="m 13478.802,79733.401 c -18.599,43.733 -39.239,86.654 -55.797,131.201 -47.037,126.547 -84.009,260.727 -116.488,391.844 -3.989,16.102 -7.589,62.545 -14.683,47.55 -84.819,-179.302 14.95,3.644 -67.543,-142.649"
       id="path2552" /><path
       style="fill:none;stroke:#ffffff;stroke-width:40.7;stroke-dasharray:none"
       d="m 13054.943,79812.649 c 147.762,25.191 211.535,196.205 346.527,243.913"
       id="path2554" /><path
       style="fill:none;stroke:#ffffff;stroke-width:40.7;stroke-dasharray:none"
       d="m 13927.132,79892.78 c -2.356,4.432 293.892,-110.982 283.877,-70.444 -4.697,19.016 -22.188,32.286 -33.282,48.43"
       id="path2556" /><path
       style="fill:none;stroke:#ffffff;stroke-width:40.7;stroke-dasharray:none"
       d="m 13942.794,80130.528 c 112.153,94.173 237.668,-38.57 354.358,-12.328"
       id="path2558" /><path
       style="fill:none;stroke:#ffffff;stroke-width:40.7;stroke-dasharray:none"
       d="m 14881.548,77219.436 c 17.392,-166.373 76.432,-169.811 140.96,13.208 49.059,139.147 20.915,463.68 -166.412,491.346 -14.182,2.094 20.92,-23.992 35.24,-24.656 196.857,-9.128 226.246,-3.026 394.492,30.819 86.863,17.474 138.443,33.909 107.678,36.983 -31.217,3.12 -55.251,-29.773 -82.227,-45.788"
       id="path2589" /><path
       style="fill:none;stroke:#ffffff;stroke-width:40.7;stroke-dasharray:none"
       d="m 14503.697,77389.381 c 66.088,11.37 130.658,-15.391 194.799,-17.611"
       id="path2591" /><path
       style="fill:none;stroke:#ffffff;stroke-width:40.7;stroke-dasharray:none"
       d="m 15640.186,79167.208 c -12.673,101.999 40.104,244.843 69.501,317.878"
       id="path2593" /><path
       style="fill:none;stroke:#ffffff;stroke-width:40.7;stroke-dasharray:none"
       d="m 15437.556,79815.291 c 214.103,14.32 424.683,-35.285 634.319,-71.324 31.884,-5.481 127.351,-16.235 96.91,-5.283"
       id="path2595" /><path
       style="fill:none;stroke:#ffffff;stroke-width:40.7;stroke-dasharray:none"
       d="m 15851.625,80139.334 c -44.198,-209.882 204.572,9.39 181.094,119.754 -6.878,32.336 -46.847,99.77 -68.522,52.832 -56.566,-122.495 223.589,-96.07 229.06,94.22 0.928,32.282 -22.213,62.498 -44.05,86.293 -117.913,128.488 -346.016,-80.308 -195.777,-140.888"
       id="path2597" /><path
       style="fill:none;stroke:#ffffff;stroke-width:40.7;stroke-dasharray:none"
       d="m 5872.4443,79408.368 c -178.8016,62.618 -299.8318,267.036 -142.9176,422.663 84.6154,83.922 211.1187,78.758 203.6086,-56.355"
       id="path2599" /><path
       style="fill:none;stroke:#ffffff;stroke-width:40.7;stroke-dasharray:none"
       d="m 6023.1928,79441.829 c 127.2165,74.726 257.1843,231.52 231.9965,393.605 -3.9723,25.562 -25.088,-48.146 -23.4934,-73.966 2.802,-45.369 51.0602,-325.068 130.1922,-178.751"
       id="path2601" /><path
       style="fill:none;stroke:#ffffff;stroke-width:40.7;stroke-dasharray:none"
       d="m 6449.988,79708.635 c 48.3598,-74.081 61.9067,-127.779 51.8808,-210.451"
       id="path2603" /><path
       style="fill:none;stroke:#ffffff;stroke-width:40.7;stroke-dasharray:none"
       d="m 6548.8557,79273.644 c 80.2136,-320.076 80.603,-48.281 118.4451,85.414 24.4571,86.406 58.1307,166.736 74.3957,255.359 5.8615,31.937 15.6685,92.75 -16.6411,95.979 -50.0956,5.007 -108.4543,-98.021 -89.0786,-140.887 28.887,-63.909 155.377,-71.053 209.4819,-71.325 27.4249,-0.138 110.6665,-0.485 116.4875,44.028"
       id="path2605" /><path
       style="fill:none;stroke:#ffffff;stroke-width:40.7;stroke-dasharray:none"
       d="m 7518.9331,79525.481 c -17.2259,-96.006 -8.7629,-111.234 -71.4588,-144.41 -42.64,-149.442 -73.1313,-301.961 109.6354,-338.13 8.3065,-1.644 56.1821,-12.235 62.6492,12.328 28.1058,106.747 -88.4498,236.547 -0.9793,339.891 42.175,49.83 84.501,13.643 120.4032,-17.611"
       id="path2607" /><path
       style="fill:none;stroke:#ffffff;stroke-width:40.7;stroke-dasharray:none"
       d="m 7816.5149,79199.679 c -68.2354,-15.738 -54.8901,135.285 -8.8097,138.245 58.3416,3.749 105.2721,-46.553 134.1074,-88.054 10.2684,-14.779 32.4435,-54.857 14.6835,-51.953 -35.0999,5.74 -49.2052,308.109 1.9576,268.568 23.0066,-17.781 32.6296,-48.137 48.9444,-72.205"
       id="path2609" /><path
       style="fill:none;stroke:#ffffff;stroke-width:40.7;stroke-dasharray:none"
       d="m 8067.1103,79097.535 c 1.2511,160.611 64.8659,312.722 111.5931,464.049"
       id="path2611" /><path
       style="fill:none;stroke:#ffffff;stroke-width:40.7;stroke-dasharray:none"
       d="m 7064.7296,80454.46 c -33.4554,149.229 56.0135,278.057 75.3739,417.379"
       id="path2613" /><path
       style="fill:none;stroke:#ffffff;stroke-width:40.7;stroke-dasharray:none"
       d="m 7006.9749,80556.603 c -16.3148,-56.061 -41.4384,-110.282 -48.9444,-168.184 -3.544,-27.339 4.7109,-56.159 16.6411,-81.011 111.7734,-232.84 339.1408,22.203 195.7777,221.017"
       id="path2615" /><path
       style="fill:none;stroke:#ffffff;stroke-width:40.7;stroke-dasharray:none"
       d="m 7442.5798,80539.873 c 0.6527,24.948 -22.9908,75.499 1.9581,74.846 24.949,-0.652 -4.7275,-50.043 -1.9581,-74.846 4.7766,-42.781 6.6753,-87.604 24.4725,-126.799 33.0113,-72.701 140.3912,157.463 144.8752,191.079"
       id="path2617" /><path
       style="fill:none;stroke:#ffffff;stroke-width:40.7;stroke-dasharray:none"
       d="m 7623.674,80334.705 c 4.5683,-39.625 7.7059,-79.441 13.7047,-118.874 30.4318,-200.043 74.2189,123.626 102.7834,147.932 5.415,4.607 58.8695,-177.304 80.2685,-180.512 16.1847,-2.427 87.551,150.625 107.6779,174.348"
       id="path2619" /><path
       style="fill:none;stroke:#ffffff;stroke-width:40.7;stroke-dasharray:none"
       d="m 7991.7358,80192.056 c 97.1721,59.72 124.0614,130.104 116.4875,237.749 -6.4319,-197.06 -0.8349,-186.133 144.8758,-191.08"
       id="path2621" /><path
       style="fill:none;stroke:#ffffff;stroke-width:40.7;stroke-dasharray:none"
       d="m 9045.998,80143.626 c 57.8922,6.414 219.3464,-78.135 92.9944,22.894"
       id="path2623" /><path
       style="fill:none;stroke:#ffffff;stroke-width:40.7;stroke-dasharray:none"
       d="m 9012.7158,80302.125 c 105.4582,-9.683 220.8306,-68.841 327.9276,-40.506"
       id="path2625" /><path
       style="fill:none;stroke:#ffffff;stroke-width:40.7;stroke-dasharray:none"
       d="m 9834.9816,79661.966 c -37.0554,50.245 -141.437,127.792 -147.8121,206.929 -4.0204,49.909 293.8888,-42.219 287.7928,70.444 -6.1238,113.177 -48.7373,156.584 -117.4663,224.54 -21.5714,21.329 -79.0752,85.718 -71.4586,56.355 8.9098,-34.351 145.4983,-156.686 143.8963,-73.086 -2.9509,153.975 -102.3152,301.172 -156.6223,440.274 -4.3865,11.235 -39.5933,71.139 0,83.652 62.2626,19.678 128.7344,-23.993 190.8832,-44.027 108.4674,-34.966 191.7504,-53.828 176.1994,-69.564"
       id="path2627" /><path
       style="fill:none;stroke:#ffffff;stroke-width:40.7;stroke-dasharray:none"
       d="m 10462.449,79483.215 c 19.498,-20.112 60.976,-87.188 107.677,-86.294 27.124,0.519 17.188,70.521 -7.831,81.011 -30.736,12.887 -103.557,-27.838 -99.846,5.283 23.256,207.599 267.449,23.279 188.925,147.932"
       id="path2629" /><path
       style="fill:none;stroke:#ffffff;stroke-width:40.7;stroke-dasharray:none"
       d="m 10555.443,79819.584 c 31.219,14.378 249.408,-79.804 183.052,24.656"
       id="path2631" /><path
       style="fill:none;stroke:#ffffff;stroke-width:40.7;stroke-dasharray:none"
       d="m 10630.817,80046.766 c 28.061,-15.557 52.175,-44.478 84.185,-46.669 13.611,-0.932 17.805,33.89 5.873,40.505 -26.316,14.589 -82.254,-22.896 -90.058,6.164 -13.662,50.873 41.011,98.358 47.966,150.573 2.515,18.884 -40.283,64.683 -30.346,48.43 59.065,-96.601 191.255,-62.016 166.411,61.639 -8.506,42.339 -84.943,245.756 -174.242,164.663 -24.222,-21.996 -13.705,-63.987 -20.557,-95.981"
       id="path2633" /><path
       style="fill:none;stroke:#ffffff;stroke-width:40.7;stroke-dasharray:none"
       d="m 11179.973,79270.123 c 32.923,88.233 84.184,191.99 84.184,288.819"
       id="path2635" /><path
       style="fill:none;stroke:#ffffff;stroke-width:40.7;stroke-dasharray:none"
       d="m 11172.142,79691.024 c 51.812,37.253 315.22,-8.566 319.117,14.969 2.087,12.603 -14.357,21.134 -21.535,31.7"
       id="path2637" /><path
       style="fill:none;stroke:#ffffff;stroke-width:40.7;stroke-dasharray:none"
       d="m 11320.932,80064.377 c 169.111,-280.181 77.055,81.841 9.789,172.587 -12.217,16.483 4.265,-22.967 54.818,-38.744 32.933,-10.278 67.011,-11.276 91.037,18.492 42.475,52.624 -12.118,154.403 -45.028,193.72 -106.852,127.656 -159.881,128.864 -220.25,-10.567"
       id="path2639" /><path
       style="fill:none;stroke:#ffffff;stroke-width:40.7;stroke-dasharray:none"
       d="m 10201.085,79584.478 c 30.015,5.124 245.125,-90.286 176.2,-9.686"
       id="path2641" /><path
       style="fill:none;stroke:#ffffff;stroke-width:40.7;stroke-dasharray:none"
       d="m 11050.76,80465.907 c -20.906,79.188 -36.219,158.882 -36.219,240.389"
       id="path2643" /><path
       style="fill:none;stroke:#ffffff;stroke-width:40.7;stroke-dasharray:none"
       d="m 11382.603,79024.449 c 150.84,335.515 184.002,726.607 141.939,1090.119 -15.508,134.016 -51.274,263.681 -68.522,397.127"
       id="path2645" /><path
       style="fill:none;stroke:#ffffff;stroke-width:40.7;stroke-dasharray:none"
       d="m 10369.454,78979.541 c -51.554,43.147 -109.15,79.963 -154.664,129.441 -32.101,34.897 -54.714,77.958 -75.374,120.635 -165.8848,342.653 -168.8913,706.643 14.683,1044.33 119.591,219.988 229.338,290.022 417.985,468.452"
       id="path2647" /><path
       style="fill:none;stroke:#ffffff;stroke-width:40.7;stroke-dasharray:none"
       d="m 11762.412,78823.684 c 407.717,-152.213 113.611,121.359 46.986,239.51 -44.528,78.964 246.706,-26.664 198.714,56.354 -57.434,99.353 -208.939,197.24 -200.671,325.803 6.323,98.332 216.473,170.504 273.109,206.929 150.405,96.73 133.513,346.461 25.451,467.571 -124.659,139.71 -251.405,232.78 -404.281,328.445"
       id="path2649" /><path
       style="fill:none;stroke:#ffffff;stroke-width:40.7;stroke-dasharray:none"
       d="m 21152.326,69163.727 c -38.503,26.416 -81.748,46.992 -115.509,79.249 -154.784,147.892 -142.281,348.835 -39.156,519.524 22.807,37.747 55.222,69.894 73.417,110.068 2.196,4.849 7.141,17.062 1.958,15.85 -18.748,-4.385 -33.935,-18.198 -50.903,-27.297"
       id="path2651" /><path
       style="fill:none;stroke:#ffffff;stroke-width:40.7;stroke-dasharray:none"
       d="m 20817.546,69695.578 c 126.151,-57.55 275.278,-85.913 355.336,58.116"
       id="path2653" /><path
       style="fill:none;stroke:#ffffff;stroke-width:40.7;stroke-dasharray:none"
       d="m 21584.015,69707.906 c 24.771,-1.768 0.02,546.138 -108.656,361.905"
       id="path2655" /><path
       style="fill:none;stroke:#ffffff;stroke-width:40.7;stroke-dasharray:none"
       d="m 21411.731,69845.271 c 142.899,27.781 209.747,161.592 324.99,230.704"
       id="path2657" /><path
       style="fill:none;stroke:#ffffff;stroke-width:40.7;stroke-dasharray:none"
       d="m 21920.752,69766.903 c 21.21,42.853 51.13,82.407 63.628,128.559 12.382,45.722 48.543,303.421 -29.367,331.086 -15.092,5.36 -26.756,-17.61 -40.133,-26.416"
       id="path2659" /><path
       style="fill:none;stroke:#ffffff;stroke-width:40.7;stroke-dasharray:none"
       d="m 21816.012,69949.176 c 161.471,-25.301 207.086,143.795 322.054,193.72 8.26,3.587 12.15,-13.721 15.661,-22.014"
       id="path2661" /><path
       style="fill:none;stroke:#ffffff;stroke-width:40.7;stroke-dasharray:none"
       d="m 22411.175,69237.693 c 19.198,2.882 338.341,-35.089 332.822,-15.85 -2.952,10.288 -15.01,15.263 -22.514,22.894"
       id="path2663" /><path
       style="fill:none;stroke:#ffffff;stroke-width:40.7;stroke-dasharray:none"
       d="m 22415.091,69448.144 c 91.438,80.039 529.655,-19.543 572.649,36.983 6.858,9.017 -21.076,9.052 -32.303,10.567"
       id="path2665" /><path
       style="fill:none;stroke:#ffffff;stroke-width:40.7;stroke-dasharray:none"
       d="m 23916.705,69542.363 c 5.873,-24.362 41.981,-67.213 17.619,-73.086 -24.362,-5.873 -41.364,81.096 -17.619,73.086 285.399,-96.273 56.06,-103.477 203.608,-140.007 239.376,-59.266 73.505,394.1 28.388,464.929 -53.019,83.235 -105.861,136.523 -173.263,204.287 -12.352,12.418 -47.173,21.074 -38.177,36.102 1.961,3.277 76.042,-22.917 146.833,-36.983 131.82,-26.191 252.596,-35.644 385.682,-21.133"
       id="path2667" /><path
       style="fill:none;stroke:#ffffff;stroke-width:40.7;stroke-dasharray:none"
       d="m 21485.147,71154.646 c 91.103,-228.218 2.738,-3.008 0,0 -38.707,42.513 -103.44,54.248 -143.897,95.099 -70.535,71.225 -89.976,201.522 -57.754,292.343 30.162,85.011 185.31,252.494 173.264,275.611 -4.375,8.396 -18.925,-0.587 -28.388,-0.881"
       id="path2669" /><path
       style="fill:none;stroke:#ffffff;stroke-width:40.7;stroke-dasharray:none"
       d="m 21188.544,71669.767 c 50.25,-27.884 95.524,-67.755 150.749,-83.652 67.625,-19.466 217.665,10.297 270.174,64.28"
       id="path2671" /><path
       style="fill:none;stroke:#ffffff;stroke-width:40.7;stroke-dasharray:none"
       d="m 22158.622,71711.153 c 0.327,37.57 7.971,75.794 0.979,112.71 -11.04,58.289 -128.26,387.537 -172.284,416.499 -9.534,6.272 -20.231,-10.566 -30.346,-15.85"
       id="path2673" /><path
       style="fill:none;stroke:#ffffff;stroke-width:40.7;stroke-dasharray:none"
       d="m 21856.146,71856.443 c 177.513,-34.355 262.298,50.642 424.837,80.13"
       id="path2675" /><path
       style="fill:none;stroke:#ffffff;stroke-width:40.7;stroke-dasharray:none"
       d="m 22516.895,71733.166 c 27.083,-0.587 59.89,-18.424 81.248,-1.761 46.855,36.556 3.892,510.924 -151.728,405.933"
       id="path2677" /><path
       style="fill:none;stroke:#ffffff;stroke-width:40.7;stroke-dasharray:none"
       d="m 22374.956,71831.787 c 116.287,-7.957 170.083,18.934 222.208,112.711"
       id="path2679" /><path
       style="fill:none;stroke:#ffffff;stroke-width:40.7;stroke-dasharray:none"
       d="m 22926.071,71395.036 c 138.263,-33.614 124.655,-43.207 251.573,-33.461 22.712,1.744 77.613,10.123 62.649,27.297 -17.853,20.49 -43.724,32.287 -65.586,48.43"
       id="path2681" /><path
       style="fill:none;stroke:#ffffff;stroke-width:40.7;stroke-dasharray:none"
       d="m 22956.415,71595.801 c 31.325,25.242 57.131,59.572 93.974,75.727 72.234,31.672 219.02,24.6 290.729,-11.447"
       id="path2683" /><path
       style="fill:none;stroke:#ffffff;stroke-width:40.7;stroke-dasharray:none"
       d="m 23631.848,71276.162 c -42.001,22.599 213.439,-304.566 239.828,-204.287 48.669,184.941 -34.076,341.082 -133.13,489.584 -31.005,46.484 -144.767,173.584 -93.972,108.308 68.83,-88.452 353.962,-166.07 435.604,-66.922"
       id="path2685" /><path
       style="fill:none;stroke:#ffffff;stroke-width:40.7;stroke-dasharray:none"
       d="m 26438.077,68942.516 c 21.535,-27.59 43.581,-54.79 64.607,-82.771 23.883,-31.785 -30.42,-34.381 -42.093,-13.208 -15.866,28.777 3.684,76.142 -22.514,95.979 -196.41,148.724 -82.827,-106.149 -189.904,102.144 -11.312,22.005 -22.496,46.658 -20.557,71.325 11.707,148.866 67.516,280.103 128.235,412.096"
       id="path2687" /><path
       style="fill:none;stroke:#ffffff;stroke-width:40.7;stroke-dasharray:none"
       d="m 26161.052,69381.029 c 114.45,-32.339 202.184,-54.37 304.434,17.611"
       id="path2689" /><path
       style="fill:none;stroke:#ffffff;stroke-width:40.7;stroke-dasharray:none"
       d="m 26910.88,69303.541 c 69.046,143.22 -34.612,308.126 -106.699,435.872 -33.614,59.566 -56.542,99.238 -69.501,91.577 -10.273,-6.072 -8.484,-22.308 -12.726,-33.461"
       id="path2691" /><path
       style="fill:none;stroke:#ffffff;stroke-width:40.7;stroke-dasharray:none"
       d="m 26695.525,69543.05 c 137.321,52.85 236.972,150.785 331.843,258.882"
       id="path2693" /><path
       style="fill:none;stroke:#ffffff;stroke-width:40.7;stroke-dasharray:none"
       d="m 27460.036,69426.818 c -30.219,20.864 -139.391,427.452 -141.939,428.827 -12.489,6.741 -19.687,-20.673 -27.409,-32.58"
       id="path2695" /><path
       style="fill:none;stroke:#ffffff;stroke-width:40.7;stroke-dasharray:none"
       d="m 27187.905,69546.572 c 30.072,27.082 145.745,80.839 161.516,147.052"
       id="path2697" /><path
       style="fill:none;stroke:#ffffff;stroke-width:40.7;stroke-dasharray:none"
       d="m 27714.546,69037.615 c -26.068,25.417 419.957,-93.075 345.548,18.492"
       id="path2699" /><path
       style="fill:none;stroke:#ffffff;stroke-width:40.7;stroke-dasharray:none"
       d="m 27731.188,69324.674 c 153.035,73.547 317.465,7.272 478.675,16.731"
       id="path2701" /><path
       style="fill:none;stroke:#ffffff;stroke-width:40.7;stroke-dasharray:none"
       d="m 28573.728,68972.634 c -26.103,14.676 -92.985,17.924 -78.309,44.028 14.676,26.103 48.366,-43.622 78.309,-44.028 587.07,-7.972 -42.009,71.153 259.407,30.82 18.197,-2.435 69.07,-12.05 51.879,-18.493"
       id="path2703" /><path
       style="fill:none;stroke:#ffffff;stroke-width:40.7;stroke-dasharray:none"
       d="m 29245.246,68728.722 c -24.472,19.079 -61.616,28.537 -73.417,57.236 -26.327,64.028 224.567,310.079 255.49,392.724 66.98,179.012 -241.46,277.083 -244.722,156.738 -5.195,-191.663 450.076,-518.136 430.712,-565.312 -23.03,-56.107 -120.601,-13.264 -181.095,-17.611 -62.663,-4.503 -124.645,-15.85 -186.968,-23.775 z"
       id="path2705" /><path
       style="fill:none;stroke:#ffffff;stroke-width:40.7;stroke-dasharray:none"
       d="m 26500.445,71030.475 c -27.735,-3.522 -55.609,-15.046 -83.206,-10.567 -18.649,3.028 -34.111,17.873 -46.986,31.7 -139.067,149.351 -59.782,386.115 7.831,548.581 0.816,1.96 37.111,74.579 44.05,88.936 1.398,2.892 5.101,11.791 3.915,8.805 -12.867,-32.403 -7.219,-18.931 -34.261,-56.355"
       id="path2707" /><path
       style="fill:none;stroke:#ffffff;stroke-width:40.7;stroke-dasharray:none"
       d="m 26224.399,71508.613 c -2.937,-24.362 -27.424,-57.096 -8.811,-73.086 61.621,-52.932 260.056,-28.083 325.971,11.448"
       id="path2709" /><path
       style="fill:none;stroke:#ffffff;stroke-width:40.7;stroke-dasharray:none"
       d="m 27013.382,71416.155 c 5.547,26.417 19.431,52.402 16.641,79.25 -7.964,76.618 -89.881,367.933 -140.96,427.946 -11.507,13.519 -33.379,-15.75 -44.05,-29.939"
       id="path2711" /><path
       style="fill:none;stroke:#ffffff;stroke-width:40.7;stroke-dasharray:none"
       d="m 26753.977,71575.534 c 111.685,-40.216 133.277,-39.377 192.841,42.266"
       id="path2713" /><path
       style="fill:none;stroke:#ffffff;stroke-width:40.7;stroke-dasharray:none"
       d="m 27313.901,71338.667 c 130.319,-37.748 4.21,662.238 -90.058,493.987 -14.63,-26.112 -14.357,-58.116 -21.535,-87.174"
       id="path2715" /><path
       style="fill:none;stroke:#ffffff;stroke-width:40.7;stroke-dasharray:none"
       d="m 27143.573,71458.421 c 160.147,37.272 236.192,167.557 349.464,269.448"
       id="path2717" /><path
       style="fill:none;stroke:#ffffff;stroke-width:40.7;stroke-dasharray:none"
       d="m 27676.089,71040.161 c 11.413,6.47 398.198,-101.785 189.904,5.283"
       id="path2719" /><path
       style="fill:none;stroke:#ffffff;stroke-width:40.7;stroke-dasharray:none"
       d="m 27653.575,71234.762 c 105.827,34.24 211.811,14.963 318.138,21.133"
       id="path2721" /><path
       style="fill:none;stroke:#ffffff;stroke-width:40.7;stroke-dasharray:none"
       d="m 28540.912,71072.549 c 50.998,15.444 195.812,66.727 247.658,15.849"
       id="path2723" /><path
       style="fill:none;stroke:#ffffff;stroke-width:40.7;stroke-dasharray:none"
       d="m 29047.976,70824.234 c 75.554,-210.495 -17.923,-37.541 0,0 72.793,152.478 357.075,352.858 196.755,569.715 -20.836,28.183 -108.05,103.557 -161.517,89.816 -151.554,-38.951 370.365,-537.026 406.238,-634.875 24.172,-65.93 -22.151,-77.489 -78.309,-77.489 -46.136,0 -91.389,12.731 -137.044,19.372 -75.402,10.97 -150.749,22.308 -226.123,33.461 z"
       id="path2725" /><path
       style="fill:none;stroke:#ffffff;stroke-width:40.7;stroke-dasharray:none"
       d="m 25236.054,73850.348 c -42.092,-2.348 -85.878,-19.096 -126.277,-7.044 -29.334,8.75 -46.704,40.186 -65.585,64.28 -99.03,126.372 -121.786,266.7 -79.29,422.663 32.674,119.918 227.987,178.885 134.108,64.28"
       id="path2727" /><path
       style="fill:none;stroke:#ffffff;stroke-width:40.7;stroke-dasharray:none"
       d="m 24960.008,74353.141 c 113.118,-46.736 191.395,-38.415 302.476,-7.044"
       id="path2729" /><path
       style="fill:none;stroke:#ffffff;stroke-width:40.7;stroke-dasharray:none"
       d="m 25702.983,74239.551 c 17.993,58.83 -46.32,407.014 -109.635,428.826 -9.978,3.438 -18.272,-10.567 -27.408,-15.85"
       id="path2731" /><path
       style="fill:none;stroke:#ffffff;stroke-width:40.7;stroke-dasharray:none"
       d="m 25504.269,74343.455 c 162.313,-26.994 222.179,223.954 371.978,227.182 29.749,0.641 54.164,-24.656 81.247,-36.984"
       id="path2733" /><path
       style="fill:none;stroke:#ffffff;stroke-width:40.7;stroke-dasharray:none"
       d="m 26070.067,74260.683 c 3.063,26.255 8.745,297.177 -14.684,304.67 -13.838,4.426 -53.961,-41.763 -58.733,-46.669"
       id="path2735" /><path
       style="fill:none;stroke:#ffffff;stroke-width:40.7;stroke-dasharray:none"
       d="m 25872.332,74330.247 c 110.933,28.317 227.27,66.337 321.074,133.843"
       id="path2737" /><path
       style="fill:none;stroke:#ffffff;stroke-width:40.7;stroke-dasharray:none"
       d="m 27476.728,75255.703 c -27.409,-1.467 -57.839,-16.999 -82.227,-4.403 -144.736,74.758 -135.225,326.495 -78.311,444.677 35.138,72.963 91.548,115.45 151.728,163.782 27.944,22.443 -57.917,-42.311 -88.1,-61.638"
       id="path2739" /><path
       style="fill:none;stroke:#ffffff;stroke-width:40.7;stroke-dasharray:none"
       d="m 27237.879,75741.766 c 131.905,-59.357 239.946,-68.879 376.872,-60.759"
       id="path2741" /><path
       style="fill:none;stroke:#ffffff;stroke-width:40.7;stroke-dasharray:none"
       d="m 28062.103,75613.206 c 50.18,60.281 -12.813,463.642 -92.995,466.69 -14.679,0.558 -25.451,-14.676 -38.176,-22.014"
       id="path2743" /><path
       style="fill:none;stroke:#ffffff;stroke-width:40.7;stroke-dasharray:none"
       d="m 27794.867,75668.68 c 100.051,19.461 125.535,69.308 193.819,121.515"
       id="path2745" /><path
       style="fill:none;stroke:#ffffff;stroke-width:40.7;stroke-dasharray:none"
       d="m 28396.882,75626.414 c 27.735,-23.188 106.394,-41.828 83.206,-69.564 -23.188,-27.735 -76.373,34.064 -83.206,69.564 -2.173,11.289 87.996,332.493 -60.69,325.802"
       id="path2747" /><path
       style="fill:none;stroke:#ffffff;stroke-width:40.7;stroke-dasharray:none"
       d="m 28179.57,75707.424 c 77.49,-26.202 210.012,-49.307 215.354,66.041"
       id="path2749" /><path
       style="fill:none;stroke:#ffffff;stroke-width:40.7;stroke-dasharray:none"
       d="m 27739.069,73849.468 c -58.08,29.645 -125.578,45.529 -174.241,88.935 -152.509,136.035 -53.047,420.2 94.952,508.957"
       id="path2751" /><path
       style="fill:none;stroke:#ffffff;stroke-width:40.7;stroke-dasharray:none"
       d="m 27457.151,74270.37 c 113.218,-70.473 253.679,-102.534 370.019,-10.567"
       id="path2753" /><path
       style="fill:none;stroke:#ffffff;stroke-width:40.7;stroke-dasharray:none"
       d="m 28204.042,74346.097 c -141.444,149.17 -85.82,69.091 -164.453,215.734 -12.016,22.409 -31.54,90.586 -38.178,66.041 -9.734,-35.997 -1.301,-74.576 -2.936,-111.83"
       id="path2755" /><path
       style="fill:none;stroke:#ffffff;stroke-width:40.7;stroke-dasharray:none"
       d="m 27965.193,74298.547 c 147.277,117.687 281.912,243.689 466.93,291.462"
       id="path2757" /><path
       style="fill:none;stroke:#ffffff;stroke-width:40.7;stroke-dasharray:none"
       d="m 28555.462,74260.683 c -204.206,-50.007 59.694,306.644 -24.471,337.25 -12.568,4.571 -25.452,-8.218 -38.178,-12.327"
       id="path2759" /><path
       style="fill:none;stroke:#ffffff;stroke-width:40.7;stroke-dasharray:none"
       d="m 28337.17,74370.752 c 66.531,31.213 159.222,42.77 192.841,115.352"
       id="path2761" /><path
       style="fill:none;stroke:#ffffff;stroke-width:40.7;stroke-dasharray:none"
       d="m 25577.686,75683.649 c -42.745,-9.686 -85.397,-38.328 -128.235,-29.058 -103.196,22.332 -177.928,236.255 -139.981,325.802 22.033,51.995 169.906,181.737 139.003,225.421"
       id="path2763" /><path
       style="fill:none;stroke:#ffffff;stroke-width:40.7;stroke-dasharray:none"
       d="m 25266.4,76124.804 c 35.24,-37.863 60.788,-87.964 105.719,-113.59 68.492,-39.065 225.317,-32.505 285.836,24.655"
       id="path2765" /><path
       style="fill:none;stroke:#ffffff;stroke-width:40.7;stroke-dasharray:none"
       d="m 25925.192,76080.777 c 57.824,37.856 -16.123,403.908 -102.784,344.293"
       id="path2767" /><path
       style="fill:none;stroke:#ffffff;stroke-width:40.7;stroke-dasharray:none"
       d="m 25684.385,76184.681 c 106.451,-48.203 147.096,8.375 240.807,18.492"
       id="path2769" /><path
       style="fill:none;stroke:#ffffff;stroke-width:40.7;stroke-dasharray:none"
       d="m 26213.963,75938.128 c 91.136,53.913 29.661,348.703 -75.374,198.123"
       id="path2771" /><path
       style="fill:none;stroke:#ffffff;stroke-width:40.7;stroke-dasharray:none"
       d="m 26073.982,75967.186 c 144.411,34.068 307.738,115.844 376.871,258"
       id="path2773" /><path
       style="fill:none;stroke:#ffffff;stroke-width:40.7;stroke-dasharray:none"
       d="m 28245.155,73521.903 c 235.389,-15.233 331.129,-55.848 551.114,75.728 174.67,104.472 121.449,581.253 138.022,747.585 19.338,194.066 43.796,314.086 102.784,499.271 26.461,83.067 116.804,309.101 154.665,396.247 33.459,77.014 120.484,194.917 111.593,285.297 -14.513,147.512 -350.115,263.544 -456.162,309.073 -44.611,19.153 -88.496,49.311 -137.044,49.311 -10.477,0 12.138,-17.54 20.556,-23.776"
       id="path2775" /><path
       style="fill:none;stroke:#ffffff;stroke-width:40.7;stroke-dasharray:none"
       d="m 24847.435,73630.211 c -91.551,6.811 -560.816,194.794 -537.408,295.864 10.178,43.946 39.308,81.453 53.838,124.158 44.842,131.796 57.704,221.401 69.502,361.905 32.39,385.74 28.014,771.634 8.81,1157.921 -13.861,278.81 -40.627,557.634 -65.586,835.64 -1.698,18.914 -41.249,268.595 -38.177,276.492 10.062,25.861 55.508,-0.953 83.206,-2.642 52.86,-3.224 105.655,-7.798 158.579,-9.686 337.483,-12.041 221.441,-19.873 468.888,15.851"
       id="path2777" /><path
       style="fill:none;stroke:#ffffff;stroke-width:40.7;stroke-dasharray:none"
       d="m 25675.309,78762.101 c -36.284,12.967 -437.456,304.813 -455.183,280.895 -21.662,-29.228 51.213,-193.717 65.585,-225.42 42.135,-92.945 91.914,-182.265 135.087,-274.731 11.686,-25.029 21.005,-51.163 29.367,-77.489 6.446,-20.294 18.176,-82.011 7.831,-63.399 -59.269,106.632 156.527,688.887 269.194,753.748"
       id="path2779" /><path
       style="fill:none;stroke:#ffffff;stroke-width:40.7;stroke-dasharray:none"
       d="m 26477.672,78709.35 c 93.474,-25.38 359.4,-123.241 427.774,-7.925"
       id="path2785" /><path
       style="fill:none;stroke:#ffffff;stroke-width:40.7;stroke-dasharray:none"
       d="m 27854.966,77982.899 c -44.05,31.112 -100.664,49.553 -132.149,93.337 -35.703,49.648 -47.505,113.547 -59.712,173.469 -79.843,391.919 92.787,587.622 434.625,719.407"
       id="path2787" /><path
       style="fill:none;stroke:#ffffff;stroke-width:40.7;stroke-dasharray:none"
       d="m 28226.944,78455.753 c 107.867,-36.436 218.006,-56.577 310.307,-125.039"
       id="path2789" /><path
       style="fill:none;stroke:#ffffff;stroke-width:40.7;stroke-dasharray:none"
       d="m 28579.343,78165.171 c 65.26,44.321 132.5,85.856 195.778,132.963 66.643,49.612 122.122,98.321 139.981,184.916 6.085,29.505 -46.8,223.007 -114.53,158.498 -174.002,-165.728 298.29,-522.343 25.451,-528.328 -123.549,-2.711 -116.557,8.871 -246.68,51.951 z"
       id="path2791" /><path
       style="fill:none;stroke:#ffffff;stroke-width:40.7;stroke-dasharray:none"
       d="m 28914.123,77769.806 c 43.723,16.73 100.011,15.252 131.17,50.19 134.543,150.86 174.299,636.335 144.877,825.075 -3.161,20.273 -46.464,219.805 -74.396,228.942 -31.921,10.441 -26.575,-62.191 -33.282,-95.099"
       id="path2793" /><path
       style="fill:none;stroke:#ffffff;stroke-width:40.7;stroke-dasharray:none"
       d="m 29270.438,77315.443 c 7.561,-81.62 3.363,-92.014 39.155,-177.871 95.623,-229.377 135.783,235.654 133.129,270.328 -8.76,114.43 -31.248,160.934 -69.501,264.165 -9.739,26.28 -49.858,74.861 -22.514,81.011 82.159,18.477 221.473,-106.161 396.449,-45.789"
       id="path2795" /><path
       style="fill:none;stroke:#ffffff;stroke-width:40.7;stroke-dasharray:none"
       d="m 27113.508,81009.452 c -101.449,66.925 -177.654,162.539 -270.174,239.509 -17.573,14.62 -42.291,53.82 -57.754,36.983 -18.075,-19.682 9.799,-53.026 20.557,-77.488 70.5,-160.304 195.925,-303.226 251.574,-469.332 5.99,-17.879 13.454,-60.698 -4.895,-56.355 -35.044,8.296 -47.958,144.357 -30.344,199.004 60.143,186.602 182.417,317.633 321.074,445.557"
       id="path2797" /><path
       style="fill:none;stroke:#ffffff;stroke-width:40.7;stroke-dasharray:none"
       d="m 27514.851,80942.53 c -3.997,-27.269 499.355,-36.174 396.451,25.537"
       id="path2799" /><path
       style="fill:none;stroke:#ffffff;stroke-width:40.7;stroke-dasharray:none"
       d="m 28230.419,80564.776 c -15.662,35.221 -35.829,68.768 -46.987,105.665 -24.536,81.132 -37.678,153.043 6.852,230.703 46.265,80.686 229.214,133.401 292.688,42.267 28.192,-40.477 -32.445,-73.188 -59.713,-73.086 -168.201,0.636 -289.405,107.882 -89.078,-2.64"
       id="path2801" /><path
       style="fill:none;stroke:#ffffff;stroke-width:40.7;stroke-dasharray:none"
       d="m 28821.666,80569.179 c -133.189,16.772 -223.262,86.507 -324.99,163.781 -30.062,22.836 52.012,-54.878 75.375,-84.532 61.723,-78.345 208.461,-273.794 124.318,-385.68 -14.572,-19.377 -48.845,27.795 -50.903,51.952 -4.834,56.752 -1.577,114.135 3.917,170.827 33.01,340.611 197.863,644.176 255.489,977.408"
       id="path2803" /><path
       style="fill:none;stroke:#ffffff;stroke-width:40.7;stroke-dasharray:none"
       d="m 30083.711,80360.117 c 31.324,-33.461 61.625,-67.909 93.972,-100.382 26.747,-26.852 55.581,-51.542 83.206,-77.489 26.173,-24.582 52.207,-49.311 78.311,-73.966 5.424,-5.123 19.233,-21.965 16.641,-14.969 -8.376,22.603 -87.859,79.805 -93.973,85.413 -62.454,57.289 -112.583,127.703 -178.157,181.393 -72.288,59.187 -153.658,106.423 -228.082,162.901 -15.49,11.755 -34.356,23.152 -41.113,41.386 -15.87,42.826 60.748,68.964 96.91,96.861 75.815,58.486 151.822,116.901 224.165,179.631 41.425,35.921 112.106,102.802 139.981,161.14 25.592,53.559 -22.933,140.143 43.071,-57.235"
       id="path2805" /><path
       style="fill:none;stroke:#ffffff;stroke-width:40.7;stroke-dasharray:none"
       d="m 30606.436,80545.032 c 20.557,-38.157 41.113,-76.314 61.67,-114.471 -0.652,-5.577 0.706,-21.674 -1.957,-16.73 -22.79,42.301 -33.87,90.692 -59.713,131.201 -29.13,45.66 -84.563,74.394 -103.762,125.038 -27.544,72.658 130.719,104.851 142.918,104.785 145.74,-0.792 301.831,-57.468 402.322,-167.304 58.952,-64.433 -95.123,-127.656 -102.783,-129.44 -147.645,-34.394 -594.187,170.226 -144.875,-11.448"
       id="path2807" /><path
       style="fill:none;stroke:#ffffff;stroke-width:40.7;stroke-dasharray:none"
       d="m 30910.87,80147.905 c -9.462,-51.659 -0.766,-110.308 -28.388,-154.976 -10.589,-17.124 -47.394,-2.548 -58.733,14.088 -36.362,53.352 -75.418,315.539 -80.268,345.175 -58.221,355.747 -111.091,715.142 -138.024,1074.269"
       id="path2809" /><path
       style="fill:none;stroke:#ffffff;stroke-width:40.7;stroke-dasharray:none"
       d="m 27218.508,82010.842 c 15.01,57.823 38.346,114.104 45.029,173.469 10.145,90.119 -16.997,288.929 -39.156,370.71 -215.425,795.058 -1370.22,948.664 -2053.707,844.446 -442.589,-67.487 -893.259,-216.472 -1313.666,-351.339 -645.137,-206.96 -1280.989,-435.89 -1917.642,-666.575 -768.412,-278.426 -1543.415,-534.517 -2349.33,-678.903 -747.73,-133.961 -1475.846,-133.266 -2223.054,8.806 -213.806,40.653 -448.709,92.493 -663.686,143.529 -91.52,21.727 -339.44,110.335 -439.52,103.905 -18.942,-1.217 19.91,-32.385 31.324,-47.55 31.755,-42.188 63.11,-84.677 94.952,-126.799 116.216,-153.736 242.102,-299.838 358.273,-453.482 31.561,-41.742 126.54,-142.661 74.396,-138.246 -134.474,11.385 -739.065,524.288 -693.053,670.977 13.194,42.063 74.029,53.244 117.467,60.759 223.481,38.659 681.581,-41.378 870.231,61.638 68.011,37.138 106.373,112.71 159.559,169.065"
       id="path2811" /><path
       style="fill:none;stroke:#ffffff;stroke-width:40.7;stroke-dasharray:none"
       d="m 20048.962,81019.799 c 351.016,108.021 94.481,42.383 372.956,88.935 27.232,4.553 98.958,19.985 75.374,34.342 -31.031,18.891 -67.216,27.59 -100.825,41.386"
       id="path2813" /><path
       style="fill:none;stroke:#ffffff;stroke-width:40.7;stroke-dasharray:none"
       d="m 19964.778,81335.035 c 146.664,100.388 318.675,96.938 487.486,62.519"
       id="path2815" /><path
       style="fill:none;stroke:#ffffff;stroke-width:40.7;stroke-dasharray:none"
       d="m 20560.92,80973.13 c 60.039,-5.283 120.043,-20.727 180.115,-15.85 32.758,2.659 64.494,18.483 91.038,37.864 215.323,157.217 -278.957,543.423 -397.429,685.066"
       id="path2817" /><path
       style="fill:none;stroke:#ffffff;stroke-width:40.7;stroke-dasharray:none"
       d="m 12027.906,82620.691 c -29.367,-10.567 -59.513,-44.223 -88.1,-31.7 -63.878,27.98 -7.113,396.764 7.831,446.438 16.042,53.323 43.037,102.747 66.565,153.215 0.564,1.21 107.636,155.822 37.197,92.458"
       id="path2819" /><path
       style="fill:none;stroke:#ffffff;stroke-width:40.7;stroke-dasharray:none"
       d="m 11862.474,83098.828 c -11.747,-24.362 -49.853,-50.327 -35.24,-73.085 15.015,-23.385 275.002,-69.388 335.758,-116.233"
       id="path2821" /><path
       style="fill:none;stroke:#ffffff;stroke-width:40.7;stroke-dasharray:none"
       d="m 12203.127,82750.132 c 28.315,37.077 150.186,320.798 164.453,320.519 27.648,-0.541 90.148,-214.373 124.318,-176.99 39.221,42.908 73.848,321.312 125.297,214.853"
       id="path2823" /><path
       style="fill:none;stroke:#ffffff;stroke-width:40.7;stroke-dasharray:none"
       d="m 12650.478,82923.599 c -30.08,-113.518 -56.377,-220.964 17.62,-323.161 11.712,-16.175 120.661,-100.66 126.277,-125.918 6.669,-29.994 -67.523,52.302 -49.924,77.488 27.589,39.482 134.691,65.851 158.58,74.847 59.444,22.384 197.146,57.001 200.672,142.648 5.678,137.917 -194.915,281.655 -311.287,200.765"
       id="path2825" /><path
       style="fill:none;stroke:#ffffff;stroke-width:40.7;stroke-dasharray:none"
       d="m 12377.369,83685.274 c -5.874,-31.994 -18.779,-63.473 -17.621,-95.981 2.488,-69.819 119.994,-141.964 71.46,-8.805 -13.448,36.895 -35.893,69.857 -53.839,104.786 z"
       id="path2827" /><path
       style="fill:none;stroke:#ffffff;stroke-width:40.7;stroke-dasharray:none"
       d="m 12447.848,83866.666 c -20.686,110.193 62.596,666.816 243.743,440.274"
       id="path2829" /><path
       style="fill:none;stroke:#ffffff;stroke-width:40.7;stroke-dasharray:none"
       d="m 12796.333,83766.284 c -123.437,-184.205 -53.988,-34.298 0,0 133.873,85.047 398.407,118.595 344.568,353.1 -43.207,188.195 -307.216,288.763 -261.364,-8.806"
       id="path2831" /><path
       style="fill:none;stroke:#ffffff;stroke-width:40.7;stroke-dasharray:none"
       d="m 13724.318,83702.003 c -35.24,-5.283 -72.461,-28.641 -105.72,-15.849 -86.91,33.429 -19.799,308.602 191.862,107.427 27.647,-26.277 79.492,-90.684 50.903,-139.127 -24.576,-41.642 -150.989,1.25 -137.045,47.549 40.175,133.403 253.711,262.143 378.83,324.042"
       id="path2833" /><path
       style="fill:none;stroke:#ffffff;stroke-width:40.7;stroke-dasharray:none"
       d="m 13043.012,84893.385 c -26.756,-2.935 -54.147,-15.3 -80.269,-8.805 -78.376,19.489 -49.661,98.555 -0.978,123.277 234.156,118.906 70.799,-42.225 395.47,188.437 30.547,21.702 53.939,56.893 62.648,93.338 18.726,78.365 -157.167,311.346 -207.523,196.362 -12.045,-27.504 -4.568,-59.877 -6.853,-89.816"
       id="path2835" /><path
       style="fill:none;stroke:#ffffff;stroke-width:40.7;stroke-dasharray:none"
       d="m 13443.377,85021.065 c 27.991,77.578 13.241,136.786 114.53,96.86 63.41,-24.995 112.619,-73.207 143.896,-132.082 6.197,-11.664 9.82,-48.458 0,-39.625 -44.844,40.339 24.648,315.609 97.889,234.227"
       id="path2837" /><path
       style="fill:none;stroke:#ffffff;stroke-width:40.7;stroke-dasharray:none"
       d="m 13808.502,84723.44 c 10.116,-30.233 3.919,-72.867 30.346,-90.697 45.419,-30.642 100.147,53.27 132.15,97.741 202.646,281.594 -158.997,572.092 -10.768,132.082"
       id="path2839" /><path
       style="fill:none;stroke:#ffffff;stroke-width:40.7;stroke-dasharray:none"
       d="m 14059.098,84524.436 c 38.829,17.023 87.895,19.767 116.487,51.072 47.93,52.477 149.472,342.797 46.986,399.769 -15.989,8.888 -42.414,10.804 -54.818,-2.642 -82.874,-89.841 -63.26,-174.433 -37.197,-275.612"
       id="path2841" /><path
       style="fill:none;stroke:#ffffff;stroke-width:40.7;stroke-dasharray:none"
       d="m 14266.621,84432.859 c 19.577,67.386 296.624,581.521 207.524,368.949"
       id="path2843" /><path
       style="fill:none;stroke:#ffffff;stroke-width:40.7;stroke-dasharray:none"
       d="m 14436.948,84613.371 c 43.397,-21.133 87.158,-41.536 130.192,-63.399 26.353,-13.388 71.677,-32.9 88.1,-63.4 17.932,-33.301 -27.835,-76.641 -60.691,-67.802 -34.783,9.357 -170.108,168.02 -157.601,194.601 22.531,47.881 88.915,58.134 137.044,80.13 33.924,15.504 294.999,69.757 285.835,-29.058"
       id="path2845" /><path
       style="fill:none;stroke:#ffffff;stroke-width:40.7;stroke-dasharray:none"
       d="m 15425.625,84086.803 c -18.499,207.259 121.092,384.27 191.861,572.357"
       id="path2847" /><path
       style="fill:none;stroke:#ffffff;stroke-width:40.7;stroke-dasharray:none"
       d="m 15421.71,84215.363 c -129.869,-301.969 288.975,-424.7 295.623,-119.754 2.014,92.402 -185.181,392.175 -158.58,142.648"
       id="path2849" /><path
       style="fill:none;stroke:#ffffff;stroke-width:40.7;stroke-dasharray:none"
       d="m 15965.971,84220.647 c 20.556,29.645 47.814,55.627 61.67,88.935 25.13,60.412 -62.468,86.553 -73.417,17.611 -5.604,-35.289 6.372,-71.222 11.747,-106.546 15.809,-103.904 -2.726,-258.91 90.057,-206.929 24.377,13.657 43.96,36.457 57.754,60.757 76.633,134.996 -19.968,447.423 -52.859,249.196"
       id="path2851" /><path
       style="fill:none;stroke:#ffffff;stroke-width:40.7;stroke-dasharray:none"
       d="m 16206.777,84188.067 c 50.845,-85.427 30.99,-128.1 -9.789,-206.049"
       id="path2853" /><path
       style="fill:none;stroke:#ffffff;stroke-width:40.7;stroke-dasharray:none"
       d="m 16164.685,83754.836 c 4.92,-319.112 62.104,-145.602 132.149,22.014 134.357,321.509 -21.175,-51.757 108.657,234.226 48.292,106.374 21.88,122.301 53.839,-90.697 6.375,-42.489 17.695,-131.404 36.219,-181.392 1.442,-3.893 5.66,-11.511 8.81,-8.806 63.628,54.634 39.427,240.975 97.889,321.4"
       id="path2855" /><path
       style="fill:none;stroke:#ffffff;stroke-width:40.7;stroke-dasharray:none"
       d="m 16663.918,83659.737 c 6.852,-36.102 56.658,-101.455 20.556,-108.307 -36.103,-6.852 -38.545,76.265 -20.556,108.307 22.409,39.916 92.319,30.914 119.423,67.803 49.34,67.151 48.178,220.981 16.642,294.984 -27.409,-58.997 -92.039,-112.682 -82.227,-176.991 7.574,-49.64 292.71,-89.306 344.569,-106.546"
       id="path2857" /></g></svg>
