<?xml version="1.0" encoding="UTF-8" standalone="no"?>
<!-- Created with Inkscape (http://www.inkscape.org/) -->

<svg
   width="611.92804mm"
   height="223.04747mm"
   viewBox="0 0 611.92803 223.04747"
   version="1.1"
   id="svg12"
   inkscape:version="1.2.1 (9c6d41e410, 2022-07-14, custom)"
   sodipodi:docname="multiplication_difference_example.svg"
   xml:space="preserve"
   xmlns:inkscape="http://www.inkscape.org/namespaces/inkscape"
   xmlns:sodipodi="http://sodipodi.sourceforge.net/DTD/sodipodi-0.dtd"
   xmlns="http://www.w3.org/2000/svg"
   xmlns:svg="http://www.w3.org/2000/svg"><sodipodi:namedview
     id="namedview14"
     pagecolor="#505050"
     bordercolor="#eeeeee"
     borderopacity="1"
     inkscape:showpageshadow="0"
     inkscape:pageopacity="0"
     inkscape:pagecheckerboard="0"
     inkscape:deskcolor="#505050"
     inkscape:document-units="mm"
     showgrid="true"
     inkscape:zoom="0.12176488"
     inkscape:cx="2266.6634"
     inkscape:cy="919.80545"
     inkscape:window-width="1366"
     inkscape:window-height="746"
     inkscape:window-x="0"
     inkscape:window-y="0"
     inkscape:window-maximized="1"
     inkscape:current-layer="layer1"
     inkscape:lockguides="false"><inkscape:grid
       type="xygrid"
       id="grid344"
       color="#969696"
       opacity="0.39215686"
       empcolor="#000000"
       empopacity="0.17254902"
       dotted="false"
       originx="-876.50989"
       originy="-10220.011" /></sodipodi:namedview><defs
     id="defs9" /><g
     inkscape:label="Layer 1"
     inkscape:groupmode="layer"
     id="layer1"
     transform="translate(-981.50989,-10368.511)"><path
       style="fill:none;stroke:#ffffff;stroke-width:5.5"
       d="m 1067.5902,10420.56 c 0.4284,6.517 2.9614,13.239 1.2854,19.552 -6.7848,25.553 -27.0289,44.873 -45.9233,61.701 -8.1412,7.251 -19.633,15.678 -15.0741,17.87 14.2767,6.864 35.3463,3.132 51.1817,3.679 21.1026,0.728 21.8195,0.94 39.0289,1.261 4.2509,0.08 14.3757,1.406 15.5415,-0.841 3.3113,-6.383 -9.1817,-31.613 -9.2314,-31.744 -13.3056,-35.101 -14.9184,-44.754 -36.8087,-71.478 z"
       id="path1017" /><path
       style="fill:none;stroke:#ffffff;stroke-width:5.5"
       d="m 1196.0117,10454.092 c -34.1506,7.044 -16.7815,39.683 -11.101,62.227 0.3822,1.517 6.3203,22.056 -1.2854,18.816"
       id="path1019" /><path
       style="fill:none;stroke:#ffffff;stroke-width:5.5"
       d="m 1158.385,10507.91 c 4.4015,-3.994 7.8762,-9.349 13.2044,-11.983 6.5747,-3.25 24.8236,-1.583 32.1346,0.21 0.45,0.111 -0.1209,1.262 -0.5842,1.262"
       id="path1021" /><path
       style="fill:none;stroke:#ffffff;stroke-width:5.5"
       d="m 1241.5845,10464.813 c -12.3859,17.767 -17.4488,39.273 -6.5438,59.284 7.4907,13.746 13.6761,7.186 20.5661,-1.576"
       id="path1023" /><path
       style="fill:none;stroke:#ffffff;stroke-width:5.5"
       d="m 1270.0966,10486.151 c -0.2235,-1.926 -0.018,36.858 -10.0494,34.057 -2.7432,-0.765 -4.1287,-3.924 -6.1931,-5.886"
       id="path1025" /><path
       style="fill:none;stroke:#ffffff;stroke-width:5.5"
       d="m 1250.8159,10495.717 c 5.2973,1.226 11.1384,1.039 15.892,3.679 8.6458,4.801 29.0368,42.425 15.7751,13.454"
       id="path1027" /><path
       style="fill:none;stroke:#ffffff;stroke-width:5.5"
       d="m 1280.4966,10444.001 c 4.2066,2.522 9.4425,3.831 12.6201,7.568 4.5826,5.389 6.9581,12.344 9.8156,18.815 10.8734,24.624 13.1583,47.847 5.7258,74.001 -6.2395,21.955 -6.4596,14.745 -9.3482,5.465"
       id="path1029" /><path
       style="fill:none;stroke:#ffffff;stroke-width:5.5"
       d="m 1386.716,10483.944 c -41.0242,6.937 -14.61,45.071 10.1663,16.503 1.7503,-2.018 4.3225,-5.189 2.9213,-7.463 -2.7809,-4.515 -11.4238,-14.074 -13.0876,-9.04 -0.8821,2.669 26.8706,41.716 29.9144,54.239 2.5398,10.449 -34.6752,25.939 -40.548,-10.512"
       id="path1031" /><path
       style="fill:none;stroke:#ffffff;stroke-width:5.5"
       d="m 1462.7874,10462.08 c -5.8816,4.135 -12.9861,6.928 -17.6448,12.404 -4.8531,5.704 -13.8504,28.919 -10.8673,37.315 7.7124,21.708 23.6731,27.111 43.5862,28.381 7.0425,0.449 8.1328,0.128 3.973,-2.733"
       id="path1033" /><path
       style="fill:none;stroke:#ffffff;stroke-width:5.5"
       d="m 1500.7647,10484.89 c 2.9145,15.652 -5.5685,28.802 -11.8022,42.466 -2.6111,5.724 -5.8402,13.025 -6.6606,12.403 -1.6945,-1.283 -1.6359,-3.924 -2.4539,-5.886"
       id="path1035" /><path
       style="fill:none;stroke:#ffffff;stroke-width:5.5"
       d="m 1472.8368,10506.964 c 24.6215,11.074 21.0288,5.693 34.3548,20.812 1.873,2.126 5.0337,9.768 4.9078,6.938 -0.066,-1.487 -0.779,-2.873 -1.1685,-4.31"
       id="path1037" /><path
       style="fill:none;stroke:#ffffff;stroke-width:5.5"
       d="m 1513.268,10436.222 c 4.2846,0.876 9.4054,-0.06 12.8538,2.628 3.9586,3.088 5.5905,8.442 7.3618,13.139 12.4812,33.101 7.6168,68.95 -1.0517,102.276 -1.1444,4.399 -5.0646,24.41 -5.8427,15.662"
       id="path1039" /><path
       style="fill:none;stroke:#ffffff;stroke-width:5.5"
       d="m 1439.6505,10486.782 c 7.9156,-14.301 18.5369,-26.289 30.0312,-37.736 1.9394,-1.931 7.1943,-4.372 5.2584,-6.307 -1.9041,-1.903 -9.3941,3.774 -10.283,4.52 -19.2602,16.171 -36.5755,50.109 -26.6426,75.367 8.641,21.972 11.6333,24.122 30.265,35.213 2.953,1.758 10.5614,6.508 9.8157,3.154 -0.9424,-4.24 -32.8138,-16.913 -37.6267,-21.339 -20.2019,-18.574 -8.7398,-31.152 -0.818,-52.872 3.6955,-10.132 5.8696,-20.778 9.5819,-30.903 1.4503,-3.956 4.7493,-8.097 5.9595,-12.089"
       id="path1041" /><path
       style="fill:none;stroke:#ffffff;stroke-width:5.5"
       d="m 1525.7713,10431.492 c 22.6831,33.304 23.0385,70.694 8.1796,107.742 -1.3297,3.315 -13.2738,22.949 -19.2807,26.699 -1.0542,0.658 -2.1813,-1.191 -3.2719,-1.787"
       id="path1043" /><path
       style="fill:none;stroke:#ffffff;stroke-width:5.5"
       d="m 1074.0171,10438.43 c 2.6877,-3.189 5.5646,-6.227 8.0629,-9.566 2.9804,-3.983 -3.6581,-14.528 -9.3482,-8.094 -0.1184,0.134 -3.675,4.475 -3.6225,4.731 0.9283,4.515 6.8795,8.762 4.9078,12.929 -2.3454,4.956 -10.4061,4.043 -14.6066,7.568 -2.8779,2.415 -12.2174,20.318 -15.191,24.176 -11.9768,15.539 -26.8558,28.476 -39.9637,42.992 -1.2299,1.362 -20.40614,19.923 -19.9819,25.648 0.19886,2.683 10.321,-4.915 18.9302,-8.83 13.6041,-6.188 27.5855,-8.188 42.4177,-8.83 19.4413,-0.841 38.8521,0.75 58.3097,0.211 6.4443,-0.179 12.956,-1.094 19.3976,-1.577 1.6329,-0.123 6.3306,0.6 4.9078,-0.21 -27.9707,-15.936 -39.4712,-71.81 -43.4693,-102.381"
       id="path1045" /><path
       style="fill:none;stroke:#ffffff;stroke-width:5.5"
       d="m 1171.4726,10388.606 c -4.9857,5.255 -10.8117,9.826 -14.9572,15.767 -7.4041,10.611 -15.0542,35.681 -17.6449,46.355 -9.1542,37.716 -18.3498,92.15 20.7999,116.361"
       id="path1049" /><path
       style="fill:none;stroke:#ffffff;stroke-width:5.5"
       d="m 1555.9194,10370.105 c 11.4421,16.083 16.6278,21.23 23.7211,40.259 20.0133,53.689 11.967,107.181 -16.7099,155.043 -3.9643,6.617 -8.5551,12.856 -13.3213,18.921 -4.8182,6.13 -4.4404,5.055 -4.4404,2.207"
       id="path1051" /></g></svg>
