<?xml version="1.0" encoding="UTF-8" standalone="no"?>
<!-- Created with Inkscape (http://www.inkscape.org/) -->

<svg
   width="330.82455mm"
   height="168.86891mm"
   viewBox="0 0 330.82454 168.86891"
   version="1.1"
   id="svg12"
   inkscape:version="1.2.1 (9c6d41e410, 2022-07-14, custom)"
   sodipodi:docname="multiderivativenotation.svg"
   xmlns:inkscape="http://www.inkscape.org/namespaces/inkscape"
   xmlns:sodipodi="http://sodipodi.sourceforge.net/DTD/sodipodi-0.dtd"
   xmlns="http://www.w3.org/2000/svg"
   xmlns:svg="http://www.w3.org/2000/svg">
  <sodipodi:namedview
     id="namedview14"
     pagecolor="#505050"
     bordercolor="#eeeeee"
     borderopacity="1"
     inkscape:showpageshadow="0"
     inkscape:pageopacity="0"
     inkscape:pagecheckerboard="0"
     inkscape:deskcolor="#505050"
     inkscape:document-units="mm"
     showgrid="true"
     inkscape:zoom="0.37762644"
     inkscape:cx="614.36376"
     inkscape:cy="376.03299"
     inkscape:window-width="1366"
     inkscape:window-height="746"
     inkscape:window-x="0"
     inkscape:window-y="0"
     inkscape:window-maximized="1"
     inkscape:current-layer="layer1"
     inkscape:lockguides="false">
    <inkscape:grid
       type="xygrid"
       id="grid344"
       color="#969696"
       opacity="0.39215686"
       empcolor="#000000"
       empopacity="0.17254902"
       dotted="false"
       originx="126.4794"
       originy="83.423607" />
  </sodipodi:namedview>
  <defs
     id="defs9" />
  <g
     inkscape:label="Layer 1"
     inkscape:groupmode="layer"
     id="layer1"
     transform="translate(21.479398,-65.076387)">
    <path
       style="fill:none;stroke:#ffffff;stroke-width:1.5"
       d="m -6.488671,74.958479 c -0.7041216,-0.177349 -1.4391859,-0.804205 -2.1123647,-0.532047 -2.8070923,1.134875 -3.4231473,7.726854 -2.7038143,10.108821 0.415923,1.377269 1.4399293,2.68985 2.386968,3.724299 0.6066632,0.662657 2.2350484,1.69852 1.3730285,1.159093 -0.6415733,-0.401478 -1.2440824,-0.862733 -1.8800042,-1.273104"
       id="path8451" />
    <path
       style="fill:none;stroke:#ffffff;stroke-width:1.5"
       d="m -16.628005,85.181304 c 13.12427,-1.435068 8.6629575,-1.425119 13.3078803,-1.425119"
       id="path8453" />
    <path
       style="fill:none;stroke:#ffffff;stroke-width:1.5"
       d="M 5.974267,68.706974 C -8.0380469,68.536586 5.3080038,92.220829 10.346858,87.46149"
       id="path8455" />
    <path
       style="fill:none;stroke:#ffffff;stroke-width:1.5"
       d="m 17.127539,77.048644 c -1.957596,11.926405 0.925192,13.948534 -3.189668,10.070815"
       id="path8457" />
    <path
       style="fill:none;stroke:#ffffff;stroke-width:1.5"
       d="m 10.621462,78.188737 c 10.706007,7.712288 8.038761,3.832206 11.111031,8.721706"
       id="path8459" />
    <path
       style="fill:none;stroke:#ffffff;stroke-width:1.5"
       d="m 21.373392,65.533716 c 7.639773,9.930125 6.724341,6.502471 6.21034,25.310049 -0.04697,1.718678 -1.506818,3.090913 -2.260227,4.63637"
       id="path8461" />
    <path
       style="fill:none;stroke:#ffffff;stroke-width:1.5"
       d="m 25.598122,111.84046 c -4.977519,3.08606 -6.754173,2.24726 -5.851253,8.75971 0.214847,1.54961 5.46335,6.32287 5.006308,6.61253 -0.514654,0.32618 -1.470607,0.0356 -1.964502,-0.057"
       id="path8463" />
    <path
       style="fill:none;stroke:#ffffff;stroke-width:1.5"
       d="m 17.148661,124.15346 c 2.622108,-3.73459 0.642429,-2.08453 7.245416,-2.69823"
       id="path8465" />
    <path
       style="fill:none;stroke:#ffffff;stroke-width:1.5"
       d="m 31.597223,99.945495 c 0.626668,3.344275 1.253337,6.688545 1.880005,10.032815"
       id="path8467" />
    <path
       style="fill:none;stroke:#ffffff;stroke-width:1.5"
       d="m 50.122639,106.216 c 2.628712,25.23657 -3.893746,18.49612 8.111479,26.94418"
       id="path8469" />
    <path
       style="fill:none;stroke:#ffffff;stroke-width:1.5"
       d="m 68.711433,112.54352 c -2.236436,2.8859 -2.526768,6.37409 -3.020685,9.86179 -0.04965,0.35057 -0.131275,1.34984 -0.274603,1.02608 -0.312719,-0.70638 -0.549206,-1.44411 -0.823809,-2.16617"
       id="path8471" />
    <path
       style="fill:none;stroke:#ffffff;stroke-width:1.5"
       d="m 61.529408,112.92355 c 4.72884,1.71762 10.496402,3.97791 13.89933,7.84763"
       id="path8473" />
    <path
       style="fill:none;stroke:#ffffff;stroke-width:1.5"
       d="m 72.513686,100.87657 c 5.991738,4.58718 9.154623,14.93484 8.23822,22.2888 -0.835459,6.70441 -0.02352,6.7618 -2.534844,5.81447"
       id="path8475" />
    <path
       style="fill:none;stroke:#ffffff;stroke-width:1.5"
       d="m 99.298443,111.63144 c 0.08387,1.84351 -5.880465,0.81192 -2.450333,0.114 0.801246,-0.16302 1.653522,0.0695 2.450333,-0.114 1.287027,-0.29634 2.455837,-0.998 3.738887,-1.31111 2.13568,-0.52119 7.7046,-1.4342 2.87281,1.38711"
       id="path8477" />
    <path
       style="fill:none;stroke:#ffffff;stroke-width:1.5"
       d="m 98.200007,117.38891 c 4.255433,0.1156 8.428323,-2.35361 12.695313,-1.80515"
       id="path8479" />
    <path
       style="fill:none;stroke:#ffffff;stroke-width:1.5"
       d="m 123.86523,85.52333 c 1.86346,1.826683 2.06524,1.81624 3.54877,4.389356 0.61916,1.073904 1.22609,2.17111 1.6265,3.344267 0.34553,1.012404 0.57417,2.084654 0.59147,3.154259 0.0254,1.567979 -1.67983,5.027878 -3.80225,3.230258 -2.18526,-1.850842 -2.63688,-8.609568 0.67596,-9.557768 0.59219,-0.169498 1.197,0.291354 1.79549,0.437031"
       id="path8481" />
    <path
       style="fill:none;stroke:#ffffff;stroke-width:1.5"
       d="m 135.86343,83.224144 c 0.33798,0.848736 0.70025,1.688194 1.01393,2.546206 3.03236,8.294505 -0.973,-1.998633 2.30249,6.118495 0.31277,0.775102 0.62209,1.551893 0.90831,2.337187 0.17678,0.484994 0.8107,1.484489 0.29573,1.520123 -0.57384,0.03971 -1.05742,-0.45317 -1.58426,-0.684051"
       id="path8483" />
    <path
       style="fill:none;stroke:#ffffff;stroke-width:1.5"
       d="m 133.39198,92.762917 c -0.0282,-0.646051 -0.53872,-1.477861 -0.0845,-1.93816 1.56244,-1.583385 8.49555,-2.833572 10.66743,-3.192257 0.16019,-0.02646 2.18596,-0.576209 1.64764,0.323026"
       id="path8485" />
    <path
       style="fill:none;stroke:#ffffff;stroke-width:1.5"
       d="m 119.40814,108.00214 c -0.55626,0.0887 -1.75744,-0.29023 -1.66877,0.26602 0.0887,0.55626 1.12392,-0.12312 1.66877,-0.26602 8.53619,-2.23867 2.75251,-1.26977 12.18832,-3.02124 6.28578,-1.16677 17.43411,-3.66514 24.46116,-3.8193"
       id="path8487" />
    <path
       style="fill:none;stroke:#ffffff;stroke-width:1.5"
       d="m 131.42747,114.51967 c 1.14068,0.8044 2.34464,1.52583 3.42204,2.4132 0.97533,0.8033 2.37983,2.51412 2.66157,3.80031 0.35465,1.61906 -1.90467,5.34738 -3.92898,4.08533 -3.68506,-2.29744 2.84554,-7.80995 4.30921,-9.13975"
       id="path8489" />
    <path
       style="fill:none;stroke:#ffffff;stroke-width:1.5"
       d="m 142.79198,110.94738 c -0.32137,2.68697 -0.38252,5.33816 -0.29573,8.03765 0.0392,1.21906 0.0876,2.30381 -0.0422,2.33719 -0.26117,0.0671 -0.43656,-0.31669 -0.65484,-0.47503"
       id="path8491" />
    <path
       style="fill:none;stroke:#ffffff;stroke-width:1.5"
       d="m 138.2504,113.89262 c 0.79566,0.038 1.62122,-0.10541 2.38697,0.11401 2.97234,0.85172 9.13657,4.25698 10.35059,7.3346"
       id="path8493" />
    <path
       style="fill:none;stroke:#ffffff;stroke-width:1.5"
       d="m 137.02524,89.47565 c -3.369,-8.873771 -1.70888,-13.455226 7.62562,-15.904284 0.72886,-0.191229 -1.47963,0.349069 -2.15461,0.684057 -2.45537,1.218591 -4.06467,1.867693 -5.61889,4.08533 -3.8774,5.532481 0.53451,14.154835 4.58384,17.177387"
       id="path8495" />
    <path
       style="fill:none;stroke:#ffffff;stroke-width:1.5"
       d="m 168.85853,89.418645 c -7.79701,0.401974 -0.65988,16.001225 3.42204,15.353245"
       id="path8497" />
    <path
       style="fill:none;stroke:#ffffff;stroke-width:1.5"
       d="m 175.93495,93.655989 c 0.0658,0.493485 2.33897,11.973861 0.21124,10.697871 -0.86311,-0.51761 -1.46457,-1.38079 -2.19685,-2.07118"
       id="path8499" />
    <path
       style="fill:none;stroke:#ffffff;stroke-width:1.5"
       d="m 172.38618,99.166435 c -0.0845,-0.570048 0.31657,-1.794635 -0.25348,-1.71014 -0.57005,0.08449 -0.30261,1.558951 0.25348,1.71014 1.74028,0.473138 3.62723,-0.458293 5.40765,-0.171016 3.02679,0.488378 2.9441,1.280311 4.7317,2.052171 0.33417,0.14429 -0.58006,-0.43993 -0.86608,-0.66506"
       id="path8501" />
    <path
       style="fill:none;stroke:#ffffff;stroke-width:1.5"
       d="m 181.17361,82.141056 c 1.15476,0.323026 2.51961,0.230554 3.46428,0.969078 1.12214,0.877262 1.69262,2.305983 2.34473,3.572289 2.55297,4.957516 2.72592,10.22093 2.02785,15.638267 -0.0661,0.51328 -1.46378,5.50892 -1.26741,6.74554"
       id="path8503" />
    <path
       style="fill:none;stroke:#ffffff;stroke-width:1.5"
       d="m 206.03612,91.945852 c 0.4096,0.2159 18.49239,-6.952425 8.95642,-1.786146"
       id="path8505" />
    <path
       style="fill:none;stroke:#ffffff;stroke-width:1.5"
       d="m 208.10624,94.739077 c 4.15755,-1.161637 9.45299,-1.357172 13.329,-3.287268"
       id="path8507" />
    <path
       style="fill:none;stroke:#ffffff;stroke-width:1.5"
       d="m 231.59571,98.710399 c 0.81556,0.366818 -0.29658,-3.378597 -0.90832,-5.738466 -1.28191,-4.945169 -3.00298,-9.88299 -5.06968,-14.555175 -0.40726,-0.920693 -0.92943,-1.786145 -1.39414,-2.679217 2.11236,-1.456785 3.93968,-3.45559 6.33707,-4.370356 1.24424,-0.474762 2.7202,-0.01948 3.97125,0.437036 6.82988,2.492274 5.94496,11.951256 3.56989,17.044377 -1.79892,3.857622 -6.04687,8.454094 -6.78069,6.840552"
       id="path8509" />
    <path
       style="fill:none;stroke:#ffffff;stroke-width:1.5"
       d="m 257.07079,80.050886 c -1.77557,-0.08496 -2.29325,-0.562296 -3.44313,1.140093 -2.5218,3.733472 3.14992,6.250578 4.56269,8.759711 0.265,0.470649 -0.42657,0.554107 -0.59148,0.608047"
       id="path8511" />
    <path
       style="fill:none;stroke:#ffffff;stroke-width:1.5"
       d="m 251.45191,87.993531 c 2.22872,-2.598063 6.13661,-1.26165 8.76631,-2.907237"
       id="path8513" />
    <path
       style="fill:none;stroke:#ffffff;stroke-width:1.5"
       d="m 266.53419,74.312428 c -0.61259,0.291355 -1.39663,0.358752 -1.83777,0.874066 -3.97512,4.643538 0.76094,10.669634 5.13305,12.560016 1.02251,0.442105 0.97732,0.386216 1.58427,0.09501"
       id="path8515" />
    <path
       style="fill:none;stroke:#ffffff;stroke-width:1.5"
       d="m 273.75845,80.145897 c 2.23012,-6.72107 0.007,-0.06915 0,0 -0.40092,4.259424 0.76547,9.873093 -1.62652,8.740706"
       id="path8517" />
    <path
       style="fill:none;stroke:#ffffff;stroke-width:1.5"
       d="m 269.85056,81.761026 c 0.77454,0.221685 1.59573,0.319771 2.32362,0.665057 1.43701,0.681673 3.85472,2.427347 5.23865,3.439278 1.22637,0.896722 1.89037,1.660188 0.97168,0.931072"
       id="path8519" />
    <path
       style="fill:none;stroke:#ffffff;stroke-width:1.5"
       d="m 279.46184,69.220015 c 0.98576,1.241433 2.22991,2.315823 2.95727,3.724299 2.46026,4.763907 1.19883,11.270951 -0.40132,16.018294 -0.74154,2.20003 -2.63474,4.748206 -3.27414,7.049567"
       id="path8521" />
    <path
       style="fill:none;stroke:#ffffff;stroke-width:1.5"
       d="m -18.043289,157.63416 c -4.238202,5.91772 2.22941,11.77053 7.984727,12.92104 0.081594,0.0163 -0.133997,-0.10207 -0.211239,-0.13301 -0.825412,-0.33064 -1.661725,-0.63338 -2.492588,-0.95007"
       id="path8523" />
    <path
       style="fill:none;stroke:#ffffff;stroke-width:1.5"
       d="m -19.07835,167.91398 c -0.549214,-0.58905 -1.583895,-0.9643 -1.647644,-1.76714 -0.146505,-1.84506 5.315185,-3.73979 6.63282,-3.7813 0.899676,-0.0283 1.774388,0.30402 2.661583,0.45603"
       id="path8525" />
    <path
       style="fill:none;stroke:#ffffff;stroke-width:1.5"
       d="m -8.009574,165.32978 c 0.087446,0.97758 0.7060017,2.12417 -0.8660651,2.16617 -2.9390219,0.0785 -3.6059509,-6.34445 -0.5492186,-6.66953 1.2356118,-0.13141 4.9049778,2.16989 3.6121463,3.9143"
       id="path8527" />
    <path
       style="fill:none;stroke:#ffffff;stroke-width:1.5"
       d="m -6.7843958,158.62224 c 2.3891171,0.68588 2.2621886,0.25637 3.8656175,2.75522 0.5960401,0.92889 1.2045183,1.9042 1.4364044,2.98325 0.2199693,1.02359 -0.151212,2.92054 -1.182923,2.14716 -3.7305574,-2.79647 -0.6951503,-8.02807 3.37978486,-7.56261"
       id="path8529" />
    <path
       style="fill:none;stroke:#ffffff;stroke-width:1.5"
       d="m -3.3201247,182.43116 c -5.1790258,1.86751 -6.2735941,8.35132 -5.2175346,13.22507 0.081601,0.37659 2.2317654,4.59961 1.1829232,3.42027"
       id="path8531" />
    <path
       style="fill:none;stroke:#ffffff;stroke-width:1.5"
       d="m -9.783959,193.22404 c 2.8362405,-0.67576 4.5987885,-1.17688 7.4566409,-1.55814 0.5101458,-0.068 1.90354741,-0.0782 1.52090435,0.26602"
       id="path8533" />
    <path
       style="fill:none;stroke:#ffffff;stroke-width:1.5"
       d="m 11.783263,171.03024 c -5.037516,10.53877 -6.3619699,30.8738 9.569008,31.59956"
       id="path8535" />
    <path
       style="fill:none;stroke:#ffffff;stroke-width:1.5"
       d="m 25.365759,194.49714 c 2.465369,-6.58729 3.820951,-13.60205 4.076856,-20.63567 0.02556,-0.70263 -0.0066,-1.40624 -0.02111,-2.10918 -0.0071,-0.34311 -0.06904,-1.36892 -0.0845,-1.02608 -0.341781,7.58297 2.6602,14.47859 5.893496,21.14871 0.210931,0.43515 3.958288,6.59779 0.697079,4.27534"
       id="path8537" />
    <path
       style="fill:none;stroke:#ffffff;stroke-width:1.5"
       d="m 28.639914,187.9226 c 1.095886,-0.56782 2.243191,-0.7092 3.40091,-0.91207"
       id="path8539" />
    <path
       style="fill:none;stroke:#ffffff;stroke-width:1.5"
       d="m 39.645327,173.0254 c 2.968228,6.76414 4.206824,13.91145 2.281348,21.11071 -0.563935,2.10853 -1.881177,5.8685 -2.260227,4.90239"
       id="path8541" />
    <path
       style="fill:none;stroke:#ffffff;stroke-width:1.5"
       d="m 68.774798,179.69494 c 0.964652,1.84315 1.871522,3.71771 2.893954,5.52945 1.255123,2.22405 1.260994,-2.64486 1.563135,-3.28727 0.03856,-0.082 0.108172,0.14659 0.147875,0.22802 0.338217,0.69367 1.320829,3.3629 2.53482,2.35618 0.813398,-0.67452 1.059026,-2.05179 1.647642,-2.88822 0.823285,-1.1699 7.274417,-5.049 4.330361,-6.74555 -1.765818,-1.01758 -3.565212,2.94493 -3.802253,3.7623 -1.777582,6.12952 7.475345,6.55535 10.878648,4.44636"
       id="path8543" />
    <path
       style="fill:none;stroke:#ffffff;stroke-width:1.5"
       d="m 127.01264,168.57905 c -5.83187,0.0858 -9.2013,12.33789 -0.67596,8.58869"
       id="path8545" />
    <path
       style="fill:none;stroke:#ffffff;stroke-width:1.5"
       d="m 129.84321,172.22733 c -1.05502,1.57874 -1.32169,3.92456 0.38021,5.28243 1.35737,1.08298 2.37064,-0.38842 3.14744,-1.2731 0.0417,-0.0474 0.64973,-1.25795 0.65481,-1.2351 0.23778,1.06938 0.0918,2.16493 0.59148,3.19226"
       id="path8547" />
    <path
       style="fill:none;stroke:#ffffff;stroke-width:1.5"
       d="m 136.79287,170.15617 c 0.57034,1.26677 1.22973,2.4971 1.71101,3.80031 1.18457,3.20756 -0.22322,3.30475 1.22517,-0.51304 0.28668,-0.75566 0.56674,-1.58126 1.1618,-2.12818 1.03561,-0.95181 3.26813,5.5136 3.56989,5.66245 0.14481,0.0714 0.18309,-0.26602 0.27463,-0.39903"
       id="path8549" />
    <path
       style="fill:none;stroke:#ffffff;stroke-width:1.5"
       d="m 162.01448,161.20645 c -0.69708,0.61438 -1.52133,1.10925 -2.09122,1.84314 -0.56457,0.72703 1.16262,1.50683 1.98561,1.91916 2.18011,1.09226 6.4536,1.74388 7.58338,4.27535 0.70539,1.58055 -3.57194,5.01271 -4.30922,2.66021 -0.27466,-0.8764 0.0141,-1.83681 0.0211,-2.75522"
       id="path8551" />
    <path
       style="fill:none;stroke:#ffffff;stroke-width:1.5"
       d="m 169.55561,164.70273 c 0.0775,1.19076 -0.18398,2.454 0.23236,3.57228 0.67866,1.82285 4.59337,-1.1583 4.96406,-1.44411 0.31733,-0.24467 0.57419,-0.55968 0.84495,-0.85507 0.0612,-0.0668 0.16437,-0.31709 0.14786,-0.22802 -0.28037,1.5125 -0.80633,6.92261 2.19685,5.28243"
       id="path8553" />
    <path
       style="fill:none;stroke:#ffffff;stroke-width:1.5"
       d="m 181.44821,162.80257 c 0.41005,0.90933 1.61645,10.13062 -1.54201,9.23475 -0.53597,-0.15202 -0.98576,-0.51937 -1.47865,-0.77906"
       id="path8555" />
    <path
       style="fill:none;stroke:#ffffff;stroke-width:1.5"
       d="m 175.70259,165.5198 c 0.95776,-0.65289 7.21939,0.45032 6.10474,2.14716"
       id="path8557" />
    <path
       style="fill:none;stroke:#ffffff;stroke-width:1.5"
       d="m 68.310076,224.06353 c 0.32345,0.61175 1.083016,2.37246 1.204044,1.69114 1.134478,-6.38636 -0.522893,-13.72118 -3.633255,-19.28656 0.802697,-1.07676 1.295737,-2.47768 2.408092,-3.23027 0.700529,-0.47396 1.727822,-0.36717 2.534842,-0.114 4.248037,1.33269 6.914248,5.86933 7.287657,10.10881 0.250291,2.84165 -0.641399,5.90606 -2.239117,8.24666 -0.711018,1.04161 -3.182717,3.70923 -4.985175,3.6673 -0.931559,-0.0217 -1.718059,-0.72205 -2.577088,-1.08308 z"
       id="path8559" />
    <path
       style="fill:none;stroke:#ffffff;stroke-width:1.5"
       d="m 88.652134,219.29413 c -1.933874,2.60009 -1.952514,5.97225 -3.020685,8.85472 -0.0353,0.0953 -0.0021,-0.20421 -0.02111,-0.30402 -0.09393,-0.49639 -0.21123,-0.98808 -0.316847,-1.48212"
       id="path8561" />
    <path
       style="fill:none;stroke:#ffffff;stroke-width:1.5"
       d="m 86.434161,221.04227 c 0.722667,0.58375 7.242003,5.31257 6.125855,6.51753"
       id="path8563" />
    <path
       style="fill:none;stroke:#ffffff;stroke-width:1.5"
       d="m 99.974403,215.68384 c -4.445926,1.94834 -5.465945,8.65784 -0.211238,10.41285 1.914255,0.63934 6.875105,-0.65688 2.957295,-2.22318"
       id="path8565" />
    <path
       style="fill:none;stroke:#ffffff;stroke-width:1.5"
       d="m 96.657994,221.97335 c 0.297143,-0.28941 10.638276,-4.04476 8.576186,-2.10916"
       id="path8567" />
    <path
       style="fill:none;stroke:#ffffff;stroke-width:1.5"
       d="m 108.40272,225.88768 c 1.38799,-3.17476 4.15521,-14.91642 2.85169,-17.65244 -0.32537,-0.68292 -0.71712,1.43596 -0.61258,2.18518 0.77514,5.55519 1.2949,6.49598 3.31641,10.77388 0.57388,1.21443 1.41135,2.33894 1.71101,3.64828 0.12558,0.54868 -1.23517,0.18795 -1.35192,0.17101"
       id="path8569" />
    <path
       style="fill:none;stroke:#ffffff;stroke-width:1.5"
       d="m 108.06475,222.6004 c 1.24095,-0.66198 4.85215,-2.6048 6.18922,-1.95716"
       id="path8571" />
    <path
       style="fill:none;stroke:#ffffff;stroke-width:1.5"
       d="m 132.65266,194.53514 c -0.9717,0.38003 -2.07916,0.51571 -2.91508,1.14009 -3.56285,2.66123 -3.37622,8.73114 -1.45753,12.21799 0.91019,1.6541 4.42509,4.72672 4.83733,6.06149"
       id="path8573" />
    <path
       style="fill:none;stroke:#ffffff;stroke-width:1.5"
       d="m 125.68185,206.62011 c 2.04197,-0.64739 10.50406,-3.7471 12.39956,-1.31109"
       id="path8575" />
    <path
       style="fill:none;stroke:#ffffff;stroke-width:1.5"
       d="m 41.799935,176.25566 c -0.395211,-4.69763 -3.952179,-7.54616 -6.273718,-11.26791 -0.284319,-0.45581 -0.859764,-1.64323 -1.140669,-2.24218 -0.0883,-0.18828 -0.460407,-0.59073 -0.253482,-0.57005 0.728668,0.0728 2.549769,3.51448 3.020671,4.46536 3.168719,6.39843 4.892564,15.10928 3.907872,22.21279 -0.101081,0.7292 -1.914199,8.94425 -2.281348,5.37744"
       id="path8577" />
    <path
       style="fill:none;stroke:#ffffff;stroke-width:1.5"
       d="m 158.37567,211.35317 c 1.76181,-0.25184 13.54107,-5.44614 5.85123,-0.43703"
       id="path8664" />
    <path
       style="fill:none;stroke:#ffffff;stroke-width:1.5"
       d="m 157.29836,215.93254 c 3.48542,-0.003 6.69588,-1.45362 10.18159,-1.40611"
       id="path8666" />
    <path
       style="fill:none;stroke:#ffffff;stroke-width:1.5"
       d="m 184.94919,195.35388 c -6.15099,2.29105 -0.94578,7.23332 3.95011,4.9974 5.45433,-2.49095 -2.42935,-15.05385 -5.19639,-16.34132"
       id="path8668" />
    <path
       style="fill:none;stroke:#ffffff;stroke-width:1.5"
       d="m 186.25885,186.68918 c 0.24569,-2.95168 -5.95416,-1.89886 -6.86518,-3.40128 -0.31048,-0.51203 1.20762,-0.1708 1.79552,-0.057 0.88399,0.17111 2.77482,0.16241 3.42201,0.83607 2.96658,3.08791 4.99915,11.96151 3.56989,15.96129"
       id="path8670" />
    <path
       style="fill:none;stroke:#ffffff;stroke-width:1.5"
       d="m 186.19548,198.69815 c 0.80974,-0.63972 1.73371,-1.1568 2.42921,-1.91916 3.32358,-3.64304 -0.59063,-10.27377 -2.7883,-13.18706 -0.70208,-0.93071 -2.17132,-1.31797 -3.23192,-1.61513 -0.0913,-0.0256 -0.63142,-0.19996 -0.78157,-0.11401 -0.20456,0.1171 0.40715,0.24795 0.57033,0.41804 0.84776,0.88363 0.92696,1.22416 1.47865,2.28017 1.92543,3.68557 4.24968,7.57613 5.34429,11.60994 0.10823,0.39887 0.0648,2.0797 -0.57036,2.3372 -0.7592,0.3078 -1.64089,0.0637 -2.45033,0.19001 -1.10292,0.17207 -2.15832,0.67251 -3.27416,0.70306 -1.0466,0.0287 -2.93086,-1.13521 -2.55597,-2.45121 0.94828,-3.32881 4.63798,-5.56721 7.45665,-7.10656"
       id="path8672" />
    <path
       style="fill:none;stroke:#ffffff;stroke-width:1.5"
       d="m 198.63731,187.39224 c -2.99217,1.52241 -4.95737,4.40738 -3.84452,7.84763 0.50978,1.57592 1.59655,2.82139 2.70384,3.99032 1.09255,1.15336 1.64256,1.22298 1.37302,1.2351 -0.27043,0.0122 -0.50697,-0.19001 -0.76045,-0.28502"
       id="path8674" />
    <path
       style="fill:none;stroke:#ffffff;stroke-width:1.5"
       d="m 191.77213,197.04501 c 3.34117,-0.94985 6.8742,-1.32295 10.30832,-0.62705 0.7605,0.15411 1.55193,0.54438 0.78157,1.0641"
       id="path8676" />
    <path
       style="fill:none;stroke:#ffffff;stroke-width:1.5"
       d="m 178.25301,206.7168 c 7.64683,0.76725 15.35629,-0.17359 23.00363,-0.60805 2.71999,-0.15453 6.09236,-0.5779 8.89303,-0.22802"
       id="path8678" />
    <path
       style="fill:none;stroke:#ffffff;stroke-width:1.5"
       d="m 187.77976,217.43367 c -0.76749,0.20268 -1.77273,0.0169 -2.30248,0.60805 -1.72414,1.92408 -0.0523,5.78487 1.75325,6.89756 4.31691,2.66032 8.39718,-2.02771 7.03418,-6.51753 -1.19175,-3.92567 -6.52452,-6.30018 -10.30832,-4.59837 -0.31867,0.14332 0.67054,0.20136 1.01393,0.26602"
       id="path8680" />
    <path
       style="fill:none;stroke:#ffffff;stroke-width:1.5"
       d="m 205.05889,213.44335 c -2.81836,2.17402 -3.92389,5.29687 -5.02744,8.55069 -0.2267,0.66842 -0.3721,1.3623 -0.59145,2.03316 -0.0282,0.0861 -0.10995,0.31028 -0.14788,0.22801 -0.84391,-1.83081 -1.11084,-4.49115 -1.711,-6.42251 -0.27368,-0.8807 -0.82381,-1.71899 -0.82381,-2.64122 0,-0.8958 1.47044,1.03177 2.13348,1.63413 5.86383,5.32716 2.75038,2.52147 7.16091,6.95457 1.16051,1.16645 3.35245,3.67512 2.61933,2.35619"
       id="path8682" />
    <path
       style="fill:none;stroke:#ffffff;stroke-width:1.5"
       d="m 184.52672,217.54768 c 0.90127,-0.49405 1.75732,-1.08147 2.70381,-1.48213 0.97821,-0.41409 2.02618,-0.63885 3.04181,-0.95007 0.34437,-0.10553 0.72012,-0.35758 1.05619,-0.22802 0.70929,0.27345 -0.98885,0.20362 -2.11236,0.49404 -1.26237,0.32631 -4.04803,1.3799 -4.68945,2.16618 -2.32523,2.85036 -2.31653,4.28603 0.40135,6.2515 0.70896,0.51269 3.32515,1.01165 4.26697,0.96907 3.49457,-0.15797 3.30906,-2.19351 2.64046,-5.09241 -0.69967,-3.03357 -2.4214,-6.87257 -5.38654,-8.26566 -1.83969,-0.86433 -3.61143,-0.16721 -5.34426,-0.70306"
       id="path8684" />
    <path
       style="fill:none;stroke:#ffffff;stroke-width:1.5"
       d="m 215.59957,214.86846 c -0.64779,-0.18369 -1.2994,-0.74772 -1.94337,-0.55105 -0.69364,0.21183 -1.07957,0.99054 -1.47865,1.59613 -1.2863,1.95195 -1.5453,4.13333 0.10561,6.00449 1.25965,1.42771 8.4127,3.71215 4.1191,0.83607"
       id="path8686" />
    <path
       style="fill:none;stroke:#ffffff;stroke-width:1.5"
       d="m 212.95366,218.57077 c 0.41325,0.18362 0.78836,0.52355 1.23974,0.55088 1.38622,0.0839 4.71355,-0.97524 5.8253,-1.28987"
       id="path8688" />
    <path
       style="fill:none;stroke:#ffffff;stroke-width:1.5"
       d="m 222.09489,222.70909 c 0.69971,-3.42571 1.56652,-6.81723 2.28532,-10.23831 0.10568,-0.50299 0.17579,-1.01281 0.26885,-1.51829 0.0364,-0.19772 0.01,-0.75963 0.11949,-0.59119 0.18018,0.27647 0.0795,0.65543 0.13444,0.98084 0.13932,0.82584 0.26666,1.65462 0.4481,2.47224 0.34653,1.56153 0.70613,3.12144 1.13518,4.66234 0.36111,1.29693 1.56836,3.4286 1.56836,4.85044"
       id="path8690" />
    <path
       style="fill:none;stroke:#ffffff;stroke-width:1.5"
       d="m 222.05009,219.47099 c 1.92024,-1.39419 4.41878,-0.11365 6.22858,-1.46454"
       id="path8692" />
    <path
       style="fill:none;stroke:#ffffff;stroke-width:1.5"
       d="m 227.6812,206.16924 c 0.7767,0.91813 1.72725,1.71382 2.33012,2.7544 2.16322,3.7338 1.8018,8.63894 1.44886,12.68369 -0.13996,1.60397 -0.4332,3.70376 -1.13519,5.22665"
       id="path8694" />
    <path
       style="fill:none;stroke:#ffffff;stroke-width:1.5"
       d="m 196.70258,207.88906 c -4.2794,7.16174 -5.98449,22.78269 4.58555,25.32707"
       id="path8696" />
    <path
       style="fill:none;stroke:#ffffff;stroke-width:1.5"
       d="m 242.51743,201.8764 c 0.48295,-0.0269 0.96576,-0.0563 1.44883,-0.0806 2.85909,-0.14388 5.72471,-0.31906 8.58859,-0.30903 0.4186,0.002 0.83648,0.0351 1.25468,0.0537 0.3084,0.0138 1.23224,-0.0393 0.92607,0 -0.16026,0.0206 -0.31864,0.0538 -0.47795,0.0806"
       id="path8698" />
    <path
       style="fill:none;stroke:#ffffff;stroke-width:1.5"
       d="m 247.01334,207.61362 c 3.31054,-0.26319 7.38145,-2.34786 10.66479,-1.77356"
       id="path8700" />
    <path
       style="fill:none;stroke:#ffffff;stroke-width:1.5"
       d="m 274.14564,191.14472 c -0.79163,0.34934 -1.66452,0.55399 -2.37492,1.04802 -3.69851,2.572 -4.04834,8.17231 -2.55419,11.9447 0.51787,1.3075 1.30914,2.45046 2.13596,3.57401 0.39163,0.53218 0.93578,0.96439 1.22481,1.55858 0.0907,0.18656 -0.38277,-0.16106 -0.56759,-0.25527"
       id="path8702" />
    <path
       style="fill:none;stroke:#ffffff;stroke-width:1.5"
       d="m 266.63251,205.18546 c 2.73965,-1.55837 5.70177,-2.93707 8.82756,-3.52026 1.86811,-0.34854 1.67306,-0.47305 1.38911,0.59119"
       id="path8704" />
    <path
       style="fill:none;stroke:#ffffff;stroke-width:1.5"
       d="m 282.91346,207.42929 c -0.45622,2.53462 -1.00531,5.07886 -2.06124,7.44361 -0.19836,0.4442 -0.67413,1.39442 -1.01571,1.04802 -0.44921,-0.45559 -0.74684,-1.03906 -1.12024,-1.55859"
       id="path8706" />
    <path
       style="fill:none;stroke:#ffffff;stroke-width:1.5"
       d="m 277.22259,209.51189 c 2.84353,0.53709 8.05174,2.66649 9.36529,5.45506"
       id="path8708" />
    <path
       style="fill:none;stroke:#ffffff;stroke-width:1.5"
       d="m 265.06416,184.41323 c -0.90199,2.69321 -3.99158,3.94414 -5.34733,6.24779 -0.12171,0.20682 0.46622,-0.12115 0.68709,-0.21498"
       id="path8710" />
    <path
       style="fill:none;stroke:#ffffff;stroke-width:1.5"
       d="m 293.84744,205.4462 c -0.6074,0.37622 -1.41753,0.53982 -1.82226,1.12863 -1.85579,2.70001 -2.7481,6.74812 1.16506,7.73921 0.49581,0.12557 1.86344,0.11671 2.43467,-0.0403 1.04397,-0.28694 0.58135,-0.76473 0.0448,-1.20925"
       id="path8712" />
    <path
       style="fill:none;stroke:#ffffff;stroke-width:1.5"
       d="m 291.56216,210.96845 c 1.25462,-0.69023 5.36694,-2.74528 6.7215,-1.4108"
       id="path8714" />
    <path
       style="fill:none;stroke:#ffffff;stroke-width:1.5"
       d="m 302.12237,215.17395 c 0.27762,-3.42963 0.14578,-2.25969 0.59745,-5.84471 0.12478,-0.99039 0.26599,-1.97869 0.38838,-2.96938 0.12161,-0.98447 0.22575,-1.97102 0.34354,-2.95595 0.0167,-0.13926 -0.0736,-0.46012 0.0597,-0.41651 0.15261,0.0499 0.0713,0.31316 0.10456,0.47026 0.576,2.72025 1.31297,5.28403 2.55416,7.79294 1.10837,2.24044 2.88322,4.22956 2.31518,4.43392"
       id="path8716" />
    <path
       style="fill:none;stroke:#ffffff;stroke-width:1.5"
       d="m 303.09325,213.07791 c -7.74181,-1.9828 2.6519,-1.57949 4.51086,-1.37048"
       id="path8718" />
  </g>
</svg>
