<?xml version="1.0" encoding="UTF-8" standalone="no"?>
<!-- Created with Inkscape (http://www.inkscape.org/) -->

<svg
   width="1634.731mm"
   height="729.02588mm"
   viewBox="0 0 1634.7309 729.02589"
   version="1.1"
   id="svg12"
   inkscape:version="1.2.1 (9c6d41e410, 2022-07-14, custom)"
   sodipodi:docname="multi_variable_difference.svg"
   xml:space="preserve"
   xmlns:inkscape="http://www.inkscape.org/namespaces/inkscape"
   xmlns:sodipodi="http://sodipodi.sourceforge.net/DTD/sodipodi-0.dtd"
   xmlns="http://www.w3.org/2000/svg"
   xmlns:svg="http://www.w3.org/2000/svg"><sodipodi:namedview
     id="namedview14"
     pagecolor="#505050"
     bordercolor="#eeeeee"
     borderopacity="1"
     inkscape:showpageshadow="0"
     inkscape:pageopacity="0"
     inkscape:pagecheckerboard="0"
     inkscape:deskcolor="#505050"
     inkscape:document-units="mm"
     showgrid="true"
     inkscape:zoom="0.12176488"
     inkscape:cx="3186.4689"
     inkscape:cy="1749.2729"
     inkscape:window-width="1366"
     inkscape:window-height="746"
     inkscape:window-x="0"
     inkscape:window-y="0"
     inkscape:window-maximized="1"
     inkscape:current-layer="layer1"
     inkscape:lockguides="false"><inkscape:grid
       type="xygrid"
       id="grid344"
       color="#969696"
       opacity="0.39215686"
       empcolor="#000000"
       empopacity="0.17254902"
       dotted="false"
       originx="-775.13921"
       originy="-9960.4168" /></sodipodi:namedview><defs
     id="defs9" /><g
     inkscape:label="Layer 1"
     inkscape:groupmode="layer"
     id="layer1"
     transform="translate(-880.13925,-10108.916)"><path
       style="fill:none;stroke:#ffffff;stroke-width:5.5"
       d="m 1162.8255,10285.699 c -3.6614,-0.421 -7.3805,-2.033 -10.9842,-1.261 -19.2661,4.126 -33.0026,27.206 -31.4335,45.619 1.4179,16.639 8.0194,30.798 15.6583,45.304 1.3207,4.714 4.7983,8.201 7.0112,12.404 0.5079,0.964 -1.9266,-1.036 -2.8045,-1.682"
       id="path1084" /><path
       style="fill:none;stroke:#ffffff;stroke-width:5.5"
       d="m 1094.3495,10346.455 c 20.4137,-3.017 44.0394,-3.393 63.5681,4.415"
       id="path1086" /><path
       style="fill:none;stroke:#ffffff;stroke-width:5.5"
       d="m 1248.4788,10258.685 c 1.198,5.507 3.0551,-11.221 -0.818,-11.668 -8.6608,-0.999 -19.1012,21.856 -20.4493,25.122 -13.2158,32.02 -14.2949,72.061 2.8045,102.907 6.49,11.707 18.5576,20.208 29.2133,27.435 9.8616,6.688 9.3455,6.448 17.4111,8.304"
       id="path1088" /><path
       style="fill:none;stroke:#ffffff;stroke-width:5.5"
       d="m 1321.8625,10288.432 c -16.1697,18.742 -8.9915,43.589 -12.8538,65.591 -0.1468,0.836 -0.1511,-1.697 -0.3506,-2.523 -2.1192,-8.769 -2.5227,-9.422 -5.2583,-17.554"
       id="path1090" /><path
       style="fill:none;stroke:#ffffff;stroke-width:5.5"
       d="m 1287.7414,10288.747 c 2.9214,2.068 6.1217,3.788 8.7641,6.202 4.9454,4.517 9.105,9.835 13.9055,14.506 13.1524,12.798 34.6701,24.804 41.5996,42.466"
       id="path1092" /><path
       style="fill:none;stroke:#ffffff;stroke-width:5.5"
       d="m 1384.8464,10339.202 c 0.9929,-6.676 0.034,41.141 0.5842,33.216"
       id="path1094" /><path
       style="fill:none;stroke:#ffffff;stroke-width:5.5"
       d="m 1422.8236,10293.162 c 0.402,-0.999 6.0091,-11.916 4.9079,-15.977 -0.1529,-0.564 -1.4644,0.07 -1.636,0.63 -1.5358,5 -2.6034,10.16 -3.2719,15.347 -3.4332,26.646 -1.2838,16.249 -1.4022,35.634 -0.019,3.124 1.4571,10.202 -1.5191,9.25 -1.7964,-0.575 -2.8044,-2.523 -4.2067,-3.784"
       id="path1096" /><path
       style="fill:none;stroke:#ffffff;stroke-width:5.5"
       d="m 1388.5857,10300.415 c 10.5604,2.245 29.9942,8.276 33.42,20.602"
       id="path1098" /><path
       style="fill:none;stroke:#ffffff;stroke-width:5.5"
       d="m 1429.0169,10206.022 c 40.3173,39.758 57.7402,101.52 45.1053,156.62 -3.0541,13.319 -9.8061,32.821 -21.2673,42.677 -1.8111,1.557 -4.752,0.49 -7.128,0.735"
       id="path1100" /><path
       style="fill:none;stroke:#ffffff;stroke-width:5.5"
       d="m 953.65838,10303.253 c 0.11686,4.835 1.38887,9.782 0.35057,14.506 -3.57852,16.281 -36.46133,59.629 -46.15696,75.577 -0.87394,1.437 -10.02956,15.377 -3.50562,16.818 8.5435,1.887 32.88702,0.166 39.96378,0 10.39801,-0.244 20.80492,-0.07 31.19979,-0.421 3.96209,-0.134 37.81196,1.437 46.39066,-5.045 5.5081,-4.162 -7.2005,-23.416 -8.1797,-25.122 -11.027,-19.209 -14.35681,-22.245 -32.95257,-42.361 -1.0051,-1.087 -28.311,-19.647 -17.06058,-23.02"
       id="path1102" /><path
       style="fill:none;stroke:#ffffff;stroke-width:5.5"
       d="m 1079.3924,10399.222 c -2.3355,7.742 -11.9782,39.644 -13.7887,45.935 -1.1956,4.154 -1.4912,11.938 -3.8562,15.767 -1.9368,3.136 -2.6966,-6.871 -3.7393,-10.406"
       id="path1106" /><path
       style="fill:none;stroke:#ffffff;stroke-width:5.5"
       d="m 1048.66,10407.316 c -0.7401,-3.469 1.2485,-11.146 -2.2202,-10.406 -16.4164,3.502 12.8824,15.254 21.2672,22.284 9.5079,7.971 21.9538,25.056 32.4852,35.003"
       id="path1108" /><path
       style="fill:none;stroke:#ffffff;stroke-width:5.5"
       d="m 1529.7442,10284.858 c 15.1495,6.962 32.0059,-7.743 46.8581,-4.099 1.4405,0.353 -2.8889,0.674 -4.3235,1.051"
       id="path1110" /><path
       style="fill:none;stroke:#ffffff;stroke-width:5.5"
       d="m 1541.4296,10303.674 c 15.1974,-1.069 30.5731,-3.009 45.339,-6.728"
       id="path1112" /><path
       style="fill:none;stroke:#ffffff;stroke-width:5.5"
       d="m 1716.0883,10240.175 c -5.4142,1.366 -11.2316,1.635 -16.2426,4.099 -4.4163,2.172 -7.8177,6.018 -11.3347,9.461 -23.1976,22.704 -6.0237,49.549 11.5684,69.27 2.7737,3.109 11.5987,9.379 9.2314,13.875"
       id="path1230" /><path
       style="fill:none;stroke:#ffffff;stroke-width:5.5"
       d="m 1664.2055,10311.652 c 3.0771,-2.242 5.6381,-5.468 9.2314,-6.727 8.6157,-3.019 38.8544,-9.007 47.9098,-3.994"
       id="path1232" /><path
       style="fill:none;stroke:#ffffff;stroke-width:5.5"
       d="m 1809.1034,10203.069 c -13.761,7.669 -14.6836,5.674 -22.4358,20.498 -11.2364,21.486 -16.4181,36.547 -9.3482,62.542 4.8155,17.707 35.6134,41.348 53.8693,30.589"
       id="path1234" /><path
       style="fill:none;stroke:#ffffff;stroke-width:5.5"
       d="m 1836.7976,10257.519 c 0.084,-46.081 0.8882,41.648 -2.2203,43.727 -1.0481,0.701 -2.2591,-1.121 -3.3886,-1.682"
       id="path1236" /><path
       style="fill:none;stroke:#ffffff;stroke-width:5.5"
       d="m 1817.7504,10274.442 c 16.7122,-10.196 31.0233,14.924 45.8065,12.929"
       id="path1238" /><path
       style="fill:none;stroke:#ffffff;stroke-width:5.5"
       d="m 1880.9681,10243.538 c -0.1386,12.312 9.0114,27.666 3.856,39.839 -10.6108,-18.971 -15.5421,-14.744 1.4024,-21.759 5.0095,-2.074 9.8538,-3.48 14.9571,-5.045"
       id="path1240" /><path
       style="fill:none;stroke:#ffffff;stroke-width:5.5"
       d="m 1910.7655,10209.376 c 7.6863,14.556 13.1804,30.233 17.2943,46.145"
       id="path1242" /><path
       style="fill:none;stroke:#ffffff;stroke-width:5.5"
       d="m 1994.5492,10259.936 c -1.999,5.368 -7.0997,36.299 -2.4539,39.523 0.9691,0.673 1.9475,-1.331 2.9213,-1.997"
       id="path1244" /><path
       style="fill:none;stroke:#ffffff;stroke-width:5.5"
       d="m 2032.2928,10225.038 c -8.1566,9.527 -3.5132,25.7 -11.3348,35.108 -1.4409,1.734 -4.2846,1.402 -6.4269,2.103"
       id="path1246" /><path
       style="fill:none;stroke:#ffffff;stroke-width:5.5"
       d="m 1990.9268,10231.03 c 7.1705,3.407 22.5938,21.161 30.7324,14.506"
       id="path1248" /><path
       style="fill:none;stroke:#ffffff;stroke-width:5.5"
       d="m 2022.4771,10164.913 c 2.6097,-3.539 3.439,-10.863 7.8292,-10.616 4.4908,0.252 4.9688,7.511 7.1281,11.457 4.0391,7.381 7.9314,14.852 11.4515,22.494 16.3861,35.575 36.4567,79.86 22.7864,119.62 -1.9996,5.816 -6.3879,10.512 -9.5819,15.767"
       id="path1250" /><path
       style="fill:none;stroke:#ffffff;stroke-width:5.5"
       d="m 2159.1954,10238.808 c 8.4472,-0.04 27.3257,-10.888 36.1075,-3.574"
       id="path1252" /><path
       style="fill:none;stroke:#ffffff;stroke-width:5.5"
       d="m 2294.7449,10184.675 c -10.9984,-2.625 -13.0911,-6.8 -18.4628,6.306 -10.556,25.756 20.0303,38.755 24.4223,54.975 0.9846,3.636 -3.668,3.616 -5.2584,3.994"
       id="path1254" /><path
       style="fill:none;stroke:#ffffff;stroke-width:5.5"
       d="m 2259.3384,10233.868 c 10.3981,-12.145 25.0984,-9.575 37.9773,-15.977"
       id="path1256" /><path
       style="fill:none;stroke:#ffffff;stroke-width:5.5"
       d="m 2357.6119,10152.51 c -0.1889,26.084 4.7375,-18.677 3.2718,-14.086 -1.4656,4.592 -1.7592,9.509 -3.2718,14.086 -3.2097,9.711 -8.7569,18.688 -10.8674,28.696 -3.3191,15.739 3.8729,60.329 28.3953,50.875"
       id="path1258" /><path
       style="fill:none;stroke:#ffffff;stroke-width:5.5"
       d="m 2399.5622,10180.05 c -6.4014,8.821 1.5702,45.236 -12.036,46.46"
       id="path1260" /><path
       style="fill:none;stroke:#ffffff;stroke-width:5.5"
       d="m 2372.5691,10196.447 c 7.9368,0.295 32.1082,1.254 32.9525,14.926"
       id="path1262" /><path
       style="fill:none;stroke:#ffffff;stroke-width:5.5"
       d="m 2431.463,10219.152 c -2.9952,4.268 -13.7823,40.066 -4.5573,29.327"
       id="path1264" /><path
       style="fill:none;stroke:#ffffff;stroke-width:5.5"
       d="m 2473.9975,10182.888 c -9.5571,9.031 -6.6977,25.996 -15.3076,35.528"
       id="path1266" /><path
       style="fill:none;stroke:#ffffff;stroke-width:5.5"
       d="m 2441.863,10193.504 c 8.6895,-6.502 14.0294,5.748 21.3841,4.73"
       id="path1268" /><path
       style="fill:none;stroke:#ffffff;stroke-width:5.5"
       d="m 2475.5167,10114.669 c 3.7782,-0.841 7.8723,-4.253 11.3347,-2.523 4.5341,2.266 6.391,7.969 8.6472,12.508 15.3597,30.901 18.7787,68.349 10.1662,101.646 -1.7543,6.782 -7.5047,28.362 -13.6718,29.642"
       id="path1270" /><path
       style="fill:none;stroke:#ffffff;stroke-width:5.5"
       d="m 912.13885,10570.758 c 0.27265,3.889 1.558,7.84 0.81796,11.668 -2.29672,11.879 -20.72574,45.665 -25.00656,54.659 -1.70982,3.593 -5.46426,6.873 -5.02468,10.827 0.24212,2.178 4.09916,-1.561 6.19321,-2.207 9.59487,-2.963 18.62113,-5.018 28.86273,-5.677 13.41414,-0.861 26.87251,-0.946 40.31433,-0.946 7.97843,0 21.89056,3.218 30.73238,1.892 2.65068,-0.397 -1.63332,-5.294 -10.04938,-16.608 -11.31869,-15.215 -35.50536,-50.078 -54.92099,-54.659 -2.4788,-0.585 1.96522,4.794 3.62244,6.727"
       id="path1272" /><path
       style="fill:none;stroke:#ffffff;stroke-width:5.5"
       d="m 1047.8053,10622.895 c -2.794,12.952 -4.5301,44.292 -15.6583,53.713 -3.1537,2.67 -7.5411,-4.065 -8.1797,-4.73"
       id="path1274" /><path
       style="fill:none;stroke:#ffffff;stroke-width:5.5"
       d="m 1005.9719,10624.892 c 12.7741,5.633 23.1919,14.502 33.1863,23.966"
       id="path1276" /><path
       style="fill:none;stroke:#ffffff;stroke-width:5.5"
       d="m 1150.1686,10555.412 c -4.2456,1.576 -9.1063,2.022 -12.7369,4.73 -17.7265,13.219 -22.6571,41.758 -14.0224,61.071 4.3729,9.781 26.7764,26.863 21.1504,21.128"
       id="path1278" /><path
       style="fill:none;stroke:#ffffff;stroke-width:5.5"
       d="m 1105.297,10619.426 c 18.2391,-6.814 37.7889,-4.721 56.5569,-7.989"
       id="path1280" /><path
       style="fill:none;stroke:#ffffff;stroke-width:5.5"
       d="m 1216.1907,10542.167 c -6.4968,-1.424 4.6547,-10.102 1.9864,-13.98 -2.6682,-3.877 -0.4458,9.533 -1.9864,13.98 -10.8962,31.456 -12.9257,-1.693 -12.1528,41.415 0.6286,35.057 16.9815,64.548 49.4289,78.1"
       id="path1282" /><path
       style="fill:none;stroke:#ffffff;stroke-width:5.5"
       d="m 1297.053,10571.809 c -8.5784,12.744 -13.456,27.008 -18.2291,41.415 -0.7294,2.202 -1.9664,8.194 -3.155,6.202 -2.0066,-3.362 -3.0382,-7.218 -4.5573,-10.827"
       id="path1284" /><path
       style="fill:none;stroke:#ffffff;stroke-width:5.5"
       d="m 1256.9724,10573.386 c 16.8273,12.781 49.4717,18.241 57.7254,39.943"
       id="path1286" /><path
       style="fill:none;stroke:#ffffff;stroke-width:5.5"
       d="m 1368.0997,10601.557 c -4.1599,12.149 -4.9652,26.68 -1.8696,37"
       id="path1288" /><path
       style="fill:none;stroke:#ffffff;stroke-width:5.5"
       d="m 1395.0928,10557.934 c 7.5502,1.827 -1.1394,-11.208 2.9213,-13.034 4.0607,-1.826 -3.1238,8.587 -2.9213,13.034 0.3694,8.114 11.2645,35.202 0.5842,45.62 -1.5925,1.553 -4.4404,0.28 -6.6606,0.42"
       id="path1290" /><path
       style="fill:none;stroke:#ffffff;stroke-width:5.5"
       d="m 1368.5671,10570.022 c 12.267,1.502 24.9357,5.937 33.3032,15.137"
       id="path1292" /><path
       style="fill:none;stroke:#ffffff;stroke-width:5.5"
       d="m 1414.4904,10489.61 c 28.2995,28.507 46.9215,67.133 35.9908,108.057 -4.4092,16.508 -13.7428,32.627 -29.4471,40.049"
       id="path1294" /><path
       style="fill:none;stroke:#ffffff;stroke-width:5.5"
       d="m 1513.6987,10546.162 c 6.2654,-2.011 34.2815,-11.387 41.5997,-12.299 0.9925,-0.123 -0.3895,1.962 -0.5843,2.943"
       id="path1296" /><path
       style="fill:none;stroke:#ffffff;stroke-width:5.5"
       d="m 1513.6987,10568.025 c 21.9112,7.428 44.1925,-3.698 66.3725,-5.361"
       id="path1298" /><path
       style="fill:none;stroke:#ffffff;stroke-width:5.5"
       d="m 1687.4593,10482.463 c -3.194,-0.841 -6.6929,-4.124 -9.582,-2.523 -16.5416,9.164 -16.5207,43.77 -10.5168,58.969 6.228,15.766 16.0431,19.285 27.9279,30.798"
       id="path1300" /><path
       style="fill:none;stroke:#ffffff;stroke-width:5.5"
       d="m 1649.7157,10556.568 c 16.2515,-11.311 29.6923,-15.294 48.3772,-15.767"
       id="path1302" /><path
       style="fill:none;stroke:#ffffff;stroke-width:5.5"
       d="m 1769.9576,10440.627 c -2.6098,4.31 -6.4077,8.096 -7.8292,12.929 -2.2005,7.483 -2.7727,15.431 -2.8044,23.23 -0.1814,44.533 13.1445,82.853 51.0648,107.427"
       id="path1304" /><path
       style="fill:none;stroke:#ffffff;stroke-width:5.5"
       d="m 1847.7817,10483.934 c -11.0991,14.772 -18.6897,31.224 -25.4739,48.248 -1.2186,3.057 -2.9865,12.179 -3.973,9.039 -0.5701,-1.814 -0.3896,-3.784 -0.5844,-5.676"
       id="path1306" /><path
       style="fill:none;stroke:#ffffff;stroke-width:5.5"
       d="m 1803.9618,10496.863 c 15.2425,2.528 46.0401,10.465 55.3884,23.546"
       id="path1308" /><path
       style="fill:none;stroke:#ffffff;stroke-width:5.5"
       d="m 1885.9926,10521.46 c 7.1627,-3.961 -2.3967,52.936 1.5191,44.883"
       id="path1310" /><path
       style="fill:none;stroke:#ffffff;stroke-width:5.5"
       d="m 1943.2507,10471.005 c -12.3732,1.346 -2.8437,47.547 -14.8403,46.566"
       id="path1312" /><path
       style="fill:none;stroke:#ffffff;stroke-width:5.5"
       d="m 1907.4937,10492.133 c 12.6192,-2.117 23.2445,2.851 35.1728,4.52"
       id="path1314" /><path
       style="fill:none;stroke:#ffffff;stroke-width:5.5"
       d="m 1967.7899,10468.903 c 2.9037,7.537 22.7507,31.024 6.7775,36.474 6.195,-23.038 8.735,-14.607 19.047,-24.596"
       id="path1316" /><path
       style="fill:none;stroke:#ffffff;stroke-width:5.5"
       d="m 2001.4435,10455.553 c 8.5006,12.845 15.767,26.473 22.7865,40.154"
       id="path1318" /><path
       style="fill:none;stroke:#ffffff;stroke-width:5.5"
       d="m 2018.8548,10410.249 c 1.0127,-4.134 7.1726,-11.391 3.0381,-12.403 -4.1345,-1.013 -5.3551,8.832 -3.0381,12.403 4.5771,7.055 15.5216,7.883 20.566,14.611 14.715,19.627 16.9398,60.169 12.8539,83.25 -0.4219,2.383 -5.031,32.279 -15.191,29.537"
       id="path1320" /><path
       style="fill:none;stroke:#ffffff;stroke-width:5.5"
       d="m 2111.1687,10467.011 c 6.9281,1.293 56.7905,-16.554 56.7905,-8.409"
       id="path1322" /><path
       style="fill:none;stroke:#ffffff;stroke-width:5.5"
       d="m 2251.6261,10409.093 c 0.013,-0.257 3.1957,-12.147 -2.8045,-11.983 -8.0339,0.219 -14.8126,8.013 -18.8134,13.56 -22.1825,30.757 -4.8553,52.546 19.6313,72.213"
       id="path1324" /><path
       style="fill:none;stroke:#ffffff;stroke-width:5.5"
       d="m 2220.8938,10473.318 c -47.1494,-5.195 20.7382,-16.307 30.148,-18.395"
       id="path1326" /><path
       style="fill:none;stroke:#ffffff;stroke-width:5.5"
       d="m 2312.974,10374.3 c -4.6741,3.329 -10.8039,5.235 -14.0224,9.986 -4.1875,6.181 -6.6357,13.784 -7.128,21.233 -2.9554,44.726 11.2453,60.238 50.9479,70.952"
       id="path1328" /><path
       style="fill:none;stroke:#ffffff;stroke-width:5.5"
       d="m 2377.7106,10403.417 c -12.2825,10.869 -19.3899,25.28 -25.8246,40.048 -2.7927,6.41 -3.6315,13.792 -7.5953,19.552 -1.5501,2.252 0.082,-5.47 0.2337,-8.199"
       id="path1330" /><path
       style="fill:none;stroke:#ffffff;stroke-width:5.5"
       d="m 2330.7356,10409.724 c -0.3863,21.227 38.3497,18.343 41.7166,35.003"
       id="path1332" /><path
       style="fill:none;stroke:#ffffff;stroke-width:5.5"
       d="m 2415.6879,10435.161 c 3.3072,12.658 1.9247,23.398 -0.8181,35.529"
       id="path1334" /><path
       style="fill:none;stroke:#ffffff;stroke-width:5.5"
       d="m 2472.0111,10385.863 c -2.0917,10.388 -7.8471,53.259 -18.6965,54.344"
       id="path1336" /><path
       style="fill:none;stroke:#ffffff;stroke-width:5.5"
       d="m 2436.1372,10398.476 c -20.2052,-32.567 -0.6602,-0.529 0,0 31.4297,25.212 2.3368,-4.017 29.2133,18.501"
       id="path1338" /><path
       style="fill:none;stroke:#ffffff;stroke-width:5.5"
       d="m 2458.1055,10344.133 c 6.3914,9.125 -4.2232,-27.266 3.6225,-24.597 10.4548,3.557 26.114,31.706 29.4469,38.472 19.0762,38.721 37.5447,105.732 -4.5572,137.173"
       id="path1340" /><path
       style="fill:none;stroke:#ffffff;stroke-width:5.5"
       d="m 935.62634,10785.506 c 10.59098,2.881 21.78483,3.371 32.71885,3.259 0.63645,0 18.70411,0.816 18.93019,-3.049 0.72388,-12.371 -32.96724,-22.219 -42.18395,-15.241 -7.72178,5.845 -15.97937,30.53 -15.30776,38.051 0.52036,5.827 5.14131,10.744 9.2314,14.926 18.14374,18.555 53.17619,12.717 71.98153,-0.946"
       id="path1342" /><path
       style="fill:none;stroke:#ffffff;stroke-width:5.5"
       d="m 1049.2075,10753.657 c -25.6911,20.715 -16.4594,68.403 21.2673,56.656"
       id="path1344" /><path
       style="fill:none;stroke:#ffffff;stroke-width:5.5"
       d="m 1102.7263,10743.04 c -1.3902,1.306 18.3137,69.413 9.2314,62.333"
       id="path1346" /><path
       style="fill:none;stroke:#ffffff;stroke-width:5.5"
       d="m 1090.6904,10781.617 c 9.923,-1.882 40.4665,-8.643 44.2873,7.778"
       id="path1348" /><path
       style="fill:none;stroke:#ffffff;stroke-width:5.5"
       d="m 1159.6337,10812.836 c -1.558,-2.943 -1.7309,-10.388 -4.6741,-8.83 -2.9432,1.558 3.1161,5.887 4.6741,8.83 z"
       id="path1350" /></g></svg>
