<?xml version="1.0" encoding="UTF-8" standalone="no"?>
<!-- Created with Inkscape (http://www.inkscape.org/) -->

<svg
   width="1188.9199mm"
   height="574.56439mm"
   viewBox="0 0 1188.9199 574.5644"
   version="1.1"
   id="svg12"
   inkscape:version="1.2.1 (9c6d41e410, 2022-07-14, custom)"
   sodipodi:docname="multiplication_property_of_difference.svg"
   xml:space="preserve"
   xmlns:inkscape="http://www.inkscape.org/namespaces/inkscape"
   xmlns:sodipodi="http://sodipodi.sourceforge.net/DTD/sodipodi-0.dtd"
   xmlns="http://www.w3.org/2000/svg"
   xmlns:svg="http://www.w3.org/2000/svg"><sodipodi:namedview
     id="namedview14"
     pagecolor="#505050"
     bordercolor="#eeeeee"
     borderopacity="1"
     inkscape:showpageshadow="0"
     inkscape:pageopacity="0"
     inkscape:pagecheckerboard="0"
     inkscape:deskcolor="#505050"
     inkscape:document-units="mm"
     showgrid="true"
     inkscape:zoom="0.12176488"
     inkscape:cx="2184.5379"
     inkscape:cy="1642.5097"
     inkscape:window-width="1366"
     inkscape:window-height="746"
     inkscape:window-x="0"
     inkscape:window-y="0"
     inkscape:window-maximized="1"
     inkscape:current-layer="layer1"
     inkscape:lockguides="false"><inkscape:grid
       type="xygrid"
       id="grid344"
       color="#969696"
       opacity="0.39215686"
       empcolor="#000000"
       empopacity="0.17254902"
       dotted="false"
       originx="-118.50291"
       originy="-10123.143" /></sodipodi:namedview><defs
     id="defs9" /><g
     inkscape:label="Layer 1"
     inkscape:groupmode="layer"
     id="layer1"
     transform="translate(-223.50294,-10271.642)"><path
       style="fill:none;stroke:#ffffff;stroke-width:5.5"
       d="m 806.09374,10295.177 c 12.72114,11.157 -26.61846,59.48 -25.35716,62.543 1.02108,2.48 61.4359,3.304 65.43775,0.841 1.59893,-0.984 -8.49656,-22.273 -10.51676,-26.068 -8.68378,-16.314 -15.61015,-25.07 -29.56383,-37.316 z"
       id="path1531" /><path
       style="fill:none;stroke:#ffffff;stroke-width:5.5"
       d="m 883.91786,10320.405 c -1.36951,5.576 -8.94175,13.897 -6.8943,20.497 2.65062,8.544 17.3087,4.625 23.25375,3.889 0.0579,0 7.28917,-1.18 6.54378,0.105 -7.16243,12.349 -36.66341,11.393 -36.45815,-5.781 0.0763,-6.386 9.43943,-19.621 13.55492,-18.71 5.12585,1.134 -5.50394,9.698 -5.02462,14.926 0.26776,2.92 4.18973,4.332 6.8943,5.466 1.11154,0.466 26.34623,1.682 17.76166,1.682"
       id="path1533" /><path
       style="fill:none;stroke:#ffffff;stroke-width:5.5"
       d="m 953.67922,10287.925 c -4.12882,2.242 -9.35566,3.137 -12.38644,6.727 -12.46103,14.761 -1.16094,41.519 5.02465,55.921 2.40967,5.61 8.61785,16.508 6.66068,18.394 -1.19042,1.148 -2.67076,-1.996 -3.73933,-3.258"
       id="path1535" /><path
       style="fill:none;stroke:#ffffff;stroke-width:5.5"
       d="m 923.88164,10336.908 c 13.28653,-3.512 24.71999,-3.983 37.50984,0"
       id="path1537" /><path
       style="fill:none;stroke:#ffffff;stroke-width:5.5"
       d="m 1016.663,10295.913 c -35.76048,6.337 -25.66684,68.176 -5.9595,52.137"
       id="path1539" /><path
       style="fill:none;stroke:#ffffff;stroke-width:5.5"
       d="m 1036.1775,10308.422 c -0.9641,3.681 -7.3779,28.73 -9.3483,34.477 -1.251,3.649 -2.8577,11.714 -6.1931,9.776 -1.6717,-0.971 -2.0255,-3.294 -3.0383,-4.941"
       id="path1541" /><path
       style="fill:none;stroke:#ffffff;stroke-width:5.5"
       d="m 1011.6383,10320.615 c 24.6929,16.48 10.2937,6.924 29.447,19.551 5.1726,3.41 7.2832,4.908 7.3618,4.625 0.6138,-2.208 -3.1461,-3.344 -4.5573,-5.15"
       id="path1543" /><path
       style="fill:none;stroke:#ffffff;stroke-width:5.5"
       d="m 1037.1123,10273.839 c 26.6937,20.102 41.4713,51.721 35.6402,85.353 -0.2905,1.675 -3.6219,13.525 -8.764,11.983"
       id="path1545" /><path
       style="fill:none;stroke:#ffffff;stroke-width:5.5"
       d="m 1140.418,10323.589 c 10.1851,-1.581 60.2787,-5.943 41.4828,-3.468"
       id="path1547" /><path
       style="fill:none;stroke:#ffffff;stroke-width:5.5"
       d="m 1138.6651,10343.246 c 20.8686,5.365 52.9649,-14.061 72.0984,-5.046"
       id="path1549" /><path
       style="fill:none;stroke:#ffffff;stroke-width:5.5"
       d="m 715.08457,10478.846 c -7.5283,2.622 -26.37052,18.628 -13.67182,26.804 4.67209,3.008 17.46565,5.147 21.1504,5.781 3.47953,0.599 7.04183,0.637 10.51676,1.262 0.47231,0.09 1.58528,0.603 1.16856,0.841 -6.44956,3.683 -32.57921,9.406 -31.19975,-5.361 0.0857,-0.918 15.00788,-31.249 12.03585,-29.327 -31.40279,20.303 3.39841,41.556 24.07176,39.733"
       id="path1553" /><path
       style="fill:none;stroke:#ffffff;stroke-width:5.5"
       d="m 795.36264,10451.201 c -4.32358,0.04 -8.92029,-1.408 -12.97072,0.105 -9.66351,3.609 -14.52809,22.566 -14.48977,31.114 0.0536,11.961 5.58199,21.631 13.20445,30.273 3.81905,4.329 5.31405,4.76 4.55721,4.73 -1.31442,-0.05 -2.49283,-0.841 -3.73925,-1.261"
       id="path1555" /><path
       style="fill:none;stroke:#ffffff;stroke-width:5.5"
       d="m 753.76294,10496.821 c 9.10807,-4.057 40.24956,-10.046 45.68955,1.576"
       id="path1557" /><path
       style="fill:none;stroke:#ffffff;stroke-width:5.5"
       d="m 856.12629,10453.724 c -4.7131,3.364 -9.97582,6.067 -14.13928,10.091 -20.25883,19.58 -7.66768,66.437 11.68532,57.497"
       id="path1559" /><path
       style="fill:none;stroke:#ffffff;stroke-width:5.5"
       d="m 874.70592,10477.164 c 1.8307,-3.013 8.5054,-7.209 5.49211,-9.04 -3.01326,-1.83 -4.95736,5.555 -5.49211,9.04 -1.42957,9.317 0.81634,18.909 -0.23371,28.276 -0.55327,4.935 -4.04191,14.082 -8.53027,8.619"
       id="path1561" /><path
       style="fill:none;stroke:#ffffff;stroke-width:5.5"
       d="m 860.68355,10485.784 c 7.58603,-3.627 28.40832,31.775 32.36831,30.588 1.22452,-0.367 1.09064,-2.313 1.63597,-3.469"
       id="path1563" /><path
       style="fill:none;stroke:#ffffff;stroke-width:5.5"
       d="m 899.71245,10478.215 c 6.10468,6.641 18.31205,35.147 7.01122,39.839"
       id="path1565" /><path
       style="fill:none;stroke:#ffffff;stroke-width:5.5"
       d="m 895.03835,10503.968 c 8.59237,-10.042 21.17601,-4.94 30.26495,-13.349"
       id="path1567" /><path
       style="fill:none;stroke:#ffffff;stroke-width:5.5"
       d="m 929.3932,10468.65 c 10.89914,4.247 22.58253,55.184 20.21554,38.577"
       id="path1569" /><path
       style="fill:none;stroke:#ffffff;stroke-width:5.5"
       d="m 945.75257,10428.181 c 5.80372,8.409 12.14634,16.471 17.41115,25.227 5.3962,8.976 15.82396,30.737 18.11226,41.941 2.77424,13.583 6.38424,46.527 -9.93256,55.921 -1.57856,0.908 -3.19397,-1.752 -4.79097,-2.628"
       id="path1571" /><path
       style="fill:none;stroke:#ffffff;stroke-width:5.5"
       d="m 1006.3994,10487.255 c 5.1181,-0.199 27.1758,-15.002 31.4335,-8.619"
       id="path1573" /><path
       style="fill:none;stroke:#ffffff;stroke-width:5.5"
       d="m 1119.2795,10467.073 c -9.8515,-1.564 -40.6389,27.543 -26.4088,35.949 6.7989,4.017 17.5336,3.756 24.8897,2.733 8.594,-1.195 20.7463,-4.52 14.7235,-4.52"
       id="path1577" /><path
       style="fill:none;stroke:#ffffff;stroke-width:5.5"
       d="m 1183.6656,10449.204 c -16.9285,5.349 -21.484,18.965 -16.5932,35.318 1.7156,5.737 15.4901,21.655 9.9325,20.603"
       id="path1579" /><path
       style="fill:none;stroke:#ffffff;stroke-width:5.5"
       d="m 1153.9848,10495.664 c 11.6033,-7.119 19.813,-11.304 33.4201,-10.721"
       id="path1581" /><path
       style="fill:none;stroke:#ffffff;stroke-width:5.5"
       d="m 1222.9282,10442.477 c -14.6913,11.018 -23.2457,70.831 7.0112,61.281"
       id="path1583" /><path
       style="fill:none;stroke:#ffffff;stroke-width:5.5"
       d="m 1249.6875,10458.874 c 3.0553,0.486 -1.9717,47.935 -13.7886,36.055"
       id="path1585" /><path
       style="fill:none;stroke:#ffffff;stroke-width:5.5"
       d="m 1230.8742,10478.32 c -0.9348,-3.083 0.2789,-10.184 -2.8044,-9.25 -3.0834,0.935 0.2255,7.319 2.8044,9.25 6.0254,4.513 14.1311,5.256 20.9167,8.515 3.9841,1.913 7.5705,7.889 5.3752,0.21"
       id="path1587" /><path
       style="fill:none;stroke:#ffffff;stroke-width:5.5"
       d="m 1246.6494,10417.775 c 5.3363,3.153 12.1741,4.59 16.0088,9.46 18.7678,23.834 11.1686,79.014 -7.2448,101.54"
       id="path1589" /><path
       style="fill:none;stroke:#ffffff;stroke-width:5.5"
       d="m 1341.1111,10455.636 c 0.8111,2.627 43.9677,-8.696 21.7348,0"
       id="path1591" /><path
       style="fill:none;stroke:#ffffff;stroke-width:5.5"
       d="m 1330.8282,10477.815 c 15.4303,2.063 29.4478,-5.249 44.6379,-6.202"
       id="path1593" /><path
       style="fill:none;stroke:#ffffff;stroke-width:5.5"
       d="m 226.20532,10507.695 c 1.12959,5.991 2.02589,12.032 3.38877,17.974 0.93779,4.09 2.3395,8.058 3.50557,12.089 1.50186,5.19 4.03736,10.178 4.55727,15.556 0.0418,0.433 -4.22832,-1.407 -7.4786,-12.823 -3.16346,-11.112 0.16354,-22.116 13.32127,-13.77 29.38386,18.637 10.25344,51.72 1.40222,32.9"
       id="path1601" /><path
       style="fill:none;stroke:#ffffff;stroke-width:5.5"
       d="m 278.78925,10516.209 c 8.26867,2.465 8.19098,35.587 -1.40226,32.585"
       id="path1603" /><path
       style="fill:none;stroke:#ffffff;stroke-width:5.5"
       d="m 256.58715,10529.243 c 6.20749,4.795 16.05145,4.736 23.02006,8.725"
       id="path1605" /><path
       style="fill:none;stroke:#ffffff;stroke-width:5.5"
       d="m 318.40243,10507.485 c 12.73917,0.472 47.39157,38.819 19.74817,44.148 -8.04254,1.55 -22.85521,-5.735 -21.15039,-15.662 2.73407,-15.922 28.19245,-6.691 35.99076,-13.56 0.5052,-0.445 6.53034,-8.599 1.40223,-8.83 -7.0203,-0.315 -17.0061,28.023 8.76396,23.756 5.17387,-0.857 9.40975,-5.309 13.08755,-8.724"
       id="path1607" /><path
       style="fill:none;stroke:#ffffff;stroke-width:5.5"
       d="m 385.8267,10508.115 c -9.24609,8.274 -12.40898,13.496 -8.2966,25.123 2.79773,7.909 8.25415,9.185 5.9595,9.775 -0.65212,0.168 -5.02673,-0.37 -5.49207,-0.42 0.1253,-9.858 4.96941,-21.152 13.67183,-12.088"
       id="path1609" /><path
       style="fill:none;stroke:#ffffff;stroke-width:5.5"
       d="m 431.04886,10535.235 c -18.91052,2.51 -11.17653,-32.929 2.92129,-25.017 4.14969,2.328 14.91308,17.686 8.53028,22.599 -3.09144,2.38 -7.63438,1.612 -11.45157,2.418 z"
       id="path1611" /><path
       style="fill:none;stroke:#ffffff;stroke-width:5.5"
       d="m 464.00142,10499.391 c -9.56982,21.621 -11.33952,23.856 4.79096,38.367"
       id="path1613" /><path
       style="fill:none;stroke:#ffffff;stroke-width:5.5"
       d="m 444.25325,10529.874 c 12.59185,-8.806 21.45211,-12.153 35.4065,-8.409"
       id="path1615" /><path
       style="fill:none;stroke:#ffffff;stroke-width:5.5"
       d="m 549.42103,10494.24 c -1.16853,5.046 -1.58498,10.327 -3.50557,15.137 -2.98479,7.475 -7.12576,14.444 -11.10104,21.443 -6.17091,10.864 -9.33252,11.453 -8.76395,11.563 1.51704,0.292 50.29694,-2.73 52.11646,-3.049 1.05256,-0.184 2.18381,-1.244 2.22017,-2.312 0.57316,-16.841 -19.9608,-32.98 -30.96607,-42.782 z"
       id="path1617" /><path
       style="fill:none;stroke:#ffffff;stroke-width:5.5"
       d="m 756.71847,10636.985 c -3.70591,-0.05 -26.13067,14.937 -18.34594,22.915 8.00618,8.205 19.43727,4.45 28.51219,1.367 3.73626,-1.27 5.1916,-2.192 8.1797,-4.31 0.28088,-0.199 0.92217,-0.959 0.81796,-0.631 -1.36854,4.309 -0.71755,9.857 -5.95953,11.878 -12.24981,4.723 -24.06155,-1.061 -30.14811,-12.509 -4.93633,-9.284 21.96605,-30.475 16.94373,-18.71 -3.15846,7.399 -13.0489,9.954 -17.41109,16.713 -8.32916,12.907 25.28504,23.186 33.77052,19.972"
       id="path1633" /><path
       style="fill:none;stroke:#ffffff;stroke-width:5.5"
       d="m 835.36063,10584.113 c 1.32432,-3.013 6.98624,-7.716 3.97301,-9.04 -3.01326,-1.324 -1.75046,6.612 -3.97301,9.04 -19.46188,21.258 -15.55525,1.473 -23.83803,33.321 -12.11451,46.581 7.43497,67.341 40.66484,94.603"
       id="path1635" /><path
       style="fill:none;stroke:#ffffff;stroke-width:5.5"
       d="m 902.0837,10626.789 c -22.95173,5.164 -24.0266,30.796 -18.8133,49.929 1.01005,3.707 5.02269,10.393 5.49206,14.611 0.18767,1.686 -2.09989,-2.665 -3.15497,-3.994"
       id="path1637" /><path
       style="fill:none;stroke:#ffffff;stroke-width:5.5"
       d="m 864.57394,10671.568 c 13.50645,-2.652 27.35804,-1.465 40.89857,-3.679"
       id="path1639" /><path
       style="fill:none;stroke:#ffffff;stroke-width:5.5"
       d="m 949.40922,10622.9 c -2.96026,2.172 -6.73613,3.537 -8.88074,6.517 -9.71235,13.497 -16.47558,29.47 -8.29667,45.199 0.38018,0.731 13.25927,18.376 15.89201,13.244"
       id="path1641" /><path
       style="fill:none;stroke:#ffffff;stroke-width:5.5"
       d="m 980.8427,10647.181 c -1.07971,5.264 -7.66837,55.085 -16.35937,30.588"
       id="path1643" /><path
       style="fill:none;stroke:#ffffff;stroke-width:5.5"
       d="m 958.87442,10652.857 c 9.11784,-3.231 23.9254,22.714 33.53676,25.543 1.69037,0.498 3.49298,-2.97 3.97301,-3.679"
       id="path1645" /><path
       style="fill:none;stroke:#ffffff;stroke-width:5.5"
       d="m 1003.746,10640.98 c -0.9152,6.285 21.7357,49.719 4.7909,36.579 -7.6724,-34.984 8.1631,-10.226 17.1775,-25.542"
       id="path1647" /><path
       style="fill:none;stroke:#ffffff;stroke-width:5.5"
       d="m 1033.3098,10629.732 c 8.2088,14.855 9.572,15.364 14.1392,28.802 0.8284,2.437 0.01,9.107 1.9866,7.463 1.2859,-1.068 1.1155,-4.449 1.1684,-5.782"
       id="path1649" /><path
       style="fill:none;stroke:#ffffff;stroke-width:5.5"
       d="m 1050.1366,10591.261 c 20.2526,26.679 31.3922,57.444 24.1887,90.923 -0.7495,3.484 -5.965,18.007 -11.1011,20.602 -1.4753,0.746 -2.9603,-1.471 -4.4404,-2.207"
       id="path1651" /><path
       style="fill:none;stroke:#ffffff;stroke-width:5.5"
       d="m 1105.1745,10643.923 c -9.084,-0.757 45.9623,-12.05 37.393,-2.628"
       id="path1653" /><path
       style="fill:none;stroke:#ffffff;stroke-width:5.5"
       d="m 1203.4479,10604.19 c -15.5655,2.657 -21.6742,14.99 -17.0605,29.747 2.2746,7.275 5.4278,10.261 9.6987,16.082 1.0844,1.478 4.5516,4.176 2.8045,4.73 -2.5188,0.8 -4.9891,-1.779 -7.3617,-2.943"
       id="path1655" /><path
       style="fill:none;stroke:#ffffff;stroke-width:5.5"
       d="m 1175.1694,10647.707 c -2.9602,-0.596 -8.2851,-4.747 -8.8807,-1.787 -0.5957,2.96 5.9028,2.287 8.8807,1.787 9.0416,-1.518 25.6403,-6.626 35.5234,-11.773"
       id="path1657" /><path
       style="fill:none;stroke:#ffffff;stroke-width:5.5"
       d="m 1238.3871,10610.076 c -25.9032,1.99 -7.5951,48.191 9.3482,33.847"
       id="path1659" /><path
       style="fill:none;stroke:#ffffff;stroke-width:5.5"
       d="m 1266.1981,10612.809 c 4.023,6.021 -0.2647,42.67 -7.946,40.679 -1.6903,-0.438 -2.415,-2.523 -3.6225,-3.784"
       id="path1661" /><path
       style="fill:none;stroke:#ffffff;stroke-width:5.5"
       d="m 1250.0723,10626.999 c 22.5406,7.015 16.4912,2.827 30.265,12.614 1.7943,1.275 3.5271,2.635 5.2584,3.994 0.4121,0.324 1.5408,1.42 1.1684,1.051 -5.5932,-5.534 -2.1537,-1.313 -7.5953,-9.565"
       id="path1663" /><path
       style="fill:none;stroke:#ffffff;stroke-width:5.5"
       d="m 1270.2879,10586.846 c 17.233,12.531 22.9219,32.064 26.7593,52.557 0.7741,4.134 -1.3643,20.383 -7.7123,11.247"
       id="path1665" /><path
       style="fill:none;stroke:#ffffff;stroke-width:5.5"
       d="m 1298.2158,10567.084 c 3.7783,1.927 8.9106,2.301 11.3348,5.782 16.4207,23.575 7.8125,73.4 -12.0359,94.602"
       id="path1667" /><path
       style="fill:none;stroke:#ffffff;stroke-width:5.5"
       d="m 1371.5995,10594.309 c -3.2727,-14.028 53.3122,-8.556 30.3818,1.997"
       id="path1669" /><path
       style="fill:none;stroke:#ffffff;stroke-width:5.5"
       d="m 1373.5861,10610.602 c 12.7638,1.315 25.6281,-3.07 37.8603,1.576"
       id="path1671" /><path
       style="fill:none;stroke:#ffffff;stroke-width:5.5"
       d="m 794.34516,10769.324 c -14.88723,11.639 -36.0721,27.642 -34.23796,49.824 1.12938,13.658 34.42303,8.414 40.78171,7.778 2.94198,-0.294 5.84743,-0.882 8.76403,-1.366 0.66768,-0.111 2.66335,-0.421 1.98652,-0.421 -0.94527,0 -1.86965,0.281 -2.80447,0.421"
       id="path1673" /><path
       style="fill:none;stroke:#ffffff;stroke-width:5.5"
       d="m 882.80304,10769.744 c -6.84554,23.371 -19.8016,44.45 -33.30324,64.54 -1.6942,2.521 -3.55317,4.928 -5.37522,7.358 -0.43783,0.584 -2.05748,2.003 -1.40224,1.682 18.08284,-8.873 31.14895,-17.776 52.35022,-17.449 4.99642,0.08 10.93481,1.142 15.19097,4.205 1.08104,0.778 3.25234,4.219 2.4538,3.153 -7.97557,-10.646 -11.66593,-23.634 -17.99529,-35.213 -3.06046,-5.599 -7.57089,-10.413 -10.0494,-16.293 -1.5703,-3.725 -1.2464,-7.989 -1.8696,-11.983 z"
       id="path1675" /><path
       style="fill:none;stroke:#ffffff;stroke-width:5.5"
       d="m 980.37534,10771.216 c -14.0262,-2.183 -23.33466,8.753 -25.00657,22.915 -1.96294,16.627 2.58871,26.843 10.28311,40.153 0.62707,1.085 -1.81144,-1.732 -2.68763,-2.628"
       id="path1677" /><path
       style="fill:none;stroke:#ffffff;stroke-width:5.5"
       d="m 944.03397,10821.355 c 9.8815,-5.936 21.98243,-5.896 33.1864,-6.202"
       id="path1679" /><path
       style="fill:none;stroke:#ffffff;stroke-width:5.5"
       d="m 1027.8177,10757.025 c -4.5183,6.412 -10.6726,11.941 -13.5549,19.236 -7.932,20.076 -7.91,40.536 7.3616,56.236 2.7302,2.807 15.3145,13.578 15.6584,3.679"
       id="path1681" /><path
       style="fill:none;stroke:#ffffff;stroke-width:5.5"
       d="m 1052.24,10783.514 c 6.4935,3.179 2.1218,47.733 -13.6719,38.262"
       id="path1683" /><path
       style="fill:none;stroke:#ffffff;stroke-width:5.5"
       d="m 1031.9075,10793.71 c 15.2102,2.307 24.8024,10.459 35.1728,20.813 1.4054,1.403 5.0072,6.153 3.6225,4.73 -1.0728,-1.103 -1.9475,-2.383 -2.9213,-3.574"
       id="path1685" /><path
       style="fill:none;stroke:#ffffff;stroke-width:5.5"
       d="m 1050.1366,10733.059 c 4.4404,4.24 9.5542,7.871 13.3213,12.719 12.4038,15.963 21.8513,39.043 21.7347,59.495 -0.087,15.224 -9.3526,45.63 -13.6719,35.528"
       id="path1687" /></g></svg>
