<?xml version="1.0" encoding="UTF-8" standalone="no"?>
<!-- Created with Inkscape (http://www.inkscape.org/) -->

<svg
   width="1217.0087mm"
   height="363.61865mm"
   viewBox="0 0 1217.0086 363.61866"
   version="1.1"
   id="svg12"
   inkscape:version="1.2.1 (9c6d41e410, 2022-07-14, custom)"
   sodipodi:docname="mx_difference.svg"
   xml:space="preserve"
   xmlns:inkscape="http://www.inkscape.org/namespaces/inkscape"
   xmlns:sodipodi="http://sodipodi.sourceforge.net/DTD/sodipodi-0.dtd"
   xmlns="http://www.w3.org/2000/svg"
   xmlns:svg="http://www.w3.org/2000/svg"><sodipodi:namedview
     id="namedview14"
     pagecolor="#505050"
     bordercolor="#eeeeee"
     borderopacity="1"
     inkscape:showpageshadow="0"
     inkscape:pageopacity="0"
     inkscape:pagecheckerboard="0"
     inkscape:deskcolor="#505050"
     inkscape:document-units="mm"
     showgrid="true"
     inkscape:zoom="0.12176488"
     inkscape:cx="3391.7826"
     inkscape:cy="1527.534"
     inkscape:window-width="1366"
     inkscape:window-height="746"
     inkscape:window-x="0"
     inkscape:window-y="0"
     inkscape:window-maximized="1"
     inkscape:current-layer="layer1"
     inkscape:lockguides="false"><inkscape:grid
       type="xygrid"
       id="grid344"
       color="#969696"
       opacity="0.39215686"
       empcolor="#000000"
       empopacity="0.17254902"
       dotted="false"
       originx="-963.37803"
       originy="-10056.723" /></sodipodi:namedview><defs
     id="defs9" /><g
     inkscape:label="Layer 1"
     inkscape:groupmode="layer"
     id="layer1"
     transform="translate(-1068.3781,-10205.222)"><path
       style="fill:none;stroke:#ffffff;stroke-width:1.5"
       d="m 1194.4816,10232.508 c -3.4667,-0.946 -6.815,-2.592 -10.4,-2.838 -18.2788,-1.256 -33.8378,22.645 -33.1863,38.051 0.4011,9.484 3.5897,16.71 9.6988,23.756 1.3902,1.603 13.5235,10.623 6.6607,10.931"
       id="path1428" /><path
       style="fill:none;stroke:#ffffff;stroke-width:1.5"
       d="m 1137.9247,10275.079 c 20.1791,6.29 44.6125,-6.846 62.8669,-2.102"
       id="path1430" /><path
       style="fill:none;stroke:#ffffff;stroke-width:1.5"
       d="m 1258.2833,10218.422 c -3.3108,1.682 -7.4472,2.287 -9.9324,5.046 -18.5749,20.623 -31.8335,79.002 -15.3079,103.327 11.842,17.431 16.2294,7.215 19.2808,-3.048"
       id="path1432" /><path
       style="fill:none;stroke:#ffffff;stroke-width:1.5"
       d="m 1297.7797,10252.374 c -0.1948,3.154 0.3387,6.439 -0.5843,9.46 -0.9225,3.02 -16.1196,36.601 -17.7616,35.739 -2.1102,-1.107 -2.9156,-8.483 -3.1551,-9.775"
       id="path1434" /><path
       style="fill:none;stroke:#ffffff;stroke-width:1.5"
       d="m 1278.6158,10249.536 c 19.3706,15.619 25.3637,41.954 40.7817,61.176 0.826,1.03 1.2117,-2.464 1.1686,-3.784"
       id="path1436" /><path
       style="fill:none;stroke:#ffffff;stroke-width:1.5"
       d="m 1319.9818,10205.704 c 32.1147,38.345 49.7636,65.762 19.5145,113.943 -9.5564,15.221 -14.0904,12.41 -27.6943,12.298"
       id="path1438" /><path
       style="fill:none;stroke:#ffffff;stroke-width:1.5"
       d="m 1423.7473,10245.752 c 2.0193,-0.807 65.2035,2.123 42.6514,7.358"
       id="path1452" /><path
       style="fill:none;stroke:#ffffff;stroke-width:1.5"
       d="m 1421.4103,10270.874 c 21.0363,11.481 47.9358,-6.832 68.5928,3.574"
       id="path1454" /><path
       style="fill:none;stroke:#ffffff;stroke-width:1.5"
       d="m 1545.5083,10276.13 c 0.6232,-7.078 0.6196,-14.239 1.8697,-21.233 0.7983,-4.467 5.4052,-15.635 8.2965,-19.867 0.8737,-1.278 2.4656,-4.195 3.5056,-3.048 2.5401,2.802 3.6913,18.909 3.8561,21.548 0.4825,7.726 -0.8139,10.887 0.3506,9.776 8.4356,-8.048 12.2139,-38.46 27.3437,-37.21 6.9594,0.575 7.7601,32.712 10.283,34.477 0.8381,0.586 0.2337,-2.032 0.3506,-3.048"
       id="path1456" /><path
       style="fill:none;stroke:#ffffff;stroke-width:1.5"
       d="m 1655.7008,10221.786 c -4.3236,7.498 -8.6896,14.972 -12.9708,22.494 -2.0388,3.583 -23.3656,41.034 -23.4874,40.89 -1.0654,-1.261 -0.3711,-3.29 -0.3506,-4.941 0.057,-4.628 0.3895,-9.25 0.5843,-13.875"
       id="path1458" /><path
       style="fill:none;stroke:#ffffff;stroke-width:1.5"
       d="m 1619.3595,10212.01 c 12.5268,21.703 35.4534,77.54 53.9861,88.191"
       id="path1460" /><path
       style="fill:none;stroke:#ffffff;stroke-width:1.5"
       d="m 1069.4487,10455.77 c 3.3888,1.822 6.4383,4.514 10.1663,5.466 5.5473,1.416 68.1777,-0.381 46.7412,16.818"
       id="path1464" /><path
       style="fill:none;stroke:#ffffff;stroke-width:1.5"
       d="m 1068.5139,10491.929 c 14.9322,-2.749 52.1112,-14.078 61.8153,4.835"
       id="path1466" /><path
       style="fill:none;stroke:#ffffff;stroke-width:1.5"
       d="m 1144.7021,10426.758 c 27.5068,8.424 -8.8233,-3.066 26.4088,9.671 6.3919,2.31 42.7489,9.576 42.3009,21.128 -0.2928,7.547 -9.9296,15.232 -14.373,20.392 -16.0464,18.633 -34.4706,35.647 -53.8692,50.77 -7.3425,5.724 -15.1812,11.806 -15.8921,9.986 -1.0875,-2.784 6.83,-10.283 7.128,-10.617"
       id="path1468" /><path
       style="fill:none;stroke:#ffffff;stroke-width:1.5"
       d="m 1370.4623,10431.278 c -2.9213,-0.245 -6.0227,-1.775 -8.7639,-0.736 -17.7674,6.735 -36.4167,40.02 -35.1728,58.234 0.754,11.041 5.4087,19.212 11.2179,28.17 1.4562,2.246 14.4693,18.326 9.5819,11.878"
       id="path1470" /><path
       style="fill:none;stroke:#ffffff;stroke-width:1.5"
       d="m 1316.5931,10499.918 c 10.0289,-5.63 40.8926,-15.643 51.9996,-3.154"
       id="path1472" /><path
       style="fill:none;stroke:#ffffff;stroke-width:1.5"
       d="m 1438.8214,10444.102 c 1.5191,-3.013 7.5706,-7.521 4.5573,-9.04 -3.0133,-1.519 -1.8979,6.963 -4.5573,9.04 -7.1504,5.585 -16.9007,7.292 -23.838,13.139 -4.5432,3.83 -7.1207,9.624 -9.582,15.032 -9.6566,21.218 -3.9375,39.404 13.2044,53.818 5.3843,4.528 6.0146,4.479 10.6336,4.835"
       id="path1474" /><path
       style="fill:none;stroke:#ffffff;stroke-width:1.5"
       d="m 1482.1739,10466.912 c -0.9738,3.223 -1.7859,6.5 -2.9213,9.67 -0.5992,1.673 -19.1721,49.931 -21.8516,43.938 -1.4591,-3.264 -1.0127,-7.078 -1.5191,-10.617"
       id="path1476" /><path
       style="fill:none;stroke:#ffffff;stroke-width:1.5"
       d="m 1458.1021,10473.639 c 21.0547,15.454 27.6446,41.609 42.7683,61.492"
       id="path1478" /><path
       style="fill:none;stroke:#ffffff;stroke-width:1.5"
       d="m 1554.8566,10460.395 c -8.4856,12.427 -8.1904,26.807 -7.9461,41.204 0.086,5.084 0.4763,10.159 0.5843,15.242 0.01,0.428 0.1439,1.462 -0.2337,1.261 -1.0351,-0.55 -1.558,-1.752 -2.337,-2.627"
       id="path1480" /><path
       style="fill:none;stroke:#ffffff;stroke-width:1.5"
       d="m 1532.0702,10497.605 c 6.8936,-5.209 36.4172,4.648 41.366,0.105 1.2363,-1.135 0.9348,-3.223 1.4022,-4.835"
       id="path1482" /><path
       style="fill:none;stroke:#ffffff;stroke-width:1.5"
       d="m 1587.6923,10464.074 c 2.3547,17.087 3.1624,35.011 7.946,51.506"
       id="path1484" /><path
       style="fill:none;stroke:#ffffff;stroke-width:1.5"
       d="m 1611.4134,10419.19 c 4.791,5.501 10.545,10.293 14.3729,16.503 3.2181,5.22 4.9019,11.299 6.427,17.239 10.1336,39.469 4.1618,74.389 -25.1234,104.483 -9.8753,10.148 -9.5083,9.736 -15.074,6.517"
       id="path1486" /><path
       style="fill:none;stroke:#ffffff;stroke-width:1.5"
       d="m 1679.5388,10481.733 c 25.9572,6.763 8.5245,3.828 38.3279,4.099 4.4063,0.04 8.8596,-0.104 13.2044,0.631 1.0103,0.171 3.3572,2.092 2.3369,1.997 -2.0495,-0.191 -3.8171,-1.541 -5.7257,-2.312"
       id="path1488" /><path
       style="fill:none;stroke:#ffffff;stroke-width:1.5"
       d="m 1834.1355,10432.224 c -20.0054,-3.496 -44.7461,11.006 -50.0132,31.745 -7.2311,28.471 19.235,52.243 17.528,69.9 -0.1869,1.934 -3.9936,-0.498 -5.609,-1.576"
       id="path1490" /><path
       style="fill:none;stroke:#ffffff;stroke-width:1.5"
       d="m 1766.4776,10498.656 c 18.6625,-7.531 33.5661,-11.315 51.4153,-3.574"
       id="path1492" /><path
       style="fill:none;stroke:#ffffff;stroke-width:1.5"
       d="m 1899.9237,10436.324 c -5.0246,0.665 -10.8007,-0.729 -15.0739,1.997 -19.021,12.132 -22.6392,54.347 -14.7235,72.634 2.4631,5.69 6.8594,10.403 11.101,14.926 1.0853,1.157 19.0459,18.495 16.5932,6.517"
       id="path1494" /><path
       style="fill:none;stroke:#ffffff;stroke-width:1.5"
       d="m 1931.5911,10472.693 c 2.298,-2.978 9.8725,-6.636 6.8943,-8.935 -2.9782,-2.298 -5.2876,5.534 -6.8943,8.935 -6.269,13.271 -13.2168,50.318 -21.5011,34.267"
       id="path1496" /><path
       style="fill:none;stroke:#ffffff;stroke-width:1.5"
       d="m 1910.09,10472.903 c 11.0858,-5.127 26.9799,41.819 34.1211,44.674 1.7897,0.715 0.1331,-3.87 -0.1168,-5.781"
       id="path1498" /><path
       style="fill:none;stroke:#ffffff;stroke-width:1.5"
       d="m 1948.7685,10398.272 c 18.1982,20.356 12.9119,10.423 21.8514,40.469 8.6985,29.237 14.8162,60.366 6.4269,90.609 -4.8353,17.43 -25.8198,49.222 -28.1615,35.318"
       id="path1500" /><path
       style="fill:none;stroke:#ffffff;stroke-width:1.5"
       d="m 2075.0866,10459.028 c 2.1644,-0.08 79.2251,-4.774 38.3278,7.358"
       id="path1502" /><path
       style="fill:none;stroke:#ffffff;stroke-width:1.5"
       d="m 2075.2035,10484.571 c -3.1161,2.067 -11.4155,3.086 -9.3483,6.202 2.0673,3.116 5.6156,-5.976 9.3483,-6.202 6.8847,-0.416 13.3346,3.939 20.2155,4.415 14.6662,1.015 25.5121,-3.596 38.5616,1.577"
       id="path1504" /><path
       style="fill:none;stroke:#ffffff;stroke-width:1.5"
       d="m 2193.6925,10508.852 c 4.4794,-10.932 8.6513,-21.994 13.4381,-32.795 2.1915,-4.945 4.8782,-9.658 7.4786,-14.401 2.3305,-4.25 8.0904,-14.945 10.0494,-10.511 4.7789,10.816 2.2772,26.269 2.1033,37.631 -0.1257,8.212 -0.2793,12.247 0.2338,11.247 3.0745,-5.992 4.7822,-12.594 7.3617,-18.816 0.906,-2.185 17.5862,-48.181 26.9931,-41.835 10.6149,7.161 15.0502,27.756 17.1774,38.892 2.1376,11.191 0.7609,23.392 2.6876,22.915 1.7198,-0.425 2.415,-2.593 3.6225,-3.889"
       id="path1508" /></g></svg>
