<?xml version="1.0" encoding="UTF-8" standalone="no"?>
<!-- Created with Inkscape (http://www.inkscape.org/) -->

<svg
   width="4391.5898mm"
   height="2487.7285mm"
   viewBox="0 0 4391.5897 2487.7286"
   version="1.1"
   id="svg12"
   inkscape:version="1.2.1 (9c6d41e410, 2022-07-14, custom)"
   sodipodi:docname="network_classes.svg"
   xml:space="preserve"
   xmlns:inkscape="http://www.inkscape.org/namespaces/inkscape"
   xmlns:sodipodi="http://sodipodi.sourceforge.net/DTD/sodipodi-0.dtd"
   xmlns="http://www.w3.org/2000/svg"
   xmlns:svg="http://www.w3.org/2000/svg"><sodipodi:namedview
     id="namedview14"
     pagecolor="#000000"
     bordercolor="#ffffff"
     borderopacity="1"
     inkscape:showpageshadow="0"
     inkscape:pageopacity="0"
     inkscape:pagecheckerboard="0"
     inkscape:deskcolor="#000000"
     inkscape:document-units="mm"
     showgrid="true"
     inkscape:zoom="0.052730809"
     inkscape:cx="9576.944"
     inkscape:cy="4134.2055"
     inkscape:window-width="1366"
     inkscape:window-height="746"
     inkscape:window-x="0"
     inkscape:window-y="0"
     inkscape:window-maximized="1"
     inkscape:current-layer="layer1"
     inkscape:lockguides="true"><inkscape:grid
       type="xygrid"
       id="grid344"
       color="#969696"
       opacity="0.39215686"
       empcolor="#ffffff"
       empopacity="0.17254902"
       dotted="false"
       originx="-6136.2165"
       originy="-26558.125" /></sodipodi:namedview><defs
     id="defs9" /><g
     inkscape:label="Layer 1"
     inkscape:groupmode="layer"
     id="layer1"
     transform="translate(-6241.2167,-26706.624)"><path
       style="fill:none;stroke:#ffb380;stroke-width:6.00001"
       d="m 7593.556,27533.087 c -54.2689,-24.098 -108.0648,108.45 -53.1574,125.976 46.4259,14.819 129.5805,-16.306 145.7108,-66.265 3.5121,-10.877 7.4467,-28.027 -2.1588,-34.224 -34.6453,-22.352 -113.0493,-39.793 -152.9963,-8.495 -0.7655,0.6 0.6535,2.545 1.619,2.426 15.5294,-1.873 52.2001,-16.309 60.9827,-19.418 z"
       id="path2889" /><path
       style="fill:none;stroke:#ffb380;stroke-width:6.00001"
       d="m 7634.0312,27441.822 c -2.2487,-8.575 -4.4972,-17.153 -6.7458,-25.728 -0.3599,-1.86 -2.208,-7.107 -1.0793,-5.583 16.9519,22.873 4.2921,107.209 4.0474,111.654 -5.3716,97.573 -2.8015,44.455 -11.3329,138.597 -2.022,22.312 -4.5959,44.603 -5.3968,66.992 -1.4882,41.598 -9.735,43.702 5.9362,36.653"
       id="path2891" /><path
       style="fill:none;stroke:#ffb380;stroke-width:6.00001"
       d="m 7828.8518,27569.74 c 27.3537,22.741 60.4771,9.3 91.4741,10.438"
       id="path2893" /><path
       style="fill:none;stroke:#ffb380;stroke-width:6.00001"
       d="m 8020.7044,27461.97 c 16.1149,58.399 12.8997,119.107 15.9202,178.89"
       id="path2895" /><path
       style="fill:none;stroke:#ffb380;stroke-width:6.00001"
       d="m 8110.5595,27460.512 c 45.5941,16.798 -51.0347,155.964 -23.2058,159.472 9.3236,1.175 54.7791,-9.353 57.7445,-9.951 12.4989,-2.521 27.6834,-5.376 40.4754,-8.252"
       id="path2897" /><path
       style="fill:none;stroke:#ffb380;stroke-width:6.00001"
       d="m 8202.843,27478.959 c 2.9826,-1.678 86.7585,-29.361 84.728,-13.105 -4.2859,34.311 -37.6152,72.199 -40.4751,117.477 -1.157,18.318 3.8891,31.528 11.0633,47.334 2.0378,4.488 8.926,17.238 8.0949,12.378 -0.3434,-2.006 -1.9788,-3.559 -2.9681,-5.34"
       id="path2899" /><path
       style="fill:none;stroke:#ffb380;stroke-width:6.00001"
       d="m 8222.5407,27568.285 c 35.0681,-21.061 65.2179,-25.115 103.6167,-18.206"
       id="path2901" /><path
       style="fill:none;stroke:#ffb380;stroke-width:6.00001"
       d="m 7071.4257,27781.155 c 17.98,-38.957 30.6152,-80.031 41.8245,-121.364 3.9002,-14.38 35.9355,-143.203 27.2532,-144.18 -2.8493,-0.32 -1.3378,5.628 -1.3492,8.496 -0.078,19.664 -1.0673,39.436 1.0795,58.984 2.9954,27.276 8.0243,54.356 14.301,81.071 4.4506,18.939 10.9641,37.372 17.8091,55.583 5.4449,14.486 45.0342,83.331 38.5866,100.733"
       id="path2903" /><path
       style="fill:none;stroke:#ffb380;stroke-width:6.00001"
       d="m 7110.0122,27721.444 c 24.4542,-13.211 68.5044,-42.492 98.2197,-29.128"
       id="path2905" /><path
       style="fill:none;stroke:#ffb380;stroke-width:6.00001"
       d="m 7290.2618,27581.876 c -10.2564,-36.555 7.2096,-57.07 0,0 z"
       id="path2907" /><path
       style="fill:none;stroke:#ffb380;stroke-width:6.00001"
       d="m 7309.42,27725.328 c 17.214,33.047 11.2421,45.508 0,0 z"
       id="path2909" /><path
       style="fill:none;stroke:#ffb380;stroke-width:6.00001"
       d="m 7114.5993,28067.572 c 0.09,8.173 -0.031,16.348 0.2699,24.516 1.5079,40.921 5.743,116.255 8.3648,152.919 1.4028,19.616 3.5526,44.553 6.7458,43.447 3.0597,-1.058 0.1799,-6.472 0.2699,-9.708"
       id="path2911" /><path
       style="fill:none;stroke:#ffb380;stroke-width:6.00001"
       d="m 7100.2981,28097.914 c -9.9743,-77.202 97.5894,-80.666 133.2984,-28.4 27.3751,40.068 5.3459,81.904 -20.2377,114.326 -18.4926,23.435 -29.1423,20.813 -29.4119,19.418 -1.2549,-6.493 3.1533,-13.287 7.2855,-18.447 28.2189,-35.245 87.6343,-37.269 107.3942,9.708 37.1313,88.276 -118.3773,190.656 -147.06,54.613"
       id="path2913" /><path
       style="fill:none;stroke:#ffb380;stroke-width:6.00001"
       d="m 7538.2398,28010.046 c 7.1956,14.806 16.7701,28.678 21.5869,44.418 6.2071,20.286 19.4011,176.615 27.5232,179.862 2.5448,1.018 1.7989,-5.178 2.6983,-7.766"
       id="path2915" /><path
       style="fill:none;stroke:#ffb380;stroke-width:6.00001"
       d="m 7627.2854,28053.98 c 0.1084,-0.201 24.2027,-47.506 30.7612,-53.157 15.6948,-13.526 23.5876,-11.462 30.2215,6.797 13.1538,36.203 6.6254,69.366 0.5395,107.77 -2.0418,12.885 -7.0332,25.13 -10.7932,37.624 -2.3267,7.728 -13.3765,21.151 -5.6665,23.542 3.743,1.162 89.0373,-55.107 96.6007,-67.476"
       id="path2917" /><path
       style="fill:none;stroke:#ffb380;stroke-width:6.00001"
       d="m 7781.361,28037.716 c -1.0793,7.284 -5.6343,14.886 -3.238,21.847 5.997,17.42 140.6086,83.132 49.9195,117.48 -3.7204,1.408 -8.881,1.408 -11.8727,-1.214 -36.7466,-32.208 21.8546,-106.315 36.4276,-133.742 8.1629,-15.364 34.0622,-57.827 9.4443,-73.305 -28.0551,-17.637 -59.7855,22.331 -85.5377,22.331 -2.0624,0 2.3387,-3.398 3.5078,-5.096"
       id="path2919" /><path
       style="fill:none;stroke:#ffb380;stroke-width:6.00001"
       d="m 7934.8968,28071.943 c 45.6941,0.831 92.6629,-19.937 138.4255,-16.508 5.1435,0.387 -10.2306,1.99 -15.3805,1.702"
       id="path2921" /><path
       style="fill:none;stroke:#ffb380;stroke-width:6.00001"
       d="m 8146.4473,27939.9 c 15.1622,43.669 15.0694,89.847 19.9679,135.197 2.767,25.617 -4.3294,25.167 8.9045,22.33"
       id="path2923" /><path
       style="fill:none;stroke:#ffb380;stroke-width:6.00001"
       d="m 8217.1443,27997.182 c 25.3169,-146.187 -40.7795,100.187 43.983,23.059 17.6543,-16.063 27.5166,-33.589 32.6498,-56.555 1.9161,-8.573 0.3239,-29.125 -7.5552,-25.244 -17.2804,8.512 7.6428,79.513 8.6347,82.526 4.4887,13.642 58.9243,160.428 67.9985,122.336"
       id="path2925" /><path
       style="fill:none;stroke:#ffb380;stroke-width:6.00001"
       d="m 8386.3305,27848.634 c 27.3775,96.393 27.6161,198.882 54.5065,295.641"
       id="path2927" /><path
       style="fill:none;stroke:#ffb380;stroke-width:6.00001"
       d="m 7370.4027,28587.737 c -35.3287,18.704 -67.7233,49.247 -73.9349,91.266 -7.1511,48.374 153.9915,21.526 182.1387,19.418 15.4233,-1.157 -17.3848,26.421 -29.9517,35.438 -42.5513,30.527 -94.9475,38.952 -137.0761,0.243 -52.9087,-48.614 34,-178.157 80.9503,-206.319 4.3408,-2.604 -7.8721,6.366 -11.8726,9.467 -18.6627,14.467 -31.8275,22.494 -48.0306,43.69 -22.992,30.078 -51.4763,65.411 -48.5701,106.799 4.9027,69.829 164.9717,55.489 201.8363,28.644"
       id="path2929" /><path
       style="fill:none;stroke:#ffb380;stroke-width:6.00001"
       d="m 7734.0691,28489.701 c -5.0898,57.357 23.4754,113.226 23.4754,169.667"
       id="path2931" /><path
       style="fill:none;stroke:#ffb380;stroke-width:6.00001"
       d="m 7811.7814,28519.8 c -6.296,8.496 -13.993,16.113 -18.8883,25.485 -14.2357,27.257 -20.9108,99.147 32.9197,62.383 29.3534,-20.05 38.4882,-89.815 11.3332,-92.723 -8.5596,-0.915 -26.7105,-3.648 -25.3646,4.855 4.054,25.612 25.8787,45.009 36.9673,68.448 17.8676,37.772 30.7317,82.005 53.1575,117.48"
       id="path2933" /><path
       style="fill:none;stroke:#ffb380;stroke-width:6.00001"
       d="m 7889.4938,28499.652 c 4.3175,-11.567 7.7369,-23.513 12.9521,-34.708 62.274,-133.667 21.1932,134.488 24.555,141.994 3.7412,8.356 90.3647,-47.056 78.5219,-33.737"
       id="path2935" /><path
       style="fill:none;stroke:#ffb380;stroke-width:6.00001"
       d="m 8084.5843,28479.75 c -0.1421,-6.918 131.4828,-36.068 87.9663,-22.087"
       id="path2937" /><path
       style="fill:none;stroke:#ffb380;stroke-width:6.00001"
       d="m 8325.8166,28420.523 c 2.3386,-10.922 3.7698,-22.079 7.0157,-32.766 9.1035,-29.974 29.7172,-28.315 33.1898,4.853 2.2445,21.439 -0.916,45.704 -4.3174,66.752 -0.5779,3.574 -7.2308,31.802 -6.476,32.768 6.0309,7.7 75.5319,-45.426 76.0934,-45.876"
       id="path2939" /><path
       style="fill:none;stroke:#ffb380;stroke-width:6.00001"
       d="m 8456.1469,28363.241 c 1.746,-48.816 46.9767,-77.637 31.5706,3.884 -1.6748,8.861 -29.3206,88.768 -15.9203,88.352 14.1132,-0.439 26.1364,-10.816 38.5863,-17.475 13.7012,-7.332 29.6217,-15.817 40.7451,-27.186"
       id="path2941" /><path
       style="fill:none;stroke:#ffb380;stroke-width:6.00001"
       d="m 8567.5886,28298.191 c 6.9405,-34.399 46.8587,-40.495 66.3794,-10.195 8.9879,13.949 -4.387,42.32 -9.7141,52.671 -4.6279,8.993 -26.3904,27.4 -16.46,25.487 8.5283,-1.643 13.005,-7.12 23.206,-3.64 39.0147,13.3 36.5932,62.256 15.6504,89.323 -21.8665,28.26 -75.9666,57.748 -97.6802,16.02"
       id="path2943" /><path
       style="fill:none;stroke:#ffb380;stroke-width:6.00001"
       d="m 7547.3767,26991.781 c -32.3863,14.976 -64.1342,46.675 -51.2686,85.683 3.3134,10.044 48.5773,82.272 46.9514,84.952 -1.2994,2.144 -3.9577,-3.074 -5.9365,-4.611"
       id="path2945" /><path
       style="fill:none;stroke:#ffb380;stroke-width:6.00001"
       d="m 7479.1084,27117.998 c 31.2258,-14.885 48.4886,-19.396 78.522,-8.496 18.4549,-29.074 26.6929,-47.069 25.3646,-76.943 12.0526,0.08 25.2524,-4.89 36.1579,0.242 13.5948,6.399 42.8495,50.862 49.9194,62.867 1.3522,2.296 3.4903,9.896 1.8888,7.767 -19.334,-25.71 -14.3158,-62.173 -7.8251,-91.023"
       id="path2947" /><path
       style="fill:none;stroke:#ffb380;stroke-width:6.00001"
       d="m 7702.2619,26990.08 c -36.3154,56.518 11.4872,20.05 50.9987,50.004 6.6382,5.032 13.5694,11.715 15.1106,19.902 2.0252,10.758 -2.5968,51.525 -11.063,53.157 -4.1436,0.799 -5.2168,-6.633 -7.8253,-9.951"
       id="path2949" /><path
       style="fill:none;stroke:#ffb380;stroke-width:6.00001"
       d="m 7784.0219,26978.915 c 4.3648,24.624 39.4893,63.682 31.3007,91.508"
       id="path2951" /><path
       style="fill:none;stroke:#ffb380;stroke-width:6.00001"
       d="m 7779.1647,27034.985 c 21.7918,-30.932 57.296,-28.159 90.3948,-35.438"
       id="path2953" /><path
       style="fill:none;stroke:#ffb380;stroke-width:6.00001"
       d="m 8084.6176,27058.53 c -47.2675,0.823 -59.7095,-124.166 -14.0313,-124.761 42.8482,-0.558 53.826,77.277 37.507,104.613 -5.2853,8.856 -15.6503,13.433 -23.4757,20.148 z"
       id="path2955" /><path
       style="fill:none;stroke:#ffb380;stroke-width:6.00001"
       d="m 8155.5842,26936.195 c -5.6663,11.086 -12.8522,21.516 -16.9995,33.256 -20.9928,59.414 61.2137,102.499 87.1567,55.827"
       id="path2957" /><path
       style="fill:none;stroke:#ffb380;stroke-width:6.00001"
       d="m 8227.9001,26951.972 c -1.189,10.708 35.0864,131.112 10.7934,119.666"
       id="path2959" /><path
       style="fill:none;stroke:#ffb380;stroke-width:6.00001"
       d="m 8212.5193,27018.48 c 11.2432,-3.966 22.015,-9.681 33.7297,-11.893 6.6518,-1.256 13.4699,1.527 20.2374,1.699 28.225,0.714 57.8877,-10.274 80.9503,-26.215 2.0347,-1.407 13.5896,-9.334 11.8727,-15.293 -8.6921,-30.157 -51.6258,21.347 -49.6493,46.363 2.6238,33.211 68.4104,7.189 76.9027,1.942 9.0773,-5.609 15.2905,-14.888 22.9359,-22.333"
       id="path2961" /><path
       style="fill:none;stroke:#ffb380;stroke-width:6.00001"
       d="m 8414.3559,26914.351 c -27.0227,21.688 35.002,134.829 23.2058,142.965 -1.7483,1.206 -3.7777,-1.942 -5.6665,-2.913"
       id="path2963" /><path
       style="fill:none;stroke:#ffb380;stroke-width:6.00001"
       d="m 8385.7534,27001.489 c 9.4441,-10.599 15.965,-24.829 28.3324,-31.798 30.457,-17.163 91.9644,-10.091 118.9974,4.612"
       id="path2965" /><path
       style="fill:none;stroke:#ffb380;stroke-width:6.00001"
       d="m 6771.3321,27403.687 c 61.5394,-5.082 123.0786,-10.34 184.5667,-16.02 115.5531,-10.673 230.7556,-28.504 346.4679,-36.894 425.7193,-30.871 853.0868,-30.459 1278.4772,-66.508 246.1697,-20.86 491.6887,-67.932 739.3472,-52.427"
       id="path2967" /><path
       style="fill:none;stroke:#ffb380;stroke-width:6.00001"
       d="m 7221.4164,26893.232 c 21.8726,215.281 135.1825,410.541 158.3931,625.75 10.6452,98.706 -24.8071,194.609 -19.1585,293.457 3.9933,69.882 21.8823,136.84 29.4121,206.076 5.6904,52.324 5.2753,104.813 8.0949,157.287 4.9718,92.52 20.4367,184.28 29.1423,276.466 20.3695,215.699 35.9873,433.287 94.7121,642.985"
       id="path2969" /><path
       style="fill:none;stroke:#ffb380;stroke-width:6.00001"
       d="m 6374.633,27043.447 c -7.1956,-0.889 -15.8805,-7.144 -21.5868,-2.67 -9.4742,7.427 -11.929,21.024 -16.1901,32.282 -24.8251,65.598 -41.6139,167.227 66.6493,132.045 56.364,-18.317 49.9663,-11.009 64.7605,-37.623"
       id="path2971" /><path
       style="fill:none;stroke:#ffb380;stroke-width:6.00001"
       d="m 6462.3295,27031.797 c 27.8315,42.735 10.2346,126.622 43.983,164.568"
       id="path2973" /><path
       style="fill:none;stroke:#ffb380;stroke-width:6.00001"
       d="m 6538.6927,27107.769 c -7.8367,13.044 -4.7244,55.735 20.7772,50.972 26.9587,-5.032 37.0337,-30.895 46.6815,-52.186 1.3764,-3.037 -1.2748,-12.16 -3.238,-9.464 -17.2413,23.669 -6.6027,110.477 37.5068,91.022 8.6601,-3.821 14.3912,-12.298 21.5869,-18.447"
       id="path2975" /><path
       style="fill:none;stroke:#ffb380;stroke-width:6.00001"
       d="m 6665.2453,27064.563 c -7.6454,2.752 -25.6871,0.608 -22.9359,8.255 2.7508,7.644 15.8395,-12.211 22.9359,-8.255 14.3616,8.012 19.0632,27.075 31.0308,38.351 14.5672,13.73 30.942,10.02 36.9674,31.07 7.6313,26.66 -8.2984,56.637 -17.5393,80.584 -0.8834,2.292 -3.4192,9.147 -2.1587,7.041 7.3647,-12.303 8.9728,-27.247 12.9522,-41.021"
       id="path2977" /><path
       style="fill:none;stroke:#ffb380;stroke-width:6.00001"
       d="m 6741.8781,27058.739 c 29.7112,16.045 71.1669,17.489 92.5534,47.332 29.7098,41.455 -42.3807,99.195 -69.0777,116.509"
       id="path2979" /><path
       style="fill:none;stroke:#ffb380;stroke-width:6.00001"
       d="m 6890.8272,27383.021 c -113.7481,-24.376 -236.4894,-14.306 -351.0553,0 -100.1106,12.504 -197.1201,39.423 -298.4373,35.438"
       id="path2981" /><path
       style="fill:none;stroke:#ffb380;stroke-width:6.00001"
       d="m 8683.2126,26735.543 c 73.7203,311.626 63.6492,633.928 98.2196,950.762 22.0208,201.819 61.4479,401.082 75.284,603.906 20.896,306.319 4.2657,597.514 52.8876,903.671"
       id="path2983" /><path
       style="fill:none;stroke:#ffb380;stroke-width:6.00001"
       d="m 9116.2444,26793.672 c 35.273,23.453 69.2807,140.475 1.619,146.852 -10.9172,1.029 -28.4519,-12.616 -18.8886,-25.244 6.4125,-8.47 15.1829,-15.158 24.2853,-20.632 37.7122,-22.681 88.4865,-13.399 125.4731,-40.294 9.1144,-6.628 17.7964,-33.938 -2.4286,-31.311 -44.2124,5.739 -62.8261,82.783 -14.5711,99.034 9.2943,3.13 19.6083,-0.487 29.4121,-0.73"
       id="path2985" /><path
       style="fill:none;stroke:#ffb380;stroke-width:6.00001"
       d="m 9331.3025,26811.634 c -111.5422,26.133 29.0661,75.378 16.7299,124.519"
       id="path2987" /><path
       style="fill:none;stroke:#ffb380;stroke-width:6.00001"
       d="m 9304.0494,26908.483 c 12.0923,-29.61 40.1783,-31.901 67.4584,-39.807 11.604,9.199 36.3143,45.306 60.4433,32.283 20.3338,-10.975 19.0065,-23.795 21.0471,-44.905 0.417,-4.314 -1.889,-17.198 -1.889,-12.864 0,13.337 8.6514,80.056 30.7615,68.692"
       id="path2989" /><path
       style="fill:none;stroke:#ffb380;stroke-width:6.00001"
       d="m 9497.7908,26837.849 c -4.6186,26.647 76.9353,67.638 76.6329,18.934 -0.096,-15.483 -8.5702,-43.349 -12.4124,-57.769"
       id="path2991" /><path
       style="fill:none;stroke:#ffb380;stroke-width:6.00001"
       d="m 9564.4399,26740.274 c 14.5068,36.486 24.466,91.053 58.8237,115.779"
       id="path2993" /><path
       style="fill:none;stroke:#ffb380;stroke-width:6.00001"
       d="m 9630.0094,26744.642 c 1.0973,-83.733 -0.1809,-0.474 0,0 7.4018,19.367 62.3676,79.825 45.0626,109.228"
       id="path2995" /><path
       style="fill:none;stroke:#ffb380;stroke-width:6.00001"
       d="m 9635.9459,26816.246 c 38.5051,-30.128 70.72,-25.5 114.9496,-19.661"
       id="path2997" /><path
       style="fill:none;stroke:#ffb380;stroke-width:6.00001"
       d="m 9576.3128,27033.001 c -64.5568,57.134 -133.7075,108.548 -208.5824,151.22"
       id="path2999" /><path
       style="fill:none;stroke:#ffb380;stroke-width:6.00001"
       d="m 9277.6054,27010.186 c -3.5079,7.929 -6.8207,15.946 -10.5236,23.786 -2.9678,6.284 -12.1661,16.33 -6.206,19.904 19.1717,11.497 85.1307,1.728 90.3946,37.624 1.1194,7.633 -19.0905,76.33 -37.777,66.022 -5.4594,-3.014 -5.2168,-11.327 -7.825,-16.992"
       id="path3001" /><path
       style="fill:none;stroke:#ffb380;stroke-width:6.00001"
       d="m 9358.5559,27046.108 c 4.6771,8.335 9.4211,16.632 14.0314,25.003 10.2071,18.532 14.4415,33.171 32.1104,45.39 58.6986,40.584 81.8361,-96.97 52.3478,-99.762 18.1689,-0.243 38.1029,-8.543 54.5067,-0.728 10.8299,5.16 9.8828,21.902 13.7618,33.254 4.3977,12.87 10.1399,54.525 -0.8095,37.38 -11.5858,-18.142 -19.0124,-80.407 9.4442,-89.324 58.1888,-18.232 36.5632,161.877 16.7296,87.382 -3.4382,-12.914 -4.3173,-26.376 -6.476,-39.564"
       id="path3003" /><path
       style="fill:none;stroke:#ffb380;stroke-width:6.00001"
       d="m 9570.9158,26945.135 c 37.9614,30.062 33.1102,18.336 50.999,68.207 4.6868,13.065 7.4353,26.758 10.5233,40.291 0.432,1.894 0.2632,7.75 0,5.826 -1.7003,-12.427 -3.9204,-24.844 -4.3172,-37.38 -0.4152,-13.116 0.4812,-26.276 1.8885,-39.323 6.743,-62.497 38.9279,52.052 55.0466,33.012 8.0185,-9.472 77.5235,-95.223 53.4273,-92.964 -23.2727,2.181 -68.8737,110.08 12.1425,101.217 46.3963,-5.075 41.8873,-91.094 25.3646,-117.721 -4.6961,-7.57 -0.7311,17.978 1.0792,26.699 8.0423,38.743 24.7386,74.528 36.9673,111.897 3.0721,9.388 10.957,29.613 1.0795,29.613 -21.6098,0 -70.7162,-49.178 -69.0776,-72.576 2.5384,-36.248 149.534,-41.134 175.3925,-12.623"
       id="path3005" /><path
       style="fill:none;stroke:#ffb380;stroke-width:6.00001"
       d="m 8977.2795,27210.92 c 226.6455,42.77 459.8561,20.357 688.8879,16.748 120.2968,-1.894 239.9289,-1.294 359.9596,-10.194"
       id="path3007" /><path
       style="fill:none;stroke:#ffb380;stroke-width:6.00001"
       d="m 8982.509,27418.282 c 3.7949,-5.776 13.7625,-22.254 20.5075,-29.612 47.1782,-51.47 -5.33,103.647 -0.8096,108.984 2.2418,2.646 99.0388,-21.516 83.6488,-5.826"
       id="path3009" /><path
       style="fill:none;stroke:#ffb380;stroke-width:6.00001"
       d="m 9117.1565,27392.794 c 5.7565,10.195 12.8143,19.76 17.2696,30.586 2.177,5.289 -3.2091,16.015 2.4283,16.989 17.8901,3.096 25.4281,-23.622 41.8246,3.884 4.7275,7.932 17.2381,61.585 -0.8097,55.584 -8.2243,-2.733 -11.1532,-13.269 -16.7298,-19.902"
       id="path3011" /><path
       style="fill:none;stroke:#ffb380;stroke-width:6.00001"
       d="m 9153.0446,27376.533 c 21.8873,-9.52 31.5049,-7.731 51.5384,-2.185 13.5817,10.276 29.6061,17.944 40.7452,30.827 11.7169,13.551 0.4363,18.572 6.476,29.855 1.2865,2.404 5.594,-16.542 16.9995,-24.272 16.7354,-11.342 29.833,19 32.9199,29.127 6.0366,19.804 5.088,77.006 -24.2851,44.419"
       id="path3013" /><path
       style="fill:none;stroke:#ffb380;stroke-width:6.00001"
       d="m 9253.6928,27329.686 c 19.1307,-26.71 39.2687,-23.81 67.9985,-22.087"
       id="path3015" /><path
       style="fill:none;stroke:#ffb380;stroke-width:6.00001"
       d="m 9416.4031,27489.402 c 0,-28.157 0,-28.157 0,0 z"
       id="path3017" /><path
       style="fill:none;stroke:#ffb380;stroke-width:6.00001"
       d="m 9491.1474,27413.183 c -41.6915,60.206 33.5968,87.162 73.3951,48.789 19.2548,-18.565 1.914,-51.114 -18.8883,-57.525 -11.1818,-3.448 -48.9357,7.445 -54.5068,8.736 z"
       id="path3019" /><path
       style="fill:none;stroke:#ffb380;stroke-width:6.00001"
       d="m 9649.8103,27459.303 c 30.9637,-28.758 43.2502,-9.155 0,0 z"
       id="path3021" /><path
       style="fill:none;stroke:#ffb380;stroke-width:6.00001"
       d="m 9723.2055,27374.591 c -56.51,47.509 13.1069,119.452 66.3792,81.799 25.9569,-18.347 -10.9985,-76.812 -32.1101,-83.741 -10.8707,-3.569 -22.846,1.294 -34.2691,1.942 z"
       id="path3023" /><path
       style="fill:none;stroke:#ffb380;stroke-width:6.00001"
       d="m 9862.7102,27449.836 c 11.1527,32.364 11.1527,32.364 0,0 z"
       id="path3025" /><path
       style="fill:none;stroke:#ffb380;stroke-width:6.00001"
       d="m 9924.5021,27346.921 c -9.534,19.661 -23.2005,37.809 -28.6023,58.981 -7.7954,30.554 22.8148,57.84 50.9985,52.673 42.0592,-7.71 74.9487,-49.567 60.9827,-92.236 -2.389,-7.303 -6.128,-15.002 -12.4124,-19.418 -26.1641,-18.394 -112.1092,7.006 -106.5847,17.96 5.9872,11.874 23.7455,-11.973 35.6182,-17.96 z"
       id="path3027" /><path
       style="fill:none;stroke:#ffb380;stroke-width:6.00001"
       d="m 9049.4282,27883.589 c 2.3383,-12.055 3.5586,-24.382 7.0154,-36.166 9.031,-30.785 27.409,-25.525 13.222,9.223 -4.2455,10.401 -18.5433,15.841 -20.2374,26.943 -3.0229,19.812 6.0481,39.695 7.0154,59.711 0.6564,13.581 -10.722,31.475 -0.8094,40.777 17.5967,16.518 60.1779,-46.646 61.7921,-61.166"
       id="path3029" /><path
       style="fill:none;stroke:#ffb380;stroke-width:6.00001"
       d="m 9180.0281,27941.117 c 3.238,7.199 4.8651,15.37 9.7139,21.601 5.5266,7.104 7.6533,-16.574 8.9045,-25.485 3.1174,-22.199 4.2183,-56.166 -8.3648,-75.975 -8.4174,-13.251 -22.3348,28.149 -30.7612,24.516 -12.2431,-5.278 -1.809,-37.211 -21.8564,-33.496 50.5276,-49.552 42.898,-36.632 88.7756,-39.807"
       id="path3031" /><path
       style="fill:none;stroke:#ffb380;stroke-width:6.00001"
       d="m 9244.2488,27778.488 c 6.6559,17.476 13.6679,34.822 19.9676,52.43 5.6015,15.655 3.8753,36.221 16.46,47.088 9.8787,8.533 34.4127,-66.961 47.4908,-32.525 11.1895,29.464 8.4109,57.801 4.3175,89.323 -1.4449,11.126 -5.3197,36.69 -14.5711,30.342 -7.0737,-4.852 -14.0364,-27.995 -16.46,-34.71"
       id="path3033" /><path
       style="fill:none;stroke:#ffb380;stroke-width:6.00001"
       d="m 9276.8987,27752.76 c 12.946,-14.404 35.2517,-50.467 55.0463,-27.913"
       id="path3035" /><path
       style="fill:none;stroke:#ffb380;stroke-width:6.00001"
       d="m 9383.7533,27956.651 c 15.223,-11.994 26.2469,-28.163 40.2055,-41.265"
       id="path3037" /><path
       style="fill:none;stroke:#ffb380;stroke-width:6.00001"
       d="m 9459.8466,27761.256 c 5.4867,-7.202 23.6609,-16.116 16.46,-21.603 -7.2009,-5.488 -17.3738,12.596 -16.46,21.603 1.4526,14.311 19.5951,22.783 22.3962,36.893 1.8161,9.15 -11.082,49.435 -14.5711,61.897 -1.0353,3.699 -2.1778,11.986 1.6193,11.406 21.1243,-3.215 39.4544,-21.291 60.7128,-22.087"
       id="path3039" /><path
       style="fill:none;stroke:#ffb380;stroke-width:6.00001"
       d="m 9536.7496,27750.575 c 6.7459,11.975 15.5279,23.013 20.2378,35.925 8.1285,22.283 -4.6144,54.112 1.3488,41.261 28.2541,-60.877 47.5255,-29.056 45.6023,21.12 -0.4395,11.461 -5.316,52.715 -24.555,32.525"
       id="path3041" /><path
       style="fill:none;stroke:#ffb380;stroke-width:6.00001"
       d="m 9562.3841,27774.847 c 2.6902,-24.844 28.4173,-50.863 49.6493,-27.67 13.4018,2.508 30.2851,-1.828 40.2055,7.525 13.1713,12.418 15.6939,66.645 8.365,84.226 -0.448,1.075 -1.1709,-2.291 -0.8094,-3.398 5.8445,-17.895 7.8928,-49.33 26.7134,-49.759 15.1718,-0.346 14.679,27.237 16.9997,42.234 2.0988,13.565 4.2857,101.745 -10.5234,98.548 -3.9412,-0.851 -6,-5.629 -7.8254,-9.224 -6.7822,-13.358 -11.8727,-27.509 -17.8091,-41.264"
       id="path3043" /><path
       style="fill:none;stroke:#ffb380;stroke-width:6.00001"
       d="m 9657.6357,27746.206 c 19.8178,-26.736 56.2194,-46.405 90.3946,-37.623"
       id="path3045" /><path
       style="fill:none;stroke:#ffb380;stroke-width:6.00001"
       d="m 9782.2991,27888.687 c -8.7508,0.439 -40.3434,136.308 -11.8726,80.343"
       id="path3047" /><path
       style="fill:none;stroke:#ffb380;stroke-width:6.00001"
       d="m 9931.7876,27774.12 c -54.5856,-19.336 -86.7425,77.361 -24.2853,92.72 13.4567,3.31 27.867,-3.135 40.7453,-8.252 12.9831,-5.157 25.1587,-12.827 35.6182,-22.087 16.5652,-14.669 33.0502,-69.271 -5.3967,-74.761 -15.9366,-2.275 -30.5895,12.83 -46.6815,12.38 -22.2004,-0.622 -57.1396,-31.882 0,0 z"
       id="path3057" /><path
       style="fill:none;stroke:#ffb380;stroke-width:6.00001"
       d="m 10035.404,27913.203 c 4.669,-40.415 17.537,-55.927 0,0 z"
       id="path3059" /><path
       style="fill:none;stroke:#ffb380;stroke-width:6.00001"
       d="m 10141.989,27716.107 c -50.073,20.868 -62.79,143.73 12.952,127.432 79.529,-17.114 66.552,-130.231 -3.508,-149.276 -23.154,-6.294 -93.176,14.746 -40.745,30.827"
       id="path3061" /><path
       style="fill:none;stroke:#ffb380;stroke-width:6.00001"
       d="m 9238.9548,28303.649 c 4.4971,-13.351 7.9708,-27.091 13.4916,-40.05 2.5437,-5.972 23.2553,-25.958 11.0633,-0.971 -6.9882,14.322 -20.3245,25.654 -24.5549,41.021 -0.4353,1.58 -2.8126,56.534 14.5711,59.224 14.5719,2.257 44.1359,-13.194 53.9671,-17.719 7.3914,-3.402 29.4264,-11.231 21.3166,-11.893"
       id="path3063" /><path
       style="fill:none;stroke:#ffb380;stroke-width:6.00001"
       d="m 9352.5552,28246.607 c 13.8972,10.24 4.4392,31.11 12.9521,43.691 8.7236,12.891 36.4242,-29.924 45.0623,-10.438 8.3238,18.775 7.2654,116.105 -28.6025,104.373"
       id="path3065" /><path
       style="fill:none;stroke:#ffb380;stroke-width:6.00001"
       d="m 9382.2369,28257.286 c 20.0155,-10.395 41.2346,-9.496 62.6018,-13.592 12.0526,9.224 26.3897,16.056 36.1579,27.671 5.8735,6.985 -2.1466,21.093 4.8572,26.943 1.3054,1.091 11.8541,-35.732 22.9358,-22.573 8.6342,10.252 24.0185,88.815 4.5873,94.906 -8.1793,2.564 -15.9422,-15.872 -17.5393,-18.69"
       id="path3067" /><path
       style="fill:none;stroke:#ffb380;stroke-width:6.00001"
       d="m 9468.8539,28219.178 c 13.7919,-21.897 36.7006,-33.261 60.1734,-28.641"
       id="path3069" /><path
       style="fill:none;stroke:#ffb380;stroke-width:6.00001"
       d="m 9594.3269,28313.843 c 1.7989,8.091 5.9238,16 5.3968,24.273 -2.8155,44.186 -58.8833,-22.585 -5.3968,-24.273 82.9101,-2.616 -104.6456,115.525 0,0 4.3593,-4.812 -3.8245,117.671 0,0 z"
       id="path3071" /><path
       style="fill:none;stroke:#ffb380;stroke-width:6.00001"
       d="m 9663.135,28182.528 c 34.6181,-84.614 29.0899,40.696 20.7772,68.935 -0.8482,2.881 -22.5213,48.937 -22.3962,52.427 0.04,1.106 42.4953,-9.517 49.6496,-10.438"
       id="path3073" /><path
       style="fill:none;stroke:#ffb380;stroke-width:6.00001"
       d="m 9738.9585,28224.517 c 7.1956,8.578 17.5067,15.307 21.5868,25.731 2.3964,6.123 -4.6283,28.059 -7.2855,35.438 -0.4633,1.286 -2.7229,4.723 -1.8889,3.641 10.6836,-13.883 37.0322,-40.661 47.4909,-9.223 3.5954,10.805 -1.2901,78.303 -16.4598,59.467 -5.5313,-6.868 -7.0157,-16.181 -10.5235,-24.272"
       id="path3075" /><path
       style="fill:none;stroke:#ffb380;stroke-width:6.00001"
       d="m 9763.2436,28248.55 c 7.7628,-32.34 28.4443,-31.399 49.1098,-48.79 10.4338,10.923 22.9476,20.184 31.3013,32.769 3.2726,4.93 1.4846,22.902 1.349,29.37 -0.1416,6.753 6.3554,-11.961 10.2539,-17.476 6.2211,-8.801 24.749,-38.385 43.7131,-29.856 7.2745,3.272 -3.733,139.681 -32.6501,74.032"
       id="path3077" /><path
       style="fill:none;stroke:#ffb380;stroke-width:6.00001"
       d="m 9843.1149,28199.276 c 5.4867,-6.879 10.9731,-13.756 16.4597,-20.632"
       id="path3079" /><path
       style="fill:none;stroke:#ffb380;stroke-width:6.00001"
       d="m 9995.3017,28298.794 c -63.1124,-0.709 6.4873,-47.567 8.9043,-34.954 2.263,11.808 3.08,35.92 -8.9043,34.954 -39.5034,-3.191 -15.4559,-42.109 -1.6193,-42.236 5.5973,-0.05 15.7056,-0.254 15.9206,5.34 0.505,13.181 -6.854,47.781 -14.3013,36.896 -45.1877,-66.056 26.2743,-46.585 21.5863,-35.925 -5.623,12.79 -14.391,23.95 -21.5863,35.925 z"
       id="path3081" /><path
       style="fill:none;stroke:#ffb380;stroke-width:6.00001"
       d="m 10035.507,28132.284 c -6.293,9.599 24.741,-34.833 37.237,-26.215 31.899,21.997 -30.021,129.413 -22.666,141.266 5.747,9.263 21.193,-5.387 31.301,-9.467 14.081,-5.683 28.304,-10.641 42.364,-16.261"
       id="path3083" /><path
       style="fill:none;stroke:#ffb380;stroke-width:6.00001"
       d="m 10169.615,28291.269 c 15.64,21.101 27.963,-21.984 29.142,-31.797 1.703,-14.172 -4.132,-36.346 -10.254,-48.303 -4.321,-8.443 -9.746,-14.2 -18.618,-9.71 -4.583,2.32 -10.896,15.555 -11.333,10.438 -1.218,-14.245 44.366,-22.799 5.936,-42.476 -3.077,-13.084 -13.672,-23.141 -20.507,-34.711 13.18,20.128 63.117,-16.577 80.141,2.913"
       id="path3085" /><path
       style="fill:none;stroke:#ffb380;stroke-width:6.00001"
       d="m 10247.327,28098.785 c 24.235,31.477 17.752,66.389 12.952,103.161 -1.208,9.255 -10.561,34.61 -4.317,27.67 2.691,-2.99 3.418,-7.281 5.127,-10.922 8.365,-11.086 14.77,-23.969 25.095,-33.256 27.719,-24.934 32.071,91.692 9.174,97.579 -5.103,1.309 -10.254,-2.429 -15.381,-3.641"
       id="path3087" /><path
       style="fill:none;stroke:#ffb380;stroke-width:6.00001"
       d="m 10246.788,28135.924 c 30.142,-9.8 65.985,-16.695 97.41,-7.768"
       id="path3089" /><path
       style="fill:none;stroke:#ffb380;stroke-width:6.00001"
       d="m 10409.768,28284.229 c -38.747,-21.765 16.5,-37.481 14.301,-26.213 -15.471,79.264 -23.461,-21.764 11.333,-29.128 8.019,-1.698 6.046,17.452 1.889,24.514 -6.987,11.872 -18.349,20.553 -27.523,30.827 z"
       id="path3091" /><path
       style="fill:none;stroke:#ffb380;stroke-width:6.00001"
       d="m 10564.383,28112.379 c -83.043,31.38 -82.765,178.557 26.174,130.344 70.301,-31.112 36.75,-137.514 -26.174,-130.344 -15.41,1.757 -22.968,21.034 -35.888,29.612 -11.959,7.94 -26.475,11.547 -38.316,19.661 -42.695,29.261 14.416,1.016 17.539,-0.971"
       id="path3093" /><path
       style="fill:none;stroke:#ffb380;stroke-width:6.00001"
       d="m 10501.512,28393.457 c 23.327,-120.24 82.409,-232.59 101.457,-353.653 4.113,-26.138 0.72,-52.914 1.08,-79.372"
       id="path3095" /><path
       style="fill:none;stroke:#ffb380;stroke-width:6.00001"
       d="m 10115.108,27943.199 c -1.079,-12.3 -5.133,-24.696 -3.238,-36.896 16.645,-107.122 63.75,-210.711 66.11,-319.672"
       id="path3097" /><path
       style="fill:none;stroke:#ffb380;stroke-width:6.00001"
       d="m 9917.8589,27941.985 c 25.1865,-99.248 48.9588,-199.66 58.8243,-301.71"
       id="path3099" /><path
       style="fill:none;stroke:#ffb380;stroke-width:6.00001"
       d="m 9960.2229,27476.678 c 38.5668,-76.814 89.6261,-145.995 135.9971,-217.969"
       id="path3101" /><path
       style="fill:none;stroke:#ffb380;stroke-width:6.00001"
       d="m 9784.2906,27456.286 c 10.8458,-52.326 29.9289,-102.409 46.9517,-152.915"
       id="path3103" /><path
       style="fill:none;stroke:#ffb380;stroke-width:6.00001"
       d="m 9453.2035,27589.787 c 29.9088,-97.991 87.3675,-182.202 147.0599,-263.845"
       id="path3105" /></g></svg>
