<?xml version="1.0" encoding="UTF-8" standalone="no"?>
<!-- Created with Inkscape (http://www.inkscape.org/) -->

<svg
   width="1327.2019mm"
   height="401.88956mm"
   viewBox="0 0 1327.2019 401.88959"
   version="1.1"
   id="svg12"
   inkscape:version="1.2.1 (9c6d41e410, 2022-07-14, custom)"
   sodipodi:docname="partial_derivative_continuity.svg"
   xmlns:inkscape="http://www.inkscape.org/namespaces/inkscape"
   xmlns:sodipodi="http://sodipodi.sourceforge.net/DTD/sodipodi-0.dtd"
   xmlns="http://www.w3.org/2000/svg"
   xmlns:svg="http://www.w3.org/2000/svg">
  <sodipodi:namedview
     id="namedview14"
     pagecolor="#505050"
     bordercolor="#eeeeee"
     borderopacity="1"
     inkscape:showpageshadow="0"
     inkscape:pageopacity="0"
     inkscape:pagecheckerboard="0"
     inkscape:deskcolor="#505050"
     inkscape:document-units="mm"
     showgrid="true"
     inkscape:zoom="0.13255831"
     inkscape:cx="1372.9807"
     inkscape:cy="1961.401"
     inkscape:window-width="1366"
     inkscape:window-height="746"
     inkscape:window-x="0"
     inkscape:window-y="0"
     inkscape:window-maximized="1"
     inkscape:current-layer="layer1"
     inkscape:lockguides="false"
     showguides="true">
    <inkscape:grid
       type="xygrid"
       id="grid344"
       color="#969696"
       opacity="0.39215686"
       empcolor="#000000"
       empopacity="0.17254902"
       dotted="false"
       originx="-470.00626"
       originy="294.9826" />
    <sodipodi:guide
       position="-196.15544,100.9135"
       orientation="0,-1"
       id="guide2196"
       inkscape:locked="false" />
  </sodipodi:namedview>
  <defs
     id="defs9" />
  <g
     inkscape:label="Layer 1"
     inkscape:groupmode="layer"
     id="layer1"
     transform="translate(-575.00629,146.48246)">
    <path
       style="fill:none;stroke:#ffffff;stroke-width:1.5;stroke-dasharray:none"
       d="m 583.66472,-84.89093 c -7.11801,37.999874 5.14779,-40.04214 15.24211,-37.07722 6.1514,1.8068 14.16065,32.765846 16.42277,39.780757 0.79934,2.478788 0.1201,7.799355 2.68343,7.338205 1.67659,-0.301622 1.32031,-3.141355 1.93208,-4.731218 3.00548,-7.595672 5.54156,-15.394293 9.01644,-22.787014 5.79123,-12.32071 17.51902,-6.21563 21.36039,3.958755 2.89272,7.661753 -5.84263,29.944207 1.39538,9.269281 1.03672,-2.961337 2.07524,-5.922044 3.11287,-8.883067 m 0,0 c 1.93206,-4.924309 3.78376,-9.880909 5.79617,-14.772929 1.30712,-3.17748 1.39607,-7.81354 4.50825,-9.26931 1.99368,-0.93258 3.3559,5.40268 5.68898,17.09028 1.29848,6.504789 2.24469,13.07521 3.43484,19.60069 0.36838,2.019755 2.798,7.009895 0.96607,6.082985 -0.726,-0.367342 -1.07343,-1.22304 -1.61015,-1.834559"
       id="path9989" />
    <path
       style="fill:none;stroke:#ffffff;stroke-width:1.5;stroke-dasharray:none"
       d="m 664.7053,-93.67748 c 4.47243,-1.09429 8.86147,-2.61611 13.41729,-3.282873 19.25604,-2.818191 7.4411,1.4234 23.39974,-2.124197 27.8674,-6.19491 11.42365,-31.08195 -5.79618,-10.71763 -2.56645,3.03511 -6.53202,6.28168 -6.11841,10.23484 2.77409,26.513832 50.66417,18.579136 65.69121,10.041739"
       id="path9991" />
    <path
       style="fill:none;stroke:#ffffff;stroke-width:1.5;stroke-dasharray:none"
       d="m 862.20811,-122.45091 c -4.03376,-12.81508 8.28227,-17.19248 6.33293,-12.06939 -1.61573,4.24632 -4.22196,8.04626 -6.33293,12.06939 z"
       id="path9993" />
    <path
       style="fill:none;stroke:#ffffff;stroke-width:1.5;stroke-dasharray:none"
       d="m 867.68228,-95.898223 c 2.42898,4.410625 -7.93858,47.036248 3.22022,32.152875"
       id="path9995" />
    <path
       style="fill:none;stroke:#ffffff;stroke-width:1.5;stroke-dasharray:none"
       d="m 910.72504,-110.67118 c -24.01213,17.193368 5.88267,35.286071 5.47421,40.553179 -0.0804,1.037262 -1.93207,0.772451 -2.89809,1.158674"
       id="path9997" />
    <path
       style="fill:none;stroke:#ffffff;stroke-width:1.5;stroke-dasharray:none"
       d="m 890.33075,-73.690543 c 1.28804,-3.282873 1.32617,-7.400158 3.86416,-9.84862 6.98391,-6.737564 27.55736,-8.515305 37.46111,-8.689972"
       id="path9999" />
    <path
       style="fill:none;stroke:#ffffff;stroke-width:1.5;stroke-dasharray:none"
       d="m 1049.621,-123.41646 c 2.9304,12.00584 16.1563,36.458894 11.2705,48.37415 -0.8381,2.044041 -3.2202,3.025394 -4.8302,4.538094"
       id="path10011" />
    <path
       style="fill:none;stroke:#ffffff;stroke-width:1.5;stroke-dasharray:none"
       d="m 1035.345,-83.249494 c 6.9069,-16.962696 32.2895,-11.220709 42.6134,-22.497376 4.3603,-4.76267 2.2897,-8.98818 2.5761,-8.78652 8.0149,5.64237 13.759,30.590232 16.1008,40.070417 0.5017,2.031288 -0.2305,-4.187394 -0.1074,-6.276107 0.3873,-6.569056 1.7912,-13.738196 1.8248,-13.71083 6.0183,4.898033 5.6536,13.957094 14.276,16.704064 15.036,4.790334 32.8458,-29.816304 19.965,-27.614814 -7.886,1.3478 -17.7017,15.662307 -16.7448,23.462935 1.9186,15.641111 43.4418,11.671996 50.8783,6.4692"
       id="path10013" />
    <path
       style="fill:none;stroke:#ffffff;stroke-width:1.5;stroke-dasharray:none"
       d="m 1191.6298,-112.9885 c -1.8247,3.54036 -6.8317,6.87656 -5.4743,10.62108 1.8643,5.142973 32.8596,15.758585 39.3933,21.918008 8.082,7.619072 -7.2695,15.418194 -13.4173,13.421191 -7.3412,-2.384631 -5.5579,-10.650254 -2.0395,-14.96605 8.0538,-9.879193 25.2695,-8.815546 36.2804,-12.841854 22.3887,-8.186795 5.599,-17.500125 -9.9825,-0.869005 -2.014,2.149753 -4.7154,4.808937 -4.2936,7.72442 2.1563,14.90427 21.7784,1.161918 27.2641,-2.413868"
       id="path10015" />
    <path
       style="fill:none;stroke:#ffffff;stroke-width:1.5;stroke-dasharray:none"
       d="m 1270.7383,-104.97441 c -24.2837,14.272304 5.5535,34.868788 21.4676,22.883563"
       id="path10017" />
    <path
       style="fill:none;stroke:#ffffff;stroke-width:1.5;stroke-dasharray:none"
       d="m 1312.7076,-79.870075 c -16.5483,6.269779 -9.1457,-24.964145 -2.1467,-27.325115 7.3491,-2.47908 8.9406,10.875213 7.7283,15.062601 -1.2489,4.313886 -7.9194,16.097115 -5.5816,12.262514 1.1763,-1.92959 13.0597,-33.632635 14.598,-34.470195 5.8233,-3.17058 13.184,28.987748 14.276,34.180527 0.1722,0.818901 -0.1204,-1.682335 0,-2.510443 0.4894,-3.366675 1.0226,-6.735615 1.8248,-10.041742 0.758,-3.123809 2.8847,-11.318222 5.9036,-14.193592 4.5952,-4.37664 5.5471,9.296009 9.2311,18.635142"
       id="path10019" />
    <path
       style="fill:none;stroke:#ffffff;stroke-width:1.5;stroke-dasharray:none"
       d="m 1367.8796,-116.75417 c 7.0562,6.51035 21.7887,23.561018 14.3833,35.725421 -0.2429,0.399082 -5.4877,6.416615 -6.1183,6.082986 -2.024,-1.070981 -2.8449,-10.476961 0.322,-7.627845 3.1701,2.851967 -12.9933,3.902199 -8.4797,-5.889863 1.4467,-3.138665 8.6757,-11.625969 10.7339,-14.000529"
       id="path10021" />
    <path
       style="fill:none;stroke:#ffffff;stroke-width:1.5;stroke-dasharray:none"
       d="m 1466.0943,-77.745846 c 0.5725,0.128738 1.4028,0.881491 1.7174,0.386215 3.8931,-6.128814 -13.4735,-35.318739 -2.2541,-38.042739 4.0073,-5.69676 6.2807,-13.14696 12.0219,-17.09028 2.7466,-1.88646 6.767,0.6758 9.7678,2.1242 17.7147,8.55053 3.1278,37.709944 -12.4513,34.66332"
       id="path10023" />
    <path
       style="fill:none;stroke:#ffffff;stroke-width:1.5;stroke-dasharray:none"
       d="m 1498.7252,-116.17483 c -1.1092,3.63692 -2.9411,7.12814 -3.3275,10.91075 -2.5763,25.218658 35.2407,3.97711 30.5914,-2.99321 -1.6698,-2.50342 -3.1368,5.32194 -3.5422,8.303735 -0.7768,5.713449 -0.7463,16.130547 3.3275,20.759364 1.7603,2.000041 4.6745,-3.087026 5.7964,-5.503646 0.9928,-2.138719 9.2377,-28.300833 9.7677,-28.580333 1.3881,-0.73197 3.2144,0.79186 4.2936,1.9311 4.2721,4.50952 17.7979,23.569065 10.6264,30.414897 -2.804,2.676694 -7.4898,-4.732396 -7.8356,-8.593428 -0.8375,-9.35092 5.1847,-16.964509 11.3778,-22.883559"
       id="path10025" />
    <path
       style="fill:none;stroke:#ffffff;stroke-width:1.5;stroke-dasharray:none"
       d="m 1578.1557,-127.08555 c -1.6253,0.66715 8.7881,38.478804 -1.5029,34.856415 15.787,-11.665515 9.6704,-12.544555 20.0724,-8.883065 1.8386,-27.78669 0.77,-16.24706 2.6834,-34.66332 6.1541,-3.12195 12.3081,-6.2439 18.4622,-9.36586 -1.2165,7.24164 -3.1598,14.39816 -3.6495,21.72492 -1.2215,18.27603 24.9856,22.57263 35.0998,10.33141 2.5416,-3.07615 4.9491,-9.86529 1.5026,-11.8763 -10.1487,-5.92163 -9.8913,38.556223 4.1864,23.9457"
       id="path10027" />
    <path
       style="fill:none;stroke:#ffffff;stroke-width:1.5;stroke-dasharray:none"
       d="m 1664.4559,-140.50674 c 8.8623,16.08735 7.6911,35.45983 15.2419,51.657025"
       id="path10029" />
    <path
       style="fill:none;stroke:#ffffff;stroke-width:1.5;stroke-dasharray:none"
       d="m 575.39971,-58.338278 c 5.2238,3.218508 11.14436,5.513938 15.67141,9.655527 9.01918,8.251229 19.09195,26.13511 17.92548,38.9117437 -0.7111,7.788849 -7.34502,16.494347 -15.88607,11.10384 -11.65699,-7.3570649 -14.49949,-31.6708837 3.75683,-30.0286467 11.29071,1.015648 20.75927,10.457738 32.8456,7.917513 15.79765,-3.320243 8.44408,-25.702442 -6.65498,-12.455607 -10.41657,9.138753 -5.00204,35.5582297 9.87506,31.187321 27.74863,-8.152582 15.41009,-15.923307 21.89714,-30.511437 0.13688,-0.307798 0.60835,0.370858 0.7513,0.675883 1.40792,3.004267 2.63035,6.092867 3.86416,9.172734 1.99741,4.985998 5.57878,14.5547181 7.72844,20.1800295 0.7979,2.08796202 2.52664,8.5052164 2.36145,6.2761071 -0.6341,-8.5567783 2.407,-45.6066836 14.06138,-21.1455816 8.2338,-10.595062 10.22517,-10.972199 9.01637,-20.759365 4.43666,2.124208 9.84964,2.876584 13.30997,6.372623 9.59519,9.694209 12.64503,33.1006698 17.71088,23.173264 3.96023,-7.76074 -0.22564,-20.566651 2.25413,-27.035474 2.00365,6.372643 4.64272,12.579343 6.01095,19.11793 0.72322,3.456142 -3.15379,6.8168747 1.07328,9.7520727 7.56048,5.2498631 25.84883,-15.7476727 26.94203,-22.3042267 0.35729,-2.142806 -2.02636,3.88473 -2.5761,5.986408 -1.93212,7.38651 -2.49773,29.4230089 10.51908,23.36635605"
       id="path10031" />
    <path
       style="fill:none;stroke:#ffffff;stroke-width:1.5;stroke-dasharray:none"
       d="m 773.43914,-26.571618 c 1.5409,4.518237 16.62571,31.1528328 5.04489,32.249454 4.47243,-3.3472468 8.94486,-6.6944937 13.41729,-10.0417405 0.99928,-19.1218415 0.35185,-19.2812525 2.89821,-34.8564415 0.22926,-1.402304 -0.11197,-3.226192 0.96607,-4.151849 2.5789,-2.214359 1.88179,6.566475 2.25401,9.945165 1.0452,9.487428 0.58822,26.0031411 6.44038,33.79431218 2.62817,3.49896192 3.88701,-10.56826118 7.29901,-11.97284718 8.20523,-3.377765 20.7594,0.03404 27.2639,-7.338175 4.91327,-5.568706 -1.69421,-16.920974 -9.66046,-12.16597 -16.37374,9.773383 11.21313,36.337372 25.65398,25.5871302"
       id="path10033" />
    <path
       style="fill:none;stroke:#ffffff;stroke-width:1.5;stroke-dasharray:none"
       d="m 916.19925,-41.537668 c -2.75498,2.510433 -5.47876,5.055555 -8.26495,7.531299 -4.55589,4.048244 -11.78351,6.721633 -13.20266,12.648731 -1.00335,4.19063 40.12065,3.52384 42.29137,16.7040638 1.8995,11.5334123 -23.92923,29.3318432 -33.48963,20.4696962 -4.08961,-3.790911 -5.5816,-9.6555272 -8.37243,-14.4832893"
       id="path10035" />
    <path
       style="fill:none;stroke:#ffffff;stroke-width:1.5;stroke-dasharray:none"
       d="m 910.08097,-64.614353 c 5.24721,-0.865574 13.22538,-4.674719 18.35496,-0.675886"
       id="path10037" />
    <path
       style="fill:none;stroke:#ffffff;stroke-width:1.5;stroke-dasharray:none"
       d="m 1062.609,-26.571618 c -7.3443,0.22836 -31.1754,15.080176 -24.2585,24.8146995 7.6078,10.7069333 29.0745,2.49860325 37.9978,-3.8622102 2.1618,-1.541018 5.9659,-4.3468951 4.5082,-6.5657443 -2.311,-3.51782 -6.863,6.3170095 -6.977,10.5245009 -0.2467,9.0993541 9.9814,17.6434401 15.7787,7.1450835 1.7483,-3.1659539 2.8919,-6.6548873 3.8643,-10.1382856 0.2737,-0.9802759 3.0215,-17.8646848 4.4008,-19.9869368 1.6013,-2.463803 10.0704,26.2953257 10.3045,27.8079037 0.2963,1.9136095 0.3163,3.8602205 0.4294,5.7933139 0.03,0.5140854 0.071,2.0549554 0,1.5448914 -0.3914,-2.8166747 0.3586,-7.9545099 0.6441,-9.75207314 4.2276,-26.61995886 17.5937,1.56994754 31.4501,-9.55898036 4.781,-3.8399005 2.7719,-13.8630685 -4.8302,-12.0693915 -30.8063,7.268532 3.973,38.322244 26.8346,28.2906648"
       id="path10039" />
    <path
       style="fill:none;stroke:#ffffff;stroke-width:1.5;stroke-dasharray:none"
       d="m 1297.6802,-28.695814 c -46.7918,25.1391468 -15.9,59.526058 23.7219,42.677378 2.0752,-7.3381956 2.4116,-15.4108595 6.2256,-22.0145868 2.3342,-4.0416802 12.5884,-3.3551462 14.92,0.2896688 2.6747,4.1812696 3.8925,9.3352932 4.1863,14.290167 0.3859,6.509531 -7.3967,17.688222 -9.4459,5.310555"
       id="path10041" />
    <path
       style="fill:none;stroke:#ffffff;stroke-width:1.5;stroke-dasharray:none"
       d="m 1351.5642,-25.219851 c 3.0412,2.92885 7.1756,5.040593 9.1237,8.786551 2.7829,5.35115 2.8311,18.183587 2.7907,24.4284547 -0.014,2.1349913 -1.3226,8.3969433 -0.6439,6.3726533 8.7766,-26.177575 20.953,-37.974682 24.5804,-3.475995"
       id="path10043" />
    <path
       style="fill:none;stroke:#ffffff;stroke-width:1.5;stroke-dasharray:none"
       d="m 1402.6572,-21.550731 c 2.4937,5.388176 9.7308,36.812953 -2.4687,37.270306"
       id="path10045" />
    <path
       style="fill:none;stroke:#ffffff;stroke-width:1.5;stroke-dasharray:none"
       d="m 1397.1829,0.75352486 c 2.6549,-8.38445786 16.7157,-1.5292943 20.1797,-8.20721086"
       id="path10047" />
    <path
       style="fill:none;stroke:#ffffff;stroke-width:1.5;stroke-dasharray:none"
       d="m 1419.8314,-23.868052 c 2.1468,5.503648 4.652,10.880598 6.4403,16.5109416 7.2631,22.8668264 -3.2607,-5.0986556 1.2881,10.5245031 0.3828,1.3146008 1.8036,-2.0861364 2.4688,-3.28287327 1.8214,-3.27683013 6.6307,-13.08164243 10.8412,-14.67638143 6.398,-2.423308 8.1576,19.4930442 8.1576,22.5938947"
       id="path10049" />
    <path
       style="fill:none;stroke:#ffffff;stroke-width:1.5;stroke-dasharray:none"
       d="m 1458.1512,-16.336754 c 0.7156,4.377164 0.6638,8.9515025 2.1468,13.1314931 3.2223,9.0822329 14.8385,10.0533966 19.2136,1.7380135 3.3351,-6.3387578 3.8016,-14.2811106 4.7229,-21.2421596"
       id="path10051" />
    <path
       style="fill:none;stroke:#ffffff;stroke-width:1.5;stroke-dasharray:none"
       d="m 1498.9398,-6.5846806 c -1.61,-2.9288395 -4.6747,-5.4479164 -4.8302,-8.7865184 -0.024,-0.510919 3.4808,-14.126345 9.1237,-12.262517 5.128,1.693767 9.7884,8.442947 12.5587,12.9384 0.85,1.379326 0.8189,4.7439872 2.3614,4.248425 2.2396,-0.719494 2.6469,-13.721799 2.6835,-13.71083 2.0429,0.612588 10.1553,23.64925746 27.908,17.6695869 11.5928,-3.9048429 19.0397,-35.4215009 9.3385,-43.1601689 -4.0876,-3.260624 -6.2833,2.77314 -1.9322,6.372653 9.2564,7.657375 36.4888,10.127258 41.5401,18.828261 3.7963,6.539312 -33.2708,26.9310269 -19.5356,18.1523769"
       id="path10053" />
    <path
       style="fill:none;stroke:#ffffff;stroke-width:1.5;stroke-dasharray:none"
       d="m 676.29778,149.64163 c 22.90201,-4.31266 3.92354,-13.04063 1.82481,-9.75207 -1.77913,2.78778 0.63391,7.54036 -1.82481,9.75207 -4.5607,4.10252 -12.58441,2.84514 -16.95947,7.1451 -7.06998,6.94859 -7.61443,22.86254 -5.25954,31.47695 3.45243,12.62935 11.8161,18.29204 20.39432,27.51828 0.57283,0.61608 1.92755,1.30153 1.50271,2.02763 -0.92325,1.57795 -15.20048,-3.42807 -16.74482,-3.8622"
       id="path10055" />
    <path
       style="fill:none;stroke:#ffffff;stroke-width:1.5;stroke-dasharray:none"
       d="m 646.77976,208.34716 c -39.04485,-17.59161 33.99996,-12.31405 43.15009,-8.78649"
       id="path10057" />
    <path
       style="fill:none;stroke:#ffffff;stroke-width:1.5;stroke-dasharray:none"
       d="m 726.42489,213.56115 c -10.61546,-12.65486 -26.74925,14.24559 -19.75023,22.30427 9.50341,10.94226 32.24538,-7.26226 36.28039,-16.02817 0.92241,-2.0039 0.81061,-6.46919 -1.39538,-6.46919 -9.00244,0 6.33831,36.58949 19.96489,24.33187"
       id="path10059" />
    <path
       style="fill:none;stroke:#ffffff;stroke-width:1.5;stroke-dasharray:none"
       d="m 762.3833,194.34668 c 3.43481,5.95424 7.15563,11.7524 10.30443,17.86269 2.54804,4.94453 4.58866,10.1356 6.76237,15.25574 9.78269,23.04301 3.94264,5.15244 14.27603,-15.06265 0.71551,-1.39973 2.29249,-2.73566 3.86417,-2.70354 12.96156,0.26506 21.21471,31.81564 12.12924,41.13255 -10.30314,10.5656 -25.34006,-2.98035 -27.2639,-13.71082"
       id="path10061" />
    <path
       style="fill:none;stroke:#ffffff;stroke-width:1.5;stroke-dasharray:none"
       d="m 910.9397,111.11607 c -4.6513,3.05761 -10.28832,4.98388 -13.95391,9.17279 -22.53819,25.75576 -19.78285,66.63854 4.40078,89.69978 6.34604,6.05147 22.05623,18.1859 25.76132,4.24839"
       id="path10063" />
    <path
       style="fill:none;stroke:#ffffff;stroke-width:1.5;stroke-dasharray:none"
       d="m 959.24201,136.317 c -1.39367,5.67134 -13.99395,48.40864 -15.34944,48.76035 -1.80845,0.46927 -2.00361,-3.15412 -3.0054,-4.7312"
       id="path10065" />
    <path
       style="fill:none;stroke:#ffffff;stroke-width:1.5;stroke-dasharray:none"
       d="m 939.81376,154.37283 c 14.63722,2.63853 21.59063,16.37884 34.02626,22.5939"
       id="path10067" />
    <path
       style="fill:none;stroke:#ffffff;stroke-width:1.5;stroke-dasharray:none"
       d="m 997.13256,167.31122 c -7.24736,16.10992 -6.12801,36.20082 -15.88619,51.17425"
       id="path10069" />
    <path
       style="fill:none;stroke:#ffffff;stroke-width:1.5;stroke-dasharray:none"
       d="m 1036.8478,133.80655 c 3.6601,6.51447 3.6125,47.98793 -6.655,47.98793 -1.879,0 -3.5064,-1.35178 -5.2596,-2.02766"
       id="path10071" />
    <path
       style="fill:none;stroke:#ffffff;stroke-width:1.5;stroke-dasharray:none"
       d="m 1007.5443,155.53149 c -28.04034,-31.57522 23.8051,-0.0433 28.5521,8.49685"
       id="path10073" />
    <path
       style="fill:none;stroke:#ffffff;stroke-width:1.5;stroke-dasharray:none"
       d="m 1070.4446,172.62175 c 1.4073,7.21383 -12.4499,33.53757 -3.3274,37.36689"
       id="path10075" />
    <path
       style="fill:none;stroke:#ffffff;stroke-width:1.5;stroke-dasharray:none"
       d="m 1098.6747,139.79301 c 0.3906,-18.49868 32.3846,-13.37399 25.4392,4.15185 -4.0194,10.14251 -14.7162,20.44721 -16.3155,31.38043 -1.226,8.38112 24.4194,9.47348 14.1687,-6.66229 -7.9073,-2.99322 -15.7267,-6.22979 -23.7218,-8.97965 -2.0478,-0.70431 -8.4134,-0.84759 -6.3329,-1.44832 13.9611,-4.03117 38.4376,-4.08172 49.3757,-13.32464 1.2591,-1.06403 0.7156,-3.21849 1.0734,-4.82773"
       id="path10077" />
    <path
       style="fill:none;stroke:#ffffff;stroke-width:1.5;stroke-dasharray:none"
       d="m 1138.9266,84.756512 c 5.2953,4.344993 11.7571,7.56947 15.8861,13.034984 4.8848,6.466124 7.4703,14.409574 10.5192,21.918034 12.2999,30.2905 21.0079,76.19603 -9.4458,99.54839"
       id="path10079" />
    <path
       style="fill:none;stroke:#ffffff;stroke-width:1.5;stroke-dasharray:none"
       d="m 1258.931,141.43441 c 6.6067,-7.99335 75.6325,-10.34862 30.8061,0.869"
       id="path10081" />
    <path
       style="fill:none;stroke:#ffffff;stroke-width:1.5;stroke-dasharray:none"
       d="m 1248.9485,158.42812 c 16.1063,9.05674 42.1653,5.11514 60.2169,1.44838"
       id="path10083" />
    <path
       style="fill:none;stroke:#ffffff;stroke-width:1.5;stroke-dasharray:none"
       d="m 1427.4525,105.22621 c -3.7569,-1.35176 -7.2868,-4.32075 -11.2706,-4.0553 -17.4132,1.16031 -33.3553,25.60225 -27.4787,42.00152 7.9983,22.32009 52.4658,41.19848 7.0843,23.26981 -63.9948,-12.90411 -18.1886,-13.6638 -13.4172,-11.29699 5.2376,2.59809 7.8396,9.54397 13.4172,11.29699 16.9355,-3.6857 9.238,-4.90539 23.2926,2.02766"
       id="path10085" />
    <path
       style="fill:none;stroke:#ffffff;stroke-width:1.5;stroke-dasharray:none"
       d="m 1459.7612,155.53149 c 1.1092,6.05081 2.0771,12.12919 3.3276,18.15237 0.9687,4.66604 2.0271,9.31926 3.3275,13.90394 0.9207,3.24583 2.1793,6.38651 3.3275,9.55897 3.5676,9.85679 1.9617,13.76471 3.5422,4.82775 0.027,-0.15442 4.5241,-24.49709 11.8071,-19.40761 26.6954,18.65508 -6.4017,51.57811 -11.2705,18.7317"
       id="path10087" />
    <path
       style="fill:none;stroke:#ffffff;stroke-width:1.5;stroke-dasharray:none"
       d="m 1540.0505,154.66247 c -7.3913,0.96242 -31.6824,19.85547 -18.677,25.58713 13.6,5.99372 30.6363,0.70332 41.8621,-7.82095 5.544,-4.20983 4.7671,-13.07703 0.2146,-9.26928 -10.522,8.80079 3.8862,27.93013 9.9826,34.47018 2.2642,2.42901 4.9036,4.4799 7.4063,6.66232 1.1496,1.00243 4.8298,3.71422 3.5422,2.8966 -0.769,-0.48828 -1.5028,-1.02989 -2.2541,-1.54484"
       id="path10089" />
    <path
       style="fill:none;stroke:#ffffff;stroke-width:1.5;stroke-dasharray:none"
       d="m 1641.4853,45.072339 c -11.5668,23.254615 -24.8268,44.812105 -29.518,70.968081 -10.0919,56.26756 17.9814,104.10809 79.4304,91.82396"
       id="path10091" />
    <path
       style="fill:none;stroke:#ffffff;stroke-width:1.5;stroke-dasharray:none"
       d="m 1719.413,113.72306 c -2.111,4.02315 -4.6302,7.85726 -6.333,12.06942 -1.7273,4.27281 -8.3267,48.16642 -11.9145,41.71183"
       id="path10093" />
    <path
       style="fill:none;stroke:#ffffff;stroke-width:1.5;stroke-dasharray:none"
       d="m 1685.494,134.86867 c 19.3694,10.4371 40.1258,26.31559 60.3242,31.76667"
       id="path10095" />
    <path
       style="fill:none;stroke:#ffffff;stroke-width:1.5;stroke-dasharray:none"
       d="m 1772.7603,162.00068 c -3.6049,-1.57136 -17.7591,29.15349 -6.0111,22.59394"
       id="path10097" />
    <path
       style="fill:none;stroke:#ffffff;stroke-width:1.5;stroke-dasharray:none"
       d="m 1800.1316,122.02683 c -6.6202,5.1912 -4.9103,40.69688 -6.9772,44.41541 -0.2827,0.50875 -1.0733,-0.45058 -1.61,-0.67587"
       id="path10099" />
    <path
       style="fill:none;stroke:#ffffff;stroke-width:1.5;stroke-dasharray:none"
       d="m 1768.4667,137.7653 c 19.647,6.6562 12.0393,1.90193 24.1513,11.87633"
       id="path10101" />
    <path
       style="fill:none;stroke:#ffffff;stroke-width:1.5;stroke-dasharray:none"
       d="m 1826.0001,160.55238 c -1.7133,2.8575 -16.0896,30.80131 -6.2257,31.18731"
       id="path10103" />
    <path
       style="fill:none;stroke:#ffffff;stroke-width:1.5;stroke-dasharray:none"
       d="m 1844.7843,126.85463 c 3.7211,-2.607 6.8956,-6.26214 11.1633,-7.82098 2.398,-0.87593 9.6252,1.87907 10.4118,5.02081 2.7246,10.88118 -22.3317,34.16207 -16.7448,40.64976 4.5037,5.22978 40.1338,1.69905 23.9364,-8.01404"
       id="path10105" />
    <path
       style="fill:none;stroke:#ffffff;stroke-width:1.5;stroke-dasharray:none"
       d="m 1852.9422,153.79349 c -33.8374,-1.1467 -0.2135,0.0317 0,0 4.8848,-0.72646 24.098,-6.14627 27.2638,-10.62106"
       id="path10107" />
    <path
       style="fill:none;stroke:#ffffff;stroke-width:1.5;stroke-dasharray:none"
       d="m 1869.5795,59.459084 c 5.7605,6.179531 13.8431,10.8219 17.2816,18.538592 17.6058,39.511604 23.0273,83.173564 -5.045,118.280124 -6.7022,8.38163 -7.396,8.32257 -13.8466,11.58658"
       id="path10109" />
  </g>
</svg>
