<?xml version="1.0" encoding="UTF-8" standalone="no"?>
<!-- Created with Inkscape (http://www.inkscape.org/) -->

<svg
   width="798.8548mm"
   height="1168.0422mm"
   viewBox="0 0 798.85478 1168.0423"
   version="1.1"
   id="svg12"
   inkscape:version="1.2.1 (9c6d41e410, 2022-07-14, custom)"
   sodipodi:docname="partial_function.svg"
   xml:space="preserve"
   xmlns:inkscape="http://www.inkscape.org/namespaces/inkscape"
   xmlns:sodipodi="http://sodipodi.sourceforge.net/DTD/sodipodi-0.dtd"
   xmlns="http://www.w3.org/2000/svg"
   xmlns:svg="http://www.w3.org/2000/svg"><sodipodi:namedview
     id="namedview14"
     pagecolor="#000000"
     bordercolor="#ffffff"
     borderopacity="1"
     inkscape:showpageshadow="0"
     inkscape:pageopacity="0"
     inkscape:pagecheckerboard="0"
     inkscape:deskcolor="#000000"
     inkscape:document-units="mm"
     showgrid="true"
     inkscape:zoom="0.32391637"
     inkscape:cx="1336.7648"
     inkscape:cy="3821.9742"
     inkscape:window-width="1366"
     inkscape:window-height="746"
     inkscape:window-x="0"
     inkscape:window-y="0"
     inkscape:window-maximized="1"
     inkscape:current-layer="layer1"
     inkscape:lockguides="true"><inkscape:grid
       type="xygrid"
       id="grid344"
       color="#969696"
       opacity="0.39215686"
       empcolor="#ffffff"
       empopacity="0.17254902"
       dotted="false"
       originx="-3650.4733"
       originy="-3644.1428" /></sodipodi:namedview><defs
     id="defs9" /><g
     inkscape:label="Layer 1"
     inkscape:groupmode="layer"
     id="layer1"
     transform="translate(-3755.4734,-3792.6427)"><path
       style="fill:none;stroke:#ff9955;stroke-width:3"
       d="m 3799.0553,4230.5104 c 1.845,-2.4498 3.8939,-4.7586 5.5349,-7.3496 1.8393,-2.9043 3.0773,-6.1582 4.8757,-9.0882 6.2246,-10.1401 13.2183,-18.1946 21.9633,-26.1186"
       id="path921" /><path
       style="fill:none;stroke:#ff9955;stroke-width:3"
       d="m 3783.3296,4045.8225 c 11.5668,-0.8676 23.1597,-0.4437 34.7461,-0.9877 23.3476,-1.0967 46.6879,-2.4614 70.063,-2.8451 38.7374,-0.6358 77.5727,0.1413 116.3182,0.5136 27.0447,0.2598 54.0859,0.45 81.1329,0.4744 18.9722,0.016 37.9913,0 56.9291,-1.3041 12.1158,-0.8327 24.1848,-2.1728 36.2834,-3.2007 0.9223,-0.078 13.0585,0.011 15.4183,-1.3039 1.6156,-0.8996 -2.0955,-3.5412 -2.2402,-3.6354 -3.0911,-2.0126 -17.6401,-4.5294 -7.9947,-6.8752 4.7996,-1.1673 10.4111,-1.905 15.1988,0 2.6259,1.0446 -0.8158,5.8338 -2.5041,8.1003 -5.2615,7.0638 -12.2737,12.1562 -15.6816,20.5076"
       id="path986" /><path
       style="fill:none;stroke:#ff9955;stroke-width:3"
       d="m 3778.0583,4047.4425 c 4.4471,-3.025 22.5025,-21.6717 21.7876,-26.2371 -0.6305,-4.027 -16.9434,9.8107 -16.6481,15.9636 0.2119,4.418 13.571,6.699 16.6042,15.1733 0.8139,2.2736 1.1626,15.689 3.1189,14.6992"
       id="path988" /><path
       style="fill:none;stroke:#ff9955;stroke-width:3"
       d="m 3979.6382,3906.4572 c 0.3032,5.3435 0.2998,3.5025 0.088,10.0364 -0.3548,10.9524 -1.2036,21.8827 -1.5373,32.8361 -0.5834,19.15 -0.029,38.3101 -1.0104,57.4532 -1.1491,22.4214 -3.1316,44.7675 -3.9095,67.2129 -0.7824,22.5772 -0.2161,45.2554 -1.4936,67.8059 -0.8821,15.5749 -1.9902,31.1547 -2.5915,46.745 -0.5417,14.0403 -0.4572,28.0807 -1.0983,42.1219 -0.3694,8.0939 0.1894,16.2676 -0.9663,24.3009"
       id="path992" /><path
       style="fill:none;stroke:#ff9955;stroke-width:3"
       d="m 3967.7341,3899.5423 c -5.7592,13.761 0.3545,-0.2958 -6.2815,13.3159 -1.1038,2.2646 -4.7056,7.4547 -2.1963,7.2311 5.3126,-0.4731 15.9957,-13.0905 20.1184,-17.7416 0.164,-0.1852 3.007,-3.8367 3.0311,-3.7539 0.6987,2.4251 -0.1707,8.6307 0.7027,12.4073 1.4018,6.0611 4.3352,11.403 7.0284,16.9516"
       id="path994" /><path
       style="fill:none;stroke:#ff9955;stroke-width:3"
       d="m 3963.4293,4260.1458 c 1.7939,-9.9642 -10.4111,-18.5216 -11.3331,-27.9757 -0.2562,-2.6262 4.1108,3.4089 5.6226,5.5713 5.8209,8.3249 10.1103,17.5374 15.6819,25.9607 2.5529,3.8597 3.1792,-3.066 3.7777,-4.6231 2.4215,-6.2997 4.9853,-16.1136 11.6406,-19.6384 2.1082,-1.1165 4.422,1.7912 6.6328,2.6868"
       id="path996" /><path
       style="fill:none;stroke:#ff9955;stroke-width:3"
       d="m 3867.6689,4088.8927 c 9.9746,-0.061 16.7148,-3.1446 23.1495,-11.1035 6.2616,-7.7446 6.1378,-20.9175 6.9842,-29.7143 1.6455,-17.0985 1.0904,-39.7288 16.0335,-51.5657 5.8507,-4.6345 17.0624,-5.4179 24.0279,-6.2431 13.2582,-1.5711 25.5166,1.347 38.5677,2.9239 13.5179,1.6335 27.6813,0.8802 41.1594,-0.7506 21.0122,-2.5427 41.4727,-8.4609 62.3322,-11.9727 14.9383,-2.5151 31.6436,-5.6383 45.6837,2.0942 26.276,14.4711 32.2093,51.7067 18.4933,76.6963 -2.9387,5.3541 -6.5381,10.378 -10.4547,15.0548 -6.1593,7.3546 -12.8582,13.0472 -16.2089,22.4044 -8.4926,23.7162 7.7824,49.1593 -20.0306,64.1705 -17.9411,9.6832 -28.8094,-8.3797 -43.6194,-15.4893 -11.593,-5.5655 -28.6264,-8.4648 -41.4229,-9.3252 -27.5252,-1.8513 -42.7541,6.835 -68.3501,13 -14.2566,3.4338 -29.0989,5.7158 -43.7949,5.769 -8.9929,0.032 -26.9849,-2.6794 -31.6714,-11.9332 -2.4958,-4.9284 -3.9201,-11.6351 -2.5477,-17.0305 0.7765,-3.053 3.646,-6.2582 3.646,-9.4043 0,-4.2405 -3.5463,-5.9375 -5.447,-9.1673 -3.0933,-5.256 0.9654,-13.7742 3.4702,-18.4134 z"
       id="path998" /><path
       style="fill:none;stroke:#ff9955;stroke-width:3"
       d="m 4066.9208,4030.2147 c -0.205,1.4356 -0.4976,2.8615 -0.6149,4.3069 -0.4243,5.2305 -0.1674,10.5598 -0.2635,15.8057 -0.018,0.9747 -0.1175,3.8986 -0.088,2.9239 0.2333,-7.6957 0.8242,-15.3308 0.9662,-23.0365 z"
       id="path1000" /><path
       style="fill:none;stroke:#ff9955;stroke-width:3"
       d="m 4070.479,4067.2786 c -3.4576,4.3572 -5.047,9.6983 -6.9845,14.8177 -0.5625,1.487 -1.7071,6.1249 -1.3176,4.5837 1.7806,-7.048 -0.4075,-12.36 -1.3179,-19.1643 -0.062,-0.4623 0.1196,-1.5664 0.9662,-0.7903 0.6374,0.5839 1.1393,1.312 1.5814,2.0547 2.6218,4.4037 7.4441,17.3681 12.4315,19.362"
       id="path1002" /><path
       style="fill:none;stroke:#ff9955;stroke-width:3"
       d="m 4068.7219,4029.6615 c -0.4535,-5.0419 -0.566,-10.0793 -0.7906,-15.1339"
       id="path1004" /><path
       style="fill:none;stroke:#ff9955;stroke-width:3"
       d="m 4066.6573,3988.1719 c -0.2461,-6.5021 0.3953,-13.0336 0.3953,-19.5593"
       id="path1006" /><path
       style="fill:none;stroke:#ff9955;stroke-width:3"
       d="m 4067.5796,3961.1444 c -0.1023,-1.1459 -0.2047,-2.2918 -0.3074,-3.4377"
       id="path1008" /><path
       style="fill:none;stroke:#ff9955;stroke-width:3"
       d="m 4068.8536,3950.9498 c -0.63,-4.128 0.2209,-8.0349 1.1422,-12.0124"
       id="path1010" /><path
       style="fill:none;stroke:#ff9955;stroke-width:3"
       d="m 4071.2256,3981.6126 c -0.1214,5.347 -0.5839,10.6945 -0.3953,16.0425 10e-5,8.826 0.2233,5.6462 -0.088,9.5624"
       id="path1012" /><path
       style="fill:none;stroke:#ff9955;stroke-width:3"
       d="m 4068.5462,4057.7954 c -0.5858,3.0774 -0.6652,6.1746 -0.4832,9.2856"
       id="path1014" /><path
       style="fill:none;stroke:#ff9955;stroke-width:3"
       d="m 4067.9752,4075.2209 c -0.2641,1.7549 -0.013,3.5319 -0.3956,5.2554"
       id="path1016" /><path
       style="fill:none;stroke:#ff9955;stroke-width:3"
       d="m 4068.063,4087.8259 c -1.14,4.8001 -0.2447,9.3866 -1.1861,14.1854 -0.3807,3.0031 -0.7613,6.0061 -1.142,9.0092"
       id="path1018" /><path
       style="fill:none;stroke:#ff9955;stroke-width:3"
       d="m 4065.4712,4128.6437 c -0.059,1.2644 -0.117,2.5289 -0.1757,3.7933 -0.029,0.145 -0.059,0.2897 -0.088,0.4347"
       id="path1020" /><path
       style="fill:none;stroke:#ff9955;stroke-width:3"
       d="m 4065.6908,4165.6681 c 0,4.4257 0,4.4257 0,0 z"
       id="path1022" /><path
       style="fill:none;stroke:#ff9955;stroke-width:3"
       d="m 4064.1536,4170.963 c 0.1791,-2.327 0.6879,-4.6345 0.9223,-6.9543"
       id="path1024" /><path
       style="fill:none;stroke:#ff9955;stroke-width:3"
       d="m 4065.6908,4158.9509 c -0.2585,-3.9066 -0.4128,-2.2275 0.088,-5.0578"
       id="path1026" /><path
       style="fill:none;stroke:#ff9955;stroke-width:3"
       d="m 4066.8769,4137.0207 c -0.029,-1.3171 -0.059,-2.6342 -0.088,-3.9516"
       id="path1028" /><path
       style="fill:none;stroke:#ff9955;stroke-width:3"
       d="m 4066.9208,4127.8534 c -0.1317,-1.1592 -0.2635,-2.318 -0.3953,-3.4772"
       id="path1030" /><path
       style="fill:none;stroke:#ff9955;stroke-width:3"
       d="m 3762.179,3875.1684 c -3.671,8.7148 -8.6862,18.2985 -1.0101,26.3162 0.2093,0.2188 9.3231,6.21 9.2244,7.9817"
       id="path1032" /><path
       style="fill:none;stroke:#ff9955;stroke-width:3"
       d="m 3756.9517,3904.0923 c 0.2783,-1.62 -0.043,-3.4702 0.8347,-4.8601 2.1053,-3.3324 9.9907,-8.3844 14.2322,-7.1125"
       id="path1034" /><path
       style="fill:none;stroke:#ff9955;stroke-width:3"
       d="m 3787.7883,3849.2471 c -4.6595,0.8853 -3.1964,18.3312 -4.8318,16.0428"
       id="path1036" /><path
       style="fill:none;stroke:#ff9955;stroke-width:3"
       d="m 3775.6646,3855.0558 c 7.7592,-2.0212 15.9509,3.5758 18.0538,11.1429"
       id="path1038" /><path
       style="fill:none;stroke:#ff9955;stroke-width:3"
       d="m 3800.3515,3884.2959 c 0.08,4.5408 0.308,22.2684 -2.9871,23.1947"
       id="path1040" /><path
       style="fill:none;stroke:#ff9955;stroke-width:3"
       d="m 3788.1836,3893.0682 c -5.0583,-10.8699 6.4302,-1.6663 9.1369,0.5927"
       id="path1042" /><path
       style="fill:none;stroke:#ff9955;stroke-width:3"
       d="m 3848.1877,3872.6395 c -8.6892,3.3668 -11.6454,-15.0458 -5.0514,-16.7934 5.6472,-1.497 8.1335,9.2517 7.8628,12.7233"
       id="path1044" /><path
       style="fill:none;stroke:#ff9955;stroke-width:3"
       d="m 3854.8208,3849.0101 c 4.7268,4.7995 5.9764,11.7094 7.4673,18.0578 0.3498,1.4885 -0.282,-3.0583 -0.1757,-4.5837 0.2326,-3.3345 0.6041,-7.7515 2.9433,-10.55 4.6693,-5.5864 9.4117,9.0051 9.576,11.3009 0.09,1.2623 -0.3807,2.5024 -0.5712,3.7539"
       id="path1046" /><path
       style="fill:none;stroke:#ff9955;stroke-width:3"
       d="m 3911.8377,3875.9981 c 1.9743,5.6507 -1.1597,-7.4462 -2.0645,-11.9333 -0.5581,-2.767 -3.537,-16.4266 -4.3048,-19.2431 -0.6562,-2.4069 -1.5523,-4.7419 -2.3284,-7.1125 0.2705,-5.2709 -1.1331,-11.5148 3.8218,-15.3314 4.6672,-3.595 10.0654,3.9939 11.3331,7.073 2.8427,6.9041 -0.013,14.1151 -5.3151,18.9271 -1.6032,1.4549 -3.7293,2.2036 -5.5348,3.3982 -0.8188,0.5418 1.9625,0.07 2.9431,0.1186 5.264,0.2616 24.436,2.604 20.2063,11.7356"
       id="path1048" /><path
       style="fill:none;stroke:#ff9955;stroke-width:3"
       d="m 4164.6378,4004.8028 c -0.6882,-1.1853 -2.0119,-2.1865 -2.0645,-3.5563 -0.267,-6.9683 22.2355,-17.6358 26.6636,-18.8481 8.7839,-2.4048 17.7514,-4.2632 26.7954,-5.3342 5.5983,-0.6631 11.284,-0.1749 16.9117,0.1579 28.2717,1.6724 56.8896,8.4892 82.7582,20.0335 9.9721,4.4505 18.5004,10.2166 27.7177,15.8451 0.2379,0.1452 -0.2804,-0.4821 -0.4392,-0.7112 -0.7641,-1.1018 -1.6515,-2.1223 -2.328,-3.2795 -1.9855,-3.3968 -4.6025,-9.339 -5.3153,-12.9212 -0.4992,-2.5088 -0.6426,-5.1245 -0.3513,-7.6655 0.6688,-5.8362 6.6206,-12.0947 12.6508,-7.0731 2.8598,2.3812 1.2041,8.2274 0.1317,10.5502 -6.1235,13.2623 -18.252,23.5709 -30.0897,31.6505 -4.2384,2.8927 -3.874,3.0091 -3.075,0.3953"
       id="path1050" /><path
       style="fill:none;stroke:#ff9955;stroke-width:3"
       d="m 4334.1937,4083.9818 c 2.5331,-0.6321 5.0284,-1.4428 7.5993,-1.8966 7.0641,-1.2467 14.2904,-1.2689 21.4363,-1.8968 19.5083,-1.7134 38.9641,-2.7051 58.5544,-3.003 22.0379,-0.335 44.3034,-1.0377 66.3295,0.3953 3.6991,0.2405 7.3945,0.581 11.0696,1.0668 5.7012,0.7535 11.8803,1.9841 17.5268,3.3586 1.289,0.3138 2.8847,1.1494 4.2608,1.3041 2.2154,0.249 4.7136,-0.9406 6.9406,-1.1459 1.33,-0.1227 4.0764,0.9639 5.1832,0.079 1.8883,-1.5097 -2.63,-6.4858 -2.8112,-6.6778 -1.6127,-1.7069 -3.3822,-3.2899 -5.3152,-4.6231 -2.0439,-1.4097 -4.3088,-2.4773 -6.545,-3.5563 -2.0008,-0.9652 -4.5075,-1.0726 -6.1497,-2.5683 -0.6681,-0.6085 1.7348,-0.562 2.6355,-0.6323 2.146,-0.1678 4.3137,-0.2771 6.4571,-0.079 6.4204,0.5935 18.1957,2.1476 19.6353,10.6291 1.6031,9.443 -6.6908,16.6275 -12.6508,22.365 -3.0996,2.9837 -8.2836,7.0625 -10.8061,10.787 -0.3101,0.4583 -0.5093,1.6598 0.044,1.6598 1.4023,0 2.577,-1.1065 3.8656,-1.6598"
       id="path1052" /><path
       style="fill:none;stroke:#ff9955;stroke-width:3"
       d="m 4514.8453,4012.8866 c 0.1172,1.8307 0.108,3.674 0.3514,5.4922 4.4143,32.9677 -0.8821,-12.2441 2.5479,15.6872 0.01,0.061 0.9306,12.3957 0.7467,7.2705"
       id="path1054" /><path
       style="fill:none;stroke:#ff9955;stroke-width:3"
       d="m 4531.0103,4049.0022 c 1.2369,3.1354 0.2606,0.8711 -0.6149,-4.228 -0.5503,-3.2052 -1.0491,-6.4198 -1.4936,-9.6414 -0.522,-3.7862 -0.5087,-7.6645 -1.4054,-11.38 -0.9015,-3.7349 -3.4719,-7.0152 -3.9534,-10.8268 -0.1014,-0.8014 3.8124,-15.7617 0,0 1.0267,-3.6943 2.3921,-10.9009 5.4469,-14.0273 1.0014,-1.0249 8.3743,-5.3333 10.4985,-2.1338 6.3758,9.6032 -0.4576,17.993 -5.5787,25.605 -2.3788,3.5357 -5.6923,7.016 -4.6123,7.8633 4.9154,3.856 20.1277,-2.9588 23.5887,9.1277"
       id="path1056" /><path
       style="fill:none;stroke:#ff9955;stroke-width:3"
       d="m 3923.8244,3804.8934 c 0.2635,-1.4621 0.2606,-2.9982 0.7906,-4.386 0.061,-0.1606 2.881,-6.2227 4.7881,-6.3616 4.2947,-0.3133 -3.6309,17.8652 -3.4263,18.769 0.3497,1.546 2.1828,-1.3716 7.6432,-3.0821 5.3102,-1.6632 8.3326,-1.4116 10.8498,3.5168"
       id="path1058" /><path
       style="fill:none;stroke:#ff9955;stroke-width:3"
       d="m 3888.8388,3821.5627 c 2.1373,21.8525 4.2984,43.7126 6.5889,65.5537"
       id="path1060" /><path
       style="fill:none;stroke:#ff9955;stroke-width:3"
       d="m 3887.1023,4295.3862 c -5.3467,-6.3029 -0.3627,-9.2496 0.4392,-4.1095 0.2125,1.361 -0.2926,2.7395 -0.4392,4.1095 z"
       id="path1062" /><path
       style="fill:none;stroke:#ff9955;stroke-width:3"
       d="m 3889.9577,4313.839 c 1.8876,6.1707 0.6538,12.5347 0.8784,18.8482 0.1305,3.6687 0.7361,5.1564 1.3618,4.8998 0.8713,-0.3577 1.025,-1.5806 1.5375,-2.3709"
       id="path1064" /><path
       style="fill:none;stroke:#ff9955;stroke-width:3"
       d="m 3904.2338,4315.6962 c 4.4726,-0.938 2.7517,-11.9719 0.6149,-4.8602 -0.4699,1.564 -0.1185,3.3044 -0.6149,4.8602 -0.8781,2.7524 -2.9905,5.0932 -3.4702,7.9422 -0.5543,3.293 5.4157,5.9785 6.8087,6.7569"
       id="path1066" /><path
       style="fill:none;stroke:#ff9955;stroke-width:3"
       d="m 3899.8851,4329.2889 c 4.6228,-3.7973 9.7177,-3.369 15.0228,-1.5015"
       id="path1068" /><path
       style="fill:none;stroke:#ff9955;stroke-width:3"
       d="m 3949.2149,4313.5229 c 0.5709,1.3435 1.1631,2.6783 1.7131,4.0304 0.7091,1.7433 1.3552,3.512 2.0646,5.2554 0.7696,1.892 1.5605,3.7759 2.372,5.6504 3.5867,8.2849 0.8239,-6.6355 1.9327,-6.9149 1.0766,-0.2712 8.2736,13.802 10.1471,9.9576 1.2496,-2.5643 -0.6586,-5.77 0.3953,-8.219 1.4398,-3.3456 9.0066,-1.1493 9.6639,-7.3099 0.1243,-1.1639 -0.5099,-6.0232 -3.0308,-5.2948 -2.7991,0.8083 -4.2762,4.7733 -4.7882,7.0334 -5.1821,22.8759 25.0386,13.7663 22.9738,7.0334"
       id="path1070" /><path
       style="fill:none;stroke:#ff9955;stroke-width:3"
       d="m 4033.0272,4306.2524 c 5.0763,-2.6882 -1.0224,-4.676 -1.7132,-3.5563 -4.7588,7.7134 -6.8159,15.6282 0.7467,22.1279 1.4329,1.2314 5.1395,2.5556 5.1395,4.0698"
       id="path1072" /><path
       style="fill:none;stroke:#ff9955;stroke-width:3"
       d="m 4026.0427,4324.0337 c -0.1849,-6.041 8.1592,-12.2605 11.9041,-5.9272"
       id="path1074" /><path
       style="fill:none;stroke:#ff9955;stroke-width:3"
       d="m 4044.3603,4319.7266 c 2.3567,-4.5503 3.2719,-5.8304 1.4055,-9.918"
       id="path1076" /><path
       style="fill:none;stroke:#ff9955;stroke-width:3"
       d="m 4043.2621,4301.2737 c -1.3656,-5.8957 -1.1237,-6.8064 2.2841,-11.0641"
       id="path1078" /><path
       style="fill:none;stroke:#ff9955;stroke-width:3"
       d="m 4052.882,4288.3525 c 1.6108,0.303 3.3528,0.203 4.8321,0.9089 6.2804,2.9977 4.4641,27.6275 1.4494,31.4134 -0.4887,0.6141 -1.4446,-0.7868 -1.8449,-1.4618"
       id="path1080" /><path
       style="fill:none;stroke:#ff9955;stroke-width:3"
       d="m 4047.7864,4297.5989 c 9.3668,2.7318 20.7868,6.5328 26.9272,14.8177"
       id="path1082" /><path
       style="fill:none;stroke:#ff9955;stroke-width:3"
       d="m 4134.3663,4286.7325 c -2.2685,9.3049 -4.9202,18.5131 -7.0284,27.8574 -0.6853,3.0377 -0.7448,6.2376 -1.801,9.1671 -0.5559,1.5419 -0.4818,-3.2428 -0.7467,-4.8602"
       id="path1084" /><path
       style="fill:none;stroke:#ff9955;stroke-width:3"
       d="m 4119.5629,4294.3191 c -0.3953,-1.8044 -1.0409,-3.5718 -1.1859,-5.4133 -0.1773,-2.2471 3.5414,2.8318 5.0075,4.5442 8.8696,10.3592 17.363,21.5678 27.4103,30.8208"
       id="path1086" /><path
       style="fill:none;stroke:#ff9955;stroke-width:3"
       d="m 4203.4191,4295.7418 c -1.5084,2.2437 2.0365,12.9254 3.5142,12.9604 1.7071,0.04 1.8939,-10.1971 2.0206,-10.155 1.0335,0.3424 3.3528,9.2006 6.4133,10.392 3.4152,1.3298 1.7311,-8.5264 2.1963,-9.4832 0.052,-0.1066 2.2918,1.0226 3.9973,0.9483 2.7114,-0.118 4.0235,-0.5741 6.3257,-1.9756 3.8089,-2.3189 0.3728,-6.8321 -2.0207,-6.0852 -12.9746,4.0492 1.7881,23.9427 11.8163,15.9242 1.5558,-1.2441 1.9913,-3.4509 2.9869,-5.1763"
       id="path1088" /><path
       style="fill:none;stroke:#ff9955;stroke-width:3"
       d="m 4253.2761,4286.9301 c -5.9565,1.0221 -8.5008,26.0586 0.6149,20.2311 2.1043,-1.3451 3.6605,-3.3983 5.4909,-5.0972"
       id="path1090" /><path
       style="fill:none;stroke:#ff9955;stroke-width:3"
       d="m 4261.0073,4291.9879 c -1.0147,0.3617 -0.1419,8.5238 2.5916,7.6261 2.4206,-0.7948 2.1507,-5.0244 2.2402,-6.8755 0.019,-0.3826 -0.1276,-1.4626 0.088,-1.1459 2.454,3.6124 2.8282,8.7326 5.5348,12.2494"
       id="path1092" /><path
       style="fill:none;stroke:#ff9955;stroke-width:3"
       d="m 4269.0019,4289.2219 c 3.4065,-0.7704 5.4179,8.0659 6.2376,8.1794 0.5315,0.073 0.1325,-1.0732 0.3074,-1.5806 0.245,-0.711 1.0988,-3.4378 2.5477,-3.4378 3.602,0 6.5489,9.1364 7.775,11.8938"
       id="path1094" /><path
       style="fill:none;stroke:#ff9955;stroke-width:3"
       d="m 4332.367,4279.77 c -2.9488,3.1308 -7.2126,10.9537 -0.8784,14.0274 7.9607,3.8632 14.153,-14.3378 8.0385,-14.4224 -0.8781,-0.013 -0.9424,3.1136 0.6149,8.1793 1.4121,4.5934 9.6216,18.5457 6.5889,23.2341 -2.9146,4.5064 -7.0908,-4.3011 -7.9068,-5.769"
       id="path1096" /><path
       style="fill:none;stroke:#ff9955;stroke-width:3"
       d="m 4349.8059,4293.758 c 2.3363,-0.752 6.5522,-1.9497 8.7855,-3.2401 8.8448,-5.1115 2.8059,-13.3014 -2.1087,-7.7052 -2.8199,3.2112 -5.7708,6.7688 -6.6768,10.9453 -1.4869,6.8556 11.5388,6.986 13.0464,6.836 1.7647,-0.1759 2.9284,-2.0021 4.3926,-3.0033"
       id="path1098" /><path
       style="fill:none;stroke:#ff9955;stroke-width:3"
       d="m 4370.0122,4276.3322 c -0.3953,-1.3829 -0.5991,-2.8355 -1.1859,-4.1489 -0.084,-0.187 -0.5834,0.1193 -0.5273,0.3162 0.3847,1.3457 1.2663,2.5067 1.7132,3.8327 0.9323,2.766 1.3909,5.6838 2.4161,8.4167 0.6467,1.7243 7.8775,15.4414 6.2376,16.6748 -0.7274,0.5469 -1.7571,-0.4741 -2.6358,-0.7112"
       id="path1100" /><path
       style="fill:none;stroke:#ff9955;stroke-width:3"
       d="m 4368.1672,4293.5603 c 5.5467,-3.9777 12.1505,-3.0919 18.5372,-2.5289"
       id="path1102" /><path
       style="fill:none;stroke:#ff9955;stroke-width:3"
       d="m 4423.0307,4290.4364 c -0.088,-1.5542 0.5622,-3.3433 -0.2638,-4.6628 -2.6858,-4.2907 -12.4465,19.0371 -1.4933,17.4258 2.1362,-0.3144 4.2132,-1.2981 5.9301,-2.608 1.5878,-1.2113 8.5944,-8.8329 4.8757,-11.9333 -0.8244,-0.6874 -1.1237,2.2159 -0.6149,3.1613 0.9356,1.7385 2.2728,3.2422 3.6021,4.7021 1.1991,1.3171 2.653,2.3784 3.9534,3.5957 3.3803,3.1644 2.6281,2.3437 4.3487,4.3466"
       id="path1104" /><path
       style="fill:none;stroke:#ff9955;stroke-width:3"
       d="m 3905.2935,4393.2865 c -0.4098,-1.1721 -0.047,-3.1382 -1.2298,-3.5165 -1.4785,-0.4728 -23.1447,27.5799 -5.6227,26.8695 1.8595,-0.075 3.7465,-0.4689 5.447,-1.2251 2.2376,-0.9951 4.1291,-2.6342 6.1937,-3.9512"
       id="path1106" /><path
       style="fill:none;stroke:#ff9955;stroke-width:3"
       d="m 3911.7509,4388.9005 c 4.4937,6.9832 8.1521,16.1036 10.4545,23.353"
       id="path1108" /><path
       style="fill:none;stroke:#ff9955;stroke-width:3"
       d="m 3921.2391,4400.2411 c 2.5623,-0.8168 5.2041,-1.4168 7.6872,-2.4498 8.5246,-3.5467 2.7501,-13.1511 -1.7131,-1.1064 -0.679,1.8319 -0.7398,3.9248 -0.3956,5.848 1.1327,6.326 6.8371,6.8414 10.4987,2.4498"
       id="path1110" /><path
       style="fill:none;stroke:#ff9955;stroke-width:3"
       d="m 3938.9855,4393.6027 c -1.6944,1.0758 2.6567,10.6188 5.6666,7.7449 1.5452,-1.4756 1.5883,-4.2132 1.7568,-6.0457 0.069,-0.7499 -0.089,-2.9573 0.176,-2.2524 0.045,0.1196 6.9781,19.9011 5.0075,8.2981"
       id="path1112" /><path
       style="fill:none;stroke:#ff9955;stroke-width:3"
       d="m 3951.4167,4390.5997 c 1.6693,2.6342 3.3179,5.2816 5.0078,7.9028 1.0189,1.5807 2.0902,3.1274 3.1186,4.7022 0.3482,0.5329 1.0547,2.2551 1.0105,1.6201 -0.057,-0.8271 -0.7922,-1.4661 -1.0544,-2.2524 -0.5749,-1.7238 -1.2031,-3.455 -1.4494,-5.2555 -0.5252,-3.8372 -0.7376,-17.6149 6.8964,-13.8692"
       id="path1114" /><path
       style="fill:none;stroke:#ff9955;stroke-width:3"
       d="m 4011.289,4381.788 c -3.2213,2.0153 -6.6746,3.7002 -9.6639,6.0457 -10.5254,8.2587 15.3974,3.438 17.6586,15.371 0.5175,2.7318 -4.0746,12.9977 -7.3798,11.775 -2.1087,-0.78 -2.1773,-8.1309 -2.2402,-8.772"
       id="path1116" /><path
       style="fill:none;stroke:#ff9955;stroke-width:3"
       d="m 4018.1415,4386.9249 c 1.1861,-1.0933 1.9682,-3.0078 3.5581,-3.2795 2.4037,-0.4112 5.38,17.5524 5.6226,20.389"
       id="path1118" /><path
       style="fill:none;stroke:#ff9955;stroke-width:3"
       d="m 4022.007,4400.7944 c 6.8406,-6.4797 3.6801,-3.8802 9.2247,-8.1005 2.1085,1.7782 3.7,4.4892 6.3255,5.3345 2.2174,0.7139 3.0154,-7.1827 2.6356,-8.4165 -0.069,-0.2259 -0.4897,-0.7075 -0.5271,-0.4741 -0.3001,1.8715 -0.3697,10.3173 2.6356,11.1824 0.8008,0.2305 1.0543,-1.2908 1.5814,-1.9362"
       id="path1120" /><path
       style="fill:none;stroke:#ff9955;stroke-width:3"
       d="m 4044.2341,4384.7516 c 3.9402,4.6911 2.1074,2.2027 5.2711,7.1125 0.7281,1.1301 2.3055,4.7676 2.1084,3.4378 -0.803,-5.4179 -3.5165,-13.5028 0.3517,-18.374"
       id="path1122" /><path
       style="fill:none;stroke:#ff9955;stroke-width:3"
       d="m 4058.9495,4373.8458 c 1.1123,7.5959 5.175,16.3303 2.8993,24.0641"
       id="path1124" /><path
       style="fill:none;stroke:#ff9955;stroke-width:3"
       d="m 4057.8514,4388.3079 c 1.4899,-4.4236 5.4206,-6.0129 9.7079,-6.6778"
       id="path1126" /><path
       style="fill:none;stroke:#ff9955;stroke-width:3"
       d="m 4094.0031,4387.8732 c 2.5034,-2.8951 6.4542,-6.9644 8.1703,-10.6291 1.2306,-2.6279 3.5242,-7.6835 1.1861,-10.8268 -1.4965,-2.0121 -7.7393,-1.7216 -9.1368,0.2765 -0.9809,1.4026 2.2574,2.6913 3.7777,3.4772 2.3765,1.2284 18.978,8.0224 17.6146,11.5382 -3.4568,8.9135 -27.3875,5.888 -31.8029,-0.8695 -1.0131,-1.5507 -0.3514,-3.688 -0.5271,-5.5319"
       id="path1128" /><path
       style="fill:none;stroke:#ff9955;stroke-width:3"
       d="m 4137.93,4378.785 c 4.4341,1.4047 7.579,0.9665 10.4984,-3.4377 1.7468,-2.6353 -2.0251,-4.7506 -4.0413,-4.386 -3.6351,0.6575 -5.5689,4.8842 -6.4571,7.8237 -0.7168,2.3712 -1.6526,4.7961 -1.5375,7.2707 0.2685,5.7783 7.2295,7.9251 11.5967,5.4528 1.8237,-1.0324 2.7527,-3.1612 4.1291,-4.7416"
       id="path1130" /><path
       style="fill:none;stroke:#ff9955;stroke-width:3"
       d="m 4154.6659,4370.4477 c 1.4447,-8.0637 6.6651,12.1518 8.9612,9.0882 0.4786,-0.6387 4.4093,-13.3377 5.447,-10.7873 0.026,0.065 3.1027,13.1 3.9534,13.9088 0.2699,0.2567 0.4686,-0.5794 0.7027,-0.8694"
       id="path1132" /><path
       style="fill:none;stroke:#ff9955;stroke-width:3"
       d="m 4175.9265,4365.5479 c 6.7141,1.2303 4.6048,-0.3 9.093,7.0334 1.0554,1.7246 7.2662,15.0744 -0.9666,12.3285 -1.7285,-0.5768 -3.2946,-1.6999 -4.5683,-3.0033 -7.8396,-8.0216 2.7067,-11.1357 8.9612,-7.3099"
       id="path1134" /><path
       style="fill:none;stroke:#ff9955;stroke-width:3"
       d="m 4243.7961,4368.6171 c 0.9599,5.725 2.2643,11.3749 3.5581,17.0304 0.244,1.0663 3.1658,10.6614 0.5271,7.2705"
       id="path1136" /><path
       style="fill:none;stroke:#ff9955;stroke-width:3"
       d="m 4241.9073,4359.6868 c 2.2841,-2.0415 3.9735,-5.0776 6.8527,-6.1245 1.8065,-0.657 4.0608,0.3857 5.5345,1.62 12.1544,10.1793 -9.7253,25.718 -8.7413,14.7783 0.2638,-2.9337 1.8743,-5.5848 2.8112,-8.377"
       id="path1138" /><path
       style="fill:none;stroke:#ff9955;stroke-width:3"
       d="m 4266.3743,4370.6321 c -1.0101,-1.633 -2.7736,-2.9964 -3.0308,-4.8995 -0.5466,-4.0434 5.3645,-17.1358 7.3359,-6.3222 0.8088,4.4373 0.2198,8.7301 -0.703,13.0791 -1.3957,6.5789 -1.3013,3.4483 -3.6021,-1.8574 z"
       id="path1140" /><path
       style="fill:none;stroke:#ff9955;stroke-width:3"
       d="m 4276.7412,4365.8114 c 1.1729,-3.2123 -0.3357,-5.5298 -1.1422,-8.5349"
       id="path1142" /><path
       style="fill:none;stroke:#ff9955;stroke-width:3"
       d="m 4276.6095,4348.5045 c -0.9382,-0.3924 3.2491,-12.4637 6.5889,-9.76 1.0689,4.1753 2.2995,8.3126 3.2067,12.526 0.3628,1.6846 0.8891,9.1997 1.0982,10.6687 0.043,0.3034 0.2647,1.107 0.3954,0.8298 3.7342,-7.9238 5.4485,-26.0034 8.2582,-4.465 0.3953,3.003 0.7907,6.0061 1.186,9.0091 0.1464,-0.026 0.2929,-0.053 0.4393,-0.079"
       id="path1144" /><path
       style="fill:none;stroke:#ff9955;stroke-width:3"
       d="m 4301.8674,4351.5469 c 2.9916,4.1548 8.0497,18.532 3.602,21.7326"
       id="path1146" /><path
       style="fill:none;stroke:#ff9955;stroke-width:3"
       d="m 4300.5495,4365.0608 c 0.4392,-1.8045 0.2683,-3.8812 1.3179,-5.4134 2.2955,-3.3515 8.1537,-3.5994 11.5088,-2.4103"
       id="path1148" /><path
       style="fill:none;stroke:#ff9955;stroke-width:3"
       d="m 4345.4427,4349.0972 c -2.5916,1.4882 -5.8986,2.1388 -7.7751,4.4651 -1.3739,1.7034 -1.1181,4.2926 -1.0541,6.4801 0.2797,9.5946 6.1939,12.1386 10.1471,19.362"
       id="path1150" /><path
       style="fill:none;stroke:#ff9955;stroke-width:3"
       d="m 4337.0527,4371.9363 c 1.2515,-6.9417 7.6386,-5.0771 13.266,-5.1369"
       id="path1152" /><path
       style="fill:none;stroke:#ff9955;stroke-width:3"
       d="m 4359.8066,4372.0548 c -7.9176,7.0723 -10.3089,-14.7495 -4.3926,-15.1733 1.1055,-0.079 2.2617,0.5114 3.075,1.2644 5.1501,4.7681 2.5321,6.7352 1.3176,13.9089 z"
       id="path1154" /><path
       style="fill:none;stroke:#ff9955;stroke-width:3"
       d="m 4365.605,4349.9269 c 5.3401,5.0392 4.8686,3.3134 6.9405,11.1035 3.0607,11.5075 -2.9908,10.6963 -1.4935,0.4347 0.662,-4.5371 5.5612,-19.5995 12.3875,-19.3619 1.184,0.041 1.347,1.9494 2.0206,2.9241"
       id="path1156" /><path
       style="fill:none;stroke:#ff9955;stroke-width:3"
       d="m 3913.2911,4434.6843 c -0.1318,1.7648 -0.3739,3.5251 -0.3956,5.2948 -0.07,5.7153 0.3358,12.0092 0.8787,17.7023 0.264,2.7688 1.1774,5.5324 0.8784,8.2978 -0.1029,0.9538 -0.5509,0.5937 -1.0102,0.4347"
       id="path1158" /><path
       style="fill:none;stroke:#ff9955;stroke-width:3"
       d="m 3906.1748,4457.0096 c 3.7862,-4.5011 9.6351,-4.8355 14.8035,-6.7173"
       id="path1160" /><path
       style="fill:none;stroke:#ff9955;stroke-width:3"
       d="m 3922.208,4444.8787 c 0.7909,1.1591 1.6532,2.2725 2.372,3.4774 1.9627,3.2896 3.86,6.6194 5.6666,9.997 0.6263,1.1703 1.1049,2.4141 1.6253,3.6351 0.1535,0.3604 0.038,0.9459 0.3953,1.1065 0.1638,0.074 -0.3979,-9.4802 1.3618,-10.0364 1.3851,-0.4379 4.3305,11.5829 4.217,10.155"
       id="path1162" /><path
       style="fill:none;stroke:#ff9955;stroke-width:3"
       d="m 3938.3291,4455.8243 c 2.5117,-0.5054 6.7556,0.2905 8.6976,-2.1339 2.5178,-3.143 1.3769,-14.0602 -5.5787,-2.766 -1.0152,1.6487 -3.2647,2.9692 -3.1189,4.8999 0.1966,2.5982 2.3188,4.7244 3.9976,6.7172 5.5213,6.5548 15.0992,-1.1388 20.1184,-4.228"
       id="path1164" /><path
       style="fill:none;stroke:#ff9955;stroke-width:3"
       d="m 3985.1111,4445.7087 c -0.1169,-1.1724 0.821,-3.6341 -0.3513,-3.5168 -1.1721,0.1172 -0.3961,2.6061 0.3513,3.5168 9.0903,11.0739 6.3876,-0.059 10.4109,13.158 0.5865,1.9275 1.0787,3.955 0.9662,5.9666 -0.4111,7.3689 -6.4182,2.1307 -7.8629,-0.9877 -3.3932,-7.3258 -0.4619,-11.2011 -3.5142,-18.1369 z"
       id="path1166" /><path
       style="fill:none;stroke:#ff9955;stroke-width:3"
       d="m 4006.196,4457.6023 c -7.7692,-1.9765 -4.4865,-18.3674 0.8787,-19.2829 5.1528,-0.8789 7.5145,15.5707 3.8217,17.6234 -1.4523,0.8072 -4.1191,3.216 -4.7004,1.6595 -0.8598,-2.303 1.845,-4.5572 2.7676,-6.8358"
       id="path1168" /><path
       style="fill:none;stroke:#ff9955;stroke-width:3"
       d="m 4014.6302,4432.7087 c 4.2198,7.2443 6.3886,16.2464 5.5345,24.6959 -0.1778,1.76 -0.4349,-3.5279 -0.3513,-5.2948 0.1555,-3.2896 0.6209,-9.5488 2.0206,-13.0001 0.164,-0.404 0.9266,-1.112 1.0983,-0.7112 1.7565,4.1045 2.3987,9.2845 3.0747,13.751 0.168,1.1086 0.4559,4.3624 0.7469,3.2795 0.4215,-1.5688 2.685,-15.9666 5.7984,-13.7507 4.0677,2.8951 4.1206,9.453 5.3152,13.7507 0.7726,2.7799 0.5762,2.9046 1.098,1.7782"
       id="path1170" /><path
       style="fill:none;stroke:#ff9955;stroke-width:3"
       d="m 4044.2807,4446.657 c -1.252,-3.2317 -5.7523,12.2713 -1.6693,12.0121 3.178,-0.2017 9.1115,-9.2232 7.4237,-12.0912 -0.1981,-0.3363 -0.4045,0.6844 -0.4834,1.0668 -0.686,3.3295 -1.7576,23.5706 5.447,19.5199"
       id="path1172" /><path
       style="fill:none;stroke:#ff9955;stroke-width:3"
       d="m 4060.841,4464.043 c 2.5156,-3.4396 3.9018,-4.7233 1.6253,-7.8631"
       id="path1174" /><path
       style="fill:none;stroke:#ff9955;stroke-width:3"
       d="m 4061.4122,4448.9488 c -0.9279,-4.3479 -1.0165,-8.4691 -0.6151,-12.8027 2.4746,2.5685 5.4394,4.7418 7.4237,7.7054 1.1606,1.7333 1.3095,3.9688 1.7571,6.0061 0.2768,1.2599 0.6822,5.1711 0.2635,5.3739 -0.3524,0.1707 -0.4,-0.7148 -0.3953,-1.1064 0.035,-2.9916 1.8681,-17.6796 6.7208,-16.9119 5.9019,0.9337 7.8675,12.9609 9.8396,17.07 0.6735,1.0405 1.3471,2.081 2.0206,3.1216 0.059,-0.053 0.1172,-0.1054 0.1757,-0.1581"
       id="path1176" /><path
       style="fill:none;stroke:#ff9955;stroke-width:3"
       d="m 4124.4031,4451.3197 c -1.5081,0.5662 -2.9374,1.9751 -4.5243,1.6989 -9.0771,-1.5788 -5.0843,-25.8776 4.8757,-14.5015 1.2414,1.4181 2.7313,3.0948 2.6795,4.9786 -0.077,2.7959 -2.0207,5.216 -3.0309,7.824 z"
       id="path1178" /><path
       style="fill:none;stroke:#ff9955;stroke-width:3"
       d="m 4137.1418,4435.0793 c -5.9026,5.9915 -5.0692,10.0489 -0.4832,16.4378 0.6972,0.9713 2.0884,1.4473 2.5038,2.5686 0.2487,0.6704 -1.3941,0.3619 -2.1085,0.395 -6.4473,-3.935 8.9625,-15.7244 12.4754,-10.9848"
       id="path1180" /><path
       style="fill:none;stroke:#ff9955;stroke-width:3"
       d="m 4207.6442,4417.1795 c -0.073,-1.3301 0.4731,-2.8528 -0.2196,-3.9907 -0.427,-0.702 -3.5525,0.4508 -6.7646,3.6748 -5.398,5.4176 -8.1576,13.8453 -6.4132,21.377 1.0896,4.7053 9.1183,12.2039 9.0048,14.8571"
       id="path1182" /><path
       style="fill:none;stroke:#ff9955;stroke-width:3"
       d="m 4184.6707,4439.505 c 7.8042,-3.9862 14.6712,-8.5865 22.6661,-1.8177"
       id="path1184" /><path
       style="fill:none;stroke:#ff9955;stroke-width:3"
       d="m 4069.7093,4170.1023 c -0.9163,0.8422 -5.7989,5.2364 -6.4572,0.9088 -0.2873,-1.8883 -0.3048,-3.8602 0.088,-5.7295 0.9207,-4.3831 2.1772,-8.7154 3.8216,-12.8815 2.5321,-6.4148 5.5547,-2.83 6.5011,1.6991 0.9784,4.6818 -0.3114,7.6095 -2.0206,12.0912 -0.5184,1.3589 -0.4789,3.8719 -1.9328,3.9119 -14.5772,0.4027 -7.7158,-20.3327 -2.5038,-23.3132 5.2266,-2.9888 12.3357,19.3778 2.5038,23.3132 -8.0989,3.2419 -2.6988,-15.4985 -0.044,-17.5046 2.1473,-1.6224 4.106,4.4842 3.5581,9.0488 -0.1881,1.5661 -0.8443,3.048 -1.4497,4.5045 -0.5702,1.3724 -1.9891,5.4356 -2.0645,3.9513 -1.4211,-27.9651 8.1629,-22.0408 1.2739,-7.6261"
       id="path1186" /><path
       style="fill:none;stroke:#ff9955;stroke-width:3"
       d="m 4083.3705,4205.6253 c -4.1524,2.1478 -4.101,1.1551 -5.403,6.4804 -0.2284,0.934 -0.4117,2.0376 0.044,2.8845 2.8694,5.3311 17.5707,4.2637 17.5707,16.6354 0,1.7243 -0.4755,3.5264 -1.4055,4.9787 -4.2214,6.5921 -13.2768,5.04 -11.2014,-3.5169"
       id="path1188" /><path
       style="fill:none;stroke:#ff9955;stroke-width:3"
       d="m 4105.6855,4191.8746 c -4.1043,6.3045 1.4464,-6.9178 -0.703,-6.5199 -2.1492,0.398 0.9083,4.3437 0.703,6.5199 -0.4591,4.8625 -3.1883,9.3517 -3.5142,14.2248 -0.2564,3.8322 0.6686,7.7102 1.801,11.38 1.1901,3.8573 8.351,18.0493 15.1545,15.5292"
       id="path1190" /><path
       style="fill:none;stroke:#ff9955;stroke-width:3"
       d="m 4125.145,4203.3731 c 0.7993,4.852 1.9503,22.5928 -2.4601,25.6445 -1.3284,0.9192 -2.5513,-2.8789 -4.4804,-7.3102"
       id="path1192" /><path
       style="fill:none;stroke:#ff9955;stroke-width:3"
       d="m 4116.1839,4209.8139 c -3.2901,-13.0657 15.808,5.008 17.0876,7.3099"
       id="path1194" /><path
       style="fill:none;stroke:#ff9955;stroke-width:3"
       d="m 4127.7806,4185.4338 c 8.0668,15.135 14.5536,36.7094 5.7983,53.067"
       id="path1196" /><path
       style="fill:none;stroke:#ff9955;stroke-width:3"
       d="m 4073.4944,3972.5578 c -7.2842,8.737 -7.0966,-6.8197 -3.3824,-7.3893 3.5703,-0.5474 3.3353,7.1919 3.3824,7.3893 0.9014,3.7904 2.9663,7.4046 2.9869,11.3009 0.019,3.6808 -5.2126,7.4998 -5.7984,6.7963 -3.4808,-4.1817 -6.8381,-24.7745 2.8115,-18.0972 5.2115,3.606 8.0809,9.0572 4.9636,14.4224 -0.7202,1.2398 -1.8915,2.4696 -3.2943,2.766 -6.9006,1.4583 -10.912,-16.3267 -7.9071,-18.6111 5.2821,-4.0158 10.0116,6.4884 11.7284,14.383 0.024,0.1114 -2.2317,5.7521 -4.4365,3.991 -2.3582,-1.8836 -6.4082,-15.9636 -1.0541,-16.9513 6.409,-1.1827 4.6808,12.1396 3.9095,14.4618 -0.3212,0.9671 -1.7799,3.1771 -2.1085,2.213 -0.6244,-1.8312 -0.7614,-3.7933 -1.1422,-5.6901"
       id="path1198" /><path
       style="fill:none;stroke:#ff9955;stroke-width:3"
       d="m 4092.7344,3944.0285 c 4.8307,-0.018 8.3198,-0.6246 10.9376,-5.3342 1.7748,-3.1933 -4.1302,-6.9842 -6.4132,-6.994 -9.2057,-0.039 -14.7149,12.9508 -11.7285,20.5473 3.5594,9.0543 23.1685,14.6335 24.9066,1.5409"
       id="path1200" /><path
       style="fill:none;stroke:#ff9955;stroke-width:3"
       d="m 4118.2119,3921.4268 c -1.2028,-2.8075 1.7214,-6.6614 0.7027,-9.76 -0.6093,-1.8531 -2.4445,3.1719 -2.9432,5.0578 -0.7586,2.8699 -1.3816,5.8076 -1.5372,8.772 -0.1688,3.215 -0.1387,6.5011 0.5709,9.6414 0.8954,3.9627 5.8241,14.6341 12.2116,11.8147 1.3618,-0.6011 1.9915,-2.2127 2.9872,-3.3192"
       id="path1202" /><path
       style="fill:none;stroke:#ff9955;stroke-width:3"
       d="m 4135.9583,3920.5179 c 1.624,-29.6616 -1.2861,21.2672 -2.9432,22.2462 -1.5881,0.9385 -3.3586,-1.8936 -4.3048,-3.4772 -1.4626,-2.4481 -1.9285,-5.3768 -2.6355,-8.1399 -0.2683,-1.048 -1.7571,-9.6787 -1.7571,-11.617 0,-1.4468 2.6699,1.2321 3.7338,2.2127 0.7578,0.6985 17.3135,16.2713 16.5603,12.3285 -0.4342,-2.2722 -1.2592,-4.4519 -1.8889,-6.6778"
       id="path1204" /><path
       style="fill:none;stroke:#ff9955;stroke-width:3"
       d="m 4138.2424,3901.5907 c -0.5127,-3.5825 -1.6872,-11.3048 -1.4496,-13.6324 0.1085,-1.0618 1.1578,-2.8956 2.1085,-2.4103 3.1993,1.633 8.5047,15.3762 8.8294,16.2007 6.8675,17.441 9.3517,28.4596 2.328,46.1129"
       id="path1206" /><path
       style="fill:none;stroke:#ff9955;stroke-width:3"
       d="m 3840.7889,4569.6959 c 0.4839,4.1317 5.8745,20.1546 11.0696,20.2705 3.7269,0.083 3.0321,-10.0113 3.7338,-10.2341 0.934,-0.2966 5.1282,10.1225 7.9947,6.0852 1.3507,-1.9024 -0.4258,-7.4822 1.9767,-8.9697 3.9219,-2.4286 11.9644,-1.865 12.9143,-8.0608 0.7368,-4.8043 -5.4137,-3.4631 -7.4674,-1.4226 -14.4941,14.4015 3.3465,22.6155 17.4829,16.0033"
       id="path1208" /><path
       style="fill:none;stroke:#ff9955;stroke-width:3"
       d="m 3921.3066,4563.0178 c -9.1861,5.2478 -5.2451,31.2968 7.3798,16.9516"
       id="path1210" /><path
       style="fill:none;stroke:#ff9955;stroke-width:3"
       d="m 3931.5857,4567.167 c -0.2196,2.1074 -1.0404,4.2378 -0.6591,6.3222 0.2445,1.3356 1.2851,2.5281 2.4162,3.2795 3.9761,2.6424 6.3314,-6.7498 6.6767,-8.0213 0.4019,-1.4799 1.8383,-5.1028 0.3953,-4.5837 -0.7096,0.2556 2.1987,19.6509 4.7882,14.6598"
       id="path1212" /><path
       style="fill:none;stroke:#ff9955;stroke-width:3"
       d="m 3945.1151,4561.951 c 0.029,-1.8571 -0.4283,-3.7872 0.088,-5.5713 0.1386,-0.4797 0.976,0.3474 1.3176,0.7112 1.6579,1.7655 5.1401,7.4178 5.9743,8.9302 0.8498,1.5409 1.5489,3.1626 2.2402,4.781 0.2329,0.5453 -0.053,1.8233 0.5271,1.6992 0.6315,-0.1352 0.1439,-1.3018 0.3953,-1.8968 1.1453,-2.7115 2.0026,-5.6335 3.7777,-7.9817 3.2025,-4.2363 9.508,17.6278 9.3125,12.5259"
       id="path1214" /><path
       style="fill:none;stroke:#ff9955;stroke-width:3"
       d="m 4005.4706,4556.7747 c -2.3464,-3.6155 -3.6251,-9.6105 -0.3077,-13.2765 1.0892,-1.2039 0.3193,3.2369 0.3077,4.8601 -0.021,2.8054 0,5.611 0,8.4164 z"
       id="path1216" /><path
       style="fill:none;stroke:#ff9955;stroke-width:3"
       d="m 4006.2172,4564.559 c -1.3766,-1.7605 5.0305,29.6008 9.5761,23.3527 1.1112,-1.5277 1.2007,-3.5825 1.801,-5.374"
       id="path1218" /><path
       style="fill:none;stroke:#ff9955;stroke-width:3"
       d="m 4017.5504,4563.6107 c 9.9248,12.6249 -0.3024,-1.0858 6.9842,10.5897 0.4098,0.6562 1.1729,2.3561 1.5814,1.6992 2.6009,-4.182 1.6327,-16.9193 5.4031,-13.7509 3.6189,3.0411 3.6795,8.5142 6.7646,11.8147 0.2846,0.3042 0.7908,-0.2636 1.1861,-0.3953"
       id="path1220" /><path
       style="fill:none;stroke:#ff9955;stroke-width:3"
       d="m 4040.0408,4556.0635 c 0.8091,-14.2666 -0.077,-0.2159 0,0 7.7856,21.9395 3.3575,-9.9116 7.248,16.4772 0.2238,1.5179 -0.4382,1.4676 -1.2301,1.62 -1.7295,-9.9189 -0.9664,-11.7245 7.0724,-12.8813"
       id="path1222" /><path
       style="fill:none;stroke:#ff9955;stroke-width:3"
       d="m 4049.1337,4554.8782 c -2.3791,-5.3279 -0.8454,-9.3787 1.3179,-14.3042"
       id="path1224" /><path
       style="fill:none;stroke:#ff9955;stroke-width:3"
       d="m 4054.8881,4534.6471 c 1.845,0.6453 3.6899,1.2906 5.5348,1.9359"
       id="path1226" /><path
       style="fill:none;stroke:#ff9955;stroke-width:3"
       d="m 4066.5287,4542.5102 c 1.1904,0.8612 -0.7435,12.8934 1.4058,11.2615 3.5467,-2.6932 9.2432,-13.7941 4.0851,-17.3861 -2.2034,-1.5345 -5.5544,5.9309 -5.4909,6.1246 0.9877,3.0083 4.159,4.7863 6.018,7.3496 4.7056,6.4879 12.3155,21.3262 0.9665,25.9607 -5.0289,2.0534 -4.7731,-9.8872 -5.8423,-15.213"
       id="path1228" /><path
       style="fill:none;stroke:#ff9955;stroke-width:3"
       d="m 4075.8852,4538.3613 c 1.2152,-2.463 1.764,-5.3885 3.6459,-7.389 0.5504,-0.5853 1.1941,1.0906 1.669,1.7385 3.452,4.7075 12.3751,17.6702 12.5193,23.3133 0.01,0.3069 -0.7517,0 -0.8787,-0.2768 -0.7993,-1.7618 -1.4284,-3.6253 -1.7571,-5.5319 -0.513,-2.9795 -2.4616,-16.2507 2.3723,-18.2949 1.2139,-0.5135 2.6903,0.092 3.9095,0.5927 5.57,2.2892 -6.3286,20.0988 -0.703,18.8481 4.7686,-1.0599 7.5604,-4.1103 9.9274,-7.9817 2.5964,-4.2465 2.0265,-6.9082 1.4936,-5.9272 -1.7312,3.1869 -3.9124,21.3128 3.9534,15.371 1.4462,-1.0925 2.3429,-2.7659 3.5142,-4.1489"
       id="path1230" /><path
       style="fill:none;stroke:#ff9955;stroke-width:3"
       d="m 4116.8689,4542.6288 c -7.492,-2.0035 2.5667,-13.2372 -0.9226,-18.2158 -0.2903,-0.4144 -0.4985,0.9176 -0.5271,1.4224 -0.1196,2.1174 -0.094,4.2487 0.088,6.3616 0.3016,3.4938 0.8842,6.9578 1.3618,10.4318 0.3423,2.4926 0.745,4.9768 1.098,7.4681 0.028,0.196 0.1378,0.7673 0.044,0.5926 -4.2603,-7.9287 -1.1025,-8.9564 6.8088,-12.0517 0.5395,-0.2109 5.4491,-0.2747 5.974,-2.0151 2.2321,-7.3999 -6.7849,-2.1759 -8.6537,-0.8297 -2.8297,2.0386 -1.4155,7.3308 0.044,9.2855 4.9065,6.5712 17.8279,3.4507 24.3356,1.7783"
       id="path1232" /><path
       style="fill:none;stroke:#ff9955;stroke-width:3"
       d="m 4176.0382,4522.2 c -0.4541,-1.7121 0.3505,-5.5906 -1.3618,-5.1366 -1.7122,0.4537 1.3369,3.3655 1.3618,5.1366 0.05,3.524 -1.206,6.9871 -1.1422,10.5108 0.01,0.4498 2.3968,14.0007 2.6357,15.6081 0.1548,1.043 0.648,3.8711 -0.1317,3.161 -8.2299,-7.4944 -12.137,-13.0982 -1.6693,-19.4408 0.4403,-0.267 7.5994,-4.2786 7.6433,-4.2281 2.3371,2.6953 5.9706,11.6478 8.3021,15.3313 0.8337,1.3176 1.4544,4.0989 2.9432,3.6354 2.3625,-0.7356 3.2883,-9.6049 4.4366,-8.4955 2.6347,2.5458 1.3282,7.7213 4.0851,10.3923"
       id="path1234" /><path
       style="fill:none;stroke:#ff9955;stroke-width:3"
       d="m 4204.5468,4538.1636 c -0.2789,-5.8726 -1.0904,-12.6489 1.8449,-18.0972 0.1807,-0.3355 3.9865,-5.8536 3.9534,-5.8481 -0.5175,0.087 -0.9451,0.4712 -1.3618,0.7903 -5.002,3.828 5.2279,5.2779 7.248,7.152 4.7199,4.3788 8.2193,7.8698 7.775,14.1854 -0.2243,3.1869 -6.4746,13.4879 -10.7182,9.0093 -1.2938,-1.3655 -1.6693,-3.3719 -2.5038,-5.0578"
       id="path1236" /><path
       style="fill:none;stroke:#ff9955;stroke-width:3"
       d="m 4253.1298,4519.2364 c 2.1148,5.7079 0.9351,3.4518 4.9197,9.3649 2.9832,4.427 8.1605,10.3333 6.8085,11.4986 -1.3234,1.1411 -4.1145,-6.5292 -4.3926,-13.5139 -0.089,-2.2429 -0.2201,-4.5855 0.4831,-6.7172 1.2327,-3.7352 4.9453,-6.7165 6.9406,-2.5289 2.9724,1.3171 5.7824,3.0892 8.9172,3.9514 2.5991,0.7149 13.0542,-3.6832 9.7517,-7.6262 -4.2813,-5.1115 -21.6832,10.8587 -5.5787,14.146 3.5363,0.7219 6.0366,-0.053 9.2686,-0.7507"
       id="path1238" /><path
       style="fill:none;stroke:#ff9955;stroke-width:3"
       d="m 4297.2322,4514.6925 c -4.0506,-2.8996 -10.8609,0.6011 -5.8423,4.9786 5.8729,5.1229 20.1681,4.1143 13.5734,-4.4254 -0.6596,-0.8543 -1.6285,-1.5727 -2.6795,-1.8177 -0.4225,-0.098 0.1297,0.8686 0.3075,1.2645 0.7485,1.6671 1.6502,3.2612 2.4598,4.8998 2.3196,4.6947 7.0369,11.9234 6.1058,17.5837 -1.1885,7.2255 -9.417,6.8704 -11.1572,0.039"
       id="path1240" /><path
       style="fill:none;stroke:#ff9955;stroke-width:3"
       d="m 4312.1234,4530.182 c 5.3682,-1.8307 5.6629,-3.7931 5.1832,-8.9697"
       id="path1242" /><path
       style="fill:none;stroke:#ff9955;stroke-width:3"
       d="m 4313.7046,4509.7138 c -0.7583,-4.0487 -7.1443,-12.3174 -1.7129,-15.371"
       id="path1244" /><path
       style="fill:none;stroke:#ff9955;stroke-width:3"
       d="m 4328.1127,4516.431 c 0.9224,1.6068 2.141,3.0769 2.7673,4.8207 0.1101,0.3059 -0.7607,0.598 -0.9223,0.3162 -0.906,-1.578 -1.0973,-3.4782 -1.845,-5.1369 -1.4229,-3.1567 -4.2389,-5.8483 -4.6564,-9.2858 -0.346,-2.8522 3.8413,-6.1664 6.5453,-4.5045 4.0764,2.5053 7.9076,17.3381 2.2402,19.1643 -0.6133,0.1976 -0.7027,-1.08 -1.0541,-1.6201"
       id="path1246" /><path
       style="fill:none;stroke:#ff9955;stroke-width:3"
       d="m 4334.1307,4501.1392 c 2.3778,-4.3135 2.2407,-7.4171 4.7881,-1.5806 1.6696,3.8258 3.1301,9.2876 3.7775,13.5138 0.2604,1.6986 0.3691,3.4198 0.4395,5.1369 0.019,0.4381 -0.1932,1.742 -0.1757,1.3039 0.084,-2.1196 3.1551,-17.8083 6.5011,-16.0822 1.1287,0.5823 2.5468,11.8377 3.3824,14.2251"
       id="path1248" /><path
       style="fill:none;stroke:#ff9955;stroke-width:3"
       d="m 4356.0501,4484.3064 c -4.7802,-3.5698 5.7473,-14.695 3.1189,-4.8998 -0.5019,1.8698 -3.1427,2.9638 -3.1189,4.8998 0.055,4.4479 2.5892,8.536 3.3385,12.9209 0.6591,3.8576 -0.3702,6.9482 0.7467,10.5897"
       id="path1250" /><path
       style="fill:none;stroke:#ff9955;stroke-width:3"
       d="m 4366.241,4533.6985 c -0.849,2.068 -1.4911,4.2336 -2.5476,6.2037 -2.3882,4.4538 -3.4931,-13.6752 2.5476,-6.2037 1.4317,1.7706 -1.4581,4.4382 -2.9429,6.1643 -0.4101,0.4768 -1.2375,-1.0525 -0.9665,-1.62 0.8609,-1.8032 2.6064,-3.0295 3.9094,-4.5443 z"
       id="path1252" /><path
       style="fill:none;stroke:#ff9955;stroke-width:3"
       d="m 4080.2431,4651.0232 c -4.8302,12.4103 -14.0372,32.5435 -9.9274,45.9944 1.8164,5.9449 4.6323,11.5769 7.6872,16.9908 1.9577,3.4697 12.251,15.1275 14.5397,18.2554 9.0088,12.3124 13.267,26.1073 9.1368,41.4502 -4.2058,15.6244 -9.3538,24.9049 -18.0538,37.6962 -1.7225,2.5324 -16.8659,20.2168 -17.966,24.4592"
       id="path1254" /><path
       style="fill:none;stroke:#ff9955;stroke-width:3"
       d="m 4111.7386,4641.7377 c 7.2858,-1.5857 10.6447,0.376 13.0463,-5.7296 4.6347,-11.7826 -6.9249,-13.8935 -13.749,-4.1886 -2.2019,3.1314 -6.7493,11.2707 -6.0619,15.9242 2.0632,13.9703 17.6432,16.2994 27.9374,10.3921"
       id="path1256" /><path
       style="fill:none;stroke:#ff9955;stroke-width:3"
       d="m 4145.9138,4620.321 c -7.5433,5.0752 -6.382,30.4684 4.6122,28.5292 1.212,-0.2138 2.0791,-1.3173 3.1189,-1.9759"
       id="path1258" /><path
       style="fill:none;stroke:#ff9955;stroke-width:3"
       d="m 4166.5592,4628.6191 c -1.0678,1.505 -6.3627,22.6751 -7.5554,22.3253 -0.8507,-0.2495 -1.787,-6.0439 -2.0646,-7.3496"
       id="path1260" /><path
       style="fill:none;stroke:#ff9955;stroke-width:3"
       d="m 4155.4459,4633.2422 c 3.2256,-4.5911 12.6995,13.2765 13.9248,11.2615 0.5135,-0.8451 0.088,-1.9757 0.1317,-2.9636"
       id="path1262" /><path
       style="fill:none;stroke:#ff9955;stroke-width:3"
       d="m 4168.7116,4607.4395 c 6.3145,3.9762 3.9346,1.6185 8.7855,10.8664 10.9487,20.8727 15.412,36.512 4.8757,59.1127"
       id="path1264" /><path
       style="fill:none;stroke:#ff9955;stroke-width:3"
       d="m 4105.545,4837.5288 c -23.3659,18.9733 12.8976,13.5353 13.8808,29.2799 0.6273,10.0446 -22.1962,23.6942 -14.5396,1.62"
       id="path1266" /><path
       style="fill:none;stroke:#ff9955;stroke-width:3"
       d="m 4134.4049,4833.617 c -3.9801,11.6919 4.1632,-13.4369 1.801,-11.5774 -7.2345,5.6941 -10.7444,29.5569 -8.4341,38.7234 1.6854,6.686 4.7091,13.123 8.6098,18.8087 2.4887,3.6277 8.3251,5.1527 11.7724,2.5288"
       id="path1268" /><path
       style="fill:none;stroke:#ff9955;stroke-width:3"
       d="m 4160.8926,4847.0517 c 1.2531,7.2832 -0.8675,14.6037 -2.6794,21.6141 -1.2827,4.9636 -2.1238,6.614 -2.6794,6.1246 -1.5325,-1.3499 -1.9622,-3.5825 -2.9433,-5.3737"
       id="path1270" /><path
       style="fill:none;stroke:#ff9955;stroke-width:3"
       d="m 4148.8567,4853.216 c 0,-1.6465 -1.6438,-4.8469 0,-4.9393 3.3618,-0.1891 19.7787,17.4639 20.0745,21.4559 0.021,0.2945 -0.3514,-0.4741 -0.527,-0.7112"
       id="path1272" /><path
       style="fill:none;stroke:#ff9955;stroke-width:3"
       d="m 4159.7946,4816.7051 c -2.4254,15.3426 -1.7161,-12.917 1.0102,-10.6294 2.4371,2.045 7.221,13.6382 7.9068,15.371 5.3353,13.4781 9.9274,27.483 9.9274,42.1613 0,7.9439 -1.6822,13.5512 -2.328,21.1005"
       id="path1274" /><path
       style="fill:none;stroke:#ff9955;stroke-width:3"
       d="m 4223.62,4709.6224 c -1.4787,0.1844 -3.2176,-0.3043 -4.4365,0.5532 -9.0792,6.3876 -15.0106,20.6275 -9.9713,31.0976 2.8114,5.8412 8.9648,10.1221 13.9686,13.9483"
       id="path1276" /><path
       style="fill:none;stroke:#ff9955;stroke-width:3"
       d="m 4199.109,4742.577 c 9.048,-5.8036 18.5735,-9.833 29.2114,-11.1823"
       id="path1278" /><path
       style="fill:none;stroke:#ff9955;stroke-width:3"
       d="m 4254.4128,4698.6771 c -1.7277,0.54 -3.9069,0.3365 -5.1832,1.62 -1.9508,1.9614 -2.7996,4.8017 -3.7777,7.3891 -2.4183,6.3973 -3.3332,15.0905 -2.8115,21.6143 0.9279,11.5988 8.1693,33.9397 23.5887,32.9941"
       id="path1280" /><path
       style="fill:none;stroke:#ff9955;stroke-width:3"
       d="m 4271.1051,4720.3309 c -2.0894,17.1248 -0.1159,2.3532 -2.8554,19.2431 -0.2865,1.7669 -0.089,3.6235 -0.6149,5.3343 -0.4067,1.3229 -1.6936,-2.2077 -2.3281,-3.4378 -0.9204,-1.7838 -4.8694,-10.2089 -5.403,-11.3403 m 0,0 c -5.9438,-17.4589 0.2482,-0.074 -3.3384,-8.8116 -0.4663,-1.1361 1.7781,1.6948 2.6795,2.5289 1.6576,1.5339 3.3823,2.9938 5.0956,4.4651 5.7483,4.9365 11.1504,9.6707 16.5164,14.9362"
       id="path1282" /><path
       style="fill:none;stroke:#ff9955;stroke-width:3"
       d="m 4296.7583,4740.0876 c -2.8649,8.4579 -1.7875,3.9944 -2.8112,16.7936 -0.3556,4.4437 -1.5396,4.1201 0.6149,4.2278"
       id="path1284" /><path
       style="fill:none;stroke:#ff9955;stroke-width:3"
       d="m 4312.8354,4711.9539 c 2.6334,7.0744 0.5684,14.2647 -0.9223,21.377 -0.3456,1.6476 -1.4219,5.9812 -2.1524,6.0851 -0.721,0.1024 -2.6503,-3.2919 -2.7675,-3.4774"
       id="path1286" /><path
       style="fill:none;stroke:#ff9955;stroke-width:3"
       d="m 4299.0424,4717.8414 c 7.4483,-3.6957 10.9649,1.3441 17.1755,5.3343"
       id="path1288" /><path
       style="fill:none;stroke:#ff9955;stroke-width:3"
       d="m 4314.5925,4680.9355 c 0.2784,-2.7001 -0.1727,-5.5798 0.8345,-8.1005 0.2781,-0.6954 1.5986,0.4207 1.9767,1.067 1.578,2.6956 2.6853,5.6563 3.6899,8.6141 1.6357,4.8143 3.324,9.6538 4.2172,14.6595 4.3738,24.5155 6.6003,40.0891 -5.9304,61.0886"
       id="path1290" /><path
       style="fill:none;stroke:#ff9955;stroke-width:3"
       d="m 4356.8613,4701.1314 c 1.274,2.3444 2.9049,4.5275 3.8216,7.0334 1.7632,4.8188 3.2809,9.7644 4.1733,14.8177 0.4104,2.3238 0.834,5.0075 -0.3077,7.0728 -10.0145,18.1169 -22.247,-3.0879 -15.1545,-7.8631 1.3284,-0.8946 3.1041,-0.7903 4.6561,-1.1853"
       id="path1292" /><path
       style="fill:none;stroke:#ff9955;stroke-width:3"
       d="m 4384.4476,4704.7271 c 2.5161,0.021 3.0829,-6.0061 5.8861,-6.0061 1.5209,0 0.526,3.7211 -1.0104,9.7203 -2.3908,9.3358 -5.3875,18.5163 -7.9068,27.8177 -0.5361,1.9791 -0.9414,3.9923 -1.4936,5.9667 -0.05,0.1815 -0.2569,0.6556 -0.3074,0.4741 -0.1982,-0.7128 -0.1172,-1.4751 -0.1757,-2.2127"
       id="path1294" /><path
       style="fill:none;stroke:#ff9955;stroke-width:3"
       d="m 4369.1171,4704.8062 c 8.364,2.0452 14.4901,7.9893 15.4183,16.7539"
       id="path1296" /><path
       style="fill:none;stroke:#ff9955;stroke-width:3"
       d="m 3886.9767,4735.7849 c -0.6004,-1.1327 -0.6684,-3.9984 -1.8011,-3.398 -1.1326,0.6003 2.5575,2.363 1.8011,3.398 -1.5674,2.1444 -5.5232,1.5655 -7.0284,3.7539 -1.7511,2.5456 -4.6583,12.2275 -1.1862,16.0428 5.5883,6.1399 23.8887,-5.0597 18.9326,-12.2889 -1.4904,-2.1743 -8.0741,-3.1792 -5.6227,1.3433 5.3885,9.9415 13.031,15.4551 15.8136,27.4622 1.515,6.5365 -7.8864,23.1227 -16.0332,14.4621 -2.2392,-2.3805 -2.8112,-5.9007 -4.2169,-8.8511"
       id="path1298" /><path
       style="fill:none;stroke:#ff9955;stroke-width:3"
       d="m 3917.1982,4724.8002 c 0.527,-1.225 2.8064,-3.1478 1.5814,-3.6748 -1.2251,-0.5273 -1.2632,2.3797 -1.5814,3.6748 -1.8474,7.5171 -6.2289,25.3307 2.5037,31.137 5.4605,3.6303 7.5451,-1.687 11.6845,-5.2555"
       id="path1300" /><path
       style="fill:none;stroke:#ff9955;stroke-width:3"
       d="m 3936.482,4732.2286 c -4.8125,2.3188 2.2466,20.2425 -0.3513,23.748 -1.4383,1.9407 -3.1605,-3.6785 -4.4366,-5.7296"
       id="path1302" /><path
       style="fill:none;stroke:#ff9955;stroke-width:3"
       d="m 3926.2032,4739.7365 c -0.3561,-13.4274 13.6504,7.2061 15.1109,7.8631 0.3125,0.1405 -0.029,-0.685 -0.044,-1.0274"
       id="path1304" /><path
       style="fill:none;stroke:#ff9955;stroke-width:3"
       d="m 3939.1176,4715.1982 c 10.1462,10.2092 18.7512,32.0148 13.6612,46.5868 -0.5527,1.5827 -1.047,4.228 -2.7234,4.228 -1.5557,0 -1.3179,-2.8186 -1.9767,-4.228"
       id="path1306" /><path
       style="fill:none;stroke:#ff9955;stroke-width:3"
       d="m 3970.8768,4730.3321 c 3.7611,0.01 7.4816,-0.6615 11.2012,-1.1459 0.9583,-0.1249 3.3274,-0.8665 2.8993,0 -0.254,0.5141 -0.8787,0.7377 -1.3179,1.1062"
       id="path1308" /><path
       style="fill:none;stroke:#ff9955;stroke-width:3"
       d="m 3975.0059,4739.8944 c -0.9078,1.5015 -2.1807,2.8361 -2.7236,4.5045 -0.1233,0.3792 0.9358,0.697 1.1422,0.3556 0.8813,-1.4578 -0.087,-4.5138 1.5814,-4.8601 8.5783,-1.7806 9.5144,-0.1582 12.7826,3.5169"
       id="path1310" /><path
       style="fill:none;stroke:#ff9955;stroke-width:3"
       d="m 3885.0357,4923.3118 c -2.2958,6.4619 5.615,28.2363 3.6017,32.4014 -0.1894,0.3924 -0.6733,-0.5533 -1.0101,-0.83"
       id="path1312" /><path
       style="fill:none;stroke:#ff9955;stroke-width:3"
       d="m 3880.1597,4942.7131 c 0.073,-1.6729 -0.8404,-3.7221 0.2196,-5.0183 2.2039,-2.6951 12.066,-2.8956 15.2865,-3.5563"
       id="path1314" /><path
       style="fill:none;stroke:#ff9955;stroke-width:3"
       d="m 3897.379,4926.3148 c 7.325,1.8619 7.6787,8.9659 11.0696,14.3039 0.2892,0.4556 0.4816,-5.8468 2.1085,-6.2825 1.7341,-0.4649 4.9146,9.7721 5.7984,11.1823"
       id="path1316" /><path
       style="fill:none;stroke:#ff9955;stroke-width:3"
       d="m 3916.2676,4936.6674 c -1.9619,-4.8059 -2.3275,-9.099 -1.1861,-14.0274 3.9095,0.7903 7.9032,1.2412 11.7285,2.3708 2.0158,0.5953 3.9847,1.5053 5.6665,2.766 11.0527,8.2853 -11.2742,20.855 -9.0928,8.1003"
       id="path1318" /><path
       style="fill:none;stroke:#ff9955;stroke-width:3"
       d="m 3964.7186,4928.7251 c -5.8827,-0.1828 -9.8223,6.9464 -7.1159,12.1307 4.386,8.4015 18.7558,-9.0829 11.7284,-13.0395 -1.3655,-0.7689 -4.8765,-0.6358 -4.6125,0.9088 1.1441,6.6879 17.3805,17.5525 13.6613,26.0001 -4.0018,9.0898 -12.9498,3.0316 -10.8937,-6.6778"
       id="path1320" /><path
       style="fill:none;stroke:#ff9955;stroke-width:3"
       d="m 3981.7184,4941.567 c 4.8204,-5.5256 3.8669,-9.1438 1.4057,-15.3313"
       id="path1322" /><path
       style="fill:none;stroke:#ff9955;stroke-width:3"
       d="m 3983.0802,4918.2143 c 2.2548,2.6739 4.726,5.1792 6.7646,8.0214 1.6507,2.3011 2.8969,4.8678 4.2608,7.3496 0.5702,1.0371 0.9973,2.1476 1.5375,3.2006 0.076,0.1485 0.2382,0.5469 0.3075,0.3951 1.0057,-2.2027 0.79,-4.5355 2.8115,-6.2431 2.9374,-2.4813 8.2306,-3.1848 10.2348,-6.6779 0.4432,-0.7723 1.3412,-5.5615 -1.1861,-4.8998 -7.5499,1.9773 -5.8809,17.77 4.6564,12.6445 2.3704,-1.1528 4.1585,-3.2401 6.2376,-4.8602"
       id="path1324" /><path
       style="fill:none;stroke:#ff9955;stroke-width:3"
       d="m 4019.5834,4918.1749 c 2.186,1.1475 -5.29,-6.3963 -7.204,-4.3466 -2.6731,2.8625 17.5551,10.7535 16.7359,19.0061 -0.6591,6.6402 -12.6275,16.1136 -17.6585,8.1399 -0.7403,-1.1732 -0.4392,-2.7395 -0.6589,-4.1092"
       id="path1326" /><path
       style="fill:none;stroke:#ff9955;stroke-width:3"
       d="m 4055.9986,4924.418 c -0.3514,2.1339 -1.4899,4.2831 -1.0541,6.4013 1.8581,9.0334 14.6836,2.5154 15.8136,-3.3983 0.042,-0.2214 -0.063,-3.1252 -0.088,-3.8722"
       id="path1328" /><path
       style="fill:none;stroke:#ff9955;stroke-width:3"
       d="m 4073.7889,4915.0136 c 0.055,5.2131 -1.1547,4.7083 5.1395,6.9546 3.5976,1.2838 7.5301,1.5275 11.0697,2.9636 12.8756,5.224 -10.6932,24.361 -14.1886,18.2949 -1.0528,-1.8275 -0.4977,-4.1886 -0.7466,-6.2828"
       id="path1330" /><path
       style="fill:none;stroke:#ff9955;stroke-width:3"
       d="m 4123.9534,4920.6247 c -1.5521,0.3294 -3.455,-0.049 -4.6562,0.9879 -3.0284,2.6128 -8.9127,14.247 -4.305,18.0578 5.307,4.3889 14.8571,-11.4167 15.3744,-15.5686 0.1566,-1.2562 -2.4781,1.4055 -2.7234,2.6477 -0.4289,2.1706 -0.9871,4.6802 0.044,6.6381 3.7756,7.1702 10.6404,8.9281 17.0436,12.3286"
       id="path1332" /><path
       style="fill:none;stroke:#ff9955;stroke-width:3"
       d="m 4196.0372,4901.8557 c -0.2344,-1.4883 0.7856,-4.6993 -0.7027,-4.4652 -1.4885,0.2345 1.3626,3.1108 0.7027,4.4652 -1.8838,3.8674 -6.0063,6.3534 -7.8629,10.234 -1.906,3.9839 -1.371,12.2701 -0.1317,16.4378 0.571,1.9201 1.6923,3.6441 2.7673,5.3343 0.6781,1.0662 1.6044,1.9547 2.4598,2.8847 0.2019,0.2194 0.8871,0.7874 0.703,0.553 -0.8538,-1.0851 -1.8156,-2.0809 -2.7236,-3.1216"
       id="path1334" /><path
       style="fill:none;stroke:#ff9955;stroke-width:3"
       d="m 4182.7274,4928.409 c 2.7622,-6.0947 6.8754,-7.9912 12.5632,-10.3526"
       id="path1336" /><path
       style="fill:none;stroke:#ff9955;stroke-width:3"
       d="m 4202.0552,4912.7615 c -1.2885,0.7506 -3.0983,0.9737 -3.8656,2.2521 -2.5847,4.3072 22.1774,9.3472 19.0643,1.146 -0.5895,-1.5524 -1.6692,-2.8713 -2.5037,-4.3069"
       id="path1338" /><path
       style="fill:none;stroke:#ff9955;stroke-width:3"
       d="m 4214.0032,4903.0016 c 6.9308,7.793 4.9726,4.3582 8.39,11.4591 0.3953,0.821 1.0022,3.208 1.3618,2.3706 1.7155,-3.9938 0.6892,-14.8571 3.2946,-13 4.1095,2.9295 1.8486,19.4598 8.5656,18.769"
       id="path1340" /><path
       style="fill:none;stroke:#ff9955;stroke-width:3"
       d="m 4238.8219,4904.5822 c -1.1713,-0.1844 -2.8508,-1.5362 -3.5141,-0.5533 -4.702,6.9665 10.1073,22.2711 15.1548,15.924 0.8741,-1.0994 0.8199,-2.6869 1.2297,-4.0304"
       id="path1342" /><path
       style="fill:none;stroke:#ff9955;stroke-width:3"
       d="m 4250.7261,4895.5729 c -0.4289,2.0388 9.2109,29.6672 1.9328,24.1429"
       id="path1344" /><path
       style="fill:none;stroke:#ff9955;stroke-width:3"
       d="m 4249.0129,4910.6673 c 0.7467,-1.1197 0.9716,-2.9104 2.2402,-3.3588 3.2774,-1.1581 9.298,4.8209 10.9379,7.0336 1.3382,-9.541 2.175,-5.7871 0.044,-11.538"
       id="path1346" /><path
       style="fill:none;stroke:#ff9955;stroke-width:3"
       d="m 4258.7646,4896.3237 c -2.5876,-5.1186 -6.428,-8.9415 -1.9327,-12.8815"
       id="path1348" /><path
       style="fill:none;stroke:#ff9955;stroke-width:3"
       d="m 4268.5164,4893.5972 c 5.4967,-3.2292 7.2755,17.8186 -0.088,9.5623 -7.347,-8.2375 -1.1227,-3.0853 0.088,-9.5623 0.3299,-1.7653 -1.6955,-3.5332 -1.1861,-5.2554 0.2516,-0.8501 1.9423,-0.1966 2.6357,0.3556 5.7042,4.5437 6.8726,21.9967 4.4366,10.6294"
       id="path1350" /><path
       style="fill:none;stroke:#ff9955;stroke-width:3"
       d="m 4274.7539,4881.269 c 5.3354,3.0075 3.3835,0.9874 6.1498,9.2461 0.8617,2.5723 1.648,5.1766 2.2405,7.8237 0.3473,1.5536 0.4402,3.1552 0.5709,4.7419 0.016,0.2016 -0.1357,0.795 -0.1317,0.5926 0.097,-4.9493 -0.076,-14.2999 4.7439,-17.4257 4.6699,-3.0284 10.6376,16.8455 11.2014,19.7964"
       id="path1352" /><path
       style="fill:none;stroke:#ff9955;stroke-width:3"
       d="m 4336.2955,4916.1992 c -1.3764,0.3818 -2.7932,1.6516 -4.1291,1.146 -9.3411,-3.5357 -6.3169,-25.4575 3.1626,-26.9881 14.9087,-2.4072 5.2697,23.4884 0.9665,25.8421 -5.0467,2.7599 0.06,-7.9549 2.0206,-12.5653"
       id="path1354" /><path
       style="fill:none;stroke:#ff9955;stroke-width:3"
       d="m 4352.1091,4882.7705 c -11.6927,7.3284 -5.5078,17.7704 1.9328,23.9059"
       id="path1356" /><path
       style="fill:none;stroke:#ff9955;stroke-width:3"
       d="m 4346.7939,4904.4637 c -1.1713,-1.0012 -3.638,-1.4674 -3.5142,-3.0031 0.4286,-5.3086 11.1996,-6.437 14.7595,-5.7295 2.3485,0.4667 3.4938,2.1211 4.9197,3.7536"
       id="path1358" /><path
       style="fill:none;stroke:#ff9955;stroke-width:3"
       d="m 4397.3976,4875.7765 c -2.0352,0.6717 -4.3392,0.8017 -6.1058,2.0153 -7.1885,4.9382 -9.5046,15.9028 -6.7207,23.6688 1.6507,4.6051 5.9066,8.4699 7.116,13.0395"
       id="path1360" /><path
       style="fill:none;stroke:#ff9955;stroke-width:3"
       d="m 4376.0052,4904.3845 c 6.1365,-4.5286 12.9585,-7.0466 20.6897,-5.8875"
       id="path1362" /></g></svg>
