<?xml version="1.0" encoding="UTF-8" standalone="no"?>
<!-- Created with Inkscape (http://www.inkscape.org/) -->

<svg
   width="1607.0669mm"
   height="370.45117mm"
   viewBox="0 0 1607.0669 370.4512"
   version="1.1"
   id="svg12"
   inkscape:version="1.2.1 (9c6d41e410, 2022-07-14, custom)"
   sodipodi:docname="partial_derivative_extra_notation.svg"
   xmlns:inkscape="http://www.inkscape.org/namespaces/inkscape"
   xmlns:sodipodi="http://sodipodi.sourceforge.net/DTD/sodipodi-0.dtd"
   xmlns="http://www.w3.org/2000/svg"
   xmlns:svg="http://www.w3.org/2000/svg">
  <sodipodi:namedview
     id="namedview14"
     pagecolor="#505050"
     bordercolor="#eeeeee"
     borderopacity="1"
     inkscape:showpageshadow="0"
     inkscape:pageopacity="0"
     inkscape:pagecheckerboard="0"
     inkscape:deskcolor="#505050"
     inkscape:document-units="mm"
     showgrid="true"
     inkscape:zoom="0.13255831"
     inkscape:cx="4254.7314"
     inkscape:cy="1237.1914"
     inkscape:window-width="1366"
     inkscape:window-height="746"
     inkscape:window-x="0"
     inkscape:window-y="0"
     inkscape:window-maximized="1"
     inkscape:current-layer="layer1"
     inkscape:lockguides="false"
     showguides="true">
    <inkscape:grid
       type="xygrid"
       id="grid344"
       color="#969696"
       opacity="0.39215686"
       empcolor="#000000"
       empopacity="0.17254902"
       dotted="false"
       originx="134.45158"
       originy="314.05852" />
    <sodipodi:guide
       position="408.30243,50.399258"
       orientation="0,-1"
       id="guide2196"
       inkscape:locked="false" />
  </sodipodi:namedview>
  <defs
     id="defs9" />
  <g
     inkscape:label="Layer 1"
     inkscape:groupmode="layer"
     id="layer1"
     transform="translate(29.451552,165.55832)">
    <path
       style="fill:none;stroke:#ffffff;stroke-width:1.5;stroke-dasharray:none"
       d="m 774.50293,-32.121898 c -15.04395,13.714727 -28.31335,38.2044011 -5.79624,52.71912 5.5574,3.582347 21.28631,1.818256 27.15657,-0.2897 36.68436,-13.1730276 31.22793,-52.830216 10.19722,-78.113125 -14.18886,-17.057698 -38.10715,-25.90161 -56.99675,-36.20821 -3.06824,-1.674098 -6.71728,-3.517678 -1.93208,-4.827733"
       id="path10199" />
    <path
       style="fill:none;stroke:#ffffff;stroke-width:1.5;stroke-dasharray:none"
       d="m 833.64648,-141.13274 c -5.87918,1.67283 6.31581,-28.96791 13.20265,-22.88356 10.93856,9.66395 -6.91404,58.14039 -11.9146,70.195641 -0.92529,2.230678 -4.39431,7.487443 -2.03946,6.951929 12.41701,-2.823744 44.43898,-21.11132 54.85001,-5.503616"
       id="path10203" />
    <path
       style="fill:none;stroke:#ffffff;stroke-width:1.5;stroke-dasharray:none"
       d="m 956.97834,-71.033642 c -3.47062,0.354023 -7.44929,-0.780145 -10.41189,1.062069 -12.20324,7.588345 -12.42488,42.769734 -8.47973,54.457131 3.06557,9.081598 18.65193,19.6647963 11.91458,15.44884347"
       id="path10205" />
    <path
       style="fill:none;stroke:#ffffff;stroke-width:1.5;stroke-dasharray:none"
       d="m 914.36502,-12.714298 c 5.40269,-3.926597 10.03737,-9.224399 16.20803,-11.779785 11.90215,-4.928893 48.09787,-6.094153 61.29031,-2.703536"
       id="path10207" />
    <path
       style="fill:none;stroke:#ffffff;stroke-width:1.5;stroke-dasharray:none"
       d="m 649.56097,84.999519 c -4.93757,-0.09655 -9.87515,-0.193093 -14.81273,-0.289639 -0.89448,0 -3.57155,-0.106519 -2.68343,0 63.34426,7.59751 130.11545,2.634387 193.20926,-1.83456 79.7542,-5.649003 159.78595,-14.627355 238.93543,-26.069891"
       id="path10209" />
    <path
       style="fill:none;stroke:#ffffff;stroke-width:1.5;stroke-dasharray:none"
       d="m 791.9991,152.78129 c -2.82658,1.57707 -6.46694,2.19636 -8.47973,4.7312 -1.71848,2.16416 -1.71737,5.34712 -1.71737,8.11059 0,19.14721 12.01493,36.49691 32.20145,38.33249 27.05609,2.4602 46.51273,-19.67831 32.52357,-44.60854 -10.16101,-18.108 -26.35846,-32.3506 -43.36475,-43.73953 -9.28042,-6.21499 -28.89264,-10.95869 -35.74363,-18.442014"
       id="path10211" />
    <path
       style="fill:none;stroke:#ffffff;stroke-width:1.5;stroke-dasharray:none"
       d="m 892.03856,135.11165 c -0.61371,6.05557 -3.13368,50.6096 -10.62654,51.46397 -2.22888,0.25413 -7.24895,-5.28799 -8.26508,-6.27613"
       id="path10213" />
    <path
       style="fill:none;stroke:#ffffff;stroke-width:1.5;stroke-dasharray:none"
       d="m 859.19302,151.42953 c -2.18257,-4.05532 -4.36515,-8.11064 -6.54772,-12.16596 -0.0358,-0.38624 -0.47953,-1.26786 -0.10734,-1.15869 22.26849,6.53177 -21.98187,-3.59013 6.65506,13.32465 15.81145,9.33926 15.0698,-10.89911 23.29241,8.97959"
       id="path10215" />
    <path
       style="fill:none;stroke:#ffffff;stroke-width:1.5;stroke-dasharray:none"
       d="m 950.32343,128.15972 c -41.60681,33.074 20.39202,82.70068 35.42162,47.89138 5.45545,-12.63504 1.48569,-22.1185 -3.11284,-34.66335 -12.29212,-33.53297 -30.67259,-52.509757 -55.92332,-73.381934"
       id="path10217" />
    <path
       style="fill:none;stroke:#ffffff;stroke-width:1.5;stroke-dasharray:none"
       d="m 1031.7932,113.09706 c -0.7155,-2.80008 0.6533,-9.11584 -2.1468,-8.40024 -2.8,0.71559 2.87,5.60211 2.1468,8.40024 -2.3619,9.13882 -7.9908,17.14228 -11.0558,26.06996 -10.8773,31.68338 -6.5346,57.76537 -24.90257,19.89032"
       id="path10219" />
    <path
       style="fill:none;stroke:#ffffff;stroke-width:1.5;stroke-dasharray:none"
       d="m 990.57529,143.89819 c 5.62843,6.57379 -12.57517,-36.1046 -7.51367,-32.1529 9.57038,7.47194 16.79964,17.53886 25.43918,26.06995 14.0814,13.90457 31.7598,26.61425 43.0427,43.06361"
       id="path10221" />
    <path
       style="fill:none;stroke:#ffffff;stroke-width:1.5;stroke-dasharray:none"
       d="m 1173.2653,23.783549 c 9.7121,8.789836 53.6093,-7.041944 59.3583,-0.965584 0.9738,1.029319 -1.4312,2.446078 -2.1468,3.669117"
       id="path10223" />
    <path
       style="fill:none;stroke:#ffffff;stroke-width:1.5;stroke-dasharray:none"
       d="m 1173.9094,55.067416 c 28.2414,6.895266 59.7633,-10.979671 87.2661,-0.96552"
       id="path10225" />
    <path
       style="fill:none;stroke:#ffffff;stroke-width:1.5;stroke-dasharray:none"
       d="m 1415.743,-32.990935 c -6.6192,2.220785 -14.0227,2.828448 -19.8577,6.662353 -10.6501,6.997705 -4.648,27.8704727 -0.5366,36.1116005 4.6374,9.2957145 27.436,34.3440085 27.1565,35.6288735 -0.2115,0.972605 -1.8605,0.708086 -2.7907,1.062127"
       id="path10227" />
    <path
       style="fill:none;stroke:#ffffff;stroke-width:1.5;stroke-dasharray:none"
       d="m 1381.3946,31.701062 c 0.8945,-3.475985 -0.3362,-8.487754 2.6835,-10.427957 9.6,-6.168324 43.6505,-6.754489 52.5958,2.220743"
       id="path10229" />
    <path
       style="fill:none;stroke:#ffffff;stroke-width:1.5;stroke-dasharray:none"
       d="m 1503.5458,65.591919 c 3.0664,-7.068188 5.1987,-18.556668 0,0 -2.5306,9.032798 -5.5677,30.095004 -10.4118,40.842851 -0.9079,2.01444 -1.2707,-4.23366 -1.8248,-6.37265 -1.2218,-4.716678 -2.6458,-9.379473 -3.8642,-14.097017 -2.0111,-7.787119 -5.2328,-17.430451 -6.4402,-25.683707 -0.4792,-3.275074 3.9241,5.342741 6.1183,7.820966 9.804,11.073575 29.5174,29.253323 45.2967,27.42166"
       id="path10231" />
    <path
       style="fill:none;stroke:#ffffff;stroke-width:1.5;stroke-dasharray:none"
       d="m 1577.0726,43.287692 c -10.6823,11.20162 -11.4007,25.97885 -15.5641,40.070421 -2.2603,7.65057 -3.8236,10.779712 -4.6154,10.427956 -2.8509,-1.266401 -4.5083,-4.3128 -6.7624,-6.4692"
       id="path10233" />
    <path
       style="fill:none;stroke:#ffffff;stroke-width:1.5;stroke-dasharray:none"
       d="m 1526.731,48.308579 c 10.2409,8.867405 34.4478,13.999266 41.4326,25.780193"
       id="path10235" />
    <path
       style="fill:none;stroke:#ffffff;stroke-width:1.5;stroke-dasharray:none"
       d="m 464.1188,79.028043 c 11.60463,1.846646 75.05524,-11.910671 77.71305,-6.951991 1.29534,2.41671 -5.73323,6.454979 -11.27055,10.427957"
       id="path10237" />
    <path
       style="fill:none;stroke:#ffffff;stroke-width:1.5;stroke-dasharray:none"
       d="m 463.79675,116.29833 c -4.3293,2.09204 -8.73593,4.03109 -12.98791,6.2761 -0.96951,0.51189 2.12567,-0.58512 3.1128,-1.06214 3.35156,-1.61957 6.3284,-4.08403 9.87511,-5.21396 18.39434,-5.8602 39.71524,-9.91544 59.03617,-11.58663"
       id="path10239" />
    <path
       style="fill:none;stroke:#ffffff;stroke-width:1.5;stroke-dasharray:none"
       d="m 153.69597,-51.707716 c -22.26271,-17.371269 -27.14498,23.772553 -14.92007,36.884093 13.58556,14.57087952 38.11273,16.361979 53.13257,2.510441 8.12715,-7.494987 4.00883,-26.860619 2.03941,-34.180557 -1.52927,-5.683898 -4.08869,-11.092627 -6.97701,-16.221271 -4.00958,-7.119641 -8.34375,-14.144106 -13.63197,-20.37312 -5.7621,-6.787176 -12.47191,-12.753628 -19.32094,-18.44208 -3.40793,-2.83045 -54.525064,-34.76329 -56.782039,-32.0563 -0.556472,0.66745 0,1.738 0,2.60699"
       id="path10241" />
    <path
       style="fill:none;stroke:#ffffff;stroke-width:1.5;stroke-dasharray:none"
       d="m 252.66201,-84.439899 c 12.78427,-37.241071 -32.13071,-8.184962 -23.18512,19.021353 3.72994,11.34387 10.1522,16.291652 19.42828,22.883563 5.80744,4.126966 13.20435,7.043375 12.66594,7.627877 -1.39631,1.515912 -4.0073,0.965541 -6.01096,1.448313"
       id="path10243" />
    <path
       style="fill:none;stroke:#ffffff;stroke-width:1.5;stroke-dasharray:none"
       d="m 221.9632,-35.100199 c 8.19854,-17.174689 24.93076,-19.214168 42.18403,-22.883624 8.83867,-1.879828 7.84754,-3.427902 8.9091,0.869037"
       id="path10245" />
    <path
       style="fill:none;stroke:#ffffff;stroke-width:1.5;stroke-dasharray:none"
       d="m 41.634581,-77.005177 c -2.504546,6.082975 -6.131137,11.81744 -7.51369,18.248924 -4.219946,19.630858 8.842692,44.349386 31.879539,41.132548 5.413851,-0.755984 12.198721,-1.888144 15.027381,-6.565747 16.076242,-26.584417 -24.229086,-84.638808 -44.116122,-101.479538 -4.297706,-3.6394 -9.307115,-6.34708 -14.061307,-9.36586 -6.208342,-3.9421 -9.921029,-4.98494 -8.587105,-4.34497 0.636693,0.30546 1.288071,0.57934 1.932119,0.869"
       id="path10247" />
    <path
       style="fill:none;stroke:#ffffff;stroke-width:1.5;stroke-dasharray:none"
       d="M -16.972214,60.972212 C -24.527947,72.136094 -31.124141,56.339236 -27.81341,53.440885 -11.512034,39.169961 24.396686,37.413088 43.029993,35.385052 85.268976,30.787797 127.62054,27.290252 169.90408,23.122538 220.56975,18.12863 273.58217,8.9249961 324.36412,7.9633944"
       id="path10249" />
    <path
       style="fill:none;stroke:#ffffff;stroke-width:1.5;stroke-dasharray:none"
       d="m 192.76717,98.628736 c -35.45514,19.424154 18.76224,54.972484 36.17307,29.159684 10.02178,-14.85805 -13.70828,-49.153942 -23.82914,-58.802148 -4.31488,-4.113363 -9.64835,-7.009019 -14.59805,-10.33141 -1.01885,-0.683874 -10.10713,-4.912971 -5.04491,-3.86221"
       id="path10251" />
    <path
       style="fill:none;stroke:#ffffff;stroke-width:1.5;stroke-dasharray:none"
       d="m 254.27211,61.648096 c 0.75136,5.535818 2.03885,11.025028 2.25409,16.607456 2.32315,60.255188 -4.0925,-18.76761 0,29.642468 0.42566,5.03508 4.67714,17.07161 0,15.15915"
       id="path10253" />
    <path
       style="fill:none;stroke:#ffffff;stroke-width:1.5;stroke-dasharray:none"
       d="m 232.26772,84.628206 c 9.34249,-0.161383 61.88387,27.326674 56.13799,35.725424"
       id="path10255" />
    <path
       style="fill:none;stroke:#ffffff;stroke-width:1.5;stroke-dasharray:none"
       d="m 35.623645,112.82234 c -9.318414,8.35356 -26.6750272,29.40482 -15.778745,43.2567 10.252049,13.0329 45.740584,8.7294 49.05367,-8.5934 1.895211,-9.90928 -2.036392,-19.67902 -6.118304,-28.38725 C 53.170785,98.597843 38.14433,80.735587 18.878854,68.889725 16.228152,67.259879 13.418965,65.902138 10.721114,64.351632 10.352444,64.139759 9.2001572,63.613794 9.5403849,63.868841 10.179089,64.347647 10.9118,64.687052 11.57982,65.124062"
       id="path10257" />
    <path
       style="fill:none;stroke:#ffffff;stroke-width:1.5;stroke-dasharray:none"
       d="m 102.60284,88.683569 c -0.62119,16.283111 -3.532536,32.290291 -5.152262,48.470681 -0.277681,2.77399 0.729932,9.72272 -1.610043,8.20719 -1.848326,-1.19709 -2.862368,-3.34725 -4.293552,-5.02087"
       id="path10259" />
    <path
       style="fill:none;stroke:#ffffff;stroke-width:1.5;stroke-dasharray:none"
       d="m 70.615981,105.87036 c -1.967865,-2.83228 -3.07131,-10.464712 -5.903595,-8.496847 -2.832285,1.967859 2.838899,6.915067 5.903595,8.496847 34.778319,17.95013 20.307485,-1.25918 30.162099,13.32466"
       id="path10261" />
  </g>
</svg>
