<?xml version="1.0" encoding="UTF-8" standalone="no"?>
<!-- Created with Inkscape (http://www.inkscape.org/) -->

<svg
   width="939.77795mm"
   height="1088.8468mm"
   viewBox="0 0 939.77793 1088.8468"
   version="1.1"
   id="svg12"
   inkscape:version="1.2.1 (9c6d41e410, 2022-07-14, custom)"
   sodipodi:docname="pascell_example_comb.svg"
   xml:space="preserve"
   xmlns:inkscape="http://www.inkscape.org/namespaces/inkscape"
   xmlns:sodipodi="http://sodipodi.sourceforge.net/DTD/sodipodi-0.dtd"
   xmlns="http://www.w3.org/2000/svg"
   xmlns:svg="http://www.w3.org/2000/svg"><sodipodi:namedview
     id="namedview14"
     pagecolor="#505050"
     bordercolor="#eeeeee"
     borderopacity="1"
     inkscape:showpageshadow="0"
     inkscape:pageopacity="0"
     inkscape:pagecheckerboard="0"
     inkscape:deskcolor="#505050"
     inkscape:document-units="mm"
     showgrid="true"
     inkscape:zoom="0.11716583"
     inkscape:cx="1433.8651"
     inkscape:cy="2261.7515"
     inkscape:window-width="1366"
     inkscape:window-height="746"
     inkscape:window-x="0"
     inkscape:window-y="0"
     inkscape:window-maximized="1"
     inkscape:current-layer="layer1"
     inkscape:lockguides="false"><inkscape:grid
       type="xygrid"
       id="grid344"
       color="#969696"
       opacity="0.39215686"
       empcolor="#000000"
       empopacity="0.17254902"
       dotted="false"
       originx="-932.09104"
       originy="-9901.703" /></sodipodi:namedview><defs
     id="defs9" /><g
     inkscape:label="Layer 1"
     inkscape:groupmode="layer"
     id="layer1"
     transform="translate(-1037.0914,-10050.203)"><path
       style="fill:none;stroke:#00ffff;stroke-width:5.5"
       d="m 1358.5544,10360.645 c 17.5068,26.633 -0.2433,-1.611 13.0876,23.02 2.6202,4.842 6.4973,8.383 10.3999,12.088 16.7491,15.904 6.9147,17.55 11.3347,-6.307 0.4733,-2.554 1.7917,-9.959 4.3236,-11.667 1.7762,-1.198 9.4835,8.233 9.2314,17.134 -0.074,2.619 -1.6051,5.125 -3.2719,7.147 -0.3875,0.47 -57.1838,17.498 -32.1346,2.313"
       id="path1098" /><path
       style="fill:none;stroke:#00ffff;stroke-width:5.5"
       d="m 1475.2907,10361.066 c -3.1161,5.501 -6.2192,11.009 -9.3482,16.503 -2.5189,4.422 -5.0634,8.829 -7.5955,13.244 -1.2816,2.234 -5.5765,13.673 -8.5303,14.611 -4.9158,1.56 -7.486,-31.043 -12.2695,-31.85 -4.794,-0.808 -2.6376,9.775 -1.5192,14.506 0.7111,3.008 4.5662,14.043 8.9977,15.872 9.5004,3.921 13.557,2.543 21.9684,1.472 2.2508,-0.287 8.3823,-0.974 6.7775,0.63"
       id="path1100" /><path
       style="fill:none;stroke:#00ffff;stroke-width:5.5"
       d="m 1272.2,10557.419 c 12.675,5.777 18.1382,18.085 24.7728,29.537 2.6712,4.61 5.0459,8.849 5.1416,7.988 0.8396,-7.553 -5.0263,-19.946 -0.3506,-26.488 3.8119,-5.334 19.7652,6.894 20.5662,11.878 1.9421,12.083 -59.6857,6.806 -40.6649,14.505"
       id="path1173" /><path
       style="fill:none;stroke:#ff00ff;stroke-width:5.5"
       d="m 1383.9116,10556.788 c -4.8878,8.946 -11.4057,16.691 -18.2291,24.176 -1.3172,1.445 -3.9544,6.155 -4.0899,4.205 -0.2434,-3.505 6.3306,-32.375 3.973,-32.375 -4.7752,0 -16.683,19.041 -12.6201,23.335 6.5803,6.955 43.8963,16.111 37.0424,25.122"
       id="path1177" /><path
       style="fill:none;stroke:#ff00ff;stroke-width:5.5"
       d="m 1477.2772,10566.459 c 10.5631,11.758 6.3957,7.529 15.1909,16.187 10.5142,10.35 2.6136,2.772 10.8674,10.196 3.6152,3.252 3.3929,2.968 6.1931,6.307 1.4079,1.679 7.7193,12.806 6.7776,6.622 -0.2519,-1.654 -5.1363,-25.525 -4.0899,-25.648 5.68,-0.666 19.8191,9.519 21.7346,14.086 3.938,9.387 -57.4106,13.361 -36.5749,14.61"
       id="path1179" /><path
       style="fill:none;stroke:#00ffff;stroke-width:5.5"
       d="m 1591.209,10554.37 c -1.9086,4.871 -3.4282,9.912 -5.7258,14.611 -0.3586,0.734 -9.0075,13.455 -9.9325,14.821 -20.1473,29.755 2.6926,-22.023 -10.2831,-21.022 -7.0174,0.541 -7.4552,12.655 -6.5438,16.397 1.6924,6.948 10.5018,10.64 15.892,12.824 1.6884,0.684 30.1087,6.003 19.9819,14.716"
       id="path1183" /><path
       style="fill:none;stroke:#00ff00;stroke-width:5.5"
       d="m 1354.4254,10766.443 c 14.853,13.101 11.9494,9.534 25.9414,26.909 4.5332,5.629 8.6338,11.996 12.737,17.974 2.1246,3.096 4.172,6.248 6.4269,9.251 18.614,24.781 -13.1954,-27.736 0.5843,-27.645 12.6344,0.08 22.5687,9.5 24.8897,21.443 1.6381,8.428 -5.3639,20.177 -13.9056,22.179 -7.5849,1.778 -15.5843,0.467 -23.3706,0.21 -8.4716,-0.28 -14.5308,-2.572 -12.737,-1.682 1.2216,0.606 2.5708,0.911 3.8562,1.367"
       id="path1316" /><path
       style="fill:none;stroke:#00ff00;stroke-width:5.5"
       d="m 1546.6488,10772.329 c -16.152,15.906 -5.5353,6.304 -16.2426,14.926 -8.9402,7.2 -5.9591,5.025 -15.3078,13.034 -3.7942,3.251 -7.6346,6.447 -11.4516,9.671 -5.3066,4.482 -9.534,10.231 -5.8426,0.42 1.3113,-3.485 14.097,-36.616 11.1011,-38.156 -7.7768,-3.997 -22.2056,37.365 -14.1393,43.412 13.7535,10.31 54.6108,-1.152 51.8828,25.227"
       id="path1318" /><path
       style="fill:none;stroke:#00ff00;stroke-width:5.5"
       d="m 1323.3425,10766.758 c -3.3657,11.789 -12.2299,17.449 -19.6314,26.174 -4.5439,5.356 -8.4542,11.292 -13.0875,16.502 -2.0892,2.35 -2.3943,7.742 -2.4539,7.464 -1.6009,-7.489 -2.6047,-15.048 -3.8562,-22.6 -1.0705,-6.46 -2.0259,-13.24 -3.8562,-19.551 -0.8166,-2.816 -1.2891,5.724 -1.7527,8.619 -0.9185,5.737 -1.908,11.467 -2.5708,17.239 -1.3288,11.573 -5.9174,23.974 -1.8696,34.898 3.1773,8.574 56.8608,-21.745 41.4828,-7.358"
       id="path1320" /><path
       style="fill:none;stroke:#00ffff;stroke-width:5.5"
       d="m 1212.332,10762.343 c 6.8452,15.606 5.7486,14.561 14.2561,28.591 1.1296,1.863 2.4771,3.585 3.7393,5.361 21.733,30.578 2.8783,-6.723 12.1528,-17.028 3.2597,-3.623 10.1661,4.934 10.1661,7.778 0,11.274 -24.8882,12.644 -31.6671,13.35 -3.0614,0.318 -10.8819,2.387 -9.2314,-0.211 0.8619,-1.356 1.4393,-0.431 2.4538,-0.735"
       id="path1322" /><path
       style="fill:none;stroke:#00ff00;stroke-width:5.5"
       d="m 1621.7854,10761.923 c 5.8037,5.816 11.672,11.569 17.411,17.449 8.8568,9.074 9.6833,10.449 18.1123,20.707 2.1524,2.62 4.2667,5.271 6.4269,7.884 21.6602,26.203 -18.9559,-23.001 -7.7123,-31.219 6.3871,-4.668 31.5996,4.467 28.1616,13.454 -5.6231,14.701 -19.5478,19.175 -33.1863,22.39 -3.1616,0.745 -8.6156,4.008 -9.6988,0.946 -0.791,-2.236 3.8208,-2.863 5.9595,-3.89"
       id="path1324" /><path
       style="fill:none;stroke:#00ffff;stroke-width:5.5"
       d="m 1743.3126,10729.548 c 3.3115,13.192 3.6945,7.746 -1.2854,22.599 -0.8457,2.523 -19.5321,47.854 -21.5009,45.83 -6.6143,-6.8 -6.5953,-30.447 -7.7124,-40.048 -1.3269,-11.406 -3.5146,29.035 6.31,40.889 7.5039,9.054 51.836,-17.036 37.1594,0.315"
       id="path1326" /><path
       style="fill:none;stroke:#ffff00;stroke-width:5.5"
       d="m 1454.2539,11017.338 c -5.5265,-10.443 -1.0648,-21.838 0,0 z"
       id="path1629" /><path
       style="fill:none;stroke:#ffff00;stroke-width:5.5"
       d="m 1436.9596,11076.833 c -4.3619,-13.198 -3.8397,-22.624 0,0 z"
       id="path1631" /><path
       style="fill:none;stroke:#ffff00;stroke-width:5.5"
       d="m 1435.2068,11118.773 c -6.7465,-17.444 -2.6951,-13.091 0,0 z"
       id="path1633" /><path
       style="fill:none;stroke:#00ffff;stroke-width:5.5"
       d="m 1064.7824,11136.853 c 3.863,-2.908 11.852,-15.024 19.5145,-13.875"
       id="path1635" /><path
       style="fill:none;stroke:#00ffff;stroke-width:5.5"
       d="m 1101.2406,10949.855 c -13.7614,-10.398 0.5303,-18.309 1.1686,-13.034 0.524,4.331 -0.7791,8.69 -1.1686,13.034 z"
       id="path1637" /><path
       style="fill:none;stroke:#00ffff;stroke-width:5.5"
       d="m 1066.6521,11025.748 c -3.0667,-9.621 0.1936,-17.07 0,0 z"
       id="path1639" /><path
       style="fill:none;stroke:#00ffff;stroke-width:5.5"
       d="m 1039.5422,11126.552 c 5.9206,-11.633 5.9206,-11.633 0,0 z"
       id="path1641" /><path
       style="fill:none;stroke:#00ffff;stroke-width:5.5"
       d="m 1854.0083,10937.872 c 0.7582,-29.533 9.6326,-15.196 7.1281,-9.88 -1.731,3.673 -4.752,6.587 -7.1281,9.88 z"
       id="path1643" /><path
       style="fill:none;stroke:#00ffff;stroke-width:5.5"
       d="m 1924.5876,11027.429 c -5.8629,-15.672 5.3887,-24.658 0,0 z"
       id="path1645" /><path
       style="fill:none;stroke:#00ffff;stroke-width:5.5"
       d="m 1974.1334,11053.708 c -2.1925,21.573 -10.5074,18.336 0,0 z"
       id="path1647" /><path
       style="fill:none;stroke:#00ffff;stroke-width:5.5"
       d="m 1416.1484,10086.427 c -6.7247,29.574 -25.4932,64.662 -9.4723,94.165 3.8602,7.108 8.4548,10.505 15.0586,14.092 2.2142,1.202 15.0261,4.067 15.5443,6.663 0.2173,1.09 -1.5382,1.603 -2.3073,2.404"
       id="path1371" /><path
       style="fill:none;stroke:#00ffff;stroke-width:5.5"
       d="m 1457.1951,10111.443 c -16.1562,-3.232 -2.7372,-36.621 10.5653,-30.806 19.2003,8.394 7.5303,41.39 -8.8651,45.772 -17.598,4.703 -16.4297,-27.668 -3.1575,-35.503"
       id="path1373" /><path
       style="fill:none;stroke:#00ffff;stroke-width:5.5"
       d="m 1455.252,10174.693 c -16.1773,-0.657 -20.1956,-10.224 -11.901,-24.251 10.2946,-17.41 36.3393,-8.096 36.5534,11.361 0.1546,14.048 -18.4728,49.008 -33.0317,25.343 -6.3155,-10.266 -1.7465,-29.253 -0.7286,-38.671"
       id="path1375" /><path
       style="fill:none;stroke:#00ffff;stroke-width:5.5"
       d="m 1487.3122,10051.907 c 26.2408,33.249 33.5041,77.743 19.7948,117.542 -2.9615,8.598 -16.9623,28.557 -11.5369,19.773"
       id="path1377" /><path
       style="fill:none;stroke:#00ffff;stroke-width:5.5"
       d="m 1278.8,10241.438 c -8.024,9.296 -7.2581,6.888 -11.5368,16.277 -10.995,24.127 -9.688,45.308 2.4287,69.695 0.4946,0.996 12.2122,20.285 8.6223,10.597"
       id="path1442" /><path
       style="fill:none;stroke:#00ffff;stroke-width:5.5"
       d="m 1307.7026,10243.296 c -1.5623,10.719 -1.2771,21.58 -0.8501,32.335"
       id="path1444" /><path
       style="fill:none;stroke:#00ffff;stroke-width:5.5"
       d="m 1308.5527,10315.94 c -22.9195,7.482 -13.8834,28.411 8.9866,23.05 10.9343,-2.563 23.5828,-20.777 6.5577,-22.831 -5.1446,-0.621 -10.3629,-0.146 -15.5443,-0.219 z"
       id="path1446" /><path
       style="fill:none;stroke:#00ffff;stroke-width:5.5"
       d="m 1334.1765,10226.036 c 2.9146,4.879 6.2406,9.535 8.7437,14.638 13.3765,27.268 17.7905,56.857 9.958,86.518 -0.4827,1.828 -5.2612,16.504 -9.3508,20.428 -0.4972,0.477 -1.9303,0.785 -2.0644,0.109 -0.408,-2.055 0.5666,-4.151 0.85,-6.227"
       id="path1448" /><path
       style="fill:none;stroke:#00ffff;stroke-width:5.5"
       d="m 1542.446,10233.246 c -17.545,17.559 -28.6567,44.796 -18.8232,69.258 4.6062,11.458 19.2798,18.575 26.3524,24.142"
       id="path1450" /><path
       style="fill:none;stroke:#00ffff;stroke-width:5.5"
       d="m 1578.0278,10241.22 c -0.6567,8.839 -0.8057,19.156 1.4573,27.638"
       id="path1452" /><path
       style="fill:none;stroke:#00ffff;stroke-width:5.5"
       d="m 1580.2137,10297.916 c 2.387,1.255 -0.5166,49.627 2.6717,30.368"
       id="path1454" /><path
       style="fill:none;stroke:#00ffff;stroke-width:5.5"
       d="m 1590.9004,10238.926 c 24.2268,2.692 27.4468,15.345 27.5668,38.78 0.047,9.115 -1.0407,18.256 -2.7931,27.201 -1.9373,9.888 -12.4248,38.083 -7.5292,29.276"
       id="path1456" /><path
       style="fill:none;stroke:#00ffff;stroke-width:5.5"
       d="m 1207.7576,10408.466 c 0.4048,-4.369 0.081,-8.869 1.2144,-13.108 2.168,-8.109 16.5176,-9.882 15.7872,1.857 -0.9643,15.497 -7.1718,29.032 -15.18,41.839 -1.4085,2.252 -3.8878,4.051 -4.3718,6.663 -0.6264,3.381 6.7981,-1.036 10.2009,-1.529 6.8383,-0.991 19.6289,-3.536 25.381,1.639"
       id="path1458" /><path
       style="fill:none;stroke:#00ffff;stroke-width:5.5"
       d="m 1215.6512,10484.388 c -5.4243,5.972 -11.3845,11.498 -16.273,17.916 -19.3306,25.378 57.9139,19.261 40.8038,-1.202 -4.5044,-5.387 -20.6402,-14.328 -24.5308,-16.714 z"
       id="path1460" /><path
       style="fill:none;stroke:#00ffff;stroke-width:5.5"
       d="m 1260.3411,10392.736 c 22.4294,27.891 24.6519,70.623 8.8651,102.576"
       id="path1462" /><path
       style="fill:none;stroke:#00ffff;stroke-width:5.5"
       d="m 1187.5986,10375.367 c -26.0235,50.131 -44.8849,121.689 17.6088,152.608"
       id="path1466" /><path
       style="fill:none;stroke:#00ffff;stroke-width:5.5"
       d="m 1595.3937,10400.82 c -7.102,10.064 -9.5643,10.717 -11.5368,21.52 -3.6835,20.173 0.7138,38.983 8.1365,57.679 0.4141,1.043 13.8739,31.545 12.2654,16.713"
       id="path1468" /><path
       style="fill:none;stroke:#00ffff;stroke-width:5.5"
       d="m 1621.3819,10399.836 c 10.5345,-40.016 20.3132,23.75 -3.6432,37.361 -1.5845,0.9 3.0003,-2.176 4.7361,-2.731 1.8589,-0.595 49.1986,-9.158 32.9102,1.638"
       id="path1482" /><path
       style="fill:none;stroke:#00ffff;stroke-width:5.5"
       d="m 1633.1615,10467.565 c 6.0415,-3.344 16.0964,-15.033 16.3944,-2.075 0.2654,11.541 -7.3639,22.106 -13.9656,30.696 -5.3029,6.901 -8.4659,8.449 -8.015,8.084 8.4303,-6.825 19.6296,-8.795 30.2385,-9.176 2.0995,-0.08 4.2097,-0.387 5.9506,0.983 0.9006,0.709 2.266,3.837 1.3359,3.168 -0.9147,-0.659 -1.538,-2.734 -1.8217,-3.387"
       id="path1484" /><path
       style="fill:none;stroke:#00ffff;stroke-width:5.5"
       d="m 1660.4855,10372.854 c 4.979,10.232 10.0997,20.397 14.9371,30.697 10.9312,23.275 17.227,44.628 15.3014,70.678 -0.9507,12.861 -6.3863,32.798 -8.9865,25.78"
       id="path1486" /><path
       style="fill:none;stroke:#ff00ff;stroke-width:5.5"
       d="m 1419.0861,10443.449 c -0.029,-32.376 22.1439,-20.184 15.0586,4.151 -9.0361,31.035 -33.4802,16.344 2.3073,25.671 5.524,1.44 10.9212,1.892 13.3584,0.874"
       id="path1620" /><path
       style="fill:none;stroke:#ff00ff;stroke-width:5.5"
       d="m 1430.6229,10507.354 c 5.6191,-1.475 4.2056,38.35 5.2219,34.083"
       id="path1622" /><path
       style="fill:none;stroke:#ff00ff;stroke-width:5.5"
       d="m 1463.4117,10432.088 c 14.3648,25.135 19.3676,53.04 13.4798,81.493 -0.4917,2.376 -3.3303,16.57 -9.108,12.672"
       id="path1624" /><path
       style="fill:none;stroke:#ff00ff;stroke-width:5.5"
       d="m 1405.1205,10426.407 c -15.5119,23.149 -25.1114,56.137 -13.1155,83.023 7.3284,16.424 21.2167,21.301 32.6673,33.318"
       id="path1626" /><path
       style="fill:none;stroke:#00ffff;stroke-width:5.5"
       d="m 1143.4205,10585.584 c -14.1019,30.106 -29.7966,66.386 -13.8441,98.862 1.3211,2.689 15.9242,20.005 13.2369,17.587"
       id="path1630" /><path
       style="fill:none;stroke:#00ffff;stroke-width:5.5"
       d="m 1171.3517,10612.457 c -7.0969,-2.566 -0.9181,-20.894 7.2864,-15.185 2.5722,1.79 7.0054,14.16 3.1574,16.059 -3.133,1.545 -13.8024,-1.836 -10.4438,-0.874 5.1175,1.464 11.1653,-0.238 15.7872,2.403 4.2124,2.407 5.2506,40.195 -14.087,28.73"
       id="path1632" /><path
       style="fill:none;stroke:#00ffff;stroke-width:5.5"
       d="m 1183.86,10663.035 c -2.8741,3.277 -6.5045,6.022 -8.6222,9.831 -0.9915,1.784 -0.5733,4.104 -0.2429,6.118 3.7999,23.168 34.1052,2.099 31.21,-13.874 -0.8254,-4.554 -19.9816,-4.073 -22.3449,-2.075 -4.5268,3.827 -3.9196,11.191 -6.072,16.714 -0.3213,0.824 -1.9475,2.933 -1.3358,2.294 2.0973,-2.193 3.886,-4.661 5.8291,-6.992"
       id="path1634" /><path
       style="fill:none;stroke:#00ffff;stroke-width:5.5"
       d="m 1191.5107,10647.523 c 3.192,16.771 1.5885,33.977 0.9715,50.906 -0.4025,11.043 -0.5744,12.466 -0.3643,12.125 1.8428,-2.984 0.7202,-6.982 0.8501,-10.487"
       id="path1636" /><path
       style="fill:none;stroke:#00ffff;stroke-width:5.5"
       d="m 1204.6262,10557.509 c 17.1509,39.546 34.6632,82.298 25.3809,126.281 -1.5669,7.425 -4.1362,20.557 -11.6582,19.554 -2.2302,-0.297 -2.8336,-3.495 -4.2504,-5.243"
       id="path1638" /><path
       style="fill:none;stroke:#00ff00;stroke-width:5.5"
       d="m 1335.7813,10626.439 c -2.0596,-19.497 18.7524,-14.091 16.7587,1.311 -0.7827,6.047 -8.5682,21.06 -10.201,15.185 -2.7025,-9.725 12.203,-3.468 15.0586,0.546 5.2305,7.352 1.5147,16.076 -2.1859,23.705 -5.1991,10.718 -24.6625,6.644 -16.6373,-2.294"
       id="path1703" /><path
       style="fill:none;stroke:#00ff00;stroke-width:5.5"
       d="m 1349.7469,10701.16 c 4.627,1.178 -0.012,45.358 2.4287,25.234"
       id="path1705" /><path
       style="fill:none;stroke:#00ff00;stroke-width:5.5"
       d="m 1377.3137,10631.028 c 1.2144,4.624 2.9747,9.139 3.6432,13.873 2.9055,20.576 4.7781,33.524 0.7287,52.763 -1.6046,7.623 -8.2111,29.987 -7.0436,22.285"
       id="path1707" /><path
       style="fill:none;stroke:#00ff00;stroke-width:5.5"
       d="m 1327.1591,10618.683 c -3.1575,5.39 -7.4164,10.27 -9.4723,16.168 -7.4595,21.4 -11.1629,77.267 12.8726,90.123"
       id="path1709" /><path
       style="fill:none;stroke:#00ff00;stroke-width:5.5"
       d="m 1551.3371,10637.363 c -11.9325,-1.612 5.1136,-12.447 5.1005,-12.344 -0.558,4.417 -7.6006,8.661 -5.1005,12.344 8.2806,12.202 20.1094,-1.35 19.3089,12.454 -0.7292,12.573 -22.7126,18.931 -16.8801,14.638"
       id="path1711" /><path
       style="fill:none;stroke:#00ff00;stroke-width:5.5"
       d="m 1557.0447,10704.983 c -19.3459,-5.872 10.6945,-15.957 8.7438,-11.907 -2.1371,4.436 -7.7018,7.094 -8.7438,11.907 -3.5946,16.603 9.0181,16.685 -6.1934,30.369 -0.2773,0.249 -0.4578,-0.788 -0.2428,-1.093 2.8116,-3.985 5.0311,-5.628 9.5938,-7.21 5.0145,-1.738 8.3034,-2.415 13.3582,-1.966 5.0982,0.453 6.8035,2.351 6.9222,1.966 0.2045,-0.662 -0.081,-1.383 -0.1215,-2.075"
       id="path1713" /><path
       style="fill:none;stroke:#00ff00;stroke-width:5.5"
       d="m 1594.8126,10627.532 c 4.3718,2.84 10.2706,4.152 13.1155,8.521 7.9,12.131 4.5626,45.339 2.6717,58.88 -1.4251,10.205 0.7219,23.557 -7.2865,30.041"
       id="path1715" /><path
       style="fill:none;stroke:#00ff00;stroke-width:5.5"
       d="m 1537.9787,10630.044 c -4.4528,3.059 -9.689,5.212 -13.3583,9.177 -19.004,20.533 -19.8093,59.929 -9.5938,84.114 6.399,15.15 19.4057,27.466 30.36,39.327"
       id="path1717" /><path
       style="fill:none;stroke:#00ffff;stroke-width:5.5"
       d="m 1732.8897,10571.382 c 8.4637,-3.615 13.1684,-3.808 15.7872,5.026 2.8393,9.577 -0.9808,24.509 -12.8727,25.562 -2.9848,0.264 -6.2571,-0.311 -9.2293,-0.656 -0.6525,-0.08 -2.5421,-0.06 -1.9431,-0.327 12.0469,-5.42 31.3088,16.826 25.1381,30.477 -5.7704,12.767 -17.7171,9.167 -27.567,3.715 -2.899,-1.605 -4.6677,-3.032 -7.2863,-4.916 -0.3609,-0.26 -1.4633,-0.519 -1.093,-0.765 1.1205,-0.745 2.5907,-0.728 3.8861,-1.092"
       id="path1739" /><path
       style="fill:none;stroke:#00ffff;stroke-width:5.5"
       d="m 1740.9047,10658.556 c 19.6084,-5.037 24.4481,17.181 8.1365,23.05 -5.258,1.892 -17.1377,-0.705 -8.0151,-2.185 7.4565,-1.21 18.5734,7.529 15.7873,15.512 -6.799,19.481 -49.4501,16.153 -29.9956,5.571"
       id="path1741" /><path
       style="fill:none;stroke:#00ffff;stroke-width:5.5"
       d="m 1780.1298,10596.398 c 3.8456,3.241 8.6265,5.621 11.5368,9.723 18.9977,26.773 4.0903,63.198 -11.901,86.955 -3.502,5.202 -8.8652,14.321 -8.8652,4.697"
       id="path1743" /><path
       style="fill:none;stroke:#00ffff;stroke-width:5.5"
       d="m 1712.3663,10586.785 c -26.333,30.92 -34.7747,62.122 -21.9806,101.484 2.048,6.301 7.4233,15.742 14.5729,18.243"
       id="path1745" /><path
       style="fill:none;stroke:#00ffff;stroke-width:5.5"
       d="m 1124.9616,10822.744 c -10.7189,-2.673 -21.7781,7.83 -32.1815,5.352 -4.6563,-1.108 18.3306,-21.127 19.9161,-22.612 1.2441,-1.166 3.2221,-2.846 4.2504,-4.37 0.2417,-0.358 0.6556,-1.599 0.4858,-1.201 -5.831,13.637 6.6566,2.757 7.5292,22.831 2.4502,56.36 -10.7645,12.219 -7.4078,26.108"
       id="path1747" /><path
       style="fill:none;stroke:#00ffff;stroke-width:5.5"
       d="m 1124.5974,10879.002 c -4.0885,0.292 -8.5603,-0.879 -12.2655,0.874 -10.5082,4.971 7.6305,18.388 21.252,14.966 7.2336,-1.817 12.6727,-13.446 2.1859,-16.058 -3.6144,-0.901 -7.4483,0.145 -11.1724,0.218 z"
       id="path1749" /><path
       style="fill:none;stroke:#00ffff;stroke-width:5.5"
       d="m 1133.341,10856.062 c 5.9595,4.479 -11.1273,88.557 -8.6222,57.46"
       id="path1751" /><path
       style="fill:none;stroke:#00ffff;stroke-width:5.5"
       d="m 1153.6215,10804.173 c 4.3718,1.784 9.8565,1.936 13.1154,5.353 15.2985,16.04 3.073,60.856 -3.4003,78.325 -0.3212,0.867 -6.3842,20.986 -12.2654,19.663"
       id="path1753" /><path
       style="fill:none;stroke:#00ffff;stroke-width:5.5"
       d="m 1080.3932,10788.115 c -5.9505,9.613 -13.3967,18.448 -17.8516,28.839 -9.8765,23.037 -15.5074,98.724 12.2654,114.374 3.3156,1.869 7.6102,0.146 11.4153,0.219"
       id="path1755" /><path
       style="fill:none;stroke:#00ffff;stroke-width:5.5"
       d="m 1849.1076,10832.575 c -10.91,-1.45 -20.6679,13.795 -31.0885,12.781 -5.1347,-0.499 17.6613,-30.747 21.4948,-35.066 1.4412,-1.623 6.0171,-5.956 4.0075,-5.134 -8.3745,3.424 5.1223,24.999 5.5862,27.419 1.2544,6.545 -0.7778,13.36 -0.1214,19.991 0.6644,6.712 4.4815,14.839 7.0436,21.083"
       id="path1757" /><path
       style="fill:none;stroke:#00ffff;stroke-width:5.5"
       d="m 1871.6955,10903.909 c 0.4767,-22.134 -25.6034,22.098 -27.8097,15.294 -1.6107,-4.968 9.5391,-22.968 11.1725,-26.109 1.8982,-3.65 5.9505,-14.929 5.9505,-10.815 0,15.273 -6.1134,-31.333 10.6867,21.63 3.9159,12.345 -1.0307,20.588 5.2219,30.587 0.6879,1.1 -0.4858,-2.549 -0.7287,-3.823"
       id="path1759" /><path
       style="fill:none;stroke:#00ffff;stroke-width:5.5"
       d="m 1878.1319,10826.239 c 5.0195,0.07 10.7445,-2.348 15.0585,0.219 4.679,2.784 6.5212,8.85 8.6222,13.873 10.845,25.93 4.2935,51.768 -3.036,77.67 -2.1975,7.766 -1.465,7.236 -5.5862,6.773"
       id="path1761" /><path
       style="fill:none;stroke:#00ffff;stroke-width:5.5"
       d="m 1825.3055,10801.66 c -21.931,30.71 -32.4766,65.758 -12.0226,100.392 8.9289,15.119 23.4464,25.034 34.9747,37.797"
       id="path1763" /><path
       style="fill:none;stroke:#ff0000;stroke-width:5.5"
       d="m 1248.1017,10864.146 c -21.0108,18.673 -24.4073,49.909 -11.7797,74.61 4.9944,9.77 9.6747,13.734 16.8802,20.975 1.8015,1.81 4.3449,7.475 5.5862,5.243 0.4214,-0.758 -1.2144,-1.238 -1.8216,-1.857"
       id="path1828" /><path
       style="fill:none;stroke:#ff0000;stroke-width:5.5"
       d="m 1307,10881.624 c -17.3024,-6.431 -10.7865,-7.726 -26.1095,-0.983 -3.5207,1.549 -12.9574,8.296 -9.7153,6.227 3.5827,-2.288 12.0677,-9.618 13.4799,-10.924 21.0784,-19.503 3.464,-15.957 5.7077,3.823 0.8975,7.912 6.5758,15.91 5.2219,23.705"
       id="path1830" /><path
       style="fill:none;stroke:#ff0000;stroke-width:5.5"
       d="m 1300.5638,10935.589 c 4.7747,12.912 4.5827,25.949 3.2788,39.435"
       id="path1832" /><path
       style="fill:none;stroke:#ff0000;stroke-width:5.5"
       d="m 1325.5803,10855.079 c 11.211,34.842 11.922,72.335 -0.1214,107.164 -0.3117,0.902 -17.8555,37.77 -8.3793,23.705"
       id="path1834" /><path
       style="fill:none;stroke:#ff0000;stroke-width:5.5"
       d="m 1720.8671,10880.204 c -6.4182,-6.853 -34.7903,11.213 -39.225,7.756 -2.4121,-1.881 13.5889,-28.982 16.273,-33.646 1.4756,-2.564 5.1264,-10.375 4.8575,-7.428 -2.175,23.833 -7.8601,54.465 5.8291,76.358"
       id="path1836" /><path
       style="fill:none;stroke:#ff0000;stroke-width:5.5"
       d="m 1707.3874,10955.579 c 3.1155,-18.935 13.5243,-0.17 10.4437,1.53 -3.0806,1.7 -8.5307,-4.482 -10.4437,-1.53 -3.4496,5.325 3.1005,20.4 -3.0361,18.79 -1.3293,-0.349 0.8678,-3.107 2.186,-3.496 1.6322,-0.481 3.4368,-0.576 5.1005,-0.218 12.7306,2.738 18.1534,16.381 10.3223,26.326 -8.6375,10.97 -22.6553,11.909 -26.5953,-2.621"
       id="path1840" /><path
       style="fill:none;stroke:#ff0000;stroke-width:5.5"
       d="m 1743.0907,10851.692 c 17.6857,42.416 20.2594,68.694 8.1365,113.828 -0.3833,1.427 -5.2313,16.613 -8.5009,19.554"
       id="path1842" /><path
       style="fill:none;stroke:#ff0000;stroke-width:5.5"
       d="m 1670.834,10839.567 c -3.3599,1.93 -7.7157,2.719 -10.0796,5.789 -20.7216,26.912 -23.5937,80.989 -14.4513,111.862 7.0624,23.85 14.4517,34.083 28.0525,50.687"
       id="path1844" /><path
       style="fill:none;stroke:#ffff00;stroke-width:5.5"
       d="m 1470.2153,10869.717 c -10.1478,-3.303 -35.3169,14.835 -41.8968,12.016 -1.4773,-0.633 14.9421,-20.552 16.1515,-21.957 6.7717,-7.865 10.2874,-12.834 10.3224,-12.235 1.1524,19.686 -0.6051,41.383 7.0436,60.301"
       id="path1909" /><path
       style="fill:none;stroke:#ffff00;stroke-width:5.5"
       d="m 1463.9004,10942.908 c -14.1918,-9.323 9.1386,-16.641 7.5293,-11.361 -1.3246,4.345 -6.9262,6.858 -7.5293,11.361 -0.7218,5.388 4.574,10.447 3.8861,15.84 -0.074,0.58 -12.8842,21.029 -17.123,19.335 -5.4525,-2.18 10.6029,-5.476 16.3943,-6.445 4.3525,-0.729 19.576,3.562 21.6163,-0.109"
       id="path1911" /><path
       style="fill:none;stroke:#ffff00;stroke-width:5.5"
       d="m 1503.3683,10862.289 c 5.141,7.719 11.7115,14.659 15.4228,23.158 12.1195,27.757 1.7974,64.036 -13.8441,88.157"
       id="path1913" /><path
       style="fill:none;stroke:#ffff00;stroke-width:5.5"
       d="m 1419.4534,10851.365 c -9.3265,25.78 -25.1723,52.605 -14.6943,80.728 7.7426,20.781 27.516,32.059 37.0392,50.906"
       id="path1915" /></g></svg>
