<?xml version="1.0" encoding="UTF-8" standalone="no"?>
<!-- Created with Inkscape (http://www.inkscape.org/) -->

<svg
   width="709.22485mm"
   height="740.67761mm"
   viewBox="0 0 709.22484 740.67763"
   version="1.1"
   id="svg12"
   inkscape:version="1.2.1 (9c6d41e410, 2022-07-14, custom)"
   sodipodi:docname="pascalls_triangle_rows.svg"
   xml:space="preserve"
   xmlns:inkscape="http://www.inkscape.org/namespaces/inkscape"
   xmlns:sodipodi="http://sodipodi.sourceforge.net/DTD/sodipodi-0.dtd"
   xmlns="http://www.w3.org/2000/svg"
   xmlns:svg="http://www.w3.org/2000/svg"><sodipodi:namedview
     id="namedview14"
     pagecolor="#505050"
     bordercolor="#eeeeee"
     borderopacity="1"
     inkscape:showpageshadow="0"
     inkscape:pageopacity="0"
     inkscape:pagecheckerboard="0"
     inkscape:deskcolor="#505050"
     inkscape:document-units="mm"
     showgrid="true"
     inkscape:zoom="0.082451802"
     inkscape:cx="3019.9461"
     inkscape:cy="1321.9845"
     inkscape:window-width="1366"
     inkscape:window-height="746"
     inkscape:window-x="0"
     inkscape:window-y="0"
     inkscape:window-maximized="1"
     inkscape:current-layer="layer1"
     inkscape:lockguides="false"><inkscape:grid
       type="xygrid"
       id="grid344"
       color="#969696"
       opacity="0.39215686"
       empcolor="#000000"
       empopacity="0.17254902"
       dotted="false"
       originx="-978.37938"
       originy="-10115.861" /></sodipodi:namedview><defs
     id="defs9" /><g
     inkscape:label="Layer 1"
     inkscape:groupmode="layer"
     id="layer1"
     transform="translate(-1083.3794,-10264.359)"><path
       style="fill:none;stroke:#00ffff;stroke-width:5.5"
       d="m 1364.9934,10264.471 c 1.0206,25.129 -2.0205,50.449 -0.8628,75.443"
       id="path2036" /><path
       style="fill:none;stroke:#00ffff;stroke-width:5.5"
       d="m 1301.3155,10370.961 c -0.2785,5.607 -1.9706,54.006 3.624,56.038 2.2449,0.816 4.1417,-2.38 6.2125,-3.57"
       id="path2038" /><path
       style="fill:none;stroke:#00ff00;stroke-width:5.5"
       d="m 1432.9856,10353.264 c 4.7743,3.26 11.436,4.771 14.3231,9.78 1.5646,2.714 1.1161,52.663 -1.3806,57.436"
       id="path2040" /><path
       style="fill:none;stroke:#00ffff;stroke-width:5.5"
       d="m 1240.2262,10493.284 c 15.8323,12.891 7.0386,36.568 15.5312,51.847"
       id="path2042" /><path
       style="fill:none;stroke:#00ff00;stroke-width:5.5"
       d="m 1374.6573,10496.078 c 3.7965,-4.709 6.9326,-10.037 11.3894,-14.126 13.2787,-12.184 6.0225,18.241 5.5223,19.559 -5.5205,14.548 -16.188,25.499 -26.2305,36.79 -2.7079,3.045 6.9644,-4.433 10.8718,-5.588 22.385,-6.619 52.2096,-11.106 50.5626,0"
       id="path2044" /><path
       style="fill:none;stroke:#ff00ff;stroke-width:5.5"
       d="m 1525.4823,10454.631 c 10.3732,26.628 3.6101,56.052 2.4161,83.981"
       id="path2046" /><path
       style="fill:none;stroke:#00ffff;stroke-width:5.5"
       d="m 1198.4645,10578.972 c -9.49,-2.378 -6.2246,96.363 2.4161,72.338"
       id="path2048" /><path
       style="fill:none;stroke:#00ff00;stroke-width:5.5"
       d="m 1303.2138,10614.831 c -2.6271,-15.458 20.979,-22.146 23.4694,-7.762 2.169,12.528 -5.0435,26.935 -12.9427,36.014 -1.4289,1.642 -7.1886,4.333 -6.0399,2.484 7.6027,-12.239 34.0593,-6.172 34.8589,8.693 1.3016,24.199 -31.8983,36.329 -35.3767,8.693"
       id="path2050" /><path
       style="fill:none;stroke:#ff00ff;stroke-width:5.5"
       d="m 1429.1891,10618.401 c -6.5163,12.449 7.6984,-25.811 16.739,-22.974 11.7639,3.691 3.4846,28.405 0.8629,34.461 -0.724,1.673 -4.7854,5.276 -4.1416,3.571 7.9966,-21.18 37.8056,-3.59 26.5755,12.573 -6.0832,8.756 -31.2847,36.051 -37.6199,10.09"
       id="path2052" /><path
       style="fill:none;stroke:#ff5555;stroke-width:5.5"
       d="m 1604.8639,10564.38 c 0.2924,26.745 9.7376,51.381 21.0534,75.133"
       id="path2054" /><path
       style="fill:none;stroke:#00ffff;stroke-width:5.5"
       d="m 1125.8131,10744.76 c 8.0558,21.64 18.4438,46.658 16.394,70.631"
       id="path2056" /><path
       style="fill:none;stroke:#00ff00;stroke-width:5.5"
       d="m 1263.6956,10765.872 c -9.5352,-4.543 -30.7935,21.713 -42.4519,23.595 -6.4462,1.041 1.4795,-11.594 8.8009,-31.822 2.672,-7.383 5.2908,-14.797 7.4206,-22.354 0.4795,-1.701 -1.2306,-5.016 0.5176,-5.278 0.7026,-0.105 0.8215,1.185 1.0354,1.863 2.6669,8.444 2.391,18.292 7.593,25.458 3.7399,5.152 15.6108,2.344 17.0844,8.538 2.644,11.113 -6.1555,22.144 -7.0754,33.53 -0.8738,10.816 3.7965,27.596 3.7965,38.963"
       id="path2058" /><path
       style="fill:none;stroke:#ff00ff;stroke-width:5.5"
       d="m 1427.2908,10748.796 c -0.6903,-4.553 2.4827,-14.35 -2.0708,-13.66 -4.5535,0.69 4.1531,9.552 2.0708,13.66 -6.7547,13.326 -21.2581,21.951 -27.0933,35.704 -10.0069,23.585 36.9182,36.717 49.182,10.556 0.7722,-1.648 0.8064,-4.186 -0.5176,-5.434 -12.1064,-11.408 -62.3753,35.308 -35.0315,3.571"
       id="path2060" /><path
       style="fill:none;stroke:#ff5555;stroke-width:5.5"
       d="m 1599.687,10748.02 c -6.5001,1.035 -13.2014,1.195 -19.5003,3.105 -12.5695,3.81 -26.0058,21.714 -40.036,19.559 -6.5546,-1.007 9.1079,-52.457 11.217,-53.089 0.6444,-0.194 -0.026,1.345 0,2.018 0.1469,3.83 -0.189,7.72 0.5177,11.487 2.3621,12.591 8.1994,54.413 19.5002,58.833 2.1637,0.846 4.2567,-1.863 6.385,-2.794"
       id="path2062" /><path
       style="fill:none;stroke:#ffff00;stroke-width:5.5"
       d="m 1682.3473,10683.133 c 4.5537,31.658 11.5771,61.624 10.1817,93.76"
       id="path2064" /><path
       style="fill:none;stroke:#00ffff;stroke-width:5.5"
       d="m 1085.9497,10884.314 c 2.2113,4.477 1.538,90.084 14.4958,70.01"
       id="path2066" /><path
       style="fill:none;stroke:#00ff00;stroke-width:5.5"
       d="m 1179.3095,10977.764 c 19.4926,20.303 24.7003,-17.926 20.5356,-32.599 -4.6188,-16.273 -19.3837,-10.011 -26.7482,-0.31 -7.2503,9.55 -3.1909,6.257 -1.0354,-4.502 1.1647,-5.813 3.1181,-11.616 2.9337,-17.541 -0.2247,-7.219 -2.7611,-14.178 -4.1416,-21.267 18.1216,0.907 39.5422,2.085 56.6025,-5.588"
       id="path2068" /><path
       style="fill:none;stroke:#ff00ff;stroke-width:5.5"
       d="m 1312.5325,10906.202 c 3.6031,6.622 -0.5173,59.954 6.3851,59.609 3.9275,-0.196 6.0974,-4.967 9.1461,-7.451"
       id="path2070" /><path
       style="fill:none;stroke:#ff00ff;stroke-width:5.5"
       d="m 1358.4358,10914.429 c -1.1417,3.991 -10.7816,23.961 -3.2788,31.357 12.152,11.98 39.2525,-9.195 42.4518,-23.129 2.9857,-13.005 -25.8323,-8.451 -39.173,-8.228 z"
       id="path2072" /><path
       style="fill:none;stroke:#ff00ff;stroke-width:5.5"
       d="m 1370.3431,10877.484 c 1.6682,8.227 3.7998,16.374 5.0045,24.682 2.2568,15.564 4.5095,89.876 9.8364,99.814 0.7857,1.466 1.9558,-2.69 2.9337,-4.036"
       id="path2074" /><path
       style="fill:none;stroke:#ff5555;stroke-width:5.5"
       d="m 1501.8404,10877.794 c 4.8142,14.618 -7.8663,48.652 4.4867,59.765"
       id="path2076" /><path
       style="fill:none;stroke:#ff5555;stroke-width:5.5"
       d="m 1531.6949,10899.682 c 0.058,5.692 -1.4789,11.628 0.1726,17.076 0.9511,3.137 4.0806,5.496 7.0752,6.83 23.946,10.664 54.4594,-42.088 12.0799,-29.805 -6.4696,1.876 -12.8851,3.933 -19.3277,5.899 z"
       id="path2078" /><path
       style="fill:none;stroke:#ff5555;stroke-width:5.5"
       d="m 1546.8808,10845.351 c 1.4381,12.418 3.0339,24.82 4.3144,37.256 2.1136,20.526 4.2368,41.056 5.8673,61.627 1.791,22.594 0.3906,54.435 4.8318,39.118"
       id="path2080" /><path
       style="fill:none;stroke:#ffff00;stroke-width:5.5"
       d="m 1672.3384,10938.49 c 3.9034,9.683 6.8914,23.45 12.0797,6.054 2.3142,-7.759 5.903,-25.229 3.624,-33.685 -9.8776,-36.652 -32.0866,9.123 -23.6419,-18.473 1.9926,-6.511 4.2567,-12.936 6.385,-19.404 8.4053,-4.926 37.1231,-23.887 50.2175,-12.108"
       id="path2082" /><path
       style="fill:none;stroke:#ffffff;stroke-width:5.5"
       d="m 1775.5344,10823.774 c 3.6962,46.018 11.9917,91.698 14.3234,137.846"
       id="path2084" /></g></svg>
