<?xml version="1.0" encoding="UTF-8" standalone="no"?>
<!-- Created with Inkscape (http://www.inkscape.org/) -->

<svg
   width="939.77795mm"
   height="1042.5204mm"
   viewBox="0 0 939.77793 1042.5204"
   version="1.1"
   id="svg12"
   inkscape:version="1.2.1 (9c6d41e410, 2022-07-14, custom)"
   sodipodi:docname="pascell_example.svg"
   xml:space="preserve"
   xmlns:inkscape="http://www.inkscape.org/namespaces/inkscape"
   xmlns:sodipodi="http://sodipodi.sourceforge.net/DTD/sodipodi-0.dtd"
   xmlns="http://www.w3.org/2000/svg"
   xmlns:svg="http://www.w3.org/2000/svg"><sodipodi:namedview
     id="namedview14"
     pagecolor="#505050"
     bordercolor="#eeeeee"
     borderopacity="1"
     inkscape:showpageshadow="0"
     inkscape:pageopacity="0"
     inkscape:pagecheckerboard="0"
     inkscape:deskcolor="#505050"
     inkscape:document-units="mm"
     showgrid="true"
     inkscape:zoom="0.082848756"
     inkscape:cx="1726.0368"
     inkscape:cy="3005.4766"
     inkscape:window-width="1366"
     inkscape:window-height="746"
     inkscape:window-x="0"
     inkscape:window-y="0"
     inkscape:window-maximized="1"
     inkscape:current-layer="layer1"
     inkscape:lockguides="false"><inkscape:grid
       type="xygrid"
       id="grid344"
       color="#969696"
       opacity="0.39215686"
       empcolor="#000000"
       empopacity="0.17254902"
       dotted="false"
       originx="-932.0912"
       originy="-9948.0299" /></sodipodi:namedview><defs
     id="defs9" /><g
     inkscape:label="Layer 1"
     inkscape:groupmode="layer"
     id="layer1"
     transform="translate(-1037.0914,-10096.53)"><path
       style="fill:none;stroke:#00ffff;stroke-width:5.5"
       d="m 1449.3493,10117.516 c -0.1948,-3.468 -0.3895,-6.937 -0.5842,-10.406 0.078,-0.14 0.2247,-0.58 0.2336,-0.42 1.6884,30.073 7.7803,59.366 8.1797,89.662 0.044,3.312 -0.2348,13.091 -1.0516,9.881 -6.2621,-24.608 2.8304,-50.059 0.1168,-74.631 -4.5321,-41.04 -15.0318,16.749 -0.2336,-32.06 0.3498,-1.154 -1.6845,1.813 -2.1034,2.943 -1.8193,4.91 -3.0382,10.021 -4.5573,15.031 z"
       id="path1082" /><path
       style="fill:none;stroke:#00ffff;stroke-width:5.5"
       d="m 1340.5591,10278.341 c -0.7791,-3.013 0.6762,-9.819 -2.3371,-9.04 -3.0133,0.779 2.2368,5.929 2.3371,9.04 0.1145,3.553 -1.0524,71.395 -1.7529,72.424 -0.4908,0.72 -1.3167,-1.34 -1.4022,-2.208 -0.6259,-6.35 -0.8495,-12.751 -0.7011,-19.131 0.2026,-8.706 1.0972,-17.384 1.7528,-26.068 0.6299,-8.344 1.4022,-16.678 2.1034,-25.017 z"
       id="path1084" /><path
       style="fill:none;stroke:#00ffff;stroke-width:5.5"
       d="m 1532.8993,10266.253 c -0.7987,25.273 3.7003,51.612 0.5843,76.838 -0.08,0.645 -0.4966,-1.243 -0.4675,-1.892 0.2838,-6.318 0.7133,-12.634 1.4023,-18.92 0.9476,-8.647 2.337,-17.239 3.5055,-25.858 -1.6749,-10.056 -5.5271,-19.986 -5.0246,-30.168 0.2711,-5.492 5.9096,-9.487 7.2449,-14.821 0.5769,-2.305 -5.0372,0.59 -6.7775,2.207"
       id="path1086" /><path
       style="fill:none;stroke:#00ffff;stroke-width:5.5"
       d="m 1249.2968,10423.924 c 8.585,27.471 6.9113,55.875 5.9595,84.196 -0.3292,9.795 -0.018,19.751 -2.1034,29.327 -0.1177,0.541 -1.2285,-0.501 -1.2853,-1.051 -0.6621,-6.419 -0.9332,-12.889 -0.8181,-19.341 0.3632,-20.345 4.4101,-51.961 11.5685,-66.642"
       id="path1088" /><path
       style="fill:none;stroke:#00ffff;stroke-width:5.5"
       d="m 1603.946,10402.901 c 12.0276,45.498 16.263,93.491 20.3325,140.432 0.048,0.559 0.078,-1.126 0,-1.682 -0.8573,-6.073 -1.3597,-12.224 -2.8045,-18.184 -1.953,-8.057 -4.9079,-15.837 -7.3618,-23.756"
       id="path1090" /><path
       style="fill:none;stroke:#00ffff;stroke-width:5.5"
       d="m 1358.5544,10360.645 c 17.5068,26.633 -0.2433,-1.611 13.0876,23.02 2.6202,4.842 6.4973,8.383 10.3999,12.088 16.7491,15.904 6.9147,17.55 11.3347,-6.307 0.4733,-2.554 1.7917,-9.959 4.3236,-11.667 1.7762,-1.198 9.4835,8.233 9.2314,17.134 -0.074,2.619 -1.6051,5.125 -3.2719,7.147 -0.3875,0.47 -57.1838,17.498 -32.1346,2.313"
       id="path1098" /><path
       style="fill:none;stroke:#00ffff;stroke-width:5.5"
       d="m 1475.2907,10361.066 c -3.1161,5.501 -6.2192,11.009 -9.3482,16.503 -2.5189,4.422 -5.0634,8.829 -7.5955,13.244 -1.2816,2.234 -5.5765,13.673 -8.5303,14.611 -4.9158,1.56 -7.486,-31.043 -12.2695,-31.85 -4.794,-0.808 -2.6376,9.775 -1.5192,14.506 0.7111,3.008 4.5662,14.043 8.9977,15.872 9.5004,3.921 13.557,2.543 21.9684,1.472 2.2508,-0.287 8.3823,-0.974 6.7775,0.63"
       id="path1100" /><path
       style="fill:none;stroke:#ff00ff;stroke-width:5.5"
       d="m 1408.9181,10489.83 c -9.5849,-20.624 25.4334,-49.41 24.4223,-11.667 -0.6341,23.671 -15.388,44.766 -31.1997,61.071 -4.1951,4.326 10.3375,0.829 25.1234,0.21 7.4166,-0.31 38.2094,1.903 26.7593,7.568"
       id="path1167" /><path
       style="fill:none;stroke:#00ffff;stroke-width:5.5"
       d="m 1169.8367,10597.257 c -0.3895,-3.539 -0.7752,-7.078 -1.1686,-10.617 -0.3933,-3.538 0.8556,7.07 1.1686,10.617 2.5507,28.898 4.3373,57.017 3.0381,85.983 -0.3241,7.226 -1.3637,19.976 -1.4022,19.972 -1.635,-0.201 -1.4801,-2.943 -2.2202,-4.415"
       id="path1169" /><path
       style="fill:none;stroke:#00ffff;stroke-width:5.5"
       d="m 1710.8666,10574.973 c 0.6622,-3.399 5.3851,-9.534 1.9865,-10.196 -3.3987,-0.662 -2.4499,6.764 -1.9865,10.196 1.0904,8.072 4.7103,15.608 6.5437,23.545 6.278,33.601 2.5519,16.335 10.6337,49.089 1.1338,4.594 8.7996,26.175 5.2584,33.741"
       id="path1171" /><path
       style="fill:none;stroke:#00ffff;stroke-width:5.5"
       d="m 1272.2,10557.419 c 12.675,5.777 18.1382,18.085 24.7728,29.537 2.6712,4.61 5.0459,8.849 5.1416,7.988 0.8396,-7.553 -5.0263,-19.946 -0.3506,-26.488 3.8119,-5.334 19.7652,6.894 20.5662,11.878 1.9421,12.083 -59.6857,6.806 -40.6649,14.505"
       id="path1173" /><path
       style="fill:none;stroke:#ff00ff;stroke-width:5.5"
       d="m 1383.9116,10556.788 c -4.8878,8.946 -11.4057,16.691 -18.2291,24.176 -1.3172,1.445 -3.9544,6.155 -4.0899,4.205 -0.2434,-3.505 6.3306,-32.375 3.973,-32.375 -4.7752,0 -16.683,19.041 -12.6201,23.335 6.5803,6.955 43.8963,16.111 37.0424,25.122"
       id="path1177" /><path
       style="fill:none;stroke:#ff00ff;stroke-width:5.5"
       d="m 1477.2772,10566.459 c 10.5631,11.758 6.3957,7.529 15.1909,16.187 10.5142,10.35 2.6136,2.772 10.8674,10.196 3.6152,3.252 3.3929,2.968 6.1931,6.307 1.4079,1.679 7.7193,12.806 6.7776,6.622 -0.2519,-1.654 -5.1363,-25.525 -4.0899,-25.648 5.68,-0.666 19.8191,9.519 21.7346,14.086 3.938,9.387 -57.4106,13.361 -36.5749,14.61"
       id="path1179" /><path
       style="fill:none;stroke:#00ffff;stroke-width:5.5"
       d="m 1591.209,10554.37 c -1.9086,4.871 -3.4282,9.912 -5.7258,14.611 -0.3586,0.734 -9.0075,13.455 -9.9325,14.821 -20.1473,29.755 2.6926,-22.023 -10.2831,-21.022 -7.0174,0.541 -7.4552,12.655 -6.5438,16.397 1.6924,6.948 10.5018,10.64 15.892,12.824 1.6884,0.684 30.1087,6.003 19.9819,14.716"
       id="path1183" /><path
       style="fill:none;stroke:#00ff00;stroke-width:5.5"
       d="m 1321.3951,10657.592 c -0.1587,-10.02 11.9797,-24.989 22.0853,-13.77 16.4755,18.292 -17.1017,57.801 -20.5662,42.887 -0.9187,-3.955 5.0883,-7.125 7.9461,-6.097 17.6214,6.341 30.8728,16.649 25.0065,36.685 -1.188,4.058 -3.4222,8.149 -6.7774,10.722 -9.2785,7.114 -46.0051,19.649 -38.9122,-6.623"
       id="path1250" /><path
       style="fill:none;stroke:#00ff00;stroke-width:5.5"
       d="m 1563.8654,10660.01 c -11.3155,-7.365 2.2248,-28.587 12.6201,-19.236 13.0837,11.769 -0.694,28.805 -9.5819,38.051 -1.8434,1.918 -6.6723,7.379 -6.427,4.73 1.0213,-11.026 36.8671,6.873 32.8357,26.279 -5.1577,24.828 -40.8502,28.468 -52.5838,7.358"
       id="path1252" /><path
       style="fill:none;stroke:#00ffff;stroke-width:5.5"
       d="m 1109.2676,10811.957 c -0.4472,-4.551 0.8089,-37.84 0,0 -0.458,21.42 -0.8528,31.545 -0.5843,52.557 0.089,6.975 0.2874,13.949 0.5843,20.918 0.093,2.183 0.9425,8.688 0.7011,6.517 -0.2342,-2.107 -0.5453,-4.205 -0.818,-6.307"
       id="path1310" /><path
       style="fill:none;stroke:#00ffff;stroke-width:5.5"
       d="m 1801.8559,10730.389 c 3.3498,5.08 8.3342,9.402 10.0494,15.241 4.5555,15.508 2.3068,32.244 3.6225,48.353 2.0595,25.216 7.2829,52.007 8.2965,76.628"
       id="path1312" /><path
       style="fill:none;stroke:#00ff00;stroke-width:5.5"
       d="m 1354.4254,10766.443 c 14.853,13.101 11.9494,9.534 25.9414,26.909 4.5332,5.629 8.6338,11.996 12.737,17.974 2.1246,3.096 4.172,6.248 6.4269,9.251 18.614,24.781 -13.1954,-27.736 0.5843,-27.645 12.6344,0.08 22.5687,9.5 24.8897,21.443 1.6381,8.428 -5.3639,20.177 -13.9056,22.179 -7.5849,1.778 -15.5843,0.467 -23.3706,0.21 -8.4716,-0.28 -14.5308,-2.572 -12.737,-1.682 1.2216,0.606 2.5708,0.911 3.8562,1.367"
       id="path1316" /><path
       style="fill:none;stroke:#00ff00;stroke-width:5.5"
       d="m 1546.6488,10772.329 c -16.152,15.906 -5.5353,6.304 -16.2426,14.926 -8.9402,7.2 -5.9591,5.025 -15.3078,13.034 -3.7942,3.251 -7.6346,6.447 -11.4516,9.671 -5.3066,4.482 -9.534,10.231 -5.8426,0.42 1.3113,-3.485 14.097,-36.616 11.1011,-38.156 -7.7768,-3.997 -22.2056,37.365 -14.1393,43.412 13.7535,10.31 54.6108,-1.152 51.8828,25.227"
       id="path1318" /><path
       style="fill:none;stroke:#00ff00;stroke-width:5.5"
       d="m 1323.3425,10766.758 c -3.3657,11.789 -12.2299,17.449 -19.6314,26.174 -4.5439,5.356 -8.4542,11.292 -13.0875,16.502 -2.0892,2.35 -2.3943,7.742 -2.4539,7.464 -1.6009,-7.489 -2.6047,-15.048 -3.8562,-22.6 -1.0705,-6.46 -2.0259,-13.24 -3.8562,-19.551 -0.8166,-2.816 -1.2891,5.724 -1.7527,8.619 -0.9185,5.737 -1.908,11.467 -2.5708,17.239 -1.3288,11.573 -5.9174,23.974 -1.8696,34.898 3.1773,8.574 56.8608,-21.745 41.4828,-7.358"
       id="path1320" /><path
       style="fill:none;stroke:#00ffff;stroke-width:5.5"
       d="m 1212.332,10762.343 c 6.8452,15.606 5.7486,14.561 14.2561,28.591 1.1296,1.863 2.4771,3.585 3.7393,5.361 21.733,30.578 2.8783,-6.723 12.1528,-17.028 3.2597,-3.623 10.1661,4.934 10.1661,7.778 0,11.274 -24.8882,12.644 -31.6671,13.35 -3.0614,0.318 -10.8819,2.387 -9.2314,-0.211 0.8619,-1.356 1.4393,-0.431 2.4538,-0.735"
       id="path1322" /><path
       style="fill:none;stroke:#00ff00;stroke-width:5.5"
       d="m 1621.7854,10761.923 c 5.8037,5.816 11.672,11.569 17.411,17.449 8.8568,9.074 9.6833,10.449 18.1123,20.707 2.1524,2.62 4.2667,5.271 6.4269,7.884 21.6602,26.203 -18.9559,-23.001 -7.7123,-31.219 6.3871,-4.668 31.5996,4.467 28.1616,13.454 -5.6231,14.701 -19.5478,19.175 -33.1863,22.39 -3.1616,0.745 -8.6156,4.008 -9.6988,0.946 -0.791,-2.236 3.8208,-2.863 5.9595,-3.89"
       id="path1324" /><path
       style="fill:none;stroke:#00ffff;stroke-width:5.5"
       d="m 1743.3126,10729.548 c 3.3115,13.192 3.6945,7.746 -1.2854,22.599 -0.8457,2.523 -19.5321,47.854 -21.5009,45.83 -6.6143,-6.8 -6.5953,-30.447 -7.7124,-40.048 -1.3269,-11.406 -3.5146,29.035 6.31,40.889 7.5039,9.054 51.836,-17.036 37.1594,0.315"
       id="path1326" /><path
       style="fill:none;stroke:#ff0000;stroke-width:5.5"
       d="m 1252.5295,10877.128 c -3.6075,2.214 -43.9864,26.567 -44.7547,15.767 -0.7386,-10.381 25.2881,-32.842 31.6671,-41.415 3.707,-4.982 -5.6671,-12.659 -1.7528,5.361 0.9417,4.335 0.068,9.453 2.6876,13.034 2.7853,3.807 10.8612,2.715 12.1528,7.253 2.1345,7.498 -4.0819,15.35 -3.5056,23.125 1.0376,14.001 12.7611,25.666 8.764,40.048"
       id="path1393" /><path
       style="fill:none;stroke:#ff0000;stroke-width:5.5"
       d="m 1750.09,10876.287 c -3.2183,0.356 -40.348,7.869 -41.0154,5.676 -0.8182,-2.688 -0.2901,-5.739 0.5842,-8.409 0.3351,-1.023 22.8883,-36.35 24.1887,-37 1.772,-0.886 0.6784,3.91 0.8179,5.886 0.5195,7.36 0.7199,14.753 1.6361,22.074 1.468,11.731 2.8652,33.681 10.6336,44.779"
       id="path1395" /><path
       style="fill:none;stroke:#ffff00;stroke-width:5.5"
       d="m 1471.9796,10875.236 c -5.1805,-1.086 -10.2485,-3.309 -15.5414,-3.259 -1.149,0.01 -9.9615,5.653 -11.3348,6.622 -36.9923,26.12 -17.8092,85.654 19.5145,76.628 17.238,-4.168 31.9254,-25.502 8.4134,-34.372 -14.3553,-5.415 -32.2759,-1.901 -47.0918,-1.261"
       id="path1579" /><path
       style="fill:none;stroke:#ffff00;stroke-width:5.5"
       d="m 1454.2539,11017.338 c -5.5265,-10.443 -1.0648,-21.838 0,0 z"
       id="path1629" /><path
       style="fill:none;stroke:#ffff00;stroke-width:5.5"
       d="m 1436.9596,11076.833 c -4.3619,-13.198 -3.8397,-22.624 0,0 z"
       id="path1631" /><path
       style="fill:none;stroke:#ffff00;stroke-width:5.5"
       d="m 1435.2068,11118.773 c -6.7465,-17.444 -2.6951,-13.091 0,0 z"
       id="path1633" /><path
       style="fill:none;stroke:#00ffff;stroke-width:5.5"
       d="m 1064.7824,11136.853 c 3.863,-2.908 11.852,-15.024 19.5145,-13.875"
       id="path1635" /><path
       style="fill:none;stroke:#00ffff;stroke-width:5.5"
       d="m 1101.2406,10949.855 c -13.7614,-10.398 0.5303,-18.309 1.1686,-13.034 0.524,4.331 -0.7791,8.69 -1.1686,13.034 z"
       id="path1637" /><path
       style="fill:none;stroke:#00ffff;stroke-width:5.5"
       d="m 1066.6521,11025.748 c -3.0667,-9.621 0.1936,-17.07 0,0 z"
       id="path1639" /><path
       style="fill:none;stroke:#00ffff;stroke-width:5.5"
       d="m 1039.5422,11126.552 c 5.9206,-11.633 5.9206,-11.633 0,0 z"
       id="path1641" /><path
       style="fill:none;stroke:#00ffff;stroke-width:5.5"
       d="m 1854.0083,10937.872 c 0.7582,-29.533 9.6326,-15.196 7.1281,-9.88 -1.731,3.673 -4.752,6.587 -7.1281,9.88 z"
       id="path1643" /><path
       style="fill:none;stroke:#00ffff;stroke-width:5.5"
       d="m 1924.5876,11027.429 c -5.8629,-15.672 5.3887,-24.658 0,0 z"
       id="path1645" /><path
       style="fill:none;stroke:#00ffff;stroke-width:5.5"
       d="m 1974.1334,11053.708 c -2.1925,21.573 -10.5074,18.336 0,0 z"
       id="path1647" /></g></svg>
