<?xml version="1.0" encoding="UTF-8" standalone="no"?>
<!-- Created with Inkscape (http://www.inkscape.org/) -->

<svg
   width="2542.4924mm"
   height="3107.3291mm"
   viewBox="0 0 2542.4924 3107.3292"
   version="1.1"
   id="svg12"
   inkscape:version="1.2.1 (9c6d41e410, 2022-07-14, custom)"
   sodipodi:docname="planar_normal.svg"
   xml:space="preserve"
   xmlns:inkscape="http://www.inkscape.org/namespaces/inkscape"
   xmlns:sodipodi="http://sodipodi.sourceforge.net/DTD/sodipodi-0.dtd"
   xmlns="http://www.w3.org/2000/svg"
   xmlns:svg="http://www.w3.org/2000/svg"><sodipodi:namedview
     id="namedview14"
     pagecolor="#505050"
     bordercolor="#eeeeee"
     borderopacity="1"
     inkscape:showpageshadow="0"
     inkscape:pageopacity="0"
     inkscape:pagecheckerboard="0"
     inkscape:deskcolor="#505050"
     inkscape:document-units="mm"
     showgrid="true"
     inkscape:zoom="0.02"
     inkscape:cx="1100"
     inkscape:cy="6500"
     inkscape:window-width="1366"
     inkscape:window-height="746"
     inkscape:window-x="0"
     inkscape:window-y="0"
     inkscape:window-maximized="1"
     inkscape:current-layer="layer1"
     inkscape:lockguides="true"><inkscape:grid
       type="xygrid"
       id="grid344"
       color="#969696"
       opacity="0.39215686"
       empcolor="#000000"
       empopacity="0.17254902"
       dotted="false"
       originx="-13674.54"
       originy="-46434.907" /></sodipodi:namedview><defs
     id="defs9" /><g
     inkscape:label="Layer 1"
     inkscape:groupmode="layer"
     id="layer1"
     transform="translate(-13779.541,-46583.404)"><path
       style="fill:none;stroke:#ffffff;stroke-width:10.7"
       d="m 13972.687,47086.025 c -94.001,4.832 -56.442,5.858 0,0 z"
       id="path514" /><path
       style="fill:none;stroke:#ffffff;stroke-width:10.7"
       d="m 14413.774,46894.037 c -117.242,73.607 -164.163,173.55 -131.615,310.38 4.222,17.75 84.293,182.191 34.86,155.51"
       id="path516" /><path
       style="fill:none;stroke:#ffffff;stroke-width:10.7"
       d="m 14164.773,47255.614 c -32.242,27.782 299.519,-18.159 265.364,15.359"
       id="path518" /><path
       style="fill:none;stroke:#ffffff;stroke-width:10.7"
       d="m 14733.205,47273.533 c -58.44,71.428 -60.055,164.259 -78.256,250.224 -2.67,12.607 -8.841,-24.216 -12.806,-36.478"
       id="path520" /><path
       style="fill:none;stroke:#ffffff;stroke-width:10.7"
       d="m 14581.672,47292.732 c -35.98,-54.959 260.207,265.455 207.025,186.868"
       id="path522" /><path
       style="fill:none;stroke:#ffffff;stroke-width:10.7"
       d="m 14975.804,46845.4 c 8.774,-18.346 17.548,-36.691 26.322,-55.037 1.898,-4.693 7.876,-18.646 5.692,-14.079 -132.586,277.217 -172.459,641.96 189.952,748.753"
       id="path524" /><path
       style="fill:none;stroke:#ffffff;stroke-width:10.7"
       d="m 15352.862,46903.636 c -53.056,-61.003 -128.28,114.146 -59.76,108.153 27.477,-2.403 63.494,-6.576 76.834,-30.718 12.783,-23.135 -14.952,-103.781 -17.074,-77.435 -7.714,95.76 8.667,111.724 43.397,182.389"
       id="path526" /><path
       style="fill:none;stroke:#ffffff;stroke-width:10.7"
       d="m 15409.776,47181.379 c -7.826,34.984 -18.289,69.481 -23.477,104.953 -22.932,156.769 36.957,-17.503 73.277,-0.64 70.014,32.506 26.901,142.571 -14.228,175.349 -54.876,43.734 -63.275,-65.256 -55.492,-88.954"
       id="path528" /><path
       style="fill:none;stroke:#ffffff;stroke-width:10.7"
       d="m 15507.953,46676.45 c 20.869,16.213 46.777,27.476 62.606,48.638 151.654,202.742 209.729,521.861 120.232,758.991 -39.2,103.864 -18.316,85.826 -87.506,109.434"
       id="path530" /><path
       style="fill:none;stroke:#ffffff;stroke-width:10.7"
       d="m 14190.385,48010.126 c 38.545,38.773 117.583,12.864 141.574,65.276"
       id="path532" /><path
       style="fill:none;stroke:#ffffff;stroke-width:10.7"
       d="m 14487.763,47912.213 c -55.527,91.559 -33.427,185.256 19.208,271.342 -30,-134.767 16.427,-101.853 86.083,-59.516"
       id="path534" /><path
       style="fill:none;stroke:#ffffff;stroke-width:10.7"
       d="m 14763.797,48125.319 c -6.827,28.508 0.176,171.558 -46.954,201.587 -9.443,6.017 -22.292,-2.133 -33.437,-3.2"
       id="path536" /><path
       style="fill:none;stroke:#ffffff;stroke-width:10.7"
       d="m 14638.586,48178.436 c 70.103,16.635 100.481,23.389 142.285,70.395"
       id="path538" /><path
       style="fill:none;stroke:#ffffff;stroke-width:10.7"
       d="m 15109.553,47797.02 c -1.66,-22.186 -0.573,-44.75 -4.98,-66.556 -5.648,-27.94 -53.228,29.285 -65.452,55.036 -63.628,134.035 -82.058,274.114 -27.746,413.414 0.242,0.621 130.465,257.89 134.46,135.672"
       id="path540" /><path
       style="fill:none;stroke:#ffffff;stroke-width:10.7"
       d="m 15341.479,47874.455 c -19.92,0.64 -60.4,-18.001 -59.761,1.92 0.64,19.92 44.002,-14.122 59.761,-1.92 27.243,21.094 35.097,59.303 52.646,88.954"
       id="path542" /><path
       style="fill:none;stroke:#ffffff;stroke-width:10.7"
       d="m 15394.125,48106.12 c 1.185,32.425 1.956,64.867 3.557,97.274 0.771,15.598 2.57,31.131 3.557,46.717 1.147,18.121 2.403,36.245 2.845,54.397 3.676,151.023 -54.433,-116.962 44.821,-97.914 89.919,17.256 -2.899,293.472 -35.571,95.354 -3.071,-18.617 -3.795,-37.544 -5.692,-56.317"
       id="path544" /><path
       style="fill:none;stroke:#ffffff;stroke-width:10.7"
       d="m 15454.596,47827.738 c 24.426,1.493 55.176,-11.988 73.278,4.48 93.798,85.334 118.787,529.294 7.114,608.601"
       id="path546" /><path
       style="fill:none;stroke:#ffffff;stroke-width:10.7"
       d="m 14832.806,48775.518 c 72.986,71.941 -25.663,278.294 27.746,358.377"
       id="path548" /><path
       style="fill:none;stroke:#ffffff;stroke-width:10.7"
       d="m 16111.958,46711.648 c 55.049,2.351 175.166,-20.687 198.489,53.117 17.319,54.805 -6.539,157.936 -13.518,206.067 -21.821,150.491 -37.751,296.202 -39.84,448.612 -7.507,547.958 28.92,1097.315 20.632,1645.336 -0.179,11.817 0.378,24.331 -4.269,35.198 -12.778,29.885 -63.462,14.096 -95.332,20.478 -107.628,21.556 -211.527,59.869 -319.432,79.995 -78.322,14.609 -61.295,0.745 -45.531,-33.918"
       id="path550" /><path
       style="fill:none;stroke:#ffffff;stroke-width:10.7"
       d="m 13946.364,46592.616 c -38.472,-2.529 -134.784,-17.668 -155.803,36.477 -12.579,32.402 -0.351,221.729 0,241.905 3.591,206.288 24.55,412.033 27.746,618.201 2.84,183.199 -10.553,365.896 -3.558,549.086 5.652,148.012 20.321,295.592 27.746,443.492 13.293,264.766 12.216,532.574 3.558,797.389 -2.951,90.249 9.186,190.202 -8.538,279.663 -6.809,34.368 -43.861,120.088 -40.551,123.512 26.289,27.194 263.857,-138.71 357.849,-79.995"
       id="path554" /><path
       style="fill:none;stroke:#ffffff;stroke-width:10.7"
       d="m 14496.3,47974.928 c -9.876,-70.455 58.935,-130.406 127.346,-142.71 7.549,-1.358 -13.063,8.083 -19.92,11.519 -25.973,13.012 -43.225,18.85 -64.029,35.838 -57.577,47.011 0.7,-0.409 -43.397,95.353 -13.685,29.718 -40.854,51.986 -54.069,81.915 -51.927,117.601 99.655,245.566 32.014,179.189"
       id="path556" /><path
       style="fill:none;stroke:#ffffff;stroke-width:10.7"
       d="m 14381.048,48101.001 c 7.581,-43.18 226.836,-51.544 192.086,5.759"
       id="path558" /></g></svg>
