<?xml version="1.0" encoding="UTF-8" standalone="no"?>
<!-- Created with Inkscape (http://www.inkscape.org/) -->

<svg
   width="149.96268mm"
   height="26.44384mm"
   viewBox="0 0 149.96268 26.443841"
   version="1.1"
   id="svg12"
   inkscape:version="1.2.1 (9c6d41e410, 2022-07-14, custom)"
   sodipodi:docname="polish_example.svg"
   xml:space="preserve"
   xmlns:inkscape="http://www.inkscape.org/namespaces/inkscape"
   xmlns:sodipodi="http://sodipodi.sourceforge.net/DTD/sodipodi-0.dtd"
   xmlns="http://www.w3.org/2000/svg"
   xmlns:svg="http://www.w3.org/2000/svg"><sodipodi:namedview
     id="namedview14"
     pagecolor="#505050"
     bordercolor="#eeeeee"
     borderopacity="1"
     inkscape:showpageshadow="0"
     inkscape:pageopacity="0"
     inkscape:pagecheckerboard="0"
     inkscape:deskcolor="#505050"
     inkscape:document-units="mm"
     showgrid="true"
     inkscape:zoom="0.73300363"
     inkscape:cx="35.470493"
     inkscape:cy="85.947732"
     inkscape:window-width="1366"
     inkscape:window-height="746"
     inkscape:window-x="0"
     inkscape:window-y="0"
     inkscape:window-maximized="1"
     inkscape:current-layer="layer1"
     inkscape:lockguides="false"><inkscape:grid
       type="xygrid"
       id="grid344"
       color="#969696"
       opacity="0.39215686"
       empcolor="#000000"
       empopacity="0.17254902"
       dotted="false"
       originx="604.58786"
       originy="-16935.02" /></sodipodi:namedview><defs
     id="defs9" /><g
     inkscape:label="Layer 1"
     inkscape:groupmode="layer"
     id="layer1"
     transform="translate(499.58787,-17083.518)"><path
       style="fill:none;stroke:#e3dbdb;stroke-width:0.499999;stroke-dasharray:none"
       d="m -499.34435,17096.305 c 0.0801,0.345 0.66924,4.872 1.99937,5.536 1.74223,0.869 3.98922,-7.325 2.27114,-9.447 -1.16373,-1.437 -1.95247,-0.519 -2.93113,0.122 -0.39781,0.261 -1.19445,1.097 -1.28115,0.629 -0.32583,-1.759 1.5382,-3.608 1.39763,-5.291 1.95778,-3.165 3.83642,-2.783 7.02691,-2.724"
       id="path2952" /><path
       style="fill:none;stroke:#e3dbdb;stroke-width:0.499999;stroke-dasharray:none"
       d="m -483.0582,17087.924 c -0.38176,0.895 1.92205,12.323 -0.97058,10.372"
       id="path2954" /><path
       style="fill:none;stroke:#e3dbdb;stroke-width:0.499999;stroke-dasharray:none"
       d="m -486.64932,17094.053 c 3.46875,-1.06 6.7189,-0.779 10.17157,-0.157"
       id="path2956" /><path
       style="fill:none;stroke:#e3dbdb;stroke-width:0.499999;stroke-dasharray:none"
       d="m -465.95679,17093.738 c -0.0197,-0.02 2.3022,-4.057 3.10581,-2.706 1.41798,2.385 -2.16507,8.959 -3.39698,11.175 -0.28619,0.515 -0.61292,1.007 -0.93174,1.502 -0.10841,0.168 -0.51704,0.598 -0.34941,0.489 1.79717,-1.176 3.59906,-3.004 5.90106,-1.746"
       id="path2958" /><path
       style="fill:none;stroke:#e3dbdb;stroke-width:0.499999;stroke-dasharray:none"
       d="m -458.44458,17101.282 c 0.58234,-1.094 1.18415,-2.179 1.74702,-3.283 0.66464,-1.304 1.34327,-2.851 1.82466,-4.226 0.46087,-1.316 0.35126,-1.975 0.48528,-1.711 0.22731,0.448 0.21147,0.984 0.34942,1.467 0.72941,2.555 0.68977,2.304 1.80525,4.714 0.34413,0.744 1.67337,2.317 0.8541,2.305 -1.01608,-0.01 -6.90702,-3.199 -7.6869,-4.155 -2.05167,-2.517 9.50672,-4.833 9.53099,-4.68 0.0659,0.415 -0.52152,0.659 -0.79587,0.978 -2.00834,2.33 -4.02214,4.714 -5.84283,7.194 -0.2356,0.321 -0.32091,0.787 -0.65998,0.995 -0.47144,0.29 -2.16448,0.389 -1.61114,0.402 0.8059,0.02 1.59173,-0.256 2.3876,-0.384"
       id="path2960" /><path
       style="fill:none;stroke:#e3dbdb;stroke-width:0.499999;stroke-dasharray:none"
       d="m -441.77022,17089.129 c -0.80234,0.471 -1.73128,0.774 -2.40701,1.414 -0.71036,0.673 -1.20981,1.554 -1.64996,2.427 -3.11984,6.193 4.72563,3.618 6.11458,-0.925 0.22901,-0.749 0.67568,-2.456 -0.44646,-2.637 -0.53812,-0.09 -1.52313,-0.817 -1.61115,-0.279 -0.23774,1.453 0.68898,2.864 0.95114,4.313 0.89158,4.926 1.49518,10.009 3.18348,14.754"
       id="path2962" /><path
       style="fill:none;stroke:#e3dbdb;stroke-width:0.499999;stroke-dasharray:none"
       d="m -426.43525,17097.737 c 0.23951,-0.145 11.44203,-0.78 7.45399,0.541"
       id="path2964" /><path
       style="fill:none;stroke:#e3dbdb;stroke-width:0.499999;stroke-dasharray:none"
       d="m -409.62498,17092.307 c 0.42057,-0.635 0.65234,-1.448 1.26172,-1.904 0.60627,-0.453 1.84194,0.09 2.07703,0.734 0.77259,2.101 -1.36969,4.377 -2.48467,5.902 -0.042,0.06 0.11275,-0.09 0.17471,-0.123 0.55954,-0.314 1.09027,-0.693 1.68879,-0.925 0.58311,-0.226 1.20099,-0.39 1.82466,-0.437 3.31536,-0.245 3.37277,1.961 1.97996,4.802 -1.25912,2.569 -10.36499,7.923 -6.96866,0.873"
       id="path2966" /><path
       style="fill:none;stroke:#e3dbdb;stroke-width:0.499999;stroke-dasharray:none"
       d="m -403.10278,17109.873 c 0.48529,-1.269 0.97597,-2.536 1.45586,-3.807 2.04298,-5.41 4.01194,-10.801 6.46399,-16.047 0.68154,-1.458 1.45978,-2.869 2.13526,-4.33 0.97221,-2.103 1.14143,-2.197 0.48528,-1.607"
       id="path2968" /><path
       style="fill:none;stroke:#e3dbdb;stroke-width:0.499999;stroke-dasharray:none"
       d="m -391.94122,17099.571 c -1.57545,-0.865 3.15811,-7.557 4.71695,-4.383 1.73003,3.522 -2.39692,8.306 -4.56168,10.581 -0.50994,0.536 -1.07775,1.016 -1.64995,1.485 -0.0861,0.07 -0.40741,0.177 -0.3106,0.122 2.77729,-1.573 6.87756,-2.445 9.84158,-1.31"
       id="path2970" /><path
       style="fill:none;stroke:#e3dbdb;stroke-width:0.499999;stroke-dasharray:none"
       d="m -373.9469,17097.737 c -0.40639,-0.304 9.93745,-0.39 7.58985,-0.02"
       id="path2980" /><path
       style="fill:none;stroke:#e3dbdb;stroke-width:0.499999;stroke-dasharray:none"
       d="m -349.66328,17094.873 c -5.12554,0.79 -3.07023,0.36 -7.80337,1.502 -0.82299,0.199 -1.63615,0.44 -2.46524,0.611 -0.21574,0.04 -0.78909,0.214 -0.65997,0.03 1.6534,-2.285 4.01223,-3.788 5.53224,-6.251 0.98643,-1.599 0.94083,-2.631 0.65996,-2.602 -0.66545,0.07 -0.56041,2.471 -0.3688,4.767 0.31487,3.774 1.94708,11.738 3.95992,14.842"
       id="path2982" /></g></svg>
