<?xml version="1.0" encoding="UTF-8" standalone="no"?>
<!-- Created with Inkscape (http://www.inkscape.org/) -->

<svg
   width="4269.8325mm"
   height="4165.5361mm"
   viewBox="0 0 4269.8324 4165.5363"
   version="1.1"
   id="svg12"
   inkscape:version="1.2.1 (9c6d41e410, 2022-07-14, custom)"
   sodipodi:docname="power_rule_int_calc_proof.svg"
   xml:space="preserve"
   xmlns:inkscape="http://www.inkscape.org/namespaces/inkscape"
   xmlns:sodipodi="http://sodipodi.sourceforge.net/DTD/sodipodi-0.dtd"
   xmlns="http://www.w3.org/2000/svg"
   xmlns:svg="http://www.w3.org/2000/svg"><sodipodi:namedview
     id="namedview14"
     pagecolor="#505050"
     bordercolor="#eeeeee"
     borderopacity="1"
     inkscape:showpageshadow="0"
     inkscape:pageopacity="0"
     inkscape:pagecheckerboard="0"
     inkscape:deskcolor="#505050"
     inkscape:document-units="mm"
     showgrid="true"
     inkscape:zoom="0.029229381"
     inkscape:cx="9100.4322"
     inkscape:cy="8792.5228"
     inkscape:window-width="1366"
     inkscape:window-height="746"
     inkscape:window-x="0"
     inkscape:window-y="0"
     inkscape:window-maximized="1"
     inkscape:current-layer="layer1"
     inkscape:lockguides="false"><inkscape:grid
       type="xygrid"
       id="grid344"
       color="#969696"
       opacity="0.39215686"
       empcolor="#000000"
       empopacity="0.17254902"
       dotted="false"
       originx="-2921.564"
       originy="-33702.164" /></sodipodi:namedview><defs
     id="defs9" /><g
     inkscape:label="Layer 1"
     inkscape:groupmode="layer"
     id="layer1"
     transform="translate(-3026.564,-33850.662)"><path
       style="fill:none;stroke:#ffffff;stroke-width:10.7"
       d="m 3173.1545,34235.402 c -25.5933,80.098 -14.4359,58.284 -48.6791,123.484 -10.4456,19.889 -94.7455,158.831 -92.4904,162.019 10.4549,14.779 308.4726,-42.049 323.7162,-62.618 4.6707,-6.303 -9.6633,-12.372 -14.1169,-18.829 -6.9917,-10.138 -13.6949,-20.487 -19.9586,-31.091 -17.5531,-29.713 -68.3137,-148.448 -93.9506,-164.645 -15.5418,-9.82 -36.3471,-5.547 -54.5206,-8.32 z"
       id="path2865" /><path
       style="fill:none;stroke:#ffffff;stroke-width:10.7"
       d="m 3611.7535,34233.212 c -3.4208,56.196 -24.0218,108.467 -44.2983,160.267 -7.9762,20.377 -19.3761,47.557 -29.2072,67.873 -1.3997,2.892 -2.2802,10.224 -4.868,8.32 -4.6236,-3.403 -3.8943,-10.801 -5.8415,-16.202"
       id="path2867" /><path
       style="fill:none;stroke:#ffffff;stroke-width:10.7"
       d="m 3500.765,34270.871 c 53.5416,50.533 95.6695,110.449 140.6825,168.149 3.8967,4.995 27.1036,48.59 34.0755,29.776"
       id="path2869" /><path
       style="fill:none;stroke:#ffffff;stroke-width:10.7"
       d="m 3719.821,34181.979 c -27.5726,-146.277 85.5967,-186.594 99.3053,-26.273"
       id="path2871" /><path
       style="fill:none;stroke:#ffffff;stroke-width:10.7"
       d="m 4037.6955,34268.243 c -44.5288,-10.354 152.7841,-36.92 119.264,-18.829"
       id="path2873" /><path
       style="fill:none;stroke:#ffffff;stroke-width:10.7"
       d="m 4037.6955,34358.886 c 46.7919,3.726 92.5988,-10.653 139.2223,-7.006"
       id="path2875" /><path
       style="fill:none;stroke:#ffffff;stroke-width:10.7"
       d="m 4722.1241,34167.529 c -6.2025,19.383 -85.5159,219.305 -96.3845,219.82 -5.2935,0.251 -5.517,-9.05 -8.2755,-13.574"
       id="path2877" /><path
       style="fill:none;stroke:#ffffff;stroke-width:10.7"
       d="m 4614.5431,34204.312 c 49.5943,41.099 76.6794,99.486 112.449,151.509 7.5201,10.937 26.3719,37.956 30.6678,25.397"
       id="path2879" /><path
       style="fill:none;stroke:#ffffff;stroke-width:10.7"
       d="m 4828.2447,34195.116 c 15.9945,45.798 48.982,119.68 32.615,171.214 -19.3768,-101.546 20.5367,-74.509 89.0827,-91.518"
       id="path2881" /><path
       style="fill:none;stroke:#ffffff;stroke-width:10.7"
       d="m 4990.8328,34154.83 c 17.903,59.78 24.2499,134.257 66.6906,183.037"
       id="path2883" /><path
       style="fill:none;stroke:#ffffff;stroke-width:10.7"
       d="m 5082.8364,34032.66 c 18.0113,19.997 39.9952,37.03 54.0339,59.99 32.6558,53.41 86.8435,311.683 13.6302,346.808"
       id="path2885" /><path
       style="fill:none;stroke:#ffffff;stroke-width:10.7"
       d="m 4633.0412,33995.001 c -115.1183,162.051 -263.5722,603.791 77.4,598.593"
       id="path2887" /><path
       style="fill:none;stroke:#ffffff;stroke-width:10.7"
       d="m 5228.3869,34043.169 c 0.1127,-24.857 38.8281,-207.842 70.5848,-185.227 36.6082,26.07 46.1059,106.358 54.5206,147.569"
       id="path2889" /><path
       style="fill:none;stroke:#ffffff;stroke-width:10.7"
       d="m 5590.5594,34185.045 c 59.9627,-13.76 120.8862,-25.864 182.5471,-20.581"
       id="path2891" /><path
       style="fill:none;stroke:#ffffff;stroke-width:10.7"
       d="m 5600.7821,34265.616 c 70.7922,-10.444 141.4925,-23.185 213.2147,-21.894"
       id="path2893" /><path
       style="fill:none;stroke:#ffffff;stroke-width:10.7"
       d="m 6134.3056,34085.644 c -23.8003,76.116 -34.2326,155.017 -54.034,232.081 -5.8446,22.746 -10.9881,39.675 -14.1171,38.972 -7.2898,-1.64 -11.0119,-21.978 -12.1698,-26.273"
       id="path2895" /><path
       style="fill:none;stroke:#ffffff;stroke-width:10.7"
       d="m 6032.0791,34112.793 c 17.0378,15.18 34.8446,29.539 51.113,45.54 46.5627,45.8 92.4989,95.615 133.8678,146.255 7.6935,9.418 32.507,31.764 20.4454,30.214 -3.2303,-0.415 -4.2191,-4.962 -6.3288,-7.444"
       id="path2897" /><path
       style="fill:none;stroke:#ffffff;stroke-width:10.7"
       d="m 6293.9729,34002.007 c 3.6082,-23.46 28.3004,-144.278 74.4792,-130.052 43.2501,13.324 60.1903,91.382 57.9279,130.052 -0.7171,12.258 -8.9226,-22.895 -12.6564,-34.593 -7.3721,-23.095 -29.6701,-89.406 -65.2301,-81.009 -34.7393,8.203 -124.107,145.712 -54.5206,115.602 21.6353,-9.361 35.8381,-86.994 59.3887,-111.661 34.9631,-36.62 87.3109,111.259 94.924,131.804"
       id="path2899" /><path
       style="fill:none;stroke:#ffffff;stroke-width:10.7"
       d="m 3278.1631,34995.459 c 0.4454,-8.419 210.6778,-55.243 182.5468,-7.444"
       id="path2901" /><path
       style="fill:none;stroke:#ffffff;stroke-width:10.7"
       d="m 3312.2386,35083.912 c 74.7732,14.615 149.2804,-13.765 224.4107,-7.006"
       id="path2903" /><path
       style="fill:none;stroke:#ffffff;stroke-width:10.7"
       d="m 4124.6931,34986.701 c -7.7707,31.185 -8.7453,63.352 -12.6567,95.022 -0.2401,1.944 0.1637,6.788 -1.4602,5.692 -19.8577,-13.397 -1.2074,-94.147 14.1169,-100.714 19.7581,-8.467 139.2388,-13.363 177.6788,-17.953 19.3992,-2.317 34.2617,-4.783 52.0866,-10.51 5.7009,-1.831 19.1809,-11.283 17.0376,-5.692 -14.9901,39.104 -41.092,106.893 -20.4451,147.13"
       id="path2905" /><path
       style="fill:none;stroke:#ffffff;stroke-width:10.7"
       d="m 4148.5456,35622.077 c 13.4796,21.213 -17.8069,100.207 -5.8414,121.732 1.4495,2.608 80.76,-14.365 89.5696,-15.764 39.9319,-6.338 82.4942,-16.194 123.1582,-14.888 2.4484,0.08 31.6415,2.602 31.6415,-1.314 0,-17.009 -14.8108,-50.319 -17.5246,-66.558 -4.9981,-29.909 -5.2268,-58.588 -7.3017,-88.454"
       id="path2907" /><path
       style="fill:none;stroke:#ffffff;stroke-width:10.7"
       d="m 4238.1153,35442.105 c 3.8551,26.108 19.6177,150.685 9.7359,107.72"
       id="path2909" /><path
       style="fill:none;stroke:#ffffff;stroke-width:10.7"
       d="m 4189.9231,35287.53 c -1.1565,-28.405 44.2153,-122.288 81.2939,-69.624 3.6834,5.232 6.3585,11.148 8.7625,17.078 41.082,101.326 -22.5348,-22.372 -50.6264,-11.386 -23.3178,9.12 -43.7586,88.593 -39.43,63.932 23.7835,-135.498 112.8566,-55.793 110.0148,-14.888"
       id="path2911" /><path
       style="fill:none;stroke:#ffffff;stroke-width:10.7"
       d="m 4617.8125,34999.4 c -20.4452,33.133 -47.5149,63.002 -61.3356,99.4 -62.502,164.606 -11.1633,438.717 110.0147,568.817"
       id="path2913" /><path
       style="fill:none;stroke:#ffffff;stroke-width:10.7"
       d="m 4851.9591,35079.971 c -51.3682,129.008 -36.0048,269.827 23.3659,394.1 16.3984,34.324 34.8732,72.63 73.9922,81.009"
       id="path2915" /><path
       style="fill:none;stroke:#ffffff;stroke-width:10.7"
       d="m 5018.9285,35213.089 c 6.2566,-19.345 10.4842,-99.167 49.6526,-101.152 37.8987,-1.92 67.7618,57.645 81.781,85.388 3.1283,6.191 9.2232,25.309 9.7359,18.392 1.4621,-19.725 -30.1306,-103.066 -60.8491,-91.081 -45.9722,17.936 -11.5369,18.122 -34.562,46.416 -13.0733,16.065 -60.9814,56.082 -45.7584,42.037 21.5512,-19.883 45.2714,-37.629 64.7433,-59.552 21.8638,-24.617 8.0356,-50.623 47.7054,-10.072 17.2239,17.606 32.9213,37.19 42.351,59.553"
       id="path2917" /><path
       style="fill:none;stroke:#ffffff;stroke-width:10.7"
       d="m 5113.3658,35382.552 c -24.4913,-68.972 11.6779,-88.076 0,0 z"
       id="path2919" /><path
       style="fill:none;stroke:#ffffff;stroke-width:10.7"
       d="m 5161.0715,35470.567 c -5.1308,57.842 10.4479,112.636 21.9056,168.587"
       id="path2921" /><path
       style="fill:none;stroke:#ffffff;stroke-width:10.7"
       d="m 4243.47,34716.962 c -14.2904,-53.946 6.6033,-92.065 0,0 z"
       id="path2923" /><path
       style="fill:none;stroke:#ffffff;stroke-width:10.7"
       d="m 4232.2738,34847.453 c -1.452,16.828 6.328,81.84 9.736,95.022"
       id="path2925" /><path
       style="fill:none;stroke:#ffffff;stroke-width:10.7"
       d="m 4314.0548,35910.645 c -5.2206,2.964 63.7917,293.379 11.6829,192.232"
       id="path2927" /><path
       style="fill:none;stroke:#ffffff;stroke-width:10.7"
       d="m 4237.6285,36027.561 c 59.2175,26.188 120.8935,-8.32 181.573,-8.32"
       id="path2929" /><path
       style="fill:none;stroke:#ffffff;stroke-width:10.7"
       d="m 5235.0637,35078.658 c 10.0442,40.955 24.344,80.808 34.5623,121.733 19.2737,77.192 56.5976,261.812 45.7582,341.114 -1.0679,7.813 -49.2239,154.937 -38.9432,90.205"
       id="path2933" /><path
       style="fill:none;stroke:#ffffff;stroke-width:10.7"
       d="m 5669.7679,35118.943 c -17.2265,84.224 -43.2228,166.272 -68.6371,248.283 -17.716,57.168 -25.3413,85.996 -27.7471,78.82 -3.1462,-9.385 -4.5432,-19.268 -6.8149,-28.901"
       id="path2935" /><path
       style="fill:none;stroke:#ffffff;stroke-width:10.7"
       d="m 5525.1911,35230.605 c 83.8732,35.212 124.8635,175.429 208.8335,201.866"
       id="path2937" /><path
       style="fill:none;stroke:#ffffff;stroke-width:10.7"
       d="m 5782.2169,34863.217 c -98.8033,-54.247 3.4343,-58.785 5.3549,-40.724 1.4476,13.615 -3.57,27.149 -5.3549,40.724 z"
       id="path2939" /><path
       style="fill:none;stroke:#ffffff;stroke-width:10.7"
       d="m 5775.402,35013.412 c -8.895,57.709 -2.2153,115.63 4.8681,172.966"
       id="path2941" /><path
       style="fill:none;stroke:#ffffff;stroke-width:10.7"
       d="m 6049.4654,34941.161 c 104.0019,239.294 145.8293,564.376 -14.1171,791.701"
       id="path2943" /><path
       style="fill:none;stroke:#ffffff;stroke-width:10.7"
       d="m 6515.8112,35324.751 c 55.1199,10.847 119.3292,-27.505 173.7847,-16.202 7.2999,1.515 -13.7006,6.068 -20.9322,7.882 -29.8643,7.491 -74.0614,22.019 -104.6599,20.143 -16.5095,-1.013 -64.1803,-7.583 -48.1926,-11.823 2.7858,-0.739 153.3462,-6.752 167.9432,2.627"
       id="path2945" /><path
       style="fill:none;stroke:#ffffff;stroke-width:10.7"
       d="m 7098.9873,35146.53 c -36.4755,84.147 -67.4166,170.436 -99.7921,256.165 -13.879,36.751 -20.8632,51.483 -24.3398,49.481 -5.6296,-3.241 -1.9471,-12.845 -2.9205,-19.267"
       id="path2947" /><path
       style="fill:none;stroke:#ffffff;stroke-width:10.7"
       d="m 6944.1878,35185.064 c 59.1664,49.274 103.483,112.893 146.5239,176.031 8.0851,11.861 15.3752,24.261 22.3922,36.783 3.189,5.691 8.8889,24.383 7.789,17.953 -1.0223,-5.976 -1.9473,-11.969 -2.921,-17.953"
       id="path2949" /><path
       style="fill:none;stroke:#ffffff;stroke-width:10.7"
       d="m 7160.8096,35065.959 c -0.1622,-14.45 -3.3499,-29.186 -0.4869,-43.351 2.1289,-10.532 17.8102,-43.235 32.1284,-49.919 58.003,-27.079 87.9059,100.47 98.8187,137.059"
       id="path2951" /><path
       style="fill:none;stroke:#ffffff;stroke-width:10.7"
       d="m 3269.6332,36284.218 c -26.5729,33.395 185.5764,-14.853 160.6412,10.071"
       id="path2953" /><path
       style="fill:none;stroke:#ffffff;stroke-width:10.7"
       d="m 3270.6067,36395.879 c 67.2344,3.115 133.9038,-11.48 201.0449,-2.189"
       id="path2955" /><path
       style="fill:none;stroke:#ffffff;stroke-width:10.7"
       d="m 4453.5094,37069.351 c 5.5269,-34.238 61.1324,-127.036 100.7658,-69.187 10.3047,15.041 31.7296,135.681 12.1697,101.591 -9.7795,-17.045 -93.7189,-163.844 -111.475,-84.951 -23.4673,104.269 16.0253,23.824 65.7168,9.634 20.3752,-5.819 88.4897,70.395 49.6527,88.891"
       id="path2977" /><path
       style="fill:none;stroke:#ffffff;stroke-width:10.7"
       d="m 4687.169,37072.854 c 22.7087,25.47 37.4961,-36.782 61.3359,-36.782 23.8398,0 -73.6342,16.359 -61.3359,36.782 13.0075,21.6 46.9584,-18.99 71.5586,-24.522"
       id="path2979" /><path
       style="fill:none;stroke:#ffffff;stroke-width:10.7"
       d="m 4787.9349,36910.836 c 8.3645,83.697 26.5129,164.816 47.2189,246.092"
       id="path2981" /><path
       style="fill:none;stroke:#ffffff;stroke-width:10.7"
       d="m 4633.1354,37362.736 c 0,13.428 0.1555,26.858 0,40.285 -0.1904,16.441 -14.8168,165.15 -23.3661,146.693"
       id="path2985" /><path
       style="fill:none;stroke:#ffffff;stroke-width:10.7"
       d="m 4472.0075,37547.962 c 26.8523,58.291 1.1416,126.004 10.2227,185.227 1.0722,6.993 13.6974,-3.568 20.4451,-5.692 22.422,-7.06 29.1265,-9.565 55.0074,-12.699 61.1948,-7.411 56.1071,-1.333 104.66,-14.013 27.172,-7.096 52.8614,-19.728 80.3207,-25.397 26.9124,-5.556 56.4459,0.532 82.7545,-6.568 3.288,-0.888 -6.3684,-2.833 -8.7622,-5.255 -11.9497,-12.093 -18.8382,-25.073 -22.8794,-42.037 -12.2066,-51.242 6.5229,-111.735 -5.8414,-158.078"
       id="path2987" /><path
       style="fill:none;stroke:#ffffff;stroke-width:10.7"
       d="m 4636.0562,37857.549 c -12.2829,9.751 21.8918,201.43 -16.5509,141.876"
       id="path2989" /><path
       style="fill:none;stroke:#ffffff;stroke-width:10.7"
       d="m 4561.0902,37912.723 c 41.4838,31.618 92.8688,3.6 136.7883,14.888"
       id="path2991" /><path
       style="fill:none;stroke:#ffffff;stroke-width:10.7"
       d="m 4444.2605,36768.084 c 0.649,12.115 1.7271,24.214 1.9469,36.345 0.2004,11.053 -7.0375,73.672 2.9208,86.701 1.454,1.903 3.74,-3.385 4.3812,-5.692 3.5377,-12.729 11.4111,-63.551 9.7359,-73.127 -2.7644,-15.803 -33.2306,-36.849 -18.9848,-44.227 24.8507,-12.871 55.3175,9.081 83.2411,10.947 49.35,3.298 108.9824,5.146 159.1807,2.19 34.6391,-2.041 56.0379,-6.001 88.5962,-18.392 16.6615,-6.341 46.5383,-39.563 66.6902,-35.031 19.0296,4.28 51.2356,162.956 31.6416,121.295"
       id="path2993" /><path
       style="fill:none;stroke:#ffffff;stroke-width:10.7"
       d="m 4641.8976,36475.137 c 14.9508,12.629 -13.4078,219.933 5.3547,118.668"
       id="path2995" /><path
       style="fill:none;stroke:#ffffff;stroke-width:10.7"
       d="m 4645.3051,36320.563 c -47.4526,-74.693 36.1786,-56.842 27.747,-37.221 -6.1097,14.218 -18.498,24.814 -27.747,37.221 z"
       id="path2997" /><path
       style="fill:none;stroke:#ffffff;stroke-width:10.7"
       d="m 5195.8661,36869.674 c -126.7004,227.674 -203.17,584.918 1.947,786.885"
       id="path2999" /><path
       style="fill:none;stroke:#ffffff;stroke-width:10.7"
       d="m 5465.5485,36958.565 c -89.9671,179.661 -142.0046,443.678 -17.0376,621.363"
       id="path3001" /><path
       style="fill:none;stroke:#ffffff;stroke-width:10.7"
       d="m 5615.4799,37127.59 c 9.6539,-37.051 7.7619,-52.425 28.7206,-78.82 77.9306,-98.144 56.4052,136.117 93.9506,176.031 14.4047,15.314 -10.5066,-40.974 -19.4712,-59.991 -8.2577,-17.516 -69.5288,-168.187 -106.1204,-79.257 -5.3446,12.99 -10.3508,46.638 2.9204,42.037 22.9524,-7.958 26.478,-41.219 43.8113,-58.239 38.0103,-37.324 80.4289,59.723 71.5582,90.643"
       id="path3003" /><path
       style="fill:none;stroke:#ffffff;stroke-width:10.7"
       d="m 5620.8346,37401.708 c 3.57,-18.245 6.1769,-36.706 10.7095,-54.736 28.2988,-112.572 23.9707,83.805 -10.7095,54.736 -26.0676,-21.85 28.9687,-144.282 24.3395,-48.606"
       id="path3005" /><path
       style="fill:none;stroke:#ffffff;stroke-width:10.7"
       d="m 5638.8458,37539.205 c -2.1696,43.012 -1.947,86.116 -1.947,129.177"
       id="path3007" /><path
       style="fill:none;stroke:#ffffff;stroke-width:10.7"
       d="m 5880.2942,36921.783 c 12.5082,68.913 13.1205,66.743 21.9054,140.124 19.0995,159.537 29.3656,319.296 -45.2712,467.664 -19.2591,38.284 -48.2383,78.752 -76.9131,111.661 -2.7429,3.149 -6.1211,9.973 -9.7359,7.883 -4.6855,-2.71 -2.596,-10.51 -3.8938,-15.764"
       id="path3009" /><path
       style="fill:none;stroke:#ffffff;stroke-width:10.7"
       d="m 6225.4297,37130.655 c -7.2546,80.156 -30.1667,156.543 -56.4682,232.081 -11.7456,33.733 -20.3985,56.436 -21.9056,55.173 -6.0264,-5.047 -5.8412,-14.596 -8.7619,-21.894"
       id="path3011" /><path
       style="fill:none;stroke:#ffffff;stroke-width:10.7"
       d="m 6094.4827,37172.692 c 12.4944,-0.729 26.4099,-8.022 37.4829,-2.189 61.7686,32.54 175.6805,189.091 165.5091,262.295"
       id="path3013" /><path
       style="fill:none;stroke:#ffffff;stroke-width:10.7"
       d="m 6322.3005,36782.096 c -48.1232,-54.282 31.2365,-74.673 23.3665,-42.475 -3.8365,15.697 -15.5776,28.317 -23.3665,42.475 z"
       id="path3015" /><path
       style="fill:none;stroke:#ffffff;stroke-width:10.7"
       d="m 6338.8516,36907.332 c 7.5311,47.891 8.9744,96.347 13.6302,144.503"
       id="path3017" /><path
       style="fill:none;stroke:#ffffff;stroke-width:10.7"
       d="m 6489.7569,36787.351 c 17.6869,38.242 41.3316,74.258 53.0606,114.727 53.1286,183.314 12.4174,557.319 -124.1319,690.549 -10.0237,9.78 -25.9622,10.509 -38.9432,15.764"
       id="path3019" /></g></svg>
