<?xml version="1.0" encoding="UTF-8" standalone="no"?>
<!-- Created with Inkscape (http://www.inkscape.org/) -->

<svg
   width="4093.1223mm"
   height="1602.9636mm"
   viewBox="0 0 4093.1222 1602.9637"
   version="1.1"
   id="svg12"
   inkscape:version="1.2.1 (9c6d41e410, 2022-07-14, custom)"
   sodipodi:docname="power_rule_int_calc.svg"
   xml:space="preserve"
   xmlns:inkscape="http://www.inkscape.org/namespaces/inkscape"
   xmlns:sodipodi="http://sodipodi.sourceforge.net/DTD/sodipodi-0.dtd"
   xmlns="http://www.w3.org/2000/svg"
   xmlns:svg="http://www.w3.org/2000/svg"><sodipodi:namedview
     id="namedview14"
     pagecolor="#505050"
     bordercolor="#eeeeee"
     borderopacity="1"
     inkscape:showpageshadow="0"
     inkscape:pageopacity="0"
     inkscape:pagecheckerboard="0"
     inkscape:deskcolor="#505050"
     inkscape:document-units="mm"
     showgrid="true"
     inkscape:zoom="0.029229381"
     inkscape:cx="9545.1902"
     inkscape:cy="6466.0966"
     inkscape:window-width="1366"
     inkscape:window-height="746"
     inkscape:window-x="0"
     inkscape:window-y="0"
     inkscape:window-maximized="1"
     inkscape:current-layer="layer1"
     inkscape:lockguides="false"><inkscape:grid
       type="xygrid"
       id="grid344"
       color="#969696"
       opacity="0.39215686"
       empcolor="#000000"
       empopacity="0.17254902"
       dotted="false"
       originx="-2757.76"
       originy="-33528.63" /></sodipodi:namedview><defs
     id="defs9" /><g
     inkscape:label="Layer 1"
     inkscape:groupmode="layer"
     id="layer1"
     transform="translate(-2862.76,-33677.129)"><path
       style="fill:none;stroke:#ffffff;stroke-width:10.7"
       d="m 3050.9743,34422.099 c -33.0914,103.171 -93.6276,198.482 -150.4185,290.319 -13.3766,21.633 -37.1745,42.961 -31.6416,49.043 8.2725,9.097 206.0813,-29.202 207.3733,-29.337 47.3678,-4.931 95.0365,-6.604 142.6297,-8.321 21.2448,-0.764 42.5138,0.54 63.7696,0.876 7.7891,0.124 16.7741,4.59 23.3662,0.439 4.5151,-2.844 -11.1069,-21.524 -28.2342,-49.919 -46.4132,-76.954 -102.6655,-218.196 -170.3769,-271.491"
       id="path2734" /><path
       style="fill:none;stroke:#ffffff;stroke-width:10.7"
       d="m 3582.0634,34432.172 c -6.8151,24.958 -12.9318,50.12 -20.4451,74.877 -15.5435,51.218 -34.7893,101.258 -50.6265,152.386 -7.2398,23.371 -15.9871,94.557 -20.4451,70.499 -1.7857,-9.637 -0.9903,-19.585 -1.9473,-29.337"
       id="path2736" /><path
       style="fill:none;stroke:#ffffff;stroke-width:10.7"
       d="m 3435.5393,34462.823 c 84.541,102.577 161.6025,215.863 226.3579,332.357"
       id="path2738" /><path
       style="fill:none;stroke:#ffffff;stroke-width:10.7"
       d="m 3710.5763,34382.253 c 0.9737,-20.873 0.1677,-41.905 2.921,-62.619 31.1841,-234.612 104.8197,18.555 129.9729,90.204"
       id="path2740" /><path
       style="fill:none;stroke:#ffffff;stroke-width:10.7"
       d="m 4015.7943,34528.943 c 50.9929,-13.163 103.3365,-11.806 155.2864,-7.443 1.8256,0.154 43.2366,-2.003 34.0754,10.946"
       id="path2742" /><path
       style="fill:none;stroke:#ffffff;stroke-width:10.7"
       d="m 4025.5302,34669.945 c 72.4009,-8.626 146.8059,-33.343 220.5162,-26.713"
       id="path2744" /><path
       style="fill:none;stroke:#ffffff;stroke-width:10.7"
       d="m 4774.2153,34069.161 c -3.7322,18.975 -7.9928,37.853 -11.1966,56.927 -2.3162,13.788 -3.7502,27.71 -5.3544,41.598 -1.783,15.439 -2.971,30.94 -4.3812,46.416 -0.186,2.043 -0.4869,8.181 -0.4869,6.13 0,-25.352 -14.6539,-76.358 -9.7358,-97.649 4.6397,-20.085 12.9995,-43.657 31.1549,-53.422 20.3467,-10.941 95.6712,-18.238 134.3541,-24.083 163.3895,-24.693 103.6206,-66.286 117.8036,119.981"
       id="path2746" /><path
       style="fill:none;stroke:#ffffff;stroke-width:10.7"
       d="m 4811.698,34838.968 c 38.403,40.196 4.4117,96.441 16.5508,140.124 1.5367,5.53 36.7752,-8.12 37.9698,-8.319 34.4816,-5.744 70.4271,-2.688 105.147,-3.066 5.9595,-0.06 129.2011,4.617 135.8146,-0.876 16.6203,-13.801 -3.6592,-129.016 -6.3283,-158.515 -7.4504,-89.804 0.7676,6.356 -3.8941,-42.912 -0.2495,-2.636 -0.7155,-10.518 -0.9737,-7.882 -0.5141,5.238 -0.649,10.509 -0.9737,15.764"
       id="path2758" /><path
       style="fill:none;stroke:#ffffff;stroke-width:10.7"
       d="m 4922.1997,35112.212 c 29.4677,43.378 49.0855,116.006 18.9849,165.084"
       id="path2760" /><path
       style="fill:none;stroke:#ffffff;stroke-width:10.7"
       d="m 4853.0752,35196.286 c 36.0166,43.473 152.2026,-1.868 186.4413,22.77"
       id="path2762" /><path
       style="fill:none;stroke:#ffffff;stroke-width:10.7"
       d="m 4908.0828,33745.125 c -57.4638,-13.753 13.6261,-80.078 12.1695,-58.24 -1.3197,19.788 -8.1129,38.825 -12.1695,58.24 z"
       id="path2764" /><path
       style="fill:none;stroke:#ffffff;stroke-width:10.7"
       d="m 4892.9921,33864.23 c -5.9963,29.533 -8.7622,59.952 -8.7622,89.768"
       id="path2766" /><path
       style="fill:none;stroke:#ffffff;stroke-width:10.7"
       d="m 5448.9076,34022.308 c -14.2791,22.479 -32.1633,43.037 -42.8374,67.434 -31.3428,71.639 -54.6645,194.956 -62.3094,266.674 -19.0322,178.541 -3.2578,365.334 156.7466,472.919"
       id="path2770" /><path
       style="fill:none;stroke:#ffffff;stroke-width:10.7"
       d="m 5696.6843,34100.252 c -75.0612,115.707 -129.9133,272.227 -97.3582,412.927 30.3816,131.31 95.1428,150.016 125.5921,247.846"
       id="path2786" /><path
       style="fill:none;stroke:#ffffff;stroke-width:10.7"
       d="m 4918.7918,34610.829 c -37.9759,-25.802 -54.5073,-25.784 -73.0183,13.576 -28.0813,59.705 -2.6202,132.852 75.9393,113.411 35.0102,-8.663 69.0928,-22.159 100.7658,-39.41 38.721,-21.09 44.4852,-95.898 -4.8678,-108.159 -39.5332,-9.819 -61.6717,6.588 -98.819,20.582 z"
       id="path2788" /><path
       style="fill:none;stroke:#ffffff;stroke-width:10.7"
       d="m 4911.977,34486.03 c 8.2063,123.272 -1.8907,246.346 6.3283,369.578"
       id="path2790" /><path
       style="fill:none;stroke:#ffffff;stroke-width:10.7"
       d="m 4751.3357,34420.786 c 13.262,16.865 0.2461,-148.695 33.1018,-133.556 36.5143,16.822 44.3823,96.113 49.6528,130.49"
       id="path2792" /><path
       style="fill:none;stroke:#ffffff;stroke-width:10.7"
       d="m 4939.2373,34357.728 c 35.5756,-6.9 27.7598,-8.509 41.8639,-0.436"
       id="path2794" /><path
       style="fill:none;stroke:#ffffff;stroke-width:10.7"
       d="m 5058.5014,34255.702 c 24.1138,62.177 26.4329,129.805 35.5356,195.297"
       id="path2796" /><path
       style="fill:none;stroke:#ffffff;stroke-width:10.7"
       d="m 5784.7935,34232.493 c 8.6,-12.261 16.4089,-25.117 25.8,-36.782 39.311,-48.832 86.129,-26.009 117.8034,15.327 0.722,0.942 30.993,58.026 25.8,55.61 -28.8518,-13.422 -56.942,-112.686 -95.8977,-103.341 -5.7904,1.389 -9.7808,6.866 -14.1171,10.949 -20.1898,19.002 -52.9635,31.265 -59.3886,58.237 -5.4915,23.053 21.5399,42.304 30.1812,64.371 1.5436,3.942 -2.3484,16.219 0,12.697 16.5204,-24.77 -32.8472,-70.625 -30.1812,-77.068 2.2113,-5.342 166.099,-70.998 156.7471,13.137"
       id="path2798" /><path
       style="fill:none;stroke:#ffffff;stroke-width:10.7"
       d="m 5885.5598,34445.308 c -8.1135,-13.576 -10.7654,-48.837 -24.3401,-40.725 -13.5745,8.115 16.2266,27.149 24.3401,40.725 z"
       id="path2800" /><path
       style="fill:none;stroke:#ffffff;stroke-width:10.7"
       d="m 5900.1629,34601.634 c -2.4598,-13.784 21.5082,165.569 14.1174,125.672"
       id="path2802" /><path
       style="fill:none;stroke:#ffffff;stroke-width:10.7"
       d="m 5987.2987,34052.96 c 10.533,22.958 57.8318,124.352 68.1511,152.823 45.0942,124.418 61.6177,261.403 36.9956,392.348 -11.5978,61.677 -44.5286,213.982 -56.4676,138.809"
       id="path2804" /><path
       style="fill:none;stroke:#ffffff;stroke-width:10.7"
       d="m 6488.6939,34279.348 c -25.7765,103.122 -82.1013,210.818 -154.3127,290.759 -6.5556,7.255 -0.3294,-19.566 0,-29.34"
       id="path2806" /><path
       style="fill:none;stroke:#ffffff;stroke-width:10.7"
       d="m 6303.2262,34299.052 c 12.8188,25.106 25.0714,50.509 38.4564,75.319 30.0107,55.62 45.0935,77.98 85.1887,130.926 22.2078,29.326 79.8547,78.968 85.675,120.859"
       id="path2808" /><path
       style="fill:none;stroke:#ffffff;stroke-width:10.7"
       d="m 6571.9349,34003.917 c -73.7729,-99.293 39.3208,-113.295 48.1926,-34.155 0.9998,8.919 3.9153,21.521 -3.4079,26.71 -12.3467,8.749 -38.5529,21.235 -44.7847,7.445 -59.1023,-130.789 126.8836,-33.107 56.4677,-3.942 -17.4324,7.22 -37.6452,2.627 -56.4677,3.942 z"
       id="path2810" /><path
       style="fill:none;stroke:#ffffff;stroke-width:10.7"
       d="m 6571.9349,34207.096 c 10.7104,-72.171 30.3443,190.288 9.2494,151.072 -18.2666,-33.96 3.2657,-99.523 -9.2494,-151.072 z"
       id="path2812" /><path
       style="fill:none;stroke:#ffffff;stroke-width:10.7"
       d="m 6838.6966,33841.46 c 68.3308,142.544 73.0184,311.211 73.0184,467.225 0,136.475 11.4646,283.274 -52.573,408.551 -26.4628,51.769 -77.8909,108.733 -88.1092,86.262 -3.91,-8.596 97.7951,-145.608 107.5804,-163.769 25.1561,-46.683 36.3368,-83.063 47.2191,-134.869 59.3829,-282.699 4.7731,-408.596 -87.1357,-663.4 z"
       id="path2814" /></g></svg>
