<?xml version="1.0" encoding="UTF-8" standalone="no"?>
<!-- Created with Inkscape (http://www.inkscape.org/) -->

<svg
   width="5364.9751mm"
   height="4660.2266mm"
   viewBox="0 0 5364.975 4660.2267"
   version="1.1"
   id="svg12"
   inkscape:version="1.2.1 (9c6d41e410, 2022-07-14, custom)"
   sodipodi:docname="power_differences_grid.svg"
   xml:space="preserve"
   xmlns:inkscape="http://www.inkscape.org/namespaces/inkscape"
   xmlns:sodipodi="http://sodipodi.sourceforge.net/DTD/sodipodi-0.dtd"
   xmlns="http://www.w3.org/2000/svg"
   xmlns:svg="http://www.w3.org/2000/svg"><sodipodi:namedview
     id="namedview14"
     pagecolor="#505050"
     bordercolor="#eeeeee"
     borderopacity="1"
     inkscape:showpageshadow="0"
     inkscape:pageopacity="0"
     inkscape:pagecheckerboard="0"
     inkscape:deskcolor="#505050"
     inkscape:document-units="mm"
     showgrid="true"
     inkscape:zoom="0.029229381"
     inkscape:cx="8724.0985"
     inkscape:cy="11734.768"
     inkscape:window-width="1366"
     inkscape:window-height="746"
     inkscape:window-x="0"
     inkscape:window-y="0"
     inkscape:window-maximized="1"
     inkscape:current-layer="layer1"
     inkscape:lockguides="false"><inkscape:grid
       type="xygrid"
       id="grid344"
       color="#969696"
       opacity="0.39215686"
       empcolor="#000000"
       empopacity="0.17254902"
       dotted="false"
       originx="-2939.7003"
       originy="-33661.869" /></sodipodi:namedview><defs
     id="defs9" /><g
     inkscape:label="Layer 1"
     inkscape:groupmode="layer"
     id="layer1"
     transform="translate(-3044.7003,-33810.369)"><path
       style="fill:none;stroke:#ffffff;stroke-width:10.7"
       d="m 5122.7575,33810.808 c 2.6464,63.984 -0.7903,127.767 1.4605,191.794 1.1592,32.97 2.5969,38.788 4.8678,68.749 0.254,3.353 3.128,12.15 0.4869,10.07 -19.2127,-15.121 -10.5278,-47.892 -12.6566,-72.249 -2.3284,-26.641 -4.6813,-53.404 -3.8942,-80.135 1.1639,-39.526 6.4905,-78.819 9.7356,-118.229 z"
       id="path607" /><path
       style="fill:none;stroke:#ffffff;stroke-width:10.7"
       d="m 5082.3538,34401.52 c -1.4602,-18.101 -6.818,-36.307 -4.381,-54.298 3.7455,-27.657 39.5275,-63.68 58.415,-23.649 19.0281,40.331 25.7302,89.683 21.4188,133.557 -5.5729,56.708 -26.2413,107.333 -54.034,156.326 -0.2489,0.439 -47.0807,83.45 -71.5581,77.944 -24.365,-5.48 25.9487,-46.009 48.1922,-57.362 54.1261,-27.628 115.7685,-34.155 175.7318,-34.155"
       id="path609" /><path
       style="fill:none;stroke:#ffffff;stroke-width:10.7"
       d="m 5434.7907,34384.441 c -6.64,34.43 -76.3468,262.678 -95.8979,275.87 -13.9618,9.419 -8.2447,-32.758 -10.2227,-49.482"
       id="path611" /><path
       style="fill:none;stroke:#ffffff;stroke-width:10.7"
       d="m 5334.5118,34353.789 c 92.3208,48.024 88.2348,263.644 145.0639,327.541"
       id="path613" /><path
       style="fill:none;stroke:#ffffff;stroke-width:10.7"
       d="m 5715.6689,34434.799 c 1.2984,-12.846 16.7394,-37.238 3.8944,-38.534 -12.8447,-1.299 -4.931,25.664 -3.8944,38.534 4.2297,52.504 38.0437,130.971 -22.3922,163.332 6.9018,-119.108 26.249,-45.873 108.5545,-106.845"
       id="path615" /><path
       style="fill:none;stroke:#ffffff;stroke-width:10.7"
       d="m 5875.8236,34311.312 c 54.2489,109.723 36.3577,227.243 28.234,344.181"
       id="path617" /><path
       style="fill:none;stroke:#ffffff;stroke-width:10.7"
       d="m 4564.895,35090.317 c -35.1073,-63.341 91.1905,-86.968 84.7016,-23.209 -2.9385,28.874 -25.0479,52.641 -43.8113,71.813 -7.5986,7.766 -36.2098,14.846 -26.2869,19.267 49.711,22.154 133.9016,44.686 96.8716,124.799 -27.2378,58.928 -179.3446,146.558 -125.1053,19.706"
       id="path619" /><path
       style="fill:none;stroke:#ffffff;stroke-width:10.7"
       d="m 4858.4298,35089.002 c -3.4073,18.682 -5.5986,37.629 -10.2224,56.05 -11.0292,43.936 -25.8154,86.846 -39.4301,130.053 -5.0038,15.878 -10.3465,31.655 -16.0642,47.292 -3.3869,9.263 -10.2057,32.07 -16.551,24.521 -10.0004,-11.898 -14.6037,-27.44 -21.9056,-41.161"
       id="path621" /><path
       style="fill:none;stroke:#ffffff;stroke-width:10.7"
       d="m 4730.8908,35132.791 c 61.7289,39.581 84.5143,109.68 114.8827,172.966 20.0451,41.772 20.6565,42.18 33.1017,75.316 1.1975,3.188 4.254,12.933 3.4076,9.634 -1.8182,-7.086 -4.2188,-14.013 -6.3283,-21.019"
       id="path623" /><path
       style="fill:none;stroke:#ffffff;stroke-width:10.7"
       d="m 4918.7918,34980.843 c 7.6267,-14.594 13.6589,-30.141 22.8796,-43.788 18.1105,-26.8 59.1106,-49.729 70.5848,3.942 5.8941,27.57 -20.6516,76.147 -33.5889,95.896 -15.1204,23.082 -36.6707,33.149 -34.562,36.785 4.1352,7.127 122.4767,25.124 144.5771,31.088"
       id="path625" /><path
       style="fill:none;stroke:#ffffff;stroke-width:10.7"
       d="m 5204.5384,35137.609 c 3.8121,35.893 40.8495,240.866 -14.1168,232.955"
       id="path627" /><path
       style="fill:none;stroke:#ffffff;stroke-width:10.7"
       d="m 5136.8744,35301.378 c 42.8347,-32.872 92.0655,-33.356 143.6036,-24.082"
       id="path629" /><path
       style="fill:none;stroke:#ffffff;stroke-width:10.7"
       d="m 5545.7792,35122.721 c 5.5118,-27.326 34.1879,-74.42 71.0713,-51.234 49.1215,30.877 -13.1466,116.795 -37.9698,142.314 -10.2579,10.546 13.9618,-18.434 49.6533,-6.57 38.2545,12.719 90.8534,64.167 70.5842,109.911 -17.69,39.923 -84.6455,90.239 -129.4863,56.049 -9.1583,-6.982 -11.6829,-19.851 -17.5244,-29.776"
       id="path631" /><path
       style="fill:none;stroke:#ffffff;stroke-width:10.7"
       d="m 5856.3519,35112.212 c 131.6085,-110.229 0.039,-0.06 0,0 -28.7407,45.682 -38.8782,100.708 -59.3887,150.632 -4.7564,11.578 -2.101,34.002 -14.6034,34.594 -8.2894,0.392 -5.8843,-15.57 -7.7891,-23.645"
       id="path633" /><path
       style="fill:none;stroke:#ffffff;stroke-width:10.7"
       d="m 5758.02,35117.027 c 72.0455,48.091 156.4878,113.578 198.124,192.233"
       id="path635" /><path
       style="fill:none;stroke:#ffffff;stroke-width:10.7"
       d="m 6170.8192,35047.841 c -41.1411,81.235 6.1667,170.426 -10.2227,253.976"
       id="path637" /><path
       style="fill:none;stroke:#ffffff;stroke-width:10.7"
       d="m 6105.1023,35205.48 c 92.0332,-17.449 109.4774,-8.467 188.3881,-66.995"
       id="path639" /><path
       style="fill:none;stroke:#ffffff;stroke-width:10.7"
       d="m 6383.5469,34955.885 c 24.1249,147.111 -25.3649,312.706 47.2186,451.461"
       id="path641" /><path
       style="fill:none;stroke:#ffffff;stroke-width:10.7"
       d="m 4181.5709,35828.124 c -14.3918,-16.084 -224.2206,37.475 -222.4635,23.646 5.4591,-42.969 106.7503,-104.953 139.2224,-130.054 12.183,-9.419 39.515,-45.233 34.5622,-30.652 -25.0523,73.753 -16.7912,152.339 3.4073,226.388 5.1615,18.923 21.4914,61.606 40.4038,26.273"
       id="path643" /><path
       style="fill:none;stroke:#ffffff;stroke-width:10.7"
       d="m 4239.9861,35895.119 c 0.2667,2.67 4.876,64.87 10.7093,73.567 7.5612,11.272 22.3689,-17.1 28.2339,-29.339 10.93,-22.81 61.8197,-120.96 44.2979,-142.314 -10.2724,-12.518 -30.83,-9.925 -46.2452,-14.889 30.0948,122.906 4.5449,68.26 55.9812,146.256 11.599,17.588 25.1597,40.802 26.2865,39.848 4.1385,-3.504 0.9737,-10.802 1.4605,-16.202"
       id="path645" /><path
       style="fill:none;stroke:#ffffff;stroke-width:10.7"
       d="m 4360.2234,35640.706 c -8.5683,-40.558 74.209,-107.235 91.5167,-42.913 5.007,18.609 -18.9767,104.095 -38.9432,70.938 -12.2293,-20.307 69.5573,8.387 53.06,66.561 -11.0212,38.862 -59.0933,29.827 -86.6486,21.894"
       id="path647" /><path
       style="fill:none;stroke:#ffffff;stroke-width:10.7"
       d="m 4585.6076,35850.455 c 13.0699,34.02 55.6329,150.312 4.3812,174.717 14.6912,-103.622 11.0437,-92.354 84.7018,-93.707"
       id="path649" /><path
       style="fill:none;stroke:#ffffff;stroke-width:10.7"
       d="m 5140.7704,35674.075 c -97.2161,34.108 -116.8072,165.598 -96.3848,255.289 15.2768,67.096 137.1846,24.839 161.1281,-10.946 4.3619,-6.519 6.4881,-15.806 3.8938,-23.209 -19.9054,-56.804 -164.4816,16.547 -113.9089,-17.079"
       id="path651" /><path
       style="fill:none;stroke:#ffffff;stroke-width:10.7"
       d="m 5349.1168,35757.274 c 22.6996,12.686 -79.4965,288.827 -92.4901,186.541"
       id="path653" /><path
       style="fill:none;stroke:#ffffff;stroke-width:10.7"
       d="m 5246.8905,35796.683 c 44.0434,69.493 98.6616,134.062 140.6829,204.933"
       id="path655" /><path
       style="fill:none;stroke:#ffffff;stroke-width:10.7"
       d="m 5408.0189,35621.529 c -17.7602,5.572 90.1009,-117.028 96.8708,-78.383 7.3239,41.81 -9.2136,87.995 -23.8525,125.675 -8.7257,22.46 -19.9514,43.876 -29.2073,66.122 -1.1488,2.759 -4.8279,7.953 -1.9473,8.757 31.6129,8.824 78.1624,-43.857 103.1996,16.201"
       id="path657" /><path
       style="fill:none;stroke:#ffffff;stroke-width:10.7"
       d="m 5705.9347,35747.64 c -20.4923,76.682 37.4052,202.528 -21.9057,264.486"
       id="path659" /><path
       style="fill:none;stroke:#ffffff;stroke-width:10.7"
       d="m 5637.2975,35930.679 c 46.404,-36.957 102.5242,-36.24 158.6939,-38.534"
       id="path661" /><path
       style="fill:none;stroke:#ffffff;stroke-width:10.7"
       d="m 5991.6815,35852.733 c -50.0774,5.336 -28.0027,0.873 -81.7809,16.639 -20.2933,5.951 -39.7499,19.378 -60.8494,17.955 -15.0818,-1.019 15.6488,-38.553 41.8642,-81.886 30.4176,-50.279 23.4464,-40.815 47.2189,-81.447 2.7821,-4.754 6.6974,-19.118 8.762,-14.012 6.8839,17.029 0.6754,37.261 6.3283,54.737 9.8536,30.461 34.5217,56.24 38.4569,88.014 8.9551,72.305 -31.8307,60.531 -4.3813,109.91"
       id="path663" /><path
       style="fill:none;stroke:#ffffff;stroke-width:10.7"
       d="m 6171.3071,35764.719 c 45.8872,25.688 -53.0262,234.532 -98.8187,190.918"
       id="path665" /><path
       style="fill:none;stroke:#ffffff;stroke-width:10.7"
       d="m 6063.7265,35758.149 c 60.6591,55.103 67.6732,159.909 136.3017,204.494"
       id="path667" /><path
       style="fill:none;stroke:#ffffff;stroke-width:10.7"
       d="m 6398.1521,35723.558 c 21.3604,42.595 73.1896,136.361 20.932,179.096 28.2826,-89.479 117.5898,-46.552 162.588,-114.727"
       id="path669" /><path
       style="fill:none;stroke:#ffffff;stroke-width:10.7"
       d="m 6729.657,35547.089 c 12.1695,-0.876 28.9156,-12.179 36.5091,-2.628 12.9757,16.32 22.6274,126.868 24.8264,143.19 12.2372,90.813 40.1238,181.652 46.7317,272.804"
       id="path671" /><path
       style="fill:none;stroke:#ffffff;stroke-width:10.7"
       d="m 3672.8859,36381.976 c -1.1356,30.215 -1.5809,60.463 -3.4073,90.644 -1.2576,20.78 -3.8246,41.46 -5.8415,62.179 -1.1359,10.946 -2.272,21.895 -3.4078,32.84 -1.1359,7.007 -2.6361,13.965 -3.4073,21.019 -0.2072,1.894 -0.6639,7.212 0.4865,5.694 46.2172,-60.976 67.8514,-61.942 123.1583,26.712 33.5058,53.708 -68.9544,214.196 -128.5129,82.323"
       id="path681" /><path
       style="fill:none;stroke:#ffffff;stroke-width:10.7"
       d="m 3686.0293,36433.647 c 51.3988,-8.068 105.9704,-19.265 147.9846,16.639"
       id="path683" /><path
       style="fill:none;stroke:#ffffff;stroke-width:10.7"
       d="m 3991.7345,36518.596 c 6.4097,65.646 -20.3407,127.318 -46.2452,186.103 -6.0394,13.705 -11.9283,42.428 -25.8004,36.782 -5.2287,-2.127 -7.7885,-8.173 -11.6826,-12.261"
       id="path685" /><path
       style="fill:none;stroke:#ffffff;stroke-width:10.7"
       d="m 3883.1799,36567.203 c 58.379,44.696 161.6146,123.497 161.6146,207.558"
       id="path687" /><path
       style="fill:none;stroke:#ffffff;stroke-width:10.7"
       d="m 4139.8233,36413.702 c 26.8439,-73.03 -113.5546,58.412 -118.7772,28.464 -7.9301,-45.479 61.936,-88.159 91.0301,-119.983 3.0985,-3.387 24.0464,-27.938 29.2074,-34.592 1.67,-2.153 6.0192,-9.038 4.8678,-6.569 -45.1321,96.813 -28.4724,217.802 -9.7359,319.659"
       id="path727" /><path
       style="fill:none;stroke:#ffffff;stroke-width:10.7"
       d="m 4415.3469,36516.607 c 5.9598,78.509 25.3304,162.536 -10.7093,236.021"
       id="path729" /><path
       style="fill:none;stroke:#ffffff;stroke-width:10.7"
       d="m 4336.4868,36654.542 c 67.5158,-22.312 138.5181,-9.197 207.8598,-9.197"
       id="path731" /><path
       style="fill:none;stroke:#ffffff;stroke-width:10.7"
       d="m 4773.1385,36498.215 c 33.7603,60.667 -37.0856,136.859 -10.7096,196.173"
       id="path733" /><path
       style="fill:none;stroke:#ffffff;stroke-width:10.7"
       d="m 4864.1686,36598.929 c -114.4204,-10.377 4.5392,50.636 4.8676,46.416 1.207,-15.51 -18.3317,-38.621 -4.8676,-46.416 18.0136,-10.427 40.1804,16.47 60.8489,14.012 19.3117,-2.296 39.811,-49.508 31.1544,-53.861 -29.8601,-15.01 -85.4096,72.612 -92.0033,39.849 -5.6224,-27.935 24.6639,-51.379 36.9959,-77.068"
       id="path735" /><path
       style="fill:none;stroke:#ffffff;stroke-width:10.7"
       d="m 4925.5041,36470.627 c -26.3779,93.753 -27.7472,197.559 -27.7472,295.138"
       id="path737" /><path
       style="fill:none;stroke:#ffffff;stroke-width:10.7"
       d="m 5073.4887,36487.706 c 14.0279,88.075 -8.4876,153.186 -42.3508,232.079 -8.9781,20.918 -25.6736,56.388 -30.6681,51.234 -6.1982,-6.395 -4.5432,-17.224 -6.8149,-25.836"
       id="path739" /><path
       style="fill:none;stroke:#ffffff;stroke-width:10.7"
       d="m 4983.4322,36545.944 c 49.1522,67.267 108.1508,139.726 129.4865,222.885"
       id="path741" /><path
       style="fill:none;stroke:#ffffff;stroke-width:10.7"
       d="m 5144.56,36278.394 c 34.3442,-140.041 95.1791,-33.276 84.215,50.358 -3.6785,28.06 -44.9662,93.139 -41.3771,50.356 3.9756,-47.39 74.9657,58.251 74.9657,83.201 0,66.543 -111.4877,1.034 -128.9997,-21.019"
       id="path743" /><path
       style="fill:none;stroke:#ffffff;stroke-width:10.7"
       d="m 5414.2426,36534.559 c 3.732,-15.619 7.4639,-31.234 11.1962,-46.853 0.649,-1.021 2.2283,-4.244 1.9468,-3.066 -3.999,16.735 -12.4061,32.729 -13.143,49.919 -3.1839,74.263 27.7863,183.43 -26.7737,248.282"
       id="path745" /><path
       style="fill:none;stroke:#ffffff;stroke-width:10.7"
       d="m 5346.0915,36704.897 c 45.1673,-45.365 107.8611,-54.247 168.9167,-56.049"
       id="path747" /><path
       style="fill:none;stroke:#ffffff;stroke-width:10.7"
       d="m 5716.0529,36424.211 c 13.6966,66.522 -27.2413,148.604 1.947,212.376"
       id="path749" /><path
       style="fill:none;stroke:#ffffff;stroke-width:10.7"
       d="m 5829.9623,36533.683 c -24.6091,164.422 131.3942,76.845 120.7241,-13.137 -0.4614,-3.892 -7.9931,-2.632 -11.6829,-1.312 -113.4766,40.598 -118.2272,137.475 -109.0412,14.449 z"
       id="path751" /><path
       style="fill:none;stroke:#ffffff;stroke-width:10.7"
       d="m 5889.3507,36397.063 c -8.1132,72.043 0.03,144.126 -0.9734,216.318 -0.3167,22.796 -8.1896,68.77 -3.4078,94.583"
       id="path753" /><path
       style="fill:none;stroke:#ffffff;stroke-width:10.7"
       d="m 6144.4291,36401.441 c -24.8647,8.277 -88.2242,300.099 -121.2109,319.22 -4.8736,2.826 -5.8414,-9.633 -8.7619,-14.449"
       id="path755" /><path
       style="fill:none;stroke:#ffffff;stroke-width:10.7"
       d="m 6029.0597,36472.818 c 26.942,26.358 82.3865,222.65 108.0677,208.434"
       id="path757" /><path
       style="fill:none;stroke:#ffffff;stroke-width:10.7"
       d="m 6240.3271,36201.766 c 83.8361,-143.449 50.2711,46.357 31.6415,92.831 -7.4385,18.556 -17.5061,35.97 -27.2603,53.422 -6.7892,12.147 -23.3658,20.678 -23.3658,34.595 0,2.698 4.4058,-3.162 6.8151,-4.379 16.1562,-8.176 29.6238,-16.5 48.6791,-14.015 29.437,3.842 62.248,17.317 84.2148,35.033"
       id="path759" /><path
       style="fill:none;stroke:#ffffff;stroke-width:10.7"
       d="m 6492.4848,36471.503 c -5.9804,74.708 4.0632,152.501 -10.2224,226.388"
       id="path761" /><path
       style="fill:none;stroke:#ffffff;stroke-width:10.7"
       d="m 6441.8589,36612.505 c 14.3174,-5.81 64.9557,-43.723 87.1355,-20.146"
       id="path763" /><path
       style="fill:none;stroke:#ffffff;stroke-width:10.7"
       d="m 6765.0882,36782.404 c 46.1251,52.2 88.2705,-13.565 79.8338,-63.494 -17.5977,-104.14 -76.1029,-16.897 -112.9356,5.693 -9.3324,5.723 2.6226,-21.801 5.3547,-32.403 20.5343,-79.682 40.4429,-159.549 57.9284,-239.964 40.8625,-14.278 88.2076,-31.156 119.7501,8.321"
       id="path765" /><path
       style="fill:none;stroke:#ffffff;stroke-width:10.7"
       d="m 7043.5328,36525.364 c 2.4008,30.877 -76.5924,273.415 -119.7507,226.825"
       id="path767" /><path
       style="fill:none;stroke:#ffffff;stroke-width:10.7"
       d="m 6915.0196,36552.074 c 15.5774,4.233 33.0724,4.098 46.7321,12.7 38.6767,24.352 99.9347,102.703 115.8562,146.693"
       id="path769" /><path
       style="fill:none;stroke:#ffffff;stroke-width:10.7"
       d="m 7237.2752,36317.367 c -6.5757,62.101 15.4128,240.054 -15.0899,289.444"
       id="path771" /><path
       style="fill:none;stroke:#ffffff;stroke-width:10.7"
       d="m 7153.5473,36561.707 c 45.2231,-38.372 95.6519,-39.19 147.4978,-54.734"
       id="path773" /><path
       style="fill:none;stroke:#ffffff;stroke-width:10.7"
       d="m 7451.9507,36236.357 c 34.7941,145.341 13.1326,295.828 -43.3244,432.197"
       id="path775" /><path
       style="fill:none;stroke:#ffffff;stroke-width:10.7"
       d="m 3167.7481,37074.518 c -13.6302,-4.964 -26.4062,-15.674 -40.8905,-14.891 -46.4683,2.516 -85.6978,127.891 -74.9657,165.96 17.6011,62.436 124.7399,101.991 160.6412,31.527 40.2513,-78.999 -205.4148,9.475 -86.1623,-11.385"
       id="path777" /><path
       style="fill:none;stroke:#ffffff;stroke-width:10.7"
       d="m 3384.3705,37143.264 c 4.3492,3.94 -99.299,154.763 -101.2529,151.072 -1.1486,-2.17 0.8273,-25.919 0.9737,-28.025"
       id="path779" /><path
       style="fill:none;stroke:#ffffff;stroke-width:10.7"
       d="m 3288.4722,37117.867 c 69.9315,85.357 78.7268,197.501 118.7773,295.574 5.9124,14.478 -0.7559,-31.306 -2.4342,-46.853"
       id="path781" /><path
       style="fill:none;stroke:#ffffff;stroke-width:10.7"
       d="m 3471.5057,37202.38 c 55.6609,88.493 78.3024,35.994 70.5847,-45.103 -2.6797,-28.16 -9.9533,-69.559 -33.5883,-91.081 -9.1212,-8.305 -35.8264,11.404 -36.9964,-0.875 -1.3576,-14.251 5.4745,-28.186 6.3286,-42.477 1.0535,-17.629 0,-35.321 0,-52.982 96.3969,13.195 59.7675,7.793 110.0147,15.326"
       id="path783" /><path
       style="fill:none;stroke:#ffffff;stroke-width:10.7"
       d="m 3932.4972,37141.513 c 2.6728,64.685 32.3953,151.667 8.2753,216.754"
       id="path785" /><path
       style="fill:none;stroke:#ffffff;stroke-width:10.7"
       d="m 3854.6107,37256.239 c 41.9616,-20.931 103.2843,-51.631 152.8522,-29.337"
       id="path787" /><path
       style="fill:none;stroke:#ffffff;stroke-width:10.7"
       d="m 4310.7338,37093.345 c 38.6512,-61.976 -2.5045,295.426 -8.7622,225.076"
       id="path797" /><path
       style="fill:none;stroke:#ffffff;stroke-width:10.7"
       d="m 4410.0394,37324.551 c 3.2499,10.523 10.9905,42.175 21.9056,48.168 49.5025,27.181 137.0634,-153.091 25.7998,-161.581 -51.7308,-3.948 -26.4287,18.095 -61.3357,25.397 -9.4377,1.974 41.8888,-117.549 -13.1434,-89.328 75.1483,-70.483 84.3432,-85.026 161.6148,-56.926"
       id="path799" /><path
       style="fill:none;stroke:#ffffff;stroke-width:10.7"
       d="m 4769.2911,37181.362 c -32.8488,56.716 -67.7679,112.048 -103.6865,166.835 -23.5119,35.862 -38.8082,61.521 -44.2978,50.356 -3.3346,-6.781 -6.5466,-50.126 -6.8152,-52.983"
       id="path801" /><path
       style="fill:none;stroke:#ffffff;stroke-width:10.7"
       d="m 4621.3068,37128.376 c 73.2536,82.05 110.9885,208.846 110.9885,319.22"
       id="path803" /><path
       style="fill:none;stroke:#ffffff;stroke-width:10.7"
       d="m 4943.5624,37072.766 c -14.6037,-3.358 -28.9216,-8.387 -43.811,-10.073 -15.067,-1.704 -66.7758,11.428 -79.347,-3.939 -17.3318,-21.188 25.7572,-68.157 36.9959,-80.574 12.1486,-13.42 39.9402,-52.591 41.8642,-34.591 4.3672,40.854 -8.5291,95.091 -10.7095,134.432 -3.3904,61.174 -4.2291,122.256 -2.9207,183.472"
       id="path805" /><path
       style="fill:none;stroke:#ffffff;stroke-width:10.7"
       d="m 5185.0108,37174.355 c -13.5689,16.929 14.0872,252.958 -12.6563,177.782"
       id="path807" /><path
       style="fill:none;stroke:#ffffff;stroke-width:10.7"
       d="m 5105.6641,37278.136 c 58.4346,-0.651 118.9977,5.323 174.2708,22.77"
       id="path809" /><path
       style="fill:none;stroke:#ffffff;stroke-width:10.7"
       d="m 5478.5462,37194.935 c 38.1929,-20.413 63.201,-81.563 81.7808,-33.28 8.3246,21.635 4.0228,40.601 -5.8414,61.304 -23.0783,48.443 -56.0517,88.485 -93.9507,125.675 -4.0946,4.019 8.8289,-7.369 13.6301,-10.509 25.9402,-16.971 84.547,-48.289 115.3694,-23.646"
       id="path811" /><path
       style="fill:none;stroke:#ffffff;stroke-width:10.7"
       d="m 5681.0511,37198.438 c -6.1081,8.332 -48.5116,40.563 -21.4188,58.676 24.2906,16.241 90.3587,9.359 109.0414,-14.448 26.6809,-34.002 -74.8824,-22.387 -87.6226,-44.228 -12.8709,-22.064 0,-51.086 0,-76.629 0,25.543 -1.6668,51.14 0,76.629 1.7477,26.726 12.0037,52.973 10.2228,79.697 -2.133,32.01 -47.6648,115.969 -39.4299,151.947 3.4143,14.917 21.0692,-22.299 30.1807,-34.593"
       id="path813" /><path
       style="fill:none;stroke:#ffffff;stroke-width:10.7"
       d="m 5915.6847,37122.685 c -27.8225,73.316 -65.2823,141.941 -101.7397,211.061 -4.4715,8.477 -14.0647,35.557 -11.683,26.273 6.3649,-24.81 4.785,-17.206 7.3017,-39.846"
       id="path815" /><path
       style="fill:none;stroke:#ffffff;stroke-width:10.7"
       d="m 5819.2996,37128.815 c 51.2189,63.934 48.4463,144.823 70.585,218.507"
       id="path817" /><path
       style="fill:none;stroke:#ffffff;stroke-width:10.7"
       d="m 5998.9258,36947.967 c -35.4817,-7.982 54.7147,-74.014 59.8752,-48.606 8.6024,42.357 -10.6344,86.587 -41.8642,114.289 -5.3134,4.712 -17.0326,18.42 -18.011,11.385 -1.2716,-9.141 21.0415,3.842 24.8266,12.261 9.2948,20.672 13.5136,49.255 -0.9742,69.186 -4.0883,5.625 -9.657,11.787 -16.5507,12.7 -24.3711,3.223 -83.3549,-1.574 -75.9397,-41.601"
       id="path819" /><path
       style="fill:none;stroke:#ffffff;stroke-width:10.7"
       d="m 6268.1211,37102.103 c -7.4639,23.209 -17.8925,45.664 -22.3923,69.625 -7.2988,38.865 -8.2079,78.716 -9.7358,118.229 -0.3808,9.843 -7.089,48.562 7.7888,27.149"
       id="path825" /><path
       style="fill:none;stroke:#ffffff;stroke-width:10.7"
       d="m 6155.186,37219.02 c 55.7094,-2.03 120.6905,-15.439 173.7839,6.13"
       id="path827" /><path
       style="fill:none;stroke:#ffffff;stroke-width:10.7"
       d="m 6509.0578,37010.264 c 0.9739,16.2 1.7962,32.414 2.9212,48.603 4.5337,65.257 1.3873,113.406 -13.6305,179.097 -2.8834,12.615 -11.952,49.175 -13.63,36.346 -0.8723,-6.673 2.921,-13.137 4.3812,-19.706"
       id="path829" /><path
       style="fill:none;stroke:#ffffff;stroke-width:10.7"
       d="m 6603.4952,37272.558 c 36.231,93.118 65.735,-28.419 69.6114,-65.683 8.7704,-84.314 -63.4743,-16.346 -62.3091,-38.097 3.2252,-60.209 8.9405,7.858 -7.7891,-90.641 92.368,-38.981 115.3096,-48.7 187.9019,-35.032"
       id="path831" /><path
       style="fill:none;stroke:#ffffff;stroke-width:10.7"
       d="m 6969.0756,37065.437 c -23.4561,81.436 -65.2804,159.083 -112.4485,229.452 -7.9991,11.935 -11.9308,34.705 -26.2868,34.158 -11.7237,-0.45 2.2717,-23.355 3.4078,-35.034"
       id="path833" /><path
       style="fill:none;stroke:#ffffff;stroke-width:10.7"
       d="m 6876.5852,37075.51 c 5.3546,16.785 9.1789,34.136 16.0642,50.355 24.2271,57.068 63.7683,105.807 87.6223,162.894 3.4692,8.302 9.4898,33.758 3.8944,26.712 -5.0972,-6.419 -7.4642,-14.597 -11.1961,-21.894"
       id="path835" /><path
       style="fill:none;stroke:#ffffff;stroke-width:10.7"
       d="m 7025.5438,36968.227 c 3.8893,-11.817 33.2605,-78.182 64.2559,-55.613 34.2606,24.947 1.675,79.795 -15.5768,104.216 -4.3215,6.12 -21.8028,19.148 -14.604,17.079 22.5917,-6.493 77.3467,-35.83 97.845,-9.197"
       id="path837" /><path
       style="fill:none;stroke:#ffffff;stroke-width:10.7"
       d="m 7303.0141,37114.48 c 0.5136,35.103 22.742,169.31 -29.207,183.915"
       id="path839" /><path
       style="fill:none;stroke:#ffffff;stroke-width:10.7"
       d="m 7230.4826,37230.521 c 50.0081,-35.602 94.3626,-45.341 147.011,-16.639"
       id="path841" /><path
       style="fill:none;stroke:#ffffff;stroke-width:10.7"
       d="m 7581.9456,37086.895 c -74.4988,42.558 -99.181,259.207 22.393,239.085 46.0618,-7.622 67.4669,-70.966 28.2337,-100.277 -43.9857,-32.858 -148.8234,-27.101 -70.5848,-40.722"
       id="path843" /><path
       style="fill:none;stroke:#ffffff;stroke-width:10.7"
       d="m 7922.213,37021.649 c -26.9119,81.399 -83.3734,221.403 -141.6561,285.064"
       id="path845" /><path
       style="fill:none;stroke:#ffffff;stroke-width:10.7"
       d="m 7825.8282,37054.052 c 32.5614,95.57 92.3888,170.733 169.4034,234.707 69.6275,57.84 17.1185,7.128 47.2189,36.785"
       id="path847" /><path
       style="fill:none;stroke:#ffffff;stroke-width:10.7"
       d="m 8203.578,37036.097 c -14.2158,35.068 19.9078,194.609 -7.7883,210.625"
       id="path849" /><path
       style="fill:none;stroke:#ffffff;stroke-width:10.7"
       d="m 8131.0465,37173.157 c 41.6028,-53.999 139.0094,19.637 159.6673,-38.971"
       id="path851" /><path
       style="fill:none;stroke:#ffffff;stroke-width:10.7"
       d="m 8387.5854,36918.744 c 51.8155,115.729 -35.7836,281.467 -12.1698,391.912"
       id="path853" /><path
       style="fill:none;stroke:#ffffff;stroke-width:10.7"
       d="m 5858.1137,37681.977 c -15.4151,0.291 -33.0573,8.861 -46.2449,0.876 -20.8373,-12.621 11.9187,-89.62 38.9432,-52.546 10.2465,14.054 4.8678,34.446 7.3017,51.67 z"
       id="path855" /><path
       style="fill:none;stroke:#ffffff;stroke-width:10.7"
       d="m 5819.1705,38097.095 c -7.951,-18.976 -21.7506,-36.459 -23.8527,-56.928 -10.4852,-102.089 116.7887,100.444 23.8527,56.928 -111.515,-52.218 29.6466,-125.082 18.011,-53.422 -3.012,18.547 -12.0073,35.613 -18.011,53.422 z"
       id="path857" /><path
       style="fill:none;stroke:#ffffff;stroke-width:10.7"
       d="m 5792.3968,38398.799 c -12.4942,-3.066 -34.4178,-21.69 -37.483,-9.196 -3.0652,12.496 32.871,-2.813 37.483,9.196 8.0536,20.971 -2.1209,78.026 -19.9581,64.368 -30.78,-23.563 1.9669,-39.248 19.9581,-64.368 z"
       id="path859" /></g></svg>
