<?xml version="1.0" encoding="UTF-8" standalone="no"?>
<!-- Created with Inkscape (http://www.inkscape.org/) -->

<svg
   width="52.283352mm"
   height="89.004562mm"
   viewBox="0 0 52.283353 89.004566"
   version="1.1"
   id="svg12"
   inkscape:version="1.2.1 (9c6d41e410, 2022-07-14, custom)"
   sodipodi:docname="prepostin_example.svg"
   xml:space="preserve"
   xmlns:inkscape="http://www.inkscape.org/namespaces/inkscape"
   xmlns:sodipodi="http://sodipodi.sourceforge.net/DTD/sodipodi-0.dtd"
   xmlns="http://www.w3.org/2000/svg"
   xmlns:svg="http://www.w3.org/2000/svg"><sodipodi:namedview
     id="namedview14"
     pagecolor="#505050"
     bordercolor="#eeeeee"
     borderopacity="1"
     inkscape:showpageshadow="0"
     inkscape:pageopacity="0"
     inkscape:pagecheckerboard="0"
     inkscape:deskcolor="#505050"
     inkscape:document-units="mm"
     showgrid="true"
     inkscape:zoom="0.73300363"
     inkscape:cx="-65.483987"
     inkscape:cy="215.55146"
     inkscape:window-width="1366"
     inkscape:window-height="746"
     inkscape:window-x="0"
     inkscape:window-y="0"
     inkscape:window-maximized="1"
     inkscape:current-layer="layer1"
     inkscape:lockguides="false"><inkscape:grid
       type="xygrid"
       id="grid344"
       color="#969696"
       opacity="0.39215686"
       empcolor="#000000"
       empopacity="0.17254902"
       dotted="false"
       originx="577.80884"
       originy="-16900.822" /></sodipodi:namedview><defs
     id="defs9" /><g
     inkscape:label="Layer 1"
     inkscape:groupmode="layer"
     id="layer1"
     transform="translate(472.80883,-17049.32)"><path
       style="fill:none;stroke:#e3dbdb;stroke-width:0.499999;stroke-dasharray:none"
       d="m -464.24538,17053.297 c -0.0259,1.025 -0.027,2.05 -0.0776,3.073 -0.0835,1.687 -0.20907,2.344 -0.50469,3.999 -0.0728,0.407 -0.44844,1.377 -0.0582,1.24 0.62413,-0.22 1.1262,-0.714 1.74702,-0.943 2.23285,-0.824 3.53711,1.642 3.14466,3.562 -0.11714,0.573 -1.49053,4.631 -3.00877,3.964 -1.53971,-0.677 -1.8393,-2.54 -2.30996,-3.859"
       id="path3017" /><path
       style="fill:none;stroke:#e3dbdb;stroke-width:0.499999;stroke-dasharray:none"
       d="m -460.59604,17050.783 c 1.41703,-0.408 2.83407,-0.815 4.2511,-1.223"
       id="path3019" /><path
       style="fill:none;stroke:#e3dbdb;stroke-width:0.499999;stroke-dasharray:none"
       d="m -447.93983,17054.345 c 0.33226,1.913 2.54248,6.137 1.5335,8.084 -0.18584,0.359 -0.6341,0.501 -0.95115,0.751"
       id="path3021" /><path
       style="fill:none;stroke:#e3dbdb;stroke-width:0.499999;stroke-dasharray:none"
       d="m -446.61986,17058.012 c 1.5035,0 3.05487,0.08 3.90169,1.239"
       id="path3023" /><path
       style="fill:none;stroke:#e3dbdb;stroke-width:0.499999;stroke-dasharray:none"
       d="m -431.30429,17052.878 c 0.12878,-0.279 0.45181,-2.935 1.51409,-2.829 0.85778,0.09 0.8607,1.566 0.89294,2.427 0.18394,4.915 -2.49667,9.441 -6.21165,12.485 -0.2603,0.214 0.55527,-0.397 0.87351,-0.506 0.89908,-0.309 1.79599,-0.667 2.73702,-0.803 0.97861,-0.142 6.21428,-0.725 4.40637,0.785"
       id="path3025" /><path
       style="fill:none;stroke:#e3dbdb;stroke-width:0.499999;stroke-dasharray:none"
       d="m -466.57473,17083.575 c -0.43686,1.06 0.43246,10.019 -1.02881,9.115"
       id="path3027" /><path
       style="fill:none;stroke:#e3dbdb;stroke-width:0.499999;stroke-dasharray:none"
       d="m -467.17649,17088.255 c 0.56065,0.118 4.53545,-0.565 3.72698,1.17"
       id="path3029" /><path
       style="fill:none;stroke:#e3dbdb;stroke-width:0.499999;stroke-dasharray:none"
       d="m -452.3462,17085.426 c 0.0323,0.879 0.0471,1.759 0.097,2.637 0.0272,0.478 -0.0696,1.425 0.40764,1.379 2.0851,-0.202 5.34192,-3.113 5.43519,1.921 0.0147,0.795 -0.0716,1.619 -0.3688,2.357 -2.08362,5.172 -3.18297,1.873 -4.23169,-1.083"
       id="path3031" /><path
       style="fill:none;stroke:#e3dbdb;stroke-width:0.499999;stroke-dasharray:none"
       d="m -447.8816,17082.772 c 2.19997,0.05 2.19997,0.05 0,0 z"
       id="path3033" /><path
       style="fill:none;stroke:#e3dbdb;stroke-width:0.499999;stroke-dasharray:none"
       d="m -438.25354,17092.253 c 0.29538,0.1 -1.20139,11.124 -0.65999,8.364"
       id="path3035" /><path
       style="fill:none;stroke:#e3dbdb;stroke-width:0.499999;stroke-dasharray:none"
       d="m -428.85844,17084.239 c 0.32999,-0.827 0.50149,-1.736 0.98997,-2.48 0.53685,-0.818 2.46581,-1.599 2.50408,0.105 0.0654,2.911 -1.43993,5.697 -2.5429,8.294 -0.33749,0.794 -1.34732,2.217 -0.54351,2.532 1.01517,0.397 4.14435,-0.188 5.04696,-0.349 2.36051,-0.422 1.77975,-0.181 2.77581,-0.629"
       id="path3037" /><path
       style="fill:none;stroke:#e3dbdb;stroke-width:0.499999;stroke-dasharray:none"
       d="m -451.29799,17082.283 c 2.10947,0.551 6.17353,-1.501 7.82279,0.332"
       id="path3039" /><path
       style="fill:none;stroke:#e3dbdb;stroke-width:0.499999;stroke-dasharray:none"
       d="m -466.78826,17129.847 c 0.40075,0.618 1.29027,2.628 2.54288,2.48 1.71938,-0.204 2.68213,-3.993 2.30996,-5.308 -0.45244,-1.599 -2.59597,-3.325 -4.34815,-3.004 -1.77021,0.325 -2.42294,1.51 -2.58172,1.135 -0.36439,-0.86 1.11651,-4.611 0.77647,-5.936 -0.23659,-0.923 -1.02233,-1.607 -1.5335,-2.41 1.04821,-0.745 1.94502,-1.772 3.14463,-2.235 0.83966,-0.325 4.37485,-0.669 4.83343,0.733"
       id="path3041" /><path
       style="fill:none;stroke:#e3dbdb;stroke-width:0.499999;stroke-dasharray:none"
       d="m -456.2673,17127.56 c -0.20706,0.838 -0.44987,1.668 -0.62117,2.514 -0.35809,1.769 -0.6232,3.556 -0.87351,5.344 -0.20069,1.433 -0.31758,2.727 -0.21353,2.654 0.20475,-0.144 0.10354,-0.489 0.1553,-0.734"
       id="path3043" /><path
       style="fill:none;stroke:#e3dbdb;stroke-width:0.499999;stroke-dasharray:none"
       d="m -451.88033,17119.563 c 0.77645,-0.891 1.5251,-1.806 2.32937,-2.672 3.55831,-3.829 1.47981,3.135 1.12585,4.278 -0.15087,0.488 -2.43061,5.877 -2.34878,6.024 0.0964,0.174 7.4216,-1.16 6.65811,0.02"
       id="path3045" /><path
       style="fill:none;stroke:#e3dbdb;stroke-width:0.499999;stroke-dasharray:none"
       d="m -427.71317,17113.591 c 0.0841,0.774 0.17633,1.547 0.25234,2.322 0.69195,7.055 -0.15692,-0.943 0.58235,5.937 0.0638,0.594 0.12222,1.188 0.19412,1.781 0.0446,0.368 0.0913,0.736 0.15527,1.1 0.0138,0.08 0.0995,0.304 0.0777,0.227 -0.10589,-0.373 -0.22,-0.745 -0.33001,-1.117"
       id="path3047" /><path
       style="fill:none;stroke:#e3dbdb;stroke-width:0.499999;stroke-dasharray:none"
       d="m -432.0031,17119.353 c 0.94229,0.476 11.53542,-1.778 10.32687,-0.07"
       id="path3049" /><path
       style="fill:none;stroke:#e3dbdb;stroke-width:0.499999;stroke-dasharray:none"
       d="m -471.09759,17088.482 c -0.48529,-0.123 -1.33363,-0.852 -1.45586,-0.367 -0.12223,0.485 0.95922,0.428 1.45586,0.367 8.87849,-1.101 -3.37784,-0.821 4.42579,-0.821 1.80073,0 1.42559,0 2.89231,-0.07 0.29782,-0.01 1.18987,-0.03 0.89292,-0.05 -1.71473,-0.155 -5.2488,0.725 -6.38636,0.384 -0.0808,-0.02 1.57839,-0.105 1.59175,-0.105 1.14764,-0.03 1.02515,-0.02 1.88289,0.05"
       id="path3051" /><path
       style="fill:none;stroke:#e3dbdb;stroke-width:0.499999;stroke-dasharray:none"
       d="m -467.93355,17083.069 c 1.24615,8.946 0.91605,4.539 1.08704,10.634 0.0201,0.716 0.0366,1.432 0.0777,2.147 0.0108,0.188 0.0583,0.746 0.0776,0.559 0.0449,-0.434 0,-0.873 0,-1.31"
       id="path3053" /><path
       style="fill:none;stroke:#e3dbdb;stroke-width:0.499999;stroke-dasharray:none"
       d="m -444.62049,17056.754 c -0.27058,2.008 0.24822,1.855 -1.94114,2.497 -1.21457,0.357 -2.46442,0.583 -3.70757,0.821 -0.53048,0.102 -2.28191,0.306 -3.02815,0.384 -0.13564,0.02 -0.37113,0.167 -0.40765,0.04 -0.008,-0.03 0.95971,-0.257 2.34876,-0.401 2.80751,-0.293 5.62734,-0.227 8.44396,-0.123 0.32023,0.01 1.16413,-0.1 0.95117,0.14 -0.51767,0.582 -1.54967,0.207 -2.09644,0.05"
       id="path3055" /><path
       style="fill:none;stroke:#e3dbdb;stroke-width:0.499999;stroke-dasharray:none"
       d="m -446.21222,17053.402 c -1.556,2.434 -3.32472,14.429 -0.42705,15.733 0.69869,0.314 0.43827,-1.237 0.38824,-1.432"
       id="path3057" /><path
       style="fill:none;stroke:#e3dbdb;stroke-width:0.499999;stroke-dasharray:none"
       d="m -450.28861,17059.182 c 0.65929,0.829 9.94676,-0.445 9.1816,0.855"
       id="path3059" /></g></svg>
