<?xml version="1.0" encoding="UTF-8" standalone="no"?>
<!-- Created with Inkscape (http://www.inkscape.org/) -->

<svg
   width="257.52621mm"
   height="359.02109mm"
   viewBox="0 0 257.52621 359.02109"
   version="1.1"
   id="svg12"
   inkscape:version="1.2.1 (9c6d41e410, 2022-07-14, custom)"
   sodipodi:docname="prims_algorithm.svg"
   xml:space="preserve"
   xmlns:inkscape="http://www.inkscape.org/namespaces/inkscape"
   xmlns:sodipodi="http://sodipodi.sourceforge.net/DTD/sodipodi-0.dtd"
   xmlns="http://www.w3.org/2000/svg"
   xmlns:svg="http://www.w3.org/2000/svg"><sodipodi:namedview
     id="namedview14"
     pagecolor="#000000"
     bordercolor="#ffffff"
     borderopacity="1"
     inkscape:showpageshadow="0"
     inkscape:pageopacity="0"
     inkscape:pagecheckerboard="0"
     inkscape:deskcolor="#000000"
     inkscape:document-units="mm"
     showgrid="true"
     inkscape:zoom="0.64"
     inkscape:cx="262.5"
     inkscape:cy="551.5625"
     inkscape:window-width="1366"
     inkscape:window-height="746"
     inkscape:window-x="1360"
     inkscape:window-y="0"
     inkscape:window-maximized="1"
     inkscape:current-layer="layer1"
     inkscape:lockguides="true"><inkscape:grid
       type="xygrid"
       id="grid344"
       color="#969696"
       opacity="0.39215686"
       empcolor="#ffffff"
       empopacity="0.17254902"
       dotted="false"
       originx="-15901.825"
       originy="-31544.435" /></sodipodi:namedview><defs
     id="defs9" /><g
     inkscape:label="Layer 1"
     inkscape:groupmode="layer"
     id="layer1"
     transform="translate(-16006.826,-31692.934)"><path
       style="fill:none;stroke:#00ffff;stroke-width:0.499999"
       d="m 16034.74,31702.455 c 0.169,2.066 1.01,3.648 2.041,5.389 0.271,0.455 0.563,0.9 0.843,1.35 0.104,0.166 0.206,0.333 0.311,0.5 0.02,0.03 0.09,0.135 0.07,0.1 -0.09,-0.151 -0.192,-0.301 -0.288,-0.45"
       id="path1145" /><path
       style="fill:none;stroke:#00ffff;stroke-width:0.499999"
       d="m 16031.635,31704.545 c -4.134,-1.4 7.133,-2.503 8.895,-2.072 0.26,0.06 0.207,0.495 0.311,0.741"
       id="path1147" /><path
       style="fill:none;stroke:#00ffff;stroke-width:0.499999"
       d="m 16033.764,31708.664 c 3.519,0.9 7.016,-0.523 10.537,-0.841"
       id="path1149" /><path
       style="fill:none;stroke:#00ffff;stroke-width:0.499999"
       d="m 16043.081,31704.034 c 0.444,0.397 0.916,0.765 1.331,1.191 0.393,0.402 0.721,0.862 1.087,1.288 0.351,0.408 0.714,0.805 1.065,1.21 0.107,0.124 0.156,0.433 0.311,0.381 0.162,-0.06 0.04,-0.342 0.07,-0.511 0.154,-0.868 0.253,-2.903 1.22,-3.329 0.551,-0.243 2.331,2.522 2.884,2.98"
       id="path1151" /><path
       style="fill:none;stroke:#00ffff;stroke-width:0.499999"
       d="m 16059.785,31701.653 c -0.443,-0.743 -0.839,-1.516 -1.331,-2.228 -0.1,-0.145 -0.249,-0.283 -0.421,-0.312 -0.08,0 -0.104,0.161 -0.07,0.23 0.889,1.701 2.574,3.061 3.638,4.63 0.7,1.032 0.709,0.85 0.222,1.36"
       id="path1153" /><path
       style="fill:none;stroke:#00ffff;stroke-width:0.499999"
       d="m 16056.902,31703.905 c -0.957,-2.522 -0.984,-1.127 2.373,-2.8 1.229,-0.613 1.329,-0.489 1.797,-1.32 0.04,-0.07 0.02,-0.177 0.09,-0.22 0.261,-0.172 3.715,2.839 4.126,3.239 0.544,0.532 1.033,1.101 0.887,1.14 -0.584,0.159 -0.363,-2.466 0.04,-2.95 0.839,-1 2.5,1.204 3.194,1.371 0.525,0.124 4.059,-2.292 2.351,-2.461 -1.045,-0.103 -4.501,0.894 -3.926,2.62 0.382,1.148 7.889,0.55 8.651,0.251"
       id="path1155" /><path
       style="fill:none;stroke:#00ffff;stroke-width:0.499999"
       d="m 16085.429,31696.615 c 0.666,2.215 2.566,3.53 4.259,4.93"
       id="path1157" /><path
       style="fill:none;stroke:#00ffff;stroke-width:0.499999"
       d="m 16084.165,31699.753 c 0.403,-2.513 3.81,-1.122 4.902,-2.508 0.352,-0.447 -0.258,-1.119 -0.02,-1.611 0.768,-1.598 4.916,1.386 5.48,1.831 0.532,0.42 1.281,0.844 1.353,1.518 0,0.06 -0.247,0.101 -0.533,-0.378 -0.161,-0.272 -1.329,-2.177 -0.687,-2.63 0.316,-0.222 3.121,0.55 3.904,0.339 0.489,-0.13 0.963,-0.323 1.42,-0.54 0.394,-0.188 0.127,-0.577 -0.2,-0.609 -0.313,-0.03 -1.981,0.397 -1.375,1.001 1.172,1.164 4.025,1.352 5.545,0.828 1.274,-0.437 -1.676,-0.794 -0.399,-1.77 0.816,-0.622 3.407,-0.651 3.971,-1.458 0.228,-0.328 -0.645,-0.593 -1.043,-0.582 -1.295,0.04 -3.579,0.344 -4.658,1.241 -0.277,0.23 -0.438,0.791 -0.2,1.061 1.385,1.563 8.694,1.166 11.181,0.989"
       id="path1159" /><path
       style="fill:none;stroke:#00ffff;stroke-width:0.499999"
       d="m 16131.216,31696.623 c 0.377,0.03 0.754,0.06 1.131,0.09 0.02,0 0.05,0 0.07,0"
       id="path1161" /><path
       style="fill:none;stroke:#ff00ff;stroke-width:0.499999"
       d="m 16201.249,31722.113 c 2.453,-1.352 4.827,-2.802 7.187,-4.31"
       id="path1163" /><g
       id="g1635"><path
         style="fill:none;stroke:#ffb380;stroke-width:0.499999"
         d="m 16058.259,31746.704 c -2.012,0.545 -3.611,1.833 -5.301,0.1 -0.613,-0.628 -1.098,-1.424 -1.331,-2.271 -0.875,-3.161 0.32,-6.731 3.482,-8.149 1.219,-0.545 2.644,-0.95 3.949,-0.669 2.056,0.444 4.027,1.45 5.679,2.749 0.92,0.725 1.616,1.902 1.708,3.072 0.356,4.516 -6.091,7.506 -9.716,7.559 -1.647,0.03 -3.397,-0.209 -4.836,-1.011 -3.173,-1.765 -2.737,-3.299 -2.973,-6.088"
         id="path1012" /><path
         style="fill:none;stroke:#ffb380;stroke-width:0.499999"
         d="m 16063.739,31739.674 c 9.357,-3.736 18.62,-7.681 27.862,-11.69 1.254,-0.545 5.343,-2.272 6.766,-2.95 0.09,-0.04 -0.209,0.03 -0.311,0.05 -0.557,0.148 -1.109,0.32 -1.663,0.478"
         id="path1014" /><path
         style="fill:none;stroke:#ffb380;stroke-width:0.499999"
         d="m 16071.104,31719.055 c 0.07,-1.437 3.279,-2.916 3.704,-0.871 0.536,2.583 -0.02,3.207 -1.02,5.08 -0.128,0.238 -0.342,0.445 -0.4,0.709 -0.02,0.08 0.143,0.135 0.222,0.111 0.928,-0.277 1.808,-0.695 2.729,-0.989 1.936,-0.622 4.66,-1.638 6.788,-1.331"
         id="path1016" /><path
         style="fill:none;stroke:#ffb380;stroke-width:0.499999"
         d="m 16061.897,31747.003 c 1.176,0.73 2.364,1.439 3.528,2.19 4.465,2.876 4.139,2.845 8.563,5.628 4.244,2.672 8.568,5.138 12.666,8.041 3.575,2.532 6.631,4.995 10.582,6.94"
         id="path1018" /><path
         style="fill:none;stroke:#ffb380;stroke-width:0.499999"
         d="m 16091.068,31754.033 c 0.156,-0.715 0.01,-1.569 0.466,-2.141 0.44,-0.553 1.228,-0.799 1.931,-0.87 2.199,-0.225 3.888,4.228 2.306,4.971 -0.507,0.238 -0.06,-1.22 1.265,-1.071 1.803,0.206 3.542,1.857 4.015,3.569 0.844,3.053 -3.179,4.106 -5.435,3.341 -1.255,-0.425 -1.642,-0.862 -2.484,-1.611"
         id="path1020" /><path
         style="fill:none;stroke:#ffb380;stroke-width:0.499999"
         d="m 16106.841,31774.89 c -2.669,1.555 -2.475,2.492 -4.814,-0.429 -1.042,-1.302 -2.165,-2.656 -2.618,-4.26 -3.306,-11.713 16.51,-3.757 11.314,3.019 -0.628,0.82 -1.524,1.471 -2.484,1.85 -3.689,1.463 -8.369,1.071 -11.913,-0.609 -1.453,-0.691 -3.025,-1.751 -1.73,-3.371"
         id="path1022" /><path
         style="fill:none;stroke:#ffb380;stroke-width:0.499999"
         d="m 16114.938,31767.942 c 2.088,-0.582 5.686,-1.593 7.453,-2.04 9.625,-2.437 19.367,-4.022 29.15,-5.649 0.838,-0.14 1.678,-0.281 2.506,-0.471 0.134,-0.03 2.577,-1.257 1.553,-0.73"
         id="path1024" /><path
         style="fill:none;stroke:#ffb380;stroke-width:0.499999"
         d="m 16132.951,31752.223 c -0.606,0.357 -1.169,0.799 -1.819,1.069 -0.408,0.169 -4.681,1.987 -5.48,0.791 -0.686,-1.029 1.977,-3.21 2.418,-3.651 0.417,-0.418 0.846,-0.823 1.265,-1.239 0.433,-0.431 0.726,-0.756 0.732,-0.74 0.77,2.211 -1.471,-1.755 0.333,1.92 1.254,2.554 3.361,4.57 5.102,6.779"
         id="path1026" /><path
         style="fill:none;stroke:#ffb380;stroke-width:0.499999"
         d="m 16165.427,31761.621 c -0.577,0.27 -1.109,0.669 -1.73,0.809 -2.098,0.477 -5.103,-0.616 -5.812,-2.828 -1.962,-6.122 6.254,-12.927 10.892,-7.231 0.633,0.778 1.374,1.709 1.309,2.712 -0.118,1.807 -0.769,3.643 -1.819,5.12 -0.614,0.86 -1.87,0.994 -2.84,1.418 -2.864,1.249 -3.567,2.077 -6.3,-0.159 -1.746,-1.429 -2.041,-4.101 -2.551,-6.03"
         id="path1028" /><path
         style="fill:none;stroke:#ffb380;stroke-width:0.499999"
         d="m 16104.09,31725.675 c -3.052,1.534 -7.001,0.1 -7.409,-3.932 -0.123,-1.212 0.766,-2.355 1.486,-3.339 1.024,-1.395 4.193,-4.025 6.256,-3.789 3.181,0.362 5.104,2.048 4.792,5.159 -0.354,3.533 -2.283,4.226 -5.125,5.901 -1.204,0.709 -2.399,1.516 -3.749,1.878 -0.781,0.212 -2.069,0.511 -2.418,-0.22 -0.584,-1.222 0.252,-2.698 0.377,-4.05"
         id="path1030" /><path
         style="fill:none;stroke:#ffb380;stroke-width:0.499999"
         d="m 16110.657,31720.084 c 8.524,-0.691 16.694,2.479 25.022,3.63 3.189,0.442 6.4,0.714 9.606,1.011 1.135,0.103 2.277,0.124 3.416,0.19 1.24,0.07 2.442,0 2.396,0.36 -0.02,0.116 -0.222,0.08 -0.333,0.119"
         id="path1032" /><path
         style="fill:none;stroke:#ffb380;stroke-width:0.499999"
         d="m 16127.117,31709.964 c -0.06,0.584 -1.007,2.571 -0.688,2.971 0.619,0.772 3.855,-0.931 4.525,0.151 1.729,2.788 -2.549,5.815 -4.88,5.667 -0.526,-0.03 -0.769,-0.72 -1.154,-1.079"
         id="path1034" /><path
         style="fill:none;stroke:#ffb380;stroke-width:0.499999"
         d="m 16125.098,31709.204 c 3.896,-1.529 8.014,-2.228 12.201,-1.91"
         id="path1036" /><path
         style="fill:none;stroke:#ffb380;stroke-width:0.499999"
         d="m 16155.955,31729.625 c -0.614,-0.08 -1.276,0 -1.841,-0.252 -2.261,-1.01 -1.85,-4.408 -1.087,-6.109 1.23,-2.746 3.172,-4.151 6.433,-4.421 2.622,-0.214 4.964,4.167 4.947,6.292 0,1.032 -0.217,2.13 -0.777,2.998 -3.244,5.042 -11.471,3.193 -11.535,-3.138 0,-0.58 0.325,-1.114 0.488,-1.67"
         id="path1038" /><path
         style="fill:none;stroke:#ffb380;stroke-width:0.499999"
         d="m 16104.356,31725.225 c 2.589,3.603 6.994,4.979 10.249,7.757 1.214,1.037 1.402,2.297 3.305,2.051"
         id="path1040" /><path
         style="fill:none;stroke:#ffb380;stroke-width:0.499999"
         d="m 16120.617,31736.364 c -0.298,-1.778 -0.938,-2.106 -2.751,-1.651 -1.798,0.452 -5.857,3.138 -3.172,5.22 2.912,2.257 8.808,1.495 11.801,-0.23 1.227,-0.707 2.134,-1.678 1.487,-3.191 -1.604,-3.744 -7.847,-2.556 -10.471,-2.289 -0.772,0.08 -1.524,0.312 -2.263,0.551 -0.152,0.05 -0.487,0.182 -0.377,0.299 0.09,0.1 0.944,0.105 1.176,0.111"
         id="path1042" /><path
         style="fill:none;stroke:#ffb380;stroke-width:0.499999"
         d="m 16136.922,31734.654 c -0.05,-1.322 -0.72,-1.51 -1.997,-0.949 -1.178,0.516 -4.104,2.296 -3.194,4.127 1.11,2.236 4.258,2.077 6.256,1.791 1.591,-0.227 3.113,-0.69 2.728,-1.399 -0.228,-0.421 -0.882,-0.395 -1.353,-0.471 -1.764,-0.286 -3.545,-0.453 -5.324,-0.609 -1.03,-0.09 -3.51,-0.301 -2.596,0.249"
         id="path1044" /><path
         style="fill:none;stroke:#ffb380;stroke-width:0.499999"
         d="m 16159.948,31731.363 c 0.03,4.9 1.359,9.689 2.618,14.391 0.506,1.889 1.154,3.746 1.441,5.688"
         id="path1046" /><path
         style="fill:none;stroke:#ffb380;stroke-width:0.499999"
         d="m 16167.779,31737.033 c 0.562,-0.317 1.102,-0.675 1.686,-0.95 0.543,-0.256 1.116,-0.447 1.686,-0.64 0.02,0 2.464,-0.807 2.706,-0.699 0.424,0.186 -0.543,1.342 -0.843,2.408 -0.397,1.416 -0.762,2.855 -0.887,4.321 -0.117,1.36 0.829,3.815 2.351,4.109"
         id="path1048" /><path
         style="fill:none;stroke:#ffb380;stroke-width:0.499999"
         d="m 16168.666,31741.923 c -0.04,-0.331 -0.426,-0.887 -0.111,-0.99 2.591,-0.86 7.934,-1.352 10.914,-1.22 0.673,0.03 1.317,0.286 1.975,0.429"
         id="path1050" /><path
         style="fill:none;stroke:#ffb380;stroke-width:0.499999"
         d="m 16120.572,31741.632 c 0.02,0.6 0.159,1.211 0.05,1.801 -0.127,0.654 -0.437,1.265 -0.754,1.85 -2.718,5.008 -4.574,6.755 -8.452,10.678 -1.479,1.498 -3.657,3.416 -5.08,5.34 -0.1,0.135 0.23,-0.238 0.333,-0.368 0.326,-0.418 0.635,-0.847 0.953,-1.27"
         id="path1052" /><path
         style="fill:none;stroke:#ffb380;stroke-width:0.499999"
         d="m 16104.778,31743.322 c -0.325,-0.06 -0.663,-0.275 -0.976,-0.169 -1.304,0.442 -3.911,2.638 -1.575,3.77 0.929,0.45 3.824,1.032 4.681,1.551 1.477,0.894 3.196,1.775 1.419,3.098 -0.477,0.354 -1.071,0.593 -1.663,0.651 -0.486,0.05 -1.246,0.103 -1.42,-0.352 -1.266,-3.297 1.15,-4.567 2.64,-6.84 0.261,-0.396 0.541,-0.833 0.576,-1.309 0.08,-1.077 -6.539,-0.969 -7.187,-0.238 -0.186,0.209 0.482,0.301 0.754,0.367"
         id="path1054" /><path
         style="fill:none;stroke:#ffb380;stroke-width:0.499999"
         d="m 16108.261,31755.681 c -1.317,2.45 -2.952,4.683 -4.748,6.8 -0.395,0.468 -1.133,0.783 -1.197,1.391 0,0.08 0.869,0.08 1.73,-0.56 2.298,-1.728 4.48,-3.604 6.522,-5.631 2.975,-2.95 5.652,-6.178 8.163,-9.527 1.948,-2.599 3.652,-5.983 6.633,-7.57 1.515,-0.807 -1.345,0.712 -2.041,0.91"
         id="path1056" /><path
         style="fill:none;stroke:#ffb380;stroke-width:0.499999"
         d="m 16121.704,31743.222 c -0.126,0.291 -0.137,0.664 -0.377,0.87 -0.73,0.625 -2.187,0.558 -2.973,0.371 -2.866,-0.683 -5.54,-2.337 -5.368,-5.71 0.05,-0.881 0.248,-1.868 0.865,-2.5 1.094,-1.12 2.53,-1.913 3.993,-2.469 3.81,-1.453 11.46,2.077 9.65,6.699 -1.212,3.091 -3.033,2.12 -5.79,2.739 -0.995,0.225 -1.886,0.971 -2.906,0.96 -2.946,-0.03 -5.08,-3.514 -4.326,-6.188 0.206,-0.731 0.902,-1.22 1.353,-1.831"
         id="path1058" /><path
         style="fill:none;stroke:#00ffff;stroke-width:0.499999"
         d="m 16053.396,31747.069 c 1.348,-2.299 2.835,-4.49 3.993,-6.909 0.693,-1.447 1.286,-2.936 0.821,-2.989 -0.28,-0.03 -0.414,0.386 -0.599,0.598"
         id="path1123" /><path
         style="fill:none;stroke:#00ffff;stroke-width:0.499999"
         d="m 16056.081,31745.468 c -0.09,0.302 -0.567,0.812 -0.267,0.902 0.3,0.09 0.117,-0.627 0.267,-0.902 0.515,-0.947 4.711,-7.123 5.723,-7.149 0.119,0 -0.691,1.773 -0.732,1.871"
         id="path1125" /><path
         style="fill:none;stroke:#00ffff;stroke-width:0.499999"
         d="m 16059.253,31744.82 c -0.148,0.32 -0.764,0.812 -0.444,0.96 0.32,0.146 0.179,-0.727 0.444,-0.96 0.881,-0.773 1.971,-1.273 2.906,-1.982 1.027,-0.775 1.64,-1.55 2.64,-2.249 0.373,-0.262 -0.515,0.754 -0.799,1.111"
         id="path1127" /><path
         style="fill:none;stroke:#00ffff;stroke-width:0.499999"
         d="m 16061.76,31745.248 c -0.474,0.596 -2.013,1.307 -1.42,1.781 0.593,0.474 0.915,-1.214 1.42,-1.781 1.049,-1.177 2.182,-2.278 3.238,-3.45 0.377,-0.415 1.405,-1.484 0.843,-1.458 -2.539,0.117 -5.382,2.218 -7.498,3.361 -0.1,0.05 -3.264,1.923 -3.971,1.878 -0.176,0 -0.06,-0.373 0.02,-0.529 0.297,-0.561 0.703,-1.056 1.087,-1.561 1.296,-1.704 2.854,-3.167 4.215,-4.81 0.25,-0.302 0.782,-1.199 0.399,-1.109 -3.702,0.868 -6.802,4.924 -9.384,7.459 -0.32,0.315 0.485,-0.757 0.732,-1.13 0.487,-0.736 4.015,-6.022 3.261,-6.559 -1.142,-0.815 -3.958,3.553 -4.259,4.008 -0.269,0.408 -0.499,0.842 -0.71,1.281 -0.05,0.103 -0.175,0.378 -0.07,0.341 1.606,-0.574 4.623,-6.604 4.924,-8.22 0.06,-0.336 -0.744,0.108 -0.954,0.381 -0.683,0.878 -1.227,1.86 -1.841,2.788"
         id="path1129" /><path
         style="fill:none;stroke:#00ffff;stroke-width:0.499999"
         d="m 16052.221,31746.148 c 2.865,-2.593 5.433,-5.548 8.784,-7.538"
         id="path1131" /><path
         style="fill:none;stroke:#00ffff;stroke-width:0.499999"
         d="m 16058.721,31747.249 c 2.251,-0.686 4.26,-1.932 6.477,-2.689"
         id="path1133" /><path
         style="fill:none;stroke:#ff00ff;stroke-width:0.499999"
         d="m 16086.494,31716.983 c 0.141,0.357 0.422,0.688 0.422,1.069 0,0.698 -0.281,1.368 -0.422,2.05 -0.228,1.104 -0.543,2.194 -0.688,3.31 -0.247,1.911 -0.401,3.837 -0.488,5.76 -0.335,7.477 0.447,14.931 -0.887,22.36 -1.076,5.993 -3.964,12.018 -7.786,16.738 -5.349,6.604 -3.587,5.686 -8.142,7.13"
         id="path1230" /></g><path
       style="fill:none;stroke:#ffb380;stroke-width:0.499999"
       d="m 16064.559,31985.097 c -2.012,0.545 -3.611,1.833 -5.301,0.1 -0.613,-0.628 -1.098,-1.424 -1.331,-2.271 -0.875,-3.161 0.32,-6.731 3.482,-8.149 1.219,-0.545 2.644,-0.95 3.949,-0.669 2.056,0.444 4.027,1.45 5.679,2.749 0.92,0.725 1.616,1.902 1.708,3.072 0.356,4.516 -6.091,7.506 -9.716,7.559 -1.647,0.03 -3.397,-0.209 -4.836,-1.011 -3.173,-1.765 -2.737,-3.299 -2.973,-6.088"
       id="path1012-6" /><path
       style="fill:none;stroke:#ffb380;stroke-width:0.499999"
       d="m 16070.039,31978.067 c 9.357,-3.736 18.62,-7.681 27.862,-11.69 1.254,-0.545 5.343,-2.272 6.766,-2.95 0.09,-0.04 -0.209,0.03 -0.311,0.05 -0.557,0.148 -1.109,0.32 -1.663,0.478"
       id="path1014-7" /><path
       style="fill:none;stroke:#ffb380;stroke-width:0.499999"
       d="m 16077.404,31957.448 c 0.07,-1.437 3.279,-2.916 3.704,-0.871 0.536,2.583 -0.02,3.207 -1.02,5.08 -0.128,0.238 -0.342,0.445 -0.4,0.709 -0.02,0.08 0.143,0.135 0.222,0.111 0.928,-0.277 1.808,-0.695 2.729,-0.989 1.936,-0.622 4.66,-1.638 6.788,-1.331"
       id="path1016-5" /><path
       style="fill:none;stroke:#ffb380;stroke-width:0.499999"
       d="m 16068.197,31985.396 c 1.176,0.73 2.364,1.439 3.528,2.19 4.465,2.876 4.139,2.845 8.563,5.628 4.244,2.672 8.568,5.138 12.666,8.041 3.575,2.532 6.631,4.995 10.582,6.94"
       id="path1018-3" /><path
       style="fill:none;stroke:#ffb380;stroke-width:0.499999"
       d="m 16097.368,31992.426 c 0.156,-0.715 0.01,-1.569 0.466,-2.141 0.44,-0.553 1.228,-0.799 1.931,-0.87 2.199,-0.225 3.888,4.228 2.306,4.971 -0.507,0.238 -0.06,-1.22 1.265,-1.071 1.803,0.206 3.542,1.857 4.015,3.569 0.844,3.053 -3.179,4.106 -5.435,3.341 -1.255,-0.425 -1.642,-0.862 -2.484,-1.611"
       id="path1020-5" /><path
       style="fill:none;stroke:#ffb380;stroke-width:0.499999"
       d="m 16113.141,32013.283 c -2.669,1.555 -2.475,2.492 -4.814,-0.429 -1.042,-1.302 -2.165,-2.656 -2.618,-4.26 -3.306,-11.713 16.51,-3.757 11.314,3.019 -0.628,0.82 -1.524,1.471 -2.484,1.85 -3.689,1.463 -8.369,1.071 -11.913,-0.609 -1.453,-0.691 -3.025,-1.751 -1.73,-3.371"
       id="path1022-6" /><path
       style="fill:none;stroke:#ffb380;stroke-width:0.499999"
       d="m 16121.238,32006.335 c 2.088,-0.582 5.686,-1.593 7.453,-2.04 9.625,-2.437 19.367,-4.022 29.15,-5.649 0.838,-0.14 1.678,-0.281 2.506,-0.471 0.134,-0.03 2.577,-1.257 1.553,-0.73"
       id="path1024-2" /><path
       style="fill:none;stroke:#ffb380;stroke-width:0.499999"
       d="m 16139.251,31990.616 c -0.606,0.357 -1.169,0.799 -1.819,1.069 -0.408,0.169 -4.681,1.987 -5.48,0.791 -0.686,-1.029 1.977,-3.21 2.418,-3.651 0.417,-0.418 0.846,-0.823 1.265,-1.239 0.433,-0.431 0.726,-0.756 0.732,-0.74 0.77,2.211 -1.471,-1.755 0.333,1.92 1.254,2.554 3.361,4.57 5.102,6.779"
       id="path1026-9" /><path
       style="fill:none;stroke:#ffb380;stroke-width:0.499999"
       d="m 16171.727,32000.014 c -0.577,0.27 -1.109,0.669 -1.73,0.809 -2.098,0.477 -5.103,-0.616 -5.812,-2.828 -1.962,-6.122 6.254,-12.927 10.892,-7.231 0.633,0.778 1.374,1.709 1.309,2.712 -0.118,1.807 -0.769,3.643 -1.819,5.12 -0.614,0.86 -1.87,0.994 -2.84,1.418 -2.864,1.249 -3.567,2.077 -6.3,-0.159 -1.746,-1.429 -2.041,-4.101 -2.551,-6.03"
       id="path1028-1" /><path
       style="fill:none;stroke:#ffb380;stroke-width:0.499999"
       d="m 16110.39,31964.068 c -3.052,1.534 -7.001,0.1 -7.409,-3.932 -0.123,-1.212 0.766,-2.355 1.486,-3.339 1.024,-1.395 4.193,-4.025 6.256,-3.789 3.181,0.362 5.104,2.048 4.792,5.159 -0.354,3.533 -2.283,4.226 -5.125,5.901 -1.204,0.709 -2.399,1.516 -3.749,1.878 -0.781,0.212 -2.069,0.511 -2.418,-0.22 -0.584,-1.222 0.252,-2.698 0.377,-4.05"
       id="path1030-2" /><path
       style="fill:none;stroke:#ffb380;stroke-width:0.499999"
       d="m 16116.957,31958.477 c 8.524,-0.691 16.694,2.479 25.022,3.63 3.189,0.442 6.4,0.714 9.606,1.011 1.135,0.103 2.277,0.124 3.416,0.19 1.24,0.07 2.442,0 2.396,0.36 -0.02,0.116 -0.222,0.08 -0.333,0.119"
       id="path1032-7" /><path
       style="fill:none;stroke:#ffb380;stroke-width:0.499999"
       d="m 16133.417,31948.357 c -0.06,0.584 -1.007,2.571 -0.688,2.971 0.619,0.772 3.855,-0.931 4.525,0.151 1.729,2.788 -2.549,5.815 -4.88,5.667 -0.526,-0.03 -0.769,-0.72 -1.154,-1.079"
       id="path1034-0" /><path
       style="fill:none;stroke:#ffb380;stroke-width:0.499999"
       d="m 16131.398,31947.597 c 3.896,-1.529 8.014,-2.228 12.201,-1.91"
       id="path1036-9" /><path
       style="fill:none;stroke:#ffb380;stroke-width:0.499999"
       d="m 16162.255,31968.018 c -0.614,-0.08 -1.276,0 -1.841,-0.252 -2.261,-1.01 -1.85,-4.408 -1.087,-6.109 1.23,-2.746 3.172,-4.151 6.433,-4.421 2.622,-0.214 4.964,4.167 4.947,6.292 0,1.032 -0.217,2.13 -0.777,2.998 -3.244,5.042 -11.471,3.193 -11.535,-3.138 0,-0.58 0.325,-1.114 0.488,-1.67"
       id="path1038-3" /><path
       style="fill:none;stroke:#ffb380;stroke-width:0.499999"
       d="m 16110.656,31963.618 c 2.589,3.603 6.994,4.979 10.249,7.757 1.214,1.037 1.402,2.297 3.305,2.051"
       id="path1040-6" /><path
       style="fill:none;stroke:#ffb380;stroke-width:0.499999"
       d="m 16126.917,31974.757 c -0.298,-1.778 -0.938,-2.106 -2.751,-1.651 -1.798,0.452 -5.857,3.138 -3.172,5.22 2.912,2.257 8.808,1.495 11.801,-0.23 1.227,-0.707 2.134,-1.678 1.487,-3.191 -1.604,-3.744 -7.847,-2.556 -10.471,-2.289 -0.772,0.08 -1.524,0.312 -2.263,0.551 -0.152,0.05 -0.487,0.182 -0.377,0.299 0.09,0.1 0.944,0.105 1.176,0.111"
       id="path1042-0" /><path
       style="fill:none;stroke:#ffb380;stroke-width:0.499999"
       d="m 16143.222,31973.047 c -0.05,-1.322 -0.72,-1.51 -1.997,-0.949 -1.178,0.516 -4.104,2.296 -3.194,4.127 1.11,2.236 4.258,2.077 6.256,1.791 1.591,-0.227 3.113,-0.69 2.728,-1.399 -0.228,-0.421 -0.882,-0.395 -1.353,-0.471 -1.764,-0.286 -3.545,-0.453 -5.324,-0.609 -1.03,-0.09 -3.51,-0.301 -2.596,0.249"
       id="path1044-6" /><path
       style="fill:none;stroke:#ffb380;stroke-width:0.499999"
       d="m 16166.248,31969.756 c 0.03,4.9 1.359,9.689 2.618,14.391 0.506,1.889 1.154,3.746 1.441,5.688"
       id="path1046-2" /><path
       style="fill:none;stroke:#ffb380;stroke-width:0.499999"
       d="m 16174.079,31975.426 c 0.562,-0.317 1.102,-0.675 1.686,-0.95 0.543,-0.256 1.116,-0.447 1.686,-0.64 0.02,0 2.464,-0.807 2.706,-0.699 0.424,0.186 -0.543,1.342 -0.843,2.408 -0.397,1.416 -0.762,2.855 -0.887,4.321 -0.117,1.36 0.829,3.815 2.351,4.109"
       id="path1048-6" /><path
       style="fill:none;stroke:#ffb380;stroke-width:0.499999"
       d="m 16174.966,31980.316 c -0.04,-0.331 -0.426,-0.887 -0.111,-0.99 2.591,-0.86 7.934,-1.352 10.914,-1.22 0.673,0.03 1.317,0.286 1.975,0.429"
       id="path1050-1" /><path
       style="fill:none;stroke:#ffb380;stroke-width:0.499999"
       d="m 16126.872,31980.025 c 0.02,0.6 0.159,1.211 0.05,1.801 -0.127,0.654 -0.437,1.265 -0.754,1.85 -2.718,5.008 -4.574,6.755 -8.452,10.678 -1.479,1.498 -3.657,3.416 -5.08,5.34 -0.1,0.135 0.23,-0.238 0.333,-0.368 0.326,-0.418 0.635,-0.847 0.953,-1.27"
       id="path1052-8" /><path
       style="fill:none;stroke:#ffb380;stroke-width:0.499999"
       d="m 16111.078,31981.715 c -0.325,-0.06 -0.663,-0.275 -0.976,-0.169 -1.304,0.442 -3.911,2.638 -1.575,3.77 0.929,0.45 3.824,1.032 4.681,1.551 1.477,0.894 3.196,1.775 1.419,3.098 -0.477,0.354 -1.071,0.593 -1.663,0.651 -0.486,0.05 -1.246,0.103 -1.42,-0.352 -1.266,-3.297 1.15,-4.567 2.64,-6.84 0.261,-0.396 0.541,-0.833 0.576,-1.309 0.08,-1.077 -6.539,-0.969 -7.187,-0.238 -0.186,0.209 0.482,0.301 0.754,0.367"
       id="path1054-7" /><path
       style="fill:none;stroke:#ffb380;stroke-width:0.499999"
       d="m 16114.561,31994.074 c -1.317,2.45 -2.952,4.683 -4.748,6.8 -0.395,0.468 -1.133,0.783 -1.197,1.391 0,0.08 0.869,0.08 1.73,-0.56 2.298,-1.728 4.48,-3.604 6.522,-5.631 2.975,-2.95 5.652,-6.178 8.163,-9.527 1.948,-2.599 3.652,-5.983 6.633,-7.57 1.515,-0.807 -1.345,0.712 -2.041,0.91"
       id="path1056-9" /><path
       style="fill:none;stroke:#ffb380;stroke-width:0.499999"
       d="m 16128.004,31981.615 c -0.126,0.291 -0.137,0.664 -0.377,0.87 -0.73,0.625 -2.187,0.558 -2.973,0.371 -2.866,-0.683 -5.54,-2.337 -5.368,-5.71 0.05,-0.881 0.248,-1.868 0.865,-2.5 1.094,-1.12 2.53,-1.913 3.993,-2.469 3.81,-1.453 11.46,2.077 9.65,6.699 -1.212,3.091 -3.033,2.12 -5.79,2.739 -0.995,0.225 -1.886,0.971 -2.906,0.96 -2.946,-0.03 -5.08,-3.514 -4.326,-6.188 0.206,-0.731 0.902,-1.22 1.353,-1.831"
       id="path1058-2" /><path
       style="fill:none;stroke:#00ffff;stroke-width:0.499999"
       d="m 16059.696,31985.462 c 1.348,-2.299 2.835,-4.49 3.993,-6.909 0.693,-1.447 1.286,-2.936 0.821,-2.989 -0.28,-0.03 -0.414,0.386 -0.599,0.598"
       id="path1123-0" /><path
       style="fill:none;stroke:#00ffff;stroke-width:0.499999"
       d="m 16062.381,31983.861 c -0.09,0.302 -0.567,0.812 -0.267,0.902 0.3,0.09 0.117,-0.627 0.267,-0.902 0.515,-0.947 4.711,-7.123 5.723,-7.149 0.119,0 -0.691,1.773 -0.732,1.871"
       id="path1125-2" /><path
       style="fill:none;stroke:#00ffff;stroke-width:0.499999"
       d="m 16065.553,31983.213 c -0.148,0.32 -0.764,0.812 -0.444,0.96 0.32,0.146 0.179,-0.727 0.444,-0.96 0.881,-0.773 1.971,-1.273 2.906,-1.982 1.027,-0.775 1.64,-1.55 2.64,-2.249 0.373,-0.262 -0.515,0.754 -0.799,1.111"
       id="path1127-3" /><path
       style="fill:none;stroke:#00ffff;stroke-width:0.499999"
       d="m 16068.06,31983.641 c -0.474,0.596 -2.013,1.307 -1.42,1.781 0.593,0.474 0.915,-1.214 1.42,-1.781 1.049,-1.177 2.182,-2.278 3.238,-3.45 0.377,-0.415 1.405,-1.484 0.843,-1.458 -2.539,0.117 -5.382,2.218 -7.498,3.361 -0.1,0.05 -3.264,1.923 -3.971,1.878 -0.176,0 -0.06,-0.373 0.02,-0.529 0.297,-0.561 0.703,-1.056 1.087,-1.561 1.296,-1.704 2.854,-3.167 4.215,-4.81 0.25,-0.302 0.782,-1.199 0.399,-1.109 -3.702,0.868 -6.802,4.924 -9.384,7.459 -0.32,0.315 0.485,-0.757 0.732,-1.13 0.487,-0.736 4.015,-6.022 3.261,-6.559 -1.142,-0.815 -3.958,3.553 -4.259,4.008 -0.269,0.408 -0.499,0.842 -0.71,1.281 -0.05,0.103 -0.175,0.378 -0.07,0.341 1.606,-0.574 4.623,-6.604 4.924,-8.22 0.06,-0.336 -0.744,0.108 -0.954,0.381 -0.683,0.878 -1.227,1.86 -1.841,2.788"
       id="path1129-7" /><path
       style="fill:none;stroke:#00ffff;stroke-width:0.499999"
       d="m 16058.521,31984.541 c 2.865,-2.593 5.433,-5.548 8.784,-7.538"
       id="path1131-5" /><path
       style="fill:none;stroke:#00ffff;stroke-width:0.499999"
       d="m 16065.021,31985.642 c 2.251,-0.686 4.26,-1.932 6.477,-2.689"
       id="path1133-9" /><path
       style="fill:none;stroke:#ff00ff;stroke-width:0.499999"
       d="m 16038.297,31795.853 c -0.1,-0.336 -0.198,-0.672 -0.289,-1.011 -0.07,-0.267 -0.147,-0.884 -0.399,-1.109 -1.135,-1.024 -5.613,3.437 -5.235,4.58 0.264,0.799 1.083,1.363 1.841,1.728 0.77,0.373 4.322,0.222 5.124,-0.288 0.36,-0.231 0.592,-0.614 0.888,-0.921"
       id="path1232" /><path
       style="fill:none;stroke:#ff00ff;stroke-width:0.499999"
       d="m 16041.025,31795.374 c -0.281,0.452 -0.884,0.828 -0.843,1.357 0.196,2.5 5.853,1.802 5.502,-1.259 -0.05,-0.395 -0.368,-1.019 -0.555,-1.411"
       id="path1234" /><path
       style="fill:none;stroke:#ff00ff;stroke-width:0.499999"
       d="m 16046.438,31791.252 c 0.407,0.478 0.879,0.904 1.22,1.431 0.464,0.714 1.837,3.524 1.73,4.35 -0.05,0.389 -0.757,0.15 -0.865,0.129"
       id="path1236" /><path
       style="fill:none;stroke:#ff00ff;stroke-width:0.499999"
       d="m 16045.661,31795.562 c -0.443,-0.26 -1.295,-0.268 -1.33,-0.778 -0.03,-0.447 0.804,-0.418 1.242,-0.511 1.044,-0.22 2.108,-0.349 3.172,-0.421 4.192,-0.28 3.151,-0.746 4.77,0.08"
       id="path1238" /><path
       style="fill:none;stroke:#ffccaa;stroke-width:0.499999"
       d="m 16057.159,31815.553 c 0.936,-0.272 1.707,-0.867 2.552,-1.328"
       id="path1240" /><path
       style="fill:none;stroke:#ffccaa;stroke-width:0.499999"
       d="m 16128.324,31805.587 c -2.9,0.441 -1.776,0.03 -3.505,0.849"
       id="path1305" /><path
       style="fill:none;stroke:#ffccaa;stroke-width:0.499999"
       d="m 16055.318,31817.546 c 1.184,-0.966 1.332,-2.691 2.618,-3.572 1.685,-1.151 3.139,-0.931 4.725,0.13 1.155,0.775 1.805,1.725 1.575,1.86 -0.77,0.457 -4.991,-3.559 -5.901,-2.779 -1.113,0.953 -1.519,2.966 -1.774,4.318 -0.04,0.196 0.03,0.649 -0.156,0.572 -0.371,-0.159 -1.119,-0.13 -1.087,-0.529 0.113,-1.389 3.205,-2.384 4.237,-2.651"
       id="path1307" /><path
       style="fill:none;stroke:#ffccaa;stroke-width:0.499999"
       d="m 16070.026,31816.704 c -0.592,-0.03 -1.205,0.09 -1.775,-0.07 -3.773,-1.072 -2.002,-4.734 1.043,-3.54 0.569,0.222 1.102,0.574 1.53,1.008 0.394,0.402 1.059,2.071 0.555,2.611 -0.308,0.328 -0.902,0 -1.353,0 z"
       id="path1309" /><path
       style="fill:none;stroke:#ffccaa;stroke-width:0.499999"
       d="m 16071.069,31811.725 c 0.14,-0.466 0.08,-1.053 0.421,-1.4 0.16,-0.164 0.401,0.244 0.532,0.429 0.581,0.828 2.844,5.501 2.352,6.472 -0.149,0.291 -1.073,-0.162 -1.176,-0.201"
       id="path1311" /><path
       style="fill:none;stroke:#ffccaa;stroke-width:0.499999"
       d="m 16071.756,31816.104 c -0.32,-0.778 -1.445,-0.73 -1.885,-1.368 -0.313,-0.455 1.024,-0.479 1.575,-0.5 2.43,-0.1 4.804,0.479 7.209,0.479 0.183,0 -0.343,-0.125 -0.51,-0.201 -1.038,-0.466 -2.443,-1.101 -2.906,-2.22 -0.854,-2.061 2.742,-3.628 4.015,-4.249 0.304,-0.149 1.004,-0.731 0.932,-0.4 -0.108,0.495 -0.453,0.91 -0.643,1.381 -0.863,2.127 -0.859,3.593 0.909,5.289 0.789,0.757 4.306,1.537 3.926,-0.391 -0.58,-2.955 0.399,-2.281 2.552,-3.329 0.408,-0.198 1.046,-0.221 1.198,-0.649 0.113,-0.32 -0.377,-0.667 -0.71,-0.73 -1.407,-0.266 -4.718,1.534 -4.437,3.269 0.568,3.501 10.702,1.42 10.892,1.4 0.972,-0.1 0.892,-0.07 1.309,-0.42"
       id="path1313" /><path
       style="fill:none;stroke:#ffccaa;stroke-width:0.499999"
       d="m 16112.662,31804.356 c 0.333,-0.03 0.731,-0.27 0.999,-0.07 1.147,0.852 3.153,4.993 3.859,6.321 0.426,0.799 0.995,2.064 1.199,2.029 0.449,-0.08 1.064,-3.008 1.796,-3.979 0.96,-1.275 1.48,-0.241 2.085,0.73 0.364,0.579 0.63,1.352 1.021,1.939"
       id="path1315" /><path
       style="fill:none;stroke:#ffccaa;stroke-width:0.499999"
       d="m 16128.124,31809.846 c -0.643,-0.224 -1.628,-0.06 -1.93,-0.672 -2.898,-5.852 3.153,-3.889 3.927,-1.68 0.276,0.791 -0.785,3.075 -1.997,2.352 -0.42,-0.251 -0.399,-0.894 -0.599,-1.341"
       id="path1317" /><path
       style="fill:none;stroke:#ffccaa;stroke-width:0.499999"
       d="m 16128.501,31805.306 c 0.821,0.262 1.872,0.162 2.463,0.789 0.883,0.939 1.113,2.325 1.597,3.521 0.117,0.286 0.135,0.606 0.199,0.908 0.03,0.132 -0.07,-0.257 -0.09,-0.389 -0.185,-1.238 -0.452,-2.831 -0.178,-4.069 0.07,-0.321 0.273,-0.815 0.599,-0.781 0.796,0.08 2.992,3.328 3.749,3.971 0.173,0.146 0.55,0.426 0.644,0.22 0.115,-0.257 -0.473,-3.884 -0.378,-4.81 0.05,-0.442 0.196,-1.611 0.444,-0.651"
       id="path1319" /><path
       style="fill:none;stroke:#ffccaa;stroke-width:0.499999"
       d="m 16150.064,31801.806 c -1.029,-3.517 3.068,-3.609 4.192,-0.201 0.435,1.317 -1.292,3.564 -1.952,4.331 -0.963,1.116 -2.201,1.915 -3.483,2.609 -0.119,0.07 -0.459,0.19 -0.399,0.07 0.607,-1.217 7.195,-2.701 8.474,-2.27 0.156,0.05 0.118,0.307 0.178,0.46"
       id="path1321" /><path
       style="fill:none;stroke:#ffccaa;stroke-width:0.499999"
       d="m 16165.733,31805.859 c 0.791,-1.736 4.975,-4.199 4.858,-6.019 -0.134,-2.072 -6.462,-1.133 -7.565,-0.701 -0.226,0.09 0.406,0.291 0.644,0.341 1.163,0.249 2.36,0.318 3.527,0.55 0.658,0.13 8.053,1.564 7.942,3.289 -0.04,0.601 -0.885,0.897 -1.465,1.061 -3.405,0.955 -7.289,0.13 -10.359,-1.442 -0.332,-0.169 -2.491,-1.458 -2.196,-2.498 0.09,-0.317 0.606,-0.254 0.909,-0.381"
       id="path1323" /><path
       style="fill:none;stroke:#ffccaa;stroke-width:0.499999"
       d="m 16181.594,31798.599 c -2.928,-1.124 1.3,-3.212 2.994,-1.849 0.412,0.33 1.033,0.703 0.999,1.23 -0.07,1.061 -0.711,2.021 -1.265,2.929 -0.277,0.455 -1.338,1.148 -1.464,0.63 -0.186,-0.765 1.154,-1.231 1.93,-1.36 2.531,-0.421 5.17,2.635 3.416,4.95 -2.558,3.379 -8.496,3.432 -8.496,-1.49"
       id="path1325" /><path
       style="fill:none;stroke:#ffccaa;stroke-width:0.499999"
       d="m 16200.716,31798.049 c -0.311,-0.06 -0.631,-0.276 -0.932,-0.18 -1.864,0.603 -4.327,1.381 -4.969,3.59 -0.149,0.513 -0.168,1.381 0.333,1.572 2.683,1.01 6.064,-0.07 7.342,-2.651 0.06,-0.13 0.503,-1.749 -0.377,-1.77 -0.284,0 -0.611,0.182 -0.732,0.439 -1,2.127 2.246,5.352 3.283,4.979 2.359,-0.841 -0.935,-5.172 -1.042,-6.469 -0.02,-0.19 0.332,0.191 0.488,0.302 0.466,0.328 0.933,0.659 1.375,1.018 0.402,0.329 0.78,0.683 1.154,1.04 0.433,0.416 1.444,0.987 1.065,1.45 -0.351,0.429 -1.598,-1.201 -1.265,-2.18 0.101,-0.296 1.387,-0.331 1.886,-0.37 0.969,-0.07 2.041,-0.08 2.994,-0.289 0.928,-0.201 1.371,-0.624 0.954,-0.701 -1.301,-0.235 -5.3,-0.217 -5.612,1.932 -0.185,1.27 2.289,1.439 2.64,1.468 2.318,0.193 7.016,0.153 9.228,-0.738 0.239,-0.1 0.148,-0.495 0.222,-0.741"
       id="path1327" /><path
       style="fill:none;stroke:#ffccaa;stroke-width:0.499999"
       d="m 16052.722,31836.106 c -0.133,1.35 -2.046,4.763 -3.66,2.173 -1.502,-2.413 2.04,-5.747 4.436,-5.382 2.807,0.429 2.237,4.273 0.333,5.371 -0.39,0.225 -1.126,0.619 -1.331,0.22 -0.364,-0.71 0.148,-1.588 0.222,-2.382 z"
       id="path1329" /><path
       style="fill:none;stroke:#ffccaa;stroke-width:0.499999"
       d="m 16053.898,31831.936 c 0.539,0.318 1.281,0.424 1.619,0.953 0.721,1.124 0.932,2.506 1.397,3.76 0.119,0.317 0.116,1.201 0.356,0.958 0.264,-0.268 0.86,-5.636 2.905,-4.689 1.242,0.574 2.92,2.291 2.751,3.839 -0.04,0.331 -0.384,0.54 -0.576,0.81"
       id="path1331" /><path
       style="fill:none;stroke:#ffccaa;stroke-width:0.499999"
       d="m 16073.308,31830.508 c -0.222,-0.326 -0.339,-1.201 -0.665,-0.979 -0.327,0.222 0.595,0.59 0.665,0.979 0.08,0.452 -0.321,0.905 -0.244,1.36 0.181,1.071 0.701,2.056 0.998,3.101 0.417,1.463 0.7,1.217 0.02,1.547"
       id="path1333" /><path
       style="fill:none;stroke:#ffccaa;stroke-width:0.499999"
       d="m 16069.803,31833.987 c 2.73,-1.836 0.472,-0.762 4.725,-0.96 2.229,-0.104 0.714,-0.969 1.087,-1.49 0.102,-0.14 0.794,0.624 1.198,1.05 0.449,0.477 0.895,0.953 1.331,1.44 0.436,0.487 0.887,0.963 1.287,1.481 0.12,0.156 0.291,0.334 0.266,0.53 -0.02,0.153 -0.217,-0.225 -0.288,-0.36 -0.137,-0.262 -1.452,-2.339 -0.777,-3.03 0.648,-0.664 2.376,0.979 3.239,0.889 0.397,-0.04 4.113,-0.91 2.262,-1.63 -1.266,-0.492 -4.631,2.009 -3.26,2.882 1.127,0.717 2.514,0.971 3.837,1.159 0.99,0.14 3.976,-0.135 4.947,-0.979 0.187,-0.164 -0.281,-0.408 -0.421,-0.612"
       id="path1335" /><path
       style="fill:none;stroke:#ffccaa;stroke-width:0.499999"
       d="m 16102.834,31830.148 c -0.641,1.511 0.148,-1.953 -0.2,-1.699 -1.484,1.082 -3.317,4.482 -1.53,6.07 1.505,1.333 3.183,1.291 5.058,0.989 2.257,-0.365 1.992,-0.309 2.928,-1.51"
       id="path1337" /><path
       style="fill:none;stroke:#ffccaa;stroke-width:0.499999"
       d="m 16108.047,31830.299 c 0.252,0.555 0.277,1.288 0.754,1.669 3.106,2.477 10.47,-1.346 6.079,-4.151"
       id="path1339" /><path
       style="fill:none;stroke:#ffccaa;stroke-width:0.499999"
       d="m 16116.632,31825.909 c 0.832,1.217 3.857,4.435 3.971,5.998 0.04,0.485 -0.552,0.418 -0.776,0.432"
       id="path1341" /><path
       style="fill:none;stroke:#ffccaa;stroke-width:0.499999"
       d="m 16116.477,31830.767 c -0.288,-0.172 -0.966,-0.198 -0.865,-0.519 0.152,-0.486 0.799,-0.677 1.286,-0.82 1.746,-0.513 4.954,-1.045 7.121,-1.421"
       id="path1343" /><path
       style="fill:none;stroke:#ffccaa;stroke-width:0.499999"
       d="m 16128.611,31831.137 c 0.08,0.54 0.277,1.075 0.244,1.62 -0.02,0.33 -1.742,4.82 0.111,2.481"
       id="path1345" /><path
       style="fill:none;stroke:#00ff00;stroke-width:0.499999"
       d="m 16149.739,31846.653 c -1.333,-2.302 -4.432,1.897 -3.683,2.981 0.242,0.347 0.655,0.556 1.043,0.728 0.245,0.111 0.548,0.185 0.799,0.09 1.15,-0.431 2.266,-0.974 3.305,-1.63 0.47,-0.296 0.567,-0.963 0.444,-1.439 -0.152,-0.588 -0.737,-0.802 -0.511,-0.759 0.996,0.185 2.719,2.614 3.461,3.45"
       id="path1442" /><path
       style="fill:none;stroke:#00ff00;stroke-width:0.499999"
       d="m 16156.46,31845.274 c -0.32,-0.571 0.881,-2.077 0.533,-0.899 -0.1,0.333 -0.581,0.553 -0.533,0.899 0.01,0.09 2.12,3.699 0.577,3.659"
       id="path1444" /><path
       style="fill:none;stroke:#00ff00;stroke-width:0.499999"
       d="m 16154.22,31847.325 c 2.28,-0.601 5.358,-2.241 7.941,-1.583"
       id="path1446" /><path
       style="fill:none;stroke:#00ff00;stroke-width:0.499999"
       d="m 16169.304,31842.615 c 0,-0.291 0.313,-0.862 0.02,-0.87 -0.29,0 -0.144,0.605 -0.02,0.87 0.405,0.873 1.113,1.582 1.553,2.44 0.429,0.833 0.311,2.069 1.087,2.598 0.132,0.09 0.281,-0.154 0.422,-0.23"
       id="path1448" /><path
       style="fill:none;stroke:#00ff00;stroke-width:0.499999"
       d="m 16172.499,31844.705 c 0.887,-0.09 1.774,-0.185 2.662,-0.262 0.546,-0.04 1.098,-0.04 1.642,-0.108 0.441,-0.06 0.883,-0.138 1.308,-0.27 2.942,-0.924 -1.106,-2.8 -2.928,-1.09 -0.407,0.381 -1.001,0.801 -0.976,1.36 0.09,2.016 3.378,2.532 4.858,2.198"
       id="path1450" /><path
       style="fill:none;stroke:#00ff00;stroke-width:0.499999"
       d="m 16181.017,31842.443 c -2.056,-1.643 -1.509,0.106 1.731,1.54 0.836,0.37 2.246,-1.524 1.686,-1.548 -0.512,-0.03 0.168,2.135 1.885,2.03"
       id="path1452" /><path
       style="fill:none;stroke:#00ff00;stroke-width:0.499999"
       d="m 16186.94,31840.935 c 2.417,-1.849 -2.152,-0.476 -1.641,-0.262 0.51,0.214 1.115,0.09 1.641,0.262 0.86,0.28 4.769,1.81 5.169,2.72 0.492,1.116 -1.831,1.365 -2.285,1.328 -1.267,-0.103 -1.338,-0.349 -2.152,-1.05"
       id="path1454" /><path
       style="fill:none;stroke:#00ff00;stroke-width:0.499999"
       d="m 16190.822,31840.115 c 0.348,-0.154 0.703,-0.63 1.043,-0.461 0.653,0.323 2.008,4.392 1.486,4.509"
       id="path1456" /><path
       style="fill:none;stroke:#00ff00;stroke-width:0.499999"
       d="m 16190.933,31842.525 c 1.729,-0.992 2.787,-1.564 4.592,-1.521"
       id="path1458" /><path
       style="fill:none;stroke:#00ff00;stroke-width:0.499999"
       d="m 16203.023,31841.824 c -1.316,-0.421 -2.809,-0.479 -3.948,-1.259 -0.383,-0.265 -0.242,-1.064 0.09,-1.392 1.245,-1.23 2.834,-1.733 4.459,-1.31 3.358,0.879 1.979,3.347 -0.599,3.961 -0.457,0.108 -0.931,-0.119 -1.397,-0.18"
       id="path1460" /><path
       style="fill:none;stroke:#00ff00;stroke-width:0.499999"
       d="m 16204.776,31837.323 c 0.04,-0.04 1.555,-1.447 1.774,-1.328 1.671,0.902 1.647,3.993 1.176,5.48 -0.02,0.05 -0.04,-0.106 -0.02,-0.151 0.212,-0.453 0.427,-0.908 0.71,-1.32 0.535,-0.778 1.524,-2.101 2.617,-2.27 0.321,-0.05 1.2,2.759 0.222,3.439"
       id="path1462" /><path
       style="fill:none;stroke:#00ff00;stroke-width:0.499999"
       d="m 16212.274,31838.395 c 0.636,-0.07 1.272,-0.138 1.907,-0.212 1.114,-0.127 1.672,-0.225 2.951,-0.41 0.772,-0.111 1.727,-0.106 2.129,-0.958 0.127,-0.269 0.193,-0.672 -0.07,-0.91 -1.415,-1.309 -4.225,0 -5.169,1.278 -0.759,1.027 0.487,1.776 1.242,2.051 1.815,0.664 4.782,0.315 6.412,-0.09 0.417,-0.103 0.68,-0.527 1.02,-0.789"
       id="path1464" /><path
       style="fill:none;stroke:#00ff00;stroke-width:0.499999"
       d="m 16229.555,31837.995 c -3.139,-0.968 1.569,-4.5 2.972,-3.81 1.604,0.786 -0.02,3.218 -1.198,3.519 -0.154,0.04 -0.103,-0.299 -0.155,-0.449"
       id="path1466" /><path
       style="fill:none;stroke:#00ff00;stroke-width:0.499999"
       d="m 16237.119,31833.585 c 0.333,-0.254 1.252,-0.429 0.998,-0.76 -0.253,-0.333 -0.625,0.569 -0.998,0.76 -0.891,0.45 -2.699,0.489 -2.817,2.019 -0.119,1.537 3.245,1.717 3.327,1.309"
       id="path1468" /><path
       style="fill:none;stroke:#00ff00;stroke-width:0.499999"
       d="m 16234.013,31836.823 c 1.293,-0.682 2.351,-0.365 3.661,0.05"
       id="path1470" /><path
       style="fill:none;stroke:#00ff00;stroke-width:0.499999"
       d="m 16058.432,31867.552 c -0.407,-0.294 -0.744,-0.722 -1.22,-0.878 -0.152,-0.05 -0.03,0.322 0,0.479 0.111,0.576 0.248,1.148 0.421,1.709 0.465,1.503 1.172,2.95 1.465,4.511 0.328,1.749 0.567,1.757 -0.09,1.59"
       id="path1472" /><path
       style="fill:none;stroke:#00ff00;stroke-width:0.499999"
       d="m 16054.794,31871.251 c 1.828,-1.244 4.333,-0.07 5.945,-1.49"
       id="path1474" /><path
       style="fill:none;stroke:#00ff00;stroke-width:0.499999"
       d="m 16060.362,31868.333 c 2.294,-0.231 3.05,2.788 3.749,4.58 0.01,0.03 0,-0.07 0,-0.112 -0.03,-0.359 -0.135,-0.722 -0.09,-1.079 0.07,-0.508 0.164,-1.037 0.422,-1.479 0.435,-0.749 3.909,2.048 2.307,2.728"
       id="path1476" /><path
       style="fill:none;stroke:#00ff00;stroke-width:0.499999"
       d="m 16066.551,31871.611 c 0.429,-0.233 0.839,-0.506 1.287,-0.699 0.886,-0.383 1.814,-0.661 2.706,-1.029 1.647,-0.68 0.472,-2.053 -0.621,-1.759 -2.586,0.693 -3.189,3.177 -0.532,4.439 0.35,0.164 2.863,0.918 3.15,-0.05 0.115,-0.392 -0.06,-0.815 -0.09,-1.22"
       id="path1478" /><path
       style="fill:none;stroke:#00ff00;stroke-width:0.499999"
       d="m 16071.853,31867.153 c 1.153,0.986 2.432,1.844 3.461,2.96 0.429,0.466 1.111,2.149 0.576,1.81 -0.817,-0.519 -1.634,-3.36 -0.02,-3.331 1.261,0.03 2.31,1.222 2.906,2.201 0.127,0.207 0.363,0.879 0.2,0.699 -0.459,-0.506 -0.283,-1.728 0.07,-2.26 0.695,-1.061 3.683,0.807 4.037,1.54 0.04,0.09 -0.178,0.101 -0.266,0.151"
       id="path1480" /><path
       style="fill:none;stroke:#00ff00;stroke-width:0.499999"
       d="m 16092.284,31864.314 c 0.458,0.799 0.922,1.595 1.375,2.399 0.33,0.582 0.657,1.17 0.976,1.76 0.253,0.468 0.419,0.981 0.688,1.439 0.03,0.04 0,-0.1 0,-0.151 -0.03,-0.383 -0.08,-0.764 -0.09,-1.148 -0.03,-0.905 -0.247,-2.926 0.866,-3.461 1.417,-0.68 2.813,2.972 2.883,3.001 0.08,0.03 1.611,-2.583 2.33,-2.85 1.251,-0.466 2.321,2.657 2.906,3.149 0.12,0.103 0.177,-0.26 0.266,-0.389"
       id="path1482" /><path
       style="fill:none;stroke:#00ff00;stroke-width:0.499999"
       d="m 16105.061,31864.972 c 0.511,0.551 0.84,1.358 1.531,1.651 0.789,0.331 4.068,0.768 4.814,-0.64 0.09,-0.172 0,-0.386 0,-0.579"
       id="path1484" /><path
       style="fill:none;stroke:#00ff00;stroke-width:0.499999"
       d="m 16111.983,31862.832 c -0.341,-0.03 -0.696,-0.14 -1.021,-0.04 -0.489,0.154 -1.04,0.349 -1.331,0.77 -0.125,0.183 0.323,0.326 0.533,0.392 0.611,0.188 1.257,0.235 1.885,0.36 1.174,0.23 4.12,0.394 4.925,1.669 0.34,0.537 -2.178,2.688 -3.461,0.259"
       id="path1486" /><path
       style="fill:none;stroke:#00ff00;stroke-width:0.499999"
       d="m 16116.508,31862.123 c 2.448,-1.191 1.737,-1.54 3.128,2.029 0.55,1.41 0.858,3.307 -1.154,2.971"
       id="path1488" /><path
       style="fill:none;stroke:#00ff00;stroke-width:0.499999"
       d="m 16117.24,31866.451 c -0.133,-0.584 -0.641,-1.209 -0.399,-1.759 0.376,-0.855 5.369,-1.516 6.455,-1.389"
       id="path1490" /><path
       style="fill:none;stroke:#00ff00;stroke-width:0.499999"
       d="m 16130.417,31860.533 c 0.562,0.587 1.156,1.145 1.686,1.759 0.514,0.598 0.986,1.228 1.442,1.871 0.307,0.431 0.601,0.878 0.843,1.349 0.174,0.339 0.291,0.707 0.399,1.069 0.02,0.07 -0.01,0.267 -0.02,0.201 -0.313,-2.117 1.244,-4.358 3.305,-4.918 2.807,-0.765 0.972,5.029 -1.353,3.698 -0.726,-0.415 0.695,-2.246 1.109,-2.489 0.471,-0.278 0.981,-0.5 1.509,-0.641 1.36,-0.362 4.886,0.403 5.834,-0.579 0.459,-0.476 -1.254,-0.619 -1.908,-0.529 -0.635,0.08 -4.2,1.378 -3.039,2.818 1.684,2.09 8.867,1.868 10.227,0.24 0.359,-0.431 -0.229,-0.616 -0.422,-0.73"
       id="path1492" /><path
       style="fill:none;stroke:#00ff00;stroke-width:0.499999"
       d="m 16154.907,31859.392 c -2.694,1.593 -1.466,-1.59 -0.221,-1.59 0.197,0 0.18,0.828 0.221,1.59 z"
       id="path1494" /><path
       style="fill:none;stroke:#00ff00;stroke-width:0.499999"
       d="m 16154.064,31861.022 c -0.04,1.924 -0.254,1.074 1.442,3.241 0.668,0.852 1.232,1.157 1.287,1.069 0.168,-0.262 -0.03,-0.619 -0.04,-0.928"
       id="path1496" /><path
       style="fill:none;stroke:#00ff00;stroke-width:0.499999"
       d="m 16156.793,31861.223 c -0.77,-4.04 2.684,0.992 2.684,2.051 0,0.293 -0.192,-0.58 -0.155,-0.871 0.03,-0.203 0.532,-3.225 1.686,-2.27 0.915,0.757 1.526,3.942 2.729,3.839"
       id="path1498" /><path
       style="fill:none;stroke:#00ff00;stroke-width:0.499999"
       d="m 16170.968,31857.133 c -0.295,-0.22 -0.667,-0.955 -0.887,-0.659 -0.22,0.294 0.701,0.341 0.887,0.659 0.471,0.807 0.623,1.765 1.021,2.609 0.288,0.613 1.614,1.709 0.222,1.751"
       id="path1500" /><path
       style="fill:none;stroke:#00ff00;stroke-width:0.499999"
       d="m 16169.482,31860.594 c 0.288,-0.821 0.328,-1.778 0.865,-2.461 0.357,-0.453 1.062,-0.455 1.597,-0.67 2.396,-0.968 2.397,-0.597 3.439,2.22 0.167,0.453 0.223,1.101 0.31,1.109 0.141,0.03 1.451,-4.104 1.842,-3.9 0.374,0.198 0.617,1.606 1.442,1.791 0.711,0.159 4.25,-1.81 3.305,-2.069 -2.102,-0.579 -5.248,1.537 -3.816,2.318 2.248,1.225 5.683,0.257 7.897,-0.529"
       id="path1502" /><path
       style="fill:none;stroke:#00ff00;stroke-width:0.499999"
       d="m 16199.075,31853.384 c -0.2,-0.477 -0.314,-1.001 -0.599,-1.432 -0.399,-0.603 -0.848,-0.1 -0.843,0.402 0.01,1.352 0.714,2.604 1.508,3.638 0.03,0.04 2.963,2.906 2.108,2.472"
       id="path1504" /><path
       style="fill:none;stroke:#00ff00;stroke-width:0.499999"
       d="m 16197.278,31856.963 c -5.737,-1.6 1.67,-1.487 3.46,-2.169 0.238,-0.09 0.385,-0.334 0.577,-0.5"
       id="path1506" /><path
       style="fill:none;stroke:#00ff00;stroke-width:0.499999"
       d="m 16201.093,31851.722 c 0.57,0.302 1.182,0.532 1.708,0.902 0.635,0.445 1.19,0.995 1.753,1.53 0.569,0.537 1.094,1.119 1.642,1.68 0.05,0.05 0.158,0.232 0.155,0.158 -0.06,-1.696 -1.69,-6.4 1.908,-3.508 1.717,0.01 5.76,0.701 6.899,-1.07 0.664,-1.034 -0.815,-1.78 -1.62,-1.68 -1.056,0.13 -2.119,0.413 -3.061,0.91 -1.462,0.771 0.909,1.935 3.061,2.82 0.8,0.328 1.86,0.231 2.729,0.19"
       id="path1508" /><path
       style="fill:none;stroke:#00ff00;stroke-width:0.499999"
       d="m 16216.466,31852.182 c 0.621,-0.336 1.22,-0.717 1.864,-1.008 0.58,-0.264 1.206,-0.412 1.797,-0.651 1.581,-0.635 1.616,-1.738 -0.377,-1.838 -1.208,-0.06 -3.407,0.195 -4.393,1.069 -1.421,1.259 0.195,2.01 1.109,2.428 2.471,1.133 5.778,1.231 8.386,0.601"
       id="path1510" /><path
       style="fill:none;stroke:#00ff00;stroke-width:0.499999"
       d="m 16138.359,31821.655 c 1.815,0.574 1.116,0.03 2.129,2.05 0.358,0.715 0.714,1.432 1.043,2.159 0.263,0.582 0.523,1.167 0.732,1.77 1.901,5.501 -2.062,-0.156 -0.311,-2.399 1.29,-1.651 4.999,-1.016 5.59,1.029 0.671,2.323 -3.334,5.249 -4.791,2.781 -0.167,-0.284 -0.07,-0.654 -0.111,-0.979"
       id="path1512" /><path
       style="fill:none;stroke:#00ff00;stroke-width:0.499999"
       d="m 16148.408,31825.335 c 5.6,0.172 -2.755,-0.103 2.529,0.13 4.085,0.18 2.45,-4.387 -1.398,-1.281 -0.418,0.339 -1.106,0.614 -1.131,1.151 -0.1,2.082 4.341,3.426 5.923,2.911 0.382,-0.127 0.665,-0.456 0.998,-0.68"
       id="path1514" /><path
       style="fill:none;stroke:#00ff00;stroke-width:0.499999"
       d="m 16157.259,31823.036 c -1.84,1.093 -0.664,3.357 1.153,3.119 0.284,-0.04 0.488,-0.301 0.732,-0.449"
       id="path1516" /><path
       style="fill:none;stroke:#00ff00;stroke-width:0.499999"
       d="m 16160.719,31822.464 c -0.214,0.418 -0.594,0.784 -0.643,1.252 -0.31,2.963 2.242,0.182 2.684,-0.392 0.24,-0.312 0.325,-0.727 0.577,-1.029 0.03,-0.03 -0.02,0.09 -0.02,0.13 -0.03,0.285 -0.05,0.574 -0.07,0.86 -0.06,0.904 -0.444,1.91 0.621,2.119"
       id="path1518" /><path
       style="fill:none;stroke:#00ff00;stroke-width:0.499999"
       d="m 16165.023,31822.044 c 0.506,0.317 3.016,2.513 4.415,1.91 0.459,-0.196 0.784,-0.688 0.953,-1.159 0.07,-0.196 -0.167,-3.088 -0.399,-3.36 -0.321,-0.376 -1.063,1.796 -0.355,2.619 0.906,1.053 2.461,0.138 3.461,0.701 0.549,0.31 -2.668,2.943 -3.084,0.551 -0.627,-3.609 6.816,-1.598 5.413,-4.252 -0.798,-1.506 -3.02,-0.06 -3.439,1.011 -0.787,2.01 4.765,3.384 6.522,1.619"
       id="path1520" /><path
       style="fill:none;stroke:#00ff00;stroke-width:0.499999"
       d="m 16190.245,31816.744 c -1.612,-0.415 -1.029,-0.548 -2.817,0.841 -6.161,4.787 9.838,2.48 5.546,-0.611 -1.401,-1.008 -0.955,1.294 -0.865,1.583 0.404,1.285 4.189,2.891 5.501,3.188"
       id="path1522" /><path
       style="fill:none;stroke:#00ff00;stroke-width:0.499999"
       d="m 16205.308,31814.495 c -3.248,-5.445 2.152,3.339 2.307,4.101 0.04,0.191 -0.133,0.365 -0.2,0.548"
       id="path1524" /><path
       style="fill:none;stroke:#00ff00;stroke-width:0.499999"
       d="m 16203.8,31817.665 c 0.898,-2.27 3.313,-1.873 5.146,-2.86 0.909,-0.49 -0.406,-0.924 -0.177,-1.098 1.431,-1.104 3.584,2.333 4.059,3.188 0.446,0.804 0.52,1.553 0.599,1.259 0.402,-1.495 0,-3.304 0.577,-4.738 0.03,-0.07 0.621,0.41 1.087,0.68 0.526,0.301 1.251,0.598 1.863,0.651 0.759,0.06 4.063,-0.945 3.638,-1.771 -0.628,-1.219 -2.916,-0.489 -3.083,0.699 -0.05,0.384 0.502,0.64 0.865,0.77 1.303,0.471 3.009,0.881 4.481,0.68 0.587,-0.08 1.215,-0.193 1.597,-0.699 0.1,-0.129 0.327,-0.905 0.377,-1.082 0.116,-0.405 0.533,-0.868 0.311,-1.227 -0.542,-0.876 -1.769,-0.329 -2.374,-0.05 -6.567,3.019 3.65,4.914 6.078,2.839"
       id="path1526" /><path
       style="fill:none;stroke:#00ff00;stroke-width:0.499999"
       d="m 16052.997,31846.534 c -2.799,-0.588 0.238,-3.072 1.708,-1.681 0.395,0.376 0.406,1.651 -0.288,1.8 -0.465,0.1 -0.947,-0.08 -1.42,-0.119 z"
       id="path1528" /><path
       style="fill:none;stroke:#00ff00;stroke-width:0.499999"
       d="m 16055.193,31848.743 c -1.124,0.436 2.054,4.852 2.884,3.45"
       id="path1530" /><path
       style="fill:none;stroke:#00ff00;stroke-width:0.499999"
       d="m 16061.094,31846.594 c -0.289,0.04 -0.665,-0.09 -0.865,0.119 -0.877,0.927 1.197,1.749 3.172,2.281 1.054,0.283 2.184,0.119 3.261,0.299 1.133,0.191 2.369,0.212 3.35,0.81 0.301,0.185 -0.349,0.648 -0.644,0.841 -1.756,1.146 -7.676,2.707 -8.252,-0.54"
       id="path1532" /><path
       style="fill:none;stroke:#00ff00;stroke-width:0.499999"
       d="m 16083.677,31845.832 c -2.216,-0.28 -5.836,5.491 -2.308,6.131 1.933,0.352 4.647,-0.185 6.234,-1.529 0.533,-0.453 0.828,-1.128 1.242,-1.691"
       id="path1534" /><path
       style="fill:none;stroke:#00ff00;stroke-width:0.499999"
       d="m 16092.75,31849.592 c -0.987,1.543 -0.761,1.879 -3.55,0 -1.382,-0.926 -1.117,-3.178 0.466,-3.648 1.426,-0.426 3.357,0.883 4.171,1.95 0.667,0.873 0.54,0.772 0.02,1.238"
       id="path1536" /><path
       style="fill:none;stroke:#00ff00;stroke-width:0.499999"
       d="m 16093.859,31844.703 c 1.741,0.06 1.182,-0.207 2.817,1.341 0.466,0.439 0.897,0.921 1.287,1.429 0.265,0.349 0.741,1.585 0.532,1.201 -0.423,-0.778 -0.787,-3.741 0.222,-4.281 1.489,-0.796 3.974,5.972 2.595,2.791"
       id="path1538" /><path
       style="fill:none;stroke:#00ff00;stroke-width:0.499999"
       d="m 16100.98,31844.864 c 0,-0.145 0.01,-1.945 0.155,-2.04 0.802,-0.532 2.199,1.738 3.327,3.35 0.166,0.235 0.333,1.077 0.355,0.788 0.08,-1.077 -0.161,-1.68 0.71,-2.598 0.407,-0.429 2.549,2.238 1.841,2.939 -2.258,-2.152 5.604,-1.578 4.748,-3.569 -0.88,-2.046 -7.463,3.051 -1.952,4.42 0.545,0.135 1.145,0.142 1.686,-0.01 0.946,-0.267 1.789,-0.814 2.684,-1.22"
       id="path1540" /><path
       style="fill:none;stroke:#00ff00;stroke-width:0.499999"
       d="m 16116.397,31844.274 c -0.288,0.07 -0.651,0.03 -0.865,0.22 -3.507,3.381 1.185,5.556 4.37,3.918 2.363,-1.214 2.16,-1.243 2.24,-2.81"
       id="path1542" /><path
       style="fill:none;stroke:#00ff00;stroke-width:0.499999"
       d="m 16122.52,31842.623 c -1.102,0.691 1.123,3.678 0.643,4.08 -0.419,0.352 -0.991,0.468 -1.486,0.701"
       id="path1544" /><path
       style="fill:none;stroke:#00ff00;stroke-width:0.499999"
       d="m 16120.08,31847.274 c 0.177,-0.304 0.218,-0.754 0.532,-0.91 0.45,-0.227 3.559,-0.69 4.17,-0.801 1.468,-0.268 2.972,-0.434 3.794,-1.868 0.494,-0.866 -0.137,-1.268 -0.932,-0.871 -3.368,1.678 -1.882,4.535 1.486,4.239 2.442,-0.215 3.987,-1.44 4.038,-3.94 0.406,-0.516 -0.244,-0.852 -0.244,-1.288 0,-0.06 0.09,0.06 0.133,0.09 0.335,0.256 0.688,0.492 0.998,0.777 1.237,1.143 2.248,2.077 2.019,4.091 -0.18,1.574 -3.284,1.945 -4.326,1.36 -1.622,-0.908 -1.46,-1.664 0.377,-2.609 0.846,-0.437 3.612,0.265 4.281,0.968"
       id="path1546" /><path
       style="fill:none;stroke:#00ff00;stroke-width:0.499999"
       d="m 16077.639,31876.588 c -0.385,0 -0.787,-0.146 -1.154,-0.03 -0.991,0.318 -2.613,2.686 -2.684,3.591 -0.05,0.68 0.171,1.426 0.599,1.96 0.939,1.17 3.753,1.403 4.858,1.21"
       id="path1548" /><path
       style="fill:none;stroke:#ff00ff;stroke-width:0.499999"
       d="m 16080.257,31879.448 c 0.518,-1.99 2.634,-1.948 1.441,0.28 -0.137,0.257 -1.592,2.037 -1.619,2.291 -0.02,0.186 5.042,-1.576 2.928,-0.571"
       id="path1550" /><path
       style="fill:none;stroke:#00ff00;stroke-width:0.499999"
       d="m 16089.596,31880.617 c -1.211,1.733 -3.341,-1.603 -1.62,-2.079 0.762,-0.209 2.321,-0.06 2.085,1.172 -0.06,0.333 -0.31,0.606 -0.465,0.907 z"
       id="path1552" /><path
       style="fill:none;stroke:#00ff00;stroke-width:0.499999"
       d="m 16089.884,31877.299 c 0.629,0.479 1.292,0.918 1.886,1.44 0.07,0.06 0.952,1.016 1.087,1.37 0.02,0.06 -0.122,-0.05 -0.156,-0.1 -0.177,-0.273 -0.461,-0.535 -0.465,-0.86 -0.02,-1.305 0.694,-3.44 2.44,-2.81"
       id="path1554" /><path
       style="fill:none;stroke:#ff00ff;stroke-width:0.499999"
       d="m 16098.425,31876.04 c 2.967,-0.606 -0.456,2.619 -0.422,1.889 0.07,-1.582 4.861,-0.688 2.352,1.4 -0.378,0.315 -0.83,0.539 -1.287,0.719 -0.373,0.148 -0.79,0.358 -1.176,0.252 -0.531,-0.148 -0.902,-0.635 -1.353,-0.95"
       id="path1556" /><path
       style="fill:none;stroke:#00ff00;stroke-width:0.499999"
       d="m 16099.245,31872.378 c 0.695,0.41 1.451,0.733 2.086,1.23 1.538,1.212 3.321,3.76 3.371,5.789 0.05,2.136 -1.434,4.736 -3.748,5.022 -0.293,0.03 -0.562,-0.18 -0.843,-0.27"
       id="path1558" /><path
       style="fill:none;stroke:#ffccaa;stroke-width:0.499999"
       d="m 16025.52,31902.713 c 1.089,-0.04 0.671,-0.101 1.265,0"
       id="path1560" /><path
       style="fill:none;stroke:#ffccaa;stroke-width:0.499999"
       d="m 16088.493,31902.588 c -1.745,-0.952 -0.985,-0.952 -3.306,0.49 -0.803,0.5 -1.579,1.047 -2.307,1.651 -0.991,0.823 -2.206,1.878 -1.22,2.23 1.001,0.357 2.099,0.331 3.15,0.49 3.492,0.523 7.173,0.793 10.382,2.5 0.515,0.272 1.042,1.204 0.643,1.63 -3.123,3.339 -6.364,3.069 -10.226,1.159 -0.482,-0.239 -0.178,-1.059 -0.267,-1.591"
       id="path1562" /><path
       style="fill:none;stroke:#ffccaa;stroke-width:0.499999"
       d="m 16097.433,31908.478 c 0.791,0.36 2.173,0.235 2.373,1.079 0.381,1.612 -5.704,0.252 -5.257,-1.569 1.106,-4.511 8.962,-2.442 8.629,0.67 -0.3,2.799 -4.849,3.654 -6.899,2.669 -2.267,-1.087 -2.598,-3.114 -2.374,-5.238"
       id="path1564" /><path
       style="fill:none;stroke:#ffccaa;stroke-width:0.499999"
       d="m 16116.932,31902.758 c 0.118,-0.228 0.275,-0.442 0.355,-0.688 0.782,-2.424 -1.688,-1.808 -2.685,-0.641 -0.844,0.987 -0.684,2.482 0.932,1.598 0.126,0.691 0.267,1.379 0.377,2.072 0.05,0.331 0,0.681 0.111,1 0.208,0.629 2.674,4.929 3.306,3.6"
       id="path1566" /><path
       style="fill:none;stroke:#ffccaa;stroke-width:0.499999"
       d="m 16119.394,31904.049 c -0.04,-0.281 0.147,-0.884 -0.133,-0.842 -0.28,0.05 -0.06,0.633 0.133,0.842 0.882,0.947 2.038,1.603 2.973,2.5 0.339,0.325 0.684,1.423 0.953,1.04 0.789,-1.127 0.725,-2.678 1.642,-3.749 1.67,-1.956 1.627,5.278 3.705,2.728"
       id="path1568" /><path
       style="fill:none;stroke:#ffccaa;stroke-width:0.499999"
       d="m 16130.929,31903.318 c -0.421,0.331 -1.212,0.458 -1.264,0.99 -0.353,3.588 5.698,2.786 7.054,1.32 0.162,-0.174 0.09,-0.465 0.133,-0.698"
       id="path1570" /><path
       style="fill:none;stroke:#ffccaa;stroke-width:0.499999"
       d="m 16136.409,31900.49 c 1.248,1.349 2.099,2.985 3.216,4.44 0.558,0.725 0.75,1.058 0.799,0.248"
       id="path1572" /><path
       style="fill:none;stroke:#ffccaa;stroke-width:0.499999"
       d="m 16140.49,31901.667 c -0.07,-0.452 -0.133,-0.904 -0.199,-1.36 0.03,-0.04 0.08,-0.179 0.09,-0.129 0.07,0.495 -0.207,1.108 0.111,1.489 0.387,0.466 1.153,0.387 1.686,0.672 0.993,0.532 1.644,1.479 2.884,1.45 2.158,-0.05 3.111,-2.894 2.396,-4.601"
       id="path1574" /><path
       style="fill:none;stroke:#ffccaa;stroke-width:0.499999"
       d="m 16147.633,31897.558 c 1.416,-0.584 1.029,-0.785 2.418,0.622 0.486,0.49 3.149,3.853 2.374,4.699 -1.192,1.302 -3.966,-2.267 -3.682,-2.64 0.141,-0.186 0.431,-0.215 0.665,-0.22 1.029,-0.03 2.056,0.09 3.084,0.14 0.385,0.03 2.366,0.156 3.061,0.09 0.92,-0.09 1.923,-0.293 1.775,-0.701 -0.602,-1.648 -4.376,-0.68 -4.637,0.27 -0.265,0.966 0.16,2.183 0.887,2.871 1.117,1.055 7.482,0.873 8.696,-0.201 0.131,-0.114 0.104,-0.334 0.156,-0.5"
       id="path1576" /><path
       style="fill:none;stroke:#ffccaa;stroke-width:0.499999"
       d="m 16171.725,31893.399 c -0.266,2.805 1.161,4.57 2.772,6.591"
       id="path1578" /><path
       style="fill:none;stroke:#ffccaa;stroke-width:0.499999"
       d="m 16169.062,31897.609 c 1.944,-1.855 4.397,-1.231 6.7,-1.921 2.137,-0.638 0.461,-1.815 0.532,-1.879 0.241,-0.217 4.106,4.718 4.415,5.131 0.194,0.256 0.356,0.542 0.577,0.78 0.05,0.05 -0.03,-0.143 -0.05,-0.212 -0.114,-0.404 -0.235,-0.807 -0.355,-1.209 -0.412,-1.381 -1.106,-2.032 0.07,-1.741 1.359,0.339 7.089,1.461 8.097,0.191 0.274,-0.347 -0.557,-0.868 -0.998,-0.871 -1.485,0 -2.973,0.127 -4.437,0.371 -0.415,0.07 -0.953,0.18 -1.132,0.561 -0.278,0.59 1.082,1.095 2.507,1.46 1.785,0.455 4.537,0.773 6.3,0.939 0.775,0.07 1.552,0.133 2.329,0.141 0.189,0 0.423,0.03 0.555,-0.111 0.167,-0.17 0.148,-0.453 0.222,-0.68"
       id="path1580" /><path
       style="fill:none;stroke:#ffccaa;stroke-width:0.499999"
       d="m 16196.104,31892.09 c -0.163,-0.342 -0.148,-1.183 -0.488,-1.022 -0.34,0.164 0.26,0.723 0.488,1.022 2.02,2.653 2.177,1.613 2.684,5.159 0.07,0.463 0.04,-0.939 0.133,-1.4 0.116,-0.598 0.625,-3.397 1.819,-3.31 1.096,0.08 1.336,1.99 1.686,2.67 0.09,0.164 0.262,-0.27 0.355,-0.429 0.178,-0.307 0.906,-2.011 1.62,-1.78 0.942,0.304 0.799,2.309 1.064,3.188"
       id="path1582" /><path
       style="fill:none;stroke:#ffccaa;stroke-width:0.499999"
       d="m 16206.841,31895.9 c 0.594,-0.961 1.184,-1.45 0.51,-2.26"
       id="path1584" /><path
       style="fill:none;stroke:#ffccaa;stroke-width:0.499999"
       d="m 16206.663,31891.701 c -0.591,-1.609 -0.207,-2.234 0.555,-3.482 0.658,0.494 1.541,0.782 1.974,1.481 0.414,0.667 0.725,3.103 0.843,4.18 0.02,0.202 -0.05,0.428 0.05,0.61 0.04,0.07 0.135,-0.108 0.177,-0.18 0.255,-0.437 0.45,-0.907 0.71,-1.34 0.428,-0.712 0.738,-1.639 1.486,-2 0.684,-0.33 0.753,2.135 0.777,2.24 0.218,0.965 0.248,0.932 0.643,1.59"
       id="path1586" /><path
       style="fill:none;stroke:#ffccaa;stroke-width:0.499999"
       d="m 16215.625,31893.838 c 0.259,-1.092 0.546,-2.156 0.4,-3.278"
       id="path1588" /><path
       style="fill:none;stroke:#ffccaa;stroke-width:0.499999"
       d="m 16215.98,31887.56 c 0.02,0.03 -0.106,-2.813 0.888,-2.85 1.084,-0.04 2.392,5.607 2.462,6.57 0.02,0.325 -0.119,0.643 -0.155,0.968 -0.03,0.26 0.05,-0.521 0.133,-0.77 0.16,-0.497 1.543,-4.162 2.484,-3.468 0.579,0.426 -0.01,3.524 0.444,3.918 0.212,0.185 2.066,-3.072 2.773,-2.969 0.349,0.05 -0.63,2.686 0.976,2.48"
       id="path1590" /><path
       style="fill:none;stroke:#ffccaa;stroke-width:0.499999"
       d="m 16228.226,31888.92 c -1.067,0.03 -2.498,-0.466 -1.287,1.479 0.572,0.918 3.28,-0.437 3.771,-0.86 0.3,-0.257 0.416,-1.545 -0.155,-0.979 -0.979,0.971 -1.099,3.918 -0.133,3.799 0.443,-0.06 0.798,-0.399 1.198,-0.6"
       id="path1592" /><path
       style="fill:none;stroke:#ffccaa;stroke-width:0.499999"
       d="m 16234.015,31885.39 c -0.1,1.694 0.213,6.665 1.953,7.218"
       id="path1594" /><path
       style="fill:none;stroke:#ffccaa;stroke-width:0.499999"
       d="m 16246.283,31891.111 c -0.954,-0.519 -2.171,-0.715 -2.862,-1.551 -2.222,-2.691 2.394,-3.593 3.594,-1.101 0.996,2.069 -0.182,3.072 -1.531,4.829 -0.144,0.188 -0.725,0.524 -0.643,0.302 0.329,-0.9 0.961,-1.654 1.442,-2.479 z"
       id="path1596" /><path
       style="fill:none;stroke:#ffccaa;stroke-width:0.499999"
       d="m 16249.366,31886.48 c 1.053,2.776 0.879,1.895 1.353,4.869 0.03,0.174 -0.03,0.362 0.02,0.531 0.02,0.07 0.08,-0.121 0.09,-0.19 0.06,-0.37 0.07,-0.749 0.111,-1.122 0.07,-0.608 0,-1.939 0.533,-2.349 0.358,-0.273 2.76,0.796 3.283,0.87 0.204,0.03 4.249,0.03 2.507,-1.28 -1.528,-1.146 -5.162,0.1 -6.478,0.859 -0.255,0.149 -0.547,0.62 -0.333,0.821 1.746,1.659 8.507,2.153 10.493,1.981"
       id="path1598" /><path
       style="fill:none;stroke:#ffccaa;stroke-width:0.499999"
       d="m 16073.097,31896.458 c -1.647,5.834 -2.18,11.895 -2.573,17.92 -0.09,1.461 -0.223,2.926 -0.177,4.389 0.04,1.199 0.138,3.609 1.308,3.35 0.385,-0.08 0.503,-0.606 0.755,-0.91"
       id="path1600" /><path
       style="fill:none;stroke:#ffccaa;stroke-width:0.499999"
       d="m 16070.369,31899.4 c 1.286,-0.632 1.077,-0.63 2.839,-0.881 3.551,-0.508 7.209,-0.341 10.781,-0.561 2.902,-0.177 7.235,-0.619 9.961,-0.889 12.594,-1.249 25.194,-2.32 37.8,-3.44 11.591,-1.029 23.152,-2.257 34.762,-3.09 9.854,-0.706 19.69,-1.5 29.525,-2.439 5.193,-0.498 10.404,-0.913 15.573,-1.62 3.661,-0.5 7.262,-1.323 10.892,-1.989 5.275,-0.971 10.543,-2.048 15.839,-2.9 4.455,-0.717 8.934,-1.262 13.377,-2.051 2.546,-0.452 5.1,-0.783 7.653,-1.18 0.905,-0.14 4.05,-0.915 4.614,-0.659 0.425,0.191 -0.411,0.03 -0.643,0.469 -0.262,0.508 -0.39,1.077 -0.532,1.63 -0.619,2.397 -1.317,5.008 -1.465,7.479 -0.26,4.353 0.259,4.131 -0.266,7.52 -0.256,1.651 -0.389,1.267 -0.732,2.72 -0.02,0.106 0.167,0.981 0.111,1.021 -0.492,0.331 -4.322,0.349 -4.769,0.389 -2.672,0.228 -5.331,0.561 -7.986,0.929 -4.072,0.566 -8.104,1.331 -12.157,2.011 -4.323,0.724 -8.682,1.251 -13.022,1.87 -9.297,1.328 -18.62,2.149 -27.973,2.979 -6.626,0.588 -13.245,1.262 -19.876,1.792 -6.526,0.518 -13.058,0.923 -19.588,1.378 -4.408,0.307 -8.798,0.733 -13.199,1.119 -8.845,0.778 -17.693,1.413 -26.532,2.281 -8.472,0.833 -16.955,1.492 -25.422,2.389 -2.071,0.22 -4.15,0.333 -6.211,0.651 -3.134,0.484 -6.168,1.294 -9.251,2.019 -1.949,0.46 -4.667,0.674 -6.499,1.352"
       id="path1602" /><path
       style="fill:none;stroke:#00ffff;stroke-width:0.499999"
       d="m 16070.503,31977.78 c 7.355,-3.643 15.068,-6.591 22.871,-9.131 0.106,-0.03 8.053,-2.466 8.053,-2.518 0,-0.154 -0.596,0 -1.287,0.19 -2.772,0.738 -5.483,1.68 -8.185,2.638 -5.652,2.005 -11.22,4.252 -16.971,5.972 -1.898,0.566 -3.792,1.285 -5.767,1.428 -0.145,0 0.197,-0.227 0.332,-0.28 2.025,-0.789 4.069,-1.529 6.123,-2.239 5.35,-1.846 4.166,-1.259 9.206,-2.841 4.622,-1.447 9.139,-3.157 13.621,-4.99 1.482,-0.606 3.148,-1.307 4.592,-2.048 0.688,-0.355 0.932,-0.574 0.931,-0.572 -0.05,0.342 -1.332,0.879 -1.708,1.051 -5.568,2.561 -11.394,4.535 -17.148,6.63 -4.568,1.662 -2.066,0.797 -5.789,2.019 -0.452,0.148 -0.903,0.299 -1.354,0.45 -0.05,0.03 -0.178,0.06 -0.133,0.05 0.808,-0.249 1.614,-0.463 2.418,-0.73"
       id="path1847" /><path
       style="fill:none;stroke:#00ffff;stroke-width:0.499999"
       d="m 16078.356,31957.09 c 0.481,-0.58 0.839,-1.289 1.442,-1.739 0.406,-0.304 4.643,-2.312 5.147,-0.68 0.671,2.173 -0.362,3.641 -1.664,5.099 -0.871,0.976 -1.736,1.556 -2.729,2.299 -0.06,0.05 -0.247,0.169 -0.177,0.14 3.52,-1.444 7.116,-2.63 10.958,-2.878 2.712,-0.178 2.861,-0.35 2.219,0.23"
       id="path1912" /><path
       style="fill:none;stroke:#00ffff;stroke-width:0.499999"
       d="m 16103.024,31958.579 c 2.97,-1.984 6.488,-2.831 9.85,-3.897 0.635,-0.204 1.267,-0.415 1.907,-0.601 0.09,-0.03 0.377,-0.08 0.289,-0.04 -2.558,1.167 -5.194,2.153 -7.698,3.45 -0.821,0.423 -1.671,0.815 -2.418,1.36 -0.17,0.122 -0.453,0.561 -0.244,0.579 1.831,0.148 6.563,-2.22 8.164,-3.079 0.522,-0.284 1.037,-0.593 1.486,-0.982 0.144,-0.124 0.415,-0.434 0.244,-0.519 -1.518,-0.762 -7.153,3.805 -7.942,4.599 -0.745,0.751 -2.47,2.712 -1.42,2.841 2.44,0.294 10.477,-5.588 10.338,-7.199 -0.02,-0.222 -0.47,-0.04 -0.666,0.07 -1.167,0.632 -2.32,1.31 -3.372,2.119 -1.33,1.027 -2.566,2.178 -3.748,3.371 -0.629,0.635 -2.001,2.376 -1.11,2.439 1.584,0.114 5.178,-2.944 6.234,-3.799 0.461,-0.373 0.894,-0.783 1.353,-1.161 0.178,-0.146 0.646,-0.62 0.555,-0.411 -0.146,0.339 -0.488,0.548 -0.732,0.821 -1.729,1.928 -3.642,3.664 -5.391,5.569 -0.193,0.212 -0.792,0.741 -0.51,0.691 0.441,-0.08 0.738,-0.508 1.087,-0.789 0.643,-0.521 1.263,-1.066 1.885,-1.611 1.641,-1.434 3.26,-2.895 4.903,-4.329 0.213,-0.188 0.893,-0.698 0.665,-0.532 -1.76,1.302 -8.225,6.509 -10.182,6.411 -0.536,-0.03 2.006,-3.892 2.285,-4.238 0.18,-0.225 0.814,-0.815 0.621,-0.601 -1.089,1.204 -5.558,4.757 -7.076,4.58 -0.35,-0.04 0.107,-0.722 0.31,-1.011 0.491,-0.693 1.11,-1.291 1.731,-1.87 1.294,-1.207 6.897,-5.295 7.631,-6.75 0.08,-0.156 -0.321,-0.238 -0.488,-0.19 -2.501,0.717 -5.077,2.296 -7.188,3.781 -0.136,0.09 -0.47,0.436 -0.31,0.389 1.204,-0.358 3.837,-2.006 4.592,-2.53 0.762,-0.529 1.47,-1.135 2.174,-1.738 0.127,-0.111 1.416,-1.313 0.466,-0.982 -1.906,0.664 -3.481,2.493 -4.504,4.141 -0.393,0.632 -0.978,1.794 -0.177,1.619 1.689,-0.365 4.465,-2.712 5.213,-4.228 0.02,-0.05 -0.1,-0.08 -0.133,-0.05 -0.443,0.378 -0.908,0.751 -1.242,1.228 -1.252,1.785 -3.093,5.588 -3.173,7.821 -0.02,0.41 0.133,1.018 0.533,1.108 1.159,0.262 4.182,-3.688 4.836,-4.548 0.473,-0.624 0.917,-1.27 1.397,-1.889 0.105,-0.138 0.318,-0.537 0.355,-0.37 0.06,0.293 -0.184,0.574 -0.244,0.867 -0.368,1.834 -0.512,3.673 -1.198,5.432 0,0 -0.421,1.072 -0.843,0.77 -1.742,-1.257 0.497,-5.098 0.599,-6.591 0.01,-0.142 -0.284,0.07 -0.399,0.151"
       id="path1914" /><path
       style="fill:none;stroke:#ff00ff;stroke-width:0.499999"
       d="m 16006.992,32018.907 c 0.707,-0.627 1.288,-1.543 2.307,-1.461"
       id="path1916" /><path
       style="fill:none;stroke:#ff00ff;stroke-width:0.499999"
       d="m 16043.861,31990.488 c 0.04,0.291 0,0.614 0.133,0.871 0.264,0.484 1.945,0.719 2.374,0.82 3.492,0.825 7.177,1.212 10.759,1.241 8.438,0.07 17.503,-1.069 25.267,-4.551 1.349,-0.606 2.823,-1.543 4.081,-2.299 3.063,-1.845 6.123,-3.736 9.073,-5.76 1.691,-1.162 0.964,-0.799 2.729,-1.979 1.454,-0.974 3.022,-1.781 4.547,-2.63 1.313,-0.733 2.584,-1.62 3.927,-2.292 3.032,-1.516 6.103,-3.005 9.184,-4.418 2.08,-0.955 4.195,-1.932 6.322,-2.76 1.78,-0.693 3.697,-1.069 5.524,-1.611 2.05,-0.609 4.061,-1.339 6.122,-1.91 5.595,-1.548 11.507,-2.451 16.128,-6.261 3.544,-2.921 4.805,-5.087 6.61,-9.247 1.989,-4.585 3.492,-7.972 -0.244,-12.041"
       id="path1922" /><path
       style="fill:none;stroke:#ffccaa;stroke-width:0.499999"
       d="m 16032.054,32051.895 c 0.07,-0.301 0.522,-0.828 0.222,-0.899 -0.3,-0.07 -0.148,0.598 -0.222,0.899 z"
       id="path1924" /><path
       style="fill:none;stroke:#ffccaa;stroke-width:0.499999"
       d="m 16032.343,32031.856 c -0.736,-0.746 -0.829,-1.929 -1.487,-2.72 -0.66,-0.794 0.874,1.886 1.487,2.72 0.12,0.164 3.625,4.016 3.97,3.159 0.282,-0.696 -0.605,-2.892 -0.488,-3.009 0.06,-0.06 1.049,0.665 1.531,0.911 3.009,1.534 4.836,0.502 3.549,-3.062 -0.12,-0.333 -0.636,-0.706 -0.82,-1.039"
       id="path1934" /><path
       style="fill:none;stroke:#ffccaa;stroke-width:0.499999"
       d="m 16042.591,32030.366 c 0.778,0.265 1.207,0.442 2.019,0.59 0.507,0.09 1.017,0.175 1.531,0.209 0.524,0.04 2.453,0.222 2.795,-0.558 0.451,-1.032 -2.675,-1.529 -3.106,-1.461 -0.177,0.03 -2.756,0.662 -3.239,1.22 -4.535,5.236 4.977,3.572 7.166,3.22 2.757,-0.444 2.78,-0.482 4.658,-1.011"
       id="path1936" /><path
       style="fill:none;stroke:#ffccaa;stroke-width:0.499999"
       d="m 16067.414,32027.945 c -0.576,0.109 -1.262,-0.03 -1.73,0.32 -0.407,0.31 -2.279,3.548 -1.93,4.16 0.685,1.203 2.031,2.082 3.372,2.42 1.684,0.426 7.342,-1.494 8.297,-3.259 -1.478,0.106 -1.865,0.537 -2.462,-1.45 -0.962,-3.195 4.353,-2.215 5.124,0.4 0.314,1.067 -0.183,1.967 -1.242,1.43"
       id="path1938" /><path
       style="fill:none;stroke:#ffccaa;stroke-width:0.499999"
       d="m 16076.665,32028.085 c 0.445,-0.77 0.412,-1.418 1.309,-0.51 1.055,1.071 2.091,2.175 2.972,3.392 0.205,0.28 0.189,0.672 0.222,1.018 0,0.06 -0.1,0.186 -0.111,0.13 -0.359,-1.495 0.296,-3.262 1.841,-3.86 1.36,-0.524 3.873,2.717 2.418,3.561"
       id="path1940" /><path
       style="fill:none;stroke:#ffccaa;stroke-width:0.499999"
       d="m 16085.516,32029.726 c -0.114,-6.104 4.258,1.899 3.572,3.789 -0.153,0.423 -1.229,0.09 -1.265,0.08"
       id="path1942" /><path
       style="fill:none;stroke:#ffccaa;stroke-width:0.499999"
       d="m 16085.805,32032.694 c -0.333,-0.362 -1.137,-0.616 -0.999,-1.09 0.255,-0.868 6.048,-1.529 6.944,-0.95 -0.315,-1.124 0.677,-2.432 0.31,-3.548 -0.102,-0.312 -0.354,-0.553 -0.532,-0.83 m 0,0 c 1.006,0.493 2.14,0.783 3.017,1.48 0.489,0.389 0.643,1.075 0.91,1.64 0.112,0.239 0.165,0.502 0.221,0.76 0.01,0.05 0,0.197 -0.02,0.15 -0.303,-0.799 -0.274,-4.608 1.686,-3.51 0.882,0.495 1.469,1.394 2.13,2.16 0.262,0.304 0.407,0.691 0.621,1.03 0.05,0.08 0.171,0.339 0.177,0.24 0.02,-0.312 -0.09,-0.62 -0.133,-0.93"
       id="path1944" /><path
       style="fill:none;stroke:#ffccaa;stroke-width:0.499999"
       d="m 16099.647,32025.696 c -0.04,0.336 -0.315,0.722 -0.133,1.011 0.373,0.587 3.538,4.389 4.991,2.299 0.422,-0.606 0.494,-1.405 0.577,-2.14 0.117,-1.035 -0.193,-1.191 -0.732,-1.85"
       id="path1946" /><path
       style="fill:none;stroke:#ffccaa;stroke-width:0.499999"
       d="m 16105.082,32026.297 c 0.902,0.182 1.786,0.555 2.706,0.55 1.047,0 2.07,-0.331 3.084,-0.59 1.709,-0.442 2.267,-1.908 0.333,-2.162 -1.848,-0.24 -8.843,1.397 -5.213,4.44 1.944,1.63 8.492,1.598 10.204,0.392 0.166,-0.119 0.162,-0.373 0.244,-0.561"
       id="path1948" /><path
       style="fill:none;stroke:#ffccaa;stroke-width:0.499999"
       d="m 16130.77,32023.286 c -0.43,0.405 -0.879,-1.289 -1.442,-1.08 -0.478,0.178 -0.02,1.519 0.355,2.469 0.831,2.079 2.223,3.672 3.261,5.612 0.1,0.185 0.214,0.436 0.111,0.619 -0.07,0.119 -0.266,-0.07 -0.399,-0.111"
       id="path1950" /><path
       style="fill:none;stroke:#ffccaa;stroke-width:0.499999"
       d="m 16129.084,32028.525 c -0.894,-0.516 -2.212,-0.63 -2.684,-1.548 -0.259,-0.506 0.828,-0.855 1.375,-1 4.895,-1.31 2.483,-0.03 5.524,-0.522 1.538,-0.246 0.466,-1.489 0.71,-1.579 0.136,-0.05 0.277,0.09 0.399,0.169 0.412,0.259 0.81,0.537 1.198,0.831 1.142,0.862 2.797,2.209 3.86,3.18 0.379,0.344 0.722,0.73 1.087,1.09 0.108,0.106 0.182,0.299 0.333,0.31 0.153,0 0.01,-4.339 1.198,-3.781 1.323,0.624 2.601,1.699 3.15,3.072"
       id="path1952" /><path
       style="fill:none;stroke:#ffccaa;stroke-width:0.499999"
       d="m 16145.944,32027.165 c -0.981,-1.538 -0.395,-2.421 -0.02,-3.959"
       id="path1954" /><path
       style="fill:none;stroke:#ffccaa;stroke-width:0.499999"
       d="m 16147.186,32021.577 c 0.05,-0.934 -2.454,0.312 -2.396,0.32 0.801,0.09 1.594,-0.402 2.396,-0.32 1.056,0.108 2.042,0.582 3.061,0.878 1.601,0.471 3.828,0.675 4.77,2.421 0.543,1.008 -1.939,2.363 -2.019,2.389 -0.805,0.281 -1.72,0.381 -2.551,0.191 -0.834,-0.194 -1.479,-0.86 -2.218,-1.289"
       id="path1956" /><path
       style="fill:none;stroke:#ffccaa;stroke-width:0.499999"
       d="m 16163.047,32020.137 c -1.094,0.836 1.327,5.744 0.998,6.319 -0.05,0.08 -0.177,-0.05 -0.266,-0.07"
       id="path1958" /><path
       style="fill:none;stroke:#ffccaa;stroke-width:0.499999"
       d="m 16160.052,32021.296 c -0.34,-0.881 -1.149,-1.704 -1.02,-2.64 0.361,-2.628 5.559,-1.575 6.122,-1.3 0.972,0.474 1.42,1.723 1.686,2.771 0.185,0.725 -1.817,3.196 -3.083,1.198"
       id="path1960" /><path
       style="fill:none;stroke:#ffccaa;stroke-width:0.499999"
       d="m 16165.864,32017.065 c 0.525,-0.314 0.962,-0.947 1.575,-0.949 0.569,0 3.953,3.918 4.215,4.23 0.484,0.574 0.945,1.167 1.376,1.781 0.08,0.116 0.287,0.344 0.155,0.399 -0.513,0.209 -1.858,-3.037 -1.93,-3.381 -0.07,-0.312 0.04,-0.638 0.07,-0.958"
       id="path1962" /><path
       style="fill:none;stroke:#ffccaa;stroke-width:0.499999"
       d="m 16175.758,32019.476 c 0.599,0.503 1.319,0.891 1.797,1.511 0.104,0.135 -0.202,0.5 -0.333,0.389 -0.612,-0.514 -1.282,-1.122 -1.464,-1.9 -0.367,-1.577 0,-3.927 1.331,-3.239 2.322,1.199 2.579,2.964 2.928,5.17"
       id="path1964" /><path
       style="fill:none;stroke:#ffccaa;stroke-width:0.499999"
       d="m 16183.234,32016.946 c -0.414,0.321 -1.235,0.437 -1.242,0.961 -0.04,2.778 3.59,3.447 5.523,4.029"
       id="path1966" /><path
       style="fill:none;stroke:#ffccaa;stroke-width:0.499999"
       d="m 16188.78,32019.346 c 1.09,0.783 4.718,1.688 5.213,-0.399 0.595,-2.517 -3.846,-0.963 -4.503,-0.551 -0.933,0.585 -0.985,1.675 -0.156,2.479 1.311,1.273 4.525,0.556 6.012,0.22"
       id="path1968" /><path
       style="fill:none;stroke:#ffccaa;stroke-width:0.499999"
       d="m 16197.165,32015.975 c -0.46,-0.359 -3.148,-0.592 -2.729,0.381 0.96,2.231 3.863,2.133 5.746,2.58 0.635,0.151 2.94,0.405 3.061,0.881 0.118,0.458 -4.073,2.694 -2.839,1.14 0.237,-0.299 0.532,-0.547 0.798,-0.82"
       id="path1970" /><path
       style="fill:none;stroke:#ffccaa;stroke-width:0.499999"
       d="m 16204.53,32014.727 c -0.725,0.222 -1.614,0.158 -2.174,0.669 -0.239,0.22 0.353,0.587 0.643,0.73 1.619,0.802 6.09,1.432 7.188,3.001 1.471,2.103 -5.803,4.079 -7.032,4.079 -0.359,0 -0.651,-0.301 -0.977,-0.449"
       id="path1972" /><path
       style="fill:none;stroke:#ffccaa;stroke-width:0.499999"
       d="m 16035.315,32041.915 c 0.185,0.886 -0.792,-1.55 -1.22,-1.18 -2.258,1.958 0.284,4.609 2.462,4.85 1.8,0.198 3.479,-0.08 5.058,-0.95 1.899,-1.042 1.463,-1.556 0.178,-2.471"
       id="path1974" /><path
       style="fill:none;stroke:#ffccaa;stroke-width:0.499999"
       d="m 16041.105,32038.954 c 0.769,0.553 1.674,0.956 2.307,1.662 0.949,1.056 0.531,2.477 1.287,3.498 0.04,0.06 -0.02,-0.148 0,-0.22 0.118,-0.54 0.189,-1.098 0.399,-1.608 0.448,-1.091 1.324,-3.276 2.329,-2.662 0.839,0.513 1.897,3.72 1.109,4.432"
       id="path1976" /><path
       style="fill:none;stroke:#ffccaa;stroke-width:0.499999"
       d="m 16049.89,32039.764 c 0.08,-0.373 0.617,-1.037 0.244,-1.119 -0.374,-0.08 -0.424,0.783 -0.244,1.119 0.384,0.725 1.33,1.019 1.752,1.72 0.145,0.241 1.131,2.802 0.644,3.252 -0.251,0.23 -0.666,0.145 -0.999,0.219"
       id="path1978" /><path
       style="fill:none;stroke:#ffccaa;stroke-width:0.499999"
       d="m 16048.448,32043.145 c -0.236,0.106 6.869,-2.844 7.209,-0.391"
       id="path1980" /><path
       style="fill:none;stroke:#ffccaa;stroke-width:0.499999"
       d="m 16057.787,32043.926 c 1.155,-1.506 1.431,-0.953 0.532,-1.781"
       id="path1982" /><path
       style="fill:none;stroke:#ffccaa;stroke-width:0.499999"
       d="m 16057.166,32040.275 c -0.792,-0.99 -0.318,-1.659 0.377,-2.49"
       id="path1984" /><path
       style="fill:none;stroke:#ffccaa;stroke-width:0.499999"
       d="m 16059.562,32037.086 c 0.687,0.752 1.511,1.4 2.063,2.26 0.516,0.802 1.666,4.625 1.131,5.559"
       id="path1986" /><path
       style="fill:none;stroke:#ffccaa;stroke-width:0.499999"
       d="m 16070.409,32041.404 c 2.531,1.075 1.539,1.022 4.637,0.54 0.63,-0.1 1.254,-0.241 1.863,-0.428 0.129,-0.04 1.818,-0.463 1.686,-1.202 -0.04,-0.211 -0.341,-0.301 -0.555,-0.338 -2.181,-0.387 -5.612,-0.389 -6.588,2.299 -0.185,0.508 0.474,1.011 0.887,1.36 1.838,1.558 5.057,1.439 7.21,0.87 0.579,-0.153 1.08,-0.521 1.619,-0.78"
       id="path1988" /><path
       style="fill:none;stroke:#ffccaa;stroke-width:0.499999"
       d="m 16081.013,32039.785 c 0.534,0.373 5.25,3.609 5.612,3.149 0.456,-0.577 -1.01,-2.942 -0.443,-2.908 1.722,0.103 3.847,0.587 5.679,0.23 0.243,-0.05 1.159,-0.32 1.197,-0.791 0.165,-2.019 -3.274,-0.07 -3.394,0.04 -1.829,1.667 2.885,3.037 3.261,3.08 0.424,0.05 0.814,-0.26 1.221,-0.389"
       id="path1990" /><path
       style="fill:none;stroke:#ffccaa;stroke-width:0.499999"
       d="m 16095.033,32040.145 c -0.111,-0.32 -0.222,-0.64 -0.333,-0.96 0,-0.03 -0.01,-0.119 0,-0.09 0.12,0.346 0.104,0.762 0.333,1.05 0.372,0.466 0.943,0.733 1.398,1.119 0.101,0.09 0.138,0.262 0.266,0.302 0.07,0.03 0.06,-0.132 0.07,-0.201 0.08,-0.844 -0.02,-2.045 0.488,-2.789 1.132,-1.664 2.148,-1.421 3.771,-1.111"
       id="path1992" /><path
       style="fill:none;stroke:#ffccaa;stroke-width:0.499999"
       d="m 16102.974,32037.385 c 0.281,-0.06 0.709,-0.444 0.843,-0.19 0.333,0.63 -0.08,5.789 -0.82,6.279 -0.155,0.103 -0.37,-0.03 -0.555,-0.05"
       id="path1994" /><path
       style="fill:none;stroke:#ffccaa;stroke-width:0.499999"
       d="m 16098.826,32040.134 c 2.745,-1.079 1.573,-1.066 3.416,-0.838"
       id="path1996" /><path
       style="fill:none;stroke:#ffccaa;stroke-width:0.499999"
       d="m 16114.554,32043.286 c -0.04,-0.514 1.068,-5.435 1.93,-4.99 1.079,0.553 2.482,2.923 2.995,3.958 0.172,0.349 0.421,1.394 0.111,1.161"
       id="path1998" /><path
       style="fill:none;stroke:#ffccaa;stroke-width:0.499999"
       d="m 16123.294,32041.796 c -0.584,0.05 -1.485,0.669 -1.752,0.148 -0.497,-0.971 -0.357,-2.304 0.155,-3.27 0.847,-1.593 5.332,-0.03 4.992,2.212 -0.09,0.59 -0.269,0.6 -0.622,0.73"
       id="path2000" /><path
       style="fill:none;stroke:#ffccaa;stroke-width:0.499999"
       d="m 16126.4,32037.745 c 1.937,1.109 4.024,1.993 5.812,3.329 0.218,0.164 -0.28,0.518 -0.532,0.622 -1.384,0.558 -3.472,-0.162 -4.548,-1.051 -0.327,-0.27 0.467,-0.857 0.887,-0.91 1.602,-0.206 3.224,-0.204 4.836,-0.299 0.806,-0.05 1.683,0.201 2.418,-0.13 0.286,-0.129 0.196,-0.741 -0.04,-0.942 -0.838,-0.703 -5.744,1.358 -5.568,2.99 0.351,3.247 8.506,1.826 10.271,1.141 0.604,-0.233 1.05,-0.76 1.575,-1.141"
       id="path2002" /><path
       style="fill:none;stroke:#ffccaa;stroke-width:0.499999"
       d="m 16146.964,32036.406 c -0.547,-0.174 -1.544,0.05 -1.641,-0.521 -0.449,-2.601 3.788,-3.733 1.53,-0.341"
       id="path2004" /><path
       style="fill:none;stroke:#ffccaa;stroke-width:0.499999"
       d="m 16146.92,32038.206 c 0.528,0.632 1.682,5.162 2.662,3.738"
       id="path2006" /><path
       style="fill:none;stroke:#ffccaa;stroke-width:0.499999"
       d="m 16153.198,32036.676 c 0.245,-2.6 -1.313,-0.561 -1.021,-0.352 0.293,0.209 0.684,0.225 1.021,0.352 1.099,0.413 4.417,1.228 4.525,2.868 0.09,1.337 -2.616,2.313 -3.594,1.982 -2.109,-0.717 -2.105,-0.971 -2.861,-2.251"
       id="path2008" /><path
       style="fill:none;stroke:#ffccaa;stroke-width:0.499999"
       d="m 16160.607,32033.104 c -1.228,-2.013 1.07,-3.344 0.643,-1.248 -0.09,0.457 -0.429,0.833 -0.643,1.248 z"
       id="path2010" /><path
       style="fill:none;stroke:#ffccaa;stroke-width:0.499999"
       d="m 16161.76,32035.076 c 0.407,1.611 0.366,1.651 1.198,3.54 0.171,0.386 0.43,0.73 0.621,1.108 0.06,0.119 0.267,0.395 0.133,0.381 -0.172,-0.03 -0.221,-0.267 -0.332,-0.399"
       id="path2012" /><path
       style="fill:none;stroke:#ffccaa;stroke-width:0.499999"
       d="m 16164.4,32034.965 c 0.54,0.103 1.177,-0.03 1.62,0.309 0.676,0.5 0.942,1.701 0.687,2.482 -0.108,0.333 -0.792,1.008 -0.82,0.659 -0.09,-1.051 1.546,-4.477 2.972,-3.599 1.086,0.667 1.627,1.987 2.573,2.81"
       id="path2014" /><path
       style="fill:none;stroke:#ffccaa;stroke-width:0.499999"
       d="m 16175.492,32032.226 c -0.08,-0.664 -0.124,-1.333 -0.244,-1.99 -0.06,-0.32 -0.211,-0.616 -0.289,-0.931 -0.112,-0.458 0.431,0.839 0.622,1.27 0.578,1.31 1.158,2.619 1.73,3.929 0.01,0.03 1.399,2.112 0.399,2.381"
       id="path2016" /><path
       style="fill:none;stroke:#ffccaa;stroke-width:0.499999"
       d="m 16172.652,32033.324 c -0.28,-0.193 -0.649,-0.86 -0.842,-0.579 -0.194,0.283 0.504,0.619 0.842,0.579 0.643,-0.07 1.102,-0.722 1.731,-0.878 1.609,-0.397 2.357,0.505 3.882,-0.551 0.375,-0.259 0.486,-0.788 0.599,-1.23 0.07,-0.265 -0.425,-1.008 -0.289,-0.77 1.019,1.781 0.103,0.587 2.507,3.08 0.539,0.558 1.111,1.085 1.664,1.63 0.463,0.455 0.571,0.587 0.577,0.571 0.314,-0.804 -0.733,-2.201 -0.355,-2.939 0.04,-0.08 0.148,0.23 0.71,0.449 0.741,0.289 1.49,0.569 2.262,0.76 0.914,0.222 2.266,-0.03 2.64,-1.029 0.617,-1.67 -3.432,-1.805 -4.059,-0.493 -0.907,1.898 4.763,3.53 5.811,3.681 1.787,0.259 1.731,0.574 1.731,-0.151"
       id="path2018" /><path
       style="fill:none;stroke:#ffccaa;stroke-width:0.499999"
       d="m 16202.888,32026.606 c -0.229,-0.367 -0.343,-0.838 -0.687,-1.1 -0.122,-0.09 -0.326,0.259 -0.244,0.389 0.207,0.333 0.756,0.362 0.931,0.711 0.632,1.26 0.834,2.699 1.42,3.98 1.032,2.254 0.841,0.32 0.91,1.41"
       id="path2020" /><path
       style="fill:none;stroke:#ffccaa;stroke-width:0.499999"
       d="m 16200.138,32030.586 c 1.247,-1.776 3.954,-0.934 5.501,-2.051"
       id="path2022" /><path
       style="fill:none;stroke:#ffccaa;stroke-width:0.499999"
       d="m 16205.706,32026.135 c 1.657,2.485 1.452,2.294 2.817,4.07 0.432,0.563 0.852,1.095 0.887,1.05 0.379,-0.474 0.275,-3.146 0.311,-3.85 0.02,-0.283 -0.04,-0.788 0.244,-0.82 0.338,-0.04 0.772,0.423 1.087,0.532 1.141,0.384 2.396,0.362 3.571,0.06 0.133,-0.03 1.293,-0.407 1.198,-0.809 -0.31,-1.313 -3.42,-0.585 -2.662,0.291 0.732,0.844 5.58,2.339 6.589,1.418 0.239,-0.217 0.399,-0.508 0.577,-0.778 0.06,-0.1 0.561,-0.987 0.576,-1.151 0.208,-2.188 -5.45,0.07 -5.612,1.839 -0.277,3.024 8.335,1.489 8.585,0.59"
       id="path2024" /></g></svg>
