<?xml version="1.0" encoding="UTF-8" standalone="no"?>
<!-- Created with Inkscape (http://www.inkscape.org/) -->

<svg
   width="11813.284mm"
   height="6482.2056mm"
   viewBox="0 0 11813.284 6482.2057"
   version="1.1"
   id="svg12"
   inkscape:version="1.2.1 (9c6d41e410, 2022-07-14, custom)"
   sodipodi:docname="proof_of_difference_calc_objects.svg"
   xml:space="preserve"
   xmlns:inkscape="http://www.inkscape.org/namespaces/inkscape"
   xmlns:sodipodi="http://sodipodi.sourceforge.net/DTD/sodipodi-0.dtd"
   xmlns="http://www.w3.org/2000/svg"
   xmlns:svg="http://www.w3.org/2000/svg"><sodipodi:namedview
     id="namedview14"
     pagecolor="#505050"
     bordercolor="#eeeeee"
     borderopacity="1"
     inkscape:showpageshadow="0"
     inkscape:pageopacity="0"
     inkscape:pagecheckerboard="0"
     inkscape:deskcolor="#505050"
     inkscape:document-units="mm"
     showgrid="true"
     inkscape:zoom="0.02"
     inkscape:cx="17900"
     inkscape:cy="12850"
     inkscape:window-width="1366"
     inkscape:window-height="746"
     inkscape:window-x="1360"
     inkscape:window-y="0"
     inkscape:window-maximized="1"
     inkscape:current-layer="layer1"
     inkscape:lockguides="true"><inkscape:grid
       type="xygrid"
       id="grid344"
       color="#969696"
       opacity="0.39215686"
       empcolor="#000000"
       empopacity="0.17254902"
       dotted="false"
       originx="-2856.2829"
       originy="-43251.915" /></sodipodi:namedview><defs
     id="defs9" /><g
     inkscape:label="Layer 1"
     inkscape:groupmode="layer"
     id="layer1"
     transform="translate(-2961.2829,-43400.413)"><path
       style="fill:none;stroke:#ffffff;stroke-width:10.7"
       d="m 4599.0135,43919.259 c 0.9464,20.265 10.1494,41.871 2.839,60.796 -41.198,106.648 -281.8085,283.628 -369.1311,348.779 -49.6186,37.018 -73.1308,50.065 -69.5663,52.475 32.8522,22.214 402.0351,-26.98 447.2159,-30.078 109.9267,-7.535 219.3674,-12.71 329.3793,-17.277 8.0595,-0.336 59.8384,1.992 58.2086,-13.441 -3.8378,-36.335 -72.2061,-95.964 -86.6032,-112.633 -25.7992,-29.869 -49.9483,-61.182 -76.6654,-90.234 -76.3812,-83.052 -142.0484,-136.255 -235.6768,-198.387 z"
       id="path321" /><path
       style="fill:none;stroke:#ffffff;stroke-width:10.7"
       d="m 5574.3722,43894.941 c -54.8963,10.666 -112.1527,12.833 -164.6894,31.996 -31.1049,11.348 -56.7116,35.015 -80.9254,57.598 -101.0981,94.284 -24.1181,203.051 39.7539,291.822 0.6228,0.865 28.1858,37.735 29.814,44.156 3.7465,14.78 -26.8973,-14.872 -38.3326,-24.958"
       id="path323" /><path
       style="fill:none;stroke:#ffffff;stroke-width:10.7"
       d="m 5132.8345,44159.885 c 160.8018,-33.431 336.3431,-59.227 499.7465,-22.4"
       id="path325" /><path
       style="fill:none;stroke:#ffffff;stroke-width:10.7"
       d="m 6058.5015,43951.896 c 163.4471,-136.041 12.6754,-6.848 0,0 -105.0515,56.755 -152.8795,14.507 -205.8612,134.392 -70.3744,159.245 220.4498,136.89 274.0094,128.633 19.2505,-2.969 35.0194,-17.066 52.529,-25.599"
       id="path327" /><path
       style="fill:none;stroke:#ffffff;stroke-width:10.7"
       d="m 6362.3249,43964.056 c -39.9121,44.122 -78.2434,295.854 -127.7766,232.307 -20.8798,-26.789 -33.1266,-59.304 -49.69,-88.956"
       id="path329" /><path
       style="fill:none;stroke:#ffffff;stroke-width:10.7"
       d="m 6146.5257,44004.373 c 115.9118,2.736 199.4622,84.069 282.5279,155.512 5.049,4.341 16.5791,20.825 12.777,15.359 -13.7303,-19.746 -28.3951,-38.825 -42.5926,-58.238"
       id="path331" /><path
       style="fill:none;stroke:#ffffff;stroke-width:10.7"
       d="m 6463.1261,43735.591 c 28.8684,3.199 60.6097,-3.358 86.605,9.599 34.9753,17.431 61.9268,48.347 88.0227,77.435 100.4334,111.951 182.6902,253.537 129.196,408.935 -15.2154,44.199 -78.4498,141.076 -126.3571,81.275"
       id="path333" /><path
       style="fill:none;stroke:#ffffff;stroke-width:10.7"
       d="m 3795.4435,43610.797 c -39.2795,17.066 -81.4551,28.607 -117.8385,51.197 -35.8542,22.262 -67.2656,51.517 -96.5412,81.915 -262.1822,272.241 422.8727,322.168 356.3525,594.524 -38.2529,156.62 -336.5103,286.743 -482.7095,296.302 -64.5211,4.217 -49.919,-18.603 -44.0122,-50.559"
       id="path335" /><path
       style="fill:none;stroke:#ffffff;stroke-width:10.7"
       d="m 7239.7213,43985.175 c 150.7482,1.542 302.0886,20.516 452.8971,17.28 26.9698,-0.58 -53.9575,-0.03 -80.9255,0.637"
       id="path337" /><path
       style="fill:none;stroke:#ffffff;stroke-width:10.7"
       d="m 7276.6344,44097.168 c 151.7994,15.036 305.7231,-40.743 457.1555,-10.88 55.058,10.859 46.5162,10.845 25.5556,28.797"
       id="path339" /><path
       style="fill:none;stroke:#ffffff;stroke-width:10.7"
       d="m 8435.1392,43681.833 c 222.1138,-69.916 -256.468,37.137 -215.7992,106.235 71.6415,121.719 389.3021,99.801 462.8335,296.302 65.7762,175.776 -357.446,332.917 -403.2054,266.221 -24.5816,-35.827 35.4478,-84.011 48.2706,-98.552"
       id="path341" /><path
       style="fill:none;stroke:#ffffff;stroke-width:10.7"
       d="m 9352.2893,43805.346 c -116.6352,-38.982 -254.3598,-15.33 -288.2075,125.433 -21.9448,91.263 27.3553,175.141 58.2102,255.982 18.459,48.363 10.3254,88.432 5.678,83.196 -19.9533,-22.485 -19.286,-56.957 -29.8141,-85.114"
       id="path343" /><path
       style="fill:none;stroke:#ffffff;stroke-width:10.7"
       d="m 8933.4663,44072.21 c -21.1487,-54.708 -90.1075,6.268 -124.9357,-17.28 -5.8833,-3.977 14.2608,-1.612 21.2955,-0.641 34.7287,4.805 68.5848,17.394 103.6402,17.921 137.55,2.066 192.0042,-24.112 332.2183,4.479"
       id="path345" /><path
       style="fill:none;stroke:#ffffff;stroke-width:10.7"
       d="m 9866.2324,43790.627 c -53.9496,42.024 -115.4295,75.853 -161.8491,126.071 -94.4732,102.203 -64.4895,199.308 22.7153,286.703 21.4923,21.539 80.3772,71.784 123.5178,69.117 28.1075,-1.741 30.6525,-31.578 36.9131,-49.919"
       id="path347" /><path
       style="fill:none;stroke:#ffffff;stroke-width:10.7"
       d="m 10121.785,43913.499 c -26.975,26.879 -59.422,49.207 -80.925,80.635 -35.632,52.078 0.04,188.568 -55.3696,51.197"
       id="path349" /><path
       style="fill:none;stroke:#ffffff;stroke-width:10.7"
       d="m 9921.602,43892.38 c 97.969,77.124 209.448,133.197 316.602,195.829 15.73,9.194 31.334,18.605 46.85,28.157 3.892,2.397 15.244,10.088 11.359,7.681 -11.455,-7.102 -22.716,-14.507 -34.074,-21.76"
       id="path351" /><path
       style="fill:none;stroke:#ffffff;stroke-width:10.7"
       d="m 10502.276,43851.423 c -16.941,10.104 30.673,191.558 22.715,194.548 -8.809,3.31 -17.984,-5.546 -26.975,-8.319"
       id="path353" /><path
       style="fill:none;stroke:#ffffff;stroke-width:10.7"
       d="m 10405.731,43964.696 c 44.486,-8.747 88.29,-22.317 133.458,-26.239 83.24,-7.223 157.592,7.673 146.231,25.599"
       id="path355" /><path
       style="fill:none;stroke:#ffffff;stroke-width:10.7"
       d="m 10851.531,43806.626 c -4.433,3.966 142.85,344.747 99.38,227.185"
       id="path357" /><path
       style="fill:none;stroke:#ffffff;stroke-width:10.7"
       d="m 10994.923,43631.916 c 45.905,17.921 99.756,22.334 137.715,53.758 38.269,31.682 57.606,81.476 79.504,126.072 60.864,123.952 58.52,241.009 -42.591,341.098 -62.647,62.016 -60.951,48.794 -126.356,33.279"
       id="path359" /><path
       style="fill:none;stroke:#ffffff;stroke-width:10.7"
       d="m 11440.72,43822.625 c 128.193,-16.79 258.049,-20.878 384.747,7.679"
       id="path361" /><path
       style="fill:none;stroke:#ffffff;stroke-width:10.7"
       d="m 12429.099,43572.11 c -126.144,7.826 -231.583,138.221 -237.095,263.665 -3.123,71.078 21.777,97.655 56.79,150.389 8.064,12.147 36.213,28.311 24.136,36.479 -8.546,5.778 -95.777,-30.428 -109.322,-35.198"
       id="path363" /><path
       style="fill:none;stroke:#ffffff;stroke-width:10.7"
       d="m 11967.687,43916.41 c 121.089,-83.767 250.487,-44.474 383.326,-49.917"
       id="path365" /><path
       style="fill:none;stroke:#ffffff;stroke-width:10.7"
       d="m 12887.676,43650.826 c -41.186,36.764 -110.892,335.849 -24.136,327.02 22.12,-2.252 40.699,-17.92 61.049,-26.879"
       id="path367" /><path
       style="fill:none;stroke:#ffffff;stroke-width:10.7"
       d="m 13148.907,43725.701 c -19.211,53.147 -19.136,197.175 -100.802,207.348 -24.085,2.998 -48.272,-5.122 -72.408,-7.681"
       id="path369" /><path
       style="fill:none;stroke:#ffffff;stroke-width:10.7"
       d="m 12908.97,43806.975 c 95.318,-11.752 180.882,24.429 264.07,66.556 21.246,10.761 37.305,35.272 61.049,37.119 46.795,3.635 110.374,-86.056 126.358,-119.674"
       id="path371" /><path
       style="fill:none;stroke:#ffffff;stroke-width:10.7"
       d="m 13192.919,43405.722 c 116.456,14.435 122.42,1.955 225.735,71.675 193.077,130.294 454.693,428.789 325.12,680.916 -38.329,74.581 -36.711,64.892 -93.703,70.395"
       id="path373" /><path
       style="fill:none;stroke:#ffffff;stroke-width:10.7"
       d="m 3238.6639,45118.084 c 172.5152,-56.711 -121.3692,26.254 -90.8635,20.478 30.5057,-5.775 59.8337,-19.425 90.8635,-20.478 74.0791,-2.517 147.6319,13.459 221.4787,19.838 27.2802,2.358 95.377,12.105 123.5163,18.558 9.1074,2.09 34.3455,8.35 25.5555,11.52 -17.436,6.289 -36.9236,-3.302 -55.3696,-5.12"
       id="path375" /><path
       style="fill:none;stroke:#ffffff;stroke-width:10.7"
       d="m 3231.5649,45295.352 c 162.0721,40.555 346.3943,-22.715 502.5855,18.56"
       id="path377" /><path
       style="fill:none;stroke:#ffffff;stroke-width:10.7"
       d="m 4512.1664,44858.26 c -45.4316,43.09 -95.1052,82.111 -136.2948,129.273 -251.0361,287.433 354.2419,344.89 248.4538,595.802 -53.3418,126.516 -208.824,198.736 -325.1192,247.663 -93.9609,39.532 -87.9028,-2.474 -61.0492,-66.556"
       id="path383" /><path
       style="fill:none;stroke:#ffffff;stroke-width:10.7"
       d="m 5551.4119,45076.486 c 257.2181,-64.614 -211.4566,41.188 -254.1318,160.631 -13.3731,37.428 -17.11,78.751 -14.198,118.391 2.4302,33.086 189.9385,300.381 32.6546,208.626"
       id="path385" /><path
       style="fill:none;stroke:#ffffff;stroke-width:10.7"
       d="m 5094.258,45431.663 c 157.6834,-121.873 367.8155,2.103 535.2401,-56.955"
       id="path387" /><path
       style="fill:none;stroke:#ffffff;stroke-width:10.7"
       d="m 6124.9862,45114.882 c 35.8122,-37.997 137.0844,-102.827 0,0 -41.2088,30.911 -171.4198,85.712 -163.2698,171.511 12.2189,128.64 108.7424,180.986 195.9229,107.513"
       id="path389" /><path
       style="fill:none;stroke:#ffffff;stroke-width:10.7"
       d="m 6386.217,45194.879 c -13.9895,31.062 -54.1123,347.242 -129.1957,164.47"
       id="path391" /><path
       style="fill:none;stroke:#ffffff;stroke-width:10.7"
       d="m 6217.2692,45205.118 c 160.9045,89.504 94.33,45.662 218.6382,135.671 78.5693,56.89 84.1719,53.684 117.8382,-47.996"
       id="path393" /><path
       style="fill:none;stroke:#ffffff;stroke-width:10.7"
       d="m 6653.1276,45099.526 c 62.7116,166.87 27.1947,61.129 66.7272,200.946 5.6091,19.838 31.9201,62.28 11.3575,60.795 -35.8146,-2.582 -63.5657,-33.422 -95.122,-50.556"
       id="path395" /><path
       style="fill:none;stroke:#ffffff;stroke-width:10.7"
       d="m 6533.8696,45262.715 c -22.7155,-6.826 -61.3204,-43.195 -68.1466,-20.478 -10.4926,34.914 361.1589,9.035 420.2409,2.558"
       id="path397" /><path
       style="fill:none;stroke:#ffffff;stroke-width:10.7"
       d="m 6949.852,45092.485 c 41.7296,-35.221 229.8666,239.924 154.7516,206.066"
       id="path399" /><path
       style="fill:none;stroke:#ffffff;stroke-width:10.7"
       d="m 7091.8248,44858.9 c 28.8684,6.398 65.3306,-1.338 86.605,19.199 33.896,32.718 45.4874,82.7 63.8881,126.071 54.152,127.635 107.2656,276.722 63.8882,415.975 -13.5282,43.429 -50.0253,110.588 -90.8632,65.276"
       id="path401" /><path
       style="fill:none;stroke:#ffffff;stroke-width:10.7"
       d="m 7615.7077,45139.843 c 128.4565,-18.169 264.5019,-17.201 390.4282,0"
       id="path403" /><path
       style="fill:none;stroke:#ffffff;stroke-width:10.7"
       d="m 8407.9202,44801.944 c -62.1623,-102.704 -156.6608,13.713 -95.1217,83.195 140.5131,158.644 527.5379,255.302 599.1284,437.092 51.9176,131.834 -159.824,204.197 -239.9353,228.465 -99.0047,29.99 -51.1305,-23.109 -18.4566,-58.875"
       id="path405" /><path
       style="fill:none;stroke:#ffffff;stroke-width:10.7"
       d="m 9109.2695,44979.852 c -107.2301,36.584 -151.4287,123.174 -133.4542,234.225 8.9569,55.338 21.4672,85.273 41.1715,133.752 13.2593,32.623 19.9239,43.723 17.0371,44.157 -29.2897,4.402 -53.2898,-25.893 -79.5042,-39.677"
       id="path407" /><path
       style="fill:none;stroke:#ffffff;stroke-width:10.7"
       d="m 8843.7802,45297.913 c 98.6954,72.964 -93.5241,-40.809 -69.5676,-31.999 23.9561,8.808 44.3222,35.764 69.5676,31.999 45.3875,-6.771 78.7731,-50.607 123.5165,-60.796 71.9762,-16.396 182.6268,0.987 259.8113,7.038"
       id="path409" /><path
       style="fill:none;stroke:#ffffff;stroke-width:10.7"
       d="m 9597.6602,44947.213 c -15.1443,17.92 -32.3731,34.266 -45.4332,53.758 -44.0957,65.807 -85.8033,120.37 -63.8882,204.788 12.3317,47.5 97.5003,149.995 161.8507,123.51 20.8203,-8.567 34.0741,-29.438 51.1111,-44.157"
       id="path411" /><path
       style="fill:none;stroke:#ffffff;stroke-width:10.7"
       d="m 9965.3704,45011.211 c -0.01,0 -29.1338,304.506 -96.5412,261.104 -11.9022,-7.665 -17.0383,-22.614 -25.5574,-33.92"
       id="path413" /><path
       style="fill:none;stroke:#ffffff;stroke-width:10.7"
       d="m 9792.1638,45065.606 c 118.5868,48.207 227.8512,111.953 346.4132,161.909 23.05,9.713 90.015,40.556 70.987,24.321 -34.016,-29.025 -74.921,-48.84 -112.157,-73.597"
       id="path415" /><path
       style="fill:none;stroke:#ffffff;stroke-width:10.7"
       d="m 10047.717,44799.382 c -27.068,34.756 9.978,-84.783 34.071,-72.953 49.618,24.36 138.209,122.184 156.172,155.509 132.544,245.893 89.247,451.157 -168.949,556.765"
       id="path417" /><path
       style="fill:none;stroke:#ffffff;stroke-width:10.7"
       d="m 10972.702,45113.475 c 54.516,26.514 707.703,-22.501 302.404,38.396"
       id="path433" /><path
       style="fill:none;stroke:#ffffff;stroke-width:10.7"
       d="m 11042.27,45204.989 c 41.172,2.558 82.27,8.361 123.517,7.678 184.873,-3.061 549.493,-40.968 407.465,-15.359"
       id="path435" /><path
       style="fill:none;stroke:#ffffff;stroke-width:10.7"
       d="m 12274.599,44849.169 c -53.949,48.638 -105.825,99.677 -161.847,145.913 -74.933,61.841 -157.404,113.993 -234.259,173.429 -18.582,14.369 -60.464,38.269 -44.012,55.036 45.855,46.733 407.46,36.978 469.933,39.036 56.305,1.858 112.613,4.665 168.949,4.482 9.152,-0.03 27.639,4.009 26.975,-5.119 -2.896,-39.831 -135.539,-295.556 -160.429,-333.42 -18.817,-28.628 -43.54,-52.904 -65.31,-79.357 z"
       id="path437" /><path
       style="fill:none;stroke:#ffffff;stroke-width:10.7"
       d="m 12782.866,44680.86 c -18.007,10.692 -117.775,69.548 -129.197,78.076 -304.557,227.375 455.768,360.449 467.093,519.647 9,126.502 -209.599,279.344 -325.119,257.905 -17.686,-3.284 -12.242,-37.476 -11.359,-48.639"
       id="path439" /><path
       style="fill:none;stroke:#ffffff;stroke-width:10.7"
       d="m 13501.253,44914.447 c 23.188,-13.652 83.218,-17.769 69.566,-40.957 -13.653,-23.191 -44.438,31.329 -69.566,40.957 -72.605,27.818 -146.127,12.47 -185.987,90.874 -56.915,111.95 112.488,200.721 185.987,248.944 19.206,12.602 76.878,41.476 53.95,42.878 -68.013,4.157 -81.274,-4.395 -132.037,-23.04"
       id="path441" /><path
       style="fill:none;stroke:#ffffff;stroke-width:10.7"
       d="m 13190.328,45158.271 c 130.241,-15.917 259.061,9.11 387.59,-16.639"
       id="path443" /><path
       style="fill:none;stroke:#ffffff;stroke-width:10.7"
       d="m 14074.826,44810.773 c -36.44,55.462 -84.317,104.918 -109.319,166.388 -35.743,87.884 69.306,286.29 167.529,197.75"
       id="path445" /><path
       style="fill:none;stroke:#ffffff;stroke-width:10.7"
       d="m 14334.638,44956.042 c -43.292,-7.149 -66.26,176.377 -105.061,200.308 -12.299,7.586 -14.61,-24.947 -21.297,-37.756"
       id="path447" /><path
       style="fill:none;stroke:#ffffff;stroke-width:10.7"
       d="m 14134.454,44985.482 c 171.211,12.55 342.619,57.28 506.845,107.514 2.263,0.69 -4.832,0.68 -7.099,0 -16.298,-4.9 -32.179,-11.094 -48.269,-16.64"
       id="path449" /><path
       style="fill:none;stroke:#ffffff;stroke-width:10.7"
       d="m 14510.684,44568.867 c -8.992,-20.265 -6.71,-69.787 -26.975,-60.796 -20.266,8.993 12.323,44.159 26.975,60.796 60.009,68.143 141.425,117.038 194.504,190.709 54.759,76.001 73.302,220.546 59.628,311.02 -5.879,38.899 -25.809,74.491 -42.591,110.072 -8.897,18.865 -22.415,35.184 -34.074,52.478 -3.02,4.479 -15.323,13.229 -9.938,12.8 12.333,-0.981 22.716,-9.813 34.074,-14.721"
       id="path451" /><path
       style="fill:none;stroke:#ffffff;stroke-width:10.7"
       d="m 3421.9148,46617.419 c 33.6005,33.491 76.3045,59.846 100.8015,100.473 183.0787,303.631 -232.896,333.097 -259.8129,187.508 -16.5616,-89.578 250.8938,-48.472 283.9474,-22.397 6.5424,5.159 0.9462,16.637 1.4195,24.958"
       id="path459" /><path
       style="fill:none;stroke:#ffffff;stroke-width:10.7"
       d="m 3093.9553,47101.869 c -36.9131,10.451 -73.8264,20.904 -110.7395,31.358 -5.2057,2.133 -20.583,3.754 -15.6175,6.398 38.7977,20.669 82.5045,-34.695 126.357,-37.756 102.516,-7.16 205.3265,12.972 308.0819,11.52 250.2334,-3.543 500.4768,-35.785 751.041,-39.68 10.0486,-0.156 -19.8343,3.299 -29.8141,4.479 -54.8603,6.499 -109.7928,12.375 -164.6893,18.561"
       id="path461" /><path
       style="fill:none;stroke:#ffffff;stroke-width:10.7"
       d="m 3453.1484,47284.256 c 49.6908,22.4 101.8566,39.966 149.072,67.197 29.5868,17.063 58.8434,37.441 79.5057,64.635 196.7082,258.91 -534.1106,184.271 -168.9494,35.838 68.7377,-27.94 144.5964,-33.425 217.2203,-48.636"
       id="path463" /><path
       style="fill:none;stroke:#ffffff;stroke-width:10.7"
       d="m 3954.3147,47330.974 c -5.937,38.571 -148.7313,259.199 -188.8241,235.506 -54.3584,-32.126 -70.1138,-213.374 -70.9875,-216.948 -6.3076,-25.813 -34.9681,-50.663 -25.5555,-75.515 7.0447,-18.597 61.5846,26.615 114.9995,38.396 55.784,12.306 118.5627,-5.513 170.3676,18.561 45.8576,21.31 65.7714,77.6 105.0613,109.432 36.1219,29.268 80.1804,47.133 119.258,72.316 15.277,9.847 55.9086,37.766 72.4067,57.597 4.89,5.876 -12.0743,-9.544 -17.0371,-15.359"
       id="path465" /><path
       style="fill:none;stroke:#ffffff;stroke-width:10.7"
       d="m 4860.1073,46874.044 c -75.4902,136.168 -174.7674,250.822 -306.6643,334.057 -54.4616,34.37 -86.8235,37.828 -78.0846,44.797 11.4808,9.157 29.3462,-1.177 44.0121,-1.918 31.7127,-1.606 63.3767,-4.408 95.1217,-5.12 206.7636,-4.638 414.3843,19.243 620.4241,13.438 1.997,-0.06 -3.8042,-1.227 -5.678,-1.921 -16.5835,-6.133 -33.8894,-10.625 -49.6916,-18.557 -42.1267,-21.149 -426.0377,-320.562 -424.501,-322.541 5.8105,-7.482 18.9296,0.855 28.3946,1.281"
       id="path467" /><path
       style="fill:none;stroke:#ffffff;stroke-width:10.7"
       d="m 5666.5162,46886.201 c -81.4517,14.476 -171.7473,-7.879 -188.8241,95.356 -8.9601,54.166 38.5966,112.75 66.7271,149.749 26.5563,34.93 73.6627,77.29 49.6904,79.357 -30.674,2.643 -61.522,-2.562 -92.283,-3.842"
       id="path469" /><path
       style="fill:none;stroke:#ffffff;stroke-width:10.7"
       d="m 5339.9778,47140.905 c 110.1881,-64.042 256.459,-38.925 380.4886,-35.197"
       id="path471" /><path
       style="fill:none;stroke:#ffffff;stroke-width:10.7"
       d="m 6171.9424,46839.484 c -228.636,81.425 -17.2395,398.333 66.7271,257.265"
       id="path473" /><path
       style="fill:none;stroke:#ffffff;stroke-width:10.7"
       d="m 6434.5927,46883.003 c 39.9404,77.086 -21.6543,232.587 -122.0968,212.465 -24.9732,-5.003 -45.4311,-23.037 -68.1466,-34.557 70.6031,-164.289 11.828,-133.941 211.5407,-109.433 26.7227,3.28 119.0639,14.503 156.171,38.398 11.3471,7.307 -27.3674,-2.32 -39.7537,-7.68"
       id="path475" /><path
       style="fill:none;stroke:#ffffff;stroke-width:10.7"
       d="m 6506.9996,46660.935 c 29.8146,0 62.6713,-13.12 89.4437,0 89.3596,43.794 276.3758,260.874 256.9723,371.817 -19.8985,113.773 -92.6785,233.357 -201.6027,170.23"
       id="path477" /><path
       style="fill:none;stroke:#ffffff;stroke-width:10.7"
       d="m 7063.5369,46829.885 c 9.1717,29.131 602.8017,-46.501 344.9952,15.999 -38.1209,9.242 -76.6654,16.64 -114.998,24.958"
       id="path479" /><path
       style="fill:none;stroke:#ffffff;stroke-width:10.7"
       d="m 7089.0908,46941.237 c 25.5556,2.562 50.9966,8.504 76.667,7.681 110.0508,-3.524 219.4216,-19.187 329.3774,-24.958 69.7365,-3.662 78.7183,-9.885 46.8527,4.48"
       id="path481" /><path
       style="fill:none;stroke:#ffffff;stroke-width:10.7"
       d="m 8082.9061,46387.674 c 71.8301,12.779 46.6015,-3.818 95.1235,60.155 27.0039,35.605 194.5634,218.035 120.6772,280.302 -31.2753,26.358 -256.4265,80.201 -264.0713,-3.198 -11.2842,-123.1 175.2653,-169.315 259.8113,-157.43 16.8066,2.36 29.3415,17.066 44.0124,25.598"
       id="path483" /><path
       style="fill:none;stroke:#ffffff;stroke-width:10.7"
       d="m 7817.4152,46867.003 c 308.2626,-13.589 616.8279,-43.365 924.2491,-72.316 80.1243,-7.546 162.0001,-6.805 239.9353,-26.879 6.446,-1.659 -13.2422,1.374 -19.876,1.921 -32.1734,2.654 -64.3618,5.12 -96.5428,7.678"
       id="path485" /><path
       style="fill:none;stroke:#ffffff;stroke-width:10.7"
       d="m 8170.9305,47080.109 c -7.099,-17.706 -3.5917,-60.216 -21.2971,-53.115 -17.7056,7.099 4.3765,44.307 21.2971,53.115 93.8004,48.826 107.4452,-49.008 163.2686,74.237 95.2915,210.381 -347.504,126.114 -200.1816,52.475 34.1847,-17.087 72.0481,-26.109 109.3197,-34.557 44.8358,-10.163 90.8624,-14.079 136.2935,-21.119"
       id="path487" /><path
       style="fill:none;stroke:#ffffff;stroke-width:10.7"
       d="m 8700.4912,47058.35 c 13.4268,90.728 -33.8984,294.148 -149.0718,144.632"
       id="path489" /><path
       style="fill:none;stroke:#ffffff;stroke-width:10.7"
       d="m 8436.4214,47032.111 c 49.6906,12.375 100.8692,19.836 149.0721,37.119 130.7319,46.876 256.3209,122.131 379.069,186.87 17.9994,9.49 56.7894,42.746 56.7894,22.397 0,-9.758 -9.4655,-17.066 -14.1983,-25.599"
       id="path491" /><path
       style="fill:none;stroke:#ffffff;stroke-width:10.7"
       d="m 9597.7652,46504.146 c 17.9829,-7.681 61.6281,-5.056 53.9485,-23.037 -7.6792,-17.984 -35.9063,15.499 -53.9485,23.037 -46.7931,19.552 -97.1235,32.051 -140.5551,58.237 -176.7769,106.577 -76.3553,191.244 46.8513,284.142 27.7794,20.944 79.774,31.144 80.9252,65.915 0.9941,30.025 -56.6044,23.336 -86.6031,24.958"
       id="path493" /><path
       style="fill:none;stroke:#ffffff;stroke-width:10.7"
       d="m 9254.1881,46839.484 c 106.2636,-114.707 358.3753,-11.922 464.2546,-103.031"
       id="path495" /><path
       style="fill:none;stroke:#ffffff;stroke-width:10.7"
       d="m 10064.857,46513.745 c 169.416,-124.963 1.103,-2.098 0,0 -31.556,60.039 -67.0108,127.124 -59.628,194.548 2.961,27.04 234.602,237.397 264.07,179.829"
       id="path497" /><path
       style="fill:none;stroke:#ffffff;stroke-width:10.7"
       d="m 10421.212,46615.498 c 17.018,51.094 -70.6,265.774 -126.358,225.907 -21.707,-15.521 -30.287,-43.945 -45.431,-65.916"
       id="path499" /><path
       style="fill:none;stroke:#ffffff;stroke-width:10.7"
       d="m 10225.288,46634.696 c 128.745,-58.134 257.847,147.389 336.477,165.111 17.564,3.958 26.624,-40.627 26.975,-41.598"
       id="path501" /><path
       style="fill:none;stroke:#ffffff;stroke-width:10.7"
       d="m 10702.318,46514.385 c -6.78,3.506 74.829,234.707 63.888,240.625 -10.012,5.416 -78.543,-34.626 -86.603,-39.036"
       id="path503" /><path
       style="fill:none;stroke:#ffffff;stroke-width:10.7"
       d="m 10608.616,46669.897 c 119.766,84.791 -114.183,-63.744 -85.184,-48.639 28.999,15.105 52.492,48.091 85.184,48.639 38.585,0.643 68.756,-37.312 106.481,-45.44 62.572,-13.48 112.033,29.573 159.01,-19.838"
       id="path505" /><path
       style="fill:none;stroke:#ffffff;stroke-width:10.7"
       d="m 10925.218,46507.985 c 95.766,69.855 66.213,31.93 119.256,129.273 11.175,20.507 19.908,42.291 31.236,62.716 1.076,1.94 3.995,7.324 4.26,5.12 1.144,-9.543 -0.948,-19.201 -1.421,-28.8"
       id="path507" /><path
       style="fill:none;stroke:#ffffff;stroke-width:10.7"
       d="m 11092.747,46250.082 c 29.341,13.653 64.465,18.77 88.024,40.958 111.334,104.852 154.667,309.914 82.343,445.413 -13.756,25.77 -90.816,146.147 -103.64,76.792"
       id="path509" /><path
       style="fill:none;stroke:#ffffff;stroke-width:10.7"
       d="m 11618.047,46578.383 c 79.236,-10.266 163.999,-28.512 244.197,-20.479"
       id="path511" /><path
       style="fill:none;stroke:#ffffff;stroke-width:10.7"
       d="m 12357.731,46344.155 c -59.156,8.321 -120.709,6.329 -177.467,24.961 -32.779,10.76 -62.067,33.97 -83.764,60.796 -78.469,97.014 90.544,199.845 133.454,261.741 10.171,14.671 -34.722,-8.919 -51.111,-15.999"
       id="path513" /><path
       style="fill:none;stroke:#ffffff;stroke-width:10.7"
       d="m 11978.661,46597.581 c -22.242,-10.24 -87.548,-17.833 -66.727,-30.718 93.155,-57.648 351.98,-3.104 462.834,-23.681"
       id="path515" /><path
       style="fill:none;stroke:#ffffff;stroke-width:10.7"
       d="m 12768.035,46332.638 c -329.006,-22.614 -19.998,263.662 119.256,263.662"
       id="path517" /><path
       style="fill:none;stroke:#ffffff;stroke-width:10.7"
       d="m 13012.229,46413.272 c 8.045,-21.119 45.255,-55.311 24.136,-63.357 -21.118,-8.043 -21.608,40.899 -24.136,63.357 -5.632,50.027 5.184,100.954 0,151.029 -4.924,47.567 -57.085,88.631 -95.124,43.519 -40.13,-47.593 -71.804,-101.814 -110.739,-150.392 -14.19,-17.703 -31.281,-32.954 -48.269,-47.995 -9.592,-8.496 -25.912,-10.745 -31.235,-22.4 -2.951,-6.461 14.427,-1.161 21.297,0.641 39.714,10.411 78.584,23.809 117.838,35.837 120.43,36.904 140.889,42.196 234.256,73.594 38.369,12.904 77,25.077 114.997,39.039 5.633,2.07 21.237,11.071 15.619,8.959 -50.692,-19.042 -47.51,-23.466 -96.541,-61.436"
       id="path519" /><path
       style="fill:none;stroke:#ffffff;stroke-width:10.7"
       d="m 13093.154,46175.845 c 20.823,-11.305 38.909,-36.449 62.467,-33.916 73.239,7.874 155.314,114.757 184.566,163.189 120.315,199.202 25.766,398.14 -181.727,479.97"
       id="path521" /><path
       style="fill:none;stroke:#ffffff;stroke-width:10.7"
       d="m 3138.6829,48107.706 c 30.6699,-36.677 399.6256,70.586 435.86,35.197 13.3757,-13.065 -36.7437,-7.334 -55.3696,-8.961"
       id="path523" /><path
       style="fill:none;stroke:#ffffff;stroke-width:10.7"
       d="m 3030.7839,48270.255 c -18.4565,11.306 -66.6752,15.46 -55.3696,33.917 11.3059,18.458 33.8349,-36.089 55.3696,-33.917 118.9231,11.997 232.1343,59.555 350.6748,74.875 133.3257,17.229 268.8532,4.209 403.2038,8.959"
       id="path525" /><path
       style="fill:none;stroke:#ffffff;stroke-width:10.7"
       d="m 9500.5184,46282.539 c -89.521,27.355 -233.5464,-8.993 -316.6007,53.117 -130.8613,97.865 -12.283,381.559 24.1361,494.689 10.9196,33.92 56.0345,261.364 66.7274,275.823 26.8197,36.267 89.3588,-12.898 133.4542,-22.4 118.1241,-25.445 432.0522,-114.643 550.858,-59.515 11.3041,5.247 11.3581,22.185 17.0371,33.279"
       id="path527" /><path
       style="fill:none;stroke:#ffffff;stroke-width:10.7"
       d="m 13113.747,46001.599 c 107.491,23.826 343.252,-14.28 394.686,119.671 12.803,33.343 -35.433,160.951 -36.914,176.628 -4.276,45.299 0.339,91.318 7.099,136.313 25.337,168.622 49.292,142.349 44.013,271.981 -0.894,21.934 -5.644,79.449 -28.397,96.634 -81.593,61.632 -227.597,96.06 -326.536,86.394 -10.29,-1.002 13.494,-16.441 22.715,-21.116"
       id="path529" /><path
       style="fill:none;stroke:#ffffff;stroke-width:10.7"
       d="m 4777.0583,47817.802 c 50.637,54.824 109.598,102.994 151.911,164.47 12.6495,18.378 13.0879,45.064 7.099,66.556 -24.7009,88.646 -109.3456,99.267 -194.5036,90.234 -40.5498,-4.3 -114.7821,-43.22 -103.6405,-99.833 15.0617,-76.531 253.3338,-54.467 237.0966,22.4"
       id="path531" /><path
       style="fill:none;stroke:#ffffff;stroke-width:10.7"
       d="m 4444.8403,48194.741 c -57.3627,10.916 -64.9944,12.824 -120.6775,21.756 -8.9676,1.44 -35.673,6.454 -26.9751,3.839 131.6225,-39.555 305.4056,-32.58 431.6,-35.835 250.531,-6.461 258.1224,-5.418 478.451,-1.28 48.2738,0.905 97.0656,10.374 144.8118,3.199 4.3418,-0.651 -8.4574,-2.413 -12.777,-3.199 -17.9343,-3.268 -35.9667,-5.975 -53.9501,-8.962"
       id="path533" /><path
       style="fill:none;stroke:#ffffff;stroke-width:10.7"
       d="m 4647.8622,48364.968 c 287.5878,48.488 137.7024,394.753 -52.5306,235.506 -129.6755,-108.553 109.5245,-175.781 190.2452,-162.55"
       id="path535" /><path
       style="fill:none;stroke:#ffffff;stroke-width:10.7"
       d="m 5056.7456,48363.688 c 20.3499,21.333 53.7967,35.422 61.0494,63.997 15.2374,60.034 -130.2803,241.263 -176.0471,209.267 -34.6102,-24.199 -42.095,-61.473 -53.9501,-97.274"
       id="path537" /><path
       style="fill:none;stroke:#ffffff;stroke-width:10.7"
       d="m 4845.2049,48395.686 c 161.3291,33.417 307.2439,108.035 454.3165,178.549 17.9351,8.599 64.1678,47.726 58.2089,12.801"
       id="path539" /><path
       style="fill:none;stroke:#ffffff;stroke-width:10.7"
       d="m 5973.8957,47965.633 c -33.6005,2.135 -69.9207,-7.014 -100.8013,6.4 -82.741,35.941 -81.6358,149.365 -55.3696,215.667 22.2806,56.24 62.5391,100.407 103.6402,142.711 18.1049,18.635 81.7192,62.894 58.2086,51.837 -12.5502,-5.903 -24.6086,-12.8 -36.9131,-19.201"
       id="path541" /><path
       style="fill:none;stroke:#ffffff;stroke-width:10.7"
       d="m 5706.9853,48254.896 c 77.1562,-104.719 222.8813,-91.495 340.7368,-93.435 31.5518,-0.518 109.7648,-5.151 92.2827,21.119"
       id="path543" /><path
       style="fill:none;stroke:#ffffff;stroke-width:10.7"
       d="m 6527.5926,47988.032 c -26.2892,45.083 -92.8198,144.151 -99.382,204.788 -11.5035,106.299 98.7343,114.845 166.1092,84.473"
       id="path545" /><path
       style="fill:none;stroke:#ffffff;stroke-width:10.7"
       d="m 6797.342,48088.505 c -107.7408,134.371 -56.2211,300.524 -217.2187,131.194"
       id="path547" /><path
       style="fill:none;stroke:#ffffff;stroke-width:10.7"
       d="m 6536.1112,48123.065 c 120.4724,-124.619 238.3983,200.919 330.7984,165.748 13.6785,-5.207 14.1971,-25.598 21.2956,-38.396"
       id="path549" /><path
       style="fill:none;stroke:#ffffff;stroke-width:10.7"
       d="m 6983.3271,48053.308 c -36.1392,63.732 120.2764,142.049 112.1587,193.267 -2.7805,17.545 -35.7021,-3.27 -52.529,-8.959"
       id="path551" /><path
       style="fill:none;stroke:#ffffff;stroke-width:10.7"
       d="m 6871.1681,48175.54 c 94.597,-50.88 181.7656,-44.797 282.5279,-44.797"
       id="path553" /><path
       style="fill:none;stroke:#ffffff;stroke-width:10.7"
       d="m 7211.9049,47986.111 c 47.1905,68.453 163.4429,314.053 147.6523,214.387"
       id="path555" /><path
       style="fill:none;stroke:#ffffff;stroke-width:10.7"
       d="m 7263.016,47768.526 c 35.4931,9.813 76.762,7.691 106.4792,29.438 130.81,95.726 322.1395,380.69 137.7146,511.328"
       id="path557" /><path
       style="fill:none;stroke:#ffffff;stroke-width:10.7"
       d="m 7954.4273,48007.23 c 125.9464,-20.798 257.4274,17.389 383.3278,3.202"
       id="path559" /><path
       style="fill:none;stroke:#ffffff;stroke-width:10.7"
       d="m 8810.5266,47643.735 c 3.3131,-23.04 32.9779,-65.804 9.9396,-69.117 -23.0386,-3.312 -31.3534,59.994 -9.9396,69.117 42.8861,18.267 94.6002,-27.85 139.1354,-14.081 38.4262,11.883 115.9785,117.401 119.2564,163.83 7.6976,109.035 -283.1533,172.818 -308.0821,106.873 -56.4232,-149.256 241.6103,-239.278 285.3671,-103.674"
       id="path561" /><path
       style="fill:none;stroke:#ffffff;stroke-width:10.7"
       d="m 8553.5559,48082.745 c 269.9705,-105.653 568.3109,-123.843 854.6795,-156.789 78.7797,-9.062 161.7785,-13.102 239.9353,-30.718"
       id="path563" /><path
       style="fill:none;stroke:#ffffff;stroke-width:10.7"
       d="m 8894.2924,48112.185 c 29.3269,45.218 250.1392,175.951 194.5036,246.383 -73.012,92.432 -270.9153,92.374 -362.0338,35.838 -133.042,-82.548 325.0081,-141.454 333.6393,-142.711"
       id="path565" /><path
       style="fill:none;stroke:#ffffff;stroke-width:10.7"
       d="m 9298.9157,48164.023 c 55.6773,74.803 60.5681,272.041 -76.6654,193.907"
       id="path567" /><path
       style="fill:none;stroke:#ffffff;stroke-width:10.7"
       d="m 9108.6721,48219.059 c 20.8229,-4.909 41.2591,-17.519 62.4686,-14.719 146.3686,19.301 303.5721,75.395 444.377,119.03"
       id="path569" /><path
       style="fill:none;stroke:#ffffff;stroke-width:10.7"
       d="m 9964.773,47581.018 c -40.762,18.021 -158.7635,68.035 -183.1462,90.874 -97.1852,91.027 -166.0014,151.12 -44.0121,242.544 50.2764,37.682 112.8075,55.454 170.3689,80.637 22.9791,10.051 47.5155,16.113 70.9859,24.958 5.4284,2.045 21.3005,6.514 15.6175,7.678 -60.0218,12.301 -119.5289,-27.059 -178.8877,-42.238"
       id="path571" /><path
       style="fill:none;stroke:#ffffff;stroke-width:10.7"
       d="m 9585.7036,47932.996 c 132.7309,-101.539 317.5948,-25.73 471.3524,-58.877"
       id="path573" /><path
       style="fill:none;stroke:#ffffff;stroke-width:10.7"
       d="m 10414.828,47597.658 c -18.93,2.559 -43.097,-5.641 -56.789,7.678 -126.114,122.672 184.207,278.167 271.17,301.422 22.479,6.011 30.544,-9.39 44.012,-22.4"
       id="path575" /><path
       style="fill:none;stroke:#ffffff;stroke-width:10.7"
       d="m 10812.354,47646.294 c -20.583,68.051 3.615,243.983 -96.542,264.943 -7.497,1.569 -62.478,-48.062 -63.888,-49.276"
       id="path577" /><path
       style="fill:none;stroke:#ffffff;stroke-width:10.7"
       d="m 10559.643,47713.49 c -3.313,-20.905 -30.513,-57.748 -9.938,-62.717 61.269,-14.795 333.037,110.628 391.846,139.512 25.507,12.526 76.366,21.686 69.566,49.276 -5.374,21.805 -40.42,-19.722 -59.628,-31.358"
       id="path579" /><path
       style="fill:none;stroke:#ffffff;stroke-width:10.7"
       d="m 10873.403,47315.435 c 26.501,7.252 57.508,5.294 79.504,21.759 33.525,25.096 57.25,61.799 79.507,97.274 117.085,186.603 175.281,409.179 -1.421,581.084 -61.199,59.536 -76.927,60.219 -133.454,74.234"
       id="path581" /><path
       style="fill:none;stroke:#ffffff;stroke-width:10.7"
       d="m 3117.3921,49428.86 c 179.0787,5.906 358.9494,-3.537 538.0792,-7.678 6.1851,-0.143 165.9665,-6.122 193.0841,0.641 22.8132,5.688 -170.7925,64.074 -188.8257,69.114"
       id="path583" /><path
       style="fill:none;stroke:#ffffff;stroke-width:10.7"
       d="m 3209.6751,49662.448 c 23.1886,4.053 46.1086,14.131 69.5661,12.157 76.4534,-6.429 150.8797,-28.866 227.1583,-37.118 148.3251,-16.044 293.3446,-18.896 440.1169,6.4"
       id="path585" /><path
       style="fill:none;stroke:#ffffff;stroke-width:10.7"
       d="m 4947.4306,49197.837 c 1.8931,20.905 13.0421,43.058 5.6796,62.714 -12.2466,32.697 -39.5018,57.642 -61.0492,85.117 -91.9784,117.271 -213.4931,208.679 -303.8237,325.739 -24.5914,31.869 80.6561,8.794 120.6775,4.479 62.4779,-6.736 124.7532,-15.613 187.4047,-20.479 189.8925,-14.75 358.9644,-15.936 543.7587,-20.478 13.3556,-0.329 -15.0919,-22.165 -24.1345,-31.999 -21.5591,-23.448 -44.1664,-45.932 -65.3077,-69.755 -56.1922,-63.323 -104.7451,-133.374 -163.2701,-194.548 -77.0393,-80.523 -133.6487,-123.463 -239.9353,-140.79 z"
       id="path587" /><path
       style="fill:none;stroke:#ffffff;stroke-width:10.7"
       d="m 5768.0379,49139.599 c 89.3678,15.976 90.0488,-4.484 130.6153,88.316 77.3993,177.059 -269.9562,175.911 -247.0343,97.274 23.1444,-79.404 238.5708,-125.111 289.6269,-65.278"
       id="path589" /><path
       style="fill:none;stroke:#ffffff;stroke-width:10.7"
       d="m 5423.0427,49441.021 c -26.9751,10.665 -91.5913,5.022 -80.9252,31.998 10.6659,26.975 51.9483,-30.673 80.9252,-31.998 103.6383,-4.739 207.2807,9.387 310.9209,14.078 127.3034,-10.451 254.5551,-21.553 381.9099,-31.358 25.0404,-1.926 50.1758,-2.344 75.2456,-3.839 9.5081,-0.567 37.8415,-1.982 28.3948,-3.199 -5.6327,-0.725 -11.358,0 -17.0373,0"
       id="path591" /><path
       style="fill:none;stroke:#ffffff;stroke-width:10.7"
       d="m 5814.889,49567.732 c 32.181,13.013 67.3251,20.297 96.5428,39.04 178.903,114.757 3.6999,276.606 -156.1709,220.144 -71.4012,-25.215 -81.3025,-94.713 1.4195,-118.391 36.1458,-10.348 122.6672,-15.989 176.0469,-19.841"
       id="path593" /><path
       style="fill:none;stroke:#ffffff;stroke-width:10.7"
       d="m 6162.7245,49594.611 c 18.4566,0.426 45.5166,-14.332 55.3699,1.281 24.3988,38.658 -57.6929,200.208 -78.0864,237.424 -8.1976,14.962 -17.9555,53.861 -29.8141,41.598 -8.1113,-8.388 -10.4,-20.966 -14.1965,-31.999 -14.2047,-41.28 -26.5025,-83.193 -39.7536,-124.791"
       id="path595" /><path
       style="fill:none;stroke:#ffffff;stroke-width:10.7"
       d="m 6030.6898,49633.648 c 150.4669,73.221 -77.4936,-82.6 -45.4316,-85.114 54.901,-4.305 308.3941,175.575 360.6125,206.706 61.5376,36.687 119.0832,63.651 117.837,47.358 -0.8761,-11.451 -8.518,-21.331 -12.777,-31.999"
       id="path597" /><path
       style="fill:none;stroke:#ffffff;stroke-width:10.7"
       d="m 6655.3721,49131.921 c -96.7465,-7.95 -228.9519,56.044 -210.121,175.348 11.9433,75.668 59.3508,106.375 114.9993,149.751 32.3117,25.186 81.7219,48.779 72.4067,57.597 -17.7226,16.777 -47.743,-10.485 -70.9872,-17.92"
       id="path599" /><path
       style="fill:none;stroke:#ffffff;stroke-width:10.7"
       d="m 6370.0052,49401.984 c 37.86,-13.012 73.9603,-33.295 113.5801,-39.039 45.7314,-6.628 313.345,-24.035 353.5135,23.04"
       id="path601" /><path
       style="fill:none;stroke:#ffffff;stroke-width:10.7"
       d="m 7224.6866,49084.563 c -348.847,132.975 -9.4131,470.657 95.1217,348.139"
       id="path603" /><path
       style="fill:none;stroke:#ffffff;stroke-width:10.7"
       d="m 7453.2644,49167.119 c -114.1455,-18.082 -87.7321,277.548 -136.2951,286.062 -27.043,4.739 -48.8582,-52.488 -55.3696,-65.278"
       id="path605" /><path
       style="fill:none;stroke:#ffffff;stroke-width:10.7"
       d="m 7174.9966,49231.114 c 214.3069,66.878 202.9248,56.332 393.2655,139.512 5.4637,2.386 20.1438,10.432 14.1983,10.879 -41.489,3.117 -67.7034,-48.543 -99.382,-75.514"
       id="path607" /><path
       style="fill:none;stroke:#ffffff;stroke-width:10.7"
       d="m 7441.9069,48928.414 c -5.2059,-27.945 -21.1564,-55.954 -15.6176,-83.836 5.1496,-25.923 81.3933,19.635 141.9728,70.396 44.0264,36.89 88.7275,74.842 122.0986,121.591 111.5788,156.314 123.0569,396.82 -78.0862,483.172"
       id="path609" /></g></svg>
