<?xml version="1.0" encoding="UTF-8" standalone="no"?>
<!-- Created with Inkscape (http://www.inkscape.org/) -->

<svg
   width="1651.4039mm"
   height="506.64252mm"
   viewBox="0 0 1651.4039 506.64256"
   version="1.1"
   id="svg12"
   inkscape:version="1.2.1 (9c6d41e410, 2022-07-14, custom)"
   sodipodi:docname="recall_directional_derivatives.svg"
   xmlns:inkscape="http://www.inkscape.org/namespaces/inkscape"
   xmlns:sodipodi="http://sodipodi.sourceforge.net/DTD/sodipodi-0.dtd"
   xmlns="http://www.w3.org/2000/svg"
   xmlns:svg="http://www.w3.org/2000/svg">
  <sodipodi:namedview
     id="namedview14"
     pagecolor="#505050"
     bordercolor="#eeeeee"
     borderopacity="1"
     inkscape:showpageshadow="0"
     inkscape:pageopacity="0"
     inkscape:pagecheckerboard="0"
     inkscape:deskcolor="#505050"
     inkscape:document-units="mm"
     showgrid="true"
     inkscape:zoom="0.13255831"
     inkscape:cx="2481.9267"
     inkscape:cy="1697.3663"
     inkscape:window-width="1366"
     inkscape:window-height="746"
     inkscape:window-x="0"
     inkscape:window-y="0"
     inkscape:window-maximized="1"
     inkscape:current-layer="layer1"
     inkscape:lockguides="false"
     showguides="true">
    <inkscape:grid
       type="xygrid"
       id="grid344"
       color="#969696"
       opacity="0.39215686"
       empcolor="#000000"
       empopacity="0.17254902"
       dotted="false"
       originx="-177.33094"
       originy="226.77091" />
    <sodipodi:guide
       position="96.51991,273.87809"
       orientation="0,-1"
       id="guide2196"
       inkscape:locked="false" />
  </sodipodi:namedview>
  <defs
     id="defs9" />
  <g
     inkscape:label="Layer 1"
     inkscape:groupmode="layer"
     id="layer1"
     transform="translate(-282.33096,78.270826)">
    <path
       style="fill:none;stroke:#ffffff;stroke-width:1.5;stroke-dasharray:none"
       d="m 285.01173,104.82254 c 12.93752,28.00757 15.57666,57.74323 11.05584,88.05829 -1.16308,7.79919 -2.41152,13.77218 -3.32752,13.03494 -1.78117,-1.43357 -4.80883,-11.42319 -5.25954,-12.74524"
       id="path9587" />
    <path
       style="fill:none;stroke:#ffffff;stroke-width:1.5;stroke-dasharray:none"
       d="m 283.07959,135.23743 c 0.91003,-15.02793 3.85151,-66.660852 35.31438,-52.043297 24.99791,11.613954 39.56603,46.759437 34.56297,72.609507 -1.49349,7.71664 -4.70862,15.14378 -8.69439,21.91804 -8.32559,14.15028 -39.16894,38.98384 -43.36475,7.53133"
       id="path9589" />
    <path
       style="fill:none;stroke:#ffffff;stroke-width:1.5;stroke-dasharray:none"
       d="m 386.66122,188.14964 c 1.82475,6.21172 3.29884,12.5374 5.47426,18.63517 1.83958,5.15641 3.95932,10.23837 6.54765,15.0626 19.63263,36.59202 30.99546,-28.71659 9.87518,-35.04954"
       id="path9591" />
    <path
       style="fill:none;stroke:#ffffff;stroke-width:1.5;stroke-dasharray:none"
       d="m 388.80802,159.37621 c 12.35349,2.81157 9.24444,2.52513 25.22454,3.47597 5.96893,0.35516 19.14507,1.78888 17.49617,-3.95876 -1.62961,-5.6804 -22.92069,-29.29269 -26.08329,-24.23533 -1.41869,2.26865 5.26765,1.12042 7.9431,1.15862"
       id="path9593" />
    <path
       style="fill:none;stroke:#ffffff;stroke-width:1.5;stroke-dasharray:none"
       d="m 543.5901,135.91331 c -3.54219,0.28966 -7.95554,-1.47554 -10.62654,0.86898 -2.79127,2.45011 -2.36839,7.11353 -2.68343,10.8142 -1.58509,18.61991 22.02768,41.94319 21.253,45.38094 -0.59904,2.65837 -4.84394,3.3229 -6.7623,3.86215"
       id="path9595" />
    <path
       style="fill:none;stroke:#ffffff;stroke-width:1.5;stroke-dasharray:none"
       d="m 513.96468,181.00456 c 16.1862,-13.42169 35.86107,-14.50662 55.70866,-16.60752"
       id="path9597" />
    <path
       style="fill:none;stroke:#ffffff;stroke-width:1.5;stroke-dasharray:none"
       d="m 627.0994,79.525076 c -4.07887,-0.225295 -9.169,-3.373625 -12.23658,-0.675883 -7.40368,6.511065 -10.11304,38.153447 -10.30449,43.739477 -1.1344,33.10025 14.74459,86.23101 52.81049,93.07917"
       id="path9599" />
    <path
       style="fill:none;stroke:#ffffff;stroke-width:1.5;stroke-dasharray:none"
       d="m 689.78507,161.40387 c 1.32384,3.2185 0.75303,10.97937 3.97152,9.65552 3.21853,-1.32385 -4.01965,-6.17572 -3.97152,-9.65552 0.13596,-9.83444 3.5039,-19.37572 4.50823,-29.15968 0.0772,-0.75219 -1.07318,-30.45403 0.64402,-34.47019 0.3597,-0.841251 0.58844,1.732888 0.85868,2.60699 1.41145,4.56535 2.53579,9.22634 4.18621,13.71083 3.61839,9.83179 25.92832,45.55645 23.82917,53.29845 -0.68421,2.52349 -6.68411,0.64863 -7.51372,0.4828"
       id="path9601" />
    <path
       style="fill:none;stroke:#ffffff;stroke-width:1.5;stroke-dasharray:none"
       d="m 688.28234,153.00356 c -4.18619,-2.70355 -9.59927,-4.10119 -12.55861,-8.11067 -3.64561,-4.93928 34.20946,-12.91121 36.81709,-15.15914 2.53762,-2.18757 0.97459,-5.34497 0.322,-7.62787"
       id="path9603" />
    <path
       style="fill:none;stroke:#ffffff;stroke-width:1.5;stroke-dasharray:none"
       d="m 706.10049,54.131069 c 4.86601,-1.029927 9.85771,-4.59582 14.59802,-3.08978 8.66618,2.75332 23.48708,34.125045 24.15121,35.628871 13.33302,30.19076 18.5215,59.71325 13.52463,92.40329 -0.99229,6.49169 -5.04928,27.75384 -13.30997,30.89769"
       id="path9605" />
    <path
       style="fill:none;stroke:#ffffff;stroke-width:1.5;stroke-dasharray:none"
       d="m 824.92418,110.7124 c 0.10435,-0.1937 38.02374,-7.81833 31.02083,3.66906"
       id="path9607" />
    <path
       style="fill:none;stroke:#ffffff;stroke-width:1.5;stroke-dasharray:none"
       d="m 824.49486,130.69933 c 15.68347,6.72119 32.0013,-3.38574 47.65821,1.06207"
       id="path9609" />
    <path
       style="fill:none;stroke:#ffffff;stroke-width:1.5;stroke-dasharray:none"
       d="m 940.5277,75.952503 c 0.14311,-3.089759 0.23431,-6.18236 0.42931,-9.26928 0.19502,-3.086921 -0.51842,6.177494 -0.42931,9.26928 0.55631,19.295758 1.8965,32.456867 9.33849,49.629397"
       id="path9611" />
    <path
       style="fill:none;stroke:#ffffff;stroke-width:1.5;stroke-dasharray:none"
       d="m 965.96691,124.03698 c 1.05995,-15.03509 4.7295,-29.711197 8.58708,-44.222267 0.1293,-0.486476 4.55938,-22.022567 5.47431,-21.724887 11.77753,3.831942 15.17533,23.730987 19.42824,33.021881 0.71986,1.57272 -0.9031,-3.388339 -0.85873,-5.117431 0.11393,-4.441481 2.60329,-19.019758 10.73389,-14.48332 8.9243,4.979326 4.5645,11.568988 8.587,16.22127 0.8004,0.925645 0.6421,-2.377196 1.1807,-3.475963 3.6148,-7.374115 6.361,-13.977758 16.1009,-15.641937 11.9772,-2.046443 18.7579,19.057019 15.9934,27.42166"
       id="path9613" />
    <path
       style="fill:none;stroke:#ffffff;stroke-width:1.5;stroke-dasharray:none"
       d="m 911.86832,186.31508 c 4.29355,4.98868 9.57903,9.27211 12.88063,14.96605 1.47056,2.53608 4.72512,17.1592 5.68899,22.01459 0.19005,0.95743 -0.4609,3.29708 0.42932,2.89669 0.47077,-0.21175 2.89761,-14.83059 6.65504,-18.24893 10.06154,-9.15358 22.26444,10.48828 23.72172,17.86268"
       id="path9615" />
    <path
       style="fill:none;stroke:#ffffff;stroke-width:1.5;stroke-dasharray:none"
       d="m 960.06329,203.79157 c 3.0055,-1.25522 5.89407,-2.83878 9.01649,-3.76566 9.16417,-2.72037 20.06248,-2.40141 28.55196,-7.33818 7.15506,-4.16078 12.02216,-21.08991 0,-22.40077 -0.40116,-0.0437 -13.92597,1.69186 -12.3439,4.5381 0.50329,0.90544 29.97686,-3.51849 37.67576,4.24839 4.932,4.97554 -8.5151,28.8326 -6.1183,22.98017"
       id="path9617" />
    <path
       style="fill:none;stroke:#ffffff;stroke-width:1.5;stroke-dasharray:none"
       d="m 1041.9625,181.3908 c 2.7551,5.31053 4.307,11.44543 8.2651,15.93157 1.802,2.04244 5.1179,2.49563 7.8358,2.31736 28.6708,-1.88056 29.1655,-34.04909 11.3778,-30.2218 -9.7677,2.10166 -18.3191,7.98191 -27.4787,11.97287 z"
       id="path9619" />
    <path
       style="fill:none;stroke:#ffffff;stroke-width:1.5;stroke-dasharray:none"
       d="m 1059.5661,141.99627 c -0.2147,-4.05532 -0.4294,-8.11065 -0.6441,-12.16597 -0.322,-0.57932 -0.6809,-2.3363 -0.9659,-1.73795 -2.1303,4.47139 0.8784,9.86438 1.61,13.90392 1.5382,8.49298 2.605,17.06479 3.9715,25.5871 3.6885,23.00436 4.832,25.55374 6.655,48.56727 0.1915,2.41735 1.5129,30.65475 0.644,18.53862"
       id="path9621" />
    <path
       style="fill:none;stroke:#ffffff;stroke-width:1.5;stroke-dasharray:none"
       d="m 1309.8793,62.821012 c -21.9607,10.275134 -28.1505,29.023257 -19.9649,51.463898 2.9462,8.07697 6.7475,12.78567 11.4852,19.79384 3.5929,5.31472 5.1033,7.14509 3.6495,7.14509 -2.646,0 -5.0807,-1.48054 -7.621,-2.22081"
       id="path9623" />
    <path
       style="fill:none;stroke:#ffffff;stroke-width:1.5;stroke-dasharray:none"
       d="m 1268.4467,119.20925 c 21.1809,-4.29433 45.7963,-12.19914 67.8379,-8.5934"
       id="path9625" />
    <path
       style="fill:none;stroke:#ffffff;stroke-width:1.5;stroke-dasharray:none"
       d="m 1410.5629,24.392059 c 1.3238,-3.121962 2.6476,-6.243926 3.9714,-9.365887 -0.2504,-0.321842 -0.592,-1.340959 -0.7512,-0.965523 -1.4083,3.320976 -1.4763,7.173767 -3.2202,10.33141 -14.2557,25.812181 -35.9104,45.99905 -21.2531,77.920031 9.6062,20.92056 29.0582,29.56725 46.6923,41.90492"
       id="path9627" />
    <path
       style="fill:none;stroke:#ffffff;stroke-width:1.5;stroke-dasharray:none"
       d="m 1455.9671,118.43682 c 0.7155,-4.3128 1.3311,-8.6434 2.1467,-12.9384 3.5141,-18.505747 8.2283,-36.567144 9.7679,-55.422715 0.3877,-4.748794 0.4165,-9.526508 0.3219,-14.290167 -0.07,-3.543048 0.7667,-13.246303 -1.5027,-10.524503 -8.6417,10.364648 20.3398,61.286308 26.8346,71.354288 5.2274,8.103197 15.3736,21.742447 14.8127,22.593927 -0.3266,0.49573 -5.3257,-1.26889 -5.5816,-1.35177"
       id="path9629" />
    <path
       style="fill:none;stroke:#ffffff;stroke-width:1.5;stroke-dasharray:none"
       d="m 1459.5092,99.705103 c 9.9722,-7.923313 14.5377,-9.768011 25.6539,-10.138317"
       id="path9631" />
    <path
       style="fill:none;stroke:#ffffff;stroke-width:1.5;stroke-dasharray:none"
       d="m 1563.6275,71.12477 c -25.5966,-9.266881 3.8308,-18.779733 3.7568,-13.421191 -0.091,6.571163 -3.5284,24.085251 -16.208,11.296933 -4.3892,-4.42682 7.1033,-20.091426 14.1686,-16.51091 13.0244,6.600484 -6.8225,30.816108 -14.92,17.476494 -2.4533,-4.041418 1.9434,-9.415486 4.2936,-13.517737 7.5745,-13.221687 22.1807,18.566426 8.909,14.676411 -27.25,-7.987139 4.3506,-21.312185 4.5083,-10.814201 0.059,3.904985 -3.0055,7.209467 -4.5083,10.814201 z"
       id="path9633" />
    <path
       style="fill:none;stroke:#ffffff;stroke-width:1.5;stroke-dasharray:none"
       d="m 1641.6626,22.267802 c 2.5761,5.728951 5.3944,11.355038 7.7283,17.186854 1.8569,4.639892 3.2511,9.452025 4.8303,14.19362 1.0685,3.208369 2.1097,6.426094 3.1128,9.655527 0.3568,1.148437 -0.2105,3.226967 0.966,3.475966 1.9913,0.421455 2.6159,-35.368767 15.8862,-26.84232 7.2938,4.686448 23.2055,34.500356 13.6319,26.262983"
       id="path9635" />
    <path
       style="fill:none;stroke:#ffffff;stroke-width:1.5;stroke-dasharray:none"
       d="m 1711.1105,16.377938 c 0.6441,6.4692 0.1088,13.167352 1.9322,19.4076 2.563,8.771583 10.0962,16.272079 17.4961,21.049065 27.1214,17.508304 31.752,-50.0838587 22.6484,-56.19514436 -2.3786,-1.59675748 -5.7839,0.42894036 -7.8356,1.35176766"
       id="path9637" />
    <path
       style="fill:none;stroke:#ffffff;stroke-width:1.5;stroke-dasharray:none"
       d="m 1699.6254,-29.87198 c 4.0073,1.673628 7.9128,3.615529 12.0219,5.020886 43.7547,14.964688 -14.3359,-50.393931 4.7229,-38.525559"
       id="path9639" />
    <path
       style="fill:none;stroke:#ffffff;stroke-width:1.5;stroke-dasharray:none"
       d="m 1443.9452,19.757419 c 5.3311,-2.671374 10.5139,-5.662016 15.9934,-8.01412 4.7382,-2.0339212 9.7032,-3.4961446 14.598,-5.1174324 4.3378,-1.4368079 8.7399,-2.6725486 13.0953,-4.0553029 12.5364,-3.9800701 11.2273,-1.61325211 0.7514,-5.6967696 -6.7547,-2.6329859 -23.9244,-8.1469971 -21.8971,-18.8282611 0.609,-3.208812 6.8797,-0.752815 9.7677,0.77243 5.3961,2.849747 29.9696,19.4738131 22.3265,28.8700329 -9.671,11.8893211 -40.2088,4.2514621 -48.9464,3.4759651 -5.3862,-0.478046 -21.045,-3.0931617 -16.208,-0.675884 9.3469,4.671103 -3.0062,-7.1458131 10.5192,9.269342 z"
       id="path9641" />
    <path
       style="fill:none;stroke:#ffffff;stroke-width:1.5;stroke-dasharray:none"
       d="m 1774.7623,-63.955932 c 0.6499,12.133292 -0.3949,7.472402 5.7963,22.49732 15.9609,38.7343783 39.2596,84.431266 32.4161,127.839071 -3.85,24.419861 -11.7925,41.196891 -27.586,58.029701 -8.9784,9.56919 -7.2687,9.3241 -12.2365,3.86221"
       id="path9643" />
    <path
       style="fill:none;stroke:#ffffff;stroke-width:1.5;stroke-dasharray:none"
       d="m 1344.335,191.62561 c -3.1844,1.80237 -6.3687,3.60475 -9.5531,5.40713 -0.072,0.4184 -0.5841,1.46431 -0.2147,1.25522 24.0157,-13.59304 -8.61,-5.49754 40.574,3.08972 6.5972,1.15183 13.3898,-0.42756 20.0722,-0.86898 9.8864,-0.65306 19.7564,-1.53781 29.6255,-2.4139 48.0012,-4.26108 95.8242,-9.79961 143.9408,-12.74524 67.2266,-4.11551 134.2532,-4.46647 201.5817,-3.37942 30.1998,0.48759 61.2403,0.81541 91.2377,5.21398 3.6011,0.52805 7.1357,1.48004 10.6265,2.51038 1.111,0.32792 2.6835,0.46905 3.1129,1.54492 0.3389,0.8492 -1.0734,1.4805 -1.6101,2.22074"
       id="path9645" />
    <path
       style="fill:none;stroke:#ffffff;stroke-width:1.5;stroke-dasharray:none"
       d="m 1541.9452,264.911 c -0.9661,-2.89665 0,-9.65597 -2.8982,-8.68995 -2.8966,0.96603 2.5711,5.65404 2.8982,8.68995 0.8504,7.89393 -2.9551,21.48211 2.576,28.87004 1.1135,1.48717 13.4854,-8.53564 14.9201,-8.88309 16.889,-4.09036 22.5606,23.61969 23.9364,34.75987"
       id="path9647" />
    <path
       style="fill:none;stroke:#ffffff;stroke-width:1.5;stroke-dasharray:none"
       d="m 1243.8663,17.440069 c 0.9302,-4.441549 1.8605,-8.8830971 2.7907,-13.3246453 -0.036,-0.1930924 -0.067,-0.7714847 -0.1073,-0.5792769 -0.9676,4.619925 -1.789,9.2692812 -2.6834,13.9039222 -2.0752,5.793316 -4.9225,11.36574 -6.2257,17.379947 -16.2792,75.128644 -22.221,210.240014 55.0646,257.126454 12.7109,7.71128 27.6218,11.00728 41.4327,16.5109"
       id="path9649" />
    <path
       style="fill:none;stroke:#ffffff;stroke-width:1.5;stroke-dasharray:none"
       d="m 1892.8347,-77.763366 c 5.1164,5.568021 11.6136,10.129456 15.3492,16.704064 17.1893,30.252709 20.4959,86.448475 23.0777,119.631858 5.7409,73.784104 -0.4399,144.385474 -55.9231,197.938134"
       id="path9651" />
    <path
       style="fill:none;stroke:#ffffff;stroke-width:1.5;stroke-dasharray:none"
       d="m 332.81364,343.34557 c -14.3142,4.19354 -21.92001,54.30263 4.50818,38.04269 4.50878,-2.774 8.65093,-6.37112 11.80726,-10.62104 4.79051,-6.4503 9.31371,-19.37546 -0.75135,-23.84914 -1.34085,-0.59598 -3.16345,-0.88503 -4.40092,-0.0965 -4.45436,2.83819 2.40588,10.57045 5.47425,14.8695 7.6275,10.68674 36.73803,36.31952 29.84013,56.2917 -6.82806,19.76993 -37.03993,5.09804 -42.61339,-8.20722 -1.01689,-2.42755 1.35964,-5.08524 2.03947,-7.62789"
       id="path9653" />
    <path
       style="fill:none;stroke:#ffffff;stroke-width:1.5;stroke-dasharray:none"
       d="m 390.66907,400.50623 c 2.58042,-9.0464 -0.93623,-18.10827 -0.32204,-27.13202 0.45813,-6.73107 2.29589,-13.66453 4.93756,-19.89039 2.57981,-6.0801 4.93826,-7.8341 5.04494,-7.72443 6.70552,6.89361 7.43417,37.12091 20.50165,45.38096 1.4351,0.90712 -5.42023,-22.38573 -4.61558,-22.69048 6.76346,-2.56164 25.45898,5.34744 35.20705,-0.28964 11.92474,-6.89581 3.52351,-13.57601 -4.61557,-9.26928 -22.60655,11.96208 -15.26778,42.80654 11.59254,28.58034 3.78081,-2.00247 6.2972,-5.79334 9.44581,-8.69002"
       id="path9655" />
    <path
       style="fill:none;stroke:#ffffff;stroke-width:1.5;stroke-dasharray:none"
       d="m 469.99216,353.58036 c 4.29355,5.0209 7.96071,10.6538 12.88066,15.06265 4.57976,4.10404 10.73849,6.16578 15.34937,10.2348 25.16872,22.21106 -32.79531,41.85206 -41.64732,15.44886"
       id="path9657" />
    <path
       style="fill:none;stroke:#ffffff;stroke-width:1.5;stroke-dasharray:none"
       d="m 594.61214,373.0845 c 5.76051,6.53359 11.50564,13.08076 17.2815,19.60075 3.34796,3.77928 6.98325,7.3169 10.08983,11.29694 1.6361,2.09611 3.03131,4.41145 4.07882,6.85544 0.17407,0.40613 -0.4522,1.5567 -0.64397,1.15863 -6.87589,-14.27339 -19.94591,-54.06609 10.19712,-50.40177 5.61738,2.1564 11.80553,3.19249 16.85213,6.4692 1.06373,0.69066 -1.75419,1.83416 -2.5761,2.80008 -3.35583,3.94382 -7.55361,8.91884 -8.80172,14.00053 -1.56759,6.38247 2.20063,12.95728 9.23103,14.29016 14.11644,2.67633 24.02063,-7.36027 32.84566,-16.41442 1.00841,-1.03459 3.74359,-15.45434 -1.50283,-11.00729 -8.36535,7.09074 1.92149,42.29547 20.07234,16.89715"
       id="path9659" />
    <path
       style="fill:none;stroke:#ffffff;stroke-width:1.5;stroke-dasharray:none"
       d="m 705.1708,357.63574 c -4.66463,-38.12731 5.26047,29.1112 5.36686,32.73216 0.0925,3.1482 -1.89119,10.0561 -4.50824,8.30376 -37.16168,-24.88279 12.04463,-19.26413 25.43932,-23.84914 5.15424,-1.7643 12.4229,-12.93839 1.93201,-12.93839 -18.00084,0 -11.51437,41.51003 14.4907,22.59391 2.80803,-2.04256 4.4367,-5.34271 6.65504,-8.01405"
       id="path9661" />
    <path
       style="fill:none;stroke:#ffffff;stroke-width:1.5;stroke-dasharray:none"
       d="m 752.39969,348.75262 c 1.68164,6.24393 1.84031,13.11524 5.04489,18.73173 6.47464,11.34777 31.04525,17.61493 31.23552,32.92533 0.17944,14.44051 -45.02735,19.00587 -48.19499,0.48274"
       id="path9663" />
    <path
       style="fill:none;stroke:#ffffff;stroke-width:1.5;stroke-dasharray:none"
       d="m 868.43255,404.65807 c -24.05594,-3.89601 -20.15485,-32.11986 0,-35.62887 17.60299,-3.06472 16.30119,21.22146 10.62651,30.02865 -2.16865,3.36581 -7.08435,3.73348 -10.62651,5.60022 z"
       id="path9665" />
    <path
       style="fill:none;stroke:#ffffff;stroke-width:1.5;stroke-dasharray:none"
       d="m 899.99004,347.98019 c -1.3734,13.42819 0.80036,25.77254 9.12381,36.59439 2.77318,3.60561 7.8654,5.58327 9.44581,9.84864 0.56219,1.51728 -3.23125,-0.23476 -4.83023,-0.48273"
       id="path9667" />
    <path
       style="fill:none;stroke:#ffffff;stroke-width:1.5;stroke-dasharray:none"
       d="m 887.10949,390.27135 c 12.83737,-9.15355 29.97774,-16.13646 46.15553,-13.71081"
       id="path9669" />
    <path
       style="fill:none;stroke:#ffffff;stroke-width:1.5;stroke-dasharray:none"
       d="m 1048.9759,366.80847 c -0.9661,-3.47599 0.5779,-11.39399 -2.8981,-10.42797 -3.476,0.96602 5.2546,7.69618 2.8981,10.42797 -4.2527,4.92996 -13.6565,2.52085 -18.1402,7.24162 -8.7751,9.23901 8.1678,36.70528 25.4392,17.37995"
       id="path9671" />
    <path
       style="fill:none;stroke:#ffffff;stroke-width:1.5;stroke-dasharray:none"
       d="m 1062.8225,354.73903 c 3.4706,6.9198 7.373,13.6394 10.4119,20.75937 1.5934,3.7334 2.2228,7.80915 3.4348,11.68317 4.5039,14.39551 10.1278,-20.66816 16.9595,-19.40758 8.6234,1.59118 4.3236,23.16197 11.6999,21.91803"
       id="path9673" />
    <path
       style="fill:none;stroke:#ffffff;stroke-width:1.5;stroke-dasharray:none"
       d="m 1112.8423,370.96031 c -1.3763,5.51927 -5.3711,11.74404 0.6439,16.41436 9.557,7.42045 17.9198,-6.52778 21.4678,-14.00046 0.6864,-1.44592 1.9486,-6.03736 1.8248,-4.44156 -0.5118,6.59615 -3.9442,41.86439 5.6889,19.1179"
       id="path9675" />
    <path
       style="fill:none;stroke:#ffffff;stroke-width:1.5;stroke-dasharray:none"
       d="m 1148.4786,365.64978 c 9.5668,18.75285 6.4479,7.68588 7.4064,21.04901 0.05,0.68911 -0.026,2.54743 0.4293,2.02771 0.097,-0.11035 11.3879,-27.63842 13.632,-23.75259 4.7868,8.28886 0.8131,34.04158 15.886,23.65599"
       id="path9677" />
    <path
       style="fill:none;stroke:#ffffff;stroke-width:1.5;stroke-dasharray:none"
       d="m 1190.126,367.19466 c -8.6217,-1.81764 -14.503,12.10868 -7.1917,16.02817 6.4915,3.48001 13.6908,0.45833 19.3209,-2.99324 2.2851,-1.40091 3.9509,-3.6845 5.4743,-5.88986 1.0456,-1.51368 1.233,-7.13033 1.5027,-5.31053 1.9884,13.41588 10.9619,30.42547 6.2256,44.02918 -2.419,6.94788 -11.7655,14.29986 -16.4228,3.95875 -1.9407,-4.30908 -2.1467,-9.20491 -3.2201,-13.80736"
       id="path9679" />
    <path
       style="fill:none;stroke:#ffffff;stroke-width:1.5;stroke-dasharray:none"
       d="m 1208.4808,388.34026 c 19.0655,-4.69373 0.9595,-0.51485 23.6145,-4.7312 32.6542,-6.07729 12.6648,-24.35817 -11.2705,-6.2761 -4.3988,3.32312 -14.7965,6.06986 -12.344,11.0073 11.0401,22.22662 47.4549,19.24289 65.7985,13.13149"
       id="path9681" />
    <path
       style="fill:none;stroke:#ffffff;stroke-width:1.5;stroke-dasharray:none"
       d="m 1331.8128,366.32566 c -5.0718,-10.25109 10.0449,-40.32395 3.4347,-10.1383"
       id="path9683" />
    <path
       style="fill:none;stroke:#ffffff;stroke-width:1.5;stroke-dasharray:none"
       d="m 1331.9201,385.92636 c -2.1961,7.26073 8.9941,59.17478 16.7448,30.12525"
       id="path9685" />
    <path
       style="fill:none;stroke:#ffffff;stroke-width:1.5;stroke-dasharray:none"
       d="m 1357.0372,384.57458 c 9.2483,-32.11417 -0.1297,-0.65537 0,0 1.2609,6.37244 6.2045,11.44122 9.8752,16.80062 1.0214,1.49117 2.5212,4.48924 4.0789,3.57256 3.6518,-2.14905 4.9326,-6.8911 7.4063,-10.33139 15.1669,-21.09378 15.5923,-18.365 21.897,2.99317 1.477,5.00354 2.1063,6.6729 4.5083,10.81421"
       id="path9687" />
    <path
       style="fill:none;stroke:#ffffff;stroke-width:1.5;stroke-dasharray:none"
       d="m 1506.9891,372.98795 c 0.3936,-2.89663 4.0774,-8.29636 1.1807,-8.68992 -2.8966,-0.3936 -2.9888,6.39291 -1.1807,8.68992 25.0699,31.84887 3.6606,-29.9198 23.9365,26.8424 8.1639,22.85474 -26.2861,37.33681 -32.3089,13.22803 -0.6434,-2.57553 -0.032,-5.65454 1.5027,-7.82098 10.1153,-14.28337 27.8734,1.0609 34.3484,-1.54485 5.898,-2.37357 1.4814,-37.40689 7.299,-42.96711 0.9275,-0.88646 3.8946,2.01663 8.0503,10.33142 4.4588,8.92127 15.4723,28.73375 13.5247,39.68417 -0.3275,1.84179 -1.3405,-3.54344 -1.5028,-5.40708 -0.3137,-3.60355 -2.1221,-14.0498 2.0395,-17.86266 1.1331,-1.03814 28.5899,15.96168 32.5235,0.96552 3.4381,-13.10711 -13.4493,-3.38719 -15.4567,3.8622 -3.7939,13.70029 1.762,28.40583 17.8182,21.14561 3.8678,-1.7489 6.798,-5.08524 10.1971,-7.62786"
       id="path9689" />
    <path
       style="fill:none;stroke:#ffffff;stroke-width:1.5;stroke-dasharray:none"
       d="m 1613.3615,382.54695 c -14.1874,21.63326 24.9365,25.70519 33.7044,11.49008 5.5931,-9.06793 4.3632,-26.31773 5.6887,-36.20822 0.5229,-3.90136 1.1321,-7.79071 1.7175,-11.68316 0.2551,-1.69611 1.027,-6.76105 0.5368,-5.11744 -4.5835,15.36767 -3.2095,33.13801 0.5368,48.47072 1.0682,4.37242 2.6402,8.60692 3.864,12.93841 0.4915,1.7399 2.1366,6.00218 0.4293,5.40706 -2.78,-0.96901 -5.2953,-2.5748 -7.943,-3.86221 -36.6215,-26.4455 15.4192,-16.18788 26.62,-6.95198 0.4294,-4.50589 0.8588,-9.01179 1.2881,-13.51768"
       id="path9691" />
    <path
       style="fill:none;stroke:#ffffff;stroke-width:1.5;stroke-dasharray:none"
       d="m 1669.6069,358.6978 c -2.4517,-9.55738 -9.2521,-26.39031 3.4347,-30.608"
       id="path9693" />
    <path
       style="fill:none;stroke:#ffffff;stroke-width:1.5;stroke-dasharray:none"
       d="m 1701.1644,360.33925 c 10.8987,20.82975 -16.223,21.72412 -16.5302,1.44833 -0.052,-3.41572 1.4395,-6.88284 3.435,-9.65552 8.6941,-12.08021 15.4756,-6.79627 24.3657,0.28969 -3.0096,-1.78522 3.1839,-22.47043 9.7679,-15.64199 6.2662,6.4988 8.7881,16.16784 8.587,24.91127 -0.058,2.50358 -0.5927,9.62643 -1.6101,7.33818 -5.8346,-13.12239 21.6203,-35.34443 25.6539,-5.40707"
       id="path9695" />
    <path
       style="fill:none;stroke:#ffffff;stroke-width:1.5;stroke-dasharray:none"
       d="m 1844.6759,338.61431 c -1.7996,12.21484 -2.8881,14.02567 2.3615,30.0287 10.4212,31.76863 40.819,-35.66943 27.586,-46.24998"
       id="path9697" />
    <path
       style="fill:none;stroke:#ffffff;stroke-width:1.5;stroke-dasharray:none"
       d="m 1821.3835,301.82683 c 4.5798,0 9.1676,0.27017 13.7394,0 3.3066,-0.19539 31.0493,-0.52025 31.9868,-8.11067 1.2231,-9.90293 -12.4513,-15.73847 -19.9649,-22.30424 -1.7245,-1.50699 -3.7073,-2.69489 -5.4743,-4.15189 -0.388,-0.31991 -1.2881,-1.54485 -0.9661,-1.15861 1.7429,2.09063 6.0482,7.25408 7.0844,8.49685"
       id="path9699" />
  </g>
</svg>
