<?xml version="1.0" encoding="UTF-8" standalone="no"?>
<!-- Created with Inkscape (http://www.inkscape.org/) -->

<svg
   width="20.990044mm"
   height="19.982035mm"
   viewBox="0 0 20.990043 19.982035"
   version="1.1"
   id="svg12"
   inkscape:version="1.2.1 (9c6d41e410, 2022-07-14, custom)"
   sodipodi:docname="rotating_Square.svg"
   xml:space="preserve"
   xmlns:inkscape="http://www.inkscape.org/namespaces/inkscape"
   xmlns:sodipodi="http://sodipodi.sourceforge.net/DTD/sodipodi-0.dtd"
   xmlns="http://www.w3.org/2000/svg"
   xmlns:svg="http://www.w3.org/2000/svg"><sodipodi:namedview
     id="namedview14"
     pagecolor="#000000"
     bordercolor="#ffffff"
     borderopacity="1"
     inkscape:showpageshadow="0"
     inkscape:pageopacity="0"
     inkscape:pagecheckerboard="0"
     inkscape:deskcolor="#000000"
     inkscape:document-units="mm"
     showgrid="true"
     inkscape:zoom="2.7063106"
     inkscape:cx="97.180272"
     inkscape:cy="60.968612"
     inkscape:window-width="1366"
     inkscape:window-height="746"
     inkscape:window-x="1360"
     inkscape:window-y="0"
     inkscape:window-maximized="1"
     inkscape:current-layer="layer1"
     inkscape:lockguides="true"
     showguides="true"><sodipodi:guide
       position="3265.6758,-22192.731"
       orientation="0,-1"
       id="guide3409"
       inkscape:locked="true" /></sodipodi:namedview><defs
     id="defs9"><rect
       x="587.26367"
       y="362.45731"
       width="66.575974"
       height="20.973427"
       id="rect1884" /></defs><g
     inkscape:label="Layer 1"
     inkscape:groupmode="layer"
     id="layer1"
     transform="translate(-243.69592,-128.01013)"><path
       style="fill:none;stroke:#ffb380;stroke-width:0.346001"
       d="m 245.45764,133.08867 c 0.0771,0.37993 0.1964,0.75369 0.23133,1.13978 0.0679,0.75078 -0.0391,1.50719 -0.0631,2.26065 -0.16071,5.03867 -0.0122,0.44252 -0.12618,3.26801 -0.0425,1.05283 -0.0579,2.10751 -0.12618,3.15923 -0.0254,0.38984 -0.36218,1.34101 -0.10514,1.71677 0.0103,0.0149 0.22497,-0.11551 0.38907,-0.13716 0.56221,-0.0742 1.12405,-0.19518 1.68767,-0.25538 0.97568,-0.10422 1.96829,0.0897 2.94949,0.0284 2.11469,-0.13224 4.19045,-0.2821 6.31434,-0.19863 1.26518,0.0497 2.53426,-0.009 3.80121,0.0142 0.0855,0.002 0.89586,0.0246 0.90956,-0.0189 0.24006,-0.76212 0.0365,-2.34977 0.0421,-3.23017 0.0148,-2.34587 0.0872,-4.68723 -0.35227,-7.00422 -0.15224,-0.80279 -0.23876,-1.62552 -0.18925,-2.4451 0.0257,-0.42471 0.13475,-0.81415 0.22608,-1.22491 0.003,-0.007 0.082,-0.30958 0.0368,-0.29795 -0.10223,0.0263 -0.23204,0.1677 -0.3207,0.21755 -0.25135,0.14131 -0.57028,0.23586 -0.85172,0.28849 -1.47561,0.27599 -3.02488,0.13204 -4.51625,0.19864 -1.36134,0.0608 -2.72235,0.26435 -4.07988,0.38308 -1.20811,0.10566 -2.43403,0.0574 -3.63823,0.19863 -0.70578,0.0828 -1.41049,0.30581 -2.10828,0.44457 -0.75509,0.15014 0.17074,-0.0141 -0.57309,0.12296 -0.47476,0.0875 -0.22457,-0.0585 -0.0736,0.21755 0.11443,0.20915 0.14292,0.44823 0.24712,0.65739 0.0854,0.17145 0.25564,0.30799 0.28916,0.49658 0.0386,0.21751 -0.0814,0.43649 -0.0841,0.65739 -0.006,0.47844 0.0561,0.85585 0,1.33369 -0.0198,0.1691 -0.17301,0.48175 -0.005,0.51077 0.0641,0.0111 0.1818,-0.38144 0.18402,-0.38781"
       id="path566" /><path
       style="fill:none;stroke:#ffb380;stroke-width:0.346001"
       d="m 251.3356,130.9699 c 0.66783,-1.17433 1.76863,-1.92317 2.88639,-2.62008 0.0992,-0.0618 0.39915,-0.22856 0.32073,-0.14188 -0.45707,0.50511 -2.4356,1.36782 -2.39744,2.09985 0.0316,0.60596 2.16863,1.81554 2.61826,2.21808 0.0627,0.0561 0.61957,0.54234 0.46791,0.75671"
       id="path568" /><path
       style="fill:none;stroke:#ffb380;stroke-width:0.346001"
       d="m 245.34723,141.31308 c 0.0907,-0.71245 -0.32531,-1.44069 -0.56782,-2.09512 -0.12362,-0.3336 -0.24572,-0.66786 -0.37854,-0.9979 -0.11443,-0.41986 -0.35864,-0.78331 -0.52049,-1.18235 -0.0754,-0.18593 0.23564,0.32493 0.347,0.49186 0.49652,0.74442 0.96536,1.51262 1.56673,2.18024 0.17738,0.1969 0.5221,0.5895 0.694,0.38781 0.16373,-0.19208 0.24916,-0.4392 0.38381,-0.65265 0.63899,-1.01288 1.32146,-1.93513 2.43427,-2.43564"
       id="path570" /><path
       style="fill:none;stroke:#ffb380;stroke-width:0.346001"
       d="m 255.47855,142.6042 c -0.19471,-0.93548 -2.89666,-0.24573 -3.22289,-0.50131 -0.0656,-0.0514 0.26768,-0.22146 0.78338,-0.23648 1.36607,-0.0398 2.10812,0.4496 2.46581,1.85392 0.23495,0.9224 -1.00976,3.05069 -1.041,4.09092 0,0.0317 0.0565,-0.0368 0.0683,-0.0662 0.0595,-0.14859 0.0946,-0.30583 0.14197,-0.45875"
       id="path572" /><path
       style="fill:none;stroke:#ffb380;stroke-width:0.346001"
       d="m 261.88752,135.14122 c -0.92403,0.30894 -0.41486,0.0373 -1.27232,0.89859 -0.26678,0.26797 -0.53814,0.53137 -0.80968,0.79454 -2.28457,2.2143 2.00401,-1.71975 2.082,-1.69313 0.42614,0.14544 0.39357,0.81931 0.67824,1.16816 0.50316,0.61661 1.35252,0.91056 2.0452,1.24383"
       id="path574" /></g></svg>
