<?xml version="1.0" encoding="UTF-8" standalone="no"?>
<!-- Created with Inkscape (http://www.inkscape.org/) -->

<svg
   width="210mm"
   height="297mm"
   viewBox="0 0 210 297"
   version="1.1"
   id="svg12"
   inkscape:version="1.2.1 (9c6d41e410, 2022-07-14, custom)"
   sodipodi:docname="rotation_collide.svg"
   xmlns:inkscape="http://www.inkscape.org/namespaces/inkscape"
   xmlns:sodipodi="http://sodipodi.sourceforge.net/DTD/sodipodi-0.dtd"
   xmlns="http://www.w3.org/2000/svg"
   xmlns:svg="http://www.w3.org/2000/svg">
  <sodipodi:namedview
     id="namedview14"
     pagecolor="#505050"
     bordercolor="#eeeeee"
     borderopacity="1"
     inkscape:showpageshadow="0"
     inkscape:pageopacity="0"
     inkscape:pagecheckerboard="0"
     inkscape:deskcolor="#505050"
     inkscape:document-units="mm"
     showgrid="false"
     inkscape:zoom="0.80495774"
     inkscape:cx="309.33301"
     inkscape:cy="190.07209"
     inkscape:window-width="1366"
     inkscape:window-height="746"
     inkscape:window-x="0"
     inkscape:window-y="0"
     inkscape:window-maximized="1"
     inkscape:current-layer="layer1"
     inkscape:lockguides="false" />
  <defs
     id="defs9" />
  <g
     inkscape:label="Layer 1"
     inkscape:groupmode="layer"
     id="layer1">
    <path
       style="fill:none;stroke:#00ffff;stroke-width:0.264999"
       d="m 105.78824,61.196614 c -9.999779,-1.44042 -13.948646,8.138786 -11.454202,16.584171 0.565193,1.913556 1.800672,4.501467 3.570597,5.724167 6.356145,4.390959 14.666265,-0.174344 17.906025,-6.232985 0.61136,-1.143302 1.13307,-2.409314 1.18431,-3.704798 0.11639,-2.942963 0.1775,-5.99406 -0.68939,-8.808857 -1.70282,-5.529076 -8.07097,-6.613882 -12.86828,-6.089874 -1.50494,0.164383 -2.75725,0.146782 -3.37616,1.494643"
       id="path306" />
    <path
       style="fill:none;stroke:#00ffff;stroke-width:0.264999"
       d="m 102.00552,76.715453 c 1.23532,-2.338041 2.37044,-4.740591 3.1287,-7.282405 0.45554,-1.527036 0.84284,-3.074495 1.20198,-4.627029 0.0934,-0.403798 0.31209,-1.346988 -0.0884,-1.240239 -0.64279,0.171336 -0.52733,1.25873 -0.53027,1.923954 -0.0122,2.750592 0.76446,5.427757 1.71458,7.982031 0.0742,0.199531 2.02325,3.199939 0.63636,2.528165"
       id="path308" />
    <path
       style="fill:none;stroke:#00ffff;stroke-width:0.264999"
       d="m 103.15449,73.058352 c 1.67143,-1.152589 3.4982,-1.830133 5.46194,-2.226065"
       id="path310" />
    <path
       style="fill:none;stroke:#00ffff;stroke-width:0.264999"
       d="m 74.978584,55.440648 c -0.665802,-0.503513 -1.258122,-1.122892 -1.997411,-1.510541 -0.730858,-0.38323 -3.919606,-0.543702 -4.224609,-0.556514 -6.481546,-0.27224 -10.652993,2.305865 -11.489542,9.254067 -0.137009,1.137968 -0.162962,3.214174 0.05302,4.324919 1.854206,9.535565 13.954355,10.223994 20.203919,4.579331 3.801338,-3.433402 5.230413,-10.717709 2.315581,-15.121334 -0.44672,-0.674888 -0.93857,-1.54297 -1.732264,-1.701339 -1.050314,-0.209574 -2.060035,0.660408 -3.128696,0.731411 -4.610158,0.306308 -1.803643,-1.037294 -3.977147,0.174908"
       id="path314" />
    <path
       style="fill:none;stroke:#00ffff;stroke-width:0.264999"
       d="m 69.304524,67.509093 c 0.106058,0.466413 0.144727,0.953473 0.318169,1.399238 0.05413,0.139282 0.04062,-0.296272 0.05303,-0.445212 0.09002,-1.08155 0.411128,-4.734343 0.229788,-5.64466 -0.171902,-0.862965 -0.754181,-1.590045 -1.131273,-2.385065 3.011233,-3.983807 5.508442,2.02039 2.951932,3.975111 -0.402537,0.307782 -1.666422,0.485153 -1.520161,0 0.378093,-1.254153 5.58749,-0.784074 2.280231,3.84791 -1.025344,1.436047 -4.22276,2.427201 -5.055398,0.46112"
       id="path316" />
    <path
       style="fill:none;stroke:#00ffff;stroke-width:0.264999"
       d="m 113.51274,83.250537 c 2.8703,3.447627 5.6745,6.921889 8.3255,10.542005 0.55743,0.761201 2.88833,3.965459 3.69434,4.945039 0.56586,0.68771 1.15963,1.352679 1.7676,2.003459 0.93045,0.99596 1.95941,1.87842 2.89891,2.86208 0.23902,0.25026 0.9335,0.91186 0.86612,0.57242 -0.52958,-2.66808 -7.72673,-1.15959 -8.99718,-0.23851 -1.48104,1.07376 -1.84723,2.81075 -2.01509,4.51573 -0.74289,7.54585 1.51548,19.25365 11.27743,18.84203 8.76009,-0.36937 12.67406,-7.11052 11.91377,-15.10542 -0.23745,-2.49691 -0.84125,-6.22776 -3.28779,-7.67992 -4.31486,-2.56113 -7.84609,-2.17176 -12.42636,-1.39924"
       id="path318" />
    <path
       style="fill:none;stroke:#00ffff;stroke-width:0.264999"
       d="m 132.83284,112.61868 c -0.55355,-0.14957 -4.06535,7.08719 -1.53782,7.0598 2.42897,-0.0263 4.67816,-1.83679 6.76999,-2.84618 0.97444,-0.4702 0.9351,-0.56744 0.76008,-0.0636"
       id="path320" />
    <path
       style="fill:none;stroke:#00ffff;stroke-width:0.264999"
       d="m 80.458219,68.669828 c 1.078918,1.920417 0.790564,1.376563 1.979726,3.6571 2.983452,5.721567 5.473158,11.779512 8.820444,17.299696 0.04014,0.0662 4.232333,5.920425 1.979737,3.816109"
       id="path322" />
    <path
       style="fill:none;stroke:#00ffff;stroke-width:0.264999"
       d="m 97.020834,91.34387 c -0.61278,-0.408109 -1.190443,-0.874643 -1.838341,-1.22433 -2.427473,-1.310161 -5.743271,7.246271 -5.868493,8.013819 -0.283337,1.736701 -0.278389,3.538711 -0.01767,5.278961 0.373941,2.49601 2.989945,5.70783 5.780119,5.67646 1.922124,-0.0216 3.849992,-0.50448 5.638701,-1.20842 1.10271,-0.43397 1.96059,-1.34291 2.84588,-2.13067 3.49748,-3.11216 5.4482,-7.387543 4.25996,-12.06844 -0.39834,-1.569209 -2.09702,-3.81948 -3.67664,-4.293121 -2.14667,-0.643671 -4.440529,-0.740318 -6.681613,-0.747321 -4.316293,-0.01349 -2.655088,1.406332 -3.888774,0.397504"
       id="path324" />
    <path
       style="fill:none;stroke:#00ffff;stroke-width:0.264999"
       d="m 99.000571,103.07841 c 1.318949,3.89831 -1.367991,-5.810447 -2.297917,-5.676462 1.567482,-4.601256 8.140616,-3.148519 6.575546,2.098864 -0.29314,0.982868 -0.59198,2.092768 -1.37874,2.750768 -0.77079,0.64465 -1.932593,0.55122 -2.898889,0.82683 z"
       id="path326" />
    <path
       style="fill:none;stroke:#00ffff;stroke-width:0.264999"
       d="m 59.971482,72.247434 c -3.121092,2.861204 -6.12416,5.845614 -9.067896,8.888351 -4.397957,4.545865 -2.574745,2.79467 -7.583101,7.695809 -1.405038,1.374957 -1.340252,1.230764 -2.527694,2.369177 -0.167381,0.160469 -0.513604,0.771313 -0.371205,0.588311 1.093279,-1.404998 -0.618009,-2.49877 -1.71459,-3.132386 -3.485832,-2.014154 -10.576745,-2.687934 -14.229348,-0.62012 -0.990602,0.5608 -1.917359,1.234141 -2.810525,1.939864 -1.886902,1.490914 -2.447142,3.583334 -3.040302,5.867268 -1.393722,5.366452 1.782447,12.251122 6.69928,14.771512 8.052861,4.12793 19.06356,-7.91558 18.736789,-15.502945 -0.134403,-3.120713 -3.052966,-8.179858 -6.787671,-6.773587"
       id="path328" />
    <path
       style="fill:none;stroke:#00ffff;stroke-width:0.264999"
       d="m 33.545541,92.790808 c -0.111947,0.620122 -0.295452,1.231516 -0.335843,1.860367 -0.109088,1.6984 0.329628,3.641418 0.742397,5.278938 0.07731,0.306707 0.451805,1.391977 0.618665,1.780867 0.03166,0.0738 0.08068,0.27447 0.12374,0.20669 0.179755,-0.28295 -0.189188,-0.6446 -0.31818,-0.95402"
       id="path330" />
    <path
       style="fill:none;stroke:#00ffff;stroke-width:0.264999"
       d="m 32.697081,94.873782 c -0.01897,-0.180366 6.461077,-3.905554 3.111018,-1.494644"
       id="path332" />
    <path
       style="fill:none;stroke:#00ffff;stroke-width:0.264999"
       d="m 33.510193,97.17934 c 1.477653,-0.530087 2.939283,-1.115538 4.436724,-1.590034 0.261517,-0.08287 0.954754,-0.362143 0.813104,-0.127212 -0.193564,0.321027 -0.471366,0.58302 -0.707049,0.874533"
       id="path334" />
    <path
       style="fill:none;stroke:#00ffff;stroke-width:0.264999"
       d="m 33.280397,102.7445 c 1.32543,-0.4039 7.306352,-4.02234 7.830563,-2.60767"
       id="path336" />
    <path
       style="fill:none;stroke:#00ffff;stroke-width:0.264999"
       d="m 64.54962,130.34768 c 0.279077,-1.10602 0.733242,-2.18799 0.901485,-3.32319"
       id="path378" />
    <path
       style="fill:none;stroke:#00ffff;stroke-width:0.264999"
       d="m -24.609203,83.123335 c -0.789345,-4.046035 -1.979736,-7.979508 -1.979736,-12.13204"
       id="path479" />
    <path
       style="fill:none;stroke:#ffff00;stroke-width:0.264999"
       d="m 95.995616,82.614528 c -0.759185,-0.439078 -1.839606,-2.221177 -3.057996,-2.28967 -0.600483,-0.03375 1.319292,2.578778 1.272699,2.830285 -0.05727,0.309137 -1.894637,-0.601937 -2.103478,-0.620119 -0.881546,-0.07675 0.819008,2.067057 0.813105,2.067057 -0.267182,0 -1.627897,-0.924391 -1.643883,-0.492908 -0.02447,0.660476 0.943541,1.954744 1.184307,2.337366 0.11181,0.177691 0.491588,0.680804 0.371202,0.508807 -2.46575,-3.522888 -0.228129,0.813464 1.962042,1.908066"
       id="path649" />
    <path
       style="fill:none;stroke:#ffff00;stroke-width:0.264999"
       d="m 106.45992,89.658422 c -1.60805,-0.05163 2.3545,0.738155 2.66912,0.683725 2.14564,-0.371184 -1.03229,-1.634815 -1.92671,-0.76323 -0.0529,0.05151 2.58001,0.47647 3.16404,-0.636019 0.48635,-0.926433 -4.03906,-0.607827 -4.73723,-0.77911 -0.25542,-0.06266 0.11263,-0.08107 1.30805,-0.683726 0.65963,-0.332544 3.38883,-1.566262 3.46453,-2.416863 0.0585,-0.657802 -4.69793,0.368221 -4.87863,0.318011 0.73062,-0.916927 1.50045,-1.803933 2.19186,-2.750781 1.73244,-2.372502 -1.53068,1.073481 -1.60856,0.969927 -0.44907,-0.597163 -0.28289,-1.422513 -0.19444,-2.098863 0.0425,-0.324863 0.40267,-1.189038 0.15909,-0.969927 -0.14805,0.133179 -2.61168,4.60308 -2.40396,0.842725 0.19469,-3.524373 0.21635,-0.670107 0.38888,-2.067055 0.0366,-0.29653 -0.31426,0.50935 -0.49493,0.747321 -0.52498,0.69149 -1.4796,2.239371 -2.51002,2.448671 -1.626688,0.33041 0.45312,-3.870759 0.91917,-4.324929 0.1717,-0.167326 -0.19098,0.444995 -0.33586,0.636019 -0.241,0.317765 -1.831851,2.531093 -2.474679,2.241964 -0.501211,-0.225434 0.397371,-1.836959 0.441921,-1.939854 0.111398,-0.257291 0.551818,-0.961417 0.353508,-0.76322 -1.146566,1.145916 -1.983275,2.613227 -3.323113,3.593496 -0.948447,0.693914 -0.114337,-0.878453 0.141395,-1.144826"
       id="path651" />
  </g>
</svg>
