<?xml version="1.0" encoding="UTF-8" standalone="no"?>
<!-- Created with Inkscape (http://www.inkscape.org/) -->

<svg
   width="210mm"
   height="297mm"
   viewBox="0 0 210 297"
   version="1.1"
   id="svg12"
   inkscape:version="1.2.1 (9c6d41e410, 2022-07-14, custom)"
   sodipodi:docname="rotation_cut.svg"
   xmlns:inkscape="http://www.inkscape.org/namespaces/inkscape"
   xmlns:sodipodi="http://sodipodi.sourceforge.net/DTD/sodipodi-0.dtd"
   xmlns="http://www.w3.org/2000/svg"
   xmlns:svg="http://www.w3.org/2000/svg">
  <sodipodi:namedview
     id="namedview14"
     pagecolor="#505050"
     bordercolor="#eeeeee"
     borderopacity="1"
     inkscape:showpageshadow="0"
     inkscape:pageopacity="0"
     inkscape:pagecheckerboard="0"
     inkscape:deskcolor="#505050"
     inkscape:document-units="mm"
     showgrid="false"
     inkscape:zoom="0.80495774"
     inkscape:cx="355.91931"
     inkscape:cy="190.07209"
     inkscape:window-width="1366"
     inkscape:window-height="746"
     inkscape:window-x="0"
     inkscape:window-y="0"
     inkscape:window-maximized="1"
     inkscape:current-layer="layer1"
     inkscape:lockguides="false" />
  <defs
     id="defs9" />
  <g
     inkscape:label="Layer 1"
     inkscape:groupmode="layer"
     id="layer1">
    <path
       style="fill:none;stroke:#00ffff;stroke-width:0.264999"
       d="m 103.64941,13.288552 c -9.999775,-1.44042 -13.948642,8.138786 -11.454198,16.584171 0.565193,1.913556 1.800672,4.501467 3.570597,5.724167 6.356141,4.390959 14.666261,-0.174344 17.906021,-6.232985 0.61136,-1.143302 1.13307,-2.409314 1.18431,-3.704798 0.11639,-2.942963 0.1775,-5.99406 -0.68939,-8.808857 -1.70282,-5.529076 -8.07097,-6.613882 -12.86828,-6.089874 -1.504932,0.164383 -2.75725,0.146782 -3.376161,1.494643"
       id="path306" />
    <path
       style="fill:none;stroke:#00ffff;stroke-width:0.264999"
       d="m 99.866697,28.807391 c 1.235313,-2.338041 2.370433,-4.740591 3.128693,-7.282405 0.45554,-1.527036 0.84284,-3.074495 1.20198,-4.627029 0.0934,-0.403798 0.31209,-1.346988 -0.0884,-1.240239 -0.64279,0.171336 -0.52733,1.25873 -0.53027,1.923954 -0.0122,2.750592 0.76446,5.427757 1.71458,7.982031 0.0742,0.199531 2.02325,3.199939 0.63636,2.528165"
       id="path308" />
    <path
       style="fill:none;stroke:#00ffff;stroke-width:0.264999"
       d="m 101.01566,25.15029 c 1.67143,-1.152589 3.4982,-1.830133 5.46194,-2.226065"
       id="path310" />
    <path
       style="fill:none;stroke:#00ffff;stroke-width:0.264999"
       d="m 74.978584,55.440648 c -0.665802,-0.503513 -1.258122,-1.122892 -1.997411,-1.510541 -0.730858,-0.38323 -3.919606,-0.543702 -4.224609,-0.556514 -6.481546,-0.27224 -10.652993,2.305865 -11.489542,9.254067 -0.137009,1.137968 -0.162962,3.214174 0.05302,4.324919 1.854206,9.535565 13.954355,10.223994 20.203919,4.579331 3.801338,-3.433402 5.230413,-10.717709 2.315581,-15.121334 -0.44672,-0.674888 -0.93857,-1.54297 -1.732264,-1.701339 -1.050314,-0.209574 -2.060035,0.660408 -3.128696,0.731411 -4.610158,0.306308 -1.803643,-1.037294 -3.977147,0.174908"
       id="path314" />
    <path
       style="fill:none;stroke:#00ffff;stroke-width:0.264999"
       d="m 69.304524,67.509093 c 0.106058,0.466413 0.144727,0.953473 0.318169,1.399238 0.05413,0.139282 0.04062,-0.296272 0.05303,-0.445212 0.09002,-1.08155 0.411128,-4.734343 0.229788,-5.64466 -0.171902,-0.862965 -0.754181,-1.590045 -1.131273,-2.385065 3.011233,-3.983807 5.508442,2.02039 2.951932,3.975111 -0.402537,0.307782 -1.666422,0.485153 -1.520161,0 0.378093,-1.254153 5.58749,-0.784074 2.280231,3.84791 -1.025344,1.436047 -4.22276,2.427201 -5.055398,0.46112"
       id="path316" />
    <path
       style="fill:none;stroke:#00ffff;stroke-width:0.264999"
       d="m 111.37391,35.342475 c 2.8703,3.447627 5.6745,6.921889 8.3255,10.542005 0.55743,0.761201 2.88833,3.965459 3.69434,4.945039 0.56586,0.68771 1.15963,1.35268 1.7676,2.003459 0.93045,0.995958 1.95941,1.878418 2.89891,2.862083 0.23902,0.250259 0.9335,0.911855 0.86612,0.572413 -0.52958,-2.668072 -7.72673,-1.159584 -8.99718,-0.238504 -1.48104,1.073756 -1.84723,2.810751 -2.01509,4.515726 -0.74289,7.545856 1.51548,19.25365 11.27743,18.842035 8.76009,-0.369375 12.67406,-7.110521 11.91377,-15.105428 -0.23745,-2.49691 -0.84125,-6.22776 -3.28779,-7.67992 -4.31486,-2.561127 -7.84609,-2.171755 -12.42636,-1.399238"
       id="path318" />
    <path
       style="fill:none;stroke:#00ffff;stroke-width:0.264999"
       d="m 130.69401,64.710613 c -0.55355,-0.149566 -4.06535,7.087193 -1.53782,7.059803 2.42897,-0.02633 4.67816,-1.836793 6.76999,-2.846175 0.97444,-0.470202 0.9351,-0.567447 0.76008,-0.06361"
       id="path320" />
    <path
       style="fill:none;stroke:#00ffff;stroke-width:0.264999"
       d="m 80.458219,68.669828 c 1.078918,1.920417 0.790564,1.376563 1.979726,3.6571 2.983452,5.721567 5.473158,11.779512 8.820444,17.299696 0.04014,0.0662 4.232333,5.920425 1.979737,3.816109"
       id="path322" />
    <path
       style="fill:none;stroke:#00ffff;stroke-width:0.264999"
       d="m 97.020834,91.34387 c -0.61278,-0.408109 -1.190443,-0.874643 -1.838341,-1.22433 -2.427473,-1.310161 -5.743271,7.246271 -5.868493,8.013819 -0.283337,1.736701 -0.278389,3.538711 -0.01767,5.278961 0.373941,2.49601 2.989945,5.70783 5.780119,5.67646 1.922124,-0.0216 3.849992,-0.50448 5.638701,-1.20842 1.10271,-0.43397 1.96059,-1.34291 2.84588,-2.13067 3.49748,-3.11216 5.4482,-7.387543 4.25996,-12.06844 -0.39834,-1.569209 -2.09702,-3.81948 -3.67664,-4.293121 -2.14667,-0.643671 -4.440529,-0.740318 -6.681613,-0.747321 -4.316293,-0.01349 -2.655088,1.406332 -3.888774,0.397504"
       id="path324" />
    <path
       style="fill:none;stroke:#00ffff;stroke-width:0.264999"
       d="m 99.000571,103.07841 c 1.318949,3.89831 -1.367991,-5.810447 -2.297917,-5.676462 1.567482,-4.601256 8.140616,-3.148519 6.575546,2.098864 -0.29314,0.982868 -0.59198,2.092768 -1.37874,2.750768 -0.77079,0.64465 -1.932593,0.55122 -2.898889,0.82683 z"
       id="path326" />
    <path
       style="fill:none;stroke:#00ffff;stroke-width:0.264999"
       d="m 59.971482,72.247434 c -3.121092,2.861204 -6.12416,5.845614 -9.067896,8.888351 -4.397957,4.545865 -2.574745,2.79467 -7.583101,7.695809 -1.405038,1.374957 -1.340252,1.230764 -2.527694,2.369177 -0.167381,0.160469 -0.513604,0.771313 -0.371205,0.588311 1.093279,-1.404998 -0.618009,-2.49877 -1.71459,-3.132386 -3.485832,-2.014154 -10.576745,-2.687934 -14.229348,-0.62012 -0.990602,0.5608 -1.917359,1.234141 -2.810525,1.939864 -1.886902,1.490914 -2.447142,3.583334 -3.040302,5.867268 -1.393722,5.366452 1.782447,12.251122 6.69928,14.771512 8.052861,4.12793 19.06356,-7.91558 18.736789,-15.502945 -0.134403,-3.120713 -3.052966,-8.179858 -6.787671,-6.773587"
       id="path328" />
    <path
       style="fill:none;stroke:#00ffff;stroke-width:0.264999"
       d="m 33.545541,92.790808 c -0.111947,0.620122 -0.295452,1.231516 -0.335843,1.860367 -0.109088,1.6984 0.329628,3.641418 0.742397,5.278938 0.07731,0.306707 0.451805,1.391977 0.618665,1.780867 0.03166,0.0738 0.08068,0.27447 0.12374,0.20669 0.179755,-0.28295 -0.189188,-0.6446 -0.31818,-0.95402"
       id="path330" />
    <path
       style="fill:none;stroke:#00ffff;stroke-width:0.264999"
       d="m 32.697081,94.873782 c -0.01897,-0.180366 6.461077,-3.905554 3.111018,-1.494644"
       id="path332" />
    <path
       style="fill:none;stroke:#00ffff;stroke-width:0.264999"
       d="m 33.510193,97.17934 c 1.477653,-0.530087 2.939283,-1.115538 4.436724,-1.590034 0.261517,-0.08287 0.954754,-0.362143 0.813104,-0.127212 -0.193564,0.321027 -0.471366,0.58302 -0.707049,0.874533"
       id="path334" />
    <path
       style="fill:none;stroke:#00ffff;stroke-width:0.264999"
       d="m 33.280397,102.7445 c 1.32543,-0.4039 7.306352,-4.02234 7.830563,-2.60767"
       id="path336" />
    <path
       style="fill:none;stroke:#00ffff;stroke-width:0.264999"
       d="m 64.54962,130.34768 c 0.279077,-1.10602 0.733242,-2.18799 0.901485,-3.32319"
       id="path378" />
    <path
       style="fill:none;stroke:#ff0000;stroke-width:0.264999"
       d="m 85.283819,40.239817 c 2.547694,3.27818 4.540803,6.964299 6.734649,10.494298 0.301614,0.48531 0.622879,0.958353 0.919152,1.446946 0.25006,0.412385 0.970465,1.663935 0.689382,1.272037 -1.382098,-1.926992 -2.508461,-4.061203 -3.729685,-6.089875 -1.460455,-2.426078 -3.093178,-4.73344 -4.613498,-7.123406 z"
       id="path467" />
    <path
       style="fill:none;stroke:#ff0000;stroke-width:0.264999"
       d="m 93.008317,52.976078 c -0.384173,-2.442414 -1.15215,-4.878255 -1.025219,-7.377808 0.06549,-1.289585 0.545656,-2.616309 0.724734,-3.784304"
       id="path469" />
    <path
       style="fill:none;stroke:#ff0000;stroke-width:0.264999"
       d="m 88.235739,42.147873 c -0.371195,0.530016 -0.772348,1.040265 -1.113589,1.590048 -1.203595,1.939147 1.960845,7.499689 3.482205,8.427241 1.709602,1.042323 3.276512,-0.219734 3.906448,0.06359 0.232879,0.104741 -0.505068,0.0823 -0.760079,0.0954 -0.762227,0.03918 -1.507096,0.09203 -2.262547,-0.0795 -2.779056,-0.631031 -3.675806,-1.853012 -4.277643,-4.706533 -0.04627,-0.21936 -0.158917,-2.575001 -0.106069,-2.766671 0.253148,-0.918101 2.083636,-2.623579 1.131274,-2.623579 -0.977189,0 -1.175481,1.655421 -1.308026,2.623579 -0.706686,5.161865 2.688473,7.306813 6.292736,9.715169"
       id="path471" />
    <path
       style="fill:none;stroke:#ff0000;stroke-width:0.264999"
       d="m 92.778529,46.918012 c 0.199249,-0.484434 1.420256,-5.730486 0.565642,-5.66056"
       id="path473" />
    <path
       style="fill:none;stroke:#ff0000;stroke-width:0.264999"
       d="m 95.748135,42.33868 c 1.758019,2.738993 0.532662,5.841815 -0.565642,8.665747 -0.212056,0.54523 -0.560443,1.027642 -0.866129,1.526439 -0.201465,0.328737 -0.41886,0.648484 -0.654013,0.95403 -0.03298,0.04285 -0.152789,0.132371 -0.141415,0.0795 0.04372,-0.203223 0.164973,-0.381616 0.247462,-0.572423 -0.565635,0.816225 -1.221318,1.576905 -1.696905,2.448676 -1.030888,1.88966 1.198002,8.424023 2.262548,3.195992 0.126771,-0.622581 0.235681,-1.248838 0.335854,-1.876248 0.305686,-1.914605 0.271249,-1.993462 -0.901497,-3.76842 1.037007,-0.0318 2.083202,-0.23675 3.111021,-0.09539 0.496049,0.06822 1.670997,1.073075 2.03276,1.431037 5.127661,5.073792 -5.83064,3.919451 -4.401374,1.446936 -5.39844,3.481201 -0.277438,3.588844 0,2.528177 0.213256,-0.815297 0,-1.685451 0,-2.528177"
       id="path475" />
    <path
       style="fill:none;stroke:#ff0000;stroke-width:0.264999"
       d="m 88.642292,48.015141 c -0.866838,-4.206089 1.771666,2.180997 1.926712,1.669542 0.140441,-0.463272 -0.264084,-0.931511 -0.388877,-1.399239 -0.288102,-1.079833 -0.569346,-2.161495 -0.848452,-3.243688 -0.111385,-0.431874 -0.375688,-1.743459 -0.300506,-1.303835 0.166698,0.974765 1.388888,6.33929 -0.388877,4.27722 -0.572085,-0.663573 0.198668,-1.74834 0.159089,-2.623579 -0.03643,-0.805665 -0.406551,-1.578576 -0.406551,-2.385066 0,-0.214939 0.136832,0.408922 0.176763,0.62012 0.182372,0.964581 0.743111,3.620836 0.0707,4.388525 -0.463725,0.529431 0.469834,-2.17546 -0.229788,-2.098863 -2.079069,0.227621 1.792848,3.974367 3.464549,5.231249 0.85811,0.645178 1.235068,-0.526071 0.654013,-0.874522 2.519128,-2.569604 1.944389,-4.734202 1.944389,-7.83892 0,-0.460312 -0.300598,0.871783 -0.406552,1.319734 -0.383104,1.619682 -0.465156,1.89565 -0.724732,3.339093 -0.187504,1.042668 -0.176764,1.254303 -0.176764,1.192532 0,-1.672563 0.07259,-4.08006 0.813104,-5.51745 0.125214,-0.243051 0.308646,0.465266 0.371203,0.731422 0.551784,2.347629 0.556808,2.688427 0.813104,5.422047 0.02233,0.238118 0.02317,0.942224 -0.05302,0.715523 -0.160052,-0.47622 -0.468217,-4.40407 -0.0707,-4.420322 0.296339,-0.01212 2.125018,6.550751 1.025217,2.989286"
       id="path477" />
    <path
       style="fill:none;stroke:#00ffff;stroke-width:0.264999"
       d="m -24.609203,83.123335 c -0.789345,-4.046035 -1.979736,-7.979508 -1.979736,-12.13204"
       id="path479" />
    <path
       style="fill:none;stroke:#00ffff;stroke-width:0.264999"
       d="m 77.630019,54.963639 c 0.377394,-0.890016 0.56837,-1.840812 0.883812,-2.750781 0.334957,-0.966266 1.072274,-1.740971 1.962062,-2.226066 2.280034,-1.243026 3.023518,0.478531 4.949341,1.144836 0.808471,0.279718 2.079276,-0.004 2.863548,-0.28621"
       id="path535" />
    <path
       style="fill:none;stroke:#00ffff;stroke-width:0.264999"
       d="m 101.56362,37.457239 c -2.480677,1.695225 -3.345801,4.068279 -2.386286,6.884892 0.168772,0.495422 0.315962,1.067322 0.813104,1.335644 1.239332,0.668898 2.809312,-0.184963 3.959472,0.731422 0.69656,0.554976 1.04203,2.587357 -0.0177,2.051155"
       id="path537" />
  </g>
</svg>
