<?xml version="1.0" encoding="UTF-8" standalone="no"?>
<!-- Created with Inkscape (http://www.inkscape.org/) -->

<svg
   width="210mm"
   height="297mm"
   viewBox="0 0 210 297"
   version="1.1"
   id="svg12"
   inkscape:version="1.2.1 (9c6d41e410, 2022-07-14, custom)"
   sodipodi:docname="rotation_final.svg"
   xmlns:inkscape="http://www.inkscape.org/namespaces/inkscape"
   xmlns:sodipodi="http://sodipodi.sourceforge.net/DTD/sodipodi-0.dtd"
   xmlns="http://www.w3.org/2000/svg"
   xmlns:svg="http://www.w3.org/2000/svg">
  <sodipodi:namedview
     id="namedview14"
     pagecolor="#505050"
     bordercolor="#eeeeee"
     borderopacity="1"
     inkscape:showpageshadow="0"
     inkscape:pageopacity="0"
     inkscape:pagecheckerboard="0"
     inkscape:deskcolor="#505050"
     inkscape:document-units="mm"
     showgrid="false"
     inkscape:zoom="0.80495774"
     inkscape:cx="273.30627"
     inkscape:cy="457.16686"
     inkscape:window-width="1366"
     inkscape:window-height="746"
     inkscape:window-x="0"
     inkscape:window-y="0"
     inkscape:window-maximized="1"
     inkscape:current-layer="layer1"
     inkscape:lockguides="false" />
  <defs
     id="defs9" />
  <g
     inkscape:label="Layer 1"
     inkscape:groupmode="layer"
     id="layer1">
    <path
       style="fill:none;stroke:#00ffff;stroke-width:0.264999"
       d="m 74.978584,55.440648 c -0.665802,-0.503513 -1.258122,-1.122892 -1.997411,-1.510541 -0.730858,-0.38323 -3.919606,-0.543702 -4.224609,-0.556514 -6.481546,-0.27224 -10.652993,2.305865 -11.489542,9.254067 -0.137009,1.137968 -0.162962,3.214174 0.05302,4.324919 1.854206,9.535565 13.954355,10.223994 20.203919,4.579331 3.801338,-3.433402 5.230413,-10.717709 2.315581,-15.121334 -0.44672,-0.674888 -0.93857,-1.54297 -1.732264,-1.701339 -1.050314,-0.209574 -2.060035,0.660408 -3.128696,0.731411 -4.610158,0.306308 -1.803643,-1.037294 -3.977147,0.174908"
       id="path314" />
    <path
       style="fill:none;stroke:#00ffff;stroke-width:0.264999"
       d="m 69.304524,67.509093 c 0.106058,0.466413 0.144727,0.953473 0.318169,1.399238 0.05413,0.139282 0.04062,-0.296272 0.05303,-0.445212 0.09002,-1.08155 0.411128,-4.734343 0.229788,-5.64466 -0.171902,-0.862965 -0.754181,-1.590045 -1.131273,-2.385065 3.011233,-3.983807 5.508442,2.02039 2.951932,3.975111 -0.402537,0.307782 -1.666422,0.485153 -1.520161,0 0.378093,-1.254153 5.58749,-0.784074 2.280231,3.84791 -1.025344,1.436047 -4.22276,2.427201 -5.055398,0.46112"
       id="path316" />
    <g
       id="g697"
       transform="translate(-8.272475,33.470452)">
      <path
         style="fill:none;stroke:#00ffff;stroke-width:0.264999"
         d="m 105.78824,61.196614 c -9.999779,-1.44042 -13.948646,8.138786 -11.454202,16.584171 0.565193,1.913556 1.800672,4.501467 3.570597,5.724167 6.356145,4.390959 14.666265,-0.174344 17.906025,-6.232985 0.61136,-1.143302 1.13307,-2.409314 1.18431,-3.704798 0.11639,-2.942963 0.1775,-5.99406 -0.68939,-8.808857 -1.70282,-5.529076 -8.07097,-6.613882 -12.86828,-6.089874 -1.50494,0.164383 -2.75725,0.146782 -3.37616,1.494643"
         id="path306" />
      <path
         style="fill:none;stroke:#00ffff;stroke-width:0.264999"
         d="m 102.00552,76.715453 c 1.23532,-2.338041 2.37044,-4.740591 3.1287,-7.282405 0.45554,-1.527036 0.84284,-3.074495 1.20198,-4.627029 0.0934,-0.403798 0.31209,-1.346988 -0.0884,-1.240239 -0.64279,0.171336 -0.52733,1.25873 -0.53027,1.923954 -0.0122,2.750592 0.76446,5.427757 1.71458,7.982031 0.0742,0.199531 2.02325,3.199939 0.63636,2.528165"
         id="path308" />
      <path
         style="fill:none;stroke:#00ffff;stroke-width:0.264999"
         d="m 103.15449,73.058352 c 1.67143,-1.152589 3.4982,-1.830133 5.46194,-2.226065"
         id="path310" />
      <path
         style="fill:none;stroke:#00ffff;stroke-width:0.264999"
         d="m 113.51274,83.250537 c 2.8703,3.447627 5.6745,6.921889 8.3255,10.542005 0.55743,0.761201 2.88833,3.965459 3.69434,4.945039 0.56586,0.68771 1.15963,1.352679 1.7676,2.003459 0.93045,0.99596 1.95941,1.87842 2.89891,2.86208 0.23902,0.25026 0.9335,0.91186 0.86612,0.57242 -0.52958,-2.66808 -7.72673,-1.15959 -8.99718,-0.23851 -1.48104,1.07376 -1.84723,2.81075 -2.01509,4.51573 -0.74289,7.54585 1.51548,19.25365 11.27743,18.84203 8.76009,-0.36937 12.67406,-7.11052 11.91377,-15.10542 -0.23745,-2.49691 -0.84125,-6.22776 -3.28779,-7.67992 -4.31486,-2.56113 -7.84609,-2.17176 -12.42636,-1.39924"
         id="path318" />
      <path
         style="fill:none;stroke:#00ffff;stroke-width:0.264999"
         d="m 132.83284,112.61868 c -0.55355,-0.14957 -4.06535,7.08719 -1.53782,7.0598 2.42897,-0.0263 4.67816,-1.83679 6.76999,-2.84618 0.97444,-0.4702 0.9351,-0.56744 0.76008,-0.0636"
         id="path320" />
    </g>
    <path
       style="fill:none;stroke:#00ffff;stroke-width:0.264999"
       d="m 80.458219,68.669828 c 1.078918,1.920417 0.790564,1.376563 1.979726,3.6571 2.983452,5.721567 5.473158,11.779512 8.820444,17.299696 0.04014,0.0662 4.232333,5.920425 1.979737,3.816109"
       id="path322" />
    <path
       style="fill:none;stroke:#00ffff;stroke-width:0.264999"
       d="m 59.971482,72.247434 c -3.121092,2.861204 -6.12416,5.845614 -9.067896,8.888351 -4.397957,4.545865 -2.574745,2.79467 -7.583101,7.695809 -1.405038,1.374957 -1.340252,1.230764 -2.527694,2.369177 -0.167381,0.160469 -0.513604,0.771313 -0.371205,0.588311 1.093279,-1.404998 -0.618009,-2.49877 -1.71459,-3.132386 -3.485832,-2.014154 -10.576745,-2.687934 -14.229348,-0.62012 -0.990602,0.5608 -1.917359,1.234141 -2.810525,1.939864 -1.886902,1.490914 -2.447142,3.583334 -3.040302,5.867268 -1.393722,5.366452 1.782447,12.251122 6.69928,14.771512 8.052861,4.12793 19.06356,-7.91558 18.736789,-15.502945 -0.134403,-3.120713 -3.052966,-8.179858 -6.787671,-6.773587"
       id="path328" />
    <path
       style="fill:none;stroke:#00ffff;stroke-width:0.264999"
       d="m 33.545541,92.790808 c -0.111947,0.620122 -0.295452,1.231516 -0.335843,1.860367 -0.109088,1.6984 0.329628,3.641418 0.742397,5.278938 0.07731,0.306707 0.451805,1.391977 0.618665,1.780867 0.03166,0.0738 0.08068,0.27447 0.12374,0.20669 0.179755,-0.28295 -0.189188,-0.6446 -0.31818,-0.95402"
       id="path330" />
    <path
       style="fill:none;stroke:#00ffff;stroke-width:0.264999"
       d="m 32.697081,94.873782 c -0.01897,-0.180366 6.461077,-3.905554 3.111018,-1.494644"
       id="path332" />
    <path
       style="fill:none;stroke:#00ffff;stroke-width:0.264999"
       d="m 33.510193,97.17934 c 1.477653,-0.530087 2.939283,-1.115538 4.436724,-1.590034 0.261517,-0.08287 0.954754,-0.362143 0.813104,-0.127212 -0.193564,0.321027 -0.471366,0.58302 -0.707049,0.874533"
       id="path334" />
    <path
       style="fill:none;stroke:#00ffff;stroke-width:0.264999"
       d="m 33.280397,102.7445 c 1.32543,-0.4039 7.306352,-4.02234 7.830563,-2.60767"
       id="path336" />
    <g
       id="g702"
       transform="translate(0.74240623,21.386108)">
      <path
         style="fill:none;stroke:#00ffff;stroke-width:0.264999"
         d="m 67.324795,111.34663 c -0.61278,-0.40811 -1.190443,-0.87464 -1.838341,-1.22433 -2.427473,-1.31016 -5.743271,7.24627 -5.868493,8.01382 -0.283337,1.7367 -0.278389,3.53871 -0.01767,5.27896 0.373941,2.49601 2.989945,5.70783 5.780119,5.67646 1.922124,-0.0216 3.849992,-0.50448 5.638701,-1.20842 1.10271,-0.43397 1.96059,-1.34291 2.84588,-2.13067 3.49748,-3.11216 5.4482,-7.38754 4.25996,-12.06844 -0.39834,-1.56921 -2.09702,-3.81948 -3.67664,-4.29312 -2.14667,-0.64367 -4.440529,-0.74032 -6.681613,-0.74732 -4.316293,-0.0135 -2.655088,1.40633 -3.888774,0.3975"
         id="path324" />
      <path
         style="fill:none;stroke:#00ffff;stroke-width:0.264999"
         d="m 69.304532,123.08117 c 1.318949,3.89831 -1.367991,-5.81045 -2.297917,-5.67646 1.567482,-4.60126 8.140616,-3.14852 6.575546,2.09886 -0.29314,0.98287 -0.59198,2.09277 -1.37874,2.75077 -0.77079,0.64465 -1.932593,0.55122 -2.898889,0.82683 z"
         id="path326" />
      <path
         style="fill:none;stroke:#00ffff;stroke-width:0.264999"
         d="m 64.54962,130.34768 c 0.279077,-1.10602 0.733242,-2.18799 0.901485,-3.32319"
         id="path378" />
    </g>
    <path
       style="fill:none;stroke:#00ffff;stroke-width:0.264999"
       d="m -24.609203,83.123335 c -0.789345,-4.046035 -1.979736,-7.979508 -1.979736,-12.13204"
       id="path479" />
    <path
       style="fill:none;stroke:#00ffff;stroke-width:0.264999"
       d="m 88.496303,115.02686 c -0.324064,0.61482 -0.669123,1.21902 -0.972196,1.84445 -0.586285,1.20989 -1.006181,2.27769 -1.749948,3.4504 -0.828308,1.30601 -1.991173,2.47131 -2.686773,3.84791 -1.06848,2.11452 -2.520299,4.10567 -3.994843,5.96267 -0.526931,0.6636 -0.774634,1.49279 -1.290354,2.13066 -0.188553,0.23321 -0.556014,0.92496 -0.63635,0.63602 -0.107458,-0.38649 1.715768,-2.32896 1.944378,-2.68718 1.948402,-3.05302 3.429775,-6.31647 5.020059,-9.55617 0.498081,-1.01468 1.982158,-4.39744 2.969606,-4.96094 0.44813,-0.25573 0.930947,-0.44521 1.396421,-0.66782 z"
       id="path704" />
  </g>
</svg>
