<?xml version="1.0" encoding="UTF-8" standalone="no"?>
<!-- Created with Inkscape (http://www.inkscape.org/) -->

<svg
   width="345.83832mm"
   height="267.08224mm"
   viewBox="0 0 345.83831 267.08225"
   version="1.1"
   id="svg12"
   inkscape:version="1.2.1 (9c6d41e410, 2022-07-14, custom)"
   sodipodi:docname="router_diagram.svg"
   xml:space="preserve"
   xmlns:inkscape="http://www.inkscape.org/namespaces/inkscape"
   xmlns:sodipodi="http://sodipodi.sourceforge.net/DTD/sodipodi-0.dtd"
   xmlns="http://www.w3.org/2000/svg"
   xmlns:svg="http://www.w3.org/2000/svg"><sodipodi:namedview
     id="namedview14"
     pagecolor="#505050"
     bordercolor="#eeeeee"
     borderopacity="1"
     inkscape:showpageshadow="0"
     inkscape:pageopacity="0"
     inkscape:pagecheckerboard="0"
     inkscape:deskcolor="#505050"
     inkscape:document-units="mm"
     showgrid="true"
     inkscape:zoom="0.034886493"
     inkscape:cx="4557.6378"
     inkscape:cy="58160.045"
     inkscape:window-width="1366"
     inkscape:window-height="746"
     inkscape:window-x="0"
     inkscape:window-y="0"
     inkscape:window-maximized="1"
     inkscape:current-layer="layer1"
     inkscape:lockguides="false"><inkscape:grid
       type="xygrid"
       id="grid344"
       color="#969696"
       opacity="0.39215686"
       empcolor="#000000"
       empopacity="0.17254902"
       dotted="false"
       originx="113.6557"
       originy="76.048411" /></sodipodi:namedview><defs
     id="defs9" /><g
     inkscape:label="Layer 1"
     inkscape:groupmode="layer"
     id="layer1"
     transform="translate(8.6556943,-72.451586)"><path
       style="fill:none;stroke:#ffffff;stroke-width:5.5"
       d="m 99.845262,17223.969 c 34.392818,-244.688 -28.778369,-496.873 -50.57391,-740.366 -39.232747,-438.296 -39.8087759,-879.148 -68.519539,-1318.204 -7.812773,-119.475 -11.008988,-239.72 -27.734067,-358.442 -12.678994,-90.002 -7.778755,-63.892 -24.063285,-131.711 18.625315,9.172 36.163551,21.001 55.875945,27.517 49.426835,16.337 251.745274,1.196 281.011674,0 125.16222,-5.118 249.87273,-9.906 375.22575,-9.906 163.74759,0 326.15502,2.611 489.83307,-6.604 311.5784,-17.542 621.2169,-58.358 929.9077,-102.727 40.3762,-5.803 310.4494,-46.004 317.7188,-46.96 27.7309,-3.649 109.9452,-20.337 137.8547,4.769 6.3005,5.668 -18.9081,46.038 -20.8008,52.464 -15.0213,50.998 -11.1259,109.551 -12.2358,161.795 -3.428,161.362 -13.4131,322.45 -7.3411,483.916 5.5309,147.072 24.5751,292.006 47.311,437.322 27.5368,176.002 46.329,351.878 70.1508,528.309 27.6395,204.705 60.4809,408.507 84.0183,613.792 19.5475,170.486 33.6623,341.806 50.9817,512.532 2.225,21.933 32.125,293.398 0.8156,324.69 -9.0009,8.996 -29.4273,-9.676 -34.6673,-12.474 -77.2492,-41.241 -162.2376,-60.362 -247.9758,-75.21 -113.256,-19.615 -228.1226,-29.22 -342.1895,-42.192 -280.644,-31.915 -560.323,-68.923 -838.9561,-115.2 -282.98168,-47 -564.48654,-103.964 -852.8235,-69.708 -109.97106,13.065 -221.26359,39.842 -329.138479,64.938 -27.480986,6.393 -90.3946174,27.183 -92.990869,23.847 -3.637747,-4.674 17.8115932,-20.66 30.181407,-40.357 16.523261,-26.309 24.387466,-51.57 29.365319,-82.915 13.200676,-83.122 10.420026,-170.21 18.761484,-253.881 9.756205,-97.862 33.677308,-196.5 35.075398,-294.606"
       id="path509" /><path
       style="fill:none;stroke:#ffffff;stroke-width:5.5"
       d="m -1443.3027,14208.585 c 21.8397,0.09 43.1126,-2.168 64.8489,-2.935"
       id="path511" /><path
       style="fill:none;stroke:#ffffff;stroke-width:5.5"
       d="m -1232.442,14211.153 c 30.7809,1.113 60.3375,-13.497 90.9515,-9.906"
       id="path513" /><path
       style="fill:none;stroke:#ffffff;stroke-width:5.5"
       d="m -524.40705,14180.702 c 89.60371,-18.965 50.34973,-14.277 117.05415,-19.078"
       id="path515" /><path
       style="fill:none;stroke:#ffffff;stroke-width:5.5"
       d="m -238.09336,14147.683 c 101.75532,-17.14 203.599106,-57.432 307.930107,-41.458"
       id="path517" /><path
       style="fill:none;stroke:#ffffff;stroke-width:5.5"
       d="m 263.15957,14092.284 c 84.78541,-21.162 168.16956,-10.177 253.27761,-2.202"
       id="path519" /><path
       style="fill:none;stroke:#ffffff;stroke-width:5.5"
       d="m 655.92336,14083.478 c 46.256,-1.071 92.36451,1.1 138.26252,6.604"
       id="path521" /><path
       style="fill:none;stroke:#ffffff;stroke-width:5.5"
       d="m 998.52084,14069.17 c 88.56396,-19.462 177.05986,-23.729 266.73686,-15.776"
       id="path523" /><path
       style="fill:none;stroke:#ffffff;stroke-width:5.5"
       d="m 1550.3479,14057.43 c 53.3418,3.088 197.4578,-63.914 232.4766,-19.811"
       id="path525" /><path
       style="fill:none;stroke:#ffffff;stroke-width:5.5"
       d="m 2098.0959,14043.855 c 104.0794,1.323 203.1336,-32.713 305.8908,-41.457"
       id="path527" /><path
       style="fill:none;stroke:#ffffff;stroke-width:5.5"
       d="m 2514.1074,13992.125 c 42.7312,-10.164 77.2089,-14.264 119.0934,-8.071"
       id="path529" /><path
       style="fill:none;stroke:#ffffff;stroke-width:5.5"
       d="m 2702.9438,13979.651 c 71.8703,0.747 159.4932,-51.659 232.4772,-21.646"
       id="path531" /><path
       style="fill:none;stroke:#ffffff;stroke-width:5.5"
       d="m 3047.1728,13949.934 c 48.3166,-6.233 96.1943,-11.153 143.9727,-0.734"
       id="path533" /><path
       style="fill:none;stroke:#ffffff;stroke-width:5.5"
       d="m 3248.245,13945.164 c 20.76,3.054 40.1733,-7.735 59.5466,-10.639"
       id="path535" /><path
       style="fill:none;stroke:#ffffff;stroke-width:5.5"
       d="m 3378.3507,13925.72 c 39.0085,0.915 86.239,-21.314 124.3957,-6.604"
       id="path537" /><path
       style="fill:none;stroke:#ffffff;stroke-width:5.5"
       d="m 3554.9513,13908.476 c 49.7885,-9.079 110.4336,-48.983 164.3655,-37.788"
       id="path539" /><path
       style="fill:none;stroke:#ffffff;stroke-width:5.5"
       d="m 3864.1275,14281.21 c -15.6345,-6.848 -29.9376,-18.672 -46.9032,-20.545 -12.6976,-1.402 -33.4685,31.477 -36.299,37.055 -41.9571,82.673 -21.3045,169.412 39.1541,223.797"
       id="path541" /><path
       style="fill:none;stroke:#ffffff;stroke-width:5.5"
       d="m 3734.8378,14484.829 c 8.5648,-12.596 12.4418,-30.28 25.695,-37.788 30.2339,-17.129 124.85,-21.163 159.8787,-6.237 m 0,0 c -17.1299,5.625 -33.8791,21.172 -51.3898,16.876 -25.9783,-6.373 2.8373,-66.719 18.7612,-71.541 9.5785,-2.901 40.843,4.704 43.2328,17.977 2.2559,12.528 -11.9768,49.344 -10.6042,36.688 3.9279,-36.217 10.6929,-109.698 37.5227,-109.698 37.7511,0 69.6686,61.645 84.0178,87.318 6.0961,10.907 20.6779,43.347 10.6041,35.954 -42.4317,-31.137 -29.0533,-112.324 -7.3411,-149.687 22.0241,11.985 48.0013,18.572 66.0722,35.954 25.0507,24.096 24.4528,125.947 48.127,33.02 3.0082,-11.808 1.9244,-25.913 9.7884,-35.221 5.6314,-6.665 18.9171,57.808 49.3505,54.298 27.5312,-3.175 41.2605,-48.421 47.7188,-70.074 1.3025,-4.367 4.7934,-16.856 1.6312,-13.574 -9.7598,10.129 -13.3779,66.535 8.565,60.168 30.4117,-8.825 39.2698,-32.507 45.2719,-59.802 1.1219,-5.101 2.8552,-20.632 2.8552,-15.409 0,21.581 29.4348,115.329 54.6525,102.727"
       id="path543" /><path
       style="fill:none;stroke:#ffffff;stroke-width:5.5"
       d="m 4381.6946,14300.655 c 105.6531,56.314 46.8497,104.957 48.1269,-10.64 0.4545,-41.142 5.5155,-82.186 11.4197,-122.905 0.4312,-2.974 12.7309,-72.419 35.4835,-49.529 27.0542,27.219 104.4173,147.442 109.3049,184.908 4.5919,35.199 -37.6409,86.004 -72.1902,53.198 -47.7584,-45.347 29.5576,-150.175 85.2416,-127.308 6.4476,2.648 7.8851,11.496 11.8277,17.244"
       id="path545" /><path
       style="fill:none;stroke:#ffffff;stroke-width:5.5"
       d="m 3972.6167,14823.094 c -70.6368,73.085 16.0904,-43.527 0.8157,-46.961 -1.551,-0.349 0.027,3.18 0,4.769 -0.2442,14.065 -4.2013,28.539 -0.8157,42.192 4.6982,18.945 17.4115,35 24.4711,53.197 1.4155,3.649 42.155,126.119 44.864,135.013 6.1389,20.152 14.6656,51.106 11.0125,53.197 -3.58,2.05 -6.2542,-5.38 -9.381,-8.071"
       id="path547" /><path
       style="fill:none;stroke:#ffffff;stroke-width:5.5"
       d="m 3979.9584,14882.895 c -59.5326,-87.202 71.7648,-213.155 122.356,-78.145 10.6974,28.547 -38.305,114.919 -66.0723,104.928"
       id="path549" /><path
       style="fill:none;stroke:#ffffff;stroke-width:5.5"
       d="m 4229.9727,14724.403 c 3.8925,17.621 14.6457,213.59 58.3234,135.012 -16.5942,114.095 31.416,-108.727 17.13,-88.785 -14.1953,19.815 -18.0196,82.688 -17.13,88.785 4.388,30.073 44.9195,89.258 63.6253,65.305 18.8323,-24.115 23.7419,-71.12 25.2867,-97.957 1.1471,-19.928 -10.9794,-72.49 -4.8942,-95.756 1.1371,-4.348 41.1917,110.113 46.9032,131.71 7.3471,27.782 12.0109,48.16 13.0514,47.328 2.0579,-1.646 -4.3365,-91.928 0.4078,-120.704 1.8246,-11.068 4.2484,-23.746 12.6436,-31.185 6.1816,-5.478 69.7198,57.329 89.3203,53.565 40.0127,-7.684 13.862,-74.201 2.0391,-88.419 -19.8868,-23.914 -41.8932,23.374 -41.6011,62.003 0.59,78.028 187.4897,119.908 205.9664,52.831 2.3058,-8.371 0,-17.366 0,-26.049"
       id="path551" /><path
       style="fill:none;stroke:#ffffff;stroke-width:5.5"
       d="m 2983.1624,12861.014 c 25.015,33.997 50.4994,67.655 75.0451,101.993 16.1097,22.536 33.3581,44.442 46.9035,68.606 10.9095,19.463 22.5721,39.606 26.1022,61.636 7.3051,45.589 -54.7572,0.749 -66.48,-12.84 -28.1271,-32.605 -64.715,-160.854 10.1962,-162.896"
       id="path553" /><path
       style="fill:none;stroke:#ffffff;stroke-width:5.5"
       d="m 3212.7842,13009.234 c -5.574,10.517 -6.3415,25.727 -16.7222,31.551 -33.4222,18.754 -90.7434,-87.924 -38.7458,-106.395 19.4119,-6.896 72.1129,0.71 76.2687,31.552 2.1381,15.866 -13.867,28.861 -20.8007,43.292 z"
       id="path555" /><path
       style="fill:none;stroke:#ffffff;stroke-width:5.5"
       d="m 3231.1375,12962.64 c -1.1818,-149.802 -4.9934,-36.834 79.9399,5.503 46.7501,23.304 69.4698,-19.214 53.8364,-59.802 -6.2844,-16.314 -17.4017,-30.328 -26.1025,-45.493"
       id="path557" /><path
       style="fill:none;stroke:#ffffff;stroke-width:5.5"
       d="m 3329.4308,12768.927 c 10.4682,8.193 23.1481,14.162 31.4044,24.581 13.8769,17.512 73.3351,134.73 62.4018,156.291 -1.6929,3.339 -7.3412,1.468 -11.0117,2.201 -14.411,-19.2 -31.4347,-36.692 -43.2329,-57.6 -20.1244,-35.662 103.2114,-69.839 104.003,-98.324 0.2738,-9.855 -11.4964,-28.99 -15.9066,-35.954 -3.0645,-4.84 -12.862,-18.385 -11.4197,-12.841 4.6082,17.711 57.7144,124.366 77.4924,134.645 21.0495,10.94 29.459,-138.717 46.9031,-114.467 17.0598,23.717 17.7677,115.096 58.3233,115.935 45.3696,0.938 80.1519,-110.309 56.2838,-144.184 -7.7005,-10.93 -49.5731,-25.84 2.8551,33.386 13.5498,15.306 30.3937,27.395 46.4953,39.99 15.2031,11.892 31.7607,21.952 47.311,33.386 10.8127,7.951 62.9421,40.873 70.559,64.938 21.4196,67.671 -109.6081,80.515 -144.3806,64.938 -47.2419,-21.164 -45.5821,-41.88 -59.9545,-83.649"
       id="path559" /><path
       style="fill:none;stroke:#ffffff;stroke-width:5.5"
       d="m 4134.9426,12688.947 c 2.4471,22.991 2.2362,46.423 7.3416,68.973 4.0815,18.029 13.1437,34.557 19.9845,51.731 56.7918,142.565 -13.5824,-56.365 16.3145,-74.477 15.879,-9.62 77.4533,91.18 84.8334,89.152 14.7597,-4.057 12.0425,-28.227 16.3144,-42.925 1.0097,-3.474 8.1706,-33.644 11.4202,-39.624 2.8382,-5.222 7.1896,9.74 8.9723,15.41 5.071,16.127 9.692,53.666 33.4444,50.996"
       id="path561" /><path
       style="fill:none;stroke:#ffffff;stroke-width:5.5"
       d="m 4359.6704,12756.086 c -4.6226,-10.762 -3.1052,-36.908 -13.8671,-32.286 -10.7619,4.623 11.5806,20.799 13.8671,32.286 3.371,16.937 -4.132,35.937 2.8551,51.73 16.0684,36.321 64.547,20.282 79.5314,-4.036 7.9803,-12.951 12.9738,-27.923 15.4987,-42.925 5.4666,-32.48 -1.6859,-67.244 -7.7494,-99.058 -7.0955,-37.228 35.7622,66.918 50.9818,101.627 15.4427,35.217 15.8882,43.192 16.3142,40.356 7.2684,-48.38 -6.3889,-95.574 16.7222,-142.349 22.3216,-45.178 70.1509,167.959 70.1509,90.619"
       id="path563" /><path
       style="fill:none;stroke:#ffffff;stroke-width:5.5"
       d="m 4648.4316,12658.129 c -0.4389,3.683 -11.4149,48.24 0.8154,59.434 21.2927,19.49 72.7927,-24.291 86.8731,-35.954 13.4392,-11.132 48.2047,-45.094 30.9967,-42.191 -30.7321,5.183 -1.6248,127.261 19.985,137.58 36.0908,17.235 68.8245,-33.731 86.8731,-55.766 0.821,-1.002 3.0257,5.177 -1.6317,34.854 -3.2639,20.796 -40.3961,160.856 -89.7276,110.064 -50.2793,-51.767 17.313,-94.545 61.9934,-106.028 25.1304,-6.459 139.6175,-24.221 128.474,-70.442 -1.402,-5.815 -4.4976,-12.25 -9.7882,-15.042 -55.3824,-29.227 -95.3643,115.055 -22.0242,72.643"
       id="path565" /><path
       style="fill:none;stroke:#ffffff;stroke-width:5.5"
       d="m 4977.9773,12641.986 c 3.5332,-43.476 -8.8773,-49.511 0,0 5.3438,29.802 13.6382,59 20.8007,88.418 4.9088,20.161 12.1007,51.669 16.7222,50.63 9.9574,-2.239 3.5169,-106.014 12.6431,-119.97 7.7571,-11.862 13.2382,25.103 18.7619,38.155 13.1022,30.96 12.7955,30.457 26.5102,59.068 9.3697,19.547 6.7863,16.244 10.6045,-4.035 18.5769,-98.673 54.3504,-45.501 121.5403,-86.218 8.1333,-4.929 21.4331,-29.603 -0.8157,-29.35 -66.0559,0.752 -54.0737,93.277 -5.7097,113.733 38.8869,16.448 88.5436,-20.754 103.5947,-53.931 5.9023,-13.011 9.7152,-125.008 -9.7885,-98.691 -20.0928,27.111 17.6784,156.491 40.3778,150.421 47.4977,-12.703 30.5824,-121.54 51.7972,-132.444 1.8963,-0.975 -0.7237,116.202 36.7069,147.853 25.4138,21.489 31.5289,-109.956 32.2205,-115.935 0.9639,-8.331 2.3902,-16.606 3.2628,-24.948 0.2164,-2.067 0.3048,-8.293 0,-6.237 -5.6435,38.079 26.8415,185.142 16.7222,190.412 -7.5261,3.919 -16.8579,1.956 -25.287,2.935 -172.1096,-106.925 254.802,-129.856 261.8424,-125.107"
       id="path567" /><path
       style="fill:none;stroke:#ffffff;stroke-width:5.5"
       d="m -2438.4849,15276.903 c 33.9135,75.284 17.0971,166.092 15.0905,247.277 -0.1058,4.282 0.4721,-8.559 0.4078,-12.841 -0.9775,-65.074 -1.2031,-131.53 -8.5647,-196.281 -1.4603,-12.844 -15.1233,-28.154 -6.9336,-38.155 14.4431,-17.639 212.5056,-92.336 260.2109,-94.656 0.8935,-0.04 28.6875,159.615 32.2205,173.902 12.4538,50.363 25.7106,100.539 39.9699,150.421 2.2925,8.02 24.103,45.872 19.5768,55.032 -7.7279,15.641 -324.9351,9.655 -367.4766,2.568 -6.5574,-1.092 12.8774,3.357 19.1691,5.504"
       id="path571" /><path
       style="fill:none;stroke:#ffffff;stroke-width:5.5"
       d="m -1898.0779,15240.948 c -6.9144,-183.24 -1.7248,215.237 15.0905,235.538 2.4496,2.957 7.3298,-4.069 8.5649,-7.705 13.6115,-40.071 9.6087,-57.655 6.5257,-100.525 -1.9369,-26.934 -0.7043,-54.438 -6.9335,-80.714 -4.0039,-16.889 -20.748,-29.418 -23.2476,-46.594 -10.963,-75.331 40.6227,-71.407 96.6614,-79.613 37.5861,-5.504 117.3329,-26.674 156.2084,-6.237 38.4016,20.188 55.3636,101.366 72.1898,137.214 27.5712,58.74 71.2683,150.298 112.9758,200.317 4.4779,5.37 -10.4856,-9.929 -17.13,-12.107 -23.0522,-7.557 -67.9081,-4.926 -87.2808,-4.036 -84.3858,3.877 -168.1455,10.999 -252.0539,20.178 -31.1535,3.409 -56.6025,7.156 -57.0996,0 -0.6581,-9.47 8.7009,-16.876 13.0514,-25.314"
       id="path573" /><path
       style="fill:none;stroke:#ffffff;stroke-width:5.5"
       d="m -1304.2422,15185.182 c -1.2235,-10.639 6.9688,-33.142 -3.6707,-31.918 -10.6396,1.223 2.7964,21.244 3.6707,31.918 7.1231,86.956 15.7615,167.747 34.6679,252.781 6.2416,28.073 8.6007,40.435 9.3806,34.121 2.3501,-19.029 -10.9191,-67.873 -13.0514,-77.413 -15.4411,-69.079 -45.3498,-138.831 -30.9971,-209.489 4.5662,-22.479 -3.2346,-53.342 15.0905,-67.139 31.3936,-23.635 175.41,-28.518 217.3866,-12.841 47.9219,17.898 32.1372,113.003 44.4558,157.759 14.2709,51.849 36.96272,96.725 63.21748,143.084 5.03166,8.884 19.97591,19.655 13.45923,27.516 -30.09858,36.305 -89.52141,30.631 -135.81521,39.623 -60.2685,11.706 -112.239,17.009 -170.0756,1.835"
       id="path575" /><path
       style="fill:none;stroke:#ffffff;stroke-width:5.5"
       d="m -2336.9292,15734.77 c 43.1877,-25.754 39.8302,-30.747 100.3322,-27.883 71.5655,3.388 269.8367,27.933 349.1231,35.221 212.8508,19.564 429.0925,23.101 641.555,-2.935 103.8605,-12.728 146.7403,-24.602 247.15974,-41.091 14.26858,-2.343 151.33121,-12.489 172.92986,-22.013 22.48157,-9.913 33.04495,-55.072 37.9308,-74.477 29.29038,-116.327 8.02478,-202.685 -8.15718,-318.452 -4.74724,-33.963 -7.37534,-68.245 -13.45923,-101.993 -7.78137,-43.165 -35.6054,-249.963 -107.67377,-281.765 -11.56854,-5.105 -86.76642,9.076 -90.95112,9.539 -72.6027,8.034 -144.4172,9.198 -217.3866,8.805 -376.5595,-2.028 -753.0708,18.569 -1128.1248,51.73 -113.2316,10.012 -227.2398,20.754 -340.9661,22.747 -5.7129,0.1 -65.0962,-6.202 -67.704,5.136 -5.6345,24.498 -2.4534,64.981 -2.8548,87.685 -3.6917,208.722 31.8463,370.141 67.7037,571.968 1.8325,10.313 13.3136,88.458 16.3142,111.898 2.1847,17.066 1.6523,33.413 4.4865,33.753 8.7077,1.045 15.625,-8.249 24.0632,-10.64 32.6647,-9.253 90.3884,-19.641 122.3565,-23.48 153.0349,-18.375 436.5267,-42.047 579.1528,19.812"
       id="path577" /><path
       style="fill:none;stroke:#ffffff;stroke-width:5.5"
       d="m -801.35772,15344.776 c 106.3091,38.968 223.55862,41.476 335.66393,48.795 102.84238,6.714 208.48752,17.834 311.60066,11.373 2.13158,-0.133 67.20777,-0.445 55.875947,-17.977 -8.756807,-13.548 -147.362437,-78.947 -101.963447,-104.561 3.51626,-1.984 130.419392,-52.732 120.724699,6.237 -7.188788,43.726 -67.674799,96.941 -90.135479,130.243 -37.91136,56.209 -93.62982,138.385 -70.55907,210.222"
       id="path579" /><path
       style="fill:none;stroke:#ffffff;stroke-width:5.5"
       d="m 2473.2247,15353.478 c 18.8972,-0.734 37.9459,0.297 56.6916,-2.202 46.9529,-6.257 92.6315,-20.196 139.4865,-27.149 87.5332,-12.99 175.895,-17.273 263.8814,-26.049 88.7304,-8.849 177.2404,-19.548 266.3288,-24.581 9.2972,-0.525 161.5514,0.527 167.2203,-10.272 29.8577,-56.878 -171.1462,-73.7 -195.7702,-76.678 -35.1941,-4.257 -49.8443,-4.589 -45.6795,-8.439 16.7341,-15.467 37.1583,-26.918 57.9154,-36.321 34.3273,-15.549 191.1414,-54.232 205.5585,9.172 17.5919,77.365 -114.428,171.159 -138.6707,241.041 -1.2814,3.694 5.1662,5.87 7.7493,8.805"
       id="path581" /></g></svg>
