<?xml version="1.0" encoding="UTF-8" standalone="no"?>
<!-- Created with Inkscape (http://www.inkscape.org/) -->

<svg
   width="975.93958mm"
   height="960.39728mm"
   viewBox="0 0 975.93955 960.3973"
   version="1.1"
   id="svg12"
   inkscape:version="1.2.1 (9c6d41e410, 2022-07-14, custom)"
   sodipodi:docname="row_column_combinatorics.svg"
   xml:space="preserve"
   xmlns:inkscape="http://www.inkscape.org/namespaces/inkscape"
   xmlns:sodipodi="http://sodipodi.sourceforge.net/DTD/sodipodi-0.dtd"
   xmlns="http://www.w3.org/2000/svg"
   xmlns:svg="http://www.w3.org/2000/svg"><sodipodi:namedview
     id="namedview14"
     pagecolor="#505050"
     bordercolor="#eeeeee"
     borderopacity="1"
     inkscape:showpageshadow="0"
     inkscape:pageopacity="0"
     inkscape:pagecheckerboard="0"
     inkscape:deskcolor="#505050"
     inkscape:document-units="mm"
     showgrid="true"
     inkscape:zoom="0.082451802"
     inkscape:cx="3796.1572"
     inkscape:cy="1710.09"
     inkscape:window-width="1366"
     inkscape:window-height="746"
     inkscape:window-x="0"
     inkscape:window-y="0"
     inkscape:window-maximized="1"
     inkscape:current-layer="layer1"
     inkscape:lockguides="false"><inkscape:grid
       type="xygrid"
       id="grid344"
       color="#969696"
       opacity="0.39215686"
       empcolor="#000000"
       empopacity="0.17254902"
       dotted="false"
       originx="-772.56869"
       originy="-10013.104" /></sodipodi:namedview><defs
     id="defs9" /><g
     inkscape:label="Layer 1"
     inkscape:groupmode="layer"
     id="layer1"
     transform="translate(-877.56872,-10161.603)"><path
       style="fill:none;stroke:#ffffff;stroke-width:5.5"
       d="m 963.21555,10327.734 c 12.45227,-31.505 35.1195,-46.698 56.42995,-11.953 2.1619,3.525 7.2156,23.18 10.5267,24.372 6.0969,2.193 -2.4456,-12.831 -5.0045,-18.783 -4.594,-10.688 -9.4029,-19.176 -20.018,-25.614 -15.86989,-9.625 -41.67949,31.32 -41.93415,31.978 -3.34132,8.632 1.4137,18.474 2.76111,27.631 0.21643,1.471 0.42516,3.836 1.89826,4.036 9.76016,1.331 19.28825,-74.099 32.09779,-69.544 12.79979,4.552 24.07469,28.011 29.33669,38.343 3.6494,7.166 10.9837,29.298 11.3895,21.267"
       id="path1069" /><path
       style="fill:none;stroke:#ffffff;stroke-width:5.5"
       d="m 1077.111,10319.662 c 16.7709,10.321 38.4004,-12.627 54.7042,-7.451 1.775,0.563 -3.7793,-1.081 -5.0044,-2.484"
       id="path1071" /><path
       style="fill:none;stroke:#ffffff;stroke-width:5.5"
       d="m 1137.3375,10266.262 c 4.7744,0.466 10.5471,-1.561 14.3232,1.397 9.3493,7.325 34.9433,54.824 37.2748,68.458"
       id="path1073" /><path
       style="fill:none;stroke:#ffffff;stroke-width:5.5"
       d="m 1055.3673,10451.454 c 13.8609,16.749 12.1725,12.641 22.0888,34.617 3.1575,6.998 6.0584,14.129 8.4559,21.422 1.0946,3.33 7.1545,22.583 4.6594,29.184 -5.6531,14.956 -15.7942,-7.55 -17.7747,-14.437 -7.3403,-25.525 18.6321,-59.606 44.3502,-42.378"
       id="path1075" /><path
       style="fill:none;stroke:#ffffff;stroke-width:5.5"
       d="m 922.48932,10227.92 c -61.03736,119.311 -72.96327,323.947 82.48788,375.041"
       id="path1077" /><path
       style="fill:none;stroke:#ffffff;stroke-width:5.5"
       d="m 1273.6667,10202.772 c 5.7523,15.472 13.1166,30.436 17.2569,46.415 20.5025,79.125 25.1744,202.908 -11.9072,279.884"
       id="path1079" /><path
       style="fill:none;stroke:#ffffff;stroke-width:5.5"
       d="m 1543.0467,10262.381 c 1.323,-7.037 2.2883,-14.151 3.969,-21.111 19.5001,-80.757 30.8046,-6.206 44.5228,18.472"
       id="path1081" /><path
       style="fill:none;stroke:#ffffff;stroke-width:5.5"
       d="m 1635.3708,10233.353 c 13.8203,-5.349 28.5482,-7.7 43.3149,-8.072 2.248,-0.06 8.5294,1.814 6.7301,0.465 -1.0971,-0.822 -2.1859,-1.655 -3.2789,-2.483"
       id="path1083" /><path
       style="fill:none;stroke:#ffffff;stroke-width:5.5"
       d="m 1697.323,10164.895 c 20.0193,22.511 22.6252,54.217 39.5184,78.393"
       id="path1085" /><path
       style="fill:none;stroke:#ffffff;stroke-width:5.5"
       d="m 1601.8925,10416.216 c 4.2568,5.486 8.7137,10.821 12.7702,16.455 3.772,5.239 7.4653,10.557 10.6992,16.144 5.717,9.878 13.7709,41.941 3.1063,29.65 -14.3688,-16.561 -19.4989,-69.854 14.6682,-53.09"
       id="path1087" /><path
       style="fill:none;stroke:#ffffff;stroke-width:5.5"
       d="m 1668.504,10421.494 c 10.9472,-2.288 38.1727,-3.229 45.2131,-4.812"
       id="path1089" /><path
       style="fill:none;stroke:#ffffff;stroke-width:5.5"
       d="m 1741.5007,10363.593 c 6.8745,27.873 21.8423,54.045 26.5756,82.428"
       id="path1091" /><path
       style="fill:none;stroke:#ffffff;stroke-width:5.5"
       d="m 1800.174,10162.411 c 30.4655,99.17 73.9296,206.369 35.3767,308.448"
       id="path1093" /><path
       style="fill:none;stroke:#ffffff;stroke-width:5.5"
       d="m 1495.0725,10175.917 c -21.8385,69.658 -40.0834,144.711 -27.0933,218.101 8.3426,47.134 34.8428,82.31 59.7088,121.082"
       id="path1095" /><path
       style="fill:none;stroke:#ffffff;stroke-width:5.5"
       d="m 1672.6458,10576.416 c -5.0584,49.11 -34.3032,92.949 -49.3547,139.865 -2.1812,6.798 -6.1869,31.277 -9.4913,32.599 -1.8234,0.729 -3.6294,-7.75 -4.3142,-18.318 -1.4297,-22.06 -0.555,-44.232 -1.8983,-66.284 -0.8591,-14.104 -3.4178,-22.302 -5.1771,-20.335 -13.6757,15.283 -20.9316,63.095 -17.0842,81.962 1.7069,8.371 6.1782,16.503 12.2524,22.509 12.9723,12.828 71.1547,-19.866 89.0455,-9.624"
       id="path1097" /><path
       style="fill:none;stroke:#ffffff;stroke-width:5.5"
       d="m 1182.0328,10618.95 c 3.1062,8.59 4.4798,18.022 9.3187,25.769 3.9647,6.347 38.3732,38.499 42.6245,42.533 17.308,16.427 32.8683,32.593 46.4209,52.314 5.7053,8.302 10.211,15.663 16.7392,23.285 1.5541,1.814 5.545,7.73 4.4868,5.588 -8.2458,-16.688 2.9807,-36.254 3.969,-54.331 0.3302,-6.039 -2.6651,-15.748 -0.8627,-21.423 2.3972,-7.547 12.2854,10.124 17.4294,16.145 9.4168,11.022 23.3361,27.183 28.4738,41.291 8.8037,24.175 -61.5557,27.996 -72.3063,29.65 -4.6605,0.717 -9.3125,1.49 -13.978,2.173 -3.7349,0.547 -14.8972,2.392 -11.217,1.553 5.0477,-1.152 10.124,-2.174 15.186,-3.26"
       id="path1099" /><path
       style="fill:none;stroke:#ffffff;stroke-width:5.5"
       d="m 1402.0579,10584.954 c 0.7478,7.296 1.1257,14.639 2.2434,21.888 0.5401,3.503 16.4087,83.891 10.5268,81.031 -2.5257,-1.228 -3.7965,-4.139 -5.6948,-6.209"
       id="path1101" /><path
       style="fill:none;stroke:#ffffff;stroke-width:5.5"
       d="m 1377.0354,10637.733 c 25.1002,-5.128 50.7075,-6.699 75.9303,-11.021"
       id="path1103" /><path
       style="fill:none;stroke:#ffffff;stroke-width:5.5"
       d="m 1408.6155,10818.424 c -75.4952,74.671 -79.2239,187.916 -17.2569,270.88 6.6418,8.893 17.3274,22.615 26.9207,30.581"
       id="path1107" /><path
       style="fill:none;stroke:#ffffff;stroke-width:5.5"
       d="m 1480.059,10927.397 c 1.438,-12.781 2.0476,-25.682 4.3141,-38.343 3.3101,-18.489 12.0325,-36.898 15.8765,-34.616 7.713,4.579 8.2788,15.939 11.7347,24.216 5.7386,13.745 15.19,28.87 17.4294,43.775"
       id="path1109" /><path
       style="fill:none;stroke:#ffffff;stroke-width:5.5"
       d="m 1505.7717,11002.529 c 6.0974,6.675 14.0951,12.018 18.2924,20.025 25.7129,49.054 -10.4615,57.956 -14.3232,18.007 -2.6913,-27.84 41.2377,-66.517 52.9786,-42.378"
       id="path1111" /><path
       style="fill:none;stroke:#ffffff;stroke-width:5.5"
       d="m 1576.3524,10803.522 c 10.7568,12.108 24.5453,22.089 32.2704,36.324 23.7451,43.755 35.01,186.4 1.2079,228.502"
       id="path1113" /></g></svg>
