<?xml version="1.0" encoding="UTF-8" standalone="no"?>
<!-- Created with Inkscape (http://www.inkscape.org/) -->

<svg
   width="15098.377mm"
   height="11788.203mm"
   viewBox="0 0 15098.377 11788.203"
   version="1.1"
   id="svg12"
   inkscape:version="1.2.1 (9c6d41e410, 2022-07-14, custom)"
   sodipodi:docname="saddle_point_example.svg"
   xml:space="preserve"
   xmlns:inkscape="http://www.inkscape.org/namespaces/inkscape"
   xmlns:sodipodi="http://sodipodi.sourceforge.net/DTD/sodipodi-0.dtd"
   xmlns="http://www.w3.org/2000/svg"
   xmlns:svg="http://www.w3.org/2000/svg"><sodipodi:namedview
     id="namedview14"
     pagecolor="#505050"
     bordercolor="#eeeeee"
     borderopacity="1"
     inkscape:showpageshadow="0"
     inkscape:pageopacity="0"
     inkscape:pagecheckerboard="0"
     inkscape:deskcolor="#505050"
     inkscape:document-units="mm"
     showgrid="true"
     inkscape:zoom="0.014535483"
     inkscape:cx="26211.719"
     inkscape:cy="31027.52"
     inkscape:window-width="1366"
     inkscape:window-height="746"
     inkscape:window-x="0"
     inkscape:window-y="0"
     inkscape:window-maximized="1"
     inkscape:current-layer="layer1"
     inkscape:lockguides="true"><inkscape:grid
       type="xygrid"
       id="grid344"
       color="#969696"
       opacity="0.39215686"
       empcolor="#000000"
       empopacity="0.17254902"
       dotted="false"
       originx="-6681.2175"
       originy="-66205.272" /></sodipodi:namedview><defs
     id="defs9" /><g
     inkscape:label="Layer 1"
     inkscape:groupmode="layer"
     id="layer1"
     transform="translate(-6786.2175,-66353.774)"><path
       style="fill:none;stroke:#ffffff;stroke-width:10.7"
       d="m 9060.1164,66600.463 c -32.3033,28.765 -58.769,65.894 -96.91,86.294 -11.9489,6.391 -5.097,-83.425 6.8521,-89.816 69.9305,-37.403 191.0742,60.05 215.3553,96.86 59.2169,89.774 -8.0177,261.031 -74.3953,328.445 -30.6329,31.111 -56.053,31.025 -46.0076,-15.85 34.4448,-160.731 250.8088,38.319 218.2916,169.065 -18.8376,75.743 -60.2705,144.645 -100.8251,211.332 -1.6343,2.687 -80.3613,90.393 -81.248,7.044 -0.5389,-50.667 17.6202,-99.795 26.4301,-149.693"
       id="path1929" /><path
       style="fill:none;stroke:#ffffff;stroke-width:10.7"
       d="m 9490.8268,66899.85 c -10.3156,80.495 126.1364,-138.482 172.284,-92.458 18.2329,18.184 -122.6855,525.808 -138.0231,530.09 -13.1892,3.682 -5.9383,-26.842 -6.8519,-40.505 -4.3127,-64.496 -5.8735,-129.147 -8.8104,-193.721"
       id="path1931" /><path
       style="fill:none;stroke:#ffffff;stroke-width:10.7"
       d="m 9502.5735,66987.905 c -10.115,-53.127 -19.2775,-106.444 -30.3453,-159.38 -2.3207,-11.099 -8.6977,-21.293 -9.7891,-32.58 -0.4683,-4.846 5.1134,8.289 7.8309,12.328 19.7977,29.423 39.466,58.938 59.7122,88.055 82.6815,118.905 232.8712,273.171 242.7642,420.021 0.6501,9.652 -11.0942,-15.85 -16.6412,-23.775"
       id="path1933" /><path
       style="fill:none;stroke:#ffffff;stroke-width:10.7"
       d="m 9763.9366,66597.822 c 28.2435,-100.128 67.8222,-239.285 206.5451,-226.301 94.2483,8.821 49.8563,190.695 27.4087,282.656 -9.7152,39.8 -38.2182,72.549 -59.7122,107.427 -14.329,23.251 -73.32,67.802 -46.0073,67.802 92.4343,0 277.3561,-82.215 300.5181,67.802"
       id="path1935" /><path
       style="fill:none;stroke:#ffffff;stroke-width:10.7"
       d="m 10730.098,66768.648 c -38.746,181.402 37.063,370.675 12.726,549.462"
       id="path1937" /><path
       style="fill:none;stroke:#ffffff;stroke-width:10.7"
       d="m 10595.991,67168.417 c -6.526,-26.123 6.546,-84.895 -19.577,-78.369 -26.123,6.526 -7.344,78.873 19.577,78.369 62.398,-1.169 107.924,-66.356 168.369,-81.891 50.405,-12.955 103.644,14.486 155.643,12.327"
       id="path1939" /><path
       style="fill:none;stroke:#ffffff;stroke-width:10.7"
       d="m 11140.253,66882.239 c -45.084,99.288 -92.507,124.133 -19.578,219.256 136.145,177.578 318.232,-270.463 243.743,-263.284 -77.813,7.5 56.133,558.947 179.136,485.182"
       id="path1941" /><path
       style="fill:none;stroke:#ffffff;stroke-width:10.7"
       d="m 11788.276,66840.853 c -22.683,46.864 -117.869,352.696 -163.474,361.905 -30.646,6.189 -26.199,-57.392 -32.304,-88.055"
       id="path1943" /><path
       style="fill:none;stroke:#ffffff;stroke-width:10.7"
       d="m 11576.837,66862.866 c 94.67,168.346 265.697,298.049 329.885,483.421"
       id="path1945" /><path
       style="fill:none;stroke:#ffffff;stroke-width:10.7"
       d="m 12203.324,66895.447 c 35.407,110.818 177.264,32.722 242.765,73.966 12.341,7.771 -6.479,34.921 -22.514,17.611"
       id="path1947" /><path
       style="fill:none;stroke:#ffffff;stroke-width:10.7"
       d="m 12760.311,66861.106 c -74.001,59.032 51.565,-136.267 67.544,-99.502 79.658,183.27 -66.521,375.916 -148.791,523.926 -1.611,2.897 6.909,-0.119 9.789,-1.761 24.061,-13.725 46.314,-30.487 70.479,-44.028 101.078,-56.64 204.279,-79.516 309.329,-121.515"
       id="path1949" /><path
       style="fill:none;stroke:#ffffff;stroke-width:10.7"
       d="m 13378.969,66869.03 c 8.976,46.701 -157.636,402.613 -220.25,388.322 -17.181,-3.921 -17.62,-30.526 -26.43,-45.789"
       id="path1951" /><path
       style="fill:none;stroke:#ffffff;stroke-width:10.7"
       d="m 13107.817,66841.733 c -5.221,-26.122 10.461,-83.589 -15.662,-78.368 -26.123,5.22 -0.104,56.895 15.662,78.368 122.087,166.281 103.459,49.762 175.221,221.898"
       id="path1953" /><path
       style="fill:none;stroke:#ffffff;stroke-width:10.7"
       d="m 13576.704,66496.559 c 5.547,-25.83 4.712,-53.917 16.641,-77.489 8.899,-17.585 27.249,-28.754 43.071,-40.505 132.041,-98.059 42.544,204.898 29.367,233.345 -3.872,8.359 -98.575,123.364 -101.805,151.455 -2.126,18.486 37.365,0.789 55.798,-1.761 18.879,-2.613 203.957,-12.359 171.304,31.699"
       id="path1955" /><path
       style="fill:none;stroke:#ffffff;stroke-width:10.7"
       d="m 14393.096,66838.211 c -93.003,37.994 6.415,455.939 -40.134,501.032 -6.346,6.147 -13.705,-11.154 -20.557,-16.73"
       id="path1957" /><path
       style="fill:none;stroke:#ffffff;stroke-width:10.7"
       d="m 14225.707,67150.806 c 107.082,-48.694 215.426,-20.278 321.075,-57.236"
       id="path1959" /><path
       style="fill:none;stroke:#ffffff;stroke-width:10.7"
       d="m 14726.897,66810.034 c 35.778,52.566 54.23,259.817 141.938,282.656 22.286,5.802 44.377,-12.328 66.565,-18.492"
       id="path1961" /><path
       style="fill:none;stroke:#ffffff;stroke-width:10.7"
       d="m 15045.035,66918.341 c 19.388,77.752 1.286,108.833 87.121,124.157 50.817,9.073 108.06,-22.802 141.939,-55.474 43.639,-42.084 42.277,-183.604 -47.965,-163.782 -82.798,18.187 -98.292,247.194 17.619,82.771"
       id="path1963" /><path
       style="fill:none;stroke:#ffffff;stroke-width:10.7"
       d="m 15284.863,66648.013 c -14.706,86.419 -6.984,487.761 34.261,532.732 5.379,5.865 12.399,-9.98 18.599,-14.97"
       id="path1965" /><path
       style="fill:none;stroke:#ffffff;stroke-width:10.7"
       d="m 15742.004,66702.607 c -1.857,80.801 -94.751,421.533 -166.412,447.318 -24.611,8.856 -15.72,-50.022 -20.555,-75.727"
       id="path1967" /><path
       style="fill:none;stroke:#ffffff;stroke-width:10.7"
       d="m 15493.366,66783.617 c 71.202,41.197 103.553,67.578 121.382,140.888"
       id="path1969" /><path
       style="fill:none;stroke:#ffffff;stroke-width:10.7"
       d="m 16066.015,66840.853 c 80.834,37.574 169.426,43.927 255.49,60.758"
       id="path1971" /><path
       style="fill:none;stroke:#ffffff;stroke-width:10.7"
       d="m 16509.451,66588.136 c -45.648,-79.439 229.246,-178.188 240.807,-74.847 8.045,71.925 -46.036,120.279 -87.122,165.543 -12.772,14.071 -54.505,38.858 -36.218,44.028 40.819,11.539 85.296,-6.226 127.256,0 129.396,19.199 188.115,99.736 110.614,221.898 -68.945,108.674 -283.264,199.035 -308.35,18.491"
       id="path1973" /><path
       style="fill:none;stroke:#ffffff;stroke-width:10.7"
       d="m 8128.2152,68115.887 c -36.219,13.795 -78.786,16.69 -108.6567,41.385 -53.1487,43.941 -141.8232,232.591 -65.5854,296.745 74.3178,62.539 355.3214,-24.507 321.0753,-143.529 -10.7466,-37.35 -105.3716,-70.874 -120.4031,-21.133 -25.4429,84.19 114.7593,234.402 154.664,288.819 56.0933,76.493 232.0938,243.064 158.5799,360.145 -141.4783,225.322 -446.4312,79.125 -350.4417,-170.827"
       id="path1975" /><path
       style="fill:none;stroke:#ffffff;stroke-width:10.7"
       d="m 8376.8524,66877.836 c -18.8606,46.805 213.2515,47.954 226.1235,89.816 6.0203,19.578 -17.6199,36.983 -26.43,55.474"
       id="path1977" /><path
       style="fill:none;stroke:#ffffff;stroke-width:10.7"
       d="m 8344.5492,67134.956 c -24.4721,11.447 -84.8636,9.869 -73.4164,34.341 11.4472,24.472 46.4757,-36.371 73.4164,-34.341 29.0687,2.19 187.7994,59.505 214.3762,96.86"
       id="path1979" /><path
       style="fill:none;stroke:#ffffff;stroke-width:10.7"
       d="m 7029.9034,66896.328 c -27.0828,-0.294 -56.4938,-11.872 -81.2477,-0.881 -58.8571,26.133 -189.1967,182.969 -149.7698,255.359 90.2793,165.757 586.5349,-84.316 524.6838,-174.349 -50.8582,-74.03 -325.8336,3.774 -286.8141,114.472 67.828,192.429 524.0573,251.598 443.4358,498.39 -45.0927,138.034 -274.1266,179.984 -392.5337,156.737 -74.6892,-14.663 -91.4688,-57.462 -127.2556,-110.068"
       id="path1981" /><path
       style="fill:none;stroke:#ffffff;stroke-width:10.7"
       d="m 8800.7109,68834.414 c 9.4626,25.536 33.0221,49.772 28.3882,76.607 -1.6433,9.516 -114.9601,197.029 -120.4034,206.049 -38.4236,63.669 -46.8958,75.797 -46.9868,74.847 -3.9513,-41.229 3.2631,-82.772 4.8945,-124.158"
       id="path1983" /><path
       style="fill:none;stroke:#ffffff;stroke-width:10.7"
       d="m 8634.2999,68823.848 c 130.2578,112.657 237.8181,246.197 347.5051,377.754 41.8031,50.138 36.3066,64.134 41.1136,31.7"
       id="path1985" /><path
       style="fill:none;stroke:#ffffff;stroke-width:10.7"
       d="m 9258.8306,68376.529 c 34.9409,11.103 319.9604,-67.116 247.6585,42.266"
       id="path1987" /><path
       style="fill:none;stroke:#ffffff;stroke-width:10.7"
       d="m 9296.0284,68572.891 c 109.9891,99.707 243.717,15.767 365.125,58.997"
       id="path1989" /><path
       style="fill:none;stroke:#ffffff;stroke-width:10.7"
       d="m 10962.095,68009.34 c -128.401,43.159 -206.08,168.785 -240.806,296.745 -40.354,148.698 0.348,287.517 140.96,361.025 72.999,38.161 281.194,7.97 207.524,-117.113 -49.646,-84.292 -137.625,-98.845 -225.145,-75.727 -17.128,4.525 -36.044,9.788 -47.965,22.894 -4.559,5.012 5.997,16.647 12.726,15.85 51.244,-6.073 100.498,-23.482 150.748,-35.222"
       id="path1991" /><path
       style="fill:none;stroke:#ffffff;stroke-width:10.7"
       d="m 11382.038,68289.355 c -38.702,127.409 -87.33,255.631 -155.643,370.71 -2.945,4.961 -13.648,16.335 -13.705,10.567 -1.223,-123.247 23.133,-245.704 24.473,-368.95 0.537,-49.479 -4.36,-108.191 -23.494,-155.857 -1.564,-3.896 -10.649,-12.034 -9.788,-7.925 22.361,106.76 193.928,458.934 298.56,527.449 15.926,10.428 37.85,-4.109 56.775,-6.164"
       id="path1993" /><path
       style="fill:none;stroke:#ffffff;stroke-width:10.7"
       d="m 11652.211,68341.307 c -26.654,50.734 112.282,466.248 -6.852,353.98"
       id="path1995" /><path
       style="fill:none;stroke:#ffffff;stroke-width:10.7"
       d="m 11544.533,68519.178 c 72.333,-168.641 259.905,-118.69 410.154,-151.454 0.814,101.081 -39.173,158.343 86.142,116.232 145.858,-49.014 129.869,-225.03 80.269,-199.004 -113.769,59.699 191.9,531.687 203.609,571.476"
       id="path1997" /><path
       style="fill:none;stroke:#ffffff;stroke-width:10.7"
       d="m 8369.0215,70050.451 c 21.3839,-323.815 -296.4788,168.075 -147.8121,256.239 121.7509,72.203 397.4087,-159.131 272.1311,-225.42 -37.7367,-19.968 -107.5063,-70.064 -124.319,-30.819 -84.0221,196.128 404.5419,606.622 263.321,771.36 -172.1294,200.794 -470.2656,115.382 -451.2672,-152.334"
       id="path1999" /><path
       style="fill:none;stroke:#ffffff;stroke-width:10.7"
       d="m 9111.0185,70577.899 c -62.7991,119.023 -111.5475,245.025 -173.2635,364.547 -10.3121,19.971 -34.1087,69.837 -45.0286,50.191 -10.8955,-19.601 -15.0096,-42.266 -22.5145,-63.399"
       id="path2001" /><path
       style="fill:none;stroke:#ffffff;stroke-width:10.7"
       d="m 8793.8588,70550.602 c 106.0666,67.25 135.6158,143.489 185.0098,244.793"
       id="path2003" /><path
       style="fill:none;stroke:#ffffff;stroke-width:10.7"
       d="m 9414.4736,70274.991 c -27.4338,-20.871 317.1912,-11.137 266.2576,73.085 -17.6355,29.162 -54.8177,40.505 -82.2264,60.758"
       id="path2005" /><path
       style="fill:none;stroke:#ffffff;stroke-width:10.7"
       d="m 9352.8037,70499.53 c 40.4019,79.81 336.7659,18.935 371.9775,72.205 4.3598,6.596 -7.1784,14.089 -10.7678,21.134"
       id="path2007" /><path
       style="fill:none;stroke:#ffffff;stroke-width:10.7"
       d="m 10339.522,70303.168 c 99.469,81.748 222.115,28.177 339.674,28.177"
       id="path2009" /><path
       style="fill:none;stroke:#ffffff;stroke-width:10.7"
       d="m 10991.462,70207.188 c 43.751,-11.244 72.457,-16.367 110.614,-30.819 3.07,-1.163 11.973,-5.284 8.81,-4.403 -39.981,11.139 -81.985,17.311 -119.424,35.222 -91.718,43.879 -297.005,182.137 -331.843,154.977 -32.427,-25.28 153.166,-241.768 173.263,-265.045 59.473,-68.884 92.745,-110.506 94.952,-92.458 3.386,27.695 -5.426,57.034 2.937,83.652 13.335,42.445 55.308,74.711 60.691,118.874 6.005,49.27 -32.068,96.674 -28.388,146.171 3.52,47.348 62.924,198.635 115.509,233.346 19.607,12.942 46.986,0 70.48,0"
       id="path2011" /><path
       style="fill:none;stroke:#ffffff;stroke-width:10.7"
       d="m 11584.668,70189.577 c 98.036,-81.032 171.946,-251.747 0,0 -267.481,391.621 -10.022,89.109 -218.293,337.25 -24.801,29.549 -50.606,95.519 -85.163,78.369 -15.367,-7.626 -19.577,-28.177 -29.366,-42.266"
       id="path2013" /><path
       style="fill:none;stroke:#ffffff;stroke-width:10.7"
       d="m 11190.176,70313.734 c 153.014,56.89 -84,-101.723 -45.029,-114.47 30.281,-9.906 305.509,146.95 339.674,184.914"
       id="path2015" /><path
       style="fill:none;stroke:#ffffff;stroke-width:10.7"
       d="m 12140.676,70090.956 c -3.589,-24.362 13.594,-76.675 -10.768,-73.086 -24.362,3.59 7.972,48.621 10.768,73.086 7.524,65.837 69.614,359.028 26.43,430.588 -42.418,-49.31 -92.895,-92.702 -127.255,-147.931 -69.041,-110.974 337.219,-70.444 368.061,-70.444"
       id="path2017" /><path
       style="fill:none;stroke:#ffffff;stroke-width:10.7"
       d="m 12607.606,70077.748 c 16.84,119.2 54.429,260.337 154.664,339.892"
       id="path2019" /><path
       style="fill:none;stroke:#ffffff;stroke-width:10.7"
       d="m 12887.567,70116.492 c -7.831,34.048 -27.543,67.442 -23.493,102.143 14.991,128.428 177.493,158.163 243.743,56.356 48.465,-74.478 -37.936,-251.708 -139.003,-221.018 -32.698,9.929 -54.165,41.679 -81.247,62.519 z"
       id="path2021" /><path
       style="fill:none;stroke:#ffffff;stroke-width:10.7"
       d="m 13032.442,69914.847 c 223.348,99.552 -76.02,-135.789 -61.669,-99.503 14.351,36.286 64.139,60.56 61.669,99.503 -3.218,50.752 -65.825,82.329 -76.353,132.081 -29.109,137.558 7.257,281.2 4.895,421.784 -0.8,47.614 -6.051,95.06 -7.831,142.648 -0.505,13.496 -6.159,29.04 0.978,40.505 9.205,14.786 17.277,-30.4 23.493,-46.669"
       id="path2023" /><path
       style="fill:none;stroke:#ffffff;stroke-width:10.7"
       d="m 14194.631,68575.464 c 38.534,20.519 368.778,13.079 306.392,100.382"
       id="path2025" /><path
       style="fill:none;stroke:#ffffff;stroke-width:10.7"
       d="m 14159.391,68827.301 c 129.916,25.875 261.333,9.05 393.512,22.013 88.569,8.686 75.018,20.542 125.299,9.687"
       id="path2027" /><path
       style="fill:none;stroke:#ffffff;stroke-width:10.7"
       d="m 15065.841,68649.43 c 62.701,8.958 215.208,-48.655 253.532,9.686"
       id="path2029" /><path
       style="fill:none;stroke:#ffffff;stroke-width:10.7"
       d="m 15694.287,68249.661 c 9.762,-40.241 67.609,-150.989 137.044,-117.113 48.163,23.498 -31.886,178.561 -58.733,175.229 -32.26,-4.002 -110.695,-60.942 -78.311,-58.116 91.189,7.958 376.765,106.311 233.954,264.164 -33.962,37.539 -209.247,155.7 -212.419,27.297"
       id="path2031" /><path
       style="fill:none;stroke:#ffffff;stroke-width:10.7"
       d="m 15707.012,68829.942 c -24.798,10.861 -85.255,7.782 -74.395,32.58 10.86,24.799 51.038,-18.891 74.395,-32.58 41.501,-24.322 75.93,-60.466 119.424,-81.01 46.99,-22.195 529.253,-115.101 343.59,25.536"
       id="path2033" /><path
       style="fill:none;stroke:#ffffff;stroke-width:10.7"
       d="m 16020.257,69044.796 c -189.126,-112.056 45.864,-115.086 39.154,-81.891 -5.994,29.657 -30.304,52.958 -39.154,81.891 -65.759,214.969 5.459,132.753 -109.636,273.85 -12.568,15.408 -27.68,28.569 -42.092,42.267 -2.914,2.77 -13.784,7.494 -9.789,7.044 78.42,-8.822 360.166,-131.997 377.851,-7.925"
       id="path2035" /><path
       style="fill:none;stroke:#ffffff;stroke-width:10.7"
       d="m 15413.347,70380.588 c -105.749,116.337 -156.343,275.863 -215.356,419.141 -23.08,56.034 -32.453,95.601 -37.198,95.099 -0.932,-0.1 -7.64,-46.495 -16.641,-106.546"
       id="path2037" /><path
       style="fill:none;stroke:#ffffff;stroke-width:10.7"
       d="m 15059.967,70444.868 c -152.214,-259.612 -27.707,-18.582 0,0 41.64,27.925 101.373,5.727 148.792,22.013 26.701,9.171 83.816,66.437 110.614,88.935"
       id="path2039" /><path
       style="fill:none;stroke:#ffffff;stroke-width:10.7"
       d="m 15676.667,70490.656 c 38.154,17.185 348.117,-67.938 267.236,19.372"
       id="path2041" /><path
       style="fill:none;stroke:#ffffff;stroke-width:10.7"
       d="m 15725.611,70655.318 c 106.592,5.364 219.87,-55.474 325.97,-55.474"
       id="path2043" /><path
       style="fill:none;stroke:#ffffff;stroke-width:10.7"
       d="m 16889.509,70371.782 c 150.943,255.769 268.843,-66.179 231.017,-128.56 -71.99,-118.723 -308.969,-0.762 -314.223,-31.7 -8.276,-48.726 24.297,-95.819 37.198,-143.529 34.147,-126.276 29.635,-111.205 47.965,-214.854 43.398,-27.884 81.044,-67.99 130.193,-83.651 69.015,-21.992 286.32,-12.121 336.738,53.713 26.341,34.396 -13.286,76.475 -27.41,99.502"
       id="path2045" /><path
       style="fill:none;stroke:#ffffff;stroke-width:10.7"
       d="m 16696.667,70819.101 c 155.85,-49.467 724.217,-166.991 853.591,-118.874 57.942,21.55 -23.739,55.223 -39.156,64.28"
       id="path2047" /><path
       style="fill:none;stroke:#ffffff;stroke-width:10.7"
       d="m 17149.893,71086.787 c -31.977,17.024 -112.955,19.095 -95.931,51.072 36.203,68.002 235.336,-289.701 238.849,-10.566 0.575,45.698 -12.9,90.779 -25.452,134.723 -26.311,92.112 -76.634,181.219 -132.15,258.001 -20.587,28.473 -46.346,52.915 -71.458,77.489 -4.79,4.688 -21.569,15.102 -17.62,9.684 51.095,-70.094 138.308,-134.956 209.482,-172.586 111.392,-58.896 316.938,-146.375 264.299,-44.908"
       id="path2049" /><path
       style="fill:none;stroke:#ffffff;stroke-width:10.7"
       d="m 18252.12,70451.912 c 11.732,-41.032 323.214,-68.183 241.786,31.7"
       id="path2051" /><path
       style="fill:none;stroke:#ffffff;stroke-width:10.7"
       d="m 18334.347,70583.114 c 138.739,-14.124 288.385,-38.454 414.069,-101.263"
       id="path2053" /><path
       style="fill:none;stroke:#ffffff;stroke-width:10.7"
       d="m 18989.223,69713.132 c 54.84,-331.494 148.509,109.22 182.072,195.482 11.628,29.885 27.386,93.238 55.798,78.368 14.116,-7.387 20.882,-24.068 31.324,-36.102"
       id="path2055" /><path
       style="fill:none;stroke:#ffffff;stroke-width:10.7"
       d="m 19383.715,69672.627 c 221.928,-13.558 -36.594,-131.028 -34.261,-96.86 2.332,34.167 20.024,65.712 34.261,96.86 54.203,118.589 40.293,191.318 156.621,143.529 56.132,-23.06 90.91,-95.362 31.325,-139.126 -21.702,-15.94 -48.455,-28.428 -75.375,-29.059 -38.402,-0.899 -99.136,60.643 -112.571,24.656 -18.45,-49.42 47.994,-94.056 68.522,-142.649 10.54,-24.952 19.191,-50.921 24.472,-77.488 5.084,-25.577 14.456,-70.87 -10.768,-77.488 -33.102,-8.685 -13.123,67.21 -21.536,100.382 -16.91,66.679 -71.352,129.285 -60.69,197.243 19.021,121.241 225.636,270.075 113.55,414.738"
       id="path2057" /><path
       style="fill:none;stroke:#ffffff;stroke-width:10.7"
       d="m 19063.619,70315.427 c 205.706,-60.25 418.593,-88.078 632.36,-96.86 57.055,-2.344 114.381,-3.624 171.306,0.881 14.339,1.134 43.894,1.966 40.134,15.849 -6.883,25.418 -39.155,35.222 -58.733,52.833"
       id="path2059" /><path
       style="fill:none;stroke:#ffffff;stroke-width:10.7"
       d="m 19758.629,70553.175 c -38.83,42.56 -73.578,89.238 -116.489,127.68 -44.548,39.909 -220.119,149.501 -266.257,176.989 -87.33,52.032 -126.667,65.506 -120.403,46.67 51.143,-153.787 161.026,-305.189 229.06,-454.363 24.268,-53.211 24.745,-76.581 28.388,-73.086 9.007,8.643 4.038,24.637 5.873,36.984 6.322,42.541 11.147,85.32 18.599,127.679 27.424,155.887 88.198,463.768 180.115,589.967"
       id="path2061" /><path
       style="fill:none;stroke:#ffffff;stroke-width:10.7"
       d="m 17235.056,68430.173 c 32.22,-0.473 334.924,-63.153 336.737,-15.849 0.561,14.635 -18.273,22.894 -27.409,34.341"
       id="path2063" /><path
       style="fill:none;stroke:#ffffff;stroke-width:10.7"
       d="m 17223.309,68711.069 c 158.037,27.1 329.46,15.022 476.719,-50.192"
       id="path2065" /><path
       style="fill:none;stroke:#ffffff;stroke-width:10.7"
       d="m 17994.672,67965.244 c 80.857,-25.638 166.42,-30.545 249.617,-36.983"
       id="path2067" /><path
       style="fill:none;stroke:#ffffff;stroke-width:10.7"
       d="m 18635.845,67577.803 c -3.829,-34.199 -187.865,106.952 -133.129,151.454 74.914,60.909 258.154,-107.752 221.228,-122.396 -28.744,-11.4 -85.019,-59.827 -88.099,-29.058 -16.55,165.326 182.152,375.248 231.017,516.882"
       id="path2069" /><path
       style="fill:none;stroke:#ffffff;stroke-width:10.7"
       d="m 18274.635,68399.354 c 210.189,-56.294 425.659,-91.757 642.15,-112.71 70.937,-6.866 142.215,-9.719 213.398,-13.208 99.983,-4.9 103.7,-29.353 84.184,16.731"
       id="path2071" /><path
       style="fill:none;stroke:#ffffff;stroke-width:10.7"
       d="m 18969.645,68480.365 c -283.121,-20.981 -239.8,518.386 32.303,389.202 71.776,-34.077 -93.885,-39.23 -103.761,-38.744 -73.394,3.613 -259.03,62.934 -115.51,-9.686"
       id="path2073" /><path
       style="fill:none;stroke:#ffffff;stroke-width:10.7"
       d="m 11899.89,73117.675 c -39.808,11.448 -87.415,8.051 -119.424,34.34 -84.34,69.271 -133.965,266.57 -113.551,358.384 26.894,120.964 286.814,95.043 354.357,71.326 31.418,-11.033 54.166,-38.746 81.248,-58.118"
       id="path2075" /><path
       style="fill:none;stroke:#ffffff;stroke-width:10.7"
       d="m 12078.048,73116.794 c 46.334,15.264 97.559,20.055 139.002,45.789 33.048,20.521 166.879,159.207 200.672,204.287 42.825,57.131 48.451,92.482 34.261,95.099 -49.192,9.078 -212.227,-318.508 6.852,-247.433 159.784,-32.341 192.128,-25.446 163.474,-151.455"
       id="path2077" /><path
       style="fill:none;stroke:#ffffff;stroke-width:10.7"
       d="m 12656.57,72907.225 c 13.052,-30.527 23.668,-62.214 39.156,-91.577 57.764,-109.517 76.621,42.87 91.037,87.175 0.973,2.989 92.029,261.583 92.994,265.924 7.487,33.677 -4.287,37.074 -22.515,50.192 -136.311,-140.716 63.269,-228.907 130.193,-162.021"
       id="path2079" /><path
       style="fill:none;stroke:#ffffff;stroke-width:10.7"
       d="m 13206.705,73217.177 c 7.179,-33.459 14.358,-66.921 21.536,-100.383"
       id="path2081" /><path
       style="fill:none;stroke:#ffffff;stroke-width:10.7"
       d="m 13186.149,72872.882 c 3.907,-88.233 53.713,-110.281 118.445,-152.333 28.388,56.648 70.549,108.29 85.163,169.945 9.553,40.306 -15.048,81.859 -15.662,123.277 -2.52,170.012 129.247,91.527 212.419,35.222"
       id="path2083" /><path
       style="fill:none;stroke:#ffffff;stroke-width:10.7"
       d="m 13648.184,72902.823 c -54.835,14.65 -128.69,109.228 -46.987,149.693 79.133,39.19 157.564,-61.143 191.862,-114.472 9.953,-15.476 29.045,-62.214 12.725,-53.713 -62.842,32.729 -45.091,255.878 -5.872,297.624 9.078,9.663 24.798,-9.392 37.197,-14.089"
       id="path2085" /><path
       style="fill:none;stroke:#ffffff;stroke-width:10.7"
       d="m 13886.054,72768.978 c 83.786,172.492 189.616,335.608 256.468,516.001"
       id="path2087" /><path
       style="fill:none;stroke:#ffffff;stroke-width:10.7"
       d="m 15039.183,73203.969 c 0,138.48 -167.553,-501.613 -118.445,-511.599 47.966,-60.171 76.728,-142.967 143.897,-180.512 30.643,-17.129 67.805,24.146 93.972,47.55 170.728,152.699 42.878,395.894 -39.155,346.936 -25.408,-15.164 -22.84,-54.594 -34.261,-81.891"
       id="path2089" /><path
       style="fill:none;stroke:#ffffff;stroke-width:10.7"
       d="m 15415.076,72768.097 c 12.726,31.7 37.08,60.96 38.176,95.099 2.447,76.171 -144.094,107.688 -119.424,19.373 34.927,-125.029 113.026,-161.261 212.419,-58.997 32.277,33.208 15.509,124.373 17.62,169.947"
       id="path2091" /><path
       style="fill:none;stroke:#ffffff;stroke-width:10.7"
       d="m 15623.579,72857.034 c 12.476,-40.423 67.856,-465.41 80.269,-467.572 17.098,-2.976 53.328,86.577 62.649,111.829 16.259,44.048 28.457,89.508 41.112,134.723 24.453,87.366 26.713,97.253 37.199,170.828 10.01,70.231 53.279,-309.869 118.444,-173.468 42.544,89.05 41.196,211.468 121.383,273.851"
       id="path2093" /><path
       style="fill:none;stroke:#ffffff;stroke-width:10.7"
       d="m 16149.241,72619.285 c 0,-28.766 28.765,-86.294 0,-86.294 -28.764,0 -4.585,57.896 0,86.294 14.986,92.821 75.79,198.688 58.734,295.865"
       id="path2095" /><path
       style="fill:none;stroke:#ffffff;stroke-width:10.7"
       d="m 16102.255,72803.321 c 48.192,-103.376 23.818,-86.72 139.981,-153.218 423.732,-242.557 37.01,-29.951 59.712,36.984 7.99,23.558 30.124,40.412 49.924,55.475 49.129,37.372 280.87,102.066 219.27,201.644 -31.941,51.636 -244.531,200.155 -278.983,96.861"
       id="path2097" /><path
       style="fill:none;stroke:#ffffff;stroke-width:10.7"
       d="m 16951.929,72617.525 c 79.64,17.558 516.347,-93.054 221.23,46.667"
       id="path2099" /><path
       style="fill:none;stroke:#ffffff;stroke-width:10.7"
       d="m 16913.753,72815.648 c 173.836,67.413 368.524,-15.468 538.388,-66.043"
       id="path2101" /><path
       style="fill:none;stroke:#ffffff;stroke-width:10.7"
       d="m 17802.583,72255.617 c -367.094,-16.989 176.504,211.307 162.496,272.971 -25.863,113.848 -108.052,153.969 -195.778,200.766 -21.466,11.451 -44.149,20.479 -66.564,29.937 -4.055,1.712 -16.374,5.985 -12.726,3.525 57.716,-38.939 290.993,-115.896 239.827,34.34 -26.769,78.6 -328.192,361.175 -96.909,373.354 45.642,2.402 91.727,1.539 137.044,-4.406 48.291,-10.858 96.583,-21.719 144.875,-32.578 1.958,-1.175 3.916,-2.349 5.874,-3.524"
       id="path2103" /><path
       style="fill:none;stroke:#ffffff;stroke-width:10.7"
       d="m 19030.399,71822.664 c 27.345,41.973 170.632,-8.882 155.643,48.429"
       id="path2105" /><path
       style="fill:none;stroke:#ffffff;stroke-width:10.7"
       d="m 19301.551,71693.224 c 118.111,-91.358 261.822,-124.087 204.587,64.278 -9.773,32.163 -31.074,60.484 -38.176,93.34 -9.298,43.008 53.198,-45.868 111.593,-14.97 41.973,22.209 154.277,93.845 128.233,172.588 -48.276,145.96 -215.609,245.096 -179.136,105.666"
       id="path2107" /><path
       style="fill:none;stroke:#ffffff;stroke-width:10.7"
       d="m 19510.053,72285.833 c 107.17,1.833 210.605,-37.653 317.16,-42.267 27.245,-1.18 83.339,10.699 73.417,36.102 -10.61,27.165 -34.588,46.964 -51.882,70.445"
       id="path2109" /><path
       style="fill:none;stroke:#ffffff;stroke-width:10.7"
       d="m 19654.929,72635.411 c 3.916,65.453 16.88,130.992 11.747,196.36 -1.677,21.358 -57.275,63.043 -40.135,50.192 54.076,-40.537 118.54,-85.839 187.946,-95.98 22.842,-3.337 186.816,-12.372 123.34,58.996"
       id="path2111" /><path
       style="fill:none;stroke:#ffffff;stroke-width:10.7"
       d="m 20660.246,71464.281 c 4.557,52.566 -53.204,108.457 -50.902,166.425 1.062,26.76 53.52,-4.85 80.269,-3.524 64.231,3.185 77.84,58.385 90.058,113.591 11.616,52.49 -42.942,329.861 -105.72,301.148 -60.396,-27.625 -56.547,-184.634 -65.586,-240.389"
       id="path2119" /><path
       style="fill:none;stroke:#ffffff;stroke-width:10.7"
       d="m 20570.189,71531.203 c 64.894,21.396 335.151,78.58 370.999,147.932 13.319,25.768 -11.095,56.941 -16.642,85.413"
       id="path2121" /><path
       style="fill:none;stroke:#ffffff;stroke-width:10.7"
       d="m 20573.125,72166.077 c -3.263,27.003 -32.662,66.291 -9.789,81.01 84.53,54.399 682.272,-163.523 489.445,83.654"
       id="path2123" /><path
       style="fill:none;stroke:#ffffff;stroke-width:10.7"
       d="m 20789.46,72607.233 c 9.462,-26.123 12.717,-55.425 28.387,-78.37 15.979,-23.394 40.165,-40.473 63.628,-56.353 105.155,-71.179 16.289,173.323 -10.768,235.106 -83.004,189.534 -94.598,153.992 121.382,54.594 52.243,-24.046 54.725,-21.823 87.121,-48.432"
       id="path2125" /><path
       style="fill:none;stroke:#ffffff;stroke-width:10.7"
       d="m 20626.964,72434.645 c -27.339,46.474 -149.568,396.589 -147.811,398.889 11.362,14.866 18.924,-32.288 28.387,-48.43"
       id="path2127" /><path
       style="fill:none;stroke:#ffffff;stroke-width:10.7"
       d="m 21062.57,71596.363 c 35.239,-19.373 67.711,-71.252 105.719,-58.116 67.554,23.348 147.96,325.155 150.749,336.37 57.138,229.804 94.992,500.661 -19.578,722.929 -32.395,62.847 -95.279,104.492 -142.918,156.74"
       id="path2129" /><path
       style="fill:none;stroke:#ffffff;stroke-width:10.7"
       d="m 19474.813,71363.018 c -53.838,29.351 -117.177,45.697 -161.516,88.055 -42.955,41.036 -67.597,98.628 -91.037,153.214 -172.807,402.442 -305.288,856.054 -65.585,1265.349 147.156,251.272 260.424,265.959 508.043,398.007"
       id="path2131" /><path
       style="fill:none;stroke:#ffffff;stroke-width:10.7"
       d="m 21700.804,71230.936 c 25.778,-26.71 48.058,-57.307 77.332,-80.13 7.454,-5.811 66.806,-28.656 64.607,13.208 -6.107,116.291 -127.421,231.579 -194.799,315.236 -24.429,30.332 -88.027,69.079 -62.649,98.621 32.218,37.508 219.362,-3.423 277.025,66.921 88.157,107.546 -217.922,259.033 -226.122,321.4 -6.963,52.957 236.48,46.239 242.764,191.08 10.957,252.576 -302.415,459.491 -324.992,719.407"
       id="path2133" /><path
       style="fill:none;stroke:#ffffff;stroke-width:10.7"
       d="m 8099.2503,75272.804 c -141.3278,21.143 -160.2449,324.366 -24.4719,362.786 117.3279,33.197 405.1686,-146.947 235.912,-247.436 -81.2575,-48.241 -95.3412,20.91 -93.9731,115.353 3.3298,229.878 362.7562,550.421 168.3681,777.524 -132.235,154.49 -345.8948,-13.992 -369.0405,-163.783 -4.9678,-32.149 16.9677,-62.812 25.4513,-94.218"
       id="path2135" /><path
       style="fill:none;stroke:#ffffff;stroke-width:10.7"
       d="m 8892.1499,75977.241 c -54.1407,-26.913 -191.9859,358.508 -225.1443,340.773 -4.2442,-2.27 -69.5351,-391.8 -69.5013,-391.843 4.9512,-6.236 24.9566,31.369 65.5855,82.77 93.5995,118.42 196.6481,229.754 278.0038,357.502 15.513,24.36 28.5054,50.245 42.0925,75.727 1.7672,3.315 5.6145,13.917 3.9156,10.567 -10.173,-20.063 -19.5776,-40.505 -29.3664,-60.759"
       id="path2137" /><path
       style="fill:none;stroke:#ffffff;stroke-width:10.7"
       d="m 8889.2127,75780 c 2.0868,-98.031 38.7364,-162.256 112.5726,-226.301 5.4038,-4.689 19.0804,-13.163 20.5562,-6.165 3.9929,18.939 -5.7636,38.304 -9.789,57.235 -7.4001,34.806 -3.991,74.808 -24.4719,103.907 -23.3899,33.229 -111.6197,32.739 -98.8679,71.324 13.9965,42.346 86.5714,26.813 131.1712,26.416 40.6096,-0.363 75.1065,-34.632 115.5086,-38.746 27.3881,-2.789 149.38,5.273 88.0999,54.594"
       id="path2139" /><path
       style="fill:none;stroke:#ffffff;stroke-width:10.7"
       d="m 9792.7259,75664.647 c -58.1234,114.638 301.9931,-7.84 280.9411,73.967 -7.102,27.596 -33.935,45.788 -50.902,68.683"
       id="path2141" /><path
       style="fill:none;stroke:#ffffff;stroke-width:10.7"
       d="m 9792.7259,75955.228 c 109.6312,59.743 225.8281,32.147 343.5901,39.624"
       id="path2143" /><path
       style="fill:none;stroke:#ffffff;stroke-width:10.7"
       d="m 10812.727,75474.448 c -27.083,-7.043 -57.069,-35.221 -81.248,-21.132 -88.5,51.57 -145.465,267.742 -102.783,359.264 67.485,144.704 283.238,88.612 338.695,-36.102 82.753,-186.103 -552.861,52.721 -421.9,145.291"
       id="path2145" /><path
       style="fill:none;stroke:#ffffff;stroke-width:10.7"
       d="m 7969.0586,77112.267 c -32.9557,31.408 -77.0488,54.266 -98.8677,94.22 -17.1085,31.33 -18.9555,71.8 -10.7677,106.545 53.5546,227.259 461.8672,20.561 403.3014,-126.798 -23.3058,-58.64 -182.014,-132.641 -202.6298,-22.014 -15.9006,85.328 49.9719,197.096 87.1212,258.001 13.4671,22.079 181.9799,234.05 185.0099,276.492 17.7644,248.827 -395.8484,249.507 -378.8296,62.518 2.7628,-30.353 29.3666,-53.419 44.05,-80.129"
       id="path2147" /><path
       style="fill:none;stroke:#ffffff;stroke-width:10.7"
       d="m 8761.9577,77785.007 c 11.8549,41.664 -65.8109,362.463 -126.2767,351.337 -10.1708,-1.87 -13.2635,-16.155 -17.6199,-25.535 -15.6271,-33.644 -28.0614,-68.683 -42.0923,-103.023"
       id="path2149" /><path
       style="fill:none;stroke:#ffffff;stroke-width:10.7"
       d="m 8453.608,77742.742 c -21.2918,-34.544 315.6908,244.354 284.8563,192.839"
       id="path2151" /><path
       style="fill:none;stroke:#ffffff;stroke-width:10.7"
       d="m 8954.7984,77467.128 c -54.9222,-181.128 77.1679,-206.66 115.5087,13.208 12.4666,71.491 -91.8292,233.268 -99.8464,209.572 -25.8617,-76.438 231.6496,-193.659 283.877,-115.351"
       id="path2153" /><path
       style="fill:none;stroke:#ffffff;stroke-width:10.7"
       d="m 9587.1597,77261.963 c 127.3326,-1.114 78.6601,2.775 210.4607,-13.211 26.9629,-3.27 85.2303,-33.031 81.2478,-6.162 -1.5362,10.364 -13.7044,15.848 -20.5568,23.775"
       id="path2155" /><path
       style="fill:none;stroke:#ffffff;stroke-width:10.7"
       d="m 9652.7452,77467.128 c 114.1087,15.481 220.7839,-43.928 330.8641,-68.683"
       id="path2157" /><path
       style="fill:none;stroke:#ffffff;stroke-width:10.7"
       d="m 10575.836,77177.428 c 120.198,92.832 243.358,32.981 372.956,-2.64"
       id="path2159" /><path
       style="fill:none;stroke:#ffffff;stroke-width:10.7"
       d="m 11362.862,77103.464 c -121.109,-87.868 -251.277,24.373 -378.829,11.446 -72.754,-7.374 164.845,-349.708 179.136,-377.754 13.599,-26.691 -4.729,59.913 -2.936,89.813 2.549,42.513 6.649,85.177 15.662,126.802 39.16,180.864 130.364,339.616 180.114,516.001"
       id="path2161" /><path
       style="fill:none;stroke:#ffffff;stroke-width:10.7"
       d="m 11804.468,75367.324 c -0.881,-194.916 357.856,-103.415 340.653,54.594 -14.022,128.788 -96.628,226.483 -182.073,316.997 -52.637,55.761 -103.062,94.242 -102.784,94.218 50.197,-4.103 469.375,-206.922 370.999,44.03 -112.223,286.271 -99.188,175.26 -191.862,381.277 -5.588,12.423 -38.344,77.875 -0.979,94.219 195.032,85.304 512.656,-64.564 609.847,228.941 75.564,228.195 -320.242,513.262 -467.908,563.552 -60.751,20.687 -131.658,-4.755 -189.904,-31.7 -19.757,-9.141 -10.442,-42.267 -15.663,-63.399"
       id="path2163" /><path
       style="fill:none;stroke:#ffffff;stroke-width:10.7"
       d="m 12985.985,75652.621 c 79.071,16.878 293.566,-47.249 350.442,7.046 21.676,20.691 -25.076,55.174 -44.05,78.367"
       id="path2165" /><path
       style="fill:none;stroke:#ffffff;stroke-width:10.7"
       d="m 13017.31,75951.127 c 87.381,-31.578 178.683,-40.468 269.194,-56.354"
       id="path2167" /><path
       style="fill:none;stroke:#ffffff;stroke-width:10.7"
       d="m 13325.659,75391.099 c 11.513,-82.846 -0.972,-116.893 92.016,-165.542 188.126,-98.427 274.067,111.964 259.405,259.76 -13.798,139.084 -65.911,259.231 -127.255,383.04 -32.686,65.969 -71.378,128.789 -107.678,192.839 -6.123,10.806 -23.486,43.487 -19.578,31.7 9.394,-28.332 24.146,-54.594 36.219,-81.891"
       id="path2169" /><path
       style="fill:none;stroke:#ffffff;stroke-width:10.7"
       d="m 14834.126,75108.442 c 27.735,35.518 61.795,66.897 83.205,106.548 37.241,68.971 143.008,368.959 95.931,434.11"
       id="path2171" /><path
       style="fill:none;stroke:#ffffff;stroke-width:10.7"
       d="m 14839.998,75450.096 c -56.177,-98.772 -72.222,-68.247 44.05,-126.799 38.24,-19.256 78.096,-35.129 117.467,-51.951 25.897,-11.065 52.628,-20.151 78.311,-31.702 13.816,-6.213 32.022,-10.814 38.177,-24.654 1.691,-3.802 -1.491,-14.655 1.958,-12.327 76.959,51.922 106.353,175.4 185.01,221.898 43.165,25.516 68.595,-179.432 98.868,-156.739 47.493,35.602 42.158,248.864 83.204,242.152"
       id="path2173" /><path
       style="fill:none;stroke:#ffffff;stroke-width:10.7"
       d="m 15557.524,75273.987 c 0.615,4.688 -3.722,182.075 58.733,204.287 98.066,34.875 130.805,-279.913 161.517,-294.984 21.126,-10.366 29.286,535.617 135.086,202.525"
       id="path2175" /><path
       style="fill:none;stroke:#ffffff;stroke-width:10.7"
       d="m 15964.741,75089.072 c 52.135,-291.703 -3.668,-16.499 0,0 23.528,105.82 205.748,341.805 78.311,476.377"
       id="path2177" /><path
       style="fill:none;stroke:#ffffff;stroke-width:10.7"
       d="m 15896.218,75347.951 c 57.021,-176.784 190.122,-148.318 341.632,-120.634"
       id="path2179" /><path
       style="fill:none;stroke:#ffffff;stroke-width:10.7"
       d="m 17088.504,74877.739 c 21.536,51.953 41.332,104.661 64.607,155.858 2.968,6.53 107.023,203.406 109.635,203.406 25.644,0 16.494,-130.254 25.451,-131.201 13.187,-1.395 93.322,96.308 117.467,103.023 41.61,11.578 76.116,-78.983 104.74,-94.218 29.181,-15.531 60.687,-26.437 92.016,-36.984 43.24,-14.554 209.571,-19.576 199.693,-95.099 -9.935,-75.964 -367.457,48.861 -231.996,182.274 87.052,85.739 290.524,143.997 406.238,82.773"
       id="path2181" /><path
       style="fill:none;stroke:#ffffff;stroke-width:10.7"
       d="m 18413.917,74978.122 c 197.172,159.316 33.678,-124.757 20.557,-95.1 -13.447,30.396 -41.347,221.615 -36.218,234.225 19.169,47.133 221.291,-28.702 195.777,-102.142 -6.902,-19.87 -27.789,35.33 -28.388,56.356 -0.08,2.969 24.859,240.483 46.986,197.242 36.821,-71.956 35.059,-167.54 77.332,-235.987 6.123,-9.914 79.198,183.237 79.291,183.155 32.56,-29.289 1.392,-102.269 44.05,-139.126 23.46,-20.272 414.075,-105.757 248.637,-120.637 -73.391,-6.601 -284.715,73.695 -214.376,181.393 70.818,108.432 300.187,148.942 408.196,85.413"
       id="path2183" /><path
       style="fill:none;stroke:#ffffff;stroke-width:10.7"
       d="m 15352.936,76359.702 c -101.137,-3.387 -207.974,-289.317 -67.543,-313.476 94.602,-16.272 245.293,71.575 278.983,165.545 32.787,91.453 33.663,312.324 -20.557,286.178 -75.594,-36.454 -54.568,-239.233 -54.818,-280.895 m 0,0 c 9.789,-49.311 14.914,-99.782 29.367,-147.932 98.854,-329.34 288.352,85.475 243.743,185.796 -1.807,4.063 -6.852,-7.001 -6.852,-11.448 0,-32.074 2.159,-64.25 6.852,-95.979 4.041,-27.322 12.299,-129.78 57.754,-153.216 110.711,-57.08 162.825,214.954 187.946,267.687"
       id="path2185" /><path
       style="fill:none;stroke:#ffffff;stroke-width:10.7"
       d="m 16388.599,76178.309 c 144.141,-259.744 -64.392,8.305 7.831,129.442 72.429,121.481 254.565,-62.49 268.215,-135.604 4.457,-23.874 4.923,-76.492 -18.598,-70.446 -27.124,6.972 -15.97,56.857 -7.831,83.654 39.355,129.582 121.551,219.551 214.376,312.594"
       id="path2187" /><path
       style="fill:none;stroke:#ffffff;stroke-width:10.7"
       d="m 17279.387,75992.513 c -320.968,131.683 307.71,169.783 246.68,368.951 -21.001,68.535 -245.364,225.176 -225.145,94.218 6.151,-39.836 30.672,-74.552 46.008,-111.829"
       id="path2189" /><path
       style="fill:none;stroke:#ffffff;stroke-width:10.7"
       d="m 17505.51,76158.939 c 23.82,56.353 33.608,120.996 71.459,169.063 109.117,138.573 236.982,-94.118 205.566,-122.396 -2.928,-2.636 -3.144,7.514 -2.936,11.448 1.434,27.091 1.994,54.515 7.83,81.01 10.287,46.699 44.829,159.116 83.206,197.242 6.525,6.485 11.094,-14.674 16.641,-22.013"
       id="path2191" /><path
       style="fill:none;stroke:#ffffff;stroke-width:10.7"
       d="m 17910.77,76097.299 c 32.298,-95.571 10.601,-149.76 93.972,-76.608 67.413,59.148 151.349,172.776 136.067,269.449 -11.374,71.946 -101.416,203.512 -192.842,169.945 -118.254,-43.418 48.397,-244.827 82.226,-287.06"
       id="path2193" /><path
       style="fill:none;stroke:#ffffff;stroke-width:10.7"
       d="m 18173.111,75958.173 c 17.62,-26.416 24.793,-64.4 52.86,-79.251 15.882,-8.403 34.523,13.475 46.987,26.419 82.047,85.185 261.825,261.122 163.474,408.572 -19.891,29.821 -55.193,57.457 -91.037,57.237 -102.69,-0.632 -61.176,-235.72 -48.943,-274.733 24.762,-78.972 40.098,-88.624 86.142,-143.528 106.352,-183.798 91.176,-271.776 139.98,-66.04 26.333,111.009 59.615,232.811 67.543,346.935 1.574,22.647 -11.866,-43.847 -16.64,-66.041 -33.714,-194.453 273.402,-126.765 317.159,-253.598 37.228,-107.907 -107.04,-128.533 -173.263,-78.368 -242,183.316 255.173,357.708 379.809,373.352"
       id="path2195" /><path
       style="fill:none;stroke:#ffffff;stroke-width:10.7"
       d="m 16651.92,77013.069 c -159.615,-175.04 -75.396,-199.856 0,0 14.718,39.016 -11.399,84.016 -3.915,125.04 14.371,78.784 129.661,259.839 80.268,348.694"
       id="path2197" /><path
       style="fill:none;stroke:#ffffff;stroke-width:10.7"
       d="m 16549.137,77086.155 c -0.979,-59.878 -18.28,-121.745 -2.937,-179.634 40.294,-152.035 271.471,-125.462 316.18,7.927 46.16,137.716 -197.093,356.455 -142.917,118.872 5.605,-24.58 23.493,-44.614 35.24,-66.921"
       id="path2199" /><path
       style="fill:none;stroke:#ffffff;stroke-width:10.7"
       d="m 17182.477,77131.944 c 158.667,83.846 -5.613,124.118 -36.219,103.904 -32.689,-21.592 -52.522,-60.288 -66.564,-96.861 -121.384,-316.14 290.296,-183.015 188.925,73.086 -15.996,40.412 -14.256,37.174 -37.197,48.429"
       id="path2201" /><path
       style="fill:none;stroke:#ffffff;stroke-width:10.7"
       d="m 17352.804,77244.654 c 170.676,24.537 132.665,-140.679 89.078,-253.598"
       id="path2203" /><path
       style="fill:none;stroke:#ffffff;stroke-width:10.7"
       d="m 17401.747,76851.049 c -28.431,-104.352 -40.215,-199.978 19.579,-294.103 146.047,135.105 203.747,263.121 229.06,452.602 5.997,44.894 -1.958,178.108 -1.958,102.143 0,-37.978 90.957,-351.181 163.474,-294.104 65.164,51.29 74.211,172.934 79.29,248.315 1.342,19.916 -0.979,39.915 -0.979,59.877 0,4.123 -0.125,16.301 0.979,12.329 3.342,-12.027 3.915,-24.656 5.873,-36.984 13.052,-62.519 25.34,-125.202 39.156,-187.557 11.656,-52.608 19.67,-86.773 30.346,-83.652 69.96,20.454 172.8,301.074 105.719,386.561 -4.242,-48.43 -34.716,-101.932 -12.726,-145.29 21.267,-41.932 205.215,-86.665 256.469,-67.802"
       id="path2205" /></g></svg>
