<?xml version="1.0" encoding="UTF-8" standalone="no"?>
<!-- Created with Inkscape (http://www.inkscape.org/) -->

<svg
   width="5228.645mm"
   height="2676.7683mm"
   viewBox="0 0 5228.6449 2676.7684"
   version="1.1"
   id="svg12"
   inkscape:version="1.2.1 (9c6d41e410, 2022-07-14, custom)"
   sodipodi:docname="scale_re_index.svg"
   xml:space="preserve"
   xmlns:inkscape="http://www.inkscape.org/namespaces/inkscape"
   xmlns:sodipodi="http://sodipodi.sourceforge.net/DTD/sodipodi-0.dtd"
   xmlns="http://www.w3.org/2000/svg"
   xmlns:svg="http://www.w3.org/2000/svg"><sodipodi:namedview
     id="namedview14"
     pagecolor="#505050"
     bordercolor="#eeeeee"
     borderopacity="1"
     inkscape:showpageshadow="0"
     inkscape:pageopacity="0"
     inkscape:pagecheckerboard="0"
     inkscape:deskcolor="#505050"
     inkscape:document-units="mm"
     showgrid="true"
     inkscape:zoom="0.025736666"
     inkscape:cx="7654.4491"
     inkscape:cy="6760.7825"
     inkscape:window-width="1366"
     inkscape:window-height="746"
     inkscape:window-x="0"
     inkscape:window-y="0"
     inkscape:window-maximized="1"
     inkscape:current-layer="layer1"
     inkscape:lockguides="false"><inkscape:grid
       type="xygrid"
       id="grid344"
       color="#969696"
       opacity="0.39215686"
       empcolor="#000000"
       empopacity="0.17254902"
       dotted="false"
       originx="-5519.5007"
       originy="-35450.188" /></sodipodi:namedview><defs
     id="defs9" /><g
     inkscape:label="Layer 1"
     inkscape:groupmode="layer"
     id="layer1"
     transform="translate(-5624.5019,-35598.681)"><path
       style="fill:none;stroke:#ffffff;stroke-width:10.7"
       d="m 5743.8989,35875.71 c -35.5425,60.005 -62.8982,124.242 -91.5607,187.638 -7.5337,16.663 -25.0629,44.349 -22.0297,47.684 1.1353,1.248 3.2752,-0.868 4.819,-1.549 31.2948,-13.799 63.055,-23.381 97.4124,-24.46 31.3535,-0.986 149.2214,14.882 173.8277,-9.909 4.2375,-4.269 -7.1411,-9.682 -10.6707,-14.553 -8.1714,-11.276 -15.6897,-23.013 -23.7507,-34.369 -16.2643,-22.912 -31.0343,-47.012 -49.2224,-68.429 -24.5505,-28.909 -54.1496,-53.25 -78.8249,-82.053 z"
       id="path1884" /><path
       style="fill:none;stroke:#ffffff;stroke-width:10.7"
       d="m 6111.5188,35875.401 c -38.9932,-6.559 -44.3165,-19.104 -67.8101,17.339 -47.8252,74.186 34.0377,137.598 9.2938,213.647"
       id="path1886" /><path
       style="fill:none;stroke:#ffffff;stroke-width:10.7"
       d="m 5966.2607,35985.63 c 11.0905,-2.063 133.9751,-35.948 131.8337,8.36"
       id="path1888" /><path
       style="fill:none;stroke:#ffffff;stroke-width:10.7"
       d="m 6322.1775,35799.231 c -69.0899,60.989 -109.7903,157.117 -62.9913,244.92 20.2878,38.064 54.9717,68.91 80.546,103.418"
       id="path1890" /><path
       style="fill:none;stroke:#ffffff;stroke-width:10.7"
       d="m 6473.9755,35910.08 c -46.3818,6.629 -100.1656,123.234 -39.5844,140.573 36.816,10.537 62.0006,-40.525 63.3351,-68.738 0.4831,-10.214 -5.2555,-39.684 -7.5728,-29.725 -8.4393,36.269 25.2037,78.62 44.748,108.371"
       id="path1892" /><path
       style="fill:none;stroke:#ffffff;stroke-width:10.7"
       d="m 6678.7825,35914.724 c -38.2297,25.728 -18.0088,135.952 -45.0921,155.746"
       id="path1894" /><path
       style="fill:none;stroke:#ffffff;stroke-width:10.7"
       d="m 6584.1236,35931.444 c 8.9495,2.993 19.5,3.059 26.8487,8.98 21.3021,17.161 104.169,118.445 99.1335,143.36"
       id="path1896" /><path
       style="fill:none;stroke:#ffffff;stroke-width:10.7"
       d="m 6682.2246,35798.921 c 15.9486,18.578 35.0323,34.87 47.8456,55.734 39.0079,63.518 79.564,265.607 25.8161,326.044"
       id="path1898" /><path
       style="fill:none;stroke:#ffffff;stroke-width:10.7"
       d="m 6918.6991,35950.022 c 30.3235,-4.373 56.6348,-30.245 87.0858,-32.202"
       id="path1900" /><path
       style="fill:none;stroke:#ffffff;stroke-width:10.7"
       d="m 6916.2895,35993.99 c 46.186,11.746 81.4787,-1.581 124.6052,-11.456"
       id="path1902" /><path
       style="fill:none;stroke:#ffffff;stroke-width:10.7"
       d="m 7263.2567,35841.651 c -11.4738,-0.31 -23.5919,-4.733 -34.4214,-0.929 -7.677,2.696 -11.7545,11.537 -15.8338,18.578 -37.5408,64.79 10.0603,112.862 28.2254,172.775"
       id="path1904" /><path
       style="fill:none;stroke:#ffffff;stroke-width:10.7"
       d="m 7165.5002,35969.529 c 24.4648,-12.14 90.8727,-52.751 120.1304,-19.507"
       id="path1906" /><path
       style="fill:none;stroke:#ffffff;stroke-width:10.7"
       d="m 7414.7105,35759.598 c -81.3507,67.206 -68.2565,198.208 13.7687,260.711 37.8099,28.812 29.9154,27.578 51.976,29.106"
       id="path1908" /><path
       style="fill:none;stroke:#ffffff;stroke-width:10.7"
       d="m 7510.4019,35863.944 c -10.6706,8.257 -24.0704,13.863 -32.0117,24.771 -23.3218,32.032 65.9223,59.514 78.1363,8.05 1.3076,-5.509 0.4679,-25.308 -9.6382,-26.318 -5.087,-0.509 0.9904,10.582 3.7864,14.862 15.2506,23.345 36.4146,42.282 51.2881,65.952"
       id="path1910" /><path
       style="fill:none;stroke:#ffffff;stroke-width:10.7"
       d="m 7723.1257,35802.637 c -26.0732,52.426 -27.4306,117.664 -57.1395,168.44 -3.5986,6.151 -3.6793,-13.775 -5.163,-20.745"
       id="path1912" /><path
       style="fill:none;stroke:#ffffff;stroke-width:10.7"
       d="m 7638.7934,35819.667 c 58.0684,30.89 93.4387,85.94 126.3264,140.883"
       id="path1914" /><path
       style="fill:none;stroke:#ffffff;stroke-width:10.7"
       d="m 7828.4549,35785.297 c 9.6772,50.418 25.1571,100.717 24.439,152.34"
       id="path1916" /><path
       style="fill:none;stroke:#ffffff;stroke-width:10.7"
       d="m 7791.9685,35880.355 c 30.3876,-18.94 56.7634,-16.393 89.4954,-18.888"
       id="path1918" /><path
       style="fill:none;stroke:#ffffff;stroke-width:10.7"
       d="m 7944.1106,35788.703 c -7.2284,10.734 -16.9151,20.172 -21.6855,32.202 -2.5506,6.432 -1.5888,14.212 0.6887,20.746 22.3488,64.112 113.9216,-38.725 82.2669,-44.588 -29.9165,-5.54 -9.383,79.266 37.8634,79.266"
       id="path1920" /><path
       style="fill:none;stroke:#ffffff;stroke-width:10.7"
       d="m 8028.7873,35658.348 c 20.4232,22.809 42.6731,44.107 61.2698,68.428 69.5524,90.964 87.8285,199.665 9.2938,291.675 -11.0107,12.9 -34.8308,41.759 -58.1721,35.299"
       id="path1922" /><path
       style="fill:none;stroke:#ffffff;stroke-width:10.7"
       d="m 8332.3834,35832.981 c 37.8315,6.896 96.0795,-23.252 130.1126,1.238"
       id="path1924" /><path
       style="fill:none;stroke:#ffffff;stroke-width:10.7"
       d="m 8671.4335,35724.299 c -155.3036,28.922 -2.1244,206.471 -25.4717,225.723"
       id="path1926" /><path
       style="fill:none;stroke:#ffffff;stroke-width:10.7"
       d="m 8567.825,35871.995 c 44.3664,-22.797 96.0628,-21.076 144.57,-17.959"
       id="path1928" /><path
       style="fill:none;stroke:#ffffff;stroke-width:10.7"
       d="m 8875.2079,35662.682 c -102.4358,87.967 -62.0763,280.013 84.3322,284.553"
       id="path1930" /><path
       style="fill:none;stroke:#ffffff;stroke-width:10.7"
       d="m 9055.9199,35749.07 c -10.2116,4.851 -22.1136,7.123 -30.6351,14.553 -57.1044,49.787 35.4849,113.903 70.9078,33.131 3.0695,-6.999 3.7667,-15.894 -2.7537,-21.055 -4.8596,-3.847 -7.2605,12.262 -4.8189,17.958 9.1191,21.278 32.0006,37.261 47.1572,54.186"
       id="path1932" /><path
       style="fill:none;stroke:#ffffff;stroke-width:10.7"
       d="m 9244.5485,35736.685 c -8.6617,6.059 -78.0815,166.728 -74.0058,108.062"
       id="path1934" /><path
       style="fill:none;stroke:#ffffff;stroke-width:10.7"
       d="m 9153.6766,35764.861 c -3.2129,-9.082 -0.5557,-30.46 -9.6383,-27.247 -9.0826,3.212 3.2359,20.049 9.6383,27.247 12.6616,14.237 31.2711,21.937 45.4361,34.679 27.8873,25.086 50.5221,56.501 71.9404,87.007"
       id="path1936" /><path
       style="fill:none;stroke:#ffffff;stroke-width:10.7"
       d="m 9241.1068,35601.994 c 83.6033,106 125.8895,163.281 90.528,304.06 -3.9127,15.577 -25.1241,53.849 -43.3708,60.689"
       id="path1938" /><path
       style="fill:none;stroke:#ffffff;stroke-width:10.7"
       d="m 5660.2551,36396.204 c -0.1148,9.805 -1.29,19.655 -0.3443,29.415 1.244,12.841 4.5221,25.403 6.8843,38.085 14.9119,80.064 14.7241,-28.709 25.1276,-27.557 26.6741,2.953 24.3496,56.324 45.7804,60.998 8.8964,1.94 19.6459,-77.686 24.0949,-83.911"
       id="path1940" /><path
       style="fill:none;stroke:#ffffff;stroke-width:10.7"
       d="m 5816.8722,36433.36 c 34.9162,0.317 31.4908,3.26 63.6795,-7.431 61.7432,-20.507 2.0907,-78.593 -32.3561,-56.353 -32.8766,21.226 -25.5047,25.358 -31.3234,63.784 -6.8682,45.357 -25.0601,59.152 27.537,71.216 39.8008,9.129 81.6784,-5.442 119.4421,-13.934"
       id="path1942" /><path
       style="fill:none;stroke:#ffffff;stroke-width:10.7"
       d="m 6181.394,36365.86 c -45.3465,6.33 -46.9778,-3.723 -67.4658,48.303 -30.8541,78.348 83.332,78.413 102.9199,54.186"
       id="path1944" /><path
       style="fill:none;stroke:#ffffff;stroke-width:10.7"
       d="m 6269.5127,36390.94 c -7.6874,12.179 -17.1389,23.409 -23.0623,36.537 -2.2093,4.897 -1.9294,10.875 -0.6883,16.101 15.0358,63.323 98.0154,-33.163 89.4954,-45.206 -14.0907,-19.919 -24.2569,130.338 8.9494,70.596"
       id="path1946" /><path
       style="fill:none;stroke:#ffffff;stroke-width:10.7"
       d="m 6354.1892,36386.296 c 13.0801,16.41 27.6528,31.735 39.2403,49.232 14.4878,21.875 6.1305,60.101 11.7032,13.314 1.0867,-9.123 4.7329,-41.443 15.4897,-52.328 20.5534,-20.8 55.3502,50.285 51.6318,68.119"
       id="path1948" /><path
       style="fill:none;stroke:#ffffff;stroke-width:10.7"
       d="m 6670.5214,36323.131 c 15.6977,21.76 49.2406,65.804 64.3676,93.509 6.0898,11.153 11.7642,22.641 15.8338,34.679 3.0679,9.075 1.3764,42.647 -12.0474,9.599 -3.7855,-9.32 -25.2112,-83.148 2.0655,-86.388 13.3576,-1.587 30.7056,13.327 44.4033,15.791 17.9149,3.223 77.448,10.338 77.448,-21.674 0,-48.874 -60.3016,-41.177 -76.0709,-4.025 -38.3627,90.381 163.1824,99.539 124.6051,35.917"
       id="path1950" /><path
       style="fill:none;stroke:#ffffff;stroke-width:10.7"
       d="m 6982.7226,36381.032 c 39.474,6.697 77.6107,-13.98 115.9999,-15.172 2.3556,-0.07 -3.9597,4.151 -6.1956,3.406 -4.7649,-1.587 -8.4908,-5.367 -12.7362,-8.05"
       id="path1952" /><path
       style="fill:none;stroke:#ffffff;stroke-width:10.7"
       d="m 7152.764,36280.711 c -2.6626,-66.131 19.6502,-68.105 0,0 z"
       id="path1954" /><path
       style="fill:none;stroke:#ffffff;stroke-width:10.7"
       d="m 7195.4465,36343.567 c 4.7803,0.997 7.2101,208.855 21.6856,129.426"
       id="path1956" /><path
       style="fill:none;stroke:#ffffff;stroke-width:10.7"
       d="m 7230.5562,36338.612 c 9.638,3.51 23.3921,1.884 28.9141,10.528 10.7248,16.788 11.1046,38.326 14.8012,57.901 2.4035,12.728 2.3612,25.797 3.4422,38.705 0.1812,2.162 0,8.645 0.3442,6.502 3.0797,-19.394 9.7294,-106.403 30.635,-113.636 22.651,-7.836 30.9855,78.622 30.6351,97.225"
       id="path1958" /><path
       style="fill:none;stroke:#ffffff;stroke-width:10.7"
       d="m 7423.6599,36321.273 c 75.4558,4.442 40.0886,161.228 -24.0948,140.883 -43.7289,-13.861 8.0382,-71.572 29.6024,-79.885 25.9136,-9.99 63.2344,10.328 93.626,5.573 8.072,-1.263 59.8718,-7.714 46.4688,-29.415 -2.0274,-3.283 -4.9053,-6.647 -8.6053,-7.741 -57.5092,-16.997 -45.8442,150.542 47.8456,61.308"
       id="path1960" /><path
       style="fill:none;stroke:#ffffff;stroke-width:10.7"
       d="m 7648.7757,36303.004 c 38.4513,-26.697 4.9978,172.765 -31.6679,143.051 -10.5859,-8.579 -15.3746,-22.5 -23.0619,-33.75"
       id="path1962" /><path
       style="fill:none;stroke:#ffffff;stroke-width:10.7"
       d="m 7589.2266,36315.39 c 43.7939,45.705 101.2548,86.686 131.4895,143.67"
       id="path1964" /><path
       style="fill:none;stroke:#ffffff;stroke-width:10.7"
       d="m 7923.458,36228.383 c 6.4254,28.176 11.9991,56.561 19.2759,84.53 4.0916,15.725 10.6559,30.734 14.8014,46.445 7.3501,27.856 -1.5751,85.762 -8.9498,39.323 -8.1193,-51.126 26.1027,-137.132 77.792,-60.069 41.7361,62.224 -81.4557,181.782 -48.8781,72.455"
       id="path1966" /><path
       style="fill:none;stroke:#ffffff;stroke-width:10.7"
       d="m 8122.413,36299.908 c 37.6804,-2.711 28.4599,-10.348 17.8993,34.679 -5.8256,24.839 -9.8226,74.13 -29.9466,92.581 -2.1198,1.943 -5.7369,-0.413 -8.6053,-0.62"
       id="path1968" /><path
       style="fill:none;stroke:#ffffff;stroke-width:10.7"
       d="m 8055.6359,36282.878 c 22.2967,14.841 40.9398,34.505 55.7622,56.044"
       id="path1970" /><path
       style="fill:none;stroke:#ffffff;stroke-width:10.7"
       d="m 8482.4601,36266.468 c -5.2779,-9.496 -8.1632,-20.793 -15.8337,-28.487 -22.1379,-22.203 -56.0964,39.866 -59.2045,48.613 -20.8539,58.689 20.4597,138.777 70.5636,171.227 7.6697,4.968 -11.4821,-14.227 -17.5546,-21.055"
       id="path1972" /><path
       style="fill:none;stroke:#ffffff;stroke-width:10.7"
       d="m 8392.2764,36397.133 c 31.2936,-37.043 76.1166,-68.999 126.3266,-50.47 30.1206,2.046 59.2501,5.301 86.3974,-9.908 70.3103,-39.391 28.838,-104.946 -31.6676,-39.324 -46.4933,50.425 27.6494,108.826 79.5131,92.271 18.0138,-15.482 34.3984,-33.091 54.0415,-46.445 13.2869,-9.033 60.4226,-4.911 54.0415,-35.298 -4.0326,-19.204 -32.8947,-37.001 -49.2222,-13.005 -28.8375,42.382 -29.0419,105.833 37.5189,96.915"
       id="path1974" /><path
       style="fill:none;stroke:#ffffff;stroke-width:10.7"
       d="m 8785.3684,36241.078 c 39.0876,17.55 108.1428,102.489 44.0589,135.31 -8.5151,4.361 -18.3952,8.056 -27.881,6.812 -39.9105,-5.236 -41.4864,-56.6 9.2935,-53.257"
       id="path1976" /><path
       style="fill:none;stroke:#ffffff;stroke-width:10.7"
       d="m 8879.6825,36334.277 c 10.6029,-10.944 -3.2186,-194.746 25.8162,-101.559 6.5249,20.941 10.8805,42.499 16.178,63.784 2.1523,8.649 1.0289,18.748 6.196,26.009 5.2686,7.405 22.2752,-33.888 30.2903,-34.059 3.8579,-0.08 13.839,45.765 20.3089,54.495"
       id="path1978" /><path
       style="fill:none;stroke:#ffffff;stroke-width:10.7"
       d="m 9027.006,36278.853 c -5.5039,6.708 -29.4222,23.202 -19.9644,38.395 5.6994,9.155 20.589,-2.925 21.6855,-6.812 2.8622,-10.148 -8.3664,-39.768 -1.7211,-31.583 25.6878,31.643 59.6778,83.308 25.8159,120.448 -27.3423,29.989 -83.6848,62.383 -102.5758,8.979"
       id="path1980" /><path
       style="fill:none;stroke:#ffffff;stroke-width:10.7"
       d="m 9264.5132,36215.688 c -12.0923,-39.828 30.993,-67.836 20.997,-41.181 -5.4107,14.427 -13.998,27.454 -20.997,41.181 z"
       id="path1982" /><path
       style="fill:none;stroke:#ffffff;stroke-width:10.7"
       d="m 9278.97,36283.807 c 3.0819,11.62 8.4915,236.441 16.1782,139.645"
       id="path1984" /><path
       style="fill:none;stroke:#ffffff;stroke-width:10.7"
       d="m 9314.4242,36290.619 c 2.2947,-9.186 16.0697,-25.263 6.8839,-27.557 -9.1856,-2.295 -11.3186,19.192 -6.8839,27.557 12.4356,23.458 42.0486,35.267 53.0087,59.45 8.4391,18.62 2.2109,40.869 1.7211,61.307 -0.088,3.691 -0.3357,12.523 -3.442,10.528 -13.4453,-8.638 51.0511,-177.396 84.3323,-31.273 2.2955,10.079 1.1472,20.642 1.7208,30.963"
       id="path1986" /><path
       style="fill:none;stroke:#ffffff;stroke-width:10.7"
       d="m 9691.3382,36113.509 c -28.1395,47.485 -38.7848,100.826 -52.6653,153.268 -4.0862,15.438 -9.7788,34.146 -11.7028,33.131 -4.0018,-2.11 -4.1307,-8.05 -6.196,-12.076"
       id="path1988" /><path
       style="fill:none;stroke:#ffffff;stroke-width:10.7"
       d="m 9596.6793,36181.319 c -18.7667,-82.6 -2.521,-2.437 0,0 10.4902,10.14 128.8174,59.174 119.7858,105.894"
       id="path1990" /><path
       style="fill:none;stroke:#ffffff;stroke-width:10.7"
       d="m 9569.4865,36357.81 c -10.9003,6.399 -39.0996,8.297 -32.7007,19.197 6.3992,10.9 20.1171,-18.008 32.7007,-19.197 20.9512,-1.981 41.2641,9.676 62.3019,10.218 15.7647,0.406 121.0794,-17.765 140.439,-5.574"
       id="path1992" /><path
       style="fill:none;stroke:#ffffff;stroke-width:10.7"
       d="m 9740.56,36437.385 c -11.9148,-15.156 -126.3444,60.886 -83.2991,76.17 18.5285,6.579 50.7167,-21.774 59.8924,-34.369 9.4033,-12.907 11.9282,-52.903 23.4067,-41.801 17.5553,16.981 3.9393,48.791 8.6055,72.764 10.378,21.437 8.6384,12.118 9.9825,26.629"
       id="path1994" /><path
       style="fill:none;stroke:#ffffff;stroke-width:10.7"
       d="m 5710.1659,36692.833 c -33.5457,47.794 -18.6885,114.492 -7.2283,168.441 1.1247,5.295 6.5723,20.432 3.7863,15.791 -3.2356,-5.39 -6.1959,-10.94 -9.2938,-16.411"
       id="path1996" /><path
       style="fill:none;stroke:#ffffff;stroke-width:10.7"
       d="m 5629.6201,36791.916 c 40.0063,-18.024 80.3664,-19.598 122.884,-27.248"
       id="path1998" /><path
       style="fill:none;stroke:#ffffff;stroke-width:10.7"
       d="m 5815.1511,36812.661 c -61.5627,-77.257 14.022,-82.085 53.353,-19.816 3.5578,5.632 27.1011,76.806 -13.7686,57.282 -16.3931,-7.832 -26.3896,-24.977 -39.5844,-37.466 z"
       id="path2000" /><path
       style="fill:none;stroke:#ffffff;stroke-width:10.7"
       d="m 6090.5217,36694.381 c -17.1513,59.257 32.2055,118.972 35.1097,171.228"
       id="path2002" /><path
       style="fill:none;stroke:#ffffff;stroke-width:10.7"
       d="m 6064.7058,36809.255 c 13.7985,-36.046 50.1261,-22.508 67.4658,-50.78 17.3254,-4.438 34.7978,-18.29 51.9763,-13.314 8.6603,2.509 10.8956,54.466 11.0146,60.069 0.4364,20.539 -3.9612,31.86 -1.721,26.319 6.273,-15.517 4.799,-33.736 18.2434,-46.445 21.3753,-20.206 35.286,51.656 34.4213,62.546"
       id="path2004" /><path
       style="fill:none;stroke:#ffffff;stroke-width:10.7"
       d="m 6289.477,36806.469 c 80.9376,5.749 63.053,-98.824 37.8636,-86.079 -17.4787,8.845 -37.8932,18.916 -45.7804,36.847 -4.1441,9.421 17.6514,91.463 24.439,97.535 25.02,22.379 98.273,1.633 118.0653,-20.436 4.1372,-4.614 2.2948,-12.179 3.4422,-18.269"
       id="path2006" /><path
       style="fill:none;stroke:#ffffff;stroke-width:10.7"
       d="m 6660.5391,36701.812 c -11.818,5.78 -26.4216,7.775 -35.454,17.34 -27.0155,28.608 -26.3748,75.518 -11.7032,108.681 1.7113,3.869 53.1562,60.512 27.8812,37.776"
       id="path2008" /><path
       style="fill:none;stroke:#ffffff;stroke-width:10.7"
       d="m 6562.7826,36806.778 c 30.3761,-19.967 65.4953,-1.815 97.0681,-9.289"
       id="path2010" /><path
       style="fill:none;stroke:#ffffff;stroke-width:10.7"
       d="m 6707.352,36766.835 c -15.6617,72.089 85.0106,50.771 101.5428,7.432 7.1317,-18.696 -9.5453,-23.565 -13.4241,-38.395"
       id="path2012" /><path
       style="fill:none;stroke:#ffffff;stroke-width:10.7"
       d="m 6820.9427,36690.356 c 9.7526,12.592 20.83,24.261 29.2579,37.775 1.8287,2.933 26.9451,70.59 14.457,71.526 -10.976,0.822 6.9542,-71.289 16.8663,-79.267 19.6474,-15.813 38.6556,62.378 41.65,79.886"
       id="path2014" /><path
       style="fill:none;stroke:#ffffff;stroke-width:10.7"
       d="m 6999.5893,36696.858 c -85.5755,43.49 15.3639,122.653 59.5488,71.216"
       id="path2016" /><path
       style="fill:none;stroke:#ffffff;stroke-width:10.7"
       d="m 7081.512,36654.129 c -1.4412,43.023 1.819,85.608 7.2286,128.188 1.0635,8.371 10.4375,20.361 3.4421,25.081 -1.8091,1.22 -3.4423,-2.684 -5.1634,-4.026"
       id="path2018" /><path
       style="fill:none;stroke:#ffffff;stroke-width:10.7"
       d="m 7041.2392,36745.78 c 20.4308,-9.229 59.6045,-31.552 85.3649,-17.649"
       id="path2020" /><path
       style="fill:none;stroke:#ffffff;stroke-width:10.7"
       d="m 7186.497,36764.049 c 23.571,-33.021 25.3658,-18.188 16.178,-41.801"
       id="path2022" /><path
       style="fill:none;stroke:#ffffff;stroke-width:10.7"
       d="m 7161.0255,36642.982 c -1.8315,-13.74 -1.8171,-28.877 -1.3771,-42.729"
       id="path2024" /><path
       style="fill:none;stroke:#ffffff;stroke-width:10.7"
       d="m 7322.1171,36727.512 c -54.3777,54.219 -58.2862,-49.955 -19.276,-67.5 11.4235,-5.138 48.8587,8.605 44.4037,25.08 -4.2899,15.865 -16.7518,28.28 -25.1277,42.42 z"
       id="path2026" /><path
       style="fill:none;stroke:#ffffff;stroke-width:10.7"
       d="m 7357.2268,36627.81 c 42.8245,28.075 43.7449,14.857 47.8459,63.165 1.3707,16.146 0.7917,32.428 0,48.613 -0.473,9.669 -2.6267,19.184 -3.7864,28.796 -0.447,3.704 -3.6346,8.471 -1.0329,11.146 2.1679,2.229 2.2278,-5.807 3.4422,-8.669 11.1777,-26.348 20.0649,-53.811 33.733,-78.957 9.13,-16.797 41.2673,-59.719 61.27,-25.39 13.5352,23.23 14.2317,50.793 18.5876,76.48"
       id="path2028" /><path
       style="fill:none;stroke:#ffffff;stroke-width:10.7"
       d="m 5812.7166,37354.941 c -24.3885,57.36 -52.7434,112.019 -86.3975,164.415 -22.3794,34.843 -30.5415,47.14 -30.2909,47.064 53.8247,-16.139 102.6149,-31.909 160.4034,-32.821 20.7703,-0.327 51.681,12.159 71.5964,9.599 7.2676,-0.934 -12.1819,-15.372 -44.4035,-50.78 -53.4409,-58.724 -64.6636,-56.967 -70.9079,-137.477 z"
       id="path2030" /><path
       style="fill:none;stroke:#ffffff;stroke-width:10.7"
       d="m 6119.0664,37354.322 c -87.6579,15.126 -100.2195,90.328 -61.2698,160.08 5.5732,9.981 39.2068,48.014 32.7003,64.404"
       id="path2032" /><path
       style="fill:none;stroke:#ffffff;stroke-width:10.7"
       d="m 5986.2002,37516.57 c 44.5063,-15.357 97.9876,-33.466 146.2906,-22.604"
       id="path2034" /><path
       style="fill:none;stroke:#ffffff;stroke-width:10.7"
       d="m 6295.648,37281.248 c -11.7033,-0.826 -26.1088,-10.002 -35.1099,-2.477 -14.4432,12.075 -18.6613,33.181 -23.4065,51.399 -26.3437,101.141 1.4903,173.075 59.8931,257.615 10.3858,15.034 37.9004,37.831 58.8606,34.06"
       id="path2036" /><path
       style="fill:none;stroke:#ffffff;stroke-width:10.7"
       d="m 6491.8497,37366.707 c -94.5877,22.762 -72.4398,188.007 35.4539,110.849 9.9041,-7.083 34.1886,-80.148 1.3768,-73.384 -41.5181,8.559 27.5194,66.108 50.2551,72.455"
       id="path2038" /><path
       style="fill:none;stroke:#ffffff;stroke-width:10.7"
       d="m 6672.5615,37368.874 c -5.4203,5.16 -22.9793,143.361 -69.8753,143.361 -5.4894,0 -1.2581,-10.923 -1.3767,-16.411 -0.4553,-21.05 -0.2295,-42.11 -0.3442,-63.165 -5.9664,-26.009 -11.9328,-52.018 -17.8992,-78.028 -0.918,-1.238 -3.4609,-5.085 -2.7539,-3.715 22.1144,42.846 69.2073,77.706 102.92,110.848 5.7993,5.702 39.2001,49.663 32.7005,27.248"
       id="path2040" /><path
       style="fill:none;stroke:#ffffff;stroke-width:10.7"
       d="m 6688.3952,37255.239 c 90.6152,76.143 139.1192,202.555 105.3296,319.232 -6.0574,20.916 -18.8131,61.135 -48.8784,51.399"
       id="path2042" /><path
       style="fill:none;stroke:#ffffff;stroke-width:10.7"
       d="m 6962.7333,37481.271 c -57.0851,2.463 -38.5993,-135.76 10.6707,-115.803 40.079,16.235 65.0019,67.599 78.8251,101.87 8.1094,20.105 -15.526,82.801 -47.1575,62.855 -11.1274,-7.016 -66.395,-79.961 -76.4151,-92.89"
       id="path2044" /><path
       style="fill:none;stroke:#ffffff;stroke-width:10.7"
       d="m 7232.5967,37199.814 c -14.1506,35.942 -28.6898,71.559 -45.7805,106.205 -4.5615,9.246 -10.8985,37.863 -13.4241,27.867 -1.2591,-4.984 -1.8359,-10.115 -2.7538,-15.172"
       id="path2046" /><path
       style="fill:none;stroke:#ffffff;stroke-width:10.7"
       d="m 7151.3623,37181.236 c 36.0216,68.64 90.9101,124.72 149.7329,174.324"
       id="path2048" /><path
       style="fill:none;stroke:#ffffff;stroke-width:10.7"
       d="m 7133.8076,37431.111 c 3.9769,-19.256 290.3612,-31.654 239.9167,11.456"
       id="path2050" /><path
       style="fill:none;stroke:#ffffff;stroke-width:10.7"
       d="m 7284.2289,37493.657 c -27.4368,-4.087 -114.6425,54.547 -77.7925,85.768 24.5401,20.792 104.348,-12.657 99.8219,-46.755 -1.9651,-14.804 -26.7218,-53.191 -22.0294,-39.013 23.0043,69.507 38.147,78.125 78.8247,121.686"
       id="path2052" /><path
       style="fill:none;stroke:#ffffff;stroke-width:10.7"
       d="m 7577.1542,37390.858 c 55.6669,13.846 268.2244,-53.251 98.4452,10.218"
       id="path2054" /><path
       style="fill:none;stroke:#ffffff;stroke-width:10.7"
       d="m 7589.2016,37454.643 c 26.4987,7.245 124.2956,-29.759 145.6024,3.096"
       id="path2056" /><path
       style="fill:none;stroke:#ffffff;stroke-width:10.7"
       d="m 8107.5874,37205.698 c -21.2823,18.192 -100.2374,16.989 -117.3771,34.059 -6.8694,6.842 4.2952,47.368 6.196,61.617 12.442,93.267 45.4038,210.217 -0.3443,299.106 -1.6806,3.266 -8.265,11.179 -4.8191,9.909 46.2357,-17.053 83.615,-32.321 133.5548,-39.943 11.0704,-1.69 75.1578,-5.747 50.2552,2.787"
       id="path2058" /><path
       style="fill:none;stroke:#ffffff;stroke-width:10.7"
       d="m 8378.1389,37303.851 c -32.4612,28.602 -69.8323,60.609 -65.4005,108.682 2.6141,28.356 7.6364,39.172 19.9644,62.546 7.3467,13.929 20.9423,31.452 14.801,33.44 -4.4304,1.435 -11.7567,-5.582 -14.4568,-7.741"
       id="path2060" /><path
       style="fill:none;stroke:#ffffff;stroke-width:10.7"
       d="m 8274.5307,37447.831 c 39.0422,-36.5 106.512,8.451 146.979,-17.03"
       id="path2062" /><path
       style="fill:none;stroke:#ffffff;stroke-width:10.7"
       d="m 8535.1,37265.766 c -54.338,76.622 -52.1983,135.637 -31.3234,226.033 1.6631,7.202 22.3197,67.592 35.7981,34.679"
       id="path2064" /><path
       style="fill:none;stroke:#ffffff;stroke-width:10.7"
       d="m 8679.67,37332.338 c -103.4773,40.391 -40.1384,156.489 13.0799,61.926 5.4909,-9.757 10.2529,-68.643 -13.0799,-61.926 -18.7807,5.406 37.5642,106.077 43.0265,114.564"
       id="path2066" /><path
       style="fill:none;stroke:#ffffff;stroke-width:10.7"
       d="m 8831.4678,37341.317 c -36.5255,30.628 -45.9899,75.081 -62.3025,117.351 -2.8962,7.505 -11.0713,25.733 -11.7033,25.7 -3.0554,-0.162 -4.2956,-17.513 -6.1961,-33.131 -2.7088,-22.264 -17.7596,-102.458 -14.1128,-119.519 2.2489,-10.519 14.3446,16.128 20.3089,25.081 0.4217,0.633 69.3319,125.09 77.448,129.736"
       id="path2068" /><path
       style="fill:none;stroke:#ffffff;stroke-width:10.7"
       d="m 8988.4289,37319.333 c -24.7441,52.496 24.3184,110.908 13.4244,163.177"
       id="path2070" /><path
       style="fill:none;stroke:#ffffff;stroke-width:10.7"
       d="m 8948.1562,37435.755 c 35.7396,-15.312 74.1775,-21.102 111.525,-31.273 24.7298,73.381 130.9946,-25.152 86.3976,-61.926 -9.8258,-8.103 -10.9233,18.685 -0.3442,42.11 3.975,8.801 52.9209,74.772 47.1571,64.403"
       id="path2072" /><path
       style="fill:none;stroke:#ffffff;stroke-width:10.7"
       d="m 9166.7314,37193.622 c 25.7013,31.066 55.1952,59.351 77.1038,93.199 61.4632,94.96 50.1729,242.582 -37.8632,317.375"
       id="path2074" /><path
       style="fill:none;stroke:#ffffff;stroke-width:10.7"
       d="m 9456.5591,37358.966 c 14.4571,2.993 28.6081,8.841 43.371,8.979 34.8592,0.327 69.0984,-10.789 103.9527,-11.456 9.325,-0.178 -15.4704,11.066 -24.4395,13.624"
       id="path2076" /><path
       style="fill:none;stroke:#ffffff;stroke-width:10.7"
       d="m 9754.6482,37258.955 c -53.5913,-5.031 -52.5317,-16.785 -79.5134,59.139 -16.865,47.457 49.5078,156.25 41.9937,161.32"
       id="path2078" /><path
       style="fill:none;stroke:#ffffff;stroke-width:10.7"
       d="m 9617.9952,37418.416 c 34.0458,-39.159 89.3786,-9.854 128.7356,-27.558"
       id="path2080" /><path
       style="fill:none;stroke:#ffffff;stroke-width:10.7"
       d="m 9864.7964,37175.354 c -62.3872,101.628 -41.4891,225.085 13.7686,324.495"
       id="path2082" /><path
       style="fill:none;stroke:#ffffff;stroke-width:10.7"
       d="m 9941.2117,37314.379 c -10.4364,16.864 -31.5565,29.874 -7.5726,43.658 20.6124,11.846 44.7381,-25.173 43.0265,-42.11 -1.1893,-11.769 -34.2238,-13.313 -35.4539,-1.548 -2.3664,22.632 15.5086,42.852 25.1278,63.475 4.2053,9.016 7.8274,19.672 16.1777,25.08 5.1631,3.344 12.1621,-1.858 18.2428,-2.787"
       id="path2084" /><path
       style="fill:none;stroke:#ffffff;stroke-width:10.7"
       d="m 10071.325,37274.127 c 2.546,24.673 -37.179,140.768 -65.401,122.305"
       id="path2086" /><path
       style="fill:none;stroke:#ffffff;stroke-width:10.7"
       d="m 10003.858,37302.922 c 21.982,4.476 68.216,101.02 77.793,89.175"
       id="path2088" /><path
       style="fill:none;stroke:#ffffff;stroke-width:10.7"
       d="m 10076.831,37100.112 c 39.226,87.613 84.513,181.882 63.68,280.838 -4.526,21.5 -14.457,41.552 -23.406,61.617 -6.231,13.969 -14.599,26.883 -22.03,40.252 -3.027,5.446 -13.582,20.578 -8.95,16.411 2.854,-2.567 5.279,-5.573 7.918,-8.36"
       id="path2090" /><path
       style="fill:none;stroke:#ffffff;stroke-width:10.7"
       d="m 10191.11,37007.222 c 130.505,-2.329 141.841,51.607 152.487,166.274 8.205,88.378 19.168,177.942 53.353,260.711 12.227,29.602 15.339,36.679 33.389,56.663 4.519,5.003 15.489,6.263 15.489,13.005 0,0.26 -35.005,14.131 -37.863,15.172 -15.703,5.72 -164.107,75.372 -208.937,57.282 -14.412,-5.816 2.778,-28.34 18.243,-57.902"
       id="path2092" /><path
       style="fill:none;stroke:#ffffff;stroke-width:10.7"
       d="m 10557.698,37248.427 c -48.838,9.011 -57.32,24.073 -67.81,-54.496 -9.999,-74.888 89.292,-127.495 115.311,-29.724 24.397,91.678 -105.166,182.291 -123.228,45.825"
       id="path2094" /><path
       style="fill:none;stroke:#ffffff;stroke-width:10.7"
       d="m 10753.9,36938.484 c -49.902,49.83 -69.044,116.691 -72.974,185.78 -0.403,7.082 1.95,28.055 3.098,21.055 1.037,-6.319 0.459,-12.798 0.688,-19.197"
       id="path2096" /><path
       style="fill:none;stroke:#ffffff;stroke-width:10.7"
       d="m 10654.422,36977.498 c -2.41,-9.599 2.37,-31.206 -7.229,-28.796 -50.856,12.766 171.216,145.086 125.638,140.264"
       id="path2098" /><path
       style="fill:none;stroke:#ffffff;stroke-width:10.7"
       d="m 10602.101,37227.062 c 76.407,26.857 163.694,4.576 239.572,8.98"
       id="path2100" /><path
       style="fill:none;stroke:#ffffff;stroke-width:10.7"
       d="m 10761.816,37319.643 c -12.047,0.206 -24.633,-2.947 -36.142,0.619 -10.127,3.138 -18.58,10.829 -25.816,18.578 -87.998,94.234 102.141,90.864 84.676,21.674 -3.814,-15.113 -19.364,-56.093 -22.718,-40.871 -10.315,46.815 44.624,165.066 88.463,192.901"
       id="path2102" /><path
       style="fill:none;stroke:#ffffff;stroke-width:10.7"
       d="m 5838.7947,37983.72 c 35.2026,16.841 180.081,-17.756 198.2668,8.669 3.336,4.848 -11.6759,1.606 -17.5549,1.858"
       id="path2104" /><path
       style="fill:none;stroke:#ffffff;stroke-width:10.7"
       d="m 5868.7412,38081.873 c 70.2953,3.116 140.4281,8.695 210.3144,16.721"
       id="path2106" /><path
       style="fill:none;stroke:#ffffff;stroke-width:10.7"
       d="m 6489.7022,37919.316 c -58.7001,13.966 -124.6573,62.276 -135.2758,127.259 -10.4878,64.183 20.5819,99.154 56.4509,143.361 8.6762,10.692 29.5134,27.327 19.276,36.536 -3.3341,2.999 -8.4907,-2.89 -12.736,-4.335"
       id="path2108" /><path
       style="fill:none;stroke:#ffffff;stroke-width:10.7"
       d="m 6303.1385,38148.445 c 0.1336,1.426 157.1501,-60.943 167.9761,-21.984"
       id="path2110" /><path
       style="fill:none;stroke:#ffffff;stroke-width:10.7"
       d="m 6716.8831,37913.742 c -19.2759,6.812 -42.961,6.403 -57.8278,20.436 -15.5042,14.636 -19.9506,38.023 -25.8161,58.521 -26.6877,93.264 -13.043,176.427 60.2371,241.204 15.1764,13.416 38.9581,31.193 61.27,34.06"
       id="path2112" /><path
       style="fill:none;stroke:#ffffff;stroke-width:10.7"
       d="m 6889.3338,38025.21 c 8.3179,14.737 -61.5395,236.37 -70.2195,137.478"
       id="path2114" /><path
       style="fill:none;stroke:#ffffff;stroke-width:10.7"
       d="m 6786.0697,38024.281 c 50.8912,29.92 88.7483,73.034 126.6706,117.042 6.9093,8.018 14.9629,28.856 26.1603,20.126"
       id="path2116" /><path
       style="fill:none;stroke:#ffffff;stroke-width:10.7"
       d="m 7038.3784,37993.628 c 1.6166,22.632 70.8306,178.33 48.1896,179.897"
       id="path2118" /><path
       style="fill:none;stroke:#ffffff;stroke-width:10.7"
       d="m 7008.7759,38117.791 c 38.2035,-13.648 74.1163,-22.319 110.4926,-40.252"
       id="path2120" /><path
       style="fill:none;stroke:#ffffff;stroke-width:10.7"
       d="m 7166.7699,38028.307 c -4.523,12.787 -29.2933,45.48 -1.7213,56.043 50.3065,19.274 120.9789,-99.528 61.6142,-82.981 -44.4122,12.379 94.8926,190.734 59.205,101.559"
       id="path2122" /><path
       style="fill:none;stroke:#ffffff;stroke-width:10.7"
       d="m 7261.7725,37865.749 c 106.3631,60.656 154.1052,198.713 133.8992,316.136 -2.1041,12.227 -14.8499,68.916 -35.7981,78.337"
       id="path2124" /><path
       style="fill:none;stroke:#ffffff;stroke-width:10.7"
       d="m 7492.3956,38052.768 c 8.3222,3.575 182.9374,-16.869 150.4213,1.238"
       id="path2126" /><path
       style="fill:none;stroke:#ffffff;stroke-width:10.7"
       d="m 7902.3537,37929.534 c -14.2275,2.477 -28.8086,3.422 -42.6824,7.431 -85.5075,24.709 -64.5426,137.152 -49.2227,200.952 2.771,11.54 6.5241,22.829 9.294,34.369 2.2672,9.446 7.523,38.019 4.4747,28.796 -1.3547,-4.099 -2.5242,-8.257 -3.7863,-12.385"
       id="path2140" /><path
       style="fill:none;stroke:#ffffff;stroke-width:10.7"
       d="m 7736.4428,38084.97 c 63.9109,-19.967 48.1379,-17.634 112.2136,-27.867 39.379,-6.289 64.4039,-9.044 60.2375,-1.549 -2.6101,4.696 -7.3433,7.845 -11.0149,11.767"
       id="path2142" /><path
       style="fill:none;stroke:#ffffff;stroke-width:10.7"
       d="m 8079.2796,37899.499 c -18.1287,6.915 -39.3711,8.457 -54.3859,20.746 -13.3591,10.934 -19.7861,28.721 -25.8159,44.897 -24.3719,65.378 -8.1048,120.681 31.3232,175.562 23.4064,32.579 84.9654,63.999 90.5282,105.275"
       id="path2144" /><path
       style="fill:none;stroke:#ffffff;stroke-width:10.7"
       d="m 8218.6859,38016.541 c -18.1901,23.311 -54.3531,163.423 -74.35,167.511 -3.465,0.709 -5.0486,-4.954 -7.5727,-7.431"
       id="path2146" /><path
       style="fill:none;stroke:#ffffff;stroke-width:10.7"
       d="m 8119.5523,38046.575 c -2.0653,-10.011 3.8159,-32.1 -6.1957,-30.034 -10.0116,2.065 0.2572,21.714 6.1957,30.034 13.7126,19.213 35.3669,31.509 50.5992,49.542 26.2258,31.046 40.132,70.146 62.6473,103.417"
       id="path2148" /><path
       style="fill:none;stroke:#ffffff;stroke-width:10.7"
       d="m 8227.2912,37883.708 c 54.1028,95.866 148.0487,295.671 39.5843,387.661"
       id="path2150" /></g></svg>
