<?xml version="1.0" encoding="UTF-8" standalone="no"?>
<!-- Created with Inkscape (http://www.inkscape.org/) -->

<svg
   width="4062.9331mm"
   height="860.73633mm"
   viewBox="0 0 4062.933 860.73637"
   version="1.1"
   id="svg12"
   inkscape:version="1.2.1 (9c6d41e410, 2022-07-14, custom)"
   sodipodi:docname="scale_over_a.svg"
   xml:space="preserve"
   xmlns:inkscape="http://www.inkscape.org/namespaces/inkscape"
   xmlns:sodipodi="http://sodipodi.sourceforge.net/DTD/sodipodi-0.dtd"
   xmlns="http://www.w3.org/2000/svg"
   xmlns:svg="http://www.w3.org/2000/svg"><sodipodi:namedview
     id="namedview14"
     pagecolor="#505050"
     bordercolor="#eeeeee"
     borderopacity="1"
     inkscape:showpageshadow="0"
     inkscape:pageopacity="0"
     inkscape:pagecheckerboard="0"
     inkscape:deskcolor="#505050"
     inkscape:document-units="mm"
     showgrid="true"
     inkscape:zoom="0.041336587"
     inkscape:cx="7668.7512"
     inkscape:cy="3169.1054"
     inkscape:window-width="1366"
     inkscape:window-height="746"
     inkscape:window-x="0"
     inkscape:window-y="0"
     inkscape:window-maximized="1"
     inkscape:current-layer="layer1"
     inkscape:lockguides="false"><inkscape:grid
       type="xygrid"
       id="grid344"
       color="#969696"
       opacity="0.39215686"
       empcolor="#000000"
       empopacity="0.17254902"
       dotted="false"
       originx="-5176.9963"
       originy="-35473.642" /></sodipodi:namedview><defs
     id="defs9" /><g
     inkscape:label="Layer 1"
     inkscape:groupmode="layer"
     id="layer1"
     transform="translate(-5281.9972,-35622.135)"><path
       style="fill:none;stroke:#ffffff;stroke-width:10.7"
       d="m 5418.4015,35779.687 c -15.9485,9.702 -35.8712,14.785 -47.8457,29.106 -24.8438,29.713 -17.0149,136.001 -9.6379,168.75 7.546,33.5 19.2146,65.96 30.2908,98.464 2.5798,7.57 31.9992,46.86 6.54,36.227"
       id="path1694" /><path
       style="fill:none;stroke:#ffffff;stroke-width:10.7"
       d="m 5282.4371,35963.3 c 50.9207,-4.201 103.9067,-12.268 154.5518,-1.548"
       id="path1696" /><path
       style="fill:none;stroke:#ffffff;stroke-width:10.7"
       d="m 5677.5942,35707.543 c -11.2443,1.961 -25.1213,-1.608 -33.733,5.883 -74.3081,64.639 -66.6202,275.55 -9.638,345.241 24.4515,29.905 70.6051,89.714 97.7567,62.237"
       id="path1698" /><path
       style="fill:none;stroke:#ffffff;stroke-width:10.7"
       d="m 5856.2408,35863.908 c -31.6509,-4.023 -84.1204,38.908 -72.6289,74.931 17.4295,54.637 115.1879,-10.731 118.7536,-49.541 1.7228,-18.752 -4.7178,-12.257 -14.1127,-14.863 -10.8243,-3.002 -29.9038,-21.56 -32.012,-10.527 -3.3621,17.596 58.1529,121.074 89.4957,108.991"
       id="path1700" /><path
       style="fill:none;stroke:#ffffff;stroke-width:10.7"
       d="m 6078.947,35821.488 c -9.5232,15.998 -19.8614,31.538 -28.5697,47.993 -40.5151,76.559 -6.681,20.365 -39.2405,93.819 -0.8843,1.995 -4.5344,6.115 -5.163,4.025 -12.1826,-40.499 -8.0524,-102.353 -14.4571,-145.837 -3.4354,-23.325 -8.8136,-51.284 -8.6052,-51.399 1.5746,-0.872 14.9146,25.244 27.8811,48.303 25.9345,46.119 50.0356,99.021 82.6113,140.883 4.3383,5.575 -0.9235,-14.149 -2.4094,-21.055"
       id="path1702" /><path
       style="fill:none;stroke:#ffffff;stroke-width:10.7"
       d="m 6078.2585,35652.428 c 14.2275,11.663 31.23,20.591 42.6824,34.989 70.4663,88.586 97.6952,217.482 91.2165,328.211 -2.2989,39.291 -8.2575,77.925 -15.8337,77.718 -5.184,-0.141 -2.2948,-10.114 -3.4422,-15.172"
       id="path1704" /><path
       style="fill:none;stroke:#ffffff;stroke-width:10.7"
       d="m 6764.6199,35757.084 c -16.6499,4.086 -81.1422,58.445 -75.3825,76.17 9.4424,29.058 125.9081,9.984 166.5992,60.998 43.1618,54.111 -76.1931,164.971 -93.6263,107.752 -2.5924,-8.508 1.1475,-17.752 1.7212,-26.628"
       id="path1706" /><path
       style="fill:none;stroke:#ffffff;stroke-width:10.7"
       d="m 6954.6256,35845.33 c -68.5432,24.394 -41.6761,148.462 33.3889,92.58"
       id="path1708" /><path
       style="fill:none;stroke:#ffffff;stroke-width:10.7"
       d="m 7021.0587,35874.745 c -14.2601,-15.203 -13.5875,61.256 5.5077,57.901 67.5172,-11.862 40.3241,-150.908 61.9584,-44.896 2.356,11.544 5.1233,23.012 8.261,34.369 1.4361,5.198 5.0786,14.943 7.5727,21.674"
       id="path1710" /><path
       style="fill:none;stroke:#ffffff;stroke-width:10.7"
       d="m 7121.2248,35788.976 c 29.7205,22.337 40.1778,190.725 45.7805,108.063 100.1379,-62.447 20.5371,-24.817 80.2018,-36.847 13.0789,-2.637 49.7492,-36.527 21.6856,-46.445 -4.0241,-1.422 -9.0096,1.338 -12.0478,4.335 -44.841,44.239 -25.0398,146.613 30.9792,100.631 12.0449,-9.887 20.1939,-23.739 30.2909,-35.608"
       id="path1712" /><path
       style="fill:none;stroke:#ffffff;stroke-width:10.7"
       d="m 7333.9487,35796.098 c -4.4746,-10.424 -2.9998,-35.748 -13.4242,-31.273 -10.4243,4.475 5.6052,23.054 13.4242,31.273 44.2563,46.52 198.3462,132.832 52.3206,184.542 -49.9179,17.676 -80.6368,-26.479 -62.3025,-69.358"
       id="path1714" /><path
       style="fill:none;stroke:#ffffff;stroke-width:10.7"
       d="m 7665.4264,35740.364 c -8.9625,17.354 78.3121,213.291 36.4868,187.638"
       id="path1716" /><path
       style="fill:none;stroke:#ffffff;stroke-width:10.7"
       d="m 7642.364,35867.004 c -2.8676,-41.789 23.2008,-81.214 65.0562,-92.58 33.4021,-9.071 49.5168,107.537 58.8606,134.071 2.2264,6.323 7.8774,24.117 9.6382,17.649 8.9546,-32.892 -9.2898,-82.966 -17.5551,-115.184 -1.9285,-7.517 6.4291,14.434 11.7031,20.127 15.4638,16.692 46.2965,44.047 70.2196,50.16 38.6837,9.886 37.1874,-70.311 13.7686,-84.839 -25.4725,-15.803 -45.2236,68.872 -42.6823,81.124 13.1593,63.447 145.5412,87.619 159.3707,20.435"
       id="path1718" /><path
       style="fill:none;stroke:#ffffff;stroke-width:10.7"
       d="m 8228.2152,35755.536 c 0.9115,53.735 -9.6671,105.827 -23.7506,157.294 -6.9397,25.36 -6.1928,24.043 -12.0478,2.167"
       id="path1720" /><path
       style="fill:none;stroke:#ffffff;stroke-width:10.7"
       d="m 8143.5388,35776.591 c 37.4039,37.158 79.3427,69.204 123.2283,98.154"
       id="path1722" /><path
       style="fill:none;stroke:#ffffff;stroke-width:10.7"
       d="m 8582.0663,35765.754 c -39.8907,-26.954 -89.1878,47.63 -55.418,74.931 52.9198,42.783 93.1672,-84.192 55.418,-74.931 -15.3096,3.756 1.9442,97.026 60.9259,91.342"
       id="path1724" /><path
       style="fill:none;stroke:#ffffff;stroke-width:10.7"
       d="m 8699.4434,35748.724 c 16.2468,-116.131 -3.4634,63.256 -21.6855,62.856 -3.6089,-0.08 -5.0485,-5.161 -7.5729,-7.741"
       id="path1726" /><path
       style="fill:none;stroke:#ffffff;stroke-width:10.7"
       d="m 8656.4164,35708.162 c 46.8934,-54.5 75.3911,147.46 102.2315,116.732"
       id="path1728" /><path
       style="fill:none;stroke:#ffffff;stroke-width:10.7"
       d="m 8818.8851,35823.655 c -1.3642,-56.047 1.4674,-28.498 -8.2611,-82.672"
       id="path1730" /><path
       style="fill:none;stroke:#ffffff;stroke-width:10.7"
       d="m 8881.8763,35625.49 c -10.423,12.948 -54.6891,41.477 -28.2258,65.642 25.2958,23.1 138.9616,37.767 138.3739,68.429 -0.9477,49.451 -146.2637,89.04 -153.8634,1.548"
       id="path1732" /><path
       style="fill:none;stroke:#ffffff;stroke-width:10.7"
       d="m 9184.0955,35834.802 c -13.9978,-11.559 -33.5126,-18.628 -41.9938,-34.679 -67.9829,-128.66 103.9764,-112.656 69.1869,-20.436 -7.2311,19.168 -18.1287,36.744 -27.1931,55.115 z"
       id="path1734" /><path
       style="fill:none;stroke:#ffffff;stroke-width:10.7"
       d="m 9291.1462,35657.692 c -63.5304,93.805 3.7031,105.85 28.9137,181.445"
       id="path1736" /><path
       style="fill:none;stroke:#ffffff;stroke-width:10.7"
       d="m 9235.7276,35760.49 c 27.3826,-50.786 60.6386,-41.888 107.7386,-28.486"
       id="path1738" /><path
       style="fill:none;stroke:#ffffff;stroke-width:10.7"
       d="m 7016.9282,36190.881 c -59.1149,-64.76 -181.1734,104.814 -91.9047,115.803 29.943,3.685 117.6112,-50.282 88.8071,-85.149 -21.661,-26.221 -49.4339,3.027 -36.1427,26.009 17.5288,30.309 33.7111,37.311 61.6142,55.734 30.5011,20.138 31.3266,18.146 50.2552,39.633"
       id="path1740" /><path
       style="fill:none;stroke:#ffffff;stroke-width:10.7"
       d="m 7405.8894,36190.881 c -9.2937,-7.019 -16.2949,-19.877 -27.8812,-21.055 -45.3274,-4.612 -61.789,69.647 -56.7952,98.154 9.6993,55.369 54.9301,87.789 84.3322,131.594 3.7931,5.651 10.078,21.639 3.4422,20.126 -9.4212,-2.149 -29.3584,-16.096 -37.8634,-21.675"
       id="path1742" /><path
       style="fill:none;stroke:#ffffff;stroke-width:10.7"
       d="m 7284.7264,36329.906 c 30.4681,-38.573 76.5612,-28.647 119.4422,-37.156"
       id="path1744" /><path
       style="fill:none;stroke:#ffffff;stroke-width:10.7"
       d="m 7436.5245,36242.28 c -29.4889,37.738 89.9139,127.604 109.8039,66.881 9.3898,-28.667 -14.4576,-54.112 -23.4066,-79.266 17.4402,0.309 37.277,-7.9 52.3207,0.928 25.9342,15.22 4.8321,85.502 16.178,55.735 3.7969,-9.962 23.8741,-85.872 34.4214,-85.459 28.5205,1.115 23.0808,114.874 37.8635,114.874 4.7649,0 5.9663,-7.431 8.9494,-11.147"
       id="path1746" /><path
       style="fill:none;stroke:#ffffff;stroke-width:10.7"
       d="m 7719.4678,36193.667 c -8.3759,16.411 -20.6079,31.371 -25.1275,49.232 -9.7128,38.387 60.2089,100.278 81.5787,55.424 3.242,-6.804 2.5241,-14.862 3.7862,-22.293"
       id="path1748" /><path
       style="fill:none;stroke:#ffffff;stroke-width:10.7"
       d="m 7793.4736,36167.348 c 0.5736,-8.979 10.7005,-26.364 1.7214,-26.937 -8.9795,-0.574 -2.4961,17.973 -1.7214,26.937 0.3154,3.65 35.1017,170.981 -4.8189,125.402 -22.5386,-49.701 -41.9662,-69.408 14.1129,-83.911 12.2619,-3.171 31.8353,-7.665 44.7475,-1.857"
       id="path1750" /><path
       style="fill:none;stroke:#ffffff;stroke-width:10.7"
       d="m 7893.9838,36248.163 c 0.5739,-9.805 1.1475,-19.61 1.7214,-29.415"
       id="path1752" /><path
       style="fill:none;stroke:#ffffff;stroke-width:10.7"
       d="m 7865.0701,36129.264 c -10.6606,-28.271 -11.4602,-56.126 8.9495,-79.886"
       id="path1754" /><path
       style="fill:none;stroke:#ffffff;stroke-width:10.7"
       d="m 7986.2331,36161.466 c -0.069,60.42 -72.9305,38.051 -75.3824,-8.67 -2.0241,-38.563 53.5175,-93.139 72.9729,-33.75 4.409,13.459 1.6063,28.28 2.4095,42.42 z"
       id="path1756" /><path
       style="fill:none;stroke:#ffffff;stroke-width:10.7"
       d="m 8004.4764,36070.433 c 9.638,16.927 22.4875,32.393 28.9139,50.78 11.4046,32.632 -1.1316,78.576 -6.5399,77.409 -12.9895,-2.805 7.2919,-95.217 32.7001,-83.292 30.8848,14.495 41.8714,64.396 51.6318,93.509"
       id="path1758" /><path
       style="fill:none;stroke:#ffffff;stroke-width:10.7"
       d="m 8392.0606,36084.676 c 5.2313,45.644 1.7356,23.948 14.8013,82.363 2.4609,11.002 17.9988,65.288 13.7684,83.601 -1.4854,6.43 -8.0061,19.082 -13.08,14.862 -7.8102,-6.495 -6.0386,-19.914 -5.163,-30.034 2.5905,-29.946 46.3708,-135.566 78.1362,-71.216 10.2423,20.749 18.4364,43.743 18.5877,66.881 0.1501,22.967 -30.5913,61.882 -57.1396,58.521 -20.3814,-2.581 -4.7083,-41.345 -1.3767,-61.617"
       id="path1760" /><path
       style="fill:none;stroke:#ffffff;stroke-width:10.7"
       d="m 8519.0754,36138.243 c 27.4502,-16.899 57.4992,-69.565 44.7479,-6.193 -11.9835,59.558 -7.647,21.123 -18.2433,90.104 -11.1762,72.756 -7.7433,53.152 -32.7006,-4.954"
       id="path1762" /><path
       style="fill:none;stroke:#ffffff;stroke-width:10.7"
       d="m 8479.8353,36167.348 c 39.4107,-1.661 28.8777,-8.567 46.1245,8.67"
       id="path1764" /><path
       style="fill:none;stroke:#ffffff;stroke-width:10.7"
       d="m 8881.5323,36035.445 c 0.2294,-9.496 10.1838,-28.257 0.6882,-28.487 -9.4954,-0.229 -1.9513,19.073 -0.6882,28.487 8.319,62.005 29.6289,127.382 17.5546,190.734"
       id="path1766" /><path
       style="fill:none;stroke:#ffffff;stroke-width:10.7"
       d="m 8797.8883,36276.959 c -9.179,2.27 -29.8077,-2.367 -27.5371,6.812 2.2707,9.179 18.3931,-4.404 27.5371,-6.812 25.7376,-6.778 51.0108,-15.498 77.1038,-20.746 12.5203,-2.518 238.9912,-22.718 157.9938,7.432"
       id="path1768" /><path
       style="fill:none;stroke:#ffffff;stroke-width:10.7"
       d="m 8945.8999,36346.317 c 0.8144,-124.727 -118.029,42.808 -72.2844,85.459 36.4151,33.952 95.2103,-13.046 111.8692,-44.278 8.9996,-16.872 15.8158,-54.468 -3.098,-57.282 -13.149,-1.957 -42.0568,4.03 -36.4868,16.101 13.8808,30.08 49.6215,43.906 74.3503,65.952 20.1546,17.967 53.0852,41.505 65.056,68.429"
       id="path1770" /></g></svg>
