<?xml version="1.0" encoding="UTF-8" standalone="no"?>
<!-- Created with Inkscape (http://www.inkscape.org/) -->

<svg
   width="128.31036mm"
   height="81.253174mm"
   viewBox="0 0 128.31036 81.253179"
   version="1.1"
   id="svg12"
   inkscape:version="1.2.1 (9c6d41e410, 2022-07-14, custom)"
   sodipodi:docname="selection_huffman.svg"
   xml:space="preserve"
   xmlns:inkscape="http://www.inkscape.org/namespaces/inkscape"
   xmlns:sodipodi="http://sodipodi.sourceforge.net/DTD/sodipodi-0.dtd"
   xmlns="http://www.w3.org/2000/svg"
   xmlns:svg="http://www.w3.org/2000/svg"><sodipodi:namedview
     id="namedview14"
     pagecolor="#000000"
     bordercolor="#ffffff"
     borderopacity="1"
     inkscape:showpageshadow="0"
     inkscape:pageopacity="0"
     inkscape:pagecheckerboard="0"
     inkscape:deskcolor="#000000"
     inkscape:document-units="mm"
     showgrid="true"
     inkscape:zoom="1.5101792"
     inkscape:cx="174.15152"
     inkscape:cy="131.77244"
     inkscape:window-width="1366"
     inkscape:window-height="746"
     inkscape:window-x="0"
     inkscape:window-y="0"
     inkscape:window-maximized="1"
     inkscape:current-layer="layer1"
     inkscape:lockguides="true" /><defs
     id="defs9"><rect
       x="587.26367"
       y="362.45731"
       width="66.575974"
       height="20.973427"
       id="rect1884" /></defs><g
     inkscape:label="Layer 1"
     inkscape:groupmode="layer"
     id="layer1"
     transform="translate(-18.285036,-120.02343)"><path
       style="fill:none;stroke:#ff7f2a;stroke-width:0.410001"
       d="m 46.317848,132.72496 c -0.235399,0.0679 -0.498032,0.0745 -0.706196,0.20376 -0.753686,0.46779 -1.474284,1.67543 -1.865422,2.41515 -1.096164,2.07306 -1.337178,4.517 0.06662,6.53828 0.220476,0.31745 0.657304,0.43514 1.032642,0.52738 2.331116,0.57284 4.669394,-0.74503 6.17588,-2.44512 1.527616,-1.72393 1.837703,-5.76616 0.0067,-7.41325 -1.331306,-1.19756 -3.344126,-0.45316 -4.710189,0.1738 z"
       id="path769" /><path
       style="fill:none;stroke:#ff7f2a;stroke-width:0.410001"
       d="m 63.406237,131.98754 c -0.0644,-0.20176 -0.0258,-0.47553 -0.193204,-0.60528 -0.310849,-0.24095 -0.797457,0.47136 -1.245836,1.54617 -0.549124,1.3163 -0.56252,3.2093 -0.419719,4.48871 0.278006,2.49076 3.095562,3.72632 5.156557,2.49306 1.208754,-0.7233 2.046227,-1.89767 2.438371,-3.24218 0.471548,-1.61676 0.541308,-5.23783 -1.165886,-6.32254 -1.408515,-0.89493 -3.701201,0.72799 -4.570283,1.64206 -0.288057,0.30298 -0.390851,0.73913 -0.586274,1.1087"
       id="path771" /><path
       style="fill:none;stroke:#ff7f2a;stroke-width:0.410001"
       d="m 81.860585,130.53126 c -0.413059,0.10388 -0.92157,0.0279 -1.239176,0.31164 -0.955992,0.8542 -1.521213,4.17459 -1.385742,5.41161 0.466868,4.26306 5.220769,3.07601 6.968684,0.51539 0.972444,-1.42459 1.420045,-2.8632 1.292468,-4.60257 -0.37006,-5.04541 -4.3429,-2.76489 -6.888734,-1.06674 -0.778616,0.51936 -2.293604,1.59588 -2.551631,2.70281"
       id="path773" /><path
       style="fill:none;stroke:#ff7f2a;stroke-width:0.410001"
       d="m 44.911919,136.66203 c 1.773413,0.29476 0.711455,-1.26554 0.07329,-0.82702 -0.567897,0.39022 0.16127,0.0593 -0.07329,0.82702 -0.29305,0.95916 -1.478964,1.30558 0.106596,1.69 0.447515,0.10851 1.804274,-0.56463 2.151897,-0.14982 0.06965,0.0831 -0.08439,0.19977 -0.126583,0.29965"
       id="path775" /><path
       style="fill:none;stroke:#ff7f2a;stroke-width:0.410001"
       d="m 47.470212,135.10387 c 0.195424,-0.20976 0.37132,-0.43957 0.586274,-0.62926 1.497935,-1.32187 0.130442,2.09929 0.23984,2.21738 0.03867,0.0418 1.163774,-0.51702 1.439038,0.024 0.210879,0.41446 0.382913,0.86687 0.419722,1.33043 0.03647,0.45924 -0.774219,2.60099 -1.325781,1.35441 -0.174474,-0.39433 -0.251723,-0.82492 -0.38641,-1.23455"
       id="path777" /><path
       style="fill:none;stroke:#ff7f2a;stroke-width:0.410001"
       d="m 47.710052,138.87941 c -0.350911,0.65132 -0.972472,1.63728 -0.826115,2.42714"
       id="path779" /><path
       style="fill:none;stroke:#ff7f2a;stroke-width:0.410001"
       d="m 63.452872,134.03713 c 0.493073,0.79467 0.757796,0.97899 0.839441,1.86979 0.04303,0.46948 0.07475,0.94782 0.0067,1.41433 -0.334915,2.29476 -1.486247,-0.97107 -0.666224,-1.93572"
       id="path781" /><path
       style="fill:none;stroke:#ff7f2a;stroke-width:0.410001"
       d="m 65.684717,134.53454 c -0.06712,-0.20208 0.237821,-1.62354 0.532977,-1.4383 0.442918,0.27797 0.02162,2.37693 -0.07995,2.7927 -0.04815,0.19711 -0.294326,0.67628 -0.106596,0.59929 0.332529,-0.13636 2.311318,-1.70091 2.485004,-0.65922"
       id="path783" /><path
       style="fill:none;stroke:#ff7f2a;stroke-width:0.410001"
       d="m 80.994493,132.63478 c -0.168775,0.43549 -0.44404,0.84358 -0.50633,1.30646 -0.04407,0.32745 0.06606,0.66876 0.199869,0.97086 0.590711,1.33363 2.763697,0.31245 2.318453,-0.83902 -0.100232,-0.25921 -0.332663,-0.44564 -0.486346,-0.6772"
       id="path785" /><path
       style="fill:none;stroke:#ff7f2a;stroke-width:0.410001"
       d="m 83.23966,131.26839 c 1.909056,-2.21645 0.962967,1.36594 0.659561,2.16345 -0.08293,0.21799 -0.377325,0.7889 -0.266491,0.79107 0.53661,0.0105 1.779818,-0.91815 2.238505,-0.26968"
       id="path787" /><path
       style="fill:none;stroke:#ff7f2a;stroke-width:0.410001"
       d="m 99.015796,130.3335 c -0.09721,0.39272 0.457112,-1.42341 0.04663,-1.32444 -0.200621,0.0484 -0.379741,0.19761 -0.499661,0.36557 -0.609033,0.85296 -1.226791,1.71503 -1.665552,2.66685 -1.211072,2.6272 -1.183476,6.12594 1.179206,8.07847 0.811152,0.67034 1.839896,0.90947 2.878081,0.81504 3.35468,-0.30516 4.53513,-5.1014 3.08461,-7.64099 -0.87954,-1.5399 -3.43164,-2.69905 -5.023314,-2.9605 -0.38906,-0.0639 -1.465512,0.58122 -1.10593,0.4195 0.04558,-0.0205 0.09327,-0.036 0.139907,-0.0539"
       id="path789" /><path
       style="fill:none;stroke:#ff7f2a;stroke-width:0.410001"
       d="m 99.961832,134.9121 c 0.0019,0.63988 0.05116,1.27699 0.126578,1.91174 0.003,0.0263 0.0542,0.75454 0.15989,0.54536"
       id="path791" /><path
       style="fill:none;stroke:#ff7f2a;stroke-width:0.410001"
       d="m 101.27429,136.87178 c -0.0388,0.0472 -0.36347,2.17377 -0.28648,1.50423"
       id="path793" /><path
       style="fill:none;stroke:#ff7f2a;stroke-width:0.410001"
       d="m 101.81392,135.35557 c 0.0178,-0.22973 2.7e-4,-0.46495 0.0533,-0.68918 0.10542,-0.4461 0.45707,-0.9398 0.57296,-0.86299 0.4029,0.26705 -0.2782,2.56022 -0.39974,3.04441 -0.0961,0.38297 -0.24997,0.85123 -0.11325,0.87497 0.62606,0.10868 1.90674,-1.19059 2.47834,-0.90493"
       id="path795" /><path
       style="fill:none;stroke:#ff7f2a;stroke-width:0.410001"
       d="m 113.23297,129.68626 c -0.32201,0.03 -0.68938,-0.0776 -0.96602,0.0899 -1.26846,0.768 -1.91204,3.94369 -2.0453,5.12396 -0.0785,0.69476 -0.1362,1.41174 0,2.09752 0.31437,1.58284 0.72703,3.28234 2.2918,4.0692 4.16595,2.0949 11.36997,-5.05297 6.80878,-9.07329 -1.78327,-1.57182 -3.01064,-1.4461 -4.95002,-1.94171 -1.22175,-0.31222 -2.32357,-0.73 -3.60426,-0.27568"
       id="path797" /><path
       style="fill:none;stroke:#ff7f2a;stroke-width:0.410001"
       d="m 113.38669,133.82475 c -0.26205,0.30764 -0.54471,0.59884 -0.78614,0.92291 -0.32795,0.4402 0.54713,0.3496 0.68621,0.52738 0.54413,0.69556 0.62949,1.23389 0.59959,2.05557 -0.0314,0.86318 -0.82175,2.96114 -1.00599,0.70717"
       id="path799" /><path
       style="fill:none;stroke:#ff7f2a;stroke-width:0.410001"
       d="m 114.06624,135.311 c 0.26897,0.68274 0.90889,2.85868 0.65955,3.6437"
       id="path801" /><path
       style="fill:none;stroke:#ff7f2a;stroke-width:0.410001"
       d="m 114.09288,136.00018 c -0.25915,-0.42456 -0.5223,-3.19681 0.57296,-2.98447 1.06237,0.20596 0.612,2.48272 0.25982,3.11632"
       id="path803" /><path
       style="fill:none;stroke:#ff7f2a;stroke-width:0.410001"
       d="m 116.60454,136.94108 c 0.0811,0.309 -0.81955,3.87078 -0.17988,1.79188"
       id="path805" /><path
       style="fill:none;stroke:#ff7f2a;stroke-width:0.410001"
       d="m 116.92433,134.29819 c -0.0289,-0.25769 -0.093,-0.51386 -0.0866,-0.77308 0,-1.4e-4 0.0526,-1.38417 0.52631,-1.30047 0.0811,0.0143 0.12269,0.12319 0.13991,0.20376 0.29043,1.35851 -0.16724,0.17345 -0.57961,1.86979 -0.10247,0.42149 0.0705,0.86736 0.0466,1.30047 -0.0198,0.35944 -0.31967,0.50482 -0.1066,0.53337 0.319,0.0427 1.95996,-1.16854 2.01866,-0.32362"
       id="path807" /><path
       style="fill:none;stroke:#ff7f2a;stroke-width:0.410001"
       d="m 131.64117,135.04731 c -0.0403,0.30954 0.014,0.729 -0.36642,0.88695 -0.74158,0.30788 -1.25278,-1.23807 -1.33911,-1.63007 -0.43091,-1.95655 -0.44625,-5.26002 1.49234,-6.52031 2.0306,-1.32012 4.47049,2.69889 4.78347,4.14111 0.20914,0.96373 0.26809,1.97507 0.15323,2.95452 -0.15744,1.34254 -1.59065,2.08345 -2.79147,1.7739 -0.34958,-0.0901 -0.62845,-0.36252 -0.90606,-0.59329 -0.36955,-0.3072 -0.81841,-0.57939 -1.02598,-1.01281 -0.25083,-0.52374 -0.25526,-1.4993 -0.27315,-2.17543"
       id="path809" /><path
       style="fill:none;stroke:#ff7f2a;stroke-width:0.410001"
       d="m 132.20079,129.75555 c 0.14885,0.1634 0.0737,2.91835 0.63958,3.14629 0.0805,0.0324 0.16433,-0.0559 0.2465,-0.0839"
       id="path817" /><path
       style="fill:none;stroke:#ff7f2a;stroke-width:0.410001"
       d="m 133.30006,131.7512 c -0.23318,0.11187 -0.8114,0.10243 -0.69953,0.3356 0.11187,0.23318 0.44315,-0.30162 0.69953,-0.3356 0.26591,-0.0352 0.52502,0.12221 0.7928,0.13784 0.23513,0.0137 0.58868,-0.2281 0.7062,-0.024 0.0503,0.0874 -0.0489,0.19576 -0.0733,0.29365"
       id="path819" /><path
       style="fill:none;stroke:#ff7f2a;stroke-width:0.410001"
       d="m 134.81238,129.87541 c -0.38905,1.79405 -0.24114,3.64721 0.0267,5.44757"
       id="path821" /><path
       style="fill:none;stroke:#ff7f2a;stroke-width:0.410001"
       d="m 146.42684,127.47103 c -0.37004,0.47009 -0.82363,1.18991 0,0 z"
       id="path823" /><path
       style="fill:none;stroke:#ffb380;stroke-width:0.410001"
       d="m 132.96632,130.07056 c -0.0977,-0.1698 -0.19428,-0.34027 -0.29314,-0.5094 -0.0113,-0.0194 -0.1223,-0.19833 -0.15323,-0.17979 -0.23473,0.14077 0.44295,0.41551 0.44637,0.68919 0.005,0.36527 -0.30646,0.66322 -0.45969,0.99483 0.02,0.38155 0.0291,0.76382 0.06,1.14464 0.0358,0.44249 0.0826,0.88422 0.13991,1.32444 0.0449,0.34514 0.097,0.68976 0.16655,1.03079 0.0177,0.0864 0.1439,0.30345 0.15323,0.21574 0.0201,-0.18872 0.004,-0.37986 -0.007,-0.56933 -0.0682,-1.16608 -0.21288,-2.36293 -0.41973,-3.51185 -0.065,-0.36109 -0.15228,-0.71815 -0.2465,-1.07274 -0.015,-0.0564 -0.022,-0.14837 -0.0799,-0.15581 -0.18755,-0.0241 -0.0761,0.37448 -0.0666,0.56333 0.0669,1.3302 0.2487,2.64376 0.47302,3.95533 0.039,0.2283 0.0461,0.90037 0.12658,0.6832 0.18979,-0.51221 -0.11168,-1.09014 -0.0933,-1.63607 0.0335,-0.99186 0.36506,-1.9804 0.25317,-2.9665 -0.0488,-0.42991 -0.49995,-0.70807 -0.71286,-1.08472 -0.0381,-0.0674 -0.10933,-0.39092 -0.15324,-0.5094"
       id="path1037" /><path
       style="fill:none;stroke:#ffb380;stroke-width:0.410001"
       d="m 134.31209,134.55926 c -1.15512,1.0138 -0.74333,2.71097 0,0 0.0739,-0.26964 -0.0339,-0.56829 -0.13991,-0.82702 -0.0254,-0.0619 -0.15106,0.0779 -0.13991,0.14383 0.041,0.24264 0.18655,0.45546 0.27982,0.68319 z"
       id="path1039" /><path
       style="fill:none;stroke:#ffb380;stroke-width:0.410001"
       d="m 134.6452,129.51322 c -0.0377,-0.17979 0.0665,-0.57712 -0.11326,-0.53937 -0.17978,0.0377 0.1211,0.35583 0.11326,0.53937 -0.0213,0.49941 -0.18603,0.98656 -0.19986,1.48624 -0.0264,0.9524 0.12356,1.90154 0.17987,2.85264 0.0161,0.27178 0.0337,0.54348 0.0533,0.81503 0.008,0.11463 0.0398,0.45632 0.0466,0.3416 0.0254,-0.42311 0.0356,-0.84699 0.0533,-1.2705 0.0312,-0.74779 0.15209,-1.65947 0.0999,-2.43313 -0.002,-0.0362 -0.0118,0.0717 -0.0133,0.10787 -0.007,0.1697 -0.0141,0.33955 -0.0133,0.5094 0.002,0.46173 -0.12106,2.56975 0.13991,2.93654 0.034,0.0478 0.0438,-0.10988 0.0533,-0.1678 0.0395,-0.24249 0.0622,-0.48743 0.0933,-0.73114"
       id="path1041" /><path
       style="fill:none;stroke:#ffb380;stroke-width:0.410001"
       d="m 135.69783,132.3239 c -0.18876,0.032 -0.38811,0.0258 -0.56629,0.0959 -0.097,0.0381 -0.15974,0.13565 -0.22651,0.21574 -0.47302,0.56734 0.7392,0.78176 1.03264,1.11469 0.29939,0.33967 0.36988,0.72661 0.45969,1.13865"
       id="path1043" /><path
       style="fill:none;stroke:#ff0000;stroke-width:0.410001"
       d="m 98.362758,143.49472 c -2.594168,-2.76214 -4.525361,-6.28399 -4.996661,-10.0861 -0.06101,-0.49222 -0.16583,-2.11326 0.07995,-2.7088 1.179902,-2.859 2.879109,-4.72638 5.995996,-3.38001 2.792977,1.20645 4.972097,3.81374 6.269147,6.46636 1.45108,2.96766 -0.6156,8.68216 -3.56429,10.0861 -0.52183,0.24846 -1.14375,0.28511 -1.71885,0.22773 -2.646196,-0.26402 -3.494768,-1.75567 -5.289799,-3.91937 -0.252659,-0.30455 -0.29314,-0.73513 -0.439708,-1.1027 m 36.728807,-0.38954 c -0.29758,-0.012 -0.65486,0.14324 -0.89273,-0.036 -0.53254,-0.40119 -0.95139,-0.96871 -1.23918,-1.57015 -1.64982,-3.44788 -3.11973,-7.04494 -2.73151,-10.9311 0.26524,-2.65517 1.39432,-5.2159 4.29713,-5.87906 1.48969,-0.34033 3.47121,1.46568 4.27715,2.18742 2.70332,2.4209 7.18142,7.76219 5.72951,11.79408 -0.55526,1.54191 -1.045,3.22087 -2.17189,4.4108 -2.74323,2.89668 -4.89897,2.65116 -8.16788,1.31844 -2.36687,-0.96495 -3.20119,-1.9346 -4.85009,-3.4759"
       id="path1079" /><path
       style="fill:none;stroke:#ff0000;stroke-width:0.410001"
       d="m 115.5348,156.03344 c -0.42398,-0.0819 -0.84226,-0.28873 -1.27194,-0.24578 -2.27631,0.22751 -5.51479,6.29546 -5.73787,8.14474 -0.49212,4.07937 0.55465,8.10341 5.65307,7.20399 0.7894,-0.13926 1.44129,-0.71794 2.09165,-1.18654 3.28908,-2.36987 5.86587,-7.11601 5.00297,-11.26365 -0.35735,-1.71763 -0.93035,-2.92603 -2.58157,-3.70369 -2.2296,-1.05007 -5.06599,0.42418 -7.16999,1.11025"
       id="path1134" /><path
       style="fill:none;stroke:#ff0000;stroke-width:0.410001"
       d="m 110.86159,163.68662 c -0.0235,-0.98408 -0.13541,-0.76615 0.4334,-1.75438 1.50249,-2.61034 1.26505,1.02365 1.18715,1.72048 -0.0927,0.82955 -0.33757,1.83783 -0.79143,2.568 -0.0246,0.0396 -0.55452,0.56973 -0.54646,0.57633 0.0772,0.0631 2.88407,-0.52665 2.96787,-0.53395"
       id="path1136" /><path
       style="fill:none;stroke:#ff0000;stroke-width:0.410001"
       d="m 111.90741,171.56863 c -0.66212,1.489 -0.18777,0.33674 -0.82912,2.23748 -0.89075,2.63988 -2.10106,5.09187 -3.25994,7.61927 -0.16272,0.35487 -0.32526,0.71057 -0.46167,1.07636 -0.0309,0.0829 -0.12552,0.27327 -0.0377,0.26274 0.1099,-0.0132 0.11934,-0.18646 0.17901,-0.27969"
       id="path1138" /><path
       style="fill:none;stroke:#ff0000;stroke-width:0.410001"
       d="m 105.13112,183.37523 c 0.0582,-3.52215 -4.68472,-0.35695 -5.775568,0.72887 -1.036982,1.0322 -1.782247,2.01217 -2.383711,3.37316 -1.320167,2.98727 -2.577004,6.58879 -1.290783,9.81438 2.153285,5.40002 10.313862,4.24702 13.934832,1.29672 2.53367,-2.06439 1.90233,-5.4 1.37558,-8.19561 -0.46491,-2.46743 -1.14477,-5.72827 -3.24109,-7.39891 -1.91517,-1.52628 -3.92044,-0.42351 -6.00169,-0.37292"
       id="path1140" /><path
       style="fill:none;stroke:#ff0000;stroke-width:0.410001"
       d="m 99.949129,191.49454 c -0.340609,0.68365 -1.354783,2.64757 -0.348602,3.26299"
       id="path1142" /><path
       style="fill:none;stroke:#ff0000;stroke-width:0.410001"
       d="m 101.73927,194.24053 c 0.0912,1.11018 -0.22674,2.17619 -0.37687,3.26298 -0.0714,0.51653 -0.0217,0.7035 -0.009,0.69498 0.0897,-0.0621 0.0628,-0.20906 0.0942,-0.31359"
       id="path1144" /><path
       style="fill:none;stroke:#ff0000;stroke-width:0.410001"
       d="m 103.36924,191.76576 c 0.10678,-0.38987 0.18514,-0.78865 0.32034,-1.1696 0.0398,-0.11211 0.86406,-1.81589 1.01756,-0.80514 0.23796,1.56688 -0.11379,3.21923 -0.35804,4.7631 -0.0568,0.3591 -0.37255,0.83019 -0.11306,1.08484 0.29592,0.29038 2.18479,-1.48603 2.99614,-0.61022"
       id="path1146" /><path
       style="fill:none;stroke:#ff0000;stroke-width:0.410001"
       d="m 119.73491,164.50925 c 1.2864,3.12818 2.45524,6.30307 4.63552,8.94142 1.28931,1.56018 2.85802,2.86353 4.14559,4.43257 0.63056,0.7684 1.94053,2.96196 2.83597,3.36469"
       id="path1148" /><path
       style="fill:none;stroke:#ff0000;stroke-width:0.410001"
       d="m 132.67104,178.64602 c -0.0104,-0.0586 -0.0219,-1.22548 -0.54647,-1.15264 -2.00194,0.27797 -3.10742,3.59977 -3.60855,5.09365 -0.76501,2.28054 -2.12204,6.81219 1.06467,8.05999 0.5785,0.22652 1.24409,0.27643 1.85609,0.1695 3.93595,-0.68767 6.57034,-8.23344 2.6758,-10.4246 -0.63402,-0.35671 -3.145,-1.25782 -3.65567,-0.31358"
       id="path1150" /><path
       style="fill:none;stroke:#ff0000;stroke-width:0.410001"
       d="m 130.40039,183.59559 c 0.0971,0.67437 -0.21582,2.02868 0.14132,2.76293"
       id="path1152" /><path
       style="fill:none;stroke:#ff0000;stroke-width:0.410001"
       d="m 132.17168,185.35844 c -1.16511,5.58963 0.33437,-1.53996 -0.54647,2.49173 -0.0363,0.16606 -0.0927,0.66935 -0.0377,0.50852"
       id="path1154" /><path
       style="fill:none;stroke:#ff0000;stroke-width:0.410001"
       d="m 133.18924,182.83281 c -0.0756,0.86601 -0.0943,1.58771 0.3015,2.3307"
       id="path1156" /><path
       style="fill:none;stroke:#ff0000;stroke-width:0.410001"
       d="m 134.09373,183.84984 c -2.14838,1.5628 0.84363,0.95727 0.94217,3.085"
       id="path1158" /><path
       style="fill:none;stroke:#ff0000;stroke-width:0.410001"
       d="m 85.428428,160.15931 c -0.464812,-0.0283 -0.941486,-0.19285 -1.394437,-0.0848 -2.14363,0.51158 -3.45831,6.31493 -3.655652,7.95829 -0.181671,1.51289 -0.298977,3.20255 0.706638,4.51732 2.417784,3.16108 8.269727,0.60139 10.241489,-1.84761 0.366231,-0.45487 0.727544,-0.95234 0.876234,-1.51707 0.509032,-1.93333 1.09297,-7.15244 -1.507495,-8.39901 -2.347158,-1.12513 -4.992071,-1.01911 -7.339579,-0.0254"
       id="path1160" /><path
       style="fill:none;stroke:#ff0000;stroke-width:0.410001"
       d="m 85.089234,164.66816 c -4.340949,2.74144 1.391275,1.71382 1.14004,4.3902 -0.05901,0.6286 -1.785218,3.28159 -2.138746,2.05102 -0.114099,-0.39717 -0.05025,-0.82493 -0.07538,-1.2374"
       id="path1162" /><path
       style="fill:none;stroke:#ff0000;stroke-width:0.410001"
       d="m 86.80401,170.12624 c -0.471596,-1.76759 -0.331376,-3.69562 -0.376876,-5.50893 0.0157,-0.54242 -0.105127,-1.1064 0.0471,-1.62726 0.256053,-0.87607 1.304482,0.5759 1.34732,0.72041 0.320607,1.0815 -0.11455,2.28524 -0.405139,3.33078"
       id="path1164" /><path
       style="fill:none;stroke:#ff0000;stroke-width:0.410001"
       d="m 88.77316,168.33796 c -0.01257,0.28533 -0.03294,0.57043 -0.03768,0.856 -0.0013,0.0777 0.102126,3.93964 -0.10364,3.0511"
       id="path1166" /><path
       style="fill:none;stroke:#ff0000;stroke-width:0.410001"
       d="m 88.98044,165.32923 c 0.144468,-0.33901 0.268304,-0.68757 0.433401,-1.01703 1.855772,-3.70322 -0.10758,2.22886 1.13062,2.85617 0.370859,0.18789 1.110377,-0.11153 1.450959,-0.11865"
       id="path1168" /><path
       style="fill:none;stroke:#ff0000;stroke-width:0.410001"
       d="m 61.355725,161.42213 c -0.08794,-0.37856 -0.08263,-0.79186 -0.263811,-1.13569 -0.24537,-0.46563 -1.16175,0.13097 -1.234254,0.18646 -1.831332,1.40147 -3.136365,4.17312 -3.599127,6.37341 -0.865138,4.11346 2.128159,9.40186 6.906176,8.21255 0.510639,-0.12711 0.972965,-0.41529 1.413271,-0.70345 1.002482,-0.65609 2.02371,-1.54183 2.713477,-2.54259 2.155201,-3.12691 3.361325,-9.14475 -0.518195,-11.53485 -1.898341,-1.16954 -3.90972,-1.02155 -6.020531,-1.08484"
       id="path1170" /><path
       style="fill:none;stroke:#ff0000;stroke-width:0.410001"
       d="m 58.45381,167.66841 c 0.150949,0.27376 1.097611,4.68433 2.053953,3.13586 0.532614,-0.8624 0.508779,-2.5051 0.508779,-3.37317 0,-0.0404 -0.372521,-1.57248 -0.15075,-0.94075"
       id="path1172" /><path
       style="fill:none;stroke:#ff0000;stroke-width:0.410001"
       d="m 63.334305,166.32084 c -0.02512,-0.38421 -0.12773,-0.77118 -0.07538,-1.15264 0.05032,-0.36666 0.377063,-1.22541 0.602998,-0.93228 0.324165,0.42058 0.37411,1.71493 0.376872,2.01712 0.01,1.09403 -0.0792,1.80263 -0.31092,2.81379 -0.0939,0.40975 -0.368063,0.79205 -0.348609,1.21197 0.01222,0.26378 0.510353,-0.14878 0.744322,-0.27121 0.792566,-0.41472 1.746446,-1.14324 2.628683,-0.7882"
       id="path1174" /><path
       style="fill:none;stroke:#ff0000;stroke-width:0.410001"
       d="m 42.530968,159.98133 c -0.587291,0.5961 -1.270694,1.1108 -1.761875,1.78829 -0.369766,0.51001 -0.55772,1.1318 -0.78201,1.72048 -1.009056,2.64837 -1.937309,6.34072 0.150749,8.76344 2.632586,3.05452 7.3038,1.31116 9.544286,-1.2374 0.539832,-0.61405 0.991504,-1.31883 1.319047,-2.06796 1.020507,-2.33403 0.600637,-6.73384 -1.837247,-8.15322 -1.749922,-1.01884 -3.937836,-0.64513 -5.634238,0.22036"
       id="path1176" /><path
       style="fill:none;stroke:#ff0000;stroke-width:0.410001"
       d="m 42.465017,166.12591 c 0.505637,0.31641 1.075745,0.54779 1.516911,0.94923 0.801108,0.72898 1.567675,2.14368 1.111773,3.27146 -0.09583,0.23705 -0.719118,1.29778 -1.309632,0.94076 -1.113529,-0.67325 -0.812143,-3.45808 0.395719,-3.91559"
       id="path1178" /><path
       style="fill:none;stroke:#ff0000;stroke-width:0.410001"
       d="m 46.846155,167.15142 c -0.07223,-0.23449 -0.204798,-0.45838 -0.216701,-0.70345 -0.04478,-0.92201 0.494005,-2.34045 0.650102,-1.93236 0.582101,1.52177 -0.613062,0.16808 -0.433401,2.63581 0.04084,0.56091 0.569508,0.97101 0.819694,1.4747 0.08068,0.16243 0.0493,0.38126 0.169596,0.51699 0.498149,0.56202 1.581582,-0.7561 2.072795,-0.71192"
       id="path1180" /><path
       style="fill:none;stroke:#ff0000;stroke-width:0.410001"
       d="m 25.015846,158.97277 c -0.370591,-0.0791 -0.742357,-0.32173 -1.111772,-0.2373 -0.251799,0.0575 -1.39493,1.62152 -1.516912,1.79675 -1.360245,1.95401 -2.619473,4.03099 -3.448378,6.27171 -1.22523,3.31208 0.04083,8.27366 4.117328,8.7804 2.858631,0.35535 5.45744,-1.20034 7.254782,-3.33927 2.400573,-2.8568 2.441541,-11.37043 -1.554595,-12.94175 -0.509708,-0.20042 -1.093822,-0.062 -1.639393,-0.11018 -0.701461,-0.062 -1.450652,-0.49028 -2.10106,-0.22036 -0.829906,0.34442 -1.263115,1.27911 -1.922048,1.88999 -0.265397,0.24604 -0.565308,0.45202 -0.847962,0.67802"
       id="path1182" /><path
       style="fill:none;stroke:#ff0000;stroke-width:0.410001"
       d="m 22.142196,165.50722 c -0.826601,-0.3952 0.884191,-2.80931 1.281366,-1.93237 0.427197,0.94323 -0.895153,1.41784 -1.281366,1.93237 -0.639033,0.85133 -1.13112,3.209 -0.0094,3.99185 0.493791,0.34463 1.141537,0.22117 1.658235,0.50004"
       id="path1184" /><path
       style="fill:none;stroke:#ff0000;stroke-width:0.410001"
       d="m 25.910917,164.25288 c 0.251338,-2.56426 2.606259,-2.74559 2.10106,0.1356 -0.195902,1.11725 -0.842206,1.76114 -1.196567,2.76294 -0.02031,0.0574 0.07538,-0.097 0.122481,-0.13561 0.374334,-0.30689 0.741887,-0.70227 1.300208,-0.58479 1.22916,0.25864 1.680393,1.46938 1.526333,2.61039 -0.167408,1.23986 -2.337465,3.36156 -2.628684,1.16111"
       id="path1186" /></g></svg>
