<?xml version="1.0" encoding="UTF-8" standalone="no"?>
<!-- Created with Inkscape (http://www.inkscape.org/) -->

<svg
   width="25.555046mm"
   height="17.880848mm"
   viewBox="0 0 25.555045 17.880848"
   version="1.1"
   id="svg12"
   inkscape:version="1.2.1 (9c6d41e410, 2022-07-14, custom)"
   sodipodi:docname="side_square.svg"
   xml:space="preserve"
   xmlns:inkscape="http://www.inkscape.org/namespaces/inkscape"
   xmlns:sodipodi="http://sodipodi.sourceforge.net/DTD/sodipodi-0.dtd"
   xmlns="http://www.w3.org/2000/svg"
   xmlns:svg="http://www.w3.org/2000/svg"><sodipodi:namedview
     id="namedview14"
     pagecolor="#000000"
     bordercolor="#ffffff"
     borderopacity="1"
     inkscape:showpageshadow="0"
     inkscape:pageopacity="0"
     inkscape:pagecheckerboard="0"
     inkscape:deskcolor="#000000"
     inkscape:document-units="mm"
     showgrid="true"
     inkscape:zoom="2.7063106"
     inkscape:cx="79.074442"
     inkscape:cy="76.487895"
     inkscape:window-width="1366"
     inkscape:window-height="746"
     inkscape:window-x="1360"
     inkscape:window-y="0"
     inkscape:window-maximized="1"
     inkscape:current-layer="layer1"
     inkscape:lockguides="true"
     showguides="true"><sodipodi:guide
       position="3265.6758,-22192.731"
       orientation="0,-1"
       id="guide3409"
       inkscape:locked="true" /></sodipodi:namedview><defs
     id="defs9"><rect
       x="587.26367"
       y="362.45731"
       width="66.575974"
       height="20.973427"
       id="rect1884" /></defs><g
     inkscape:label="Layer 1"
     inkscape:groupmode="layer"
     id="layer1"
     transform="translate(-245.74876,-121.58224)"><path
       style="fill:none;stroke:#ffb380;stroke-width:0.346001"
       d="m 248.04217,125.42682 c 0.0508,0.15607 0.1412,0.30446 0.15247,0.46821 0.0314,0.45645 -0.0941,1.521 -0.14196,1.9958 -0.13943,1.38292 -0.3517,2.76251 -0.46266,4.14768 -0.0597,0.74456 -0.10502,1.49051 -0.13145,2.237 -0.008,0.22915 0.10247,0.83356 0.0263,1.13505 -0.004,0.0167 -0.0185,-0.0302 -0.021,-0.0473 -0.0169,-0.1145 -0.0356,-0.22952 -0.0368,-0.34525 -0.01,-0.92515 0.0831,-1.82488 0.1735,-2.74304 0.1768,-1.79558 0.41021,-3.58013 0.51524,-5.38205 0.0191,-0.32781 0.069,-0.65575 0.0526,-0.98371 -0.008,-0.166 -0.23095,-0.35337 -0.12618,-0.4824 0.68191,-0.83979 1.9113,-0.63493 2.84433,-0.66211 1.24864,-0.0364 2.48874,-0.0264 3.72763,-0.19391 0.51153,-0.0692 1.04413,-0.0591 1.54572,-0.18444 0.40251,-0.10058 0.8999,-0.36604 1.32491,-0.50132 0.0866,-0.0276 0.78987,-0.17512 0.83594,-0.0804 0.17356,0.35683 0.0266,1.84708 0.0263,1.87284 -0.0133,1.30612 -0.0411,2.60194 -0.12091,3.90648 -0.0776,1.2669 -0.13025,2.57875 0.0105,3.84499 0.0403,0.36233 0.36859,2.42185 0.23133,2.70994 -0.036,0.0755 -0.64384,-0.0608 -0.694,-0.0662 -0.94514,-0.10203 -1.77604,-0.40408 -2.68661,-0.64793 -1.82129,-0.48774 -3.79682,0.003 -5.61508,0.23647 -0.68792,0.0884 -1.38286,-0.004 -2.07149,0.0568"
       id="path655" /><path
       style="fill:none;stroke:#ffb380;stroke-width:0.346001"
       d="m 258.27339,123.47831 c 0.64241,-0.071 1.27668,-0.15302 1.92427,-0.12769 0.6433,0.0252 1.28494,0.10652 1.92953,0.0993 1.41379,-0.0158 2.82374,-0.1592 4.2376,-0.17026 0.64308,-0.005 1.27876,-0.0843 1.91901,-0.14188 0.0872,-0.008 0.7942,-0.1928 0.79914,-0.17499 0.0851,0.30673 -0.10738,0.62847 -0.13144,0.94588 -0.027,0.35596 0.0275,1.24962 0.0473,1.53705 0.1385,2.0033 0.54329,3.95019 0.47317,5.96849 -0.0247,0.71151 -0.10103,1.41063 -0.0473,2.12349 0.0249,0.33024 0.33524,2.25822 0.14195,2.44037 -0.0893,0.0842 -2.03619,-0.0969 -2.35539,-0.0946 -1.77568,0.0127 -3.52495,0.38308 -5.29437,0.38308 -0.66368,0 -1.3503,-0.17825 -2.00839,-0.26012 -0.7222,-0.0898 -1.45632,-0.0685 -2.18189,-0.1135"
       id="path659" /><path
       style="fill:none;stroke:#ffb380;stroke-width:0.346001"
       d="m 261.95894,122.92025 c -1.11474,-0.37396 -0.0381,0.0182 0,0 0.39337,-0.18771 0.61827,-0.6259 0.98843,-0.85602 0.21547,-0.13396 0.48581,-0.14682 0.73079,-0.21282 0.39366,-0.10607 0.52598,-0.0977 0.52577,-0.0946 -0.005,0.068 -1.31418,0.90104 -1.44584,0.95533 -0.25447,0.10496 -0.65547,-0.0267 -0.79915,0.2081 -0.14614,0.23881 0.0616,0.56403 0.16825,0.82291 0.37208,0.90337 1.66603,0.85145 2.08199,1.48976"
       id="path661" /><path
       style="fill:none;stroke:#ffb380;stroke-width:0.346001"
       d="m 257.36909,128.44417 c -0.47536,-0.29254 -0.4208,-1.70268 -0.86224,-1.90121 -0.13331,-0.06 0.004,0.30796 0.0841,0.43037 0.35405,0.54259 0.9727,1.02347 1.64037,1.08303 0.72275,0.0645 1.34195,-0.25889 1.83489,-0.76143 0.0314,-0.032 0.60601,-0.8277 0.25762,-0.57698"
       id="path663" /><path
       style="fill:none;stroke:#ffb380;stroke-width:0.346001"
       d="m 258.16298,133.34382 c -0.13319,-0.0694 -0.33021,-0.34129 -0.39957,-0.2081 -0.0694,0.13319 0.50886,0.31109 0.39957,0.2081 -0.21762,-0.20507 -0.50135,-0.32849 -0.73081,-0.52023 -0.34612,-0.28924 -0.87605,-1.15649 -1.03047,-1.58435 -0.0475,-0.13168 0.23419,0.15912 0.32596,0.26485 0.35785,0.41226 1.33559,1.82722 1.43532,1.83973 0.33844,0.0424 1.08617,-2.60852 1.5615,-2.00999"
       id="path665" /><path
       style="fill:none;stroke:#ffb380;stroke-width:0.346001"
       d="m 269.4983,127.9665 c -0.98399,0.25464 -1.69475,1.3527 -2.22396,2.11877 -0.0818,0.11846 -0.2099,0.29073 -0.13144,0.41146 0.0631,0.097 0.23413,-0.0411 0.33124,-0.10405 0.95868,-0.62161 0.85212,-0.84637 1.62458,-1.93432 0.12229,-0.17224 0.29537,-0.6756 0.39958,-0.49186 0.1587,0.27982 -0.22549,0.64614 -0.13672,0.95534 0.216,0.75236 2.06075,1.00046 1.735,1.82081"
       id="path667" /><path
       style="fill:none;stroke:#ffb380;stroke-width:0.346001"
       d="m 262.3112,135.35381 c -0.43296,-0.48084 -1.18093,-0.47054 -1.67716,-0.82765 -0.13576,-0.0977 0.28642,-0.19502 0.45215,-0.21755 0.43723,-0.0594 1.96759,-0.14846 1.70871,0.71414 -0.45898,1.52934 -2.04108,2.41568 -2.51838,3.93012 -0.0343,0.10884 0.2178,-0.086 0.29968,-0.16553 0.23219,-0.22538 0.42061,-0.49185 0.63091,-0.73778"
       id="path669" /><path
       style="fill:none;stroke:#ffb380;stroke-width:0.346001"
       d="m 266.512,135.82675 c -0.58028,-0.52454 -1.30479,-0.81911 -1.96107,-1.22965 -0.1203,-0.0752 -0.42737,-0.25782 -0.29443,-0.3074 0.26165,-0.0976 0.84455,-0.0355 1.06729,0.005 0.90043,0.16261 1.26473,0.15831 1.23026,1.09722 -0.0458,1.24843 -2.23778,2.75942 -2.27653,3.84026 -0.008,0.22299 0.36808,-0.25796 0.5205,-0.42091"
       id="path671" /><path
       style="fill:none;stroke:#ffb380;stroke-width:0.346001"
       d="m 252.00111,134.54508 c -0.49176,-0.71282 -1.35092,-1.23061 -2.2555,-1.14924 -0.0154,0.001 0.0214,0.0268 0.0368,0.0284 0.17814,0.0176 0.35746,0.02 0.53628,0.0284 0.26665,0.0124 2.18901,0.0807 2.06096,0.51078 -0.066,0.22172 -0.30549,0.3622 -0.37855,0.58171 -0.0959,0.28803 -9e-5,0.62261 -0.11566,0.90332 -0.38192,0.92757 -1.22473,1.77013 -1.55624,2.73358 -0.009,0.0264 0.0608,-0.007 0.0789,-0.0284 0.20707,-0.24347 0.39257,-0.50447 0.58885,-0.7567"
       id="path673" /><path
       style="fill:none;stroke:#ffb380;stroke-width:0.346001"
       d="m 255.98109,134.98019 c -0.0438,-0.1876 -0.0289,-0.3997 -0.13143,-0.5628 -0.22491,-0.35777 -1.19052,-0.52392 -1.56677,-0.3547 -0.0237,0.0107 0.0424,0.0359 0.0683,0.0378 0.17306,0.0125 0.34715,-0.003 0.5205,0.005 0.0763,0.003 1.37852,-0.0436 1.33543,0.36889 -0.0192,0.18375 -0.17202,0.32938 -0.22608,0.50604 -0.39492,1.29058 0.0948,0.44022 -0.60988,1.59381 -0.31129,0.50956 -1.02843,1.20264 -1.12512,1.81136 -0.007,0.0447 0.0884,-0.0349 0.11567,-0.0709 0.12397,-0.16399 0.22082,-0.34682 0.33123,-0.52023"
       id="path675" /><path
       style="fill:none;stroke:#ffb380;stroke-width:0.346001"
       d="m 258.87276,131.71218 c -0.13845,-0.0962 -0.24812,-0.30967 -0.41535,-0.28849 -0.17901,0.0227 -1.39033,0.97279 -1.44058,1.01208 -0.22723,0.17765 -0.45236,0.35809 -0.67296,0.54389 -0.0548,0.0461 -0.21136,0.19208 -0.15248,0.15133 0.72096,-0.49887 1.4353,-1.09417 2.01365,-1.7546 0.11955,-0.13652 0.34341,-0.32541 0.25237,-0.48239 -0.0243,-0.0418 -0.0714,0.0952 -0.0473,0.13715 0.1368,0.23791 0.24666,0.51174 0.46267,0.68103 0.53441,0.41882 1.52839,0.34571 1.71396,1.11614"
       id="path677" /><path
       style="fill:none;stroke:#ffb380;stroke-width:0.346001"
       d="m 257.66877,126.90712 c -0.78052,0.54799 -0.54632,0.30707 -1.1514,1.03101 -0.29693,0.35525 -0.65197,0.67953 -0.85174,1.09721 -0.0137,0.0286 0.0686,0.0276 0.0946,0.009 0.19827,-0.13808 0.37617,-0.30359 0.55731,-0.46349 0.22492,-0.19854 1.08714,-1.0093 1.22501,-1.21072 0.0904,-0.13213 -0.0337,-0.47247 0.12618,-0.46348 0.34116,0.0192 0.58099,0.36091 0.88327,0.52023 0.58208,0.30681 1.30623,0.43715 1.74026,0.93169 0.0337,0.0384 -0.0386,0.0946 -0.0578,0.14189"
       id="path679" /><path
       style="fill:none;stroke:#ffb380;stroke-width:0.346001"
       d="m 253.5521,124.35798 c 0.0876,-0.17183 0.13186,-0.37394 0.26288,-0.5155 0.18235,-0.19704 0.42927,-0.32295 0.65193,-0.47294 0.16846,-0.11349 0.34563,-0.21353 0.5205,-0.31687 1.52424,-0.90078 -1.34374,1.01265 -1.43531,1.30531 -0.16532,0.52836 1.23329,1.76871 1.51417,2.2039"
       id="path681" /><path
       style="fill:none;stroke:#ffb380;stroke-width:0.346001"
       d="m 249.44593,124.64174 c 0.17701,-0.20464 1.8933,-1.96721 2.00314,-1.92486 0.0393,0.0152 -0.0828,0.14433 -0.34175,0.46348 -0.15324,0.18884 -1.43544,1.4616 -0.98841,1.77352 0.25701,0.17934 3.13997,0.69416 2.2555,1.45193"
       id="path683" /><path
       style="fill:none;stroke:#ffb380;stroke-width:0.346001"
       d="m 247.22199,129.10156 c 0.28038,-0.86293 -1.15901,-1.11843 -1.29863,-1.64583 -0.0277,-0.1047 0.21456,-0.0734 0.32072,-0.052 0.73971,0.14914 1.94842,0.8846 2.66032,0.75197 0.603,-0.11234 0.65968,-0.61686 0.90431,-1.13032 0.0854,-0.17917 0.15217,-0.36662 0.23133,-0.54861 0.0313,-0.0719 0.0398,-0.26314 0.0999,-0.21283 0.0318,0.0266 0.0606,0.43949 0.0684,0.53443"
       id="path685" /><path
       style="fill:none;stroke:#ffb380;stroke-width:0.346001"
       d="m 247.25353,133.17829 c -0.50407,-0.61107 -0.86462,-1.25207 -1.14615,-1.97688 -0.0131,-0.0338 -0.0673,-0.10973 -0.0316,-0.10405 0.37235,0.0591 1.19036,1.8518 2.02942,1.73568 0.89358,-0.12366 1.91235,-1.70547 2.89167,-2.09511 0.38991,-0.15514 0.37505,-0.11507 0.47843,0.0709"
       id="path687" /></g></svg>
