<?xml version="1.0" encoding="UTF-8" standalone="no"?>
<!-- Created with Inkscape (http://www.inkscape.org/) -->

<svg
   width="507.57062mm"
   height="201.01884mm"
   viewBox="0 0 507.57061 201.01885"
   version="1.1"
   id="svg12"
   inkscape:version="1.2.1 (9c6d41e410, 2022-07-14, custom)"
   sodipodi:docname="sin_taylor_definition.svg"
   xml:space="preserve"
   xmlns:inkscape="http://www.inkscape.org/namespaces/inkscape"
   xmlns:sodipodi="http://sodipodi.sourceforge.net/DTD/sodipodi-0.dtd"
   xmlns="http://www.w3.org/2000/svg"
   xmlns:svg="http://www.w3.org/2000/svg"><sodipodi:namedview
     id="namedview14"
     pagecolor="#000000"
     bordercolor="#ffffff"
     borderopacity="1"
     inkscape:showpageshadow="0"
     inkscape:pageopacity="0"
     inkscape:pagecheckerboard="0"
     inkscape:deskcolor="#000000"
     inkscape:document-units="mm"
     showgrid="true"
     inkscape:zoom="0.32"
     inkscape:cx="896.875"
     inkscape:cy="518.75"
     inkscape:window-width="1366"
     inkscape:window-height="746"
     inkscape:window-x="1360"
     inkscape:window-y="0"
     inkscape:window-maximized="1"
     inkscape:current-layer="layer1"
     inkscape:lockguides="true"><inkscape:grid
       type="xygrid"
       id="grid344"
       color="#969696"
       opacity="0.39215686"
       empcolor="#ffffff"
       empopacity="0.17254902"
       dotted="false"
       originx="-15095.658"
       originy="-33857.187" /></sodipodi:namedview><defs
     id="defs9" /><g
     inkscape:label="Layer 1"
     inkscape:groupmode="layer"
     id="layer1"
     transform="translate(-15200.659,-34005.688)"><path
       style="fill:none;stroke:#ffffff;stroke-width:0.499999"
       d="m 15211.579,34046.473 c -2.805,0.682 -3.006,0.537 -5.835,2.291 -0.03,0.03 -6.688,3.773 -4.33,5.543 5.91,4.442 16.427,-0.622 22.086,7.977 0.871,1.323 -1.551,3.064 -3.011,3.675 -1.769,0.744 -3.683,1.135 -5.585,1.386 -3.019,0.4 -18.721,-1.497 -9.286,-4.976"
       id="path4717" /><path
       style="fill:none;stroke:#ffffff;stroke-width:0.499999"
       d="m 15235.924,34052.555 c -0.67,-4.926 3.49,-4.241 2.509,-2.717 -0.666,1.037 -1.673,1.812 -2.509,2.717 z"
       id="path4719" /><path
       style="fill:none;stroke:#ffffff;stroke-width:0.499999"
       d="m 15234.857,34062.115 c -0.377,0.78 -1.189,1.479 -1.13,2.347 0.09,1.283 3.382,5.267 3.89,7.268 0.559,2.201 -0.07,3.116 0.503,2.913 0.326,-0.114 0.209,-0.659 0.313,-0.99"
       id="path4721" /><path
       style="fill:none;stroke:#ffffff;stroke-width:0.499999"
       d="m 15243.202,34063.303 c 2.312,-0.1 -0.653,-3.747 0.69,-4.271 0.562,-0.222 0.949,0.765 1.318,1.244 0.488,0.635 4.409,8.001 4.643,8.117 0.03,0.03 1.057,-2.505 1.819,-3.677 3.207,-4.927 5.992,-7.073 9.663,-0.961 1.278,2.127 0.732,2.99 1.38,5.032"
       id="path4723" /><path
       style="fill:none;stroke:#ffffff;stroke-width:0.499999"
       d="m 15281.727,34048.594 c -4.152,2.406 -13.87,9.549 -7.09,14.68 4.781,3.619 13.364,4.677 19.074,6.138"
       id="path4725" /><path
       style="fill:none;stroke:#ffffff;stroke-width:0.499999"
       d="m 15303.06,34053.262 c -0.356,1.526 -0.394,3.164 -1.067,4.582 -0.787,1.657 -5.1,8.7 -7.969,8.398 -0.42,-0.04 -0.627,-0.563 -0.941,-0.846"
       id="path4727" /><path
       style="fill:none;stroke:#ffffff;stroke-width:0.499999"
       d="m 15291.954,34057.193 c 5.862,-0.579 2.025,-0.706 11.294,4.779 2.831,1.675 3.878,2.307 6.023,3.961"
       id="path4729" /><path
       style="fill:none;stroke:#ffffff;stroke-width:0.499999"
       d="m 15304.252,34046.388 c 0.125,-1.281 -0.6,-3.006 0.376,-3.845 1.504,-1.293 3.817,-1.772 5.773,-1.444 10.625,1.788 14.001,14.47 11.231,23.447 -0.385,1.246 -3.297,7.504 -5.835,8.316 -0.616,0.196 -1.088,-0.698 -1.632,-1.048"
       id="path4731" /><path
       style="fill:none;stroke:#ffffff;stroke-width:0.499999"
       d="m 15339.075,34047.38 c 0.125,0.64 20.448,-3.212 13.113,-0.624"
       id="path4735" /><path
       style="fill:none;stroke:#ffffff;stroke-width:0.499999"
       d="m 15340.706,34052.555 c 6.308,-4.246 -4.795,2.358 -3.576,1.81 7.521,-3.392 -0.772,-1.183 12.047,-1.699 3.447,-0.137 9.711,-1.518 13.615,-0.931"
       id="path4737" /><path
       style="fill:none;stroke:#ffffff;stroke-width:0.499999"
       d="m 15395.607,34041.043 c -4.961,2.141 -9.338,7.02 -13.176,10.663 -0.828,0.786 -1.579,1.651 -2.322,2.516 -0.08,0.09 -0.204,0.431 -0.125,0.341 0.326,-0.381 0.585,-0.812 0.878,-1.217"
       id="path4739" /><path
       style="fill:none;stroke:#ffffff;stroke-width:0.499999"
       d="m 15382.117,34042.713 c -0.355,-0.953 -1.047,-1.842 -1.067,-2.858 -0.03,-1.468 4.419,1.194 7.655,3.31 3.341,2.183 14.275,11.557 11.106,16.32"
       id="path4741" /><path
       style="fill:none;stroke:#ffffff;stroke-width:0.499999"
       d="m 15409.16,34048.285 c 1.493,0 12.345,-1.289 12.486,-1.839 0.1,-0.378 -8.078,-0.484 -9.161,-0.169 -1.244,0.357 -4.506,2.54 -3.325,2.008 1.45,-0.656 2.627,-1.887 4.141,-2.376 2.224,-0.722 6.032,-0.06 7.843,1.299"
       id="path4743" /><path
       style="fill:none;stroke:#ffffff;stroke-width:0.499999"
       d="m 15447.559,34031.061 c -3.924,3.516 -6.717,8.08 -10.29,11.906 -0.05,0.06 0.05,-0.148 0.06,-0.228 0.09,-0.553 0.167,-1.111 0.251,-1.667"
       id="path4745" /><path
       style="fill:none;stroke:#ffffff;stroke-width:0.499999"
       d="m 15437.206,34032.219 c -0.794,-0.989 -1.394,-3.765 -2.384,-2.968 -0.99,0.794 1.228,2.445 2.384,2.968 2.129,0.966 4.758,0.313 6.902,1.244 2.46,1.069 6.761,5.384 8.345,7.779 0.501,0.756 1.672,3.389 -0.125,2.799"
       id="path4747" /><path
       style="fill:none;stroke:#ffffff;stroke-width:0.499999"
       d="m 15457.285,34017.794 c -0.02,-2.479 7.306,-3.646 6.964,-0.225 -0.184,1.839 -2.365,3.387 -3.576,4.3 -0.611,0.46 -1.283,0.833 -1.945,1.214 -0.156,0.09 -0.678,0.238 -0.502,0.199 2.488,-0.561 6.258,-1.265 8.094,1.217 3.462,4.68 -13.828,7.808 -10.604,5.315"
       id="path4749" /><path
       style="fill:none;stroke:#ffffff;stroke-width:0.499999"
       d="m 15429.74,34055.892 c 5.894,-1.892 3.022,-1.209 11.482,-2.233 10.319,-1.252 20.593,-2.255 30.996,-2.207 1.589,0 3.181,0 4.768,0.114 0.667,0.04 2.603,0.365 1.945,0.479 -0.728,0.127 -1.389,-0.151 -2.07,-0.339"
       id="path4751" /><path
       style="fill:none;stroke:#ffffff;stroke-width:0.499999"
       d="m 15440.845,34069.184 c -0.621,-2.513 6.694,-6.532 6.652,-2.46 -0.03,3.143 -0.986,4.103 -2.699,6.053 -0.379,0.432 -1.716,1.479 -1.192,1.244 2.654,-1.196 3.265,-1.868 6.777,-1.556 2.566,0.23 3.464,2.686 2.07,4.638 -3.181,4.459 -8.582,6.708 -11.106,0.567"
       id="path4753" /><path
       style="fill:none;stroke:#ffffff;stroke-width:0.499999"
       d="m 15459.857,34062.652 c 3.261,5.236 4.837,7.644 1.945,12.557"
       id="path4755" /><path
       style="fill:none;stroke:#ffffff;stroke-width:0.499999"
       d="m 15464.563,34084.541 c -0.816,0.368 -1.554,1.164 -2.447,1.103 -2.53,-0.169 2.579,-5.678 2.447,-1.103 -0.06,1.979 -3.675,5.186 -4.769,3.537 -3.13,-4.72 6.558,-7.67 4.769,-3.537 -0.692,1.598 -3.093,2.05 -4.832,1.981 -0.581,-0.03 1.113,-3.389 1.695,-3.365 1.142,0.04 2.091,0.923 3.137,1.384 z"
       id="path4757" /><path
       style="fill:none;stroke:#ffffff;stroke-width:0.499999"
       d="m 15492.672,34041.186 c 1.425,3.89 2.51,8.062 2.51,12.245"
       id="path4763" /><path
       style="fill:none;stroke:#ffffff;stroke-width:0.499999"
       d="m 15487.778,34049.613 c 4.392,-2.984 9.027,-3.225 14.055,-2.773"
       id="path4765" /><path
       style="fill:none;stroke:#ffffff;stroke-width:0.499999"
       d="m 15522.036,34025.375 c -5.188,5.04 -4.124,3.5 -8.282,9.644 -0.178,0.262 -1.804,4.005 -0.06,0.51"
       id="path4767" /><path
       style="fill:none;stroke:#ffffff;stroke-width:0.499999"
       d="m 15512.876,34025.544 c -0.126,-0.847 -1.234,-2.506 -0.377,-2.545 2.27,-0.101 16.661,6.162 16.125,9.165 -0.09,0.497 -0.627,0.791 -0.941,1.188"
       id="path4769" /><path
       style="fill:none;stroke:#ffffff;stroke-width:0.499999"
       d="m 15534.146,34021.814 c 1.38,0 2.784,0.224 4.141,-0.03 2.408,-0.452 6.458,-6.715 3.263,-8.345 -2.19,-1.116 -10.436,3.874 -10.981,1.754 -0.347,-1.352 0.335,-2.772 0.503,-4.156 4.477,-5.037 7.62,-4.515 13.552,-3.989"
       id="path4771" /><path
       style="fill:none;stroke:#ffffff;stroke-width:0.499999"
       d="m 15521.158,34025.97 c 0.202,-2.23 7.47,-5.773 3.827,-2.802 -1.224,1 -2.709,1.683 -3.827,2.802 -4.815,6.234 -1.703,2.725 -6.714,7.466 -1.341,1.268 -3.19,3.308 -3.137,3.337 0.16,0.09 0.362,-0.106 0.502,-0.228 0.871,-0.743 1.751,-1.487 2.51,-2.347 2.362,-2.672 4.464,-5.569 6.839,-8.228 5.771,-6.466 4.996,-3.77 1.569,-2.998"
       id="path4773" /><path
       style="fill:none;stroke:#ffffff;stroke-width:0.499999"
       d="m 15514.758,34021.075 c -0.962,-0.235 -1.924,-0.471 -2.886,-0.706 -0.105,-0.04 -0.38,-0.201 -0.314,-0.114 0.596,0.807 3.121,0.78 3.2,0.82 16.606,8.742 -3.855,1 16.753,8.401 2.758,0.992 10.471,3.476 7.278,2.516"
       id="path4775" /><path
       style="fill:none;stroke:#ffffff;stroke-width:0.499999"
       d="m 15507.48,34046.983 c 3.892,-0.06 7.779,-0.272 11.67,-0.368 8.141,-0.201 17.152,-0.333 25.286,-0.227 2.825,0.04 5.651,0.106 8.47,0.283 1.019,0.06 3.795,0.249 2.949,0.82 -0.584,0.397 -2.055,0.429 -2.698,0.482"
       id="path4777" /><path
       style="fill:none;stroke:#ffffff;stroke-width:0.499999"
       d="m 15519.087,34078.291 c 0.711,0.49 1.332,1.149 2.134,1.471 3.342,1.344 10.137,-5.307 6.901,-8.003 -2.197,-1.834 -11.469,3.196 -11.419,1.555 0.06,-1.862 1.624,-3.415 1.882,-5.262 0.22,-1.569 -0.171,-3.167 -0.251,-4.749 4.562,-1.715 9.52,-1.761 14.306,-1.132"
       id="path4779" /><path
       style="fill:none;stroke:#ffffff;stroke-width:0.499999"
       d="m 15538.224,34058.72 c 3.625,3.501 3.499,7.932 2.008,12.332"
       id="path4781" /><path
       style="fill:none;stroke:#ffffff;stroke-width:0.499999"
       d="m 15537.785,34084.909 c 0.46,-0.876 0.651,-1.961 1.38,-2.63 1.749,-1.606 4.869,0.07 2.636,3.31 0,0 -6.591,5.471 -6.087,2.262 0.436,-2.77 5.36,-6.334 8.094,-5.657 1.14,0.283 -0.114,2.746 -1.129,3.339 -0.789,0.458 -4.16,-0.458 -4.894,-0.624 z"
       id="path4783" /><path
       style="fill:none;stroke:#ffffff;stroke-width:0.499999"
       d="m 15566.961,34046.615 c 3.852,0.434 7.845,-1.325 11.67,-0.68"
       id="path4787" /><path
       style="fill:none;stroke:#ffffff;stroke-width:0.499999"
       d="m 15600.529,34020.766 c -3.204,3.161 -6.341,6.35 -9.286,9.757 -0.839,0.969 -2.716,4.223 -2.447,2.969 0.117,-0.545 0.46,-1.019 0.69,-1.527"
       id="path4789" /><path
       style="fill:none;stroke:#ffffff;stroke-width:0.499999"
       d="m 15589.298,34021.895 c 4.083,2.106 13.31,7.713 12.11,13.124"
       id="path4791" /><path
       style="fill:none;stroke:#ffffff;stroke-width:0.499999"
       d="m 15604.106,34010.725 c 2.384,-1.093 4.723,-2.292 7.152,-3.281 1.554,-0.633 3.212,-1.852 4.832,-1.413 0.757,0.204 -1.124,1.106 -1.569,1.751 -0.843,1.226 -1.745,2.453 -2.259,3.848 -1.738,4.714 -0.514,5.479 -1.004,9.305 -0.05,0.36 -0.74,-0.07 -1.066,-0.228"
       id="path4793" /><path
       style="fill:none;stroke:#ffffff;stroke-width:0.499999"
       d="m 15605.36,34016.239 c 4.75,-0.559 8.603,-2.212 12.863,0.312 0.304,0.18 -0.544,0.452 -0.816,0.68"
       id="path4795" /><path
       style="fill:none;stroke:#ffffff;stroke-width:0.499999"
       d="m 15589.424,34046.644 c 10.247,-0.693 20.438,-2.743 30.744,-2.743"
       id="path4797" /><path
       style="fill:none;stroke:#ffffff;stroke-width:0.499999"
       d="m 15589.047,34065.139 c 1.715,-0.659 3.377,-1.477 5.145,-1.979 2.563,-0.725 11.364,-2.209 11.733,-1.839 0.234,0.235 -4.763,5.905 -4.769,5.911 -2.527,3.418 -3.848,6.516 -5.144,10.438"
       id="path4799" /><path
       style="fill:none;stroke:#ffffff;stroke-width:0.499999"
       d="m 15589.361,34073.145 c 7.173,-4.593 3.898,-3.487 12.925,-4.866 0.947,-0.145 4.439,-0.674 6.149,-0.481 0.621,0.07 -1.204,0.349 -1.82,0.452"
       id="path4801" /><path
       style="fill:none;stroke:#ffffff;stroke-width:0.499999"
       d="m 15607.117,34057.588 c 3.109,3.68 7.007,9.252 3.89,14.171"
       id="path4803" /><path
       style="fill:none;stroke:#ffffff;stroke-width:0.499999"
       d="m 15611.76,34086.155 c -3.21,2.222 -6.554,0.06 0,0 z"
       id="path4805" /><path
       style="fill:none;stroke:#ffffff;stroke-width:0.499999"
       d="m 15646.531,34048.936 c -0.983,0.471 -1.958,0.96 -2.949,1.413 -5.397,2.474 4.763,-7.702 2.949,-1.413 -0.338,1.169 -10.127,5.625 -7.404,1.328 0.528,-0.831 1.324,-1.519 2.196,-1.979 0.34,-0.18 0.877,-0.06 1.129,0.225 1.347,1.545 -2.551,7.9 -0.627,4.553"
       id="path4807" /><path
       style="fill:none;stroke:#ffffff;stroke-width:0.499999"
       d="m 15654.813,34051.65 c 0.565,-0.801 2.495,-1.838 1.694,-2.405 -0.801,-0.563 -1.129,1.604 -1.694,2.405 z"
       id="path4809" /><path
       style="fill:none;stroke:#ffffff;stroke-width:0.499999"
       d="m 15669.809,34051.904 c -3.263,0.868 -3.263,0.868 0,0 z"
       id="path4811" /><path
       style="fill:none;stroke:#ffffff;stroke-width:0.499999"
       d="m 15217.28,34110.996 c -1.527,1.453 -3.173,2.789 -4.581,4.358 -4.91,5.469 16.988,7.702 14.431,13.264 -1.124,2.444 -9.19,-0.347 -13.552,-1.556 -2.262,-0.627 -1,-0.942 0.439,-1.357"
       id="path4813" /><path
       style="fill:none;stroke:#ffffff;stroke-width:0.499999"
       d="m 15228.762,34127.118 c 3.509,0.24 5.415,-0.911 2.949,-4.297 0.21,-3.282 -0.02,-5.933 -0.627,-8.995"
       id="path4815" /><path
       style="fill:none;stroke:#ffffff;stroke-width:0.499999"
       d="m 15236.793,34113.148 c 2.259,2.553 4.616,5.027 6.776,7.664 1.256,1.532 1.298,2.789 1.506,2.601 0.233,-0.209 0.05,-0.629 0.126,-0.934 0.28,-1.121 0.461,-2.286 0.941,-3.336 0.452,-0.992 1.108,-1.889 1.82,-2.715 1.639,-1.902 2.976,-0.119 3.576,1.556 0.403,1.125 0.657,2.302 0.878,3.479 0.147,0.776 0.241,2.54 0.377,3.477"
       id="path4817" /><path
       style="fill:none;stroke:#ffffff;stroke-width:0.499999"
       d="m 15263.397,34110.856 c 0.962,-0.886 1.924,-1.772 2.886,-2.659 0.06,-0.06 0.25,-0.227 0.188,-0.169 -3.568,3.286 -8.829,8.821 -6.965,14.282 1.497,4.387 8.321,4.135 10.981,1.5"
       id="path4819" /><path
       style="fill:none;stroke:#ffffff;stroke-width:0.499999"
       d="m 15275.506,34114.619 c 3.699,2.706 0.219,19.957 -5.772,10.265"
       id="path4821" /><path
       style="fill:none;stroke:#ffffff;stroke-width:0.499999"
       d="m 15268.228,34119.625 c 2.836,-0.429 10.539,8.059 8.972,3.704"
       id="path4823" /><path
       style="fill:none;stroke:#ffffff;stroke-width:0.499999"
       d="m 15277.388,34111.055 c 1.97,4.683 -0.913,-3.882 0.314,-3.707 8.029,1.148 14.19,10.525 13.051,18.301 -0.241,1.643 -4.512,9.181 -6.4,7.805 -0.573,-0.418 -0.251,-1.397 -0.376,-2.093"
       id="path4825" /><path
       style="fill:none;stroke:#ffffff;stroke-width:0.499999"
       d="m 15304.745,34117.249 c 5.479,0.878 11.025,-1.884 16.439,-1.133"
       id="path4827" /><path
       style="fill:none;stroke:#ffffff;stroke-width:0.499999"
       d="m 15307.129,34123.612 c 5.52,2.913 11.133,1.598 17.004,1.357"
       id="path4829" /><path
       style="fill:none;stroke:#ffffff;stroke-width:0.499999"
       d="m 15355.254,34101.834 c 0.188,1.198 0.401,2.392 0.564,3.593 0.09,0.638 0.09,1.286 0.189,1.921 0.03,0.198 0.599,1.982 0.313,2.574 -0.315,0.656 -0.8,-1.217 -1.129,-1.865 -0.315,-0.622 -0.616,-1.252 -0.941,-1.868 -0.302,-0.572 -1.086,-1.066 -0.941,-1.696 0.246,-1.072 0.876,-2.408 1.945,-2.659 2.05,-0.479 4.174,0.585 6.274,0.735 5.891,0.421 11.367,-0.96 16.816,-2.968 1.674,-0.619 0.953,6.419 0.878,7.437 -0.05,0.707 -0.425,2.633 0.06,2.122 1.832,-1.929 -0.154,-5.106 -1.318,-6.818 -0.33,-0.484 -0.895,-1.58 -1.506,-1.894 -0.444,-0.228 -15.575,1.963 -16.439,1.952 -0.753,0 -1.514,0.06 -2.258,-0.06 -0.844,-0.127 -1.939,-1.143 -2.51,-0.508 -3.108,3.447 -4.598,7.017 -3.89,11.229 0.189,1.127 1.325,-0.442 2.384,-3.339 0.263,-0.717 1.288,-7.76 1.506,-7.89 0.282,-0.167 13.002,0.759 14.494,0.765 1.132,0 2.27,-0.07 3.388,-0.257 1.88,-0.307 3.726,-0.794 5.584,-1.215 0.63,-0.142 2.861,-1.01 2.886,-0.989 0.436,0.344 -0.32,3.059 -0.376,3.564 -0.209,1.863 0.573,4.278 0.941,5.374"
       id="path4831" /><path
       style="fill:none;stroke:#ffffff;stroke-width:0.499999"
       d="m 15367.552,34150.988 c -0.377,1.302 -0.817,2.585 -1.13,3.903 -0.139,0.59 -0.348,2.214 -0.06,2.857 0.04,0.09 0,-0.188 0,-0.283 -0.02,-0.725 -0.194,-1.463 -0.06,-2.177 0.27,-1.469 0.836,-2.866 1.255,-4.3 z"
       id="path4833" /><path
       style="fill:none;stroke:#ffffff;stroke-width:0.499999"
       d="m 15368.869,34148.416 c -3.316,3.583 -1.129,5.538 -1.129,9.56 0,0.481 -0.473,1.286 -0.69,1.751 -0.04,0.08 -0.112,0.313 -0.126,0.228 -0.191,-1.207 0.363,-6.242 0.439,-6.646 0.316,-1.678 2.993,-5.731 1.506,-4.893 -3.052,1.72 -2.269,9.578 -2.384,11.737 -0.05,0.897 -0.679,3.525 -0.439,2.657 0.356,-1.283 0.251,-1.567 0.251,-2.969"
       id="path4835" /><path
       style="fill:none;stroke:#ffffff;stroke-width:0.499999"
       d="m 15360.963,34134.867 c 0.795,-1.659 1.409,-3.418 2.385,-4.977 0.385,-0.616 1.092,-0.957 1.631,-1.442 4.487,-4.045 3.84,4.205 6.588,5.94 2.263,1.426 10.354,-0.508 9.412,-4.159 -0.829,-3.212 -3.513,-6.21 -6.588,-2.913 -2.376,2.548 -3.183,6.533 -5.961,8.684 -1.11,0.859 -2.707,1.381 -4.078,1.669 -2.594,0.542 -4.029,0.656 -4.079,0.368 -0.183,-1.066 1.66,-2.691 0.69,-3.17 -1.284,-0.632 -2.585,1.455 -4.015,1.529 -3.429,0.178 -1.092,-5.439 2.447,-5.262"
       id="path4837" /><path
       style="fill:none;stroke:#ffffff;stroke-width:0.499999"
       d="m 15353.748,34161.482 c 2.257,0.875 -0.929,8.911 -0.125,9.305 1.138,0.561 2.508,-0.384 3.764,-0.566 4.543,-0.656 5.15,-0.45 10.918,-0.622 4.659,-0.14 9.33,-0.212 13.992,-0.143 0.05,0 2.714,0.132 2.76,-0.06 0.136,-0.548 -0.392,-6.401 -0.376,-6.787 0.03,-0.823 0.478,-4.358 0.251,-5.998 -0.1,-0.707 -0.517,1.355 -0.565,2.066 -0.08,1.223 0.923,9.875 0.502,10.38 -0.129,0.156 -5.817,-1.217 -7.027,-1.133 -9.584,0.673 -19.082,2.937 -28.674,3.226"
       id="path4839" /><path
       style="fill:none;stroke:#ffffff;stroke-width:0.499999"
       d="m 15367.803,34074.881 c -4.594,3.498 -4.149,-1.5 -2.698,-1.357 1.002,0.1 1.798,0.904 2.698,1.357 z"
       id="path4841" /><path
       style="fill:none;stroke:#ffffff;stroke-width:0.499999"
       d="m 15364.979,34086.308 c -0.24,4.472 -0.153,2.239 -0.251,5.996 -0.02,0.78 0,1.566 -0.06,2.346 -0.06,0.741 -0.116,1.49 -0.314,2.207 -0.172,0.619 0.07,-1.283 0.125,-1.923 0,-0.08 0.576,-5.387 0.377,-5.403 -0.594,-0.05 -1.279,0.614 -1.694,0.876"
       id="path4843" /><path
       style="fill:none;stroke:#ffffff;stroke-width:0.499999"
       d="m 15366.171,34187.191 c 1.002,2.76 1.776,9.705 -3.325,8.342"
       id="path4845" /><path
       style="fill:none;stroke:#ffffff;stroke-width:0.499999"
       d="m 15357.889,34192.848 c 6.791,-2.355 13.824,-3.993 20.831,-5.572"
       id="path4847" /><path
       style="fill:none;stroke:#ffffff;stroke-width:0.499999"
       d="m 15406.892,34112.409 c -7.762,11.803 -12.3,21.171 -13.427,42.371 -0.981,18.436 12.7,40.736 19.325,51.798"
       id="path4851" /><path
       style="fill:none;stroke:#ffffff;stroke-width:0.499999"
       d="m 15450.799,34130.287 c -3.968,4.974 -7.608,10.168 -11.67,15.074 -0.554,0.669 -1.132,1.32 -1.695,1.981 -0.272,0.318 -1.024,1.326 -0.815,0.961 0.219,-0.384 0.46,-0.754 0.69,-1.133"
       id="path4865" /><path
       style="fill:none;stroke:#ffffff;stroke-width:0.499999"
       d="m 15437.183,34133.851 c 7.112,5.101 13.741,10.824 20.329,16.515"
       id="path4867" /><path
       style="fill:none;stroke:#ffffff;stroke-width:0.499999"
       d="m 15371.239,34159.616 c -2.633,1.987 -2.868,2.239 -4.58,-0.397 -0.479,-0.738 -1.243,-1.875 -1.318,-2.884 -0.175,-2.365 5.297,-5.061 7.341,-4.979 1.245,0.05 2.521,0.669 3.577,1.273 0.853,0.489 2.029,1.365 2.196,2.434 0.228,1.455 -2.13,6.474 -3.702,6.22 -1.28,-0.204 -2.221,-1.561 -3.514,-1.667 -1.71,-0.14 -9.931,2.845 -9.098,-2.886 1.04,-7.149 14.753,-8.261 14.62,-0.254 -0.07,4.087 -2.469,2.521 -5.522,3.14 -3.478,0.701 -3.95,3.149 -6.713,0.395 -0.71,-0.707 -1.376,-1.609 -1.506,-2.601 -0.121,-0.918 0.231,-1.94 0.816,-2.659 2.983,-3.673 9.443,-7.142 13.74,-3.31 0.864,0.772 1.505,2.151 1.255,3.339 -1.319,6.268 -13.884,6.929 -15.686,0.82 -1.924,-6.527 10.498,-9.102 13.804,-3.141 0.538,0.971 1.507,2.358 0.816,3.226 -3.588,4.495 -19.539,6.9 -14.181,2.431"
       id="path4869" /><path
       style="fill:none;stroke:#ffffff;stroke-width:0.499999"
       d="m 15459.395,34115.1 c -0.58,-1.373 4.303,-4.889 5.145,-3.056 1.514,3.3 -4.823,8.811 -6.4,10.324 -0.952,0.913 -2.004,1.72 -3.075,2.487 -0.274,0.199 -1.122,0.275 -0.878,0.511 0.322,0.31 3.411,-0.445 4.078,-0.537 2.77,-0.392 5.553,-0.611 8.345,-0.736 0.693,-0.03 2.593,-0.259 2.071,0.199 -0.801,0.698 -1.725,0.717 -2.635,0.846"
       id="path4871" /><path
       style="fill:none;stroke:#ffffff;stroke-width:0.499999"
       d="m 15478.03,34110.459 c -4.53,3.919 -4.945,2.403 0,0 z"
       id="path4873" /><path
       style="fill:none;stroke:#ffffff;stroke-width:0.499999"
       d="m 15476.085,34120.699 c 0.03,0.584 0.354,5.426 0.251,7.069 -0.03,0.448 -0.07,1.678 -0.314,1.302 -1.241,-1.918 -0.251,-6.3 0.06,-8.371 z"
       id="path4875" /><path
       style="fill:none;stroke:#ffffff;stroke-width:0.499999"
       d="m 15476.461,34111.706 c -5.026,-4.125 1.519,-4.276 1.318,-2.914 -0.156,1.054 -0.879,1.943 -1.318,2.914 z"
       id="path4877" /><path
       style="fill:none;stroke:#ffffff;stroke-width:0.499999"
       d="m 15491.143,34116.428 c -1.738,1.569 -0.263,11.883 -2.384,9.56"
       id="path4879" /><path
       style="fill:none;stroke:#ffffff;stroke-width:0.499999"
       d="m 15483.3,34121.236 c -1.844,-2.141 15.567,-1.72 11.922,-1.103"
       id="path4881" /><path
       style="fill:none;stroke:#ffffff;stroke-width:0.499999"
       d="m 15504.194,34110.234 c 3.48,4.774 3.077,7.239 2.698,12.359 -0.12,1.622 0.391,1.003 -0.439,1.699"
       id="path4883" /><path
       style="fill:none;stroke:#ffffff;stroke-width:0.499999"
       d="m 15489.386,34117.193 c -2.154,-1.45 0.05,11.668 -0.941,10.858"
       id="path4885" /><path
       style="fill:none;stroke:#ffffff;stroke-width:0.499999"
       d="m 15484.492,34122 c 1.339,-0.187 2.666,-0.505 4.016,-0.566 3.717,-0.166 11.146,0.122 9.035,0.312"
       id="path4887" /><path
       style="fill:none;stroke:#ffffff;stroke-width:0.499999"
       d="m 15425.387,34160.72 c 6.372,0.381 12.765,0.357 19.137,0 15.417,-0.866 30.783,-2.723 46.18,-3.877 3.265,-0.243 6.521,-0.605 9.788,-0.82 0.908,-0.06 1.902,-0.116 2.824,-0.08 0.355,0.03 1.391,-0.09 1.066,0.06 -1.102,0.498 -1.867,0.738 -3.074,0.566"
       id="path4889" /><path
       style="fill:none;stroke:#ffffff;stroke-width:0.499999"
       d="m 15438.124,34179.582 c 3.475,-3.583 2.744,-3.919 7.028,-5.062 8.755,-2.333 -1.707,7.758 -3.012,9.335 -1.557,1.878 -3.109,3.765 -4.58,5.712 -0.373,0.495 -1.601,1.982 -1.38,2.998 0.529,2.434 10.432,-3.966 12.485,-2.461 0.218,0.159 -0.814,0.05 -1.003,-0.08"
       id="path4891" /><path
       style="fill:none;stroke:#ffffff;stroke-width:0.499999"
       d="m 15455.002,34176.245 c 4.099,-6.757 5.987,-1.592 3.954,-0.735 -1.235,0.521 -2.636,0.489 -3.954,0.735 z"
       id="path4893" /><path
       style="fill:none;stroke:#ffffff;stroke-width:0.499999"
       d="m 15459.269,34182.016 c 0.971,4.053 0.768,7.752 -0.06,11.737 -0.137,0.659 -0.326,2.527 -0.627,1.923 -0.277,-0.555 -0.293,-1.206 -0.439,-1.809"
       id="path4895" /><path
       style="fill:none;stroke:#ffffff;stroke-width:0.499999"
       d="m 15471.63,34181.167 c 1.241,3.566 1.095,9.326 -3.765,9.982"
       id="path4897" /><path
       style="fill:none;stroke:#ffffff;stroke-width:0.499999"
       d="m 15463.975,34189.115 c 4.552,-1.651 9.203,-2.527 13.992,-2.884"
       id="path4899" /><path
       style="fill:none;stroke:#ffffff;stroke-width:0.499999"
       d="m 15481.92,34179.95 c 5.296,-1.517 2.595,5.148 2.071,7.892 -0.154,0.799 -1.035,2.656 -0.252,2.432 0.577,-0.167 0.962,-0.717 1.443,-1.075"
       id="path4901" /><path
       style="fill:none;stroke:#ffffff;stroke-width:0.499999"
       d="m 15487.755,34172.314 c 1.443,0.386 3.067,0.362 4.329,1.161 0.944,0.595 1.41,1.76 1.883,2.77 2.99,6.403 1.145,13.349 -5.02,17.169"
       id="path4903" /><path
       style="fill:none;stroke:#ffffff;stroke-width:0.499999"
       d="m 15436.117,34175.227 c -0.879,-0.03 -1.847,-0.471 -2.635,-0.08 -5.531,2.715 -10.946,12.901 -8.597,18.949 2.174,5.594 10.984,11.229 17.067,11.229"
       id="path4905" /><path
       style="fill:none;stroke:#ffffff;stroke-width:0.499999"
       d="m 15506.767,34171.493 c 0.377,4.99 0.959,5.578 -0.44,10.041 -0.139,0.445 -2.384,4.123 -2.384,4.977"
       id="path4907" /><path
       style="fill:none;stroke:#ffffff;stroke-width:0.499999"
       d="m 15506.516,34197.542 c -0.816,0.669 -1.537,1.476 -2.448,2.008 -1.26,0.738 -1.931,-3.075 -0.439,-2.969 1.012,0.07 3.458,0.125 2.887,0.961 -1.458,2.135 -5.226,4.929 -7.091,3.14 -3.055,-2.934 7.599,-6.829 7.091,-3.14 -0.23,1.661 -3.656,5.278 -5.899,3.564 -3.961,-3.03 14.177,-7.086 1.444,-1.67"
       id="path4909" /><path
       style="fill:none;stroke:#ffffff;stroke-width:0.499999"
       d="m 15487.065,34177.01 c -0.878,1.498 -2.097,2.844 -2.635,4.495 -0.411,1.26 0.917,9.393 -1.506,10.269 -0.02,0 0.256,-2.546 0.06,-4.271 -0.173,-1.547 -2.032,-9.289 1.13,-9.051"
       id="path4911" /><path
       style="fill:none;stroke:#ffffff;stroke-width:0.499999"
       d="m 15490.829,34173.277 c 0.126,1.346 0.01,2.741 0.377,4.043 0.356,1.267 1.208,2.338 1.757,3.537 2.93,6.387 1.434,10.618 -3.953,14.96 -0.621,0.5 -2.155,2.008 -3.137,1.952 -1.058,-0.06 5.128,-8.617 5.458,-10.125 0.671,-3.056 1.076,-4.9 0.251,-7.636 -0.298,-0.99 -1.014,-1.86 -1.129,-2.887 -0.143,-1.278 1.103,-2.781 0.376,-3.844 -4.616,-6.766 -3.938,-1.805 -3.827,-0.651"
       id="path4913" /><path
       style="fill:none;stroke:#ffffff;stroke-width:0.499999"
       d="m 15538.358,34148.848 c 1.338,0.434 2.621,1.111 4.015,1.301 1.083,0.146 2.176,-0.198 3.263,-0.312 1.583,-0.164 1.992,-0.259 1.882,-0.367 -0.913,-0.892 -2.552,-0.07 -3.827,-0.141 -1.782,-0.1 -4.629,-2.122 -5.333,-0.481 -0.734,1.706 5.133,1.328 6.65,1.272"
       id="path4915" /><path
       style="fill:none;stroke:#ffffff;stroke-width:0.499999"
       d="m 15552.224,34143.077 c 2.246,4.234 4.432,9.374 3.388,14.311"
       id="path4917" /><path
       style="fill:none;stroke:#ffffff;stroke-width:0.499999"
       d="m 15556.428,34135.838 c 10.273,9.306 12.577,15.285 2.823,25.03"
       id="path4919" /><path
       style="fill:none;stroke:#ffffff;stroke-width:0.499999"
       d="m 15536.475,34138.27 c -8.355,4.458 -16.277,15.674 -6.337,23.19 3.499,2.649 8.693,4.183 12.863,5.403 2.593,0.76 2.453,0.868 1.443,-0.225"
       id="path4921" /><path
       style="fill:none;stroke:#ffffff;stroke-width:0.499999"
       d="m 15573.369,34115.05 c -3.247,2.162 -5.96,0.775 0,0 z"
       id="path4923" /><path
       style="fill:none;stroke:#ffffff;stroke-width:0.499999"
       d="m 15571.8,34127.184 c 0.105,1.386 0.248,2.767 0.314,4.156 0.06,1.262 0.01,2.527 0.06,3.792 0.461,11.594 -0.1,-7.583 -0.377,-7.948 -0.763,-1.008 -0.544,2.468 -0.816,3.704"
       id="path4925" /><path
       style="fill:none;stroke:#ffffff;stroke-width:0.499999"
       d="m 15572.177,34116.267 c -5.51,-2.125 1.578,-4.768 1.443,-3.395 -0.121,1.223 -0.962,2.263 -1.443,3.395 z"
       id="path4927" /><path
       style="fill:none;stroke:#ffffff;stroke-width:0.499999"
       d="m 15584.286,34103.821 c 2.908,3.035 4.119,6.765 5.835,10.493 0.565,1.225 3.792,8.345 3.953,8.824 5.059,15.029 2.755,33.597 0.06,48.731 -1.754,9.861 -3.463,20.021 -10.792,27.406"
       id="path4933" /><path
       style="fill:none;stroke:#ffffff;stroke-width:0.499999"
       d="m 15641.747,34049.108 c -11.701,5.553 -0.514,-5.948 0.178,-4.601 0.701,1.365 -0.119,3.066 -0.178,4.601 z"
       id="path4935" /><path
       style="fill:none;stroke:#ffffff;stroke-width:0.499999"
       d="m 15668.367,34052.505 c -2.016,3.524 -14.924,5.093 -10.47,-2.199 0.317,-0.521 2.484,-3.135 3.637,-3.519 5.478,-1.828 -5.455,13.783 -6.921,9.16 -0.907,-2.863 5.407,-9.374 7.188,-4.961 1.424,3.532 -3.869,10.163 -7.365,6.8 -4.174,-4.014 2.212,-6.596 5.59,-5.919"
       id="path4937" /><path
       style="fill:none;stroke:#ffffff;stroke-width:0.499999"
       d="m 15688.155,34050.267 c -2.426,1.185 -4.709,2.725 -7.277,3.558 -1.319,0.429 -3.944,-0.584 -4.259,-2.159 -0.18,-0.902 0.345,-1.841 0.799,-2.64 3.066,-5.395 11.3,-0.95 10.737,1.241 -0.145,0.563 -9.778,6.424 -11.891,5.04 -3.09,-2.027 5.899,-9.663 7.72,-6.961 2.988,4.437 -11.085,10.456 -4.082,1.802 0.451,-0.559 1.065,-0.961 1.598,-1.442"
       id="path4939" /><path
       style="fill:none;stroke:#ffffff;stroke-width:0.499999"
       d="m 15706.523,34046.946 c -1.272,0.455 -2.468,1.437 -3.816,1.36 -5.035,-0.283 9.824,-8.533 3.816,-1.36 -0.122,0.146 -14.297,8.054 -10.382,0.162 1.973,-3.982 5.007,-0.548 3.194,3.72"
       id="path4941" /></g></svg>
