<?xml version="1.0" encoding="UTF-8" standalone="no"?>
<!-- Created with Inkscape (http://www.inkscape.org/) -->

<svg
   width="169.4832mm"
   height="106.31276mm"
   viewBox="0 0 169.48319 106.31276"
   version="1.1"
   id="svg12"
   inkscape:version="1.2.2 (b0a8486541, 2022-12-01)"
   sodipodi:docname="sliplin'slide.svg"
   xml:space="preserve"
   xmlns:inkscape="http://www.inkscape.org/namespaces/inkscape"
   xmlns:sodipodi="http://sodipodi.sourceforge.net/DTD/sodipodi-0.dtd"
   xmlns="http://www.w3.org/2000/svg"
   xmlns:svg="http://www.w3.org/2000/svg"><sodipodi:namedview
     id="namedview14"
     pagecolor="#000000"
     bordercolor="#ffffff"
     borderopacity="1"
     inkscape:showpageshadow="0"
     inkscape:pageopacity="0"
     inkscape:pagecheckerboard="0"
     inkscape:deskcolor="#000000"
     inkscape:document-units="mm"
     showgrid="true"
     inkscape:zoom="1.8214864"
     inkscape:cx="-3921.5225"
     inkscape:cy="5429.6315"
     inkscape:window-width="1366"
     inkscape:window-height="746"
     inkscape:window-x="1360"
     inkscape:window-y="0"
     inkscape:window-maximized="1"
     inkscape:current-layer="layer1"
     inkscape:lockguides="true"
     showguides="false"><sodipodi:guide
       position="3265.6758,-22192.731"
       orientation="0,-1"
       id="guide3409"
       inkscape:locked="true" /><inkscape:grid
       type="xygrid"
       id="grid299"
       color="#dea02b"
       opacity="0.14901961"
       empcolor="#ffffff"
       empopacity="0.30196078"
       originx="300.30782"
       originy="-99.844321"
       enabled="false" /></sodipodi:namedview><defs
     id="defs9"><rect
       x="587.26367"
       y="362.45731"
       width="66.575974"
       height="20.973427"
       id="rect1884" /></defs><g
     inkscape:label="Layer 1"
     inkscape:groupmode="layer"
     id="layer1"
     transform="translate(322.59316,-210.20636)"><path
       style="fill:none;stroke:#00ffff;stroke-width:0.325001"
       d="m -1488.819,1615.8497 c -0.3433,4.6806 1.0173,9.5182 0.1563,14.166"
       id="path3463" /><path
       style="fill:none;stroke:#00ffff;stroke-width:0.325001"
       d="m -1489.397,1625.4483 c 0.8982,-0.043 3.3819,-0.1164 3.9526,-0.4216 1.4186,-0.7586 1.4053,-4.5866 1.5467,-5.7479 0.1002,-0.8231 0.1949,-1.6472 0.2656,-2.4735 0.03,-0.35 0.055,-1.4009 0,-1.0539 -0.6774,4.2654 -0.7192,8.4024 0.1718,12.6481 0.4549,2.1677 0.1453,2.454 0.6875,1.827"
       id="path3465" /><path
       style="fill:none;stroke:#00ffff;stroke-width:0.325001"
       d="m -1481.4917,1624.8018 c 1.8707,0.2512 1.8271,0.5006 3.3902,-0.028 1.927,-0.6517 1.2042,-4.1501 -0.9843,-2.2064 -0.466,0.4139 -0.7571,1.0354 -0.8905,1.6443 -0.1676,0.7642 -0.1701,1.587 0.016,2.3469 0.1518,0.6211 1.1837,3.6095 2.5153,2.6421"
       id="path3467" /><path
       style="fill:none;stroke:#00ffff;stroke-width:0.325001"
       d="m -1475.7268,1619.6442 c -0.9347,-1.7991 4.4638,7.2655 2.7652,6.043"
       id="path3469" /><path
       style="fill:none;stroke:#00ffff;stroke-width:0.325001"
       d="m -1472.2898,1619.1945 c 0.1927,-0.4825 1.0606,-1.2549 0.5781,-1.4476 -0.4825,-0.1927 -0.7537,0.9586 -0.5781,1.4476 0.3815,1.0619 1.4678,1.7252 2.0623,2.6842 0.086,0.1392 0.5513,2.3243 0.5624,2.375"
       id="path3471" /><path
       style="fill:none;stroke:#00ffff;stroke-width:0.325001"
       d="m -1466.103,1623.8462 c 1.5343,3.4568 -0.5428,-0.735 -0.6562,-1.1664 -0.2609,-0.993 1.2165,-5.2998 1.9685,-2.7264 0.3951,1.3517 0.4884,2.6224 -0.016,3.9771 -0.2052,0.5515 -0.593,1.0228 -0.9686,1.4756 -0.1383,0.1668 -0.5022,0.5634 -0.5468,0.3514 -0.132,-0.6275 0.1458,-1.2742 0.2187,-1.9113 z"
       id="path3473" /><path
       style="fill:none;stroke:#00ffff;stroke-width:0.325001"
       d="m -1446.1836,1615.4141 c 0.6789,2.3471 1.7103,7.4743 0.3281,9.7953"
       id="path3475" /><path
       style="fill:none;stroke:#00ffff;stroke-width:0.325001"
       d="m -1447.0429,1619.9674 c 1.7248,-1.9176 0.8129,-1.1627 2.6403,-2.3751"
       id="path3477" /><path
       style="fill:none;stroke:#00ffff;stroke-width:0.325001"
       d="m -1443.0746,1615.3016 c 0.3958,0.4732 0.9104,0.8682 1.1873,1.4194 0.4691,0.9336 0.6946,1.9711 1.0155,2.9653 0.054,0.1686 0,0.3833 0.1094,0.52 0.6053,0.7351 1.8825,-6.8859 3.0934,-2.5577 0.2069,0.7396 0.3795,1.4848 0.5937,2.2204 1.1144,0 2.2329,0.095 3.3433,10e-5 1.906,-0.1627 1.9568,-3.0388 0.953,-2.7124 -1.9354,0.6293 -2.6006,4.8434 -0.3594,5.3123"
       id="path3479" /><path
       style="fill:none;stroke:#00ffff;stroke-width:0.325001"
       d="m -1430.9667,1615.3016 c 0.4374,0.5247 0.9395,1.0016 1.3123,1.574 0.4132,0.6344 0.7081,1.339 1.0311,2.0237 0.2033,0.4311 0.39,0.871 0.5468,1.3211 0.8365,2.4015 -1.2946,-1.98 0.4219,-2.8669 0.8913,-0.4606 5.6316,1.3375 5.5149,0.3794 -0.1723,-1.4143 -1.7782,-2.8663 -3.109,-1.5459 -3.455,3.4279 2.1405,5.7542 4.9838,4.7642"
       id="path3481" /><path
       style="fill:none;stroke:#00ffff;stroke-width:0.325001"
       d="m -1412.5003,1620.8528 c -0.1868,2.3837 -1.3513,4.4414 -2.6559,6.3803"
       id="path3483" /><path
       style="fill:none;stroke:#00ffff;stroke-width:0.325001"
       d="m -1402.0328,1614.2757 c 0.3557,-2.9237 -0.037,-0.274 0,0 0.1846,1.3599 0.6622,2.6641 0.953,4.0053 0.1841,0.8494 0.3312,1.5464 0.3437,1.5318 0.471,-0.5473 2.0564,-6.9371 2.7965,-6.7738 0.8065,0.178 1.1309,3.3031 1.2342,3.3166 1.4288,0.1881 3.0565,-5.9229 4.2183,-1.7426 0.3043,1.0949 0.047,2.2883 0.6405,3.3026"
       id="path3485" /><path
       style="fill:none;stroke:#00ffff;stroke-width:0.325001"
       d="m -1388.1752,1613.826 c -0.4895,3.0059 1.3093,-3.4485 1.703,-2.5156 0.5011,1.1876 -0.05,6.6792 -0.1094,7.0268 -0.092,0.537 -0.4687,0.9838 -0.703,1.4756"
       id="path3487" /><path
       style="fill:none;stroke:#00ffff;stroke-width:0.325001"
       d="m -1389.4719,1616.707 c -0.5154,-3.0018 1.0882,-2.1508 3.5777,-1.9816"
       id="path3489" /><path
       style="fill:none;stroke:#00ffff;stroke-width:0.325001"
       d="m -1375.5986,1612.4206 c -1.7021,1.8898 0.2423,-2.1676 0.6249,-1.7004 1.5374,1.8767 0.7643,4.3694 1.7342,6.3522 0.1498,0.3063 2.7813,-3.8359 3.5464,-3.6821 0.8064,0.1622 0.5272,2.8454 0.6563,3.5415"
       id="path3491" /><path
       style="fill:none;stroke:#00ffff;stroke-width:0.325001"
       d="m -1366.7247,1614.1071 c -0.1197,-0.5434 0.1841,-1.75 -0.3593,-1.6302 -0.5434,0.1197 0.1096,1.1329 0.3593,1.6302 0.3724,0.7414 0.9265,1.3815 1.4686,2.0096 0.058,0.067 0.2171,0.074 0.2656,0 0.9767,-1.4909 0.747,-3.5848 1.4217,-1.1805 0.1722,0.6138 0.1313,0.4723 0.3749,1.0119"
       id="path3493" /><path
       style="fill:none;stroke:#00ffff;stroke-width:0.325001"
       d="m -1360.741,1611.0715 c 1.2166,1.0052 1.9807,2.4588 1.781,4.0755 -0.035,0.2858 0.091,-0.5718 0.1874,-0.8432 0.01,-0.027 1.0763,-3.7034 2.0155,-2.9091 0.6238,0.5277 0.5153,1.8329 0.7811,2.5718 0.034,0.093 0.3563,-0.7754 0.953,-1.0399 1.1467,-0.5083 2.3184,0.4947 3.3746,0.2389 0.438,-0.1061 2.6297,-1.4072 1.4373,-1.4897 -0.64,-0.044 -0.9502,1.0179 -0.6249,1.4475 0.8007,1.0574 2.3428,1.1743 3.5464,1.0821"
       id="path3495" /><path
       style="fill:none;stroke:#00ffff;stroke-width:0.325001"
       d="m -1453.6046,1622.8625 c 0.8906,-0.342 1.7509,-0.7763 2.6716,-1.026 2.6342,-0.7142 7.4692,-1.2646 9.8894,-1.5599 4.2037,-0.513 11.4314,-1.2816 15.4824,-1.7146 7.3009,-0.7802 14.5887,-1.6966 21.9036,-2.3328 13.1267,-1.1417 20.845,-1.2804 33.9645,-1.2227 12.6721,0.056 25.2986,1.5912 37.9641,0.8713"
       id="path3497" /><path
       style="fill:none;stroke:#00ffff;stroke-width:0.325001"
       d="m -1477.876,1636.1284 c 0.518,2.3643 0.413,4.7755 0.2188,7.1673 -0.024,0.2922 -0.2618,2.6765 -0.4687,2.6139 -0.7584,-0.2294 -2.4331,-3.7083 -2.3982,-3.7312 0.027,-0.018 0.5308,0.8052 0.8749,1.2649 0.5305,0.7084 0.9043,1.5912 1.6326,2.0939 1.2814,0.8844 2.8168,-2.5735 3.3902,-3.6258"
       id="path3499" /><path
       style="fill:none;stroke:#00ffff;stroke-width:0.325001"
       d="m -1488.5699,1653.604 c 0.036,-0.3912 -0.019,-0.8023 0.1093,-1.1735 0.039,-0.1115 0.1631,0.1816 0.1953,0.2951 0.1363,0.481 0.2094,0.9778 0.3047,1.4686 0.1332,0.6869 0.3851,3.37 0.8436,3.9491 0.2838,0.3584 0.6722,-3.1289 1.3045,-2.5437 0.602,0.5571 0.4045,2.1646 1.3436,2.5086 0.1435,0.053 0.3476,-0.059 0.414,-0.1968 0.7507,-1.5562 1.7471,-4.1798 1.2811,-6.036"
       id="path3501" /><path
       style="fill:none;stroke:#00ffff;stroke-width:0.325001"
       d="m -1476.8058,1652.3462 c -0.1602,1.768 -0.017,3.5449 0.055,5.3122 0.028,0.6862 0.063,0.4751 -0.016,0.8292"
       id="path3503" /><path
       style="fill:none;stroke:#00ffff;stroke-width:0.325001"
       d="m -1479.0164,1656.6466 c 1.1594,-0.8474 0.9101,-0.8285 2.445,-1.1876 1.0397,-0.2432 2.484,-0.4002 2.5387,-0.091 0.059,0.3319 -2.6364,1.2992 -3.023,1.2929 -2.325,-0.038 0.6488,-1.629 1.5154,-1.8269"
       id="path3505" /><path
       style="fill:none;stroke:#00ffff;stroke-width:0.325001"
       d="m -1477.1651,1655.7612 c -0.1406,-0.2296 -0.4144,-0.4196 -0.4218,-0.6886 -0.036,-1.2981 1.9904,-4.389 3.5542,-4.3356 0.2996,0.01 -0.084,0.6487 -0.3124,0.8432 -1.1293,0.9636 -2.5945,1.3168 -3.0075,2.9865 -0.097,0.3912 0.1658,0.792 0.1875,1.1945 0.025,0.4727 -0.1431,0.9559 -0.047,1.4194 0.064,0.3095 0.3195,0.5471 0.5078,0.8011 0.1445,0.195 0.6785,0.6213 0.6171,0.3864"
       id="path3507" /><path
       style="fill:none;stroke:#00ffff;stroke-width:0.325001"
       d="m -1478.0009,1656.492 c 0.1275,-0.2202 0.1942,-0.4896 0.3827,-0.6605 0.5877,-0.5327 2.4673,-0.6671 3.109,-0.1476"
       id="path3509" /><path
       style="fill:none;stroke:#00ffff;stroke-width:0.325001"
       d="m -1469.0333,1651.6505 c -0.2552,0.094 -0.5103,0.1874 -0.7655,0.2811 0,-0.023 -0.03,-0.062 -0.01,-0.07 0.4374,-0.1605 1.9404,-0.4876 2.1951,-0.4216 1.3801,0.3577 -0.9966,5.3166 -1.1718,6.2679 -0.2386,1.2961 1.3671,1.0794 1.3671,0.5551 0,-0.1877 -0.1042,-0.3607 -0.1563,-0.541"
       id="path3511" /><path
       style="fill:none;stroke:#00ffff;stroke-width:0.325001"
       d="m -1469.7519,1654.925 c 1.1329,-0.6496 2.4191,-0.7439 3.687,-0.8573"
       id="path3513" /><path
       style="fill:none;stroke:#00ffff;stroke-width:0.325001"
       d="m -1464.7135,1651.4608 c 0.3775,-0.2998 0.6569,-0.8215 1.1326,-0.8994 0.5379,-0.088 1.1178,0.1526 1.5702,0.4567 2.0979,1.4105 -0.6671,4.6637 -1.4529,6.0922 -0.264,0.4798 -0.8403,0.9215 -0.75,1.4616 0.087,0.5199 2.7541,-0.2612 2.9684,-0.3092 0.3691,-0.083 1.1045,-0.1061 0.6405,-0.6113"
       id="path3515" /><path
       style="fill:none;stroke:#00ffff;stroke-width:0.325001"
       d="m -1463.8074,1654.4893 c -1.6472,-0.2445 -1.577,-0.083 0.8124,-0.7448 0.6474,-0.1793 1.2968,-0.3513 1.9451,-0.527"
       id="path3517" /><path
       style="fill:none;stroke:#00ffff;stroke-width:0.325001"
       d="m -1457.5816,1656.225 c 0.4218,0.051 -0.2219,0.8693 0.078,1.054 0.6678,0.4109 -0.222,-0.4501 -0.078,-1.054 0.186,-0.78 0.6335,-1.4751 0.8905,-2.2346 0.4578,-1.3523 0.747,-2.757 1.1796,-4.1176 0.1775,-0.5584 0.3552,-1.1173 0.5624,-1.6654 0.012,-0.031 0.08,-0.082 0.086,-0.049 0.1341,0.7237 0.093,1.4705 0.1953,2.1994 0.2306,1.6482 0.7071,3.1905 1.1249,4.7923 0.285,1.0926 0.4662,0.7933 0.078,1.2297"
       id="path3519" /><path
       style="fill:none;stroke:#00ffff;stroke-width:0.325001"
       d="m -1456.3161,1653.8499 c 0.6035,-1.1089 1.8971,-1.0821 2.9996,-1.2789"
       id="path3521" /><path
       style="fill:none;stroke:#00ffff;stroke-width:0.325001"
       d="m -1475.9856,1652.9364 c -1.5924,0.019 0.3752,-0.5007 0.2734,-0.7448 -0.1017,-0.2441 -0.2031,0.4899 -0.2734,0.7448 -0.4396,1.5941 -0.6671,3.1843 -0.7421,4.8415 -0.025,0.5537 0.027,2.0547 0.07,2.7615 0.01,0.09 0.032,0.3566 0.031,0.267 -0.033,-2.707 -0.1626,-5.4047 -0.1562,-8.1159 0,-0.3748 -0.02,-0.7495 -0.016,-1.1243 0,-0.1645 0.039,-0.6564 0.039,-0.4919 0,0.862 1.1809,0.448 1.6795,0.4076 0.6772,-0.055 1.0543,-0.1229 1.6404,0.014 0.086,0.02 0.4852,0.3188 0.2188,0.3654 -0.717,0.1254 -3.7733,-0.3541 -3.9058,0.9275 -0.034,0.334 0.2841,0.6871 0.3437,1.0189 0.068,0.3804 0.1393,0.761 0.1797,1.1454 0.1358,1.2921 0.1319,2.61 0.094,3.9069 -0.014,0.4873 -0.048,0.9741 -0.055,1.4616 0,0.031 -0.011,0.1155 0.01,0.091 0.2504,-0.3252 0.1221,-0.7991 0.1016,-1.1735"
       id="path3523" /><path
       style="fill:none;stroke:#00ffff;stroke-width:0.325001"
       d="m -1477.6651,1655.6206 c -0.3567,-0.073 -0.7064,-0.2017 -1.0701,-0.2178 -0.07,0 0.048,0.1616 0.1171,0.1757 0.3116,0.063 0.6363,0.069 0.953,0.042 0.3506,-0.03 3.4694,-0.68 3.5934,-0.4918 0.083,0.1255 -0.273,0.3098 -0.789,0.4989 -0.3487,0.1278 -1.4794,0.4077 -1.7967,0.3724 -0.3567,-0.04 -1.2979,-0.1683 -1.0077,-0.3795 0.4149,-0.3017 1.0286,0.045 1.5389,-0.01 0.5941,-0.061 2.8093,-0.6592 1.8904,-0.246"
       id="path3525" /><path
       style="fill:none;stroke:#00ffff;stroke-width:0.325001"
       d="m -1475.0326,1642.6703 c 1.4685,-0.3824 1.2446,-1.3981 0.3594,-0.8994 -3.7615,2.1188 -0.391,0.2574 -2.9606,2.7615 -0.285,0.2777 -0.7005,-0.4281 -0.9218,-0.7589 -0.4015,-0.6002 -1.9055,-2.873 -2.7809,-2.7053 -0.7752,0.1485 0.014,0.9725 0.3516,1.5951 1.3429,2.479 0.8234,1.3543 1.6794,3.429 0.4635,-0.6535 1.0303,-1.2448 1.3905,-1.9604 0.2007,-0.3987 0.1955,-0.872 0.2578,-1.314 0.219,-1.5545 0.4311,-3.1107 0.5858,-4.6728 0.3456,-3.4881 0.6269,-2.4809 -0.023,-4.181"
       id="path3527" /><path
       style="fill:none;stroke:#00ffff;stroke-width:0.325001"
       d="m -1470.4316,1653.3088 c 0.3359,-0.2904 0.6341,-0.6312 1.0077,-0.8713 0.3122,-0.2006 2.8259,-1.0743 2.5857,0.021 -0.3731,1.7008 -1.3912,3.432 -2.1404,4.989 -0.2236,0.4647 -0.5628,1.0135 -0.7109,1.5178 -0.1283,0.4371 0.8763,-0.2522 1.3046,-0.4076 0.7182,-0.2606 1.44,-0.5041 2.2028,-0.6043 0.1939,-0.025 0.6283,-0.1627 0.5859,0.028 -0.1505,0.6765 -1.3318,0.025 -1.4608,-0.2599"
       id="path3529" /><path
       style="fill:none;stroke:#00ffff;stroke-width:0.325001"
       d="m -1469.3145,1655.7542 c -0.2578,0.054 -0.51,0.1616 -0.7734,0.1616 -0.065,0 0.046,-0.1483 0.1094,-0.1616 0.2167,-0.045 0.4625,0.092 0.664,0 6.7906,-3.0893 -0.7389,-0.2168 3.1012,-1.5881 0.2776,-0.099 0.9029,-0.1819 0.7655,-0.4427 -0.089,-0.1697 -0.3007,0.016 -0.3828,0.07"
       id="path3531" /><path
       style="fill:none;stroke:#00ffff;stroke-width:0.325001"
       d="m -1470.0176,1661.2702 c -0.2581,0.5851 -0.9968,2.2124 0.375,2.4313 1.1119,0.1773 2.8603,-3.5201 3.7183,-1.0962 0.5393,1.5236 -0.065,0.3353 0.1015,1.1102 0.024,0.1118 0.094,-0.2087 0.1328,-0.3162 0.1394,-0.3834 0.4386,-1.8371 1.0077,-1.9816 0.098,-0.025 0.1892,0.081 0.2656,0.1476 0.2304,0.2002 0.4719,0.3975 0.6484,0.6465 0.071,0.1005 0.2599,1.1951 0.5624,1.2367 0.6847,0.094 1.3098,-0.1541 1.6951,-0.7449 0.1703,-0.261 0.9769,-2.8334 0.3437,-2.101"
       id="path3533" /><path
       style="fill:none;stroke:#00ffff;stroke-width:0.325001"
       d="m -1465.6665,1664.622 c -1.3169,2.5242 -2.3131,6.0479 -0.3437,8.5235 0.3383,0.4252 0.7573,0.6984 1.2576,0.9135 1.0619,0.4565 6.4974,0.2421 7.6319,0.3372 2.5483,0.2137 4.5052,0.9504 6.5539,2.4313 2.8778,2.0802 3.1167,4.214 1.742,7.5046 -0.055,0.1328 -1.0412,2.3531 -1.2655,2.2064 -0.6375,-0.417 -1.6642,-2.2684 -2.1013,-2.9372 -0.1897,-0.2902 -0.6586,-1.2202 -0.4843,-0.9205 0.034,0.059 0.9122,1.8668 1.117,2.0026 2.0367,1.351 3.2238,1.4582 4.7104,-0.6394"
       id="path3535" /><path
       style="fill:none;stroke:#00ffff;stroke-width:0.325001"
       d="m -1467.7678,1647.041 c 0.8848,-1.0689 0.8291,-0.726 1.0936,-1.9816 0.6127,-2.9084 0.8636,-5.8842 1.4842,-8.7975 0.1477,-0.6936 0.2284,-1.0262 0.3515,-1.6654 0.034,-0.1786 0.2388,-0.6095 0.07,-0.541 -0.4293,0.1744 -0.6494,0.6618 -0.953,1.0118 -0.8006,0.9228 -2.3215,2.9551 -3.4683,3.4291 -0.066,0.027 0,-0.1484 0.031,-0.2108 0.1847,-0.3402 0.3874,-0.6722 0.6171,-0.9838 0.6472,-0.8776 2.0796,-2.5437 3.2731,-2.5858 0.1718,-0.01 2.9974,3.4562 3.0621,3.5274"
       id="path3537" /><path
       style="fill:none;stroke:#00ffff;stroke-width:0.325001"
       d="m -1471.4979,1661.7245 c 0.4866,1.1722 0.9192,1.8087 2.2654,1.9324 1.5343,0.141 2.2132,-1.5172 3.2183,-2.2767 0.8623,-0.6515 1.0168,1.1421 1.0077,1.5389 -0.01,0.2742 -0.045,0.4543 -0.07,0.6956 -0.01,0.075 -0.047,0.2931 -0.016,0.2249 0.3684,-0.8009 0.6801,-2.5193 1.8201,-2.5999 0.1565,-0.011 0.5521,0.028 0.6639,0.2037 0.3272,0.515 0.3506,1.9424 0.3906,1.9676 0.1553,0.098 0.3198,-0.1895 0.4453,-0.3233 0.5373,-0.5728 0.8383,-1.3249 1.1171,-2.0448 0.1728,-0.4463 0.5724,-1.826 0.4061,-1.3772"
       id="path3539" /><path
       style="fill:none;stroke:#00ffff;stroke-width:0.325001"
       d="m -1449.196,1691.8343 c -1.5668,1.9873 -2.446,2.8248 0,4.2582 0.073,0.043 1.4454,0.5745 1.6561,1.1032 0.2708,0.6796 -1.2623,3.0561 -1.5701,1.6162"
       id="path3541" /><path
       style="fill:none;stroke:#00ffff;stroke-width:0.325001"
       d="m -1445.9542,1692.3402 c 0.1823,0.5903 0.3072,1.2014 0.5468,1.7708 0.6063,1.4404 2.6318,2.3986 2.8044,4.0544 0.1001,0.9612 -1.6071,3.0508 -2.6013,2.3821 -0.164,-0.1103 -0.1718,-0.356 -0.2578,-0.534"
       id="path3543" /><path
       style="fill:none;stroke:#00ffff;stroke-width:0.325001"
       d="m -1435.4867,1679.8185 c 0.044,-0.2178 0.3506,-0.6092 0.1328,-0.6535 -0.3025,-0.062 -0.052,1.0556 -0.016,2.0307 0.035,0.9536 -0.4425,3.3905 0.078,4.0264 0.7032,0.8588 3.0007,-0.7651 3.6793,-1.1313"
       id="path3545" /><path
       style="fill:none;stroke:#00ffff;stroke-width:0.325001"
       d="m -1430.8857,1677.4083 c 0.1851,0.8452 0.9222,4.2402 1.0623,4.715 0.1162,0.3934 0.1418,0.9485 0.5156,1.1172 1.4042,0.6339 3.2834,-1.1577 3.8667,-2.1853"
       id="path3547" /><path
       style="fill:none;stroke:#00ffff;stroke-width:0.325001"
       d="m -1413.4035,1676.4597 c 0.9292,0.6971 2.3583,0.8207 3.4137,0.3303 2.0362,-0.9462 -1.287,-3.8268 -2.9372,-1.7357 -0.3064,0.3883 -0.2086,0.9896 -0.4765,1.4054 -0.8499,1.3192 -1.6873,0.8174 -1.4061,2.5929 0.3821,2.4116 3.6082,2.6121 5.4525,2.0026 0.3868,-0.1278 0.7134,-0.3935 1.0702,-0.5902"
       id="path3549" /><path
       style="fill:none;stroke:#00ffff;stroke-width:0.325001"
       d="m -1407.9745,1678.1391 c 0.9575,-0.5392 2.2065,-0.5522 3.0465,-1.314 1.4462,-1.3116 -2.0593,-3.0276 -3.023,-0.773 -0.4597,1.0753 -0.7677,2.2777 -0.6719,3.4432 0.164,1.9945 5.144,0.6466 5.9603,-0.26 0.1737,-0.193 0.2239,-0.4685 0.3359,-0.7027"
       id="path3551" /><path
       style="fill:none;stroke:#00ffff;stroke-width:0.325001"
       d="m -1423.4491,1686.4518 c -0.6458,0.4591 -1.2276,1.025 -1.9373,1.3772 -0.5933,0.2945 -1.2614,0.42 -1.9138,0.5341 -2.9731,0.5197 -6.3287,0.8179 -8.8817,-1.1805 -0.797,-0.6239 -1.6524,-1.234 -2.2185,-2.073 -0.766,-1.135 -1.6021,-2.3726 -1.7029,-3.7382 -0.2518,-3.4107 3.9838,-6.3701 6.8507,-7.09 1.6786,-0.4215 3.9425,-0.686 5.6399,0.035 3.6521,1.5515 5.3615,5.345 4.4994,9.1208 -0.6671,2.9224 -5.423,6.7878 -7.9443,3.3166"
       id="path3553" /><path
       style="fill:none;stroke:#00ffff;stroke-width:0.325001"
       d="m -1410.4664,1685.0113 c -0.6613,-0.014 -1.33,0.057 -1.9841,-0.042 -0.2932,-0.044 -0.562,-0.2089 -0.8046,-0.3794 -2.6577,-1.868 -3.8755,-3.8764 -4.3276,-7.1673 -0.6828,-4.9709 2.1701,-8.0859 6.8898,-8.8046 0.6517,-0.099 1.3453,-0.1203 1.9763,0.07 3.9131,1.1819 4.924,1.9308 7.6241,4.8766 0.5136,0.5603 0.9566,1.2026 1.2655,1.8972 0.708,1.5924 1.5302,3.5323 0.703,5.2911 -1.3389,2.8468 -5.0274,4.611 -8.0928,4.3918 -3.7069,-0.2651 -3.9153,-0.7991 -6.1945,-2.5718"
       id="path3555" /><path
       style="fill:none;stroke:#00ffff;stroke-width:0.325001"
       d="m -1447.6336,1701.988 c 0.01,0.466 0.1972,1.0035 -0.3047,1.307 -2.7502,1.6626 -6.8517,-0.8321 -7.6787,-3.6329 -0.349,-1.182 -0.3924,-2.4426 -0.4062,-3.675 -0.019,-1.7222 3.5914,-5.4156 3.6792,-5.5019 1.322,-1.3005 4.1917,-2.2907 5.9993,-2.0378 1.7547,0.2455 3.4598,0.8889 5.0384,1.6934 1.2948,0.66 2.5752,1.4956 3.4683,2.6421 1.3149,1.6879 2.726,3.5496 3.0075,5.6706 0.2201,1.6589 -0.4989,3.5121 -1.6249,4.7501 -3.9537,4.3474 -6.8164,2.3103 -11.1392,0.098 -1.4459,-0.7399 -1.9189,-1.5968 -2.734,-2.7545"
       id="path3557" /><path
       style="fill:none;stroke:#00ffff;stroke-width:0.325001"
       d="m -1492.1985,1660.9024 c 0.077,0.7747 0.1135,1.2053 0.1485,1.1313 0.3712,-0.7952 -0.1036,-4.4832 -0.1406,-4.8906 -0.2216,-2.4419 -0.1529,-5.212 -1.3046,-7.3852 1.4747,-0.7244 3.051,-0.6371 4.6244,-0.9275 2.7265,-0.5032 3.4252,-0.7988 6.0696,-1.1313 2.8719,-0.3612 5.7972,-0.2175 8.6786,-0.4287 1.8691,-0.1369 3.7064,-0.5482 5.5618,-0.794 3.448,-0.4567 6.9165,-0.6555 10.3581,-1.1875 3.1141,-0.4814 3.457,-0.596 6.4055,-1.3421 2.7154,-0.6872 2.3093,-1.3714 2.3669,1.2086 0.075,3.3543 0.412,6.0465 1.7498,9.1418 0.2623,0.6069 0.5418,1.2062 0.8202,1.8059 0.23,0.4956 0.7267,1.2899 0.539,1.4405 -0.4098,0.3286 -1.6578,0.4151 -1.9607,0.4708 -1.8656,0.3433 -3.7802,0.6314 -5.6165,1.1173 -1.6038,0.4243 -3.1815,0.8812 -4.8119,1.1945 -1.5577,0.2993 -3.1415,0.4522 -4.7104,0.6816 -1.7634,0.2578 -3.5398,0.5772 -5.3196,0.6957 -2.3643,0.1573 -4.7388,0.2715 -7.1085,0.3021 -1.8307,0.024 -3.6707,-0.041 -5.4994,0.056 -2.869,0.1518 -5.7141,0.6081 -8.5536,1.0259 -1.862,0.2741 -3.7475,0.4884 -5.593,0.8643"
       id="path3559" /><path
       style="fill:none;stroke:#00ffff;stroke-width:0.325001"
       d="m -1468.2325,1646.2802 c 3.0918,-1.5746 3.597,-5.0225 3.0152,-8.137 -0.1619,-0.8672 -0.3244,-1.6166 -0.2343,-2.5086 0.041,-0.4087 0.1309,-0.9076 0.125,-0.9064 -0.2529,0.051 -0.3434,0.3854 -0.5,0.5902 -0.4903,0.6413 -0.9527,1.2888 -1.4685,1.9113 -0.2433,0.2937 -0.3887,0.7609 -0.7577,0.8573 -0.3054,0.08 0.3187,-0.5474 0.5155,-0.7941 0.4997,-0.6262 1.0459,-1.214 1.5701,-1.8199 0.2986,-0.3451 0.5923,-0.6945 0.8984,-1.0329 0.035,-0.039 0.075,-0.1168 0.1249,-0.098 0.2038,0.076 0.2166,0.3776 0.3047,0.5762 0.1486,0.335 1.5169,3.9113 2.1326,2.8037"
       id="path3561" /><path
       style="fill:none;stroke:#00ffff;stroke-width:0.325001"
       d="m -1350.5167,1631.1805 c 0,-0.1521 0.093,-0.9111 -0.1328,-1.1664 -0.7271,-0.8208 -2.0965,1.3358 -2.5075,2.9934 -0.1128,0.4547 -0.056,0.9413 0.01,1.4053 0.1777,1.2855 0.8368,2.2562 1.6873,3.1832 0.3823,0.4167 0.5666,0.6124 0.4999,0.6043 -0.1035,-0.013 -0.1927,-0.08 -0.289,-0.1195"
       id="path3563" /><path
       style="fill:none;stroke:#00ffff;stroke-width:0.325001"
       d="m -1353.2586,1636.1836 c -2.4213,-1.6807 0.8942,-1.0227 1.992,-1.3632"
       id="path3565" /><path
       style="fill:none;stroke:#00ffff;stroke-width:0.325001"
       d="m -1350.4933,1632.5297 c 0.5442,0.2693 1.1843,0.3985 1.6326,0.808 0.4287,0.3916 0.6174,0.9845 0.8906,1.4968 0.071,0.133 0.1696,0.573 0.094,0.4426 -0.2045,-0.3511 -0.1865,-0.7921 -0.2422,-1.1945 -0.2324,-1.6811 1.0697,-0.5069 2.3123,-0.6395 0.9314,-0.099 1.4446,-1.0301 0.3749,-1.054 -0.6053,-0.014 -1.3742,1.3902 -0.6952,1.7427 0.2798,0.1453 0.6197,0.1171 0.9296,0.1756"
       id="path3567" /><path
       style="fill:none;stroke:#00ffff;stroke-width:0.325001"
       d="m -1343.8222,1632.4875 c -0.6064,-0.1236 -1.0554,-0.4138 -0.5703,0.8362 0.5484,1.4127 1.6899,0.5557 2.1014,-0.3092 0.3309,-0.6956 -0.4851,-1.8246 -0.4219,-1.0259 0.048,0.6063 0.1285,1.2168 0.3047,1.7988 0.01,0.033 1.3462,2.7963 1.5467,1.7146"
       id="path3569" /><path
       style="fill:none;stroke:#00ffff;stroke-width:0.325001"
       d="m -1340.9632,1631.4686 c 0,-0.2038 0.2116,-0.6087 0.01,-0.6113 -0.2037,0 -0.06,0.4144 -0.01,0.6113 0.1834,0.6877 1.1573,3.233 1.7576,3.401 0.742,0.2076 0.431,-2.4416 0.2187,-3.0145 0.4973,0.094 0.988,0.2356 1.492,0.2811 0.5031,0.045 1.3885,-0.1857 0.9608,-0.8713 -0.2011,-0.3225 -0.6892,0.026 -0.8202,0.1405 -0.8211,0.7206 -0.6424,3.1864 0.7578,2.3118"
       id="path3571" /><path
       style="fill:none;stroke:#00ffff;stroke-width:0.325001"
       d="m -1336.0107,1632.087 c 0.016,-0.4568 0.031,-0.9135 0.047,-1.3703 0,-0.1171 -0.092,-0.4231 0,-0.3513 0.6161,0.4787 0.693,1.997 1.2576,2.5367 0.4072,0.3891 0.7014,-1.9026 0.7812,-1.8129 0.1252,0.1407 -0.043,1.1851 0.2734,1.6442"
       id="path3573" /><path
       style="fill:none;stroke:#00ffff;stroke-width:0.325001"
       d="m -1331.8081,1630.5903 c -2.1516,0.1496 0.6931,3.9019 1.6951,3.1831 0.1614,-0.1158 0.276,-0.2858 0.414,-0.4286"
       id="path3575" /><path
       style="fill:none;stroke:#00ffff;stroke-width:0.325001"
       d="m -1328.91,1629.7119 c -0.018,-0.2928 0.2381,-0.8966 -0.055,-0.8783 -0.2928,0.018 0.099,0.5883 0.055,0.8783 -0.053,0.3457 -0.6559,2.8879 -0.8515,3.7172"
       id="path3577" /><path
       style="fill:none;stroke:#00ffff;stroke-width:0.325001"
       d="m -1330.4254,1631.6654 c -0.8499,-1.2368 0.2381,-1.0503 0.9139,-0.78"
       id="path3579" /><path
       style="fill:none;stroke:#00ffff;stroke-width:0.325001"
       d="m -1321.989,1628.9952 c -0.2447,-0.063 -0.4978,-0.2792 -0.7343,-0.1897 -1.3311,0.5038 -1.5802,3.3384 0.953,2.1572 0.2438,-0.1137 1.0385,-0.6311 1.1796,-1.047 0.085,-0.2516 0.1386,-0.8197 -0.125,-0.787 -0.3534,0.044 -0.3385,0.4363 -0.2812,0.6816 0.1939,0.8299 1.0621,1.3279 1.742,1.7005"
       id="path3581" /><path
       style="fill:none;stroke:#00ffff;stroke-width:0.325001"
       d="m -1318.0207,1628.4401 c 0,-0.1645 0.02,-1.6834 -0.125,-1.9605 -0.075,-0.143 -0.088,0.3168 -0.078,0.4778 0.032,0.4978 0.1572,0.986 0.2031,1.4827 0.034,0.372 0.058,2.2717 0.062,2.5366"
       id="path3583" /><path
       style="fill:none;stroke:#00ffff;stroke-width:0.325001"
       d="m -1318.9581,1629.4941 c -1.0404,-1.5245 -0.2274,-1.0145 1.7185,-1.2789 0.3125,-0.043 0.6198,-0.1171 0.9296,-0.1757"
       id="path3585" /><path
       style="fill:none;stroke:#00ffff;stroke-width:0.325001"
       d="m -1314.9586,1626.1212 c 0.5175,-3.0214 0,-0.028 0,0 0.09,0.8553 0.9921,2.4301 0.4297,3.394"
       id="path3587" /><path
       style="fill:none;stroke:#00ffff;stroke-width:0.325001"
       d="m -1315.4976,1628.1239 c 2.1289,-0.7628 1.2211,-0.4638 2.7106,-0.9346"
       id="path3589" /><path
       style="fill:none;stroke:#00ffff;stroke-width:0.325001"
       d="m -1311.8652,1626.2477 c -0.2968,0.1007 -0.6443,0.1082 -0.8905,0.3022 -0.4844,0.3816 -0.1883,1.315 0.1562,1.6372 0.5574,0.5215 1.678,-0.4976 1.9763,-0.8221 0.3844,-0.4181 0.5938,-0.9161 0.539,-0.9627 -0.1846,-0.1569 -1.2983,1.7989 -0.7968,2.4102 0.2902,0.3536 0.8906,-0.2537 1.2811,-0.4919"
       id="path3591" /><path
       style="fill:none;stroke:#00ffff;stroke-width:0.325001"
       d="m -1308.4047,1625.6223 c -1.6445,-1.0868 -1.6629,1.1375 -0.8827,2.0167 0.3153,0.3553 0.677,0.6671 1.0311,0.9837 0.078,0.07 0.5558,0.4079 0.6874,0.2952 0.2292,-0.1964 0.2812,-0.534 0.4219,-0.8011"
       id="path3593" /><path
       style="fill:none;stroke:#00ffff;stroke-width:0.325001"
       d="m -1306.1628,1623.451 c -0.2951,0.9917 -0.6334,2.433 -0.01,3.4361 0.094,0.1508 0.3177,0.1593 0.4766,0.239"
       id="path3595" /><path
       style="fill:none;stroke:#00ffff;stroke-width:0.325001"
       d="m -1303.6085,1625.1726 c -0.3931,0.1031 -0.8065,0.1478 -1.1795,0.3092 -1.9643,0.85 -1.0277,2.605 0.7265,2.4523"
       id="path3597" /><path
       style="fill:none;stroke:#00ffff;stroke-width:0.325001"
       d="m -1352.5868,1641.6996 c -0.4531,-0.017 -1.5515,0.035 -1.9138,-0.3724 -0.3223,-0.3624 0.7079,-1.0456 0.7499,-1.0681 1.8597,-0.9918 3.1885,-1.4101 5.2962,-1.8902 5.9771,-1.3614 12.0745,-2.1242 18.0916,-3.2745 5.3297,-1.0188 10.6997,-2.0956 15.9824,-3.3658 3.5508,-0.8538 7.0823,-1.7724 10.6627,-2.4945 1.1769,-0.2374 2.3662,-0.4811 3.5621,-0.6043 0.4403,-0.045 0.9922,0.103 1.4217,0 0.1985,-0.048 0.046,-0.4073 0.039,-0.6113 -0.1223,-3.5544 -0.1079,-1.9432 0.2265,-6.4506 0.073,-0.9852 0.4798,-5.0867 -0.5546,-5.6496 -0.2648,-0.1441 -2.4355,1.8003 -2.9293,2.0659 -1.4048,0.7555 -5.4199,1.3443 -6.632,1.574 -7.6735,1.454 -15.4415,2.406 -23.1612,3.5696 -3.5485,0.5349 -7.066,1.2511 -10.6158,1.7778 -3.632,0.5388 -7.2888,0.8748 -10.9206,1.3983 -0.9311,0.1343 -1.2454,0.2142 -2.0778,0.2881 -0.4604,0.041 -1.5945,-0.063 -2.0857,0.1335 -0.095,0.038 0.064,0.6204 0.094,1.0821 0.1079,1.685 0.1052,3.3565 0.289,5.0383 0.2005,1.8343 0.44,3.712 0.789,5.523 0.1289,0.669 0.4111,1.2873 0.5312,1.9535 0.089,0.4958 -0.3486,2.274 -0.1328,2.5085 0.1381,0.1501 0.6427,-1.1724 0.7577,-1.2789 1.6509,-1.5287 3.8993,-2.0971 5.804,-3.2393"
       id="path3599" /></g></svg>
