<?xml version="1.0" encoding="UTF-8" standalone="no"?>
<!-- Created with Inkscape (http://www.inkscape.org/) -->

<svg
   width="5389.7139mm"
   height="1873.4951mm"
   viewBox="0 0 5389.7137 1873.4952"
   version="1.1"
   id="svg12"
   inkscape:version="1.2.1 (9c6d41e410, 2022-07-14, custom)"
   sodipodi:docname="smaple_graph_expand.svg"
   xml:space="preserve"
   xmlns:inkscape="http://www.inkscape.org/namespaces/inkscape"
   xmlns:sodipodi="http://sodipodi.sourceforge.net/DTD/sodipodi-0.dtd"
   xmlns="http://www.w3.org/2000/svg"
   xmlns:svg="http://www.w3.org/2000/svg"><sodipodi:namedview
     id="namedview14"
     pagecolor="#505050"
     bordercolor="#eeeeee"
     borderopacity="1"
     inkscape:showpageshadow="0"
     inkscape:pageopacity="0"
     inkscape:pagecheckerboard="0"
     inkscape:deskcolor="#505050"
     inkscape:document-units="mm"
     showgrid="true"
     inkscape:zoom="0.041336587"
     inkscape:cx="10305.64"
     inkscape:cy="4257.7294"
     inkscape:window-width="1366"
     inkscape:window-height="746"
     inkscape:window-x="0"
     inkscape:window-y="0"
     inkscape:window-maximized="1"
     inkscape:current-layer="layer1"
     inkscape:lockguides="false"><inkscape:grid
       type="xygrid"
       id="grid344"
       color="#969696"
       opacity="0.39215686"
       empcolor="#000000"
       empopacity="0.17254902"
       dotted="false"
       originx="-4478.7596"
       originy="-35187.121" /></sodipodi:namedview><defs
     id="defs9" /><g
     inkscape:label="Layer 1"
     inkscape:groupmode="layer"
     id="layer1"
     transform="translate(-4583.7603,-35335.615)"><path
       style="fill:none;stroke:#ffffff;stroke-width:10.7"
       d="m 4758.5112,35547.293 c -11.2746,-16.014 -27.5887,-27.105 -39.2403,-42.729 -16.6268,-22.297 -40.8102,-83.576 -56.1068,-94.129 -9.2844,-6.405 -1.495,23.222 -6.8842,33.131 -6.833,12.563 -50.174,58.211 -65.4006,58.211 -15.6411,0 81.0754,-93.594 72.2848,-91.342 1.1388,35.283 -0.9623,70.914 1.0326,106.204 5.0345,89.063 12.3918,177.17 12.3918,266.595 0,113.493 -9.3657,226.849 -7.2285,340.287 1.6438,87.25 6.1812,174.678 1.721,261.95 -3.3701,65.944 -15.0054,131.406 -20.3085,197.237 -5.5052,68.338 -4.9146,138.727 -1.3769,207.144 1.3814,26.716 -2.5519,53.627 -1.0326,80.505 1.6383,28.984 8.1946,57.442 9.9822,86.388 0.9802,15.873 -4.7374,43.878 0.6884,58.521 0.2888,0.779 3.7392,-7.122 5.1631,-7.122 0.4333,0 1.9257,16.823 2.0654,18.269 0.7213,7.459 -6.6274,39.554 -1.721,43.968 0.6376,0.573 8.3266,-3.423 8.9494,-3.716 11.0222,-5.194 78.2666,-11.838 90.184,-11.147 48.93,2.84 104.148,37.099 145.6021,35.608 19.5854,-0.705 37.3574,-14.649 56.451,-13.934 59.4473,2.228 132.7626,-7.558 191.727,-17.958 24.5626,-4.333 50.6376,-19.521 75.0383,-20.436 26.5668,-0.997 51.2665,8.839 77.4482,11.456 33.7735,3.376 67.9935,0.02 101.5429,4.335 55.288,7.105 109.4819,22.387 164.8781,29.106 114.4979,13.887 225.2588,-7.337 338.7061,-16.721 42.4804,-3.513 88.691,-11.534 131.1451,-10.217 135.0208,4.188 255.1924,16.986 389.994,-5.574 6.9266,-1.159 149.6376,-24.566 152.1422,-26.319 3.2893,-2.301 -1.6344,-10.236 -2.4096,-11.456 -17.0446,-26.832 -85.6548,-42.842 -25.1274,-57.902 5.1462,-1.28 10.6031,-2.422 15.8338,-1.548 49.5152,8.272 -83.8631,194.979 -35.7981,160.39"
       id="path1481" /><path
       style="fill:none;stroke:#ffffff;stroke-width:10.7"
       d="m 4662.1314,37049.945 c 13.4243,-6.606 26.2614,-14.571 40.273,-19.817 27.4133,-10.264 61.8038,-5.037 90.5281,-10.837 82.6619,-16.693 163.5702,-23.564 244.7358,-49.232 238.8691,-75.54 463.4095,-192.743 656.0706,-353.601 75.845,-63.326 146.0128,-134.095 216.166,-203.429 97.5155,-96.379 200.9327,-191.475 280.5339,-303.751 54.6213,-77.042 92.8441,-159.092 129.0798,-245.539 22.3548,-53.332 48.5355,-104.726 67.4661,-159.462 29.4838,-85.248 45.0134,-163.996 63.3351,-251.112 3.7635,-17.895 23.022,-68.885 14.457,-85.15 -5.4684,-10.384 -121.0115,99.94 -139.0621,115.494 -38.4301,33.114 113.1802,-100.25 115.3115,-102.179 0.4366,-0.396 26.6182,-23.923 28.5695,-23.533 2.6411,0.528 0.4638,5.367 0.6884,8.051 2.0176,24.111 1.5154,34.876 13.0803,60.688 18.3639,40.986 59.8965,73.437 62.6468,120.448"
       id="path1483" /><path
       style="fill:none;stroke:#00ffff;stroke-width:10.7"
       d="m 4669.0158,37095.151 c 0.5737,-8.979 -2.816,-19.168 1.721,-26.938 5.6217,-9.628 61.3142,-8.928 70.9081,-9.599 38.5155,-2.691 75.3587,2.97 113.5902,4.335 91.0098,3.249 183.2179,0.328 274.3381,1.239 73.6238,0.736 148.2425,-10.539 221.6735,-7.122 68.7418,3.199 135.4721,15.834 204.8069,11.766 44.91,-2.634 88.3288,-15.072 133.2106,-17.649 48.5402,-2.787 98.7351,5.956 146.9791,8.67 2.8053,0.158 33.3769,2.348 33.7328,1.548 4.2681,-9.598 -102.7818,-98.114 -105.6734,-103.727 -5.9984,-11.644 26.6607,0.899 38.8961,5.573 10.4497,3.992 64.3138,21.708 82.2669,40.872 41.1995,43.978 -44.5068,118.885 -66.4331,143.051 -7.2229,7.96 -14.8898,15.507 -22.374,23.222 -3.367,3.471 -13.0591,14.258 -9.9821,10.528 3.2259,-3.912 6.4253,-7.844 9.638,-11.767"
       id="path1497" /><path
       style="fill:none;stroke:#00ffff;stroke-width:10.7"
       d="m 5909.2166,36985.85 c -7.0259,-133.326 -9.2181,-268.536 -3.4422,-401.904 1.4506,-33.495 8.842,-66.147 10.6705,-99.702 0.6417,-11.775 2.0892,-23.885 1.0327,-35.608 -0.3257,-3.614 0.4925,-14.129 -1.0327,-10.837 -18.8652,40.728 -12.3567,105.082 -12.7358,146.457 -0.9709,105.955 8.1527,211.413 4.8189,317.374 -1.5898,50.532 -0.5231,100.847 -2.4094,151.411 -0.01,0.239 -1.7786,55.054 3.4421,32.511 -84.2825,-19.379 23.544,-76.596 -0.3441,-99.702 -19.1681,-18.54 -51.3472,-14.776 -76.0713,-24.77 -11.7185,-4.737 -21.5607,-13.225 -32.7003,-19.197 -4.3148,-2.314 -29.6401,-13.208 -35.4539,-15.482 -2.4734,-0.968 -10.2171,-2.231 -7.5727,-2.477 30.145,-2.805 129.4556,5.075 150.0771,6.812 8.4134,0.709 32.5773,8.517 27.1929,24.461 -4.2509,12.586 -20.0966,18.504 -25.4718,30.653 -8.6094,19.459 -6.3436,42.715 -15.4896,61.927 -5.0273,10.561 -78.3071,111.164 -86.7418,123.854 -6.7302,10.124 -29.5045,36.165 -18.2434,31.582 15.3538,-6.248 21.8002,-24.977 32.7003,-37.465"
       id="path1499" /><path
       style="fill:none;stroke:#ffffff;stroke-width:10.7"
       d="m 7203.744,35530.511 c -11.2746,-16.014 -27.5887,-27.105 -39.2403,-42.729 -16.6268,-22.297 -40.8102,-83.576 -56.1068,-94.129 -9.2844,-6.405 -1.495,23.222 -6.8842,33.131 -6.833,12.563 -50.174,58.211 -65.4006,58.211 -15.6411,0 81.0754,-93.594 72.2848,-91.342 1.1388,35.283 -0.9623,70.914 1.0326,106.204 5.0345,89.063 12.3918,177.17 12.3918,266.595 0,113.493 -9.3657,226.849 -7.2285,340.287 1.6438,87.25 6.1812,174.678 1.721,261.95 -3.3701,65.944 -15.0054,131.406 -20.3085,197.237 -5.5052,68.338 -4.9146,138.727 -1.3769,207.144 1.3814,26.716 -2.5519,53.627 -1.0326,80.505 1.6383,28.984 8.1946,57.442 9.9822,86.388 0.9802,15.873 -4.7374,43.878 0.6884,58.521 0.2888,0.779 3.7392,-7.122 5.1631,-7.122 0.4333,0 1.9257,16.823 2.0654,18.269 0.7213,7.459 -6.6274,39.554 -1.721,43.968 0.6376,0.573 8.3266,-3.423 8.9494,-3.716 11.0222,-5.194 78.2666,-11.838 90.184,-11.147 48.93,2.84 104.148,37.099 145.6021,35.608 19.5854,-0.705 37.3574,-14.649 56.451,-13.934 59.4473,2.228 132.7626,-7.558 191.727,-17.958 24.5626,-4.333 50.6376,-19.521 75.0383,-20.436 26.5668,-0.997 51.2665,8.839 77.4482,11.456 33.7735,3.376 67.9935,0.02 101.5429,4.335 55.288,7.105 109.4819,22.387 164.8781,29.106 114.4979,13.887 225.2588,-7.337 338.7061,-16.721 42.4804,-3.513 88.691,-11.534 131.1451,-10.217 135.0208,4.188 255.1924,16.986 389.994,-5.574 6.9266,-1.159 149.6376,-24.566 152.1422,-26.319 3.2893,-2.301 -1.6344,-10.236 -2.4096,-11.456 -17.0446,-26.832 -85.6548,-42.842 -25.1274,-57.902 5.1462,-1.28 10.6031,-2.422 15.8338,-1.548 49.5152,8.272 -83.8631,194.979 -35.7981,160.39"
       id="path1481-3" /><path
       style="fill:none;stroke:#ffffff;stroke-width:10.7"
       d="m 7106.2835,37033.163 c 20.3933,-6.606 39.8945,-14.571 61.18,-19.817 41.6444,-10.264 93.8881,-5.037 137.5241,-10.837 125.5743,-16.693 248.4847,-23.564 371.7859,-49.232 362.8737,-75.54 703.9801,-192.743 996.6577,-353.601 115.2186,-63.326 221.8127,-134.095 328.3847,-203.429 148.1389,-96.379 305.2432,-191.475 426.1679,-303.751 82.977,-77.042 141.0425,-159.092 196.0893,-245.539 33.9599,-53.332 73.7318,-104.726 102.4899,-159.462 44.7897,-85.248 68.3813,-163.996 96.2143,-251.112 5.7173,-17.895 34.9735,-68.885 21.9621,-85.15 -8.3072,-10.384 -183.8324,99.94 -211.2536,115.494 -58.3804,33.114 171.9356,-100.25 175.1733,-102.179 0.6633,-0.396 40.4366,-23.923 43.4009,-23.533 4.0121,0.528 0.7045,5.367 1.0457,8.051 3.065,24.111 2.3021,34.876 19.8707,60.688 27.8972,40.986 90.9907,73.437 95.1688,120.448"
       id="path1483-5" /><path
       style="fill:none;stroke:#00ffff;stroke-width:10.7"
       d="m 7114.2486,37078.369 c 0.5737,-8.979 -2.816,-19.168 1.721,-26.938 5.6217,-9.628 61.3142,-8.928 70.9081,-9.599 38.5155,-2.691 75.3587,2.97 113.5902,4.335 91.0098,3.249 183.2179,0.328 274.3381,1.239 73.6238,0.736 148.2425,-10.539 221.6735,-7.122 68.7418,3.199 135.4721,15.834 204.8069,11.766 44.91,-2.634 88.3288,-15.072 133.2106,-17.649 48.5402,-2.787 98.7351,5.956 146.9791,8.67 2.8053,0.158 33.3769,2.348 33.7328,1.548 4.2681,-9.598 -102.7818,-98.114 -105.6734,-103.727 -5.9984,-11.644 26.6607,0.899 38.8961,5.573 10.4497,3.992 64.3138,21.708 82.2669,40.872 41.1995,43.978 -44.5068,118.885 -66.4331,143.051 -7.2229,7.96 -14.8898,15.507 -22.374,23.222 -3.367,3.471 -13.0591,14.258 -9.9821,10.528 3.2259,-3.912 6.4253,-7.844 9.638,-11.767"
       id="path1497-6" /><path
       style="fill:none;stroke:#00ffff;stroke-width:10.7"
       d="m 8306.6957,37019.336 c -1.3065,-50.507 -15.4231,-100.788 -3.7862,-151.101 4.8929,-21.155 13.5186,-41.553 14.8013,-63.475 0.6223,-10.637 -0.5689,-21.628 -1.7214,-32.202 -0.553,-5.074 0.048,-19.818 -2.0651,-15.172 -21.0285,46.238 -17.89,166.44 -8.9495,217.363"
       id="path1661" /></g></svg>
