<?xml version="1.0" encoding="UTF-8" standalone="no"?>
<!-- Created with Inkscape (http://www.inkscape.org/) -->

<svg
   width="4676.7417mm"
   height="3641.1919mm"
   viewBox="0 0 4676.7416 3641.192"
   version="1.1"
   id="svg12"
   inkscape:version="1.2.1 (9c6d41e410, 2022-07-14, custom)"
   sodipodi:docname="splaying_case_1.svg"
   xml:space="preserve"
   xmlns:inkscape="http://www.inkscape.org/namespaces/inkscape"
   xmlns:sodipodi="http://sodipodi.sourceforge.net/DTD/sodipodi-0.dtd"
   xmlns="http://www.w3.org/2000/svg"
   xmlns:svg="http://www.w3.org/2000/svg"><sodipodi:namedview
     id="namedview14"
     pagecolor="#505050"
     bordercolor="#eeeeee"
     borderopacity="1"
     inkscape:showpageshadow="0"
     inkscape:pageopacity="0"
     inkscape:pagecheckerboard="0"
     inkscape:deskcolor="#505050"
     inkscape:document-units="mm"
     showgrid="true"
     inkscape:zoom="0.02"
     inkscape:cx="9550"
     inkscape:cy="9600"
     inkscape:window-width="1366"
     inkscape:window-height="746"
     inkscape:window-x="1360"
     inkscape:window-y="0"
     inkscape:window-maximized="1"
     inkscape:current-layer="layer1"
     inkscape:lockguides="true"><inkscape:grid
       type="xygrid"
       id="grid344"
       color="#969696"
       opacity="0.39215686"
       empcolor="#000000"
       empopacity="0.17254902"
       dotted="false"
       originx="-7631.2198"
       originy="-43981.865" /></sodipodi:namedview><defs
     id="defs9" /><g
     inkscape:label="Layer 1"
     inkscape:groupmode="layer"
     id="layer1"
     transform="translate(-7736.2203,-44130.365)"><path
       style="fill:none;stroke:#ffffff;stroke-width:10.7"
       d="m 9155.9738,45861.745 c -20.7122,114.589 -21.6205,73.504 -2.839,207.349 4.3225,30.803 30.8464,160.568 36.9131,188.788 4.8768,22.686 34.1685,81.772 15.6175,67.834 -19.6577,-14.769 -17.3302,-46.58 -19.876,-71.035 -8.0111,-76.96 -7.4065,-194.837 18.4565,-271.341 27.9226,-82.598 118.2315,-273.132 248.4538,-217.588 257.1861,109.696 -154.3656,355.388 -237.0963,414.054 -17.1595,12.168 41.433,8.959 62.4689,8.959 108.3853,0 279.4622,-30.004 371.9701,37.759"
       id="path327" /><path
       style="fill:none;stroke:#ffffff;stroke-width:10.7"
       d="m 9319.2439,45532.167 c 58.6822,-23.892 120.2245,-41.703 176.0469,-71.675 112.9842,-60.661 429.86,-294.461 508.2652,-405.093 11.845,-16.717 -37.1921,17.65 -53.9484,29.437 -39.1152,27.511 -77.5936,55.917 -116.4191,83.833 -112.7336,81.063 -192.1351,136.557 -306.6624,225.907 -37.8632,29.538 -70.7292,65.595 -110.7395,92.154 -29.6328,19.669 -118.2256,73.631 -96.5427,45.437 33.1055,-43.045 89.3836,-61.709 133.4558,-93.435 48.8006,-35.129 244.6007,-208.796 356.3528,-232.304"
       id="path329" /><path
       style="fill:none;stroke:#ffffff;stroke-width:10.7"
       d="m 10318.739,44640.064 c -38.807,-1.281 -78.592,4.916 -116.419,-3.839 -17.062,-3.951 -31.498,-18.04 -41.172,-32.639 -60.494,-91.29 -4.49,-205.039 55.37,-278.382 137.931,-169 727.385,-239.231 834.803,-0.64 20.591,45.733 25.317,97.385 31.236,147.19 4.133,34.782 -7.176,83.767 -21.298,116.472 -96.655,223.864 -430.996,137.039 -603.386,88.316 -46.138,-13.042 -96.566,-14.417 -139.134,-36.478 -38.657,-20.035 -65.224,-57.693 -97.963,-86.395 -50.667,-44.421 -109.324,-88.752 -99.382,-165.751 31.166,-241.363 431.72,-264.054 607.648,-248.303 220.205,19.714 417.411,17.695 384.747,273.264 -13.902,108.762 -47.047,175.519 -137.715,252.783 -122.28,104.204 -500.178,112.567 -637.459,65.275 -54.918,-18.917 -105.869,-51.411 -149.072,-90.233 -149.868,-134.676 -98.668,-347.517 73.826,-421.733"
       id="path331" /><path
       style="fill:none;stroke:#ffffff;stroke-width:10.7"
       d="m 10987.433,44773.175 c 22.243,13.013 45.836,23.951 66.727,39.037 145.822,105.296 274.257,245.634 403.206,369.898 9.404,9.062 77.366,84.302 53.95,26.236"
       id="path333" /><path
       style="fill:none;stroke:#ffffff;stroke-width:10.7"
       d="m 11559.588,45481.611 c -79.137,155.336 -160.782,301.103 -275.429,433.252 -4.995,5.757 -55.769,83.656 -79.507,72.956 -12.805,-5.773 27.21,-7.442 41.173,-8.961 68.825,-7.475 166.614,-16.285 231.417,-18.558 248.728,-8.726 494.487,3.604 742.522,23.678 46.507,3.765 92.767,10.136 139.133,15.359 15.995,1.804 43.8,14.184 48.272,-1.278 11.978,-41.418 -236.899,-144.455 -245.615,-150.392 -85.353,-58.15 -165.157,-124.225 -244.194,-190.706 -97.331,-81.873 -176.173,-172.014 -288.205,-236.787"
       id="path335" /><path
       style="fill:none;stroke:#ffffff;stroke-width:10.7"
       d="m 9137.5172,46603.46 c -140.5771,112.038 -290.0085,211.127 -438.6974,311.66 -41.51,28.067 -91.9716,49.488 -119.2578,91.514 -1.3742,2.117 23.2646,-2.725 26.9751,-3.839"
       id="path337" /><path
       style="fill:none;stroke:#ffffff;stroke-width:10.7"
       d="m 8363.7628,47221.661 c 107.3449,85.754 194.8807,201.502 282.5264,308.46 20.9015,25.508 83.1635,101.555 58.2101,79.996 -46.8775,-40.505 -80.5775,-94.218 -123.5178,-138.872 -49.1413,-51.104 -111.0988,-90.045 -154.7516,-145.912 -24.842,-31.79 -22.91,-95.731 -62.4671,-103.672 -36.0299,-7.233 -159.3638,100.632 -193.0841,125.431 -133.4244,98.126 -276.7836,191.765 -427.3415,261.104 -9.1247,4.202 17.6,-9.829 26.975,-13.438 55.0215,-21.185 114.036,-34.763 173.2082,-35.838 198.9812,-3.611 389.7331,31.983 583.5107,74.235 41.4012,9.027 85.751,33.514 129.1961,30.718"
       id="path339" /><path
       style="fill:none;stroke:#ffffff;stroke-width:10.7"
       d="m 9606.0303,46743.61 c 133.7651,124.089 279.6534,234.86 414.5627,357.737 23.092,21.032 42.999,45.337 65.308,67.197 1.747,1.711 28.394,23.698 28.394,26.879 0,11.017 -21.649,-4.57 -32.653,-5.12"
       id="path341" /><path
       style="fill:none;stroke:#ffffff;stroke-width:10.7"
       d="m 10169.665,47429.648 c 74.17,-164.449 1.549,-1.614 0,0 -93.402,97.361 -235.8255,188.023 -352.094,259.183 -18.9733,11.612 -38.7252,21.905 -58.2086,32.639 -15.4115,8.49 -64.3152,26.463 -46.8514,24.318 247.5852,-30.433 502.008,-35.261 751.04,-22.4 53.206,2.749 105.595,11.298 157.59,22.4 15.418,3.291 41.457,11.641 58.21,15.999 5.634,1.466 22.48,5.906 17.037,3.839 -132.785,-50.406 -441.947,-175.755 -528.143,-277.744"
       id="path343" /></g></svg>
