<?xml version="1.0" encoding="UTF-8" standalone="no"?>
<!-- Created with Inkscape (http://www.inkscape.org/) -->

<svg
   width="7607.8472mm"
   height="2727.8491mm"
   viewBox="0 0 7607.847 2727.8492"
   version="1.1"
   id="svg12"
   inkscape:version="1.2.1 (9c6d41e410, 2022-07-14, custom)"
   sodipodi:docname="splaying_case_2.svg"
   xml:space="preserve"
   xmlns:inkscape="http://www.inkscape.org/namespaces/inkscape"
   xmlns:sodipodi="http://sodipodi.sourceforge.net/DTD/sodipodi-0.dtd"
   xmlns="http://www.w3.org/2000/svg"
   xmlns:svg="http://www.w3.org/2000/svg"><sodipodi:namedview
     id="namedview14"
     pagecolor="#505050"
     bordercolor="#eeeeee"
     borderopacity="1"
     inkscape:showpageshadow="0"
     inkscape:pageopacity="0"
     inkscape:pagecheckerboard="0"
     inkscape:deskcolor="#505050"
     inkscape:document-units="mm"
     showgrid="true"
     inkscape:zoom="0.02"
     inkscape:cx="6500"
     inkscape:cy="9250"
     inkscape:window-width="1366"
     inkscape:window-height="746"
     inkscape:window-x="1360"
     inkscape:window-y="0"
     inkscape:window-maximized="1"
     inkscape:current-layer="layer1"
     inkscape:lockguides="true"><inkscape:grid
       type="xygrid"
       id="grid344"
       color="#969696"
       opacity="0.39215686"
       empcolor="#000000"
       empopacity="0.17254902"
       dotted="false"
       originx="-8439.3706"
       originy="-44075.307" /></sodipodi:namedview><defs
     id="defs9" /><g
     inkscape:label="Layer 1"
     inkscape:groupmode="layer"
     id="layer1"
     transform="translate(-8544.3714,-44223.804)"><path
       style="fill:none;stroke:#ffffff;stroke-width:10.7"
       d="m 11761.323,44545.019 c -13.25,18.559 -30.931,34.648 -39.752,55.676 -0.874,2.086 -43.682,175.506 -45.43,183.669 -5.582,26.07 -9.251,52.516 -14.198,78.715 -0.734,3.886 -2.987,15.471 -2.839,11.519 5.753,-153.027 62.656,-320.521 180.306,-425.573 45.119,-40.288 240.571,-102.413 238.516,9.599 -1.404,76.458 -223.658,194.551 -283.946,150.391 -19.321,-14.152 -21.771,-42.664 -32.657,-63.996 z"
       id="path379" /><path
       style="fill:none;stroke:#ffffff;stroke-width:10.7"
       d="m 11410.65,45017.949 c -119.809,115.606 -268.465,184.436 -413.143,261.743 -38.705,20.682 -88.622,50.535 -92.284,46.078 -5.938,-7.226 6.625,-17.493 9.938,-26.239"
       id="path381" /><path
       style="fill:none;stroke:#ffffff;stroke-width:10.7"
       d="m 10462.267,45460.801 c -28.395,-1.067 -58.552,-13.102 -85.186,-3.2 -35.165,13.074 -230.319,139.42 -203.022,206.067 40.407,98.658 393.78,46.142 464.255,4.48 138.195,-81.696 -12.833,-250.912 -92.285,-303.981 -24.892,-16.627 -96.476,-62.226 -82.343,-35.838 17.317,32.333 84.052,69.395 107.901,86.395"
       id="path383" /><path
       style="fill:none;stroke:#ffffff;stroke-width:10.7"
       d="m 10670.967,45606.712 c 64.529,172.325 320.234,86.504 427.341,196.468"
       id="path385" /><path
       style="fill:none;stroke:#ffffff;stroke-width:10.7"
       d="m 9980.975,45938.211 c -8.518,20.265 -12.6913,42.969 -25.5539,60.796 -110.5762,153.25 -519.583,379.157 -680.0538,410.854 -20.2767,4.005 -1.8693,-20.187 18.4565,-51.197"
       id="path387" /><path
       style="fill:none;stroke:#ffffff;stroke-width:10.7"
       d="m 8680.4973,46603.129 c 62.3931,77.191 139.3558,242.483 36.9131,330.219 -28.5103,24.417 -73.2329,11.428 -95.1218,-14.719 -106.1645,-126.815 -114.7197,-440.418 103.6403,-455.651 81.6152,-5.694 179.098,37.314 163.2701,135.671 -7.7108,47.916 -39.9297,96.039 -75.2457,127.352 -23.3764,20.727 -52.4271,34.014 -78.0864,51.837 -3.2598,2.264 -12.1964,6.827 -8.5185,8.319 52.1991,21.177 112.6378,-2.368 168.9497,-3.839 99.8669,-2.61 240.4338,-4.205 337.896,17.278 102.8452,22.67 105.5789,56.942 42.5927,106.874"
       id="path389" /><path
       style="fill:none;stroke:#ffffff;stroke-width:10.7"
       d="m 12773.597,44296.714 c 39.664,173.236 141.897,354.509 100.801,535.647 -4.359,19.213 -8.913,48.909 -28.396,51.836 -16.997,2.554 -23.533,-83.503 -35.492,-151.03 -13.515,-76.31 -39.116,-151.292 -39.755,-229.746 -0.217,-26.657 9.575,-52.699 9.941,-79.355 0.584,-42.512 -28.128,-90.4 -7.099,-127.352 15.333,-26.944 61.725,-9.254 90.863,-19.838 20.239,-7.352 35.4,-25.219 55.368,-33.278 77.332,-31.211 169.309,-10.307 229.999,48.637 158.774,154.204 -196.09,252.345 -298.147,224.625 -30.288,-8.226 -39.8,-44.341 2.842,-53.116 33.384,-6.87 68.146,1.706 102.22,2.56"
       id="path391" /><path
       style="fill:none;stroke:#ffffff;stroke-width:10.7"
       d="m 13223.653,44827.241 c 162.715,93.623 345.356,167.238 481.289,300.781 26.937,26.464 34.351,44.926 -1.418,51.837"
       id="path393" /><path
       style="fill:none;stroke:#ffffff;stroke-width:10.7"
       d="m 14314.01,45426.883 c -52.53,-8.533 -104.689,-31.396 -157.591,-25.598 -136.121,14.917 -281.353,129.321 -244.196,152.31 80.151,49.59 504.315,-65.508 489.808,-143.991 -11.335,-61.323 -129.41,-62.549 -173.206,-60.156 -10.759,0.588 -34.638,-1.904 -31.236,8.319 4.564,13.71 27.331,9.903 39.756,17.279 26.526,15.748 51.11,34.558 76.665,51.837 z"
       id="path395" /><path
       style="fill:none;stroke:#ffffff;stroke-width:10.7"
       d="m 14481.538,45531.836 c 115.324,112.601 281.607,166.632 380.488,296.302"
       id="path397" /><path
       style="fill:none;stroke:#ffffff;stroke-width:10.7"
       d="m 14985.545,46120.599 c -17.983,-12.799 -41.151,-56.381 -53.95,-38.397 -12.799,17.983 39.35,21.843 53.95,38.397 31.861,36.127 51.622,81.877 83.764,117.753 51.096,57.032 130.797,119.756 201.603,151.67"
       id="path399" /><path
       style="fill:none;stroke:#ffffff;stroke-width:10.7"
       d="m 15512.267,46502.015 c 29.322,41.115 216.22,405.263 174.627,413.414 -10.613,2.08 -25.709,-2.793 -29.814,-12.799 -52.253,-127.379 -52.318,-176.75 -4.26,-302.701 15.587,-40.849 37.83,-79.446 63.889,-114.553 16.624,-22.397 38.384,-41.604 62.467,-55.676 22.807,-13.327 122.845,-23 120.677,30.078 -4.191,102.619 -151.296,186.144 -200.182,227.825 -27.425,23.384 -84.659,58.185 -80.925,69.756 10.045,31.125 311.612,44.808 319.441,46.077 49.084,7.957 311.22,27.979 164.69,134.392 -4.851,3.522 -11.358,3.84 -17.037,5.759"
       id="path401" /></g></svg>
