<?xml version="1.0" encoding="UTF-8" standalone="no"?>
<!-- Created with Inkscape (http://www.inkscape.org/) -->

<svg
   width="5832.1309mm"
   height="2239.627mm"
   viewBox="0 0 5832.1307 2239.627"
   version="1.1"
   id="svg12"
   inkscape:version="1.2.1 (9c6d41e410, 2022-07-14, custom)"
   sodipodi:docname="splaying_case_3.svg"
   xml:space="preserve"
   xmlns:inkscape="http://www.inkscape.org/namespaces/inkscape"
   xmlns:sodipodi="http://sodipodi.sourceforge.net/DTD/sodipodi-0.dtd"
   xmlns="http://www.w3.org/2000/svg"
   xmlns:svg="http://www.w3.org/2000/svg"><sodipodi:namedview
     id="namedview14"
     pagecolor="#505050"
     bordercolor="#eeeeee"
     borderopacity="1"
     inkscape:showpageshadow="0"
     inkscape:pageopacity="0"
     inkscape:pagecheckerboard="0"
     inkscape:deskcolor="#505050"
     inkscape:document-units="mm"
     showgrid="true"
     inkscape:zoom="0.02"
     inkscape:cx="4400"
     inkscape:cy="8700"
     inkscape:window-width="1366"
     inkscape:window-height="746"
     inkscape:window-x="1360"
     inkscape:window-y="0"
     inkscape:window-maximized="1"
     inkscape:current-layer="layer1"
     inkscape:lockguides="true"><inkscape:grid
       type="xygrid"
       id="grid344"
       color="#969696"
       opacity="0.39215686"
       empcolor="#000000"
       empopacity="0.17254902"
       dotted="false"
       originx="-8989.9871"
       originy="-44217.529" /></sodipodi:namedview><defs
     id="defs9" /><g
     inkscape:label="Layer 1"
     inkscape:groupmode="layer"
     id="layer1"
     transform="translate(-9094.9881,-44366.024)"><path
       style="fill:none;stroke:#ffffff;stroke-width:10.7"
       d="m 9576.1027,44582.971 c 3.672,225.147 4.2495,-73.823 -18.4566,200.948 -5.2618,63.674 26.2362,191.618 -69.5662,120.952"
       id="path436" /><path
       style="fill:none;stroke:#ffffff;stroke-width:10.7"
       d="m 9449.7473,44585.531 c 10.6318,-91.852 -5.4708,-53.244 39.7521,-119.032"
       id="path438" /><path
       style="fill:none;stroke:#ffffff;stroke-width:10.7"
       d="m 9561.9062,44561.213 c -64.591,-104.716 -10.9001,-76.476 0,0 7.3144,51.318 -4.6033,103.878 0,155.51 5.4743,61.403 84.9667,440.487 46.8511,85.114 -3.7728,-35.176 -15.9553,-68.947 -22.7166,-103.673 -8.859,-45.5 -10.4445,-92.665 -24.1345,-136.951 -6.5051,-21.044 -85.3604,-112.051 -25.5556,-142.071 41.6453,-20.906 83.0353,-21.442 127.7764,-14.72"
       id="path440" /><path
       style="fill:none;stroke:#ffffff;stroke-width:10.7"
       d="m 9502.2764,44392.263 c 77.4862,-18.43 428.6007,-49.56 459.9946,37.118 35.1614,97.08 -199.4689,167.969 -244.1938,182.388 -27.6593,8.918 -56.3921,14.622 -85.1854,18.559 -15.7077,2.148 -56.1735,-2.42 -45.43,-14.079 84.0467,-91.205 244.9481,-74.658 349.2535,-126.712 42.5708,-21.245 51.1613,-57.956 -25.554,-84.475 -56.2361,-19.439 -118.0238,-16.597 -177.4681,-19.198 -77.0947,-3.374 -154.2484,6.399 -231.4168,6.399 z"
       id="path442" /><path
       style="fill:none;stroke:#ffffff;stroke-width:10.7"
       d="m 9872.8271,44899.111 c 160.1979,50.201 375.5869,143.122 478.4509,282.223"
       id="path444" /><path
       style="fill:none;stroke:#ffffff;stroke-width:10.7"
       d="m 10737.448,45173.654 c -40.226,7.679 -83.993,4.836 -120.677,23.038 -104.549,51.876 -77.25,145.002 18.455,175.989 111.183,36 292.664,17.133 380.49,-66.555 12.806,-12.203 25.344,-41.01 11.356,-51.837 -42.765,-33.101 -99.812,-42.452 -151.909,-56.957 -44.872,-12.493 -91.81,-15.785 -137.715,-23.678 z"
       id="path446" /><path
       style="fill:none;stroke:#ffffff;stroke-width:10.7"
       d="m 10953.246,45326.604 c 69.06,140.722 255.042,46.665 344.998,142.071"
       id="path448" /><path
       style="fill:none;stroke:#ffffff;stroke-width:10.7"
       d="m 10501.771,45662.583 c -24.135,7.04 -49.412,10.953 -72.406,21.119 -72.42,32.016 -136.185,80.821 -204.442,120.952 -115.69,68.02 -197.805,111.481 -306.6642,187.508 -30.5845,21.36 -60.1536,44.317 -88.0228,69.116 -8.7915,7.823 -19.8815,16.475 -21.2955,28.158 -2.5151,20.781 42.2832,-5.442 61.0476,-14.719"
       id="path450" /><path
       style="fill:none;stroke:#ffffff;stroke-width:10.7"
       d="m 9121.7877,46136.793 c -2.3663,28.585 -6.4127,57.08 -7.099,85.755 -0.7355,30.724 3.1188,61.423 2.8405,92.154 -0.293,32.37 -19.0701,165.89 -17.037,115.193 2.7048,-67.451 62.6766,-448.591 207.2806,-344.299 55.4726,40.009 -20.5504,133.003 -45.4317,159.99 -55.707,60.422 -100.4734,57.744 -73.8262,69.756 26.6577,12.016 118.4176,11.635 150.4931,21.118 61.2667,18.115 117.4656,58.913 173.2064,88.315"
       id="path452" /><path
       style="fill:none;stroke:#ffffff;stroke-width:10.7"
       d="m 14167.529,44876.073 c 0,6.613 -3.932,14.521 0,19.838 9.956,13.462 14.448,-30.46 18.455,-46.717 16.508,-66.972 39.936,-146.453 35.496,-218.226 -1.536,-24.822 -10.413,-48.637 -15.62,-72.955 33.319,-117.739 0.869,-147.887 132.037,-140.791 39.768,2.151 80.374,9.935 116.417,26.878 287.026,134.924 -121.784,303.594 -235.677,327.659 -25.949,5.483 -64.73,25.227 -79.504,3.2 -13.396,-19.973 28.394,-38.824 42.591,-58.236"
       id="path454" /><path
       style="fill:none;stroke:#ffffff;stroke-width:10.7"
       d="m 13787.039,45030.303 c -102.95,91.37 -225.85,151.079 -343.577,219.506 -15.119,8.788 -59.7,36.347 -45.43,26.239 7.6,-5.384 16.091,-9.387 24.136,-14.08"
       id="path456" /><path
       style="fill:none;stroke:#ffffff;stroke-width:10.7"
       d="m 12983.467,45475.715 c -26.501,1.28 -54.852,-5.971 -79.504,3.84 -45.683,18.18 -191.757,153.359 -72.405,188.788 79.575,23.621 384.05,-59.864 245.615,-151.671 -28.409,-18.84 -62.47,-27.305 -93.706,-40.957 z"
       id="path458" /><path
       style="fill:none;stroke:#ffffff;stroke-width:10.7"
       d="m 13173.714,45619.706 c 25.708,-3.189 -59.777,52.278 -42.594,75.515 46.354,62.684 180.046,89.545 252.714,109.433"
       id="path460" /><path
       style="fill:none;stroke:#ffffff;stroke-width:10.7"
       d="m 13670.622,45857.131 c 110.332,87.855 239.431,105.025 370.549,137.591 18.595,4.619 69.762,9.016 53.95,19.839 -13.798,9.444 -31.234,11.946 -46.851,17.919"
       id="path462" /><path
       style="fill:none;stroke:#ffffff;stroke-width:10.7"
       d="m 14482.71,46206.549 c -5.679,42.45 -19.024,84.569 -17.037,127.352 1.33,28.621 76.237,263.404 61.049,266.223 -8.988,1.668 -17.363,-9.027 -21.297,-17.279 -22.541,-47.292 -53.632,-94.256 -56.789,-146.551 -4.665,-77.278 20.401,-153.543 34.074,-229.745 7.168,-39.945 10.194,-82.119 28.393,-118.393 45.224,-90.14 149.791,-95.776 227.16,-49.277 171.811,103.26 -11.89,256.657 -105.061,319.34 -49.745,33.467 -100.264,49.659 -97.963,53.117 4.535,6.812 16.028,-3.383 24.137,-4.48 112.127,-15.163 257.237,-39.045 366.292,-8.319"
       id="path464" /></g></svg>
