<?xml version="1.0" encoding="UTF-8" standalone="no"?>
<!-- Created with Inkscape (http://www.inkscape.org/) -->

<svg
   width="210mm"
   height="297mm"
   viewBox="0 0 210 297"
   version="1.1"
   id="svg12"
   inkscape:version="1.2.1 (9c6d41e410, 2022-07-14, custom)"
   sodipodi:docname="stick_tree.svg"
   xmlns:inkscape="http://www.inkscape.org/namespaces/inkscape"
   xmlns:sodipodi="http://sodipodi.sourceforge.net/DTD/sodipodi-0.dtd"
   xmlns="http://www.w3.org/2000/svg"
   xmlns:svg="http://www.w3.org/2000/svg">
  <sodipodi:namedview
     id="namedview14"
     pagecolor="#505050"
     bordercolor="#eeeeee"
     borderopacity="1"
     inkscape:showpageshadow="0"
     inkscape:pageopacity="0"
     inkscape:pagecheckerboard="0"
     inkscape:deskcolor="#505050"
     inkscape:document-units="mm"
     showgrid="false"
     inkscape:zoom="0.80495774"
     inkscape:cx="372.06922"
     inkscape:cy="567.73167"
     inkscape:window-width="1366"
     inkscape:window-height="746"
     inkscape:window-x="1360"
     inkscape:window-y="0"
     inkscape:window-maximized="1"
     inkscape:current-layer="layer1"
     inkscape:lockguides="false" />
  <defs
     id="defs9" />
  <g
     inkscape:label="Layer 1"
     inkscape:groupmode="layer"
     id="layer1">
    <path
       style="fill:none;stroke:#00ffff;stroke-width:0.264999"
       d="m 40.94549,25.334888 c -0.376264,0.508814 -0.563409,1.242179 -1.128794,1.52644 -1.138595,0.572452 -2.755858,-0.806285 -3.245276,-1.510541 -3.57908,-5.150179 1.887945,-9.947504 7.054966,-9.68338 1.636048,0.08363 4.594151,1.034548 5.67921,2.46457 5.933897,7.820422 -9.12435,13.428986 -14.92123,10.096792 -1.105866,-0.635678 -1.792864,-2.131245 -0.458573,-3.243698 1.149125,-0.958071 2.72792,-1.229633 4.091881,-1.84445"
       id="path527" />
    <path
       style="fill:none;stroke:#00ffff;stroke-width:0.264999"
       d="m 46.448358,29.707504 c 3.022832,2.946116 4.320653,7.052762 6.067242,10.796418 1.216903,2.608323 2.576142,5.055507 4.056613,7.52091 0.169452,0.282184 0.572735,0.565801 0.458573,0.874522 -0.375251,1.01476 -1.273567,-0.427545 -1.552101,-0.572412 -0.430874,-0.2241 -0.932344,-0.282152 -1.410984,-0.254413 -4.200792,0.243448 -7.809034,3.406307 -5.961438,7.870727 2.795768,6.755535 17.166849,5.832133 20.106637,0.413414 3.010535,-5.549125 -2.192562,-8.462917 -6.137822,-9.365371 -2.765084,-0.632498 -7.544472,2.223904 -9.841667,3.609406"
       id="path529" />
    <path
       style="fill:none;stroke:#00ffff;stroke-width:0.264999"
       d="m 67.683792,63.050763 c 9.75188,13.853332 -5.2749,-7.575931 4.62099,6.821286 1.427858,2.077347 3.893079,5.421165 5.502865,7.425516 1.748954,2.177634 2.064909,2.442665 3.633309,4.16592 0.286445,0.314727 0.556995,0.659913 0.846566,0.969928 0.05168,0.05533 0.176384,0.21881 0.176384,0.1431 0,-1.141415 -2.299017,-1.925251 -3.068891,-2.162461 -4.826498,-1.487114 -12.343321,1.194954 -14.321584,6.105774 -5.514218,13.688434 30.5616,12.003942 28.854778,-1.84445 -0.130693,-1.060395 -0.655619,-2.122377 -1.410986,-2.877982 -3.541839,-3.542974 -8.269636,-2.804961 -12.663635,-1.939856 -1.992911,0.392372 -3.888851,1.215544 -5.890903,1.55824 -1.103183,0.188836 -1.023477,0.274344 -0.952413,-0.270304"
       id="path531" />
    <path
       style="fill:none;stroke:#00ffff;stroke-width:0.264999"
       d="m 89.942174,96.203205 c 2.557433,3.250631 5.078431,6.516295 7.760459,9.667485 1.056474,1.24127 2.14293,2.45672 3.210007,3.6889 0.83777,0.96739 1.67487,1.9354 2.50451,2.90978 0.62294,0.73162 1.36793,1.37467 1.86956,2.19425 0.50602,0.82678 -0.67657,-0.62627 -0.81134,-0.795 -0.36872,-0.46164 -0.63528,-0.57482 -1.26987,-0.77914 -2.76359,-0.88981 -6.251386,-1.21835 -8.748182,0.60422 -2.679227,1.95573 -3.342479,4.89874 -1.869557,7.85483 0.528532,1.06073 1.10195,2.2804 2.151788,2.83027 6.290161,3.2946 14.623191,3.37528 19.824411,-2.21016 1.03581,-1.11234 1.99714,-2.78825 1.62263,-4.26133 -1.72383,-6.78045 -6.49285,-7.0438 -12.38145,-7.0598 -1.49235,-0.004 -4.717122,1.71386 -6.067238,2.51228 -1.357124,0.80256 -1.305179,1.47362 -1.305179,0.73143"
       id="path533" />
    <path
       style="fill:none;stroke:#00ffff;stroke-width:0.264999"
       d="m 110.43681,126.54126 c 2.96286,2.07751 2.05698,1.22479 4.90322,4.37263 4.68886,5.18571 9.11307,10.61194 14.00408,15.61424 0.0654,0.0669 4.19504,4.83384 2.99835,2.49639 -0.43379,-0.84731 -2.1172,-1.61989 -2.89254,-1.86037 -7.2576,-2.25098 -12.47926,3.99787 -5.82033,7.82303 5.17218,2.97111 15.87161,1.28271 20.21245,-2.44866 0.55421,-0.47641 3.23787,-2.61174 2.99835,-4.13413 -0.12406,-0.78856 -5.36153,-1.09895 -5.67925,-1.11303 -6.80285,-0.3014 -6.12652,-0.13014 -14.18047,0.4293 -1.62379,0.11279 -2.38685,0.64296 -3.28054,-0.6519"
       id="path535" />
    <path
       style="fill:none;stroke:#00ffff;stroke-width:0.264999"
       d="m 142.22739,154.66346 c 3.67276,4.95036 2.72462,3.86316 5.9967,7.72762 5.38492,6.35979 10.97795,12.53711 16.29695,18.95334 1.33071,1.60523 2.6616,3.21089 3.95081,4.84964 0.15333,0.19491 1.3333,1.6003 1.02291,1.35154 -4.58424,-3.67384 -18.47692,3.93371 -12.20503,12.25925 3.75604,4.98591 11.66925,8.73792 17.91958,6.80538 2.90443,-0.89802 5.60006,-2.45532 8.11323,-4.16591 1.07857,-0.73412 1.86871,-1.87869 2.4692,-3.03699 3.02612,-5.83717 1.84959,-12.31015 -5.5734,-13.24507 -7.27177,-0.91586 -17.18756,3.98412 -24.72767,4.72243 -1.0696,0.10473 -2.13998,-0.20141 -3.20996,-0.30212"
       id="path537" />
  </g>
</svg>
