<?xml version="1.0" encoding="UTF-8" standalone="no"?>
<!-- Created with Inkscape (http://www.inkscape.org/) -->

<svg
   width="84.656929mm"
   height="18.562052mm"
   viewBox="0 0 84.656926 18.562052"
   version="1.1"
   id="svg12"
   inkscape:version="1.2.1 (9c6d41e410, 2022-07-14, custom)"
   sodipodi:docname="stokes_therom_def.svg"
   xml:space="preserve"
   xmlns:inkscape="http://www.inkscape.org/namespaces/inkscape"
   xmlns:sodipodi="http://sodipodi.sourceforge.net/DTD/sodipodi-0.dtd"
   xmlns="http://www.w3.org/2000/svg"
   xmlns:svg="http://www.w3.org/2000/svg"><sodipodi:namedview
     id="namedview14"
     pagecolor="#000000"
     bordercolor="#ffffff"
     borderopacity="1"
     inkscape:showpageshadow="0"
     inkscape:pageopacity="0"
     inkscape:pagecheckerboard="0"
     inkscape:deskcolor="#000000"
     inkscape:document-units="mm"
     showgrid="true"
     inkscape:zoom="2.7063106"
     inkscape:cx="179.21077"
     inkscape:cy="63.185652"
     inkscape:window-width="1366"
     inkscape:window-height="746"
     inkscape:window-x="1360"
     inkscape:window-y="0"
     inkscape:window-maximized="1"
     inkscape:current-layer="layer1"
     inkscape:lockguides="true"
     showguides="true"><sodipodi:guide
       position="3265.6758,-22192.731"
       orientation="0,-1"
       id="guide3409"
       inkscape:locked="true" /></sodipodi:namedview><defs
     id="defs9"><rect
       x="587.26367"
       y="362.45731"
       width="66.575974"
       height="20.973427"
       id="rect1884" /></defs><g
     inkscape:label="Layer 1"
     inkscape:groupmode="layer"
     id="layer1"
     transform="translate(-221.95924,-191.50769)"><path
       style="fill:none;stroke:#ffb380;stroke-width:0.3"
       d="m 224.87479,191.63887 c -0.87854,0.4872 -2.41699,1.41716 -2.09841,2.66737 0.13479,0.52899 1.047,1.12431 1.33248,1.38098 0.75891,0.68234 2.25384,2.05644 2.48662,3.10721 0.56969,2.57162 -0.5713,3.17047 -2.44465,4.61588 -0.44916,0.34657 -0.35329,0.36034 -0.60854,0.22229"
       id="path562" /><path
       style="fill:none;stroke:#ffb380;stroke-width:0.3"
       d="m 223.96197,206.24795 c -0.52,0.55383 -2.58048,2.72114 -1.58429,3.36732 0.93012,0.60333 3.07963,0.17032 4.09189,-0.14188"
       id="path564" /><path
       style="fill:none;stroke:#ffb380;stroke-width:0.3"
       d="m 231.24345,195.76762 c 0.042,-0.13084 0.25675,-0.35057 0.12591,-0.39254 -0.13085,-0.042 -0.12135,0.25521 -0.12591,0.39254 -0.0166,0.50148 0.0446,1.00253 0.063,1.50395 0.0302,0.82854 0.028,1.61382 -0.0525,2.43563 -0.007,0.0667 0.021,-0.13242 0.0315,-0.19863"
       id="path566" /><path
       style="fill:none;stroke:#ffb380;stroke-width:0.3"
       d="m 230.22572,196.49595 c 0.38597,-0.15109 3.39924,-0.70263 3.75615,-0.3216 0.0622,0.0664 -0.16087,0.0851 -0.24131,0.12769"
       id="path568" /><path
       style="fill:none;stroke:#ffb380;stroke-width:0.3"
       d="m 231.48477,196.94997 c -0.22383,0.0567 -0.44766,0.11351 -0.67149,0.17026 -0.0525,0.0142 -0.21007,0.0559 -0.15739,0.0426 1.51721,-0.38469 0.14973,-0.15048 1.5948,-0.11823 0.82478,0.0184 1.61493,-0.10078 2.43415,0.005"
       id="path570" /><path
       style="fill:none;stroke:#ffb380;stroke-width:0.3"
       d="m 230.33065,194.72243 c 0.97948,0.0186 1.95856,-1.7e-4 2.93777,-0.0237 0.0951,-0.002 0.87365,-0.009 1.0492,-0.0662 0.55249,-0.1788 -4.06611,-1.07191 -2.21382,-1.14451"
       id="path572" /><path
       style="fill:none;stroke:#ffb380;stroke-width:0.3"
       d="m 237.65408,197.15806 c -0.2553,0.002 -0.51297,0.0394 -0.76591,0.005 -0.78377,-0.10738 -0.21243,-1.12722 0.13639,-0.79927 0.0824,0.0774 0.10815,0.19988 0.17836,0.28849 0.14034,0.17713 0.55443,0.30504 0.45116,0.50605 -0.13526,0.26329 -1.67342,0.97947 -1.05968,-0.52023 0.27734,-0.67772 1.06048,0.51759 1.05968,0.52023 -0.0811,0.26869 -0.46655,0.35668 -0.74493,0.39254 -0.0906,0.0117 -0.0857,-0.32277 0,-0.69522 0.0245,-0.1065 0.11584,-0.41149 0.1259,-0.30268 0.0207,0.22334 -0.50296,1.47374 -0.11541,0.52023 0.0347,-0.0855 0.063,-0.17341 0.0944,-0.26012"
       id="path574" /><path
       style="fill:none;stroke:#ffb380;stroke-width:0.3"
       d="m 240.21415,195.94261 c 0.27629,0.052 0.57528,0.0347 0.82886,0.15607 0.72264,0.34596 1.83505,1.64781 1.08069,2.45928 -0.46724,0.5026 -1.54273,0.73998 -1.9935,0.0473 -0.35486,-0.54531 0.17092,-1.14208 0.661,-1.2722 0.32474,-0.0862 0.61253,0.11099 0.89182,0.22701"
       id="path576" /><path
       style="fill:none;stroke:#ffb380;stroke-width:0.3"
       d="m 242.78469,196.48176 c 0.48405,-0.35177 0.59073,-0.67809 1.09117,0.0426 0.0235,0.0338 0.85034,1.29037 0.58756,1.77353 -0.0722,0.13274 -0.23019,0.2833 -0.37772,0.25065 -0.13917,-0.0308 -0.20492,-0.23591 -0.19934,-0.37835 0.0464,-1.18218 2.35887,-2.19764 2.7699,-1.22491"
       id="path578" /><path
       style="fill:none;stroke:#ffb380;stroke-width:0.3"
       d="m 242.21812,194.93998 c 0.38792,-0.0247 2.65511,0.75649 3.09516,0.61482 0.0588,-0.0189 -0.10416,-0.15255 -0.4092,-0.4351 -1.25447,-1.162 0.0274,0.012 -1.19608,-1.06412 -0.45299,-0.3984 -0.24701,-0.322 0.18884,-0.16079"
       id="path580" /><path
       style="fill:none;stroke:#ffb380;stroke-width:0.3"
       d="m 250.49634,196.5196 c 0.78737,0.0256 1.56938,0.13852 2.35021,0.23646 0.2172,0.0273 0.4544,-0.007 0.65051,0.0899 0.0257,0.0127 -0.0444,0.0145 -0.49313,0.0426"
       id="path582" /><path
       style="fill:none;stroke:#ffb380;stroke-width:0.3"
       d="m 250.18159,197.46547 c 1.1729,-0.0116 2.34521,-0.003 3.49382,0.25539"
       id="path584" /><path
       style="fill:none;stroke:#ffb380;stroke-width:0.3"
       d="m 258.06109,193.28942 c -0.65344,0.34739 -1.60636,0.81138 -1.55281,1.71677 0.0323,0.54669 1.00288,1.44728 1.21708,1.66475 0.66178,0.6719 1.76292,1.54709 2.24528,2.40725 0.22977,0.40968 0.56523,0.88554 0.44067,1.33842 -0.28586,1.03933 -1.22955,1.70567 -2.18234,1.96742 -0.26768,0.0735 -0.57137,0.18405 -0.82886,0.0804 -0.13552,-0.0546 -0.035,-0.29007 -0.0525,-0.43511"
       id="path586" /><path
       style="fill:none;stroke:#ffb380;stroke-width:0.3"
       d="m 262.87693,193.90897 c -0.34258,-0.12099 -2.12378,0.0404 -1.59477,0.88913 0.21989,0.35281 1.73109,1.17663 1.82562,1.24383 0.9061,0.64408 2.48611,1.78499 2.37117,3.11666 -0.12189,1.41271 -1.52506,2.20376 -2.623,2.80926 -0.67389,0.37166 -0.51599,0.43368 -0.82886,0.19864"
       id="path588" /><path
       style="fill:none;stroke:#ffb380;stroke-width:0.3"
       d="m 260.32738,204.02041 c -0.22733,0.18287 -0.46664,0.35175 -0.68199,0.5486 -0.0378,0.0346 -0.62097,0.52012 -0.51411,0.78508 0.44802,1.1107 3.25533,1.55291 3.20008,2.73359 -0.0432,0.92373 -1.58646,1.36704 -2.2348,1.28166 -0.52996,-0.0698 -1.02719,-0.3422 -1.46889,-0.6432 -0.17991,-0.12259 -0.20984,-0.3815 -0.31477,-0.57225"
       id="path592" /><path
       style="fill:none;stroke:#ffb380;stroke-width:0.3"
       d="m 269.95906,197.76815 c -1.54821,0.39639 -1.9889,2.31636 -0.23082,2.82818 0.23066,0.0671 0.5765,0.13515 0.7974,-0.0142"
       id="path594" /><path
       style="fill:none;stroke:#ffb380;stroke-width:0.3"
       d="m 271.39649,198.72349 c 0.50694,1.94313 3.82646,1.13031 1.99348,-0.14661"
       id="path596" /><path
       style="fill:none;stroke:#ffb380;stroke-width:0.3"
       d="m 273.77819,197.88166 c 0.48263,0.24908 0.98163,0.46868 1.44788,0.74724 1.2755,0.76207 -0.67971,0.91048 0.31477,-0.29795 0.0559,-0.0679 0.15389,-0.0851 0.2308,-0.12769"
       id="path598" /><path
       style="fill:none;stroke:#ffb380;stroke-width:0.3"
       d="m 276.9048,197.0682 c 0.70218,0.61078 0.91474,1.68598 0.99674,2.59171"
       id="path600" /><path
       style="fill:none;stroke:#ffb380;stroke-width:0.3"
       d="m 282.82231,195.70614 c 0.0944,-0.134 0.4173,-0.30757 0.28329,-0.402 -0.13399,-0.0944 -0.15013,0.30639 -0.28329,0.402 -0.36645,0.26311 -0.84627,0.3554 -1.1856,0.65266 -0.74991,0.65691 -0.91146,2.07599 -0.30427,2.86128 0.59476,0.76921 1.27169,1.07387 2.10889,1.48975 0.30091,0.14948 0.60195,0.21369 0.36721,0.1608"
       id="path602" /><path
       style="fill:none;stroke:#ffb380;stroke-width:0.3"
       d="m 284.70042,200.31729 c -0.007,-0.17112 -0.0285,-0.93687 -0.0315,-0.94587 -0.12139,-0.4793 -0.43684,-0.90527 -0.50364,-1.39517 -0.0262,-0.19225 0.20003,-0.34012 0.24133,-0.52969 0.0121,-0.0558 -1.48953,0.19928 -0.24133,0.52969 -0.10142,-0.26169 -0.4927,-0.57709 -0.30426,-0.78508 0.16177,-0.17856 2.75553,-0.18868 3.09515,-0.0662 0.0797,0.0288 -0.16088,0.0536 -0.24131,0.0804"
       id="path604" /><path
       style="fill:none;stroke:#ffb380;stroke-width:0.3"
       d="m 284.0499,198.08029 c 0.94131,0.26696 1.9095,0.22701 2.8748,0.22701"
       id="path606" /><path
       style="fill:none;stroke:#ffb380;stroke-width:0.3"
       d="m 284.06037,196.13652 c 0.45085,-0.0675 2.44981,0.26848 2.70696,-0.005 0.22159,-0.23545 -1.60528,-0.74142 -1.60528,-0.87021 0,-0.0596 0.11305,0.0452 0.15734,0.0851"
       id="path608" /><path
       style="fill:none;stroke:#ffb380;stroke-width:0.3"
       d="m 287.97388,193.71507 c 0.21336,0.30268 0.42265,0.60826 0.64005,0.90804 0.77026,1.0622 1.84103,2.27281 2.01444,3.6369 0.0884,0.6954 -0.48438,2.39524 -1.44788,1.98161"
       id="path610" /><path
       style="fill:none;stroke:#ffb380;stroke-width:0.3"
       d="m 294.06977,197.93841 c 0.0839,-0.18287 0.14724,-0.3767 0.25181,-0.54861 0.14671,-0.24122 0.72107,0.95791 -0.25181,0.54861 -1.1453,-0.48184 -0.0159,-1.0419 0.16788,-0.84656 0.12555,0.1334 0.21537,0.92269 -0.16788,0.84656 -0.25545,-0.0507 -0.2378,-0.46348 -0.35673,-0.69522"
       id="path612" /><path
       style="fill:none;stroke:#ffb380;stroke-width:0.3"
       d="m 296.39901,197.90058 c 0.17137,-0.32475 0.31662,-0.6647 0.51411,-0.97426 0.19624,-0.30759 0.68717,-0.81318 0.84987,-0.69049 0.37584,0.28345 0.41889,0.52489 0.4931,0.95534 0.0335,0.19431 0.10282,0.74465 -0.0209,0.59117"
       id="path614" /><path
       style="fill:none;stroke:#ffb380;stroke-width:0.3"
       d="m 295.3393,194.78391 c 0.52869,-0.21327 3.19093,0.59655 3.6722,0.40673 0.25712,-0.1014 -1.38647,-1.36856 -1.51085,-1.51814 -0.0749,-0.0901 0.20802,0.10795 0.31478,0.15607"
       id="path616" /><path
       style="fill:none;stroke:#ffb380;stroke-width:0.3"
       d="m 301.92832,195.43657 c 0.19235,0.20967 0.42,0.39172 0.57703,0.62901 0.87596,1.32361 -0.14565,2.42485 -1.17509,1.66947 -0.88487,-0.64932 0.19423,-1.16175 0.84987,-1.15397"
       id="path618" /><path
       style="fill:none;stroke:#ffb380;stroke-width:0.3"
       d="m 304.83461,195.54534 c -0.0427,8e-4 -1.20303,-0.14053 -1.36395,0.25539 -0.25318,0.62292 2.6021,1.37942 2.95873,1.90121 0.0889,0.13009 -0.003,0.38632 -0.1469,0.44929 -0.39814,0.17359 -2.83596,0.84887 -3.4204,0.25066 -0.081,-0.0829 0.028,-0.23016 0.042,-0.34525"
       id="path620" /></g></svg>
