<?xml version="1.0" encoding="UTF-8" standalone="no"?>
<!-- Created with Inkscape (http://www.inkscape.org/) -->

<svg
   width="904.84125mm"
   height="502.58603mm"
   viewBox="0 0 904.84123 502.58603"
   version="1.1"
   id="svg12"
   inkscape:version="1.2.1 (9c6d41e410, 2022-07-14, custom)"
   sodipodi:docname="submatrix_example.svg"
   xml:space="preserve"
   xmlns:inkscape="http://www.inkscape.org/namespaces/inkscape"
   xmlns:sodipodi="http://sodipodi.sourceforge.net/DTD/sodipodi-0.dtd"
   xmlns="http://www.w3.org/2000/svg"
   xmlns:svg="http://www.w3.org/2000/svg"><sodipodi:namedview
     id="namedview14"
     pagecolor="#000000"
     bordercolor="#ffffff"
     borderopacity="1"
     inkscape:showpageshadow="0"
     inkscape:pageopacity="0"
     inkscape:pagecheckerboard="0"
     inkscape:deskcolor="#000000"
     inkscape:document-units="mm"
     showgrid="true"
     inkscape:zoom="0.32215995"
     inkscape:cx="1780.1716"
     inkscape:cy="1379.7494"
     inkscape:window-width="1311"
     inkscape:window-height="697"
     inkscape:window-x="0"
     inkscape:window-y="0"
     inkscape:window-maximized="1"
     inkscape:current-layer="layer1"
     inkscape:lockguides="true" /><defs
     id="defs9"><rect
       x="587.26367"
       y="362.45731"
       width="66.575974"
       height="20.973427"
       id="rect1884" /></defs><g
     inkscape:label="Layer 1"
     inkscape:groupmode="layer"
     id="layer1"
     transform="translate(-3238.111,-22157.838)"><path
       style="fill:none;stroke:#00ffff;stroke-width:1"
       d="m 3238.515,22241.505 c 1.6416,-2.252 3.3415,-4.462 4.9249,-6.754 1.5739,-2.279 3.0402,-4.891 4.0894,-7.469 0.2616,-0.643 0.5694,-2.548 0.8355,-1.907 0.3555,0.856 0.4659,2.647 0.5276,3.297 0.1761,1.853 0.2941,3.711 0.4837,5.562 0.1916,1.871 0.3894,3.741 0.6596,5.602 0.082,0.564 1.0567,6.59 2.1546,6.198 3.1958,-1.142 5.2645,-12.924 6.0682,-15.693 1.5566,-5.363 0.4162,-2.184 2.4185,-7.827 0.1861,-0.524 0.6746,-1.888 0.9234,-1.39 0.5386,1.077 0.7732,2.285 1.0554,3.456 0.7511,3.118 1.5219,6.232 2.1546,9.376 0.394,1.958 0.5855,3.952 0.9234,5.92 0.5223,3.042 0.6333,6.523 1.4071,9.495"
       id="path1025" /><path
       style="fill:none;stroke:#00ffff;stroke-width:1"
       d="m 3288.7753,22227.52 c 2.9915,-0.07 28.7475,-1.981 11.6526,3.615"
       id="path1027" /><path
       style="fill:none;stroke:#00ffff;stroke-width:1"
       d="m 3288.0717,22237.492 c 0.1047,2.928 21.6331,-3.426 21.5464,-1.39 -0.033,0.785 -1.0553,1.165 -1.5829,1.748"
       id="path1029" /><path
       style="fill:none;stroke:#00ffff;stroke-width:1"
       d="m 3340.9704,22178.057 c -2.1287,3.334 -8.9131,2.514 -11.9165,4.926 -0.5243,0.422 -1.5106,14.555 -1.583,15.614 -0.9872,14.429 -0.5403,28.939 -1.583,43.384 -1.1767,16.303 -3.4505,32.529 -4.3093,48.828 -0.067,1.279 -0.786,2.431 -0.8794,3.655 -0.1752,2.295 18.063,-9.512 16.8853,-2.702"
       id="path1031" /><path
       style="fill:none;stroke:#00ffff;stroke-width:1"
       d="m 3359.4387,22185.606 c -3.5642,2.411 -8.7913,6.089 -5.8483,11.243 0.4039,0.707 1.2985,1.17 2.1107,1.232 5.4482,0.416 9.0372,-6.56 5.1008,-7.271 -1.5739,-0.284 1.79,2.664 2.8582,3.854 0.5499,0.613 3.3925,4.572 4.1773,3.774"
       id="path1033" /><path
       style="fill:none;stroke:#00ffff;stroke-width:1"
       d="m 3392.9456,22180.282 c 2.5088,3.229 8.0067,14.032 5.1008,18.553 -0.6157,0.959 -0.2698,-2.31 0,-3.416 0.9181,-3.765 2.2918,-7.427 4.4852,-10.648 0.1455,-0.213 1.949,-2.791 2.6823,-0.993 3.6592,8.974 -9.1678,29.779 -4.9689,9.456"
       id="path1035" /><path
       style="fill:none;stroke:#00ffff;stroke-width:1"
       d="m 3428.9589,22180.481 c -2.2166,1.996 -12.7465,14.691 -6.4639,19.03 4.3369,2.995 8.8252,2.579 13.4115,1.549 0.8769,-0.197 3.2997,-1.015 2.4185,-1.192 -0.1978,-0.04 -0.3811,0.133 -0.5716,0.199"
       id="path1037" /><path
       style="fill:none;stroke:#00ffff;stroke-width:1"
       d="m 3355.7011,22221.64 c 5.359,0.533 4.955,-0.761 6.9476,5.562 1.1686,3.708 1.6119,8.198 0.044,11.919 -0.9787,2.322 -6.9941,8.708 -7.959,1.828 -0.5612,-4.002 4.0269,-16.416 10.0697,-12.197"
       id="path1039" /><path
       style="fill:none;stroke:#00ffff;stroke-width:1"
       d="m 3386.3058,22231.851 c 4.8158,0.922 4.8974,2.104 8.3108,-0.04 7.7204,-4.85 -11.695,-7.153 -8.3108,0.04 1.0081,2.142 10.017,10.699 14.5988,8.065"
       id="path1041" /><path
       style="fill:none;stroke:#00ffff;stroke-width:1"
       d="m 3430.6738,22217.826 c -6.9339,0.495 -9.0008,3.787 -8.2667,10.806 0.1756,1.68 5.811,10.567 4.3532,10.807"
       id="path1043" /><path
       style="fill:none;stroke:#00ffff;stroke-width:1"
       d="m 3418.3616,22233.201 c 5.9579,-3.166 10.7945,-3.853 17.0613,-3.933"
       id="path1045" /><path
       style="fill:none;stroke:#00ffff;stroke-width:1"
       d="m 3351.3918,22257.158 c 0.044,1.748 0.1616,3.496 0.1319,5.244 -0.029,1.712 -0.2495,3.415 -0.3078,5.125 -0.4094,12.023 4.8246,-4.415 8.2228,-4.529 2.1266,-0.07 2.6796,10.503 2.7703,12.674"
       id="path1047" /><path
       style="fill:none;stroke:#00ffff;stroke-width:1"
       d="m 3388.7683,22256.085 c -0.4939,-5.284 1.5908,-7.985 0,0 z"
       id="path1049" /><path
       style="fill:none;stroke:#00ffff;stroke-width:1"
       d="m 3388.1087,22268.123 c 0.9236,3.87 0.553,7.708 0.088,11.601 -0.1046,0.876 -0.2788,1.744 -0.3518,2.622 -0.015,0.188 -5e-4,0.722 0.088,0.557 0.2809,-0.526 0.3518,-1.139 0.5277,-1.709"
       id="path1051" /><path
       style="fill:none;stroke:#00ffff;stroke-width:1"
       d="m 3411.6338,22258.35 c 4.3451,4.902 7.0006,11.481 2.9902,17.521 -0.5842,0.879 -1.2967,1.93 -2.3306,2.145 -7.119,1.477 -6.3199,-10.677 -5.7604,-14.938"
       id="path1053" /><path
       style="fill:none;stroke:#00ffff;stroke-width:1"
       d="m 3414.4481,22245.557 c -0.6889,1.205 -3.2719,2.927 -2.0667,3.615 1.2051,0.689 1.2279,-4.721 2.0667,-3.615 1.7471,2.304 -0.7155,6.728 -1.0994,6.476 -1.8298,-1.202 0.5197,-4.365 1.0994,-6.476 z"
       id="path1055" /><path
       style="fill:none;stroke:#00ffff;stroke-width:1"
       d="m 3446.196,22178.057 c 3.9959,0.491 10.6978,0.88 14.5549,2.861 4.2455,2.18 2.1594,11.741 1.9787,14.699 -1.0983,17.987 0.1673,35.679 1.2313,53.635 0.5617,9.48 0.047,19.541 3.9135,28.367 1.1655,2.66 -5.4224,2.788 -6.332,2.82 -6.3461,0.224 -13.069,-0.08 -19.3478,-0.516 -2.792,-0.195 -5.5709,-0.546 -8.3547,-0.834 -0.4117,-0.04 -1.0194,-0.515 -1.2313,-0.159 -0.1952,0.327 0.6661,0.394 0.9234,0.675 1.4196,1.553 2.7263,3.205 4.0895,4.807"
       id="path1057" /><path
       style="fill:none;stroke:#00ffff;stroke-width:1"
       d="m 3635.1446,22217.31 c -0.896,1.819 -1.0293,3.025 -1.2312,4.727"
       id="path1059" /><path
       style="fill:none;stroke:#00ffff;stroke-width:1"
       d="m 3532.6013,22237.254 c 0.2638,-2.04 0.2314,-4.14 0.7915,-6.119 1.6245,-5.739 5.0416,-11.214 7.0356,-16.885 0.1447,-0.411 1.0687,-3.416 1.3631,-4.29 0.1851,-0.55 0.5676,-2.085 0.7915,-1.55 2.0824,4.976 2.7253,10.472 4.1334,15.654 0.5444,2.003 0.964,4.047 1.6709,5.999 0.064,0.178 0.2185,0.643 0.3078,0.476 1.8895,-3.528 5.7717,-26.722 6.9917,-26.896 0.365,-0.05 0.3306,0.67 0.3957,1.033 0.5231,2.914 0.6027,5.893 1.0553,8.82 1.0428,6.741 2.2418,14.957 6.42,20.619"
       id="path1061" /><path
       style="fill:none;stroke:#00ffff;stroke-width:1"
       d="m 3578.4204,22235.585 c 3.285,2.289 1.7976,-5.369 0.088,-5.165 -2.9563,0.353 -7.8612,7.468 -3.9135,9.694 4.1871,2.361 17.4446,-0.808 15.1704,-7.628 -0.3606,-1.081 -1.6948,-1.58 -2.7262,-2.066 -3.1248,-1.472 -6.8398,-1.872 -10.2016,-1.112 -2.9508,0.666 -1.0575,0.907 1.8908,-1.867"
       id="path1063" /><path
       style="fill:none;stroke:#00ffff;stroke-width:1"
       d="m 3581.8942,22221.839 c 0.1319,1.589 0.2791,3.177 0.3958,4.767 1.5624,21.299 0.8642,8.936 1.2312,22.09 0.03,1.082 -0.024,4.196 0.4397,3.218 0.238,-0.502 0.2345,-1.086 0.3518,-1.629"
       id="path1065" /><path
       style="fill:none;stroke:#00ffff;stroke-width:1"
       d="m 3605.4194,22228.513 c -0.6482,12.986 2.8807,-6.129 1.0553,-5.602 -4.0247,1.164 0.3019,2.307 -1.0553,5.602 -1.0117,2.456 -4.0589,3.697 -5.0568,6.158 -0.5929,1.463 0.021,3.245 0.6595,4.688 2.9234,6.604 14.2026,-2.523 11.6967,-8.422 -0.6253,-1.472 -1.3404,-3.35 -2.8582,-3.854 -1.4761,-0.49 -2.8994,1.226 -4.4412,1.43 -1.6462,0.218 -9.1406,-1.608 -10.1576,2.662 -0.558,2.343 4.7571,-1.485 6.5079,-3.138 1.136,-1.074 2.052,-2.358 3.078,-3.536"
       id="path1067" /><path
       style="fill:none;stroke:#00ffff;stroke-width:1"
       d="m 3608.4095,22217.429 c -0.029,-1.139 1.051,-3.446 -0.088,-3.417 -1.1389,0.03 0.2811,2.294 0.088,3.417 -0.691,4.016 -2.365,7.859 -2.7263,11.919 -0.067,0.757 1.4164,12.139 1.627,14.103 0,0 -0.4009,8.408 1.3192,4.967"
       id="path1069" /><path
       style="fill:none;stroke:#00ffff;stroke-width:1"
       d="m 3635.3205,22215.363 c -1.1432,0.278 -3.7079,-0.309 -3.4298,0.834 0.2781,1.143 2.2593,-0.715 3.4298,-0.834 6.3813,-0.652 11.2372,-0.486 17.0613,-3.854 0.6298,-0.364 -1.4189,0.331 -2.1107,0.556 -1.7752,0.578 -3.4868,1.178 -5.1887,1.947"
       id="path1071" /><path
       style="fill:none;stroke:#00ffff;stroke-width:1"
       d="m 3633.6056,22225.017 c 4.5819,0.518 8.7251,-0.907 13.0598,-2.026 0.6463,-0.167 1.2884,-0.35 1.9347,-0.517 0.1747,-0.04 0.703,-0.161 0.5277,-0.119 -3.3346,0.804 -6.8124,2.465 -10.2015,2.861 -1.7629,0.205 -6.8522,0.698 -5.3207,-0.199 3.2306,-1.891 7.1803,-2.132 10.8172,-3.019 2.9926,-0.73 6.023,-1.303 9.0583,-1.828 0.3476,-0.06 0.8719,-0.222 1.0553,0.08 0.2428,0.398 -0.8437,0.849 -1.0553,0.953"
       id="path1073" /><path
       style="fill:none;stroke:#00ffff;stroke-width:1"
       d="m 3679.2489,22202.848 c -20.7699,11.518 11.3411,6.167 12.7959,17.997 0.9642,7.841 -20.0335,24.033 -15.5662,0.04"
       id="path1075" /><path
       style="fill:none;stroke:#00ffff;stroke-width:1"
       d="m 3703.6095,22211.191 c 0.073,-1.099 1.319,-3.224 0.2198,-3.297 -1.0991,-0.07 0.2932,2.322 -0.2198,3.297 -1.3936,2.648 -4.4864,4.357 -5.3206,7.231 -0.5245,1.807 1.149,6.138 3.9135,5.244 3.525,-1.139 9.1153,-10.417 5.4086,-13.309 -0.1819,-0.142 -0.3397,0.366 -0.3518,0.596 -0.063,1.191 0.043,2.386 0.1319,3.576 0.131,1.752 0.3231,3.499 0.5277,5.244 0.069,0.586 2.4188,20.14 3.9135,19.348 0.5379,-0.285 0.3518,-1.165 0.5277,-1.748"
       id="path1077" /><path
       style="fill:none;stroke:#00ffff;stroke-width:1"
       d="m 3717.6806,22209.125 c -1.4211,3.018 -0.3374,15.813 5.9363,13.945 3.6423,-1.084 4.4746,-10.262 2.5944,-12.951 -0.1754,-0.251 -0.1358,0.611 -0.088,0.913"
       id="path1079" /><path
       style="fill:none;stroke:#00ffff;stroke-width:1"
       d="m 3733.7745,22220.408 c 0.7621,-2.33 1.5244,-4.661 2.2865,-6.992"
       id="path1081" /><path
       style="fill:none;stroke:#00ffff;stroke-width:1"
       d="m 3735.2256,22206.305 c 0.2591,-4.023 1.5666,-5.767 4.1773,-8.542"
       id="path1083" /><path
       style="fill:none;stroke:#00ffff;stroke-width:1"
       d="m 3745.4271,22197.246 c -1.2312,1.682 -3.3138,2.996 -3.6937,5.046 -1.1032,5.952 13.2396,3.372 13.4116,10.171 0.1054,4.164 -9.8838,13.115 -10.2895,8.184 -0.1245,-1.513 0.3225,-3.02 0.4837,-4.529"
       id="path1085" /><path
       style="fill:none;stroke:#00ffff;stroke-width:1"
       d="m 3757.8273,22196.094 c 0.7182,3.761 1.6954,7.482 2.1547,11.283 0.2764,2.288 0.092,4.609 0.044,6.913 -0.076,3.656 -1.253,6.083 1.2753,1.947 0.3278,-0.537 6.6284,-13.059 9.6298,-9.376 0.9319,1.143 -1.9019,16.647 0.1759,14.143"
       id="path1087" /><path
       style="fill:none;stroke:#00ffff;stroke-width:1"
       d="m 3793.7966,22181.672 c -1.7442,1.126 -3.9549,1.741 -5.2327,3.377 -1.7606,2.255 -2.7367,5.075 -3.5177,7.827 -4.2028,14.806 0.2467,26.836 5.4965,40.842 1.7523,4.675 5.1735,8.991 5.6724,14.064"
       id="path1097" /><path
       style="fill:none;stroke:#00ffff;stroke-width:1"
       d="m 3825.0459,22179.724 c -9.0328,-1.102 -8.2455,0.459 -8.6626,7.668 -0.3164,5.468 -0.195,3.425 -0.2198,11.481 -0.036,11.614 0.1854,23.278 -0.044,34.883 -0.1217,6.155 -0.2512,12.362 -1.0553,18.474 -0.3232,2.456 -2.1237,6.915 -1.583,9.455 0.032,0.149 0.3047,-0.05 0.4397,-0.119 1.6125,-0.832 3.1251,-1.867 4.793,-2.582 3.4477,-1.479 8.5486,-2.496 11.7405,-2.106"
       id="path1099" /><path
       style="fill:none;stroke:#00ffff;stroke-width:1"
       d="m 3854.3754,22179.724 c -2.4749,2.402 -9.8435,8.766 -6.8157,13.23 2.3355,3.443 10.2514,1.655 11.9165,-1.629 1.5097,-2.978 -1.9922,-5.022 -0.8355,-2.225 0.7977,1.929 6.3463,11.617 8.7945,10.29"
       id="path1101" /><path
       style="fill:none;stroke:#00ffff;stroke-width:1"
       d="m 3875.9218,22181.353 c 2.4458,4.826 1.4918,2.299 2.9462,8.74 0.3371,1.493 0.6957,2.983 0.9673,4.49 1.1811,6.55 -2.5007,-2.253 1.1873,-6.198 0.5018,-0.537 1.3967,-0.81 2.1107,-0.636 2.3183,0.564 4.0365,3.985 4.7489,5.681 2.7538,6.56 -6.5171,13.349 -4.7929,1.311 0.1325,-0.924 0.4983,-1.801 0.7475,-2.701"
       id="path1103" /><path
       style="fill:none;stroke:#00ffff;stroke-width:1"
       d="m 3906.5265,22180.399 c -5.6823,2.884 -8.5993,12.765 -1.583,16.17 2.295,1.114 14.364,1.004 9.2782,-0.834"
       id="path1105" /><path
       style="fill:none;stroke:#00ffff;stroke-width:1"
       d="m 3852.9683,22216.195 c 7.3546,1.251 16.7854,13.044 7.6071,18.673 -0.8727,0.535 -2.085,0.861 -3.034,0.477 -6.6181,-2.678 -1.5048,-11.427 3.9135,-11.283 1.413,0.04 2.697,0.847 4.0455,1.271"
       id="path1107" /><path
       style="fill:none;stroke:#00ffff;stroke-width:1"
       d="m 3856.618,22243.529 c 0.557,1.549 1.2654,3.053 1.6709,4.648 0.4628,1.822 0.7454,3.692 0.9235,5.563 1.1541,12.129 -3.7646,1.868 4.3532,-5.602 4.4914,-4.134 7.1683,5.588 7.3434,8.104 0.1199,1.724 -0.4227,3.206 -0.8795,4.768"
       id="path1109" /><path
       style="fill:none;stroke:#00ffff;stroke-width:1"
       d="m 3839.9964,22190.649 c 3.3419,-0.251 6.6744,-0.755 10.0257,-0.755 5.5316,0 11.0503,0.538 16.5776,0.755 16.4722,0.649 32.9521,1.008 49.4248,1.669 6.7141,0.27 12.9772,0.538 12.3123,-1.351 -0.7352,-2.087 -14.9807,-2.225 -17.0173,-2.185 -8.4877,0.166 -16.9188,0.914 -25.416,0.914 -7.2744,0 -14.5362,-0.83 -21.8102,-0.755 -13.9103,0.144 -4.4144,1.174 -16.8854,1.907 -2.4006,0.141 -4.824,-0.487 -7.2115,-0.199 -11.9754,1.445 -1.027,2.06 -8.4866,1.709 -0.7585,-0.04 -2.3071,0.155 -2.1986,-0.596 0.3318,-2.299 5.9065,-0.808 10.6852,-1.113 3.6684,-0.234 7.2876,-0.988 10.9492,-1.311 18.8123,-1.656 37.7187,-0.991 56.5483,-0.357 8.1368,0.274 12.132,0.685 19.04,0.08 1.0306,-0.09 2.0583,-0.223 3.0781,-0.397 0.303,-0.05 1.1869,-0.278 0.8794,-0.278 -2.848,0 -5.6838,0.394 -8.5306,0.477"
       id="path1111" /><path
       style="fill:none;stroke:#00ffff;stroke-width:1"
       d="m 3849.8902,22160.058 c 1.4912,15.992 1.8159,32.054 3.0781,48.112 1.0943,13.922 1.6588,19.012 1.8468,32.618 0.11,7.96 -0.2134,16.222 -0.4837,24.195 -0.083,2.437 -0.1705,4.874 -0.2638,7.31 -0.09,2.351 -0.299,4.651 -0.1759,4.688 0.5235,0.158 0.2651,-3.498 0.088,-6.674 -0.2112,-3.788 -0.6485,-11.217 -0.7475,-14.899 -0.5071,-18.86 -0.5007,-37.751 -0.2199,-56.614 0.052,-3.524 0.1458,-7.046 0.2639,-10.568 0.27,-8.05 0.2383,-10.355 1.2751,-17.719 0,-0.02 1.446,-8.526 2.2866,-8.463 1.1255,0.08 0.555,2.209 0.5717,3.338 0.029,1.964 -0.3889,14.03 -0.3958,14.739 -0.3309,34.289 0.3976,3.456 0.6596,48.788 0.066,11.326 -1.7376,22.477 -1.8468,33.73 -0.01,0.898 0.483,-1.734 0.6156,-2.622 0.2931,-1.964 0.4397,-3.947 0.6595,-5.92"
       id="path1113" /><path
       style="fill:none;stroke:#00ffff;stroke-width:1"
       d="m 3879.2637,22216.672 c 4.6798,3.624 3.0038,3.537 7.3434,3.973 9.9594,1 1.1347,-12.791 -5.5845,-7.668 -1.0847,0.827 -1.2048,2.449 -1.7589,3.695 -0.8533,1.919 -2.4904,3.7 -2.4625,5.801 0.022,1.626 1.3877,3.041 2.5944,4.131 5.5738,5.036 10.7795,7.273 16.0059,1.907"
       id="path1115" /><path
       style="fill:none;stroke:#00ffff;stroke-width:1"
       d="m 3923.2359,22213.295 c -8.7787,-0.856 -9.5114,10.801 -3.2539,14.779"
       id="path1117" /><path
       style="fill:none;stroke:#00ffff;stroke-width:1"
       d="m 3909.6925,22224.062 c 0.3936,0.676 16.421,-3.328 15.2584,-0.477"
       id="path1119" /><path
       style="fill:none;stroke:#00ffff;stroke-width:1"
       d="m 3894.654,22251.197 c -5.2641,8.155 -4.9974,-7.49 -3.5618,-5.761 0.4631,0.558 0.4102,1.41 0.7915,2.026 0.8151,1.319 4.3019,3.497 2.7703,3.735 -7.643,1.187 -6.1297,-6.861 -3.8696,-5.84"
       id="path1121" /><path
       style="fill:none;stroke:#00ffff;stroke-width:1"
       d="m 3890.5646,22261.288 c -1.1002,0.918 -3.6412,12.456 0.6595,12.157"
       id="path1123" /><path
       style="fill:none;stroke:#00ffff;stroke-width:1"
       d="m 3910.3961,22246.548 c 16.0267,15.135 -6.7172,22.902 -7.9151,12.078"
       id="path1125" /><path
       style="fill:none;stroke:#00ffff;stroke-width:1"
       d="m 3912.5067,22236.894 c -0.8794,-10.493 -0.082,-1.14 0,0 z"
       id="path1127" /><path
       style="fill:none;stroke:#00ffff;stroke-width:1"
       d="m 3920.7295,22167.805 c 5.657,5.292 15.0083,4.469 20.3152,10.21 4.6179,4.997 1.7931,23.23 2.0228,29.956 0.4022,11.782 1.7452,23.579 3.4298,35.24 0.9163,6.342 4.8371,22.307 4.749,22.368 -0.382,0.262 -7.4651,0.244 -9.3221,0.715 -2.5471,0.645 -5.0715,1.377 -7.6072,2.066 -4.2067,1.126 -8.398,2.31 -12.6201,3.377 -1.9323,0.488 -7.202,2.255 -5.9362,0.715 0.8864,-1.078 2.2572,-1.642 3.3858,-2.463"
       id="path1129" /><path
       style="fill:none;stroke:#00ffff;stroke-width:1"
       d="m 3954.4123,22157.992 c 8.7818,27.103 18.5526,56.239 11.169,84.862 -0.577,2.236 -8.6878,24.376 -12.0044,23.44"
       id="path1131" /><path
       style="fill:none;stroke:#00ffff;stroke-width:1"
       d="m 3993.891,22210.3 c 0.5396,-0.396 22.0686,0.756 15.4783,1.947"
       id="path1133" /><path
       style="fill:none;stroke:#00ffff;stroke-width:1"
       d="m 3993.7591,22219.557 c 5.8334,2.643 12.0884,-0.07 18.2045,1.509"
       id="path1135" /><path
       style="fill:none;stroke:#00ffff;stroke-width:1"
       d="m 4047.889,22186.383 c -11.8171,-2.882 -8.4652,3.932 -8.2228,13.23 0.117,4.488 0.088,8.978 0.088,13.468 0,10.654 -0.075,11.26 -1.3191,23.718 -0.5446,5.453 -1.8976,10.759 -2.4185,16.21 -0.1087,1.137 -0.024,2.736 -0.3957,3.893 -0.087,0.271 -0.5535,0.938 -0.3079,0.795 7.2252,-4.197 8.1444,-5.229 17.9847,-7.787 6.7797,-1.762 6.269,2.35 4.5731,1.43"
       id="path1137" /><path
       style="fill:none;stroke:#00ffff;stroke-width:1"
       d="m 4063.2353,22203.983 c 3.7739,0.04 3.2171,0.244 6.6398,-0.437 0.7554,-0.151 1.5127,-0.311 2.2426,-0.556 9.1264,-3.072 -3.2127,-7.509 -4.1334,-6.556 -2.0656,2.138 -3.5641,4.822 -4.749,7.549 -0.8844,2.035 -1.4931,4.3 -1.3631,6.515 0.3913,6.671 10.6424,11.561 14.9505,6"
       id="path1139" /><path
       style="fill:none;stroke:#00ffff;stroke-width:1"
       d="m 4099.2486,22196.236 c 8.4408,-2.448 0.054,-6.658 -0.3078,-4.808 -0.3078,1.576 0.8987,3.315 0.3078,4.808 -4.508,11.389 -6.2672,2.568 -4.705,12.753 0.1716,1.119 3.9235,10.174 2.3745,8.542"
       id="path1141" /><path
       style="fill:none;stroke:#00ffff;stroke-width:1"
       d="m 4088.1676,22209.783 c 2.885,-2.733 16.0379,-7.592 17.8967,-3.933 0.2735,0.538 -0.5276,1.086 -0.7915,1.629"
       id="path1143" /><path
       style="fill:none;stroke:#00ffff;stroke-width:1"
       d="m 4069.6553,22228.853 c 1.2391,-10.395 3.798,-7.854 0,0 z"
       id="path1145" /><path
       style="fill:none;stroke:#00ffff;stroke-width:1"
       d="m 4071.678,22234.455 c 2.0763,3.559 -3.6907,24.006 0.5716,14.462"
       id="path1147" /><path
       style="fill:none;stroke:#00ffff;stroke-width:1"
       d="m 4093.5322,22228.695 c 5.1905,5.621 9.4076,15.682 1.0993,20.897 -6.9407,4.357 -8.2079,-4.651 -7.871,-9.217"
       id="path1149" /><path
       style="fill:none;stroke:#00ffff;stroke-width:1"
       d="m 4092.6088,22223.887 c -0.2042,3.003 -4.5823,10.682 0,0 z"
       id="path1151" /><path
       style="fill:none;stroke:#00ffff;stroke-width:1"
       d="m 4102.8543,22172.239 c 4.332,4.631 12.2644,5.609 15.4783,11.442 4.5699,8.294 2.5594,19.765 3.6497,29.003 1.4155,11.993 3.7875,23.685 6.5518,35.438 1.2491,5.311 2.6744,10.579 3.9135,15.892 0.179,0.767 2.3544,8.488 1.0994,9.773 -0.4309,0.442 -5.9131,-0.614 -6.5519,-0.556 -5.9344,0.536 -9.4054,1.335 -15.4342,2.503 -1.5851,0.307 -3.1578,0.68 -4.7491,0.954 -0.5657,0.1 -1.8333,0.72 -1.7149,0.158 0.2393,-1.135 1.4951,-1.774 2.2426,-2.661"
       id="path1153" /><path
       style="fill:none;stroke:#00ffff;stroke-width:1"
       d="m 3538.085,22295.607 c 0.4983,-1.536 0.9541,-3.087 1.495,-4.608 0.2879,-0.81 4.2982,-11.332 4.6611,-12.277 1.6404,-4.27 1.967,-5.04 2.0227,-4.886 1.9581,5.411 1.2879,12.56 1.8908,18.196 0.167,1.561 0.5135,5.326 1.7589,4.37 2.234,-1.716 4.6278,-8.261 5.1887,-9.853 1.1773,-3.341 2.0204,-6.79 3.0781,-10.171 0.1154,-0.368 0.1366,-1.312 0.4397,-1.072 0.4315,0.341 0.1805,1.085 0.2638,1.629 0.3125,2.038 0.5695,4.086 0.9235,6.118 1.1637,6.681 2.1731,13.708 4.3532,20.143"
       id="path1155" /><path
       style="fill:none;stroke:#00ffff;stroke-width:1"
       d="m 3582.6289,22293.224 c -1.0293,4.825 -3.355,14.715 -0.5717,18.95"
       id="path1161" /><path
       style="fill:none;stroke:#00ffff;stroke-width:1"
       d="m 3602.8561,22295.17 c -1.8175,1.338 -3.9006,2.375 -5.4525,4.013 -1.4595,1.541 -2.7226,3.363 -3.4299,5.363 -2.1227,6.005 -2.5716,11.46 4.793,8.661 5.8309,-2.215 10.5395,-7.316 7.3873,-13.746 -0.794,-1.62 -1.5172,-4.002 -3.2979,-4.291 -2.3824,-0.386 -14.0128,3.347 -12.1363,8.701 0.612,1.746 1.676,-0.303 2.0667,-0.715"
       id="path1163" /><path
       style="fill:none;stroke:#00ffff;stroke-width:1"
       d="m 3597.6674,22290.88 c 0.7792,-2.138 1.5238,-4.759 3.0341,-6.556 1.7949,-2.135 1.4375,5.477 1.3192,8.264 -0.3498,8.236 -3.1095,16.205 -3.4738,24.433 -0.09,2.027 0.2685,4.068 2.1546,2.543"
       id="path1165" /><path
       style="fill:none;stroke:#00ffff;stroke-width:1"
       d="m 3618.1585,22281.662 c 2.8567,1.044 15.1027,-3.754 9.41,1.868"
       id="path1167" /><path
       style="fill:none;stroke:#00ffff;stroke-width:1"
       d="m 3616.8393,22292.508 c 4.9255,1.43 9.7846,-2.586 14.6428,-1.708"
       id="path1169" /><path
       style="fill:none;stroke:#00ffff;stroke-width:1"
       d="m 3651.0937,22290.76 c 0.2741,0.249 -7.2772,7.51 -5.2327,8.622 19.434,10.562 -5.7939,-6.035 9.6299,2.94 1.5704,0.913 3.1548,1.934 4.3094,3.337 2.2034,2.677 3.6045,9.073 -0.3079,11.442 -7.7131,4.67 -13.8293,-4.829 -9.7618,-10.648"
       id="path1189" /><path
       style="fill:none;stroke:#00ffff;stroke-width:1"
       d="m 3672.7281,22299.421 c -1.0009,1.422 -6.1189,8.042 -2.2426,10.012 4.1209,2.094 12.3599,-5.869 9.8938,-10.091 -0.6746,-1.155 -1.9023,1.113 -2.0228,6.555 -0.085,3.849 0.4309,6.87 1.4511,10.608 1.0239,3.751 2.9624,4.779 4.4412,0.993"
       id="path1191" /><path
       style="fill:none;stroke:#00ffff;stroke-width:1"
       d="m 3688.1624,22300.295 c 0.2198,1.272 0.4011,2.55 0.6595,3.814 0.416,2.035 0.7784,4.087 1.3632,6.079 3.0156,10.275 2.9267,6.857 5.4086,-2.026 1.3982,-5.005 1.9469,-12.039 1.0114,-2.424"
       id="path1193" /><path
       style="fill:none;stroke:#00ffff;stroke-width:1"
       d="m 3704.7399,22314.161 c 1.5091,-7.424 1.2053,-3.854 1.1433,-10.687 0.3518,-2.9 0.7035,-5.801 1.0553,-8.701 -2.3166,11.634 14.7595,7.782 16.6655,16.448 1.3716,6.236 -12.8587,14.353 -13.4995,6.873 -0.2826,-3.299 0.8501,-6.568 1.2752,-9.853"
       id="path1195" /><path
       style="fill:none;stroke:#00ffff;stroke-width:1"
       d="m 3721.1416,22296.203 c 1.9348,2.397 4.4683,4.416 5.8043,7.191 0.9068,1.884 0.4801,4.155 0.6596,6.238 0.1076,1.249 0.062,4.772 0.7036,3.695 1.2386,-2.081 1.8998,-4.48 3.2099,-6.516 0.9093,-1.413 1.8725,-3.004 3.3859,-3.735 3.2259,-1.556 5.3098,16.435 5.7603,18.157"
       id="path1197" /><path
       style="fill:none;stroke:#00ffff;stroke-width:1"
       d="m 3777.8658,22273.16 c -0.6293,0.85 4.9761,-5.565 2.7263,-6.436 -1.2811,-0.496 -3.6715,1.989 -3.7816,2.106 -6.828,7.231 -9.5675,17.318 -11.3449,26.817 -3.5823,19.146 -4.7338,40.366 5.6724,57.727 3.73,6.222 9.2335,9.724 13.7194,15.097"
       id="path1199" /><path
       style="fill:none;stroke:#00ffff;stroke-width:1"
       d="m 3806.4918,22291.873 c -0.2906,-0.377 -13.5109,2.044 -13.7194,2.86 -1.5147,5.931 2.2084,19.813 2.4625,26.659 0.306,8.245 -0.6964,16.481 -0.4837,24.711 0.163,6.309 1.5371,12.35 1.1872,18.673 -0.1182,2.136 -1.6237,8.43 -1.2312,8.82 0.1048,0.104 23.6549,-7.156 19.04,-1.47"
       id="path1201" /><path
       style="fill:none;stroke:#00ffff;stroke-width:1"
       d="m 3847.0782,22296.998 c -2.7086,2.176 -11.6366,8.237 -8.0909,13.071 2.9221,3.983 10.4282,-1.14 12.5321,-3.417 2.4733,-2.677 1.1703,-5.265 0.4837,-2.304 -0.4313,1.86 0.9166,14.258 4.2213,11.72"
       id="path1203" /><path
       style="fill:none;stroke:#00ffff;stroke-width:1"
       d="m 3868.2728,22295.528 c 0.8355,1.682 1.7354,3.333 2.5064,5.046 0.7984,1.773 1.4213,3.62 2.1987,5.403 5.3026,12.158 0.2105,3.304 2.7263,-3.695 0.5046,-1.404 1.8582,-3.735 3.8695,-2.503 10.1285,6.202 -4.4412,30.397 -4.4412,9.813"
       id="path1205" /><path
       style="fill:none;stroke:#00ffff;stroke-width:1"
       d="m 3901.6478,22294.018 c -13.5912,8.676 -3.6857,26.115 10.2016,17.6"
       id="path1207" /><path
       style="fill:none;stroke:#00ffff;stroke-width:1"
       d="m 3840.0426,22326.278 c 0.9234,1.682 1.9965,3.29 2.7703,5.046 1.8725,4.249 2.8052,10.616 -1.0994,14.144 -1.6578,1.497 -4.0395,1.242 -5.2766,-0.755 -3.8304,-6.185 -0.2652,-16.008 8.2228,-12.356"
       id="path1209" /><path
       style="fill:none;stroke:#00ffff;stroke-width:1"
       d="m 3860.2259,22336.012 c 4.5049,-0.04 3.7417,0.301 7.6512,-0.834 14.0479,-4.08 -6.5135,-9.413 -7.6512,0.834 -0.919,8.278 9.4421,12.755 15.3463,8.701"
       id="path1211" /><path
       style="fill:none;stroke:#00ffff;stroke-width:1"
       d="m 3905.6053,22325.881 c -1.4071,0.45 -3.1018,0.387 -4.2213,1.351 -3.0661,2.64 -1.1985,9.41 0.088,12.197 0.8474,1.836 4.8307,5.291 5.1448,6.237 0.1544,0.466 -0.9752,-0.121 -1.4512,-0.238"
       id="path1213" /><path
       style="fill:none;stroke:#00ffff;stroke-width:1"
       d="m 3895.2718,22341.455 c 5.7453,-2.256 11.4038,-3.258 17.501,-3.258"
       id="path1215" /><path
       style="fill:none;stroke:#00ffff;stroke-width:1"
       d="m 3836.8913,22359.764 c 1.8242,4.989 1.6746,10.161 2.1987,15.335 0.084,0.826 0.097,3.105 0.5716,2.424 1.9543,-2.801 1.5584,-8.872 4.6171,-10.806 3.2846,-2.078 5.2542,12.669 5.6284,14.262"
       id="path1233" /><path
       style="fill:none;stroke:#00ffff;stroke-width:1"
       d="m 3868.8152,22357.301 c -2.9109,-5.448 -1.9146,-6.001 0,0 z"
       id="path1235" /><path
       style="fill:none;stroke:#00ffff;stroke-width:1"
       d="m 3869.0351,22372.12 c 0.8709,0 -0.8293,21.786 0.7035,15.455"
       id="path1237" /><path
       style="fill:none;stroke:#00ffff;stroke-width:1"
       d="m 3894.1872,22362.863 c 5.671,3.895 10.4198,13.627 2.9901,18.712 -4.0848,2.796 -8.1762,-2.443 -8.7944,-5.959 -0.247,-1.405 0.3224,-2.834 0.4837,-4.251"
       id="path1239" /><path
       style="fill:none;stroke:#00ffff;stroke-width:1"
       d="m 3887.2836,22361.234 c 4.4821,0.08 15.7728,-3.706 18.1165,0.318"
       id="path1241" /><path
       style="fill:none;stroke:#00ffff;stroke-width:1"
       d="m 3909.9293,22288.41 c 5.2501,-0.537 14.1639,-2.186 17.8528,3.059 2.7346,3.889 0.3122,17.188 0.5715,21.573 0.9786,16.545 3.8352,33.015 5.1888,49.543 0.5376,6.564 0.9173,13.007 1.9788,19.507 0.033,0.201 0.9171,3.328 0.4397,3.576 -7.2022,3.738 -19.8738,5.63 -27.8345,7.548 -3.3542,0.808 -7.8022,2.1 -8.2668,1.112 -0.4506,-0.958 0.7329,-1.986 1.0994,-2.979"
       id="path1243" /><path
       style="fill:none;stroke:#00ffff;stroke-width:1"
       d="m 3874.5316,22280.067 c -0.8096,6.409 -1.2456,8.96 -1.583,15.574 -0.7797,15.283 -0.7003,30.601 -1.4951,45.887 -0.9739,18.733 -3.1149,37.43 -4.8809,56.098 -0.02,0.213 -0.082,-0.422 -0.088,-0.636 -0.067,-2.264 -0.1563,-4.528 -0.1319,-6.793 0.1594,-14.775 0.7419,-22.478 2.4185,-38.736 1.7149,-16.63 5.042,-32.88 8.6185,-49.185 0.4647,-2.119 3.7547,-15.692 3.7376,-18.355 0,-0.806 -1.2517,1.093 -1.583,1.827 -1.1761,2.609 -3.561,12.416 -3.9135,14.223 -4.9047,25.152 -5.3596,50.776 -7.959,76.201 -0.4225,4.133 -1.0743,8.239 -1.6269,12.356 -0.2829,2.107 -0.5762,4.213 -0.8795,6.317 -0.1071,0.743 -0.3283,2.975 -0.3518,2.225 -0.559,-17.866 0.3059,-36.389 1.8469,-54.112 0.6311,-7.258 1.5603,-14.493 2.6823,-21.692 1.8669,-11.978 4.3301,-24.462 6.6838,-36.511 0.1025,-0.525 -0.1378,1.061 -0.2199,1.589 -0.3869,2.491 -0.8691,4.969 -1.1872,7.469 -2.7562,21.665 -3.4737,43.363 -5.0568,65.117 -0.336,4.616 -0.7927,9.223 -1.2753,13.825 -0.2797,2.669 -0.5807,5.338 -1.0113,7.986 -0.028,0.175 -0.3413,0.574 -0.3518,0.397 -0.3981,-6.67 0.084,-15.488 0.3078,-21.811 0.3264,-9.204 0.6627,-18.408 1.0114,-27.612 1.062,-28.033 0.8146,-13.085 0.8794,-38.1"
       id="path1245" /><path
       style="fill:none;stroke:#00ffff;stroke-width:1"
       d="m 3804.7036,22309.069 c 2.228,0.212 4.4994,0.15 6.6838,0.636 9.5513,2.127 9.402,3.849 19.1719,6.675 15.9683,4.618 22.1242,5.414 39.4432,5.522 7.5709,0.05 15.1322,-0.579 22.6897,-1.033 6.3249,-0.38 12.6349,-0.977 18.952,-1.47 6.3999,-0.499 13.0465,-3.045 19.2159,-1.271 0.1766,0.05 -0.3441,0.151 -0.5277,0.159 -0.8496,0.03 -1.7008,0 -2.5503,-0.04 -1.4521,-0.06 -2.9022,-0.159 -4.3533,-0.239 -2.4625,-0.119 -4.924,-0.26 -7.3874,-0.357 -5.3985,-0.213 -17.0203,-0.497 -21.9421,-0.755 -19.4127,-1.016 -21.6026,-1.879 -44.6759,-2.702 -1.9741,-0.07 -28.1604,1.522 -31.3522,-0.476 -0.746,-0.467 0.7683,-1.721 1.539,-2.146 2.4488,-1.35 5.0791,-2.501 7.8271,-3.019 28.4346,-5.363 57.7614,-4.534 86.5375,-5.522 2.3029,-0.08 4.6011,-0.266 6.9036,-0.358 0.3517,-0.01 1.3934,-0.06 1.0553,0.04 -7.0449,2.041 -15.3725,2.573 -22.4698,3.853 -21.6117,3.9 -42.9467,8.653 -64.7272,11.681 -3.7433,0.52 -7.5219,0.866 -11.3009,0.914 -1.4993,0.02 -3.9375,0.697 -4.4412,-0.715 -0.395,-1.108 5.0355,-4.291 10.2895,-6.039 21.4477,-7.137 40.8277,-1.763 62.7485,2.185 6.1646,1.11 12.2358,2.727 18.4243,3.695 4.1591,0.65 8.3669,1.101 12.5761,1.152 0.4057,0 0.9941,-0.71 0.7036,-0.993 -5.6807,-5.538 -15.1876,-4.841 -23.0415,-5.96 -17.0943,-2.435 -34.5712,-0.274 -51.4476,2.463 -4.4939,0.729 -8.9393,1.731 -13.4115,2.583 -3.6627,0.697 -7.289,2.491 -10.9931,2.066 -1.1128,-0.128 0.015,-2.628 0.9674,-3.218 6.6181,-4.104 19.2047,-6.688 26.4274,-7.748 21.2481,-3.118 42.8793,-4.914 63.5399,1.669"
       id="path1247" /><path
       style="fill:none;stroke:#00ffff;stroke-width:1"
       d="m 3943.6561,22276.571 c 1.2665,10.456 6.9227,19.767 10.4213,29.678 13.4501,38.098 22.4383,67.857 -5.5844,102.144 -2.3249,2.844 -11.6298,13.886 -16.9733,12.197"
       id="path1249" /><path
       style="fill:none;stroke:#00ffff;stroke-width:1"
       d="m 3986.8368,22339.423 c 7.2755,3.533 15.8508,-1.833 23.1295,-0.04"
       id="path1251" /><path
       style="fill:none;stroke:#00ffff;stroke-width:1"
       d="m 3985.2538,22354.321 c 8.3275,-1.719 19.8486,-7.83 28.4061,-3.854"
       id="path1253" /><path
       style="fill:none;stroke:#00ffff;stroke-width:1"
       d="m 4049.8051,22310.857 c -4.6921,0.892 -10.9216,-0.331 -15.4782,1.669 -0.6463,0.283 0.121,1.407 0.2198,2.105 0.4697,3.321 0.3151,5.23 0.1759,8.741 -0.4911,12.388 -0.5344,25.115 -2.7263,37.345 -1.2339,6.885 -3.6817,13.44 -5.4525,20.183 -0.4325,1.647 -0.7277,3.327 -1.1873,4.966 -0.4916,1.753 -1.1304,2.81 -0.8794,2.861 0.985,0.197 11.2065,-4.16 11.8285,-4.291 3.8536,-0.813 7.7856,-1.205 11.6966,-1.669 0.8804,-0.104 5.069,-0.475 4.3533,1.788"
       id="path1255" /><path
       style="fill:none;stroke:#00ffff;stroke-width:1"
       d="m 4074.7813,22314.711 c 6.0861,3.046 9.8225,9.939 9.3662,16.885 -0.2805,4.268 -5.8865,10.859 -10.5095,6.714 -5.1899,-4.653 0.081,-13.828 6.2882,-11.958"
       id="path1257" /><path
       style="fill:none;stroke:#00ffff;stroke-width:1"
       d="m 4114.3124,22315.466 c -0.01,-0.642 1.0495,-4.491 -1.3631,-4.092 -2.5063,0.414 -4.9169,2.741 -6.0682,4.767 -3.7962,6.681 -0.8242,13.412 2.9022,19.189 0.9381,1.455 2.6892,2.829 0.4837,3.576"
       id="path1259" /><path
       style="fill:none;stroke:#00ffff;stroke-width:1"
       d="m 4100.769,22331.04 c 3.5882,-4.457 19.0133,-6.871 18.8641,-3.099"
       id="path1261" /><path
       style="fill:none;stroke:#00ffff;stroke-width:1"
       d="m 4060.4904,22360.32 c 0.7328,1.536 1.7665,2.963 2.1986,4.609 0.466,1.775 0,12.593 0,12.594 0.1583,0.214 0.1397,-0.519 0.2638,-0.755 0.5957,-1.131 1.1554,-2.291 1.8908,-3.337 1.2739,-1.812 5.7958,-8.14 8.3108,-3.814 1.4828,2.55 0.9805,5.283 1.671,7.985"
       id="path1263" /><path
       style="fill:none;stroke:#00ffff;stroke-width:1"
       d="m 4105.1662,22359.089 c 1.5097,2.224 3.4201,4.225 4.5292,6.674 2.8323,6.256 -1.0491,16.75 -7.8711,18.713 -5.26,1.513 -6.6133,-5.254 -5.7604,-8.741 0.2601,-1.063 1.0261,-1.933 1.5391,-2.9"
       id="path1265" /><path
       style="fill:none;stroke:#00ffff;stroke-width:1"
       d="m 4114.9281,22295.403 c 7.2651,6.807 13.8935,3.887 19.8754,13.627 3.0074,4.896 0.5604,16.752 0.5717,21.771 0.032,14.427 1.39,28.936 2.0667,43.345 0.3708,7.896 0.4069,16.253 2.8581,23.877 0.9456,2.942 2.5382,2.987 2.0668,2.742 -8.0859,-4.215 -17.9692,-3.255 -26.8231,-3.139 -2.4485,0.03 -4.8968,0.1 -7.3435,0.199 -1.7459,0.07 -3.4892,0.198 -5.2326,0.318 -0.1919,0.01 -0.7555,0.136 -0.5716,0.08 1.4716,-0.453 2.9608,-0.848 4.4412,-1.271"
       id="path1267" /><path
       style="fill:none;stroke:#00ffff;stroke-width:1"
       d="m 3532.5039,22442.169 c 2.3069,-6.022 1.916,-5.091 4.5731,-11.601 0.9582,-2.348 1.9344,-4.688 2.9021,-7.032 1.0991,-2.662 2.0945,-5.369 3.2979,-7.986 0.117,-0.254 0.357,-0.982 0.4398,-0.715 1.3684,4.416 -1.5945,25.715 1.4511,28.128 0.8338,0.661 2.6643,-1.956 4.8369,-6.714 2.8286,-6.195 3.2079,-9.003 5.1008,-15.931 0.5939,-2.174 1.1138,-4.37 1.8028,-6.516 0.1354,-0.421 0.3575,-1.475 0.6597,-1.152 0.7076,0.757 0.7287,1.943 1.0113,2.94 0.6414,2.263 1.1796,4.554 1.7589,6.833 0.5346,2.104 1.0307,4.218 1.583,6.317 1.2545,4.769 2.4321,9.338 4.5292,13.786"
       id="path1269" /><path
       style="fill:none;stroke:#00ffff;stroke-width:1"
       d="m 3582.4124,22432.673 c -7.6015,-1.924 -16.8553,17.801 -9.0583,20.66 4.8327,1.772 19.5455,-7.788 16.4896,-13.349 -3.4573,-6.292 -13.9218,1.554 -17.8088,3.496 -4.9097,2.452 0.4415,-3.275 2.6823,-6.913 0.4403,-0.715 0.8795,-1.43 1.3192,-2.145"
       id="path1273" /><path
       style="fill:none;stroke:#00ffff;stroke-width:1"
       d="m 3580.3457,22426.595 c 3.6549,8.676 -3.898,31.272 -0.3958,40.206 0.2793,0.712 0.9296,-1.591 2.1547,-5.403"
       id="path1275" /><path
       style="fill:none;stroke:#00ffff;stroke-width:1"
       d="m 3599.1218,22436.488 c -0.088,-1.735 -0.6221,-3.505 -0.2638,-5.205 0.8119,-3.851 5.5211,-0.558 6.288,0.755 3.4683,5.939 2.3134,12.88 -0.7035,18.712 -1.0018,1.937 -4.8125,8.076 -8.2668,7.787 -1.1795,-0.1 0.6206,-2.489 1.583,-3.178 5.0724,-3.631 9.943,-3.596 15.8301,-2.106 0.7554,0.192 4.4872,2.882 4.1773,1.669"
       id="path1277" /><path
       style="fill:none;stroke:#00ffff;stroke-width:1"
       d="m 3623.6144,22421.827 c 1.2899,0.874 2.3657,2.215 3.8696,2.623 2.8956,0.784 5.9427,-0.838 8.9263,-1.153 0.3458,-0.04 5.8411,0.376 6.464,-0.238 0.2656,-0.262 0.068,-0.649 0,-0.914"
       id="path1283" /><path
       style="fill:none;stroke:#00ffff;stroke-width:1"
       d="m 3624.4499,22432.435 c 7.5698,3.769 14.4029,0.25 22.1181,-0.278"
       id="path1285" /><path
       style="fill:none;stroke:#00ffff;stroke-width:1"
       d="m 3688.4295,22403.155 c -1.968,0.8 -13.1637,3.052 -14.6427,5.641 -0.094,0.165 1.2219,11.868 1.2312,12.952 0.1053,12.276 -0.5913,27.168 -3.254,39.133 -0.4106,1.846 -1.0394,3.008 -2.2865,4.291 -0.5008,0.515 -2.152,1.885 -1.539,1.51 5.7619,-3.527 11.8288,-5.773 18.4683,-6.675 2.1312,-0.289 8.8982,-1.398 6.8157,1.629 -0.1204,0.175 -0.3517,0.239 -0.5276,0.358"
       id="path1287" /><path
       style="fill:none;stroke:#00ffff;stroke-width:1"
       d="m 3709.4483,22400.771 c -0.6497,4.06 -0.6934,2.838 -0.3078,7.27 0.776,8.92 0.4324,1.498 0.7915,9.098 0.1393,2.949 0.071,3.806 0.1319,3.616 1.315,-4.113 1.3792,-8.282 4.6171,-11.641 4.1026,-4.256 7.6332,4.871 7.5633,7.588 -0.2912,11.313 -14.5999,9.183 -9.4981,-0.437"
       id="path1289" /><path
       style="fill:none;stroke:#00ffff;stroke-width:1"
       d="m 3744.3623,22401.049 c -2.3452,2.887 -5.1205,5.472 -7.0355,8.661 -5.9505,9.908 0.033,14.483 9.6738,11.204 0.7011,-0.239 9.9204,-3.472 5.6285,-4.53"
       id="path1291" /><path
       style="fill:none;stroke:#00ffff;stroke-width:1"
       d="m 3710.1519,22443.599 c 3.2629,-0.717 8.4712,1.82 11.5207,-0.397 3.4509,-2.51 -8.1653,-9.106 -10.3775,-4.927 -0.8491,1.604 -0.4166,3.661 -1.1432,5.324 -1.2749,2.918 -4.1429,5.146 -4.7931,8.264 -0.3561,1.707 1.0043,3.424 2.0668,4.807 5.0163,6.531 13.5545,2.499 18.7322,-0.715"
       id="path1293" /><path
       style="fill:none;stroke:#00ffff;stroke-width:1"
       d="m 3745.2857,22436.329 c -6.7079,2.732 -8.0154,7.776 -5.1887,14.501 1.7838,4.244 6.1741,7.231 3.2979,7.231"
       id="path1295" /><path
       style="fill:none;stroke:#00ffff;stroke-width:1"
       d="m 3732.2699,22453.055 c 6.9461,-3.463 13.3731,-3.61 20.623,-4.728"
       id="path1297" /><path
       style="fill:none;stroke:#00ffff;stroke-width:1"
       d="m 3750.6503,22395.606 c 22.2012,-5.995 19.5667,25.361 21.6784,38.776 0.6478,4.115 1.5515,9.337 3.0341,13.428 0.481,1.328 1.0979,2.606 1.7589,3.854 0.043,0.08 2.1892,2.594 2.1106,3.139 -0.5696,3.945 -22.6756,9.023 -25.8557,9.813 -0.5675,0.141 -7.1044,1.611 -7.2994,1.39 -0.5227,-0.59 1.1613,-0.605 5.9802,-0.993"
       id="path1299" /><path
       style="fill:none;stroke:#00ffff;stroke-width:1"
       d="m 3532.7805,22525.035 c -0.3849,-2.55 1.0131,-16.441 4.1334,-17.084 1.5222,-0.313 3.7208,9.165 4.0454,10.608 0.2171,0.965 0.4519,3.69 0.9235,2.821 3.7217,-6.866 -0.8686,-2.772 5.7603,-12.078 3.4448,-4.836 7.618,17.742 8.1789,18.514 0.2964,0.408 0.6512,-0.782 0.8794,-1.232"
       id="path1301" /><path
       style="fill:none;stroke:#00ffff;stroke-width:1"
       d="m 3570.157,22525.909 c 0.3931,4.97 0.3911,24.07 1.8028,16.964"
       id="path1303" /><path
       style="fill:none;stroke:#00ffff;stroke-width:1"
       d="m 3583.5245,22525.512 c 2.3816,6.571 0.4734,13.322 1.2752,20.023"
       id="path1305" /><path
       style="fill:none;stroke:#00ffff;stroke-width:1"
       d="m 3609.9079,22510.494 c 3.1806,-1.271 6.2341,-2.925 9.542,-3.814 2.8972,-0.779 5.9354,-0.918 8.9263,-1.152 1.2782,-0.101 3.9623,-0.181 3.6937,1.072 -0.1544,0.721 -0.9967,1.086 -1.4951,1.629"
       id="path1307" /><path
       style="fill:none;stroke:#00ffff;stroke-width:1"
       d="m 3615.8002,22520.665 c -0.6889,1.112 -3.1791,2.648 -2.0667,3.337 1.1124,0.689 0.8029,-2.998 2.0667,-3.337 2.0816,-0.559 4.2292,1.263 6.376,1.072 5.7215,-0.509 11.098,-4.113 16.9293,-4.489"
       id="path1309" /><path
       style="fill:none;stroke:#00ffff;stroke-width:1"
       d="m 3682.0678,22493.939 c -11.5554,-2.488 -11.3643,22.437 0.1319,17.6 3.6862,-1.552 12.0602,-8.839 8.1788,-13.826 -0.5472,-0.703 -1.7634,-0.775 -1.6709,0.437 0.067,0.881 0.3366,1.76 0.7475,2.543 0.7011,1.334 1.6343,2.537 2.5504,3.734 2.1006,2.745 5.0582,4.938 5.8923,8.383"
       id="path1311" /><path
       style="fill:none;stroke:#00ffff;stroke-width:1"
       d="m 3727.4032,22488.059 c -2.9462,3.589 -6.6399,6.677 -8.8384,10.766 -1.9732,3.671 -1.4405,9.461 1.9787,12.237 3.5026,2.843 18.5681,2.521 15.3903,-0.159"
       id="path1313" /><path
       style="fill:none;stroke:#00ffff;stroke-width:1"
       d="m 3685.4097,22531.642 c 0.5716,2.172 1.261,4.316 1.7149,6.515 0.2613,1.267 1.2272,9.583 1.3631,10.727 0.1208,1.017 0.055,3.734 0.7475,2.98 2.382,-2.594 2.9929,-7.101 6.0682,-9.178 5.0151,-3.386 8.4059,8.351 8.6626,11.442"
       id="path1315" /><path
       style="fill:none;stroke:#00ffff;stroke-width:1"
       d="m 3724.1932,22532.873 c 5.0065,4.939 9.0293,11.88 4.1774,18.594 -1.0903,1.508 -2.4276,3.158 -4.2214,3.655 -2.1568,0.597 -4.8161,0.597 -6.6837,-0.636 -3.0241,-1.997 -2.5721,-8.156 -2.6823,-10.926"
       id="path1317" /><path
       style="fill:none;stroke:#00ffff;stroke-width:1"
       d="m 3715.003,22529.894 c 4.1385,-0.539 14.6007,-5.124 18.0726,-1.987"
       id="path1319" /><path
       style="fill:none;stroke:#00ffff;stroke-width:1"
       d="m 3728.2387,22479.398 c 5.1626,1.622 19.428,-2.471 21.2386,5.443 0.9422,4.118 0.068,8.449 0.044,12.673 -0.06,10.556 -0.6582,10.593 0.7476,21.096 0.8627,6.447 2.0026,11.227 3.6937,17.322 1.7212,6.205 4.2623,12.279 4.0014,18.832 -0.057,1.443 -2.5314,0.777 -3.166,0.795 -5.8854,0.163 -5.919,0.317 -12.3122,1.43 -1.4219,0.247 -10.9542,3.142 -6.332,0.04"
       id="path1321" /><path
       style="fill:none;stroke:#00ffff;stroke-width:1"
       d="m 3673.0974,22482.814 c -2.0066,0.851 -11.0462,3.586 -12.1803,5.165 -1.0954,1.526 2.1936,3.05 3.2979,4.569 3.2829,4.517 3.8193,7.316 4.3973,13.111 1.0279,10.306 0.1219,21.1 0.044,31.426 -0.068,9.017 0.066,17.536 -1.8028,26.38 -0.2519,1.192 -0.364,2.509 -1.4511,3.218 -1.1285,0.736 2.3124,-1.45 3.6057,-1.828 5.891,-1.722 12.2379,-3.209 18.4244,-2.979 3.7682,0.14 6.6523,1.568 4.2213,5.006"
       id="path1323" /><path
       style="fill:none;stroke:#00ffff;stroke-width:1"
       d="m 3518.2788,22633.21 c 3.9062,1.936 13.3444,5.561 17.7648,3.774 4.954,-2.002 -7.2285,-18.014 -11.6087,-14.462 -5.2677,4.273 -5.1049,5.268 -6.1561,10.688 -0.5508,2.84 -1.7809,5.658 -1.5391,8.541 1.1878,14.159 20.5714,20.923 32.2317,17.124"
       id="path1325" /><path
       style="fill:none;stroke:#00ffff;stroke-width:1"
       d="m 3574.6512,22627.965 c -6.0509,0.524 -4.6138,-0.721 -8.1348,6.953 -1.4462,3.152 -3.9163,9.132 -1.8908,12.992 3.2253,6.146 16.7904,5.037 19.4797,-0.517"
       id="path1327" /><path
       style="fill:none;stroke:#00ffff;stroke-width:1"
       d="m 3591.0529,22627.727 c 0.6156,-1.311 1.2312,-2.622 1.8468,-3.933 0.2492,-0.159 0.8732,-0.744 0.7476,-0.477 -0.7249,1.544 -2.7066,2.708 -2.5944,4.41 2.5341,38.447 4.7269,-5.656 3.4298,18.077 -0.12,2.196 0.1455,4.642 -1.2751,2.503"
       id="path1329" /><path
       style="fill:none;stroke:#00ffff;stroke-width:1"
       d="m 3582.4344,22626.376 c 6.1329,-8.37 2.5126,-6.461 16.3137,-6.396 3.334,0.01 4.4322,0.635 6.5958,1.827"
       id="path1331" /><path
       style="fill:none;stroke:#00ffff;stroke-width:1"
       d="m 3613.5667,22652.121 c -0.7768,-1.298 -1.9485,-2.43 -2.3305,-3.894 -0.1071,-0.41 0.8208,-0.212 1.2312,-0.317 0.3664,1.403 1.4978,5.606 1.0993,4.211 -2.8203,-9.874 -0.2857,-4.259 0,0 z"
       id="path1333" /></g></svg>
