<?xml version="1.0" encoding="UTF-8" standalone="no"?>
<!-- Created with Inkscape (http://www.inkscape.org/) -->

<svg
   width="2192.2539mm"
   height="3175.0608mm"
   viewBox="0 0 2192.2539 3175.0609"
   version="1.1"
   id="svg12"
   inkscape:version="1.2.1 (9c6d41e410, 2022-07-14, custom)"
   sodipodi:docname="subnet_ip_broadcast_scratch.svg"
   xml:space="preserve"
   xmlns:inkscape="http://www.inkscape.org/namespaces/inkscape"
   xmlns:sodipodi="http://sodipodi.sourceforge.net/DTD/sodipodi-0.dtd"
   xmlns="http://www.w3.org/2000/svg"
   xmlns:svg="http://www.w3.org/2000/svg"><sodipodi:namedview
     id="namedview14"
     pagecolor="#000000"
     bordercolor="#ffffff"
     borderopacity="1"
     inkscape:showpageshadow="0"
     inkscape:pageopacity="0"
     inkscape:pagecheckerboard="0"
     inkscape:deskcolor="#000000"
     inkscape:document-units="mm"
     showgrid="true"
     inkscape:zoom="0.076455755"
     inkscape:cx="3348.3418"
     inkscape:cy="1464.8995"
     inkscape:window-width="1366"
     inkscape:window-height="746"
     inkscape:window-x="0"
     inkscape:window-y="0"
     inkscape:window-maximized="1"
     inkscape:current-layer="layer1"
     inkscape:lockguides="true"><inkscape:grid
       type="xygrid"
       id="grid344"
       color="#969696"
       opacity="0.39215686"
       empcolor="#ffffff"
       empopacity="0.17254902"
       dotted="false"
       originx="-2885.5771"
       originy="-11276.423" /></sodipodi:namedview><defs
     id="defs9" /><g
     inkscape:label="Layer 1"
     inkscape:groupmode="layer"
     id="layer1"
     transform="translate(-2990.5769,-11424.922)"><path
       style="fill:none;stroke:#ffb380;stroke-width:6.00001"
       d="m 3060.6218,11458.857 c 2.8519,6.391 -1.8209,44.813 4.2243,46.381 1.4431,0.375 2.7334,-1.192 4.1,-1.788"
       id="path380" /><path
       style="fill:none;stroke:#ffb380;stroke-width:6.00001"
       d="m 3086.7129,11478.303 c 5.9155,58.048 73.2255,-18.452 11.0577,-3.576 -3.7674,0.902 -7.3718,2.385 -11.0577,3.576 z"
       id="path382" /><path
       style="fill:none;stroke:#ffb380;stroke-width:6.00001"
       d="m 3104.604,11448.687 c 4.5397,24.518 4.1841,49.524 6.3365,74.21"
       id="path384" /><path
       style="fill:none;stroke:#ffb380;stroke-width:6.00001"
       d="m 3162.1289,11493.28 c -4.7612,-15.76 -3.1382,-15.998 0,0 z"
       id="path386" /><path
       style="fill:none;stroke:#ffb380;stroke-width:6.00001"
       d="m 3199.7746,11437.287 c 36.6485,-20.25 19.5165,-5.438 17.8912,24.476 -0.6776,12.475 1.1184,24.551 1.1184,36.881"
       id="path388" /><path
       style="fill:none;stroke:#ffb380;stroke-width:6.00001"
       d="m 3203.6262,11480.203 c 9.8568,-0.92 19.0693,0.01 28.576,-2.57"
       id="path390" /><path
       style="fill:none;stroke:#ffb380;stroke-width:6.00001"
       d="m 3248.2299,11456.286 c 3.2716,-3.651 6.0838,-7.773 9.8152,-10.952 1.6206,-1.381 16.287,-10.078 16.1515,-2.347 -0.3177,18.164 -18.4057,46.003 -2.609,60.687"
       id="path392" /><path
       style="fill:none;stroke:#ffb380;stroke-width:6.00001"
       d="m 3254.6905,11484.003 c 15.866,-3.128 14.3317,-3.586 24.2274,-0.223"
       id="path394" /><path
       style="fill:none;stroke:#ffb380;stroke-width:6.00001"
       d="m 3314.8245,11502.78 c -0.3816,-24.329 11.3204,-30.334 0,0 z"
       id="path396" /><path
       style="fill:none;stroke:#ffb380;stroke-width:6.00001"
       d="m 3362.2854,11491.603 c 1.9466,3.838 2.9721,8.304 5.8396,11.512 7.2086,8.064 12.9906,-26.844 10.5606,-33.752 -6.7696,-19.248 -22.4991,-1.088 -23.1092,-1.453 -0.3368,-0.202 -0.6993,-13.443 -2.1122,-14.976 -2.4413,-2.65 -6.2121,-3.651 -9.3183,-5.477 16.6314,-7.08 33.3007,-4.395 50.3188,-7.041 23.1266,9.472 13.5807,15.659 22.2396,30.735 4.0123,6.986 8.462,-12.571 11.5547,-3.129 3.7293,11.385 6.7773,28.203 0.7455,39.452 -3.5735,6.664 -8.6611,-6.112 -9.1941,-6.818"
       id="path398" /><path
       style="fill:none;stroke:#ffb380;stroke-width:6.00001"
       d="m 3417.6982,11437.734 c 10.3767,-3.751 21.3058,-3.915 32.0548,-5.7"
       id="path400" /><path
       style="fill:none;stroke:#ffb380;stroke-width:6.00001"
       d="m 3474.3534,11500.991 c -2.0294,-3.911 -4.0587,-7.823 -6.0881,-11.735"
       id="path402" /><path
       style="fill:none;stroke:#ffb380;stroke-width:6.00001"
       d="m 3499.0779,11445.781 c 32.1477,-33.855 35.025,-7.664 18.1396,17.882 -2.4003,3.631 7.4983,-4.943 11.803,-5.588 11.7319,-1.759 24.0657,13.234 18.1396,24.476 -4.4331,8.409 -10.9535,15.827 -18.2636,21.905 -11.4896,9.552 -28.0546,5.171 -26.0914,-10.282"
       id="path404" /><path
       style="fill:none;stroke:#ffb380;stroke-width:6.00001"
       d="m 2998.8725,11675.899 c 0.083,-4.62 -0.8318,-9.366 0.2488,-13.859 1.3673,-5.684 15.3053,-13.452 12.4243,-0.111 -2.0641,9.557 -5.1555,18.872 -8.2003,28.164 -2.1174,6.462 -9.3427,12.902 -6.8334,19.223 0.5146,1.296 2.4318,-1.368 3.6031,-2.124 7.5438,-4.866 14.6357,-9.24 22.7367,-13.076"
       id="path406" /><path
       style="fill:none;stroke:#ffb380;stroke-width:6.00001"
       d="m 3051.5519,11715.016 c 9.0805,6.283 9.0858,-1.839 10.4365,-10.953 1.0834,-7.31 0.9681,-18.607 -5.5909,-23.694 -3.5772,-2.773 -6.5355,3.081 -8.8213,1.342 -5.1096,-3.889 -0.5273,-16.075 -6.2121,-19.112 8.0344,-1.08 16.0688,-2.16 24.1032,-3.241"
       id="path408" /><path
       style="fill:none;stroke:#ffb380;stroke-width:6.00001"
       d="m 3104.7284,11723.733 c 1.905,0.969 3.6385,3.411 5.7152,2.906 7.8068,-1.898 3.913,-21.368 2.4847,-24.923 -3.3895,-8.437 -7.8004,-14.337 -15.903,-18.441 -5.1967,-2.632 -8.7905,0.922 -8.8215,-0.112 -0.2569,-8.669 1.3586,-8.73 -1.2422,-17.546 -1.9918,-6.751 -4.7215,-13.263 -7.0821,-19.894 13.7326,-8.661 19.5841,-10.575 33.2974,-6.37"
       id="path410" /><path
       style="fill:none;stroke:#ffb380;stroke-width:6.00001"
       d="m 3159.8924,11704.063 c -0.041,3.465 -3.5888,10.352 -0.1241,10.394 3.4645,0.04 0.083,-6.929 0.1241,-10.394 z"
       id="path412" /><path
       style="fill:none;stroke:#ffb380;stroke-width:6.00001"
       d="m 3183.8716,11654.441 c 31.224,-2.747 -10.6545,46.893 10.809,40.458 5.0795,-1.523 11.0776,-2.768 15.4064,-5.477"
       id="path414" /><path
       style="fill:none;stroke:#ffb380;stroke-width:6.00001"
       d="m 3270.9663,11673.775 c -3.0294,-3.456 -23.5418,15.679 -31.8063,9.388 -8.2365,-6.269 -0.6797,-19.386 0.6212,-27.046 0.313,-1.843 -0.7654,-6.147 -0.7456,-5.923 0.176,1.977 17.4117,53.823 22.1155,51.746 2.0696,-0.914 2.5678,-3.726 3.8515,-5.588"
       id="path420" /><path
       style="fill:none;stroke:#ffb380;stroke-width:6.00001"
       d="m 3285.1303,11652.652 c 12.1978,12.534 33.6245,16.564 26.3395,38.111 -1.901,5.623 -7.5112,14.036 -13.5424,16.318 -8.813,3.334 -6.1331,-13.953 -6.0881,-14.194 3.2203,-17.262 14.959,-33.779 21.9911,-48.952 1.6214,-3.498 6.3937,-12.139 0.4969,-15.758 -5.3718,-3.298 -29.9429,2.458 -28.4517,4.47 0.776,1.047 2.5678,-0.447 3.8515,-0.671"
       id="path422" /><path
       style="fill:none;stroke:#ffb380;stroke-width:6.00001"
       d="m 3364.7704,11694.116 c -16.6685,21.046 -12.5344,-15.917 -6.2122,-15.423 5.5256,0.432 10.8321,18.485 6.2122,15.423 -5.4512,-3.613 -6.5434,-11.325 -9.8153,-16.988"
       id="path424" /><path
       style="fill:none;stroke:#ffb380;stroke-width:6.00001"
       d="m 3407.6345,11640.806 c -3.106,-0.112 -6.4921,-1.629 -9.3184,-0.336 -17.4135,7.972 -3.0826,62.845 37.7703,29.506 15.4059,-12.573 -17.3617,-32.237 -28.4519,-29.17 -19.4318,5.373 -29.2693,31.848 -12.4243,10.841"
       id="path426" /><path
       style="fill:none;stroke:#ffb380;stroke-width:6.00001"
       d="m 3410.7407,11610.63 c 0.2484,3.464 0.6778,6.921 0.7453,10.394 0.3969,20.416 -1.837,40.462 -2.9818,60.798 -0.5369,9.539 -0.8859,14.768 1.3665,14.641 1.9937,-0.112 2.8163,-2.831 4.2244,-4.247"
       id="path428" /><path
       style="fill:none;stroke:#ffb380;stroke-width:6.00001"
       d="m 3509.5144,11630.412 c -3.4375,2.235 -7.7462,3.508 -10.3124,6.705 -8.6916,10.831 -1.6923,28.899 12.9215,26.823 18.1136,-2.572 26.6874,-28.238 10.9333,-33.416 -21.5736,-7.091 -65.1195,27.723 -29.9426,16.317"
       id="path430" /><path
       style="fill:none;stroke:#ffb380;stroke-width:6.00001"
       d="m 3507.5263,11606.83 c 1.6873,26.776 -9.5673,51.979 -13.1696,77.898"
       id="path432" /><path
       style="fill:none;stroke:#ffb380;stroke-width:6.00001"
       d="m 3470.0047,11683.499 c -3.1475,-1.043 -8.3992,-6.277 -9.4424,-3.13 -1.043,3.148 6.2949,2.087 9.4424,3.13 z"
       id="path434" /><path
       style="fill:none;stroke:#ffb380;stroke-width:6.00001"
       d="m 3118.034,11923.365 c -9.1723,-1.397 9.6771,-40.707 19.6305,-31.853 17.149,15.255 -0.8348,50.166 -8.0759,65.158 -2.0161,4.174 -4.6104,8.048 -6.709,12.182 -0.3128,0.616 -1.0592,2.413 -0.4972,2.012 12.7095,-9.074 21.3569,-18.905 36.7763,-22.688"
       id="path436" /><path
       style="fill:none;stroke:#ffb380;stroke-width:6.00001"
       d="m 3188.8529,11952.088 c 0.8805,2.297 5.6457,16.31 8.5728,17.993 5.0326,2.895 4.4487,-10.965 4.7212,-16.764 0.254,-5.4 0.1966,-10.862 -0.621,-16.205 -4.6186,-30.181 -12.8093,1.86 -15.1577,2.011 -0.4273,0.03 -7.0363,-31.317 -10.6852,-31.07 17.96,-15.92 21.4747,-14.938 38.8884,-18.999"
       id="path438" /><path
       style="fill:none;stroke:#ffb380;stroke-width:6.00001"
       d="m 3269.8598,11887.824 c -9.785,19.456 -14.1946,36.882 -4.2243,57.111 1.6576,3.363 6.9583,9.946 12.0518,6.147 7.0109,-5.23 8.278,-25.118 -1.3669,-28.611 -7.0051,-2.537 -14.4552,9.296 -8.1999,7.153"
       id="path440" /><path
       style="fill:none;stroke:#ffb380;stroke-width:6.00001"
       d="m 3002.1147,12075.361 c 7.8513,1.568 16.9112,2.683 24.8487,2.683"
       id="path450" /><path
       style="fill:none;stroke:#ffb380;stroke-width:6.00001"
       d="m 3114.0584,12053.903 c 1.4494,-4.843 2.2532,-9.928 4.3484,-14.529 0.7935,-1.743 2.5069,-2.961 4.1,-4.023 7.5205,-5.016 4.8617,13.487 4.8456,13.634 -2.1876,19.754 -6.535,39.671 -15.6549,57.446 -0.8729,1.701 2.4352,-3.003 3.9759,-4.135 5.6909,-4.183 18.0888,-9.821 23.7305,-2.57"
       id="path452" /><path
       style="fill:none;stroke:#ffb380;stroke-width:6.00001"
       d="m 3210.7199,12050.55 c -12.5949,8.15 -22.1086,21.49 -34.9125,29.282 -3.0375,1.848 2.2809,-6.757 3.8515,-9.947 5.8983,-11.979 8.7783,-16.025 13.0455,-28.052 0.6639,-1.871 -0.581,-7.909 -0.6212,-5.924 -0.2477,12.257 9.7031,51.498 19.6305,61.917 1.1155,1.17 3.2303,-0.149 4.8456,-0.224"
       id="path454" /><path
       style="fill:none;stroke:#ffb380;stroke-width:6.00001"
       d="m 3256.0687,12030.768 c 1.4068,31.383 9.3239,22.538 25.4701,37.999 15.1776,14.534 -6.0343,43.184 -10.9336,29.617 -6.0862,-16.854 17.431,-62.749 13.5427,-65.492 -7.6698,-5.411 -18.6997,-1.763 -28.0792,-2.124 z"
       id="path456" /><path
       style="fill:none;stroke:#ffb380;stroke-width:6.00001"
       d="m 3009.9419,12147.113 c 104.0493,-2.016 207.4199,-17.109 310.6095,-29.394 31.7108,-3.775 63.2341,-6.931 94.6737,-12.517"
       id="path458" /><path
       style="fill:none;stroke:#ffb380;stroke-width:6.00001"
       d="m 3167.9799,11964.717 c 0.7165,-21.247 49.2863,-35.572 59.0159,-55.993"
       id="path460" /><path
       style="fill:none;stroke:#ffb380;stroke-width:6.00001"
       d="m 3189.2257,11815.067 c -5.1353,4.21 -10.2058,8.5 -15.4062,12.629 -30.7906,24.448 5.2433,-20.697 6.3363,-32.075 0.1029,-1.071 -2.0979,0.953 -2.6091,1.9 -1.9656,3.64 -1.9402,8.27 -1.2425,12.182 2.5641,14.37 8.341,28.169 14.4124,41.352"
       id="path462" /><path
       style="fill:none;stroke:#ffb380;stroke-width:6.00001"
       d="m 3245.6322,11834.402 c -1.1626,21.021 -10.3246,50.064 0,70.187"
       id="path464" /><path
       style="fill:none;stroke:#ffb380;stroke-width:6.00001"
       d="m 3326.3907,12163.765 c -51.5691,38.296 24.6904,37.095 35.0367,66.722 6.1981,17.748 -23.2733,40.532 -33.4214,19 -11.3022,-23.981 1.8209,-42.893 13.0455,-63.928 3.1362,-7.85 11.5354,-12.255 15.5306,-19.558 1.4271,-2.61 -5.8545,1.549 -8.8215,1.341 -28.321,-1.986 -17.3747,-11.791 -29.1973,12.517"
       id="path466" /><path
       style="fill:none;stroke:#ffb380;stroke-width:6.00001"
       d="m 3231.9654,12216.07 c -14.2086,8.002 -14.5899,4.935 -20.5002,19.223 -21.5418,52.078 61.1712,-3.83 40.0066,-16.317 -2.6109,-1.541 -6.0714,-0.224 -9.0699,-0.671 -3.5187,-0.524 -7.2173,-3.75 -10.4365,-2.235 -7.7107,3.629 -19.2683,15.744 -25.5942,23.805 -2.2571,2.877 4.898,-5.434 7.2062,-8.27"
       id="path468" /><path
       style="fill:none;stroke:#ffb380;stroke-width:6.00001"
       d="m 3224.0139,12198.859 c -9.426,27.843 3.5293,55.916 1.2425,84.715"
       id="path470" /><path
       style="fill:none;stroke:#ffb380;stroke-width:6.00001"
       d="m 3151.4556,12219.982 c -8.9738,9.959 -26.058,28.421 -20.2517,44.704 7.456,20.91 55.6226,-4.867 46.4672,-24.252 -4.0714,-8.621 -13.1035,-9.049 -20.9974,-7.041 -33.324,8.477 -49.4101,50.315 -17.2698,8.717"
       id="path472" /><path
       style="fill:none;stroke:#ffb380;stroke-width:6.00001"
       d="m 3145.616,12198.523 c -2.6919,6.11 -7.5568,11.673 -8.0756,18.329 -0.6517,8.357 3.2856,16.441 4.7212,24.699 4.8744,28.041 4.7535,27.378 6.8334,53.758 0.6075,7.707 0.5726,15.475 1.615,23.135 0.2133,1.566 0.7676,5.079 2.1122,4.247 1.9733,-1.22 1.2425,-4.471 1.8637,-6.706"
       id="path474" /><path
       style="fill:none;stroke:#ffb380;stroke-width:6.00001"
       d="m 3840.2626,11759.186 c 9.0189,-10.198 8.0923,-10.223 19.258,-18.44 14.6037,-10.749 12.7682,0.03 10.0637,12.964 -2.2548,10.779 -6.6736,28.566 -8.2003,39.34 -1.1866,8.377 -1.8057,16.826 -2.4847,25.258 -0.5966,7.412 0.5617,10.595 -0.6212,9.5 -1.8214,-1.685 -2.5678,-4.247 -3.8515,-6.37"
       id="path476" /><path
       style="fill:none;stroke:#ffb380;stroke-width:6.00001"
       d="m 3835.6657,11792.268 c 17.0763,-8.868 36.0871,-6.699 54.5431,-8.494"
       id="path478" /><path
       style="fill:none;stroke:#ffb380;stroke-width:6.00001"
       d="m 3905.4906,11755.386 c 1.1673,20.538 23.2018,-21.371 27.5823,-14.417 0.059,0.09 -15.2218,49.416 -16.2761,54.205 -0.098,0.445 -1.7661,24.368 -2.6091,26.264 -0.2693,0.605 -0.5797,-1.192 -0.8697,-1.788"
       id="path480" /><path
       style="fill:none;stroke:#ffb380;stroke-width:6.00001"
       d="m 3900.5209,11796.962 c 12.8755,-2.122 28.4872,-7.983 41.746,-2.683"
       id="path482" /><path
       style="fill:none;stroke:#ffb380;stroke-width:6.00001"
       d="m 3797.7713,11883.019 c 46.1095,-3.628 91.5591,-13.118 137.5378,-17.882 20.0287,-2.076 40.1236,-4.023 60.2584,-4.247 3.5475,-0.04 8.959,0.09 10.0637,3.464 1.0091,3.08 -4.39,4.769 -6.585,7.153"
       id="path484" /><path
       style="fill:none;stroke:#ffb380;stroke-width:6.00001"
       d="m 3895.0541,11941.582 c -35.3414,13.155 43.2292,16.75 36.7763,23.135 -15.8462,15.68 -39.9489,20.113 -53.549,41.687 -1.4018,2.224 -5.433,9.091 -2.1122,12.518 7.7293,7.975 22.9539,-24.302 23.358,-25.482 1.6592,-4.851 2.6043,-9.976 2.9818,-15.088 1.0475,-14.193 -5.5314,-25.669 -7.9518,-39.117 -0.654,-3.633 -0.3312,-7.376 -0.4969,-11.064 -0.7775,1.11 -15.1205,17.733 -14.4123,25.146 1.1236,11.761 42.5401,23.859 50.6916,42.023 9.4788,21.121 -53.2781,46.437 -46.2187,10.282 1.7843,-9.139 5.7295,-17.984 10.9333,-25.705 7.8331,-11.623 18.5682,-21.002 27.7064,-31.629 11.8896,-13.827 24.8084,-31.753 -8.0759,-26.823 -7.1492,1.072 -13.7496,4.471 -20.6244,6.706"
       id="path486" /><path
       style="fill:none;stroke:#ffb380;stroke-width:6.00001"
       d="m 3999.1706,11724.205 c 4.804,-1.826 9.3747,-4.458 14.4121,-5.477 6.4653,-1.307 16.0245,3.233 18.2639,9.612 0.4614,1.314 1.6735,18.323 -0.8697,13.747"
       id="path488" /><path
       style="fill:none;stroke:#ffb380;stroke-width:6.00001"
       d="m 4015.9433,11698.499 c -1.451,75.519 8.7802,151.186 22.1155,225.425 4.3505,24.22 12.2996,49.836 13.9152,74.545 0.177,2.704 -37.9452,19.196 -40.5035,14.305"
       id="path490" /><path
       style="fill:none;stroke:#ffb380;stroke-width:6.00001"
       d="m 3753.0438,11764.439 c 5.6729,24.513 9.5557,49.403 13.6668,74.21 11.2548,67.914 14.3364,83.756 23.6061,155.126 3.9912,30.728 4.4574,43.857 5.5912,74.881 0.3265,8.937 0.4786,17.88 0.6209,26.822 0.068,4.284 1.6129,16.871 0.1244,12.853 -7.4885,-20.21 38.5545,-28.481 46.4672,-9.5"
       id="path492" /><path
       style="fill:none;stroke:#ffb380;stroke-width:6.00001"
       d="m 4125.2779,11766.451 c -10.5323,7.677 -33.2891,29.209 -25.5942,45.375 4.5664,9.594 14.6521,15.427 22.6123,22.464 5.0192,4.438 35.3965,24.871 37.6457,33.305 4.4667,16.748 -0.9363,42.82 -23.1092,44.482 -74.0222,5.549 24.2998,-89.994 31.1851,-104.386 14.2756,-29.84 -39.7312,-23.246 -48.8278,-23.023 -1.1425,0.03 2.0709,0.969 3.1062,1.453"
       id="path494" /><path
       style="fill:none;stroke:#ffb380;stroke-width:6.00001"
       d="m 4211.6093,11826.881 c 2.8665,-0.206 44.926,-15.821 33.5457,-4.694"
       id="path500" /><path
       style="fill:none;stroke:#ffb380;stroke-width:6.00001"
       d="m 4213.1002,11843.422 c 13.4625,4.458 26.9409,1.189 40.6276,1.006"
       id="path502" /><path
       style="fill:none;stroke:#ffb380;stroke-width:6.00001"
       d="m 4309.7618,11788.546 c 7.2556,9.413 21.1754,-7.392 30.0669,-2.682 5.7481,3.045 -0.9525,12.501 -1.8637,14.306 -8.8868,17.604 -17.4929,35.569 -17.1455,55.881 0.083,4.837 1.197,13.532 4.8453,16.541"
       id="path510" /><path
       style="fill:none;stroke:#ffb380;stroke-width:6.00001"
       d="m 4307.0284,11835.151 c 18.7094,-6.722 36.6596,-6.397 55.7855,-4.247"
       id="path512" /><path
       style="fill:none;stroke:#ffb380;stroke-width:6.00001"
       d="m 4399.5899,11802.517 c 23.459,-51.877 18.9053,15.157 13.5427,31.517 -3.9304,11.989 -5.7309,14.88 -13.5427,24.029 -2.6958,3.157 -12.2168,11.118 -9.6909,7.823 10.1902,-13.292 56.3468,-19.585 44.7276,-6.147"
       id="path514" /><path
       style="fill:none;stroke:#ffb380;stroke-width:6.00001"
       d="m 4327.5431,11817.875 c -7.5256,7.367 -15.0683,13.711 -24.4758,18.218 -2.1482,1.029 -9.0861,2.306 -6.7093,2.458 10.1187,0.65 30.6774,-5.443 41.7459,-6.37 4.4199,-0.37 17.4858,-0.892 13.2943,0.559"
       id="path516" /><path
       style="fill:none;stroke:#ffb380;stroke-width:6.00001"
       d="m 4306.4217,11791.723 c 5.4835,14.692 30.3141,-2.735 33.1732,1.006 1.8063,2.363 -1.6243,5.723 -2.3607,8.606 -6.3153,24.716 -12.6933,49.536 -18.0152,74.433"
       id="path520" /><path
       style="fill:none;stroke:#ffb380;stroke-width:6.00001"
       d="m 4309.7763,11841.457 c 15.6528,-7.788 34.4432,-15.433 52.4309,-13.635"
       id="path522" /><path
       style="fill:none;stroke:#ffb380;stroke-width:6.00001"
       d="m 3693.1456,11699.189 c 132.6985,-12.6 263.2117,-40.614 395.0948,-59.346 59.7543,-8.487 119.4504,-16.851 179.4079,-23.805 47.8324,-5.547 95.7382,-10.496 143.6259,-15.535 15.0651,-1.585 57.9702,-10.623 72.8067,-0.782 16.6997,11.077 11.0106,54.483 10.5608,68.398 -1.9759,61.122 -6.2013,122.235 -6.9577,183.402 -0.4516,36.528 0.4768,73.22 0.994,109.75 0.2286,16.132 7.7955,41.29 -9.4424,51.299 -22.1787,12.878 -55.9081,13.724 -80.5101,16.988 -49.921,6.624 -100.0537,11.608 -149.7137,20.117 -43.118,7.388 -85.2069,18.545 -127.4741,29.617 -71.8206,18.814 -143.1655,38.593 -214.693,58.452 -45.2038,12.55 -89.9363,26.595 -135.0528,39.452 -15.3239,4.367 -18.8092,5.332 -31.061,9.388 -5.5952,1.852 -13.811,4.95 -13.9153,4.806 -5.8727,-8.1 -8.6182,-20.901 -11.4305,-30.064 -15.2008,-49.533 -18.5708,-99.886 -18.8849,-151.55 -0.6847,-112.584 14.9691,-209.642 -29.446,-317.516"
       id="path524" /><path
       style="fill:none;stroke:#ffb380;stroke-width:6.00001"
       d="m 3416.4028,12560.985 c -3.791,-23.493 -0.9126,-13.832 0,0 1.5446,23.407 -3.4372,47.856 7.3305,39.899"
       id="path528" /><path
       style="fill:none;stroke:#ffb380;stroke-width:6.00001"
       d="m 3445.6001,12544.445 c -6.7075,8.842 -11.4972,11.445 -7.9516,24.587 8.563,31.741 58.7267,1.586 44.8519,-21.793 -1.3126,-2.213 -5.0556,-1.953 -7.5787,-1.453 -31.0475,6.151 -37.3597,47.323 -19.8792,11.288"
       id="path530" /><path
       style="fill:none;stroke:#ffb380;stroke-width:6.00001"
       d="m 3459.0184,12508.792 c -0.5797,-3.725 1.986,-11.756 -1.7394,-11.176 -3.7253,0.58 0.9012,7.5 1.7394,11.176 1.4843,6.509 3.7849,12.815 5.2184,19.335 1.9452,8.849 11.1411,75.198 13.6668,76.334 1.4009,0.63 0.3312,-3.055 0.4969,-4.582"
       id="path532" /><path
       style="fill:none;stroke:#ffb380;stroke-width:6.00001"
       d="m 3523.0039,12574.285 c -0.4969,-3.241 1.7502,-10.22 -1.4909,-9.723 -3.2412,0.497 0.994,6.482 1.4909,9.723 z"
       id="path534" /><path
       style="fill:none;stroke:#ffb380;stroke-width:6.00001"
       d="m 3555.8043,12510.022 c 5.2597,-4.322 10.4391,-8.743 15.779,-12.965 8.8127,-6.968 21.155,-15.968 22.488,-14.976 1.8184,1.354 -3.0189,45.363 -1.9879,60.128 0.4916,7.04 1.4986,14.042 2.6091,21.012 0.7136,4.477 1.809,8.888 2.8578,13.299 0.3603,1.516 2.0841,5.854 1.3665,4.471 -1.0041,-1.936 -1.4909,-4.098 -2.2362,-6.147"
       id="path536" /><path
       style="fill:none;stroke:#ffb380;stroke-width:6.00001"
       d="m 3577.0501,12542.433 c 10.9839,-10.828 25.9268,-8.574 39.8822,-11.512"
       id="path538" /><path
       style="fill:none;stroke:#ffb380;stroke-width:6.00001"
       d="m 3641.0356,12493.369 c 4.0246,-2.007 3.7063,-13.214 9.194,-15.982 11.3832,-5.74 13.9451,19.977 14.1637,23.47 1.5533,24.818 -4.4241,49.165 -19.2577,69.181 -1.5952,2.152 4.5754,-2.854 7.0818,-3.8 5.5004,-2.076 38.8475,-13.741 41.2488,-0.782"
       id="path540" /><path
       style="fill:none;stroke:#ffb380;stroke-width:6.00001"
       d="m 3758.1973,12549.027 c -7.5715,5.077 -10.0266,-13.128 -5.094,-15.088 5.7237,-2.275 10.1634,22.012 5.094,15.088 -14.1795,-19.368 1.7452,-31.135 0,0 z"
       id="path542" /><path
       style="fill:none;stroke:#ffb380;stroke-width:6.00001"
       d="m 3811.1251,12486.44 c 1.905,-3.167 8.8818,-7.595 5.7153,-9.5 -3.1668,-1.905 -4.1119,6.171 -5.7153,9.5 -6.1912,12.857 -14.6021,25.063 -17.6424,39.005 -2.5686,11.779 13.2694,19.616 21.9908,15.982 17.9758,-7.489 33.3542,-18.133 38.3916,-36.77 1.3965,-5.167 3.5692,-18.72 -5.7153,-21.011 -4.55,-1.123 -9.2419,1.659 -13.9152,2.012 -7.6859,0.58 -16.5536,-3.271 -23.1095,0.782 -6.5643,4.058 -6.6249,14.023 -11.0577,20.341 -2.5218,3.593 -6.9527,5.525 -9.5668,9.052 -1.175,1.586 3.7179,-1.602 5.094,-3.017 9.6941,-9.966 9.7814,-13.447 15.5305,-26.376 z"
       id="path544" /><path
       style="fill:none;stroke:#ffb380;stroke-width:6.00001"
       d="m 3824.9163,12452.8 c -8.8885,29.567 -6.8848,59.957 -5.0941,90.303 0.458,7.764 1.0242,15.53 1.9878,23.247 0.3234,2.588 0.1024,5.676 1.8638,7.6 0.6942,0.758 1.2721,-2.309 3.1059,-10.282"
       id="path546" /><path
       style="fill:none;stroke:#ffb380;stroke-width:6.00001"
       d="m 3877.9681,12523.433 c 12.7558,2.534 12.7558,2.534 0,0 z"
       id="path548" /><path
       style="fill:none;stroke:#ffb380;stroke-width:6.00001"
       d="m 3924.5597,12461.07 c -7.6116,7.354 -32.2747,43.506 -10.9334,54.093 22.352,11.087 50.092,-12.552 47.8337,-34.982 -1.4845,-14.745 -20.8674,-31.761 -36.9003,-19.111 -8.5024,6.708 -28.0535,56.771 -4.8456,26.152"
       id="path550" /><path
       style="fill:none;stroke:#ffb380;stroke-width:6.00001"
       d="m 3935.493,12421.394 c -0.2333,47.54 -4.2616,95.488 -10.809,142.609"
       id="path552" /><path
       style="fill:none;stroke:#ffb380;stroke-width:6.00001"
       d="m 3876.6015,12537.18 c -0.4556,-3.316 -1.2541,-6.602 -1.3665,-9.947 -0.096,-2.841 0.094,-5.727 0.7453,-8.494 4.3236,-18.356 16.7084,24.183 0.6212,18.441 -25.7021,-9.175 -3.6091,-34.052 1.491,-14.306 1.1988,4.642 -0.9941,9.537 -1.491,14.306 z"
       id="path554" /><path
       style="fill:none;stroke:#ffb380;stroke-width:6.00001"
       d="m 3411.155,12556.104 c -3.6089,-8.369 2.2328,-35.994 -1.4909,-42.693 -0.2183,-0.392 -0.1244,0.893 -0.1244,1.341 0,2.534 0.077,5.067 0.1244,7.6 0.1183,6.334 0.093,12.672 0.3728,19 0.7453,16.875 4.3886,41.769 6.3362,55.434 1.3846,9.715 3.388,19.336 4.7213,29.058 0.2431,1.772 0.6551,7.028 0,5.365 -2.3509,-5.971 -3.9037,-29.418 -4.1,-31.629 -2.7795,-31.293 -0.1569,-13.445 -5.8394,-43.476 z"
       id="path556" /><path
       style="fill:none;stroke:#ffb380;stroke-width:6.00001"
       d="m 2993.4708,12828.28 c 9.0305,33.044 22.1104,64.701 33.9185,96.786 1.754,4.766 9.8245,23.455 9.194,32.076 -0.077,1.051 -1.8438,-1.257 -2.2362,-2.235 -2.5429,-6.34 -4.989,-12.777 -6.4606,-19.447 -4.0135,-18.189 -7.9245,-60.844 23.6061,-41.24 9.911,6.162 17.0945,15.826 20.0033,27.27 1.868,7.348 3.0337,38.763 -13.9152,36.993 -9.0083,-0.941 -16.5127,-19.845 -18.7608,-23.917"
       id="path558" /><path
       style="fill:none;stroke:#ffb380;stroke-width:6.00001"
       d="m 3058.4504,12871.867 c 7.3718,2.161 15.5514,2.492 22.1154,6.483 8.0002,4.863 33.1425,41.981 29.073,46.269 -2.73,2.877 -8.9268,-3.443 -15.0334,-15.2 -5.1141,-9.845 -12.5857,-31.033 -12.4246,-43.028 0.038,-2.826 2.6506,-4.992 3.9759,-7.488"
       id="path560" /><path
       style="fill:none;stroke:#ffb380;stroke-width:6.00001"
       d="m 3127.7783,12886.732 c -2.2116,7.785 -0.9583,16.079 -11.6789,6.705 -28.3245,-24.766 7.0556,-43.219 24.7245,-14.64 4.8511,7.846 3.5787,8.508 1.4909,14.864"
       id="path562" /><path
       style="fill:none;stroke:#ffb380;stroke-width:6.00001"
       d="m 3140.327,12863.597 c 5.3059,22.494 20.6245,44.126 20.6245,6.817 0,-2.391 1.1293,4.653 1.8635,6.93 3.6888,11.437 2.9601,21.049 15.6549,16.093"
       id="path564" /><path
       style="fill:none;stroke:#ffb380;stroke-width:6.00001"
       d="m 3175.1152,12841.133 c 5.3425,3.017 11.2501,5.202 16.0274,9.052 13.9091,11.21 38.2341,44.864 21.867,62.699 -10.1721,11.085 -20.4285,-1.96 -24.7245,-11.4 -3.9558,-8.691 1.0157,-16.537 4.3484,-23.693"
       id="path566" /><path
       style="fill:none;stroke:#ffb380;stroke-width:6.00001"
       d="m 3234.3795,12831.074 c -14.9641,18.501 -2.0106,71.305 28.8245,59.569 3.3671,-1.281 5.4668,-4.694 8.2002,-7.041"
       id="path568" /><path
       style="fill:none;stroke:#ffb380;stroke-width:6.00001"
       d="m 3275.2555,12850.185 c -3.3131,-0.297 -9.6414,-4.207 -9.9393,-0.894 -0.2982,3.314 8.9177,-2.271 9.9393,0.894 5.2107,16.145 -15.253,30.273 14.1639,29.171 6.3307,-0.238 11.8729,-15.507 12.9212,-18.441 0.8046,-2.252 1.0163,-4.676 1.3669,-7.041 0.066,-0.444 -0.1493,-1.79 -0.1244,-1.341 0.1056,1.884 3.1253,57.646 14.7852,34.422"
       id="path570" /><path
       style="fill:none;stroke:#ffb380;stroke-width:6.00001"
       d="m 3316.3802,12837.221 c 14.6902,12.213 45.9063,18.24 46.9641,41.911 0.1542,3.447 -1.5166,6.84 -3.2303,9.835 -7.8909,13.791 -12.6003,-3.715 -14.5365,-9.5"
       id="path572" /><path
       style="fill:none;stroke:#ffb380;stroke-width:6.00001"
       d="m 3356.7596,12831.856 c 10.6571,11.725 21.649,33.169 19.8789,49.623"
       id="path574" /><path
       style="fill:none;stroke:#ffb380;stroke-width:6.00001"
       d="m 3356.2624,12868.85 c 7.8373,-13.631 26.039,-21.359 38.0188,-9.165"
       id="path576" /><path
       style="fill:none;stroke:#ffb380;stroke-width:6.00001"
       d="m 3500.5096,12836.774 c -23.8498,-8.581 -10.5339,16.562 -3.479,25.817 13.2776,17.418 35.6777,-22.378 25.967,-23.47 -10.4627,-1.176 10.8762,45.324 26.7123,36.881"
       id="path578" /><path
       style="fill:none;stroke:#ffb380;stroke-width:6.00001"
       d="m 3539.025,12811.069 c 26.8126,-4.842 61.8894,39.767 34.9125,60.91 -10.5791,8.292 -10.2843,-19.335 -10.4365,-31.181"
       id="path580" /><path
       style="fill:none;stroke:#ffb380;stroke-width:6.00001"
       d="m 3572.1982,12803.469 c 16.3994,-5.219 53.4058,35.117 37.77,49.064 -13.6244,12.152 -24.3673,-9.445 -24.9729,-19.335 -0.2689,-4.39 1.9878,-8.569 2.9818,-12.853"
       id="path582" /><path
       style="fill:none;stroke:#ffb380;stroke-width:6.00001"
       d="m 3605.1226,12804.14 c 15.8317,11.52 7.6052,3.442 18.5124,19.893 2.9313,4.421 6.1757,8.631 9.0699,13.076 1.7749,2.727 5.9894,11.073 3.3544,9.165 -11.703,-8.473 -12.7873,-35.349 -12.0515,-47.611 0.344,-5.736 2.3839,-17.598 7.7031,-15.423"
       id="path584" /><path
       style="fill:none;stroke:#ffb380;stroke-width:6.00001"
       d="m 3721.415,12767.37 c 9.6342,12.387 9.8687,34.179 21.3698,45.152 0.4533,0.432 1.8423,-20.583 4.9697,-20.788 10.4042,-0.681 31.3687,33.353 28.2033,-1.565 -2.3527,-25.954 -2.1122,-8.409 -2.1122,-22.24"
       id="path586" /><path
       style="fill:none;stroke:#ffb380;stroke-width:6.00001"
       d="m 3803.2913,12791.287 c -0.414,3.204 -4.4463,9.197 -1.2425,9.611 3.2041,0.415 2.6924,-6.724 1.2425,-9.611 -5.3422,-10.638 -23.6815,-14.206 -8.4484,-26.264 12.8352,-10.161 23.2201,34.441 20.5002,23.023"
       id="path588" /><path
       style="fill:none;stroke:#ffb380;stroke-width:6.00001"
       d="m 3814.3491,12757.982 c 3.5623,7.127 14.655,40.926 28.3276,32.187 13.2273,-8.454 10.6764,-33.208 3.8515,-44.928"
       id="path590" /><path
       style="fill:none;stroke:#ffb380;stroke-width:6.00001"
       d="m 3846.901,12727.918 c 2.5321,8.301 16.5717,42.433 18.0152,42.693 0.698,0.125 0.083,-1.416 0.1244,-2.124"
       id="path592" /><path
       style="fill:none;stroke:#ffb380;stroke-width:6.00001"
       d="m 3867.2768,12708.583 c 4.8872,1.751 10.6831,1.917 14.6609,5.253 9.97,8.359 34.6159,47.136 21.4942,60.463 -9.584,9.734 -24.5441,-6.057 -24.7245,-15.423 -0.093,-4.827 3.6443,-8.941 5.4665,-13.412"
       id="path594" /><path
       style="fill:none;stroke:#ffb380;stroke-width:6.00001"
       d="m 3952.7566,12694.613 c 8.5759,18.345 12.8786,25.458 18.1395,45.263 2.8163,10.601 4.7094,21.427 6.8337,32.188 0.2384,1.209 -0.9837,3.688 0.2484,3.688 1.2322,0 0.1583,-2.459 0.2485,-3.688 0.5535,-7.553 -0.7366,-33.342 8.1999,-38.111 5.7129,-3.049 13.4972,28.856 18.3881,32.523"
       id="path596" /><path
       style="fill:none;stroke:#ffb380;stroke-width:6.00001"
       d="m 4014.6299,12734.065 c -0.5506,-2.709 -8.0237,17.727 -1.8635,18.552 16.3053,2.185 26.2544,-16.823 29.1973,-29.617 0.3882,-1.687 0.3638,3.452 0.7454,5.141 1.2197,5.403 4.7805,20.181 6.9577,15.088"
       id="path598" /><path
       style="fill:none;stroke:#ffb380;stroke-width:6.00001"
       d="m 4047.8031,12717.971 c 7.716,6.528 40.0907,61.045 26.3398,14.864 5.6324,-3.912 10.9901,-8.252 16.8971,-11.735 2.7994,-1.65 6.3298,-1.828 9.0697,-3.576 13.1869,-8.411 0.1595,-29.424 -12.6729,-13.188 -3.1111,3.936 -4.7124,8.865 -6.8334,13.412 -2.3127,4.957 -8.3467,9.952 -6.4605,15.087 3.1792,8.656 41.0967,26.725 51.5611,7.377"
       id="path600" /><path
       style="fill:none;stroke:#ffb380;stroke-width:6.00001"
       d="m 4192.7956,12698.524 c -4.39,4.62 -9.646,8.549 -13.1699,13.859 -5.5407,8.348 0.3418,22.859 12.0517,20.005 14.1388,-3.446 28.0398,-17.696 31.0608,-31.964 2.2201,-10.484 -7.7256,1.348 -8.4487,4.582 -1.5425,6.901 -1.0353,34.507 11.8033,30.176"
       id="path602" /><path
       style="fill:none;stroke:#ffb380;stroke-width:6.00001"
       d="m 4229.3231,12673.937 c 6.9207,4.648 17.7454,58.444 19.2577,43.028"
       id="path604" /><path
       style="fill:none;stroke:#ffb380;stroke-width:6.00001"
       d="m 4248.8295,12663.207 c 8.4056,20.469 29.9564,40.247 31.3092,63.37"
       id="path606" /><path
       style="fill:none;stroke:#ffb380;stroke-width:6.00001"
       d="m 4343.8758,12662.649 c 1.9466,5.886 3.6605,11.854 5.8394,17.658 2.0904,5.568 4.6849,10.933 6.9577,16.429 2.7374,6.619 7.9775,30.534 3.3547,5.476 -3.1896,-17.288 -4.1484,-34.891 -7.9516,-52.081 -0.1211,-0.547 -1.484,-9.497 -5.094,-9.611 -11.2516,-0.355 3.9931,14.055 -3.1062,22.129 -4.0751,4.634 -12.695,-2.284 -18.5124,-0.224 -3.0726,1.088 -3.6859,5.447 -4.8455,8.494 -2.4271,6.377 5.3054,4.311 8.573,4.694"
       id="path608" /><path
       style="fill:none;stroke:#ffb380;stroke-width:6.00001"
       d="m 4338.409,12704.448 c 23.2712,-5.348 -12.8429,18.648 -6.0878,22.464 2.2341,1.262 44.9329,-27.524 53.9218,-30.399"
       id="path610" /><path
       style="fill:none;stroke:#ffb380;stroke-width:6.00001"
       d="m 4407.8613,12664.325 c -3.2715,1.49 -11.3054,1.199 -9.8152,4.471 1.4901,3.271 6.8323,-6.478 9.8152,-4.471 7.4621,5.02 24.4896,21.481 20.0033,35.093 -8.8476,26.847 -24.0355,25.815 -35.5338,3.912"
       id="path612" /><path
       style="fill:none;stroke:#ffb380;stroke-width:6.00001"
       d="m 4386.7399,12650.578 c 13.5358,-11.656 32.1657,-13.636 46.84,-23.023"
       id="path614" /><path
       style="fill:none;stroke:#ffb380;stroke-width:6.00001"
       d="m 3066.7747,13027.552 c -12.183,24.762 4.0169,78.785 28.9488,27.493 11.2165,-23.075 -6.7061,-31.178 -8.0758,-15.981 -1.382,15.329 13.5527,36.38 29.4457,28.834"
       id="path616" /><path
       style="fill:none;stroke:#ffb380;stroke-width:6.00001"
       d="m 3139.9542,13005.982 c -20.0155,14.02 -17.6501,32.184 -5.094,51.299 2.9914,4.553 11.1585,5.782 11.9274,11.176 0.2045,1.435 -2.8991,0 -4.3484,0"
       id="path618" /><path
       style="fill:none;stroke:#ffb380;stroke-width:6.00001"
       d="m 3117.0934,13051.246 c 9.8782,-14.765 25.1883,-19.571 40.6276,-26.935 3.4922,1.845 36.2387,28.353 23.1095,37.329"
       id="path620" /><path
       style="fill:none;stroke:#ffb380;stroke-width:6.00001"
       d="m 3163.1878,13049.01 c 7.993,-3.464 15.8237,-7.33 23.9789,-10.394 8.2532,-3.099 20.5018,-3.122 25.4701,-12.182 2.0027,-3.651 -2.7397,-9.566 -6.5849,-5.588 -8.958,9.267 -3.6256,33.968 8.6971,38.335 1.7936,0.635 4.1029,-0.568 5.3425,-2.012 16.5975,-19.331 -2.4511,-73.148 13.2939,-47.052 3.6312,6.019 7.3102,12.01 10.8093,18.106 3.7082,6.46 7.7687,12.758 10.8091,19.558 3.0278,6.772 5.4165,13.845 7.3305,21.011 0.1916,0.718 -1.6394,-0.35 -1.9878,-1.006 -2.4567,-4.62 -4.803,-9.377 -6.2124,-14.417 -1.9058,-6.816 -11.6689,-50.394 8.6971,-46.94 3.1774,0.539 5.5496,3.278 8.3243,4.918"
       id="path622" /><path
       style="fill:none;stroke:#ffb380;stroke-width:6.00001"
       d="m 3305.5712,12978.377 c -9.0361,-19.363 -0.9361,-15.324 0,0 z"
       id="path624" /><path
       style="fill:none;stroke:#ffb380;stroke-width:6.00001"
       d="m 3314.5165,13001.4 c 0.8091,11.377 13.2456,60.452 25.2217,63.145 1.2509,0.282 1.4909,-2.086 2.2362,-3.129"
       id="path626" /><path
       style="fill:none;stroke:#ffb380;stroke-width:6.00001"
       d="m 3347.814,13015.705 c 8.9805,14.839 20.4142,32.117 21.9911,49.846"
       id="path628" /><path
       style="fill:none;stroke:#ffb380;stroke-width:6.00001"
       d="m 3348.8078,13050.128 c -0.2897,-4.47 -3.3795,-9.701 -0.8697,-13.412 5.2623,-7.78 41.2417,-10.353 50.6915,-10.617"
       id="path630" /><path
       style="fill:none;stroke:#ffb380;stroke-width:6.00001"
       d="m 3133.2004,13241.425 c 7.5071,-4.553 13.5793,-10.917 20.5002,-16.206 2.172,-1.66 6.6376,-6.832 7.0819,-4.135 1.1226,6.816 -7.0761,25.636 -7.7031,31.07 -1.3518,11.713 -2.096,23.526 -1.9878,35.317 0.082,8.983 2.4886,20.337 5.2181,29.281 0.6958,2.28 1.5991,4.493 2.4849,6.706 0.2339,0.585 1.1679,2.231 0.8697,1.677 -0.9194,-1.71 -1.8222,-3.428 -2.7334,-5.142"
       id="path632" /><path
       style="fill:none;stroke:#ffb380;stroke-width:6.00001"
       d="m 3129.5973,13270.259 c 8.0071,-3.675 29.0468,-18.542 40.1307,-11.064"
       id="path634" /><path
       style="fill:none;stroke:#ffb380;stroke-width:6.00001"
       d="m 3202.1556,13228.46 c 4.0831,10.397 1.7103,-28.686 10.0637,-25.817 14.5685,5.004 10.8995,69.429 8.9456,80.357 -3.1176,17.436 -1.9246,6.211 -4.9697,14.976 -0.2238,0.645 0.5226,-1.295 0.994,-1.788 2.8597,-2.991 5.4941,-6.324 8.9456,-8.606 4.1701,-2.757 20.7611,-13.242 27.7064,-6.37"
       id="path636" /><path
       style="fill:none;stroke:#ffb380;stroke-width:6.00001"
       d="m 3318.3236,13194.708 c -4.7085,-5.517 0.5643,-41.901 1.7393,-14.417"
       id="path638" /><path
       style="fill:none;stroke:#ffb380;stroke-width:6.00001"
       d="m 3326.5235,13232.037 c 5.4132,-15.304 3.9468,35.492 15.2821,31.293"
       id="path640" /><path
       style="fill:none;stroke:#ffb380;stroke-width:6.00001"
       d="m 3351.9937,13219.184 c 6.709,3.502 13.8223,6.32 20.1273,10.506 23.6649,15.712 16.1095,47.146 3.6031,43.251 -5.7457,-1.789 -11.8065,-11.746 -15.0336,-16.317"
       id="path642" /><path
       style="fill:none;stroke:#ffb380;stroke-width:6.00001"
       d="m 3482.5737,13235.054 c -0.9993,-5.609 -4.3693,-44.867 6.0881,-44.705 9.3546,0.145 12.8288,33.792 16.0274,26.6"
       id="path644" /><path
       style="fill:none;stroke:#ffb380;stroke-width:6.00001"
       d="m 3525.4378,13205.773 c 10.3283,18.225 -9.4374,10.829 -14.0396,2.011 -4.6831,-8.973 -6.0494,-28.701 9.07,-28.611 3.6509,0.02 7.3932,1.09 10.5605,2.906 4.5395,2.603 8.762,5.989 12.0518,10.058 3.6645,4.533 10.0989,19.533 4.9697,16.765"
       id="path646" /><path
       style="fill:none;stroke:#ffb380;stroke-width:6.00001"
       d="m 3544.944,13163.526 c 15.4127,9.805 25.6907,27.912 19.2579,45.823"
       id="path648" /><path
       style="fill:none;stroke:#ffb380;stroke-width:6.00001"
       d="m 3548.2986,13203.202 c -6.7384,-5.347 28.4332,-40.748 31.061,-31.294"
       id="path650" /><path
       style="fill:none;stroke:#ffb380;stroke-width:6.00001"
       d="m 3667.4484,13139.833 c -4.5971,2.682 -10.2915,4.037 -13.7911,8.047 -3.3764,3.869 -4.5268,9.31 -5.7153,14.305 -8.0005,33.634 29.0751,14.256 32.9248,-8.717 0.8718,-5.204 2.2098,-11.998 -1.491,-15.759 -2.8326,-2.878 -13.5159,-1.589 -11.9274,2.124 4.8377,11.306 16.3185,18.403 24.6002,27.493 7.4051,8.129 28.1657,25.488 22.9851,39.229 -6.4907,17.215 -17.3537,28.615 -32.0548,9.723 -3.9121,-5.027 -2.7334,-12.443 -4.1002,-18.664"
       id="path652" /><path
       style="fill:none;stroke:#ffb380;stroke-width:6.00001"
       d="m 3725.4702,13141.062 c -1.5007,3.181 -10.8765,14.506 -5.9637,20.9 8.7847,11.433 23.1005,-21.604 18.8852,-21.794 -1.0531,-0.05 -0.9366,2.386 -1.9881,2.459 -3.6727,0.254 -10.8416,-5.245 -10.9334,-1.565 -0.1987,7.952 7.1099,14.234 10.4365,21.459 1.5066,3.271 4.871,15.853 10.6849,8.382"
       id="path654" /><path
       style="fill:none;stroke:#ffb380;stroke-width:6.00001"
       d="m 3744.231,13135.25 c 35.4643,9.85 28.7655,8.867 13.9153,-19.334"
       id="path656" /><path
       style="fill:none;stroke:#ffb380;stroke-width:6.00001"
       d="m 3757.7737,13097.028 c 22.5822,12.653 39.1562,67.499 18.7606,14.753 3.301,-1.147 27.7304,4.281 30.9368,-6.147 0.1686,-0.548 2.0912,-12.083 -3.4788,-11.065 -18.8876,3.452 17.8967,58.093 21.8669,19.782 0.5722,-5.521 0.3199,-11.119 -0.1243,-16.652 -0.3866,-4.818 -1.6091,-9.532 -2.3606,-14.306 -0.089,-0.565 0.2317,1.122 0.3727,1.677 0.5217,2.053 0.92,4.145 1.6152,6.146 1.8985,5.465 13.4637,27.808 14.0396,27.606 6.1827,-2.177 -0.2913,-57.157 10.9334,-31.741 1.4414,3.264 2.7246,6.598 4.2243,9.835 1.5525,3.352 10.4577,18.2 11.6789,19.559"
       id="path658" /><path
       style="fill:none;stroke:#ffb380;stroke-width:6.00001"
       d="m 3861.0202,13076.687 c 2.9462,7.799 19.1919,27.321 8.2,34.199 5.4208,-23.09 -1.4043,-14.007 12.9214,-22.799 8.0926,-4.966 13.9657,-22.118 0.7455,-19.67 -19.5043,3.612 23.7936,44.787 35.5337,21.905 6.1708,-9.127 12.0223,-18.478 18.5123,-27.381 1.8116,-2.485 5.2049,-3.847 6.3364,-6.706 8.2093,-20.748 -39.8559,16.841 -9.194,28.723 25.6247,9.929 33.6231,-25.044 22.8608,-42.47 -0.7443,-1.205 -1.4053,2.608 -1.3667,4.024 0.3078,11.284 2.655,17.598 6.3365,28.164 4.3377,12.449 13.4469,29.553 5.3424,30.064 -4.4432,0.279 -26.3946,-14.807 -25.7184,-16.429 0.2045,-0.491 18.796,-1.24 24.6003,-1.453"
       id="path660" /><path
       style="fill:none;stroke:#ffb380;stroke-width:6.00001"
       d="m 4029.8673,13019.242 c 4.5582,17.052 22.2363,26.636 27.9548,42.804"
       id="path662" /><path
       style="fill:none;stroke:#ffb380;stroke-width:6.00001"
       d="m 4031.9794,13053.888 c 1.5288,-13.426 6.1857,-27.629 20.3759,-32.188"
       id="path664" /><path
       style="fill:none;stroke:#ffb380;stroke-width:6.00001"
       d="m 4074.8435,13040.588 c 20.2885,19.097 -6.8625,9.035 2.9819,-15.088 3.9224,-9.611 26.231,12.191 23.3577,20.117 -5.1282,14.147 -23.5649,0.704 -26.3396,-5.029 -3.3721,-6.967 1.8791,-16.341 5.2181,-22.911"
       id="path666" /><path
       style="fill:none;stroke:#ffb380;stroke-width:6.00001"
       d="m 4128.641,12958.778 c 12.7719,18.619 12.4298,42.461 21.2458,62.475 1.4644,3.325 1.0096,-7.209 1.1181,-10.841 0.011,-0.362 -0.034,-34.429 9.194,-16.541 1.974,3.827 3.5425,7.897 4.5971,12.071 0.6623,2.621 1.1793,24.059 -2.4849,22.576 -5.5007,-2.227 -5.6883,-10.675 -6.585,-16.541 -2.8506,-18.65 29.4693,-9.307 35.5338,-23.358 4.3357,-10.047 -13.1225,-15.893 -18.8851,-7.377 -21.5768,31.887 38.1404,58.834 45.2249,30.511"
       id="path668" /><path
       style="fill:none;stroke:#ffb380;stroke-width:6.00001"
       d="m 4282.9518,12957.325 c -5.3012,3.875 -11.475,6.776 -15.9033,11.623 -5.9452,6.509 -3.3578,20.491 7.7033,18.888 10.1,-1.463 19.2106,-8.685 25.0971,-16.54 2.8226,-3.767 7.1054,-11.075 3.2303,-13.747 -5.851,-4.036 -12.5577,49.773 13.7911,41.24"
       id="path670" /><path
       style="fill:none;stroke:#ffb380;stroke-width:6.00001"
       d="m 4314.6338,12938.214 c 0.9438,2.716 20.6745,60.719 22.7367,37.999"
       id="path672" /><path
       style="fill:none;stroke:#ffb380;stroke-width:6.00001"
       d="m 4336.9977,12931.508 c 9.0421,13.867 21.817,26.59 26.5883,42.805"
       id="path674" /><path
       style="fill:none;stroke:#ffb380;stroke-width:6.00001"
       d="m 4423.9684,12893.509 c 2.4849,6.11 5.126,12.158 7.4546,18.329 2.2699,6.015 4.1725,12.163 6.3365,18.217 20.1179,56.28 -13.2736,-36.585 -13.7911,-36.546 -7.2584,0.547 -21.4017,19.883 -15.6549,28.499"
       id="path676" /><path
       style="fill:none;stroke:#ffb380;stroke-width:6.00001"
       d="m 4423.8443,12964.031 c 22.6494,-0.283 37.3083,-17.767 48.455,-35.205"
       id="path678" /><path
       style="fill:none;stroke:#ffb380;stroke-width:6.00001"
       d="m 4484.7236,12901.332 c 5.7981,3.428 12.5463,5.607 17.3942,10.283 13.5985,13.115 8.4926,37.215 -5.4668,47.498 -1.8074,1.332 -4.44,2.878 -6.4609,1.9 -6.8331,-3.305 -13.0357,-24.015 -14.1636,-26.823"
       id="path680" /><path
       style="fill:none;stroke:#ffb380;stroke-width:6.00001"
       d="m 4456.8928,12886.356 c -0.7209,-14.498 27.9326,-39.742 40.8763,-26.934"
       id="path682" /><path
       style="fill:none;stroke:#ffb380;stroke-width:6.00001"
       d="m 4620.2281,12827.62 c 1.2425,5.849 2.1688,11.774 3.7272,17.547 4.5119,16.712 12.3494,32.136 15.1579,49.399 0.6946,4.27 1.1227,16.923 -0.6212,12.964 -4.5969,-10.437 1.7328,-68.299 20.7486,-45.04 11.7224,14.337 10.2984,25.317 6.8334,43.811 -2.7141,14.485 -8.9791,15.658 -12.7971,5.141"
       id="path684" /><path
       style="fill:none;stroke:#ffb380;stroke-width:6.00001"
       d="m 4664.4587,12869.196 c 8.1767,24.229 29.7352,45.114 43.2369,8.382 5.5814,-15.185 -2.4447,-26.932 -4.9696,-41.129 5.8808,6.333 12.6978,11.912 17.6425,19 3.3185,4.757 15.888,36.216 13.0457,40.346 -36.0192,-37.728 14.5982,-43.121 39.8822,-38.223"
       id="path686" /><path
       style="fill:none;stroke:#ffb380;stroke-width:6.00001"
       d="m 3221.4025,13501.013 c -7.5393,-0.123 -4.5771,-42.579 6.2121,-38.893 10.7884,3.685 12.5037,24.396 12.1759,33.082 -0.7898,20.931 -8.1121,37.256 -16.1515,55.992 -0.2514,0.586 0.8236,-0.972 1.2425,-1.453 2.4386,-2.798 4.6984,-5.764 7.3303,-8.382 5.461,-5.431 23.3494,-24.467 32.0548,-20.117"
       id="path688" /><path
       style="fill:none;stroke:#ffb380;stroke-width:6.00001"
       d="m 3302.161,13530.406 c 3.4787,2.012 6.442,6.477 10.4365,6.036 9.1064,-1.007 7.2472,-27.456 4.8453,-32.635 -10.3122,-22.237 -28.075,-0.171 -29.1971,-1.229 -5.185,-4.891 -2.0079,-14.16 -3.9759,-21.011 -1.8399,-6.406 -4.9696,-12.369 -7.4546,-18.553 13.6371,-8.422 25.316,-15.107 40.752,-9.5"
       id="path690" /><path
       style="fill:none;stroke:#ffb380;stroke-width:6.00001"
       d="m 3367.389,13444.126 c -10.168,15.858 -12.4497,42.141 -1.8638,58.899 9.4901,15.023 26.1335,20.518 28.8245,-0.112 0.4911,-3.763 -0.2921,-7.687 -1.4909,-11.288 -6.8389,-20.543 -22.7338,-7.719 -31.4335,3.8 -2.7491,3.64 -2.2437,7.377 2.2362,6.929"
       id="path692" /><path
       style="fill:none;stroke:#ffb380;stroke-width:6.00001"
       d="m 3455.9746,13479.22 c 13.6711,-3.488 26.4742,-10.91 40.752,-11.624"
       id="path694" /><path
       style="fill:none;stroke:#ffb380;stroke-width:6.00001"
       d="m 3559.7183,13385.675 c 1.2356,16.674 1.8743,21.668 1.9878,38.781 0.071,10.706 -4.7522,30.272 -0.8697,40.458 1.6931,4.442 8.9424,-3.434 12.9212,-6.035 10.1555,-6.64 28.2051,-22.035 41.3732,-20.788"
       id="path696" /><path
       style="fill:none;stroke:#ffb380;stroke-width:6.00001"
       d="m 3647.9312,13395.063 c 10.1269,-5.457 19.7313,-11.485 31.061,-13.524"
       id="path698" /><path
       style="fill:none;stroke:#ffb380;stroke-width:6.00001"
       d="m 3690.7953,13298.277 c 4.7434,37.074 12.2772,73.421 22.2398,109.415"
       id="path700" /><path
       style="fill:none;stroke:#ffb380;stroke-width:6.00001"
       d="m 3837.8999,13297.494 c -5.9629,-23.367 -0.25,-26.073 0,0 z"
       id="path702" /><path
       style="fill:none;stroke:#ffb380;stroke-width:6.00001"
       d="m 3842.8696,13333.705 c 1.1911,5.328 15.5032,68.267 24.6001,48.393"
       id="path704" /><path
       style="fill:none;stroke:#ffb380;stroke-width:6.00001"
       d="m 3885.2368,13298.165 c 9.0894,16.047 49.0664,19.348 51.4368,40.458 1.1822,10.527 -13.0051,25.524 -22.3639,28.275 -5.7629,1.695 -12.0102,-0.297 -18.0152,-0.446"
       id="path706" /><path
       style="fill:none;stroke:#ffb380;stroke-width:6.00001"
       d="m 3820.3816,13445.914 c -3.9344,0.708 -12.5111,-1.811 -11.8034,2.124 0.7078,3.934 8.7403,0.445 11.8034,-2.124 9.6789,-8.116 14.2451,-21.746 24.8486,-28.611 42.0801,-27.243 93.3029,-36.443 141.6378,-44.257"
       id="path708" /><path
       style="fill:none;stroke:#ffb380;stroke-width:6.00001"
       d="m 3572.7009,13753.753 c -0.8438,-9.661 36.8075,-41.985 39.0123,-39.34 4.1849,5.019 -1.3867,13.004 -2.4848,19.446 -3.6015,21.127 -8.4283,46.121 -3.8515,67.393"
       id="path710" /><path
       style="fill:none;stroke:#ffb380;stroke-width:6.00001"
       d="m 3575.8068,13771.97 c 13.2197,-18.444 38.1087,-27.673 60.0096,-31.852"
       id="path712" /><path
       style="fill:none;stroke:#ffb380;stroke-width:6.00001"
       d="m 3732.7267,13693.625 c -1.1597,-5.626 -2.6466,-11.193 -3.4788,-16.876 -0.094,-0.639 0.1376,-2.007 0.7454,-1.788 1.1742,0.422 1.8431,1.77 2.3606,2.905 1.6184,3.553 0.39,15.206 0.3728,15.759 z"
       id="path714" /><path
       style="fill:none;stroke:#ffb380;stroke-width:6.00001"
       d="m 3741.6723,13712.624 c 0.7659,4.673 10.4036,43.823 14.5364,44.929 1.1279,0.301 1.4081,-1.863 2.1122,-2.794"
       id="path716" /><path
       style="fill:none;stroke:#ffb380;stroke-width:6.00001"
       d="m 3770.7452,13700.33 c 2.409,16.794 -2.1291,8.501 18.2639,13.523 5.3877,1.327 10.9136,2.491 15.9031,4.918 24.5081,11.923 -6.9411,41.241 -26.7124,26.376 -7.1427,-5.37 -5.716,-6.282 -4.4728,-12.294"
       id="path718" /><path
       style="fill:none;stroke:#ffb380;stroke-width:6.00001"
       d="m 3871.7554,13701.783 c -12.4446,-3.569 -16.1237,20.732 -5.9637,21.459 22.7521,1.628 -21.5378,-18.732 5.9637,-21.459 17.9319,-1.778 12.5238,17.077 20.0033,23.806"
       id="path720" /><path
       style="fill:none;stroke:#ffb380;stroke-width:6.00001"
       d="m 3891.2616,13672.055 c -0.1656,-3.242 2.7442,-9.889 -0.4969,-9.724 -17.5877,0.899 26.8663,26.777 17.2699,37.999"
       id="path722" /><path
       style="fill:none;stroke:#ffb380;stroke-width:6.00001"
       d="m 3906.6677,13661.437 c 15.3781,14.977 23.8988,34.637 35.037,52.528"
       id="path724" /><path
       style="fill:none;stroke:#ffb380;stroke-width:6.00001"
       d="m 4048.5543,13620.309 c 6.4137,15.579 10.2433,31.948 14.5364,48.169 0.1371,0.519 -0.2376,-1.046 -0.3728,-1.565 -1.1073,-4.249 -2.151,-8.517 -3.3546,-12.74 -1.1899,-4.177 -10.1008,-33.108 -10.809,-33.864 -14.4286,-15.399 -23.6599,4.534 -15.9034,11.511"
       id="path726" /><path
       style="fill:none;stroke:#ffb380;stroke-width:6.00001"
       d="m 4040.1056,13690.16 c 3.5983,-4.693 52.461,-62.465 50.6915,-39.116"
       id="path728" /><path
       style="fill:none;stroke:#ffb380;stroke-width:6.00001"
       d="m 4046.1936,13563.981 c 23.5186,3.412 11.1853,-0.784 35.4095,16.54"
       id="path730" /><path
       style="fill:none;stroke:#ffb380;stroke-width:6.00001"
       d="m 4111.4214,13567.669 c -27.3574,50.945 50.5798,13.677 47.5853,56.328 -1.1015,15.69 -39.3494,52.198 -35.9064,9.723"
       id="path732" /><path
       style="fill:none;stroke:#ffb380;stroke-width:6.00001"
       d="m 4217.2772,13555.934 c -2.9234,-4.658 -4.168,-10.18 -6.8334,-14.976 -0.7345,-1.322 1.2361,2.759 1.8637,4.135 1.6502,3.616 3.7455,7.059 4.9697,10.841 2.5096,7.753 20.5938,65.263 11.3062,70.633"
       id="path734" /><path
       style="fill:none;stroke:#ffb380;stroke-width:6.00001"
       d="m 4212.8044,13602.538 c -18.6298,-3.638 19.3183,-37.446 26.0911,-30.287 8.5164,9.001 7.4398,25.167 14.6608,35.205 7.1718,9.971 8.9252,-20.807 11.679,-24.699 1.301,-1.839 6.5011,15.054 9.3181,17.77"
       id="path736" /><path
       style="fill:none;stroke:#ffb380;stroke-width:6.00001"
       d="m 4277.908,13582.98 c -4.2656,35.553 11.888,27.999 14.5365,1.788 0.091,-0.898 0.5686,-3.563 0.3728,-2.682 -1.7648,7.938 -0.5297,27.384 7.4547,31.964 1.3845,0.794 3.0646,-0.894 4.5971,-1.341"
       id="path738" /><path
       style="fill:none;stroke:#ffb380;stroke-width:6.00001"
       d="m 4307.7266,13580.298 c 19.8154,-2.338 -7.2075,-18.029 -2.2365,-24.588 4.971,-6.559 -0.6165,16.868 2.2365,24.588 3.2948,8.915 27.9164,29.991 10.8093,32.299 -6.7429,-26.371 -13.1108,-21 12.1759,-31.517 14.0424,-5.84 15.3878,-5.804 26.8366,-6.258"
       id="path740" /><path
       style="fill:none;stroke:#ffb380;stroke-width:6.00001"
       d="m 4413.5821,13525.982 c -4.9466,16.458 31.21,70.017 23.2336,17.993 -0.1016,-0.664 -0.057,1.365 0.1244,2.012 0.8173,2.91 1.6661,5.828 2.8575,8.606 0.2484,0.578 8.4934,23.557 15.1577,17.435 5.7296,-5.264 -0.7781,-22.598 1.3668,-23.582 4.8451,-2.224 39.3494,-11.593 27.7062,-25.147 -8.0108,-9.325 -21.6668,12.452 -21.7424,16.317 -0.1675,8.54 2.5151,17.451 7.2059,24.588 6.2664,9.534 35.4608,10.683 43.9822,3.018"
       id="path742" /><path
       style="fill:none;stroke:#ffb380;stroke-width:6.00001"
       d="m 4539.9379,13487.535 c 0.9911,1.948 -0.4556,30.842 9.3183,31.964 4.9284,0.566 4.6242,-21.226 6.4609,-20.005 1.3369,0.889 10.1936,30.935 17.1455,24.364 6.3146,-5.969 6.146,-18.456 7.2062,-26.264 0.3741,-2.755 0.5075,-10.652 1.7394,-8.159 2.8697,5.807 -5.8103,22.289 4.4728,25.482 7.9375,2.465 18.4684,-13.642 19.6305,-14.976 0.8326,-0.956 2.0452,-4.507 1.9878,-3.241 -0.2074,4.572 -2.9438,38.696 4.7215,25.482"
       id="path744" /><path
       style="fill:none;stroke:#ffb380;stroke-width:6.00001"
       d="m 4617.0936,13489.882 c 2.4847,5.924 4.3849,12.128 7.4543,17.771 6.8691,12.626 7.7446,-23.529 9.8153,-21.012 4.1738,5.074 8.8037,30.751 17.6427,22.8"
       id="path746" /><path
       style="fill:none;stroke:#ffb380;stroke-width:6.00001"
       d="m 4652.7515,13474.683 c 28.0609,1.192 12.1692,63.218 -9.1941,33.081 -6.219,-8.773 36.1321,-14.774 42.6154,-13.299 0.9303,0.211 -0.414,1.862 -0.621,2.794"
       id="path748" /><path
       style="fill:none;stroke:#ffb380;stroke-width:6.00001"
       d="m 3707.7003,13898.569 c 5.2882,18.814 22.0141,31.026 30.5641,47.946"
       id="path750" /><path
       style="fill:none;stroke:#ffb380;stroke-width:6.00001"
       d="m 3714.9065,13939.809 c 2.0748,-22.727 16.2126,-23.367 35.9063,-29.17"
       id="path752" /><path
       style="fill:none;stroke:#ffb380;stroke-width:6.00001"
       d="m 3776.5314,13931.65 c -22.3989,43.254 -37.6307,-25.05 -11.9274,-36.658 29.8582,-13.483 27.3031,44.135 18.2639,47.946 -3.9759,1.677 -4.2244,-7.525 -6.3365,-11.288 z"
       id="path754" /><path
       style="fill:none;stroke:#ffb380;stroke-width:6.00001"
       d="m 3862.6323,13870.293 c -37.1091,19.263 34.9679,25.526 49.8216,42.693 6.8691,7.938 2.8784,24.943 -9.9393,24.252 -11.5216,-0.62 -14.4137,-12.645 -18.3883,-20.341"
       id="path756" /><path
       style="fill:none;stroke:#ffb380;stroke-width:6.00001"
       d="m 3888.475,13905.386 c 10.7042,-10.789 22.08,-6.62 34.5398,-10.17 3.8369,-1.094 7.7067,-2.417 11.0577,-4.583 14.4351,-9.33 -0.123,-25.961 -5.8396,-14.305 -9.0086,18.368 -3.2356,40.281 20.8729,36.77 29.6744,-4.323 43.003,-52.209 23.358,-73.205 -15.4117,-16.471 -4.1331,38.251 -3.6031,39.899 4.3458,13.524 11.003,24.198 15.6546,37.217"
       id="path758" /><path
       style="fill:none;stroke:#ffb380;stroke-width:6.00001"
       d="m 3965.1335,13906.504 c 14.2058,-17.402 40.1587,-30.799 62.9915,-22.241"
       id="path760" /><path
       style="fill:none;stroke:#ffb380;stroke-width:6.00001"
       d="m 3613.9113,14060.404 c -3.3131,4.768 -6.9572,9.323 -9.9396,14.305 -4.3487,7.265 -12.7005,15.767 -9.4424,23.582 4.8048,11.525 56.661,-5.779 59.2642,29.84 0.6485,8.871 -17.5749,48.81 -32.5516,33.753 -6.141,-6.174 -5.2184,-16.616 -7.8275,-24.923"
       id="path762" /><path
       style="fill:none;stroke:#ffb380;stroke-width:6.00001"
       d="m 3668.9513,14122.879 c 1.7809,6.668 5.185,13.105 5.3424,20.005 0.039,1.721 -3.5655,2.94 -4.8453,1.788 -2.8673,-2.579 -4.1995,-6.704 -4.8456,-10.505 -2.4236,-14.262 -2.5633,-30.385 4.3485,-43.699 1.2636,-2.434 4.1685,-5.231 6.8334,-4.583 13.159,3.199 11.9689,33.542 11.182,40.905 -1.5507,14.506 -6.0468,20.1 -8.2002,17.212 -4.6403,-6.225 -6.5434,-14.082 -9.8152,-21.123 z"
       id="path764" /><path
       style="fill:none;stroke:#ffb380;stroke-width:6.00001"
       d="m 3755.3007,14086.109 c -4.9041,5.311 -22.3581,24.706 -7.8275,33.081 11.0623,6.377 21.4398,-12.886 24.2277,-19.67 1.1509,-2.8 3.4382,-10.437 0.7456,-9.052 -3.5349,1.817 7.5147,31.506 10.9333,35.763"
       id="path766" /><path
       style="fill:none;stroke:#ffb380;stroke-width:6.00001"
       d="m 3792.9466,14076.497 c 0.084,-2.483 0.4213,-18.856 1.3666,-21.458 1.2732,-3.505 7.2647,2.757 9.6909,5.588 8.0206,9.36 46.7051,52.31 21.867,63.481 -2.727,1.227 -6.2656,0.656 -8.9455,-0.671 -17.4654,-8.646 -11.302,-21.864 -2.485,-33.416"
       id="path768" /><path
       style="fill:none;stroke:#ffb380;stroke-width:6.00001"
       d="m 3842.0229,14062.304 c 1.8637,-3.8 2.5826,-8.423 5.5909,-11.4 1.3007,-1.287 7.5007,2.841 14.5365,12.629 9.7951,13.626 22.7824,34.536 16.8971,52.416 -0.8076,2.454 -3.0131,5.526 -5.591,5.365 -13.078,-0.818 -24.3472,-46.093 -11.803,-44.481"
       id="path770" /><path
       style="fill:none;stroke:#ffb380;stroke-width:6.00001"
       d="m 3926.1358,14049.675 c -0.5797,-4.359 -2.4069,-8.731 -1.7394,-13.077 0.281,-1.829 6.6172,-5.07 6.3365,-3.241 -0.858,5.586 -3.0647,10.878 -4.5971,16.318 z"
       id="path772" /><path
       style="fill:none;stroke:#ffb380;stroke-width:6.00001"
       d="m 3929.9873,14067.78 c 1.5068,8.716 14.5418,64.717 27.8307,55.881"
       id="path774" /><path
       style="fill:none;stroke:#ffb380;stroke-width:6.00001"
       d="m 3963.9058,14062.639 c -0.9937,-3.688 -4.4225,-14.602 -2.9818,-11.065 6.9273,17.011 21.3987,51.493 19.6305,69.516"
       id="path776" /><path
       style="fill:none;stroke:#ffb380;stroke-width:6.00001"
       d="m 3965.5211,14103.991 c 9.3906,-14.775 20.619,-22.408 37.7701,-23.694"
       id="path778" /><path
       style="fill:none;stroke:#ffb380;stroke-width:6.00001"
       d="m 4052.119,14030.451 c 0.6212,5.104 0.2593,10.427 1.8637,15.312 2.7514,8.377 6.9334,16.236 11.0577,24.029 2.4776,4.681 5.7378,8.906 8.6969,13.299 2.1354,3.171 4.395,6.256 6.5849,9.388 0.3363,0.481 1.1557,2.017 0.9941,1.453 -3.5835,-12.49 -4.7429,-7.31 -5.5912,-24.476 -1.1086,-22.437 17.8075,-3.392 21.3701,5.253 4.9827,12.092 -2.3677,43.163 -8.2002,28.947 -2.2841,-5.569 -0.9938,-11.996 -1.4909,-17.994"
       id="path780" /><path
       style="fill:none;stroke:#ffb380;stroke-width:6.00001"
       d="m 4108.7742,14051.016 c 0.7869,4.694 2.1717,9.326 2.3606,14.082 0.2088,5.261 -4.0746,14.882 1.1182,15.758 9.3323,1.574 21.6296,-16.797 23.2335,-24.588 1.1968,-5.813 -4.055,12.613 -1.1183,17.771 2.773,4.87 4.332,2.857 7.7033,1.341"
       id="path782" /><path
       style="fill:none;stroke:#ffb380;stroke-width:6.00001"
       d="m 4151.2655,14044.421 c -1.1597,3.503 -4.123,6.874 -3.479,10.506 2.8683,16.174 46.4256,20.002 25.3458,-9.723"
       id="path784" /><path
       style="fill:none;stroke:#ffb380;stroke-width:6.00001"
       d="m 4175.7416,14012.122 c 11.7594,-4.203 7.4673,42.157 22.488,39.117 3.6338,-0.735 6.1293,-4.172 9.194,-6.258"
       id="path786" /><path
       style="fill:none;stroke:#ffb380;stroke-width:6.00001"
       d="m 4217.8601,14024.193 c -3.6859,2.608 -8.4133,4.163 -11.0578,7.823 -1.997,2.764 -1.982,6.651 -1.8637,10.059 0.6107,17.572 31.2537,20.155 29.5701,24.699"
       id="path788" /><path
       style="fill:none;stroke:#ffb380;stroke-width:6.00001"
       d="m 4267.1847,13990.664 c -1.4081,-3.874 -4.364,-7.503 -4.2243,-11.623 0.3384,-9.983 19.5469,-12.568 13.1699,1.117 -1.9426,4.169 -5.9637,7.004 -8.9456,10.506 z"
       id="path790" /><path
       style="fill:none;stroke:#ffb380;stroke-width:6.00001"
       d="m 4276.5031,14014.693 c -3.8007,7.226 14.02,66.493 21.3699,41.464"
       id="path792" /><path
       style="fill:none;stroke:#ffb380;stroke-width:6.00001"
       d="m 4298.1217,14001.17 c 3.6444,1.937 8.2269,2.695 10.9331,5.811 3.5819,4.125 9.6763,20.551 11.9274,26.823 0.3538,0.986 -0.01,3.591 0.87,3.018 1.0117,-0.662 2.1177,-47.406 13.0455,-26.711 2.1024,3.981 3.5441,8.278 5.3425,12.405 6.0357,13.854 3.8227,9.114 9.3181,20.117"
       id="path794" /><path
       style="fill:none;stroke:#ffb380;stroke-width:6.00001"
       d="m 3550.1742,14235.088 c 8.9819,-2.489 48.8583,-13.708 58.2706,-15.647 131.477,-27.083 266.5441,-37.213 399.4435,-54.875 134.0623,-17.816 267.8565,-35.855 402.3011,-50.628"
       id="path796" /><path
       style="fill:none;stroke:#ffb380;stroke-width:6.00001"
       d="m 3463.2928,14429.376 c 1.1181,4.433 2.6498,8.782 3.3543,13.3 0.7152,4.583 1.5674,66.401 7.8275,59.233"
       id="path798" /><path
       style="fill:none;stroke:#ffb380;stroke-width:6.00001"
       d="m 3505.1628,14443.346 c -22.6645,40.243 15.4316,37.705 36.155,14.306 6.7744,-7.649 21.8649,-35.663 -4.4727,-27.606 -10.9525,3.351 -20.8833,9.484 -31.6823,13.3 z"
       id="path800" /><path
       style="fill:none;stroke:#ffb380;stroke-width:6.00001"
       d="m 3527.1539,14400.429 c 8.7744,32.094 14.7447,64.877 21.7427,97.345"
       id="path802" /><path
       style="fill:none;stroke:#ffb380;stroke-width:6.00001"
       d="m 3589.1516,14476.092 c -6.0439,-38.388 -4.2847,31.308 4.3484,-16.987 0.3091,-1.728 -1.6777,-4.08 -0.3728,-5.253 1.2105,-1.089 0.612,3.198 0.8697,4.805 1.6029,9.99 1.5158,4.748 -4.8453,17.435 z"
       id="path804" /><path
       style="fill:none;stroke:#ffb380;stroke-width:6.00001"
       d="m 3628.1641,14403.894 c 6.1707,-5.7 11.8161,-12.027 18.5124,-17.1 2.934,-2.222 23.9054,-15.318 26.9608,-5.141 2.0902,6.963 -1.9801,30.558 -2.2365,33.529 -2.15,24.917 -5.5846,54.998 7.0821,77.787"
       id="path806" /><path
       style="fill:none;stroke:#ffb380;stroke-width:6.00001"
       d="m 3651.6462,14447.258 c 12.5915,-13.091 28.1069,-13.164 44.8519,-15.2"
       id="path808" /><path
       style="fill:none;stroke:#ffb380;stroke-width:6.00001"
       d="m 3774.6473,14381.43 c -16.7468,-12.541 -37.4722,36.661 -20.7487,42.246 21.2276,7.089 40.8763,-26.098 41.9944,-42.358 0.091,-1.324 -0.037,-13.078 -6.5849,-10.17 -5.4552,2.422 -14.0854,4.341 -14.6608,10.282 -0.7925,8.184 8.2364,14.27 11.5549,21.793 2.8297,6.416 4.2357,13.382 6.8333,19.894 11.5996,29.081 27.2402,56.245 33.7942,87.063"
       id="path810" /><path
       style="fill:none;stroke:#ffb380;stroke-width:6.00001"
       d="m 3892.9274,14470.169 c -7.5853,-15.001 15.3778,16.326 8.9456,19.335 -0.5009,0.234 -9.6137,-19.54 -8.9456,-19.335 11.7837,3.623 15.2979,18.912 16.1518,14.306"
       id="path812" /><path
       style="fill:none;stroke:#ffb380;stroke-width:6.00001"
       d="m 3928.2125,14396.518 c 4.1415,-5.216 8.146,-10.543 12.4246,-15.647 50.4311,-60.158 9.5324,64.047 13.1699,64.822 7.8546,1.674 24.9846,-14.813 30.191,-20.005"
       id="path814" /><path
       style="fill:none;stroke:#ffb380;stroke-width:6.00001"
       d="m 4012.45,14427.588 c 2.1209,3.213 5.2464,11.351 7.8272,8.494 4.2767,-4.735 1.597,-40.35 -4.2244,-39.452 -2.1164,0.326 -4.3024,9.889 -5.3424,9.499 -3.7116,-1.391 -7.2459,-25.853 -15.4062,-21.905 11.7135,-8.352 23.632,-13.928 37.8944,-14.641 19.0064,12.596 16.6195,17.157 19.7549,35.205 0.1433,0.825 2.4977,-22.172 9.3181,-18.999 7.3668,3.427 7.425,29.684 7.4548,33.864 0.068,9.504 0.3071,33.997 -14.2882,21.905"
       id="path816" /><path
       style="fill:none;stroke:#ffb380;stroke-width:6.00001"
       d="m 4042.2683,14383.889 c 5.8989,-18.208 20.4716,-27.425 38.64,-29.058"
       id="path818" /><path
       style="fill:none;stroke:#ffb380;stroke-width:6.00001"
       d="m 4147.9997,14423.564 c 1.3669,-3.39 7.4904,-8.803 4.1003,-10.17 -3.3901,-1.367 -2.7334,6.78 -4.1003,10.17 z"
       id="path820" /><path
       style="fill:none;stroke:#ffb380;stroke-width:6.00001"
       d="m 4166.2637,14366.342 c 1.8637,-3.912 2.6037,-8.596 5.5909,-11.735 2.5151,-2.643 6.3674,-3.841 9.9396,-4.582 14.0732,-2.922 14.9952,1.952 15.4061,17.658 0.4234,16.187 -11.4024,31.958 -10.0636,47.611 0.7511,8.784 34.9525,-21.329 38.2669,-27.717"
       id="path822" /><path
       style="fill:none;stroke:#ffb380;stroke-width:6.00001"
       d="m 4252.3646,14421.888 c 1.9498,2.514 5.1253,8.665 7.206,6.258 1.3581,-1.57 0.9027,-19.193 0.8697,-19.558 -0.7737,-8.649 -1.7257,-17.312 -3.4788,-25.817 -0.5831,-2.829 -1.1202,-6.268 -3.4787,-7.935 -1.1533,-0.815 -2.1728,7.116 -2.3606,7.488 -1.0909,2.159 -1.5984,-4.567 -2.485,-6.817 -6.3405,-16.093 -3.4891,-10.246 -18.6365,-23.247 13.4192,-4.595 27.6667,-1.006 41.0004,-4.917"
       id="path824" /><path
       style="fill:none;stroke:#ffb380;stroke-width:6.00001"
       d="m 4279.8223,14330.019 c 6.6739,6.429 11.1366,58.976 14.7852,62.364 1.9005,1.764 1.2832,-5.031 2.1119,-7.489 2.0037,-5.941 2.1087,-15.063 8.0759,-16.987 3.8489,-1.242 4.6405,6.95 5.2183,10.952 0.8864,6.139 2.6083,43.5 -4.3484,46.27 -3.861,1.537 -7.5374,-3.502 -11.3062,-5.253"
       id="path826" /><path
       style="fill:none;stroke:#ffb380;stroke-width:6.00001"
       d="m 4280.3195,14362.319 c 3.5202,-6.408 5.4379,-14.007 10.5605,-19.224 7.0507,-7.179 41.6926,-13.549 51.9338,-11.399"
       id="path828" /><path
       style="fill:none;stroke:#ffb380;stroke-width:6.00001"
       d="m 3403.2829,14567.402 c -12.156,-68.975 -12.844,-139.898 -21.3699,-209.33 5.7981,1.9 11.3883,4.624 17.3942,5.7 10.2983,1.844 33.4796,-3.8 43.7338,-5.141 19.6842,-2.575 39.2996,-4.757 59.14,-5.7 55.3766,-2.633 107.7771,-12.117 162.7593,-20.229 68.09,-10.047 136.452,-19.177 204.8778,-26.6 114.9021,-12.464 229.9111,-26.26 343.9067,-45.487 36.3701,-6.134 72.3042,-13.65 108.3406,-21.458 16.0775,-3.484 60.9182,-16.676 76.4097,-11.735 4.7312,1.509 5.7865,17.712 6.0881,20.899 1.5517,16.402 -0.3063,21.616 -0.1243,41.129 0.3004,32.203 1.737,43.3 4.3486,74.992 3.1602,38.351 5.6976,76.861 9.9394,115.115 0.1,0.901 3.1448,9.81 1.2425,11.735 -1.8471,1.869 -14.8241,-0.896 -16.8971,-0.67 -4.386,0.478 -8.7112,1.412 -13.0457,2.235 -39.4462,7.487 -78.2679,17.31 -118.0315,23.358 -60.0483,9.134 -120.3316,16.333 -180.4019,25.035 -40.262,5.832 -80.1288,12.577 -120.6406,16.541 -65.9234,6.449 -132.1225,6.899 -198.1688,11.288 -27.0997,1.8 -53.6271,4.488 -80.8826,4.247 -4.2618,-0.04 -33.7762,-2.33 -36.155,-2.459 -51.0404,-2.761 -103.4884,-4.427 -154.3107,1.676 -25.1839,3.025 -50.4435,6.291 -75.2917,11.512 -5.5213,1.16 -13.4299,2.199 -18.5123,5.029 -2.5089,1.397 0.6711,9.655 1.2425,7.6 3.8779,-13.951 -3.9154,-28.708 -5.094,-43.14 -1.5147,-18.547 1.7024,-37.639 -2.4849,-55.77 -0.8605,-3.726 -4.0586,-6.482 -6.0879,-9.723"
       id="path830" /><path
       style="fill:none;stroke:#ffb380;stroke-width:6.00001"
       d="m 3377.813,14379.642 c 0.4556,-3.092 1.4796,-6.153 1.3666,-9.277 -0.989,-27.356 -6.1336,-55.546 -8.6971,-82.815 -7.003,-74.496 -17.6509,-149.256 -20.2515,-224.084 -0.049,-1.412 1.3806,2.832 2.7331,3.242 3.1123,0.942 6.4509,1.388 9.6912,1.117 14.2513,-1.192 31.0319,-7.395 44.8519,-10.394 47.5546,-10.317 94.2859,-22.717 142.5075,-29.84 73.8436,-10.907 146.7345,-27.429 220.6569,-37.776 72.9727,-10.214 146.7144,-14.697 219.9114,-23.023 85.0418,-9.673 169.8368,-21.184 254.8239,-31.293 36.1413,-4.299 72.3649,-8.309 108.589,-11.847 16.7248,-1.633 33.4602,-3.158 50.1943,-4.694 5.3388,-0.49 10.9718,0.443 16.0277,-1.341 4.1198,-1.453 4.7495,-7.043 4.9697,-6.482 2.5524,6.504 -1.6381,39.994 -1.7394,42.022 -1.0959,21.92 -2.173,46.123 -2.485,67.728 -0.7334,50.796 -0.016,57.137 5.3425,114.556 2.0926,22.426 8.0219,43.712 13.5427,65.381 1.8854,7.401 3.253,14.903 5.2181,22.353 0.962,3.647 2.9512,8.622 2.4847,8.382 -26.9814,-13.869 -68.3765,-7.597 -95.1706,-6.818 -30.28,0.881 -60.6338,2.172 -90.822,4.694"
       id="path832" /><path
       style="fill:none;stroke:#ffb380;stroke-width:6.00001"
       d="m 4652.7261,14261.691 c 10.093,26.878 24.2665,52.028 35.1607,78.68 2.1074,5.156 8.913,20.194 8.3243,27.605 -0.4614,5.812 -7.2379,-9.609 -8.4484,-15.311 -2.7543,-12.974 -5.3046,-26.093 -5.9637,-39.34 -3.4962,-70.26 -1.2115,-229.405 106.7252,-221.177"
       id="path834" /><path
       style="fill:none;stroke:#ffb380;stroke-width:6.00001"
       d="m 4647.5077,14275.996 c -3.1475,-2.123 -6.1937,-4.405 -9.4425,-6.37 -4.364,-2.639 -9.3128,-2.882 -13.6668,-5.141 -1.3972,-0.725 3.2491,-0.446 4.7213,0.112 4.5254,1.714 16.2456,8.93 18.388,11.399 13.6361,15.721 44.8355,80.743 39.1366,98.686 -0.1593,0.502 -0.4712,-0.948 -0.621,-1.453 -1.3229,-4.462 -2.4331,-8.987 -3.479,-13.523 -6.191,-26.851 -8.9471,-45.627 -10.1878,-76.781 -3.4057,-85.51 26.5637,-180.201 126.3558,-185.972"
       id="path836" /><path
       style="fill:none;stroke:#ffb380;stroke-width:6.00001"
       d="m 4949.0472,14267.614 c 1.4531,3.115 4.3603,-18.19 -1.3668,-17.323 -4.2614,0.645 -7.0792,5.046 -9.9394,8.27 -7.7546,8.742 -16.2094,24.256 -18.5123,35.205 -4.8416,23.021 13.435,51.909 39.3853,37.552 4.5601,-2.522 7.289,-7.45 10.9334,-11.176"
       id="path838" /><path
       style="fill:none;stroke:#ffb380;stroke-width:6.00001"
       d="m 4975.5111,14255.544 c 0.4908,0.541 13.1784,41.847 18.6367,39.228 2.5456,-1.221 9.288,-29.068 14.7849,-14.417 1.0073,2.685 7.1456,47.471 5.3425,34.088"
       id="path840" /><path
       style="fill:none;stroke:#ffb380;stroke-width:6.00001"
       d="m 5014.5236,14295.89 c 4.0172,-1.527 8.0344,-3.055 12.0518,-4.582 1.9463,-0.41 3.9667,-0.559 5.8394,-1.23 4.0994,-1.467 17.84,-12.054 10.4365,-17.882 -11.3213,-8.911 -22.2176,72.57 12.6727,32.858"
       id="path842" /><path
       style="fill:none;stroke:#ffb380;stroke-width:6.00001"
       d="m 5063.4755,14275.885 c 3.5267,21.991 22.9852,36.934 22.9852,5.252"
       id="path844" /><path
       style="fill:none;stroke:#ffb380;stroke-width:6.00001"
       d="m 5095.1578,14241.797 c -0.1013,16.15 3.3295,41.463 26.0914,30.511 6.8747,3.688 13.7495,7.377 20.6242,11.065"
       id="path846" /><path
       style="fill:none;stroke:#ffb380;stroke-width:6.00001"
       d="m 5150.819,14238.109 c -0.5384,6.557 -3.8079,13.467 -1.615,19.67 2.9461,8.334 25.2026,15.738 29.5698,28.611 7.3665,21.715 -25.0997,43.699 -43.1125,44.817 -4.2638,0.264 -8.0346,-2.906 -12.0518,-4.359"
       id="path848" /><path
       style="fill:none;stroke:#ffb380;stroke-width:6.00001"
       d="m 4880.9615,14497.285 c -0.041,3.875 1.352,8.041 -0.1241,11.624 -2.5676,6.23 -10.0904,-1.676 -13.7912,-10.506 -5.2485,-12.524 -9.0786,-30.642 -4.3484,-44.258 1.4002,-4.03 4.5712,-9.654 8.8215,-9.276 25.0986,2.23 34.9345,33.442 24.9729,53.087 -1.6155,3.186 -1.7827,-6.949 -2.1121,-10.506"
       id="path850" /><path
       style="fill:none;stroke:#ffb380;stroke-width:6.00001"
       d="m 4898.6041,14454.48 c 1.7809,5.514 3.1338,11.185 5.3425,16.541 8.7619,21.246 23.1352,26.569 36.4035,4.024 14.447,-24.548 -0.784,-57.439 1.4909,-83.934 0.4146,-4.829 0.2085,-10.094 2.6091,-14.305 1.5496,-2.718 2.8617,5.65 3.4787,8.717 0.9721,4.831 1.6822,9.715 2.7334,14.529 2.0103,9.207 18.863,70.075 13.1699,74.769"
       id="path852" /><path
       style="fill:none;stroke:#ffb380;stroke-width:6.00001"
       d="m 4948.1775,14460.627 c -1.4909,-5.253 -6.3624,-10.635 -4.4728,-15.758 5.4354,-14.737 48.2209,-14.797 58.7674,-6.259"
       id="path854" /><path
       style="fill:none;stroke:#ffb380;stroke-width:6.00001"
       d="m 5116.9005,14410.334 c 1.4081,-3.948 8.1732,-10.438 4.2243,-11.847 -3.9489,-1.407 -2.8162,7.899 -4.2243,11.847 z"
       id="path856" /><path
       style="fill:none;stroke:#ffb380;stroke-width:6.00001"
       d="m 5060.618,14433.581 c -14.6989,-6.479 0.8692,-20.371 1.3666,-13.747 0.345,4.592 -0.911,9.165 -1.3666,13.747 z"
       id="path858" /><path
       style="fill:none;stroke:#ffb380;stroke-width:6.00001"
       d="m 5052.0453,14487.786 c 3.5615,3.39 6.3611,7.828 10.6849,10.17 4.1024,2.222 9.012,2.704 13.6668,3.018 34.9083,2.351 43.3374,-29.794 47.2125,-58.34 0.6509,-4.795 4.4405,-19.499 -4.9697,-18.441"
       id="path860" /></g></svg>
