<?xml version="1.0" encoding="UTF-8" standalone="no"?>
<!-- Created with Inkscape (http://www.inkscape.org/) -->

<svg
   width="60.978802mm"
   height="36.190823mm"
   viewBox="0 0 60.9788 36.190823"
   version="1.1"
   id="svg12"
   inkscape:version="1.2.1 (9c6d41e410, 2022-07-14, custom)"
   sodipodi:docname="surface_integral_flow.svg"
   xml:space="preserve"
   xmlns:inkscape="http://www.inkscape.org/namespaces/inkscape"
   xmlns:sodipodi="http://sodipodi.sourceforge.net/DTD/sodipodi-0.dtd"
   xmlns="http://www.w3.org/2000/svg"
   xmlns:svg="http://www.w3.org/2000/svg"><sodipodi:namedview
     id="namedview14"
     pagecolor="#000000"
     bordercolor="#ffffff"
     borderopacity="1"
     inkscape:showpageshadow="0"
     inkscape:pageopacity="0"
     inkscape:pagecheckerboard="0"
     inkscape:deskcolor="#000000"
     inkscape:document-units="mm"
     showgrid="true"
     inkscape:zoom="1.3531553"
     inkscape:cx="235.7453"
     inkscape:cy="158.88789"
     inkscape:window-width="1366"
     inkscape:window-height="746"
     inkscape:window-x="1360"
     inkscape:window-y="0"
     inkscape:window-maximized="1"
     inkscape:current-layer="layer1"
     inkscape:lockguides="true"
     showguides="true"><sodipodi:guide
       position="3265.6758,-22192.731"
       orientation="0,-1"
       id="guide3409"
       inkscape:locked="true" /></sodipodi:namedview><defs
     id="defs9"><rect
       x="587.26367"
       y="362.45731"
       width="66.575974"
       height="20.973427"
       id="rect1884" /></defs><g
     inkscape:label="Layer 1"
     inkscape:groupmode="layer"
     id="layer1"
     transform="translate(-66.384199,-118.25077)"><path
       style="fill:none;stroke:#ffb380;stroke-width:0.3"
       d="m 68.394597,118.34776 c -1.519107,1.79214 -2.45632,4.73226 -1.419531,7.01841 0.458657,1.01135 1.079341,1.943 1.682419,2.87547 1.11448,1.72319 2.696615,3.28631 3.312276,5.30637 1.000379,3.28237 -0.934151,6.44962 -4.321722,7.16029 -0.395955,0.0831 -0.806167,-0.0694 -1.209249,-0.10404"
       id="path445" /><path
       style="fill:none;stroke:#ffb380;stroke-width:0.3"
       d="m 76.638461,118.41397 c -5.363011,4.46828 1.709026,7.34549 3.638251,11.29378 2.265397,4.63629 -2.40379,9.40267 -6.0462,11.58699"
       id="path447" /><path
       style="fill:none;stroke:#ffb380;stroke-width:0.3"
       d="m 69.2884,147.26323 c 0.282321,1.82401 0.328557,3.67192 0.515225,5.50501 0.01119,0.10986 0.140579,1.45366 0.273413,1.51341 0.199334,0.0896 0.07585,-0.43447 0.06308,-0.65266"
       id="path449" /><path
       style="fill:none;stroke:#ffb380;stroke-width:0.3"
       d="m 69.120151,146.09981 c 0.157731,-0.70311 0.147399,-1.46659 0.473191,-2.10931 0.802392,-1.58294 2.017078,-0.71354 2.397448,0.46348 0.148254,0.45876 0.169045,0.95575 0.157724,1.43774 -0.03472,1.47794 -0.894866,2.58943 -1.345946,3.91592 -0.04691,0.13796 -0.09053,0.37468 0.04206,0.43511 0.22761,0.10374 0.498589,-0.043 0.746583,-0.0757 0.44618,-0.0588 0.885663,-0.1827 1.335418,-0.19863 1.803339,-0.0639 2.758072,0.78273 3.238666,2.46874"
       id="path451" /><path
       style="fill:none;stroke:#ffb380;stroke-width:0.3"
       d="m 88.362852,128.50648 c 1.281271,1.123 3.656238,2.95325 3.112476,4.9564 -0.120435,0.44367 -0.316788,0.96252 -0.725553,1.17289 -1.783892,0.91807 -3.308414,-2.07371 -1.125114,-2.27011"
       id="path453" /><path
       style="fill:none;stroke:#ffb380;stroke-width:0.3"
       d="m 93.462691,131.86435 c -0.815843,-1.27063 -0.509781,-1.90552 0.210304,-3.09302 2.663,1.67127 1.291524,0.41482 3.07042,3.33895 0.26165,0.4301 0.668543,0.93077 0.715028,0.87966 0.491796,-0.54071 0.250202,-3.88249 0.06308,-4.68209"
       id="path455" /><path
       style="fill:none;stroke:#ffb380;stroke-width:0.3"
       d="m 102.87372,124.25949 c -0.94564,3.192 -2.04821,6.77015 0.36803,9.61958 0.60577,0.71437 1.30918,1.14585 2.19767,0.9175"
       id="path457" /><path
       style="fill:none;stroke:#ffb380;stroke-width:0.3"
       d="m 107.8894,133.56693 c 0.115,0.22146 0.1026,0.24115 0.0421,-0.19863 -0.10367,-0.75426 -0.12452,-1.52644 -0.32597,-2.26065 -0.27444,-1.0003 -0.82175,-1.91229 -1.09358,-2.91331 -0.0707,-0.26004 -0.1839,-0.83199 0.0841,-0.80399 0.26803,0.028 -0.0561,0.536 -0.0841,0.80399 -0.037,-1.1124 3.68321,-3.06431 3.10197,-1.43773"
       id="path459" /><path
       style="fill:none;stroke:#ffb380;stroke-width:0.3"
       d="m 107.07978,129.68883 c 0.9181,-0.78337 2.09375,-1.09158 3.20711,-1.48503"
       id="path461" /><path
       style="fill:none;stroke:#ffb380;stroke-width:0.3"
       d="m 105.82847,125.51751 c 0.82314,-1.09989 2.93088,-0.74464 3.83803,-1.5607 0.015,-0.0135 -2.09569,-1.15109 -1.85066,-0.73778"
       id="path463" /><path
       style="fill:none;stroke:#ffb380;stroke-width:0.3"
       d="m 111.46459,121.30835 c 1.46024,3.05679 3.99809,6.36541 3.54359,9.96009 -0.26377,2.08619 -1.64324,3.47482 -2.66031,5.17396"
       id="path465" /><path
       style="fill:none;stroke:#ffb380;stroke-width:0.3"
       d="m 119.34042,124.4865 c 0.33649,-0.0725 0.76218,-0.45699 1.00945,-0.21755 1.10057,1.06572 1.46714,6.67641 -0.5573,7.00896 -1.27195,0.20893 -0.35762,-2.93199 -0.26287,-3.13086 0.19333,-0.40578 0.53978,-0.71887 0.80967,-1.0783"
       id="path467" /><path
       style="fill:none;stroke:#ffb380;stroke-width:0.3"
       d="m 123.28359,130.77659 c 2.20677,-9.63659 -0.74016,3.14572 1.05151,-4.39833 0.18071,-0.76094 0.36149,-1.52219 0.51525,-2.28903 0.12323,-0.61462 0.23069,-1.23282 0.31544,-1.85392 0.2697,-1.9764 -0.59514,0.52094 -0.23131,2.34578 0.35373,1.77415 1.14715,3.55769 2.31331,4.9564"
       id="path469" /><path
       style="fill:none;stroke:#ffb380;stroke-width:0.3"
       d="m 124.47182,127.91058 c 0.54017,-1.91022 -0.0555,-0.98022 2.80753,-1.75933"
       id="path471" /></g></svg>
