<?xml version="1.0" encoding="UTF-8" standalone="no"?>
<!-- Created with Inkscape (http://www.inkscape.org/) -->

<svg
   width="412.20071mm"
   height="164.38309mm"
   viewBox="0 0 412.2007 164.38309"
   version="1.1"
   id="svg12"
   inkscape:version="1.2.1 (9c6d41e410, 2022-07-14, custom)"
   sodipodi:docname="surface_chop.svg"
   xml:space="preserve"
   xmlns:inkscape="http://www.inkscape.org/namespaces/inkscape"
   xmlns:sodipodi="http://sodipodi.sourceforge.net/DTD/sodipodi-0.dtd"
   xmlns="http://www.w3.org/2000/svg"
   xmlns:svg="http://www.w3.org/2000/svg"><sodipodi:namedview
     id="namedview14"
     pagecolor="#000000"
     bordercolor="#ffffff"
     borderopacity="1"
     inkscape:showpageshadow="0"
     inkscape:pageopacity="0"
     inkscape:pagecheckerboard="0"
     inkscape:deskcolor="#000000"
     inkscape:document-units="mm"
     showgrid="true"
     inkscape:zoom="0.52314274"
     inkscape:cx="774.1673"
     inkscape:cy="338.33978"
     inkscape:window-width="1366"
     inkscape:window-height="746"
     inkscape:window-x="1360"
     inkscape:window-y="0"
     inkscape:window-maximized="1"
     inkscape:current-layer="layer1"
     inkscape:lockguides="true"
     showguides="true"><sodipodi:guide
       position="3265.6758,-22192.731"
       orientation="0,-1"
       id="guide3409"
       inkscape:locked="true" /></sodipodi:namedview><defs
     id="defs9"><rect
       x="587.26367"
       y="362.45731"
       width="66.575974"
       height="20.973427"
       id="rect1884" /></defs><g
     inkscape:label="Layer 1"
     inkscape:groupmode="layer"
     id="layer1"
     transform="translate(-3152.6979,-22638.75)"><path
       style="fill:none;stroke:#00ffff;stroke-width:0.499999"
       d="m 3185.7161,22699.612 c -0.01,4.829 0.1437,9.656 0.2178,14.484 0.2148,14.021 -1.3094,28.019 -0.816,42.033 0.1363,3.875 0.7247,8.504 1.3055,12.355 0.5101,3.382 0.4622,2.983 0.4622,1.639"
       id="path2734" /><path
       style="fill:none;stroke:#00ffff;stroke-width:0.499999"
       d="m 3186.3146,22702.132 c 4.5964,0.517 9.239,1.091 13.8711,1.126 5.6163,0.04 11.6075,-0.128 17.1894,-0.808 4.4281,-0.539 8.8109,-1.341 13.2726,-1.566 21.1031,-1.059 42.2865,-0.141 63.3722,-1.516 8.4124,-0.549 16.7293,-1.738 25.1042,-2.618 1.0922,-0.115 2.2756,-0.174 3.3723,-0.343 0.3165,-0.05 0.6377,-0.529 0.8978,-0.342 0.1947,0.14 -0.1151,9.96 -0.136,10.789 -0.3712,14.724 1.2782,29.322 1.2782,44.014 0,1.295 0.4442,7.564 -0.6527,8.441 -1.7902,1.432 -9.1311,1.912 -11.3962,2.276 -12.9217,2.075 -25.7617,1.658 -38.7847,1.932 -16.8865,0.356 -33.7955,2.901 -50.3714,5.995 -6.4661,1.206 -13.2244,1.09 -19.7731,1.565 -5.6163,0.408 -10.8185,1.68 -16.1287,-0.709 -0.7702,-0.347 1.5803,0.604 2.3936,0.832"
       id="path2736" /><path
       style="fill:none;stroke:#00ffff;stroke-width:0.499999"
       d="m 3240.0041,22787.103 c -0.2812,1.859 -1.0017,3.704 -0.8432,5.578 0.2662,3.15 3.3957,10.189 7.5882,10.202 4.7414,0.02 12.2516,-12.603 10.7162,-16.221 -0.2627,-0.619 -1.1602,0.718 -1.6047,1.224"
       id="path2738" /><path
       style="fill:none;stroke:#00ffff;stroke-width:0.499999"
       d="m 3152.9102,22726.981 c 4.8355,7.781 2.9863,3.779 5.4395,10.79 0.4908,1.402 3.3126,11.008 4.5966,12.037 0.2615,0.21 0.5488,-0.476 0.5983,-0.808 0.3109,-2.078 0.3254,-4.19 0.4625,-6.287 0.423,-6.483 0.8202,-12.967 1.2239,-19.451 0.4017,-6.454 2.0926,-5.101 -0.245,-6.63"
       id="path2740" /><path
       style="fill:none;stroke:#00ffff;stroke-width:0.499999"
       d="m 3332.1979,22719.612 c 0.7525,-1.541 1.1592,-3.306 2.2577,-4.624 2.2783,-2.733 9.8608,-4.381 12.7558,-4.966 12.3238,-2.493 25.5567,-0.771 37.2346,3.865 3.7737,1.499 4.9601,2.36 8.5132,3.817 3.134,1.285 6.373,2.279 9.465,3.67 0.491,0.221 1.5909,1.072 1.5232,0.538 -0.4533,-3.564 -2.9451,-6.705 -2.6927,-10.471 0.3879,-5.788 4.5768,-7.238 9.1112,-3.426 5.7941,4.873 -13.543,20.704 -17.3797,22.265 -0.5061,0.205 -0.1638,-1.118 0,-1.64"
       id="path2742" /><path
       style="fill:none;stroke:#00ffff;stroke-width:0.499999"
       d="m 3458.0621,22645.364 c -0.039,11.707 0.1603,4.709 -0.544,15.952 -1.0263,16.383 -1.6568,32.812 -1.8767,49.226 0,0.271 -0.011,9.024 0.9789,10.349 0.4776,0.639 0.3083,-1.566 0.4625,-2.349"
       id="path2746" /><path
       style="fill:none;stroke:#00ffff;stroke-width:0.499999"
       d="m 3455.8044,22639.737 c -4.5329,3.854 -3.7055,2.449 -6.5548,7.56 -10.4709,18.785 12.8352,-6.614 12.3481,-8.221 -0.093,-0.307 -0.5535,0.39 -0.68,0.686 -1.0247,2.396 -1.3359,4.056 -0.6527,6.654 1.6724,6.36 6.8985,10.788 11.0426,15.585"
       id="path2748" /><path
       style="fill:none;stroke:#00ffff;stroke-width:0.499999"
       d="m 3552.005,22746.213 c -0.8448,1.71 -0.4889,0.779 2.2847,-1.639 2.6392,-2.301 9.7523,-7.77 10.1722,-11.328 0.6358,-5.386 -0.2509,-6.712 -4.5149,-8 -1.1993,-0.363 -2.4744,-0.45 -3.7264,-0.49 -3.7213,-0.123 0.042,3.529 0.7618,4.527 2.3727,3.287 1.6655,2.409 3.9163,5.113 0.2643,0.317 3.1933,3.59 2.8832,3.67 -0.4472,0.115 -1.8161,-0.571 -2.1214,-0.661 -1.8651,-0.563 -3.7301,-1.126 -5.6029,-1.663 -5.466,-1.567 -10.9468,-3.14 -16.4552,-4.551 -15.44,-3.954 -31.3071,-7.233 -47.0802,-9.469 -6.3024,-0.893 -12.5987,-1.592 -18.9299,-2.25 -3.6319,-0.378 -11.4784,-2.026 -15.0953,-0.636 -1.0834,0.416 -2.0306,1.125 -3.0461,1.688 -12.8409,16.074 -25.8796,31.989 -38.8663,47.953 -2.2041,2.71 -4.3585,5.459 -6.5277,8.196 -0.8194,1.035 -3.235,4.17 -2.4206,3.132 3.5386,-4.51 5.5395,-18.203 5.5756,-23.634 0.017,-2.539 -0.2312,-6.268 -1.5503,-6.043 -1.9298,0.329 -2.696,2.907 -3.5901,4.648 -2.5311,4.931 -7.7402,18.416 -5.7932,23.635 2.0996,5.627 13.6744,0.579 17.5429,0.146 5.1895,-0.581 9.5493,-0.417 13.572,3.083"
       id="path2750" /><path
       style="fill:none;stroke:#00ffff;stroke-width:0.499999"
       d="m 3427.763,22724.316 c 5.0025,-4.968 11.2853,-4.845 17.7605,-4.037 3.13,0.391 6.3418,0.759 9.2474,2.08 13.5043,6.139 22.3383,21.034 29.5103,33.274 1.9984,3.41 5.2803,7.262 6.6635,10.911"
       id="path2752" /><path
       style="fill:none;stroke:#00ffff;stroke-width:0.499999"
       d="m 3431.8157,22722.579 c 10.0531,-14.492 25.3486,-25.398 43.3813,-25.934 6.4397,-0.192 15.298,1.753 21.5138,3.058 2.4852,0.522 11.0601,2.092 11.5591,4.967 7.2616,1.404 5.5665,-0.404 8.9485,7.903 3.0029,7.376 2.9582,22.087 2.5838,30.215 -0.064,1.381 -0.1379,2.765 -0.3263,4.135 -0.1331,0.967 -2.9623,11.865 -1.6863,4.477"
       id="path2754" /><path
       style="fill:none;stroke:#00ffff;stroke-width:0.499999"
       d="m 3518.7144,22739.583 c -0.8324,4.952 0.3283,14.367 -2.04,18.912 -0.1669,0.32 -0.3278,-0.651 -0.408,-1.003 -7.8776,-2.005 -10.6181,-0.793 -17.5701,3.376 -0.4039,0.243 -3.9543,2.704 -3.427,3.817 0.5705,1.204 2.8151,0.04 3.155,-0.147 4.1646,-2.273 4.4223,-7.736 8.2955,-10.006 2.6083,-1.529 4.8619,-1.462 7.5339,-0.49 0.6033,0.22 4.1801,1.765 2.0127,3.45 -0.3661,0.285 -5.7551,-0.967 -6.7451,-1.003 -1.5608,-0.06 -3.9927,0.197 -5.3582,0.465 -1.9487,0.382 -17.0091,6.261 -10.4985,10.227 1.5297,0.931 4.212,-3.338 4.5421,-3.793 3.8478,-5.302 5.009,-7.627 12.1305,-8.856 0.8491,-0.147 1.8129,-0.312 2.5838,0.07 1.3178,0.658 2.2303,1.925 3.3454,2.887 2.8812,-12.307 2.2034,-24.21 2.2575,-36.72 0.014,-3.238 0.2337,-6.479 0.082,-9.713 -0.1349,-2.869 0.23,-12.361 -2.7198,-16.466 -1.4306,-1.991 -1.5167,-1.702 -2.1216,-0.954"
       id="path2756" /><path
       style="fill:none;stroke:#00ffff;stroke-width:0.499999"
       d="m 3513.764,22696.253 c -0.5286,5.669 1.6105,11.001 2.6927,16.466 0.8998,4.543 1.1636,7.845 1.3329,12.649 0.2905,8.249 -0.5402,16.521 -2.2304,24.588 -0.2183,1.042 -0.4813,2.074 -0.7342,3.107 -0.1122,0.459 0,1.686 -0.3538,1.371 -0.408,-0.368 0.2305,-1.074 0.3265,-1.615 0.3069,-1.73 0.535,-3.473 0.7887,-5.212 1.12,-7.669 2.1202,-15.408 2.2302,-23.169 0.041,-2.887 0.3953,-5.818 -0.1087,-8.661 -0.8123,-4.582 -2.0722,-9.114 -3.8076,-13.432 -1.283,-3.191 -4.1437,-5.694 -5.4126,-8.929"
       id="path2758" /><path
       style="fill:none;stroke:#00ffff;stroke-width:0.499999"
       d="m 3515.4505,22705.551 c -3.6621,0.04 -6.9763,-1.872 -10.5257,-2.643 -10.1481,-2.202 -20.6793,-2.526 -31.0063,-1.884 -4.7863,0.298 -9.7409,0.869 -14.4965,1.517 -0.091,0.01 0.1805,0.04 0.2717,0.05 0.7157,0.09 1.4325,0.163 2.1487,0.245"
       id="path2760" /><path
       style="fill:none;stroke:#00ffff;stroke-width:0.499999"
       d="m 3480.3918,22701.709 c 0.4985,-1.019 1.2274,-1.955 1.496,-3.058 0.4691,-1.928 -3.8441,-2.582 -4.4606,-2.618 -4.8633,-0.283 -9.892,1.698 -14.3336,3.401 -6.7132,2.575 -25.4164,9.556 -28.7213,16.441 -1.1282,2.35 0.5705,5.438 -0.5985,7.805 -0.173,0.35 0.4546,-0.635 0.68,-0.954 0.5604,-0.793 1.0943,-1.605 1.6862,-2.374 3.1007,-4.026 6.5971,-7.727 10.7707,-10.667 12.5753,-8.857 29.3613,-13.207 44.6325,-12.844 4.6331,0.11 9.7785,0.113 14.0616,2.128 0.259,0.122 0.9308,0.606 1.2782,0.587 0.8937,-0.05 8.0235,-0.47 8.0235,0.343 0,0.515 -1.0107,-0.218 -1.496,-0.391 -2.0508,-0.735 -2.8509,-1.087 -5.3036,-1.591 -5.6314,-1.156 -9.7028,-1.02 -15.9927,-0.93 -13.5371,0.196 -26.9396,3.767 -39.383,8.906 -2.3878,0.986 -9.0402,2.642 -7.5885,6.484"
       id="path2762" /><path
       style="fill:none;stroke:#00ffff;stroke-width:0.499999"
       d="m 3435.6505,22719.056 c 3.4759,-2.422 7.7116,-1.005 11.4234,0.293 10.2222,3.576 19.0614,9.533 25.0225,18.717 2.9519,4.548 4.0505,10.053 7.0987,14.533 0.1961,0.288 0.589,0.583 0.9247,0.489 0.8983,-0.252 -0.1039,-1.893 -0.4352,-2.765"
       id="path2764" /><path
       style="fill:none;stroke:#00ffff;stroke-width:0.499999"
       d="m 3466.0583,22731.044 c 7.2448,2.051 7.5438,4.523 11.3144,11.01 1.8751,3.225 4.4831,8.162 6.0108,11.621 1.5634,3.54 2.6196,7.146 3.7806,10.814 0.4961,1.567 0.752,2.262 0.8432,2.226 1.0502,-0.404 -3.6721,-13.513 -3.9711,-14.239 -4.1627,-10.103 -9.1797,-20.652 -16.9987,-28.478 -4.3296,-4.333 -9.8845,-7.292 -15.1767,-10.251"
       id="path2766" /><path
       style="fill:none;stroke:#00ffff;stroke-width:0.499999"
       d="m 3508.7324,22723.289 c 0.8612,0.423 1.7227,0.848 2.5839,1.272 4.3059,1.42 2.8489,1.84 4.6782,1.223"
       id="path2770" /><path
       style="fill:none;stroke:#ffccaa;stroke-width:0.499999"
       d="m 3239.0146,22748.854 c -1.1681,-8.722 -0.8263,-17.518 -1.5775,-26.276 7.0991,1.433 14.2576,-0.93 21.4051,-0.367 1.1058,0.09 2.3643,0.424 3.4814,0.318 0.353,-0.03 0.9979,-0.77 0.9791,-0.416 -0.2083,3.932 -0.077,7.973 0.2448,11.891 0.1135,1.384 1.5099,10.525 1.0063,11.107 -0.4062,0.47 -5.5805,0.139 -6.31,0.1 -0.8275,-0.05 -15.7955,0.594 -16.7813,1.37 -0.8754,0.689 -1.6319,1.517 -2.4479,2.275 z"
       id="path2902" /><path
       style="fill:none;stroke:#ffccaa;stroke-width:0.499999"
       d="m 3250.0844,22750.616 c 2.2772,-0.73 6.7405,12.745 0.8431,11.303 -3.2997,-0.807 -1.6336,-6.313 2.5566,-4.697"
       id="path2904" /><path
       style="fill:none;stroke:#ffccaa;stroke-width:0.499999"
       d="m 3255.9592,22751.399 c -0.6995,2.964 3.9685,10.482 5.902,4.746 0.2487,-0.737 0.5847,-5.766 -1.1695,-3.327"
       id="path2906" /><path
       style="fill:none;stroke:#ffccaa;stroke-width:0.499999"
       d="m 3268.6064,22727.227 c 3.2959,3.735 6.3009,9.7 2.8286,14.386 -0.2841,0.383 -0.8336,0.657 -1.3055,0.587 -3.0493,-0.457 -1.5922,-9.129 2.3935,-7.536"
       id="path2908" /><path
       style="fill:none;stroke:#ffccaa;stroke-width:0.499999"
       d="m 3273.5293,22728.866 c 0.9338,1.835 1.8123,3.699 2.8014,5.505 0.8517,1.555 2.1253,3.739 2.5566,3.351 1.4393,-1.294 0.4508,-8.782 0.408,-9.859 -0.1043,-2.628 0.058,-5.777 -0.8159,-4.991"
       id="path2910" /><path
       style="fill:none;stroke:#ffccaa;stroke-width:0.499999"
       d="m 3481.8429,22716.745 c 4.5571,1.16 6.174,5.177 6.174,9.615 0,1.263 -0.1073,2.512 -0.2175,3.768 -0.037,0.423 -0.4887,1.394 -0.082,1.272 1.0241,-0.307 1.964,-1.45 2.9645,-1.908 2.3918,-1.096 5.1191,-1.56 7.6972,-2.006 0.8252,-0.143 1.6632,-0.246 2.5023,-0.22 0.551,0.02 1.7365,0.81 1.6318,0.269 -0.5475,-2.832 -2.4367,-5.245 -3.9165,-7.658 -1.1644,-1.899 -3.0584,-5.729 -5.4125,-6.435 -2.1055,-0.631 -6.8333,2.74 -8.7035,2.594"
       id="path2912" /><path
       style="fill:none;stroke:#ffccaa;stroke-width:0.499999"
       d="m 3492.9942,22733.235 c 0.6075,0.759 1.2863,1.465 1.8223,2.276 0.7846,1.186 2.0387,7.496 -0.8975,5.309 -1.6214,-1.208 -2.0894,-4.566 0.5439,-4.184 1.1695,0.481 2.3692,0.895 3.5086,1.444 0.4092,0.197 0.6706,0.689 1.1152,0.782 2.8834,0.604 4.5902,-7.634 2.1214,-6.459"
       id="path2914" /><path
       style="fill:none;stroke:#ffccaa;stroke-width:0.499999"
       d="m 3504.827,22716.339 c 0.8471,1.276 2.832,4.667 2.0807,6.226 -0.8019,1.665 -1.9781,0.692 -2.6246,-0.465 -0.5234,-0.936 -0.03,-4.022 1.6319,-2.642"
       id="path2920" /><path
       style="fill:none;stroke:#ffccaa;stroke-width:0.499999"
       d="m 3508.3628,22715.544 c 0.9284,0.767 2.3685,6.746 3.2638,7.376 0.062,0.04 0.054,-0.145 0.054,-0.22 0,-0.514 -0.025,-1.028 -0.054,-1.542 -0.1267,-2.196 -0.075,-4.539 -0.4895,-6.703 -0.026,-0.136 -0.02,0.277 -0.014,0.416"
       id="path2924" /></g></svg>
