<?xml version="1.0" encoding="UTF-8" standalone="no"?>
<!-- Created with Inkscape (http://www.inkscape.org/) -->

<svg
   width="50.179615mm"
   height="29.169125mm"
   viewBox="0 0 50.179613 29.169125"
   version="1.1"
   id="svg12"
   inkscape:version="1.2.1 (9c6d41e410, 2022-07-14, custom)"
   sodipodi:docname="surface_square_rotate_next.svg"
   xml:space="preserve"
   xmlns:inkscape="http://www.inkscape.org/namespaces/inkscape"
   xmlns:sodipodi="http://sodipodi.sourceforge.net/DTD/sodipodi-0.dtd"
   xmlns="http://www.w3.org/2000/svg"
   xmlns:svg="http://www.w3.org/2000/svg"><sodipodi:namedview
     id="namedview14"
     pagecolor="#000000"
     bordercolor="#ffffff"
     borderopacity="1"
     inkscape:showpageshadow="0"
     inkscape:pageopacity="0"
     inkscape:pagecheckerboard="0"
     inkscape:deskcolor="#000000"
     inkscape:document-units="mm"
     showgrid="true"
     inkscape:zoom="1.0875246"
     inkscape:cx="286.89006"
     inkscape:cy="125.97416"
     inkscape:window-width="1366"
     inkscape:window-height="746"
     inkscape:window-x="1360"
     inkscape:window-y="0"
     inkscape:window-maximized="1"
     inkscape:current-layer="layer1"
     inkscape:lockguides="true"
     showguides="true"><sodipodi:guide
       position="3265.6758,-22192.731"
       orientation="0,-1"
       id="guide3409"
       inkscape:locked="true" /></sodipodi:namedview><defs
     id="defs9"><rect
       x="587.26367"
       y="362.45731"
       width="66.575974"
       height="20.973427"
       id="rect1884" /></defs><g
     inkscape:label="Layer 1"
     inkscape:groupmode="layer"
     id="layer1"
     transform="translate(-234.81761,-126.06327)"><path
       style="fill:none;stroke:#ffb380;stroke-width:0.346001"
       d="m 235.29075,134.83406 c 2.94398,-0.89461 6.00011,-0.57725 8.98118,-0.052 1.24433,0.21923 2.60847,0.42844 3.72467,1.05465 1.23361,0.69208 2.53918,1.77611 3.17909,3.0741 0.3091,0.62697 0.34601,1.32477 0.59805,1.96743 0.15521,0.39575 0.57115,1.13168 0.71345,1.63164 0.26356,0.92594 0.31333,1.89052 0.48263,2.8329 0.12219,0.68008 0.34345,1.33769 0.51412,2.00526 0.44633,1.74577 0.70133,3.4526 1.82562,4.93748 1.85856,2.45466 4.3692,2.6051 7.19753,2.64846 0.87018,0.0133 2.46323,-0.0214 2.46562,-0.005 0.0164,0.11457 -0.20983,0.0977 -0.31475,0.14662"
       id="path737" /><path
       style="fill:none;stroke:#ffb380;stroke-width:0.346001"
       d="m 264.57403,154.1678 c 1.14146,-0.53207 0.93769,-0.47772 2.32923,-0.90804 1.22393,-0.3785 1.68789,-0.42359 2.99022,-0.78982 3.40112,-0.95642 6.74874,-2.08487 10.16678,-2.98897 1.12083,-0.29647 2.24098,-0.5908 3.35746,-0.90331 0.20934,-0.0586 0.8124,-0.22389 0.59805,-0.26012"
       id="path739" /><path
       style="fill:none;stroke:#ffb380;stroke-width:0.346001"
       d="m 282.49442,147.38585 c -2.04645,-0.2221 -3.95475,-0.85937 -5.83358,-1.6742 -0.40477,-0.17554 -0.85452,-0.3341 -1.21706,-0.59117 -0.61688,-0.43744 -1.07888,-1.05345 -1.66824,-1.5276 -0.54058,-0.4349 -1.10833,-0.8344 -1.59479,-1.33368 -0.33971,-0.34867 -0.63237,-0.74171 -0.96527,-1.09722 -0.26249,-0.28033 -0.47995,-0.47231 -0.70297,-0.78508 -0.94314,-1.32264 -1.28002,-2.88065 -2.35021,-4.16186 -0.24397,-0.29206 -0.57235,-0.50398 -0.82887,-0.78508 -0.53327,-0.58435 -0.95636,-1.31511 -1.55283,-1.83973 -0.43794,-0.38519 -0.9725,-0.68237 -1.4479,-1.01682 -0.64945,-0.45691 -1.30763,-0.9217 -1.93053,-1.41409 -0.39054,-0.30871 -0.61905,-0.7487 -0.98625,-1.0783 -0.22532,-0.20223 -0.49517,-0.3489 -0.73445,-0.53442 -0.91681,-0.71081 -1.66733,-1.70322 -2.7594,-2.17552 -2.2932,-0.99176 -5.02367,-0.94722 -7.47033,-0.99317"
       id="path741" /><path
       style="fill:none;stroke:#ffb380;stroke-width:0.346001"
       d="m 235.01795,134.56448 c 0.1364,0.0205 0.27138,0.056 0.40919,0.0615 0.20885,0.008 2.31055,-1.11983 2.66498,-1.28167 1.23097,-0.56209 2.51192,-1.01403 3.74566,-1.57016 1.69423,-0.7637 3.28786,-1.71254 4.92076,-2.5917 0.73996,-0.3984 1.52056,-0.70266 2.23481,-1.14924 0.10518,-0.0658 0.21187,-0.1338 0.31475,-0.20337 0.5626,-0.38038 1.13155,-0.75777 1.68922,-1.14451 0.0396,-0.0275 0.49145,-0.31169 0.44067,-0.36889 -0.0568,-0.064 -0.35991,0.12506 -0.41968,0.14661 -0.75543,0.27241 -1.22277,0.49992 -1.93054,0.8844 -1.48434,0.80632 -2.98201,1.59824 -4.44862,2.43563 -0.56965,0.32525 -1.11126,0.69947 -1.68922,1.01209 -1.01762,0.55044 -2.13178,0.89054 -3.14761,1.45665 -1.10439,0.61547 -2.24947,1.16168 -3.36794,1.74988 -0.29906,0.15727 -0.59601,0.47229 -0.9233,0.55806 -0.15902,0.0417 -0.64948,0.0555 -0.49313,0.005 0.2412,-0.0783 0.51105,-0.0222 0.75543,-0.0899 0.14446,-0.04 0.256,-0.15633 0.3882,-0.22701 0.48498,-0.25928 0.98758,-0.49147 1.47938,-0.73778 1.57441,-0.78853 3.10905,-1.66075 4.65847,-2.49712 1.2517,-0.67566 2.56493,-1.2331 3.8191,-1.90121 1.15282,-0.61412 2.29646,-1.23588 3.37843,-1.96743 0.36274,-0.24526 0.76092,-0.4556 1.15412,-0.64792 0.16973,-0.083 0.69257,-0.26012 0.50363,-0.26012 -0.42298,0 -1.77761,0.87757 -2.15087,1.11141 -0.14154,0.0887 -0.27458,0.18308 -0.41968,0.26484 -0.0201,0.0113 -0.08,0.0438 -0.063,0.0284 0.0495,-0.0446 0.10492,-0.082 0.15738,-0.12297"
       id="path747" /><path
       style="fill:none;stroke:#ffb380;stroke-width:0.346001"
       d="m 263.65072,154.3948 c 0.19585,-0.011 0.39347,-0.005 0.58756,-0.0331 0.34458,-0.0505 0.8181,-0.27913 1.12264,-0.38781 0.97655,-0.34848 1.95055,-0.71211 2.91678,-1.08776 0.17961,-0.0698 0.56498,-0.21073 0.74494,-0.32633 0.0433,-0.0278 0.1557,-0.12225 0.10492,-0.1135 -0.53063,0.0915 -0.9985,0.40406 -1.48987,0.62428 -0.908,0.40693 -1.79445,0.85764 -2.69645,1.27693 -0.23556,0.10951 -0.47239,0.35329 -0.72395,0.2885 -0.19877,-0.0512 -0.76955,-0.2717 -0.56657,-0.24121 0.25411,0.0382 0.4675,0.2488 0.72396,0.26485 0.15064,0.009 0.27113,-0.1329 0.40919,-0.1939 0.21524,-0.0951 0.43354,-0.18316 0.6505,-0.27431 0.86285,-0.3625 1.75111,-0.66138 2.64398,-0.94115 1.37695,-0.43145 2.79003,-0.72807 4.17584,-1.12559 1.52159,-0.43646 2.99832,-0.97003 4.54306,-1.32896 0.64358,-0.14953 1.29879,-0.26709 1.93053,-0.46348 1.24854,-0.38814 2.44426,-0.95881 3.68271,-1.38571 0.64268,-0.22153 1.28008,-0.43669 1.90955,-0.69522 0.005,-0.002 0.54386,-0.25957 0.50361,-0.28376 -0.12359,-0.0743 -0.56394,0.11389 -0.72394,0.0899 -0.7223,-0.10852 -1.42282,-0.36791 -2.15088,-0.47293 -0.45623,-0.0658 -1.41682,0.0157 -1.76267,-0.19864 -0.0414,-0.0257 0.0929,-0.0633 0.3987,-0.0284 0.008,8.7e-4 0.82888,0.0872 0.89183,0.0946 0.30888,0.0363 0.62161,0.0885 0.9338,0.071 0.11704,-0.007 0.43329,0.017 0.34624,-0.0615 -0.24482,-0.22075 -2.19772,-0.42208 -2.5076,-0.46821 -0.36412,-0.0542 -0.72683,-0.108 -1.08069,-0.21282 -0.29505,-0.0874 -0.52355,-0.20809 -0.83936,-0.20809"
       id="path749" /><g
       id="g906"
       transform="translate(-3.8080691,-2.6377911)"><path
         style="fill:none;stroke:#ffb380;stroke-width:0.346"
         d="m 261.68314,143.71664 c -1.10863,0.90387 0.48116,3.88593 0.10704,4.56863 -0.13422,0.24483 -0.25732,-0.51763 -0.28551,-0.80736 -0.14071,-1.4461 -0.41833,-3.84725 0.8387,-4.96757 0.43668,-0.38917 3.51706,-0.42078 4.42554,-0.62687 0.007,-0.002 1.11315,-0.34912 1.14209,-0.23744 0.26973,1.04094 -0.0575,2.3298 0.0356,3.40988 0.005,0.0446 0.23741,2.14085 0.21408,2.16559 -0.28821,0.30685 -1.4644,0.16416 -1.69524,0.18035 -1.35712,0.0952 -2.69745,0.33617 -4.05081,0.47491 -0.3481,0.0358 -2.84066,0.37968 -1.9094,-0.20904"
         id="path751" /><path
         style="fill:none;stroke:#ffb380;stroke-width:0.346"
         d="m 264.88578,141.47332 c -0.69472,-0.22657 -0.45793,-0.27233 -1.07075,-0.0774 -0.78179,0.2486 -0.81599,0.16486 -0.38499,0.5552 0.28892,0.26163 0.55063,0.48137 0.87825,0.67786 0.43806,0.26272 0.64393,0.39941 0.0601,0.67786"
         id="path753" /><path
         style="fill:none;stroke:#ffb380;stroke-width:0.346"
         d="m 260.73019,144.90009 c -0.40207,-0.14342 -0.64251,-0.2683 -0.82179,-0.64856 -0.0151,-0.032 -0.0507,-0.0797 -0.0249,-0.10362 0.0558,-0.0516 0.13647,0.0698 0.19093,0.1228 0.17501,0.17057 0.4911,0.60898 0.65576,0.62937 0.53054,0.0656 1.04095,-0.28099 1.47753,-0.52959 0.0586,-0.0334 0.40729,-0.32337 0.36524,-0.0998"
         id="path755" /><path
         style="fill:none;stroke:#ffb380;stroke-width:0.346"
         d="m 266.2978,147.01846 c -0.35942,-0.167 -0.29278,-0.16132 -0.67378,-0.23764 -0.11915,-0.0238 -0.23956,-0.0376 -0.35935,-0.0564 -0.0774,-0.0122 -0.15524,-0.0202 -0.23208,-0.0362 -0.0135,-0.003 -0.0509,-0.0166 -0.0374,-0.0201 0.0846,-0.0219 0.87573,-0.12128 0.81602,0.0846 -0.051,0.17556 -0.15534,0.32408 -0.25453,0.46723 -0.19456,0.28077 -0.44607,0.4998 -0.64383,0.77737 -0.0442,0.062 -0.12565,0.25538 -0.06,0.23361 0.10021,-0.0331 0.35421,-0.3466 0.39679,-0.39472"
         id="path757" /><path
         style="fill:none;stroke:#ffb380;stroke-width:0.346"
         d="m 268.3236,143.95776 c -0.36508,0.10537 -1.39747,0.28791 -1.60827,0.66846 -0.0714,0.12881 0.27612,0.0915 0.41593,0.0752 0.56805,-0.066 1.06632,-0.23817 1.5898,-0.44711 0.0425,-0.017 0.072,0.0593 0.11088,0.0841 0.35472,0.22651 0.7628,0.3071 1.16462,0.38957"
         id="path759" /></g><path
       style="fill:none;stroke:#ffb380;stroke-width:0.346001"
       d="m 257.9196,139.91624 c 0.0392,-0.0941 0.0931,-0.18345 0.11749,-0.28246 0.0677,-0.27464 -7.4e-4,-0.53736 -0.007,-0.80912 -0.007,-0.32292 0.0189,-0.64441 0.0131,-0.96801 -0.009,-0.48606 -0.0526,-0.97316 -0.0457,-1.45937 0.006,-0.45515 0.0718,-0.9086 0.0718,-1.36227 0,-0.2922 -0.10074,-0.54691 -0.23498,-0.8003 -0.007,-0.0131 -0.11596,-0.21072 -0.0849,-0.21773 0.27326,-0.0616 0.56715,0.0306 0.84202,0.0471 0.31942,0.0191 0.63967,0.0203 0.95953,0.0294 1.28758,0.0367 2.57048,0.0806 3.85767,0.003 0.10463,-0.006 1.445,-0.12335 1.47519,-0.0706 0.0771,0.13461 -0.16923,1.05079 -0.1893,1.27694 -0.0333,0.37536 0.0143,0.72958 0.0196,1.10336 0.004,0.26473 -0.0556,0.5246 -0.0914,0.78559 -0.0447,0.32621 -0.14764,0.62423 -0.20888,0.94447 -0.0453,0.23672 -0.009,0.49003 -0.0587,0.72968 -0.0175,0.0842 -0.11939,0.4102 -0.0783,0.44723 0.0425,0.0383 0.0494,-0.10327 0.0718,-0.15594"
       id="path927" /><path
       style="fill:none;stroke:#ffb380;stroke-width:0.346001"
       d="m 264.94305,135.24097 c -0.1262,-0.0108 -0.25421,-0.0563 -0.37859,-0.0324 -0.59236,0.11373 -1.43103,0.49691 -1.93862,0.82972 -0.0518,0.034 -0.14699,0.0808 -0.12402,0.13829 0.0731,0.1832 1.88038,-0.58685 2.08875,-0.7032 0.12288,-0.0686 0.22307,-0.28778 0.35248,-0.23244 0.14608,0.0625 0.0587,0.3251 0.15666,0.45016 0.14464,0.18461 0.61845,0.32785 0.81592,0.4031 0.1546,0.0589 0.41874,0.16814 0.27415,0.10298 -0.0316,-0.0143 -0.0653,-0.0235 -0.0979,-0.0353"
       id="path929" /><path
       style="fill:none;stroke:#ffb380;stroke-width:0.346001"
       d="m 259.81253,133.83456 c 0.38769,-0.38727 0.90449,-0.51767 1.41645,-0.65613 0.14113,-0.0382 0.37315,-0.0824 0.37859,-0.0736 0.0643,0.10442 -1.77805,0.59189 -1.79504,0.72969 -0.003,0.0255 0.99335,0.72002 1.0705,0.78559 0.15104,0.12835 0.34646,0.30693 0.41122,0.51489 0.0236,0.0758 0.0171,0.26227 0,0.12358"
       id="path931" /><path
       style="fill:none;stroke:#ffb380;stroke-width:0.346001"
       d="m 256.79689,137.15933 c 0.19887,-0.27366 0.61933,-1.2569 1.04438,-1.36227 0.68153,-0.16897 1.48926,0.38139 1.97779,0.56491"
       id="path935" /></g></svg>
