<?xml version="1.0" encoding="UTF-8" standalone="no"?>
<!-- Created with Inkscape (http://www.inkscape.org/) -->

<svg
   width="187.99258mm"
   height="161.12595mm"
   viewBox="0 0 187.99258 161.12595"
   version="1.1"
   id="svg12"
   inkscape:version="1.2.1 (9c6d41e410, 2022-07-14, custom)"
   sodipodi:docname="surface_area_curved.svg"
   xml:space="preserve"
   xmlns:inkscape="http://www.inkscape.org/namespaces/inkscape"
   xmlns:sodipodi="http://sodipodi.sourceforge.net/DTD/sodipodi-0.dtd"
   xmlns="http://www.w3.org/2000/svg"
   xmlns:svg="http://www.w3.org/2000/svg"><sodipodi:namedview
     id="namedview14"
     pagecolor="#000000"
     bordercolor="#ffffff"
     borderopacity="1"
     inkscape:showpageshadow="0"
     inkscape:pageopacity="0"
     inkscape:pagecheckerboard="0"
     inkscape:deskcolor="#000000"
     inkscape:document-units="mm"
     showgrid="true"
     inkscape:zoom="0.73983556"
     inkscape:cx="350.07779"
     inkscape:cy="294.66007"
     inkscape:window-width="1366"
     inkscape:window-height="746"
     inkscape:window-x="1360"
     inkscape:window-y="0"
     inkscape:window-maximized="1"
     inkscape:current-layer="layer1"
     inkscape:lockguides="true"
     showguides="true"><sodipodi:guide
       position="3265.6758,-22192.731"
       orientation="0,-1"
       id="guide3409"
       inkscape:locked="true" /></sodipodi:namedview><defs
     id="defs9"><rect
       x="587.26367"
       y="362.45731"
       width="66.575974"
       height="20.973427"
       id="rect1884" /></defs><g
     inkscape:label="Layer 1"
     inkscape:groupmode="layer"
     id="layer1"
     transform="translate(-3299.1637,-22596.471)"><path
       style="fill:none;stroke:#00ffff;stroke-width:0.499999"
       d="m 3405.606,22637.108 c -1.3147,-1.972 -2.3296,-4.123 -3.8849,-5.934 -2.0247,-2.359 -4.5437,-4.35 -6.2312,-6.989 -0.8826,-1.381 -1.2784,-2.981 -1.8848,-4.481 -0.5787,-1.432 -1.4001,-2.863 -2.1924,-4.187 -2.1253,-3.55 -5.2147,-6.082 -7.9236,-9.134 -2.9874,-3.366 -5.2627,-7.284 -9.3661,-9.567 2.1501,-0.569 -2.8788,1.622 -3.0771,1.73 -2.1677,1.179 -4.6028,1.921 -7.0197,2.387 -3.3248,0.641 -6.8035,0.67 -10.1546,1.263 -1.8417,0.326 -3.6127,0.924 -5.4427,1.298 -3.613,0.737 -7.268,1.453 -10.9046,2.058 -3.2677,0.545 -6.0771,0.492 -8.8083,2.786 0.9561,1.31 2.327,2.288 3.2887,3.598 3.4498,4.699 6.0934,9.936 9.4237,14.722 2.8403,4.083 6.1181,7.83 8.9237,11.937 2.4849,3.639 4.4004,7.419 6.4428,11.297 6.1429,-1.895 12.4847,-3.295 18.5782,-5.363 3.9496,-1.339 7.6193,-3.432 11.5778,-4.757 2.1151,-0.708 4.3289,-1.074 6.4812,-1.644 0.8327,-0.22 8.1887,-2.135 8.2313,-2.058"
       id="path3098" /><path
       style="fill:none;stroke:#00ffff;stroke-width:0.499999"
       d="m 3375.7385,22656.536 c -3.0233,0.318 -2.7879,7.584 0.5193,6.972 0.64,-0.119 1.1327,-0.668 1.5962,-1.125 2.3489,-2.315 2.7688,-4.679 1.4425,-7.543 -0.4578,-0.988 -0.9702,-2.225 -1.7502,-3.027 -1.2839,-1.32 -3.1398,-0.739 -4.7503,-0.519 -0.1461,0.02 -2.5049,0.292 -1.577,-0.225 3.4943,-1.946 6.9448,2.561 8.1352,5.259 0.7545,1.71 1.1311,7.24 -1.4232,7.802 -1.5896,0.351 -3.7504,-1.321 -3.7118,-3.044 0.036,-1.599 0.6876,-3.185 1.5193,-4.55 1.4183,-2.329 2.6709,-2.166 4.8465,-2.561"
       id="path3102" /><path
       style="fill:none;stroke:#00ffff;stroke-width:0.499999"
       d="m 3371.3536,22670.341 c 5.3541,-3.951 11.4507,-6.815 17.7512,-8.909 2.267,-0.754 2.7527,-0.928 3.7118,-0.623"
       id="path3104" /><path
       style="fill:none;stroke:#00ffff;stroke-width:0.499999"
       d="m 3379.0272,22677.503 c -2.3835,0.59 -2.8016,8.468 0.4039,7.56 4.4677,-1.264 4.1362,-6.742 1.7885,-9.67 -0.9029,-1.126 -7.9901,-5.145 -6.3273,-6.142"
       id="path3106" /><path
       style="fill:none;stroke:#00ffff;stroke-width:0.499999"
       d="m 3384.7969,22674.926 c -2.1713,3.909 4.2406,6.072 5.5196,1.92 0.3891,-1.263 -0.079,-2.633 -0.7309,-3.702 -0.277,-0.454 -0.9063,-1.726 -1.0385,-1.211 -0.1162,0.452 0.5528,1.356 0.6731,1.782 0.5185,1.833 0.2458,5.105 -2.2309,5.38 -1.0787,0.12 -2.5035,-1.415 -2.6348,-2.37 -0.084,-0.612 0.012,-2.243 0.4424,-1.799 6.3144,6.511 -2.8626,1.188 2.8655,4.844 4.2002,2.68 3.0381,-6.21 2.231,-7.889"
       id="path3108" /><path
       style="fill:none;stroke:#00ffff;stroke-width:0.499999"
       d="m 3399.1825,22669.476 c 0.035,0.319 -0.01,1.245 -0.1347,0.952 -0.9773,-2.226 -0.9583,-5.204 -1.4808,-7.509 -0.1963,-0.865 -0.7155,-1.658 -0.7885,-2.543 -0.084,-1.011 0.2409,-2.016 0.3269,-3.027 0.086,-1.012 -0.4892,4.029 -0.3269,3.027 -0.6667,-1.309 -1.3335,-2.618 -2.0002,-3.927 -0.096,-0.138 -0.4022,-0.291 -0.2885,-0.415 0.1255,-0.137 7.8668,-2.445 8.0006,-2.041 0.1579,0.476 -0.6924,0.726 -1.0386,1.089"
       id="path3110" /><path
       style="fill:none;stroke:#00ffff;stroke-width:0.499999"
       d="m 3396.9515,22660.065 c 0.8583,0.411 4.7204,-1.215 5.0581,0.121"
       id="path3112" /><path
       style="fill:none;stroke:#00ffff;stroke-width:0.499999"
       d="m 3396.1823,22651.64 c 1.1411,-0.173 2.2928,-0.287 3.4233,-0.519 0.3463,-0.07 4.2556,-1.086 3.8657,-1.869 -0.4396,-0.882 -1.7912,-0.823 -2.6733,-1.263 -0.5599,-0.278 -2.0748,-1.3 -1.4617,-1.176 0.3963,0.08 0.7308,0.346 1.0962,0.519"
       id="path3114" /><path
       style="fill:none;stroke:#00ffff;stroke-width:0.499999"
       d="m 3304.7335,22625.638 c -2.9627,3.732 3.2375,9.822 6.4043,5.968 1.1594,-1.411 0.1622,-3.673 -0.4423,-5.051 -1.0203,-2.326 -2.3557,-4.818 -4.9235,-5.692 -1.642,-0.559 -3.5649,-0.358 -5.2695,-0.45 -1.8883,-0.102 -0.9465,-0.111 -0.019,0.294"
       id="path3116" /><path
       style="fill:none;stroke:#00ffff;stroke-width:0.499999"
       d="m 3303.9835,22637.419 c 4.4255,-2.034 8.97,-3.777 13.674,-5.052 2.2635,-0.613 4.679,-0.565 3.4618,-0.622"
       id="path3118" /><path
       style="fill:none;stroke:#00ffff;stroke-width:0.499999"
       d="m 3308.7146,22644.443 c 2.4271,2.434 2.8299,2.377 4.1926,5.103 0.4609,0.923 1.1821,2.439 0.9808,3.616 -0.2532,1.481 -1.4432,3.522 -3.2502,2.197 -1.6693,-1.224 -3.277,-4.431 -1.1924,-6.055 0.7208,-0.561 1.9832,-0.212 2.6925,-0.138"
       id="path3120" /><path
       style="fill:none;stroke:#00ffff;stroke-width:0.499999"
       d="m 3314.1957,22646.778 c 1.9735,1.283 3.0979,3.365 4.5196,5.173 0.3558,0.453 1.2216,1.787 1.2309,1.211 0.051,-3.196 -0.5745,-6.657 -0.9617,-9.809 -0.1214,-0.988 -0.822,-2.055 -0.4038,-2.958 0.1527,-0.33 0.2721,0.675 0.3846,1.02"
       id="path3122" /><path
       style="fill:none;stroke:#00ffff;stroke-width:0.499999"
       d="m 3328.1967,22637.713 c -0.3829,1.608 -0.9513,-2.125 -1.1154,-2.872 -1.879,-8.549 0.6916,1.915 -1.654,-7.352 0.381,-0.581 8.5942,-4.286 3.3656,-0.398"
       id="path3124" /><path
       style="fill:none;stroke:#00ffff;stroke-width:0.499999"
       d="m 3326.5235,22629.375 c 0.9044,-0.683 4.2863,-2.389 4.5388,-2.371"
       id="path3126" /><path
       style="fill:none;stroke:#00ffff;stroke-width:0.499999"
       d="m 3321.677,22624.219 c 1.2012,-0.606 7.249,-1.491 7.8659,-3.097 1.1531,-3 -7.3068,-4.518 -4.1156,-3.114"
       id="path3128" /><path
       style="fill:none;stroke:#00ffff;stroke-width:0.499999"
       d="m 3359.0258,22647.021 c 8.9347,-8.179 20.2708,-12.759 30.5214,-18.927 1.1435,-0.688 2.2865,-1.402 3.2887,-2.283 0.4612,-0.406 1.3669,-1.003 1.0385,-1.523 -0.4202,-0.664 -1.5386,-0.323 -2.3079,-0.484"
       id="path3130" /><path
       style="fill:none;stroke:#00ffff;stroke-width:0.499999"
       d="m 3370.6035,22634.028 c -2.2334,0.999 -4.2402,2.494 -6.5197,3.391 -0.2131,0.08 0.073,-0.495 0.2501,-0.64 1.1437,-0.937 2.4007,-1.728 3.6348,-2.543 5.8371,-3.853 11.9537,-7.079 17.982,-10.605 0.7937,-0.464 4.3695,-2.445 4.308,-3.287 -0.026,-0.354 -0.7051,0.08 -1.0577,0.121"
       id="path3132" /><path
       style="fill:none;stroke:#00ffff;stroke-width:0.499999"
       d="m 3360.449,22634.686 c -5.7752,2.742 -7.2249,1.883 0.4231,-3.53 3.1883,-2.256 13.0505,-8.411 16.5012,-10.535 1.0603,-0.653 7.3972,-4.183 8.539,-5.692 0.2503,-0.331 -0.2968,-1.023 -0.7116,-1.021 -1.5907,0.01 -3.1614,0.506 -4.6542,1.056 -3.4422,1.267 -6.7483,2.879 -10.0968,4.377 -2.5691,1.149 -5.0804,2.425 -7.6544,3.563 -3.517,1.556 -6.978,3.27 -10.6161,4.516 -0.4606,0.157 0.5027,-0.852 0.8654,-1.177 1.0132,-0.907 2.1341,-1.687 3.231,-2.491 7.6409,-5.6 5.2552,-3.719 12.6932,-8.823 1.7234,-1.183 3.5974,-2.183 5.135,-3.598 0.4311,-0.397 1.1528,-1.77 0.5769,-1.661 -2.0848,0.394 -3.9044,1.672 -5.7888,2.647 -5.0151,2.595 -12.0682,6.849 -17.0204,9.653 -1.4288,0.809 -2.8252,1.69 -4.3273,2.353 -0.543,0.24 -2.0264,0.854 -1.7501,0.329 1.5528,-2.954 13.2773,-10.115 15.5011,-11.574 1.2397,-0.814 2.5311,-1.551 3.731,-2.422 0.6637,-0.482 1.9592,-0.814 1.8463,-1.626 -0.094,-0.678 -1.3728,0.08 -2.0386,0.242 -2.2935,0.545 -8.0436,2.626 -9.6545,3.183 -0.4447,0.154 -6.0166,2.214 -7.2121,2.197 -0.3107,0 0.3012,-0.56 0.5385,-0.761 1.1629,-0.983 2.4061,-1.868 3.6349,-2.768 1.3551,-0.992 2.7297,-1.958 4.1157,-2.906 1.5888,-1.088 3.7905,-1.566 4.808,-3.201 0.6367,-1.023 -2.3574,0.557 -3.4618,1.038 -3.6947,1.611 -7.2644,3.494 -10.9046,5.225 -0.7513,0.357 -1.4595,0.848 -2.2694,1.038 -0.6659,0.156 1.2119,-0.635 1.8271,-0.935 7.2279,-3.513 5.8249,-2.813 13.2317,-6.106"
       id="path3134" /><path
       style="fill:none;stroke:#00ffff;stroke-width:0.499999"
       d="m 3331.1524,22714.852 c -0.096,0.715 -0.4273,1.437 -0.2884,2.145 0.6662,3.396 5.5393,2.179 7.1351,0.225 1.9513,-2.389 0.1773,-6.128 -1.154,-8.2 -0.9807,-1.527 -3.0706,-3.558 -4.7503,-4.36 -1.5841,-0.756 -5.9248,-0.595 -6.1928,-1.055 -0.2034,-0.349 0.6636,-0.465 1.0194,-0.657"
       id="path3136" /><path
       style="fill:none;stroke:#00ffff;stroke-width:0.499999"
       d="m 3346.6727,22719.35 c 0.4187,2.731 -0.6048,-9.58 -0.9424,-8.961 -0.5064,-0.796 -1.4869,-1.445 -1.5193,-2.388 -0.019,-0.568 0.8898,-0.726 1.404,-0.969 1.4868,-0.702 3.4177,-1.246 5.058,-1.539 3.133,-0.561 -0.6731,1.741 -1.2501,2.179"
       id="path3138" /><path
       style="fill:none;stroke:#00ffff;stroke-width:0.499999"
       d="m 3344.9611,22712.88 c 1.702,0 7.5454,-2.914 8.539,-1.402"
       id="path3140" /><path
       style="fill:none;stroke:#00ffff;stroke-width:0.499999"
       d="m 3331.0178,22726.651 c 2.2513,-0.667 1.4455,-0.479 4.4811,-1.038 7.2686,-1.34 14.0195,-3.667 21.0976,-5.744 3.1926,-0.937 9.489,-2.617 7.3467,-1.332"
       id="path3142" /><path
       style="fill:none;stroke:#00ffff;stroke-width:0.499999"
       d="m 3340.1146,22733.259 c 1.0449,0.433 2.2031,0.657 3.1348,1.298 2.3383,1.609 5.6655,5.741 1.7886,7.854 -0.5332,0.291 -1.1887,0.44 -1.7886,0.346 -3.3467,-0.528 -3.6692,-4.183 -1.5578,-6.263 0.9081,-0.894 2.0002,-1.58 3.0002,-2.37"
       id="path3144" /><path
       style="fill:none;stroke:#00ffff;stroke-width:0.499999"
       d="m 3347.442,22731.356 c 0.1923,0.802 0.1721,1.687 0.577,2.405 0.7536,1.337 1.7633,2.527 2.8271,3.633 1.0382,1.079 1.9524,1.356 2.4617,-0.346 0.6621,-2.212 1.3567,-12.718 -1.0577,-13.442"
       id="path3146" /><path
       style="fill:none;stroke:#00ffff;stroke-width:0.499999"
       d="m 3378.1749,22712.638 c -0.1538,0.945 -0.2329,1.906 -0.4615,2.837 -0.4167,1.696 -1.4819,4.684 -2.154,6.401 -0.353,0.901 -0.7273,1.794 -1.1155,2.681 -0.099,0.227 -0.2373,0.88 -0.3461,0.658 -0.2822,-0.577 -0.5042,-5.58 -0.7501,-7.024"
       id="path3148" /><path
       style="fill:none;stroke:#00ffff;stroke-width:0.499999"
       d="m 3373.0592,22715.942 c 3.0153,3.222 -2.8361,-7.131 -1.7116,-5.553 0.8137,1.141 1.2513,2.521 2.0578,3.667 2.9888,4.249 6.5401,8.191 9.7122,12.318"
       id="path3150" /><path
       style="fill:none;stroke:#00ffff;stroke-width:0.499999"
       d="m 3393.6183,22697.431 c 0.5735,1.202 1.8189,2.196 2.231,3.512 0.4797,1.531 0.1367,5.808 -2.0386,5.916 -1.4736,0.07 -2.9926,-2.303 -2.0194,-3.477 0.8542,-1.031 1.827,-0.227 2.654,-0.865 0.5022,-0.387 -0.8074,-0.55 -0.9616,-0.519 -3.9977,0.804 -4.3612,7.859 0.096,6.557 6.4709,-1.891 5.3141,-8.572 1.9232,-12.854 -0.088,-0.111 -4.9309,-4.189 -4.0964,-3.097"
       id="path3152" /><path
       style="fill:none;stroke:#00ffff;stroke-width:0.499999"
       d="m 3391.6951,22714.212 c 4.1578,-0.304 8.0278,-1.801 12.097,-2.561 0.5835,-0.108 3.4761,-0.803 3.9234,-0.121 0.3879,0.592 -0.827,1.167 -1.3655,1.627"
       id="path3154" /><path
       style="fill:none;stroke:#00ffff;stroke-width:0.499999"
       d="m 3395.4454,22723 c 1.6118,1.536 1.9349,1.69 3.2502,3.651 0.6064,0.903 1.4002,2.306 1.2309,3.494 -0.2066,1.45 -1.7015,2.874 -3.231,2.215 -4.2084,-1.814 -1.5597,-4.86 1.2308,-5.917"
       id="path3156" /><path
       style="fill:none;stroke:#00ffff;stroke-width:0.499999"
       d="m 3400.9073,22723.104 c 0.8398,1.136 1.5145,2.415 2.5194,3.408 0.3452,0.341 0.8995,0.456 1.3847,0.45 3.2628,-0.04 2.0428,-7.32 0.039,-8.321"
       id="path3158" /><path
       style="fill:none;stroke:#00ffff;stroke-width:0.499999"
       d="m 3349.5576,22731.477 c -0.051,-0.548 -0.1107,-1.095 -0.1539,-1.643 -0.013,-0.161 -0.07,-0.619 0.019,-0.485 0.3945,0.592 -0.1298,1.469 0.1347,2.128 0.8234,2.054 2.1609,3.863 3.2694,5.779 0.8395,1.45 1.3052,2.102 1.404,2.041 0.7119,-0.442 0.5517,-9.085 0.5577,-10.415 0,-0.588 0,-1.662 0.096,-2.283 0.029,-0.196 0.2325,-0.709 0.2885,-0.519 0.7168,2.43 -0.88,7.979 -1.4232,10.639 -0.1476,0.723 -0.5827,3.047 -0.6347,3.062 -0.3895,0.117 -0.7949,-1.131 -1.3655,-2.681 -0.4,-1.087 -0.7524,-2.191 -1.1731,-3.27 -0.3105,-0.796 -1.5392,-1.674 -1.0193,-2.353 0.5617,-0.733 1.8462,0.05 2.7694,0.07"
       id="path3160" /><path
       style="fill:none;stroke:#00ffff;stroke-width:0.499999"
       d="m 3415.0814,22702.448 c -1.9064,4.223 -1.2287,6.938 -0.1539,11.141 0.3338,1.305 0.7833,2.842 1.0001,2.63 0.2115,-0.207 0.064,-0.589 0.096,-0.883"
       id="path3162" /><path
       style="fill:none;stroke:#00ffff;stroke-width:0.499999"
       d="m 3419.3125,22700.977 c 0.1731,-0.109 0.4642,-0.131 0.5192,-0.328 0.01,-0.02 -0.8439,0.101 -2.0001,0.311 -0.7581,0.138 -4.6936,0.815 -5.4427,1.263 -2.0645,1.235 -0.7793,1.799 0.1731,2.924 -0.01,0.778 -0.4177,1.666 -0.019,2.335 0.1124,0.189 8.5574,-2.329 9.5007,-2.647"
       id="path3164" /><path
       style="fill:none;stroke:#00ffff;stroke-width:0.499999"
       d="m 3408.7156,22697.552 c 2.8016,-1.44 2.4153,-1.444 5.6157,-2.215 1.0531,-0.253 2.1234,-0.431 3.1926,-0.605 0.1167,-0.02 2.6879,-0.304 2.6348,-0.346 -1.1585,-0.916 -2.8109,-0.926 -4.1542,-1.54 -0.1035,-0.05 -4.2622,-2.216 -4.9234,-2.785 -0.24,-0.207 -0.7254,-0.655 -0.4616,-0.83 0.5808,-0.386 1.3848,-0.162 2.0771,-0.243"
       id="path3166" /><path
       style="fill:none;stroke:#00ffff;stroke-width:0.499999"
       d="m 3430.5503,22678.88 c -2.2885,14.357 -1.8419,28.809 0.2116,43.146 0.4159,2.904 2.5164,12.147 3.1156,14.861"
       id="path3170" /><path
       style="fill:none;stroke:#00ffff;stroke-width:0.499999"
       d="m 3324.6775,22687.322 c 0.2589,23.604 1.2494,47.426 7.9621,70.204"
       id="path3172" /><path
       style="fill:none;stroke:#00ffff;stroke-width:0.499999"
       d="m 3462.7641,22718.428 c 0.5361,-3.859 0.8126,-7.735 0.9809,-11.626 0.043,-0.985 -0.078,-1.975 0,-2.958 0.01,-0.127 0.01,-0.435 0.1153,-0.364 0.2557,0.173 0.3539,0.507 0.5001,0.779 0.5339,0.992 1.0278,2.006 1.5385,3.01 1.1053,2.174 3.3068,5.611 3.6734,8.183"
       id="path3174" /><path
       style="fill:none;stroke:#00ffff;stroke-width:0.499999"
       d="m 3468.7645,22706.352 c 2.1309,1.072 1.7517,4.551 3.5387,5.848 0.3116,0.226 0.1857,-0.757 0.1731,-1.142 -0.036,-1.107 -0.4453,-2.782 -0.2885,-3.91 0.036,-0.262 0.4233,0.32 0.654,0.45 0.9838,0.553 2.0637,0.918 3.1733,0.415 1.7337,-0.787 2.0932,-3.154 1.8847,-4.809 -0.2094,-1.662 -2.7671,2.737 -1.1924,4.619 0.205,0.245 0.5081,0.504 0.827,0.484 2.0772,-0.128 2.8822,-2.041 3.7118,-3.685 0.2821,-0.559 0.3695,-3.671 -0.3078,-2.353 -0.3418,0.666 -2.0207,4.484 0.1732,4.914 2.4326,0.476 3.6936,-4.526 3.3079,-6.211 -0.078,-0.339 -0.1461,0.691 -0.1154,1.038 0.1868,2.114 1.0351,4.212 2.6925,5.588"
       id="path3176" /><path
       style="fill:none;stroke:#00ffff;stroke-width:0.499999"
       d="m 3463.091,22712.113 c 2.6135,-1.041 5.3581,0.367 7.9814,-0.138"
       id="path3178" /><path
       style="fill:none;stroke:#00ffff;stroke-width:0.499999"
       d="m 3439.0509,22680.887 c -0.3468,11.657 0.5441,23.318 1.8655,34.894 0.4981,4.364 1.0056,8.849 2.1732,13.096"
       id="path3180" /><path
       style="fill:none;stroke:#00ffff;stroke-width:0.499999"
       d="m 3317.677,22691.716 c 0.6176,18.82 3.0525,37.602 7.2889,55.949"
       id="path3182" /><path
       style="fill:none;stroke:#00ffff;stroke-width:0.499999"
       d="m 3448.8401,22707.996 c -2.0572,1.584 -2.3631,1.012 0,0 2.2723,-0.974 4.5905,-2.678 7.0389,-2.336 0.358,0.05 -0.3691,0.643 -0.6539,0.865"
       id="path3184" /><path
       style="fill:none;stroke:#00ffff;stroke-width:0.499999"
       d="m 3446.8014,22712.649 c 3.3391,-0.06 6.3891,-1.468 9.7315,-1.73"
       id="path3186" /></g></svg>
