<?xml version="1.0" encoding="UTF-8" standalone="no"?>
<!-- Created with Inkscape (http://www.inkscape.org/) -->

<svg
   width="2091.9438mm"
   height="676.26508mm"
   viewBox="0 0 2091.9438 676.26509"
   version="1.1"
   id="svg12"
   inkscape:version="1.2.1 (9c6d41e410, 2022-07-14, custom)"
   sodipodi:docname="table_example.svg"
   xml:space="preserve"
   xmlns:inkscape="http://www.inkscape.org/namespaces/inkscape"
   xmlns:sodipodi="http://sodipodi.sourceforge.net/DTD/sodipodi-0.dtd"
   xmlns="http://www.w3.org/2000/svg"
   xmlns:svg="http://www.w3.org/2000/svg"><sodipodi:namedview
     id="namedview14"
     pagecolor="#505050"
     bordercolor="#eeeeee"
     borderopacity="1"
     inkscape:showpageshadow="0"
     inkscape:pageopacity="0"
     inkscape:pagecheckerboard="0"
     inkscape:deskcolor="#505050"
     inkscape:document-units="mm"
     showgrid="true"
     inkscape:zoom="0.12176488"
     inkscape:cx="4155.5496"
     inkscape:cy="1782.1231"
     inkscape:window-width="1366"
     inkscape:window-height="746"
     inkscape:window-x="0"
     inkscape:window-y="0"
     inkscape:window-maximized="1"
     inkscape:current-layer="layer1"
     inkscape:lockguides="false"><inkscape:grid
       type="xygrid"
       id="grid344"
       color="#969696"
       opacity="0.39215686"
       empcolor="#000000"
       empopacity="0.17254902"
       dotted="false"
       originx="-760.96158"
       originy="-9990.3793" /></sodipodi:namedview><defs
     id="defs9" /><g
     inkscape:label="Layer 1"
     inkscape:groupmode="layer"
     id="layer1"
     transform="translate(-865.96161,-10138.879)"><path
       style="fill:none;stroke:#ffffff;stroke-width:1.5"
       d="m 941.27194,10148.105 c -23.48135,12.743 -45.89675,25.236 -48.02662,54.659 -0.52562,7.261 4.10094,37.17 2.22023,41.52 -0.49469,1.144 -2.43144,-0.132 -2.8045,-0.315"
       id="path1015" /><path
       style="fill:none;stroke:#ffffff;stroke-width:1.5"
       d="m 866.01856,10214.747 c 4.59621,-0.35 9.18247,-0.875 13.78866,-1.051 16.86864,-0.645 52.52571,-0.07 41.36601,3.469"
       id="path1017" /><path
       style="fill:none;stroke:#ffffff;stroke-width:1.5"
       d="m 997.47832,10156.199 c -20.94581,14.986 -38.59495,35.417 -35.99076,63.909 0.84127,9.204 17.29909,40.193 32.01775,38.156"
       id="path1019" /><path
       style="fill:none;stroke:#ffffff;stroke-width:1.5"
       d="m 1037.0915,10195.406 c -4.7805,12.686 -11.6795,24.297 -16.9437,36.79 -1.5723,3.732 -3.0112,7.522 -4.3235,11.352 -0.6601,1.927 -1.3422,7.902 -1.636,5.887 -0.3353,-2.3 -0.4674,-4.625 -0.7011,-6.938"
       id="path1021" /><path
       style="fill:none;stroke:#ffffff;stroke-width:1.5"
       d="m 1008.3457,10205.077 c 51.4825,52.864 4.1155,5.346 38.7952,38.051 0.107,0.101 12.6636,16.638 7.4786,6.727"
       id="path1023" /><path
       style="fill:none;stroke:#ffffff;stroke-width:1.5"
       d="m 1067.1228,10139.485 c 4.9078,3.574 10.8591,6.039 14.7234,10.722 25.4142,30.795 26.614,84.923 5.1416,117.517 -8.2212,12.48 -6.2945,11.016 -15.3078,13.14"
       id="path1025" /><path
       style="fill:none;stroke:#ffffff;stroke-width:1.5"
       d="m 1143.6616,10219.582 c 1.1997,1.167 76.5834,0.517 46.858,4.205"
       id="path1027" /><path
       style="fill:none;stroke:#ffffff;stroke-width:1.5"
       d="m 1144.4795,10240.395 c 17.8391,7.554 36.4964,4.938 55.1547,3.889"
       id="path1029" /><path
       style="fill:none;stroke:#ffffff;stroke-width:1.5"
       d="m 1273.0179,10201.187 c 0,4.38 1.3104,8.96 0,13.14 -1.166,3.718 -22.5509,42.674 -26.1751,45.934 -1.1145,1.003 -1.0032,-2.837 -1.2853,-4.309"
       id="path1033" /><path
       style="fill:none;stroke:#ffffff;stroke-width:1.5"
       d="m 1235.8587,10205.707 c 14.2365,12.832 37.8635,54.143 56.5569,58.023"
       id="path1035" /><path
       style="fill:none;stroke:#ffffff;stroke-width:1.5"
       d="m 1094.8169,10478.478 c -19.4592,19.196 -34.4188,42.289 -50.5974,64.12 -1.4939,2.015 2.0662,-4.579 2.9214,-6.938"
       id="path1043" /><path
       style="fill:none;stroke:#ffffff;stroke-width:1.5"
       d="m 1052.3993,10475.535 c 18.2603,24.478 50.3646,48.359 54.2198,80.727"
       id="path1045" /><path
       style="fill:none;stroke:#ffffff;stroke-width:1.5"
       d="m 1052.9835,10685.973 c -20.5102,-2.663 -48.3038,15.525 -40.7817,39.207 1.9908,6.268 24.6079,35.849 21.0336,39.523 -1.1751,1.209 -2.9603,1.612 -4.4405,2.418"
       id="path1047" /><path
       style="fill:none;stroke:#ffffff;stroke-width:1.5"
       d="m 995.60865,10742.209 c 6.00925,-0.54 46.18095,-11.267 50.01315,-6.096"
       id="path1049" /><path
       style="fill:none;stroke:#ffffff;stroke-width:1.5"
       d="m 1102.7629,10685.342 c 3.5056,-3.608 7.0112,-7.217 10.5168,-10.826 -0.078,-0.281 0.055,-0.876 -0.2337,-0.841 -7.9714,0.969 -3.1217,4.781 -10.2831,11.667 -4.0597,3.904 -10.3174,5.114 -14.1391,9.25 -3.3202,3.594 -5.2857,8.411 -6.5438,13.14 -7.0106,26.348 8.8543,46.607 31.9008,57.287"
       id="path1051" /><path
       style="fill:none;stroke:#ffffff;stroke-width:1.5"
       d="m 1155.6974,10701.32 c -3.6357,14.821 -11.3955,28.073 -17.0605,42.15 -0.047,0.116 -3.7349,11.014 -4.0899,10.512 -1.0532,-1.489 -1.0127,-3.504 -1.5191,-5.256"
       id="path1053" /><path
       style="fill:none;stroke:#ffffff;stroke-width:1.5"
       d="m 1129.9898,10710.99 c -9.3573,-3.341 45.9686,40.753 35.9907,32.375"
       id="path1055" /><path
       style="fill:none;stroke:#ffffff;stroke-width:1.5"
       d="m 1173.1086,10650.655 c 30.9756,30.146 42.6356,79.532 19.865,118.673 -15.9121,27.353 -10.9159,28.803 -22.5527,22.075"
       id="path1057" /><path
       style="fill:none;stroke:#ffffff;stroke-width:1.5"
       d="m 907.50142,10609.555 c 28.68536,-1.3 57.39154,1.703 86.12073,0.21 31.97865,-1.661 63.68465,-7.268 95.46895,-10.932 33.2068,-3.827 66.6436,-6.163 100.0263,-7.673 46.3915,-2.098 93.031,1.419 139.4058,2.102 40.1801,0.593 80.5129,-0.781 120.7092,-0.945 24.8381,-0.102 49.4259,-2.906 74.2018,-3.89 21.4423,-0.851 42.928,0.706 64.3861,0.316 42.9641,-0.781 85.9252,-4.1 128.8889,-4.1 64.4139,0 128.4137,9.752 192.9245,8.935 39.9778,-0.507 79.9247,-2.325 119.8913,-3.259 33.5856,-0.784 67.0582,-0.612 100.6106,-3.048 53.1472,-3.859 106.1671,-9.434 159.2707,-13.455 28.3231,-2.144 56.9049,-3.753 85.3028,-4.204 15.9657,-0.254 31.9589,1.087 47.9098,0.21 40.7098,-2.238 81.009,-7.683 121.5272,-11.773 56.4639,-5.699 113.8907,-7.805 170.6055,-4.94 28.353,1.432 61.4272,7.237 89.7432,1.577"
       id="path1061" /><path
       style="fill:none;stroke:#ffffff;stroke-width:1.5"
       d="m 1235.5081,10466.6 c 0.4674,3.259 1.391,6.484 1.4023,9.776 0.096,27.955 -3.1952,56.257 -4.4405,84.196 -1.1633,26.099 -0.487,52.121 -1.1685,78.205 -0.8187,31.331 -1.9831,62.31 -1.4023,93.657 0.265,14.301 1.0129,75.016 -7.7123,81.883"
       id="path1067" /><path
       style="fill:none;stroke:#ffffff;stroke-width:1.5"
       d="m 1364.1634,10498.765 c -4.3625,1.156 -9.2344,1.119 -13.0876,3.469 -8.1323,4.959 -31.4962,26.293 -26.7593,39.207 7.0028,19.092 74.3153,2.785 78.0578,-16.292 3.3979,-17.32 -29.7997,-25.971 -38.2109,-26.384 -21.2437,-1.044 -47.7382,18.549 -17.4111,-7.463"
       id="path1069" /><path
       style="fill:none;stroke:#ffffff;stroke-width:1.5"
       d="m 1368.9544,10462.185 c -1.0907,34.055 -12.0846,66.895 -18.6966,100.174 -1.2136,6.109 -5.2471,25.381 -3.3887,26.384 3.375,1.821 3.6152,-6.796 4.9079,-10.407"
       id="path1071" /><path
       style="fill:none;stroke:#ffffff;stroke-width:1.5"
       d="m 1481.4839,10440.427 c 0.1302,19.444 0.5863,16.102 -1.2854,35.949 -2.5981,27.55 -7.6864,54.664 -11.101,82.094 -7.3133,58.748 -14.964,117.527 -19.2808,176.591 -1.3036,17.836 -2.4704,35.817 -2.2202,53.714 0.1175,8.403 1.9675,18.033 -0.2337,26.173"
       id="path1073" /><path
       style="fill:none;stroke:#ffffff;stroke-width:1.5"
       d="m 1590.7416,10482.472 c 5.3927,24.755 -0.09,50.29 -1.7528,75.262 -0.5691,8.544 -0.6427,13.328 0.818,12.298 1.7442,-1.23 2.1033,-3.714 3.155,-5.571"
       id="path1075" /><path
       style="fill:none;stroke:#ffffff;stroke-width:1.5"
       d="m 1668.6825,10451.779 c -15.9435,62.689 -13.1539,127.892 -18.4627,191.833 -1.1872,14.298 -4.5072,28.223 -5.8426,42.466 -1.0473,11.17 -0.478,22.369 -1.7528,33.531 -1.2862,11.262 -4.1863,22.287 -5.609,33.532 -1.6088,12.714 -2.3092,24.952 -5.6089,37.42"
       id="path1077" /><path
       style="fill:none;stroke:#ffffff;stroke-width:1.5"
       d="m 1752.1157,10483.103 c -18.609,-9.708 12.8558,-21.085 10.2831,-14.926 -2.3287,5.575 -8.0732,9.303 -10.2831,14.926 -18.1541,46.195 5.7569,12.704 -18.6964,45.514 -4.5242,6.071 -11.4005,13.011 -10.4,13.875 3.7453,3.235 33.1713,-5.939 37.6266,4.941"
       id="path1079" /><path
       style="fill:none;stroke:#ffffff;stroke-width:1.5"
       d="m 1823.7467,10436.958 c -11.5124,70.179 -11.9114,141.325 -17.4112,212.12 -1.7452,22.466 -6.5024,44.676 -7.5955,67.168 -1.592,32.757 -0.016,63.906 -8.5301,96.074"
       id="path1081" /><path
       style="fill:none;stroke:#ffffff;stroke-width:1.5"
       d="m 1896.0788,10510.643 c 2.1033,-4.59 3.581,-9.522 6.31,-13.77 0.6813,-1.061 15.2492,-17.071 18.5797,-7.778 5.4087,15.09 -3.0454,34.837 -16.4763,43.201 -0.3881,0.242 -0.3395,-1.394 0.1168,-1.366 2.9072,0.177 6.05,0.365 8.5304,1.892 10.21,6.284 15.0199,21.705 7.7123,31.744 -16.0845,22.098 -45.1505,6.458 -33.5369,-8.409"
       id="path1083" /><path
       style="fill:none;stroke:#ffffff;stroke-width:1.5"
       d="m 1984.4197,10439.376 c -9.8058,58.072 2.1754,116.059 4.4404,174.068 1.5862,40.625 -2.0274,81.532 -2.9213,122.143 -0.1862,8.457 -1.3293,17.278 -0.818,25.753 0.8464,14.03 7.3259,31.713 -1.6359,44.253"
       id="path1085" /><path
       style="fill:none;stroke:#ffffff;stroke-width:1.5"
       d="m 2104.311,10501.708 c -10.3752,-2.598 -23.9863,7.452 -34.4717,4.415 -3.7553,-1.088 18.8641,-34.736 24.6561,-37.631 5.4979,-2.747 -2.0649,12.15 -2.3371,18.29 -0.2531,5.709 0.01,11.448 0.5842,17.134 1.4715,14.513 5.9728,28.552 10.9843,42.15 0.9145,2.482 3.6975,9.323 4.2066,6.728"
       id="path1087" /><path
       style="fill:none;stroke:#ffffff;stroke-width:1.5"
       d="m 2169.7487,10431.177 c 0.4622,14.135 0.5825,11.381 -0.1168,28.591 -1.0538,25.932 -3.0262,51.692 -2.3371,77.679 0.772,29.113 2.7692,58.088 2.3371,87.245 -0.5766,38.905 -3.7891,77.708 -5.2584,116.571 -0.9038,23.905 7.5089,49.186 -3.2718,72.108"
       id="path1089" /><path
       style="fill:none;stroke:#ffffff;stroke-width:1.5"
       d="m 2247.8067,10520.524 c 0.7011,8.479 0.2445,17.135 2.1032,25.437 2.5875,11.558 14.2882,-0.247 19.9819,-7.673 5.628,-7.341 7.5707,-21.24 5.609,-30.063 -6.3253,-28.449 -23.6708,-7.447 -36.4581,-4.309 -0.2265,0.06 4.6493,-9.071 4.9078,-9.671 2.0199,-4.688 3.9176,-9.44 5.4921,-14.295 2.519,-7.769 4.5183,-15.697 6.7774,-23.546 16.5806,-15.183 30.9869,-17.134 51.4154,-17.869"
       id="path1091" /><path
       style="fill:none;stroke:#ffffff;stroke-width:1.5"
       d="m 2363.0237,10409.628 c -14.2652,72.306 9.7345,144.377 7.5955,216.85 -0.8659,29.34 -6.7941,58.036 -6.3101,87.561 0.3604,21.981 -1.9789,42.096 -3.8561,63.909 -0.6367,7.397 3.2779,20.697 -0.4674,27.014"
       id="path1093" /><path
       style="fill:none;stroke:#ffffff;stroke-width:1.5"
       d="m 2459.6613,10451.989 c -54.4498,30.667 -41.6488,81.33 20.7999,85.458 4.7598,0.315 11.2133,1.56 14.1392,-2.207 2.7246,-3.509 1.5354,-10.768 -2.2202,-13.14 -16.8739,-10.656 -30.5474,-9.076 -47.5592,-6.832 -4.3656,0.576 -16.6303,0.783 -12.8539,3.048 0.5021,0.301 9.1953,0.413 9.582,0.421"
       id="path1095" /><path
       style="fill:none;stroke:#ffffff;stroke-width:1.5"
       d="m 2543.5619,10437.378 c 0.7647,62.134 3.1414,124.457 0.2336,186.578 -1.675,35.786 -7.5826,71.17 -9.8156,106.901 -0.3498,5.599 -0.6796,15.836 0.1169,22.284 0.9288,7.519 4.3284,14.979 3.6225,22.6"
       id="path1097" /><path
       style="fill:none;stroke:#ffffff;stroke-width:1.5"
       d="m 2627.6961,10470.594 c 2.9213,-1.541 5.7974,-3.172 8.764,-4.624 9.8753,-4.836 20.0829,-8.825 30.6154,-11.983 0.1215,-0.04 8.4434,-2.26 9.9327,-2.628 0.3469,-0.09 1.169,-0.548 1.0515,-0.211 -1.3285,3.824 -20.2986,19.054 -20.4491,19.236 -4.4172,5.356 -8.7188,10.963 -11.6853,17.239 -4.0667,8.603 -7.538,17.65 -9.2315,27.014 -2.3641,13.072 6.3464,39.889 -1.0517,18.816"
       id="path1099" /><path
       style="fill:none;stroke:#ffffff;stroke-width:1.5"
       d="m 2619.7501,10500.237 c 13.3093,1.557 55.5071,18.267 68.1254,11.457"
       id="path1101" /><path
       style="fill:none;stroke:#ffffff;stroke-width:1.5"
       d="m 2753.1963,10507.7 c 3.1552,-3.995 5.6809,-8.579 9.4652,-11.983 1.9847,-1.786 4.7374,-2.664 7.3615,-3.154 24.7341,-4.61 -9.0937,40.807 -16.8267,15.137 -2.6685,-8.859 11.901,-17.747 21.1503,-17.975 4.9287,-0.121 5.3959,7.901 4.2069,10.617 -0.8589,1.961 -2.3167,3.689 -3.973,5.045 -13.4059,10.977 -6.2262,-11.759 -3.7394,-10.827 1.0705,0.402 -0.4744,5.502 0.4673,6.833"
       id="path1103" /><path
       style="fill:none;stroke:#ffffff;stroke-width:1.5"
       d="m 2840.9531,10509.907 c -31.8043,-20.001 24.987,-10.34 12.6201,-2.312 -3.5873,2.328 -8.4133,1.541 -12.6201,2.312 z"
       id="path1105" /><path
       style="fill:none;stroke:#ffffff;stroke-width:1.5"
       d="m 2921.8156,10502.444 c -20.2124,-13.151 6.6796,-18.635 5.4919,-13.034 -0.9782,4.612 -3.6613,8.689 -5.4919,13.034 z"
       id="path1107" /><path
       style="fill:none;stroke:#ffffff;stroke-width:1.5"
       d="m 1337.8714,10692.911 c -13.6804,2.612 -46.7096,29.844 -33.3031,45.724 20.1522,23.871 52.301,6.604 67.0737,-11.247 16.6616,-20.134 -20.8832,-35.889 -33.7706,-34.477 -10.3566,1.134 -36.9975,21.294 -14.1392,0.42"
       id="path1109" /><path
       style="fill:none;stroke:#ffffff;stroke-width:1.5"
       d="m 1353.7635,10651.811 c -1.488,43.383 -23.1638,83.227 -34.7054,124.665 -3.7831,13.583 -5.7828,24.219 -2.4539,24.702 3.595,0.522 9.2325,-10.162 10.0494,-11.457"
       id="path1111" /><path
       style="fill:none;stroke:#ffffff;stroke-width:1.5"
       d="m 1557.5552,10657.592 c 5.9073,25.262 0.8176,50.212 -3.2718,75.262 -5.9942,36.717 -1.4409,7.243 -5.4921,29.537 -0.094,0.519 -0.1948,2.098 -0.1168,1.577 0.3505,-2.342 0.6232,-4.695 0.9348,-7.043"
       id="path1113" /><path
       style="fill:none;stroke:#ffffff;stroke-width:1.5"
       d="m 1702.6868,10678.615 c 1.0907,-5.536 0.9643,-11.459 3.272,-16.608 6.1588,-13.742 32.9702,-26.738 29.7974,-0.315 -2.378,19.804 -15.5355,39.135 -28.2784,53.713 -2.3858,6.893 -10.0556,8.218 -14.3729,13.034 -0.234,0.261 0.7074,0.07 1.0517,0 3.1292,-0.601 6.1975,-1.522 9.3482,-1.997 4.2839,-0.646 41.4349,-4.42 32.2514,6.937"
       id="path1115" /><path
       style="fill:none;stroke:#ffffff;stroke-width:1.5"
       d="m 1886.8474,10673.359 c -5.6177,-9.469 27.4696,-28.63 27.5773,-8.198 0.059,11.15 -8.5838,22.575 -15.0741,30.272 -3.7526,4.451 -7.8565,8.687 -12.5032,12.193 -0.5856,0.443 -1.7798,-1.244 -1.2854,-1.787 6.7474,-7.399 28.1469,-19.064 33.1863,-2.522 4.6803,15.363 -3.5966,41.555 -21.6179,44.358 -8.2452,1.283 -17.4817,-0.926 -25.5908,-2.102"
       id="path1117" /><path
       style="fill:none;stroke:#ffffff;stroke-width:1.5"
       d="m 2115.7626,10719.715 c 3.1672,6.243 18.7222,-7.898 10.7505,-5.256 -3.7863,1.255 -6.8309,4.516 -10.7505,5.256 -5.0534,0.954 -10.3213,-0.95 -15.4246,-0.316 -5.751,0.715 -31.4662,8.518 -38.3278,7.568 -9.102,-1.259 18.7791,-24.158 20.3325,-25.752 3.1812,-3.266 6.4316,-6.494 9.2314,-10.091 0.4156,-0.535 7.5229,-17.627 8.0628,-9.566 0.9705,14.492 0.7756,39.294 0.8179,50.455 0.033,8.619 -0.155,17.24 0,25.858 0.079,4.385 -1.8212,9.551 0.7012,13.139 1.4164,2.015 2.8823,-3.994 4.3235,-5.991"
       id="path1119" /><path
       style="fill:none;stroke:#ffffff;stroke-width:1.5"
       d="m 2267.5549,10666.422 c 0.1557,7.113 0.9882,14.243 0.4673,21.338 -0.1375,1.873 -6.9731,23.169 -3.973,24.176 8.0046,2.688 34.1134,-7.231 32.6021,15.767 -0.7015,10.675 -20.6224,35.902 -29.7976,28.591 -7.8349,-6.242 -7.0644,-17.83 -8.1797,-26.173"
       id="path1121" /><path
       style="fill:none;stroke:#ffffff;stroke-width:1.5"
       d="m 2264.9841,10676.408 c 20.726,-13.716 48.5615,-4.178 70.2286,-13.35"
       id="path1123" /><path
       style="fill:none;stroke:#ffffff;stroke-width:1.5"
       d="m 2446.9243,10663.899 c -4.9858,2.943 19.943,-11.773 14.9573,-8.829 -16.9994,10.035 -45.3439,31.018 -39.029,55.184 6.4784,24.792 49.0163,16.538 61.4648,2.733 3.6523,-4.05 -5.9777,-8.845 -6.8943,-9.039 -17.861,-3.781 -42.7364,1.535 -57.8423,12.193 -0.4538,0.32 1.0893,0.414 1.6359,0.315 4.1688,-0.75 8.2576,-1.892 12.3864,-2.838"
       id="path1125" /><path
       style="fill:none;stroke:#ffffff;stroke-width:1.5"
       d="m 2602.4559,10680.297 c 32.7224,-19.331 13.4253,-7.614 41.9501,-25.543 6.4006,-4.022 20.9206,-13.175 28.7459,-17.764 1.645,-0.965 3.8227,-4.213 5.0247,-2.733 1.2912,1.589 -1.7944,3.685 -2.8045,5.466 -8.8363,15.582 -10.8837,17.065 -18.346,34.477 -2.9697,6.93 -13.7332,50.751 -16.5931,52.873 -1.1588,0.859 -2.8823,0.14 -4.3234,0.21"
       id="path1127" /><path
       style="fill:none;stroke:#ffffff;stroke-width:1.5"
       d="m 2613.3231,10697.115 c 13.7083,-14.401 62.2752,8.075 77.7073,2.523"
       id="path1129" /><path
       style="fill:none;stroke:#ffffff;stroke-width:1.5"
       d="m 2768.0368,10728.649 c -3.3888,0.771 -10.9371,-1.076 -10.1663,2.313 0.771,3.389 8.6698,0.824 10.1663,-2.313 3.7404,-7.841 -0.2127,-17.899 3.2716,-25.858 5.0199,-11.465 37.1284,-2.336 11.2183,17.66 -4.3936,3.39 -9.5398,10.707 -14.4899,8.198 -18.2663,-9.257 12.74,-35.059 19.748,-23.755 7.1175,11.48 -19.44,24.14 -19.748,23.755 -3.3888,-4.224 2.1648,-10.852 5.0245,-15.451 1.9444,-3.128 5.711,-4.668 8.764,-6.728 1.7193,-1.16 7.1829,-3.461 5.9595,-1.787 -2.1707,2.972 -25.916,25.575 -2.8043,-0.841"
       id="path1131" /><path
       style="fill:none;stroke:#ffffff;stroke-width:1.5"
       d="m 2861.2855,10713.618 c -38.1733,5.486 -0.2894,-39.027 14.7235,-25.332 8.441,7.7 -12.7558,27.845 -14.7235,25.332 -5.4075,-6.906 -0.3432,-28.308 7.829,-25.122 10.1045,3.938 -3.3189,27.235 -7.829,25.122 -15.7313,-7.371 20.6518,-32.63 10.283,-12.298 -2.4278,4.76 -6.8553,8.198 -10.283,12.298 z"
       id="path1133" /><path
       style="fill:none;stroke:#ffffff;stroke-width:1.5"
       d="m 2945.1862,10703.212 c -3.5814,-0.87 -14.805,-0.376 -14.1393,-8.094 0.7688,-8.914 20.2784,-22.499 25.3571,-10.406 4.9662,11.825 -15.8655,27.216 -25.2404,15.451 -4.036,-5.064 13.0738,-16.051 16.9436,-16.187 3.6856,-0.129 5.2652,4.899 4.3236,7.568 -13.3147,37.741 -5.2451,-27.916 -7.2446,11.668 z"
       id="path1135" /></g></svg>
