<?xml version="1.0" encoding="UTF-8" standalone="no"?>
<!-- Created with Inkscape (http://www.inkscape.org/) -->

<svg
   width="8046.7671mm"
   height="782.55408mm"
   viewBox="0 0 8046.7669 782.55409"
   version="1.1"
   id="svg12"
   inkscape:version="1.2.1 (9c6d41e410, 2022-07-14, custom)"
   sodipodi:docname="tangent_planequation.svg"
   xml:space="preserve"
   xmlns:inkscape="http://www.inkscape.org/namespaces/inkscape"
   xmlns:sodipodi="http://sodipodi.sourceforge.net/DTD/sodipodi-0.dtd"
   xmlns="http://www.w3.org/2000/svg"
   xmlns:svg="http://www.w3.org/2000/svg"><sodipodi:namedview
     id="namedview14"
     pagecolor="#505050"
     bordercolor="#eeeeee"
     borderopacity="1"
     inkscape:showpageshadow="0"
     inkscape:pageopacity="0"
     inkscape:pagecheckerboard="0"
     inkscape:deskcolor="#505050"
     inkscape:document-units="mm"
     showgrid="true"
     inkscape:zoom="0.034886493"
     inkscape:cx="14246.201"
     inkscape:cy="2551.1306"
     inkscape:window-width="1366"
     inkscape:window-height="746"
     inkscape:window-x="0"
     inkscape:window-y="0"
     inkscape:window-maximized="1"
     inkscape:current-layer="layer1"
     inkscape:lockguides="false"><inkscape:grid
       type="xygrid"
       id="grid344"
       color="#969696"
       opacity="0.39215686"
       empcolor="#000000"
       empopacity="0.17254902"
       dotted="false"
       originx="1638.7471"
       originy="-15508.275" /></sodipodi:namedview><defs
     id="defs9" /><g
     inkscape:label="Layer 1"
     inkscape:groupmode="layer"
     id="layer1"
     transform="translate(1533.7472,-15656.776)"><path
       style="fill:none;stroke:#ffffff;stroke-width:10.7"
       d="m -1491.952,15873.916 c -132.1254,24.96 169.0925,-85.77 152.5375,-37.422 -9.3026,27.167 -25.6513,51.609 -42.009,75.21 -33.4596,48.276 -84.8074,87.333 -125.2113,129.876 -0.076,0.08 -27.9269,21.467 -20.3927,33.02 22.655,34.737 146.759,75.8 187.613,93.187 13.0329,5.547 49.1719,26.523 39.154,16.51 -14.2244,-14.218 -35.9675,-18.024 -54.2446,-26.416"
       id="path3378" /><path
       style="fill:none;stroke:#ffffff;stroke-width:10.7"
       d="m -1531.106,15997.921 c 58.3923,-33.148 189.952,-24.769 246.344,18.711"
       id="path3380" /><path
       style="fill:none;stroke:#ffffff;stroke-width:10.7"
       d="m -979.27924,15997.554 c -0.5411,12.009 248.83533,37.103 177.00892,44.026"
       id="path3382" /><path
       style="fill:none;stroke:#ffffff;stroke-width:10.7"
       d="m -958.47871,16135.135 c 45.58279,25.1 162.48346,-56.919 194.13871,-4.036"
       id="path3384" /><path
       style="fill:none;stroke:#ffffff;stroke-width:10.7"
       d="m -302.24106,15876.117 c -11.01212,-2.568 -22.31205,-11.289 -33.03633,-7.705 -53.31515,17.823 -56.35312,114.908 -47.31093,158.493 6.9874,33.68 22.53763,60.574 42.0089,88.051 8.68299,12.254 24.52848,20.384 28.54991,34.854 1.33173,4.792 -10.15111,4.719 -10.60429,4.77"
       id="path3386" /><path
       style="fill:none;stroke:#ffffff;stroke-width:10.7"
       d="m -440.50382,16084.505 c 58.1039,-24.216 117.53303,-39.805 180.67949,-35.954"
       id="path3388" /><path
       style="fill:none;stroke:#ffffff;stroke-width:10.7"
       d="m -22.860874,15816.682 c -15.49844,24.092 -37.009599,45.245 -46.495319,72.276 -10.448655,29.774 -9.700971,62.439 -11.827967,93.921 -6.513769,96.414 -11.162427,303.086 126.435012,316.252"
       id="path3390" /><path
       style="fill:none;stroke:#ffffff;stroke-width:10.7"
       d="m 172.90907,16053.32 c -15.77031,14.064 -36.36043,24.12 -47.31094,42.192 -8.2629,13.636 -9.72291,31.629 -6.93352,47.327 24.73058,139.181 152.11885,-68.839 87.28079,-87.317 -91.01581,-25.94 22.55066,89.541 37.93032,109.33"
       id="path3392" /><path
       style="fill:none;stroke:#ffffff;stroke-width:10.7"
       d="m 353.99635,16139.538 c 2.54407,14.045 -35.34762,183.048 -20.80054,140.882"
       id="path3394" /><path
       style="fill:none;stroke:#ffffff;stroke-width:10.7"
       d="m 435.97511,16001.223 c 2.99093,-10.15 19.12316,-27.46 8.97281,-30.451 -10.15034,-2.991 -11.29358,20.127 -8.97281,30.451 5.56485,24.756 22.36793,45.631 31.40485,69.341 4.0689,10.675 5.60504,22.165 7.74914,33.386 1.06344,5.566 1.2595,22.489 2.03931,16.876 2.40464,-17.307 -0.58182,-112.663 39.56179,-93.187 8.03021,3.896 12.34572,13.133 16.7222,20.912 40.19338,71.44 -10.55653,180.437 -40.7855,80.347 -2.77153,-9.177 -1.90328,-19.078 -2.8549,-28.617"
       id="path3396" /><path
       style="fill:none;stroke:#ffffff;stroke-width:10.7"
       d="m 591.77545,15832.825 c 10.60421,-3.914 21.94507,-17.254 31.81266,-11.74 25.03395,13.986 50.0168,85.661 54.65249,108.596 24.30208,120.234 -4.294,262.533 -93.80649,351.106"
       id="path3398" /><path
       style="fill:none;stroke:#ffffff;stroke-width:10.7"
       d="m 854.84148,15974.441 c 13.35968,31.435 62.19851,201.539 55.46815,210.957 -4.92607,6.892 -15.77708,-6.277 -23.24767,-10.273"
       id="path3400" /><path
       style="fill:none;stroke:#ffffff;stroke-width:10.7"
       d="m 800.18899,16131.466 c 5.88256,-2.678 197.04928,-32.683 174.15374,-2.935"
       id="path3402" /><path
       style="fill:none;stroke:#ffffff;stroke-width:10.7"
       d="m 1257.3937,15898.497 c -17.4017,7.826 -37.6286,11.167 -52.2052,23.48 -56.0792,47.369 13.257,183.602 36.7069,231.135 0.5993,1.215 18.2236,30.29 3.2625,35.588 -10.253,3.63 -21.7522,0.244 -32.6283,0.367"
       id="path3404" /><path
       style="fill:none;stroke:#ffffff;stroke-width:10.7"
       d="m 1109.3428,16113.489 c 12.6434,-12.596 21.2927,-31.33 37.9303,-37.789 44.6051,-17.315 104.5231,6.606 127.6584,44.76"
       id="path3406" /><path
       style="fill:none;stroke:#ffffff;stroke-width:10.7"
       d="m 1370.7773,16119.359 c -14.3235,31.327 -12.7621,149.588 -44.4562,157.025"
       id="path3408" /><path
       style="fill:none;stroke:#ffffff;stroke-width:10.7"
       d="m 1298.9948,16162.284 c 56.3122,24.302 114.2475,71.716 128.4741,134.278"
       id="path3410" /><path
       style="fill:none;stroke:#ffffff;stroke-width:10.7"
       d="m 1628.1333,15812.28 c -10.8761,3.057 -24.5793,1.244 -32.6283,9.172 -14.9452,14.72 -23.36,35.099 -31.8127,54.298 -47.8585,108.702 -73.2629,250.647 5.7099,352.573 31.2408,40.321 79.8236,57.819 118.6856,86.951"
       id="path3412" /><path
       style="fill:none;stroke:#ffffff;stroke-width:10.7"
       d="m 1760.2782,16020.301 c -74.7647,-9.659 -70.379,152.914 -2.4474,144.184 50.9649,-6.549 81.1163,-70.827 45.6797,-110.431 -15.4887,-17.31 -16.7035,21.749 -13.867,29.351 10.776,28.878 31.2347,54.319 50.9817,77.411"
       id="path3414" /><path
       style="fill:none;stroke:#ffffff;stroke-width:10.7"
       d="m 1952.3775,16104.684 c -18.1968,6.944 -106.5359,308.654 -46.9036,120.337"
       id="path3416" /><path
       style="fill:none;stroke:#ffffff;stroke-width:10.7"
       d="m 2001.3197,15992.418 c 11.556,17.366 27.0312,32.686 34.6679,52.097 7.5276,19.134 7.0888,40.519 9.7884,60.903 5.3078,40.077 -1.0046,58.088 7.3416,26.415 8.5465,-32.434 26.755,-96.728 65.2565,-48.061 27.9597,35.341 57.2312,109.628 0.8157,139.047 -40.9764,21.368 -107.9404,-40.15 -78.308,-79.246"
       id="path3418" /><path
       style="fill:none;stroke:#ffffff;stroke-width:10.7"
       d="m 2152.2258,15781.462 c 17.8097,9.905 41.7166,13.04 53.4291,29.717 63.5667,90.51 18.907,392.624 -27.3263,493.822"
       id="path3420" /><path
       style="fill:none;stroke:#ffffff;stroke-width:10.7"
       d="m 2434.0534,15720.192 c 9.3806,-11.985 18.7612,-23.969 28.1418,-35.954 0.2719,-0.734 1.298,-2.817 0.8157,-2.201 -130.2905,166.459 -226.3253,376.642 -110.1207,578.938 23.9049,41.615 68.9739,112.099 120.3169,141.983"
       id="path3422" /><path
       style="fill:none;stroke:#ffffff;stroke-width:10.7"
       d="m 2673.6142,15947.888 c -2.3112,16.632 -3.6476,33.429 -6.9334,49.896 -1.0303,5.164 -40.0053,188.263 -55.0603,163.262 -5.7377,-9.529 -12.6601,-59.39 -13.867,-66.773"
       id="path3424" /><path
       style="fill:none;stroke:#ffffff;stroke-width:10.7"
       d="m 2600.2004,15977.972 c 62.6206,42.296 86.4837,145.301 138.2626,191.879"
       id="path3426" /><path
       style="fill:none;stroke:#ffffff;stroke-width:10.7"
       d="m 2766.6052,16049.514 c -14.7992,8.458 214.4024,-19.408 159.8789,-26.415"
       id="path3428" /><path
       style="fill:none;stroke:#ffffff;stroke-width:10.7"
       d="m 3143.8703,15954.859 c -44.5924,18.021 -58.5856,12.505 -79.1237,52.831 -29.9664,58.839 -5.022,156.337 72.5983,96.489 20.4303,-15.752 65.8362,-67.8 47.3109,-100.158 -10.5794,-18.479 -21.0238,-57.09 -40.7855,-49.162 -19.2365,7.716 4.5971,41.432 10.604,61.269 14.587,48.173 59.8125,82.133 100.3323,107.863"
       id="path3434" /><path
       style="fill:none;stroke:#ffffff;stroke-width:10.7"
       d="m 3289.8822,15659.519 c 133.2426,223.072 68.05,488.615 -33.8521,710.649"
       id="path3436" /><path
       style="fill:none;stroke:#ffffff;stroke-width:10.7"
       d="m 3790.6151,15836.54 c 5.4221,62.555 15.5057,124.449 19.9851,187.109 2.9406,41.136 4.4307,91.68 -6.526,87.318 -7.8771,-3.137 -12.2356,-11.741 -18.3533,-17.611"
       id="path3438" /><path
       style="fill:none;stroke:#ffffff;stroke-width:10.7"
       d="m 3741.6728,15985.126 c 61.5878,11.836 126.3777,-4.425 187.6131,6.971"
       id="path3440" /><path
       style="fill:none;stroke:#ffffff;stroke-width:10.7"
       d="m 4338.3635,15814.16 c -14.0028,7.215 -31.2677,10.123 -42.009,21.646 -52.5272,56.348 -33.8262,158.669 -10.1962,221.596 10.5169,28.006 36.921,61.368 35.0753,92.087"
       id="path3442" /><path
       style="fill:none;stroke:#ffffff;stroke-width:10.7"
       d="m 4216.4149,16014.844 c 52.2928,-3.406 116.5929,-19.094 160.695,15.042"
       id="path3444" /><path
       style="fill:none;stroke:#ffffff;stroke-width:10.7"
       d="m 4500.6893,16037.957 c 17.7171,21.242 -24.6216,250.305 -57.0994,217.194"
       id="path3446" /><path
       style="fill:none;stroke:#ffffff;stroke-width:10.7"
       d="m 4383.2276,16116.47 c 31.4293,13.888 81.8303,20.724 101.9635,53.931"
       id="path3448" /><path
       style="fill:none;stroke:#ffffff;stroke-width:10.7"
       d="m 4740.1002,15663.739 c -89.3776,153.575 -135.9096,372.884 -45.2721,537.48 0.1059,0.192 67.2291,112.553 105.6344,125.841"
       id="path3450" /><path
       style="fill:none;stroke:#ffffff;stroke-width:10.7"
       d="m 4881.2178,15919.455 c -13.595,14.919 -31.334,26.924 -40.7855,44.759 -4.0973,7.732 -0.3857,18.095 3.2626,26.049 30.0278,65.468 113.424,20.27 110.5289,-39.623 -1.8185,-37.62 -39.9801,-51.69 -36.299,-15.776 5.7317,55.923 59.0193,73.244 86.4645,113.366"
       id="path3452" /><path
       style="fill:none;stroke:#ffffff;stroke-width:10.7"
       d="m 5115.3262,16032.454 c -1.0951,5.213 -81.4694,174.088 -36.2993,110.431"
       id="path3454" /><path
       style="fill:none;stroke:#ffffff;stroke-width:10.7"
       d="m 5195.6733,15902.945 c 39.5922,46.343 36.8162,109.63 40.3775,167.298 0.8221,13.311 0.7056,26.664 1.2234,39.99 0.162,4.164 -0.9509,16.248 0.8157,12.474 2.2514,-4.81 24.1258,-198.193 63.2175,-131.71 38.1457,64.873 -9.7081,238.773 -42.8244,69.34"
       id="path3456" /><path
       style="fill:none;stroke:#ffffff;stroke-width:10.7"
       d="m 5327.0024,15711.433 c 150.1478,106.352 135.6852,384.944 63.2174,533.445 -17.386,35.628 -50.6926,92.884 -91.767,110.798"
       id="path3458" /><path
       style="fill:none;stroke:#ffffff;stroke-width:10.7"
       d="m 5667.1528,15739.316 c -131.8138,121.862 -137.3859,390.5 -74.2294,546.653 25.1423,62.164 95.2344,151.716 91.7671,111.165"
       id="path3460" /><path
       style="fill:none;stroke:#ffffff;stroke-width:10.7"
       d="m 5972.0491,15945.251 c -19.6993,23.885 -65.297,194.834 -90.9515,208.021 -1.5209,0.782 -2.2956,-4.982 -5.7098,-23.847"
       id="path3462" /><path
       style="fill:none;stroke:#ffffff;stroke-width:10.7"
       d="m 5828.4846,15955.157 c 22.5521,45.525 72.8015,66.169 104.411,102.726"
       id="path3464" /><path
       style="fill:none;stroke:#ffffff;stroke-width:10.7"
       d="m 6040.5688,16039.906 c -22.5671,11.101 106.9226,-30.666 93.8067,-20.178"
       id="path3466" /><path
       style="fill:none;stroke:#ffffff;stroke-width:10.7"
       d="m 6191.475,15874.443 c 9.2445,19.322 20.3549,37.858 27.7339,57.967 6.5579,17.871 10.1711,36.725 13.867,55.399 4.4696,22.582 8.0524,45.362 10.6043,68.24 12.447,111.594 -27.7739,17.866 11.8279,-51.363 5.7203,-10 14.378,-20.959 25.695,-23.114 10.6934,-2.036 21.9951,5.298 30.1808,12.474 87.1513,76.399 42.5299,270.048 -13.4591,113 -6.0915,-17.087 -8.7011,-35.221 -13.0514,-52.832"
       id="path3468" /><path
       style="fill:none;stroke:#ffffff;stroke-width:10.7"
       d="m 6341.9731,15712.648 c 31.9487,47.695 68.2787,92.73 95.8459,143.084 79.9041,145.952 110.1968,400.091 -12.6437,531.978 -18.0154,19.342 -42.4169,31.551 -63.6251,47.327"
       id="path3470" /></g></svg>
