<?xml version="1.0" encoding="UTF-8" standalone="no"?>
<!-- Created with Inkscape (http://www.inkscape.org/) -->

<svg
   width="221.36623mm"
   height="247.04004mm"
   viewBox="0 0 221.36623 247.04004"
   version="1.1"
   id="svg12"
   inkscape:version="1.2.1 (9c6d41e410, 2022-07-14, custom)"
   sodipodi:docname="tcp_setup_graph.svg"
   xmlns:inkscape="http://www.inkscape.org/namespaces/inkscape"
   xmlns:sodipodi="http://sodipodi.sourceforge.net/DTD/sodipodi-0.dtd"
   xmlns="http://www.w3.org/2000/svg"
   xmlns:svg="http://www.w3.org/2000/svg">
  <sodipodi:namedview
     id="namedview14"
     pagecolor="#505050"
     bordercolor="#eeeeee"
     borderopacity="1"
     inkscape:showpageshadow="0"
     inkscape:pageopacity="0"
     inkscape:pagecheckerboard="0"
     inkscape:deskcolor="#505050"
     inkscape:document-units="mm"
     showgrid="false"
     inkscape:zoom="0.36131525"
     inkscape:cx="-69.191655"
     inkscape:cy="528.62425"
     inkscape:window-width="1366"
     inkscape:window-height="746"
     inkscape:window-x="0"
     inkscape:window-y="0"
     inkscape:window-maximized="1"
     inkscape:current-layer="layer1"
     inkscape:lockguides="false" />
  <defs
     id="defs9" />
  <g
     inkscape:label="Layer 1"
     inkscape:groupmode="layer"
     id="layer1"
     transform="translate(-22.415177,5.9335489)">
    <path
       style="fill:none;stroke:#00ffff;stroke-width:0.264999"
       d="m 35.109438,41.64005 c 1.764784,18.060824 1.160537,36.212484 1.59086,54.315944 0.201917,8.494526 0.689372,16.952706 0.689372,25.456636 0,5.37845 -0.563414,10.72195 -0.618675,16.10716 -0.03835,3.737 0.552246,7.40881 0.31818,11.1462"
       id="path302" />
    <path
       style="fill:none;stroke:#00ffff;stroke-width:0.264999"
       d="m 25.688016,19.363519 c -1.716018,1.059965 -4.617267,5.49257 -2.244883,7.282406 1.980572,1.494237 6.220595,-1.13497 7.105841,-3.06879"
       id="path304" />
    <path
       style="fill:none;stroke:#00ffff;stroke-width:0.264999"
       d="m 32.016094,17.789372 c 0.555985,2.996576 1.492699,5.906011 2.103477,8.888351"
       id="path306" />
    <path
       style="fill:none;stroke:#00ffff;stroke-width:0.264999"
       d="m 35.23317,24.435759 c 0.514239,-1.119639 0.422868,-2.129925 0.31817,-3.291395"
       id="path308" />
    <path
       style="fill:none;stroke:#00ffff;stroke-width:0.264999"
       d="M 35.409933,18.266391 C 35.109568,17.420692 34.856279,16.83447 35.056405,16.024427"
       id="path310" />
    <path
       style="fill:none;stroke:#00ffff;stroke-width:0.264999"
       d="m 37.548751,17.20106 c 1.512083,0.120657 2.19293,0.37512 3.55292,-0.0954 2.013334,-0.696564 2.450073,-2.962334 1.378746,-2.480479 -3.414516,1.535761 -1.428964,9.313092 2.191851,5.581067"
       id="path312" />
    <path
       style="fill:none;stroke:#00ffff;stroke-width:0.264999"
       d="m 44.24804,15.388408 c 0.226613,0.931066 3.453683,3.52225 3.906441,2.893882 0.07362,-0.10218 -0.03235,-3.406062 0.19444,-3.259598 1.049702,0.677921 2.149816,3.813532 3.35848,3.5299 -0.162597,-5.191538 -0.728156,-3.966366 0.724723,-1.780844 0.774142,1.164519 1.904149,2.203522 2.492345,3.482194"
       id="path314" />
    <path
       style="fill:none;stroke:#00ffff;stroke-width:0.264999"
       d="m 52.909382,19.395318 c 1.641263,-2.814522 3.704992,-3.567734 6.734641,-3.84791"
       id="path316" />
    <g
       id="g354"
       transform="translate(34.892852,5.2948454)">
      <path
         style="fill:none;stroke:#00ffff;stroke-width:0.264999"
         d="m 185.02141,29.921422 c 0.60977,4.750789 0.76022,9.556829 0.83078,14.342208 0.15455,10.482275 0.0282,20.959129 0.51262,31.435193 0.53807,11.637618 1.78931,23.255739 2.08578,34.901487 0.20163,7.92034 -1.0836,15.58007 -1.60853,23.43727 -0.10781,1.61361 0.0298,3.65413 -0.17677,5.32665"
         id="path318" />
      <path
         style="fill:none;stroke:#00ffff;stroke-width:0.264999"
         d="m 174.34497,5.895836 c -0.21211,0.5724163 -0.41015,1.1502485 -0.63634,1.7172482 -0.40383,1.0122964 -1.79336,2.9535568 -1.41409,4.1182118 0.6621,2.03317 6.64234,3.104647 4.61348,6.519186 -1.37575,2.315384 -3.25515,-0.648377 -1.13128,-2.544064 1.6978,-1.515393 4.17571,-1.3708 6.20437,-2.16247 0.75387,-0.294193 2.91446,-2.635595 1.20198,-2.941578 -3.01465,-0.538653 -4.83161,4.143729 -2.72215,5.294845 5.42087,2.95812 5.92332,-6.0574014 4.24229,-6.6622863 -0.6216,-0.2236705 0.53167,1.2175543 0.90149,1.7649553 0.29099,0.430707 2.29401,2.987571 2.49234,3.22779 0.32519,0.393871 1.09721,1.543154 1.13128,1.033522 0.0109,-0.162387 -0.44211,-4.794527 0.54797,-4.770129 1.59058,0.0392 1.90717,2.523644 3.78271,2.289661 1.77385,-0.221296 4.71811,-2.920673 3.14637,-4.9450382 -0.68242,-0.8789387 -1.98055,1.6416033 -1.89136,2.7507812 0.0813,1.011262 0.48552,2.022813 1.07826,2.846174 2.14302,2.976834 7.14239,-1.55494 2.84586,-5.75596 -0.0612,-0.059856 -0.003,0.17779 0.0354,0.2544085 0.2469,0.4950992 0.51977,0.9778498 0.8131,1.4469359 1.4671,2.3461466 0.80175,0.9798426 2.51003,3.5140016 0.60863,0.902864 0.80707,1.515734 0.63634,1.590046 -0.19649,0.08553 -0.44026,-0.110738 -0.58332,-0.270302 -3.27955,-3.658092 3.44672,-8.3425021 6.66395,-6.1375808"
         id="path320" />
    </g>
    <path
       style="fill:none;stroke:#00ffff;stroke-width:0.264999"
       d="m 69.136142,50.655613 c 6.074106,1.470364 12.256588,0.11094 18.400938,0.222605 1.801418,0.03274 3.581738,0.342553 5.391242,0.381614 6.575854,0.141954 13.142948,-0.19159 19.708978,-0.42931 3.44503,-0.124728 6.85941,-0.7594 10.28756,-1.09714 4.62323,-0.455478 9.30468,-0.605655 13.94653,-0.76322 6.69302,-0.22719 13.38736,-0.377132 20.08018,-0.62012 3.52697,-0.12805 7.04205,-0.495107 10.57037,-0.60421 4.52447,-0.139907 9.13093,0.163301 13.64604,-0.159009 0.23906,-0.01707 7.26865,-1.344528 7.31796,-1.38334 0.42439,-0.334026 -0.91824,-1.682893 -0.97219,-1.717249 -0.7188,-0.457758 -1.5904,-0.651613 -2.42164,-0.747321 -0.81372,-0.09369 -1.52922,-0.04113 -1.53784,-0.0954 -0.12092,-0.761469 4.59313,-0.690232 5.40892,0.0954 2.30435,2.219169 -2.20572,6.829396 -2.70445,9.222258"
       id="path322" />
    <path
       style="fill:none;stroke:#00ffff;stroke-width:0.264999"
       d="m 51.035703,31.590964 c -0.333039,0.659077 -1.336749,2.50635 -1.431768,3.259598 -0.126905,1.005998 4.623188,0.54728 5.179128,2.591771 0.825334,3.035194 -3.661476,9.413819 -4.22462,3.132386"
       id="path324" />
    <path
       style="fill:none;stroke:#00ffff;stroke-width:0.264999"
       d="m 61.659108,33.689827 c 0.106055,0.784423 0.246872,1.564925 0.318169,2.353267 0.199208,2.202606 0.07071,2.120726 0.07071,4.13412 0,0.297043 0.306221,1.01233 0.03535,0.890424 -0.0168,-0.0076 -0.153723,-2.204345 -0.212113,-2.925681 -0.05912,-0.730387 -0.683962,-2.271016 -0.547958,-2.957489 0.09924,-0.500898 0.69288,-1.129572 0.335844,-1.494641 -0.69278,-0.708367 -1.861812,-0.678646 -2.792841,-1.017633 -0.335579,-0.122184 -1.247759,-0.58226 -1.696916,-0.508807 -0.442553,0.07237 0.774176,0.469771 1.201981,0.604211 1.085871,0.341233 2.23666,1.358931 3.287776,0.922229 0.245269,-0.101899 1.360551,-6.956245 3.004955,-5.342552"
       id="path326" />
    <path
       style="fill:none;stroke:#00ffff;stroke-width:0.264999"
       d="m 67.916488,40.41572 c 2.060535,-1.972029 0.945594,-5.03234 1.820645,-7.39371 0.105519,-0.284747 0.459409,0.405122 0.63635,0.651918 1.08618,1.514999 1.071057,1.641245 2.103469,3.243688 0.63669,0.988235 1.267603,1.85216 1.255014,1.399239 -0.07134,-2.56648 -0.985523,-5.607119 -1.378747,-8.061524 -0.0861,-0.537398 0.104413,-1.957186 -0.689372,-1.431046"
       id="path328" />
    <path
       style="fill:none;stroke:#00ffff;stroke-width:0.264999"
       d="m 78.433834,31.638671 c -1.165082,-2.384015 0.12438,-2.545281 0,0 z"
       id="path330" />
    <path
       style="fill:none;stroke:#00ffff;stroke-width:0.264999"
       d="m 80.095401,37.839848 c -0.11195,0.508812 -0.844666,1.414489 -0.335854,1.526439 0.508815,0.111951 0.223904,-1.017627 0.335854,-1.526439 z"
       id="path332" />
    <path
       style="fill:none;stroke:#00ffff;stroke-width:0.264999"
       d="m 86.918423,28.744788 c 0.829495,2.476164 1.040278,5.158997 1.979726,7.600416 0.114695,0.298066 -0.07626,-0.634887 -0.08837,-0.954027 -0.06995,-1.842815 -0.01768,-2.963556 -0.01768,-4.817838 0,-1.243441 -0.0065,-2.61906 -0.176754,-2.639478 -1.328317,-0.159316 -4.426538,2.868147 -3.712012,3.975111 0.152678,0.236532 1.211522,-0.166436 1.502476,-0.206706"
       id="path334" />
    <path
       style="fill:none;stroke:#00ffff;stroke-width:0.264999"
       d="m 85.857846,36.901717 c 2.73209,1.808507 5.557189,-1.381561 8.449231,-0.28621"
       id="path336" />
    <path
       style="fill:none;stroke:#00ffff;stroke-width:0.264999"
       d="m 111.54139,27.091137 c -0.41834,0.768522 -0.86338,1.523103 -1.25503,2.305569 -0.0136,0.02728 -0.62014,1.223372 -0.45957,1.574138 0.54164,1.183251 7.08983,-0.0024 5.42659,4.070525 -0.88702,2.172086 -5.79964,5.033346 -5.39124,1.065331"
       id="path338" />
    <path
       style="fill:none;stroke:#00ffff;stroke-width:0.264999"
       d="m 121.44007,28.744788 c -0.82917,2.440689 -1.71111,4.87371 -2.20952,7.409609 -0.10024,0.510032 -0.0243,1.064881 -0.22981,1.542338 -0.0881,0.204827 -0.27608,-0.354836 -0.3712,-0.556512"
       id="path340" />
    <path
       style="fill:none;stroke:#00ffff;stroke-width:0.264999"
       d="m 116.68517,30.795947 c 1.19198,0.678732 2.63896,1.113157 3.72966,1.971651"
       id="path342" />
    <path
       style="fill:none;stroke:#00ffff;stroke-width:0.264999"
       d="m 126.10658,30.636935 c -5.62652,5.573768 0.64771,4.163128 3.83573,2.989286 0.37295,-0.137322 0.72376,-0.329152 1.07826,-0.508807 0.0648,-0.03282 0.24608,-0.105627 0.17677,-0.127212 -0.28709,-0.0894 -0.60135,-0.01381 -0.9015,-0.0318"
       id="path344" />
    <path
       style="fill:none;stroke:#00ffff;stroke-width:0.264999"
       d="m 132.18721,25.994008 c 1.16954,1.644936 0.74028,4.52406 2.05043,5.899065"
       id="path346" />
    <path
       style="fill:none;stroke:#00ffff;stroke-width:0.264999"
       d="m 135.03307,25.691898 c 0.355,2.437612 1.42294,4.637699 2.19185,6.948499 0.091,0.273542 0.47871,0.890666 0.19444,0.842724 -0.11379,-0.01918 -0.17676,-0.148405 -0.26514,-0.222607"
       id="path348" />
    <path
       style="fill:none;stroke:#00ffff;stroke-width:0.264999"
       d="m 139.75262,27.154743 c 0.22979,-0.185505 0.54157,-0.300837 0.68937,-0.556514 0.21844,-0.37788 -0.85967,-0.293416 -1.29036,-0.222616 -3.10364,0.510194 -5.86022,1.219436 -7.68915,4.006919 3.33581,1.044746 6.05978,0.200016 9.24467,-0.461109"
       id="path350" />
    <path
       style="fill:none;stroke:#00ffff;stroke-width:0.264999"
       d="m 145.55042,27.122935 c -0.96631,-1.802043 -0.96631,-1.802043 0,0 z"
       id="path410" />
    <path
       style="fill:none;stroke:#00ffff;stroke-width:0.264999"
       d="m 146.66403,33.546727 c 0.84845,1.823241 0.84845,1.823241 0,0 z"
       id="path412" />
    <path
       style="fill:none;stroke:#00ffff;stroke-width:0.264999"
       d="m 148.1665,24.149558 c -0.62456,0.201403 -1.22169,0.529737 -1.87368,0.604211 -0.32537,0.03717 -0.91733,-0.897557 -0.61866,-0.763221 0.87819,0.394994 1.76688,3.699672 0.0884,3.339092 -1.58185,-0.339815 -1.78094,-3.490916 0.0884,-3.450394 0.77692,0.01684 1.92331,-0.400514 2.31558,0.270312 0.12271,0.209849 -0.68453,3.66532 -1.67924,3.609395 -1.51271,-0.08505 -2.70266,-2.930519 -0.45957,-2.60767"
       id="path414" />
    <path
       style="fill:none;stroke:#00ffff;stroke-width:0.264999"
       d="m 146.55796,35.820487 c -0.12962,-0.646618 -0.33903,-1.282255 -0.38888,-1.939853 -0.31379,-4.140031 3.37162,1.317672 0.38888,1.939853 -1.02746,0.214326 -1.08914,-2.980735 -0.053,-3.148293 2.77823,-0.449291 1.23626,3.863552 0.053,3.148293 -0.76011,-0.459478 -0.41244,-1.727845 -0.61866,-2.591771"
       id="path416" />
    <path
       style="fill:none;stroke:#00ffff;stroke-width:0.264999"
       d="m 153.75218,25.183081 c 0.32995,0.720823 0.65186,1.445384 0.98986,2.162469 0.28661,0.608049 0.61519,1.196443 0.88383,1.812642 0.0844,0.1935 1.0211,3.590544 0.21211,2.226066 -1.43038,-2.412545 -1.23081,-6.357304 2.31559,-4.293121 0.14141,0.869227 0.17227,1.763839 0.42423,2.60768 1.45579,4.87558 5.93377,-2.376317 3.55292,-2.718983 -1.15282,-0.16592 0.42478,5.124588 1.80297,3.609405"
       id="path418" />
    <path
       style="fill:none;stroke:#00ffff;stroke-width:0.264999"
       d="m 163.15593,27.361449 c -0.20622,-0.466413 -0.15225,-1.605461 -0.61866,-1.399239 -0.46641,0.206222 0.24204,1.055399 0.61866,1.399239 0.85319,0.778928 1.9683,1.210762 2.93426,1.84445 0.89541,0.587404 -0.69635,-2.129084 -0.053,-2.862084 0.65389,-0.745062 2.66353,2.311832 3.09334,2.76668"
       id="path420" />
    <path
       style="fill:none;stroke:#00ffff;stroke-width:0.264999"
       d="m 168.56485,25.087677 c 2.12964,-0.117288 1.68754,-0.482801 3.41151,1.272037 1.89383,1.927742 0.62668,4.662906 -1.39642,3.434496 -1.97742,-1.200666 0.55484,-3.415617 1.83832,-3.768404"
       id="path422" />
    <path
       style="fill:none;stroke:#00ffff;stroke-width:0.264999"
       d="m 175.90048,26.86853 c -0.50083,-0.0477 -1.09631,0.153762 -1.50249,-0.1431 -0.37365,-0.273092 -0.3898,-0.849359 -0.47724,-1.303835 -0.37912,-1.970433 1.53419,-2.329577 1.85599,-1.033533 0.19949,0.803455 0.0825,1.653646 0.12374,2.480468 z"
       id="path424" />
    <path
       style="fill:none;stroke:#00ffff;stroke-width:0.264999"
       d="m 175.95351,22.766218 c 0.65991,0.280908 1.43137,0.380458 1.97973,0.842725 0.53187,0.448359 0.78219,1.153334 1.11361,1.764945 0.68044,1.25571 0.96659,2.481731 0.40655,2.098863 -0.55579,-0.379963 -1.94213,-2.852044 -0.79543,-3.291395 0.80108,-0.306926 1.5941,1.143385 1.7853,1.653642 0.0725,0.193564 0.12576,0.784165 0,0.62012 -0.30485,-0.397646 -0.73684,-2.817878 0.40655,-2.575872 1.53722,0.325358 3.6394,3.778504 2.63375,3.291396"
       id="path426" />
    <path
       style="fill:none;stroke:#00ffff;stroke-width:0.264999"
       d="m 187.70818,20.699152 c 2.26262,-0.155057 1.40347,7.918872 2.58073,7.616326"
       id="path428" />
    <path
       style="fill:none;stroke:#00ffff;stroke-width:0.264999"
       d="m 191.47322,21.875786 c 0.0412,-0.805621 0.0825,-1.611242 0.12374,-2.416863 0.006,-0.127205 -0.0656,-0.477942 0.0177,-0.381615 1.21448,1.404593 -0.93687,0.599329 -0.14141,2.798478 0.46767,1.292953 1.76177,2.13287 2.42165,3.339103 0.45497,0.831649 0.60333,1.797553 0.88381,2.703074 0.30636,0.989113 0.57436,2.028875 0.47725,2.082953 -0.4029,0.224356 -0.63139,-0.675637 -0.90148,-1.04942"
       id="path430" />
    <path
       style="fill:none;stroke:#00ffff;stroke-width:0.264999"
       d="m 186.61227,24.73787 c 1.00428,-0.01536 12.62573,-1.954515 12.92131,-2.353267 0.17239,-0.232563 -0.57742,0.0424 -0.86613,0.06361"
       id="path432" />
    <path
       style="fill:none;stroke:#00ffff;stroke-width:0.264999"
       d="m 186.84206,26.709531 c 4.05267,0.702487 8.50414,-1.4085 12.44406,-0.318009"
       id="path434" />
    <path
       style="fill:none;stroke:#00ffff;stroke-width:0.264999"
       d="m 215.45984,103.65181 c -1.91968,0.71721 -3.9362,0.47392 -5.92153,0.19081 -2.38181,-0.33965 -4.37669,-1.90673 -6.80534,-2.21016 -3.80271,-0.47512 -7.77981,-0.005 -11.59559,0.0318 -3.91292,0.038 -7.82193,-0.133 -11.737,-0.0954 -4.46353,0.0429 -8.9172,0.3257 -13.38091,0.34982 -11.95205,0.0646 -23.88057,0.46521 -35.82967,0.73141 -5.96834,0.13296 -11.92799,0.0559 -17.88833,0.49292 -11.52432,0.84492 -22.964123,2.5785 -34.503975,3.3391 -3.836445,0.25286 -7.734041,0.66438 -11.577923,0.6837 -3.295544,0.0166 -6.485049,-0.13686 -9.792626,0.0795 -1.505405,0.0985 -2.84322,1.18109 -4.330666,1.46284 -1.386474,0.26263 -3.011823,-0.46112 -4.454408,-0.46112 -0.990724,0 -1.984216,-0.0159 -2.969604,-0.0159 -0.319789,0 -1.006793,0.25908 -1.361072,0.19081 -0.265713,-0.0512 0.09428,-0.47336 1.113599,-1.74907 1.299401,-1.62624 2.6489,-3.2048 3.906449,-4.86552 0.372766,-0.49228 1.24415,-1.914896 0.654015,-1.73316 -0.552794,0.17023 -3.094537,2.02807 -3.446854,2.30556 -6.51596,5.13206 -1.430316,4.3656 1.749939,9.06327 0.461623,0.68188 2.040802,4.7376 3.658978,4.84963"
       id="path485" />
    <path
       style="fill:none;stroke:#00ffff;stroke-width:0.264999"
       d="m 168.79464,85.016487 c -0.68876,0.510572 -2.24256,1.074724 -2.17418,2.28967 0.0731,1.298556 4.77323,-0.458446 4.20694,3.195992 -0.0871,0.562353 -0.21188,1.125683 -0.42423,1.653643 -1.57153,3.907216 -6.01656,2.362332 -4.8256,0.302109"
       id="path487" />
    <path
       style="fill:none;stroke:#00ffff;stroke-width:0.264999"
       d="m 176.07725,92.887204 c 0.63501,-1.619729 0.62356,-3.197879 0.58331,-4.881433 -0.0102,-0.424545 0.24501,-1.556044 -0.0707,-1.272038 -0.95549,0.859515 -2.39991,-0.617442 -3.34078,-1.192532 -0.34943,-0.213574 -1.42982,-0.797261 -1.06059,-0.620117 0.60723,0.291322 2.70757,1.461992 3.37616,0.969925 0.91179,-0.67106 1.1376,-5.75968 2.93425,-5.310743"
       id="path489" />
    <path
       style="fill:none;stroke:#00ffff;stroke-width:0.264999"
       d="m 180.31953,91.328966 c 0.12962,-0.726119 0.26326,-1.451535 0.38888,-2.178359 0.0924,-0.534636 0.16313,-1.073063 0.26515,-1.605944 0.0804,-0.419658 0.27783,-2.989178 0.84846,-1.287936 0.43921,1.309462 0.72351,2.66669 1.11359,3.991009 0.5646,1.916838 0.36705,0.0532 0.38887,-1.065331 0.0184,-0.943706 0.0369,-1.887797 0.0884,-2.830275 0.0713,-1.304523 0.37855,-2.811661 0.19443,-4.070516"
       id="path491" />
    <path
       style="fill:none;stroke:#00ffff;stroke-width:0.264999"
       d="m 194.53121,92.505608 c 2.16534,-5.312187 0.22728,-0.480854 2.12116,-5.406157 0.67323,-1.750851 1.06953,-2.479326 1.50246,-4.324929 0.36262,-1.545842 -0.006,-2.093275 -0.10604,-1.98755 -1.79923,1.904158 2.57812,9.260961 2.24487,9.81057"
       id="path493" />
    <path
       style="fill:none;stroke:#00ffff;stroke-width:0.264999"
       d="m 195.90996,89.373211 c 1.58052,-0.895482 3.34436,-1.280522 5.00237,-1.971651"
       id="path495" />
    <path
       style="fill:none;stroke:#00ffff;stroke-width:0.264999"
       d="m 203.0865,84.078357 c -6.85407,0.985411 3.38414,7.747658 3.28776,2.46458"
       id="path497" />
    <path
       style="fill:none;stroke:#00ffff;stroke-width:0.264999"
       d="m 206.37426,82.074908 c 0.80263,1.393909 1.01265,2.968299 1.69693,4.404423"
       id="path499" />
    <path
       style="fill:none;stroke:#00ffff;stroke-width:0.264999"
       d="m 209.83881,84.36457 c -0.50672,0.344508 -1.06461,0.623744 -1.52016,1.033531 -2.55482,2.298163 1.23609,1.999242 1.90904,2.544074"
       id="path501" />
    <path
       style="fill:none;stroke:#00ffff;stroke-width:0.264999"
       d="m 210.98777,81.995403 c -0.1413,-2.161079 0.0814,-2.271154 0,0 z"
       id="path503" />
    <path
       style="fill:none;stroke:#00ffff;stroke-width:0.264999"
       d="m 212.26045,85.970514 c 1.81543,1.856287 -0.26406,2.765986 -0.31816,1.764956 -0.0323,-0.596929 0.21211,-1.176637 0.31816,-1.764956 z"
       id="path505" />
    <path
       style="fill:none;stroke:#00ffff;stroke-width:0.264999"
       d="m 214.64674,80.135054 c 0.23569,-0.487616 1.19467,-1.227158 0.70706,-1.462844 -1.81134,-0.875501 0.13858,7.19772 0.84845,8.506735"
       id="path507" />
    <path
       style="fill:none;stroke:#00ffff;stroke-width:0.264999"
       d="m 186.98347,84.03066 c -0.40067,-1.95046 -0.40067,-1.95046 0,0 z"
       id="path509" />
    <path
       style="fill:none;stroke:#00ffff;stroke-width:0.264999"
       d="m 187.8496,82.838128 c 0.0412,0.503515 -0.37977,1.551789 0.12374,1.510543 0.50351,-0.04125 -0.18349,-2.012199 -0.12374,-1.510543 0.0113,0.09528 0.82084,3.341848 -0.58332,3.482194 -0.17462,0.01746 -0.35589,-0.133228 -0.4419,-0.286202 -0.83981,-1.493706 0.0226,-1.649958 1.02522,-3.195992 z"
       id="path511" />
    <path
       style="fill:none;stroke:#00ffff;stroke-width:0.264999"
       d="m 187.61981,90.215938 c -2.96814,-1.858682 -0.60918,-3.097662 -0.0177,-1.923954 0.28863,0.572725 0.0118,1.282636 0.0177,1.923954 z"
       id="path513" />
    <path
       style="fill:none;stroke:#00ffff;stroke-width:0.264999"
       d="m 192.03886,78.783512 c 0.29056,4.384024 1.22706,10.199428 0.22979,14.485308"
       id="path515" />
    <path
       style="fill:none;stroke:#00ffff;stroke-width:0.264999"
       d="m 61.959603,91.138167 c -0.280183,1.114505 -2.623098,3.98035 -1.343387,5.342544 0.742447,0.7903 1.855927,0.296378 2.651426,0.842735 1.763893,1.211458 2.144138,2.892674 1.679239,4.881434 -0.77792,3.32779 -3.666157,5.15643 -4.719542,0.76323"
       id="path517" />
    <path
       style="fill:none;stroke:#00ffff;stroke-width:0.264999"
       d="m 70.408834,92.012689 c -1.113759,3.007755 -0.612794,6.228194 -0.954511,9.301771 -0.03071,0.27625 -0.235612,-0.50399 -0.335854,-0.76324"
       id="path519" />
    <path
       style="fill:none;stroke:#00ffff;stroke-width:0.264999"
       d="m 65.989784,95.033773 c 1.30923,-0.15613 2.321541,0.167119 3.499887,0.572424"
       id="path521" />
    <path
       style="fill:none;stroke:#00ffff;stroke-width:0.264999"
       d="m 74.297597,91.774176 c -0.329956,0.816226 -0.707308,1.61486 -0.989867,2.448681 -2.360877,6.966813 5.726107,5.607174 5.143781,2.46457"
       id="path523" />
    <path
       style="fill:none;stroke:#00ffff;stroke-width:0.264999"
       d="m 84.178605,88.737193 c 0.0131,0.115038 2.082649,7.849121 2.51002,7.966122 0.202263,0.05537 0.0707,-0.413406 0.106058,-0.620109"
       id="path525" />
    <path
       style="fill:none;stroke:#00ffff;stroke-width:0.264999"
       d="m 86.600243,89.786626 c -0.06481,-0.996429 -0.129624,-1.992858 -0.194439,-2.989287 0,-0.116602 -0.05765,-0.451162 0,-0.349805 1.297604,2.281414 1.566915,5.1412 2.616086,7.584516 0.384445,0.895292 0.710946,1.74765 1.201983,2.575872 0.03617,0.06101 0.134861,0.229638 0.141404,0.15901 0.01646,-0.177681 -0.400243,-0.832655 -0.424225,-0.874533"
       id="path527" />
    <path
       style="fill:none;stroke:#00ffff;stroke-width:0.264999"
       d="m 88.473924,92.378397 c 4.86445,-2.307201 0.217721,-1.405994 -1.520152,-0.636019 -1.245619,0.551878 -2.269737,1.546556 -3.535247,2.051156 -0.44922,0.179116 -1.470633,0.419548 -1.449443,-0.0636 0.0212,-0.483143 0.966296,0.04241 1.449443,0.0636 0.824891,0.291512 1.632173,1.110372 2.474672,0.874535 1.107442,-0.310001 1.46281,-2.019875 2.580727,-2.289672 0.87828,-0.211963 1.613423,0.856059 2.492345,1.065342 0.07485,0.01782 1.783864,0.0016 1.414105,-0.397524"
       id="path529" />
    <path
       style="fill:none;stroke:#00ffff;stroke-width:0.264999"
       d="m 93.016712,88.403286 c -0.872032,-1.88685 -0.872032,-1.88685 0,0 z"
       id="path531" />
    <path
       style="fill:none;stroke:#00ffff;stroke-width:0.264999"
       d="m 94.607572,94.620362 c -0.159086,0.461113 -0.938374,1.224253 -0.477261,1.383339 0.461113,0.159086 0.397584,-1.864574 0.477261,-1.383339 0.117594,0.710261 -0.0064,1.499965 -0.353528,2.13066 -0.118473,0.215228 -0.588172,-0.250552 -0.547958,-0.492918 0.102002,-0.614749 0.600991,-1.091827 0.901486,-1.637742 z"
       id="path533" />
    <path
       style="fill:none;stroke:#00ffff;stroke-width:0.264999"
       d="m 92.380373,87.465156 c -3.451688,-1.455018 0.518665,-2.544485 0.530283,-1.844448 0.04153,2.502548 -1.136547,2.460892 -2.881222,0.492916 -0.390041,-0.439962 0.244472,-1.599649 0.707046,-1.764953 1.678948,-0.599985 2.180748,3.104851 1.643893,3.116485 -0.828373,0.01797 -0.966303,-1.346237 -1.449454,-2.019359"
       id="path535" />
    <path
       style="fill:none;stroke:#00ffff;stroke-width:0.264999"
       d="m 99.645294,86.733733 c 0.294876,2.037319 1.545846,3.572648 2.315596,5.469766 0.34884,0.859758 0.62586,1.748205 0.8838,2.639467 0.17903,0.618639 0.53073,2.461991 0.17676,1.923966 -1.25191,-1.902876 -0.93787,-4.835165 -0.21211,-6.821308 0.32229,-0.881994 1.47185,-2.010592 2.28022,-1.192532"
       id="path537" />
    <path
       style="fill:none;stroke:#00ffff;stroke-width:0.264999"
       d="m 108.04149,88.101174 c -0.50671,0.715521 -1.20749,1.327431 -1.52014,2.146562 -1.56202,4.092363 6.03341,1.054674 3.76501,-1.685451 -0.40091,-0.484283 -0.76128,0.368628 -0.68936,0.636018 0.26086,0.969878 0.71015,1.674302 1.23733,2.48048"
       id="path539" />
    <path
       style="fill:none;stroke:#00ffff;stroke-width:0.264999"
       d="m 110.90505,86.797339 c 0.48904,0.583018 1.02904,1.126832 1.46712,1.749047 0.44989,0.638998 0.84789,3.109627 0.67168,0.954029 -0.0155,-0.189545 -0.22177,-3.391535 0.8308,-2.273763 0.64795,0.688081 1.55874,2.186297 1.89135,2.941579 1.09599,2.488782 0.30201,1.484376 -0.053,0.826826"
       id="path541" />
    <path
       style="fill:none;stroke:#00ffff;stroke-width:0.264999"
       d="m 114.84683,86.415725 c 1.87495,-0.443838 1.29734,-0.712567 2.86356,1.24024 0.48109,0.59984 0.91757,1.241928 1.27268,1.923955 0.30311,0.582173 0.56237,1.200496 0.68938,1.84445 0.87061,4.414107 -6.63946,-1.463961 -1.85602,-2.718975"
       id="path543" />
    <path
       style="fill:none;stroke:#00ffff;stroke-width:0.264999"
       d="m 120.78604,90.34314 c -2.67486,2.17679 -3.18462,-2.27932 -0.98987,-2.862083 0.8608,-0.228566 2.68296,0.277506 2.42166,1.128935 -0.21986,0.716378 -0.95453,1.155432 -1.43179,1.733148 z"
       id="path545" />
    <path
       style="fill:none;stroke:#00ffff;stroke-width:0.264999"
       d="m 122.04106,84.078357 c 0.56564,0.959329 1.25352,1.856385 1.69691,2.877984 0.238,0.54838 0.21925,1.175395 0.31818,1.764953 0.50093,2.985288 -0.89088,-1.719789 0.31816,-2.13066 0.9746,-0.331201 1.59,2.439191 1.29037,3.005185 -0.21166,0.399827 -0.18798,-0.90373 -0.12374,-1.351542 0.12449,-0.867857 0.2788,-1.589418 1.3434,-1.796743 1.09419,-0.21309 1.51213,2.597017 1.52016,2.639467"
       id="path547" />
    <path
       style="fill:none;stroke:#00ffff;stroke-width:0.264999"
       d="m 133.44221,84.444074 c 1.06733,2.096879 1.99164,4.390163 2.13883,6.773588"
       id="path549" />
    <path
       style="fill:none;stroke:#00ffff;stroke-width:0.264999"
       d="m 136.57091,83.362844 c 1.40399,2.019009 2.63075,4.289192 3.64129,6.535084"
       id="path551" />
    <path
       style="fill:none;stroke:#00ffff;stroke-width:0.264999"
       d="m 140.98996,86.956339 c 1.39601,-0.418588 -1.04429,-0.02069 -1.3434,0.03181 -1.55601,0.273113 -7.93847,1.896361 -7.97197,1.605944 -0.053,-0.459581 0.91916,-0.106009 1.37874,-0.159009 0.93095,0.567117 1.72932,1.46218 2.79285,1.70135 1.62572,0.3656 5.91456,-1.260981 7.98964,-1.399239"
       id="path553" />
    <path
       style="fill:none;stroke:#00ffff;stroke-width:0.264999"
       d="m 155.66122,19.888235 c -0.0446,-0.579928 2.57716,-4.875818 3.51757,-4.356726 0.83775,0.46243 1.09232,1.526628 1.94439,2.019358 1.38048,0.798308 3.44437,-1.712858 3.99482,-2.639478 0.73393,-1.235501 1.04767,-2.570059 1.34337,-3.959212 0.0877,-0.411933 0.1596,-0.829088 0.24749,-1.2402392 0.0152,-0.071209 0.0567,-0.2781525 0.0707,-0.2066967 0.30633,1.5615899 -0.43542,5.4723209 2.29792,5.0881389 2.6579,-0.37358 5.05995,-2.197528 7.24724,-3.625304 0.51378,-0.335379 1.31077,-1.2534514 1.94439,-1.367441 1.40246,-0.2523072 3.52648,0.253093 4.29532,1.510552 0.27823,0.455042 1.17004,5.499769 0.97218,3.720698"
       id="path555" />
    <path
       style="fill:none;stroke:#00ffff;stroke-width:0.264999"
       d="m 161.52973,-3.0720202 c -0.83348,1.8754739 -2.8848,7.1578655 0.49492,8.0774293 1.96529,0.5347216 4.25555,-0.7410995 5.95689,-1.5264458 0.891,-0.4112932 1.39829,-0.7980756 1.41409,-0.5565137 0.0412,0.630247 -1.69043,2.3662068 -1.73227,2.4009689 -2.50973,2.0847152 -5.31838,3.1724221 -7.38866,-0.095404 -1.41664,-2.2360887 -0.35034,-6.4386124 1.25503,-8.3000347 0.73477,-0.8519757 1.80494,-1.3435938 2.70445,-2.0193587 0.28775,-0.2161828 1.12314,-0.9003847 0.84845,-0.6678215 -0.54805,0.4639998 -0.94419,1.0975781 -1.52014,1.5264458 -0.62583,0.4660053 -1.57826,0.5265023 -2.03276,1.1607344 -0.0254,0.035389 -1.87425,5.4140975 -1.83834,5.8195662 0.20878,2.3580532 5.27497,0.314507 6.32808,-0.047702 1.55788,-0.5358179 2.97657,-1.1862652 2.91658,-1.2402342 -0.22066,-0.1985161 -0.57654,0.1415774 -0.86612,0.2067016"
       id="path557" />
    <path
       style="fill:none;stroke:#00ffff;stroke-width:0.264999"
       d="m 172.84251,3.3040597 c 0.63781,-0.776028 0.54819,-2.1155457 1.30802,-2.84617967 0.5122,-0.49251683 0.84955,-0.59506246 1.23733,0 0.58263,0.89404557 0.65569,1.82706817 0.67171,1.81265207 0.83443,-0.7506037 -2.64768,-2.95072017 -3.32313,-0.8109223 -0.18538,0.5872687 -0.30952,2.2989141 0.10607,1.8444499 1.46959,-1.6070724 0.21628,-3.86380844 1.23732,-3.86380844 0.74365,0 1.95726,1.67557984 2.36862,2.16245924 0.2311,0.2735302 0.82367,1.170857 0.60099,0.8904271 -0.76068,-0.957946 -1.56068,-3.28604815 -2.95193,-1.63774845 -0.59159,0.70089165 -1.1244,3.35650705 -1.255,2.44867055 -0.12963,-0.9010263 0.27585,-1.7998192 0.38887,-2.70307899 0.14325,-1.14485516 -0.0349,-1.78714281 0.38886,-1.47873874 0.67861,0.49390231 1.94801,2.40527093 2.56305,3.21189093 0.33247,0.4360233 1.02172,1.3134751 1.48482,1.7808491 0.0566,0.057165 0.18301,0.2227651 0.19443,0.1431057 0.0307,-0.2137937 -0.0825,-0.4240125 -0.12374,-0.6360186"
       id="path559" />
    <path
       style="fill:none;stroke:#00ffff;stroke-width:0.264999"
       d="m 79.918634,125.56265 c 0.769745,0.31955 -0.879668,-2.49705 -1.025218,-2.84619 -1.245243,-2.98705 -1.494541,-6.13889 -2.403972,-9.20637 -0.08027,-0.2708 -0.05588,0.56216 -0.08837,0.84274 -0.36028,3.11118 -1.112305,6.10313 -2.403972,8.96785 2.161056,-0.99405 4.461287,-2.22794 6.840697,-2.63946"
       id="path561" />
    <path
       style="fill:none;stroke:#00ffff;stroke-width:0.264999"
       d="m 83.948819,115.21145 c -5.860767,3.77998 0.401524,9.41492 3.535236,4.34083"
       id="path563" />
    <path
       style="fill:none;stroke:#00ffff;stroke-width:0.264999"
       d="m 87.890608,113.28749 c 0.491162,0.82253 0.48926,7.16379 1.820656,6.21708 0.49911,-0.3549 0.883809,-0.84802 1.325711,-1.27204 -0.705057,2.50571 5.188891,0.88192 4.542792,2.48048"
       id="path565" />
    <path
       style="fill:none;stroke:#00ffff;stroke-width:0.264999"
       d="m 99.203395,112.92178 c 1.134225,1.74759 0.998475,4.36822 2.722125,5.67646"
       id="path567" />
    <path
       style="fill:none;stroke:#00ffff;stroke-width:0.264999"
       d="m 101.89017,112.54016 c 0.67119,0.32838 5.33479,7.86245 4.2423,8.02973 -0.28631,0.0438 -0.53028,-0.2332 -0.79543,-0.34979"
       id="path569" />
    <path
       style="fill:none;stroke:#00ffff;stroke-width:0.264999"
       d="m 106.57437,116.24497 c 1.78777,0.0596 -3.58506,0.0812 -5.35589,0.33391 -0.80516,0.11489 -1.577927,0.41923 -2.386287,0.50883 -0.446196,0.0495 -1.375209,0.35239 -1.343399,-0.0954 0.03181,-0.44781 0.895599,0.0636 1.343399,0.0954 3.951567,3.3722 5.854567,1.44694 9.827967,1.44694"
       id="path571" />
    <path
       style="fill:none;stroke:#00ffff;stroke-width:0.264999"
       d="m 119.60173,110.31411 c -2.15209,1.91426 -5.87607,6.99994 -2.63375,9.63567 1.52564,1.24022 7.40633,-0.23541 7.40633,-1.43105 0,-0.20722 -0.39633,0.12652 -0.60099,0.15901"
       id="path573" />
    <path
       style="fill:none;stroke:#00ffff;stroke-width:0.264999"
       d="m 126.83131,121.04692 c 0.0118,-0.78972 -0.0819,-1.58811 0.0353,-2.36918 0.80267,-5.34753 3.11325,1.89425 3.42918,3.2278"
       id="path575" />
    <path
       style="fill:none;stroke:#00ffff;stroke-width:0.264999"
       d="m 135.7578,111.58615 c 0.17319,0.93035 2.5505,6.64275 2.13883,7.21881 -0.10625,0.14867 -0.36531,-0.0106 -0.54797,-0.0159"
       id="path577" />
    <path
       style="fill:none;stroke:#00ffff;stroke-width:0.264999"
       d="m 134.50278,116.26088 c 1.58821,-1.56065 4.04683,-1.04611 5.86851,-1.93985"
       id="path579" />
    <path
       style="fill:none;stroke:#00ffff;stroke-width:0.264999"
       d="m 141.43185,109.45549 c 1.51427,2.77091 2.31942,5.81959 3.67667,8.64983"
       id="path581" />
    <path
       style="fill:none;stroke:#00ffff;stroke-width:0.264999"
       d="m 110.4985,112.34938 c -0.98988,-1.97168 -0.98988,-1.97168 0,0 z"
       id="path583" />
    <path
       style="fill:none;stroke:#00ffff;stroke-width:0.264999"
       d="m 110.42778,120.60171 c -0.36531,-0.43992 -0.656,-1.68505 -1.09592,-1.31974 -0.43991,0.3653 0.73061,0.87982 1.09592,1.31974 z"
       id="path585" />
    <path
       style="fill:none;stroke:#00ffff;stroke-width:0.264999"
       d="m 110.28636,111.22044 c -3.27375,-2.41773 -0.30657,-3.09131 0.0354,-1.82855 0.15935,0.58844 -0.0205,1.2191 -0.0354,1.82855 -0.0204,0.83751 0.1914,1.71657 -0.0707,2.51228 -0.0765,0.23237 -0.64323,-0.12118 -0.63634,-0.36573 0.0212,-0.75303 0.47135,-1.43103 0.70703,-2.14655 z"
       id="path587" />
    <path
       style="fill:none;stroke:#00ffff;stroke-width:0.264999"
       d="m 110.86968,121.12643 c -3.3473,-0.34665 -0.52191,-2.74467 -0.10605,-1.87626 0.27056,0.56498 0.0707,1.25084 0.10605,1.87626 z"
       id="path589" />
    <path
       style="fill:none;stroke:#00ffff;stroke-width:0.264999"
       d="m 106.00873,65.458929 c 0.54668,-2.972892 0.24631,-1.247582 0.72473,-4.213616 0.15317,-0.949574 0.19907,-3.529277 0.79543,-4.46803 0.14548,-0.229007 0.20648,0.50287 0.28281,0.763223 0.66935,2.283007 0.91718,3.212383 2.12115,5.565156 0.22213,0.434062 1.26286,1.823246 1.67924,2.416873 0.14448,0.205997 0.61386,0.778621 0.40655,0.636019 -0.33026,-0.227174 -0.63635,-0.487614 -0.95452,-0.731422"
       id="path591" />
    <path
       style="fill:none;stroke:#00ffff;stroke-width:0.264999"
       d="m 107.35213,63.216964 c 2.75709,-1.017953 1.53036,-0.799119 3.60594,-0.985824"
       id="path593" />
    <path
       style="fill:none;stroke:#00ffff;stroke-width:0.264999"
       d="m 114.59937,59.528066 c -4.39845,2.38895 2.61706,5.903291 4.313,3.450394 0.14779,-0.213756 -0.10606,-0.508812 -0.15909,-0.763219"
       id="path595" />
    <path
       style="fill:none;stroke:#00ffff;stroke-width:0.264999"
       d="m 118.61186,58.430927 c 1.37491,0.590306 0.72515,4.178731 2.1565,4.658836 0.21103,0.07078 0.36532,-0.25441 0.54797,-0.381614"
       id="path597" />
    <path
       style="fill:none;stroke:#00ffff;stroke-width:0.264999"
       d="m 122.2355,59.369054 c -0.55975,0.726126 -1.33953,1.326801 -1.67925,2.17837 -0.96993,2.431318 5.13828,0.512911 5.55033,1.192533"
       id="path599" />
    <path
       style="fill:none;stroke:#00ffff;stroke-width:0.264999"
       d="m 127.20252,55.616551 c 1.20654,1.858891 1.01315,4.853474 2.61607,6.45559"
       id="path601" />
    <path
       style="fill:none;stroke:#00ffff;stroke-width:0.264999"
       d="m 129.94231,56.125366 c 0.70969,0.760301 3.66853,7.501853 3.09335,7.568618 -0.20978,0.02434 -0.36531,-0.212006 -0.54797,-0.318008"
       id="path603" />
    <path
       style="fill:none;stroke:#00ffff;stroke-width:0.264999"
       d="m 133.95483,59.957377 c 2.30208,-2.37766 -6.85226,0.584483 -6.99979,1.097129 4.20618,0.74188 1.84496,0.791998 6.99979,-1.097129 z"
       id="path605" />
    <path
       style="fill:none;stroke:#00ffff;stroke-width:0.264999"
       d="m 143.49998,53.803899 c -0.87791,0.408111 -1.90353,0.588668 -2.63375,1.224338 -0.44337,0.385969 -0.63786,1.050131 -0.65403,1.637744 -0.13287,4.827969 10.19371,3.800274 10.72946,-0.318008 0.32096,-2.467216 -2.94592,-2.244156 -4.20693,-2.305571 -1.0799,-0.05259 -2.28091,-0.747564 -3.23475,-0.238503 -0.66385,0.354298 -0.30552,1.473626 -0.45959,2.210165 -0.0522,0.249293 -0.37839,0.617849 -0.15907,0.747321 0.40478,0.23895 1.3077,-1.154092 2.43931,-2.591771"
       id="path607" />
    <path
       style="fill:none;stroke:#00ffff;stroke-width:0.264999"
       d="m 147.35339,49.574383 c -1.16911,2.08094 -0.89326,1.211514 -1.30803,4.134112 -0.27522,1.939322 -0.57143,5.339337 -0.65403,7.21881 -0.13784,3.136198 -0.70207,3.625582 0.14142,2.782578"
       id="path609" />
    <path
       style="fill:none;stroke:#00ffff;stroke-width:0.264999"
       d="m 137.34866,54.662522 c -0.30639,0.466413 -1.38558,1.092848 -0.91917,1.399238 0.46641,0.30639 0.61278,-0.932825 0.91917,-1.399238 z"
       id="path611" />
    <path
       style="fill:none;stroke:#00ffff;stroke-width:0.264999"
       d="m 136.74767,61.356615 c 0.49493,0.212008 1.27279,1.130951 1.48479,0.636019 0.21201,-0.49493 -0.98986,-0.424011 -1.48479,-0.636019 z"
       id="path613" />
    <path
       style="fill:none;stroke:#00ffff;stroke-width:0.264999"
       d="m 40.458019,143.5888 c 3.044764,0.96249 5.966934,2.3289 9.067901,3.13239 5.916927,1.53311 11.957303,2.16298 17.959027,3.22778 3.638685,0.64557 7.202186,1.50375 10.853203,2.11477 6.480958,1.08462 13.034973,1.94515 19.567567,2.65537 9.351623,1.01671 18.727893,1.94018 28.087503,2.87799 4.00165,0.40095 8.02566,0.54348 12.01983,1.01762 15.38372,1.82617 30.64961,4.4376 45.78138,7.79122 4.63299,1.0268 9.23403,2.36354 13.82281,3.57761 3.50765,0.92803 6.88689,2.27524 10.49967,2.76668 0.56211,0.0765 2.27522,0.1862 2.84586,0.22261 4.2904,0.2737 5.85746,2.48421 2.45701,-2.33737 -0.64276,-0.91139 -1.6005,-2.08969 -2.42164,-2.81439 -1.34412,-1.18627 -2.39725,-1.45773 -2.0858,-1.70135 0.78546,-0.6144 3.37531,0.66575 3.95947,1.06533 4.63423,3.16994 0.99081,7.76393 -1.67925,10.92362 -0.8004,0.94718 -3.44169,4.10724 -2.51001,2.55996"
       id="path615" />
    <path
       style="fill:none;stroke:#00ffff;stroke-width:0.264999"
       d="m 222.91191,138.43704 c 0.79934,1.24451 1.2064,1.65336 1.55549,3.1483 0.74149,3.17531 0.78555,5.66078 0.98987,8.99965 0.47662,7.78862 0.24029,6.2526 0.93685,14.38992 1.15712,13.51769 2.90274,27.05342 3.19939,40.62565"
       id="path617" />
    <path
       style="fill:none;stroke:#00ffff;stroke-width:0.264999"
       d="m 38.036378,143.03227 c -0.129627,0.54592 -0.304943,1.08298 -0.388879,1.63776 -0.279829,1.84958 0.06136,4.02503 0.123737,5.86727 0.161131,4.75904 0.275982,9.51966 0.441905,14.2786 0.495958,14.22481 1.075645,28.34895 0.654021,42.5973 -0.165635,5.59744 -0.703848,10.55564 -1.18431,16.07537 -0.507256,5.82759 -1.246179,11.76005 -0.530286,17.6018"
       id="path619" />
    <path
       style="fill:none;stroke:#00ffff;stroke-width:0.264999"
       d="m 84.123397,139.63504 c -1.199306,-0.006 -4.435565,2.97809 -2.545379,3.80022 1.437621,0.62528 6.131956,0.12236 5.02004,3.56169 -0.981308,3.03534 -5.593324,4.8748 -4.525105,0.60422"
       id="path621" />
    <path
       style="fill:none;stroke:#00ffff;stroke-width:0.264999"
       d="m 92.926145,141.06609 c -0.351324,-0.0729 -0.591574,8.06423 -0.618667,8.06153 -0.452374,-0.0452 -0.400659,-0.81623 -0.600991,-1.22433"
       id="path623" />
    <path
       style="fill:none;stroke:#00ffff;stroke-width:0.264999"
       d="m 89.090412,144.10307 c 1.377465,0.37064 2.731815,0.8249 4.118554,1.16074"
       id="path625" />
    <path
       style="fill:none;stroke:#00ffff;stroke-width:0.264999"
       d="m 96.726527,141.09789 c -1.481817,1.17478 -2.97362,6.53481 0.08838,7.028 2.782792,0.44821 6.714193,-0.726 5.126103,-1.54235"
       id="path627" />
    <path
       style="fill:none;stroke:#00ffff;stroke-width:0.264999"
       d="m 108.25143,135.91435 c 0.44475,2.62269 0.79879,5.24825 1.4848,7.82302 0.34028,1.27713 0.6236,1.90099 0.79543,1.84445 0.35315,-0.11623 0.49432,-1.648 0.51261,-1.76496"
       id="path629" />
    <path
       style="fill:none;stroke:#00ffff;stroke-width:0.264999"
       d="m 110.97356,135.02391 c 0.27185,1.54852 4.49899,8.27261 4.03018,9.39717 -0.0893,0.21419 -0.46567,-0.10296 -0.65402,-0.2385"
       id="path631" />
    <path
       style="fill:none;stroke:#00ffff;stroke-width:0.264999"
       d="m 104.78689,140.23926 c 2.32327,-1.18342 5.02596,-1.25997 7.56542,-1.62184 1.48523,-0.21165 1.99548,-0.24335 3.23474,-0.49292 0.0779,-0.0157 0.29974,-0.0259 0.22979,-0.0636 -0.33266,-0.17954 -0.7544,0.05 -1.13128,0.0795"
       id="path633" />
    <path
       style="fill:none;stroke:#00ffff;stroke-width:0.264999"
       d="m 107.13782,141.28869 c 2.56582,0.78675 5.17178,0.24811 7.75986,-0.0636 0.59123,-0.0712 3.42461,0.0764 2.36861,-0.63602"
       id="path635" />
    <path
       style="fill:none;stroke:#00ffff;stroke-width:0.264999"
       d="m 119.44047,134.97621 c -0.2239,-0.48761 -0.18409,-1.68674 -0.6717,-1.46284 -0.48762,0.2239 0.4478,0.97523 0.6717,1.46284 z"
       id="path637" />
    <path
       style="fill:none;stroke:#00ffff;stroke-width:0.264999"
       d="m 121.68535,143.51476 c -0.0589,0.59361 0.0637,1.23493 -0.17677,1.78084 -0.6514,1.47886 -2.28261,-3.8011 -1.21965,-3.18008 2.19821,1.28428 1.72732,4.76653 0.76008,3.87971 -0.62918,-0.57686 -0.15584,-2.7984 0.63634,-2.48047 0.25257,0.10137 0.0168,3.16087 0.10604,1.95575"
       id="path639" />
    <path
       style="fill:none;stroke:#00ffff;stroke-width:0.264999"
       d="m 133.74053,133.14767 c -1.43316,1.11666 -5.08506,4.8664 -4.27765,7.02799 1.47077,3.93754 8.87183,-0.52051 9.5805,0.0795 0.39323,0.33294 -1.72615,2.04661 -1.85599,2.14656 -2.94965,2.27063 -5.11063,1.05233 -7.0705,-1.87625 -0.33672,-0.50315 -0.79532,-1.00284 -0.84845,-1.60594 -0.29183,-3.31281 2.13214,-4.25009 4.47209,-5.77186 0.8235,-0.53557 3.38026,-1.37152 2.43931,-1.65366 -1.26017,-0.37786 -8.06087,6.65226 -7.24726,8.41134 1.30434,2.82007 5.96515,1.59634 8.18411,1.08123 2.24511,-0.52117 2.9593,-0.91195 2.89888,-0.96992 -0.34895,-0.33483 -0.96606,-0.0786 -1.44944,-0.0636"
       id="path641" />
    <path
       style="fill:none;stroke:#00ffff;stroke-width:0.264999"
       d="m 143.35638,143.38755 c 0.10606,-0.58832 0.1635,-1.18751 0.31818,-1.76495 0.0825,-0.30816 0.21905,-0.60445 0.38888,-0.87452 1.98781,-3.16114 1.90283,1.08639 2.42164,1.31974 0.29319,0.13186 -0.0636,-0.64212 -0.14142,-0.95403 -0.19505,-0.78157 -0.57159,-1.74527 -1.44944,-1.98755 -2.85514,-0.78801 -3.43033,4.34729 -1.53784,4.26131 0.88299,-0.0401 0.20553,-7.04903 2.33327,-4.03871 0.37205,0.52638 0.62542,1.12758 0.91917,1.70135 0.20784,0.40597 0.3104,0.68479 0.40655,1.06533"
       id="path643" />
    <path
       style="fill:none;stroke:#00ffff;stroke-width:0.264999"
       d="m 151.69956,133.68828 c -0.49873,0.20591 2.68508,9.75735 1.30804,6.59868"
       id="path645" />
    <path
       style="fill:none;stroke:#00ffff;stroke-width:0.264999"
       d="m 150.58596,137.55209 c 0.45646,-2.27491 7.94633,-1.98141 5.19681,-1.06533"
       id="path647" />
    <path
       style="fill:none;stroke:#00ffff;stroke-width:0.264999"
       d="m 160.30788,131.0806 c -0.0236,-0.48761 0.4169,-1.48641 -0.0707,-1.46284 -0.48762,0.0236 -0.0498,0.98977 0.0707,1.46284 0.27186,1.0671 0.78946,2.0588 1.09592,3.11649 0.59499,2.0535 0.7756,4.44804 1.83832,6.36018"
       id="path649" />
    <path
       style="fill:none;stroke:#00ffff;stroke-width:0.264999"
       d="m 42.442881,139.12624 c 5.29e-4,-3.21383 1.388623,-6.1855 1.855996,-9.31768 0.06046,-0.40515 0.07611,-0.81579 0.106056,-1.22433 0.0054,-0.074 0.0013,-0.29679 0,-0.2226 -0.06808,3.49122 1.144003,6.9333 2.686785,10.01729 0.315992,0.63166 0.837962,1.16854 1.042901,1.84445 0.01609,0.0531 -0.08469,-0.0719 -0.12373,-0.11131 -0.249751,-0.25217 -0.494938,-0.50881 -0.742408,-0.76322"
       id="path651" />
    <path
       style="fill:none;stroke:#00ffff;stroke-width:0.264999"
       d="m 42.76105,136.40725 c 1.308246,-0.6055 2.760451,-1.11302 4.22461,-1.11302"
       id="path653" />
    <path
       style="fill:none;stroke:#00ffff;stroke-width:0.264999"
       d="m 50.061322,132.43214 c -0.441904,0.52472 -1.018259,0.9609 -1.325713,1.57415 -2.070653,4.13019 4.279413,4.27101 4.171588,2.71897"
       id="path655" />
    <path
       style="fill:none;stroke:#00ffff;stroke-width:0.264999"
       d="m 53.737975,131.98693 c 0.568013,1.55544 0.712467,4.13412 2.121151,5.26305 0.271394,0.2175 0.695262,0.0212 1.042893,0.0318 -2.00252,-1.31155 3.804891,0.44693 2.863548,0.98583"
       id="path657" />
    <path
       style="fill:none;stroke:#00ffff;stroke-width:0.264999"
       d="m 62.399327,133.32256 c -1.798904,-2.24425 -0.604507,-3.32299 0,0 z"
       id="path659" />
    <path
       style="fill:none;stroke:#00ffff;stroke-width:0.264999"
       d="m 63.353835,137.79059 c 4.781564,0.43104 -0.957103,2.95853 -0.883811,2.17836 0.07329,-0.78017 0.589208,-1.45224 0.883811,-2.17836 z"
       id="path661" />
    <path
       style="fill:none;stroke:#00ffff;stroke-width:0.264999"
       d="m 68.250154,128.75914 c -0.01598,4.51289 0.940223,8.86618 2.421638,13.08607"
       id="path663" />
    <path
       style="fill:none;stroke:#00ffff;stroke-width:0.264999"
       d="m 97.592665,172.11968 c 1.557287,-2.59352 2.810795,-5.46018 3.464535,-8.42725 0.10239,-0.4647 0.18148,-0.93431 0.28282,-1.39923 0.0185,-0.0846 0.006,-0.32708 0.053,-0.2544 0.66921,1.03194 0.68352,3.84663 0.86613,4.81783 0.35619,1.89432 0.63137,2.91527 1.18431,4.67472 0.30081,0.95715 1.48114,3.56397 0.70705,2.92569"
       id="path665" />
    <path
       style="fill:none;stroke:#00ffff;stroke-width:0.264999"
       d="m 99.519376,170.40243 c 1.316674,-0.99383 2.498374,-1.658 4.047844,-2.01936"
       id="path667" />
    <path
       style="fill:none;stroke:#00ffff;stroke-width:0.264999"
       d="m 106.87268,166.2683 c -0.47726,0.83212 -1.07595,1.60553 -1.43178,2.49637 -1.44707,3.6228 5.51984,2.91537 5.49731,1.78086 -0.004,-0.22078 -0.28282,-0.33922 -0.42423,-0.50883"
       id="path669" />
    <path
       style="fill:none;stroke:#00ffff;stroke-width:0.264999"
       d="m 110.37257,165.7277 c 3.03405,-1.66704 -0.30191,4.59234 1.37874,5.32664 0.25956,0.1134 0.49494,-0.27561 0.7424,-0.41342"
       id="path671" />
    <path
       style="fill:none;stroke:#00ffff;stroke-width:0.264999"
       d="m 114.1376,167.90604 c -0.53617,0.69962 -1.11372,1.3694 -1.60853,2.09886 -1.19647,1.7639 1.72618,0.93808 2.42164,1.01764 0.43191,0.0494 2.82355,0.55802 1.4848,1.49464"
       id="path673" />
    <path
       style="fill:none;stroke:#00ffff;stroke-width:0.264999"
       d="m 120.12984,163.97865 c 0.1414,0.51941 0.27393,1.04132 0.42422,1.55824 0.6654,2.28857 0.77425,2.61583 1.53784,4.77013 0.42756,1.20628 0.32344,1.47101 0.45957,0.85862"
       id="path675" />
    <path
       style="fill:none;stroke:#00ffff;stroke-width:0.264999"
       d="m 122.30401,164.80545 c 0,-0.46111 0.46112,-1.38334 0,-1.38334 -1.72686,0 0.43636,1.47408 1.53784,3.59351 0.55778,1.07328 1.54742,4.17337 1.96206,5.42206 0.0459,0.13834 1.29754,2.55375 0.30048,1.20844"
       id="path677" />
    <path
       style="fill:none;stroke:#00ffff;stroke-width:0.264999"
       d="m 127.23568,168.89188 c 1.41692,-0.42482 -3.19918,-0.66294 -4.98469,-0.23852 -0.97973,0.23289 -1.67258,1.27025 -2.66912,1.41516 -0.0581,0.008 -5.69797,-1.62666 0,0 1.59128,3.8101 0.194,3.0815 4.34835,2.40096 1.4092,-0.23085 2.83868,-0.4153 4.24231,-0.66782"
       id="path679" />
    <path
       style="fill:none;stroke:#00ffff;stroke-width:0.264999"
       d="m 101.34713,87.107404 c 0.36812,-0.745434 2.87589,-5.938371 3.67665,-5.83547 1.23531,0.158745 0.87938,2.837072 3.41151,3.195992 2.10238,0.298006 4.8625,-2.872626 5.81547,-4.468029 0.8345,-1.397063 1.39202,-2.953541 1.92672,-4.483928 0.93573,-2.678234 -0.12074,0.225674 0.40655,-1.160735 0.0355,-0.09333 0.1258,-0.37878 0.0884,-0.28621 -0.53838,1.331743 -1.2734,4.317984 0.0884,5.437954 2.4585,2.021952 5.90826,-1.935387 7.19422,-3.688897 0.92777,-1.265095 1.19905,-2.29984 1.64389,-1.828551 1.07909,1.143251 1.70894,2.647087 2.70446,3.863808 0.83132,1.016037 1.81305,1.899089 2.72213,2.846184 0.30608,0.318883 1.26619,0.957368 0.83079,1.033523 -0.24363,0.04261 -0.48316,-0.106 -0.72473,-0.158999"
       id="path681" />
    <path
       style="fill:none;stroke:#00ffff;stroke-width:0.264999"
       d="m 123.67219,66.261903 c -4.54411,5.839589 5.13563,2.295691 3.83574,7.282415 -0.52896,2.029206 -4.3761,3.733652 -4.77258,1.764945 -0.10341,-0.513471 0.20033,-1.028226 0.3005,-1.542341"
       id="path683" />
    <path
       style="fill:none;stroke:#00ffff;stroke-width:0.264999"
       d="m 130.91943,74.212134 c 1.02835,2.117093 0.53115,-3.161805 1.34339,-2.718982 0.93038,0.507227 1.48007,2.624997 1.83834,3.545808 0.0624,0.160427 0.22895,0.60816 0.0884,0.508807 -1.20727,-0.853263 -0.98615,-3.186782 -2.43931,-3.959212 -1.35414,-0.719796 -2.31616,1.868014 -0.83079,2.623579 0.73312,0.372917 1.59905,-0.725723 2.40398,-0.556514 0.3043,0.06397 1.3096,1.932604 1.76762,2.257864"
       id="path685" />
    <path
       style="fill:none;stroke:#00ffff;stroke-width:0.264999"
       d="m 135.63438,168.18779 c 0.2134,1.10361 -0.52147,3.37747 0,0 z"
       id="path687" />
    <path
       style="fill:none;stroke:#00ffff;stroke-width:0.264999"
       d="m 137.31363,177.20334 c 1.36505,1.50664 -0.48843,2.83661 -0.49494,1.98756 -0.005,-0.68273 0.32996,-1.32504 0.49494,-1.98756 z"
       id="path689" />
    <path
       style="fill:none;stroke:#00ffff;stroke-width:0.264999"
       d="m 146.22245,168.07649 c -0.37406,1.9551 -2.26071,3.08792 -2.95193,4.84963 -0.96045,2.44788 6.22845,0.27034 7.47702,3.2596 0.18795,0.44997 0.16594,0.99826 0.0177,1.46284 -1.83797,5.76004 -11.07331,4.95433 -5.72709,-0.69962"
       id="path691" />
    <path
       style="fill:none;stroke:#00ffff;stroke-width:0.264999"
       d="m 152.97476,180.46294 c 1.26369,-6.77241 4.13203,0.0517 3.62362,0.65192 -0.1331,0.15714 -0.40066,-0.0954 -0.60099,-0.1431"
       id="path693" />
    <path
       style="fill:none;stroke:#00ffff;stroke-width:0.264999"
       d="m 162.69668,173.84835 c 1.83856,-0.30052 2.92189,7.39371 1.74993,7.39371 -0.3868,0 -0.69526,-0.33921 -1.04289,-0.50882"
       id="path695" />
    <path
       style="fill:none;stroke:#00ffff;stroke-width:0.264999"
       d="m 161.61842,178.18918 c 1.49058,-2.30276 3.52716,-2.57588 5.99223,-2.57588"
       id="path697" />
    <path
       style="fill:none;stroke:#00ffff;stroke-width:0.264999"
       d="m 169.34293,170.68416 c 0.16498,-0.64132 1.13626,-1.75898 0.49494,-1.92396 -0.64132,-0.16498 -0.55908,1.26487 -0.49494,1.92396 0.0955,0.98096 0.72877,1.83908 0.95452,2.79848 0.63379,2.69353 0.43596,5.35986 2.26254,7.50502"
       id="path699" />
  </g>
</svg>
