<?xml version="1.0" encoding="UTF-8" standalone="no"?>
<!-- Created with Inkscape (http://www.inkscape.org/) -->

<svg
   width="4631.355mm"
   height="7231.2104mm"
   viewBox="0 0 4631.3549 7231.2106"
   version="1.1"
   id="svg12"
   inkscape:version="1.2.1 (9c6d41e410, 2022-07-14, custom)"
   sodipodi:docname="tcp_send_recv_window.svg"
   xml:space="preserve"
   xmlns:inkscape="http://www.inkscape.org/namespaces/inkscape"
   xmlns:sodipodi="http://sodipodi.sourceforge.net/DTD/sodipodi-0.dtd"
   xmlns="http://www.w3.org/2000/svg"
   xmlns:svg="http://www.w3.org/2000/svg"><sodipodi:namedview
     id="namedview14"
     pagecolor="#505050"
     bordercolor="#eeeeee"
     borderopacity="1"
     inkscape:showpageshadow="0"
     inkscape:pageopacity="0"
     inkscape:pagecheckerboard="0"
     inkscape:deskcolor="#505050"
     inkscape:document-units="mm"
     showgrid="true"
     inkscape:zoom="0.034886493"
     inkscape:cx="7108.7685"
     inkscape:cy="21182.984"
     inkscape:window-width="1366"
     inkscape:window-height="746"
     inkscape:window-x="0"
     inkscape:window-y="0"
     inkscape:window-maximized="1"
     inkscape:current-layer="layer1"
     inkscape:lockguides="false"><inkscape:grid
       type="xygrid"
       id="grid344"
       color="#969696"
       opacity="0.39215686"
       empcolor="#000000"
       empopacity="0.17254902"
       dotted="false"
       originx="1182.8681"
       originy="-10232.683" /></sodipodi:namedview><defs
     id="defs9" /><g
     inkscape:label="Layer 1"
     inkscape:groupmode="layer"
     id="layer1"
     transform="translate(1077.8681,-10381.183)"><path
       style="fill:none;stroke:#ffffff;stroke-width:5.5"
       d="m 245.92851,10401.167 c 36.36843,129.385 25.62251,275.51 28.74589,408.683 1.74876,74.564 12.63732,145.162 17.5279,218.847 0.10226,1.541 -0.98716,-2.927 -1.40221,-4.415 -4.25937,-15.262 -8.41346,-30.553 -12.6202,-45.829"
       id="path430" /><path
       style="fill:none;stroke:#ffffff;stroke-width:5.5"
       d="m 271.63613,10438.167 c 6.23218,-1.402 12.33477,-3.629 18.6966,-4.205 36.56303,-3.311 75.63437,4.586 112.41259,2.523 12.50881,-0.702 99.1861,-10.777 115.21721,-12.614 82.02525,-9.397 163.4823,-21.671 245.15772,-33.636 28.49642,-4.175 35.25031,-5.477 59.12782,-6.097 2.34571,-0.06 8.95651,-0.681 7.01127,0.631 -4.18076,2.82 -17.96095,2.965 -19.86516,8.199 -3.70916,10.194 4.8853,25.599 6.7776,35.108 3.29218,16.543 4.20655,35.193 4.20655,51.716 0,59.231 -8.21541,118.477 -10.51679,177.643 -3.43244,88.244 -5.73058,177.765 0.70134,265.938 7.81592,107.147 27.05893,212.611 38.32764,319.336 11.13928,105.499 12.16226,211.273 19.16383,317.024 1.79239,27.072 3.5111,54.162 6.31023,81.148 0.0706,0.681 20.20136,116.894 16.12569,149.892"
       id="path432" /><path
       style="fill:none;stroke:#ffffff;stroke-width:5.5"
       d="m 313.46956,10984.339 c -3.50559,10.652 -9.05489,20.837 -10.51679,31.955 -2.48071,18.866 4.23595,37.822 6.07642,56.761 4.25318,43.768 7.15801,87.893 9.58191,131.813 1.71445,31.065 0.86771,62.069 2.3371,93.131 3.5084,74.165 11.78829,148.012 15.42465,222.211 3.69922,75.483 1.91492,150.467 0.46736,225.995 -1.04257,54.397 -2.67147,107.821 -8.88087,161.876 -2.19589,19.116 -4.95552,38.118 -7.4785,57.182 -0.71681,5.416 -6.92569,19.487 -2.57078,16.187 59.56483,-45.124 143.59501,-55.662 214.07488,-73.789 122.69139,-31.558 242.37754,-59.795 369.2558,-65.802"
       id="path434" /><path
       style="fill:none;stroke:#ffffff;stroke-width:5.5"
       d="m 365.81976,11391.34 c 10.82841,1.192 21.59322,3.77 32.48519,3.574 22.37682,-0.401 43.80627,-9.285 65.90514,-12.823 16.4305,-2.631 32.99167,-4.41 49.54575,-6.097 82.55047,-8.413 165.00242,-15.44 247.02759,-28.591 21.84897,-3.503 43.18598,-9.156 64.97013,-12.614"
       id="path436" /><path
       style="fill:none;stroke:#ffffff;stroke-width:5.5"
       d="m 295.47427,10801.441 c 147.902,23.49 296.83011,-40.644 444.97664,-8.62"
       id="path438" /><path
       style="fill:none;stroke:#ffffff;stroke-width:5.5"
       d="m 956.39541,10814.265 c 11.06213,-3.995 21.91621,-8.62 33.18637,-11.983 57.14362,-17.051 71.19382,31.805 53.98602,76.523 -5.8961,15.321 -39.8373,65.612 -34.1211,82.409 7.0849,20.819 86.0566,-10.369 82.9658,-1.471 -5.6506,16.265 -80.5891,115.664 -63.1007,136.858 22.5742,27.357 162.6423,19.026 168.7358,39.733 20.0022,67.972 -152.8818,191.239 -183.6931,113.313 -2.9864,-7.553 -2.0254,-16.118 -3.0381,-24.176"
       id="path440" /><path
       style="fill:none;stroke:#ffffff;stroke-width:5.5"
       d="m 1302.2807,11005.782 c 49.3019,63.023 29.4519,-36.936 14.4896,-56.551 -28.8151,-37.776 -48.2873,21.115 -54.2196,-1.051 -5.1316,-19.189 -3.8048,-17.685 -5.1416,-39.733 28.4405,-26.29 62.1805,-38.051 100.2599,-38.051"
       id="path442" /><path
       style="fill:none;stroke:#ffffff;stroke-width:5.5"
       d="m 1551.1779,10860.725 c -4.3626,6.867 -13.3387,12.47 -13.0876,20.603 0.1752,5.675 9.0068,7.009 14.0223,9.67 23.7486,12.602 58.7797,17.184 73.3838,42.676 4.7588,8.307 4.6395,29.554 -7.0113,34.267 -21.7837,8.812 -54.8204,-21.772 -35.7569,-41.835 7.9075,-8.322 93.3619,-39.035 71.0467,-57.603 -16.2794,-13.545 -51.0471,62.102 -0.7013,71.688 37.666,7.172 72.9649,-72.47 42.5347,-75.892 -15.1052,-1.698 -30.5792,26.502 -17.9954,37.21 3.4586,2.943 8.6955,4.939 13.0875,3.784 21.6921,-5.7 29.2603,-10.155 34.5885,-28.17 1.702,-5.755 -2.0587,-21.686 -5.8426,-17.029 -10.1024,12.436 66.3597,110.585 46.04,105.535 -6.3881,-1.588 -10.3511,-8.366 -14.256,-13.665 -32.6968,-44.372 -22.5012,-91.635 29.9143,-111.841 4.2827,-1.651 -2.2418,9.005 -4.4402,13.034 -1.6291,2.986 -24.6847,34.243 -18.9304,43.097 11.0256,16.964 63.2437,9.122 78.759,32.585 2.6784,4.051 4.6431,9.801 2.8044,14.295 -14.4737,35.38 -29.5724,51.686 -63.1006,39.313"
       id="path444" /><path
       style="fill:none;stroke:#ffffff;stroke-width:5.5"
       d="m 1061.7969,11341.096 c 8.1018,-4.064 15.8435,-8.944 24.3054,-12.193 82.0853,-31.517 2.4211,110.945 44.4042,116.256 20.2021,2.555 40.9202,-2.813 59.1277,-11.352 16.4695,-7.725 18.5031,-13.172 17.5281,-13.665 -11.1381,-5.636 -87.1496,71.734 -70.3456,92.71 25.1768,31.429 159.7965,-9.592 148.8709,82.41 -8.6996,73.257 -130.2728,186.123 -164.7629,60.545"
       id="path446" /><path
       style="fill:none;stroke:#ffffff;stroke-width:5.5"
       d="m 1373.3274,11481.528 c 46.4679,45.67 45.5094,9.68 19.1638,-37 -27.1378,-48.083 -34.4965,22.763 -42.0671,-5.256 -1.9222,-7.113 -2.7865,-14.543 -5.3752,-21.443 -5.7708,-15.379 -13.0875,-30.132 -19.6313,-45.199 13.9102,-33.6 42.3346,-51.136 78.0577,-53.608"
       id="path448" /><path
       style="fill:none;stroke:#ffffff;stroke-width:5.5"
       d="m 1603.9954,11340.465 c -11.2838,17.045 -19.6325,18.153 -4.2068,36.58 20.959,25.038 56.5669,29.174 81.5635,48.773 7.7057,6.042 -6.4082,18.202 -7.946,19.341 -33.229,24.6 -77.95,-14.316 -48.3771,-46.46"
       id="path450" /><path
       style="fill:none;stroke:#ffffff;stroke-width:5.5"
       d="m 1691.1678,11381.46 c 25.3463,0.57 23.4456,2.579 43.7032,-2.523 4.844,-1.22 27.8955,-5.515 28.2782,-14.295 1.9304,-44.285 -68.399,-49.04 -71.9814,16.818 -0.5968,10.971 1.3089,23.782 8.8807,31.744 23.3874,24.594 67.5946,28.787 90.9119,1.892 4.6933,-5.413 5.2973,-13.314 7.946,-19.971"
       id="path452" /><path
       style="fill:none;stroke:#ffffff;stroke-width:5.5"
       d="m 1792.3627,11358.335 c -7.553,18.54 7.6508,50.209 32.2514,37.21 18.0664,-9.546 26.6252,-52.148 1.4021,-55.29 -14.0529,-1.75 -7.3041,18.398 -4.2066,22.915 13.6167,19.856 94.3326,83.872 61.231,108.268 -26.7011,19.677 -49.2176,-36.51 -54.6873,-52.768"
       id="path454" /><path
       style="fill:none;stroke:#ffffff;stroke-width:5.5"
       d="m 1884.443,11316.079 c -4.9052,10.125 -35.1862,41.3 -19.6315,56.341 16.6099,16.062 92.4091,6.265 85.7703,44.568 -7.2877,42.047 -90.9818,87.182 -78.5253,29.432"
       id="path456" /><path
       style="fill:none;stroke:#ffffff;stroke-width:5.5"
       d="m 501.13566,12054.189 c 14.33399,16.118 29.01416,31.934 43.00196,48.353 10.81897,12.699 28.02184,32.899 23.83803,51.716 -5.85755,26.345 -31.08203,-9.018 -33.88743,-14.506 -25.28194,-49.458 13.72568,-120.113 64.73671,-76.313"
       id="path458" /><path
       style="fill:none;stroke:#ffffff;stroke-width:5.5"
       d="m 642.99532,12040.945 c -7.08909,10.722 -16.28778,20.315 -21.26723,32.165 -3.79003,9.019 -6.07471,19.366 -4.44037,29.011 9.55405,56.387 80.15067,18.48 78.29163,-0.63 -0.41516,-4.268 -5.33101,-10.742 -7.94602,-14.506"
       id="path460" /><path
       style="fill:none;stroke:#ffffff;stroke-width:5.5"
       d="m 671.04002,12019.712 c 26.23134,23.095 45.1381,52.702 68.00855,78.835 4.66172,5.327 15.57118,21.157 15.89201,14.086 1.37607,-30.33 -11.25082,-66.048 -17.99542,-95.023 -3.10687,-13.348 -6.05592,-23.131 -6.07629,-23.125 -3.47388,1.04 1.54442,7.111 2.80445,10.511"
       id="path462" /><path
       style="fill:none;stroke:#ffffff;stroke-width:5.5"
       d="m 754.00583,11967.365 c 39.61236,0.362 72.2811,47.875 86.47134,81.569 7.96576,18.913 7.4971,31.135 2.33709,30.483 -27.8769,-3.527 -29.32414,-74.806 -16.12569,-93.131 7.97242,-11.069 28.9011,-13.734 32.01768,1.681"
       id="path464" /><path
       style="fill:none;stroke:#ffffff;stroke-width:5.5"
       d="m 1354.8646,12087.405 c -11.0977,11.409 -27.5151,64.718 -50.4805,71.268 -6.5549,1.869 16.8042,-70.981 18.4628,-77.154 2.5958,-9.661 4.6739,-17.969 4.6739,-27.75 0,-3.131 -0.8578,-12.283 -1.6358,-9.25 -11.9621,46.633 19.1141,14.044 28.9796,42.886 4.5721,13.367 -8.6476,27.833 -6.7776,41.836 1.6761,12.551 13.8321,31.451 25.9414,27.75 5.8119,-1.777 9.0366,-8.129 13.5549,-12.193"
       id="path466" /><path
       style="fill:none;stroke:#ffffff;stroke-width:5.5"
       d="m 1397.399,12064.49 c -2.8823,8.129 -8.5965,15.762 -8.647,24.387 -0.034,5.895 4.238,11.395 8.4134,15.557 35.0565,34.944 89.9674,-31.852 57.9591,-54.449 -3.3271,-2.349 -8.3959,-2.834 -12.1528,-1.262 -46.1009,19.295 -52.6329,103.547 -15.6584,34.057"
       id="path468" /><path
       style="fill:none;stroke:#ffffff;stroke-width:5.5"
       d="m 1422.1721,11993.854 c 1.5579,15.977 1.182,32.263 4.6739,47.932 2.3881,10.716 27.6006,72.02 31.784,81.989 37.5853,89.561 20.8152,46.347 20.3325,43.307"
       id="path470" /><path
       style="fill:none;stroke:#ffffff;stroke-width:5.5"
       d="m 1527.8072,12009.621 c -4.6954,20.209 -24.4256,57.783 -10.2831,83.04 29.8992,53.396 55.1984,-67.582 37.1593,-47.512 -10.2145,11.365 -6.0116,28.081 12.1528,19.341"
       id="path472" /><path
       style="fill:none;stroke:#ffffff;stroke-width:5.5"
       d="m 1582.4945,12006.888 c -3.7394,6.517 -9.1705,12.322 -11.2181,19.551 -1.2339,4.357 0.1657,9.26 1.8697,13.455 14.1688,34.881 45.9972,-29.371 34.3548,-34.898 -7.5514,-3.585 -24.6951,-6.461 -25.0064,1.892 -0.5316,14.267 16.3026,23.471 23.6044,35.739 15.1527,25.459 28.7573,53 39.73,80.517"
       id="path474" /><path
       style="fill:none;stroke:#ffffff;stroke-width:5.5"
       d="m 1205.7599,12018.03 c 5.9206,11.913 13.3334,23.195 17.7618,35.739 19.2983,68.826 15.4585,61.402 37.6266,120.671 5.0428,13.482 10.3867,26.853 15.892,40.153 2.6765,6.466 7.5257,26.039 8.6473,19.131 5.2953,-32.611 -30.5282,-135.962 -43.9368,-163.137 -9.3953,-19.041 -35.8776,-31.324 -35.9909,-52.557 -0.089,-16.648 20.9842,-26.998 35.5235,-35.108 5.3048,-2.959 84.776,-19.253 92.5476,-21.023 73.2934,-16.691 147.2131,-34.373 216.1782,-64.96 11.295,-5.01 45.8205,-23.889 46.975,-23.125 2.1501,1.422 36.9201,107.163 47.9097,133.284 13.5204,32.137 28.1267,63.807 41.8334,95.864 3.5227,8.239 30.2509,66.946 28.9796,72.95 -2.1461,10.133 -20.0998,5.098 -29.9143,8.409 -12.8057,4.319 -24.9151,10.624 -37.8603,14.505 -88.441,26.519 -222.0925,73.413 -306.1553,5.466"
       id="path476" /><path
       style="fill:none;stroke:#ffffff;stroke-width:5.5"
       d="m -1066.0983,11052.453 c -0.8569,12.754 -1.1389,25.559 -2.5708,38.262 -1.6802,14.905 -11.8811,36.982 -2.5707,51.716 14.4082,22.801 56.8155,1.813 64.5029,36.159 1.257,5.616 0.2967,11.617 -0.9348,17.238 -5.2749,24.076 -18.5861,4.365 -25.9415,-5.045"
       id="path478" /><path
       style="fill:none;stroke:#ffffff;stroke-width:5.5"
       d="m -1034.7816,11093.027 c 28.5379,0.708 38.20498,28.558 57.95909,43.097 3.7913,2.79 -3.67665,-46.475 4.6741,-42.677 6.37665,2.901 29.26321,31.566 36.92565,29.432 10.44639,-2.908 -17.69475,-66.015 -21.73475,-75.682 -0.90424,-2.164 -3.02086,-8.375 -1.16848,-6.937 6.72563,5.221 96.14275,84.62 70.11183,100.909 -3.78709,2.37 -9.62007,3.974 -13.32124,1.472 -30.85486,-20.857 -37.11067,-45.866 -27.81102,-79.676 5.24722,-19.077 16.06323,-39.89 18.93023,-37.842 4.67031,3.337 42.2249,59.825 50.9479,70.006 3.2204,3.759 6.55444,7.419 9.81567,11.142 0.78975,0.902 2.86491,3.809 2.33709,2.733 -5.22359,-10.65 -51.23857,-91.661 -9.11455,-61.807"
       id="path480" /><path
       style="fill:none;stroke:#ffffff;stroke-width:5.5"
       d="m -1038.0535,11317.551 c 85.38703,-24.984 175.10115,-26.942 260.81609,-51.506 4.3587,-1.249 46.29195,-10.819 52.81764,-20.603 16.261,-24.379 -98.65178,0.717 -55.38841,-31.954 19.19637,-14.497 73.52075,-3.416 72.21522,26.278 -1.68437,38.311 -29.93004,71.955 -56.55689,96.705"
       id="path482" /><path
       style="fill:none;stroke:#ffffff;stroke-width:5.5"
       d="m -842.67511,11451.255 c 97.98476,-16.573 198.33362,-20.41 297.74168,-23.335 69.12084,-2.034 -18.60513,1.619 -33.65367,-19.341 -11.68908,-16.281 48.55373,-22.768 57.49176,-19.971 43.81013,13.707 -52.59679,135.599 -75.01975,140.642"
       id="path484" /><path
       style="fill:none;stroke:#ffffff;stroke-width:5.5"
       d="m 603.03162,10859.464 c 4.69207,15.071 6.94793,30.664 10.28309,46.04 0.377,1.738 10.11478,27.176 3.03815,23.125"
       id="path486" /><path
       style="fill:none;stroke:#ffffff;stroke-width:5.5"
       d="m 604.20015,10983.709 c -0.8569,-6.448 3.87626,-20.198 -2.57077,-19.341 -6.44699,0.857 1.25757,12.971 2.57077,19.341 2.66476,12.925 7.57836,25.393 9.34824,38.471 0.56774,4.195 -1.28638,15.048 -4.20667,11.983 -12.80691,-13.44 32.72393,-24.158 38.0941,-23.756"
       id="path488" /><path
       style="fill:none;stroke:#ffffff;stroke-width:5.5"
       d="m 604.20015,11072.635 c 6.31005,-0.771 15.07715,-7.369 18.93017,-2.313 5.73704,7.529 1.60129,18.939 0.93486,28.381 -0.36396,5.157 -5.05728,17.89 -7.71232,13.455 -2.27449,-3.8 -1.26926,-8.802 -2.57079,-13.034 -9.48627,-30.852 -31.24031,-63.958 34.35479,14.716 16.25383,19.494 -20.01385,19.353 -35.99069,3.784"
       id="path490" /><path
       style="fill:none;stroke:#ffffff;stroke-width:5.5"
       d="m 671.2737,11196.669 c -4.90776,6.237 -9.40192,12.823 -14.72333,18.711 -38.3178,42.396 -18.44966,-43.733 -16.12582,-44.569 3.71475,-1.336 7.25567,7.158 7.47863,7.358 7.38672,6.645 19.59724,9.309 23.37052,18.5 4.23658,10.32 -1.09051,22.285 -1.63576,33.427"
       id="path492" /><path
       style="fill:none;stroke:#ffffff;stroke-width:5.5"
       d="m 704.22641,11329.744 c 42.37517,31.489 18.37084,-15.454 -0.70106,-21.233 -16.78843,-5.087 -5.77808,36.764 -16.35964,1.681 -1.52485,-5.055 -3.58336,-9.969 -4.67392,-15.136 -1.25497,-5.946 -1.55805,-12.053 -2.33709,-18.08 18.16214,-8.81 38.89116,-11.573 56.08941,-22.284"
       id="path494" /><path
       style="fill:none;stroke:#ffffff;stroke-width:5.5"
       d="m 297.34387,11297.158 c -29.16174,-3.142 -57.35484,5.243 -86.23765,7.148 -35.91926,2.37 -71.98294,1.813 -107.73855,6.517 -73.084575,9.615 -144.133083,30.083 -217.11303,40.154 -21.4272,2.957 -42.9908,0.156 -64.03554,2.522 -11.30598,1.272 -77.3962,34.04 -85.77014,30.273 -0.85486,-0.384 7.6591,-11.017 14.02229,-18.71 16.31789,-19.728 33.37959,-38.798 49.54575,-58.654 9.58217,-11.769 12.54493,-15.68 10.75046,-16.397 -23.27673,-9.306 -80.93869,68.502 -81.32977,93.131 -0.57771,36.38 82.7418,55.079 109.84197,55.079"
       id="path496" /><path
       style="fill:none;stroke:#ffffff;stroke-width:5.5"
       d="m -205.8256,11591.478 c 0.48591,0.238 7.79667,4.271 9.34823,3.573 3.32818,-1.497 -3.81601,-8.355 -12.15282,-24.386 -8.05617,-15.492 -16.00068,-31.051 -23.37051,-46.881 -5.1301,-11.019 -11.26763,-36.66 -18.2291,-47.932 -0.3772,-0.611 -0.34827,1.394 -0.4675,2.102 -0.87099,5.171 -1.79469,10.341 -2.33696,15.557 -0.41873,4.028 -3.00957,41.064 -3.03827,42.256 -0.35446,14.712 0,29.432 0,44.148 9.65985,-11.282 19.31971,-22.564 28.97956,-33.847"
       id="path498" /><path
       style="fill:none;stroke:#ffffff;stroke-width:5.5"
       d="m -201.61891,11514.744 c -17.38152,74.428 54.0304,50.654 47.90971,23.125 -0.37225,-1.674 -5.72089,-11.133 -7.24483,-13.875"
       id="path500" /><path
       style="fill:none;stroke:#ffffff;stroke-width:5.5"
       d="m -168.19898,11490.778 c 23.65758,19.492 33.07495,112.791 30.1481,39.734 -17.77274,-19.891 47.92538,40.297 44.871574,25.647"
       id="path502" /><path
       style="fill:none;stroke:#ffffff;stroke-width:5.5"
       d="m -86.869212,11488.466 c -18.478148,-25.128 -16.432738,-37.776 0,0 z"
       id="path504" /><path
       style="fill:none;stroke:#ffffff;stroke-width:5.5"
       d="m -48.541417,11560.364 c 1.480166,6.517 2.968453,13.032 4.440499,19.551 6.744145,29.866 -22.719183,-26.527 -4.440499,-19.551 2.866784,1.094 27.232805,48.714 5.37523,27.96 -2.040207,-1.937 -5.077777,-3.544 -5.608913,-6.307 -1.362715,-7.088 0.15579,-14.435 0.233683,-21.653 z"
       id="path506" /><path
       style="fill:none;stroke:#ffffff;stroke-width:5.5"
       d="m 318.14374,11290.851 c 6.38795,-2.943 12.48357,-6.628 19.16383,-8.829 3.01749,-0.994 27.70547,-3.687 29.91442,-3.994 31.28788,-4.348 63.22373,-9.572 94.18365,-15.978 49.69399,-10.281 98.51242,-25.508 148.40344,-34.687 12.72114,-2.341 26.20643,0.646 39.02898,1.261 29.94483,1.437 58.66437,-1.843 87.17235,-10.512 16.79951,-5.108 33.57742,-6.786 50.24681,-13.033 5.74651,-2.154 28.07089,-17.758 32.71901,-18.08 1.6678,-0.116 3.34584,2.604 4.90786,3.153 3.25419,1.146 17.67231,-2.34 19.16385,1.262 3.57815,8.639 2.20411,20.166 3.27181,29.221 4.72602,40.084 11.45749,84.724 0,124.666 -0.11139,0.388 -21.99169,-4.143 -25.47406,-3.154 -27.89634,7.924 -55.26071,9.938 -84.13421,12.824 -27.11199,2.71 -53.09447,9.293 -79.92743,13.455 -51.35522,7.964 -102.7857,15.888 -154.24618,22.914 -29.52263,4.031 -60.21988,4.207 -89.97682,6.938 -20.66671,1.897 -40.52009,7.231 -60.99739,10.301 -16.01795,2.401 -31.9355,1.204 -47.90972,4.625 -16.11854,3.453 12.23645,-11.809 18.22911,-34.477 1.82538,-6.905 8.71715,-42.302 8.1797,-46.881 -1.65905,-14.134 -15.15383,-27.136 -11.91901,-40.995 3.76293,-16.12 21.86181,-25.052 30.61547,-39.102 2.68737,-4.313 10.86255,-53.157 7.24495,-16.818"
       id="path508" /><path
       style="fill:none;stroke:#ffffff;stroke-width:5.5"
       d="m 104.53621,11452.517 c -8.101792,4.625 -18.387207,6.663 -24.305378,13.875 -18.628746,22.7 -10.58844,60.873 13.554916,75.472 19.317212,11.681 67.640642,-9.121 69.410772,-33.006 0.21019,-2.836 -1.13636,-6.205 -3.50564,-7.778 -26.94531,-17.891 -89.457768,39.001 -57.25808,17.028"
       id="path510" /><path
       style="fill:none;stroke:#ffffff;stroke-width:5.5"
       d="m 313.00218,11271.51 c 15.69563,58.493 1.03423,1.475 15.42465,65.592 3.52644,15.712 7.83092,34.957 14.02228,50.454 1.1303,2.83 1.47278,8.678 4.4405,7.989 11.21265,-2.603 -10.54589,-87.862 -17.06054,-99.648 -4.77766,-8.644 -23.17769,-16.823 -16.82689,-24.387 7.23177,-8.612 22.18727,4.075 33.41994,4.626 28.41101,1.391 93.51748,-15.549 122.22834,-24.387 35.73984,-11.001 71.38059,-26.19 108.67343,-31.534 45.20602,-6.478 90.80407,-8.807 136.01694,-14.716 2.53664,-0.332 20.63792,-1.822 26.40904,-3.784 12.59488,-4.283 23.50178,-12.368 35.75688,-17.449 0.77536,-0.322 59.98297,-26.218 60.99728,-25.648 6.39405,3.595 9.88872,32.497 11.21809,40.364 7.08835,41.949 6.47319,73.001 5.14154,113.733 -0.31046,9.497 2.04986,18.851 0.93472,28.381 -0.71546,6.115 -20.44125,-5.673 -23.37064,-6.517 -11.20286,-3.23 -22.86286,-1.948 -34.12112,0.21 -70.46785,13.509 -136.16535,42.901 -207.29741,54.029 -21.6444,3.386 -64.79141,17.265 -86.70502,13.875 -19.52627,-3.021 -35.41416,-16.378 -55.62203,-15.557 -17.52139,0.712 -39.09322,3.172 -56.08952,8.619 -9.71431,3.114 -17.87678,9.727 -27.34366,12.824 -8.7857,2.874 -52.97818,18.423 -60.06253,5.676 -1.07175,-1.928 8.39833,-5.368 15.42465,-15.136 14.47692,-20.126 20.50968,-34.079 26.64246,-58.654 14.56994,-58.382 -11.74792,-62.987 -14.02228,-105.955"
       id="path512" /><path
       style="fill:none;stroke:#ffffff;stroke-width:5.5"
       d="m 86.774475,11503.812 c -12.419229,-22.343 -16.527272,-16.199 -5.608912,-35.318 3.186858,-5.58 13.85752,-21.419 19.631327,-27.119 7.59057,-7.495 23.74467,-13.098 29.44706,-22.074 0.37784,-0.595 -1.4537,-0.483 -2.10341,-0.21 -6.5332,2.742 -15.83608,11.377 -19.16396,14.505 -14.326721,13.467 -32.634274,51.448 -22.202105,70.216 6.986503,12.57 19.801885,23.802 33.887425,26.7 14.30302,2.942 40.50776,-52.265 32.25152,-48.773 -64.501835,27.282 -3.23522,19.613 -66.138945,22.073 z"
       id="path514" /><path
       style="fill:none;stroke:#ffffff;stroke-width:5.5"
       d="m -278.97569,11707.944 c 33.44983,14.755 57.03087,54.021 62.63332,90.188 0.46016,2.971 2.14223,31.848 -11.45165,24.597 -43.76194,-23.345 -19.87534,-87.938 7.24483,-111.422 7.91533,-6.853 20.91045,-16.489 21.96842,-1.261 10.12726,10.582 21.47286,20.119 30.38179,31.745 3.19823,4.173 -0.11131,12.504 4.4405,15.136 2.94043,1.701 4.98053,-34.123 6.30996,-33.847 3.72354,0.773 17.35182,41.356 18.69659,41.205 3.30927,-0.372 11.03549,-49.383 8.17969,-62.227"
       id="path516" /><path
       style="fill:none;stroke:#ffffff;stroke-width:5.5"
       d="m -124.26214,11673.466 c 8.10179,9.531 18.19032,17.679 24.305377,28.591 3.769939,6.728 2.899667,15.149 4.440499,22.705 10.022658,49.15 3.549804,-37.303 15.89201,-46.671 12.278392,-9.319 22.777064,88.001 17.060553,35.108 -5.64148,-113.486 64.1883364,22.931 36.458069,43.308 -15.985697,11.747 -20.068743,-15.907 -23.136833,-22.284 -3.596519,-7.477 -8.880824,-14.016 -13.321236,-21.024 29.479332,-3.944 20.941091,-9.834 31.082838,-1.471"
       id="path518" /><path
       style="fill:none;stroke:#ffffff;stroke-width:5.5"
       d="m 27.646805,11680.404 c -9.063643,-34.171 -2.334286,-19.319 0,0 z"
       id="path520" /><path
       style="fill:none;stroke:#ffffff;stroke-width:5.5"
       d="m 41.669222,11739.478 c -2.02547,5.956 -12.032843,15.844 -6.07641,17.869 5.956429,2.026 2.599481,-23.112 6.07641,-17.869 5.889093,8.881 9.375486,34.647 -0.934863,31.955 -10.310349,-2.693 -9.637755,-33.286 0.934863,-31.955 5.992921,0.755 6.137518,72.875 0,0 z"
       id="path522" /><path
       style="fill:none;stroke:#ffffff;stroke-width:5.5"
       d="m 128.37422,11724.762 c 4.51835,7.919 7.85344,16.642 13.55506,23.756 17.87064,22.298 33.05781,-49.777 -3.03828,-66.012 -39.839065,-17.918 -8.70477,75.21 -16.82687,23.336 -0.88583,-5.658 -2.18677,-11.246 -3.5055,-16.819 -2.03182,-8.586 -3.50277,-17.365 -6.54378,-25.647 -2.60229,-7.088 -6.8554,-13.455 -10.2831,-20.182 23.48996,-5.04 50.04552,-22.636 76.18823,-23.756"
       id="path524" /><path
       style="fill:none;stroke:#ffffff;stroke-width:5.5"
       d="m -613.32033,12593.056 c 28.35118,3.234 41.44488,107.777 58.89392,112.262 8.59692,2.21 6.50396,-46.479 6.77754,-50.244 0.24106,-3.318 -1.39645,-11.679 1.40221,-9.881 16.09204,10.339 36.2349,82.578 52.11646,19.551 2.1059,-8.357 2.77775,-17.043 3.27189,-25.648 1.20041,-20.902 0.39923,-36.005 -5.6089,-55.079 -0.68961,-2.19 1.65949,-23.348 3.97301,-20.603 12.62337,14.976 17.26509,30.118 23.13688,48.563 4.91795,15.448 6.61083,30.942 8.88088,30.693 7.22563,-0.793 11.77496,-55.709 17.5279,-52.977 8.59076,4.078 18.28165,45.367 20.56614,44.568 4.7022,-1.645 13.27452,-17.161 16.59319,-20.602 2.86946,-2.976 6.02736,-5.66 9.11455,-8.409 3.94258,-3.511 27.77887,-19.219 28.74587,-26.7 1.5214,-11.769 -66.31874,48.509 -28.27851,62.859 59.04685,22.274 24.95992,-101.378 41.83343,-50.875 2.70925,8.108 5.3477,16.241 7.94602,24.386 2.54333,7.973 4.66524,16.084 7.47863,23.966 5.78152,16.197 0.84021,-49.558 17.99542,-48.352 12.7394,0.895 30.4781,33.98 29.44691,46.039"
       id="path526" /><path
       style="fill:none;stroke:#ffffff;stroke-width:5.5"
       d="m -84.443129,12554.585 c 3.368358,41.226 11.250729,81.947 19.865009,122.352 1.223593,5.739 7.387209,20.438 2.337094,17.449 -3.275272,-1.938 -5.297336,-5.466 -7.946006,-8.199"
       id="path528" /><path
       style="fill:none;stroke:#ffffff;stroke-width:5.5"
       d="m -104.30814,12643.301 c 5.049562,-36.617 36.567541,-13.459 60.763578,-26.909 12.948994,-7.199 11.382436,-21.513 9.581916,-33.847 -0.496303,-3.4 -4.036155,-12.932 -2.103275,-10.091 15.824063,23.256 35.07803549,65.857 51.882711,84.932 2.914949,3.309 -1.775709,-36.794 -1.869593,-37.631 -2.959712,-26.382 30.996371,30.794 45.338935,22.284 14.962447,-8.877 39.168022,-33.739 38.795293,-53.187 -0.07792,-4.066 -8.499676,1.408 -11.451643,4.204 -11.369997,10.772 -30.708991,33.796 -19.397646,50.875 18.823818,28.423 122.221254,-37.752 78.758994,-14.295"
       id="path530" /><path
       style="fill:none;stroke:#ffffff;stroke-width:5.5"
       d="m 260.74096,12566.147 c -24.89719,53.299 57.33267,43.833 68.47591,82.41 9.5018,32.893 -23.1222,48.62 -33.65375,7.568 -11.84259,-46.163 59.79496,-23.464 75.01982,-44.569 1.67516,-2.322 8.96983,-16.675 0.46736,-19.761 -30.64383,-11.123 -49.37511,64.055 -12.85388,63.489 21.1927,-0.329 28.09444,-27.786 30.84931,-43.097 1.12051,-6.228 0.51363,-19.619 0.70104,-26.278 0.0436,-1.549 -0.52491,-5.815 0.46736,-4.625 1.78755,2.144 15.52691,44.021 20.79987,38.051 10.30899,-11.672 6.06743,-42.341 20.79988,-50.455 5.40242,-2.975 22.5743,49.333 26.4088,43.727 3.49843,-5.113 4.85375,-50.414 10.75044,-44.778 9.08183,8.68 21.85636,52.41 9.34837,62.858 -5.73662,4.792 -10.35458,-26.064 -6.31008,-31.955 10.38701,-15.127 47.80677,-10.82 51.64902,-17.238 2.70489,-4.519 -8.00399,-20.791 -9.34823,-23.125 -1.66626,-2.893 -5.48039,-11.013 -6.3101,-7.779 -0.82174,3.203 29.35049,55.19 34.12112,62.017 4.64187,6.644 -9.35249,-28.613 -2.57077,-24.176 9.79061,6.406 11.65301,23.527 21.50104,29.432 0.71313,0.428 -2.55963,-12.71 2.57077,-45.829 0.74105,-4.784 15.89202,-39.624 15.89202,-39.734 0,-1.157 -2.02552,1.122 -3.03827,1.682"
       id="path532" /><path
       style="fill:none;stroke:#ffffff;stroke-width:5.5"
       d="m 748.2521,12507.704 c 24.9632,23.172 35.26605,54.67 51.18179,83.671 2.41602,4.402 10.94028,16.263 6.77733,13.454 -8.51678,-5.746 -33.25736,-68.207 -28.27851,-69.585 6.99654,-1.937 72.36042,39.081 87.40632,26.699 12.4917,-10.281 24.18001,-64.76 5.60891,-52.978 -45.69339,28.989 -10.52947,107.567 38.09399,30.693"
       id="path534" /><path
       style="fill:none;stroke:#ffffff;stroke-width:5.5"
       d="m 922.12946,12504.34 c -20.35153,18.06 -24.37418,46.736 5.84288,56.551 5.78064,1.878 12.4992,2.448 18.2291,0.421 31.09926,-11.004 14.27893,-19.165 10.04914,-36.37 -2.99969,-12.201 -3.11621,-25.559 -3.50552,-38.051 -0.40963,-13.144 0.11504,-8.368 -0.93472,-21.023 -0.11081,-1.335 -1.31945,-5.029 -0.46736,-3.994 7.65313,9.294 36.11658,86.579 42.06711,77.784 5.13437,-7.587 -5.12122,-29.058 3.50552,-33.846 10.32599,-5.732 24.60699,-5.773 33.42009,-14.296 3.5959,-3.477 3.0347,-13.074 -3.2721,-13.665 -33.63792,-3.152 -6.7118,85.288 31.0829,65.802 15.898,-8.197 30.994,-84.97 5.8426,-92.29 -8.8385,-2.573 -17.4628,21.951 -12.8536,28.17 11.1461,15.039 61.1778,14.73 58.1928,47.301 -3.071,33.512 -33.5937,93.953 -48.3773,20.813"
       id="path536" /><path
       style="fill:none;stroke:#ffffff;stroke-width:5.5"
       d="m 1253.9925,12420.249 c 3.8803,3.44 60.393,153.819 13.5549,99.648"
       id="path538" /><path
       style="fill:none;stroke:#ffffff;stroke-width:5.5"
       d="m 1240.9049,12462.084 c 6.7368,-0.742 52.3349,-31.555 69.878,-17.659 8.9924,7.123 8.226,24.467 9.8157,34.478 0.362,2.279 1.2574,8.556 2.3371,6.517 7.6235,-14.402 7.7549,-32.696 10.0494,-48.563 0.5287,-3.656 0.1678,-13.309 2.8045,-10.722 28.6767,28.141 19.7645,39.933 66.8399,25.648 5.1429,-1.561 16.1259,-4.336 16.1259,-11.983 0,-15.789 -37.8999,11.847 -34.8224,46.671 2.7857,31.522 95.2269,29.79 85.5366,-4.205"
       id="path540" /><path
       style="fill:none;stroke:#ffffff;stroke-width:5.5"
       d="m 1576.5071,12435.806 c -9.1925,5.115 -20.0179,8.031 -27.5775,15.346 -6.5238,6.314 -12.3643,34.096 4.4405,35.739 22.4139,2.192 46.4455,-15.819 57.4918,-33.847 3.5312,-5.763 12.0184,-18.306 5.3752,-19.551 -9.6401,-1.806 -29.1007,65.006 -3.9731,62.017 25.1879,-2.995 40.2208,-44.362 46.975,-62.437 3.7533,-10.045 10.3925,-36.223 0.4673,-32.165 -23.2192,9.494 -14.3184,67.295 5.6092,75.892 27.1831,11.727 42.8632,-29.869 49.7792,-47.722"
       id="path542" /><path
       style="fill:none;stroke:#ffffff;stroke-width:5.5"
       d="m 1714.6273,12386.402 c -8.5692,11.703 -18.6363,22.444 -25.7075,35.108 -17.9323,32.117 60.4983,11.002 68.4759,19.341 5.0652,5.295 -7.9346,25.013 -12.3865,14.716"
       id="path544" /><path
       style="fill:none;stroke:#ffffff;stroke-width:5.5"
       d="m 1753.4226,12379.254 c 4.9858,6.518 11.2438,12.234 14.9573,19.552 9.6895,19.092 12.3112,41.751 17.5278,62.227 6.8449,26.868 -0.7247,-57.416 12.6202,-54.869 11.2392,2.144 19.2999,41.431 23.3706,51.085 1.7918,-15.767 2.3781,-31.718 5.3753,-47.301 5.0949,-26.49 27.4557,-14.612 33.1863,3.574 1.6551,5.252 1.7396,50.85 -2.8044,2.312"
       id="path546" /><path
       style="fill:none;stroke:#ffffff;stroke-width:5.5"
       d="m 1870.2758,12357.18 c 14.0834,22.867 12.495,44.85 9.5818,70.006 -0.1793,1.549 -0.8578,6.177 -0.701,4.626 1.9021,-18.824 3.9739,-57.888 18.2291,-71.058 7.6163,-7.036 18.6891,86.68 21.0335,66.643"
       id="path548" /><path
       style="fill:none;stroke:#ffffff;stroke-width:5.5"
       d="m 1944.5943,12412.891 c 0.857,-18.29 -0.1,-36.756 2.5708,-54.87 1.9884,-13.487 14.2098,11.198 12.8539,16.398 -3.4862,13.369 -10.2831,25.648 -15.4247,38.472 z"
       id="path550" /><path
       style="fill:none;stroke:#ffffff;stroke-width:5.5"
       d="m 1982.6883,12321.862 c 11.77,13.305 65.1395,83.608 47.6763,105.535 -7.3829,9.269 -17.148,-2.426 -20.3325,-7.779 -11.9037,-20.007 -7.8345,-52.289 13.0875,-64.54 4.3292,-2.535 9.2282,-3.988 14.0223,-5.466 59.0468,-18.197 -26.4855,17.71 0.935,40.785 17.5298,14.751 58.0255,-19.423 62.3994,-35.949 3.6543,-13.808 -6.1442,9.611 -6.5436,16.397 -0.4658,7.915 -0.2941,15.964 1.1684,23.756 4.8732,25.965 25.5328,55.925 13.7888,48.983 -9.8262,-5.808 -13.9995,-22.774 -16.1259,-30.903 -21.1568,-80.884 43.5371,-31.037 64.503,-59.915 7.6004,-10.469 -14.3847,-16.286 -20.0988,-14.716 -65.648,18.031 -9.9888,95.652 53.9862,49.614"
       id="path552" /><path
       style="fill:none;stroke:#ffffff;stroke-width:5.5"
       d="m 2193.0242,12313.873 c 3.7392,14.576 7.1652,29.236 11.2178,43.728 2.2601,8.082 5.1286,15.982 7.7123,23.966 2.2462,6.942 4.4541,13.896 6.7773,20.813 11.4567,34.106 7.0549,-60.279 20.7999,-54.87 7.5172,2.959 8.7143,29.081 10.0494,35.528 0.5897,2.848 1.7853,10.334 3.5055,7.989 30.2339,-41.206 20.7615,-60.493 40.4314,0.631"
       id="path554" /><path
       style="fill:none;stroke:#ffffff;stroke-width:5.5"
       d="m 2333.1518,12333.921 c 6.2321,7.147 11.3504,15.446 18.6964,21.443 16.8526,13.758 64.5252,-28.478 28.7459,-39.313 -4.4173,-1.337 -9.4694,-2.888 -13.7886,-1.261 -12.0756,4.548 -25.9157,8.805 -33.6537,19.131 -7.7287,10.313 -14.1947,25.889 -8.8808,37.631 3.8066,8.41 95.3092,88.986 91.3792,31.534"
       id="path556" /><path
       style="fill:none;stroke:#ffffff;stroke-width:5.5"
       d="m 2410.0413,12295.239 c 2.4928,10.161 4.2093,20.545 7.4784,30.483 5.1601,15.687 11.9616,30.787 17.7617,46.25 2.7697,7.384 1.1132,18.347 7.946,22.284 5.8082,3.347 24.2646,-86.487 25.4741,-87.875 7.7328,-8.875 10.1437,134.849 37.1592,65.591"
       id="path558" /><path
       style="fill:none;stroke:#ffffff;stroke-width:5.5"
       d="m 2522.4538,12276.108 c -7.285,32.183 19.1641,62.858 19.1641,93.552"
       id="path560" /><path
       style="fill:none;stroke:#ffffff;stroke-width:5.5"
       d="m 2496.5124,12318.574 c 32.1371,-19.956 74.8949,-7.831 107.5048,-23.545"
       id="path562" /><path
       style="fill:none;stroke:#ffffff;stroke-width:5.5"
       d="m -355.7973,13116.728 c 20.21006,36.348 25.85659,76.003 33.18623,116.046 1.25672,6.865 2.35651,13.761 3.73933,20.602 0.64352,3.184 4.62775,11.763 2.33709,9.46 -3.49332,-3.512 -4.20674,-8.97 -6.3101,-13.454"
       id="path564" /><path
       style="fill:none;stroke:#ffffff;stroke-width:5.5"
       d="m -361.40623,13205.654 c 27.66853,-6.959 55.9689,-27.75 85.06896,-27.75"
       id="path566" /><path
       style="fill:none;stroke:#ffffff;stroke-width:5.5"
       d="m -275.16874,13104.114 c 10.12732,10.862 21.94783,20.362 30.38194,32.585 5.81034,8.421 8.10155,18.798 11.68519,28.381 3.22901,8.634 4.20055,18.066 7.946,26.489 0.2733,0.615 0.65147,-1.221 0.70119,-1.892 0.41991,-5.666 0.24653,-11.366 0.70118,-17.029 0.7962,-9.917 -2.95319,-25.044 6.07627,-29.221 2.53323,-1.172 8.91316,12.614 13.08756,25.017 1.16742,3.468 6.48738,41.774 11.21796,46.881 0.31351,0.338 -3.60781,-18.4 0.70104,-27.961 1.992,-4.42 5.45138,-8.258 9.34824,-11.142 10.77984,-7.978 51.21279,-7.863 45.80643,-32.585 -1.22844,-5.617 -3.56975,-12.227 -8.64705,-14.926 -21.10493,-11.219 -35.85364,57.155 -25.70774,77.364 17.57782,35.012 95.203664,24.755 112.880106,-0.421"
       id="path568" /><path
       style="fill:none;stroke:#ffffff;stroke-width:5.5"
       d="m 67.912097,13117.358 c -31.497561,43.937 121.027973,23.662 107.972243,66.012 -1.2181,3.951 -14.52133,49.183 -35.9907,42.466 -29.54343,-9.244 -23.22429,-48.02 -9.58205,-65.801 8.20332,-10.693 49.4734,0.26 67.54117,-18.08 5.15228,-5.23 26.52782,-50.719 8.88087,-47.091 -32.67101,6.717 -52.71932,106.377 -3.97301,92.5 39.98796,-11.383 39.88473,-63.475 32.71875,-96.074 -1.59176,-7.241 -11.45676,-27.344 -8.88073,-20.392 2.17345,5.866 41.20466,72.062 42.3008,71.898 9.24648,-1.387 -12.57591,-82.639 15.19095,-43.307 3.92956,5.566 7.42508,11.429 10.98415,17.239 11.72599,19.142 3.26816,7.954 14.48977,21.653"
       id="path570" /><path
       style="fill:none;stroke:#ffffff;stroke-width:5.5"
       d="m 309.79799,13073 c 8.67778,28.05 26.29802,57.143 27.34366,87.245 1.16678,33.589 -15.6486,-48.808 -8.41336,-51.716 16.0622,-6.456 37.93432,10.677 53.7523,-1.892 13.07534,-10.39 -13.50219,-35.279 -25.00656,-33.637 -8.72765,1.247 12.44994,32.572 25.47406,27.961 18.73654,-6.634 10.63249,-42.993 11.45164,-42.256 19.78909,17.801 21.54309,53.535 38.3278,75.051 1.5275,1.958 -1.04214,-4.877 -1.16869,-7.358 -3.38436,-66.325 -6.63609,-43.731 8.64733,-87.665"
       id="path572" /><path
       style="fill:none;stroke:#ffffff;stroke-width:5.5"
       d="m 564.0704,13058.284 c 8.75851,16.773 11.28647,35.595 17.52807,53.188 0.36904,1.04 1.6741,3.819 1.86946,2.733 1.4287,-7.945 -0.50662,-76.374 9.11469,-75.682 12.25462,0.882 29.99409,43.714 35.52319,52.977 2.24431,3.76 7.9056,13.669 9.11469,9.461 7.63045,-26.561 3.21228,-55.197 3.50552,-82.83 0.58901,-55.507 0.0722,-7.545 0.23368,-0.211"
       id="path574" /><path
       style="fill:none;stroke:#ffffff;stroke-width:5.5"
       d="m 713.40872,13079.517 c -1.27026,-17.653 22.71091,-57.97 -4.20682,-64.75"
       id="path576" /><path
       style="fill:none;stroke:#ffffff;stroke-width:5.5"
       d="m 696.81567,12977.767 c 4.68138,-11.752 -2.12786,-24.893 1.86947,-36.58"
       id="path578" /><path
       style="fill:none;stroke:#ffffff;stroke-width:5.5"
       d="m 727.89836,12958.006 c 20.54014,25.714 36.15013,55.082 37.62688,88.295"
       id="path580" /><path
       style="fill:none;stroke:#ffffff;stroke-width:5.5"
       d="m 765.29156,12935.932 c 20.94412,39.062 50.24072,80.485 59.5949,124.665"
       id="path582" /><path
       style="fill:none;stroke:#ffffff;stroke-width:5.5"
       d="m 929.82058,12914.909 c -13.99063,6.828 58.61831,100.337 46.97497,102.381 -2.81032,0.493 -5.45314,-1.682 -8.17969,-2.523"
       id="path584" /><path
       style="fill:none;stroke:#ffffff;stroke-width:5.5"
       d="m 936.13079,12952.54 c 16.19052,25.243 21.40045,-17.075 33.88744,-16.188 2.63617,0.187 31.85237,74.134 39.02867,62.227 6.8471,-11.36 5.2478,-21.782 5.3755,-33.846 0.031,-2.89 -1.6708,-9.87 0.9348,-8.619 15.8157,7.587 34.6815,27.467 53.7523,25.017 13.8058,-1.775 38.1262,-27.539 23.838,-35.319 -27.2966,-14.861 -53.6682,50.431 -18.9302,53.188 40.2328,3.193 52.0332,-68.505 37.1593,-92.29 -0.3917,-0.627 -0.7477,1.365 -0.7011,2.102 0.3469,5.49 0.2759,11.132 1.8697,16.398 0.7268,2.401 31.3816,71.563 36.4583,65.591 3.5969,-4.231 -9.7733,-108.558 23.3706,-43.097 3.9118,7.726 6.9818,15.851 10.5168,23.756 4.9484,11.067 5.785,12.34 9.1144,22.074"
       id="path586" /><path
       style="fill:none;stroke:#ffffff;stroke-width:5.5"
       d="m 1357.2693,12878.329 c -11.14,13.174 -24.2437,24.913 -33.4201,39.523 -82.4309,131.242 118.9712,138.838 130.4082,68.534 1.1755,-7.225 -4.6742,-13.875 -7.0113,-20.812 28.3568,117.156 -54.5362,-27.794 -5.6089,-42.046 42.2154,-12.296 48.1849,111.682 35.7572,33.427"
       id="path588" /><path
       style="fill:none;stroke:#ffffff;stroke-width:5.5"
       d="m 1479.7314,12890.523 c 15.007,20.293 25.6187,43.534 32.7188,67.693 3.7072,12.614 5.6559,30.643 4.4405,20.812 -1.3739,-11.111 -4.3051,-84.074 12.6202,-73.369 7.4905,4.737 19.824,30.438 21.2672,33.426 2.6575,5.501 4.7027,11.282 6.7774,17.029 1.0639,2.946 2.5707,12.172 2.5707,9.039 0,-6.497 -3.2039,-56.343 4.6742,-58.233 10.1411,-2.432 32.0642,65.295 36.2245,66.642 2.343,0.759 1.2465,-4.765 1.8698,-7.147"
       id="path590" /><path
       style="fill:none;stroke:#ffffff;stroke-width:5.5"
       d="m 1607.3349,12887.579 c 11.4759,26.065 10.1129,20.69 18.6967,51.926 2.31,8.406 4.4622,16.871 6.0763,25.438 0.9619,5.105 4.1993,16.349 -0.935,15.557 -24.6659,-3.804 -22.284,-69.074 -23.838,-92.921 -0.7616,-11.687 -2.0641,-23.415 -1.4021,-35.108 2.0232,-35.737 37.2921,15.382 40.1974,23.335 8.8311,24.178 -6.8967,110.351 -7.4787,23.966"
       id="path592" /><path
       style="fill:none;stroke:#ffffff;stroke-width:5.5"
       d="m 1649.636,12858.568 c 6.6995,14.576 13.0851,29.3 20.0985,43.727 34.1756,70.303 62.09,3.336 46.2739,-46.46"
       id="path594" /><path
       style="fill:none;stroke:#ffffff;stroke-width:5.5"
       d="m 1712.0353,12823.67 c 4.5757,24.2 17.8071,44.473 30.1483,65.171 1.2632,2.118 5.7551,5.505 3.5055,6.517 -2.8257,1.271 -5.4532,-2.944 -8.1797,-4.415 40.2734,-36.841 11.2985,-18.202 57.2581,-33.006 8.1371,-2.621 16.2557,-5.511 23.838,-9.46 55.5077,-28.908 -65.701,-29.146 -63.8017,9.46 1.329,27.016 79.8562,25.977 98.3902,15.557"
       id="path596" /><path
       style="fill:none;stroke:#ffffff;stroke-width:5.5"
       d="m -267.22272,13415.672 c -10.24032,-58.544 -0.67194,-1.146 0,0 8.96322,15.288 23.95037,26.228 34.35493,40.574 14.06007,19.386 30.80131,52.547 39.73002,75.051 2.8798,7.259 4.69249,14.908 6.54377,22.495 0.26645,1.092 0.31989,4.341 -0.23368,3.363 -7.08406,-12.517 -29.5213,-69.82 -9.81573,-79.886 20.40168,-10.423 57.92846,27.737 65.90513,40.784"
       id="path598" /><path
       style="fill:none;stroke:#ffffff;stroke-width:5.5"
       d="m -102.45977,13515.951 c -6.69956,-2.383 -15.77075,-1.506 -20.09869,-7.148 -6.03717,-7.87 -7.01795,-18.893 -7.47864,-28.802 -2.18233,-46.935 48.99146,-57.198 57.02426,-14.295 3.150679,16.828 -18.541439,75.777 -29.44693,50.245 -6.73869,-15.777 2.80446,-34.197 4.206688,-51.296"
       id="path600" /><path
       style="fill:none;stroke:#ffffff;stroke-width:5.5"
       d="m -94.28008,13392.547 c 34.800534,-16.116 75.741737,80.269 80.161226,79.046 5.7231503,-1.584 -27.198837,-56.225 -10.516779,-46.881 5.771565,3.232 37.672863,38.479 43.469342,32.375 11.428884,-12.036 2.111815,-52.028 0.934863,-64.12 -2.133399,-21.918 -2.411063,-18.418 -9.114549,1.682"
       id="path602" /><path
       style="fill:none;stroke:#ffffff;stroke-width:5.5"
       d="m 199.95604,13378.041 c 19.8047,59.873 18.71222,49.965 27.81115,90.188 1.08999,4.818 1.85341,19.302 3.03813,14.506 1.47169,-5.958 -1.54877,-12.179 -2.1034,-18.29 -1.00368,-11.06 -2.01869,-22.125 -2.57078,-33.216 -0.38324,-7.7 -0.39638,-15.418 -0.23368,-23.125 0.75278,-35.661 35.09721,35.376 36.4582,34.687 5.12945,-2.595 2.96447,-62.632 24.77289,-47.301 23.66713,16.638 15.14739,36.453 40.66487,28.801"
       id="path604" /><path
       style="fill:none;stroke:#ffffff;stroke-width:5.5"
       d="m 337.14165,13391.706 c -1.34168,30.084 5.99416,93.453 43.93671,39.943 12.41578,-4.543 6.42215,-18.266 11.68532,-26.278 1.95384,-2.975 1.41433,6.982 1.86973,10.511 1.24148,9.621 1.74535,20.569 9.11455,27.75"
       id="path606" /><path
       style="fill:none;stroke:#ffffff;stroke-width:5.5"
       d="m 410.99291,13350.711 c 5.76472,11.843 11.67686,23.615 17.29412,35.529 3.96574,8.411 7.72404,16.919 11.45178,25.438 3.0082,6.874 7.61947,18.843 7.94599,18.71 4.0703,-1.664 -9.04073,-95.242 14.72332,-43.938 6.01189,12.979 13.51373,31.25 20.33252,43.517"
       id="path608" /><path
       style="fill:none;stroke:#ffffff;stroke-width:5.5"
       d="m 500.2687,13344.405 c 5.43549,22.646 28.96814,58.313 19.3975,81.988"
       id="path610" /><path
       style="fill:none;stroke:#ffffff;stroke-width:5.5"
       d="m 474.56096,13388.552 c 2.1812,-5.886 12.43008,-15.478 6.54363,-17.659 -5.88645,-2.181 -12.46725,15.581 -6.54363,17.659 9.84877,3.456 19.94287,-6.166 29.9143,-9.25"
       id="path612" /><path
       style="fill:none;stroke:#ffffff;stroke-width:5.5"
       d="m 719.01763,13287.012 c 19.28809,26.282 33.29786,55.335 40.8987,87.035 1.22558,5.111 2.20935,20.638 0.23368,15.767 -4.69656,-11.579 -15.43661,-80.247 -4.4405,-87.665 11.29729,-7.622 32.51946,45.827 36.22453,53.187 0.14057,0.28 1.91791,-16.516 2.10341,-17.869 0.0726,-0.529 2.44057,-33.929 11.21783,-31.955 14.20574,3.195 24.87496,19.958 32.48507,31.114 6.3219,9.268 7.56126,11.949 8.17967,10.932 2.47682,-4.072 2.80456,-9.11 4.20682,-13.665"
       id="path614" /><path
       style="fill:none;stroke:#ffffff;stroke-width:5.5"
       d="m 880.04113,13332.632 c -8.56916,0.56 -20.78429,8.718 -25.70747,1.682 -31.68287,-45.281 33.56809,-55 35.5232,-32.796 0.95387,10.833 -15.33192,21.742 -9.81573,31.114 5.07376,8.62 9.59575,-17.811 11.91914,-27.54 5.2945,-22.171 1.45135,-69.163 15.19097,-60.546 14.61447,9.167 23.55615,32.732 30.14798,47.091 3.41436,7.438 5.69814,28.513 10.75044,22.074 4.74549,-6.047 -5.89246,-26.864 7.01127,-38.471 11.0671,-9.956 49.93367,0.917 53.98597,-19.131 5.6471,-27.939 -54.05007,3.802 -47.90968,31.744 8.5367,38.847 63.07308,33.506 89.04208,18.08 4.7996,-2.851 7.0112,-8.69 10.5168,-13.034"
       id="path616" /><path
       style="fill:none;stroke:#ffffff;stroke-width:5.5"
       d="m 1158.8529,13209.438 c 3.4276,11.282 3.7127,24.055 10.2828,33.847 14.5729,21.718 81.9639,24.976 88.5747,48.983 9.5028,34.51 -74.5509,37.306 -64.269,-2.102 6.7897,-26.024 71.5177,-20.955 89.9768,-26.699 13.8784,-4.319 32.9282,-35.92 7.946,-31.745 -61.8989,10.345 -56.4072,78.351 8.1797,62.859"
       id="path618" /><path
       style="fill:none;stroke:#ffffff;stroke-width:5.5"
       d="m 1313.5661,13248.33 c -0.4561,28.522 -8.073,30.865 18.9305,45.41 24.388,13.135 58.8163,-9.986 39.4963,-36.79 -11.6814,-16.207 -24.1589,2.718 -16.827,16.608 8.1172,15.378 18.3824,29.528 27.1101,44.568 11.0151,18.981 36.6954,83.454 -6.5439,89.978 -19.7863,2.985 -26.3551,-30.658 -35.2895,-48.563"
       id="path620" /><path
       style="fill:none;stroke:#ffffff;stroke-width:5.5"
       d="m 1365.6827,13228.989 c 10.2831,7.428 22.8738,12.42 30.8493,22.285 15.1818,18.777 26.505,66.774 22.2022,91.659 -1.3527,7.823 -15.9351,-92.97 3.0381,-70.006 10.2051,12.351 12.215,32.955 13.5549,48.142 0.2957,3.352 -2.9641,9.045 0.2337,10.091 3.0227,0.989 1.3611,-6.223 2.3371,-9.25 3.585,-11.117 10.1922,-39.761 27.8109,-36.79 13.1257,2.214 20.8897,23.794 23.8383,34.688 1.4425,5.329 3.3705,21.821 2.3368,16.398 -7.7502,-40.664 28.8734,-34.132 50.2471,-55.08 3.8342,-3.758 12.6752,-31.031 2.1031,-31.955 -40.4239,-3.53 -28.3832,70.637 3.5058,70.637 37.6343,0 21.0664,-98.12 29.9143,-97.125 1.7987,0.202 21.9055,62.048 25.7077,72.108 2.8997,7.672 1.7499,-16.327 3.2718,-24.387 3.1597,-16.731 1.6729,-37.774 14.4899,-48.983 8.247,-7.212 26.0864,30.74 27.5773,35.108 0.5963,1.747 6.6153,21.287 3.0381,23.125 -1.1544,0.594 -1.6321,-29.331 1.8697,-34.057 3.6953,-4.985 20.2531,30.277 17.7618,37 14.4319,-24.585 37.3824,-38.943 54.6873,-60.545"
       id="path622" /><path
       style="fill:none;stroke:#ffffff;stroke-width:5.5"
       d="m 1744.287,13186.103 c 1.1867,-2.944 -35.6481,14.389 -31.7843,27.96 5.7219,20.098 94.4453,8.722 88.1073,57.182 -2.9802,22.787 -57.2534,86.772 -73.8511,44.779"
       id="path624" /><path
       style="fill:none;stroke:#ffffff;stroke-width:5.5"
       d="m -22.532224,13609.712 c -6.777503,-0.14 -20.192371,-7.198 -20.33251,-0.42 -0.140139,6.778 19.425652,7.138 20.33251,0.42 2.086233,-15.454 -31.057848,-35.738 -10.283096,-35.738 12.39627,0 12.051229,23.469 10.283096,35.738 -8.923787,61.925 -28.29405,41.749 -25.474057,11.563 0.231597,-2.479 11.647357,-52.306 25.474057,-11.563 4.641308,13.677 -6.387944,28.171 -9.581915,42.256"
       id="path626" /><path
       style="fill:none;stroke:#ffffff;stroke-width:5.5"
       d="m -3.8357583,13675.724 c 11.5165556,-38.285 45.7870923,182.968 47.2086613,147.159"
       id="path628" /><path
       style="fill:none;stroke:#ffffff;stroke-width:5.5"
       d="m 34.725852,13698.639 c -1.090653,-6.167 2.894771,-19.591 -3.271954,-18.5 -13.49978,2.387 9.627221,21.176 19.631329,48.983 3.637497,10.111 10.885622,48.871 7.478638,62.017 -6.042247,23.315 -24.406294,-11.969 -25.941422,-17.239 -11.78942,-40.466 70.020417,-60.635 96.988097,-52.767"
       id="path630" /><path
       style="fill:none;stroke:#ffffff;stroke-width:5.5"
       d="m 363.55045,13655.332 c -7.5565,-3.504 -14.42977,-11.73 -22.66947,-10.511 -32.20138,4.761 -52.51702,207.506 41.83343,151.153 11.59705,-6.926 17.88723,-31.806 21.96827,-44.988"
       id="path632" /><path
       style="fill:none;stroke:#ffffff;stroke-width:5.5"
       d="m 410.29161,13695.275 c -9.58853,9.02 -31.54505,43.693 -5.14154,53.608 17.15365,6.442 33.92471,-20.408 41.36607,-31.324 2.33238,-3.421 5.42152,-13.808 7.24495,-10.091 3.62905,7.4 11.80489,84.679 19.63118,44.358"
       id="path634" /><path
       style="fill:none;stroke:#ffffff;stroke-width:5.5"
       d="m 474.32728,13671.729 c -0.38957,-9.32 -1.41163,-18.635 -1.16869,-27.96 0.24294,-9.325 -2.26853,19.289 1.16869,27.96 7.0511,17.79 21.9355,31.509 30.61534,48.563 3.29499,6.474 3.27572,14.155 4.90786,21.233 0.54917,2.382 1.43478,9.584 1.63605,7.148 1.0505,-12.714 -0.85876,-25.631 0.93472,-38.261 13.15297,-92.633 42.03097,4.327 59.82885,17.238"
       id="path636" /><path
       style="fill:none;stroke:#ffffff;stroke-width:5.5"
       d="m 824.88646,13543.07 c -6.54372,7.638 -13.67909,14.807 -19.63118,22.915 -53.48883,72.86 34.87611,32.747 63.10066,86.403 15.30118,29.089 -8.61882,81.401 -24.77301,70.637 -16.23206,-10.816 -26.95004,-87.215 -7.946,-97.335 19.30628,-10.281 46.49052,10.856 66.60645,6.937 25.62357,-4.992 32.34298,-10.382 31.784,-34.687 -0.0732,-3.185 -2.03515,-6.824 -4.90786,-8.199 -29.45665,-14.11 -67.98178,53.174 -32.71875,71.057 22.5357,11.428 54.27464,-4.607 63.33435,-26.699 8.44811,-20.601 6.0357,-38.518 3.27183,-59.705 -0.65505,-5.022 -1.74733,-18.054 -5.14154,-14.295 -5.92722,6.562 13.85774,62.038 23.83801,60.755 8.32519,-1.069 19.86368,-92.676 34.12108,-54.659 0.7746,2.065 20.3635,75.087 22.2023,52.767"
       id="path638" /><path
       style="fill:none;stroke:#ffffff;stroke-width:5.5"
       d="m 1042.467,13545.382 c 5.8427,-4.064 10.4207,-12.569 17.5281,-12.193 17.2467,0.913 48.0319,64.45 42.7681,84.092 -10.81,40.336 -53.7075,30.922 -53.5186,-8.62 0.072,-15.059 17.0745,-51.393 38.094,-40.364"
       id="path640" /><path
       style="fill:none;stroke:#ffffff;stroke-width:5.5"
       d="m 1496.929,13493.305 c 24.1668,-97.938 -66.6066,69.991 -1.8697,75.472 31.4924,2.666 78.406,-56.662 39.73,-76.733 -21.7909,-11.309 -7.429,31.023 -1.1684,41.835 11.6646,20.144 72.602,78.351 57.0244,110.58 -9.7794,20.233 -73.7386,-20.614 -53.0513,-54.449"
       id="path642" /><path
       style="fill:none;stroke:#ffffff;stroke-width:5.5"
       d="m 1601.8631,13581.181 c 21.1769,-10.427 23.8936,-3.69 22.6696,-22.285 -1.2633,-19.192 -2.9145,-19.945 -6.0765,-37.841 -2.2357,-12.653 -2.9187,-23.505 -0.9348,-36.159 3.2031,-20.431 39.7731,75.545 54.6873,73.37 11.6698,-1.703 0.3654,-62.15 2.3371,-62.648 4.1487,-1.05 96.2755,4.363 72.6825,-28.381 -15.332,-21.279 -44.0198,37.594 -22.903,62.858 3.6026,4.31 9.4376,10.101 14.7233,8.199 34.8546,-12.541 22.5672,-54.954 22.2022,-80.097 -0.1051,-7.244 -1.233,-14.437 -1.8697,-21.653 -0.1423,-1.613 -1.5844,-6.008 -0.4674,-4.836 11.7436,12.325 30.8971,85.967 40.4311,86.824 6.3245,0.569 6.833,-94.363 41.8334,-47.931 4.4377,5.886 7.6167,12.624 11.4518,18.92 4.3947,7.215 8.3301,13.2 13.3213,19.761"
       id="path644" /><path
       style="fill:none;stroke:#ffffff;stroke-width:5.5"
       d="m 2042.1657,13384.827 c 31.091,71.956 22.4663,42.28 39.2627,124.876 1.1417,5.614 1.6416,11.341 2.3371,17.028 0.1619,1.324 0.8551,5.175 0.2337,3.995 -1.2928,-2.455 -1.5581,-5.326 -2.3372,-7.989"
       id="path646" /><path
       style="fill:none;stroke:#ffffff;stroke-width:5.5"
       d="m 2056.4217,13461.771 c -31.329,-55.548 26.5961,-41.405 49.0784,-11.142 5.656,7.613 10.0945,16.186 13.5549,25.017 3.7569,9.587 5.2726,19.908 7.946,29.852 0.2091,0.778 0.5772,3.109 0.701,2.313 1.7164,-11.027 2.0879,-94.482 29.6809,-63.489 12.3814,13.907 21.9906,45.811 37.1593,60.756 12.8481,12.658 -7.3534,-18.706 4.9078,-31.114 16.1923,-16.386 49.2788,-6.485 66.1388,-33.216 0.7214,-1.144 16.3931,-42.131 -2.1034,-37.631 -68.6668,16.708 -69.34,124.301 25.7078,123.404 10.2513,-0.1 41.5583,-4.746 48.8447,-16.398"
       id="path648" /><path
       style="fill:none;stroke:#ffffff;stroke-width:5.5"
       d="m 43.510037,13958.75 c -57.022097,105.495 40.475018,70.023 93.248773,122.142 19.23013,18.992 -0.0168,49.079 -25.00655,38.472 -8.5898,-3.646 -19.223473,-12.552 -20.799879,-22.915 -5.277324,-34.691 65.701149,-32.785 84.134229,-42.045 5.31327,-2.669 10.08223,-6.487 14.2561,-10.722 8.16906,-8.288 10.74281,-38.789 -9.58205,-27.75 -23.97927,13.024 -43.82045,90.149 -4.90773,80.938 11.0287,-2.611 20.5661,-9.53 30.84915,-14.296"
       id="path650" /><path
       style="fill:none;stroke:#ffffff;stroke-width:5.5"
       d="m 232.57837,14032.75 c -7.79022,10.652 -17.59893,20.088 -23.37065,31.955 -7.89951,16.242 18.50085,17.641 32.71888,11.562 28.05573,-11.995 40.53827,-27.277 58.66029,-46.67 m 0,0 c -9.19244,5.186 -19.73064,8.498 -27.57732,15.557 -6.90612,6.212 5.4268,20.613 7.47851,22.704 14.773,15.061 65.98462,36.712 63.56817,63.069 -0.85486,9.324 -3.29081,19.349 -9.34823,26.488 -28.98744,34.168 -47.96983,-6.935 -60.53003,-28.59"
       id="path652" /><path
       style="fill:none;stroke:#ffffff;stroke-width:5.5"
       d="m 291.47234,13998.483 c 42.50984,19.052 60.27542,65.303 73.61746,107.216 1.71164,5.377 3.10078,10.865 4.20669,16.398 0.15412,0.771 -0.0802,2.997 -0.46736,2.313 -5.12668,-9.065 -25.36468,-79.091 -16.35951,-83.251 11.0218,-5.091 38.28407,61.218 42.76828,70.216 3.42294,6.869 -3.65807,-14.922 -4.90786,-22.494 -0.50551,-3.063 -7.38939,-35.091 0.46736,-42.466 5.53164,-5.192 35.73116,47.71 40.19754,54.659 12.6506,19.684 -11.36552,-22.9 -2.80445,-27.96 14.09583,-8.332 48.91341,-13.714 40.66487,-39.313 -0.63977,-1.985 -1.92892,-4.419 -3.97301,-4.835 -24.76267,-5.043 -26.52522,53.714 -13.55503,65.381 25.93919,23.333 31.21369,-34.751 31.08296,-43.728 -0.24606,-16.897 -1.79578,-18.137 -3.03813,-31.323 -0.092,-0.977 -0.80674,-3.502 0,-2.944 1.61435,1.117 2.09931,3.322 3.03813,5.046 10.7115,19.672 18.69069,44.686 35.05597,59.915 3.44347,3.204 2.44009,-9.173 2.57077,-13.875 0.1452,-5.224 -2.99053,-62.297 7.4785,-57.392 22.21195,10.407 18.03357,47.739 23.13696,69.165"
       id="path654" /><path
       style="fill:none;stroke:#ffffff;stroke-width:5.5"
       d="m 552.52221,13984.398 c 21.13106,11.064 57.29402,47.972 35.05584,72.739 1.66574,-35.972 27.04041,-48.671 48.61091,-72.319 11.3737,11.773 21.33613,25.096 34.12111,35.319 5.79164,4.631 29.96959,8.401 32.01783,22.073 4.59566,30.678 -58.73748,92.225 -68.70971,42.887"
       id="path656" /><path
       style="fill:none;stroke:#ffffff;stroke-width:5.5"
       d="m 799.54967,13903.67 c -2.18895,1.231 -2.44012,-47.957 8.88088,-40.574 21.82558,14.234 -9.40388,41.772 -8.88088,40.574 25.50353,-58.399 25.74256,-19.788 22.20212,2.733"
       id="path658" /><path
       style="fill:none;stroke:#ffffff;stroke-width:5.5"
       d="m 833.2033,13978.511 c 15.62245,-4.36 33.83272,121.152 38.32791,125.086 1.89188,1.656 2.96026,-4.064 4.44037,-6.097"
       id="path660" /><path
       style="fill:none;stroke:#ffffff;stroke-width:5.5"
       d="m 880.64576,13966.108 c -26.32284,-24.324 5.38681,-24.846 9.11442,-18.921 21.34415,33.929 28.57212,50.717 39.96383,85.773 2.15154,6.621 3.6408,13.44 5.37525,20.182 0.44712,1.738 0.9071,7.032 1.16853,5.256 2.71135,-18.414 -1.10209,-65.459 17.52793,-79.466 8.74041,-6.572 46.60668,43.134 52.81758,52.977"
       id="path662" /><path
       style="fill:none;stroke:#ffffff;stroke-width:5.5"
       d="m 1131.8799,13901.358 c 0.4069,37.515 17.0377,67.323 32.7188,99.648 2.5586,5.274 10.0473,20.027 5.1415,16.818"
       id="path664" /><path
       style="fill:none;stroke:#ffffff;stroke-width:5.5"
       d="m 1130.2439,13969.892 c -2.8824,-6.096 -9.9453,-11.672 -8.6471,-18.29 0.8493,-4.329 8.5659,-2.116 12.8539,-3.153 33.6882,-8.151 53.6429,-10.689 43.2355,-48.142 -0.2653,-0.955 0.6253,1.904 1.1687,2.733 4.0624,6.193 8.5369,12.109 12.6202,18.289 4.7461,7.184 42.2658,63.887 44.4042,61.597 12.9597,-13.879 -11.113,-71.199 9.1144,-90.608 5.2194,12.544 12.3151,24.462 15.6583,37.631 1.8969,7.472 -3.3205,16.061 -0.2336,23.125 14.4318,33.024 54.8461,-40.709 56.557,-54.87 1.2125,-10.035 -5.067,114.893 11.4515,59.915"
       id="path666" /><path
       style="fill:none;stroke:#ffffff;stroke-width:5.5"
       d="m 1330.0626,13881.806 c 0.078,-6.166 0.156,-12.333 0.234,-18.499 0.1558,-1.262 0.4834,-5.056 0.4674,-3.785 -0.5562,43.981 -4.4528,3.357 14.4896,68.745 1.9923,6.877 2.3016,26.686 6.0766,20.602 12.8801,-20.758 4.4015,-51.358 14.957,-73.369 1.6318,-3.403 3.4708,6.81 4.2068,10.511 1.3937,7.009 1.6755,38.622 14.4896,26.489"
       id="path668" /><path
       style="fill:none;stroke:#ffffff;stroke-width:5.5"
       d="m 1396.2017,13862.255 c -0.779,7.498 -4.9564,15.426 -2.3371,22.495 5.1227,13.824 52.0632,26.528 48.8445,40.153 -4.1075,17.387 -26.0639,26.738 -41.5995,17.239 -4.8617,-2.973 -6.3121,-9.677 -7.946,-15.136 -16.8891,-56.428 88.5744,-20.574 88.5744,-60.336 0,-14.882 -66.1924,32.111 -38.5613,63.279 2.1823,2.461 5.8398,4.097 9.1144,3.784 35.7611,-3.417 45.9445,-55.932 36.4582,-84.091 -1.6348,-4.853 -0.086,10.286 0.7011,15.346 2.2733,14.607 6.0139,32.702 9.3483,47.512 1.3238,5.879 3.4497,22.453 6.0763,17.028 8.6885,-17.943 23.1085,-69.173 29.6806,-85.142 6.6511,-16.161 13.8783,32.649 15.6584,50.034 0.3812,3.724 0.3645,13.956 2.5707,10.932 11.3408,-15.545 9.7148,-53.405 12.8539,-70.006 2.2899,-12.11 5.0971,-24.147 8.6473,-35.949 1.7492,-5.815 7.1165,9.907 9.8155,15.347 3.6376,7.331 7.0715,14.763 10.7504,22.074 6.6012,13.117 48.9285,68.744 14.7236,68.744"
       id="path670" /><path
       style="fill:none;stroke:#ffffff;stroke-width:5.5"
       d="m 1578.9598,13892.318 c 4.9079,-6.167 8.3828,-13.819 14.7236,-18.5 3.0335,-2.24 83.977,-37.089 70.5793,-24.176"
       id="path672" /><path
       style="fill:none;stroke:#ffffff;stroke-width:5.5"
       d="m -225.93636,14784.089 c 2.96029,13.244 7.58772,26.223 8.88087,39.733 2.15055,22.466 0.67688,45.136 1.40223,67.693 0.38199,11.88 9.24599,70.68 3.50563,82.83 -0.58207,1.232 -2.33709,-1.402 -3.50563,-2.102"
       id="path674" /><path
       style="fill:none;stroke:#ffffff;stroke-width:5.5"
       d="m -266.36756,14911.907 c -29.57922,-45.004 98.7967,-3.635 87.40618,-41.204"
       id="path676" /><path
       style="fill:none;stroke:#ffffff;stroke-width:5.5"
       d="m -176.39061,14836.646 c 7.08908,0.07 15.61218,-4.066 21.26724,0.21 16.82487,12.72 37.44006,74.126 42.53448,95.023 1.44507,5.927 2.03641,24.243 0.70118,18.29 -0.92771,-4.137 -14.60634,-88.313 2.10341,-79.256 16.000345,8.672 40.653532,83.537 45.806303,62.017 8.222387,-34.34 39.309032,-39.202 42.768295,-54.449 3.429483,-15.116 -19.089981,-12.023 -25.473925,-5.676 -58.492543,58.155 54.8239603,98.131 82.030821,59.284 2.053685,-2.932 -2.025428,-6.867 -3.038142,-10.301"
       id="path678" /><path
       style="fill:none;stroke:#ffffff;stroke-width:5.5"
       d="m 316.26208,14807.844 c -28.47253,12.569 -26.73837,5.37 -37.86045,36.58 -39.27288,110.207 92.77448,106.731 92.08024,57.392 -0.11821,-8.402 -7.99243,-20.032 -12.38636,-27.329"
       id="path680" /><path
       style="fill:none;stroke:#ffffff;stroke-width:5.5"
       d="m 354.35618,14821.93 c 31.12963,32.635 27.32963,74.49 40.43122,113.313"
       id="path682" /><path
       style="fill:none;stroke:#ffffff;stroke-width:5.5"
       d="m 423.0659,14924.731 c 7.61302,-39.436 10.35815,-23.74 2.80446,-47.722"
       id="path684" /><path
       style="fill:none;stroke:#ffffff;stroke-width:5.5"
       d="m 418.15804,14835.384 c -2.38363,-19.684 -4.59748,-39.81 4.44037,-57.812"
       id="path686" /><path
       style="fill:none;stroke:#ffffff;stroke-width:5.5"
       d="m 452.27916,14821.509 c 7.40069,5.466 14.004,12.222 22.20209,16.398 18.22151,9.282 45.34672,3.681 59.59504,-9.881 1.27346,-1.212 18.65751,-22.707 6.3101,-25.648 -29.11457,-6.932 -54.22813,51.841 -49.31209,73.37 8.52313,37.326 42.40638,11.002 48.37721,-11.142 2.39305,-8.875 0.93482,-18.36 1.40224,-27.54"
       id="path688" /><path
       style="fill:none;stroke:#ffffff;stroke-width:5.5"
       d="m 544.35937,14817.515 c 14.14542,-0.524 -2.48169,-18.769 3.27184,-24.807 0.61251,-0.643 1.75215,1.222 1.63602,2.102 -1.01245,7.677 -7.54356,15.424 -4.90786,22.705 6.71777,18.556 21.3451,33.214 31.31666,50.244 1.58592,2.709 1.61698,11.497 3.27182,8.83 5.49544,-8.857 4.70267,-70.522 14.02241,-71.267 16.62517,-1.329 16.71338,105.205 30.38181,46.46"
       id="path690" /><path
       style="fill:none;stroke:#ffffff;stroke-width:5.5"
       d="m 626.15652,14830.128 c -9.6557,-20.218 18.97192,-74.818 11.45165,-29.852 -1.75805,10.512 -13.36712,19.368 -11.45165,29.852 3.12341,17.096 18.73126,29.506 25.24038,45.62 3.06811,7.596 2.34021,16.225 3.03813,24.387 0.16174,1.891 1.3847,6.092 -0.46749,5.676 -3.5687,-0.803 -5.29736,-5.046 -7.94602,-7.569"
       id="path692" /><path
       style="fill:none;stroke:#ffffff;stroke-width:5.5"
       d="m 619.84642,14863.765 c -13.51899,9.954 97.04049,3.939 80.86241,13.034"
       id="path694" /><path
       style="fill:none;stroke:#ffffff;stroke-width:5.5"
       d="m 836.25841,14852.413 c 24.67909,2.595 21.06306,6.835 41.59975,-20.603 6.82938,-9.124 12.47154,-19.401 15.89199,-30.272 21.48004,-68.272 -67.43634,-20.278 -63.33434,-8.83 12.3636,34.505 138.70283,46.419 141.62598,83.671 3.38616,43.151 -114.83486,63.694 -137.65297,4.625 -3.44155,-8.909 1.2464,-19.061 1.86959,-28.591 z"
       id="path696" /><path
       style="fill:none;stroke:#ffffff;stroke-width:5.5"
       d="m 1106.4228,14756.969 c -10.1588,2.031 -20.7697,0.198 -25.474,11.142 -4.8122,11.195 6.5812,13.104 14.2562,18.08 45.5044,29.499 86.8821,51.726 53.2849,112.682 -19.5512,35.473 -42.1516,-56.085 -20.3325,-74.421 17.2062,-14.459 59.7686,13.812 84.6019,-0.42 14.5836,-8.358 28.8576,-41.529 -3.7395,-44.568 -31.473,-2.935 -52.5351,87.359 3.5058,87.665 48.0143,0.262 33.6414,-71.247 30.849,-98.597 -0.8682,-8.504 2.4067,0.07 6.0766,6.517 1.5199,2.668 37.2972,70.489 40.1974,64.75 14.3629,-28.423 -6.5201,-71.531 18.9301,-97.546 3.2526,-3.325 4.1686,5.494 4.2068,5.677 2.1274,10.172 12.0115,93.003 25.2401,89.136 13.5173,-3.952 -0.3359,-36.786 9.5821,-44.778 2.2269,-1.795 5.6077,1.127 8.4133,1.681 14.6249,2.892 31.1998,5.525 45.8066,0.421 3.3404,-1.167 26.3738,-20.921 10.7505,-26.489 -39.844,-14.201 -41.8908,53.914 -12.6202,53.398 48.2966,-0.852 19.7368,-115.528 44.6379,-36.58 4.0402,12.81 14.9573,32.504 14.9573,46.461 0,1.768 -1.7227,-3.28 -1.6361,-5.046 1.9481,-39.721 -0.361,-51.072 17.7617,-82.619 0.1812,-0.316 17.6117,-25.396 22.4357,-13.245"
       id="path698" /><path
       style="fill:none;stroke:#ffffff;stroke-width:5.5"
       d="m 1664.7471,14742.043 c -1.636,-6.237 1.3289,-20.346 -4.9079,-18.71 -6.2367,1.636 9.6143,14.303 4.9079,18.71 -8.3606,7.829 -24.383,0.952 -33.4201,7.989 -8.0525,6.27 -19.9789,36.952 -11.9189,49.403 19.9108,30.76 76.6086,2.913 83.9006,-25.017 2.2957,-8.793 -0.8359,-16.707 -10.7507,-16.818 -41.8357,-0.47 1.7918,86.774 25.2403,66.852 26.0324,-22.116 -11.0027,-72.506 1.6361,-87.665 5.3205,-6.381 11.0929,12.534 15.1907,19.762 8.4131,14.839 16.3418,29.949 24.773,44.778 22.0744,38.825 4.7331,-21.8 7.0113,-34.267 4.0746,-22.297 90.8782,2.472 84.1342,-35.949 -5.3782,-30.64 -55.3404,14.606 -59.1278,23.756 -18.0895,43.702 86.3148,50.759 102.597,40.994 2.8447,-1.706 -5.9674,-2.945 -9.1144,-3.994"
       id="path700" /><path
       style="fill:none;stroke:#ffffff;stroke-width:5.5"
       d="m -94.359786,15152.198 c -8.179684,3.293 -18.500044,3.455 -24.539064,9.881 -22.91289,24.378 -50.75068,100.365 -15.65832,126.977 25.29321,19.181 62.604835,0.738 80.161222,-19.131 5.496267,-6.22 7.946004,-14.575 11.919006,-21.863 -24.553823,-53.672 32.12806,-49.639 52.817575,-14.926 1.193,2.001 7.594576,18.397 5.375231,24.386 -0.852163,2.3 -4.877069,-1.564 -6.5437764,-3.363"
       id="path702" /><path
       style="fill:none;stroke:#ffffff;stroke-width:5.5"
       d="m 5.9002655,15185.204 c 12.2306285,7.358 26.5136145,12.067 36.6918835,22.074 12.741116,12.526 19.190023,38.822 23.136834,55.71 5.847593,25.021 1.265068,11.65 1.168545,8.409 -0.230044,-7.725 0.585322,-67.288 11.217958,-58.654 11.299113,9.176 15.108562,25.405 21.033557,37.842"
       id="path704" /><path
       style="fill:none;stroke:#ffffff;stroke-width:5.5"
       d="m 104.75796,15199.92 c 1.48012,8.128 -0.7119,17.927 4.44037,24.386 14.67387,18.397 49.5107,13.661 64.26921,33.006 15.21782,19.947 -21.5351,58.722 -37.39293,29.432 -3.52713,-6.515 -3.89515,-14.296 -5.84273,-21.443"
       id="path706" /><path
       style="fill:none;stroke:#ffffff;stroke-width:5.5"
       d="m 154.77108,15164.391 c 5.92057,3.644 13.75605,5.25 17.76173,10.932 4.05312,5.749 31.48576,84.309 27.81102,88.716 -1.14826,1.377 -3.58349,-0.14 -5.37523,-0.21"
       id="path708" /><path
       style="fill:none;stroke:#ffffff;stroke-width:5.5"
       d="m 173.00018,15226.408 c 9.57318,-24.85 1.09416,-18.884 20.09869,-25.437 66.32955,-22.872 18.80678,-16.847 25.24038,34.898 0.79146,6.365 4.65263,19.601 14.95714,17.869 18.60707,-3.128 28.77775,-30.29 34.58848,-41.835 2.05526,-4.084 1.94757,-18.17 1.16853,-13.665 -1.51579,8.765 10.93285,84.063 15.19098,60.125"
       id="path710" /><path
       style="fill:none;stroke:#ffffff;stroke-width:5.5"
       d="m 282.14096,15197.817 c 6.9333,8.269 14.71174,15.898 20.79988,24.807 14.99203,21.94 15.6559,33.258 15.65833,33.216 0.53761,-9.187 -2.37376,-82.877 19.39764,-47.091 7.54779,12.407 11.72988,26.708 19.63134,38.892"
       id="path712" /><path
       style="fill:none;stroke:#ffffff;stroke-width:5.5"
       d="m 358.09551,15191.51 c 4.19124,24.686 27.12196,49.781 25.00656,75.472 -3.81721,-10.091 -11.64718,-19.485 -11.45164,-30.272 0.0229,-1.263 32.96212,-25.391 40.66488,-35.949"
       id="path714" /><path
       style="fill:none;stroke:#ffffff;stroke-width:5.5"
       d="m 426.5714,15165.863 c -3.76455,6.524 34.59601,116.078 43.70316,93.551"
       id="path716" /><path
       style="fill:none;stroke:#ffffff;stroke-width:5.5"
       d="m 482.19356,15165.022 c 27.83387,0.575 40.81211,133.131 6.30997,106.375"
       id="path718" /><path
       style="fill:none;stroke:#ffffff;stroke-width:5.5"
       d="m 442.22973,15199.92 c 32.17481,2.904 27.13966,-0.09 43.23567,9.249"
       id="path720" /><path
       style="fill:none;stroke:#ffffff;stroke-width:5.5"
       d="m 695.09993,15108.47 c -0.85694,-6.166 3.5959,-19.357 -2.5708,-18.5 -6.16667,0.857 1.89275,12.311 2.5708,18.5 1.97101,17.991 2.09362,36.231 5.37522,54.029 2.04531,11.093 6.58318,21.593 10.51676,32.165 4.8532,13.044 12.33861,25.749 11.45165,25.858 -3.27176,0.401 -5.29733,-3.924 -7.946,-5.887"
       id="path722" /><path
       style="fill:none;stroke:#ffffff;stroke-width:5.5"
       d="m 674.53373,15177.005 c 18.08819,-20.946 53.46258,-7.984 74.08495,-18.29"
       id="path724" /><path
       style="fill:none;stroke:#ffffff;stroke-width:5.5"
       d="m 773.3914,15110.993 c 23.436,20.808 16.62515,12.014 35.28968,42.046 3.14433,5.059 30.56932,43.524 24.07182,54.869 -3.73857,6.528 -10.85303,-11.398 -12.62018,-18.71 -7.42889,-30.74 1.36448,-47.738 21.96841,-68.955"
       id="path726" /><path
       style="fill:none;stroke:#ffffff;stroke-width:5.5"
       d="m 893.51647,15097.749 c 11.60894,30.58 7.64651,62.103 5.60893,93.761 -1.53212,23.806 -2.12524,21.793 -15.19097,0.841"
       id="path728" /><path
       style="fill:none;stroke:#ffffff;stroke-width:5.5"
       d="m 854.95501,15134.749 c 33.92231,15.257 20.80003,8.052 40.43119,19.551"
       id="path730" /><path
       style="fill:none;stroke:#ffffff;stroke-width:5.5"
       d="m 926.23521,15170.278 c 13.63912,-26.391 18.9565,-39.026 10.5168,-64.33"
       id="path732" /><path
       style="fill:none;stroke:#ffffff;stroke-width:5.5"
       d="m 936.98595,15074.413 c 8.95871,3.714 20.3618,3.958 26.87616,11.143 2.96032,3.264 9.38586,36.788 10.75045,44.358 0.79306,4.399 1.34035,8.839 2.10341,13.244 0.17216,0.994 0.4822,3.928 0.70106,2.943 1.02807,-4.624 3.21332,-50.013 10.75045,-47.301 0.34049,0.123 14.75582,44.002 17.76172,50.034"
       id="path734" /><path
       style="fill:none;stroke:#ffffff;stroke-width:5.5"
       d="m 1020.1852,15121.505 c 6.9194,20.423 1.1022,24.235 21.2672,24.806 17.9372,0.509 36.2826,-19.33 12.3865,-28.38 -4.1046,-1.555 -3.7454,9.065 -1.8697,13.034 9.5198,20.14 62.9844,83.79 42.3008,110.159 -40.0875,51.107 -74.6432,-12.797 -92.3139,-43.517"
       id="path736" /><path
       style="fill:none;stroke:#ffffff;stroke-width:5.5"
       d="m 1256.9295,15046.874 c -0.3063,40.117 3.1479,86.897 28.9799,120.46"
       id="path738" /><path
       style="fill:none;stroke:#ffffff;stroke-width:5.5"
       d="m 1242.6736,15120.874 c 20.1862,-15.1 34.8258,-24.957 58.1928,-27.96"
       id="path740" /><path
       style="fill:none;stroke:#ffffff;stroke-width:5.5"
       d="m 1337.3246,15114.567 c -2.6292,50.659 -28.6791,21.213 -21.9683,-9.46 7.3653,-33.665 41.8002,-14.949 51.6489,5.466 10.8397,22.469 -18.5778,67.703 -28.7459,39.102 -3.9215,-11.03 -0.6231,-23.405 -0.9347,-35.108 z"
       id="path742" /><path
       style="fill:none;stroke:#ffffff;stroke-width:5.5"
       d="m 1474.9777,15078.198 c -19.9641,97.696 95.2145,35.62 83.6666,-9.671 -2.124,-8.33 -12.2039,-13.91 -18.6965,-18.29 51.1034,-78.52 72.4424,137.864 52.3503,103.222"
       id="path744" /><path
       style="fill:none;stroke:#ffffff;stroke-width:5.5"
       d="m 1570.7971,15015.55 c 0.3116,-6.307 -1.9596,-13.309 0.9348,-18.921 7.4989,-14.54 47.6904,26.01 49.5457,49.614 1.5065,19.166 -25.2154,64.487 -23.6043,13.034"
       id="path746" /><path
       style="fill:none;stroke:#ffffff;stroke-width:5.5"
       d="m 1638.3383,14993.896 c 13.4376,18.911 6.0883,-25.376 15.892,-24.807 6.7312,0.391 5.7853,12.197 8.1797,18.5 7.2694,19.137 58.6978,122.411 28.7459,132.234 -24.3555,7.987 -46.2926,-23.102 -40.665,-44.779 3.6026,-13.877 12.9352,-20.617 22.4359,-30.062"
       id="path748" /><path
       style="fill:none;stroke:#ffffff;stroke-width:5.5"
       d="m 1711.4884,15027.112 c -1.2471,14.133 -3.2554,79.346 28.5122,74.001 16.5264,-2.781 30.2869,-19.73 36.2242,-33.637 4.2483,-9.951 4.9279,-21.084 6.7776,-31.744 0.2649,-1.527 0.8615,-5.422 -0.4673,-4.625 -4.3045,2.581 -16.8771,88.644 5.1415,73.79"
       id="path750" /><path
       style="fill:none;stroke:#ffffff;stroke-width:5.5"
       d="m 1804.2697,15025.641 c -3.0656,6.517 5.8351,-42.388 4.9078,-32.796 -1.0635,11.002 -6.9261,21.928 -4.9078,32.796 1.5945,8.585 33.0298,64.989 23.6043,87.034 -0.56,1.31 -42.5685,-41.306 -34.3548,-45.83 21.1881,-11.669 73.9642,-2.527 82.2645,-35.108 9.6511,-37.883 -45.266,8.105 -48.8444,28.171 -8.5125,47.732 52.1198,41.659 78.2913,31.954 5.1329,-1.903 17.1768,-5.571 10.9844,-11.142"
       id="path752" /><path
       style="fill:none;stroke:#ffffff;stroke-width:5.5"
       d="m 97.980497,15383.869 c -10.049367,8.339 -21.489659,15.242 -30.148106,25.017 -26.601319,30.033 -24.500948,68.41 -9.114549,103.012 5.982639,13.454 19.817625,26.374 30.148106,36.79 3.195489,3.222 9.581915,14.208 9.581915,9.67 0,-4.224 -5.740419,-6.214 -8.880867,-9.039"
       id="path754" /><path
       style="fill:none;stroke:#ffffff;stroke-width:5.5"
       d="m 3.5631742,15488.352 c 40.5116528,-10.702 85.0760818,-2.243 125.2664758,-14.295"
       id="path756" /><path
       style="fill:none;stroke:#ffffff;stroke-width:5.5"
       d="m 104.99164,15409.937 c 30.93805,23.535 54.19777,67.182 71.98154,94.813"
       id="path758" /><path
       style="fill:none;stroke:#ffffff;stroke-width:5.5"
       d="m 200.11014,15482.676 c -6.62167,1.332 -15.17877,8.859 -19.86501,3.995 -19.85184,-20.605 1.51143,-90.069 32.48507,-56.341 15.29279,16.652 18.04669,80.89 5.60905,26.068"
       id="path760" /><path
       style="fill:none;stroke:#ffffff;stroke-width:5.5"
       d="m 217.87175,15402.159 c 29.00297,-17.748 38.61421,50.663 50.94797,52.557 12.43812,1.91 -3.14968,-72.917 17.99543,-44.148 4.37422,5.951 35.97875,62.914 39.49633,61.387 4.61151,-2.003 7.16603,-126.391 12.38637,-81.779"
       id="path762" /><path
       style="fill:none;stroke:#ffffff;stroke-width:5.5"
       d="m 429.14219,15398.795 c -13.26417,-86.344 64.257,70.803 68.47589,80.307 3.26371,7.353 5.87774,14.997 8.17983,22.705 0.52186,1.747 1.04809,7.098 0.23368,5.466 -13.66957,-27.387 -15.045,-66.652 -14.02241,-96.495 0.33372,-9.74 0.10115,-28.316 9.81572,-27.539 3.81122,0.304 14.19961,6.891 19.3975,10.09 2.58758,6.598 -6.15251,85.905 23.83817,74.842 24.36181,-8.987 32.61557,-35.755 36.45806,-58.654 1.04498,-6.227 4.69504,-23.993 0.93487,-18.92 -3.0287,4.086 3.73732,74.357 20.33237,65.17"
       id="path764" /><path
       style="fill:none;stroke:#ffffff;stroke-width:5.5"
       d="m 607.69374,15361.165 c -1.79972,15.574 65.72485,147.873 10.0494,83.25 m 0,0 c 113.79766,-53.62 -2.2965,-3.14 56.08954,-21.443 52.37556,-16.419 26.47052,-77.356 -19.16396,-30.483 -4.97534,5.11 -9.6142,11.459 -10.75046,18.5 -8.92766,55.323 98.72529,42.29 125.96766,29.221"
       id="path766" /><path
       style="fill:none;stroke:#ffffff;stroke-width:5.5"
       d="m 61.195371,16000.421 c -1.223595,-11.251 -2.447187,-22.502 -3.670781,-33.753 -0.407813,-0.979 -1.338035,-3.989 -1.223439,-2.935 10.73685,98.726 3.268027,-53.093 -10.604296,140.515 -2.939447,41.024 5.051422,124.89 9.380625,165.83 2.193099,20.74 28.123329,147.956 13.459221,97.591"
       id="path768" /><path
       style="fill:none;stroke:#ffffff;stroke-width:5.5"
       d="m -41.176126,16101.313 c -8.972812,-16.509 -18.709235,-32.626 -26.918438,-49.529 -5.335572,-10.985 -17.596512,-30.785 -2.854923,-42.558 31.225688,-24.939 161.547231,-59.986 199.848537,-62.37 5.65373,-0.352 13.06206,1.857 15.49852,6.971 5.96638,12.523 -17.38357,39.579 -20.39274,44.026"
       id="path770" /><path
       style="fill:none;stroke:#ffffff;stroke-width:5.5"
       d="m 145.62124,15907.967 c 10.87609,-0.612 24.66879,-9.271 32.62829,-1.835 16.5992,15.51 20.86716,40.371 30.58899,60.903 30.54743,64.515 42.30548,126.066 57.50743,194.447 0.58385,2.626 -0.12033,-5.384 0,-8.072 1.29908,-29.019 0.3752,-53.647 10.19648,-81.08 5.19962,-14.525 14.80474,-9.161 23.24764,1.1 18.23816,22.166 64.20409,158.753 40.7855,148.22 -26.57607,-11.953 21.9434,-62.704 30.18118,-67.139 20.15715,-10.853 107.56048,-26.018 111.75211,-48.061 3.69282,-19.421 -49.24242,-49.646 -73.82182,-10.64 -66.90696,106.176 51.74406,132.467 131.73705,113.733 27.92912,-6.541 26.95408,-1.541 24.0633,-15.409"
       id="path772" /><path
       style="fill:none;stroke:#ffffff;stroke-width:5.5"
       d="m 902.19086,15967.401 c 2.49243,21.959 28.13198,-70.352 4.07861,-72.275 -10.57514,-0.846 -18.99452,10.123 -26.51065,17.61 -52.30473,52.103 -81.70539,130.383 -37.11469,197.749 24.33156,36.759 191.98627,124.924 66.48024,96.123"
       id="path774" /><path
       style="fill:none;stroke:#ffffff;stroke-width:5.5"
       d="m 834.07912,16163.683 c -124.84221,-62.397 -2.00787,0.323 0,0 45.55564,-7.334 80.65431,-45.443 123.57986,-62.37"
       id="path776" /><path
       style="fill:none;stroke:#ffffff;stroke-width:5.5"
       d="m 1002.1153,16032.34 c -8.32254,123.246 145.2387,46.697 107.2654,-15.409 -4.3524,-7.119 -3.3987,16.715 -2.039,24.948 1.8294,11.076 13.191,90.2 39.5615,86.95 6.9154,-0.852 11.6919,-7.582 17.5378,-11.373"
       id="path778" /><path
       style="fill:none;stroke:#ffffff;stroke-width:5.5"
       d="m 966.6318,15868.711 c 26.82163,108.791 42.7062,219.286 75.045,326.891 9.5746,31.858 25.7274,57.877 15.9066,48.061"
       id="path782" /><path
       style="fill:none;stroke:#ffffff;stroke-width:5.5"
       d="m 1273.7461,15984.645 c -49.7368,-67.249 -94.9354,86.999 -77.4924,91.72 36.3966,9.852 157.9947,-70.309 129.2897,-114.467 -23.8603,-36.705 -75.9763,0.519 -51.7973,22.747 20.947,19.257 53.5202,19.798 78.7157,33.019 16.1611,8.481 101.2958,61.801 108.4894,87.685 11.9328,42.935 -8.651,160.537 -83.61,134.278 -45.276,-15.86 -47.1092,-60.516 -57.9154,-97.59"
       id="path784" /><path
       style="fill:none;stroke:#ffffff;stroke-width:5.5"
       d="m 1708.9266,15862.474 c -23.8127,-35.027 -60.2222,-76.633 -44.4563,9.906 8.9246,48.986 87.0055,172.091 85.2417,190.778 -0.5553,5.883 -7.8853,8.805 -11.8279,13.207"
       id="path786" /><path
       style="fill:none;stroke:#ffffff;stroke-width:5.5"
       d="m 1666.102,16043.713 c -20.9628,-20.188 -49.9567,-26.792 -25.2871,-51.73 32.9661,-33.327 88.0843,-35.752 115.8304,-73.01 6.051,-8.125 13.2338,-73.49 28.5502,-60.168 23.6482,20.568 59.4874,86.214 73.4137,117.769 8.9207,20.212 10.3015,43.904 22.4321,62.369 7.2272,11.002 10.9089,-23.983 15.4983,-36.321 7.3731,-19.82 8.5253,-44.356 24.0632,-58.701 31.7567,-29.318 37.0344,111.508 56.2843,96.857"
       id="path788" /><path
       style="fill:none;stroke:#ffffff;stroke-width:5.5"
       d="m 1990.3458,15954.561 c -28.6762,1.174 -3.4497,114.542 40.3777,73.009 45.2462,-42.877 50.373,-58.185 54.6525,-108.23 0.771,-9.017 0.3351,-18.106 0,-27.149 -0.074,-1.997 -1.439,-7.857 -1.2234,-5.87 3.119,28.757 42.5993,191.789 60.3623,111.899 8.7881,-39.525 3.2192,-80.949 2.8552,-121.438 -0.1761,-19.578 -1.4324,-39.132 -2.0396,-58.701 -0.2086,-6.724 -4.7046,-25.355 -0.4078,-20.178 33.7663,40.679 93.2143,228.636 44.4563,264.521 -31.6804,-106.335 -58.2853,-84.474 35.0756,-117.402 12.119,-4.274 68.3206,-22.912 87.2808,-19.812"
       id="path790" /><path
       style="fill:none;stroke:#ffffff;stroke-width:5.5"
       d="m 2643.3207,15771.12 c -17.1298,-0.244 -36.7482,-9.629 -51.3895,-0.733 -81.0588,49.246 6.4808,226.661 104.8187,147.853"
       id="path792" /><path
       style="fill:none;stroke:#ffffff;stroke-width:5.5"
       d="m 2754.2571,15892.191 c -19.1691,-6.359 -47.9481,-1.287 -57.5072,-19.078 -61.963,-115.321 118.4174,-76.796 94.6218,-14.308 -5.9219,15.551 -24.743,22.257 -37.1146,33.386 z"
       id="path794" /><path
       style="fill:none;stroke:#ffffff;stroke-width:5.5"
       d="m 2765.2693,15747.64 c 9.4109,-28.988 7.4157,-69.762 50.166,-26.416 15.4168,15.632 25.9504,36.017 33.8519,56.5 9.576,24.825 13.3747,51.567 17.9456,77.779 0.9083,5.208 1.0573,11.224 -1.6311,15.776 -1.1296,1.912 -4.8644,-1.858 -5.3026,-4.036 -6.1521,-30.568 -8.6857,-90.762 22.4319,-110.798 49.4695,-31.852 87.7867,76.295 78.308,97.224"
       id="path796" /><path
       style="fill:none;stroke:#ffffff;stroke-width:5.5"
       d="m 2961.8552,15760.848 c 11.5258,-169.5 129.1646,48.695 73.8214,143.817 -4.6397,7.975 -18.2173,2.935 -27.3262,4.402"
       id="path798" /><path
       style="fill:none;stroke:#ffffff;stroke-width:5.5"
       d="m 2973.6826,15854.402 c 23.2844,-56.727 5.4758,-45.547 61.5863,-64.938 9.8134,-3.391 20.1501,-5.023 30.181,-7.704 6.273,-1.677 33.0806,-8.056 41.1933,-13.942 7.8956,-5.727 15.7501,-30.157 6.1182,-28.616 -39.3449,6.292 -38.9729,107.466 0,112.632 60.6546,8.041 71.7031,-56.31 84.0176,-94.655 1.8524,-5.768 2.9813,11.742 4.4866,17.61 3.5033,13.656 6.9593,27.35 11.4196,40.724 11.3869,34.144 17.0998,51.221 45.6796,70.074 24.0357,-60.954 4.3333,-120.182 -38.338,-166.564 -29.1628,78.329 -16.8741,-127.899 14.6827,-108.596 66.8856,40.913 96.2262,135.045 120.7251,202.151 2.5689,7.037 2.9573,29.814 2.0391,22.38 -3.3809,-27.374 -1.0793,-93.268 22.8398,-112.633 39.8878,-32.292 66.3508,76.008 79.9393,69.341"
       id="path800" /><path
       style="fill:none;stroke:#ffffff;stroke-width:5.5"
       d="m 3466.7786,15676.098 c -14.003,-1.712 -29.7748,-12.161 -42.0089,-5.136 -34.6779,19.911 122.1843,136.092 125.2111,155.557 7.62,49.001 -44.7434,127.117 -92.9907,142.35 -8.5042,2.685 -17.4016,-3.913 -26.1027,-5.87"
       id="path802" /><path
       style="fill:none;stroke:#ffffff;stroke-width:5.5"
       d="m 75.062403,16642.83 c 0.508717,-59.496 -0.152096,-29.881 1.223439,-71.542 0.201826,-6.113 1.646539,-24.334 0.407815,-18.344 -25.183256,121.764 20.9613,255.616 53.429063,371.65 2.53425,9.057 27.4643,95.065 25.28696,97.591 -5.24395,6.082 -14.41094,-7.093 -21.61641,-10.64"
       id="path804" /><path
       style="fill:none;stroke:#ffffff;stroke-width:5.5"
       d="m 22.04138,16885.705 c -11.691874,-10.395 -27.1290543,-17.709 -35.075626,-31.185 -18.84838,-31.964 177.416736,-26.944 177.416736,-39.623"
       id="path806" /><path
       style="fill:none;stroke:#ffffff;stroke-width:5.5"
       d="m 152.96257,16731.615 c 65.00356,21.256 89.07802,81.064 119.09346,136.846 4.78607,8.895 8.77183,18.202 13.45922,27.149 0.89392,1.707 2.98029,6.676 3.26273,4.77 3.80339,-25.659 -7.90913,-57.987 7.34132,-81.814 19.75554,-30.866 73.67016,110.995 75.04525,125.84"
       id="path808" /><path
       style="fill:none;stroke:#ffffff;stroke-width:5.5"
       d="m 373.61166,16866.26 c -5.40666,-47.792 -9.41713,-97.82 -28.95775,-142.35 -28.87081,-64.144 -43.51235,-53.535 -15.90608,-96.489"
       id="path810" /><path
       style="fill:none;stroke:#ffffff;stroke-width:5.5"
       d="m 391.14948,16617.515 c -115.19887,205.838 192.62225,53.726 183.12656,181.239 -3.5492,47.661 -75.86553,149.733 -131.73704,104.194 -15.5271,-12.655 -23.38358,-32.53 -35.07539,-48.795"
       id="path812" /><path
       style="fill:none;stroke:#ffffff;stroke-width:5.5"
       d="m 805.93724,16675.482 c -10.87609,-15.287 -24.76298,-28.827 -32.62828,-45.86 -10.71176,-23.197 2.82779,-44.183 4.89424,-42.191 13.84003,13.338 25.47511,80.392 27.73404,88.051 z"
       id="path814" /><path
       style="fill:none;stroke:#ffffff;stroke-width:5.5"
       d="m 781.46593,16709.235 c 10.77566,68.71 44.31623,123.242 75.86086,183.441 3.45046,6.584 14.12457,24.736 7.74938,20.912 -2.04338,-1.226 -2.71907,-3.914 -4.07861,-5.871"
       id="path816" /><path
       style="fill:none;stroke:#ffffff;stroke-width:5.5"
       d="m 873.23311,16731.982 c 19.44111,10.028 43.02181,14.451 58.3233,30.084 24.56532,25.097 37.79007,80.475 45.67946,114.1 1.61155,6.868 0.22778,27.281 3.26298,20.912 3.37986,-7.092 -2.43554,-15.634 -2.03907,-23.48 1.78322,-35.291 3.56892,-70.681 8.56454,-105.662 4.06844,-28.489 14.70648,-49.751 21.61638,-47.328 47.7076,16.73 26.463,184.728 64.441,107.864"
       id="path818" /><path
       style="fill:none;stroke:#ffffff;stroke-width:5.5"
       d="m 1173.8217,16646.499 c -46.8926,83.929 39.8032,-68.424 29.7736,-51.364 -35.3444,60.119 -99.694,148.926 -61.9941,221.596 30.0153,57.858 109.3843,44.112 53.4291,41.825"
       id="path820" /><path
       style="fill:none;stroke:#ffffff;stroke-width:5.5"
       d="m 1106.526,16843.88 c -13.1873,-3.913 -35.6486,-24.927 -39.562,-11.74 -3.9134,13.188 28.3263,19.676 39.562,11.74 14.4163,-10.182 2.9011,-38.267 15.4983,-50.629 34.0942,-33.458 104.8627,-27.629 145.1963,-15.042 144.0666,34.687 43.7592,76.549 23.2477,52.464 -25.7998,-30.294 -47.2155,-130.549 7.7489,-150.788 55.9432,-20.6 63.4472,84.135 59.5467,106.028 -5.1422,28.864 -43.8034,127.222 -94.2141,91.721 -30.2884,-21.331 -39.9516,-74.852 -49.3505,-104.195"
       id="path822" /><path
       style="fill:none;stroke:#ffffff;stroke-width:5.5"
       d="m 1581.2681,16518.824 c -0.1359,0.122 -0.2719,0.244 -0.4078,0.367 6.1178,18.588 12.2356,37.177 18.3535,55.766 14.1928,5.426 15.5694,-28.153 14.2748,-43.292 -0.8757,-10.241 -11.4464,-17.759 -19.9847,-23.481 -39.7943,-26.664 -67.2996,99.839 5.7099,66.773 56.504,62.531 30.9576,207.198 70.1508,278.829 14.3361,26.202 20.1657,-23.214 21.6164,-28.983"
       id="path824" /><path
       style="fill:none;stroke:#ffffff;stroke-width:5.5"
       d="m 1715.8603,16621.551 c -10.4682,10.028 -30.5166,15.615 -31.4048,30.084 -3.6422,59.335 212.5812,35.765 181.4949,117.035 -32.0974,83.913 -110.0701,95.321 -145.1958,11.74"
       id="path826" /><path
       style="fill:none;stroke:#ffffff;stroke-width:5.5"
       d="m 2202.8382,16536.434 c -15.2266,-3.791 -31.7115,-18.522 -45.6797,-11.373 -16.0184,8.198 -20.0156,30.489 -25.2872,47.694 -18.6847,60.982 10.6973,148.852 88.0969,147.12 14.0197,-0.314 26.3744,-9.539 39.5616,-14.309"
       id="path828" /><path
       style="fill:none;stroke:#ffffff;stroke-width:5.5"
       d="m 2292.9741,16555.879 c -14.2749,-2.324 -29.7851,-13.227 -42.825,-6.971 -9.3345,4.478 -7.6754,20.216 -6.1176,30.451 10.7934,70.919 84.5783,29.126 112.1597,-1.834 1.7029,-1.912 18.4294,-25.261 15.4987,-35.221 -2.9818,-10.134 -19.451,15.242 -13.867,40.357 5.4007,24.291 17.7783,44.609 35.0752,60.169"
       id="path830" /><path
       style="fill:none;stroke:#ffffff;stroke-width:5.5"
       d="m 2401.4631,16532.031 c -0.5586,-26.6 -18.3604,-75.465 11.0123,-34.119 7.8706,11.078 95.993,167.182 72.1899,151.888"
       id="path832" /><path
       style="fill:none;stroke:#ffffff;stroke-width:5.5"
       d="m 2459.3785,16479.568 c -29.0492,-218.907 130.5115,244.998 79.9393,190.411"
       id="path834" /><path
       style="fill:none;stroke:#ffffff;stroke-width:5.5"
       d="m 2532.3845,16540.47 c 45.172,-23.22 19.2063,-13.038 74.6372,-26.416 26.4138,-6.374 42.8982,-7.233 64.4409,-22.379 13.8358,-9.728 30.7583,-55.897 -2.4469,-55.399 -85.2476,1.278 -108.7426,134.395 -32.2204,168.398 9.6078,4.269 21.1799,5.384 31.4044,2.935 109.3814,-26.199 44.0066,-196.956 40.7856,-264.888 -0.29,-6.111 5.6739,10.908 9.3805,15.776 34.5477,45.369 107.0546,112.895 127.2506,172.067 13.9922,40.996 -33.4598,130.809 -80.3471,91.353 -39.5044,-33.243 -28.8049,-123.338 17.9456,-143.45"
       id="path836" /><path
       style="fill:none;stroke:#ffffff;stroke-width:5.5"
       d="m 3117.2477,16213.579 c -3.6709,-11.007 -0.01,-36.69 -11.0123,-33.019 -11.0064,3.67 6.0936,22.511 11.0123,33.019 23.0962,49.342 141.7486,268.963 89.3198,319.186 -4.668,4.472 -12.7793,1.957 -19.169,2.935"
       id="path838" /><path
       style="fill:none;stroke:#ffffff;stroke-width:5.5"
       d="m 3123.7731,16449.483 c -39.2658,-90.157 76.4474,-69.307 99.9244,-131.343 7.8118,-20.642 -0.4594,-62.163 11.8276,-79.613 1.3023,-1.85 4.6567,1.667 5.7103,3.669 11.1948,21.272 20.1088,43.671 30.5887,65.304 20.8471,43.034 41.4179,90.905 64.4409,133.545 4.3815,8.115 -5.1687,-17.731 -6.9332,-26.782 -4.4347,-22.75 -17.2169,-72.827 -11.0125,-99.058 1.3619,-5.757 25.4778,2.349 44.8641,2.201 40.8488,-0.311 91.4315,-30.516 92.175,-76.678 0.236,-14.646 -17.6405,-2.381 -20.3925,0 -25.5407,22.098 -84.5285,82.347 -68.5194,122.905 22.7915,57.741 132.3507,-11.749 161.1024,-28.617"
       id="path840" /><path
       style="fill:none;stroke:#ffffff;stroke-width:5.5"
       d="m 202.72062,17265.06 c 90.31012,66.495 152.77681,172.954 174.56181,283.232 3.95158,20.003 13.89269,55.292 -5.71008,60.903 -38.96206,11.151 -78.65006,-182.061 -64.44093,-211.324 14.22463,-29.295 53.88027,12.865 58.32329,29.351 51.06148,5.5 69.3212,12.13 117.05415,2.568 15.22772,-3.051 30.02399,-8.205 44.45603,-13.942 104.57751,-41.567 -36.87363,-141.201 -68.11173,-4.035 -4.18241,18.365 -5.19057,38.179 -0.81563,56.499 19.3157,80.884 95.4229,57.251 136.22323,11.374 10.52449,-11.834 16.31422,-27.15 24.47133,-40.724"
       id="path842" /><path
       style="fill:none;stroke:#ffffff;stroke-width:5.5"
       d="m 628.92856,17331.098 c -5.16617,-11.373 -3.78036,-29.792 -15.49852,-34.119 -32.37241,-11.955 -97.94505,193.949 6.11767,199.95 39.40902,2.272 182.96106,-73.28 130.51337,-59.802"
       id="path844" /><path
       style="fill:none;stroke:#ffffff;stroke-width:5.5"
       d="m 872.41751,17441.53 c 6.01393,-39.305 -0.14266,-70.738 -17.94563,-105.295 -18.77113,-20.718 -92.3631,-132.506 -41.6011,-169.866 11.85915,-8.728 28.31921,31.335 49.75829,58.334 27.16588,34.212 62.22678,69.201 106.45009,79.613 48.66394,11.458 148.53914,-63.249 87.28084,-100.525 -48.4485,-29.481 -49.3851,94.541 -24.8794,122.905 61.7517,71.474 70.0547,-33.947 52.2056,-70.074 -4.0035,-8.103 2.0018,18.369 6.1177,26.415 16.1231,31.521 27.6008,48.17 65.2565,55.766 59.6993,12.042 105.1078,-149.429 79.9397,-157.759 -49.0481,-16.233 -71.4619,44.301 -74.2298,80.714 -0.9406,12.373 -2.4368,29.861 8.1572,36.322 22.6842,13.834 154.516,4.23 173.3381,-18.345"
       id="path846" /><path
       style="fill:none;stroke:#ffffff;stroke-width:5.5"
       d="m 1734.6216,17043.464 c 42.0786,62.197 63.8891,135.346 99.1083,201.784 6.081,11.472 15.4539,42.23 22.8398,31.552 12.8489,-18.576 10.1064,-158.066 18.7613,-161.061 26.4914,-9.166 109.8297,245.754 101.1478,96.857 -1.1933,-20.465 -3.5347,-40.846 -5.302,-61.269 -1.3596,-24.214 -2.7132,-48.429 -4.0786,-72.643 -2.8814,-51.099 -6.7625,-50.114 18.3534,-2.934"
       id="path848" /><path
       style="fill:none;stroke:#ffffff;stroke-width:5.5"
       d="m 2093.1254,17186.547 c 9.6591,-63.427 21.6942,-41.609 -14.2749,-73.376 -12.6434,-32.408 -27.1886,-64.136 -37.9303,-97.223 -1.5448,-4.759 -4.2002,-87.38 10.1963,-79.98 17.0708,8.775 95.841,135.925 108.8972,157.025 8.3476,13.491 9.5576,32.379 22.0237,42.191 3.3658,2.65 7.308,-42.685 7.3416,-42.925 3.0786,-21.917 5.4036,-43.978 9.7884,-65.671 3.646,-18.039 12.6531,-65.59 22.8399,-50.263 16.4329,24.724 58.4652,162.4 64.4409,168.031 1.5835,1.493 2.7445,-3.697 2.8552,-5.87 0.7152,-14.046 -0.1852,-28.128 -0.4078,-42.191 -0.3872,-24.464 -6.8289,-185.725 16.3139,-176.837 57.7237,22.17 168.8815,193.322 117.87,252.781 -30.6567,35.734 -68.8698,-53.24 -68.5195,-96.489 0.3431,-42.366 14.9547,-83.405 22.432,-125.107"
       id="path850" /><path
       style="fill:none;stroke:#ffffff;stroke-width:5.5"
       d="m 2505.0582,17034.292 c 2.5832,17.977 15.1288,37.336 7.7494,53.931 -22.3582,50.28 -50.8336,-31.111 -54.6525,-49.162 -3.7214,-17.59 -3.2545,-36.118 -0.8161,-53.931 2.1081,-15.4 5.9728,-31.252 14.2753,-44.393 14.0849,-22.293 38.5629,9.255 39.9694,18.344 41.2358,266.481 -51.2023,-80.392 -6.5255,75.211 z"
       id="path852" /><path
       style="fill:none;stroke:#ffffff;stroke-width:5.5"
       d="m 2516.8857,16955.046 c 3.8787,-8.874 9.0579,-94.019 22.8399,-89.886 29.8469,8.949 59.739,112.588 78.7163,139.414 25.0383,35.394 32.6123,-101.051 39.9693,-112.632 6.8122,-10.723 7.6952,24.253 12.6437,35.954 8.4042,19.872 24.0284,53.012 45.2718,64.571 7.5607,4.114 8.2973,-11.313 9.7885,-38.522 3.293,-60.092 -3.5047,-134.699 16.7222,-191.879"
       id="path854" /></g></svg>
