<?xml version="1.0" encoding="UTF-8" standalone="no"?>
<!-- Created with Inkscape (http://www.inkscape.org/) -->

<svg
   width="4631.355mm"
   height="7231.2104mm"
   viewBox="0 0 4631.3549 7231.2106"
   version="1.1"
   id="svg12"
   inkscape:version="1.2.1 (9c6d41e410, 2022-07-14, custom)"
   sodipodi:docname="tcp_condition_control.svg"
   xml:space="preserve"
   xmlns:inkscape="http://www.inkscape.org/namespaces/inkscape"
   xmlns:sodipodi="http://sodipodi.sourceforge.net/DTD/sodipodi-0.dtd"
   xmlns="http://www.w3.org/2000/svg"
   xmlns:svg="http://www.w3.org/2000/svg"><sodipodi:namedview
     id="namedview14"
     pagecolor="#505050"
     bordercolor="#eeeeee"
     borderopacity="1"
     inkscape:showpageshadow="0"
     inkscape:pageopacity="0"
     inkscape:pagecheckerboard="0"
     inkscape:deskcolor="#505050"
     inkscape:document-units="mm"
     showgrid="true"
     inkscape:zoom="0.034886493"
     inkscape:cx="5962.1929"
     inkscape:cy="18631.853"
     inkscape:window-width="1366"
     inkscape:window-height="746"
     inkscape:window-x="0"
     inkscape:window-y="0"
     inkscape:window-maximized="1"
     inkscape:current-layer="layer1"
     inkscape:lockguides="false"><inkscape:grid
       type="xygrid"
       id="grid344"
       color="#969696"
       opacity="0.39215686"
       empcolor="#000000"
       empopacity="0.17254902"
       dotted="false"
       originx="1182.8681"
       originy="-10232.683" /></sodipodi:namedview><defs
     id="defs9" /><g
     inkscape:label="Layer 1"
     inkscape:groupmode="layer"
     id="layer1"
     transform="translate(1077.8681,-10381.183)"><path
       style="fill:none;stroke:#ffffff;stroke-width:5.5"
       d="m -422.77935,10820.127 c 0.79946,86.625 -3.32015,10.161 0,0 10.13769,-31.023 31.62392,-57.395 42.82477,-88.051 0.91733,-2.511 26.45754,-126.067 27.73404,-132.444 1.37605,-6.874 13.5671,-73.154 15.49853,-73.009 1.85497,0.139 12.51095,36.578 17.94563,56.132 6.88274,24.766 12.8307,49.789 19.98469,74.477 29.48964,101.768 29.80611,92.412 75.86109,210.223 12.93096,33.078 22.33801,58.334 22.024,58.334 -2.60281,0 -37.40777,-48.223 -44.86383,-58.334"
       id="path1327" /><path
       style="fill:none;stroke:#ffffff;stroke-width:5.5"
       d="m -364.45606,10771.332 c 27.87261,18.084 79.73023,-18.201 101.1478,8.072"
       id="path1329" /><path
       style="fill:none;stroke:#ffffff;stroke-width:5.5"
       d="m 1921.9753,10471.957 c 62.5054,75.297 32.1136,188.648 66.8877,271.125 6.6726,15.826 -2.0674,-34.306 -4.0785,-51.363"
       id="path1331" /><path
       style="fill:none;stroke:#ffffff;stroke-width:5.5"
       d="m 1953.7875,10532.126 c -46.1312,-45.826 26.4501,-140.846 81.5708,-107.129 52.8153,32.306 29.5873,96.552 12.2359,141.249 -9.6753,24.923 -24.4832,44.925 -22.4322,45.493 4.0759,1.128 5.8534,-6.523 9.7885,-8.072 15.8817,-6.25 31.8842,-14.491 48.9427,-15.042 32.749,-1.056 91.9435,36.687 87.2807,76.312 -12.3404,104.875 -93.7675,159.33 -168.4438,77.412"
       id="path1333" /><path
       style="fill:none;stroke:#ffffff;stroke-width:5.5"
       d="m -269.83394,11084.282 c 78.41612,223.575 36.22331,460.321 45.67967,691.204 4.5384,110.807 19.47021,220.875 24.06354,331.66 12.38213,298.642 -7.46022,603.443 -42.00917,899.959 -14.44609,123.984 -30.82824,247.765 -42.82453,372.018 -3.43895,35.619 -6.34949,71.118 -9.38085,106.762 -2.35384,27.678 -2.76313,35.386 -4.89421,31.552 -53.40527,-96.082 -78.24782,-207.327 -112.15994,-310.748 -8.22492,-25.084 -15.24834,-50.799 -26.91821,-74.477 -1.44248,-2.927 -9.39229,-3.239 -9.78868,0 -5.71066,46.659 73.24611,313.084 108.08133,337.164 13.42965,9.282 34.186,5.148 48.94268,-1.835 16.37226,-7.748 86.19384,-88.836 94.21432,-97.223 27.19096,-28.434 53.18281,-53.045 84.42586,-75.945"
       id="path1335" /><path
       style="fill:none;stroke:#ffffff;stroke-width:5.5"
       d="m 2085.5243,10977.519 c 21.2458,72.074 26.3946,148.4 37.1147,222.697 15.1006,104.654 33.9775,209.414 39.1544,315.151 9.0474,184.798 -8.1254,369.511 -5.302,554.357 3.4377,225.09 20.478,450.042 45.6795,673.594 14.536,128.94 17.752,259.106 34.2596,387.793 1.1829,9.22 17.1548,107.699 9.3808,109.698 -8.659,2.225 -29.5418,-36.886 -40.3778,-55.033 -97.3101,-162.957 42.0158,59.466 -112.1598,-185.642 -11.7004,-18.601 -23.3696,-37.263 -36.299,-55.032 -1.1768,-1.617 -3.5599,-6.334 -4.0785,-4.402 -10.5265,39.227 106.132,257.734 128.474,297.54 34.7744,61.958 64.7342,112.495 77.9002,94.656 20.6483,-27.979 23.3862,-65.66 38.7464,-96.857 17.0833,-34.696 74.1174,-143.739 114.6071,-154.824"
       id="path1337" /><path
       style="fill:none;stroke:#ffffff;stroke-width:5.5"
       d="m -73.655962,11103.726 c -10.740151,2.691 -34.910978,-2.668 -32.220478,8.072 2.69052,10.74 21.899718,-12.081 32.220478,-8.072 22.297337,8.662 37.077994,30.483 57.507425,42.926 36.72496,22.367 166.631887,32.82 211.676267,41.824 135.235,27.033 262.30757,87.694 395.61873,121.804 71.15172,18.206 144.12417,27.315 216.16267,41.091 74.43388,14.235 148.71076,30.213 223.50427,42.558 82.5839,13.631 165.7223,22.075 246.7519,44.026 116.4869,31.557 220.6139,93.492 334.8483,129.142 36.5773,11.415 76.5305,4.813 112.568,19.812 46.4397,19.328 93.9615,28.994 141.1172,46.227 18.0112,6.582 36.0949,23.607 55.4683,25.681 4.4381,0.476 25.537,6.056 30.589,4.036 19.963,-7.981 -170.2451,-177.061 -47.7187,-127.675 15.1627,6.112 30.5279,12.617 43.6401,22.38 86.2031,64.189 -25.6979,173.539 -64.4408,222.33 -14.9008,18.766 -33.7839,36.039 -34.2596,34.854 -2.7006,-6.727 2.9908,-14.186 4.4863,-21.279"
       id="path1339" /><path
       style="fill:none;stroke:#ffffff;stroke-width:5.5"
       d="m 657.2189,11096.389 c -70.05318,-2.114 -36.27046,-122.845 5.70984,-129.509 55.53723,-8.816 66.37377,127.939 43.6404,146.752 -2.93614,2.43 -5.03259,-6.155 -5.70984,-9.906 -3.71991,-20.6 -6.43845,-41.455 -7.34134,-62.369 -1.27657,-29.569 -0.45681,-59.217 0.81563,-88.786 0.50567,-11.75 -0.33676,-33.733 11.41992,-33.386 51.79644,1.528 98.07892,192.114 81.97876,126.941 -0.37105,-1.502 -19.46987,-89.331 9.78845,-69.707 63.60305,42.659 44.43528,107.272 94.62211,3.302 3.20119,-6.632 10.26597,-22.036 8.56499,-30.451 -5.64126,-27.91 -60.13535,33.83 -62.80947,49.895 -11.62708,69.852 97.47689,49.91 135.81565,48.429 9.62187,-0.372 37.0233,0.171 28.5497,-4.403"
       id="path1341" /><path
       style="fill:none;stroke:#ffffff;stroke-width:5.5"
       d="m 1108.3057,10892.036 c -10.3323,10.517 -23.9444,18.605 -30.997,31.552 -2.5525,4.686 6.7833,3.423 31.8127,9.172 20.7303,4.761 53.2601,10.855 70.1508,26.048 22.34,20.096 9.9639,93.789 -23.6555,96.857 -25.9624,2.37 -10.0944,-42.428 -6.1177,-48.061 7.2011,-10.201 16.9136,-18.579 26.9185,-26.049 16.1741,-12.077 101.9086,-45.533 92.9906,-57.967 -21.7494,-30.325 -98.634,69.483 -13.4592,90.619 9.8226,2.438 20.7751,0.433 30.1814,-3.301 15.4704,-6.142 30.0131,-15.056 42.8245,-25.682 12.6768,-10.515 26.9204,-32.886 25.695,-50.996 -3.3935,-50.156 -88.1811,-8.713 -64.8487,21.645 26.0894,33.946 138.8801,-26.758 94.6219,-45.493 -20.3054,-8.595 -9.0005,33.882 -8.565,34.854 20.6335,46.044 66.7778,71.678 72.1903,126.207 1.0369,10.446 -5.605,20.61 -11.4197,29.35 -25.7533,38.712 -62.9922,4.969 -88.0969,-13.207"
       id="path1343" /><path
       style="fill:none;stroke:#ffffff;stroke-width:5.5"
       d="m 1013.2756,11825.381 c -86.6878,-11.881 -219.18502,26.31 -300.18075,-15.042 -18.83463,-9.616 37.49066,-32.943 98.29289,-68.24 3.75714,-2.181 14.52674,-9.524 11.01212,-6.97 -30.4228,22.103 -111.63425,61.749 -110.12064,107.496 1.31707,39.807 123.42161,42.855 97.06922,21.646"
       id="path1345" /><path
       style="fill:none;stroke:#ffffff;stroke-width:5.5"
       d="m 837.49055,11710.548 c 23.47254,1.508 33.7933,9.984 47.71877,-8.805 15.33565,-20.693 37.61383,-89.377 18.35343,-113.367 -5.18911,-6.463 -7.9448,15.93 -0.4078,45.86 0.19349,0.769 35.14407,81.477 33.03632,83.282 -2.27896,1.953 -5.98188,0.49 -8.97281,0.734"
       id="path1347" /><path
       style="fill:none;stroke:#ffffff;stroke-width:5.5"
       d="m 877.86798,11696.606 c 36.68212,-30.732 109.50868,-6.04 135.40762,-49.529 m 0,0 c -33.49988,42.011 50.5384,108.795 56.2838,38.156"
       id="path1349" /><path
       style="fill:none;stroke:#ffffff;stroke-width:5.5"
       d="m 1080.1639,11604.886 c 0.4232,-2.968 15.821,92.093 42.8245,77.412 9.7002,-5.274 13.3231,-17.61 19.9847,-26.416 31.955,63.011 33.8706,41.348 69.7435,64.205"
       id="path1351" /><path
       style="fill:none;stroke:#ffffff;stroke-width:5.5"
       d="m -62.643845,12041.841 c 79.833866,-23.357 162.835905,-9.318 244.712385,-9.905 76.39269,-0.549 155.47765,-4.261 231.66141,1.834 93.08063,7.446 176.20789,30.96 266.73661,48.795 103.47682,20.386 204.97318,47.6 306.70619,75.944 77.88505,21.701 34.39595,12.541 130.92145,43.292 54.0829,17.231 110.0128,27.447 165.1809,40.357 72.4982,16.967 144.5667,36.019 218.2022,47.328 13.894,2.134 28.0922,-5.136 42.009,-5.136 27.0099,0 101.2427,11.632 122.7642,-1.835 11.607,-7.263 -72.7948,-66.149 -82.3865,-71.542 -25.7412,-14.472 -41.914,-18.515 -29.7737,-16.509 38.955,6.436 103.5501,25.452 121.133,66.038 18.0531,41.672 -38.0156,112.447 -80.3476,117.402 -9.03,1.057 -16.0422,-8.56 -24.0633,-12.841"
       id="path1353" /><path
       style="fill:none;stroke:#ffffff;stroke-width:5.5"
       d="m -16.964379,12266.006 c 159.219049,14.172 307.303009,80.061 463.730439,106.395 99.19118,16.699 199.76547,21.843 298.14144,44.026 107.86859,24.323 205.96217,75.673 310.7848,109.331 120.2416,38.608 243.1168,65.749 361.7668,109.697 22.396,8.295 44.6223,17.042 66.8882,25.681 36.3434,14.101 66.6161,25.643 101.5556,41.091 3.4687,1.534 45.6869,28.617 55.0603,28.617 3.0948,0 -4.8244,-4.019 -6.5254,-6.604 -12.1568,-18.477 -22.4068,-37.047 -37.1147,-53.931 -19.1299,-21.961 -39.1602,-40.081 -62.4018,-57.968 -14.7472,-11.349 -62.486,-32.938 -74.2294,-50.263 -5.7933,-8.546 19.9038,-7.965 30.1809,-6.97 35.3726,3.424 174.3307,27.724 185.5739,69.707 22.7219,84.847 -52.8468,144.326 -117.4621,174.269 -19.0012,8.805 -58.1151,21.877 -62.8093,1.467 -3.6712,-15.961 18.6906,-51.231 24.4711,-62.002"
       id="path1355" /><path
       style="fill:none;stroke:#ffffff;stroke-width:5.5"
       d="m 1158.8797,11793.096 c 11.6918,-6.971 21.6816,-18.485 35.0756,-20.912 54.4179,-9.864 35.2892,138.236 30.5887,153.723 -5.1223,16.876 -13.9856,32.578 -23.6554,47.328 -3.7758,5.759 -20.5957,14.441 -19.1691,7.704 13.9979,-66.103 145.6851,-40.548 121.5403,-27.516"
       id="path1357" /><path
       style="fill:none;stroke:#ffffff;stroke-width:5.5"
       d="m 1408.4862,11859.868 c -86.9387,52.332 31.1196,44.345 64.8493,92.087 14.3156,20.263 3.7012,76.92 -31.4049,63.104 -6.1804,-2.432 -11.0954,-8.273 -13.867,-14.308 -21.1912,-46.151 55.8351,-43.254 78.308,-42.925 80.2816,1.174 48.0105,-34.796 25.6945,-33.754 -42.0105,1.963 -5.1353,50.106 12.2358,56.133 26.4581,9.18 93.2979,-0.08 88.5042,-38.889 -3.4917,-28.271 -49.9351,-15.383 -52.2052,7.337 -5.0054,50.097 118.319,12.383 74.6374,-29.717 -26.4263,-25.469 -14.0962,42.739 -11.8277,48.061 9.0506,21.232 42.7437,56.378 37.1147,81.081 -11.6012,50.914 -83.0212,47.371 -86.465,-2.201"
       id="path1359" /><path
       style="fill:none;stroke:#ffffff;stroke-width:5.5"
       d="m -169.13329,12958.001 c -12.70042,13.061 66.46524,31.117 46.08751,27.883"
       id="path1361" /><path
       style="fill:none;stroke:#ffffff;stroke-width:5.5"
       d="m 1694.353,13105.487 c -181.032,15.23 -362.8049,14.931 -544.0777,32.285 -69.2456,6.63 -137.9028,18.769 -207.1901,24.948 -67.24668,5.997 -134.43717,1.72 -201.48002,7.705 -76.63325,6.841 -152.70702,20.755 -229.21409,28.983 -75.34982,8.104 -151.05661,10.439 -226.35893,19.812 -3.84273,0.478 -65.0908,7.071 -61.99407,1.834 28.36548,-47.97 178.06011,-114.266 218.20222,-155.19 7.15629,-7.296 -18.40219,9.026 -26.91844,14.675 -16.47976,10.932 -32.84046,22.088 -48.53461,34.12 -51.19566,39.251 -121.83232,85.667 -105.22643,109.697 37.65587,54.491 99.18493,70.02 159.06307,84.383 5.54236,1.33 78.91952,14.492 73.00593,19.812"
       id="path1381" /><path
       style="fill:none;stroke:#ffffff;stroke-width:5.5"
       d="m 607.01344,13014.867 c -26.77115,-12.394 35.49161,-117.37 46.08751,-56.866 9.38958,53.615 -19.06008,103.795 -18.35343,155.924 0.4082,30.114 91.23507,-56.064 74.22938,-21.646"
       id="path1383" /><path
       style="fill:none;stroke:#ffffff;stroke-width:5.5"
       d="m 848.46309,13043.484 c 31.13368,-48.455 27.23279,-27.023 26.51061,-81.815 -0.50612,-38.398 1.8342,-87.32 -13.45922,-124.005 -1.89778,-4.553 6.16955,21.511 37.93032,62.736 18.56851,24.102 96.56114,87.592 68.51954,122.906"
       id="path1385" /><path
       style="fill:none;stroke:#ffffff;stroke-width:5.5"
       d="m 911.68059,13016.702 c 33.81224,-46.927 17.4865,-27.681 46.90314,-59.435"
       id="path1387" /><path
       style="fill:none;stroke:#ffffff;stroke-width:5.5"
       d="m 996.10646,12877.654 c -42.77773,64.891 89.06514,122.306 100.74004,48.795"
       id="path1389" /><path
       style="fill:none;stroke:#ffffff;stroke-width:5.5"
       d="m 1078.085,12839.498 c 1.8514,16.343 22.845,100.046 62.8097,70.441 -34.6427,42.239 100.3106,72.924 106.4499,96.857"
       id="path1391" /><path
       style="fill:none;stroke:#ffffff;stroke-width:5.5"
       d="m -98.982486,13492.546 c 7.448364,1.698 85.66253,19.677 101.148037,22.747 76.333323,15.129 151.127509,29.011 225.543319,52.464 94.37468,29.744 186.26563,68.148 283.45878,88.418 134.19169,27.986 272.63823,25.377 407.03865,52.097 152.5786,30.335 309.2605,67.08 455.9811,119.604 94.4054,33.795 186.7653,75.168 279.788,112.632 142.9107,57.556 285.3338,117.393 424.1686,184.175 39.7741,19.131 79.5454,38.302 118.6852,58.701 27.422,14.291 36.308,22.684 59.9549,39.256 4.4281,3.103 12.5833,12.84 14.2751,7.704 19.8747,-60.335 -116.3993,-160.074 -117.0546,-162.895 -1.6637,-7.163 14.2645,-4.542 21.6164,-4.403 24.5602,0.467 63.8474,11.628 83.61,23.114 96.0741,55.834 -95.0193,176.238 -129.2897,143.083 -4.1019,-3.968 -3.8066,-10.761 -5.7098,-16.142"
       id="path1393" /><path
       style="fill:none;stroke:#ffffff;stroke-width:5.5"
       d="m -60.644124,13681.49 c 84.125328,14.926 172.792684,23.16 255.724714,46.227 67.48025,18.769 167.46952,56.997 230.43752,84.016 27.86423,11.956 52.58068,29.581 79.53166,43.292 71.05235,36.149 145.76597,72.83 220.64932,100.158 93.91499,34.273 190.45793,58.703 285.49781,89.152 107.2992,34.378 212.6883,76.522 320.9816,107.496 61.4879,17.588 125.0804,26.453 186.389,44.393 88.9963,26.042 168.8597,71.894 253.6857,108.23 50.0263,21.429 102.6086,35.798 152.5373,57.6 16.7775,7.326 45.2805,21.561 47.3109,17.244 6.3879,-13.582 -97.6699,-128.199 -108.8967,-154.824 -5.2718,-12.502 27.8374,4.406 38.7459,12.474 27.5783,20.398 74.8842,44.623 64.8488,88.051 -11.4059,49.36 -137.0287,117.427 -142.7488,38.523"
       id="path1397" /><path
       style="fill:none;stroke:#ffffff;stroke-width:5.5"
       d="m -125.08509,13877.038 c 211.250266,16.579 375.84078,150.017 562.43116,233.703 143.53876,64.377 296.7428,103.19 438.85109,171.333 168.71154,80.901 308.32644,212.429 462.50674,315.518 141.7891,94.804 271.2131,204.461 424.5764,280.664 9.8608,4.9 20.0232,19.425 29.7731,14.308 5.4993,-2.885 -2.0714,-12.445 -4.894,-17.977 -30.9438,-60.641 -36.6713,-66.081 -81.1633,-128.775 -18.7466,-26.416 -30.0683,-33.638 -24.0634,-34.854 26.148,-5.292 151.0729,9.168 141.5257,52.464 -15.335,69.544 -179.8381,91.487 -230.4376,90.987 -41.5827,-0.411 -8.8021,-29.968 1.6312,-37.789"
       id="path1399" /><path
       style="fill:none;stroke:#ffffff;stroke-width:5.5"
       d="m -137.72844,14199.159 c 53.178974,43.747 119.420771,63.047 179.047985,95.022 81.841895,43.889 157.616765,96.555 238.186905,142.35 128.05193,72.784 265.415,127.744 397.24997,192.979 110.84898,54.852 211.27828,125.656 318.53417,186.376 38.02651,21.528 72.01741,37.154 110.52851,57.968 14.3226,7.74 28.3464,16.024 42.4171,24.214 19.7824,11.514 38.4601,29.458 59.9546,37.055 17.0776,6.035 -8.2178,-36.269 -18.7613,-50.997 -21.1591,-29.556 -40.561,-53.812 -64.8492,-80.714 -4.3412,-4.808 -41.3593,-41.028 -46.0873,-50.996 -4.2418,-8.943 19.6393,-6.238 29.3656,-4.403 25.1576,4.748 96.6741,27.639 99.9244,59.802 8.7962,87.041 -111.3987,104.955 -170.0754,111.165 -24.8775,2.632 -49.08525,-1.544 -48.94269,-1.468 8.85457,4.707 15.69629,3.766 25.28689,4.036"
       id="path1401" /><path
       style="fill:none;stroke:#ffffff;stroke-width:5.5"
       d="m 1058.1003,13513.459 c 38.3543,-48.688 -83.9323,85.121 -86.46518,52.464 -0.5674,-7.316 45.18338,-149.092 30.18118,-144.185 -5.68963,1.861 -8.38819,62.311 4.4864,74.844 13.0119,12.667 44.3941,0.295 51.7976,16.877 10.0021,22.401 -16.7688,48.612 -11.828,72.642 0.2676,1.301 78.6177,108.694 53.4291,75.577"
       id="path1403" /><path
       style="fill:none;stroke:#ffffff;stroke-width:5.5"
       d="m 1346.0455,13451.456 c -12.7796,-3.425 -25.4115,-13.089 -38.3386,-10.273 -13.4182,2.923 -19.8935,40.943 -12.6431,48.795 30.6096,33.15 134.5155,57.531 148.8665,80.347 28.5576,45.403 -62.0085,90.264 -78.7158,32.652 -12.0208,-41.451 119.5297,-34.993 143.1568,-49.162 15.9402,-9.559 4.9593,-43.746 -15.4983,-41.09 -41.6128,5.402 -36.1193,136.743 57.915,82.915"
       id="path1405" /><path
       style="fill:none;stroke:#ffffff;stroke-width:5.5"
       d="m 1576.4829,13520.429 c -76.2803,12.312 -8.7639,84.175 46.9032,39.623 17.0228,-13.623 26.1732,-29.305 18.7614,-49.895 -9.2485,-25.692 -77.1528,-31.31 -65.6646,10.272 5.5695,20.159 39.2864,16.631 54.6526,30.818 23.9938,22.154 79.0496,80.587 57.0995,124.74 -40.2878,81.038 -123.9878,46.256 -123.9878,-32.653"
       id="path1407" /><path
       style="fill:none;stroke:#ffffff;stroke-width:5.5"
       d="m -826.47611,15672.949 c 58.7968,29.967 54.81789,117.933 104.00274,155.191 21.42376,16.229 1.77917,-98.624 7.34134,-105.295 1.82319,-2.187 -1.52138,7.803 17.5378,41.458 5.36345,9.47 31.03904,65.926 58.32306,63.837 7.46101,-0.571 27.52672,-70.537 31.81268,-75.945 22.07964,-27.857 95.13599,-21.489 98.29289,-71.541 4.35486,-69.046 -73.14578,-43.893 -90.95158,-1.101 -36.07551,86.698 132.55255,93.805 176.19308,63.47"
       id="path1409" /><path
       style="fill:none;stroke:#ffffff;stroke-width:5.5"
       d="m -100.08765,15638.096 c -14.54682,3.302 -32.8023,-0.344 -43.6404,9.905 -34.25733,32.396 -39.9034,134.73 24.06327,140.516 36.428732,3.295 56.075976,-20.884 81.978763,-40.724 -30.126317,-6.807 -8.68997,-145.743 43.2325984,-70.441 13.2898296,19.274 18.1931166,49.558 12.2355496,52.097 -3.802372,1.62 -3.806564,-7.338 -5.709846,-11.007"
       id="path1411" /><path
       style="fill:none;stroke:#ffffff;stroke-width:5.5"
       d="m 12.887896,15616.816 c 44.287651,-2.096 38.475444,-13.013 59.138925,29.718 6.452368,13.343 11.162321,27.533 15.090458,41.824 2.222817,8.087 2.819611,16.573 3.262974,24.948 0.107367,2.028 -1.368108,7.884 -1.631474,5.87 -2.061581,-15.763 -5.404088,-107.544 25.694741,-103.093 21.39413,3.061 42.18644,32.788 50.98198,46.594 6.89251,10.818 16.31413,47.681 16.31413,34.853"
       id="path1413" /><path
       style="fill:none;stroke:#ffffff;stroke-width:5.5"
       d="m 175.21392,15582.696 c 41.87241,-8.802 81.59663,138.15 34.25979,140.516 13.51198,-154.356 5.76928,-43.473 49.75829,-92.087 8.39668,-9.28 5.93471,-21.175 5.30204,-32.653 -0.31731,-5.756 -5.74337,-71.112 -0.81563,-67.873 16.07511,10.567 73.74896,100.89 64.84876,115.568 -1.80775,2.981 -7.18982,-50.493 -6.5257,-52.464 18.86873,-56.012 57.16305,103.421 70.96665,50.997"
       id="path1415" /><path
       style="fill:none;stroke:#ffffff;stroke-width:5.5"
       d="m 387.70606,15580.495 c 12.23563,19.445 20.72468,41.831 36.70689,58.334 25.52851,26.362 77.47426,34.106 78.30796,32.652 11.73435,-20.451 -51.13112,-57.759 -23.65547,-52.463 44.22688,8.525 95.14343,10.378 128.06603,-28.25 20.85314,-24.467 -0.66193,-61.796 -35.48319,-55.766 -42.23239,7.314 -72.1075,65.635 -46.90337,102.36 38.63295,56.292 119.55428,39.778 175.78524,26.048"
       id="path1417" /><path
       style="fill:none;stroke:#ffffff;stroke-width:5.5"
       d="m 1021.1036,15431.908 c 20.2568,23.603 41.2234,46.614 60.7702,70.808 15.5481,19.245 33.5528,37.227 44.4563,59.435 13.871,28.253 18.9348,114.517 -41.1933,92.821 -66.3549,-23.943 -94.72407,-145.801 -5.302,-147.119 m 0,0 c 31.4047,10.395 64.09,17.515 94.214,31.185 84.5028,38.345 46.8696,104.338 -16.3139,56.866 -11.5805,-8.7 -41.1728,-75.736 0.4078,-76.311 41.8929,-0.58 79.6469,39.056 97.0693,73.009 0.9933,1.936 -2.2197,-3.789 -2.8547,-5.87 -3.1808,-10.423 -5.71,-21.034 -8.565,-31.552"
       id="path1419" /><path
       style="fill:none;stroke:#ffffff;stroke-width:5.5"
       d="m 1232.7799,15500.148 c 29.6375,19.2 57.5626,41.346 88.9125,57.6 8.5048,4.41 19.0436,4.49 28.5497,3.302 61.1065,-7.634 -21.0452,-94.504 -32.2205,-108.229 21.4803,-11.74 40.219,-38.762 64.441,-35.221 22.7408,3.324 54.4482,103.879 63.2175,142.35 2.0524,9.003 -8.3011,31.874 -13.4592,24.214 -13.3028,-19.754 -31.9776,-135.729 12.6436,-134.278 82.284,2.675 15.1206,243.522 22.8398,93.554"
       id="path1421" /><path
       style="fill:none;stroke:#ffffff;stroke-width:5.5"
       d="m 1501.556,15472.265 c 11.5405,18.013 -0.4291,45.809 9.7885,65.305 14.3409,27.364 58.2751,-52.71 61.1779,-67.506 1.1504,-5.863 -5.7771,11.334 -4.8942,17.243 6.2399,41.761 10.1925,50.823 32.2206,81.081 5.9865,8.223 15.0879,22.393 18.3534,8.438"
       id="path1423" /><path
       style="fill:none;stroke:#ffffff;stroke-width:5.5"
       d="m 1629.6224,15430.074 c 17.6741,56.297 54.2591,104.696 86.465,153.723 51.9556,-78.075 44.6527,-101.01 11.4198,-173.168 63.4805,17.785 60.3582,51.66 76.6767,104.195 2.6135,8.413 7.228,28.974 13.4592,22.746 24.3827,-24.37 12.5762,-76.027 40.3777,-98.691 3.7609,-3.066 19.9459,98.855 52.2052,56.133 72.1281,-95.522 -51.5304,-84.057 -20.8003,-48.428 27.8964,32.343 78.345,-24.762 105.2264,-4.036 8.3349,6.427 40.0099,102.165 38.3381,116.301 -6.4953,54.921 -128.2225,91.1 -158.2477,19.078"
       id="path1425" /><path
       style="fill:none;stroke:#ffffff;stroke-width:5.5"
       d="m 2336.8414,15373.941 c -8.9728,14.798 -24.5469,27.251 -26.9184,44.393 -13.1786,95.263 173.7548,50.902 144.7885,-19.078 -6.2315,-15.054 -33.8683,-25.354 -46.0875,-35.587"
       id="path1427" /><path
       style="fill:none;stroke:#ffffff;stroke-width:5.5"
       d="m 2418.0045,15285.523 c 52.4928,4.223 73.0298,40.465 100.7401,80.714 18.3301,26.624 19.354,38.195 19.5768,34.487 1.2933,-21.522 -12.6267,-45.942 2.0397,-66.773 23.3008,-33.095 51.4879,81.93 69.7428,66.773"
       id="path1429" /><path
       style="fill:none;stroke:#ffffff;stroke-width:5.5"
       d="m 2623.5633,15301.665 c 5.2376,-128.173 -0.8282,-2.991 0,0 47.3217,170.936 21.6228,-38.774 37.5224,103.461 2.4251,21.695 5.8967,21.149 -5.302,15.776 -100.9505,-121.443 89.665,-58.193 80.3475,-91.72 -19.9115,-54.355 -52.7213,-120.999 -8.565,-172.067 27.5981,16.509 62.1065,24.907 82.7944,49.528 20.779,24.731 39.6246,157.029 66.48,203.619"
       id="path1431" /><path
       style="fill:none;stroke:#ffffff;stroke-width:5.5"
       d="m -726.95978,16046.801 c -134.04182,183.778 82.34204,31.472 141.11769,137.213 18.4944,33.273 -75.21583,208.818 -114.19924,55.4 -3.92232,-15.437 -1.90344,-31.797 -2.85515,-47.695"
       id="path1433" /><path
       style="fill:none;stroke:#ffffff;stroke-width:5.5"
       d="m -525.88756,16154.297 c 100.30751,100.669 -54.31779,54.624 -67.29611,-11.006 -10.48043,-52.999 60.28682,-61.773 92.17525,-45.127 23.40213,12.217 71.66761,88.903 26.51041,99.058"
       id="path1435" /><path
       style="fill:none;stroke:#ffffff;stroke-width:5.5"
       d="m -478.16858,16051.937 c 16.58604,17.244 35.71669,32.359 49.75807,51.73 10.47457,14.452 15.83505,32.013 22.83984,48.429 37.62042,88.164 -31.46761,-23.463 9.38062,-68.607 4.18597,-4.626 12.84211,-6.593 18.35346,-3.669 36.59565,19.414 54.68725,70.586 61.99383,108.23 0.79227,4.082 1.856,16.195 0,12.474 -6.47237,-12.975 -10.77291,-27.02 -14.27486,-41.091 -38.10415,-153.1 101.66832,-3.924 78.30799,15.776 -5.62758,4.746 -28.1346,-30.512 -26.10257,-38.155 7.52559,-28.309 130.0418,-7.672 83.61024,-72.643 -22.99285,-32.173 -64.43203,32.326 -68.11174,71.909 -8.46884,91.1 168.095738,60.116 191.691359,6.237"
       id="path1437" /><path
       style="fill:none;stroke:#ffffff;stroke-width:5.5"
       d="m 203.3558,16207.128 c 40.15827,-56.909 48.30839,-118.22 50.57391,-186.376 1.20087,-36.126 -6.65863,-63.56 -13.86702,-62.369 -8.09194,1.337 -9.60186,14.547 -9.38062,22.746 1.6065,59.538 39.01025,115.469 72.59812,161.428 29.0821,39.794 17.97294,15.566 26.91845,36.688"
       id="path1439" /><path
       style="fill:none;stroke:#ffffff;stroke-width:5.5"
       d="m 255.15338,16159.433 c -97.25207,-23.319 22.9761,-62.122 53.83665,-77.778 42.00671,-21.312 40.94808,-21.113 76.67673,-41.091"
       id="path1441" /><path
       style="fill:none;stroke:#ffffff;stroke-width:5.5"
       d="m 410.5459,15992.136 c -11.69186,10.639 -28.82228,17.399 -35.07563,31.918 -35.52759,82.487 196.59507,154.166 156.20815,39.991"
       id="path1443" /><path
       style="fill:none;stroke:#ffffff;stroke-width:5.5"
       d="m 505.98365,15935.269 c 38.81456,34.053 80.84986,83.623 84.42586,138.314"
       id="path1445" /><path
       style="fill:none;stroke:#ffffff;stroke-width:5.5"
       d="m 593.26445,15989.934 c -87.52904,40.862 40.82402,91.884 82.7946,63.838"
       id="path1447" /><path
       style="fill:none;stroke:#ffffff;stroke-width:5.5"
       d="m 662.59986,15983.697 c 20.66451,13.82 40.79811,28.468 61.99359,41.458 25.86535,15.852 58.04414,23.498 73.41375,52.831 28.66636,54.709 -65.5928,192.386 -119.90905,42.191"
       id="path1449" /><path
       style="fill:none;stroke:#ffffff;stroke-width:5.5"
       d="m 674.83562,15873.266 c 33.80653,-13.968 70.56313,-25.082 105.63423,-30.818"
       id="path1451" /><path
       style="fill:none;stroke:#ffffff;stroke-width:5.5"
       d="m 1083.0977,15948.844 c -79.3566,81.336 31.2634,145.858 108.4889,91.353 39.3986,-27.807 36.9527,-93.848 9.7885,-86.584 -15.0893,4.035 35.7096,111.183 66.8883,94.655 29.5329,-15.655 1.0105,-152.443 2.4473,-161.06 0.3168,-1.9 2.3535,3.071 3.2625,4.769 4.3995,8.22 7.9628,16.885 12.6436,24.948 14.8432,25.568 35.6745,66.771 61.5863,84.383 11.2763,7.664 0.4387,-47.947 12.6431,-59.068 36.0206,-32.823 100.4134,-23.03 127.2506,-69.341 4.7967,-8.277 -15.7939,-14.76 -25.2867,-13.574 -34.9817,4.37 -94.4915,34.562 -94.2146,77.412 0.4852,75.066 174.0025,69.702 181.4954,24.214"
       id="path1453" /><path
       style="fill:none;stroke:#ffffff;stroke-width:5.5"
       d="m 1788.6856,15811.263 c 15.3109,26.639 41.1954,150.675 88.5042,137.581"
       id="path1455" /><path
       style="fill:none;stroke:#ffffff;stroke-width:5.5"
       d="m 1965.2863,15939.672 c -57.0781,18.788 -77.8187,-90.541 -13.4594,-83.649 32.67,3.498 35.3664,29.502 56.2843,46.227"
       id="path1457" /><path
       style="fill:none;stroke:#ffffff;stroke-width:5.5"
       d="m 2015.8601,15783.747 c -3.5346,13.942 -16.6548,28.777 -10.604,41.825 21.259,45.843 148.278,16.964 169.2595,72.642 11.0339,29.28 -51.4704,93.51 -56.6915,59.068 -3.0072,-19.837 1.0875,-40.112 1.6312,-60.168"
       id="path1459" /><path
       style="fill:none;stroke:#ffffff;stroke-width:5.5"
       d="m 2172.8844,15748.893 c 35.7222,42.181 131.0019,133.766 93.8062,200.685"
       id="path1461" /><path
       style="fill:none;stroke:#ffffff;stroke-width:5.5"
       d="m 2183.4884,15894.179 c 43.8158,-32.793 112.072,-87.179 174.1538,-71.542"
       id="path1463" /></g></svg>
