<?xml version="1.0" encoding="UTF-8" standalone="no"?>
<!-- Created with Inkscape (http://www.inkscape.org/) -->

<svg
   width="4077.291mm"
   height="4595.0859mm"
   viewBox="0 0 4077.2909 4595.086"
   version="1.1"
   id="svg12"
   inkscape:version="1.2.1 (9c6d41e410, 2022-07-14, custom)"
   sodipodi:docname="tcp_congestion_control_diagram.svg"
   xml:space="preserve"
   xmlns:inkscape="http://www.inkscape.org/namespaces/inkscape"
   xmlns:sodipodi="http://sodipodi.sourceforge.net/DTD/sodipodi-0.dtd"
   xmlns="http://www.w3.org/2000/svg"
   xmlns:svg="http://www.w3.org/2000/svg"><sodipodi:namedview
     id="namedview14"
     pagecolor="#505050"
     bordercolor="#eeeeee"
     borderopacity="1"
     inkscape:showpageshadow="0"
     inkscape:pageopacity="0"
     inkscape:pagecheckerboard="0"
     inkscape:deskcolor="#505050"
     inkscape:document-units="mm"
     showgrid="true"
     inkscape:zoom="0.034886493"
     inkscape:cx="10319.18"
     inkscape:cy="6334.83"
     inkscape:window-width="1366"
     inkscape:window-height="746"
     inkscape:window-x="0"
     inkscape:window-y="0"
     inkscape:window-maximized="1"
     inkscape:current-layer="layer1"
     inkscape:lockguides="false"><inkscape:grid
       type="xygrid"
       id="grid344"
       color="#969696"
       opacity="0.39215686"
       empcolor="#000000"
       empopacity="0.17254902"
       dotted="false"
       originx="1582.3153"
       originy="-10494.298" /></sodipodi:namedview><defs
     id="defs9" /><g
     inkscape:label="Layer 1"
     inkscape:groupmode="layer"
     id="layer1"
     transform="translate(1477.3153,-10642.798)"><path
       style="fill:none;stroke:#ffffff;stroke-width:5.5"
       d="m 323.30214,10669.001 c 1.13392,314.544 57.93115,625.245 73.41378,938.849 13.58693,275.206 4.42759,550.842 4.89421,826.216 0.56777,335.063 15.34366,651.889 -57.50743,981.04"
       id="path1529" /><path
       style="fill:none;stroke:#ffffff;stroke-width:5.5"
       d="m 2271.6219,11072.937 c 22.162,283.176 92.7156,558.604 139.0782,837.957 32.9743,198.683 55.2477,398.609 69.3357,599.483 9.7523,139.056 29.4434,290.743 -1.224,427.783"
       id="path1531" /><path
       style="fill:none;stroke:#ffffff;stroke-width:5.5"
       d="m 2263.0568,11010.567 c 53.5819,175.924 -27.7296,-91.917 36.2993,122.539 25.2523,84.579 46.8537,169.824 70.9668,254.615 4.2087,14.799 8.9805,29.436 13.8671,44.026 1.9428,5.801 6.8725,21.356 9.3805,15.776 2.7532,-6.126 2.4471,-13.208 3.6708,-19.812"
       id="path1533" /><path
       style="fill:none;stroke:#ffffff;stroke-width:5.5"
       d="m 2275.7005,10643.319 c 28.9094,149.912 42.1277,302.69 71.3748,452.732 16.4615,84.45 41.4385,167.807 55.0603,252.781 27.7418,173.057 22.8055,350.238 41.1932,524.273 38.1249,360.842 73.1618,721.984 101.1479,1083.766 9.1506,118.294 6.7511,236.742 11.8274,355.141 3.2649,76.149 9.7266,152.215 19.169,227.833 5.6399,45.165 23.4569,126.479 21.6165,159.593"
       id="path1535" /><path
       style="fill:none;stroke:#ffffff;stroke-width:5.5"
       d="m -31.531094,10880.325 c 34.7733668,-129.857 106.932755,-39.839 87.280802,47.694 -11.284797,50.265 -26.953474,81.834 -55.87618949,124.006 -26.41057551,38.508 -50.65551051,39.633 -44.45600551,35.954 32.748325,-19.43 79.218921,-18.573 115.830693,-19.811 81.215124,-2.747 -21.179896,2.325 34.667584,-1.101 1.49268,-0.09 5.09405,-1.366 4.48641,0 -1.19888,2.696 -4.62235,3.669 -6.93351,5.503"
       id="path1537" /><path
       style="fill:none;stroke:#ffffff;stroke-width:5.5"
       d="m 141.80681,11867.235 c -122.075307,80.743 34.73516,-22.596 -80.347262,52.097 -167.973398,109.02 -0.789225,-132.368 22.024208,-176.103 7.376795,-14.142 -9.88015,16.613 -10.196486,24.581 -0.829601,20.896 -2.359131,42.008 0.408067,62.736 9.990084,74.836 26.069951,153.44 75.860853,213.158"
       id="path1539" /><path
       style="fill:none;stroke:#ffffff;stroke-width:5.5"
       d="m 414.66131,10936.457 c 12.09968,-3.057 23.89089,-7.835 36.29906,-9.172 44.95149,-4.842 103.84107,7.915 147.64337,10.273 100.707,5.422 201.4833,10.205 302.22004,15.042 265.98982,12.772 531.09582,25.85 794.49992,67.139 44.0679,6.908 110.014,17.755 154.577,28.25 19.6347,4.625 39.0094,10.322 58.3232,16.143 8.5039,2.563 26.0532,18.343 24.879,9.539 -2.1304,-15.97 -111.7515,-151.317 -88.0965,-156.291 16.8797,-3.55 150.1696,4.692 138.6703,41.824 -17.4371,56.306 -144.3141,120.221 -196.178,134.278 -10.7656,2.918 -22.2959,-0.733 -33.4438,-1.1"
       id="path1543" /><path
       style="fill:none;stroke:#ffffff;stroke-width:5.5"
       d="m 584.32891,11231.797 c -27.43178,3.658 -46.12039,1.074 -70.15104,-8.072 -7.44127,-2.832 -14.82971,-5.692 -22.43203,-8.071 -1.34393,-0.421 -5.48548,-1.041 -4.07858,-1.101 74.44681,-3.189 153.39893,12.501 227.99063,17.244 103.65634,6.591 207.05291,12.494 309.96921,27.516 221.26,32.294 436.577,97.235 651.751,155.924 44.1367,12.038 100.0167,35.555 100.7401,9.539 0.4249,-15.287 -8.4894,-33.279 -19.1691,-43.292 -38.7143,-36.296 -97.7093,-56.072 -142.341,-77.412 -16.5106,-7.894 -41.2608,-10.026 -47.719,-27.149 -18.363,-48.688 196.8834,-10.709 220.649,3.302 91.1744,53.75 -101.8138,154.019 -139.8942,180.872 -11.4554,8.078 -22.6941,16.463 -33.8516,24.948 -2.0378,1.55 -7.916,6.435 -5.7099,5.136 9.6493,-5.681 18.7613,-12.229 28.1418,-18.344"
       id="path1545" /><path
       style="fill:none;stroke:#ffffff;stroke-width:5.5"
       d="m -944.8722,11494.094 c -9.84369,-31.881 43.63863,-130.36 85.24161,-94.289 44.92039,38.947 13.30874,131.071 1.22355,177.937 -8.39444,32.554 -12.75413,42.466 -11.82785,42.559 9.51032,0.95 62.94756,-57.71 68.51966,-61.636 14.44099,-10.174 63.99842,-28.348 32.22046,3.668"
       id="path1551" /><path
       style="fill:none;stroke:#ffffff;stroke-width:5.5"
       d="m -541.91215,11445.665 c 8.59253,-4.723 13.46647,-5.083 11.41992,-19.811 -5.37546,-38.685 -43.42257,-79.759 -63.21751,-111.165 -47.97282,-76.113 -36.39473,-65.942 -32.62828,34.854 2.46425,65.946 2.38326,56.632 9.38062,113.733 26.47591,-72.417 59.94166,-70.247 110.12065,-111.532"
       id="path1553" /><path
       style="fill:none;stroke:#ffffff;stroke-width:5.5"
       d="m -470.12987,11261.491 c -5.03016,13.33 -17.55818,25.958 -15.09049,39.99 4.816,27.385 128.08183,82.269 120.72493,42.558"
       id="path1555" /><path
       style="fill:none;stroke:#ffffff;stroke-width:5.5"
       d="m -371.42894,11224.436 c 12.64137,19.035 28.94944,69.253 59.54673,53.198"
       id="path1557" /><path
       style="fill:none;stroke:#ffffff;stroke-width:5.5"
       d="m -286.18744,11217.098 c -10.4683,7.583 -21.98045,13.901 -31.40485,22.747 -55.79256,52.37 47.00407,43.053 68.51954,54.665"
       id="path1559" /><path
       style="fill:none;stroke:#ffffff;stroke-width:5.5"
       d="m -32.910076,11226.637 c 1.631421,-10.884 15.778348,-31.021 4.894236,-32.652 -10.884138,-1.631 0.102209,22.846 -4.894236,32.652 -16.274759,31.942 -43.170924,57.944 -57.915227,90.62 -42.924277,95.128 0.05815,196.281 28.957719,287.268 1.825837,5.748 -2.974763,-12.001 -6.525683,-16.877 -8.939054,-12.273 -13.919385,-15.953 -26.918443,-24.948 -22.75409,-15.744 -76.38021,-59.602 -81.57096,-9.172 -12.84015,124.748 124.02563,19.832 161.102592,-4.402 3.815318,-2.494 46.652365,-32.402 41.601125,-5.136"
       id="path1561" /><path
       style="fill:none;stroke:#ffffff;stroke-width:5.5"
       d="m 466.95649,11871.826 c 15.63439,-1.59 31.31632,-6.772 46.90314,-4.769 9.25462,1.189 118.69142,39.848 121.5408,40.724 42.7279,13.134 85.69603,25.515 128.8819,37.055 218.17742,58.298 441.83027,95.356 654.60617,172.434 79.2296,28.701 158.5012,55.728 238.5948,81.814 2.9757,0.97 38.6805,18.562 46.0875,14.676 21.2196,-11.136 -106.2366,-141.048 -114.6072,-150.422 -7.8716,-8.815 -30.1297,-26.855 -18.7611,-30.084 53.5842,-15.221 178.5371,19.573 192.5071,83.282 15.062,68.689 -125.7763,182.745 -179.048,143.451 -7.112,-5.246 -5.982,-16.632 -8.9728,-24.948"
       id="path1719" /><path
       style="fill:none;stroke:#ffffff;stroke-width:5.5"
       d="m 724.72029,12138.549 c 16.31421,3.424 33.01643,5.35 48.94266,10.273 26.25478,8.115 84.15136,34.783 110.12064,45.126 49.40194,19.676 144.71211,54.62 190.87591,69.707 165.7896,54.185 337.5475,91.866 500.437,154.824 18.9362,7.319 238.2068,117.67 252.054,113 8.6728,-2.926 -7.3967,-16.813 -12.2357,-24.581 -17.3934,-27.926 -27.3571,-44.298 -54.2443,-64.938 -30.0776,-23.09 -63.3095,-41.864 -93.399,-64.938 -7.8642,-6.031 -19.9845,-12.103 -19.9845,-22.013 0,-22.657 232.3605,19.003 241.4498,71.175 12.1666,69.835 -151.7341,93.073 -179.4563,95.389 -27.364,2.286 -37.1137,-21.961 -23.2476,-38.89"
       id="path1721" /><path
       style="fill:none;stroke:#ffffff;stroke-width:5.5"
       d="m 841.77466,12239.808 c 112.22484,113.655 264.89504,169.272 409.07774,230.401 119.4495,50.644 240.158,95.788 363.3985,136.48 79.1842,26.145 159.5159,47.958 234.9238,84.383 37.374,18.053 76.046,41.974 112.1598,63.103 6.4129,3.752 21.3254,18.484 19.1696,11.374 -15.0913,-49.775 -79.3936,-85.135 -112.9758,-121.438 -8.8789,-9.598 -28.358,-23.71 -19.9848,-33.753 16.6926,-20.021 170.9198,35.566 175.3772,60.535 10.8585,60.827 -124.2319,102.642 -149.2747,111.532 -5.1649,1.834 -37.4703,7.716 -29.7733,-8.438"
       id="path1723" /><path
       style="fill:none;stroke:#ffffff;stroke-width:5.5"
       d="m 685.56654,12454.8 c 24.60717,7.583 50.44757,11.946 73.82155,22.747 36.51589,16.874 69.45289,40.634 104.8186,59.802 102.302,55.445 209.16731,99.967 318.94221,138.314 172.6346,60.305 349.4725,98.329 511.0411,186.742 51.3392,28.094 102.2347,56.991 153.3535,85.484 27.3151,15.224 24.2861,13.107 46.0875,30.084 4.2241,3.289 13.067,15.243 12.6431,9.906 -2.6987,-33.992 -78.7434,-116.693 -101.5555,-137.214 -23.9334,-21.529 -88.3867,-57.799 -63.2177,-57.233 30.3281,0.682 60.8378,3.023 90.5439,9.172 59.1021,12.232 142.3172,73.209 73.4136,135.012 -34.6903,31.115 -75.6144,54.653 -115.4226,78.879 -5.2427,3.191 -61.1886,32.86 -79.5314,23.481 -16.6063,-8.492 -5.3779,-55.924 -4.8942,-60.536"
       id="path1725" /><path
       style="fill:none;stroke:#00ffff;stroke-width:5.5"
       d="m 23.474828,12180.969 c -142.374218,110.51 -212.369508,379.412 -170.891038,550.322 15.27021,62.92 44.39946,133.238 97.069246,173.902 18.196427,14.048 45.4499128,32.23 44.8640724,32.652 -15.5742484,11.208 -159.4414584,-63.778 -184.3500184,-74.11 -9.64706,-4.001 -32.12402,-12.37 -44.04845,-16.51 -2.57069,-0.892 -10.27594,-3.578 -7.74914,-2.568 46.17217,18.457 144.705916,86.505 180.271657,78.146 17.812702,-4.186 79.972772,-125.957 143.156727,-129.509"
       id="path1816" /><path
       style="fill:none;stroke:#00ffff;stroke-width:5.5"
       d="m -1357.112,12702.674 c -1.4749,-19.752 -33.2239,-127.595 9.3807,-129.876 26.7504,-1.432 58.7215,33.472 73.8215,49.163 16.8854,17.546 20.2242,28.869 21.6164,26.782 1.5786,-2.367 -2.4471,-5.136 -3.6707,-7.705"
       id="path1818" /><path
       style="fill:none;stroke:#00ffff;stroke-width:5.5"
       d="m -1199.2723,12609.12 c -2.4471,10.884 -18.2255,30.205 -7.3414,32.652 31.1015,6.993 -32.4728,-142.756 28.1419,-75.21 4.3216,4.815 16.6943,22.398 22.024,29.35"
       id="path1820" /><path
       style="fill:none;stroke:#00ffff;stroke-width:5.5"
       d="m -1151.9614,12469.705 c -22.0823,-163.053 93.9033,48.9 83.6102,76.678"
       id="path1822" /><path
       style="fill:none;stroke:#00ffff;stroke-width:5.5"
       d="m -1124.6351,12532.442 c 1.6314,-11.618 -3.3778,-26.535 4.8942,-34.854 16.4489,-16.543 124.13343,-60.444 143.97258,-39.623"
       id="path1824" /><path
       style="fill:none;stroke:#00ffff;stroke-width:5.5"
       d="m -1284.106,12880.612 c -10.1964,8.927 -25.6925,14.145 -30.5892,26.782 -4.5593,11.766 0.7923,25.801 5.71,37.422 19.7876,46.757 76.8489,37.043 112.5678,16.876 68.9085,-38.906 0.5046,-116.627 -12.6434,-85.483 -18.6815,44.252 98.1335,120.719 107.6736,169.499 3.6817,18.826 -35.0104,-17.554 -48.1269,-31.552 -14.0293,-14.971 -40.3699,-51.335 -46.4955,-73.376 -7.5309,-27.097 112.2357,-27.185 136.6313,-38.889 34.2963,-16.454 26.4665,-99.418 -12.2356,-100.159 -10.6028,-0.203 -8.7483,22.031 -4.0786,31.552 15.1479,30.886 72.3662,98.87 111.3441,67.873 32.02364,-25.467 -14.03624,-109.357 -23.24766,-129.509 -7.43597,-16.267 -16.74584,-31.612 -25.28694,-47.328 -3.4233,-6.298 -17.6598,-19.98 -10.6041,-18.711 15.2258,2.739 118.22792,133.208 111.75191,151.889 -2.20789,6.369 -11.14798,7.582 -16.72196,11.373"
       id="path1826" /><path
       style="fill:none;stroke:#00ffff;stroke-width:5.5"
       d="m -985.96458,12860.066 c -2.855,-10.272 -15.54162,-22.755 -8.565,-30.818 32.03018,-37.016 167.86052,-78.414 209.22939,-80.347"
       id="path1828" /><path
       style="fill:none;stroke:#00ffff;stroke-width:5.5"
       d="m -1062.6413,13284.181 c -36.3586,41.453 -58.0003,110.071 -104.0028,146.385 -1.475,1.165 -1.6796,-3.68 -1.2236,-5.503 3.2693,-13.07 8.7952,-25.496 12.2358,-38.522 12.533,-47.452 20.3455,-82.444 22.432,-131.711 1.0874,-25.676 0.082,-47.472 -8.565,-70.808 -0.5377,-1.451 -3.5988,-4.812 -3.263,-3.302 22.8804,102.91 43.1584,58.351 82.3866,103.461 16.356,18.808 19.5758,46.519 35.0756,66.039 25.7234,32.394 74.89964,65.238 107.26574,93.187"
       id="path1830" /><path
       style="fill:none;stroke:#00ffff;stroke-width:5.5"
       d="m -744.92276,13270.973 c 5.8325,-75.699 10.4585,-69.47 -3.26274,-142.717 -7.48495,-39.956 -17.75827,-74.493 -33.44412,-111.532 -4.50014,-10.626 -15.71535,-41.536 -17.12979,-30.084 -4.94813,40.066 176.34072,156.909 165.58879,212.791 -1.35715,7.054 -9.51659,10.762 -14.27485,16.143 -261.34729,-48.634 -12.53787,-52.207 45.27165,-168.031 0.95172,-26.66 7.07106,-53.639 2.85515,-79.981 -7.41056,-46.302 -105.78347,11.052 -40.37766,88.786 22.34079,26.551 152.15726,88.566 140.70986,26.782 -2.92663,-15.796 -10.60422,-30.329 -15.90633,-45.493"
       id="path1832" /><path
       style="fill:none;stroke:#00ffff;stroke-width:5.5"
       d="m -561.79617,12901.524 c 27.19559,28.202 68.94306,103.212 109.71284,53.931"
       id="path1834" /><path
       style="fill:none;stroke:#00ffff;stroke-width:5.5"
       d="m -450.85966,12898.589 c -10.87618,-4.036 -21.20607,-14.133 -32.62852,-12.107 -23.16692,4.109 -33.88715,35.225 -28.14188,54.298 15.41571,51.176 96.14855,47.328 136.22321,47.328"
       id="path1836" /><path
       style="fill:none;stroke:#00ffff;stroke-width:5.5"
       d="m -10.78493,13138.162 c -116.85005,-12.718 -256.87295,131.095 -200.25659,249.113 56.48185,117.736 229.117181,110.088 306.706666,16.509 56.496824,-68.14 55.667804,-237.313 -38.746403,-270.024 -21.369337,-7.404 -45.146886,2.773 -67.703673,4.402 -33.320196,2.407 -67.058592,1.716 -99.92439,7.705 -9.51476,1.733 -48.76477,23.304 -22.43204,31.918"
       id="path1838" /><path
       style="fill:none;stroke:#00ffff;stroke-width:5.5"
       d="m -63.398145,13257.766 c 14.002967,-5.993 26.999088,-20.565 42.008927,-17.978 28.1836543,4.859 -12.296775,117.515 -42.82477,132.077 -2.048245,0.977 -5.431261,-17.724 28.549917,-27.149 33.0019816,-9.153 71.717825,0.385 95.029919,24.581"
       id="path1840" /><path
       style="fill:none;stroke:#00ffff;stroke-width:5.5"
       d="m 441.11755,13177.785 c 102.82862,22.017 201.25438,61.325 304.25908,82.182 18.82966,3.812 108.21752,17.698 118.68565,20.178 64.48597,15.281 125.89016,40.352 190.06032,56.5 102.6906,25.841 207.2738,44.597 308.3377,77.045 95.9315,30.799 183.607,81.184 278.5646,114.834 46.0687,16.325 50.3131,17.39 90.5438,35.587 25.0558,11.333 38.631,18.245 62.4015,30.084 10.8862,5.423 101.9714,50.947 106.858,20.179 5.3097,-33.432 -62.2874,-85.597 -73.0059,-95.389 -18.8085,-17.182 -47.5721,-34.037 -46.0875,-34.854 29.8331,-16.417 154.5098,-16.025 165.9964,26.782 12.9921,48.417 -128.3909,121.651 -160.6944,136.113 -12.7667,5.716 -44.7458,19.133 -41.601,5.503 1.5539,-6.735 9.5165,-10.028 14.2748,-15.042"
       id="path1842" /><path
       style="fill:none;stroke:#00ffff;stroke-width:5.5"
       d="m 477.82441,13392.778 c 149.66043,49.716 281.40218,132.957 417.2349,210.222 70.0142,39.826 140.61799,79.026 208.00599,123.272 27.4187,18.004 52.561,38.492 80.7548,55.399 122.8114,73.649 249.1011,142.477 372.3709,215.359 38.6104,22.829 81.2847,40.787 121.1328,61.27 20.1801,10.373 35.1073,28.588 53.4292,38.889 6.0351,3.393 14.9685,-1.399 21.2082,-2.201 28.7843,-3.699 37.52,2.196 14.6825,-41.825 -7.7134,-14.868 -15.7197,-29.634 -24.8787,-43.658 -15.9729,-24.457 -74.6361,-78.387 -82.7945,-105.295 -3.1194,-10.289 20.9939,5.789 30.181,11.373 41.2369,25.064 106.5842,68.694 135.4077,106.395 59.2484,77.496 -237.0606,182.105 -244.3044,160.694 -2.5132,-7.427 9.5502,-19.865 13.0514,-24.214"
       id="path1844" /><path
       style="fill:none;stroke:#00ffff;stroke-width:5.5"
       d="m -8.9120503,13632.54 c -30.4590707,82.995 -119.2467497,133.195 -141.1174497,220.496 -22.1393,88.373 2.17903,194.55 35.48322,276.628 11.3226,27.904 24.409582,55.072 37.522517,82.181 3.476413,7.187 5.475552,19.812 13.459221,19.812 2.030889,0 -0.256513,-4.375 -1.631262,-5.87 -11.164993,-12.141 -22.376315,-24.474 -35.483456,-34.487 -34.35366,-26.243 -59.1752,-41.233 -95.02992,-57.6 -8.45621,-3.86 -63.57823,-32.942 -68.92758,-20.913 -16.89706,37.998 129.17683,158.266 171.706644,128.776 43.6794,-30.287 65.007277,-166.618 90.5437754,-175.369 3.7145647,-1.273 1.2723018,5.89 -4.078605,27.149"
       id="path1846" /><path
       style="fill:none;stroke:#00ffff;stroke-width:5.5"
       d="m -1474.7403,14004.924 c 15.9208,42.471 6.2755,29.201 44.864,66.406 13.1054,12.636 27.9302,23.431 40.7855,36.321 16.8219,16.867 34.2981,33.434 48.1268,52.831 17.8463,25.033 -17.7196,10.555 -17.9456,10.273 -19.032,-23.778 -103.5353,-122.651 -40.3777,-159.96 6.3838,-3.772 46.9611,-1.748 56.284,-1.468"
       id="path1848" /><path
       style="fill:none;stroke:#00ffff;stroke-width:5.5"
       d="m -1253.6832,13949.159 c -67.6325,128.674 142.2345,155.131 81.9785,42.558"
       id="path1850" /><path
       style="fill:none;stroke:#00ffff;stroke-width:5.5"
       d="m -1213.3058,13906.967 c 60.7923,11.453 105.552,71.044 163.5497,86.584 14.6551,3.927 -11.3057,-28.371 -19.5771,-41.091 -19.8372,-30.504 -87.8375,-141.396 -76.6765,-92.454"
       id="path1852" /><path
       style="fill:none;stroke:#00ffff;stroke-width:5.5"
       d="m -1017.9434,13889.357 c 32.00683,14.396 36.51453,31.204 54.65226,1.467 24.94386,-40.895 -5.79414,-109.505 -38.33816,-53.564 -54.0068,92.833 61.65955,123.878 114.19926,68.606 30.84105,-32.444 -1.40974,-83.089 -19.57711,-110.431 -5.03484,-7.577 -11.69188,-13.941 -17.53782,-20.912 -3.94258,-4.158 -7.88516,-8.316 -11.82773,-12.474 -0.27188,-0.367 -1.13512,-1.427 -0.81563,-1.101 45.7892,46.756 92.25516,99.524 116.64634,161.428 11.0773,28.114 0.76632,65.682 -37.52274,47.695 -108.22057,-50.838 -42.79632,-112.189 22.43204,-56.867"
       id="path1854" /><path
       style="fill:none;stroke:#00ffff;stroke-width:5.5"
       d="m -1009.7865,14472.698 c -20.8655,-89.895 -13.998,-45.089 -21.2083,-140.883 -1.6751,-22.254 -3.6557,-44.489 -4.8942,-66.772 -1.509,-27.147 -12.1456,-97.858 -3.6708,-129.876 0.3814,-1.441 3.1753,0.649 4.0786,1.835 9.2764,12.178 17.6149,25.047 26.1026,37.788 13.26644,19.915 25.25685,40.689 39.15394,60.169 22.35808,31.339 114.73538,120.416 107.26571,158.492"
       id="path1856" /><path
       style="fill:none;stroke:#00ffff;stroke-width:5.5"
       d="m -973.89521,14360.065 c 16.04812,-48.336 50.40546,-51.505 85.64931,-79.246"
       id="path1858" /><path
       style="fill:none;stroke:#00ffff;stroke-width:5.5"
       d="m -1241.0398,14457.289 c -22.0703,32.516 -36.4707,-75.578 -11.0122,-75.578 63.1097,0 48.817,133.464 42.0092,172.434 -2.423,13.87 -6.5599,27.386 -9.7887,41.091 -1.1218,4.762 -7.8408,16.032 -3.2627,14.308 9.2011,-3.464 13.5583,-14.262 20.8005,-20.912 12.4825,-11.461 24.945,-23.004 38.3384,-33.386 31.6341,-24.521 66.896,-43.829 103.5949,-59.435"
       id="path1860" /><path
       style="fill:none;stroke:#00ffff;stroke-width:5.5"
       d="m -808.30645,14153.878 c -132.16571,97.41 83.1496,161.576 80.34729,90.987"
       id="path1862" /><path
       style="fill:none;stroke:#00ffff;stroke-width:5.5"
       d="m -742.23401,14144.706 c -10.06039,-20.668 -18.7102,-42.084 -30.18118,-62.003 -3.39111,-5.889 -26.72448,-37.011 -14.68289,-5.87 11.61811,30.046 23.38167,41.085 44.86407,67.873 20.23192,25.229 42.65877,83.836 65.66461,40.724"
       id="path1864" /><path
       style="fill:none;stroke:#00ffff;stroke-width:5.5"
       d="m -668.41243,14102.882 c -207.32162,102.202 189.9063,25.198 127.25064,107.863"
       id="path1866" /><path
       style="fill:none;stroke:#00ffff;stroke-width:5.5"
       d="m -14.214089,14393.085 c -14.410848,-6.237 -27.667214,-16.639 -43.232572,-18.711 -19.396471,-2.582 -51.919609,14.306 -67.295869,24.214 -79.32907,51.116 -139.84539,194.796 -76.26892,279.93 80.61721,107.953 320.63366,55.81 387.05371,-46.227 75.14587,-115.441 -107.131139,-236.358 -200.256349,-239.206 -35.225619,-1.078 -111.332061,14.038 -95.437961,45.493"
       id="path1868" /><path
       style="fill:none;stroke:#00ffff;stroke-width:5.5"
       d="m -48.881675,14525.162 c 49.01908892,-84.308 116.64672,41.966 51.7973726,74.11 -27.0453636,13.405 -45.9483616,-23.067 -16.7219576,-35.955 17.4636112,-7.7 99.775088,10.539 76.268685,42.559 -37.680529,51.326 -133.326953,46.374 -126.434795,31.184 3.428973,-7.556 15.226558,-6.603 22.839838,-9.905"
       id="path1870" /><path
       style="fill:none;stroke:#00ffff;stroke-width:5.5"
       d="m 360.60386,13366.552 c 7.77227,82.769 17.79083,165.282 33.85196,246.91 46.93655,238.55 103.44078,474.117 134.18415,715.785 19.11046,150.224 24.69573,301.34 45.27187,451.264 12.27524,89.441 25.13627,140.165 24.0633,222.697 -0.29996,23.071 0.75105,128.651 -37.11469,120.703"
       id="path1872" /><path
       style="fill:none;stroke:#00ffff;stroke-width:5.5"
       d="m 530.67903,14189.099 c 40.95533,40.37 95.23913,63.831 150.09048,79.613 157.67603,45.366 329.54449,48.273 491.05649,76.311 111.7884,19.406 226.199,38.676 336.0722,68.24 77.1564,20.761 150.3534,53.424 226.3589,77.779 74.1387,23.757 149.7844,42.789 224.3199,65.305 10.5764,3.195 70.5977,20.943 71.7825,10.639 6.0849,-52.917 -208.3607,-128.003 -183.9423,-175.736 7.8978,-15.438 73.265,-10.72 92.9907,-2.568 35.22,14.554 69.1325,34.056 97.885,59.068 66.8234,58.129 -76.8136,173.745 -152.9453,151.889"
       id="path1874" /><path
       style="fill:none;stroke:#00ffff;stroke-width:5.5"
       d="m 598.79075,14512.688 c 22.16017,4.28 44.56623,7.441 66.48047,12.841 90.47102,22.292 175.10805,49.149 267.96005,64.204 159.78703,25.908 319.85193,41.784 474.74253,91.353 41.7513,13.362 76.8182,27.648 116.2383,44.393 6.5713,2.791 21.1886,14.742 19.9852,7.704 -1.3471,-7.877 -152.4239,-117.216 -174.1538,-132.077 -19.1611,-13.104 -44.1543,-19.356 -58.7311,-37.422 -2.4633,-3.053 -4.6591,-10.955 -0.8156,-11.74 40.3348,-8.237 180.3303,1.274 201.8878,48.428 45.6537,99.862 -71.9195,178.12 -151.7217,201.418 -27.0947,7.91 -54.0437,10.732 -55.4686,-21.279"
       id="path1876" /><path
       style="fill:none;stroke:#00ffff;stroke-width:5.5"
       d="m 509.06308,14730.615 c 17.80955,-1.834 35.66586,-7.745 53.42861,-5.503 31.03419,3.918 56.81855,26.306 86.05737,37.422 106.81234,40.608 217.2409,76.018 325.46768,112.632 209.08766,70.737 424.16886,131.296 628.09556,216.093 22.1168,9.197 44.2426,18.392 66.0726,28.25 11.7625,5.312 23.1992,11.323 34.6673,17.243 5.0691,2.617 18.3689,12.741 15.091,8.072 -32.0836,-45.697 -109.4856,-129.098 -150.4983,-161.428 -12.4725,-9.832 -26.1132,-18.084 -39.1542,-27.149 -4.9047,-3.409 -12.2379,-4.823 -14.6826,-10.273 -6.2657,-13.968 27.1089,-17.415 42.4167,-17.61 66.08,-0.843 158.9794,9.209 212.0845,54.298 105.0779,89.217 -135.4408,201.316 -190.876,228.2 -35.2218,17.082 -73.1574,32.025 -71.3746,19.812 1.8383,-12.593 12.7794,-22.013 19.169,-33.019"
       id="path1878" /></g></svg>
