<?xml version="1.0" encoding="UTF-8" standalone="no"?>
<!-- Created with Inkscape (http://www.inkscape.org/) -->

<svg
   width="181.04066mm"
   height="108.46644mm"
   viewBox="0 0 181.04066 108.46644"
   version="1.1"
   id="svg12"
   inkscape:version="1.2.1 (9c6d41e410, 2022-07-14, custom)"
   sodipodi:docname="three_way_handshake.svg"
   xmlns:inkscape="http://www.inkscape.org/namespaces/inkscape"
   xmlns:sodipodi="http://sodipodi.sourceforge.net/DTD/sodipodi-0.dtd"
   xmlns="http://www.w3.org/2000/svg"
   xmlns:svg="http://www.w3.org/2000/svg">
  <sodipodi:namedview
     id="namedview14"
     pagecolor="#505050"
     bordercolor="#eeeeee"
     borderopacity="1"
     inkscape:showpageshadow="0"
     inkscape:pageopacity="0"
     inkscape:pagecheckerboard="0"
     inkscape:deskcolor="#505050"
     inkscape:document-units="mm"
     showgrid="false"
     inkscape:zoom="0.80495774"
     inkscape:cx="322.99832"
     inkscape:cy="232.31033"
     inkscape:window-width="1366"
     inkscape:window-height="746"
     inkscape:window-x="0"
     inkscape:window-y="0"
     inkscape:window-maximized="1"
     inkscape:current-layer="layer1"
     inkscape:lockguides="false" />
  <defs
     id="defs9" />
  <g
     inkscape:label="Layer 1"
     inkscape:groupmode="layer"
     id="layer1"
     transform="translate(-11.543465,-4.476636)">
    <path
       style="fill:none;stroke:#00ffff;stroke-width:0.264999"
       d="m 14.585645,67.958287 c 0.03536,0.673118 0.131657,1.345797 0.106057,2.019358 -0.003,0.07919 -0.166059,-0.08048 -0.176759,-0.15901 -0.104015,-0.763293 -0.139405,-1.535464 -0.159085,-2.30556 -0.02749,-1.075598 -0.02651,-2.152759 0.01767,-3.2278 0.264064,-6.426055 1.316341,-12.777941 1.732269,-19.191841 0.138735,-2.139391 0.08141,-4.289255 0.31817,-6.423781 0.73651,-0.752621 1.284033,-1.755528 2.20953,-2.257863 0.896167,-0.486416 2.009999,-0.349327 3.004958,-0.572423 1.015267,-0.227649 2.017023,-0.51201 3.022629,-0.779119 2.862786,-0.760414 14.888451,-4.807824 16.403524,-2.544075 0.846014,1.264074 -0.119497,6.02681 -0.141406,6.423782 -0.09582,1.736207 0.08221,4.46929 0.229788,6.073975 0.343972,3.740297 1.046394,7.449365 1.590859,11.162123 0.820293,5.593653 1.314408,11.242024 1.608534,16.886282 0.09705,1.862445 0.07122,3.756303 0.265146,5.612854 0.04882,0.467328 0.628535,2.040503 0.441911,2.544075 -0.03821,0.103092 -1.224524,-0.731541 -1.255015,-0.747322 -0.894358,-0.462874 -1.141712,-0.512682 -2.244883,-0.810927 -3.437901,-0.929445 -6.819907,-0.955503 -10.375932,-1.033523 -4.112743,-0.09023 -8.155476,0.24537 -12.249618,0.588312 -0.292626,0.02451 -3.063838,0.62099 -3.340808,0.0159 -0.0437,-0.09547 0.283521,-0.255028 0.335849,-0.3021 0.154372,-0.138867 0.283858,-0.469523 0.300496,-0.667827 0.12952,-1.543794 -0.06445,-4.722157 -0.300496,-5.946763 -0.287631,-1.492245 -1.327113,-2.8371 -1.343388,-4.356726 -0.01461,-1.364183 1.014522,-2.552719 1.255006,-3.895617 0.35058,-1.957694 -0.0335,-4.030547 0.247467,-6.010369"
       id="path304" />
    <path
       style="fill:none;stroke:#00ffff;stroke-width:0.264999"
       d="m 17.219397,103.4322 c -0.447798,-0.0636 -0.95665,-0.42533 -1.343392,-0.19081 -4.240636,2.57147 -7.2116394,13.20251 0.989868,8.28413 1.0132,-0.60761 2.569259,-1.74545 2.916576,-2.92567"
       id="path306" />
    <path
       style="fill:none;stroke:#00ffff;stroke-width:0.264999"
       d="m 20.436474,102.90748 c 0.01767,-0.45581 0.03535,-0.91163 0.05302,-1.36744 0.0059,-0.0901 0.02117,-0.36053 0.01767,-0.2703 -0.13303,3.43076 -0.227536,-0.34297 0.866137,4.07051 0.467666,1.88725 0.470839,3.95854 0.848463,5.88316"
       id="path308" />
    <path
       style="fill:none;stroke:#00ffff;stroke-width:0.264999"
       d="m 24.555027,110.11038 c 0.256158,-2.14474 0.366696,-1.29275 0.08838,-2.57587"
       id="path310" />
    <path
       style="fill:none;stroke:#00ffff;stroke-width:0.264999"
       d="m 24.484319,103.76611 c 0.08854,-1.13962 -2.031693,-1.79221 -1.661557,-2.95749"
       id="path312" />
    <path
       style="fill:none;stroke:#00ffff;stroke-width:0.264999"
       d="m 26.075178,103.27319 c 1.088508,0.9914 1.056255,1.46344 2.350941,1.39925 1.113012,-0.0552 4.750808,-2.11255 2.987278,-2.40098 -1.615065,-0.26415 -3.409617,3.057 -2.63375,4.37263 1.559623,2.64463 2.606609,0.57701 3.323122,-0.92222"
       id="path314" />
    <path
       style="fill:none;stroke:#00ffff;stroke-width:0.264999"
       d="m 32.102769,103.00289 c 0.400375,0.55561 1.645584,3.35399 2.810515,3.24369 0.471313,-0.0446 -1.059701,-5.4031 0.229798,-4.11822 1.047126,1.04338 2.635769,5.82566 2.439313,2.51228 -0.703929,-5.82807 -0.0014,-0.002 0,0 4.002208,6.59667 2.07326,-0.08 3.181718,4.53161"
       id="path316" />
    <path
       style="fill:none;stroke:#00ffff;stroke-width:0.264999"
       d="m 38.236419,108.93376 c 1.514475,-0.88591 5.266184,-4.50847 7.689148,-3.41861"
       id="path318" />
    <path
       style="fill:none;stroke:#00ffff;stroke-width:0.264999"
       d="m 149.40209,78.563884 c -0.19443,-2.667873 0.1336,-5.364247 0.0354,-8.045624 -0.35778,-9.770303 -1.02224,-19.53469 -1.30805,-29.304533 -0.11956,-4.087016 0.31566,-8.721928 0,-12.688564 -0.0887,-1.115058 -0.43601,-2.194264 -0.65401,-3.291396 4.05639,1.668865 7.44537,1.999268 11.68398,1.908056 4.79444,-0.103174 9.55709,-0.813357 14.35308,-0.92223 0.80531,-0.01828 3.86217,-0.358114 4.61349,0.492918 0.16475,0.186623 -0.39594,4.879709 -0.40656,5.263047 -0.25023,9.036898 0.28055,18.079643 0.49495,27.110276 0.12775,5.38115 0.25419,10.800805 0.17674,16.186657 -0.003,0.235213 0.28391,2.913017 -0.30048,3.307294 -0.44768,0.302041 -1.63845,-0.270925 -2.03276,-0.318009 -0.79143,-0.0945 -3.38207,-0.028 -3.64132,-0.0159 -6.44746,0.300855 -12.69124,1.752751 -19.0903,2.385065 -5.75574,0.568744 -3.7055,-0.724632 -5.92154,0.906331"
       id="path320" />
    <path
       style="fill:none;stroke:#00ffff;stroke-width:0.264999"
       d="m 159.8311,96.02259 c -5.9346,5.90865 2.81931,5.18276 3.00495,9.71517 0.13433,3.27969 -3.0346,5.47433 -2.89891,0.28622"
       id="path322" />
    <path
       style="fill:none;stroke:#00ffff;stroke-width:0.264999"
       d="m 162.58859,104.40212 c 1.52421,0.36504 2.65321,0.83836 4.17158,0.68373 3.81908,-0.38893 3.92201,-4.17501 1.39642,-3.52991 -2.45219,0.62635 -4.52943,4.51731 -1.6262,6.10578 2.04611,1.11952 5.0138,0.17158 5.39124,-2.16246"
       id="path324" />
    <path
       style="fill:none;stroke:#00ffff;stroke-width:0.264999"
       d="m 170.47219,101.84215 c -0.28872,-0.51411 -0.57744,-1.02823 -0.86615,-1.54234 -0.0236,-0.0689 -0.10636,-0.2702 -0.0707,-0.20671 2.1502,3.82884 -0.79099,-0.441773 4.25996,3.95922 0.0216,0.0188 1.59732,2.10168 1.44946,2.40096 -0.35457,0.71767 -1.17266,-1.13212 -1.53783,-1.84446 -0.94232,-1.83816 -0.83331,-3.09217 1.11358,-3.7525 3.32848,-0.83935 3.30943,2.03873 5.51499,2.89389 0.54215,0.2102 -0.77026,-2.71549 -0.53027,-2.90978 1.37903,-1.116436 3.65853,-0.57716 5.23215,-1.494646 1.07773,-0.628364 0.1411,-1.492031 -0.63634,-1.749056 -3.76536,-1.244845 -3.06135,4.608092 0.91915,4.754242 2.59614,0.0953 1.47162,-3.785784 1.09594,-4.992747 -0.13251,-0.42571 -0.67954,-1.643959 -0.45958,-1.256138 0.74886,1.320335 0.36365,0.834385 1.53782,2.400974 0.51392,0.685691 1.12223,1.301945 1.59086,2.019361 0.48362,0.74037 0.94563,1.50891 1.25502,2.33736 0.0676,0.18107 -0.36718,-0.15707 -0.49494,-0.3021 -0.95555,-1.08466 -1.70611,-2.46056 -1.74995,-3.959217 -0.0652,-2.227442 2.3326,-5.011582 4.40137,-3.195992"
       id="path326" />
    <path
       style="fill:none;stroke:#00ffff;stroke-width:0.264999"
       d="m 48.700732,33.16809 c 0.565639,-0.132501 1.117113,-0.361032 1.696915,-0.397503 1.230562,-0.07741 3.534225,0.918673 4.684205,1.128925 2.578669,0.471463 5.213599,0.782034 7.812881,1.113038 4.81348,0.612971 9.704141,0.371703 14.459146,1.446935 3.087925,0.698264 6.101487,1.759249 9.17395,2.528176 9.158023,2.291926 18.284531,4.169264 27.645611,5.39025 3.87729,0.505725 7.57829,0.13036 11.47186,0.0159 0.92609,-0.02723 4.00606,0.584123 4.68419,-0.445212 1.06376,-1.614702 -2.8542,-2.992255 -3.67665,-3.259587 -1.32864,-0.431867 -1.9291,-0.486879 -1.55551,-0.572424 1.53491,-0.351449 3.65764,-0.03122 5.07309,0.636019 2.14097,1.009248 3.00313,2.547718 2.49233,4.913241 -0.12753,0.590603 -4.00938,8.432831 -3.90645,5.469752"
       id="path328" />
    <path
       style="fill:none;stroke:#00ffff;stroke-width:0.264999"
       d="m 81.790613,9.7785279 c -0.954516,1.4151391 -1.973572,2.7888271 -2.863548,4.2454191 -2.388029,3.90839 -0.44926,3.933086 2.934245,5.008643 1.480682,0.470684 5.985589,1.581989 4.896318,4.181818 -0.962591,2.297474 -3.099768,3.730904 -5.479635,4.245423 -2.156811,0.466297 -3.426012,-0.586705 -1.555501,-2.528175"
       id="path332" />
    <path
       style="fill:none;stroke:#00ffff;stroke-width:0.264999"
       d="m 95.595735,12.97452 c -0.0766,0.445212 -0.193466,0.885347 -0.229798,1.335638 -0.202044,2.504089 -0.242991,5.111227 -0.03535,7.616314 0.03598,0.434038 0.149024,1.883356 0.459584,2.432772 0.04541,0.08032 0.238747,0.167916 0.265139,0.07951 0.810956,-2.716725 0.02093,-5.854846 -0.742397,-8.506747 -0.138231,-0.480233 -0.542507,-0.91768 -0.494935,-1.415143 0.05481,-0.573166 1.147035,-1.100573 0.777756,-1.542339 -0.543814,-0.650562 -1.691293,-0.230827 -2.492346,-0.508817 -0.355253,-0.123284 -1.706343,-1.515227 -2.174174,-1.431042 -0.03213,0.0058 0.208466,0.212178 1.113597,0.842725 0.522108,0.363717 1.04879,0.72082 1.573186,1.08123 0.659913,0.0053 1.42071,-0.334813 1.979737,0.0159 0.734158,0.46059 0.952363,1.449318 1.467128,2.14656 0.703093,0.952328 0.102664,-2.381268 0.388866,-3.5299 0.543446,-2.1810209 1.522484,-5.006401 3.004962,-6.9325989 0.19575,-0.254328 -0.37075,0.5241335 -0.565639,0.7791194"
       id="path334" />
    <path
       style="fill:none;stroke:#00ffff;stroke-width:0.264999"
       d="m 104.08031,21.608463 c 0.35942,-1.155433 0.76318,-2.297998 1.07826,-3.4663 1.2518,-4.641499 -0.0592,-3.714191 3.21707,1.431042 1.1115,1.745572 1.9514,2.368676 2.19185,2.00346 1.75545,-2.666337 2.09951,-8.252307 0.91915,-11.193922 -0.22232,-0.5540581 -0.57639,0.88247 -1.09592,2.671276"
       id="path336" />
    <path
       style="fill:none;stroke:#00ffff;stroke-width:0.264999"
       d="m 136.33941,62.536228 c -10.45525,-1.148554 -20.97998,-1.06358 -31.48134,-1.399238 -6.718456,-0.214744 -13.205984,-0.4185 -19.903413,0.397515 -5.225407,0.636661 -11.633658,1.585791 -16.898469,0.683715 -0.505733,-0.08665 -0.990158,-0.433724 -1.484802,-0.572413 -0.762686,-0.213841 -2.297832,7.7e-5 -2.898897,-0.540615 -0.383868,-0.345308 0.620289,-0.859232 1.060574,-1.128937 1.75327,-1.073997 3.531841,-2.172719 5.073073,-3.545798 0.105884,-0.09433 1.322285,-1.229696 0.795431,-1.510543 -2.231406,-1.189474 -10.087967,6.191969 -9.439098,8.697544 0.748361,2.889756 8.07262,3.776724 10.517346,4.293121 1.502648,0.317403 1.448647,0.07258 2.032762,0.492917"
       id="path338" />
    <path
       style="fill:none;stroke:#00ffff;stroke-width:0.264999"
       d="m 71.432345,44.53692 c -0.0766,0.545915 -0.04512,1.118333 -0.229788,1.637745 -0.411035,1.156097 -1.803339,2.466472 -2.03277,3.704807 -0.12261,0.661773 1.350127,0.02331 2.015096,0.127203 1.428284,0.22315 4.478073,1.645725 4.34835,3.498102 -0.186079,2.657104 -5.454621,2.652675 -5.674074,0.349808"
       id="path340" />
    <path
       style="fill:none;stroke:#00ffff;stroke-width:0.264999"
       d="m 80.553271,55.190217 c 0.229793,-1.150133 0.528978,-2.288553 0.689374,-3.450396 0.396923,-2.875156 -0.329602,-2.49663 -2.934248,-3.450395 -0.44804,-0.164062 -2.022289,-0.541406 -2.297914,-0.93813 -0.169452,-0.243901 0.276138,-0.101007 1.219666,0.254405 0.232434,0.08755 4.217718,1.59045 4.242284,1.574146 1.349034,-0.895215 -0.710131,-4.787008 0.954519,-5.517459 0.608139,-0.266854 0.944335,1.3126 1.007544,1.574146"
       id="path342" />
    <path
       style="fill:none;stroke:#00ffff;stroke-width:0.264999"
       d="m 86.174312,53.616079 c 0.100166,0.445212 -0.144717,1.435798 0.300495,1.335632 0.445212,-0.100163 -0.358243,-0.882959 -0.300495,-1.335632 0.0065,-0.05079 1.576617,-5.29916 1.608534,-5.278956 1.209482,0.765617 1.619234,3.541075 2.138826,4.801939 0.113265,0.274857 0.313965,1.102648 0.371191,0.810926 0.04797,-0.244517 -0.0075,-0.498356 -0.01767,-0.747321 -0.06049,-1.473628 -0.163174,-2.945796 -0.194437,-4.420332 -0.03261,-1.537836 0.294333,-2.462028 0.212111,-2.273763 -0.07465,0.170936 -0.129624,0.34981 -0.194437,0.524716"
       id="path344" />
    <path
       style="fill:none;stroke:#00ffff;stroke-width:0.264999"
       d="m 96.267422,57.813797 c 0.691208,-0.813081 2.135283,-2.518019 2.8282,-3.307295 1.449668,-1.651264 3.035748,-3.158371 4.507438,-4.78604 0.54043,-0.597707 1.01118,-1.278054 1.53782,-1.892157 0.15157,-0.176747 0.49494,-0.725747 0.49494,-0.492908 0,0.151606 -0.1668,0.253238 -0.24746,0.381606"
       id="path346" />
    <path
       style="fill:none;stroke:#00ffff;stroke-width:0.264999"
       d="m 110.05487,58.020502 c 1.13128,-2.579007 1.88397,-5.341175 2.47468,-8.093331 0.31541,-1.469507 0.17575,-0.873818 0.21212,-2.03526 0.004,-0.122409 0.0278,-0.487942 0.0353,-0.365704 0.14238,2.305507 0.59504,4.425529 1.89135,6.407882 0.72062,1.10199 1.30737,1.723224 2.17417,2.591771 0.18424,0.184608 0.37593,0.361638 0.56565,0.540616 0.0519,0.04894 0.21713,0.18456 0.15909,0.1431 -0.25809,-0.184362 -0.50673,-0.381609 -0.76009,-0.572413"
       id="path348" />
    <path
       style="fill:none;stroke:#00ffff;stroke-width:0.264999"
       d="m 111.78714,55.222026 c 1.119,-0.476274 3.2021,-1.942476 4.40138,-1.335644"
       id="path350" />
    <path
       style="fill:none;stroke:#00ffff;stroke-width:0.264999"
       d="m 119.44093,52.07373 c -0.33584,0.667819 -0.81771,1.280451 -1.00754,2.003459 -0.0994,0.378542 0.048,0.791155 0.17677,1.160735 1.08522,3.114538 5.64851,-0.705262 4.34835,-1.192532"
       id="path352" />
    <path
       style="fill:none;stroke:#00ffff;stroke-width:0.264999"
       d="m 123.87768,51.087903 c 0.87654,1.02208 0.47348,3.177813 1.6969,3.911515"
       id="path354" />
    <path
       style="fill:none;stroke:#00ffff;stroke-width:0.264999"
       d="m 127.85482,52.677951 c -0.48904,0.651917 -1.03738,1.263309 -1.46713,1.955752 -1.35186,2.178204 4.65758,0.745951 5.23217,2.591771"
       id="path356" />
    <path
       style="fill:none;stroke:#00ffff;stroke-width:0.264999"
       d="m 59.872104,80.440143 c 6.447806,-0.193051 12.595698,2.023133 19.037287,1.955752 4.960056,-0.05188 9.913191,-0.557207 14.865688,-0.76322 4.42881,-0.184226 8.822211,0.173392 13.239491,0 1.87186,-0.12515 3.27413,-0.233338 5.14378,-0.302109 2.71292,-0.09979 5.43605,-0.0641 8.14873,0.0159 0.23642,0.007 1.57352,-0.109633 1.62621,-0.47701 0.30236,-2.108073 -9.35168,-1.446657 -4.41905,-2.925691 0.52257,-0.156689 1.06386,-0.27119 1.60854,-0.302109 2.80436,-0.159197 4.63304,0.595011 5.03771,3.768415 0.0298,0.233281 -1.33762,7.62688 -2.2979,5.899066"
       id="path358" />
    <path
       style="fill:none;stroke:#00ffff;stroke-width:0.264999"
       d="m 84.954657,99.806894 c 1.312701,-1.792349 1.025075,-1.147099 1.855993,-3.641204 0.767305,-2.303158 1.304857,-4.666618 1.90903,-7.012104 0.03604,-0.139904 -0.140002,1.405848 1.201992,4.356727 1.136872,2.499844 3.052574,4.49076 4.843274,6.519187 0.341085,0.38636 1.355945,1.01306 0.901486,1.25614 -0.250479,0.13397 -0.565634,-0.053 -0.848453,-0.0795"
       id="path360" />
    <path
       style="fill:none;stroke:#00ffff;stroke-width:0.264999"
       d="m 88.419185,98.63026 c 0.05303,-0.540615 -0.202856,-1.216787 0.159088,-1.621846 1.256205,-1.405834 4.035817,-1.152101 5.638716,-0.90633"
       id="path362" />
    <path
       style="fill:none;stroke:#00ffff;stroke-width:0.264999"
       d="m 98.600687,92.381376 c -4.306747,1.839417 -2.878166,6.007145 1.856003,5.119946 1.30163,-0.243927 7.45221,-2.766679 4.73723,-2.766679"
       id="path364" />
    <path
       style="fill:none;stroke:#00ffff;stroke-width:0.264999"
       d="m 107.33273,90.044018 c 0.13618,1.480417 -0.0823,6.436508 2.29792,6.694085 0.46997,0.05086 0.86024,-0.392208 1.29037,-0.588312"
       id="path366" />
    <path
       style="fill:none;stroke:#00ffff;stroke-width:0.264999"
       d="m 112.5649,91.777165 c -0.83078,0.503516 -1.74225,0.893226 -2.49235,1.510541 -4.19493,3.452341 6.39686,2.561444 7.14119,2.575875 0.36686,0.0071 1.80789,-0.05317 1.73227,0.763219"
       id="path368" />
  </g>
</svg>
