<?xml version="1.0" encoding="UTF-8" standalone="no"?>
<!-- Created with Inkscape (http://www.inkscape.org/) -->

<svg
   width="210mm"
   height="297mm"
   viewBox="0 0 210 297"
   version="1.1"
   id="svg12"
   inkscape:version="1.2.1 (9c6d41e410, 2022-07-14, custom)"
   sodipodi:docname="threaded_tree_example.svg"
   xmlns:inkscape="http://www.inkscape.org/namespaces/inkscape"
   xmlns:sodipodi="http://sodipodi.sourceforge.net/DTD/sodipodi-0.dtd"
   xmlns="http://www.w3.org/2000/svg"
   xmlns:svg="http://www.w3.org/2000/svg">
  <sodipodi:namedview
     id="namedview14"
     pagecolor="#505050"
     bordercolor="#eeeeee"
     borderopacity="1"
     inkscape:showpageshadow="0"
     inkscape:pageopacity="0"
     inkscape:pagecheckerboard="0"
     inkscape:deskcolor="#505050"
     inkscape:document-units="mm"
     showgrid="false"
     inkscape:zoom="0.71307869"
     inkscape:cx="472.59861"
     inkscape:cy="336.56875"
     inkscape:window-width="1366"
     inkscape:window-height="746"
     inkscape:window-x="1360"
     inkscape:window-y="0"
     inkscape:window-maximized="1"
     inkscape:current-layer="layer1"
     inkscape:lockguides="false" />
  <defs
     id="defs9" />
  <g
     inkscape:label="Layer 1"
     inkscape:groupmode="layer"
     id="layer1">
    <g
       id="g528"
       transform="matrix(1.685753,0,0,1.685753,-92.64624,69.454731)">
      <path
         style="fill:none;stroke:#00ffff;stroke-width:0.264999"
         d="m 117.06295,-28.428899 c -2.17081,1.559332 -5.70789,0.247737 -1.42195,-2.468592 2.13541,-1.353373 7.1582,0.649534 5.87073,2.468592 -0.62663,0.88537 -1.68151,1.417513 -2.67492,1.853033 -1.11109,0.487115 -4.35471,1.013258 -4.81482,-0.882095 -0.0867,-0.356965 0.16893,-0.71498 0.2534,-1.072472"
         id="path254" />
      <path
         style="fill:none;stroke:#00ffff;stroke-width:0.264999"
         d="m 103.13928,-15.31171 c 2.05344,-0.729268 7.25648,-1.814259 7.70093,1.434198 0.0687,0.502102 -0.0617,1.041798 -0.29567,1.49131 -0.19946,0.383115 -0.57112,0.669156 -0.94324,0.888441 -2.62251,1.5454143 -6.80788,1.6437411 -9.31994,-0.247495 -0.521133,-0.392344 -0.753998,-1.110102 -0.87287,-1.751496 -0.05589,-0.301549 0.199051,-0.594739 0.394192,-0.831328 1.077838,-1.30676 3.265358,-1.46185 4.814848,-1.36439 0.0576,0.0036 0.53943,-0.01009 0.67575,0.133269 0.0643,0.06762 -0.19419,0.02469 -0.26749,0.08249 -0.019,0.01521 -0.0806,0.14596 -0.014,0.14596 0.17608,0 1.05703,-0.680785 1.14033,-0.736135 3.11756,-2.070913 6.24599,-4.154709 8.99614,-6.707724 1.37708,-1.278366 1.06914,-0.999983 2.26664,-2.417828 0.44582,0.437874 0.86967,0.899302 1.33746,1.313623 0.33617,0.297748 0.72463,0.531559 1.06997,0.818633 2.37364,1.97321 4.62057,4.092729 7.0533,5.996971 0.0706,0.05528 1.42178,1.149213 1.7739,1.205743 0.12918,0.02074 0.20646,-0.160766 0.3097,-0.241149 -1.9676,0.174649 -4.08179,2.605069 -1.8302,4.118552 1.7572,1.18116 5.08952,0.929052 7.02515,0.659986 0.85641,-0.119046 2.6124,-0.512099 3.25212,-1.281892 0.24083,-0.289809 0.41453,-0.793311 0.21118,-1.11055 -1.65214,-2.577474 -4.92249,-2.163755 -7.48974,-1.878416 -1.9852,0.220648 -1.78576,0.213399 -1.06996,0.355375"
         id="path256" />
      <path
         style="fill:none;stroke:#00ffff;stroke-width:0.264999"
         d="m 100.57707,-9.5368519 c -1.803544,1.8688939 -4.118362,2.9887034 -6.321227,4.2835491 -0.596628,0.3506967 -1.184056,0.7168277 -1.773896,1.0788189 -0.427713,0.262491 -1.48997,0.7873508 -1.942823,1.2247793 -0.335449,0.324022 0.640991,-0.3666305 0.872871,-0.5584478 0.27659,-0.2288011 0.551881,-0.4591992 0.830628,-0.6853677 2.412918,-1.9577788 5.407612,-4.1999389 8.334447,-5.3433318 z"
         id="path258" />
      <path
         style="fill:none;stroke:#00ffff;stroke-width:0.264999"
         d="m 105.71572,-9.7843466 c 1.10179,1.277058 1.75599,2.8551296 2.80158,4.1820145 0.91895,1.1661724 2.05528,2.2162756 3.13951,3.2301154 0.12516,0.1170351 1.61202,1.339415 1.73165,1.8022632 0.0236,0.0914398 -0.1877,0.021154 -0.28155,0.031731"
         id="path260" />
      <path
         style="fill:none;stroke:#00ffff;stroke-width:0.264999"
         d="m 92.876155,-3.8508363 c 0.18302,-0.038076 0.365037,-0.081336 0.54906,-0.1142293 0.185722,-0.033198 0.387967,-0.056612 0.577226,-0.044422 0.03305,0.00212 0.09855,0.045815 0.09855,0.012695 0,-0.085854 -0.232891,-0.2253827 -0.295677,-0.2094182 -0.321374,0.081718 -0.598948,0.3856952 -0.929158,0.3553745 -0.486223,-0.044646 -0.870718,-0.4798242 -1.351534,-0.564793 -0.372036,-0.065745 -0.752766,0.070124 -1.126273,0.1269201 -1.848282,0.2810544 -4.233969,0.7687452 -4.786686,2.893777 -0.105323,0.40493906 -0.02013,0.87056466 0.168944,1.24381547 1.400228,2.76405043 6.722766,2.59561813 9.13692,1.81495403 0.952024,-0.3078557 2.554401,-0.88567206 2.94241,-2.04975804 0.1451,-0.43532557 0.143709,-1.04220886 -0.183036,-1.36439026 -2.246193,-2.2148284 -5.576274,-1.8863951 -8.404839,-1.7514959 -0.451427,0.021529 -0.9013,0.068507 -1.351521,0.1078838 -0.178657,0.015626 -0.697047,0.1339115 -0.534982,0.057113 0.340239,-0.1612313 0.722696,-0.2115322 1.084043,-0.3172984"
         id="path264" />
      <path
         style="fill:none;stroke:#00ffff;stroke-width:0.264999"
         d="m 116.20414,-2.1564529 c -1.76968,0.1963578 -1.33051,0.013768 -3.60406,1.78322697 -1.15566,0.89941873 -2.10147,2.49037693 -0.1408,3.21742083 2.76179,1.0241063 7.01961,0.2261441 9.74229,-0.4442185 0.16217,-0.039929 3.91869,-0.8626236 4.19538,-2.03706726 0.22956,-0.97440601 -2.01504,-1.66664944 -2.30885,-1.74515054 -3.27702,-0.8755536 -7.05206,-0.3907275 -10.26321,0.55210226 -0.33987,0.0997903 0.69978,-0.11734138 1.04182,-0.20941836"
         id="path266" />
      <path
         style="fill:none;stroke:#00ffff;stroke-width:0.264999"
         d="m 90.708069,2.425358 c -1.30342,0.5801147 -2.361282,1.6936401 -3.435152,2.6082057 -2.811872,2.3947453 -0.604631,0.5114068 -3.181717,2.7351299 -0.327454,0.2825538 -0.656773,0.5629402 -0.985497,0.844015 -0.0957,0.081829 -0.548349,0.5711426 -0.633531,0.5711426 -0.128403,0 0.281815,-0.3119597 0.112625,-0.7170989 -0.200046,-0.4790268 -0.765196,-0.720139 -1.22482,-0.8376737 -1.901393,-0.4862243 -7.318499,1.002558 -8.010649,3.0905044 -0.243599,0.734847 1.869771,1.642683 1.886519,1.649958 3.734826,1.622011 8.241789,1.129198 11.839974,-0.545753 0.353568,-0.164586 0.621938,-0.593804 0.633532,-0.98363 0.09279,-3.1199808 -6.016628,-3.3440738 -7.954328,-2.6526316"
         id="path268" />
      <path
         style="fill:none;stroke:#00ffff;stroke-width:0.264999"
         d="m 95.255412,2.2857471 c 1.531885,0.6301446 2.771902,1.7391043 4.082743,2.7160896 1.410855,1.0515288 1.320155,0.9519592 2.688975,1.8974522 0.80751,0.5577719 0.4763,0.3198355 0.98552,0.7170989 0.0278,0.021659 0.11966,0.063458 0.0845,0.063458 -0.80232,0 -1.57556,-0.5185704 -2.36518,-0.6219058 -1.340605,-0.1754393 -2.708315,0.3060232 -3.801161,1.0597828 -0.704067,0.4856122 -1.475137,1.3284879 -1.703498,2.1766782 -0.665428,2.471558 2.491676,3.424461 4.29393,3.566454 3.102499,0.244434 4.816829,-0.18286 8.010629,-1.288241 1.49749,-0.518284 2.91791,-1.43885 2.12584,-3.4268395 -0.6202,-1.5566554 -6.69488,-0.925309 -7.88393,-0.7805571 -0.49066,0.059733 -0.97587,0.1580208 -1.46415,0.2348 -0.1171,0.018412 -0.24576,0.103419 -0.351953,0.050768 -0.06061,-0.030053 0.0469,-0.1269188 0.07036,-0.1903783"
         id="path270" />
      <path
         style="fill:none;stroke:#00ffff;stroke-width:0.264999"
         d="m 119.63929,3.4724498 c -0.46318,1.2773073 -0.96251,2.5357209 -1.54862,3.7631777 -0.12468,0.2611157 -1.71293,3.1352095 -1.5768,3.2681925 0.11015,0.107595 -0.0409,-0.316382 -0.1267,-0.444223 -0.4136,-0.6160684 -0.8812,-1.1894184 -1.67534,-1.2247752 -1.42652,-0.063512 -4.01859,0.9447144 -3.74486,2.7732022 0.66988,4.474746 10.4976,3.603967 12.6143,1.205739 0.88374,-1.001283 0.14529,-2.022183 -0.73208,-2.36706 -1.95724,-0.7693568 -4.20663,-0.4589334 -6.22268,-0.2348 -0.94804,0.105398 -1.33907,0.272839 -0.52092,-0.01269"
         id="path272" />
      <path
         style="fill:none;stroke:#00ffff;stroke-width:0.264999"
         d="m 137.1388,-11.497766 c -1.02465,4.7472459 0.79312,-3.546094 -0.73208,2.8366603 -0.79313,3.3191794 -0.50498,2.6863461 -1.15442,5.0958408 -0.11466,0.4253942 -0.66059,1.0414122 -0.29564,1.2882373 0.13934,0.094243 -0.0433,-0.3942308 -0.1971,-0.5076805 -0.5798,-0.4276648 -1.48669,-0.4568994 -2.16809,-0.4378729 -1.24122,0.034658 -3.94958,0.9714956 -3.5196,2.62724186 0.82463,3.17552304 8.65978,2.56907594 10.99525,2.05610744 0.43423,-0.095375 2.43473,-0.46975162 2.81571,-1.20574306 0.5579,-1.07778288 -1.68048,-1.90101644 -2.82977,-2.29090344 -0.87489,-0.2968006 -1.82189,-0.3521771 -2.74531,-0.3807604 -1.92619,-0.059622 -2.87249,0.053311 -4.39248,0.2538403"
         id="path278" />
      <path
         style="fill:none;stroke:#ff0000;stroke-width:0.264999"
         d="m 75.503341,11.893591 c -1.413373,1.397213 -2.971655,2.633836 -4.4488,3.959906 -0.367003,0.32947 -0.99424,1.206776 -1.252987,0.786902"
         id="path424" />
      <path
         style="fill:none;stroke:#ff0000;stroke-width:0.264999"
         d="m 82.950835,12.680498 c 1.100836,1.513843 2.043419,3.125071 3.16766,4.626236 0.334531,0.446691 0.247126,0.43978 0.436436,0.126916"
         id="path426" />
      <path
         style="fill:none;stroke:#ff0000;stroke-width:0.264999"
         d="m 99.324095,13.651437 c -0.692197,0.844538 -1.339088,1.726241 -2.055479,2.551093 -0.298992,0.344261 -0.606427,0.695483 -0.901023,1.040742 -0.05172,0.06062 0.04552,-0.152754 0.0704,-0.228458"
         id="path428" />
      <path
         style="fill:none;stroke:#ff0000;stroke-width:0.264999"
         d="m 106.32106,13.632397 c 1.23972,0.809509 1.94906,2.582682 3.25215,3.350686"
         id="path430" />
      <path
         style="fill:none;stroke:#ff0000;stroke-width:0.264999"
         d="m 121.38503,14.425648 c 0.93681,1.014395 2.02199,1.817186 3.20987,2.506672 0.31857,0.184906 0.64378,0.358417 0.97142,0.526712 0.0764,0.03923 0.31761,0.05989 0.23934,0.09519 -0.0851,0.03837 -0.17833,-0.055 -0.26749,-0.08249"
         id="path432" />
      <path
         style="fill:none;stroke:#ff0000;stroke-width:0.264999"
         d="m 117.1474,15.053903 c -0.44132,0.967789 -1.76499,2.273306 -1.92874,3.306265 -0.0146,0.09229 0.17569,-0.07754 0.23934,-0.145957"
         id="path434" />
      <path
         style="fill:none;stroke:#ff0000;stroke-width:0.264999"
         d="m 136.77276,1.3846154 c -0.30033,0.2326863 -0.62093,0.4413331 -0.90099,0.6980587 -0.84632,0.7758125 -1.47232,1.7413395 -2.09769,2.6907039 -0.19136,0.2904972 -0.38972,0.5764064 -0.57723,0.8694047 -0.13064,0.2041448 -0.55842,0.7756639 -0.36604,0.6282513 0.1925,-0.1474978 0.42136,-0.5932522 0.52089,-0.7615169"
         id="path436" />
      <path
         style="fill:none;stroke:#ff0000;stroke-width:0.264999"
         d="m 140.91184,1.346539 c 1.02772,0.594409 2.04279,1.2112583 3.08317,1.783227 1.25651,0.690789 3.96712,1.6014258 4.80076,2.252831"
         id="path438" />
    </g>
  </g>
</svg>
