<?xml version="1.0" encoding="UTF-8" standalone="no"?>
<!-- Created with Inkscape (http://www.inkscape.org/) -->

<svg
   width="577.31464mm"
   height="892.4483mm"
   viewBox="0 0 577.31461 892.44831"
   version="1.1"
   id="svg12"
   inkscape:version="1.2.1 (9c6d41e410, 2022-07-14, custom)"
   sodipodi:docname="traceRoute_Example.svg"
   xml:space="preserve"
   xmlns:inkscape="http://www.inkscape.org/namespaces/inkscape"
   xmlns:sodipodi="http://sodipodi.sourceforge.net/DTD/sodipodi-0.dtd"
   xmlns="http://www.w3.org/2000/svg"
   xmlns:svg="http://www.w3.org/2000/svg"><sodipodi:namedview
     id="namedview14"
     pagecolor="#000000"
     bordercolor="#ffffff"
     borderopacity="1"
     inkscape:showpageshadow="0"
     inkscape:pageopacity="0"
     inkscape:pagecheckerboard="0"
     inkscape:deskcolor="#000000"
     inkscape:document-units="mm"
     showgrid="true"
     inkscape:zoom="0.51161166"
     inkscape:cx="1014.4413"
     inkscape:cy="2976.8672"
     inkscape:window-width="1366"
     inkscape:window-height="746"
     inkscape:window-x="0"
     inkscape:window-y="0"
     inkscape:window-maximized="1"
     inkscape:current-layer="layer1"
     inkscape:lockguides="true"><inkscape:grid
       type="xygrid"
       id="grid344"
       color="#969696"
       opacity="0.39215686"
       empcolor="#ffffff"
       empopacity="0.17254902"
       dotted="false"
       originx="-15540.089"
       originy="-31439.003" /></sodipodi:namedview><defs
     id="defs9" /><g
     inkscape:label="Layer 1"
     inkscape:groupmode="layer"
     id="layer1"
     transform="translate(-15645.094,-31587.504)"><path
       style="fill:none;stroke:#ff9955;stroke-width:0.499999"
       d="m 15733.294,31632.514 c 0.1,6.803 0.427,13.715 -1.163,20.392 -0.125,0.522 -1.752,4.278 -1.541,5.204 0.132,0.58 12.312,-1.369 13.394,-1.415 0.883,-0.04 10.071,0.401 10.973,-0.424 1.666,-1.524 0.913,-20.716 0.943,-22.4 0.02,-1.035 0.797,-3.641 -0.314,-4.355 -1.553,-0.998 -10.14,2.238 -12.231,2.545 -4.065,0.598 -6,0.453 -10.061,0.453 z"
       id="path920" /><path
       style="fill:none;stroke:#ff9955;stroke-width:0.499999"
       d="m 15745.241,31634.974 c -1.783,3.512 -3.027,7.273 -4.181,11.031 -0.1,0.312 -0.344,1.189 -0.44,0.876 -0.216,-0.701 -0.315,-1.433 -0.472,-2.149"
       id="path922" /><path
       style="fill:none;stroke:#ff9955;stroke-width:0.499999"
       d="m 15739.582,31639.698 c 2.291,3.374 4.456,6.959 7.735,9.474"
       id="path924" /><path
       style="fill:none;stroke:#ff9955;stroke-width:0.499999"
       d="m 15756.749,31644.223 c 1.656,0.198 3.3,0.557 4.968,0.594 1.733,0.04 3.457,-0.264 5.187,-0.368 6.591,-0.397 13.192,-0.574 19.777,-1.075 2.731,-0.207 9.393,-1.647 11.507,0.255"
       id="path926" /><path
       style="fill:none;stroke:#ff9955;stroke-width:0.499999"
       d="m 15808.752,31648.776 c -1.658,2.142 -3.656,3.549 -5.973,1.33 -3.297,-3.157 -4.156,-8.241 -3.459,-12.614 4.975,-31.195 41.024,1.279 24.241,17.393 -11.765,11.297 -26.524,-7.876 -22.543,-18.242"
       id="path928" /><path
       style="fill:none;stroke:#ff9955;stroke-width:0.499999"
       d="m 15820.103,31634.437 c -1.125,2.626 -1.764,5.422 -2.767,8.089 -1.104,2.935 -2.417,5.916 -2.987,5.6 -0.342,-0.189 -0.935,-7.704 -0.975,-8.117 -0.148,-1.555 -0.179,-1.37 -0.471,-2.687 -0.04,-0.178 -0.21,-0.678 -0.09,-0.537 1.069,1.31 1.372,1.983 2.421,3.761 0.844,1.429 6.516,11.049 7.672,10.945 0.378,-0.03 0.08,-0.754 0.126,-1.131"
       id="path930" /><path
       style="fill:none;stroke:#ff9955;stroke-width:0.499999"
       d="m 15805.766,31588.789 c 0.497,5.927 0.223,2.944 0.786,8.598 0.23,2.319 0.464,4.638 0.691,6.958 0.233,2.37 0.273,2.892 0.189,2.828 -2.084,-1.587 -1.79,-17.212 2.295,-17.62 5.791,-0.579 2.457,12.628 2.295,13.462 -0.254,1.317 -1.2,2.457 -1.352,3.79 -0.07,0.63 1.214,-0.366 1.824,-0.537 3.388,-0.952 4.422,-1.643 6.508,0.792 4.912,4.739 3.237,5.029 4.811,9.276"
       id="path932" /><path
       style="fill:none;stroke:#ff9955;stroke-width:0.499999"
       d="m 15828.497,31641.593 c 1.384,-0.302 2.751,-0.694 4.151,-0.905 3.795,-0.574 7.671,-0.455 11.476,-0.962 3.778,-0.503 7.742,-1.74 11.476,-2.404 10.316,-1.836 12.848,-1.949 23.235,-3.083 4.344,-0.474 8.641,-0.903 13.016,-0.848 0.933,0.01 2.443,-0.451 2.767,0.424 0.101,0.272 -0.565,0.138 -0.849,0.198 -0.126,0.03 -0.633,0.275 -0.66,0.254 -1.594,-1.237 -1.946,-2.28 -2.295,-4.44 -0.616,-3.808 0.62,-6.943 3.049,-10.21 3.291,-4.425 16.162,4.686 18.048,7.608 4.981,7.719 2.495,16.061 -2.799,22.881 -1.26,1.624 -2.521,3.422 -4.339,4.383 -2.374,1.257 -5.361,3.169 -7.797,2.037 -9.721,-4.52 -19.129,-28.744 -7.231,-35.834 2.174,-1.296 4.896,-0.676 7.168,-0.453"
       id="path934" /><path
       style="fill:none;stroke:#ff9955;stroke-width:0.499999"
       d="m 15900.623,31631.977 c -2.551,3.226 -0.68,9.077 -3.05,12.274 -0.34,0.46 -0.831,-0.961 -2.106,-3.563"
       id="path936" /><path
       style="fill:none;stroke:#ff9955;stroke-width:0.499999"
       d="m 15893.612,31634.183 c 2.832,2.359 5.984,3.459 9.369,4.581"
       id="path938" /><path
       style="fill:none;stroke:#ff9955;stroke-width:0.499999"
       d="m 15893.958,31589.751 c 0.08,5.264 3.237,12.974 2.138,18.016 -0.02,0.114 -0.319,0.06 -0.346,-0.06 -0.535,-2.221 -1.029,-4.461 -1.289,-6.731 -0.202,-1.761 -0.01,-3.546 -0.09,-5.317 -0.09,-1.973 -1.368,-4.185 -0.408,-5.911 2.108,-3.794 6.878,-1.526 7.451,1.329 0.914,4.551 -3.412,11.96 -3.207,12.727 0.158,0.592 7.021,-2.859 7.892,0.962"
       id="path940" /><path
       style="fill:none;stroke:#ff9955;stroke-width:0.499999"
       d="m 15911.439,31609.775 c -2.214,0.3 0.115,-4.941 1.069,-3.847 7.136,8.185 -5.916,8.961 3.616,9.334 4.342,0.169 0.266,-0.136 3.867,0.169"
       id="path942" /><path
       style="fill:none;stroke:#ff9955;stroke-width:0.499999"
       d="m 15914.269,31641.706 c 8.634,1.33 17.503,1.266 26.159,0.113 5.805,-0.774 11.48,-2.387 17.292,-3.111 3.85,-0.48 13.912,-2.62 18.268,0.763"
       id="path944" /><path
       style="fill:none;stroke:#ff9955;stroke-width:0.499999"
       d="m 15974.73,31666.623 c 0.127,0.79 0.466,3.103 0.629,2.319 2.252,-10.865 0.957,-22.72 0.691,-33.713 -0.156,-6.46 0.273,-3.819 -0.911,-8.57 2.222,-0.726 4.357,-1.808 6.665,-2.177 1.761,-0.282 3.562,0.197 5.345,0.254 5.498,0.178 11.006,0.13 16.507,0.198 1.25,0.02 6.151,-0.502 7.703,0.679 1.878,1.43 2.756,11.981 3.238,14.085 1.468,6.398 5.785,15.935 5.785,22.258 0,3.313 -4.44,3.691 -6.854,4.469 -11.735,3.78 -22.621,4.612 -34.648,5.288 -0.242,0.01 0.485,0.04 0.723,0.08 1.534,0.311 3.06,0.66 4.591,0.99"
       id="path946" /><path
       style="fill:none;stroke:#ff9955;stroke-width:0.499999"
       d="m 15731.093,31669.338 c -0.298,1.852 -5.266,6.003 -4.307,8.4 0.442,1.105 6.333,4.676 7.608,6.137 0.87,0.995 2.879,4.121 1.227,5.487 -2.567,2.122 -6.973,-1.356 -6.855,-4.158 0.07,-1.642 0.619,-2.856 1.164,-4.327"
       id="path948" /><path
       style="fill:none;stroke:#ff9955;stroke-width:0.499999"
       d="m 15734.866,31675.758 c 1.079,1.235 2.283,2.371 3.238,3.705 0.764,1.066 1.257,2.301 1.887,3.45 6.276,11.445 -2.209,-5.451 1.195,-8.513 0.762,-0.686 2.178,-0.236 2.955,-0.113"
       id="path950" /><path
       style="fill:none;stroke:#ff9955;stroke-width:0.499999"
       d="m 15751.687,31671.459 c -4.034,3.886 -5.701,11.981 0.943,14.481 2.335,0.878 5.993,-0.909 8.08,-1.782"
       id="path952" /><path
       style="fill:none;stroke:#ff9955;stroke-width:0.499999"
       d="m 15997.902,31681.612 c 1.622,2.787 4.596,14.648 1.006,16.432 -3.514,1.747 -4.795,-8.909 -1.132,-10.096 2.169,-0.704 5.348,2.135 8.709,0.169 0.999,-0.584 1.958,-1.248 2.83,-2.008 0.693,-0.603 2.333,-2.776 1.572,-2.262 -1.328,0.895 -6.04,6.796 -3.647,6.646 2.092,-0.131 5.234,-3.668 6.037,-4.384"
       id="path954" /><path
       style="fill:none;stroke:#ff9955;stroke-width:0.499999"
       d="m 16015.635,31681.273 c -1.405,1.178 -2.961,2.197 -4.213,3.535 -2.989,3.192 8.373,0.591 7.608,4.752 -0.357,1.945 -5.928,9.241 -5.533,3.563"
       id="path956" /><path
       style="fill:none;stroke:#ff9955;stroke-width:0.499999"
       d="m 16020.099,31676.323 c 0.231,-0.999 0.461,-1.998 0.692,-2.997 0.126,-0.198 0.43,-0.823 0.377,-0.594 -0.281,1.217 -1.195,2.349 -1.069,3.591 0.296,2.906 1.643,5.61 2.296,8.457 0.376,1.645 1.566,4.623 -0.06,5.063"
       id="path958" /><path
       style="fill:none;stroke:#ff9955;stroke-width:0.499999"
       d="m 16019.502,31684.978 c 1.872,-2.546 7.278,-7.696 11.004,-6.477"
       id="path960" /><path
       style="fill:none;stroke:#ff9955;stroke-width:0.499999"
       d="m 15729.458,31735.123 c -0.215,8.4 0.01,17.134 2.327,25.284 0.04,0.147 -0.03,-0.304 -0.06,-0.452 -0.205,-0.834 -0.44,-1.659 -0.66,-2.489"
       id="path962" /><path
       style="fill:none;stroke:#ff9955;stroke-width:0.499999"
       d="m 15724.773,31751.074 c 3.847,-1.306 7.936,-1.28 11.916,-0.707 1.625,0.933 3.333,1.734 4.874,2.8 0.468,0.324 1.217,1.923 0.912,1.442 -1.369,-2.154 -1.475,-5.459 -0.06,-7.608"
       id="path964" /><path
       style="fill:none;stroke:#ff9955;stroke-width:0.499999"
       d="m 15748.071,31746.719 c -0.03,1.033 -1.935,9.461 0,9.22 2.283,-0.286 4.392,-6.647 5.156,-8.287 0.273,-0.585 0.497,-1.191 0.755,-1.782 0.05,-0.106 0.153,-0.427 0.157,-0.311 0.06,1.552 -1.249,12.697 2.264,5.147"
       id="path966" /><path
       style="fill:none;stroke:#ff9955;stroke-width:0.499999"
       d="m 15759.17,31743.042 c -1.207,2.63 -1.005,10.869 3.93,10.323 1.051,-0.116 4.257,-1.591 3.49,-3.168 1.226,-0.792 2.419,-1.638 3.679,-2.375 2.02,-1.183 1.144,-0.06 2.924,-1.726 4.175,-3.902 -0.516,-9.053 -4.528,-0.537 -0.722,1.532 -2.634,3.039 -2.075,4.638 2.242,6.413 12.092,3.423 14.809,-0.65"
       id="path968" /><path
       style="fill:none;stroke:#ff9955;stroke-width:0.499999"
       d="m 15782.059,31738.064 c 0.639,1.094 1.244,2.208 1.918,3.281 2.584,4.113 4.823,9.081 3.773,8.485 -4.79,-2.719 -3.912,-10.703 1.257,-12.388 0.923,-0.301 1.929,-0.226 2.893,-0.339"
       id="path970" /><path
       style="fill:none;stroke:#ff9955;stroke-width:0.499999"
       d="m 15794.447,31729.975 c 0.136,-0.829 1.238,-2.352 0.408,-2.489 -0.829,-0.136 -0.528,1.657 -0.408,2.489 0.918,6.361 3.863,13.576 2.421,20.279"
       id="path972" /><path
       style="fill:none;stroke:#ff9955;stroke-width:0.499999"
       d="m 15790.359,31742.052 c 4.045,-3.004 7.658,-3.569 12.42,-3.507"
       id="path974" /><path
       style="fill:none;stroke:#ff9955;stroke-width:0.499999"
       d="m 15807.212,31599.225 c 0.732,7.223 0.549,14.272 -0.252,21.523 -0.14,1.273 -0.383,2.533 -0.629,3.79 -0.118,0.606 -0.406,2.341 -0.597,1.754 -0.951,-2.935 1.323,-13.496 1.887,-16.913 0.368,-2.238 1.254,-4.437 1.163,-6.703 -0.318,-7.905 -5.343,1.687 1.635,-8.145 0.919,-1.296 2.278,1.607 2.326,2.29 0.08,1.13 -0.201,2.393 -0.628,3.423 -0.544,1.31 -1.091,2.631 -1.824,3.846 -1.539,2.552 -3.086,3.7 -2.893,3.79 0.321,0.148 4.847,0.467 5.911,0.792 0.759,0.231 2.966,1.12 2.233,0.82"
       id="path976" /><path
       style="fill:none;stroke:#ff9955;stroke-width:0.499999"
       d="m 15735.052,31791.001 c -0.05,1.235 -0.03,2.475 -0.157,3.705 -0.803,7.943 -2.05,15.569 -1.949,23.616 0.03,2.178 0.252,3.515 0.471,3.394 0.22,-0.122 0.105,-0.49 0.158,-0.736"
       id="path978" /><path
       style="fill:none;stroke:#ff9955;stroke-width:0.499999"
       d="m 15735.838,31787.947 c 7.6,-0.493 14.991,0.27 22.449,1.668 1.807,0.339 5.785,0.157 7.42,1.245 0.877,0.582 0.2,5.53 0.189,5.826 -0.373,9.812 0.264,19.09 1.572,28.763 0.422,3.123 -3.151,0.811 -4.779,0.594 -5.534,-0.739 -11.227,1.1 -16.727,0.06 -2.918,-0.554 -5.71,-1.664 -8.489,-2.716 -1.452,-0.549 -3.201,-0.959 -4.087,-2.234 -0.155,-0.223 0.503,0.208 0.755,0.311"
       id="path980" /><path
       style="fill:none;stroke:#ff9955;stroke-width:0.499999"
       d="m 15743.856,31800.56 c -8.695,6.643 3.462,4.02 3.018,10.012 -0.209,2.825 -5.397,8.769 -4.276,0.906"
       id="path982" /><path
       style="fill:none;stroke:#ff9955;stroke-width:0.499999"
       d="m 15747.597,31803.106 c 0.986,1.046 2.093,1.99 2.956,3.139 1.172,1.561 1.956,4.526 1.132,3.366 -1.526,-2.148 -2.18,-8.035 1.132,-8.966 0.862,5.501 0.636,9.231 6.131,4.978"
       id="path984" /><path
       style="fill:none;stroke:#ff9955;stroke-width:0.499999"
       d="m 15914.077,31786.604 c -0.343,-0.389 -1.81,-2.659 -3.05,-2.998 -2.705,-0.74 -5.781,1.243 -7.766,2.8 -9.137,7.166 -12.748,22.045 -9.684,32.893 0.959,3.394 3.207,7.674 7.232,8.428 15.528,2.908 27.626,-22.07 22.7,-34.448 -1.017,-2.557 -8.688,-6.487 -9.432,-6.675 -1.544,-0.39 -3.091,0.768 -4.653,1.075 -0.879,0.172 -3.309,-0.06 -2.484,1.612"
       id="path986" /><path
       style="fill:none;stroke:#ff9955;stroke-width:0.499999"
       d="m 15914.674,31793.844 c -3.608,3.807 -5.692,8.616 -8.237,13.123 -0.915,1.62 -1.462,3.509 -2.736,4.865 -0.339,0.361 -0.487,-0.893 -0.534,-1.386 -0.123,-1.267 0.02,-2.545 0.03,-3.818"
       id="path988" /><path
       style="fill:none;stroke:#ff9955;stroke-width:0.499999"
       d="m 15903.858,31794.636 c 0.761,5.888 4.607,10.843 8.898,14.735 1.329,1.206 1.075,0.895 0.881,-0.08"
       id="path990" /><path
       style="fill:none;stroke:#ff9955;stroke-width:0.499999"
       d="m 15914.58,31754.192 c 0.685,7.604 -0.195,-1.951 1.289,12.416 0.03,0.287 0.44,4.229 0.377,5.261 -0.02,0.4 -0.484,1.284 -0.723,0.961 -2.435,-3.285 -0.301,-8.682 -0.283,-12.133 0.01,-2.179 -1.447,-4.472 -0.66,-6.505 0.859,-2.22 5.503,-5.845 6.665,-3.959 2.109,3.423 0.174,9.185 -1.823,12.189 -0.172,0.259 -2.985,3.101 -2.798,3.451 1.432,2.679 10.232,3.052 9.432,5.091 6.381,1.043 5.022,-0.806 4.999,6.109 0,1.445 -0.03,5.164 -0.534,6.816"
       id="path992" /><path
       style="fill:none;stroke:#ff9955;stroke-width:0.499999"
       d="m 15731.412,31847.125 c -14.38,8.904 8.158,7.032 6.037,21.184 -0.435,2.896 -3.29,6.027 -6.32,3.903 -2.412,-1.692 -2.286,-4.382 -2.861,-6.986"
       id="path994" /><path
       style="fill:none;stroke:#ff9955;stroke-width:0.499999"
       d="m 15733.518,31853.771 c 4.691,-2.798 11.268,9.016 9.621,10.38 -0.115,0.09 -1.547,-0.599 -2.326,-3.281 -0.962,-3.311 0.88,-4.914 3.458,-6.278"
       id="path996" /><path
       style="fill:none;stroke:#ff9955;stroke-width:0.499999"
       d="m 15748.453,31852.329 c -10.771,11.012 7.05,14.291 7.672,7.297"
       id="path998" /><path
       style="fill:none;stroke:#ff9955;stroke-width:0.499999"
       d="m 15766.72,31845.371 c -0.617,5.112 -0.838,4.184 -0.283,8.853 0.294,2.47 0.868,3.331 0.692,3.054 -0.247,-0.388 -0.356,-0.848 -0.534,-1.272"
       id="path1000" /><path
       style="fill:none;stroke:#ff9955;stroke-width:0.499999"
       d="m 15761.564,31848.539 c -5.169,-4.006 10.128,-5.979 10.501,-2.658 0.06,0.506 -0.503,0.886 -0.754,1.329"
       id="path1002" /><path
       style="fill:none;stroke:#ff9955;stroke-width:0.499999"
       d="m 15764.739,31853.771 c -8.552,8.084 5.456,4.89 8.238,2.065"
       id="path1004" /><path
       style="fill:none;stroke:#ff9955;stroke-width:0.499999"
       d="m 15774.392,31848.652 c 4.369,2.889 5.573,6.718 6.603,11.483"
       id="path1006" /><path
       style="fill:none;stroke:#ff9955;stroke-width:0.499999"
       d="m 15776.373,31852.47 c -0.671,-1.169 -1.58,-2.23 -2.013,-3.507 -1.332,-3.93 2.645,-10.381 6.383,-6.165 1.879,2.119 3.482,8.824 -0.692,9.785 -1.195,0.276 -2.452,-0.07 -3.678,-0.113 z"
       id="path1008" /><path
       style="fill:none;stroke:#ff9955;stroke-width:0.499999"
       d="m 15735.719,31884.118 c 0.853,2.09 7.065,13.858 2.956,15.132 -2.504,0.775 -4.736,-2.892 -4.465,-4.865 0.302,-2.198 4.131,-3.599 5.817,-4.271 8.112,-3.229 6.995,-6.817 1.729,0.792 -1.18,1.706 -0.306,3.911 2.169,2.15 3.469,-2.468 9.253,-7.182 7.672,-9.447 -0.25,-0.358 -2.38,0.888 -1.698,1.726 2.184,2.683 6.993,1.439 9.401,3.987 2.518,2.665 -4.394,11.435 -3.647,3.705"
       id="path1010" /><path
       style="fill:none;stroke:#ff9955;stroke-width:0.499999"
       d="m 15758.797,31884.288 c 0.356,-1.197 0.642,-2.418 1.069,-3.592 0.04,-0.105 0.158,0.204 0.126,0.311 -0.332,1.116 -1.543,2.171 -1.195,3.281 0.62,1.98 2.603,3.237 3.773,4.95 0.372,0.544 0.939,1.848 0,1.244 -0.836,-5.984 -2.176,-4.282 2.515,-6.675 0.363,-0.185 3.354,-1.633 4.654,-2.262"
       id="path1012" /><path
       style="fill:none;stroke:#ff9955;stroke-width:0.499999"
       d="m 15778.762,31875.577 c 1.079,-0.171 6.645,14.054 3.553,10.578"
       id="path1014" /><path
       style="fill:none;stroke:#ff9955;stroke-width:0.499999"
       d="m 15774.518,31879.791 c -2.328,-4.802 11.343,-8.679 12.325,-5.147"
       id="path1016" /><path
       style="fill:none;stroke:#ff9955;stroke-width:0.499999"
       d="m 15777.788,31886.353 c 4.647,-0.06 8.142,-3.518 12.387,-4.723"
       id="path1018" /><path
       style="fill:none;stroke:#ff9955;stroke-width:0.499999"
       d="m 15795.96,31884.882 c -1.494,-4.705 -3.36,-9.319 -5.376,-13.83 -6.616,-9.131 10.389,-9.096 10.69,-2.065 0.124,2.906 -4.754,6.983 -7.609,5.515 -1.371,-0.705 -2.054,-2.3 -3.081,-3.45"
       id="path1020" /><path
       style="fill:none;stroke:#ff9955;stroke-width:0.499999"
       d="m 15820.673,31866.414 c 1.467,-0.443 2.891,-1.073 4.402,-1.33 4.214,-0.715 8.899,-0.132 13.174,-0.339 7.48,-0.362 14.99,-0.61 22.48,-0.481 3.49,0.06 6.987,0.735 10.47,0.679 6.897,-0.112 3.713,-0.408 9.086,-0.424 3.378,-0.01 13.582,1.63 16.696,-0.821 1.662,-1.308 -2.981,-2.613 -3.27,-2.715 -1.797,-0.629 -8.936,-3.004 -10.564,-3.733 -0.479,-0.214 -1.931,-1.441 -0.252,-1.923 2.173,-0.624 4.436,-1.039 6.697,-1.075 11.643,-0.186 4.222,13.703 1.824,18.61 -0.823,1.683 -2.771,6.81 -2.453,4.327"
       id="path1022" /><path
       style="fill:none;stroke:#ff9955;stroke-width:0.499999"
       d="m 15755.61,31908.355 c -0.579,3.517 5.234,20.724 4.464,21.806 -0.344,0.484 -0.545,-1.056 -0.817,-1.584"
       id="path1024" /><path
       style="fill:none;stroke:#ff9955;stroke-width:0.499999"
       d="m 15747.152,31914.068 c -0.07,-1.367 -0.934,-2.933 -0.22,-4.101 1.694,-2.77 12.017,-2.857 14.809,-2.064 2.917,5.225 4.865,10.83 6.697,16.488 0.03,0.09 0.796,2.596 0.723,2.546 -0.388,-0.265 -0.608,-0.717 -0.912,-1.075"
       id="path1026" /><path
       style="fill:none;stroke:#ff9955;stroke-width:0.499999"
       d="m 15756.584,31907.931 c -1.297,-2.86 16.475,-9.899 15.658,-4.751"
       id="path1028" /><path
       style="fill:none;stroke:#ff9955;stroke-width:0.499999"
       d="m 15774.38,31898.428 c 3.909,6.287 4.505,13.397 5.313,20.561 0.264,2.333 0.348,5.537 0.598,5.544 0.448,0.01 0.54,-0.726 0.88,-1.018 1.352,-1.164 2.641,-2.439 4.182,-3.338 2.368,-1.381 5.967,-2.023 8.709,-2.375"
       id="path1030" /><path
       style="fill:none;stroke:#ff9955;stroke-width:0.499999"
       d="m 15807.582,31897.042 c -1.69,4.846 -3.415,-1.724 -2.893,-1.64 5.213,0.834 2.271,3.623 0.157,6.59 -0.762,1.07 -1.72,-0.73 -1.54,-0.905 0.888,-0.869 2.331,1.269 2.421,1.357"
       id="path1034" /><path
       style="fill:none;stroke:#ff9955;stroke-width:0.499999"
       d="m 15807.802,31910.844 c 2.043,-0.589 5.713,5.923 2.201,6.166 -1.75,0.121 -4.03,-4.586 -2.201,-6.166 1.093,-0.945 2.809,-0.679 4.213,-1.018"
       id="path1036" /><path
       style="fill:none;stroke:#ff9955;stroke-width:0.499999"
       d="m 15816.574,31896.137 c -3.275,2.539 1.505,-4.075 1.257,-3.167 -0.299,1.095 -1.604,2.085 -1.257,3.167 0.922,2.877 3.413,5.011 4.747,7.721 0.471,0.956 0.401,2.093 0.598,3.14 0.117,0.622 0.238,1.243 0.346,1.866 0.02,0.103 0.06,0.413 0.03,0.311 -0.933,-3.777 -1.496,-7.61 -1.855,-11.482 -0.09,-1.001 0.359,-5.648 -0.346,-6.675 -0.958,-1.397 -2.516,2.454 -3.521,5.119 z"
       id="path1038" /><path
       style="fill:none;stroke:#ff9955;stroke-width:0.499999"
       d="m 15815.442,31913.446 c 6.283,-3.558 12.353,-8.029 19.619,-9.305"
       id="path1040" /><path
       style="fill:none;stroke:#ff9955;stroke-width:0.499999"
       d="m 15708.794,31853.515 c -1.426,3.122 -9.58,14.281 -6.131,17.649 2.245,2.192 8.083,1.027 11.256,3.139 4.067,2.708 -2.642,9.121 -4.654,10.917 -0.655,0.586 -1.364,1.11 -2.043,1.669 -0.07,0.05 -0.227,0.245 -0.189,0.17 1.603,-3.173 12.031,-5.064 8.552,4.44 -3.581,9.784 -12.321,17.257 -8.835,28.509 1.377,4.444 7.512,16.951 14.903,14.593 3.438,-1.097 7.073,-3.952 9.999,-6.307"
       id="path1042" /><path
       style="fill:none;stroke:#ff9955;stroke-width:0.499999"
       d="m 15650.565,31880.554 c -1.244,4.981 3.895,10.482 3.018,15.442 -0.03,0.194 -0.336,-0.228 -0.44,-0.396 -0.604,-0.981 -1.111,-2.018 -1.666,-3.026"
       id="path1044" /><path
       style="fill:none;stroke:#ff9955;stroke-width:0.499999"
       d="m 15646.163,31883.042 c -1.36,-5.196 12.311,-4.321 12.671,-1.838 0.198,1.367 -1.036,2.377 -1.824,3.196"
       id="path1046" /><path
       style="fill:none;stroke:#ff9955;stroke-width:0.499999"
       d="m 15649.433,31896.646 c 4.13,-0.622 9.524,-1.039 12.482,-4.27"
       id="path1048" /><path
       style="fill:none;stroke:#ff9955;stroke-width:0.499999"
       d="m 15662.23,31884.654 c 3.822,1.159 2.68,0.115 4.81,4.356 3.361,6.692 -0.6,4.705 -4.15,-0.735 -0.67,-1.028 -0.378,-2.427 -0.66,-3.621 -0.24,-1.012 -3.922,-7.894 0.345,-9.022 3.644,-0.963 8.192,4.257 5.691,7.524 -1.463,1.912 -4.055,1.388 -6.036,1.498 z"
       id="path1050" /><path
       style="fill:none;stroke:#ff9955;stroke-width:0.499999"
       d="m 15645.44,31913.899 c -0.97,-9.514 5.785,4.697 6.225,5.684 0.545,1.22 0.945,2.5 1.384,3.762 0.194,0.558 0.66,2.26 0.409,1.725 -1.039,-2.208 -2.629,-8.939 0.314,-10.521 1.51,-0.811 3.907,1.604 4.056,2.941 0.04,0.328 -1.862,-0.422 -1.855,-0.424 1.852,-0.625 3.268,-2.87 4.496,-4.27 0.412,-0.471 1.614,-1.73 1.006,-1.584 -2.706,0.649 -1.657,9.516 1.1,7.325 2.584,-2.053 3.021,-3.877 3.333,-7.127 0.04,-0.437 -0.371,-1.774 -0.723,-2.291 -0.06,-0.08 -0.227,-0.268 -0.251,-0.17 -0.359,1.451 4.228,4.972 5.376,4.073 1.033,-0.81 -0.201,-2.739 0.189,-3.762 0.362,-0.95 2.323,-0.182 2.358,-0.82 0.09,-1.597 -1.989,-5.258 -1.667,-5.656 0.335,-0.414 6.059,4.351 4.716,6.929 -0.712,1.368 -3.239,-1.441 -2.389,-2.97 1.437,-2.586 7.724,-1.964 7.452,-5.883 -0.03,-0.363 -0.206,-0.883 -0.566,-0.933 -3.011,-0.417 1.766,10.867 4.118,6.958 2.597,-4.315 -2.535,-10.743 -1.823,-12.558 0.126,-0.321 0.612,0.342 0.849,0.594 0.694,0.738 7.372,8.989 9.463,9.616 0.268,0.08 -0.202,-0.524 -0.345,-0.764 -0.791,-1.317 -1.708,-2.558 -2.453,-3.903 -1.376,-2.484 -2.961,-5.592 -2.578,-8.597 0.601,-4.716 5.555,-4.804 9.086,-3.762"
       id="path1052" /><path
       style="fill:none;stroke:#ff9955;stroke-width:0.499999"
       d="m 15750.799,31987.263 c 0.257,-1.501 -0.17,-5.333 -0.22,-6.335 -0.461,-10.301 -1.237,-20.585 -1.729,-30.884 2.725,0 5.457,0.201 8.174,0 7.218,-0.534 13.721,-6.561 20.846,-7.58 4.894,-0.7 0.23,0.719 7.797,-1.075 4.503,-1.067 8.42,-2.667 12.985,-3.337 5.111,-0.751 10.226,-1.71 15.344,-2.376 6.178,-0.804 13.023,-0.641 18.896,-3.111 2.059,-0.866 3.764,-1.917 5.848,-2.659 2.935,-1.044 5.677,-1.674 8.489,-3.139 0.158,-0.08 0.812,-0.577 1.037,-0.452 0.617,0.341 0.07,13.011 0.06,14.565 0,1.382 0.748,14.787 0.566,15.216 -0.361,0.854 -3.74,0.456 -4.37,0.566 -1.09,0.19 -5.623,1.581 -5.534,1.781 0.159,0.357 0.732,-0.344 0.975,-0.65"
       id="path1054" /><path
       style="fill:none;stroke:#ff9955;stroke-width:0.499999"
       d="m 15843.833,31930.925 c 0.646,5.752 1.083,11.511 1.698,17.28 0.294,2.761 1.123,9.736 1.352,12.473 0.581,6.957 0.85,14.005 1.604,20.957 0.223,2.065 0.827,4.016 1.163,6.053 0.08,0.486 0.09,0.982 0.157,1.47 0.02,0.164 0.291,0.481 0.126,0.481 -0.367,0 -1.088,-0.931 -1.509,-1.103 -1.304,-0.533 -3.095,-0.69 -4.402,-0.82 -5.694,-0.569 -11.634,-0.226 -17.324,-0.226 -5.952,0 -11.629,0.03 -17.544,1.018 -3.232,0.538 -4.835,0.74 -7.64,1.81 -4.416,1.684 -8.218,4.6 -12.766,6.024 -3.604,1.129 -7.067,0.798 -10.752,1.188 -3.045,0.322 -6.288,1.455 -9.37,1.301 -2.504,-0.125 -5.071,-1.165 -7.42,-1.923"
       id="path1056" /><path
       style="fill:none;stroke:#ff9955;stroke-width:0.499999"
       d="m 15773.751,31996.625 c -8.103,1.165 -15.995,3.549 -23.769,6.081 -0.499,0.162 -4.957,2.329 -5.66,1.697 -0.401,-0.361 0.07,-1.077 0.126,-1.613 0.271,-2.431 0.589,-4.858 0.786,-7.296 0.629,-7.77 0.613,-9.536 0.723,-16.659 0.08,-5.342 0.04,-10.679 0.472,-16.008 0.06,-0.764 -0.49,-2 0.22,-2.291 1.063,-0.434 1.252,16.658 1.289,17.536 0.306,7.258 -0.167,14.505 0.157,21.749 0.09,2.016 0.409,3.925 0.409,5.911 0,0.198 0.104,-0.405 0.251,-0.538 0.612,-0.549 1.791,-1.017 2.421,-1.244 2.544,-0.915 3.608,-0.977 6.509,-1.386 1.239,-0.175 8.575,-0.976 9.841,-1.584 2.282,-1.097 3.811,-3.588 6.225,-4.355 1.58,-0.502 3.258,1.01 4.905,0.82 2.507,-0.289 10.236,-4.792 12.891,-1.273"
       id="path1058" /><path
       style="fill:none;stroke:#ff9955;stroke-width:0.499999"
       d="m 15765.419,31950.185 c -4.477,5.969 -0.612,5.536 3.333,9.022 2.307,2.039 1.825,8.058 -1.509,6.901 -3.895,-1.351 1.852,-9.149 2.547,-10.776 0.39,-0.913 2.909,-5.691 0.345,-6.844 -0.524,-0.236 -1.156,-0.506 -1.697,-0.311 -1.138,0.409 -2.013,1.339 -3.019,2.008 z"
       id="path1060" /><path
       style="fill:none;stroke:#ff9955;stroke-width:0.499999"
       d="m 15784.221,31951.147 c -2.582,2.111 -2.825,1.588 -3.459,5.119 -1.307,7.292 11.409,-0.456 8.898,-5.6 -0.853,-1.748 -4.735,0.04 -5.439,0.481 -1.571,0.979 -2.861,2.351 -4.307,3.507 -0.148,0.117 -0.381,0.475 -0.472,0.311 -0.109,-0.196 0.206,-0.398 0.314,-0.594 0.479,-0.869 0.642,-2.021 1.447,-2.602 0.832,-0.602 2.69,0.351 3.018,-0.622 0.517,-1.533 -0.989,-3.095 -1.226,-4.695 -0.357,-2.41 0.466,-5.547 -0.252,-5.289 -0.09,0.03 2.154,17.635 2.233,18.27 0.163,1.325 0.503,2.621 0.754,3.932 0.105,0.546 0.197,1.096 0.315,1.64 0.03,0.135 0.185,0.521 0.125,0.396 -0.282,-0.593 -0.406,-1.094 -0.597,-1.725"
       id="path1062" /><path
       style="fill:none;stroke:#ff9955;stroke-width:0.499999"
       d="m 15775.197,31942.973 c 1.799,6.387 2.227,13.059 3.207,19.6 0.34,2.267 0.671,4.536 1.101,6.788 0.04,0.228 0.264,0.849 0.314,0.622 0.209,-0.941 0.126,-1.923 0.189,-2.885"
       id="path1064" /><path
       style="fill:none;stroke:#ff9955;stroke-width:0.499999"
       d="m 15805.507,31934.064 c 0,7.975 1.723,15.805 3.898,23.418"
       id="path1066" /><path
       style="fill:none;stroke:#ff9955;stroke-width:0.499999"
       d="m 15757.842,31971.34 c -1.837,-0.295 -3.23,-0.307 -5.031,-0.08 -0.549,0.07 -1.903,-0.2 -1.635,0.283 0.615,1.105 4.955,-0.33 6.666,-0.198 14.915,1.154 -13.116,2.67 10.124,1.245 18.283,-1.122 34.035,-7.235 51.689,-12.416 8.801,-2.583 22.954,-9.056 33.296,-5.374"
       id="path1068" /><path
       style="fill:none;stroke:#ff9955;stroke-width:0.499999"
       d="m 15720.93,31949.167 c -3.091,4.197 -6.844,8.227 -9.149,12.982 -1.914,3.947 7.669,0.405 9.558,2.319 3.505,3.553 -1.843,10.191 -4.213,12.557 -0.822,0.82 -1.779,1.494 -2.673,2.234 -0.225,0.187 -0.841,0.788 -0.691,0.538 2.402,-4.013 10.024,-1.911 8.048,3.365 -2.959,7.904 -14.322,13.97 -12.262,23.673 1.669,7.859 11.065,3.095 15.532,0.792 3.944,-2.034 4.414,-1.869 2.641,-2.037"
       id="path1070" /><path
       style="fill:none;stroke:#ff9955;stroke-width:0.499999"
       d="m 15655.187,31966.278 c -0.147,-0.971 -0.294,-1.942 -0.44,-2.913 -0.06,-0.132 -0.211,-0.541 -0.189,-0.396 0.168,1.11 0.658,2.186 0.629,3.309 -0.06,2.168 -0.742,4.283 -0.881,6.448 -0.201,3.167 -0.174,7.658 0.692,10.776 0.06,0.21 0,-0.44 -0.06,-0.651 -0.303,-1.196 -0.67,-2.375 -1.006,-3.563"
       id="path1072" /><path
       style="fill:none;stroke:#ff9955;stroke-width:0.499999"
       d="m 15645.975,31968.908 c 0.22,-0.962 -0.137,-2.303 0.66,-2.885 1.85,-1.35 18.199,-1.101 13.928,2.15"
       id="path1074" /><path
       style="fill:none;stroke:#ff9955;stroke-width:0.499999"
       d="m 15648.144,31983.587 c -0.22,0.81 -1.471,2.212 -0.66,2.432 0.811,0.22 -0.16,-2.25 0.66,-2.432 2.205,-0.49 4.472,0.871 6.728,0.792 2.152,-0.08 4.128,-1.242 6.226,-1.726"
       id="path1076" /><path
       style="fill:none;stroke:#ff9955;stroke-width:0.499999"
       d="m 15667.072,31972.5 c -0.703,1.989 -1.944,3.864 -2.107,5.968 -0.09,1.209 0.705,2.36 1.383,3.365 2.223,3.294 8.09,-0.154 7.42,-3.365 3.527,-3.089 1.688,-9.422 3.145,-13.491 0.787,-2.2 1.096,4.468 2.106,7.325 0.05,0.127 0.167,0.463 0.22,0.339 0.415,-0.97 -0.05,-6.491 0.472,-6.674 1.322,-0.465 1.5,2.368 2.232,3.563 1.186,1.935 2.257,2.652 3.27,4.214"
       id="path1078" /><path
       style="fill:none;stroke:#ff9955;stroke-width:0.499999"
       d="m 15688.357,31973.377 c 2.531,4.174 -4.042,-10.935 -5.251,-10.38 -0.775,-2.508 -2,-4.919 -2.326,-7.523 -0.302,-2.404 3.236,-1.296 3.678,-1.018 3.32,2.083 4.755,4.379 5,8.371 0.02,0.421 -1.268,3.409 -2.547,2.942 -1.474,-0.538 -2.537,-1.848 -3.805,-2.772"
       id="path1080" /><path
       style="fill:none;stroke:#ff9955;stroke-width:0.499999"
       d="m 15658.771,32009.72 c 7.009,-4.909 7.783,6.914 3.207,9.785 -4.687,2.942 -1.859,-5.776 -1.289,-6.844 0.687,-1.286 1.488,-2.508 2.232,-3.762"
       id="path1082" /><path
       style="fill:none;stroke:#ff9955;stroke-width:0.499999"
       d="m 15666.191,32004.572 c -0.367,1.414 -0.945,2.79 -1.1,4.243 -0.09,0.843 0.08,1.721 0.377,2.517 2.086,5.629 7.495,-5.626 6.131,-8.457 -0.249,-0.516 -0.388,1.134 -0.283,1.697 0.302,1.619 3.754,8.823 4.936,4.667"
       id="path1084" /><path
       style="fill:none;stroke:#ff9955;stroke-width:0.499999"
       d="m 15673.926,31999.793 c 0.569,1.305 2.868,3.748 2.326,5.628 -0.06,0.223 -1.367,4.064 -3.049,2.658 -0.678,-0.565 -0.74,-1.638 -0.818,-2.517 -0.545,-6.13 2.782,-5.307 6.131,-9.22 0.203,-0.237 -0.429,-3.941 -0.723,-3.677 -2.39,2.151 6.054,5.866 8.206,5.544"
       id="path1086" /><path
       style="fill:none;stroke:#00ffff;stroke-width:0.499999"
       d="m 15990.2,31840.859 c 2.631,-1.39 6.096,-13.657 7.797,-13.548 0.365,0.02 0.273,0.679 0.409,1.018"
       id="path1088" /><path
       style="fill:none;stroke:#00ffff;stroke-width:0.499999"
       d="m 15933.512,31836.249 c 5.24,1.705 10.4,13.294 1.603,13.603 -2.385,0.08 -4.476,-2.538 -2.012,-4.214 3.557,-2.419 8.991,1.101 12.576,-1.668 1.631,-1.26 2.027,-6.673 -0.22,-5.091 -4.113,2.895 -3.121,13.413 2.893,7.891 0.834,-0.767 1.362,-1.81 2.044,-2.715"
       id="path1153" /><path
       style="fill:none;stroke:#00ffff;stroke-width:0.499999"
       d="m 15952.251,31839.416 c -0.786,0.585 -2.078,0.815 -2.358,1.754 -0.977,3.261 9.354,3.369 8.331,-1.414"
       id="path1155" /><path
       style="fill:none;stroke:#00ffff;stroke-width:0.499999"
       d="m 15956.307,31834.014 c 1.32,1.66 2.786,3.213 3.961,4.978 0.712,1.07 1.106,2.321 1.666,3.479 2.494,5.153 -3.538,-10.029 -1.226,-9.447 0.455,0.115 0.776,0.528 1.164,0.792"
       id="path1157" /><path
       style="fill:none;stroke:#00ffff;stroke-width:0.499999"
       d="m 15966.776,31836.022 c 0,-2.927 0.01,-5.846 0.189,-8.767 2.285,-13.581 5.594,1.685 7.389,5.883 0.04,0.09 -0.02,-0.189 -0.03,-0.283 -0.135,-1.094 -0.396,-2.179 -0.408,-3.281 -0.02,-1.644 0.09,-3.292 0.314,-4.921 0.05,-0.329 0.159,-0.765 0.472,-0.877 0.998,-0.359 3.45,6.092 4.464,6.76 0.07,0.04 -0.183,-3.841 0.881,-4.384 1.301,-0.665 4.23,3.432 5.502,3.903 0.799,0.296 5.792,-5.974 6.288,-7.043 0.175,-0.376 0.336,-1.436 -0.03,-1.244 -1.995,1.04 -3.354,3.753 -3.648,5.911 -0.134,0.985 0.224,3.24 1.101,2.772 4.564,-2.438 3.749,-6.832 3.993,-11.002 0.03,-0.5 0.595,0.804 0.88,1.216 0.366,0.529 0.707,1.076 1.101,1.584 0.498,0.643 1.056,1.237 1.572,1.866 0.288,0.353 0.775,1.414 0.943,0.99 0.252,-0.636 -0.511,-6.536 1.478,-3.733 1.034,1.458 2.071,5.465 3.835,6.081 0.259,0.09 0.357,-0.415 0.535,-0.622"
       id="path1159" /><path
       style="fill:none;stroke:#00ffff;stroke-width:0.499999"
       d="m 16003.688,31817.271 c -0.531,3.244 0.194,6.392 0.598,9.56 -0.168,-1.82 -1.038,-3.712 -0.503,-5.459 0.318,-1.042 5.788,-4.595 6.476,-5.006 0.271,-0.161 -8.929,8.579 -5.973,10.465 2.122,1.354 8.465,-2.034 10.627,1.272 1.908,2.919 -12.276,7.257 -14.872,6.845"
       id="path1161" /><path
       style="fill:none;stroke:#00ffff;stroke-width:0.499999"
       d="m 15927.318,31863.4 c -0.409,2.14 1.767,12.224 0.629,13.943 -0.145,0.219 -0.524,-0.02 -0.786,-0.03"
       id="path1163" /><path
       style="fill:none;stroke:#00ffff;stroke-width:0.499999"
       d="m 15920.244,31870.074 c 0.22,-1.253 -0.245,-2.866 0.66,-3.761 1.885,-1.865 10.416,-0.65 13.174,-0.538"
       id="path1165" /><path
       style="fill:none;stroke:#00ffff;stroke-width:0.499999"
       d="m 15935.178,31861.194 c 0.44,1.584 0.81,3.189 1.321,4.751 1.367,4.185 3.383,8.215 3.93,12.642 0.04,0.306 0.09,1.029 -0.189,0.905 -0.938,-0.411 -1.551,-1.338 -2.326,-2.008"
       id="path1167" /><path
       style="fill:none;stroke:#00ffff;stroke-width:0.499999"
       d="m 15928.418,31867.19 c 0.828,-1.283 1.268,-2.925 2.484,-3.847 3.418,-2.591 8.728,-1.963 12.514,-0.961"
       id="path1169" /><path
       style="fill:none;stroke:#00ffff;stroke-width:0.499999"
       d="m 15942.85,31856.64 c 0.828,0.377 1.909,0.426 2.484,1.132 2.765,3.393 5.477,12.412 5.25,16.828"
       id="path1171" /><path
       style="fill:none;stroke:#00ffff;stroke-width:0.499999"
       d="m 15975.391,31858.111 c 0.545,1.178 1.124,2.342 1.635,3.535 0.6,1.4 1.167,2.815 1.698,4.243 0.413,1.109 0.766,2.24 1.132,3.365 0.158,0.487 0.297,0.98 0.44,1.471 0.03,0.121 0.156,0.478 0.09,0.368 -1.173,-2.112 -1.227,-8.434 0.944,-10.041 2.779,-2.056 5.532,5.137 5.125,6.958 -0.583,2.6 -4.577,4.267 -6.666,2.347 -1.742,-1.6 -0.447,-4.203 -0.126,-5.911"
       id="path1173" /><path
       style="fill:none;stroke:#00ffff;stroke-width:0.499999"
       d="m 15991.929,31853.925 c 0.786,-0.05 2.406,0.645 2.358,-0.141 -0.05,-0.786 -2.314,-0.645 -2.358,0.141 -0.109,1.949 1.678,3.57 2.044,5.487 0.265,1.39 -0.112,2.829 -0.189,4.242 -0.162,3 0.226,5.888 -3.081,2.913"
       id="path1175" /><path
       style="fill:none;stroke:#00ffff;stroke-width:0.499999"
       d="m 15983.817,31858.592 c 3.45,-1.861 4.317,-1.243 7.578,-0.453"
       id="path1177" /><path
       style="fill:none;stroke:#00ffff;stroke-width:0.499999"
       d="m 16014.85,31849.089 c 0.44,2.196 0.93,4.384 1.32,6.59 0.281,1.585 0.526,3.178 0.692,4.779 0.128,1.23 0.227,2.469 0.189,3.705 0,0.245 -0.238,-0.437 -0.283,-0.678 -0.24,-1.284 -0.433,-2.577 -0.566,-3.875 -0.158,-1.545 -0.393,-9.562 -1.352,-10.521 -2.495,-2.497 -5.992,0.696 -7.672,1.866 -0.873,0.609 -1.732,1.237 -2.609,1.839 -0.14,0.1 -0.61,0.259 -0.441,0.254 2.818,-0.08 0.05,-0.826 3.05,0.34"
       id="path1179" /><path
       style="fill:none;stroke:#00ffff;stroke-width:0.499999"
       d="m 16010.385,31866.737 c -0.304,0.849 -1.76,2.242 -0.912,2.546 0.849,0.303 0.08,-2.208 0.912,-2.546 1.818,-0.734 3.944,0.115 5.88,-0.198 4.584,-0.74 8.713,-2.79 13.456,-3.083"
       id="path1181" /><path
       style="fill:none;stroke:#00ffff;stroke-width:0.499999"
       d="m 15950.27,31903.391 c -1.719,-4.261 -1.719,-4.261 0,0 z"
       id="path1183" /><path
       style="fill:none;stroke:#00ffff;stroke-width:0.499999"
       d="m 15950.899,31913.149 c 0.335,1.409 -1.174,13.107 1.666,5.854"
       id="path1185" /><path
       style="fill:none;stroke:#00ffff;stroke-width:0.499999"
       d="m 15957.533,31910.971 c -0.168,0.839 -0.291,1.688 -0.503,2.517 -0.764,2.977 -2.325,6.317 -1.006,9.446 1.371,3.255 4.818,2.909 2.012,2.404"
       id="path1187" /><path
       style="fill:none;stroke:#00ffff;stroke-width:0.499999"
       d="m 15953.477,31924.631 c -0.524,-4.446 8.609,-3.591 9.652,-6.25"
       id="path1189" /><path
       style="fill:none;stroke:#00ffff;stroke-width:0.499999"
       d="m 15948.541,31901.072 c -0.137,-0.877 0.468,-2.766 -0.409,-2.63 -0.877,0.136 0.272,1.753 0.409,2.63 z"
       id="path1191" /><path
       style="fill:none;stroke:#00ffff;stroke-width:0.499999"
       d="m 15947.849,31913.516 c 1.019,-2.301 2.701,15.348 1.572,11.54"
       id="path1193" /><path
       style="fill:none;stroke:#00ffff;stroke-width:0.499999"
       d="m 15982.843,31912.357 c -0.196,4.827 1.663,9.839 0.503,14.594"
       id="path1195" /><path
       style="fill:none;stroke:#00ffff;stroke-width:0.499999"
       d="m 15977.246,31916.005 c -3.356,-4.821 5.997,-10.105 9.401,-6.816 1.928,0.737 10.093,10.588 5.251,13.038"
       id="path1197" /><path
       style="fill:none;stroke:#00ffff;stroke-width:0.499999"
       d="m 15984.886,31911.848 c -1.718,-4.086 5.564,-7.984 8.049,-5.996 4.962,-1.517 4.6,-3.152 6.383,1.131 0.54,1.298 1.027,2.635 1.289,4.016 0.234,1.234 0.229,2.507 0.189,3.762 -0.07,2.271 -1.124,3.204 -0.598,2.771 0.42,-0.344 0.57,-0.934 0.944,-1.329 2.178,-2.305 4.925,-3.294 7.828,-4.299"
       id="path1199" /><path
       style="fill:none;stroke:#00ffff;stroke-width:0.499999"
       d="m 16023.59,31895.811 c 0.612,2.881 0.946,6.969 3.082,9.334 0.01,0.02 1.899,-4.267 2.672,-4.186 2.015,0.211 3.841,6.424 3.616,8.145 1.9,-4.304 1.901,-5.454 0.975,-9.135"
       id="path1201" /><path
       style="fill:none;stroke:#00ffff;stroke-width:0.499999"
       d="m 16035.601,31891.343 c 0.47,-2.924 -0.176,-9.338 2.515,-2.97 0.742,1.755 5.721,12.417 3.93,13.491"
       id="path1203" /><path
       style="fill:none;stroke:#00ffff;stroke-width:0.499999"
       d="m 16037.739,31902.005 c 0.891,-4.268 4.459,-6.049 7.294,-8.796"
       id="path1205" /><path
       style="fill:none;stroke:#00ffff;stroke-width:0.499999"
       d="m 16047.454,31888.232 c 1.684,-0.07 -1.594,3.141 -0.629,4.157 1.597,1.682 8.393,0.311 7.861,4.384 -0.567,4.335 -10.848,9.7 -10.848,5.204"
       id="path1207" /><path
       style="fill:none;stroke:#00ffff;stroke-width:0.499999"
       d="m 16074.651,31886.705 c -3.143,-1.099 -5.235,1.366 -4.937,4.44 0.495,5.098 11.707,-4.229 9.779,-5.43 -0.349,-0.217 -0.824,0.03 -1.227,0.113 -1.215,0.248 -2.524,0.288 -3.615,0.877 -6.673,3.597 -6.277,7.2 -5.188,-1.217"
       id="path1209" /><path
       style="fill:none;stroke:#00ffff;stroke-width:0.499999"
       d="m 16070.563,31879.86 c 0.726,7.166 3.35,13.945 4.119,21.099"
       id="path1211" /><path
       style="fill:none;stroke:#00ffff;stroke-width:0.499999"
       d="m 16083.926,31893.917 c 1.819,4.337 -0.433,8.776 -2.295,12.783"
       id="path1213" /><path
       style="fill:none;stroke:#00ffff;stroke-width:0.499999"
       d="m 15954.357,31945.928 c 5.104,2.735 7.382,9.307 6.037,14.877 -0.338,1.398 -1.023,4.04 -2.39,3.592 -4.842,-1.591 -2.172,-7.332 -1.037,-10.267"
       id="path1215" /><path
       style="fill:none;stroke:#00ffff;stroke-width:0.499999"
       d="m 15958.822,31950.114 c 3.22,0.695 2.043,0.09 5.03,2.545 0.823,0.676 1.634,1.371 2.39,2.121 6.469,6.421 -10.462,-2.538 -1.729,-6.109"
       id="path1217" /><path
       style="fill:none;stroke:#00ffff;stroke-width:0.499999"
       d="m 15970.109,31952.15 c -0.398,0.858 -0.306,2.251 -1.195,2.574 -1.956,0.711 -3.845,-4.792 -2.546,-6.194 1.261,-1.362 4.412,-0.912 5.125,0.905 0.37,0.946 -0.923,1.81 -1.384,2.715 z"
       id="path1219" /><path
       style="fill:none;stroke:#00ffff;stroke-width:0.499999"
       d="m 15972.467,31947.823 c 4.475,-6.344 7.475,8.638 5.094,8.852 -2.897,0.261 -8.692,-13.132 -1.667,-13.377 5.424,-0.19 9.002,7.473 4.685,11.171 -3.186,2.73 -5.046,-1.353 -4.37,-4.044"
       id="path1221" /><path
       style="fill:none;stroke:#00ffff;stroke-width:0.499999"
       d="m 15995.922,31939.621 c 0.709,4.936 2.255,9.615 2.358,14.622"
       id="path1223" /><path
       style="fill:none;stroke:#00ffff;stroke-width:0.499999"
       d="m 15994.067,31951.33 c -0.551,-4.133 2.77,-7.546 6.006,-9.729 1.897,1.735 3.83,3.43 5.69,5.204 0.573,0.547 1.093,1.148 1.604,1.753 0.886,1.048 0.961,1.757 0.44,0 -0.299,-1.007 -1.098,-4.891 1.226,-3.394 0.997,0.643 2.044,1.343 2.673,2.348 0.196,0.313 -1.078,1.466 -0.157,0.198 1.591,-2.193 4.448,-2.714 6.539,-4.243 0.369,-0.269 1.386,-0.764 0.975,-0.961 -1.751,-0.84 -6.732,4.142 -5.565,5.798 2.461,3.492 7.508,-0.592 10.344,-1.443"
       id="path1225" /><path
       style="fill:none;stroke:#00ffff;stroke-width:0.499999"
       d="m 16039.059,31949.152 c 0.447,-5.141 -1.255,-8.799 -3.081,-13.886 -2.612,-7.279 -0.903,-1.213 0,0 -7.048,-11.812 6.629,-17.21 6.226,-4.752 -0.216,6.647 -7.328,13.761 -2.956,5.713"
       id="path1227" /><path
       style="fill:none;stroke:#00ffff;stroke-width:0.499999"
       d="m 16045.694,31931.759 c 0.876,1.639 0.06,9.846 2.075,8.965 2.028,-0.888 2.607,-2.36 3.269,-4.129 0.134,-0.356 0.26,-1.482 0.283,-1.103 0.07,1.12 1.096,9.655 2.516,5.628"
       id="path1229" /><path
       style="fill:none;stroke:#00ffff;stroke-width:0.499999"
       d="m 16054.34,31936.029 c 0.284,5.286 4.05,4.876 8.049,3.677"
       id="path1231" /><path
       style="fill:none;stroke:#00ffff;stroke-width:0.499999"
       d="m 16062.64,31930.627 c -1.433,-10.051 1.654,9.455 2.798,9.164 0.489,-0.124 0.545,-0.849 0.818,-1.273"
       id="path1233" /><path
       style="fill:none;stroke:#00ffff;stroke-width:0.499999"
       d="m 16068.866,31933.144 c -0.818,1.019 -1.684,1.999 -2.453,3.055 -3.474,4.772 9.646,-2.937 10.784,-3.733 0.07,-0.05 3.853,-2.057 2.39,-2.716 -4.145,-1.864 -11.281,5.048 -5.597,7.128 3.183,1.164 6.881,-0.911 9.056,-3.168"
       id="path1235" /><path
       style="fill:none;stroke:#00ffff;stroke-width:0.499999"
       d="m 16083.391,31926.272 c -0.286,-11.493 -0.284,7.963 0.158,10.266 -0.758,-5.887 1.428,-5.786 5.565,-8.06"
       id="path1237" /><path
       style="fill:none;stroke:#00ffff;stroke-width:0.499999"
       d="m 15967.413,31992.81 c -0.337,1.737 -4.897,9.817 0,0 0.34,-0.683 9.877,-17.539 6.351,-18.101 -2.74,-0.436 -10.302,4.519 -10.219,6.901 0.05,1.529 2.596,1.659 4.025,2.206 3.68,1.412 10.734,2.617 12.891,6.477 0.428,0.766 0.573,2.061 -0.09,2.63 -4.775,4.071 -14.41,5.622 -19.336,0.594 -0.761,-0.777 -0.943,-1.961 -1.415,-2.941"
       id="path1239" /><path
       style="fill:none;stroke:#00ffff;stroke-width:0.499999"
       d="m 15987.158,31976.746 c -0.891,-1.141 -1.983,-2.15 -2.673,-3.422 -0.305,-0.563 0.242,-2.092 0.786,-1.754 1.401,0.871 1.68,4.241 1.887,5.176 z"
       id="path1241" /><path
       style="fill:none;stroke:#00ffff;stroke-width:0.499999"
       d="m 15986.78,31986.39 c -2.138,0.827 5.377,16.342 4.371,12.331"
       id="path1243" /><path
       style="fill:none;stroke:#00ffff;stroke-width:0.499999"
       d="m 15990.459,31986.503 c 0.786,1.245 1.673,2.431 2.358,3.734 0.441,0.838 0.514,1.848 1.006,2.658 0.148,0.243 0.08,-0.564 0.09,-0.848 0.07,-1.168 -0.593,-8.738 2.704,-7.552 0.662,0.238 4.056,6.23 4.371,5.742 0.414,-0.643 0.482,-1.452 0.723,-2.178"
       id="path1245" /><path
       style="fill:none;stroke:#00ffff;stroke-width:0.499999"
       d="m 16004.136,31981.724 c -0.42,4.037 1.242,-4.585 1.132,-4.186 -1.483,5.37 -1.174,9.784 0.629,15.131 2.361,7.004 5.444,2.452 3.301,1.753 -1.96,-0.639 -5.973,-0.111 -7.294,-2.093 -1.197,-1.793 12.556,-2.807 11.916,-0.311 -0.895,3.488 -5.593,-3.218 -4.937,-6.194 1.252,-5.67 8.494,4.472 4.591,1.415"
       id="path1247" /><path
       style="fill:none;stroke:#00ffff;stroke-width:0.499999"
       d="m 16011.807,31981.412 c 0.456,-0.283 5.892,2.649 5.974,2.122 0.181,-1.167 -0.503,-2.309 -0.66,-3.479 -0.246,-1.831 0.22,-3.347 0.22,-5.119 1.478,0.283 3.245,-0.08 4.433,0.848 0.789,0.612 2.585,7.266 3.27,8.909 0.05,0.109 -0.07,-0.225 -0.09,-0.339 -0.46,-2.044 -0.862,-4.207 -0.252,-6.279 0.622,-2.111 3.159,3.934 3.553,3.224 0.817,-1.47 -0.05,-4.43 1.572,-5.656 2.421,-1.827 3.291,2.624 3.584,3.875 0.112,0.477 0.391,1.719 -0.03,1.47 -0.374,-0.221 -0.566,-0.66 -0.849,-0.99"
       id="path1249" /><path
       style="fill:none;stroke:#00ffff;stroke-width:0.499999"
       d="m 16055.102,31968.685 c -3.042,-8.209 0,0 0,0 0.568,2.358 0.859,4.775 1.32,7.156 0.09,0.469 0.681,2.367 0.503,3.167 -0.1,0.433 -0.901,10e-4 -1.32,-0.141 -0.978,-1.207 -9.014,-8.377 -0.503,-10.182 2.042,-0.433 3.218,2.672 4.685,4.158 0.952,0.965 0.741,1.9 1.006,1.782 0.878,-0.395 -0.641,-5.265 0.346,-6.534 0.527,-0.677 6.89,1.263 8.52,0.594 1.911,-0.784 0.918,-6.33 -0.503,-5.741 -3.977,1.647 -5.511,8.326 -1.478,10.86 2.862,1.798 7.981,-1.823 10.061,-3.252"
       id="path1251" /><path
       style="fill:none;stroke:#00ffff;stroke-width:0.499999"
       d="m 15981.876,32016.341 c -1.13,-1.17 -3.763,4.41 -2.138,5.544 2.994,2.089 7.357,1.715 10.186,3.988 1.159,0.93 0.426,1.946 -0.408,2.799 -0.635,0.65 -5.961,4.669 -6.917,2.744 -0.855,-1.719 -0.927,-3.766 -0.912,-5.685 0,-0.891 0.65,-1.659 0.975,-2.489"
       id="path1253" /><path
       style="fill:none;stroke:#00ffff;stroke-width:0.499999"
       d="m 15989.044,32019.254 c 1.226,0.274 2.534,0.302 3.679,0.821 5.262,2.382 -6.374,5.538 -3.679,-0.821 3.548,-8.37 6.245,2.771 5.314,2.093 -0.987,-0.717 -2.636,-5.434 -1.384,-5.656 3.176,-0.564 5.117,5.489 7.861,0.933 0.951,-1.58 0.204,-4.503 -0.692,-5.939 -0.331,-0.531 -1.533,-1.246 -1.006,-1.584 0.659,-0.424 3.252,2.871 5.408,5.119 1.368,1.428 1.504,1.522 2.578,2.659 0.1,0.102 0.411,0.368 0.283,0.311 -0.673,-0.303 -1.06,-1.026 -1.572,-1.556 -3.76,-3.892 0.272,-6.779 3.395,-9.616 m 0,0 c 3.954,2.549 -2.468,11.931 2.138,13.152 2.196,0.582 5.195,-1.783 6.54,-3.281 0.314,-0.35 0.822,-1.208 0.377,-1.358 -0.437,-0.147 -1.779,0.266 -1.383,0.03 2.485,-1.491 2.4,-0.575 5.062,-3.027 0.641,-0.59 2.471,-5.238 0.283,-3.676 -2.795,1.995 -5.464,3.819 -6.351,7.212 -0.234,0.894 -0.485,3.104 1.132,3.309 3.402,0.43 7.208,-2.179 9.935,-3.847"
       id="path1255" /><path
       style="fill:none;stroke:#00ffff;stroke-width:0.499999"
       d="m 15971.28,32069.795 c -4.195,0.223 -8.811,-0.103 -12.954,0.82 -5.951,1.327 -11.513,3.271 -17.638,3.903 -3.15,0.325 -6.196,-0.167 -9.338,-0.06 -2.3,0.08 -4.559,0.477 -6.854,0.594 -13.546,0.686 -27.186,0.573 -40.748,1.046 -5.71,0.199 -11.561,0.06 -17.23,0.905 -2.136,0.321 -4.291,1.67 -6.257,2.461 -4.777,1.922 -9.554,3.913 -14.557,5.119 -4.676,1.127 -8.943,0.277 -13.582,0.113 -3.434,-0.121 -6.561,0.547 -9.904,0.82 -0.592,0.05 0.609,-1.029 1.006,-1.47 2.272,-2.529 4.59,-5.017 6.917,-7.495 1.656,-1.764 3.491,-3.366 5.031,-5.233 0.244,-0.296 0.597,-1.203 0.22,-1.131 -1.442,0.277 -5.905,4.424 -6.289,4.78 -3.492,3.242 -12.881,11.905 -7.734,17.196 4.904,5.042 12.411,4.27 18.016,7.834"
       id="path1257" /><path
       style="fill:none;stroke:#00ffff;stroke-width:0.499999"
       d="m 15867.732,32099.692 c -1.331,1.773 -2.816,3.44 -3.993,5.318 -3.844,6.126 5.299,5.556 7.828,9.191 0.391,0.561 0.831,1.299 0.629,1.952 -1.303,4.23 -9.17,8.572 -8.929,1.951"
       id="path1259" /><path
       style="fill:none;stroke:#00ffff;stroke-width:0.499999"
       d="m 15871.693,32106.254 c 5.372,-0.922 5.933,10.018 4.433,8.711 -0.549,-0.479 -0.895,-1.161 -1.226,-1.81 -1.15,-2.261 -3.592,-4.394 -3.207,-6.901 0.25,-1.627 3.04,-1.263 4.559,-1.895"
       id="path1261" /><path
       style="fill:none;stroke:#00ffff;stroke-width:0.499999"
       d="m 15881.408,32102.69 c -1.14,1.978 -2.811,18.067 3.145,15.301 2.051,-0.952 5.138,-3.386 3.175,-5.571"
       id="path1263" /><path
       style="fill:none;stroke:#00ffff;stroke-width:0.499999"
       d="m 15889.615,32104.105 c -0.692,-7.008 2.252,-5.194 0.786,-2.687"
       id="path1265" /><path
       style="fill:none;stroke:#00ffff;stroke-width:0.499999"
       d="m 15893.419,32116.775 c -4.23,-4.33 -0.675,-4.077 -0.314,-2.828 0.263,0.911 0.209,1.885 0.314,2.828 z"
       id="path1267" /><path
       style="fill:none;stroke:#00ffff;stroke-width:0.499999"
       d="m 15902.883,32101.135 c 3.706,8.994 -1.433,-3.418 3.207,7.551 0.579,1.371 1.173,2.737 1.698,4.13 1.668,4.428 0.334,4.685 -2.484,-2.716 -0.535,-1.403 -0.521,-2.962 -0.912,-4.412 -0.417,-1.543 -2.189,-3.106 -1.509,-4.553 1.979,-4.217 5.528,-2.496 7.388,-0.566"
       id="path1269" /><path
       style="fill:none;stroke:#00ffff;stroke-width:0.499999"
       d="m 15918.1,32106.678 c -1.236,-1.093 -2.751,-1.937 -3.71,-3.281 -2.494,-3.494 2.541,-5.794 4.245,-1.979 0.883,1.978 0.03,3.137 -0.535,5.26 z"
       id="path1271" /><path
       style="fill:none;stroke:#00ffff;stroke-width:0.499999"
       d="m 15918.981,32101.672 c 2.252,8.574 11.109,6.047 9.212,-1.753"
       id="path1273" /><path
       style="fill:none;stroke:#00ffff;stroke-width:0.499999"
       d="m 15928.507,32093.216 c 2.262,3.038 5.189,6.707 5.66,10.662 -2.141,-7.615 2.735,-2.513 2.735,-9.192 0,-0.781 0.397,-2.076 -0.346,-2.319 -1.343,-0.439 -1.216,6.894 1.352,6.845 4.588,-0.09 2.661,-7.381 2.515,-9.871 -0.03,-0.613 0.358,1.176 0.566,1.754 0.305,0.846 0.538,1.73 0.975,2.517 0.806,1.45 1.525,1.999 2.484,3.111 0.124,0.144 0.503,0.558 0.346,0.452 -1.748,-1.179 -2.691,-4.952 -2.799,-6.703 -0.244,-3.992 3.32,-5.575 6.54,-5.741"
       id="path1275" /><path
       style="fill:none;stroke:#00ffff;stroke-width:0.499999"
       d="m 15874.24,32127.296 c 0.147,1.047 0.211,2.108 0.44,3.14 0.16,0.72 0.483,1.395 0.723,2.092 0.311,0.903 1.244,3.528 1.447,4.497 0.365,1.745 -0.132,9.388 -3.553,6.42 -2.622,-2.273 -2.818,-5.494 0.911,-6.278 2.088,-0.439 4.232,0.618 6.163,-0.736 0.656,-0.459 3.758,-4.825 2.295,-4.355 -3.328,1.069 -3.216,11.51 1.258,5.656 0.838,-1.097 1.341,-2.413 2.012,-3.62 2.065,0.83 4.231,1.442 6.194,2.489 2.999,1.6 -0.663,7.473 -2.421,5.911 -1.242,-1.103 -1.569,-2.532 -2.075,-3.988"
       id="path1277" /><path
       style="fill:none;stroke:#00ffff;stroke-width:0.499999"
       d="m 15888.357,32126.872 c 3.285,2.612 9.132,10.081 4.056,13.887 -1.274,-9.24 -1.098,-9.017 5.219,-12.218"
       id="path1279" /><path
       style="fill:none;stroke:#00ffff;stroke-width:0.499999"
       d="m 15898.481,32122.714 c -1.572,-5.012 -0.302,-5.97 0,0 z"
       id="path1281" /><path
       style="fill:none;stroke:#00ffff;stroke-width:0.499999"
       d="m 15900.933,32130.238 c -0.04,3.28 -0.04,3.28 0,0 z"
       id="path1283" /><path
       style="fill:none;stroke:#00ffff;stroke-width:0.499999"
       d="m 15903.437,32131.899 c 5.855,2.636 -1.794,2.726 -1.698,2.489 0.375,-0.931 1.331,-3.424 1.698,-2.489 0.762,1.941 -0.213,4.166 -0.22,6.251 0,1.634 0.523,3.483 0,3.62 -0.752,0.196 -1.696,-3.836 -1.447,-6.024 1.256,-11.008 2.695,1.184 1.541,0.876 -1.522,-0.405 -1.057,-5.763 0.126,-4.723 2.266,1.995 1.007,3.16 0.126,4.129"
       id="path1285" /><path
       style="fill:none;stroke:#00ffff;stroke-width:0.499999"
       d="m 15918.246,32116.853 c 0.07,1.244 0.1,2.493 0.22,3.733 1.052,10.723 0.548,1.64 1.383,13.151 0.146,2.015 0.207,4.036 0.314,6.053 0.06,1.019 0.257,4.072 0.189,3.054 -0.448,-6.725 -1.338,-13.351 -3.584,-19.741 -0.09,-0.251 -1.942,-3.313 -1.572,-3.761 3.652,-4.417 2.364,-1.614 7.388,-1.669 0.289,0 10.426,-1.628 11.225,-1.753 4.335,-0.682 6.04,-0.878 10.092,-1.697 0.944,-0.191 4.488,-1.514 5.974,-1.584 0.698,-0.03 0.222,1.629 0.378,4.355 0.272,4.776 0.615,8.803 1.32,13.463 0.08,0.532 1.063,7.607 1.887,10.153 0.06,0.188 1.45,2.525 1.414,2.97 -0.05,0.569 -2.89,1.286 -3.993,1.725 -9.088,3.62 -15.103,6.5 -25.09,7.41 -1.319,0.12 -6.08,1.251 -6.162,-1.188"
       id="path1287" /><path
       style="fill:none;stroke:#00ffff;stroke-width:0.499999"
       d="m 15926.766,32138.348 c 2.12,4.131 6.164,-3.832 5.439,-6.421 -0.183,-0.654 -0.714,-1.156 -1.037,-1.753 -1.019,-1.883 -1.194,-4.516 -2.987,-5.685 -0.968,-0.631 -2.352,2.795 -2.956,1.81 -0.603,-0.985 1.971,-1.207 2.956,-1.81 0.975,1.886 1.95,3.771 2.924,5.657 0.273,0.527 0.252,1.401 0.817,1.583 0.639,0.206 6.983,-1.458 4.276,-2.969"
       id="path1289" /><path
       style="fill:none;stroke:#00ffff;stroke-width:0.499999"
       d="m 15934.312,32121.576 c 1.289,0.613 2.791,0.901 3.867,1.838 1.985,1.73 1.224,8.001 -0.66,4.667 -1.851,-3.276 0.14,-11.86 4.968,-9.05"
       id="path1291" /><path
       style="fill:none;stroke:#00ffff;stroke-width:0.499999"
       d="m 16000.325,32053.378 c 0,-0.667 0.696,-4.782 -0.817,-5.176 -3.646,-0.949 -7.467,7.284 -8.238,9.079 -4.466,10.407 -5.368,27.448 7.2,32.751 4.101,1.731 7.957,1.044 11.413,-1.612 10.396,-7.99 12.455,-35.369 -0.849,-41.999 -2.748,-1.37 -12.498,-2.476 -10.438,3.394"
       id="path1293" /><path
       style="fill:none;stroke:#00ffff;stroke-width:0.499999"
       d="m 16006.079,32056.206 c 0,3.573 -3.179,19.067 -5.817,20.958 -0.306,0.219 -0.628,-0.415 -0.943,-0.623"
       id="path1295" /><path
       style="fill:none;stroke:#00ffff;stroke-width:0.499999"
       d="m 15998.093,32063.786 c -0.904,-8.029 -0.104,-0.09 0,0 1.284,1.127 3.461,0.388 4.999,1.131 2.057,0.994 4.17,4.176 5.911,5.742"
       id="path1297" /><path
       style="fill:none;stroke:#00ffff;stroke-width:0.499999"
       d="m 16014.474,32108.925 c -0.388,-0.83 -0.334,-2.877 -1.164,-2.489 -0.829,0.388 1.009,1.586 1.164,2.489 0.42,8.871 -0.147,2.953 1.1,10.182 0.376,2.18 0.535,4.285 0,3.111 -2.459,-5.396 -2.314,-14.74 1.006,-19.77 0.904,-1.369 3.33,-3.419 4.999,-1.612 4.555,4.928 -9.347,14.443 2.233,12.727 1.507,-0.223 3.139,-0.779 4.684,-0.452 3.262,3.975 5.122,8.002 6.603,12.755"
       id="path1299" /><path
       style="fill:none;stroke:#00ffff;stroke-width:0.499999"
       d="m 15730.283,32074.399 c -1.274,7.857 0.576,16.047 1.164,23.899 0.1,1.349 0.218,5.274 -0.346,4.044 -2.267,-4.937 -2.038,-12.06 -2.861,-17.309 -0.137,-0.873 -3.024,-12.635 -1.887,-13.858 2.097,-2.256 9.647,-2.434 12.576,-3.026 5.206,-1.052 10.123,-2.563 15.029,-4.582 1.632,-0.672 2.945,-1.273 4.496,-2.008 0.365,-0.173 0.814,-0.958 1.038,-0.622 0.465,0.696 1.116,6.929 1.163,7.212 0.474,2.831 0.88,5.677 1.478,8.484 1.268,5.954 2.684,11.875 4.119,17.79 0.954,3.932 3.606,10.142 3.93,14.368 0.06,0.77 -0.969,-0.605 -2.044,-1.556 -1,-0.885 -2.341,-1.89 -3.615,-2.178 -3.226,-0.729 -6.507,-1.319 -9.81,-1.47 -6.189,-0.285 -13.041,1.513 -19.211,2.121 -1.178,0.116 -4.258,1.036 -3.552,0.09 0.216,-0.293 0.712,-0.151 1.069,-0.227"
       id="path1301" /><path
       style="fill:none;stroke:#00ffff;stroke-width:0.499999"
       d="m 15736.854,32125.59 c -11.725,7.428 7.138,6.397 8.678,12.897 0.375,1.583 -1.656,4.596 -3.458,4.243 -1.805,-0.354 -2.347,-1.803 -3.113,-3.112"
       id="path1303" /><path
       style="fill:none;stroke:#00ffff;stroke-width:0.499999"
       d="m 15740.344,32128.984 c 4.53,-0.693 3.675,-1.454 6.792,0.34 1.677,0.965 1.688,1.566 1.697,1.442 0.1,-1.241 -0.754,-2.435 -0.66,-3.677 0.339,-4.452 2.94,-7.249 6.697,-9.503 1.31,-0.66 2.53,-1.542 3.93,-1.979 0.288,-0.09 -0.05,0.712 -0.314,0.848 -1.128,0.568 -3.131,-0.04 -3.616,1.131 -0.968,2.324 0.165,5.04 0,7.552 -0.09,1.331 -0.803,2.598 -0.754,3.931 0.04,1.062 0.212,2.319 1.006,3.026 2.087,1.862 11.881,-3.827 12.859,-5.939"
       id="path1305" /><path
       style="fill:none;stroke:#00ffff;stroke-width:0.499999"
       d="m 15873.221,32177.973 c -0.158,-0.81 0.339,-2.589 -0.472,-2.432 -0.811,0.157 0.372,1.613 0.472,2.432 0.244,2.016 2.218,14.4 1.32,15.669"
       id="path1307" /><path
       style="fill:none;stroke:#00ffff;stroke-width:0.499999"
       d="m 15870.297,32190.135 c 1.935,-6.097 4.236,-6.541 9.589,-8.202"
       id="path1309" /><path
       style="fill:none;stroke:#00ffff;stroke-width:0.499999"
       d="m 15884.351,32177.747 c 0.728,0.948 4.433,13.962 0.377,13.01"
       id="path1311" /><path
       style="fill:none;stroke:#00ffff;stroke-width:0.499999"
       d="m 15879.98,32184.083 c 5.163,2.305 3.118,0.963 6.414,3.563"
       id="path1313" /><path
       style="fill:none;stroke:#00ffff;stroke-width:0.499999"
       d="m 15892.997,32189.428 c 5.377,3.067 -3.543,-9.65 -4.748,-9.164 0.253,-1.068 0.43,-4.943 2.233,-5.967 3.44,-1.955 4.262,6.493 4.401,8.202 0.05,0.638 0.629,-1.177 1.164,-1.528 2.15,-1.409 4.752,-0.694 6.194,-3.393 0.285,-0.536 0.414,-1.876 -0.189,-1.81 -1.082,0.116 -1.981,1.467 -2.358,2.234 -5.085,10.336 8.852,9.296 9.306,6.844"
       id="path1315" /><path
       style="fill:none;stroke:#00ffff;stroke-width:0.499999"
       d="m 15915.037,32184.224 c -0.168,3.318 -0.168,3.318 0,0 z"
       id="path1317" /><path
       style="fill:none;stroke:#00ffff;stroke-width:0.499999"
       d="m 15912.428,32164.511 c 0.762,5.313 -3.931,3.493 -3.459,-0.17 0.02,-0.156 0.314,0.02 0.472,0.03 0.995,0.05 2.425,-0.683 2.987,0.141 0.796,1.169 -0.04,2.829 0,4.242 0.01,0.362 0.245,0.724 0.157,1.075 -0.668,2.653 -5.293,-3.499 -2.358,-2.687 2.469,0.684 3.142,4.822 0.471,5.77 -2.759,0.98 -0.68,-2.716 -0.377,-3.281"
       id="path1319" /><path
       style="fill:none;stroke:#00ffff;stroke-width:0.499999"
       d="m 15917.364,32185.44 c 0.01,4.347 -4.444,0.186 -2.736,-0.65 0.842,-0.413 1.824,0.433 2.736,0.65 z"
       id="path1321" /><path
       style="fill:none;stroke:#00ffff;stroke-width:0.499999"
       d="m 15926.639,32167.509 c 1.836,5.354 1.193,11.065 2.421,16.517 0.108,0.479 -0.02,-0.984 -0.09,-1.471"
       id="path1323" /><path
       style="fill:none;stroke:#00ffff;stroke-width:0.499999"
       d="m 15929.469,32166.83 c 2.724,4.668 2.381,10.352 3.427,15.556"
       id="path1325" /><path
       style="fill:none;stroke:#00ffff;stroke-width:0.499999"
       d="m 15870.454,32208.999 c -0.476,1.489 -3.934,13.903 0.754,14 3.594,0.08 5.779,-4.033 7.326,-6.618 -9.572,-9.382 4.05,-4.799 6.76,-1.895 2.015,2.161 -0.141,0.958 -0.252,0.905"
       id="path1327" /><path
       style="fill:none;stroke:#00ffff;stroke-width:0.499999"
       d="m 15884.571,32209.452 c 2.869,-1.621 1.935,-2.04 4.59,-0.06 3.598,2.688 0.7,8.289 -2.641,9.051 -1.804,0.411 -0.922,-4.139 0.283,-5.544 3.04,-3.542 6.026,-1.654 8.395,-3.987 0.751,-0.74 1.358,-3.776 -0.598,-3.621 -3.896,0.31 -2.886,6.904 -2.012,8.655 1.48,2.965 8.952,-0.616 10.564,-1.499"
       id="path1329" /><path
       style="fill:none;stroke:#00ffff;stroke-width:0.499999"
       d="m 15912.711,32203.428 c -4.884,-1.816 -2.22,-6.052 -0.441,-2.828 0.461,0.835 0.294,1.885 0.441,2.828 z"
       id="path1331" /><path
       style="fill:none;stroke:#00ffff;stroke-width:0.499999"
       d="m 15915.855,32218.22 c -0.283,1.074 -1.924,2.941 -0.849,3.224 1.074,0.283 0.566,-2.15 0.849,-3.224 z"
       id="path1333" /><path
       style="fill:none;stroke:#00ffff;stroke-width:0.499999"
       d="m 15925.79,32200.515 c -0.293,1.395 -0.695,2.772 -0.88,4.185 -0.236,1.8 -0.491,3.62 -0.378,5.431 0.793,12.712 15.103,-7.784 11.13,-9.758 -2.943,-1.462 -11.744,10.665 -12.01,10.521 -0.323,-0.174 0.394,-0.622 0.535,-0.961 0.332,-0.805 0.586,-1.641 0.88,-2.461"
       id="path1335" /><path
       style="fill:none;stroke:#00ffff;stroke-width:0.499999"
       d="m 15926.387,32196.499 c 4.315,-1.414 -1.864,-3.081 -1.823,-2.942 0.324,1.107 1.546,1.822 1.823,2.942 0.612,2.465 0.376,5.073 0.786,7.579 1.155,7.044 3.405,13.658 2.987,20.929"
       id="path1337" /><path
       style="fill:none;stroke:#00ffff;stroke-width:0.499999"
       d="m 15845.046,32109.741 c -0.964,0.792 -2.143,1.378 -2.893,2.375 -1.037,1.38 -1.73,3.003 -2.358,4.61 -0.491,1.258 -0.904,2.583 -0.974,3.932 -0.359,6.831 9.847,-2.261 10.375,3.846 0.249,2.876 -1.791,6.803 -3.175,9.164 -0.321,0.546 -0.729,1.038 -1.132,1.527 -0.113,0.137 -0.397,0.516 -0.409,0.339 -0.199,-2.867 5.919,-3.636 6.477,1.16 0.555,4.77 -0.03,6.38 -1.572,10.097 -0.42,1.012 -0.874,2.011 -1.352,2.998 -0.382,0.787 -1.196,1.445 -1.226,2.319 -0.06,1.635 3.298,-0.542 4.716,-1.358 3.186,-1.832 8.03,-4.16 7.2,-5.571"
       id="path1339" /><path
       style="fill:none;stroke:#00ffff;stroke-width:0.499999"
       d="m 15815.837,32133.074 c -1.445,1.27 1.782,13.804 1.698,13.858 -0.262,0.17 -0.482,-0.396 -0.723,-0.594"
       id="path1341" /><path
       style="fill:none;stroke:#00ffff;stroke-width:0.499999"
       d="m 15810.586,32138.023 c -5.658,-7.744 11.905,-10.721 12.577,-5.883 0.217,1.564 -1.715,3.466 -2.39,4.356"
       id="path1343" /><path
       style="fill:none;stroke:#00ffff;stroke-width:0.499999"
       d="m 15814.076,32145.405 c 3.87,1.62 8.303,-0.08 10.659,-3.507"
       id="path1345" /><path
       style="fill:none;stroke:#00ffff;stroke-width:0.499999"
       d="m 15829.357,32145.348 c 2.572,3.131 -5.311,-14.795 -5.188,-12.161 -6.529,-6.456 1.378,-9.437 5.942,-4.723 3.216,3.32 1.633,9.149 -3.081,9.587"
       id="path1347" /><path
       style="fill:none;stroke:#00ffff;stroke-width:0.499999"
       d="m 15839.355,32187.942 c -0.187,-0.289 2.146,-8.834 -0.849,-3.79 -1.329,2.239 -7.181,11.782 -3.081,13.943 1.955,1.03 9.814,-1.683 10.533,-0.594 2.343,3.55 -0.926,9.172 -2.673,12.162 -4.657,7.97 2.198,-7.384 3.679,-2.15 2.02,7.138 -6.332,13.982 -5.471,21.156 0.355,2.961 9.835,-1.928 10.596,-2.235 1.128,-0.455 2.247,-0.932 3.364,-1.414 0.527,-0.227 2.146,-0.707 1.572,-0.707 -0.297,0 -0.587,0.09 -0.88,0.141"
       id="path1349" /><path
       style="fill:none;stroke:#00ffff;stroke-width:0.499999"
       d="m 15795.023,32203.214 c -0.293,5.378 1.452,10.327 2.578,15.471 0.213,0.971 1.465,3.194 0.503,2.941 -0.352,-0.09 -0.503,-0.528 -0.754,-0.792"
       id="path1351" /><path
       style="fill:none;stroke:#00ffff;stroke-width:0.499999"
       d="m 15788.703,32207.937 c -3.003,-8.81 17.736,-10.08 14.809,-4.157 -0.535,1.083 -1.383,1.98 -2.075,2.97"
       id="path1353" /><path
       style="fill:none;stroke:#00ffff;stroke-width:0.499999"
       d="m 15793.734,32221.004 c 1.3,0.311 2.567,1.049 3.899,0.933 2.374,-0.206 7.125,-3.4 9.212,-4.808"
       id="path1355" /><path
       style="fill:none;stroke:#00ffff;stroke-width:0.499999"
       d="m 15808.731,32207.202 c -3.897,1.112 -1.949,13.528 2.484,11.624 3.642,-1.564 4.268,-3.222 2.893,-6.109"
       id="path1357" /><path
       style="fill:none;stroke:#00ffff;stroke-width:0.499999"
       d="m 15812.693,32205.138 c 0.134,-0.281 4.4,5.282 4.433,5.006 0.205,-1.716 -1.922,-6.178 -0.597,-7.58 0.313,-0.331 2.118,2.887 2.452,2.715 0.39,-0.2 -0.307,-2.378 0.409,-2.828 0.626,-0.395 3.139,3.645 3.207,4.497"
       id="path1359" /><path
       style="fill:none;stroke:#00ffff;stroke-width:0.499999"
       d="m 15821.465,32200.81 c 1.443,1.871 2.368,3.731 3.05,5.911"
       id="path1361" /><path
       style="fill:none;stroke:#00ffff;stroke-width:0.499999"
       d="m 15818.258,32196.653 c -1.621,-1.317 -1.855,-9.685 1.918,-8.032 5.46,2.391 1.683,11.246 1.1,7.579"
       id="path1363" /><path
       style="fill:none;stroke:#00ffff;stroke-width:0.499999"
       d="m 16037.878,32177.872 c -9.63,0.312 -19.048,2.802 -28.643,3.62 -1.921,0.164 -11.647,0.607 -12.765,0.679 -1.664,0.108 -9.363,1.559 -10.029,1.16 -3.125,-1.874 9.645,-13.527 11.979,-14.085 0.691,-0.165 -0.803,1.179 -1.289,1.697 -1.227,1.306 -15.993,15.202 -13.834,17.168 1.933,1.76 10.744,2.276 13.268,2.884 2.406,0.58 8.068,3.893 10.218,2.235"
       id="path1365" /><path
       style="fill:none;stroke:#00ffff;stroke-width:0.499999"
       d="m 16059.038,32157 c -1.924,2.123 2.014,18.112 0.566,18.836 -0.665,0.332 -2.275,-1.649 -2.295,-1.669"
       id="path1367" /><path
       style="fill:none;stroke:#00ffff;stroke-width:0.499999"
       d="m 16053.19,32169.557 c -0.07,-1.348 -0.689,-2.778 -0.22,-4.044 1.031,-2.782 5.8,-3.892 8.238,-4.384 0.787,-0.159 1.592,-0.413 2.389,-0.311 0.07,0 2.845,5.905 4.025,7.551 0.448,0.625 1.261,2.138 1.729,1.528 0.968,-1.261 0.09,-3.521 0.692,-4.922 0.425,-0.989 5.22,4.525 7.011,3.055 1.783,-1.464 3.356,-8.231 1.729,-7.014 -1.997,1.493 -3.584,6.38 -2.264,8.711 2.007,3.542 7.274,-3.468 7.892,-5.147 0.05,-0.146 0.867,-2.765 -0.472,-2.546 -2.069,0.339 2.03,3.869 3.773,5.034 0.42,0.281 2.681,1.274 3.082,1.81 1.151,1.544 -2.142,3.77 -3.459,3.055 -0.409,-0.222 -0.742,-0.672 -0.817,-1.131 -0.832,-5.097 5.456,-3.837 7.671,-6.194 0.96,-1.022 1.764,-5.507 -0.283,-3.931 -1.41,1.085 -2.46,3.421 -2.829,5.034 -1.873,8.18 5.831,9.787 11.035,5.854"
       id="path1369" /><path
       style="fill:none;stroke:#00ffff;stroke-width:0.499999"
       d="m 16113.463,32158.697 c -6.679,3.432 -2.671,19.841 4.181,9.39 -0.168,-1.339 -0.347,-2.676 -0.503,-4.017 -0.818,-7.026 7.794,0.435 4.716,0.962"
       id="path1371" /><path
       style="fill:none;stroke:#00ffff;stroke-width:0.499999"
       d="m 16122.455,32159.828 c 2.449,-11.412 10.831,4.997 6.036,6.816 -2.092,0.794 -3.788,-3.938 -3.081,-5.345 0.627,-1.247 6.636,-1.127 8.364,-1.867 0.734,-0.315 2.22,-1.343 1.572,-1.81 -0.725,-0.521 -6.812,5.69 -1.887,7.976 0.95,0.441 2.16,-0.277 3.019,-0.877 1.189,-0.831 1.928,-2.168 2.892,-3.253"
       id="path1373" /><path
       style="fill:none;stroke:#00ffff;stroke-width:0.499999"
       d="m 16141.005,32154.935 c -8.833,5.388 6.513,4.898 7.2,8.372 0.837,4.231 -9.706,9.34 -12.828,7.155"
       id="path1375" /><path
       style="fill:none;stroke:#00ffff;stroke-width:0.499999"
       d="m 16057.183,32192.862 c -4.461,-3.581 -0.65,-5.67 -0.126,-3.196 0.222,1.043 0.08,2.131 0.126,3.196 z"
       id="path1377" /><path
       style="fill:none;stroke:#00ffff;stroke-width:0.499999"
       d="m 16056.114,32199.141 c -0.348,0.876 4.909,20.86 2.641,13.236"
       id="path1379" /><path
       style="fill:none;stroke:#00ffff;stroke-width:0.499999"
       d="m 16060.579,32200.809 c 0.398,-0.914 2.109,-2.345 1.195,-2.743 -0.915,-0.398 -1.754,1.917 -1.195,2.743 0.724,1.071 2.742,0.199 3.741,1.019 0.228,0.186 1.397,5.383 0.315,5.6 -0.745,0.148 0.355,-8.347 2.766,-9.362 3.151,-1.327 5.782,11.944 4.465,6.731"
       id="path1381" /><path
       style="fill:none;stroke:#00ffff;stroke-width:0.499999"
       d="m 16071.772,32197.896 c 3.203,-0.341 2.433,-0.952 4.496,2.574 2.274,3.887 0.04,11.166 -4.182,6.675 -3.122,-3.324 1.315,-5.842 4.245,-4.554 1.283,-3.241 1.341,-3.965 0.471,-6.646"
       id="path1383" /><path
       style="fill:none;stroke:#00ffff;stroke-width:0.499999"
       d="m 16081.518,32191.787 c 1.122,-0.895 2.243,-1.791 3.365,-2.687 0.136,-0.179 0.62,-0.613 0.408,-0.537 -2.888,1.04 -3.258,5.266 -4.244,8.174 -2.156,6.357 -1.264,13.449 7.074,10.464 2.146,-0.768 2.193,-1.001 3.27,-2.234"
       id="path1385" /><path
       style="fill:none;stroke:#00ffff;stroke-width:0.499999"
       d="m 16092.334,32195.521 c -0.962,2.168 -3.935,5.54 -1.163,8.004 1.783,1.584 4.83,-6.878 4.999,-8.118 0.118,-0.868 -0.523,1.68 -0.66,2.546 -0.185,1.16 -0.982,5.102 0,6.505 0.363,0.519 1.216,0.358 1.823,0.537"
       id="path1387" /><path
       style="fill:none;stroke:#00ffff;stroke-width:0.499999"
       d="m 16098.905,32197.755 c 0,2.562 0.757,3.542 2.138,5.317 1.499,-1.367 2.93,-2.813 4.496,-4.101 0.353,-0.29 2.05,-0.894 2.296,-1.725 0.619,-2.099 -7.148,-2.241 -5.503,1.584 2.302,5.349 7.408,6.503 11.319,2.545"
       id="path1389" /><path
       style="fill:none;stroke:#00ffff;stroke-width:0.499999"
       d="m 16131.73,32186.668 c 1.285,2.89 1.515,3.015 2.169,6.42 0.777,4.038 1.858,9.662 0.975,13.83 -0.54,2.55 -1.585,-4.994 -1.918,-7.579 -0.245,-1.904 -0.255,-3.831 -0.44,-5.742 -0.778,-8.034 -2.748,-6.254 3.899,-11.058 0.679,-0.491 1.383,1.349 1.257,2.178 -0.431,2.842 -1.221,5.626 -2.075,8.371 -1.057,3.402 -3.095,5.165 -1.886,5.289 1.606,0.165 11.521,-2.995 10.658,0.368 7.007,0.56 6.611,1.858 7.169,7.58"
       id="path1391" /><path
       style="fill:none;stroke:#00ffff;stroke-width:0.499999"
       d="m 16170.402,32177.674 c -1.122,6.595 6.22,14.424 3.019,20.392 -1.222,2.277 -4.857,0.955 -5.974,-0.396 -3.193,-3.864 1.666,-8.795 3.962,-11.539 1.635,-0.179 3.328,-1.006 4.904,-0.538 1.11,0.33 1.495,1.767 2.233,2.659 6.268,7.583 -4.84,-1.274 -1.101,-5.289 3.142,-3.373 10.157,0.669 8.049,5.034 -1.091,2.259 -7.453,-5.118 -4.244,-7.042 2.341,-1.404 6.868,7.274 5.124,6.392"
       id="path1393" /><path
       style="fill:none;stroke:#00ffff;stroke-width:0.499999"
       d="m 16185.809,32179.824 c 1.435,1.131 3.404,1.804 4.307,3.394 1.164,2.049 1.125,4.581 1.541,6.901 0.316,1.766 -0.23,2.759 -0.283,2.743 -2.096,-0.615 -8.913,-18.009 -3.365,-20.505 0.569,-0.256 1.304,0.15 1.793,0.538 3.143,2.489 3.933,7.725 3.615,11.426 -0.393,4.585 -1.722,5.426 -3.05,1.301"
       id="path1395" /><path
       style="fill:none;stroke:#00ffff;stroke-width:0.499999"
       d="m 16192.443,32175.949 c 4.654,2.144 8.446,6.46 8.74,11.85 0.03,0.49 -0.362,3 -1.603,2.914 -4.665,-0.327 -5.111,-18.71 -1.824,-20.081 4.213,-1.757 8.357,11.134 2.893,10.86 -2.68,-0.133 -2.066,-3.792 0.03,-4.496 2.115,-0.711 11.642,-0.69 11.948,-4.017 0.469,-5.113 -10.758,2.985 -4.685,7.948 0.771,0.63 2.003,0.21 2.987,0.06 6.913,-1.081 6.36,-11.34 4.307,-11.822 -0.907,-0.213 -0.02,1.929 0.378,2.772 1.002,2.119 6.832,8.492 3.301,11.172 -8.702,6.604 -8.465,-9.548 0.157,-7.099"
       id="path1397" /><path
       style="fill:none;stroke:#00ffff;stroke-width:0.499999"
       d="m 16065.043,32223.068 c -2.863,2.491 2.279,17.628 0.441,19.175 -0.173,0.145 -0.441,-0.09 -0.661,-0.141"
       id="path1399" /><path
       style="fill:none;stroke:#00ffff;stroke-width:0.499999"
       d="m 16058.189,32235.399 c -1.52,-4.974 2.187,-3.69 5.723,-4.865 0.254,-0.08 6.075,-1.802 5.596,-3.309 -0.188,-0.591 0.646,1.058 0.975,1.584 1.706,2.729 3.234,5.516 4.747,8.343 0.846,1.58 -1.285,-5.498 0.44,-4.779 1.49,0.62 2.377,2.498 3.365,3.648 1.036,1.207 -1.028,-0.988 -0.975,-1.499 0.138,-1.321 4.944,-3.998 6.1,-4.553 0.647,-0.311 2.422,-0.964 1.76,-1.245 -3.586,-1.523 -9.314,9.309 -2.201,10.38 1.414,0.213 2.892,0.02 4.276,-0.339 1.371,-0.353 2.756,-0.878 3.868,-1.754 0.979,-0.772 1.467,-2.017 2.2,-3.026"
       id="path1401" /><path
       style="fill:none;stroke:#00ffff;stroke-width:0.499999"
       d="m 16111.733,32222.361 c -0.251,0.858 -0.874,1.687 -0.754,2.573 0.06,0.462 7.754,18.651 1.635,11.936"
       id="path1403" /><path
       style="fill:none;stroke:#00ffff;stroke-width:0.499999"
       d="m 16109.312,32227.65 c -0.471,-1.509 -1.083,-2.98 -1.414,-4.526 -1.735,-8.086 6.847,-6.386 9.306,-0.481 1.173,2.817 1.362,6.904 -1.006,9.221 -0.748,0.731 -2.398,1.097 -1.761,-1.103 0.39,-1.344 1.384,-2.433 2.075,-3.649"
       id="path1405" /><path
       style="fill:none;stroke:#00ffff;stroke-width:0.499999"
       d="m 16121.574,32222.757 c 0.991,-0.897 -0.655,6.725 1.541,6.08 1.594,-0.467 3.202,-2.891 3.962,-4.016 0.433,-0.641 1.249,-2.827 1.006,-2.093 -0.212,0.639 -1.299,5.914 0.471,5.798 0.609,-0.04 0.944,-0.773 1.415,-1.159"
       id="path1407" /><path
       style="fill:none;stroke:#00ffff;stroke-width:0.499999"
       d="m 16131.919,32221.54 c -0.262,1.132 -0.916,2.24 -0.786,3.394 0.09,0.785 0.786,1.407 1.383,1.924 2.272,1.967 4.716,0.325 6.194,-1.754 1.9,-2.671 0.793,-5.062 -0.22,-7.749"
       id="path1409" /><path
       style="fill:none;stroke:#00ffff;stroke-width:0.499999"
       d="m 16137.892,32213.084 c 3.55,1.227 3.571,11.154 6.446,12.303 0.457,0.183 0.901,-0.396 1.352,-0.594"
       id="path1411" /><path
       style="fill:none;stroke:#00ffff;stroke-width:0.499999"
       d="m 16148.362,32217.468 c -8.93,2.583 -1.456,8.498 3.93,5.204 1.939,-1.235 3.825,-2.557 5.817,-3.705 1.015,-0.585 3.815,-1.003 4.15,-2.546 0.934,-4.297 -8.013,-2.597 -6.634,4.469 0.931,4.766 6.306,5.192 9.244,2.008 0.547,-0.593 0.524,-1.527 0.786,-2.291"
       id="path1413" /><path
       style="fill:none;stroke:#00ffff;stroke-width:0.499999"
       d="m 16165.278,32209.153 c -0.262,-1.122 -0.524,-2.244 -0.787,-3.366 -0.08,-0.236 -0.1,-0.905 -0.251,-0.707 -0.855,1.11 0.991,2.673 1.038,4.073 0.06,1.846 -0.737,3.64 -0.787,5.487 -0.04,1.452 0.524,5.363 0.661,7.353"
       id="path1415" /><path
       style="fill:none;stroke:#00ffff;stroke-width:0.499999"
       d="m 16161.222,32219.759 c -0.346,-0.792 -1.318,-1.558 -1.038,-2.376 0.707,-2.068 10.305,-6.084 12.136,-4.921"
       id="path1417" /><path
       style="fill:none;stroke:#00ff00;stroke-width:0.499999"
       d="m 15660.424,32381.019 c 0.853,-0.743 5.401,-18.055 6.647,-9.411"
       id="path1419" /><path
       style="fill:none;stroke:#00ff00;stroke-width:0.499999"
       d="m 15703.217,32269.82 c 4.203,13.359 1.755,5.03 4.955,17.089 0.499,1.878 0.94,3.774 1.534,5.625 0.144,0.447 0.432,1.643 0.669,1.238 0.797,-1.364 1.182,-16.748 1.888,-16.699 2.193,0.152 4.248,23.971 8.023,9.729 0.47,-1.771 0.68,-3.604 1.141,-5.377 0.3,-1.156 0.378,-2.478 1.14,-3.397 0.03,-0.03 1.875,1.384 3.973,2.548 2.627,1.456 5.673,0.625 7.669,-1.522 1.99,-2.139 1.171,-8.4 -2.871,-7.04 -10.908,3.67 -8.496,24.179 4.641,20.626 5.134,-1.388 5.09,-1.527 6.569,-3.892"
       id="path1484" /><path
       style="fill:none;stroke:#00ff00;stroke-width:0.499999"
       d="m 15769.844,32273.606 c 0,6.231 -0.66,3.938 2.163,9.835 0.774,1.618 1.665,3.178 2.478,4.777 5.413,10.652 -7.924,-1.673 -0.158,-7.359 2.111,-1.546 11.963,-2.543 9.872,2.158 m 0,0 c 2.176,-0.07 4.355,-0.09 6.529,-0.212 10.259,-0.559 -0.145,-6.688 -1.022,-2.194 -0.361,1.847 -0.107,3.835 0.472,5.625 0.5,1.549 4.394,6.842 6.607,4.14"
       id="path1486" /><path
       style="fill:none;stroke:#00ff00;stroke-width:0.499999"
       d="m 15798.713,32280.823 c 2.17,4.008 4.162,7.25 5.742,11.428 0.355,0.938 0.809,3.542 -0.04,3.007 -2.725,-1.718 -6.21,-7.921 -6.726,-9.977 -0.371,-1.479 1.051,-2.933 1.023,-4.458 -0.112,-6.047 -4.802,-10.207 4.247,-11.392 5.401,-0.708 5.117,17.301 1.928,16.912 -3.077,-0.376 -1.546,-5.056 -0.984,-5.98 0.767,-1.26 15.7,4.107 13.491,-3.29 -0.303,-1.015 -0.604,-2.1 -1.298,-2.901 -0.272,-0.314 -2.217,0.07 -2.478,3.219 -0.321,3.884 -0.786,8.98 2.911,11.64 4.609,3.317 8.055,-13.459 5.939,-13.586 -1.982,-0.118 -2.057,9.79 1.534,9.235 2.893,-0.448 3.245,-2.145 3.697,-4.281 0.122,-0.579 0.301,-2.331 0.118,-1.769 -1.009,3.086 1.243,13.498 5.939,12.029"
       id="path1488" /><path
       style="fill:none;stroke:#00ff00;stroke-width:0.499999"
       d="m 15834.74,32283.972 c -0.21,-1.002 0.373,-3.217 -0.629,-3.007 -1.003,0.21 0.342,2.024 0.629,3.007 0.24,0.823 4.634,10.505 3.264,12.631 -0.279,0.434 -0.97,0.353 -1.455,0.53"
       id="path1490" /><path
       style="fill:none;stroke:#00ff00;stroke-width:0.499999"
       d="m 15830.374,32294.657 c 3.87,-2.325 7.967,-4.569 12.114,-6.227"
       id="path1492" /><path
       style="fill:none;stroke:#00ff00;stroke-width:0.499999"
       d="m 15871.711,32277.568 c -3.583,3.686 3.027,13.31 1.731,17.195 -0.261,0.783 -1.374,-0.921 -2.006,-1.451 -5.851,-11.845 -1.174,-7.21 4.602,-12.878 0.343,-0.337 0.336,-2.552 1.062,-2.37 2.997,0.749 4.943,9.331 5.781,11.71 0.672,1.907 0.839,2.642 0.944,2.442 1.643,-3.129 0.578,-15.293 5.821,-5.52 0.59,1.1 1.102,2.241 1.652,3.361 -0.307,-5.42 1.183,-9.774 3.383,-14.576 0,0 2.14,-3.912 2.202,-4.6 0.02,-0.197 -0.422,-0.03 -0.59,0.07 -1.673,1.044 -3.377,2.433 -4.287,4.246 -1.008,2.01 1.412,2.665 2.832,3.219 3.051,1.19 17.345,3.716 17.345,7.89 0,5.264 -11.457,7.572 -15.85,2.901"
       id="path1494" /><path
       style="fill:none;stroke:#00ff00;stroke-width:0.499999"
       d="m 15940.148,32276.224 c -4.181,-7.159 -0.89,-6.964 0,0 0.259,2.03 -0.805,4.038 -0.826,6.085 -0.04,3.804 1.326,7.646 0.668,11.393 -0.03,0.156 -0.414,0.08 -0.472,-0.07 -0.969,-2.477 -1.678,-5.048 -2.517,-7.572 -0.616,-1.851 -1.172,-3.724 -1.849,-5.554 -1.347,-3.648 -6.891,-11.989 -1.612,-15.249 5.594,-3.454 13.729,8.104 12.35,14.117 -0.318,1.386 -1.058,3.846 -2.439,3.502 -0.474,-0.118 -0.569,-0.8 -0.786,-1.238 -0.885,-1.782 -1.678,-3.609 -2.517,-5.413 z"
       id="path1496" /><path
       style="fill:none;stroke:#00ff00;stroke-width:0.499999"
       d="m 15943.412,32272.65 c 0.393,-1.391 0.725,-2.802 1.18,-4.174 0.215,-0.649 0.343,-1.393 0.826,-1.876 1.35,-1.349 7.927,8.809 8.535,9.801 0.492,0.803 1.724,3.075 0.865,2.689 -2.436,-1.096 -4.704,-6.841 -1.849,-7.183 3.718,-0.444 6.521,0.786 8.889,3.255 0.834,0.87 2.402,2.498 1.495,3.291 -3.151,2.753 -9.561,-9.16 -7.788,-9.73 3.978,-1.278 6.936,6.226 11.288,4.741"
       id="path1498" /><path
       style="fill:none;stroke:#00ff00;stroke-width:0.499999"
       d="m 15971.416,32266.636 c -6.016,5.243 10.182,23.597 9.754,13.197"
       id="path1500" /><path
       style="fill:none;stroke:#00ff00;stroke-width:0.499999"
       d="m 15982.232,32272.12 c 1.455,0.129 2.913,0.542 4.366,0.389 0.843,-0.09 7.997,-3.535 4.523,-5.272 -4.114,-2.055 -8.099,9.307 -3.068,12.065 0.759,0.416 1.814,0.478 2.596,0.106 1.797,-0.856 3.172,-2.406 4.759,-3.609"
       id="path1502" /><path
       style="fill:none;stroke:#00ff00;stroke-width:0.499999"
       d="m 15998.594,32265.221 c -15.312,5.436 7.962,4.444 8.338,9.446 0.154,2.043 -6.201,13.113 -4.995,2.264"
       id="path1504" /><path
       style="fill:none;stroke:#00ff00;stroke-width:0.499999"
       d="m 16008.23,32264.69 c 1.075,0.967 2.152,1.932 3.225,2.901 2.879,2.6 7.435,4.5 8.142,8.314 0.841,4.544 -8.595,8.715 -12.075,8.456 -0.645,-0.05 -0.997,-0.825 -1.495,-1.238"
       id="path1506" /><path
       style="fill:none;stroke:#00ff00;stroke-width:0.499999"
       d="m 16043.864,32279.726 c 5.103,-2.906 4.229,-1.667 7.709,-6.934 0.205,-0.311 3.174,-4.594 2.556,-6.262 -0.977,-2.639 -5.614,-1.579 -7.512,-1.345 -0.384,0.05 -1.391,-0.08 -1.141,0.213 0.383,0.45 27.328,6.854 19.941,12.064 -5.196,3.666 -31.416,6.95 -24.542,-6.368"
       id="path1508" /><path
       style="fill:none;stroke:#00ff00;stroke-width:0.499999"
       d="m 16080.874,32261.966 c 0.656,-0.922 3.359,-4.968 1.141,-5.803 -3.884,-1.462 -3.893,13.759 -1.259,13.02 -6.691,6.202 1.726,10.358 0.669,16.381"
       id="path1510" /><path
       style="fill:none;stroke:#00ff00;stroke-width:0.499999"
       d="m 16085.044,32271.094 c 1.245,-0.165 2.726,-1.243 3.736,-0.496 1.559,1.155 2.337,7.112 2.124,9.128 -0.02,0.178 -0.1,-0.352 -0.08,-0.53 0.153,-1.491 0.222,-3.005 0.59,-4.458 0.476,-1.878 0.811,-3.9 1.927,-5.484 3.294,-4.672 3.92,8.287 3.973,8.845"
       id="path1512" /><path
       style="fill:none;stroke:#00ff00;stroke-width:0.499999"
       d="m 16100.658,32270.917 c -2.87,6.117 11.049,11.229 9.872,3.467"
       id="path1514" /><path
       style="fill:none;stroke:#00ff00;stroke-width:0.499999"
       d="m 16110.294,32261.046 c 3.911,7.839 0.672,1.123 4.13,8.916 1.772,3.991 1.96,3.946 3.186,7.323 0.11,0.304 -0.295,-0.577 -0.394,-0.884 -0.151,-0.473 -2.033,-5.651 -1.258,-6.263 2.52,-1.988 8.159,-1.104 10.895,-1.981 3.181,-1.02 2.799,-5.749 -0.59,-4.245 -6.032,2.675 -8.278,13.119 -1.377,10.437 1.818,-0.707 3.304,-2.076 4.956,-3.114"
       id="path1516" /><path
       style="fill:none;stroke:#00ff00;stroke-width:0.499999"
       d="m 16133.421,32264.478 c -0.97,1.167 -2.509,2.038 -2.911,3.502 -1.514,5.521 6.485,-1.064 7.001,-0.07 1.077,2.07 0.733,4.942 3.147,6.085"
       id="path1518" /><path
       style="fill:none;stroke:#00ff00;stroke-width:0.499999"
       d="m 16144.591,32264.265 c -0.08,1.062 -0.735,2.245 -0.236,3.185 1.426,2.684 4.986,3.762 6.49,6.403 1.66,2.917 -1.201,6.658 -4.445,5.909 -0.75,-0.174 -1.472,-0.653 -1.927,-1.274 -4.075,-5.554 8.953,-7.512 11.603,-9.8 1.305,-1.128 3.319,-4.669 1.612,-4.918 -2.195,-0.32 -11.681,2.496 -10.305,7.182 1.759,5.988 12.494,3.756 15.615,0.566"
       id="path1520" /><path
       style="fill:none;stroke:#00ff00;stroke-width:0.499999"
       d="m 15717.494,32307.818 c -0.648,6.73 -0.08,13.466 0,20.202 0.02,1.533 0.02,3.067 0,4.599 0,0.273 0.02,1.068 -0.08,0.814 -0.998,-2.543 -1.399,-5.281 -2.084,-7.925"
       id="path1530" /><path
       style="fill:none;stroke:#00ff00;stroke-width:0.499999"
       d="m 15709.47,32306.969 c -0.223,-1.274 -1.036,-2.581 -0.668,-3.821 0.689,-2.327 22.873,-2.518 25.132,2.901 2.045,2.229 4.546,4.113 6.136,6.687 2.96,4.792 3.899,13.292 4.13,18.822 0.155,3.737 0.64,3.261 -1.731,3.149"
       id="path1532" /><path
       style="fill:none;stroke:#00ff00;stroke-width:0.499999"
       d="m 15730.906,32310.401 c 0.01,-1.227 -0.79,-2.775 0.04,-3.68 2.809,-3.064 18.098,1.266 21.357,3.22"
       id="path1534" /><path
       style="fill:none;stroke:#00ff00;stroke-width:0.499999"
       d="m 15759.263,32309.269 c 2.034,6.617 1.64,13.518 1.023,20.308 -0.286,3.151 -1.042,6.188 -0.118,6.439 1.719,0.466 13.471,-6.77 16.283,-7.961"
       id="path1536" /><path
       style="fill:none;stroke:#00ff00;stroke-width:0.499999"
       d="m 15805.714,32324.093 c 3.054,1.491 6.499,2.261 9.636,0.389 4.81,-2.87 -0.632,-11.609 -4.563,-7.536 -1.013,1.05 -1.633,2.419 -2.478,3.609 -0.846,1.193 -2.514,2.077 -2.595,3.538 -0.124,2.204 1.142,4.283 2.045,6.298 2.502,5.584 7.347,5.087 11.799,2.441"
       id="path1538" /><path
       style="fill:none;stroke:#00ff00;stroke-width:0.499999"
       d="m 15825.536,32323.067 c -3.116,-1.572 -5.395,2.542 -2.871,4.21 2.246,1.484 12.52,-0.769 11.603,-4.069 -0.19,-0.684 -1.159,0.952 -1.377,1.628 -0.643,1.998 -1.078,4.326 -0.08,6.333 1.651,3.316 3.528,0.644 4.837,-0.955"
       id="path1540" /><path
       style="fill:none;stroke:#00ff00;stroke-width:0.499999"
       d="m 15839.538,32322.748 c 0.263,1.51 0.03,3.196 0.787,4.529 1.794,3.168 7.253,0.408 8.299,-1.769 1.003,-2.087 0.389,-4.235 -0.118,-6.333"
       id="path1542" /><path
       style="fill:none;stroke:#00ff00;stroke-width:0.499999"
       d="m 15850.197,32312.665 c 3.986,4.098 4.645,9.697 6.49,14.86 0.41,1.147 1.429,4.4 1.73,3.219 0.384,-1.5 0.368,-7.159 2.164,-9.022 2.061,-2.137 8.125,9.885 9.046,11.817"
       id="path1544" /><path
       style="fill:none;stroke:#00ff00;stroke-width:0.499999"
       d="m 15896.805,32308.526 c -3.328,5.126 -1.153,11.593 0.432,17.017 0.387,1.324 0.981,2.578 1.495,3.857 0.102,0.254 0.582,0.894 0.354,0.743 -0.461,-0.305 -0.734,-0.826 -1.101,-1.238"
       id="path1546" /><path
       style="fill:none;stroke:#00ff00;stroke-width:0.499999"
       d="m 15889.882,32323.138 c 3.249,-6.577 9.031,-1.331 14.277,-2.618 -1.497,-0.461 -0.918,-18.888 3.619,-15.249 3.08,2.47 3.548,8.213 4.051,11.746 0.109,0.762 0.163,1.531 0.197,2.3 0,0.12 -0.07,0.474 -0.08,0.353 -0.06,-0.977 -0.164,-1.961 -0.08,-2.936 0.218,-2.489 0.433,-4.993 0.984,-7.43 0.836,-3.699 5.053,2.676 5.506,3.432 0.42,0.702 0.493,2.741 1.101,2.194 0.503,-0.452 -0.312,-2.617 0.158,-3.397 0.255,-0.424 2.722,2.121 2.871,2.229 1.468,1.064 3.348,2.08 4.995,2.83 3.409,1.555 11.307,-5.5 7.276,-6.545 -7.55,-1.958 -11.188,12.348 -1.888,13.692 5.77,0.834 13.589,-0.144 18.761,-3.007"
       id="path1548" /><path
       style="fill:none;stroke:#00ff00;stroke-width:0.499999"
       d="m 16005.197,32341.719 c 0.953,2.119 12.079,16.252 4.719,5.909"
       id="path1818" /><path
       style="fill:none;stroke:#00ff00;stroke-width:0.499999"
       d="m 15745.191,32474.159 c -5.16,13.721 8.268,-2.086 10.541,-4.211"
       id="path1820" /><path
       style="fill:none;stroke:#ffff00;stroke-width:0.499999"
       d="m 15743.028,32367.63 c 1.276,5.031 2.854,10.007 4.602,14.895 0.402,1.123 1.722,4.243 1.77,4.245 0.73,0.03 0.775,-9.989 1.298,-10.225 1.245,-0.56 6.925,22.6 10.619,10.296 0.856,-2.849 1.366,-5.791 1.967,-8.704 0.404,-1.961 0.489,-3.236 0.904,-5.024"
       id="path1822" /><path
       style="fill:none;stroke:#ffff00;stroke-width:0.499999"
       d="m 15772.645,32368.16 c 0.458,1.899 1.105,3.762 1.376,5.696 0.269,1.917 0.192,3.868 0.236,5.803 0.03,1.485 -0.03,2.972 0,4.458 0.118,6.233 1.053,-8.138 4.091,-8.138 3.836,0 4.853,10.37 6.529,12.631 1.44,1.943 -2.692,-6.935 -1.259,-6.439 2.204,0.762 10.48,3.753 11.406,-0.283 0.3,-1.306 0.402,-4.534 -0.983,-5.803 -3.174,-2.904 -4.228,10.583 2.124,13.586 0.669,0.317 1.386,-0.71 1.77,-1.344 2.303,-3.81 3.134,-9.283 2.045,-13.621 -0.114,-0.453 0.199,0.919 0.393,1.344 1.354,2.962 3.269,6.06 5.31,8.597 1.076,1.338 -0.09,-7.123 3.579,-6.297 2.537,0.57 7.608,4.838 6.686,7.43"
       id="path1887" /><path
       style="fill:none;stroke:#ffff00;stroke-width:0.499999"
       d="m 15844.699,32371.38 c -1.894,4.564 4.802,13.224 3.225,17.478"
       id="path1889" /><path
       style="fill:none;stroke:#ffff00;stroke-width:0.499999"
       d="m 15840.806,32384.541 c -1.383,-9.38 1.515,-5.317 6.528,-10.578 0.87,-0.913 1.26,-1.481 1.731,-2.583 0.14,-0.327 0.164,-1.132 0.472,-0.955 2.318,1.326 3.899,5.313 5.231,7.465 0.576,0.929 1.501,3.66 1.927,2.653 0.501,-1.183 0.195,-2.941 0.59,-4.21 1.206,-3.875 5.744,2.547 7.395,2.264 3.537,-0.606 5.229,-9.375 3.185,-7.429 -4.266,4.061 -8.654,13.794 -0.944,16.947 3.334,1.363 14.64,-0.482 13.963,-5.555"
       id="path1891" /><path
       style="fill:none;stroke:#ffff00;stroke-width:0.499999"
       d="m 15911.68,32373.856 c 2.182,-0.621 4.514,12.331 6.018,13.268 0.08,0.05 -0.395,-4.698 -0.433,-5.095 -0.142,-1.498 -0.531,-4.431 -0.393,-6.121 0.198,-2.417 4.181,1.686 5.506,1.593 2.304,-0.163 2.141,-4.164 4.17,-4.529 1.646,-0.296 5.592,10.654 6.45,8.031"
       id="path1893" /><path
       style="fill:none;stroke:#ffff00;stroke-width:0.499999"
       d="m 15935.2,32376.262 c 0.328,-1.038 2.021,-2.785 0.984,-3.113 -1.038,-0.328 -1.054,2.027 -0.984,3.113 0.134,2.057 0.732,4.098 1.574,5.979 0.958,2.143 3.271,-4.439 4.995,-9.446 0.793,-2.306 1.204,-4.218 1.376,-4.21 0.77,0.04 0.864,11.175 4.209,13.055 6.596,-3.703 7.097,-3.849 6.371,-9.942"
       id="path1895" /><path
       style="fill:none;stroke:#ffff00;stroke-width:0.499999"
       d="m 15953.057,32365.259 c 1.714,-18.291 6.764,5.638 7.473,9.199 0.04,0.197 0.02,-0.402 0.04,-0.602 0.238,-2.508 0.502,-7.58 1.691,-9.977 2.224,-4.481 7.238,6.845 8.338,8.633"
       id="path1897" /><path
       style="fill:none;stroke:#ffff00;stroke-width:0.499999"
       d="m 16007.137,32363.561 c 1.393,1.646 11.479,16.02 5.349,16.062 -2.262,0.02 -10.209,-3.033 -8.377,-6.474 1.901,-3.572 12.076,1.871 16.637,-1.309 1.981,-1.382 4.139,-5.559 1.966,-5.307 -8.613,1 -7.995,13.888 -0.472,10.295 2.078,-0.992 3.435,-3.066 5.153,-4.599"
       id="path1899" /><path
       style="fill:none;stroke:#ffff00;stroke-width:0.499999"
       d="m 16030.028,32365.436 c -13.043,-0.06 8.837,8.31 7.827,14.258 -0.874,5.144 -11.634,5.366 -10.344,-0.389 0.479,-2.141 1.783,-4.01 2.674,-6.015"
       id="path1901" /><path
       style="fill:none;stroke:#ffff00;stroke-width:0.499999"
       d="m 16035.573,32366.639 c 3.129,-3.845 2.455,-2.737 4.917,-6.793 0.338,-0.557 0.917,-2.385 0.905,-1.734 -0.149,7.999 -0.327,15.444 2.241,23.28"
       id="path1903" /><path
       style="fill:none;stroke:#ffff00;stroke-width:0.499999"
       d="m 16037.029,32372.406 c 3.459,-2.838 9.783,0.688 13.136,-0.389 0.588,-0.189 -0.409,-1.168 -0.55,-1.769 -0.181,-0.769 -0.32,-1.549 -0.394,-2.335 -0.339,-3.62 -1.08,-11.159 1.534,-14.294 1.948,-2.336 3.697,14.684 3.697,15.567 0,5.955 -0.742,-6.185 1.298,-8.137 1.635,-1.564 4.785,6.384 6.293,7.996"
       id="path1905" /><path
       style="fill:none;stroke:#ffff00;stroke-width:0.499999"
       d="m 16065.072,32361.969 c -0.408,2.684 -1.812,4.344 0.983,5.696 2.998,1.45 5.939,-2.536 5.939,-5.165 0,-0.173 -0.424,0.05 -0.472,0.212 -0.351,1.22 -0.577,2.484 -0.668,3.75 -0.178,2.468 -0.737,11.055 3.303,11.782"
       id="path1907" /><path
       style="fill:none;stroke:#ffff00;stroke-width:0.499999"
       d="m 16075.652,32363.915 c -2.473,4.671 1.322,9.133 0.393,13.727"
       id="path1909" /><path
       style="fill:none;stroke:#ffff00;stroke-width:0.499999"
       d="m 16068.1,32375.272 c 4.084,-2.981 11.426,-5.686 15.418,-1.168"
       id="path1911" /><path
       style="fill:none;stroke:#ffff00;stroke-width:0.499999"
       d="m 16082.535,32365.648 c -0.702,-2.126 -3.396,-8.128 -0.236,-10.083"
       id="path1913" /><path
       style="fill:none;stroke:#ffff00;stroke-width:0.499999"
       d="m 16090.283,32363.985 c 4.678,-1.638 2.445,6.295 1.534,4.741 -0.84,-1.432 -0.677,-3.318 -1.534,-4.741 -1.213,-2.013 -3.648,-3.211 -4.562,-5.377 -0.278,-0.658 1.43,-0.782 2.084,-0.496 2.968,1.299 2.335,3.343 2.478,5.873 z"
       id="path1915" /><path
       style="fill:none;stroke:#ffff00;stroke-width:0.499999"
       d="m 16092.328,32356.025 c 3.972,2.186 1.521,12.824 4.13,15.426 0.638,0.636 0.491,-1.735 0.669,-2.619 0.387,-1.925 0.631,-3.877 1.022,-5.802 0.291,-1.429 0.268,-5.039 1.416,-4.139 1.96,1.535 1.826,11.125 7.277,11.321"
       id="path1917" /><path
       style="fill:none;stroke:#ffff00;stroke-width:0.499999"
       d="m 16120.851,32349.457 c 2.198,1.84 8.435,24.424 5.939,24.377 -1.67,-0.03 -3.905,-12.916 -0.944,-14.683 2.196,-1.31 8.326,1.362 10.738,1.628 1.746,0.192 5.864,0.234 5.27,-2.795 -0.07,-0.382 -0.308,-0.81 -0.668,-0.956 -3.361,-1.363 -11.442,11.556 -1.062,9.659 2.002,-0.366 3.724,-1.681 5.427,-2.795 1.152,-0.753 2.046,-1.84 3.068,-2.76 1.707,1.304 13.147,4.194 12.665,9.128 -0.336,3.444 -4.887,6.872 -8.299,6.298 -7.288,-1.227 1.563,-14.254 3.186,-16.664 1.02,-1.516 3.15,-4.469 4.523,-6.262 0.229,-0.3 0.517,-1.211 0.708,-0.885 0.736,1.261 2.185,17.148 2.478,19.707 0.112,0.984 0.785,3.624 0.04,2.972 -0.731,-0.639 -1.893,-2.701 -2.36,-3.468"
       id="path1919" /><path
       style="fill:none;stroke:#ffff00;stroke-width:0.499999"
       d="m 16157.626,32361.805 c -0.03,-2.607 -0.88,-5.339 -0.08,-7.819 3.502,-10.837 11.614,0.82 12.114,6.58 0.761,8.759 -4.582,12.186 -6.411,0.673"
       id="path1921" /><path
       style="fill:none;stroke:#ffff00;stroke-width:0.499999"
       d="m 16171.038,32358.514 c 1.822,1.439 3.819,2.681 5.467,4.317 0.558,0.553 0.979,1.338 1.023,2.122 0.279,5.078 -14.069,-3.182 -6.49,-6.439 3.169,-1.361 8.714,0.344 10.895,3.184 0.496,0.647 0.288,1.604 0.432,2.406"
       id="path1923" /><path
       style="fill:none;stroke:#ffff00;stroke-width:0.499999"
       d="m 16181.146,32353.703 c 1.324,1.226 2.904,2.224 3.972,3.679 0.914,1.244 1.31,2.799 1.849,4.246 3.749,10.066 -3.26,-0.929 2.006,-3.184 2.321,-0.995 6.714,9.769 4.366,8.278"
       id="path1925" /><path
       style="fill:none;stroke:#ffff00;stroke-width:0.499999"
       d="m 16195.148,32357.842 c 0.642,2.276 1.129,4.602 1.927,6.828 0.781,2.179 6.703,12.913 -2.281,9.73 -2.248,-0.797 -4.52,-2.174 -5.742,-4.316 -0.272,-0.477 -0.491,-1.143 -0.236,-1.628 1.116,-2.124 25.154,-3.894 23.284,-8.739 -2.158,-5.59 -18.68,1.613 -14.238,7.607 1.19,1.606 2.777,3.137 4.68,3.75 6.602,2.126 13.28,0.86 18.053,-3.856"
       id="path1927" /><path
       style="fill:none;stroke:#ffff00;stroke-width:0.499999"
       d="m 16222.2,32374.166 c -2.729,4.131 -4.206,8.869 -6.34,13.285"
       id="path1929" /><path
       style="fill:none;stroke:#ffff00;stroke-width:0.499999"
       d="m 15768.565,32405.932 c -5.339,-0.363 0.896,-3.76 0.917,-2.702 0.02,0.951 -0.726,1.771 -0.917,2.702 -0.266,1.291 -0.167,2.64 -0.445,3.928 -0.1,0.453 -0.574,0.735 -0.779,1.151 0.491,4.808 0.538,9.555 1.891,14.209 0.278,0.957 0.603,1.902 0.973,2.827 0.123,0.306 0.337,1.136 0.501,0.851 0.474,-0.821 0.408,-1.851 0.612,-2.777"
       id="path1931" /><path
       style="fill:none;stroke:#ffff00;stroke-width:0.499999"
       d="m 15776.046,32414.463 c 0.51,-0.917 2.447,-2.242 1.53,-2.752 -0.918,-0.51 -1.695,1.716 -1.53,2.752 0.367,2.302 2.32,4.092 2.976,6.33 0.299,1.02 1.092,7.687 -1.252,5.578"
       id="path1933" /><path
       style="fill:none;stroke:#ffff00;stroke-width:0.499999"
       d="m 15773.932,32421.668 c 3.191,-1.393 6.811,-1.309 10.207,-0.85"
       id="path1935" /><path
       style="fill:none;stroke:#ffff00;stroke-width:0.499999"
       d="m 15817.707,32419.216 c -5.259,-1.468 -2.777,7.554 0.39,8.106 3.73,0.651 10.574,-1.447 10.79,-6.329 0.113,-2.547 -1.145,-3.928 -2.391,-5.804 -4.61,4.098 11.173,7.998 10.485,10.582 -0.918,3.442 -8.166,4.263 -10.068,-0.275 -0.599,-1.428 2.838,-2.708 3.059,-2.752 3.743,-0.743 8.102,0.449 11.18,-2.502 2.641,-2.531 1.553,-9.206 -3.087,-3.352 -0.756,0.953 -4.362,6.148 -0.806,7.004 2.495,0.601 5.625,-2.748 6.841,-3.652"
       id="path1937" /><path
       style="fill:none;stroke:#ffff00;stroke-width:0.499999"
       d="m 15846.492,32414.213 c -0.783,3.909 -1.274,2.509 2.336,6.004 0.04,0.04 5.692,4.731 6.146,5.479 1.794,2.952 -9.52,9.055 -12.626,1.976"
       id="path1939" /><path
       style="fill:none;stroke:#ffff00;stroke-width:0.499999"
       d="m 15878.558,32412.011 c -1.214,4.995 -1.328,3.324 -0.305,8.807 0.205,1.1 0.531,2.174 0.834,3.252 0.08,0.275 0.46,1.041 0.306,0.8 -0.89,-1.382 -1.471,-2.941 -2.225,-4.403"
       id="path1941" /><path
       style="fill:none;stroke:#ffff00;stroke-width:0.499999"
       d="m 15872.134,32412.837 c 0.518,-1.484 -3.743,-1.273 -3.588,-2.777 0.178,-1.721 19.323,-2.248 16.687,3.002"
       id="path1943" /><path
       style="fill:none;stroke:#ffff00;stroke-width:0.499999"
       d="m 15878.28,32420.442 c 2.338,3.612 -4.994,2.852 -5.228,5.329 -0.04,0.424 0.841,-0.138 1.251,-0.25 1.028,-0.281 2.032,-0.645 3.06,-0.926 3.941,-1.078 7.905,-1.913 11.736,-3.352"
       id="path1945" /><path
       style="fill:none;stroke:#ffff00;stroke-width:0.499999"
       d="m 15894.773,32412.162 c -0.06,-0.743 0.575,-2.283 -0.167,-2.227 -0.743,0.06 0.409,1.523 0.167,2.227 -1.821,5.274 -4.85,5.523 -2.17,10.882 2.342,4.681 11.75,4.557 12.154,-1.076 1.214,-2.043 2.833,-3.895 3.643,-6.129 0.778,-2.144 0.192,-4.56 0.417,-6.83 0.03,-0.286 -0.02,-1.086 0.139,-0.85 0.97,1.387 0.817,3.285 1.224,4.928 0.726,2.935 1.335,6.817 3.115,9.406 0.347,0.505 0.461,-1.163 0.473,-1.776 0.09,-5.001 -0.349,-2.949 0.139,-7.705 0.173,-1.689 0.57,-2.06 0.723,-1.926 3.45,3.025 7.62,8.997 7.62,13.734"
       id="path1947" /><path
       style="fill:none;stroke:#ffff00;stroke-width:0.499999"
       d="m 15923.224,32412.086 c 2.281,2.505 7.21,11.035 6.897,14.36 -0.04,0.419 -0.816,-0.2 -1.224,-0.3"
       id="path1949" /><path
       style="fill:none;stroke:#ffff00;stroke-width:0.499999"
       d="m 15923.919,32416.715 c -0.223,-0.959 -0.576,-1.897 -0.668,-2.877 -0.159,-1.703 -0.448,-3.459 -0.08,-5.129 0.622,-2.845 2.467,-3.022 4.478,-1.401 2.151,1.735 3.626,4.946 4.004,7.605 0.29,2.033 0.07,6.373 -1.919,5.855 -2.285,-0.597 -3.875,-2.702 -5.812,-4.053 z"
       id="path1951" /><path
       style="fill:none;stroke:#ffff00;stroke-width:0.499999"
       d="m 15971.526,32408.905 c 2.175,4.643 1.523,-4.38 1.084,-3.402 -0.487,1.086 -0.527,2.351 -1.084,3.402 -2.929,5.527 -5.762,6.033 -4.673,12.284 1.316,7.551 10.395,4.912 13.572,0.625"
       id="path1953" /><path
       style="fill:none;stroke:#ffff00;stroke-width:0.499999"
       d="m 15982.567,32417.586 c 1.197,-5.036 3.462,4.003 1.974,4.003 -3.294,0 -1.039,-2.098 -1.974,-4.003 -0.654,-1.33 -2.411,-1.906 -3.032,-3.252 -0.758,-1.642 1.161,-3.505 2.559,-3.627 2.696,-0.236 7.064,2.773 6.897,5.779 -0.04,0.731 -0.927,1.134 -1.391,1.701"
       id="path1955" /><path
       style="fill:none;stroke:#ffff00;stroke-width:0.499999"
       d="m 15989.102,32409.831 c 3.159,1.564 2.132,0.604 4.283,3.577 0.971,1.342 3.287,4.495 3.838,6.28 0.766,2.481 -3.805,3.901 -5.312,2.527 -3.062,-2.795 3.235,-6.313 5.173,-6.78 1.636,-0.394 7.591,-0.246 7.843,-2.827 0.564,-5.781 -9.912,2.069 -3.421,6.755 2.99,2.158 10.64,0.371 12.348,-2.702"
       id="path1957" /><path
       style="fill:none;stroke:#ffff00;stroke-width:0.499999"
       d="m 16053.207,32401.2 c -5.566,-5.253 -10.387,9.039 -8.705,11.608 7.114,10.862 22.351,-4.603 16.743,-9.557 -0.96,-0.847 -2.347,-1.059 -3.588,-1.376 -1.453,-0.371 -3.018,-1.124 -4.45,-0.675 -2.109,0.661 -3.61,2.553 -5.451,3.778 -1.244,0.827 -3.921,2.066 -4.867,3.602 -0.116,0.19 0.501,0.147 0.668,0 1.843,-1.627 3.846,-3.17 5.228,-5.203 1.686,-2.479 2.72,-5.351 3.838,-8.131 0.957,-2.379 0.06,-5.677 -0.25,-5.504 -0.445,0.249 -0.593,0.917 -0.556,1.426 0.245,3.367 1.475,6.657 1.39,10.032 -0.06,2.29 -1.205,4.42 -1.807,6.63 0.148,2.576 0.312,5.152 0.445,7.73 0.153,2.966 0.06,11.682 0.973,8.856"
       id="path1959" /><path
       style="fill:none;stroke:#ffff00;stroke-width:0.499999"
       d="m 16083.55,32404.327 c -6.375,-2.474 -7.74,9.609 -0.779,9.857 5.397,0.193 9.397,-5.699 8.566,-10.732 -1.413,-8.553 -13.576,-0.22 -15.992,3.352 -0.231,0.342 -0.718,1.229 -0.306,1.201 1.945,-0.133 4.255,-4.177 4.812,-4.929"
       id="path1961" /><path
       style="fill:none;stroke:#ffff00;stroke-width:0.499999"
       d="m 16083.605,32394.37 c 0.102,-1.584 0.519,-3.18 0.306,-4.753 -0.428,-3.167 -2.774,1.193 -2.781,1.226 -0.803,4.001 -1.053,8.105 -1.196,12.183 -0.242,6.898 0.526,17.138 2.364,23.492"
       id="path1963" /></g></svg>
