<?xml version="1.0" encoding="UTF-8" standalone="no"?>
<!-- Created with Inkscape (http://www.inkscape.org/) -->

<svg
   width="398.0271mm"
   height="326.71695mm"
   viewBox="0 0 398.02709 326.71696"
   version="1.1"
   id="svg12"
   inkscape:version="1.2.1 (9c6d41e410, 2022-07-14, custom)"
   sodipodi:docname="traditional_derivatives.svg"
   xmlns:inkscape="http://www.inkscape.org/namespaces/inkscape"
   xmlns:sodipodi="http://sodipodi.sourceforge.net/DTD/sodipodi-0.dtd"
   xmlns="http://www.w3.org/2000/svg"
   xmlns:svg="http://www.w3.org/2000/svg">
  <sodipodi:namedview
     id="namedview14"
     pagecolor="#505050"
     bordercolor="#eeeeee"
     borderopacity="1"
     inkscape:showpageshadow="0"
     inkscape:pageopacity="0"
     inkscape:pagecheckerboard="0"
     inkscape:deskcolor="#505050"
     inkscape:document-units="mm"
     showgrid="true"
     inkscape:zoom="0.67358731"
     inkscape:cx="712.6025"
     inkscape:cy="856.60759"
     inkscape:window-width="1366"
     inkscape:window-height="746"
     inkscape:window-x="0"
     inkscape:window-y="0"
     inkscape:window-maximized="1"
     inkscape:current-layer="layer1"
     inkscape:lockguides="false">
    <inkscape:grid
       type="xygrid"
       id="grid344"
       color="#969696"
       opacity="0.39215686"
       empcolor="#000000"
       empopacity="0.17254902"
       dotted="false"
       originx="114.43223"
       originy="80.638161" />
  </sodipodi:namedview>
  <defs
     id="defs9" />
  <g
     inkscape:label="Layer 1"
     inkscape:groupmode="layer"
     id="layer1"
     transform="translate(9.432217,-67.861838)">
    <path
       style="fill:none;stroke:#00ffff;stroke-width:0.264999"
       d="M 4.2390078,72.918487 C 3.3166121,72.867815 2.3516476,72.4849 1.4718181,72.766471 c -0.71507883,0.228845 -1.16993197,0.962119 -1.62652342,1.55813 -1.94020018,2.532632 -2.17453898,5.780868 -1.14066898,8.721701 0.5817314,1.65473 1.1917706,2.608678 2.00673488,4.08533 0.58996522,1.068974 0.82196782,1.47137 0.61259512,1.387114 C 0.96648771,88.374892 0.73249021,88.024704 0.43675748,87.777683"
       id="path310" />
    <path
       style="fill:none;stroke:#00ffff;stroke-width:0.264999"
       d="m -5.1610019,83.901374 c 1.3015611,-0.271305 9.5468376,-0.386776 9.6323694,-1.387113"
       id="path312" />
    <path
       style="fill:none;stroke:#00ffff;stroke-width:0.264999"
       d="m 23.862862,74.039575 c -0.915519,-2.333382 0.03739,-4.137835 0,0 z"
       id="path314" />
    <path
       style="fill:none;stroke:#00ffff;stroke-width:0.264999"
       d="m 23.567124,77.250832 c -1.710063,3.068746 1.505681,4.51135 1.774386,7.049573"
       id="path316" />
    <path
       style="fill:none;stroke:#00ffff;stroke-width:0.264999"
       d="m 26.799036,78.238915 c 1.175883,0.538376 2.342081,1.098431 3.52765,1.615129 0.631637,0.275282 1.411975,0.297061 1.922246,0.760062 2.528323,2.2941 -3.417782,7.353633 -5.280899,4.560366"
       id="path318" />
    <path
       style="fill:none;stroke:#00ffff;stroke-width:0.264999"
       d="m 48.197276,76.300755 c 0.88015,0.867737 1.931094,1.591062 2.640449,2.603211 0.347597,0.495971 0.352989,1.165497 0.422479,1.767145 0.49579,4.292573 -3.924122,1.621299 -2.386981,-0.760062 0.748605,-1.159749 3.417144,1.232173 4.11911,1.653134 0.209635,0.125716 -0.286165,-0.401431 -0.380222,-0.627051 -0.351906,-0.844139 -0.269634,-1.596156 -0.12674,-2.470202 1.042799,-1.133119 1.08296,-2.77573 1.816628,-4.066324 0.576333,-1.013827 1.511541,-1.627618 2.492587,-2.204181 0.2201,-0.129353 0.842231,-0.489163 0.718203,-0.26602 -0.911832,1.640501 -3.120751,2.878028 -1.901126,5.111412 0.8689,1.591134 3.907802,2.700785 1.563146,3.591289 -0.88719,-0.126677 -1.774381,-0.253354 -2.661571,-0.380031 -0.04225,-0.057 -0.16424,-0.110777 -0.126741,-0.17101 0.623327,-1.001237 2.578093,0.639463 2.788312,0.551041 1.087304,-0.45734 1.464575,-1.849481 2.196863,-2.774222 1.049142,1.127425 2.098284,2.254849 3.147426,3.382274 0.126741,0.158345 0.551444,0.366317 0.380222,0.475036 -0.620583,0.394045 -8.282148,-3.364581 -3.527648,-3.85731 2.991695,-0.310042 3.248056,2.513662 6.632819,1.387114 1.059218,-0.352539 2.807821,-3.188694 1.626523,-4.142335 -1.945791,-1.570804 -5.530074,7.586556 -1.140681,6.099489 2.565218,-0.86906 4.223547,-5.12419 2.809446,-7.486603 -0.07491,-0.125142 -0.02475,0.298588 0.02112,0.437036 0.272946,0.823876 0.561624,1.646078 0.929441,2.432196 0.734663,1.570157 1.530387,3.116064 2.429211,4.598372 0.141791,0.233835 -0.105759,-0.537935 -0.190105,-0.798068 -0.508188,-1.567311 -1.134433,-3.252278 -0.739336,-3.306262 1.561363,-0.21334 3.771859,1.459817 5.175292,-0.228021 0.420345,-0.505527 -0.0027,-2.15566 -0.887186,-2.204175 -2.990563,-0.164027 -1.869365,6.873761 0.528085,5.795463 2.658186,-1.195568 1.171869,-5.918532 1.457527,-6.175494 0.102293,-0.09202 0.05201,0.272312 0.105619,0.39903 0.415245,0.981594 0.725514,1.805336 1.394162,2.603212 1.292474,1.542265 1.255334,-3.54787 1.753264,-3.249263 0.500865,0.300367 1.429451,4.590119 2.133486,4.180335 0.857003,-0.49882 0.576573,-3.559384 0.549207,-4.332351 -0.04663,-1.317119 -0.547835,-2.145305 -0.506964,-1.786144 0.234682,2.062278 1.773217,4.452829 1.225167,6.479526 1.059303,-2.847704 2.428873,-3.848076 4.837314,-2.223181 -0.22532,-1.127424 -0.45064,-2.254849 -0.675959,-3.382273 -0.552288,-2.497891 -0.997618,-4.385102 1.795518,-4.959403 4.516447,0.91995 -1.00381,4.545815 0.443587,5.871475 1.515659,1.388179 4.872994,-1.556955 5.428775,-2.204175 0.252751,-0.294335 0.490758,-1.205731 0.105607,-1.159093 -2.206755,0.267217 -2.572445,6.052268 0.929442,4.598372"
       id="path320" />
    <path
       style="fill:none;stroke:#00ffff;stroke-width:0.264999"
       d="m 98.809485,69.441203 c 0.597985,2.963321 1.975885,5.717453 3.084045,8.512686 0.2399,0.605116 0.4709,1.213774 0.69708,1.82415 0.0837,0.22581 0.33022,0.904091 0.23237,0.684057 -0.13901,-0.312547 -1.67628,-8.827344 0.0634,-7.429604 1.91178,1.536048 3.13639,5.467578 2.23909,7.771629 -0.43638,1.120547 -1.38542,0.633373 -1.66876,-0.209015 -0.30588,-0.909387 -0.38908,-1.890861 -0.40133,-2.850232 -0.009,-0.711968 0.22531,-1.406114 0.33796,-2.10917"
       id="path322" />
    <path
       style="fill:none;stroke:#00ffff;stroke-width:0.264999"
       d="m 104.9987,73.165502 c 2.33314,-1.617952 2.17886,-1.868769 2.34473,0.380031 0.17884,2.424701 0.2816,3.197568 1.39416,5.453444 0.0553,0.112144 3.58276,6.484563 2.59821,1.938155 0.61258,-0.836067 1.05329,-1.830781 1.83774,-2.508201 0.74752,-0.128083 1.70127,-0.149555 2.30248,-0.741062 1.73411,-1.706131 -1.42905,-3.836255 -3.59101,-2.774222 -2.39898,1.178464 1.16902,4.271388 2.00673,4.693376 0.43403,0.218639 3.89851,1.290128 4.39373,-0.076 0.14067,-0.388065 -0.21125,-0.798065 -0.31687,-1.197098"
       id="path324" />
    <path
       style="fill:none;stroke:#00ffff;stroke-width:0.264999"
       d="m 141.09897,71.797394 c -0.35205,-0.538376 -0.51779,-1.967185 -1.05617,-1.615129 -0.53837,0.352057 0.70412,1.076753 1.05617,1.615129 z"
       id="path326" />
    <path
       style="fill:none;stroke:#00ffff;stroke-width:0.264999"
       d="m 140.48638,74.723632 c 0.25577,0.476015 0.23845,8.630182 1.45755,6.802546"
       id="path328" />
    <path
       style="fill:none;stroke:#00ffff;stroke-width:0.264999"
       d="m 146.42212,76.756797 c 0.37318,-0.601717 1.72127,-1.431964 1.11956,-1.80515 -0.60172,-0.373187 -0.71556,1.223678 -1.11956,1.80515 -0.75864,1.091872 -2.11453,1.905673 -2.36585,3.211257 -0.22399,1.163608 3.15097,1.675238 3.84452,1.463119 1.43185,-0.437925 -4.19221,-1.339676 -4.24585,-1.349108 -1.01082,-0.177753 -1.61139,-0.225505 -1.58428,-0.323026 0.0917,-0.330025 7.70103,0.06013 8.80855,0.532041"
       id="path330" />
    <path
       style="fill:none;stroke:#00ffff;stroke-width:0.264999"
       d="m 22.067355,113.35374 c 0.0045,2.96001 -0.233654,6.00845 0,8.94974"
       id="path334" />
    <path
       style="fill:none;stroke:#00ffff;stroke-width:0.264999"
       d="m 25.045785,121.46741 c 1.148141,-1.67222 1.850568,-3.11474 1.161791,-5.0354"
       id="path336" />
    <path
       style="fill:none;stroke:#00ffff;stroke-width:0.264999"
       d="m 25.911851,113.10672 c 0.02297,-1.41836 0.241049,-1.75035 1.098426,-2.6222 0.957603,1.31111 2.15594,2.47658 2.87281,3.93332 0.83694,1.70074 0.467169,4.73474 0.823822,4.82639 0.347175,0.0892 0.678147,-7.47061 2.217984,-1.31111 0.141584,0.56635 0.06006,1.16615 0.10562,1.74814 0.0026,0.0331 0.109973,-2.80974 1.309664,-2.5082 1.693305,0.4256 2.044332,3.12688 2.30247,4.63638"
       id="path338" />
    <path
       style="fill:none;stroke:#00ffff;stroke-width:0.264999"
       d="m 19.110046,131.2722 c 0.197154,1.28577 0.424704,2.56725 0.591463,3.85731 0.115001,0.88966 0.164052,1.78663 0.253481,2.67922 0.419749,4.18943 0.156927,3.34288 0.823823,-0.38003 0.314166,-1.75383 1.246079,-4.65825 1.964491,-0.72207 0.173427,0.95022 0.200057,2.06245 0.401355,3.04025"
       id="path340" />
    <path
       style="fill:none;stroke:#00ffff;stroke-width:0.264999"
       d="m 24.750047,135.68055 c 1.211091,-0.15201 2.419898,-0.32346 3.633269,-0.45603 1.2079,-0.13197 1.718278,-0.0627 2.872812,-0.26602 6.352471,-1.11888 -0.955564,-2.87949 -0.295738,-4.63638 0.473937,-1.26194 3.051368,-1.94193 4.076866,-1.06408 2.000499,1.71245 -2.228464,7.51179 -1.837761,9.69078 0.06584,0.36719 0.435303,-0.61129 0.591463,-0.95008"
       id="path342" />
    <path
       style="fill:none;stroke:#00ffff;stroke-width:0.264999"
       d="m 40.719514,132.27928 c -4.197205,9.00295 7.209554,3.11815 5.787874,-1.10209 -1.019831,-3.02736 -5.011057,0.60262 -5.787874,1.10209 -6.788206,4.36468 -0.603853,0.39458 0,0 z"
       id="path344" />
    <path
       style="fill:none;stroke:#00ffff;stroke-width:0.264999"
       d="m 43.127603,126.2748 c 0.1197,-0.59538 0.954482,-1.66645 0.359101,-1.78615 -0.595382,-0.1197 -0.398312,1.18012 -0.359101,1.78615 0.117488,1.81585 0.667031,3.58355 0.823823,5.39643 0.374562,4.33086 -0.37832,8.67958 -0.190119,12.99706 0.0146,0.33508 0.140941,-0.65631 0.190119,-0.98809"
       id="path346" />
    <path
       style="fill:none;stroke:#00ffff;stroke-width:0.264999"
       d="m 56.83684,103.05492 c 0.817505,-1.01599 1.275342,-1.6586 2.048989,-2.4892 0.06751,-0.0725 0.239393,-0.30398 0.211238,-0.20901 -0.33347,1.12487 -1.792327,1.62228 -2.260227,2.69821 -0.701183,1.61236 -0.870757,3.40828 -1.225179,5.13041 -1.459042,7.08946 -2.704394,14.48261 0.528097,21.35773 1.902958,4.04735 5.587633,6.61268 9.716868,7.90463 0.09245,0.0289 -0.18085,-0.0707 -0.274613,-0.095 -0.322051,-0.0835 -0.64779,-0.15201 -0.971685,-0.22801"
       id="path348" />
    <path
       style="fill:none;stroke:#00ffff;stroke-width:0.264999"
       d="m 75.594618,103.22593 c -2.578409,-0.51924 -3.22299,0.71971 -2.682705,3.30627 0.505457,2.41983 1.051967,3.37324 2.196862,5.14941 0.251184,0.38969 1.00386,0.79736 0.739325,1.17811 -0.07313,0.10525 -0.253482,-0.038 -0.380222,-0.057"
       id="path350" />
    <path
       style="fill:none;stroke:#00ffff;stroke-width:0.264999"
       d="m 70.14472,110.73154 c 2.556418,0.10466 4.814398,-0.20233 7.245403,-0.91207"
       id="path352" />
    <path
       style="fill:none;stroke:#00ffff;stroke-width:0.264999"
       d="m 83.220243,101.99083 c 0.853231,-2.386462 3.411644,-5.706509 0,0 -0.743008,1.24279 -1.937639,2.22632 -2.471467,3.57229 -0.868484,2.18975 -0.487545,5.27561 0.67596,7.27758 0.620085,1.06694 1.574464,1.92327 2.53483,2.69823 0.86052,0.69439 7.170864,3.38541 4.224729,3.28726"
       id="path354" />
    <path
       style="fill:none;stroke:#00ffff;stroke-width:0.264999"
       d="m 94.479124,106.5322 c -0.852673,0.49195 -3.830749,1.0831 -3.147415,2.94524 0.942266,2.56774 5.783972,-0.73703 5.999128,-2.52721 0.114642,-0.95387 -2.932744,-1.37534 -2.851713,-0.41803 0.05943,0.70215 2.053989,3.88688 3.802274,3.80031 0.948288,-0.047 1.531419,-0.96822 2.070102,-1.55812"
       id="path356" />
    <path
       style="fill:none;stroke:#00ffff;stroke-width:0.264999"
       d="m 101.44993,103.09292 c -1.03744,-6.284317 1.25291,6.39077 0.84494,6.89756 -0.33402,0.41491 -3.784861,-3.312 -3.738866,-3.40128 0.367061,-0.71251 5.276536,-1.11031 6.421576,-1.67213 3.87441,-1.58273 1.60551,2.62903 2.87281,3.40127 0.43864,0.26729 1.09417,-4.45996 1.68989,-3.24925 0.18538,0.37675 1.10141,4.62142 1.39416,3.17324"
       id="path358" />
    <path
       style="fill:none;stroke:#00ffff;stroke-width:0.264999"
       d="m 110.42748,100.16668 c 0.51345,-1.137516 -0.95583,-2.586671 -0.54923,-3.800299 0.13915,-0.415338 1.11255,0.186944 2.45035,2.033164 2.27885,3.144905 3.47953,7.256705 2.91506,11.134905 -0.50784,3.48913 -2.0289,5.05964 -4.1191,7.80963 -0.0709,0.0933 -0.28139,0.3063 -0.29575,0.19001 -0.0185,-0.15007 0.18309,-0.24069 0.27463,-0.36103"
       id="path360" />
    <path
       style="fill:none;stroke:#00ffff;stroke-width:0.264999"
       d="m 124.30569,106.5322 c -2.1214,-0.48606 9.01951,-0.76904 6.25261,-0.11401"
       id="path362" />
    <path
       style="fill:none;stroke:#00ffff;stroke-width:0.264999"
       d="m 139.28233,100.47072 c 0.96836,0.78425 1.55789,-2.683069 0.59148,-2.945247 -1.81494,-0.492374 -0.16071,2.20999 -0.59148,2.945247 -2.4081,4.11022 -3.70667,-1.097095 -2.80944,4.46536 0.31807,1.97192 3.302,4.94715 3.10519,5.18741 -0.27664,0.33772 -0.87351,0.0187 -1.30967,0"
       id="path364" />
    <path
       style="fill:none;stroke:#00ffff;stroke-width:0.264999"
       d="m 134.71964,108.77439 c 1.00129,-2.27236 2.29802,-1.95517 4.2036,-2.81223"
       id="path366" />
    <path
       style="fill:none;stroke:#00ffff;stroke-width:0.264999"
       d="m 143.86618,101.5158 c 0.31685,-0.57638 1.52694,-1.41229 0.95056,-1.729148 -0.57638,-0.316854 -0.67896,1.130108 -0.95056,1.729148 -1.63776,3.6122 -1.65267,4.35899 0.80269,7.42959 0.32501,0.40646 1.75391,2.46913 2.38696,1.44412"
       id="path368" />
    <path
       style="fill:none;stroke:#00ffff;stroke-width:0.264999"
       d="m 150.28776,103.75797 c -3.64626,-1.79458 -1.5467,2.55532 -0.33799,1.91916 0.57481,-0.30254 -0.2412,-1.6251 0.33799,-1.91916 0.92432,-0.46928 2.1046,0.44206 3.10517,0.17103 1.25917,-0.3411 0.47702,-3.74654 -0.8872,-1.61514 -0.23457,0.36648 -0.46917,0.80249 -0.42248,1.2351 0.34217,3.17024 1.03249,3.7764 3.25305,2.37519"
       id="path370" />
    <path
       style="fill:none;stroke:#00ffff;stroke-width:0.264999"
       d="m 153.81541,96.271369 c 0.0845,-0.665054 -0.387,-1.797111 0.25348,-1.995159 0.66289,-0.204981 3.45554,3.322931 3.5065,3.401271 2.951,4.536239 1.98213,8.769139 -1.20404,12.883049 -0.60925,0.78664 -1.5606,1.7856 -2.66158,1.57712"
       id="path372" />
    <path
       style="fill:none;stroke:#00ffff;stroke-width:0.264999"
       d="m 98.703853,122.05646 c 0.85761,-1.05081 -3.454199,0.34854 -3.295288,-0.24702 0.518155,-1.94193 2.919095,0.27505 3.295288,0.24702 1.845517,-0.13753 3.486897,-1.34702 5.323167,-1.57714 1.90138,-0.23827 3.83032,0.12971 5.74562,0.19002 2.71077,0.0854 5.42157,0.17002 8.13259,0.24703 9.43734,0.26808 17.05873,0.3839 26.61576,0.95007 2.06238,0.12217 4.11439,0.38305 6.1681,0.60805 1.2419,0.13606 2.48709,0.25993 3.71777,0.47504 0.26248,0.0459 0.67026,0.0467 0.73932,0.30402 0.0666,0.24835 -1.57935,0.37725 -3.04181,0.57004"
       id="path374" />
    <path
       style="fill:none;stroke:#00ffff;stroke-width:0.264999"
       d="m 108.52635,121.99945 c -1.68689,-0.99049 -3.17834,-0.86633 -5.11192,-0.95007 -6.65709,-0.28833 -13.161533,0.78436 -19.792843,0.87407 -0.594302,0.008 -3.297745,0.2984 -2.61933,-0.96908"
       id="path376" />
    <path
       style="fill:none;stroke:#00ffff;stroke-width:0.264999"
       d="m 108.46296,130.18911 c 0.4084,1.58346 0.90756,3.14625 1.22519,4.75038 0.1767,0.89235 0.19719,1.80929 0.25349,2.71723 0.12112,1.95345 -0.0327,2.73716 0.0634,2.71721 0.21051,-0.0437 1.80574,-5.84604 4.03461,-5.0164 2.30795,0.85907 2.7185,6.69676 3.48541,5.71947"
       id="path378" />
    <path
       style="fill:none;stroke:#00ffff;stroke-width:0.264999"
       d="m 167.69361,96.385381 c 0.48798,1.543298 0.78239,3.138302 1.22517,4.693379 3.84358,13.49883 6.68174,21.55945 -1.03505,34.48778 -0.85445,1.43152 -1.83791,2.78395 -2.83056,4.12334 -1.01637,1.3714 -2.34507,3.2134 -2.97845,2.77422 -0.2722,-0.18874 -0.0704,-0.65872 -0.1056,-0.98807"
       id="path380" />
    <path
       style="fill:none;stroke:#00ffff;stroke-width:0.264999"
       d="m 197.2667,122.98753 c 0.59284,4.40008 -0.75477,-7.3631 -0.12675,-7.4486 3.44451,-2.51471 3.09474,-2.42086 5.66113,-2.56521 0.48938,-0.0275 -0.94578,0.25826 -1.41528,0.39904"
       id="path388" />
    <path
       style="fill:none;stroke:#00ffff;stroke-width:0.264999"
       d="m 198.00602,116.18498 c -1.23581,3.87369 7.62722,0.36785 6.06247,2.4322"
       id="path390" />
    <path
       style="fill:none;stroke:#00ffff;stroke-width:0.264999"
       d="m 198.78759,121.90444 c -0.65483,0.4497 -2.4142,0.69428 -1.96449,1.34911 0.4497,0.65483 1.18305,-1.2063 1.96449,-1.34911 2.33563,-0.42687 5.4204,0.90065 7.4989,-0.96907"
       id="path392" />
    <path
       style="fill:none;stroke:#00ffff;stroke-width:0.264999"
       d="m 209.66626,115.95696 c -0.20061,0.80579 -2.44266,10.4859 -3.46429,9.51977 -0.24783,-0.23438 -0.25347,-0.63339 -0.3802,-0.95008"
       id="path394" />
    <path
       style="fill:none;stroke:#00ffff;stroke-width:0.264999"
       d="m 205.61053,118.8642 c 3.60191,0.52027 5.18317,4.21914 8.17483,5.60544 1.60349,-2.37841 2.12418,-2.78543 1.45755,-4.95939"
       id="path396" />
    <path
       style="fill:none;stroke:#00ffff;stroke-width:0.264999"
       d="m 215.39076,115.1779 c -1.83883,-2.90449 -0.0595,-3.66073 2.55596,-4.75038 -0.0704,1.19076 -0.0309,2.39314 -0.21123,3.57228 -0.12899,0.84358 -1.07048,1.89343 -0.52809,2.86924 1.25312,2.25445 6.21869,1.35374 6.75955,3.7053 0.33567,1.45943 -3.25108,5.02602 -3.84449,4.25634 -0.2527,-0.32776 -0.0845,-0.8234 -0.12673,-1.2351"
       id="path398" />
    <path
       style="fill:none;stroke:#00ffff;stroke-width:0.264999"
       d="m 223.24874,114.91188 c 0.42952,-1.19076 2.47932,-3.14277 1.28856,-3.57229 -1.19076,-0.42952 -1.32155,2.30686 -1.28856,3.57229 0.0482,1.84998 1.14155,3.52812 1.52092,5.33942 0.17291,0.82555 0.0882,1.68463 0.12673,2.52721 0.0107,0.23421 -0.0351,0.93068 0.0211,0.70306 0.42961,-1.73918 0.46735,-3.58271 1.03508,-5.33943"
       id="path400" />
    <path
       style="fill:none;stroke:#00ffff;stroke-width:0.264999"
       d="m 230.21956,113.23975 c 1.89717,1.15547 -3.44734,0.82353 -3.06293,1.97615 0.60091,1.80178 6.49704,1.9108 6.33707,5.13041 -0.14171,2.85214 -4.79815,6.07167 -7.41439,6.1375 -1.21844,0.0307 -1.05953,-0.39083 -0.99281,-0.93107"
       id="path402" />
    <path
       style="fill:none;stroke:#00ffff;stroke-width:0.264999"
       d="m 6.4358696,163.5178 c 1.2532889,3.11376 0.7497445,1.45675 1.4575287,5.16842 0.1424623,0.74709 0.2735369,1.49636 0.4224761,2.24218 0.6332352,3.1709 0.8140092,-3.7117 1.3307854,-3.04024 0.4739772,0.61586 0.5875072,1.43934 0.9083092,2.14717 1.96542,4.33655 1.92124,-1.56933 3.506526,-2.33719 0.329967,-0.15982 0.737846,0.009 1.098425,-0.057 1.141767,-0.21008 5.859875,-2.61897 4.773949,-4.27535 -1.682279,-2.56601 -6.610096,4.023 -5.893493,5.98548 1.028771,2.81741 8.919236,-1.0111 10.625174,-1.2731 0.279373,-0.0429 -0.335124,0.4615 -0.549206,0.64605"
       id="path404" />
    <path
       style="fill:none;stroke:#00ffff;stroke-width:0.264999"
       d="m 37.931189,166.90008 c 1.946558,-8.45324 -7.760313,5.07288 -2.893933,7.58161 0.648838,0.33449 1.499418,-0.13235 2.133486,-0.49404 0.855552,-0.48804 1.46457,-1.31744 2.196852,-1.97616"
       id="path406" />
    <path
       style="fill:none;stroke:#00ffff;stroke-width:0.264999"
       d="m 40.635017,166.95708 c -1.185365,0.67697 -0.737188,4.31647 0.992804,4.00933 1.364387,-0.24223 1.535345,-3.0053 1.774385,-4.04733 0.09903,-0.43168 0.233532,-1.69099 0.380236,-1.2731 0.0642,0.18287 1.487183,9.0483 1.964489,4.12333 0.07398,-0.76334 0.05633,-1.53279 0.0845,-2.29919 0.07745,-1.00708 -0.04208,-2.04918 0.23236,-3.02124 0.06956,-0.24639 0.463232,0.37177 0.443599,0.62704 -0.06359,0.82683 -1.048398,1.65328 -0.675959,2.3942 0.522009,1.03847 1.806444,1.5138 2.87281,1.97617 0.651708,0.28257 -0.656271,-2.77105 0.866065,-3.00225 0.473858,-0.072 3.341433,3.31228 4.01349,4.18034"
       id="path408" />
    <path
       style="fill:none;stroke:#00ffff;stroke-width:0.264999"
       d="m 72.32045,163.68882 c 0.337981,-0.58271 0.67596,-1.16543 1.013941,-1.74814 -0.02114,-0.0697 -0.02685,-0.272 -0.06338,-0.20902 -0.363881,0.62737 -0.458703,1.42417 -0.950563,1.95716 -1.674164,1.81418 -4.839396,2.25677 -3.654388,5.33942 1.549233,4.03014 7.087449,2.00937 8.555066,-0.72205"
       id="path410" />
    <path
       style="fill:none;stroke:#00ffff;stroke-width:0.264999"
       d="m 76.988779,162.2447 c 0.232357,0.53838 0.470832,1.07415 0.697069,1.61513 0.330041,0.78919 0.657249,1.57966 0.971698,2.3752 2.055858,5.20119 1.377392,-1.65963 3.316409,-2.3752 1.374783,-0.50734 0.530712,7.37346 2.196852,3.87631"
       id="path412" />
    <path
       style="fill:none;stroke:#00ffff;stroke-width:0.264999"
       d="m 85.121367,164.56288 c -0.02931,0.65494 -0.308501,3.18372 0.760447,3.51529 1.341049,0.41598 2.290273,-2.54257 2.619341,-3.30627 0.152064,-0.35291 0.366109,-1.44047 0.443587,-1.06408 0.140353,0.68184 0.297878,7.24301 1.288542,4.35135 0.492093,-1.43637 0.715052,-3.06373 0.90832,-4.56037 0.06359,-0.4924 -0.343139,-1.4085 0.147862,-1.48211 0.270936,-0.0406 0.749633,1.85094 1.309664,3.8003 0.107304,0.3735 0.177945,1.43391 0.380224,1.10209 0.365578,-0.5997 0.826133,-4.27909 1.330796,-2.07116 0.164709,0.72059 0.301752,4.00696 1.563135,3.51527 0.944663,-0.36823 0.8886,-1.82965 1.204045,-2.79322 0.157181,-0.48014 0.817951,-1.54653 0.31687,-1.48212 -0.596419,0.0767 -1.002252,3.18277 1.330775,1.95716 1.032052,-0.54217 3.359365,-3.97132 1.098436,-3.97132 -0.259056,0 -0.422733,0.34407 -0.506963,0.58905 -1.013928,2.94897 6.012352,9.64395 3.358652,10.52684 -2.707714,0.90087 -4.665768,-4.82386 -2.30248,-6.36551 2.32957,-1.51966 6.2626,-0.65264 8.19598,-1.63414 2.19809,-1.11588 -1.9884,-3.67306 -5.09081,-0.95007 -2.75437,2.41752 1.50912,5.26984 3.0418,5.90948 1.73705,0.72492 7.20152,1.00968 5.66114,-1.1781"
       id="path414" />
    <path
       style="fill:none;stroke:#00ffff;stroke-width:0.264999"
       d="m 127.85446,155.89819 c -1.41172,3.11502 -1.05283,5.13514 -0.10561,8.20866 0.49688,1.61225 0.86217,2.02714 0.67596,1.93816 -1.26602,-0.60501 -2.1959,-1.74946 -3.33755,-2.56521 -0.52041,-0.37185 -1.63572,-1.00192 -1.6265,-1.06408 0.0728,-0.4913 2.63662,-0.42018 4.09797,-0.53206 1.21413,-0.093 1.99848,-0.0189 3.02069,-0.77906 0.24349,-0.18106 0.18757,-1.03242 0.40133,-0.81706 0.20352,0.20504 0.21953,0.53457 0.33799,0.79806 0.62901,1.39911 1.3318,2.73214 2.04898,4.08533 0.10441,0.197 0.1511,0.73816 0.31687,0.58906 0.39688,-0.35699 -1.01501,-2.19514 -0.4436,-2.66022 1.14786,-0.93426 5.02012,1.95171 6.37934,-0.57004 0.21173,-0.39283 0.27397,-0.83115 0.0845,-1.2541 -1.09595,-2.44632 -4.32949,0.33775 -3.73889,2.28018 0.94186,3.09769 8.91795,0.88027 6.52722,-0.15202"
       id="path416" />
    <path
       style="fill:none;stroke:#00ffff;stroke-width:0.264999"
       d="m 158.8217,154.91011 c -0.099,2.46518 0.83202,4.79276 1.49977,7.12558 0.11446,0.39985 0.29485,1.49784 0.50697,1.14009 0.69263,-1.16821 0.65154,-2.77066 1.28855,-3.97133 0.006,-0.0118 1.81085,3.14445 2.17573,3.55329 0.5765,0.64596 1.05256,-0.0126 1.45753,-0.58904 1.00181,-1.42604 1.43927,-3.09945 1.56313,-4.80739 0.0352,-0.48589 0.67046,-0.58363 1.03507,-0.74107 0.1668,-0.072 0.42266,-0.41735 0.48585,-0.24702 0.13901,0.37472 -3.18377,4.84712 -0.71821,4.71238 2.66219,-0.14547 4.3487,-1.29528 6.04135,-3.11624 0.86656,-0.93225 1.49965,-2.95344 0.61259,-2.62222 -1.56588,0.58468 -3.25503,6.05379 -0.46472,5.75746 0.71793,-0.0762 1.30966,-0.60804 1.96449,-0.91207"
       id="path418" />
    <path
       style="fill:none;stroke:#00ffff;stroke-width:0.264999"
       d="m 180.19881,154.47307 c 0.21123,-0.53838 1.17206,-1.40389 0.63369,-1.61513 -1.11636,-0.438 -0.9612,9.90933 -2.13349,10.26083 -0.6078,0.18225 -1.01049,-0.78443 -1.41525,-1.27311"
       id="path420" />
    <path
       style="fill:none;stroke:#00ffff;stroke-width:0.264999"
       d="m 174.91791,157.28529 c 1.36591,-1.12118 4.76721,-1.27513 5.59774,0.55106"
       id="path422" />
    <path
       style="fill:none;stroke:#00ffff;stroke-width:0.264999"
       d="m 196.06265,155.55616 c 0.0704,-0.55104 0.76229,-1.58272 0.21124,-1.65313 -0.55104,-0.0704 -0.2953,1.104 -0.21124,1.65313 0.21616,1.41205 0.71466,2.76635 1.09842,4.14233 0.18248,0.65429 0.22905,1.82416 0.90832,1.82416 1.31997,0 1.1932,-2.78288 1.88,-3.43928 0.32409,-0.30975 0.33133,0.83326 0.48584,1.2541 0.13016,0.35451 0.74772,1.92049 1.07732,2.10917 1.28704,0.73674 1.11391,-2.8966 1.41528,-3.23026 0.16053,-0.17772 0.47914,0.005 0.71821,0.019 1.8728,0.11083 3.70967,-0.18726 4.45706,-2.20417 0.1179,-0.31815 0.31146,-0.70983 0.14788,-1.00708 -1.60549,-2.9173 -5.73217,1.76366 -3.78113,3.66729 1.84081,1.79607 9.68267,0.86452 8.13258,-0.64606"
       id="path424" />
    <path
       style="fill:none;stroke:#00ffff;stroke-width:0.264999"
       d="m 221.81234,152.85794 c -2.64362,-0.82999 0.71895,8.38574 -0.4436,7.92364 -1.2058,-0.47928 -2.56868,-3.21138 -1.47865,-4.29435 1.17909,-1.17145 3.11765,-0.64968 4.37261,-1.71013 1.45007,-1.22533 0.854,4.52942 2.23909,4.29434 0.56609,-0.0961 1.01488,-1.66174 1.39416,-2.07117 0.43937,-0.47428 0.98921,1.11821 1.11956,0.89308 0.70293,-1.21406 0.83638,-2.94721 1.18292,-4.29434 0.12647,-0.49163 -0.0816,-1.40268 0.42246,-1.46313 0.78583,-0.0942 0.98926,2.54669 1.01395,2.85023 0.0427,0.5244 -0.2337,2.01138 0.0634,1.57713 3.09864,-4.5296 1.58309,-1.7472 3.33753,1.67214"
       id="path426" />
    <path
       style="fill:none;stroke:#00ffff;stroke-width:0.264999"
       d="m 236.8735,152.95296 c -0.17402,4.07201 -2.28645,5.92324 2.53482,4.76938"
       id="path428" />
    <path
       style="fill:none;stroke:#00ffff;stroke-width:0.264999"
       d="m 241.62632,154.58708 c -6.15699,5.28126 1.10133,5.32832 2.78828,9.06373"
       id="path430" />
    <path
       style="fill:none;stroke:#00ffff;stroke-width:0.264999"
       d="m -5.1610019,182.69035 c -0.801285,0.89298 -6.1038781,6.19667 -3.3586586,7.82864 2.9055126,1.72725 6.997869,-2.58127 7.87911404,-4.9594 0.102108,-0.27556 0.16732514,-1.35421 -0.57034114,-1.23511 -5.0120541,0.80922 0.1653276,11.54053 2.8094464,8.22767"
       id="path432" />
    <path
       style="fill:none;stroke:#00ffff;stroke-width:0.264999"
       d="m 1.9154158,182.34833 c 1.6774954,2.61254 1.5869206,2.14324 2.6615734,5.45343 0.3398864,1.04694 0.5949976,2.12028 0.8449416,3.19226 0.4300431,1.8444 0.067006,3.44833 0.2112406,1.10209 0.047699,-0.77593 0.2990824,-6.17985 2.4925867,-5.54844 0.6185058,0.17804 1.1125332,0.702 1.49978,1.21609 3.3358589,4.4285 -0.6675702,12.73907 -2.4925866,6.34652 -0.4585256,-1.6061 -0.2004828,-2.62922 0.021114,-4.10433"
       id="path434" />
    <path
       style="fill:none;stroke:#00ffff;stroke-width:0.264999"
       d="m 12.94195,190.61399 c 2.370693,-3.19947 1.387414,3.38041 0.422465,3.04025 -2.142021,-0.75513 -0.507597,-1.38103 -0.422465,-3.04025 0.04793,-0.93417 -0.786614,-1.91261 -0.422479,-2.77422 0.191122,-0.45223 1.052126,0.12283 1.394161,0.47503 2.329786,2.39906 2.416374,7.90541 1.837751,3.26827"
       id="path436" />
    <path
       style="fill:none;stroke:#00ffff;stroke-width:0.264999"
       d="m 16.131605,188.61883 c 2.643926,6.75028 9.523349,3.81655 7.498898,-2.37519"
       id="path438" />
    <path
       style="fill:none;stroke:#00ffff;stroke-width:0.264999"
       d="m 24.327582,182.46234 c 1.262599,3.23709 3.9546,7.28015 3.21079,10.86887 -0.06764,-4.44139 -1.397488,-3.96305 1.879994,-4.73138 1.256109,-0.29446 1.445266,-0.26774 2.429223,-0.057"
       id="path440" />
    <path
       style="fill:none;stroke:#00ffff;stroke-width:0.264999"
       d="m 55.442679,185.88261 c -0.55277,2.7241 0.05779,5.22735 0.950561,7.79062 0.249423,0.71612 1.161804,2.35062 1.161804,3.28727"
       id="path442" />
    <path
       style="fill:none;stroke:#00ffff;stroke-width:0.264999"
       d="m 54.386497,193.2742 c -1.878224,-2.84932 -0.198903,-2.79628 2.239105,-4.27534 1.110946,-0.67397 2.246337,-1.30866 3.337531,-2.01416 0.439753,-0.28432 0.626809,-1.27938 1.119547,-1.10209 0.570675,0.20533 2.253417,3.81352 2.4081,4.10434 0.441839,0.83067 0.496623,2.05399 1.330786,2.48919 1.555646,0.81163 2.645079,-6.75876 4.097977,-3.40128 0.262782,0.60726 0.450205,1.24544 0.633717,1.88116 0.147823,0.51208 0.234537,1.03989 0.359101,1.55812 0.476125,1.98085 0.187827,0.64469 0.401343,1.65314 1.182702,-3.43474 1.526383,-7.09476 2.471469,-10.58386 0.122344,-0.45168 1.313442,-2.88839 1.013939,-3.62929 -0.200226,-0.49531 -2.417593,0.81094 -2.598207,1.1591 -0.138376,0.26673 0.940477,-0.4155 2.893932,-0.019 1.251577,0.25403 4.957836,1.49586 4.668317,3.57228 -0.733451,5.26029 -4.881923,6.71483 -8.44945,9.50077"
       id="path444" />
    <path
       style="fill:none;stroke:#00ffff;stroke-width:0.264999"
       d="m 10.657148,250.32425 c 0.322705,4.96518 0.549207,9.99014 0.549207,14.9732"
       id="path446" />
    <path
       style="fill:none;stroke:#00ffff;stroke-width:0.264999"
       d="m 14.670626,263.58732 c 0.817176,-1.69988 0.9519,-3.32693 1.013939,-5.16843"
       id="path448" />
    <path
       style="fill:none;stroke:#00ffff;stroke-width:0.264999"
       d="m 16.212652,253.64952 c 0.168992,-0.59539 0.2965,-1.20414 0.506974,-1.78615 2.223534,-6.14861 3.851037,2.90496 4.330337,4.67437 0.592841,2.18856 0.674484,2.91995 0.929442,5.11141 0.0323,0.27762 0.160491,1.09815 0.06338,0.83608 -0.512643,-1.38344 -0.585547,-4.39256 0.506963,-5.52945 0.858123,-0.89298 1.928714,1.65256 2.492586,2.75522 0.753237,1.47296 0.558287,1.8448 0.697082,1.69113 0.51906,-0.57466 -0.420875,-2.46382 0.929442,-2.79321 1.328626,-0.32411 3.008728,3.75981 3.485393,4.61737"
       id="path450" />
    <path
       style="fill:none;stroke:#00ffff;stroke-width:0.264999"
       d="m 9.1573658,276.41335 c 1.7761422,0.34764 1.8925622,7.32739 2.5137082,7.67662 0.42408,0.23843 0.931849,-8.61342 3.802253,-3.38227 0.525415,0.95754 0.736185,2.06373 1.288542,3.00225"
       id="path452" />
    <path
       style="fill:none;stroke:#00ffff;stroke-width:0.264999"
       d="m 17.839173,280.08065 c 0.859028,-0.006 1.718188,-0.003 2.577087,-0.019 0.730652,-0.0138 2.829956,-0.002 3.781128,-0.26603 1.507903,-0.41822 4.290028,-3.66633 1.837751,-4.88339 -0.747395,-0.37093 -2.812378,0.87696 -3.020674,0.98809 -0.534045,0.28492 -2.062374,1.10675 -1.457536,1.08308 1.982647,-0.0776 3.853172,-2.49657 5.999112,-2.33719 5.35654,0.39784 -2.069039,11.31777 0.971685,7.73362"
       id="path454" />
    <path
       style="fill:none;stroke:#00ffff;stroke-width:0.264999"
       d="m 33.576277,276.14733 c -0.330938,1.07676 -0.848021,2.11315 -0.992817,3.23027 -0.04715,0.36377 0.131895,0.8137 0.443601,1.00707 3.819427,2.36946 10.311669,-4.17064 6.083598,-4.82639 -0.664583,-0.10308 -1.337979,0.13784 -2.006732,0.20902 -1.176044,0.12517 -2.351767,0.25335 -3.52765,0.38003 z"
       id="path456" />
    <path
       style="fill:none;stroke:#00ffff;stroke-width:0.264999"
       d="m 36.132229,270.42786 c 0.833371,5.60318 1.346898,11.25064 1.542026,16.91137 0.03142,0.91164 -0.01368,1.82576 0.04225,2.73622 0.02172,0.35342 -0.04785,1.30731 0.190106,1.0451 0.466349,-0.51389 0.43656,-1.31744 0.654838,-1.97617"
       id="path458" />
    <path
       style="fill:none;stroke:#00ffff;stroke-width:0.264999"
       d="m 56.115187,239.66438 c -6.296732,10.97227 -7.999153,24.35213 -2.598209,36.06492 2.576428,5.58738 3.49481,3.9195 6.484956,9.76679 0.82799,1.61915 1.126593,3.45827 1.689889,5.1874"
       id="path460" />
    <path
       style="fill:none;stroke:#00ffff;stroke-width:0.264999"
       d="m 79.710262,240.02541 c -0.767484,0.55105 -1.608653,1.01179 -2.302457,1.65313 -2.799746,2.58806 -3.2015,6.40652 -2.302483,9.93781 0.243247,0.95546 1.440995,2.65274 1.542013,3.7433 0.03832,0.41373 -0.729589,-0.39958 -1.077291,-0.62705"
       id="path462" />
    <path
       style="fill:none;stroke:#00ffff;stroke-width:0.264999"
       d="m 73.499923,250.03922 c 2.714754,-1.25223 5.76045,-0.24364 8.533945,-0.79807"
       id="path464" />
    <path
       style="fill:none;stroke:#00ffff;stroke-width:0.264999"
       d="m 94.792541,235.69306 c -9.017918,7.35434 -6.338392,19.46105 -2.154608,28.84433 1.467983,3.29235 0.618281,3.54373 2.217973,2.29919"
       id="path466" />
    <path
       style="fill:none;stroke:#00ffff;stroke-width:0.264999"
       d="m 103.60109,247.22699 c -0.83086,0.58905 -1.76768,1.05172 -2.49258,1.76714 -0.52989,0.52297 -0.90239,1.20051 -1.204065,1.88116 -1.98061,4.46865 8.354935,-1.85994 5.449895,-3.62929 -3.23392,-1.96966 -1.0993,2.83364 -1.01393,2.98324 1.52126,2.66568 2.5125,3.1566 4.47821,4.35135"
       id="path468" />
    <path
       style="fill:none;stroke:#00ffff;stroke-width:0.264999"
       d="m 111.29008,244.71879 c 1.1113,4.837 0.0618,0.90937 1.68991,5.49145 0.21374,0.60152 0.9904,1.97579 0.35909,1.88114 -0.91749,-0.13755 -1.49821,-1.09474 -2.23909,-1.65312"
       id="path470" />
    <path
       style="fill:none;stroke:#00ffff;stroke-width:0.264999"
       d="m 108.98762,248.78512 c 1.9452,-0.77443 6.03836,0.55947 7.43551,-1.44412 0.31584,-0.45294 0.4084,-1.02608 0.61259,-1.53913"
       id="path472" />
    <path
       style="fill:none;stroke:#00ffff;stroke-width:0.264999"
       d="m 117.52157,242.3056 c 1.7477,4.83072 0.6368,1.51175 1.94336,6.00448 0.21242,0.73043 0.2441,2.62069 0.82382,2.12818 0.13043,-0.11082 1.63201,-4.83125 1.94339,-3.87632 0.41204,1.26364 0.60101,11.36644 1.24629,4.80739"
       id="path474" />
    <path
       style="fill:none;stroke:#00ffff;stroke-width:0.264999"
       d="m 123.75303,235.52205 c 2.63522,0.0889 1.94179,-0.39758 3.65438,3.09725 3.74473,7.64174 4.38642,18.66079 -2.87281,24.58799"
       id="path476" />
    <path
       style="fill:none;stroke:#00ffff;stroke-width:0.264999"
       d="m 136.93418,248.13907 c 0.53812,-0.24328 14.717,-1.7101 8.2382,0.43703"
       id="path478" />
    <path
       style="fill:none;stroke:#00ffff;stroke-width:0.264999"
       d="m 163.88791,239.39836 c -6.4197,0.86055 -7.58457,7.38883 -3.92898,11.97097 0.43556,0.54595 0.84811,1.21188 1.49977,1.46311 0.1017,0.0392 -0.11202,-0.18999 -0.19012,-0.26602 -0.52183,-0.50806 -1.07026,-0.98807 -1.6054,-1.48211"
       id="path480" />
    <path
       style="fill:none;stroke:#00ffff;stroke-width:0.264999"
       d="m 155.96656,249.08914 c 3.09529,-1.48987 6.43095,-1.03263 9.56899,-2.5082"
       id="path482" />
    <path
       style="fill:none;stroke:#00ffff;stroke-width:0.264999"
       d="m 172.42186,240.31043 c -0.90127,1.36811 -2.09151,2.58476 -2.70382,4.10433 -1.65352,4.10359 1.3954,7.38071 4.54158,9.32975 1.03339,0.64018 1.50439,0.0746 1.73213,-0.77906"
       id="path484" />
    <path
       style="fill:none;stroke:#00ffff;stroke-width:0.264999"
       d="m 177.02682,243.92072 c -0.13423,0.18756 -2.39505,5.91177 0.61257,5.39644 1.59406,-0.27312 6.21236,-4.68858 4.62609,-6.28951 -0.5904,-0.59586 -1.53864,0.99426 -1.75328,1.80515 -0.9692,3.66167 4.82413,9.40457 4.52046,4.69337"
       id="path486" />
    <path
       style="fill:none;stroke:#00ffff;stroke-width:0.264999"
       d="m 183.40613,233.16585 c 0.56331,0.0317 1.24645,-0.25377 1.68992,0.095 4.76441,3.74712 8.2943,23.42084 0.73932,25.08203"
       id="path488" />
    <path
       style="fill:none;stroke:#00ffff;stroke-width:0.264999"
       d="m 97.052758,273.14508 c 14.381662,-0.0396 -0.233442,-0.0553 13.075542,0.11401 15.60729,0.19858 31.10034,-0.64234 46.68319,-1.3491 4.20838,-0.19087 11.08952,-0.40938 15.42025,-0.11401 1.66362,0.11346 4.99088,0.65213 2.28136,1.99515"
       id="path490" />
    <path
       style="fill:none;stroke:#00ffff;stroke-width:0.264999"
       d="m 134.33598,280.97372 c -0.22533,1.06408 -0.50217,2.11855 -0.67596,3.19225 -0.50435,3.11579 -0.96648,6.88345 -0.38024,10.03282 0.058,0.31141 0.35985,0.99676 0.57035,0.76007 0.63935,-0.7189 0.74341,-1.77473 1.11954,-2.66023 1.28002,-3.01352 1.73151,-4.88719 4.28809,-7.20159 0.70476,-0.638 0.8426,1.76689 0.86608,2.71724 0.0111,0.4511 -0.85071,5.04767 0.46472,5.47243 0.34772,0.11228 0.69003,-0.24069 1.03505,-0.36103"
       id="path492" />
    <path
       style="fill:none;stroke:#00ffff;stroke-width:0.264999"
       d="m 208.09967,238.10626 c 4.18299,15.75687 8.84677,26.60396 2.38697,42.88645 -2.28377,5.75645 -9.37241,16.03662 -9.78026,21.81378"
       id="path494" />
    <path
       style="fill:none;stroke:#00ffff;stroke-width:0.264999"
       d="m 233.27903,261.0031 c 1.16081,-0.12005 5.66711,-0.68212 4.92178,-3.02123 -3.07094,-9.63784 -17.67466,8.26835 -3.82336,8.15165 1.8883,-0.0159 3.82074,-0.14538 5.61888,-0.72206 3.84233,-1.23225 3.61439,-1.34018 4.64722,-3.59129"
       id="path496" />
    <path
       style="fill:none;stroke:#00ffff;stroke-width:0.264999"
       d="m 245.44624,254.20056 c -0.49289,0.8994 -1.06434,1.76003 -1.47865,2.69821 -4.43918,10.05191 1.84809,-3.00948 -1.81666,4.9784 -0.27916,0.60852 -0.96927,2.15759 -1.2674,1.55813 -0.65765,-1.32237 -0.31412,-2.93717 -0.4436,-4.40835 -0.0901,-1.02336 -0.33214,-2.29889 -0.25348,-2.31819 0.2335,-0.0573 0.34481,0.33553 0.50697,0.51304 2.65338,2.90474 5.12517,5.73972 8.30157,8.09465"
       id="path498" />
    <path
       style="fill:none;stroke:#00ffff;stroke-width:0.264999"
       d="m 248.61476,261.36413 c -1.01746,-3.28648 -0.25795,-5.74338 1.83777,-8.37968 1.02317,-1.28708 2.72547,-3.39563 2.11235,-3.17324 -0.83616,0.30329 -1.72307,1.12211 -2.23909,1.78614 -1.43483,1.84644 3.61114,2.65189 3.92898,2.81223 1.25011,0.63057 2.55315,1.27481 3.52767,2.28017 1.21631,1.25486 -1.34721,5.8129 -2.95733,5.71947 -0.25958,-0.0151 -0.22532,-0.46871 -0.33798,-0.70305"
       id="path500" />
    <path
       style="fill:none;stroke:#00ffff;stroke-width:0.264999"
       d="m 258.2049,249.33616 c 0.099,2.9277 1.32757,5.56527 2.15461,8.30367 0.0907,0.3004 0.45992,1.28317 -0.27459,1.36812 -2.67295,0.30913 -2.55032,-2.64038 -1.71103,-4.31335 1.31585,-2.62303 4.50987,-3.89605 6.67506,-5.62446 0.14814,-0.11825 2.15869,-1.97662 0.63371,-1.80514 -0.35526,0.04 -4.34568,1.05972 -3.46427,1.97615 2.10537,2.18901 6.28385,2.02025 7.96361,4.82639 1.89706,3.16919 0.54385,4.19108 -1.68989,5.90948 -0.9561,0.73551 -1.96713,1.64006 -3.16855,1.74815 -0.30117,0.0271 0.34468,-0.49934 0.54923,-0.72207"
       id="path502" />
    <path
       style="fill:none;stroke:#00ffff;stroke-width:0.264999"
       d="m 26.419952,342.60133 c 0.570341,0.51938 0.940519,1.52119 1.71102,1.55813 1.869014,0.0896 10.940693,-1.44846 13.835981,-1.90013 1.37913,-0.21516 2.75972,-0.42088 4.140218,-0.62706 0.473224,-0.0707 2.132992,0.0506 1.394161,-0.66506"
       id="path504" />
    <path
       style="fill:none;stroke:#00ffff;stroke-width:0.264999"
       d="m 29.187155,331.75145 c 2.552345,0.33174 5.132477,0.27245 7.689003,0.0191 0.764289,-0.0758 1.520751,-0.21637 2.281349,-0.323 0.365244,-0.0512 1.466175,-0.16105 1.098425,-0.13301 -0.457443,0.0349 -0.915352,0.0634 -1.373029,0.095"
       id="path506" />
    <path
       style="fill:none;stroke:#00ffff;stroke-width:0.264999"
       d="m 43.952563,324.94892 c -0.556254,-0.44971 -1.219059,-1.90537 -1.668764,-1.34912 -0.449707,0.55626 0.970733,1.19289 1.668764,1.34912 0.900946,0.20164 1.825419,-0.43005 2.746071,-0.36104 0.842468,0.0632 5.346949,1.19203 6.315972,1.84316 3.56326,2.39431 3.213264,3.79694 2.006746,8.34166 -0.793777,2.99003 -5.802051,9.72995 -6.886303,11.34394 -0.588812,0.87648 -2.208363,2.63823 -0.464719,1.90015"
       id="path508" />
    <path
       style="fill:none;stroke:#00ffff;stroke-width:0.264999"
       d="m 97.200702,325.02581 c -1.85788,-1.53381 1.548344,-3.28405 1.288531,-4.9784 -0.127336,-0.83041 -1.795406,-0.005 -2.471454,0.49404 -1.790631,1.32105 -3.057612,3.84247 -3.084049,6.06149 -0.03887,3.26264 1.531569,5.60923 3.844496,7.73363 0.684101,0.62833 1.431856,1.18369 2.154608,1.76715 0.461872,0.37285 1.928836,1.01936 1.351916,1.15908 -0.784716,0.19005 -1.562133,-0.41563 -2.323601,-0.68405"
       id="path510" />
    <path
       style="fill:none;stroke:#00ffff;stroke-width:0.264999"
       d="m 90.20877,332.64543 c -0.549214,-0.19003 -1.457629,-1.11927 -1.647642,-0.57005 -0.190016,0.54923 1.094134,0.74716 1.647642,0.57005 1.378897,-0.44125 2.343012,-1.76665 3.696645,-2.28018 0.59903,-0.22728 6.734965,-1.10657 7.731235,-1.2541"
       id="path512" />
    <path
       style="fill:none;stroke:#00ffff;stroke-width:0.264999"
       d="m 107.02318,332.98745 c -2.60638,3.40779 -5.37757,-4.97908 -3.46429,-6.13749 1.81917,-1.10143 4.24076,2.32911 4.43597,3.00224 0.30475,1.05084 -0.65089,4.18131 -0.97168,3.13525 -0.62955,-2.05284 -0.21768,-4.30146 -0.0422,-6.44151 0.115,-1.4027 -0.38629,-3.57131 0.90832,-4.12334 1.10489,-0.47113 1.62267,1.77634 2.34473,2.73622 0.48118,0.63967 5.34282,7.52164 3.52763,8.32266 -1.02209,0.45104 -1.54348,-1.76807 -1.73213,-2.86922 -0.54673,-3.19108 1.15151,-6.68068 3.99237,-8.13265"
       id="path514" />
    <path
       style="fill:none;stroke:#00ffff;stroke-width:0.264999"
       d="m 140.14503,320.50344 c -0.79566,0.44971 -1.65149,0.80654 -2.38697,1.34912 -0.90366,0.66664 -2.37355,1.55432 -2.09124,2.64121 0.54262,2.08913 10.7833,3.57966 12.12496,7.14457 1.07799,2.86433 -4.70362,4.98042 -6.18922,4.33237 -3.81533,-1.66433 -2.63904,-5.02166 -2.34473,-7.75263"
       id="path516" />
    <path
       style="fill:none;stroke:#00ffff;stroke-width:0.264999"
       d="m 146.43986,320.21842 c 2.00657,-1.50779 2.97738,-1.31086 4.11912,1.17809 0.46803,1.02028 0.79478,2.11035 1.01393,3.21126 0.24102,1.21083 0.31978,2.45234 0.35909,3.68629 0.0313,0.98251 -0.0618,1.96604 -0.14785,2.94527 -0.36994,4.20878 -0.65222,-3.90639 0.46472,-4.95941 1.86676,-1.75995 3.31332,4.69379 3.65437,5.49143 0.0772,0.18055 -0.0237,-0.39412 0,-0.58904 0.0862,-0.70747 0.50557,-4.23732 1.3308,-4.57937 1.37142,-0.56844 1.71918,6.65111 2.89393,4.00932"
       id="path518" />
    <path
       style="fill:none;stroke:#00ffff;stroke-width:0.264999"
       d="m 162.43046,324.72178 c -0.61575,1.4213 -1.65318,2.52531 -0.86608,4.06634 1.56151,3.05718 4.64998,-3.97005 4.73169,-4.14234 0.18135,-0.38233 0.28594,-0.79658 0.42248,-1.1971 0.0255,-0.0747 0.066,-0.30685 0.0634,-0.22801 -0.10213,3.03178 -0.17821,5.87421 1.22516,8.66469"
       id="path520" />
    <path
       style="fill:none;stroke:#00ffff;stroke-width:0.264999"
       d="m 170.62641,317.78622 c 1.1758,3.0107 2.76982,9.18212 1.73213,12.237"
       id="path522" />
    <path
       style="fill:none;stroke:#00ffff;stroke-width:0.264999"
       d="m 172.84438,319.42036 c 1.33494,4.55145 3.5149,10.22684 2.34473,15.06821"
       id="path524" />
    <path
       style="fill:none;stroke:#00ffff;stroke-width:0.264999"
       d="m 207.27591,317.5012 c -0.007,-0.67138 -0.0267,-1.34276 -0.0211,-2.01416 0.002,-0.29347 -0.0308,-1.13392 0.10561,-0.87407 1.47914,2.8177 -2.05819,-3.51262 -0.0845,2.88823 1.08256,3.51083 3.96665,6.36838 3.52762,10.31783 -0.0162,0.14547 -0.0568,-0.2914 -0.0422,-0.43703 0.0914,-0.91534 0.15946,-1.83825 0.35911,-2.73622 0.0864,-0.38874 1.09842,-5.65634 2.91506,-5.13041 2.8233,0.81737 2.02047,6.09485 3.50652,7.03057"
       id="path526" />
    <path
       style="fill:none;stroke:#00ffff;stroke-width:0.264999"
       d="m 253.24089,309.38755 c -1.10546,0.77906 -2.43353,1.31271 -3.31639,2.33719 -2.48963,2.88897 -0.4358,8.57221 0.71818,11.64794 0.0989,0.26349 1.90376,4.63714 1.54205,5.30143 -0.0398,0.0731 -1.56242,-2.48629 -1.6899,-2.69822"
       id="path528" />
    <path
       style="fill:none;stroke:#00ffff;stroke-width:0.264999"
       d="m 245.50966,321.37751 c 0.67596,-0.40536 1.26714,-1.00983 2.02787,-1.21609 0.70501,-0.19116 6.2552,-0.58531 7.24541,-0.60805 1.44065,-0.0331 2.21731,0.47504 1.18292,0.47504"
       id="path530" />
    <path
       style="fill:none;stroke:#00ffff;stroke-width:0.264999"
       d="m 266.78115,304.9602 c -0.80973,0.67772 -1.95217,1.09113 -2.42921,2.03316 -0.77473,1.52984 -0.87718,3.32195 -1.14068,5.0164 -0.93988,6.044 -0.20653,11.93323 1.79552,17.69043 0.6233,1.79247 1.49206,3.49007 2.2602,5.22542 0.50028,1.13022 0.79857,0.76374 0.33801,1.17811"
       id="path532" />
    <path
       style="fill:none;stroke:#00ffff;stroke-width:0.264999"
       d="m 276.60365,320.27543 c -1.38313,1.69275 -4.13054,4.88778 -0.84497,6.55553 2.25502,1.14462 7.48813,-4.5091 4.71061,-5.98549 -2.29219,-1.2184 -0.19497,6.81006 0.71816,7.84764 0.17534,0.19923 0.52105,-0.10134 0.78158,-0.15203"
       id="path534" />
    <path
       style="fill:none;stroke:#00ffff;stroke-width:0.264999"
       d="m 284.92633,319.70538 c 1.39512,-5.41557 -0.003,-0.012 0,0 0.11539,0.42566 4.40709,6.39542 2.11238,8.22766 -0.3711,0.29633 -0.91535,0.25336 -1.37303,0.38002"
       id="path536" />
    <path
       style="fill:none;stroke:#00ffff;stroke-width:0.264999"
       d="m 282.56048,326.90696 c 1.45643,-3.35828 4.85127,-2.5364 7.43553,-3.66729"
       id="path538" />
    <path
       style="fill:none;stroke:#00ffff;stroke-width:0.264999"
       d="m 289.84814,317.5772 c 0.64778,0.31036 1.44068,0.41798 1.94336,0.93109 1.80885,1.84639 2.01393,5.7228 2.26026,8.11365 0.0397,0.3849 0.0344,0.77324 0.0633,1.15909 0.006,0.0833 0.0188,0.32719 0.0423,0.24702 0.25474,-0.8707 1.49575,-7.57487 2.95736,-7.14458 1.65375,0.48687 1.97239,5.81009 2.04893,7.04957"
       id="path540" />
    <path
       style="fill:none;stroke:#00ffff;stroke-width:0.264999"
       d="m 298.97359,307.46839 c 0.9435,1.26044 2.13733,2.36767 2.83057,3.78131 0.77999,1.59061 1.15858,3.35829 1.52087,5.09241 1.57832,7.55473 0.63902,12.3124 -2.09124,19.55256 -0.77737,2.06145 -0.51633,1.98699 -1.54204,1.71016"
       id="path542" />
    <path
       style="fill:none;stroke:#00ffff;stroke-width:0.264999"
       d="m 315.12082,321.13435 c 4.416,-3.12771 -2.44229,1.31178 -2.36585,1.27311 0.79909,-0.40433 1.48606,-1.10594 2.36585,-1.27311 1.8139,-0.34466 3.69157,-0.11368 5.53439,-0.22801 0.8893,-0.0552 1.79623,-0.45931 2.66158,-0.24702 0.28207,0.0692 -0.6627,0.30234 -0.86609,0.095 -0.21111,-0.21522 -0.15491,-0.58271 -0.23235,-0.87407"
       id="path544" />
    <path
       style="fill:none;stroke:#00ffff;stroke-width:0.264999"
       d="m 334.89252,312.33664 c -0.97168,0.46237 -2.1019,0.68232 -2.91504,1.38712 -3.09989,2.68681 -1.24648,8.67709 -0.21122,11.72395 0.0785,0.23097 1.86833,4.71283 1.35186,4.9214 -0.33263,0.13436 -0.67593,-0.24069 -1.01391,-0.36102"
       id="path546" />
    <path
       style="fill:none;stroke:#00ffff;stroke-width:0.264999"
       d="m 325.74598,325.10567 c 2.59393,-3.44703 6.30381,-1.45936 9.56903,-2.75521"
       id="path548" />
    <path
       style="fill:none;stroke:#00ffff;stroke-width:0.264999"
       d="m 343.91233,311.25356 c -0.78859,0.4497 -2.04441,0.50009 -2.36583,1.3491 -2.09248,5.52683 -0.81486,10.26394 1.87997,15.03022 0.503,0.88963 1.44471,3.30075 2.0701,1.78614"
       id="path550" />
    <path
       style="fill:none;stroke:#00ffff;stroke-width:0.264999"
       d="m 346.93302,320.10827 c -0.17867,0.46945 -1.63679,2.5957 -0.12676,3.15426 1.98324,0.73361 5.03537,-2.77655 4.49932,-4.63637 -0.16478,-0.57169 -1.41015,1.19389 -1.28852,3.15425 0.0481,0.77632 2.10045,6.29093 2.34468,2.26118"
       id="path552" />
    <path
       style="fill:none;stroke:#00ffff;stroke-width:0.264999"
       d="m 351.85478,309.37241 c 0.33096,-0.85507 0.20933,-2.089 0.99284,-2.56521 0.50374,-0.30617 1.09459,0.60973 1.35192,1.14009 1.05159,2.16736 1.89336,4.45026 2.49256,6.78355 1.11466,4.34041 1.08275,14.03924 -3.27414,17.02538"
       id="path554" />
    <path
       style="fill:none;stroke:#00ffff;stroke-width:0.264999"
       d="m 366.55682,316.40297 c 1.92046,0.31222 3.86541,0.0443 5.78792,-0.095 0.47157,-0.0342 1.55837,-0.54564 1.41526,-0.095 -0.0559,0.17603 -3.13418,1.31732 -3.75999,1.59612 -1.53499,0.95641 -3.07134,1.91065 -4.60498,2.86924 -0.48499,0.30314 -1.89639,0.99828 -1.33077,1.08308 2.89984,0.43476 8.38541,-1.33962 11.99821,-1.15909 0.40129,0.02 -0.8027,0.038 -1.20405,0.057"
       id="path556" />
    <path
       style="fill:none;stroke:#00ffff;stroke-width:0.264999"
       d="m 380.54069,309.56243 c -1.18748,4.18925 -0.007,8.55756 -0.2535,12.84503 -0.0572,0.99283 -0.16105,1.98561 -0.33795,2.96423 -0.15828,0.87573 -0.80269,1.6563 -0.80269,2.54622 0,0.32416 -0.046,-0.42837 1.49979,-1.65314 2.03649,-1.61355 3.27937,-1.91616 6.02022,-2.71722 2.99847,-0.87636 1.6718,-0.46002 0.12671,-0.13301"
       id="path558" />
    <path
       style="fill:none;stroke:#00ffff;stroke-width:0.264999"
       d="m 90.04861,355.1661 c 1.101907,3.41421 0.313632,0.85275 1.774372,6.42252 1.540738,5.87481 3.151497,11.67826 3.76001,17.74746 0.386556,3.85548 0.227539,6.45202 0.190116,10.22281 -0.0061,0.61436 -0.01188,1.22888 0,1.84314 0.0021,0.11486 0.04544,0.45688 0.04224,0.34203 -0.01021,-0.36783 -0.04224,-0.73472 -0.06337,-1.1021"
       id="path560" />
    <path
       style="fill:none;stroke:#00ffff;stroke-width:0.264999"
       d="m 118.31202,367.38408 c 0.0853,4.12359 -0.3152,8.23037 -0.84495,12.313 -0.03,0.23084 -0.6257,3.42876 -0.31686,3.7243 0.23463,0.22455 5.79643,-2.12191 6.5272,-2.37519 2.10818,-0.73065 2.97308,-0.16505 2.38697,-0.209"
       id="path562" />
    <path
       style="fill:none;stroke:#00ffff;stroke-width:0.264999"
       d="m 138.18934,370.31035 c 2.71193,1.49775 5.75932,-0.31036 8.53395,0.342 0.17882,0.042 -0.20757,0.31419 -0.35909,0.41804 -1.13264,0.77629 -2.35289,1.35445 -3.5699,1.97614"
       id="path564" />
    <path
       style="fill:none;stroke:#00ffff;stroke-width:0.264999"
       d="m 137.9781,375.55476 c 1.5817,0.0736 10.29298,-1.62311 11.30115,-0.30403"
       id="path566" />
    <path
       style="fill:none;stroke:#00ffff;stroke-width:0.264999"
       d="m 165.14309,364.32486 c 2.33166,3.9456 1.31102,9.14675 3.42202,13.03504 2.44722,-3.4911 2.19463,-4.22031 1.96449,-7.60061"
       id="path568" />
    <path
       style="fill:none;stroke:#00ffff;stroke-width:0.264999"
       d="m 170.88872,367.04205 c 0.24895,-0.20513 -0.007,-5.56479 1.58428,-5.39641 2.56042,0.27093 3.54989,6.46276 4.49933,8.34168 0.0151,0.0299 -0.24772,-4.20497 0.48584,-4.61741 0.61157,-0.34385 2.16656,2.83753 2.59821,3.97132 0.35972,0.94491 0.21268,-3.11441 1.56313,-3.47726 1.66334,-0.44693 2.85304,3.45906 4.05573,4.18034"
       id="path570" />
    <path
       style="fill:none;stroke:#00ffff;stroke-width:0.264999"
       d="m 168.29051,387.29771 c 0.0422,-0.62706 0.7538,-1.83891 0.12675,-1.88116 -0.62705,-0.0423 -0.34939,1.29344 -0.12675,1.88116 4.22324,11.14848 1.27164,-1.15872 2.30248,6.87856 0.0209,0.16253 0.0776,-0.3187 0.12673,-0.47504 0.36969,-1.17745 0.92783,-3.87395 2.34472,-4.42738 1.30379,-0.50924 1.95992,1.97872 2.17573,2.75522"
       id="path572" />
    <path
       style="fill:none;stroke:#00ffff;stroke-width:0.264999"
       d="m 175.40917,388.85581 c 1.16884,-0.36102 2.3226,-0.77507 3.50652,-1.08307 0.5977,-0.15547 8.46753,-1.13199 5.15418,-3.78132 -0.79393,-0.63481 -2.14021,0.008 -2.85169,-0.58904 -1.08634,-0.91207 2.06649,-3.12293 2.83054,-3.17323 0.49357,-0.0325 1.0211,0.57304 1.07732,1.00706 0.35703,2.75656 0.19809,3.65035 -0.6126,6.27052 -0.43621,1.40988 -1.26199,2.69756 -1.56313,4.14234 -0.0183,0.0877 0.093,0.25644 0.16899,0.209 0.82002,-0.51184 1.36954,-1.36459 2.04898,-2.05217"
       id="path574" />
    <path
       style="fill:none;stroke:#00ffff;stroke-width:0.264999"
       d="m 190.47033,384.39047 c -3.49594,6.44157 5.2733,5.76365 6.2737,1.14009 0.70926,-3.27801 -3.52547,-0.92636 -4.30921,-0.47504 -3.09398,1.78165 -2.35077,3.8173 -1.96449,-0.66505 z"
       id="path576" />
    <path
       style="fill:none;stroke:#00ffff;stroke-width:0.264999"
       d="m 192.92066,379.01305 c 0.12447,0.23622 -0.0282,-4.05368 0.0422,-3.68634 0.081,0.42249 0.21617,0.84299 0.21124,1.27313 -0.009,0.80877 -0.32772,1.60779 -0.25348,2.41321 0.16021,1.7381 0.73232,3.41762 0.95056,5.1494 0.30966,2.45724 -0.34079,6.30629 0.76045,8.6837 0.2125,0.45876 0.58349,-0.86757 0.65484,-1.36811"
       id="path578" />
    <path
       style="fill:none;stroke:#00ffff;stroke-width:0.264999"
       d="m 208.53102,345.74135 c -0.6478,0.51303 -1.49997,0.84182 -1.94339,1.53913 -0.84134,1.32305 -2.24263,9.007 -2.28134,9.25373 -1.34967,8.60266 -2.23766,18.62407 2.17573,26.56414 1.61056,2.89753 4.19654,4.46767 6.25259,6.82156"
       id="path580" />
    <path
       style="fill:none;stroke:#00ffff;stroke-width:0.264999"
       d="m 224.01463,347.07144 c -0.43656,0.89307 -0.83506,1.80578 -1.30967,2.67922 -1.87166,3.44448 -1.90894,5.62549 -0.10561,9.42478 0.35099,0.73945 1.02357,1.33482 1.22516,2.12815 0.0956,0.37613 -0.66691,-0.39733 -0.9928,-0.60804"
       id="path582" />
    <path
       style="fill:none;stroke:#00ffff;stroke-width:0.264999"
       d="m 218.86046,359.19443 c 2.28656,-2.54582 5.36702,-1.98157 8.2171,-3.13526"
       id="path584" />
    <path
       style="fill:none;stroke:#00ffff;stroke-width:0.264999"
       d="m 235.04116,345.39932 c 0.49289,-0.95006 0.98578,-1.90015 1.47867,-2.85022 -0.0212,-0.0633 0.003,-0.19002 -0.0634,-0.19002 -1.11784,0 -0.75391,2.13905 -1.41528,3.04024 -1.11356,1.51731 -3.0826,2.33561 -4.0135,3.97132 -1.32128,2.32169 -1.14384,7.27276 -0.38021,9.67176 0.45048,1.41523 1.29515,2.69619 2.19685,3.87633 1.87793,2.4578 5.02351,4.15754 5.32317,3.72431 0.55097,-0.79653 -0.18118,-1.92927 -0.31686,-2.88822"
       id="path586" />
    <path
       style="fill:none;stroke:#00ffff;stroke-width:0.264999"
       d="m 239.03353,355.62216 c -1.82396,6.56394 5.47071,-1.57096 3.78111,-2.58421 -2.05565,-1.2328 -1.3698,7.53763 1.71101,4.59838"
       id="path588" />
    <path
       style="fill:none;stroke:#00ffff;stroke-width:0.264999"
       d="m 245.62409,351.66982 c 0.0183,-5.46735 -0.0214,-0.065 0,0 0.35132,1.07193 1.2618,1.88192 1.73215,2.90724 0.53425,1.16467 1.04296,4.10067 -0.21124,3.83831 -0.71094,-0.14872 -1.33853,-0.59389 -1.92225,-1.02608 -1.80253,-1.33456 -0.18119,-1.01579 0.29575,-2.85023 0.24082,-0.92628 -0.66932,-2.30759 0.10559,-2.86924 0.7897,-0.57238 1.8559,0.77615 2.83057,0.74107 0.82507,-0.0297 1.42369,-1.89296 1.41528,-2.52722 -0.006,-0.42178 -0.32999,-1.64399 -0.16899,-1.2541 0.32972,0.79846 2.35601,7.7049 2.89393,7.54361 0.50861,-0.1525 0.90782,-4.45124 2.17575,-4.14234 1.14602,0.27921 1.14128,6.59313 1.54202,4.00934"
       id="path590" />
    <path
       style="fill:none;stroke:#00ffff;stroke-width:0.264999"
       d="m 255.50996,343.8032 c 0.0422,-0.58907 0.71577,-1.7249 0.12673,-1.76715 -0.58904,-0.0423 -0.53041,1.33609 -0.12673,1.76715 4.24635,4.53403 2.188,-4.57203 4.4782,5.18739 1.19034,5.07236 0.54774,8.12858 -0.67596,12.80705"
       id="path592" />
    <path
       style="fill:none;stroke:#00ffff;stroke-width:0.264999"
       d="m 267.38144,351.08077 c 1.65005,0.80939 5.62232,-0.12221 6.75955,0.30404"
       id="path594" />
    <path
       style="fill:none;stroke:#00ffff;stroke-width:0.264999"
       d="m 281.19629,345.36133 c -0.87313,0.76004 -2.01274,1.29423 -2.61932,2.28015 -1.45963,2.37244 0.13377,6.00149 1.49976,7.99965 0.49382,0.72239 1.56641,1.77975 1.49979,1.86217 -0.0506,0.0626 -0.94255,-0.50814 -0.95057,-0.51306"
       id="path596" />
    <path
       style="fill:none;stroke:#00ffff;stroke-width:0.264999"
       d="m 276.2956,354.69107 c 2.48047,-2.57215 0.47138,-1.06223 4.56271,-2.28018 0.96398,-0.28697 1.88703,-0.69673 2.83054,-1.04508"
       id="path598" />
    <path
       style="fill:none;stroke:#00ffff;stroke-width:0.264999"
       d="m 290.72304,342.15005 c 0.3098,-0.97541 0.73982,-1.92053 0.92942,-2.92623 0.27832,-1.47622 -2.35534,1.98905 -3.04178,3.32528 -1.71355,3.33544 -1.61713,7.40082 -0.0845,10.75486 0.16394,0.35875 3.63366,5.59951 4.45709,4.54136"
       id="path600" />
    <path
       style="fill:none;stroke:#00ffff;stroke-width:0.264999"
       d="m 296.08844,348.17356 c -0.10562,-0.63339 0.31652,-2.00581 -0.31686,-1.90019 -0.63339,0.10563 0.40714,1.26442 0.31686,1.90019 -0.16266,1.14546 -1.20285,2.15863 -1.05619,3.30623 0.21672,1.69595 6.20996,-2.72722 4.92181,-4.46534 -0.97677,-1.318 -2.48912,7.7072 0.59147,4.18033"
       id="path602" />
    <path
       style="fill:none;stroke:#00ffff;stroke-width:0.264999"
       d="m 298.79227,339.39482 c -2.71875,-6.69264 1.62933,0.84642 1.79552,1.23512 2.70996,6.33812 5.25375,13.56114 0.73932,19.70458 -0.54324,0.73928 -1.52474,1.8804 -2.61935,1.65315"
       id="path604" />
    <path
       style="fill:none;stroke:#00ffff;stroke-width:0.264999"
       d="m 232.69645,374.77569 c 10.65172,-4.02256 22.22843,-2.32674 33.35419,-2.60321 14.62587,-0.36343 13.28505,-0.49151 25.15822,-1.2161 0.24697,-0.0151 9.64047,-0.117 10.73081,-0.62706 0.36751,-0.17193 -0.14941,-0.14148 -1.30966,-0.11399"
       id="path606" />
    <path
       style="fill:none;stroke:#00ffff;stroke-width:0.264999"
       d="m 268.31087,381.80625 c -0.0493,-0.56372 0.41584,-1.74043 -0.14788,-1.69113 -0.56369,0.0493 -0.0316,1.15451 0.14788,1.69113 0.54528,1.63018 1.33278,3.16908 2.00673,4.75039 0.45979,1.07883 0.5519,2.73962 1.66878,3.09723 1.62944,0.52174 0.61219,-4.59247 3.52764,-0.47503 0.40767,0.57574 1.28796,3.44498 2.09124,3.66731"
       id="path608" />
    <path
       style="fill:none;stroke:#00ffff;stroke-width:0.264999"
       d="m 306.5235,344.25921 c 8.43264,14.62037 11.62315,25.71668 4.6472,42.35444 -0.50046,1.19362 -2.64576,6.61731 -4.03461,7.86662"
       id="path610" />
  </g>
</svg>
