<?xml version="1.0" encoding="UTF-8" standalone="no"?>
<!-- Created with Inkscape (http://www.inkscape.org/) -->

<svg
   width="6625.4663mm"
   height="20229.525mm"
   viewBox="0 0 6625.4662 20229.527"
   version="1.1"
   id="svg12"
   inkscape:version="1.2.1 (9c6d41e410, 2022-07-14, custom)"
   sodipodi:docname="unproof_of_comunative_inplication.svg"
   xml:space="preserve"
   xmlns:inkscape="http://www.inkscape.org/namespaces/inkscape"
   xmlns:sodipodi="http://sodipodi.sourceforge.net/DTD/sodipodi-0.dtd"
   xmlns="http://www.w3.org/2000/svg"
   xmlns:svg="http://www.w3.org/2000/svg"><sodipodi:namedview
     id="namedview14"
     pagecolor="#505050"
     bordercolor="#eeeeee"
     borderopacity="1"
     inkscape:showpageshadow="0"
     inkscape:pageopacity="0"
     inkscape:pagecheckerboard="0"
     inkscape:deskcolor="#505050"
     inkscape:document-units="mm"
     showgrid="true"
     inkscape:zoom="0.020505009"
     inkscape:cx="12192.143"
     inkscape:cy="69105.066"
     inkscape:window-width="1366"
     inkscape:window-height="746"
     inkscape:window-x="0"
     inkscape:window-y="0"
     inkscape:window-maximized="1"
     inkscape:current-layer="layer1"
     inkscape:lockguides="false"><inkscape:grid
       type="xygrid"
       id="grid344"
       color="#969696"
       opacity="0.39215686"
       empcolor="#000000"
       empopacity="0.17254902"
       dotted="false"
       originx="846.84527"
       originy="-15896.86" /></sodipodi:namedview><defs
     id="defs9" /><g
     inkscape:label="Layer 1"
     inkscape:groupmode="layer"
     id="layer1"
     transform="translate(741.84529,-16045.352)"><path
       style="fill:none;stroke:#ffffff;stroke-width:10.7;stroke-dasharray:none"
       d="m 107.62966,17269.799 c 7.8644,20.807 19.3857,40.578 23.5933,62.42 6.9932,36.302 5.1216,73.8 9.7145,110.483 1.0898,8.704 52.7066,208.648 -1.3877,152.304"
       id="path2389" /><path
       style="fill:none;stroke:#ffffff;stroke-width:10.7;stroke-dasharray:none"
       d="m 19.503473,17456.434 c 70.44049,-41.888 121.462987,-59.564 198.457987,-44.942 10.2332,1.943 42.751,17.577 15.9598,6.866"
       id="path2391" /><path
       style="fill:none;stroke:#ffffff;stroke-width:10.7;stroke-dasharray:none"
       d="m 243.63576,17126.233 c 30.5321,27.881 68.1947,49.556 91.5962,83.643 72.679,105.865 101.4847,332.246 29.8382,445.678"
       id="path2393" /><path
       style="fill:none;stroke:#ffffff;stroke-width:10.7;stroke-dasharray:none"
       d="m 73.628413,17126.233 c -26.1372,27.465 -58.37097,50.21 -78.4116504,82.395 -80.8817996,129.892 -106.7734726,334.524 -33.3077796,471.269 41.5303996,77.303 124.42598,128.361 181.804177,192.878"
       id="path2395" /><path
       style="fill:none;stroke:#ffffff;stroke-width:10.7;stroke-dasharray:none"
       d="m 1095.0617,17249.201 c -7.8798,-76.884 42.5924,-148.465 0,0 z"
       id="path2397" /><path
       style="fill:none;stroke:#ffffff;stroke-width:10.7;stroke-dasharray:none"
       d="m 1098.5317,17422.103 c 17.68,17.69 -8.0328,391.653 24.9805,213.476"
       id="path2399" /><path
       style="fill:none;stroke:#ffffff;stroke-width:10.7;stroke-dasharray:none"
       d="m 1231.0683,17430.842 c 20.1234,21.431 37.3887,45.96 60.3702,64.293 50.7028,40.446 134.4419,47.563 74.9417,139.82 -9.3956,14.568 -19.0746,34.101 -36.0828,37.452 -46.8192,9.225 -37.9808,-47.636 -38.8589,-65.541"
       id="path2401" /><path
       style="fill:none;stroke:#ffffff;stroke-width:10.7;stroke-dasharray:none"
       d="m 1960.3659,17373.416 c -171.5358,27.613 -181.4221,351.505 22.2052,258.418"
       id="path2403" /><path
       style="fill:none;stroke:#ffffff;stroke-width:10.7;stroke-dasharray:none"
       d="m 2097.7601,17600 c -20.3547,-33.083 -46.7894,-63.123 -61.0641,-99.248 -21.4621,-54.314 111.2034,-69.339 91.5962,25.593 -5.3759,26.028 -20.3547,49.103 -30.5321,73.655 z"
       id="path2405" /><path
       style="fill:none;stroke:#ffffff;stroke-width:10.7;stroke-dasharray:none"
       d="m 2158.1304,17410.868 c 77.3157,-96.293 124.9992,161.099 103.3923,176.648 -7.3226,5.269 -4.0579,-17.839 -3.4692,-26.841 0.9212,-14.088 10.1213,-100.334 43.0217,-95.502 25.2392,3.707 29.1471,65.873 31.2259,80.522 1.4708,10.363 -2.7628,39.619 3.47,31.21 22.5727,-30.456 14.8619,-93.195 55.5128,-113.604 54.1522,-27.188 24.9581,193.195 40.2465,112.979"
       id="path2407" /><path
       style="fill:none;stroke:#ffffff;stroke-width:10.7;stroke-dasharray:none"
       d="m 2482.88,17413.989 c 24.0554,24.135 53.5299,43.878 72.1661,72.407 15.6829,24.007 8.2931,92.746 4.857,93.63 -14.0682,3.615 16.3952,-112.98 40.2474,-112.98 46.9918,0 46.5788,110.614 52.7364,92.381 14.6834,-43.477 48.2516,-130.711 55.5128,-101.744 3.8536,15.373 -11.4118,138.126 20.8174,112.355"
       id="path2409" /><path
       style="fill:none;stroke:#ffffff;stroke-width:10.7;stroke-dasharray:none"
       d="m 2779.8729,17485.772 c 5.32,19.142 8.4937,39.015 15.9597,57.426 12.886,31.777 99.836,142.359 123.5159,58.675 18.9709,-67.043 -6.5579,-136.856 24.2867,-199.744 20.586,37.868 49.9528,72.15 61.7581,113.604 16.5832,58.232 -19.0597,109.978 -2.0823,107.986 12.0606,-1.415 66.0302,-119.998 108.9437,-126.712 21.568,-3.374 -8.1219,90.61 29.1443,86.14 38.8589,5.201 77.6659,20.402 116.5767,15.604 12.8095,-1.579 25.231,-44.599 16.6537,-34.954 -31.0083,34.865 -35.7333,161.915 29.8382,106.737"
       id="path2411" /><path
       style="fill:none;stroke:#ffffff;stroke-width:10.7;stroke-dasharray:none"
       d="m 3381.4915,17437.708 c -33.9614,68.078 -32.1022,141.214 -43.7166,213.476 -0.7085,4.409 -1.6589,15.6 -4.8567,12.484 -14.2036,-13.841 -5.076,-39.467 -4.8577,-59.299 0.8096,-73.553 79.4149,-54.96 111.719,-103.617 17.373,-26.167 17.1979,-150.318 50.6558,-159.17 16.5679,-4.384 3.1837,34.128 4.8569,51.184 1.5126,15.422 41.4843,169.015 56.901,147.935 63.1889,-86.399 -68.5903,66.748 25.6744,-51.184 13.1421,-16.442 27.3889,-32.283 43.7166,-45.567 7.5753,-6.162 158.247,-78.623 125.5974,-116.725 -37.3033,-43.532 -87.4651,90.305 -85.3509,113.604 9.4327,103.945 237.6972,188.632 294.9112,91.758"
       id="path2413" /><path
       style="fill:none;stroke:#ffffff;stroke-width:10.7;stroke-dasharray:none"
       d="m 153.75106,18968.069 c 11.7964,-36.828 20.6663,-74.725 35.3893,-110.483 20.1288,-48.888 67.3036,-133.113 90.2081,-124.216 35.4933,13.787 25.802,71.761 35.3897,108.611 22.159,85.168 43.2763,169.683 81.8812,249.055"
       id="path2415" /><path
       style="fill:none;stroke:#ffffff;stroke-width:10.7;stroke-dasharray:none"
       d="m 548.58536,19050.463 c 25.0048,-129.664 18.8561,-101.258 43.7162,-218.469 54.2634,-252.478 -7.6848,37.885 34.0016,-162.916 3.1735,-15.286 -1.8888,-40.875 13.1841,-44.942 8.902,-2.403 108.6684,178.94 79.1055,225.335 -16.7779,26.332 -59.2393,25.699 -83.2689,25.592 -6.8955,-0.03 -123.5201,-7.942 -132.5366,-16.229 -79.3807,-72.958 147.951,-191.811 188.0492,-212.852 17.5695,-9.219 47.5179,-34.96 56.9007,-17.477 13.6915,25.511 -23.4446,53.093 -38.1651,78.025 -65.4219,110.803 -120.0989,221.616 -160.9867,343.933 z"
       id="path2417" /><path
       style="fill:none;stroke:#ffffff;stroke-width:10.7;stroke-dasharray:none"
       d="m 975.33906,18670.326 c -12.5995,14.445 -100.4633,73.887 -65.2275,120.471 49.1651,64.999 245.06124,3.525 215.80554,-91.758 -7.6621,-24.954 -59.3987,-50.702 -52.7365,1.873 10.5176,82.998 71.6589,169.455 115.1882,239.068"
       id="path2419" /><path
       style="fill:none;stroke:#ffffff;stroke-width:10.7;stroke-dasharray:none"
       d="m 1413.1954,18604.785 c 16.0848,9.744 184.8509,-26.552 160.9871,28.089"
       id="path2421" /><path
       style="fill:none;stroke:#ffffff;stroke-width:10.7;stroke-dasharray:none"
       d="m 1432.6252,18747.727 c -3.235,41.675 242.0856,12.611 227.6019,33.082"
       id="path2423" /><path
       style="fill:none;stroke:#ffffff;stroke-width:10.7;stroke-dasharray:none"
       d="m 2247.2736,18083.58 c -6.4763,29.753 -15.2557,59.097 -19.429,89.26 -0.884,6.389 -0.6939,91.043 -0.6939,102.369 0,8.326 0.025,33.263 -0.6938,24.968 -6.8603,-79.189 1.6865,-55.337 -31.2259,-164.789 -8.8137,-29.31 -40.1748,-63.952 -38.1651,-65.54 32.9749,-26.067 56.0821,14.543 90.2077,13.732 41.8512,-0.995 81.7085,-18.331 122.8221,-26.216 35.9294,-6.891 72.4058,-10.78 108.2499,-18.102 190.5678,-38.929 161.0016,-123.451 151.9656,84.266 -2.1918,50.386 -5.2703,100.354 0.6937,150.432"
       id="path2425" /><path
       style="fill:none;stroke:#ffffff;stroke-width:10.7;stroke-dasharray:none"
       d="m 2439.4866,18773.319 c 26.7035,60.696 28.6215,119.869 11.1022,182.89"
       id="path2427" /><path
       style="fill:none;stroke:#ffffff;stroke-width:10.7;stroke-dasharray:none"
       d="m 2348.5843,18572.951 c -16.1056,1.33 38.3237,-190.679 83.2693,-162.291 37.6332,23.769 50.1748,90.844 58.9827,130.457 1.5836,7.123 4.7186,28.339 1.3875,21.847 -19.857,-38.702 -30.6469,-110.94 -86.7384,-116.101 -57.0155,-5.245 -61.6285,126.291 -56.9011,126.088 50.8318,-2.177 35.7895,-223.675 111.7199,-121.718 11.3305,15.214 30.0358,43.156 41.6343,59.299 24.6835,34.353 14.5153,12.876 27.0619,53.681"
       id="path2429" /><path
       style="fill:none;stroke:#ffffff;stroke-width:10.7;stroke-dasharray:none"
       d="m 2239.6406,19106.017 c -69.5258,266.366 59.9618,166.146 240.7865,139.82 22.9039,-3.335 112.3921,6.462 133.2304,-16.229 30.6165,-33.339 -5.1808,-210.557 5.5515,-270.902"
       id="path2431" /><path
       style="fill:none;stroke:#ffffff;stroke-width:10.7;stroke-dasharray:none"
       d="m 2490.8363,19476.166 c -29.5761,68.378 -13.1847,125.051 -13.1847,191.629 0,8.686 -10.2999,-14.009 -15.9596,-20.598 -212.899,-121.918 242.2237,-77.597 207.4781,-126.712 -7.147,-10.103 -24.0309,-5.928 -36.0828,-8.739"
       id="path2433" /><path
       style="fill:none;stroke:#ffffff;stroke-width:10.7;stroke-dasharray:none"
       d="m 2001.3071,17784.763 c 33.3074,-73.24 33.3074,-73.24 0,0 z"
       id="path2435" /><path
       style="fill:none;stroke:#ffffff;stroke-width:10.7;stroke-dasharray:none"
       d="m 2325.6853,17861.365 c -38.9478,35.09 22.897,134.517 -22.2052,162.916"
       id="path2437" /><path
       style="fill:none;stroke:#ffffff;stroke-width:10.7;stroke-dasharray:none"
       d="m 3032.7784,18185.324 c 6.2452,-18.102 36.8371,-48.06 18.7354,-54.305 -18.1017,-6.245 -8.1613,38.341 -18.7354,54.305 -35.8886,54.184 -92.9227,94.802 -119.3519,154.177 -56.496,126.923 -11.3586,301.827 72.1664,403.856 23.8971,29.192 73.7272,68.851 115.189,51.185"
       id="path2439" /><path
       style="fill:none;stroke:#ffffff;stroke-width:10.7;stroke-dasharray:none"
       d="m 3268.7074,18456.226 c -151.8439,21.731 -26.1255,86.726 -6.9393,61.796 12.6421,-16.426 -9.7734,-49.534 6.9393,-61.796 24.5776,-18.032 62.4673,0.999 90.9023,-9.987 15.6163,-6.033 28.7174,-39.109 14.5722,-48.063 -43.997,-27.851 -61.3452,186.401 21.5112,139.82"
       id="path2441" /><path
       style="fill:none;stroke:#ffffff;stroke-width:10.7;stroke-dasharray:none"
       d="m 3392.9171,18189.694 c -63.5437,117.533 -2.4149,-102.924 1.3877,-77.401 3.8023,25.523 -20.0763,59.607 -1.3877,77.401 26.7853,25.502 80.4701,-0.07 108.2497,24.343 43.2713,38.032 55.3794,178.125 49.2673,226.584 -5.1708,40.997 -20.3822,80.375 -36.0828,118.598 -25.3381,61.685 -92.5446,185.049 -95.0653,126.088"
       id="path2443" /><path
       style="fill:none;stroke:#ffffff;stroke-width:10.7;stroke-dasharray:none"
       d="m 2097.0663,17718.598 c -9.2522,-18.726 -23.9819,-35.635 -27.7567,-56.178 -1.5673,-8.53 19.2502,-24.135 20.8175,-15.605 4.3445,23.643 -2.467,49.66 6.9392,71.783 13.5343,31.831 39.7843,56.594 59.6764,84.891"
       id="path2445" /><path
       style="fill:none;stroke:#ffffff;stroke-width:10.7;stroke-dasharray:none"
       d="m 1117.3139,28428.071 c 61.154,136.004 19.8124,276.478 18.0421,418.214 -0.2289,18.331 -3.4133,72.187 2.7754,54.929 3.4978,-9.753 3.701,-20.39 5.5515,-30.586"
       id="path2547" /><path
       style="fill:none;stroke:#ffffff;stroke-width:10.7;stroke-dasharray:none"
       d="m 1721.7087,28516.083 c 19.7516,-102.877 -6.9451,-56.885 0,0 6.5132,53.348 25.7243,104.431 35.389,157.299 14.1881,77.611 27.3781,302.955 47.1858,226.583"
       id="path2549" /><path
       style="fill:none;stroke:#ffffff;stroke-width:10.7;stroke-dasharray:none"
       d="m 2357.3288,28413.091 c 3.9323,-18.518 30.3147,-51.621 11.7968,-55.554 -18.518,-3.932 -14.6691,36.842 -11.7968,55.554 11.6983,76.208 44.3707,148.322 54.8188,224.711 9.5607,69.902 2.2381,141.099 4.8575,211.604 1.3046,35.114 -5.1065,32.997 13.8784,29.337"
       id="path2551" /><path
       style="fill:none;stroke:#ffffff;stroke-width:10.7;stroke-dasharray:none"
       d="m 3009.6032,28399.983 c 107.9331,144.568 3.1049,355.206 40.9406,504.976"
       id="path2553" /><path
       style="fill:none;stroke:#ffffff;stroke-width:10.7;stroke-dasharray:none"
       d="m 3561.2608,28385.002 c 46.863,119.051 49.8848,248.725 63.1457,374.519 4.2378,40.201 -12.4629,98.432 22.2052,119.222 7.5723,4.541 12.4901,-12.484 18.7351,-18.726"
       id="path2555" /><path
       style="fill:none;stroke:#ffffff;stroke-width:10.7;stroke-dasharray:none"
       d="m 3954.013,28291.372 c -70.8842,54.007 49.6277,-100.758 68.0032,-73.031 30.0059,45.276 41.2782,234.419 41.6343,240.316 9.5086,157.474 16.8323,326.752 -8.3269,483.755"
       id="path2557" /><path
       style="fill:none;stroke:#ffffff;stroke-width:10.7;stroke-dasharray:none"
       d="m 1052.7806,27658.435 c 74.0322,136.771 33.053,297.68 72.1663,441.932"
       id="path2559" /><path
       style="fill:none;stroke:#ffffff;stroke-width:10.7;stroke-dasharray:none"
       d="m 1134.6614,27932.458 c 105.3462,-73.557 74.7939,-69.42 188.7438,-92.381 73.2864,-14.767 112.3595,-13.363 189.4369,-15.605 235.8993,-6.862 471.4655,5.732 707.0931,0.624 133.4312,-2.892 263.8216,-23.797 396.222,-37.452 277.8784,-28.658 553.2451,-51.551 832.6901,-53.057 137.4984,-0.74 272.0972,7.258 408.7127,21.223 45.7226,4.674 102.5689,28.648 149.19,21.847 61.6583,-8.994 77.2298,-358.729 78.4117,-415.092 0.9025,-43.027 -0.2159,-66.243 -3.4692,-106.114 -1.0094,-12.373 -1.588,-48.592 -5.5515,-36.827 -29.3875,87.235 -8.7363,333.188 -6.2452,433.818 1.3557,54.766 8.6511,389.992 17.3476,246.558"
       id="path2561" /><path
       style="fill:none;stroke:#ffffff;stroke-width:10.7;stroke-dasharray:none"
       d="m 2932.5793,26731.501 c -63.3614,41.133 -172.6515,122.694 -157.517,215.972 21.4272,132.065 249.9111,-11.271 265.7668,-23.095 35.0424,-26.132 62.5499,-167.382 -9.0207,-152.928 -42.205,8.523 16.0546,86.887 39.5528,122.966 31.0991,47.751 109.9796,113.303 149.8841,152.305 23.9088,23.367 95.3746,63.872 64.5332,76.776 -8.8239,3.692 -18.9664,2.497 -28.4496,3.745"
       id="path2563" /><path
       style="fill:none;stroke:#ffffff;stroke-width:10.7;stroke-dasharray:none"
       d="m 1096.6476,29364.252 c 62.059,117.682 -28.0653,257.879 34.0012,372.646"
       id="path2565" /><path
       style="fill:none;stroke:#ffffff;stroke-width:10.7;stroke-dasharray:none"
       d="m 1853.0081,29341.157 c -21.8667,57.124 -15.4913,325.303 61.758,333.322"
       id="path2567" /><path
       style="fill:none;stroke:#ffffff;stroke-width:10.7;stroke-dasharray:none"
       d="m 2283.2315,29391.717 c 47.9163,145.221 0.232,307.035 50.6555,450.671"
       id="path2569" /><path
       style="fill:none;stroke:#ffffff;stroke-width:10.7;stroke-dasharray:none"
       d="m 2818.9291,29419.182 c 73.3391,90.323 9.6549,347.164 54.125,443.181"
       id="path2571" /><path
       style="fill:none;stroke:#ffffff;stroke-width:10.7;stroke-dasharray:none"
       d="m 3682.1518,29377.985 c 0,-17.894 17.8938,-53.682 0,-53.682 -17.8938,0 -5.162,36.548 0,53.682 8.6027,28.552 32.3038,51.153 40.2466,79.897 33.424,120.955 15.3376,250.786 43.7165,372.022"
       id="path2573" /><path
       style="fill:none;stroke:#ffffff;stroke-width:10.7;stroke-dasharray:none"
       d="m 3958.3271,29260.635 c 67.8786,102.493 58.6401,222.062 61.7579,338.94"
       id="path2575" /><path
       style="fill:none;stroke:#ffffff;stroke-width:10.7;stroke-dasharray:none"
       d="m 1231.2657,30254.983 c 68.6373,138.834 49.4455,292.434 73.5546,440.06 1.6822,10.301 13.1924,134.998 61.0643,104.241"
       id="path2577" /><path
       style="fill:none;stroke:#ffffff;stroke-width:10.7;stroke-dasharray:none"
       d="m 1701.7363,30318.652 c 50.3505,-113.532 50.0076,-143.607 64.5332,-9.988 10.6646,98.101 12.513,159.848 16.6537,259.667 2.1754,52.438 -8.84,107.242 6.9392,157.298 1.0507,3.332 6.939,-0.832 10.4085,-1.248"
       id="path2579" /><path
       style="fill:none;stroke:#ffffff;stroke-width:10.7;stroke-dasharray:none"
       d="m 2177.7577,30246.868 c 37.9982,164.617 35.8315,338.194 83.9632,499.984"
       id="path2581" /><path
       style="fill:none;stroke:#ffffff;stroke-width:10.7;stroke-dasharray:none"
       d="m 2689.1679,30273.709 c 84.9368,65.214 28.8875,480.744 92.2901,514.964"
       id="path2583" /><path
       style="fill:none;stroke:#ffffff;stroke-width:10.7;stroke-dasharray:none"
       d="m 3585.0042,30326.141 c 69.4703,112.055 9.9439,349.896 113.8013,430.698"
       id="path2585" /><path
       style="fill:none;stroke:#ffffff;stroke-width:10.7;stroke-dasharray:none"
       d="m 4113.0689,30233.76 c 20.8174,-8.114 47.1101,-40.586 62.4517,-24.343 24.8433,26.303 13.0027,71.302 15.9599,107.362 12.9543,157.956 -37.1289,370.892 22.8992,517.46"
       id="path2587" /><path
       style="fill:none;stroke:#ffffff;stroke-width:10.7;stroke-dasharray:none"
       d="m 1278.204,31391.063 c 6.0143,50.352 12.1484,100.69 18.0422,151.056 5.7648,49.263 33.3232,400.213 63.8395,425.704 5.1154,4.273 6.4765,-11.652 9.7147,-17.478"
       id="path2589" /><path
       style="fill:none;stroke:#ffffff;stroke-width:10.7;stroke-dasharray:none"
       d="m 1670.9571,31431.636 c 19.0984,27.465 6.8363,-125.915 24.2866,-97.374 18.4415,30.161 -26.1353,80.459 -24.2866,97.374 4.3291,39.614 37.3629,70.995 48.5732,109.235 9.7365,33.212 17.0382,279.588 79.7994,270.902"
       id="path2591" /><path
       style="fill:none;stroke:#ffffff;stroke-width:10.7;stroke-dasharray:none"
       d="m 2344.7421,31276.835 c 56.6758,209.974 23.7863,437.163 77.0239,646.67"
       id="path2593" /><path
       style="fill:none;stroke:#ffffff;stroke-width:10.7;stroke-dasharray:none"
       d="m 2836.7231,31329.268 c 19.1326,199.863 22.1716,405.577 65.9218,602.352"
       id="path2595" /><path
       style="fill:none;stroke:#ffffff;stroke-width:10.7;stroke-dasharray:none"
       d="m 3547.2858,31354.235 c 67.5994,133.31 57.5444,280.368 71.4732,424.456 0.3437,3.555 8.02,118.654 27.0621,131.081 6.4812,4.23 14.3407,-5.826 21.5111,-8.739"
       id="path2597" /><path
       style="fill:none;stroke:#ffffff;stroke-width:10.7;stroke-dasharray:none"
       d="m 4154.4558,31236.886 c 18.5042,10.196 46.4455,11.504 55.5128,30.586 17.9562,37.791 11.5093,82.889 18.0422,124.216 7.5779,47.939 16.0864,95.728 24.2866,143.565 17.7279,103.422 48.0126,201.668 21.5114,304.609"
       id="path2599" /><path
       style="fill:none;stroke:#ffffff;stroke-width:10.7;stroke-dasharray:none"
       d="m 22.229449,28349.969 c 30.9368,-0.523 355.042251,-63.536 381.649821,-23.095 12.7391,19.362 -55.67311,44.835 -68.00327,50.56 -50.71635,143.382 -58.28646,104.339 -40.24655,231.578 25.33279,178.677 97.47882,349.402 106.16832,530.568 9.1596,190.966 3.3037,383.115 10.4084,574.262 6.2631,168.505 37.9171,334.139 41.6342,503.729 4.8144,219.652 -14.0431,440.36 -4.163,659.777 8.6807,192.781 31.9862,383.59 49.9611,575.511 16.269,173.707 28.8962,345.965 54.8187,518.709 17.0311,113.492 12.1093,90.319 24.9813,159.795 3.4552,18.648 23.7608,44.243 9.0207,56.178 -9.9696,8.072 -67.4412,-7.005 -74.9423,-7.491 -76.3125,-4.942 -151.63825,-1.206 -227.60195,7.491 -22.54668,2.581 -90.41065,13.112 -119.35245,15.604 -7.93338,0.684 -28.95088,2.146 -23.59288,-3.745 23.77727,-26.14 66.8253,-23.501 101.31068,-31.21 156.5746,-34.997 314.9144,-66.549 474.634,-83.018 15.1624,-1.563 207.9676,-21.28 228.2957,-0.624 19.7336,20.052 -48.0484,31.937 -75.6362,37.452"
       id="path2601" /><path
       style="fill:none;stroke:#ffffff;stroke-width:10.7;stroke-dasharray:none"
       d="m -700.72302,31020.586 c -3.63971,-126.188 -23.77937,-416.837 188.74301,-355.169 82.97064,24.076 159.17577,128.105 198.45793,199.12 25.13854,45.446 27.60974,88.925 26.36864,88.012 -82.76177,-60.911 -112.36251,-169.478 -224.13233,-198.496 -169.96863,-44.127 -144.91681,198.023 -122.12819,287.756 1.72759,6.802 15.94585,14.208 19.42943,8.115 8.6205,-15.079 5.11117,-34.446 5.55149,-51.809 1.92844,-76.038 -22.27789,-303.463 52.73686,-354.545 104.22453,-70.972 265.87005,338.637 271.31848,365.781"
       id="path2603" /><path
       style="fill:none;stroke:#ffffff;stroke-width:10.7;stroke-dasharray:none"
       d="m -14.762417,20169.486 c 46.28163,-86.823 61.61849,-217.954 157.994577,-269.239 96.1843,-51.182 203.8007,237.329 208.0432,309.845 1.0907,18.644 -20.3039,-31.38 -29.4399,-47.668 -35.3565,-63.036 -82.7288,-176.121 -160.9388,-212.743 -104.197507,-48.79 -240.008257,269.008 -175.659077,219.805 219.041077,-167.486 -21.64361,-137.951 131.498977,-273.652 20.3823,-18.062 53.9256,-20.214 80.4692,-14.125 163.8627,37.592 194.8259,424.067 128.5552,346.921"
       id="path2675" /><path
       style="fill:none;stroke:#ffffff;stroke-width:10.7;stroke-dasharray:none"
       d="m 591.70266,20122.7 c 47.9831,-158.623 32.2041,-86.38 54.9548,-224.218 12.0353,-72.918 7.1318,-177.065 32.3841,-248.053 9.007,-25.32 16.5296,51.144 24.5332,76.799 26.489,84.908 102.1416,348.886 197.2485,383.114 53.4676,19.242 -57.4637,-36.238 -113.8351,-30.014 -66.2075,7.31 -143.0199,83.666 -195.2855,42.372 -139.0059,-109.825 212.1874,-415.727 266.923,-396.355 43.2319,15.301 29.3255,60.078 23.5518,90.041 -24.6128,127.73 -250.8837,486.385 -246.3147,526.119 1.5328,13.33 50.0389,-27.162 56.9173,-32.662"
       id="path2677" /><path
       style="fill:none;stroke:#ffffff;stroke-width:10.7;stroke-dasharray:none"
       d="m 1031.341,19616.002 c 21.5892,37.075 53.959,69.707 64.7677,111.226 34.4783,132.441 1.6396,389.481 -21.5894,528.767"
       id="path2679" /><path
       style="fill:none;stroke:#ffffff;stroke-width:10.7;stroke-dasharray:none"
       d="m 2132.3986,19969.984 c 74.5046,-15.957 145.5753,-31.842 220.8004,-45.02 126.6989,-22.194 73.6277,54.673 88.3203,22.952"
       id="path2681" /><path
       style="fill:none;stroke:#ffffff;stroke-width:10.7;stroke-dasharray:none"
       d="m 2146.1371,20179.196 c 6.875,3.532 628.1489,-63.776 462.2088,-54.731"
       id="path2683" /><path
       style="fill:none;stroke:#ffffff;stroke-width:10.7;stroke-dasharray:none"
       d="m 3079.3871,19969.984 c 42.6402,-82.943 51.8213,-311.102 181.5478,-320.438 144.1169,-10.371 210.4329,327.028 203.1357,425.486 -1.886,25.446 3.2909,54.022 -9.8134,75.916 -1.737,2.902 -2.7231,-6.335 -2.9438,-9.71 -3.96,-60.564 1.7397,-57.124 3.9251,-127.116 2.6422,-84.624 -19.717,-252.767 -152.1073,-235.694 -179.8572,23.194 -213.1613,37.885 -223.7441,191.556 -4.0471,58.769 -7.3015,119.624 7.8512,176.55 11.1136,41.753 91.1405,-13.971 91.2638,-14.123 69.1174,-85.49 64.0604,-214.659 90.2824,-315.142 60.369,-231.333 243.0421,73.064 258.0921,175.667 5.557,37.886 -8.6977,91.678 -11.7761,90.923 -15.6729,-3.845 28.9176,-312.353 -46.1237,-376.051 -119.4885,-101.429 -259.3989,72.973 -291.456,173.901 -22.0123,69.303 46.6952,297.027 13.7384,204.798"
       id="path2685" /><path
       style="fill:none;stroke:#ffffff;stroke-width:10.7;stroke-dasharray:none"
       d="m 2241.327,19892.302 c -24.8605,13.242 -87.8231,14.864 -74.5817,39.724 13.2413,24.861 46.424,-38.998 74.5817,-39.724 89.8634,-2.316 178.0538,28.116 267.9042,30.896 54.1046,1.675 212.6593,-31.218 161.9207,-12.358 -88.0885,32.744 -211.8138,75.128 -308.1393,39.724 -42.2106,-15.515 -166.3753,-53.237 -121.6856,-58.262 53.8531,-6.056 99.4744,46.833 153.0885,54.731 42.6185,6.278 85.753,-8.371 128.5552,-13.241 13.5289,-1.54 53.7898,-5.779 40.2339,-7.062 -11.4015,-1.08 -22.8976,-0.589 -34.3464,-0.883"
       id="path2687" /><path
       style="fill:none;stroke:#ffffff;stroke-width:10.7;stroke-dasharray:none"
       d="m 2137.3059,20150.948 c 178.5532,1.727 32.9138,4.025 317.9516,-24.717 35.2486,-3.554 70.5815,-6.639 105.9846,-7.945 4.7252,-0.174 16.7199,-0.139 13.7385,3.531 -17.6712,21.753 -51.9805,26.809 -77.5255,25.6"
       id="path2689" /><path
       style="fill:none;stroke:#ffffff;stroke-width:10.7;stroke-dasharray:none"
       d="m 1383.3799,28584.265 c 3.4899,49.23 68.7324,307.859 9.0205,229.081"
       id="path2691" /><path
       style="fill:none;stroke:#ffffff;stroke-width:10.7;stroke-dasharray:none"
       d="m 1339.6636,28723.462 c 74.9414,22.818 144.8533,11.872 217.8873,-8.739"
       id="path2693" /><path
       style="fill:none;stroke:#ffffff;stroke-width:10.7;stroke-dasharray:none"
       d="m 1973.2021,28472.534 c 19.6609,11.444 49.8932,13.477 58.9827,34.331 9.7219,22.306 11.9912,356.215 -34.0021,302.112"
       id="path2695" /><path
       style="fill:none;stroke:#ffffff;stroke-width:10.7;stroke-dasharray:none"
       d="m 1955.1606,28699.118 c -7.2173,-26.568 317.3921,-78.846 222.7443,-11.235"
       id="path2697" /><path
       style="fill:none;stroke:#ffffff;stroke-width:10.7;stroke-dasharray:none"
       d="m 2768.4215,28490.636 c -11.3651,88.795 0.5295,177.096 10.4093,265.284 4.1508,37.053 11.0908,87.092 9.0207,86.764 -9.1144,-1.447 -8.7897,-16.229 -13.1847,-24.344"
       id="path2699" /><path
       style="fill:none;stroke:#ffffff;stroke-width:10.7;stroke-dasharray:none"
       d="m 2669.1925,28620.469 c 80.3092,-1.091 220.3442,-37.268 287.9719,30.586"
       id="path2701" /><path
       style="fill:none;stroke:#ffffff;stroke-width:10.7;stroke-dasharray:none"
       d="m 3288.1595,28501.247 c -58.8428,32.259 46.2997,208.795 9.7144,257.794 -6.7063,8.982 -20.8171,-8.322 -31.2258,-12.484 66.7302,-125.305 18.8276,-110.801 148.4965,-100.496 77.8779,6.19 58.4422,-0.991 99.2291,19.975"
       id="path2703" /><path
       style="fill:none;stroke:#ffffff;stroke-width:10.7;stroke-dasharray:none"
       d="m 3760.0169,28454.432 c 17.7596,90.032 34.7067,180.997 45.798,272.151 2.5538,20.987 13.8909,59.428 -6.9389,63.044 -10.685,1.855 -20.3549,-7.49 -30.5321,-11.236"
       id="path2705" /><path
       style="fill:none;stroke:#ffffff;stroke-width:10.7;stroke-dasharray:none"
       d="m 3694.096,28687.883 c 32.5202,-27.751 369.6358,-76.424 193.6006,28.089"
       id="path2707" /><path
       style="fill:none;stroke:#ffffff;stroke-width:10.7;stroke-dasharray:none"
       d="m 1534.652,29355.151 c -6.6834,105.469 -33.1496,222.406 6.245,320.213"
       id="path2709" /><path
       style="fill:none;stroke:#ffffff;stroke-width:10.7;stroke-dasharray:none"
       d="m 1422.2388,29471.876 c 77.7451,-13.497 177.329,-29.443 243.5616,15.604"
       id="path2711" /><path
       style="fill:none;stroke:#ffffff;stroke-width:10.7;stroke-dasharray:none"
       d="m 2105.7387,29474.372 c -0.6307,16.47 71.255,306.365 8.3267,219.094"
       id="path2713" /><path
       style="fill:none;stroke:#ffffff;stroke-width:10.7;stroke-dasharray:none"
       d="m 2046.0622,29561.136 c 80.5768,-19.048 161.0273,0.763 238.0112,21.223"
       id="path2715" /><path
       style="fill:none;stroke:#ffffff;stroke-width:10.7;stroke-dasharray:none"
       d="m 2537.3503,29519.315 c 50.5989,-11.553 82.4251,260.709 7.6325,220.342"
       id="path2717" /><path
       style="fill:none;stroke:#ffffff;stroke-width:10.7;stroke-dasharray:none"
       d="m 2481.837,29642.282 c 72.1464,-18.195 198.2137,-44.308 259.5224,23.095"
       id="path2719" /><path
       style="fill:none;stroke:#ffffff;stroke-width:10.7;stroke-dasharray:none"
       d="m 3070.272,29456.271 c 37.1639,46.046 164.7809,259.596 38.859,279.017"
       id="path2721" /><path
       style="fill:none;stroke:#ffffff;stroke-width:10.7;stroke-dasharray:none"
       d="m 3028.6377,29671.619 c 70.5691,-55.631 176.6104,-96.917 269.2362,-90.509"
       id="path2723" /><path
       style="fill:none;stroke:#ffffff;stroke-width:10.7;stroke-dasharray:none"
       d="m 3907.1257,29380.743 c 2.0395,78.017 2.1133,162.683 -40.2465,230.953 65.9279,-106.424 124.9633,-104.373 227.6019,-134.202"
       id="path2725" /><path
       style="fill:none;stroke:#ffffff;stroke-width:10.7;stroke-dasharray:none"
       d="m 1506.8956,30307.677 c 23.9427,94.542 33.4812,197.551 39.5529,295.87 0.7538,12.209 -17.5464,-17.076 -25.6749,-26.216"
       id="path2727" /><path
       style="fill:none;stroke:#ffffff;stroke-width:10.7;stroke-dasharray:none"
       d="m 1427.096,30430.02 c 63.6082,4.559 123.5014,5.234 177.6407,39.324"
       id="path2729" /><path
       style="fill:none;stroke:#ffffff;stroke-width:10.7;stroke-dasharray:none"
       d="m 1897.5661,30398.186 c 20.6693,46.091 109.8487,257.146 26.3687,289.004"
       id="path2731" /><path
       style="fill:none;stroke:#ffffff;stroke-width:10.7;stroke-dasharray:none"
       d="m 1883.688,30554.235 c 64.8496,-23.229 124.347,-34.979 189.4371,-23.719"
       id="path2733" /><path
       style="fill:none;stroke:#ffffff;stroke-width:10.7;stroke-dasharray:none"
       d="m 2404.1191,30365.103 c 24.3716,18.907 120.9739,282.223 34.0022,250.928"
       id="path2735" /><path
       style="fill:none;stroke:#ffffff;stroke-width:10.7;stroke-dasharray:none"
       d="m 2384.6902,30528.644 c 4.0453,24.99 206.3856,-90.404 227.6018,-29.962"
       id="path2737" /><path
       style="fill:none;stroke:#ffffff;stroke-width:10.7;stroke-dasharray:none"
       d="m 3007.8202,30395.065 c 18.8384,47.984 95.5096,300.104 11.7962,295.246"
       id="path2739" /><path
       style="fill:none;stroke:#ffffff;stroke-width:10.7;stroke-dasharray:none"
       d="m 2966.1859,30601.05 c 6.6064,9.063 243.3029,-90.47 190.1307,-18.726"
       id="path2741" /><path
       style="fill:none;stroke:#ffffff;stroke-width:10.7;stroke-dasharray:none"
       d="m 3929.3309,30518.032 c 14.4904,80.815 34.8522,93.121 5.5515,71.159"
       id="path2743" /><path
       style="fill:none;stroke:#ffffff;stroke-width:10.7;stroke-dasharray:none"
       d="m 3979.2927,30260.238 c -9.4835,42.238 -24.5065,83.603 -28.4504,126.712 -4.6019,50.302 11.77,189.6 20.1229,240.317 4.7419,28.793 11.996,57.123 18.7359,85.515 8.8239,37.169 17.3885,50.354 11.1022,49.936 -8.7299,-0.582 -13.4151,-11.236 -20.1229,-16.853"
       id="path2745" /><path
       style="fill:none;stroke:#ffffff;stroke-width:10.7;stroke-dasharray:none"
       d="m 3776.6713,30541.752 c -52.6534,46.215 337.3531,-85.667 296.993,-31.21"
       id="path2747" /><path
       style="fill:none;stroke:#ffffff;stroke-width:10.7;stroke-dasharray:none"
       d="m 1528.6806,31529.57 c 0.2683,50.829 15.8091,99.991 18.6455,150.509 0.3894,6.935 2.6836,25.907 -1.9627,20.744 -6.3016,-7.002 -19.5929,-27.034 -25.5146,-35.751 24.8955,-90.552 -2.7127,-83.822 82.9228,-96.661 9.23,-1.383 20.7616,-4.606 27.968,1.324 4.7163,3.882 -3.2711,11.77 -4.9067,17.655"
       id="path2749" /><path
       style="fill:none;stroke:#ffffff;stroke-width:10.7;stroke-dasharray:none"
       d="m 2083.1351,31464.688 c 32.6663,82.809 37.6269,171.127 45.1416,258.646 0.9464,11.024 1.4896,22.08 2.4532,33.103 0.1818,2.077 2.4419,7.668 0.9814,6.179 -6.1553,-6.275 -10.4677,-14.124 -15.7015,-21.186"
       id="path2751" /><path
       style="fill:none;stroke:#ffffff;stroke-width:10.7;stroke-dasharray:none"
       d="m 2043.8818,31629.321 c 27.8183,-3.224 189.4991,-32.503 212.9496,4.414"
       id="path2753" /><path
       style="fill:none;stroke:#ffffff;stroke-width:10.7;stroke-dasharray:none"
       d="m 2634.3773,31381.937 c 17.6638,56.496 38.5019,112.096 52.9918,169.488 6.8281,27.045 10.6637,121.74 11.7763,147.86 0.5511,12.94 1.2457,25.893 0.9814,38.842 -0.065,3.157 0.6225,11.082 -1.963,9.269 -10.9257,-7.663 -17.9909,-19.715 -26.9864,-29.573"
       id="path2755" /><path
       style="fill:none;stroke:#ffffff;stroke-width:10.7;stroke-dasharray:none"
       d="m 2585.3106,31588.059 c 25.2351,-7.719 194.9569,-24.072 173.696,17.655"
       id="path2757" /><path
       style="fill:none;stroke:#ffffff;stroke-width:10.7;stroke-dasharray:none"
       d="m 3181.9621,31544.804 c 11.0088,74.88 92.0523,192.498 35.819,261.294"
       id="path2759" /><path
       style="fill:none;stroke:#ffffff;stroke-width:10.7;stroke-dasharray:none"
       d="m 3129.4608,31726.209 c 10.9371,-5.156 198.3693,-93.377 196.2669,-49.875"
       id="path2761" /><path
       style="fill:none;stroke:#ffffff;stroke-width:10.7;stroke-dasharray:none"
       d="m 3935.1369,31419.012 c 8.3413,-12.947 37.9709,-30.499 25.0238,-38.84 -12.9469,-8.342 -26.8494,23.548 -25.0238,38.84 6.5485,54.855 36.5644,104.532 48.5762,158.454 9.6099,43.14 5.3583,88.241 6.8694,132.412 0.9652,28.221 5.3866,25.118 -12.2666,22.952"
       id="path2763" /><path
       style="fill:none;stroke:#ffffff;stroke-width:10.7;stroke-dasharray:none"
       d="m 3854.1768,31589.824 c -9.4525,-35.72 278.5475,-95.452 218.8377,-6.62"
       id="path2765" /><path
       style="fill:none;stroke:#ffffff;stroke-width:10.7;stroke-dasharray:none"
       d="m 4875.4902,30365.961 c 2.1261,18.096 5.3906,36.095 6.3785,54.289 5.2359,96.408 -16.0136,237.546 4.907,326.617 1.4465,6.159 1.4949,-12.832 0,-18.979"
       id="path2767" /><path
       style="fill:none;stroke:#ffffff;stroke-width:10.7;stroke-dasharray:none"
       d="m 4744.9725,30576.055 c 33.4441,-23.977 243.6535,-60.148 265.9422,-26.923 3.8913,5.8 -7.5236,11.77 -11.2852,17.655"
       id="path2769" /><path
       style="fill:none;stroke:#ffffff;stroke-width:10.7;stroke-dasharray:none"
       d="m 4401.0147,29227.214 c 7.143,106.464 21.8977,212.059 29.4399,318.672 0.3763,5.32 6.272,61.481 2.9443,80.772 -1.1229,6.509 -13.0955,-3.697 -18.1546,-7.945"
       id="path2771" /><path
       style="fill:none;stroke:#ffffff;stroke-width:10.7;stroke-dasharray:none"
       d="m 4298.4649,29470.411 c -13.9235,-7.212 287.9923,-55.751 222.7635,-36.192"
       id="path2773" /><path
       style="fill:none;stroke:#ffffff;stroke-width:10.7;stroke-dasharray:none"
       d="m 4557.5375,28352.409 c 9.3225,20.891 24.2101,40.108 27.968,62.675 0.6107,3.667 28.5824,278.138 -20.6076,291.307 -8.7,2.329 -17.9911,-0.882 -26.9867,-1.324"
       id="path2775" /><path
       style="fill:none;stroke:#ffffff;stroke-width:10.7;stroke-dasharray:none"
       d="m 4457.9319,28559.855 c 20.4809,-27.073 200.4134,-93.006 211.4783,-74.592 2.6971,4.488 -3.9254,9.71 -5.8881,14.565"
       id="path2777" /><path
       style="fill:none;stroke:#ffffff;stroke-width:10.7;stroke-dasharray:none"
       d="m -737.25998,26180.72 c 11.93959,19.862 27.20079,38.073 35.81874,59.586 29.44117,73.492 40.45072,187.727 63.78676,149.184 10.7665,-17.782 38.10492,-132.422 41.70669,-130.205 8.74265,5.381 69.21788,128.511 78.01633,112.55 16.24179,-29.463 20.40589,-59.466 25.51465,-91.364 1.00314,-6.264 1.07952,-22.234 5.88798,-18.096 8.3321,7.169 9.12516,17.785 20.60789,22.51 34.04082,14.007 175.42685,-28.64 163.88313,-86.951 -18.12187,-91.54 -125.75191,-38.497 -136.40572,32.661 -24.94106,166.584 128.83057,207.559 265.94196,153.599 35.04454,-13.792 21.42384,-16.498 5.39734,-30.013"
       id="path2787" /><path
       style="fill:none;stroke:#ffffff;stroke-width:10.7;stroke-dasharray:none"
       d="m 473.21719,26175.865 c 10.1403,-14.124 21.5376,-27.425 30.4211,-42.372 8.8834,-14.946 -20.5164,28.082 -30.4211,42.372 -15.3797,22.189 -43.4104,38.042 -49.0668,64.441 -11.7465,54.822 28.4702,156.473 103.5309,134.619 21.3626,-6.22 37.9449,-23.246 56.9173,-34.868"
       id="path2789" /><path
       style="fill:none;stroke:#ffffff;stroke-width:10.7;stroke-dasharray:none"
       d="m 620.41709,26188.665 c -12.2666,3.531 -40.3308,-1.674 -36.7997,10.593 3.531,12.267 30.8156,-21.868 36.7997,-10.593 31.8495,60.01 -43.5783,91.547 40.7257,86.951 27.5395,-1.502 55.2451,-19.161 73.1093,-38.841 4.3566,-4.8 9.8942,-44.026 3.4349,-35.31 -20.9346,28.247 -10.4143,74.726 -1.963,104.164 9.1287,31.799 21.6655,38.964 25.0243,32.662 13.1734,-24.716 -23.1115,-294.155 30.9117,-199.502 16.8458,29.516 31.5355,60.23 46.1231,90.924 43.2844,91.075 -13.8375,4.905 45.1413,-27.365 34.5765,-18.919 113.4802,125.364 74.0906,97.985"
       id="path2791" /><path
       style="fill:none;stroke:#ffffff;stroke-width:10.7;stroke-dasharray:none"
       d="m 1551.7042,26114.514 c -10.7948,-14.566 -18.2997,-32.281 -32.3842,-43.696 -15.0636,-12.209 -33.2555,23.367 -41.2158,41.048 -19.699,43.752 -35.7965,129.265 18.6452,159.336 56.8296,31.39 95.5934,-37.099 117.27,-73.268 26.8787,-44.85 -91.245,-124.314 -62.3152,-83.42 43.3369,61.26 124.5713,86.139 135.9151,169.929 9.7454,71.985 -41.7092,188.761 -65.7495,183.612 -51.7959,-11.093 -33.2126,-137.484 -31.8937,-172.136"
       id="path2793" /><path
       style="fill:none;stroke:#ffffff;stroke-width:10.7;stroke-dasharray:none"
       d="m 1651.8008,26105.686 c 7.1964,-13.241 13.6017,-26.944 21.5889,-39.723 132.324,-211.728 204.6804,145.651 151.1258,167.281 -26.0527,10.522 -29.9704,-164.829 8.8318,-186.702 10.99,-6.195 30.9965,-2.817 42.6881,-1.765 0.6848,58.761 -2.6505,218.52 108.4379,156.246 55.6559,-31.199 72.7062,-86.443 68.2025,-145.653 -0.9683,-12.731 -9.5585,-43.85 -17.6639,-33.986 -25.9221,31.548 29.8754,193.005 45.632,184.053 7.2074,-4.094 3.5982,-16.183 5.3973,-24.275"
       id="path2795" /><path
       style="fill:none;stroke:#ffffff;stroke-width:10.7;stroke-dasharray:none"
       d="m 2103.2143,26046.101 c 2.4535,-13.977 21.3374,-39.477 7.3605,-41.931 -13.9769,-2.453 -11.4006,28.327 -7.3605,41.931 8.0378,27.062 32.0421,47.185 41.7071,73.709 15.9237,43.701 21.0971,117.657 15.7014,164.192 -0.4053,3.496 -6.2669,-3.919 -7.8509,-7.062 -20.8603,-41.393 -26.0038,-60.602 -39.7439,-101.516"
       id="path2797" /><path
       style="fill:none;stroke:#ffffff;stroke-width:10.7;stroke-dasharray:none"
       d="m 2096.8358,26109.217 c -4.5794,-22.657 -10.699,-45.057 -13.7383,-67.971 -3.8422,-28.967 -11.767,-58.585 -6.8693,-87.393 11.5728,-68.066 121.6697,-9.297 162.4107,65.765 16.4815,30.366 -31.964,203.854 -60.3522,82.979"
       id="path2799" /><path
       style="fill:none;stroke:#ffffff;stroke-width:10.7;stroke-dasharray:none"
       d="m 2231.279,25955.177 c 102.2096,38.879 89.7046,8.113 112.3628,121.379 5.4498,27.243 7.1863,55.203 7.8504,82.978 0.4625,19.337 -4.1098,73.544 -13.2477,56.496 -32.8102,-61.212 42.4101,-218.129 102.0591,-111.226 13.3919,24.001 21.5116,51.305 25.0237,78.564 9.3483,72.555 11.5282,65.56 -12.2666,95.779"
       id="path2801" /><path
       style="fill:none;stroke:#ffffff;stroke-width:10.7;stroke-dasharray:none"
       d="m 2829.4027,25943.26 c -5.0705,18.685 -17.1701,36.794 -15.2109,56.055 2.8385,27.904 21.1603,52.062 28.9497,79.006 4.6871,16.213 77.2541,313.728 -31.4029,180.081"
       id="path2803" /><path
       style="fill:none;stroke:#ffffff;stroke-width:10.7;stroke-dasharray:none"
       d="m 2757.7652,26126.872 c 21.9464,-84.709 139.3248,-20.412 173.206,-92.247 27.3137,25.747 57.9039,48.411 81.941,77.241 6.2736,7.524 1.9835,19.934 6.3791,28.689 3.8558,7.68 21.5746,-56.709 38.2721,-50.758 54.1419,19.297 79.5705,143.25 63.2959,21.627 -2.5354,-18.947 -4.5795,-37.958 -6.8692,-56.937"
       id="path2805" /><path
       style="fill:none;stroke:#ffffff;stroke-width:10.7;stroke-dasharray:none"
       d="m 3143.4298,25986.515 c 7.0332,-12.947 34.0458,-31.808 21.0989,-38.841 -12.9471,-7.033 -35.6647,36.624 -21.0989,38.841 23.6556,3.601 125.1508,-63.469 144.2564,4.855 11.7763,42.115 -79.8452,153.038 -117.7602,166.399 -10.5109,3.704 -21.4802,-6.978 -28.4586,-12.359"
       id="path2807" /><path
       style="fill:none;stroke:#ffffff;stroke-width:10.7;stroke-dasharray:none"
       d="m 3670.8978,25948.557 c -16.0287,7.356 -36.3656,8.89 -48.0856,22.069 -25.2611,28.404 -19.6609,98.111 30.9123,95.337 37.5994,-2.063 68.997,-32.24 90.2825,-59.144 8.8318,-11.164 26.0037,-40.607 11.776,-41.048 -38.9225,-1.209 -26.2593,147.434 32.384,143.888 11.993,-0.726 20.6084,-12.359 30.9123,-18.538"
       id="path2809" /><path
       style="fill:none;stroke:#ffffff;stroke-width:10.7;stroke-dasharray:none"
       d="m 3856.8608,25912.806 c -7.1964,-12.506 -9.0837,-44.714 -21.5893,-37.517 -12.5057,7.196 10.1317,28.747 21.5893,37.517 33.4179,25.577 198.7912,79.989 164.3731,166.839 -28.4318,71.745 -145.3583,126.196 -107.4557,-5.738"
       id="path2811" /><path
       style="fill:none;stroke:#ffffff;stroke-width:10.7;stroke-dasharray:none"
       d="m 4290.6107,25942.819 c -14.9537,-6.896 -1.0991,-52.145 -19.6265,-65.323 -14.0316,-9.981 -33.0766,16.352 -40.7257,31.779 -35.7958,72.194 -16.9937,153.659 84.8857,148.743 18.3192,-0.884 31.3878,-20.493 42.1971,-35.31 24.7909,-33.982 25.6188,-97.106 7.851,-94.013 -14.6405,2.549 2.1217,46.57 30.9118,97.985 7.7515,13.844 20.6081,24.129 30.9123,36.193"
       id="path2813" /><path
       style="fill:none;stroke:#ffffff;stroke-width:10.7;stroke-dasharray:none"
       d="m 4839.1766,25797.165 c -208.1942,134.19 124.8953,144.214 121.1956,242.756 -1.8153,48.348 -111.7812,95.361 -133.4616,37.959 -5.1986,-13.765 -0.3273,-29.425 -0.4911,-44.138"
       id="path2815" /><path
       style="fill:none;stroke:#ffffff;stroke-width:10.7;stroke-dasharray:none"
       d="m 5007.967,25879.702 c -21.9302,63.853 -40.7749,66.632 40.2342,116.965 51.077,31.735 161.7324,-104.084 112.8543,-139.033 -18.4314,-13.179 -19.2088,41.191 6.8686,107.695 2.0404,5.204 107.7454,194.481 42.6889,132.413"
       id="path2817" /><path
       style="fill:none;stroke:#ffffff;stroke-width:10.7;stroke-dasharray:none"
       d="m 5232.2025,25864.696 c 1.4719,-19.274 1.8399,-38.664 4.4159,-57.821 2.5762,-19.157 -13.9375,40.999 -4.4159,57.821 20.8219,36.787 59.827,59.739 89.3013,90.04 12.118,12.458 22.9781,42.141 38.7626,34.869 48.5748,-22.379 -22.405,-143.3 52.5012,-176.992 10.8429,-4.876 -6.4873,22.882 -9.3223,34.428 -8.5921,34.994 -16.4547,96.484 31.4018,112.109 51.4691,16.804 123.1016,-85.834 97.6434,-107.696 -25.3391,-21.759 -23.5651,122.921 10.7948,130.647 24.6353,5.54 22.4311,-120.497 22.5708,-142.122 0.051,-7.945 -2.644,-31.326 0,-23.835 14.1935,40.218 28.1556,76.098 52.011,112.109 6.0679,9.16 12.9042,17.792 19.6257,26.483 1.139,1.473 3.9262,5.834 3.9262,3.973 0,-20.938 -19.6692,-49.808 -10.3048,-71.945 18.2431,-43.123 161.2628,11.98 161.9208,-63.116 0.5247,-59.869 -87.9213,-76.872 -113.8346,-21.186 -45.4668,97.704 216.5533,196.895 198.2298,119.171"
       id="path2819" /><path
       style="fill:none;stroke:#ffffff;stroke-width:10.7;stroke-dasharray:none"
       d="m -440.25452,33335.069 c -17.7505,47.025 -39.43244,65.6 -72.619,11.918 -11.43786,-18.502 -20.24761,-39.143 -24.53312,-60.469 -7.89881,-39.306 3.88343,-80.055 32.87448,-108.578 90.96407,-89.497 324.73172,52.048 207.55258,205.239 -10.19273,13.325 -24.46523,25.442 -40.72549,29.572 -40.61785,10.317 -100.61043,-49.164 -102.54945,-77.682 -2.03949,-29.995 33.36536,-50.022 50.04805,-75.033"
       id="path2823" /><path
       style="fill:none;stroke:#ffffff;stroke-width:10.7;stroke-dasharray:none"
       d="m -343.59302,33177.94 c 19.13995,-24.993 70.26076,-103.932 110.40017,-105.488 41.55043,-1.611 159.203439,195.766 113.34419,237.018 -19.10173,17.183 -50.25192,-25.947 -58.38939,-50.317 -16.77053,-50.224 -10.855,-109.983 33.85598,-143.006 15.71218,-11.604 41.68751,-6.253 59.861529,-7.944"
       id="path2825" /><path
       style="fill:none;stroke:#ffffff;stroke-width:10.7;stroke-dasharray:none"
       d="m -49.192449,33038.465 c 20.607999,10.152 42.8390308,17.521 61.823996,30.456 31.001837,21.122 78.728384,76.189 71.637471,118.288 -4.875741,28.947 -37.579511,71.123 -72.618705,53.848 -32.878527,-16.21 -54.679188,-72.075 -10.3040918,-89.599 45.4861868,-17.964 106.2427988,4.936 155.0508888,-7.504 27.79937,-7.085 73.97527,-55.326 20.11756,-49.434 -82.298351,9.004 -19.73683,183.13 71.63747,131.53 30.28905,-17.104 6.73415,-94.029 1.47185,-114.316 -6.67758,-25.744 -17.03408,-52.243 -14.71993,-52.083 6.51724,0.451 10.53521,7.796 15.21055,12.359 12.68799,12.383 24.34529,25.783 36.80026,38.4 23.85656,24.166 51.6232,44.875 72.12809,71.944 17.69996,23.366 32.36336,49.737 41.21608,77.682 1.61941,5.112 -10.60165,11.452 -14.22932,7.503 -88.84187,-96.706 -25.595,-216.353 82.43218,-179.198"
       id="path2827" /><path
       style="fill:none;stroke:#ffffff;stroke-width:10.7;stroke-dasharray:none"
       d="m 988.07871,33105.996 c 18.06729,-10.472 -24.2172,-78.479 -8.34106,-90.041 5.08722,-3.704 44.62595,35.347 51.51995,42.372 60.1614,61.313 148.9259,161.353 101.5679,256.881 -9.8399,19.848 -40.0775,31.843 -61.3334,25.599 -55.9633,-16.438 -36.7642,-169.013 -34.8372,-176.108 4.6859,-17.253 28.1318,-22.069 42.1976,-33.103"
       id="path2829" /><path
       style="fill:none;stroke:#ffffff;stroke-width:10.7;stroke-dasharray:none"
       d="m 1243.2257,33223.402 c -16.8462,6.768 -32.6922,23.635 -50.5387,20.303 -34.614,-6.463 -62.0279,-113.568 37.2909,-89.158 36.2409,8.907 66.0685,28.561 78.0161,67.089 4.3573,14.051 -7.5298,46.896 -20.1176,39.282 -16.6338,-10.061 -29.7671,-25.011 -44.6507,-37.516 z"
       id="path2831" /><path
       style="fill:none;stroke:#ffffff;stroke-width:10.7;stroke-dasharray:none"
       d="m 1271.6849,33185.444 c 41.3673,-23.93 74.9225,3.105 116.7788,-1.325 31.2029,-3.302 102.3643,-57.237 58.3891,-91.364 -15.123,-11.736 -37.8906,16.504 -46.6132,33.544 -29.4244,57.483 -25.0882,127.347 34.3466,162.868 9.0736,5.422 21.2268,7.274 31.4029,4.413 14.8104,-4.163 26.1689,-16.183 39.2533,-24.275"
       id="path2833" /><path
       style="fill:none;stroke:#ffffff;stroke-width:10.7;stroke-dasharray:none"
       d="m 1526.3412,33111.292 c 12.9209,23.835 20.3468,51.607 38.7628,71.503 23.7407,25.65 125.5549,37.637 102.5492,95.778 -39.7448,100.446 -239.3427,103.356 -203.1359,-1.324"
       id="path2835" /><path
       style="fill:none;stroke:#ffffff;stroke-width:10.7;stroke-dasharray:none"
       d="m 2010.6301,33245.47 c 12.6312,-30.727 26.7018,-147.99 54.4642,-159.777 56.9847,-24.195 85.7269,159.08 90.2828,160.219 2.9733,0.743 3.9253,-4.708 5.888,-7.062"
       id="path2837" /><path
       style="fill:none;stroke:#ffffff;stroke-width:10.7;stroke-dasharray:none"
       d="m 2258.4174,33185.885 c -32.0947,11.659 -65.8293,40.016 -88.8108,-9.71 -7.0392,-15.232 -5.0549,-34.859 1.4719,-50.317 63.0782,-149.396 224.9982,59.005 130.5171,63.558 -14.424,0.695 -28.7854,-2.354 -43.1782,-3.531 z"
       id="path2839" /><path
       style="fill:none;stroke:#ffffff;stroke-width:10.7;stroke-dasharray:none"
       d="m 2344.284,32966.08 c 14.3928,5.444 33.9736,4 43.1787,16.331 13.5771,18.188 57.2852,169.289 39.2533,191.998 -8.7567,11.028 -27.4773,6.179 -41.2157,9.269 14.7211,-112.846 -17.0563,-83.775 96.6612,-101.516 18.2387,-2.845 76.9595,-13.275 33.3654,3.531"
       id="path2841" /><path
       style="fill:none;stroke:#ffffff;stroke-width:10.7;stroke-dasharray:none"
       d="m 3160.7546,32908.26 c 18.6457,26.041 41.4467,49.561 55.9366,78.123 12.369,24.382 16.9854,52.026 23.5519,78.565 5.0638,20.466 8.2743,41.367 11.2855,62.234 15.726,108.981 -35.0036,-93.261 7.3596,-127.557 38.4297,-31.112 75.872,64.277 92.7362,79.447 1.7653,1.588 7.5658,-72.63 35.8185,-82.537 42.086,-14.758 59.6077,119.535 84.3952,83.861"
       id="path2843" /><path
       style="fill:none;stroke:#ffffff;stroke-width:10.7;stroke-dasharray:none"
       d="m 3497.3527,32972.259 c 1.6354,18.097 -5.1073,39.128 4.9067,54.289 43.2546,65.491 80.1656,-21.1 90.283,-48.109 11.3493,-30.298 -2.3355,-84.185 9.3223,-25.159 3.2327,16.368 32.4882,163.707 64.2779,118.288"
       id="path2845" /><path
       style="fill:none;stroke:#ffffff;stroke-width:10.7;stroke-dasharray:none"
       d="m 3695.0917,32890.605 c 13.9073,-156.949 -0.5652,-2.017 0,0 10.2227,36.485 40.0021,65.138 52.011,101.075 4.9961,14.951 0.8623,31.816 -2.4535,47.227 -10.2399,47.591 -57.6233,4.479 -77.5255,-6.621 0,-21.627 -10.5497,-46.002 0,-64.882 8.1568,-14.597 31.3496,-11.71 46.6138,-18.537 14.3672,-6.427 29.3845,-12.045 42.197,-21.186 15.9209,-11.359 28.7859,-26.483 43.1789,-39.724"
       id="path2847" /><path
       style="fill:none;stroke:#ffffff;stroke-width:10.7;stroke-dasharray:none"
       d="m 3829.535,32793.503 c 34.3005,20.782 112.0476,211.572 63.2957,231.721 -8.1201,3.357 -17.0095,-4.413 -25.5143,-6.62"
       id="path2849" /><path
       style="fill:none;stroke:#ffffff;stroke-width:10.7;stroke-dasharray:none"
       d="m 3812.8522,32936.949 c 71.202,-3.664 185.2565,3.326 202.6454,-93.13 1.85,-10.262 2.3958,-23.452 -4.9062,-30.896 -18.6081,-18.971 -51.7114,71.441 -41.707,106.371 13.4715,47.035 77.3977,94.197 100.0961,23.393 10.2682,-32.03 7.4946,-112.038 7.851,-140.798 0.535,-43.152 0.9067,-56.435 6.3785,-54.731 34.8584,10.855 111.8942,188.756 88.8109,222.894 -20.9304,30.954 -70.8994,-16.36 -59.8615,-74.592 21.3202,-112.478 118.077,-130.222 205.0989,-150.067"
       id="path2851" /><path
       style="fill:none;stroke:#ffffff;stroke-width:10.7;stroke-dasharray:none"
       d="m 4820.1924,32642.994 c -29.8612,-45.109 -38.7168,-103.693 0,0 z"
       id="path2853" /><path
       style="fill:none;stroke:#ffffff;stroke-width:10.7;stroke-dasharray:none"
       d="m 4805.9633,32822.192 c 9.6854,64.82 24.1229,128.322 33.3653,193.322 1.632,11.476 5.5134,45.429 7.3599,33.986 1.574,-9.753 1.3087,-19.715 1.963,-29.572"
       id="path2855" /><path
       style="fill:none;stroke:#ffffff;stroke-width:10.7;stroke-dasharray:none"
       d="m 4897.7184,32829.695 c 25.4702,35.282 5.8299,-63.916 27.9681,-60.91 29.3648,3.988 51.7409,105.714 57.8985,126.675 0.8377,2.852 8.3217,37.153 8.3415,37.076 6.5424,-25.64 17.4443,-116.041 40.2347,-127.116 33.9119,-16.48 48.514,112.44 54.9547,137.267"
       id="path2857" /><path
       style="fill:none;stroke:#ffffff;stroke-width:10.7;stroke-dasharray:none"
       d="m 5592.648,32709.996 c 28.5878,-156.615 -2.943,-9.569 0,0 12.347,40.148 51.7467,62.839 66.061,102.085 16.5655,45.418 12.6022,186.787 -46.3418,191.214"
       id="path2859" /><path
       style="fill:none;stroke:#ffffff;stroke-width:10.7;stroke-dasharray:none"
       d="m 5563.0686,32889.292 c 61.3065,-130.291 99.0351,-103.673 210.5075,-100.012"
       id="path2861" /><path
       style="fill:none;stroke:#ffffff;stroke-width:10.7;stroke-dasharray:none"
       d="m -461.66838,16972.277 c 8.66852,18.243 20.81848,35.209 26.00554,54.73 8.88072,33.422 -10.6308,114.249 -11.77594,153.598 -3.23251,111.076 1.56168,222.128 0.49061,333.239 -0.8775,91.03 -2.18757,182.469 -10.30409,273.211 -6.65751,74.43 -20.26235,147.639 -24.04279,222.453 -3.11367,61.618 5.88798,122.888 5.88798,184.494 0,132.994 -4.57138,265.962 -3.92523,399.003 1.12371,231.37 31.86711,457.776 53.48266,687.221 5.20339,55.233 1.93844,112.512 3.9255,167.722 3.91906,108.892 6.82333,217.68 11.28532,326.618 6.7645,165.152 13.37817,327.152 -15.70144,490.809 -3.1108,17.507 -6.53363,34.962 -9.32258,52.523 -7.63475,48.074 -14.50455,95.396 -17.1733,143.888 -0.19953,3.626 -5.27052,58.07 -0.4909,59.145 22.81221,5.128 59.21307,-34.002 82.43218,-39.724 45.42724,-11.196 95.61212,-10.333 141.80308,-14.565 71.03928,-6.509 142.042493,-12.721 213.440543,-13.241 40.11025,-0.293 83.93293,2.834 124.138597,-0.884 164.8643,-15.246 326.8225,-50.997 492.1395,-64.44 373.8778,-30.402 750.03444,-64.441 1125.59184,-64.441 261.2986,0 522.8392,11.567 784.0867,16.773 127.0902,2.532 254.1709,-3.155 381.2487,-0.442 250.8406,5.354 501.8209,10.513 752.6842,14.124 138.1022,1.987 277.7826,-2.634 415.5951,6.179 68.7485,4.397 136.5901,16.398 204.6084,26.924 6.4301,0.995 33.855,10.36 37.2909,-1.766 15.3215,-54.068 0.7818,-116.385 0,-171.253 -2.3945,-168.021 -9.338,-337.773 -6.3786,-505.816 2.5527,-144.947 16.1565,-289.792 15.7014,-434.754 -0.8289,-263.988 -16.0922,-528.111 -33.3652,-791.385 -11.1287,-169.621 -17.8303,-339.222 -34.3467,-508.464 -9.7178,-99.578 -11.0916,-198.608 -16.6833,-298.369 -7.688,-137.163 -17.7252,-275.31 -18.6452,-412.686 -0.6376,-95.224 -8.8876,-187.278 0.4908,-282.48 1.0549,-10.709 1.5436,-87.507 -1.9626,-86.95 -24.9481,3.96 -91.7504,47.314 -125.1204,57.82 -96.6825,30.439 -206.9666,40.583 -307.6485,44.578 -213.4809,8.473 -413.7737,-51.896 -623.6385,-74.15 -209.4048,-22.206 -419.8253,-25.973 -630.0171,-35.311 -202.7026,-9.004 -405.4726,-24.134 -608.4281,-27.365 -364.6901,-5.806 -727.807,7.059 -1092.22594,20.303 -177.5158,6.452 -357.2715,-3.638 -534.3371,10.152 -102.5749,7.989 -202.427097,24.698 -304.213767,37.517 -86.662553,10.914 -174.265193,14.946 -261.035233,25.158 -61.37113,7.224 -119.83463,17.941 -181.54704,20.304 z"
       id="path2895" /><path
       style="fill:none;stroke:#ffffff;stroke-width:10.7;stroke-dasharray:none"
       d="m -206.35517,16215.277 c -9.73307,14.99 -97.74688,129.092 -19.62694,142.564 35.93265,6.197 192.249253,-24.639 187.435003,-81.654 -2.32707,-27.559 -86.956003,-52.408 -67.711963,0.883 34.514183,95.576 157.778743,190.567 72.618713,304.99 -72.675833,97.648 -177.771673,-10.2 -128.554723,-94.896"
       id="path2897" /><path
       style="fill:none;stroke:#ffffff;stroke-width:10.7;stroke-dasharray:none"
       d="m 55.170393,16498.199 c 28.99967,-35.324 30.29497,-53.632 18.64572,-93.131 -5.18699,-58.908 4.70685,-115.119 10.30415,-173.019"
       id="path2899" /><path
       style="fill:none;stroke:#ffffff;stroke-width:10.7;stroke-dasharray:none"
       d="m 113.06946,16169.816 c 12.2159,48.076 13.8769,63.53 38.7627,112.55 11.69,23.027 26.3972,44.402 40.2346,66.206 9.8845,15.576 21.3927,30.102 30.9123,45.903 37.0659,61.525 -35.6304,10.731 -19.627,-17.213 20.5083,-35.811 165.84,-53.052 161.43,-91.806 -6.5768,-57.797 -76.666,-34.981 -101.0778,-9.71 -93.2817,96.564 119.2205,149.976 129.0459,120.936 13.4987,-39.897 -13.1893,-116.041 -20.1176,-151.833 -0.6222,-3.214 -1.7927,-9.465 1.4718,-9.71 30.3755,-2.277 77.6973,77.834 90.7738,99.31 19.2002,31.531 25.2352,72.734 18.6452,54.73 -6.6076,-18.052 -23.4034,-103.37 28.4586,-88.716 39.0802,11.041 131.7736,178.575 96.6618,132.412"
       id="path2901" /><path
       style="fill:none;stroke:#ffffff;stroke-width:10.7;stroke-dasharray:none"
       d="m 991.36426,16499.523 c 7.6644,10.698 19.66134,37.153 28.45864,27.365 35.5508,-39.554 -58.27914,-256.266 -64.27714,-312.494 37.2907,-9.71 73.49294,-32.583 111.87214,-29.13 126.3723,11.368 -69.34424,294.083 -40.7252,113.875"
       id="path2903" /><path
       style="fill:none;stroke:#ffffff;stroke-width:10.7;stroke-dasharray:none"
       d="m 1092.9328,16183.498 c 80.3864,-24.768 218.6135,158.975 143.2749,218.481 -6.0755,4.798 -16.6443,-3.378 -21.0988,-9.71 -16.3153,-23.193 -38.6712,-101.276 -12.2665,-127.116 8.7639,-8.577 23.8789,-5.591 35.8184,-8.387"
       id="path2905" /><path
       style="fill:none;stroke:#ffffff;stroke-width:10.7;stroke-dasharray:none"
       d="m 1335.3226,16320.766 c 3.5982,15.007 -4.212,48.618 10.7947,45.02 44.4418,-10.656 -99.0014,-115.261 -27.968,-125.35 35.3416,-5.02 58.793,51.713 65.2583,75.475 2.9746,10.932 10.9576,38.324 0.4912,33.986 -17.4416,-7.23 -32.3842,-19.421 -48.5762,-29.131 z"
       id="path2907" /><path
       style="fill:none;stroke:#ffffff;stroke-width:10.7;stroke-dasharray:none"
       d="m 1401.5627,16226.753 c 75.1657,35.89 112.4354,366.107 25.5143,171.695"
       id="path2909" /><path
       style="fill:none;stroke:#ffffff;stroke-width:10.7;stroke-dasharray:none"
       d="m 1409.9038,16270.449 c -17.3065,-132.134 128.2163,-100.944 156.0326,-10.151 16.3396,53.332 -50.0942,188.011 -81.9415,90.923 116.1273,-79.988 43.5404,-57.609 149.6535,-52.082 47.4605,2.471 112.6076,-51.922 65.7495,-59.586 -112.0942,-18.333 -59.6492,208.015 45.632,184.053 36.6481,-8.341 16.3393,-92.062 15.2108,-107.695 -1.1761,-16.292 -14.8033,-57.696 -0.9812,-48.993 15.0557,9.481 83.3489,156.574 78.9972,163.75 -5.388,8.886 -32.111,-20.724 -34.8372,-81.213 -4.1503,-92.087 72.802,-95.994 135.424,-126.674 10.8194,-5.301 44.5551,-27.324 33.3653,-44.579 -5.5786,-8.603 -15.3177,17.705 -7.8504,82.096 5.2402,45.186 43.343,128.978 22.5706,172.577 -3.2323,6.784 -14.0658,5.296 -21.0988,7.945"
       id="path2911" /><path
       style="fill:none;stroke:#ffffff;stroke-width:10.7;stroke-dasharray:none"
       d="m 1929.03,16346.807 c 51.9729,-13.366 102.175,-16.385 154.0696,-5.738"
       id="path2913" /><path
       style="fill:none;stroke:#ffffff;stroke-width:10.7;stroke-dasharray:none"
       d="m 2117.9374,16247.939 c 20.2277,29.049 8.9638,-97.726 40.7252,-90.923 34.8817,7.471 67.6475,62.088 97.643,81.654 15.8438,10.335 69.0518,44.475 94.6986,28.689 19.6559,-12.097 7.9889,-49.044 -8.341,-57.82 -46.6407,-25.064 -71.1035,79.561 -32.3842,102.841 21.9377,13.189 50.3751,9.121 75.5627,13.682"
       id="path2915" /><path
       style="fill:none;stroke:#ffffff;stroke-width:10.7;stroke-dasharray:none"
       d="m 2421.1699,16202.036 c 17.9911,24.423 34.0259,50.416 53.9737,73.268 5.2363,5.999 65.0602,49.386 66.24,75.034 2.88,62.616 -179.7788,167.15 -154.5603,6.621"
       id="path2917" /><path
       style="fill:none;stroke:#ffffff;stroke-width:10.7;stroke-dasharray:none"
       d="m 3044.8084,16309.29 c -129.2318,85.76 -115.1877,-108.268 -6.3786,-129.764 32.679,-6.456 50.9747,63.489 47.1038,77.24 -6.0031,21.326 -29.686,33.316 -40.7252,52.524 -11.5729,20.137 -14.1459,44.772 -26.4962,64.441 -3.0347,4.833 -5.6052,-11.494 -3.4348,-16.772 7.1348,-17.353 19.9538,-31.779 29.931,-47.669 z"
       id="path2919" /><path
       style="fill:none;stroke:#ffffff;stroke-width:10.7;stroke-dasharray:none"
       d="m 3185.1389,16149.512 c -12.2663,22.069 -32.3122,41.36 -36.7996,66.206 -15.1143,83.691 170.9322,169.93 56.9172,169.93"
       id="path2921" /><path
       style="fill:none;stroke:#ffffff;stroke-width:10.7;stroke-dasharray:none"
       d="m 3115.9551,16313.262 c 58.4912,-7.473 123.503,-11.931 181.0565,-6.179"
       id="path2923" /><path
       style="fill:none;stroke:#ffffff;stroke-width:10.7;stroke-dasharray:none"
       d="m 3725.3641,16046.231 c -15.295,91.868 9.9571,184.066 2.4535,275.859 -0.9155,11.199 0.9472,38.985 -8.3416,32.662 -6.3775,-4.342 -8.8317,-12.653 -13.2476,-18.979"
       id="path2925" /><path
       style="fill:none;stroke:#ffffff;stroke-width:10.7;stroke-dasharray:none"
       d="m 3606.6228,16206.008 c 32.1149,-24.751 229.2194,-46.882 236.5018,-14.124 2.5754,11.585 -23.4633,4.172 -35.3285,4.414"
       id="path2927" /><path
       style="fill:none;stroke:#ffffff;stroke-width:10.7;stroke-dasharray:none"
       d="m -261.23046,22259.635 c -2.78056,13.241 -5.56109,26.483 -8.34162,39.724 0,0.441 -0.0907,1.756 0,1.324 26.83404,-127.787 -14.90533,-90.924 56.91754,-238.784 2.56026,-5.271 32.82055,-52.265 52.5014,-38.399 63.845014,44.981 53.22895,138.859 50.53896,204.798 -1.21012,29.663 -7.98859,75.858 -1.96276,109.019 3.93057,21.63 8.67124,8.356 9.32257,1.324"
       id="path2933" /><path
       style="fill:none;stroke:#ffffff;stroke-width:10.7;stroke-dasharray:none"
       d="m 16.487161,22268.463 c 13.90224,-30.897 31.559341,-60.365 41.70672,-92.689 18.036037,-57.454 17.665806,-128.458 23.552176,-188.467 0.972953,-9.919 -1.518364,-37.579 4.416108,-29.572 14.738535,19.886 17.352905,46.369 25.514645,69.737 15.11202,43.268 86.83749,173.437 -8.83195,169.046 -27.469678,-1.26 -199.170819,-39.137 -170.26173,-91.806 40.860318,-74.441 199.22635,-137.396 283.60589,-136.384 20.19451,0.242 -12.61893,38.958 -24.04279,55.613 -37.27484,54.342 -79.45858,104.32 -100.586698,168.164 -11.337528,34.259 -42.357436,130.458 -14.720225,107.254"
       id="path2935" /><path
       style="fill:none;stroke:#ffffff;stroke-width:10.7;stroke-dasharray:none"
       d="m 331.00506,22052.63 c 83.51346,-133.291 -55.98509,45.9 -0.49061,123.144 6.55979,9.131 19.222,15.553 30.42137,14.565 62.43571,-5.506 84.64028,-79.018 84.88555,-129.764 0.14989,-31.013 -14.64522,-63.269 -19.13607,-62.675 -15.94458,2.109 -4.8229,30.78 14.72023,60.027 23.97077,35.872 130.7937,121.613 121.6855,163.75 -1.35284,6.259 -7.19646,-10.593 -10.79471,-15.89"
       id="path2937" /><path
       style="fill:none;stroke:#ffffff;stroke-width:10.7;stroke-dasharray:none"
       d="m 742.18444,22030.12 c 24.86057,-3.384 50.16164,-4.393 74.58173,-10.151 61.37825,-14.473 69.62132,-28.28 124.13861,-38.4 4.8438,-0.899 14.58335,-3.601 14.7202,1.324 0.77131,27.756 -67.85523,46.819 -90.77325,56.496"
       id="path2939" /><path
       style="fill:none;stroke:#ffffff;stroke-width:10.7;stroke-dasharray:none"
       d="m 755.43279,22108.685 c 13.24798,10.005 23.41443,27.023 39.74396,30.013 42.32193,7.752 121.2429,-22.621 169.28047,-23.392"
       id="path2941" /><path
       style="fill:none;stroke:#ffffff;stroke-width:10.7;stroke-dasharray:none"
       d="m 1429.6099,21435.147 c 1.9626,28.984 5.0329,57.913 5.8879,86.951 1.1087,37.647 -0.2633,75.329 0,112.992 0.064,9.127 0.4617,18.252 0.9813,27.365 0.1353,2.373 0.5811,9.404 0.9818,7.062 9.0128,-52.694 -20.1472,-98.567 -21.0988,-150.068 -0.5256,-28.44 -6.5476,-63.874 13.2478,-84.302 20.1574,-20.802 203.2071,-21.807 244.3522,-35.751 82.6471,-28.011 64.9259,-59.469 95.19,-74.593 7.0591,-3.528 -6.3688,25.778 -8.3416,86.51 -2.292,70.553 6.6599,129.49 26.9868,196.411 3.1014,10.212 12.2666,40.244 12.2666,29.573 0,-4.887 -2.6168,-9.416 -3.9251,-14.124"
       id="path2943" /><path
       style="fill:none;stroke:#ffffff;stroke-width:10.7;stroke-dasharray:none"
       d="m 1551.2954,21753.819 c 0.029,-15.768 23.795,-148.143 63.2964,-138.15 31.9895,8.093 43.6732,83.479 54.9548,111.668"
       id="path2945" /><path
       style="fill:none;stroke:#ffffff;stroke-width:10.7;stroke-dasharray:none"
       d="m 1601.834,22011.583 c 4.842,-33.95 -15.3625,-86.129 0,0 4.3477,24.374 15.357,47.204 20.1176,71.502 1.6021,8.177 -8.7978,105.446 13.2478,59.586"
       id="path2947" /><path
       style="fill:none;stroke:#ffffff;stroke-width:10.7;stroke-dasharray:none"
       d="m 1459.0497,22175.332 c -9.2362,-43.871 11.5582,-140.933 0,0 -4.3037,52.478 -26.2162,148.636 -3.9249,157.13 50.628,19.292 140.0507,-21.45 189.3975,-32.22 37.8889,-8.27 138.1846,-17.61 171.243,-56.497 15.1585,-17.831 -8.6027,-46.02 -13.7385,-68.854 -8.1793,-36.364 -8.0206,-105.068 -19.627,-136.385"
       id="path2949" /><path
       style="fill:none;stroke:#ffffff;stroke-width:10.7;stroke-dasharray:none"
       d="m 2181.8036,21499.588 c -80.7452,133.997 -116.9715,319.86 -57.4085,470.064 21.6186,54.517 51.072,90.267 63.2963,82.537 14.8072,-9.363 15.3744,-31.485 23.0614,-47.227"
       id="path2951" /><path
       style="fill:none;stroke:#ffffff;stroke-width:10.7;stroke-dasharray:none"
       d="m 2302.5073,21768.385 c -116.8767,116.251 54.3844,71.719 103.0404,24.276 12.4095,-12.101 28.4975,-52.796 11.2853,-50.759 -52.3899,6.202 39.1742,140.328 47.5948,105.489"
       id="path2953" /><path
       style="fill:none;stroke:#ffffff;stroke-width:10.7;stroke-dasharray:none"
       d="m 2481.6012,21530.484 c 18.1549,6.621 40.84,6.157 54.4642,19.862 21.6548,21.782 32.6353,52.276 45.1413,80.33 42.7638,95.929 57.8395,197.915 12.7572,296.604 -3.9905,8.735 -43.207,77.585 -74.5813,76.358 -7.5525,-0.296 -9.4864,-11.77 -14.2296,-17.655"
       id="path2955" /><path
       style="fill:none;stroke:#ffffff;stroke-width:10.7;stroke-dasharray:none"
       d="m 1755.413,22518.281 c -2.8458,-2.908 12.1995,-74.777 9.3229,-56.055 -2.8765,18.722 -11.4602,37.234 -9.3229,56.055 7.2314,63.679 84.196,212.25 -27.968,123.585 -4.1581,-42.795 191.5241,-94.486 131.0085,-49.434"
       id="path2957" /><path
       style="fill:none;stroke:#ffffff;stroke-width:10.7;stroke-dasharray:none"
       d="m 1571.9036,20971.262 c -28.1894,98.599 -58.9531,3.809 -45.1413,-2.207 68.2144,-29.712 53.9673,46.718 26.9867,75.034"
       id="path2959" /><path
       style="fill:none;stroke:#ffffff;stroke-width:10.7;stroke-dasharray:none"
       d="m 1558.6558,21145.605 c -16.2355,69.837 -16.1233,143.76 -5.3974,214.508"
       id="path2961" /><path
       style="fill:none;stroke:#ffffff;stroke-width:10.7;stroke-dasharray:none"
       d="m 2943.3194,21718.951 c 1.1481,-50.106 320.5872,-69.586 169.2802,-7.503"
       id="path2963" /><path
       style="fill:none;stroke:#ffffff;stroke-width:10.7;stroke-dasharray:none"
       d="m 2945.2821,21877.404 c 56.5465,25.975 139.2441,-15.38 196.2671,2.207"
       id="path2965" /><path
       style="fill:none;stroke:#ffffff;stroke-width:10.7;stroke-dasharray:none"
       d="m 872.22326,23710.972 c 7.48868,90.323 13.10089,182.023 2.45364,272.328 -1.34025,11.368 -15.78568,37.545 -4.90673,33.986 84.94467,-27.784 199.97193,-30.454 290.47483,-30.454 40.8293,0 13.3657,-6.675 3.9255,-68.413 -6.2802,-41.072 -7.9489,-98.985 -8.3411,-139.033 -0.098,-9.993 13.5104,-76.111 17.6639,-51.2"
       id="path2973" /><path
       style="fill:none;stroke:#ffffff;stroke-width:10.7;stroke-dasharray:none"
       d="m 1021.3862,23534.864 c -0.4907,14.712 -1.3715,29.417 -1.4719,44.137 -0.4251,62.341 -2.1935,123.838 -4.4161,186.261 -0.7181,20.166 -0.422,41.725 2.4536,42.371 3.4852,0.784 2.2896,-6.767 3.4344,-10.151"
       id="path2975" /><path
       style="fill:none;stroke:#ffffff;stroke-width:10.7;stroke-dasharray:none"
       d="m 982.62346,23335.362 c -9.09209,-99.583 124.38284,-127.757 143.76554,-30.013 3.3769,17.029 0.8032,34.74 0,52.082 -2.1379,46.16 -62.1919,-120.881 -100.0961,-87.834 -10.1933,8.888 -83.48521,130.06 -44.65068,130.647 21.62738,0.328 -7.90442,-45.161 0.98124,-64.882 12.31431,-27.33 35.13244,-49.679 58.88024,-67.971 33.9983,-26.188 78.9205,74.27 75.0724,106.812"
       id="path2977" /><path
       style="fill:none;stroke:#ffffff;stroke-width:10.7;stroke-dasharray:none"
       d="m 852.59686,22994.179 c -7.44831,25.325 -43.24122,177.432 -22.08003,197.295 6.09401,5.72 14.47567,-21.241 30.4211,-50.758 11.91694,-22.06 23.13887,-44.627 37.29088,-65.324 77.06818,-112.71 141.23749,-104.963 259.56309,-122.702 14.4885,-2.172 22.3885,44.796 23.0613,47.227 15.7934,57.086 30.6676,114.579 44.6507,172.137 2.8723,11.823 19.5082,35.068 7.3604,35.751 -6.2142,0.349 -11.1218,-5.591 -16.6827,-8.386"
       id="path2979" /><path
       style="fill:none;stroke:#ffffff;stroke-width:10.7;stroke-dasharray:none"
       d="m 980.66099,22621.659 c -76.92509,-47.198 34.91121,-82.868 28.94921,-58.261 -5.1064,21.076 -19.29946,38.841 -28.94921,58.261 z"
       id="path2981" /><path
       style="fill:none;stroke:#ffffff;stroke-width:10.7;stroke-dasharray:none"
       d="m 1016.4794,22748.334 c 6.1828,45.119 3.0342,88.179 -4.4155,132.412"
       id="path2983" /><path
       style="fill:none;stroke:#ffffff;stroke-width:10.7;stroke-dasharray:none"
       d="m 1061.6213,24217.671 c 1.3083,-12.653 16.5778,-36.65 3.925,-37.959 -12.6529,-1.308 -4.2068,25.242 -3.925,37.959 0.2493,11.248 17.4062,187.77 0.9813,190.232"
       id="path2985" /><path
       style="fill:none;stroke:#ffffff;stroke-width:10.7;stroke-dasharray:none"
       d="m 995.38119,24323.159 c 31.34791,-8.518 190.21331,-43.408 193.32301,-15.448"
       id="path2987" /><path
       style="fill:none;stroke:#ffffff;stroke-width:10.7;stroke-dasharray:none"
       d="m 1700.4705,23207.364 c -128.9363,211.779 -147.961,485.392 24.0427,680.6 48.56,55.111 39.243,51.251 73.5999,60.909"
       id="path2989" /><path
       style="fill:none;stroke:#ffffff;stroke-width:10.7;stroke-dasharray:none"
       d="m 2075.5377,23480.409 c -103.9238,28.282 -133.6998,232.369 16.6828,177.874 16.4121,-5.947 31.9138,-15.428 44.6505,-27.365 15.0601,-14.115 27.5887,-31.216 37.2909,-49.434 12.9554,-24.326 22.4536,-85.856 -4.9067,-82.537 -67.2279,8.154 -11.4278,99.226 8.8316,120.054 19.5064,20.053 65.2602,41.933 71.147,63.999"
       id="path2991" /><path
       style="fill:none;stroke:#ffffff;stroke-width:10.7;stroke-dasharray:none"
       d="m 2406.7384,23670.642 c 25.3992,-58.207 19.5839,-40.88 40.2344,-106.813 11.5556,-36.894 23.5622,-73.704 32.8747,-111.227 7.1287,-28.722 4.73,-29.341 7.3599,-52.523 0.1699,-1.498 0.1331,-5.659 0.9819,-4.414 22.2506,32.657 26.1604,74.669 42.1971,110.785 9.4591,21.303 22.4451,40.869 34.3466,60.91 13.9851,23.55 40.7585,58.399 34.8377,65.324 -19.3077,22.578 -112.1101,-43.27 -129.0461,-51.2 -19.0042,-8.899 -38.1431,-17.64 -57.8985,-24.717 -18.8476,-6.752 -71.1255,-3.072 -57.4082,-17.655 38.7863,-41.234 115.5367,-64.703 165.3548,-81.213 36.5384,-12.109 72.875,-26.185 110.8914,-32.22 22.8362,-3.625 -28.084,36.774 -43.1787,54.289 -42.8599,49.731 -69.8005,85.879 -103.5309,135.943 -10.6321,15.78 -15.8264,36.741 -31.4032,47.669 -12.8648,9.025 -37.3274,-5.617 -46.6129,7.062 -13.4882,18.416 -2.7877,45.83 -8.3418,67.972 -0.621,2.475 -37.2782,46.579 -7.3597,11.475"
       id="path2993" /><path
       style="fill:none;stroke:#ffffff;stroke-width:10.7;stroke-dasharray:none"
       d="m 2751.1867,23286.645 c 100.9711,107.894 36.4389,255.646 48.0856,383.997"
       id="path2995" /><path
       style="fill:none;stroke:#ffffff;stroke-width:10.7;stroke-dasharray:none"
       d="m 2894.9523,22982.538 c 110.6474,69.492 159.6207,192.859 195.286,313.818 53.1588,180.289 39.5925,341.296 -47.1045,506.698 -26.3647,50.299 -57.2503,110.335 -92.2449,155.806"
       id="path2997" /><path
       style="fill:none;stroke:#ffffff;stroke-width:10.7;stroke-dasharray:none"
       d="m 3594.0277,23254.549 c 45.1057,24.708 172.8833,-45.606 218.3466,-25.158 28.3713,12.76 -85.8829,57.29 -103.5304,64.882"
       id="path2999" /><path
       style="fill:none;stroke:#ffffff;stroke-width:10.7;stroke-dasharray:none"
       d="m 3553.7926,23442.575 c 88.2573,12.913 176.908,-1.247 265.4517,-3.972 50.9719,-1.569 33.8073,-6.047 55.4452,0.441"
       id="path3001" /><path
       style="fill:none;stroke:#ffffff;stroke-width:10.7;stroke-dasharray:none"
       d="m -240.40177,25364.866 c -0.98131,-12.506 9.56159,-38.498 -2.94396,-37.517 -12.50556,0.982 6.10034,25.377 2.94396,37.517 -5.08685,19.566 -55.83338,98.347 -54.46387,129.764 0.84365,19.354 30.19251,8.855 36.79997,8.387 64.4698,-4.57 128.64838,-8.726 193.322971,-9.269 26.943182,-0.227 79.00273,17.885 96.170881,-8.828 26.245026,-40.836 -7.13105,-123.981 -13.738701,-168.164 -6.80257,-45.486 -6.144789,-77.77 -15.7014335,-74.151 -5.230151,1.981 -5.7367752,10.014 -10.3038274,13.242"
       id="path3542" /><path
       style="fill:none;stroke:#ffffff;stroke-width:10.7;stroke-dasharray:none"
       d="m -138.3429,25088.566 c -0.59762,9.642 18.20016,310.737 15.70143,189.349"
       id="path3544" /><path
       style="fill:none;stroke:#ffffff;stroke-width:10.7;stroke-dasharray:none"
       d="m -235.49502,24831.244 c 12.26675,-13.388 25.31155,-26.104 36.80026,-40.165 0.13581,-0.167 23.63618,-44.014 39.25332,-42.372 37.5902,3.952 61.213815,81.443 70.165357,108.137 6.504728,19.397 24.252846,77.688 14.7202,59.585 -3.438816,-6.53 -5.88817,-13.535 -8.832242,-20.303"
       id="path3546" /><path
       style="fill:none;stroke:#ffffff;stroke-width:10.7;stroke-dasharray:none"
       d="m -237.94839,24565.536 c -11.12179,24.717 -23.19108,49.029 -33.36536,74.151 -5.87423,14.505 -10.32611,29.56 -14.71994,44.579 -1.42944,4.886 -7.47662,33.707 -7.85071,40.607 -1.21603,22.426 12.05547,-26.903 26.49614,-62.676 5.07299,-12.566 12.73426,-24.111 16.68269,-37.075 5.91796,-19.431 -4.05609,-48.189 12.75718,-59.586 34.38191,-23.306 82.48284,-9.908 123.64828,-15.448 9.53143,-1.283 69.310488,-17.992 79.488188,-12.358 11.409786,6.316 26.0321952,171.742 44.650686,205.239"
       id="path3548" /><path
       style="fill:none;stroke:#ffffff;stroke-width:10.7;stroke-dasharray:none"
       d="m -60.326565,25748.421 c 9.139634,-100.834 -2.524364,-22.371 0,0 5.111644,45.3 58.6505038,174.357 -12.757468,74.151 -5.613364,-132.369 63.6356786,-50.359 143.76557,-45.02"
       id="path3550" /><path
       style="fill:none;stroke:#ffffff;stroke-width:10.7;stroke-dasharray:none"
       d="m 358.21291,24743.852 c 1.79911,15.742 7.53123,31.526 5.39737,47.227 -4.3425,31.951 -19.26942,61.759 -24.53341,93.571 -19.621,118.577 -12.67119,237.98 53.97325,342.507 72.31486,113.421 152.09181,117.884 240.91797,188.909"
       id="path3552" /><path
       style="fill:none;stroke:#ffffff;stroke-width:10.7;stroke-dasharray:none"
       d="m 738.53793,25038.594 c -1.96266,25.599 -3.46742,51.238 -5.88796,76.799 -15.00757,158.477 -20.96262,126.289 163.39248,87.834 23.56353,-4.915 47.07779,-12.66 71.14659,-12.359 17.23623,0.215 7.25943,17.04 19.62695,-0.883 14.61951,-21.187 22.84651,-158.92 18.15451,-188.467 -1.3262,-8.352 -8.63816,14.982 -15.21054,20.303"
       id="path3554" /><path
       style="fill:none;stroke:#ffffff;stroke-width:10.7;stroke-dasharray:none"
       d="m 866.1117,24876.168 c -6.06888,142.837 11.15774,173.973 0,0 z"
       id="path3556" /><path
       style="fill:none;stroke:#ffffff;stroke-width:10.7;stroke-dasharray:none"
       d="m 844.52228,24522.626 c -9.14617,25.877 -79.98034,95.035 -44.16007,126.234 39.12217,34.074 115.19641,-51.107 100.5867,-92.248 -7.34777,-20.691 -64.34013,-54.467 -56.42663,-33.986 14.7873,38.272 47.76634,66.921 75.07208,97.544 11.29782,12.671 72.96256,40.864 60.35212,68.413"
       id="path3558" /><path
       style="fill:none;stroke:#ffffff;stroke-width:10.7;stroke-dasharray:none"
       d="m 766.01533,24339.456 c -5.88799,15.889 -13.39879,31.269 -17.66393,47.668 -4.11996,15.842 -5.49905,32.289 -7.3601,48.551 -2.31505,20.23 -2.99849,43.598 -3.92522,64.441 -0.35973,8.091 -0.68864,-16.182 -0.98124,-24.275 -0.85079,-23.533 -2.79889,-127.503 29.93049,-136.385 22.52318,-6.112 43.94639,16.135 66.73101,21.186 82.98997,18.398 50.97714,-21.065 98.13335,57.82 8.63158,14.439 34.50624,38.554 24.53341,56.496"
       id="path3560" /><path
       style="fill:none;stroke:#ffffff;stroke-width:10.7;stroke-dasharray:none"
       d="m 1253.7392,24603.398 c 56.357,-88.494 58.9907,-184.801 0,0 -17.5989,55.132 -36.3717,110.693 -43.1788,168.164 -8.9078,75.205 13.7492,162.512 48.5761,228.632 31.19,59.215 65.8902,87.619 114.3252,128.881 8.6369,7.358 17.9583,13.873 26.9868,20.745 1.6034,1.221 6.8369,2.953 4.9067,3.531 -6.5628,1.968 -12.842,-4.796 -19.1358,-7.503"
       id="path3562" /><path
       style="fill:none;stroke:#ffffff;stroke-width:10.7;stroke-dasharray:none"
       d="m 1557.4624,24734.486 c -2.4535,16.478 -6.7974,32.784 -7.3604,49.434 -0.5744,16.986 6.6497,112.785 8.3416,130.647 1.9717,20.816 9.6626,82.672 10.7947,61.793 0.3505,-6.464 0,-12.947 0,-19.421"
       id="path3564" /><path
       style="fill:none;stroke:#ffffff;stroke-width:10.7;stroke-dasharray:none"
       d="m 1634.0066,24584.419 c 18.3182,-5.149 37.685,-23.438 54.9548,-15.448 24.0045,11.105 34.9326,40.17 48.0851,63.116 55.1563,96.233 71.4883,202.758 47.1043,311.169 -6.3865,28.394 -18.9746,55.113 -30.9124,81.655 -5.4694,12.161 -8.9982,39.588 -21.0981,33.986 -15.4067,-7.133 -8.1783,-32.956 -12.2671,-49.434"
       id="path3566" /><path
       style="fill:none;stroke:#ffffff;stroke-width:10.7;stroke-dasharray:none"
       d="m 1866.0922,24460.393 c 14.3931,5.002 34.2278,2.675 43.179,15.006 49.4974,68.189 57.926,284.902 63.7862,360.603 10.2778,132.76 37.3029,385.896 -50.5385,491.251"
       id="path3568" /><path
       style="fill:none;stroke:#ffffff;stroke-width:10.7;stroke-dasharray:none"
       d="m 1003.4987,25338.287 c -14.33345,74.905 13.4828,158.948 -2.4534,233.487 -1.99331,9.324 -8.58744,-17.026 -12.75746,-25.599"
       id="path3570" /><path
       style="fill:none;stroke:#ffffff;stroke-width:10.7;stroke-dasharray:none"
       d="m 925.97294,25474.672 c 63.56911,-8.876 143.45136,-34.09 209.02446,-12.358"
       id="path3572" /><path
       style="fill:none;stroke:#ffffff;stroke-width:10.7;stroke-dasharray:none"
       d="m -39.170138,25666.228 c 25.079509,-146.001 -5.33707,37.62 -7.850717,68.414 -1.52273,18.654 -3.115707,62.682 -2.453375,86.509 0.06199,2.23 0.795496,8.844 0.981524,6.621 3.221964,-38.504 -1.279604,-77.36 2.453376,-115.64 4.478919,-45.93 18.884238,-92.314 -9.813475,18.537 322.115125,28.604 20.473274,5.215 146.709546,10.152 4.289728,0.168 8.742791,0.245 12.757459,1.765 11.98092,4.538 -25.469453,3.054 -38.272102,3.532 -23.873877,0.89 -47.938741,5.227 -71.6374689,2.207 -105.2654091,-13.419 12.9734705,-44.122 -122.1761391,13.241 -24.2152,10.277 46.461333,-28.104 72.618705,-30.897 22.670298,-2.421 44.18357,11.627 66.730735,15.008 12.292897,1.843 27.201676,-7.261 37.290867,0 2.524055,1.816 -50.2345198,-3.421 -52.5014174,-3.973"
       id="path3574" /><path
       style="fill:none;stroke:#ffffff;stroke-width:10.7;stroke-dasharray:none"
       d="m -56.343422,25603.995 c 18.930117,72.36 -26.827162,157.562 -0.490617,228.632 3.721999,10.044 -4.919715,-20.925 -8.831977,-30.896"
       id="path3576" /><path
       style="fill:none;stroke:#ffffff;stroke-width:10.7;stroke-dasharray:none"
       d="m -126.01816,25728.021 c 66.373637,3.575 175.799985,-37.589 230.61358,-3.972"
       id="path3578" /><path
       style="fill:none;stroke:#ffffff;stroke-width:10.7;stroke-dasharray:none"
       d="m -276.98496,33995.732 c -60.38305,-38.888 -121.87706,109.936 -70.65624,134.619 58.659,28.268 208.60374,40.335 168.78972,147.42 -67.26344,180.912 -134.90573,33.235 -126.10164,-64.441"
       id="path3849" /><path
       style="fill:none;stroke:#ffffff;stroke-width:10.7;stroke-dasharray:none"
       d="m -70.90466,34203.178 c 105.146315,49.688 11.97483,54.314 6.378734,41.489 -5.59607,-12.824 -3.611986,-27.773 -6.378734,-41.489 -3.857731,-19.124 -38.91052,-119.189 30.912144,-105.047 16.043671,3.249 32.5291971,10.961 43.1787026,23.393 37.7758854,44.097 12.0558714,193.395 -36.3093526,144.771 -17.291923,-17.385 -25.187645,-42.078 -37.781494,-63.117 z"
       id="path3851" /><path
       style="fill:none;stroke:#ffffff;stroke-width:10.7;stroke-dasharray:none"
       d="m 471.77372,34115.786 c -12.43029,9.71 -27.69021,16.615 -37.29088,29.131 -10.29034,13.414 -17.45935,29.733 -20.60789,46.344 -25.3876,133.938 136.29444,-1.709 99.11487,-26.482 -35.68528,-23.778 -65.76259,24.042 -52.99205,54.73 20.03105,48.135 34.77348,47.311 60.84276,89.158 21.72883,34.879 45.92503,81.514 18.15455,120.936 -26.15994,37.136 -77.30101,4.173 -91.75477,-26.041 -10.42504,-21.792 -9.48622,-47.374 -14.22932,-71.061"
       id="path3853" /><path
       style="fill:none;stroke:#ffffff;stroke-width:10.7;stroke-dasharray:none"
       d="m 653.81139,34341.77 c 13.73867,2.354 27.91475,11.23 41.21607,7.062 15.10477,-4.733 -15.49294,-111.925 -21.0988,-125.792 -1.48325,-44.526 -13.70588,-90.712 -3.43458,-135.06 27.31385,30.308 56.89919,58.713 81.94156,90.923 18.45793,23.741 29.35433,52.614 46.61344,77.24 3.57884,5.107 8.76406,18.472 12.75719,13.683 9.2105,-11.047 -8.09889,-44.296 1.96275,-52.524 28.65736,-23.435 113.80002,22.989 146.21892,-29.13 8.62013,-13.859 7.66431,-62.343 -23.55189,-51.2 -114.73038,40.954 50.4637,223.63 47.10406,39.283 -0.59485,-32.641 -15.43714,-64.567 -12.75746,-97.103 0.14447,-1.754 2.79846,2.179 3.9255,3.531 8.69938,10.434 17.68839,20.675 25.51465,31.779 23.9089,33.922 39.7143,58.223 54.4642,95.778 5.1245,13.048 20.6031,44.297 6.8692,41.49 -26.7468,-5.469 -21.3726,-94.278 1.9627,-110.785 8.4986,-6.012 21.2412,2.153 30.4214,7.061 34.2149,18.295 58.5896,49.104 77.5254,82.096 7.6924,13.403 11.8481,28.577 16.6827,43.255 2.0114,6.106 6.8434,24.43 3.4346,18.979 -1.9228,-3.075 -3.2711,-6.473 -4.9067,-9.71"
       id="path3855" /><path
       style="fill:none;stroke:#ffffff;stroke-width:10.7;stroke-dasharray:none"
       d="m 1667.04,34040.752 c -34.7184,-132.254 -0.038,-1.208 0,0 3.175,100.739 -16.1496,122.612 9.8132,210.536"
       id="path3857" /><path
       style="fill:none;stroke:#ffffff;stroke-width:10.7;stroke-dasharray:none"
       d="m 1598.3465,34174.489 c 4.3178,-49.879 116.4832,1.384 126.5924,-41.048"
       id="path3859" /><path
       style="fill:none;stroke:#ffffff;stroke-width:10.7;stroke-dasharray:none"
       d="m 1714.1441,34038.545 c 55.4879,2.349 42.9567,-9.01 78.0161,50.758 20.1086,34.281 27.5905,58.765 33.3653,96.22 0.843,5.467 -1.8373,21.75 -2.944,16.331 -15.1151,-74.024 34.4988,-85.155 71.147,-24.717 23.0613,-18.538 44.1087,-39.906 69.184,-55.613 24.1676,-15.138 99.9793,-6.463 65.7495,-68.854 -21.0228,-38.32 -63.6114,-3.356 -72.6187,24.275 -14.745,45.233 47.9613,115.099 95.68,94.013 19.1148,-8.446 33.0383,-25.6 49.5574,-38.4"
       id="path3861" /><path
       style="fill:none;stroke:#ffffff;stroke-width:10.7;stroke-dasharray:none"
       d="m 2109.1313,33989.553 c -13.4114,8.092 -38.813,8.676 -40.2344,24.275 -1.0996,12.067 134.2454,82.62 152.5974,101.516 47.5448,48.955 -4.7831,147.293 -56.9174,140.799 -62.5052,-7.785 -49.1765,-100.633 -18.1547,-131.088 61.9631,-60.832 109.0756,-23.417 173.2058,-52.965 1.8844,-0.868 47.1861,-23.897 36.3093,-36.634 -26.0718,-30.533 -97.7797,-14.287 -114.3257,19.42 -61.9572,126.219 167.5649,160.243 187.4351,122.261 2.3786,-4.547 -5.2337,-8.827 -7.8504,-13.241"
       id="path3863" /><path
       style="fill:none;stroke:#ffffff;stroke-width:10.7;stroke-dasharray:none"
       d="m 2934.925,33944.533 c -48.4357,-7.356 -37.7746,-17.325 -65.7495,34.868 -84.1174,156.939 75.4751,210.647 163.8832,96.661 0.1635,-36.34 -12.6804,-75.15 0.4906,-109.019 5.4614,-14.044 30.2021,-11.34 44.6507,-7.062 66.5517,19.703 41.0843,182.34 24.5332,78.123"
       id="path3865" /><path
       style="fill:none;stroke:#ffffff;stroke-width:10.7;stroke-dasharray:none"
       d="m 3144.4401,33899.953 c 80.6926,3.345 74.0579,42.959 78.5066,112.993 0.7377,11.609 -0.5781,23.269 -1.4719,34.868 -0.2534,3.293 -2.3503,12.99 -1.9624,9.711 3.6256,-30.661 14.8048,-136.281 52.9918,-146.096 33.85,-8.7 43.6367,163.966 26.4962,98.868"
       id="path3867" /><path
       style="fill:none;stroke:#ffffff;stroke-width:10.7;stroke-dasharray:none"
       d="m 3336.7818,33873.029 c 92.7921,-8.848 213.2008,195.148 84.8853,229.516 -62.1581,16.648 -100.2933,-134.324 23.5524,-124.909"
       id="path3869" /><path
       style="fill:none;stroke:#ffffff;stroke-width:10.7;stroke-dasharray:none"
       d="m 3506.5531,34027.069 c 28.5948,-52.015 44.1944,-75.992 16.6825,-123.584 2.1275,-54.116 18.5259,-93.606 42.1971,-139.033 66.1143,75.023 81.6051,139.852 92.2457,233.487 1.451,12.769 7.972,44.319 -3.4344,38.4 -8.7,-4.515 -14.72,-12.947 -22.08,-19.421"
       id="path3871" /><path
       style="fill:none;stroke:#ffffff;stroke-width:10.7;stroke-dasharray:none"
       d="m 3582.1154,33937.912 c 66.7533,-29.596 130.851,9.345 185.4724,41.489"
       id="path3873" /><path
       style="fill:none;stroke:#ffffff;stroke-width:10.7;stroke-dasharray:none"
       d="m 3765.6254,33860.671 c -7.7989,-33.582 -21.4879,-76.162 -12.2672,-112.109"
       id="path3875" /><path
       style="fill:none;stroke:#ffffff;stroke-width:10.7;stroke-dasharray:none"
       d="m 3908.4096,33878.326 c -1.6354,21.333 2.4535,43.91 -4.9067,64 -14.7709,40.319 -133.8074,-30.623 4.9067,-64 20.6801,-4.976 46.3696,-13.975 63.7866,-1.765 8.6952,6.095 11.888,162.9 -30.9118,94.454"
       id="path3877" /><path
       style="fill:none;stroke:#ffffff;stroke-width:10.7;stroke-dasharray:none"
       d="m 3978.0842,33832.423 c -39.3467,-4.688 32.354,-63.482 45.6324,-46.344 30.1538,38.918 17.4038,139.777 16.1915,165.074 -0.7083,14.781 -3.4867,53.494 -13.2477,42.372 -27.3563,-31.171 50.8518,-137.822 63.2963,-147.861 6.8455,-5.522 18.5242,3.288 24.5332,9.711 58.4822,62.503 21.4611,191.794 62.3146,70.62"
       id="path3879" /><path
       style="fill:none;stroke:#ffffff;stroke-width:10.7;stroke-dasharray:none"
       d="m 4222.9275,33793.582 c -1.7989,19.862 -14.5764,41.881 -5.3972,59.586 23.5521,45.428 118.0335,51.187 133.9522,120.936 8.2034,35.945 -102.4464,135.533 -122.1764,17.214"
       id="path3881" /><path
       style="fill:none;stroke:#ffffff;stroke-width:10.7;stroke-dasharray:none"
       d="m 3791.6305,33881.857 c -8.2526,45.763 -32.2742,103.126 -17.6641,150.068"
       id="path3883" /><path
       style="fill:none;stroke:#ffffff;stroke-width:10.7;stroke-dasharray:none"
       d="m 5083.0678,33959.098 c 11.6126,-26.777 25.9548,-52.529 34.8372,-80.33 4.4114,-13.808 21.1238,-117.114 23.5518,-134.178 2.3437,-16.471 -1.2125,-63.976 6.87,-49.435 24.6517,44.351 48.6706,83.575 81.4503,123.144 17.9991,21.727 49.6674,39.349 51.03,67.531 1.6007,33.112 -172.6547,-27.522 -188.9075,-31.779 -29.4746,-7.72 -59.6135,-12.918 -88.8108,-21.628 -2.8303,-0.844 -7.773,-4.347 -5.8881,-6.621 34.2866,-41.356 117.058,-59.68 165.8456,-73.267 23.1333,-6.443 46.5775,-11.831 70.1657,-16.332 9.8382,-1.877 32.9858,-6.89 29.9304,2.649 -9.0133,28.138 -113.7727,213.589 -120.2131,217.598 -16.9569,10.554 -45.401,-11.13 -59.8615,2.648 -66.1808,63.056 14.7746,72.392 -24.5338,67.089"
       id="path3885" /><path
       style="fill:none;stroke:#ffffff;stroke-width:10.7;stroke-dasharray:none"
       d="m 5475.6018,33669.997 c -23.0077,-134.269 59.3397,-53.927 46.1227,-36.634 -11.9224,15.6 -30.7486,24.423 -46.1227,36.634 z"
       id="path3887" /><path
       style="fill:none;stroke:#ffffff;stroke-width:10.7;stroke-dasharray:none"
       d="m 5492.2845,33732.673 c -3.5983,16.036 -9.4106,31.732 -10.7947,48.109 -2.7929,33.049 18.9659,89.994 23.0614,120.054 10.5481,77.424 4.9834,42.914 20.1173,-19.42"
       id="path3889" /><path
       style="fill:none;stroke:#ffffff;stroke-width:10.7;stroke-dasharray:none"
       d="m 5637.0312,33682.797 c -7.0329,15.89 -27.2703,31.425 -21.0987,47.668 12.6934,33.41 139.1791,22.103 156.5233,93.131 6.8035,27.861 -146.1114,167.911 -204.1178,33.986"
       id="path3891" /><path
       style="fill:none;stroke:#ffffff;stroke-width:10.7;stroke-dasharray:none"
       d="m -354.01978,34614.54 c 6.37868,-12.506 31.64171,-31.139 19.13605,-37.517 -12.50564,-6.379 -10.61136,26.363 -19.13605,37.517 -20.45787,26.767 -52.83173,45.012 -67.22149,75.475 -28.95383,61.294 34.97178,124.831 94.69887,108.578 64.60127,-17.58 108.75838,-86.024 111.38143,-150.068 0.56142,-13.707 -7.4472,-47.87 -32.87461,-39.723 -39.50266,12.656 16.02105,130.2 33.856,142.122 8.18132,5.469 19.62666,-1.471 29.44001,-2.207"
       id="path3893" /><path
       style="fill:none;stroke:#ffffff;stroke-width:10.7;stroke-dasharray:none"
       d="m -127.33142,34570.843 c 20.15355,2.035 42.5795,145.445 46.122827,146.095 7.506097,1.379 11.775942,-9.71 17.6639,-14.565"
       id="path3895" /><path
       style="fill:none;stroke:#ffffff;stroke-width:10.7;stroke-dasharray:none"
       d="m 9.0741711,34539.064 c -83.0966541,184.845 100.2170489,84.735 169.2804689,188.468 36.81984,55.303 -132.496031,144.803 -150.144427,7.062 -3.361399,-26.236 4.906645,-52.671 7.359968,-79.007"
       id="path3897" /><path
       style="fill:none;stroke:#ffffff;stroke-width:10.7;stroke-dasharray:none"
       d="m 230.85604,34618.953 c 98.49665,46.104 8.11329,76.706 -10.79471,65.323 -71.84675,-43.251 -26.75305,-176.437 51.02929,-118.287 13.41744,10.03 26.40502,23.013 31.89351,38.84 11.17055,32.214 -27.93182,186.907 -86.35767,131.089 -17.88004,-17.082 -27.80448,-40.901 -41.70672,-61.351"
       id="path3899" /><path
       style="fill:none;stroke:#ffffff;stroke-width:10.7;stroke-dasharray:none"
       d="m 1062.2611,34561.336 c 2.7756,-17.685 26.0125,-50.281 8.3268,-53.057 -17.6857,-2.775 0.012,37.216 -8.3268,53.057 -25.328,48.116 -68.05863,86.107 -90.90196,135.451 -110.07585,237.777 302.63346,207.159 179.02846,81.146"
       id="path3901" /><path
       style="fill:none;stroke:#ffffff;stroke-width:10.7;stroke-dasharray:none"
       d="m 1296.8021,34739.857 c 1.3878,17.685 -13.5222,54.445 4.1635,53.057 17.6856,-1.388 9.9461,-42.304 -4.1635,-53.057 -52.0051,-39.634 -145.8817,13.644 -71.4724,-74.904 67.8937,-80.795 186.3411,34.396 126.985,65.541"
       id="path3903" /><path
       style="fill:none;stroke:#ffffff;stroke-width:10.7;stroke-dasharray:none"
       d="m 1356.4786,34535.744 c 98.8475,35.903 119.6924,144.599 154.7413,233.45 2.1235,5.383 -3.4978,-11.105 -4.1634,-16.853 -2.8104,-24.271 -5.5242,-48.609 -6.2449,-73.031 -1.0442,-35.378 -1.4149,-86.466 17.3475,-119.847 21.4313,-38.128 87.1764,109.141 92.9838,117.35 0.6817,0.963 -11.9942,-111.822 26.3687,-144.814 45.4551,-39.092 87.0195,166.562 77.7179,107.986"
       id="path3905" /><path
       style="fill:none;stroke:#ffffff;stroke-width:10.7;stroke-dasharray:none"
       d="m 1715.2295,34485.808 c 78.1036,30.337 93.2283,102.827 115.8824,174.151 4.5263,14.251 -6.3942,-29.375 -6.9389,-44.317 -0.6991,-19.182 -11.4226,-124.189 34.0013,-127.961 41.8669,-3.477 60.3687,65.434 75.6362,91.757 6.0947,10.508 2.0455,-24.242 4.1635,-36.204 1.7327,-9.784 9.6401,-69.592 38.165,-54.929 37.6672,19.362 59.5707,64.704 72.1665,102.993 3.5999,10.943 9.2188,45.117 7.6329,33.706 -0.694,-4.993 -1.388,-9.987 -2.082,-14.981"
       id="path3907" /><path
       style="fill:none;stroke:#ffffff;stroke-width:10.7;stroke-dasharray:none"
       d="m 2087.1643,34496.42 c 7.6917,107.594 215.2991,305.575 250.5009,107.986 8.9815,-50.414 -30.5853,-89.159 -24.2867,-137.324"
       id="path3909" /><path
       style="fill:none;stroke:#ffffff;stroke-width:10.7;stroke-dasharray:none"
       d="m 2366.1158,34364.714 c 24.2867,27.256 56.6214,49.073 72.8602,81.769 29.292,58.98 42.3794,124.738 61.064,187.884 12.9079,43.624 14.8227,85.972 17.3476,83.019 18.5643,-21.709 -0.2296,-180.335 43.7166,-195.998 23.5347,-8.389 30.6652,40.876 37.4711,64.916 7.7409,27.343 12.8225,58.891 17.3477,87.388"
       id="path3911" /><path
       style="fill:none;stroke:#ffffff;stroke-width:10.7;stroke-dasharray:none"
       d="m 2722.0905,34505.782 c -15.3877,10.365 -54.27,114.229 3.47,114.229 51.8618,0 83.0971,-65.806 100.6168,-98.623 6.2722,-11.749 10.728,-46.799 -0.694,-39.949 -36.5376,21.911 -27.8762,199.97 56.9005,207.234"
       id="path3913" /><path
       style="fill:none;stroke:#ffffff;stroke-width:10.7;stroke-dasharray:none"
       d="m 2952.4685,34419.019 c 65.9616,84.765 52.6428,47.023 66.6157,174.151 3.9844,36.253 5.5076,72.771 6.2444,109.235 0.1905,9.432 5.3097,31.544 -3.4692,28.089 -12.8164,-5.044 -12.4902,-24.552 -18.7351,-36.828"
       id="path3915" /><path
       style="fill:none;stroke:#ffffff;stroke-width:10.7;stroke-dasharray:none"
       d="m 2932.3448,34560.088 c 68.5411,-12.562 141.4243,-7.751 203.3159,22.471 18.5042,-32.25 37.0085,-64.5 55.5127,-96.75 1.5739,-3.283 -47.5685,-224.551 40.2466,-236.572 25.5586,-3.498 80.1454,235.721 116.5767,300.24 13.9339,24.676 43.9983,97.13 49.2673,69.286 10.0253,-52.98 -42.3036,-117.562 -24.9806,-174.152 2.8136,-9.191 8.6837,12.651 52.7373,23.096 42.3789,10.047 132.4281,11.513 133.9242,-53.057 2.35,-101.417 -195.0136,-50.058 -183.8861,44.318 17.5377,148.742 246.8145,142.193 340.7094,92.381 7.635,-4.05 -2.7759,-17.061 -4.1638,-25.592"
       id="path3917" /><path
       style="fill:none;stroke:#ffffff;stroke-width:10.7;stroke-dasharray:none"
       d="m 4359.792,34426.736 c 54.0573,105.033 51.4271,79.035 70.0847,181.642 5.2641,28.95 10.5963,58.023 12.4907,87.388 2.5278,39.181 -6.4362,70.534 -11.797,70.534 -6.9601,0 -10.5579,-11.143 -10.4082,-18.102 0.6985,-32.475 54.5114,-249.77 131.8427,-166.037 53.6771,58.121 100.9737,143.952 43.7158,217.221 -22.5769,28.891 -44.0936,-1.04 -50.655,-20.598 -14.7347,-43.921 -17.771,-87.459 -2.0815,-131.082 26.3017,-73.129 143.6082,13.674 213.0298,-21.223 44.9173,-22.579 92.1943,-134.795 41.6343,-92.381 -21.268,17.842 -127.7765,179.859 -29.1444,174.151 30.1019,-1.742 56.9005,-19.974 85.3506,-29.961"
       id="path4665" /><path
       style="fill:none;stroke:#ffffff;stroke-width:10.7;stroke-dasharray:none"
       d="m 4957.2476,34529.729 c -30.8681,-20.712 -98.5869,82.38 -42.3288,97.375 54.2046,14.447 175.2888,-74.371 153.3541,-93.006 -57.299,-48.679 -93.5424,287.488 22.2051,180.393"
       id="path4667" /><path
       style="fill:none;stroke:#ffffff;stroke-width:10.7;stroke-dasharray:none"
       d="m 5133.5001,34551.576 c 138.92,126.928 167.3979,205.771 206.0911,-18.726 192.9414,-18.396 135.6576,224.647 27.7561,204.737 -8.5187,-1.572 -21.0396,-11.514 -17.3476,-19.35 71.8497,-152.501 149.5901,-132.854 235.9288,-223.463 15.4471,-16.211 59.7673,-107.75 -5.5507,-93.63 -22.4645,4.856 -39.8907,24.346 -54.8188,41.821 -152.3957,178.4 123.5042,344.37 225.5204,228.457"
       id="path4669" /><path
       style="fill:none;stroke:#ffffff;stroke-width:10.7;stroke-dasharray:none"
       d="m -245.68056,35311.849 c 4.3983,12.387 55.4513,196.65 69.39095,190.381 14.2226,-6.397 23.91701,-125.214 35.38932,-119.222 20.50896,10.712 68.326841,154.922 83.963134,149.807 29.242146,-9.565 20.031921,-101.975 49.9610849,-124.215 58.7208301,-43.636 124.5691411,-30.494 170.0078111,-100.496 14.68366,-22.622 1.75678,-87.352 -32.61358,-89.26 -41.017425,-2.278 -58.984908,49.814 -66.615201,77.4 -36.832169,133.166 94.609711,194.67 206.090541,174.776 71.89571,-12.83 89.16869,-31.471 146.41494,-68.662"
       id="path4671" /><path
       style="fill:none;stroke:#ffffff;stroke-width:10.7;stroke-dasharray:none"
       d="m 1167.8113,35358.664 c -27.7562,-0.416 -59.4983,-15.586 -83.2685,-1.248 -47.1365,28.431 -74.2565,199.068 23.5928,187.884 28.5164,-3.26 52.2745,-23.72 78.4117,-35.58"
       id="path4673" /><path
       style="fill:none;stroke:#ffffff;stroke-width:10.7;stroke-dasharray:none"
       d="m 1273.2858,35374.269 c -124.2705,88.64 -7.3376,103.943 83.2693,96.751 30.3649,-2.41 64.8721,-18.328 75.6355,-49.312 5.9139,-17.023 -1.643,-66.274 -13.1838,-52.433 -16.26,19.502 23.1387,81.384 36.0828,94.255"
       id="path4675" /><path
       style="fill:none;stroke:#ffffff;stroke-width:10.7;stroke-dasharray:none"
       d="m 1471.7433,35291.251 c 26.1372,9.154 56.8644,10.067 78.4117,27.464 19.4911,15.738 26.4551,42.715 36.7774,65.541 45.2521,100.068 -23.6279,66.175 20.8175,-26.84 12.8155,-26.821 29.5108,-57.113 56.9003,-68.662 61.6732,-26.005 160.8832,138.316 143.6395,200.368"
       id="path4677" /><path
       style="fill:none;stroke:#ffffff;stroke-width:10.7;stroke-dasharray:none"
       d="m 2387.0095,35338.69 c -6.4421,100.216 -4.6937,-95.651 -2.7755,-71.783 1.9182,23.869 -11.1879,52.33 2.7755,71.783 146.8853,204.631 128.1059,17.094 170.7015,239.692 1.923,10.049 -0.7165,23.361 -9.0207,29.337 -24.3049,17.491 -63.5434,-149.766 -25.6752,-181.017 51.1225,-42.19 129.2072,12.761 185.9677,-17.478 45.4975,-24.238 83.7488,-169.52 -2.0815,-144.814 -49.6821,14.301 -80.6937,66.081 -90.9024,112.98 -60.3556,277.279 370.8035,252.571 319.1981,93.005"
       id="path4679" /><path
       style="fill:none;stroke:#ffffff;stroke-width:10.7;stroke-dasharray:none"
       d="m 3160.0236,35396.116 c 54.2128,14.279 171.2589,-3.284 200.5398,31.834"
       id="path4681" /><path
       style="fill:none;stroke:#ffffff;stroke-width:10.7;stroke-dasharray:none"
       d="m 3673.5163,35520.956 c -27.7566,-18.102 -63.3132,-27.851 -83.2694,-54.306 -30.4303,-40.339 53.7363,-151.989 102.6983,-134.826 36.9517,12.952 69.8391,40.199 92.9838,71.782 17.0241,23.231 12.5444,164.51 -40.9403,155.426 -26.6128,-4.52 -47.6483,-25.384 -71.4724,-38.076 z"
       id="path4683" /><path
       style="fill:none;stroke:#ffffff;stroke-width:10.7;stroke-dasharray:none"
       d="m 3763.0301,35299.365 c 22.4364,2.289 48.9834,-6.278 67.3095,6.867 17.4686,12.529 50.7436,95.23 58.2885,121.094 4.0288,13.811 8.4701,56.281 2.7755,43.069 -38.2889,-88.829 -6.5432,-199.512 97.1468,-215.972"
       id="path4685" /><path
       style="fill:none;stroke:#ffffff;stroke-width:10.7;stroke-dasharray:none"
       d="m 4071.1258,35223.837 c -4.4792,83.875 99.4862,156.972 76.3301,240.941 -9.2096,33.396 -49.018,48.506 -78.4116,23.095 -25.255,-21.833 -41.7015,-53.28 -54.1248,-84.267 -33.6475,-83.922 230.7638,-49.361 257.4402,-55.553 8.6008,-1.997 14.6211,-10.913 18.7351,-18.726 10.9633,-20.82 8.3018,-91.294 -2.7755,-70.534 -17.2355,32.3 11.3062,107.884 19.4292,131.081 18.5676,53.024 43.7787,82.832 52.0435,58.051 40.0685,-58.219 -5.2025,-131.509 14.5722,-192.878 3.2147,-9.977 15.667,-25.939 24.2866,-19.974 51.8184,35.856 158.8323,175.317 63.1458,179.769 -80.1093,3.727 -24.5566,-115.601 -18.0415,-125.464 36.3742,-55.065 142.6882,-57.961 199.8451,-58.674"
       id="path4687" /><path
       style="fill:none;stroke:#ffffff;stroke-width:10.7;stroke-dasharray:none"
       d="m 5169.5834,35218.219 c 35.4563,120.151 -18.8092,-90.009 -14.5722,-67.413 30.4914,162.613 5.0393,-43.933 1.3878,161.668 -1.0671,60.089 30.9909,137.985 23.5929,197.87 -1.1531,9.334 -17.1638,-8.216 -24.2867,-14.356"
       id="path4689" /><path
       style="fill:none;stroke:#ffffff;stroke-width:10.7;stroke-dasharray:none"
       d="m 5080.0688,35404.855 c -9.9457,-22.055 -30.0339,-41.972 -29.8373,-66.165 0.2103,-25.889 125.2929,-39.296 133.2304,-41.197 38.9421,-9.326 47.135,-12.367 79.1054,-32.459 7.2773,-4.573 17.8218,-20.501 22.2051,-13.108 34.6583,58.458 32.8883,143.387 54.125,207.858 4.9496,15.026 -1.1686,-31.621 -1.3885,-47.439 -0.2135,-15.376 -8.0722,-99.948 11.103,-113.604 8.3026,-5.913 121.3781,76.392 147.8026,76.152 64.5528,-0.587 130.8378,-136.306 50.655,-142.317 -86.2425,-6.465 -193.1535,110.357 -105.4738,143.566 91.4895,34.652 194.2092,-3.633 278.2578,-31.835"
       id="path4691" /><path
       style="fill:none;stroke:#ffffff;stroke-width:10.7;stroke-dasharray:none"
       d="m 265.03626,35894.226 c -27.52503,17.27 -56.62907,32.247 -82.57509,51.809 -182.40128247,137.521 174.32613,-25.322 126.29124,157.298 -15.30319,58.18 -151.57985,292.202 -124.20931,76.776"
       id="path4693" /><path
       style="fill:none;stroke:#ffffff;stroke-width:10.7;stroke-dasharray:none"
       d="m 394.79708,35967.882 c 59.77987,20.09 -28.1449,133.565 9.71491,180.393 51.20844,63.339 160.66977,-133.073 151.96603,-187.884 -1.19475,-7.523 -4.93514,14.893 -4.16383,22.472 5.18287,50.926 45.54014,253.191 77.71781,282.137 6.92576,6.23 15.72858,-9.987 23.59287,-14.98"
       id="path4695" /><path
       style="fill:none;stroke:#ffffff;stroke-width:10.7;stroke-dasharray:none"
       d="m 664.72787,35959.767 c 17.33952,27.968 107.33061,257.046 181.80383,210.355 60.7408,-38.082 59.91442,-165.756 63.14562,-229.705"
       id="path4697" /><path
       style="fill:none;stroke:#ffffff;stroke-width:10.7;stroke-dasharray:none"
       d="m 1052.623,35959.767 c -16.8813,38.319 -79.41774,210.504 30.5321,199.12 71.1881,-7.371 116.07,-94.727 130.4543,-154.177 3.7755,-15.605 3.9462,-57.79 -8.3269,-47.44 -55.9947,47.223 1.8758,198.142 27.0629,238.444 5.4486,8.719 20.3547,2.913 30.532,4.37"
       id="path4699" /><path
       style="fill:none;stroke:#ffffff;stroke-width:10.7;stroke-dasharray:none"
       d="m 1277.4488,36006.582 c 1.388,-18.518 22.6819,-54.166 4.1638,-55.554 -18.5181,-1.388 -17.5242,42.657 -4.1638,55.554 158.1271,152.65 35.2539,-106.304 134.6189,98.623 8.2831,17.083 20.2904,66.82 4.163,56.803 -45.8045,-28.45 -90.0922,-169.493 6.2454,-167.285 63.0634,1.445 214.7637,67.035 233.1534,-29.962 15.6557,-82.577 -134.5854,-102.094 -133.2304,38.7 1.873,194.63 382.3435,225.481 382.3435,116.101"
       id="path4701" /></g></svg>
