<?xml version="1.0" encoding="UTF-8" standalone="no"?>
<!-- Created with Inkscape (http://www.inkscape.org/) -->

<svg
   width="5876.9067mm"
   height="723.85852mm"
   viewBox="0 0 5876.9066 723.85855"
   version="1.1"
   id="svg12"
   inkscape:version="1.2.1 (9c6d41e410, 2022-07-14, custom)"
   sodipodi:docname="variable_diff_equation.svg"
   xml:space="preserve"
   xmlns:inkscape="http://www.inkscape.org/namespaces/inkscape"
   xmlns:sodipodi="http://sodipodi.sourceforge.net/DTD/sodipodi-0.dtd"
   xmlns="http://www.w3.org/2000/svg"
   xmlns:svg="http://www.w3.org/2000/svg"><sodipodi:namedview
     id="namedview14"
     pagecolor="#505050"
     bordercolor="#eeeeee"
     borderopacity="1"
     inkscape:showpageshadow="0"
     inkscape:pageopacity="0"
     inkscape:pagecheckerboard="0"
     inkscape:deskcolor="#505050"
     inkscape:document-units="mm"
     showgrid="true"
     inkscape:zoom="0.041336587"
     inkscape:cx="12724.805"
     inkscape:cy="4040.0046"
     inkscape:window-width="1366"
     inkscape:window-height="746"
     inkscape:window-x="0"
     inkscape:window-y="0"
     inkscape:window-maximized="1"
     inkscape:current-layer="layer1"
     inkscape:lockguides="false"><inkscape:grid
       type="xygrid"
       id="grid344"
       color="#969696"
       opacity="0.39215686"
       empcolor="#000000"
       empopacity="0.17254902"
       dotted="false"
       originx="-3836.935"
       originy="-35246.413" /></sodipodi:namedview><defs
     id="defs9" /><g
     inkscape:label="Layer 1"
     inkscape:groupmode="layer"
     id="layer1"
     transform="translate(-3941.9354,-35394.91)"><path
       style="fill:none;stroke:#ffffff;stroke-width:10.7"
       d="m 4087.3093,35650.341 c -24.4088,66.995 -68.9632,123.977 -105.5394,184.647 -5.7894,9.603 -31.8578,44.988 -34.3884,62.68 -2.1838,15.268 30.7806,-3.027 45.8141,-6.47 34.8328,-7.979 50.1921,-11.52 85.3475,-9.626 41.5529,2.239 84.2319,9.431 123.3208,24.137 4.9198,1.85 17.7873,7.655 23.946,11.538 1.4556,0.918 3.5408,5.267 3.7414,3.557 2.4385,-20.779 -26.334,-63.641 -34.1615,-81.013 -31.4667,-69.833 -58.6873,-130.577 -108.0805,-189.45 z"
       id="path1144" /><path
       style="fill:none;stroke:#ffffff;stroke-width:10.7"
       d="m 4406.3077,35687.463 c -10.4662,-0.396 -21.8749,-5.548 -31.3985,-1.191 -32.4038,14.831 -44.6182,76.524 -41.114,105.227 3.0416,24.914 12.1391,48.772 20.2553,72.523 8.1353,23.807 51.0035,85.169 17.3645,108.97"
       id="path1146" /><path
       style="fill:none;stroke:#ffffff;stroke-width:10.7"
       d="m 4290.7669,35862.83 c 33.3183,-23.686 131.0959,-61.599 166.6703,-38.116"
       id="path1148" /><path
       style="fill:none;stroke:#ffffff;stroke-width:10.7"
       d="m 4610.4049,35649.374 c -10.4731,2.616 -24.3493,-0.309 -31.4196,7.848 -12.7795,14.744 -17.2752,35.268 -22.2938,54.124 -24.1598,90.772 -9.1318,242.121 107.0679,260.1"
       id="path1150" /><path
       style="fill:none;stroke:#ffffff;stroke-width:10.7"
       d="m 4780.1265,35744.737 c -21.0888,42.52 -38.6627,87.17 -52.6387,132.555 -10.0394,32.601 -3.9425,8.153 -1.2516,-24.776"
       id="path1152" /><path
       style="fill:none;stroke:#ffffff;stroke-width:10.7"
       d="m 4707.9373,35739.695 c 0.9426,15.594 -2.8029,32.211 2.8279,46.783 12.295,31.822 54.3768,78.03 89.4206,79.704"
       id="path1154" /><path
       style="fill:none;stroke:#ffffff;stroke-width:10.7"
       d="m 4865.1527,35782.149 c -20.6812,-14.033 -24.333,43.383 -8.7427,47.92 13.3335,3.881 30.7967,-4.744 40.5438,-11.766 8.0388,-5.79 15.5331,-12.62 21.4732,-20.55 37.4311,-49.966 -55.6559,-29.337 -53.2743,-15.604 1.657,9.556 82.9193,65.174 96.56,92.7"
       id="path1156" /><path
       style="fill:none;stroke:#ffffff;stroke-width:10.7"
       d="m 4989.9752,35560.173 c 15.2764,19.459 33.7002,36.814 45.8292,58.376 59.8664,106.425 44.6001,247.393 -16.254,348.197 -21.8435,36.184 -16.6127,30.862 -38.899,45.005"
       id="path1158" /><path
       style="fill:none;stroke:#ffffff;stroke-width:10.7"
       d="m 5326.9835,35824.809 c -4.1996,31.457 -30.5147,51.092 -55.8766,18.384 -20.7702,-26.787 -21.6665,-57.321 -9.0761,-88.046 36.2393,-88.437 183.3557,-12.74 126.1488,70.92 -9.7504,14.259 -23.3447,25.984 -37.7803,35.472 -16.8631,11.083 -85.0169,42.274 -95.3659,-2.462 -2.9328,-12.678 3.943,-25.725 5.9145,-38.588"
       id="path1160" /><path
       style="fill:none;stroke:#ffffff;stroke-width:10.7"
       d="m 5652.7412,35494.227 c -28.7381,40.255 -41.852,86.587 -57.1553,132.649 -2.4134,7.264 -7.1326,29.097 -8.0679,21.499 -0.7086,-5.754 0.4356,-11.587 0.6535,-17.381"
       id="path1162" /><path
       style="fill:none;stroke:#ffffff;stroke-width:10.7"
       d="m 5584.0754,35500.51 c -6.3448,-106.98 -0.3787,-0.657 0,0 7.5818,13.136 28.355,13.066 38.3725,24.455 15.8639,18.036 84.4192,106.2 76.1559,145.487"
       id="path1164" /><path
       style="fill:none;stroke:#ffffff;stroke-width:10.7"
       d="m 5519.8503,35737.703 c 78.0186,-20.919 206.5882,-33.406 285.3857,-16.08"
       id="path1166" /><path
       style="fill:none;stroke:#ffffff;stroke-width:10.7"
       d="m 5679.3652,35846.208 c -41.3743,-41.139 -123.1029,78.795 -68.408,98.594 28.1696,10.197 127.5042,-35.537 110.2507,-65.314 -8.9349,-15.419 -36.5491,-50.296 -41.8427,-33.28 -19.9614,64.168 86.4317,95.477 115.2622,128.254"
       id="path1168" /><path
       style="fill:none;stroke:#ffffff;stroke-width:10.7"
       d="m 5007.1038,35399.445 c 45.9156,28.736 102.5594,2.131 151.5023,14.349 9.9747,2.489 -13.9262,41.576 -15.238,47.157 -6.899,29.352 -5.8332,56.25 -4.2929,86.789 3.3269,65.958 17.9906,129.278 28.8528,194.182 11.0498,66.025 16.8218,131.93 17.911,198.821 0.7398,45.434 1.1586,90.822 2.7268,136.246 0.2452,7.108 0.4927,14.218 0.9643,21.314 0.1376,2.067 3.926,6.808 2.0856,5.856 -43.5131,-22.517 -101.6534,-0.35 -147.1551,7.672"
       id="path1170" /><path
       style="fill:none;stroke:#ffffff;stroke-width:10.7"
       d="m 4349.7525,35469.455 c -10.9092,-2.528 -21.544,-7.019 -32.7279,-7.582 -7.8488,-0.395 -15.3968,3.159 -23.0876,4.772 -44.4008,9.322 -18.5143,11.243 -5.833,64.474 9.8706,41.432 13.2305,58.845 17.7443,102.78 11.2889,109.882 9.6878,216.188 6.0474,326.497 -1.1223,34.013 -4.15,67.077 -11.4226,100.293 -2.4903,11.373 -4.5485,21.59 -9.9789,31.875 -0.508,0.962 -2.2582,3.606 -1.3864,2.955 25.3019,-18.89 83.0101,-34.591 107.5325,-6.71"
       id="path1172" /><path
       style="fill:none;stroke:#ffffff;stroke-width:10.7"
       d="m 6057.7488,35699.192 c 16.6187,13.125 166.3873,-13.485 103.4758,19.001"
       id="path1174" /><path
       style="fill:none;stroke:#ffffff;stroke-width:10.7"
       d="m 6068.5363,35781.515 c 11.391,10.6 144.4195,-3.148 127.9308,14.389"
       id="path1176" /><path
       style="fill:none;stroke:#ffffff;stroke-width:10.7"
       d="m 6557.3129,35629.995 c -74.9174,12.966 -110.3547,79.846 -85.3936,151.781 13.8292,39.854 47.5069,68.213 61.5755,107.3"
       id="path1178" /><path
       style="fill:none;stroke:#ffffff;stroke-width:10.7"
       d="m 6437.8675,35806.15 c 42.7454,-10.353 87.0499,-7.71 129.8605,0.898"
       id="path1180" /><path
       style="fill:none;stroke:#ffffff;stroke-width:10.7"
       d="m 6754.453,35627.565 c -95.1479,59.593 -101.4283,299.208 46.6541,287.615"
       id="path1182" /><path
       style="fill:none;stroke:#ffffff;stroke-width:10.7"
       d="m 6923.6868,35730.04 c -13.3944,-7.857 -57.9683,152.741 -64.9524,148.881 -5.7684,-3.189 -2.4065,-12.961 -3.6099,-19.442"
       id="path1184" /><path
       style="fill:none;stroke:#ffffff;stroke-width:10.7"
       d="m 6862.0723,35741.203 c 2.6066,-10.398 18.2173,-28.587 7.8196,-31.193 -10.3981,-2.607 -12.0759,21.355 -7.8196,31.193 11.4581,26.486 35.2797,45.726 51.4392,69.635 15.1131,22.361 29.2126,50.047 44.1332,72.831"
       id="path1186" /><path
       style="fill:none;stroke:#ffffff;stroke-width:10.7"
       d="m 7081.0031,35683.032 c 6.8725,63.789 5.102,128.671 13.1268,192.336"
       id="path1188" /><path
       style="fill:none;stroke:#ffffff;stroke-width:10.7"
       d="m 7028.4439,35791.279 c 53.1815,-24.572 26.9023,-19.955 77.7753,-18.932"
       id="path1190" /><path
       style="fill:none;stroke:#ffffff;stroke-width:10.7"
       d="m 7184.2185,35727.878 c -3.9158,15.648 -11.6833,30.814 -11.7473,46.944 -0.2084,52.373 108.601,5.579 58.9078,-44.216 -5.2395,-5.249 -1.3822,15.165 0.8565,22.236 12.4497,39.324 39.0479,71.583 66.8137,101.056"
       id="path1192" /><path
       style="fill:none;stroke:#ffffff;stroke-width:10.7"
       d="m 7335.5581,35578.224 c 76.3551,130.961 93.2505,240.49 62.4193,389.541 -4.0328,19.496 -6.9531,21.256 -16.5105,31.419"
       id="path1194" /><path
       style="fill:none;stroke:#ffffff;stroke-width:10.7"
       d="m 7544.6907,35768.933 c 18.2194,3.767 128.7615,-6.931 117.0061,21.836"
       id="path1196" /><path
       style="fill:none;stroke:#ffffff;stroke-width:10.7"
       d="m 7870.1612,35659.352 c -126.2521,62.268 -11.8012,131.967 -40.9326,209.999"
       id="path1198" /><path
       style="fill:none;stroke:#ffffff;stroke-width:10.7"
       d="m 7757.2831,35779.539 c 36.5903,-14.846 64.7723,-10.748 100.91,-3.435"
       id="path1200" /><path
       style="fill:none;stroke:#ffffff;stroke-width:10.7"
       d="m 8023.5399,35657.71 c 67.5433,24.442 6.5518,-32.965 5.6964,-30.819 -3.8689,9.704 -1.2737,21.355 -5.6964,30.819 -10.2812,22.003 -31.7519,38.762 -37.8072,62.28 -12.0735,46.895 35.0103,103.678 62.2497,136.996"
       id="path1202" /><path
       style="fill:none;stroke:#ffffff;stroke-width:10.7"
       d="m 8123.929,35705.968 c -15.2103,18.749 -23.7597,127.641 -53.7346,127.126"
       id="path1204" /><path
       style="fill:none;stroke:#ffffff;stroke-width:10.7"
       d="m 8068.2483,35731.544 c 39.5948,38.08 31.6011,26.108 60.2024,68.793 17.8424,26.628 19.7037,34.399 20.8446,32.063 1.0526,-2.155 -0.1307,-4.795 -0.1959,-7.193"
       id="path1206" /><path
       style="fill:none;stroke:#ffffff;stroke-width:10.7"
       d="m 8191.0289,35591.944 c 47.1484,85.2 66.3316,176.829 36.0789,271.411 -11.5889,36.232 -11.9033,35.535 -26.8274,51.409"
       id="path1208" /><path
       style="fill:none;stroke:#ffffff;stroke-width:10.7"
       d="m 8453.7418,35798.604 c 8.1806,8.189 176.0973,-1.334 127.2448,20.233"
       id="path1210" /><path
       style="fill:none;stroke:#ffffff;stroke-width:10.7"
       d="m 8462.6433,35870.418 c 49.0884,2.913 108.8189,-9.611 155.012,11.02"
       id="path1212" /><path
       style="fill:none;stroke:#ffffff;stroke-width:10.7"
       d="m 9030.0505,35683.226 c -12.9164,29.233 -131.3989,156.429 -132.94,173.014 -0.6995,7.528 114.8008,17.2 128.0371,19.39 40.398,6.684 161.8884,41.256 165.3496,38.108 7.2979,-6.636 -2.2059,-33.724 -4.1798,-38.212 -35.4923,-80.709 -95.1221,-132.074 -156.2669,-192.3 z"
       id="path1214" /><path
       style="fill:none;stroke:#ffffff;stroke-width:10.7"
       d="m 9051.0053,35983.103 c -1.8265,-9.047 3.5681,-28.968 -5.4792,-27.142 -9.0473,1.826 13.6221,22.797 5.4792,27.142 -16.3986,8.752 -38.6542,-7.575 -55.7623,-0.309 -27.2053,11.557 2.6124,78.583 43.1567,87.057 20.53,4.291 50.2505,-22.43 41.256,-44.416 -6.4514,-15.77 -42.4054,-52.387 -28.6504,-42.332 19.4719,14.235 100.4168,98.68 115.3325,133.562"
       id="path1216" /><path
       style="fill:none;stroke:#ffffff;stroke-width:10.7"
       d="m 9439.768,35626.557 c -11.8699,-0.251 -24.7718,-5.598 -35.6098,-0.75 -10.4289,4.664 -16.3103,16.423 -21.8163,26.433 -31.6333,57.509 -8.3263,119.919 11.0982,177.134 6.3016,18.561 16.3214,46.543 13.3535,48.642 -3.6635,2.593 -7.7958,-4.448 -11.6936,-6.671"
       id="path1218" /><path
       style="fill:none;stroke:#ffffff;stroke-width:10.7"
       d="m 9327.304,35802.284 c 40.8478,-16.511 89.55,4.151 130.2951,-8.715"
       id="path1220" /><path
       style="fill:none;stroke:#ffffff;stroke-width:10.7"
       d="m 9619.934,35697.892 c -8.8526,-1.351 -18.3698,-7.678 -26.5579,-4.052 -59.5192,26.36 -52.2101,154.248 3.1043,192.095"
       id="path1222" /><path
       style="fill:none;stroke:#ffffff;stroke-width:10.7"
       d="m 9680.3303,35779.801 c 1.9115,31.192 5.2814,113.003 -37.0901,124.092"
       id="path1224" /><path
       style="fill:none;stroke:#ffffff;stroke-width:10.7"
       d="m 9632.4531,35821.57 c 37.3632,2.306 62.9756,26.783 86.2259,53.765 3.6752,4.264 13.0925,17.69 8.3267,14.693 -2.3691,-1.489 -3.9214,-3.993 -5.882,-5.989"
       id="path1226" /><path
       style="fill:none;stroke:#ffffff;stroke-width:10.7"
       d="m 9743.8896,35651.645 c 68.1734,125.597 105.4444,207.343 20.4036,334.105"
       id="path1228" /></g></svg>
