<?xml version="1.0" encoding="UTF-8" standalone="no"?>
<!-- Created with Inkscape (http://www.inkscape.org/) -->

<svg
   width="281.02185mm"
   height="89.9496mm"
   viewBox="0 0 281.02184 89.949606"
   version="1.1"
   id="svg12"
   inkscape:version="1.2.1 (9c6d41e410, 2022-07-14, custom)"
   sodipodi:docname="wrong_derivative_idea.svg"
   xmlns:inkscape="http://www.inkscape.org/namespaces/inkscape"
   xmlns:sodipodi="http://sodipodi.sourceforge.net/DTD/sodipodi-0.dtd"
   xmlns="http://www.w3.org/2000/svg"
   xmlns:svg="http://www.w3.org/2000/svg">
  <sodipodi:namedview
     id="namedview14"
     pagecolor="#505050"
     bordercolor="#eeeeee"
     borderopacity="1"
     inkscape:showpageshadow="0"
     inkscape:pageopacity="0"
     inkscape:pagecheckerboard="0"
     inkscape:deskcolor="#505050"
     inkscape:document-units="mm"
     showgrid="true"
     inkscape:zoom="0.61842428"
     inkscape:cx="354.12581"
     inkscape:cy="325.01958"
     inkscape:window-width="1366"
     inkscape:window-height="746"
     inkscape:window-x="0"
     inkscape:window-y="0"
     inkscape:window-maximized="1"
     inkscape:current-layer="layer1"
     inkscape:lockguides="false">
    <inkscape:grid
       type="xygrid"
       id="grid344"
       color="#969696"
       opacity="0.39215686"
       empcolor="#000000"
       empopacity="0.17254902"
       dotted="false"
       originx="45.237462"
       originy="109.16114" />
  </sodipodi:namedview>
  <defs
     id="defs9" />
  <g
     inkscape:label="Layer 1"
     inkscape:groupmode="layer"
     id="layer1"
     transform="translate(-59.762542,-39.33888)">
    <path
       style="fill:none;stroke:#00ffff;stroke-width:0.264999"
       d="m 70.037813,86.358486 c 0.207072,0.786466 0.49049,1.556703 0.621215,2.359397 0.19199,1.17889 -0.308015,2.91597 -0.368128,4.097893 -0.08156,1.603614 0,3.197882 0,4.801585 0,0.807196 -0.0078,1.614426 -0.02301,2.421479 -0.0025,0.13128 0.02009,0.51727 -0.023,0.39323 -0.03089,-0.0889 -0.183572,-1.589051 -0.184057,-1.593628"
       id="path1457" />
    <path
       style="fill:none;stroke:#00ffff;stroke-width:0.264999"
       d="m 75.306611,98.693567 c 0.447202,-1.696559 1.384915,-3.905621 -0.322103,-5.174112"
       id="path1459" />
    <path
       style="fill:none;stroke:#00ffff;stroke-width:0.264999"
       d="m 75.720749,89.87688 c -0.446004,-2.615192 -0.443134,-4.670305 0.598209,-7.036801 1.16573,1.635024 2.566811,3.12557 3.497191,4.905071 0.61043,1.167545 0.727145,2.532963 1.058358,3.808143 0.244094,0.93977 0.457263,1.887431 0.667225,2.83541 0.261062,1.178699 0.332879,2.399758 0.667238,3.559796 0.04018,0.139403 0.01887,-0.289605 0.02301,-0.434624 0.07851,-2.754596 0.03909,-3.238747 0.253086,-6.126151 0.103424,-1.395504 0.220153,-2.384593 0.621201,-2.297313 2.100019,0.457023 3.090899,6.360652 3.428187,7.471425 0.04663,0.153551 0.155703,0.586662 0.20705,0.434624 0.678499,-2.009041 -0.08847,-2.055198 0.966336,-3.911629 0.30741,-0.541033 1.012637,-1.421536 1.702591,-0.724373 1.550667,1.566868 1.111702,3.153489 1.33445,5.38107"
       id="path1461" />
    <path
       style="fill:none;stroke:#00ffff;stroke-width:0.264999"
       d="m 64.676993,111.31841 c 0.21474,-0.6002 0.515111,-1.17635 0.64422,-1.80059 0.01869,-0.0904 -0.245003,-0.0662 -0.276092,0.0207 -0.204095,0.57044 0.128657,1.4331 -0.368128,1.77989 -1.16275,0.8117 -2.84438,0.55633 -4.049374,1.30388 -1.420438,0.8812 -0.394501,4.6749 -0.06903,5.60875 0.475838,1.36528 1.54909,2.66984 3.106058,2.66984 0.194282,0 3.039766,-0.47058 1.863629,-1.03482"
       id="path1463" />
    <path
       style="fill:none;stroke:#00ffff;stroke-width:0.264999"
       d="m 68.151178,111.13214 c 0.299103,-0.73127 0.598205,-1.46255 0.897307,-2.19382 0.115036,-0.0138 0.38897,-0.14863 0.345109,-0.0414 -0.322708,0.78899 -1.454973,1.40971 -1.242416,2.23521 3.107936,12.07028 2.660578,-2.08246 2.760936,5.54666 0.01944,1.47799 -0.09999,2.07573 -0.04601,1.80059 0.163229,-0.83204 0.455326,-5.18499 2.185746,-5.21551 2.355458,-0.0416 2.10057,3.25975 1.794613,4.636"
       id="path1465" />
    <path
       style="fill:none;stroke:#00ffff;stroke-width:0.264999"
       d="m 78.619744,117.03063 c 1.377114,1.21135 -2.573367,9.54649 -1.104382,6.02267"
       id="path1467" />
    <path
       style="fill:none;stroke:#00ffff;stroke-width:0.264999"
       d="m 82.554079,110.07662 c 0.884797,1.27308 -0.339345,9.51209 2.254775,6.08476"
       id="path1469" />
    <path
       style="fill:none;stroke:#00ffff;stroke-width:0.264999"
       d="m 86.442401,112.70507 c -5.220375,6.17107 2.098072,3.30236 5.061736,2.31801 0.564221,-0.1874 1.215223,-0.22892 1.679559,-0.60021 0.276847,-0.22137 -0.705572,0.069 -1.058357,0.10349"
       id="path1471" />
    <path
       style="fill:none;stroke:#00ffff;stroke-width:0.264999"
       d="m 89.456437,103.18471 c 1.066027,0.60709 2.322136,0.96239 3.198079,1.82129 3.932854,3.85631 3.579461,13.67549 0.230082,17.84034 -1.1308,1.40611 -1.227497,-0.59967 -1.357455,-1.03482"
       id="path1473" />
    <path
       style="fill:none;stroke:#00ffff;stroke-width:0.264999"
       d="m 101.44351,112.70507 c 1.26543,0.614 2.44904,1.43801 3.7963,1.84199 0.99439,0.29816 2.06975,0.1662 3.10606,0.22766 4.14003,0.24555 -3.69561,-1.07094 -2.3698,-3.95302 0.69448,-1.50969 3.84761,-2.55291 4.85466,-0.78647 1.28354,2.25143 -1.13867,6.47586 -1.88666,8.52694 -0.42305,1.16003 -0.85753,2.78377 -0.80528,2.77333 0.21126,-0.0422 0.29144,-0.31735 0.43716,-0.47602"
       id="path1475" />
    <path
       style="fill:none;stroke:#00ffff;stroke-width:0.264999"
       d="m 124.17525,111.17354 c -0.6979,-0.19317 -1.38933,-0.74753 -2.0937,-0.5795 -0.88356,0.21077 -4.4042,3.11691 -2.99101,4.55322 1.79969,1.82914 5.94233,-0.7615 7.33949,-1.82129 0.54953,-0.41683 2.14431,-1.64472 1.47251,-2.75263 -1.09703,-1.80918 -2.48967,0.30259 -3.72729,0.6002 -1.39905,0.33643 -2.87927,0.13941 -4.30244,0.35184 -1.06329,0.15872 -1.51836,1.17897 -1.4035,0.66228 0.22821,-1.02654 1.38994,-1.5786 2.07071,-2.38009"
       id="path1477" />
    <path
       style="fill:none;stroke:#00ffff;stroke-width:0.264999"
       d="m 123.36998,104.77833 c -0.27265,1.76718 0.23415,15.76146 1.17342,16.08115 0.26504,0.0902 0.23007,-0.51051 0.3451,-0.76577"
       id="path1479" />
    <path
       style="fill:none;stroke:#00ffff;stroke-width:0.264999"
       d="m 134.78187,108.15185 c -0.65189,0.35874 -1.44034,0.53947 -1.95565,1.07622 -0.41211,0.42923 -0.61654,1.06284 -0.66724,1.65572 -0.36141,4.22628 9.56562,0.92937 8.32883,-2.33871 -1.13988,-3.01201 -7.86822,0.22392 -8.69695,0.49672 -1.50428,0.49518 -1.23551,1.17495 0.71323,-0.68298 0.80555,-0.76802 1.48784,-1.65572 2.23177,-2.48358"
       id="path1481" />
    <path
       style="fill:none;stroke:#00ffff;stroke-width:0.264999"
       d="m 136.00129,103.2054 c -0.16872,-0.63469 0.12852,-2.0728 -0.50617,-1.90408 -0.6347,0.16873 0.42281,1.25266 0.50617,1.90408 0.16316,1.27507 0.007,2.58356 0.23008,3.84953 0.54388,3.08727 2.41186,6.25737 2.18573,9.37551"
       id="path1483" />
    <path
       style="fill:none;stroke:#00ffff;stroke-width:0.264999"
       d="m 133.19433,118.66566 c 0.58061,0.88142 -3.75489,8.96487 -2.0707,5.13272"
       id="path1485" />
    <path
       style="fill:none;stroke:#00ffff;stroke-width:0.264999"
       d="m 141.84529,101.4255 c 2.95077,7.49935 2.76119,11.93626 -0.50617,19.53746 -0.5356,1.24601 -1.47173,2.65007 -2.50786,1.46945"
       id="path1487" />
    <path
       style="fill:none;stroke:#00ffff;stroke-width:0.264999"
       d="m 120.448,102.68799 c -0.0101,-0.88002 0.53188,-2.26419 -0.75926,-2.48358 -1.25159,-0.212665 -2.75818,0.70932 -3.58923,1.38666 -4.3896,3.57776 -5.63643,10.59579 -4.69359,15.87419 0.83095,4.65205 3.76328,8.32723 6.81031,11.7349"
       id="path1489" />
    <path
       style="fill:none;stroke:#00ffff;stroke-width:0.264999"
       d="m 176.28802,53.67877 c -3.98906,1.145101 -7.83538,4.647987 -7.20146,9.209928 0.3753,2.700803 0.98573,3.319763 2.43882,5.857097 0.27284,0.47643 0.76533,0.839274 0.92032,1.365968 0.0958,0.32541 -0.68527,-0.01358 -1.01234,-0.103485"
       id="path1491" />
    <path
       style="fill:none;stroke:#00ffff;stroke-width:0.264999"
       d="m 164.04783,67.545395 c -4.89329,-2.774875 16.90432,-3.462233 12.63131,-2.131731"
       id="path1493" />
    <path
       style="fill:none;stroke:#00ffff;stroke-width:0.264999"
       d="m 187.05569,52.726738 c -0.008,-0.5933 0.57027,-1.787576 -0.023,-1.779898 -0.5933,0.0077 0.35262,1.286501 0.023,1.779898 -0.80105,1.199219 -2.48419,1.673008 -3.1751,2.938895 -2.34855,4.303068 -1.50102,11.467807 -0.023,15.812099 0.57002,1.675442 1.47606,3.225686 2.39281,4.739488 0.0404,0.06664 3.54298,4.262545 3.8193,5.256903"
       id="path1495" />
    <path
       style="fill:none;stroke:#00ffff;stroke-width:0.264999"
       d="m 199.91705,60.963925 c -0.61525,0.37293 -7.27652,3.79036 -5.65993,6.540081 1.81495,3.087108 12.03966,-4.312431 8.83503,-5.836402 -6.60692,-3.141943 -2.0117,4.244938 -0.48317,6.188248 0.93456,1.188153 2.99956,2.59718 3.42817,4.139282 0.0343,0.123241 0.0342,0.393187 -0.092,0.372541 -0.64506,-0.105504 -1.03105,-1.164351 -1.24242,-1.552233"
       id="path1497" />
    <path
       style="fill:none;stroke:#00ffff;stroke-width:0.264999"
       d="m 210.06353,60.384427 c 0.34512,-0.731276 0.66826,-1.473335 1.03535,-2.193828 0.0315,-0.06185 0.007,0.14419 -0.023,0.206965 -0.31723,0.672199 -0.97973,1.24428 -1.01232,1.986863 -0.0864,1.96995 0.44453,3.918559 0.66721,5.877791 0.27518,2.421009 0.79111,4.1234 0.16107,3.414921 -8.5608,-7.940637 -0.0716,-2.062596 3.54316,-6.684962 0.78139,-0.999209 0.97384,-2.198289 1.1504,-3.39422 0.0731,-0.495123 -0.15861,-1.854911 0.18407,-1.490143 1.91633,2.03982 3.60367,6.196903 3.22109,9.065054 -0.35531,2.66369 -0.0413,-2.414258 1.28844,-2.607757 1.75959,-0.256051 2.55564,3.359162 2.59988,4.553224"
       id="path1499" />
    <path
       style="fill:none;stroke:#00ffff;stroke-width:0.264999"
       d="m 226.28404,67.027993 c -0.20591,2.977873 -1.29733,5.722462 -2.11672,8.547632"
       id="path1501" />
    <path
       style="fill:none;stroke:#00ffff;stroke-width:0.264999"
       d="m 234.54385,55.562148 c 0.092,1.400461 0.17569,2.801498 0.27609,4.201384 0.20972,2.924004 0.5993,5.807804 0.96634,8.713208 0.0649,0.513331 0.27433,1.99093 0,1.552232 -1.08337,-1.732472 -0.0679,-5.986715 1.95567,-6.70565 1.48017,-0.525874 3.53424,1.382258 3.63524,2.752632 0.42699,5.793488 -10.71605,6.439326 -5.26881,0.496708"
       id="path1503" />
    <path
       style="fill:none;stroke:#00ffff;stroke-width:0.264999"
       d="m 246.09379,56.721151 c 0.2991,1.503943 0.70391,2.990677 0.89729,4.511829 0.34452,2.709876 0.13636,5.700071 -0.55218,5.567347 -1.18806,-0.229011 -2.61757,-2.944922 -3.38215,-3.74606 -0.30817,-0.322908 -1.34591,-0.838219 -0.9203,-0.972733 1.23681,-0.390892 7.60561,1.020932 8.21378,0.37254 0.12754,-0.135973 -0.0154,-0.372536 -0.023,-0.558804"
       id="path1505" />
    <path
       style="fill:none;stroke:#00ffff;stroke-width:0.264999"
       d="m 251.38558,54.81708 c 2.2664,0.595265 2.09491,8.200154 4.25647,7.181669"
       id="path1507" />
    <path
       style="fill:none;stroke:#00ffff;stroke-width:0.264999"
       d="m 257.32161,58.832188 c -0.62121,-0.0069 -1.25276,-0.133737 -1.86363,-0.0207 -2.47454,0.45791 -3.0052,1.497687 -2.80696,1.655718 2.72912,2.175643 5.20339,2.30041 8.37486,2.959597 1.62547,0.337849 2.7398,0.503282 2.59989,0.786463 -0.40098,0.811563 -1.82018,0.0751 -2.71494,-0.06209"
       id="path1509" />
    <path
       style="fill:none;stroke:#00ffff;stroke-width:0.264999"
       d="m 258.63308,44.572328 c 1.18873,-0.0069 2.52796,-0.599663 3.56619,-0.0207 1.28086,0.71427 2.11111,2.141371 2.66893,3.4977 3.39247,8.2488 3.17374,12.823871 -0.32213,20.634378 -1.83896,4.108603 -0.98037,3.72025 -2.76093,4.387642"
       id="path1511" />
    <path
       style="fill:none;stroke:#00ffff;stroke-width:0.264999"
       d="m 279.27108,58.604529 c 2.4471,1.503177 5.11341,-0.52001 7.61561,-0.144875 0.33114,0.04964 -0.7351,0.480379 -0.98934,0.496714"
       id="path1513" />
    <path
       style="fill:none;stroke:#00ffff;stroke-width:0.264999"
       d="m 300.92146,50.429431 c 2.28843,2.26876 0.84227,-2.970395 0.52918,-2.276612 -0.32047,0.710138 0.14426,1.884847 -0.52918,2.276612 -0.95467,0.55537 -2.34399,-0.571134 -3.31313,-0.0414 -0.89506,0.489251 -1.21788,1.688293 -1.49549,2.669841 -0.99472,3.51704 0.93604,6.371096 2.87598,9.044352 0.59396,0.818486 1.55793,1.474424 1.77161,2.462883 0.19957,0.923223 -1.79942,-0.583097 -2.66893,-0.95204"
       id="path1515" />
    <path
       style="fill:none;stroke:#00ffff;stroke-width:0.264999"
       d="m 292.84572,60.156768 c 0.78227,-0.317347 1.51813,-0.790941 2.3468,-0.95204 0.45193,-0.08786 6.1199,-0.393003 6.99438,-0.434624 0.49072,-0.02335 1.89709,0.185048 1.47251,-0.06209 -0.17611,-0.102505 -0.38346,-0.137976 -0.57519,-0.206964"
       id="path1517" />
    <path
       style="fill:none;stroke:#00ffff;stroke-width:0.264999"
       d="m 313.64479,44.282578 c 0.33745,-0.87615 0.6749,-1.752301 1.01235,-2.628451 -0.0537,-0.04829 -0.13511,-0.212261 -0.16106,-0.144875 -0.34756,0.902396 -0.50394,1.870851 -0.85129,2.773326 -1.16458,3.02579 -2.76522,5.89289 -3.68125,9.002964 -1.2848,4.36216 -2.01119,14.338778 3.63524,16.515777"
       id="path1519" />
    <path
       style="fill:none;stroke:#00ffff;stroke-width:0.264999"
       d="m 316.98093,54.423845 c -2.24181,0.598144 -2.93191,0.292405 -4.2104,2.235216 -0.79008,1.200621 -1.37814,2.540396 -0.27612,3.80815 2.67534,3.077684 8.50677,-1.281407 4.9927,-3.5184 -1.57447,-1.002277 -0.45925,1.994657 -0.27607,2.297306 1.15531,1.908795 2.70128,3.095054 4.07237,4.739495"
       id="path1521" />
    <path
       style="fill:none;stroke:#00ffff;stroke-width:0.264999"
       d="m 323.40012,60.819051 c 0.0154,1.428056 0.28917,2.876883 0.046,4.284169 -0.0964,0.55787 -4.11673,7.998651 -1.01234,3.08377"
       id="path1523" />
    <path
       style="fill:none;stroke:#00ffff;stroke-width:0.264999"
       d="m 327.49552,54.672205 c 0.68003,-8.917848 -0.0381,-0.130313 0,0 0.26329,0.898901 4.67082,6.376885 2.853,8.216493 -0.86677,0.877159 -0.56745,-7.463085 1.95564,-5.712222 3.91449,2.716378 -2.63924,13.810552 -2.89899,4.346254"
       id="path1525" />
    <path
       style="fill:none;stroke:#00ffff;stroke-width:0.264999"
       d="m 333.24748,42.854526 c 1.51151,-0.162291 -1.03243,-2.722053 -0.11507,-3.373526 0.11221,-0.07968 2.10553,1.193742 3.17514,3.290742 1.56022,3.058832 3.06892,6.197446 3.93432,9.520365 1.76385,6.77268 -2.35754,15.529526 -8.74297,18.25428"
       id="path1527" />
    <path
       style="fill:none;stroke:#00ffff;stroke-width:0.264999"
       d="m 177.4384,85.675502 c 1.54152,-0.344944 3.04986,-0.910041 4.62458,-1.03483 5.55433,-0.440157 12.8192,1.126505 18.31424,1.407357 4.644,0.237355 9.29439,0.329375 13.94275,0.455332 27.2129,0.73739 54.18447,1.187291 81.37872,0.144874 6.98884,-0.267897 15.57911,-0.718887 22.82379,-0.78647 2.33145,-0.02175 4.66353,0.0044 6.99435,0.0621 2.29026,0.05666 2.75003,0.733676 1.79464,-0.269055"
       id="path1529" />
    <path
       style="fill:none;stroke:#00ffff;stroke-width:0.264999"
       d="m 213.92885,95.506311 c 0.069,-0.5726 0.13803,-1.145201 0.20705,-1.717802 0.008,-0.117277 0.0122,-0.234805 0.023,-0.351832 0.064,-0.691169 -0.19445,1.376421 -0.23006,2.069634 -0.0736,1.433394 -0.10565,2.869647 -0.092,4.304864 0.0681,7.185165 0.60773,14.332005 0.39115,21.524325 -0.0383,1.27029 -0.13539,2.53822 -0.18407,3.80815 -0.0127,0.3309 -0.32591,1.0521 0,0.99343 0.33483,-0.0603 0.0767,-0.67609 0.11503,-1.01414"
       id="path1531" />
    <path
       style="fill:none;stroke:#00ffff;stroke-width:0.264999"
       d="m 232.47315,105.68898 c 0.63655,-0.37944 2.2891,-0.50176 1.90966,-1.13832 -0.37944,-0.63655 -1.27657,0.75314 -1.90966,1.13832 -4.85626,2.95455 -9.59698,3.53068 -4.94669,9.00295 1.87736,2.20919 3.59923,3.34941 5.93603,5.21551 1.05134,0.83958 1.41204,1.3308 1.24242,1.30387 -0.13997,-0.0222 -0.23007,-0.16557 -0.34511,-0.24835"
       id="path1533" />
    <path
       style="fill:none;stroke:#00ffff;stroke-width:0.264999"
       d="m 242.84968,106.68241 c 0.24541,2.06274 0.49118,4.12545 0.73625,6.18823 0.85096,7.16258 -0.0611,-1.55748 2.66893,-1.17969 1.50858,0.20877 1.74455,5.59327 0.78226,4.36695"
       id="path1535" />
    <path
       style="fill:none;stroke:#00ffff;stroke-width:0.264999"
       d="m 252.85809,115.12655 c 0.98787,1.00617 -3.55728,7.80733 -1.31144,5.46388"
       id="path1537" />
    <path
       style="fill:none;stroke:#00ffff;stroke-width:0.264999"
       d="m 258.03485,109.66269 c 0.29911,-0.83476 0.59822,-1.66951 0.89732,-2.50427 0.0537,-0.0345 0.11958,-0.15198 0.16104,-0.10349 1.09396,1.27934 -1.11388,0.73123 -1.05836,2.60776 0.0374,1.26416 1.34674,2.22401 1.51852,3.47701 0.26318,1.91966 -1.16374,6.4025 -0.3221,4.63601"
       id="path1539" />
    <path
       style="fill:none;stroke:#00ffff;stroke-width:0.264999"
       d="m 263.94787,111.58746 c -0.7976,0.47602 -1.62674,0.90279 -2.39281,1.42806 -3.06131,2.09901 1.44502,3.58823 2.99101,4.30486 0.36787,0.17052 3.29716,1.53554 0.52918,0.47603"
       id="path1541" />
    <path
       style="fill:none;stroke:#00ffff;stroke-width:0.264999"
       d="m 270.29804,100.55626 c 3.8662,8.52354 -1.01467,17.59965 -0.23007,26.30519"
       id="path1543" />
  </g>
</svg>
