<?xml version="1.0" encoding="UTF-8" standalone="no"?>
<!-- Created with Inkscape (http://www.inkscape.org/) -->

<svg
   width="9001.3242mm"
   height="4179.6328mm"
   viewBox="0 0 9001.324 4179.6329"
   version="1.1"
   id="svg12"
   inkscape:version="1.2.1 (9c6d41e410, 2022-07-14, custom)"
   sodipodi:docname="zoomed_in_router_model.svg"
   xml:space="preserve"
   xmlns:inkscape="http://www.inkscape.org/namespaces/inkscape"
   xmlns:sodipodi="http://sodipodi.sourceforge.net/DTD/sodipodi-0.dtd"
   xmlns="http://www.w3.org/2000/svg"
   xmlns:svg="http://www.w3.org/2000/svg"><sodipodi:namedview
     id="namedview14"
     pagecolor="#505050"
     bordercolor="#eeeeee"
     borderopacity="1"
     inkscape:showpageshadow="0"
     inkscape:pageopacity="0"
     inkscape:pagecheckerboard="0"
     inkscape:deskcolor="#505050"
     inkscape:document-units="mm"
     showgrid="true"
     inkscape:zoom="0.034886493"
     inkscape:cx="25797.95"
     inkscape:cy="11379.762"
     inkscape:window-width="1366"
     inkscape:window-height="746"
     inkscape:window-x="0"
     inkscape:window-y="0"
     inkscape:window-maximized="1"
     inkscape:current-layer="layer1"
     inkscape:lockguides="false"><inkscape:grid
       type="xygrid"
       id="grid344"
       color="#969696"
       opacity="0.39215686"
       empcolor="#000000"
       empopacity="0.17254902"
       dotted="false"
       originx="1163.8102"
       originy="-13777.852" /></sodipodi:namedview><defs
     id="defs9" /><g
     inkscape:label="Layer 1"
     inkscape:groupmode="layer"
     id="layer1"
     transform="translate(1058.8103,-13926.351)"><path
       style="fill:none;stroke:#ffffff;stroke-width:5.5"
       d="m 178.63651,15224.335 c 14.87473,57.632 15.87692,117.961 18.76125,177.204 2.99954,61.609 -0.10195,-15.86 1.63148,35.587 0.11978,3.555 1.8477,14.044 0.81563,10.64 -2.07221,-6.834 -2.69197,-13.87 -3.67078,-20.912"
       id="path640" /><path
       style="fill:none;stroke:#ffffff;stroke-width:5.5"
       d="m 263.06236,15400.438 c 21.79045,-35.743 33.49255,-60.233 10.60408,-95.022"
       id="path642" /><path
       style="fill:none;stroke:#ffffff;stroke-width:5.5"
       d="m 293.65137,15243.413 c 3.26282,-13.207 22.99616,-36.36 9.78842,-39.623 -13.20771,-3.263 -16.7268,27.921 -9.78842,39.623 9.45462,15.947 33.8764,15.613 48.94241,26.416 3.86864,2.774 8.64931,21.247 14.27509,24.214 6.30391,3.324 21.46716,-73.645 27.73405,-68.974 22.96681,17.118 22.40032,55.625 39.96963,75.944 0.80409,0.93 -8.06479,-40.948 -0.4078,-44.392 22.90381,-10.301 64.15071,32.945 107.6735,-10.273 27.95493,-27.759 7.81585,-77.169 -27.73404,-29.717 -60.54604,80.816 63.52127,134.815 126.02696,94.655"
       id="path644" /><path
       style="fill:none;stroke:#ffffff;stroke-width:5.5"
       d="m 34.663913,15724.394 c 5.492189,-48.228 -17.323554,-63.142 0,0 6.641176,24.207 20.984381,45.68 29.36555,69.341 12.382381,34.956 17.558922,74.348 26.918208,110.431 1.845413,7.115 -8.236444,-12.177 -12.23555,-18.344"
       id="path646" /><path
       style="fill:none;stroke:#ffffff;stroke-width:5.5"
       d="m 28.138208,15812.079 c 43.333352,-12.891 101.635322,-35.019 148.051192,-24.581 27.59813,-9.539 55.39348,-18.525 82.79438,-28.617 114.08596,-42.016 5.67278,-81.917 -22.83984,-9.905 -12.37893,31.264 22.9269,96.088 61.17821,87.317 7.66599,-1.757 12.5075,-9.539 18.76125,-14.308"
       id="path648" /><path
       style="fill:none;stroke:#ffffff;stroke-width:5.5"
       d="m 329.95043,15710.453 c 33.83243,-9.466 99.67894,74.697 80.34726,92.087 -16.70938,15.031 0.46131,-70.308 2.03931,-74.844 4.64216,-13.342 11.37367,-24.192 19.16906,-35.587"
       id="path650" /><path
       style="fill:none;stroke:#ffffff;stroke-width:5.5"
       d="m 438.43957,15619.099 c 17.80969,11.251 39.23914,18.184 53.42909,33.753 17.15735,18.826 26.35178,69.932 30.18118,93.922 4.73868,29.686 0.0965,36.819 -0.81587,35.221 -14.46475,-25.338 -5.67574,-130.496 30.99702,-67.873 7.56216,12.913 13.64736,27.205 15.49852,42.191 0.20585,1.666 -2.33754,-2.727 -2.4471,-4.403 -0.93358,-14.275 1.71556,-34.638 8.56477,-46.96 6.13931,-11.046 22.04508,-24.56 35.48343,-10.273 27.42531,29.156 38.52863,57.538 41.1933,94.288 32.78376,-65.965 40.42965,-41.156 26.10258,-73.376"
       id="path652" /><path
       style="fill:none;stroke:#ffffff;stroke-width:5.5"
       d="m 666.83804,15662.024 c -6.77805,-31.042 -13.6619,-66.196 7.34134,-93.187 49.02436,43.205 61.9651,91.604 76.67673,151.155 1.78965,7.244 4.38103,28.989 5.70984,21.646 4.49682,-24.849 -1.08021,-81.968 20.80055,-100.526 6.05598,-5.136 34.78123,69.108 39.96985,75.211"
       id="path654" /><path
       style="fill:none;stroke:#ffffff;stroke-width:5.5"
       d="m 832.019,15646.249 c 0.55874,5.62 -6.50457,50.014 15.90632,53.197 25.23871,3.585 41.37091,-60.469 44.45603,-70.808 7.01697,-23.515 7.11346,-54.395 4.89445,-39.623 -3.62569,24.136 -10.06686,104.857 23.24767,102.36"
       id="path656" /><path
       style="fill:none;stroke:#ffffff;stroke-width:5.5"
       d="m 933.98266,15546.09 c 28.26055,57.207 54.51576,119.367 47.31097,184.174 -132.71428,-103.865 117.31607,-116.853 109.30497,-66.405 60.8581,11.108 62.4179,28.331 51.7976,-2.935"
       id="path658" /><path
       style="fill:none;stroke:#ffffff;stroke-width:5.5"
       d="m 1117.1093,15597.453 c -6.0879,-2.942 -39.8732,-90.591 -16.7222,-83.648"
       id="path660" /><path
       style="fill:none;stroke:#ffffff;stroke-width:5.5"
       d="m 1207.245,15579.476 c 5.1661,13.086 13.0877,25.396 15.4985,39.257 10.6181,61.046 -105.9626,-44.541 -15.4985,-39.257 70.7883,4.135 43.9217,49.794 34.2597,74.477"
       id="path662" /><path
       style="fill:none;stroke:#ffffff;stroke-width:5.5"
       d="m 1242.7282,15520.408 c 6.7975,-13.207 9.6394,-29.375 20.3927,-39.623 14.7412,-14.048 39.5266,20.49 46.4956,39.623 24.849,68.223 7.9471,130.723 4.4864,199.217 -0.1755,3.472 2.0694,-6.641 3.2627,-9.906 5.333,-14.592 9.7677,-29.57 16.3142,-43.659 8.6229,-18.558 28.5244,-61.755 51.3895,-74.844 44.2017,-25.302 41.3398,72.077 40.3776,90.253"
       id="path664" /><path
       style="fill:none;stroke:#ffffff;stroke-width:5.5"
       d="m -428.65847,14972.655 c 19.71542,70.432 28.21752,143.244 41.60109,214.992 35.24877,188.966 66.3448,374.102 79.1236,566.465 0.68148,10.258 7.7665,257.724 8.56501,285.066 0.80714,27.639 2.20509,55.266 2.4471,82.915 0.0303,3.467 -0.54541,13.566 -1.63147,10.273 -4.66265,-14.136 -6.25377,-29.106 -9.38064,-43.659"
       id="path666" /><path
       style="fill:none;stroke:#ffffff;stroke-width:5.5"
       d="m -374.82183,14984.762 c 68.0365,6.796 131.56888,6.506 201.0722,1.835 134.290568,-9.026 269.201737,-35.771 402.14419,-55.767 135.80113,-20.425 271.8521,-39.507 407.44645,-61.269 87.73139,-14.08 175.25828,-29.937 262.25042,-48.061 78.40896,-16.336 162.85457,-45.04 243.89677,-45.493 48.7254,-0.272 94.5308,20.676 141.1176,32.285 12.3995,3.09 97.2754,2.782 98.2927,4.036 7.8503,9.677 21.7757,217.151 24.4716,235.171 26.2069,175.173 74.0496,347.774 121.9481,518.036 31.2173,110.966 65.4679,220.856 99.5166,330.926 2.5065,8.104 25.8166,97.195 16.3144,99.425 -7.8719,1.848 -14.1978,-7.79 -21.6164,-11.006 -18.5445,-8.039 -32.4798,-11.22 -53.8369,-13.575 -51.2778,-5.653 -149.1672,-0.995 -183.1266,0.367 -212.1375,8.506 -423.84807,27.828 -635.43687,44.393 -150.09701,11.75 -300.78931,17.113 -450.67905,31.185 -209.708641,19.687 -410.26756,80.601 -618.71488,106.395 -33.25413,4.115 -48.18547,2.817 -62.80947,-26.415"
       id="path668" /><path
       style="fill:none;stroke:#ffffff;stroke-width:5.5"
       d="m 1498.8607,15320.825 c 201.6776,-13.567 403.1805,9.137 602.401,-33.386 11.0584,-2.36 22.0082,-5.205 33.0361,-7.704 130.1983,-29.504 -29.9116,-52.706 -64.4409,-85.117 -27.8405,-26.132 86.0786,-34.977 103.5947,-28.983 20.8564,7.136 41.1644,17.859 57.5076,32.652 40.3127,36.488 -58.731,186.675 -79.1236,217.927 -13.3551,20.467 -21.8563,46.591 -42.4172,59.802 -4.0093,2.576 2.991,-9.05 4.4864,-13.575"
       id="path670" /><path
       style="fill:none;stroke:#ffffff;stroke-width:5.5"
       d="m 2483.0132,14726.845 c 46.2545,39.993 35.9692,110.299 64.0331,158.492 67.4123,-9.104 -4.7432,-217.027 37.5225,-232.235 18.5021,-6.657 52.9601,101.281 71.3747,114.834 20.4866,15.077 30.788,-106.115 39.9694,-87.318 15.0351,30.781 24.806,115.999 68.5195,107.496"
       id="path672" /><path
       style="fill:none;stroke:#ffffff;stroke-width:5.5"
       d="m 2797.8768,14655.303 c -39.3525,118.516 21.0767,71.885 91.3593,93.188 24.7235,7.493 11.3226,53.914 38.3381,35.221"
       id="path674" /><path
       style="fill:none;stroke:#ffffff;stroke-width:5.5"
       d="m 3151.4863,14560.648 c 3.1756,46.655 -17.8609,130.811 22.4322,165.096"
       id="path676" /><path
       style="fill:none;stroke:#ffffff;stroke-width:5.5"
       d="m 3219.1903,14615.68 c -36.4191,103.988 109.6169,38.423 106.4498,-25.682 -0.5271,-10.671 -12.9487,5.904 -12.6436,34.854 0.069,6.588 3.1046,99.068 30.5892,95.022 12.0515,-1.774 21.4802,-11.495 32.2205,-17.243"
       id="path678" /><path
       style="fill:none;stroke:#ffffff;stroke-width:5.5"
       d="m 3419.8543,14588.531 c -65.5006,49.902 13.8707,161.184 11.8279,95.022 25.015,-9.539 49.2154,-21.576 75.045,-28.617 23.6471,-6.446 50.6528,4.696 71.3747,-14.675 25.4147,-23.758 -27.9452,-50.336 -47.7188,-43.292 -73.5487,26.202 -8.9858,99.079 42.4168,100.892 47.4821,1.675 79.0368,-31.747 77.0845,-77.412 -0.8594,-20.101 -5.5005,-75.793 -15.4987,-58.334 -13.2193,23.084 1.3942,82.958 4.0786,103.828 0.3069,2.386 7.3415,49.911 7.3415,58.334 0,2.462 -0.7009,8.707 -2.4473,6.97 -41.0791,-40.841 50.3731,-179.751 101.5556,-138.314"
       id="path680" /><path
       style="fill:none;stroke:#ffffff;stroke-width:5.5"
       d="m 2662.4689,15212.228 c 46.4357,80.7 56.8933,171.791 65.2565,262.687 3.0994,33.683 -2.5736,9.729 -17.9456,-44.026 -16.4939,-57.677 -33.1523,-118.395 -43.2321,-177.57 -2.3114,-13.569 -15.7882,-33.856 -4.0788,-41.091 74.2868,-45.899 118.9934,9.826 137.8548,69.708 6.2658,19.893 -8.3545,116.337 -19.1691,74.477 -5.6621,-21.917 -10.9948,-160.949 15.0905,-163.262 40.1095,-3.558 103.7717,109.728 111.3446,121.804 4.8993,7.813 15.9504,28.714 6.9331,26.782 -23.8024,-5.098 -67.0575,-137.943 -17.1299,-137.213 34.7012,0.507 121.8425,66.373 86.4651,107.129 -31.5042,36.295 -73.5399,-59.932 -50.9818,-88.418 19.5278,-24.66 56.6978,28.892 62.402,36.321 16.8875,21.995 17.9096,35.851 19.9848,31.185 3.8324,-8.619 1.0877,-18.833 1.6316,-28.25"
       id="path682" /><path
       style="fill:none;stroke:#ffffff;stroke-width:5.5"
       d="m 3017.7103,15181.41 c -23.9688,7.515 9.7333,-68.825 8.9729,-49.529 -0.661,16.766 -15.2652,33.976 -8.9729,49.529 12.4109,30.68 44.359,49.774 60.7701,78.513 9.4596,16.565 24.1784,79.766 -13.0514,53.931"
       id="path684" /><path
       style="fill:none;stroke:#ffffff;stroke-width:5.5"
       d="m 3033.6163,15272.764 c -6.7974,-12.352 -20.2671,-22.957 -20.3925,-37.055 -0.1984,-22.309 103.777,-8.173 117.8695,-1.835 2.5832,-19.2 -1.8365,-40.765 7.7495,-57.6 13.9128,-24.433 75.5485,20.48 79.1236,39.257 6.3402,33.299 -44.9199,158.548 -50.1661,53.564"
       id="path686" /><path
       style="fill:none;stroke:#ffffff;stroke-width:5.5"
       d="m 3268.1324,15116.472 c -4.9284,52.17 -36.2889,114.193 -15.4982,167.298 25.9897,66.385 95.6278,18.93 121.9485,-14.308 -3.3989,-24.581 -14.0767,-49.233 -10.1966,-73.743 12.5069,-79.003 78.5946,-30.369 95.8458,7.704 13.3425,29.447 0.7095,143.822 -40.3777,57.234"
       id="path688" /><path
       style="fill:none;stroke:#ffffff;stroke-width:5.5"
       d="m 3458.6006,15086.388 c 9.5166,-13.452 15.8406,-29.868 28.5496,-40.357 54.3931,-44.888 54.506,306.14 55.0604,314.417"
       id="path690" /><path
       style="fill:none;stroke:#ffffff;stroke-width:5.5"
       d="m 2314.977,14366.568 c 34.1013,148.357 14.546,49.501 37.9308,213.157 32.915,230.353 80.5804,460.942 92.175,693.772 5.0753,101.916 -1.7934,200.828 -5.7103,302.311 -0.2029,5.256 0.4083,-10.516 0.4083,-15.776"
       id="path692" /><path
       style="fill:none;stroke:#ffffff;stroke-width:5.5"
       d="m 2342.3033,14328.779 c 418.7305,-48.595 836.7402,-118.41 1257.8227,-144.184 33.1618,-2.03 281.0936,-14.372 287.5375,26.048 14.1071,88.488 -37.769,216.468 -44.4563,304.145 -20.0872,263.359 7.43,496.071 14.6827,755.408 2.5744,92.055 -0.4796,184.392 12.2357,275.894 0.06,0.434 23.6403,92.49 14.6828,95.022 -27.9519,7.903 -88.8323,2.789 -107.6738,3.302 -25.0248,0.682 -50.03,1.957 -75.0451,2.935 -31.8127,0.734 -63.6264,1.419 -95.4378,2.202 -158.437,3.897 -199.798,5.343 -397.2499,12.84 -162.4759,6.17 -325.119,12.716 -487.3861,23.114 -9.0215,0.578 -231.0713,18.306 -262.658,15.409 -20.4463,-1.875 -38.8822,-13.208 -58.3233,-19.812"
       id="path694" /><path
       style="fill:none;stroke:#ffffff;stroke-width:5.5"
       d="m 3902.6286,15141.455 c 30.997,4.769 61.6641,12.828 92.991,14.308 26.0207,1.229 51.8827,-4.94 77.9002,-6.237 94.1594,-4.694 188.4439,-1.733 282.6427,-6.237 110.4929,-5.282 221.3351,-17.549 331.9936,-11.373 27.671,1.544 70.0162,8.803 72.1903,2.935 4.8101,-12.982 -21.3307,-18.53 -34.2601,-23.481 -51.0609,-19.55 -104.7083,-31.432 -157.8393,-43.658 -28.8875,-6.648 -51.7052,-10.611 -50.9823,-14.676 1.8941,-10.649 52.9145,-24.494 65.2571,-27.149 67.9931,-14.626 160.8957,-29.613 224.7278,11.007 103.273,65.718 -116.4222,262.464 -155.3927,308.547 -9.8274,11.621 -29.9416,20.841 -28.1419,35.954 1.538,12.912 19.5771,-17.121 29.3653,-25.682"
       id="path696" /><path
       style="fill:none;stroke:#ffffff;stroke-width:5.5"
       d="m 4848.0349,14233.424 c 8.9728,14.675 21.4635,27.713 26.9184,44.026 11.402,34.096 10.9024,158.368 15.0905,197.382 10.9313,101.826 23.0741,204.017 35.8913,305.612 14.1176,111.902 36.0611,222.516 48.9423,334.595 17.4689,151.997 12.2426,303.464 12.6434,456.033 0.1286,48.872 3.533,98.228 0.8157,147.12"
       id="path698" /><path
       style="fill:none;stroke:#ffffff;stroke-width:5.5"
       d="m 5193.8953,14280.018 c -1.7751,23.337 91.7397,319.175 15.9065,167.298"
       id="path700" /><path
       style="fill:none;stroke:#ffffff;stroke-width:5.5"
       d="m 5340.7226,14388.982 c -14.6545,87.052 -95.0685,-20.823 -59.9546,-53.565 6.0929,-5.681 14.9276,-9.588 23.2479,-9.172 56.1927,2.808 28.7891,19.538 36.7067,62.737 3.2827,17.909 0.2945,57.576 17.5379,51.73 17.2434,-5.846 -11.6919,-34.487 -17.5379,-51.73 z"
       id="path702" /><path
       style="fill:none;stroke:#ffffff;stroke-width:5.5"
       d="m 5430.4508,14380.91 c -14.0028,-3.913 -30.4009,-2.985 -42.009,-11.74 -34.7525,-26.211 4.9006,-105.429 64.4411,-25.315 26.6089,35.804 14.2116,139.157 -15.091,74.844"
       id="path704" /><path
       style="fill:none;stroke:#ffffff;stroke-width:5.5"
       d="m 5490.4053,14229.022 c 10.7472,17.919 32.8769,167.718 47.311,166.564 4.1119,-0.329 6.2537,-5.381 9.3805,-8.072"
       id="path706" /><path
       style="fill:none;stroke:#ffffff;stroke-width:5.5"
       d="m 5590.3297,14314.138 c -128.2729,89.269 31.2812,69.651 86.8731,94.655 3.7793,1.7 -8.0942,2.34 -12.236,2.202"
       id="path708" /><path
       style="fill:none;stroke:#ffffff;stroke-width:5.5"
       d="m 5672.7162,14259.106 c -1.2234,11.495 -4.4291,22.951 -3.6705,34.487 0.7593,11.549 3.7988,23.029 8.1571,33.753 4.9768,12.246 10.9476,24.473 19.5767,34.487 51.91,60.236 108.1181,-76.918 50.1661,-96.123"
       id="path710" /><path
       style="fill:none;stroke:#ffffff;stroke-width:5.5"
       d="m 5848.0934,14389.348 c 3.1269,3.669 5.3113,8.423 9.3808,11.007 1.1454,0.727 -13.1913,-30.935 -13.4593,-31.552 -20.3486,-46.83 -38.8845,-94.187 -50.1661,-144.184 21.3444,-17.61 39.2018,-40.62 64.0332,-52.831 8.6101,-4.234 19.5992,2.617 27.7341,7.705 51.6915,32.328 -35.9765,115.508 -51.3895,92.821"
       id="path712" /><path
       style="fill:none;stroke:#ffffff;stroke-width:5.5"
       d="m 5982.6854,14355.229 c 0.2484,56.3 -25.1058,108.307 -22.8399,164.362"
       id="path714" /><path
       style="fill:none;stroke:#ffffff;stroke-width:5.5"
       d="m 5401.0849,14676.983 c -30.8896,63.488 -43.3477,126.666 0.8163,188.21 27.6124,38.48 73.7068,45.258 44.8635,44.393"
       id="path716" /><path
       style="fill:none;stroke:#ffffff;stroke-width:5.5"
       d="m 5357.0371,14893.443 c 0.4077,-13.819 -5.0332,-29.129 1.2234,-41.457 19.0111,-37.461 86.128,-52.178 119.9092,-31.919"
       id="path718" /><path
       style="fill:none;stroke:#ffffff;stroke-width:5.5"
       d="m 5527.52,14874.732 c -49.0823,8.904 -67.2433,-65.914 -29.3653,-85.85 69.6844,-36.677 75.3653,131.826 29.3653,85.85 -13.3201,-13.313 10.6365,-36.187 14.2748,-54.665 5.0316,-25.554 -0.2534,-46.009 15.4988,-67.139 29.5881,-39.69 122.7082,63.062 102.3713,102.359 -7.1163,13.751 -30.0324,-17.463 -33.0362,-32.652 -7.7311,-39.096 -2.4233,-75.549 10.1963,-112.632 164.1165,170.5 7.7988,-6.83 70.5587,91.353 9.0893,14.22 24.4153,-70.846 26.9185,-66.405 3.3641,5.968 22.4266,69.989 40.7855,63.47 18.5962,-6.603 26.3149,-50.633 32.2204,-66.039 1.9607,-5.114 10.4075,-18.226 5.7099,-15.408 -13.3228,7.989 -22.0956,66.213 0.4078,68.973 27.4429,3.366 57.4634,-57.233 64.0331,-57.233 10.4667,0 0.6994,21.148 3.6708,31.185 4.7854,16.163 9.8494,32.652 18.7612,46.96 14.4806,23.249 18.8177,-12.242 20.393,-17.243"
       id="path720" /><path
       style="fill:none;stroke:#ffffff;stroke-width:5.5"
       d="m 5929.6645,14714.038 c -0.091,-0.628 34.2326,50.448 33.8518,49.896 -11.4181,-16.54 -34.5784,-29.81 -33.8518,-49.896 1.0057,-27.794 25.7945,-49.286 38.3381,-74.11 3.0446,-6.025 8.0364,-28.983 21.6165,-28.983 30.6633,0 81.5808,70.524 87.2807,93.554 4.7088,19.026 8.7955,91.758 -36.299,84.383 -56.683,-9.27 -23.1407,-70.59 -7.3416,-96.857 14.3986,-23.938 60.6377,-28.578 66.4805,-57.6 2.1989,-10.923 1.3819,-22.247 1.6311,-33.386 0.2218,-9.907 -6.2076,-21.403 -0.8157,-29.718 1.5817,-2.438 15.8139,30.97 15.9068,31.186 14.6926,34.037 33.3179,91.171 39.1536,88.785 7.8822,-3.223 16.6462,-36.824 16.7222,-37.055 4.1449,-12.575 8.0229,-25.237 12.2353,-37.789 20.6764,-61.611 7.4436,36.065 43.6407,52.831 43.4573,20.129 66.9308,-112.159 10.604,-92.454 -15.2075,5.32 -3.0774,28.316 0.4079,33.019 33.8932,45.733 107.8942,61.259 105.2264,132.444 -2.232,59.559 -98.1308,114.326 -152.1296,92.087 -13.2664,-5.463 -23.3833,-16.631 -35.075,-24.948"
       id="path722" /><path
       style="fill:none;stroke:#ffffff;stroke-width:5.5"
       d="m 5423.9248,15272.431 c -12.7794,1.712 -27.6254,-2.039 -38.3381,5.136 -19.6504,13.162 -69.2116,75.968 -52.2052,107.13 36.9149,67.643 161.7411,-45.818 168.0358,-110.431 0.7845,-8.053 -5.9449,-36.755 -22.4322,-34.854 -6.9506,0.802 -10.3134,9.609 -16.3139,13.208 -12.4402,7.46 -39.3906,5.32 -38.7464,19.811 1.3608,30.599 30.3289,53.303 43.2329,81.081 16.1351,34.733 73.4264,232.213 109.7129,88.051 2.6401,-10.489 2.1752,-21.523 3.2629,-32.285"
       id="path724" /><path
       style="fill:none;stroke:#ffffff;stroke-width:5.5"
       d="m 5562.1879,15248.584 c 14.3822,60.346 47.0013,113.954 105.6343,140.516 48.5429,21.99 17.1368,-78.7 15.4983,-85.117 -9.3758,-36.712 -18.9511,-49.865 -15.0906,-49.529 39.1565,3.409 85.956,14.307 115.4227,-23.113 16.8076,-21.345 4.7545,-63.595 -27.7342,-39.99 -84.8661,61.658 38.7112,178.694 110.5286,134.278 9.1088,-22.013 21.0962,-43.045 27.3263,-66.038 5.2975,-19.552 -29.7039,-137.6 -21.6164,-139.782 17.3834,-4.691 20.4102,29.97 27.3262,46.594 10.458,25.138 18.8088,51.101 28.1419,76.678 23.5915,64.651 27.2022,-23.11 48.127,-49.896 3.4025,-4.355 25.6054,72.398 44.048,67.873"
       id="path726" /><path
       style="fill:none;stroke:#ffffff;stroke-width:5.5"
       d="m 6034.4831,15166.769 c -67.9079,-34.634 -32.5797,31.82 -7.3416,51.731 36.653,28.915 115.9954,21.255 134.5917,72.275 17.604,48.298 -67.9564,165.511 -121.1324,131.344 -16.0935,-10.341 -23.7924,-30.194 -31.8127,-46.227"
       id="path728" /><path
       style="fill:none;stroke:#ffffff;stroke-width:5.5"
       d="m 4843.1409,14240.395 c 145.0617,-83.125 316.5056,-100.523 477.1892,-136.113 164.9447,-36.533 327.4669,-82.425 491.8721,-121.071 40.2365,-9.458 307.6173,-72.561 345.0452,-48.795 26.6586,16.928 62.4665,142.077 71.782,170.967 70.1506,217.557 104.3779,454.879 123.5797,682.032 14.1084,166.897 11.6115,335.854 35.4836,501.893 14.4211,100.304 124.1208,393.429 61.178,480.247 -4.1331,5.701 -35.9804,-21.707 -38.3381,-22.746 -21.4993,-9.477 -41.4084,-11.501 -65.2566,-12.108 -143.1769,-3.64 -286.8213,18.849 -429.4706,26.416 -273.1159,14.487 -297.5293,17.538 -524.9087,12.474 -71.9963,-1.604 -158.2796,1.212 -227.9902,-22.013"
       id="path730" /><path
       style="fill:none;stroke:#ffffff;stroke-width:5.5"
       d="m 5641.7504,15767.377 c -26.0191,134.683 -28.3027,272.507 -46.4954,408.338 -5.6132,41.909 -8.4879,117.541 -23.2477,90.987"
       id="path736" /><path
       style="fill:none;stroke:#ffffff;stroke-width:5.5"
       d="m 5083.8059,16638.352 c 54.6041,60.706 123.0487,136.62 104.4106,226.366 -1.7473,8.414 -4.3397,18.243 -11.4199,23.114 -45.2893,31.153 -113.6084,-102.812 -90.1359,-140.516 23.0053,-36.954 148.4921,-9.241 193.7308,-30.084 53.3109,-24.562 45.1036,-128.298 12.2357,-97.224 -39.2589,37.117 -51.9798,102.827 -14.6828,147.486 32.6657,39.114 99.1362,-18.717 121.1329,-37.788"
       id="path738" /><path
       style="fill:none;stroke:#ffffff;stroke-width:5.5"
       d="m 5395.8142,16616.706 c -1.6315,19.69 -7.0221,39.427 -4.894,59.068 4.3026,39.715 82.3748,90.758 119.5011,75.578 21.7557,-8.896 -25.8942,-66.799 -17.5376,-67.873 40.4281,-5.196 76.1513,-6.624 114.1989,-26.049 13.983,-7.139 45.375,-55.448 8.1574,-57.233 -6.2537,-0.3 -14.714,1.928 -17.1299,7.704 -8.7255,20.861 -13.9584,43.793 -13.8671,66.406 0.065,16.149 44.4481,91.593 68.5194,56.132 15.7747,-23.238 26.3983,-50.739 30.5893,-78.512 4.1717,-27.644 -3.8883,-55.781 -6.118,-83.649 -0.3537,-4.422 -4.2727,-9.644 -1.6314,-13.208 0.3601,-0.486 23.5024,44.764 26.1027,49.529 12.9284,23.694 35.4576,80.686 61.586,93.188 30.9515,14.81 -10.6272,-166.559 25.6945,-142.717 8.2098,5.389 14.1306,13.762 19.9853,21.646 2.0058,2.701 71.705,83.555 61.9935,113.734 -7.9436,24.684 -77.0202,14.935 -79.5314,-2.569 -2.5741,-17.941 132.4531,-35.933 148.8668,-71.542 12.3026,-26.69 -41.8373,-66.337 -49.7578,-31.551 -6.4553,28.349 71.7819,100.36 71.7819,75.21 0,-22.748 -10.5574,-43.693 -9.3808,-66.772 1.4986,-29.39 32.2271,-20.767 52.2058,-22.747 10.7553,-1.065 38.3323,-6.241 29.773,-12.841 -6.4397,-4.965 -55.0616,48.653 -22.8396,74.844 22.6181,18.385 62.2191,-37.515 68.9271,-52.097 11.9018,-25.873 2.6144,-28.402 2.4474,-27.883 -10.3664,32.28 6.9308,92.371 40.3778,97.224"
       id="path740" /><path
       style="fill:none;stroke:#ffffff;stroke-width:5.5"
       d="m 6109.1512,16501.139 c 41.0295,55.955 69.7801,120.148 108.0817,177.57"
       id="path742" /><path
       style="fill:none;stroke:#ffffff;stroke-width:5.5"
       d="m 6210.299,16601.664 c -10.0108,-33.867 -21.6874,-67.463 -29.3653,-101.993"
       id="path744" /><path
       style="fill:none;stroke:#ffffff;stroke-width:5.5"
       d="m 6177.2631,16418.224 c 11.6917,-9.784 20.7865,-24.036 35.0756,-29.351 15.5609,-5.787 33.1846,-3.176 49.7583,-2.201 133.744,7.866 53.7528,95.856 28.1419,177.57 -3.1324,9.994 -8.6521,20.657 -6.1177,30.818 12.6294,50.636 91.4982,17.712 75.4528,1.835"
       id="path746" /><path
       style="fill:none;stroke:#ffffff;stroke-width:5.5"
       d="m 6255.1631,16585.888 c 16.7222,-8.56 32.9276,-18.215 50.166,-25.681 42.3331,-18.335 96.3454,-26.848 134.5923,-54.299 17.391,-12.482 23.5251,-35.614 28.5498,-55.032 3.1703,-12.252 15.4472,-42.423 3.6709,-37.789 -41.3806,16.285 -39.9812,103.95 66.48,73.01 14.2959,-4.155 50.6608,-18.156 53.8368,-38.156 2.6334,-16.584 -15.2503,-38.562 -13.0516,-37.055 62.651,42.938 97.6053,172.013 6.5257,205.453 -63.6775,23.38 -75.0575,-93.83 -32.2207,-75.577"
       id="path748" /><path
       style="fill:none;stroke:#ffffff;stroke-width:5.5"
       d="m 6983.5909,16390.708 c 42.1021,10.77 172.0376,22.884 120.3174,99.424 -8.6519,12.804 -53.3323,67.053 -82.795,41.091 -14.4481,-12.731 -10.1222,-37.16 -15.0902,-55.766 -7.5393,-28.233 -28.6534,-56.197 -22.4322,-84.749 7.0244,-32.24 39.9198,-52.594 58.3234,-79.98 5.5682,-8.287 1.8664,-28.18 11.828,-27.516 10.1539,0.676 43.5819,138.579 56.2837,160.693 4.9443,8.609 17.5535,-97.352 22.8396,-97.223 2.8589,0.07 60.8195,76.211 66.0723,82.548 40.8578,49.296 31.7926,1.575 35.0756,-49.896 1.2528,-19.639 0.2709,-27.262 -4.4863,-38.155 7.0538,-39.411 3.749,-70.057 -3.6707,-106.762"
       id="path750" /><path
       style="fill:none;stroke:#ffffff;stroke-width:5.5"
       d="m 7234.4214,16163.241 c 10.6043,2.079 24.2803,-1.511 31.8127,6.238 21.6991,22.321 32.661,53.051 50.5738,78.512 25.8789,36.783 66.7547,68.469 67.704,116.301"
       id="path752" /><path
       style="fill:none;stroke:#ffffff;stroke-width:5.5"
       d="m 7291.5209,16301.922 c 45.3033,-29.468 98.026,-43.7 149.2747,-59.068 -65.3719,71.046 97.8363,94.845 99.5167,57.968 0.5386,-11.82 -6.5256,-22.747 -9.7884,-34.12"
       id="path754" /><path
       style="fill:none;stroke:#ffffff;stroke-width:5.5"
       d="m 7513.3939,16170.946 c 9.9242,10.639 20.3015,20.874 29.773,31.919 36.7493,42.852 50.9455,56.077 71.7825,104.56 3.334,7.758 4.658,16.265 6.1177,24.582 0.203,1.156 -1.126,4.471 -1.2234,3.302 -0.8874,-10.644 4.8247,-102.544 24.8793,-94.289 28.1974,11.608 41.1676,69.964 53.8363,94.656"
       id="path756" /><path
       style="fill:none;stroke:#ffffff;stroke-width:5.5"
       d="m 7698.9673,16254.228 c -0.64,-13.879 -27.0999,-153.507 -8.1568,-149.688 8.877,1.79 44.2558,51.778 45.6798,53.932 9.1778,13.885 17.1831,28.534 24.8787,43.292 4.693,9 8.1905,18.574 12.236,27.883 15.4545,35.563 -4.7001,-37.873 8.5648,-48.429 6.7876,-5.401 1.1591,11.07 16.3139,27.884 27.7207,30.754 42.8226,33.222 81.1634,26.415 18.3745,-126.163 -79.247,-42.77 -62.8098,-25.315 37.582,39.911 120.512,7.59 121.9486,25.315 3.706,45.723 -2.3413,161.128 -32.6282,196.282 -69.2069,80.328 -168.7845,46.484 -225.136,-24.215"
       id="path758" /><path
       style="fill:none;stroke:#ffffff;stroke-width:5.5"
       d="m 798.15013,16027.69 c -0.13591,28.373 4.88122,57.242 -0.4078,85.117 -20.18736,106.395 -127.27032,252.426 -179.45592,336.063 -54.70776,87.679 -108.3324,176.445 -164.77302,263.054"
       id="path760" /><path
       style="fill:none;stroke:#ffffff;stroke-width:5.5"
       d="m -1012.5681,16979.414 c 14.51812,105.387 29.69589,210.85 46.90336,315.885 1.21325,7.405 6.2234,28.864 2.44711,22.379 -27.30495,-46.89 -32.91576,-104.251 -46.08747,-155.924 -11.0028,-43.163 -32.8873,-87.497 -40.7855,-131.343 -2.4325,-13.504 -10.5789,-30.039 -2.4471,-41.091 8.1348,-11.056 26.6464,-6.604 39.9696,-9.906 -3.5347,-23.847 -14.8972,-47.819 -10.6041,-71.542 11.6617,-64.438 129.48347,-0.311 133.77615,91.721 2.72015,58.317 -103.25402,203.924 -87.68861,56.133"
       id="path762" /><path
       style="fill:none;stroke:#ffffff;stroke-width:5.5"
       d="m -848.20276,16896.132 c 4.35047,14.431 9.2733,28.701 13.0514,43.292 33.42229,129.077 -0.54499,21.088 42.00892,150.054 11.99592,36.356 24.34249,72.596 36.29906,108.964 1.23177,3.747 2.88473,15.299 3.26298,11.373 2.43906,-25.316 -7.80227,-107.261 16.72195,-130.976 24.45669,-23.65 42.41671,114.919 42.41671,134.645"
       id="path764" /><path
       style="fill:none;stroke:#ffffff;stroke-width:5.5"
       d="m -633.67134,17044.352 c 1.95484,53.239 28.85754,123.602 2.85493,174.636"
       id="path766" /><path
       style="fill:none;stroke:#ffffff;stroke-width:5.5"
       d="m -709.94003,17142.676 c 56.4093,4.451 31.83067,8.831 74.63721,-6.237"
       id="path768" /><path
       style="fill:none;stroke:#ffffff;stroke-width:5.5"
       d="m -588.39947,17058.66 c 4.75829,16.755 5.11045,35.452 14.27485,50.263 20.18459,32.621 68.70049,37.911 83.2022,77.045 14.12118,38.108 -23.31199,104.564 -58.73086,43.292"
       id="path770" /><path
       style="fill:none;stroke:#ffffff;stroke-width:5.5"
       d="m -496.22446,17196.241 c 17.6416,-50.181 22.86548,-29.903 3.26274,-62.737"
       id="path772" /><path
       style="fill:none;stroke:#ffffff;stroke-width:5.5"
       d="m -489.69875,17059.761 c 7.61328,-16.143 13.52264,-33.205 22.83984,-48.428 1.55996,-2.549 36.24908,-38.401 42.82456,-31.552 13.34376,13.898 -66.80039,151.155 33.44413,151.155"
       id="path774" /><path
       style="fill:none;stroke:#ffffff;stroke-width:5.5"
       d="m -344.50272,17045.82 c -41.12376,121.704 63.38319,39.493 61.58603,-18.711 -0.0759,-2.46 -3.72628,-7.026 -5.30204,-5.137 -3.36214,4.033 -3.80613,10.187 -3.26297,15.409 5.02994,48.357 10.16516,47.828 37.11493,83.649"
       id="path776" /><path
       style="fill:none;stroke:#ffffff;stroke-width:5.5"
       d="m -242.53903,16921.447 c 21.17345,97.258 69.85207,183.5 128.88189,262.32"
       id="path778" /><path
       style="fill:none;stroke:#ffffff;stroke-width:5.5"
       d="m -959.13903,17522.765 c 44.36232,98.528 34.5653,222.164 88.09641,317.352 14.00003,24.894 22.06199,-12.817 24.87914,-19.445"
       id="path780" /><path
       style="fill:none;stroke:#ffffff;stroke-width:5.5"
       d="m -823.73144,17645.303 c -21.59027,16.83 -26.8142,80.35 11.82774,83.649 46.55548,3.974 80.19529,-68.167 94.62212,-100.892 3.14679,-7.139 4.16536,-30.899 3.67078,-23.114 -0.58979,9.284 -6.55201,124.965 30.58898,121.438 18.67082,-1.774 29.63751,-22.991 44.45627,-34.487"
       id="path782" /><path
       style="fill:none;stroke:#ffffff;stroke-width:5.5"
       d="m -607.16094,17533.772 c 0.13602,-15.899 0.27202,-31.797 0.40804,-47.695 -0.40788,-2.446 -0.47305,-9.701 -1.22367,-7.338 -7.33314,23.088 1.32051,28.312 0.81563,55.033 -0.93099,49.27 -4.18505,98.574 -10.19625,147.486 -0.15576,1.267 -1.71217,32.423 -17.12978,23.48 -12.25053,-7.107 -20.93656,-19.078 -31.40483,-28.617"
       id="path784" /><path
       style="fill:none;stroke:#ffffff;stroke-width:5.5"
       d="m -715.65011,17597.242 c 14.27494,-4.28 27.92386,-12.603 42.82477,-12.841 16.74673,-0.268 32.33772,9.181 48.94244,11.373 45.20679,5.97 99.08977,-3.279 130.10557,-39.623 12.25455,-14.359 13.8955,-28.169 0,-44.759 -12.47907,-14.899 -43.72094,30.021 -44.86407,68.24 -0.78663,26.299 28.5646,98.999 67.70391,83.282 58.23236,-23.385 39.72237,-88.376 35.48319,-134.646 -0.63082,-6.885 -1.57795,-25.851 2.85517,-20.545 22.89199,27.4 51.91596,69.161 67.29588,103.827 8.27754,18.658 17.71978,48.657 11.41991,49.529 -8.28505,1.146 -22.10887,-39.528 -23.24766,-57.967 -4.18293,-67.729 46.91528,-154.777 122.35619,-149.687"
       id="path786" /><path
       style="fill:none;stroke:#ffffff;stroke-width:5.5"
       d="m 2835.1293,15664.88 c 10.8763,22.624 28.2655,43.152 32.6284,67.872 6.377,36.132 -0.8064,73.377 -1.2234,110.065 -1.4766,129.927 -1.7126,88.664 -0.4082,227.099 0.2532,26.895 15.0368,129.582 -17.1297,156.291"
       id="path788" /><path
       style="fill:none;stroke:#ffffff;stroke-width:5.5"
       d="m 2191.8497,16695.517 c 68.5318,51.216 248.9983,184.624 170.0754,290.57 -9.56,12.833 -22.1421,24.803 -37.1149,30.451 -12.0978,4.563 -27.7913,5.034 -38.7462,-1.834 -77.1451,-48.367 0.1729,-162.786 40.7855,-205.087"
       id="path790" /><path
       style="fill:none;stroke:#ffffff;stroke-width:5.5"
       d="m 2382.3176,16771.095 c -5.563,16.26 -33.277,66.15 -6.5255,81.814 46.2769,27.098 99.0635,-21.428 128.4741,-50.997 9.7645,-9.816 22.4127,-27.162 25.6945,-42.191 0.3216,-1.472 -1.2265,-5.305 -2.039,-4.036 -20.6437,32.255 4.0335,155.597 44.864,91.721"
       id="path792" /><path
       style="fill:none;stroke:#ffffff;stroke-width:5.5"
       d="m 2589.5074,16717.163 c 7.8056,-16.126 -17.5676,-122.692 15.9066,-44.026 16.5874,38.982 77.6572,155.377 57.5073,195.548 -24.6187,49.079 -81.4119,-139.411 -73.4139,-151.522 11.8126,-17.887 41.2554,-11.903 61.1785,-19.812 13.7591,-5.462 26.0792,-14.065 39.5616,-20.178 3.3123,-1.502 7.6522,-4.693 10.6045,-2.568 9.648,6.943 -39.9773,77.574 -3.2629,79.613 28.7618,1.597 51.43,-75.8 56.6915,-95.389 1.6423,-6.115 2.4048,-12.438 3.2628,-18.711 0.2323,-1.696 0.1723,-6.84 0,-5.137 -4.8066,47.568 33.6931,102.168 65.2566,133.912 6.3921,6.429 36.2162,39.376 41.6012,13.942"
       id="path794" /><path
       style="fill:none;stroke:#ffffff;stroke-width:5.5"
       d="m 3015.3074,16553.901 c 22.9092,57.59 49.2951,169.738 102.3718,208.388 5.5672,-79.828 -39.3474,-152.755 -33.0362,-232.235 0.5209,-6.56 6.0447,-57.84 21.2081,-57.601 26.287,0.415 66.0065,134.61 91.7672,154.824 24.0963,18.909 27.1376,-114.76 42.825,-88.418 26.1396,43.892 34.4242,96.969 76.6763,130.976"
       id="path796" /><path
       style="fill:none;stroke:#ffffff;stroke-width:5.5"
       d="m 3349.7479,16513.177 c -17.1299,10.762 -39.0303,16.27 -51.3895,32.286 -8.9286,11.57 -7.9208,28.71 -6.9334,43.292 5.0837,75.072 102.5453,45.668 147.2353,59.067"
       id="path798" /><path
       style="fill:none;stroke:#ffffff;stroke-width:5.5"
       d="m 2513.239,17327.286 c 4.5136,25.129 103.3202,225.063 126.4344,212.424 11.91,-6.511 16.8582,-21.279 25.2873,-31.918"
       id="path800" /><path
       style="fill:none;stroke:#ffffff;stroke-width:5.5"
       d="m 2666.5919,17375.348 c -7.4724,42.468 -27.033,58.287 24.4715,67.873 39.8077,7.408 118.6143,-59.367 123.1718,-56.867 14.7846,8.109 11.6292,165.749 63.6251,75.944"
       id="path802" /><path
       style="fill:none;stroke:#ffffff;stroke-width:5.5"
       d="m 2891.7274,17330.588 c -1.2234,-19.078 -1.9645,-38.193 -3.6703,-57.233 -1.2864,-14.36 -2.8805,-28.713 -5.3025,-42.925 -0.4495,-2.639 -2.8427,-9.982 -3.2623,-7.338 -9.7438,61.36 35.1224,141.631 18.7611,201.418 -2.829,10.337 -21.145,-4.839 -30.5893,-9.906"
       id="path804" /><path
       style="fill:none;stroke:#ffffff;stroke-width:5.5"
       d="m 2811.7883,17348.932 c 25.6948,-7.338 50.7778,-17.32 77.0845,-22.013 41.5139,-7.406 112.6186,7.041 150.0905,-21.646 26.2617,-20.104 -2.1241,-94.839 -24.8793,-56.499 -19.7655,33.302 22.9584,132.693 70.1508,112.999 65.2243,-27.219 -27.9564,-147.329 -13.4588,-167.298 11.7866,-16.235 118.2708,103.967 104.4104,124.006 -12.4638,18.019 -39.3282,-27.901 -37.1147,-69.707 2.9649,-56.007 32.8914,-86.776 82.3865,-100.893"
       id="path806" /><path
       style="fill:none;stroke:#ffffff;stroke-width:5.5"
       d="m 5565.1218,17335.375 c 0.272,-11.374 0.544,-22.747 0.8157,-34.12 -0.136,-0.612 -0.3929,-2.461 -0.4077,-1.835 -1.4459,60.486 -1.6788,153.46 66.888,180.873 46.7908,18.707 117.117,-15.886 121.1329,-69.708 2.6646,-35.715 -22.3224,-81.713 -31.8127,-115.567"
       id="path808" /><path
       style="fill:none;stroke:#ffffff;stroke-width:5.5"
       d="m 5732.7499,17231.548 c 19.9851,13.819 38.6382,29.796 59.9546,41.457 52.863,28.917 93.7969,27.459 126.8428,75.944 23.4691,34.434 -30.939,110.754 -68.1117,75.945 -11.0241,-10.323 -18.0242,-24.719 -23.2476,-38.89 -34.0344,-92.331 113.3486,-71.119 160.6945,-80.347 23.1267,-4.507 65.5031,-47.222 33.0361,-52.464 -39.6425,-6.4 -95.4183,83.546 -75.4528,118.136 21.3254,36.946 113.4679,-59.502 119.9091,-68.974 10.3236,-15.18 13.8669,-33.997 20.8003,-50.996 -0.2718,-18.955 4.6847,-38.724 -0.8155,-56.866 -3.9072,-12.888 -28.3783,11.693 -24.4711,24.581 3.9661,13.081 14.7571,23.568 25.2866,32.285 7.5309,6.235 187.4821,118.093 194.5468,154.457 11.3145,58.238 -83.1707,58.644 -111.3441,43.292 -42.105,-22.943 -50.9897,-76.134 -47.7192,-118.502"
       id="path810" /><path
       style="fill:none;stroke:#ffffff;stroke-width:5.5"
       d="m 6363.7007,17158.538 c -6.3897,-29.473 -15.3281,-58.506 -19.169,-88.418 -6.9414,-54.056 40.1521,-50.961 24.0633,30.084"
       id="path812" /><path
       style="fill:none;stroke:#ffffff;stroke-width:5.5"
       d="m 6386.1326,17216.138 c 3.4859,51.133 134.6092,163.308 109.7129,203.619"
       id="path814" /><path
       style="fill:none;stroke:#ffffff;stroke-width:5.5"
       d="m 6465.2563,17206.233 c 42.3484,-32.802 176.0841,251.197 114.6072,237.372"
       id="path816" /><path
       style="fill:none;stroke:#ffffff;stroke-width:5.5"
       d="m 6495.8455,17261.265 c -54.6899,-24.583 -22.0191,-217.283 64.4409,-111.532 41.4189,50.66 30.5522,148.071 -24.4716,184.541"
       id="path818" /><path
       style="fill:none;stroke:#ffffff;stroke-width:5.5"
       d="m 5966.8583,17930.456 c -9.6981,-20.081 -31.0412,-58.239 -33.0362,-82.915 -1.2514,-15.482 26.4864,17.356 35.8913,29.717 15.9644,20.982 31.1703,42.557 45.6798,64.571 33.065,50.166 58.7324,103.415 89.3199,154.824 28.4787,47.865 -71.9265,-181.489 -11.8277,-164.73 30.2847,8.445 41.0268,61.692 69.3354,73.01 0.4024,0.16 -4.825,-19.184 -1.2235,-30.452 4.3183,-13.511 21.2236,-27.65 30.5888,-35.22 15.6226,-12.628 85.847,-51.511 73.4137,-79.98 -5.6584,-12.956 -28.9679,11.096 -35.0753,23.847 -17.2503,36.016 -18.6973,66.049 28.1419,88.419 54.5668,26.06 128.6211,-108.941 72.1899,-151.889 -9.431,-7.178 18.296,15.071 27.3262,22.747 12.45,10.581 24.9531,21.247 35.8913,33.386 5.7179,6.344 8.541,27.609 14.2748,21.279 36.8771,-40.713 41.2628,-106.993 34.2601,-157.392"
       id="path820" /><path
       style="fill:none;stroke:#ffffff;stroke-width:5.5"
       d="m 6430.1807,17687.581 c 40.6715,27.987 180.8583,116.003 128.474,184.908 -7.951,10.459 -21.9374,18.048 -35.075,17.977 -35.7243,-0.193 -64.2477,-53.281 -53.0214,-84.016 19.5558,-53.539 112.4283,-47.093 154.1692,-73.376 7.3949,-4.657 36.2977,-30.926 2.0389,-39.99 -95.4461,-25.253 -96.3565,148.299 4.4865,130.243 47.3591,-8.48 80.382,-36.932 75.8611,-86.951 -2.2788,-25.215 -11.3511,-50.662 -23.2476,-73.01 -0.7271,-1.365 -3.3856,-4.844 -3.2631,-3.302 1.3906,17.514 52.0705,143.288 53.8369,143.818 8.4703,2.54 -4.1913,-17.746 -2.4472,-26.416 8.9472,-44.473 16.3135,-90.046 34.2599,-131.71 11.348,-26.345 54.5478,-80.445 91.7673,-66.405"
       id="path822" /></g></svg>
